<?xml version="1.0" encoding="UTF-8" standalone="no"?>
<!DOCTYPE svg PUBLIC "-//W3C//DTD SVG 1.0//EN" "http://www.w3.org/TR/2001/REC-SVG-20010904/DTD/svg10.dtd">
<svg xmlns:svg="http://www.w3.org/2000/svg" xmlns="http://www.w3.org/2000/svg" version="1.0" width="100%" height="100%" viewBox="0 0 48 48" id="_batterie01">
<defs/>
<g id="layer2">
<path d="M 6.20,31.31 C 7.37,30.01 26.78,6.61 28.71,4.40 32.33,0.26 41.39,5.82 38.80,11.13 36.22,16.43 27.46,31.69 22.37,40.49 17.07,49.68 1.55,37.26 6.20,31.31 z" id="path3172" style="fill:#b5b4b1;fill-opacity:1" />
<path d="m 30.77,18.22 c 0.04,-0.45 -0.19,-0.98 -0.56,-0.89 -0.29,-0.12 -0.67,-0.82 -0.85,-0.27 0.18,0.27 0.92,0.44 0.69,0.79 0.14,0.41 0.61,-0.18 0.44,0.47 0.19,0.21 0.16,0.08 0.29,-0.09 m -2.38,3.95 c 0.05,-0.36 -0.21,-1.11 -0.54,-0.93 -0.29,-0.12 -0.66,-0.85 -0.89,-0.50 -0.02,0.31 0.56,0.53 0.77,0.81 -0.36,0.69 0.56,0.00 0.36,0.55 -0.10,0.16 0.27,0.40 0.29,0.06 m -2.63,4.38 c -0.23,-0.31 -0.96,-0.62 -0.25,-0.66 0.23,-1.05 -1.42,-1.46 -1.33,-0.83 -0.43,0.25 0.23,0.57 0.43,0.82 0.33,0.31 0.66,0.62 0.99,0.94 0.05,-0.09 0.10,-0.18 0.16,-0.27 m -1.99,3.30 c -0.31,-0.57 -0.67,0.02 -0.16,0.27 0.05,-0.09 0.10,-0.18 0.16,-0.27 z m 9.14,-15.32 c -0.43,-0.30 -0.87,-0.61 -1.31,-0.92 -0.55,0.37 0.52,0.44 0.16,0.78 -0.35,1.15 0.94,1.00 1.14,0.14 z M 24.06,29.03 c -0.39,-0.16 -0.21,-0.69 -0.57,-0.69 -0.31,0.10 -0.76,-1.07 -1.18,-0.48 -0.25,0.59 0.41,0.11 0.59,0.47 0.56,0.25 0.01,0.63 0.48,0.90 0.25,-0.71 0.45,0.54 0.68,-0.19 z M 32.48,14.66 c -0.38,0.78 -0.73,-0.66 -0.11,-0.08 0.03,0.02 0.07,0.05 0.11,0.08 z m -0.80,1.17 c 0.55,-1.38 -2.06,-1.03 -0.81,0.05 0.22,0.20 0.64,0.27 0.81,-0.05 z m -1.82,2.96 c -0.18,-0.60 0.29,-0.14 0.26,-0.61 -0.46,-0.36 -0.93,-0.73 -1.40,-1.10 -0.56,0.41 0.91,0.65 0.02,0.83 -0.24,0.47 0.69,1.31 1.10,0.88 z m -0.58,0.94 c 0.58,-1.27 -1.97,-1.38 -0.96,-0.12 0.22,0.25 0.72,0.53 0.96,0.12 z m -2.14,3.48 c -0.16,-0.64 0.24,-0.10 0.25,-0.60 -0.49,-0.43 -0.99,-0.87 -1.49,-1.31 -0.59,0.35 0.89,0.77 0.12,0.80 -0.41,0.47 0.66,1.52 1.10,1.10 m -0.67,1.09 c -0.19,-0.61 0.35,-0.13 0.21,-0.64 -0.34,-0.30 -0.69,-0.61 -1.03,-0.92 -0.46,0.46 0.64,0.63 0.59,1.14 -0.29,0.15 0.07,0.59 0.22,0.43 z m -0.38,0.62 c 0.61,-1.09 -1.88,-1.90 -1.11,-0.36 0.22,0.30 0.78,0.84 1.11,0.36 z m -1.99,3.25 c 0.62,-0.90 -1.60,-2.02 -1.21,-0.78 0.24,0.43 0.24,-0.69 0.71,-0.02 0.59,0.38 -0.39,0.94 0.39,0.91 l 0.10,-0.11 m -1.32,2.15 c 0.59,-0.97 -1.74,-2.23 -1.25,-0.64 0.21,0.35 0.83,1.15 1.25,0.64 z m -0.73,1.19 c 0.04,-0.55 -0.08,-0.34 0.22,-0.42 0.19,-0.34 -0.46,-0.59 -0.63,-0.90 -0.17,-0.36 -0.85,-0.66 -0.53,-0.10 0.45,0.24 1.10,1.56 0.24,0.74 -0.21,-0.21 -0.69,-0.86 -0.69,-0.28 0.42,0.36 0.73,0.95 1.29,1.07 l 0.10,-0.09 z m 9.24,-15.07 c -0.36,-0.31 -1.36,-1.12 -1.24,-0.10 -0.55,-0.17 -0.05,0.46 0.26,0.57 0.24,0.45 0.91,0.26 0.36,-0.09 -0.59,-0.22 -0.47,-1.05 0.14,-0.35 0.27,0.28 0.30,0.30 0.46,-0.01 m -2.39,3.88 c -0.37,-0.24 -1.06,-1.17 -1.34,-0.44 0.19,0.17 -0.58,0.24 -0.01,0.56 0.29,0.15 0.66,0.77 0.91,0.60 0.22,-0.39 -0.97,-0.60 -0.58,-1.08 0.39,-0.05 0.83,1.05 1.03,0.35 m -3.87,6.29 c -0.41,-0.31 -0.73,-0.89 -1.27,-0.94 -0.29,0.35 0.01,0.49 -0.33,0.49 -0.19,0.33 0.48,0.58 0.65,0.87 0.18,0.45 0.83,0.40 0.40,-0.03 -0.48,-0.23 -0.94,-1.42 -0.10,-0.58 0.27,0.15 0.47,0.74 0.64,0.19 m -1.68,2.74 c -0.40,-0.40 -0.81,-0.80 -1.21,-1.20 -0.39,0.36 0.29,0.60 0.48,0.90 0.26,0.13 0.56,0.90 0.73,0.29 z m 8.16,-13.73 c -1.16,0.22 -0.39,-1.32 3.2e-5,8e-6 M 29.04,19.55 c -0.72,0.31 -0.83,-1.18 -0.07,-0.32 0.06,0.08 0.14,0.21 0.07,0.32 m -3.21,5.16 c -0.55,0.30 -1.03,-1.17 -0.22,-0.49 0.11,0.12 0.31,0.30 0.22,0.49 m -3.34,5.36 c -0.59,0.26 -1.09,-1.34 -0.25,-0.55 0.11,0.14 0.33,0.33 0.25,0.55 z m 7.18,-11.59 c -0.67,0.33 -0.80,-1.13 -0.05,-0.29 0.07,0.07 0.13,0.20 0.05,0.29 z m -2.74,4.39 c -0.71,0.30 -0.84,-1.25 -0.07,-0.30 0.05,0.07 0.15,0.20 0.07,0.30 m -1.77,2.84 c -0.54,0.29 -1.01,-1.18 -0.21,-0.48 0.10,0.12 0.33,0.30 0.21,0.48 z" id="path5699" style="font-size:2.83px;font-style:normal;font-variant:normal;font-weight:bold;font-stretch:normal;line-height:125%;letter-spacing:0px;word-spacing:0px;fill:#041e0a;font-family:DejaVu Sans;-inkscape-font-specification:DejaVu Sans Bold" />
<path d="m 29.11,14.78 c 0.36,-0.54 0.49,-1.04 0.38,-1.47 -0.10,-0.42 -0.45,-0.76 -1.03,-1.01 -0.57,-0.24 -1.14,-0.28 -1.69,-0.13 -0.56,0.15 -1.07,0.49 -1.52,1.02 -0.45,0.52 -0.63,1.00 -0.52,1.43 0.11,0.43 0.51,0.78 1.17,1.04 0.65,0.26 1.28,0.32 1.84,0.17 0.55,-0.15 1.01,-0.51 1.38,-1.06 0,0 0,0 0,0 m -2.55,3.80 c 0.13,-0.20 0.26,-0.42 0.37,-0.64 0.11,-0.22 0.20,-0.44 0.29,-0.67 0,0 -0.76,-0.30 -0.76,-0.30 -0.04,0.20 -0.13,0.40 -0.22,0.59 -0.08,0.19 -0.17,0.36 -0.29,0.53 -0.16,0.23 -0.34,0.40 -0.52,0.50 -0.18,0.09 -0.35,0.08 -0.52,0.02 -0.18,-0.07 -0.25,-0.18 -0.24,-0.35 0.00,-0.16 0.10,-0.38 0.30,-0.64 0,0 0.32,-0.43 0.32,-0.43 0,0 -0.69,-0.27 -0.69,-0.27 0,0 -0.32,0.41 -0.32,0.41 -0.23,0.29 -0.44,0.51 -0.66,0.62 -0.22,0.11 -0.43,0.14 -0.63,0.06 -0.19,-0.07 -0.26,-0.22 -0.25,-0.41 0.01,-0.18 0.12,-0.41 0.35,-0.69 0.15,-0.18 0.32,-0.36 0.53,-0.53 0.20,-0.17 0.46,-0.33 0.71,-0.48 0,0 -0.82,-0.33 -0.82,-0.33 -0.23,0.17 -0.45,0.37 -0.66,0.57 -0.21,0.19 -0.40,0.36 -0.58,0.57 -0.49,0.58 -0.75,1.07 -0.78,1.46 -0.02,0.39 0.17,0.69 0.61,0.86 0.30,0.11 0.59,0.13 0.89,0.06 0.30,-0.06 0.60,-0.23 0.89,-0.47 -0.11,0.27 -0.14,0.51 -0.07,0.71 0.07,0.19 0.25,0.32 0.52,0.42 0.38,0.14 0.76,0.13 1.14,-0.06 0.37,-0.19 0.73,-0.55 1.09,-1.09 0,0 0,0 0,0 m -2.64,3.73 c 0,0 0.42,-1.04 0.42,-1.04 0,0 -0.80,-0.30 -0.80,-0.30 0,0 -0.44,1.04 -0.44,1.04 0,0 -3.12,-1.18 -3.12,-1.18 0,0 0.74,-0.90 0.74,-0.90 0,0 -0.82,-0.31 -0.82,-0.31 0,0 -2.38,2.79 -2.38,2.79 0,0 0.90,0.33 0.90,0.33 0,0 0.74,-0.90 0.74,-0.90 0,0 4.07,1.53 4.07,1.53 0,0 0.69,-1.02 0.69,-1.02 0,0 0,0 0,0 m -2.89,4.28 c 0,0 -1.96,-2.82 -1.96,-2.82 0,0 -1.14,-0.42 -1.14,-0.42 0,0 -1.47,1.79 -1.47,1.79 0,0 -0.99,-0.36 -0.99,-0.36 0,0 -0.84,0.98 -0.84,0.98 0,0 1.02,0.37 1.02,0.37 0,0 -0.46,0.56 -0.46,0.56 0,0 1.06,0.38 1.06,0.38 0,0 0.44,-0.56 0.44,-0.56 0,0 3.52,1.28 3.52,1.28 0,0 0.81,-1.20 0.81,-1.20 0,0 0,0 0,0 m 7.43,-12.10 c -0.16,0.22 -0.36,0.35 -0.62,0.37 -0.26,0.01 -0.65,-0.06 -1.13,-0.26 -0.48,-0.19 -0.78,-0.39 -0.89,-0.56 -0.11,-0.17 -0.07,-0.37 0.10,-0.59 0.18,-0.22 0.39,-0.34 0.66,-0.36 0.26,-0.01 0.63,0.06 1.09,0.25 0.45,0.18 0.74,0.38 0.86,0.55 0.11,0.17 0.09,0.37 -0.06,0.60 0,0 0,0 0,0 M 19.75,26.37 c 0,0 -2.28,-0.83 -2.28,-0.83 0,0 0.90,-1.15 0.90,-1.15 0,0 1.37,1.99 1.37,1.99 0,0 0,0 0,0" id="path5473" style="font-size:8px;font-style:normal;font-variant:normal;font-weight:bold;font-stretch:normal;line-height:125%;letter-spacing:0px;word-spacing:0px;color:#000000;stroke:#914800;stroke-width:0.29;stroke-opacity:0.97;font-family:DejaVu Sans;-inkscape-font-specification:DejaVu Sans Bold" />
<path d="m 11.40,28.09 c -1.20,0.03 -2.28,0.31 -3.18,0.81 -0.38,0.45 -1.89,2.28 -2,2.40 -4.44,5.68 9.49,17.24 15.37,10.25 0.04,-0.12 0.12,-0.24 0.15,-0.37 0.17,-0.14 0.32,-0.30 0.46,-0.46 0.02,-0.02 0.03,-0.06 0.06,-0.09 0.02,-0.04 0.06,-0.07 0.09,-0.12 0.19,-0.33 0.45,-0.80 0.65,-1.15 1.08,-2.88 -0.94,-6.85 -4.96,-9.31 -2.21,-1.35 -4.57,-2.00 -6.65,-1.93 z" id="path3991" style="color:#000000;fill:#a93b06;stroke-width:0.51" />
<path d="m 32.18,2.96 c -1.31,-0.02 -2.56,0.40 -3.46,1.43 -0.45,0.51 -3.47,4.16 -5.37,6.43 4.06,-2.09 6.35,-0.63 8.09,0.56 1.61,1.11 4.00,3.31 3.25,7.43 1.75,-3.17 3.30,-6.03 4.12,-7.71 1.94,-3.97 -2.67,-8.08 -6.62,-8.15 z" id="path3944" style="fill:#155724;fill-opacity:1" />
<path d="m 31.5,3.49 c 0,0 -0.37,0.68 -0.68,1.06 0.38,-0.13 1.71,0.25 1.71,0.25 0,0 -0.30,0.43 -0.75,0.96 -0.23,0.28 0.17,0.80 0.78,1.31 -1.08,-0.53 -2.26,-0.94 -3.25,-0.87 0,0 -0.39,0.69 -0.71,1.09 0.40,-0.14 1.81,0.28 1.81,0.28 0,0 -0.31,0.46 -0.78,1.03 -0.69,0.83 3.71,3.60 4.40,2.65 0.35,-0.49 1.06,-1.42 1.5,-2.18 -0.20,-0.21 -0.57,-0.52 -1.03,-0.84 0.66,0.26 1.25,0.35 1.46,0.06 0.33,-0.46 1.02,-1.33 1.43,-2.06 -0.79,-0.83 -3.83,-2.88 -5.90,-2.75 z m 2.71,2 1,0.65 c 0,0 -0.27,0.36 -0.37,0.5 -0.10,0.13 -1.17,-0.31 -0.96,-0.62 l 0.34,-0.53 z m -2.03,2.81 1.06,0.68 c 0,0 -0.29,0.38 -0.40,0.53 -0.10,0.14 -1.25,-0.32 -1.03,-0.65 l 0.37,-0.56 z" id="path5647" style="fill:#979f00" />
<path d="m 8.53,29.12 c -0.19,0.01 -0.38,0.04 -0.59,0.09 -0.55,0.66 -1.62,1.99 -1.71,2.09 -1.06,1.36 -1.08,3.05 -0.40,4.75 -0.03,-2.75 0.28,-3.34 1,-4 0.91,-0.83 2.14,-1.44 5.03,-0.75 0.17,-0.73 -1.21,-2.31 -3.31,-2.17 z" id="path4005" style="fill:#e9d6cd;fill-opacity:0.08" />
<path d="M 7.91,30.58 C 8.50,30.38 9.30,30.28 9.54,30.38" id="path4053" style="fill:none;stroke:#d4d4d4;stroke-width:0.80;stroke-linecap:round;stroke-opacity:0.31" />
<path d="m 17.36,39.25 c 3.40,-0.45 3.29,-0.79 6.12,-5.44 C 26.33,29.15 37.45,9.40 38.13,8.61 38.82,7.81 37.91,5.09 37.57,4.63 37.23,4.18 37.68,5.66 37.23,6.79 36.77,7.93 19.41,33.92 18.95,34.49 c -0.45,0.56 1.13,1.92 -1.81,3.51 -2.95,1.58 0.22,1.24 0.22,1.24 z" id="path4082" style="fill:#ffffff;fill-opacity:0.10" />
<path d="m 31.09,3.06 c -0.89,0.17 -1.72,0.60 -2.37,1.34 -1.93,2.20 -21.33,25.61 -22.5,26.90 -0.46,0.59 -0.71,1.24 -0.81,1.93 0.64,-1.01 1.41,-1.46 1.75,-1.46 C 8.39,30.13 27.34,7.53 31.09,3.06 z" id="path4084" style="fill:#ffffff;fill-opacity:0.27" />
<path d="m 34.65,3.5 c -2.68,3.51 -20.97,27.39 -21.5,28.03 -0.56,0.68 -0.43,3.53 -0.43,3.53 l 4.40,3.62 c 0,0 1.83,-1.01 3.31,-2.37 C 21.61,35.22 33.33,14.76 38.21,6.21 38.01,5.93 37.77,5.68 37.53,5.43 37.51,5.42 37.51,5.39 37.5,5.37 37.45,5.33 37.41,5.29 37.37,5.25 37.16,5.04 36.94,4.86 36.71,4.68 36.69,4.66 36.67,4.64 36.65,4.62 36.62,4.60 36.59,4.58 36.56,4.56 36.29,4.36 36.01,4.16 35.71,4 35.71,3.99 35.69,4.00 35.68,4 35.67,3.99 35.66,3.97 35.65,3.96 35.37,3.81 35.07,3.68 34.78,3.56 34.73,3.54 34.69,3.51 34.65,3.5 z" id="path4086" style="fill:#ffffff;fill-opacity:0.12" />
<path d="m 10.25,30.96 c -1.93,0.05 -3.56,0.75 -4.40,2.06 -0.24,0.38 -0.37,0.81 -0.46,1.25 0.48,5.44 9.82,12.18 15.12,8.34 0.25,-0.22 0.47,-0.46 0.65,-0.75 1.67,-2.62 -0.39,-6.71 -4.62,-9.15 -2.11,-1.21 -4.34,-1.80 -6.28,-1.75 z" id="path3954" style="color:#000000;fill:#762e18;fill-opacity:0.72;stroke-width:0.47" />
<path d="M 10.18,32.62 C 8.71,32.67 7.53,33.21 7,34.21 c -1.07,2.00 0.82,5.13 4.25,7 3.42,1.86 7.04,1.75 8.12,-0.25 1.07,-2.00 -0.79,-5.13 -4.21,-7 C 13.44,33.03 11.66,32.57 10.18,32.62 z" id="path3948" style="color:#000000;fill:#474840;stroke-width:0.28" />
<path d="m 18.03,36.18 -1.87,1.03 0.37,1.53 2.93,-0.21 c -0.25,-0.78 -0.74,-1.57 -1.43,-2.34 z" id="path4009" style="fill:#e9d6cd;fill-opacity:0.26" />
<path d="M 14.28,33.53 12,37.75 15.84,42.5 c 1.62,0.02 2.95,-0.45 3.53,-1.53 1.07,-2.00 -0.79,-5.13 -4.21,-7 -0.28,-0.15 -0.58,-0.30 -0.87,-0.43 z" id="path4007" style="fill:#1e130d;fill-opacity:0.26" />
<path d="m 10.53,33.5 c -1.25,0.03 -2.26,0.49 -2.71,1.34 -0.91,1.69 0.69,4.35 3.59,5.93 2.90,1.58 5.99,1.51 6.90,-0.18 C 19.22,38.89 17.62,36.20 14.71,34.62 13.26,33.83 11.78,33.46 10.53,33.5 z" id="path3946" style="color:#000000;fill:#1c201f;stroke-width:0.28" />
<path d="m 11.31,35.84 c -0.74,0.02 -1.35,0.31 -1.62,0.84 -0.54,1.06 0.41,2.72 2.15,3.71 1.74,0.99 3.57,0.94 4.12,-0.12 0.54,-1.06 -0.41,-2.72 -2.15,-3.71 -0.87,-0.49 -1.75,-0.74 -2.5,-0.71 z" id="path3950" style="color:#000000;fill:#675c48;stroke-width:0.28" />
<path d="m 11.28,36.71 c -0.63,0.01 -1.14,0.25 -1.37,0.68 -0.46,0.86 0.37,2.19 1.84,3 1.47,0.80 3.03,0.76 3.5,-0.09 0.46,-0.86 -0.37,-2.22 -1.84,-3.03 -0.73,-0.40 -1.49,-0.58 -2.12,-0.56 z" id="path3952" style="color:#000000;fill:#837b75;stroke-width:0.28" />
<path d="m 11.12,35.78 c -0.46,0 -0.84,0.24 -0.84,0.53 0,0.28 0.37,0.5 0.84,0.5 0.46,0 0.84,-0.21 0.84,-0.5 0,-0.28 -0.37,-0.53 -0.84,-0.53 z" id="path4047" style="color:#000000;fill:#ffffff;fill-opacity:0.66;stroke-width:1.20" />
<path d="m 12.96,36.62 c 0.54,0.14 1.38,0.69 1.68,1.13" id="path4049" style="fill:none;stroke:#000000;stroke-width:0.89;stroke-opacity:0.41" />
<path d="m 17.71,32.95 c 0.69,0.19 1.03,0.74 1.28,0.98" id="path4051" style="fill:none;stroke:#dedede;stroke-width:0.69;stroke-opacity:0.22" />
<path d="m 16.71,31.73 c 0.74,0.29 2.56,1.45 3.27,2.41" id="path4134" style="fill:none;stroke:#ffffff;stroke-width:1.39;stroke-opacity:0.05" />
<path d="m 13.04,31.84 c 3.79,1.13 9.40,5.08 7.50,10.08" id="path4003" style="fill:none;stroke:#44160d;stroke-width:1.20;stroke-linecap:round;stroke-opacity:0.26" />
<path d="m 19.65,33.07 c 0.40,0.22 0.63,0.67 0.63,0.67" id="path4132" style="fill:none;stroke:#f5f5f5;stroke-width:0.80;stroke-opacity:0.27" />
<path d="M 6.20,31.31 C 7.37,30.01 26.78,6.61 28.71,4.40 32.33,0.26 41.39,5.82 38.80,11.13 36.22,16.43 27.46,31.69 22.37,40.49 17.07,49.68 1.55,37.26 6.20,31.31 z" id="stroke01" style="fill:none;stroke:#000000;stroke-width:0.5" />
</g>
</svg>
