<?xml version="1.0" encoding="UTF-8" standalone="no"?>
<!DOCTYPE svg PUBLIC "-//W3C//DTD SVG 1.0//EN" "http://www.w3.org/TR/2001/REC-SVG-20010904/DTD/svg10.dtd">
<svg xmlns:svg="http://www.w3.org/2000/svg" xmlns="http://www.w3.org/2000/svg" version="1.0" width="100%" height="100%" viewBox="0 0 48 48" id="_binder01" style="display:inline">
<defs id="defs2385"/>
<g id="binder01" style="display:inline">
<path d="M 8.34,12.38 L 16.48,40.70 C 16.48,40.70 17.86,41.97 20.39,43.24 C 22.93,44.51 29.06,46.41 30.54,46.62 C 31.49,46.20 33.71,44.61 34.55,44.30 C 35.40,43.98 36.56,43.13 37.20,42.92 C 36.14,39.12 26.31,1.81 26.21,1.60 C 26.10,1.39 18.81,2.34 18.38,2.44 C 17.01,3.29 11.09,8.26 8.34,12.38 z" id="p2465" style="fill:#2a2924;fill-opacity:1;fill-rule:evenodd;stroke:none;"/>
<path d="M 25.87,1.56 C 24.43,1.60 19.11,2.28 18.53,2.40 L 30.25,46.56 C 30.33,46.57 30.46,46.61 30.53,46.62 C 31.48,46.20 33.71,44.62 34.56,44.31 C 35.40,43.99 36.55,43.14 37.18,42.93 C 36.13,39.13 26.32,1.80 26.21,1.59 C 26.20,1.56 26.08,1.55 25.87,1.56 z" id="p3239" style="fill:#101010;fill-opacity:1;fill-rule:evenodd;stroke:none;display:inline"/>
<path d="M 25.87,1.56 C 24.43,1.60 19.11,2.28 18.53,2.40 L 26.21,31.34 C 27.58,27.26 29.69,24.06 31.93,23.18 C 29.07,12.33 26.27,1.71 26.21,1.59 C 26.20,1.56 26.08,1.55 25.87,1.56 z" id="p3266" style="fill:#353430;fill-opacity:1;fill-rule:evenodd;stroke:none;display:inline"/>
<path d="M 26.62,3.09 C 24.43,3.09 21.83,4.83 19.90,7.56 L 23.09,19.56 C 25.76,18.85 28.63,18.69 30.75,18.65 C 28.70,10.91 26.96,4.29 26.62,3.09 z" id="p3268" style="fill:#524d47;fill-opacity:1;fill-rule:evenodd;stroke:none;display:inline"/>
<path d="M 23.37,1.78 C 21.33,2.00 18.91,2.32 18.53,2.40 L 22.34,16.78 C 23.57,16.61 24.51,15.64 24.56,12.96 C 22.80,9.58 22.56,4.71 23.37,1.78 z" id="p3372" style="fill:#2e2a25;fill-opacity:0.54;fill-rule:evenodd;stroke:none;display:inline"/>
<path d="M 19.97,6.14 L 26.52,5.30 L 36.14,41.34 L 30.12,44.19 L 19.97,6.14 z" id="p3242" style="fill:#bb9358;fill-opacity:1;fill-rule:evenodd;stroke:none;display:inline"/>
<path d="M 28.96,39.75 L 35.00,37.11" id="p3351" style="fill:none;fill-opacity:1;fill-rule:evenodd;stroke:#423633;stroke-width:0.2;stroke-linecap:butt;stroke-linejoin:miter;marker:none;stroke-miterlimit:4;stroke-dasharray:none;stroke-dashoffset:0;stroke-opacity:0.60;visibility:visible;display:inline;overflow:visible;enable-background:accumulate"/>
<path d="M 26.53,5.31 L 19.96,6.15 L 26.81,31.81 C 27.93,27.33 29.23,23.60 30.81,21.34 L 26.53,5.31 z" id="p3292" style="fill:#db9a3e;fill-opacity:0.67;fill-rule:evenodd;stroke:none;"/>
<path d="M 28.88,39.21 L 34.92,36.57" id="p3306" style="fill:none;fill-opacity:1;fill-rule:evenodd;stroke:#3f2f23;stroke-width:0.2;stroke-linecap:butt;stroke-linejoin:miter;marker:none;stroke-miterlimit:4;stroke-dasharray:0.4, 0.4;stroke-dashoffset:0;stroke-opacity:1;visibility:visible;display:inline;overflow:visible;enable-background:accumulate"/>
<path d="M 27.68,9.59 C 25.84,12.53 25.24,18.08 26,19.21 C 26.92,20.59 24.40,20.30 24.93,21.84 C 25.47,23.37 28.01,26.43 28.09,28.65 C 28.17,30.88 27.68,38.03 32.06,36.65 C 36.43,35.27 29.76,29.05 30.53,28.43 C 30.84,28.18 31.45,27.26 31.93,25.5 L 27.68,9.59 z" id="p3282" style="fill:#dfb06a;fill-opacity:0.65;fill-rule:evenodd;stroke:none;display:inline"/>
<path d="M 24.06,21.04 L 30.45,19.47" id="p3299" style="fill:none;fill-opacity:1;fill-rule:evenodd;stroke:#4f3b2c;stroke-width:0.2;stroke-linecap:butt;stroke-linejoin:miter;marker:none;stroke-miterlimit:4;stroke-dasharray:none;stroke-dashoffset:0;stroke-opacity:1;visibility:visible;display:inline;overflow:visible;enable-background:accumulate"/>
<path d="M 26.53,5.31 L 19.96,6.15 L 21.18,10.68 C 22.62,10.99 23.87,11.13 24.09,11.87 C 24.54,13.42 24.42,17.46 29.59,16.78 L 26.53,5.31 z" id="p3280" style="fill:#e9b97e;fill-opacity:0.58;fill-rule:evenodd;stroke:none;display:inline"/>
<path d="M 22.89,17.03 L 22.89,17.03 L 29.44,15.51" id="p3297" style="fill:none;fill-opacity:1;fill-rule:evenodd;stroke:#4f3b2c;stroke-width:0.2;stroke-linecap:butt;stroke-linejoin:miter;marker:none;stroke-miterlimit:4;stroke-dasharray:none;stroke-dashoffset:0;stroke-opacity:1;visibility:visible;display:inline;overflow:visible;enable-background:accumulate"/>
<path d="M 20.38,7.84 L 26.93,6.74" id="p3245" style="fill:none;fill-opacity:1;fill-rule:evenodd;stroke:#4f3b2c;stroke-width:0.2;stroke-linecap:butt;stroke-linejoin:miter;marker:none;stroke-miterlimit:4;stroke-dasharray:0.4, 0.4;stroke-dashoffset:0;stroke-opacity:1;visibility:visible;display:inline;overflow:visible;enable-background:accumulate"/>
<path d="M 21.73,12.91 L 28.18,11.50" id="p3247" style="fill:none;fill-opacity:1;fill-rule:evenodd;stroke:#4f3b2c;stroke-width:0.2;stroke-linecap:butt;stroke-linejoin:miter;marker:none;stroke-miterlimit:4;stroke-dasharray:0.4, 0.4;stroke-dashoffset:0;stroke-opacity:1;visibility:visible;display:inline;overflow:visible;enable-background:accumulate"/>
<path d="M 26.53,5.31 L 19.96,6.15 L 20.12,6.68 L 26.62,5.75 L 26.53,5.31 z" id="p3251" style="fill:#fffaf0;fill-opacity:1;fill-rule:evenodd;stroke:none;display:inline"/>
<path d="M 27,7.06 L 20.5,8.18 L 21.68,12.56 L 28.09,11.18 L 27,7.06 z" id="p3253" style="fill:#403634;fill-opacity:1;fill-rule:evenodd;stroke:none;display:inline"/>
<path d="M 25.22,25.46 L 31.57,23.48" id="p3301" style="fill:none;fill-opacity:1;fill-rule:evenodd;stroke:#4f3b2c;stroke-width:0.2;stroke-linecap:butt;stroke-linejoin:miter;marker:none;stroke-miterlimit:4;stroke-dasharray:none;stroke-dashoffset:0;stroke-opacity:1;visibility:visible;display:inline;overflow:visible;enable-background:accumulate"/>
<path d="M 29.89,42.77 L 35.83,39.97" id="p3308" style="fill:none;fill-opacity:1;fill-rule:evenodd;stroke:#3f2f23;stroke-width:0.2;stroke-linecap:butt;stroke-linejoin:miter;marker:none;stroke-miterlimit:4;stroke-dasharray:0.4, 0.4;stroke-dashoffset:0;stroke-opacity:1;visibility:visible;display:inline;overflow:visible;enable-background:accumulate"/>
<path d="M 29.06,40.19 L 35.10,37.55" id="p3353" style="fill:none;fill-opacity:1;fill-rule:evenodd;stroke:#423633;stroke-width:0.2;stroke-linecap:butt;stroke-linejoin:miter;marker:none;stroke-miterlimit:4;stroke-dasharray:none;stroke-dashoffset:0;stroke-opacity:0.60;visibility:visible;display:inline;overflow:visible;enable-background:accumulate"/>
<path d="M 29.19,40.60 L 35.23,37.96" id="p3355" style="fill:none;fill-opacity:1;fill-rule:evenodd;stroke:#423633;stroke-width:0.2;stroke-linecap:butt;stroke-linejoin:miter;marker:none;stroke-miterlimit:4;stroke-dasharray:none;stroke-dashoffset:0;stroke-opacity:0.60;visibility:visible;display:inline;overflow:visible;enable-background:accumulate"/>
<path d="M 29.32,41.04 L 35.36,38.40" id="p3357" style="fill:none;fill-opacity:1;fill-rule:evenodd;stroke:#423633;stroke-width:0.2;stroke-linecap:butt;stroke-linejoin:miter;marker:none;stroke-miterlimit:4;stroke-dasharray:none;stroke-dashoffset:0;stroke-opacity:0.60;visibility:visible;display:inline;overflow:visible;enable-background:accumulate"/>
<path d="M 29.47,41.43 L 35.52,38.79" id="p3359" style="fill:none;fill-opacity:1;fill-rule:evenodd;stroke:#423633;stroke-width:0.2;stroke-linecap:butt;stroke-linejoin:miter;marker:none;stroke-miterlimit:4;stroke-dasharray:none;stroke-dashoffset:0;stroke-opacity:0.60;visibility:visible;display:inline;overflow:visible;enable-background:accumulate"/>
<path d="M 29.58,41.87 L 35.62,39.23" id="p3361" style="fill:none;fill-opacity:1;fill-rule:evenodd;stroke:#423633;stroke-width:0.2;stroke-linecap:butt;stroke-linejoin:miter;marker:none;stroke-miterlimit:4;stroke-dasharray:none;stroke-dashoffset:0;stroke-opacity:0.60;visibility:visible;display:inline;overflow:visible;enable-background:accumulate"/>
<path d="M 29.71,42.28 L 35.75,39.64" id="p3363" style="fill:none;fill-opacity:1;fill-rule:evenodd;stroke:#423633;stroke-width:0.2;stroke-linecap:butt;stroke-linejoin:miter;marker:none;stroke-miterlimit:4;stroke-dasharray:none;stroke-dashoffset:0;stroke-opacity:0.60;visibility:visible;display:inline;overflow:visible;enable-background:accumulate"/>
<path d="M 26.53,5.31 L 19.96,6.15 L 24.78,24.18 C 26.74,25.00 29.92,26.79 33.31,30.71 L 26.53,5.31 z" id="p3367" style="fill:#d5b58c;fill-opacity:0.33;fill-rule:evenodd;stroke:none;"/>
<path d="M 19.97,6.14 L 26.52,5.30 L 36.14,41.34 L 30.12,44.19 L 19.97,6.14 z" id="p3278" style="fill:none;fill-opacity:1;fill-rule:evenodd;stroke:#775a3f;stroke-width:0.2;stroke-linecap:butt;stroke-linejoin:round;stroke-miterlimit:4;stroke-dasharray:none;stroke-opacity:1;display:inline"/>
<path d="M 32.62,34.35 C 32.54,35.47 31.72,36.32 30.80,36.25 C 29.88,36.19 29.21,35.22 29.29,34.11 C 29.37,32.99 30.18,32.14 31.10,32.21 C 32.02,32.27 32.70,33.23 32.62,34.35 z" id="p3312" style="fill:#fffffb;fill-opacity:1;fill-rule:evenodd;stroke:none;marker:none;visibility:visible;display:inline;overflow:visible;enable-background:accumulate"/>
<path d="M 32.12,32.75 C 32.09,32.86 32.00,32.97 31.81,33.09 C 31.22,33.44 31.85,35.48 32.09,34.81 C 32.25,34.34 32.29,33.65 32.53,33.53 C 32.44,33.23 32.31,32.96 32.12,32.75 z M 29.37,34.90 C 29.57,35.65 30.12,36.19 30.81,36.25 C 31.04,36.26 31.26,36.24 31.46,36.15 C 29.91,36.18 30.37,35.66 30.15,35.31 C 30.02,35.10 29.72,34.97 29.37,34.90 z" id="p3318" style="fill:#313131;fill-opacity:0.58;fill-rule:evenodd;stroke:none;display:inline"/>
<path d="M 32.40,34.30 C 32.34,35.22 31.66,35.93 30.90,35.87 C 30.14,35.81 29.58,35.02 29.65,34.09 C 29.71,33.17 30.39,32.46 31.15,32.52 C 31.91,32.57 32.47,33.37 32.40,34.30 z" id="p3315" style="fill:#1a1a1a;fill-opacity:1;fill-rule:evenodd;stroke:none;marker:none;visibility:visible;display:inline;overflow:visible;enable-background:accumulate"/>
<path d="M 29.31,34.56 C 29.41,35.48 30.01,36.19 30.81,36.25 C 31.17,36.27 31.49,36.15 31.78,35.93" id="p3327" style="fill:none;fill-opacity:1;fill-rule:evenodd;stroke:#45423e;stroke-width:0.19;stroke-linecap:round;stroke-linejoin:miter;marker:none;stroke-miterlimit:4;stroke-dasharray:none;stroke-dashoffset:0;stroke-opacity:1;visibility:visible;display:inline;overflow:visible;enable-background:accumulate"/>
<path d="M 32.53,38.40 C 31.98,38.30 31.42,38.76 31.31,39.40 C 31.19,40.04 31.54,40.64 32.09,40.75 C 32.64,40.85 33.19,40.39 33.31,39.75 C 33.42,39.10 33.08,38.50 32.53,38.40 z M 32.40,38.71 L 32.53,39.15 L 33,39.03 L 33.15,39.71 L 32.71,39.87 L 32.84,40.34 L 32.18,40.46 L 32.06,40.06 L 31.62,40.21 L 31.46,39.5 L 31.90,39.37 L 31.78,38.87 L 32.40,38.71 z" id="p3332" style="fill:#100f0f;fill-opacity:1;fill-rule:evenodd;stroke:none;marker:none;visibility:visible;display:inline;overflow:visible;enable-background:accumulate"/>
<path d="M 18.94,2.44 L 19.36,4.18" id="p3378" style="fill:none;fill-rule:evenodd;stroke:#595959;stroke-width:0.5;stroke-linecap:round;stroke-linejoin:miter;stroke-miterlimit:4;stroke-dasharray:none;stroke-opacity:0.54;display:inline"/>
<path d="M 18.53,2.40 C 18.51,2.40 18.38,2.43 18.37,2.43 C 18.14,2.57 17.78,2.87 17.34,3.21 L 28.96,46.25 C 29.64,46.43 30.20,46.57 30.53,46.62 L 18.53,2.40 z" id="p3381" style="fill:#161412;fill-opacity:1;fill-rule:evenodd;stroke:none;display:inline"/>
<path d="M 18.09,2.59 L 21.67,16.04" id="p3387" style="fill:none;fill-rule:evenodd;stroke:#232323;stroke-width:0.30;stroke-linecap:round;stroke-linejoin:miter;stroke-miterlimit:4;stroke-dasharray:none;stroke-opacity:1"/>
<path d="M 15.12,5.09 C 15.04,5.16 14.95,5.24 14.87,5.31 C 14.88,5.89 14.89,6.48 14.90,7.06 C 14.19,7.21 13.83,6.91 13.65,6.40 C 13.63,6.42 13.61,6.44 13.59,6.46 C 13.80,7.97 13.56,9.48 13.21,10.96 C 13.21,11.01 13.19,11.05 13.18,11.09 C 13.23,11.00 13.32,10.91 13.43,10.78 C 14.13,11.08 13.23,11.60 13.15,11.34 C 12.86,12.39 11.53,12.75 11.37,11.31 C 11.16,10.67 10.95,10.02 10.75,9.37 C 10.67,9.45 10.60,9.54 10.53,9.62 C 10.83,10.57 11.15,11.51 11.53,12.43 C 11.66,13.57 10.00,13.07 10.25,12.15 C 9.65,13.13 10.01,15.18 9.46,16.21 L 9.53,16.5 C 9.73,16.31 9.97,16.14 10.18,15.96 C 10.21,17.86 10.86,19.68 11.03,21.56 C 11.01,21.38 11.02,21.21 11.03,21.09 C 10.91,19.62 11.80,19.60 12.56,20.25 C 11.69,19.33 10.74,18.40 11.06,16.96 C 11.09,16.47 11.19,15.97 11.31,15.5 C 12.01,16.36 11.64,18.13 12.62,18.59 C 12.17,17.89 12.17,15.82 13,17.53 C 13.98,19.37 13.29,21.48 12.87,23.37 C 12.28,24.26 11.82,23.95 11.5,23.31 L 11.90,24.68 C 12.25,24.32 12.92,24.42 12.78,25.34 C 12.77,25.95 12.69,26.59 12.62,27.21 L 12.90,28.25 C 12.97,27.05 12.88,25.84 13,24.65 C 15.09,25.48 14.41,28.34 14.12,30.03 C 13.90,30.26 13.71,30.39 13.53,30.43 L 13.62,30.75 C 15.26,29.77 14.75,27.27 14.40,25.65 C 15.43,24.93 15.28,27.63 15.71,28.34 C 16.27,30.51 16.84,32.68 17.65,34.78 C 19.71,35.81 20.70,32.86 21.15,31.37 C 21.11,30.47 21.87,29.22 22.53,29.62 C 21.41,28.61 21.97,26.95 21.90,25.65 C 21.98,26.96 23.65,28.53 22.59,29.68 C 22.74,29.81 22.87,30.01 23,30.34 C 24.24,32.16 22.86,34.61 21.03,35.40 C 20.12,35.97 19.27,36.86 18.31,37.40 C 18.49,37.34 18.68,37.28 18.87,37.28 C 20.57,36.19 22.44,35.11 23.46,33.31 C 22.66,36.04 22.27,39.08 23.31,41.81 C 23.31,41.81 23.34,41.80 23.34,41.81 C 23.61,41.75 23.71,41.50 23.31,40.93 C 22.45,37.46 23.48,33.90 24.62,30.62 C 24.94,29.03 23.54,31.54 23.5,30.06 C 23.17,28.37 22.56,26.43 22.03,25 C 22.43,25.76 23.37,26.51 22.87,25.03 C 22.23,22.70 21.07,20.55 19.68,18.59 C 20.04,16.30 18.32,14.35 18.18,12.15 C 18.67,10.53 17.13,9.49 17.09,8.03 C 17.19,7.26 16.81,6.57 16.31,6.21 C 16.48,7.62 17.51,9.05 16.96,10.43 C 16.52,9.12 14.65,9.98 15.12,8.31 C 15.08,7.48 15.32,6.48 16.15,6.12 C 15.81,5.92 15.44,5.87 15.12,6.03 C 15.12,5.71 15.12,5.40 15.12,5.09 z M 16.15,6.12 C 16.20,6.15 16.26,6.18 16.31,6.21 C 16.30,6.16 16.28,6.11 16.28,6.06 C 16.23,6.07 16.20,6.10 16.15,6.12 z M 23.31,41.81 C 22.19,39.98 19.90,39.16 18.06,40.09 C 16.42,39.66 16.78,38.35 17.75,37.68 C 17.30,37.85 16.83,37.93 16.31,37.87 C 16.09,37.78 15.81,37.58 15.53,37.37 L 16.03,39.09 C 16.50,39.22 16.89,39.45 17.12,39.90 C 18.64,41.12 21.23,38.81 22.15,41.21 C 22.41,41.63 22.97,41.86 23.31,41.81 z M 11.03,21.56 C 11.03,21.62 11.02,21.68 11.03,21.75 L 11.09,21.93 C 11.07,21.80 11.04,21.67 11.03,21.56 z M 14.90,7.65 C 15.25,8.53 14.50,9.76 14.62,8.18 C 14.69,7.99 14.80,7.82 14.90,7.65 z M 14.06,8.5 C 14.24,8.75 13.63,8.61 14.06,8.5 z M 14.18,8.93 C 15.57,9.47 13.06,11.30 13.93,9.5 L 14.06,9.21 L 14.18,8.93 z M 16.12,10 C 17.45,10.85 15.48,10.91 16.12,10 z M 15.62,10.34 C 17.78,11.48 13.97,11.62 15.62,10.34 z M 14.75,10.5 C 15.04,10.72 14.32,10.52 14.75,10.5 z M 14.34,10.87 C 15.65,11.03 13.90,12.38 13.53,11.96 C 13.06,12.54 14.10,10.71 14.34,10.87 z M 17.5,11.15 C 17.83,12.63 19.57,15.00 17.87,16.06 C 16.47,15.13 16.96,12.99 17.34,11.59 L 17.43,11.37 L 17.5,11.15 z M 15.18,11.46 C 15.36,11.48 15.07,11.58 15.18,11.46 z M 15.68,11.56 C 15.70,11.56 15.74,11.57 15.78,11.59 C 15.76,11.97 15.54,11.55 15.68,11.56 z M 16.53,11.68 C 17.24,12.84 15.54,13.65 15.90,12.06 C 16.04,11.84 16.29,11.73 16.53,11.68 z M 15.15,11.78 C 15.16,11.76 15.22,11.74 15.34,11.78 C 15.44,12.04 15.11,11.84 15.15,11.78 z M 14.90,11.96 C 14.44,12.49 15.47,15.39 14.5,13.87 C 14.22,13.25 13.78,11.95 14.90,11.96 z M 15.53,12.21 C 15.15,14.01 17.34,15.72 16.09,17.43 C 14.60,16.24 15.04,13.69 15.53,12.21 z M 13.09,12.37 C 13.23,12.58 12.77,12.35 13.09,12.37 z M 13.71,12.5 C 14.34,13.11 13.15,13.48 13.71,12.5 z M 13.18,12.71 L 13.21,12.71 C 13.80,13.67 14.82,16.54 13.81,16.71 C 13.07,15.69 11.19,13.39 13.18,12.71 z M 11.78,13.21 C 11.68,14.44 10.28,13.68 11.78,13.21 z M 10.18,13.75 C 10.49,14.09 9.72,13.91 10.18,13.75 z M 11.65,13.87 C 12.38,14.20 13.11,17.30 12.03,15.53 C 11.76,15.02 11.56,14.45 11.65,13.87 z M 14.18,13.90 C 14.43,14.40 14.31,14.79 14.18,13.90 z M 10.78,13.93 C 11.81,14.86 9.92,14.93 10.78,13.93 z M 10.03,14.71 C 10.52,15.25 9.53,15.52 10.03,14.71 z M 11.40,14.71 C 11.79,14.95 11.13,15.22 11.40,14.71 z M 10.53,14.87 C 11.14,15.12 10.04,15.27 10.53,14.87 z M 11,15.12 C 11.20,15.93 10.49,18.59 10.40,16.34 C 10.42,15.88 10.58,15.37 11,15.12 z M 14.37,15.28 C 14.81,15.75 15.11,18.06 14.62,17.5 C 14.54,16.75 14.49,16.01 14.37,15.28 z M 17,15.5 C 18.01,15.97 16.89,17.93 16.93,16.09 C 16.89,15.89 16.87,15.67 17,15.5 z M 12.96,16 C 13.09,16.67 14.89,18.11 13.84,18.37 C 13.31,17.68 13.26,16.79 12.96,16 z M 19.34,16.25 C 19.78,17.11 18.98,18.13 19.03,16.68 C 18.98,16.50 19.08,16.20 19.34,16.25 z M 18.75,16.56 C 19.57,17.60 17.72,17.07 18.75,16.56 z M 18,16.96 C 18.44,17.09 17.88,17.48 18,16.96 z M 17.78,17.25 C 18.32,17.63 17.38,17.92 17.78,17.25 z M 16.78,17.37 C 18.11,18.42 14.71,18.20 16.5,18 C 16.69,17.86 16.79,17.60 16.78,17.37 z M 18.46,17.53 C 18.91,17.82 18.16,17.81 18.46,17.53 z M 17.46,17.71 C 17.87,18.05 17.18,18.07 17.46,17.71 z M 18.12,17.87 C 19.47,19.03 17.33,19.66 18.12,17.87 z M 15.18,17.90 C 15.76,18.42 14.98,19.89 15.18,17.90 z M 18.81,17.93 C 19.12,18.25 18.40,18.28 18.81,17.93 z M 19.12,18.37 C 19.78,18.38 18.81,18.67 19.12,18.37 z M 13.68,18.59 C 15.43,20.02 14.55,22.49 15.21,24.37 C 13.85,22.77 14.01,20.54 13.68,18.59 z M 15.96,18.62 C 16.61,18.67 15.62,19.16 15.96,18.62 z M 18.84,18.71 C 20.96,19.85 21.41,22.44 22.37,24.43 C 22.24,24.83 21.09,22.87 20.81,22.37 C 20.20,21.13 19.00,20.16 18.84,18.71 z M 17,18.90 C 17.68,19.48 16.38,19.18 17,18.90 z M 17.31,18.93 C 17.87,19.27 17.08,19.73 17.31,18.93 z M 14.84,19.06 C 15.11,19.02 14.74,19.27 14.84,19.06 z M 16.46,19.15 C 17.67,20.55 17.33,22.91 17.46,24.43 C 15.76,25.02 16.28,22.18 16.15,21.18 C 16.10,20.49 16.14,19.78 16.46,19.15 z M 17.90,19.18 C 19.13,19.50 18.51,22.66 18.03,21.90 C 17.91,21.00 17.85,20.09 17.90,19.18 z M 15.46,19.40 C 15.49,19.40 15.53,19.39 15.59,19.40 C 15.81,19.76 15.30,19.43 15.46,19.40 z M 15.18,19.59 C 15.80,20.09 14.62,20.28 15.18,19.59 z M 17.43,19.84 C 17.77,19.98 17.00,20.23 17.43,19.84 z M 18.87,20.06 C 19.76,20.20 18.51,20.71 18.87,20.06 z M 15.59,20.12 C 15.85,21.26 16.71,24.01 15.53,24.12 C 15.09,22.85 14.89,21.35 15.59,20.12 z M 19.18,20.43 C 20.10,21.14 19.26,21.69 19.18,20.43 z M 19.12,21.21 C 20.93,21.64 18.34,25.55 18.56,23.09 C 18.84,22.51 19.21,21.89 19.12,21.21 z M 13.40,21.56 C 14.65,22.08 13.50,25.62 13.03,23.28 C 13.08,22.69 13.25,22.12 13.40,21.56 z M 19.93,21.62 C 21.15,23.42 22.00,25.65 21.5,27.84 C 21.03,27.78 20.61,27.58 20.21,27.31 C 20.29,27.40 20.35,27.51 20.40,27.62 C 21.94,29.07 21.15,31.44 20.21,33 C 19.94,34.95 17.04,35.25 17.28,32.90 C 16.79,31.15 16.32,29.40 15.84,27.65 C 15.59,26.76 15.34,25.88 15.09,25 C 15.61,25.56 15.62,26.80 15.84,27.65 C 15.97,28.16 16.19,28.52 16.62,28.5 C 16.38,26.77 18.13,26.13 19.40,26.68 C 18.94,26.28 18.52,25.85 18.09,25.59 C 18.19,23.92 21.03,23.67 19.93,21.62 z M 19.40,26.68 C 19.62,26.87 19.86,27.04 20.09,27.21 C 19.89,26.98 19.67,26.80 19.40,26.68 z M 14.09,22.78 C 14.84,23.40 14.19,24.95 14.12,23.34 C 14.09,23.15 14.10,22.97 14.09,22.78 z M 17.71,24.81 C 17.82,25.65 16.67,26.49 16.43,26.09 C 16.62,27.16 16.16,28.45 15.93,26.65 C 15.81,26.12 15.70,25.59 15.59,25.06 C 16.04,25.08 16.29,25.47 16.40,25.93 C 16.38,25.78 16.44,25.56 16.59,25.21 C 16.83,24.86 17.32,24.83 17.71,24.81 z M 17.06,26.40 C 17.34,26.66 16.41,26.74 17.06,26.40 z M 23.65,30.96 C 24.57,31.76 23.27,32.23 23.65,30.96 z" id="p3389" style="fill:#bb9358;fill-opacity:0.05;fill-rule:evenodd;stroke:none;"/>
<path d="M 16.78,6.06 C 15.44,7.18 15.03,8.99 13.81,10.21 C 13.57,11.92 15.51,12.99 15.40,14.65 C 14.50,16.13 13.23,14.45 13.21,13.34 C 13.11,13.26 13.04,13.15 12.96,13.06 C 12.48,12.44 12.42,11.58 12.06,11 C 12.20,12.55 10.96,13.57 10.53,14.96 C 9.81,15.73 11.44,18.44 11.81,16.84 C 11.83,16.18 11.78,15.65 12.21,16.46 C 13.08,16.65 15.07,16.24 13.96,17.78 C 13.54,18.86 15.38,19.89 15.56,18.43 C 16.80,19.42 13.95,21.95 13.62,19.71 C 13.03,18.51 11.23,17.71 10.09,18.5 L 10.25,18.93 C 10.30,18.82 10.38,18.69 10.5,18.56 C 10.72,18.43 10.99,18.37 11.25,18.43 C 12.12,18.04 14.04,20.14 12.87,20.15 C 12.36,19.87 11.01,19.91 10.43,19.59 L 10.59,20.18 C 11.11,20.26 11.72,20.25 12.09,20.31 C 13.44,20.62 15.35,22.57 14.03,23.75 C 13.41,23.50 13.86,21.87 13.15,22.15 C 12.84,23.29 14.64,24.50 13.28,25.34 C 13.30,24.89 12.96,24.18 12.5,23.87 C 12.46,23.97 12.31,23.96 12.40,23.81 C 12.17,23.69 11.91,23.68 11.65,23.84 L 11.87,24.65 C 11.91,24.57 11.96,24.47 12.09,24.34 C 12.11,24.28 12.16,24.21 12.18,24.15 C 12.81,24.51 12.21,24.92 11.93,24.90 L 13.06,28.71 C 13.20,28.56 13.25,28.34 13.06,28 C 13.64,27.35 14.51,26.38 15.06,26.15 C 16.55,27.22 14.89,29.20 15.84,30.53 C 15.81,30.55 15.53,30.37 15.25,30.21 C 15.57,30.75 14.39,32.07 14.59,30.65 C 14.58,30.43 14.60,30.20 14.75,30.03 C 14.81,30.02 14.88,30.05 14.93,30.06 C 14.59,29.95 14.27,30.01 14.25,30.65 C 14.07,31.96 15.40,32.45 15.5,33.75 C 15.83,34.95 17.20,34.36 17.81,34.53 C 17.64,35.52 17.33,37.73 19.06,37.12 C 20.24,36.31 21.23,37.61 22.46,37.59 C 23.05,37.81 22.41,39.02 23.06,38.15 C 24.31,37.16 23.25,39.20 23.59,39.87 C 22.59,40.13 21.32,39.88 20.21,39.81 C 19.77,39.73 18.93,39.69 18.53,39.84 C 19.32,39.71 18.66,40.85 18.43,39.87 C 18.20,40.00 18.22,40.22 18.71,40.65 C 19.04,41.17 20.64,42.26 19.62,41.15 C 19.32,39.48 21.48,40.77 22.37,40.68 C 23.29,40.74 24.40,41.69 25.06,41.59 C 25.05,40.29 24.45,38.79 25.68,37.84 C 25.73,37.48 25.60,37.22 25.40,37.03 C 25.48,37.74 24.27,38.72 24.68,37.34 C 24.76,37.14 24.86,36.96 24.96,36.78 C 24.58,36.66 24.15,36.75 24,37.09 C 22.50,36.05 22.25,34.12 21.81,32.5 C 20.66,30.86 19.80,33.78 18.5,33.43 C 17.13,33.73 16.31,31.82 17.90,31.56 C 19.00,31.22 21.17,31.32 20.90,29.65 C 20.00,28.19 20.25,26.39 20.46,24.78 C 20.81,23.16 21.77,21.64 21.71,19.96 C 21.66,19.73 21.60,19.60 21.53,19.53 C 21.90,20.33 20.86,22.42 20.21,21.62 C 20.30,20.83 21.23,20.32 21.43,19.5 C 20.90,19.32 20.02,21.83 19.81,20.28 C 19.64,19.28 19.28,20.26 19.34,20.71 C 17.52,20.08 18.04,22.52 17.15,23.31 C 16.62,22.69 15.43,20.89 16.53,20.18 C 17.68,21.28 17.00,18.41 18,18.15 C 18.80,16.58 19.20,14.79 19.18,13.03 C 19.05,12.79 18.92,12.64 18.78,12.56 C 19.50,13.39 18.18,15.73 17.71,13.87 C 17.68,13.42 17.82,12.97 18.06,12.59 C 17.58,12.86 17.16,13.50 17,13.75 C 15.33,12.67 17.73,10.94 17.46,9.75 C 16.55,9.35 15.66,8.71 16.68,7.75 C 16.97,7.25 17.22,6.55 16.78,6.06 z M 18.06,12.59 C 18.27,12.47 18.50,12.43 18.71,12.53 C 18.60,12.42 18.47,12.34 18.28,12.31 C 18.21,12.40 18.12,12.49 18.06,12.59 z M 21.43,19.5 C 21.45,19.50 21.48,19.51 21.5,19.53 C 21.48,19.49 21.49,19.43 21.46,19.40 C 21.46,19.43 21.44,19.46 21.43,19.5 z M 24.96,36.78 C 25.12,36.82 25.28,36.88 25.40,37 C 25.37,36.83 25.27,36.68 25.06,36.59 C 25.02,36.65 25.00,36.71 24.96,36.78 z M 12.40,23.81 C 12.43,23.82 12.46,23.85 12.5,23.87 C 12.51,23.83 12.50,23.78 12.43,23.71 C 12.39,23.75 12.42,23.78 12.40,23.81 z M 12.06,11 C 12.07,10.97 12.06,10.95 12,10.93 C 11.78,11.14 12.03,11.07 12.06,11 z M 12.96,13.06 C 13.01,13.12 13.33,13.10 13.03,12.96 C 12.95,13.00 12.95,13.04 12.96,13.06 z M 16.71,6.43 C 16.61,7.09 16.36,8.93 15.43,8.46 C 15.66,7.69 16.21,7.05 16.71,6.43 z M 14.87,9.59 C 15.53,10.04 14.20,10.04 14.87,9.59 z M 16.68,9.65 C 16.76,9.63 16.85,9.62 16.93,9.65 C 18.35,10.10 15.33,10.89 16.5,9.75 C 16.56,9.70 16.61,9.67 16.68,9.65 z M 15.53,9.90 C 15.66,10.12 15.23,9.96 15.53,9.90 z M 14.46,10.18 C 14.80,11.17 13.57,11.07 14.46,10.18 z M 15.84,10.59 C 15.89,11.01 15.47,10.63 15.84,10.59 z M 16.75,10.78 C 16.68,11.33 16.13,10.95 16.75,10.78 z M 16,11.31 C 15.85,12.38 14.73,11.68 16,11.31 z M 16.12,11.84 C 16.55,13.32 16.70,15.42 15.12,16.28 C 14.06,16.77 15.66,15.11 15.62,14.68 C 15.87,13.80 14.64,12.21 16.12,11.84 z M 14.84,12 C 14.90,12.52 14.60,12.21 14.84,12 z M 12.09,12.59 C 12.35,12.77 11.76,12.65 12.09,12.59 z M 11.96,13.03 C 12.88,13.59 14.73,15.46 13.15,16.25 C 11.66,16.27 11.33,14.07 11.96,13.03 z M 16.96,14.46 C 17.31,14.62 16.61,14.58 16.96,14.46 z M 17.75,14.46 C 17.97,14.92 17.43,15.09 17.75,14.46 z M 11.06,15.18 C 11.82,15.68 11.25,17.82 10.90,16.03 C 10.87,15.74 10.90,15.43 11.06,15.18 z M 17.31,15.46 C 17.59,15.46 17.15,15.64 17.31,15.46 z M 17.15,15.78 C 18.10,16.28 16.93,16.97 17.15,15.78 z M 16.78,15.93 C 16.75,16.55 16.29,16.51 16.78,15.93 z M 15.68,16.15 C 15.75,16.57 15.39,16.16 15.68,16.15 z M 18.28,16.15 C 18.48,16.33 18.03,16.17 18.28,16.15 z M 18.09,16.5 C 18.29,16.41 18.00,16.68 18.09,16.5 z M 16.87,16.68 C 17.09,17.07 16.49,17.04 16.87,16.68 z M 18.21,16.87 C 18.71,17.46 17.57,17.43 18.21,16.87 z M 15.09,16.93 C 15.47,17.48 14.38,17.28 15.09,16.93 z M 15.65,17.12 C 16.20,18.08 13.81,19.26 15,17.75 C 15.22,17.55 15.49,17.38 15.65,17.12 z M 16.31,17.12 C 16.66,17.10 16.11,17.38 16.31,17.12 z M 17.43,17.25 C 17.70,17.44 17.14,17.66 17.43,17.25 z M 17.03,18 C 17.43,18.98 16.29,18.64 17.03,18 z M 16.34,18.21 C 16.80,19.05 15.59,18.90 16.34,18.21 z M 16.56,18.90 C 17.52,19.81 15.69,19.91 16.56,18.90 z M 15.93,19.28 C 16.18,20.02 15.07,21.30 15.71,19.84 C 15.79,19.65 15.87,19.46 15.93,19.28 z M 18.87,21 C 19.25,21.17 18.76,21.36 18.87,21 z M 18.34,21.21 C 18.43,21.76 17.80,21.64 18.34,21.21 z M 14.37,21.25 C 15.58,21.25 13.95,22.35 14.37,21.25 z M 15.06,21.43 C 16.83,21.39 14.29,22.93 15.06,21.43 z M 18.65,21.46 C 19.89,21.93 17.31,23.03 18.46,21.81 C 18.53,21.69 18.59,21.58 18.65,21.46 z M 15.21,22.25 C 16.32,22.09 16.77,25.07 17.75,23.34 C 18.68,22.52 16.41,24.37 17.81,24.81 C 18.38,24.88 18.97,22.90 19.21,24.43 C 19.11,25.14 19.45,26.10 19.90,25.71 C 19.95,26.36 20.29,28.17 19.87,27.93 C 19.53,27.13 18.92,26.89 18.25,26.81 C 19.11,27.34 19.64,29.00 18.09,28.37 C 17.57,28.20 16.39,27.67 17.09,27 C 17.16,26.90 17.26,26.83 17.34,26.78 C 16.69,26.77 16.04,26.74 15.53,26.46 C 14.71,25.32 14.94,23.63 15,22.31 C 15.08,22.27 15.14,22.26 15.21,22.25 z M 18.25,26.81 C 17.96,26.64 17.66,26.59 17.37,26.78 C 17.67,26.78 17.96,26.77 18.25,26.81 z M 20.75,22.43 C 20.79,22.79 20.35,22.60 20.75,22.43 z M 19.28,22.53 C 19.63,23.05 18.69,23.02 19.28,22.53 z M 19.96,22.87 C 20.03,23.40 19.66,23.01 19.96,22.87 z M 20.81,22.93 C 21.01,23.31 20.50,23.04 20.81,22.93 z M 18.62,23.21 C 18.82,24.04 17.30,24.37 18.06,23.43 C 18.20,23.28 18.41,23.18 18.62,23.21 z M 20.53,23.40 C 20.65,23.61 20.29,23.37 20.53,23.40 z M 19.81,24.06 C 20.05,24.61 19.15,24.16 19.81,24.06 z M 13.09,25.56 C 13.14,25.57 13.08,25.83 13,25.65 C 13.04,25.58 13.07,25.55 13.09,25.56 z M 13.62,25.87 C 14.78,25.86 13.14,27.54 13.62,26.12 L 13.62,25.87 z M 13.31,25.93 C 13.99,26.75 12.66,25.92 13.31,25.93 z M 13,26.37 C 13.47,26.88 12.58,27.07 13,26.37 z M 16.31,27.62 C 17.34,27.93 17.74,28.69 17.25,29.21 C 17.43,29.07 17.63,28.97 17.84,28.87 C 17.33,29.19 16.31,31.13 16.90,29.56 C 17.00,29.45 17.10,29.33 17.21,29.25 C 17.04,29.41 16.75,29.56 16.37,29.65 C 15.34,29.64 15.58,27.93 16.31,27.62 z M 19.75,28.96 C 19.87,28.95 19.68,29.39 19.68,29 C 19.71,28.97 19.73,28.97 19.75,28.96 z M 18.71,29.06 C 18.80,29.04 18.91,29.04 19.03,29.06 C 21.05,29.57 17.28,32.37 17.96,30.62 C 18.14,30.12 18.11,29.18 18.71,29.06 z M 17.96,29.28 C 18.32,30.77 16.52,30.07 17.96,29.28 z M 20.15,29.5 C 22.03,29.41 18.95,31.82 19.87,30.18 C 20.02,29.99 20.13,29.75 20.15,29.5 z M 15.03,30.09 C 15.09,30.12 15.15,30.15 15.21,30.18 C 15.17,30.13 15.11,30.12 15.03,30.09 z M 15.65,31.18 C 16.21,31.31 17.32,31.98 16.37,32.43 C 16.57,33.07 18.19,34.36 16.56,34.28 C 15.19,33.95 15.52,32.20 15.65,31.18 z M 21.06,32.03 C 20.90,33.87 20.10,35.69 18.75,36.96 C 17.33,36.32 17.93,34.38 19.03,33.75 C 20.02,33.46 20.45,32.83 21.06,32.03 z M 21.28,32.31 C 21.36,32.50 21.37,32.70 21.34,32.90 C 21.59,34.01 22.51,35.49 20.93,35.68 C 19.87,34.86 21.17,33.87 21.34,32.90 C 21.29,32.68 21.25,32.49 21.28,32.31 z M 22.43,35.59 C 23.07,35.93 23.68,38.04 22.43,37 C 21.62,37.30 19.10,36.69 20.65,35.87 C 21.23,35.90 22.10,36.32 22.43,35.59 z M 24.25,38.43 C 25.33,39.43 23.52,39.91 23.87,38.65 L 24.06,38.53 L 24.25,38.43 z M 22.28,40.03 C 23.23,39.98 24.43,40.27 24.37,41.09 C 23.53,40.48 22.47,40.31 21.46,40.18 C 21.67,40.10 21.96,40.04 22.28,40.03 z" id="p3477" style="fill:#d19747;fill-opacity:0.05;fill-rule:evenodd;stroke:none;"/>
<path d="M 11.5,8.56 C 10.30,9.82 9.17,11.12 8.34,12.37 L 16.5,40.71 C 16.50,40.71 17.86,41.98 20.40,43.25 C 20.63,43.36 20.91,43.47 21.18,43.59 C 18.62,35.35 13.20,15.28 11.5,8.56 z" id="p3493" style="fill:#f9f0e5;fill-opacity:0.05;fill-rule:evenodd;stroke:none;"/>
<path d="M 21.53,19.30 C 21.58,19.47 21.56,19.66 21.47,19.78 C 21.38,19.91 21.24,19.95 21.09,19.90 C 20.95,19.85 20.83,19.71 20.77,19.54 C 20.72,19.36 20.74,19.17 20.83,19.05 C 20.92,18.92 21.06,18.88 21.21,18.93 C 21.35,18.98 21.47,19.12 21.53,19.30 z" id="p3498" style="fill:#4e4b47;fill-opacity:1;fill-rule:evenodd;stroke:none;marker:none;visibility:visible;display:inline;overflow:visible;enable-background:accumulate"/>
<path d="M 21.37,19.15 C 21.22,19.20 21.15,19.39 21.21,19.59 C 21.25,19.70 21.32,19.79 21.40,19.84 C 21.41,19.84 21.42,19.83 21.43,19.84 C 21.55,19.72 21.59,19.51 21.53,19.31 C 21.51,19.25 21.46,19.20 21.43,19.15 C 21.41,19.15 21.39,19.15 21.37,19.15 z" id="p3502" style="fill:#8b7e73;fill-opacity:1;fill-rule:evenodd;stroke:none;marker:none;visibility:visible;display:inline;overflow:visible;enable-background:accumulate"/>
<path d="M 21.27,19.37 C 21.30,19.46 21.28,19.56 21.24,19.63 C 21.19,19.69 21.11,19.72 21.04,19.69 C 20.96,19.66 20.90,19.59 20.87,19.50 C 20.84,19.40 20.85,19.31 20.90,19.24 C 20.94,19.17 21.02,19.15 21.10,19.18 C 21.17,19.20 21.24,19.28 21.27,19.37 z" id="p3500" style="fill:#201d19;fill-opacity:1;fill-rule:evenodd;stroke:none;marker:none;visibility:visible;display:inline;overflow:visible;enable-background:accumulate"/>
<path d="M 19.96,21.89 C 20.01,22.07 19.99,22.25 19.90,22.38 C 19.81,22.50 19.67,22.55 19.52,22.50 C 19.38,22.45 19.25,22.31 19.20,22.13 C 19.14,21.95 19.17,21.77 19.26,21.64 C 19.35,21.52 19.49,21.47 19.64,21.53 C 19.78,21.58 19.90,21.72 19.96,21.89 z" id="p3514" style="fill:#544f49;fill-opacity:1;fill-rule:evenodd;stroke:none;marker:none;visibility:visible;display:inline;overflow:visible;enable-background:accumulate"/>
<path d="M 19.80,21.75 C 19.65,21.79 19.58,21.98 19.64,22.18 C 19.68,22.30 19.75,22.39 19.83,22.43 C 19.84,22.44 19.85,22.43 19.86,22.43 C 19.97,22.32 20.02,22.11 19.95,21.90 C 19.94,21.84 19.89,21.79 19.86,21.75 C 19.84,21.75 19.82,21.74 19.80,21.75 z" id="p3516" style="fill:#766b62;fill-opacity:1;fill-rule:evenodd;stroke:none;marker:none;visibility:visible;display:inline;overflow:visible;enable-background:accumulate"/>
<path d="M 19.69,21.97 C 19.72,22.06 19.71,22.16 19.67,22.22 C 19.62,22.29 19.54,22.31 19.47,22.28 C 19.39,22.26 19.32,22.18 19.30,22.09 C 19.27,22.00 19.28,21.90 19.33,21.83 C 19.37,21.77 19.45,21.74 19.52,21.77 C 19.60,21.80 19.67,21.87 19.69,21.97 z" id="p3518" style="fill:#201d19;fill-opacity:1;fill-rule:evenodd;stroke:none;marker:none;visibility:visible;display:inline;overflow:visible;enable-background:accumulate"/>
<path d="M 21.69,28.83 C 21.75,29.01 21.73,29.19 21.64,29.32 C 21.55,29.44 21.40,29.49 21.26,29.44 C 21.11,29.39 20.99,29.25 20.93,29.07 C 20.88,28.89 20.90,28.71 20.99,28.58 C 21.08,28.46 21.23,28.41 21.37,28.46 C 21.51,28.52 21.64,28.66 21.69,28.83 z" id="p3522" style="fill:#454444;fill-opacity:1;fill-rule:evenodd;stroke:none;marker:none;visibility:visible;display:inline;overflow:visible;enable-background:accumulate"/>
<path d="M 21.53,28.68 C 21.38,28.73 21.32,28.92 21.38,29.12 C 21.41,29.24 21.48,29.33 21.56,29.37 C 21.58,29.38 21.58,29.37 21.60,29.37 C 21.71,29.26 21.75,29.04 21.69,28.84 C 21.67,28.78 21.63,28.73 21.60,28.68 C 21.58,28.69 21.55,28.68 21.53,28.68 z" id="p3524" style="fill:#756a60;fill-opacity:1;fill-rule:evenodd;stroke:none;marker:none;visibility:visible;display:inline;overflow:visible;enable-background:accumulate"/>
<path d="M 21.43,28.90 C 21.46,29.00 21.45,29.10 21.40,29.16 C 21.35,29.23 21.28,29.25 21.20,29.22 C 21.12,29.20 21.06,29.12 21.03,29.03 C 21.00,28.94 21.01,28.84 21.06,28.77 C 21.11,28.71 21.18,28.68 21.26,28.71 C 21.34,28.74 21.40,28.81 21.43,28.90 z" id="p3526" style="fill:#201d19;fill-opacity:1;fill-rule:evenodd;stroke:none;marker:none;visibility:visible;display:inline;overflow:visible;enable-background:accumulate"/>
<path d="M 24.43,30.80 C 24.48,30.97 24.46,31.16 24.37,31.28 C 24.28,31.41 24.14,31.45 23.99,31.40 C 23.85,31.35 23.73,31.21 23.67,31.04 C 23.62,30.86 23.64,30.67 23.73,30.55 C 23.82,30.42 23.96,30.38 24.11,30.43 C 24.25,30.48 24.37,30.62 24.43,30.80 z" id="p3530" style="fill:#44413d;fill-opacity:1;fill-rule:evenodd;stroke:none;marker:none;visibility:visible;display:inline;overflow:visible;enable-background:accumulate"/>
<path d="M 24.27,30.65 C 24.12,30.70 24.05,30.89 24.11,31.09 C 24.15,31.20 24.22,31.29 24.30,31.34 C 24.31,31.34 24.32,31.33 24.33,31.34 C 24.45,31.22 24.49,31.01 24.43,30.81 C 24.41,30.75 24.36,30.70 24.33,30.65 C 24.31,30.65 24.29,30.64 24.27,30.65 z" id="p3532" style="fill:#71665c;fill-opacity:1;fill-rule:evenodd;stroke:none;marker:none;visibility:visible;display:inline;overflow:visible;enable-background:accumulate"/>
<path d="M 24.17,30.87 C 24.20,30.96 24.18,31.06 24.14,31.13 C 24.09,31.19 24.01,31.22 23.94,31.19 C 23.86,31.16 23.80,31.09 23.77,31.00 C 23.74,30.90 23.75,30.81 23.80,30.74 C 23.84,30.67 23.92,30.65 24.00,30.68 C 24.07,30.70 24.14,30.78 24.17,30.87 z" id="p3534" style="fill:#201d19;fill-opacity:1;fill-rule:evenodd;stroke:none;marker:none;visibility:visible;display:inline;overflow:visible;enable-background:accumulate"/>
<path d="M 8.34,12.38 L 16.48,40.70 C 16.48,40.70 17.86,41.97 20.39,43.24 C 22.93,44.51 29.06,46.41 30.54,46.62 C 31.49,46.20 33.71,44.61 34.55,44.30 C 35.40,43.98 36.56,43.13 37.20,42.92 C 36.14,39.12 26.31,1.81 26.21,1.60 C 26.10,1.39 18.81,2.34 18.38,2.44 C 17.01,3.29 11.09,8.26 8.34,12.38 z" id="stroke01" style="fill:none;fill-opacity:1;fill-rule:evenodd;stroke:#1d1713;stroke-width:0.5;stroke-linecap:butt;stroke-linejoin:miter;stroke-miterlimit:4;stroke-dasharray:none;stroke-opacity:1"/>
</g>
</svg>
