<?xml version="1.0" encoding="UTF-8" standalone="no"?>
<!DOCTYPE svg PUBLIC "-//W3C//DTD SVG 1.0//EN" "http://www.w3.org/TR/2001/REC-SVG-20010904/DTD/svg10.dtd">
<svg xmlns:svg="http://www.w3.org/2000/svg" xmlns="http://www.w3.org/2000/svg" version="1.0" width="100%" height="100%" viewBox="0 0 48 48" id="_dice01" style="display:inline">
<defs id="defs2385"/>
<g id="dice01" style="display:inline">
<path d="M 4.08,14.68 C 1.13,21.53 4.16,31.79 6.81,35.73 C 8.45,38.17 14.38,42.85 18.17,44.21 C 21.95,45.57 28.31,45.27 33.61,41.94 C 38.91,38.61 42.59,33.07 43.91,26.67 C 44.62,23.19 44.91,15.27 39.52,9.23 C 36.44,5.79 29.22,0.6 19.68,2.57 C 10.14,4.54 5.41,11.61 4.08,14.68 z" id="p2948" style="fill:#f71b1b;fill-opacity:1;fill-rule:evenodd;stroke:none"/>
<path d="M 39.34,9.06 C 39.57,11.26 39.54,13.13 39.03,13.43 C 38.02,14.04 31.92,18.47 30.31,19.68 C 28.69,20.9 25.25,20.9 23.03,20.5 C 20.8,20.09 19.21,22.53 21.03,23.75 C 22.85,24.96 24.65,27.36 24.65,29.59 C 24.65,31.81 24.87,35.26 24.87,38.9 C 24.87,41.33 24.04,43.85 21.4,44.9 C 25.04,45.24 29.63,44.44 33.62,41.93 C 38.92,38.6 42.58,33.09 43.9,26.68 C 44.62,23.2 44.92,15.28 39.53,9.25 C 39.47,9.19 39.39,9.12 39.34,9.06 z" id="p3727" style="fill:#700f0f;fill-opacity:0.41;fill-rule:evenodd;stroke:none;display:inline"/>
<path d="M 39.75,14.93 C 39.62,14.95 39.5,15.01 39.4,15.06 C 37.78,15.87 33.75,18.69 31.53,20.31 C 29.3,21.92 25.67,25.97 25.87,29.81 C 26.07,29.81 26.09,34.24 26.09,39.09 C 26.09,42.53 29.51,42.94 32.53,42.59 C 32.9,42.39 33.26,42.16 33.62,41.93 C 38.92,38.6 42.58,33.09 43.9,26.68 C 44.34,24.56 44.63,20.79 43.56,16.81 C 42.25,15.56 40.69,14.79 39.75,14.93 z" id="p3725" style="fill:#e63e3e;fill-opacity:0.31;fill-rule:evenodd;stroke:none;display:inline"/>
<path d="M 23.15,2.15 C 22.03,2.19 20.87,2.31 19.68,2.56 C 14.58,3.61 10.87,6.14 8.31,8.71 C 6.9,11.12 6.58,12.76 6.87,13.43 C 7.48,14.85 16.97,18.67 19,19.68 C 21.02,20.69 27.29,21.52 30.12,19.9 C 32.95,18.28 35.87,16.01 37.4,15.19 C 42.15,12.65 40.57,11.34 38.06,7.75 C 34.98,4.97 29.76,1.92 23.15,2.15 z" id="p3723" style="fill:#b21818;fill-opacity:0.5;fill-rule:evenodd;stroke:none"/>
<path d="M 21.38,26.75 C 25.58,26.07 28.01,21.74 29.36,20.25 C 30.72,18.76 36.54,15.51 34.37,14.56 C 32.21,13.62 29.64,12.13 26.79,12.67 C 23.95,13.21 24.63,16.05 23.27,16.32 C 21.92,16.59 15.97,15.65 15.83,17.14 C 15.7,18.63 18.54,20.25 20.3,22.41 C 22.06,24.58 20.03,24.85 21.38,26.75 z" id="p3741" style="fill:#fb2a2a;fill-opacity:0.22;fill-rule:evenodd;stroke:none;display:inline"/>
<path d="M 6.4,10.87 C 5.26,12.35 4.51,13.71 4.09,14.68 C 3.85,15.23 3.66,15.81 3.5,16.4 C 5,14.83 6.31,14.27 7.18,14.56 C 8.4,14.96 15.29,18.88 17.18,19.56 C 19.08,20.23 20.31,21.34 24.37,20.93 C 28.43,20.53 26.66,19.57 24.9,19.84 C 23.14,20.11 20.7,20.38 19.21,19.84 C 17.72,19.3 10.55,16.19 8.25,14.43 C 6.63,13.2 6.33,12.54 6.4,10.87 z" id="p3744" style="fill:#fc3f3f;fill-opacity:0.87;fill-rule:evenodd;stroke:none;display:inline"/>
<path d="M 8.12,14.7 C 10.96,15.92 16.24,19.03 17.45,19.84" id="p3747" style="fill:none;fill-rule:evenodd;stroke:#ee8787;stroke-width:1.20;stroke-linecap:round;stroke-linejoin:miter;stroke-miterlimit:4;stroke-dasharray:none;stroke-opacity:0.45;display:inline"/>
<path d="M 20.43,19.84 C 22.46,20.38 24.63,19.98 24.63,19.98" id="p3750" style="fill:none;fill-rule:evenodd;stroke:#f65454;stroke-width:1.10;stroke-linecap:round;stroke-linejoin:miter;stroke-miterlimit:4;stroke-dasharray:none;stroke-opacity:0.82;display:inline"/>
<path d="M 7.75,36.87 C 10.08,39.41 14.89,43.04 18.15,44.21 C 20.27,44.98 23.19,45.2 26.28,44.68 C 26.47,43.84 26.93,43.21 27.65,43 C 29.44,42.46 26.23,41.22 24.81,41.93 C 23.38,42.65 21.41,43.18 19.09,43.18 C 17.05,43.18 16.66,42.82 7.75,36.87 z" id="p3756" style="fill:#fd9797;fill-opacity:0.16;fill-rule:evenodd;stroke:none;display:inline"/>
<path d="M 39.75,14.93 C 39.62,14.95 39.5,15.01 39.4,15.06 C 37.78,15.87 33.75,18.69 31.53,20.31 C 30.36,21.16 28.81,22.66 27.62,24.46 C 27.61,26.84 28.66,27.91 32.15,27.96 C 36.86,28.03 35.36,39.31 38.25,38.03 C 41.05,34.91 43.01,31 43.9,26.68 C 44.34,24.56 44.63,20.79 43.56,16.81 C 42.25,15.56 40.69,14.79 39.75,14.93 z" id="p3762" style="fill:#fc6262;fill-opacity:0.07;fill-rule:evenodd;stroke:none;display:inline"/>
<path d="M 15.81,10.96 C 15.81,11.99 14.33,12.81 12.51,12.81 C 10.69,12.81 9.21,11.99 9.21,10.96 C 9.21,9.94 10.69,9.11 12.51,9.11 C 14.33,9.11 15.81,9.94 15.81,10.96 L 15.81,10.96 z" id="p3768" style="fill:#f6f2f2;fill-opacity:0.83;fill-rule:evenodd;stroke:none;marker:none;visibility:visible;display:inline;overflow:visible;enable-background:accumulate"/>
<path d="M 26.18,10.66 C 26.18,11.69 24.70,12.51 22.88,12.51 C 21.06,12.51 19.58,11.69 19.58,10.66 C 19.58,9.64 21.06,8.81 22.88,8.81 C 24.70,8.81 26.18,9.64 26.18,10.66 L 26.18,10.66 z" id="p3770" style="fill:#f6f2f2;fill-opacity:0.83;fill-rule:evenodd;stroke:none;marker:none;visibility:visible;display:inline;overflow:visible;enable-background:accumulate"/>
<path d="M 36.64,9.93 C 36.64,10.96 35.16,11.78 33.34,11.78 C 31.52,11.78 30.04,10.96 30.04,9.93 C 30.04,8.91 31.52,8.08 33.34,8.08 C 35.16,8.08 36.64,8.91 36.64,9.93 L 36.64,9.93 z" id="p3772" style="fill:#f6f2f2;fill-opacity:0.83;fill-rule:evenodd;stroke:none;marker:none;visibility:visible;display:inline;overflow:visible;enable-background:accumulate"/>
<path d="M 21.89,20.11 C 22.95,20.11 23.63,20.11 24.24,20.04" id="p3777" style="fill:none;fill-rule:evenodd;stroke:#efa0a0;stroke-width:1px;stroke-linecap:round;stroke-linejoin:miter;stroke-opacity:0.72"/>
<path d="M 20.95,28.59 C 20.56,29.57 19.31,29.54 18.17,28.54 C 17.04,27.53 16.43,25.91 16.83,24.94 C 17.22,23.96 18.46,23.98 19.60,24.99 C 20.74,26.00 21.34,27.61 20.95,28.59 L 20.95,28.59 z" id="p3779" style="fill:#e2d5d5;fill-opacity:0.83;fill-rule:evenodd;stroke:none;marker:none;visibility:visible;display:inline;overflow:visible;enable-background:accumulate"/>
<path d="M 15.52,31.10 C 15.13,32.08 13.88,32.05 12.74,31.05 C 11.61,30.04 11.00,28.42 11.40,27.45 C 11.79,26.47 13.03,26.49 14.17,27.50 C 15.31,28.51 15.91,30.12 15.52,31.10 L 15.52,31.10 z" id="p3781" style="fill:#e2d5d5;fill-opacity:0.83;fill-rule:evenodd;stroke:none;marker:none;visibility:visible;display:inline;overflow:visible;enable-background:accumulate"/>
<path d="M 10.10,33.81 C 9.71,34.79 8.46,34.76 7.32,33.76 C 6.19,32.75 5.58,31.13 5.98,30.16 C 6.37,29.18 7.61,29.20 8.75,30.21 C 9.89,31.22 10.49,32.83 10.10,33.81 L 10.10,33.81 z" id="p3783" style="fill:#e2d5d5;fill-opacity:0.83;fill-rule:evenodd;stroke:none;marker:none;visibility:visible;display:inline;overflow:visible;enable-background:accumulate"/>
<path d="M 9.93,22.55 C 9.54,23.53 8.29,23.50 7.15,22.50 C 6.02,21.49 5.41,19.87 5.81,18.90 C 6.20,17.92 7.44,17.94 8.58,18.95 C 9.72,19.96 10.32,21.57 9.93,22.55 L 9.93,22.55 z" id="p3785" style="fill:#e2d5d5;fill-opacity:0.83;fill-rule:evenodd;stroke:none;marker:none;visibility:visible;display:inline;overflow:visible;enable-background:accumulate"/>
<path d="M 20.87,39.73 C 20.48,40.71 19.23,40.68 18.09,39.68 C 16.96,38.67 16.35,37.05 16.75,36.08 C 17.14,35.10 18.38,35.12 19.52,36.13 C 20.66,37.14 21.26,38.75 20.87,39.73 L 20.87,39.73 z" id="p3787" style="fill:#e2d5d5;fill-opacity:0.83;fill-rule:evenodd;stroke:none;marker:none;visibility:visible;display:inline;overflow:visible;enable-background:accumulate"/>
<path d="M 32.00,23.84 C 32.30,24.80 31.66,26.58 30.56,27.81 C 29.45,29.05 28.31,29.27 28.00,28.31 C 27.70,27.35 28.34,25.57 29.45,24.34 C 30.55,23.11 31.69,22.89 32.00,23.84 z" id="p3794" style="fill:#bd9f9f;fill-opacity:0.83;fill-rule:evenodd;stroke:none;marker:none;visibility:visible;display:inline;overflow:visible;enable-background:accumulate"/>
<path d="M 32.00,29.86 C 32.30,30.82 31.66,32.60 30.56,33.83 C 29.45,35.07 28.31,35.29 28.00,34.33 C 27.70,33.37 28.34,31.59 29.45,30.36 C 30.55,29.13 31.69,28.91 32.00,29.86 z" id="p3796" style="fill:#bd9f9f;fill-opacity:0.83;fill-rule:evenodd;stroke:none;marker:none;visibility:visible;display:inline;overflow:visible;enable-background:accumulate"/>
<path d="M 32.00,35.87 C 32.30,36.83 31.66,38.61 30.56,39.84 C 29.45,41.08 28.31,41.30 28.00,40.34 C 27.70,39.38 28.34,37.60 29.45,36.37 C 30.55,35.14 31.69,34.92 32.00,35.87 z" id="p3798" style="fill:#bd9f9f;fill-opacity:0.83;fill-rule:evenodd;stroke:none;marker:none;visibility:visible;display:inline;overflow:visible;enable-background:accumulate"/>
<path d="M 41.53,17.68 C 41.83,18.60 41.20,20.33 40.12,21.52 C 39.04,22.71 37.93,22.93 37.63,22.00 C 37.34,21.07 37.97,19.35 39.05,18.16 C 40.13,16.96 41.24,16.75 41.53,17.68 z" id="p3800" style="fill:#bd9f9f;fill-opacity:0.83;fill-rule:evenodd;stroke:none;marker:none;visibility:visible;display:inline;overflow:visible;enable-background:accumulate"/>
<path d="M 41.72,23.38 C 42.02,24.30 41.39,26.03 40.31,27.22 C 39.23,28.41 38.12,28.63 37.82,27.70 C 37.53,26.77 38.16,25.05 39.24,23.86 C 40.32,22.66 41.43,22.45 41.72,23.38 z" id="p3802" style="fill:#bd9f9f;fill-opacity:0.83;fill-rule:evenodd;stroke:none;marker:none;visibility:visible;display:inline;overflow:visible;enable-background:accumulate"/>
<path d="M 41.65,29.20 C 41.95,30.12 41.32,31.85 40.24,33.04 C 39.16,34.23 38.05,34.45 37.75,33.52 C 37.46,32.59 38.09,30.87 39.17,29.68 C 40.25,28.48 41.36,28.27 41.65,29.20 z" id="p3804" style="fill:#bd9f9f;fill-opacity:0.83;fill-rule:evenodd;stroke:none;marker:none;visibility:visible;display:inline;overflow:visible;enable-background:accumulate"/>
<path d="M 4.08,14.68 C 1.13,21.53 4.16,31.79 6.81,35.73 C 8.45,38.17 14.38,42.85 18.17,44.21 C 21.95,45.57 28.31,45.27 33.61,41.94 C 38.91,38.61 42.59,33.07 43.91,26.67 C 44.62,23.19 44.91,15.27 39.52,9.23 C 36.44,5.79 29.22,0.6 19.68,2.57 C 10.14,4.54 5.41,11.61 4.08,14.68 z" id="stroke01" style="fill:none;fill-opacity:1;fill-rule:evenodd;stroke:#360404;stroke-width:0.5px;stroke-linecap:butt;stroke-linejoin:miter;stroke-opacity:1"/>
</g>
</svg>
