<?xml version="1.0" encoding="UTF-8" standalone="no"?>
<!DOCTYPE svg PUBLIC "-//W3C//DTD SVG 1.0//EN" "http://www.w3.org/TR/2001/REC-SVG-20010904/DTD/svg10.dtd">
<svg xmlns:svg="http://www.w3.org/2000/svg" xmlns="http://www.w3.org/2000/svg" version="1.0" width="100%" height="100%" viewBox="0 0 48 48" id="_discovery01" style="display:inline">
<defs id="defs2818"/>
<g id="missile01" style="display:inline">
<path d="M 24.12,2.82 C 22.16,4.48 20.87,7.44 20.78,11.72 C 20.69,16.03 20.71,35.19 20.71,36.32 C 20.71,37.44 21.26,40.25 23.90,40.25 C 24.12,40.25 24.34,40.25 24.56,40.25 C 27.01,40.10 27.53,37.40 27.53,36.32 C 27.53,35.19 27.58,16.03 27.5,11.72 C 27.41,7.44 26.11,4.48 24.15,2.82 L 24.12,2.82 z" id="p3603" style="fill:#d49550;fill-opacity:1;fill-rule:evenodd;stroke:none;display:inline"/>
<path d="M 29.18,10.78 C 29.00,10.80 28.90,11.22 28.90,11.22 C 28.90,11.22 27.71,14.48 27.71,14.72 C 27.72,14.94 27.95,36.50 28,41.22 L 28,43.69 C 27.99,43.85 27.99,44.03 28,44.03 C 28.00,44.35 29.43,44.29 29.5,44.28 C 29.50,44.28 29.53,44.28 29.53,44.28 C 29.58,44.29 31.03,44.35 31.03,44.03 L 31.03,41.22 C 30.98,36.51 30.75,14.94 30.75,14.72 C 30.75,14.48 29.48,11.24 29.46,11.19 C 29.41,11.04 29.35,10.77 29.18,10.78 z" id="p3605" style="fill:#eae7dc;fill-opacity:1;fill-rule:evenodd;stroke:none;display:inline"/>
<path d="M 19.13,10.88 C 18.95,10.90 18.84,11.32 18.84,11.32 C 18.84,11.32 17.62,14.56 17.62,14.81 C 17.62,15.03 17.66,37.05 17.67,41.53 L 17.65,43.59 C 17.65,43.61 17.65,44.11 17.65,44.12 C 17.65,44.44 19.08,44.39 19.14,44.38 C 19.15,44.38 19.18,44.38 19.18,44.38 C 19.23,44.39 20.68,44.47 20.68,44.15 C 20.68,44.14 20.68,43.67 20.68,43.65 L 20.70,41.58 C 20.70,37.15 20.65,15.06 20.65,14.83 C 20.66,14.59 19.42,11.34 19.40,11.29 C 19.35,11.14 19.30,10.87 19.13,10.88 z" id="p3607" style="fill:#7a807c;fill-opacity:1;fill-rule:evenodd;stroke:none;display:inline"/>
<path d="M 24.12,2.82 C 22.35,4.32 21.12,6.91 20.84,10.57 C 23.16,9.96 25.74,10.26 27.43,10.60 C 27.15,6.93 25.93,4.33 24.15,2.82 L 24.12,2.82 z" id="p3614" style="fill:#b48149;fill-opacity:0.82;fill-rule:evenodd;stroke:none;display:inline"/>
<path d="M 24.18,12.57 C 23.00,12.57 21.81,12.69 20.78,12.88 C 20.76,14.23 20.72,16.03 20.71,18.41 C 22.58,18.05 25.83,18.24 27.53,18.50 C 27.52,16.11 27.51,14.28 27.5,12.91 C 26.58,12.67 25.40,12.56 24.18,12.57 z" id="p3616" style="fill:#aa8a4e;fill-opacity:0.47;fill-rule:evenodd;stroke:none;display:inline"/>
<path d="M 26.74,11.13 L 26.74,26.88" id="p3261" style="fill:none;fill-rule:evenodd;stroke:#ecc97f;stroke-width:1px;stroke-linecap:round;stroke-linejoin:miter;stroke-opacity:0.35;display:inline"/>
<path d="M 24.09,2.85 C 22.15,4.52 20.86,7.46 20.78,11.72 C 20.69,16.03 20.71,35.19 20.71,36.32 C 20.71,37.42 21.24,40.16 23.78,40.25 C 23.78,32.75 23.78,15.34 23.78,12.38 C 23.78,9.18 23.35,7.20 24.09,2.85 z" id="p3609" style="fill:#73472f;fill-opacity:0.76;fill-rule:evenodd;stroke:none;display:inline"/>
<path d="M 24,2.94 C 23.98,2.96 23.94,2.96 23.93,2.97 C 22.73,4.90 22.28,8.43 22.28,10.78 C 22.28,13.56 22.19,36.94 22.18,39.72 C 22.62,40.04 23.19,40.25 23.90,40.25 C 24.12,40.25 24.34,40.25 24.56,40.25 C 24.64,40.25 24.73,40.23 24.81,40.22 C 24.81,35.87 24.81,14.03 24.81,11.50 C 24.81,9.08 24.45,6.37 24,2.94 z" id="p3630" style="fill:#463d2e;fill-opacity:0.32;fill-rule:evenodd;stroke:none;"/>
<path d="M 27.5,12.91 C 26.58,12.67 25.40,12.56 24.18,12.57 C 23.00,12.57 21.81,12.69 20.78,12.88 M 20.71,18.41 C 22.58,18.05 25.83,18.24 27.53,18.50" id="p3635" style="fill:none;fill-opacity:0.47;fill-rule:evenodd;stroke:#ebf73f;stroke-width:0.30;stroke-linecap:butt;stroke-linejoin:miter;stroke-miterlimit:4;stroke-dasharray:none;stroke-opacity:0.22;display:inline"/>
<path d="M 24.13,2.81 C 25.85,6.85 26.03,8.67 25.86,13.97 C 25.70,19.27 25.86,30.68 25.86,30.68" id="p3612" style="fill:none;fill-rule:evenodd;stroke:#484848;stroke-width:0.30;stroke-linecap:butt;stroke-linejoin:miter;stroke-miterlimit:4;stroke-dasharray:none;stroke-opacity:1;display:inline"/>
<rect width="0.80" height="1.32" x="23.89" y="12.60" id="r3637" style="fill:#ab9243;fill-opacity:1;fill-rule:evenodd;stroke:none;marker:none;visibility:visible;display:inline;overflow:visible;enable-background:accumulate"/>
<path d="M 29.18,10.78 C 29.00,10.80 28.90,11.22 28.90,11.22 C 28.90,11.22 27.71,14.48 27.71,14.72 C 27.72,14.94 27.95,36.44 28,41.19 C 27.99,42.14 28,43.09 28,44.03 C 28.00,44.30 28.83,44.29 29.21,44.28 L 29.21,14.57 L 29.18,10.78 z" id="p3640" style="fill:#7a807c;fill-opacity:0.37;fill-rule:evenodd;stroke:none;display:inline"/>
<path d="M 29.18,10.78 C 29.00,10.80 28.90,11.22 28.90,11.22 C 28.90,11.22 28.65,11.89 28.43,12.50 L 28.53,44.25 C 28.94,44.30 29.46,44.29 29.5,44.28 C 29.50,44.28 29.53,44.28 29.53,44.28 C 29.53,44.28 29.67,44.28 29.71,44.28 L 29.62,11.60 C 29.59,11.51 29.47,11.20 29.46,11.19 C 29.41,11.04 29.35,10.77 29.18,10.78 z" id="p3647" style="fill:#4c4c4c;fill-opacity:0.17;fill-rule:evenodd;stroke:none;"/>
<path d="M 28.20,15.18 L 28.20,32.00" id="p3656" style="fill:none;fill-rule:evenodd;stroke:#ffac0d;stroke-width:0.89;stroke-linecap:round;stroke-linejoin:miter;stroke-miterlimit:4;stroke-dasharray:none;stroke-opacity:0.18"/>
<path d="M 20.03,13.00 L 19.81,44.38 C 20.23,44.37 20.68,44.35 20.68,44.16 C 20.68,44.15 20.68,43.68 20.68,43.66 L 20.71,41.60 C 20.71,37.16 20.65,15.07 20.65,14.85 C 20.65,14.73 20.34,13.85 20.03,13.00 z" id="p3700" style="fill:#432100;fill-opacity:0.35;fill-rule:evenodd;stroke:none;display:inline"/>
<path d="M 19,10.97 C 18.89,11.10 18.84,11.32 18.84,11.32 C 18.84,11.32 17.62,14.57 17.62,14.82 C 17.62,15.04 17.68,37.06 17.68,41.53 L 17.65,43.60 C 17.65,43.62 17.65,44.12 17.65,44.13 C 17.65,44.26 17.91,44.31 18.21,44.35 L 18.18,14.63 L 19,10.97 z" id="p3702" style="fill:#192129;fill-opacity:0.35;fill-rule:evenodd;stroke:none;display:inline"/>
<path d="M 22.21,19.50 C 21.79,22.09 20.64,29.21 20.40,30.16 C 20.16,31.11 19.58,31.92 18.93,32.47 C 18.29,33.02 15.54,35.91 15.34,36.07 C 15.14,36.22 14.53,37.88 14.5,39.47 C 15.59,39.71 21.09,40.60 21.09,40.60 L 21.06,42.07 L 21.68,42.16 C 21.68,42.16 21.77,42.88 21.87,43.13 C 21.97,43.38 23.60,43.58 24,43.38 C 24.10,43.83 23.89,44.51 24.25,44.50 C 24.58,44.50 24.40,43.86 24.5,43.41 C 24.89,43.61 26.52,43.41 26.62,43.16 C 26.72,42.91 26.78,42.16 26.78,42.16 L 27.43,42.07 L 27.37,40.63 C 27.37,40.63 32.84,39.69 33.93,39.44 C 33.88,37.85 33.29,36.18 33.09,36.03 C 32.89,35.89 30.11,33.02 29.46,32.47 C 28.82,31.92 28.21,31.11 27.96,30.16 C 27.71,29.21 26.54,22.12 26.09,19.53 C 25.64,16.95 24.77,14.98 24.12,14.88 C 23.38,15.05 22.56,17.19 22.21,19.50 z" id="p3730" style="fill:#939185;fill-opacity:1;fill-rule:evenodd;stroke:none;display:inline"/>
<path d="M 24.15,14.91 L 24.15,18.94 L 24.21,20.44 L 24.28,36.75 C 24.28,36.75 25.06,36.63 25.34,36.69 C 25.61,36.74 26.10,41.33 26.06,43.38 C 26.35,43.32 26.59,43.25 26.62,43.16 C 26.72,42.91 26.78,42.16 26.78,42.16 L 27.43,42.07 L 27.37,40.63 C 27.37,40.63 32.84,39.69 33.93,39.44 C 33.88,37.85 33.29,36.18 33.09,36.03 C 32.89,35.89 30.11,33.02 29.46,32.47 C 28.82,31.92 28.21,31.11 27.96,30.16 C 27.71,29.21 26.54,22.12 26.09,19.53 C 25.65,16.99 24.79,15.08 24.15,14.91 z" id="p3732" style="fill:#e1ddd1;fill-opacity:0.75;fill-rule:evenodd;stroke:none;display:inline"/>
<path d="M 25.21,16.47 C 25.64,24.59 25.71,36.57 25.71,36.57 C 25.71,36.57 26.43,37.26 26.43,37.85 C 26.43,38.34 26.43,42.04 26.43,43.28 C 26.53,43.25 26.60,43.20 26.62,43.16 C 26.72,42.91 26.78,42.16 26.78,42.16 L 27.43,42.07 L 27.37,40.63 C 27.37,40.63 32.84,39.69 33.93,39.44 C 33.88,37.85 33.29,36.18 33.09,36.03 C 32.89,35.89 30.11,33.02 29.46,32.47 C 28.82,31.92 28.21,31.11 27.96,30.16 C 27.71,29.21 26.54,22.12 26.09,19.53 C 25.88,18.32 25.55,17.28 25.21,16.47 z" id="p3776" style="fill:#ffffff;fill-opacity:0.8;fill-rule:evenodd;stroke:none;display:inline"/>
<path d="M 26.34,21.03 L 26.40,36.75 C 26.40,36.75 27.25,37.31 27.31,38.38 C 27.34,38.94 27.38,39.65 27.43,40.63 C 27.55,40.61 32.85,39.69 33.93,39.44 C 33.88,37.85 33.29,36.18 33.09,36.03 C 32.89,35.89 30.11,33.02 29.46,32.47 C 28.82,31.92 28.21,31.11 27.96,30.16 C 27.75,29.33 26.87,24.14 26.34,21.03 z" id="p3734" style="fill:#c3c0b1;fill-opacity:1;fill-rule:evenodd;stroke:none;display:inline"/>
<path d="M 21.90,21.32 C 21.39,24.47 20.61,29.36 20.40,30.16 C 20.16,31.11 19.58,31.92 18.93,32.47 C 18.29,33.02 15.54,35.91 15.34,36.07 C 15.14,36.22 14.53,37.88 14.5,39.47 C 15.59,39.71 21.09,40.60 21.09,40.60 L 21.06,42.07 C 21.07,41.57 21.13,39.32 21.18,38.41 C 21.24,37.40 22.09,36.63 22.09,36.63 L 21.90,21.32 z" id="p3736" style="fill:#11171c;fill-opacity:0.43;fill-rule:evenodd;stroke:none;display:inline"/>
<path d="M 23.78,38.28 L 23.71,40.72 L 21.78,40.72 L 21.78,41.63 L 21.06,41.60 L 21.06,42.07 L 21.68,42.16 C 21.68,42.16 21.77,42.88 21.87,43.13 C 21.97,43.38 23.60,43.58 24,43.38 C 24.10,43.83 23.89,44.51 24.25,44.50 C 24.58,44.50 24.40,43.86 24.5,43.41 C 24.89,43.61 26.52,43.41 26.62,43.16 C 26.72,42.91 26.78,42.16 26.78,42.16 L 27.43,42.07 L 27.40,41.69 L 26.78,41.69 L 26.78,40.75 L 24.78,40.75 L 24.71,38.28 L 23.78,38.28 z" id="p3782" style="fill:#0f0f0f;fill-opacity:1;fill-rule:evenodd;stroke:none;display:inline"/>
<path d="M 26.34,21.03 L 26.34,23.10 L 26.37,23.19 L 27.31,28.69 L 27.68,32.19 L 33.46,37.94 L 33.75,37.94 C 33.54,36.94 33.22,36.14 33.09,36.03 C 32.89,35.89 30.11,33.02 29.46,32.47 C 28.82,31.92 28.21,31.11 27.96,30.16 C 27.75,29.33 26.87,24.14 26.34,21.03 z" id="p3788" style="fill:#f5f4f2;fill-opacity:0.74;fill-rule:evenodd;stroke:none;display:inline"/>
<path d="M 27.37,28.78 L 27.59,30.63 L 28.18,31.88 L 33.03,36.60 L 33.5,38.00 L 33.75,38.03 C 33.54,36.99 33.23,36.14 33.09,36.03 C 32.89,35.89 30.11,33.02 29.46,32.47 C 28.82,31.92 28.21,31.11 27.96,30.16 C 27.92,30.01 27.79,29.19 27.71,28.78 L 27.37,28.78 z" id="p3794" style="fill:#3d392f;fill-opacity:0.74;fill-rule:evenodd;stroke:none;display:inline"/>
<path d="M 21.81,21.82 C 21.29,24.97 20.60,29.39 20.40,30.16 C 20.16,31.11 19.58,31.92 18.93,32.47 C 18.29,33.02 15.54,35.91 15.34,36.07 C 15.19,36.18 14.85,37.09 14.65,38.19 L 20.78,32.35 L 21.93,23.88 L 21.90,22.47 L 21.81,21.82 z" id="p3817" style="fill:#d5dddf;fill-opacity:0.11;fill-rule:evenodd;stroke:none;display:inline"/>
<path d="M 20.65,28.66 C 20.56,29.14 20.44,29.99 20.40,30.16 C 20.16,31.11 19.58,31.92 18.93,32.47 C 18.29,33.02 15.54,35.91 15.34,36.07 C 15.19,36.18 14.82,37.10 14.62,38.22 L 15.12,37.94 L 15.62,36.60 L 20.21,31.94 L 20.81,30.60 L 21.12,28.75 L 20.65,28.66 z" id="p3821" style="fill:#363636;fill-opacity:0.74;fill-rule:evenodd;stroke:none;display:inline"/>
<path d="M 24.34,36.60 L 24.21,36.63 L 23.90,38.91 L 23.87,40.44 L 23.90,43.41 C 23.93,43.40 23.97,43.39 24,43.38 C 24.10,43.83 23.89,44.51 24.25,44.50 C 24.58,44.50 24.40,43.86 24.5,43.41 C 24.53,43.43 24.61,43.43 24.65,43.44 L 24.62,40.38 L 24.62,38.66 L 24.34,36.60 z" id="p3839" style="fill:#f5f4f2;fill-opacity:1;fill-rule:evenodd;stroke:none;display:inline"/>
<path d="M 24.21,36.63 L 23.90,38.91 L 23.87,40.44 L 23.90,43.41 C 23.93,43.40 23.97,43.39 24,43.38 C 24.09,43.81 23.91,44.46 24.21,44.50 L 24.28,36.63 L 24.21,36.63 z" id="p3845" style="fill:#6b6b6b;fill-opacity:0.43;fill-rule:evenodd;stroke:none;"/>
<path d="M 24.26,36.65 L 24.21,44.28" id="p3850" style="fill:none;fill-opacity:1;fill-rule:evenodd;stroke:#414141;stroke-width:0.2;stroke-linecap:butt;stroke-linejoin:miter;marker:none;stroke-miterlimit:4;stroke-dasharray:none;stroke-dashoffset:0;stroke-opacity:1;visibility:visible;display:inline;overflow:visible;enable-background:accumulate"/>
<path d="M 22.77,36.54 L 22.71,37.49 L 23.62,36.91 L 23.59,36.60 L 22.77,36.54 z" id="p3854" style="fill:#e9e9e9;fill-opacity:0.60;fill-rule:evenodd;stroke:none;display:inline"/>
<path d="M 24.12,16.61 L 24.27,36.57" id="p3265" style="fill:none;fill-rule:evenodd;stroke:#b2b2b2;stroke-width:1.29;stroke-linecap:butt;stroke-linejoin:miter;stroke-miterlimit:4;stroke-dasharray:none;stroke-opacity:0.55;display:inline"/>
<path d="M 17.71,42.31 C 18.18,42.37 20.22,42.45 20.72,42.35" id="p3251" style="fill:none;fill-rule:evenodd;stroke:#282828;stroke-width:0.2;stroke-linecap:butt;stroke-linejoin:miter;stroke-miterlimit:4;stroke-dasharray:none;stroke-opacity:1;display:inline"/>
<path d="M 17.70,42.76 C 18.17,42.82 20.21,42.89 20.71,42.79" id="p3253" style="fill:none;fill-rule:evenodd;stroke:#282828;stroke-width:0.2;stroke-linecap:butt;stroke-linejoin:miter;stroke-miterlimit:4;stroke-dasharray:none;stroke-opacity:1;display:inline"/>
<path d="M 17.68,43.21 C 18.15,43.27 20.19,43.34 20.68,43.24" id="p3255" style="fill:none;fill-rule:evenodd;stroke:#282828;stroke-width:0.2;stroke-linecap:butt;stroke-linejoin:miter;stroke-miterlimit:4;stroke-dasharray:none;stroke-opacity:1;display:inline"/>
<path d="M 17.66,43.65 C 18.13,43.70 20.17,43.78 20.67,43.68" id="p3257" style="fill:none;fill-rule:evenodd;stroke:#282828;stroke-width:0.2;stroke-linecap:butt;stroke-linejoin:miter;stroke-miterlimit:4;stroke-dasharray:none;stroke-opacity:1;display:inline"/>
<path d="M 17.71,41.88 C 18.18,41.94 20.22,42.01 20.72,41.91" id="p3259" style="fill:none;fill-rule:evenodd;stroke:#282828;stroke-width:0.2;stroke-linecap:butt;stroke-linejoin:miter;stroke-miterlimit:4;stroke-dasharray:none;stroke-opacity:1;display:inline"/>
<path d="M 28.01,42.23 C 28.48,42.27 30.52,42.29 31.02,42.17" id="p3243" style="fill:none;fill-rule:evenodd;stroke:#282828;stroke-width:0.2;stroke-linecap:butt;stroke-linejoin:miter;stroke-miterlimit:4;stroke-dasharray:none;stroke-opacity:1;display:inline"/>
<path d="M 28.01,42.67 C 28.48,42.72 30.52,42.73 31.02,42.62" id="p3245" style="fill:none;fill-rule:evenodd;stroke:#282828;stroke-width:0.2;stroke-linecap:butt;stroke-linejoin:miter;stroke-miterlimit:4;stroke-dasharray:none;stroke-opacity:1;display:inline"/>
<path d="M 28.00,43.12 C 28.47,43.17 30.52,43.18 31.01,43.07" id="p3247" style="fill:none;fill-rule:evenodd;stroke:#282828;stroke-width:0.2;stroke-linecap:butt;stroke-linejoin:miter;stroke-miterlimit:4;stroke-dasharray:none;stroke-opacity:1;display:inline"/>
<path d="M 28.00,43.56 C 28.47,43.60 30.52,43.62 31.01,43.51" id="p3249" style="fill:none;fill-rule:evenodd;stroke:#282828;stroke-width:0.2;stroke-linecap:butt;stroke-linejoin:miter;stroke-miterlimit:4;stroke-dasharray:none;stroke-opacity:1;display:inline"/>
<path d="M 22.14,36.60 L 26.32,36.63" id="p3830" style="fill:none;fill-opacity:1;fill-rule:evenodd;stroke:#414141;stroke-width:0.2;stroke-linecap:butt;stroke-linejoin:miter;marker:none;stroke-miterlimit:4;stroke-dasharray:none;stroke-dashoffset:0;stroke-opacity:1;visibility:visible;display:inline;overflow:visible;enable-background:accumulate"/>
<path d="M 21.21,38.07 L 14.72,38.11" id="p3811" style="fill:none;fill-opacity:1;fill-rule:evenodd;stroke:#2c2c2c;stroke-width:0.2;stroke-linecap:butt;stroke-linejoin:miter;marker:none;stroke-miterlimit:4;stroke-dasharray:none;stroke-dashoffset:0;stroke-opacity:1;visibility:visible;display:inline;overflow:visible;enable-background:accumulate"/>
<path d="M 21.15,39.05 L 18.26,39.08" id="p3813" style="fill:none;fill-opacity:1;fill-rule:evenodd;stroke:#2c2c2c;stroke-width:0.80;stroke-linecap:butt;stroke-linejoin:miter;marker:none;stroke-miterlimit:4;stroke-dasharray:none;stroke-dashoffset:0;stroke-opacity:1;visibility:visible;display:inline;overflow:visible;enable-background:accumulate"/>
<path d="M 17.95,38.78 L 14.66,38.75" id="p3815" style="fill:none;fill-opacity:1;fill-rule:evenodd;stroke:#2c2c2c;stroke-width:0.60;stroke-linecap:butt;stroke-linejoin:miter;marker:none;stroke-miterlimit:4;stroke-dasharray:none;stroke-dashoffset:0;stroke-opacity:1;visibility:visible;display:inline;overflow:visible;enable-background:accumulate"/>
<path d="M 27.28,38.96 L 30.44,38.94" id="p3805" style="fill:none;fill-opacity:1;fill-rule:evenodd;stroke:#414141;stroke-width:0.80;stroke-linecap:butt;stroke-linejoin:miter;marker:none;stroke-miterlimit:4;stroke-dasharray:none;stroke-dashoffset:0;stroke-opacity:1;visibility:visible;display:inline;overflow:visible;enable-background:accumulate"/>
<path d="M 30.63,38.68 L 33.94,38.68" id="p3807" style="fill:none;fill-opacity:1;fill-rule:evenodd;stroke:#414141;stroke-width:0.60;stroke-linecap:butt;stroke-linejoin:miter;marker:none;stroke-miterlimit:4;stroke-dasharray:none;stroke-dashoffset:0;stroke-opacity:1;visibility:visible;display:inline;overflow:visible;enable-background:accumulate"/>
<path d="M 27.26,38.02 L 33.76,38.02" id="p3803" style="fill:none;fill-opacity:1;fill-rule:evenodd;stroke:#414141;stroke-width:0.2;stroke-linecap:butt;stroke-linejoin:miter;marker:none;stroke-miterlimit:4;stroke-dasharray:none;stroke-dashoffset:0;stroke-opacity:1;visibility:visible;display:inline;overflow:visible;enable-background:accumulate"/>
<path d="M 26.35,21.23 L 26.35,36.69 C 26.35,36.69 27.23,37.18 27.32,38.46 C 27.40,39.74 27.36,40.62 27.36,40.62" id="p3801" style="fill:none;fill-rule:evenodd;stroke:#414141;stroke-width:0.2;stroke-linecap:butt;stroke-linejoin:miter;stroke-miterlimit:4;stroke-dasharray:none;stroke-opacity:1"/>
<path d="M 21.95,21.19 L 22.09,36.59 C 22.09,36.59 21.25,37.47 21.18,38.34 C 21.11,39.22 21.11,40.56 21.11,40.56" id="p3809" style="fill:none;fill-rule:evenodd;stroke:#2c2c2c;stroke-width:0.2;stroke-linecap:butt;stroke-linejoin:miter;stroke-miterlimit:4;stroke-dasharray:none;stroke-opacity:1"/>
<path d="M 28.00,41.79 C 28.47,41.84 30.51,41.85 31.01,41.74" id="p3241" style="fill:none;fill-rule:evenodd;stroke:#282828;stroke-width:0.2;stroke-linecap:butt;stroke-linejoin:miter;stroke-miterlimit:4;stroke-dasharray:none;stroke-opacity:1"/>
<path d="M 22.21,19.50 C 21.79,22.09 20.64,29.21 20.40,30.16 C 20.16,31.11 19.58,31.92 18.93,32.47 C 18.29,33.02 15.54,35.91 15.34,36.07 C 15.14,36.22 14.53,37.88 14.5,39.47 C 15.59,39.71 21.09,40.60 21.09,40.60 L 21.06,42.07 L 21.68,42.16 C 21.68,42.16 21.77,42.88 21.87,43.13 C 21.97,43.38 23.60,43.58 24,43.38 C 24.10,43.83 23.89,44.51 24.25,44.50 C 24.58,44.50 24.40,43.86 24.5,43.41 C 24.89,43.61 26.52,43.41 26.62,43.16 C 26.72,42.91 26.78,42.16 26.78,42.16 L 27.43,42.07 L 27.37,40.63 C 27.37,40.63 32.84,39.69 33.93,39.44 C 33.88,37.85 33.29,36.18 33.09,36.03 C 32.89,35.89 30.11,33.02 29.46,32.47 C 28.82,31.92 28.21,31.11 27.96,30.16 C 27.71,29.21 26.54,22.12 26.09,19.53 C 25.64,16.95 24.77,14.98 24.12,14.88 C 23.38,15.05 22.56,17.19 22.21,19.50 z" id="p3728" style="fill:none;fill-rule:evenodd;stroke:#000000;stroke-width:0.30;stroke-linecap:butt;stroke-linejoin:miter;stroke-miterlimit:4;stroke-dasharray:none;stroke-opacity:1;display:inline"/>
<path d="M 27.73,17.33 C 28.33,17.19 30.02,17.14 30.77,17.36" id="p3658" style="fill:none;fill-rule:evenodd;stroke:#292929;stroke-width:0.2;stroke-linecap:butt;stroke-linejoin:miter;stroke-miterlimit:4;stroke-dasharray:none;stroke-opacity:1"/>
<path d="M 27.77,20.48 C 28.31,20.40 30.01,20.34 30.81,20.51" id="p3660" style="fill:none;fill-rule:evenodd;stroke:#292929;stroke-width:0.2;stroke-linecap:butt;stroke-linejoin:miter;stroke-miterlimit:4;stroke-dasharray:none;stroke-opacity:1;display:inline"/>
<path d="M 29.56,13.32 C 29.56,13.39 29.50,13.45 29.44,13.45 C 29.37,13.45 29.32,13.39 29.32,13.32 C 29.32,13.26 29.37,13.20 29.44,13.20 C 29.50,13.20 29.56,13.26 29.56,13.32 z" id="p3662" style="fill:#1d1d1d;fill-opacity:1;fill-rule:evenodd;stroke:none;marker:none;visibility:visible;display:inline;overflow:visible;enable-background:accumulate"/>
<path d="M 28.45,13.39 C 28.45,13.46 28.41,13.51 28.35,13.51 C 28.30,13.51 28.26,13.46 28.26,13.39 C 28.26,13.32 28.30,13.27 28.35,13.27 C 28.41,13.27 28.45,13.32 28.45,13.39 z" id="p3664" style="fill:#1d1d1d;fill-opacity:1;fill-rule:evenodd;stroke:none;marker:none;visibility:visible;display:inline;overflow:visible;enable-background:accumulate"/>
<path d="M 30.23,13.31 C 30.26,13.37 30.25,13.44 30.20,13.46 C 30.15,13.48 30.09,13.45 30.06,13.39 C 30.03,13.33 30.04,13.27 30.09,13.24 C 30.14,13.22 30.20,13.25 30.23,13.31 z" id="p3666" style="fill:#1d1d1d;fill-opacity:1;fill-rule:evenodd;stroke:none;marker:none;visibility:visible;display:inline;overflow:visible;enable-background:accumulate"/>
<path d="M 27.86,26.96 C 28.40,26.88 30.11,26.82 30.90,26.99" id="p3712" style="fill:none;fill-rule:evenodd;stroke:#292929;stroke-width:0.2;stroke-linecap:butt;stroke-linejoin:miter;stroke-miterlimit:4;stroke-dasharray:none;stroke-opacity:1;display:inline"/>
<path d="M 17.64,17.33 C 18.18,17.25 19.88,17.19 20.68,17.36" id="p3714" style="fill:none;fill-rule:evenodd;stroke:#292929;stroke-width:0.2;stroke-linecap:butt;stroke-linejoin:miter;stroke-miterlimit:4;stroke-dasharray:none;stroke-opacity:1;display:inline"/>
<path d="M 17.67,20.25 C 18.21,20.17 19.92,20.11 20.71,20.28" id="p3716" style="fill:none;fill-rule:evenodd;stroke:#292929;stroke-width:0.2;stroke-linecap:butt;stroke-linejoin:miter;stroke-miterlimit:4;stroke-dasharray:none;stroke-opacity:1;display:inline"/>
<path d="M 17.60,26.99 C 18.15,26.91 19.85,26.85 20.64,27.02" id="p3718" style="fill:none;fill-rule:evenodd;stroke:#292929;stroke-width:0.2;stroke-linecap:butt;stroke-linejoin:miter;stroke-miterlimit:4;stroke-dasharray:none;stroke-opacity:1;display:inline"/>
<path d="M 17.61,15.45 C 18.16,15.37 19.86,15.31 20.65,15.49" id="p3720" style="fill:none;fill-rule:evenodd;stroke:#292929;stroke-width:0.5;stroke-linecap:butt;stroke-linejoin:miter;stroke-miterlimit:4;stroke-dasharray:none;stroke-opacity:1;display:inline"/>
<path d="M 24.12,2.82 C 22.16,4.48 20.87,7.44 20.78,11.72 C 20.72,14.51 20.71,22.16 20.71,28.47 C 20.70,28.53 20.69,28.54 20.68,28.60 C 20.67,22.29 20.65,14.96 20.65,14.85 C 20.65,14.60 19.42,11.33 19.40,11.28 C 19.35,11.13 19.29,10.86 19.12,10.88 C 18.94,10.90 18.84,11.32 18.84,11.32 C 18.84,11.32 17.62,14.57 17.62,14.82 C 17.62,14.97 17.64,25.67 17.65,33.72 C 16.62,34.76 15.47,35.96 15.34,36.07 C 15.14,36.22 14.53,37.88 14.5,39.47 C 14.97,39.57 16.38,39.82 17.68,40.03 L 17.65,43.60 C 17.65,43.62 17.65,44.12 17.65,44.13 C 17.65,44.45 19.09,44.38 19.15,44.38 C 19.15,44.38 19.18,44.38 19.18,44.38 C 19.24,44.38 20.68,44.48 20.68,44.16 C 20.68,44.15 20.68,43.68 20.68,43.66 L 20.71,41.60 C 20.71,41.42 20.71,40.76 20.71,40.53 C 20.76,40.54 21.09,40.60 21.09,40.60 L 21.06,42.07 L 21.68,42.16 C 21.68,42.16 21.77,42.88 21.87,43.13 C 21.97,43.38 23.60,43.58 24,43.38 C 24.10,43.83 23.89,44.51 24.25,44.50 C 24.58,44.50 24.40,43.86 24.5,43.41 C 24.89,43.61 26.52,43.41 26.62,43.16 C 26.72,42.91 26.78,42.16 26.78,42.16 L 27.43,42.07 L 27.37,40.63 C 27.37,40.63 27.88,40.55 28,40.53 L 28,43.50 C 28.00,43.53 27.99,44.03 28,44.03 C 28.00,44.35 29.43,44.29 29.5,44.28 C 29.50,44.28 29.53,44.28 29.53,44.28 C 29.58,44.29 31.03,44.35 31.03,44.03 L 31.03,41.47 C 31.02,41.22 31.00,40.32 31,39.97 C 32.20,39.76 33.50,39.54 33.93,39.44 C 33.88,37.85 33.29,36.18 33.09,36.03 C 32.96,35.94 31.92,34.93 30.93,33.94 C 30.85,25.86 30.75,14.88 30.75,14.72 C 30.75,14.48 29.48,11.24 29.46,11.19 C 29.41,11.04 29.35,10.77 29.18,10.78 C 29.00,10.80 28.90,11.22 28.90,11.22 C 28.90,11.22 27.71,14.48 27.71,14.72 C 27.72,14.85 27.80,22.82 27.87,29.72 C 27.79,29.35 27.70,28.85 27.56,28.07 C 27.57,21.79 27.55,14.43 27.5,11.72 C 27.41,7.44 26.11,4.48 24.15,2.82 L 24.12,2.82 z" id="p3593" style="fill:none;fill-rule:evenodd;stroke:#000000;stroke-width:0.5;stroke-linecap:round;stroke-linejoin:round;stroke-miterlimit:4;stroke-dasharray:none;stroke-opacity:1;display:inline"/>
<path d="M 18.74,13.44 C 18.74,13.50 18.80,13.56 18.86,13.56 C 18.93,13.56 18.99,13.50 18.99,13.44 C 18.99,13.37 18.93,13.31 18.86,13.31 C 18.80,13.31 18.74,13.37 18.74,13.44 z" id="p3722" style="fill:#1d1d1d;fill-opacity:1;fill-rule:evenodd;stroke:none;marker:none;visibility:visible;display:inline;overflow:visible;enable-background:accumulate"/>
<path d="M 19.85,13.50 C 19.85,13.57 19.89,13.62 19.95,13.62 C 20.00,13.62 20.04,13.57 20.04,13.50 C 20.04,13.43 20.00,13.38 19.95,13.38 C 19.89,13.38 19.85,13.43 19.85,13.50 z" id="p3724" style="fill:#1d1d1d;fill-opacity:1;fill-rule:evenodd;stroke:none;marker:none;visibility:visible;display:inline;overflow:visible;enable-background:accumulate"/>
<path d="M 18.07,13.42 C 18.04,13.48 18.05,13.55 18.10,13.57 C 18.15,13.60 18.22,13.57 18.24,13.51 C 18.27,13.45 18.26,13.38 18.21,13.35 C 18.16,13.33 18.10,13.36 18.07,13.42 z" id="p3726" style="fill:#1d1d1d;fill-opacity:1;fill-rule:evenodd;stroke:none;marker:none;visibility:visible;display:inline;overflow:visible;enable-background:accumulate"/>
<path d="M 24.12,14.88 C 23.73,14.97 23.32,15.61 22.96,16.53 L 23.56,16.50 L 23.56,16.66 L 24.75,16.69 L 24.75,16.50 L 25.28,16.57 C 24.89,15.58 24.48,14.93 24.12,14.88 z" id="p3750" style="fill:#000000;fill-opacity:1;fill-rule:evenodd;stroke:none;display:inline"/>
<path d="M 23.77,15.95 L 23.77,16.19" id="p3760" style="fill:none;fill-rule:evenodd;stroke:#d3d3d3;stroke-width:0.30;stroke-linecap:round;stroke-linejoin:miter;stroke-miterlimit:4;stroke-dasharray:none;stroke-opacity:1"/>
<path d="M 24.13,15.95 L 24.13,16.19" id="p3764" style="fill:none;fill-rule:evenodd;stroke:#d3d3d3;stroke-width:0.30;stroke-linecap:round;stroke-linejoin:miter;stroke-miterlimit:4;stroke-dasharray:none;stroke-opacity:1;display:inline"/>
<path d="M 24.49,15.95 L 24.49,16.19" id="p3766" style="fill:none;fill-rule:evenodd;stroke:#d3d3d3;stroke-width:0.30;stroke-linecap:round;stroke-linejoin:miter;stroke-miterlimit:4;stroke-dasharray:none;stroke-opacity:1;display:inline"/>
<path d="M 22.63,17.64 C 23.28,17.37 24.89,17.27 25.64,17.63" id="p3768" style="fill:none;fill-rule:evenodd;stroke:#000000;stroke-width:0.2;stroke-linecap:butt;stroke-linejoin:miter;stroke-miterlimit:4;stroke-dasharray:none;stroke-opacity:1"/>
<path d="M 23.49,19.41 L 23.49,19.58 L 24.85,19.59 L 24.83,19.41 L 25.21,19.75 C 25.21,19.75 25.21,19.97 25.30,20.09 C 25.39,20.20 25.68,20.21 25.68,20.21 L 25.69,19.65 L 25.44,19.33 L 24.18,18.66 L 22.85,19.33 L 22.60,19.67 L 22.57,20.22 C 22.57,20.22 22.90,20.29 23.01,20.15 C 23.11,20.01 23.15,19.69 23.15,19.69 L 23.49,19.41 z" id="p3770" style="fill:#2f2f2f;fill-opacity:1;fill-rule:evenodd;stroke:none;"/>
<path d="M 24.08,21.01 C 24.08,21.17 23.96,21.30 23.81,21.30 C 23.66,21.30 23.53,21.17 23.53,21.01 C 23.53,20.86 23.66,20.73 23.81,20.73 C 23.96,20.73 24.08,20.86 24.08,21.01 z" id="p3772" style="fill:#1a2130;fill-opacity:1;fill-rule:evenodd;stroke:none;marker:none;visibility:visible;display:inline;overflow:visible;enable-background:accumulate"/>
<path d="M 24.75,21.01 C 24.75,21.17 24.63,21.30 24.48,21.30 C 24.33,21.30 24.21,21.17 24.21,21.01 C 24.21,20.85 24.33,20.72 24.48,20.72 C 24.63,20.72 24.75,20.85 24.75,21.01 z" id="p3774" style="fill:#1a2130;fill-opacity:1;fill-rule:evenodd;stroke:none;marker:none;visibility:visible;display:inline;overflow:visible;enable-background:accumulate"/>
</g>
</svg>
