<?xml version="1.0" encoding="UTF-8" standalone="no"?>
<!DOCTYPE svg PUBLIC "-//W3C//DTD SVG 1.0//EN" "http://www.w3.org/TR/2001/REC-SVG-20010904/DTD/svg10.dtd">
<svg xmlns:svg="http://www.w3.org/2000/svg" xmlns="http://www.w3.org/2000/svg" version="1.0" width="100%" height="100%" viewBox="0 0 48 48" id="_earth01" style="display:inline">
<defs id="defs2818"/>
<g id="earth01" style="display:inline">
<path d="M 45.90,24.10 C 45.90,35.97 36.29,45.60 24.43,45.60 C 12.58,45.60 2.97,35.97 2.97,24.10 C 2.97,12.23 12.58,2.60 24.43,2.60 C 36.29,2.60 45.90,12.23 45.90,24.10 L 45.90,24.10 z" id="p2901" style="fill:#3391e7;fill-opacity:1;fill-rule:evenodd;stroke:none;marker:none;visibility:visible;display:inline;overflow:visible;enable-background:accumulate"/>
<path d="M 12.65,6.15 C 6.82,10 2.97,16.63 2.97,24.15 C 2.97,24.81 3,25.46 3.06,26.11 C 4.76,30.2 5.52,33.01 5.9,34.95 C 9.63,41.35 16.57,45.66 24.52,45.66 C 25.82,45.66 27.06,45.54 28.3,45.32 C 26.9,45.2 25.62,45.07 27.02,44.79 C 28.4,44.52 29.38,44.6 30.2,44.88 C 37.14,43 42.67,37.76 44.93,31 C 43.76,32.01 43.45,32.22 42.65,31.56 C 41.77,30.82 42.26,29.26 41.59,29.19 C 40.93,29.12 39.24,27.94 40.13,24.98 C 41.01,22.02 40.27,22.04 39.17,21.67 C 38.06,21.3 36.46,24.85 36.46,25.67 C 36.46,26.48 37.32,27.79 37.17,28.6 C 37.03,29.41 35.86,28.77 36.08,29.88 C 36.3,30.99 35.78,29.51 35.12,29.73 C 34.46,29.95 34.23,32.03 33.94,34.1 C 33.65,36.17 32.39,38.09 32.32,36.91 C 32.2,35.72 31.16,36.23 32.5,34.75 C 33.83,33.27 33.53,31.28 33.53,29.5 C 33.53,27.73 32.89,27.29 32.44,25.88 C 32,24.48 32.63,24.01 31.98,23.42 C 31.32,22.83 31.41,22.56 30.67,21.67 C 29.93,20.79 29.63,21.14 28.52,21.36 C 27.41,21.58 26.39,20.7 27.43,21.57 C 28.46,22.45 27.62,22.46 27.18,23.94 C 26.74,25.42 25.27,26.99 24.75,27.06 C 24.24,27.13 23.13,30 22.75,30.74 C 22.38,31.48 19.88,32.74 19.5,33.7 C 19.13,34.66 19.5,35.53 19.93,36.41 C 20.37,37.29 20.01,38.43 19.87,39.47 C 19.73,40.5 18.6,39.97 18.16,39.97 C 17.72,39.97 19.2,41.88 18.91,43.22 C 18.62,44.55 17.89,43.16 17.23,42.79 C 16.52,42.44 15.25,42.88 13.62,42 C 11.99,41.11 9.78,38.15 8.96,36.53 C 8.15,34.9 8.67,34.66 8.15,33.62 C 7.63,32.58 7.78,31.77 7.34,31.03 C 6.89,30.29 7.16,29.78 7.09,28.96 C 7.01,28.15 6.38,27.79 5.93,26.68 C 5.49,25.57 6.43,31.27 4.06,26.09 C 1.69,20.91 6.07,15.5 6.59,15.06 C 7.11,14.61 8.28,12.18 8.87,11.21 C 9.46,10.25 9.99,11.41 10.37,11.12 C 10.74,10.83 10.3,10.08 10.37,9.34 C 10.42,8.77 11.26,7.6 12.65,6.16 L 12.65,6.15 z M 25.68,33.87 C 26.71,33.8 27.38,35.1 27.89,35.62 C 28.4,36.13 29.44,36 29.07,36.15 C 28.7,36.29 29.44,36.96 28.64,37.33 C 27.83,37.7 29.07,38.58 28.49,38.36 C 28.15,38.24 27.52,38.92 27.15,39.39 C 27.15,39.44 27.11,39.5 27.03,39.6 C 26.76,39.93 26.9,39.71 27.15,39.39 C 27.19,38.99 25.64,39.5 26.87,38.8 C 28.27,37.99 27.83,37.4 27.68,36.59 C 27.54,35.78 26.29,34.82 25.03,34.38 C 24.89,34.24 24.82,35.28 24.82,35.28 C 24.82,35.28 24.44,35.63 24.29,35.34 C 24.15,35.05 24.65,33.95 25.69,33.88 L 25.68,33.87 z" id="p2903" style="fill:#1c3d6a;fill-opacity:0.63;stroke:none;display:inline"/>
<path d="M 3.06,22.25 C 3.01,22.87 2.97,23.51 2.97,24.15 C 2.97,24.98 3.03,25.8 3.12,26.61 C 3.94,27.87 4.29,28.76 4.46,29.64 C 4.43,29.44 4.55,29.31 5.08,29.39 C 6.48,29.61 6.8,29.76 6.14,28.58 C 5.48,27.4 5.7,26.22 4.96,26.81 C 4.36,27.29 3.53,26.49 3.06,22.25 z M 4.46,29.65 C 4.47,29.74 4.5,29.83 4.52,29.93 C 4.75,31.41 6,32.46 6,34.09 C 6,34.41 6.02,34.8 6.03,35.18 C 6.89,36.62 7.92,37.95 9.09,39.14 C 8.93,38.36 8.85,37.8 8.5,37.4 C 7.9,36.73 8.21,36.59 8.65,36.81 C 9.1,37.03 9.12,36 8.75,34.75 C 8.37,33.49 8.94,37.79 8.28,35.5 C 7.61,33.2 6.89,33.33 6.75,31.78 C 6.6,30.22 5.85,30.9 5.4,30.68 C 5.12,30.54 4.53,29.99 4.46,29.65 z" id="p2906" style="fill:#020511;fill-opacity:0.46;stroke:none;display:inline"/>
<path d="M 20.03,32.99 C 19.1,35.06 20.16,35.73 20.03,36.6 C 19.9,37.47 19.63,38.2 20.09,38.4 C 20.55,38.6 21.83,38 22.36,37.47 C 22.89,36.94 23.23,36.87 23.43,37.34 C 23.63,37.8 23.43,39.41 23.03,40.22 C 22.63,41.02 22.03,40.88 22.83,41.69 C 23.63,42.49 24.77,43.02 25.44,42.76 C 26.1,42.5 30.53,41.09 30.46,40.62 C 30.4,40.16 27.45,40.49 27.52,39.89 C 27.58,39.29 28.32,37.62 27.85,36.88 C 27.39,36.15 26.25,34.07 25.44,34.47 C 24.64,34.87 24.44,33.94 24.91,33.94 C 25.37,33.94 25.84,33.28 26.51,33.94 C 27.17,34.6 27.31,33.28 28.05,33.61 C 28.78,33.94 29.18,33.08 29.92,32.81 C 30.65,32.55 29.98,33.47 28.52,31.27 C 27.05,29.06 27.05,29.13 26.65,28.53 C 26.25,27.93 26.98,27.13 27.85,28.07 C 28.72,29 29.99,30.21 30.46,30.01 C 30.92,29.81 32.53,29.28 32.53,28.68 C 32.53,28.08 32.27,24.46 32.47,23.79 C 32.67,23.13 31.27,24.19 30.33,21.25 C 29.4,18.31 28.39,21.58 27.32,21.25 C 26.25,20.92 28.25,21.58 27.85,22.32 C 27.45,23.05 26.92,23.86 26.98,24.32 C 27.04,24.78 26.25,24.52 25.78,24.45 C 25.32,24.39 25.65,24.85 25.25,25.32 C 24.85,25.78 26.45,24.99 26.58,25.65 C 26.71,26.31 27.18,26.18 25.58,26.11 C 23.98,26.05 24.65,28.25 24.04,28.85 C 23.44,29.45 20.96,31.39 20.03,33 L 20.03,32.99 z" id="p3829" style="fill:#081225;fill-opacity:0.23;stroke:none;display:inline"/>
<path d="M 9.09,36.96 C 8.8,37.55 9.16,38.05 9.46,38.42 C 9.69,38.71 9.15,38.1 9.43,39.48 C 11.89,41.89 14.94,43.74 18.33,44.76 C 18.45,44.51 18.66,44.3 19.01,44.3 C 19.82,44.3 20.04,43.78 20.41,43.93 C 20.78,44.07 21.82,43.78 21.16,43.18 C 20.5,42.59 18.94,42.01 18.57,41.34 C 18.2,40.68 19.15,42.5 19,43.02 C 18.86,43.53 18.62,44.27 17.66,43.83 C 16.7,43.39 16.03,44.27 15.88,43.62 C 15.74,42.96 15.88,42.51 14.7,42.44 C 13.52,42.37 10.79,40.07 10.27,38.66 C 9.76,37.26 9.16,36.9 9.09,36.98 L 9.09,36.96 z" id="p2909" style="fill:#020511;fill-opacity:0.46;fill-rule:nonzero;stroke:none;marker:none;visibility:visible;display:inline;overflow:visible;enable-background:accumulate"/>
<path d="M 24.72,28.38 C 23.61,29.04 23.39,29.41 23.61,29.86 C 23.83,30.3 23.98,30.74 23.32,31.78 C 22.66,32.81 22.81,34.37 23.1,34.81 C 23.39,35.25 24.28,35.03 24.28,35.03 C 24.28,35.03 24.42,32.15 24.94,32.44 C 25.45,32.73 25.75,31.26 26.27,31.26 C 26.78,31.26 25.24,30.38 25.61,30.23 C 25.98,30.09 26.42,30.01 26.42,30.01 C 26.42,30.01 25.98,29.13 25.68,28.68 C 25.39,28.24 24.57,28.46 24.72,28.39 L 24.72,28.38 z" id="p2918" style="fill:#020511;fill-opacity:0.27;fill-rule:nonzero;stroke:none;marker:none;visibility:visible;display:inline;overflow:visible;enable-background:accumulate"/>
<path d="M 41.59,29.4 C 41.59,29.4 41.9,30.88 41.47,31.55 C 41.03,32.21 39.54,32.14 39.54,32.14 C 39.54,32.14 38.82,31.54 38.08,32.42 C 37.34,33.3 37.33,33.26 37.33,33.26 L 37.48,32.14 L 34.23,32.89 C 34.23,35.18 32.97,36.28 32.89,36.95 C 32.82,37.61 32.23,37.85 32.89,38.07 C 33.55,38.29 35.7,37.01 35.1,37.61 C 34.51,38.2 33.79,38.42 34.23,38.79 C 34.67,39.16 35.47,39.47 35.91,39.1 C 36.35,38.73 37.83,37.25 37.69,37.92 C 37.53,38.6 36.78,40 36.78,40 C 36.78,40 38.34,39.57 38.93,39.13 C 39.49,38.71 40.81,36.76 38.96,40.09 C 41.58,37.72 43.63,34.73 44.83,31.31 C 44.04,31.78 43.11,32.24 42.87,31.87 C 42.43,31.21 42.58,31.35 42.28,30.69 C 41.99,30.03 41.6,29.41 41.6,29.41 L 41.59,29.4 z" id="p2921" style="fill:#020511;fill-opacity:0.33;fill-rule:nonzero;stroke:none;marker:none;visibility:visible;display:inline;overflow:visible;enable-background:accumulate"/>
<path d="M 39.53,31.71 C 39.24,33.93 38.2,37.18 37.54,38.44 C 36.88,39.69 35.55,41.62 35.55,41.62 C 35.55,41.62 35.84,40.81 37.4,40.29 C 38.95,39.78 39.99,38.15 40.36,37.78" id="p2915" style="fill:none;stroke:#4b9de9;stroke-width:0.40;stroke-linecap:round;stroke-linejoin:round;stroke-miterlimit:4;stroke-dasharray:none;stroke-opacity:0.7;display:inline"/>
<path d="M 24.72,40.52 C 24.35,40.66 23.24,40.81 23.02,41.33 C 22.8,41.84 23.83,42.21 23.53,42.21 C 23.24,42.21 22.05,42.72 23.16,42.72 C 24.27,42.72 25.6,42.21 25.89,42.35 C 26.18,42.49 26.85,43.09 26.11,43.68 C 25.37,44.27 25.37,44.19 26.25,44.56 C 27.13,44.93 28.76,44.7 28.24,43.75 C 27.73,42.79 26.91,43.31 28.02,42.42 C 29.13,41.54 28.98,41.83 27.8,41.24 C 26.62,40.65 26.92,41.24 25.73,41.31 C 24.55,41.38 25.22,40.94 24.7,40.5 L 24.72,40.52 z" id="p3803" style="fill:#081225;fill-opacity:0.45;stroke:none;display:inline"/>
<path d="M 24.43,23.56 C 24.5,26.22 24.87,26.6 25.61,27.12 C 26.35,27.63 25.53,28.75 26.86,29.71 C 28.19,30.67 30.32,30.6 30.54,32.08 C 30.76,33.56 31.35,34.72 30.33,35.98 C 29.3,37.23 28.42,37.62 28.87,38.51 C 29.31,39.39 31.37,39.82 30.55,40.41 C 29.74,41 29.82,40.88 28.34,41.47 C 26.86,42.06 27.1,42.57 25.47,43.09 C 24.09,43.53 18.55,43.95 18.6,44.8 C 20.48,45.33 22.48,45.64 24.53,45.64 C 26.55,45.64 28.48,45.35 30.34,44.83 C 29.51,44.7 28.2,44.55 27.16,44.83 C 25.52,45.31 24.88,44.82 23.62,44.75 C 22.36,44.67 24.37,44.59 26,44 C 27.62,43.41 29.02,41.63 30.28,41.63 C 31.53,41.63 32.27,41.63 32.12,42.22 C 32.01,42.66 30.67,43.99 31.09,44.65 C 34.04,43.71 36.71,42.1 38.96,40.06 C 38.08,40.03 37,40.1 36.34,40.65 C 35.09,41.68 33.62,43.91 32.44,40.44 C 31.26,36.97 29.4,39.94 31.91,35.94 C 34.42,31.95 33.62,28.84 33.25,27.88 C 32.88,26.92 33.1,27.66 32.29,28.91 C 31.48,30.16 30.37,30.23 29.26,28.97 C 28.15,27.72 28.51,25.65 26.95,25.13 C 25.4,24.62 24.9,24.31 24.45,23.57 L 24.43,23.56 z" id="p3800" style="fill:#70aeeb;fill-opacity:0.13;stroke:none;display:inline"/>
<path d="M 31.88,37.54 C 33.01,36.41 34.22,33.93 34.29,32.72 C 34.35,31.52 34.95,28.91 35.36,29.38 C 35.76,29.84 36.23,31.18 36.16,30.18 C 36.1,29.18 35.7,27.57 36.1,28.24 C 36.5,28.9 37.43,29.04 37.37,28.3 C 37.31,27.57 36.44,26.5 36.44,25.96 C 36.44,25.43 36.77,23.75 37.31,23.55 C 37.84,23.35 39.58,24.68 39.98,24.35 C 40.38,24.02 39.65,25.95 40.11,26.49 C 40.57,27.02 40.64,28.56 41.31,28.83 C 41.97,29.09 41.91,29.76 41.57,30.9 C 41.24,32.03 41.9,32.84 41.11,34.31 C 40.31,35.78 38.9,37.39 38.3,38.46 C 37.7,39.53 35.89,41.94 35.29,41.74 C 34.69,41.54 34.49,40.34 33.22,39.8 C 31.95,39.27 31.89,39.6 31.62,38.6 C 31.36,37.6 31.88,37.67 31.88,37.53 L 31.88,37.54 z" id="p3832" style="fill:#081225;fill-opacity:0.28;stroke:none;display:inline"/>
<path d="M 28.59,3.71 C 28.01,3.78 27.62,4.31 27.62,4.31 L 26.84,4.37 C 26.84,4.37 26.31,4.17 26.31,4.55 C 26.31,4.93 25.75,4.95 25.75,4.95 C 25.75,4.95 24.19,4.62 25.1,4.3 C 26,3.98 26.18,3.66 24.57,4.24 C 22.95,4.82 25.6,4.82 25.47,5.02 C 25.35,5.21 24.05,5.4 23.72,5.2 C 23.39,5.02 23.13,5.52 22.87,5.65 C 22.61,5.78 21.46,6.44 21.46,6.12 C 21.46,5.86 21.36,5.67 21.31,5.59 C 21.41,5.7 21.66,5.95 22.15,5.8 C 22.79,5.61 22.68,5.35 21.78,5.02 C 20.88,4.7 19.33,4.7 18.88,5.02 C 18.42,5.35 17.44,5.93 17.18,6 C 16.92,6.06 16,6.37 16,6.37 L 15.22,7.15 C 15.22,7.15 15.87,7.29 15.93,7.55 C 15.99,7.8 15.69,8.18 16.39,7.92 C 17.1,7.67 17.67,7.02 17.67,7.02 C 17.67,7.02 17.29,6.75 17.61,6.56 C 17.93,6.37 19.48,5.59 19.54,5.72 C 19.6,5.84 18.65,6.05 18.45,6.37 C 18.26,6.69 18.2,7.15 18.2,7.15 L 19.41,7.15 L 18.2,7.33 C 18.2,7.33 18.46,7.66 18.14,7.86 C 17.82,8.05 18.07,7.92 17.61,7.86 C 17.16,7.8 17.09,8.51 16.83,8.51 L 16.05,8.51 C 16.05,8.51 15.37,9.02 15.37,8.63 C 15.37,8.26 14.77,8.44 14.9,8.25 C 15.03,8.05 15.76,7.94 15.37,7.75 C 14.98,7.55 14.97,8.18 14.71,8.31 C 14.45,8.44 14.07,8.58 13.68,8.71 C 13.29,8.84 12.5,9.43 12.25,9.43 C 11.99,9.43 11.73,9.87 11.4,9.75 C 11.08,9.62 10.96,9.7 11.09,10.15 C 11.22,10.61 10.5,11.12 10.5,11.12 C 10.5,11.12 9.92,11.82 9.66,11.43 C 9.39,11.04 9.45,10.85 8.93,11.5 C 8.41,12.14 8.03,12.74 7.9,13 C 7.78,13.25 8.02,13.78 8.02,13.78 C 8.02,13.78 8.4,13.78 8.86,13.66 C 9.31,13.54 9.24,12.54 9.89,12.48 C 10.53,12.42 10.49,11.58 11.01,11.64 C 11.52,11.7 11.79,11.98 11.79,11.98 C 11.79,11.98 12.29,10.93 12.22,12.35 C 12.16,13.77 12.81,12.72 12.87,13.5 C 12.93,14.27 12.86,13.31 13.18,13.44 C 13.5,13.56 13.13,13.12 12.87,12.6 C 12.62,12.09 12.86,11.19 13.18,11.32 C 13.5,11.44 13.26,11.83 13.52,12.16 C 13.77,12.48 14.14,12.48 14.02,12.94 C 13.9,13.39 13.78,12.98 13.71,13.37 C 13.65,13.75 14.15,13.76 14.02,14.15 C 13.9,14.53 13.71,14.48 13.9,14.8 C 14.09,15.12 14.22,14.93 14.61,14.68 C 14.99,14.43 14.21,13.76 15.11,13.5 C 16.01,13.25 15.64,13.89 15.57,14.28 C 15.51,14.66 15.44,14.85 15.69,15.24 C 15.94,15.62 16.26,15.26 16.65,15.39 C 17.03,15.51 17.36,15.64 17.36,15.64 C 17.36,15.64 18.45,14.87 18.39,15.58 C 18.33,16.29 17.74,16.79 17.74,16.79 L 17.56,17.63 C 17.56,17.63 16.08,17.95 15.56,17.69 C 15.05,17.44 13.63,17.18 13.63,16.85 C 13.63,16.53 13.25,16.22 12.79,16.54 C 12.34,16.86 12.54,17.64 11.89,17.25 C 11.28,16.89 11.66,16.69 11.34,16.37 C 11.01,16.05 10.43,16.36 10.43,15.84 C 10.43,15.33 10.73,15.39 10.86,15 C 10.98,14.62 10.86,14.22 10.86,14.22 C 10.86,14.22 10.16,14.54 9.77,14.16 C 9.39,13.78 8.76,14.34 8.37,14.28 C 7.99,14.22 7.84,13.91 7.84,13.91 C 7.84,13.91 7.64,14.56 7.25,14.69 C 6.86,14.81 6.6,15.07 6.34,15.59 C 6.08,16.11 5.51,16.1 5.12,16.75 C 4.73,17.39 4.26,17.99 3.81,20 C 3.55,21.42 3.49,22.98 3.62,23.5 C 3.74,24.01 3.8,25.17 3.87,25.5 C 3.93,25.82 4.51,25.95 4.71,26.28 C 4.9,26.6 5.25,26.65 5.71,26.59 C 6.16,26.53 6.42,26.48 6.55,27.05 C 6.67,27.63 7.45,27.31 7.45,28.73 C 7.45,30.15 7.49,30.67 7.88,31.32 C 8.26,31.96 8.71,32.42 8.84,32.94 C 8.96,33.45 9.37,34.81 9.37,34.81 C 9.37,34.81 9.03,35.11 9.09,35.24 C 9.15,35.36 9.1,36.48 9.43,36.67 C 9.75,36.86 10.19,37.52 10.52,38.1 C 10.84,38.68 11.89,39.91 12.67,40.69 C 13.44,41.46 13.88,41.9 14.07,41.97 C 14.26,42.03 15.24,41.91 15.57,42.09 C 15.89,42.28 16.27,41.78 16.66,41.72 C 17.04,41.66 17.06,41.08 17.19,40.82 C 17.31,40.57 18.03,40.42 18.03,40.42 C 18.03,40.42 16.92,39.47 17.38,39.21 C 17.83,38.96 18.99,38.44 19.25,38.37 C 19.5,38.31 19.19,38.24 19.25,37.59 C 19.31,36.95 19.26,36.29 18.94,36.09 C 18.62,35.9 18.03,34.86 18.29,34.41 C 18.54,33.96 19.4,33.21 19.66,32.82 C 19.91,32.44 20.81,31.85 21.59,31.26 C 22.36,30.68 23.71,28.03 23.77,27.64 C 23.83,27.26 23.86,26.91 23.09,27.24 C 22.32,27.56 20.76,27.71 20.5,27.58 C 20.3,27.46 20.28,26.81 20.28,26.81 L 18.93,25.25 C 18.93,25.25 18.66,25.44 18.53,24.35 C 18.41,23.25 17.82,23.91 17.69,22.48 C 17.55,21.04 17.06,20.25 17.06,20.25 L 16.53,18.44 L 17.06,19.4 L 17.37,19.09 C 17.37,19.09 17.89,19.85 17.96,20.24 C 18.02,20.62 18.08,21.08 18.08,21.08 C 18.08,21.08 18.86,21.28 18.73,21.54 C 18.61,21.79 18.58,22.44 18.58,22.44 C 18.58,22.44 19.35,23.52 19.54,23.84 C 19.73,24.16 20.07,25.2 20.07,25.59 C 20.07,25.97 20.53,26.65 20.53,26.65 L 22.84,25.94 L 24.52,25.29 C 24.52,25.29 24.4,24.9 25.23,24.7 C 26.07,24.51 26.26,24.08 26.26,24.08 C 26.26,24.08 26.52,23.55 26.85,23.62 C 27.17,23.68 26.39,23.17 27.16,22.66 C 27.99,22.13 27.62,22 27.62,22 L 27.16,21.41 C 27.16,21.41 26.2,21.17 26.2,20.91 C 26.2,20.66 26.01,20.39 25.42,20.97 C 24.84,21.55 24.14,21.15 24.14,21.15 L 24.06,20.31 C 24.06,20.31 23.61,20.21 23.22,19.75 C 22.82,19.29 22.54,18.75 23,18.62 C 23.45,18.5 23.58,19.01 23.84,19.27 C 24.09,19.52 25.34,20.23 25.34,20.23 L 26.12,20.05 L 26.9,20.64 C 26.9,20.64 28.63,20.7 29.15,20.64 C 29.66,20.58 30.4,20.1 31.11,21.32 C 31.82,22.55 32.01,22.04 32.79,22.63 C 33.56,23.21 33.61,24.63 34,25.34 C 34.38,26.05 34.98,27.67 35.37,27.93 C 35.75,28.18 36.33,26.63 36.4,26.37 C 36.46,26.12 36.02,24.76 36.34,24.5 C 36.66,24.25 38.34,21.64 38.34,21.38 C 38.34,21.13 39.52,20.37 39.71,20.76 C 39.9,21.14 40.35,21.46 40.55,21.91 C 40.74,22.36 40.61,22.87 40.61,22.87 L 41.11,23.21 L 41.57,23 C 41.57,23 42.26,23.78 42.13,24.62 C 42.01,25.46 42.03,26.04 42.22,26.3 C 42.41,26.55 42.72,26.24 42.72,27.2 C 42.72,28.17 43.12,28.38 43.18,28.45 C 43.24,28.51 43.3,27.8 43.3,27.8 L 43.12,26.65 L 42.53,25.94 L 42.41,23.85 L 42.47,23.6 C 42.47,23.6 42.9,24.05 43.03,24.31 C 43.22,24.6 43.62,25 43.62,25 C 43.62,25 44.21,24.15 44.21,23.69 C 44.21,23.24 43.95,22.02 43.62,21.63 C 43.3,21.25 42.97,21.16 42.97,20.45 C 42.97,19.74 43.43,19.94 43.56,19.49 C 43.68,19.04 44.2,17.62 43.62,15.87 C 43.04,14.09 42,13.58 41.75,12.93 C 41.49,12.28 40.96,11.75 40.96,11.75 L 41.62,11.81 L 40.93,10.25 C 38.47,7.34 35.26,5.09 31.59,3.81 L 31.25,3.96 C 31.25,3.96 30.27,4.08 29.88,3.96 C 29.5,3.84 29.19,3.65 28.6,3.71 L 28.59,3.71 z M 23.88,11.39 C 24.13,11.35 24.34,11.44 24.5,11.6 C 24.82,11.92 24.2,11.94 24,12 C 23.81,12.06 23.93,12.7 24.31,13.03 C 24.69,13.35 24.36,13.94 24.62,13.68 C 24.87,13.43 25.21,13.61 25.27,13.86 C 25.33,14.11 24.48,13.85 24.81,14.17 C 25.13,14.49 25.28,15.47 25.02,15.67 C 24.77,15.86 24.11,15.62 23.59,15.42 C 23.08,15.23 22.89,14.95 23.28,14.36 C 23.66,13.78 23.32,13.81 23.07,13.61 C 22.82,13.42 22.56,12.9 22.89,12.05 C 23.31,11.6 23.63,11.41 23.89,11.37 L 23.88,11.39 z M 18.06,11.5 C 18.53,11.45 18.53,11.92 18.59,12.15 C 18.65,12.4 19.3,12.15 19.3,12.15 C 19.3,12.15 18.4,12.08 19.36,11.62 C 20.33,11.17 19.32,12.01 19.76,12.27 C 20.23,12.54 21,12.86 21,13.18 C 21,13.5 20.24,13.77 19.72,13.64 C 19.21,13.52 18.67,13.44 18.41,13.11 C 18.16,12.79 18.28,13.16 17.63,13.36 C 16.99,13.55 16.73,13.23 16.6,13.48 C 16.48,13.73 16.55,13.95 16.42,13.88 C 16.42,13.88 16.47,13.5 16.67,13.04 C 16.86,12.59 17.11,11.8 17.82,11.54 C 17.9,11.51 18,11.49 18.07,11.48 L 18.06,11.5 z" id="p3835" style="fill:#f2d9a5;fill-opacity:1;stroke:none;display:inline"/>
<path d="M 17.96,19.21 C 17.8,19.21 17.69,19.32 17.62,19.5 C 17.76,19.75 17.92,20.03 17.96,20.25 C 18.02,20.63 18.08,21.09 18.08,21.09 C 18.08,21.09 18.86,21.29 18.73,21.55 C 18.61,21.8 18.58,22.45 18.58,22.45 C 18.58,22.45 19.35,23.53 19.54,23.85 C 19.73,24.17 20.07,25.21 20.07,25.6 C 20.07,25.98 20.53,26.66 20.53,26.66 L 21.87,26.26 C 21.64,25.95 21.46,25.72 21.12,25.31 C 20.58,24.65 20.49,23.62 20.06,23.31 C 19.64,23.01 20.44,21.95 19.72,22.31 C 18.99,22.67 19.41,22.15 19.41,20.81 C 19.41,19.48 20.27,20.39 20.03,19.72 C 19.79,19.06 19.54,20.63 18.69,19.72 C 18.38,19.38 18.14,19.23 17.98,19.22 L 17.96,19.21 z M 3.84,19.87 C 3.83,19.92 3.82,19.95 3.81,20 C 3.55,21.42 3.49,22.98 3.62,23.5 C 3.74,24.01 3.8,25.17 3.87,25.5 C 3.93,25.82 4.51,25.95 4.71,26.28 C 4.9,26.6 5.25,26.65 5.71,26.59 C 6.16,26.53 6.42,26.48 6.55,27.05 C 6.67,27.63 7.45,27.31 7.45,28.73 C 7.45,30.15 7.49,30.67 7.88,31.32 C 8.26,31.96 8.71,32.42 8.84,32.94 C 8.96,33.45 9.37,34.81 9.37,34.81 C 9.37,34.81 9.03,35.11 9.09,35.24 C 9.15,35.36 9.1,36.48 9.43,36.67 C 9.75,36.86 10.19,37.52 10.52,38.1 C 10.55,38.17 10.64,38.26 10.7,38.35 C 10.48,36.45 11.12,37.22 11.45,38.04 C 11.81,38.95 13.75,39.1 14.48,39.35 C 15.21,39.59 13.57,39.43 14.36,40.1 C 15.15,40.76 15.51,40.89 15.64,41.56 C 15.68,41.82 15.8,41.94 16.01,42.02 C 16.22,41.91 16.44,41.75 16.66,41.71 C 17.04,41.65 17.06,41.07 17.19,40.81 C 17.31,40.56 18.03,40.41 18.03,40.41 C 18.03,40.41 16.92,39.46 17.38,39.2 C 17.83,38.95 18.99,38.43 19.25,38.36 C 19.5,38.3 19.19,38.23 19.25,37.58 C 19.31,36.94 19.26,36.28 18.94,36.08 C 18.62,35.89 18.03,34.85 18.29,34.4 C 18.54,33.95 19.4,33.2 19.66,32.81 C 19.83,32.55 20.34,32.17 20.87,31.78 C 20.88,31.62 20.92,31.37 20.93,31.25 C 20.99,29.92 21.34,30.32 20.43,30.44 C 19.52,30.56 18.85,30.86 19.15,30.5 C 19.45,30.14 19.64,29.31 19.58,28.88 C 19.52,28.46 20.84,29.52 20.42,29.09 C 20.02,28.69 20.32,28.18 20.6,27.56 C 20.57,27.56 20.5,27.56 20.48,27.56 C 20.3,27.46 20.28,26.81 20.28,26.81 L 18.93,25.25 C 18.93,25.25 18.66,25.44 18.53,24.35 C 18.46,23.74 18.25,23.67 18.06,23.5 C 17.99,23.88 17.94,24.41 17.94,24.81 C 17.94,25.66 17.58,25.54 16.85,24.81 C 16.12,24.08 15.66,25.06 15.48,25.43 C 15.3,25.79 15.94,27.05 15.63,26.93 C 15.33,26.81 14.81,25.92 14.32,26.4 C 13.84,26.88 12.65,27.06 12.11,26.15 C 11.57,25.24 9.1,25.38 8.61,25.44 C 8.1,25.49 6.45,24.51 6.03,23.84 C 5.6,23.17 5.1,24.22 4.43,23.18 C 3.95,22.44 3.86,21.72 3.84,19.87 z" id="p3869" style="fill:#8a7a56;fill-opacity:0.51;stroke:none;display:inline"/>
<path d="M 3.75,24.34 C 3.8,24.81 3.83,25.3 3.87,25.49 C 3.93,25.81 4.51,25.94 4.71,26.27 C 4.9,26.59 5.25,26.64 5.71,26.58 C 6.16,26.52 6.42,26.47 6.55,27.04 C 6.67,27.62 7.45,27.3 7.45,28.72 C 7.45,30.14 7.49,30.66 7.88,31.31 C 8.26,31.95 8.71,32.41 8.84,32.93 C 8.96,33.44 9.37,34.8 9.37,34.8 C 9.37,34.8 9.32,34.85 9.28,34.89 C 12,37.82 12.79,36.52 13.84,36.64 C 14.99,36.76 14.08,37.73 14.87,37.67 C 15.66,37.61 15.3,36.84 16.27,39.26 C 16.68,40.28 17.06,40.62 17.36,40.66 C 17.47,40.59 17.59,40.55 17.73,40.51 C 17.78,40.43 17.8,40.32 17.82,40.2 C 17.55,39.94 17.03,39.41 17.39,39.2 C 17.84,38.95 19,38.43 19.26,38.36 C 19.51,38.3 19.2,38.23 19.26,37.58 C 19.32,36.94 19.27,36.28 18.95,36.08 C 18.63,35.89 18.04,34.85 18.3,34.4 C 18.34,34.32 18.43,34.23 18.51,34.12 C 18.32,33.73 18.18,33.22 18.08,32.62 C 17.78,30.8 17.31,32.28 17.43,34.4 C 17.55,36.52 16.93,32.99 16.68,31.47 C 16.44,29.95 14.93,31.17 14.56,30.44 C 14.2,29.71 13.36,29.54 12.69,29.41 C 12.03,29.29 12.15,29.07 11.66,27.73 C 11.18,26.4 11.11,28.27 11.48,28.76 C 11.84,29.24 11.47,30.59 9.83,29.01 C 8.2,27.44 8.2,27.81 7.65,27.87 C 7.1,27.93 6.73,27 6.31,26.09 C 5.88,25.18 5.28,25.92 4.43,25.31 C 4.09,25.06 3.92,24.74 3.75,24.34 z" id="p3872" style="fill:#667942;fill-opacity:0.55;stroke:none;display:inline"/>
<path d="M 8.12,27.56 C 7.94,27.57 7.73,27.7 7.43,27.93 C 7.4,27.96 7.37,27.97 7.34,28 C 7.4,28.17 7.46,28.4 7.46,28.75 C 7.46,29.88 7.5,30.45 7.71,30.96 C 8.25,31.5 8.86,31.83 9.12,32 C 9.6,32.3 7.85,29.33 9.37,30.97 C 10.89,32.61 11.91,33.65 12.46,33.59 C 12.87,33.55 11.94,32.69 11.84,32.53 C 11.85,32.53 11.91,32.54 12.09,32.65 C 13,33.25 13.87,33.65 14.12,33.65 C 14.36,33.65 13.76,31.28 14.3,31.28 C 14.84,31.28 15.01,31.34 13.68,30.13 C 12.35,28.92 11.73,28.95 11.12,29.13 C 10.52,29.31 10.63,29.45 9.84,28.92 C 9.05,28.38 8.59,29.08 8.59,28.3 C 8.59,27.81 8.43,27.56 8.13,27.59 L 8.12,27.56 z" id="p3875" style="fill:#31461f;fill-opacity:0.22;stroke:none;display:inline"/>
<path d="M 28.59,3.71 C 28.01,3.78 27.62,4.31 27.62,4.31 L 26.84,4.37 C 26.84,4.37 26.31,4.17 26.31,4.55 C 26.31,4.93 25.75,4.95 25.75,4.95 C 25.75,4.95 24.19,4.62 25.1,4.3 C 26,3.98 26.18,3.66 24.57,4.24 C 22.95,4.82 25.6,4.82 25.47,5.02 C 25.35,5.21 24.05,5.4 23.72,5.2 C 23.39,5.02 23.13,5.52 22.87,5.65 C 22.61,5.78 21.46,6.44 21.46,6.12 C 21.46,5.86 21.36,5.67 21.31,5.59 C 21.41,5.7 21.66,5.95 22.15,5.8 C 22.79,5.61 22.68,5.35 21.78,5.02 C 20.88,4.7 19.33,4.7 18.88,5.02 C 18.42,5.35 17.44,5.93 17.18,6 C 16.92,6.06 16,6.37 16,6.37 L 15.22,7.15 C 15.22,7.15 15.87,7.29 15.93,7.55 C 15.99,7.8 15.69,8.18 16.39,7.92 C 17.1,7.67 17.67,7.02 17.67,7.02 C 17.67,7.02 17.29,6.75 17.61,6.56 C 17.93,6.37 19.48,5.59 19.54,5.72 C 19.6,5.84 18.65,6.05 18.45,6.37 C 18.26,6.69 18.2,7.15 18.2,7.15 L 19.41,7.15 L 18.2,7.33 C 18.2,7.33 18.46,7.66 18.14,7.86 C 17.82,8.05 18.07,7.92 17.61,7.86 C 17.16,7.8 17.09,8.51 16.83,8.51 L 16.05,8.51 C 16.05,8.51 15.37,9.02 15.37,8.63 C 15.37,8.26 14.77,8.44 14.9,8.25 C 15.03,8.05 15.76,7.94 15.37,7.75 C 14.98,7.55 14.97,8.18 14.71,8.31 C 14.45,8.44 14.07,8.58 13.68,8.71 C 13.29,8.84 12.5,9.43 12.25,9.43 C 11.99,9.43 11.73,9.87 11.4,9.75 C 11.08,9.62 10.96,9.7 11.09,10.15 C 11.22,10.61 10.5,11.12 10.5,11.12 C 10.5,11.12 9.92,11.82 9.66,11.43 C 9.39,11.04 9.45,10.85 8.93,11.5 C 8.41,12.14 8.03,12.74 7.9,13 C 7.78,13.25 8.02,13.78 8.02,13.78 C 8.02,13.78 8.4,13.78 8.86,13.66 C 9.31,13.54 9.24,12.54 9.89,12.48 C 10.53,12.42 10.49,11.58 11.01,11.64 C 11.52,11.7 11.79,11.98 11.79,11.98 C 11.79,11.98 12.29,10.93 12.22,12.35 C 12.16,13.77 12.81,12.72 12.87,13.5 C 12.93,14.27 12.86,13.31 13.18,13.44 C 13.5,13.56 13.13,13.12 12.87,12.6 C 12.62,12.09 12.86,11.19 13.18,11.32 C 13.5,11.44 13.26,11.83 13.52,12.16 C 13.77,12.48 14.14,12.48 14.02,12.94 C 13.9,13.39 13.78,12.98 13.71,13.37 C 13.65,13.75 14.15,13.76 14.02,14.15 C 13.9,14.53 13.71,14.48 13.9,14.8 C 14.09,15.12 14.22,14.93 14.61,14.68 C 14.99,14.43 14.21,13.76 15.11,13.5 C 16.01,13.25 15.64,13.89 15.57,14.28 C 15.51,14.66 15.44,14.85 15.69,15.24 C 15.94,15.62 16.26,15.26 16.65,15.39 C 17.03,15.51 17.36,15.64 17.36,15.64 C 17.36,15.64 18.36,14.95 18.39,15.52 C 19.33,15.11 20.08,14.97 20.6,15.49 C 21.26,16.15 20.6,16.61 21.25,17.61 C 21.77,18.39 22.42,18.26 22.87,18.64 C 22.88,18.64 22.88,18.62 22.9,18.61 C 23.35,18.49 23.48,19 23.74,19.26 C 23.99,19.51 25.24,20.22 25.24,20.22 L 26.02,20.04 L 26.8,20.63 C 26.8,20.63 28.53,20.69 29.05,20.63 C 29.56,20.57 30.3,20.09 31.01,21.31 C 31.72,22.54 31.91,22.03 32.69,22.62 C 33.46,23.2 33.51,24.62 33.9,25.33 C 34.28,26.04 34.88,27.66 35.27,27.92 C 35.65,28.17 36.23,26.62 36.3,26.36 C 36.36,26.11 35.92,24.75 36.24,24.49 C 36.56,24.24 38.24,21.63 38.24,21.37 C 38.24,21.12 39.42,20.36 39.61,20.75 C 39.8,21.13 40.25,21.45 40.45,21.9 C 40.64,22.35 40.51,22.86 40.51,22.86 L 41.01,23.2 L 41.47,22.99 C 41.47,22.99 42.16,23.77 42.03,24.61 C 41.91,25.45 41.93,26.03 42.12,26.29 C 42.31,26.54 42.62,26.23 42.62,27.19 C 42.62,28.16 43.02,28.37 43.08,28.44 C 43.14,28.5 43.2,27.79 43.2,27.79 L 43.02,26.64 L 42.43,25.93 L 42.31,23.84 L 42.37,23.59 C 42.37,23.59 42.8,24.04 42.93,24.3 C 43.22,24.6 43.62,25 43.62,25 C 43.62,25 44.21,24.15 44.21,23.69 C 44.21,23.24 43.95,22.02 43.62,21.63 C 43.3,21.25 42.97,21.16 42.97,20.45 C 42.97,19.74 43.43,19.94 43.56,19.49 C 43.68,19.04 44.2,17.62 43.62,15.87 C 43.04,14.09 42,13.58 41.75,12.93 C 41.49,12.28 40.96,11.75 40.96,11.75 L 41.62,11.81 L 40.93,10.25 C 38.47,7.34 35.26,5.09 31.59,3.81 L 31.25,3.96 C 31.25,3.96 30.27,4.08 29.88,3.96 C 29.5,3.84 29.19,3.65 28.6,3.71 L 28.59,3.71 z M 23.88,11.39 C 24.13,11.35 24.34,11.44 24.5,11.6 C 24.82,11.92 24.2,11.94 24,12 C 23.81,12.06 23.93,12.7 24.31,13.03 C 24.69,13.35 24.36,13.94 24.62,13.68 C 24.87,13.43 25.21,13.61 25.27,13.86 C 25.33,14.11 24.48,13.85 24.81,14.17 C 25.13,14.49 25.28,15.47 25.02,15.67 C 24.77,15.86 24.11,15.62 23.59,15.42 C 23.08,15.23 22.89,14.95 23.28,14.36 C 23.66,13.78 23.32,13.81 23.07,13.61 C 22.82,13.42 22.56,12.9 22.89,12.05 C 23.31,11.6 23.63,11.41 23.89,11.37 L 23.88,11.39 z M 18.06,11.5 C 18.53,11.45 18.53,11.92 18.59,12.15 C 18.65,12.4 19.3,12.15 19.3,12.15 C 19.3,12.15 18.4,12.08 19.36,11.62 C 20.33,11.17 19.32,12.01 19.76,12.27 C 20.23,12.54 21,12.86 21,13.18 C 21,13.5 20.24,13.77 19.72,13.64 C 19.21,13.52 18.67,13.44 18.41,13.11 C 18.16,12.79 18.28,13.16 17.63,13.36 C 16.99,13.55 16.73,13.23 16.6,13.48 C 16.48,13.73 16.55,13.95 16.42,13.88 C 16.42,13.88 16.47,13.5 16.67,13.04 C 16.86,12.59 17.11,11.8 17.82,11.54 C 17.9,11.51 18,11.49 18.07,11.48 L 18.06,11.5 z" id="p3970" style="fill:#a8a87b;fill-opacity:0.51;stroke:none;display:inline"/>
<path d="M 17.5,5.84 C 17.39,5.89 17.23,5.98 17.18,6 C 16.92,6.06 16,6.37 16,6.37 L 15.22,7.15 C 15.22,7.15 15.87,7.29 15.93,7.55 C 15.99,7.8 15.69,8.18 16.39,7.92 C 17.1,7.67 17.67,7.02 17.67,7.02 C 17.67,7.02 17.29,6.75 17.61,6.56 C 17.73,6.49 18.06,6.35 18.34,6.21 C 18.06,6.08 17.78,5.96 17.5,5.84 z M 18.56,6.3 C 18.54,6.32 18.49,6.33 18.47,6.36 C 18.28,6.68 18.22,7.14 18.22,7.14 L 19.43,7.14 L 18.22,7.32 C 18.22,7.32 18.48,7.65 18.16,7.85 C 17.84,8.04 18.09,7.91 17.63,7.85 C 17.18,7.79 17.11,8.5 16.85,8.5 L 16.07,8.5 C 16.07,8.5 15.39,9.01 15.39,8.62 C 15.37,8.26 14.77,8.44 14.9,8.25 C 15.03,8.05 15.76,7.94 15.37,7.75 C 14.98,7.55 14.97,8.18 14.71,8.31 C 14.45,8.44 14.07,8.58 13.68,8.71 C 13.29,8.84 12.5,9.43 12.25,9.43 C 11.99,9.43 11.73,9.87 11.4,9.75 C 11.08,9.62 10.96,9.7 11.09,10.15 C 11.22,10.61 10.5,11.12 10.5,11.12 C 10.5,11.12 10.31,11.34 10.1,11.46 C 10.17,11.74 10.25,12.01 10.31,12.27 C 10.57,12.01 10.65,11.57 11.02,11.62 C 11.53,11.68 11.8,11.96 11.8,11.96 C 11.8,11.96 12.3,10.91 12.23,12.33 C 12.17,13.75 12.82,12.7 12.88,13.48 C 12.94,14.25 12.87,13.29 13.19,13.42 C 13.51,13.54 13.14,13.1 12.88,12.58 C 12.63,12.07 12.87,11.17 13.19,11.3 C 13.51,11.42 13.27,11.81 13.53,12.14 C 13.78,12.46 14.15,12.46 14.03,12.92 C 13.91,13.37 13.79,12.96 13.72,13.35 C 13.66,13.73 14.16,13.74 14.03,14.13 C 13.91,14.51 13.72,14.46 13.91,14.78 C 14.1,15.1 14.23,14.91 14.62,14.66 C 15,14.41 14.22,13.74 15.12,13.48 C 16.02,13.23 15.65,13.87 15.58,14.26 C 15.53,14.58 15.48,14.79 15.61,15.07 C 16.19,14.43 16.73,13.75 17.17,13.42 C 16.82,13.42 16.65,13.29 16.55,13.48 C 16.43,13.73 16.5,13.95 16.37,13.88 C 16.37,13.88 16.42,13.5 16.62,13.04 C 16.81,12.59 17.06,11.8 17.77,11.54 C 17.85,11.51 17.95,11.49 18.02,11.48 C 18.49,11.43 18.49,11.9 18.55,12.13 C 18.61,12.38 19.26,12.13 19.26,12.13 C 19.26,12.13 18.36,12.06 19.32,11.6 C 20.29,11.15 19.28,11.99 19.72,12.25 C 19.99,12.4 20.36,12.59 20.62,12.78 C 21.66,11.88 22.33,10.72 22.33,10.72 C 22.33,10.72 22.72,9.36 19.87,7.16 C 19.46,6.85 19,6.55 18.5,6.29 L 18.56,6.3 z M 18.28,13 C 18.21,12.99 18.12,13.12 17.91,13.25 C 18.32,13.32 18.76,13.66 19.37,13.56 C 18.98,13.46 18.6,13.37 18.4,13.12 C 18.34,13.04 18.31,13 18.28,13 z" id="p3979" style="fill:#6f805d;fill-opacity:0.57;stroke:none;display:inline"/>
<path d="M 23.4,2.62 C 21.32,2.72 19.33,3.14 17.44,3.8 C 17.86,4.05 18.81,4.37 18.34,4.42 C 17.66,4.49 16.58,4.88 15.59,5.63 C 14.61,6.23 16.34,5.93 16.65,5.63 C 16.95,5.35 17.36,4.97 18.5,5.12 C 19.63,5.27 19.75,4.72 20.06,3.96 C 20.36,3.21 22.04,3.38 23.93,3.31 C 25.74,3.24 27.86,2.96 28.06,2.93 C 26.9,2.74 25.74,2.62 24.53,2.62 C 24.16,2.62 23.78,2.61 23.41,2.62 L 23.4,2.62 z" id="p4052" style="fill:#29578b;fill-opacity:0.87;stroke:none;display:inline"/>
<path d="M 15.25,7.71 C 14.98,7.71 14.94,8.19 14.71,8.31 C 14.45,8.44 14.07,8.58 13.68,8.71 C 13.29,8.84 12.5,9.43 12.25,9.43 C 11.99,9.43 11.73,9.87 11.4,9.75 C 11.08,9.62 10.96,9.7 11.09,10.15 C 11.22,10.61 10.5,11.12 10.5,11.12 C 10.5,11.12 9.92,11.82 9.66,11.43 C 9.39,11.04 9.45,10.85 8.93,11.5 C 8.41,12.14 8.03,12.74 7.9,13 C 7.78,13.25 8.02,13.78 8.02,13.78 C 8.02,13.78 8.4,13.78 8.86,13.66 C 9.31,13.54 9.24,12.54 9.89,12.48 C 10.53,12.42 10.49,11.58 11.01,11.64 C 11.52,11.7 11.79,11.98 11.79,11.98 C 11.79,11.98 12.29,10.93 12.22,12.35 C 12.16,13.77 12.81,12.72 12.87,13.5 C 12.93,14.27 12.86,13.31 13.18,13.44 C 13.5,13.56 13.13,13.12 12.87,12.6 C 12.62,12.09 12.86,11.19 13.18,11.32 C 13.5,11.44 13.26,11.83 13.52,12.16 C 13.77,12.48 14.14,12.48 14.02,12.94 C 13.9,13.39 13.78,12.98 13.71,13.37 C 13.65,13.75 14.15,13.76 14.02,14.15 C 13.9,14.53 13.71,14.48 13.9,14.8 C 14.09,15.12 14.22,14.93 14.61,14.68 C 14.99,14.43 14.21,13.76 15.11,13.5 C 16.01,13.25 15.64,13.89 15.57,14.28 C 15.51,14.66 15.44,14.85 15.69,15.24 C 15.94,15.62 16.26,15.26 16.65,15.39 C 17.03,15.51 17.36,15.64 17.36,15.64 C 17.36,15.64 17.98,15.22 18.26,15.3 C 18.79,14.97 19.26,14.81 19.88,15.15 C 20.78,15.63 22.08,15.06 23,14.94 C 23,14.8 23.04,14.63 23.18,14.41 C 23.56,13.83 23.22,13.86 22.97,13.66 C 22.72,13.47 22.46,12.95 22.79,12.1 C 22.93,11.94 23.07,11.86 23.19,11.76 C 23.05,11.58 22.88,11.32 22.69,10.86 C 22.21,9.44 17.33,10.82 17.25,9.56 C 17.2,8.96 16.97,8.68 16.75,8.53 L 16.07,8.53 C 16.07,8.53 15.39,9.04 15.39,8.65 C 15.37,8.26 14.77,8.44 14.9,8.25 C 15.03,8.05 15.76,7.94 15.37,7.75 C 15.32,7.72 15.28,7.71 15.25,7.71 z M 18.06,11.5 C 18.53,11.45 18.53,11.92 18.59,12.15 C 18.65,12.4 19.3,12.15 19.3,12.15 C 19.3,12.15 18.4,12.08 19.36,11.62 C 20.33,11.17 19.32,12.01 19.76,12.27 C 20.23,12.54 21,12.86 21,13.18 C 21,13.5 20.24,13.77 19.72,13.64 C 19.21,13.52 18.67,13.44 18.41,13.11 C 18.16,12.79 18.28,13.16 17.63,13.36 C 16.99,13.55 16.73,13.23 16.6,13.48 C 16.48,13.73 16.55,13.95 16.42,13.88 C 16.42,13.88 16.47,13.5 16.67,13.04 C 16.86,12.59 17.11,11.8 17.82,11.54 C 17.9,11.51 18,11.49 18.07,11.48 L 18.06,11.5 z M 9.44,14.03 C 9.27,14.03 9.1,14.08 8.91,14.15 L 9.75,14.15 C 9.65,14.07 9.54,14.03 9.43,14.03 L 9.44,14.03 z" id="p4246" style="fill:#636c4b;fill-opacity:0.35;stroke:none;display:inline"/>
<path d="M 28.59,3.71 C 28.01,3.78 27.62,4.31 27.62,4.31 L 26.84,4.37 C 26.84,4.37 26.31,4.17 26.31,4.55 C 26.31,4.93 25.75,4.95 25.75,4.95 C 25.75,4.95 24.19,4.62 25.1,4.3 C 26,3.98 26.18,3.66 24.57,4.24 C 22.95,4.82 25.6,4.82 25.47,5.02 C 25.35,5.21 24.05,5.4 23.72,5.2 C 23.39,5.02 23.13,5.52 22.87,5.65 C 22.61,5.78 21.46,6.44 21.46,6.12 C 21.46,5.86 21.36,5.67 21.31,5.59 C 21.41,5.7 21.66,5.95 22.15,5.8 C 22.79,5.61 22.68,5.35 21.78,5.02 C 20.88,4.7 19.33,4.7 18.88,5.02 C 18.42,5.35 17.44,5.93 17.18,6 C 16.92,6.06 16,6.37 16,6.37 L 15.22,7.15 C 15.22,7.15 15.87,7.29 15.93,7.55 C 15.99,7.8 15.69,8.18 16.39,7.92 C 17.1,7.67 17.67,7.02 17.67,7.02 C 17.67,7.02 17.29,6.75 17.61,6.56 C 17.93,6.37 19.48,5.59 19.54,5.72 C 19.6,5.84 18.65,6.05 18.45,6.37 C 18.26,6.69 18.2,7.15 18.2,7.15 L 19.41,7.15 L 18.2,7.33 C 18.2,7.33 18.46,7.66 18.14,7.86 C 17.82,8.05 18.07,7.92 17.61,7.86 C 17.16,7.8 17.09,8.51 16.83,8.51 L 16.05,8.51 C 16.05,8.51 15.89,8.61 15.74,8.69 C 15.77,8.84 15.8,8.99 15.8,9.19 C 15.8,9.52 15.41,9.72 14.96,9.84 C 15.05,9.87 15.13,9.98 15.27,10.18 C 15.53,10.57 16,9.99 16.33,10.06 C 16.66,10.12 16.54,10.27 17.2,10.34 C 17.86,10.4 17.46,10.79 17.66,11.05 C 17.85,11.31 18.32,10.99 18.66,10.52 C 18.99,10.06 19.99,10.45 20.59,10.64 C 21.18,10.83 20.9,11.06 21.37,11.32 C 21.83,11.58 21.78,11.9 22.18,11.57 C 22.52,11.29 23.04,11.23 23.64,11.42 C 23.7,11.4 23.77,11.37 23.82,11.36 C 24.07,11.32 24.28,11.41 24.44,11.57 C 24.71,11.84 24.32,11.89 24.07,11.94 C 24.02,12.02 23.95,12.1 23.86,12.19 C 23.86,12.37 23.94,12.63 24.11,12.84 C 24.47,12.84 24.81,12.75 24.81,12.75 C 24.81,12.75 24.87,11.82 25.34,11.82 C 25.8,11.82 26.59,12.1 26.59,12.1 L 27.18,11.1 C 27.18,11.1 28.52,11.75 29.05,11.28 C 29.58,10.82 29.9,11.76 30.23,11.96 C 30.56,12.15 32.16,12.08 32.16,12.08 C 32.16,12.08 31.89,12.59 31.23,12.79 C 30.57,12.98 30.1,12.94 30.23,13.41 C 30.36,13.87 30.83,13.2 31.23,13.59 C 31.62,13.98 30.78,13.92 30.05,14.12 C 29.32,14.31 29.64,14.65 30.3,14.52 C 30.96,14.39 31.29,14.92 30.89,15.45 C 30.5,15.98 30.3,15.7 30.3,15.7 C 30.3,15.7 28.79,15.65 29.05,15.98 C 29.31,16.31 28.52,16.63 29.05,17.1 C 29.58,17.56 29.36,16.43 29.76,16.76 C 30.15,17.09 30.76,16.94 30.76,16.94 L 30.64,16.23 C 30.64,16.23 31.71,16.04 32.04,16.11 C 32.37,16.17 33.55,17.23 34.35,17.82 C 35.14,18.41 36.47,18.01 35.94,17.88 C 35.41,17.75 34.55,17.1 34.29,16.7 C 34.03,16.31 34.56,16.05 33.64,15.52 C 32.71,14.99 32.78,15.06 32.58,14.46 C 32.39,13.87 31.96,13.93 31.96,13.93 C 31.96,13.93 33.37,13.18 33.77,12.78 C 34.16,12.39 35.22,12.59 34.36,12.25 C 33.5,11.92 34.62,12 35.95,12.13 C 37.27,12.26 36.33,11.87 35.61,11.54 C 34.88,11.21 36.61,11.34 37.07,11.6 C 37.53,11.86 38.72,11.42 38.19,11.42 C 37.66,11.42 37.43,11.14 37.23,10.74 C 37.05,10.35 36.17,9.82 35.9,9.56 C 35.64,9.29 36.36,8.97 36.5,8.9 C 36.63,8.84 36.82,9.77 36.56,9.83 C 36.3,9.89 36.96,10.28 38.02,10.54 C 39.08,10.8 40.09,11.48 39.95,10.88 C 39.82,10.29 38.81,9.22 39.61,9.88 C 39.84,10.07 40.4,10.28 41.01,10.47 L 40.93,10.25 C 38.47,7.34 35.26,5.09 31.59,3.81 L 31.25,3.96 C 31.25,3.96 30.27,4.08 29.88,3.96 C 29.5,3.84 29.19,3.65 28.6,3.71 L 28.59,3.71 z M 14.81,9.9 C 14.52,9.97 14.21,10.03 14.03,10.08 C 13.57,10.21 12.02,10.8 11.69,11.26 C 11.69,11.39 12.02,11.33 12.15,11.14 C 12.28,10.95 12.7,10.96 13.3,10.96 C 13.89,10.96 14.15,10.49 14.55,10.09 C 14.64,10 14.73,9.94 14.8,9.91 L 14.81,9.9 z" id="p3973" style="fill:#f8f8f3;fill-opacity:0.88;stroke:none;display:inline"/>
<path d="M 40.65,12.84 C 40.53,12.82 40.52,13.17 40.74,14.09 C 41.47,17.01 41.08,17.94 40.49,17.74 C 39.9,17.55 40.16,18.45 38.96,18.52 C 37.77,18.58 36.43,19.26 32.78,16.74 C 32.05,17.33 32.04,17.25 31.91,18.05 C 31.78,18.84 32.04,17.87 32.97,18.33 C 33.9,18.79 34.98,19.73 34.78,20.33 C 34.59,20.92 35.38,19.13 36.71,19.87 C 37.74,20.43 38.45,20.56 38.64,21.08 C 38.99,20.8 39.59,20.5 39.73,20.77 C 39.79,20.89 39.88,21 39.98,21.11 C 39.96,20.82 39.95,20.55 40.01,20.33 C 40.34,19.27 40.61,19.79 40.94,20.98 C 41.07,21.45 41.21,22.29 41.34,23.13 L 41.59,23.01 C 41.59,23.01 41.98,23.43 42.12,24.01 C 42.06,23.3 42.03,22.63 41.94,22.26 C 41.68,21.2 42.06,20.92 42.53,21.45 C 42.99,21.98 43.86,22.19 43.46,22.79 C 43.2,23.18 43.49,24.11 43.74,24.72 C 43.78,24.65 43.8,24.62 43.86,24.51 L 43.43,21.45 C 43.17,21.2 42.93,21.01 42.93,20.42 C 42.93,19.71 43.39,19.91 43.52,19.46 C 43.56,19.3 43.65,18.97 43.73,18.56 C 43.43,18.23 42.98,17.65 42.5,16.4 C 41.85,14.76 40.93,12.89 40.65,12.84 z M 42.18,24.34 C 42.18,24.44 42.19,24.54 42.18,24.65 C 42.06,25.49 42.08,26.07 42.27,26.33 C 42.28,26.34 42.28,26.35 42.3,26.36 C 42.29,25.95 42.25,25.31 42.18,24.33 L 42.18,24.34 z" id="p3976" style="fill:#708c51;fill-opacity:0.57;stroke:none;display:inline"/>
<path d="M 33.65,4.65 C 33.77,5.88 33.16,6.37 32.34,5.93 C 31.35,5.4 30.61,4.95 29.78,4.87 C 28.95,4.8 30.14,5.71 29.32,5.87 C 28.49,6.02 27.73,8.29 27.73,7.3 C 27.73,6.32 27.28,5.79 26.83,5.87 C 26.35,5.95 25.6,5.25 25,5.56 C 24.51,5.8 23.15,6.06 22.71,5.75 C 22.34,5.94 21.46,6.41 21.46,6.12 C 21.46,5.86 21.36,5.67 21.31,5.59 C 21.41,5.7 21.66,5.95 22.15,5.8 C 22.48,5.71 22.62,5.59 22.56,5.46 C 22.5,5.33 22.23,5.19 21.78,5.03 C 20.87,4.7 19.32,4.7 18.87,5.03 C 18.42,5.35 17.44,5.93 17.18,6 C 16.92,6.06 16,6.37 16,6.37 L 15.32,7.02 C 15.32,7.02 15.32,7.04 15.32,7.05 C 15.35,7.1 15.4,7.15 15.44,7.2 C 15.63,7.26 15.89,7.36 15.94,7.54 C 15.94,7.56 15.93,7.6 15.94,7.63 C 16.11,7.73 16.3,7.82 16.5,7.88 C 17.16,7.61 17.68,7.01 17.68,7.01 C 17.68,7.01 17.3,6.74 17.62,6.55 C 17.94,6.36 19.49,5.58 19.55,5.71 C 19.61,5.83 18.66,6.04 18.46,6.36 C 18.27,6.68 18.21,7.14 18.21,7.14 L 19.42,7.14 L 18.21,7.32 C 18.21,7.32 18.47,7.65 18.15,7.85 C 17.83,8.04 18.08,7.91 17.62,7.85 C 17.47,7.83 17.37,7.9 17.28,8 C 17.93,8.05 18.61,8.07 18.78,8.5 C 19,9.1 19.69,9.26 20.53,8.81 C 21.36,8.36 21.22,9.08 22.81,8.41 C 24.4,7.73 25.31,7.14 25.46,8.35 C 25.61,9.56 25.08,10.01 26.36,8.72 C 27.64,7.44 28.77,7.52 29.61,7.82 C 30.44,8.12 33.56,8.12 33.11,8.88 C 32.66,9.63 33.16,10.61 33.54,9.78 C 33.91,8.95 34.44,8.58 34.82,9.03 C 35.19,9.48 34.61,7.75 35.13,8.28 C 35.66,8.81 36.03,7.82 35.34,7.07 C 34.66,6.32 35.73,6.7 36.34,6.86 C 36.7,6.95 36.7,6.74 36.59,6.33 C 35.66,5.69 34.66,5.14 33.63,4.65 L 33.65,4.65 z" id="p4049" style="fill:#797367;fill-opacity:0.28;stroke:none;display:inline"/>
<path d="M 41.59,27.54 C 41.96,27.32 42.19,27.69 42.57,28.07 C 42.94,28.44 43.4,28 43.4,28.52 C 43.4,29.05 43.85,29.42 43.77,29.8 C 43.7,30.17 43.77,30.93 43.47,31.01 C 43.17,31.08 42.72,30.41 42.41,29.88 C 42.11,29.35 42.41,28.75 41.96,28.37 C 41.51,28 41.21,27.77 41.59,27.54 L 41.59,27.54 z" id="p4055" style="fill:#96a26b;fill-opacity:1;stroke:none;display:inline"/>
<path d="M 45.15,24.96 C 45,25.79 44.85,27.23 44.47,27.46 C 44.1,27.68 44.1,28.36 44.32,28.82 C 44.54,29.27 44.69,29.42 45,28.6 C 45.3,27.77 45.45,27.24 45.45,26.64 C 45.45,26.04 45.15,24.98 45.15,24.98 L 45.15,24.96 z" id="p4058" style="fill:#96a26b;fill-opacity:1;stroke:none;display:inline"/>
<path d="M 22.87,36.81 C 22.7,36.79 22.51,36.93 22.28,37.31 C 21.83,38.06 23.09,37.63 20.6,38.46 C 20.15,39.14 20.92,39.44 20.69,39.89 C 20.47,40.34 20.53,40.79 21.12,41.32 C 21.72,41.85 21.08,42.28 21,42.66 C 20.93,43.03 22.13,43.28 21.53,43.81 C 20.93,44.34 18.48,44.1 18.63,44.56 C 18.66,44.65 18.78,44.77 18.94,44.9 C 20.54,45.32 22.23,45.6 23.97,45.65 C 23.5,45.35 22.72,44.93 21.43,44.81 C 19.08,44.58 21.96,43.91 22.5,43.84 C 23.03,43.76 21.66,43.15 22.34,43 C 23.02,42.85 23.62,42.11 23.09,41.88 C 22.56,41.66 22.35,41.03 23.03,40.04 C 23.71,39.06 23.56,38.1 23.34,37.42 C 23.23,37.06 23.05,36.84 22.87,36.81 z" id="p4064" style="fill:#3e92c2;fill-opacity:0.86;stroke:none;display:inline"/>
<path d="M 20.83,38.9 C 20.98,39.35 21.43,39.58 20.9,40.26 C 20.37,40.94 21.27,41.54 21.73,41.47 C 22.18,41.4 22.71,41.1 22.86,40.41 C 23.01,39.73 23.31,38.37 23.69,38.37 C 24.06,38.37 23.69,37.84 23.32,37.54 C 22.95,37.24 22.87,37.32 22.42,37.99 C 21.97,38.67 21.21,38.36 20.83,38.89 L 20.83,38.9 z" id="p4061" style="fill:#c3b289;fill-opacity:1;stroke:none;display:inline"/>
<path d="M 44.29,18.49 C 44.44,19.7 43.91,19.55 44.14,20.47 C 44.36,21.38 44.74,21.53 44.67,22.75 C 44.6,23.96 44.74,24.12 45.05,23.05 C 45.35,21.99 44.83,21.38 44.83,20.54 C 44.83,19.71 45.36,19.48 44.3,18.49 L 44.29,18.49 z" id="p4196" style="fill:#245a97;fill-opacity:1;stroke:none;display:inline"/>
<path d="M 40.7,23.9 C 40.48,24.81 40.63,25.27 40.77,25.95 C 40.92,26.63 40.92,28.38 41.3,26.55 C 41.68,24.73 41.9,24.42 41.52,24.12 C 41.14,23.82 41.22,23.59 40.69,23.9 L 40.7,23.9 z" id="p4199" style="fill:#2f66a3;fill-opacity:1;stroke:none;display:inline"/>
<path d="M 12.3,7.81 C 12.07,7.96 11.85,8.12 11.62,8.28 C 11.54,8.35 11.54,8.49 11.61,8.57 C 11.69,8.63 11.82,8.64 11.9,8.57 C 12.12,8.41 12.35,8.24 12.58,8.08 C 12.62,8.05 12.67,7.99 12.65,7.92 C 12.66,7.83 12.57,7.76 12.49,7.75 C 12.42,7.7 12.37,7.79 12.31,7.82 L 12.3,7.81 z" id="p4204" style="fill:#899b72;fill-opacity:1;stroke:none;marker:none;visibility:visible;display:inline;overflow:visible;enable-background:accumulate;"/>
<path d="M 11.93,8.8 C 11.74,8.88 11.89,9.03 12.16,9.05 C 12.43,9.07 12.61,9.05 13.01,8.47 C 13.4,7.89 13.43,7.43 13.66,7.4 C 13.89,7.38 14.14,6.83 13.64,7.1 C 13.13,7.36 13.19,7.75 13.06,7.87 C 12.93,7.99 12.42,8.52 12.24,8.63 C 12.07,8.73 11.94,8.8 11.94,8.8 L 11.93,8.8 z" id="p4207" style="fill:#899b72;fill-opacity:1;stroke:none;display:inline"/>
<path d="M 7.84,13.9 C 7.84,13.9 7.64,14.55 7.25,14.68 C 6.87,14.8 6.61,15.06 6.35,15.58 C 6.11,16.06 5.58,16.09 5.2,16.64 C 6.03,17.66 5.73,17.77 5.29,18.42 C 4.73,19.24 5.08,19.95 5.72,19.82 C 6.37,19.69 6.32,17.61 6.72,17.61 C 7.11,17.61 6.39,17.73 6.9,19.04 C 7.42,20.34 8.43,18.17 8.65,19.69 C 8.86,21.21 8.85,21.06 9.9,21.84 C 10.94,22.62 11.95,22.72 11.43,23.68 C 10.91,24.64 12.26,24.06 12.74,23.37 C 13.22,22.68 11.78,22.22 12.86,21.78 C 13.95,21.35 13.43,21.51 13.39,19.85 C 13.35,18.2 13.41,20.11 12.33,20.6 C 11.24,21.08 10.63,19.98 11.02,19.2 C 11.31,18.62 11.42,17.78 11.58,17.02 C 11.58,17.01 11.58,17 11.58,16.99 C 11.45,16.78 11.56,16.6 11.33,16.37 C 11.01,16.05 10.43,16.36 10.43,15.84 C 10.43,15.33 10.73,15.39 10.86,15 C 10.98,14.62 10.86,14.22 10.86,14.22 C 10.86,14.22 10.16,14.54 9.77,14.16 C 9.39,13.78 8.76,14.34 8.37,14.28 C 7.99,14.22 7.84,13.91 7.84,13.91 L 7.84,13.9 z" id="p4243" style="fill:#896e2e;fill-opacity:0.3;stroke:none;display:inline"/>
<path d="M 42.65,17.21 C 42.61,17.45 42.57,19.06 42.4,19.42 C 42.19,19.9 40.88,18.57 40.75,18.17 C 40.62,17.78 40.13,17.55 39.91,18.2 C 39.7,18.85 39.31,18.95 38.57,19.26 C 37.83,19.56 39.9,19.13 39.38,19.69 C 39.14,19.95 39.19,20.21 39.35,20.69 C 39.52,20.65 39.69,20.64 39.75,20.75 C 39.88,21.02 40.15,21.28 40.37,21.56 C 40.37,21.23 40.37,20.86 40.31,20.5 C 40.1,19.06 40.47,19.64 40.65,20.16 C 40.82,20.68 40.84,20.91 40.8,21.56 C 40.77,22.14 41.29,22.9 41.42,23.09 L 41.6,23 C 41.6,23 41.8,23.26 41.97,23.62 C 42.07,23.19 42.29,22.39 42.5,22.22 C 42.76,22.01 41.99,20.73 42.81,21.47 C 43.63,22.21 43.32,21.9 43.15,23 C 43.05,23.66 43.51,24.15 43.9,24.46 C 44.04,24.19 44.18,23.88 44.18,23.65 C 44.18,23.2 43.92,21.98 43.59,21.59 C 43.27,21.21 42.94,21.12 42.94,20.41 C 42.94,19.86 43.19,19.85 43.37,19.66 C 42.75,19.17 42.72,18.51 42.66,17.51 C 42.65,17.36 42.64,17.25 42.63,17.2 L 42.65,17.21 z" id="p4249" style="fill:#5d6b4c;fill-opacity:0.52;stroke:none;display:inline"/>
<path d="M 33.59,19.65 C 33.35,19.65 33.2,19.9 32.78,20.49 C 32.33,21.14 32.27,21.65 32.32,22.36 C 32.45,22.41 32.62,22.49 32.82,22.64 C 33.59,23.22 33.64,24.64 34.03,25.35 C 34.41,26.06 35.01,27.68 35.4,27.94 C 35.44,27.97 35.5,27.98 35.55,27.97 C 35.41,26.9 34.72,25.92 34.43,25.47 C 34.04,24.86 34.41,24.37 34.93,23.76 C 35.4,23.21 35.67,23.8 36.39,24.47 C 36.74,24.15 38.35,21.64 38.35,21.38 C 38.35,21.35 38.37,21.3 38.41,21.26 C 38.22,20.8 37.91,20.37 37.48,20.05 C 36.39,19.23 36.45,21.01 34.92,20.26 C 34.16,19.89 33.82,19.64 33.58,19.64 L 33.59,19.65 z" id="p4252" style="fill:#5d6b4c;fill-opacity:0.37;stroke:none;display:inline"/>
<path d="M 28.59,3.71 C 28.01,3.77 27.63,4.3 27.63,4.3 L 26.85,4.36 C 26.85,4.36 26.32,4.16 26.32,4.54 C 26.32,4.92 25.76,4.94 25.76,4.94 C 25.76,4.94 24.2,4.61 25.11,4.29 C 26.01,3.97 26.19,3.65 24.58,4.23 C 22.96,4.81 25.61,4.81 25.48,5.01 C 25.36,5.2 24.06,5.39 23.73,5.19 C 23.41,5 23.15,5.49 22.89,5.62 C 22.64,5.74 21.49,6.41 21.49,6.08 C 21.49,5.82 21.39,5.63 21.34,5.55 C 21.44,5.66 21.69,5.91 22.18,5.76 C 22.82,5.57 22.71,5.31 21.81,4.98 C 20.91,4.66 19.36,4.66 18.91,4.98 C 18.46,5.3 17.49,5.88 17.23,5.94 C 16.98,6 16.05,6.31 16.05,6.31 L 15.27,7.09 C 15.27,7.09 15.92,7.23 15.98,7.49 C 16.04,7.74 15.74,8.12 16.44,7.86 C 17.15,7.61 17.72,6.96 17.72,6.96 C 17.72,6.96 17.34,6.69 17.66,6.5 C 17.98,6.31 19.53,5.53 19.59,5.66 C 19.65,5.78 18.7,5.99 18.5,6.31 C 18.31,6.63 18.25,7.09 18.25,7.09 L 19.46,7.09 L 18.25,7.27 C 18.25,7.27 18.51,7.6 18.19,7.8 C 17.87,7.99 18.12,7.86 17.66,7.8 C 17.21,7.74 17.14,8.45 16.88,8.45 L 16.1,8.45 C 16.1,8.45 15.42,8.96 15.42,8.57 C 15.42,8.19 14.83,8.36 14.96,8.17 C 15.08,7.98 15.81,7.87 15.42,7.67 C 15.04,7.48 15.03,8.1 14.77,8.23 C 14.52,8.35 14.13,8.5 13.74,8.63 C 13.36,8.75 12.57,9.34 12.31,9.34 C 12.06,9.34 11.8,9.78 11.47,9.65 C 11.08,9.62 10.96,9.7 11.09,10.15 C 11.22,10.61 10.5,11.12 10.5,11.12 C 10.5,11.12 9.92,11.82 9.66,11.43 C 9.39,11.04 9.45,10.85 8.93,11.5 C 8.41,12.14 8.03,12.74 7.9,13 C 7.78,13.25 8.02,13.78 8.02,13.78 C 8.02,13.78 8.4,13.78 8.86,13.66 C 9.31,13.54 9.24,12.54 9.89,12.48 C 10.53,12.42 10.49,11.58 11.01,11.64 C 11.52,11.7 11.79,11.98 11.79,11.98 C 11.79,11.98 12.29,10.93 12.22,12.35 C 12.16,13.77 12.81,12.72 12.87,13.5 C 12.93,14.27 12.86,13.31 13.18,13.44 C 13.5,13.56 13.13,13.12 12.87,12.6 C 12.62,12.09 12.86,11.19 13.18,11.32 C 13.5,11.44 13.26,11.83 13.52,12.16 C 13.77,12.48 14.14,12.48 14.02,12.94 C 13.9,13.39 13.78,12.98 13.71,13.37 C 13.65,13.75 14.15,13.76 14.02,14.15 C 13.9,14.53 13.71,14.48 13.9,14.8 C 14.09,15.12 14.22,14.93 14.61,14.68 C 14.99,14.43 14.21,13.76 15.11,13.5 C 16.01,13.25 15.64,13.89 15.57,14.28 C 15.51,14.66 15.44,14.85 15.69,15.24 C 15.94,15.62 16.26,15.26 16.65,15.39 C 17.03,15.51 17.36,15.64 17.36,15.64 C 17.36,15.64 18.45,14.87 18.39,15.58 C 18.33,16.29 17.74,16.79 17.74,16.79 L 17.56,17.63 C 17.56,17.63 16.08,17.95 15.56,17.69 C 15.05,17.44 13.63,17.18 13.63,16.85 C 13.63,16.53 13.25,16.22 12.79,16.54 C 12.34,16.86 12.54,17.64 11.89,17.25 C 11.28,16.89 11.66,16.69 11.34,16.37 C 11.01,16.05 10.43,16.36 10.43,15.84 C 10.43,15.33 10.73,15.39 10.86,15 C 10.98,14.62 10.86,14.22 10.86,14.22 C 10.86,14.22 10.16,14.54 9.77,14.16 C 9.39,13.78 8.76,14.34 8.37,14.28 C 7.99,14.22 7.84,13.91 7.84,13.91 C 7.84,13.91 7.64,14.56 7.25,14.69 C 6.86,14.81 6.6,15.07 6.34,15.59 C 6.08,16.11 5.51,16.1 5.12,16.75 C 4.73,17.39 4.26,17.99 3.81,20 C 3.55,21.42 3.49,22.98 3.62,23.5 C 3.74,24.01 3.8,25.17 3.87,25.5 C 3.93,25.82 4.51,25.95 4.71,26.28 C 4.9,26.6 5.25,26.65 5.71,26.59 C 6.16,26.53 6.42,26.48 6.55,27.05 C 6.67,27.63 7.45,27.31 7.45,28.73 C 7.45,30.15 7.49,30.67 7.88,31.32 C 8.26,31.96 8.71,32.42 8.84,32.94 C 8.96,33.45 9.37,34.81 9.37,34.81 C 9.37,34.81 9.03,35.11 9.09,35.24 C 9.15,35.36 9.1,36.48 9.43,36.67 C 9.75,36.86 10.19,37.52 10.52,38.1 C 10.84,38.68 11.89,39.91 12.67,40.69 C 13.44,41.46 13.88,41.9 14.07,41.97 C 14.26,42.03 15.24,41.91 15.57,42.09 C 15.89,42.28 16.27,41.78 16.66,41.72 C 17.04,41.66 17.06,41.08 17.19,40.82 C 17.31,40.57 18.03,40.42 18.03,40.42 C 18.03,40.42 16.92,39.47 17.38,39.21 C 17.83,38.96 18.99,38.44 19.25,38.37 C 19.5,38.31 19.19,38.24 19.25,37.59 C 19.31,36.95 19.26,36.29 18.94,36.09 C 18.62,35.9 18.03,34.86 18.29,34.41 C 18.54,33.96 19.4,33.21 19.66,32.82 C 19.91,32.44 20.81,31.85 21.59,31.26 C 22.36,30.68 23.71,28.03 23.77,27.64 C 23.83,27.26 23.86,26.91 23.09,27.24 C 22.32,27.56 20.76,27.71 20.5,27.58 C 20.3,27.46 20.28,26.81 20.28,26.81 L 18.93,25.25 C 18.93,25.25 18.66,25.44 18.53,24.35 C 18.41,23.25 17.82,23.91 17.69,22.48 C 17.55,21.04 17.06,20.25 17.06,20.25 L 16.53,18.44 L 17.06,19.4 L 17.37,19.09 C 17.37,19.09 17.89,19.85 17.96,20.24 C 18.02,20.62 18.08,21.08 18.08,21.08 C 18.08,21.08 18.86,21.28 18.73,21.54 C 18.61,21.79 18.58,22.44 18.58,22.44 C 18.58,22.44 19.35,23.52 19.54,23.84 C 19.73,24.16 20.07,25.2 20.07,25.59 C 20.07,25.97 20.53,26.65 20.53,26.65 L 22.84,25.94 L 24.52,25.29 C 24.52,25.29 24.4,24.9 25.23,24.7 C 26.07,24.51 26.26,24.08 26.26,24.08 C 26.26,24.08 26.52,23.55 26.85,23.62 C 27.17,23.68 26.39,23.17 27.16,22.66 C 27.99,22.13 27.62,22 27.62,22 L 27.16,21.41 C 27.16,21.41 26.2,21.17 26.2,20.91 C 26.2,20.66 26.01,20.39 25.42,20.97 C 24.84,21.55 24.14,21.15 24.14,21.15 L 24.06,20.31 C 24.06,20.31 23.61,20.21 23.22,19.75 C 22.82,19.29 22.54,18.75 23,18.62 C 23.45,18.5 23.58,19.01 23.84,19.27 C 24.09,19.52 25.34,20.23 25.34,20.23 L 26.12,20.05 L 26.9,20.64 C 26.9,20.64 28.63,20.7 29.15,20.64 C 29.66,20.58 30.4,20.1 31.11,21.32 C 31.82,22.55 32.01,22.04 32.79,22.63 C 33.56,23.21 33.61,24.63 34,25.34 C 34.38,26.05 34.98,27.67 35.37,27.93 C 35.75,28.18 36.33,26.63 36.4,26.37 C 36.46,26.12 36.02,24.76 36.34,24.5 C 36.66,24.25 38.34,21.64 38.34,21.38 C 38.34,21.13 39.52,20.37 39.71,20.76 C 39.9,21.14 40.35,21.46 40.55,21.91 C 40.74,22.36 40.61,22.87 40.61,22.87 L 41.11,23.21 L 41.57,23 C 41.57,23 42.26,23.78 42.13,24.62 C 42.01,25.46 42.03,26.04 42.22,26.3 C 42.41,26.55 42.72,26.24 42.72,27.2 C 42.72,28.17 43.12,28.38 43.18,28.45 C 43.24,28.51 43.3,27.8 43.3,27.8 L 43.12,26.65 L 42.53,25.94 L 42.41,23.85 L 42.47,23.6 C 42.47,23.6 42.9,24.05 43.03,24.31 C 43.22,24.6 43.62,25 43.62,25 C 43.62,25 44.21,24.15 44.21,23.69 C 44.21,23.24 43.95,22.02 43.62,21.63 C 43.3,21.25 42.97,21.16 42.97,20.45 C 42.97,19.74 43.43,19.94 43.56,19.49 C 43.68,19.04 44.2,17.62 43.62,15.87 C 43.04,14.09 42,13.58 41.75,12.93 C 41.49,12.28 40.96,11.75 40.96,11.75 L 41.62,11.81 L 40.93,10.25 C 38.47,7.34 35.26,5.09 31.59,3.81 L 31.25,3.96 C 31.25,3.96 30.27,4.08 29.88,3.96 C 29.5,3.84 29.19,3.65 28.6,3.71 L 28.59,3.71 z M 23.87,11.4 C 24.12,11.36 24.33,11.45 24.49,11.61 C 24.81,11.93 24.19,11.95 23.99,12.01 C 23.8,12.07 23.92,12.71 24.3,13.04 C 24.68,13.36 24.35,13.95 24.61,13.69 C 24.86,13.44 25.2,13.62 25.26,13.87 C 25.32,14.12 24.47,13.86 24.8,14.18 C 25.12,14.5 25.27,15.48 25.01,15.68 C 24.76,15.87 24.1,15.63 23.58,15.43 C 23.07,15.24 22.88,14.96 23.27,14.37 C 23.65,13.79 23.31,13.82 23.06,13.62 C 22.81,13.43 22.55,12.91 22.88,12.06 C 23.3,11.61 23.62,11.42 23.88,11.38 L 23.87,11.4 z M 18.06,11.5 C 18.53,11.45 18.53,11.92 18.59,12.15 C 18.65,12.4 19.3,12.15 19.3,12.15 C 19.3,12.15 18.4,12.08 19.36,11.62 C 20.33,11.17 19.32,12.01 19.76,12.27 C 20.23,12.54 21,12.86 21,13.18 C 21,13.5 20.24,13.77 19.72,13.64 C 19.21,13.52 18.67,13.44 18.41,13.11 C 18.16,12.79 18.28,13.16 17.63,13.36 C 16.99,13.55 16.73,13.23 16.6,13.48 C 16.48,13.73 16.55,13.95 16.42,13.88 C 16.42,13.88 16.47,13.5 16.67,13.04 C 16.86,12.59 17.11,11.8 17.82,11.54 C 17.9,11.51 18,11.49 18.07,11.48 L 18.06,11.5 z" id="p3835-3" style="fill:none;stroke:#201b0b;stroke-width:0.2;stroke-linejoin:round;stroke-miterlimit:4;stroke-dasharray:none;stroke-opacity:1;display:inline"/>
<path d="M 41.59,27.54 C 41.96,27.32 42.19,27.69 42.57,28.07 C 42.94,28.44 43.4,28 43.4,28.52 C 43.4,29.05 43.85,29.42 43.77,29.8 C 43.7,30.17 43.77,30.93 43.47,31.01 C 43.17,31.08 42.72,30.41 42.41,29.88 C 42.11,29.35 42.41,28.75 41.96,28.37 C 41.51,28 41.21,27.77 41.59,27.54 L 41.59,27.54 z" id="p4055-0" style="fill:none;stroke:#201b0b;stroke-width:0.2;stroke-miterlimit:4;stroke-dasharray:none;stroke-opacity:1;display:inline"/>
<path d="M 45.15,24.96 C 45,25.79 44.85,27.23 44.47,27.46 C 44.1,27.68 44.1,28.36 44.32,28.82 C 44.54,29.27 44.69,29.42 45,28.6 C 45.3,27.77 45.45,27.24 45.45,26.64 C 45.45,26.04 45.15,24.98 45.15,24.98 L 45.15,24.96 z" id="p4058-7" style="fill:none;stroke:#201b0b;stroke-width:0.2;stroke-miterlimit:4;stroke-dasharray:none;stroke-opacity:1;display:inline"/>
<path d="M 20.83,38.9 C 20.98,39.35 21.43,39.58 20.9,40.26 C 20.37,40.94 21.27,41.54 21.73,41.47 C 22.18,41.4 22.71,41.1 22.86,40.41 C 23.01,39.73 23.31,38.37 23.69,38.37 C 24.06,38.37 23.69,37.84 23.32,37.54 C 22.95,37.24 22.87,37.32 22.42,37.99 C 21.97,38.67 21.21,38.36 20.83,38.89 L 20.83,38.9 z" id="p4061-0" style="fill:none;stroke:#201b0b;stroke-width:0.2;stroke-miterlimit:4;stroke-dasharray:none;stroke-opacity:1;display:inline"/>
<path d="M 12.3,7.81 C 12.07,7.96 11.85,8.12 11.62,8.28 C 11.54,8.35 11.54,8.49 11.61,8.57 C 11.69,8.63 11.82,8.64 11.9,8.57 C 12.12,8.41 12.35,8.24 12.58,8.08 C 12.62,8.05 12.67,7.99 12.65,7.92 C 12.66,7.83 12.57,7.76 12.49,7.75 C 12.42,7.7 12.37,7.79 12.31,7.82 L 12.3,7.81 z" id="p4204-8" style="fill:none;stroke:#201b0b;stroke-width:0.2;marker:none;stroke-miterlimit:4;stroke-dasharray:none;stroke-opacity:1;visibility:visible;display:inline;overflow:visible;enable-background:accumulate;"/>
<path d="M 11.93,8.8 C 11.74,8.88 11.89,9.03 12.16,9.05 C 12.43,9.07 12.61,9.05 13.01,8.47 C 13.4,7.89 13.43,7.43 13.66,7.4 C 13.89,7.38 14.14,6.83 13.64,7.1 C 13.12,7.36 13.19,7.75 13.06,7.87 C 12.92,7.99 12.41,8.53 12.23,8.63 C 12.05,8.73 11.93,8.8 11.93,8.8 z" id="p4207-9" style="fill:none;stroke:#201b0b;stroke-width:0.2;stroke-miterlimit:4;stroke-dasharray:none;stroke-opacity:1;display:inline"/>
<path d="M 45.90,24.10 C 45.90,35.97 36.29,45.60 24.43,45.60 C 12.58,45.60 2.97,35.97 2.97,24.10 C 2.97,12.23 12.58,2.60 24.43,2.60 C 36.29,2.60 45.90,12.23 45.90,24.10 L 45.90,24.10 z" id="stroke01" style="fill:none;stroke:#000000;stroke-width:0.5;marker:none;stroke-miterlimit:4;stroke-dasharray:none;stroke-opacity:1;visibility:visible;display:inline;overflow:visible;enable-background:accumulate"/>
</g>
</svg>
