<?xml version="1.0" encoding="UTF-8" standalone="no"?>
<!DOCTYPE svg PUBLIC "-//W3C//DTD SVG 1.0//EN" "http://www.w3.org/TR/2001/REC-SVG-20010904/DTD/svg10.dtd">
<svg xmlns:svg="http://www.w3.org/2000/svg" xmlns="http://www.w3.org/2000/svg" version="1.0" width="100%" height="100%" viewBox="0 0 48 48" id="_folder01" style="display:inline">
<defs id="defs2818"/>
<g id="folder01" style="display:inline">
<path d="M 12.26,43.82 C 11.89,43.51 1.68,16.55 1.68,16.55 c 0,0 -0.18,-3.42 -0.18,-3.98 0,-0.56 0.06,-0.68 0.56,-0.80 0.49,-0.12 11.51,-3.48 11.95,-3.61 0.43,-0.12 0.68,-0.06 1.05,0.31 0.37,0.37 2.42,2.17 2.67,2.36 0.24,0.18 0.43,0.43 1.12,0.24 0.68,-0.18 15.31,-4.79 15.75,-4.91 0.43,-0.12 0.87,0 1.05,0.37 0.18,0.37 3.48,8.71 3.48,8.71 L 12.26,43.82 z" id="p3674" style="fill:#fed01b;fill-opacity:1;stroke:none"/>
<path d="m 12.14,43.70 c 0,0 -4.98,-22.41 -5.04,-22.72 -0.06,-0.31 0,-0.93 0.56,-1.18 0.56,-0.24 15.62,-5.16 16.06,-5.29 0.43,-0.12 0.74,-0.43 0.80,-0.68 0.06,-0.24 0.18,-0.93 0.24,-1.24 0.06,-0.31 0.18,-0.56 0.68,-0.68 0.49,-0.12 16.87,-5.29 17.30,-5.41 0.43,-0.12 1.05,0.06 1.05,0.87 0,0.80 0.74,21.48 0.80,21.85 0.06,0.37 0,0.87 -0.37,0.99 -0.37,0.12 -31.44,13.26 -32.12,13.51 z" id="p3677" style="fill:#bb9d07;fill-opacity:1;stroke:none;display:inline"/>
<path d="m 24.78,12.57 c 0.06,-0.31 0.18,-0.56 0.68,-0.68 0.49,-0.12 16.87,-5.29 17.30,-5.41 0.43,-0.12 1.05,0.06 1.05,0.87 M 7.09,20.97 c -0.06,-0.31 0,-0.93 0.56,-1.18 0.56,-0.24 15.62,-5.16 16.06,-5.29 0.43,-0.12 0.74,-0.43 0.80,-0.68" id="p3677-4" style="fill:none;stroke:#f6e448;stroke-width:0.40;stroke-linecap:round;stroke-miterlimit:4;stroke-opacity:1;stroke-dasharray:none;display:inline"/>
<path d="m 24.26,14.20 c 0.14,-0.12 0.23,-0.26 0.26,-0.38 0.06,-0.24 0.18,-0.93 0.24,-1.24 0.03,-0.15 0.07,-0.29 0.17,-0.41 M 12.14,43.70 c 0,0 -4.98,-22.41 -5.04,-22.72 -0.03,-0.15 -0.03,-0.38 0.04,-0.61" id="p3677-1" style="fill:none;stroke:#a28028;stroke-width:0.40;stroke-linecap:round;stroke-miterlimit:4;stroke-opacity:0.98;stroke-dasharray:none;display:inline"/>
<path d="m 34.93,6.12 c -0.10,0 -0.20,1.18e-4 -0.31,0.03 C 34.18,6.28 19.55,10.87 18.87,11.06 18.19,11.24 17.99,11.03 17.75,10.84 17.50,10.65 15.43,8.84 15.06,8.46 14.68,8.09 14.43,8.03 14,8.15 13.56,8.28 2.56,11.62 2.06,11.75 1.56,11.87 1.5,12.00 1.5,12.56 c 0,0.56 0.18,4 0.18,4 0,0 10.27,26.58 10.38,26.81 0.10,0.23 0.37,0.22 0.64,0.09 0.68,-0.34 31.19,-13.16 31.56,-13.29 0.37,-0.12 0.43,-0.62 0.37,-1 -0.06,-0.37 -0.81,-21.03 -0.81,-21.84 0,-0.80 -0.62,-0.99 -1.06,-0.87 -0.15,0.04 -3.45,1.07 -6.31,1.96 C 36.20,7.79 35.72,6.61 35.68,6.53 35.54,6.25 35.25,6.12 34.93,6.12 z" id="stroke01" style="fill:none;stroke:#5c4716;stroke-width:0.5;stroke-linecap:butt;stroke-linejoin:bevel;stroke-miterlimit:4;stroke-opacity:1;stroke-dasharray:none;display:inline"/>
</g>
</svg>
