<?xml version="1.0" encoding="UTF-8" standalone="no"?>
<!DOCTYPE svg PUBLIC "-//W3C//DTD SVG 1.0//EN" "http://www.w3.org/TR/2001/REC-SVG-20010904/DTD/svg10.dtd">
<svg xmlns:svg="http://www.w3.org/2000/svg" xmlns="http://www.w3.org/2000/svg" version="1.0" width="100%" height="100%" viewBox="0 0 48 48" id="_house01" style="display:inline">
<defs id="defs2818"/>
<g id="house01" style="display:inline">
<path d="m 2.63,27.09 21.54,-0.56 4.97,3.41 16.20,-1.70 1.42,-0.42 -12.72,-15.07 -0.28,0.07 -0.42,0.21 L 14.14,7.54 2.63,27.09 z" id="p3674" style="fill:#76757b;fill-opacity:1;stroke:none"/>
<path d="M 13.78,8.18 2.62,27.09 13.28,26.81 l 6,-10.21 0,-0.34 -5.5,-8.06 z" id="p3872" style="fill:#3a2d1d;fill-opacity:1;stroke:none;display:inline"/>
<path d="M 12.03,25.87 3.25,26.03 l -0.62,1.06 9.40,-0.25 0,-0.96 z" id="p4207" style="fill:#201d1a;fill-opacity:0.86;stroke:none"/>
<path d="M 8.78,26.03 16.65,15.08" id="p4232-8" style="fill:none;stroke:#1d1a10;stroke-width:0.60;stroke-linecap:round;stroke-linejoin:miter;stroke-miterlimit:4;stroke-opacity:1;stroke-dasharray:none;display:inline"/>
<path d="M 5.17,26.18 14.71,12.45" id="p4232" style="fill:none;stroke:#1d1a10;stroke-width:0.60;stroke-linecap:round;stroke-linejoin:miter;stroke-miterlimit:4;stroke-opacity:1;stroke-dasharray:none"/>
<path d="M 5.40,36.05 5.68,35.70 12.22,34.56 25.59,37.40 25.52,39.68 24.74,40.17 5.40,36.05 z" id="p3682" style="fill:#87827e;fill-opacity:1;stroke:none;display:inline"/>
<path d="m 17.21,14.59 -5.56,7.65 -3.75,0 -0.09,1.15 0.28,0 0.09,0.34 2.40,0 0,0.78 0.43,0.15 -0.15,6.68 -5.75,0.56 0.06,0.56 0.65,0.15 -0.09,1.68 -0.34,0.37 0,1.18 2,-0.28 -0.09,-0.56 3.28,-0.5 0.15,0.34 1.06,-0.12 0,-0.21 5.18,1.06 0.06,-1.5 5.53,0.93 0.14,1.75 2.21,0.47 0.00,0.67 -0.43,0.43 0,1.56 0.78,-0.06 1.40,-0.43 -0.06,-1.12 2.56,-0.37 0.06,0.87 0.28,0.06 1.15,-0.37 1.5,0.37 L 32.5,38.75 l -0.15,-0.56 7.46,-1.84 0.78,0.06 0.34,-0.06 0.34,-7.68 -12.12,1.28 -3.06,-2.09 0,-2.59 c 0,-0.02 -3.2e-4,-0.04 0,-0.06 l -8.87,-10.59 z M 10.75,32.06 l 0.06,0.5 -0.37,0.15 0,0.28 L 7.75,33.21 7.75,33 7.40,33 7.31,32.28 10.75,32.06 z" id="p3676" style="fill:#8f3f34;fill-opacity:1;stroke:none;display:inline"/>
<path d="m 25.97,26.26 c -0.64,1.38 -2.67,5.25 -2.67,5.25 l -0.09,3.13 6.35,1.10 0.18,-6.07 -3.77,-3.40 z" id="p4393" style="fill:#591010;fill-opacity:0.19;stroke:none;display:inline"/>
<path d="m 12.03,32.28 15.11,2.21" id="p4311" style="fill:none;stroke:#330e04;stroke-width:0.2;stroke-linecap:butt;stroke-linejoin:miter;stroke-miterlimit:4;stroke-opacity:0.43;stroke-dasharray:none;display:inline"/>
<path d="m 12.10,25.66 15.64,1.09" id="p4315" style="fill:none;stroke:#330e04;stroke-width:0.2;stroke-linecap:butt;stroke-linejoin:miter;stroke-miterlimit:4;stroke-opacity:0.77;stroke-dasharray:none;display:inline"/>
<path d="m 12.18,22.99 12.21,0.41" id="p4317" style="fill:none;stroke:#330e04;stroke-width:0.2;stroke-linecap:butt;stroke-linejoin:miter;stroke-miterlimit:4;stroke-opacity:0.73;stroke-dasharray:none;display:inline"/>
<path d="m 12.21,21.90 11.39,0.07" id="p4319" style="fill:none;stroke:#330e04;stroke-width:0.2;stroke-linecap:butt;stroke-linejoin:miter;stroke-miterlimit:4;stroke-opacity:0.75;stroke-dasharray:none;display:inline"/>
<path d="m 17.21,14.59 -5.40,7.43 14.09,2.93 -8.68,-10.37 z" id="p3676-9" style="fill:#3f1c17;fill-opacity:0.24;stroke:none;display:inline"/>
<path d="M 12.14,28.37 28.46,29.91" id="p4313" style="fill:none;stroke:#330e04;stroke-width:0.2;stroke-linecap:butt;stroke-linejoin:miter;stroke-miterlimit:4;stroke-opacity:0.68;stroke-dasharray:none;display:inline"/>
<path d="m 7.90,22.25 -0.09,1.15 0.28,0 0.09,0.34 2.40,0 0,0.78 0.43,0.15 -0.15,6.68 -5.75,0.56 0.06,0.56 0.65,0.15 -0.09,1.68 -0.34,0.37 0,1.18 2,-0.28 -0.09,-0.56 3.28,-0.5 0.15,0.34 1.06,-0.12 0,-0.21 0.06,0.03 0.21,-12.25 -0.43,-0.09 -3.75,0 z m 2.84,9.81 0.06,0.5 -0.37,0.15 0,0.28 L 7.75,33.21 7.75,33 7.40,33 7.31,32.28 10.75,32.06 z" id="p4256" style="fill:#ab5b50;fill-opacity:0.65;stroke:none;display:inline"/>
<path d="M 11.84,34.65 12.12,21.43" id="p4326" style="fill:none;stroke:#502722;stroke-width:0.30;stroke-linecap:round;stroke-linejoin:miter;stroke-miterlimit:4;stroke-opacity:1;stroke-dasharray:none"/>
<path d="M 12.37,9.28 1,26.65 1.43,27.09 13.03,9.68 12.37,9.28 z" id="p3830" style="fill:#382d24;fill-opacity:0.31;stroke:none"/>
<path d="M 7.81,16.25 1,26.65 1.43,27.09 8,17.25 l -0.18,-1 z" id="p3832" style="fill:#382d24;fill-opacity:0.31;stroke:none"/>
<path d="m 16.33,9.16 1.81,1.43 0.33,0 1.73,1.31 0.55,0.04 1.39,1.10 0.55,0.12 1.48,1.22 0.42,0 1.52,1.26 0.38,0 1.43,1.10 0.42,0 1.56,1.22 0.16,-0.04 1.69,1.22 0.29,0 1.43,1.26 0.33,-0.04 1.43,1.18 0.25,-0.04 1.43,1.14 0.21,-0.08 1.26,1.05 0.21,0 1.18,0.97 0.21,-0.04 1.35,1.18 0.29,-0.08 1.05,0.97 0.27,-0.00 1.37,1.27" id="p3911" style="fill:none;stroke:#2e2e2e;stroke-width:0.1;stroke-linecap:butt;stroke-linejoin:miter;stroke-miterlimit:4;stroke-opacity:0.70;stroke-dasharray:none;display:inline"/>
<path d="m 12.07,24.37 c 0,0 2.30,-0.16 2.58,0.60 0.28,0.76 0.56,2.54 1.29,3.19 0.72,0.64 2.42,0.48 2.42,0.48 0,0 0.96,-5.08 -0.92,-6.26 -1.89,-1.17 -3.43,-3.75 -3.43,-3.75 l -1.89,2.66 -0.04,3.06 z" id="p4359" style="fill:#ae4d3f;fill-opacity:0.28;stroke:none"/>
<path d="m 17.43,11.19 0.55,0.12 1.81,1.35 0.46,0 1.56,1.22 0.55,0.08 1.52,1.18 0.42,0.04 1.60,1.22 0.46,0 1.56,1.31 0.25,-0.08 1.73,1.31 0.29,-0.04 1.60,1.22 0.25,0 1.39,1.18 0.25,-0.04 1.65,1.26 0.16,0 1.52,1.10 0.16,-0.04 1.52,1.14 0.21,0 1.18,1.01 0.29,-0.04 1.22,1.01 0.22,0.00 1.38,1.21" id="p3913" style="fill:none;stroke:#2e2e2e;stroke-width:0.1;stroke-linecap:butt;stroke-linejoin:miter;stroke-miterlimit:4;stroke-opacity:0.74;stroke-dasharray:none;display:inline"/>
<path d="m 44.97,26.64 0.43,1.07 -0.09,0 -1.02,-0.95 -0.22,-0.04 0.43,1.09 -0.15,0 -1.24,-1.11 -0.24,0.00 0.55,1.16 -0.28,0 -1.20,-1.08 -0.20,0 L 42.28,27.93 42,27.96 l -1.30,-1.06 -0.27,-0.04 0.64,1.23 -0.37,0.06 -1.31,-1.18 -0.21,0 0.46,1.18 -0.34,0.09 -1.25,-1.06 -0.31,0 0.43,1.21 -0.43,0 -1.37,-1.21 -0.40,0.03 0.43,1.31 L 36,28.62 l -1.56,-1.31 -0.43,0 0.43,1.46 c 0.00,0.01 -0.00,0.45 0,0.59 L 45.34,28.25 46.68,27.84 46.40,27.43 45.14,26.61 44.97,26.64 z" id="p3821" style="fill:#3c3c3c;fill-opacity:0.42;stroke:none;display:inline"/>
<path d="m 19.12,13.39 0.67,0.04 1.81,1.43 0.25,-0.08 1.86,1.26 0.29,0 1.86,1.35 0.33,-0.04 1.65,1.31 0.21,-0.08 1.73,1.35 0.25,-0.04 1.69,1.31 0.25,-0.08 1.52,1.22 0.33,-0.04 1.69,1.35 0.25,-0.12 1.39,1.18 0.16,-0.08 1.52,1.22 0.25,-0.04 1.22,1.01 0.25,0 1.48,1.31" id="p3915" style="fill:none;stroke:#2e2e2e;stroke-width:0.1;stroke-linecap:butt;stroke-linejoin:miter;stroke-miterlimit:4;stroke-opacity:0.76;stroke-dasharray:none;display:inline"/>
<path d="m 20.98,15.76 0.59,-0.04 1.81,1.31 0.46,0.04 1.81,1.31 0.38,-0.04 1.73,1.43 0.38,-0.08 1.69,1.35 0.33,-0.04 1.60,1.22 0.29,-0.04 1.69,1.31 0.29,-0.08 1.43,1.26 0.33,-0.08 1.52,1.35 0.29,-0.08 1.35,1.13 0.29,-0.03 1.77,1.56" id="p3917" style="fill:none;stroke:#2e2e2e;stroke-width:0.1;stroke-linecap:butt;stroke-linejoin:miter;stroke-miterlimit:4;stroke-opacity:0.78;stroke-dasharray:none;display:inline"/>
<path d="m 22.93,18.08 0.50,-0.04 1.94,1.48 0.46,-0.04 1.65,1.31 0.50,-0.08 1.65,1.39 0.46,-0.08 1.65,1.31 0.25,-0.12 1.77,1.52 0.38,-0.04 1.60,1.31 0.25,-0.08 1.52,1.22 0.46,-0.04 1.60,1.39" id="p3919" style="fill:none;stroke:#2e2e2e;stroke-width:0.1;stroke-linecap:butt;stroke-linejoin:miter;stroke-miterlimit:4;stroke-opacity:0.79;stroke-dasharray:none;display:inline"/>
<path d="m 24.96,20.58 0.67,-0.08 1.65,1.43 0.50,-0.04 1.86,1.39 0.38,-0.16 1.77,1.52 0.42,-0.08 1.56,1.26 0.38,0.04 1.69,1.39 0.50,-0.04 1.48,1.18" id="p3921" style="fill:none;stroke:#2e2e2e;stroke-width:0.1;stroke-linecap:butt;stroke-linejoin:miter;stroke-miterlimit:4;stroke-opacity:0.80;stroke-dasharray:none;display:inline"/>
<path d="m 27.03,23.16 0.71,-0.08 1.81,1.48 0.42,-0.04 1.73,1.39 0.55,0.04 1.69,1.31 0.38,-0.04 1.94,1.60" id="p3923" style="fill:none;stroke:#2e2e2e;stroke-width:0.1;stroke-linecap:butt;stroke-linejoin:miter;stroke-miterlimit:4;stroke-opacity:0.82;stroke-dasharray:none;display:inline"/>
<path d="m 32.40,27.36 -0.54,0.02 0.10,1.29 -0.56,0.09 -0.37,0.96 3.68,-0.40 -0.28,-0.75 -0.46,0.03 -1.56,-1.25 z" id="p3824" style="fill:#d7d7d7;fill-opacity:0.26;stroke:none;display:inline"/>
<path d="m 29.27,25.99 0.55,-0.08 2.03,1.43 0.55,-0.04 2.28,1.86" id="p3925" style="fill:none;stroke:#2e2e2e;stroke-width:0.1;stroke-linecap:butt;stroke-linejoin:miter;stroke-miterlimit:4;stroke-opacity:0.82;stroke-dasharray:none;display:inline"/>
<path d="m 14.65,7.68 1,1.31 19.75,5.34 L 34.06,12.75 33.78,12.81 33.34,13.03 14.65,7.68 z" id="p3869" style="fill:#7f838e;fill-opacity:1;stroke:none;display:inline"/>
<path d="m 19.00,9.98 1.55,1.15 0.39,0.04 1.63,1.28 0.35,-0.08 1.59,1.28 0.35,0.04 1.46,1.15 0.31,0 1.46,1.15 0.35,0 1.46,1.10 0.31,-0.04 1.46,1.24 0.31,-0.04 1.37,1.15 0.17,0 1.55,1.19 0.17,-0.04 1.41,1.15 0.13,-0.04 1.46,1.10 0.17,-0.04 1.28,1.01 0.22,-0.04 1.24,0.97 0.26,0.08 1.06,0.93 0.26,0 1.19,0.97 0.26,0.04 1.19,1.19" id="p3748" style="color:#000000;fill:none;stroke:#2e2e2e;stroke-width:0.1;stroke-linecap:butt;stroke-linejoin:miter;stroke-miterlimit:4;stroke-opacity:0.66;stroke-dasharray:none;stroke-dashoffset:0;marker:none;visibility:visible;display:inline;overflow:visible;enable-background:accumulate"/>
<path d="m 21.17,10.47 1.68,1.28 0.26,0 1.55,1.19 0.31,0 1.41,1.15 0.31,0 1.63,1.19 0.17,0 1.46,1.06 0.17,0 1.50,1.15 0.17,-0.04 1.46,1.15 0.17,-0.04 1.46,1.15 0.17,0 1.41,1.10 0.22,-0.08 1.41,1.15 0.13,-0.04 1.19,0.97 0.08,-0.04 1.37,1.06 0.17,0 1.19,0.97 0.17,0 1.24,0.97 0.13,-0.04 0.93,0.84 0.31,0 1.28,1.15" id="p3772" style="color:#000000;fill:none;stroke:#2e2e2e;stroke-width:0.1;stroke-linecap:butt;stroke-linejoin:miter;stroke-miterlimit:4;stroke-opacity:0.62;stroke-dasharray:none;stroke-dashoffset:0;marker:none;visibility:visible;display:inline;overflow:visible;enable-background:accumulate"/>
<path d="m 16.58,35.55 0.49,-14.02 -0.54,-0.09 0.04,-1.13 6.02,0.09 0.88,2.56 -0.34,13.92 -6.56,-1.33 z" id="p4097" style="fill:#f4f4f4;fill-opacity:1;stroke:none;display:inline"/>
<path d="M 17.93,21.49 17.45,35.68" id="p4197" style="color:#000000;fill:none;stroke:#68554f;stroke-width:0.2;stroke-linecap:butt;stroke-linejoin:miter;stroke-miterlimit:4;stroke-opacity:1;stroke-dasharray:none;stroke-dashoffset:0;marker:none;visibility:visible;display:inline;overflow:visible;enable-background:accumulate"/>
<path d="m 16.58,35.55 0.49,-14.02 -0.54,-0.09 0.04,-1.13 6.02,0.09 0.88,2.56 -0.34,13.92" id="p4097-3" style="fill:none;stroke:#68554f;stroke-width:0.2;stroke-miterlimit:4;stroke-opacity:1;stroke-dasharray:none;display:inline"/>
<path d="m 23.61,11.09 1.37,1.15 0.35,0 1.41,1.19 0.31,0 1.50,1.15 0.17,0 1.41,1.01 0.22,0 1.37,1.15 0.17,-0.04 1.41,1.10 0.17,-0.04 1.55,1.24 0.17,0 1.28,1.01 0.17,-0.04 1.15,0.97 0.22,-0.04 1.19,0.97 0.17,0.04 1.32,1.01 0.17,0 1.19,0.93 0.13,0 1.32,1.01 0.31,0.08 1.06,0.79" id="p3774" style="color:#000000;fill:none;stroke:#2e2e2e;stroke-width:0.1;stroke-linecap:butt;stroke-linejoin:miter;stroke-miterlimit:4;stroke-opacity:0.58;stroke-dasharray:none;stroke-dashoffset:0;marker:none;visibility:visible;display:inline;overflow:visible;enable-background:accumulate"/>
<path d="m 25.69,11.67 1.28,1.10 0.26,-0.04 1.37,1.10 0.26,0 1.37,1.10 0.22,-0.04 1.24,1.10 0.26,-0.04 1.32,1.10 0.17,-0.04 1.41,1.15 0.17,-0.04 1.32,1.01 0.17,-0.04 1.32,1.10 0.17,-0.04 1.19,0.97 0.17,-0.04 1.10,0.97 0.22,0 1.01,0.84 0.26,0.13 1.37,0.97" id="p3776" style="color:#000000;fill:none;stroke:#2e2e2e;stroke-width:0.1;stroke-linecap:butt;stroke-linejoin:miter;stroke-miterlimit:4;stroke-opacity:0.54;stroke-dasharray:none;stroke-dashoffset:0;marker:none;visibility:visible;display:inline;overflow:visible;enable-background:accumulate"/>
<path d="m 27.51,12.20 1.15,0.97 0.26,0 1.37,1.10 0.22,0 1.28,1.10 0.22,-0.04 1.28,1.10 0.22,-0.04 1.28,1.01 0.22,0 1.15,0.97 0.22,0 1.15,0.97 0.22,0 1.24,1.01 0.13,-0.04 1.19,0.97 0.26,0.08 1.32,0.97" id="p3778" style="color:#000000;fill:none;stroke:#2e2e2e;stroke-width:0.1;stroke-linecap:butt;stroke-linejoin:miter;stroke-miterlimit:4;stroke-opacity:0.50;stroke-dasharray:none;stroke-dashoffset:0;marker:none;visibility:visible;display:inline;overflow:visible;enable-background:accumulate"/>
<path d="m 29.10,12.64 1.15,0.93 0.26,0 1.28,1.06 0.08,0 1.32,1.10 0.17,0 1.32,0.97 0.13,0 1.28,1.01 0.08,-0.04 1.28,1.01 0.17,0 1.10,0.93 0.13,-0.04 1.19,0.97 0.22,0 0.79,0.70" id="p3780" style="color:#000000;fill:none;stroke:#2e2e2e;stroke-width:0.1;stroke-linecap:butt;stroke-linejoin:miter;stroke-miterlimit:4;stroke-opacity:0.47;stroke-dasharray:none;stroke-dashoffset:0;marker:none;visibility:visible;display:inline;overflow:visible;enable-background:accumulate"/>
<path d="m 30.83,13.13 1.01,0.93 0.26,0.04 1.10,0.97 0.31,-0.04 1.28,1.06 0.13,-0.04 1.15,0.97 0.13,0 1.10,0.88 0.13,-0.04 1.32,1.10 0.22,0 0.97,0.88" id="p3782" style="color:#000000;fill:none;stroke:#2e2e2e;stroke-width:0.1;stroke-linecap:butt;stroke-linejoin:miter;stroke-miterlimit:4;stroke-opacity:0.43;stroke-dasharray:none;stroke-dashoffset:0;marker:none;visibility:visible;display:inline;overflow:visible;enable-background:accumulate"/>
<path d="m 32.20,13.53 1.01,0.79 0.17,0 1.37,1.15 0.17,0 1.10,0.97 0.17,0 1.01,0.79 0.17,0.04 0.93,0.75" id="p3784" style="color:#000000;fill:none;stroke:#2e2e2e;stroke-width:0.1;stroke-linecap:butt;stroke-linejoin:miter;stroke-miterlimit:4;stroke-opacity:0.39;stroke-dasharray:none;stroke-dashoffset:0;marker:none;visibility:visible;display:inline;overflow:visible;enable-background:accumulate"/>
<path d="m 33.75,14.01 0.93,0.70 0.17,0 1.15,1.01 0.17,-0.08 0.88,0.75" id="p3786" style="color:#000000;fill:none;stroke:#2e2e2e;stroke-width:0.1;stroke-linecap:butt;stroke-linejoin:miter;stroke-miterlimit:4;stroke-opacity:0.35;stroke-dasharray:none;stroke-dashoffset:0;marker:none;visibility:visible;display:inline;overflow:visible;enable-background:accumulate"/>
<path d="m 40.06,30.09 -7.81,0.87 -0.18,6.28 0.37,0.90 7.37,-1.81 0.15,0 0.09,-6.25 z" id="p3863" style="fill:#d08b7f;fill-opacity:1;stroke:none;display:inline"/>
<path d="m 37.60,32.02 -0.32,2.61 2.02,0.37 0.10,-2.08 -0.85,-1.06 -0.96,0.16 z" id="p3868" style="fill:#f4f4f4;fill-opacity:0.20;stroke:none;display:inline"/>
<path d="m 35.93,32.18 -3.78,0.75 -0.09,4.15 0.46,1.06 1.78,-0.46 -0.43,-1.06 1.59,-1.56 0.46,-2.87 z" id="p3866" style="fill:#f4f4f4;fill-opacity:0.20;stroke:none;display:inline"/>
<path d="M 38.90,28.90 33.5,29.46 33.43,32.09 32.75,32.25 l 0.03,1.21 1.56,-0.09 -0.06,-0.34 c 0,0 1.23,-0.08 2.09,-0.18 0.85,-0.10 1.81,-0.56 1.81,-0.56 l 0,0.18 1.12,-0.28 0,-1.18 -0.43,0.12 0.03,-2.21 z" id="p3860" style="fill:#f4f4f4;fill-opacity:1;stroke:none;display:inline"/>
<path d="m 17.07,21.49 4.72,0.11" id="p4174" style="color:#000000;fill:none;stroke:#68554f;stroke-width:0.2;stroke-linecap:butt;stroke-linejoin:miter;stroke-miterlimit:4;stroke-opacity:1;stroke-dasharray:none;stroke-dashoffset:0;marker:none;visibility:visible;display:inline;overflow:visible;enable-background:accumulate"/>
<path d="m 17.21,14.59 -5.56,7.65 -3.75,0 -0.09,1.15 0.28,0 0.09,0.34 2.40,0 0,0.78 0.43,0.15 L 11,25.53 c 1.03,0.11 2.06,0.09 2.06,0.09 0,0 2.01,-2.61 3.43,-2.31 1.41,0.29 4.91,5.87 6.40,6.46 1.49,0.59 6.71,1.93 6.71,1.93 l 0.06,-0.65 0.53,0 0.53,0 0,0.81 1.12,-0.21 0,-0.96 0.43,-0.06 0,0.5 7.90,-1.25 0,1.40 0.93,-0.12 0.12,-2.5 -12.12,1.28 -3.06,-2.09 0,-2.59 c 0,-0.02 -3.2e-4,-0.04 0,-0.06 l -8.87,-10.59 z" id="p4071" style="fill:#311712;fill-opacity:0.26;stroke:none;display:inline"/>
<path d="m 22.21,27.20 c 0,0 -0.14,3.66 -0.14,3.97 0,0.30 1.08,1.81 1.08,0.57 0,-1.23 0.07,-4.09 0.07,-4.24 0,-0.15 -1.08,-0.84 -1.01,-0.30 z" id="p4361" style="fill:#d7d7d7;fill-opacity:0.70;stroke:none"/>
<path d="m 37.68,29.03 -0.56,0.06 -0.06,2.09 0.59,-0.06 0.03,-2.09 z m -0.84,0.09 -0.87,0.09 -0.03,2.12 0.84,-0.09 0.06,-2.12 z M 35.68,29.25 34.65,29.34 34.68,31.5 35.65,31.37 35.68,29.25 z" id="p3928" style="fill:#1c1c1c;fill-opacity:0.93;stroke:none;display:inline"/>
<path d="m 17.21,14.59 -2.15,2.93 c 1.46,0.19 2.59,0.24 3.03,0.87 C 18.63,19.18 27.37,30.5 27.37,30.5 c 0,0 0.61,0.66 1.15,0.84 0.54,0.18 1.12,0.06 1.12,0.06 l 0.06,-1.09 11.53,-0.87 0.03,-0.78 -12.12,1.28 -3.06,-2.09 0,-2.59 c 0,-0.02 -3.2e-4,-0.04 0,-0.06 l -8.87,-10.59 z" id="p4126" style="fill:#191715;fill-opacity:0.34;stroke:none;display:inline"/>
<path d="M 29.49,29.56 45.74,28.05" id="p3818" style="fill:none;stroke:#212121;stroke-width:0.60;stroke-linecap:round;stroke-linejoin:miter;stroke-miterlimit:4;stroke-opacity:1;stroke-dasharray:none;display:inline"/>
<path d="M 0.99,26.67 13.72,7.26 l 0.42,0 17.63,21.82 -0.63,0.07 -0.42,0.63 -0.56,-0.49 -1.46,1.23 -0.30,-0.60 -0.64,-0.34 c 0,0 0.08,-0.54 -0.63,-1.06 -0.94,-0.68 -1.56,-1.84 -1.77,-2.41 -0.21,-0.56 -0.85,-0.78 -0.85,-0.78 0,0 0.14,-0.35 -0.09,-0.66 -0.21,-0.27 -0.61,-0.25 -0.61,-0.25 0,0 0.01,-0.67 -0.49,-1.06 -0.58,-0.44 -1.49,-1.67 -1.69,-2.26 -0.14,-0.42 -0.72,-0.72 -0.72,-0.72 0,0 -0.05,-0.46 -0.17,-0.61 -0.12,-0.15 -0.53,-0.23 -0.53,-0.23 0,0 0.22,-0.29 -0.39,-0.88 -0.82,-0.77 -1.32,-1.41 -1.52,-1.89 -0.20,-0.50 -0.71,-0.85 -0.71,-0.85 0,0 -0.02,-0.40 -0.14,-0.51 -0.12,-0.11 -0.45,-0.09 -0.45,-0.09 0,0 -0.03,-0.59 -0.39,-0.94 -0.35,-0.35 -1.02,-0.78 -1.35,-1.70 -0.20,-0.57 -0.71,-0.63 -0.71,-0.63 0,0 0.05,-0.72 -0.45,-0.72 -0.49,0.00 -0.39,0.86 -0.39,0.86 0,0 -0.31,-0.25 -0.56,0.49 -0.24,0.75 -1.32,1.95 -1.64,2.21 -0.24,0.19 -0.40,0.90 -0.40,0.90 0,0 -0.23,-0.10 -0.44,0.17 -0.21,0.28 -0.06,0.61 -0.06,0.61 0,0 -0.42,0.07 -0.63,0.63 C 9.59,17.71 9.10,18.56 8.60,18.92 8.10,19.27 8.17,19.84 8.17,19.84 c 0,0 -0.21,-0.14 -0.42,0.14 -0.21,0.28 -0.12,0.51 -0.12,0.51 0,0 -0.36,0.12 -0.51,0.55 -0.14,0.42 -0.73,1.53 -1.27,1.91 -0.33,0.23 -0.23,0.76 -0.23,0.76 0,0 -0.26,-0.02 -0.40,0.09 -0.12,0.11 -0.04,0.54 -0.04,0.54 0,0 -0.34,0.09 -0.45,0.36 -0.34,0.88 -0.99,1.71 -1.20,1.84 -0.21,0.13 -0.14,0.56 -0.14,0.56 0,0 -0.30,-0.01 -0.40,0.13 -0.07,0.12 -0.30,0.47 -0.30,0.47 L 2.28,27.41 2.13,27.52 1.65,26.95 1.49,27.16 0.99,26.67 z" id="p3685" style="fill:#f0f2ef;fill-opacity:1;stroke:none;display:inline"/>
<path d="M 13.71,7.25 1,26.65 1.43,27.09 13.84,8.43 30.75,29.78 l 0.37,-0.62 0.65,-0.06 -17.62,-21.84 -0.43,0 z" id="p3801" style="fill:#a9adb7;fill-opacity:1;stroke:none;display:inline"/>
<path d="M 13.96,7.36 31.39,29.06" id="p3867" style="fill:none;stroke:#dee0e3;stroke-width:0.60;stroke-linecap:butt;stroke-linejoin:miter;stroke-miterlimit:4;stroke-opacity:1;stroke-dasharray:none"/>
<path d="M 2.08,27.27 13.90,9.89 29.38,29.86" id="p3804" style="fill:none;stroke:#4e4444;stroke-width:0.2;stroke-linecap:butt;stroke-linejoin:miter;stroke-miterlimit:4;stroke-opacity:1;stroke-dasharray:none;display:inline"/>
<path d="m 30.65,34.21 -1.12,0.12 0.06,0.96 -0.37,0.06 0,0.53 L 26.93,36.43 26.90,35.96 26.62,36 l 0,-1.03 -1.65,0.21 0,2.09 0,0.68 c 0,0 -0.09,0.09 -0.18,0.21 -0.09,0.11 -0.20,0.28 -0.18,0.46 0.01,0.14 0.03,0.70 0.06,1.31 l 0.65,-0.06 1.40,-0.43 -0.06,-1.12 2.56,-0.37 0.06,0.87 0.28,0.06 1.15,-0.37 0.06,0 -0.12,-4.31 z" id="p3970" style="fill:#d08b7f;fill-opacity:1;stroke:none;display:inline"/>
<path d="m 40.81,30.46 -0.03,5.78" id="p3996" style="fill:none;stroke:#cd9078;stroke-width:0.30;stroke-linecap:butt;stroke-linejoin:miter;stroke-miterlimit:4;stroke-opacity:1;stroke-dasharray:none;display:inline"/>
<path d="m 30.78,30.84 -0.56,0.09 -0.06,4.43 -0.40,0.12 0.09,0.56 -1,0.21 0.06,1.75 0.31,-0.06 0.06,0.87 0.28,0.06 1.15,-0.37 0.03,0 c 0.00,-1.56 0.03,-7.68 0.03,-7.68 z" id="p3999" style="fill:#d8a198;fill-opacity:0.79;stroke:none;display:inline"/>
<path d="m 32.01,31.82 -0.07,5.52 0.33,0.84" id="p4047" style="color:#000000;fill:none;stroke:#cd9078;stroke-width:0.30;stroke-linecap:butt;stroke-linejoin:miter;stroke-miterlimit:4;stroke-opacity:1;stroke-dasharray:none;stroke-dashoffset:0;marker:none;visibility:visible;display:inline;overflow:visible;enable-background:accumulate"/>
<path d="m 32.30,29.50 -0.18,7.73 0.29,0.81" id="p4066" style="fill:none;stroke:#80452e;stroke-width:0.2;stroke-linecap:butt;stroke-linejoin:miter;stroke-miterlimit:4;stroke-opacity:1;stroke-dasharray:none;display:inline"/>
<path d="M 18.62,22.28 18.53,25.18 19.93,25.25 20,22.28 l -1.37,0 z m 1.65,0 L 20.25,25.25 l 1.78,0.06 0.12,-3 -1.87,-0.03 z m -1.75,3.21 -0.06,2.87 1.43,0.09 L 19.93,25.56 18.53,25.5 z M 20.25,25.56 20.21,28.5 l 1.71,0.12 0.09,-3 L 20.25,25.56 z m -1.81,3.12 -0.06,2.62 1.5,0.18 0.03,-2.71 -1.46,-0.09 z m 1.78,0.12 -0.06,2.71 1.65,0.21 0.09,-2.84 -1.68,-0.09 z" id="p4100" style="fill:#141211;fill-opacity:1;stroke:none;display:inline"/>
<path d="M 14.32,18.33 19.52,18.48" id="p4328" style="fill:none;stroke:#2f1610;stroke-width:0.2;stroke-linecap:butt;stroke-linejoin:miter;stroke-miterlimit:4;stroke-opacity:0.52;stroke-dasharray:none"/>
<path d="m 11.86,34.57 5.68,1.20 -0.07,-0.11 4.74,0.97 0.03,0.03 2.68,0.62" id="p4330" style="fill:none;stroke:#3c2626;stroke-width:0.2;stroke-linecap:butt;stroke-linejoin:round;stroke-miterlimit:4;stroke-opacity:1;stroke-dasharray:none"/>
<path d="m 6.11,32.77 -0.10,1.68 -0.32,0.36 0,0.98" id="p4421" style="fill:none;stroke:#dabcb6;stroke-width:0.40;stroke-linecap:butt;stroke-linejoin:miter;stroke-miterlimit:4;stroke-opacity:0.31;stroke-dasharray:none;display:inline"/>
<path d="M 10.78,31.37 5.12,31.93 5.18,32.5 5.59,32.59 c 0.24,0.02 0.56,0.06 0.56,0.06 l 1.18,-0.06 -0.03,-0.31 3.43,-0.21 0.03,0.12 1.09,-0.15 0.06,-0.40 0,-0.06 c 0,0 -0.79,-0.12 -1.15,-0.18 z" id="p4332" style="fill:#f9fffe;fill-opacity:1;stroke:none"/>
<path d="m 21.94,32.25 -0.11,4.00 -4.03,-0.84 0.08,-3.78 4.06,0.61 z" id="p4363" style="fill:#d7d7d7;fill-opacity:0.34;stroke:none"/>
<path d="m 25.27,35.43 -0.01,2.57 -0.43,0.45 0.01,1.61" id="p4365" style="fill:none;stroke:#5c1d1d;stroke-width:0.5;stroke-linecap:butt;stroke-linejoin:miter;stroke-miterlimit:4;stroke-opacity:0.76;stroke-dasharray:none;display:inline"/>
<path d="m 29.81,34.76 0.01,0.52" id="p4368" style="color:#000000;fill:none;stroke:#5c1d1d;stroke-width:0.5;stroke-linecap:butt;stroke-linejoin:miter;stroke-miterlimit:4;stroke-opacity:0.76;stroke-dasharray:none;stroke-dashoffset:0;marker:none;visibility:visible;display:inline;overflow:visible;enable-background:accumulate"/>
<path d="m 29.43,35.44 0.01,0.48" id="p4370" style="color:#000000;fill:none;stroke:#5c1d1d;stroke-width:0.5;stroke-linecap:butt;stroke-linejoin:miter;stroke-miterlimit:4;stroke-opacity:0.76;stroke-dasharray:none;stroke-dashoffset:0;marker:none;visibility:visible;display:inline;overflow:visible;enable-background:accumulate"/>
<path d="M 5.92,32.69 7.25,32.58" id="p4396" style="fill:none;stroke:#34140d;stroke-width:0.30;stroke-linecap:butt;stroke-linejoin:miter;stroke-miterlimit:4;stroke-opacity:1;stroke-dasharray:none"/>
<path d="m 10.84,32.21 1.05,-0.05" id="p4398" style="color:#000000;fill:none;stroke:#34140d;stroke-width:0.30;stroke-linecap:butt;stroke-linejoin:miter;stroke-miterlimit:4;stroke-opacity:1;stroke-dasharray:none;stroke-dashoffset:0;marker:none;visibility:visible;display:inline;overflow:visible;enable-background:accumulate"/>
<path d="M 5.71,35.84 24.38,39.78" id="p4424" style="fill:none;stroke:#4c4c4c;stroke-width:0.5;stroke-linecap:round;stroke-linejoin:miter;stroke-miterlimit:4;stroke-opacity:1;stroke-dasharray:none"/>
<path d="m 24.32,35.30 1.32,0.11 4.59,-0.78" id="p4284" style="fill:none;stroke:#764d2b;stroke-width:0.2;stroke-linecap:butt;stroke-linejoin:miter;stroke-miterlimit:4;stroke-opacity:0.86;stroke-dasharray:none"/>
<path d="m 25.66,35.33 -1.39,-0.07 0.02,-0.44 5.17,-0.71 0.81,0.05 0,0.39 -4.61,0.79 z" id="p4069" style="fill:#f9fffe;fill-opacity:1;stroke:none"/>
<path d="m 24.53,40.19 0,-1.81 0.43,-0.40 2e-6,-2.53 -0.71,-0.08 0,-0.54 5.26,-0.74 0.20,-4.34" id="p4282" style="fill:none;stroke:#2f1c0b;stroke-width:0.2;stroke-linecap:butt;stroke-linejoin:miter;stroke-miterlimit:4;stroke-opacity:1;stroke-dasharray:none"/>
<path d="m 15.65,9 19.75,5.34" id="p3869-6" style="fill:none;stroke:#4b4b4b;stroke-width:0.2;stroke-miterlimit:4;stroke-opacity:1;stroke-dasharray:none;display:inline"/>
<path d="M 0.99,26.67 13.72,7.26 l 0.42,0 17.63,21.82 -0.63,0.07 -0.42,0.63 -0.56,-0.49 -1.46,1.23 -0.30,-0.60 -0.64,-0.34 c 0,0 0.08,-0.54 -0.63,-1.06 -0.94,-0.68 -1.56,-1.84 -1.77,-2.41 -0.21,-0.56 -0.85,-0.78 -0.85,-0.78 0,0 0.14,-0.35 -0.09,-0.66 -0.21,-0.27 -0.61,-0.25 -0.61,-0.25 0,0 0.01,-0.67 -0.49,-1.06 -0.58,-0.44 -1.49,-1.67 -1.69,-2.26 -0.14,-0.42 -0.72,-0.72 -0.72,-0.72 0,0 -0.05,-0.46 -0.17,-0.61 -0.12,-0.15 -0.53,-0.23 -0.53,-0.23 0,0 0.22,-0.29 -0.39,-0.88 -0.82,-0.77 -1.32,-1.41 -1.52,-1.89 -0.20,-0.50 -0.71,-0.85 -0.71,-0.85 0,0 -0.02,-0.40 -0.14,-0.51 -0.12,-0.11 -0.45,-0.09 -0.45,-0.09 0,0 -0.03,-0.59 -0.39,-0.94 -0.35,-0.35 -1.02,-0.78 -1.35,-1.70 -0.20,-0.57 -0.71,-0.63 -0.71,-0.63 0,0 0.05,-0.72 -0.45,-0.72 -0.49,0.00 -0.39,0.86 -0.39,0.86 0,0 -0.31,-0.25 -0.56,0.49 -0.24,0.75 -1.32,1.95 -1.64,2.21 -0.24,0.19 -0.40,0.90 -0.40,0.90 0,0 -0.23,-0.10 -0.44,0.17 -0.21,0.28 -0.06,0.61 -0.06,0.61 0,0 -0.42,0.07 -0.63,0.63 C 9.59,17.71 9.10,18.56 8.60,18.92 8.10,19.27 8.17,19.84 8.17,19.84 c 0,0 -0.21,-0.14 -0.42,0.14 -0.21,0.28 -0.12,0.51 -0.12,0.51 0,0 -0.36,0.12 -0.51,0.55 -0.14,0.42 -0.73,1.53 -1.27,1.91 -0.33,0.23 -0.23,0.76 -0.23,0.76 0,0 -0.26,-0.02 -0.40,0.09 -0.12,0.11 -0.04,0.54 -0.04,0.54 0,0 -0.34,0.09 -0.45,0.36 -0.34,0.88 -0.99,1.71 -1.20,1.84 -0.21,0.13 -0.14,0.56 -0.14,0.56 0,0 -0.30,-0.01 -0.40,0.13 -0.07,0.12 -0.30,0.47 -0.30,0.47 L 2.28,27.41 2.13,27.52 1.65,26.95 1.49,27.16 0.99,26.67 z" id="p3685-5" style="fill:none;stroke:#555555;stroke-width:0.30;stroke-miterlimit:4;stroke-opacity:1;stroke-dasharray:none;display:inline"/>
<path d="M 13.71,7.25 1,26.65 l 0.5,0.5 0.15,-0.18 0.46,0.56 0.15,-0.12 0.34,0.37 c 0,0 0.23,-0.34 0.31,-0.46 0.09,-0.15 0.40,-0.15 0.40,-0.15 0,0 0.00,-0.06 0,-0.09 l 7.62,-0.18 -0.09,4.5 -5.75,0.56 0.06,0.56 0.65,0.15 -0.09,1.68 -0.34,0.37 0,1.18 0,0.15 19.34,4.12 0.43,-0.28 0.12,0 1.40,-0.43 -0.06,-1.12 2.56,-0.37 0.06,0.87 0.28,0.06 1.15,-0.37 1.5,0.37 L 32.5,38.75 32.34,38.18 39.81,36.34 40.59,36.40 41.15,36.23 41.28,28.68 45.34,28.25 46.78,27.81 34.06,12.75 l -0.28,0.06 -0.43,0.21 -18.87,-5.37 -0.31,-0.40 -0.43,0 z M 10.75,32.06 l 0.06,0.5 -0.37,0.15 0,0.28 L 7.75,33.21 7.75,33 7.40,33 7.31,32.28 10.75,32.06 z" id="stroke01" style="fill:none;stroke:#000000;stroke-width:0.5;stroke-linecap:butt;stroke-linejoin:miter;stroke-miterlimit:4;stroke-opacity:1;stroke-dasharray:none;display:inline"/>
</g>
</svg>
