<?xml version="1.0" encoding="UTF-8" standalone="no"?>
<!DOCTYPE svg PUBLIC "-//W3C//DTD SVG 1.0//EN" "http://www.w3.org/TR/2001/REC-SVG-20010904/DTD/svg10.dtd">
<svg xmlns:svg="http://www.w3.org/2000/svg" xmlns="http://www.w3.org/2000/svg" version="1.0" width="100%" height="100%" viewBox="0 0 48 48" id="_match01" style="display:inline">
<defs id="defs2385"/>
<g id="layer2" style="display:inline">
<path d="M 8.62,41.20 L 11.10,43.14 L 37.94,8.86 C 37.94,8.86 41.18,5.84 39.02,4.23 C 36.87,2.61 34.60,7.14 34.60,7.14 L 8.62,41.20 z" id="p2482" style="fill:#fee3af;fill-opacity:1;fill-rule:evenodd;stroke:none;"/>
<path d="M 37.81,3.90 C 36.09,4.15 34.59,7.15 34.59,7.15 L 30.84,12.06 L 34.40,13.37 L 37.93,8.87 C 37.93,8.87 41.18,5.83 39.03,4.21 C 38.62,3.91 38.20,3.84 37.81,3.90 z" id="p3275" style="opacity:1;fill:#af5d12;fill-opacity:0.19;fill-rule:evenodd;stroke:none;display:inline"/>
<path d="M 39.09,4.28 L 25.56,21.68 L 20.59,27.84 L 16.53,30.84 L 13.71,34.53 L 19.40,29.87 L 18.65,31.40 L 9.87,42.18 L 11.09,43.15 L 37.93,8.87 C 37.93,8.87 41.10,5.91 39.09,4.28 z" id="p3273" style="fill:#e6b987;fill-opacity:1;fill-rule:evenodd;stroke:none;display:inline"/>
<path d="M 37.81,3.90 C 36.09,4.15 34.59,7.15 34.59,7.15 L 36.21,7.34 L 37.68,9.18 L 37.93,8.87 C 37.93,8.87 41.18,5.83 39.03,4.21 C 38.62,3.91 38.20,3.84 37.81,3.90 z" id="p3262" style="fill:#eb2d30;fill-opacity:1;fill-rule:evenodd;stroke:none;display:inline"/>
<path d="M 9.91,42.07 L 17.78,32.04" id="p3301" style="fill:none;fill-rule:evenodd;stroke:#bf9b56;stroke-width:3.09;stroke-linecap:butt;stroke-linejoin:miter;stroke-miterlimit:4;stroke-dasharray:none;stroke-opacity:0.40"/>
<path d="M 24.90,22.56 C 23.31,23.81 21.66,25.03 20.03,26.25 L 19.40,27.09 C 21.20,25.79 23.02,24.53 24.68,23.09 C 24.81,22.94 24.83,22.73 24.90,22.56 z M 23.65,27.12 C 21.26,27.77 19.39,29.33 17.15,30.40 C 17.05,30.44 16.85,30.53 16.71,30.59 L 16.12,31.37 C 17.27,30.67 18.48,30.06 19.68,29.5 C 17.98,31.02 16.21,32.49 14.31,33.75 L 13.46,34.87 C 15.01,33.84 16.56,32.84 18.09,31.81 C 19.53,30.33 21.20,29.07 22.96,28 L 23.65,27.12 z M 20.71,29.03 C 19.96,30.07 16.95,32.20 19.53,30.06 C 19.92,29.71 20.32,29.37 20.71,29.03 z M 21.18,30.18 C 20.68,30.30 18.71,31.73 18.18,32.09 C 16.53,33.18 14.82,34.22 13.15,35.28 L 11.93,36.87 C 14.74,35.03 17.64,33.32 20.34,31.34 L 21.25,30.18 C 21.23,30.18 21.21,30.18 21.18,30.18 z M 17.43,34.81 C 16.10,34.96 14.41,37.52 12.46,37.81 C 11.79,38.01 11.04,38.51 10.25,39.09 L 9.62,39.90 C 9.98,39.66 10.36,39.43 10.75,39.21 C 11.80,38.53 13.02,38.07 11.28,39.18 C 10.75,39.56 9.91,40.08 9.09,40.59 L 8.62,41.21 L 8.75,41.31 C 9.82,40.53 10.87,39.75 11.34,39.81 C 10.57,40.37 9.80,40.95 9.03,41.56 L 9.31,41.75 C 12.15,39.56 15.22,37.59 17.43,34.81 z M 15.5,36.59 C 14.61,37.47 13.10,38.13 15.03,36.90 L 15.5,36.59 z M 10.46,42.59 C 10.45,42.60 10.44,42.61 10.43,42.62 L 10.43,42.65 C 10.44,42.63 10.46,42.61 10.46,42.59 z" id="p3285" style="fill:#fff1d7;fill-opacity:0.51;fill-rule:evenodd;stroke:none;display:inline"/>
<path d="M 25.76,22.66 L 16.92,33.98" id="p3303" style="fill:none;fill-opacity:0.51;fill-rule:evenodd;stroke:#e97d48;stroke-width:1.79;stroke-linecap:round;stroke-linejoin:miter;stroke-miterlimit:4;stroke-dasharray:none;stroke-opacity:0.21;display:inline"/>
<path d="M 35.14,8.48 L 30.07,14.84" id="p3306" style="fill:none;fill-rule:evenodd;stroke:#f8f5ae;stroke-width:1.60;stroke-linecap:round;stroke-linejoin:miter;stroke-miterlimit:4;stroke-dasharray:none;stroke-opacity:0.32;display:inline"/>
<path d="M 36.32,5.57 C 37.01,4.73 37.73,4.35 38.15,4.31" id="p3309" style="fill:none;fill-rule:evenodd;stroke:#f8cd97;stroke-width:1px;stroke-linecap:butt;stroke-linejoin:miter;stroke-opacity:0.21;display:inline"/>
<path d="M 38.71,5.90 C 38.01,5.94 37.02,6.66 36.28,7.43 L 37.68,9.18 L 37.93,8.87 C 37.93,8.87 39.00,7.83 39.5,6.65 C 39.41,6.10 39.12,5.88 38.71,5.90 z" id="p3312" style="fill:#a7292b;fill-opacity:0.31;fill-rule:evenodd;stroke:none;"/>
<path d="M 34.59,7.15 L 8.62,41.21 L 11.09,43.15 L 37.68,9.18" id="stroke01" style="fill:none;fill-opacity:1;fill-rule:evenodd;stroke:#62401a;stroke-width:0.5;stroke-linecap:butt;stroke-linejoin:miter;stroke-miterlimit:4;stroke-dasharray:none;stroke-opacity:1"/>
<path d="M 37.68,9.18 L 37.93,8.87 C 37.93,8.87 41.18,5.83 39.03,4.21 C 38.62,3.91 38.20,3.84 37.81,3.90 C 36.09,4.15 34.59,7.15 34.59,7.15" id="stroke02" style="fill:none;fill-opacity:1;fill-rule:evenodd;stroke:#5c1010;stroke-width:0.5;stroke-linecap:round;stroke-linejoin:miter;stroke-miterlimit:4;stroke-dasharray:none;stroke-opacity:1"/>
</g>
</svg>
