<?xml version="1.0" encoding="UTF-8" standalone="no"?>

<svg xmlns:svg="http://www.w3.org/2000/svg" xmlns="http://www.w3.org/2000/svg" version="1.0" width="100%" height="100%" viewBox="0 0 48 48" id="_match03" style="display:inline">
<defs id="defs2385"/>
<g id="layer2" style="display:inline">
<path d="M 15.94,40.91 L 12.67,39.95 C 12.67,39.95 18.94,18.56 19.08,17.74 C 19.21,16.92 20.17,17.06 20.44,15.42 C 20.71,13.79 21.26,12.01 22.48,11.20 C 23.71,10.38 24.80,8.20 27.39,7.65 C 30.39,4.38 33.66,6.56 33.66,7.93 C 33.66,9.29 31.07,9.83 29.03,9.02 C 27.80,8.88 27.39,8.74 26.57,9.70 C 25.75,10.65 24.53,10.92 23.03,13.92 C 21.53,16.92 21.39,17.60 21.94,18.69 C 21.39,20.46 15.80,41.04 15.94,40.91 z" id="p2489" style="opacity:1;fill:#fce9ae;fill-opacity:1;fill-rule:evenodd;stroke:none;marker:none;visibility:visible;display:inline;overflow:visible;enable-background:accumulate"/>
<path d="M 30.68,5.93 C 29.67,5.96 28.53,6.42 27.40,7.65 C 26.71,7.80 26.13,8.05 25.62,8.37 L 21.93,13.25 L 20.59,19.09 L 14.31,40.43 L 15.93,40.90 C 15.80,41.04 21.39,20.45 21.93,18.68 C 21.39,17.59 21.53,16.93 23.03,13.93 C 24.53,10.93 25.74,10.64 26.56,9.68 C 27.38,8.73 27.80,8.89 29.03,9.03 C 31.07,9.84 33.65,9.30 33.65,7.93 C 33.65,7.08 32.37,5.89 30.68,5.93 z" id="p3322" style="opacity:1;fill:#e6b987;fill-opacity:1;fill-rule:evenodd;stroke:none;marker:none;visibility:visible;display:inline;overflow:visible;enable-background:accumulate"/>
<path d="M 21.78,18.31 L 14.37,34.18 C 13.83,36.03 13.12,38.46 13,38.90 L 17.46,31.31 L 17.87,31.59 L 13.03,40.06 L 13.71,40.28 C 14.28,39.45 15.69,37.39 17.59,34.59 C 18.31,31.91 18.81,30.12 19.59,27.28 L 15.71,33.03 L 21.21,21.31 C 21.38,20.70 21.87,18.88 21.93,18.68 C 21.86,18.55 21.82,18.44 21.78,18.31 z" id="p3352" style="opacity:1;fill:#fdf3e8;fill-opacity:0.39;fill-rule:evenodd;stroke:none;marker:none;visibility:visible;display:inline;overflow:visible;enable-background:accumulate"/>
<path d="M 19.90,16.68 C 19.55,17.09 19.17,17.25 19.09,17.75 C 19.05,17.96 18.56,19.66 17.90,21.96 L 19.90,20.62 L 20.93,22.28 C 21.21,21.28 21.85,18.95 21.93,18.68 C 21.69,18.19 21.59,17.79 21.68,17.21 L 19.90,16.68 z" id="p3335" style="opacity:1;fill:#e17d15;fill-opacity:0.76;fill-rule:evenodd;stroke:none;marker:none;visibility:visible;display:inline;overflow:visible;enable-background:accumulate"/>
<path d="M 30.68,5.93 C 29.67,5.96 28.53,6.42 27.40,7.65 C 24.81,8.20 23.72,10.36 22.5,11.18 C 21.27,12.00 20.71,13.80 20.43,15.43 C 20.16,17.07 19.23,16.93 19.09,17.75 C 19.06,17.94 18.64,19.43 18.06,21.46 L 19.75,19.78 L 21.28,21.12 C 21.43,20.58 21.88,18.86 21.93,18.68 C 21.39,17.59 21.53,16.93 23.03,13.93 C 24.53,10.93 25.74,10.64 26.56,9.68 C 27.38,8.73 27.80,8.89 29.03,9.03 C 31.07,9.84 33.65,9.30 33.65,7.93 C 33.65,7.08 32.37,5.89 30.68,5.93 z" id="p2526" style="opacity:1;fill:#333335;fill-opacity:1;fill-rule:evenodd;stroke:none;marker:none;visibility:visible;display:inline;overflow:visible;enable-background:accumulate"/>
<path d="M 30.68,5.93 C 29.67,5.96 28.53,6.42 27.40,7.65 C 26.71,7.80 26.13,8.05 25.62,8.37 L 21.93,13.25 L 20.59,19.09 L 20.25,20.21 L 21.28,21.12 C 21.43,20.58 21.88,18.86 21.93,18.68 C 21.39,17.59 21.53,16.93 23.03,13.93 C 24.53,10.93 25.74,10.64 26.56,9.68 C 27.38,8.73 27.80,8.89 29.03,9.03 C 31.07,9.84 33.65,9.30 33.65,7.93 C 33.65,7.08 32.37,5.89 30.68,5.93 z" id="p2528" style="opacity:1;fill:#000000;fill-opacity:0.76;fill-rule:evenodd;stroke:none;marker:none;visibility:visible;display:inline;overflow:visible;enable-background:accumulate"/>
<path d="M 30.68,5.93 C 29.70,5.96 28.59,6.40 27.5,7.56 L 28.09,8.93 C 28.35,8.94 28.64,8.98 29.03,9.03 C 31.07,9.84 33.65,9.30 33.65,7.93 C 33.65,7.08 32.37,5.89 30.68,5.93 z" id="p3330" style="opacity:1;fill:#333333;fill-opacity:1;fill-rule:evenodd;stroke:none;marker:none;visibility:visible;display:inline;overflow:visible;enable-background:accumulate"/>
<path d="M 21.07,14.50 C 21.36,13.28 21.79,11.87 23.30,11.15" id="p3357" style="opacity:1;fill:none;fill-opacity:1;fill-rule:evenodd;stroke:#757575;stroke-width:1;stroke-linecap:round;stroke-linejoin:miter;marker:none;stroke-miterlimit:4;stroke-dasharray:none;stroke-dashoffset:0;stroke-opacity:0.31;visibility:visible;display:inline;overflow:visible;enable-background:accumulate"/>
<path d="M 22.43,11.78 C 22.86,11.39 23.88,10.85 24.08,10.42" id="p3359" style="opacity:1;fill:none;fill-opacity:1;fill-rule:evenodd;stroke:#757575;stroke-width:1;stroke-linecap:round;stroke-linejoin:miter;marker:none;stroke-miterlimit:4;stroke-dasharray:none;stroke-dashoffset:0;stroke-opacity:0.31;visibility:visible;display:inline;overflow:visible;enable-background:accumulate"/>
<path d="M 29.81,7.12 C 29.04,7.17 28.20,7.35 27.5,7.59 L 28.09,8.93 C 28.35,8.94 28.64,8.98 29.03,9.03 C 30.21,9.50 31.56,9.49 32.5,9.15 C 32.90,7.50 31.49,7.01 29.81,7.12 z" id="p3361" style="fill:#000000;fill-opacity:0.33;fill-rule:evenodd;stroke:none;"/>
<path d="M 28.54,8.86 L 28.35,8.09" id="p3366" style="fill:none;fill-rule:evenodd;stroke:#181818;stroke-width:0.5;stroke-linecap:butt;stroke-linejoin:miter;stroke-miterlimit:4;stroke-dasharray:none;stroke-opacity:1"/>
<path d="M 29.32,7.41 L 29.32,7.99" id="p3368" style="fill:none;fill-rule:evenodd;stroke:#000000;stroke-width:0.40;stroke-linecap:butt;stroke-linejoin:miter;stroke-miterlimit:4;stroke-dasharray:none;stroke-opacity:1"/>
</g>
<g id="layer3" style="display:inline">
<path d="M 18.06,21.46 C 16.25,27.78 12.68,39.96 12.68,39.96 L 15.93,40.90 C 15.81,41.02 19.96,25.80 21.28,21.12" id="stroke01" style="opacity:1;fill:none;fill-opacity:1;fill-rule:evenodd;stroke:#62401a;stroke-width:0.5;stroke-linecap:butt;stroke-linejoin:miter;marker:none;stroke-miterlimit:4;stroke-dasharray:none;stroke-dashoffset:0;stroke-opacity:1;visibility:visible;display:inline;overflow:visible;enable-background:accumulate"/>
<path d="M 27.43,7.62 C 27.42,7.63 27.41,7.64 27.40,7.65 C 24.81,8.20 23.72,10.36 22.5,11.18 C 21.27,12.00 20.71,13.80 20.43,15.43 C 20.16,17.07 19.23,16.93 19.09,17.75 C 19.06,17.94 18.64,19.43 18.06,21.46 M 21.28,21.12 C 21.43,20.58 21.88,18.86 21.93,18.68 C 21.39,17.59 21.53,16.93 23.03,13.93 C 24.53,10.93 25.74,10.64 26.56,9.68 C 27.04,9.12 27.41,8.95 27.87,8.93" id="stroke02" style="opacity:1;fill:none;fill-opacity:1;fill-rule:evenodd;stroke:#111111;stroke-width:0.60;stroke-linecap:round;stroke-linejoin:miter;marker:none;stroke-miterlimit:4;stroke-dasharray:none;stroke-dashoffset:0;stroke-opacity:1;visibility:visible;display:inline;overflow:visible;enable-background:accumulate"/>
<path d="M 27.87,8.93 C 28.18,8.92 28.53,8.97 29.03,9.03 C 31.07,9.84 33.65,9.30 33.65,7.93 C 33.65,7.08 32.37,5.89 30.68,5.93 C 29.68,5.96 28.55,6.42 27.43,7.62" id="stroke03" style="opacity:1;fill:none;fill-opacity:1;fill-rule:evenodd;stroke:#191919;stroke-width:0.5;stroke-linecap:round;stroke-linejoin:miter;marker:none;stroke-miterlimit:4;stroke-dasharray:none;stroke-dashoffset:0;stroke-opacity:1;visibility:visible;display:inline;overflow:visible;enable-background:accumulate"/>
</g>
</svg>
