<?xml version="1.0" encoding="UTF-8" standalone="no"?>

<svg xmlns:svg="http://www.w3.org/2000/svg" xmlns="http://www.w3.org/2000/svg" version="1.0" width="100%" height="100%" viewBox="0 0 48 48" id="_match03" style="display:inline">
<defs id="defs2385"/>
<path d="M 34.25,44.37 L 32.77,43.7 C 32.77,43.7 26.32,33.08 25.12,31.07 C 23.91,29.05 22.83,25.7 21.49,24.08 C 20.15,22.47 17.46,15.75 16.79,14.28 C 16.12,12.8 15.11,10.43 14.5,9.58 C 12.78,7.15 9.19,4.91 11.41,3.26 C 13.77,1.52 15.44,5.68 15.44,7.02 C 15.44,8.37 16.44,8.64 16.88,9.46 C 17.49,10.61 17.42,11.25 18.57,12.66 C 20.48,15 20.15,17.77 20.95,19.11 C 21.76,20.46 25.12,24.35 26.86,26.64 C 28.61,28.92 36.8,42.62 36.8,42.62 L 36.13,44.1 L 34.25,44.37 z" id="p2525" style="fill:#fce9ae;fill-opacity:1;fill-rule:evenodd;stroke:none"/>
<path d="M 25.21,24.56 L 25.03,27.18 L 29.4,33.93 L 34.59,42.65 L 34.59,44.31 L 36.12,44.09 L 36.81,42.62 C 36.81,42.62 28.62,28.93 26.87,26.65 C 26.41,26.05 25.82,25.31 25.21,24.56 z" id="p3312" style="fill:#e6b987;fill-opacity:1;fill-rule:evenodd;stroke:none;marker:none;visibility:visible;display:inline;overflow:visible;enable-background:accumulate"/>
<path d="M 22.4,21.09 L 20.84,23.06 C 21.08,23.47 21.3,23.86 21.5,24.09 C 22.84,25.7 23.91,29.04 25.12,31.06 C 25.14,31.09 25.25,31.23 25.28,31.28 L 24.9,28.59 L 27.28,31.25 L 26.59,28.43 L 29.53,30.71 C 28.36,28.85 27.36,27.29 26.87,26.65 C 25.68,25.1 23.77,22.82 22.4,21.09 z" id="p3321" style="fill:#e17d15;fill-opacity:0.76;fill-rule:evenodd;stroke:none;display:inline"/>
<path d="M 28.06,28.37 L 27.9,35.65 C 29.76,38.71 31.36,41.35 32,42.4 L 33.09,36.46 C 31.27,33.47 29.46,30.52 28.06,28.37 z M 35.34,40.18 L 34,44.25 L 34.25,44.37 L 36.12,44.09 L 36.81,42.62 C 36.81,42.62 35.74,40.86 35.34,40.18 z" id="p3318" style="fill:#dac395;fill-opacity:0.41;fill-rule:evenodd;stroke:none;display:inline"/>
<path d="M 12.65,2.84 C 12.26,2.81 11.84,2.95 11.4,3.28 C 9.17,4.92 12.77,7.16 14.5,9.59 C 15.1,10.44 16.1,12.8 16.78,14.28 C 17.45,15.75 20.15,22.48 21.5,24.09 C 22.81,25.67 23.88,28.91 25.06,30.93 L 24.46,27.59 L 26.59,29.71 L 26.03,27.75 L 29.37,30.46 C 28.26,28.7 27.34,27.26 26.87,26.65 C 25.12,24.37 21.77,20.46 20.96,19.12 C 20.16,17.78 20.47,14.99 18.56,12.65 C 17.41,11.24 17.48,10.61 16.87,9.46 C 16.44,8.64 15.43,8.37 15.43,7.03 C 15.43,5.93 14.33,2.97 12.65,2.84 z" id="p3300" style="fill:#333335;fill-opacity:1;fill-rule:evenodd;stroke:none;display:inline"/>
<path d="M 12.37,2.84 C 12.07,2.88 11.73,3.03 11.4,3.28 C 9.17,4.92 12.77,7.16 14.5,9.59 C 15.1,10.44 16.1,12.8 16.78,14.28 C 16.9,14.55 17.32,15.49 17.56,16.06 C 16.97,13.51 16.36,11.21 16.21,10.68 C 17.11,11.78 17.7,13.48 19,16.96 C 20.29,20.45 21.47,21.84 23.46,24.03 C 25.18,25.91 26.25,28.84 26.53,29.65 L 26.59,29.71 L 26.03,27.75 L 29.37,30.46 C 28.26,28.7 27.34,27.26 26.87,26.65 C 25.12,24.37 21.77,20.46 20.96,19.12 C 20.16,17.78 20.47,14.99 18.56,12.65 C 17.41,11.24 17.48,10.61 16.87,9.46 C 16.44,8.64 15.43,8.37 15.43,7.03 C 15.43,5.93 14.33,2.97 12.65,2.84 C 12.55,2.83 12.47,2.82 12.37,2.84 z" id="p3330" style="fill:#000000;fill-opacity:0.76;fill-rule:evenodd;stroke:none;display:inline"/>
<path d="M 12.65,2.84 C 12.26,2.81 11.84,2.95 11.4,3.28 C 9.83,4.44 11.16,5.89 12.68,7.5 L 14.21,7.5 L 15.43,7.03 C 15.43,5.93 14.33,2.97 12.65,2.84 z" id="p3302" style="fill:#3d3d3d;fill-opacity:1;fill-rule:evenodd;stroke:none;display:inline"/>
<path d="M 17.2,13.08 C 18,15.17 19.59,19.35 20.98,22.13" id="p3336" style="fill:none;fill-rule:evenodd;stroke:#646464;stroke-width:1.20;stroke-linecap:round;stroke-linejoin:miter;stroke-miterlimit:4;stroke-dasharray:none;stroke-opacity:0.35;display:inline"/>
<path d="M 19.39,19.25 C 20.19,20.84 22.38,24.02 23.17,24.92" id="p3339" style="fill:none;fill-rule:evenodd;stroke:#757575;stroke-width:1.27;stroke-linecap:round;stroke-linejoin:miter;stroke-miterlimit:4;stroke-dasharray:none;stroke-opacity:0.31;display:inline"/>
<path d="M 13.15,3.43 C 12.26,3.61 12.4,4.56 12.84,5.93 C 13,6.45 13.31,6.97 13.71,7.5 L 14.21,7.5 L 15.43,7.03 C 15.43,6.22 14.84,4.38 13.84,3.43 C 13.83,3.43 13.81,3.44 13.81,3.43 C 13.54,3.4 13.33,3.4 13.15,3.43 z" id="p3342" style="fill:#161413;fill-opacity:0.47;fill-rule:evenodd;stroke:none"/>
<path d="M 14.07,7.31 L 14.42,7.81" id="p3347" style="fill:none;fill-rule:evenodd;stroke:#353535;stroke-width:1px;stroke-linecap:round;stroke-linejoin:miter;stroke-opacity:0.47"/>
<path d="M 11.68,3.58 C 11.24,3.93 10.99,4.48 11.14,4.87" id="p3349" style="fill:none;fill-rule:evenodd;stroke:#5e5e5e;stroke-width:0.88;stroke-linecap:round;stroke-linejoin:miter;stroke-miterlimit:4;stroke-dasharray:none;stroke-opacity:0.34;display:inline"/>
<path d="M 14.37,6.47 L 15.31,6.37" id="p3352" style="fill:none;fill-rule:evenodd;stroke:#1b1b1b;stroke-width:0.60;stroke-linecap:butt;stroke-linejoin:miter;stroke-miterlimit:4;stroke-dasharray:none;stroke-opacity:0.6"/>
<path d="M 13.32,5.22 L 13.62,5.02" id="p3354" style="fill:none;fill-opacity:1;fill-rule:evenodd;stroke:#000000;stroke-width:0.60;stroke-linecap:butt;stroke-linejoin:miter;marker:none;stroke-miterlimit:4;stroke-dasharray:none;stroke-dashoffset:0;stroke-opacity:0.6;visibility:visible;display:inline;overflow:visible;enable-background:accumulate"/>
<path d="M 24.93,30.71 C 25,30.83 25.06,30.95 25.12,31.06 C 26.33,33.07 32.78,43.68 32.78,43.68 L 34.25,44.37 L 36.12,44.09 L 36.81,42.62 C 36.81,42.62 31.43,33.68 28.46,29.06" id="stroke01" style="fill:none;fill-opacity:1;fill-rule:evenodd;stroke:#62401a;stroke-width:0.5;stroke-linecap:butt;stroke-linejoin:miter;marker:none;stroke-miterlimit:4;stroke-dasharray:none;stroke-dashoffset:0;stroke-opacity:1;visibility:visible;display:inline;overflow:visible;enable-background:accumulate"/>
<path d="M 29.06,29.93 C 28.09,28.41 27.29,27.2 26.87,26.65 C 25.12,24.37 21.77,20.46 20.96,19.12 C 20.16,17.78 19.39,14.11 18.3,12.5 C 17.5,11.33 17.17,9.99 16.87,9.46 C 16.41,8.65 15.43,8.37 15.43,7.03 M 12.71,7.53 C 13.34,8.19 13.99,8.88 14.5,9.59 C 15.1,10.44 16.1,12.8 16.78,14.28 C 17.45,15.75 20.15,22.48 21.5,24.09 C 22.81,25.67 23.88,28.91 25.06,30.93" id="stroke02" style="fill:none;fill-rule:evenodd;stroke:#111111;stroke-width:0.60;stroke-linecap:round;stroke-linejoin:miter;stroke-miterlimit:4;stroke-dasharray:none;stroke-opacity:1;display:inline"/>
<path d="M 15.46,7.15 C 15.46,7.11 15.43,7.07 15.43,7.03 C 15.43,5.93 14.33,2.97 12.65,2.84 C 12.26,2.81 11.84,2.95 11.4,3.28 C 9.83,4.44 11.16,5.89 12.68,7.5" id="stroke03" style="fill:none;fill-rule:evenodd;stroke:#252525;stroke-width:0.5;stroke-linecap:round;stroke-linejoin:miter;stroke-miterlimit:4;stroke-dasharray:none;stroke-opacity:1;display:inline"/>
</svg>
