<?xml version="1.0" encoding="UTF-8" standalone="no"?>
<!DOCTYPE svg PUBLIC "-//W3C//DTD SVG 1.0//EN" "http://www.w3.org/TR/2001/REC-SVG-20010904/DTD/svg10.dtd">
<svg xmlns:svg="http://www.w3.org/2000/svg" xmlns="http://www.w3.org/2000/svg" version="1.0" width="100%" height="100%" viewBox="0 0 48 48" id="_missile02" style="display:inline">
<defs id="defs2818"/>
<g id="missile02" style="display:inline">
<path d="M 11.25,6 C 11.17,6.00 11.13,6.02 11.09,6.06 C 10.42,6.67 13.44,12.09 15.12,14.21 C 16.33,15.74 25.22,27.06 31.59,35.15 L 32.18,40.31 L 35.28,44.28 L 37.40,42.53 C 37.46,42.60 38.28,43.62 38.28,43.62 L 41.25,41.28 C 41.25,41.28 40.37,40.21 40.35,40.18 L 42.57,38.49 L 39.59,34.93 L 34.78,33.03 C 28.39,24.89 19.33,13.36 18.12,11.87 C 16.53,9.90 12.33,5.96 11.25,6 z" id="p4549" style="fill:#e4e4e4;fill-opacity:1;fill-rule:evenodd;stroke:none;"/>
<path d="M 33.56,31.46 L 32.12,32.34 L 33.28,33.34 L 36.65,36.37 L 40.71,41.68 L 41.25,41.28 C 41.25,41.28 40.36,40.21 40.34,40.18 L 42.56,38.5 L 39.59,34.93 L 34.78,33.03 C 34.31,32.43 34.05,32.09 33.56,31.46 z" id="p4669" style="fill:#323232;fill-opacity:0.42;fill-rule:evenodd;stroke:none;display:inline"/>
<path d="M 11.25,6 C 11.17,6.00 11.13,6.02 11.09,6.06 C 11.47,9.18 13.32,11.66 15.11,14.20 C 15.80,13.35 16.94,12.27 18.12,11.86 C 18.11,11.85 18.13,11.88 18.12,11.87 C 16.53,9.90 12.33,5.96 11.25,6 z" id="p4553" style="fill:#000000;fill-opacity:0.83;fill-rule:evenodd;stroke:none;"/>
<path d="M 11.25,6 C 11.17,6.00 11.13,6.02 11.09,6.06 C 10.55,6.55 12.43,10.18 14.06,12.68 C 14.85,11.72 15.70,11.09 17,10.62 C 15.07,8.59 12.13,5.97 11.25,6 z" id="p4557" style="fill:#dcdcdc;fill-opacity:0.83;fill-rule:evenodd;stroke:none;"/>
<path d="M 12.09,6.34 C 15.26,9.50 17.67,13.20 20.59,16.81 C 20.83,17.11 21.26,17.17 21.56,16.93 C 21.68,16.84 21.77,16.69 21.81,16.56 C 20.88,15.39 18.39,12.20 18.12,11.87 C 16.80,10.25 13.74,7.31 12.09,6.34 z" id="p4580" style="fill:#000000;fill-opacity:0.20;fill-rule:evenodd;stroke:none;"/>
<path d="M 11.25,6 C 11.17,6.00 11.13,6.02 11.09,6.06 C 10.85,6.27 11.09,7.12 11.56,8.18 C 11.96,7.58 12.55,7.27 13.15,7.06 C 12.32,6.41 11.61,5.98 11.25,6 z" id="p4571" style="fill:#181818;fill-opacity:0.83;fill-rule:evenodd;stroke:none;"/>
<path d="M 11.22,6.29 C 11.22,6.29 15.88,13.70 19.37,17.52" id="p4576" style="fill:none;fill-rule:evenodd;stroke:#ffffff;stroke-width:0.5;stroke-linecap:butt;stroke-linejoin:miter;stroke-miterlimit:4;stroke-dasharray:none;stroke-opacity:0.66"/>
<path d="M 12.59,8.49 C 13.26,9.53 16.98,15.10 19.33,17.49" id="p4578" style="fill:none;fill-rule:evenodd;stroke:#ffffff;stroke-width:1.10;stroke-linecap:round;stroke-linejoin:miter;stroke-miterlimit:4;stroke-dasharray:none;stroke-opacity:0.48"/>
<path d="M 21.46,16.12 C 20.46,16.60 19.42,17.35 18.46,18.46 C 21.53,22.36 26.33,28.47 31.37,34.87 C 32.29,33.99 33.35,33.15 34.37,32.53 C 29.32,26.10 24.52,19.98 21.46,16.12 z" id="p4555" style="fill:#1f1f1f;fill-opacity:1;fill-rule:evenodd;stroke:none;"/>
<path d="M 19.31,17.66 L 39.14,42.82" id="p4641" style="fill:none;fill-rule:evenodd;stroke:#e7e7e7;stroke-width:1.79;stroke-linecap:butt;stroke-linejoin:miter;stroke-miterlimit:4;stroke-dasharray:none;stroke-opacity:0.53;display:inline"/>
<path d="M 38.02,43.10 L 40.82,40.87" id="p4691" style="fill:none;fill-rule:evenodd;stroke:#262626;stroke-width:1px;stroke-linecap:butt;stroke-linejoin:miter;stroke-opacity:0.38"/>
<path d="M 19.38,17.43 L 39.19,42.64" id="p4647" style="fill:none;fill-rule:evenodd;stroke:#fefefe;stroke-width:0.60;stroke-linecap:butt;stroke-linejoin:miter;stroke-miterlimit:4;stroke-dasharray:none;stroke-opacity:0.60"/>
<path d="M 18.73,18.21 L 38.41,43.33" id="p4649" style="fill:none;fill-rule:evenodd;stroke:#ffffff;stroke-width:0.80;stroke-linecap:butt;stroke-linejoin:miter;stroke-miterlimit:4;stroke-dasharray:none;stroke-opacity:0.76"/>
<path d="M 31.81,34.81 L 31.43,34.96 C 31.49,35.04 31.53,35.08 31.59,35.15 L 32.18,40.31 L 35.28,44.28 L 37.40,42.53 C 37.46,42.60 38.28,43.62 38.28,43.62 L 38.62,43.37 L 31.81,34.81 z" id="p4666" style="fill:#f5f5f5;fill-opacity:0.68;fill-rule:evenodd;stroke:none;display:inline"/>
<path d="M 35.34,33.25 L 41.15,41.34 L 41.25,41.28 C 41.25,41.28 40.36,40.21 40.34,40.18 L 42.56,38.5 L 39.59,34.93 L 35.34,33.25 z" id="p4675" style="fill:#c9c9c9;fill-opacity:0.42;fill-rule:evenodd;stroke:none;display:inline"/>
<path d="M 33.12,34.95 L 38.44,41.84" id="p4681" style="fill:none;fill-rule:evenodd;stroke:#ffffff;stroke-width:1.5;stroke-linecap:round;stroke-linejoin:miter;stroke-miterlimit:4;stroke-dasharray:none;stroke-opacity:0.50"/>
<path d="M 34.43,34.37 L 36.65,36.37 L 40.71,41.68 L 41.25,41.28 C 41.25,41.28 40.36,40.21 40.34,40.18 L 40.81,39.81 L 39.37,37.96 L 37.93,37 L 34.43,34.37 z" id="p4683" style="fill:#343434;fill-opacity:0.24;fill-rule:evenodd;stroke:none;display:inline"/>
<path d="M 27.37,24.43 C 27.21,24.55 27.16,24.79 27.27,24.96 C 27.32,25.00 27.42,25.03 27.46,24.96 C 27.50,24.89 27.44,24.81 27.42,24.74 C 27.41,24.65 27.50,24.54 27.60,24.57 C 27.67,24.59 27.73,24.65 27.77,24.72 C 27.79,24.79 27.73,24.84 27.69,24.88 C 27.61,24.99 27.56,25.14 27.61,25.26 C 27.66,25.36 27.73,25.44 27.80,25.52 C 27.86,25.55 27.92,25.49 27.96,25.45 C 28.09,25.34 28.21,25.20 28.37,25.13 C 28.42,25.09 28.41,24.97 28.34,24.96 C 28.21,24.96 28.11,25.05 28.02,25.13 C 27.97,25.17 27.92,25.23 27.87,25.28 C 27.83,25.21 27.78,25.13 27.82,25.06 C 27.87,24.97 27.98,24.90 27.98,24.78 C 27.98,24.62 27.87,24.48 27.73,24.41 C 27.62,24.36 27.47,24.35 27.37,24.43 z" id="p4651" style="fill:#afafaf;fill-opacity:0.51;fill-rule:evenodd;stroke:none;"/>
<path d="M 18.51,18.41 C 19.37,17.36 20.82,16.39 21.50,16.18" id="p4644" style="fill:none;fill-rule:evenodd;stroke:#343434;stroke-width:0.40;stroke-linecap:butt;stroke-linejoin:miter;stroke-miterlimit:4;stroke-dasharray:none;stroke-opacity:1;display:inline"/>
<path d="M 18.96,14.93 C 18.81,15.08 18.62,15.19 18.48,15.36 C 18.22,15.26 18.25,15.82 18.48,15.60 C 18.60,15.53 18.68,15.28 18.86,15.33 C 18.88,15.51 18.69,15.85 18.91,15.92 C 19.09,15.91 19.22,15.67 19.41,15.76 C 19.64,15.85 19.74,16.16 19.60,16.37 C 19.45,16.39 19.33,16.76 19.58,16.66 C 19.87,16.52 19.98,16.10 19.78,15.84 C 19.68,15.67 19.50,15.52 19.30,15.55 C 19.15,15.73 18.90,15.48 19.04,15.31 C 19.07,15.20 19.17,14.94 18.96,14.93 z" id="p4595" style="opacity:1;fill:#323232;fill-opacity:1;fill-rule:evenodd;stroke:none;marker:none;visibility:visible;display:inline;overflow:visible;enable-background:accumulate"/>
<path d="M 20.06,14.31 C 19.74,14.41 19.49,14.63 19.21,14.80 C 19.14,15.01 19.45,15.01 19.54,14.89 C 19.62,14.74 19.77,14.58 19.96,14.59 C 20.13,14.62 20.13,14.82 20.15,14.95 C 20.17,15.16 20.25,15.34 20.27,15.55 C 20.28,15.68 20.30,15.81 20.31,15.94 C 20.51,16.10 20.63,15.72 20.51,15.59 C 20.46,15.40 20.44,15.20 20.39,15.01 C 20.33,14.77 20.24,14.53 20.12,14.31 C 20.10,14.30 20.08,14.30 20.06,14.31 z" id="p4597" style="opacity:1;fill:#323232;fill-opacity:1;fill-rule:evenodd;stroke:none;marker:none;visibility:visible;display:inline;overflow:visible;enable-background:accumulate"/>
<path d="M 14.12,12.76 C 14.66,11.84 16.17,10.78 16.93,10.68" id="p4589" style="fill:none;fill-rule:evenodd;stroke:#3f3f3f;stroke-width:0.30;stroke-linecap:butt;stroke-linejoin:miter;stroke-miterlimit:4;stroke-dasharray:none;stroke-opacity:1"/>
<path d="M 18.43,12.78 C 18.31,12.97 18.48,13.16 18.54,13.34 C 18.62,13.56 18.70,13.78 18.78,14 C 18.46,13.74 18.13,13.50 17.79,13.28 C 17.63,13.40 17.81,13.58 17.94,13.64 C 18.29,13.84 18.59,14.10 18.89,14.37 C 19.12,14.46 19.09,14.10 19.00,13.98 C 18.87,13.59 18.73,13.21 18.56,12.84 C 18.52,12.81 18.48,12.76 18.43,12.78 z" id="p4591" style="opacity:1;fill:#323232;fill-opacity:1;fill-rule:evenodd;stroke:none;display:inline"/>
<path d="M 11.25,6 C 11.17,6.00 11.13,6.02 11.09,6.06 C 10.42,6.67 13.44,12.09 15.12,14.21 C 16.33,15.74 25.22,27.06 31.59,35.15 L 32.18,40.31 L 35.28,44.28 L 37.40,42.53 C 37.46,42.60 38.28,43.62 38.28,43.62 L 41.25,41.28 C 41.25,41.28 40.37,40.21 40.35,40.18 L 42.57,38.49 L 39.59,34.93 L 34.78,33.03 C 28.39,24.89 19.33,13.36 18.12,11.87 C 16.53,9.90 12.33,5.96 11.25,6 z" id="stroke01" style="fill:none;fill-opacity:1;fill-rule:evenodd;stroke:#000000;stroke-width:0.5;stroke-linecap:butt;stroke-linejoin:miter;stroke-miterlimit:4;stroke-dasharray:none;stroke-opacity:1"/>
<path d="M 11.05,6.06 L 9.55,4.21" id="stroke02" style="fill:none;fill-rule:evenodd;stroke:#000000;stroke-width:0.5;stroke-linecap:round;stroke-linejoin:miter;stroke-miterlimit:4;stroke-dasharray:none;stroke-opacity:1"/>
</g>
</svg>
