<?xml version="1.0" encoding="UTF-8" standalone="no"?>
<!DOCTYPE svg PUBLIC "-//W3C//DTD SVG 1.0//EN" "http://www.w3.org/TR/2001/REC-SVG-20010904/DTD/svg10.dtd">
<svg xmlns:svg="http://www.w3.org/2000/svg" xmlns="http://www.w3.org/2000/svg" version="1.0" width="100%" height="100%" viewBox="0 0 48 48" id="_missile01" style="display:inline">
<defs id="defs2818"/>
<g id="missile01" style="display:inline">
<path d="M 42.75,6.83 C 41.96,6.89 40.95,7.13 40.03,7.86 C 38.60,8.99 32.19,14.20 25.62,19.55 L 21.40,19.33 L 18.21,21.86 L 19.40,24.61 C 17.08,26.50 13.84,29.13 12.71,30.05 L 9.53,29.17 L 8.56,29.99 L 9.90,31.08 L 6.5,33.92 L 4.84,32.89 L 3.31,34.24 L 4.71,36.70 L 4.62,36.77 C 3.84,37.46 6.09,39.83 6.84,39.36 C 6.97,39.28 7.11,39.18 7.25,39.08 L 9.87,40.36 L 11.18,39.30 L 10.31,37.74 L 13.62,35.02 L 14.5,36.30 L 15.62,35.39 L 15.21,32.55 C 16.35,31.63 19.55,29.05 21.84,27.20 L 24.34,28.58 L 27.37,26.17 L 27.78,22.45 C 34.40,17.13 40.91,11.90 42.43,10.70 C 44.23,9.30 44.09,6.92 44.09,6.92 C 44.09,6.92 43.53,6.77 42.75,6.83 z M 10.40,31.49 L 10.68,31.70 C 10.60,31.77 9.56,32.61 9.56,32.61 L 9.65,33.08 L 7.68,34.64 L 7.06,34.27 L 10.40,31.49 z M 13.12,34.24 L 13.28,34.49 L 10.03,37.20 L 9.68,36.61 L 11.43,35.05 L 12,35.14 C 12,35.14 13.04,34.30 13.12,34.24 z" id="p2516" style="fill:#676254;fill-opacity:1;fill-rule:evenodd;stroke:none;display:inline"/>
<path d="M 17.58,27.15 L 27.74,19.20" id="p3390" style="opacity:1;fill:none;fill-opacity:1;fill-rule:evenodd;stroke:#e5ca9e;stroke-width:1.10;stroke-linecap:round;stroke-linejoin:miter;marker:none;stroke-miterlimit:4;stroke-dasharray:none;stroke-dashoffset:0;stroke-opacity:0.22;visibility:visible;display:inline;overflow:visible;enable-background:accumulate"/>
<path d="M 41.42,7.89 C 40.87,8.11 34.80,13.10 34.80,13.10" id="p3387" style="fill:none;fill-rule:evenodd;stroke:#e5ca9e;stroke-width:0.69;stroke-linecap:round;stroke-linejoin:miter;stroke-miterlimit:4;stroke-dasharray:none;stroke-opacity:0.22;display:inline"/>
<path d="M 43.90,8.37 C 43.07,8.51 42.11,8.75 41.62,9.18 C 40.64,10.04 27.47,20.58 27.47,20.58 L 28.44,21.89 C 34.67,16.88 40.99,11.84 42.43,10.71 C 43.30,10.04 43.70,9.12 43.90,8.37 z" id="p3319" style="fill:#3b3a3a;fill-opacity:0.72;fill-rule:evenodd;stroke:none;display:inline"/>
<path d="M 44.09,7.09 C 43.67,8.57 42.99,9.33 42.53,9.75 C 41.90,10.31 27.85,21.59 27.85,21.59 L 28.23,22.19 C 34.82,16.90 40.92,11.90 42.43,10.71 C 44.04,9.45 44.09,7.50 44.09,7.09 z" id="p3344" style="fill:#f6fbb8;fill-opacity:0.44;fill-rule:evenodd;stroke:none;display:inline"/>
<path d="M 37.63,10.99 L 39.13,9.80" id="p3322" style="fill:none;fill-rule:evenodd;stroke:#000000;stroke-width:0.69;stroke-linecap:round;stroke-linejoin:miter;stroke-miterlimit:4;stroke-dasharray:none;stroke-opacity:0.58;display:inline"/>
<path d="M 32.28,14.15 C 31.68,14.64 31.34,14.93 30.68,15.46 C 31.59,16.23 32.46,17.33 33,18.28 C 33.65,17.75 34.01,17.45 34.62,16.96 C 34.06,15.83 33.12,14.84 32.28,14.15 z" id="p3324" style="fill:#1a1a1a;fill-opacity:0.72;fill-rule:evenodd;stroke:none;display:inline"/>
<path d="M 28.31,17.37 C 27.95,17.66 27.86,17.73 27.5,18.03 C 28.46,18.94 29.25,19.84 29.90,20.75 C 30.26,20.46 30.37,20.40 30.71,20.12 C 30.05,19.20 29.27,18.29 28.31,17.37 z" id="p3326" style="fill:#141414;fill-opacity:0.88;fill-rule:evenodd;stroke:none;display:inline"/>
<path d="M 38.54,12.94 L 39.16,12.44" id="p3350" style="fill:none;fill-rule:evenodd;stroke:#232323;stroke-width:0.60;stroke-linecap:round;stroke-linejoin:miter;stroke-miterlimit:4;stroke-dasharray:none;stroke-opacity:1"/>
<path d="M 35.08,12.75 L 35.43,12.48" id="p3352" style="fill:none;fill-rule:evenodd;stroke:#262626;stroke-width:0.40;stroke-linecap:round;stroke-linejoin:miter;stroke-miterlimit:4;stroke-dasharray:none;stroke-opacity:0.64"/>
<path d="M 27.25,18.25 C 26.97,18.47 26.90,18.52 26.62,18.75 C 26.90,19.03 27.22,19.35 27.46,19.62 L 28.06,19.09 C 27.82,18.83 27.51,18.53 27.25,18.25 z M 28.87,20.06 L 28.25,20.56 C 28.50,20.87 28.71,21.20 28.93,21.53 C 29.21,21.30 29.28,21.25 29.56,21.03 C 29.33,20.70 29.12,20.37 28.87,20.06 z" id="p3354" style="fill:#242424;fill-opacity:1;fill-rule:evenodd;stroke:none;display:inline"/>
<path d="M 21.40,19.34 L 18.21,21.87 L 19.40,24.59 L 25.68,19.56 L 25.65,19.53 C 25.64,19.54 25.64,19.54 25.62,19.56 L 21.40,19.34 z" id="p3358" style="fill:#4b4943;fill-opacity:1;fill-rule:evenodd;stroke:none;display:inline"/>
<path d="M 27.78,22.53 L 21.90,27.18 L 21.90,27.25 L 24.34,28.59 L 27.37,26.18 L 27.78,22.53 z" id="p3381" style="fill:#4b4943;fill-opacity:0.67;fill-rule:evenodd;stroke:none;display:inline"/>
<path d="M 27.65,21.25 L 26.37,22.31 C 26.37,22.31 26.55,22.66 26.21,22.93 C 25.88,23.20 22.02,26.26 21.75,26.5 C 21.47,26.73 20.54,26.80 20,26.09 C 18.95,27.00 14.40,30.59 14.40,30.59 C 14.40,30.59 14.91,31.41 15.25,31.65 C 15.85,31.14 16.53,30.53 16.53,30.53 C 16.53,30.53 16.89,30.67 17.43,30.75 C 18.87,29.58 20.29,28.46 21.81,27.25 L 21.84,27.21 L 27.78,22.46 C 28.00,22.28 28.05,22.24 28.28,22.06 L 27.65,21.25 z" id="p3397" style="opacity:1;fill:#3b3a3a;fill-opacity:0.72;fill-rule:evenodd;stroke:none;marker:none;visibility:visible;display:inline;overflow:visible;enable-background:accumulate"/>
<path d="M 9.53,29.18 L 8.56,30 L 9.90,31.09 L 6.5,33.93 L 4.84,32.90 L 3.31,34.25 L 4.71,36.71 L 4.62,36.78 C 4.55,36.84 4.49,36.90 4.46,37 L 7.62,34.62 L 7.06,34.28 L 10.40,31.5 L 10.65,31.71 L 12.65,30.06 L 9.53,29.18 z" id="p3405" style="opacity:1;fill:#4b4943;fill-opacity:0.70;fill-rule:evenodd;stroke:none;marker:none;visibility:visible;display:inline;overflow:visible;enable-background:accumulate"/>
<path d="M 15.31,32.43 L 13.12,34.25 L 13.28,34.5 L 10.03,37.21 L 9.75,36.71 L 6.71,39.40 C 6.76,39.39 6.80,39.39 6.84,39.37 C 6.97,39.29 7.11,39.19 7.25,39.09 L 9.87,40.37 L 11.18,39.31 L 10.31,37.75 L 13.62,35.03 L 14.5,36.31 L 15.62,35.40 L 15.21,32.56 C 15.23,32.54 15.32,32.48 15.34,32.46 L 15.31,32.43 z" id="p3407" style="opacity:1;fill:#4b4943;fill-opacity:0.56;fill-rule:evenodd;stroke:none;marker:none;visibility:visible;display:inline;overflow:visible;enable-background:accumulate"/>
<path d="M 9.43,33.28 L 7.68,34.65 C 7.76,34.92 7.94,35.33 8.40,35.81 C 8.92,36.34 9.37,36.54 9.68,36.62 L 11.21,35.28 C 10.54,34.77 9.97,33.96 9.43,33.28 z" id="p3443" style="fill:#585448;fill-opacity:0.75;fill-rule:evenodd;stroke:none;"/>
<path d="M 9.59,32.81 L 9.65,33.09 L 9.18,33.46 C 9.32,33.72 9.50,34.06 9.75,34.37 C 10.08,34.80 10.68,35.23 11,35.46 L 11.43,35.06 L 11.75,35.12 C 11.30,34.90 10.39,33.71 9.59,32.81 z" id="p3417" style="fill:#3d3c37;fill-opacity:0.67;fill-rule:evenodd;stroke:none;display:inline"/>
<path d="M 5.03,36.53 L 4.5,36.96 C 4.21,37.82 6.15,39.80 6.84,39.37 C 6.89,39.34 6.94,39.31 7,39.28 L 7.43,38.75 C 7.43,38.75 6.54,38.51 5.90,37.87 C 5.26,37.23 5.03,36.53 5.03,36.53 z" id="p3419" style="fill:#34332f;fill-opacity:0.67;fill-rule:evenodd;stroke:none;display:inline"/>
<path d="M 10.55,32.84 L 13.71,30.32" id="p3429" style="opacity:1;fill:none;fill-opacity:1;fill-rule:evenodd;stroke:#e5ca9e;stroke-width:1.10;stroke-linecap:round;stroke-linejoin:miter;marker:none;stroke-miterlimit:4;stroke-dasharray:none;stroke-dashoffset:0;stroke-opacity:0.22;visibility:visible;display:inline;overflow:visible;enable-background:accumulate"/>
<path d="M 14.67,31.44 L 10.95,34.56" id="p3431" style="fill:none;fill-rule:evenodd;stroke:#454541;stroke-width:1px;stroke-linecap:round;stroke-linejoin:miter;stroke-opacity:0.87;display:inline"/>
<path d="M 13.99,33.29 L 16.79,30.94" id="p3434" style="opacity:1;fill:none;fill-opacity:1;fill-rule:evenodd;stroke:#ebd2a7;stroke-width:0.5;stroke-linecap:round;stroke-linejoin:miter;marker:none;stroke-miterlimit:4;stroke-dasharray:none;stroke-dashoffset:0;stroke-opacity:0.41;visibility:visible;display:inline;overflow:visible;enable-background:accumulate"/>
<path d="M 13.20,34.17 L 15.16,32.57" id="p3436" style="fill:none;fill-rule:evenodd;stroke:#3f3f3f;stroke-width:0.2;stroke-linecap:butt;stroke-linejoin:miter;stroke-miterlimit:4;stroke-dasharray:none;stroke-opacity:1;display:inline"/>
<path d="M 7.20,38.96 L 9.78,36.87" id="p3439" style="fill:none;fill-rule:evenodd;stroke:#3d3d3d;stroke-width:0.30;stroke-linecap:butt;stroke-linejoin:miter;stroke-miterlimit:4;stroke-dasharray:none;stroke-opacity:1"/>
<path d="M 4.66,36.97 L 7.43,34.62" id="p3441" style="fill:none;fill-rule:evenodd;stroke:#343434;stroke-width:0.2;stroke-linecap:butt;stroke-linejoin:miter;stroke-miterlimit:4;stroke-dasharray:none;stroke-opacity:1"/>
<path d="M 5.77,38.80 L 8.80,36.32" id="p3452" style="fill:none;fill-rule:evenodd;stroke:#bfb183;stroke-width:0.60;stroke-linecap:round;stroke-linejoin:miter;stroke-miterlimit:4;stroke-dasharray:none;stroke-opacity:0.60;display:inline"/>
<path d="M 7.66,34.62 C 8.32,35.62 8.73,36.04 9.58,36.58" id="p3448" style="fill:none;fill-rule:evenodd;stroke:#262626;stroke-width:0.40;stroke-linecap:butt;stroke-linejoin:miter;stroke-miterlimit:4;stroke-dasharray:none;stroke-opacity:1"/>
<path d="M 4.99,37.40 L 5.18,37.75" id="p3450" style="fill:none;fill-rule:evenodd;stroke:#1d1d1d;stroke-width:0.80;stroke-linecap:round;stroke-linejoin:miter;stroke-miterlimit:4;stroke-dasharray:none;stroke-opacity:1"/>
<path d="M 18.14,29.31 L 21.82,26.35" id="p3458" style="fill:none;fill-rule:evenodd;stroke:#cab983;stroke-width:1.20;stroke-linecap:round;stroke-linejoin:miter;stroke-miterlimit:4;stroke-dasharray:none;stroke-opacity:0.11;display:inline"/>
<path d="M 8.73,34.41 L 9.68,33.70" id="p3461" style="fill:none;fill-rule:evenodd;stroke:#2d2d2d;stroke-width:0.80;stroke-linecap:round;stroke-linejoin:miter;stroke-miterlimit:4;stroke-dasharray:none;stroke-opacity:0.85"/>
<path d="M 22.35,27.54 L 27.69,23.21" id="p3393" style="fill:none;fill-rule:evenodd;stroke:#1f1f1f;stroke-width:0.2;stroke-linecap:butt;stroke-linejoin:miter;stroke-miterlimit:4;stroke-dasharray:none;stroke-opacity:1"/>
<path d="M 25.98,19.19 C 26.90,20.06 27.93,21.29 28.18,22.01" id="p3356" style="fill:none;fill-rule:evenodd;stroke:#393939;stroke-width:0.5;stroke-linecap:butt;stroke-linejoin:miter;stroke-miterlimit:4;stroke-dasharray:none;stroke-opacity:1"/>
<path d="M 19.38,24.51 L 25.53,19.64" id="p3375" style="fill:none;fill-rule:evenodd;stroke:#3b3b3b;stroke-width:0.30;stroke-linecap:butt;stroke-linejoin:miter;stroke-miterlimit:4;stroke-dasharray:none;stroke-opacity:1;display:inline"/>
<path d="M 21.82,27.24 L 27.75,22.41" id="p3379" style="opacity:1;fill:none;fill-opacity:1;fill-rule:evenodd;stroke:#2b2b2b;stroke-width:0.30;stroke-linecap:butt;stroke-linejoin:miter;marker:none;stroke-miterlimit:4;stroke-dasharray:none;stroke-dashoffset:0;stroke-opacity:1;visibility:visible;display:inline;overflow:visible;enable-background:accumulate"/>
<path d="M 13.49,29.36 C 13.85,30.28 14.68,31.44 15.80,32.02" id="p3403" style="fill:none;fill-rule:evenodd;stroke:#222222;stroke-width:0.69;stroke-linecap:butt;stroke-linejoin:miter;stroke-miterlimit:4;stroke-dasharray:none;stroke-opacity:1"/>
<path d="M 25.32,20.74 L 25.49,20.60" id="p3395" style="fill:none;fill-rule:evenodd;stroke:#161616;stroke-width:0.69;stroke-linecap:round;stroke-linejoin:miter;stroke-miterlimit:4;stroke-dasharray:none;stroke-opacity:0.83"/>
<path d="M 42.75,6.83 C 41.96,6.89 40.95,7.13 40.03,7.86 C 38.60,8.99 32.19,14.20 25.62,19.55 L 21.40,19.33 L 18.21,21.86 L 19.40,24.61 C 17.08,26.50 13.84,29.13 12.71,30.05 L 9.53,29.17 L 8.56,29.99 L 9.90,31.08 L 6.5,33.92 L 4.84,32.89 L 3.31,34.24 L 4.71,36.70 L 4.62,36.77 C 3.84,37.46 6.09,39.83 6.84,39.36 C 6.97,39.28 7.11,39.18 7.25,39.08 L 9.87,40.36 L 11.18,39.30 L 10.31,37.74 L 13.62,35.02 L 14.5,36.30 L 15.62,35.39 L 15.21,32.55 C 16.35,31.63 19.55,29.05 21.84,27.20 L 24.34,28.58 L 27.37,26.17 L 27.78,22.45 C 34.40,17.13 40.91,11.90 42.43,10.70 C 44.23,9.30 44.09,6.92 44.09,6.92 C 44.09,6.92 43.53,6.77 42.75,6.83 z M 10.40,31.49 L 10.68,31.70 C 10.60,31.77 9.56,32.61 9.56,32.61 L 9.65,33.08 L 7.68,34.64 L 7.06,34.27 L 10.40,31.49 z M 13.12,34.24 L 13.28,34.49 L 10.03,37.20 L 9.68,36.61 L 11.43,35.05 L 12,35.14 C 12,35.14 13.04,34.30 13.12,34.24 z" id="stroke01" style="fill:none;fill-rule:evenodd;stroke:#000000;stroke-width:0.5;stroke-linecap:butt;stroke-linejoin:round;stroke-miterlimit:4;stroke-dasharray:none;stroke-opacity:1;display:inline"/>
</g>
</svg>
