<?xml version="1.0" encoding="UTF-8" standalone="no"?>
<!DOCTYPE svg PUBLIC "-//W3C//DTD SVG 1.0//EN" "http://www.w3.org/TR/2001/REC-SVG-20010904/DTD/svg10.dtd">
<svg xmlns:svg="http://www.w3.org/2000/svg" xmlns="http://www.w3.org/2000/svg" version="1.0" width="100%" height="100%" viewBox="0 0 48 48" id="_moon01" style="display:inline">
<defs id="defs2818"/>
<g id="moon01" style="display:inline">
<path d="M 45.33,23.94 C 45.33,35.76 35.76,45.33 23.94,45.33 C 12.13,45.33 2.55,35.76 2.55,23.94 C 2.55,12.13 12.13,2.55 23.94,2.55 C 35.76,2.55 45.33,12.13 45.33,23.94 L 45.33,23.94 z" id="p4881" style="fill:#7f7f7f;fill-opacity:1;fill-rule:evenodd;stroke:none;marker:none;visibility:visible;display:inline;overflow:visible;enable-background:accumulate"/>
<path d="M 20.08,3.08 C 19.17,3.11 18.17,3.74 17.63,4.48 L 17.69,4.57 L 17.72,4.60 C 17.71,4.59 17.73,4.61 17.75,4.65 C 17.92,4.81 18.59,5.47 19.21,5.24 C 20.28,6.29 21.73,5.29 22.85,4.71 C 24.45,4.90 25.46,6.86 27.05,6.70 C 28.59,5.04 29.50,7.48 30.55,8.18 C 32.98,8.02 29.86,9.99 30.52,11.13 C 30.54,13.75 34.17,13.29 34.58,15.77 C 35.62,17.09 35.69,18.94 36.85,20.14 C 37.61,21.79 40.71,19.44 39.30,18.51 C 38.94,17.57 38.95,16.18 37.47,16.12 C 35.49,16.23 36.36,13.63 34.78,13.17 C 36.33,13.17 34.81,11.46 36.21,11.10 C 35.85,9.66 37.80,8.82 38.69,10.20 C 39.97,11.00 40.39,12.48 40.85,13.81 C 40.94,15.26 42.41,14.98 42.98,14.22 C 41.52,11.37 39.46,8.89 36.94,6.96 C 36.41,7.48 36.23,8.68 36.12,9.35 C 34.90,11.42 31.78,8.86 33.18,7.22 C 32.69,6.50 30.98,6.12 30.09,5.35 C 28.65,4.40 26.83,4.88 25.27,4.30 C 23.97,3.62 22.54,5.43 21.57,3.78 C 21.16,3.26 20.63,3.06 20.08,3.08 z" id="p5410" style="fill:#3a3a3a;fill-opacity:0.77;fill-rule:evenodd;stroke:none;marker:none;visibility:visible;display:inline;overflow:visible;enable-background:accumulate"/>
<path d="M 17.66,4.57 C 16.05,4.85 14.33,6.10 12.70,5.73 C 12.70,5.74 12.68,5.73 12.68,5.73 C 9.53,7.69 6.96,10.46 5.18,13.73 C 5.17,13.74 5.16,13.74 5.15,13.75 C 4.58,15.20 3.93,16.62 3.98,18.22 C 4.89,19.71 5.68,21.03 5.50,22.91 C 5.51,24.57 6.64,26.84 7.16,27.75 C 6.76,25.71 8.25,27.35 9.18,27.14 C 10.01,25.06 12.88,26.89 11.04,28.40 C 9.04,29.82 9.13,32.47 11.42,33.47 C 12.73,34.26 13.89,32.42 13.93,31.49 C 12.87,30.35 12.33,28.61 14.34,28.86 C 14.63,28.02 14.56,26.03 15.74,27.58 C 17.00,28.36 15.85,30.19 15.39,30.38 C 17.39,31.08 15.31,33.52 17.58,33.76 C 19.20,34.42 20.13,32.83 20.40,31.75 C 22.07,31.02 20.58,29.43 21.75,28.28 C 22.41,26.59 20.04,26.87 20.55,25.27 C 20.20,22.99 17.58,23.78 18.65,25.89 C 19.13,26.91 18.73,27.79 17.98,26.53 C 17.35,25.31 16.22,24.39 17.17,23.17 C 16.68,20.83 14.44,22.32 14.57,24.08 C 14.21,26.44 11.91,24.01 13.58,23.09 C 16.19,22.89 12.84,20.79 14.08,19.38 C 15.11,17.93 12.54,15.77 11.92,18.04 C 11.30,18.75 11.44,21.95 10.31,19.79 C 9.53,17.35 12.05,15.69 14.19,16.20 C 15.93,15.28 18.21,15.26 19.56,16.88 C 21.44,18.96 16.59,19.43 18.30,21.75 C 19.04,23.11 20.99,23.13 22.24,23.20 C 21.28,22.23 21.62,21.12 23.09,21.89 C 24.07,23.56 25.83,21.00 24.17,20.46 C 21.55,20.17 24.65,17.43 25.57,19.44 C 27.05,20.40 28.81,20.01 30.00,19.09 C 31.90,20.08 27.48,22.55 30.35,22.94 C 31.64,23.52 34.31,24.21 32.54,25.74 C 32.33,27.29 34.35,28.32 35.45,28.16 C 34.08,28.95 34.11,31.37 36.10,30.58 C 38.00,28.33 34.36,26.74 35.31,24.46 C 36.26,21.64 38.54,25.49 38.55,26.97 C 39.12,28.47 39.27,29.49 38.63,30.93 C 38.78,33.25 40.75,31.86 40.94,30.50 C 41.99,31.46 41.72,33.40 42.54,34.55 C 44.33,31.43 45.34,27.79 45.34,23.93 C 45.34,21.89 45.03,19.92 44.50,18.04 C 44.10,17.20 43.70,16.35 43.27,15.53 C 41.79,13.86 38.78,16.57 40.06,18.39 C 40.90,20.13 43.16,20.98 43.65,22.85 C 41.95,25.26 40.00,21.40 39.92,19.67 C 38.74,18.61 38.34,14.81 36.42,15.91 C 35.76,16.95 34.37,17.15 34.70,15.50 C 34.16,13.74 33.44,11.40 32.51,10.20 C 31.13,10.76 29.91,10.84 28.63,9.99 C 26.60,9.60 27.62,14.22 26.21,11.63 C 25.61,9.61 25.05,7.20 22.80,6.40 C 21.00,5.25 19.64,6.47 18.01,6.96 C 15.88,6.45 15.44,8.90 13.87,9.70 C 11.48,10.11 13.69,6.52 15.18,6.55 C 16.03,6.57 18.68,5.21 17.66,4.57 z" id="p5394" style="fill:#2d2d2d;fill-opacity:1;fill-rule:evenodd;stroke:none;display:inline"/>
<path d="M 43.15,14.54 C 43.58,15.91 43.55,17.26 42.16,18.10 C 42.26,19.50 44.47,20.00 44.32,21.63 C 44.73,23.13 44.45,24.80 43.30,25.89 C 44.06,27.36 43.14,28.81 41.52,29.04 C 40.31,31.00 42.21,32.86 42.31,34.93 C 44.23,31.72 45.34,27.95 45.34,23.93 C 45.34,20.57 44.54,17.38 43.15,14.54 z M 41.61,36.01 C 41.00,36.10 40.24,36.19 39.80,36.82 C 38.71,38.49 37.26,36.33 35.98,37.70 C 35.03,39.14 33.05,39.38 32.22,40.76 C 32.04,42.79 34.24,42.89 34.87,41.17 C 34.86,41.59 35.02,41.89 35.28,42.10 C 37.79,40.53 39.94,38.45 41.61,36.01 z" id="p5397" style="fill:#3a3a3a;fill-opacity:0.77;fill-rule:evenodd;stroke:none;display:inline"/>
<path d="M 37.29,31.25 C 37.28,31.16 35.82,32.16 35.19,32.16 C 34.15,32.16 32.92,32.35 32.01,32.65 C 30.56,33.14 28.25,33.99 27.35,34.17 C 25.08,34.62 24.66,34.69 26.35,33.56 C 27.23,32.97 25.18,33.67 24.37,33.67 C 24.20,33.67 24.04,33.67 23.87,33.67 C 23.65,33.67 24.86,31.67 23.67,32.86 C 23.11,33.42 22.01,34.90 21.77,33.97 C 21.75,33.85 20.63,35.42 20.20,34.35 C 20.11,34.11 19.05,35.09 18.51,34.55 C 18.06,34.10 17.54,34.73 17.52,34.75 C 17.13,35.14 16.53,33.92 16.00,34.05 C 15.57,34.16 15.37,34.37 15.01,34.55 C 14.97,34.57 14.95,34.63 14.92,34.67 C 14.79,34.79 14.59,34.80 14.43,34.87 C 13.33,34.87 11.47,34.87 10.05,34.87 C 9.36,34.87 11.12,35.49 11.45,35.66 C 12.73,36.30 10.56,35.90 9.64,36.36 C 8.89,36.73 6.36,36.35 8.85,37.06 C 9.73,37.31 11.05,37.35 11.63,37.64 C 12.17,37.91 9.20,39.25 11.13,39.25 C 11.73,39.25 14.75,37.79 13.81,38.72 C 13.22,39.31 12.53,39.83 13.03,40.32 C 13.77,41.07 16.18,39.76 16.41,39.62 C 16.67,39.47 15.53,40.85 15.21,42.10 C 15.01,42.90 16.00,39.83 17.31,39.83 C 18.18,39.83 17.14,41.83 16.82,42.80 C 16.47,43.84 17.16,43.22 17.31,42.60 C 17.37,42.38 17.13,43.19 16.96,44.15 C 17.18,44.22 17.39,44.31 17.60,44.38 C 17.86,43.89 18.12,43.38 18.30,43.10 C 18.79,42.37 18.85,44.19 18.80,44.73 C 18.84,44.74 18.88,44.72 18.92,44.73 C 19.19,44.30 20.28,42.76 20.78,44.79 C 20.81,44.91 20.84,44.99 20.87,45.11 C 21.88,45.25 22.89,45.34 23.93,45.34 C 24.12,45.34 24.30,45.35 24.49,45.34 C 24.50,45.17 24.52,45.02 24.57,44.90 C 25.03,43.99 24.55,43.46 25.45,43.91 C 26.28,44.33 24.78,40.85 27.64,43.71 C 27.83,43.90 28.34,44.33 28.92,44.76 C 29.48,44.62 30.01,44.47 30.55,44.29 C 29.90,43.38 29.27,42.41 30.64,43.10 C 31.04,43.30 31.51,43.56 31.98,43.77 C 32.49,43.56 32.98,43.34 33.47,43.10 C 33.41,43.00 33.40,42.92 33.32,42.80 C 32.86,42.11 28.86,40.33 32.42,41.52 C 33.23,41.79 37.40,41.78 34.90,40.53 C 33.47,39.81 27.81,38.92 29.24,38.92 C 32.60,38.92 35.99,38.41 39.19,37.35 C 40.68,36.85 36.18,36.15 34.61,36.15 C 33.10,36.15 30.90,36.23 29.27,36.56 C 28.50,36.83 27.24,37.32 27.75,37.06 C 28.14,36.86 28.66,36.68 29.27,36.56 C 29.38,36.52 29.54,36.47 29.62,36.45 C 31.06,35.97 33.93,34.36 34.40,33.76 C 34.48,33.67 32.77,34.96 31.22,34.96 C 31.16,34.96 31.11,34.98 31.05,34.99 C 29.24,36.11 29.21,35.06 31.05,34.99 C 31.12,34.95 31.15,34.92 31.22,34.87 C 31.81,34.48 34.37,33.26 34.96,33.00 C 34.95,33.02 35.00,32.98 35.02,32.97 C 35.21,32.79 36.78,31.79 37.20,31.37 C 37.27,31.31 37.29,31.27 37.29,31.25 z" id="p5525" style="fill:#bfbfbf;fill-opacity:0.33;fill-rule:evenodd;stroke:none;"/>
<path d="M 21.01,33.03 C 20.72,33.87 19.25,33.61 18.95,34.65 C 18.73,35.11 18.49,35.96 18.12,35.06 C 17.74,34.18 17.47,33.19 16.74,32.53 C 16.75,33.34 17.20,34.19 17.57,34.93 C 18.19,35.53 19.05,36.36 18.00,37.02 C 17.24,37.70 19.09,38.30 18.04,38.93 C 17.13,39.79 19.49,38.47 19.21,39.74 C 19.22,40.19 19.72,41.62 19.67,40.39 C 19.74,39.85 19.53,38.73 19.78,38.57 C 20.36,39.25 20.50,40.18 21.02,40.89 C 20.92,40.14 20.56,39.29 20.74,38.48 C 21.41,39.29 22.11,40.16 23.15,40.48 C 23.62,40.62 24.59,41.75 23.92,40.66 C 23.69,40.14 22.86,39.03 23.94,39.56 C 25.24,39.52 24.01,38.20 24.27,37.56 C 24.95,37.38 25.76,37.50 26.40,37.09 C 27.54,36.49 28.55,35.61 29.14,34.45 C 29.89,33.42 28.07,34.74 27.61,34.72 C 26.46,35.06 25.03,35.23 24.38,36.39 C 24.68,35.61 25.05,34.83 25.59,34.18 C 24.62,34.41 23.81,35.09 22.86,35.38 C 23.58,34.14 24.71,33.16 25.24,31.81 C 25.49,31.40 25.73,30.78 25.01,31.18 C 23.94,31.80 22.91,32.47 21.89,33.16 C 21.46,33.40 21.47,35.25 21.09,34.28 C 20.99,33.87 21.00,33.45 21.01,33.03 z" id="p5413" style="fill:#e9e9e9;fill-opacity:0.54;fill-rule:evenodd;stroke:none;display:inline"/>
<path d="M 10.04,11.75 C 7.35,13.19 7.05,16.92 6.81,19.56 C 8.99,21.60 9.95,23.69 11.72,26.02 C 13.11,28.74 15.17,23.76 16.34,27.24 C 16.76,29.14 12.64,30.18 15.52,32.17 C 15.13,30.26 18.33,30.97 17.76,28.35 C 16.79,25.85 17.96,30.64 19.55,28.37 C 21.70,26.41 16.21,22.68 20.36,22.81 C 21.81,20.75 23.39,21.94 24.55,22.96 C 24.45,21.56 24.25,19.84 25.91,19.71 C 24.45,18.85 20.83,18.04 24.36,17.03 C 24.88,15.67 22.03,15.49 24.61,14.81 C 27.73,15.73 28.98,12.45 25.60,11.70 C 22.99,11.30 21.22,13.12 19.16,14.17 C 19.48,14.35 17.96,8.86 15.46,11.30 C 13.51,11.28 10.82,9.01 10.04,11.75 z" id="p5425" style="fill:#313131;fill-opacity:0.89;fill-rule:evenodd;stroke:none;display:inline"/>
<path d="M 9.29,13.26 C 9.24,12.68 9.98,13.03 10.27,13.11 C 10.88,13.05 10.67,12.30 10.95,11.99 C 11.32,11.94 11.61,12.38 11.59,12.72 C 11.63,13.11 11.39,13.57 11.70,13.89 C 12.17,14.04 12.05,14.55 11.72,14.81 C 11.52,15.11 11.64,15.51 11.74,15.83 C 11.85,16.15 12.09,16.39 12.33,16.62 C 12.61,17.06 12.68,17.59 12.89,18.05 C 13.11,18.41 13.13,18.85 12.83,19.16 C 12.66,19.52 13.07,19.93 12.74,20.24 C 12.46,20.52 11.94,20.74 11.58,20.46 C 11.40,20.16 11.36,19.72 10.98,19.55 C 10.61,19.34 10.20,19.14 10.00,18.74 C 9.77,18.38 9.64,17.98 9.57,17.57 C 9.84,17.11 10.43,17.63 10.76,17.33 C 11.07,16.99 11.02,16.47 10.84,16.08 C 10.50,15.84 10.55,15.38 10.87,15.19 C 11.04,14.70 10.59,14.17 10.10,14.15 C 9.69,14.11 9.04,13.75 9.29,13.26 L 9.29,13.26 z" id="p5449" style="fill:#3d3d3d;fill-opacity:0.58;fill-rule:evenodd;stroke:none;"/>
<path d="M 10.78,11.76 C 10.38,12.79 7.88,14.59 10.34,14.12 C 11.05,14.93 12.59,17.84 11.24,18.09 C 9.38,17.38 10.75,23.74 11.76,20.55 C 12.23,19.10 13.52,20.31 14.60,20.87 C 12.52,22.44 15.81,24.48 16.38,22.03 C 19.37,23.01 15.93,26.57 19.00,27.71 C 19.29,26.56 18.90,23.62 18.95,23.74 C 20.18,25.07 22.86,28.22 23.98,25.26 C 23.90,23.89 23.99,20.61 22.05,22.65 C 20.58,23.31 18.90,21.73 18.31,20.89 C 18.41,19.67 22.29,19.28 20.60,17.04 C 19.62,15.25 22.76,17.00 23.26,17.21 C 25.35,17.25 26.40,14.59 26.55,13.01 C 25.59,13.74 23.66,14.51 23.95,12.51 C 25.67,13.67 25.71,11.82 27.45,11.44 C 28.87,10.08 25.00,12.99 25.62,10.30 C 26.52,8.40 23.39,6.07 23.89,9.20 C 24.08,11.36 20.17,12.72 23.15,14.37 C 22.70,15.62 20.06,17.28 18.75,16.33 C 19.08,15.48 19.52,15.11 18.73,14.22 C 19.15,13.24 20.00,9.88 18.86,12.44 C 18.26,14.09 18.46,17.61 15.83,15.61 C 12.67,14.53 14.68,18.38 14.04,19.61 C 11.64,19.31 12.73,15.93 10.86,14.67 C 10.35,13.71 10.80,12.59 10.78,11.76 z" id="p5433" style="fill:#c9c9c9;fill-opacity:0.22;fill-rule:evenodd;stroke:none;display:inline"/>
<path d="M 10.27,13.53 C 10.20,13.81 10.01,14.05 9.85,14.05 C 9.69,14.05 9.62,13.83 9.70,13.54 C 9.77,13.25 9.96,13.02 10.12,13.02 C 10.27,13.01 10.34,13.24 10.27,13.53 z" id="p5439" style="fill:#f9f9f9;fill-opacity:0.83;fill-rule:evenodd;stroke:none;marker:none;visibility:visible;display:inline;overflow:visible;enable-background:accumulate"/>
<path d="M 11.04,17.80 C 11.01,18.29 10.86,18.77 10.71,19.23 C 10.59,19.44 10.40,19.13 10.28,19.06 C 10.16,18.89 9.87,18.95 9.95,19.18 C 10.00,19.39 9.88,19.68 10.19,19.69 C 10.41,19.74 10.64,19.61 10.86,19.68 C 11.03,19.80 10.95,20.09 11.18,20.19 C 11.31,20.31 11.58,20.45 11.44,20.66 C 11.26,20.76 11.20,20.92 11.18,21.13 C 11.19,21.27 11.01,21.37 10.98,21.45 C 11.26,21.53 11.59,21.41 11.72,21.15 C 11.86,20.88 11.87,20.54 11.73,20.26 C 11.86,19.75 12.25,19.32 12.23,18.78 C 12.27,18.63 12.18,18.23 11.98,18.36 C 11.90,18.51 11.83,18.90 11.59,18.69 C 11.45,18.52 11.41,18.29 11.31,18.10 C 11.28,17.98 11.46,17.85 11.26,17.82 C 11.18,17.80 11.11,17.81 11.04,17.80 z" id="p5441" style="fill:#a3a3a3;fill-opacity:0.43;fill-rule:evenodd;stroke:none;display:inline"/>
<path d="M 12.04,16.80 C 12.09,17.00 12.05,17.18 11.96,17.21 C 11.87,17.23 11.75,17.09 11.70,16.89 C 11.65,16.68 11.68,16.50 11.78,16.48 C 11.87,16.46 11.99,16.60 12.04,16.80 z" id="p5447" style="fill:#e0e0e0;fill-opacity:0.58;fill-rule:evenodd;stroke:none;marker:none;visibility:visible;display:inline;overflow:visible;enable-background:accumulate"/>
<path d="M 15.13,13.83 C 15.13,14.13 14.98,14.37 14.80,14.37 C 14.61,14.37 14.46,14.13 14.46,13.83 C 14.46,13.54 14.61,13.29 14.80,13.29 C 14.98,13.29 15.13,13.54 15.13,13.83 L 15.13,13.83 z" id="p5457" style="fill:#bfbfbf;fill-opacity:0.80;fill-rule:evenodd;stroke:none;marker:none;visibility:visible;display:inline;overflow:visible;enable-background:accumulate"/>
<path d="M 14.82,17.01 C 14.66,16.34 14.43,15.68 14.15,15.06 C 14.56,15.57 14.88,16.14 15.19,16.71 C 15.34,16.59 15.29,16.11 15.37,16.55 C 15.48,17.13 15.72,17.70 16.10,18.17 C 16.13,17.55 16.26,16.92 16.60,16.40 C 16.93,15.80 17.23,15.18 17.52,14.57 C 17.78,14.63 17.49,15.16 17.59,15.41 C 17.58,15.84 17.53,16.28 17.31,16.67 C 17.60,15.96 18.01,15.31 18.52,14.74 C 18.56,15.25 18.12,15.63 18.02,16.11 C 17.89,16.42 17.77,16.73 17.68,17.05 C 18.00,16.46 18.34,15.84 18.91,15.45 C 19.31,15.74 18.82,16.17 18.72,16.50 C 18.49,16.99 18.14,17.44 18.04,17.99 C 18.49,18.22 18.92,17.86 19.31,17.69 C 19.59,17.48 19.71,17.82 19.45,17.95 C 19.13,18.13 18.68,18.68 19.24,18.86 C 19.58,18.96 19.43,19.28 19.13,19.23 C 18.72,19.27 18.23,19.05 17.91,19.38 C 17.93,19.80 18.58,19.87 18.63,20.20 C 18.23,20.17 17.93,19.83 17.53,19.76 C 17.52,19.93 18.14,20.33 17.76,20.56 C 17.39,20.56 17.08,19.89 16.73,20.21 C 16.69,20.51 16.91,20.81 17.01,21.09 C 17.17,21.44 17.30,21.81 17.56,22.10 C 17.76,22.26 17.84,22.93 17.50,22.54 C 17.20,22.17 17.11,21.71 17.03,21.26 C 16.86,20.77 16.46,20.41 16.25,19.94 C 16.45,21.03 16.50,22.15 16.32,23.24 C 16.30,22.07 16.29,20.88 15.95,19.76 C 15.69,20.46 15.59,21.22 15.55,21.96 C 15.30,22.50 14.71,21.76 15.00,21.41 C 15.09,21.00 15.36,20.54 15.10,20.13 C 14.92,19.90 15.42,19.28 14.89,19.38 C 14.78,19.03 14.68,18.59 14.21,18.65 C 14.06,18.67 13.50,18.39 13.82,18.35 C 14.19,18.45 14.68,18.86 14.92,18.88 C 14.66,18.46 14.28,18.11 14.07,17.66 C 14.22,17.37 14.80,18.04 14.63,17.53 C 14.64,17.34 14.74,17.17 14.82,17.01 z" id="p5460" style="fill:#9d9d9d;fill-opacity:0.14;fill-rule:evenodd;stroke:none;"/>
<path d="M 18.29,18.47 C 18.29,18.91 17.82,19.27 17.24,19.27 C 16.66,19.27 16.19,18.91 16.20,18.47 C 16.19,18.02 16.66,17.66 17.24,17.66 C 17.82,17.66 18.29,18.02 18.29,18.47 z" id="p5467" style="fill:#fefefe;fill-opacity:0.65;fill-rule:evenodd;stroke:none;marker:none;visibility:visible;display:inline;overflow:visible;enable-background:accumulate"/>
<path d="M 13.08,22.00 C 13.08,22.18 12.95,22.33 12.78,22.33 C 12.62,22.33 12.48,22.18 12.48,22.00 C 12.48,21.82 12.62,21.67 12.78,21.67 C 12.95,21.67 13.08,21.82 13.08,22.00 z" id="p5469" style="fill:#fefefe;fill-opacity:0.65;fill-rule:evenodd;stroke:none;marker:none;visibility:visible;display:inline;overflow:visible;enable-background:accumulate"/>
<path d="M 14.94,24.28 C 14.94,24.76 14.59,25.14 14.16,25.14 C 13.73,25.14 13.38,24.76 13.38,24.28 C 13.38,23.80 13.73,23.41 14.16,23.41 C 14.59,23.41 14.94,23.80 14.94,24.28 z" id="p5471" style="fill:#fefefe;fill-opacity:0.35;fill-rule:evenodd;stroke:none;marker:none;visibility:visible;display:inline;overflow:visible;enable-background:accumulate"/>
<path d="M 14.16,24.64 C 14.16,24.88 14.01,25.09 13.83,25.09 C 13.65,25.09 13.50,24.88 13.50,24.64 C 13.50,24.39 13.65,24.19 13.83,24.19 C 14.01,24.19 14.16,24.39 14.16,24.64 z" id="p5473" style="fill:#fefefe;fill-opacity:0.66;fill-rule:evenodd;stroke:none;marker:none;visibility:visible;display:inline;overflow:visible;enable-background:accumulate"/>
<path d="M 31.58,15.60 C 31.13,16.74 30.03,17.49 29.65,18.66 C 29.09,19.25 27.69,19.67 28.49,20.69 C 28.40,21.60 27.34,22.06 27.03,22.92 C 26.05,23.45 26.07,21.77 25.60,21.27 C 25.13,20.43 25.31,19.21 24.33,18.68 C 23.47,18.40 23.28,19.73 23.35,20.32 C 23.40,21.13 24.33,21.38 24.51,22.12 C 24.77,22.81 24.87,23.68 25.55,24.10 C 26.05,24.98 25.34,25.87 24.94,26.63 C 24.53,27.21 24.35,27.91 24.20,28.60 C 24.11,29.27 23.54,29.63 23.16,30.11 C 22.86,30.96 24.26,29.64 24.61,29.52 C 25.90,28.72 26.98,27.63 27.81,26.36 C 28.10,25.83 28.40,25.89 28.14,26.48 C 27.91,27.28 27.70,28.10 27.45,28.89 C 27.07,29.37 27.53,30.45 28.03,29.60 C 28.33,29.18 28.66,29.19 28.36,29.72 C 28.17,30.42 27.35,31.07 27.70,31.84 C 28.28,32.35 29.12,31.75 29.76,31.60 C 30.46,31.36 31.18,31.05 31.91,31.00 C 31.27,31.52 30.30,31.78 29.97,32.62 C 29.86,33.45 31.12,32.77 31.65,32.87 C 32.82,32.95 32.69,31.36 33.63,31.08 C 34.33,31.26 34.29,29.15 35.15,30.04 C 35.47,30.45 35.84,29.21 35.81,28.88 C 35.39,27.91 34.17,28.60 33.46,28.65 C 32.95,28.24 32.08,28.15 31.77,27.63 C 32.02,26.87 33.03,26.05 32.11,25.32 C 31.47,24.63 32.45,23.67 31.42,23.24 C 30.68,22.70 29.71,22.65 28.91,22.24 C 28.23,21.65 29.19,20.90 29.40,20.29 C 29.87,19.47 30.34,18.61 30.48,17.65 C 30.97,17.06 31.78,16.48 31.58,15.60 z" id="p5477" style="fill:#727272;fill-opacity:0.80;fill-rule:evenodd;stroke:none;"/>
<path d="M 22.09,15.94 C 23.02,15.50 24.04,15.24 24.86,14.62 C 25.18,14.52 25.05,14.07 24.75,14.07 C 24.55,13.91 24.98,13.88 25.07,13.78 C 25.39,13.62 25.74,13.42 25.88,13.07 C 25.93,12.88 26.32,12.71 26.24,13.04 C 26.10,13.45 25.77,13.78 25.64,14.19 C 25.68,14.51 25.53,14.81 25.52,15.13 C 25.41,15.42 24.98,15.36 24.87,15.65 C 24.44,15.95 23.86,15.86 23.42,16.12 C 23.33,16.44 22.97,16.35 22.78,16.18 C 22.56,16.07 22.34,15.98 22.09,15.94 z" id="p5482" style="fill:#9c9c9c;fill-opacity:0.73;fill-rule:evenodd;stroke:none;display:inline"/>
<path d="M 28.24,17.17 C 28.24,17.41 28.00,17.61 27.70,17.61 C 27.41,17.61 27.17,17.41 27.17,17.17 C 27.17,16.93 27.41,16.74 27.70,16.74 C 28.00,16.74 28.24,16.93 28.24,17.17 L 28.24,17.17 z" id="p5485" style="fill:#727272;fill-opacity:0.80;fill-rule:evenodd;stroke:none;marker:none;visibility:visible;display:inline;overflow:visible;enable-background:accumulate"/>
<path d="M 30.21,16.97 C 30.21,17.15 30.03,17.30 29.80,17.30 C 29.58,17.30 29.40,17.15 29.40,16.97 C 29.40,16.78 29.58,16.63 29.80,16.63 C 30.03,16.63 30.21,16.78 30.21,16.97 L 30.21,16.97 z" id="p5487" style="fill:#d4d4d4;fill-opacity:0.80;fill-rule:evenodd;stroke:none;marker:none;visibility:visible;display:inline;overflow:visible;enable-background:accumulate"/>
<path d="M 17.53,17.42 C 17.53,17.53 17.46,17.64 17.35,17.70 C 17.24,17.76 17.10,17.76 16.98,17.70 C 16.87,17.64 16.80,17.53 16.80,17.42 C 16.80,17.30 16.87,17.20 16.98,17.14 C 17.10,17.08 17.24,17.08 17.35,17.14 C 17.46,17.20 17.53,17.30 17.53,17.42 z" id="p5492" style="fill:#e3e3e3;fill-opacity:0.66;fill-rule:evenodd;stroke:none;marker:none;visibility:visible;display:inline;overflow:visible;enable-background:accumulate"/>
<path d="M 37.55,16.22 C 38.15,16.83 38.74,17.45 39.40,17.99 C 39.58,18.85 39.89,19.67 40.30,20.43 C 40.55,21.21 40.77,22.15 41.59,22.51 C 42.10,23.10 43.30,22.80 42.68,21.95 C 42.01,21.37 41.73,20.55 41.14,19.92 C 40.41,19.36 40.51,18.41 40.30,17.62 C 40.07,16.92 39.86,16.22 39.57,15.56 C 38.98,15.11 38.65,15.95 38.23,16.19 C 38.01,16.21 37.78,16.11 37.55,16.22 z" id="p5494" style="fill:#a3a3a3;fill-opacity:0.66;fill-rule:evenodd;stroke:none;display:inline"/>
<path d="M 35.88,22.78 C 35.37,23.46 34.58,24.12 34.92,25.06 C 35.06,25.82 34.44,27.30 35.63,27.31 C 36.42,27.27 37.36,27.86 37.20,28.74 C 36.90,29.49 36.32,30.61 37.22,31.19 C 38.10,31.45 37.86,30.01 38.65,29.85 C 39.11,29.43 39.59,29.82 40.06,29.79 C 40.15,28.90 38.79,28.99 38.53,28.24 C 38.40,27.55 38.04,26.90 37.48,26.45 C 37.20,26.22 36.21,25.47 37.07,25.49 C 37.75,25.58 38.69,25.20 38.06,24.44 C 38.12,23.78 37.13,24.13 36.75,23.70 C 36.41,23.50 35.85,23.26 35.88,22.78 z" id="p5496" style="fill:#a3a3a3;fill-opacity:0.66;fill-rule:evenodd;stroke:none;display:inline"/>
<path d="M 17.45,35.52 C 17.84,35.54 18.35,36.50 17.65,36.23 C 17.82,37.23 16.27,36.02 16.16,36.28 C 16.61,36.71 17.82,37.03 17.13,37.76 C 17.50,38.18 18.57,37.28 18.02,38.18 C 17.93,38.78 18.73,37.88 18.20,38.51 C 17.81,39.60 19.24,37.99 19.44,38.77 C 19.05,39.67 20.29,38.28 20.69,38.28 C 20.93,38.40 20.10,39.28 20.76,38.78 C 21.17,38.34 21.26,39.51 21.49,38.74 C 21.54,38.30 22.02,37.60 22.33,38.33 C 22.71,38.75 22.97,38.35 22.80,38.01 C 23.41,37.91 23.88,38.90 24.60,38.62 C 25.22,38.11 23.76,37.38 24.85,37.33 C 25.42,37.25 26.67,36.82 26.33,36.12 C 26.02,35.81 24.88,35.76 25.76,35.42 C 26.57,35.11 26.69,34.50 27.00,33.90 C 27.49,33.39 26.28,32.61 27.25,32.47 C 28.20,32.17 28.87,31.32 29.46,30.56 C 29.67,30.23 30.24,29.23 29.98,29.21 C 29.39,29.61 29.07,30.93 28.34,30.76 C 28.00,29.83 28.95,29.03 29.39,28.30 C 29.61,28.03 30.12,27.20 30.20,27.31 C 30.10,27.79 29.25,28.00 29.36,27.32 C 28.96,27.53 27.88,28.33 28.18,27.28 C 28.16,26.86 28.46,25.64 28.13,25.77 C 27.54,26.64 27.68,25.06 27.52,24.68 C 27.44,24.05 27.13,23.25 26.42,23.73 C 25.93,23.80 25.45,23.93 25.52,24.45 C 25.09,24.68 24.62,25.00 25.11,25.43 C 24.79,25.98 22.91,25.95 24.00,26.83 C 24.60,27.47 24.74,28.56 24.19,29.27 C 23.89,29.54 23.65,30.63 23.55,29.72 C 23.59,28.68 23.56,29.97 23.41,30.34 C 23.22,31.24 22.79,32.05 22.48,32.90 C 22.05,33.50 22.29,32.10 21.77,32.08 C 21.78,31.40 22.10,30.66 21.95,29.94 C 21.92,30.84 21.57,31.78 21.11,32.51 C 20.75,31.70 20.44,33.18 20.22,33.46 C 19.89,34.17 19.30,34.88 18.46,34.83 C 18.05,34.83 16.55,34.66 17.47,35.27 C 17.85,35.62 18.22,35.91 17.45,35.52 z" id="p5571" style="fill:#ececec;fill-opacity:0.43;fill-rule:evenodd;stroke:none;"/>
<path d="M 31.37,23.49 C 30.82,24.53 29.74,25.08 28.90,25.85 C 28.49,26.18 27.94,25.95 27.68,25.56 C 27.28,25.15 26.92,24.69 26.52,24.29 C 26.23,24.03 25.65,23.94 25.47,24.38 C 25.21,24.86 25.47,25.53 26.07,25.53 C 26.51,25.79 27.01,25.81 27.49,25.89 C 27.91,26.15 27.85,26.75 28.23,27.04 C 28.74,27.14 29.33,27.19 29.76,26.86 C 29.49,26.69 29.08,27.13 28.74,27.12 C 28.36,27.24 28.00,28.05 28.63,28.00 C 29.20,27.95 29.65,27.54 30.19,27.41 C 30.68,27.44 31.38,27.62 31.61,28.06 C 31.68,28.57 31.19,29.09 31.51,29.57 C 31.88,29.97 32.39,30.25 32.63,30.76 C 33.13,31.03 33.41,30.39 33.33,29.97 C 33.29,29.49 33.06,29.06 32.86,28.63 C 32.54,28.14 32.10,27.73 31.89,27.18 C 31.71,26.75 31.29,26.36 31.20,25.96 C 31.51,25.70 32.09,25.58 31.91,25.05 C 32.16,24.54 32.84,24.68 33.30,24.57 C 33.57,24.50 33.92,24.76 33.53,24.92 C 33.34,25.26 32.95,24.98 33.16,24.67 C 33.24,24.00 32.50,24.03 32.07,23.95 C 31.81,23.83 31.61,23.63 31.37,23.49 z" id="p5506" style="fill:#c2c2c2;fill-opacity:0.66;fill-rule:evenodd;stroke:none;display:inline"/>
<path d="M 14.17,27.91 C 15.39,29.01 15.22,30.84 16.13,32.12 C 16.85,33.49 17.42,34.93 18.29,36.21 C 18.61,37.44 16.71,36.18 16.21,36.84 C 16.60,37.54 17.52,38.69 18.45,38.15 C 18.93,37.50 18.36,39.00 18.34,39.32 C 18.06,40.52 17.03,41.34 16.75,42.55 C 16.56,43.80 17.78,42.42 18.04,41.98 C 18.61,41.22 18.83,40.27 18.90,39.34 C 18.91,38.83 19.74,37.67 19.75,38.79 C 19.66,39.98 19.71,41.17 19.94,42.33 C 20.03,42.97 20.84,44.33 21.25,44.05 C 21.42,42.70 19.97,41.70 20.26,40.32 C 20.49,38.92 22.01,39.21 22.57,40.19 C 23.13,40.92 23.44,39.51 23.84,40.29 C 24.37,41.38 25.43,41.68 26.54,41.78 C 26.97,42.04 27.74,41.69 26.94,41.40 C 26.24,40.75 25.19,40.09 24.76,39.37 C 25.22,38.93 25.93,38.61 25.70,37.91 C 26.62,37.27 27.89,37.84 28.94,37.70 C 30.38,37.83 31.93,37.88 33.25,37.22 C 33.94,36.89 33.67,36.18 32.93,36.45 C 31.80,36.67 30.67,36.86 29.52,36.95 C 28.29,37.03 27.06,36.84 25.83,36.77 C 26.02,35.68 27.32,35.73 28.12,35.34 C 29.09,34.46 30.11,33.61 31.26,32.95 C 32.15,32.02 33.33,31.49 34.44,30.88 C 34.94,30.63 35.05,30.05 34.35,30.43 C 33.04,30.92 31.93,31.81 30.63,32.33 C 29.43,32.98 28.37,33.86 27.13,34.43 C 26.62,35.05 25.07,36.49 24.69,35.20 C 25.28,34.06 26.72,33.76 27.62,32.91 C 28.43,32.70 30.26,31.57 28.89,30.86 C 27.61,30.71 26.68,31.75 25.69,32.38 C 25.04,32.93 23.72,32.72 24.39,31.69 C 24.88,30.79 23.80,30.59 23.30,31.21 C 22.25,31.51 21.82,32.65 21.34,33.33 C 21.18,32.86 21.32,32.13 20.61,32.59 C 19.65,32.85 19.82,34.96 18.71,34.44 C 17.86,33.65 17.11,32.74 16.64,31.66 C 16.24,30.75 15.69,29.93 15.15,29.11 C 14.92,28.65 14.71,28.08 14.17,27.91 z" id="p5512" style="fill:#cfcfcf;fill-opacity:0.53;fill-rule:evenodd;stroke:none;display:inline"/>
<path d="M 20.45,36.88 C 22.29,33.36 24.21,25.69 24.29,23.46" id="p5519" style="fill:none;fill-rule:evenodd;stroke:#c4c4c4;stroke-width:0.65;stroke-linecap:round;stroke-linejoin:miter;stroke-miterlimit:4;stroke-dasharray:none;stroke-opacity:0.41"/>
<path d="M 19.69,37.04 C 18.38,35.66 15.09,27.68 15.09,27.68" id="p5521" style="fill:none;fill-rule:evenodd;stroke:#d8d8d8;stroke-width:0.27;stroke-linecap:round;stroke-linejoin:miter;stroke-miterlimit:4;stroke-dasharray:none;stroke-opacity:0.44"/>
<path d="M 17.84,38.85 C 18.25,38.65 17.24,38.47 17.07,38.32 C 16.51,38.01 16.92,37.39 16.97,36.93 C 17.17,36.46 17.36,35.95 17.77,35.62 C 17.82,35.29 18.12,34.99 18.43,35.34 C 18.85,35.85 19.18,35.29 18.99,34.84 C 19.15,34.43 19.68,35.22 19.99,34.84 C 19.91,34.26 20.55,34.09 20.99,33.88 C 21.44,33.64 22.25,33.03 22.48,33.05 C 22.13,33.55 22.20,34.19 21.99,34.73 C 22.04,34.70 22.60,34.12 22.64,34.51 C 22.44,34.63 22.26,35.16 22.56,34.77 C 22.86,34.39 23.10,34.80 22.91,35.11 C 22.80,35.39 22.52,36.15 23.11,35.85 C 23.35,35.79 23.88,35.50 23.98,35.74 C 23.81,35.91 23.00,36.23 23.47,36.41 C 24.03,36.40 24.59,36.26 25.14,36.37 C 24.46,36.70 23.66,36.66 22.98,36.98 C 22.48,37.39 23.39,37.13 23.61,37.08 C 24.11,36.93 24.63,36.87 25.15,36.84 C 25.66,36.77 26.17,36.67 26.68,36.65 C 26.25,37.04 25.62,37.07 25.10,37.26 C 24.10,37.48 23.07,37.50 22.09,37.76 C 21.93,38.36 22.93,38.33 23.17,38.80 C 23.38,39.01 23.93,39.61 24.10,39.25 C 23.84,38.82 23.27,38.43 22.79,38.44 C 22.70,38.97 23.34,39.33 23.60,39.75 C 23.91,40.17 23.16,39.72 22.98,39.63 C 22.49,39.36 22.00,39.08 21.50,38.80 C 21.16,38.65 21.64,39.36 21.40,38.91 C 21.29,38.39 20.47,38.08 20.33,38.73 C 20.16,38.78 19.84,38.45 19.89,38.83 C 19.59,38.52 18.97,37.74 18.58,38.26 C 18.51,38.72 18.98,39.28 19.35,39.38 C 19.28,38.91 18.68,39.35 18.54,38.89 C 18.35,38.70 18.04,38.63 17.84,38.85 z" id="p5561" style="fill:#ececec;fill-opacity:0.52;fill-rule:evenodd;stroke:none;"/>
<path d="M 21.22,37.07 C 21.22,37.60 20.78,38.03 20.22,38.03 C 19.67,38.03 19.23,37.60 19.23,37.07 C 19.23,36.55 19.67,36.12 20.22,36.12 C 20.78,36.12 21.22,36.55 21.22,37.07 z" id="p5523" style="fill:#f3f3f3;fill-opacity:0.80;fill-rule:evenodd;stroke:none;marker:none;visibility:visible;display:inline;overflow:visible;enable-background:accumulate"/>
<path d="M 42.94,27.98 C 42.77,28.64 42.33,29.09 41.94,29.00 C 41.55,28.90 41.36,28.29 41.53,27.63 C 41.69,26.97 42.14,26.52 42.53,26.61 C 42.92,26.71 43.10,27.32 42.94,27.98 z" id="p5530" style="fill:#bfbfbf;fill-opacity:0.33;fill-rule:evenodd;stroke:none;marker:none;visibility:visible;display:inline;overflow:visible;enable-background:accumulate"/>
<path d="M 35.12,35.00 C 35.95,34.99 36.78,35.02 37.61,34.98 C 37.43,34.88 37.04,35.45 36.73,35.51 C 35.94,35.90 35.04,36.01 34.30,36.50 C 34.71,36.89 35.25,36.27 35.75,36.40 C 36.31,36.35 36.88,36.36 37.45,36.34 C 36.68,36.53 36.07,37.09 35.29,37.26 C 34.75,37.56 34.57,38.22 34.13,38.63 C 33.91,38.79 33.62,39.39 34.15,39.26 C 34.94,38.86 35.87,38.66 36.50,37.98 C 37.19,37.28 37.59,36.33 38.36,35.70 C 38.30,36.22 37.94,36.65 37.84,37.18 C 37.79,37.34 37.62,38.04 37.86,37.58 C 38.25,36.94 38.83,36.45 39.30,35.88 C 39.85,35.81 39.08,36.90 39.50,36.31 C 40.21,35.43 41.02,34.63 41.68,33.72 C 41.95,33.37 41.13,34.15 41.14,33.63 C 41.37,33.32 41.01,32.99 40.83,33.39 C 40.84,33.68 40.49,33.71 40.64,33.38 C 40.85,32.81 41.00,32.21 41.08,31.60 C 41.17,31.17 40.91,31.92 40.83,32.07 C 40.68,32.39 40.52,32.71 40.32,33.00 C 39.84,33.05 40.25,32.02 39.84,32.13 C 39.80,32.45 39.35,33.26 39.09,32.71 C 38.90,32.03 38.46,31.48 38.03,30.95 C 38.04,31.55 38.47,32.07 38.73,32.58 C 39.03,32.88 38.98,33.56 38.43,33.33 C 37.91,33.24 37.38,33.09 36.87,32.98 C 37.25,33.28 37.75,33.34 38.14,33.61 C 38.14,33.91 37.47,33.72 37.20,33.78 C 35.98,33.76 34.74,33.82 33.53,33.53 C 34.32,33.80 35.16,33.89 35.99,33.91 C 36.28,34.08 37.00,33.84 37.00,34.32 C 36.42,34.41 35.80,34.44 35.33,34.83 C 35.25,34.87 35.18,34.93 35.12,35.00 z" id="p5532" style="fill:#bfbfbf;fill-opacity:0.33;fill-rule:evenodd;stroke:none;"/>
<path d="M 38.24,35.28 C 37.85,35.68 37.46,35.94 37.37,35.86 C 37.28,35.77 37.53,35.37 37.92,34.96 C 38.31,34.56 38.70,34.30 38.79,34.38 C 38.88,34.47 38.63,34.87 38.24,35.28 z" id="p5538" style="fill:#ececec;fill-opacity:0.67;fill-rule:evenodd;stroke:none;marker:none;visibility:visible;display:inline;overflow:visible;enable-background:accumulate"/>
<path d="M 38.56,36.22 C 38.25,36.54 37.95,36.74 37.88,36.68 C 37.81,36.61 38.00,36.30 38.31,35.98 C 38.61,35.66 38.92,35.46 38.99,35.52 C 39.06,35.59 38.87,35.90 38.56,36.22 z" id="p5540" style="fill:#ececec;fill-opacity:0.67;fill-rule:evenodd;stroke:none;marker:none;visibility:visible;display:inline;overflow:visible;enable-background:accumulate"/>
<path d="M 27.48,20.81 C 27.71,20.36 28.26,20.66 28.40,21.01 C 28.69,21.21 29.05,21.06 29.37,21.12 C 29.68,21.24 29.73,21.65 29.58,21.91 C 29.53,22.20 29.50,22.65 29.09,22.60 C 28.68,22.70 28.40,23.13 27.95,23.10 C 27.51,23.11 27.26,23.53 27.00,23.82 C 26.65,24.17 27.11,24.47 27.24,24.79 C 27.34,25.12 27.69,25.31 27.94,25.01 C 28.24,24.70 28.64,25.02 28.46,25.39 C 28.33,25.59 28.49,25.90 28.45,26.02 C 28.13,26.11 27.80,26.10 27.49,26.17 C 27.02,26.23 26.56,26.28 26.09,26.33 C 25.99,26.57 25.56,26.84 25.60,26.38 C 25.63,25.99 25.93,25.70 26.09,25.36 C 26.27,25.13 26.49,24.78 26.30,24.50 C 26.01,24.35 25.74,24.03 26.02,23.72 C 26.19,23.62 26.22,23.37 25.96,23.44 C 25.68,23.53 25.44,23.27 25.44,23.00 C 25.44,22.72 25.53,22.44 25.47,22.15 C 25.42,21.99 25.43,21.73 25.62,21.96 C 25.98,22.21 26.26,21.87 26.37,21.57 C 26.70,21.19 27.13,21.86 27.42,21.56 C 27.59,21.40 27.45,21.18 27.35,21.08 C 27.39,20.99 27.48,20.92 27.48,20.81 z" id="p5542" style="fill:#ececec;fill-opacity:0.34;fill-rule:evenodd;stroke:none;display:inline"/>
<path d="M 28.81,21.08 C 28.81,21.50 28.52,21.84 28.17,21.84 C 27.82,21.84 27.54,21.50 27.54,21.08 C 27.54,20.66 27.82,20.32 28.17,20.32 C 28.52,20.32 28.81,20.66 28.81,21.08 z" id="p5549" style="fill:#ececec;fill-opacity:0.67;fill-rule:evenodd;stroke:none;marker:none;visibility:visible;display:inline;overflow:visible;enable-background:accumulate"/>
<path d="M 27.05,24.65 C 27.05,24.93 26.84,25.16 26.57,25.16 C 26.30,25.16 26.09,24.93 26.09,24.65 C 26.09,24.36 26.30,24.13 26.57,24.13 C 26.84,24.13 27.05,24.36 27.05,24.65 z" id="p5551" style="fill:#ececec;fill-opacity:0.67;fill-rule:evenodd;stroke:none;marker:none;visibility:visible;display:inline;overflow:visible;enable-background:accumulate"/>
<path d="M 27.42,25.86 C 27.42,26.01 27.31,26.13 27.18,26.13 C 27.04,26.13 26.93,26.01 26.93,25.86 C 26.93,25.71 27.04,25.59 27.18,25.59 C 27.31,25.59 27.42,25.71 27.42,25.86 z" id="p5553" style="fill:#ececec;fill-opacity:0.87;fill-rule:evenodd;stroke:none;marker:none;visibility:visible;display:inline;overflow:visible;enable-background:accumulate"/>
<path d="M 31.41,24.86 C 31.41,25.19 31.14,25.47 30.80,25.47 C 30.47,25.47 30.20,25.19 30.20,24.86 C 30.20,24.53 30.47,24.26 30.80,24.26 C 31.14,24.26 31.41,24.53 31.41,24.86 z" id="p5555" style="fill:#ececec;fill-opacity:0.87;fill-rule:evenodd;stroke:none;marker:none;visibility:visible;display:inline;overflow:visible;enable-background:accumulate"/>
<path d="M 33.10,28.85 C 33.10,29.15 32.90,29.40 32.65,29.40 C 32.40,29.40 32.19,29.15 32.19,28.85 C 32.19,28.55 32.40,28.31 32.65,28.31 C 32.90,28.31 33.10,28.55 33.10,28.85 z" id="p5557" style="fill:#ececec;fill-opacity:0.87;fill-rule:evenodd;stroke:none;marker:none;visibility:visible;display:inline;overflow:visible;enable-background:accumulate"/>
<path d="M 24.54,29.25 C 24.54,29.49 24.32,29.68 24.04,29.68 C 23.77,29.68 23.54,29.49 23.54,29.25 C 23.54,29.02 23.77,28.83 24.04,28.83 C 24.32,28.83 24.54,29.02 24.54,29.25 L 24.54,29.25 z" id="p5575" style="fill:#ececec;fill-opacity:0.80;fill-rule:evenodd;stroke:none;marker:none;visibility:visible;display:inline;overflow:visible;enable-background:accumulate"/>
<path d="M 25.31,30.64 C 25.31,30.87 25.12,31.06 24.89,31.06 C 24.66,31.06 24.47,30.87 24.47,30.64 C 24.47,30.41 24.66,30.22 24.89,30.22 C 25.12,30.22 25.31,30.41 25.31,30.64 z" id="p5577" style="fill:#ececec;fill-opacity:0.80;fill-rule:evenodd;stroke:none;marker:none;visibility:visible;display:inline;overflow:visible;enable-background:accumulate"/>
<path d="M 28.01,31.99 C 28.01,32.33 27.73,32.60 27.39,32.60 C 27.05,32.60 26.78,32.33 26.78,31.99 C 26.78,31.65 27.05,31.37 27.39,31.37 C 27.73,31.37 28.01,31.65 28.01,31.99 z" id="p5579" style="fill:#ececec;fill-opacity:0.80;fill-rule:evenodd;stroke:none;marker:none;visibility:visible;display:inline;overflow:visible;enable-background:accumulate"/>
<path d="M 24.77,33.34 C 24.77,33.49 24.64,33.61 24.47,33.61 C 24.30,33.61 24.16,33.49 24.16,33.34 C 24.16,33.19 24.30,33.07 24.47,33.07 C 24.64,33.07 24.77,33.19 24.77,33.34 z" id="p5581" style="fill:#ececec;fill-opacity:0.90;fill-rule:evenodd;stroke:none;marker:none;visibility:visible;display:inline;overflow:visible;enable-background:accumulate"/>
<path d="M 24.00,35.26 C 24.00,35.71 23.66,36.07 23.23,36.07 C 22.81,36.07 22.46,35.71 22.46,35.26 C 22.46,34.82 22.81,34.45 23.23,34.45 C 23.66,34.45 24.00,34.82 24.00,35.26 z" id="p5583" style="fill:#ececec;fill-opacity:0.69;fill-rule:evenodd;stroke:none;marker:none;visibility:visible;display:inline;overflow:visible;enable-background:accumulate"/>
<path d="M 17.30,38.21 C 16.90,38.63 16.21,38.61 15.74,38.17 C 15.28,37.73 15.22,37.04 15.62,36.62 C 16.01,36.21 16.71,36.22 17.17,36.66 C 17.63,37.10 17.69,37.80 17.30,38.21 z" id="p5585" style="fill:#ececec;fill-opacity:0.69;fill-rule:evenodd;stroke:none;marker:none;visibility:visible;display:inline;overflow:visible;enable-background:accumulate"/>
<path d="M 10.63,33.06 C 10.58,33.13 10.62,33.42 10.60,33.59 C 10.32,34.27 11.00,34.79 11.10,35.42 C 11.17,36.19 10.40,35.45 10.05,35.42 C 9.37,35.73 10.25,36.49 10.31,36.97 C 10.12,37.30 9.80,36.41 9.47,36.47 C 9.06,37.05 9.74,37.87 9.23,38.43 C 8.57,38.17 8.43,37.38 8.01,36.88 C 7.60,35.95 6.74,35.31 6.29,34.40 C 6.04,34.57 5.88,34.84 5.65,35.02 C 5.65,35.02 5.64,35.04 5.65,35.05 C 7.31,37.78 9.56,40.09 12.24,41.84 C 12.15,41.66 12.07,41.48 12.09,41.26 C 12.10,40.25 11.40,39.47 11.07,38.57 C 10.85,37.89 11.41,38.69 11.42,38.95 C 11.48,39.67 12.20,40.28 12.91,39.97 C 13.50,40.23 13.94,40.72 14.54,40.97 C 15.43,41.28 14.85,39.79 14.22,40.21 C 13.64,40.02 13.29,39.52 12.85,39.13 C 12.11,38.62 11.74,37.49 12.24,36.71 C 12.78,36.44 13.26,35.69 12.65,35.19 C 11.86,34.75 11.40,33.94 10.84,33.27 C 10.73,33.08 10.67,33.02 10.63,33.06 z" id="p5587" style="fill:#4c4c4c;fill-opacity:0.69;fill-rule:evenodd;stroke:none;display:inline"/>
<path d="M 11.91,35.11 C 11.73,35.40 11.31,35.47 10.99,35.26 C 10.66,35.05 10.55,34.65 10.74,34.36 C 10.92,34.07 11.34,34.00 11.66,34.21 C 11.99,34.42 12.10,34.82 11.91,35.11 z" id="p5597" style="fill:#3d3d3d;fill-opacity:0.75;fill-rule:evenodd;stroke:none;marker:none;visibility:visible;display:inline;overflow:visible;enable-background:accumulate"/>
<path d="M 10.74,37.42 C 10.58,37.62 10.22,37.59 9.93,37.36 C 9.63,37.14 9.52,36.79 9.67,36.60 C 9.82,36.40 10.18,36.42 10.48,36.65 C 10.77,36.88 10.89,37.22 10.74,37.42 z" id="p5599" style="fill:#313131;fill-opacity:0.88;fill-rule:evenodd;stroke:none;marker:none;visibility:visible;display:inline;overflow:visible;enable-background:accumulate"/>
<path d="M 14.29,40.42 C 14.11,40.69 13.44,40.58 12.80,40.15 C 12.15,39.73 11.77,39.17 11.95,38.89 C 12.13,38.61 12.80,38.73 13.45,39.15 C 14.10,39.57 14.47,40.14 14.29,40.42 z" id="p5601" style="fill:#424242;fill-opacity:0.88;fill-rule:evenodd;stroke:none;marker:none;visibility:visible;display:inline;overflow:visible;enable-background:accumulate"/>
<path d="M 4.92,23.16 C 4.92,23.88 4.66,24.47 4.35,24.47 C 4.03,24.47 3.77,23.88 3.77,23.16 C 3.77,22.44 4.03,21.85 4.35,21.85 C 4.66,21.85 4.92,22.44 4.92,23.16 L 4.92,23.16 z" id="p5603" style="fill:#1e1e1e;fill-opacity:0.88;fill-rule:evenodd;stroke:none;marker:none;visibility:visible;display:inline;overflow:visible;enable-background:accumulate"/>
<path d="M 7.51,29.51 C 7.95,30.92 7.56,32.30 6.64,32.58 C 5.72,32.87 4.62,31.96 4.18,30.55 C 3.74,29.14 4.13,27.77 5.05,27.48 C 5.97,27.19 7.07,28.10 7.51,29.51 z" id="p5605" style="fill:#aaaaaa;fill-opacity:0.88;fill-rule:evenodd;stroke:none;marker:none;visibility:visible;display:inline;overflow:visible;enable-background:accumulate"/>
<path d="M 6.17,30.62 C 6.45,31.31 6.37,32.01 5.98,32.17 C 5.59,32.33 5.04,31.89 4.76,31.19 C 4.47,30.49 4.56,29.80 4.95,29.64 C 5.34,29.48 5.89,29.92 6.17,30.62 L 6.17,30.62 z" id="p5607" style="fill:#e5e5e5;fill-opacity:0.88;fill-rule:evenodd;stroke:none;marker:none;visibility:visible;display:inline;overflow:visible;enable-background:accumulate"/>
<path d="M 5.50,26.16 C 5.62,26.50 5.57,26.83 5.40,26.89 C 5.23,26.95 5.00,26.72 4.88,26.38 C 4.76,26.03 4.81,25.71 4.98,25.65 C 5.15,25.59 5.38,25.82 5.50,26.16 L 5.50,26.16 z" id="p5609" style="fill:#e5e5e5;fill-opacity:0.88;fill-rule:evenodd;stroke:none;marker:none;visibility:visible;display:inline;overflow:visible;enable-background:accumulate"/>
<path d="M 9.93,32.51 C 10.19,33.10 10.10,33.71 9.74,33.86 C 9.38,34.02 8.88,33.66 8.63,33.06 C 8.37,32.47 8.46,31.86 8.82,31.71 C 9.18,31.55 9.68,31.91 9.93,32.51 z" id="p5611" style="fill:#d0d0d0;fill-opacity:0.88;fill-rule:evenodd;stroke:none;marker:none;visibility:visible;display:inline;overflow:visible;enable-background:accumulate"/>
<path d="M 9.91,29.06 C 10.04,29.38 9.99,29.70 9.81,29.77 C 9.63,29.84 9.38,29.64 9.25,29.32 C 9.12,28.99 9.17,28.67 9.35,28.60 C 9.54,28.53 9.79,28.73 9.91,29.06 L 9.91,29.06 z" id="p5613" style="fill:#dedede;fill-opacity:0.88;fill-rule:evenodd;stroke:none;marker:none;visibility:visible;display:inline;overflow:visible;enable-background:accumulate"/>
<path d="M 39.76,18.04 C 39.82,18.18 39.82,18.33 39.78,18.43 C 39.74,18.53 39.65,18.57 39.54,18.52 C 39.44,18.48 39.35,18.37 39.29,18.22 C 39.23,18.08 39.23,17.93 39.27,17.83 C 39.32,17.73 39.41,17.69 39.51,17.74 C 39.61,17.78 39.70,17.89 39.76,18.04 z" id="p5615" style="fill:#dedede;fill-opacity:0.88;fill-rule:evenodd;stroke:none;marker:none;visibility:visible;display:inline;overflow:visible;enable-background:accumulate"/>
<path d="M 36.35,14.11 C 36.53,14.48 36.51,14.85 36.31,14.95 C 36.11,15.05 35.81,14.83 35.63,14.47 C 35.45,14.11 35.47,13.73 35.67,13.63 C 35.87,13.53 36.18,13.75 36.35,14.11 z" id="p5617" style="fill:#dedede;fill-opacity:0.88;fill-rule:evenodd;stroke:none;marker:none;visibility:visible;display:inline;overflow:visible;enable-background:accumulate"/>
<path d="M 38.43,13.28 C 38.57,13.47 38.62,13.68 38.54,13.73 C 38.46,13.79 38.28,13.68 38.14,13.48 C 38.01,13.29 37.96,13.09 38.04,13.03 C 38.12,12.97 38.30,13.09 38.43,13.28 z" id="p5619" style="fill:#b8b8b8;fill-opacity:0.88;fill-rule:evenodd;stroke:none;marker:none;visibility:visible;display:inline;overflow:visible;enable-background:accumulate"/>
<path d="M 39.23,13.36 C 39.35,13.52 39.39,13.69 39.32,13.74 C 39.25,13.79 39.11,13.69 38.99,13.53 C 38.88,13.37 38.84,13.20 38.91,13.15 C 38.97,13.10 39.12,13.20 39.23,13.36 z" id="p5621" style="fill:#b8b8b8;fill-opacity:0.88;fill-rule:evenodd;stroke:none;marker:none;visibility:visible;display:inline;overflow:visible;enable-background:accumulate"/>
<path d="M 45.33,23.94 C 45.33,35.76 35.76,45.33 23.94,45.33 C 12.13,45.33 2.55,35.76 2.55,23.94 C 2.55,12.13 12.13,2.55 23.94,2.55 C 35.76,2.55 45.33,12.13 45.33,23.94 L 45.33,23.94 z" id="stroke01" style="fill:none;fill-opacity:1;fill-rule:evenodd;stroke:#000000;stroke-width:0.5;stroke-linecap:round;stroke-linejoin:miter;marker:none;stroke-miterlimit:4;stroke-dasharray:none;stroke-dashoffset:0;stroke-opacity:1;visibility:visible;display:inline;overflow:visible;enable-background:accumulate"/>
</g>
</svg>
