<?xml version="1.0" encoding="UTF-8" standalone="no"?>
<!DOCTYPE svg PUBLIC "-//W3C//DTD SVG 1.0//EN" "http://www.w3.org/TR/2001/REC-SVG-20010904/DTD/svg10.dtd">
<svg xmlns:svg="http://www.w3.org/2000/svg" xmlns="http://www.w3.org/2000/svg" version="1.0" width="100%" height="100%" viewBox="0 0 48 48" id="_pressure01">
<defs id="defs2818"/>
<g id="pressure01" style="display:inline">
<path d="M 45.72,23.91 C 45.72,35.93 35.96,45.69 23.92,45.69 C 11.88,45.69 2.12,35.93 2.12,23.91 C 2.12,11.88 11.88,2.13 23.92,2.13 C 35.96,2.13 45.72,11.88 45.72,23.91 L 45.72,23.91 z" id="p3674" style="fill:#484840;fill-opacity:1;fill-rule:evenodd;stroke:none;marker:none;visibility:visible;display:inline;overflow:visible;enable-background:accumulate"/>
<path d="M 43.43,13.59 L 23.72,24.8 L 30.47,45.11 C 39.52,42.41 46.12,34.02 46.12,24.09 C 46.12,20.29 45.14,16.71 43.44,13.59 L 43.43,13.59 z" id="p3744" style="fill:#2f2f2f;fill-opacity:0.45;stroke:none;display:inline"/>
<path d="M 26.12,2.25 L 24.03,24.87 L 44.46,15.72 C 41.41,8.34 34.42,2.99 26.12,2.25 z" id="p3746" style="fill:#757575;fill-opacity:0.45;stroke:none;display:inline"/>
<path d="M 24.28,24.65 L 2.25,26.31 C 2.78,31.69 5.27,36.5 9,40.03 L 24.28,24.66 L 24.28,24.65 z" id="p3748" style="fill:#949494;fill-opacity:0.45;stroke:none;display:inline"/>
<path d="M 3.65,16.09 C 2.68,18.57 2.15,21.26 2.15,24.09 C 2.15,25.46 2.28,26.81 2.52,28.12 L 23.87,24.96 L 3.65,16.09 z" id="p3750" style="fill:#060606;fill-opacity:0.45;stroke:none;display:inline"/>
<path d="M 23.56,24.96 L 11.38,41.96 C 14.97,44.52 19.37,46.05 24.13,46.05 C 25.57,46.05 26.98,45.91 28.34,45.65 L 23.56,24.96 z" id="p3752" style="fill:#060606;fill-opacity:0.45;stroke:none;display:inline"/>
<path d="M 45.93,21.21 L 24.18,24.18 L 35.53,42.87 C 41.87,39.02 46.12,32.05 46.12,24.09 C 46.12,23.12 46.06,22.16 45.94,21.22 L 45.93,21.21 z" id="p3822" style="fill:#93a7ba;fill-opacity:0.27;stroke:none;display:inline"/>
<path d="M 38.65,7.62 L 24.43,24.12 L 45.5,18.9 C 44.41,14.47 41.97,10.54 38.65,7.62 z" id="p3825" style="fill:#a7a7a7;fill-opacity:0.22;stroke:none"/>
<path d="M 44.9,16.93 L 24.12,24.75 L 46,26.31 C 46.07,25.59 46.12,24.84 46.12,24.1 C 46.12,21.59 45.68,19.2 44.91,16.95 L 44.9,16.93 z" id="p3827" style="fill:#a7a7a7;fill-opacity:0.22;stroke:none"/>
<path d="M 24.34,24.18 L 2.72,29.11 C 3.25,31.38 4.16,33.51 5.34,35.45 L 24.34,24.17 L 24.34,24.18 z" id="p3829" style="fill:#c3c3c3;fill-opacity:0.22;stroke:none"/>
<path d="M 43.86,24.05 C 43.86,35.00 34.99,43.87 24.05,43.87 C 13.10,43.87 4.23,35.00 4.23,24.05 C 4.23,13.10 13.10,4.23 24.05,4.23 C 34.99,4.23 43.86,13.10 43.86,24.05 L 43.86,24.05 z" id="p3674-7" style="fill:#303030;fill-opacity:1;fill-rule:evenodd;stroke:none;marker:none;visibility:visible;display:inline;overflow:visible;enable-background:accumulate"/>
<path d="M 9.68,38.38 C 5.98,34.69 3.7,29.59 3.7,23.95 M 44.56,23.95 C 44.56,29.58 42.28,34.68 38.58,38.37 C 36.74,40.21 34.53,41.7 32.09,42.74" id="p3674-7-22" style="fill:none;stroke:#b4b4b4;stroke-width:0.40;stroke-linecap:round;marker:none;stroke-miterlimit:4;stroke-dasharray:none;stroke-opacity:1;visibility:visible;display:inline;overflow:visible;enable-background:accumulate"/>
<path d="M 37.93,9.84 L 23.5,24.68 L 40.34,35.56 C 42.64,32.32 44.02,28.37 44.02,24.1 C 44.02,18.5 41.67,13.47 37.93,9.85 L 37.93,9.84 z" id="p3929" style="fill:#747474;fill-opacity:0.22;stroke:none;display:inline"/>
<path d="M 39.68,11.75 L 23.56,24.68 L 44.03,24.25 C 44.03,24.2 44.03,24.15 44.03,24.1 C 44.03,19.43 42.39,15.15 39.69,11.76 L 39.68,11.75 z" id="p3931" style="fill:#d8d8d8;fill-opacity:0.47;stroke:none;display:inline"/>
<path d="M 43.84,21.46 L 23.56,24.9 L 43,30.31 C 43.64,28.36 44.03,26.27 44.03,24.1 C 44.03,23.22 43.96,22.34 43.85,21.48 L 43.84,21.46 z" id="p3933" style="fill:#1d1d1d;fill-opacity:0.66;stroke:none;display:inline"/>
<path d="M 17.53,5.37 C 9.79,8.09 4.25,15.44 4.25,24.09 C 4.25,29.81 6.68,34.96 10.56,38.59 L 24.02,24.84 L 17.52,5.38 L 17.53,5.37 z" id="p3935" style="fill:#a0a0a0;fill-opacity:0.66;stroke:none;display:inline"/>
<path d="M 15.09,6.4 C 8.65,9.69 4.25,16.37 4.25,24.09 C 4.25,28.13 5.44,31.91 7.53,35.05 L 24.03,25 L 15.09,6.4 z" id="p3937" style="fill:#b4c5cf;fill-opacity:0.66;stroke:none;display:inline"/>
<path d="M 11.34,8.87 C 9.75,10.2 8.39,11.79 7.28,13.55 L 23.96,24.5 L 11.34,8.87 z" id="p3939" style="fill:#e8edf0;fill-opacity:0.66;stroke:none;display:inline"/>
<path d="M 4.62,20.28 C 4.38,21.51 4.25,22.78 4.25,24.09 C 4.25,26.58 4.71,28.98 5.56,31.18 L 24.12,24.59 L 4.62,20.28 L 4.62,20.28 z" id="p3941" style="fill:#e8edf0;fill-opacity:0.66;stroke:none;display:inline"/>
<path d="M 23.12,4.25 C 22.83,4.26 22.53,4.31 22.25,4.34 L 23.15,24.12 L 18.78,43.21 C 20.48,43.68 22.26,43.96 24.12,43.96 C 28.52,43.96 32.57,42.51 35.87,40.09 L 23.87,24.28 L 36.55,8.6 C 33.15,5.86 28.82,4.25 24.12,4.25 C 23.78,4.25 23.46,4.24 23.12,4.25 z" id="p4056" style="fill:#0e0f0f;fill-opacity:0.66;stroke:none;display:inline"/>
<path d="M 41.54,23.96 C 41.54,33.70 33.65,41.60 23.93,41.60 C 14.20,41.60 6.31,33.70 6.31,23.96 C 6.31,14.21 14.20,6.31 23.93,6.31 C 33.65,6.31 41.54,14.21 41.54,23.96 L 41.54,23.96 z" id="p3674-7-2" style="fill:#101008;fill-opacity:1;fill-rule:evenodd;stroke:none;marker:none;visibility:visible;display:inline;overflow:visible;enable-background:accumulate"/>
<path d="M 11.90,36.25 C 8.79,33.14 6.87,28.84 6.87,24.08 C 6.87,21.71 7.34,19.44 8.22,17.38 C 9.08,15.33 10.34,13.47 11.89,11.92 M 36.18,11.92 C 39.28,15.03 41.21,19.33 41.21,24.08" id="p3674-7-2-5" style="fill:none;stroke:#636363;stroke-width:0.49;stroke-linecap:round;marker:none;stroke-miterlimit:4;stroke-opacity:1;visibility:visible;display:inline;overflow:visible;enable-background:accumulate"/>
<path d="M 43.86,24.05 C 43.86,35.00 34.99,43.87 24.05,43.87 C 13.10,43.87 4.23,35.00 4.23,24.05 C 4.23,13.10 13.10,4.23 24.05,4.23 C 34.99,4.23 43.86,13.10 43.86,24.05 L 43.86,24.05 z" id="p3674-7-5" style="fill:none;stroke:#0e0e0e;stroke-width:0.49;marker:none;stroke-miterlimit:4;stroke-dasharray:none;stroke-opacity:1;visibility:visible;display:inline;overflow:visible;enable-background:accumulate"/>
<path d="M 21.65,9.65 C 21.65,10.49 21.65,11.34 21.65,12.18 C 21.74,12.18 21.81,12.18 21.90,12.18 C 21.96,12.18 22.05,12.19 22.09,12.15 C 22.04,11.84 22.22,12.09 22.31,12.18 C 22.50,12.29 22.74,12.24 22.90,12.06 C 23.16,11.69 23.19,11.06 23,10.65 C 22.82,10.23 22.29,10.23 22.09,10.62 C 22.09,10.30 22.09,9.97 22.09,9.65 C 21.94,9.65 21.80,9.65 21.65,9.65 z M 26.03,10.31 C 25.86,10.33 25.70,10.46 25.62,10.65 C 25.62,10.55 25.62,10.46 25.62,10.37 C 25.47,10.37 25.33,10.37 25.18,10.37 C 25.18,10.99 25.18,11.58 25.18,12.18 C 25.30,12.18 25.41,12.18 25.53,12.18 C 25.60,12.19 25.64,12.18 25.62,12.09 C 25.64,11.75 25.58,11.39 25.65,11.06 C 25.72,10.78 26.04,10.74 26.21,10.87 L 26.21,10.84 C 26.21,10.82 26.21,10.82 26.21,10.81 C 26.21,10.65 26.26,10.49 26.21,10.34 C 26.16,10.32 26.08,10.30 26.03,10.31 z M 24.03,10.37 C 23.84,10.37 23.64,10.42 23.46,10.46 C 23.46,10.60 23.46,10.73 23.46,10.87 C 23.56,10.86 23.76,10.73 23.90,10.75 C 24.06,10.71 24.33,10.77 24.31,11.06 C 24.09,11.06 23.86,11.04 23.65,11.12 C 23.40,11.20 23.31,11.60 23.40,11.90 C 23.56,12.37 24.12,12.35 24.31,11.93 C 24.31,12.02 24.31,12.13 24.31,12.21 C 24.46,12.21 24.60,12.21 24.75,12.21 C 24.75,11.86 24.74,11.52 24.75,11.18 C 24.75,10.94 24.71,10.67 24.56,10.53 C 24.39,10.41 24.21,10.37 24.03,10.37 z M 22.37,10.78 C 22.41,10.77 22.45,10.75 22.5,10.78 C 22.65,10.88 22.69,11.13 22.68,11.34 C 22.67,11.57 22.56,11.85 22.37,11.84 L 22.37,11.81 C 22.32,11.81 22.25,11.81 22.21,11.78 C 22.06,11.63 22.06,11.32 22.09,11.09 C 22.11,10.91 22.24,10.79 22.37,10.78 z M 24.09,11.37 C 24.17,11.38 24.25,11.36 24.31,11.43 C 24.36,11.71 24.09,11.98 23.90,11.84 C 23.68,11.70 23.90,11.28 24.09,11.37 z" id="p4110" style="fill:#cfcfcf;fill-opacity:1;"/>
<path d="M 20.5,37 C 20.72,37.43 20.96,37.88 21.18,38.31 C 21.37,38.31 21.54,38.31 21.71,38.31 C 21.94,37.87 22.18,37.42 22.40,37 C 22.25,37 22.08,37.00 21.93,37 C 21.78,37.31 21.62,37.65 21.46,37.96 C 21.31,37.64 21.15,37.31 21,37 C 20.84,37 20.68,37.00 20.53,37 L 20.5,37 z M 22.68,37 C 22.68,37.43 22.68,37.85 22.68,38.28 C 23.06,38.28 23.44,38.32 23.81,38.25 C 24.42,38.13 24.56,37.48 24.12,37.18 C 23.71,36.95 23.16,37.00 22.68,37 z M 25.53,37 C 25.42,37 25.34,37.01 25.25,37.03 C 24.73,37.11 24.51,37.54 24.65,37.87 C 24.76,38.21 25.30,38.37 25.75,38.31 C 26.19,38.27 26.49,37.92 26.46,37.62 C 26.51,37.27 26.02,36.96 25.53,37 z M 25.53,37.21 C 25.74,37.20 25.89,37.33 25.93,37.46 C 26.04,37.68 25.96,37.99 25.62,38.06 C 25.29,38.12 25.07,37.86 25.09,37.65 C 25.09,37.46 25.22,37.21 25.53,37.21 z M 23.12,37.28 C 23.18,37.28 23.25,37.28 23.31,37.28 C 23.67,37.24 23.95,37.51 23.87,37.75 C 23.83,37.99 23.41,38.09 23.12,38.06 C 23.12,37.80 23.12,37.53 23.12,37.28 z" id="p4130" style="fill:#cecece;fill-opacity:1;"/>
<path d="M 13.78,22.99 C 13.78,22.74 13.78,22.46 13.67,22.25 C 13.55,22.08 13.31,22.21 13.30,22.44 C 13.24,22.76 13.26,23.11 13.29,23.45 C 13.31,23.61 13.37,23.78 13.50,23.79 C 13.62,23.80 13.74,23.69 13.76,23.52 C 13.79,23.35 13.79,23.16 13.79,22.97 L 13.78,22.99 z M 14.22,22.99 C 14.22,23.34 14.17,23.73 13.98,23.99 C 13.75,24.27 13.37,24.30 13.10,24.05 C 12.90,23.84 12.81,23.48 12.80,23.14 C 12.79,22.76 12.81,22.35 12.99,22.04 C 13.13,21.80 13.37,21.71 13.59,21.75 C 13.80,21.77 14.01,21.93 14.11,22.20 C 14.19,22.44 14.22,22.70 14.22,22.97 L 14.22,22.99 z" id="p4225" style="fill-opacity:1;"/>
<path d="M 17.11,21.07 C 17.37,21.07 17.62,21.07 17.88,21.07 C 17.88,21.21 17.88,21.36 17.88,21.51 C 17.46,21.51 17.04,21.51 16.61,21.51 C 16.61,21.37 16.61,21.22 16.61,21.07 C 16.84,20.79 17.08,20.52 17.30,20.22 C 17.40,20.08 17.45,19.85 17.36,19.67 C 17.28,19.52 17.12,19.49 17,19.53 C 16.86,19.57 16.74,19.65 16.62,19.76 C 16.62,19.58 16.62,19.41 16.62,19.23 C 16.91,19.10 17.24,19.03 17.54,19.16 C 17.71,19.24 17.85,19.45 17.86,19.71 C 17.88,19.96 17.81,20.20 17.68,20.36 C 17.51,20.61 17.30,20.83 17.11,21.07 L 17.11,21.07 z" id="p4228" style="fill:#cdcdcd;fill-opacity:1;"/>
<path d="M 21.51,18.06 C 21.35,18.39 21.19,18.73 21.02,19.05 C 21.18,19.05 21.34,19.05 21.51,19.05 C 21.51,18.73 21.51,18.39 21.51,18.06 L 21.51,18.06 z M 21.44,17.56 C 21.60,17.56 21.77,17.56 21.93,17.56 C 21.93,18.06 21.93,18.56 21.93,19.07 C 22.01,19.07 22.1,19.07 22.18,19.07 C 22.18,19.21 22.18,19.36 22.18,19.51 C 22.10,19.51 22.02,19.51 21.93,19.51 C 21.93,19.65 21.93,19.79 21.93,19.94 C 21.80,19.94 21.65,19.94 21.51,19.94 C 21.51,19.80 21.51,19.66 21.51,19.51 C 21.25,19.51 21.00,19.51 20.74,19.51 C 20.74,19.34 20.74,19.16 20.74,18.98 C 20.96,18.52 21.19,18.04 21.43,17.56 L 21.44,17.56 z" id="p4231" style="fill:#cdcdcd;fill-opacity:1;"/>
<path d="M 26.99,19.10 C 26.88,19.09 26.77,19.22 26.77,19.38 C 26.75,19.55 26.75,19.74 26.84,19.86 C 26.95,19.99 27.15,19.94 27.20,19.74 C 27.24,19.60 27.23,19.44 27.20,19.30 C 27.18,19.18 27.09,19.10 26.99,19.10 L 26.99,19.10 z M 27.54,17.95 C 27.54,18.09 27.54,18.25 27.54,18.39 C 27.36,18.27 27.13,18.19 26.93,18.32 C 26.79,18.41 26.72,18.64 26.71,18.86 C 26.92,18.64 27.24,18.66 27.46,18.86 C 27.62,19.02 27.69,19.31 27.66,19.58 C 27.65,19.86 27.51,20.13 27.31,20.24 C 27.11,20.34 26.88,20.34 26.68,20.24 C 26.46,20.11 26.34,19.79 26.30,19.48 C 26.27,19.14 26.28,18.77 26.36,18.46 C 26.46,18.15 26.67,17.91 26.91,17.87 C 27.12,17.83 27.34,17.87 27.54,17.95 z" id="p4234" style="fill:#cdcdcd;fill-opacity:1;"/>
<path d="M 30.82,20.95 C 30.68,20.93 30.54,21.13 30.56,21.32 C 30.56,21.49 30.65,21.66 30.78,21.66 C 30.91,21.69 31.06,21.58 31.07,21.39 C 31.10,21.21 31.03,20.97 30.88,20.95 C 30.86,20.95 30.84,20.95 30.82,20.95 z M 30.49,20.75 C 30.27,20.69 30.11,20.34 30.19,20.04 C 30.23,19.79 30.41,19.64 30.59,19.62 C 30.79,19.57 31.02,19.58 31.22,19.67 C 31.39,19.78 31.50,20.07 31.45,20.33 C 31.43,20.49 31.33,20.66 31.20,20.69 C 31.20,20.83 31.37,20.79 31.39,20.93 C 31.59,21.23 31.50,21.80 31.22,21.94 C 30.99,22.06 30.74,22.05 30.51,21.98 C 30.33,21.93 30.18,21.73 30.14,21.48 C 30.10,21.20 30.20,20.86 30.40,20.75 C 30.43,20.74 30.46,20.73 30.48,20.72 L 30.49,20.75 z M 30.6,20.27 C 30.58,20.47 30.75,20.62 30.88,20.55 C 31.02,20.52 31.08,20.27 31.01,20.11 C 30.94,19.90 30.67,19.92 30.61,20.13 C 30.60,20.17 30.60,20.20 30.60,20.25 L 30.6,20.27 z" id="p4237" style="fill:#cdcdcd;fill-opacity:1;"/>
<path d="M 33.90,21.81 C 33.79,21.81 33.67,21.88 33.59,22 C 33.41,22.23 33.37,22.69 33.37,23.06 C 33.36,23.46 33.40,23.88 33.59,24.12 C 33.77,24.35 34.07,24.35 34.25,24.12 C 34.42,23.87 34.46,23.43 34.46,23.06 C 34.47,22.65 34.41,22.19 34.21,21.96 C 34.12,21.87 34.01,21.80 33.90,21.81 z M 32.56,21.87 C 32.44,21.88 32.32,21.94 32.21,21.96 C 32.21,22.10 32.21,22.24 32.21,22.37 C 32.32,22.33 32.42,22.30 32.53,22.28 C 32.53,22.79 32.53,23.30 32.53,23.81 C 32.42,23.81 32.31,23.81 32.21,23.81 L 32.21,23.84 C 32.21,23.99 32.21,24.11 32.21,24.25 C 32.52,24.25 32.84,24.25 33.15,24.25 C 33.15,24.10 33.15,23.97 33.15,23.84 C 33.05,23.84 32.93,23.84 32.84,23.84 C 32.84,23.17 32.84,22.52 32.84,21.87 C 32.74,21.87 32.65,21.87 32.56,21.87 z M 33.87,22.25 C 33.93,22.22 34.02,22.26 34.06,22.34 C 34.13,22.54 34.12,22.82 34.12,23.06 C 34.11,23.22 34.10,23.40 34.09,23.56 C 34.08,23.74 34.01,23.90 33.90,23.87 C 33.79,23.84 33.75,23.64 33.75,23.46 C 33.73,23.13 33.69,22.77 33.75,22.46 C 33.76,22.35 33.81,22.27 33.87,22.25 z" id="p4240" style="fill:#cdcdcd;fill-opacity:1;"/>
<path d="M 24.25,14.15 L 24.13,17.02 C 24.33,17.02 24.52,17.04 24.72,17.05 L 24.84,14.15 C 24.65,14.15 24.45,14.15 24.25,14.15 z M 21.25,14.27 C 20.91,14.3 20.59,14.34 20.25,14.39 L 20.65,17.26 C 20.97,17.22 21.29,17.16 21.62,17.12 L 21.25,14.28 L 21.25,14.27 z M 27.87,14.52 L 27.21,17.3 C 27.54,17.35 27.8,17.43 28.12,17.51 L 28.87,14.75 C 28.55,14.67 28.21,14.6 27.87,14.54 L 27.87,14.52 z M 18,14.9 C 17.8,14.95 17.61,15.02 17.41,15.08 L 18.31,17.83 C 18.5,17.77 18.69,17.7 18.9,17.65 L 18,14.9 z M 31.06,15.43 L 29.96,18.08 C 30.15,18.14 30.28,18.22 30.46,18.29 L 31.62,15.65 C 31.43,15.57 31.25,15.51 31.06,15.43 L 31.06,15.43 z M 15.44,15.83 C 15.14,15.97 14.83,16.11 14.54,16.26 L 15.97,18.74 C 16.25,18.61 16.49,18.51 16.81,18.37 L 15.44,15.84 L 15.44,15.83 z M 33.09,16.36 L 31.63,18.79 C 31.93,18.95 32.11,19.08 32.39,19.26 L 33.93,16.87 C 33.67,16.7 33.38,16.54 33.09,16.37 L 33.09,16.36 z M 12.91,17.29 C 12.75,17.41 12.6,17.53 12.45,17.66 L 14.19,19.91 C 14.34,19.81 14.45,19.71 14.62,19.59 L 12.9,17.31 L 12.91,17.29 z M 35,17.62 L 33.19,19.87 C 33.34,19.99 33.51,20.1 33.65,20.24 L 35.43,18 C 35.29,17.87 35.15,17.74 35,17.62 z M 11.47,18.58 C 11.24,18.82 11.02,19.06 10.82,19.33 L 12.83,21.32 C 13,21.06 13.23,20.87 13.46,20.62 L 11.46,18.59 L 11.47,18.58 z M 36.09,18.64 L 34.13,20.71 C 34.36,20.96 34.46,21.12 34.64,21.39 L 36.71,19.4 C 36.52,19.15 36.32,18.9 36.09,18.65 L 36.09,18.64 z" id="p4282" style="fill:#cdcdcd;fill-opacity:1;stroke:none;marker:none;visibility:visible;display:inline;overflow:visible;enable-background:accumulate;"/>
<path d="M 27.66,23.63 C 27.55,23.55 27.23,23.46 26.95,23.52 C 26.67,23.57 24.17,24.49 24.17,24.49 L 23.83,23.98 L 21.11,24.03 L 21.11,25.92 L 24.86,25.94 L 27.09,23.48" id="p4379" style="fill:none;stroke:#cdcdcd;stroke-width:0.40;stroke-linecap:butt;stroke-linejoin:miter;stroke-miterlimit:4;stroke-dasharray:none;stroke-opacity:1"/>
<path d="M 21.1,24.01 L 21.07,23.48 L 19.58,23.01 L 19.47,23.89 L 21.1,24.6" id="p4381" style="fill:none;stroke:#cdcdcd;stroke-width:0.40;stroke-linecap:butt;stroke-linejoin:miter;stroke-miterlimit:4;stroke-dasharray:none;stroke-opacity:1"/>
<path d="M 22.38,23.94 L 22.4,23.2" id="p4383" style="fill:none;stroke:#cdcdcd;stroke-width:0.40;stroke-linecap:butt;stroke-linejoin:miter;stroke-miterlimit:4;stroke-dasharray:none;stroke-opacity:1"/>
<path d="M 21.69,23.17 L 23.18,23.22" id="p4385" style="fill:none;stroke:#cdcdcd;stroke-width:0.40;stroke-linecap:butt;stroke-linejoin:miter;stroke-miterlimit:4;stroke-dasharray:none;stroke-opacity:1"/>
<path d="M 28.05,25.13 C 28.05,25.39 27.84,25.61 27.59,25.61 C 27.33,25.61 27.12,25.39 27.12,25.13 C 27.12,24.87 27.33,24.65 27.59,24.65 C 27.84,24.65 28.05,24.87 28.05,25.13 z" id="p4387" style="fill:#cdcdcd;fill-opacity:1;stroke:none;marker:none;visibility:visible;display:inline;overflow:visible;enable-background:accumulate"/>
<path d="M 27.74,24.48 L 27.74,25.19" id="p4389" style="fill:none;stroke:#cfcfcf;stroke-width:0.5;stroke-linecap:round;stroke-linejoin:miter;stroke-miterlimit:4;stroke-dasharray:none;stroke-opacity:1"/>
<path d="M 45.72,23.91 C 45.72,35.93 35.96,45.69 23.92,45.69 C 11.88,45.69 2.12,35.93 2.12,23.91 C 2.12,11.88 11.88,2.13 23.92,2.13 C 35.96,2.13 45.72,11.88 45.72,23.91 L 45.72,23.91 z" id="stroke01" style="fill:none;stroke:#000000;stroke-width:0.5;marker:none;stroke-miterlimit:4;stroke-dasharray:none;stroke-opacity:1;visibility:visible;display:inline;overflow:visible;enable-background:accumulate"/>
<g id="arrow" style="display:inline">
<path d="M 10.64,22.24 L 23.68,31.95" id="p4446" style="fill:none;stroke:#9a1010;stroke-width:1.20;stroke-linecap:round;stroke-linejoin:miter;stroke-miterlimit:4;stroke-dasharray:none;stroke-opacity:1"/>
<path d="M 12.3,23.68 L 22.04,30.94" id="p4448" style="fill:none;stroke:#eda1a1;stroke-width:0.60;stroke-linecap:round;stroke-linejoin:miter;stroke-miterlimit:4;stroke-dasharray:none;stroke-opacity:0.3"/>
<path d="M 10.62,21.62 C 10.35,21.62 10.13,21.79 10.05,22.04 C 9.97,22.28 10.06,22.55 10.28,22.71 L 23.34,32.42 C 23.60,32.61 23.98,32.56 24.18,32.3 C 24.37,32.03 24.32,31.65 24.06,31.46 L 11,21.75 C 10.89,21.67 10.76,21.62 10.63,21.63 L 10.62,21.62 z" id="p4446-2" style="fill:none;stroke:#260606;stroke-width:0.30;marker:none;stroke-miterlimit:4;stroke-dasharray:none;stroke-opacity:1;visibility:visible;display:inline;overflow:visible;enable-background:accumulate;"/>
<path d="M 28.39,32.69 C 28.39,34.76 26.71,36.44 24.64,36.44 C 22.57,36.44 20.89,34.76 20.89,32.69 C 20.89,30.62 22.57,28.94 24.64,28.94 C 26.71,28.94 28.39,30.62 28.39,32.69 z" id="p4392" style="fill:#232323;fill-opacity:1;fill-rule:evenodd;stroke:none;marker:none;visibility:visible;display:inline;overflow:visible;enable-background:accumulate"/>
<path d="M 24.59,31.46 C 22.99,31.46 21.61,32.26 20.97,33.46 C 21.33,35.15 22.85,36.42 24.65,36.42 C 26.4,36.42 27.86,35.22 28.27,33.58 C 28.27,33.58 28.27,33.56 28.27,33.55 C 27.66,32.3 26.24,31.46 24.59,31.46 L 24.59,31.46 z" id="p4395" style="fill:#111111;fill-opacity:0.45;fill-rule:evenodd;stroke:none;marker:none;visibility:visible;display:inline;overflow:visible;enable-background:accumulate"/>
<path d="M 28.39,32.69 C 28.39,34.76 26.71,36.44 24.64,36.44 C 22.57,36.44 20.89,34.76 20.89,32.69 C 20.89,30.62 22.57,28.94 24.64,28.94 C 26.71,28.94 28.39,30.62 28.39,32.69 z" id="p4392-3" style="fill:none;stroke:#121212;stroke-width:0.30;marker:none;stroke-miterlimit:4;stroke-dasharray:none;stroke-opacity:1;visibility:visible;display:inline;overflow:visible;enable-background:accumulate"/>
</g>
</g>
</svg>
