<?xml version="1.0" encoding="UTF-8" standalone="no"?>
<!DOCTYPE svg PUBLIC "-//W3C//DTD SVG 1.0//EN" "http://www.w3.org/TR/2001/REC-SVG-20010904/DTD/svg10.dtd">
<svg xmlns:svg="http://www.w3.org/2000/svg" xmlns="http://www.w3.org/2000/svg" version="1.0" width="100%" height="100%" viewBox="0 0 48 48" id="_salt01">
<defs id="defs2385"/>
<g id="salt01" style="display:inline">
<path d="M 16.49,8.92 C 16.54,6.19 19.36,3.63 24.31,3.67 C 29.26,3.71 31.86,6.27 31.86,8.4 C 31.86,10.53 30.99,11.48 30.91,11.79 C 30.82,12.09 31.04,12.05 31.04,12.31 C 31.04,12.69 30.91,12.87 30.91,13.05 C 30.91,13.22 31.12,13.26 31.12,13.61 C 31.12,13.96 30.95,14.22 30.95,14.22 C 30.95,14.22 32.29,14.75 32.6,15.65 C 32.89,16.52 32.95,24.2 33.03,28.28 C 33.12,32.37 32.99,38.75 32.95,39.14 C 32.9,39.53 32.69,40.31 32.47,40.66 C 32.25,41.01 31.56,41.74 31.25,41.87 C 30.95,42 27.36,43.78 26.24,43.78 C 25.09,43.78 20.36,43.35 19.53,43.18 C 18.71,43 14.93,39.83 14.5,39.05 C 14.06,38.27 14.37,37.49 14.37,36.79 C 14.37,36.1 15.19,19.67 15.36,17.08 C 15.44,15.94 16.84,14.06 17.32,13.61 C 17.51,13.43 17.32,13.44 17.36,12.92 C 17.4,12.4 17.75,12.31 17.71,12 C 17.66,11.7 16.54,10.66 16.49,8.92 z" id="p3312" style="fill:#c1b8bd;fill-opacity:1;fill-rule:evenodd;stroke:none;display:inline"/>
<path d="M 23.4,3.68 C 19.01,3.94 16.54,6.37 16.5,8.93 C 16.54,10.67 17.67,11.69 17.71,12 C 17.76,12.3 17.41,12.38 17.37,12.9 C 17.35,13.16 17.38,13.32 17.4,13.4 C 17.4,13.41 17.4,13.42 17.4,13.43 C 17.91,14.93 19.32,16.51 23.93,16.46 C 28.86,16.41 30.45,14.88 31.06,13.37 C 30.84,12.9 30.95,12.32 30.9,11.78 C 30.99,11.47 31.87,10.53 31.87,8.4 C 31.87,6.27 29.26,3.73 24.31,3.68 C 24,3.68 23.69,3.67 23.4,3.68 z" id="p3240" style="fill:#99999b;fill-opacity:1;fill-rule:evenodd;stroke:none;display:inline"/>
<path d="M 23.4,3.68 C 23.07,3.7 22.74,3.73 22.43,3.78 C 21.09,4.6 20.97,5.4 21.03,5.87 C 21.11,6.6 22.17,7.16 24.03,7.25 C 25.89,7.33 27.72,7.42 28.78,7.42 C 29.44,7.42 30.55,7.05 31.59,7.21 C 30.81,5.43 28.35,3.72 24.31,3.68 C 24,3.68 23.69,3.67 23.4,3.68 z" id="p3339" style="fill:#e8ebeb;fill-opacity:0.54;fill-rule:evenodd;stroke:none;display:inline"/>
<path d="M 30.09,5.37 C 29.87,6.22 29.1,6.85 28.84,7.15 C 28.44,7.61 27.2,6.87 26.87,6.87 C 26.54,6.87 26.67,8.18 26.93,8.84 C 27.2,9.5 29.09,8.2 29.75,8.4 C 30.4,8.6 30.99,9.5 31.06,10.03 C 31.1,10.33 31.41,9.79 31.84,8.81 C 31.85,8.67 31.87,8.55 31.87,8.4 C 31.87,7.38 31.26,6.26 30.09,5.37 z" id="p3283" style="fill:#fdfdfd;fill-opacity:0.93;fill-rule:evenodd;stroke:none;display:inline"/>
<path d="M 20.81,5.21 L 18.21,5.5 C 17.64,5.98 17.22,6.56 16.93,7.15 C 16.9,7.62 16.89,8.14 16.93,8.68 C 17.07,10.45 19.48,11.59 23.09,11.81 C 26.7,12.02 29.33,11.08 30.18,10.65 C 31.03,10.23 30.96,10.15 30.96,10.15 C 30.96,10.15 31.23,9.8 31.09,9.37 C 30.95,8.94 30.33,8.45 29.9,8.31 C 29.48,8.17 26.71,6.96 26.71,6.96 C 26.71,6.96 25.85,7.47 23.65,7.4 C 21.46,7.33 20.67,6.21 20.81,5.21 z" id="p3242" style="fill:#1c1c1e;fill-opacity:0.22;fill-rule:evenodd;stroke:none;display:inline"/>
<path d="M 16.2,15.99 C 17.51,17.4 19.22,19.11 23.54,19.25 C 27.87,19.38 30.75,17.97 30.86,17.64 C 30.96,17.3 33.04,18.51 31.79,19.48 C 30.55,20.46 22.54,21.96 20.42,20.96 C 18.31,19.95 15.59,18.68 15.76,17.3 C 15.93,15.93 16.2,15.99 16.2,15.99 z" id="p3254" style="fill:#6fa7b7;fill-opacity:0.26;fill-rule:evenodd;stroke:none;display:inline"/>
<path d="M 15.93,22.99 C 15.93,23.91 14.87,37.72 14.87,37.86 C 14.87,38.01 16.01,38.93 16.64,39.42 C 17.28,39.92 18.2,41.48 18.56,41.55 C 18.91,41.62 21.11,41.62 22.24,41.69 C 23.37,41.76 24.58,41.97 25.5,41.97 C 26.42,41.97 28.05,40.77 28.76,40.49 C 29.47,40.2 32.09,39.28 32.23,38.71 C 32.37,38.15 32.44,21 32.09,20.72 C 31.73,20.44 30.95,20.93 29.18,20.93 C 27.41,20.93 27.13,20.58 26.49,20.58 C 25.85,20.58 24.15,20.65 23.37,20.65 C 22.59,20.65 22.17,20.44 21.11,20.51 C 20.04,20.58 17.71,20.86 17.21,21.22 C 16.71,21.57 16.78,23.06 15.93,22.99 z" id="p3244" style="fill:#fcfdfd;fill-opacity:0.87;fill-rule:evenodd;stroke:none;display:inline"/>
<path d="M 30.81,24.56 C 28.51,25.08 27.63,24.79 26.06,25.06 C 24.48,25.32 21.41,25.91 21.28,26.31 C 21.14,26.7 20.93,31.83 20.93,32.68 C 20.93,33.54 20.94,37.8 20.75,39.18 C 20.55,40.54 20.16,43.2 20.15,43.28 C 21.63,43.48 25.24,43.78 26.25,43.78 C 27.36,43.78 30.94,42 31.25,41.87 C 31.55,41.74 32.25,41 32.46,40.65 C 32.68,40.3 32.89,39.54 32.93,39.15 C 32.98,38.76 33.11,32.36 33.03,28.28 C 33.01,27.32 32.98,25.99 32.96,24.78 L 30.81,24.56 z" id="p2465" style="fill:#c8cdcd;fill-opacity:0.65;fill-rule:evenodd;stroke:none"/>
<path d="M 30.75,11.74 C 30.3,13.81 27.93,14.84 24.03,14.84 C 20.13,14.84 17.88,13.48 17.89,11.94 C 17.8,12.08 17.4,12.58 17.37,12.9 C 17.35,13.16 17.38,13.32 17.4,13.4 C 18.46,16.18 21.35,16.3 23.93,16.46 C 28.86,16.41 30.45,14.88 31.06,13.37 C 30.94,12.58 30.96,12.33 30.75,11.74 z" id="p3246" style="fill:#28282b;fill-opacity:0.76;fill-rule:evenodd;stroke:none;display:inline"/>
<path d="M 19.12,12.83 C 19.25,12.7 19.71,13.16 20.31,13.23 C 20.9,13.29 21.33,13.26 21.8,13.33 C 22.26,13.39 22.56,13.76 23.15,13.76 C 23.75,13.76 24.77,13.62 25.07,13.62 C 25.37,13.62 26.79,13.89 27.45,13.59 C 28.11,13.29 29.8,12.37 30,12.07 C 30.2,11.77 30.6,10.98 30.69,11.01 C 30.79,11.04 30.43,12.17 30.13,12.5 C 29.83,12.83 29.74,13.26 29.74,13.26 L 28.74,13.79 C 28.74,13.79 28.68,13.62 28.31,13.72 C 27.95,13.82 26.86,13.82 26.26,14.05 C 25.67,14.28 25.2,14.32 23.75,14.09 C 22.29,13.85 22.36,14.32 21.56,14.09 C 20.77,13.85 20.27,13.56 19.74,13.33 C 19.22,13.09 19.12,13.23 19.12,12.83 z" id="p3298" style="fill:#292b2c;fill-opacity:0.72;fill-rule:evenodd;stroke:none;display:inline"/>
<path d="M 17.4,9.64 C 17.4,9.64 17.86,8.52 18.19,8.13 C 18.52,7.73 18.71,7.93 19.24,7.67 C 19.77,7.4 21.34,6.81 21.34,6.81 C 21.34,6.81 22.98,7.4 23.84,7.34 C 24.69,7.27 26.66,7.01 26.79,7.01 C 26.92,7.01 25.94,8.26 26.6,8.59 C 27.25,8.91 28.3,8.91 28.83,8.59 C 29.36,8.26 29.75,8.32 29.75,8.32 C 29.75,8.32 29.62,8.52 30.01,8.65 C 30.41,8.78 30.67,8.72 30.87,8.85 C 31.06,8.98 31.19,9.96 31.19,9.96 C 31.19,9.96 29.55,11.54 27.91,11.94 C 26.27,12.33 22.59,12.79 20.29,11.74 C 17.99,10.69 17.53,9.96 17.4,9.64 z" id="p3267" style="fill:#101818;fill-opacity:0.55;fill-rule:evenodd;stroke:none;display:inline"/>
<path d="M 25.15,26.45 C 25.02,26.91 25.22,30.65 25.28,31.97 C 25.35,33.28 25.02,33.74 24.89,34.66 C 24.76,35.58 24.82,41.16 25.28,41.36 C 25.74,41.56 27.06,41.1 28.37,40.44 C 29.68,39.78 30.73,39.78 30.93,39.19 C 31.13,38.6 30.34,34.6 30.47,33.61 C 30.6,32.63 31.06,30.79 30.93,29.87 C 30.8,28.95 30.41,27.11 30.54,26.39 C 30.67,25.66 30.67,24.87 30.67,24.87 C 30.67,24.87 29.62,26.12 27.84,26.32 C 26.07,26.52 25.28,26.58 25.15,26.45 z" id="p3269" style="fill:#333a3a;fill-opacity:0.37;fill-rule:evenodd;stroke:none;display:inline"/>
<path d="M 30.68,12.01 C 29.67,13.65 27.99,14.54 24.43,14.68 C 22.03,14.78 20.21,14.56 18.48,13.28 C 17.57,12.14 18,12.84 18.22,13.4 C 18.77,14.26 20.4,15.07 24.43,15.09 C 25.01,15.09 24.42,15.91 25.33,15.87 C 26.34,15.83 28.82,15.29 29.94,14.26 C 30.18,14.03 30.48,12.69 30.68,12.01 z" id="p3271" style="fill:#242424;fill-opacity:1;fill-rule:evenodd;stroke:none;display:inline"/>
<path d="M 16.61,23.43 C 16.35,24.15 18.12,25.6 18.78,25.73 C 19.44,25.86 20.69,25.6 21.67,25.14 C 22.66,24.68 22.46,24.87 22,25.33 C 21.54,25.79 25.15,24.35 26.6,24.35 C 28.04,24.35 29.88,24.61 30.21,24.22 C 30.54,23.82 30.87,24.68 31.13,24.41 C 31.39,24.15 32.38,21.59 30.93,21.13 C 29.49,20.67 27.38,20.61 24.17,20.87 C 20.95,21.13 16.61,22.64 16.61,23.43 z" id="p3276" style="fill:#5c6969;fill-opacity:0.3;fill-rule:evenodd;stroke:none;display:inline"/>
<path d="M 20.55,18.11 C 20.55,18.11 20.62,18.7 20.95,18.77 C 21.28,18.83 23.12,19.55 25.48,19.36 C 27.84,19.16 28.96,18.44 28.96,18.44 L 28.24,17.98 C 28.24,17.98 26.66,18.63 24.95,18.63 C 23.25,18.63 20.69,17.85 20.55,18.11 z" id="p3293" style="fill:#fefefe;fill-opacity:0.73;fill-rule:evenodd;stroke:none;display:inline"/>
<path d="M 32.62,15.75 L 31,17.46 C 30.93,19.5 30.81,23.75 30.75,24.87 C 30.68,25.99 30.53,26.31 30.53,26.96 C 30.53,27.62 31,28.75 31,29.28 C 31,29.8 30.53,32.63 30.53,33.62 C 30.53,34.61 31.32,38.26 31.12,38.59 C 30.92,38.92 30.8,40.38 30.21,40.78 C 29.66,41.15 27.83,42.83 27.93,43.31 C 29.36,42.77 31.04,41.96 31.25,41.87 C 31.55,41.74 32.25,41 32.46,40.65 C 32.68,40.3 32.89,39.54 32.93,39.15 C 32.98,38.76 33.11,32.36 33.03,28.28 C 32.94,24.27 32.9,16.85 32.62,15.75 z" id="p3295" style="fill:#a4adaa;fill-opacity:0.85;fill-rule:evenodd;stroke:none;display:inline"/>
<path d="M 30.96,14.21 C 30.57,14.73 30,15.3 29.43,15.68 C 29.37,16.27 29.01,16.79 28.71,17.31 C 29.11,17.31 30.28,16.4 30.28,16.4 C 29.63,17.3 29.87,17.32 30.4,18.06 C 30.8,18.32 31.2,18.57 31.4,18.31 C 31.6,18.04 31.71,17.99 31.71,17.46 C 32.11,17.12 32.39,16.68 32.71,16.28 C 32.68,15.98 32.63,15.76 32.59,15.65 C 32.28,14.75 30.96,14.21 30.96,14.21 z" id="p3289" style="fill:#fefefe;fill-opacity:0.85;fill-rule:evenodd;stroke:none;display:inline"/>
<path d="M 31,17.46 C 30.93,19.5 30.81,23.75 30.75,24.87 C 30.68,25.99 30.53,26.31 30.53,26.96 C 30.53,27.62 31,28.75 31,29.28 C 31,29.8 30.53,32.63 30.53,33.62 C 30.53,34.61 31.32,38.26 31.12,38.59 C 30.92,38.92 30.8,40.38 30.21,40.78" id="p3314" style="fill:none;fill-opacity:0.85;fill-rule:evenodd;stroke:#fafafa;stroke-width:0.40;stroke-linecap:butt;stroke-linejoin:miter;stroke-miterlimit:4;stroke-dasharray:none;stroke-opacity:1;display:inline"/>
<path d="M 18.65,15.96 C 18.65,15.96 20.59,17.24 22.94,17.3 C 25.29,17.37 28.74,16.83 29.78,15.93" id="p3256" style="fill:none;fill-rule:evenodd;stroke:#fafafa;stroke-width:0.30;stroke-linecap:butt;stroke-linejoin:miter;stroke-miterlimit:4;stroke-dasharray:none;stroke-opacity:0.87;display:inline"/>
<path d="M 18.95,9.05 C 18.71,9.29 18.58,9.86 18.61,9.96 C 18.65,10.06 19.42,10.63 20.29,10.83 C 21.16,11.03 22.67,11.23 22.74,10.96 C 22.81,10.69 21.63,10.32 21.66,10.19 C 21.7,10.06 21.63,9.75 21.63,9.75 C 21.63,9.75 21.06,9.82 20.42,9.59 C 19.79,9.35 19.38,9.02 18.95,9.05 z" id="p3258" style="fill:#c6e4ed;fill-opacity:0.47;fill-rule:evenodd;stroke:none;display:inline"/>
<path d="M 17.4,9.49 L 18.11,8.45 C 18.11,8.45 17.67,8.21 17.64,7.81 C 17.61,7.41 17.71,6.97 17.71,6.97 C 17.71,6.97 16.93,8.01 17,8.75 C 17.07,9.49 17.47,9.52 17.4,9.49 z" id="p3260" style="fill:#c2cccf;fill-opacity:0.47;fill-rule:evenodd;stroke:none;display:inline"/>
<path d="M 18.44,13.85 C 20.02,14.92 21.43,15.16 24.31,15.09 C 27.2,15.02 28.91,14.42 30.52,13.14" id="p3262" style="fill:none;fill-rule:evenodd;stroke:#939393;stroke-width:0.30;stroke-linecap:round;stroke-linejoin:miter;stroke-miterlimit:4;stroke-dasharray:none;stroke-opacity:0.73;display:inline"/>
<path d="M 17.99,14.52 C 17.4,15.74 18.09,16.1 17.53,16.77 C 16.97,17.43 16.57,17.06 16.57,17.53 C 16.57,17.99 17.23,19.28 17.16,20.04 C 17.1,20.8 16.87,23.05 16.87,23.05 L 16.3,23.38 C 16.3,23.38 16.6,20.77 16.6,20.34 C 16.6,19.91 15.77,18.29 15.87,17.49 C 15.97,16.7 17.79,13.69 18.02,13.82 C 18.26,13.95 18.06,14.45 17.99,14.52 z" id="p3300" style="fill:#5c6062;fill-opacity:0.4;fill-rule:evenodd;stroke:none;display:inline"/>
<path d="M 14.39,37.84 C 14.39,37.84 14.98,38.96 15.18,39.06 C 15.38,39.16 17.1,40.15 17.5,40.88 C 17.89,41.61 18.85,42.07 19.61,42.07 C 20.37,42.07 21.76,41.97 22.06,42.11" id="p3302" style="fill:none;fill-rule:evenodd;stroke:#eeeeee;stroke-width:0.30;stroke-linecap:round;stroke-linejoin:miter;stroke-miterlimit:4;stroke-dasharray:none;stroke-opacity:1;display:inline"/>
<path d="M 31.52,17.99 C 31.72,17.92 32.15,19.15 32.15,19.84 C 32.15,20.54 32.22,24.31 32.22,24.31 C 32.22,24.31 31.79,24.67 31.59,25.33 C 31.39,26 31.32,25.83 31.32,25.83 C 31.32,25.83 31.46,22.16 31.52,21.33 C 31.59,20.5 31.69,19.58 31.62,19.31 C 31.55,19.05 31.39,18.09 31.52,17.99 z" id="p3304" style="fill:#5c6062;fill-opacity:0.4;fill-rule:evenodd;stroke:none;display:inline"/>
<path d="M 31.82,29.01 C 32.22,28.77 32.51,30.06 32.48,32.65 C 32.45,35.23 32.48,32.25 32.32,31.32 C 32.15,30.4 31.52,31.35 31.52,33.44 C 31.52,35.52 31.55,37.01 31.79,37.41 C 32.02,37.81 32.25,37.05 32.35,37.28 C 32.45,37.51 32.41,38.24 32.41,38.24 L 31.55,39.2 C 31.55,39.2 31.09,34.53 31.12,33.37 C 31.16,32.22 31.59,30.69 31.59,29.97 C 31.59,29.24 31.55,29.01 31.82,29.01 z" id="p3306" style="fill:#5c6062;fill-opacity:0.4;fill-rule:evenodd;stroke:none;display:inline"/>
<path d="M 18.84,19.45 L 20.13,20.1" id="p3341" style="fill:none;fill-rule:evenodd;stroke:#f9f9f9;stroke-width:0.60;stroke-linecap:round;stroke-linejoin:miter;stroke-miterlimit:4;stroke-dasharray:none;stroke-opacity:0.86;display:inline"/>
<path d="M 17.62,15.24 C 17.62,15.24 17.7,16.05 18.11,16.3 C 18.51,16.54 19.65,17.1 19.65,17.1" id="p3343" style="fill:none;fill-rule:evenodd;stroke:#f7f7f7;stroke-width:0.40;stroke-linecap:round;stroke-linejoin:miter;stroke-miterlimit:4;stroke-dasharray:none;stroke-opacity:0.95;display:inline"/>
<path d="M 21.1,42.58 C 21.59,42.58 22.64,42.66 22.64,42.66" id="p3345" style="fill:none;fill-rule:evenodd;stroke:#eeeeee;stroke-width:0.40;stroke-linecap:round;stroke-linejoin:miter;stroke-miterlimit:4;stroke-dasharray:none;stroke-opacity:0.97;display:inline"/>
<path d="M 21.84,15.77 C 21.78,16.04 21.29,16.16 20.72,16.04 C 20.16,15.92 19.74,15.61 19.80,15.34 C 19.86,15.07 20.36,14.96 20.92,15.07 C 21.49,15.19 21.90,15.50 21.84,15.77 z" id="p3287" style="fill:#f1f2f2;fill-opacity:0.88;fill-rule:evenodd;stroke:none;marker:none;visibility:visible;display:inline;overflow:visible;enable-background:accumulate"/>
<path d="M 17.4,13.43 C 17.91,14.93 19.32,16.51 23.93,16.46 C 28.86,16.41 30.45,14.88 31.06,13.37" id="p3264" style="fill:none;fill-opacity:0.76;fill-rule:evenodd;stroke:#161616;stroke-width:0.40;stroke-linecap:butt;stroke-linejoin:miter;stroke-miterlimit:4;stroke-dasharray:none;stroke-opacity:1;display:inline"/>
<path d="M 21.53,10.50 C 21.48,10.76 21.01,10.87 20.48,10.76 C 19.95,10.65 19.56,10.36 19.62,10.10 C 19.67,9.85 20.14,9.74 20.67,9.85 C 21.20,9.96 21.59,10.25 21.53,10.50 z" id="p3285" style="fill:#ffffff;fill-opacity:0.91;fill-rule:evenodd;stroke:none;marker:none;visibility:visible;display:inline;overflow:visible;enable-background:accumulate"/>
<path d="M 23.52,4.84 C 23.52,4.97 23.28,5.08 22.99,5.08 C 22.69,5.08 22.46,4.97 22.46,4.84 C 22.46,4.70 22.69,4.59 22.99,4.59 C 23.28,4.59 23.52,4.70 23.52,4.84 L 23.52,4.84 z" id="p3270" style="fill:#000000;fill-opacity:1;fill-rule:evenodd;stroke:none;marker:none;visibility:visible;display:inline;overflow:visible;enable-background:accumulate"/>
<path d="M 24.51,4.30 C 24.51,4.41 24.27,4.49 23.98,4.49 C 23.68,4.49 23.45,4.41 23.45,4.30 C 23.45,4.19 23.68,4.10 23.98,4.10 C 24.27,4.10 24.51,4.19 24.51,4.30 L 24.51,4.30 z" id="p3272" style="fill:#000000;fill-opacity:1;fill-rule:evenodd;stroke:none;marker:none;visibility:visible;display:inline;overflow:visible;enable-background:accumulate"/>
<path d="M 24.84,5.68 C 24.84,5.81 24.60,5.92 24.31,5.92 C 24.01,5.92 23.78,5.81 23.78,5.68 C 23.78,5.54 24.01,5.43 24.31,5.43 C 24.60,5.43 24.84,5.54 24.84,5.68 L 24.84,5.68 z" id="p3274" style="fill:#000000;fill-opacity:1;fill-rule:evenodd;stroke:none;marker:none;visibility:visible;display:inline;overflow:visible;enable-background:accumulate"/>
<path d="M 25.8,4.88 C 25.8,5.02 25.56,5.13 25.27,5.13 C 24.97,5.13 24.74,5.02 24.74,4.88 C 24.74,4.75 24.97,4.64 25.27,4.64 C 25.56,4.64 25.8,4.75 25.8,4.88 L 25.8,4.88 z" id="p3277" style="fill:#000000;fill-opacity:1;fill-rule:evenodd;stroke:none;marker:none;visibility:visible;display:inline;overflow:visible;enable-background:accumulate"/>
<path d="M 27.98,5.10 C 27.95,5.23 27.70,5.29 27.41,5.24 C 27.12,5.18 26.91,5.03 26.94,4.90 C 26.96,4.76 27.22,4.70 27.50,4.76 C 27.79,4.81 28.00,4.96 27.98,5.10 L 27.98,5.10 z" id="p3279" style="fill:#000000;fill-opacity:1;fill-rule:evenodd;stroke:none;marker:none;visibility:visible;display:inline;overflow:visible;enable-background:accumulate"/>
<path d="M 26.94,5.70 C 26.93,5.83 26.68,5.92 26.39,5.89 C 26.10,5.87 25.88,5.74 25.89,5.60 C 25.90,5.47 26.15,5.38 26.44,5.41 C 26.73,5.43 26.95,5.56 26.94,5.70 L 26.94,5.70 z" id="p3281" style="fill:#000000;fill-opacity:1;fill-rule:evenodd;stroke:none;marker:none;visibility:visible;display:inline;overflow:visible;enable-background:accumulate"/>
<path d="M 26.03,6.51 C 26.03,6.67 25.79,6.79 25.5,6.79 C 25.20,6.79 24.97,6.67 24.97,6.51 C 24.97,6.36 25.20,6.24 25.5,6.24 C 25.79,6.24 26.03,6.36 26.03,6.51 L 26.03,6.51 z" id="p3284" style="fill:#000000;fill-opacity:1;fill-rule:evenodd;stroke:none;marker:none;visibility:visible;display:inline;overflow:visible;enable-background:accumulate"/>
<path d="M 23.75,6.68 C 23.75,6.85 23.51,6.98 23.22,6.98 C 22.92,6.98 22.69,6.85 22.69,6.68 C 22.69,6.52 22.92,6.39 23.22,6.39 C 23.51,6.39 23.75,6.52 23.75,6.68 L 23.75,6.68 z" id="p3286" style="fill:#000000;fill-opacity:1;fill-rule:evenodd;stroke:none;marker:none;visibility:visible;display:inline;overflow:visible;enable-background:accumulate"/>
<path d="M 22.21,5.82 C 22.23,5.95 22.01,6.09 21.73,6.13 C 21.44,6.17 21.19,6.10 21.17,5.96 C 21.15,5.83 21.37,5.69 21.66,5.65 C 21.95,5.61 22.19,5.68 22.21,5.82 L 22.21,5.82 z" id="p3288" style="fill:#000000;fill-opacity:1;fill-rule:evenodd;stroke:none;marker:none;visibility:visible;display:inline;overflow:visible;enable-background:accumulate"/>
<path d="M 21.08,5.19 C 21.10,5.32 20.90,5.48 20.61,5.54 C 20.33,5.60 20.08,5.54 20.05,5.41 C 20.02,5.28 20.23,5.13 20.51,5.06 C 20.79,5.00 21.05,5.06 21.08,5.19 L 21.08,5.19 z" id="p3290" style="fill:#000000;fill-opacity:1;fill-rule:evenodd;stroke:none;marker:none;visibility:visible;display:inline;overflow:visible;enable-background:accumulate"/>
<path d="M 21.29,6.96 C 21.33,7.13 21.12,7.32 20.84,7.38 C 20.55,7.43 20.29,7.34 20.26,7.16 C 20.22,6.98 20.43,6.80 20.71,6.74 C 21.00,6.69 21.26,6.78 21.29,6.96 L 21.29,6.96 z" id="p3292" style="fill:#000000;fill-opacity:1;fill-rule:evenodd;stroke:none;marker:none;visibility:visible;display:inline;overflow:visible;enable-background:accumulate"/>
<path d="M 28.26,6.73 C 28.21,6.90 27.95,6.98 27.67,6.90 C 27.38,6.82 27.20,6.62 27.24,6.45 C 27.29,6.28 27.56,6.20 27.84,6.27 C 28.12,6.35 28.31,6.55 28.26,6.73 L 28.26,6.73 z" id="p3294" style="fill:#000000;fill-opacity:1;fill-rule:evenodd;stroke:none;marker:none;visibility:visible;display:inline;overflow:visible;enable-background:accumulate"/>
<path d="M 24.97,7.71 C 24.97,7.91 24.73,8.07 24.44,8.07 C 24.14,8.07 23.91,7.91 23.91,7.71 C 23.91,7.51 24.14,7.35 24.44,7.35 C 24.73,7.35 24.97,7.51 24.97,7.71 L 24.97,7.71 z" id="p3296" style="fill:#000000;fill-opacity:1;fill-rule:evenodd;stroke:none;marker:none;visibility:visible;display:inline;overflow:visible;enable-background:accumulate"/>
<path d="M 16.49,8.92 C 16.54,6.19 19.36,3.63 24.31,3.67 C 29.26,3.71 31.86,6.27 31.86,8.4 C 31.86,10.53 30.99,11.48 30.91,11.79 C 30.82,12.09 31.04,12.05 31.04,12.31 C 31.04,12.69 30.91,12.87 30.91,13.05 C 30.91,13.22 31.12,13.26 31.12,13.61 C 31.12,13.96 30.95,14.22 30.95,14.22 C 30.95,14.22 32.29,14.75 32.6,15.65 C 32.89,16.52 32.95,24.2 33.03,28.28 C 33.12,32.37 32.99,38.75 32.95,39.14 C 32.9,39.53 32.69,40.31 32.47,40.66 C 32.25,41.01 31.56,41.74 31.25,41.87 C 30.95,42 27.36,43.78 26.24,43.78 C 25.09,43.78 20.36,43.35 19.53,43.18 C 18.71,43 14.93,39.83 14.5,39.05 C 14.06,38.27 14.37,37.49 14.37,36.79 C 14.37,36.1 15.19,19.67 15.36,17.08 C 15.44,15.94 16.84,14.06 17.32,13.61 C 17.51,13.43 17.32,13.44 17.36,12.92 C 17.4,12.4 17.75,12.31 17.71,12 C 17.66,11.7 16.54,10.66 16.49,8.92 z" id="stroke" style="fill:none;fill-opacity:1;fill-rule:evenodd;stroke:#000000;stroke-width:0.5;stroke-linecap:butt;stroke-linejoin:miter;stroke-miterlimit:4;stroke-dasharray:none;stroke-opacity:1"/>
</g>
</svg>
