<?xml version="1.0" encoding="UTF-8" standalone="no"?>
<!-- Created with Inkscape (http://www.inkscape.org/) -->
<svg
   xmlns:svg="http://www.w3.org/2000/svg"
   xmlns="http://www.w3.org/2000/svg"
   version="1.0"
   width="100%" height="100%" viewBox="0 0 48 48"
   id="svg2383">
  <defs
     id="defs2385" />
  <g
     id="layer1">
    <path
       d="M 46.571428,24.428572 A 22,22 0 1 1 2.5714283,24.428572 A 22,22 0 1 1 46.571428,24.428572 z"
       transform="translate(-0.5677603,-0.4285717)"
       id="path3202"
       style="opacity:1;fill:#ffffff;fill-opacity:0.23636361;fill-rule:evenodd;stroke:none;stroke-width:0.40000001;stroke-linecap:round;stroke-linejoin:miter;marker:none;marker-start:none;marker-mid:none;marker-end:none;stroke-miterlimit:4;stroke-dasharray:none;stroke-dashoffset:0;stroke-opacity:1;visibility:visible;display:inline;overflow:visible;enable-background:accumulate" />
    <path
       d="M 46.571428,24.428572 A 22,22 0 1 1 2.5714283,24.428572 A 22,22 0 1 1 46.571428,24.428572 z"
       transform="translate(-0.5677603,-0.4285717)"
       id="path2393"
       style="opacity:1;fill:none;fill-opacity:1;fill-rule:evenodd;stroke:#4a3a31;stroke-width:0.40000001;stroke-linecap:round;stroke-linejoin:miter;marker:none;marker-start:none;marker-mid:none;marker-end:none;stroke-miterlimit:4;stroke-dasharray:none;stroke-dashoffset:0;stroke-opacity:1;visibility:visible;display:inline;overflow:visible;enable-background:accumulate" />
    <path
       d="M 46.571428,24.428572 A 22,22 0 1 1 2.5714283,24.428572 A 22,22 0 1 1 46.571428,24.428572 z"
       transform="matrix(0.9396822,0,0,0.9396822,0.9143349,1.0449067)"
       id="path3169"
       style="opacity:1;fill:none;fill-opacity:1;fill-rule:evenodd;stroke:#4a3a31;stroke-width:0.42567584;stroke-linecap:round;stroke-linejoin:miter;marker:none;marker-start:none;marker-mid:none;marker-end:none;stroke-miterlimit:4;stroke-dasharray:none;stroke-dashoffset:0;stroke-opacity:1;visibility:visible;display:inline;overflow:visible;enable-background:accumulate" />
    <path
       d="M 46.571428,24.428572 A 22,22 0 1 1 2.5714283,24.428572 A 22,22 0 1 1 46.571428,24.428572 z"
       transform="matrix(0.7355295,0,0,0.7355295,5.9306571,6.0320644)"
       id="path3171"
       style="opacity:1;fill:none;fill-opacity:1;fill-rule:evenodd;stroke:#4a3a31;stroke-width:0.54382592;stroke-linecap:round;stroke-linejoin:miter;marker:none;marker-start:none;marker-mid:none;marker-end:none;stroke-miterlimit:4;stroke-dasharray:none;stroke-dashoffset:0;stroke-opacity:1;visibility:visible;display:inline;overflow:visible;enable-background:accumulate" />
    <path
       d="M 24,8.0039116 L 24,39.9992"
       id="path3175"
       style="opacity:1;fill:none;fill-opacity:1;fill-rule:evenodd;stroke:#4a3a31;stroke-width:0.2;stroke-linecap:round;stroke-linejoin:miter;marker:none;marker-start:none;marker-mid:none;marker-end:none;stroke-miterlimit:4;stroke-dasharray:none;stroke-dashoffset:0;stroke-opacity:1;visibility:visible;display:inline;overflow:visible;enable-background:accumulate" />
    <path
       d="M 37.854366,16.002734 L 10.145634,32.000378"
       id="path3177"
       style="opacity:1;fill:none;fill-opacity:1;fill-rule:evenodd;stroke:#4a3a31;stroke-width:0.2;stroke-linecap:round;stroke-linejoin:miter;marker:none;marker-start:none;marker-mid:none;marker-end:none;stroke-miterlimit:4;stroke-dasharray:none;stroke-dashoffset:0;stroke-opacity:1;visibility:visible;display:inline;overflow:visible;enable-background:accumulate" />
    <path
       d="M 37.854366,32.000378 L 10.145634,16.002734"
       id="path3179"
       style="opacity:1;fill:none;fill-opacity:1;fill-rule:evenodd;stroke:#4a3a31;stroke-width:0.2;stroke-linecap:round;stroke-linejoin:miter;marker:none;marker-start:none;marker-mid:none;marker-end:none;stroke-miterlimit:4;stroke-dasharray:none;stroke-dashoffset:0;stroke-opacity:1;visibility:visible;display:inline;overflow:visible;enable-background:accumulate" />
    <path
       d="M 10.009648,32.073145 L 10.018506,15.915974 L 23.995667,7.8479132 L 37.995255,15.925897 L 37.995255,32.071761 L 23.995397,40.156426 L 10.009648,32.073145 z"
       id="path3181"
       style="opacity:1;fill:none;fill-opacity:1;fill-rule:evenodd;stroke:#4a3a31;stroke-width:0.2;stroke-linecap:round;stroke-linejoin:miter;marker:none;marker-start:none;marker-mid:none;marker-end:none;stroke-miterlimit:4;stroke-dasharray:none;stroke-dashoffset:0;stroke-opacity:1;visibility:visible;display:inline;overflow:visible;enable-background:accumulate" />
    <path
       d="M 10.010193,15.905043 L 23.995172,40.155043 L 37.969957,15.915236 L 10.010193,15.905043 z"
       id="path3183"
       style="opacity:1;fill:none;fill-opacity:1;fill-rule:evenodd;stroke:#4a3a31;stroke-width:0.40000001;stroke-linecap:round;stroke-linejoin:bevel;marker:none;marker-start:none;marker-mid:none;marker-end:none;stroke-miterlimit:4;stroke-dasharray:none;stroke-dashoffset:0;stroke-opacity:1;visibility:visible;display:inline;overflow:visible;enable-background:accumulate" />
    <path
       d="M 46.571428,24.428572 A 22,22 0 1 1 2.5714283,24.428572 A 22,22 0 1 1 46.571428,24.428572 z"
       transform="matrix(0.2175461,0,0,0.2175461,18.658248,18.685658)"
       id="path3185"
       style="opacity:1;fill:none;fill-opacity:1;fill-rule:evenodd;stroke:#4a3a31;stroke-width:0.91934538;stroke-linecap:round;stroke-linejoin:miter;marker:none;marker-start:none;marker-mid:none;marker-end:none;stroke-miterlimit:4;stroke-dasharray:none;stroke-dashoffset:0;stroke-opacity:1;visibility:visible;display:inline;overflow:visible;enable-background:accumulate" />
    <path
       d="M 46.571428,24.428572 A 22,22 0 1 1 2.5714283,24.428572 A 22,22 0 1 1 46.571428,24.428572 z"
       transform="matrix(0.1691435,0,0,0.1691435,19.84757,19.868065)"
       id="path3189"
       style="opacity:1;fill:none;fill-opacity:1;fill-rule:evenodd;stroke:#4a3a31;stroke-width:1.18242788;stroke-linecap:round;stroke-linejoin:miter;marker:none;marker-start:none;marker-mid:none;marker-end:none;stroke-miterlimit:4;stroke-dasharray:none;stroke-dashoffset:0;stroke-opacity:1;visibility:visible;display:inline;overflow:visible;enable-background:accumulate" />
    <path
       d="M 46.571428,24.428572 A 22,22 0 1 1 2.5714283,24.428572 A 22,22 0 1 1 46.571428,24.428572 z"
       transform="matrix(0.600638,0,0,0.600638,9.245134,9.3272712)"
       id="path3191"
       style="opacity:1;fill:none;fill-opacity:1;fill-rule:evenodd;stroke:#4a3a31;stroke-width:0.33297926;stroke-linecap:round;stroke-linejoin:miter;marker:none;marker-start:none;marker-mid:none;marker-end:none;stroke-miterlimit:4;stroke-dasharray:none;stroke-dashoffset:0;stroke-opacity:1;visibility:visible;display:inline;overflow:visible;enable-background:accumulate" />
    <path
       d="M 18.064424,36.707875 C 18.27218,36.324995 18.790298,35.652628 19.099737,35.343189 C 20.337493,34.105433 22.0471,33.339529 23.934507,33.339529 C 25.821914,33.339529 27.531522,34.105433 28.769278,35.343189 C 29.078717,35.652628 29.358665,35.991558 29.604528,36.355384 C 29.727459,36.537297 29.777542,36.590345 29.882856,36.784132"
       id="path3193"
       style="fill:none;fill-opacity:1;fill-rule:evenodd;stroke:#4a3a31;stroke-width:0.2;stroke-linecap:round;stroke-linejoin:bevel;marker:none;marker-start:none;marker-mid:none;marker-end:none;stroke-miterlimit:4;stroke-dashoffset:0;stroke-opacity:1;visibility:visible;display:inline;overflow:visible;enable-background:accumulate" />
    <path
       d="M 15.998148,12.535448 C 16.225854,12.906809 16.549081,13.691696 16.662344,14.114398 C 17.115394,15.805204 16.923884,17.668719 15.980179,19.303262 C 15.036476,20.937805 13.51838,22.035416 11.827573,22.488466 C 11.404873,22.601729 10.971376,22.674706 10.533361,22.705717 C 10.314355,22.721222 10.243373,22.738071 10.022891,22.732382"
       id="path3196"
       style="fill:none;fill-opacity:1;fill-rule:evenodd;stroke:#4a3a31;stroke-width:0.2;stroke-linecap:round;stroke-linejoin:bevel;marker:none;marker-start:none;marker-mid:none;marker-end:none;stroke-miterlimit:4;stroke-dashoffset:0;stroke-opacity:1;visibility:visible;display:inline;overflow:visible;enable-background:accumulate" />
    <path
       d="M 31.939187,12.535448 C 31.711481,12.906809 31.388254,13.691696 31.274991,14.114398 C 30.821941,15.805204 31.013451,17.668719 31.957156,19.303262 C 32.900859,20.937805 34.418955,22.035416 36.109762,22.488466 C 36.532462,22.601729 36.965959,22.674706 37.403974,22.705717 C 37.62298,22.721222 37.693962,22.738071 37.914444,22.732382"
       id="path3200"
       style="fill:none;fill-opacity:1;fill-rule:evenodd;stroke:#4a3a31;stroke-width:0.2;stroke-linecap:round;stroke-linejoin:bevel;marker:none;marker-start:none;marker-mid:none;marker-end:none;stroke-miterlimit:4;stroke-dashoffset:0;stroke-opacity:1;visibility:visible;display:inline;overflow:visible;enable-background:accumulate" />
  </g>
</svg>
