<?xml version="1.0" encoding="UTF-8" standalone="no"?>
<!-- Created with Inkscape (http://www.inkscape.org/) -->
<svg
   xmlns:svg="http://www.w3.org/2000/svg"
   xmlns="http://www.w3.org/2000/svg"
   xmlns:xlink="http://www.w3.org/1999/xlink"
   version="1.0"
   width="100%"
   height="100%"
   viewBox="0 0 48 48"
   id="svg2383">
  <defs
     id="defs2385">
    <linearGradient
       id="linearGradient3521">
      <stop
         id="stop3523"
         style="stop-color:#02131c;stop-opacity:0.6156863"
         offset="0" />
      <stop
         id="stop3525"
         style="stop-color:#55778b;stop-opacity:0.22807017"
         offset="1" />
    </linearGradient>
    <linearGradient
       id="linearGradient3324">
      <stop
         id="stop3326"
         style="stop-color:#fefec7;stop-opacity:0.29824561"
         offset="0" />
      <stop
         id="stop3328"
         style="stop-color:#fbf7ae;stop-opacity:0"
         offset="1" />
    </linearGradient>
    <linearGradient
       id="linearGradient3314">
      <stop
         id="stop3316"
         style="stop-color:#fbffaa;stop-opacity:0.70175439"
         offset="0" />
      <stop
         id="stop3318"
         style="stop-color:#e9fe75;stop-opacity:0"
         offset="1" />
    </linearGradient>
    <linearGradient
       id="linearGradient3306">
      <stop
         id="stop3308"
         style="stop-color:#ffffd7;stop-opacity:0.71052629"
         offset="0" />
      <stop
         id="stop3310"
         style="stop-color:#fbf9d3;stop-opacity:0"
         offset="1" />
    </linearGradient>
    <linearGradient
       id="linearGradient3283">
      <stop
         id="stop3285"
         style="stop-color:#adddf8;stop-opacity:0.61403507"
         offset="0" />
      <stop
         id="stop3287"
         style="stop-color:#55778b;stop-opacity:0.28947368"
         offset="1" />
    </linearGradient>
    <linearGradient
       id="linearGradient3273">
      <stop
         id="stop3275"
         style="stop-color:#1a1f3a;stop-opacity:1"
         offset="0" />
      <stop
         id="stop3277"
         style="stop-color:#495077;stop-opacity:1"
         offset="1" />
    </linearGradient>
    <linearGradient
       id="linearGradient3265">
      <stop
         id="stop3267"
         style="stop-color:#75e3dd;stop-opacity:1"
         offset="0" />
      <stop
         id="stop3269"
         style="stop-color:#7ab7da;stop-opacity:0.39473686"
         offset="1" />
    </linearGradient>
    <linearGradient
       id="linearGradient3243">
      <stop
         id="stop3245"
         style="stop-color:#4a3a31;stop-opacity:0.59649122"
         offset="0" />
      <stop
         id="stop3247"
         style="stop-color:#4a3a31;stop-opacity:0.37719297"
         offset="1" />
    </linearGradient>
    <radialGradient
       cx="24.015625"
       cy="24"
       r="22.203125"
       fx="24.015625"
       fy="24"
       id="radialGradient3249"
       xlink:href="#linearGradient3243"
       gradientUnits="userSpaceOnUse"
       gradientTransform="matrix(1,0,0,0.9992963,0,1.6889579e-2)" />
    <radialGradient
       cx="24.015625"
       cy="24"
       r="23.046875"
       fx="24.015625"
       fy="24"
       id="radialGradient3263"
       xlink:href="#linearGradient3265"
       gradientUnits="userSpaceOnUse"
       gradientTransform="matrix(1,0,0,0.999322,0,1.6271353e-2)" />
    <linearGradient
       x1="0"
       y1="43.481651"
       x2="52.974037"
       y2="3.8275092"
       id="linearGradient3279"
       xlink:href="#linearGradient3273"
       gradientUnits="userSpaceOnUse" />
    <radialGradient
       cx="35.606091"
       cy="34.777084"
       r="24"
       fx="35.606091"
       fy="34.777084"
       id="radialGradient3291"
       xlink:href="#linearGradient3283"
       gradientUnits="userSpaceOnUse"
       gradientTransform="matrix(0.8641666,-1.5050124,1.4031252,0.8056636,-43.960106,60.346062)" />
    <radialGradient
       cx="36.71875"
       cy="10.453125"
       r="11.28125"
       fx="36.71875"
       fy="10.453125"
       id="radialGradient3304"
       xlink:href="#linearGradient3306"
       gradientUnits="userSpaceOnUse"
       gradientTransform="matrix(1,0,0,0.9265928,0,0.7673347)" />
    <radialGradient
       cx="35.074444"
       cy="26.691332"
       r="7.3543191"
       fx="35.074444"
       fy="26.691332"
       id="radialGradient3320"
       xlink:href="#linearGradient3314"
       gradientUnits="userSpaceOnUse" />
    <radialGradient
       cx="10.371476"
       cy="32.914219"
       r="7.7314639"
       fx="10.371476"
       fy="32.914219"
       id="radialGradient3330"
       xlink:href="#linearGradient3324"
       gradientUnits="userSpaceOnUse" />
    <radialGradient
       cx="6.868248"
       cy="7.1061893"
       r="24"
       fx="6.868248"
       fy="7.1061893"
       id="radialGradient3531"
       xlink:href="#linearGradient3521"
       gradientUnits="userSpaceOnUse"
       gradientTransform="matrix(0.3866118,1.5291893,-1.4798833,0.374146,14.729234,-6.0554147)" />
  </defs>
  <rect
     width="48"
     height="48"
     ry="0"
     x="0"
     y="0"
     id="rect3271"
     style="opacity:1;fill:url(#linearGradient3279);fill-opacity:1;fill-rule:evenodd;stroke:none;stroke-width:1.70000005;stroke-linecap:round;stroke-linejoin:round;marker:none;marker-start:none;marker-mid:none;marker-end:none;stroke-miterlimit:4;stroke-dasharray:none;stroke-dashoffset:0;stroke-opacity:1;visibility:visible;display:inline;overflow:visible;enable-background:accumulate" />
  <rect
     width="48"
     height="48"
     ry="0"
     x="0"
     y="0"
     id="rect3519"
     style="opacity:1;fill:url(#radialGradient3531);fill-opacity:1;fill-rule:evenodd;stroke:none;stroke-width:1.70000005;stroke-linecap:round;stroke-linejoin:round;marker:none;marker-start:none;marker-mid:none;marker-end:none;stroke-miterlimit:4;stroke-dasharray:none;stroke-dashoffset:0;stroke-opacity:1;visibility:visible;display:inline;overflow:visible;enable-background:accumulate" />
  <rect
     width="48"
     height="48"
     ry="0"
     x="0"
     y="0"
     id="rect3281"
     style="opacity:1;fill:url(#radialGradient3291);fill-opacity:1;fill-rule:evenodd;stroke:none;stroke-width:1.70000005;stroke-linecap:round;stroke-linejoin:round;marker:none;marker-start:none;marker-mid:none;marker-end:none;stroke-miterlimit:4;stroke-dasharray:none;stroke-dashoffset:0;stroke-opacity:1;visibility:visible;display:inline;overflow:visible;enable-background:accumulate" />
  <path
     d="M 24,0.96875 C 11.281726,0.96875 0.96726469,11.281606 0.96875,24 C 0.9672648,36.718394 11.281726,47.031252 24,47.03125 C 36.718274,47.03125 47.063984,36.719838 47.0625,24 C 47.063986,11.280162 36.718274,0.96875 24,0.96875 z M 24,4.375 C 34.851374,4.375 43.626266,13.148747 43.625,24 C 43.626266,34.851252 34.851374,43.625 24,43.625 C 13.148627,43.625 4.3737328,34.851253 4.375,24 C 4.3737328,13.148746 13.148627,4.375 24,4.375 z M 24,6.78125 C 14.495146,6.78125 6.78014,14.495027 6.78125,24 C 6.7801401,33.504973 14.495145,41.218751 24,41.21875 C 33.504854,41.21875 41.219862,33.504974 41.21875,24 C 41.219861,14.495026 33.504853,6.7812501 24,6.78125 z M 24.9375,9.5 L 26.0625,10.15625 C 25.686533,10.099156 25.322607,9.9952916 24.9375,9.96875 L 24.9375,9.5 z M 23.0625,9.53125 L 23.0625,9.96875 C 22.67517,9.9957032 22.31538,10.098234 21.9375,10.15625 L 23.0625,9.53125 z M 17.6875,10.375 L 15.3125,11.75 C 16.05731,11.215949 16.849992,10.76786 17.6875,10.375 z M 30.3125,10.375 C 31.188134,10.781362 32.006115,11.253125 32.78125,11.8125 L 30.3125,10.375 z M 23.0625,11.84375 L 23.0625,14.875 L 17.6875,14.875 C 17.648396,14.540268 17.65263,14.211372 17.5625,13.875 C 17.548655,13.82333 17.516882,13.744948 17.5,13.6875 C 19.14089,12.649309 21.017708,12.003568 23.0625,11.84375 z M 24.9375,11.84375 C 26.944276,12.001809 28.815831,12.616529 30.4375,13.625 C 30.416341,13.699351 30.391246,13.814369 30.375,13.875 C 30.284812,14.211586 30.289354,14.540092 30.25,14.875 L 24.9375,14.875 L 24.9375,11.84375 z M 14,16.9375 L 15.71875,16.9375 C 15.657125,17.27381 15.560613,17.609646 15.4375,17.9375 L 13.9375,17.0625 C 13.96336,17.025274 13.973746,16.974438 14,16.9375 z M 17.625,16.9375 L 23.0625,16.9375 L 23.0625,18.5 C 21.691417,18.741239 20.564942,19.438563 19.71875,20.46875 L 17.0625,18.90625 C 17.34185,18.258368 17.532127,17.614622 17.625,16.9375 z M 24.9375,16.96875 L 30.3125,16.96875 C 30.409086,17.629352 30.602403,18.274267 30.875,18.90625 L 28.25,20.4375 C 27.405541,19.425321 26.293266,18.738544 24.9375,18.5 L 24.9375,16.96875 z M 32.25,16.96875 L 34,16.96875 C 34.024439,17.003662 34.069698,17.027403 34.09375,17.0625 L 32.53125,17.96875 C 32.406516,17.640046 32.311627,17.308732 32.25,16.96875 z M 35.0625,18.71875 C 35.072551,18.738926 35.083875,18.761079 35.09375,18.78125 L 34.1875,20.3125 C 33.944952,20.110262 33.711077,19.899625 33.5,19.65625 L 35.0625,18.71875 z M 12.9375,18.75 L 14.4375,19.625 C 14.222805,19.875187 13.997559,20.105647 13.75,20.3125 L 12.90625,18.8125 C 12.915966,18.791954 12.927658,18.770489 12.9375,18.75 z M 16.09375,20.53125 L 18.78125,22.09375 C 18.54868,22.703872 18.281168,23.296607 18.28125,24 C 18.281168,24.703393 18.54868,25.296187 18.78125,25.90625 L 17.46875,26.6875 L 14.71875,21.90625 C 15.227277,21.510542 15.686694,21.055387 16.09375,20.53125 z M 31.875,20.5625 C 32.28322,21.085247 32.738787,21.541943 33.25,21.9375 L 30.53125,26.65625 L 29.21875,25.90625 C 29.45132,25.296128 29.718832,24.703393 29.71875,24 C 29.718832,23.296607 29.45132,22.703813 29.21875,22.09375 L 31.875,20.5625 z M 23.0625,21.46875 L 23.0625,22.3125 L 22.3125,21.875 C 22.53602,21.691167 22.788977,21.574465 23.0625,21.46875 z M 24.9375,21.46875 C 25.211023,21.574465 25.46398,21.691167 25.6875,21.875 L 24.9375,22.3125 L 24.9375,21.46875 z M 38.9375,22.25 C 39.008496,22.837689 39.156321,23.393298 39.15625,24 C 39.15632,24.603365 39.005064,25.165298 38.9375,25.75 L 38.9375,22.25 z M 9.0625,22.5 L 9.0625,25.5 C 9.0115581,24.995254 8.8749393,24.519817 8.875,24 C 8.8749396,23.482554 9.0110882,23.004151 9.0625,22.5 z M 12.875,23.09375 L 15.59375,27.75 L 13,29.21875 C 12.241281,27.626373 11.71853,25.878562 11.71875,24 C 11.71873,23.827489 11.741194,23.643425 11.75,23.46875 C 11.85025,23.444978 11.966126,23.432073 12.0625,23.40625 C 12.340235,23.331831 12.605211,23.199037 12.875,23.09375 z M 35.0625,23.09375 C 35.330046,23.202541 35.589781,23.329826 35.875,23.40625 C 35.995977,23.438666 36.127031,23.442028 36.25,23.46875 C 36.258806,23.64338 36.28127,23.827489 36.28125,24 C 36.281469,25.878563 35.758719,27.626331 35,29.21875 L 32.40625,27.75 L 35.0625,23.09375 z M 21.3125,23.59375 L 22.0625,24 L 21.3125,24.40625 C 21.29043,24.266679 21.218733,24.146362 21.21875,24 C 21.218733,23.853638 21.29043,23.733347 21.3125,23.59375 z M 26.6875,23.59375 C 26.70957,23.733321 26.781267,23.853638 26.78125,24 C 26.781267,24.146362 26.70957,24.266653 26.6875,24.40625 L 25.9375,24 L 26.6875,23.59375 z M 23.0625,25.6875 L 23.0625,26.53125 C 22.788977,26.425535 22.53602,26.308833 22.3125,26.125 L 23.0625,25.6875 z M 24.9375,25.6875 L 25.6875,26.125 C 25.46398,26.308833 25.211023,26.425535 24.9375,26.53125 L 24.9375,25.6875 z M 19.71875,27.53125 C 20.564942,28.561437 21.691417,29.258761 23.0625,29.5 L 23.0625,32.625 C 22.396937,32.709035 21.755426,32.854681 21.15625,33.09375 L 18.40625,28.3125 L 19.71875,27.53125 z M 28.25,27.5625 L 29.5625,28.3125 L 26.8125,33.125 C 26.21599,32.881182 25.597674,32.715193 24.9375,32.625 L 24.9375,29.5 C 26.293266,29.261456 27.405541,28.574679 28.25,27.5625 z M 37.0625,29.1875 L 37.0625,30.40625 L 36.65625,30.1875 C 36.814575,29.864977 36.928844,29.523204 37.0625,29.1875 z M 10.96875,29.28125 C 11.09228,29.585221 11.199891,29.894451 11.34375,30.1875 L 10.96875,30.375 L 10.96875,29.28125 z M 16.53125,29.375 L 19.21875,34.0625 C 18.953855,34.267304 18.673578,34.451422 18.4375,34.6875 C 18.406971,34.718029 18.373635,34.749378 18.34375,34.78125 C 16.577811,33.849791 15.095029,32.514571 13.96875,30.875 L 16.53125,29.375 z M 31.40625,29.40625 L 34,30.90625 C 32.855702,32.556692 31.358775,33.918103 29.5625,34.84375 C 29.515556,34.793114 29.487577,34.737577 29.4375,34.6875 C 29.21545,34.46545 28.960012,34.308684 28.71875,34.125 L 31.40625,29.40625 z M 12.34375,31.84375 C 12.55697,32.159768 12.825124,32.421476 13.0625,32.71875 L 11.9375,32.09375 L 12.34375,31.84375 z M 35.65625,31.84375 L 36.09375,32.125 L 34.90625,32.78125 C 35.158155,32.467292 35.431151,32.178204 35.65625,31.84375 z M 23.0625,34.5 L 23.0625,36.21875 C 23.031475,36.216351 22.999717,36.221375 22.96875,36.21875 L 22.125,34.75 C 22.432512,34.644374 22.736998,34.553597 23.0625,34.5 z M 24.9375,34.53125 C 25.256761,34.592304 25.575339,34.668766 25.875,34.78125 L 25.03125,36.21875 C 25.00037,36.221375 24.968407,36.216355 24.9375,36.21875 L 24.9375,34.53125 z M 15.4375,36.3125 L 17.46875,37.5 C 16.7536,37.155377 16.083875,36.761086 15.4375,36.3125 z M 32.53125,36.34375 C 31.936065,36.751093 31.308874,37.085521 30.65625,37.40625 L 32.53125,36.34375 z"
     id="path3251"
     style="fill:url(#radialGradient3263);fill-opacity:1;fill-rule:evenodd;stroke:none;stroke-width:1.70000005;stroke-linecap:round;stroke-linejoin:round;marker:none;stroke-miterlimit:4;stroke-dasharray:none;stroke-dashoffset:0;stroke-opacity:1;visibility:visible;display:inline;overflow:visible;enable-background:accumulate" />
  <path
     d="M 46.003668,24 C 46.005087,36.151268 36.154936,46.002569 24.003668,46.002569 C 11.8524,46.002569 2.002249,36.151268 2.003668,24 C 2.002249,11.848732 11.8524,1.9974313 24.003668,1.9974313 C 36.154936,1.9974313 46.005087,11.848732 46.003668,24 L 46.003668,24 z"
     id="path3202"
     style="fill:#ffffff;fill-opacity:0.23636361;fill-rule:evenodd;stroke:none;stroke-width:0.40000001;stroke-linecap:round;stroke-linejoin:miter;marker:none;marker-start:none;marker-mid:none;marker-end:none;stroke-miterlimit:4;stroke-dasharray:none;stroke-dashoffset:0;stroke-opacity:1;visibility:visible;display:inline;overflow:visible;enable-background:accumulate" />
  <path
     d="M 24,1.8125 C 11.740636,1.8125 1.8110683,11.740636 1.8125,24 C 1.8110684,36.259364 11.740636,46.187502 24,46.1875 C 36.259364,46.1875 46.22018,36.259364 46.21875,24 C 46.220182,11.740636 36.259364,1.8125 24,1.8125 z M 24,2.1875 C 36.043172,2.1875 45.813906,11.956828 45.8125,24 C 45.813905,36.043172 36.043172,45.8125 24,45.8125 C 11.956828,45.812502 2.2173436,36.043172 2.21875,24 C 2.2173436,11.956828 11.956828,2.1875 24,2.1875 z M 24,3.125 C 12.473574,3.125 3.1236539,12.473573 3.125,24 C 3.123654,35.526426 12.473574,44.875 24,44.875 C 35.526427,44.875 44.876345,35.526425 44.875,24 C 44.876346,12.473574 35.526427,3.125 24,3.125 z M 24,3.53125 C 35.310235,3.53125 44.47007,12.689766 44.46875,24 C 44.47007,35.310233 35.310235,44.46875 24,44.46875 C 12.689766,44.46875 3.5299292,35.310234 3.53125,24 C 3.5299292,12.689765 12.689766,3.53125 24,3.53125 z M 24,7.625 C 14.954288,7.625 7.6239436,14.954288 7.625,24 C 7.6239437,33.045712 14.954287,40.375001 24,40.375 C 33.045712,40.375 40.376058,33.045712 40.375,24 C 40.376057,14.954288 33.045711,7.6250001 24,7.625 z M 23.90625,8.03125 L 23.90625,10.6875 C 21.113037,10.707114 18.539198,11.605598 16.40625,13.09375 C 16.312072,12.868832 16.217508,12.655311 16.125,12.5 L 23.90625,8.03125 z M 24.09375,8.03125 L 31.84375,12.46875 C 31.75335,12.616182 31.657328,12.839483 31.5625,13.0625 C 29.437035,11.589932 26.870479,10.707343 24.09375,10.6875 L 24.09375,8.03125 z M 24.53125,8.03125 C 30.053963,8.2089536 34.857108,11.193525 37.59375,15.59375 L 24.53125,8.03125 z M 22.9375,8.0625 C 23.104739,8.0513575 23.268831,8.0684481 23.4375,8.0625 L 10.5,15.53125 C 13.142591,11.317014 17.681185,8.4127092 22.9375,8.0625 z M 23.90625,10.875 L 23.90625,15.71875 L 16.96875,15.71875 C 16.952211,15.171794 16.891137,14.620482 16.75,14.09375 C 16.691218,13.874374 16.588307,13.552789 16.46875,13.25 C 18.575604,11.772609 21.144282,10.894735 23.90625,10.875 z M 24.09375,10.875 C 26.831058,10.894576 29.372579,11.765289 31.46875,13.21875 C 31.344325,13.53086 31.248192,13.867242 31.1875,14.09375 C 31.045296,14.624462 30.983118,15.168409 30.96875,15.71875 L 24.09375,15.71875 L 24.09375,10.875 z M 32.03125,12.59375 L 37.5,15.71875 L 34.375,15.71875 C 33.611006,14.764208 32.74341,13.90097 31.75,13.1875 C 31.849647,12.967924 31.946287,12.732315 32.03125,12.59375 z M 15.9375,12.625 C 16.02529,12.773882 16.119531,12.99719 16.21875,13.21875 C 15.23562,13.929741 14.351965,14.772551 13.59375,15.71875 L 10.53125,15.71875 L 15.9375,12.625 z M 31.65625,13.34375 C 32.588576,14.014337 33.406242,14.830679 34.125,15.71875 L 31.15625,15.71875 C 31.171723,15.180643 31.236807,14.640747 31.375,14.125 C 31.429482,13.921674 31.532924,13.631508 31.65625,13.34375 z M 16.3125,13.40625 C 16.423185,13.670348 16.512571,13.938666 16.5625,14.125 C 16.701045,14.642058 16.795906,15.178572 16.8125,15.71875 L 13.875,15.71875 C 14.587974,14.850806 15.397444,14.071091 16.3125,13.40625 z M 10.53125,16.09375 L 13.28125,16.09375 C 13.0078,16.462016 12.765306,16.85359 12.53125,17.25 L 10.53125,16.09375 z M 13.5625,16.09375 L 16.8125,16.09375 C 16.785576,17.156575 16.496698,18.236076 15.9375,19.21875 L 12.71875,17.34375 C 12.975268,16.90994 13.260311,16.491358 13.5625,16.09375 z M 17,16.09375 L 23.90625,16.09375 L 23.90625,19.125 C 22.170232,19.158427 20.680564,20.109812 19.84375,21.5 L 16.09375,19.3125 C 16.674861,18.291743 16.973193,17.191116 17,16.09375 z M 24.09375,16.125 L 30.9375,16.125 C 30.97416,17.219451 31.287518,18.326204 31.875,19.34375 L 28.15625,21.5 C 27.319436,20.109812 25.829768,19.158427 24.09375,19.125 L 24.09375,16.125 z M 31.15625,16.125 L 34.46875,16.125 C 34.762107,16.518351 35.029721,16.918377 35.28125,17.34375 L 32.03125,19.25 C 31.460937,18.26219 31.188894,17.194314 31.15625,16.125 z M 34.71875,16.125 L 37.4375,16.125 L 35.46875,17.25 C 35.240165,16.862856 34.984551,16.485833 34.71875,16.125 z M 10.46875,16.34375 L 12.40625,17.4375 C 12.186596,17.824271 11.993577,18.216863 11.8125,18.625 L 10.46875,16.34375 z M 37.46875,16.34375 L 36.1875,18.59375 C 36.009413,18.194631 35.808779,17.816128 35.59375,17.4375 L 37.46875,16.34375 z M 37.90625,16.4375 L 37.90625,22.625 C 37.691411,22.630543 37.62883,22.609508 37.40625,22.59375 C 37.354358,22.590076 37.301902,22.56669 37.25,22.5625 C 37.120797,21.345748 36.810535,20.185159 36.375,19.09375 L 37.90625,16.4375 z M 38.09375,16.46875 C 39.298245,18.711648 40.000318,21.275117 40,24 C 40.000321,26.747942 39.317499,29.341251 38.09375,31.59375 L 38.09375,16.46875 z M 9.90625,16.5 L 9.90625,31.5 C 8.7101855,29.264081 8.0309324,26.71937 8.03125,24 C 8.0309335,21.290179 8.7183713,18.734367 9.90625,16.5 z M 10.125,16.53125 L 11.625,19.125 C 11.195339,20.208575 10.878142,21.355737 10.75,22.5625 C 10.677743,22.568685 10.603511,22.588634 10.53125,22.59375 C 10.350242,22.606565 10.26232,22.622338 10.125,22.625 L 10.125,16.53125 z M 12.59375,17.53125 L 15.8125,19.40625 C 15.23285,20.352447 14.454496,21.112408 13.5625,21.65625 L 13.53125,21.65625 L 11.9375,18.84375 C 12.131525,18.389323 12.351117,17.958032 12.59375,17.53125 z M 35.40625,17.53125 C 35.64416,17.949725 35.871294,18.367417 36.0625,18.8125 L 34.40625,21.6875 C 33.504599,21.149325 32.709789,20.384044 32.125,19.4375 L 35.40625,17.53125 z M 23.90625,19.3125 L 23.90625,20.1875 C 22.57724,20.220632 21.437541,20.943732 20.78125,22 L 20,21.59375 C 20.804413,20.25636 22.24015,19.346048 23.90625,19.3125 z M 24.09375,19.3125 C 25.75985,19.346048 27.195587,20.25636 28,21.59375 L 27.21875,22 C 26.562459,20.943732 25.422759,20.220632 24.09375,20.1875 L 24.09375,19.3125 z M 11.75,19.34375 L 13.1875,21.84375 C 12.748026,22.074775 12.289123,22.278539 11.8125,22.40625 C 11.534479,22.480746 11.256137,22.531746 10.96875,22.5625 C 11.091191,21.439992 11.363308,20.362096 11.75,19.34375 z M 36.25,19.34375 C 36.636692,20.362096 36.908809,21.439992 37.03125,22.5625 C 36.723266,22.531641 36.42268,22.486013 36.125,22.40625 C 35.657052,22.280864 35.215197,22.098941 34.78125,21.875 L 36.25,19.34375 z M 15.96875,19.5 L 19.75,21.65625 C 19.36484,22.354276 19.1249,23.144492 19.125,24 C 19.1249,24.855509 19.36484,25.645724 19.75,26.34375 L 17.125,27.84375 L 13.65625,21.8125 C 14.570694,21.251582 15.375111,20.468773 15.96875,19.5 z M 31.96875,19.5 C 32.570449,20.481926 33.382478,21.281288 34.3125,21.84375 L 30.84375,27.84375 L 28.25,26.34375 C 28.63516,25.645724 28.8751,24.855509 28.875,24 C 28.8751,23.144491 28.63516,22.354276 28.25,21.65625 L 31.96875,19.5 z M 23.90625,20.375 L 23.90625,23.8125 L 20.9375,22.09375 C 21.561445,21.090924 22.647609,20.408296 23.90625,20.375 z M 24.09375,20.375 C 25.35239,20.408296 26.438555,21.090924 27.0625,22.09375 L 24.09375,23.8125 L 24.09375,20.375 z M 19.90625,21.75 L 20.65625,22.1875 C 20.365492,22.726141 20.187423,23.34361 20.1875,24 C 20.187423,24.65639 20.365492,25.273859 20.65625,25.8125 L 19.90625,26.25 C 19.537448,25.580232 19.312404,24.818842 19.3125,24 C 19.312405,23.181158 19.537448,22.419768 19.90625,21.75 z M 28.09375,21.75 C 28.462552,22.419768 28.687596,23.181158 28.6875,24 C 28.687596,24.818843 28.462552,25.580232 28.09375,26.25 L 27.34375,25.8125 C 27.634509,25.273859 27.812576,24.656391 27.8125,24 C 27.812577,23.34361 27.634509,22.726141 27.34375,22.1875 L 28.09375,21.75 z M 13.28125,22.03125 L 16.78125,28.0625 L 12.59375,30.46875 C 11.507517,28.558113 10.874725,26.35331 10.875,24 C 10.874952,23.589249 10.900552,23.182408 10.9375,22.78125 C 11.242043,22.74193 11.547419,22.673152 11.84375,22.59375 C 12.339908,22.460805 12.823407,22.273628 13.28125,22.03125 z M 34.6875,22.03125 C 35.138059,22.267481 35.606399,22.463165 36.09375,22.59375 C 36.41032,22.678575 36.736696,22.742127 37.0625,22.78125 C 37.099448,23.182408 37.125048,23.589249 37.125,24 C 37.125274,26.35331 36.492483,28.558112 35.40625,30.46875 L 31.21875,28.0625 L 34.6875,22.03125 z M 20.8125,22.28125 L 23.78125,24 L 20.8125,25.71875 C 20.535591,25.206662 20.374927,24.622753 20.375,24 C 20.374927,23.377247 20.535591,22.793338 20.8125,22.28125 z M 27.1875,22.28125 C 27.464409,22.793338 27.625073,23.377247 27.625,24 C 27.625073,24.622753 27.464409,25.206662 27.1875,25.71875 L 24.21875,24 L 27.1875,22.28125 z M 10.75,22.78125 C 10.714214,23.179344 10.687452,23.592577 10.6875,24 C 10.687221,26.387216 11.306032,28.625215 12.40625,30.5625 L 10.125,31.875 L 10.125,22.84375 C 10.267164,22.841062 10.356053,22.824903 10.53125,22.8125 C 10.60565,22.807233 10.675913,22.788819 10.75,22.78125 z M 37.25,22.8125 C 37.302278,22.817354 37.35382,22.808788 37.40625,22.8125 C 37.621685,22.827752 37.680125,22.849585 37.90625,22.84375 L 37.90625,31.875 C 37.901773,31.882832 37.910739,31.898427 37.90625,31.90625 L 35.59375,30.5625 C 36.693968,28.625215 37.312779,26.387216 37.3125,24 C 37.312546,23.603 37.283996,23.200661 37.25,22.8125 z M 23.90625,24.1875 L 23.90625,27.625 C 22.647609,27.591704 21.561445,26.909076 20.9375,25.90625 L 23.90625,24.1875 z M 24.09375,24.1875 L 27.0625,25.90625 C 26.438555,26.909076 25.352391,27.591704 24.09375,27.625 L 24.09375,24.1875 z M 20.78125,26 C 21.43754,27.056268 22.577239,27.779367 23.90625,27.8125 L 23.90625,28.6875 C 22.24015,28.653952 20.804413,27.74364 20,26.40625 L 20.78125,26 z M 27.21875,26 L 28,26.40625 C 27.195587,27.74364 25.75985,28.653952 24.09375,28.6875 L 24.09375,27.8125 C 25.42276,27.779368 26.56246,27.056268 27.21875,26 z M 19.84375,26.5 C 20.680564,27.890188 22.170232,28.841574 23.90625,28.875 L 23.90625,33.25 C 22.754771,33.25506 21.673807,33.560808 20.71875,34.0625 L 17.21875,28.03125 L 19.84375,26.5 z M 28.15625,26.5 L 30.75,28 L 27.25,34.09375 C 26.309229,33.583136 25.232444,33.275023 24.09375,33.25 L 24.09375,28.875 C 25.829768,28.841573 27.319436,27.890188 28.15625,26.5 z M 16.875,28.21875 L 20.34375,34.25 C 19.864002,34.540488 19.425605,34.886895 19.03125,35.28125 C 18.878843,35.433657 18.689266,35.666841 18.5,35.90625 C 16.079017,34.783061 14.068826,32.93943 12.71875,30.65625 L 16.875,28.21875 z M 31.09375,28.21875 L 35.28125,30.65625 C 33.914789,32.96714 31.866376,34.818321 29.40625,35.9375 C 29.22993,35.708323 29.047669,35.485169 28.84375,35.28125 C 28.469854,34.907354 28.044846,34.593454 27.59375,34.3125 L 31.09375,28.21875 z M 12.53125,30.75 C 13.892936,33.056224 15.934232,34.921403 18.375,36.0625 C 18.236555,36.246515 18.123791,36.438065 18.03125,36.59375 L 10.28125,32.125 C 10.269446,32.105168 10.26172,32.082388 10.25,32.0625 L 12.53125,30.75 z M 35.46875,30.75 L 37.78125,32.09375 C 37.776652,32.101502 37.785861,32.117256 37.78125,32.125 L 29.90625,36.625 C 29.842401,36.520253 29.77612,36.44364 29.6875,36.3125 C 29.642022,36.245202 29.5788,36.190825 29.53125,36.125 C 32.017232,34.98835 34.088148,33.088261 35.46875,30.75 z M 37.59375,32.40625 C 34.866962,36.769352 30.07702,39.703004 24.59375,39.90625 L 29.90625,36.875 C 29.916602,36.876637 29.927148,36.876637 29.9375,36.875 C 29.950117,36.867044 29.960794,36.856367 29.96875,36.84375 C 29.970387,36.833398 29.970387,36.822852 29.96875,36.8125 L 37.59375,32.40625 z M 10.46875,32.4375 L 23.375,39.90625 C 17.920083,39.69354 13.185166,36.773642 10.46875,32.4375 z M 23.90625,33.4375 L 23.90625,37.125 C 23.409573,37.1215 22.918562,37.088484 22.4375,37.03125 L 20.8125,34.21875 C 21.74283,33.734621 22.789892,33.442596 23.90625,33.4375 z M 24.09375,33.4375 C 25.212225,33.46305 26.23994,33.775093 27.15625,34.28125 L 25.5625,37.03125 C 25.078168,37.088918 24.593846,37.121473 24.09375,37.125 L 24.09375,33.4375 z M 20.4375,34.40625 L 21.90625,36.9375 C 20.782604,36.755773 19.699306,36.449973 18.6875,36 C 18.857674,35.775636 19.022901,35.539599 19.15625,35.40625 C 19.539317,35.023182 19.969468,34.687834 20.4375,34.40625 z M 27.5,34.46875 C 27.927635,34.738131 28.330473,35.049223 28.6875,35.40625 C 28.885582,35.604332 29.071584,35.809144 29.25,36.03125 C 28.248567,36.470249 27.172546,36.76132 26.0625,36.9375 L 27.5,34.46875 z M 18.5625,36.15625 C 19.647928,36.642793 20.815937,36.975981 22.03125,37.15625 L 23.5,39.75 L 18.1875,36.6875 C 18.277462,36.535206 18.419116,36.354568 18.5625,36.15625 z M 29.375,36.1875 C 29.427673,36.257665 29.482583,36.334233 29.53125,36.40625 C 29.628316,36.549887 29.659751,36.63712 29.71875,36.75 L 24.4375,39.78125 L 25.9375,37.15625 C 27.137695,36.981234 28.301145,36.662016 29.375,36.1875 z M 22.5625,37.25 C 23.0027,37.296963 23.454043,37.309373 23.90625,37.3125 L 23.90625,39.59375 L 22.5625,37.25 z M 25.40625,37.25 C 25.41656,37.24892 25.427197,37.251103 25.4375,37.25 L 24.09375,39.59375 L 24.09375,37.3125 C 24.539448,37.309411 24.972064,37.29547 25.40625,37.25 z"
     id="path2393"
     style="fill:url(#radialGradient3249);fill-opacity:1;fill-rule:evenodd;stroke:none;stroke-width:0;stroke-linecap:round;stroke-linejoin:miter;marker:none;stroke-miterlimit:4;stroke-dasharray:none;stroke-dashoffset:0;stroke-opacity:1;visibility:visible;display:inline;overflow:visible;enable-background:accumulate" />
  <path
     d="M 28.78125,0 C 26.70273,2.2229084 25.4375,5.1876986 25.4375,8.46875 C 25.4375,15.332923 30.979577,20.906251 37.84375,20.90625 C 42.038267,20.90625 45.747399,18.840653 48,15.65625 L 48,1.3125 C 47.673124,0.85040986 47.322838,0.41260701 46.9375,0 L 28.78125,0 z"
     id="path3293"
     style="opacity:1;fill:url(#radialGradient3304);fill-opacity:1;fill-rule:evenodd;stroke:none;stroke-width:1.70000005;stroke-linecap:round;stroke-linejoin:round;marker:none;marker-start:none;marker-mid:none;marker-end:none;stroke-miterlimit:4;stroke-dasharray:none;stroke-dashoffset:0;stroke-opacity:1;visibility:visible;display:inline;overflow:visible;enable-background:accumulate" />
  <path
     d="M 42.428763,26.691332 A 7.3543191,7.3543191 0 1 1 27.720125,26.691332 A 7.3543191,7.3543191 0 1 1 42.428763,26.691332 z"
     id="path3312"
     style="opacity:1;fill:url(#radialGradient3320);fill-opacity:1;fill-rule:evenodd;stroke:none;stroke-width:1.70000005;stroke-linecap:round;stroke-linejoin:round;marker:none;marker-start:none;marker-mid:none;marker-end:none;stroke-miterlimit:4;stroke-dasharray:none;stroke-dashoffset:0;stroke-opacity:1;visibility:visible;display:inline;overflow:visible;enable-background:accumulate" />
  <path
     d="M 18.10294,32.914219 A 7.7314639,7.7314639 0 1 1 2.6400123,32.914219 A 7.7314639,7.7314639 0 1 1 18.10294,32.914219 z"
     id="path3322"
     style="opacity:1;fill:url(#radialGradient3330);fill-opacity:1;fill-rule:evenodd;stroke:none;stroke-width:1.70000005;stroke-linecap:round;stroke-linejoin:round;marker:none;marker-start:none;marker-mid:none;marker-end:none;stroke-miterlimit:4;stroke-dasharray:none;stroke-dashoffset:0;stroke-opacity:1;visibility:visible;display:inline;overflow:visible;enable-background:accumulate" />
</svg>
