<?xml version="1.0" encoding="UTF-8" standalone="no"?>
<!DOCTYPE svg PUBLIC "-//W3C//DTD SVG 1.0//EN" "http://www.w3.org/TR/2001/REC-SVG-20010904/DTD/svg10.dtd">
<svg xmlns:svg="http://www.w3.org/2000/svg" xmlns="http://www.w3.org/2000/svg" version="1.0" width="100%" height="100%" viewBox="0 0 48 48" id="_gears01">
<defs id="defs2818"/>
<g id="gears01" style="display:inline">
<path d="M 24.25,9.06 L 22.90,11.28 L 19.34,11.65 L 16.87,10.12 L 13.93,11.18 L 14.25,13.68 L 12.09,15.12 L 7.96,14.62 L 5.96,16.71 L 6.93,20.12 L 8.06,20.62 L 7.87,21.03 L 3.03,22.37 L 2.84,25.21 L 4.06,28.81 L 8.96,28.5 L 9.09,28.59 L 6.03,31.62 L 7.09,35.21 C 7.09,35.21 8.82,36.72 9.18,37 C 9.54,37.27 10.04,37.50 10.40,37.28 C 10.76,37.05 14.81,34.59 14.81,34.59 L 18.43,35.81 L 18.43,37.12 L 19.06,40.81 L 23.90,40.90 L 25.62,36.12 L 30,35.18 L 34,38.59 L 37.56,36.5 L 37.96,32.87 L 36.75,30.75 L 37.71,29.65 L 42.87,30.31 L 43.71,27.43 L 44.28,23.90 L 40.37,22.34 L 42.71,21.37 L 43.28,18.03 L 41.96,15.68 L 37.34,15.78 L 36.40,14.96 L 36.53,14.78 L 36.81,11.84 L 34.12,10.65 L 31.28,12.15 L 27.71,11.28 L 27.28,9.34 L 24.25,9.06 z M 24.56,16.5 C 30.25,16.44 34.91,19.28 35.21,23.18 C 35.22,23.24 35.21,23.31 35.21,23.37 C 33.62,26.40 29.50,28.76 24.53,29.15 C 19.25,29.56 14.60,27.61 12.75,24.56 C 12.75,20.56 17.40,16.99 23.40,16.53 C 23.79,16.50 24.18,16.50 24.56,16.5 z" id="p2901" style="fill:#696868;fill-opacity:1;stroke:none"/>
<path d="M 13.12,22.65 L 2.96,23.53 L 2.84,25.21 L 3.06,25.90 L 12.93,23.28 C 12.99,23.07 13.04,22.86 13.12,22.65 z M 13.15,25.15 L 7.56,26.03 L 7.93,28.46 L 8.46,28.53 L 8.96,28.5 L 9.09,28.59 L 11.87,28.93 L 6.65,33.78 L 7.09,35.21 C 7.09,35.21 8.82,36.72 9.18,37 L 9.25,37.03 L 10.09,37.37 C 10.10,37.37 10.11,37.37 10.12,37.37 C 10.22,37.36 10.31,37.33 10.40,37.28 C 10.76,37.05 14.81,34.59 14.81,34.59 L 18.43,35.81 L 18.43,37.12 L 19.06,40.81 L 23.90,40.90 L 25.62,36.12 L 27.84,35.65 L 21.68,29.15 C 17.96,28.84 14.81,27.32 13.15,25.15 z M 38.06,26.03 L 33.28,27.06 L 32.43,29.78 L 30.15,27.75 C 28.50,28.49 26.59,28.99 24.53,29.15 C 24.11,29.18 23.71,29.21 23.31,29.21 L 29.06,35.37 L 30,35.18 L 34,38.59 L 37.56,36.5 L 37.96,32.87 L 36.75,30.75 L 37.71,29.65 L 39.53,29.87 C 38.91,28.29 38.06,26.03 38.06,26.03 z" id="p4330" style="fill:#f1f1f1;fill-opacity:0.27;stroke:none;display:inline"/>
<path d="M 12.25,25.28 L 9.71,25.46 C 9.71,25.46 8.98,26.35 7.53,28.59 L 8.96,28.5 L 9.09,28.59 L 9.03,28.65 L 11.03,28.65 L 11.90,36.37 C 13.20,35.58 14.81,34.59 14.81,34.59 L 18.43,35.81 L 18.43,37.12 L 18.62,38.31 L 22.53,29.18 C 18.86,29.05 15.65,27.79 13.75,25.84 L 12.25,25.28 z M 26.68,28.84 C 25.98,28.98 25.27,29.09 24.53,29.15 C 24.09,29.19 23.67,29.21 23.25,29.21 C 23.75,29.96 25.90,33.12 27.59,35.71 L 29.65,35.25 C 29.79,33.94 29.90,32.56 29.90,32.56 L 34.68,31.53 L 32.06,29.40 L 28.68,30.53 L 26.68,28.84 z" id="p4327" style="fill:#f1f1f1;fill-opacity:0.44;stroke:none;display:inline"/>
<path d="M 11.84,28.46 L 6.78,30.87 L 6.03,31.62 L 7.09,35.21 C 7.09,35.21 8.82,36.72 9.18,37 C 9.54,37.27 10.04,37.50 10.40,37.28 C 10.76,37.05 14.81,34.59 14.81,34.59 L 18.43,35.81 L 18.43,37.12 L 19.06,40.81 L 23.90,40.90 L 25.62,36.12 L 30,35.18 L 34,38.59 L 37.56,36.5 L 37.96,32.87 L 37.78,32.56 C 36.97,32.54 36.21,32.90 35.62,33.25 C 34.62,33.83 34.12,33.5 34.12,33.5 C 34.12,33.5 31.77,31.15 30.93,30.90 C 30.10,30.65 25.42,31.72 23.09,31.31 C 20.75,30.89 11.84,28.46 11.84,28.46 z" id="p4301" style="fill:#f1f1f1;fill-opacity:0.94;stroke:none;display:inline"/>
<path d="M 29.84,31.81 C 28.67,31.82 25.78,32.63 25.25,32.68 C 24.69,32.73 23.49,37.46 23.21,37.46 C 22.97,37.46 19.46,37.27 18.46,37.21 L 19.06,40.81 L 23.90,40.90 L 25.62,36.12 L 30,35.18 L 34,38.59 L 37.56,36.5 L 37.96,32.87 C 36.82,33.60 34.65,34.93 34.31,34.93 C 33.86,34.93 30.89,32.12 30.21,31.84 C 30.13,31.80 30.01,31.81 29.84,31.81 z" id="p3755" style="fill:#414141;fill-opacity:1;stroke:none;display:inline"/>
<path d="M 14.25,31.18 C 13.74,31.18 9.29,34.02 8.90,33.96 C 8.59,33.92 6.90,32.38 6.06,31.59 L 6.03,31.62 L 7.09,35.21 C 7.09,35.21 8.82,36.72 9.18,37 C 9.54,37.27 10.04,37.50 10.40,37.28 C 10.76,37.05 14.81,34.59 14.81,34.59 L 18.51,35.86 C 18.60,34.24 18.55,32.69 18.46,32.56 C 18.24,32.22 14.75,31.18 14.25,31.18 L 14.25,31.18 z" id="p3752" style="fill:#414141;fill-opacity:1;stroke:none;display:inline"/>
<path d="M 7.15,25.09 C 5.71,25.06 3.84,25.14 2.84,25.18 L 2.84,25.21 L 4.06,28.81 L 8.96,28.5 L 9.09,28.59 L 9.78,27.93 C 9.78,27.93 8.49,25.43 8.25,25.18 C 8.18,25.12 7.77,25.10 7.15,25.09 z M 9.09,28.59 L 8.93,28.75 C 8.93,28.74 8.96,28.75 8.96,28.75 L 9.09,28.59 z" id="p3859" style="fill:#494949;fill-opacity:1;stroke:none;display:inline"/>
<path d="M 3.14,24.86 C 3.14,24.86 8.15,24.76 8.21,24.84 C 8.49,25.17 9.92,27.56 9.92,27.56" id="p3862" style="fill:none;stroke:#f6f6f6;stroke-width:0.60;stroke-linecap:round;stroke-linejoin:miter;stroke-miterlimit:4;stroke-dasharray:none;stroke-opacity:1;display:inline"/>
<path d="M 38.09,26.18 L 35.46,28.81 L 36.75,30.75 L 37.71,29.65 L 42.87,30.31 L 43.71,27.43 L 43.81,26.90 L 38.09,26.18 z" id="p3865" style="fill:#2c2c2c;fill-opacity:1;stroke:none;display:inline"/>
<path d="M 38.04,26.15 L 37.78,29.65 L 42.87,30.31 L 43.71,27.43 L 43.81,26.90 L 38.04,26.15 z" id="p3985" style="fill:#656565;fill-opacity:0.42;stroke:none;display:inline"/>
<path d="M 43.81,26.90 L 38.09,26.18 L 35.37,28.88 L 36.65,30.82" id="p3865-1" style="fill:none;stroke:#767676;stroke-width:0.30;stroke-linejoin:round;stroke-miterlimit:4;stroke-dasharray:none;stroke-opacity:1;display:inline"/>
<path d="M 38.18,25.62 L 35.31,28.53 L 35.52,28.86 L 38.12,26.19 L 43.09,26.82 L 43.17,26.42 L 38.18,25.62 L 38.18,25.62 z" id="p3868" style="fill:#fafafa;fill-opacity:0.94;stroke:none;marker:none;visibility:visible;display:inline;overflow:visible;enable-background:accumulate;"/>
<path d="M 43.28,18.06 L 39.46,19.43 L 39.68,21.96 L 40.5,22.28 L 42.71,21.37 L 43.28,18.06 z" id="p3871" style="fill:#171717;fill-opacity:1;stroke:none;display:inline"/>
<path d="M 39.53,19.15 L 43.06,17.86" id="p3874" style="fill:none;stroke:#f5f5f5;stroke-width:0.30;stroke-linecap:round;stroke-linejoin:miter;stroke-miterlimit:4;stroke-dasharray:none;stroke-opacity:1;display:inline"/>
<path d="M 36.78,12.06 L 35.25,14.04 L 36.36,15.04 L 36.53,14.78 L 36.78,12.06 z" id="p3877" style="fill:#151515;fill-opacity:1;stroke:none;display:inline"/>
<path d="M 13.93,11.18 L 14.25,13.68 L 14.90,13.28 L 13.93,11.18 z" id="p3880" style="fill:#151515;fill-opacity:1;stroke:none;display:inline"/>
<path d="M 14.25,31.18 L 14.87,34.62 L 18.53,35.87 C 18.61,34.24 18.55,32.69 18.46,32.56 C 18.24,32.22 14.75,31.18 14.25,31.18 z" id="p4214" style="fill:#2f2e2e;fill-opacity:0.61;stroke:none;display:inline"/>
<path d="M 8.91,33.97 C 9.09,34.83 9.43,36.94 9.93,37.36" id="p4240" style="fill:none;stroke:#6f6f6f;stroke-width:0.5;stroke-linecap:butt;stroke-linejoin:miter;stroke-miterlimit:4;stroke-dasharray:none;stroke-opacity:0.47"/>
<path d="M 14.20,31.23 L 14.87,34.64" id="p4242" style="fill:none;stroke:#6f6f6f;stroke-width:0.5;stroke-linecap:butt;stroke-linejoin:miter;stroke-miterlimit:4;stroke-dasharray:none;stroke-opacity:0.25"/>
<path d="M 18.41,35.83 C 18.50,34.20 18.45,32.66 18.36,32.52 C 18.14,32.19 14.75,31.18 14.25,31.18 C 13.74,31.18 9.29,34.02 8.90,33.96 C 8.59,33.92 6.90,32.38 6.06,31.59 L 6.03,31.62" id="p3752-2" style="fill:none;stroke:#505050;stroke-width:0.40;stroke-miterlimit:4;stroke-dasharray:none;stroke-opacity:1;display:inline"/>
<path d="M 30.09,31.84 L 30.06,35.25 L 32.31,37.15 L 31.90,33.12 C 31.18,32.52 30.49,31.95 30.21,31.84 C 30.19,31.83 30.13,31.84 30.09,31.84 z" id="p4368" style="fill:#121212;fill-opacity:0.27;stroke:none;display:inline"/>
<path d="M 25.40,32.65 C 25.36,32.66 25.27,32.68 25.25,32.68 C 24.83,32.72 24.04,35.34 23.56,36.68 C 23.55,36.69 23.56,36.71 23.56,36.71 L 23.81,40.90 L 23.90,40.90 L 25.5,36.46 L 25.40,32.65 z" id="p4366" style="fill:#090909;fill-opacity:0.49;stroke:none;display:inline"/>
<path d="M 34.11,38.51 L 34.24,34.96" id="p4372" style="fill:none;stroke:#b7b7b7;stroke-width:0.60;stroke-linecap:butt;stroke-linejoin:miter;stroke-miterlimit:4;stroke-dasharray:none;stroke-opacity:0.22;display:inline"/>
<path d="M 37.96,32.87 C 36.82,33.60 34.65,34.93 34.31,34.93 C 33.86,34.93 30.89,32.12 30.21,31.84 C 30.13,31.80 30.01,31.81 29.84,31.81 C 28.67,31.82 25.78,32.63 25.25,32.68 C 24.69,32.73 23.49,37.46 23.21,37.46 C 22.97,37.46 19.46,37.27 18.46,37.21" id="p3755-3" style="fill:none;stroke:#505050;stroke-width:0.40;stroke-miterlimit:4;stroke-dasharray:none;stroke-opacity:1;display:inline"/>
<path d="M 43.28,18.06 L 39.46,19.43 L 39.68,21.96 L 40.5,22.28" id="p3871-2" style="fill:none;stroke:#424242;stroke-width:0.40;stroke-linejoin:round;stroke-miterlimit:4;stroke-dasharray:none;stroke-opacity:1;display:inline"/>
<path d="M 36.78,12.06 L 35.25,14.04 L 36.36,15.04" id="p3877-9" style="fill:none;stroke:#232323;stroke-width:0.30;stroke-linejoin:round;stroke-miterlimit:4;stroke-dasharray:none;stroke-opacity:1;display:inline"/>
<path d="M 26.75,9.28 L 24.87,11.87 L 25.56,14.25 L 32.25,17.65 L 40.28,20.87 L 39.43,18.68 L 35.78,17.37 L 35.71,16.09 L 33.68,13.62 L 31.15,12.12 L 31,12.09 L 30.5,15.15 L 28.37,14.81 L 26.68,11.87 L 27.68,11.15 L 27.28,9.34 L 26.75,9.28 z" id="p4461" style="fill:#282828;fill-opacity:0.18;stroke:none;display:inline"/>
<path d="M 25.75,9.18 L 24.53,11.43 L 25.5,14.06 L 27.12,14.75 L 28.34,11.43 L 27.71,11.28 L 27.28,9.34 L 25.75,9.18 z M 34.12,10.65 L 31.28,12.15 L 30.96,12.09 L 30.37,15.40 L 32.68,17.5 L 36.53,14.65 L 36.81,11.84 L 34.12,10.65 z M 41.96,15.68 L 39.25,15.75 L 40.71,17.56 L 41,19.46 L 36,17.21 L 34.21,17.5 L 35.37,22.21 L 44.09,25.06 L 44.28,23.90 L 40.37,22.34 L 42.71,21.37 L 43.28,18.03 L 41.96,15.68 z" id="p4464" style="fill:#282828;fill-opacity:0.24;stroke:none;display:inline"/>
<path d="M 24.40,13.28 C 24.00,13.28 23.60,13.31 23.18,13.34 C 16.55,13.84 11.43,17.73 11.78,22.06 C 11.92,23.83 12.97,25.39 14.59,26.59 C 13.83,25.99 13.20,25.31 12.75,24.56 C 12.75,20.56 17.40,16.99 23.40,16.53 C 23.79,16.50 24.18,16.50 24.56,16.5 C 30.22,16.44 34.86,19.25 35.21,23.12 C 35.66,22.21 35.89,21.24 35.81,20.25 C 35.48,16.19 30.49,13.22 24.40,13.28 z" id="p2903-9" style="fill:#414141;fill-opacity:1;fill-rule:evenodd;stroke:none;marker:none;visibility:visible;display:inline;overflow:visible;enable-background:accumulate"/>
<path d="M 24.40,13.28 C 24.00,13.28 23.60,13.31 23.18,13.34 C 20.25,13.56 17.62,14.45 15.62,15.75 C 16.41,16.49 17.30,17.18 18.25,17.81 C 19.77,17.13 21.51,16.67 23.40,16.53 C 23.79,16.50 24.18,16.50 24.56,16.5 C 27.76,16.46 30.63,17.36 32.59,18.84 C 33.29,18.43 33.96,17.89 34.65,17.31 C 32.79,14.83 28.89,13.23 24.40,13.28 z" id="p4288" style="fill:#585858;fill-opacity:0.75;stroke:none;display:inline"/>
<path d="M 24.5,15.81 C 22.89,15.81 20.94,16.09 18.34,16.56 C 15.77,17.02 14.04,17.70 12.93,18.21 C 12.93,18.22 12.94,18.24 12.93,18.25 C 12.10,19.42 11.67,20.71 11.78,22.06 C 11.92,23.83 12.97,25.39 14.59,26.59 C 13.83,25.99 13.20,25.31 12.75,24.56 C 12.75,20.56 17.40,16.99 23.40,16.53 C 23.79,16.50 24.18,16.50 24.56,16.5 C 26.19,16.48 27.73,16.70 29.12,17.12 C 27.74,16.21 26.35,15.81 24.5,15.81 z" id="p4553" style="fill:#262626;fill-opacity:0.39;stroke:none;display:inline"/>
<path d="M 24.40,13.28 C 24.00,13.28 23.60,13.31 23.18,13.34 C 16.55,13.84 11.43,17.73 11.78,22.06 C 11.92,23.83 12.97,25.39 14.59,26.59 C 13.83,25.99 13.20,25.31 12.75,24.56 C 12.75,20.56 17.40,16.99 23.40,16.53 C 23.79,16.50 24.18,16.50 24.56,16.5 C 30.22,16.44 34.86,19.25 35.21,23.12 C 35.66,22.21 35.89,21.24 35.81,20.25 C 35.48,16.19 30.49,13.22 24.40,13.28 z" id="p2903-9-2" style="fill:none;stroke:#a3a3a3;stroke-width:0.30;marker:none;stroke-miterlimit:4;stroke-dasharray:none;stroke-opacity:0.93;visibility:visible;display:inline;overflow:visible;enable-background:accumulate"/>
<path d="M 35.81,20.25 C 35.48,16.19 30.49,13.22 24.40,13.28 C 24.00,13.28 23.60,13.31 23.18,13.34 C 19.87,13.59 16.93,14.69 14.86,16.26" id="p2903-9-7" style="fill:none;stroke:#f3f3f3;stroke-width:0.40;stroke-linecap:round;marker:none;stroke-miterlimit:4;stroke-dasharray:none;stroke-opacity:0.93;visibility:visible;display:inline;overflow:visible;enable-background:accumulate"/>
<path d="M 6.09,16.59 L 5.96,16.71 L 6.93,20.12 L 8.15,20.61 L 9.27,18.07 L 6.09,16.59 z" id="p4523" style="fill:#1e1e1e;fill-opacity:0.52;stroke:none;display:inline"/>
<path d="M 6.14,16.64 L 9.26,18.07" id="p4549" style="fill:none;stroke:#f7f7f7;stroke-width:0.40;stroke-linecap:butt;stroke-linejoin:miter;stroke-miterlimit:4;stroke-dasharray:none;stroke-opacity:0.95"/>
<path d="M 24.25,9.06 L 22.90,11.28 L 19.34,11.65 L 16.87,10.12 L 13.93,11.18 L 14.25,13.68 L 12.09,15.12 L 7.96,14.62 L 5.96,16.71 L 6.93,20.12 L 8.06,20.62 L 7.87,21.03 L 3.03,22.37 L 2.84,25.21 L 4.06,28.81 L 8.96,28.5 L 9.09,28.59 L 6.03,31.62 L 7.09,35.21 C 7.09,35.21 8.82,36.72 9.18,37 C 9.54,37.27 10.04,37.50 10.40,37.28 C 10.76,37.05 14.81,34.59 14.81,34.59 L 18.43,35.81 L 18.43,37.12 L 19.06,40.81 L 23.90,40.90 L 25.62,36.12 L 30,35.18 L 34,38.59 L 37.56,36.5 L 37.96,32.87 L 36.75,30.75 L 37.71,29.65 L 42.87,30.31 L 43.71,27.43 L 44.28,23.90 L 40.37,22.34 L 42.71,21.37 L 43.28,18.03 L 41.96,15.68 L 37.34,15.78 L 36.40,14.96 L 36.53,14.78 L 36.81,11.84 L 34.12,10.65 L 31.28,12.15 L 27.71,11.28 L 27.28,9.34 L 24.25,9.06 z M 24.56,16.5 C 30.25,16.44 34.91,19.28 35.21,23.18 C 35.22,23.24 35.21,23.31 35.21,23.37 C 33.62,26.40 29.50,28.76 24.53,29.15 C 19.25,29.56 14.60,27.61 12.75,24.56 C 12.75,20.56 17.40,16.99 23.40,16.53 C 23.79,16.50 24.18,16.50 24.56,16.5 z" id="stroke01" style="fill:none;stroke:#101010;stroke-width:0.5;stroke-linejoin:round;stroke-miterlimit:4;stroke-dasharray:none;stroke-opacity:1"/>
</g>
</svg>
