<?xml version="1.0" encoding="UTF-8" standalone="no"?>
<!DOCTYPE svg PUBLIC "-//W3C//DTD SVG 1.0//EN" "http://www.w3.org/TR/2001/REC-SVG-20010904/DTD/svg10.dtd">
<svg xmlns:svg="http://www.w3.org/2000/svg" xmlns="http://www.w3.org/2000/svg" version="1.0" width="100%" height="100%" viewBox="0 0 48 48" id="_quit02">
<defs id="defs2818"/>
<g id="quite02" style="display:inline">
<path d="M 3.35,3.93 3.56,42.08 4.13,42.22 45.91,42.15 45.20,4.43 44.63,4.36 3.35,3.93 z" id="p3919" style="fill:#eaf2ee;fill-opacity:1;stroke:none"/>
<path d="m 4.34,4.86 0.14,36.21 40.35,0 L 44.27,5.29 4.34,4.86 z" id="p3947" style="fill:#00a650;fill-opacity:1;stroke:none"/>
<path d="M 3.36,8.22 45.22,8.57" id="p4333" style="fill:none;stroke:#534115;stroke-width:0.2;stroke-linecap:butt;stroke-linejoin:miter;stroke-miterlimit:4;stroke-opacity:0.23;stroke-dasharray:none;display:inline"/>
<path d="m 3.36,12.49 41.89,0.16" id="p4335" style="fill:none;stroke:#534115;stroke-width:0.2;stroke-linecap:butt;stroke-linejoin:miter;stroke-miterlimit:4;stroke-opacity:0.23;stroke-dasharray:none;display:inline"/>
<path d="m 3.52,17.00 41.65,0.08" id="p4337" style="fill:none;stroke:#534115;stroke-width:0.2;stroke-linecap:butt;stroke-linejoin:miter;stroke-miterlimit:4;stroke-opacity:0.23;stroke-dasharray:none;display:inline"/>
<path d="m 3.52,21.02 41.81,0" id="p4339" style="fill:none;stroke:#534115;stroke-width:0.2;stroke-linecap:butt;stroke-linejoin:miter;stroke-miterlimit:4;stroke-opacity:0.23;stroke-dasharray:none;display:inline"/>
<path d="M 3.44,25.04 45.34,25.28" id="p4341" style="fill:none;stroke:#534115;stroke-width:0.2;stroke-linecap:butt;stroke-linejoin:miter;stroke-miterlimit:4;stroke-opacity:0.23;stroke-dasharray:none;display:inline"/>
<path d="m 3.52,29.05 41.89,0.08" id="p4343" style="fill:none;stroke:#534115;stroke-width:0.2;stroke-linecap:butt;stroke-linejoin:miter;stroke-miterlimit:4;stroke-opacity:0.23;stroke-dasharray:none;display:inline"/>
<path d="M 3.44,33.24 45.58,33.48" id="p4345" style="fill:none;stroke:#534115;stroke-width:0.2;stroke-linecap:butt;stroke-linejoin:miter;stroke-miterlimit:4;stroke-opacity:0.23;stroke-dasharray:none;display:inline"/>
<path d="M 3.52,37.58 45.75,37.66" id="p4347" style="fill:none;stroke:#534115;stroke-width:0.2;stroke-linecap:butt;stroke-linejoin:miter;stroke-miterlimit:4;stroke-opacity:0.23;stroke-dasharray:none;display:inline"/>
<path d="m 44.62,27.90 c -2.18,2.91 -4.31,8.35 -5.65,13.18 l 5.87,0 -0.21,-13.18 z" id="p4325" style="color:#000000;fill:#00622f;fill-opacity:0.24;fill-rule:nonzero;stroke:none;marker:none;visibility:visible;display:inline;overflow:visible;enable-background:accumulate"/>
<path d="m 34.71,5.18 c 0.15,0.56 0.42,1.17 0.87,1.87 3.24,5.10 8.13,20.53 7.43,24.25 -0.40,2.17 -1.30,6.27 -2.06,9.78 l 3.87,0 -0.56,-35.81 -9.56,-0.09 z" id="p4327" style="color:#000000;fill:#00622f;fill-opacity:0.24;fill-rule:nonzero;stroke:none;marker:none;visibility:visible;display:inline;overflow:visible;enable-background:accumulate"/>
<path d="M 4.34,4.87 4.5,41.09 l 13.71,0 c 0.18,-6.53 3.78,-15.04 3.68,-17.43 C 21.79,20.87 20.06,13.22 19.25,11.25 18.85,10.29 19.46,7.92 20.65,5.03 L 4.34,4.87 z" id="p4329" style="fill:#00622f;fill-opacity:0.24;stroke:none"/>
<path d="m 17.75,5 c 4.10,1.44 8.29,2.54 9.03,3.34 1.39,1.50 7.20,6.50 10.68,6.96 1.44,0.19 4.18,-0.26 6.96,-1.03 l -0.15,-9 L 17.75,5 z" id="p4331" style="color:#000000;fill:#00622f;fill-opacity:0.24;fill-rule:nonzero;stroke:none;marker:none;visibility:visible;display:inline;overflow:visible;enable-background:accumulate"/>
<path d="M 4.34,4.87 4.43,23.34 c 9.09,-1.26 20.65,-2.33 26,0.71 4.02,2.30 10.11,6.42 14.31,11.18 L 44.28,5.28 4.34,4.87 z" id="p4458" style="fill:#00869b;fill-opacity:0.24;stroke:none"/>
<path d="m 32.06,28.37 c -3.68,0.10 -5.01,2.07 -6.93,4.34 -1.35,1.59 -2.70,4.97 -3.21,8.37 l 16.15,0 C 38.36,39.93 38.89,38.69 39.75,37.5 42.98,32.96 38.83,28.95 33.78,28.43 33.15,28.37 32.58,28.35 32.06,28.37 z" id="p4460" style="fill:#51e7ff;fill-opacity:0.09;stroke:none"/>
<path d="m 12.68,4.96 c 1.62,1.13 2.97,1.43 3.25,1.87 0.39,0.63 1.45,0.97 2.71,1.09 1.26,0.11 0.54,1.63 1.06,2.34 0.51,0.71 0.47,2.02 1.78,2.18 1.30,0.15 3.49,-2.92 4.40,-2.25 0.91,0.67 1.70,1.22 2.81,1.78 1.10,0.55 1.63,-1.25 2.34,-0.65 0.71,0.59 1.71,1.48 3.37,1.56 1.66,0.07 2.37,-2.27 -0.15,-2.31 -2.53,-0.03 -4.92,0.41 -5.59,-0.53 -0.67,-0.95 0.06,-2.15 -1.28,-2.03 -1.34,0.11 -1.82,0.85 -2.5,0.06 C 24.23,7.30 23.12,5.89 21.34,6.53 19.56,7.16 18.78,7.42 18.31,6.43 18.16,6.12 17.90,5.63 17.59,5 L 12.68,4.96 z" id="p4496" style="fill:#b8eca5;fill-opacity:0.18;stroke:none;display:inline"/>
<path d="m 20.68,7.51 c -0.95,0.59 -0.55,0.95 -0.19,1.22 0.35,0.27 2.37,0.31 2.73,0.71 0.35,0.39 2.57,0.07 3.12,0.43 0.55,0.35 2.25,0.95 2.29,-0.07 C 28.68,8.77 27.13,8.10 25.67,8.62 24.20,9.13 23.57,7.94 22.81,7.70 22.06,7.47 21.55,7.07 20.68,7.51 z" id="p4500" style="fill:#d3f3c8;fill-opacity:0.18;stroke:none;display:inline"/>
<path d="m 16.63,26.76 c -0.35,0.75 0.67,1.18 3.60,1.58 2.93,0.39 5.50,1.94 6.53,3.24 1.03,1.30 2.77,1.58 3.36,4.43 0.59,2.85 2.97,0.71 2.97,0.71 0,0 -1.46,-3.01 -2.73,-4.39 -1.26,-1.38 -2.09,-2.73 -4.79,-4.08 -2.69,-1.34 -7.80,-3.24 -8.95,-1.50 z" id="p4504" style="fill:#deeeb0;fill-opacity:0.33;stroke:none;display:inline"/>
<path d="m 23.77,28.70 c 2.33,0.35 3.16,1.38 4.19,2.69" id="p4508" style="fill:none;stroke:#d7ef8f;stroke-width:1.39;stroke-linecap:round;stroke-linejoin:miter;stroke-miterlimit:4;stroke-opacity:0.34;stroke-dasharray:none;display:inline"/>
<path d="m 5.40,25.46 c -0.33,0.01 -0.64,0.03 -0.96,0.06 l 0.06,15.56 14.31,0 C 18.91,39.70 19.33,38.16 19.84,36.18 20.85,32.30 23.75,30 23.75,30 c 0,0 -4.04,-1.85 -6.06,-2.71 -1.63,-0.70 -7.73,-1.97 -12.28,-1.81 z" id="p4536" style="fill:#23432b;fill-opacity:0.11;stroke:none;display:inline"/>
<path d="m 13.87,26.43 c -1.18,0.17 -2.62,1.13 -3.81,2 -1.58,1.15 -0.71,3.43 -0.71,5.59 0,1.61 -2.09,4.46 -4.84,6.81 l 0,0.25 10.68,0 c 0.08,-1.80 0.22,-4.22 0.62,-7.06 0.86,-6.04 3.90,-5.75 3.90,-5.75 0,0 -3.45,-1.14 -4.75,-1.71 -0.32,-0.14 -0.69,-0.18 -1.09,-0.12 z" id="p4540" style="fill:#23432f;fill-opacity:0.16;stroke:none;display:inline"/>
<path d="M 4.40,21.68 4.5,41.09 l 8.43,0 c 0.05,-0.23 0.09,-0.45 0.06,-0.62 -0.14,-0.87 -1.16,0.00 -1.96,-0.65 -0.80,-0.65 -3.36,-0.63 -3.87,-1.21 -0.51,-0.58 -0.06,-0.89 0.37,-0.96 0.43,-0.07 5.33,-0.01 5.62,-0.15 0.29,-0.14 0.07,-1.09 0,-1.75 -0.07,-0.65 -0.73,0.09 -1.46,0.09 -0.73,0 -2.06,-0.88 -2.5,-1.68 -0.43,-0.80 0.16,-0.71 0.53,-0.71 0.36,0 3.65,0.06 3.65,0.06 0,0 -0.02,-0.35 -0.31,-0.93 -0.29,-0.58 -1.30,-1.32 -2.25,-1.90 -0.94,-0.58 -1.67,-1.40 -1.09,-1.40 0.58,0 3.51,0.02 2.78,-0.12 -0.73,-0.14 -0.07,-0.94 -0.21,-1.31 C 12.13,27.41 13.37,27.25 13.37,27.25 c 0,0 -3.73,-2.96 -8.96,-5.56 z" id="p4568" style="fill:#229c5d;fill-opacity:0.37;stroke:none;display:inline"/>
<path d="M 15.03,30.25 C 14.44,30.46 14.25,31.12 14.25,31.12 c 0,0 -0.53,1.83 -0.53,2.12 0,0.29 -0.21,0.50 0,1.09 0.21,0.58 -0.12,1.10 -0.12,1.46 0,0.36 0.06,1.81 0.06,1.81 0,0 -0.08,1.46 0.06,1.90 0.06,0.20 0.09,0.89 0.09,1.56 l 3.81,0 c -0.12,-0.30 -0.29,-0.57 -0.53,-0.68 -0.73,-0.36 -2.25,-0.13 -2.62,-0.71 -0.36,-0.58 -0.75,-2.06 -0.75,-2.06 l 4.40,0.15 c 0,0 -0.09,-1.40 -1.40,-1.62 -1.31,-0.21 -2.46,0.01 -2.03,-0.5 0.43,-0.51 -0.29,-0.35 -0.43,-0.71 -0.14,-0.36 -0.81,-1.31 -0.37,-1.31 0.43,0 7.37,-0.15 7.37,-0.15 0,0 -1.09,-2.47 -2.62,-2.40 -1.53,0.07 -3.43,1.09 -3.21,0.43 0.21,-0.65 -0.37,-1.25 -0.37,-1.25 z" id="p4572" style="fill:#229c5d;fill-opacity:0.37;stroke:none;display:inline"/>
<path d="m 13.76,32.92 0.05,0.45" id="p4596" style="fill:none;stroke:#94bc8c;stroke-width:0.40;stroke-linecap:round;stroke-linejoin:miter;stroke-miterlimit:4;stroke-opacity:0.68;stroke-dasharray:none;display:inline"/>
<path d="m 13.76,39.78 0.03,1.10" id="p4602" style="fill:none;stroke:#77a96d;stroke-width:0.40;stroke-linecap:round;stroke-linejoin:miter;stroke-miterlimit:4;stroke-opacity:0.68;stroke-dasharray:none;display:inline"/>
<path d="M 34.89,8.86 16.17,8.60 l 0.11,19.22 -1.90,-0.09 c 0,0 -1.25,1.39 -1.51,2.06 -0.26,0.66 -0.67,2.27 -0.67,2.27 l 4.18,0.16 0.14,3.62 -2.48,2.17 13.34,0.16 c 0,0 1.21,-1.30 1.61,-1.50 0.40,-0.19 2.78,-0.04 2.78,-0.04 l -1.73,1.65 3.15,0.05 2.01,-2.05 -0.17,-13.75 -3.09,-0.17 c 0,0 -0.45,-0.14 -0.65,-0.41 -0.20,-0.27 -2.23,-2.47 -2.23,-2.47 0,0 -1.88,3.00 -1.94,3.40 -0.06,0.40 -0.13,0.74 0.06,1.15 0.20,0.40 5.11,10.95 5.31,11.43 0.20,0.47 -0.03,0.33 -0.37,0.40 -0.33,0.06 -2.17,0.01 -2.37,-0.25 -0.20,-0.27 -4.98,-10.06 -5.12,-10.33 -0.13,-0.27 -0.34,-0.26 -0.34,0.27 0.00,0.53 -0.72,4.16 -0.78,4.70 -0.06,0.53 -0.86,1.20 -1.33,1.19 -0.47,-0.00 -8.21,-0.23 -8.21,-0.23 0,0 -0.05,-0.65 0.21,-1.05 0.26,-0.40 0.57,-1.49 1.11,-1.48 0.53,0.00 5.47,0.36 5.81,0.09 0.33,-0.26 0.58,-5.44 0.71,-6.05 0.13,-0.60 2.43,-5.14 2.43,-5.14 0,0 -2.63,-0.17 -2.96,-0.05 -0.33,0.12 -2.00,3.06 -2.13,3.40 -0.13,0.33 -0.64,0.60 -1.18,0.32 -0.54,-0.27 -0.63,-0.82 -0.50,-1.29 0.40,-0.60 2.01,-3.21 2.35,-3.61 0.33,-0.39 0.73,-0.92 1.27,-0.91 l 6.53,0.11 c 0.53,0.00 1.14,0.01 2.09,0.91 0.94,0.89 2.31,3.33 2.58,3.54 0.27,0.20 0.13,0.28 0.81,0.29 0.22,0.00 1.06,0.03 1.93,0.06 L 34.89,8.86 z m -5.67,1.46 c 1.39,0.02 2.53,1.14 2.54,2.54 0.00,1.39 -1.11,2.51 -2.51,2.48 -1.39,-0.02 -2.53,-1.17 -2.54,-2.57 -0.00,-1.39 1.11,-2.48 2.51,-2.45 z" id="p4315" style="fill:#f1ffe2;fill-opacity:0.95;stroke:none;display:inline"/>
<path d="M 3.35,3.93 3.56,42.08 4.13,42.22 45.91,42.15 45.20,4.43 44.63,4.36 3.35,3.93 z" id="stroke01" style="fill:none;stroke:#474747;stroke-width:0.5;stroke-miterlimit:4;stroke-opacity:1;stroke-dasharray:none;display:inline"/>
</g>
</svg>
