<?xml version="1.0" encoding="UTF-8" standalone="no"?>
<!DOCTYPE svg PUBLIC "-//W3C//DTD SVG 1.0//EN" "http://www.w3.org/TR/2001/REC-SVG-20010904/DTD/svg10.dtd">
<svg xmlns:svg="http://www.w3.org/2000/svg" xmlns="http://www.w3.org/2000/svg" version="1.0" width="100%" height="100%" viewBox="0 0 48 48" id="_stop02">
<defs id="defs2818"/>
<g id="stop02">
<path d="M 24.03,45.16 C 27.19,43.32 32.28,40.21 34.99,38.69 C 37.69,37.18 41.19,35.06 42.58,34.07 C 43.96,33.08 44.09,32.29 44.09,31.57 C 44.09,30.85 43.7,26.16 43.63,25.5 C 43.57,24.84 43.76,24.78 43.57,23.13 C 43.38,21.48 43.18,20.1 43.11,19.5 C 43.05,18.91 42.78,18.38 42.26,17.72 C 41.72,17.03 30.04,4.68 28.58,3.36 C 27.13,2.04 26.14,1.98 23.7,2.83 C 21.26,3.68 17.04,6.39 17.04,6.39 C 17.04,6.39 10.05,10.35 9.65,10.54 C 9.26,10.73 9.59,10.08 8.53,10.6 C 7.48,11.12 6.42,11.72 5.17,12.38 C 3.92,13.04 3.46,14.82 3.66,16.14 C 3.85,17.46 4.05,17.92 4.12,18.91 C 4.18,19.9 4.12,20.09 4.18,20.56 C 4.24,21.02 4.64,21.15 4.7,21.81 C 4.76,22.47 5.88,27.29 5.95,27.88 C 6.01,28.47 6.21,28.47 7,29.66 C 7.79,30.84 17.03,41.54 19.21,44.05 C 21.38,46.55 23.17,45.56 24.02,45.1 L 24.03,45.16 z" id="p2881" style="fill:#282d2b;fill-opacity:1;stroke:none"/>
<path d="M 43.37,21.56 C 39.88,24.19 31.21,30.62 27.06,32.93 C 21.85,35.83 19.09,35.18 19.09,35.18 L 19.91,44.77 C 21.76,46.36 23.27,45.55 24.03,45.14 C 27.2,43.3 32.29,40.2 35,38.68 C 37.7,37.17 41.2,35.05 42.59,34.06 C 43.97,33.07 44.09,32.29 44.09,31.56 C 44.09,30.84 43.72,26.16 43.66,25.5 C 43.6,24.84 43.76,24.75 43.57,23.1 C 43.49,22.41 43.46,22.14 43.39,21.57 L 43.37,21.56 z" id="p3680" style="fill:#0e1010;fill-opacity:0.33;stroke:none"/>
<path d="M 43.5,22.68 L 22.02,35.65 L 22.84,45.65 C 23.33,45.54 23.73,45.31 24.02,45.15 C 27.2,43.3 32.29,40.2 35,38.68 C 37.7,37.17 41.2,35.05 42.59,34.06 C 43.97,33.07 44.09,32.29 44.09,31.56 C 44.09,30.84 43.72,26.16 43.66,25.5 C 43.59,24.83 43.76,24.74 43.56,23.09 C 43.54,22.9 43.52,22.86 43.5,22.68 z" id="p3682" style="fill:#0e1010;fill-opacity:0.25;fill-rule:nonzero;stroke:none;marker:none;visibility:visible;display:inline;overflow:visible;enable-background:accumulate"/>
<path d="M 25.93,2.28 C 25.33,2.32 24.6,2.52 23.68,2.84 C 21.24,3.69 17.03,6.4 17.03,6.4 C 17.03,6.4 10.02,10.35 9.63,10.55 C 9.24,10.74 9.6,10.09 8.54,10.61 C 7.49,11.13 6.42,11.73 5.17,12.39 C 3.92,13.05 3.45,14.85 3.64,16.17 C 3.83,17.49 4.04,17.92 4.1,18.92 C 4.16,19.91 4.1,20.11 4.16,20.57 C 4.16,20.6 4.18,20.63 4.19,20.66 C 5.46,22.41 6.48,23.5 6.75,23.87 C 7.08,24.33 7.13,24.44 7.53,25.3 C 7.92,26.2 9.31,29.12 9.31,29.12 L 13.71,34.33 C 13.71,34.33 15.84,34.12 16.3,34.64 C 16.76,35.16 17.29,35.9 18.48,37.29 C 19.66,38.67 21.75,38.35 23.01,37.75 C 24.26,37.16 41.17,27.1 42.22,26.5 C 42.83,26.16 43.29,25.82 43.62,24.82 C 43.64,24.5 43.64,24.09 43.53,23.07 C 43.34,21.42 43.16,20.04 43.1,19.45 C 43.05,18.87 42.77,18.34 42.25,17.68 C 41.72,17.02 30.04,4.69 28.59,3.37 C 27.68,2.54 26.95,2.2 25.93,2.28 z" id="p3678" style="fill:#efd648;fill-opacity:1;stroke:none"/>
<path d="M 42.84,18.56 C 43.05,20.84 42.27,21.17 41.31,21.68 C 40.12,22.31 27.98,29.24 26.78,29.8 C 25.59,30.35 26.23,29.71 25.75,30.01 C 25.28,30.32 24.89,30.64 22.5,31.76 C 22.34,31.83 22.19,31.88 22.04,31.94 L 22.29,38.03 C 22.55,37.95 22.81,37.86 23.04,37.75 C 24.29,37.16 41.2,27.1 42.25,26.5 C 42.86,26.16 43.32,25.82 43.65,24.82 C 43.67,24.5 43.67,24.09 43.56,23.07 C 43.37,21.42 43.19,20.04 43.13,19.45 C 43.1,19.15 43.01,18.85 42.85,18.55 L 42.84,18.56 z" id="p3817" style="fill:#cb7c2e;fill-opacity:0.2;stroke:none"/>
<path d="M 42.84,18.56 C 43.05,20.84 42.27,21.17 41.31,21.68 C 40.12,22.31 27.98,29.24 26.78,29.8 C 25.59,30.35 26.23,29.71 25.75,30.01 C 25.28,30.32 24.89,30.64 22.5,31.76 C 21.27,32.33 20.26,32.42 19.35,32.13 L 19.6,38.03 C 20.73,38.46 22.11,38.18 23.03,37.75 C 24.28,37.16 41.19,27.1 42.24,26.5 C 42.85,26.16 43.31,25.82 43.64,24.82 C 43.66,24.5 43.66,24.09 43.55,23.07 C 43.36,21.42 43.18,20.04 43.12,19.45 C 43.09,19.15 43,18.85 42.84,18.55 L 42.84,18.56 z" id="p3815" style="fill:#cb7c2e;fill-opacity:0.2;stroke:none"/>
<path d="M 4.25,13.28 C 3.7,14.11 3.49,15.26 3.63,16.18 C 3.82,17.5 4.03,17.93 4.09,18.93 C 4.15,19.92 4.09,20.12 4.15,20.58 C 4.15,20.61 4.17,20.64 4.18,20.67 C 5.45,22.42 6.47,23.51 6.74,23.88 C 7.07,24.34 7.12,24.45 7.52,25.31 C 7.92,26.2 9.31,29.12 9.31,29.12 L 13.71,34.33 C 13.71,34.33 15.84,34.12 16.3,34.64 C 16.76,35.16 17.29,35.9 18.48,37.29 C 19.66,38.67 21.75,38.35 23.01,37.75 C 24.26,37.16 41.17,27.1 42.22,26.5 C 42.83,26.16 43.29,25.82 43.62,24.82 C 43.64,24.5 43.64,24.09 43.53,23.07 C 43.34,21.42 43.16,20.04 43.1,19.45 C 43.07,19.15 42.98,18.85 42.82,18.55 C 43.03,20.83 42.25,21.16 41.29,21.67 C 40.1,22.3 27.96,29.23 26.76,29.79 C 25.57,30.34 26.21,29.7 25.73,30 C 25.26,30.31 24.87,30.63 22.48,31.75 C 20.1,32.86 18.59,32.15 16.92,30.41 C 15.26,28.68 6.03,18.12 4.68,16.53 C 3.68,15.34 3.59,14.99 4.25,13.28 z" id="p3751" style="fill:#dca214;fill-opacity:0.56;stroke:none;display:inline"/>
<path d="M 5.4,12.28 C 5.32,12.32 5.25,12.35 5.15,12.4 C 4.09,12.95 3.6,14.34 3.59,15.55 C 3.75,15.98 4.02,16.41 4.4,16.83 C 6.04,18.62 14.48,28.28 16.71,30.83 C 17.91,32.2 19.27,32.69 20.42,32.7 C 21.57,32.71 22.51,32.29 23.07,31.99 C 23.94,31.53 25.39,30.65 26,30.28 C 26.01,30.28 26.05,30.28 26.06,30.28 C 26.22,30.34 26.40,30.33 26.56,30.25 L 42.37,21.35 C 42.62,21.21 42.74,20.91 42.64,20.63 C 42.55,20.36 42.28,20.19 42,20.23 C 41.92,20.24 41.85,20.27 41.79,20.32 L 26.01,29.16 L 25.89,28.98 C 25.89,28.98 23.51,30.41 22.52,30.94 C 22.05,31.19 21.28,31.54 20.43,31.53 C 19.59,31.53 18.64,31.2 17.62,30.03 C 15.39,27.48 6.97,17.92 5.28,16.06 C 4.55,15.26 4.47,14.71 4.66,13.94 C 4.77,13.48 5.06,12.92 5.41,12.29 L 5.4,12.28 z" id="p3754" style="fill:#f0e67c;fill-opacity:0.43;stroke:none;marker:none;visibility:visible;display:inline;overflow:visible;enable-background:accumulate;"/>
<path d="M 17.45,19.49 C 13.49,15.1 9.62,10.8 9.62,10.8" id="p3852-9" style="fill:none;stroke:#9d7a19;stroke-width:0.30;stroke-linecap:round;stroke-linejoin:miter;stroke-miterlimit:4;stroke-dasharray:none;stroke-opacity:0.22;display:inline"/>
<path d="M 34.75,32.37 C 34.12,32.38 33.39,32.58 32.59,33 C 30.45,34.09 28.73,36.28 28.75,37.87 C 28.76,39.46 30.52,39.84 32.65,38.75 C 34.79,37.65 36.51,35.46 36.5,33.87 C 36.49,32.88 35.78,32.36 34.75,32.37 z" id="p3877" style="fill:#000000;fill-opacity:1;fill-rule:nonzero;stroke:#2a2a2a;stroke-width:0.19;marker:none;stroke-miterlimit:4;stroke-dasharray:none;stroke-opacity:1;visibility:visible;display:inline;overflow:visible;enable-background:accumulate"/>
<path d="M 34.34,32.68 C 33.79,32.69 33.14,32.85 32.43,33.21 C 30.56,34.18 29.04,36.10 29.06,37.5 C 29.07,38.89 30.62,39.25 32.5,38.28 C 34.37,37.31 35.89,35.39 35.87,34 C 35.86,33.12 35.25,32.67 34.34,32.68 z" id="p3877-5" style="fill:#1c1e1c;fill-opacity:1;fill-rule:nonzero;stroke:none;marker:none;visibility:visible;display:inline;overflow:visible;enable-background:accumulate"/>
<path d="M 7.03,12.87 C 6.01,12.97 5.24,13.64 5.31,14.37 C 5.38,15.10 6.27,15.62 7.28,15.53 C 8.29,15.43 9.06,14.76 9,14.03 C 8.93,13.30 8.03,12.77 7.03,12.87 z" id="p3914" style="fill:#85570f;fill-opacity:1;stroke:none;marker:none;visibility:visible;display:inline;overflow:visible;enable-background:accumulate"/>
<path d="M 7.09,13.03 C 6.17,13.11 5.47,13.74 5.53,14.40 C 5.59,15.06 6.40,15.52 7.31,15.43 C 8.23,15.35 8.90,14.75 8.84,14.09 C 8.78,13.43 8.00,12.94 7.09,13.03 z" id="p3914-8" style="fill:#cbb577;fill-opacity:1;stroke:none;marker:none;visibility:visible;display:inline;overflow:visible;enable-background:accumulate"/>
<path d="M 6.53,13.21 C 6.1,13.4 5.79,13.71 5.68,14.06 C 6.29,14.2 6.88,14.36 7.34,14.5 C 7.6,14.57 7.83,14.63 8,14.68 C 8.16,14.74 8.28,14.79 8.25,14.78 C 8.25,14.78 8.47,14.92 8.59,15 C 8.87,14.75 9.03,14.42 9,14.09 C 8.91,14.03 8.77,13.93 8.71,13.9 C 8.58,13.83 8.49,13.81 8.31,13.75 C 8.13,13.68 7.92,13.61 7.65,13.53 C 7.35,13.44 6.93,13.32 6.56,13.21 C 6.55,13.21 6.54,13.21 6.53,13.21 L 6.53,13.21 z" id="p4014" style="fill:#8d7339;fill-opacity:0.52;stroke:none;marker:none;visibility:visible;display:inline;overflow:visible;enable-background:accumulate;"/>
<path d="M 6.66,13.18 C 6,13.4 5.57,13.9 5.62,14.43 C 5.63,14.55 5.68,14.66 5.74,14.77 C 5.85,14.54 6.04,14.38 6.2,14.34 C 6.35,14.68 6.75,14.79 7.27,14.81 C 7.86,14.83 8.34,14.65 8.53,14.28 C 8.92,13.6 8.22,13.3 7.53,13.21 C 7.3,13.19 7.1,13.22 6.9,13.28 C 6.83,13.25 6.74,13.2 6.66,13.18 z" id="p3914-8-9" style="fill:#58482d;fill-opacity:0.55;stroke:none;marker:none;visibility:visible;display:inline;overflow:visible;enable-background:accumulate"/>
<path d="M 6.21,13.91 L 8.39,14.69" id="p4043" style="fill:none;stroke:#f7f0d7;stroke-width:0.40;stroke-linecap:round;stroke-linejoin:miter;stroke-miterlimit:4;stroke-dasharray:none;stroke-opacity:0.83;display:inline"/>
<path d="M 6.97,13.72 L 8.35,14.2" id="p4045" style="fill:none;stroke:#faf4da;stroke-width:0.30;stroke-linecap:round;stroke-linejoin:miter;stroke-miterlimit:4;stroke-dasharray:none;stroke-opacity:0.83;display:inline"/>
<path d="M 24.95,25.91 L 26.3,27.42 L 36.97,21.26 L 35.49,19.75 L 24.95,25.91 L 24.95,25.91 z" id="p4149" style="fill:#452d08;fill-opacity:1;stroke:none;display:inline"/>
<path d="M 25.29,25.94 L 26.3,27.14 L 36.66,21.25 L 35.52,20.03 L 25.29,25.95 L 25.29,25.94 z" id="p4152" style="fill:#ffffff;fill-opacity:0.95;stroke:none;display:inline"/>
<path d="M 27.67,24.84 L 28.47,25.75 L 36.35,21.16 L 35.44,20.28 L 27.67,24.84 L 27.67,24.84 z" id="p4155" style="fill:#2a2a2a;fill-opacity:0.95;stroke:none;display:inline"/>
<path d="M 27.15,25.65 L 26.61,26.01 L 27,26.45 L 27.57,26.09" id="p4158" style="fill:none;stroke:#090909;stroke-width:0.2;stroke-linecap:round;stroke-linejoin:round;stroke-miterlimit:4;stroke-dasharray:none;stroke-opacity:0.81;display:inline"/>
<path d="M 29.05,24.83 C 29.25,24.97 28.97,25.13 28.94,24.89 C 28.8,24.73 28.69,24.5 28.99,24.46 C 29.3,24.36 29.41,24.67 29.04,24.83 L 29.05,24.83 z M 29.01,24.76 C 29.29,24.75 29.02,24.4 28.94,24.65 C 28.95,24.69 28.99,24.71 29.01,24.76 z M 29.49,24.67 C 29.13,24.5 29.53,23.92 29.83,24.16 C 30.12,24.36 29.79,24.85 29.49,24.67 z M 29.54,24.25 C 29.19,24.5 29.96,24.77 29.8,24.33 C 29.76,24.24 29.63,24.18 29.54,24.25 z M 30.35,24.31 C 30.14,24.52 29.74,24.02 29.96,23.93 C 30.02,24.07 30.3,24.41 30.35,24.09 C 30.32,23.97 30.04,23.66 30.33,23.78 C 30.47,23.89 30.59,24.22 30.36,24.31 L 30.35,24.31 z M 30.66,23.84 C 30.86,23.96 30.66,24.23 30.58,23.94 C 30.47,23.78 30.32,23.61 30.58,23.53 C 30.65,23.5 30.85,23.33 30.79,23.51 C 30.7,23.54 30.46,23.75 30.68,23.71 C 30.84,23.56 30.96,23.74 30.73,23.79 C 30.71,23.8 30.69,23.81 30.67,23.82 L 30.66,23.84 z M 31.5,23.2 C 31.06,23.03 31.43,23.86 31.57,23.39 C 31.77,23.15 31.72,23.63 31.52,23.62 C 31.15,23.74 30.94,23.1 31.37,23.07 C 31.46,23.05 31.69,23.07 31.5,23.19 L 31.5,23.2 z M 31.82,23.28 C 31.46,23.11 31.86,22.53 32.16,22.77 C 32.45,22.97 32.12,23.46 31.82,23.28 L 31.82,23.28 z M 31.87,22.86 C 31.52,23.11 32.29,23.38 32.13,22.94 C 32.09,22.85 31.96,22.79 31.87,22.86 z M 32.78,22.85 C 32.65,22.79 32.51,22.73 32.37,22.67 C 32.43,22.77 32.49,22.88 32.56,22.99 C 32.37,23.11 32.27,22.74 32.2,22.61 C 32.27,22.38 32.79,22.88 32.6,22.55 C 32.42,22.41 32.67,22.27 32.71,22.49 C 32.74,22.62 33.02,22.8 32.78,22.86 L 32.78,22.85 z M 32.99,22.2 C 33.06,22.32 33.14,22.45 33.22,22.58 C 32.96,22.74 33,22.08 32.69,22.33 C 32.7,22.21 32.86,22.19 32.94,22.12 C 33.03,22 33.25,22.06 33.04,22.16 L 33.01,22.17 L 32.99,22.18 L 32.99,22.17 L 32.99,22.2 z M 33.72,22.19 C 33.64,21.99 33.36,22.27 33.56,22.36 C 33.43,22.55 33.34,22.19 33.25,22.09 C 33.08,21.91 33.5,21.79 33.64,21.81 C 33.74,21.91 33.69,22.04 33.85,22.1 C 33.95,22.24 33.81,22.26 33.73,22.18 L 33.72,22.19 z M 33.64,21.9 C 33.43,21.74 33.35,22.24 33.6,22 C 33.62,21.98 33.67,21.94 33.64,21.9 z M 33.99,21.99 C 33.63,21.82 34.03,21.24 34.33,21.48 C 34.62,21.68 34.29,22.17 33.99,21.99 z M 34.04,21.57 C 33.69,21.82 34.46,22.09 34.3,21.65 C 34.26,21.56 34.13,21.5 34.04,21.57 z M 34.46,21.22 C 34.53,21.34 34.61,21.47 34.69,21.6 C 34.79,21.46 35.13,21.47 34.85,21.62 C 34.65,21.81 34.51,21.6 34.43,21.42 C 34.38,21.31 34.28,21.29 34.45,21.22 L 34.46,21.22 z M 35.31,20.92 C 35.21,20.92 34.84,21.1 35.12,21.06 C 35.38,20.91 35.62,21.28 35.3,21.4 C 35.16,21.5 34.89,21.27 35.2,21.31 C 35.44,21.28 35.22,21 35.09,21.2 C 34.67,21.26 35.12,20.57 35.32,20.91 L 35.32,20.91 C 35.32,20.91 35.31,20.90 35.31,20.90 L 35.31,20.92 z" id="text4217" style="fill:#ffffff;fill-opacity:1;stroke:#ffffff;stroke-width:0.1;stroke-linecap:round;stroke-linejoin:round;stroke-miterlimit:4;stroke-dasharray:none;stroke-opacity:1;display:inline;"/>
<path d="M 28.74,13.75 C 29.85,15.08 29.79,14.96 30.03,15.27 C 30.27,15.57 30.53,15.54 30.95,15.33 C 31.37,15.12 35.08,12.98 35.25,12.85 C 35.41,12.73 35.37,12.55 35.14,12.32 C 34.9,12.1 32.47,9.34 32.32,9.19 C 32.18,9.05 32,9.11 31.84,9.19 C 31.68,9.27 30.16,10.08 30.16,10.08 L 28.46,11.94 L 28.75,13.74 L 28.74,13.75 z" id="p4226" style="fill:#d0921b;fill-opacity:1;stroke:none;display:inline"/>
<path d="M 28.74,13.75 C 29.85,15.08 29.79,14.96 30.03,15.27 C 30.27,15.57 30.53,15.54 30.95,15.33 C 31.37,15.12 34.91,13.14 35.07,13.01 C 35.23,12.89 35.19,12.71 34.96,12.48 C 34.72,12.26 32.38,9.66 32.24,9.51 C 32.1,9.37 31.92,9.43 31.76,9.51 C 31.6,9.59 30.26,10.24 30.26,10.24 L 28.46,11.94 L 28.75,13.74 L 28.74,13.75 z" id="p4226-0" style="fill:#000000;fill-opacity:1;stroke:none;display:inline"/>
<path d="M 33.25,10.62 C 30.95,10.72 29.13,12.01 29.13,13.62 C 29.13,13.87 29.19,14.13 29.28,14.37 C 29.51,14.64 29.88,15.09 30.03,15.27 C 30.27,15.57 30.54,15.54 30.96,15.33 C 31.38,15.12 34.92,13.15 35.08,13.02 C 35.25,12.9 35.21,12.72 34.96,12.5 C 34.81,12.35 33.99,11.44 33.25,10.62 z" id="p4226-0-6" style="fill:#fd4028;fill-opacity:0.33;stroke:none;display:inline"/>
<path d="M 32.37,11.84 C 31.19,11.84 30.22,12.79 30.22,13.96 C 30.22,14.52 30.45,15.01 30.81,15.39 C 30.86,15.37 30.9,15.36 30.96,15.33 C 31.31,15.16 33.5,13.94 34.42,13.4 C 34.17,12.52 33.34,11.84 32.36,11.84 L 32.37,11.84 z" id="p4659" style="fill:#fd4028;fill-opacity:0.33;fill-rule:nonzero;stroke:none;marker:none;visibility:visible;display:inline;overflow:visible;enable-background:accumulate"/>
<path d="M 32.5,11.03 C 32.27,11.05 32.10,11.26 31.90,11.34 C 32.17,11.75 32.42,12.16 32.68,12.56 C 32.75,12.74 32.88,12.56 32.96,12.53 C 32.86,12.38 32.75,12.24 32.65,12.09 L 32.68,12.06 L 32.71,12.06 L 32.75,12.03 C 33.14,11.96 33.20,11.39 32.75,11.09 C 32.66,11.04 32.57,11.02 32.5,11.03 z M 32.56,11.34 C 32.82,11.33 32.87,11.90 32.53,11.87 C 32.42,11.67 32.13,11.44 32.43,11.37 C 32.48,11.34 32.52,11.34 32.56,11.34 z M 31.43,11.65 C 31.33,11.65 31.23,11.68 31.15,11.75 C 30.78,12.01 31.03,12.72 31.46,13.03 C 31.59,13.14 31.75,13.16 31.87,13.15 C 32.29,13.16 32.49,12.71 32.25,12.28 C 32.10,11.92 31.74,11.66 31.43,11.65 z M 31.53,11.90 C 31.92,11.94 32.35,12.73 31.93,12.87 C 31.52,12.99 31.01,12.16 31.37,11.93 C 31.42,11.90 31.47,11.90 31.53,11.90 z M 30.65,12.09 C 30.46,12.21 30.27,12.32 30.09,12.43 C 29.94,12.50 29.71,12.57 29.96,12.81 C 30.07,12.74 30.20,12.68 30.31,12.62 C 30.53,12.95 30.72,13.30 30.93,13.62 C 31.00,13.80 31.12,13.62 31.21,13.59 C 30.96,13.22 30.74,12.86 30.5,12.5 L 30.53,12.5 C 30.54,12.49 30.55,12.47 30.56,12.46 C 30.70,12.39 30.91,12.32 30.65,12.09 z M 29.46,12.78 C 29.40,12.79 29.36,12.81 29.31,12.84 C 29.01,12.94 29.00,13.46 29.37,13.65 C 29.68,13.85 29.97,13.36 30.21,13.78 C 30.24,14.18 29.82,13.96 29.62,13.96 C 29.41,14.28 30.17,14.40 30.28,14.18 C 30.62,14.05 30.45,13.36 30.03,13.31 C 29.80,13.26 29.49,13.64 29.34,13.25 C 29.39,12.83 29.80,13.26 29.96,13.03 C 29.84,12.81 29.64,12.75 29.46,12.78 z" id="p4257" style="fill:#ffffff;fill-opacity:0.93"/>
<path d="M 24.03,45.16 C 27.19,43.32 32.28,40.21 34.99,38.69 C 37.69,37.18 41.19,35.06 42.58,34.07 C 43.96,33.08 44.09,32.29 44.09,31.57 C 44.09,30.85 43.7,26.16 43.63,25.5 C 43.57,24.84 43.76,24.78 43.57,23.13 C 43.38,21.48 43.18,20.1 43.11,19.5 C 43.05,18.91 42.78,18.38 42.26,17.72 C 41.72,17.03 30.04,4.68 28.58,3.36 C 27.13,2.04 26.14,1.98 23.7,2.83 C 21.26,3.68 17.04,6.39 17.04,6.39 C 17.04,6.39 10.05,10.35 9.65,10.54 C 9.26,10.73 9.59,10.08 8.53,10.6 C 7.48,11.12 6.42,11.72 5.17,12.38 C 3.92,13.04 3.46,14.82 3.66,16.14 C 3.85,17.46 4.05,17.92 4.12,18.91 C 4.18,19.9 4.12,20.09 4.18,20.56 C 4.24,21.02 4.64,21.15 4.7,21.81 C 4.76,22.47 5.88,27.29 5.95,27.88 C 6.01,28.47 6.21,28.47 7,29.66 C 7.79,30.84 17.03,41.54 19.21,44.05 C 21.38,46.55 23.17,45.56 24.02,45.1 L 24.03,45.16 z" id="stroke01" style="fill:none;stroke:#000000;stroke-width:0.5;stroke-miterlimit:4;stroke-dasharray:none;stroke-opacity:1"/>
<path d="M 31.73,33.52 C 32.15,33.23 32.58,32.99 33.05,32.80" id="p3902" style="fill:none;stroke:#929292;stroke-width:0.2;stroke-linecap:round;stroke-linejoin:miter;stroke-miterlimit:4;stroke-dasharray:none;stroke-opacity:0.63"/>
<path d="M 31.88,38.44 C 32.6,38.14 32.86,37.89 33.19,37.7" id="p3906" style="fill:none;stroke:#9b9b9b;stroke-width:0.2;stroke-linecap:round;stroke-linejoin:miter;stroke-miterlimit:4;stroke-dasharray:none;stroke-opacity:0.37"/>
<path d="M 31.90,33.40 C 32.32,33.11 32.41,33.08 32.75,32.93" id="p3908" style="fill:none;stroke:#7d7d7d;stroke-width:0.2;stroke-linecap:round;stroke-linejoin:miter;stroke-miterlimit:4;stroke-dasharray:none;stroke-opacity:0.47"/>
<path d="M 34.67,37.01 C 34.99,36.67 35.20,36.42 35.42,36.16" id="path39" style="fill:none;stroke:#7d7d7d;stroke-width:0.2;stroke-linecap:round;stroke-linejoin:miter;stroke-miterlimit:4;stroke-dasharray:none;stroke-opacity:0.48"/>
<path d="M 18.32,31.48 C 19.46,32.56 20.55,32.32 21.03,32.2" id="p3910" style="fill:none;stroke:#f2efb0;stroke-width:0.88;stroke-linecap:round;stroke-linejoin:miter;stroke-miterlimit:4;stroke-dasharray:none;stroke-opacity:0.75"/>
<path d="M 27.11,29.06 L 40.86,21.35" id="p3912" style="fill:none;stroke:#f5f5af;stroke-width:1px;stroke-linecap:round;stroke-linejoin:miter;stroke-opacity:0.41"/>
<path d="M 22.5,29.31 C 22.57,30.04 21.8,30.71 20.78,30.81 C 19.76,30.9 18.87,30.4 18.8,29.66 C 18.73,28.93 19.5,28.26 20.52,28.16 C 21.54,28.07 22.43,28.57 22.5,29.31 z" id="p3914-2" style="fill:#85570f;fill-opacity:1;stroke:none;marker:none;visibility:visible;display:inline;overflow:visible;enable-background:accumulate"/>
<path d="M 22.4,29.35 C 22.46,30.01 21.77,30.62 20.84,30.71 C 19.92,30.79 19.11,30.34 19.05,29.67 C 18.99,29.01 19.68,28.4 20.61,28.31 C 21.53,28.23 22.34,28.68 22.4,29.35 z" id="p3914-8-4" style="fill:#cbb577;fill-opacity:1;stroke:none;marker:none;visibility:visible;display:inline;overflow:visible;enable-background:accumulate"/>
<path d="M 19.94,28.47 C 19.52,28.65 19.21,28.96 19.1,29.31 C 19.71,29.45 20.29,29.6 20.75,29.74 C 21,29.81 21.24,29.87 21.4,29.92 C 21.56,29.97 21.68,30.03 21.65,30.01 C 21.65,30.01 21.87,30.15 21.99,30.22 C 22.27,29.98 22.42,29.65 22.39,29.32 C 22.31,29.27 22.17,29.17 22.11,29.14 C 21.99,29.08 21.89,29.05 21.71,28.99 C 21.54,28.93 21.33,28.86 21.06,28.78 C 20.76,28.69 20.35,28.57 19.97,28.47 C 19.96,28.47 19.95,28.47 19.94,28.47 L 19.94,28.47 z" id="p4014-5" style="fill:#8d7339;fill-opacity:0.52;stroke:none;marker:none;visibility:visible;display:inline;overflow:visible;enable-background:accumulate;"/>
<path d="M 20.08,28.43 C 19.43,28.65 18.99,29.15 19.04,29.68 C 19.05,29.8 19.1,29.91 19.16,30.02 C 19.27,29.79 19.46,29.63 19.62,29.59 C 19.77,29.93 20.17,30.04 20.69,30.06 C 21.28,30.08 21.76,29.9 21.95,29.53 C 22.3,28.86 21.62,28.55 20.92,28.47 C 20.7,28.45 20.49,28.47 20.3,28.53 C 20.23,28.51 20.14,28.46 20.07,28.43 L 20.08,28.43 z" id="p3914-8-9-9" style="fill:#58482d;fill-opacity:0.55;stroke:none;marker:none;visibility:visible;display:inline;overflow:visible;enable-background:accumulate"/>
<path d="M 19.63,29.17 L 21.81,29.95" id="p4043-1" style="fill:none;stroke:#f7f0d7;stroke-width:0.40;stroke-linecap:round;stroke-linejoin:miter;stroke-miterlimit:4;stroke-dasharray:none;stroke-opacity:0.83;display:inline"/>
<path d="M 20.39,28.98 L 21.76,29.45" id="p4045-5" style="fill:none;stroke:#faf4da;stroke-width:0.30;stroke-linecap:round;stroke-linejoin:miter;stroke-miterlimit:4;stroke-dasharray:none;stroke-opacity:0.83;display:inline"/>
<path d="M 41.16,18.99 C 41.23,19.72 40.46,20.39 39.44,20.49 C 38.42,20.58 37.53,20.08 37.46,19.34 C 37.39,18.61 38.16,17.94 39.18,17.84 C 40.2,17.75 41.09,18.25 41.16,18.99 z" id="p3914-20" style="fill:#85570f;fill-opacity:1;stroke:none;marker:none;visibility:visible;display:inline;overflow:visible;enable-background:accumulate"/>
<path d="M 41.07,19.03 C 41.13,19.69 40.44,20.3 39.51,20.39 C 38.59,20.47 37.78,20.02 37.72,19.35 C 37.66,18.69 38.35,18.08 39.28,17.99 C 40.2,17.91 41.01,18.36 41.07,19.03 z" id="p3914-8-3" style="fill:#cbb577;fill-opacity:1;stroke:none;marker:none;visibility:visible;display:inline;overflow:visible;enable-background:accumulate"/>
<path d="M 38.61,18.15 C 38.19,18.33 37.88,18.64 37.77,18.99 C 38.38,19.13 38.96,19.28 39.42,19.42 C 39.67,19.49 39.91,19.55 40.07,19.6 C 40.23,19.65 40.35,19.71 40.32,19.69 C 40.32,19.69 40.54,19.83 40.66,19.9 C 40.94,19.66 41.09,19.33 41.06,19 C 40.98,18.95 40.84,18.85 40.78,18.82 C 40.66,18.76 40.56,18.73 40.38,18.67 C 40.21,18.61 40,18.54 39.73,18.46 C 39.43,18.37 39.02,18.25 38.64,18.15 C 38.63,18.15 38.62,18.15 38.61,18.15 L 38.61,18.15 z" id="p4014-3" style="fill:#8d7339;fill-opacity:0.52;stroke:none;marker:none;visibility:visible;display:inline;overflow:visible;enable-background:accumulate;"/>
<path d="M 38.74,18.11 C 38.09,18.33 37.65,18.83 37.7,19.36 C 37.71,19.48 37.76,19.59 37.82,19.7 C 37.93,19.47 38.12,19.31 38.28,19.27 C 38.43,19.61 38.83,19.72 39.35,19.74 C 39.94,19.76 40.42,19.58 40.61,19.21 C 40.96,18.54 40.28,18.23 39.58,18.15 C 39.36,18.13 39.15,18.15 38.96,18.21 C 38.89,18.19 38.8,18.14 38.73,18.11 L 38.74,18.11 z" id="p3914-8-9-3" style="fill:#58482d;fill-opacity:0.55;stroke:none;marker:none;visibility:visible;display:inline;overflow:visible;enable-background:accumulate"/>
<path d="M 39.25,18 C 39.05,18.02 38.84,18.08 38.66,18.15 C 38.68,18.4 38.75,18.95 38.91,19.18 C 39.1,19.45 39.23,19.54 39.28,19.77 C 39.31,19.93 39.38,20.18 39.43,20.39 C 39.45,20.39 39.47,20.39 39.49,20.39 C 39.68,20.38 39.88,20.33 40.05,20.27 L 39.25,18 z" id="p4118" style="fill:#482f08;fill-opacity:0.58;stroke:none;display:inline"/>
<path d="M 38.96,18.12 L 39.18,18.88" id="p4145" style="fill:none;stroke:#f7edb2;stroke-width:0.60;stroke-linecap:butt;stroke-linejoin:miter;stroke-miterlimit:4;stroke-dasharray:none;stroke-opacity:0.21"/>
<path d="M 38.83,18.37 L 38.91,18.76" id="p4147" style="fill:none;stroke:#f2e19b;stroke-width:0.2;stroke-linecap:round;stroke-linejoin:miter;stroke-miterlimit:4;stroke-dasharray:none;stroke-opacity:0.75"/>
<path d="M 29.82,16.41 C 29.82,19.05 26.97,21.47 23.46,21.8 C 19.94,22.14 17.09,20.27 17.09,17.62 C 17.09,16.3 16.47,13.06 17.61,12.09 C 18.76,11.12 22.49,11.6 24.25,11.43 C 27.76,11.1 29.81,13.77 29.81,16.41 L 29.82,16.41 z" id="p4333" style="fill:#3f3226;fill-opacity:1;fill-rule:nonzero;stroke:none;marker:none;visibility:visible;display:inline;overflow:visible;enable-background:accumulate"/>
<path d="M 29.46,14.5 L 29.34,14.53 C 29.39,14.75 29.43,14.98 29.46,15.21 C 29.22,17.65 26.63,19.83 23.4,20.14 C 20.3,20.44 17.72,18.96 17.31,16.71 L 16.96,16.37 C 16.97,16.47 17,16.6 17,16.68 C 17,19.32 19.88,21.17 23.43,20.83 C 26.81,20.51 29.55,18.3 29.8,15.8 C 29.76,15.36 29.63,14.92 29.46,14.5 z" id="p4333-2" style="fill:#1c1611;fill-opacity:1;fill-rule:nonzero;stroke:none;marker:none;visibility:visible;display:inline;overflow:visible;enable-background:accumulate"/>
<path d="M 29.88,16.39 C 29.88,19.03 27.01,21.46 23.46,21.8 C 19.92,22.13 17.04,20.27 17.04,17.62 C 17.04,16.3 16.41,13.06 17.56,12.09 C 18.72,11.12 22.48,11.59 24.25,11.42 C 27.79,11.09 29.87,13.75 29.87,16.4 L 29.88,16.39 z" id="p4333-5" style="fill:none;stroke:#0a0a0a;stroke-width:0.30;marker:none;stroke-miterlimit:4;stroke-dasharray:none;stroke-opacity:1;visibility:visible;display:inline;overflow:visible;enable-background:accumulate"/>
<path d="M 26.45,30.98 C 26.32,30.24 26.7,29.49 25.89,28.75 C 25.08,28 9.62,10.8 9.62,10.8" id="p3852" style="fill:none;stroke:#ddad27;stroke-width:0.30;stroke-linecap:butt;stroke-linejoin:miter;stroke-miterlimit:4;stroke-dasharray:none;stroke-opacity:1;display:inline"/>
<path d="M 22.26,3.76 C 21.67,3.78 21.08,3.85 20.48,3.97 C 15.7,4.98 12.72,8.86 13.86,12.62 C 14.26,13.94 15.35,15.41 16.52,16.2 C 16.54,16.42 16.52,16.67 16.58,16.89 C 17.43,19.73 20.88,21.16 24.5,20.39 C 27.71,19.71 29.85,17.37 29.66,14.66 C 31.21,13.16 31.81,11.02 31.18,8.93 C 30.19,5.64 26.39,3.54 22.25,3.75 L 22.26,3.76 z" id="p4284" style="fill:#d63131;fill-opacity:1;fill-rule:nonzero;stroke:none;marker:none;visibility:visible;display:inline;overflow:visible;enable-background:accumulate"/>
<path d="M 29.63,14.63 C 29.11,15.09 28.6,15.48 28.07,15.81 C 28.2,16.7 27.78,18.03 27.29,19.21 C 28.87,18.12 29.79,16.47 29.66,14.65 C 29.67,14.64 29.68,14.63 29.69,14.62 C 29.69,14.61 29.63,14.62 29.63,14.62 L 29.63,14.63 z M 16.29,16.03 C 16.36,16.08 16.43,16.16 16.5,16.21 C 16.52,16.43 16.5,16.66 16.56,16.89 C 17.12,18.76 18.81,19.99 20.93,20.42 C 20.52,19.45 20.21,18.23 20.53,17.3 C 18.93,17.11 17.42,16.68 16.53,16.15 C 16.45,16.13 16.37,16.06 16.28,16.03 L 16.29,16.03 z" id="p4541" style="fill:#de9a64;fill-opacity:0.23;stroke:none;display:inline"/>
<path d="M 22.26,3.76 C 21.67,3.78 21.08,3.85 20.48,3.97 C 18.01,4.49 16.02,5.79 14.83,7.43 C 14.15,8.72 14.07,9.87 14.55,11.21 C 15.38,13.5 17.4,15.92 22.61,15.86 C 27.81,15.81 30.72,12.4 30.95,9.99 C 31.01,9.34 30.9,8.55 30.7,7.75 C 30.7,7.74 30.68,7.74 30.67,7.72 C 29.21,5.14 25.88,3.58 22.27,3.76 L 22.26,3.76 z" id="p4544" style="fill:#de9a64;fill-opacity:0.23;stroke:none;display:inline"/>
<path d="M 17.22,14.58 C 18.73,15.41 20.45,15.86 22.59,15.81 C 24.77,15.76 26.11,15.31 27.9,14.08" id="p4547" style="fill:none;stroke:#dea371;stroke-width:0.88;stroke-linecap:round;stroke-linejoin:miter;stroke-miterlimit:4;stroke-dasharray:none;stroke-opacity:0.52;display:inline"/>
<path d="M 18.46,15.25 C 19.24,15.52 19.35,15.64 20.13,15.75" id="p4550" style="fill:none;stroke:#fae7cb;stroke-width:0.88;stroke-linecap:round;stroke-linejoin:miter;stroke-miterlimit:4;stroke-dasharray:none;stroke-opacity:0.51;display:inline"/>
<path d="M 25.84,15.2 C 26.28,14.98 26.84,14.7 26.84,14.7" id="p4553" style="fill:none;stroke:#f7e8b5;stroke-width:0.80;stroke-linecap:round;stroke-linejoin:miter;stroke-miterlimit:4;stroke-dasharray:none;stroke-opacity:0.54;display:inline"/>
<path d="M 22.26,3.76 C 21.67,3.78 21.08,3.85 20.48,3.97 C 15.7,4.98 12.72,8.86 13.86,12.62 C 14.26,13.94 15.35,15.41 16.52,16.2 C 16.54,16.42 16.52,16.67 16.58,16.89 C 17.43,19.73 20.88,21.16 24.5,20.39 C 27.71,19.71 29.85,17.37 29.66,14.66 C 31.21,13.16 31.81,11.02 31.18,8.93 C 30.19,5.64 26.39,3.54 22.25,3.75 L 22.26,3.76 z" id="stroke02" style="fill:none;stroke:#4a0808;stroke-width:0.5;marker:none;stroke-miterlimit:4;stroke-dasharray:none;stroke-opacity:1;visibility:visible;display:inline;overflow:visible;enable-background:accumulate"/>
<path d="M 16.55,16.15 C 17.94,16.98 20.91,17.66 23.32,17.38 C 25.72,17.11 27.68,16.38 29.64,14.64" id="p4518" style="fill:none;stroke:#4a0808;stroke-width:0.40;stroke-linecap:butt;stroke-linejoin:miter;marker:none;stroke-miterlimit:4;stroke-dasharray:none;stroke-dashoffset:0;stroke-opacity:1;visibility:visible;display:inline;overflow:visible;enable-background:accumulate"/>
</g>
</svg>
