<?xml version="1.0" encoding="UTF-8" standalone="no"?>
<svg xmlns:dc="http://purl.org/dc/elements/1.1/" xmlns:cc="http://creativecommons.org/ns#" xmlns:rdf="http://www.w3.org/1999/02/22-rdf-syntax-ns#" xmlns:svg="http://www.w3.org/2000/svg" xmlns="http://www.w3.org/2000/svg" width="100%" height="100%" id="diploma05" version="1.1" viewBox="0 0 48 48">
 <defs id="defs4138" />
 <g style="display:inline" id="layer2">
 <path id="path4200" d="m 4.668,8.462 c 6.127,6.711 27.866,32.243 30.638,36.036 0.437,-0.145 0.145,0.291 1.167,1.167 1.021,0.875 3.369,0.114 4.519,-0.783 1.858,-1.451 2.337,-4.031 1.316,-5.052 C 41.288,38.808 28.595,23.927 23.781,17.945 18.966,11.963 13.276,4.960 12.547,3.793 11.817,2.626 9.045,1.167 6.419,3.209 3.793,5.252 3.939,7.586 4.668,8.462 Z" style="fill:#f1ece8;stroke-width:0.400;stroke-linecap:butt;stroke-opacity:1" />
 <path id="path4396" d="M 6.146,3.455 C 5.282,4.194 4.750,4.959 4.476,5.675 l 33.455,39.072 2.615,0.437 c 0.126,-0.076 0.240,-0.155 0.349,-0.236 L 6.146,3.455 Z" style="fill:#ffffff;fill-opacity:0.478;stroke-width:0.5;stroke-linecap:butt;stroke-opacity:1" />
 <path id="path4202" d="m 40.505,39.529 c -0.384,0.009 -0.799,0.061 -1.246,0.140 -1.787,0.317 -3.142,2.017 -3.142,2.017 0,0 0.547,0.575 0.720,0.921 -0.386,2.339 -0.365,2.681 0.796,3.429 1.121,0.039 2.541,-0.517 3.359,-1.156 1.598,-1.248 2.168,-3.324 1.650,-4.533 -0.540,-0.624 -1.253,-0.842 -2.138,-0.820 z" style="fill:#decdba;stroke-width:0.1;stroke-linecap:butt;stroke-opacity:1" />
 <path id="path4281" d="m 40.505,39.529 c -0.384,0.009 -0.799,0.061 -1.246,0.140 -0.763,0.135 -1.438,0.523 -1.972,0.923 a 2.073,3.242 38.610 0 0 -0.789,1.544 c 0.129,0.160 0.270,0.332 0.339,0.470 -0.093,0.567 -0.160,1.008 -0.195,1.375 a 2.073,3.242 38.610 0 0 0.185,0.244 2.073,3.242 38.610 0 0 3.601,-0.939 2.073,3.242 38.610 0 0 0.853,-3.693 c -0.244,-0.045 -0.498,-0.073 -0.777,-0.066 z" style="fill:#9f7b3d;fill-opacity:0.232;stroke-width:0.1;stroke-linecap:butt;marker:none;" />
 <path id="ellipse4298" d="m 40.505,39.529 c -0.384,0.009 -0.799,0.061 -1.246,0.140 -0.029,0.005 -0.056,0.019 -0.085,0.025 -8.28e-4,-3.64e-4 -0.001,-0.001 -0.002,-0.002 -0.140,0.028 -0.273,0.077 -0.408,0.121 -0.047,0.016 -0.099,0.024 -0.146,0.042 -0.003,0.001 -0.006,0.002 -0.009,0.003 -0.040,0.014 -0.079,0.028 -0.119,0.044 -0.001,5.52e-4 -0.002,0.001 -0.003,0.002 -0.007,0.002 -0.015,0.004 -0.023,0.007 a 2.325,3.636 38.610 0 0 -0.007,0.005 c -0.014,0.006 -0.028,0.015 -0.042,0.021 -0.325,0.139 -0.629,0.309 -0.900,0.494 -0.259,0.176 -0.464,0.344 -0.660,0.517 -0.143,0.125 -0.243,0.224 -0.347,0.328 -0.081,0.081 -0.147,0.137 -0.201,0.197 -0.002,0.003 -0.009,0.008 -0.011,0.011 -0.084,0.094 -0.171,0.195 -0.171,0.195 0,0 0.334,0.374 0.562,0.703 0.052,0.074 0.126,0.154 0.158,0.218 -0.134,0.816 -0.216,1.380 -0.220,1.812 a 2.325,3.636 38.610 0 0 0.355,0.562 2.325,3.636 38.610 0 0 4.039,-1.054 2.325,3.636 38.610 0 0 0.996,-4.076 C 41.577,39.618 41.082,39.515 40.505,39.529 Z" style="fill:#ab6631;fill-opacity:0.276;stroke-width:0.1;stroke-linecap:butt;marker:none;" />
 <path id="path4207" d="m 40.505,39.529 c -0.384,0.009 -0.799,0.061 -1.246,0.140 -0.030,0.005 -0.057,0.017 -0.087,0.023 -0.009,0.001 -0.017,0.005 -0.027,0.007 -0.207,0.044 -0.409,0.103 -0.603,0.179 -0.611,0.238 -1.140,0.600 -1.550,0.943 -0.274,0.229 -0.491,0.442 -0.640,0.601 -0.144,0.154 -0.232,0.261 -0.232,0.261 0,0 0.547,0.575 0.720,0.921 -0.132,0.802 -0.211,1.359 -0.218,1.789 a 2.853,3.729 57.734 0 0 2.468,-0.710 2.853,3.729 57.734 0 0 1.771,-4.140 c -0.117,-0.006 -0.229,-0.020 -0.353,-0.017 z" style="fill:#bd8516;fill-opacity:0.276;stroke-width:0.1;stroke-linecap:butt;marker:none;" />
 <path id="path4211" d="m 35.914,41.925 c -0.401,0.521 -0.798,1.167 -0.343,2.626 0.079,0.094 0.153,0.277 0.380,0.570 -0.248,-0.717 -0.341,-1.476 -0.363,-1.689 -0.040,-0.407 0.285,-0.977 0.326,-1.507 z" style="fill:#583f13;fill-opacity:0.613;stroke-width:0.1;stroke-linecap:butt;" />
 <path id="path4213" d="m 19.207,12.261 c 1.414,2.945 3.122,6.400 4.273,8.222 1.956,3.098 9.702,14.919 11.169,16.998 2.765,-0.683 4.189,-0.702 6.005,0.468 -3.534,-4.044 -12.811,-14.957 -16.875,-20.005 -1.540,-1.914 -3.045,-3.785 -4.574,-5.683 z" style="fill:#836532;fill-opacity:0.361;stroke-width:0.1;stroke-linecap:butt;stroke-opacity:1" />
 <path id="path4215" d="m 19.742,12.925 c 1.133,2.631 3.615,7.232 3.615,7.232 0,0 8.724,12.636 10.599,15.408 1.599,0.261 4.566,0.951 6.550,2.216 C 36.835,33.569 27.777,22.909 23.781,17.945 22.420,16.255 21.110,14.624 19.742,12.925 Z" style="fill:#f1ece8;stroke:#463a28;stroke-width:0.300;stroke-linecap:butt;" />
 <path id="path4399" d="m 22.406,20.960 c -0.497,0.026 -1.099,0.340 -1.675,0.968 -0.828,0.903 -1.266,2.505 -1.064,3.804 0.635,0.745 1.203,1.401 1.833,2.142 -1.209,-2.052 -0.080,-3.768 1.953,-6.156 -0.157,-0.523 -0.549,-0.785 -1.046,-0.759 z" style="fill:#c21c30;stroke-width:1px;stroke-linecap:butt;stroke-opacity:1" />
 <path id="path4421" d="m 19.896,23.937 c -0.051,-0.003 -0.102,0.022 -0.152,0.046 -0.127,0.586 -0.164,1.195 -0.078,1.75 0.635,0.745 1.203,1.401 1.833,2.142 C 20.899,26.857 20.876,25.920 21.253,24.943 20.489,25.574 20.686,24.756 20.312,24.232 20.181,24.049 20.037,23.945 19.896,23.937 Z" style="fill:#f1c2bf;fill-opacity:0.214;stroke-width:1px;stroke-linecap:butt;stroke-opacity:1" />
 <path id="path4423" d="m 21.359,23.290 0.837,-0.942" style="fill:none;stroke:#f2f2f2;stroke-width:0.800;stroke-linecap:butt;stroke-opacity:0.245" />
 <path id="path4200-4" d="m 4.668,8.462 c 6.127,6.711 27.866,32.243 30.638,36.036 0.437,-0.145 0.145,0.291 1.167,1.167 1.021,0.875 3.369,0.114 4.519,-0.783 1.858,-1.451 2.337,-4.031 1.316,-5.052 C 41.288,38.808 28.595,23.927 23.781,17.945 18.966,11.963 13.276,4.960 12.547,3.793 11.817,2.626 9.045,1.167 6.419,3.209 3.793,5.252 3.939,7.586 4.668,8.462 Z" style="fill:none;stroke:#463a28;stroke-width:0.5;stroke-linecap:butt;stroke-opacity:1" />
 <path id="path4446" d="m 9.550,21.495 c 0,0 1.924,1.110 2.221,1.184 4.145,0.222 8.514,0 11.179,-1.184 0.370,0.148 0.814,0.444 1.036,-0.296 2.221,1.776 2.221,0.888 4.294,2.147 2.072,1.258 4.664,2.221 4.664,2.221 l 0.444,-2.072 c 0,0 -3.109,-0.444 -4.812,-1.628 4.071,-0.148 7.033,-1.110 7.625,-1.332 0.074,-0.962 -0.074,-2.443 -0.222,-2.813 -5.478,-0.666 -9.920,1.036 -12.215,1.924 -0.370,-0.296 -1.184,-0.222 -1.184,-0.222 0,0 -1.406,-1.406 -2.072,-1.480 -0.666,-0.074 -8.069,-1.036 -7.995,1.110 0.074,2.147 -0.148,2.369 1.850,2.887 -2.295,-0.074 -3.849,-0.222 -4.812,-0.444 z" style="fill:#bb162a;stroke-width:1px;stroke-linecap:butt;stroke-opacity:1" />
 <path id="path4613" d="m 16.232,17.664 c -0.657,0.006 -1.298,0.049 -1.863,0.140 -0.258,0.855 -0.607,1.831 -0.607,2.082 0.486,0.104 0.694,0.173 1.111,0.103 0.277,-0.046 0.700,-1.550 2.187,-2.308 -0.276,-0.007 -0.550,-0.020 -0.828,-0.017 z" style="fill:#f1c2bf;fill-opacity:0.214;stroke-width:1px;stroke-linecap:butt;" />
 <path id="path4451" d="m 9.550,21.496 c 0,0 1.924,1.109 2.220,1.183 2.353,0.126 4.767,0.100 6.912,-0.154 -0.161,-0.146 -0.378,-0.281 -0.675,-0.281 -0.680,0 -3.454,-0.262 -3.664,-0.367 -0.037,-0.018 -0.356,-0.073 -0.642,-0.125 0.188,0.061 0.406,0.121 0.662,0.187 -2.295,-0.074 -3.850,-0.221 -4.812,-0.443 z" style="fill:#f1c2bf;fill-opacity:0.214;stroke-width:1px;stroke-linecap:butt;" />
 <path id="path4453" d="m 21.620,21.562 1.204,-0.523" style="fill:none;stroke:#f2f2f2;stroke-width:0.800;stroke-linecap:butt;stroke-opacity:0.245;" />
 <path id="path4455" d="m 15.966,20.097 c 1.465,0.994 2.879,1.832 6.334,0.418 -0.994,-0.261 -2.669,-0.942 -3.036,-1.413 -0.366,0 -0.994,0.104 -0.994,0.104 0,0 0.942,0.942 1.413,1.099 -0.994,0.366 -1.989,-0.104 -2.460,-0.680 -0.680,0.261 -1.256,0.471 -1.256,0.471 z" style="fill:#ed7f77;fill-opacity:0.404;stroke-width:1px;stroke-linecap:butt;" />
 <path id="path4457" d="m 12.611,18.646 c -0.064,0.122 -0.104,0.254 -0.099,0.406 0.062,1.807 -0.068,2.250 1.076,2.654 l 0.177,0.064 c 5.29e-4,1.67e-4 0.001,-1.66e-4 0.002,0 -0.157,-0.314 -0.418,-1.674 0.052,-1.726 -0.903,-0.150 -1.173,-0.801 -1.208,-1.398 z" style="fill:#f1c2bf;fill-opacity:0.214;stroke-width:1px;stroke-linecap:butt;" />
 <path id="path4459" d="m 14.239,19.940 c 0,0 1.047,-1.727 1.099,-2.251" style="fill:none;stroke:#f18989;stroke-width:0.800;stroke-linecap:butt;stroke-opacity:0.153;" />
 <path id="path4461" d="m 21.306,19.154 1.361,0.628" style="fill:none;stroke:#f2f2f2;stroke-width:0.800;stroke-linecap:butt;stroke-opacity:0.245;" />
 <path id="path4463" d="m 25.547,19.259 c 1.570,-0.314 4.711,-0.837 6.282,-0.680" style="fill:none;stroke:#f2f2f2;stroke-width:0.800;stroke-linecap:butt;stroke-opacity:0.245;" />
 <path id="path4746" d="m 33.998,18.896 c -1.268,0.144 -1.994,0.181 -2.429,0.326 0,0 0.282,0.934 -0.646,2.457 1.184,-0.138 2.186,-0.324 3.021,-0.515 -0.218,-0.615 -0.417,-1.525 0.054,-2.267 z" style="fill:#f1c2bf;fill-opacity:0.147;stroke-width:1px;stroke-linecap:butt;" />
 <path id="path4465" d="m 33.451,18.945 c -0.523,0.104 -0.941,0.105 -0.941,0.105 -0.257,0.600 -0.808,1.833 -1.007,2.560 0.759,-0.103 1.443,-0.227 2.046,-0.355 -0.205,-0.887 -0.437,-2.140 -0.097,-2.310 z" style="fill:#f1c2bf;fill-opacity:0.159;stroke-width:1px;stroke-linecap:butt;" />
 <path id="path4467" d="m 23.871,20.253 0.380,1.142 c 0.669,0.510 1.139,0.779 1.521,0.929 0.191,-0.176 0.349,-0.345 0.349,-0.449 0,-0.314 -0.524,-0.890 -2.251,-1.623 z" style="fill:#f1c2bf;fill-opacity:0.214;stroke-width:1px;stroke-linecap:butt;" />
 <path id="path4469" d="m 25.941,20.242 c -0.076,-0.016 -0.139,-0.014 -0.185,0.011 1.165,1.062 1.897,2.141 2.224,2.925 0.101,0.056 0.187,0.097 0.300,0.166 2.072,1.258 4.664,2.222 4.664,2.222 l 0.445,-2.074 c 0,0 -3.109,-0.444 -4.812,-1.628 0.022,-8.34e-4 0.043,-0.003 0.066,-0.003 -0.099,-0.041 -0.130,-0.044 -0.322,-0.140 -0.641,-0.320 -1.844,-1.363 -2.380,-1.478 z" style="fill:#f1c2bf;fill-opacity:0.214;stroke-width:1px;stroke-linecap:butt;" />
 <path id="path4581" d="m 22.756,20.986 c -1.725,0.734 -3.523,1.247 -4.881,1.358 -1.358,0.110 -6.313,0 -6.790,-0.110" style="fill:none;stroke:#f2f2f2;stroke-width:0.800;stroke-linecap:butt;stroke-opacity:0.245;" />
 <path id="path4588" d="m 14.791,20.288 c 1.174,0 4.037,-1.431 5.101,-1.174 1.027,0.256 1.908,0.587 2.532,1.027" style="fill:none;stroke:#e86060;stroke-width:0.300;stroke-linecap:butt;stroke-opacity:0.306;" />
 <path id="path4595" d="m 21.126,20.541 c -1.297,0.103 -2.595,0.622 -3.529,-0.051" style="fill:none;stroke:#f2f2f2;stroke-width:0.600;stroke-linecap:round;stroke-opacity:0.104;" />
 <path id="path4632" d="m 20.591,19.612 c 0.959,0.439 1.439,0.519 1.719,0.799" style="fill:none;stroke:#9d1515;stroke-width:0.699;stroke-linecap:butt;stroke-opacity:0.717" />
 <path id="path4634" d="m 19.260,21.476 c 1.314,-0.164 2.892,-0.755 3.253,-0.920" style="fill:none;stroke:#9d1515;stroke-width:0.400;stroke-linecap:butt;stroke-opacity:0.717;" />
 <path id="path4650" d="m 22.652,20.200 c 0.471,-0.398 0.869,-0.253 0.978,0.108" style="fill:none;stroke:#f7c3c3;stroke-width:0.400;stroke-linecap:butt;stroke-opacity:0.423;" />
 <path id="path4681" d="m 22.797,20.526 c 0.217,0 0.434,0 0.289,0.906" style="fill:none;stroke:#7a1010;stroke-width:0.5;stroke-linecap:butt;stroke-opacity:0.717;" />
 <path id="path4697" d="m 23.921,20.200 c 0.724,-0.036 1.413,0 1.775,0.398" style="fill:none;stroke:#9d1515;stroke-width:0.699;stroke-linecap:butt;stroke-opacity:0.717;" />
 <path id="path4730" d="m 24.066,20.599 c 0.144,0.108 0.434,0.326 0.579,0.434" style="fill:none;stroke:#f2f2f2;stroke-width:0.5;stroke-linecap:butt;stroke-opacity:0.245;" />
 <path style="fill:none;stroke:#580606;stroke-width:0.5;stroke-linecap:butt;stroke-opacity:1" d="m 9.550,21.495 c 0,0 1.924,1.110 2.221,1.184 4.145,0.222 8.514,0 11.179,-1.184 0.370,0.148 0.814,0.444 1.036,-0.296 2.221,1.776 2.221,0.888 4.294,2.147 2.072,1.258 4.664,2.221 4.664,2.221 l 0.444,-2.072 c 0,0 -3.109,-0.444 -4.812,-1.628 4.071,-0.148 7.033,-1.110 7.625,-1.332 0.074,-0.962 -0.074,-2.443 -0.222,-2.813 -5.478,-0.666 -9.920,1.036 -12.215,1.924 -0.370,-0.296 -1.184,-0.222 -1.184,-0.222 0,0 -1.406,-1.406 -2.072,-1.480 -0.666,-0.074 -8.069,-1.036 -7.995,1.110 0.074,2.147 -0.148,2.369 1.850,2.887 -2.295,-0.074 -3.849,-0.222 -4.812,-0.444 z" id="path4448" />
 </g>
</svg>
