<?xml version="1.0" encoding="UTF-8" standalone="no"?>
<svg xmlns:dc="http://purl.org/dc/elements/1.1/" xmlns:cc="http://creativecommons.org/ns#" xmlns:rdf="http://www.w3.org/1999/02/22-rdf-syntax-ns#" xmlns:svg="http://www.w3.org/2000/svg" xmlns="http://www.w3.org/2000/svg" viewBox="0 0 48 48" version="1.1" id="diploma04" height="100%" width="100%">
 <defs id="defs4138" />
 <g style="display:inline" id="layer2">
 <path id="path4184" d="m 3.595,25.132 c -2.157,1.582 -1.869,4.889 -0.575,6.615 1.294,1.725 3.883,2.588 5.465,1.582 -0.431,0.719 -0.719,1.582 -0.719,1.582 0,0 6.923,-5.524 14.381,-9.923 5.608,-3.307 8.463,-5.206 9.204,-5.752 2.732,-2.013 -1.006,-8.341 -4.746,-6.615 C 23.375,14.111 7.622,22.975 3.595,25.132 Z" style="fill:#ddd7c5;stroke-width:0.5;stroke-linecap:butt;stroke-opacity:1" />
 <path id="path4353" d="M 30.388,13.357 C 24.981,15.702 7.541,24.702 4.904,26.558 c 0,0 0.113,7.184 1.482,7.070 C 7.648,33.523 28.840,19.231 32.267,16.916 32.165,15.658 31.439,14.275 30.388,13.357 Z" style="fill:#9a8a5a;fill-opacity:0.220;stroke-width:1px;stroke-linecap:butt;" />
 <path id="path4323" d="m 18.767,21.839 c -0.112,-0.018 -0.237,-0.011 -0.378,0.029 -2.258,0.645 -5.484,6.130 -10.968,10.001 L 6.328,33.710 c 0.780,0.112 1.543,0.009 2.156,-0.380 -0.431,0.719 -0.718,1.582 -0.718,1.582 0,0 5.291,-4.221 11.605,-8.222 0.279,-1.947 0.475,-4.667 -0.603,-4.849 z" style="fill:#b6a983;stroke-width:1px;stroke-linecap:butt;stroke-opacity:1" />
 <path id="path4482" d="m 16.501,18.025 c -0.191,0.105 -0.350,0.189 -0.542,0.294 -1.479,0.968 -2.703,2.178 -2.083,2.742 0.687,0.625 1.687,0.625 1.25,1.187 -0.437,0.562 -2.625,5.75 -7.5,7.812 -2.037,0.862 -2.582,2.116 -2.535,3.285 1.166,0.508 2.456,0.579 3.394,-0.017 -0.431,0.719 -0.718,1.582 -0.718,1.582 0,0 4.594,-3.652 10.312,-7.380 L 21.937,20.125 16.501,18.025 Z" style="fill:#72412d;fill-opacity:0.282;stroke-width:1px;stroke-linecap:butt;" />
 <path id="path4351" d="m 17.222,18.117 c -3.421,2.052 -4.790,2.852 -4.220,3.537 0.570,0.684 2.509,-0.798 2.851,0 0.342,0.798 -5.132,9.808 -8.326,9.808 -1.259,0 -1.786,0.942 -1.933,2.082 1.022,0.322 2.086,0.297 2.890,-0.214 -0.431,0.719 -0.718,1.582 -0.718,1.582 0,0 2.300,-1.825 5.630,-4.193 -0.022,-0.821 0.095,-1.669 0.517,-2.449 1.482,-2.737 5.589,-6.843 6.843,-6.044 1.254,0.798 -3.535,-4.107 -3.535,-4.107 z" style="fill:#ae6446;fill-opacity:0.263;stroke-width:1px;stroke-linecap:butt;" />
 <path id="path4503" d="M 3.742,25.778 C 5.867,24.530 17.093,18.432 17.093,18.432" style="fill:none;stroke:#f4f4f4;stroke-width:1px;stroke-linecap:butt;stroke-opacity:0.558" />
 <path id="path4398" d="m 17.222,18.574 c -2.509,0.798 -5.019,2.622 -4.791,3.306 0.228,0.684 3.535,-2.166 3.992,-1.824 0.456,0.342 -5.361,10.264 -8.554,10.492 -1.419,0.101 -1.732,1.556 -1.644,3.140 0.816,0.137 1.620,0.047 2.259,-0.359 -0.431,0.719 -0.718,1.582 -0.718,1.582 0,0 1.296,-1.006 3.080,-2.332 0.744,-2.433 2.663,-5.882 7.630,-8.531 8.554,-4.562 -1.253,-5.474 -1.253,-5.474 z" style="fill:#9a8a5a;fill-opacity:0.220;stroke-width:1px;stroke-linecap:butt;" />
 <path id="path4325" d="M 31.089,14.101 C 24.613,16.722 10.764,24.235 4.193,28.966 l -1.697,1.843 c 0.149,0.340 0.317,0.663 0.523,0.937 1.294,1.725 3.882,2.588 5.464,1.582 -0.431,0.719 -0.718,1.582 -0.718,1.582 0,0 6.924,-5.525 14.382,-9.923 5.608,-3.307 8.461,-5.205 9.203,-5.751 1.491,-1.098 1.049,-3.476 -0.261,-5.134 z" style="fill:#9a8a5a;fill-opacity:0.220;stroke-width:1px;stroke-linecap:butt;stroke-opacity:1" />
 <path id="path4462" d="m 17.5,18.812 c -0.625,2.312 -6.937,12.625 -9.125,13.062 -0.770,0.154 -1.449,0.923 -2.013,1.841 0.769,0.104 1.519,-0.002 2.123,-0.386 -0.431,0.719 -0.718,1.582 -0.718,1.582 0,0 1.697,-1.351 4.281,-3.228 C 13.393,28.655 16.255,22.914 19,22 22.75,20.75 17.5,18.812 17.5,18.812 Z" style="fill:#72412d;fill-opacity:0.233;stroke-width:1px;stroke-linecap:butt;stroke-opacity:1" />
 <path id="path4501" d="M 7.249,29.281 C 9.636,27.823 19.138,22.254 19.138,22.254" style="fill:none;stroke:#744826;stroke-width:5.199;stroke-linecap:butt;stroke-opacity:0.141" />
 <path id="path4245-0" d="m 3.974,25.392 c -0.361,0.018 -0.704,0.128 -1.019,0.345 -1.434,1.712 -1.082,4.480 0.064,6.009 1.239,1.652 3.657,2.495 5.25,1.681 C 9.771,31.894 9.005,29.193 7.652,27.527 6.698,26.352 5.243,25.327 3.974,25.392 Z" style="fill:#c09d41;stroke-width:0.5;stroke-linecap:butt;stroke-opacity:1" />
 <path id="path4311" d="M 4.458,25.417 A 3.722,3.683 0 0 0 3.683,27.662 3.722,3.683 0 0 0 7.406,31.345 3.722,3.683 0 0 0 9.064,30.958 C 8.981,29.749 8.420,28.473 7.652,27.527 6.818,26.500 5.600,25.587 4.458,25.417 Z" style="fill:#d9e435;fill-opacity:0.257;stroke-width:0.300;stroke-linecap:round;stroke-linejoin:round;marker:none;" />
 <path id="path4316" d="m 4.451,30.808 c 1.227,1.381 2.302,1.381 3.530,1.074" style="fill:none;stroke:#f7f7f7;stroke-width:3;stroke-linecap:butt;stroke-opacity:0.251" />
 <path id="path4318" d="m 9.083,31.228 c -1.036,0.812 -2.402,1.558 -4.064,2.080 1.098,0.492 2.314,0.599 3.25,0.121 0.586,-0.599 0.819,-1.377 0.814,-2.201 z" style="fill:#e1d27d;fill-opacity:0.570;stroke-width:1px;stroke-linecap:butt;stroke-opacity:1" />
 <path style="fill:none;stroke:#643f1c;stroke-width:0.5;stroke-linecap:butt;stroke-linejoin:round;stroke-opacity:1" d="m 3.595,25.132 c -2.157,1.582 -1.869,4.889 -0.575,6.615 1.294,1.725 3.883,2.588 5.465,1.582 -0.431,0.719 -0.719,1.582 -0.719,1.582 0,0 6.923,-5.524 14.381,-9.923 5.608,-3.307 8.463,-5.206 9.204,-5.752 2.732,-2.013 -1.006,-8.341 -4.746,-6.615 C 23.375,14.111 7.622,22.975 3.595,25.132 Z" id="stroke02" />
 <path id="path4280" d="m 8.992,30.844 c 0.063,0.829 -0.006,2.296 -0.637,2.518" style="fill:none;stroke:#643f1c;stroke-width:0.300;stroke-linecap:round;" />
 <path id="path4419" d="m 18.419,21.368 c -1.824,1.710 -3.592,3.877 -4.676,5.417" style="fill:none;stroke:#7c2626;stroke-width:1.399;stroke-linecap:round;stroke-opacity:0.110;" />
 <ellipse transform="matrix(0.975,-0.220,0.422,0.906,0,0)" ry="1.127" rx="3.354" cy="23.889" cx="7.917" id="path4507" style="fill:#862119;fill-opacity:0.343;stroke-width:5.199;stroke-linecap:butt;stroke-opacity:0.558;marker:none;" />
 <path style="fill:#d82731;stroke-width:0.5;stroke-linecap:butt;stroke-opacity:1" d="m 20.134,15.353 c 0.431,-1.150 1.150,-5.321 2.013,-5.608 1.725,0.575 5.608,2.732 6.184,3.164 -1.150,2.301 -3.020,5.033 -4.889,5.321 1.582,0.862 4.889,2.444 6.615,4.458 1.725,2.013 8.053,7.910 15.820,7.478 -1.869,0.575 -7.478,1.006 -8.772,0.719 2.876,1.725 3.883,3.595 3.883,3.595 0,0 -5.177,-2.588 -8.197,-3.020 -3.020,-0.431 -7.478,-3.595 -9.779,-5.896 -0.287,4.889 -2.732,8.341 -3.595,13.662 -1.294,-1.582 -2.732,-4.026 -3.020,-5.465 -1.869,1.294 -3.307,4.746 -6.184,6.184 2.013,-3.020 3.451,-9.348 4.602,-11.649 1.150,-2.301 3.020,-7.766 4.026,-8.485 -1.150,0.575 -2.301,-1.438 -2.876,-1.438 -0.575,0 -1.582,0.431 -2.588,1.150 0.287,-1.438 1.150,-2.588 1.869,-2.588 -2.013,0.431 -3.595,0.431 -4.026,0.862 -0.431,0.431 -1.294,-0.143 0,-1.294 1.294,-1.150 2.157,-2.732 3.451,-3.164 1.294,-0.431 3.020,0.575 4.602,2.444 0.575,0.143 0.862,-0.431 0.862,-0.431 z" id="path4211" />
 <path id="path4511" d="m 22.955,17.810 c 0.052,0.997 0.225,5.634 0.162,7.853 0.441,0.434 0.964,0.895 1.529,1.363 2.420,-0.089 6.847,-0.691 8.849,-1.197 -1.619,-1.230 -2.827,-2.431 -3.437,-3.142 -1.725,-2.013 -5.033,-3.594 -6.615,-4.457 0.316,-0.048 0.630,-0.188 0.943,-0.363 l -1.431,-0.056 z" style="fill:#6a1318;fill-opacity:0.460;stroke-width:1px;stroke-linecap:butt;" />
 <path id="path4513" d="m 23.025,19.939 c 0.066,1.821 0.135,4.030 0.095,5.636 3.099,0.397 8.332,-0.582 9.134,-0.738 -0.881,-0.756 -1.538,-1.421 -1.992,-1.929 -0.984,1.074 -4.299,-0.794 -7.238,-2.968 z" style="fill:#520f13;fill-opacity:0.460;stroke-width:1px;stroke-linecap:butt;" />
 <path id="path4518" d="m 39.511,29.166 c -0.831,1.318 -3.759,1.599 -7.162,2.210 0.149,0.032 0.298,0.063 0.441,0.083 0.671,0.095 1.453,0.309 2.257,0.566 1.630,-0.235 2.390,-0.369 3.054,-0.488 -0.304,-0.217 -0.636,-0.437 -0.998,-0.654 1.294,0.287 6.903,-0.143 8.773,-0.718 -2.273,0.126 -4.419,-0.297 -6.367,-1 z" style="fill:#dcb4b6;fill-opacity:0.202;stroke-width:1px;stroke-linecap:butt;stroke-opacity:1" />
 <path id="path4520" d="m 13.958,30.476 c -0.997,2.898 -2.202,7.150 -3.748,9.468 2.608,-1.304 4.036,-4.246 5.673,-5.751 -0.579,-1.473 -1.272,-2.899 -1.925,-3.716 z" style="fill:#6a1318;fill-opacity:0.460;stroke-width:1px;stroke-linecap:butt;stroke-opacity:1" />
 <path id="path4522" d="m 16.339,24.767 c -0.552,1.340 -1.094,2.663 -1.527,3.529 -0.116,0.233 -0.238,0.533 -0.361,0.841 0.505,1.287 1.146,2.867 1.894,4.664 0.016,-0.011 0.032,-0.029 0.048,-0.041 0.029,0.147 0.078,0.312 0.130,0.478 0.272,0.652 0.276,0.656 0.531,1.261 0.607,1.262 1.501,2.675 2.359,3.724 0.186,-1.149 0.453,-2.199 0.75,-3.207 -0.190,-0.326 -0.390,-0.646 -0.564,-0.976 -1.315,-2.499 3.156,-3.882 0.722,-4.408 -1.768,-0.382 -3.282,-3.940 -3.984,-5.867 z" style="fill:#c59783;fill-opacity:0.165;stroke-width:1px;stroke-linecap:butt;stroke-opacity:1" />
 <path id="path4524" d="m 16.082,33.259 c -0.029,0.230 -0.057,0.544 -0.082,0.839 0.131,-0.114 0.259,-0.244 0.394,-0.337 0.287,1.438 1.727,3.882 3.021,5.464 0.223,-1.378 0.554,-2.627 0.925,-3.812 -1.097,-0.725 -2.568,-1.471 -4.259,-2.154 z" style="fill:#dcb4b6;fill-opacity:0.202;stroke-width:1px;stroke-linecap:butt;stroke-opacity:1" />
 <path id="path4526" d="m 21.591,10.466 c -0.520,1.108 -0.954,3.106 -1.281,4.267 0.007,0.015 0.080,0.181 0.080,0.181 0,0 1.445,0.657 1.511,0.130 0.065,-0.526 0.460,-1.511 0.855,-1.511 0.394,0 2.170,-1.381 1.841,-2.302 -0.168,-0.470 -1.605,-0.697 -3.007,-0.765 z" style="fill:#520f13;fill-opacity:0.460;stroke-width:1px;stroke-linecap:butt;" />
 <path id="path4528" d="m 22.297,15.770 c 0.131,0.328 1.315,0.657 1.315,1.183 0.591,-0.263 2.038,-2.104 2.170,-2.367 0.131,-0.263 -1.118,-0.789 -3.486,1.183 z" style="fill:#520f13;fill-opacity:0.460;stroke-width:1px;stroke-linecap:butt;" />
 <path id="path4530" d="m 20.390,15.968 c -0.657,-0.131 -0.723,0.986 -0.789,1.380 -0.065,0.394 -0.725,1.68e-4 -0.988,-0.591 -0.263,-0.591 -2.367,-0.592 -3.025,-0.066 0.789,0 1.578,0.460 2.039,0.986 -0.323,0 -0.716,0.598 -0.853,1.255 0.589,0.549 1.319,1.252 2.066,0.878 -0.253,0.180 -0.561,0.662 -0.898,1.318 0.977,0.787 2.327,1.591 3.041,1.546 1.052,-0.065 0.854,-1.251 0.328,-2.171 -0.526,-0.920 -0.393,-2.564 -0.130,-3.617 0,0 -0.131,-0.788 -0.789,-0.919 z" style="fill:#520f13;fill-opacity:0.460;stroke-width:1px;stroke-linecap:butt;" />
 <path id="path4639" d="m 22.955,19.059 c 0.065,3.354 0.072,5.952 0.044,6.636" style="fill:none;stroke:#4e1616;stroke-width:0.5;stroke-linecap:butt;" />
 <path id="path4717" d="m 20.837,17.787 c -0.831,0.019 -2.124,0.855 -3.359,1.746 0.428,0.312 0.893,0.513 1.361,0.279 -1.006,0.719 -2.876,6.183 -4.027,8.484 -0.097,0.195 -0.200,0.455 -0.302,0.705 2.396,-0.790 3.479,-0.508 4.691,-1.347 1.485,-1.028 4.001,-6.057 3.886,-7.085 -0.114,-1.028 -0.457,-2.284 -1.943,-2.742 -0.092,-0.028 -0.195,-0.041 -0.306,-0.039 z" style="fill:#490e12;fill-opacity:0.196;stroke-width:1px;stroke-linecap:butt;stroke-opacity:0.558" />
 <path id="path4719" d="m 24.001,18.054 -1.027,0.228 0,6.628 0,1.080 c 0.012,-0.142 0.028,-0.282 0.037,-0.427 1.038,1.038 2.522,2.245 4.109,3.304 2.049,-0.548 5.001,-1.580 6.958,-2.601 -1.927,-1.379 -3.338,-2.783 -4.021,-3.580 -1.725,-2.013 -5.033,-3.594 -6.615,-4.457 0.191,-0.029 0.383,-0.090 0.574,-0.167 -1.01e-4,-4.2e-5 -0.015,-0.007 -0.015,-0.007 z" style="fill:#490e12;fill-opacity:0.196;stroke-width:1px;stroke-linecap:butt;stroke-opacity:1" />
 <path id="path4723" d="m 25.126,11.105 c 0.778,0.882 1.113,1.728 1.046,2.261 -0.063,0.510 0.267,1.393 0.601,2.154 0.594,-0.831 1.126,-1.752 1.556,-2.613 -0.328,-0.246 -1.735,-1.046 -3.205,-1.802 z" style="fill:#eda3a8;fill-opacity:0.196;stroke-width:1px;stroke-linecap:butt;stroke-opacity:1" />
 <path id="path4725" d="m 13.957,13.722 c -0.932,0.660 -1.696,1.855 -2.738,2.781 -1.294,1.150 -0.431,1.726 0,1.294 0.431,-0.431 2.011,-0.431 4.025,-0.863 -0.297,0 -0.618,0.204 -0.914,0.537 l 1.556,-0.675 c 0,0 -1.599,-1.142 -1.828,-1.599 -0.113,-0.227 -0.281,-0.877 -0.101,-1.474 z" style="fill:#5c1217;fill-opacity:0.196;stroke-width:1px;stroke-linecap:butt;stroke-opacity:1" />
 <path id="path4721" d="m 38.990,28.976 c -2.164,0.460 -5.253,0.507 -6.873,0.507 -1.170,0 -2.313,0.235 -3,0.597 1.299,0.701 2.580,1.222 3.673,1.378 1.504,0.214 3.542,0.965 5.210,1.664 0.527,-0.181 0.955,-0.400 1.285,-0.623 -0.563,-0.512 -1.269,-1.069 -2.181,-1.617 1.125,0.250 5.506,-0.043 7.861,-0.501 l 0.806,-0.216 c -2.437,0.117 -4.731,-0.382 -6.783,-1.189 z" style="fill:#eda3a8;fill-opacity:0.196;stroke-width:1px;stroke-linecap:butt;stroke-opacity:1" />
 <path id="path4753" d="m 24.003,16.924 c 0.282,-0.040 0.929,-0.444 1.131,-0.686" style="fill:none;stroke:#f09191;stroke-width:0.800;stroke-linecap:butt;stroke-opacity:0.558;" />
 <path id="path4755" d="m 17.699,16.116 c 0.525,0.080 1.010,0.202 1.091,0.484" style="fill:none;stroke:#f09191;stroke-width:0.800;stroke-linecap:butt;stroke-opacity:0.558" />
 <path id="path4757" d="m 20.528,15.671 c 0.525,0 1.697,0.606 2.101,1.373" style="fill:none;stroke:#551212;stroke-width:0.5;stroke-linecap:butt;stroke-opacity:1" />
 <path id="path4759" d="m 19.841,16.318 c 0.565,0.161 1.131,0.242 1.333,0.484 -0.404,0.282 0,1.131 -0.202,1.616 -0.202,0.484 -0.646,0.565 -0.484,1.333" style="fill:none;stroke:#551212;stroke-width:0.800;stroke-linecap:butt;stroke-linejoin:round;stroke-opacity:0.662;" />
 <path id="path4761" d="m 17.457,18.217 c 0.161,-0.040 0.565,0 0.565,0" style="fill:none;stroke:#551212;stroke-width:0.899;stroke-linecap:butt;stroke-linejoin:round;" />
 <path id="path4855" d="m 16.992,16.373 c -0.559,0.005 -1.190,0.219 -1.792,0.570 -7.75e-4,4.51e-4 -0.001,0.001 -0.002,0.002 -0.391,0.228 -0.772,0.515 -1.111,0.839 -0.313,0.458 -0.576,1.064 -0.710,1.738 1.006,-0.719 2.012,-1.150 2.587,-1.150 0.565,0 1.687,1.940 2.818,1.460 0.939,-1.416 1.702,-3.040 1.380,-3.201 -0.478,-0.239 -0.814,0.669 -0.814,0.669 0,0 -0.479,-0.478 -1.820,-0.861 -0.167,-0.047 -0.347,-0.070 -0.535,-0.068 z m 1.722,3.558 c -0.132,0.134 -0.281,0.358 -0.435,0.613 0.148,-0.196 0.291,-0.399 0.435,-0.613 z" style="fill:#410d10;fill-opacity:0.294;stroke-width:1px;stroke-linecap:butt;stroke-opacity:1" />
 <path id="path4857" d="m 21.550,15.243 c 0.862,-0.526 1.197,-1.101 1.245,-1.580 0.047,-0.478 0.862,-0.191 1.484,-0.766" style="fill:none;stroke:#e66060;stroke-width:0.5;stroke-linecap:butt;stroke-opacity:0.466" />
 <path id="path4859" d="m 13.140,14.445 c -0.606,0.637 -1.196,1.413 -1.921,2.058 -1.294,1.150 -0.431,1.726 0,1.294 0.296,-0.296 1.157,-0.393 2.304,-0.562 3.513,-2.447 5.441,-0.939 5.441,-0.939 0,0 0.525,0.288 0.333,-0.238 -0.191,-0.526 -3.015,-1.437 -4.212,-0.958 -0.973,0.389 -1.870,0.105 -1.945,-0.654 z" style="fill:#410d10;fill-opacity:0.294;stroke-width:1px;stroke-linecap:butt;stroke-opacity:1" />
 <path id="path4909" d="m 20.007,15.611 c -0.069,0.010 -0.130,0.034 -0.177,0.070 -0.110,0.441 0.001,2.441 -1.144,4.187 0.051,-0.015 0.102,-0.030 0.154,-0.056 -0.612,0.437 -1.538,2.623 -2.433,4.792 2.453,-0.412 5.769,0.503 6.521,-0.726 0.143,-1.716 0.048,-3.956 0.048,-4.814 0,-0.858 0.570,-1.953 -0.525,-2.525 -0.959,-0.500 -1.953,-1.002 -2.443,-0.927 z" style="fill:#490e12;fill-opacity:0.288;stroke-width:1px;stroke-linecap:butt;" />
 <path id="path4751" d="m 21.457,17.086 c 0.323,0.121 1.293,0.848 1.293,0.848" style="fill:none;stroke:#fbbebe;stroke-width:1px;stroke-linecap:butt;stroke-opacity:0.662" />
 <path id="path4943" d="m 22.996,19.318 0,5.789 0.101,0.537 c 1.039,1.026 2.490,2.203 4.046,3.240 1.537,-1.807 2.774,-4.022 3.337,-5.744 -0.141,-0.151 -0.317,-0.328 -0.423,-0.453 -1.113,-1.299 -2.864,-2.389 -4.406,-3.251 -1.119,-0.089 -2.156,-0.136 -2.656,-0.117 z" style="fill:#490e12;fill-opacity:0.300;stroke-width:1px;stroke-linecap:butt;" />
 <path id="path4962" d="m 20.543,19.047 c -0.130,0.520 -0.130,1.170 0,1.560" style="fill:none;stroke:#551616;stroke-width:1.200;stroke-linecap:round;stroke-opacity:1" />
 <path id="path4964" d="m 18.203,19.438 0.216,-0.476" style="fill:none;stroke:#3f1c1c;stroke-width:0.800;stroke-linecap:butt;" />
 <path id="path4966" d="m 17.769,18.094 0.433,0.086" style="fill:none;stroke:#3f1c1c;stroke-width:0.800;stroke-linecap:butt;" />
 <path id="path4968" d="m 20.240,16.880 c -0.346,0.260 -0.390,0.476 -0.433,0.693" style="fill:none;stroke:#3f1c1c;stroke-width:0.800;stroke-linecap:butt;stroke-opacity:1" />
 <path id="path5008" d="m 20.999,16.905 c -0.032,0.420 0.097,1.488 -0.161,1.909" style="fill:none;stroke:#521b1b;stroke-width:0.5;stroke-linecap:butt;" />
 <path id="stroke01" d="m 20.134,15.353 c 0.431,-1.150 1.150,-5.321 2.013,-5.608 1.725,0.575 5.608,2.732 6.184,3.164 -1.150,2.301 -3.020,5.033 -4.889,5.321 1.582,0.862 4.889,2.444 6.615,4.458 1.725,2.013 8.053,7.910 15.820,7.478 -1.869,0.575 -7.478,1.006 -8.772,0.719 2.876,1.725 3.883,3.595 3.883,3.595 0,0 -5.177,-2.588 -8.197,-3.020 -3.020,-0.431 -7.478,-3.595 -9.779,-5.896 -0.287,4.889 -2.732,8.341 -3.595,13.662 -1.294,-1.582 -2.732,-4.026 -3.020,-5.465 -1.869,1.294 -3.307,4.746 -6.184,6.184 2.013,-3.020 3.451,-9.348 4.602,-11.649 1.150,-2.301 3.020,-7.766 4.026,-8.485 -1.150,0.575 -2.301,-1.438 -2.876,-1.438 -0.575,0 -1.582,0.431 -2.588,1.150 0.287,-1.438 1.150,-2.588 1.869,-2.588 -2.013,0.431 -3.595,0.431 -4.026,0.862 -0.431,0.431 -1.294,-0.143 0,-1.294 1.294,-1.150 2.157,-2.732 3.451,-3.164 1.294,-0.431 3.020,0.575 4.602,2.444 0.575,0.143 0.862,-0.431 0.862,-0.431 z" style="fill:none;stroke:#4e1616;stroke-width:0.5;stroke-linecap:butt;stroke-opacity:1" />
 </g>
</svg>
