<?xml version="1.0" encoding="UTF-8" standalone="no"?>
<svg xmlns:dc="http://purl.org/dc/elements/1.1/" xmlns:cc="http://creativecommons.org/ns#" xmlns:rdf="http://www.w3.org/1999/02/22-rdf-syntax-ns#" xmlns:svg="http://www.w3.org/2000/svg" xmlns="http://www.w3.org/2000/svg" width="100%" height="100%" id="medal01" version="1.1" viewBox="0 0 48 48">
 <defs id="defs4138" />
 <g style="display:inline" id="layer2">
 <path id="path4234" d="m 37.909,5.377 c 3.688,-2.663 8.196,0.819 8.196,0.819 l -1.229,1.434 c 0,0 1.844,2.459 -0.204,4.508 C 42.622,14.188 14.549,40.622 11.270,43.491 7.991,46.360 -0.819,37.549 3.073,34.270 6.967,30.991 37.909,5.377 37.909,5.377 Z" style="fill:#f1dda8;stroke-width:1px;stroke-linecap:butt;stroke-opacity:1" />
 <path id="path4251" d="M 45.269,7.173 14.257,38.892 c 0,0 -3.301,-3.879 -5.446,-4.007 l -5.558,4.730 c 1.980,3.031 6.019,5.625 8.017,3.876 3.278,-2.868 31.353,-29.304 33.402,-31.353 2.049,-2.049 0.205,-4.507 0.205,-4.507 z" style="fill:#dec791;stroke-width:1px;stroke-linecap:butt;stroke-opacity:1" />
 <path id="path4253" d="m 5.605,33.998 c -0.974,0.067 -2.560,-0.003 -3.347,1.458 -1.268,3.720 5.756,10.304 8.812,8.179 1.899,-1.962 0.487,-6.116 -1.590,-7.936 -0.988,-0.866 -2.042,-1.717 -3.874,-1.701 z" style="fill:#d7943b;stroke-width:1px;stroke-linecap:butt;stroke-opacity:1" />
 <path id="path4296" d="m 10.028,35.123 c 0,0 3.145,2.432 3.501,2.848 0.356,0.415 -0.593,0.949 -0.593,0.949 0,0 -1.661,-2.848 -2.907,-3.797 z" style="fill:#e5c267;stroke-width:1px;stroke-linecap:butt;stroke-opacity:1" />
 <path id="path4334" d="m 3.941,34.187 c -0.644,0.165 -1.272,0.506 -1.683,1.269 -1.268,3.720 5.756,10.304 8.812,8.179 0.622,-0.643 0.884,-1.522 0.888,-2.476 C 9.267,43.270 4.732,39.252 3.916,37.853 3.440,37.038 3.467,35.891 3.941,34.187 Z" style="fill:#f8f7ce;fill-opacity:0.153;stroke-width:1px;stroke-linecap:butt;stroke-opacity:1" />
 <path id="path4354" d="m 5.017,34.035 c -0.942,0.058 -2.112,0.219 -2.759,1.421 -1.268,3.720 5.756,10.304 8.812,8.179 0.546,-0.564 0.811,-1.313 0.873,-2.132 C 7.767,43.743 5.423,39.324 4.865,38.208 4.364,37.207 4.420,35.532 5.017,34.035 Z" style="fill:#f8f7ce;fill-opacity:0.153;stroke-width:1px;stroke-linecap:butt;" />
 <path id="path4373" d="M 2.919,39.058 C 4.678,42.217 8.883,45.157 11.070,43.636 11.662,43.025 11.932,42.200 11.960,41.300 9.528,42.476 5.515,41.095 2.919,39.058 Z" style="fill:#f8f7ce;fill-opacity:0.233;stroke-width:1px;stroke-linecap:butt;stroke-opacity:1" />
 <path id="path4427" d="m 6.126,34.950 c 1.300,0.083 4.070,2.056 4.741,4.699" style="fill:none;stroke:#881818;stroke-width:1.799;stroke-linecap:butt;stroke-opacity:0.098" />
 <path id="path4429" d="m 5.203,35.789 c 1.552,-0.251 2.475,0.083 2.811,0.545" style="fill:none;stroke:#cc6e18;stroke-width:1.799;stroke-linecap:butt;stroke-opacity:0.343" />
 <path id="path4431" d="m 8.564,37.866 c 1.023,0.136 1.569,0.818 1.535,1.603" style="fill:none;stroke:#e87a16;stroke-width:1.799;stroke-linecap:butt;stroke-opacity:0.380;" />
 <path id="path4462" d="m 5.605,33.998 c -0.632,0.043 -1.520,0.036 -2.283,0.421 5.321,0.581 7.088,5.034 7.041,9.529 0.251,-0.067 0.491,-0.162 0.707,-0.312 1.899,-1.962 0.488,-6.116 -1.589,-7.937 -0.988,-0.866 -2.043,-1.716 -3.875,-1.701 z" style="fill:#732f07;fill-opacity:0.104;stroke-width:1px;stroke-linecap:butt;stroke-opacity:1" />
 <path id="path4393" d="m 2.312,37.666 c 1.074,3.591 6.249,7.715 8.757,5.970 0.402,-0.415 0.648,-0.932 0.779,-1.501 C 9.618,43.338 4.504,39.850 2.312,37.666 Z" style="fill:#f8f7ce;fill-opacity:0.233;stroke-width:1px;stroke-linecap:butt;" />
 <path id="path4482" d="m 11.668,39.462 c 0.354,1.477 0.354,3.013 -0.236,3.544" style="fill:none;stroke:#e5b951;stroke-width:0.400;stroke-linecap:butt;stroke-opacity:0.711" />
 <path id="path4499" d="m 11.786,41.767 c -0.059,0.649 -0.443,1.595 -1.417,1.920" style="fill:none;stroke:#dfa92b;stroke-width:0.400;stroke-linecap:butt;stroke-opacity:0.711;" />
 <path id="path4521" d="M 5.494,37.188 C 6.321,38.488 8.093,39.728 9.216,39.669" style="fill:none;stroke:#d7943b;stroke-width:3.900;stroke-linecap:round;stroke-opacity:0.417" />
 <path id="path4523" d="m 35.802,14.146 c 0,0 -1.594,1.122 -2.185,1.890 -0.590,0.768 -2.069,5.081 -2.423,5.435 -0.354,0.354 -0.708,0 -0.708,0 0,0 -1.061,-2.008 -2.361,-3.072 -0.999,-0.818 -3.043,-1.448 -4.662,-1.056 -0.787,0.652 -0.764,0.632 -1.568,1.298 0.194,-0.087 0.380,-0.183 0.380,-0.183 2.599,-1.240 4.194,-0.707 6.617,1.773 -2.185,-1.358 -1.594,-0.828 -1.949,-0.828 -0.354,0 -3.663,0.354 -3.958,0.414 l 0,1.300 c 0,0 5.021,1.239 6.734,1.357 -1.063,1.890 -3.603,5.318 -4.076,5.732 0.236,0.354 0.767,0.884 0.767,0.884 0,0 3.426,-4.430 3.839,-5.552 -0.119,0.718 -0.140,1.682 -0.537,2.759 0.246,-0.231 0.440,-0.413 0.685,-0.644 0.170,-1.122 0.322,-2.302 0.265,-2.646 1.595,-1.713 2.363,-3.250 2.777,-3.841 0.413,-0.590 3.308,-2.657 3.308,-3.957 -0.295,-0.649 -0.945,-1.064 -0.945,-1.064 z m -8.054,6.310 c 0.225,0.004 0.408,0.032 0.498,0.099 0.356,0.267 0.445,0.712 0.445,0.712 l -2.673,-0.625 c 0,0 1.053,-0.200 1.730,-0.187 z" style="fill:#da2615;stroke-width:1px;stroke-linecap:butt;stroke-opacity:1" />
 <path id="path4576" d="m 35.107,15.744 c 0,0 -1.639,2.154 -2.806,3.203 -0.048,0.120 -0.085,0.213 -0.132,0.332 l 0.992,0.332 c 0.078,-0.126 0.218,-0.356 0.279,-0.443 0.287,-0.411 1.763,-1.536 2.642,-2.621 l -0.974,-0.802 z m -10.375,1.484 c -0.434,-0.016 -0.866,0.017 -1.271,0.115 -0.721,0.597 -0.817,0.677 -1.435,1.189 l 0.078,0.007 c 0.058,-0.028 0.169,-0.082 0.169,-0.082 1.797,-0.857 3.118,-0.846 4.560,0.048 l 0.578,-0.558 c -0.748,-0.393 -1.718,-0.683 -2.679,-0.720 z m 0.580,2.326 c -0.670,0.068 -0.992,0.106 -1.490,0.166 l 0.859,0.923 0.445,0 -0.210,0.925 c 0.386,0.089 0.414,0.099 0.869,0.199 l 0.763,-1.001 -0.531,-0.123 c 0,0 0.210,-0.031 0.347,-0.054 L 25.751,20.466 25.312,19.554 Z m 4.017,3.541 c -0.351,0.573 -0.744,1.175 -1.191,1.820 l 0.632,0.968 c 0.487,-0.690 0.949,-1.363 1.224,-1.845 l -0.666,-0.943 z" style="fill:#f88989;fill-opacity:0.374;stroke-width:1px;stroke-linecap:butt;stroke-opacity:1" />
 <path id="path4632" d="m 28.464,18.716 -0.574,0.574 c 0.307,0.265 0.623,0.560 0.957,0.900 0.149,-0.003 0.419,-0.018 0.765,-0.095 -0.325,-0.463 -0.710,-0.955 -1.148,-1.378 z m 4.857,0.636 c -0.358,0.031 -0.876,0.190 -1.375,0.466 -0.123,0.305 -0.251,0.626 -0.355,0.867 0.127,0.226 0.335,0.380 0.533,0.5 0.573,-0.815 0.941,-1.441 1.197,-1.833 z m -5.121,0.466 0.466,0.384 c 0,0 0.126,-0.011 0.156,-0.011 -0.279,-0.172 -0.430,-0.259 -0.623,-0.373 z m 0.335,1.083 c 0.110,0.193 0.154,0.365 0.154,0.365 l -1.093,-0.255 c 0.032,0.260 0.076,0.731 -0.070,1.115 0.727,0.142 1.340,0.241 1.839,0.296 l -0.753,-1.509 -0.076,-0.011 z m 1.898,0.480 c -0.376,0.250 -0.616,0.758 -0.738,1.087 0.004,3.45e-4 0.014,0.003 0.019,0.003 -0.014,0.025 -0.039,0.061 -0.054,0.087 -0.035,0.104 -0.066,0.207 -0.066,0.207 l 0.982,-0.599 0.261,-0.556 c -0.200,-0.008 -0.355,-0.142 -0.355,-0.142 0,0 -0.039,-0.071 -0.048,-0.087 z m -2.806,4.265 c -0.892,1.248 -1.735,2.337 -1.988,2.558 0.236,0.354 0.767,0.884 0.767,0.884 0,0 0.861,-1.112 1.771,-2.363 l -0.550,-1.080 z" style="fill:#870303;fill-opacity:0.374;stroke-width:1px;stroke-linecap:butt;stroke-opacity:1" />
 <path id="path4234-7" d="m 37.909,5.377 c 3.688,-2.663 8.196,0.819 8.196,0.819 l -1.229,1.434 c 0,0 1.844,2.459 -0.204,4.508 C 42.622,14.188 14.549,40.622 11.270,43.491 7.991,46.360 -0.819,37.549 3.073,34.270 6.967,30.991 37.909,5.377 37.909,5.377 Z" style="fill:none;stroke:#3d3521;stroke-width:0.5;stroke-linecap:butt;stroke-opacity:1" />
 <path id="path4612" d="m 26.507,19.427 0.135,1.119" style="fill:none;stroke:#dea9a9;stroke-width:0.699;stroke-linecap:butt;stroke-opacity:0.699" />
 <path id="path4614" d="m 35.387,15.643 0.675,0.752" style="fill:none;stroke:#dea9a9;stroke-width:0.699;stroke-linecap:butt;stroke-opacity:0.699;" />
 <path id="path4616" d="m 31.719,20.739 -0.212,0.386" style="fill:none;stroke:#dea9a9;stroke-width:0.400;stroke-linecap:butt;stroke-opacity:0.699;" />
 <path id="path4673" d="m 30.524,22.663 c 1.201,0.327 2.075,0.546 2.730,0.819 0.655,0.273 5.897,1.255 5.897,1.255 l -0.600,-1.146 c 0,0 -6.006,-1.310 -7.426,-1.801 -0.436,0.218 -0.600,0.873 -0.600,0.873 z" style="fill:#da2615;stroke-width:1px;stroke-linecap:butt;" />
 <path id="path4734" d="m 31.828,21.984 -0.859,0.798 c 0.397,0.107 0.798,0.215 1.121,0.308 l 0.845,-0.802 c -0.476,-0.119 -0.761,-0.206 -1.107,-0.304 z" style="fill:#f88989;fill-opacity:0.374;stroke-width:1px;stroke-linecap:butt;" />
 <path id="path4736" d="m 35.988,23.013 c -0.327,0.338 -0.670,0.639 -0.986,0.894 0.583,0.125 1.070,0.228 1.689,0.351 l 0.753,-0.917 c -0.405,-0.089 -0.742,-0.165 -1.457,-0.328 z" style="fill:#870303;fill-opacity:0.374;stroke-width:1px;stroke-linecap:butt;" />
 <path id="path4772" d="m 32.847,23.345 c 0.128,0.045 0.291,0.088 0.406,0.136 0.655,0.273 5.898,1.255 5.898,1.255 l -0.601,-1.146 c 0,0 -2.601,-0.574 -4.792,-1.105" style="fill:none;stroke:#682828;stroke-width:0.300;stroke-linecap:round;" />
 </g>
</svg>
