<?xml version="1.0" encoding="UTF-8" standalone="no"?>
<svg xmlns:dc="http://purl.org/dc/elements/1.1/" xmlns:cc="http://creativecommons.org/ns#" xmlns:rdf="http://www.w3.org/1999/02/22-rdf-syntax-ns#" xmlns:svg="http://www.w3.org/2000/svg" xmlns="http://www.w3.org/2000/svg" width="100%" height="100%" id="diploma03" version="1.1" viewBox="0 0 48 48">
 <defs id="defs4138" />
 <g style="display:inline" id="layer4">
 <path id="path4371" d="m 22.254,27.425 -5.038,4.018 c 0,0 1.739,0.239 3.119,-0.179 -0.119,0.479 0,2.219 0,2.219 l 0.779,-0.779 -0.299,1.019 c 0,0 1.079,0.119 2.579,-0.959 0.839,1.859 1.799,1.679 1.799,1.679 l 1.379,-7.078 z" style="fill:#e33562;stroke-width:1px;stroke-linecap:butt;stroke-opacity:1" />
 <path id="path4373" d="m 26.572,27.365 -4.318,0.060 -2.812,2.242 c 2.182,0.726 4.900,1.353 6.435,1.263 l 0.695,-3.566 z" style="fill:#320912;fill-opacity:0.343;stroke-width:1px;stroke-linecap:butt;stroke-opacity:1" />
 <path id="path4375" d="m 18.476,30.437 -1.261,1.005 c 0,0 1.739,0.240 3.119,-0.179 -0.119,0.479 0,2.220 0,2.220 l 0.781,-0.781 -0.300,1.021 c 0,0 1.080,0.118 2.580,-0.960 0.568,1.257 1.183,1.577 1.527,1.656 -0.088,-3.045 -3.148,-2.375 -3.148,-2.375 l 0.781,-0.660 c 0,0 -0.899,-0.299 -1.679,-0.419 -0.459,-0.070 -1.242,-0.346 -2.398,-0.527 z" style="fill:#efa8b9;fill-opacity:0.184;stroke-width:1px;stroke-linecap:butt;stroke-opacity:1" />
 <path id="path4401" d="m 26.572,27.365 -4.318,0.060 -1.617,1.289 c 1.664,0.568 3.989,1.090 5.423,1.273 l 0.511,-2.623 z" style="fill:#320912;fill-opacity:0.343;stroke-width:1px;stroke-linecap:butt;" />
 <path id="path4437" d="m 21.044,32.803 1.920,-1.750" style="fill:none;stroke:#b33249;stroke-width:0.3;stroke-linecap:butt;filter-blend-mode:normal;filter-gaussianBlur-deviation:0;" />
 <path style="fill:none;stroke:#572c3c;stroke-width:0.5;stroke-linecap:butt;stroke-dasharray:none" d="m 22.254,27.425 -5.038,4.018 c 0,0 1.739,0.239 3.119,-0.179 -0.119,0.479 0,2.219 0,2.219 l 0.779,-0.779 -0.299,1.019 c 0,0 1.079,0.119 2.579,-0.959 0.839,1.859 1.799,1.679 1.799,1.679 l 1.379,-7.078 z" id="path4435" />
 <path id="path4187" d="m 5.020,17.553 c -1.004,-0.120 -1.968,1.285 -2.249,3.012 -0.281,1.727 -0.160,3.615 0.401,3.775 0.562,0.160 40.127,7.832 40.448,7.912 0.321,0.080 0.803,-3.293 0.923,-4.016 0.120,-0.723 0.763,-3.856 0.361,-3.936 C 44.505,24.221 5.020,17.553 5.020,17.553 Z" style="fill:#f1ebef;stroke-width:1px;stroke-linecap:butt;stroke-opacity:1" />
 <path id="path4189" d="m 2.769,20.587 c -0.276,1.721 -0.155,3.593 0.404,3.753 0.562,0.160 40.125,7.831 40.447,7.912 0.321,0.080 0.803,-3.292 0.923,-4.015 0.004,-0.027 0.021,-0.132 0.027,-0.166 C 34.428,27.080 16.127,23.207 2.769,20.587 Z" style="fill:#9e826c;fill-opacity:0.141;stroke-width:1px;stroke-linecap:butt;stroke-opacity:1" />
 <path id="path4191" d="m 2.638,21.951 c -0.025,0.676 0.015,1.290 0.126,1.730 l 41.126,8.041 c 0.194,-0.680 0.351,-1.651 0.484,-2.484 C 34.476,28.453 13.465,24.091 2.638,21.951 Z" style="fill:#8c847e;fill-opacity:0.226;stroke-width:1px;stroke-linecap:butt;stroke-opacity:1" />
 <path id="path4217" d="m 2.646,22.501 c 0.021,0.964 0.181,1.741 0.527,1.839 0.562,0.160 40.125,7.831 40.447,7.912 0.260,0.065 0.586,-1.927 0.779,-3.148 -6.901,0.882 -31.785,-4.434 -41.753,-6.603 z" style="fill:#8c847e;fill-opacity:0.226;stroke-width:1px;stroke-linecap:butt;stroke-opacity:1" />
 <path id="path4239" d="m 22.255,20.468 c -0.652,0.550 -1.124,1.604 -1.423,3.101 -0.322,1.614 -0.327,3.295 0.005,4.238 1.858,0.362 1.944,0.381 3.826,0.748 -0.199,-0.836 -0.149,-2.337 -0.002,-3.593 0.175,-1.491 0.584,-3.045 1.298,-3.867 -1.839,-0.310 -1.897,-0.321 -3.705,-0.626 z" style="fill:#da3257;stroke-width:1px;stroke-linecap:butt;stroke-opacity:1" />
 <path id="path4286" d="m 21.736,21.087 c -0.388,0.594 -0.692,1.421 -0.904,2.482 -0.019,0.096 -0.025,0.193 -0.042,0.291 1.267,0.296 2.776,0.498 3.947,0.632 0.151,-1.004 0.402,-1.996 0.792,-2.742 l -3.792,-0.664 z" style="fill:#ed9aac;fill-opacity:0.177;stroke-width:1px;stroke-linecap:butt;stroke-opacity:1" />
 <path id="path4288" d="m 20.664,24.695 c -0.090,0.829 -0.099,1.626 -0.013,2.279 1.454,0.018 2.971,0.307 3.898,0.513 -0.024,-0.626 0.003,-1.329 0.066,-2.019 -1.540,0.312 -3.115,-0.173 -3.951,-0.773 z" style="fill:#420c18;fill-opacity:0.147;stroke-width:1px;stroke-linecap:butt;stroke-opacity:1" />
 <path id="path4261" d="m 21.396,21.705 c -0.127,0.285 -0.240,0.611 -0.341,0.964 1.050,0.467 2.726,0.710 3.869,0.837 0.094,-0.404 0.211,-0.782 0.347,-1.138 l -3.875,-0.664 z" style="fill:#ed9aac;fill-opacity:0.251;stroke-width:1px;stroke-linecap:butt;stroke-opacity:1" />
 <path id="path4317" d="m 21.818,21.945 c 0.696,0 2.843,0.522 2.843,0.522" style="fill:none;stroke:#ecb8b8;stroke-width:1px;stroke-linecap:round;stroke-opacity:0.343" />
 <path id="path4319" d="m 20.701,24.445 c -0.169,1.320 -0.136,2.590 0.136,3.363 1.858,0.362 1.944,0.381 3.826,0.748 -0.186,-0.781 -0.150,-2.137 -0.025,-3.337 -1.624,-0.138 -3.086,-0.526 -3.937,-0.773 z" style="fill:#420c18;fill-opacity:0.147;stroke-width:1px;stroke-linecap:butt;" />
 <path id="path4353" d="m 20.658,26.703 c 0.468,-6.52e-4 1.334,0.232 1.856,0.290 0.522,0.058 1.935,0.391 1.935,0.391" style="fill:none;stroke:#b7728b;stroke-width:0.400;stroke-linecap:butt;stroke-opacity:0.319" />
 <path style="fill:none;stroke:#473f3c;stroke-width:0.5;stroke-linecap:butt;stroke-opacity:1" d="m 5.020,17.553 c -1.004,-0.120 -1.968,1.285 -2.249,3.012 -0.281,1.727 -0.160,3.615 0.401,3.775 0.562,0.160 40.127,7.832 40.448,7.912 0.321,0.080 0.803,-3.293 0.923,-4.016 0.120,-0.723 0.763,-3.856 0.361,-3.936 C 44.505,24.221 5.020,17.553 5.020,17.553 Z" id="path4222" />
 </g>
</svg>
