<?xml version="1.0" encoding="UTF-8" standalone="no"?>
<svg xmlns:dc="http://purl.org/dc/elements/1.1/" xmlns:cc="http://creativecommons.org/ns#" xmlns:rdf="http://www.w3.org/1999/02/22-rdf-syntax-ns#" xmlns:svg="http://www.w3.org/2000/svg" xmlns="http://www.w3.org/2000/svg" viewBox="0 0 48 48" version="1.1" id="diploma02" height="100%" width="100%">
 <defs id="defs4138" />
 <g style="display:inline" id="layer3">
 <path id="path4475" d="m 21.123,27.578 c 2.456,1.333 4.491,3.087 4.491,3.087 l 0.701,-1.754 4.421,0.561 -6.877,-3.789 z" style="fill:#be0000;stroke-width:0.5;stroke-linecap:butt;stroke-opacity:1" />
 <path id="path4494" d="m 23.861,25.683 -2.738,1.894 c 0.650,0.352 1.261,0.731 1.822,1.103 1.517,-0.438 2.841,-0.946 3.558,-1.541 l -2.642,-1.457 z" style="fill:#441414;fill-opacity:0.435;stroke-width:1px;stroke-linecap:butt;stroke-opacity:1" />
 <path style="fill:none;stroke:#3c0f0f;stroke-width:0.300;stroke-linecap:butt;stroke-opacity:1" d="m 21.123,27.578 c 2.456,1.333 4.491,3.087 4.491,3.087 l 0.701,-1.754 4.421,0.561 -6.877,-3.789 z" id="stroke02" />
 <path id="path4175" d="M 5.186,33.254 C 1.423,27.559 2.745,22.474 4.169,22.271 c 1.423,-0.203 1.932,-0.406 1.932,-0.406 0,0 -0.101,-0.406 1.016,-0.610 1.118,-0.203 22.169,-3.152 23.999,-3.457 1.830,-0.305 3.864,2.949 1.525,4.474 C 30.305,23.796 10.271,33.457 9.762,33.559 9.254,33.661 8.237,33.152 7.627,32.338 6.711,32.644 5.186,33.254 5.186,33.254 Z" style="fill:#eeede5;stroke-width:1px;stroke-linecap:butt;stroke-opacity:1" />
 <path id="path4192" d="m 4.876,22.224 c -0.323,-0.003 -0.654,0.064 -0.986,0.150 -1.297,0.772 -2.220,5.558 1.294,10.878 0,0 1.526,-0.608 2.441,-0.914 C 8.205,33.111 9.146,33.600 9.675,33.562 10.714,32.753 11.284,30.546 9.492,26.714 7.950,23.417 6.455,22.240 4.876,22.224 Z" style="fill:#b9b39b;fill-opacity:0.558;stroke-width:0.1;stroke-linecap:butt;stroke-opacity:1" />
 <path id="path4194" d="m 5.910,22.425 c -0.597,0.548 -0.658,0.869 -0.804,1.843 -0.215,1.438 0.072,4.531 1.222,6.113 1.150,1.582 1.365,2.013 1.365,2.013 0,0 -0.001,0.011 -0.001,0.011 0.151,0.189 0.325,0.359 0.507,0.509 0.020,0.016 0.040,0.029 0.060,0.044 0.156,0.123 0.317,0.231 0.476,0.320 0.083,0.045 0.162,0.074 0.244,0.109 0.091,0.039 0.183,0.084 0.269,0.109 0.110,0.031 0.206,0.037 0.300,0.042 0.044,0.002 0.094,0.011 0.134,0.007 C 10.717,32.737 11.278,30.534 9.492,26.714 8.290,24.145 7.116,22.874 5.910,22.425 Z" style="fill:#5f5744;fill-opacity:0.294;stroke-width:1px;stroke-linecap:butt;stroke-opacity:1" />
 <path id="path4196" d="m 4.876,22.224 c -0.318,-0.003 -0.642,0.062 -0.968,0.146 -0.019,0.011 -0.039,0.024 -0.058,0.037 -0.034,0.023 -0.069,0.053 -0.103,0.082 -0.113,0.096 -0.222,0.214 -0.324,0.371 -0.106,0.164 -0.203,0.366 -0.291,0.591 -0.007,0.018 -0.016,0.035 -0.023,0.054 -0.086,0.231 -0.161,0.489 -0.220,0.775 -0.001,0.009 -0.002,0.019 -0.003,0.029 C 2.763,24.905 2.708,25.608 2.75,26.394 c 4.477e-4,0.008 0.001,0.016 0.001,0.025 0.043,0.780 0.183,1.643 0.443,2.562 0.004,0.016 0.008,0.033 0.013,0.050 1.212,-0.824 2.203,-0.858 3.191,-0.089 0.782,0.608 2.589,1.389 4.214,1.492 C 10.518,29.427 10.184,28.195 9.492,26.714 7.950,23.417 6.455,22.240 4.876,22.224 Z" style="fill:#a09c7f;fill-opacity:0.435;stroke-width:1px;stroke-linecap:butt;stroke-opacity:1" />
 <path id="path4236" d="m 5.818,22.398 c 1.670,1.923 2.947,4.324 3.271,6.400 0.213,1.367 0.270,3.102 0.123,4.697 0.171,0.052 0.330,0.075 0.462,0.066 C 10.714,32.753 11.284,30.546 9.492,26.714 8.259,24.080 7.056,22.815 5.818,22.398 Z" style="fill:#393428;fill-opacity:0.294;stroke-width:1px;stroke-linecap:butt;stroke-opacity:1" />
 <path id="path4238" d="M 2.787,24.921 C 2.668,25.972 2.742,27.277 3.125,28.736 5.558,28.249 8.674,29.391 10.597,30.271 10.481,29.293 10.147,28.115 9.492,26.714 9.322,26.352 9.154,26.025 8.986,25.712 7.393,26.167 4.902,25.600 2.787,24.921 Z" style="fill:#393428;fill-opacity:0.092;stroke-width:1px;stroke-linecap:butt;stroke-opacity:1" />
 <path id="path4234" d="m 3.386,29.607 c 0.388,1.155 0.965,2.384 1.798,3.646 0,0 1.526,-0.608 2.441,-0.914 0.578,0.771 1.519,1.260 2.048,1.222 0.526,-0.409 0.929,-1.182 0.968,-2.339 -1.746,0.342 -4.111,-0.828 -7.257,-1.615 z" style="fill:#eeede5;fill-opacity:0.276;stroke-width:1px;stroke-linecap:butt;stroke-opacity:1" />
 <path id="path4270" d="m 7.435,23.494 c -1.077,1.306 -1.742,2.352 -1.619,3.214 0.169,1.186 2.413,2.923 4.644,2.789 C 10.285,28.685 9.984,27.767 9.492,26.714 8.801,25.238 8.119,24.206 7.435,23.494 Z" style="fill:#736e4c;fill-opacity:0.153;stroke-width:1px;stroke-linecap:butt;stroke-opacity:1" />
 <path id="path4290" d="M 8.347,24.634 C 6.684,26.341 6.057,26.852 6.232,28.162 6.399,29.416 9.124,30.535 10.613,30.380 10.509,29.383 10.171,28.167 9.492,26.714 9.108,25.894 8.727,25.207 8.347,24.634 Z" style="fill:#4e4929;fill-opacity:0.061;stroke-width:1px;stroke-linecap:butt;stroke-opacity:1" />
 <path id="path4334" d="m 4.876,22.224 c -0.318,-0.003 -0.642,0.062 -0.968,0.146 -0.019,0.011 -0.039,0.024 -0.058,0.037 -0.034,0.023 -0.069,0.053 -0.103,0.082 -0.113,0.096 -0.222,0.214 -0.324,0.371 -0.106,0.164 -0.203,0.366 -0.291,0.591 -0.007,0.018 -0.016,0.035 -0.023,0.054 -0.068,0.183 -0.123,0.397 -0.175,0.615 0.893,0.058 1.999,0.021 2.109,-0.599 0.099,-0.563 0.405,-0.937 0.921,-1.080 C 5.604,22.302 5.243,22.228 4.876,22.224 Z" style="fill:#f2f0e6;fill-opacity:0.184;stroke-width:1px;stroke-linecap:butt;stroke-opacity:1" />
 <path id="path4356" d="M 6.056,21.864 C 6.988,21.631 7.407,21.724 7.780,22.003" style="fill:none;stroke:#bbac9a;stroke-width:0.300;stroke-linecap:butt;" />
 <path id="path4358" d="m 10.855,25.730 c 1.630,3.307 1.397,6.149 0.186,7.127" style="fill:none;stroke:#bbac9a;stroke-width:0.300;stroke-linecap:butt;" />
 <path id="path4406" d="m 33.601,19.789 c -6.511,1.997 -17.677,5.485 -23.744,7.802 0.593,1.489 0.826,2.715 0.789,3.662 l 20.619,-8.208 c 0.596,-0.320 1.132,-0.612 1.378,-0.773 0.996,-0.650 1.194,-1.613 0.957,-2.482 z" style="fill:#a79e76;fill-opacity:0.141;stroke-width:1px;stroke-linecap:butt;stroke-opacity:1" />
 <path id="path4432" d="m 6.851,22.964 a 4.464,2.116 73.813 0 0 -0.451,4.707 4.464,2.116 73.813 0 0 3.277,3.697 4.464,2.116 73.813 0 0 0.923,-1.072 c -0.113,-0.982 -0.448,-2.169 -1.109,-3.582 -0.887,-1.897 -1.759,-3.073 -2.640,-3.75 z" style="fill:#3e3b29;fill-opacity:0.128;stroke-width:0.300;stroke-linecap:butt;marker:none;" />
 <path id="path4329" d="m 4.054,31.244 c 0.311,0.656 0.680,1.327 1.130,2.009 0,0 1.526,-0.608 2.441,-0.914 0.578,0.771 1.519,1.260 2.048,1.222 0.493,-0.383 0.866,-1.099 0.945,-2.138 -1.454,0.691 -4.425,0.144 -6.566,-0.179 z" style="fill:#f2f0e6;fill-opacity:0.398;stroke-width:1px;stroke-linecap:butt;stroke-opacity:1" />
 <path id="path4469" d="m 3.478,29.861 c 0.387,1.081 0.933,2.222 1.707,3.392 0,0 1.526,-0.608 2.441,-0.914 0.578,0.771 1.519,1.260 2.048,1.222 0.624,-0.486 1.068,-1.490 0.941,-3.039 -1.508,1.206 -5.225,0.644 -7.138,-0.662 z" style="fill:#f6f5f2;fill-opacity:0.288;stroke-width:0.1;stroke-linecap:butt;stroke-opacity:1" />
 <path id="path4354" d="M 7.531,32.329 C 8.564,31.965 10.568,31.236 10.568,31.236" style="fill:none;stroke:#785d51;stroke-width:0.300;stroke-linecap:butt;stroke-opacity:1" />
 <path id="path4630" d="m 26.630,18.443 c -0.539,0.077 -1.103,0.159 -1.751,0.251 l 2.166,2.556 1.378,3.273 c 0.520,-0.264 0.924,-0.476 1.373,-0.708 0.549,-1.169 0.486,-2.467 0.175,-3.257 -0.417,-1.063 -1.396,-1.833 -3.341,-2.115 z" style="fill:#db0d1a;stroke-width:1px;stroke-linecap:butt;stroke-opacity:1" />
 <path id="path4650" d="m 28.404,18.943 c -0.593,0.151 -1.449,0.393 -2.402,0.820 l 0.042,0.308 0.783,0.923 2.457,-1.457 c -0.238,-0.226 -0.527,-0.427 -0.880,-0.595 z m 1.757,2.398 -2.695,0.910 0.648,1.541 2.009,-1.068 c 0.085,-0.487 0.095,-0.961 0.037,-1.382 z" style="fill:#a5230d;fill-opacity:0.269;stroke-width:1px;stroke-linecap:butt;stroke-opacity:1" />
 <path id="path4706" d="m 28.778,20.403 c 0.206,0.325 0.354,0.531 0.354,0.738" style="fill:none;stroke:#eaa062;stroke-width:1.899;stroke-linecap:butt;stroke-opacity:0.233" />
 <path id="path4779" d="m 23.937,19.011 c 1.313,0.844 2.373,4.016 -0.460,7.970 2.168,-1.069 4.252,-2.103 5.871,-2.935 -1.335,-1.957 -2.857,-4.158 -2.994,-4.158 -0.219,0 -2.416,-0.876 -2.416,-0.876 z" style="fill:#9e3c2d;fill-opacity:0.233;stroke-width:1px;stroke-linecap:butt;stroke-opacity:1" />
 <path id="path4754" d="m 25.365,20.054 c 0.494,2.580 0.494,3.457 -0.054,4.335 -0.535,0.857 -2.668,2.634 -3.742,3.537 1.549,-0.759 2.981,-1.471 4.404,-2.181 0.374,-1.303 0.897,-2.757 1.423,-2.726 0.933,0.054 -2.031,-2.964 -2.031,-2.964 z" style="fill:#87382b;fill-opacity:0.226;stroke-width:1px;stroke-linecap:butt;stroke-opacity:1" />
 <path id="path4774" d="m 25.035,19.724 c 1.036,1.224 2.099,3.585 -1.119,7.039 0.876,-0.433 1.747,-0.860 2.556,-1.265 0.580,-1.591 0.957,-3.322 0.593,-4.181 -0.603,-1.427 -2.031,-1.591 -2.031,-1.591 z" style="fill:#b92912;fill-opacity:0.122;stroke-width:1px;stroke-linecap:butt;stroke-opacity:1" />
 <path id="path4799" d="m 25.536,20.098 c 0.607,0.990 0.703,2.365 0.543,2.844" style="fill:none;stroke:#b81d1d;stroke-width:1px;stroke-linecap:butt;stroke-opacity:0.282" />
 <path id="path4818" d="m 24.441,25.894 c -0.812,0.064 -2.055,0.948 -3.050,2.121 1.311,-0.642 2.487,-1.229 3.726,-1.845 -0.147,-0.212 -0.382,-0.298 -0.675,-0.275 z" style="fill:#a62612;fill-opacity:0.331;stroke-width:1px;stroke-linecap:butt;stroke-opacity:1" />
 <path style="fill:none;stroke:#3c0f0f;stroke-width:0.300;stroke-linecap:butt;" d="m 29.796,23.816 c 0.549,-1.169 0.486,-2.467 0.175,-3.257 -0.417,-1.063 -1.396,-1.833 -3.341,-2.115" id="path4723" />
 <path id="stroke01" d="M 5.186,33.254 C 1.423,27.559 2.745,22.474 4.169,22.271 c 1.423,-0.203 1.932,-0.406 1.932,-0.406 0,0 -0.101,-0.406 1.016,-0.610 1.118,-0.203 22.169,-3.152 24.000,-3.457 1.830,-0.305 3.864,2.949 1.525,4.474 C 30.305,23.796 10.271,33.457 9.762,33.559 9.254,33.661 8.237,33.152 7.627,32.338 6.711,32.644 5.186,33.254 5.186,33.254 Z" style="fill:none;stroke:#54493f;stroke-width:0.5;stroke-linecap:butt;stroke-opacity:1" />
 <path id="path4514" d="m 24.876,18.683 -1.802,0.25 c 1.534,0.484 1.232,0.479 2.119,1.205 1.543,1.263 2.246,4.351 4.703,7.298 2.195,2.635 8.070,5.614 12.070,4.281 -0.771,-0.280 -1.544,-0.912 -1.544,-0.912 0,0 3.300,-0.632 4.984,-1.404 -5.684,0.771 -9.825,-0.280 -12.071,-2.315 -2.245,-2.035 -3.088,-3.158 -3.860,-4.632 -0.592,-1.130 -1.727,-3.124 -4.597,-3.771 z" style="fill:#e00117;stroke-width:0.5;stroke-linecap:butt;" />
 <path id="path4580" d="m 26.160,19.255 c -0.529,0.034 -0.963,0.274 -1.289,0.609 0.105,0.095 0.147,0.130 0.322,0.273 1.543,1.263 2.246,4.351 4.703,7.298 0.538,0.646 1.303,1.312 2.203,1.931 0.832,-0.573 1.318,-1.438 1.441,-2.123 -0.065,-0.054 -0.144,-0.101 -0.207,-0.158 -2.245,-2.035 -3.087,-3.159 -3.859,-4.632 -0.467,-0.892 -1.287,-2.314 -3.017,-3.195 -0.100,-0.006 -0.201,-0.010 -0.296,-0.003 z" style="fill:#e8a667;fill-opacity:0.355;stroke-width:1px;stroke-linecap:butt;stroke-opacity:1" />
 <path id="path4582" d="m 37.914,29.251 c 1.433,1.010 2.351,2.030 1.394,2.775 0.932,0.049 1.836,-0.034 2.658,-0.308 -0.771,-0.280 -1.544,-0.912 -1.544,-0.912 0,0 3.300,-0.632 4.984,-1.404 -2.925,0.397 -5.432,0.303 -7.492,-0.150 z" style="fill:#882615;fill-opacity:0.392;stroke-width:1px;stroke-linecap:butt;stroke-opacity:1" />
 <path id="path4608" d="m 28.871,21.425 c -0.643,0.104 -1.418,0.307 -2.236,0.664 0.822,1.491 1.676,3.444 3.261,5.347 1.083,1.299 3.064,2.679 5.271,3.587 0.275,-0.758 0.150,-1.868 -0.037,-2.742 -0.685,-0.346 -1.296,-0.741 -1.796,-1.195 -2.245,-2.035 -3.087,-3.159 -3.859,-4.632 -0.155,-0.296 -0.351,-0.653 -0.603,-1.029 z" style="fill:#efc195;fill-opacity:0.184;stroke-width:1px;stroke-linecap:butt;stroke-opacity:1" />
 <path id="path4670" d="m 30.320,26.512 c 1.587,1.687 2.034,2.133 2.927,2.530" style="fill:none;stroke:#f1b95b;stroke-width:1.799;stroke-linecap:round;stroke-opacity:0.165" />
 <path id="path4672" d="m 26.697,20.309 c 0.942,0.744 1.240,1.290 1.339,1.587" style="fill:none;stroke:#ec8e37;stroke-width:1.5;stroke-linecap:round;stroke-opacity:0.300" />
 <path id="path4689" d="m 27.860,21.647 c 1.157,2.070 2.561,4.351 3.193,4.631" style="fill:none;stroke:#e9865c;stroke-width:2;stroke-linecap:round;stroke-opacity:0.294" />
 <path style="fill:none;stroke:#3c0f0f;stroke-width:0.300;stroke-linecap:round;" d="m 23.074,18.933 c 1.534,0.484 1.232,0.479 2.119,1.205 1.543,1.263 2.246,4.351 4.703,7.298 2.195,2.635 8.070,5.614 12.070,4.281 -0.771,-0.280 -1.544,-0.912 -1.544,-0.912 0,0 3.300,-0.632 4.984,-1.404 -5.684,0.771 -9.825,-0.280 -12.071,-2.315 -2.245,-2.035 -3.088,-3.158 -3.860,-4.632 -0.592,-1.130 -1.727,-3.124 -4.597,-3.771" id="stroke03" />
 </g>
</svg>
