<?xml version="1.0" encoding="UTF-8" standalone="no"?>
<svg xmlns:dc="http://purl.org/dc/elements/1.1/" xmlns:cc="http://creativecommons.org/ns#" xmlns:rdf="http://www.w3.org/1999/02/22-rdf-syntax-ns#" xmlns:svg="http://www.w3.org/2000/svg" xmlns="http://www.w3.org/2000/svg" viewBox="0 0 48 48" version="1.1" id="medal01" height="100%" width="100%">
 <defs id="defs4138" />
 <g style="display:inline" id="layer2">
 <path id="path4167" d="M 21.974,27.843 C 18.753,26.908 19.844,27.168 18.597,24.103 17.350,21.038 15.169,14.129 14.701,13.246 14.234,12.362 13.091,10.752 12.831,8.103 12.571,5.453 12.779,3.947 12.883,3.687 c 0.103,-0.259 0.467,-0.155 1.506,-0.155 1.038,0 17.506,0.051 18.182,0.051 0.675,0 1.246,-0.051 1.350,0.467 0.103,0.519 0.155,5.039 0.103,6.389 -0.051,1.350 -0.675,3.220 -1.350,4.259 -0.675,1.038 -4.155,8.727 -4.623,9.922 -0.467,1.194 -0.831,2.961 -1.506,2.909 -0.675,-0.051 -4.571,0.311 -4.571,0.311 z" style="fill:#1a507c;stroke-width:1px;stroke-linecap:butt;stroke-opacity:1" />
 <path id="path4212" d="m 15.166,3.533 c 0.612,0.065 1.227,0.132 1.843,0.205 0.905,0.106 3.262,0.261 5.619,0.339 1.178,0.039 2.353,0.059 3.341,0.042 0.988,-0.016 1.777,-0.062 2.246,-0.179 0.359,-0.089 1.155,-0.142 2.103,-0.152 0.948,-0.009 2.062,0.015 3.125,0.054 0.211,0.007 0.196,0.012 0.402,0.021 -0.197,-0.315 -0.696,-0.281 -1.275,-0.281 -0.199,0 -3.216,-0.009 -5.361,-0.015 -0.357,0.026 -0.778,0.044 -1.248,0.052 -0.975,0.016 -2.145,-0.004 -3.318,-0.042 -0.181,-0.006 -0.336,-0.018 -0.517,-0.025 -3.260,-0.009 -6.081,-0.017 -6.960,-0.019 z m -2.062,0.201 c -0.079,0.002 -0.155,0.011 -0.234,0.015 -0.028,0.089 -0.056,0.261 -0.085,0.509 1.258,-0.087 2.767,0.138 4.226,0.310 0.905,0.106 3.262,0.261 5.619,0.339 1.178,0.039 2.353,0.057 3.341,0.041 0.988,-0.016 1.777,-0.062 2.246,-0.179 0.359,-0.089 1.155,-0.140 2.103,-0.150 0.948,-0.009 2.062,0.015 3.125,0.054 0.272,0.009 0.256,0.016 0.519,0.027 -0.010,-0.197 -0.020,-0.405 -0.033,-0.503 -0.237,-0.010 -0.221,-0.014 -0.466,-0.023 -1.067,-0.039 -2.187,-0.064 -3.148,-0.054 -0.961,0.009 -1.749,0.048 -2.220,0.166 -0.362,0.090 -1.157,0.147 -2.132,0.164 -0.975,0.016 -2.145,-0.002 -3.318,-0.041 C 20.299,4.332 17.928,4.175 17.068,4.074 16.189,3.970 15.278,3.837 14.396,3.771 13.955,3.738 13.522,3.722 13.103,3.734 Z m 0,0.830 c -0.118,0.003 -0.232,0.014 -0.347,0.023 -0.013,0.160 -0.027,0.301 -0.035,0.505 1.270,-0.099 2.806,0.132 4.289,0.306 0.905,0.106 3.262,0.261 5.619,0.339 1.178,0.039 2.353,0.059 3.341,0.042 0.988,-0.016 1.777,-0.062 2.246,-0.179 0.359,-0.089 1.155,-0.142 2.103,-0.152 0.948,-0.009 2.062,0.015 3.125,0.054 0.291,0.010 0.275,0.017 0.554,0.029 -0.004,-0.166 -0.006,-0.354 -0.011,-0.5 -0.264,-0.011 -0.248,-0.017 -0.523,-0.027 -1.067,-0.039 -2.187,-0.066 -3.148,-0.056 -0.961,0.009 -1.749,0.050 -2.220,0.167 -0.362,0.090 -1.157,0.147 -2.132,0.164 -0.975,0.016 -2.145,-0.004 -3.318,-0.042 C 20.299,5.162 17.928,5.005 17.068,4.904 16.189,4.800 15.278,4.667 14.396,4.601 13.955,4.568 13.522,4.551 13.103,4.564 Z m 0,0.873 c -0.130,0.003 -0.257,0.015 -0.384,0.025 -0.002,0.159 -0.003,0.323 -0.002,0.503 1.271,-0.100 2.808,0.131 4.292,0.306 0.905,0.106 3.262,0.261 5.619,0.339 1.178,0.039 2.353,0.057 3.341,0.041 0.988,-0.016 1.777,-0.062 2.246,-0.179 0.359,-0.089 1.155,-0.140 2.103,-0.150 0.948,-0.009 2.062,0.015 3.125,0.054 0.302,0.011 0.286,0.016 0.576,0.029 -0.003,-0.178 -0.007,-0.334 -0.011,-0.501 -0.274,-0.011 -0.258,-0.016 -0.544,-0.027 -1.067,-0.039 -2.187,-0.064 -3.148,-0.054 -0.961,0.009 -1.749,0.048 -2.220,0.166 -0.362,0.090 -1.157,0.147 -2.132,0.164 -0.975,0.016 -2.145,-0.002 -3.318,-0.041 C 20.299,6.035 17.928,5.878 17.068,5.777 16.189,5.673 15.278,5.540 14.396,5.474 13.955,5.441 13.522,5.425 13.103,5.437 Z m 0,0.830 c -0.131,0.003 -0.259,0.017 -0.388,0.027 0.004,0.148 0.023,0.339 0.031,0.5 1.265,-0.093 2.790,0.137 4.263,0.310 0.905,0.106 3.262,0.259 5.619,0.337 1.178,0.039 2.353,0.059 3.341,0.042 0.988,-0.016 1.777,-0.062 2.246,-0.179 0.359,-0.089 1.155,-0.142 2.103,-0.152 0.948,-0.009 2.062,0.017 3.125,0.056 0.308,0.011 0.292,0.016 0.587,0.029 -0.002,-0.191 -9.07e-4,-0.311 -0.003,-0.5 -0.284,-0.012 -0.267,-0.018 -0.564,-0.029 -1.067,-0.039 -2.187,-0.066 -3.148,-0.056 -0.961,0.009 -1.749,0.050 -2.220,0.167 -0.362,0.090 -1.157,0.147 -2.132,0.164 -0.975,0.016 -2.145,-0.004 -3.318,-0.042 C 20.299,6.865 17.928,6.708 17.068,6.607 16.189,6.504 15.278,6.370 14.396,6.304 13.955,6.271 13.522,6.254 13.103,6.267 Z m 0,0.832 c -0.114,0.003 -0.224,0.013 -0.335,0.021 0.01,0.165 0.019,0.325 0.033,0.501 1.254,-0.083 2.756,0.141 4.208,0.312 0.905,0.106 3.262,0.261 5.619,0.339 1.178,0.039 2.353,0.059 3.341,0.042 0.988,-0.016 1.777,-0.062 2.246,-0.179 0.359,-0.089 1.155,-0.142 2.103,-0.152 0.948,-0.009 2.062,0.015 3.125,0.054 0.307,0.011 0.291,0.016 0.585,0.029 -8.8e-4,-0.190 0.001,-0.304 0,-0.5 -0.285,-0.012 -0.268,-0.018 -0.566,-0.029 -1.067,-0.039 -2.187,-0.064 -3.148,-0.054 -0.961,0.009 -1.749,0.048 -2.220,0.166 -0.362,0.090 -1.157,0.149 -2.132,0.166 -0.975,0.016 -2.145,-0.004 -3.318,-0.042 C 20.299,7.697 17.928,7.540 17.068,7.439 16.189,7.336 15.278,7.202 14.396,7.136 13.955,7.103 13.522,7.087 13.103,7.099 Z m 0,0.832 c -0.095,0.002 -0.187,0.013 -0.281,0.019 0.005,0.055 0.004,0.095 0.009,0.152 0.011,0.121 0.033,0.228 0.048,0.345 1.238,-0.068 2.707,0.151 4.128,0.318 0.905,0.106 3.262,0.259 5.619,0.337 1.178,0.039 2.353,0.059 3.341,0.042 0.988,-0.016 1.777,-0.062 2.246,-0.179 0.359,-0.089 1.155,-0.140 2.103,-0.150 0.948,-0.009 2.062,0.015 3.125,0.054 0.306,0.011 0.290,0.016 0.583,0.029 6.32e-4,-0.170 0.002,-0.315 0.002,-0.5 -0.285,-0.012 -0.268,-0.018 -0.566,-0.029 -1.067,-0.039 -2.187,-0.064 -3.148,-0.054 -0.961,0.009 -1.749,0.048 -2.220,0.166 -0.362,0.090 -1.157,0.147 -2.132,0.164 -0.975,0.016 -2.145,-0.002 -3.318,-0.041 C 20.299,8.529 17.928,8.370 17.068,8.269 16.189,8.166 15.278,8.034 14.396,7.968 13.955,7.935 13.522,7.919 13.103,7.931 Z m 0,0.830 c -0.059,0.001 -0.116,0.008 -0.175,0.011 0.027,0.170 0.057,0.337 0.091,0.498 1.208,-0.045 2.622,0.165 3.990,0.326 0.905,0.106 3.262,0.261 5.619,0.339 1.178,0.039 2.353,0.059 3.341,0.042 0.988,-0.016 1.777,-0.062 2.246,-0.179 0.359,-0.089 1.155,-0.142 2.103,-0.152 0.948,-0.009 2.062,0.015 3.125,0.054 0.306,0.011 0.290,0.016 0.583,0.029 0.002,-0.136 -0.001,-0.341 0,-0.5 C 33.745,9.220 33.761,9.213 33.464,9.203 32.397,9.164 31.277,9.138 30.316,9.148 c -0.961,0.009 -1.749,0.048 -2.220,0.166 -0.362,0.090 -1.157,0.149 -2.132,0.166 -0.975,0.016 -2.145,-0.004 -3.318,-0.042 C 20.299,9.359 17.928,9.202 17.068,9.101 16.189,8.998 15.278,8.864 14.396,8.798 13.955,8.765 13.522,8.749 13.103,8.761 Z m -0.007,0.832 c 0.043,0.174 0.087,0.345 0.136,0.507 1.160,-0.015 2.488,0.176 3.777,0.328 0.905,0.106 3.262,0.261 5.619,0.339 1.178,0.039 2.353,0.057 3.341,0.041 0.988,-0.016 1.777,-0.062 2.246,-0.179 0.359,-0.089 1.155,-0.140 2.103,-0.150 0.948,-0.009 2.062,0.015 3.125,0.054 0.297,0.010 0.281,0.016 0.566,0.029 0.002,-0.038 0.014,-0.084 0.015,-0.123 0.002,-0.072 -0.002,-0.287 0,-0.376 -0.283,-0.012 -0.266,-0.018 -0.562,-0.029 -1.067,-0.039 -2.187,-0.064 -3.148,-0.054 -0.961,0.009 -1.749,0.048 -2.220,0.166 -0.362,0.090 -1.157,0.147 -2.132,0.164 -0.975,0.016 -2.145,-0.002 -3.318,-0.041 -2.345,-0.077 -4.715,-0.234 -5.576,-0.335 C 16.189,9.830 15.278,9.697 14.396,9.630 13.955,9.597 13.522,9.581 13.103,9.593 c -0.002,7.67e-5 -0.005,-7.9e-5 -0.007,0 z m 0.244,0.835 c 0.060,0.177 0.122,0.347 0.187,0.509 1.090,0.015 2.298,0.181 3.482,0.320 0.905,0.106 3.262,0.261 5.619,0.339 1.178,0.039 2.353,0.059 3.341,0.042 0.988,-0.016 1.777,-0.062 2.246,-0.179 0.359,-0.089 1.155,-0.142 2.103,-0.152 0.948,-0.009 2.062,0.015 3.125,0.054 0.242,0.008 0.226,0.013 0.460,0.023 0.031,-0.172 0.045,-0.331 0.064,-0.496 -0.256,-0.010 -0.239,-0.015 -0.505,-0.025 -1.067,-0.039 -2.187,-0.066 -3.148,-0.056 -0.961,0.009 -1.749,0.050 -2.220,0.167 -0.362,0.090 -1.157,0.147 -2.132,0.164 -0.975,0.016 -2.145,-0.004 -3.318,-0.042 -2.345,-0.077 -4.715,-0.234 -5.576,-0.335 -0.878,-0.103 -1.789,-0.236 -2.671,-0.302 -0.360,-0.027 -0.710,-0.033 -1.056,-0.031 z m 0.322,0.841 c 0.084,0.193 0.166,0.340 0.251,0.511 0.987,0.045 2.050,0.185 3.095,0.308 0.905,0.106 3.262,0.261 5.619,0.339 1.178,0.039 2.353,0.057 3.341,0.041 0.988,-0.016 1.777,-0.062 2.246,-0.179 0.359,-0.089 1.155,-0.140 2.103,-0.150 0.948,-0.009 2.062,0.015 3.125,0.054 0.139,0.005 0.128,0.008 0.265,0.013 0.045,-0.165 0.092,-0.330 0.128,-0.494 -0.192,-0.008 -0.177,-0.012 -0.375,-0.019 -1.067,-0.039 -2.187,-0.064 -3.148,-0.054 -0.961,0.009 -1.749,0.048 -2.220,0.166 -0.362,0.090 -1.157,0.147 -2.132,0.164 -0.975,0.016 -2.145,-0.002 -3.318,-0.041 -2.345,-0.077 -4.715,-0.234 -5.576,-0.335 -0.878,-0.103 -1.789,-0.236 -2.671,-0.302 -0.250,-0.018 -0.490,-0.015 -0.734,-0.021 z m 0.423,0.849 c 0.098,0.183 0.181,0.358 0.269,0.513 0.858,0.064 1.766,0.190 2.654,0.294 0.905,0.106 3.262,0.259 5.619,0.337 1.178,0.039 2.353,0.059 3.341,0.042 0.988,-0.016 1.777,-0.062 2.246,-0.179 0.359,-0.089 1.155,-0.140 2.103,-0.150 0.948,-0.009 2.062,0.015 3.125,0.054 0.004,1.5e-4 0.003,-1.5e-4 0.007,0 0.059,-0.165 0.117,-0.322 0.169,-0.492 -0.082,-0.003 -0.075,-0.004 -0.158,-0.007 -1.067,-0.039 -2.187,-0.064 -3.148,-0.054 -0.961,0.009 -1.749,0.048 -2.220,0.166 -0.362,0.090 -1.157,0.147 -2.132,0.164 -0.975,0.016 -2.145,-0.002 -3.318,-0.041 -2.345,-0.077 -4.715,-0.234 -5.576,-0.335 -0.878,-0.103 -1.789,-0.236 -2.671,-0.302 -0.105,-0.007 -0.205,-0.003 -0.310,-0.009 z m 0.462,0.855 c 0.047,0.084 0.113,0.195 0.152,0.269 0.019,0.036 0.078,0.213 0.103,0.269 0.725,0.068 1.467,0.157 2.205,0.244 0.905,0.106 3.262,0.261 5.619,0.339 1.178,0.039 2.353,0.059 3.341,0.042 0.988,-0.016 1.777,-0.062 2.246,-0.179 0.359,-0.089 1.155,-0.142 2.103,-0.152 0.850,-0.008 1.843,0.016 2.804,0.048 0.072,-0.156 0.134,-0.326 0.201,-0.494 -1.024,-0.036 -2.091,-0.064 -3.009,-0.054 -0.961,0.009 -1.749,0.048 -2.220,0.166 -0.362,0.090 -1.157,0.149 -2.132,0.166 -0.975,0.016 -2.145,-0.004 -3.318,-0.042 -2.345,-0.077 -4.715,-0.234 -5.576,-0.335 -0.828,-0.097 -1.684,-0.217 -2.519,-0.287 z m 0.384,0.871 c 0.062,0.156 0.124,0.317 0.205,0.537 0.621,0.065 1.245,0.133 1.871,0.207 0.905,0.106 3.262,0.261 5.619,0.339 1.178,0.039 2.353,0.057 3.341,0.041 0.988,-0.016 1.777,-0.062 2.246,-0.179 0.359,-0.089 1.155,-0.140 2.103,-0.150 0.717,-0.007 1.551,0.017 2.365,0.041 0.091,-0.141 0.175,-0.327 0.263,-0.496 -0.902,-0.028 -1.829,-0.053 -2.632,-0.044 -0.961,0.009 -1.749,0.048 -2.220,0.166 -0.362,0.090 -1.157,0.147 -2.132,0.164 -0.975,0.016 -2.145,-0.002 -3.318,-0.041 -2.345,-0.077 -4.715,-0.234 -5.576,-0.335 -0.702,-0.082 -1.422,-0.176 -2.134,-0.248 z m 0.332,0.863 c 0.062,0.176 0.121,0.339 0.191,0.539 0.519,0.059 1.033,0.110 1.552,0.171 0.905,0.106 3.262,0.261 5.619,0.339 1.178,0.039 2.353,0.059 3.341,0.042 0.988,-0.016 1.777,-0.062 2.246,-0.179 0.359,-0.089 1.155,-0.142 2.103,-0.152 0.588,-0.006 1.275,0.017 1.939,0.033 0.083,-0.159 0.194,-0.386 0.255,-0.494 -0.754,-0.020 -1.527,-0.045 -2.199,-0.039 -0.961,0.009 -1.749,0.050 -2.220,0.167 -0.362,0.090 -1.157,0.147 -2.132,0.164 -0.975,0.016 -2.145,-0.004 -3.318,-0.042 -2.345,-0.077 -4.715,-0.234 -5.576,-0.335 -0.593,-0.069 -1.198,-0.147 -1.802,-0.214 z m 0.304,0.863 c 0.057,0.166 0.124,0.363 0.185,0.541 0.420,0.050 0.834,0.089 1.253,0.138 0.905,0.106 3.262,0.261 5.619,0.339 1.178,0.039 2.353,0.057 3.341,0.041 0.988,-0.016 1.777,-0.060 2.246,-0.177 0.359,-0.089 1.155,-0.142 2.103,-0.152 0.458,-0.004 0.999,0.018 1.511,0.027 0.111,-0.229 0.161,-0.305 0.257,-0.496 -0.604,-0.012 -1.232,-0.036 -1.773,-0.031 -0.961,0.009 -1.749,0.048 -2.220,0.166 -0.362,0.090 -1.157,0.147 -2.132,0.164 -0.975,0.016 -2.145,-0.002 -3.318,-0.041 -2.345,-0.077 -4.715,-0.234 -5.576,-0.335 -0.493,-0.058 -0.995,-0.123 -1.498,-0.183 z m 0.296,0.865 c 0.063,0.183 0.121,0.348 0.187,0.541 0.321,0.039 0.635,0.067 0.955,0.105 0.905,0.106 3.262,0.259 5.619,0.337 1.178,0.039 2.353,0.059 3.341,0.042 0.988,-0.016 1.777,-0.062 2.246,-0.179 0.359,-0.089 1.155,-0.142 2.103,-0.152 0.338,-0.003 0.745,0.014 1.117,0.019 0.073,-0.154 0.162,-0.350 0.232,-0.496 -0.455,-0.007 -0.940,-0.027 -1.353,-0.023 -0.961,0.009 -1.749,0.050 -2.220,0.167 -0.362,0.090 -1.157,0.147 -2.132,0.164 -0.975,0.016 -2.145,-0.004 -3.318,-0.042 -2.345,-0.077 -4.715,-0.234 -5.576,-0.335 -0.395,-0.046 -0.798,-0.098 -1.201,-0.148 z m 0.300,0.869 c 0.066,0.194 0.115,0.335 0.183,0.535 0.221,0.027 0.438,0.046 0.658,0.072 0.905,0.106 3.262,0.261 5.619,0.339 1.178,0.039 2.353,0.059 3.341,0.042 0.988,-0.016 1.777,-0.062 2.246,-0.179 0.359,-0.089 1.155,-0.142 2.103,-0.152 0.221,-0.002 0.492,0.012 0.728,0.013 0.078,-0.167 0.158,-0.335 0.234,-0.496 -0.318,-0.003 -0.671,-0.020 -0.966,-0.017 -0.961,0.009 -1.749,0.048 -2.220,0.166 -0.362,0.090 -1.157,0.149 -2.132,0.166 -0.975,0.016 -2.145,-0.004 -3.318,-0.042 -2.345,-0.077 -4.715,-0.234 -5.576,-0.335 -0.296,-0.034 -0.598,-0.073 -0.900,-0.111 z m 0.300,0.869 c 0.060,0.176 0.122,0.352 0.183,0.531 0.120,0.014 0.237,0.025 0.357,0.039 0.905,0.106 3.262,0.259 5.619,0.337 1.178,0.039 2.353,0.059 3.341,0.042 0.988,-0.016 1.777,-0.062 2.246,-0.179 0.359,-0.089 1.155,-0.140 2.103,-0.150 0.103,-0.001 0.234,0.006 0.341,0.005 0.081,-0.174 0.152,-0.325 0.232,-0.496 -0.185,-4.43e-4 -0.401,-0.011 -0.578,-0.009 -0.961,0.009 -1.749,0.048 -2.220,0.166 -0.362,0.090 -1.157,0.147 -2.132,0.164 -0.975,0.016 -2.145,-0.002 -3.318,-0.041 -2.345,-0.077 -4.715,-0.234 -5.576,-0.335 -0.197,-0.023 -0.399,-0.049 -0.599,-0.074 z m 0.287,0.828 c 0.061,0.177 0.120,0.349 0.181,0.527 0.024,0.002 0.048,0.005 0.072,0.007 0.905,0.106 3.262,0.261 5.619,0.339 1.178,0.039 2.353,0.059 3.341,0.042 0.988,-0.016 1.777,-0.062 2.246,-0.179 0.355,-0.088 1.141,-0.139 2.076,-0.150 0.081,-0.177 0.150,-0.321 0.232,-0.498 -0.065,3.46e-4 -0.145,-0.004 -0.208,-0.003 -0.961,0.009 -1.749,0.048 -2.220,0.166 -0.362,0.090 -1.157,0.149 -2.132,0.166 -0.975,0.016 -2.145,-0.004 -3.318,-0.042 -2.345,-0.077 -4.715,-0.234 -5.576,-0.335 -0.102,-0.012 -0.208,-0.026 -0.312,-0.039 z m 0.300,0.867 c 0.060,0.174 0.119,0.345 0.179,0.517 0.994,0.105 3.154,0.246 5.392,0.320 1.178,0.039 2.353,0.059 3.341,0.042 0.988,-0.016 1.777,-0.062 2.246,-0.179 0.302,-0.075 0.948,-0.117 1.699,-0.136 0.099,-0.218 0.124,-0.285 0.226,-0.507 -0.874,0.012 -1.607,0.050 -2.046,0.160 -0.362,0.090 -1.157,0.147 -2.132,0.164 -0.975,0.016 -2.145,-0.002 -3.318,-0.041 -2.345,-0.077 -4.715,-0.236 -5.576,-0.337 -0.003,-4.56e-4 -0.007,-0.001 -0.011,-0.002 z m 0.296,0.857 c 0.059,0.169 0.118,0.347 0.177,0.513 1.080,0.102 3.012,0.229 5.097,0.298 1.178,0.039 2.353,0.059 3.341,0.042 0.988,-0.016 1.777,-0.062 2.246,-0.179 0.249,-0.062 0.748,-0.098 1.322,-0.123 0.093,-0.207 0.130,-0.295 0.228,-0.511 -0.694,0.019 -1.300,0.055 -1.671,0.148 -0.362,0.090 -1.157,0.149 -2.132,0.166 -0.975,0.016 -2.145,-0.004 -3.318,-0.042 -2.195,-0.072 -4.310,-0.211 -5.291,-0.312 z m 0.304,0.855 c 0.068,0.192 0.126,0.330 0.193,0.515 1.135,0.097 2.858,0.209 4.777,0.273 1.178,0.039 2.353,0.057 3.341,0.041 0.988,-0.016 1.777,-0.062 2.246,-0.179 0.196,-0.049 0.537,-0.083 0.947,-0.109 0.081,-0.183 0.137,-0.311 0.226,-0.509 -0.526,0.023 -0.991,0.059 -1.294,0.134 -0.362,0.090 -1.157,0.147 -2.132,0.164 -0.975,0.016 -2.145,-0.002 -3.318,-0.041 -2.035,-0.067 -3.916,-0.190 -4.986,-0.289 z m 0.320,0.855 c 0.065,0.178 0.128,0.347 0.191,0.515 1.155,0.091 2.706,0.189 4.458,0.248 1.178,0.039 2.353,0.059 3.341,0.042 0.988,-0.016 1.777,-0.062 2.246,-0.179 0.120,-0.030 0.350,-0.048 0.558,-0.070 0.069,-0.158 0.159,-0.357 0.240,-0.539 -0.373,0.026 -0.685,0.066 -0.919,0.125 -0.362,0.090 -1.157,0.147 -2.132,0.164 -0.975,0.016 -2.145,-0.004 -3.318,-0.042 -1.866,-0.061 -3.541,-0.169 -4.666,-0.263 z m 0.318,0.857 c 0.061,0.160 0.135,0.369 0.193,0.515 1.144,0.084 2.552,0.170 4.138,0.222 1.178,0.039 2.353,0.057 3.341,0.041 0.988,-0.016 1.777,-0.062 2.246,-0.179 0.036,-0.009 0.123,-0.013 0.167,-0.021 0.046,-0.110 0.175,-0.393 0.236,-0.533 -0.181,0.021 -0.391,0.036 -0.525,0.070 -0.362,0.090 -1.157,0.147 -2.132,0.164 -0.975,0.016 -2.145,-0.002 -3.318,-0.041 -1.699,-0.056 -3.205,-0.150 -4.347,-0.238 z m 0.320,0.855 c 0.078,0.195 0.130,0.348 0.191,0.517 1.103,0.075 2.399,0.148 3.820,0.195 1.178,0.039 2.353,0.059 3.341,0.042 0.875,-0.014 1.554,-0.060 2.033,-0.150 0.016,-0.043 0.032,-0.094 0.048,-0.136 0.018,-0.046 0.148,-0.328 0.175,-0.394 -0.037,0.007 -0.099,0.009 -0.132,0.017 -0.362,0.090 -1.157,0.147 -2.132,0.164 -0.975,0.016 -2.145,-0.004 -3.318,-0.042 -1.530,-0.050 -2.901,-0.132 -4.027,-0.212 z m 0.316,0.857 c 0.066,0.195 0.117,0.354 0.166,0.513 1.042,0.067 2.259,0.131 3.529,0.173 1.178,0.039 2.353,0.057 3.341,0.041 0.711,-0.011 1.266,-0.049 1.726,-0.107 0.060,-0.183 0.123,-0.350 0.185,-0.529 -0.408,0.071 -1.068,0.124 -1.919,0.138 -0.975,0.016 -2.145,-0.004 -3.318,-0.042 -1.364,-0.045 -2.631,-0.115 -3.710,-0.187 z m 0.251,0.794 c 0.058,0.199 0.108,0.365 0.158,0.511 0.983,0.060 2.131,0.117 3.285,0.156 1.178,0.039 2.353,0.059 3.341,0.042 0.558,-0.009 1.030,-0.034 1.439,-0.070 0.063,-0.165 0.126,-0.348 0.187,-0.529 -0.419,0.049 -0.949,0.088 -1.634,0.099 -0.975,0.016 -2.145,-0.004 -3.318,-0.042 -1.232,-0.040 -2.435,-0.102 -3.458,-0.167 z m 0.306,0.851 c 0.115,0.218 0.291,0.381 0.564,0.525 0.822,0.045 1.668,0.093 2.572,0.123 1.178,0.039 2.353,0.057 3.341,0.041 0.369,-0.006 0.678,-0.022 0.986,-0.039 0.110,-0.127 0.212,-0.305 0.308,-0.515 -0.367,0.028 -0.811,0.046 -1.302,0.054 -0.975,0.016 -2.145,-0.002 -3.318,-0.041 -1.104,-0.036 -2.196,-0.090 -3.152,-0.148 z" style="font-style:normal;font-variant:normal;font-weight:normal;font-stretch:normal;font-size:medium;line-height:normal;font-family:sans-serif;text-indent:0;text-align:start;text-decoration:none;text-decoration-line:none;text-decoration-style:letter-spacing:normal;word-spacing:normal;text-transform:none;direction:ltr;block-progression:tb;writing-mode:lr-tb;baseline-shift:baseline;text-anchor:start;white-space:normal;fill:#ffffff;fill-opacity:0.128;stroke-width:0.5;stroke-linecap:butt;" />
 <path id="path4184" d="m 13.285,3.511 c -0.233,0.006 -0.350,0.045 -0.402,0.175 -0.103,0.259 -0.310,1.766 -0.050,4.416 0.259,2.649 1.401,4.259 1.869,5.142 0.088,0.167 0.284,0.710 0.478,1.246 -0.745,-4.167 -0.663,-9.106 -0.392,-10.958 -0.037,-4.83e-5 -0.373,-0.001 -0.396,-0.001 -0.519,0 -0.871,-0.026 -1.105,-0.019 z" style="fill:#e3b020;stroke-width:1px;stroke-linecap:butt;stroke-opacity:1" />
 <path id="path4186" d="m 31.939,3.582 c 0.533,1.352 0.281,3.138 0.320,5.248 0.039,2.123 -0.041,5.082 -0.646,7.949 0.479,-0.996 0.879,-1.796 1.062,-2.078 0.675,-1.038 1.299,-2.909 1.351,-4.259 0.051,-1.350 -0.001,-5.871 -0.105,-6.390 -0.103,-0.519 -0.674,-0.466 -1.349,-0.466 -0.023,0 -0.572,-0.001 -0.632,-0.001 z" style="fill:#e3b020;stroke-width:1px;stroke-linecap:butt;stroke-opacity:1" />
 <path id="path4451" d="m 31.939,3.582 c 0.029,0.075 0.049,0.157 0.074,0.236 0.487,0.010 0.944,0.007 1.431,0.025 0.211,0.007 0.196,0.012 0.402,0.021 -0.038,-0.062 -0.097,-0.102 -0.158,-0.140 -0.045,-0.028 -0.097,-0.050 -0.154,-0.068 -0.046,-0.014 -0.090,-0.030 -0.142,-0.039 -0.045,-0.007 -0.097,-0.011 -0.146,-0.015 -0.202,-0.018 -0.424,-0.017 -0.673,-0.017 -0.023,0 -0.536,-0.001 -0.632,-0.001 z M 13.103,3.734 c -0.079,0.002 -0.155,0.011 -0.234,0.015 -0.001,0.004 -0.002,0.018 -0.003,0.023 -0.026,0.092 -0.053,0.249 -0.082,0.486 0.599,-0.041 1.258,-0.008 1.939,0.052 0.014,-0.161 0.024,-0.367 0.041,-0.503 -0.121,-0.011 -0.246,-0.028 -0.367,-0.037 -0.441,-0.033 -0.873,-0.049 -1.292,-0.037 z m 19.009,0.417 c 0.037,0.162 0.068,0.329 0.091,0.501 0.424,0.009 0.818,0.006 1.240,0.021 0.272,0.009 0.256,0.016 0.519,0.027 -0.010,-0.197 -0.020,-0.405 -0.033,-0.503 -0.237,-0.010 -0.221,-0.014 -0.466,-0.023 -0.458,-0.016 -0.890,-0.013 -1.351,-0.023 z M 13.103,4.564 c -0.118,0.003 -0.232,0.014 -0.347,0.023 -0.013,0.160 -0.027,0.301 -0.035,0.505 0.596,-0.046 1.253,-0.016 1.933,0.042 0.010,-0.196 0.027,-0.328 0.041,-0.503 -0.099,-0.008 -0.200,-0.023 -0.298,-0.031 -0.441,-0.033 -0.873,-0.049 -1.292,-0.037 z m 19.125,0.421 c 0.014,0.161 0.022,0.329 0.029,0.498 0.406,0.009 0.783,0.006 1.187,0.021 0.291,0.010 0.275,0.017 0.554,0.029 -0.004,-0.152 -0.005,-0.317 -0.009,-0.457 -7.85e-4,-0.021 -0.001,-0.021 -0.002,-0.042 -0.264,-0.011 -0.248,-0.017 -0.523,-0.027 -0.419,-0.015 -0.813,-0.011 -1.236,-0.021 z M 13.103,5.437 c -0.130,0.003 -0.257,0.015 -0.384,0.025 -0.002,0.159 -0.003,0.323 -0.002,0.503 0.587,-0.046 1.235,-0.016 1.906,0.041 0.004,-0.158 -4.13e-4,-0.359 0.005,-0.509 -0.077,-0.006 -0.155,-0.017 -0.232,-0.023 C 13.955,5.441 13.522,5.425 13.103,5.437 Z M 32.281,5.857 c 0.002,0.154 0.001,0.341 0,0.501 0.398,0.009 0.768,0.005 1.164,0.019 0.302,0.011 0.286,0.016 0.576,0.029 -0.003,-0.178 -0.007,-0.334 -0.011,-0.501 C 33.734,5.894 33.751,5.889 33.464,5.878 33.063,5.864 32.686,5.867 32.281,5.857 Z M 13.103,6.267 c -0.131,0.003 -0.259,0.017 -0.388,0.027 1.6e-5,5.781e-4 -1.7e-5,0.001 0,0.001 0.004,0.148 0.023,0.337 0.031,0.498 0.577,-0.042 1.213,-0.013 1.869,0.042 0.001,-0.171 3.61e-4,-0.345 0.003,-0.509 -0.073,-0.006 -0.149,-0.017 -0.222,-0.023 -0.441,-0.033 -0.873,-0.049 -1.292,-0.037 z m 19.175,0.421 c -0.002,0.159 -0.002,0.335 -0.005,0.5 0.401,0.010 0.773,0.006 1.171,0.021 0.308,0.011 0.292,0.016 0.587,0.029 -2.56e-4,-0.021 2.66e-4,-0.033 0,-0.054 -0.001,-0.145 -0.001,-0.262 -0.003,-0.408 -2.15e-4,-0.013 2.19e-4,-0.023 0,-0.037 C 33.745,6.727 33.761,6.721 33.464,6.710 33.062,6.696 32.684,6.699 32.279,6.689 Z M 13.103,7.099 c -0.114,0.003 -0.224,0.013 -0.335,0.021 0.01,0.165 0.019,0.325 0.033,0.501 0.559,-0.037 1.173,-0.008 1.804,0.044 -0.001,-0.182 0.005,-0.333 0.005,-0.509 -0.071,-0.006 -0.144,-0.016 -0.214,-0.021 -0.441,-0.033 -0.873,-0.049 -1.292,-0.037 z m 19.167,0.419 c -0.003,0.168 -0.002,0.326 -0.003,0.5 0.403,0.009 0.777,0.006 1.177,0.021 0.307,0.011 0.291,0.016 0.585,0.029 -8.8e-4,-0.190 0.001,-0.304 0,-0.5 -0.285,-0.012 -0.268,-0.018 -0.566,-0.029 -0.404,-0.014 -0.785,-0.011 -1.193,-0.021 z M 13.103,7.931 c -0.095,0.002 -0.187,0.013 -0.281,0.019 0.005,0.055 0.004,0.095 0.009,0.152 0.011,0.121 0.033,0.228 0.048,0.345 0.539,-0.029 1.128,0.001 1.732,0.052 -0.004,-0.174 -0.007,-0.339 -0.009,-0.509 -0.068,-0.005 -0.138,-0.018 -0.207,-0.023 -0.441,-0.033 -0.873,-0.049 -1.292,-0.037 z m 19.160,0.419 c -1.35e-4,0.169 -0.007,0.304 -0.003,0.478 1.21e-4,0.006 -1.2e-4,0.014 0,0.021 0.406,0.009 0.782,0.006 1.185,0.021 0.306,0.011 0.290,0.016 0.583,0.029 3.48e-4,-0.094 0.001,-0.186 0.002,-0.275 3.4e-5,-0.080 1.51e-4,-0.141 0,-0.224 -0.285,-0.012 -0.268,-0.018 -0.566,-0.029 -0.407,-0.014 -0.790,-0.011 -1.201,-0.021 z M 13.103,8.761 c -0.059,0.001 -0.116,0.008 -0.175,0.011 0.027,0.170 0.057,0.337 0.091,0.498 0.509,-0.019 1.060,0.013 1.625,0.062 -0.007,-0.173 -0.013,-0.341 -0.019,-0.511 -0.075,-0.006 -0.153,-0.017 -0.228,-0.023 -0.441,-0.033 -0.873,-0.049 -1.292,-0.037 z m 19.156,0.419 c 0.001,0.158 -2.66e-4,0.333 0,0.5 0.406,0.009 0.782,0.006 1.185,0.021 0.306,0.011 0.290,0.016 0.583,0.029 0.002,-0.126 -0.001,-0.315 0,-0.460 4.5e-5,-0.012 -9.9e-5,-0.026 0,-0.039 -0.284,-0.012 -0.267,-0.018 -0.564,-0.029 -0.408,-0.014 -0.792,-0.011 -1.205,-0.021 z M 13.095,9.593 c 0.042,0.171 0.086,0.338 0.134,0.498 9.31e-4,0.003 0.001,0.006 0.002,0.009 0.462,-0.006 0.954,0.026 1.457,0.070 -0.010,-0.170 -0.024,-0.344 -0.033,-0.513 -0.086,-0.007 -0.174,-0.020 -0.259,-0.027 -0.441,-0.033 -0.873,-0.049 -1.292,-0.037 -0.002,7.67e-5 -0.005,-7.9e-5 -0.007,0 z m 19.164,0.419 c -9.73e-4,0.171 0.003,0.321 0,0.5 0.406,0.009 0.782,0.006 1.185,0.021 0.297,0.010 0.281,0.016 0.566,0.029 0.002,-0.038 0.014,-0.084 0.015,-0.123 0.002,-0.072 -0.002,-0.287 0,-0.376 -0.283,-0.012 -0.266,-0.018 -0.562,-0.029 -0.408,-0.014 -0.792,-0.011 -1.205,-0.021 z m -18.919,0.416 c 0.060,0.177 0.122,0.347 0.187,0.509 0.389,0.005 0.807,0.044 1.220,0.080 -0.014,-0.177 -0.025,-0.351 -0.037,-0.527 -0.104,-0.009 -0.210,-0.023 -0.314,-0.031 -0.360,-0.027 -0.710,-0.033 -1.056,-0.031 z m 18.908,0.416 c -0.004,0.160 -0.015,0.333 -0.021,0.498 0.417,0.009 0.804,0.006 1.218,0.021 0.242,0.008 0.226,0.013 0.460,0.023 0.013,-0.073 0.018,-0.141 0.027,-0.210 0.015,-0.097 0.026,-0.190 0.037,-0.285 -0.256,-0.010 -0.239,-0.015 -0.505,-0.025 -0.412,-0.015 -0.800,-0.011 -1.216,-0.021 z m -18.585,0.425 c 6.5e-4,0.001 0.001,0.002 0.002,0.003 0.078,0.179 0.155,0.319 0.234,0.476 0.005,0.010 0.010,0.020 0.015,0.031 0.295,0.013 0.605,0.046 0.912,0.074 -0.017,-0.175 -0.039,-0.350 -0.054,-0.525 -0.124,-0.011 -0.251,-0.029 -0.375,-0.039 -0.250,-0.018 -0.490,-0.015 -0.734,-0.021 z m 18.550,0.404 c -0.007,0.168 -0.011,0.328 -0.021,0.5 0.428,0.009 0.827,0.005 1.253,0.021 0.139,0.005 0.128,0.008 0.265,0.013 0.021,-0.078 0.041,-0.155 0.060,-0.234 0.023,-0.086 0.049,-0.173 0.068,-0.259 -0.192,-0.008 -0.177,-0.012 -0.375,-0.019 -0.424,-0.015 -0.824,-0.011 -1.251,-0.021 z m -18.126,0.445 c 0.095,0.177 0.176,0.346 0.261,0.498 0.002,0.004 0.005,0.010 0.007,0.015 0.181,0.013 0.375,0.044 0.560,0.062 -0.021,-0.172 -0.035,-0.346 -0.054,-0.519 -0.154,-0.015 -0.311,-0.035 -0.464,-0.046 -0.105,-0.007 -0.205,-0.003 -0.310,-0.009 z m 18.091,0.392 c -0.010,0.161 -0.033,0.333 -0.046,0.498 0.449,0.01 0.867,0.007 1.314,0.023 0.004,1.5e-4 0.003,-1.5e-4 0.007,0 0.001,-0.005 0.004,-0.010 0.005,-0.015 0.057,-0.159 0.113,-0.312 0.164,-0.476 -0.082,-0.003 -0.075,-0.004 -0.158,-0.007 -0.436,-0.015 -0.847,-0.011 -1.287,-0.021 z m -17.628,0.462 c 0.047,0.084 0.113,0.195 0.152,0.269 0.019,0.036 0.078,0.213 0.103,0.269 0.075,0.007 0.154,0.017 0.230,0.025 -0.025,-0.173 -0.055,-0.343 -0.078,-0.517 -0.136,-0.013 -0.272,-0.035 -0.408,-0.046 z m 17.550,0.367 c -0.014,0.164 -0.031,0.329 -0.048,0.496 0.367,0.008 0.706,0.007 1.074,0.019 0.070,-0.152 0.132,-0.318 0.197,-0.482 0.001,-0.003 0.002,-0.007 0.003,-0.011 -0.417,-0.014 -0.807,-0.011 -1.226,-0.021 z m -17.166,0.503 c 0.062,0.156 0.124,0.317 0.205,0.537 0.008,8.89e-4 0.016,0.001 0.025,0.002 -0.029,-0.171 -0.052,-0.348 -0.080,-0.521 -0.050,-0.005 -0.100,-0.012 -0.150,-0.017 z m 17.085,0.324 c -0.019,0.168 -0.030,0.330 -0.052,0.5 0.247,0.006 0.471,0.004 0.718,0.011 0.025,-0.039 0.048,-0.096 0.074,-0.138 0.063,-0.116 0.125,-0.235 0.189,-0.357 -0.318,-0.010 -0.611,-0.007 -0.929,-0.015 z m -0.107,0.830 c -0.023,0.165 -0.057,0.330 -0.083,0.496 0.142,0.003 0.270,0.004 0.412,0.007 0.114,-0.226 0.183,-0.345 0.265,-0.494 -0.203,-0.005 -0.389,-0.004 -0.593,-0.009 z m -0.138,0.828 c -0.028,0.167 -0.051,0.333 -0.083,0.5 0.048,0.001 0.094,0.001 0.142,0.002 0.009,-0.019 0.012,-0.025 0.021,-0.042 0.077,-0.158 0.154,-0.311 0.224,-0.453 -0.103,-0.002 -0.200,-0.003 -0.304,-0.005 z m -0.140,0.828 c -0.008,0.040 -0.011,0.080 -0.019,0.121 0.018,-0.040 0.039,-0.085 0.056,-0.121 -0.012,-2.06e-4 -0.024,2.24e-4 -0.037,0 z" style="font-style:normal;font-variant:normal;font-weight:normal;font-stretch:normal;font-size:medium;line-height:normal;font-family:sans-serif;text-indent:0;text-align:start;text-decoration:none;text-decoration-line:none;text-decoration-style:letter-spacing:normal;word-spacing:normal;text-transform:none;direction:ltr;block-progression:tb;writing-mode:lr-tb;baseline-shift:baseline;text-anchor:start;white-space:normal;fill:#ffffff;fill-opacity:0.380;stroke-width:0.5;stroke-linecap:butt;" />
 <path id="path4167-8" d="M 21.974,27.843 C 18.753,26.908 19.844,27.168 18.597,24.103 17.350,21.038 15.169,14.129 14.701,13.246 14.234,12.362 13.091,10.752 12.831,8.103 c -0.259,-2.649 -0.051,-4.155 0.051,-4.415 0.103,-0.259 0.467,-0.155 1.506,-0.155 1.038,0 17.506,0.051 18.182,0.051 0.675,0 1.246,-0.051 1.350,0.467 0.103,0.519 0.155,5.039 0.103,6.389 -0.051,1.350 -0.675,3.220 -1.350,4.259 -0.675,1.038 -4.155,8.727 -4.623,9.922 -0.467,1.194 -0.831,2.961 -1.506,2.909 -0.675,-0.051 -4.571,0.311 -4.571,0.311 z" style="fill:none;stroke:#1e2246;stroke-width:0.5;stroke-linecap:butt;stroke-opacity:1" />
 <path id="path4566" d="m 20.570,4.564 c -2.846,0.045 -5.587,0.204 -7.849,0.527 -0.028,0.734 -0.014,1.732 0.111,3.011 0.259,2.649 1.401,4.259 1.869,5.142 0.467,0.883 2.649,7.792 3.896,10.857 0.381,0.937 0.541,1.541 0.675,1.986 0.225,-1.309 0.419,-2.666 0.365,-3.322 -0.124,-1.491 4.102,-2.860 6.339,-1.617 1.476,0.820 1.274,4.050 0.966,6.169 0.437,-0.490 0.741,-1.762 1.107,-2.697 0.467,-1.194 3.947,-8.882 4.623,-9.921 0.675,-1.038 1.299,-2.909 1.351,-4.259 0.041,-1.066 0.014,-4.039 -0.048,-5.527 C 30.823,4.723 25.734,4.481 20.570,4.564 Z" style="fill:#b7bce0;fill-opacity:0.190;stroke-width:1px;stroke-linecap:butt;stroke-opacity:1" />
 <path id="path4568" d="m 14.695,3.531 c -0.276,3.137 0.999,10.162 1.587,12.025 0.167,0.530 0.197,1.467 0.162,2.554 0.707,2.067 1.476,4.284 2.068,5.767 0.056,-0.378 0.102,-0.781 0.130,-1.236 0.372,-5.966 -0.870,-7.458 -1.740,-9.820 -0.798,-2.168 -0.216,-5.893 0.650,-9.281 -0.859,-0.002 -2.616,-0.009 -2.859,-0.009 z" style="fill:#cbd0fb;fill-opacity:0.110;stroke-width:1px;stroke-linecap:butt;stroke-opacity:1" />
 <path id="path4570" d="m 26.156,3.564 c -0.351,2.594 -0.443,6.579 0.195,8.388 0.745,2.113 -0.746,6.960 -0.746,8.203 0,0.901 0.435,4.834 0.722,7.380 0.055,4.83e-4 0.181,-0.008 0.218,-0.005 0.675,0.051 1.038,-1.713 1.505,-2.908 0.038,-0.097 0.288,-0.640 0.363,-0.816 -0.110,-1.283 -0.143,-2.666 0.048,-3.773 0.497,-2.858 0.247,-7.582 -0.125,-10.068 C 28.082,8.251 27.998,5.317 27.810,3.570 27.191,3.568 26.878,3.566 26.156,3.564 Z" style="fill:#cbd0fb;fill-opacity:0.104;stroke-width:1px;stroke-linecap:butt;stroke-opacity:1" />
 <path id="path4627" d="m 25.663,15.993 c 0.285,1.486 -0.394,3.259 -0.518,4.626 -0.124,1.367 0.958,4.384 0.336,6.746" style="fill:none;stroke:#2e3140;stroke-width:2.599;stroke-linecap:round;stroke-opacity:0.079" />
 <path id="path4572" d="m 34.029,9.667 c -1.112,2.604 -2.767,6.169 -4.072,8.126 -1.571,2.357 -3.035,6.028 -2.574,8.732 0.231,-0.581 0.438,-1.312 0.669,-1.904 0.467,-1.194 3.947,-8.882 4.623,-9.921 0.675,-1.038 1.299,-2.909 1.351,-4.259 0.005,-0.148 -0.001,-0.557 0.002,-0.773 z" style="fill:#040406;fill-opacity:0.214;stroke-width:1px;stroke-linecap:butt;stroke-opacity:1" />
 <path id="path4574" d="m 21.379,29.479 c -2.237,-3.107 -1.615,-6.960 0.248,-7.458 1.864,-0.497 5.220,-0.745 3.977,2.361 -1.243,3.107 -3.853,5.344 -3.853,5.344 z" style="fill:#0d0f1e;fill-opacity:0.104;stroke-width:1px;stroke-linecap:butt;stroke-opacity:1" />
 <path id="path4660" d="m 25.325,24.410 c -1.542,-0.707 -3.792,-0.064 -4.435,1.092" style="fill:none;stroke:#313743;stroke-width:1.8;stroke-linecap:round;stroke-opacity:0.368;stroke-dasharray:none" />
 <circle r="3.505" cy="27.869" cx="23.774" id="path4459" style="fill:#b3b3b3;stroke-width:0.5;stroke-linecap:butt;marker:none;" />
 <circle style="fill:#a2a2a2;stroke-width:0.699;stroke-linecap:butt;marker:none;" id="circle4490" cx="23.774" cy="27.869" r="2.843" />
 <circle r="1.701" cy="27.869" cx="23.774" id="circle4532" style="fill:#666666;stroke-width:0.699;stroke-linecap:butt;marker:none;" />
 <circle style="fill:#878787;stroke-width:0.699;stroke-linecap:butt;marker:none;" id="circle4534" cx="23.774" cy="27.869" r="1.337" />
 <circle r="8.087" cy="36.738" cx="23.602" id="path4219" style="fill:#b3b3b3;stroke-width:0.699;stroke-linecap:butt;marker:none;" />
 <circle style="fill:#999999;stroke-width:0.699;stroke-linecap:butt;marker:none;" id="circle4346" cx="23.602" cy="36.738" r="7.308" />
 <path id="path4376" d="m 23.601,28.650 a 8.087,8.087 0 0 0 -8.087,8.087 8.087,8.087 0 0 0 0.117,1.355 6.805,6.805 0 0 0 5.408,2.685 6.805,6.805 0 0 0 6.804,-6.804 6.805,6.805 0 0 0 -2.275,-5.070 8.087,8.087 0 0 0 -1.966,-0.253 z" style="fill:#c1c1c1;fill-opacity:0.232;stroke-width:0.5;stroke-linecap:butt;stroke-linejoin:round;stroke-opacity:0.707;marker:none;" />
 <path id="path4348" d="m 17.558,40.882 c 1.142,1.662 2.649,2.441 3.168,2.649" style="fill:none;stroke:#e4e4e4;stroke-width:0.5;stroke-linecap:butt;stroke-opacity:0.707" />
 <path id="path4381" d="m 19.117,38.493 c 1.662,3.220 4.935,3.064 6.233,2.649" style="fill:none;stroke:#e4e4e4;stroke-width:2.599;stroke-linecap:butt;stroke-opacity:0.292" />
 <path id="path8735" d="m 20.794,30.785 c -0.024,0.019 -0.048,0.036 -0.072,0.056 0.025,-0.019 0.050,-0.036 0.072,-0.056 z m -0.076,0.060 c -0.535,0.403 -1.872,0.706 -1.585,1.333 0.719,0.089 0.865,-0.723 1.585,-1.333 z m 5.755,0 c 0.720,0.610 0.867,1.423 1.587,1.333 0.286,-0.627 -1.052,-0.930 -1.587,-1.333 z m -7.490,0.660 c -0.673,0.566 -0.731,0.986 -0.503,1.339 0.605,-0.498 0.268,-0.620 0.503,-1.339 z m 9.226,0 c 0.235,0.719 -0.103,0.841 0.501,1.339 0.227,-0.352 0.171,-0.773 -0.501,-1.339 z m -9.927,0.769 c -0.640,0.738 -0.631,1.210 -0.320,1.558 0.577,-0.652 0.187,-0.728 0.320,-1.558 z m 10.628,0 c 0.133,0.830 -0.259,0.905 0.318,1.558 0.311,-0.347 0.322,-0.819 -0.318,-1.558 z m -9.150,0.072 c -0.329,0.177 -0.479,0.035 -0.699,0.111 -0.099,0.034 -0.215,0.113 -0.367,0.287 0.489,0.237 0.752,-0.067 1.066,-0.398 z m 7.671,0 c 0.313,0.331 0.574,0.635 1.064,0.398 -0.152,-0.173 -0.265,-0.252 -0.365,-0.287 -0.219,-0.075 -0.369,0.065 -0.699,-0.111 z m -8.152,0.716 c -0.300,0.228 -0.483,0.143 -0.685,0.216 -0.121,0.044 -0.249,0.146 -0.414,0.406 0.578,0.175 0.812,-0.205 1.099,-0.623 z m 8.632,0 c 0.286,0.417 0.521,0.798 1.099,0.623 -0.164,-0.260 -0.292,-0.362 -0.414,-0.406 -0.202,-0.073 -0.385,0.011 -0.685,-0.216 z M 17.630,33.257 c -0.558,0.931 -0.456,1.445 -0.048,1.765 0.506,-0.825 0.063,-0.831 0.048,-1.765 z m 11.933,0 c -0.014,0.934 -0.457,0.939 0.048,1.765 0.407,-0.320 0.509,-0.833 -0.048,-1.765 z M 18.875,33.927 c -0.455,0.493 -0.736,0.051 -1.082,0.894 0.666,0.080 0.848,-0.381 1.082,-0.894 z m 9.443,0 c 0.036,0.081 0.072,0.155 0.109,0.232 0.039,-0.019 0.079,-0.052 0.117,-0.066 -0.072,-0.041 -0.143,-0.076 -0.226,-0.166 z m -11.210,0.529 c -0.411,1.134 -0.190,1.672 0.322,1.935 0.377,-1.007 -0.108,-0.919 -0.322,-1.935 z m 12.978,0 c -0.213,1.015 -0.697,0.927 -0.320,1.935 0.512,-0.263 0.731,-0.800 0.320,-1.935 z m -11.476,0.466 c -0.392,0.634 -0.794,0.212 -0.992,1.205 0.744,-0.053 0.846,-0.596 0.992,-1.205 z m 10.630,0.546 -0.451,0.105 c 0.131,0.297 0.337,0.520 0.789,0.552 -0.081,-0.407 -0.202,-0.556 -0.337,-0.658 z m -12.460,0.378 c -0.185,1.328 0.177,1.863 0.794,2.031 0.177,-1.182 -0.327,-0.976 -0.794,-2.031 z m 13.636,0 c -0.467,1.054 -0.974,0.848 -0.796,2.031 0.617,-0.167 0.981,-0.702 0.796,-2.031 z m -11.898,0.162 c -0.279,0.780 -0.814,0.412 -0.800,1.537 0.796,-0.230 0.782,-0.841 0.800,-1.537 z m 10.160,0 c 0.017,0.695 0.004,1.306 0.800,1.537 0.014,-1.124 -0.520,-0.757 -0.800,-1.537 z m -0.158,1.244 c -0.167,0.754 -0.347,1.412 0.449,1.875 0.317,-1.209 -0.357,-0.958 -0.449,-1.875 z m -11.761,0.292 c 0.100,0.944 0.353,1.479 0.708,1.748 l -0.089,-0.673 0.238,-0.273 c -0.226,-0.176 -0.507,-0.350 -0.857,-0.800 z m 13.679,0 c -0.787,1.011 -1.277,0.653 -1.404,1.976 0.710,-0.014 1.246,-0.494 1.404,-1.976 z m -2.396,0.906 c -0.396,0.761 -0.781,1.415 -0.058,2.140 0.688,-1.206 -0.106,-1.130 0.058,-2.140 z m -8.925,0.646 c -0.131,0.418 -0.397,0.630 0.095,1.494 0.464,-0.466 0.452,-0.904 0.292,-1.359 l -0.074,0.037 z m -1.935,0.218 c 0.595,1.544 1.308,1.905 2.076,1.716 -0.516,-1.383 -0.940,-0.857 -2.076,-1.716 z m 12.835,0 c -1.135,0.859 -1.559,0.333 -2.076,1.716 0.767,0.188 1.480,-0.171 2.076,-1.716 z m -10.048,0.224 c 0.485,1.028 -0.388,1.190 0.716,2.267 0.549,-0.996 -0.059,-1.576 -0.716,-2.267 z m 7.261,0 c -0.656,0.691 -1.266,1.271 -0.716,2.267 1.104,-1.077 0.231,-1.239 0.716,-2.267 z m -6.142,0.869 c 0.849,0.934 -0.026,1.391 1.498,2.177 0.260,-1.236 -0.575,-1.656 -1.498,-2.177 z m 5.023,0 c -0.922,0.521 -1.758,0.940 -1.498,2.177 1.524,-0.785 0.648,-1.242 1.498,-2.177 z m -7.986,0.660 c 1.108,1.468 1.980,1.633 2.742,1.197 -0.974,-1.319 -1.266,-0.627 -2.742,-1.197 z m 10.947,0 c -1.475,0.569 -1.766,-0.121 -2.742,1.197 0.761,0.436 1.633,0.270 2.742,-1.197 z m -7.449,1.376 c -0.502,-0.001 -0.955,0.260 -1.996,0.185 1.655,1.199 2.635,1.092 3.302,0.380 -0.595,-0.440 -0.962,-0.565 -1.306,-0.566 z m 3.953,0 c -0.343,0.001 -0.711,0.125 -1.306,0.566 0.667,0.711 1.647,0.818 3.302,-0.380 -1.041,0.074 -1.493,-0.187 -1.996,-0.185 z" style="fill:#666666;stroke-width:0.2;stroke-linejoin:round;stroke-opacity:1" />
 <circle r="0.519" cy="39.064" cx="26.078" id="path4419" style="fill:#c1c1c1;fill-opacity:0.232;stroke-width:2.599;stroke-linecap:butt;stroke-linejoin:round;stroke-opacity:0.292;marker:none;" />
 <circle r="0.675" cy="30.181" cx="21.506" id="path4432" style="fill:#dddddd;fill-opacity:0.408;stroke-width:2.599;stroke-linecap:butt;stroke-linejoin:round;stroke-opacity:0.292;marker:none;" />
 <circle r="0.467" cy="29.713" cx="22.961" id="path4434" style="fill:#dddddd;fill-opacity:0.408;stroke-width:2.599;stroke-linecap:butt;stroke-linejoin:round;stroke-opacity:0.292;marker:none;" />
 <path id="path4165" style="font-style:normal;font-variant:normal;font-weight:normal;font-stretch:condensed;font-size:medium;line-height:125%;font-family:'Bernard MT Condensed';-inkscape-font-specification:'Bernard MT Condensed, Condensed';letter-spacing:0px;word-spacing:0px;fill:#464646;stroke-width:1px;stroke-linecap:butt;stroke-opacity:1" d="m 22.336,33.919 q -0.545,0.187 -0.926,0.187 -0.187,0 -0.187,-0.205 l 0,-0.242 q 0,-0.139 0.054,-0.205 0.054,-0.072 0.272,-0.157 0.290,-0.121 0.793,-0.490 0.502,-0.369 0.981,-0.987 0.369,-0.478 0.436,-0.514 0.066,-0.042 0.230,-0.042 l 0.502,0 0,8.764 q 0,0.133 0.205,0.236 0.175,0.084 0.211,0.181 0.042,0.090 0.042,0.490 0,0.157 -0.211,0.157 l -2.774,0 q -0.175,0 -0.218,-0.054 -0.036,-0.054 -0.036,-0.266 0,-0.302 0.030,-0.375 0.036,-0.072 0.254,-0.139 0.339,-0.102 0.339,-0.296 l 0,-6.038 z" />
 <path d="m 22.647,33.555 q -0.545,0.187 -0.926,0.187 -0.187,0 -0.187,-0.205 l 0,-0.242 q 0,-0.139 0.054,-0.205 0.054,-0.072 0.272,-0.157 0.290,-0.121 0.793,-0.490 0.502,-0.369 0.981,-0.987 0.369,-0.478 0.436,-0.514 0.066,-0.042 0.230,-0.042 l 0.502,0 0,8.764 q 0,0.133 0.205,0.236 0.175,0.084 0.211,0.181 0.042,0.090 0.042,0.490 0,0.157 -0.211,0.157 l -2.774,0 q -0.175,0 -0.218,-0.054 -0.036,-0.054 -0.036,-0.266 0,-0.302 0.030,-0.375 0.036,-0.072 0.254,-0.139 0.339,-0.102 0.339,-0.296 l 0,-6.038 z" style="font-style:normal;font-variant:normal;font-weight:normal;font-stretch:condensed;font-size:medium;line-height:125%;font-family:'Bernard MT Condensed';-inkscape-font-specification:'Bernard MT Condensed, Condensed';letter-spacing:0px;word-spacing:0px;fill:#666666;stroke-width:1px;stroke-linecap:butt;stroke-opacity:1" id="path4152" />
 <path id="path4162" d="m 24.269,31.242 c -0.015,0.015 -0.037,0.040 -0.068,0.076 -0.066,0.077 -0.162,0.196 -0.283,0.353 -0.334,0.432 -0.684,0.785 -1.052,1.056 -0.346,0.254 -0.621,0.431 -0.867,0.533 a 0.357,0.357 0 0 1 -0.007,0.003 c -0.103,0.040 -0.122,0.066 -0.099,0.033 l 0,0.052 c 0.180,-0.017 0.371,-0.042 0.640,-0.134 a 0.357,0.357 0 0 1 0.474,0.337 l 0,6.039 c -1e-6,0.169 -0.092,0.339 -0.207,0.439 -0.114,0.100 -0.243,0.155 -0.386,0.199 -0.016,0.005 -0.015,0.009 -0.027,0.015 -0.001,0.034 -0.001,0.072 -0.002,0.121 l 2.517,0 c -0.001,-0.027 -2.38e-4,-0.072 -0.002,-0.093 -0.005,-0.065 -0.029,-0.110 0,-0.046 a 0.357,0.357 0 0 1 -0.009,-0.025 c 0.031,0.083 0.043,0.053 -0.035,0.015 a 0.357,0.357 0 0 1 -0.003,-0.002 c -0.096,-0.048 -0.185,-0.107 -0.263,-0.197 -0.077,-0.089 -0.138,-0.224 -0.138,-0.359 l 0,-8.406 -0.146,0 c -0.064,0 -0.062,0.006 -0.031,-0.011 z m -2.386,2.058 c 0.003,-0.004 -0.014,0.010 -0.009,0.003 a 0.357,0.357 0 0 1 -0.007,0.011 c 0.027,-0.033 0.019,-0.023 0.017,-0.015 z" style="font-style:normal;font-variant:normal;font-weight:normal;font-stretch:condensed;font-size:medium;line-height:125%;font-family:'Bernard MT Condensed';-inkscape-font-specification:'Bernard MT Condensed, Condensed';letter-spacing:0px;word-spacing:0px;fill:#878787;stroke-width:1px;stroke-linecap:butt;stroke-opacity:1" />
 <path id="path4629" d="m 17.402,13.568 c 0.994,2.113 1.243,5.717 1.367,6.463 0.124,0.745 0.124,2.486 1.118,4.972" style="fill:none;stroke:#2e3140;stroke-width:2.2;stroke-linecap:round;stroke-opacity:0.116;filter-blend-mode:normal;filter-gaussianBlur-deviation:0;" />
 <path id="path4219-9" d="m 23.775,24.363 a 3.505,3.505 0 0 0 -3.505,3.505 3.505,3.505 0 0 0 0.289,1.382 8.087,8.087 0 0 0 -5.044,7.486 8.087,8.087 0 0 0 8.087,8.087 8.087,8.087 0 0 0 8.087,-8.087 8.087,8.087 0 0 0 -4.753,-7.361 3.505,3.505 0 0 0 0.343,-1.507 3.505,3.505 0 0 0 -3.503,-3.505 z" style="fill:none;stroke:#323232;stroke-width:0.5;stroke-linecap:butt;marker:none;" />
 </g>
</svg>
