<?xml version="1.0" encoding="UTF-8" standalone="no"?>
<svg xmlns:dc="http://purl.org/dc/elements/1.1/" xmlns:cc="http://creativecommons.org/ns#" xmlns:rdf="http://www.w3.org/1999/02/22-rdf-syntax-ns#" xmlns:svg="http://www.w3.org/2000/svg" xmlns="http://www.w3.org/2000/svg" viewBox="0 0 48 48" version="1.1" id="medal01" height="100%" width="100%">
 <defs id="defs4138" />
 <g style="opacity:1" id="layer2">
 <path id="path5121" d="m 24,18.875 a 4,4 0 0 0 -4,4 4,4 0 0 0 4,4 4,4 0 0 0 4,-4 4,4 0 0 0 -4,-4 z m 0,1 a 3,3 0 0 1 3,3 3,3 0 0 1 -3,3 3,3 0 0 1 -3,-3 3,3 0 0 1 3,-3 z" style="fill:#8a7c57;stroke:#2a1f12;stroke-width:0.5;stroke-linecap:round;marker:none;" />
 <path id="path4697" d="m 21.050,23.288 c -1.627,-0.610 -3.966,-4.271 -5.186,-6 C 14.644,15.559 13.932,13.423 13.728,12 13.525,10.576 13.318,6.174 13.016,3.762 12.715,1.350 15.254,2.440 16.271,2.440 c 1.016,0 9.864,-1.118 12.813,-0.711 2.949,0.406 5.186,-0.203 5.389,1.932 0.203,2.135 -0.203,9.966 -0.305,11.084 -0.101,1.118 -4.067,6.203 -7.016,7.932 -0.203,0 -0.508,-0.915 -0.508,-0.915 0,0 -0.305,0.915 -0.711,1.322 -0.406,0.406 -3.254,0.610 -3.559,0.508 -0.305,-0.101 -0.711,-1.016 -0.711,-1.016 z" style="fill:#c7242a;stroke-width:1px;stroke-linecap:butt;stroke-opacity:1" />
 <path id="path4841" d="m 31.751,16.087 c -0.474,-0.026 -0.947,0.052 -1.365,0.302 -2.522,2.109 -3.042,3.303 -3.742,5.373 0,0 0.304,0.914 0.507,0.914 2.126,-1.246 4.761,-4.221 6.115,-6.212 -0.460,-0.186 -0.984,-0.347 -1.515,-0.376 z" style="fill:#88191d;stroke-width:1px;stroke-linecap:butt;stroke-opacity:1" />
 <path id="path4162" d="M 30.117,3.125 C 28.336,3.124 26.572,3.412 24.800,3.494 23.288,3.436 21.702,2.852 20.25,3.570 c -2.013,0.579 -4.163,0.386 -6.234,0.265 -0.331,-0.013 -0.664,-0.044 -0.998,-0.074 8.8e-5,7.077e-4 -8.8e-5,0.001 0,0.001 0.010,0.087 0.018,0.212 0.029,0.304 2.376,0.173 4.775,0.392 7.117,-0.130 1.383,-0.781 2.958,-0.253 4.425,-0.148 1.221,0.032 2.301,-0.216 3.519,-0.259 1.062,-0.085 2.133,-0.156 3.197,-0.042 0.728,0.485 2.069,0.589 3.187,0.595 -0.005,-0.100 -0.006,-0.227 -0.013,-0.312 C 33.399,3.763 32.313,3.737 31.363,3.189 30.949,3.143 30.533,3.125 30.117,3.125 Z M 13.150,5.105 c 0.009,0.103 0.019,0.191 0.029,0.296 6.950,0.372 13.917,-0.160 20.871,0.091 0.158,-0.030 0.316,-0.004 0.474,0.037 3.6e-5,-0.088 4.16e-4,-0.174 0,-0.259 C 32.569,5.047 30.585,5.161 28.619,5.128 23.464,5.168 18.301,5.381 13.150,5.105 Z m 21.246,1.699 c -0.286,-0.012 -0.573,-0.009 -0.859,0.001 -4.055,0.245 -8.122,0.060 -12.183,0.146 -2.672,0.042 -5.354,0.112 -8.017,0.339 0.007,0.099 0.016,0.197 0.023,0.296 C 19.672,7.081 26.016,7.327 32.341,7.179 c 0.716,-0.059 1.442,-0.092 2.160,-0.054 0.002,-0.101 0.006,-0.209 0.007,-0.308 -0.037,-0.002 -0.075,-0.010 -0.113,-0.011 z M 18.232,8.380 c -1.594,0.050 -3.204,0.106 -4.791,0.281 0.007,0.108 0.013,0.200 0.021,0.306 6.980,-0.682 13.996,0.014 20.988,0.060 0.003,-0.100 0.004,-0.190 0.007,-0.291 C 29.048,8.677 23.644,8.261 18.232,8.380 Z m 5.791,1.833 c -3.483,-0.011 -6.976,-0.007 -10.453,0.177 0.009,0.114 0.018,0.179 0.027,0.287 6.923,-0.326 13.860,-0.082 20.785,-0.074 0.005,-0.125 0.010,-0.159 0.015,-0.287 -3.458,-0.018 -6.916,-0.079 -10.375,-0.103 z m 10.308,1.375 c -1.505,0.026 -3.003,0.257 -4.513,0.183 -5.342,0.037 -10.707,0.019 -16.027,0.527 0.016,0.090 0.040,0.189 0.060,0.285 5.984,-0.538 12.002,-0.462 18.003,-0.535 0.792,-0.021 1.643,-0.184 2.462,-0.181 0.005,-0.105 0.008,-0.169 0.013,-0.279 z M 17.812,12.949 c -1.204,0.285 -2.404,0.703 -3.480,1.324 0.035,0.098 0.060,0.191 0.099,0.291 1.117,-0.625 2.330,-1.135 3.591,-1.296 1.892,0.143 3.756,0.522 5.597,0.970 2.316,0.096 4.644,0.010 6.941,-0.306 1.185,-0.391 2.429,-0.123 3.648,0.019 0.004,-0.062 0.010,-0.237 0.015,-0.310 -1.025,-0.136 -2.052,-0.244 -3.083,-0.171 -1.062,0.324 -2.241,0.331 -3.433,0.437 -1.773,0.045 -3.595,0.254 -5.320,-0.259 -1.507,-0.333 -3.034,-0.595 -4.576,-0.697 z m 1.201,1.253 c -1.099,0.008 -1.843,1.113 -3.007,0.972 -0.367,0.057 -0.765,0.205 -1.115,0.414 0.041,0.086 0.073,0.173 0.117,0.259 0.703,-0.423 1.726,-0.384 2.472,-0.689 0.497,-0.332 1.018,-0.668 1.623,-0.689 0.108,-0.080 0.045,-0.268 -0.089,-0.267 z m 0.335,0.363 c -0.268,0.047 -0.077,0.424 0.156,0.332 3.590,0.710 7.271,0.731 10.916,0.660 1.086,-0.340 2.163,0.009 3.201,0.351 0.053,-0.088 0.102,-0.172 0.148,-0.253 -0.192,-0.057 -0.385,-0.111 -0.570,-0.201 -1.178,-0.536 -2.398,-0.193 -3.527,-0.181 -3.451,0.051 -6.929,-0.023 -10.324,-0.707 z m 0.123,1.087 c -1.201,0.583 -2.576,0.798 -3.773,1.380 0.053,0.080 0.102,0.165 0.158,0.244 1.215,-0.558 2.589,-0.750 3.759,-1.396 0.066,-0.104 -0.022,-0.242 -0.144,-0.228 z m 1.316,0.417 c -0.401,0.089 -1.007,-0.136 -1.324,0.166 -0.030,0.386 0.547,0.104 0.742,0.150 3.047,-0.155 6.032,1.260 9.060,0.792 0.629,0.639 1.333,1.210 2.042,1.771 0.066,-0.075 0.135,-0.150 0.201,-0.226 -0.655,-0.527 -1.312,-1.052 -1.921,-1.632 l -0.064,-0.042 0.326,-0.277 c -0.029,-0.019 -0.067,-0.031 -0.125,-0.021 -2.629,0.688 -5.275,-0.426 -7.898,-0.626 -0.345,-0.031 -0.692,-0.050 -1.039,-0.052 z m 9.810,0.187 c -0.194,-0.001 -0.181,0.317 0.011,0.300 0.753,0.040 1.389,0.406 1.976,0.847 0.065,-0.085 0.125,-0.166 0.187,-0.25 -0.642,-0.480 -1.362,-0.854 -2.175,-0.898 z m -10.615,0.923 c -1.084,0.422 -2.350,0.618 -3.300,1.285 0.062,0.090 0.109,0.157 0.173,0.25 0.942,-0.641 2.160,-0.792 3.197,-1.251 l -0.070,-0.283 z m 0.203,0.408 c -0.194,0.002 -0.175,0.321 0.017,0.300 2.737,0.100 5.465,0.640 8.201,0.580 0.218,-0.176 -0.161,-0.415 -0.335,-0.277 -2.638,-0.039 -5.248,-0.496 -7.882,-0.603 z m 8.609,0.361 c -0.257,0.026 -0.109,0.403 0.083,0.425 0.539,0.484 1.016,1.041 1.503,1.582 0.072,-0.075 0.148,-0.144 0.220,-0.220 -0.565,-0.636 -1.127,-1.276 -1.792,-1.787 l -0.015,0 z m -8.466,0.605 c -0.664,0.541 -1.568,0.577 -2.355,0.863 -0.108,0.059 -0.269,0.147 -0.427,0.248 0.055,0.077 0.111,0.152 0.167,0.230 0.008,-0.002 0.012,-0.014 0.021,-0.015 0.823,-0.574 2.110,-0.307 2.748,-1.160 0.011,-0.087 -0.065,-0.171 -0.154,-0.166 z m 7.486,0.484 c -0.299,0.058 -0.035,0.449 0.195,0.375 0.670,0.351 0.801,1.127 1.058,1.800 0.081,-0.072 0.162,-0.136 0.244,-0.210 -0.325,-0.822 -0.493,-1.767 -1.498,-1.964 z m -2.347,0.064 c -1.602,0.082 -3.202,0.483 -4.806,0.337 l 0.093,0.296 c 2.153,0.247 4.306,-0.676 6.443,-0.193 0.106,0.278 0.597,0.133 0.361,-0.115 -0.574,-0.454 -1.412,-0.286 -2.091,-0.326 z m -4.423,1.025 c -0.813,0.220 -1.489,0.843 -2.259,1.162 0.065,0.078 0.129,0.164 0.195,0.240 0.696,-0.301 1.317,-0.814 2.027,-1.087 l 0,-0.002 c 0.055,-0.021 0.109,-0.046 0.166,-0.064 0.089,-0.097 0.001,-0.264 -0.128,-0.248 z m 6.193,0.085 -0.140,0.259 c 0.035,0.022 0.072,0.043 0.113,0.042 0.510,0.406 0.658,0.996 0.730,1.611 0.090,-0.065 0.176,-0.115 0.267,-0.185 C 28.096,21.237 27.865,20.555 27.238,20.218 Z m -1.275,0.429 c -1.616,0.026 -3.252,0.489 -4.853,0.115 l 0.101,0.316 c 1.806,0.456 3.663,-0.310 5.458,-0.062 0.252,0.123 0.309,-0.300 0.050,-0.337 -0.251,-0.024 -0.504,-0.034 -0.757,-0.031 z m -4.529,0.814 c -0.625,0.143 -1.123,0.548 -1.613,0.955 0.082,0.077 0.161,0.137 0.242,0.207 0.460,-0.366 0.922,-0.737 1.486,-0.912 0.086,-0.094 0.012,-0.255 -0.115,-0.25 z m 3.220,0.261 c -1.023,-0.011 -2.054,0.100 -3.070,0.126 -0.237,0.207 0.198,0.405 0.375,0.281 1.476,-0.017 3.020,-0.319 4.435,0.230 0.053,-0.111 0.066,-0.142 0.103,-0.234 -0.053,-0.091 -0.165,-0.164 -0.273,-0.132 -0.502,-0.179 -1.038,-0.254 -1.570,-0.271 z" style="font-style:normal;font-variant:normal;font-weight:normal;font-stretch:normal;font-size:medium;line-height:normal;font-family:sans-serif;text-indent:0;text-align:start;text-decoration:none;text-decoration-line:none;text-decoration-style:letter-spacing:normal;word-spacing:normal;text-transform:none;direction:ltr;block-progression:tb;writing-mode:lr-tb;baseline-shift:baseline;text-anchor:start;white-space:normal;fill:#f17155;fill-opacity:0.306;stroke-width:0.300;stroke-linecap:round;marker:none;" />
 <path id="path4699" d="m 27.564,1.644 c -0.216,-0.001 -0.466,0.006 -0.701,0.009 0.096,1.164 0.212,2.665 0.308,4.265 0.057,0.951 0.104,1.863 0.130,2.599 0.026,0.735 0.029,1.316 0.009,1.513 -0.103,1.039 -0.407,5.090 -0.509,6.621 -0.097,1.461 0.067,3.014 0.273,3.871 L 27.619,19.5 c -0.104,-0.804 -0.181,-1.836 -0.117,-2.798 0.101,-1.520 0.408,-5.603 0.507,-6.597 0.031,-0.311 0.019,-0.864 -0.007,-1.609 C 27.974,7.749 27.928,6.832 27.871,5.876 27.775,4.290 27.661,2.816 27.564,1.644 Z m -2.369,0.066 c -0.232,0.011 -0.462,0.022 -0.701,0.037 0.047,1.862 0.276,7.942 0.378,8.964 0.018,0.187 -0.002,0.678 -0.052,1.271 -0.050,0.593 -0.126,1.307 -0.203,2.025 -0.076,0.718 -0.151,1.440 -0.203,2.058 -0.051,0.617 -0.081,1.116 -0.050,1.455 0.102,1.126 0.403,4.052 0.615,5.216 0.039,0.217 0.101,0.424 0.171,0.625 0.301,-0.063 0.536,-0.137 0.677,-0.222 -0.062,-0.173 -0.129,-0.347 -0.162,-0.527 -0.195,-1.072 -0.504,-4.045 -0.605,-5.156 -0.020,-0.221 4.47e-4,-0.726 0.050,-1.332 0.050,-0.605 0.126,-1.324 0.203,-2.042 0.076,-0.718 0.151,-1.435 0.203,-2.041 0.051,-0.605 0.082,-1.079 0.050,-1.400 -0.081,-0.817 -0.324,-7.193 -0.373,-8.931 z m -2.353,0.152 c -0.233,0.018 -0.467,0.035 -0.699,0.054 0.014,1.016 0.069,2.788 0.148,4.732 0.044,1.094 0.091,2.156 0.134,2.984 0.021,0.414 0.042,0.769 0.060,1.042 0.018,0.273 0.028,0.445 0.048,0.566 0.011,0.068 0.021,0.431 0.003,0.878 -0.017,0.447 -0.051,1.010 -0.095,1.605 -0.088,1.189 -0.216,2.509 -0.316,3.312 -0.111,0.889 0.026,2.044 0.193,3.123 0.166,1.078 0.369,2.087 0.416,2.548 0.023,0.236 0.018,0.554 0.002,0.892 0.192,0.003 0.408,-0.004 0.710,-0.025 0.012,-0.335 0.011,-0.663 -0.015,-0.937 -0.055,-0.555 -0.258,-1.528 -0.421,-2.585 -0.163,-1.057 -0.281,-2.189 -0.189,-2.927 0.103,-0.824 0.228,-2.149 0.318,-3.349 0.044,-0.600 0.079,-1.167 0.097,-1.628 0.017,-0.461 0.027,-0.784 -0.011,-1.021 -0.005,-0.031 -0.025,-0.230 -0.042,-0.498 C 23.165,10.363 23.146,10.009 23.125,9.597 23.082,8.773 23.034,7.713 22.990,6.621 22.910,4.659 22.855,2.839 22.841,1.863 Z m -2.537,0.220 c -0.238,0.022 -0.469,0.042 -0.695,0.064 0.016,0.324 0.035,0.662 0.085,1.281 0.066,0.821 0.155,1.838 0.244,2.855 0.088,1.016 0.177,2.033 0.244,2.851 0.066,0.818 0.111,1.459 0.111,1.642 0,0.418 -0.074,0.999 -0.138,1.562 -0.064,0.563 -0.124,1.102 -0.062,1.539 0.010,0.072 -0.011,0.386 -0.078,0.759 -0.066,0.372 -0.165,0.826 -0.261,1.292 -0.028,0.137 -0.046,0.265 -0.074,0.402 l 0.490,1.527 c 0.030,-0.469 0.136,-1.140 0.269,-1.789 0.094,-0.461 0.195,-0.917 0.265,-1.310 0.070,-0.393 0.122,-0.699 0.082,-0.982 -0.039,-0.275 0.001,-0.806 0.064,-1.361 0.063,-0.555 0.142,-1.144 0.142,-1.640 0,-0.274 -0.046,-0.877 -0.113,-1.699 C 20.813,8.258 20.725,7.241 20.636,6.224 20.547,5.207 20.459,4.189 20.392,3.371 20.340,2.729 20.319,2.372 20.304,2.083 Z" style="font-style:normal;font-variant:normal;font-weight:normal;font-stretch:normal;font-size:medium;line-height:normal;font-family:sans-serif;text-indent:0;text-align:start;text-decoration:none;text-decoration-line:none;text-decoration-style:letter-spacing:normal;word-spacing:normal;text-transform:none;direction:ltr;block-progression:tb;writing-mode:lr-tb;baseline-shift:baseline;text-anchor:start;white-space:normal;fill:#ececec;stroke-width:0.699;stroke-linecap:butt;" />
 <path id="path4837" d="m 15.805,9.934 c 0.890,-0.667 1.446,-1.558 1.892,-1.558 0.445,0 1.780,0.779 2.893,0.333 1.113,-0.445 3.561,0.222 4.340,0.222 0.779,0 1.113,-0.667 2.226,-0.333 1.113,0.333 2.114,0.222 2.337,-0.333 0.222,-0.556 1.892,1.224 2.448,1.224 0.556,0 -1.001,1.224 -1.669,1.113 -0.667,-0.111 -2.114,-0.779 -3.561,-0.333 -1.446,0.445 -2.782,-0.779 -5.008,-0.445 -2.226,0.333 -4.118,0.779 -5.899,0.111 z" style="fill:#2d0809;fill-opacity:0.515;stroke-width:1px;stroke-linecap:butt;" />
 <path id="path4839" d="m 18.789,13.138 c -0.779,-0.667 -1.558,-0.222 -1.558,0.222 0,0.445 1.335,1.446 2.114,1.335 -0.333,-0.779 -0.556,-1.558 -0.556,-1.558 z" style="fill:#520f11;stroke-width:1px;stroke-linecap:butt;" />
 <path id="path4910" d="m 14.150,2.197 c -0.724,0.029 -1.283,0.360 -1.132,1.566 0.301,2.411 0.507,6.812 0.710,8.236 0.060,0.420 0.179,0.910 0.328,1.425 0.561,-2.866 2.126,-3.737 3.011,-3.914 1.145,-0.229 0.801,-2.060 0.228,-2.748 -0.460,-0.553 0.051,-2.587 1.041,-4.496 -1.040,0.100 -1.808,0.173 -2.066,0.173 -0.508,0 -1.396,-0.273 -2.121,-0.244 z" style="fill:#cb6568;fill-opacity:0.337;stroke-width:1px;stroke-linecap:butt;stroke-opacity:1" />
 <path id="path4912" d="m 27.728,1.642 c -0.070,-0.001 -0.161,0.004 -0.234,0.003 1.307,0.520 1.714,1.493 1.714,2.367 0,1.260 -0.227,3.436 0.917,4.238 1.145,0.801 1.717,1.603 0.800,2.634 -0.916,1.030 2.978,0.687 2.634,3.550 -0.058,0.489 -0.029,1.005 0.031,1.521 0.326,-0.529 0.554,-0.973 0.576,-1.212 C 34.271,13.627 34.677,5.795 34.474,3.660 34.271,1.524 32.033,2.135 29.083,1.728 28.715,1.677 28.254,1.650 27.728,1.642 Z" style="fill:#cb6568;fill-opacity:0.337;stroke-width:1px;stroke-linecap:butt;" />
 <path id="path4914" d="m 27.835,10.313 c 0.801,2.176 2.061,3.780 1.374,5.154 -0.687,1.374 -1.863,3.581 -2.094,4.210" style="fill:none;stroke:#dc8686;stroke-width:1px;stroke-linecap:round;stroke-opacity:0.337" />
 <path id="path4957" d="m 24.834,12.335 c 0.407,1.465 1.709,2.117 1.384,2.768 -0.325,0.651 -1.221,2.361 -1.139,3.012 0.081,0.651 1.872,2.117 0.162,4.397" style="fill:none;stroke:#dc8686;stroke-width:1px;stroke-linecap:round;stroke-opacity:0.337;" />
 <path id="path4959" d="m 18.972,12.498 c -1.628,0 -2.442,0.651 -2.605,1.628" style="fill:none;stroke:#dc8686;stroke-width:0.5;stroke-linecap:round;stroke-opacity:0.337;" />
 <path id="path4961" d="m 27.847,2.157 c 1.139,0 2.035,2.849 1.791,4.478 -0.244,1.628 2.035,1.302 2.768,2.279" style="fill:none;stroke:#dc8686;stroke-width:1px;stroke-linecap:round;stroke-opacity:0.337;" />
 <path id="path4963" d="m 25.486,2.482 c 0.732,0.488 1.465,3.175 1.058,3.908 -0.407,0.732 -0.977,2.117 1.221,2.361" style="fill:none;stroke:#dc8686;stroke-width:1px;stroke-linecap:round;stroke-opacity:0.337;" />
 <path id="path4965" d="m 22.555,16.243 c 0.407,1.221 1.302,2.524 0.895,3.827" style="fill:none;stroke:#dc8686;stroke-width:2.400;stroke-linecap:round;stroke-opacity:0.337;" />
 <path id="path4967" d="m 22.392,2.808 c -0.814,1.058 -0.814,2.605 -0.081,3.827 0.732,1.221 0.081,1.465 -0.407,1.709" style="fill:none;stroke:#dc8686;stroke-width:1px;stroke-linecap:round;stroke-opacity:0.337;" />
 <rect rx="0.625" ry="0.625" y="25.125" x="22.375" height="4" width="3" id="stroke03" style="fill:#8a7c57;stroke:#2a1f12;stroke-width:0.5;stroke-linecap:round;marker:none;" />
 <circle r="9.375" cy="36.75" cx="24.375" id="path5089" style="fill:#8a7c57;stroke-width:0.5;stroke-linecap:round;stroke-opacity:0.496;marker:none;" />
 <path id="path4301" d="m 25.678,25.902 c 0.530,-0.291 1.379,-1.140 1.538,-1.830" style="fill:none;stroke:#f5e98b;stroke-width:0.5;stroke-linecap:butt;stroke-opacity:0.466" />
 <path id="path4303" d="m 22.609,26.061 2.518,0" style="fill:none;stroke:#f5e98b;stroke-width:0.800;stroke-linecap:butt;stroke-opacity:0.466;" />
 <path id="path4958" d="m 21.704,43.730 c 0.864,-0.627 2.245,-1.164 3.491,-0.677" style="fill:none;stroke:#f5e98b;stroke-width:3.400;stroke-linecap:round;stroke-opacity:0.184;" />
 <path id="path4909" d="m 20.709,31.903 c -1.845,0.922 -2.768,3.075 -2.563,4.716" style="fill:none;stroke:#5a4836;stroke-width:4.5;stroke-linecap:round;stroke-linejoin:bevel;stroke-opacity:0.196;" />
 <path id="path4589" d="m 20.493,35.354 c 0,0.411 -0.034,1.130 0,1.370 0.034,0.239 -0.856,1.096 -0.925,1.473 -0.068,0.376 0.239,0.445 0.548,0.445 0.205,0.137 0.102,0.548 0.102,0.548 l 0.171,0.137 c 0,0 -0.068,0.102 -0.068,0.205 0,0.102 0.171,0.308 0.171,0.308 0,0 -0.342,0.479 -0.102,0.753 0.239,0.274 1.473,-0.205 1.507,-0.342 0.034,-0.137 -1.302,-0.959 -1.028,-1.542 0.274,-0.582 1.336,-0.925 1.439,-1.336 0.102,-0.411 -0.034,-1.268 -0.342,-1.370 -0.308,-0.102 -0.788,-0.925 -0.788,-0.925 z" style="fill:#bcaf6f;fill-opacity:0.392;stroke-width:1px;stroke-linecap:butt;stroke-opacity:1" />
 <path id="path5072" d="m 16.952,10.819 c -0.652,-0.290 -0.817,0.543 0.011,0.840 0.828,0.297 4.127,0.778 7.520,1.086 3.393,0.308 5.924,1.201 7.163,2.311 1.239,1.109 0.864,-0.629 0.323,-1.491 -0.541,-0.861 -2.797,-2.009 -5.400,-2.154 -2.603,-0.144 -7.565,0.061 -9.618,-0.592 z" style="fill:#0e0e08;fill-opacity:0.570;stroke-width:0.300;stroke-linecap:butt;stroke-opacity:1" />
 <path id="path4707" d="m 21.966,23.186 c 0,0 -2.237,-6.610 -2.440,-7.423 -0.203,-0.813 -0.406,-2.542 -1.118,-2.644" style="fill:none;stroke:#440b0b;stroke-width:0.400;stroke-linecap:butt;stroke-opacity:1" />
 <path id="path4709" d="m 26.105,22.760 c 0.866,-2.589 3.080,-6.496 5.623,-6.902 2.542,-0.406 1.830,-2.338 1.830,-2.949 0,-0.610 0.305,-9.457 0,-10.576" style="fill:none;stroke:#310d0d;stroke-width:0.300;stroke-linecap:butt;stroke-opacity:1" />
 <path id="path5044" d="m 16.572,10.611 c -0.662,-0.265 -0.795,0.574 0.044,0.839 0.839,0.265 4.154,0.618 7.557,0.795 3.402,0.176 5.966,0.972 7.247,2.032 1.281,1.060 0.839,-0.662 0.265,-1.502 -0.574,-0.839 -2.872,-1.900 -5.480,-1.944 -2.607,-0.044 -7.557,0.353 -9.634,-0.220 z" style="fill:#b6af7a;stroke-width:1px;stroke-linecap:butt;stroke-opacity:1" />
 <path style="fill:none;stroke:#534533;stroke-width:0.300;stroke-linecap:butt;stroke-opacity:1" d="m 16.572,10.611 c -0.662,-0.265 -0.795,0.574 0.044,0.839 0.839,0.265 4.154,0.618 7.557,0.795 3.402,0.176 5.966,0.972 7.247,2.032 1.281,1.060 0.839,-0.662 0.265,-1.502 -0.574,-0.839 -2.872,-1.900 -5.480,-1.944 -2.607,-0.044 -7.557,0.353 -9.634,-0.220 z" id="path5061" />
 <path id="path5063" d="m 16.421,11.361 c 0.060,0.032 0.119,0.065 0.195,0.089 0.839,0.265 4.153,0.618 7.556,0.794 3.402,0.176 5.966,0.972 7.248,2.033 0.327,0.271 0.541,0.357 0.669,0.326 C 31.618,13.604 30.727,12.893 28.812,12.187 26.539,11.350 20.398,11.761 16.421,11.361 Z" style="fill:#534533;stroke-width:1px;stroke-linecap:butt;stroke-opacity:1" />
 <path id="path5068" d="m 27.312,11.375 c 0.75,0 2.75,0.562 3.25,1.062" style="fill:none;stroke:#f0f0bf;stroke-width:0.5;stroke-linecap:butt;stroke-opacity:0.496" />
 <path id="path4451" d="m 21.289,42.399 c 0.843,-0.920 3.260,-2.493 5.638,-1.572" style="fill:none;stroke:#f5e98b;stroke-width:0.400;stroke-linecap:butt;stroke-opacity:0.466;" />
 <path id="path4453" d="m 19.716,44.547 c 1.380,-1.496 2.378,-2.608 4.181,-2.761 1.802,-0.153 2.416,0.345 2.915,0.767" style="fill:none;stroke:#f5e98b;stroke-width:0.400;stroke-linecap:butt;stroke-opacity:0.466;" />
 <path id="path4455" d="m 21.865,43.435 c 0.920,-0.460 1.496,-0.690 1.917,-0.652" style="fill:none;stroke:#f5e98b;stroke-width:0.400;stroke-linecap:butt;stroke-opacity:0.466;" />
 <path id="path4457" d="m 26.199,37.412 c 0.345,0.882 0.843,1.764 1.687,1.764" style="fill:none;stroke:#f5e98b;stroke-width:0.400;stroke-linecap:butt;stroke-opacity:0.466;" />
 <path id="path4459" d="m 22.133,28.283 c 0.537,-0.153 0.882,-0.038 1.112,0.038" style="fill:none;stroke:#f5e98b;stroke-width:0.400;stroke-linecap:butt;stroke-opacity:0.466;" />
 <path id="path4461" d="m 24.128,28.244 c 0.498,-0.191 0.805,0.038 0.882,0.268 0.345,0 0.575,0 0.728,0.153" style="fill:none;stroke:#f5e98b;stroke-width:0.400;stroke-linecap:butt;stroke-opacity:0.466;" />
 <path id="path4463" d="m 26.123,30.085 c 2.685,0.958 4.066,2.761 4.603,3.452 0.537,0.690 1.572,1.419 1.764,1.457 0.191,0.038 0.115,0.383 -0.191,0.460" style="fill:none;stroke:#f5e98b;stroke-width:0.400;stroke-linecap:butt;stroke-opacity:0.288;" />
 <path id="path4470" d="m 22.056,34.037 c 1.189,-0.498 2.953,-0.652 3.989,0.920" style="fill:none;stroke:#f5e98b;stroke-width:1.799;stroke-linecap:butt;stroke-opacity:0.239;" />
 <path id="path4484" d="m 20.599,35.264 0.613,-0.306 0.613,0.537 0.076,-0.191 c 0,0 1.035,0.882 1.304,1.726" style="fill:none;stroke:#151311;stroke-width:0.300;stroke-linecap:butt;stroke-linejoin:bevel;stroke-opacity:0.245;" />
 <path id="path4509" d="m 23.322,36.223 0.575,-0.460 0.767,0.575" style="fill:none;stroke:#151311;stroke-width:0.300;stroke-linecap:butt;stroke-linejoin:bevel;stroke-opacity:0.245;" />
 <path id="path4511" d="m 25.470,37.105 0.690,-0.613 0.690,0.575" style="fill:none;stroke:#151311;stroke-width:0.300;stroke-linecap:butt;stroke-linejoin:bevel;stroke-opacity:0.245;" />
 <path id="path4513" d="m 24.703,37.105 c -0.076,-0.613 0.383,-0.805 0.613,-0.575 0.230,0.230 0.920,1.802 1.189,2.263 0.268,0.460 0.882,0.690 1.419,0.652" style="fill:none;stroke:#151311;stroke-width:0.300;stroke-linecap:butt;stroke-linejoin:bevel;stroke-opacity:0.245;" />
 <path id="path4535" d="m 20.560,33.998 0.575,0.038 0.421,-0.575 0.153,0.728 0.690,0.076" style="fill:none;stroke:#e3d888;stroke-width:0.300;stroke-linecap:butt;stroke-opacity:0.429;" />
 <path id="path4537" d="m 22.977,34.919 0.728,0 0.268,-0.728 0.345,0.805 0.690,-0.038" style="fill:none;stroke:#e3d888;stroke-width:0.300;stroke-linecap:butt;stroke-opacity:0.429;" />
 <path id="path4539" d="m 25.164,35.724 0.690,0 0.191,-0.767 0.421,0.728 0.537,0.038" style="fill:none;stroke:#e3d888;stroke-width:0.300;stroke-linecap:butt;stroke-opacity:0.429;" />
 <path id="path4576" d="m 19.724,38.290 c 0.240,-0.021 0.654,-0.130 0.741,0.021" style="fill:none;stroke:#f5e98b;stroke-width:0.400;stroke-linecap:butt;stroke-opacity:0.361;" />
 <path id="path4578" d="m 21.034,37.853 c 0.283,-0.261 0.850,-0.414 0.938,-0.458" style="fill:none;stroke:#f5e98b;stroke-width:0.699;stroke-linecap:butt;stroke-opacity:0.282;" />
 <path id="path4580" d="m 20.488,39.490 c 0.130,-0.021 0.392,0.021 0.392,0.021" style="fill:none;stroke:#f5e98b;stroke-width:0.2;stroke-linecap:butt;stroke-opacity:0.466;" />
 <path id="path4582" d="m 20.772,40.123 c -0.152,0.021 -0.261,0.021 -0.240,0.240" style="fill:none;stroke:#f5e98b;stroke-width:0.400;stroke-linecap:butt;stroke-opacity:0.466;" />
 <path id="path4606" d="m 23.442,38.372 c -0.080,0.453 -0.293,1.040 -0.400,1.226" style="fill:none;stroke:#151311;stroke-width:0.400;stroke-linecap:butt;stroke-linejoin:bevel;stroke-opacity:0.196;" />
 <path id="path4608" d="m 24.215,38.639 c -0.026,0.453 -0.480,1.786 -0.693,1.386" style="fill:none;stroke:#151311;stroke-width:0.400;stroke-linecap:butt;stroke-linejoin:bevel;stroke-opacity:0.196;" />
 <path id="path4610" d="m 24.429,38.719 c 0.160,0.266 0.320,0.453 0.346,0.773 0.026,0.320 0.320,-0.026 0.400,-0.506" style="fill:none;stroke:#151311;stroke-width:0.400;stroke-linecap:butt;stroke-linejoin:bevel;stroke-opacity:0.196;" />
 <path id="path4626" d="m 22.908,37.892 c 0.240,-0.426 0.986,-0.320 1.093,-0.133" style="fill:none;stroke:#f5e98b;stroke-width:0.600;stroke-linecap:butt;stroke-opacity:0.226;" />
 <path id="path4628" d="m 24.669,37.358 c 0.186,0.373 0.266,0.880 0.320,1.386" style="fill:none;stroke:#f5e98b;stroke-width:0.600;stroke-linecap:butt;stroke-opacity:0.226;" />
 <path id="path4630" d="m 20.855,40.505 c 0.880,0.133 1.333,0.266 1.786,0.133" style="fill:none;stroke:#151311;stroke-width:0.600;stroke-linecap:round;stroke-linejoin:bevel;stroke-opacity:0.184;" />
 <path id="path4660" d="m 23.402,41.494 c 0.777,-0.259 2.302,-0.892 4.289,1.439" style="fill:none;stroke:#151311;stroke-width:0.400;stroke-linecap:butt;stroke-linejoin:bevel;stroke-opacity:0.361;" />
 <path id="path4662" d="m 21.848,43.077 c 1.151,-0.604 2.705,-1.496 4.001,-0.546" style="fill:none;stroke:#151311;stroke-width:0.400;stroke-linecap:butt;stroke-linejoin:bevel;stroke-opacity:0.361;" />
 <path id="path4664" d="m 22.452,43.566 c 0.518,-0.201 1.237,-0.518 1.957,-0.028" style="fill:none;stroke:#151311;stroke-width:0.400;stroke-linecap:butt;stroke-linejoin:bevel;stroke-opacity:0.361;" />
 <path id="path4680" d="m 24.899,40.745 c 1.612,0.172 2.302,0.287 3.166,1.209" style="fill:none;stroke:#f5e98b;stroke-width:0.800;stroke-linecap:butt;stroke-opacity:0.239;" />
 <path id="path4682" d="m 23.489,42.847 c 0.949,-0.057 1.612,0.028 1.928,0.403" style="fill:none;stroke:#f5e98b;stroke-width:0.800;stroke-linecap:butt;stroke-opacity:0.239;" />
 <path id="path4698" d="m 20.785,36.601 c 0.139,0.174 0.209,0.337 0.267,0.383" style="fill:none;stroke:#151311;stroke-width:0.5;stroke-linecap:butt;stroke-linejoin:bevel;stroke-opacity:0.361;" />
 <path id="path4714" d="m 25.187,30.687 c 2,1.875 2.875,2.937 3.75,4.312 0.875,1.375 3.062,1.875 3.437,2" style="fill:none;stroke:#ddd27f;stroke-width:0.800;stroke-linecap:round;stroke-opacity:0.104;" />
 <path id="path4716" d="m 27.875,34.75 c 1.312,1.875 3,2.75 3.062,3.312" style="fill:none;stroke:#ddd27f;stroke-width:0.800;stroke-linecap:round;stroke-opacity:0.104;" />
 <path id="path4718" d="m 24.937,30.375 c 3.375,1.312 4.75,2.687 5.375,3.75 0.625,1.062 1.687,1 1.687,1" style="fill:none;stroke:#ddd27f;stroke-width:0.800;stroke-linecap:round;stroke-opacity:0.104;" />
 <path id="path4720" d="m 27,31.875 c 2.375,2.437 2.625,3.25 3.062,3.562 C 30.5,35.75 31.5,36.312 32.187,37" style="fill:none;stroke:#ddd27f;stroke-width:0.800;stroke-linecap:round;stroke-opacity:0.104;" />
 <path id="path4736" d="m 29.812,36.375 c 0.937,0.875 2.312,1.187 2.812,1.25" style="fill:none;stroke:#151311;stroke-width:0.300;stroke-linecap:butt;stroke-linejoin:bevel;stroke-opacity:0.159;" />
 <path id="path4738" d="m 29.875,37.562 c 0.375,0.437 0.875,1.75 1.25,1.75 0.375,0 0.312,-1.5 0.312,-1.5" style="fill:none;stroke:#151311;stroke-width:0.300;stroke-linecap:butt;stroke-linejoin:bevel;stroke-opacity:0.159;" />
 <path id="path4740" d="m 27.625,31.937 c 0.937,0.687 2.125,2.125 2.375,2.625 0.25,0.5 1.25,1.062 1.875,1.062" style="fill:none;stroke:#151311;stroke-width:0.300;stroke-linecap:butt;stroke-linejoin:bevel;stroke-opacity:0.159;" />
 <path id="path4756" d="m 31.068,35.581 c 0.220,2.916 -0.707,6.496 -3.491,7.954" style="fill:none;stroke:#f5e98b;stroke-width:3.400;stroke-linecap:round;stroke-opacity:0.122;" />
 <path id="path4777" d="m 25.855,32.443 c 1.512,2.016 2.016,3.168 1.440,4.753" style="fill:none;stroke:#5a4836;stroke-width:1.100;stroke-linecap:butt;stroke-linejoin:bevel;stroke-opacity:0.343;" />
 <path id="path4779" d="m 21.822,29.346 c 0.864,0.144 1.368,0.936 1.368,0.936" style="fill:none;stroke:#5a4836;stroke-width:1.100;stroke-linecap:butt;stroke-linejoin:bevel;stroke-opacity:0.190;" />
 <path id="path4781" d="m 22.974,28.698 c 0.576,0.648 0.648,1.152 0.648,1.512" style="fill:none;stroke:#5a4836;stroke-width:1.100;stroke-linecap:butt;stroke-linejoin:bevel;stroke-opacity:0.190;" />
 <path id="path4783" d="m 24.342,28.698 c 0,0 -0.288,1.224 -0.288,1.728" style="fill:none;stroke:#5a4836;stroke-width:1.100;stroke-linecap:butt;stroke-linejoin:bevel;stroke-opacity:0.190;" />
 <path id="path4785" d="m 27.511,29.490 c -1.224,-0.144 -2.520,0.288 -2.952,0.864" style="fill:none;stroke:#5a4836;stroke-width:1.100;stroke-linecap:butt;stroke-linejoin:bevel;stroke-opacity:0.190;" />
 <path id="path4829" d="m 23.045,30.453 c 0.256,-0.419 0.722,-0.512 1.235,-0.233 0.512,0.279 0.722,0.722 0.838,1.607 0.116,0.885 0.489,1.165 0.699,1.398 0.209,0.233 -0.442,-0.442 -0.862,-0.489 -0.419,-0.046 -1.235,-0.023 -1.724,0.139 -0.489,0.163 -0.675,0.139 -0.978,0.163 0.699,-0.396 1.095,-0.559 1.141,-1.001 0.046,-0.442 -0.745,-0.699 -1.281,-0.699 -0.535,0 0.559,-0.512 0.559,-0.512 0,0 -0.699,-0.209 -1.095,0.139 -0.233,-0.535 0.233,-1.281 1.468,-0.512 z" style="fill:#bcaf6f;fill-opacity:0.392;stroke-width:1px;stroke-linecap:butt;" />
 <path id="path4477" d="m 21.673,30.623 c 0.268,-0.306 0.958,-0.230 1.380,0.153" style="fill:none;stroke:#f5e98b;stroke-width:0.5;stroke-linecap:butt;stroke-opacity:0.343;" />
 <path id="path4845" d="m 23.465,30.174 c 0.349,-0.046 0.955,0.163 1.165,0.396" style="fill:none;stroke:#f5e98b;stroke-width:0.300;stroke-linecap:butt;stroke-opacity:0.263;" />
 <path id="path4861" d="m 22.066,31.245 0.862,-0.069" style="fill:none;stroke:#f5e98b;stroke-width:0.300;stroke-linecap:butt;stroke-opacity:0.263;" />
 <path id="path4877" d="m 23.488,30.546 c 0.093,-0.023 0.256,-0.046 0.396,-0.023" style="fill:none;stroke:#151311;stroke-width:0.400;stroke-linecap:round;stroke-linejoin:bevel;stroke-opacity:0.208;" />
 <path id="path4893" d="m 24.443,31.968 c 0.116,0.396 0.302,0.652 0.419,0.838" style="fill:none;stroke:#5a4836;stroke-width:0.899;stroke-linecap:butt;stroke-linejoin:bevel;stroke-opacity:0.190;" />
 <path id="path4925" d="m 25.110,30.604 c 0.447,0.137 0.930,0.206 1.136,0.482" style="fill:none;stroke:#f5e98b;stroke-width:0.600;stroke-linecap:butt;stroke-opacity:0.196;" />
 <path id="path4941" d="m 29.642,35.212 c 0.535,0.584 1.729,1.242 2.192,1.363 0.462,0.121 0.803,0.438 0.706,0.657" style="fill:none;stroke:#f5e98b;stroke-width:0.400;stroke-linecap:butt;stroke-opacity:0.288;" />
 <path id="path4974" d="m 25.233,37.331 c 0.487,0.925 1.120,2.192 0.925,2.727" style="fill:none;stroke:#f5e98b;stroke-width:2.099;stroke-linecap:round;stroke-opacity:0.122;" />
 <path style="fill:none;stroke:#3f0f0f;stroke-width:0.5;stroke-linecap:butt;stroke-opacity:1" d="m 21.050,23.288 c -1.627,-0.610 -3.966,-4.271 -5.186,-6 C 14.644,15.559 13.932,13.423 13.728,12 13.525,10.576 13.318,6.174 13.016,3.762 12.715,1.350 15.254,2.440 16.271,2.440 c 1.016,0 9.864,-1.118 12.813,-0.711 2.949,0.406 5.186,-0.203 5.389,1.932 0.203,2.135 -0.203,9.966 -0.305,11.084 -0.101,1.118 -4.067,6.203 -7.016,7.932 -0.203,0 -0.508,-0.915 -0.508,-0.915 0,0 -0.305,0.915 -0.711,1.322 -0.406,0.406 -3.254,0.610 -3.559,0.508 -0.305,-0.101 -0.711,-1.016 -0.711,-1.016 z" id="path4711" />
 <circle r="9.375" cy="36.75" cx="24.375" id="stroke04" style="fill:none;stroke:#2a1f12;stroke-width:0.5;stroke-linecap:round;marker:none;" />
 </g>
</svg>
