<?xml version="1.0" encoding="UTF-8" standalone="no"?>
<svg
   xmlns:dc="http://purl.org/dc/elements/1.1/"
   xmlns:cc="http://creativecommons.org/ns#"
   xmlns:rdf="http://www.w3.org/1999/02/22-rdf-syntax-ns#"
   xmlns:svg="http://www.w3.org/2000/svg"
   xmlns="http://www.w3.org/2000/svg"
   width="100%"
   height="100%"
   id="medal01"
   version="1.1"
   viewBox="0 0 48 48">
  <metadata
     id="metadata25">
    <rdf:RDF>
      <cc:Work
         rdf:about="">
        <dc:format>image/svg+xml</dc:format>
        <dc:type
           rdf:resource="http://purl.org/dc/dcmitype/StillImage" />
        <dc:title></dc:title>
      </cc:Work>
    </rdf:RDF>
  </metadata>
  <defs
     id="defs4138" />
  <circle
     r="9.3549995"
     cy="36.813"
     cx="24.609932"
     id="path4219"
     style="fill:#c4c4c4;stroke-width:0.5;stroke-linecap:butt;marker:none" />
  <circle
     style="fill:#a7a7a7;stroke-width:0.5;stroke-linecap:butt;marker:none"
     id="circle4364"
     cx="24.609932"
     cy="36.813"
     r="8.6440001" />
  <path
     id="path8735"
     d="m 21.065932,29.947 c -0.029,0.023 -0.058,0.045 -0.085,0.068 0.03,-0.023 0.06,-0.044 0.085,-0.068 z m -0.089,0.074 c -0.639,0.481 -2.233,0.839 -1.891,1.588 0.858,0.107 1.031,-0.86 1.891,-1.588 z m 6.863,0 c 0.859,0.728 1.032,1.695 1.891,1.588 0.341,-0.748 -1.253,-1.107 -1.891,-1.588 z m -8.932,0.785 c -0.803,0.676 -0.871,1.177 -0.599,1.598 0.722,-0.595 0.319,-0.74 0.599,-1.598 z m 11,0 c 0.281,0.858 -0.122,1.003 0.6,1.598 0.271,-0.421 0.203,-0.923 -0.6,-1.598 z m -11.838,0.918 c -0.763,0.881 -0.751,1.443 -0.381,1.858 0.69,-0.779 0.223,-0.868 0.381,-1.858 z m 12.674,0 c 0.159,0.99 -0.308,1.079 0.381,1.858 0.371,-0.415 0.383,-0.977 -0.381,-1.858 z m -10.91,0.088 c -0.393,0.211 -0.572,0.043 -0.834,0.133 -0.119,0.041 -0.254,0.135 -0.436,0.342 0.584,0.283 0.896,-0.08 1.27,-0.475 z m 9.148,0 c 0.375,0.395 0.686,0.758 1.27,0.475 -0.181,-0.207 -0.316,-0.301 -0.436,-0.342 -0.262,-0.09 -0.441,0.078 -0.834,-0.133 z m -9.72,0.854 c -0.359,0.272 -0.577,0.171 -0.819,0.259 -0.144,0.053 -0.296,0.173 -0.492,0.483 0.69,0.209 0.969,-0.244 1.311,-0.742 z m -1.967,0.228 c -0.666,1.111 -0.544,1.725 -0.059,2.107 0.604,-0.984 0.076,-0.993 0.059,-2.107 z m 14.228,0 c -0.017,1.114 -0.545,1.123 0.059,2.107 0.486,-0.382 0.607,-0.996 -0.059,-2.107 z m -1.283,0.01 c 0.134,0.149 0.205,0.325 0.201,0.547 0.124,0.016 0.262,0.006 0.424,-0.043 -0.196,-0.31 -0.347,-0.43 -0.492,-0.483 -0.044,-0.016 -0.089,-0.014 -0.133,-0.021 z m -11.463,0.789 c -0.543,0.588 -0.879,0.061 -1.291,1.066 0.796,0.096 1.013,-0.455 1.291,-1.066 z m 11.26,0 c 0.278,0.611 0.496,1.162 1.291,1.066 -0.412,-1.005 -0.748,-0.478 -1.291,-1.066 z m -13.367,0.633 c -0.491,1.353 -0.226,1.994 0.385,2.308 0.45,-1.202 -0.13,-1.097 -0.385,-2.308 z m 15.477,0 c -0.256,1.211 -0.835,1.106 -0.385,2.308 0.611,-0.314 0.875,-0.955 0.385,-2.308 z m -13.686,0.556 c -0.468,0.757 -0.947,0.252 -1.184,1.436 0.888,-0.064 1.01,-0.71 1.184,-1.436 z m 11.896,0 c 0.174,0.726 0.294,1.372 1.182,1.436 -0.236,-1.184 -0.714,-0.679 -1.182,-1.436 z m -14.08,1.104 c -0.22,1.584 0.215,2.222 0.952,2.422 0.211,-1.41 -0.395,-1.165 -0.952,-2.422 z m 16.262,0 c -0.557,1.257 -1.161,1.012 -0.949,2.422 0.736,-0.2 1.17,-0.838 0.949,-2.422 z m -14.187,0.193 c -0.334,0.93 -0.972,0.493 -0.955,1.834 0.95,-0.274 0.933,-1.005 0.955,-1.834 z m 12.113,0 c 0.021,0.829 0.005,1.56 0.955,1.834 0.017,-1.341 -0.621,-0.904 -0.955,-1.834 z m -11.926,1.485 c -0.11,1.092 -0.914,0.792 -0.535,2.234 0.95,-0.551 0.735,-1.335 0.535,-2.234 z m 11.738,0 c -0.199,0.899 -0.415,1.683 0.536,2.234 0.378,-1.442 -0.426,-1.142 -0.536,-2.234 z m -14.025,0.349 c 0.188,1.767 0.826,2.338 1.674,2.356 -0.151,-1.577 -0.736,-1.15 -1.674,-2.356 z m 16.312,0 c -0.938,1.206 -1.524,0.779 -1.675,2.356 0.847,-0.018 1.488,-0.589 1.675,-2.356 z m -13.455,1.08 c 0.197,1.204 -0.752,1.113 0.069,2.551 0.861,-0.865 0.404,-1.643 -0.069,-2.551 z m 10.598,0 c -0.473,0.908 -0.932,1.686 -0.07,2.551 0.821,-1.438 -0.126,-1.347 0.07,-2.551 z m -12.951,1.032 c 0.71,1.842 1.56,2.271 2.475,2.046 -0.616,-1.649 -1.121,-1.022 -2.475,-2.046 z m 15.305,0 c -1.354,1.024 -1.859,0.397 -2.475,2.046 0.915,0.225 1.765,-0.204 2.475,-2.046 z m -11.983,0.267 c 0.579,1.226 -0.462,1.421 0.856,2.705 0.655,-1.188 -0.073,-1.88 -0.856,-2.705 z m 8.658,0 c -0.783,0.825 -1.508,1.518 -0.853,2.705 1.317,-1.285 0.275,-1.479 0.853,-2.705 z m -7.322,1.035 c 1.013,1.115 -0.032,1.661 1.785,2.598 0.311,-1.475 -0.685,-1.976 -1.785,-2.598 z m 5.99,0 c -1.1,0.622 -2.097,1.123 -1.787,2.598 1.817,-0.937 0.774,-1.483 1.787,-2.598 z m -9.521,0.789 c 1.322,1.751 2.359,1.948 3.267,1.428 -1.162,-1.573 -1.508,-0.748 -3.267,-1.428 z m 13.051,0 c -1.76,0.68 -2.105,-0.145 -3.268,1.428 0.908,0.52 1.945,0.322 3.268,-1.428 z m -8.883,1.643 c -0.6,-0.002 -1.138,0.31 -2.379,0.221 1.973,1.43 3.141,1.301 3.937,0.453 -0.709,-0.526 -1.148,-0.673 -1.558,-0.674 z m 4.715,0 c -0.41,10e-4 -0.849,0.148 -1.559,0.674 0.796,0.848 1.966,0.977 3.94,-0.453 -1.242,0.089 -1.782,-0.223 -2.381,-0.221 z"
     style="fill:#333333;stroke-width:0.2;stroke-linejoin:round;stroke-opacity:1" />
  <path
     style="fill:#333333"
     id="path4"
     d="m 23.489932,32.38 -0.082,0.008 c -0.315,0.028 -0.691,0.094 -1.146,0.223 -0.516,0.148 -0.92,0.476 -1.24,0.865 l -0.008,0.01 c -0.014,0.016 -0.031,0.035 -0.047,0.055 l 0,0.007 -0.102,0.129 0.008,0 c -0.417,0.582 -0.661,1.251 -0.801,1.799 l -0.008,-0.016 -0.062,0.315 -0.01,0.047 c -0.052,0.26 -0.089,0.478 -0.092,0.595 -0.002,0.247 0.068,0.837 0.063,1.602 -0.003,0.765 -0.077,1.692 -0.354,2.545 l -0.084,0.236 a 6.464,6.464 0 0 0 4.579,2.451 c -0.001,-0.028 -0.002,-0.051 -0.002,-0.082 0,-0.131 -0.001,-0.282 0.007,-0.474 0.014,-0.242 0.058,-0.524 0.11,-0.828 0.052,-0.302 0.112,-0.626 0.176,-0.942 0.06,-0.312 0.124,-0.622 0.168,-0.902 0.041,-0.28 0.062,-0.526 0.054,-0.734 -0.002,-0.105 -0.013,-0.2 -0.035,-0.288 -0.019,-0.087 -0.055,-0.168 -0.094,-0.242 -0.035,-0.071 -0.076,-0.137 -0.129,-0.195 -0.052,-0.058 -0.112,-0.115 -0.175,-0.156 -0.031,-0.019 -0.064,-0.033 -0.102,-0.047 -0.022,-0.011 -0.04,-0.024 -0.062,-0.035 0.024,0 0.049,-0.003 0.074,-0.008 0.205,-0.047 0.34,-0.079 0.482,-0.11 l 0.002,-0.021 c 0.458,0.779 0.693,1.483 0.811,2.051 0.109,0.519 0.56,2.198 0.736,2.853 a 6.464,6.464 0 0 0 0.258,-0.07 c -0.182,-0.686 -0.63,-2.363 -0.735,-2.85 -0.12,-0.57 -0.348,-1.274 -0.8,-2.058 l 0.008,0 -0.094,-0.149 -0.028,-0.047 c -0.246,-0.4 -0.287,-0.738 -0.232,-1.062 0.055,-0.324 0.228,-0.633 0.428,-0.959 0.109,-0.181 0.433,-0.486 0.828,-0.793 0.389,-0.302 0.843,-0.612 1.26,-0.875 0.002,0 0.002,-0.005 0.007,-0.008 l 0.008,0 c 0.442,-0.271 0.858,-0.516 0.998,-0.562 0.129,-0.044 0.316,-0.078 0.514,-0.114 l 0.094,0.028 0.015,-0.045 c 0.554,-0.088 1.407,-0.156 1.407,-0.156 l 0.111,-0.01 0.008,-0.11 c 0,0 -0.003,-0.081 -0.047,-0.166 -0.036,-0.09 -0.113,-0.185 -0.264,-0.267 -0.302,-0.165 -0.868,-0.274 -1.976,-0.151 l -0.01,0 -0.008,0.008 c -0.269,0.072 -0.89,0.092 -1.482,0.078 -0.593,-0.013 -1.176,-0.066 -1.354,-0.101 -0.247,-0.052 -0.674,-0.306 -1.541,-0.254 l -0.008,-0.016 0,-0.002 z m -0.56,0.848 c 0.126,-0.005 0.234,0.128 0.242,0.307 0.005,0.175 -0.086,0.318 -0.215,0.326 -0.126,0.005 -0.232,-0.129 -0.24,-0.307 -0.006,-0.175 0.084,-0.318 0.213,-0.326 z m 4.728,0.213 c 0.091,-0.003 0.176,0 0.25,0 -0.219,0.082 -0.572,0.288 -0.986,0.549 l -0.01,0 c -0.003,0.002 -0.002,0.005 -0.008,0.008 -0.151,0.054 -0.285,0.107 -0.447,0.168 -0.362,0.137 -0.726,0.268 -1.025,0.373 -0.297,0.101 -0.54,0.166 -0.606,0.166 -0.096,0 -0.14,-0.03 -0.148,-0.036 -0.006,-0.005 -0.008,-0.005 -0.008,-0.007 0,-0.003 0,-0.023 0.008,-0.047 0.011,-0.047 0.05,-0.118 0.121,-0.203 0.071,-0.085 0.171,-0.181 0.295,-0.28 0.107,-0.085 0.313,-0.181 0.56,-0.269 0.244,-0.088 0.532,-0.175 0.828,-0.24 0.294,-0.066 0.602,-0.116 0.868,-0.149 0.112,-0.014 0.213,-0.022 0.306,-0.027 l 0.002,-0.006 z m -6.543,0.359 c 0.035,0.016 0.081,0.024 0.108,0.045 0.055,0.041 0.101,0.089 0.129,0.166 0.024,0.072 0.029,0.183 0.007,0.336 -0.024,0.173 -0.05,0.411 -0.064,0.68 -0.014,0.266 -0.014,0.562 0,0.848 0.014,0.282 0.051,0.553 0.111,0.781 0.03,0.115 0.07,0.219 0.119,0.306 0.025,0.042 0.054,0.083 0.084,0.121 0.031,0.036 0.066,0.07 0.11,0.094 0.049,0.028 0.111,0.069 0.185,0.121 0.072,0.05 0.147,0.108 0.235,0.174 0.172,0.129 0.374,0.283 0.586,0.42 0.148,0.096 0.305,0.179 0.466,0.25 -0.016,-0.003 -0.032,-0.002 -0.054,-0.008 l -0.008,0 c -0.044,-0.011 -0.094,-0.025 -0.148,-0.047 -0.11,-0.038 -0.241,-0.099 -0.383,-0.175 -0.14,-0.074 -0.296,-0.163 -0.455,-0.27 -0.159,-0.104 -0.318,-0.232 -0.483,-0.361 -0.162,-0.129 -0.332,-0.269 -0.494,-0.42 -0.159,-0.148 -0.31,-0.3 -0.455,-0.465 -0.071,-0.08 -0.14,-0.168 -0.203,-0.25 -0.063,-0.082 -0.125,-0.165 -0.186,-0.25 -0.016,-0.025 -0.043,-0.066 -0.062,-0.102 l 0,-0.007 c 0.12,-0.565 0.389,-1.348 0.855,-1.987 z m 1.506,0.666 c 0,0 0.537,0.516 1.826,0.326 0.011,0.017 0.031,0.041 0.047,0.057 0.044,0.044 0.1,0.066 0.166,0.082 -0.367,0.107 -0.767,0.188 -1.107,0.139 -0.851,-0.123 -0.931,-0.598 -0.932,-0.604 z" />
  <circle
     style="fill:none;stroke:#2c2c2c;stroke-width:0.5;stroke-linecap:butt;marker:none"
     id="circle4357"
     cx="24.609932"
     cy="36.813"
     r="9.3549995" />
  <path
     id="path4368"
     d="m 24.608932,28.169 a 8.644,8.644 0 0 0 -0.253,0.01 l -0.235,3.684 c 0.208,0.012 0.403,0.032 0.576,0.062 0.1,-0.851 0.207,-1.703 0.295,-2.554 0.012,0.252 -0.123,1.419 -0.265,2.556 0.082,0.015 0.146,0.035 0.218,0.053 0.041,-0.358 0.084,-0.716 0.118,-1.074 0.019,0.069 0.011,0.644 0.009,1.105 0.029,0.009 0.068,0.015 0.094,0.024 0.141,0.047 0.339,0.081 0.559,0.111 -0.074,-1.1 -0.092,-2.2 0.05,-3.295 -0.014,-0.198 -0.018,-0.399 -0.027,-0.598 a 8.644,8.644 0 0 0 -0.328,-0.043 c -0.034,0.531 -0.072,1.097 -0.092,1.477 -0.117,-0.212 0.206,-0.84 -0.193,-0.883 -0.022,-0.165 -0.017,-0.375 0.002,-0.609 a 8.644,8.644 0 0 0 -0.211,-0.01 c -0.099,0.727 -0.201,1.453 -0.291,2.18 0.016,-0.646 0.031,-1.292 0.049,-1.938 -0.003,-0.085 0.004,-0.169 0.004,-0.254 a 8.644,8.644 0 0 0 -0.079,-0.004 z m -0.378,0.014 a 8.644,8.644 0 0 0 -0.389,0.027 c -0.259,0.831 -0.525,1.66 -0.713,2.502 0,-0.811 0.049,-1.62 0.103,-2.429 a 8.644,8.644 0 0 0 -0.496,0.101 c -0.019,1.196 0.06,2.399 -0.058,3.582 0.154,-0.031 0.306,-0.059 0.459,-0.076 -0.012,-0.222 -0.024,-0.444 0.086,-0.652 0.433,-1.609 0.13,-0.199 -0.028,0.648 0.085,-0.008 0.168,-0.017 0.25,-0.021 0.228,-1.232 0.522,-2.456 0.786,-3.682 z m 1.759,0.108 c -0.024,1.292 -0.028,2.585 -0.072,3.876 0.137,0.015 0.277,0.027 0.428,0.038 0.074,-1.078 0.231,-2.158 0.269,-3.231 0.013,1.081 0.014,2.162 0.004,3.242 0.086,0.005 0.171,0.009 0.258,0.012 0.02,-0.755 0.028,-1.509 0.027,-2.264 -0.064,-0.03 -0.128,-0.072 -0.193,-0.093 0.081,0.003 0.118,0.001 0.193,0.004 -0.001,-0.444 0,-0.887 -0.015,-1.331 -0.002,-0.02 -0.003,-0.04 -0.004,-0.06 a 8.644,8.644 0 0 0 -0.709,-0.166 c -0.035,0.598 -0.072,1.196 -0.104,1.795 0.017,-0.599 0.058,-1.197 0.096,-1.795 a 8.644,8.644 0 0 0 -0.178,-0.027 z m -3.334,0.113 a 8.644,8.644 0 0 0 -0.359,0.08 c -0.139,1.236 -0.284,2.472 -0.385,3.711 0.092,-0.036 0.182,-0.076 0.276,-0.106 0.039,-0.662 0.091,-1.324 0.168,-1.982 -0.055,0.643 -0.048,1.29 -0.042,1.937 0.069,-0.019 0.139,-0.026 0.208,-0.043 0.022,-1.2 0.075,-2.399 0.134,-3.597 z m -0.418,0.099 a 8.644,8.644 0 0 0 -0.218,0.073 c -0.07,0.366 -0.135,0.733 -0.215,1.097 -0.18,0.955 -0.21,0.637 -0.223,0.137 -0.069,0.129 -0.138,0.257 -0.219,0.385 0.013,0.793 -0.035,1.576 -0.138,2.357 0.131,-0.088 0.263,-0.177 0.404,-0.246 -0.004,-0.246 -0.008,-0.492 -0.014,-0.738 0.236,-1.015 0.45,-2.037 0.623,-3.065 z m 5.034,0.09 c -0.024,0.43 -0.047,0.86 -0.075,1.289 0.082,0.002 0.157,0.005 0.233,0.006 l 0.076,-1.209 a 8.644,8.644 0 0 0 -0.234,-0.086 z m -5.741,0.147 a 8.644,8.644 0 0 0 -0.572,0.248 c -0.018,0.228 -0.034,0.457 -0.055,0.685 0.147,-0.012 0.269,-0.015 0.383,-0.017 0.01,-0.18 0.021,-0.36 0.029,-0.539 0.013,0.181 0.018,0.361 0.026,0.541 0.084,0 0.175,-0.002 0.236,0.006 -0.004,-0.21 -0.009,-0.383 -0.017,-0.582 -0.016,-0.115 -0.018,-0.228 -0.03,-0.342 z m 6.957,0.359 c -0.008,0.283 -0.015,0.567 -0.027,0.85 0.137,0.018 0.279,0.049 0.416,0.088 0.019,-0.235 0.033,-0.469 0.049,-0.704 a 8.644,8.644 0 0 0 -0.438,-0.234 z m -7.886,0.061 a 8.644,8.644 0 0 0 -0.246,0.14 l -0.028,0.432 c 0.09,-0.011 0.155,-0.014 0.238,-0.024 l 0.036,-0.548 z m -0.413,0.234 a 8.644,8.644 0 0 0 -0.21,0.123 c -0.002,0.089 0,0.179 -0.002,0.268 0.076,-0.011 0.174,-0.03 0.248,-0.039 -0.01,-0.118 -0.025,-0.235 -0.036,-0.352 z m 9.083,0.15 c 0.017,0.184 0.033,0.416 0.05,0.549 0.006,0.036 0.007,0.072 0.012,0.108 0.176,0.08 0.359,0.172 0.568,0.302 0.004,-0.171 0.002,-0.341 0,-0.511 a 8.644,8.644 0 0 0 -0.63,-0.448 z m -2.088,0.559 c -0.046,0.711 -0.086,1.422 -0.135,2.133 0.079,0.002 0.154,0.008 0.232,0.01 l 0.125,-1.977 c -0.074,-0.056 -0.146,-0.118 -0.222,-0.166 z m 2.89,0.018 c -0.015,0.157 -0.028,0.315 -0.045,0.472 0.07,0.046 0.154,0.107 0.229,0.158 0.013,-0.148 0.022,-0.296 0.033,-0.445 a 8.644,8.644 0 0 0 -0.217,-0.185 z m -8.826,0.244 c -0.14,0.211 -0.289,0.419 -0.443,0.627 -0.024,0.318 -0.053,0.638 -0.067,0.957 -0.067,-0.204 -0.128,-0.411 -0.191,-0.616 -0.124,0.163 -0.243,0.326 -0.363,0.487 -0.023,0.723 -0.066,1.447 -0.12,2.172 0.075,-0.176 0.166,-0.339 0.264,-0.498 0.005,-0.077 0.01,-0.154 0.014,-0.231 0.059,-0.368 0.02,-1.506 0.148,-1.332 0.092,0.376 0.13,0.756 0.143,1.137 0.158,-0.179 0.331,-0.337 0.519,-0.471 0.022,-0.743 0.054,-1.488 0.096,-2.232 z m 9.303,0.183 c 0.001,0.138 0.006,0.276 0.006,0.414 0.07,0.053 0.137,0.099 0.213,0.157 -0.001,-0.123 -0.001,-0.245 0,-0.368 a 8.644,8.644 0 0 0 -0.219,-0.203 z m 0.287,0.274 c 0.002,0.118 0.001,0.235 0.004,0.353 0.078,0.061 0.176,0.143 0.26,0.209 -0.005,-0.091 -0.006,-0.182 -0.01,-0.273 a 8.644,8.644 0 0 0 -0.254,-0.289 z m 0.342,0.388 c -0.007,0.075 -0.011,0.149 -0.018,0.223 0.079,0.063 0.157,0.125 0.24,0.193 0.003,-0.048 0.006,-0.097 0.008,-0.146 a 8.644,8.644 0 0 0 -0.23,-0.27 z m -2.776,0.063 c -0.016,0.324 -0.031,0.648 -0.047,0.973 0.119,-0.003 0.282,0 0.35,-0.002 0.012,-0.168 0.026,-0.336 0.039,-0.504 -0.1,-0.145 -0.203,-0.293 -0.342,-0.467 z m 3.203,0.482 c -0.001,0.011 0,0.022 -0.001,0.034 0.02,0.016 0.04,0.034 0.06,0.05 a 8.644,8.644 0 0 0 -0.059,-0.084 z m -12.146,1.139 c -0.088,0.157 -0.165,0.314 -0.229,0.471 0.021,0.302 0.021,0.584 -0.043,0.806 -0.011,-0.144 -0.023,-0.407 -0.035,-0.58 -0.02,0.065 -0.049,0.129 -0.064,0.194 -0.038,0.166 -0.073,0.394 -0.111,0.593 0.09,1.335 0.155,2.669 0.13,4.002 0.105,0.239 0.229,0.464 0.393,0.659 0.024,-0.355 0.025,-0.786 0.029,-1.241 -0.029,0.096 -0.06,0.186 -0.086,0.284 -0.032,-1.73 -0.018,-3.459 0.016,-5.188 z m 10.238,0.891 c -0.065,0.018 -0.123,0.039 -0.187,0.058 -0.08,1.932 -0.402,3.855 -0.77,5.76 0.11,-0.129 0.214,-0.266 0.313,-0.41 0.065,-0.448 0.126,-0.897 0.211,-1.34 l -0.073,1.154 c 0.099,-0.16 0.189,-0.332 0.272,-0.513 0.034,-0.537 0.063,-1.074 0.099,-1.61 0.058,-0.681 0.057,0.392 0.061,1.219 0.094,-0.266 0.164,-0.561 0.219,-0.873 -0.018,-0.626 -0.045,-1.251 -0.037,-1.877 0.045,-0.001 0.086,0.13 0.129,0.326 -0.023,-0.568 -0.094,-1.192 -0.237,-1.894 z m -1.082,0.338 c -0.119,0.04 -0.225,0.083 -0.34,0.125 -0.011,0.354 -0.029,0.709 -0.035,1.064 -0.154,1.262 -0.007,2.765 -0.426,3.883 -0.422,-0.763 -0.537,-1.623 -0.82,-2.426 l 0.129,-2.057 c -0.079,0.036 -0.169,0.069 -0.244,0.106 -0.027,0.437 -0.061,0.873 -0.084,1.31 0,-0.425 0.017,-0.853 0.025,-1.279 -0.093,0.046 -0.172,0.094 -0.259,0.141 -0.004,0.12 -0.004,0.241 -0.008,0.361 -0.028,-0.107 -0.042,-0.215 -0.065,-0.322 -0.299,0.163 -0.567,0.328 -0.785,0.496 -0.039,0.94 -0.1,1.881 -0.166,2.822 0.109,0.258 0.212,0.506 0.322,0.774 0.037,-0.654 0.073,-1.071 0.108,-0.116 0.074,0.173 0.091,0.403 0.092,0.653 0.166,0.433 0.321,0.856 0.392,1.203 0.056,-0.791 0.062,-1.584 0.026,-2.381 -0.002,0.27 -0.002,0.54 0.035,0.809 0.156,0.439 0.024,1.055 -0.049,1.617 0.036,0.189 0.055,0.362 0.041,0.502 0.067,-0.045 0.138,-0.093 0.207,-0.139 0.065,-1.007 0.121,-2.015 0.189,-3.021 0.029,-1.783 0.291,0.728 0.862,1.252 -0.012,0.347 -0.017,0.697 -0.024,1.046 0.102,-0.078 0.202,-0.158 0.301,-0.242 0.261,-1.276 0.222,-2.869 0.389,-4.254 0.193,1.108 0.028,2.179 -0.01,3.285 0.055,0.161 0.051,0.369 0.025,0.594 0.068,-0.068 0.138,-0.133 0.203,-0.205 0.019,-0.724 0.013,-1.453 0.143,-2.164 -0.164,-1.147 -0.199,-2.292 -0.174,-3.437 z m -2.322,1.171 c 0.357,0.969 0.201,1.976 0.176,2.979 -0.05,-0.994 -0.135,-1.99 -0.176,-2.979 z m -0.967,0.577 c -0.148,0.159 -0.264,0.319 -0.322,0.478 -0.001,0.19 -0.004,0.379 -0.004,0.568 0.052,0.199 0.133,0.436 0.238,0.704 0.03,-0.584 0.049,-1.167 0.088,-1.75 z m 0.742,0.138 c 0.021,-0.016 0.047,1.415 0.063,1.85 -0.041,-0.42 -0.05,-0.842 -0.082,-1.262 0.005,-0.417 0.012,-0.582 0.019,-0.588 z"
     style="font-style:normal;font-variant:normal;font-weight:normal;font-stretch:normal;font-size:medium;line-height:normal;font-family:sans-serif;text-indent:0;text-align:start;text-decoration:none;text-decoration-line:none;word-spacing:normal;text-transform:none;direction:ltr;block-progression:tb;writing-mode:lr-tb;baseline-shift:baseline;text-anchor:start;white-space:normal;fill:#ebebeb;fill-opacity:0.27600002;stroke-width:0.2;stroke-linecap:round;marker:none" />
  <path
     id="path4373"
     d="m 24.608932,28.169 a 8.644,8.644 0 0 0 -0.263,0.01 c -0.004,1.079 -0.012,2.158 0,3.235 l 0,0.466 c 0.171,0.017 0.33,0.038 0.472,0.067 -0.013,-0.338 -0.036,-0.676 -0.043,-1.014 0.017,0.259 0.036,0.67 0.055,1.018 0.072,0.015 0.135,0.031 0.197,0.049 -0.057,-1.272 -0.102,-2.544 -0.052,-3.813 a 8.644,8.644 0 0 0 -0.319,-0.016 c 0.023,0.464 0.036,0.868 0.008,0.959 -0.016,-0.32 -0.028,-0.64 -0.041,-0.961 a 8.644,8.644 0 0 0 -0.014,0 z m 0.723,0.036 c -0.018,0.386 -0.044,0.773 -0.037,1.156 -0.039,0.682 -0.081,1.749 -0.121,2.676 0.143,0.047 0.342,0.081 0.562,0.111 0.051,-0.446 0.093,-0.893 0.155,-1.338 0.005,0.452 -0.01,0.902 -0.02,1.354 0.118,0.013 0.234,0.025 0.363,0.035 -10e-4,-1.027 0.06,-2.047 0.338,-3.045 -0.026,1.019 -0.064,2.037 -0.109,3.056 0.071,0.005 0.144,0.005 0.217,0.008 0.024,-0.775 0.056,-1.548 0.084,-2.322 -0.018,-0.007 -0.035,-0.019 -0.053,-0.025 0.022,0.001 0.031,0.001 0.053,0.002 0.016,-0.47 0.027,-0.94 0.05,-1.409 a 8.644,8.644 0 0 0 -0.269,-0.068 c -0.04,0.27 -0.097,0.537 -0.193,0.797 0.024,-0.274 0.056,-0.549 0.086,-0.824 a 8.644,8.644 0 0 0 -0.219,-0.043 c -0.006,0.056 -0.005,-0.006 -0.008,-0.002 a 8.644,8.644 0 0 0 -0.338,-0.051 c 0.001,0.295 0.002,0.59 -0.004,0.885 -0.109,0.578 -0.279,2.894 -0.295,2.371 0.01,-1.1 0.004,-2.201 0.004,-3.301 a 8.644,8.644 0 0 0 -0.246,-0.023 z m -1.582,0.015 a 8.644,8.644 0 0 0 -0.186,0.024 c -0.007,0.123 -0.017,0.358 -0.023,0.4 0.015,-0.129 0.006,-0.266 0.012,-0.398 a 8.644,8.644 0 0 0 -0.459,0.058 c -0.011,0.15 -0.016,0.301 -0.031,0.449 -0.011,-0.18 -0.077,-0.315 -0.153,-0.408 a 8.644,8.644 0 0 0 -0.25,0.057 c -0.026,0.082 -0.051,0.175 -0.047,0.348 -0.111,1.082 -0.122,2.168 -0.105,3.253 0.075,-0.018 0.149,-0.034 0.224,-0.048 0.008,-0.856 0.043,-1.71 0.135,-2.561 0.079,0.843 0.038,1.688 -0.013,2.535 0.056,-0.009 0.111,-0.02 0.168,-0.027 0.01,-0.253 0.013,-0.507 0.025,-0.76 0.038,0.25 0.063,0.5 0.08,0.75 0.204,-0.023 0.402,-0.039 0.596,-0.041 -0.042,-0.515 -0.074,-1.032 -0.078,-1.549 0.036,-0.693 0.07,-1.388 0.105,-2.082 z m -1.125,0.19 a 8.644,8.644 0 0 0 -0.311,0.07 c -0.069,0.791 -0.246,1.745 -0.416,1.398 0,-0.422 0.006,-0.843 0.01,-1.265 a 8.644,8.644 0 0 0 -0.431,0.144 c 0.01,0.302 0.02,0.603 0.029,0.905 0.046,0.003 0.124,-0.003 0.158,0.004 -0.047,0.094 -0.106,0.187 -0.16,0.281 0.012,0.757 -0.011,1.51 -0.201,2.238 -0.117,0.166 -0.025,-0.969 -0.055,-1.34 0.001,-0.16 0.002,-0.321 0.002,-0.482 -0.064,0.096 -0.128,0.193 -0.195,0.289 0.004,0.682 -0.009,1.362 -0.037,2.039 0.13,-0.103 0.271,-0.184 0.414,-0.266 0.025,-0.081 0.051,-0.162 0.078,-0.242 -10e-4,0.065 0.002,0.129 0.002,0.193 0.12,-0.064 0.242,-0.119 0.367,-0.169 0.007,-0.419 0.01,-0.838 0.027,-1.254 0.04,0.407 0.06,0.811 0.071,1.216 0.096,-0.036 0.19,-0.08 0.289,-0.109 0.081,-1.22 0.161,-2.446 0.359,-3.65 z m 4.191,0.056 c -0.003,0.469 0.003,0.938 0.002,1.407 0.08,0.002 0.125,0.004 0.2,0.005 l 0,-1.361 a 8.644,8.644 0 0 0 -0.202,-0.051 z m 1.17,0.389 c 0.002,0.147 -0.005,0.301 0.002,0.443 -0.008,0.201 -0.005,0.403 -0.011,0.604 0.093,0.004 0.204,0.014 0.293,0.021 0.015,-0.299 0.045,-0.597 0.068,-0.896 a 8.644,8.644 0 0 0 -0.352,-0.172 z m -6.73,0.002 a 8.644,8.644 0 0 0 -0.205,0.09 c 0.001,0.238 0,0.475 0.002,0.713 0.078,-0.005 0.131,-0.002 0.199,-0.004 -0.001,-0.268 0.003,-0.533 0.004,-0.799 z m -0.686,0.32 a 8.644,8.644 0 0 0 -0.381,0.219 c -0.013,0.12 -0.025,0.241 -0.039,0.361 0.14,-0.018 0.264,-0.032 0.391,-0.047 0.008,-0.177 0.02,-0.355 0.029,-0.533 z m 2.643,0.106 0,1.502 c -0.093,-0.502 -0.064,-1 0,-1.502 z m 5.732,0.062 c 0.01,0.241 0.026,0.482 0.028,0.723 0.118,0.037 0.241,0.078 0.369,0.137 0.043,-0.18 0.084,-0.36 0.127,-0.539 a 8.644,8.644 0 0 0 -0.524,-0.321 z m -9.023,0.207 a 8.644,8.644 0 0 0 -0.191,0.137 c -10e-4,0.045 -0.002,0.09 -0.002,0.135 0.061,-0.009 0.131,-0.021 0.191,-0.03 0.001,-0.08 0.001,-0.161 0.002,-0.242 z m 9.873,0.358 c 0,0.177 -10e-4,0.354 0.01,0.539 0.062,0.037 0.129,0.08 0.195,0.123 0.004,-0.167 0.004,-0.334 0.008,-0.5 a 8.644,8.644 0 0 0 -0.213,-0.162 z m -2.977,0.013 c 0,0.768 0.001,1.535 0.004,2.303 0.066,0.003 0.129,0.006 0.196,0.008 l 0,-2.215 c -0.066,-0.035 -0.133,-0.068 -0.2,-0.096 z m -4.607,0.082 c -0.051,0.718 -0.082,1.666 -0.147,0.455 l 0.071,-0.216 0.076,-0.239 z m 7.936,0.172 c 0.004,0.169 0.014,0.338 0.013,0.506 0.102,0.069 0.207,0.141 0.319,0.223 0.003,-0.138 0.009,-0.275 0.013,-0.412 a 8.644,8.644 0 0 0 -0.345,-0.317 z m 0.523,0.481 c -0.018,0.116 -0.041,0.23 -0.051,0.347 0.057,0.043 0.12,0.089 0.18,0.135 -0.001,-0.015 -0.002,-0.03 -0.002,-0.045 0.017,-0.084 0.043,-0.166 0.062,-0.25 a 8.644,8.644 0 0 0 -0.189,-0.187 z m -2.709,0.101 c -0.011,0.497 -0.023,0.994 -0.029,1.491 0.13,-10e-4 0.172,-10e-4 0.281,-0.002 -10e-4,-0.393 0.017,-0.784 0.025,-1.176 -0.089,-0.105 -0.178,-0.21 -0.277,-0.313 z m -3.416,0.035 c 0.04,1.224 -0.018,1.587 0,0.274 l 0,-0.274 z m -4.066,0.629 c -0.1,0.13 -0.194,0.262 -0.291,0.391 -0.033,0.451 -0.002,0.845 0.238,1.045 0.013,-0.479 0.036,-0.957 0.053,-1.436 z m -0.362,0.493 c -0.15,0.202 -0.285,0.403 -0.416,0.603 -0.007,0.548 -0.01,1.097 -0.017,1.645 -0.105,0.624 -0.136,2.765 -0.295,1.041 -0.086,-0.58 -0.145,-1.161 -0.19,-1.743 -0.039,0.108 -0.084,0.215 -0.109,0.323 -0.007,0.03 -0.013,0.076 -0.02,0.107 0.123,1.504 0.546,2.983 0.256,4.492 -0.014,0.135 -0.037,0.199 -0.056,0.291 0.047,0.081 0.094,0.162 0.15,0.237 0.04,-0.124 0.077,-0.249 0.094,-0.381 0.029,-1.201 -0.032,-2.825 0.41,-4.174 0.005,-0.233 0.012,-0.468 0.014,-0.699 0.058,-0.556 0.117,-1.114 0.179,-1.742 z m 8.811,0.084 c -0.005,0.08 -0.014,0.161 -0.02,0.242 0.017,-10e-4 0.172,-0.002 0.172,-0.002 0,0 -0.076,-0.121 -0.152,-0.24 z m 3.347,1.757 c -0.02,0.761 0.009,0.538 0,0 z m -2.578,0.028 c -0.064,1.195 -0.147,2.39 -0.232,3.584 0.007,-1.168 -0.003,-2.335 -0.031,-3.502 -0.076,0.022 -0.149,0.045 -0.223,0.068 0.059,1.635 0.1,3.271 0.074,4.906 0.121,-0.214 0.231,-0.442 0.322,-0.693 0.08,-1.182 0.159,-2.364 0.231,-3.547 -0.037,-0.262 -0.081,-0.532 -0.139,-0.816 0,0 -0.002,0 -0.002,0 z m -0.568,0.175 c -0.145,0.046 -0.298,0.09 -0.438,0.137 -0.025,0.159 -0.044,0.32 -0.074,0.479 -0.119,0.731 -0.292,2.444 -0.365,2.552 0.014,-0.955 0,-1.911 -0.016,-2.867 -0.116,0.042 -0.234,0.084 -0.345,0.127 -0.018,1.129 -0.041,2.259 -0.11,3.387 -0.024,0.934 -0.04,1.868 -0.078,2.801 0.151,-0.115 0.296,-0.24 0.442,-0.368 0.066,-1.079 0.165,-2.156 0.355,-3.226 0.195,-0.738 -0.163,-0.389 0.246,-0.289 0.296,-0.877 0.362,-1.803 0.383,-2.733 z m -10.098,0.133 c -0.188,0.889 -0.368,2.122 -0.203,3.252 0.019,-0.21 0.037,-0.42 0.047,-0.631 0.02,0.239 0.023,0.614 0.018,0.991 0.046,0.207 0.11,0.404 0.187,0.593 0.019,-1.401 -0.04,-2.803 -0.049,-4.205 z m 7.987,0.666 c -0.066,0.031 -0.134,0.061 -0.198,0.092 0,1.772 -0.015,3.541 -0.093,5.311 -0.015,0.261 -0.078,0.747 -0.127,1.183 0.07,-0.047 0.143,-0.095 0.214,-0.142 0.151,-1.327 0.245,-2.658 0.204,-3.998 l 0,-2.446 z m 2.853,0.104 c -0.053,0.934 -0.094,1.869 -0.119,2.804 0.195,-0.755 0.254,-1.672 0.119,-2.804 z m -3.318,0.133 c -0.083,0.044 -0.169,0.088 -0.246,0.132 -0.008,0.131 -0.014,0.262 -0.022,0.393 0.003,-0.126 -0.004,-0.253 -0.004,-0.379 -0.143,0.084 -0.266,0.169 -0.388,0.254 0.003,0.74 0.006,1.48 -0.028,2.219 -0.012,-0.738 0.006,-1.476 0.018,-2.213 -0.043,0.03 -0.09,0.059 -0.131,0.09 -0.048,1.066 -0.078,2.134 -0.066,3.203 0.07,0.166 0.128,0.318 0.197,0.486 0.147,0.358 0.279,0.708 0.389,1.037 -0.002,-1.42 0.028,-2.839 0.22,-4.252 0.027,-0.323 0.041,-0.647 0.061,-0.97 z m -0.983,0.634 c -0.128,0.109 -0.24,0.218 -0.33,0.327 0.002,0.579 0.001,1.092 -0.011,1.628 0.05,0.13 0.103,0.268 0.162,0.409 0.04,-0.821 0.093,-1.6 0.179,-2.364 z m -0.564,0.717 c -0.052,0.143 -0.073,0.286 -0.045,0.426 0.016,0.081 0.05,0.187 0.08,0.285 -0.017,-0.249 -0.029,-0.488 -0.035,-0.711 z m -6.779,5.361 c 0.014,0.575 0.022,0.442 0,0 z"
     style="font-style:normal;font-variant:normal;font-weight:normal;font-stretch:normal;font-size:medium;line-height:normal;font-family:sans-serif;text-indent:0;text-align:start;text-decoration:none;text-decoration-line:none;word-spacing:normal;text-transform:none;direction:ltr;block-progression:tb;writing-mode:lr-tb;baseline-shift:baseline;text-anchor:start;white-space:normal;fill:#2c2c2c;fill-opacity:0.06700003;stroke-width:0.2;stroke-linecap:round;marker:none" />
  <path
     id="path4142"
     d="m 23.901932,17.425 c -2.674,0 -4.853,2.179 -4.853,4.853 0,2.674 2.179,4.853 4.853,4.853 2.674,0 4.853,-2.179 4.853,-4.853 0,-2.674 -2.179,-4.853 -4.853,-4.853 z m 0,1.099 c 2.079,0 3.753,1.674 3.753,3.753 0,2.079 -1.674,3.753 -3.753,3.753 -2.079,0 -3.753,-1.674 -3.753,-3.753 0,-2.079 1.674,-3.753 3.753,-3.753 z"
     style="font-style:normal;font-variant:normal;font-weight:normal;font-stretch:normal;font-size:medium;line-height:normal;font-family:sans-serif;text-indent:0;text-align:start;text-decoration:none;text-decoration-line:none;word-spacing:normal;text-transform:none;direction:ltr;block-progression:tb;writing-mode:lr-tb;baseline-shift:baseline;text-anchor:start;white-space:normal;fill:#424242;stroke:#2a2a2a;stroke-width:0.5;stroke-linecap:butt;marker:none" />
  <path
     id="path4144"
     d="m 14.777932,15.358 c 0.344,2.134 1.446,3.167 2.41,4.2 0.964,1.032 2.479,3.58 2.892,4.338 0.413,0.757 6.266,1.721 7.437,0.137 1.17,-1.583 3.58,-4.751 4.338,-5.233 0.757,-0.482 1.032,-1.17 0.964,-2.685 -0.068,-1.514 0.137,-11.5 0.068,-12.395 -0.068,-0.895 -0.895,-1.032 -1.997,-1.032 -1.101,0 -13.566,-0.068 -14.461,0 -0.895,0.068 -1.652,0.344 -1.721,1.377 -0.068,1.032 -0.068,10.604 0.068,11.293 z"
     style="fill:#821e02;stroke-width:0.60000002;stroke-linecap:butt;stroke-opacity:1" />
  <circle
     r="1.377"
     cy="26.514"
     cx="24.280931"
     id="path4140"
     style="fill:#7e754e;stroke:#303030;stroke-width:0.5;stroke-linecap:butt;marker:none" />
  <path
     id="path4146"
     d="m 23.583932,2.662 c -0.653,-10e-4 -0.758,0.006 -1.388,0.005 -0.171,6.767 -0.231,18.445 -0.039,21.99 1.051,0.193 2.298,0.28 3.363,0.166 0.005,-2.129 0.043,-16.68 -0.119,-22.156 -0.795,-0.002 -0.979,-0.003 -1.816,-0.005 z"
     style="fill:#c4c4c4;stroke-width:1px;stroke-linecap:butt;stroke-opacity:1" />
  <path
     id="path4151"
     d="m 23.109932,2.688 c 0,0 -0.068,20.108 0,22.036"
     style="fill:none;stroke:#0b0f49;stroke-width:0.64899999;stroke-linecap:butt;stroke-opacity:1" />
  <path
     id="path4153"
     d="m 24.418932,2.688 c 0,0 -0.068,20.865 0,22.173"
     style="fill:none;stroke:#580f0f;stroke-width:0.64899999;stroke-linecap:butt;stroke-opacity:1" />
  <path
     id="path4157"
     d="m 23.040932,2.664 c -1.136,-0.002 -1.462,0.006 -2.429,0.007 0.018,0.006 0.036,0.01 0.054,0.017 2.135,0.546 4.405,0.576 6.533,-0.015 -0.746,-0.003 -1.129,-0.002 -2.029,-0.005 -0.709,0.074 -1.419,0.061 -2.128,-0.003 z m -3.912,0.166 c -1.356,0.023 -2.702,0.229 -4.054,0.341 -0.109,0.11 -0.195,0.249 -0.257,0.412 0.39,-0.069 0.77,-0.132 1.017,-0.072 1.607,-0.131 3.264,-0.559 4.832,0.05 2.245,0.574 4.64,0.587 6.861,-0.103 1.792,-0.255 3.573,0.101 5.361,0.259 -0.011,-0.147 -0.05,-0.267 -0.101,-0.376 -0.301,0.007 -0.581,-0.01 -0.785,-0.111 -1.959,-0.249 -3.994,-0.5 -5.903,0.164 -2.259,0.496 -4.561,-0.013 -6.76,-0.545 l -0.21,-0.019 z m 0,0.894 c -1.478,0.024 -2.944,0.272 -4.419,0.373 -0.002,0.037 -10e-4,0.341 -0.003,0.398 0.429,-0.075 0.858,-0.154 1.128,-0.087 1.607,-0.13 3.264,-0.559 4.832,0.05 2.245,0.574 4.64,0.589 6.861,-0.103 1.793,-0.257 3.575,0.099 5.365,0.257 -7.51e-4,-0.119 -2.6e-4,-0.293 -0.002,-0.38 -0.34,0.014 -0.662,0.006 -0.888,-0.105 -1.959,-0.248 -3.994,-0.5 -5.903,0.164 -2.26,0.492 -4.561,-0.015 -6.76,-0.547 l -0.21,-0.019 z m 0,0.894 c -1.48,0.025 -2.949,0.273 -4.427,0.373 -0.002,0.079 -1.47e-4,0.304 -0.002,0.4 0.431,-0.076 0.862,-0.158 1.134,-0.091 1.607,-0.131 3.264,-0.559 4.832,0.05 2.245,0.574 4.64,0.587 6.861,-0.103 1.794,-0.255 3.577,0.102 5.367,0.259 10e-4,-0.181 -3.52e-4,-0.227 0,-0.384 -0.342,0.014 -0.665,0.009 -0.892,-0.103 -1.958,-0.248 -3.993,-0.499 -5.902,0.164 -2.259,0.493 -4.561,-0.014 -6.76,-0.545 l -0.21,-0.019 z m 0,0.894 c -1.482,0.025 -2.953,0.275 -4.433,0.375 -0.001,0.114 -5.75e-4,0.273 -0.002,0.4 0.433,-0.076 0.867,-0.16 1.14,-0.093 1.607,-0.131 3.264,-0.559 4.832,0.05 2.245,0.574 4.64,0.587 6.861,-0.103 1.792,-0.255 3.574,0.101 5.363,0.259 10e-4,-0.115 0.003,-0.272 0.003,-0.382 -0.342,0.014 -0.665,0.007 -0.892,-0.105 -1.957,-0.248 -3.992,-0.499 -5.901,0.165 -2.259,0.496 -4.561,-0.014 -6.76,-0.545 l -0.21,-0.019 z m 0,0.873 c -1.484,0.025 -2.957,0.275 -4.439,0.375 -0.001,0.141 -0.003,0.249 -0.003,0.4 0.436,-0.077 0.873,-0.16 1.148,-0.093 1.607,-0.131 3.264,-0.559 4.832,0.05 2.245,0.574 4.64,0.587 6.861,-0.103 1.789,-0.255 3.568,0.101 5.353,0.259 10e-4,-0.124 0.002,-0.259 0.003,-0.38 -0.338,0.013 -0.658,0.004 -0.882,-0.107 -1.958,-0.248 -3.993,-0.499 -5.902,0.165 -2.259,0.496 -4.561,-0.014 -6.76,-0.545 l -0.21,-0.019 z m 0,0.894 c -1.487,0.024 -2.962,0.275 -4.447,0.375 -6.75e-4,0.162 -10e-4,0.233 -0.002,0.402 0.438,-0.077 0.878,-0.161 1.154,-0.093 1.607,-0.13 3.264,-0.559 4.832,0.05 2.245,0.574 4.64,0.589 6.861,-0.103 1.786,-0.256 3.561,0.097 5.343,0.255 0.001,-0.131 0.002,-0.25 0.003,-0.378 -0.334,0.013 -0.65,0.005 -0.873,-0.105 -1.956,-0.246 -3.991,-0.498 -5.9,0.165 -2.26,0.493 -4.561,-0.015 -6.76,-0.547 l -0.21,-0.019 z m 0,0.914 c -1.489,0.025 -2.966,0.276 -4.453,0.375 -1.63e-4,0.175 -0.004,0.223 -0.003,0.402 0.44,-0.077 0.884,-0.163 1.162,-0.095 1.607,-0.131 3.264,-0.559 4.832,0.05 2.245,0.574 4.64,0.587 6.861,-0.103 1.782,-0.253 3.553,0.097 5.332,0.255 10e-4,-0.135 0.004,-0.243 0.005,-0.376 -0.331,0.012 -0.643,0.002 -0.863,-0.107 -1.958,-0.249 -3.992,-0.499 -5.902,0.164 -2.259,0.492 -4.56,-0.014 -6.759,-0.544 l -0.21,-0.019 z m 0,0.894 c -1.491,0.025 -2.971,0.276 -4.46,0.375 3.64e-4,0.179 -0.002,0.224 -0.002,0.404 0.442,-0.077 0.888,-0.164 1.167,-0.095 1.607,-0.13 3.264,-0.562 4.832,0.048 2.245,0.574 4.64,0.587 6.861,-0.103 1.779,-0.253 3.547,0.096 5.322,0.255 0.001,-0.132 0.002,-0.242 0.003,-0.375 -0.326,0.011 -0.633,-9.594e-4 -0.851,-0.109 -1.958,-0.249 -3.993,-0.499 -5.902,0.166 -2.259,0.492 -4.56,-0.014 -6.759,-0.546 l -0.21,-0.019 z m 0,0.873 c -1.491,0.025 -2.97,0.276 -4.458,0.374 6.81e-4,0.144 0.003,0.259 0.003,0.402 0.44,-0.077 0.882,-0.161 1.16,-0.093 1.608,-0.129 3.264,-0.563 4.832,0.048 2.245,0.576 4.64,0.588 6.861,-0.103 1.776,-0.253 3.542,0.093 5.314,0.253 10e-4,-0.129 0.002,-0.242 0.003,-0.373 -0.323,0.011 -0.627,-10e-4 -0.843,-0.109 -1.958,-0.249 -3.993,-0.499 -5.902,0.166 -2.259,0.492 -4.56,-0.014 -6.759,-0.546 l -0.21,-0.019 z m 0,0.896 c -1.488,0.022 -2.963,0.273 -4.449,0.373 10e-4,0.14 7.27e-4,0.265 0.002,0.402 0.437,-0.077 0.876,-0.161 1.152,-0.093 1.607,-0.131 3.264,-0.559 4.832,0.05 2.245,0.574 4.64,0.587 6.861,-0.103 1.773,-0.252 3.535,0.094 5.304,0.253 0.001,-0.126 0.002,-0.246 0.003,-0.375 -0.32,0.01 -0.62,-10e-4 -0.833,-0.107 -1.958,-0.247 -3.992,-0.499 -5.902,0.164 -2.259,0.492 -4.56,-0.014 -6.759,-0.544 l -0.21,-0.019 z m 0,0.892 c -1.485,0.025 -2.958,0.275 -4.441,0.375 10e-4,0.131 0.002,0.274 0.003,0.4 0.434,-0.076 0.868,-0.16 1.142,-0.093 1.607,-0.131 3.264,-0.559 4.832,0.05 2.245,0.574 4.64,0.587 6.861,-0.103 1.769,-0.252 3.529,0.091 5.294,0.251 10e-4,-0.119 0.002,-0.249 0.003,-0.371 -0.316,0.01 -0.612,-0.003 -0.824,-0.109 -1.957,-0.249 -3.992,-0.499 -5.902,0.164 -2.259,0.492 -4.56,-0.014 -6.759,-0.544 l -0.21,-0.019 z m 0,0.894 c -1.482,0.025 -2.953,0.275 -4.433,0.375 10e-4,0.118 10e-4,0.286 0.003,0.398 0.431,-0.076 0.862,-0.156 1.134,-0.089 1.608,-0.129 3.264,-0.563 4.832,0.048 2.245,0.576 4.64,0.588 6.861,-0.103 1.766,-0.252 3.522,0.09 5.285,0.251 8.53e-4,-0.109 0.002,-0.255 0.003,-0.369 -0.312,0.009 -0.604,-0.007 -0.814,-0.111 -1.958,-0.249 -3.993,-0.499 -5.902,0.166 -2.259,0.492 -4.56,-0.014 -6.759,-0.546 l -0.21,-0.019 z m 0,0.873 c -1.475,0.025 -2.939,0.272 -4.412,0.373 0.004,0.178 0.012,0.247 0.017,0.394 0.419,-0.074 0.834,-0.148 1.099,-0.083 1.607,-0.13 3.264,-0.559 4.832,0.05 2.245,0.575 4.64,0.586 6.861,-0.105 1.766,-0.252 3.522,0.09 5.285,0.251 4.03e-4,-0.148 -8.81e-4,-0.206 0,-0.369 -0.311,0.009 -0.601,-0.007 -0.81,-0.111 -1.958,-0.249 -3.993,-0.499 -5.902,0.166 -2.259,0.492 -4.56,-0.014 -6.759,-0.546 l -0.21,-0.019 z m 0,0.896 c -1.463,0.022 -2.914,0.266 -4.375,0.369 0.006,0.098 0.008,0.336 0.015,0.392 0.407,-0.072 0.807,-0.142 1.064,-0.08 1.607,-0.131 3.264,-0.559 4.832,0.05 2.245,0.574 4.64,0.587 6.861,-0.103 1.767,-0.251 3.525,0.091 5.289,0.251 -10e-4,-0.106 3.8e-4,-0.245 0,-0.371 -0.312,0.009 -0.604,-0.005 -0.814,-0.109 -1.958,-0.247 -3.992,-0.499 -5.902,0.164 -2.259,0.492 -4.56,-0.014 -6.759,-0.544 l -0.21,-0.019 z m 0,0.863 c -1.434,0.023 -2.857,0.257 -4.289,0.363 0.025,0.126 0.05,0.254 0.082,0.373 0.351,-0.061 0.687,-0.107 0.912,-0.052 1.607,-0.13 3.264,-0.559 4.832,0.05 2.245,0.574 4.64,0.589 6.861,-0.103 1.769,-0.254 3.527,0.089 5.292,0.25 -6.66e-4,-0.016 7.47e-4,-0.026 0,-0.042 -0.002,-0.05 -2.45e-4,-0.259 -0.002,-0.328 -0.313,0.009 -0.606,-0.003 -0.816,-0.107 -1.958,-0.247 -3.992,-0.499 -5.902,0.164 -2.259,0.492 -4.56,-0.014 -6.759,-0.546 l -0.21,-0.019 z m 0,0.896 c -1.354,0.023 -2.699,0.229 -4.05,0.341 0.042,0.119 0.083,0.24 0.13,0.351 0.241,-0.033 0.462,-0.051 0.625,-0.011 1.607,-0.131 3.264,-0.559 4.832,0.05 2.245,0.574 4.64,0.587 6.861,-0.103 1.764,-0.251 3.517,0.089 5.277,0.25 0.009,-0.107 0.002,-0.247 0.005,-0.367 -0.31,0.008 -0.6,-0.007 -0.808,-0.111 -1.957,-0.249 -3.992,-0.499 -5.902,0.164 -2.259,0.492 -4.56,-0.014 -6.759,-0.544 l -0.21,-0.019 z m 0,0.873 c -1.233,0.021 -2.459,0.19 -3.689,0.306 0.068,0.127 0.142,0.243 0.216,0.361 0.06,0.003 0.127,10e-4 0.177,0.013 1.607,-0.131 3.264,-0.559 4.832,0.05 2.245,0.574 4.64,0.587 6.861,-0.103 1.702,-0.242 3.394,0.064 5.091,0.23 0.04,-0.1 0.061,-0.229 0.089,-0.345 -0.271,0.002 -0.521,-0.02 -0.707,-0.113 -1.957,-0.249 -3.992,-0.499 -5.902,0.164 -2.259,0.492 -4.56,-0.014 -6.759,-0.544 l -0.21,-0.019 z m 0,0.894 c -1.044,0.017 -2.083,0.143 -3.123,0.253 0.098,0.128 0.194,0.258 0.296,0.378 1.459,-0.158 2.947,-0.452 4.363,0.099 2.245,0.574 4.64,0.587 6.861,-0.103 1.479,-0.211 2.951,-0.009 4.425,0.158 0.13,-0.092 0.248,-0.191 0.347,-0.302 -0.109,-0.017 -0.212,-0.041 -0.298,-0.083 -1.958,-0.249 -3.993,-0.499 -5.902,0.166 -2.259,0.492 -4.56,-0.014 -6.759,-0.546 l -0.21,-0.019 z m 0,0.892 c -0.815,0.013 -1.627,0.097 -2.439,0.185 0.114,0.123 0.226,0.247 0.339,0.367 1.223,-0.147 2.455,-0.278 3.636,0.181 2.245,0.574 4.64,0.589 6.861,-0.103 1.19,-0.17 2.376,-0.07 3.562,0.062 0.122,-0.134 0.236,-0.253 0.341,-0.357 -1.781,-0.216 -3.606,-0.368 -5.332,0.23 -2.259,0.492 -4.56,-0.014 -6.759,-0.546 l -0.21,-0.019 z m 0,0.896 c -0.573,0.009 -1.145,0.053 -1.716,0.109 0.096,0.114 0.196,0.24 0.298,0.375 0.997,-0.098 1.993,-0.126 2.955,0.248 2.245,0.574 4.64,0.587 6.861,-0.103 0.952,-0.135 1.902,-0.082 2.851,0.005 0.109,-0.131 0.22,-0.264 0.324,-0.384 -1.547,-0.16 -3.112,-0.203 -4.603,0.314 -2.259,0.492 -4.56,-0.014 -6.759,-0.544 l -0.21,-0.019 z m 0,0.873 c -0.358,0.006 -0.715,0.033 -1.072,0.06 0.082,0.117 0.162,0.246 0.246,0.369 0.798,-0.043 1.591,0.002 2.363,0.302 2.245,0.574 4.64,0.587 6.861,-0.103 0.726,-0.103 1.451,-0.092 2.175,-0.048 0.111,-0.139 0.199,-0.246 0.308,-0.38 -1.32,-0.097 -2.643,-0.075 -3.912,0.365 -2.259,0.492 -4.56,-0.014 -6.759,-0.544 l -0.21,-0.019 z m 0,0.894 c -0.165,0.002 -0.329,0.019 -0.494,0.027 0.09,0.138 0.168,0.249 0.255,0.386 0.599,0.008 1.193,0.09 1.775,0.318 2.245,0.576 4.64,0.588 6.861,-0.103 0.505,-0.072 1.009,-0.087 1.513,-0.08 0.107,-0.139 0.189,-0.25 0.298,-0.39 -1.096,-0.036 -2.186,0.041 -3.24,0.408 -2.259,0.492 -4.56,-0.014 -6.759,-0.546 l -0.21,-0.019 z m 0.064,0.919 c 0.105,0.172 0.173,0.286 0.265,0.441 0.406,0.043 0.809,0.13 1.207,0.285 2.245,0.574 4.64,0.587 6.861,-0.103 0.269,-0.038 0.537,-0.058 0.806,-0.072 0.102,-0.135 0.204,-0.266 0.312,-0.408 -0.862,0.018 -1.715,0.127 -2.546,0.416 -2.259,0.492 -4.56,-0.014 -6.759,-0.544 l -0.146,-0.013 z m 0.607,1.013 c 0.065,0.114 0.209,0.34 0.253,0.421 0.205,0.047 0.408,0.106 0.611,0.185 2.245,0.574 4.64,0.587 6.861,-0.103 0.023,-0.003 0.046,-0.002 0.07,-0.005 0.086,-0.117 0.234,-0.302 0.332,-0.433 -0.618,0.056 -1.23,0.166 -1.83,0.375 -2.102,0.458 -4.239,0.047 -6.298,-0.439 z m 6.984,1.115 c -0.23,0.054 -0.458,0.118 -0.685,0.197 -0.114,0.025 -0.23,0.036 -0.345,0.056 0.383,-0.054 0.736,-0.132 1.031,-0.253 z"
     style="font-style:normal;font-variant:normal;font-weight:normal;font-stretch:normal;font-size:medium;line-height:normal;font-family:sans-serif;text-indent:0;text-align:start;text-decoration:none;text-decoration-line:none;word-spacing:normal;text-transform:none;direction:ltr;block-progression:tb;writing-mode:lr-tb;baseline-shift:baseline;text-anchor:start;white-space:normal;fill:#eeeeee;fill-opacity:0.21400003;stroke-width:0.40000001;stroke-linecap:butt" />
  <path
     id="path4310"
     d="m 26.761932,25.385 c 0.559,-0.559 0.97,-1.156 1.044,-1.604"
     style="fill:none;stroke:#cdcdcd;stroke-width:0.5;stroke-linecap:butt" />
  <path
     style="fill:none;stroke:#310707;stroke-width:0.5;stroke-linecap:butt;stroke-opacity:1"
     d="m 14.777932,15.358 c 0.344,2.134 1.446,3.167 2.41,4.2 0.964,1.032 2.479,3.58 2.892,4.338 0.413,0.757 6.266,1.721 7.437,0.137 1.17,-1.583 3.58,-4.751 4.338,-5.233 0.757,-0.482 1.032,-1.17 0.964,-2.685 -0.068,-1.514 0.137,-11.5 0.068,-12.395 -0.068,-0.895 -0.895,-1.032 -1.997,-1.032 -1.101,0 -13.566,-0.068 -14.461,0 -0.895,0.068 -1.652,0.344 -1.721,1.377 -0.068,1.032 -0.068,10.604 0.068,11.293 z"
     id="path4155" />
  <path
     id="path4308"
     d="m 20.417932,24.825 c 0.671,0.858 1.082,1.082 1.418,1.231"
     style="fill:none;stroke:#cdcdcd;stroke-width:0.5;stroke-linecap:butt;stroke-opacity:1" />
  <path
     id="path4355"
     d="m 23.642932,26.376 1.005,-0.36"
     style="fill:none;stroke:#d9cd9b;stroke-width:1px;stroke-linecap:round;stroke-opacity:0.65" />
</svg>
