<?xml version="1.0" encoding="UTF-8" standalone="no"?>
<svg xmlns:dc="http://purl.org/dc/elements/1.1/" xmlns:cc="http://creativecommons.org/ns#" xmlns:rdf="http://www.w3.org/1999/02/22-rdf-syntax-ns#" xmlns:svg="http://www.w3.org/2000/svg" xmlns="http://www.w3.org/2000/svg" viewBox="0 0 48 48" version="1.1" id="medal01" height="100%" width="100%">
 <defs id="defs4138" />
 <g id="layer2">
 <circle r="9.355" cy="36.813" cx="27.254" id="path4219" style="fill:#c4c4c4;stroke-width:0.5;stroke-linecap:butt;marker:none;" />
 <circle style="fill:#a7a7a7;stroke-width:0.5;stroke-linecap:butt;marker:none;" id="circle4364" cx="27.254" cy="36.813" r="8.644" />
 <path id="path8735" d="M 23.710 29.947 C 23.681 29.970 23.652 29.992 23.625 30.015 C 23.655 29.992 23.685 29.971 23.710 29.947 z M 23.621 30.021 C 22.982 30.502 21.388 30.860 21.730 31.609 C 22.588 31.716 22.761 30.749 23.621 30.021 z M 30.484 30.021 C 31.343 30.749 31.516 31.716 32.375 31.609 C 32.716 30.861 31.122 30.502 30.484 30.021 z M 21.552 30.806 C 20.749 31.482 20.681 31.983 20.953 32.404 C 21.675 31.809 21.272 31.664 21.552 30.806 z M 32.552 30.806 C 32.833 31.664 32.430 31.809 33.152 32.404 C 33.423 31.983 33.355 31.481 32.552 30.806 z M 20.714 31.724 C 19.951 32.605 19.963 33.167 20.333 33.582 C 21.023 32.803 20.556 32.714 20.714 31.724 z M 33.388 31.724 C 33.547 32.714 33.080 32.803 33.769 33.582 C 34.140 33.167 34.152 32.605 33.388 31.724 z M 22.478 31.812 C 22.085 32.023 21.906 31.855 21.644 31.945 C 21.525 31.986 21.390 32.080 21.208 32.287 C 21.792 32.570 22.104 32.207 22.478 31.812 z M 31.626 31.812 C 32.001 32.207 32.312 32.570 32.896 32.287 C 32.715 32.080 32.580 31.986 32.460 31.945 C 32.198 31.855 32.019 32.023 31.626 31.812 z M 21.906 32.666 C 21.547 32.938 21.329 32.837 21.087 32.925 C 20.943 32.978 20.791 33.098 20.595 33.408 C 21.285 33.617 21.564 33.164 21.906 32.666 z M 19.939 32.894 C 19.273 34.005 19.395 34.619 19.880 35.001 C 20.484 34.017 19.956 34.008 19.939 32.894 z M 34.167 32.894 C 34.150 34.008 33.622 34.017 34.226 35.001 C 34.712 34.619 34.833 34.005 34.167 32.894 z M 32.884 32.904 C 33.018 33.053 33.089 33.229 33.085 33.451 C 33.209 33.467 33.347 33.457 33.509 33.408 C 33.313 33.098 33.162 32.978 33.017 32.925 C 32.973 32.909 32.928 32.911 32.884 32.904 z M 21.421 33.693 C 20.878 34.281 20.542 33.754 20.130 34.759 C 20.926 34.855 21.143 34.304 21.421 33.693 z M 32.681 33.693 C 32.959 34.304 33.177 34.855 33.972 34.759 C 33.560 33.754 33.224 34.281 32.681 33.693 z M 19.314 34.326 C 18.823 35.679 19.088 36.320 19.699 36.634 C 20.149 35.432 19.569 35.537 19.314 34.326 z M 34.791 34.326 C 34.535 35.537 33.956 35.432 34.406 36.634 C 35.017 36.320 35.281 35.679 34.791 34.326 z M 21.105 34.882 C 20.637 35.639 20.158 35.134 19.921 36.318 C 20.809 36.254 20.931 35.608 21.105 34.882 z M 33.001 34.882 C 33.175 35.608 33.295 36.254 34.183 36.318 C 33.947 35.134 33.469 35.639 33.001 34.882 z M 18.921 35.986 C 18.701 37.570 19.136 38.208 19.873 38.408 C 20.084 36.998 19.478 37.243 18.921 35.986 z M 35.183 35.986 C 34.626 37.243 34.022 36.998 34.234 38.408 C 34.970 38.208 35.404 37.570 35.183 35.986 z M 20.996 36.179 C 20.662 37.109 20.024 36.672 20.041 38.013 C 20.991 37.739 20.974 37.008 20.996 36.179 z M 33.109 36.179 C 33.130 37.008 33.114 37.739 34.064 38.013 C 34.081 36.672 33.443 37.109 33.109 36.179 z M 21.183 37.664 C 21.073 38.756 20.269 38.456 20.648 39.898 C 21.598 39.347 21.383 38.563 21.183 37.664 z M 32.921 37.664 C 32.722 38.563 32.506 39.347 33.457 39.898 C 33.835 38.456 33.031 38.756 32.921 37.664 z M 18.896 38.013 C 19.084 39.780 19.722 40.351 20.570 40.369 C 20.419 38.792 19.834 39.219 18.896 38.013 z M 35.208 38.013 C 34.270 39.219 33.684 38.792 33.533 40.369 C 34.380 40.351 35.021 39.780 35.208 38.013 z M 21.753 39.093 C 21.950 40.297 21.001 40.206 21.822 41.644 C 22.683 40.779 22.226 40.001 21.753 39.093 z M 32.351 39.093 C 31.878 40.001 31.419 40.779 32.281 41.644 C 33.102 40.206 32.155 40.297 32.351 39.093 z M 19.400 40.125 C 20.110 41.967 20.960 42.396 21.875 42.171 C 21.259 40.522 20.754 41.149 19.400 40.125 z M 34.705 40.125 C 33.351 41.149 32.846 40.522 32.230 42.171 C 33.145 42.396 33.995 41.967 34.705 40.125 z M 22.722 40.392 C 23.301 41.618 22.260 41.813 23.578 43.097 C 24.233 41.909 23.505 41.217 22.722 40.392 z M 31.380 40.392 C 30.597 41.217 29.872 41.910 30.527 43.097 C 31.844 41.812 30.802 41.618 31.380 40.392 z M 24.058 41.427 C 25.071 42.542 24.026 43.088 25.843 44.025 C 26.154 42.550 25.158 42.049 24.058 41.427 z M 30.048 41.427 C 28.948 42.049 27.951 42.550 28.261 44.025 C 30.078 43.088 29.035 42.542 30.048 41.427 z M 20.527 42.216 C 21.849 43.967 22.886 44.164 23.794 43.644 C 22.632 42.071 22.286 42.896 20.527 42.216 z M 33.578 42.216 C 31.818 42.896 31.473 42.071 30.310 43.644 C 31.218 44.164 32.255 43.966 33.578 42.216 z M 24.695 43.859 C 24.095 43.857 23.557 44.169 22.316 44.080 C 24.289 45.510 25.457 45.381 26.253 44.533 C 25.544 44.007 25.105 43.860 24.695 43.859 z M 29.410 43.859 C 29.000 43.860 28.561 44.007 27.851 44.533 C 28.647 45.381 29.817 45.510 31.791 44.080 C 30.549 44.169 30.009 43.857 29.410 43.859 z " style="fill:#333333;stroke-width:0.2;stroke-linejoin:round;stroke-opacity:1" />
 <path style="fill:#333333" id="path4" d="M 26.134 32.380 L 26.052 32.388 C 25.737 32.416 25.361 32.482 24.906 32.611 C 24.390 32.759 23.986 33.087 23.666 33.476 L 23.658 33.486 C 23.644 33.502 23.627 33.521 23.611 33.541 L 23.611 33.548 L 23.509 33.677 L 23.517 33.677 C 23.100 34.259 22.856 34.928 22.716 35.476 L 22.708 35.460 L 22.646 35.775 L 22.636 35.822 C 22.584 36.082 22.547 36.300 22.544 36.417 C 22.542 36.664 22.612 37.254 22.607 38.019 C 22.604 38.784 22.530 39.711 22.253 40.564 L 22.169 40.800 A 6.464 6.464 0 0 0 26.748 43.251 C 26.747 43.223 26.746 43.200 26.746 43.169 C 26.746 43.038 26.745 42.887 26.753 42.695 C 26.767 42.453 26.811 42.171 26.863 41.867 C 26.915 41.565 26.975 41.241 27.039 40.925 C 27.099 40.613 27.163 40.303 27.207 40.023 C 27.248 39.743 27.269 39.497 27.261 39.289 C 27.259 39.184 27.248 39.089 27.226 39.001 C 27.207 38.914 27.171 38.833 27.132 38.759 C 27.097 38.688 27.056 38.622 27.003 38.564 C 26.951 38.506 26.891 38.449 26.828 38.408 C 26.797 38.389 26.764 38.375 26.726 38.361 C 26.704 38.350 26.686 38.337 26.664 38.326 C 26.688 38.326 26.713 38.323 26.738 38.318 C 26.943 38.271 27.078 38.239 27.220 38.208 L 27.222 38.187 C 27.680 38.966 27.915 39.670 28.033 40.238 C 28.142 40.757 28.593 42.436 28.769 43.091 A 6.464 6.464 0 0 0 29.027 43.021 C 28.845 42.335 28.397 40.658 28.292 40.171 C 28.172 39.601 27.944 38.897 27.492 38.113 L 27.5 38.113 L 27.406 37.964 L 27.378 37.917 C 27.132 37.517 27.091 37.179 27.146 36.855 C 27.201 36.531 27.374 36.222 27.574 35.896 C 27.683 35.715 28.007 35.410 28.402 35.103 C 28.791 34.801 29.245 34.491 29.662 34.228 C 29.664 34.228 29.664 34.223 29.669 34.220 L 29.677 34.220 C 30.119 33.949 30.535 33.704 30.675 33.658 C 30.804 33.614 30.991 33.580 31.189 33.544 L 31.283 33.572 L 31.298 33.527 C 31.852 33.439 32.705 33.371 32.705 33.371 L 32.816 33.361 L 32.824 33.251 C 32.824 33.251 32.821 33.170 32.777 33.085 C 32.741 32.995 32.664 32.900 32.513 32.818 C 32.211 32.653 31.645 32.544 30.537 32.667 L 30.527 32.667 L 30.519 32.675 C 30.250 32.747 29.629 32.767 29.037 32.753 C 28.444 32.740 27.861 32.687 27.683 32.652 C 27.436 32.600 27.009 32.346 26.142 32.398 L 26.134 32.382 L 26.134 32.380 z M 25.574 33.228 C 25.700 33.223 25.808 33.356 25.816 33.535 C 25.821 33.710 25.730 33.853 25.601 33.861 C 25.475 33.866 25.369 33.732 25.361 33.554 C 25.355 33.379 25.445 33.236 25.574 33.228 z M 30.302 33.441 C 30.393 33.438 30.478 33.441 30.552 33.441 C 30.333 33.523 29.980 33.729 29.566 33.990 L 29.556 33.990 C 29.553 33.992 29.554 33.995 29.548 33.998 C 29.397 34.052 29.263 34.105 29.101 34.166 C 28.739 34.303 28.375 34.434 28.076 34.539 C 27.779 34.640 27.536 34.705 27.470 34.705 C 27.374 34.705 27.330 34.675 27.322 34.669 C 27.316 34.664 27.314 34.664 27.314 34.662 C 27.314 34.659 27.314 34.639 27.322 34.615 C 27.333 34.568 27.372 34.497 27.443 34.412 C 27.514 34.327 27.614 34.231 27.738 34.132 C 27.845 34.047 28.051 33.951 28.298 33.863 C 28.542 33.775 28.830 33.688 29.126 33.623 C 29.420 33.557 29.728 33.507 29.994 33.474 C 30.106 33.460 30.207 33.452 30.300 33.447 L 30.302 33.441 z M 23.759 33.800 C 23.794 33.816 23.840 33.824 23.867 33.845 C 23.922 33.886 23.968 33.934 23.996 34.011 C 24.020 34.083 24.025 34.194 24.003 34.347 C 23.979 34.520 23.953 34.758 23.939 35.027 C 23.925 35.293 23.925 35.589 23.939 35.875 C 23.953 36.157 23.990 36.428 24.050 36.656 C 24.080 36.771 24.120 36.875 24.169 36.962 C 24.194 37.004 24.223 37.045 24.253 37.083 C 24.284 37.119 24.319 37.153 24.363 37.177 C 24.412 37.205 24.474 37.246 24.548 37.298 C 24.620 37.348 24.695 37.406 24.783 37.472 C 24.955 37.601 25.157 37.755 25.369 37.892 C 25.517 37.988 25.674 38.071 25.835 38.142 C 25.819 38.139 25.803 38.140 25.781 38.134 L 25.773 38.134 C 25.729 38.123 25.679 38.109 25.625 38.087 C 25.515 38.049 25.384 37.988 25.242 37.912 C 25.102 37.838 24.946 37.749 24.787 37.642 C 24.628 37.538 24.469 37.410 24.304 37.281 C 24.142 37.152 23.972 37.012 23.810 36.861 C 23.651 36.713 23.500 36.561 23.355 36.396 C 23.284 36.316 23.215 36.228 23.152 36.146 C 23.089 36.064 23.027 35.981 22.966 35.896 C 22.950 35.871 22.923 35.830 22.904 35.794 L 22.904 35.787 C 23.024 35.222 23.293 34.439 23.759 33.800 z M 25.265 34.466 C 25.265 34.466 25.802 34.982 27.091 34.792 C 27.102 34.809 27.122 34.833 27.138 34.849 C 27.182 34.893 27.238 34.915 27.304 34.931 C 26.937 35.038 26.537 35.119 26.197 35.070 C 25.346 34.947 25.266 34.472 25.265 34.466 z " />
 <circle style="fill:none;stroke:#2c2c2c;stroke-width:0.5;stroke-linecap:butt;marker:none;" id="circle4357" cx="27.254" cy="36.813" r="9.355" />
 <path id="path4368" d="M 27.253 28.169 A 8.644 8.644 0 0 0 27 28.179 L 26.765 31.863 C 26.973 31.875 27.168 31.895 27.341 31.925 C 27.441 31.074 27.548 30.222 27.636 29.371 C 27.648 29.623 27.513 30.790 27.371 31.927 C 27.453 31.942 27.517 31.962 27.589 31.980 C 27.630 31.622 27.673 31.264 27.707 30.906 C 27.726 30.975 27.718 31.550 27.716 32.011 C 27.745 32.020 27.784 32.026 27.810 32.035 C 27.951 32.082 28.149 32.116 28.369 32.146 C 28.295 31.046 28.277 29.946 28.419 28.851 C 28.405 28.653 28.401 28.452 28.392 28.253 A 8.644 8.644 0 0 0 28.064 28.210 C 28.030 28.741 27.992 29.307 27.972 29.687 C 27.855 29.475 28.178 28.847 27.779 28.804 C 27.757 28.639 27.762 28.429 27.781 28.195 A 8.644 8.644 0 0 0 27.570 28.185 C 27.471 28.912 27.369 29.638 27.279 30.365 C 27.295 29.719 27.310 29.073 27.328 28.427 C 27.325 28.342 27.332 28.258 27.332 28.173 A 8.644 8.644 0 0 0 27.253 28.169 z M 26.875 28.183 A 8.644 8.644 0 0 0 26.486 28.210 C 26.227 29.041 25.961 29.870 25.773 30.712 C 25.773 29.901 25.822 29.092 25.876 28.283 A 8.644 8.644 0 0 0 25.380 28.384 C 25.361 29.580 25.440 30.783 25.322 31.966 C 25.476 31.935 25.628 31.907 25.781 31.890 C 25.769 31.668 25.757 31.446 25.867 31.238 C 26.300 29.629 25.997 31.039 25.839 31.886 C 25.924 31.878 26.007 31.869 26.089 31.865 C 26.317 30.633 26.611 29.409 26.875 28.183 z M 28.634 28.291 C 28.610 29.583 28.606 30.876 28.562 32.167 C 28.699 32.182 28.839 32.194 28.990 32.205 C 29.064 31.127 29.221 30.047 29.259 28.974 C 29.272 30.055 29.273 31.136 29.263 32.216 C 29.349 32.221 29.434 32.225 29.521 32.228 C 29.541 31.473 29.549 30.719 29.548 29.964 C 29.484 29.934 29.420 29.892 29.355 29.871 C 29.436 29.874 29.473 29.872 29.548 29.875 C 29.547 29.431 29.548 28.988 29.533 28.544 C 29.531 28.524 29.530 28.504 29.529 28.484 A 8.644 8.644 0 0 0 28.820 28.318 C 28.785 28.916 28.748 29.514 28.716 30.113 C 28.733 29.514 28.774 28.916 28.812 28.318 A 8.644 8.644 0 0 0 28.634 28.291 z M 25.300 28.404 A 8.644 8.644 0 0 0 24.941 28.484 C 24.802 29.720 24.657 30.956 24.556 32.195 C 24.648 32.159 24.738 32.119 24.832 32.089 C 24.871 31.427 24.923 30.765 25 30.107 C 24.945 30.750 24.952 31.397 24.958 32.044 C 25.027 32.025 25.097 32.018 25.166 32.001 C 25.188 30.801 25.241 29.602 25.300 28.404 z M 24.882 28.503 A 8.644 8.644 0 0 0 24.664 28.576 C 24.594 28.942 24.529 29.309 24.449 29.673 C 24.269 30.628 24.239 30.310 24.226 29.810 C 24.157 29.939 24.088 30.067 24.007 30.195 C 24.020 30.988 23.972 31.771 23.869 32.552 C 24.000 32.464 24.132 32.375 24.273 32.306 C 24.269 32.060 24.265 31.814 24.259 31.568 C 24.495 30.553 24.709 29.531 24.882 28.503 z M 29.916 28.593 C 29.892 29.023 29.869 29.453 29.841 29.882 C 29.923 29.884 29.998 29.887 30.074 29.888 L 30.150 28.679 A 8.644 8.644 0 0 0 29.916 28.593 z M 24.175 28.740 A 8.644 8.644 0 0 0 23.603 28.988 C 23.585 29.216 23.569 29.445 23.548 29.673 C 23.695 29.661 23.817 29.658 23.931 29.656 C 23.941 29.476 23.952 29.296 23.960 29.117 C 23.973 29.298 23.978 29.478 23.986 29.658 C 24.070 29.658 24.161 29.656 24.222 29.664 C 24.218 29.454 24.213 29.281 24.205 29.082 C 24.189 28.967 24.187 28.854 24.175 28.740 z M 31.132 29.099 C 31.124 29.382 31.117 29.666 31.105 29.949 C 31.242 29.967 31.384 29.998 31.521 30.037 C 31.540 29.802 31.554 29.568 31.570 29.333 A 8.644 8.644 0 0 0 31.132 29.099 z M 23.246 29.160 A 8.644 8.644 0 0 0 23 29.300 L 22.972 29.732 C 23.062 29.721 23.127 29.718 23.210 29.708 L 23.246 29.160 z M 22.833 29.394 A 8.644 8.644 0 0 0 22.623 29.517 C 22.621 29.606 22.623 29.696 22.621 29.785 C 22.697 29.774 22.795 29.755 22.869 29.746 C 22.859 29.628 22.844 29.511 22.833 29.394 z M 31.916 29.544 C 31.933 29.728 31.949 29.960 31.966 30.093 C 31.972 30.129 31.973 30.165 31.978 30.201 C 32.154 30.281 32.337 30.373 32.546 30.503 C 32.550 30.332 32.548 30.162 32.546 29.992 A 8.644 8.644 0 0 0 31.916 29.544 z M 29.828 30.103 C 29.782 30.814 29.742 31.525 29.693 32.236 C 29.772 32.238 29.847 32.244 29.925 32.246 L 30.050 30.269 C 29.976 30.213 29.904 30.151 29.828 30.103 z M 32.718 30.121 C 32.703 30.278 32.690 30.436 32.673 30.593 C 32.743 30.639 32.827 30.700 32.902 30.751 C 32.915 30.603 32.924 30.455 32.935 30.306 A 8.644 8.644 0 0 0 32.718 30.121 z M 23.892 30.365 C 23.752 30.576 23.603 30.784 23.449 30.992 C 23.425 31.310 23.396 31.630 23.382 31.949 C 23.315 31.745 23.254 31.538 23.191 31.333 C 23.067 31.496 22.948 31.659 22.828 31.820 C 22.805 32.543 22.762 33.267 22.708 33.992 C 22.783 33.816 22.874 33.653 22.972 33.494 C 22.977 33.417 22.982 33.340 22.986 33.263 C 23.045 32.895 23.006 31.757 23.134 31.931 C 23.226 32.307 23.264 32.687 23.277 33.068 C 23.435 32.889 23.608 32.731 23.796 32.597 C 23.818 31.854 23.850 31.109 23.892 30.365 z M 33.195 30.548 C 33.196 30.686 33.201 30.824 33.201 30.962 C 33.271 31.015 33.338 31.061 33.414 31.119 C 33.413 30.996 33.413 30.874 33.414 30.751 A 8.644 8.644 0 0 0 33.195 30.548 z M 33.482 30.822 C 33.484 30.940 33.483 31.057 33.486 31.175 C 33.564 31.236 33.662 31.318 33.746 31.384 C 33.741 31.293 33.740 31.202 33.736 31.111 A 8.644 8.644 0 0 0 33.482 30.822 z M 33.824 31.210 C 33.817 31.285 33.813 31.359 33.806 31.433 C 33.885 31.496 33.963 31.558 34.046 31.626 C 34.049 31.578 34.052 31.529 34.054 31.480 A 8.644 8.644 0 0 0 33.824 31.210 z M 31.048 31.273 C 31.032 31.597 31.017 31.921 31.001 32.246 C 31.12 32.243 31.283 32.246 31.351 32.244 C 31.363 32.076 31.377 31.908 31.390 31.740 C 31.290 31.595 31.187 31.447 31.048 31.273 z M 34.251 31.755 C 34.250 31.766 34.251 31.777 34.25 31.789 C 34.270 31.805 34.290 31.823 34.310 31.839 A 8.644 8.644 0 0 0 34.251 31.755 z M 22.105 32.894 C 22.017 33.051 21.940 33.208 21.876 33.365 C 21.897 33.667 21.897 33.949 21.833 34.171 C 21.822 34.027 21.810 33.764 21.798 33.591 C 21.778 33.656 21.749 33.720 21.734 33.785 C 21.696 33.951 21.661 34.179 21.623 34.378 C 21.713 35.713 21.778 37.047 21.753 38.380 C 21.858 38.619 21.982 38.844 22.146 39.039 C 22.170 38.684 22.171 38.253 22.175 37.798 C 22.146 37.894 22.115 37.984 22.089 38.082 C 22.057 36.352 22.071 34.623 22.105 32.894 z M 32.343 33.785 C 32.278 33.803 32.220 33.824 32.156 33.843 C 32.076 35.775 31.754 37.698 31.386 39.603 C 31.496 39.474 31.600 39.337 31.699 39.193 C 31.764 38.745 31.825 38.296 31.910 37.853 L 31.837 39.007 C 31.936 38.847 32.026 38.675 32.109 38.494 C 32.143 37.957 32.172 37.420 32.208 36.884 C 32.266 36.203 32.265 37.276 32.269 38.103 C 32.363 37.837 32.433 37.542 32.488 37.230 C 32.470 36.604 32.443 35.979 32.451 35.353 C 32.496 35.352 32.537 35.483 32.580 35.679 C 32.557 35.111 32.486 34.487 32.343 33.785 z M 31.261 34.123 C 31.142 34.163 31.036 34.206 30.921 34.248 C 30.910 34.602 30.892 34.957 30.886 35.312 C 30.732 36.574 30.879 38.077 30.460 39.195 C 30.038 38.432 29.923 37.572 29.640 36.769 L 29.769 34.712 C 29.690 34.748 29.600 34.781 29.525 34.818 C 29.498 35.255 29.464 35.691 29.441 36.128 C 29.441 35.703 29.458 35.275 29.466 34.849 C 29.373 34.895 29.294 34.943 29.207 34.990 C 29.203 35.110 29.203 35.231 29.199 35.351 C 29.171 35.244 29.157 35.136 29.134 35.029 C 28.835 35.192 28.567 35.357 28.349 35.525 C 28.310 36.465 28.249 37.406 28.183 38.347 C 28.292 38.605 28.395 38.853 28.505 39.121 C 28.542 38.467 28.578 38.050 28.613 39.005 C 28.687 39.178 28.704 39.408 28.705 39.658 C 28.871 40.091 29.026 40.514 29.097 40.861 C 29.153 40.070 29.159 39.277 29.123 38.480 C 29.121 38.750 29.121 39.020 29.158 39.289 C 29.314 39.728 29.182 40.344 29.109 40.906 C 29.145 41.095 29.164 41.268 29.150 41.408 C 29.217 41.363 29.288 41.315 29.357 41.269 C 29.422 40.262 29.478 39.254 29.546 38.248 C 29.575 36.465 29.837 38.976 30.408 39.5 C 30.396 39.847 30.391 40.197 30.384 40.546 C 30.486 40.468 30.586 40.388 30.685 40.304 C 30.946 39.028 30.907 37.435 31.074 36.050 C 31.267 37.158 31.102 38.229 31.064 39.335 C 31.119 39.496 31.115 39.704 31.089 39.929 C 31.157 39.861 31.227 39.796 31.292 39.724 C 31.311 39.000 31.305 38.271 31.435 37.560 C 31.271 36.413 31.236 35.268 31.261 34.123 z M 28.939 35.294 C 29.296 36.263 29.140 37.270 29.115 38.273 C 29.065 37.279 28.980 36.283 28.939 35.294 z M 27.972 35.871 C 27.824 36.030 27.708 36.190 27.650 36.349 C 27.649 36.539 27.646 36.728 27.646 36.917 C 27.698 37.116 27.779 37.353 27.884 37.621 C 27.914 37.037 27.933 36.454 27.972 35.871 z M 28.714 36.009 C 28.735 35.993 28.761 37.424 28.777 37.859 C 28.736 37.439 28.727 37.017 28.695 36.597 C 28.700 36.180 28.707 36.015 28.714 36.009 z " style="font-style:normal;font-variant:normal;font-weight:normal;font-stretch:normal;font-size:medium;line-height:normal;font-family:sans-serif;text-indent:0;text-align:start;text-decoration:none;text-decoration-line:none;text-decoration-style:letter-spacing:normal;word-spacing:normal;text-transform:none;direction:ltr;block-progression:tb;writing-mode:lr-tb;baseline-shift:baseline;text-anchor:start;white-space:normal;fill:#ebebeb;fill-opacity:0.276;stroke-width:0.2;stroke-linecap:round;marker:none;" />
 <path id="path4373" d="M 27.253 28.169 A 8.644 8.644 0 0 0 26.990 28.179 C 26.986 29.258 26.978 30.337 26.990 31.414 L 26.990 31.880 C 27.161 31.897 27.320 31.918 27.462 31.947 C 27.449 31.609 27.426 31.271 27.419 30.933 C 27.436 31.192 27.455 31.603 27.474 31.951 C 27.546 31.966 27.609 31.982 27.671 32 C 27.614 30.728 27.569 29.456 27.619 28.187 A 8.644 8.644 0 0 0 27.300 28.171 C 27.323 28.635 27.336 29.039 27.308 29.130 C 27.292 28.810 27.280 28.490 27.267 28.169 A 8.644 8.644 0 0 0 27.253 28.169 z M 27.976 28.205 C 27.958 28.591 27.932 28.978 27.939 29.361 C 27.900 30.043 27.858 31.110 27.818 32.037 C 27.961 32.084 28.160 32.118 28.380 32.148 C 28.431 31.702 28.473 31.255 28.535 30.810 C 28.540 31.262 28.525 31.712 28.515 32.164 C 28.633 32.177 28.749 32.189 28.878 32.199 C 28.877 31.172 28.938 30.152 29.216 29.154 C 29.190 30.173 29.152 31.191 29.107 32.210 C 29.178 32.215 29.251 32.215 29.324 32.218 C 29.348 31.443 29.380 30.670 29.408 29.896 C 29.390 29.889 29.373 29.877 29.355 29.871 C 29.377 29.872 29.386 29.872 29.408 29.873 C 29.424 29.403 29.435 28.933 29.458 28.464 A 8.644 8.644 0 0 0 29.189 28.396 C 29.149 28.666 29.092 28.933 28.996 29.193 C 29.020 28.919 29.052 28.644 29.082 28.369 A 8.644 8.644 0 0 0 28.863 28.326 C 28.857 28.382 28.858 28.320 28.855 28.324 A 8.644 8.644 0 0 0 28.517 28.273 C 28.518 28.568 28.519 28.863 28.513 29.158 C 28.404 29.736 28.234 32.052 28.218 31.529 C 28.228 30.429 28.222 29.328 28.222 28.228 A 8.644 8.644 0 0 0 27.976 28.205 z M 26.394 28.220 A 8.644 8.644 0 0 0 26.208 28.244 C 26.201 28.367 26.191 28.602 26.185 28.644 C 26.200 28.515 26.191 28.378 26.197 28.246 A 8.644 8.644 0 0 0 25.738 28.304 C 25.727 28.454 25.722 28.605 25.707 28.753 C 25.696 28.573 25.630 28.438 25.554 28.345 A 8.644 8.644 0 0 0 25.304 28.402 C 25.278 28.484 25.253 28.577 25.257 28.75 C 25.146 29.832 25.135 30.918 25.152 32.003 C 25.227 31.985 25.301 31.969 25.376 31.955 C 25.384 31.099 25.419 30.245 25.511 29.394 C 25.590 30.237 25.549 31.082 25.498 31.929 C 25.554 31.920 25.609 31.909 25.666 31.902 C 25.676 31.649 25.679 31.395 25.691 31.142 C 25.729 31.392 25.754 31.642 25.771 31.892 C 25.975 31.869 26.173 31.853 26.367 31.851 C 26.325 31.336 26.293 30.819 26.289 30.302 C 26.325 29.609 26.359 28.914 26.394 28.220 z M 25.269 28.410 A 8.644 8.644 0 0 0 24.958 28.480 C 24.889 29.271 24.712 30.225 24.542 29.878 C 24.542 29.456 24.548 29.035 24.552 28.613 A 8.644 8.644 0 0 0 24.121 28.757 C 24.131 29.059 24.141 29.360 24.150 29.662 C 24.196 29.665 24.274 29.659 24.308 29.666 C 24.261 29.760 24.202 29.853 24.148 29.947 C 24.160 30.704 24.137 31.457 23.947 32.185 C 23.830 32.351 23.922 31.216 23.892 30.845 C 23.893 30.685 23.894 30.524 23.894 30.363 C 23.830 30.459 23.766 30.556 23.699 30.652 C 23.703 31.334 23.690 32.014 23.662 32.691 C 23.792 32.588 23.933 32.507 24.076 32.425 C 24.101 32.344 24.127 32.263 24.154 32.183 C 24.153 32.248 24.156 32.312 24.156 32.376 C 24.276 32.312 24.398 32.257 24.523 32.207 C 24.530 31.788 24.533 31.369 24.550 30.953 C 24.590 31.360 24.610 31.764 24.621 32.169 C 24.717 32.133 24.811 32.089 24.910 32.060 C 24.991 30.840 25.071 29.614 25.269 28.410 z M 29.460 28.466 C 29.457 28.935 29.463 29.404 29.462 29.873 C 29.542 29.875 29.587 29.877 29.662 29.878 L 29.662 28.517 A 8.644 8.644 0 0 0 29.460 28.466 z M 30.630 28.855 C 30.632 29.002 30.625 29.156 30.632 29.298 C 30.624 29.499 30.627 29.701 30.621 29.902 C 30.714 29.906 30.825 29.916 30.914 29.923 C 30.929 29.624 30.959 29.326 30.982 29.027 A 8.644 8.644 0 0 0 30.630 28.855 z M 23.900 28.857 A 8.644 8.644 0 0 0 23.695 28.947 C 23.696 29.185 23.695 29.422 23.697 29.660 C 23.775 29.655 23.828 29.658 23.896 29.656 C 23.895 29.388 23.899 29.123 23.900 28.857 z M 23.214 29.177 A 8.644 8.644 0 0 0 22.833 29.396 C 22.820 29.516 22.808 29.637 22.794 29.757 C 22.934 29.739 23.058 29.725 23.185 29.710 C 23.193 29.533 23.205 29.355 23.214 29.177 z M 25.857 29.283 L 25.857 30.785 C 25.764 30.283 25.793 29.785 25.857 29.283 z M 31.589 29.345 C 31.599 29.586 31.615 29.827 31.617 30.068 C 31.735 30.105 31.858 30.146 31.986 30.205 C 32.029 30.025 32.070 29.845 32.113 29.666 A 8.644 8.644 0 0 0 31.589 29.345 z M 22.566 29.552 A 8.644 8.644 0 0 0 22.375 29.689 C 22.374 29.734 22.373 29.779 22.373 29.824 C 22.434 29.815 22.504 29.803 22.564 29.794 C 22.565 29.714 22.565 29.633 22.566 29.552 z M 32.439 29.910 C 32.439 30.087 32.438 30.264 32.449 30.449 C 32.511 30.486 32.578 30.529 32.644 30.572 C 32.648 30.405 32.648 30.238 32.652 30.072 A 8.644 8.644 0 0 0 32.439 29.910 z M 29.462 29.923 C 29.462 30.691 29.463 31.458 29.466 32.226 C 29.532 32.229 29.595 32.232 29.662 32.234 L 29.662 30.019 C 29.596 29.984 29.529 29.951 29.462 29.923 z M 24.855 30.005 C 24.804 30.723 24.773 31.671 24.708 30.460 L 24.779 30.244 L 24.855 30.005 z M 32.791 30.177 C 32.795 30.346 32.805 30.515 32.804 30.683 C 32.906 30.752 33.011 30.824 33.123 30.906 C 33.126 30.768 33.132 30.631 33.136 30.494 A 8.644 8.644 0 0 0 32.791 30.177 z M 33.314 30.658 C 33.296 30.774 33.273 30.888 33.263 31.005 C 33.320 31.048 33.383 31.094 33.443 31.140 C 33.442 31.125 33.441 31.110 33.441 31.095 C 33.458 31.011 33.484 30.929 33.503 30.845 A 8.644 8.644 0 0 0 33.314 30.658 z M 30.605 30.759 C 30.594 31.256 30.582 31.753 30.576 32.25 C 30.706 32.249 30.748 32.249 30.857 32.248 C 30.856 31.855 30.874 31.464 30.882 31.072 C 30.793 30.967 30.704 30.862 30.605 30.759 z M 27.189 30.794 C 27.229 32.018 27.171 32.381 27.189 31.068 L 27.189 30.794 z M 23.123 31.423 C 23.023 31.553 22.929 31.685 22.832 31.814 C 22.799 32.265 22.830 32.659 23.070 32.859 C 23.083 32.380 23.106 31.902 23.123 31.423 z M 22.761 31.916 C 22.611 32.118 22.476 32.319 22.345 32.519 C 22.338 33.067 22.335 33.616 22.328 34.164 C 22.223 34.788 22.192 36.929 22.033 35.205 C 21.947 34.625 21.888 34.044 21.843 33.462 C 21.804 33.570 21.759 33.677 21.734 33.785 C 21.727 33.815 21.721 33.861 21.714 33.892 C 21.837 35.396 22.260 36.875 21.970 38.384 C 21.956 38.519 21.933 38.583 21.914 38.675 C 21.961 38.756 22.008 38.837 22.064 38.912 C 22.104 38.788 22.141 38.663 22.158 38.531 C 22.187 37.330 22.126 35.706 22.568 34.357 C 22.573 34.124 22.580 33.889 22.582 33.658 C 22.640 33.102 22.699 32.544 22.761 31.916 z M 31.572 32 C 31.567 32.080 31.558 32.161 31.552 32.242 C 31.569 32.241 31.724 32.240 31.724 32.240 C 31.724 32.240 31.648 32.119 31.572 32 z M 34.919 33.757 C 34.899 34.518 34.928 34.295 34.919 33.757 z M 32.341 33.785 C 32.277 34.980 32.194 36.175 32.109 37.369 C 32.116 36.201 32.106 35.034 32.078 33.867 C 32.002 33.889 31.929 33.912 31.855 33.935 C 31.914 35.570 31.955 37.206 31.929 38.841 C 32.050 38.627 32.160 38.399 32.251 38.148 C 32.331 36.966 32.410 35.784 32.482 34.601 C 32.445 34.339 32.401 34.069 32.343 33.785 C 32.343 33.785 32.341 33.785 32.341 33.785 z M 31.773 33.960 C 31.628 34.006 31.475 34.050 31.335 34.097 C 31.310 34.256 31.291 34.417 31.261 34.576 C 31.142 35.307 30.969 37.020 30.896 37.128 C 30.910 36.173 30.896 35.217 30.880 34.261 C 30.764 34.303 30.646 34.345 30.535 34.388 C 30.517 35.517 30.494 36.647 30.425 37.775 C 30.401 38.709 30.385 39.643 30.347 40.576 C 30.498 40.461 30.643 40.336 30.789 40.208 C 30.855 39.129 30.954 38.052 31.144 36.982 C 31.339 36.244 30.981 36.593 31.390 36.693 C 31.686 35.816 31.752 34.890 31.773 33.960 z M 21.675 34.093 C 21.487 34.982 21.307 36.215 21.472 37.345 C 21.491 37.135 21.509 36.925 21.519 36.714 C 21.539 36.953 21.542 37.328 21.537 37.705 C 21.583 37.912 21.647 38.109 21.724 38.298 C 21.743 36.897 21.684 35.495 21.675 34.093 z M 29.662 34.759 C 29.596 34.790 29.528 34.820 29.464 34.851 C 29.464 36.623 29.449 38.392 29.371 40.162 C 29.356 40.423 29.293 40.909 29.244 41.345 C 29.314 41.298 29.387 41.250 29.458 41.203 C 29.609 39.876 29.703 38.545 29.662 37.205 L 29.662 34.759 z M 32.515 34.863 C 32.462 35.797 32.421 36.732 32.396 37.667 C 32.591 36.912 32.650 35.995 32.515 34.863 z M 29.197 34.996 C 29.114 35.040 29.028 35.084 28.951 35.128 C 28.943 35.259 28.937 35.390 28.929 35.521 C 28.932 35.395 28.925 35.268 28.925 35.142 C 28.782 35.226 28.659 35.311 28.537 35.396 C 28.540 36.136 28.543 36.876 28.509 37.615 C 28.497 36.877 28.515 36.139 28.527 35.402 C 28.484 35.432 28.437 35.461 28.396 35.492 C 28.348 36.558 28.318 37.626 28.330 38.695 C 28.400 38.861 28.458 39.013 28.527 39.181 C 28.674 39.539 28.806 39.889 28.916 40.218 C 28.914 38.798 28.944 37.379 29.136 35.966 C 29.163 35.643 29.177 35.319 29.197 34.996 z M 28.214 35.630 C 28.086 35.739 27.974 35.848 27.884 35.957 C 27.886 36.536 27.885 37.049 27.873 37.585 C 27.923 37.715 27.976 37.853 28.035 37.994 C 28.075 37.173 28.128 36.394 28.214 35.630 z M 27.650 36.347 C 27.598 36.490 27.577 36.633 27.605 36.773 C 27.621 36.854 27.655 36.960 27.685 37.058 C 27.668 36.809 27.656 36.570 27.650 36.347 z M 20.871 41.708 C 20.885 42.283 20.893 42.150 20.871 41.708 z " style="font-style:normal;font-variant:normal;font-weight:normal;font-stretch:normal;font-size:medium;line-height:normal;font-family:sans-serif;text-indent:0;text-align:start;text-decoration:none;text-decoration-line:none;text-decoration-style:letter-spacing:normal;word-spacing:normal;text-transform:none;direction:ltr;block-progression:tb;writing-mode:lr-tb;baseline-shift:baseline;text-anchor:start;white-space:normal;fill:#2c2c2c;fill-opacity:0.067;stroke-width:0.2;stroke-linecap:round;marker:none;" />
 <path id="path4142" d="m 26.546,17.425 c -2.674,0 -4.853,2.179 -4.853,4.853 0,2.674 2.179,4.853 4.853,4.853 2.674,0 4.853,-2.179 4.853,-4.853 0,-2.674 -2.179,-4.853 -4.853,-4.853 z m 0,1.099 c 2.079,0 3.753,1.674 3.753,3.753 0,2.079 -1.674,3.753 -3.753,3.753 -2.079,0 -3.753,-1.674 -3.753,-3.753 0,-2.079 1.674,-3.753 3.753,-3.753 z" style="font-style:normal;font-variant:normal;font-weight:normal;font-stretch:normal;font-size:medium;line-height:normal;font-family:sans-serif;text-indent:0;text-align:start;text-decoration:none;text-decoration-line:none;text-decoration-style:letter-spacing:normal;word-spacing:normal;text-transform:none;direction:ltr;block-progression:tb;writing-mode:lr-tb;baseline-shift:baseline;text-anchor:start;white-space:normal;fill:#424242;stroke:#2a2a2a;stroke-width:0.5;stroke-linecap:butt;marker:none;" />
 <path id="path4144" d="m 17.422,15.358 c 0.344,2.134 1.446,3.167 2.410,4.200 0.964,1.032 2.479,3.580 2.892,4.338 0.413,0.757 6.266,1.721 7.437,0.137 1.170,-1.583 3.580,-4.751 4.338,-5.233 0.757,-0.482 1.032,-1.170 0.964,-2.685 -0.068,-1.514 0.137,-11.500 0.068,-12.395 -0.068,-0.895 -0.895,-1.032 -1.997,-1.032 -1.101,0 -13.566,-0.068 -14.461,0 -0.895,0.068 -1.652,0.344 -1.721,1.377 -0.068,1.032 -0.068,10.604 0.068,11.293 z" style="fill:#821e02;stroke-width:0.600;stroke-linecap:butt;stroke-opacity:1" />
 <circle r="1.377" cy="26.514" cx="26.925" id="path4140" style="fill:#7e754e;stroke:#303030;stroke-width:0.5;stroke-linecap:butt;marker:none;" />
 <path id="path4146" d="m 26.228,2.662 c -0.653,-0.001 -0.758,0.006 -1.388,0.005 -0.171,6.767 -0.231,18.445 -0.039,21.990 1.051,0.193 2.298,0.280 3.363,0.166 0.005,-2.129 0.043,-16.680 -0.119,-22.156 -0.795,-0.002 -0.979,-0.003 -1.816,-0.005 z" style="fill:#c4c4c4;stroke-width:1px;stroke-linecap:butt;stroke-opacity:1" />
 <path id="path4151" d="m 25.754,2.688 c 0,0 -0.068,20.108 0,22.036" style="fill:none;stroke:#0b0f49;stroke-width:0.649;stroke-linecap:butt;stroke-opacity:1" />
 <path id="path4153" d="m 27.063,2.688 c 0,0 -0.068,20.865 0,22.173" style="fill:none;stroke:#580f0f;stroke-width:0.649;stroke-linecap:butt;stroke-opacity:1" />
 <path id="path4157" d="m 25.685,2.664 c -1.136,-0.002 -1.462,0.006 -2.429,0.007 0.018,0.006 0.036,0.010 0.054,0.017 2.135,0.546 4.405,0.576 6.533,-0.015 -0.746,-0.003 -1.129,-0.002 -2.029,-0.005 -0.709,0.074 -1.419,0.061 -2.128,-0.003 z m -3.912,0.166 c -1.356,0.023 -2.702,0.229 -4.054,0.341 -0.109,0.110 -0.195,0.249 -0.257,0.412 0.390,-0.069 0.770,-0.132 1.017,-0.072 1.607,-0.131 3.264,-0.559 4.832,0.050 2.245,0.574 4.640,0.587 6.861,-0.103 1.792,-0.255 3.573,0.101 5.361,0.259 -0.011,-0.147 -0.050,-0.267 -0.101,-0.376 -0.301,0.007 -0.581,-0.010 -0.785,-0.111 C 32.688,2.981 30.653,2.730 28.744,3.394 26.485,3.890 24.183,3.381 21.984,2.849 l -0.210,-0.019 z m 0,0.894 c -1.478,0.024 -2.944,0.272 -4.419,0.373 -0.002,0.037 -0.001,0.341 -0.003,0.398 0.429,-0.075 0.858,-0.154 1.128,-0.087 1.607,-0.130 3.264,-0.559 4.832,0.050 2.245,0.574 4.640,0.589 6.861,-0.103 1.793,-0.257 3.575,0.099 5.365,0.257 -7.51e-4,-0.119 -2.6e-4,-0.293 -0.002,-0.380 -0.340,0.014 -0.662,0.006 -0.888,-0.105 C 32.688,3.879 30.653,3.627 28.744,4.291 26.484,4.783 24.183,4.276 21.984,3.744 l -0.210,-0.019 z m 0,0.894 c -1.480,0.025 -2.949,0.273 -4.427,0.373 -0.002,0.079 -1.47e-4,0.304 -0.002,0.400 0.431,-0.076 0.862,-0.158 1.134,-0.091 1.607,-0.131 3.264,-0.559 4.832,0.050 2.245,0.574 4.640,0.587 6.861,-0.103 1.794,-0.255 3.577,0.102 5.367,0.259 0.001,-0.181 -3.52e-4,-0.227 0,-0.384 -0.342,0.014 -0.665,0.009 -0.892,-0.103 C 32.688,4.771 30.653,4.520 28.744,5.183 26.485,5.676 24.183,5.169 21.984,4.638 l -0.210,-0.019 z m 0,0.894 c -1.482,0.025 -2.953,0.275 -4.433,0.375 -0.001,0.114 -5.75e-4,0.273 -0.002,0.400 0.433,-0.076 0.867,-0.160 1.140,-0.093 1.607,-0.131 3.264,-0.559 4.832,0.050 2.245,0.574 4.640,0.587 6.861,-0.103 1.792,-0.255 3.574,0.101 5.363,0.259 0.001,-0.115 0.003,-0.272 0.003,-0.382 -0.342,0.014 -0.665,0.007 -0.892,-0.105 C 32.688,5.665 30.653,5.414 28.744,6.078 26.485,6.574 24.183,6.064 21.984,5.533 l -0.210,-0.019 z m 0,0.873 c -1.484,0.025 -2.957,0.275 -4.439,0.375 -0.001,0.141 -0.003,0.249 -0.003,0.400 0.436,-0.077 0.873,-0.160 1.148,-0.093 1.607,-0.131 3.264,-0.559 4.832,0.050 2.245,0.574 4.640,0.587 6.861,-0.103 1.789,-0.255 3.568,0.101 5.353,0.259 0.001,-0.124 0.002,-0.259 0.003,-0.380 -0.338,0.013 -0.658,0.004 -0.882,-0.107 C 32.688,6.538 30.653,6.287 28.744,6.951 26.485,7.447 24.183,6.937 21.984,6.406 l -0.210,-0.019 z m 0,0.894 c -1.487,0.024 -2.962,0.275 -4.447,0.375 -6.75e-4,0.162 -0.001,0.233 -0.002,0.402 0.438,-0.077 0.878,-0.161 1.154,-0.093 1.607,-0.130 3.264,-0.559 4.832,0.050 2.245,0.574 4.640,0.589 6.861,-0.103 1.786,-0.256 3.561,0.097 5.343,0.255 0.001,-0.131 0.002,-0.250 0.003,-0.378 -0.334,0.013 -0.650,0.005 -0.873,-0.105 C 32.688,7.436 30.653,7.184 28.744,7.847 26.484,8.340 24.183,7.832 21.984,7.300 l -0.210,-0.019 z m 0,0.914 c -1.489,0.025 -2.966,0.276 -4.453,0.375 -1.63e-4,0.175 -0.004,0.223 -0.003,0.402 0.440,-0.077 0.884,-0.163 1.162,-0.095 1.607,-0.131 3.264,-0.559 4.832,0.050 2.245,0.574 4.640,0.587 6.861,-0.103 1.782,-0.253 3.553,0.097 5.332,0.255 0.001,-0.135 0.004,-0.243 0.005,-0.376 -0.331,0.012 -0.643,0.002 -0.863,-0.107 -1.958,-0.249 -3.992,-0.499 -5.902,0.164 -2.259,0.492 -4.560,-0.014 -6.759,-0.544 l -0.210,-0.019 z m 0,0.894 c -1.491,0.025 -2.971,0.276 -4.460,0.375 3.64e-4,0.179 -0.002,0.224 -0.002,0.404 0.442,-0.077 0.888,-0.164 1.167,-0.095 1.607,-0.130 3.264,-0.562 4.832,0.048 2.245,0.574 4.640,0.587 6.861,-0.103 1.779,-0.253 3.547,0.096 5.322,0.255 0.001,-0.132 0.002,-0.242 0.003,-0.375 -0.326,0.011 -0.633,-9.594e-4 -0.851,-0.109 -1.958,-0.249 -3.993,-0.499 -5.902,0.166 -2.259,0.492 -4.560,-0.014 -6.759,-0.546 l -0.210,-0.019 z m 0,0.873 c -1.491,0.025 -2.970,0.276 -4.458,0.374 6.81e-4,0.144 0.003,0.259 0.003,0.402 0.440,-0.077 0.882,-0.161 1.160,-0.093 1.608,-0.129 3.264,-0.563 4.832,0.048 2.245,0.576 4.640,0.588 6.861,-0.103 1.776,-0.253 3.542,0.093 5.314,0.253 0.001,-0.129 0.002,-0.242 0.003,-0.373 -0.323,0.011 -0.627,-0.001 -0.843,-0.109 -1.958,-0.249 -3.993,-0.499 -5.902,0.166 -2.259,0.492 -4.560,-0.014 -6.759,-0.546 l -0.210,-0.019 z m 0,0.896 c -1.488,0.022 -2.963,0.273 -4.449,0.373 0.001,0.140 7.27e-4,0.265 0.002,0.402 0.437,-0.077 0.876,-0.161 1.152,-0.093 1.607,-0.131 3.264,-0.559 4.832,0.050 2.245,0.574 4.640,0.587 6.861,-0.103 1.773,-0.252 3.535,0.094 5.304,0.253 0.001,-0.126 0.002,-0.246 0.003,-0.375 -0.320,0.010 -0.620,-0.001 -0.833,-0.107 -1.958,-0.247 -3.992,-0.499 -5.902,0.164 -2.259,0.492 -4.560,-0.014 -6.759,-0.544 l -0.210,-0.019 z m 0,0.892 c -1.485,0.025 -2.958,0.275 -4.441,0.375 0.001,0.131 0.002,0.274 0.003,0.400 0.434,-0.076 0.868,-0.160 1.142,-0.093 1.607,-0.131 3.264,-0.559 4.832,0.050 2.245,0.574 4.640,0.587 6.861,-0.103 1.769,-0.252 3.529,0.091 5.294,0.251 0.001,-0.119 0.002,-0.249 0.003,-0.371 -0.316,0.01 -0.612,-0.003 -0.824,-0.109 -1.957,-0.249 -3.992,-0.499 -5.902,0.164 -2.259,0.492 -4.560,-0.014 -6.759,-0.544 l -0.210,-0.019 z m 0,0.894 c -1.482,0.025 -2.953,0.275 -4.433,0.375 0.001,0.118 0.001,0.286 0.003,0.398 0.431,-0.076 0.862,-0.156 1.134,-0.089 1.608,-0.129 3.264,-0.563 4.832,0.048 2.245,0.576 4.640,0.588 6.861,-0.103 1.766,-0.252 3.522,0.090 5.285,0.251 8.53e-4,-0.109 0.002,-0.255 0.003,-0.369 -0.312,0.009 -0.604,-0.007 -0.814,-0.111 -1.958,-0.249 -3.993,-0.499 -5.902,0.166 -2.259,0.492 -4.560,-0.014 -6.759,-0.546 l -0.210,-0.019 z m 0,0.873 c -1.475,0.025 -2.939,0.272 -4.412,0.373 0.004,0.178 0.012,0.247 0.017,0.394 0.419,-0.074 0.834,-0.148 1.099,-0.083 1.607,-0.130 3.264,-0.559 4.832,0.050 2.245,0.575 4.640,0.586 6.861,-0.105 1.766,-0.252 3.522,0.090 5.285,0.251 4.03e-4,-0.148 -8.81e-4,-0.206 0,-0.369 -0.311,0.009 -0.601,-0.007 -0.810,-0.111 -1.958,-0.249 -3.993,-0.499 -5.902,0.166 -2.259,0.492 -4.560,-0.014 -6.759,-0.546 l -0.210,-0.019 z m 0,0.896 c -1.463,0.022 -2.914,0.266 -4.375,0.369 0.006,0.098 0.008,0.336 0.015,0.392 0.407,-0.072 0.807,-0.142 1.064,-0.080 1.607,-0.131 3.264,-0.559 4.832,0.050 2.245,0.574 4.640,0.587 6.861,-0.103 1.767,-0.251 3.525,0.091 5.289,0.251 -0.001,-0.106 3.8e-4,-0.245 0,-0.371 -0.312,0.009 -0.604,-0.005 -0.814,-0.109 -1.958,-0.247 -3.992,-0.499 -5.902,0.164 -2.259,0.492 -4.560,-0.014 -6.759,-0.544 l -0.210,-0.019 z m 0,0.863 c -1.434,0.023 -2.857,0.257 -4.289,0.363 0.025,0.126 0.050,0.254 0.082,0.373 0.351,-0.061 0.687,-0.107 0.912,-0.052 1.607,-0.130 3.264,-0.559 4.832,0.050 2.245,0.574 4.640,0.589 6.861,-0.103 1.769,-0.254 3.527,0.089 5.292,0.25 -6.66e-4,-0.016 7.47e-4,-0.026 0,-0.042 -0.002,-0.050 -2.45e-4,-0.259 -0.002,-0.328 -0.313,0.009 -0.606,-0.003 -0.816,-0.107 -1.958,-0.247 -3.992,-0.499 -5.902,0.164 -2.259,0.492 -4.560,-0.014 -6.759,-0.546 l -0.210,-0.019 z m 0,0.896 c -1.354,0.023 -2.699,0.229 -4.050,0.341 0.042,0.119 0.083,0.240 0.130,0.351 0.241,-0.033 0.462,-0.051 0.625,-0.011 1.607,-0.131 3.264,-0.559 4.832,0.050 2.245,0.574 4.640,0.587 6.861,-0.103 1.764,-0.251 3.517,0.089 5.277,0.25 0.009,-0.107 0.002,-0.247 0.005,-0.367 -0.310,0.008 -0.600,-0.007 -0.808,-0.111 -1.957,-0.249 -3.992,-0.499 -5.902,0.164 -2.259,0.492 -4.560,-0.014 -6.759,-0.544 l -0.210,-0.019 z m 0,0.873 c -1.233,0.021 -2.459,0.190 -3.689,0.306 0.068,0.127 0.142,0.243 0.216,0.361 0.060,0.003 0.127,0.001 0.177,0.013 1.607,-0.131 3.264,-0.559 4.832,0.050 2.245,0.574 4.640,0.587 6.861,-0.103 1.702,-0.242 3.394,0.064 5.091,0.230 0.040,-0.100 0.061,-0.229 0.089,-0.345 -0.271,0.002 -0.521,-0.020 -0.707,-0.113 -1.957,-0.249 -3.992,-0.499 -5.902,0.164 -2.259,0.492 -4.560,-0.014 -6.759,-0.544 l -0.210,-0.019 z m 0,0.894 c -1.044,0.017 -2.083,0.143 -3.123,0.253 0.098,0.128 0.194,0.258 0.296,0.378 1.459,-0.158 2.947,-0.452 4.363,0.099 2.245,0.574 4.640,0.587 6.861,-0.103 1.479,-0.211 2.951,-0.009 4.425,0.158 0.130,-0.092 0.248,-0.191 0.347,-0.302 -0.109,-0.017 -0.212,-0.041 -0.298,-0.083 -1.958,-0.249 -3.993,-0.499 -5.902,0.166 -2.259,0.492 -4.560,-0.014 -6.759,-0.546 l -0.210,-0.019 z m 0,0.892 c -0.815,0.013 -1.627,0.097 -2.439,0.185 0.114,0.123 0.226,0.247 0.339,0.367 1.223,-0.147 2.455,-0.278 3.636,0.181 2.245,0.574 4.640,0.589 6.861,-0.103 1.190,-0.170 2.376,-0.070 3.562,0.062 0.122,-0.134 0.236,-0.253 0.341,-0.357 -1.781,-0.216 -3.606,-0.368 -5.332,0.230 -2.259,0.492 -4.560,-0.014 -6.759,-0.546 l -0.210,-0.019 z m 0,0.896 c -0.573,0.009 -1.145,0.053 -1.716,0.109 0.096,0.114 0.196,0.240 0.298,0.375 0.997,-0.098 1.993,-0.126 2.955,0.248 2.245,0.574 4.640,0.587 6.861,-0.103 0.952,-0.135 1.902,-0.082 2.851,0.005 0.109,-0.131 0.220,-0.264 0.324,-0.384 -1.547,-0.160 -3.112,-0.203 -4.603,0.314 -2.259,0.492 -4.560,-0.014 -6.759,-0.544 l -0.210,-0.019 z m 0,0.873 c -0.358,0.006 -0.715,0.033 -1.072,0.060 0.082,0.117 0.162,0.246 0.246,0.369 0.798,-0.043 1.591,0.002 2.363,0.302 2.245,0.574 4.640,0.587 6.861,-0.103 0.726,-0.103 1.451,-0.092 2.175,-0.048 0.111,-0.139 0.199,-0.246 0.308,-0.380 -1.320,-0.097 -2.643,-0.075 -3.912,0.365 -2.259,0.492 -4.560,-0.014 -6.759,-0.544 l -0.210,-0.019 z m 0,0.894 c -0.165,0.002 -0.329,0.019 -0.494,0.027 0.090,0.138 0.168,0.249 0.255,0.386 0.599,0.008 1.193,0.090 1.775,0.318 2.245,0.576 4.640,0.588 6.861,-0.103 0.505,-0.072 1.009,-0.087 1.513,-0.080 0.107,-0.139 0.189,-0.250 0.298,-0.390 -1.096,-0.036 -2.186,0.041 -3.240,0.408 -2.259,0.492 -4.560,-0.014 -6.759,-0.546 l -0.210,-0.019 z m 0.064,0.919 c 0.105,0.172 0.173,0.286 0.265,0.441 0.406,0.043 0.809,0.130 1.207,0.285 2.245,0.574 4.640,0.587 6.861,-0.103 0.269,-0.038 0.537,-0.058 0.806,-0.072 0.102,-0.135 0.204,-0.266 0.312,-0.408 -0.862,0.018 -1.715,0.127 -2.546,0.416 -2.259,0.492 -4.560,-0.014 -6.759,-0.544 l -0.146,-0.013 z m 0.607,1.013 c 0.065,0.114 0.209,0.340 0.253,0.421 0.205,0.047 0.408,0.106 0.611,0.185 2.245,0.574 4.640,0.587 6.861,-0.103 0.023,-0.003 0.046,-0.002 0.070,-0.005 0.086,-0.117 0.234,-0.302 0.332,-0.433 -0.618,0.056 -1.230,0.166 -1.830,0.375 -2.102,0.458 -4.239,0.047 -6.298,-0.439 z m 6.984,1.115 c -0.230,0.054 -0.458,0.118 -0.685,0.197 -0.114,0.025 -0.230,0.036 -0.345,0.056 0.383,-0.054 0.736,-0.132 1.031,-0.253 z" style="font-style:normal;font-variant:normal;font-weight:normal;font-stretch:normal;font-size:medium;line-height:normal;font-family:sans-serif;text-indent:0;text-align:start;text-decoration:none;text-decoration-line:none;text-decoration-style:letter-spacing:normal;word-spacing:normal;text-transform:none;direction:ltr;block-progression:tb;writing-mode:lr-tb;baseline-shift:baseline;text-anchor:start;white-space:normal;fill:#eeeeee;fill-opacity:0.214;stroke-width:0.400;stroke-linecap:butt;" />
 <path id="path4310" d="m 29.406,25.385 c 0.559,-0.559 0.970,-1.156 1.044,-1.604" style="fill:none;stroke:#cdcdcd;stroke-width:0.5;stroke-linecap:butt;" />
 <path style="fill:none;stroke:#310707;stroke-width:0.5;stroke-linecap:butt;stroke-opacity:1" d="m 17.422,15.358 c 0.344,2.134 1.446,3.167 2.410,4.200 0.964,1.032 2.479,3.580 2.892,4.338 0.413,0.757 6.266,1.721 7.437,0.137 1.170,-1.583 3.580,-4.751 4.338,-5.233 0.757,-0.482 1.032,-1.170 0.964,-2.685 -0.068,-1.514 0.137,-11.500 0.068,-12.395 -0.068,-0.895 -0.895,-1.032 -1.997,-1.032 -1.101,0 -13.566,-0.068 -14.461,0 -0.895,0.068 -1.652,0.344 -1.721,1.377 -0.068,1.032 -0.068,10.604 0.068,11.293 z" id="path4155" />
 <path id="path4308" d="m 23.062,24.825 c 0.671,0.858 1.082,1.082 1.418,1.231" style="fill:none;stroke:#cdcdcd;stroke-width:0.5;stroke-linecap:butt;stroke-opacity:1" />
 <path id="path4355" d="m 26.287,26.376 1.005,-0.360" style="fill:none;stroke:#d9cd9b;stroke-width:1px;stroke-linecap:round;stroke-opacity:0.650" />
 </g>
</svg>
