<?xml version="1.0" encoding="UTF-8" standalone="no"?>
<svg xmlns:dc="http://purl.org/dc/elements/1.1/" xmlns:cc="http://creativecommons.org/ns#" xmlns:rdf="http://www.w3.org/1999/02/22-rdf-syntax-ns#" xmlns:svg="http://www.w3.org/2000/svg" xmlns="http://www.w3.org/2000/svg" width="100%" height="100%" id="medal01" version="1.1" viewBox="0 0 48 48">
 <defs id="defs4138" />
 <path style="fill:#183dcc;stroke-width:0.5;stroke-linecap:round" d="m 25.451,0 -3.262,13.636 5.758,2.639 C 29.027,13.594 31.02,5.767 32.437,0 l -6.986,0 z" id="path4551" />
 <path style="fill:#ffffff;stroke-width:0.5;stroke-linecap:round" d="m 25.451,0 -3.262,13.636 4.254,1.949 C 27.588,12.401 29.424,5.195 30.703,0 l -5.252,0 z" id="path4536" />
 <path style="fill:#b51f22;stroke-width:0.5;stroke-linecap:round" d="m 25.451,0 -3.262,13.636 2.752,1.262 C 26.084,11.459 27.763,4.904 28.97,0 l -3.519,0 z" id="path4538" />
 <path style="fill:#183dcc;stroke-width:0.5;stroke-linecap:round" d="m 25.451,0 -3.262,13.636 1.197,0.549 C 24.529,10.537 26.012,4.651 27.154,0 l -1.703,0 z" id="path4540" />
 <path style="fill:none;stroke:#0e1333;stroke-width:0.5;stroke-linecap:round" d="m 25.451,0 -3.261,13.636 5.757,2.638 C 29.027,13.594 31.02,5.767 32.437,0" id="stroke03" />
 <path style="fill:#6b6765;stroke-width:0.5;stroke-linecap:butt;marker:none" d="m 20.751,15.314 c -0.973,0 -1.755,0.784 -1.755,1.758 l 0,2.213 c 0.027,-0.002 0.052,-0.008 0.08,-0.008 l 0.961,0 0,-1.479 c 0,-0.807 0.62,-1.459 1.39,-1.459 l 5.112,0 c 0.77,0 1.39,0.652 1.39,1.459 l 0,1.479 1.041,0 0,-2.205 c 0,-0.974 -0.782,-1.758 -1.756,-1.758 l -6.463,0 z" id="rect4432" />
 <circle style="fill:#777370;stroke-width:1px;stroke-linecap:butt;marker:none" id="path4426" cx="24.129" cy="31.77" r="14.218" />
 <path style="fill:none;stroke:#8c8c8c;stroke-width:2.200;stroke-linecap:butt;stroke-opacity:0.579" id="p3366" d="M 13.695,35.076 C 12.648,32.704 12.403,31.04 12.798,28.737" />
 <path style="fill:none;stroke:#a9a9a9;stroke-width:1.5;stroke-linecap:butt;stroke-opacity:0.430" id="p3368" d="m 14.389,25.024 c 1.298,-1.602 2.836,-2.626 2.836,-2.626" />
 <path style="fill:none;stroke:#c5c1b1;stroke-width:0.999px;stroke-linecap:butt;stroke-opacity:0.540" id="p3370" d="m 16.579,21.373 0.795,1.787" />
 <path style="fill:none;stroke:#d8d7d3;stroke-width:0.999px;stroke-linecap:butt;stroke-opacity:0.579" id="p3375" d="m 13.462,34.807 0.664,0.5" />
 <path style="fill:none;stroke:#d8d7d3;stroke-width:0.999px;stroke-linecap:butt;stroke-opacity:0.579" id="p3377" d="m 13.683,26.079 0.502,0.284" />
 <path style="fill:none;stroke:#cabca6;stroke-width:1.5;stroke-linecap:round;stroke-opacity:0.370" id="p3224" d="m 24.062,43.412 c 1.386,0 4.161,-0.732 5.154,-1.271" />
 <path style="fill:none;stroke:#bfbfbf;stroke-width:3;stroke-linecap:butt;stroke-opacity:0.170" id="p3228" d="m 31.999,23.676 c 3.877,4.39 5.397,9.243 1.83,15.043" />
 <path style="fill:none;stroke:#d7ccc0;stroke-width:0.999px;stroke-linecap:butt;stroke-opacity:0.55" id="p3246" d="m 32.711,38.627 1.442,0.5" />
 <path id="path4236" d="m 32.218,20.115 a 22.148,25.455 0 0 0 -16.890,22.818 14.218,14.218 0 0 0 8.800,3.054 14.218,14.218 0 0 0 14.218,-14.218 14.218,14.218 0 0 0 -6.128,-11.654 z" style="fill:#ececec;fill-opacity:0.092;stroke-width:2.700;stroke-linecap:butt;stroke-linejoin:round;stroke-opacity:0.447;marker:none;" />
 <path style="fill:none;stroke:#d5d5d5;stroke-width:0.999px;stroke-linecap:round;stroke-opacity:1" id="p3282" d="m 12.313,36.771 c 1.669,3.081 3.207,4.59 4.697,5.522" />
 <circle r="13.644" cy="31.77" cx="24.129" id="circle4428" style="fill:none;stroke:#9e9e9e;stroke-width:0.800;stroke-linecap:butt;marker:none" />
 <path d="m 24.281,21.332 2.750,6.454 6.985,0.656 -5.288,4.610 1.534,6.846 -6.018,-3.605 -6.037,3.574 1.568,-6.838 -5.265,-4.636 6.988,-0.621 z" id="path4332" style="fill:#464646;stroke-width:0.699;stroke-linecap:butt;marker:none;" />
 <path style="fill:#717171;stroke-width:0.699;stroke-linecap:butt;marker:none;" id="path4334" d="m 24.367,22.791 2.325,5.458 5.906,0.555 -4.472,3.898 1.297,5.789 -5.089,-3.048 -5.105,3.022 1.326,-5.782 -4.452,-3.921 5.909,-0.525 z" />
 <ellipse style="fill:#a4a4a4;fill-opacity:0.680;stroke-width:2.700;stroke-linecap:butt;stroke-linejoin:round;stroke-opacity:0.447;marker:none;" id="ellipse4234" cx="41.754" cy="-9.462" rx="1.233" ry="0.963" transform="matrix(0.646,0.762,-0.762,0.646,0,0)" />
 <path d="m 24.364,24.533 1.809,4.246 4.595,0.431 -3.479,3.033 1.009,4.504 -3.959,-2.372 -3.971,2.351 1.032,-4.499 -3.464,-3.050 4.597,-0.408 z" id="path4241" style="fill:#838383;stroke-width:0.699;stroke-linecap:butt;marker:none;" />
 <ellipse transform="matrix(0.883,0.468,-0.468,0.883,0,0)" ry="1.627" rx="2.084" cy="5.443" cx="37.933" id="path4232" style="fill:#acacac;fill-opacity:0.680;stroke-width:2.700;stroke-linecap:butt;stroke-linejoin:round;stroke-opacity:0.447;marker:none;" />
 <path style="fill:none;stroke:#c0c0c0;stroke-width:0.899;stroke-linecap:round;stroke-opacity:0.834;" d="m 24.760,24.657 1.355,3.890 5.221,0.517" id="path4364-3" />
 <path style="fill:none;stroke:#2e2e2e;stroke-width:0.5;stroke-linecap:butt;marker:none" d="m 20.751,15.314 c -0.973,0 -1.755,0.784 -1.755,1.757 l 0,1.439 A 14.218,14.218 0 0 0 9.91,31.769 14.218,14.218 0 0 0 24.128,45.988 14.218,14.218 0 0 0 38.347,31.769 14.218,14.218 0 0 0 28.97,18.419 l 0,-1.347 c 0,-0.973 -0.782,-1.757 -1.755,-1.757 l -6.462,0 z m 0.675,1.025 5.111,0 c 0.77,0 1.39,0.651 1.39,1.458 l 0,0.285 a 14.218,14.218 0 0 0 -3.8,-0.533 14.218,14.218 0 0 0 -4.091,0.615 l 0,-0.367 c 0,-0.807 0.62,-1.458 1.39,-1.458 z" id="stroke01" />
 <path style="fill:none;stroke:#d8d7d3;stroke-width:0.5;stroke-linecap:butt;stroke-opacity:0.579" d="m 19.49,16.729 c 0.141,-0.672 0.848,-0.955 0.99,-0.955" id="path4440" />
 <path style="fill:#183dcc;stroke-width:0.5;stroke-linecap:butt" d="m 14.933,0 c 1.546,5.264 4.425,15.435 5.512,16.658 0.99,0.283 5.589,0.213 6.933,0.142 C 26.494,15.411 23.711,5.288 22.152,0 l -7.219,0 z" id="path4485" />
 <path style="fill:#b51f22;stroke-width:0.5;stroke-linecap:butt" d="m 16.632,0 c 1.546,5.264 4.425,15.435 5.512,16.658 0.449,0.128 1.663,0.179 2.955,0.195 0.946,-0.01 1.82,-0.029 2.279,-0.053 C 26.494,15.411 23.711,5.288 22.152,0 l -5.52,0 z" id="path4470" />
 <path style="fill:#ffffff;stroke-width:0.5;stroke-linecap:butt" d="m 18.542,0 c 1.546,5.264 4.425,15.435 5.512,16.658 0.361,0.103 1.248,0.149 2.235,0.175 0.413,-0.01 0.847,-0.02 1.089,-0.033 C 26.494,15.411 23.711,5.288 22.152,0 l -3.61,0 z" id="path4472" />
 <path style="fill:#173cca;stroke-width:0.5;stroke-linecap:butt" d="m 20.38,0 c 1.546,5.264 4.425,15.435 5.512,16.658 0.241,0.069 0.702,0.116 1.272,0.148 0.055,-0.002 0.167,-0.003 0.214,-0.006 C 26.494,15.411 23.711,5.288 22.152,0 L 20.38,0 Z" id="path4474" />
 <path style="fill:none;stroke:#0e1333;stroke-width:0.5;stroke-linecap:round;stroke-opacity:1" d="m 14.933,0 c 1.545,5.264 4.424,15.435 5.511,16.658 0.99,0.282 5.589,0.213 6.933,0.142 C 26.494,15.411 23.711,5.288 22.152,0" id="stroke02" />
</svg>
