<?xml version="1.0" encoding="UTF-8" standalone="no"?>
<svg xmlns:dc="http://purl.org/dc/elements/1.1/" xmlns:cc="http://creativecommons.org/ns#" xmlns:rdf="http://www.w3.org/1999/02/22-rdf-syntax-ns#" xmlns:svg="http://www.w3.org/2000/svg" xmlns="http://www.w3.org/2000/svg" viewBox="0 0 48 48" version="1.1" id="medal01" height="100%" width="100%">
 <defs id="defs4138" />
 <path style="fill:#8a7c57;stroke:#2a1f12;stroke-width:0.5;stroke-linecap:round;marker:none" d="m 24,18.875 a 4,4 0 0 0 -4,4 4,4 0 0 0 4,4 4,4 0 0 0 4,-4 4,4 0 0 0 -4,-4 z m 0,1 a 3,3 0 0 1 3,3 3,3 0 0 1 -3,3 3,3 0 0 1 -3,-3 3,3 0 0 1 3,-3 z" id="path5121" />
 <path style="fill:#c7242a;stroke-width:1px;stroke-linecap:butt;stroke-opacity:1" d="m 21.05,23.288 c -1.627,-0.61 -3.966,-4.271 -5.186,-6 C 14.644,15.559 13.932,13.423 13.728,12 13.525,10.576 13.318,6.174 13.016,3.762 12.715,1.35 15.254,2.44 16.271,2.44 c 1.016,0 9.864,-1.118 12.813,-0.711 2.949,0.406 5.186,-0.203 5.389,1.932 0.203,2.135 -0.203,9.966 -0.305,11.084 -0.101,1.118 -4.067,6.203 -7.016,7.932 -0.203,0 -0.508,-0.915 -0.508,-0.915 0,0 -0.305,0.915 -0.711,1.322 -0.406,0.406 -3.254,0.61 -3.559,0.508 -0.305,-0.101 -0.711,-1.016 -0.711,-1.016 z" id="path4697" />
 <path style="fill:#88191d;stroke-width:1px;stroke-linecap:butt;stroke-opacity:1" d="m 31.751,16.087 c -0.474,-0.026 -0.947,0.052 -1.365,0.302 -2.522,2.109 -3.042,3.303 -3.742,5.373 0,0 0.304,0.914 0.507,0.914 2.126,-1.246 4.761,-4.221 6.115,-6.212 -0.46,-0.186 -0.984,-0.347 -1.515,-0.376 z" id="path4841" />
 <path style="font-style:normal;font-variant:normal;font-weight:normal;font-stretch:normal;font-size:medium;line-height:normal;font-family:sans-serif;text-indent:0;text-align:start;text-decoration:none;text-decoration-line:none;word-spacing:normal;text-transform:none;direction:ltr;block-progression:tb;writing-mode:lr-tb;baseline-shift:baseline;text-anchor:start;white-space:normal;fill:#f17155;fill-opacity:0.306;stroke-width:0.300;stroke-linecap:round;marker:none" d="M 30.117,3.125 C 28.336,3.124 26.572,3.412 24.8,3.494 23.288,3.436 21.702,2.852 20.25,3.57 18.237,4.149 16.087,3.956 14.016,3.835 13.685,3.822 13.352,3.791 13.018,3.761 c 8.8e-5,7.077e-4 -8.8e-5,10e-4 0,10e-4 0.01,0.087 0.018,0.212 0.029,0.304 2.376,0.173 4.775,0.392 7.117,-0.13 C 21.547,3.155 23.122,3.683 24.589,3.788 25.81,3.82 26.89,3.572 28.108,3.529 29.17,3.444 30.241,3.373 31.305,3.487 32.033,3.972 33.374,4.076 34.492,4.082 34.487,3.982 34.486,3.855 34.479,3.77 33.399,3.763 32.313,3.737 31.363,3.189 30.949,3.143 30.533,3.125 30.117,3.125 Z M 13.15,5.105 c 0.009,0.103 0.019,0.191 0.029,0.296 6.95,0.372 13.917,-0.16 20.871,0.091 0.158,-0.03 0.316,-0.004 0.474,0.037 3.6e-5,-0.088 4.16e-4,-0.174 0,-0.259 C 32.569,5.047 30.585,5.161 28.619,5.128 23.464,5.168 18.301,5.381 13.15,5.105 Z M 34.396,6.804 C 34.11,6.792 33.823,6.795 33.537,6.805 29.482,7.05 25.415,6.865 21.354,6.951 18.682,6.993 16,7.063 13.337,7.29 13.344,7.389 13.353,7.487 13.36,7.586 19.672,7.081 26.016,7.327 32.341,7.179 33.057,7.12 33.783,7.087 34.501,7.125 34.503,7.024 34.507,6.916 34.508,6.817 34.471,6.815 34.433,6.807 34.395,6.806 Z M 18.232,8.38 c -1.594,0.05 -3.204,0.106 -4.791,0.281 0.007,0.108 0.013,0.2 0.021,0.306 6.98,-0.682 13.996,0.014 20.988,0.06 0.003,-0.1 0.004,-0.19 0.007,-0.291 C 29.048,8.677 23.644,8.261 18.232,8.38 Z m 5.791,1.833 C 20.54,10.202 17.047,10.206 13.57,10.39 c 0.009,0.114 0.018,0.179 0.027,0.287 6.923,-0.326 13.86,-0.082 20.785,-0.074 0.005,-0.125 0.01,-0.159 0.015,-0.287 -3.458,-0.018 -6.916,-0.079 -10.375,-0.103 z m 10.308,1.375 c -1.505,0.026 -3.003,0.257 -4.513,0.183 -5.342,0.037 -10.707,0.019 -16.027,0.527 0.016,0.09 0.04,0.189 0.06,0.285 5.984,-0.538 12.002,-0.462 18.003,-0.535 0.792,-0.021 1.643,-0.184 2.462,-0.181 0.005,-0.105 0.008,-0.169 0.013,-0.279 z m -16.519,1.361 c -1.204,0.285 -2.404,0.703 -3.48,1.324 0.035,0.098 0.06,0.191 0.099,0.291 1.117,-0.625 2.33,-1.135 3.591,-1.296 1.892,0.143 3.756,0.522 5.597,0.97 2.316,0.096 4.644,0.01 6.941,-0.306 1.185,-0.391 2.429,-0.123 3.648,0.019 0.004,-0.062 0.01,-0.237 0.015,-0.31 -1.025,-0.136 -2.052,-0.244 -3.083,-0.171 -1.062,0.324 -2.241,0.331 -3.433,0.437 -1.773,0.045 -3.595,0.254 -5.32,-0.259 -1.507,-0.333 -3.034,-0.595 -4.576,-0.697 z m 1.201,1.253 c -1.099,0.008 -1.843,1.113 -3.007,0.972 -0.367,0.057 -0.765,0.205 -1.115,0.414 0.041,0.086 0.073,0.173 0.117,0.259 0.703,-0.423 1.726,-0.384 2.472,-0.689 0.497,-0.332 1.018,-0.668 1.623,-0.689 0.108,-0.08 0.045,-0.268 -0.089,-0.267 z m 0.335,0.363 c -0.268,0.047 -0.077,0.424 0.156,0.332 3.59,0.71 7.271,0.731 10.916,0.66 1.086,-0.34 2.163,0.009 3.201,0.351 0.053,-0.088 0.102,-0.172 0.148,-0.253 -0.192,-0.057 -0.385,-0.111 -0.57,-0.201 -1.178,-0.536 -2.398,-0.193 -3.527,-0.181 -3.451,0.051 -6.929,-0.023 -10.324,-0.707 z m 0.123,1.087 c -1.201,0.583 -2.576,0.798 -3.773,1.38 0.053,0.08 0.102,0.165 0.158,0.244 1.215,-0.558 2.589,-0.75 3.759,-1.396 0.066,-0.104 -0.022,-0.242 -0.144,-0.228 z m 1.316,0.417 c -0.401,0.089 -1.007,-0.136 -1.324,0.166 -0.03,0.386 0.547,0.104 0.742,0.15 3.047,-0.155 6.032,1.26 9.06,0.792 0.629,0.639 1.333,1.21 2.042,1.771 0.066,-0.075 0.135,-0.15 0.201,-0.226 -0.655,-0.527 -1.312,-1.052 -1.921,-1.632 l -0.064,-0.042 0.326,-0.277 C 29.82,16.752 29.782,16.74 29.724,16.75 c -2.629,0.688 -5.275,-0.426 -7.898,-0.626 -0.345,-0.031 -0.692,-0.05 -1.039,-0.052 z m 9.81,0.187 c -0.194,-0.001 -0.181,0.317 0.011,0.3 0.753,0.04 1.389,0.406 1.976,0.847 0.065,-0.085 0.125,-0.166 0.187,-0.25 -0.642,-0.48 -1.362,-0.854 -2.175,-0.898 z m -10.615,0.923 c -1.084,0.422 -2.35,0.618 -3.3,1.285 0.062,0.09 0.109,0.157 0.173,0.25 0.942,-0.641 2.16,-0.792 3.197,-1.251 l -0.07,-0.283 z m 0.203,0.408 c -0.194,0.002 -0.175,0.321 0.017,0.3 2.737,0.1 5.465,0.64 8.201,0.58 0.218,-0.176 -0.161,-0.415 -0.335,-0.277 -2.638,-0.039 -5.248,-0.496 -7.882,-0.603 z m 8.609,0.361 c -0.257,0.026 -0.109,0.403 0.083,0.425 0.539,0.484 1.016,1.041 1.503,1.582 0.072,-0.075 0.148,-0.144 0.22,-0.22 -0.565,-0.636 -1.127,-1.276 -1.792,-1.787 l -0.015,0 z m -8.466,0.605 c -0.664,0.541 -1.568,0.577 -2.355,0.863 -0.108,0.059 -0.269,0.147 -0.427,0.248 0.055,0.077 0.111,0.152 0.167,0.23 0.008,-0.002 0.012,-0.014 0.021,-0.015 0.823,-0.574 2.11,-0.307 2.748,-1.16 0.011,-0.087 -0.065,-0.171 -0.154,-0.166 z m 7.486,0.484 c -0.299,0.058 -0.035,0.449 0.195,0.375 0.67,0.351 0.801,1.127 1.058,1.8 0.081,-0.072 0.162,-0.136 0.244,-0.21 -0.325,-0.822 -0.493,-1.767 -1.498,-1.964 z m -2.347,0.064 c -1.602,0.082 -3.202,0.483 -4.806,0.337 l 0.093,0.296 c 2.153,0.247 4.306,-0.676 6.443,-0.193 0.106,0.278 0.597,0.133 0.361,-0.115 C 26.984,18.972 26.146,19.14 25.467,19.1 Z m -4.423,1.025 c -0.813,0.22 -1.489,0.843 -2.259,1.162 0.065,0.078 0.129,0.164 0.195,0.24 0.696,-0.301 1.317,-0.814 2.027,-1.087 l 0,-0.002 c 0.055,-0.021 0.109,-0.046 0.166,-0.064 0.089,-0.097 0.001,-0.264 -0.128,-0.248 z m 6.193,0.085 -0.14,0.259 c 0.035,0.022 0.072,0.043 0.113,0.042 0.51,0.406 0.658,0.996 0.73,1.611 0.09,-0.065 0.176,-0.115 0.267,-0.185 -0.111,-0.701 -0.342,-1.383 -0.969,-1.72 z m -1.275,0.429 c -1.616,0.026 -3.252,0.489 -4.853,0.115 l 0.101,0.316 c 1.806,0.456 3.663,-0.31 5.458,-0.062 0.252,0.123 0.309,-0.3 0.05,-0.337 -0.251,-0.024 -0.504,-0.034 -0.757,-0.031 z m -4.529,0.814 c -0.625,0.143 -1.123,0.548 -1.613,0.955 0.082,0.077 0.161,0.137 0.242,0.207 0.46,-0.366 0.922,-0.737 1.486,-0.912 0.086,-0.094 0.012,-0.255 -0.115,-0.25 z m 3.22,0.261 c -1.023,-0.011 -2.054,0.1 -3.07,0.126 -0.237,0.207 0.198,0.405 0.375,0.281 1.476,-0.017 3.02,-0.319 4.435,0.23 0.053,-0.111 0.066,-0.142 0.103,-0.234 -0.053,-0.091 -0.165,-0.164 -0.273,-0.132 -0.502,-0.179 -1.038,-0.254 -1.57,-0.271 z" id="path4162" />
 <path style="font-style:normal;font-variant:normal;font-weight:normal;font-stretch:normal;font-size:medium;line-height:normal;font-family:sans-serif;text-indent:0;text-align:start;text-decoration:none;text-decoration-line:none;word-spacing:normal;text-transform:none;direction:ltr;block-progression:tb;writing-mode:lr-tb;baseline-shift:baseline;text-anchor:start;white-space:normal;fill:#ececec;stroke-width:0.699;stroke-linecap:butt" d="m 27.564,1.644 c -0.216,-10e-4 -0.466,0.006 -0.701,0.009 0.096,1.164 0.212,2.665 0.308,4.265 0.057,0.951 0.104,1.863 0.13,2.599 0.026,0.735 0.029,1.316 0.009,1.513 -0.103,1.039 -0.407,5.09 -0.509,6.621 -0.097,1.461 0.067,3.014 0.273,3.871 L 27.619,19.5 c -0.104,-0.804 -0.181,-1.836 -0.117,-2.798 0.101,-1.52 0.408,-5.603 0.507,-6.597 C 28.04,9.794 28.028,9.241 28.002,8.496 27.974,7.749 27.928,6.832 27.871,5.876 27.775,4.29 27.661,2.816 27.564,1.644 Z M 25.195,1.71 c -0.232,0.011 -0.462,0.022 -0.701,0.037 0.047,1.862 0.276,7.942 0.378,8.964 0.018,0.187 -0.002,0.678 -0.052,1.271 -0.05,0.593 -0.126,1.307 -0.203,2.025 -0.076,0.718 -0.151,1.44 -0.203,2.058 -0.051,0.617 -0.081,1.116 -0.05,1.455 0.102,1.126 0.403,4.052 0.615,5.216 0.039,0.217 0.101,0.424 0.171,0.625 0.301,-0.063 0.536,-0.137 0.677,-0.222 -0.062,-0.173 -0.129,-0.347 -0.162,-0.527 -0.195,-1.072 -0.504,-4.045 -0.605,-5.156 -0.02,-0.221 4.47e-4,-0.726 0.05,-1.332 0.05,-0.605 0.126,-1.324 0.203,-2.042 0.076,-0.718 0.151,-1.435 0.203,-2.041 0.051,-0.605 0.082,-1.079 0.05,-1.4 C 25.485,9.824 25.242,3.448 25.193,1.71 Z m -2.353,0.152 c -0.233,0.018 -0.467,0.035 -0.699,0.054 0.014,1.016 0.069,2.788 0.148,4.732 0.044,1.094 0.091,2.156 0.134,2.984 0.021,0.414 0.042,0.769 0.06,1.042 0.018,0.273 0.028,0.445 0.048,0.566 0.011,0.068 0.021,0.431 0.003,0.878 -0.017,0.447 -0.051,1.01 -0.095,1.605 -0.088,1.189 -0.216,2.509 -0.316,3.312 -0.111,0.889 0.026,2.044 0.193,3.123 0.166,1.078 0.369,2.087 0.416,2.548 0.023,0.236 0.018,0.554 0.002,0.892 0.192,0.003 0.408,-0.004 0.71,-0.025 0.012,-0.335 0.011,-0.663 -0.015,-0.937 -0.055,-0.555 -0.258,-1.528 -0.421,-2.585 -0.163,-1.057 -0.281,-2.189 -0.189,-2.927 0.103,-0.824 0.228,-2.149 0.318,-3.349 0.044,-0.6 0.079,-1.167 0.097,-1.628 0.017,-0.461 0.027,-0.784 -0.011,-1.021 C 23.22,11.095 23.2,10.896 23.183,10.628 23.165,10.363 23.146,10.009 23.125,9.597 23.082,8.773 23.034,7.713 22.99,6.621 22.91,4.659 22.855,2.839 22.841,1.863 Z m -2.537,0.22 c -0.238,0.022 -0.469,0.042 -0.695,0.064 0.016,0.324 0.035,0.662 0.085,1.281 0.066,0.821 0.155,1.838 0.244,2.855 0.088,1.016 0.177,2.033 0.244,2.851 0.066,0.818 0.111,1.459 0.111,1.642 0,0.418 -0.074,0.999 -0.138,1.562 -0.064,0.563 -0.124,1.102 -0.062,1.539 0.01,0.072 -0.011,0.386 -0.078,0.759 -0.066,0.372 -0.165,0.826 -0.261,1.292 -0.028,0.137 -0.046,0.265 -0.074,0.402 l 0.49,1.527 c 0.03,-0.469 0.136,-1.14 0.269,-1.789 0.094,-0.461 0.195,-0.917 0.265,-1.31 0.07,-0.393 0.122,-0.699 0.082,-0.982 -0.039,-0.275 0.001,-0.806 0.064,-1.361 0.063,-0.555 0.142,-1.144 0.142,-1.64 C 20.993,10.5 20.947,9.897 20.88,9.075 20.813,8.258 20.725,7.241 20.636,6.224 20.547,5.207 20.459,4.189 20.392,3.371 20.34,2.729 20.319,2.372 20.304,2.083 Z" id="path4699" />
 <path style="fill:#2d0809;fill-opacity:0.514;stroke-width:1px;stroke-linecap:butt" d="m 15.805,9.934 c 0.89,-0.667 1.446,-1.558 1.892,-1.558 0.445,0 1.78,0.779 2.893,0.333 1.113,-0.445 3.561,0.222 4.34,0.222 0.779,0 1.113,-0.667 2.226,-0.333 1.113,0.333 2.114,0.222 2.337,-0.333 0.222,-0.556 1.892,1.224 2.448,1.224 0.556,0 -1.001,1.224 -1.669,1.113 -0.667,-0.111 -2.114,-0.779 -3.561,-0.333 -1.446,0.445 -2.782,-0.779 -5.008,-0.445 -2.226,0.333 -4.118,0.779 -5.899,0.111 z" id="path4837" />
 <path style="fill:#520f11;stroke-width:1px;stroke-linecap:butt" d="m 18.789,13.138 c -0.779,-0.667 -1.558,-0.222 -1.558,0.222 0,0.445 1.335,1.446 2.114,1.335 -0.333,-0.779 -0.556,-1.558 -0.556,-1.558 z" id="path4839" />
 <path style="fill:#cb6568;fill-opacity:0.337;stroke-width:1px;stroke-linecap:butt;stroke-opacity:1" d="m 14.15,2.197 c -0.724,0.029 -1.283,0.36 -1.132,1.566 0.301,2.411 0.507,6.812 0.71,8.236 0.06,0.42 0.179,0.91 0.328,1.425 0.561,-2.866 2.126,-3.737 3.011,-3.914 1.145,-0.229 0.801,-2.06 0.228,-2.748 -0.46,-0.553 0.051,-2.587 1.041,-4.496 -1.04,0.1 -1.808,0.173 -2.066,0.173 -0.508,0 -1.396,-0.273 -2.121,-0.244 z" id="path4910" />
 <path style="fill:#cb6568;fill-opacity:0.337;stroke-width:1px;stroke-linecap:butt" d="m 27.728,1.642 c -0.07,-10e-4 -0.161,0.004 -0.234,0.003 1.307,0.52 1.714,1.493 1.714,2.367 0,1.26 -0.227,3.436 0.917,4.238 1.145,0.801 1.717,1.603 0.8,2.634 -0.916,1.03 2.978,0.687 2.634,3.55 -0.058,0.489 -0.029,1.005 0.031,1.521 0.326,-0.529 0.554,-0.973 0.576,-1.212 C 34.271,13.627 34.677,5.795 34.474,3.66 34.271,1.524 32.033,2.135 29.083,1.728 28.715,1.677 28.254,1.65 27.728,1.642 Z" id="path4912" />
 <path style="fill:none;stroke:#dc8686;stroke-width:1px;stroke-linecap:round;stroke-opacity:0.337" d="m 27.835,10.313 c 0.801,2.176 2.061,3.78 1.374,5.154 -0.687,1.374 -1.863,3.581 -2.094,4.21" id="path4914" />
 <path style="fill:none;stroke:#dc8686;stroke-width:1px;stroke-linecap:round;stroke-opacity:0.337" d="m 24.834,12.335 c 0.407,1.465 1.709,2.117 1.384,2.768 -0.325,0.651 -1.221,2.361 -1.139,3.012 0.081,0.651 1.872,2.117 0.162,4.397" id="path4957" />
 <path style="fill:none;stroke:#dc8686;stroke-width:0.5;stroke-linecap:round;stroke-opacity:0.337" d="m 18.972,12.498 c -1.628,0 -2.442,0.651 -2.605,1.628" id="path4959" />
 <path style="fill:none;stroke:#dc8686;stroke-width:1px;stroke-linecap:round;stroke-opacity:0.337" d="m 27.847,2.157 c 1.139,0 2.035,2.849 1.791,4.478 -0.244,1.628 2.035,1.302 2.768,2.279" id="path4961" />
 <path style="fill:none;stroke:#dc8686;stroke-width:1px;stroke-linecap:round;stroke-opacity:0.337" d="m 25.486,2.482 c 0.732,0.488 1.465,3.175 1.058,3.908 -0.407,0.732 -0.977,2.117 1.221,2.361" id="path4963" />
 <path style="fill:none;stroke:#dc8686;stroke-width:2.400;stroke-linecap:round;stroke-opacity:0.337" d="m 22.555,16.243 c 0.407,1.221 1.302,2.524 0.895,3.827" id="path4965" />
 <path style="fill:none;stroke:#dc8686;stroke-width:1px;stroke-linecap:round;stroke-opacity:0.337" d="M 22.392,2.808 C 21.578,3.866 21.578,5.413 22.311,6.635 23.043,7.856 22.392,8.1 21.904,8.344" id="path4967" />
 <rect style="fill:#8a7c57;stroke:#2a1f12;stroke-width:0.5;stroke-linecap:round;marker:none" id="stroke03" width="3" height="4" x="22.375" y="25.125" ry="0.625" rx="0.625" />
 <circle style="fill:#b0a482;stroke-width:0.5;stroke-linecap:round;stroke-opacity:0.495;marker:none;fill-opacity:1" id="path5089" cx="24.375" cy="36.75" r="9.375" />
 <circle r="8.368" cy="36.75" cx="24.375" id="circle4322" style="fill:#8a7c57;stroke-width:0.5;stroke-linecap:round;marker:none" />
 <path style="fill:none;stroke:#7a6e4e;stroke-width:4.7;stroke-linecap:butt;stroke-dasharray:none" d="m 30.440,35.327 c 0.130,4.115 -1.763,6.859 -4.899,7.446" id="path4362" />
 <path style="fill:none;stroke:#aa9d79;stroke-width:3;stroke-linecap:butt;stroke-opacity:0.515" id="p3228" d="m 29.147,31.439 c 2.431,2.739 3.385,5.768 1.147,9.388" />
 <path style="fill:none;stroke:#f5e98b;stroke-width:0.5;stroke-linecap:butt;stroke-opacity:0.466" d="m 25.678,25.902 c 0.53,-0.291 1.379,-1.14 1.538,-1.83" id="path4301" />
 <path style="fill:none;stroke:#f5e98b;stroke-width:0.800;stroke-linecap:butt;stroke-opacity:0.466" d="m 22.609,26.061 2.518,0" id="path4303" />
 <path style="fill:#0e0e08;fill-opacity:0.569;stroke-width:0.300;stroke-linecap:butt;stroke-opacity:1" d="m 16.952,10.819 c -0.652,-0.29 -0.817,0.543 0.011,0.84 0.828,0.297 4.127,0.778 7.52,1.086 3.393,0.308 5.924,1.201 7.163,2.311 1.239,1.109 0.864,-0.629 0.323,-1.491 -0.541,-0.861 -2.797,-2.009 -5.4,-2.154 -2.603,-0.144 -7.565,0.061 -9.618,-0.592 z" id="path5072" />
 <path style="fill:none;stroke:#440b0b;stroke-width:0.400;stroke-linecap:butt;stroke-opacity:1" d="m 21.966,23.186 c 0,0 -2.237,-6.61 -2.44,-7.423 -0.203,-0.813 -0.406,-2.542 -1.118,-2.644" id="path4707" />
 <path style="fill:none;stroke:#310d0d;stroke-width:0.300;stroke-linecap:butt;stroke-opacity:1" d="m 26.105,22.76 c 0.866,-2.589 3.08,-6.496 5.623,-6.902 2.542,-0.406 1.83,-2.338 1.83,-2.949 0,-0.61 0.305,-9.457 0,-10.576" id="path4709" />
 <path style="fill:#b6af7a;stroke-width:1px;stroke-linecap:butt;stroke-opacity:1" d="m 16.572,10.611 c -0.662,-0.265 -0.795,0.574 0.044,0.839 0.839,0.265 4.154,0.618 7.557,0.795 3.402,0.176 5.966,0.972 7.247,2.032 1.281,1.06 0.839,-0.662 0.265,-1.502 -0.574,-0.839 -2.872,-1.9 -5.48,-1.944 -2.607,-0.044 -7.557,0.353 -9.634,-0.22 z" id="path5044" />
 <path id="path5061" d="m 16.572,10.611 c -0.662,-0.265 -0.795,0.574 0.044,0.839 0.839,0.265 4.154,0.618 7.557,0.795 3.402,0.176 5.966,0.972 7.247,2.032 1.281,1.06 0.839,-0.662 0.265,-1.502 -0.574,-0.839 -2.872,-1.9 -5.48,-1.944 -2.607,-0.044 -7.557,0.353 -9.634,-0.22 z" style="fill:none;stroke:#534533;stroke-width:0.300;stroke-linecap:butt;stroke-opacity:1" />
 <path style="fill:#534533;stroke-width:1px;stroke-linecap:butt;stroke-opacity:1" d="m 16.421,11.361 c 0.06,0.032 0.119,0.065 0.195,0.089 0.839,0.265 4.153,0.618 7.556,0.794 3.402,0.176 5.966,0.972 7.248,2.033 0.327,0.271 0.541,0.357 0.669,0.326 -0.471,-0.999 -1.362,-1.71 -3.277,-2.416 -2.273,-0.837 -8.414,-0.426 -12.391,-0.826 z" id="path5063" />
 <path style="fill:none;stroke:#f0f0bf;stroke-width:0.5;stroke-linecap:butt;stroke-opacity:0.495" d="m 27.312,11.375 c 0.75,0 2.75,0.562 3.25,1.062" id="path5068" />
 <path id="path4711" d="m 21.05,23.288 c -1.627,-0.61 -3.966,-4.271 -5.186,-6 C 14.644,15.559 13.932,13.423 13.728,12 13.525,10.576 13.318,6.174 13.016,3.762 12.715,1.35 15.254,2.44 16.271,2.44 c 1.016,0 9.864,-1.118 12.813,-0.711 2.949,0.406 5.186,-0.203 5.389,1.932 0.203,2.135 -0.203,9.966 -0.305,11.084 -0.101,1.118 -4.067,6.203 -7.016,7.932 -0.203,0 -0.508,-0.915 -0.508,-0.915 0,0 -0.305,0.915 -0.711,1.322 -0.406,0.406 -3.254,0.61 -3.559,0.508 -0.305,-0.101 -0.711,-1.016 -0.711,-1.016 z" style="fill:none;stroke:#3f0f0f;stroke-width:0.5;stroke-linecap:butt;stroke-opacity:1" />
 <circle style="fill:none;stroke:#2a1f12;stroke-width:0.5;stroke-linecap:round;marker:none" id="stroke04" cx="24.375" cy="36.75" r="9.375" />
 <path style="fill:none;stroke:#bfb599;stroke-width:2.200;stroke-linecap:butt;stroke-opacity:0.496" id="p3366" d="m 17.380,38.591 c -0.422,-1.563 -0.416,-2.613 0.048,-3.995" />
 <path id="path4279" d="m 25.443,33.072 c -3.663,2.646 -2.714,4.885 -2.171,5.699 -1.153,0.746 -2.985,0.474 -4.071,0.203" style="fill:none;stroke:#d2cbb8;stroke-width:2.9;stroke-linecap:butt;stroke-opacity:0.184;stroke-dasharray:none" />
 <path id="path4322" d="m 26.078,42.394 c -0.048,-0.009 -0.195,-0.045 -0.330,-0.078 -0.132,-0.033 -0.507,-0.069 -0.834,-0.081 -0.636,-0.021 -1.026,-0.099 -1.227,-0.243 -0.069,-0.048 -0.159,-0.090 -0.201,-0.090 -0.042,0 -0.237,-0.153 -0.432,-0.342 -0.423,-0.408 -0.636,-0.519 -1.209,-0.636 -0.603,-0.123 -1.740,-0.123 -2.013,0 -0.369,0.168 -0.873,0.204 -1.281,0.09 -0.072,-0.018 -0.330,-0.069 -0.570,-0.111 -1.215,-0.210 -1.245,-0.252 -0.441,-0.573 0.264,-0.105 0.489,-0.210 0.495,-0.231 0.111,-0.333 1.143,-0.438 1.704,-0.171 0.462,0.219 0.441,0.216 2.454,0.183 2.241,-0.039 2.142,0.006 1.950,-0.900 -0.063,-0.309 -0.099,-0.399 -0.369,-0.966 -0.360,-0.753 -0.303,-1.122 0.282,-1.848 0.675,-0.837 0.981,-1.392 0.984,-1.794 0,-0.306 0.315,0.117 0.375,0.510 0.042,0.273 0.096,0.222 0.405,-0.387 0.360,-0.711 0.462,-0.690 0.582,0.114 0.069,0.480 0.123,0.471 0.348,-0.069 0.054,-0.132 0.117,-0.258 0.135,-0.282 0.096,-0.111 0.255,0.291 0.255,0.654 0,0.117 0.03,0.342 0.069,0.498 0.039,0.159 0.06,0.375 0.048,0.495 -0.033,0.357 0.084,0.252 0.735,-0.633 0.324,-0.444 0.447,-0.327 0.393,0.375 -0.03,0.414 -0.009,0.420 0.288,0.075 0.123,-0.144 0.255,-0.264 0.288,-0.264 0.099,0 0.081,0.669 -0.027,1.008 -0.114,0.351 -0.099,0.381 0.105,0.240 0.345,-0.234 0.318,0.507 -0.039,1.038 -0.192,0.285 -0.198,0.273 0.093,0.237 0.243,-0.03 0.246,-0.03 0.213,0.072 -0.096,0.300 -0.444,0.672 -0.801,0.852 -0.249,0.123 -0.276,0.168 -0.141,0.240 0.141,0.075 0.111,0.252 -0.069,0.420 -0.195,0.180 -0.174,0.249 0.099,0.339 0.285,0.09 1.260,0.321 1.527,0.360 0.267,0.036 0.333,0.063 0.333,0.126 0,0.111 -0.543,0.363 -0.966,0.447 -0.207,0.039 -0.231,0.06 -0.171,0.132 0.069,0.081 -0.006,0.174 -0.204,0.237 -0.126,0.039 -0.144,0.063 -0.123,0.150 0.03,0.129 -0.126,0.258 -0.447,0.360 -0.273,0.084 -0.279,0.099 -0.102,0.198 0.279,0.159 0.135,0.210 -0.594,0.207 -0.288,0 -0.567,-0.015 -0.615,-0.036 -0.051,-0.018 -0.144,-0.009 -0.228,0.024 -0.132,0.054 -0.537,0.072 -0.738,0.03 z" style="fill:#4b4423;fill-opacity:1" />
 <path id="path4327" d="M 26.212 35.486 C 26.137 35.806 25.982 36.091 25.712 36.378 C 25.471 36.632 25.435 36.642 25.273 36.474 C 25.129 36.327 25.129 36.327 25.369 35.982 C 25.438 35.883 25.504 35.765 25.572 35.654 C 25.437 35.687 25.298 35.673 25.183 35.525 C 24.871 36.150 24.314 36.615 24.011 37.242 C 23.856 37.740 24.267 38.177 24.408 38.628 C 24.543 39.035 24.684 39.467 24.638 39.900 C 24.533 40.412 23.929 40.500 23.492 40.5 C 22.989 40.521 22.485 40.528 21.982 40.531 C 22.595 40.628 23.106 41.001 23.535 41.429 C 23.613 41.473 23.636 41.494 23.632 41.501 C 23.654 41.505 23.605 41.491 23.654 41.503 C 24.194 41.866 24.869 41.787 25.486 41.851 C 25.865 41.904 26.300 42.029 26.652 41.949 C 27.074 41.768 27.361 42.056 27.748 41.888 C 27.870 41.495 28.459 41.641 28.511 41.185 C 28.821 41.138 28.720 40.723 29.044 40.716 C 28.643 40.595 28.143 40.605 27.853 40.265 C 27.840 40.280 27.836 40.291 27.818 40.308 C 27.552 40.546 26.581 40.320 26.548 40.011 C 26.538 39.918 26.547 39.868 26.599 39.855 C 26.652 39.841 26.749 39.863 26.916 39.917 C 27.084 39.971 27.340 40.031 27.484 40.046 C 27.642 40.065 27.699 40.088 27.767 40.111 C 27.748 40.039 27.754 39.970 27.769 39.904 C 27.645 39.915 27.497 39.900 27.232 39.839 C 26.827 39.746 26.831 39.748 26.882 39.568 C 26.915 39.451 26.945 39.427 27.029 39.433 C 27.089 39.439 27.377 39.455 27.671 39.470 C 27.773 39.476 27.833 39.486 27.910 39.494 C 27.937 39.400 27.946 39.302 27.904 39.195 C 27.548 39.287 27.137 39.342 27.103 39.285 C 26.974 39.069 27.184 38.838 27.550 38.787 C 27.820 38.747 28.187 38.659 28.513 38.570 C 28.557 38.497 28.560 38.415 28.457 38.308 C 28.450 38.290 28.455 38.272 28.453 38.253 C 28.221 38.416 27.959 38.556 27.667 38.634 L 27.666 38.634 C 27.664 38.635 27.663 38.636 27.662 38.636 C 27.290 38.735 27.257 38.726 27.257 38.488 C 27.254 38.278 27.254 38.278 27.767 38.029 C 28.049 37.891 28.469 37.640 28.697 37.472 C 28.724 37.452 28.723 37.458 28.748 37.441 C 28.738 37.361 28.678 37.291 28.531 37.236 C 28.524 37.231 28.523 37.223 28.517 37.218 C 28.300 37.490 28.007 37.722 27.640 37.906 L 27.640 37.902 C 27.280 38.082 27.206 38.096 27.179 38.003 C 27.164 37.958 27.128 37.869 27.095 37.806 C 27.023 37.668 27.004 37.686 27.466 37.386 C 27.802 37.169 28.151 36.860 28.425 36.576 C 28.393 36.577 28.355 36.584 28.298 36.603 C 28.210 36.597 28.150 36.545 28.103 36.482 C 27.955 36.775 27.735 37.037 27.449 37.220 L 27.449 37.224 C 27.020 37.494 27.019 37.494 26.884 37.296 C 26.812 37.188 26.817 37.184 27.246 36.767 C 27.258 36.755 27.270 36.739 27.283 36.726 C 27.061 36.721 26.855 36.592 26.835 36.316 C 26.826 36.237 26.826 36.114 26.828 36 C 26.658 36.375 26.395 36.719 26.060 36.933 L 26.062 36.939 C 25.810 37.095 25.841 37.096 25.697 36.943 C 25.538 36.775 25.531 36.795 25.843 36.462 C 26.090 36.198 26.315 35.895 26.511 35.601 C 26.402 35.594 26.296 35.555 26.212 35.486 z M 18.818 40.208 C 18.747 40.347 18.678 40.486 18.636 40.605 C 19.017 40.676 19.411 40.676 19.765 40.501 C 20.046 40.455 20.132 40.447 19.806 40.388 C 19.487 40.272 19.161 40.179 18.818 40.208 z " style="fill:#6c6349;fill-opacity:1" />
 <path d="m 17.689,34.337 0.969,1.511 1.790,-0.132 -1.137,1.389 0.679,1.661 -1.672,-0.652 -1.370,1.159 0.103,-1.792 -1.526,-0.945 1.736,-0.455 z" id="path4326" style="fill:#4b4423;stroke-width:0.699;stroke-linecap:butt;marker:none;" />
 <path style="fill:#8a7c57;stroke-width:0.699;stroke-linecap:butt;marker:none;" id="path4324" d="m 17.828,34.449 0.819,1.277 1.514,-0.112 -0.961,1.174 0.574,1.405 -1.414,-0.551 -1.158,0.980 0.087,-1.515 -1.290,-0.799 1.468,-0.384 z" />
 <path style="fill:none;stroke:#bfb599;stroke-width:2.200;stroke-linecap:butt;stroke-opacity:0.496;fill-rule:nonzero;filter-blend-mode:normal;filter-gaussianBlur-deviation:0;" id="p3368" d="m 18.102,32.281 c 0.814,-0.999 1.778,-1.638 1.778,-1.638" />
 <path style="fill:#4b4423;stroke-width:0.699;stroke-linecap:butt;marker:none;" id="path4328" d="m 19.520,29.760 0.969,1.511 1.790,-0.132 -1.137,1.389 0.679,1.661 -1.672,-0.652 -1.370,1.159 0.103,-1.792 -1.526,-0.945 1.736,-0.455 z" />
 <path d="m 19.658,29.873 0.819,1.277 1.514,-0.112 -0.961,1.174 0.574,1.405 -1.414,-0.551 -1.158,0.980 0.087,-1.515 -1.290,-0.799 1.468,-0.384 z" id="path4330" style="fill:#8a7c57;stroke-width:0.699;stroke-linecap:butt;marker:none;" />
 <path d="m 24.401,27.727 0.969,1.511 1.790,-0.132 -1.137,1.389 0.679,1.661 -1.672,-0.652 -1.370,1.159 0.103,-1.792 -1.526,-0.945 1.736,-0.455 z" id="path4332" style="fill:#4b4423;stroke-width:0.699;stroke-linecap:butt;marker:none;" />
 <path style="fill:#8a7c57;stroke-width:0.699;stroke-linecap:butt;marker:none;" id="path4334" d="m 24.540,27.839 0.819,1.277 1.514,-0.112 -0.961,1.174 0.574,1.405 -1.414,-0.551 -1.158,0.980 0.087,-1.515 -1.290,-0.799 1.468,-0.384 z" />
 <path style="fill:#4b4423;stroke-width:0.699;stroke-linecap:butt;marker:none;" id="path4336" d="m 28.876,30.167 0.969,1.511 1.790,-0.132 -1.137,1.389 0.679,1.661 -1.672,-0.652 -1.370,1.159 0.103,-1.792 -1.526,-0.945 1.736,-0.455 z" />
 <path d="m 29.014,30.279 0.819,1.277 1.514,-0.112 -0.961,1.174 0.574,1.405 -1.414,-0.551 -1.158,0.980 0.087,-1.515 -1.290,-0.799 1.468,-0.384 z" id="path4338" style="fill:#8a7c57;stroke-width:0.699;stroke-linecap:butt;marker:none;" />
 <path d="m 30.299,35.049 0.969,1.511 1.790,-0.132 -1.137,1.389 0.679,1.661 -1.672,-0.652 -1.370,1.159 0.103,-1.792 -1.526,-0.945 1.736,-0.455 z" id="path4340" style="fill:#4b4423;stroke-width:0.699;stroke-linecap:butt;marker:none;" />
 <path style="fill:#8a7c57;stroke-width:0.699;stroke-linecap:butt;marker:none;" id="path4342" d="m 30.438,35.161 0.819,1.277 1.514,-0.112 -0.961,1.174 0.574,1.405 -1.414,-0.551 -1.158,0.980 0.087,-1.515 -1.290,-0.799 1.468,-0.384 z" />
 <path style="fill:none;stroke:#d2cbb8;stroke-width:0.8;stroke-linecap:butt;stroke-opacity:0.760;stroke-dasharray:none" d="m 17.288,41.135 c 0.864,1.474 2.186,2.593 2.847,2.898" id="path4344" />
 <path style="fill:none;stroke:#d2cbb8;stroke-width:0.4;stroke-linecap:round;stroke-opacity:0.760;filter-blend-mode:normal;filter-gaussianBlur-deviation:0;" d="m 17.968,34.974 0.508,0.923 1.339,-0.092" id="path4364" />
 <path style="fill:none;stroke:#d2cbb8;stroke-width:0.400;stroke-linecap:round;stroke-opacity:0.760;" d="m 19.769,30.398 0.508,0.923 1.339,-0.092" id="path4364-7" />
 <path style="fill:none;stroke:#d2cbb8;stroke-width:0.400;stroke-linecap:round;stroke-opacity:0.760;" d="m 24.757,28.365 0.508,0.923 1.339,-0.092" id="path4364-3" />
 <path style="fill:none;stroke:#d2cbb8;stroke-width:0.400;stroke-linecap:round;stroke-opacity:0.760;" d="m 29.191,30.767 0.508,0.923 1.339,-0.092" id="path4364-79" />
 <path style="fill:none;stroke:#d2cbb8;stroke-width:0.400;stroke-linecap:round;stroke-opacity:0.760;" d="m 30.577,35.664 0.508,0.923 1.339,-0.092" id="path4364-34" />
 <path style="fill:none;fill-rule:nonzero;stroke:#e3dfd3;stroke-width:1.299;stroke-linecap:butt;stroke-opacity:0.564;" id="p3377" d="m 16.908,32.986 0.316,0.174" />
 <path style="fill:none;stroke:#ecd79e;stroke-width:1.5;stroke-linecap:round;stroke-opacity:0.233" id="p3224" d="m 24.491,44.079 c 0.869,0 2.609,-0.456 3.232,-0.793" />
 <path style="fill:none;stroke:#d2cbb8;stroke-width:0.999px;stroke-linecap:butt;stroke-opacity:0.760" id="p3246" d="m 31.009,40.192 0.904,0.312" />
</svg>
