<?xml version="1.0" encoding="UTF-8" standalone="no"?>
<!DOCTYPE svg PUBLIC "-//W3C//DTD SVG 1.0//EN" "http://www.w3.org/TR/2001/REC-SVG-20010904/DTD/svg10.dtd">
<svg xmlns:svg="http://www.w3.org/2000/svg" xmlns="http://www.w3.org/2000/svg" version="1.0" width="100%" height="100%" viewBox="0 0 48 48" id="_milk01">
<defs/>
<g id="layer2" style="display:inline">
<path d="m 23.43,3.59 c -2.35,0 -4.31,0.29 -4.31,1.21 l 0.12,2.53 0,0.03 c -0.46,0.34 -0.50,0.92 0.40,1.21 -0.30,1.43 -1.55,3.88 -2.78,6.03 -1.22,2.14 -1.93,2.87 -1.93,5.84 l 0,17.40 c 0,2.04 0.82,3.97 1.43,4.59 0.61,0.61 2.54,2.24 4.59,2.65 2.04,0.40 3.91,0.01 6.06,-0.5 2.14,-0.51 3.26,-1.24 3.87,-2.46 0.61,-1.22 1.21,-2.84 1.21,-5.09 0,-2.25 0.42,-13.71 0.53,-16.37 0.10,-2.66 -1.13,-4.71 -2.46,-6.96 -1.25,-2.12 -2.12,-3.69 -1.96,-4.81 0.13,-0.03 0.26,-0.10 0.37,-0.15 0.92,-0.42 0.65,-0.82 0.21,-1.12 0.00,-0.02 0,-0.02 0,-0.06 0,-0.61 -0.06,-1.93 -0.06,-2.75 0,-0.81 -2.95,-1.21 -5.31,-1.21 z" id="path3060" style="fill:#e1e0ce" />
<path d="m 27.78,16.25 c -3.08,-0.13 -4.69,4.5 -5.5,4.5 -0.92,0 -3.19,-2.86 -4.12,-3.03 -0.60,-0.11 -1.95,-0.29 -3.06,0.78 -0.09,0.54 -0.15,1.17 -0.15,1.96 l 0,17.40 c 0,2.04 0.82,3.97 1.43,4.59 0.61,0.61 2.54,2.24 4.59,2.65 2.04,0.40 3.91,0.01 6.06,-0.5 2.14,-0.51 3.26,-1.24 3.87,-2.46 0.61,-1.22 1.21,-2.84 1.21,-5.09 0,-2.06 0.32,-11.29 0.46,-14.96 C 32.05,19.53 31.07,17.52 29.18,16.62 28.68,16.38 28.22,16.26 27.78,16.25 z" id="path3002" style="color:#000000;fill:#5e5e5e;fill-opacity:0.05;stroke-width:1px" />
<path d="m 23.43,3.59 c -2.35,0 -4.31,0.29 -4.31,1.21 l 0.12,2.53 0,0.03 c -0.46,0.34 -0.50,0.92 0.40,1.21 -0.15,0.74 -0.56,1.76 -1.09,2.87 1.59,1.11 3.01,1.79 3.96,2.03 1.20,0.30 4.51,0.55 7.28,-0.43 -1.03,-1.78 -1.73,-3.16 -1.59,-4.15 0.13,-0.03 0.26,-0.10 0.37,-0.15 0.92,-0.42 0.65,-0.82 0.21,-1.12 0.00,-0.02 0,-0.02 0,-0.06 0,-0.61 -0.06,-1.93 -0.06,-2.75 0,-0.81 -2.95,-1.21 -5.31,-1.21 z" id="path3894" style="color:#000000;fill:#5e5e5e;fill-opacity:0.13;stroke-width:1px" />
<path d="m 23.43,3.59 c -2.35,0 -4.31,0.29 -4.31,1.21 l 0.12,2.53 0,0.03 c -0.36,0.27 -0.46,0.68 -0.03,1 l 9.90,0 c 0.21,-0.28 -0.00,-0.53 -0.31,-0.75 0.00,-0.02 0,-0.02 0,-0.06 0,-0.61 -0.06,-1.93 -0.06,-2.75 0,-0.81 -2.95,-1.21 -5.31,-1.21 z" id="rect3838" style="color:#000000;fill:#b10302;stroke-width:0.1" />
<path d="m 23.37,3.59 0.21,1.06 0.12,2.87 c 0,0 -2.20,0.27 -4.5,-0.75 l 0.03,0.56 0,0.03 c -0.36,0.27 -0.46,0.68 -0.03,1 l 9.90,0 c 0.21,-0.28 -0.00,-0.53 -0.31,-0.75 0.00,-0.02 0,-0.02 0,-0.06 0,-0.61 -0.06,-1.93 -0.06,-2.75 0,-0.81 -2.95,-1.21 -5.31,-1.21 -0.02,0 -0.04,-5.31e-5 -0.06,0 z" id="path3900" style="fill:#1c1c1c;fill-opacity:0.13" />
<path d="m 19.21,7.37 c -0.46,0.36 -0.48,1.01 0.56,1.28 1.30,0.33 7.09,0.87 8.81,0.09 0.94,-0.42 0.64,-0.82 0.18,-1.12 -0.46,0.41 -1.52,0.5 -4.62,0.5 -3.32,0 -4.33,-0.24 -4.93,-0.75 z" id="path3830" style="fill:#834633" />
<path d="m 23.25,3.59 0.09,4.5 1.12,0.09 c 0,0 -0.21,0.70 -1.34,0.90 -0.20,0.40 -0.11,1.55 0.09,2.06 0.20,0.51 -0.39,5.43 -0.5,8.81 -0.09,3.16 -0.24,21.58 -0.18,25.31 1.46,0.02 2.91,-0.27 4.5,-0.65 2.14,-0.51 3.26,-1.24 3.87,-2.46 0.61,-1.22 1.21,-2.84 1.21,-5.09 0,-2.25 0.42,-13.71 0.53,-16.37 0.10,-2.66 -1.13,-4.71 -2.46,-6.96 -1.25,-2.12 -2.12,-3.69 -1.96,-4.81 0.13,-0.03 0.26,-0.10 0.37,-0.15 0.92,-0.42 0.65,-0.82 0.21,-1.12 0.00,-0.02 0,-0.02 0,-0.06 0,-0.61 -0.06,-1.93 -0.06,-2.75 0,-0.81 -2.95,-1.21 -5.31,-1.21 -0.06,0 -0.12,-4.82e-4 -0.18,0 z" id="path3888" style="color:#000000;fill:#5e5e5e;fill-opacity:0.13;stroke-width:1px" />
<path d="m 30.25,17.40 c -0.42,-0.00 -0.92,0.10 -1.5,0.31 -2.66,1.02 -3.06,5.41 -3.06,7.96 l 0,19.21 c 0.43,-0.09 0.88,-0.17 1.34,-0.28 2.14,-0.51 3.26,-1.24 3.87,-2.46 0.61,-1.22 1.21,-2.84 1.21,-5.09 0,-2.25 0.42,-13.71 0.53,-16.37 0.02,-0.76 -0.05,-1.47 -0.21,-2.15 -0.52,-0.57 -1.18,-1.11 -2.18,-1.12 z" id="path3890" style="color:#000000;fill:#5e5e5e;fill-opacity:0.13;stroke-width:1px" />
<path d="m 31.87,39.43 c -0.82,1.18 -2.06,2.28 -3.93,3.03 -6.14,2.45 -8.27,0.63 -9.81,-0.18 -0.81,-0.43 -1.96,-1.37 -3,-2.59 0.28,1.29 0.82,2.35 1.25,2.78 0.61,0.61 2.54,2.24 4.59,2.65 2.04,0.40 3.91,0.01 6.06,-0.5 2.14,-0.51 3.26,-1.24 3.87,-2.46 0.37,-0.74 0.73,-1.64 0.96,-2.71 z" id="path3892" style="fill:#5e5e5e;fill-opacity:0.13" />
<path d="m 26.90,3.90 c -0.40,1.49 0.04,4.28 0.12,5.62 0.10,1.73 1.12,2.53 2.25,4.68 C 30.40,16.36 31.72,18.52 31.62,22 31.52,25.47 31,37.34 31,38.46 c 0,0.80 -0.30,3.50 -1.68,5.31 0.73,-0.42 1.25,-0.94 1.59,-1.62 0.61,-1.22 1.21,-2.84 1.21,-5.09 0,-2.25 0.42,-13.71 0.53,-16.37 0.10,-2.66 -1.13,-4.71 -2.46,-6.96 -1.25,-2.12 -2.12,-3.69 -1.96,-4.81 0.13,-0.03 0.26,-0.10 0.37,-0.15 0.92,-0.42 0.65,-0.82 0.21,-1.12 0.00,-0.02 0,-0.02 0,-0.06 0,-0.61 -0.06,-1.93 -0.06,-2.75 0,-0.41 -0.78,-0.70 -1.84,-0.90 z" id="path3896" style="color:#000000;fill:#5e5e5e;fill-opacity:0.13;stroke-width:1px" />
<path d="m 19.60,8.44 c 0.95,0.67 7.13,0.86 8.73,0.40" id="path3978" style="fill:none;stroke:#442215;stroke-width:0.40;stroke-linecap:round" />
<path d="m 19.88,8.03 c 0.67,0.24 1.51,0.33 2.03,0.33" id="path3980" style="fill:none;stroke:#f2f2f2;stroke-width:0.60;stroke-linecap:round;stroke-opacity:0.17" />
<path d="m 22.73,8.53 c 1.42,0.13 2.98,0.09 3.43,0" id="path3987" style="fill:none;stroke:#451010;stroke-width:0.80;stroke-opacity:0.45" />
<path d="m 19.60,7.63 c 0.74,0.27 2.43,0.64 3.79,0.55" id="path3982" style="fill:none;stroke:#fafafa;stroke-width:0.30;stroke-opacity:0.55" />
<path d="m 22.03,8.34 c -0.08,0.01 -0.12,0.03 -0.12,0.06 -0.00,0.05 0.20,0.10 0.46,0.12 0.26,0.01 0.46,-0.01 0.46,-0.06 0.00,-0.05 -0.20,-0.10 -0.46,-0.12 -0.13,-0.00 -0.25,-0.01 -0.34,0 z" id="path3984" style="color:#000000;fill:#5e5e5e;fill-opacity:0.13;stroke:#fafafa;stroke-width:0.30;stroke-linecap:round;stroke-opacity:0.55" />
<path d="m 24.84,8.76 c 0.90,0.02 3.16,0.11 3.95,-0.49" id="path3989" style="fill:none;stroke:#3e1e1e;stroke-width:0.60;stroke-linecap:round;stroke-opacity:0.46" />
<path d="m 26.96,17.37 c -1.46,0.16 -2.65,2.70 -2.65,5.46 l 0,22.31 c 0.88,-0.12 1.76,-0.30 2.71,-0.53 2.14,-0.51 3.26,-1.24 3.87,-2.46 0.08,-0.17 0.16,-0.37 0.25,-0.56 -1.70,0.96 -3.26,0.11 -2.81,-2.93 0.67,-4.54 1.53,-14.39 1.53,-17 0,-2.60 -1.02,-4.11 -2.62,-4.28 -0.09,-0.01 -0.18,-0.01 -0.28,0 z" id="path3000" style="color:#000000;fill:#5e5e5e;fill-opacity:0.13;stroke-width:1px" />
<path d="m 22.54,11.40 c 0,0 -0.16,1.43 -0.25,2.18" id="path3004" style="fill:none;stroke:#ffffff;stroke-width:1.70;stroke-opacity:0.85" />
<path d="M 21.87,14.60 21.36,18.39" id="path3006" style="fill:none;stroke:#ffffff;stroke-width:2.70;stroke-opacity:0.45" />
<path d="m 24.81,3.65 1.25,1.03 0,3.68 3.06,0 c 0.21,-0.28 -0.00,-0.53 -0.31,-0.75 0.00,-0.02 0,-0.02 0,-0.06 0,-0.61 -0.06,-1.93 -0.06,-2.75 0,-0.66 -1.94,-1.03 -3.93,-1.15 z" id="path3902" style="fill:#1c1c1c;fill-opacity:0.19" />
<path d="M 22.18,3.62 C 21.84,3.64 21.54,3.68 21.25,3.71 21.18,3.72 21.09,3.74 21.03,3.75 c -0.22,0.03 -0.42,0.04 -0.62,0.09 -0.48,0.11 -0.84,0.28 -1.06,0.5 -0.01,0.47 2.03,0.90 4.59,0.96 2.55,0.06 4.64,-0.24 4.65,-0.71 9.71e-4,-0.03 -0.03,-0.08 -0.06,-0.12 C 28.37,4.33 28.12,4.19 27.81,4.09 27.77,4.08 27.72,4.07 27.68,4.06 27.47,3.99 27.22,3.95 26.96,3.90 26.61,3.83 26.19,3.76 25.78,3.71 25.73,3.71 25.67,3.72 25.62,3.71 25.11,3.66 24.55,3.63 23.96,3.62 c -0.48,-0.01 -0.90,-0.01 -1.34,0 -0.14,0.00 -0.29,-0.00 -0.43,0 z" id="path3876" style="color:#000000;fill:#da0404;stroke-width:0.18" />
<path d="m 20.16,4.88 c 1.29,0.27 3.22,0.27 4.56,0.27" id="path3932" style="fill:none;stroke:#ec4923;stroke-width:0.80;stroke-opacity:0.64" />
<path d="m 21.81,5.23 1.02,0.07" id="path3952" style="fill:none;stroke:#fbfed0;stroke-width:0.5;stroke-linecap:round;stroke-opacity:0.74" />
<path d="M 25.71,5.15 C 26.02,5.12 27.83,4.92 28.46,4.60" id="path3954" style="fill:none;stroke:#812308;stroke-width:0.69" />
<path d="m 23.81,3.78 c -1.83,0 -3.34,0.22 -3.34,0.5 0,0.27 1.50,0.5 3.34,0.5 1.83,0 3.31,-0.22 3.31,-0.5 0,-0.27 -1.47,-0.5 -3.31,-0.5 z" id="path3956" style="color:#000000;fill:#faeedd;fill-opacity:0.90;stroke-width:0.69" />
<path d="m 15.94,33.02 3.32,1.94" id="path3834" style="fill:none;stroke:#313131;stroke-width:0.30;stroke-linecap:round" />
<path d="m 15.90,21.92 3.37,1.38" id="path3836" style="fill:none;stroke:#313131;stroke-width:0.30;stroke-linecap:round" />
<path d="m 16.13,21.32 2.91,1.20" id="path3838" style="fill:none;stroke:#313131;stroke-width:0.60;stroke-linecap:round;stroke-dasharray:0.60, 0.60" />
<path d="m 17.10,20.77 0.69,0.27" id="path3840" style="fill:none;stroke:#313131;stroke-width:0.60;stroke-linecap:round;stroke-dasharray:1.2, 0.6" />
<path d="m 15.87,22.91 3.42,1.49" id="path3842" style="fill:none;stroke:#313131;stroke-width:0.40;stroke-linecap:round;stroke-dasharray:0.4, 0.8" />
<path d="m 15.87,23.87 3.42,1.49" id="path3844" style="fill:none;stroke:#313131;stroke-width:0.40;stroke-linecap:round;stroke-dasharray:0.40, 0.80;stroke-dashoffset:0.36" />
<path d="m 15.87,24.80 3.42,1.44" id="path3846" style="fill:none;stroke:#313131;stroke-width:0.40;stroke-linecap:round;stroke-dasharray:1.60, 1.60;stroke-dashoffset:1.28" />
<path d="m 15.87,25.68 3.42,1.55" id="path3848" style="fill:none;stroke:#313131;stroke-width:0.40;stroke-linecap:round;stroke-dasharray:1.20, 1.20" />
<path d="m 15.87,26.60 3.42,1.67" id="path3850" style="fill:none;stroke:#313131;stroke-width:0.40;stroke-linecap:round;stroke-dasharray:0.40, 0.80;stroke-dashoffset:0.36" />
<path d="m 15.87,27.51 3.42,1.69" id="path3852" style="fill:none;stroke:#313131;stroke-width:0.40;stroke-linecap:round;stroke-dasharray:0.4, 0.8" />
<path d="m 15.87,28.46 3.42,1.69" id="path3854" style="fill:none;stroke:#313131;stroke-width:0.40;stroke-linecap:round;stroke-dasharray:3.20, 0.80, 0.40, 0.80;stroke-dashoffset:2.56" />
<path d="m 15.87,29.34 3.42,1.78" id="path3856" style="fill:none;stroke:#313131;stroke-width:0.40;stroke-linecap:round;stroke-dasharray:1.60, 0.80, 0.40, 0.80;stroke-dashoffset:0.36" />
<path d="m 15.87,30.18 3.42,1.86" id="path3858" style="fill:none;stroke:#313131;stroke-width:0.40;stroke-linecap:round;stroke-dasharray:0.4, 0.8" />
<path d="m 15.87,31.13 3.42,1.88" id="path3860" style="fill:none;stroke:#313131;stroke-width:0.40;stroke-linecap:round;stroke-dasharray:0.40, 0.80;stroke-dashoffset:0.16" />
<path d="m 15.87,32.05 0.91,0.46" id="path3862" style="fill:none;stroke:#313131;stroke-width:0.40;stroke-linecap:round;stroke-dasharray:0.4, 0.8" />
<path d="m 16.93,34.27 1.27,0.81" id="path3864" style="fill:none;stroke:#313131;stroke-width:0.5;stroke-linecap:round;stroke-dasharray:1, 1" />
<path d="m 16.14,34.73 2.82,1.79" id="path3866" style="fill:none;stroke:#313131;stroke-width:0.5;stroke-linecap:round;stroke-dasharray:1, 1" />
<path d="m 16.25,36.03 2.52,1.54" id="path3868" style="fill:none;stroke:#313131;stroke-width:0.40;stroke-linecap:round;stroke-dasharray:1.60, 0.80, 0.40, 0.80;stroke-dashoffset:1.04" />
<path d="m 16.17,36.65 2.76,1.76" id="path3870" style="fill:none;stroke:#313131;stroke-width:0.40;stroke-linecap:round;stroke-dasharray:1.60, 0.80, 0.40, 0.80" />
<path d="m 16.03,37.52 2.95,1.98" id="path3872" style="fill:none;stroke:#313131;stroke-width:0.2;stroke-linecap:round;stroke-dasharray:0.80, 0.40, 0.2, 0.40;stroke-dashoffset:0.36" />
<path d="m 16.30,38.28 2.38,1.57" id="path3874" style="fill:none;stroke:#313131;stroke-width:0.2;stroke-linecap:round;stroke-dasharray:0.2, 0.40" />
<path d="m 23.43,3.59 c -2.35,0 -4.31,0.29 -4.31,1.21 l 0.12,2.53 0,0.03 c -0.46,0.34 -0.50,0.92 0.40,1.21 -0.30,1.43 -1.55,3.88 -2.78,6.03 -1.22,2.14 -1.93,2.87 -1.93,5.84 l 0,17.40 c 0,2.04 0.82,3.97 1.43,4.59 0.61,0.61 2.54,2.24 4.59,2.65 2.04,0.40 3.91,0.01 6.06,-0.5 2.14,-0.51 3.26,-1.24 3.87,-2.46 0.61,-1.22 1.21,-2.84 1.21,-5.09 0,-2.25 0.42,-13.71 0.53,-16.37 0.10,-2.66 -1.13,-4.71 -2.46,-6.96 -1.25,-2.12 -2.12,-3.69 -1.96,-4.81 0.13,-0.03 0.26,-0.10 0.37,-0.15 0.92,-0.42 0.65,-0.82 0.21,-1.12 0.00,-0.02 0,-0.02 0,-0.06 0,-0.61 -0.06,-1.93 -0.06,-2.75 0,-0.81 -2.95,-1.21 -5.31,-1.21 z" id="stroke01" style="fill:none;stroke:#000000;stroke-width:0.5" />
</g>
</svg>
