<?xml version="1.0" encoding="UTF-8" standalone="no"?>
<!DOCTYPE svg PUBLIC "-//W3C//DTD SVG 1.0//EN" "http://www.w3.org/TR/2001/REC-SVG-20010904/DTD/svg10.dtd">
<svg xmlns:svg="http://www.w3.org/2000/svg" xmlns="http://www.w3.org/2000/svg" version="1.0" width="100%" height="100%" viewBox="0 0 48 48" id="_wine01">
<defs/>
<g id="layer2">
<path d="m 26.31,2.15 c -1.74,0 -3.18,0.59 -3.18,1.34 0,0.04 0.02,0.08 0.03,0.12 l -0.03,3.68 c 0,0.24 0.14,0.45 0.37,0.65 L 22.90,13.81 c -2.39,0.88 -4.06,2.71 -4.09,4.84 l 0,0.18 0.93,22.56 0,0.15 c 0.05,2.00 2.73,3.62 6.03,3.62 3.33,0 6.03,-1.65 6.03,-3.68 0,-0.05 0.00,-0.10 0,-0.15 l 1.5,-21.96 c 0.02,-0.31 0.04,-0.56 0.06,-0.81 -0.07,-2.00 -1.60,-3.75 -3.81,-4.65 l -0.37,-5.93 c 0.22,-0.19 0.37,-0.41 0.37,-0.65 0,-0.00 4.11e-4,-0.02 0,-0.03 l 0.03,0 -0.18,-3.68 c 0.00,-0.03 0.03,-0.06 0.03,-0.09 0,-0.04 -0.02,-0.08 -0.03,-0.12 -0.00,-0.01 0.00,-0.04 0,-0.06 -0.20,-0.66 -1.49,-1.15 -3.09,-1.15 z" id="path3863-4" style="color:#000000;fill:#060201;stroke-width:0.20" />
<path d="m 26.31,2.15 c -1.74,0 -3.18,0.59 -3.18,1.34 0,0.04 0.02,0.08 0.03,0.12 L 23.12,7.31 c 0,0.24 0.14,0.45 0.37,0.65 l -0.56,5.37 c 1.75,1.66 4.81,1.69 6.59,0.28 L 29.18,7.96 c 0.22,-0.19 0.37,-0.41 0.37,-0.65 0,-0.00 4.11e-4,-0.02 0,-0.03 l 0.03,0 -0.18,-3.68 C 29.41,3.56 29.43,3.53 29.43,3.5 c 0,-0.04 -0.02,-0.08 -0.03,-0.12 -0.00,-0.01 0.00,-0.04 0,-0.06 C 29.20,2.64 27.91,2.15 26.31,2.15 z" id="path4022" style="fill:#a59f85" />
<path d="M 26.03,2.15 C 25.12,2.19 24.34,2.39 23.81,2.68 23.73,4.35 23.65,5.80 23.62,6.5 c -0.06,1.24 0.56,1.00 0.56,1.5 0,0.41 -0.50,4.31 -0.68,5.78 0.85,0.58 1.89,0.85 2.93,0.84 l 0,-4.93 -0.40,-7.53 z" id="path4069" style="fill:#2f1710;fill-opacity:0.30" />
<path d="m 26.31,2.15 c -1.74,0 -3.18,0.59 -3.18,1.34 0,0.04 0.02,0.08 0.03,0.12 L 23.12,7.31 c 0,0.24 0.14,0.45 0.37,0.65 l 0,0.06 C 27.65,7.68 28.78,7.02 29.53,6.06 l -0.12,-2.46 C 29.41,3.56 29.43,3.53 29.43,3.5 c 0,-0.04 -0.02,-0.08 -0.03,-0.12 -0.00,-0.01 0.00,-0.04 0,-0.06 C 29.20,2.64 27.91,2.15 26.31,2.15 z" id="path4026" style="fill:#663323;fill-opacity:0.30" />
<path d="M 25.53,2.21 C 24.16,2.36 23.12,2.86 23.12,3.5 c 0,0.04 0.02,0.08 0.03,0.12 L 23.12,7.31 c 0,0.24 0.14,0.45 0.37,0.65 l -0.56,5.37 c 0.83,0.79 1.95,1.17 3.09,1.25 -0.01,-0.60 0,-1.28 0,-2.03 0,-2.10 -0.07,-7.61 -0.5,-10.34 z" id="path4024" style="fill:#6b4539;fill-opacity:0.30" />
<path d="m 22.75,13.87 c -2.31,0.90 -3.90,2.70 -3.93,4.78 l 0,0.18 0.93,22.56 0,0.15 C 19.79,43.18 21.57,44.53 24,45 23.98,41.49 23.91,27.71 23.84,24.5 c -0.08,-3.63 -0.33,-3.23 -1.43,-3.65 -1.09,-0.42 -2.27,-0.92 -2.18,-3.37 0.08,-2.45 2.68,-2.78 2.68,-2.78 0,0 -0.00,-0.34 -0.15,-0.81 z" id="path3905" style="fill:#b2d6dc;fill-opacity:0.16" />
<path d="m 29.68,13.96 0,0.62 c 0,0 1.26,0.61 2.28,2.21 0.86,1.37 -0.19,20.76 -2,27.31 1.12,-0.67 1.84,-1.59 1.84,-2.62 0,-0.05 0.00,-0.10 0,-0.15 l 1.5,-21.96 c 0.02,-0.31 0.04,-0.56 0.06,-0.81 -0.07,-1.96 -1.55,-3.67 -3.68,-4.59 z" id="path3907" style="fill:#bb8c68;fill-opacity:0.27" />
<path d="m 32.18,35.81 c -1.22,1.14 -3.21,2.07 -6.81,2.12 -3.16,0.04 -4.89,-0.74 -5.84,-1.84 L 19.68,39.75 c 1.41,0.69 3.52,1.15 6.34,1.40 2.59,0.23 4.51,-0.18 5.84,-0.68 l 0.31,-4.65 z" id="path3909" style="fill:#5a3d29;fill-opacity:0.27" />
<path d="M 21.90,17.22 C 20.71,19.92 21.47,30.83 21.73,34.97" id="path3911" style="fill:none;stroke:#000000;stroke-width:2.20;stroke-opacity:0.46" />
<path d="m 32.5,31.18 c -0.35,1.17 -0.68,2.26 -1.06,3.5 -0.38,3.78 -0.88,7.30 -1.46,9.43 1.12,-0.67 1.84,-1.59 1.84,-2.62 0,-0.05 0.00,-0.10 0,-0.15 L 32.5,31.18 z" id="path3949" style="fill:#d1eae7;fill-opacity:0.27" />
<path d="m 22.23,21.65 a 0.46,0.29 0 1 1 -0.93,0 0.46,0.29 0 1 1 0.93,0 z" id="path3954" style="color:#000000;fill:#abe3f2;fill-opacity:0.65;stroke-width:2.20" />
<path d="m 28.71,15.93 c -0.53,0 -0.96,0.31 -0.96,0.68 0,0.37 0.43,0.68 0.96,0.68 0.03,0 0.06,0.00 0.09,0 -0.37,0.18 -0.65,0.49 -0.65,0.87 0,0.58 0.58,1.06 1.31,1.06 0.72,0 1.31,-0.47 1.31,-1.06 0,-0.58 -0.58,-1.06 -1.31,-1.06 -0.06,0 -0.12,0.02 -0.18,0.03 0.24,-0.12 0.40,-0.30 0.40,-0.53 0,-0.37 -0.43,-0.68 -0.96,-0.68 z" id="path3956" style="color:#000000;fill:#ffffff;fill-opacity:0.26;stroke-width:2.20" />
<path d="m 28.75,16.37 c -0.23,0 -0.40,0.11 -0.40,0.28 0,0.16 0.17,0.31 0.40,0.31 0.23,0 0.40,-0.14 0.40,-0.31 0,-0.16 -0.17,-0.28 -0.40,-0.28 z m 0.56,1.34 c -0.30,0 -0.56,0.21 -0.56,0.46 0,0.25 0.25,0.46 0.56,0.46 0.30,0 0.53,-0.21 0.53,-0.46 0,-0.25 -0.22,-0.46 -0.53,-0.46 z" id="path3982" style="color:#000000;fill:#ffffff;fill-opacity:0.37;stroke-width:2.20" />
<path d="m 33.09,22.43 c -1.43,1.85 -2.75,2.78 -9.03,2.87 0.40,5.12 1.34,14.92 1.34,17.15 2.91,0.07 5.20,-1.06 6.5,-2.68 l 1.18,-17.34 z" id="path4011" style="color:#000000;fill:#cccbc8;stroke-width:0.20" />
<path d="m 33.09,22.43 c -0.62,0.80 -1.25,1.41 -2.25,1.87 l -0.87,17.09 c 0.78,-0.44 1.43,-0.99 1.93,-1.62 l 1.18,-17.34 z" id="path4014" style="fill:#ffffff;fill-opacity:0.17" />
<path d="m 26.29,2.15 c -1.74,0 -3.17,0.59 -3.17,1.34 0,0.75 1.42,1.37 3.17,1.37 1.74,0 3.14,-0.62 3.14,-1.37 0,-0.75 -1.39,-1.34 -3.14,-1.34 z" id="path3092" style="color:#000000;fill:#cbbfa9;stroke-width:0.2" />
<path d="m 26.21,2.23 c -1.28,0 -2.34,0.43 -2.34,0.99 0,0.55 1.05,1.01 2.34,1.01 1.28,0 2.31,-0.45 2.31,-1.01 0,-0.55 -1.03,-0.99 -2.31,-0.99 z" id="path4020" style="color:#000000;fill:#a59982;stroke-width:0.2" />
<path d="M 29.56,7.31 23.46,7.90 C 23.48,7.92 23.48,7.95 23.5,7.96 l 0,0.06 c 3.04,1.07 4.66,0.69 5.68,0.03 l 0,-0.09 c 0.22,-0.19 0.37,-0.41 0.37,-0.65 z" id="path4028" style="fill:#6a3524;fill-opacity:0.30" />
<path d="m 29.25,7.75 c -1.99,0.94 -4.10,0.62 -5.84,0.09 0.03,0.03 0.05,0.08 0.09,0.12 L 23.34,9.56 C 26.38,10.06 28.15,9.02 29.25,7.75 z" id="path4074" style="fill:#683324;fill-opacity:0.30" />
<path d="m 24.07,8.12 c 1.05,0.31 1.67,0.37 2.42,0.37" id="path4079" style="fill:none;stroke:#afcbd2;stroke-width:0.60;stroke-opacity:0.32" />
</g>
<g id="layer3">
<path d="m 26.12,7.87 c 1.49,0.06 2.67,-0.37 3.11,-1.11" id="path4081" style="fill:none;stroke:#d1c5a4;stroke-width:0.69;stroke-linecap:round;stroke-opacity:0.40" />
<path d="m 26.68,6.88 c 1.05,0 2.11,-0.37 2.42,-0.80" id="path4083" style="fill:none;stroke:#d1c5a4;stroke-width:0.60;stroke-linecap:round;stroke-opacity:0.40" />
<path d="m 26.31,2.15 c -1.74,0 -3.18,0.59 -3.18,1.34 0,0.04 0.02,0.08 0.03,0.12 l -0.03,3.68 c 0,0.24 0.14,0.45 0.37,0.65 L 22.90,13.81 c -2.39,0.88 -4.06,2.71 -4.09,4.84 l 0,0.18 0.93,22.56 0,0.15 c 0.05,2.00 2.73,3.62 6.03,3.62 3.33,0 6.03,-1.65 6.03,-3.68 0,-0.05 0.00,-0.10 0,-0.15 l 1.5,-21.96 c 0.02,-0.31 0.04,-0.56 0.06,-0.81 -0.07,-2.00 -1.60,-3.75 -3.81,-4.65 l -0.37,-5.93 c 0.22,-0.19 0.37,-0.41 0.37,-0.65 0,-0.00 4.11e-4,-0.02 0,-0.03 l 0.03,0 -0.18,-3.68 c 0.00,-0.03 0.03,-0.06 0.03,-0.09 0,-0.04 -0.02,-0.08 -0.03,-0.12 -0.00,-0.01 0.00,-0.04 0,-0.06 -0.20,-0.66 -1.49,-1.15 -3.09,-1.15 z" id="stroke01" style="color:#000000;fill:none;stroke:#000000;stroke-width:0.5;stroke-linecap:round" />
<path d="m 24.35,5.36 0,0.62" id="path4085" style="fill:none;stroke:#dfdfdf;stroke-width:0.5;stroke-linecap:round;stroke-opacity:0.62" />
<path d="m 24.35,13.56 -0.12,1.15" id="path4087" style="fill:none;stroke:#eaeade;stroke-width:1px;stroke-opacity:0.64" />
</g>
</svg>
