<?xml version="1.0" encoding="UTF-8" standalone="no"?>
<!DOCTYPE svg PUBLIC "-//W3C//DTD SVG 1.0//EN" "http://www.w3.org/TR/2001/REC-SVG-20010904/DTD/svg10.dtd">
<svg xmlns:svg="http://www.w3.org/2000/svg" xmlns="http://www.w3.org/2000/svg" version="1.0" width="100%" height="100%" viewBox="0 0 48 48" id="_key02" style="enable-background:new">
<defs id="defs2385"/>
<g id="key02" style="display:inline">
<path d="M 27.43,3.37 C 25.87,3.36 24.57,3.99 23.56,5.31 C 21.75,7.65 23.19,10.35 23.87,10.93 C 24.55,11.52 27.03,12.9 27.03,12.9 C 27.03,12.9 27,13.14 26.84,13.34 C 26.68,13.53 22.62,18.68 21.78,19.68 C 20.93,20.69 21.01,20.27 20.71,20.46 C 20.42,20.66 20.09,20.96 19.96,21.12 C 19.83,21.28 19.87,21.74 19.75,21.93 C 19.62,22.13 18.57,23.42 18.28,23.75 C 17.98,24.07 17.97,24.15 17.78,24.21 C 17.58,24.28 17.1,24.89 16.9,25.18 C 16.71,25.47 16.78,25.8 16.68,26.15 C 16.59,26.51 7.03,38.46 6.93,38.62 C 6.84,38.78 6.86,40.2 8.03,41.06 C 9.19,41.92 9.26,41.65 9.84,41.65 C 10.42,41.65 11.01,40.67 11.43,40.15 C 11.44,40.14 11.63,39.87 11.65,39.84 C 12.29,40.13 12.7,40.26 12.9,40.12 C 13.15,39.96 13.96,38.96 13.96,38.96 L 15.43,39.71 C 15.43,39.71 15.14,40.28 15.18,40.78 C 15.22,41.27 15.37,41.43 15.37,41.43 C 15.37,41.43 17.09,42.46 17.34,42.46 C 17.59,42.46 19.23,40.39 19.31,40.18 C 19.39,39.98 19.37,39.03 19.25,38.87 C 19.12,38.71 19.18,38.59 19.18,38.59 C 19.18,38.59 19.75,39 20,39 C 20.24,39 21.81,36.74 21.93,36.37 C 22.06,36 21.97,35.44 21.81,35.28 C 21.64,35.11 20.08,34.23 19.87,34.15 C 19.66,34.07 18.71,35.18 18.71,35.18 L 17.21,34.43 C 17.21,34.43 17.64,33.86 17.68,33.65 C 17.72,33.48 17.73,33.01 17.21,32.59 C 18.49,30.92 20.08,28.89 20.18,28.75 C 20.47,28.32 20.66,28.73 20.93,28.43 C 21.12,28.22 21.52,27.62 21.68,27.37 C 21.89,27.04 21.65,27.17 21.9,26.75 C 21.97,26.62 23.11,25.14 23.4,24.78 C 23.73,24.37 23.87,24.43 24,24.31 C 24.25,24.05 24.37,23.79 24.65,23.43 C 24.9,23.11 24.62,22.88 24.87,22.59 C 25.04,22.39 30.02,15.85 30.28,15.5 C 30.54,15.14 31.33,14.9 31.68,14.96 C 32.04,15.03 34.59,15.97 35.96,16.18 C 38.7,16.61 40.76,14.53 41.25,13.4 C 42.66,10.14 39.96,8.14 39.15,7.75 C 37.58,6.97 35.6,6.31 34.21,5.75 C 32.82,5.18 32.03,4.7 30.53,4.09 C 29.4,3.63 28.37,3.38 27.43,3.37 z M 28.15,6.43 C 28.82,6.39 29.42,6.45 29.75,6.56 C 31.86,7.28 31.3,8.67 32.56,9.21 C 33.88,9.79 34.74,9.14 36.37,9.56 C 37.43,9.83 38.58,10.57 38.71,11.71 C 38.01,12.74 36.22,13.17 34.71,12.75 C 31.32,11.77 32.33,10.71 31.46,10.25 C 30.73,9.85 29.07,10.64 26.87,9.4 C 24.95,8.32 25.51,8.23 25.31,7.46 C 25.75,6.82 27.04,6.5 28.15,6.43 z" id="p2481" style="fill:#acacac;fill-opacity:1;fill-rule:evenodd;stroke:none;display:inline"/>
<path d="M 16.68,34.18 L 15.68,34.34 L 13,37.81 L 12.96,37.81 C 12.69,37.81 11.93,37.44 11.43,37.5 C 11.29,37.51 11.23,37.53 11.21,37.56 C 11.21,37.56 11.19,37.55 11.18,37.56 C 10.98,38.1 10.98,38.64 10.68,38.93 C 10.39,39.23 9.84,40.09 9.59,39.84 C 9.34,39.59 9.75,40.21 9.75,40.21 C 9.75,40.21 10.48,39.78 11.03,39.43 C 11.57,39.09 12.22,38.75 12.03,38.4 C 11.97,38.3 11.85,38.18 11.75,38.06 C 11.74,37.93 11.74,37.82 11.84,37.87 C 12.1,38 12.9,38.34 12.9,38.34 L 13.03,38.28 C 13.07,38.68 13.13,39.29 13.15,39.87 C 13.49,39.53 13.96,38.96 13.96,38.96 L 15.43,39.71 C 15.43,39.71 15.35,39.9 15.28,40.15 C 15.28,40.15 15.34,40.12 15.34,40.12 L 15.5,39.84 L 15.43,39.81 L 16.06,38.81 L 14,37.75 L 14.21,37.46 L 14.18,37.43 L 15.15,36.21 L 16.68,34.18 z" id="p3296" style="fill:#050606;fill-opacity:0.56;fill-rule:evenodd;stroke:none;display:inline"/>
<path d="M 39.65,8.06 C 40.01,8.46 40.31,8.88 40.43,9.28 C 41.02,11.2 40.7,12.44 37.96,13.62 C 35.23,14.8 31.74,12.44 31.37,12.28 C 31,12.12 30.37,12.12 30,12.28 C 29.62,12.44 15.96,31.29 15.96,31.56 C 15.96,31.83 17.09,32.53 17.09,32.53 L 12.84,37.87 L 11.93,37.62 C 11.93,37.62 11.14,37.16 11.09,37.81 C 11.04,38.45 9.46,39.36 8.34,39.31 C 7.97,38.99 7.27,38.71 6.9,38.93 C 6.9,38.93 6.9,38.96 6.9,38.96 C 6.92,39.47 7.15,40.41 8.03,41.06 C 9.19,41.92 9.26,41.65 9.84,41.65 C 10.42,41.65 11.01,40.67 11.43,40.15 C 11.44,40.14 11.63,39.87 11.65,39.84 C 12.29,40.13 12.7,40.26 12.9,40.12 C 13.15,39.96 13.96,38.96 13.96,38.96 L 15.43,39.71 C 15.43,39.71 15.14,40.28 15.18,40.78 C 15.22,41.27 15.37,41.43 15.37,41.43 C 15.37,41.43 17.09,42.46 17.34,42.46 C 17.59,42.46 19.23,40.39 19.31,40.18 C 19.39,39.98 19.37,39.03 19.25,38.87 C 19.12,38.71 19.18,38.59 19.18,38.59 C 19.18,38.59 19.75,39 20,39 C 20.24,39 21.81,36.74 21.93,36.37 C 22.06,36 21.97,35.44 21.81,35.28 L 20.12,37.43 L 19.06,36.96 L 18.06,38.18 L 19.18,38.78 L 17.31,40.93 L 15.43,39.81 L 16.18,38.62 L 14.18,37.43 L 16.71,34.25 L 17.21,34.43 C 17.21,34.43 17.64,33.86 17.68,33.65 C 17.72,33.48 17.73,33.01 17.21,32.59 C 18.49,30.92 20.08,28.89 20.18,28.75 C 20.47,28.32 20.66,28.73 20.93,28.43 C 21.12,28.22 21.52,27.62 21.68,27.37 C 21.89,27.04 21.65,27.17 21.9,26.75 C 21.97,26.62 23.11,25.14 23.4,24.78 C 23.73,24.37 23.87,24.43 24,24.31 C 24.25,24.05 24.37,23.79 24.65,23.43 C 24.9,23.11 24.62,22.88 24.87,22.59 C 25.04,22.39 30.02,15.85 30.28,15.5 C 30.54,15.14 31.33,14.9 31.68,14.96 C 32.04,15.03 34.59,15.97 35.96,16.18 C 38.7,16.61 40.76,14.53 41.25,13.4 C 42.44,10.65 40.71,8.81 39.65,8.06 z" id="p3263" style="fill:#000000;fill-opacity:0.5;fill-rule:evenodd;stroke:none;display:inline"/>
<path d="M 7.44,38.68 C 8.67,39.16 9.21,39.43 9.21,39.43 C 9.21,39.43 10.65,37.34 11.08,37.34 C 11.51,37.34 12.9,37.71 12.9,37.71 L 16.92,32.57 C 16.92,32.57 15.58,31.82 15.74,31.29 C 15.9,30.75 17.78,28.66 17.78,28.39 C 17.78,28.13 17.51,26.52 17.24,26.79 C 16.97,27.05 13.28,32.36 12.9,32.84 C 12.53,33.32 7.76,38.03 7.44,38.68 z" id="p3266" style="fill:#e9e7e7;fill-opacity:0.62;fill-rule:evenodd;stroke:none;display:inline"/>
<path d="M 19.06,36.96 L 18.09,38.17 C 18.54,38.46 18.86,38.58 19.25,38.8 C 19.25,38.8 19.77,38.88 20.04,38.95 L 20.15,37.46 L 19.06,36.96 z" id="p3272" style="fill:#000000;fill-opacity:0.5;fill-rule:evenodd;stroke:none;display:inline"/>
<path d="M 19.06,36.96 L 19.21,38.59 C 19.06,38.77 18.74,39.6 19.9,38.96 L 20.03,37.4 L 19.06,36.96 z" id="p3275" style="fill:#000000;fill-opacity:0.5;fill-rule:evenodd;stroke:none;display:inline"/>
<path d="M 14.41,37.55 L 16.24,38.6 L 15.99,38.88 C 15.99,38.88 16.64,39.61 16.84,39.53 C 17.05,39.45 17.41,38.76 17.41,38.76 C 17.41,38.76 17.82,39.21 18.06,39.29 C 18.3,39.37 18.71,38.6 18.71,38.6 L 18.06,38.11 L 19.07,36.94 L 19.35,36.61 C 19.35,36.61 19.76,36.94 19.96,36.9 C 20.16,36.86 21.01,35.52 21.01,35.52 L 19.35,34.43 L 18.67,35.2 L 16.6,34.35 C 16.6,34.35 14.33,37.14 14.41,37.55 z" id="p3287" style="fill:#e4e6e6;fill-opacity:0.73;fill-rule:evenodd;stroke:none;display:inline"/>
<path d="M 15.54,39.67 L 18.78,35.18" id="p3277" style="fill:none;fill-rule:evenodd;stroke:#000000;stroke-width:0.30;stroke-linecap:butt;stroke-linejoin:miter;stroke-miterlimit:4;stroke-dasharray:none;stroke-opacity:0.79;display:inline"/>
<path d="M 15.39,39.98 L 17.29,41.03 L 19.15,38.76" id="p3290" style="fill:none;fill-rule:evenodd;stroke:#030304;stroke-width:0.30;stroke-linecap:butt;stroke-linejoin:round;stroke-miterlimit:4;stroke-dasharray:none;stroke-opacity:0.6;display:inline"/>
<path d="M 20.04,37.55 L 21.78,35.44" id="p3292" style="fill:none;fill-rule:evenodd;stroke:#030304;stroke-width:0.30;stroke-linecap:butt;stroke-linejoin:miter;stroke-miterlimit:4;stroke-dasharray:none;stroke-opacity:0.6;display:inline"/>
<path d="M 11.65,39.86 C 11.96,39.44 12.2,39.26 12.03,38.91 C 12.29,38.58 12.58,38.32 12.58,38.32 C 12.58,38.32 13.33,39.66 12.47,40.08 C 11.96,39.99 11.63,39.83 11.65,39.86 z" id="p3305" style="fill:#050606;fill-opacity:0.56;fill-rule:evenodd;stroke:none;display:inline"/>
<path d="M 6.95,39.57 C 7.08,37.99 8.51,39.09 9.52,40.1" id="p3311" style="fill:none;fill-rule:evenodd;stroke:#030304;stroke-width:0.40;stroke-linecap:round;stroke-linejoin:miter;stroke-miterlimit:4;stroke-dasharray:none;stroke-opacity:0.68;display:inline"/>
<path d="M 17.9,24.87 C 17.55,24.87 17.2,24.97 16.9,25.18 C 16.9,25.19 16.91,25.21 16.9,25.21 C 16.77,25.42 16.74,25.66 16.71,25.9 L 16.91,26.25 C 17.33,25.72 17.52,25.68 17.9,25.68 C 18.29,25.68 18.78,25.84 19.21,26.12 C 19.65,26.4 20.01,26.8 20.21,27.21 C 20.41,27.62 20.48,28.01 20.28,28.43 L 20.53,28.56 L 20.56,28.56 C 20.68,28.57 20.8,28.58 20.93,28.43 C 20.99,28.37 21.07,28.23 21.15,28.12 C 21.2,27.68 21.12,27.25 20.93,26.87 C 20.65,26.29 20.19,25.81 19.65,25.46 C 19.11,25.12 18.49,24.87 17.9,24.87 z" id="p3315" style="fill:#050606;fill-opacity:0.67;fill-rule:evenodd;stroke:none;display:inline"/>
<path d="M 17.5,24.52 C 19.02,23.17 22.15,25.35 21.61,27.5" id="p3317" style="fill:none;fill-rule:evenodd;stroke:#030304;stroke-width:0.5;stroke-linecap:round;stroke-linejoin:miter;stroke-miterlimit:4;stroke-dasharray:none;stroke-opacity:0.31;display:inline"/>
<path d="M 20.65,24.03 L 22.14,21.99 C 22.14,21.99 21.88,21.52 22.18,21.52 C 22.48,21.52 23.58,21.57 22.39,20.89 C 21.21,20.21 20.91,21.01 20.91,21.01 L 21.46,21.23 C 21.46,21.23 20.82,21.27 20.78,21.48 C 20.74,21.69 20.78,21.82 20.61,22.08 C 20.44,22.33 19.51,23.22 19.47,23.43 C 19.42,23.64 19.3,23.86 19.51,23.98 C 19.72,24.11 20.23,23.81 20.65,24.03 z" id="p3337" style="fill:#d2d5d5;fill-opacity:0.85;fill-rule:evenodd;stroke:none;display:inline"/>
<path d="M 19.8,21.91 C 20.76,20.11 24.71,22.44 23.69,24.6" id="p3319" style="fill:none;fill-rule:evenodd;stroke:#030304;stroke-width:0.5;stroke-linecap:round;stroke-linejoin:miter;stroke-miterlimit:4;stroke-dasharray:none;stroke-opacity:0.31;display:inline"/>
<path d="M 16.04,31.77 C 16.34,30.94 19.1,27.6 19,27.48 C 18.9,27.35 19.05,26.67 19.27,26.67 C 19.5,26.67 19.6,26.37 19.5,26.19 C 19.4,26.01 18.84,25.81 18.95,25.71 C 19.05,25.61 19.86,25.76 20.16,25.94 C 20.46,26.11 20.79,26.59 20.79,26.74 C 20.79,26.9 20.87,27.45 20.79,27.43 C 20.71,27.4 20.49,27.07 20.26,27.17 C 20.03,27.28 20.06,27.53 20.03,27.78 C 20.01,28.03 19.75,28.29 19.53,28.44 C 19.3,28.59 18.84,28.97 18.29,29.73 C 17.73,30.48 16.67,31.87 16.67,32.13 C 16.67,32.38 16.04,31.75 16.04,31.77 z" id="p3331" style="fill:#050606;fill-opacity:0.67;fill-rule:evenodd;stroke:none;display:inline"/>
<path d="M 18.11,24.83 C 18.19,24.58 18.87,24.41 19.3,24.58 C 19.72,24.75 20.23,25.51 18.92,25.21 C 17.6,24.92 18.07,25.09 18.11,24.83 z" id="p3335" style="fill:#cfd6d6;fill-opacity:0.76;fill-rule:evenodd;stroke:none;display:inline"/>
<path d="M 24.59,22.5 C 24.59,22.5 24.37,23.31 24.12,23.31 C 23.87,23.31 23.54,23.56 23.25,23.78 C 22.95,23.99 21.46,25.89 21.46,26.18 C 21.46,26.4 21.11,27.35 20.9,28.46 C 20.91,28.45 20.92,28.45 20.93,28.43 C 21.12,28.22 21.52,27.62 21.68,27.37 C 21.89,27.04 21.65,27.17 21.9,26.75 C 21.97,26.62 23.11,25.14 23.4,24.78 C 23.73,24.37 23.87,24.43 24,24.31 C 24.25,24.05 24.37,23.79 24.65,23.43 C 24.89,23.13 24.68,22.91 24.84,22.65 L 24.59,22.5 z" id="p3339" style="fill:#b7caca;fill-opacity:0.27;fill-rule:evenodd;stroke:none;display:inline"/>
<path d="M 27.43,3.37 C 27.09,3.37 26.75,3.40 26.43,3.46 C 25.60,3.91 24.71,4.46 24.34,5.03 C 23.57,6.21 23.52,7.00 24.06,8.09 C 24.61,9.18 25.68,9.85 26.18,10.12 C 26.67,10.40 28.14,11.02 28.18,11.34 C 28.23,11.66 28.36,12.27 28,12.81 C 27.82,13.09 24.85,16.79 23.59,18.37 C 22.96,19.17 22.57,19.38 23.18,19.71 C 23.79,20.04 24.68,19.12 25.18,18.53 C 25.68,17.94 29.56,13.04 29.56,12.59 C 29.56,12.13 28.86,10.52 28.5,10.34 C 28.14,10.16 25.33,9.57 24.56,7.03 C 23.79,4.48 27.55,3.95 27.87,3.90 C 28.08,3.87 29.55,3.98 30.59,4.12 C 30.56,4.11 30.55,4.10 30.53,4.09 C 29.40,3.63 28.37,3.38 27.43,3.37 z M 31.93,4.71 C 32.33,5.42 32.80,6.79 33.09,6.90 C 33.29,6.98 34.59,6.61 35.84,6.34 C 35.28,6.13 34.68,5.93 34.21,5.75 C 33.34,5.39 32.65,5.05 31.93,4.71 z" id="p3347" style="fill:#dedede;fill-opacity:0.72;fill-rule:evenodd;stroke:none;display:inline"/>
<path d="M 24.11,18.03 C 23.38,18.89 24.61,19.3 26.69,16.57 C 28.78,13.85 30.1,12.03 30.42,12.03 C 30.74,12.03 33.55,13.26 34.23,13.44 C 34.91,13.62 38.41,14.35 39.77,12.12 C 41.13,9.9 39.82,7.72 38.46,6.45 C 37.09,5.18 36.32,5.9 36.32,5.9 C 36.32,5.9 40.18,9.13 39.73,10.67 C 39.27,12.21 39,13.03 35.41,12.94 C 31.83,12.85 31.51,11.67 31.24,11.58 C 30.96,11.49 30.51,11.21 29.87,11.44 C 29.24,11.67 28.1,12.94 27.74,13.44 C 27.38,13.94 24.38,17.84 24.11,18.03 z" id="p3350" style="fill:#e3e3e3;fill-opacity:0.46;fill-rule:evenodd;stroke:none;display:inline"/>
<path d="M 23.81,21.54 C 23,20.88 24,21.23 24.08,20.74 C 24.16,20.25 29.13,13.64 30.11,13.4 C 31.08,13.15 31.57,13.4 31.25,12.99 C 30.92,12.58 30.84,12.09 31.49,12.42 C 32.15,12.74 34.27,14.13 36.8,13.89 C 39.33,13.64 39.49,12.91 39.82,12.91 C 40.14,12.91 40.8,13.64 39.33,14.13 C 37.86,14.62 35.74,14.62 34.51,14.21 C 33.29,13.8 31.41,12.91 31.57,13.23 C 31.74,13.56 31.25,13.64 30.43,13.97 C 29.62,14.29 24.8,20.66 24.72,21.23 C 24.64,21.8 24.63,22.43 23.81,21.54 z" id="p3353" style="fill:#000000;fill-opacity:0.51;fill-rule:evenodd;stroke:none;display:inline"/>
<path d="M 28.06,17.31 C 27.7,17.53 24.48,21.66 24.34,22.09 C 24.19,22.52 24.47,22.59 24.5,23.65 C 24.55,23.58 24.59,23.51 24.65,23.43 C 24.9,23.11 24.62,22.88 24.87,22.59 C 24.97,22.48 26.51,20.47 27.96,18.56 C 28,17.93 28.07,17.45 28.09,17.34 C 28.09,17.32 28.08,17.29 28.06,17.31 z" id="p3356" style="fill:#a1a1a1;fill-opacity:0.35;fill-rule:evenodd;stroke:none;display:inline"/>
<path d="M 31.65,13.34 C 31.59,13.33 31.54,13.38 31.56,13.46 C 31.61,13.8 31.7,14.02 31.12,15.03 C 31.33,14.97 31.55,14.94 31.68,14.96 C 31.7,14.97 31.86,15.02 31.9,15.03 C 32.08,14.68 32.21,14.37 32.21,14.21 C 32.21,13.76 31.83,13.36 31.65,13.34 z" id="p3358" style="fill:#a1a1a1;fill-opacity:0.35;fill-rule:evenodd;stroke:none;display:inline"/>
<path d="M 34.69,14.41 C 36.26,14.76 37.57,14.86 37.97,14.71 C 38.37,14.56 38.73,14.46 38.73,14.46 C 38.73,14.46 39.08,14.86 38.83,14.96 C 38.57,15.06 36.66,15.57 35.6,15.37 C 34.54,15.16 33.63,15.11 34.09,14.91 C 34.54,14.71 34.74,14.46 34.69,14.41 z" id="p3360" style="fill:#a1a1a1;fill-opacity:0.73;fill-rule:evenodd;stroke:none;display:inline"/>
<path d="M 27.75,4.03 C 26.38,4.17 25.19,4.96 24.75,5.93 C 24.41,6.67 24.78,7.26 25.37,7.84 C 25.36,7.73 25.35,7.62 25.31,7.46 C 25.75,6.82 27.04,6.5 28.15,6.43 C 28.82,6.39 29.42,6.45 29.75,6.56 C 31.86,7.28 31.3,8.67 32.56,9.21 C 33.88,9.79 34.74,9.14 36.37,9.56 C 37.43,9.83 38.58,10.57 38.71,11.71 C 38.63,11.83 38.54,11.93 38.43,12.03 C 39,11.8 39.36,11.3 39.5,10.62 C 39.75,9.36 38.02,7.59 36.56,6.93 C 35.09,6.28 33.48,7.15 33.03,7.15 C 32.57,7.15 32.41,6.53 32.06,5.78 C 31.7,5.02 29.95,4.08 28.34,4.03 C 28.14,4.02 27.94,4.01 27.75,4.03 z" id="p3395" style="fill:#404040;fill-opacity:0.73;fill-rule:evenodd;stroke:none;display:inline"/>
<path d="M 28.56,4.28 C 27.6,4.31 26.47,4.55 25.62,5.12 C 24.58,5.81 24.76,6.77 25.34,7.65 C 25.33,7.59 25.33,7.54 25.31,7.46 C 25.43,7.28 25.63,7.13 25.87,7 C 25.72,6.71 25.59,6.4 25.65,6.15 C 25.8,5.55 26.59,5.03 28.4,4.78 C 30.22,4.52 31.62,5.79 31.46,5.59 C 31.31,5.39 30.95,4.74 30,4.43 C 29.64,4.32 29.13,4.25 28.56,4.28 z" id="p3362" style="fill:#121212;fill-opacity:0.73;fill-rule:evenodd;stroke:none;display:inline"/>
<path d="M 33.08,7.5 C 32.88,7.95 32.98,8.51 33.38,8.51 C 33.78,8.51 34.39,7.45 35.1,7.55 C 35.8,7.65 35.95,7.5 36.71,8 C 37.47,8.51 37.01,7.04 36.2,6.94 C 35.4,6.84 33.38,6.94 33.08,7.5 z" id="p3364" style="fill:#282828;fill-opacity:0.73;fill-rule:evenodd;stroke:none;display:inline"/>
<path d="M 27.46,5.21 C 27.22,5.21 26.98,5.24 26.78,5.28 C 26.1,5.4 25.86,5.41 25.87,6.33 C 26.87,6.14 26.54,6.47 26.96,5.84 C 27.27,5.33 29.15,5.93 29.15,5.93 C 29.15,5.93 29.74,5.65 29.34,5.5 C 29.04,5.38 28.21,5.21 27.46,5.21 z" id="p3371" style="fill:#c2c2c2;fill-opacity:0.47;fill-rule:evenodd;stroke:none;display:inline"/>
<path d="M 34.59,8.25 C 34.01,8.32 33.5,8.56 33.12,8.56 C 32.78,8.56 32.3,8.46 31.75,8.43 C 31.93,8.75 32.13,9.03 32.56,9.21 C 33.88,9.79 34.74,9.14 36.37,9.56 C 36.7,9.64 37.03,9.76 37.34,9.93 C 37.4,9.6 37.44,9.27 37.4,9.15 C 37.3,8.85 35.99,8.35 35.18,8.25 C 34.98,8.22 34.78,8.22 34.59,8.25 z" id="p3373" style="fill:#c3c3c3;fill-opacity:0.43;fill-rule:evenodd;stroke:none;display:inline"/>
<path d="M 28.28,4.18 C 27.1,4.2 26.25,4.87 25.37,5.62 C 24.63,6.25 24.79,6.8 25.37,7.37 C 25.52,7.19 25.74,7.06 26,6.93 C 25.48,5.92 26.32,5.42 27.37,5.03 C 28.58,4.57 30.06,5.95 31.12,6.81 C 31.9,7.44 32.28,7.39 32.03,6.43 C 31.77,5.47 30.24,4.42 28.78,4.21 C 28.59,4.19 28.44,4.18 28.28,4.18 z" id="p3404" style="fill:#040404;fill-opacity:0.37;fill-rule:evenodd;stroke:none"/>
<path d="M 32.57,7.45 C 32.57,8 32.67,8.31 33.03,8.31 C 33.38,8.31 35.1,7.6 35.9,7.9 C 36.71,8.2 38.27,9.21 38.57,9.52 C 38.88,9.82 38.17,8.31 37.87,7.95 C 37.57,7.6 35.9,6.79 34.69,6.94 C 33.48,7.1 32.62,7.4 32.57,7.45 z" id="p3409" style="fill:#040404;fill-opacity:0.37;fill-rule:evenodd;stroke:none"/>
<path d="M 39.31,10.34 C 39.33,10.4 39.31,10.64 38.21,10.62 C 38.48,10.93 38.67,11.3 38.71,11.71 C 38.67,11.78 38.61,11.84 38.56,11.9 C 38.56,11.9 38.59,11.93 38.59,11.93 C 39.09,11.48 39.49,10.57 39.34,10.37 C 39.3,10.32 39.3,10.32 39.31,10.34 z" id="p3411" style="fill:#040404;fill-opacity:0.54;fill-rule:evenodd;stroke:none"/>
<path d="M 24.81,4.12 C 24.35,4.42 23.94,4.81 23.56,5.31 C 21.75,7.65 23.19,10.35 23.87,10.93 C 24.55,11.52 27.03,12.9 27.03,12.9 C 27.05,12.51 27.04,11.69 27.71,11.4 C 28.42,11.1 25.35,10.22 24.59,9.18 C 23.83,8.15 23.19,7.21 23.68,5.84 C 23.9,5.22 24.36,4.62 24.81,4.12 z" id="p3416" style="fill:#2c2c2c;fill-opacity:0.5;fill-rule:evenodd;stroke:none"/>
<path d="M 27.87,11.42 C 27.87,11.21 26.26,10.3 25.77,9.99 C 25.28,9.69 24.21,9.14 24.21,8.89 C 24.21,8.65 23.88,9.47 24.06,9.78 C 24.24,10.08 26.44,10.69 26.87,10.97 C 27.29,11.24 27.66,11.64 27.66,11.64 L 27.87,11.42 z" id="p3421" style="fill:#181818;fill-opacity:0.5;fill-rule:evenodd;stroke:none"/>
<path d="M 21.05,24.55 C 21.42,25 21.64,25.49 21.64,25.49 C 21.64,25.49 22.92,23.41 23.26,23.37 C 23.6,23.33 24.2,22.99 24.2,22.84 C 24.2,22.69 23.94,22.09 23.52,21.71 C 23.11,21.33 22.69,21.9 22.62,21.94 C 22.54,21.97 22.46,22.06 22.68,22.25 C 22.61,22.61 21.75,23.57 21.05,24.55 z" id="p3423" style="fill:#191b1b;fill-opacity:0.72;fill-rule:evenodd;stroke:none"/>
<path d="M 27.43,3.37 C 25.87,3.36 24.57,3.99 23.56,5.31 C 21.75,7.65 23.19,10.35 23.87,10.93 C 24.55,11.52 27.03,12.9 27.03,12.9 C 27.03,12.9 27,13.14 26.84,13.34 C 26.68,13.53 22.62,18.68 21.78,19.68 C 20.93,20.69 21.01,20.27 20.71,20.46 C 20.42,20.66 20.09,20.96 19.96,21.12 C 19.83,21.28 19.87,21.74 19.75,21.93 C 19.62,22.13 18.57,23.42 18.28,23.75 C 17.98,24.07 17.97,24.15 17.78,24.21 C 17.58,24.28 17.1,24.89 16.9,25.18 C 16.71,25.47 16.78,25.8 16.68,26.15 C 16.59,26.51 7.03,38.46 6.93,38.62 C 6.84,38.78 6.86,40.2 8.03,41.06 C 9.19,41.92 9.26,41.65 9.84,41.65 C 10.42,41.65 11.01,40.67 11.43,40.15 C 11.44,40.14 11.63,39.87 11.65,39.84 C 12.29,40.13 12.7,40.26 12.9,40.12 C 13.15,39.96 13.96,38.96 13.96,38.96 L 15.43,39.71 C 15.43,39.71 15.14,40.28 15.18,40.78 C 15.22,41.27 15.37,41.43 15.37,41.43 C 15.37,41.43 17.09,42.46 17.34,42.46 C 17.59,42.46 19.23,40.39 19.31,40.18 C 19.39,39.98 19.37,39.03 19.25,38.87 C 19.12,38.71 19.18,38.59 19.18,38.59 C 19.18,38.59 19.75,39 20,39 C 20.24,39 21.81,36.74 21.93,36.37 C 22.06,36 21.97,35.44 21.81,35.28 C 21.64,35.11 20.08,34.23 19.87,34.15 C 19.66,34.07 18.71,35.18 18.71,35.18 L 17.21,34.43 C 17.21,34.43 17.64,33.86 17.68,33.65 C 17.72,33.48 17.73,33.01 17.21,32.59 C 18.49,30.92 20.08,28.89 20.18,28.75 C 20.47,28.32 20.66,28.73 20.93,28.43 C 21.12,28.22 21.52,27.62 21.68,27.37 C 21.89,27.04 21.65,27.17 21.9,26.75 C 21.97,26.62 23.11,25.14 23.4,24.78 C 23.73,24.37 23.87,24.43 24,24.31 C 24.25,24.05 24.37,23.79 24.65,23.43 C 24.9,23.11 24.62,22.88 24.87,22.59 C 25.04,22.39 30.02,15.85 30.28,15.5 C 30.54,15.14 31.33,14.9 31.68,14.96 C 32.04,15.03 34.59,15.97 35.96,16.18 C 38.7,16.61 40.76,14.53 41.25,13.4 C 42.66,10.14 39.96,8.14 39.15,7.75 C 37.58,6.97 35.6,6.31 34.21,5.75 C 32.82,5.18 32.03,4.7 30.53,4.09 C 29.4,3.63 28.37,3.38 27.43,3.37 z M 28.15,6.43 C 28.82,6.39 29.42,6.45 29.75,6.56 C 31.86,7.28 31.3,8.67 32.56,9.21 C 33.88,9.79 34.74,9.14 36.37,9.56 C 37.43,9.83 38.58,10.57 38.71,11.71 C 38.01,12.74 36.22,13.17 34.71,12.75 C 31.32,11.77 32.33,10.71 31.46,10.25 C 30.73,9.85 29.07,10.64 26.87,9.4 C 24.95,8.32 25.51,8.23 25.31,7.46 C 25.75,6.82 27.04,6.5 28.15,6.43 z" id="stroke01" style="fill:none;fill-opacity:1;fill-rule:evenodd;stroke:#000000;stroke-width:0.5;stroke-linecap:butt;stroke-linejoin:round;stroke-miterlimit:4;stroke-dasharray:none;stroke-opacity:1;display:inline"/>
</g>
</svg>
