<?xml version="1.0" encoding="UTF-8" standalone="no"?>
<!DOCTYPE svg PUBLIC "-//W3C//DTD SVG 1.0//EN" "http://www.w3.org/TR/2001/REC-SVG-20010904/DTD/svg10.dtd">
<svg xmlns:svg="http://www.w3.org/2000/svg" xmlns="http://www.w3.org/2000/svg" version="1.0" width="100%" height="100%" viewBox="0 0 48 48" id="_key04" style="display:inline;enable-background:new">
<defs id="defs2385"/>
<g id="key04" style="display:inline">
<path d="M 41.4,9.53 C 40.41,9.47 39.42,9.75 38.64,10.71 C 37.01,9.84 35.67,9.63 34.25,9.68 C 33.1,9.73 32.14,10.08 31.5,10.78 C 31.19,11.1 31.1,11.28 30.87,11.9 C 30.09,14.03 30.89,15.87 32.12,17.62 C 31.65,17.66 31.25,17.71 31.25,17.71 C 31.25,17.71 31.24,18.29 31.12,18.4 C 30.62,18.87 20.38,26.79 20.25,26.93 L 20.42,27.01 L 17.75,28.92 C 17.4,29.15 17.26,29.98 17.31,30.5 L 16.75,31 L 14.71,29.56 L 14.09,30.03 L 12.81,29.25 L 13.25,28.21 L 12.62,27.65 L 12.81,27.09 L 11.59,26.18 L 10.84,26.78 L 9.87,26.06 L 8.87,26.84 L 8.59,27.65 L 8.34,27.4 L 7.34,28.15 L 6.68,29.9 L 7.06,30.46 L 6.56,31.87 L 7.28,32.93 L 7.53,32.18 L 8.59,33.4 L 9.25,32.81 L 10,33.4 L 9.31,34.75 L 10.71,36.25 L 9.37,37.5 C 8.95,37.78 8.95,38.52 9.37,39.18 C 9.81,39.88 10.76,40.25 11.24,40 L 19.18,32.87 C 19.74,33.11 20.36,32.98 20.66,32.67 L 23.18,30.15 L 23.53,30.53 L 33.56,20.7 L 34.56,20.59 L 34.93,20.03 C 38.05,21.99 41.56,22.3 43.12,20.62 C 44.47,18.85 44.48,17.26 43.5,15.25 C 45.65,12.4 44.44,10.52 42.81,9.87 C 42.37,9.7 41.89,9.55 41.4,9.53 z M 40.37,11.56 C 40.59,11.6 41.06,11.82 41.35,12.25 C 41.74,12.81 41.76,13.3 41.09,13.09 C 40.42,12.88 39.72,11.95 40.18,11.59 C 40.23,11.56 40.3,11.54 40.37,11.56 z" id="p2531" style="fill:#7b553e;fill-opacity:1;fill-rule:evenodd;stroke:none;marker:none;visibility:visible;display:inline;overflow:visible;enable-background:accumulate"/>
<path d="M 41.4,9.53 C 40.8,9.49 40.2,9.58 39.65,9.87 C 40.51,10.31 41.87,10.42 43.53,10.28 C 43.3,10.12 43.06,9.97 42.81,9.87 C 42.37,9.7 41.89,9.55 41.4,9.53 z" id="p3485" style="fill:#dc8d73;fill-opacity:0.31;fill-rule:evenodd;stroke:none"/>
<path d="M 33.68,9.75 C 32.79,9.87 32.03,10.2 31.5,10.78 C 31.19,11.1 31.1,11.28 30.87,11.9 C 30.11,13.97 30.86,15.76 32.03,17.46 C 33.44,16.95 32.22,15.1 32.09,12.78 C 32,11.13 32.61,10.32 33.68,9.75 z" id="p3454" style="fill:#41160d;fill-opacity:0.17;fill-rule:evenodd;stroke:none;display:inline"/>
<path d="M 38.34,13.9 C 38.02,13.95 37.71,14.12 37.4,14.43 C 35.76,16.07 39.78,17.7 38.68,18.43 C 37.92,18.94 36.86,18.48 36.37,20.78 C 39.07,22.02 41.79,22.05 43.12,20.62 C 44.29,19.08 44.43,17.69 43.81,16.03 C 41.15,15.2 39.62,13.7 38.34,13.9 z" id="p3452" style="fill:#e9a294;fill-opacity:0.07;fill-rule:evenodd;stroke:none;display:inline"/>
<path d="M 34.03,9.71 C 33.33,9.77 32.7,9.94 32.18,10.25 C 32.33,10.57 32.44,10.95 32.46,11.34 C 32.54,12.7 33.75,13.56 30.62,14.31 C 30.65,14.53 30.71,14.75 30.78,14.96 C 33.41,14.07 34.73,13.59 35.31,14.25 C 35.95,14.97 35.58,16.81 36.5,16.9 C 37.41,16.99 39.3,17.42 39.12,18.25 C 39.01,18.76 37.29,19.63 36.09,20.65 C 38.88,22.02 41.74,22.1 43.12,20.62 C 44.44,18.89 44.48,17.32 43.56,15.37 C 42.34,15.27 40.82,15.11 39.59,14.25 C 38.39,13.4 38.2,11.91 38.31,10.62 C 37.93,10.45 37.56,10.31 37.18,10.18 C 37.07,10.58 36.88,10.91 36.5,11.06 C 35.25,11.55 34.09,11.5 34.03,9.71 z" id="p3464" style="fill:#e79584;fill-opacity:0.08;fill-rule:evenodd;stroke:none;display:inline"/>
<path d="M 16.43,30.78 L 16.43,30.87 L 10.43,35.84 L 10.4,35.9 L 10.71,36.25 L 10.31,36.62 C 13.61,34.61 15.82,32.2 14.56,34.12 C 13.21,36.18 15.5,34.71 15.5,34.71 L 18.78,31.71 C 18.78,31.71 15.65,34.12 16.43,32.28 C 16.61,31.86 16.66,31.43 16.71,31 L 16.43,30.78 z" id="p3374" style="fill:#411b06;fill-opacity:0.33;fill-rule:evenodd;stroke:none;display:inline"/>
<path d="M 11.01,31.43 C 10.98,30.97 10.56,30.33 10.86,29.83 C 11.17,29.34 12.19,29.07 12.5,29.15 C 12.8,29.23 13.26,29.64 13.26,29.64 L 11.01,31.43 z" id="p3363" style="fill:#3f2512;fill-opacity:0.47;fill-rule:evenodd;stroke:none;display:inline"/>
<path d="M 10.64,38.08 L 19.9,30.07 L 20.16,30.01 L 22.21,27.96 C 22.21,27.96 22.94,28.62 22.94,29.02 C 22.94,29.41 20.83,31.33 20.83,31.33 L 20.36,31.07 L 10.91,39.2 L 10.64,38.08 z" id="p3331" style="fill:#fde8d8;fill-opacity:0.66;fill-rule:evenodd;stroke:none;display:inline"/>
<path d="M 8.51,31.01 C 8.66,31.39 8.73,31.88 8.96,31.73 C 9.19,31.58 10.03,30.9 10.33,30.9 C 10.63,30.9 11.39,31.28 11.39,31.28 L 12.31,30.52 C 12.31,30.52 12.08,30.02 11.7,29.91 C 11.32,29.8 10.52,30.48 10.29,30.33 C 10.06,30.18 9.68,30.02 9.68,30.02 L 8.51,31.01 z" id="p3365" style="fill:#491909;fill-opacity:0.36;fill-rule:evenodd;stroke:none;display:inline"/>
<path d="M 14.71,29.56 L 14.09,30.03 L 13.56,29.68 L 9.84,33.12 L 11.28,34.53 L 15.92,30.43 L 14.71,29.56 z" id="p3357" style="fill:#ecc6a9;fill-opacity:0.43;fill-rule:evenodd;stroke:none;display:inline"/>
<path d="M 7.31,28.25 L 6.68,29.9 L 7.06,30.46 L 6.56,31.87 L 7.28,32.93 L 7.53,32.18 L 8.59,33.4 L 9.25,32.81 L 10,33.4 L 9.31,34.75 L 10.53,36.06 L 12.01,34.7 C 12.01,34.7 10.6,33.72 10.6,33.45 C 10.6,33.19 11.37,32.59 11.37,32.59 L 10.71,32 L 10.5,32.4 L 9.9,31.81 L 8.87,32.46 L 8,31.65 L 8.35,31.07 L 7.34,30.14 L 8.46,29.21 L 7.31,28.25 z" id="p3334" style="fill:#0e0600;fill-opacity:0.95;fill-rule:evenodd;stroke:none;display:inline"/>
<path d="M 9,26.75 L 8.87,26.84 L 8.44,27.75 L 9.87,29.21 L 10.71,28.5 L 9,26.75 z" id="p3340" style="fill:#0e0600;fill-opacity:0.95;fill-rule:evenodd;stroke:none;display:inline"/>
<path d="M 12.01,34.67 C 12.01,34.67 10.6,33.68 10.6,33.42 C 10.6,33.15 11.37,32.59 11.37,32.59 L 10.71,32 L 10.5,32.4 L 9.9,31.81 L 8.87,32.46 L 8,31.65 L 8.35,31.07 L 7.34,30.14 L 8.46,29.21 L 7.31,28.25" id="p3355" style="fill:none;fill-opacity:0.95;fill-rule:evenodd;stroke:#6f452e;stroke-width:0.30;stroke-linecap:butt;stroke-linejoin:bevel;stroke-miterlimit:4;stroke-dasharray:none;stroke-opacity:1;display:inline"/>
<path d="M 10.51,36.03 L 16.5,30.8" id="p3344" style="fill:none;fill-rule:evenodd;stroke:#241510;stroke-width:1px;stroke-linecap:butt;stroke-linejoin:miter;stroke-opacity:0.81;display:inline"/>
<path d="M 8.33,30.87 L 12.63,27.36" id="p3336" style="fill:none;fill-rule:evenodd;stroke:#f8d7c5;stroke-width:0.5;stroke-linecap:round;stroke-linejoin:miter;stroke-miterlimit:4;stroke-dasharray:none;stroke-opacity:0.62;display:inline"/>
<path d="M 10.45,32.29 L 13.42,29.74" id="p3342" style="fill:none;fill-rule:evenodd;stroke:#190900;stroke-width:0.60;stroke-linecap:round;stroke-linejoin:miter;stroke-miterlimit:4;stroke-dasharray:none;stroke-opacity:0.9;display:inline"/>
<path d="M 11.17,39.88 C 10.69,40.13 9.96,39.78 9.52,39.08 C 9.09,38.39 9.11,37.63 9.59,37.38 C 10.07,37.12 10.80,37.49 11.24,38.17 C 11.68,38.87 11.65,39.63 11.17,39.88 z" id="p3370" style="fill:#271908;fill-opacity:1;fill-rule:evenodd;stroke:#966649;stroke-width:0.27;stroke-linecap:round;stroke-linejoin:miter;marker:none;stroke-miterlimit:4;stroke-dashoffset:0;stroke-opacity:1;visibility:visible;display:inline;overflow:visible;enable-background:accumulate"/>
<path d="M 18.46,29.15 C 18.26,29.14 18.07,29.19 17.9,29.28 C 17.15,29.53 16.93,31.2 17.9,30.09 C 18.38,29.84 19.11,30.21 19.56,30.9 C 20,31.6 19.97,32.37 19.5,32.62 C 19.52,33.04 19.86,32.92 20.21,32.87 C 20.9,32.51 20.94,31.43 20.31,30.43 C 19.83,29.68 19.08,29.19 18.46,29.15 z" id="p3377" style="fill:#040200;fill-opacity:1;fill-rule:evenodd;stroke:none;marker:none;visibility:visible;display:inline;overflow:visible;enable-background:accumulate"/>
<path d="M 20.21,32.87 C 20.9,32.51 20.94,31.43 20.31,30.43 C 19.83,29.68 19.08,29.19 18.46,29.15 C 18.26,29.14 18.07,29.19 17.9,29.28" id="p3391" style="fill:none;fill-opacity:1;fill-rule:evenodd;stroke:#a87b60;stroke-width:0.40;stroke-linecap:round;stroke-linejoin:miter;marker:none;stroke-miterlimit:4;stroke-dashoffset:0;stroke-opacity:1;visibility:visible;display:inline;overflow:visible;enable-background:accumulate"/>
<path d="M 31.09,21.9 C 29.77,21.97 27.96,22.62 27,23.84 C 25.71,25.47 25.27,26.65 24.87,25.12 C 24.68,24.39 24.59,23.98 24.37,23.71 C 23.15,24.66 22.42,25.24 21.78,25.75 C 21.71,26.21 21.78,26.41 22.37,26.46 C 23.41,26.56 23.9,26.8 24.25,27.5 C 24.59,28.19 24.8,28.11 26.53,27.12 C 26.88,26.92 27.41,26.56 27.96,26.18 L 32.18,22.03 C 31.9,21.92 31.53,21.88 31.09,21.9 z" id="p3399" style="fill:#5d2412;fill-opacity:0.22;fill-rule:evenodd;stroke:none;display:inline"/>
<path d="M 29,20.09 C 27.23,21.48 25.74,22.66 23.5,24.4 C 23.63,26.16 24.1,28.23 24.56,29.53 L 27.25,26.87 C 26.56,25.32 27.9,22.32 29,20.09 z" id="p3401" style="fill:#4b2d23;fill-opacity:0.43;fill-rule:evenodd;stroke:none;display:inline"/>
<path d="M 23.2,30.01 C 24.09,28.38 24.22,27 23.85,26.66 C 23.1,25.99 21.53,26.32 20.39,26.96 C 21.17,27.18 21.62,27.11 22.12,27.6 C 22.61,28.09 23.25,29.13 23.2,30.01 z" id="p3395" style="fill:#5b3f2e;fill-opacity:1;fill-rule:evenodd;stroke:none;display:inline"/>
<path d="M 23.75,26.81 C 22.87,26.9 22.41,27.19 22.15,27.62 C 22.64,28.12 23.26,29.15 23.21,30.03 C 24.01,28.56 24.18,27.29 23.93,26.81 C 23.87,26.81 23.8,26.8 23.75,26.81 z" id="p3416" style="fill:#93715c;fill-opacity:0.62;fill-rule:evenodd;stroke:none"/>
<path d="M 23.2,30.01 C 24.09,28.38 24.22,27 23.85,26.66 C 23.1,25.99 21.53,26.32 20.39,26.96" id="p3414" style="fill:none;fill-opacity:1;fill-rule:evenodd;stroke:#423226;stroke-width:0.2;stroke-linecap:butt;stroke-linejoin:miter;stroke-miterlimit:4;stroke-dasharray:none;stroke-opacity:1;display:inline"/>
<path d="M 35.12,19.06 C 34.68,19.06 34.91,19.85 34.37,20.25 C 33.83,20.64 33.48,20.28 33.09,20.43 C 32.69,20.58 23.29,29.67 23.29,29.67 L 23.37,30.49 L 33.56,20.68 L 34.56,20.59 L 34.93,20.03 C 34.97,20.05 35.02,20.06 35.06,20.09 C 35.19,19.53 35.28,19.06 35.12,19.06 z" id="p3393" style="fill:#c4a08e;fill-opacity:1;fill-rule:evenodd;stroke:none;display:inline"/>
<path d="M 35.12,19.06 C 34.68,19.06 34.91,19.85 34.37,20.25 C 33.83,20.64 33.48,20.28 33.09,20.43 C 32.69,20.58 23.29,29.67 23.29,29.67" id="p3428" style="fill:none;fill-opacity:1;fill-rule:evenodd;stroke:#ac7f66;stroke-width:0.2;stroke-linecap:butt;stroke-linejoin:miter;stroke-miterlimit:4;stroke-dasharray:none;stroke-opacity:1;display:inline"/>
<path d="M 20.47,27.00 C 21.15,26.64 22.21,27.17 22.84,28.16 C 23.47,29.16 23.43,30.25 22.75,30.61" id="p3379" style="fill:none;fill-opacity:0.68;fill-rule:evenodd;stroke:#a6856c;stroke-width:0.39;stroke-linecap:round;stroke-linejoin:miter;marker:none;stroke-miterlimit:4;stroke-dashoffset:0;stroke-opacity:1;visibility:visible;display:inline;overflow:visible;enable-background:accumulate"/>
<path d="M 23.1,27.24 C 22.45,28.17 23.48,28.01 23.76,27.68 C 24.05,27.36 23.75,26.31 23.1,27.24 z" id="p3418" style="fill:#eee8e3;fill-opacity:0.41;fill-rule:evenodd;stroke:none"/>
<path d="M 21.14,30.28 L 22.25,29.12" id="p3423" style="fill:none;fill-rule:evenodd;stroke:#ffebdf;stroke-width:1.10;stroke-linecap:round;stroke-linejoin:miter;stroke-miterlimit:4;stroke-dasharray:none;stroke-opacity:0.70"/>
<path d="M 11.93,37.79 L 14.74,35.41" id="p3425" style="fill:none;fill-rule:evenodd;stroke:#fee7e2;stroke-width:1.10;stroke-linecap:round;stroke-linejoin:miter;stroke-miterlimit:4;stroke-dasharray:none;stroke-opacity:0.76;display:inline"/>
<path d="M 31.62,10.67 C 31.5,10.85 31.02,11.5 30.87,11.9 C 30.1,13.99 30.86,15.81 32.06,17.53 C 32.31,17.49 32.42,17.39 32.46,17.28 C 32.53,17.11 32.68,16.81 32.68,16.81 C 31.24,15.02 30.41,13.07 31.62,10.67 z" id="p3430" style="fill:#25100c;fill-opacity:0.73;fill-rule:evenodd;stroke:none;display:inline"/>
<path d="M 35.13,19.1 C 34.93,19.07 35.06,19.67 34.93,20.03 C 38.05,21.99 41.56,22.3 43.12,20.62 C 43.26,20.43 43.75,19.54 43.86,19.35 C 41.42,22.64 35.37,19.14 35.13,19.1 z" id="p3432" style="fill:#30140f;fill-opacity:0.87;fill-rule:evenodd;stroke:none;display:inline"/>
<path d="M 35.12,19.09 C 34.93,19.06 35.06,19.67 34.93,20.03 C 35.96,20.67 37.03,21.12 38.06,21.4 C 38.04,21.04 38.05,20.66 38.03,20.31 C 36.48,19.79 35.23,19.11 35.12,19.09 z" id="p3434" style="fill:#110705;fill-opacity:0.87;fill-rule:evenodd;stroke:none;display:inline"/>
<path d="M 43.86,19.35 C 41.42,22.64 35.37,19.14 35.13,19.1" id="p3448" style="fill:none;fill-opacity:0.87;fill-rule:evenodd;stroke:#89604a;stroke-width:0.2;stroke-linecap:round;stroke-linejoin:miter;stroke-miterlimit:4;stroke-dasharray:none;stroke-opacity:1;display:inline"/>
<path d="M 32.06,17.53 C 32.31,17.49 32.42,17.39 32.46,17.28 C 32.53,17.11 32.68,16.81 32.68,16.81 C 31.24,15.02 30.41,13.07 31.62,10.67" id="p3450" style="fill:none;fill-opacity:0.73;fill-rule:evenodd;stroke:#89604a;stroke-width:0.2;stroke-linecap:round;stroke-linejoin:miter;stroke-miterlimit:4;stroke-dasharray:none;stroke-opacity:1;display:inline"/>
<path d="M 41.59,10.81 C 40.84,10.71 40.02,11.07 40.14,11.56 C 40.62,11.55 41.04,11.99 41.37,12.25 C 41.63,12.63 41.7,13.06 41.53,13.18 C 42.33,13.52 42.89,13.31 43.03,12.49 C 43.17,11.68 42.31,10.9 41.59,10.81 z" id="p3470" style="fill:#040100;fill-opacity:0.86;fill-rule:evenodd;stroke:none;display:inline"/>
<path d="M 41.36,13.18 C 42.16,13.52 42.89,13.31 43.03,12.49 C 43.17,11.68 42.31,10.9 41.59,10.81 C 40.84,10.71 40.02,11.07 40.14,11.56" id="p3476" style="fill:none;fill-opacity:0.86;fill-rule:evenodd;stroke:#3d2a20;stroke-width:0.30;stroke-linecap:butt;stroke-linejoin:miter;stroke-miterlimit:4;stroke-dasharray:none;stroke-opacity:1;display:inline"/>
<path d="M 40.79,20.71 C 41.71,20.8 43.07,20.53 43.78,19.32" id="p3478" style="fill:none;fill-rule:evenodd;stroke:#f9b99e;stroke-width:0.30;stroke-linecap:round;stroke-linejoin:miter;stroke-miterlimit:4;stroke-dasharray:none;stroke-opacity:0.62"/>
<path d="M 39.69,11.49 C 40.08,10.23 41.2,10.41 41.2,10.41" id="p3480" style="fill:none;fill-rule:evenodd;stroke:#ffc6b1;stroke-width:0.60;stroke-linecap:round;stroke-linejoin:miter;stroke-miterlimit:4;stroke-dasharray:none;stroke-opacity:0.62;display:inline"/>
<path d="M 39.92,10.9 C 40.28,10.49 40.67,10.47 40.67,10.47" id="p3483" style="fill:none;fill-rule:evenodd;stroke:#fee3d8;stroke-width:0.60;stroke-linecap:round;stroke-linejoin:miter;stroke-miterlimit:4;stroke-dasharray:none;stroke-opacity:0.87"/>
<path d="M 44.52,11.61 C 44.06,13.67 42.96,14.68 42.96,14.68 C 42.96,14.68 43.12,14.97 43.62,15.53 C 43.58,15.43 43.54,15.34 43.5,15.25 C 44.51,13.9 44.69,12.5 44.52,11.61 z" id="p3487" style="fill:#f0cec3;fill-opacity:0.62;fill-rule:evenodd;stroke:none"/>
<path d="M 44.11,10.85 C 44.98,12.9 42.96,14.68 42.96,14.68 C 43.1,14.9 43.32,15.06 43.5,15.25" id="p3495" style="fill:none;fill-opacity:0.62;fill-rule:evenodd;stroke:#925f4e;stroke-width:0.2;stroke-linecap:butt;stroke-linejoin:bevel;stroke-miterlimit:4;stroke-dasharray:none;stroke-opacity:1;display:inline"/>
<path d="M 41.27,9.37 C 40.28,9.31 39.29,9.67 38.67,10.77 C 37.05,9.9 35.67,9.63 34.25,9.68 C 33.1,9.73 32.14,10.08 31.5,10.78 C 31.19,11.1 31.1,11.28 30.87,11.9 C 30.09,14.03 30.89,15.87 32.12,17.62 C 31.65,17.66 31.25,17.71 31.25,17.71 C 31.25,17.71 31.24,18.29 31.12,18.4 C 30.62,18.87 20.38,26.79 20.25,26.93 L 20.42,27.01 L 17.75,28.92 C 17.4,29.15 17.26,29.98 17.31,30.5 L 16.75,31 L 14.71,29.56 L 14.09,30.03 L 12.81,29.25 L 13.25,28.21 L 12.62,27.65 L 12.81,27.09 L 11.59,26.18 L 10.84,26.78 L 9.87,26.06 L 8.87,26.84 L 8.59,27.65 L 8.34,27.4 L 7.34,28.15 L 6.68,29.9 L 7.06,30.46 L 6.56,31.87 L 7.28,32.93 L 7.53,32.18 L 8.59,33.4 L 9.25,32.81 L 10,33.4 L 9.31,34.75 L 10.71,36.25 L 9.37,37.5 C 8.95,37.78 8.95,38.52 9.37,39.18 C 9.81,39.88 10.76,40.25 11.24,40 L 19.18,32.87 C 19.74,33.11 20.36,32.98 20.66,32.67 L 23.18,30.15 L 23.53,30.53 L 33.56,20.7 L 34.56,20.59 L 34.93,20.03 C 38.05,21.99 41.56,22.3 43.12,20.62 C 44.47,18.85 44.48,17.26 43.5,15.25 C 45.65,12.4 44.44,10.62 42.97,9.82 C 42.55,9.59 41.76,9.4 41.27,9.37 z M 40.37,11.56 C 40.59,11.6 41.06,11.82 41.35,12.25 C 41.74,12.81 41.76,13.3 41.09,13.09 C 40.42,12.88 39.72,11.95 40.18,11.59 C 40.23,11.56 40.3,11.54 40.37,11.56 z" id="stroke01" style="fill:none;fill-opacity:1;fill-rule:evenodd;stroke:#1f1404;stroke-width:0.5;stroke-linecap:round;stroke-linejoin:bevel;marker:none;stroke-miterlimit:4;stroke-dasharray:none;stroke-dashoffset:0;stroke-opacity:1;visibility:visible;display:inline;overflow:visible;enable-background:accumulate"/>
</g>
</svg>
