<?xml version="1.0" encoding="UTF-8" standalone="no"?>
<!DOCTYPE svg PUBLIC "-//W3C//DTD SVG 1.0//EN" "http://www.w3.org/TR/2001/REC-SVG-20010904/DTD/svg10.dtd">
<svg xmlns:svg="http://www.w3.org/2000/svg" xmlns="http://www.w3.org/2000/svg" version="1.0" width="100%" height="100%" viewBox="0 0 48 48" id="_key03" style="display:inline">
<defs id="defs2385"/>
<g id="key03" style="display:inline">
<path d="M 35.46,7.43 C 31.99,7.62 29.37,9.90 29.03,11.87 C 28.53,14.73 29.52,16.41 29.03,16.81 C 29.01,16.82 28.42,17.33 28.37,17.37 C 27.97,17.19 27.60,17.25 27.27,17.35 C 26.69,17.54 26.04,18.21 26.13,18.62 C 26.08,18.66 25.94,18.79 25.88,18.83 C 25.68,18.81 25.41,18.86 25.15,19 C 24.61,19.28 24.34,19.84 24.46,20.68 C 18.57,25.70 6.71,35.84 6.71,35.84 C 6.71,35.84 6.36,37.11 7.40,38.31 C 8.14,39.16 8.77,39.64 9.25,39.65 L 10.03,40.46 L 10.53,40.12 L 10.56,40.81 L 11.75,41.71 L 12.15,41.40 L 12.15,42.06 L 13.21,43.15 L 16.90,40.25 L 16.78,39.03 L 13.40,36.21 C 16.69,33.31 22.70,27.96 27,24.18 C 27.44,24.40 27.78,24.38 28.13,24.26 C 28.75,24.07 29.31,23.54 29.27,22.99 C 29.32,22.95 29.38,22.87 29.43,22.83 C 29.70,22.97 30.11,22.76 30.41,22.52 C 30.99,22.05 31.29,21.54 31.10,20.61 C 31.30,20.44 31.71,20.10 31.78,20.06 C 32.76,19.37 32.66,19.56 34.93,19.56 C 37.20,19.56 40.05,19.39 41.75,18.09 C 44.10,16.28 45.53,11.99 40.59,8.71 C 38.88,7.58 37.04,7.35 35.46,7.43 z M 33.68,9.31 C 34.14,9.31 34.59,9.41 35,9.68 C 36.42,10.62 32.13,14.01 30.65,12.5 C 29.64,11.45 31.70,9.31 33.68,9.31 z M 36.75,10.12 L 39.78,10.78 L 41,12.59 C 41,12.59 39.36,12.80 37.62,14.09 C 35.88,15.38 35.84,16.99 35.84,17 C 35.84,17 32.36,16.33 32.09,16.15 C 31.82,15.97 31.5,14.65 31.5,14.65 C 31.95,14.62 33.01,14.31 35,12.78 C 36.98,11.25 36.75,10.12 36.75,10.12 z M 40.46,14.25 C 40.59,14.23 40.72,14.24 40.84,14.25 C 41.12,14.26 41.39,14.33 41.65,14.46 C 43.81,15.57 39.53,18.55 37.5,17.25 C 36.70,16.74 38.59,14.45 40.46,14.25 z" id="p2482" style="fill:#cd8a44;fill-opacity:1;fill-rule:evenodd;stroke:none;"/>
<path d="M 35.46,7.43 C 34.82,7.47 34.23,7.58 33.65,7.75 C 33.53,8.37 33.39,8.91 33.34,9.34 C 33.45,9.33 33.57,9.31 33.68,9.31 C 34.14,9.31 34.59,9.41 35,9.68 C 35.33,9.90 35.34,10.28 35.15,10.68 C 35.62,10.82 36.07,11.02 36.46,11.25 C 36.85,10.56 36.75,10.12 36.75,10.12 L 39.78,10.78 L 41,12.59 C 41,12.59 40.15,12.73 39.06,13.25 C 39.50,13.62 39.90,13.96 40.21,14.31 C 40.30,14.29 40.38,14.25 40.46,14.25 C 40.59,14.23 40.72,14.24 40.84,14.25 C 41.12,14.26 41.39,14.33 41.65,14.46 C 42.41,14.85 42.38,15.48 41.93,16.06 C 42.28,16.30 42.58,16.53 42.96,16.78 C 44.40,14.65 44.57,11.35 40.59,8.71 C 38.88,7.58 37.04,7.35 35.46,7.43 z" id="p3508" style="opacity:1;fill:#64200b;fill-opacity:0.29;fill-rule:evenodd;stroke:none;display:inline"/>
<path d="M 41.93,9.81 C 42.59,10.76 43.27,12.05 43.37,13.28 C 43.56,15.73 42.25,17.00 40.75,17.90 L 40.93,18.59 C 41.22,18.44 41.50,18.28 41.75,18.09 C 43.85,16.47 45.19,12.89 41.93,9.81 z" id="p3429" style="fill:#fee0d1;fill-opacity:0.72;fill-rule:evenodd;stroke:none;"/>
<path d="M 30.84,17.09 L 7.09,37.84 C 7.18,38.00 7.26,38.15 7.40,38.31 C 7.85,38.82 8.26,39.18 8.62,39.40 C 8.63,39.41 8.64,39.42 8.65,39.43 C 8.87,39.57 9.07,39.65 9.25,39.65 L 10.03,40.46 L 10.53,40.12 L 10.56,40.81 L 11.75,41.71 L 12.15,41.40 L 12.15,42.06 L 13.21,43.15 L 16.90,40.25 L 16.78,39.03 L 13.40,36.21 C 13.42,36.20 13.45,36.17 13.46,36.15 L 12.93,35.68 L 31.18,19.65 L 31.96,19.12 C 31.96,19.12 32.21,17.63 31.62,17.5 C 31.03,17.36 30.84,17.09 30.84,17.09 z" id="p3278" style="opacity:1;fill:#67431f;fill-opacity:0.54;fill-rule:evenodd;stroke:none;display:inline"/>
<path d="M 8.69,37.51 L 31.77,17.69 L 30.49,16.73 L 25.46,20.80 L 18.93,26.89 L 13.01,31.79 L 7.32,36.74 L 8.43,38.21 L 8.69,37.51 z" id="p3323" style="fill:#55280b;fill-opacity:0.42;fill-rule:evenodd;stroke:none;"/>
<path d="M 26.75,17.65 C 26.37,17.94 26.06,18.34 26.12,18.62 C 26.07,18.66 25.93,18.79 25.87,18.84 C 25.67,18.82 25.41,18.86 25.15,19 C 24.61,19.28 24.34,19.84 24.46,20.68 C 22.99,21.94 21.96,22.81 20.03,24.46 C 23.46,22.75 25.87,21.04 26.25,22.31 C 26.50,23.18 26.08,24.40 25.65,25.37 C 26.10,24.97 26.57,24.56 27,24.18 C 27.44,24.40 27.77,24.39 28.12,24.28 C 28.73,24.08 29.32,23.55 29.28,23 C 29.32,22.95 29.39,22.88 29.43,22.84 C 29.71,22.98 30.10,22.77 30.40,22.53 C 30.44,22.49 30.49,22.47 30.53,22.43 C 30.53,22.42 30.52,22.41 30.53,22.40 C 31.17,20.48 28.28,18.15 28.28,18.15 L 26.75,17.65 z" id="p3520" style="fill:#8e571e;fill-opacity:0.69;fill-rule:evenodd;stroke:none;"/>
<path d="M 27.43,21.68 L 17.62,30.18" id="p3525" style="fill:none;fill-rule:evenodd;stroke:#fbf4bb;stroke-width:0.69;stroke-linecap:round;stroke-linejoin:miter;stroke-miterlimit:4;stroke-dasharray:none;stroke-opacity:0.66"/>
<path d="M 8.05,37.69 L 15.24,31.87 L 18.49,28.68 L 24.41,23.53 L 26.21,22.33 L 28.92,19.66 C 28.92,19.66 28.79,18.54 29.12,18.47 C 29.45,18.41 30.11,18.67 30.31,19.20 C 30.51,19.73 30.51,20.65 30.11,20.65 C 29.72,20.65 29.19,20.78 29.19,20.78 L 8.38,38.75 L 8.05,37.69 z" id="p3281" style="opacity:1;fill:#faedbe;fill-opacity:0.63;fill-rule:evenodd;stroke:none;display:inline"/>
<path d="M 16.65,38.90 L 13.15,41.84 L 13.37,43.03 L 16.90,40.25 L 16.78,39.03 L 16.65,38.90 z" id="p3284" style="opacity:1;fill:#52350d;fill-opacity:1;fill-rule:evenodd;stroke:none;display:inline"/>
<path d="M 14.24,33.06 L 8.56,37.87" id="p3527" style="fill:none;fill-rule:evenodd;stroke:#fbf4bb;stroke-width:0.69;stroke-linecap:round;stroke-linejoin:miter;stroke-miterlimit:4;stroke-dasharray:none;stroke-opacity:0.66"/>
<path d="M 6.52,36.65 C 6.28,38.07 6.66,37.34 7.40,38.31 C 8.14,39.16 8.77,39.64 9.25,39.65 L 10.03,40.46 L 10.53,40.12 L 10.56,40.81 L 11.75,41.71 L 12.15,41.40 L 12.15,42.06 L 13.21,43.15 L 13.40,43 L 13.40,41.90 L 12.56,41.09 L 14.02,39.85 L 13.26,39.16 L 11.75,40.43 L 10.90,39.71 L 11.78,39 L 11.15,38.43 L 10.18,39.25 L 9.31,38.46 C 9.31,38.46 9.05,37.79 8.90,37.5 C 8.57,36.83 6.77,35.21 6.52,36.65 z" id="p3287" style="opacity:1;fill:#231c08;fill-opacity:1;fill-rule:evenodd;stroke:none;display:inline"/>
<path d="M 13.40,43 L 13.40,41.90 L 12.56,41.09 L 14.02,39.85 L 13.26,39.16 L 11.75,40.43 L 10.90,39.71 L 11.78,39 L 11.15,38.43 L 10.18,39.25 L 9.31,38.46 C 9.31,38.46 9.05,37.79 8.90,37.5 C 8.57,36.83 6.77,35.21 6.52,36.65" id="p3311" style="opacity:1;fill:none;fill-opacity:1;fill-rule:evenodd;stroke:#5b4415;stroke-width:0.30;stroke-linecap:butt;stroke-linejoin:miter;stroke-miterlimit:4;stroke-dasharray:none;stroke-opacity:0.95;display:inline"/>
<path d="M 13.12,35.84 C 12.30,36.60 12.23,36.96 12.28,37.18 C 12.33,37.44 13.59,38.43 13.59,38.43 C 13.59,38.43 14.21,38.14 14.78,38.62 C 15.34,39.10 15.87,39.71 15.87,39.71 L 16.71,38.96 L 13.40,36.21 C 13.42,36.20 13.45,36.17 13.46,36.15 L 13.12,35.84 z" id="p3313" style="fill:#c39d77;fill-opacity:0.27;fill-rule:evenodd;stroke:none;"/>
<path d="M 16.75,39 L 15.25,40.18 L 15.90,41.03 L 16.90,40.25 L 16.78,39.03 L 16.75,39 z" id="p3315" style="fill:#dfa264;fill-opacity:0.58;fill-rule:evenodd;stroke:none;"/>
<path d="M 13.81,41.38 L 16.69,39.06" id="p3289" style="opacity:1;fill:none;fill-rule:evenodd;stroke:#face74;stroke-width:0.30;stroke-linecap:round;stroke-linejoin:miter;stroke-miterlimit:4;stroke-dasharray:none;stroke-opacity:0.89;display:inline"/>
<path d="M 27.78,17.25 C 27.59,17.25 27.44,17.29 27.28,17.34 C 26.70,17.53 26.03,18.21 26.12,18.62 C 26.07,18.66 25.93,18.79 25.87,18.84 C 25.67,18.82 25.41,18.86 25.15,19 C 24.80,19.18 24.58,19.48 24.5,19.90 C 24.59,19.88 25.36,19.70 25.78,19.96 C 26.22,20.25 27.75,21.32 28,22.21 C 28.20,22.96 28.44,23.68 27.96,24.31 C 28.02,24.29 28.07,24.29 28.12,24.28 C 28.73,24.08 29.32,23.55 29.28,23 C 29.32,22.95 29.39,22.88 29.43,22.84 C 29.71,22.98 30.10,22.77 30.40,22.53 C 30.76,22.23 31.03,21.92 31.12,21.5 C 31.25,21.31 30.91,19.77 29.94,18.68 C 29.10,17.73 27.99,17.26 27.96,17.28 C 27.96,17.28 27.94,17.28 27.93,17.28 C 27.88,17.27 27.82,17.24 27.78,17.25 z" id="p3339" style="fill:#d2985a;fill-opacity:1;fill-rule:evenodd;stroke:none;marker:none;visibility:visible;display:inline;overflow:visible;enable-background:accumulate"/>
<path d="M 30.21,19.03 C 30.21,19.04 30.19,19.04 30.18,19.06 C 29.98,20.03 28.92,19.74 28.56,20.03 C 28.19,20.31 27.79,20.73 27.18,20.93 L 27.37,21.28 C 27.66,21.59 27.91,21.90 28,22.21 C 28.05,22.40 28.11,22.59 28.15,22.78 C 28.26,23.23 28.31,23.65 28.12,24.06 L 28.12,24.09 L 28.09,24.28 C 28.10,24.27 28.11,24.28 28.12,24.28 C 28.73,24.08 29.32,23.55 29.28,23 C 29.32,22.95 29.39,22.88 29.43,22.84 C 29.71,22.98 30.10,22.77 30.40,22.53 C 30.76,22.23 31.03,21.92 31.12,21.5 C 31.24,21.33 30.97,20.07 30.21,19.03 z" id="p3368" style="fill:#6c3d13;fill-opacity:0.62;fill-rule:evenodd;stroke:none;"/>
<path d="M 28.87,17.81 C 28.14,18.09 27.93,19.01 27.53,19.09 C 27.12,19.17 26.51,19.50 26.18,20.03 C 26.14,19.99 26.76,20.79 26.84,20.46 C 26.92,20.14 28.05,19.74 28.34,19.62 C 28.62,19.50 28.74,18.96 29.18,18.71 C 29.36,18.62 29.51,18.51 29.65,18.40 C 29.40,18.16 29.14,17.97 28.90,17.81 C 28.89,17.81 28.88,17.80 28.87,17.81 z" id="p3373" style="opacity:1;fill:#84501b;fill-opacity:0.62;fill-rule:evenodd;stroke:none;marker:none;visibility:visible;display:inline;overflow:visible;enable-background:accumulate"/>
<path d="M 25.25,19.43 C 25.02,19.43 24.83,19.49 24.68,19.62 C 24.43,19.84 24.37,20.20 24.43,20.65 L 24.65,20.75 C 24.68,20.63 24.73,20.54 24.81,20.46 C 25.25,20.07 26.26,20.52 27.06,21.43 C 27.85,22.35 28.13,23.38 27.68,23.78 C 27.53,23.91 27.31,23.92 27.06,23.87 L 27.03,24 C 27.59,24.26 28.09,24.29 28.40,24.03 C 29.00,23.52 28.65,22.12 27.62,20.90 C 26.84,19.99 25.92,19.44 25.25,19.43 z" id="p3330" style="fill:#412d1a;fill-opacity:1;fill-rule:evenodd;stroke:none;marker:none;visibility:visible;display:inline;overflow:visible;enable-background:accumulate"/>
<path d="M 26.68,18.28 C 26.46,18.28 26.27,18.34 26.12,18.46 C 26.03,18.54 25.95,18.63 25.90,18.75 C 26.58,18.65 27.59,19.22 28.43,20.21 C 29.31,21.25 29.73,22.38 29.46,23.03 C 29.62,23.00 29.76,22.97 29.87,22.87 C 30.47,22.36 30.09,20.97 29.06,19.75 C 28.28,18.83 27.35,18.28 26.68,18.28 z" id="p3337" style="fill:#573512;fill-opacity:1;fill-rule:evenodd;stroke:none;marker:none;visibility:visible;display:inline;overflow:visible;enable-background:accumulate"/>
<path d="M 26.50,19.30 C 27.72,19.87 28.57,21.04 28.69,21.49" id="p3380" style="fill:none;fill-rule:evenodd;stroke:#fcdcbc;stroke-width:0.80;stroke-linecap:round;stroke-linejoin:miter;stroke-miterlimit:4;stroke-dasharray:none;stroke-opacity:0.70"/>
<path d="M 27.78,19.78 C 27.62,19.81 27.49,19.93 27.45,20.09 C 27.40,20.24 27.45,20.41 27.56,20.53 C 28.26,21.31 28.31,21.62 28.53,22.15 C 28.72,22.63 29.14,22.38 29.19,22.09 C 29.23,21.78 29.08,21.15 28.21,19.93 C 28.11,19.80 27.94,19.74 27.78,19.78 z" id="p3382" style="opacity:1;fill:#ffeee1;fill-opacity:0.74;fill-rule:evenodd;stroke:none;display:inline"/>
<path d="M 30.49,20.74 C 30.02,20.61 30.01,21.39 30.18,22.65 C 30.25,22.61 30.34,22.58 30.40,22.53 C 30.76,22.23 31.03,21.92 31.12,21.5 C 31.18,21.41 31.14,21.27 30.99,20.80 C 30.79,20.71 30.63,20.77 30.49,20.74 z" id="p3389" style="fill:#db9a1b;fill-opacity:0.41;fill-rule:evenodd;stroke:none;"/>
<path d="M 29.25,18.37 C 28.88,18.59 28.75,19.30 28.97,19.61 C 29.19,19.92 29.62,20.23 29.99,19.95 C 30.37,19.67 30.59,19.52 30.09,18.99 C 29.65,18.52 29.47,18.28 29.25,18.37 z" id="p3391" style="fill:#fef5ed;fill-opacity:0.40;fill-rule:evenodd;stroke:none;"/>
<path d="M 29.51,18.69 C 29.07,19.00 29.14,19.39 29.41,19.73 C 29.68,20.08 29.99,20.25 30.24,20.10 C 30.49,19.94 30.62,19.50 30.24,19.04 C 29.85,18.58 29.72,18.62 29.51,18.69 z" id="p3518" style="fill:#fdfbc5;fill-opacity:0.61;fill-rule:evenodd;stroke:none;"/>
<path d="M 31.12,21.5 C 31.25,21.31 30.91,19.77 29.94,18.68 C 29.10,17.73 27.99,17.26 27.96,17.28" id="p3393" style="fill:none;fill-opacity:1;fill-rule:evenodd;stroke:#7c6133;stroke-width:0.2;stroke-linecap:round;stroke-linejoin:round;marker:none;stroke-miterlimit:4;stroke-dasharray:none;stroke-dashoffset:0;stroke-opacity:1;visibility:visible;display:inline;overflow:visible;enable-background:accumulate"/>
<path d="M 29.03,11.87 C 28.53,14.73 29.52,16.41 29.03,16.81 C 29.02,16.82 28.75,17.05 28.56,17.21 C 28.60,17.22 28.63,17.25 28.68,17.25 C 29.62,17.20 29.78,17.07 30.62,17.56 C 31.30,17.95 31.88,19.01 31.81,20.06 C 32.77,19.39 32.68,19.56 34.93,19.56 C 37.06,19.56 39.68,19.40 41.40,18.31 C 41.36,18.09 41.29,17.90 41.21,17.84 C 40.99,17.66 41.22,17.86 37.93,18.31 C 34.64,18.75 31.35,17.87 29.93,15.87 C 29.16,14.79 29.01,13.15 29.03,11.87 z" id="p3398" style="opacity:1;fill:#5f380b;fill-opacity:1;fill-rule:evenodd;stroke:none;display:inline"/>
<path d="M 31.31,17.15 C 31.22,17.19 31.16,17.22 31.15,17.25 C 31.02,17.57 31.41,17.98 31.40,18.43 C 31.67,18.91 31.85,19.48 31.81,20.06 C 32.77,19.39 32.68,19.56 34.93,19.56 C 37.06,19.56 39.68,19.40 41.40,18.31 C 41.36,18.09 41.29,17.90 41.21,17.84 C 40.99,17.66 41.22,17.86 37.93,18.31 C 35.47,18.64 32.99,18.22 31.31,17.15 z" id="p3401" style="opacity:1;fill:#240e03;fill-opacity:0.63;fill-rule:evenodd;stroke:none;display:inline"/>
<path d="M 33.90,18.73 C 33.44,18.74 32.71,18.52 32.56,18.59 C 32.39,18.66 32.38,19.07 32.59,19.62 C 33.00,19.49 33.48,19.56 34.93,19.56 C 36.10,19.56 37.39,19.50 38.62,19.28 C 36.94,18.97 35.60,18.92 33.90,18.73 z" id="p3403" style="opacity:1;fill:#a25d0d;fill-opacity:0.42;fill-rule:evenodd;stroke:none;display:inline"/>
<path d="M 41.34,18.28 C 38.24,19.09 35.19,18.69 34.81,18.65 C 34.42,18.61 34.13,18.97 33.96,19.53 C 34.24,19.53 34.52,19.56 34.93,19.56 C 37.06,19.56 39.68,19.40 41.40,18.31 C 41.40,18.30 41.40,18.29 41.40,18.28 C 41.38,18.28 41.36,18.27 41.34,18.28 z" id="p3416" style="opacity:1;fill:#a2420d;fill-opacity:0.32;fill-rule:evenodd;stroke:none;display:inline"/>
<path d="M 30.48,17.94 C 30.05,18.25 30.44,19.71 30.98,19.48 C 31.52,19.25 31.48,17.70 30.48,17.94 z" id="p3424" style="opacity:1;fill:#fef1ea;fill-opacity:0.21;fill-rule:evenodd;stroke:none;display:inline"/>
<path d="M 31.67,19.21 C 31.21,19.60 30.67,19.17 30.67,18.82 C 30.67,18.48 31.06,18.01 31.25,18.25 C 31.44,18.48 31.87,19.21 31.67,19.21 z" id="p3427" style="fill:#fef1ea;fill-opacity:0.24;fill-rule:evenodd;stroke:none;"/>
<path d="M 36.87,9.15 C 36.87,9.15 36.61,9.27 36.56,9.46 C 36.50,9.65 36.27,10.82 35.59,11.53 C 34.91,12.24 33.38,13.23 32.34,13.53 C 31.64,13.73 31.30,13.52 31.21,13.68 C 31.13,13.85 31.5,14.81 31.5,14.81 L 31.53,14.81 C 31.52,14.78 31.5,14.65 31.5,14.65 C 31.95,14.62 33.01,14.31 35,12.78 C 36.98,11.25 36.75,10.12 36.75,10.12 L 37.21,10.21 L 37.15,9.25 L 36.87,9.15 z" id="p3434" style="opacity:1;fill:#edc18d;fill-opacity:0.90;fill-rule:evenodd;stroke:none;display:inline"/>
<path d="M 36.78,9.15 L 36.78,10.12 L 39.78,10.78 L 41.06,12.53 L 41.07,11.96 C 41.07,11.96 40.11,9.79 39.79,9.63 C 39.49,9.49 36.78,9.15 36.78,9.15 z" id="p3431" style="opacity:1;fill:#0c0400;fill-opacity:0.90;fill-rule:evenodd;stroke:none;display:inline"/>
<path d="M 34.03,8.56 C 32.86,8.48 31.42,9.43 30.90,10.06 C 30.56,10.48 30.32,11.00 30.46,11.5 C 30.76,10.47 32.23,9.31 33.68,9.31 C 34.14,9.31 34.59,9.41 35,9.68 C 35.08,9.74 35.27,9.93 35.32,10.01 C 35.79,9.38 34.94,8.62 34.03,8.56 z" id="p3436" style="opacity:1;fill:#f4c493;fill-opacity:0.76;fill-rule:evenodd;stroke:none;display:inline"/>
<path d="M 40.83,13.51 C 40.26,13.49 39.70,13.69 39.31,13.90 C 38.40,14.39 37.26,15.62 37.12,16.06 C 37.05,16.29 37.09,16.57 37.34,16.78 C 38.14,14.86 39.75,14.11 41.65,14.46 C 41.83,14.56 42.18,15.04 42.28,15.16 C 42.39,13.80 41.39,13.53 40.83,13.51 z" id="p3440" style="opacity:1;fill:#f4c493;fill-opacity:0.76;fill-rule:evenodd;stroke:none;display:inline"/>
<path d="M 33.5,13 C 33.08,13.22 32.69,13.42 32.34,13.53 C 31.64,13.73 31.16,13.52 31.08,13.68 C 31.00,13.85 31.28,14.85 31.28,14.85 C 32.23,14.46 33.33,13.87 34.21,13.34 C 33.85,13.05 33.64,13.08 33.5,13 z" id="p3458" style="opacity:1;fill:#230c02;fill-opacity:0.92;fill-rule:evenodd;stroke:none;display:inline"/>
<path d="M 34.28,12.56 C 33.74,12.91 33.19,13.21 32.68,13.40 C 32.70,13.58 32.78,13.83 32.90,14.15 C 33.45,13.87 34.11,13.46 35,12.78 C 35.04,12.74 35.08,12.72 35.12,12.68 C 34.82,12.65 34.50,12.62 34.28,12.56 z" id="p3466" style="opacity:1;fill:#812b00;fill-opacity:0.73;fill-rule:evenodd;stroke:none;display:inline"/>
<path d="M 36.87,9.15 C 36.87,9.15 36.60,9.27 36.56,9.46 C 36.45,9.92 36.20,10.70 35.47,11.55 C 34.83,12.30 33.33,13.10 32.34,13.53 C 31.99,13.68 31.49,13.70 31.22,13.69" id="p3464" style="opacity:1;fill:none;fill-opacity:0.90;fill-rule:evenodd;stroke:#e8a75b;stroke-width:0.2;stroke-linecap:round;stroke-linejoin:miter;stroke-miterlimit:4;stroke-dasharray:none;stroke-opacity:0.99;display:inline"/>
<path d="M 41.06,12.53 L 41.07,11.96 C 41.07,11.96 40.11,9.79 39.79,9.63 C 39.49,9.49 36.78,9.15 36.78,9.15" id="p3472" style="opacity:1;fill:none;fill-opacity:0.90;fill-rule:evenodd;stroke:#6d4a21;stroke-width:0.2;stroke-linecap:round;stroke-linejoin:miter;stroke-miterlimit:4;stroke-dasharray:none;stroke-opacity:0.99;display:inline"/>
<path d="M 34.03,8.56 C 33.73,8.54 33.43,8.60 33.12,8.68 C 33.12,8.83 33.13,9.04 33.09,9.37 C 33.29,9.33 33.48,9.31 33.68,9.31 C 34.14,9.31 34.59,9.41 35,9.68 C 35.08,9.74 35.26,9.92 35.31,10 C 35.78,9.36 34.93,8.62 34.03,8.56 z" id="p3474" style="fill:#220800;fill-opacity:0.92;fill-rule:evenodd;stroke:none;"/>
<path d="M 34.03,8.56 C 33.52,8.52 32.97,8.70 32.46,8.93 C 32.49,9.12 32.52,9.30 32.56,9.53 C 32.92,9.39 33.30,9.31 33.68,9.31 C 33.87,9.31 34.06,9.33 34.25,9.37 C 34.24,9.11 34.24,8.86 34.21,8.59 C 34.15,8.58 34.09,8.56 34.03,8.56 z" id="p3479" style="fill:#812b00;fill-opacity:0.73;fill-rule:evenodd;stroke:none;"/>
<path d="M 32.22,9.04 C 31.65,9.35 31.16,9.74 30.90,10.06 C 30.56,10.48 30.32,11.00 30.46,11.5" id="p3490" style="opacity:1;fill:none;fill-opacity:0.90;fill-rule:evenodd;stroke:#f5d4ae;stroke-width:0.2;stroke-linecap:round;stroke-linejoin:miter;marker:none;stroke-miterlimit:4;stroke-dasharray:none;stroke-dashoffset:0;stroke-opacity:0.99;visibility:visible;display:inline;overflow:visible;enable-background:accumulate"/>
<path d="M 35.32,10.01 C 35.79,9.38 34.94,8.62 34.03,8.56" id="p3492" style="opacity:1;fill:none;fill-opacity:0.90;fill-rule:evenodd;stroke:#6d4a21;stroke-width:0.2;stroke-linecap:round;stroke-linejoin:miter;marker:none;stroke-miterlimit:4;stroke-dasharray:none;stroke-dashoffset:0;stroke-opacity:0.99;visibility:visible;display:inline;overflow:visible;enable-background:accumulate"/>
<path d="M 40.84,13.5 C 40.59,13.49 40.32,13.53 40.09,13.59 C 40.09,13.81 40.12,14.07 40.18,14.43 C 40.64,14.37 41.14,14.37 41.65,14.46 C 41.83,14.56 42.18,15.04 42.28,15.15 C 42.39,13.79 41.40,13.51 40.84,13.5 z" id="p3496" style="fill:#220800;fill-opacity:0.92;fill-rule:evenodd;stroke:none;"/>
<path d="M 40.84,13.5 C 40.27,13.48 39.70,13.69 39.31,13.90 C 39.15,13.98 38.97,14.09 38.81,14.21 C 38.89,14.39 39.00,14.55 39.12,14.75 C 39.64,14.48 40.24,14.36 40.87,14.37 C 40.88,14.05 40.92,13.91 40.93,13.53 C 40.90,13.52 40.87,13.50 40.84,13.5 z" id="p3494" style="fill:#64200b;fill-opacity:0.86;fill-rule:evenodd;stroke:none;"/>
<path d="M 39.31,13.90 C 38.40,14.39 37.26,15.62 37.12,16.06 C 37.05,16.29 37.09,16.57 37.34,16.78" id="p3504" style="opacity:1;fill:none;fill-opacity:0.90;fill-rule:evenodd;stroke:#e8a75b;stroke-width:0.2;stroke-linecap:round;stroke-linejoin:miter;marker:none;stroke-miterlimit:4;stroke-dasharray:none;stroke-dashoffset:0;stroke-opacity:0.99;visibility:visible;display:inline;overflow:visible;enable-background:accumulate"/>
<path d="M 42.28,15.16 C 42.39,13.80 41.39,13.53 40.83,13.51" id="p3506" style="opacity:1;fill:none;fill-opacity:0.90;fill-rule:evenodd;stroke:#6d4a21;stroke-width:0.2;stroke-linecap:round;stroke-linejoin:miter;marker:none;stroke-miterlimit:4;stroke-dasharray:none;stroke-dashoffset:0;stroke-opacity:0.99;visibility:visible;display:inline;overflow:visible;enable-background:accumulate"/>
<path d="M 41.40,18.31 C 41.36,18.09 41.29,17.90 41.21,17.84 C 40.99,17.66 41.22,17.86 37.93,18.31 C 34.64,18.75 31.35,17.87 29.93,15.87 C 29.16,14.79 29.01,13.15 29.03,11.87" id="p3516" style="opacity:1;fill:none;fill-opacity:0.90;fill-rule:evenodd;stroke:#e8a75b;stroke-width:0.2;stroke-linecap:round;stroke-linejoin:miter;marker:none;stroke-miterlimit:4;stroke-dasharray:none;stroke-dashoffset:0;stroke-opacity:0.99;visibility:visible;display:inline;overflow:visible;enable-background:accumulate"/>
<path d="M 30.41,17.70 C 31.16,18.08 31.43,19.01 31.43,19.01" id="p3529" style="opacity:1;fill:none;fill-rule:evenodd;stroke:#fef9d5;stroke-width:0.40;stroke-linecap:round;stroke-linejoin:miter;stroke-miterlimit:4;stroke-dasharray:none;stroke-opacity:0.66;display:inline"/>
<path d="M 35.46,7.43 C 31.99,7.62 29.37,9.90 29.03,11.87 C 28.53,14.73 29.52,16.41 29.03,16.81 C 29.01,16.82 28.42,17.33 28.37,17.37 C 27.97,17.19 27.60,17.25 27.27,17.35 C 26.69,17.54 26.04,18.21 26.13,18.62 C 26.08,18.66 25.94,18.79 25.88,18.83 C 25.68,18.81 25.41,18.86 25.15,19 C 24.61,19.28 24.34,19.84 24.46,20.68 C 18.57,25.70 6.53,36.02 6.53,36.02 C 6.53,36.02 5.88,36.93 7.40,38.49 C 8.13,39.24 8.77,39.64 9.25,39.65 L 10.03,40.46 L 10.53,40.12 L 10.56,40.81 L 11.75,41.71 L 12.15,41.40 L 12.15,42.06 L 13.21,43.15 L 16.90,40.25 L 16.78,39.03 L 13.40,36.21 C 16.69,33.31 22.70,27.96 27,24.18 C 27.44,24.40 27.78,24.38 28.13,24.26 C 28.75,24.07 29.31,23.54 29.27,22.99 C 29.32,22.95 29.38,22.87 29.43,22.83 C 29.70,22.97 30.11,22.76 30.41,22.52 C 30.99,22.05 31.29,21.54 31.10,20.61 C 31.30,20.44 31.71,20.10 31.78,20.06 C 32.76,19.37 32.66,19.56 34.93,19.56 C 37.20,19.56 40.05,19.39 41.75,18.09 C 44.10,16.28 45.53,11.99 40.59,8.71 C 38.88,7.58 37.04,7.35 35.46,7.43 z M 33.68,9.31 C 34.14,9.31 34.60,9.40 35,9.68 C 36.15,10.50 31.78,13.80 30.65,12.5 C 29.70,11.40 31.70,9.31 33.68,9.31 z M 36.75,10.12 L 39.78,10.78 L 41,12.59 C 41,12.59 39.36,12.80 37.62,14.09 C 35.88,15.38 35.84,16.99 35.84,17 C 35.84,17 32.36,16.33 32.09,16.15 C 31.82,15.97 31.5,14.65 31.5,14.65 C 31.95,14.62 33.01,14.31 35,12.78 C 36.98,11.25 36.75,10.12 36.75,10.12 z M 40.46,14.25 C 40.59,14.23 40.72,14.24 40.84,14.25 C 41.12,14.26 41.39,14.33 41.65,14.46 C 43.81,15.57 39.53,18.55 37.5,17.25 C 36.70,16.74 38.59,14.45 40.46,14.25 z" id="stroke01" style="fill:none;fill-opacity:1;fill-rule:evenodd;stroke:#2c1f08;stroke-width:0.5;stroke-linecap:butt;stroke-linejoin:bevel;stroke-miterlimit:4;stroke-dasharray:none;stroke-opacity:1;display:inline"/>
</g>
</svg>
