<?xml version="1.0" encoding="UTF-8" standalone="no"?>
<!DOCTYPE svg PUBLIC "-//W3C//DTD SVG 1.0//EN" "http://www.w3.org/TR/2001/REC-SVG-20010904/DTD/svg10.dtd">
<svg xmlns:svg="http://www.w3.org/2000/svg" xmlns="http://www.w3.org/2000/svg" version="1.0" width="100%" height="100%" viewBox="0 0 48 48" id="_orange01" style="display:inline">
<defs id="defs2385"/>
<g id="orange01" style="display:inline">
<path d="M 35.34,6.87 C 34.46,6.91 33.61,7.17 32.9,7.75 C 31.77,8.66 31.26,10.1 31.31,11.59 C 31.34,12.61 31.66,13.67 32.18,14.68 C 32.16,14.7 32.13,14.69 32.12,14.71 C 32.04,14.91 31.46,15.38 31,15.56 C 30.53,15.74 29.82,15.72 29.53,15.93 C 29.23,16.14 29.18,16.49 29.18,16.59 C 29.18,16.69 29.12,16.8 28.96,16.9 C 28.81,17 28.78,16.96 28.59,16.81 C 28.39,16.65 28.27,16.77 28.12,16.87 C 27.97,16.97 27.68,17.08 27.68,17.28 C 27.68,17.47 27.84,17.62 27.84,17.62 L 4.09,34.68 C 4.09,34.68 3.7,34.94 3.62,35.18 C 3.54,35.42 3.64,35.56 3.68,35.68 C 3.72,35.81 4.54,37.17 4.75,37.31 C 5.18,37.46 5.53,37.12 5.53,37.12 L 7.18,35.93 C 7.71,36.69 8.84,38.33 9.28,38.84 C 9.83,39.47 10.29,40.09 10.4,40.09 C 10.51,40.09 11.15,39.6 11.15,39.46 C 11.15,39.33 10.32,38.52 10.15,38.25 C 9.99,37.97 9.8,37.81 10,37.62 C 10.19,37.43 10.45,37.25 10.59,37.31 C 10.73,37.36 11.36,38.35 11.56,38.43 C 11.75,38.52 12.5,37.89 12.5,37.78 C 12.5,37.67 11.98,37.27 12.09,37.03 C 12.2,36.78 12.76,36.44 12.87,36.5 C 12.98,36.55 13.33,37.18 13.46,37.18 C 13.6,37.18 14.34,36.72 14.37,36.56 C 14.4,36.39 13.82,36.01 13.9,35.65 C 13.98,35.29 14.47,35.16 14.53,35.21 C 14.58,35.27 14.75,35.34 14.75,35.34 C 14.75,35.34 15.08,35.9 15.25,35.9 C 15.41,35.9 16.13,35.35 16.18,35.21 C 16.24,35.08 15.09,34.17 15.31,33.81 C 15.53,33.45 15.95,33.32 16.09,33.4 C 16.23,33.48 17.23,35.09 17.34,35.09 C 17.45,35.09 18.15,34.54 18.15,34.4 C 18.15,34.26 17.77,33.96 17.5,33.5 C 17.22,33.03 16.05,31.58 15.78,31.09 C 15.67,30.89 15.41,30.55 15.15,30.21 L 29.46,19.96 C 29.46,19.96 29.62,20.18 29.71,20.18 C 29.81,20.18 30.07,20.09 30.21,20 C 30.35,19.9 30.53,19.72 30.53,19.65 C 30.53,19.58 30.37,19.25 30.4,19.12 C 30.43,18.99 30.72,18.83 30.81,18.87 C 30.89,18.91 30.96,19.06 31.06,19.06 C 31.16,19.06 31.58,18.79 31.62,18.68 C 31.66,18.57 32.01,17.86 32.28,17.65 C 32.54,17.44 33.3,16.64 33.5,16.78 C 33.53,16.8 33.55,16.75 33.59,16.68 C 34.57,17.7 35.72,18.4 36.9,18.71 C 38.32,19.1 39.83,18.91 40.96,18 C 42.1,17.08 42.58,15.67 42.53,14.18 C 42.48,12.7 41.89,11.09 40.81,9.71 C 39.73,8.34 38.35,7.44 36.93,7.06 C 36.4,6.91 35.86,6.85 35.34,6.87 z M 35.71,8.09 C 35.98,8.11 36.24,8.14 36.53,8.21 C 37.67,8.52 38.9,9.32 39.84,10.53 C 40.78,11.73 41.27,13.11 41.31,14.31 C 41.35,15.51 40.96,16.45 40.21,17.06 C 39.46,17.66 38.42,17.87 37.28,17.56 C 36.13,17.25 34.94,16.45 34,15.25 C 33.05,14.04 32.57,12.66 32.53,11.46 C 32.49,10.26 32.87,9.29 33.62,8.68 C 34.18,8.23 34.91,8.03 35.71,8.09 z" id="p2481" style="fill:#6b5e55;fill-opacity:1;fill-rule:evenodd;stroke:none"/>
<path d="M 15.15,29.37 C 15.15,29.37 11.97,30.42 10.09,30.37 L 4.09,34.68 C 4.09,34.68 3.7,34.94 3.62,35.18 C 3.54,35.42 3.64,35.56 3.68,35.68 C 3.72,35.81 4.54,37.17 4.75,37.31 C 5.18,37.46 5.53,37.12 5.53,37.12 L 7.18,35.93 C 7.71,36.69 8.84,38.33 9.28,38.84 C 9.83,39.47 10.29,40.09 10.4,40.09 C 10.51,40.09 11.15,39.6 11.15,39.46 C 11.15,39.33 10.32,38.52 10.15,38.25 C 9.99,37.97 9.8,37.81 10,37.62 C 10.19,37.43 10.45,37.25 10.59,37.31 C 10.73,37.36 11.36,38.35 11.56,38.43 C 11.75,38.52 12.5,37.89 12.5,37.78 C 12.5,37.67 11.98,37.27 12.09,37.03 C 12.2,36.78 12.76,36.44 12.87,36.5 C 12.98,36.55 13.33,37.18 13.46,37.18 C 13.6,37.18 14.34,36.72 14.37,36.56 C 14.4,36.39 13.82,36.01 13.9,35.65 C 13.98,35.29 14.47,35.16 14.53,35.21 C 14.58,35.27 14.75,35.34 14.75,35.34 C 14.75,35.34 15.08,35.9 15.25,35.9 C 15.41,35.9 16.13,35.35 16.18,35.21 C 16.24,35.08 15.09,34.17 15.31,33.81 C 15.53,33.45 15.95,33.32 16.09,33.4 C 16.23,33.48 17.23,35.09 17.34,35.09 C 17.45,35.09 18.15,34.54 18.15,34.4 C 18.15,34.26 17.77,33.96 17.5,33.5 C 17.22,33.03 16.05,31.58 15.78,31.09 C 15.67,30.89 15.41,30.55 15.15,30.21 L 15.28,30.12 C 15.05,29.72 15.15,29.37 15.15,29.37 z" id="p3299" style="fill:#31160b;fill-opacity:0.37;fill-rule:evenodd;stroke:none;display:inline"/>
<path d="M 33,15.73 L 4.15,36.5 C 4.39,36.87 4.64,37.24 4.75,37.31 C 5.18,37.46 5.53,37.12 5.53,37.12 L 7.18,35.93 C 7.49,36.37 7.97,37.04 8.43,37.68 L 16.31,31.84 C 16.1,31.56 15.86,31.24 15.78,31.09 C 15.67,30.89 15.41,30.55 15.15,30.21 L 29.46,19.96 C 29.46,19.96 29.62,20.18 29.71,20.18 C 29.81,20.18 30.07,20.09 30.21,20 C 30.35,19.9 30.53,19.72 30.53,19.65 C 30.53,19.58 30.37,19.25 30.4,19.12 C 30.43,18.99 30.72,18.83 30.81,18.87 C 30.89,18.91 30.96,19.06 31.06,19.06 C 31.16,19.06 31.58,18.79 31.62,18.68 C 31.66,18.57 32.01,17.86 32.28,17.65 C 32.54,17.44 33.39,16.41 33.59,16.55 C 33.28,16.08 33.23,16.15 33,15.73 z" id="p3267" style="fill:#2a1a14;fill-opacity:0.76;fill-rule:evenodd;stroke:none;display:inline"/>
<path d="M 3.8,35.71 L 28.35,17.96" id="p3270" style="fill:none;fill-rule:evenodd;stroke:#9c928d;stroke-width:0.30;stroke-linecap:butt;stroke-linejoin:miter;stroke-miterlimit:4;stroke-dasharray:none;stroke-opacity:0.43;display:inline"/>
<path d="M 3.91,36.03 C 3.91,36.03 4.63,36.06 5.01,35.75 C 5.38,35.44 4.72,34.84 5.13,34.62 C 5.54,34.4 6.1,34.81 6.2,35.03 C 6.29,35.25 6.79,34.28 6.98,34.59 C 7.17,34.9 7.45,34.72 7.42,34.09 C 7.39,33.46 6.88,34.4 6.54,34.25 C 6.2,34.09 5.79,33.59 5.79,33.59 C 5.79,33.59 4.82,34.06 4.82,34.34 C 4.82,34.62 4.72,34.97 4.41,34.78 C 4.1,34.59 3.72,35.25 3.72,35.25 L 3.91,36.03 z" id="p3326" style="fill:#66471b;fill-opacity:0.57;fill-rule:evenodd;stroke:none;display:inline"/>
<path d="M 10.35,31.89 L 16.69,27.44" id="p3273" style="fill:none;fill-rule:evenodd;stroke:#878181;stroke-width:0.5;stroke-linecap:round;stroke-linejoin:miter;stroke-miterlimit:4;stroke-dasharray:none;stroke-opacity:0.47;display:inline"/>
<path d="M 15.96,27.88 L 28.72,18.76" id="p3275" style="fill:none;fill-rule:evenodd;stroke:#ece9e8;stroke-width:0.40;stroke-linecap:round;stroke-linejoin:miter;stroke-miterlimit:4;stroke-dasharray:none;stroke-opacity:0.21;display:inline"/>
<path d="M 15.68,29.59 L 5.03,37.34 C 5.32,37.32 5.53,37.12 5.53,37.12 L 7.18,35.93 C 7.24,36.02 7.36,36.17 7.43,36.28 L 15.34,30.46 C 15.27,30.37 15.23,30.31 15.15,30.21 L 15.71,29.81 L 15.68,29.59 z" id="p3279" style="fill:#998a83;fill-opacity:0.28;fill-rule:evenodd;stroke:none;display:inline"/>
<path d="M 17.68,33.71 L 16.81,34.43 C 17.05,34.78 17.29,35.09 17.34,35.09 C 17.45,35.09 18.15,34.54 18.15,34.4 C 18.15,34.29 17.92,34.03 17.68,33.71 z M 15.75,34.65 L 14.78,35.4 C 14.83,35.49 15.1,35.9 15.25,35.9 C 15.41,35.9 16.13,35.35 16.18,35.21 C 16.21,35.15 15.98,34.91 15.75,34.65 z M 14,36.03 L 13.06,36.75 C 13.2,36.95 13.37,37.18 13.46,37.18 C 13.6,37.18 14.34,36.72 14.37,36.56 C 14.39,36.45 14.14,36.26 14,36.03 z M 12.12,37.18 L 11.12,37.93 C 11.3,38.17 11.47,38.4 11.56,38.43 C 11.75,38.52 12.5,37.89 12.5,37.78 C 12.5,37.69 12.18,37.42 12.12,37.18 z M 10.75,38.93 L 9.9,39.59 C 10.14,39.88 10.34,40.09 10.4,40.09 C 10.51,40.09 11.15,39.6 11.15,39.46 C 11.15,39.4 10.96,39.17 10.75,38.93 z" id="p3283" style="fill:#c8c0bc;fill-opacity:0.62;fill-rule:evenodd;stroke:none;display:inline"/>
<path d="M 8.46,37.65 L 16.3,31.86" id="p3312" style="fill:none;fill-rule:evenodd;stroke:#7a6059;stroke-width:0.30;stroke-linecap:butt;stroke-linejoin:miter;stroke-miterlimit:4;stroke-dasharray:none;stroke-opacity:0.70;display:inline"/>
<path d="M 7.38,36.12 L 15.25,30.24 L 15.48,30.81 L 7.75,36.72 L 7.38,36.12 z" id="p3314" style="fill:#1b100c;fill-opacity:0.63;fill-rule:evenodd;stroke:none;display:inline"/>
<path d="M 10.39,36.16 L 12.4,34.75" id="p3324" style="fill:none;fill-rule:evenodd;stroke:#ae9595;stroke-width:0.30;stroke-linecap:round;stroke-linejoin:miter;stroke-miterlimit:4;stroke-dasharray:none;stroke-opacity:0.73;display:inline"/>
<path d="M 13.11,32.79 C 13.11,33.14 13.3,33.33 13.54,33.17 C 13.78,33.01 13.78,32.63 13.78,32.63 L 13.11,32.79 z" id="p3416" style="fill:#473c20;fill-opacity:0.38;fill-rule:evenodd;stroke:none;display:inline"/>
<path d="M 8.83,32.43 C 8.83,32.81 9.33,33.12 9.48,32.77 C 9.64,32.43 9.39,32.3 9.39,32.3 L 8.83,32.43 z" id="p3328" style="fill:#66471b;fill-opacity:0.57;fill-rule:evenodd;stroke:none;display:inline"/>
<path d="M 27.85,17.56 C 28.84,18.46 29.34,19.55 29.53,19.99" id="p3333" style="fill:none;fill-rule:evenodd;stroke:#392215;stroke-width:0.30;stroke-linecap:butt;stroke-linejoin:miter;stroke-miterlimit:4;stroke-dasharray:none;stroke-opacity:0.83;display:inline"/>
<path d="M 29.28,16.52 C 29.35,17.11 28.66,16.81 28.43,16.86 C 29.26,17.49 29.78,18.27 30.32,19.25 C 30.35,19.13 30.81,18.79 30.89,18.84 C 30.85,18.24 29.84,17.16 29.28,16.52 z" id="p3335" style="fill:#39221a;fill-opacity:0.86;fill-rule:evenodd;stroke:none;display:inline"/>
<path d="M 29.74,18.2 C 29.74,18.32 29.63,18.43 29.51,18.43 C 29.39,18.43 29.29,18.32 29.29,18.2 C 29.29,18.07 29.39,17.96 29.51,17.96 C 29.63,17.96 29.74,18.07 29.74,18.2 z" id="p3339" style="fill:#f1edd1;fill-opacity:0.86;fill-rule:evenodd;stroke:none;marker:none;visibility:visible;display:inline;overflow:visible;enable-background:accumulate"/>
<path d="M 30.41,17.37 C 30.57,17.61 30.64,17.84 30.57,17.89 C 30.49,17.94 30.30,17.78 30.15,17.54 C 29.99,17.30 29.92,17.07 29.99,17.02 C 30.06,16.97 30.25,17.13 30.41,17.37 z" id="p3342" style="fill:#f1edd1;fill-opacity:0.86;fill-rule:evenodd;stroke:none;marker:none;visibility:visible;display:inline;overflow:visible;enable-background:accumulate"/>
<path d="M 30.03,17.26 C 29.65,16.64 29.54,16.28 29.74,16.19 C 29.93,16.1 30.47,16.14 30.67,16.1 C 30.88,16.06 31.09,16 31.11,16.22 C 31.12,16.44 31.38,17.09 31.46,17.22 C 31.55,17.34 31.12,16.78 30.89,16.7 C 30.66,16.63 30.76,16.92 30.57,16.63 C 30.38,16.33 30.45,16.33 29.91,16.42 C 29.38,16.51 30.06,16.83 30.06,16.9 C 30.06,16.96 29.98,16.99 30.03,17.26 z" id="p3372" style="fill:#372e2c;fill-opacity:0.70;fill-rule:evenodd;stroke:none;display:inline"/>
<path d="M 30.19,16.70 C 30.09,16.77 29.94,16.71 29.85,16.57 C 29.76,16.44 29.77,16.28 29.87,16.21 C 29.96,16.15 30.12,16.20 30.21,16.34 C 30.30,16.47 30.29,16.64 30.19,16.70 z" id="p3344" style="fill:#f1edd1;fill-opacity:0.86;fill-rule:evenodd;stroke:none;marker:none;visibility:visible;display:inline;overflow:visible;enable-background:accumulate"/>
<path d="M 28.23,18.99 C 28.38,19.28 28.87,19.06 28.73,18.86 C 28.6,18.65 28.31,18.65 28.23,18.99 z" id="p3346" style="fill:#d1b1a0;fill-opacity:0.57;fill-rule:evenodd;stroke:none;display:inline"/>
<path d="M 31.02,17.21 C 31.02,17.30 30.95,17.37 30.86,17.37 C 30.77,17.37 30.71,17.30 30.71,17.21 C 30.71,17.11 30.77,17.04 30.86,17.04 C 30.95,17.04 31.02,17.11 31.02,17.21 z" id="p3348" style="fill:#f1edd1;fill-opacity:0.86;fill-rule:evenodd;stroke:none;marker:none;visibility:visible;display:inline;overflow:visible;enable-background:accumulate"/>
<path d="M 30.51,16.53 C 30.51,16.58 30.46,16.63 30.42,16.63 C 30.37,16.63 30.33,16.58 30.33,16.53 C 30.33,16.47 30.37,16.43 30.42,16.43 C 30.46,16.43 30.51,16.47 30.51,16.53 z" id="p3350" style="fill:#f1edd1;fill-opacity:0.86;fill-rule:evenodd;stroke:none;marker:none;visibility:visible;display:inline;overflow:visible;enable-background:accumulate"/>
<path d="M 28.71,20.4 C 28.42,20.39 28.09,20.43 27.9,20.5 C 27.53,20.62 17.18,27.96 17.18,27.96 C 17.18,27.96 15.95,28.82 15.31,29.4 C 14.97,29.71 15.02,29.91 15.28,30.12 L 28.81,20.43 C 28.77,20.43 28.75,20.4 28.71,20.4 z" id="p3360" style="fill:#89827c;fill-opacity:0.31;fill-rule:evenodd;stroke:none;display:inline"/>
<path d="M 27.84,17.62 L 27.12,18.15 C 27.22,18.27 27.37,18.36 27.65,18.43 C 28.76,18.7 28.82,18.98 28.81,19.21 C 28.79,19.45 24.54,22.47 23.43,23.46 C 22.85,23.98 22.58,24.49 22.5,24.96 L 29.46,19.96 C 29.46,19.96 29.62,20.18 29.71,20.18 C 29.81,20.18 30.07,20.09 30.21,20 C 30.35,19.9 30.53,19.72 30.53,19.65 C 30.53,19.58 30.37,19.25 30.4,19.12 C 30.25,19.04 30.15,18.96 30.06,18.93 C 29.86,18.87 29.27,19.4 29.12,19.09 C 28.97,18.78 28.58,18.31 28.31,17.96 C 28.21,17.83 28.03,17.73 27.84,17.62 z" id="p3363" style="fill:#af7356;fill-opacity:0.17;fill-rule:evenodd;stroke:none;display:inline"/>
<path d="M 31.89,16.49 C 31.78,16.32 31.95,16.27 32.04,16.21 C 32.13,16.14 32.21,16.26 32.25,16.21 C 32.28,16.15 32.14,16.06 32.3,15.95 C 32.45,15.83 32.49,16.09 32.41,16.15 C 32.34,16.22 32.23,16.22 32.22,16.24 C 32.21,16.27 32.04,16.61 31.89,16.49 z" id="p3375" style="fill:#fefaf7;fill-opacity:0.91;fill-rule:evenodd;stroke:none;display:inline"/>
<path d="M 35.34,6.87 C 34.46,6.91 33.61,7.17 32.9,7.75 C 32.45,8.11 32.07,8.55 31.81,9.06 C 33.65,6.9 35.14,7.14 36.12,7.25 C 37.1,7.35 40.69,8.84 42,13.18 C 43.3,17.53 38.82,18.51 38.5,18.37 C 38.33,18.3 37.87,17.94 37.4,17.59 C 37.39,17.58 37.38,17.57 37.37,17.56 C 37.34,17.55 37.31,17.57 37.28,17.56 C 36.13,17.25 34.94,16.45 34,15.25 C 33.05,14.04 32.57,12.66 32.53,11.46 C 32.49,10.26 32.87,9.29 33.62,8.68 C 34.18,8.23 34.91,8.03 35.71,8.09 C 35.98,8.11 36.24,8.14 36.53,8.21 C 37.67,8.52 38.9,9.32 39.84,10.53 C 40.31,11.13 40.66,11.79 40.9,12.43 C 40.81,11.73 40.56,10.94 39.87,10.15 C 38.53,8.63 35.45,6.27 33.03,8.37 C 30.6,10.47 32.85,14.53 33.65,15.4 C 34.45,16.27 36.45,17.42 36.34,17.71 C 36.23,18 36.05,18.26 36.31,18.37 C 36.47,18.44 37.17,18.6 37.65,18.87 C 38.83,19.02 40.03,18.75 40.96,18 C 42.1,17.08 42.58,15.67 42.53,14.18 C 42.48,12.7 41.89,11.09 40.81,9.71 C 39.73,8.34 38.35,7.44 36.93,7.06 C 36.4,6.91 35.86,6.85 35.34,6.87 z" id="p3378" style="fill:#14100e;fill-opacity:0.65;fill-rule:evenodd;stroke:none;display:inline"/>
<path d="M 35.8,17.65 C 33.87,16.2 33.1,15.58 32.12,13.14" id="p3387" style="fill:none;fill-rule:evenodd;stroke:#d0d0d0;stroke-width:0.30;stroke-linecap:round;stroke-linejoin:miter;stroke-miterlimit:4;stroke-dasharray:none;stroke-opacity:0.65;display:inline"/>
<path d="M 30.77,16.53 C 31.34,16.28 32.32,15.52 32.45,15.43 C 32.59,15.34 32.51,15.05 32.18,15.25 C 31.86,15.46 30.84,16.18 30.68,16.25 C 30.52,16.32 30.65,16.55 30.77,16.53 z" id="p3409" style="fill:#453c38;fill-opacity:0.67;fill-rule:evenodd;stroke:none;display:inline"/>
<path d="M 41.43,10.65 C 41.4,10.97 41.41,11.38 41.5,11.84 C 41.71,12.97 41.87,14.49 41.65,13.84 C 41.46,13.27 41.37,11.79 40.31,11.21 C 40.94,12.24 41.27,13.33 41.31,14.31 C 41.35,15.51 40.96,16.45 40.21,17.06 C 39.46,17.66 38.42,17.87 37.28,17.56 C 37.22,17.54 37.15,17.51 37.09,17.5 C 37.06,17.82 36.97,18.46 36.68,18.46 C 36.82,18.51 37.36,18.66 37.62,18.87 C 38.81,19.02 40.02,18.76 40.96,18 C 41.03,17.94 41.09,17.89 41.15,17.84 C 41.1,17.7 41.03,17.59 40.96,17.56 C 40.75,17.45 40.82,16.96 41.15,16.34 C 41.48,15.72 42.09,13.75 42.09,14.4 C 42.09,14.71 42.18,15.35 42.37,15.68 C 42.48,15.2 42.54,14.7 42.53,14.18 C 42.49,13.02 42.11,11.79 41.43,10.65 z M 32.06,14.81 C 32,14.89 31.91,14.98 31.78,15.09 C 32.4,15.3 33.12,15.88 33.28,16.84 C 33.37,16.79 33.45,16.74 33.5,16.78 C 33.53,16.8 33.55,16.75 33.59,16.68 C 33.68,16.78 33.78,16.84 33.87,16.93 C 33.97,16.62 34.04,16.33 33.96,16.28 C 33.8,16.17 34.16,15.97 34.78,16.09 C 34.5,15.83 34.24,15.56 34,15.25 C 33.89,15.11 33.81,14.97 33.71,14.84 C 33.25,14.98 32.7,14.99 32.06,14.81 z" id="p3384" style="fill:#2b120c;fill-opacity:0.65;fill-rule:evenodd;stroke:none;display:inline"/>
<path d="M 31.65,12.12 C 31.54,11.18 31.5,10.38 31.65,9.98" id="p3389" style="fill:none;fill-opacity:1;fill-rule:evenodd;stroke:#dcdcdc;stroke-width:0.2;stroke-linecap:round;stroke-linejoin:miter;marker:none;stroke-miterlimit:4;stroke-dasharray:none;stroke-dashoffset:0;stroke-opacity:0.87;visibility:visible;display:inline;overflow:visible;enable-background:accumulate"/>
<path d="M 32.16,9.39 C 32.59,8.67 33.07,8.19 33.07,8.19" id="p3391" style="fill:none;fill-opacity:1;fill-rule:evenodd;stroke:#eeeeee;stroke-width:0.30;stroke-linecap:round;stroke-linejoin:miter;marker:none;stroke-miterlimit:4;stroke-dasharray:none;stroke-dashoffset:0;stroke-opacity:0.83;visibility:visible;display:inline;overflow:visible;enable-background:accumulate"/>
<path d="M 37.03,7.72 C 38.92,8.41 39.83,9.61 40.09,9.94 C 40.34,10.27 41.36,11.79 41.54,12.96" id="p3393" style="fill:none;fill-opacity:1;fill-rule:evenodd;stroke:#e9e9e9;stroke-width:0.30;stroke-linecap:round;stroke-linejoin:miter;marker:none;stroke-miterlimit:4;stroke-dasharray:none;stroke-dashoffset:0;stroke-opacity:0.83;visibility:visible;display:inline;overflow:visible;enable-background:accumulate"/>
<path d="M 40.13,17.84 C 42.86,15.95 41.94,13.36 41.83,12.99" id="p3395" style="fill:none;fill-opacity:1;fill-rule:evenodd;stroke:#d0d0d0;stroke-width:0.2;stroke-linecap:round;stroke-linejoin:miter;marker:none;stroke-miterlimit:4;stroke-dasharray:none;stroke-dashoffset:0;stroke-opacity:0.83;visibility:visible;display:inline;overflow:visible;enable-background:accumulate"/>
<path d="M 30.24,17.52 C 30.4,17.8 30.67,18.02 30.91,17.9 C 31.14,17.79 31.61,17.47 31.44,17.27 C 31.28,17.07 31.08,16.88 30.76,16.86 C 30.44,16.85 30.44,16.71 30.25,16.81 C 30.07,16.91 29.93,17.12 30.24,17.52 z" id="p3405" style="fill:#b8a79f;fill-opacity:0.18;fill-rule:evenodd;stroke:none"/>
<path d="M 30.91,18.96 C 30.91,18.58 30.89,18.14 31.46,17.79 C 32.03,17.43 32.49,17.18 32.27,17.55 C 32.05,17.92 31.44,18.86 31.44,18.86 L 30.91,18.96 z" id="p3407" style="fill:#dfb6a3;fill-opacity:0.18;fill-rule:evenodd;stroke:none"/>
<path d="M 13.98,32.71 C 13.98,32.80 13.90,32.88 13.80,32.88 C 13.70,32.88 13.63,32.80 13.63,32.71 C 13.63,32.61 13.70,32.53 13.80,32.53 C 13.90,32.53 13.98,32.61 13.98,32.71 z" id="p3426" style="fill:#8e773f;fill-opacity:0.18;fill-rule:evenodd;stroke:none;marker:none;visibility:visible;display:inline;overflow:visible;enable-background:accumulate"/>
<path d="M 10.02,36.06 C 10.02,36.18 9.91,36.28 9.77,36.28 C 9.63,36.28 9.53,36.18 9.53,36.06 C 9.53,35.93 9.63,35.83 9.77,35.83 C 9.91,35.83 10.02,35.93 10.02,36.06 z" id="p3428" style="fill:#8e773f;fill-opacity:0.18;fill-rule:evenodd;stroke:none;marker:none;visibility:visible;display:inline;overflow:visible;enable-background:accumulate"/>
<path d="M 15.66,31.77 C 15.66,31.94 15.52,32.08 15.36,32.08 C 15.20,32.08 15.07,31.94 15.07,31.77 C 15.07,31.59 15.20,31.45 15.36,31.45 C 15.52,31.45 15.66,31.59 15.66,31.77 z" id="p3430" style="fill:#8e773f;fill-opacity:0.18;fill-rule:evenodd;stroke:none;marker:none;visibility:visible;display:inline;overflow:visible;enable-background:accumulate"/>
<path d="M 35.34,6.87 C 34.46,6.91 33.61,7.17 32.9,7.75 C 31.77,8.66 31.26,10.1 31.31,11.59 C 31.34,12.61 31.66,13.67 32.18,14.68 C 32.16,14.7 32.13,14.69 32.12,14.71 C 32.04,14.91 31.46,15.38 31,15.56 C 30.53,15.74 29.82,15.72 29.53,15.93 C 29.23,16.14 29.18,16.49 29.18,16.59 C 29.18,16.69 29.12,16.8 28.96,16.9 C 28.81,17 28.78,16.96 28.59,16.81 C 28.39,16.65 28.27,16.77 28.12,16.87 C 27.97,16.97 27.68,17.08 27.68,17.28 C 27.68,17.47 27.84,17.62 27.84,17.62 L 4.09,34.68 C 4.09,34.68 3.7,34.94 3.62,35.18 C 3.54,35.42 3.64,35.56 3.68,35.68 C 3.72,35.81 4.54,37.17 4.75,37.31 C 5.18,37.46 5.53,37.12 5.53,37.12 L 7.18,35.93 C 7.71,36.69 8.84,38.33 9.28,38.84 C 9.83,39.47 10.29,40.09 10.4,40.09 C 10.51,40.09 11.15,39.6 11.15,39.46 C 11.15,39.33 10.32,38.52 10.15,38.25 C 9.99,37.97 9.8,37.81 10,37.62 C 10.19,37.43 10.45,37.25 10.59,37.31 C 10.73,37.36 11.36,38.35 11.56,38.43 C 11.75,38.52 12.5,37.89 12.5,37.78 C 12.5,37.67 11.98,37.27 12.09,37.03 C 12.2,36.78 12.76,36.44 12.87,36.5 C 12.98,36.55 13.33,37.18 13.46,37.18 C 13.6,37.18 14.34,36.72 14.37,36.56 C 14.4,36.39 13.82,36.01 13.9,35.65 C 13.98,35.29 14.47,35.16 14.53,35.21 C 14.58,35.27 14.75,35.34 14.75,35.34 C 14.75,35.34 15.08,35.9 15.25,35.9 C 15.41,35.9 16.13,35.35 16.18,35.21 C 16.24,35.08 15.09,34.17 15.31,33.81 C 15.53,33.45 15.95,33.32 16.09,33.4 C 16.23,33.48 17.23,35.09 17.34,35.09 C 17.45,35.09 18.15,34.54 18.15,34.4 C 18.15,34.26 17.77,33.96 17.5,33.5 C 17.22,33.03 16.05,31.58 15.78,31.09 C 15.67,30.89 15.41,30.55 15.15,30.21 L 29.46,19.96 C 29.46,19.96 29.62,20.18 29.71,20.18 C 29.81,20.18 30.07,20.09 30.21,20 C 30.35,19.9 30.53,19.72 30.53,19.65 C 30.53,19.58 30.37,19.25 30.4,19.12 C 30.43,18.99 30.72,18.83 30.81,18.87 C 30.89,18.91 30.96,19.06 31.06,19.06 C 31.16,19.06 31.58,18.79 31.62,18.68 C 31.66,18.57 32.01,17.86 32.28,17.65 C 32.54,17.44 33.3,16.64 33.5,16.78 C 33.53,16.8 33.55,16.75 33.59,16.68 C 34.57,17.7 35.72,18.4 36.9,18.71 C 38.32,19.1 39.83,18.91 40.96,18 C 42.1,17.08 42.58,15.67 42.53,14.18 C 42.48,12.7 41.89,11.09 40.81,9.71 C 39.73,8.34 38.35,7.44 36.93,7.06 C 36.4,6.91 35.86,6.85 35.34,6.87 z M 35.71,8.09 C 35.98,8.11 36.24,8.14 36.53,8.21 C 37.67,8.52 38.9,9.32 39.84,10.53 C 40.78,11.73 41.27,13.11 41.31,14.31 C 41.35,15.51 40.96,16.45 40.21,17.06 C 39.46,17.66 38.42,17.87 37.28,17.56 C 36.13,17.25 34.94,16.45 34,15.25 C 33.05,14.04 32.57,12.66 32.53,11.46 C 32.49,10.26 32.87,9.29 33.62,8.68 C 34.18,8.23 34.91,8.03 35.71,8.09 z" id="stroke01" style="fill:none;fill-opacity:1;fill-rule:evenodd;stroke:#151515;stroke-width:0.5;stroke-linecap:butt;stroke-linejoin:round;stroke-miterlimit:4;stroke-dasharray:none;stroke-opacity:1;display:inline"/>
<path d="M 38.34,11.09 C 35.87,11.09 34.16,13.2 34.46,15.75 C 34.77,18.29 37,20.4 39.46,20.4 C 41.93,20.4 43.62,18.29 43.31,15.75 C 43.23,15.14 43.05,14.56 42.78,14.03 C 42.78,14.08 42.77,14.13 42.78,14.18 C 42.79,14.63 42.77,15.07 42.68,15.5 C 42.7,15.58 42.7,15.66 42.71,15.75 C 42.99,18.03 41.45,19.84 39.37,19.84 C 37.29,19.84 35.36,18.03 35.09,15.75 C 34.81,13.46 36.32,11.65 38.4,11.65 C 39.2,11.65 39.95,11.94 40.62,12.4 C 40.5,12.1 40.35,11.82 40.18,11.53 C 39.6,11.26 38.99,11.09 38.34,11.09 z" id="p3520" style="fill:#adadad;fill-opacity:1;fill-rule:evenodd;stroke:none;marker:none;visibility:visible;display:inline;overflow:visible;enable-background:accumulate"/>
<path d="M 42.78,14.03 C 42.78,14.08 42.77,14.13 42.78,14.18 C 42.79,14.63 42.77,15.07 42.68,15.5 C 42.7,15.58 42.7,15.66 42.71,15.75 C 42.77,16.2 42.73,16.62 42.65,17.03 C 42.86,17.11 43.07,17.17 43.25,17.21 C 43.33,16.75 43.37,16.26 43.31,15.75 C 43.23,15.14 43.05,14.56 42.78,14.03 z" id="p3557" style="fill:#e2e2e2;fill-opacity:0.73;fill-rule:evenodd;stroke:none"/>
<path d="M 38.34,11.09 C 37.48,11.09 36.74,11.37 36.12,11.81 C 36.32,11.95 36.49,12.06 36.62,12.18 C 37.13,11.85 37.73,11.65 38.4,11.65 C 39.2,11.65 39.95,11.94 40.62,12.4 C 40.5,12.1 40.35,11.82 40.18,11.53 C 39.6,11.26 38.99,11.09 38.34,11.09 z" id="p3559" style="fill:#2a2a2a;fill-opacity:0.73;fill-rule:evenodd;stroke:none"/>
<path d="M 35.56,17.25 C 35.41,17.26 35.26,17.35 35.06,17.62 C 35.94,19.26 37.64,20.4 39.46,20.4 C 39.76,20.4 40.04,20.37 40.31,20.31 C 39.99,20.17 39.66,20.01 39.37,19.84 C 37.78,19.84 36.3,18.77 35.56,17.25 z" id="p3561" style="fill:#2a2a2a;fill-opacity:0.54;fill-rule:evenodd;stroke:none"/>
<path d="M 43.31,16.06 L 42.75,16.34 C 42.74,16.96 42.59,17.53 42.34,18.03 C 42.55,18.04 42.77,18.06 42.96,18.09 C 43.23,17.48 43.35,16.79 43.31,16.06 z" id="p3574" style="fill:#efefef;fill-opacity:0.76;fill-rule:evenodd;stroke:none"/>
<path d="M 37.62,21.03 C 36.88,21.01 36.18,21.42 35.87,22.12 C 35.63,22.66 35.7,23.26 35.96,23.75 C 35.76,23.74 35.54,23.74 35.37,23.78 C 34.96,23.86 33.94,24.34 34.06,24.68 C 34.07,24.67 36.24,26.54 37.15,26.71 C 38.07,26.89 37.9,26.37 37.75,25.4 C 37.7,25.14 37.62,24.94 37.53,24.75 C 38.3,24.8 39.05,24.38 39.37,23.65 C 39.78,22.71 39.33,21.61 38.37,21.18 C 38.13,21.08 37.87,21.03 37.62,21.03 z" id="p3581" style="fill:#967f7f;fill-opacity:1;fill-rule:evenodd;stroke:none;marker:none;visibility:visible;display:inline;overflow:visible;enable-background:accumulate"/>
<path d="M 34.43,24.18 C 34.19,24.34 34,24.53 34.06,24.68 C 34.07,24.67 36.24,26.54 37.15,26.71 C 37.78,26.83 37.87,26.6 37.84,26.15 C 36.74,24.71 35.71,24.3 34.46,24.18 C 34.45,24.18 34.44,24.18 34.43,24.18 z" id="p3625" style="fill:#372e2e;fill-opacity:0.81;fill-rule:evenodd;stroke:none;display:inline"/>
<path d="M 39,21.65 C 39.01,22.49 38.6,23.14 38.47,23.4 C 38.22,23.86 36.9,24.18 36.62,24.25 C 36.34,24.31 36.51,25.04 36.93,26.65 C 37,26.68 37.09,26.7 37.15,26.71 C 38.07,26.89 37.9,26.37 37.75,25.4 C 37.7,25.14 37.62,24.94 37.53,24.75 C 38.3,24.8 39.05,24.38 39.37,23.65 C 39.62,23.07 39.32,22.16 39,21.65 z" id="p3646" style="fill:#372e2e;fill-opacity:0.58;fill-rule:evenodd;stroke:none"/>
<path d="M 37.79,28.97 C 37.27,30.75 35.24,31.71 33.27,31.13 C 31.29,30.55 30.11,28.64 30.64,26.86 C 31.16,25.09 33.19,24.12 35.16,24.70 C 37.14,25.28 38.31,27.19 37.79,28.97 L 37.79,28.97 z" id="p3579" style="fill:#9e4408;fill-opacity:1;fill-rule:evenodd;stroke:none;marker:none;visibility:visible;display:inline;overflow:visible;enable-background:accumulate"/>
<path d="M 36.8,28.04 C 36.8,29.41 35.56,30.53 34.04,30.53 C 32.52,30.53 31.29,29.41 31.29,28.04 C 31.29,26.66 32.52,25.54 34.04,25.54 C 35.56,25.54 36.8,26.66 36.8,28.04 L 36.8,28.04 z" id="p3612" style="fill:#d46308;fill-opacity:0.48;fill-rule:evenodd;stroke:none;marker:none;visibility:visible;display:inline;overflow:visible;enable-background:accumulate"/>
<path d="M 37.88,29.09 C 37.35,30.87 35.33,31.83 33.35,31.25 C 31.38,30.67 30.20,28.76 30.72,26.98 C 31.25,25.21 33.27,24.24 35.25,24.82 C 37.22,25.40 38.40,27.31 37.88,29.09 L 37.88,29.09 z" id="p3642" style="fill:none;fill-opacity:1;fill-rule:evenodd;stroke:#432104;stroke-width:0.29;stroke-linecap:butt;stroke-linejoin:round;marker:none;stroke-miterlimit:4;stroke-dasharray:none;stroke-dashoffset:0;stroke-opacity:1;visibility:visible;display:inline;overflow:visible;enable-background:accumulate"/>
<path d="M 33.75,24.62 C 32.3,24.72 31.06,25.62 30.65,26.96 C 30.54,27.33 30.53,27.69 30.56,28.06 C 31.31,26.22 32.79,25.68 33.46,25.53 C 34.26,25.35 35.63,25.67 35.87,27.18 C 36.11,28.7 35.23,29.24 33.28,30.31 L 32.68,31.06 C 32.87,31.15 33.07,31.21 33.28,31.28 C 34.04,31.51 34.77,31.49 35.46,31.31 C 35.63,30.57 35.96,29.74 36.53,29.25 C 37.05,28.79 37.55,28.58 37.96,28.5 C 38.09,26.91 36.97,25.34 35.21,24.81 C 34.72,24.66 34.23,24.59 33.75,24.62 z" id="p3654" style="fill:#834003;fill-opacity:0.53;fill-rule:evenodd;stroke:none;display:inline"/>
<path d="M 32.5,32.93 C 33.87,33.31 35.57,31.87 35.46,31.66 C 35.31,31.37 35.4,30.9 33.54,30.36 C 31.67,29.81 31.48,30.13 31.18,30.3 C 30.92,30.44 31.14,32.55 32.5,32.93 z" id="p3586" style="fill:#817070;fill-opacity:1;fill-rule:evenodd;stroke:none"/>
<path d="M 31.78,30.06 C 31.46,30.09 31.33,30.22 31.18,30.31 C 33.09,30.08 34.46,30.71 35.43,31.75 C 35.44,31.72 35.47,31.67 35.46,31.65 C 35.31,31.36 35.4,30.92 33.53,30.37 C 32.59,30.1 32.09,30.02 31.78,30.06 z" id="p3601" style="fill:#c9bebe;fill-opacity:0.81;fill-rule:evenodd;stroke:none;display:inline"/>
<path d="M 31.78,31.21 C 31.58,31.22 31.39,31.27 31.18,31.31 C 31.22,31.45 31.28,31.6 31.34,31.75 C 32.29,31.85 33.3,32.19 34.03,32.75 C 34.24,32.66 34.44,32.57 34.62,32.46 C 33.81,31.57 32.92,31.17 31.78,31.21 z" id="p3603" style="fill:#4b3e3e;fill-opacity:0.81;fill-rule:evenodd;stroke:none;display:inline"/>
<path d="M 34.03,30.75 C 33.36,30.77 32.62,31.75 32.4,32.9 C 32.43,32.91 32.46,32.92 32.5,32.93 C 33.86,33.31 35.58,31.86 35.46,31.65 C 35.36,31.45 35.35,31.18 34.75,30.84 C 34.49,30.8 34.22,30.74 34.03,30.75 z" id="p3644" style="fill:#372e2e;fill-opacity:0.58;fill-rule:evenodd;stroke:none"/>
<path d="M 34.25,30.71 C 34.19,30.86 33.76,30.86 33.28,30.69 C 32.80,30.52 32.46,30.26 32.52,30.10 C 32.57,29.94 33.00,29.95 33.48,30.12 C 33.96,30.29 34.30,30.55 34.25,30.71 z" id="p3607" style="fill:#f5f3f3;fill-opacity:0.9;fill-rule:evenodd;stroke:none;marker:none;visibility:visible;display:inline;overflow:visible;enable-background:accumulate"/>
<path d="M 33.04,27.34 C 33.39,28.81 33.95,27.73 34.26,27.73 C 34.57,27.73 34.7,29.09 35.31,28.74 C 35.92,28.39 36.14,26.95 35.14,26.38 C 34.13,25.81 32.69,25.87 33.04,27.34 z" id="p3617" style="fill:#edd8d8;fill-opacity:0.15;fill-rule:evenodd;stroke:none;display:inline"/>
<path d="M 38.16,22.32 C 38.07,22.76 37.68,23.12 37.3,23.12 C 36.91,23.12 36.67,22.76 36.76,22.32 C 36.84,21.87 37.23,21.52 37.62,21.52 C 38.00,21.52 38.24,21.87 38.16,22.32 z" id="p3620" style="fill:#f5f3f3;fill-opacity:0.7;fill-rule:evenodd;stroke:none;marker:none;visibility:visible;display:inline;overflow:visible;enable-background:accumulate"/>
<path d="M 35.44,24.28 C 36.1,24.45 36.19,24.45 36.71,24.93" id="p3628" style="fill:none;fill-rule:evenodd;stroke:#e5e5e5;stroke-width:0.40;stroke-linecap:round;stroke-linejoin:miter;stroke-miterlimit:4;stroke-dasharray:none;stroke-opacity:0.81;display:inline"/>
<path d="M 31.43,26.81 C 31.28,26.91 30.9,27.34 30.53,27.9 C 30.54,28.41 30.66,28.91 30.9,29.37 C 31.6,28.38 32.7,27.81 32.31,27.81 C 31.74,27.81 31.49,27.04 31.5,26.81 C 31.5,26.78 31.48,26.78 31.43,26.81 z" id="p3657" style="fill:#a77b54;fill-opacity:0.41;fill-rule:evenodd;stroke:none;display:inline"/>
<path d="M 33.68,26.44 C 33.68,26.61 33.52,26.75 33.33,26.75 C 33.13,26.75 32.97,26.61 32.97,26.44 C 32.97,26.28 33.13,26.14 33.33,26.14 C 33.52,26.14 33.68,26.28 33.68,26.44 z" id="p3666" style="fill:#f7eadd;fill-opacity:0.41;fill-rule:evenodd;stroke:none;marker:none;visibility:visible;display:inline;overflow:visible;enable-background:accumulate"/>
<path d="M 38.34,11.09 C 35.87,11.09 34.16,13.2 34.46,15.75 C 34.77,18.29 37,20.4 39.46,20.4 C 41.93,20.4 43.62,18.29 43.31,15.75 C 43.23,15.14 43.05,14.56 42.78,14.03 C 42.78,14.08 42.77,14.13 42.78,14.18 C 42.79,14.63 42.77,15.07 42.68,15.5 C 42.7,15.58 42.7,15.66 42.71,15.75 C 42.99,18.03 41.45,19.84 39.37,19.84 C 37.29,19.84 35.36,18.03 35.09,15.75 C 34.81,13.46 36.32,11.65 38.4,11.65 C 39.2,11.65 39.95,11.94 40.62,12.4 C 40.5,12.1 40.35,11.82 40.18,11.53 C 39.6,11.26 38.99,11.09 38.34,11.09 z" id="stroke02" style="fill:none;fill-opacity:1;fill-rule:evenodd;stroke:#131313;stroke-width:0.40;stroke-linecap:butt;stroke-linejoin:round;marker:none;stroke-miterlimit:4;stroke-dasharray:none;stroke-dashoffset:0;stroke-opacity:1;visibility:visible;display:inline;overflow:visible;enable-background:accumulate"/>
<path d="M 37.62,21.03 C 36.88,21.01 36.18,21.42 35.87,22.12 C 35.63,22.66 35.7,23.26 35.96,23.75 C 35.76,23.74 35.54,23.74 35.37,23.78 C 34.98,23.86 34.07,24.28 34.06,24.62 C 32.49,24.61 31.08,25.53 30.65,26.96 C 30.31,28.1 30.66,29.28 31.46,30.15 C 31.35,30.2 31.27,30.26 31.18,30.31 C 30.93,30.45 31.13,32.55 32.5,32.93 C 33.86,33.31 35.58,31.86 35.46,31.65 C 35.42,31.56 35.4,31.45 35.34,31.34 C 36.51,31.07 37.49,30.27 37.84,29.12 C 38.09,28.3 37.98,27.45 37.59,26.71 C 37.98,26.62 37.87,26.16 37.75,25.4 C 37.7,25.14 37.62,24.94 37.53,24.75 C 38.3,24.8 39.05,24.38 39.37,23.65 C 39.78,22.71 39.33,21.61 38.37,21.18 C 38.13,21.08 37.87,21.03 37.62,21.03 z" id="stroke03" style="fill:none;fill-opacity:1;fill-rule:evenodd;stroke:#131313;stroke-width:0.5;stroke-linecap:butt;stroke-linejoin:round;marker:none;stroke-miterlimit:4;stroke-dasharray:none;stroke-dashoffset:0;stroke-opacity:1;visibility:visible;display:inline;overflow:visible;enable-background:accumulate"/>
<path d="M 39.17,20.23 C 38.96,20.73 38.72,21.15 38.62,21.15 C 38.53,21.15 38.62,20.73 38.83,20.23 C 39.04,19.72 39.28,19.31 39.38,19.31 C 39.47,19.31 39.38,19.72 39.17,20.23 z" id="stroke04" style="fill:none;fill-opacity:1;fill-rule:evenodd;stroke:#131313;stroke-width:0.5;stroke-linecap:butt;stroke-linejoin:round;marker:none;stroke-miterlimit:4;stroke-dasharray:none;stroke-dashoffset:0;stroke-opacity:1;visibility:visible;display:inline;overflow:visible;enable-background:accumulate"/>
</g>
</svg>
