<?xml version="1.0" encoding="UTF-8" standalone="no"?>
<!DOCTYPE svg PUBLIC "-//W3C//DTD SVG 1.0//EN" "http://www.w3.org/TR/2001/REC-SVG-20010904/DTD/svg10.dtd">
<svg xmlns:svg="http://www.w3.org/2000/svg" xmlns="http://www.w3.org/2000/svg" xmlns:xlink="http://www.w3.org/1999/xlink" version="1.0" width="100%" height="100%" viewBox="0 0 48 48" id="_calculator01">
<defs id="defs2385">
</defs>
<g id="calculator01" style="display:inline">
<path d="M 2.71,30.70 C 1.60,33.02 2.51,34.32 3.41,34.83 C 4.32,35.33 24.22,45.08 25.73,45.78 C 27.24,46.49 29.85,46.08 30.86,43.87 C 31.86,41.66 40.51,24.37 41.81,21.66 C 43.12,18.94 43.62,16.43 44.73,14.02 C 45.84,11.60 46.24,10.50 46.64,9.59 C 47.04,8.69 46.24,8.29 45.03,7.88 C 43.82,7.48 24.22,1.85 23.22,1.65 C 22.21,1.45 21.51,1.85 21.01,2.66 C 20.50,3.46 17.89,8.29 17.08,10.30 C 16.28,12.31 14.67,14.52 13.37,16.13 C 12.06,17.74 3.51,29.40 2.71,30.70 z" id="p3286" style="fill:#bcb5bb;fill-opacity:1;fill-rule:evenodd;stroke:none;"/>
<path d="M 20.37,3.81 C 19.45,5.45 17.76,8.64 17.09,10.31 C 16.89,10.80 16.65,11.30 16.37,11.81 L 41.81,21.65 C 43.11,18.94 43.64,16.44 44.75,14.03 C 45.19,13.05 45.48,12.40 45.75,11.78 L 20.37,3.81 z" id="p3307" style="fill:#e2e2e2;fill-opacity:0.18;fill-rule:evenodd;stroke:none;marker:none;visibility:visible;display:inline;overflow:visible;enable-background:accumulate"/>
<path d="M 19.43,5.53 C 18.62,7.06 17.83,8.64 17.31,9.84 L 42.65,19.65 C 43.40,17.69 43.92,15.84 44.75,14.03 C 44.77,13.97 44.78,13.96 44.81,13.90 L 19.43,5.53 z" id="p3311" style="fill:#e2e2e2;fill-opacity:0.43;fill-rule:evenodd;stroke:none;marker:none;visibility:visible;display:inline;overflow:visible;enable-background:accumulate"/>
<path d="M 18.37,7.53 C 17.83,8.59 17.36,9.63 17.09,10.31 L 42.46,20.12 C 42.96,18.87 43.37,17.67 43.78,16.5 L 18.37,7.53 z" id="p3309" style="fill:#e2e2e2;fill-opacity:0.50;fill-rule:evenodd;stroke:none;display:inline"/>
<path d="M 38.10,19.16 C 38.71,17.94 39.19,15.76 39.68,14.67 C 40.16,13.70 41.06,12.41 41.67,10.59" id="p3451" style="fill:none;fill-rule:evenodd;stroke:#f3f3f3;stroke-width:8.69;stroke-linecap:butt;stroke-linejoin:miter;stroke-miterlimit:4;stroke-dasharray:none;stroke-opacity:0.39"/>
<path d="M 27.71,2.90 C 26.37,5.01 24.38,8.12 23.81,9.68 C 23.00,11.89 22.40,13.30 21.5,14.81 C 20.59,16.32 8.13,34.11 7.53,35.12 C 7.21,35.65 7.14,36.25 7.15,36.68 C 11.15,38.67 16.67,41.34 21.28,43.59 C 21.42,42.57 21.74,42.36 21.90,41.96 C 22.10,41.46 33.27,21.75 34.28,19.84 C 35.28,17.93 35.88,15.93 37.59,11.81 C 38.53,9.53 39.44,7.74 40.12,6.43 C 36.35,5.34 31.94,4.09 27.71,2.90 z" id="p3292" style="fill:#222335;fill-opacity:1;fill-rule:evenodd;stroke:none;display:inline"/>
<path d="M 27.71,2.90 C 26.37,5.01 24.38,8.12 23.81,9.68 C 23.00,11.89 22.40,13.30 21.5,14.81 C 21.04,15.57 17.66,20.45 14.34,25.25 C 18.74,26.36 23.12,28.32 27.18,32.53 C 30.32,26.96 33.74,20.87 34.28,19.84 C 35.28,17.93 35.88,15.93 37.59,11.81 C 38.53,9.53 39.44,7.74 40.12,6.43 C 36.35,5.34 31.94,4.09 27.71,2.90 z" id="p3348" style="fill:#181926;fill-opacity:0.33;fill-rule:evenodd;stroke:none;marker:none;visibility:visible;display:inline;overflow:visible;enable-background:accumulate"/>
<path d="M 2.52,33.89 C 5.15,35.15 24.61,44.74 26.26,45.47 C 27.92,46.20 30.01,44.64 30.59,44.05" id="p2509" style="fill:none;fill-rule:evenodd;stroke:#fafafa;stroke-width:0.60;stroke-linecap:round;stroke-linejoin:miter;stroke-miterlimit:4;stroke-dasharray:none;stroke-opacity:0.24"/>
<path d="M 22.53,1.62 C 21.88,1.69 21.37,2.05 21,2.65 C 20.77,3.01 20.06,4.32 19.34,5.68 C 27.97,7.68 38.44,9.19 46.62,9.68 C 46.63,9.66 46.64,9.61 46.65,9.59 C 47.05,8.68 46.23,8.27 45.03,7.87 C 43.82,7.47 24.22,1.85 23.21,1.65 C 22.96,1.60 22.74,1.60 22.53,1.62 z" id="p3371" style="fill:#797a7d;fill-opacity:0.16;fill-rule:evenodd;stroke:none;"/>
<path d="M 27.71,2.90 C 26.37,5.01 24.38,8.12 23.81,9.68 C 23.00,11.89 22.40,13.30 21.5,14.81 C 21.21,15.28 19.69,17.48 17.87,20.12 C 23.09,20.32 28.38,21.33 32.81,22.43 C 33.15,21.82 34.16,20.05 34.28,19.84 C 35.28,17.93 35.88,15.93 37.59,11.81 C 38.53,9.53 39.44,7.74 40.12,6.43 C 36.35,5.34 31.94,4.09 27.71,2.90 z" id="p3346" style="fill:#181926;fill-opacity:0.33;fill-rule:evenodd;stroke:none;"/>
<path d="M 33.66,14.79 L 36.63,15.96" id="p3472" style="fill:none;fill-rule:evenodd;stroke:#fdfdfd;stroke-width:5.90;stroke-linecap:round;stroke-linejoin:miter;stroke-miterlimit:4;stroke-dasharray:none;stroke-opacity:0.09;display:inline"/>
<path d="M 26.03,5.59 C 25.06,7.15 24.16,8.70 23.81,9.68 C 23.15,11.48 22.62,12.74 21.96,13.96 L 34.71,18.90 C 35.48,17.23 36.15,15.27 37.59,11.81 C 37.93,10.98 38.26,10.23 38.59,9.53 L 26.03,5.59 z" id="p3331" style="fill:#6d82a0;fill-opacity:0.12;fill-rule:evenodd;stroke:none;marker:none;visibility:visible;display:inline;overflow:visible;enable-background:accumulate"/>
<path d="M 34.70,18.45 C 35.09,17.53 35.64,16.13 35.75,15.85 C 35.85,15.58 36.46,13.98 36.61,13.64" id="p3477" style="fill:none;fill-rule:evenodd;stroke:#ffffff;stroke-width:0.2;stroke-linecap:round;stroke-linejoin:miter;stroke-miterlimit:4;stroke-dasharray:none;stroke-opacity:0.13"/>
<path d="M 24.96,7.37 C 24.46,8.26 24.02,9.10 23.81,9.68 C 23.48,10.57 23.19,11.31 22.90,12 L 35.59,16.90 C 36.10,15.60 36.67,14.02 37.59,11.81 C 37.62,11.72 37.65,11.64 37.68,11.56 L 24.96,7.37 z" id="p3333" style="fill:#8ba7c0;fill-opacity:0.12;fill-rule:evenodd;stroke:none;marker:none;visibility:visible;display:inline;overflow:visible;enable-background:accumulate"/>
<path d="M 23.90,9.46 C 23.87,9.53 23.83,9.62 23.81,9.68 C 23.41,10.78 23.04,11.65 22.68,12.46 L 35.37,17.37 C 35.74,16.44 36.18,15.35 36.71,14 L 23.90,9.46 z" id="p3335" style="fill:#859ebb;fill-opacity:0.17;fill-rule:evenodd;stroke:none;display:inline"/>
<path d="M 27.71,2.90 C 26.54,4.75 24.87,7.36 24.09,9.03 C 29.33,8.25 34.16,9.97 37.43,12.15 C 37.49,12.02 37.53,11.94 37.59,11.81 C 38.53,9.53 39.44,7.74 40.12,6.43 C 36.35,5.34 31.94,4.09 27.71,2.90 z" id="p3366" style="fill:#141520;fill-opacity:0.38;fill-rule:evenodd;stroke:none;"/>
<path d="M 36.32,10.08 L 27.09,7.32 L 25.63,10.16 L 35.00,13.26 L 36.32,10.08 z" id="p3361" style="fill:#676661;fill-opacity:1;fill-rule:evenodd;stroke:none;display:inline"/>
<path d="M 25.40,9.98 L 26.96,6.93" id="p3364" style="fill:none;fill-rule:evenodd;stroke:#8eabc1;stroke-width:0.2;stroke-linecap:round;stroke-linejoin:miter;stroke-miterlimit:4;stroke-dasharray:none;stroke-opacity:0.51"/>
<path d="M 25.55,13.85 C 25.70,13.60 25.85,13.44 26.21,13.55 C 26.57,13.65 30.91,15.18 31.32,15.39 C 31.73,15.59 31.58,15.85 31.53,16.15 C 31.48,16.46 31.32,16.82 31.27,17.07 C 31.22,17.33 30.91,17.43 30.45,17.28 C 29.99,17.12 25.80,15.59 25.44,15.49 C 25.09,15.39 25.23,15.03 25.28,14.77 C 25.33,14.52 25.40,14.23 25.55,13.85 z" id="p3453" style="fill:#000000;fill-opacity:1;fill-rule:evenodd;stroke:none;display:inline"/>
<path d="M 26.07,13.98 C 25.86,13.99 25.74,14.13 25.63,14.32 C 25.48,14.69 25.43,14.97 25.38,15.23 C 25.37,15.28 25.36,15.35 25.35,15.41 C 25.38,15.43 25.39,15.46 25.44,15.48 C 25.80,15.58 29.98,17.13 30.44,17.29 C 30.90,17.44 31.23,17.32 31.28,17.07 C 31.33,16.81 31.48,16.47 31.53,16.16 C 31.54,16.10 31.55,16.04 31.57,15.98 C 31.52,15.93 31.48,15.89 31.41,15.85 C 31.00,15.65 26.67,14.11 26.32,14.01 C 26.23,13.98 26.13,13.97 26.07,13.98 z" id="p3456" style="fill:#2f1c23;fill-opacity:1;fill-rule:evenodd;stroke:none;display:inline"/>
<path d="M 35.11,17.40 C 35.43,16.64 35.97,15.14 36.20,14.68" id="p3475" style="fill:none;fill-rule:evenodd;stroke:#f5f5f5;stroke-width:0.30;stroke-linecap:round;stroke-linejoin:miter;stroke-miterlimit:4;stroke-dasharray:none;stroke-opacity:0.30"/>
<path d="M 19.52,15.10 C 19.66,15.78 19.07,16.48 18.21,16.66 C 17.35,16.83 16.54,16.43 16.40,15.74 C 16.25,15.06 16.84,14.36 17.70,14.19 C 18.56,14.01 19.38,14.42 19.52,15.10 z" id="p3479" style="fill:#525163;fill-opacity:1;fill-rule:evenodd;stroke:none;marker:none;visibility:visible;display:inline;overflow:visible;enable-background:accumulate"/>
<path d="M 17.25,18.19 C 17.39,18.90 16.80,19.63 15.93,19.82 C 15.06,20.01 14.24,19.58 14.09,18.86 C 13.95,18.15 14.54,17.42 15.41,17.23 C 16.29,17.04 17.11,17.47 17.25,18.19 z" id="p3481" style="fill:#525163;fill-opacity:1;fill-rule:evenodd;stroke:none;marker:none;visibility:visible;display:inline;overflow:visible;enable-background:accumulate"/>
<path d="M 14.90,21.59 C 15.04,22.33 14.44,23.08 13.56,23.28 C 12.68,23.47 11.85,23.03 11.70,22.29 C 11.56,21.55 12.15,20.80 13.04,20.60 C 13.92,20.41 14.75,20.85 14.90,21.59 z" id="p3483" style="fill:#525163;fill-opacity:1;fill-rule:evenodd;stroke:none;marker:none;visibility:visible;display:inline;overflow:visible;enable-background:accumulate"/>
<path d="M 12.53,25.38 C 12.48,26.22 11.70,26.99 10.78,27.10 C 9.86,27.21 9.14,26.62 9.19,25.78 C 9.24,24.93 10.02,24.16 10.94,24.05 C 11.87,23.94 12.58,24.54 12.53,25.38 z" id="p3487" style="fill:#525163;fill-opacity:1;fill-rule:evenodd;stroke:none;marker:none;visibility:visible;display:inline;overflow:visible;enable-background:accumulate"/>
<path d="M 10.07,29.10 C 10.02,29.96 9.17,30.75 8.16,30.86 C 7.15,30.97 6.38,30.37 6.43,29.51 C 6.48,28.65 7.33,27.86 8.34,27.74 C 9.35,27.63 10.12,28.24 10.07,29.10 z" id="p3489" style="fill:#525163;fill-opacity:1;fill-rule:evenodd;stroke:none;marker:none;visibility:visible;display:inline;overflow:visible;enable-background:accumulate"/>
<path d="M 24.28,16.59 C 24.42,17.32 23.82,18.06 22.93,18.25 C 22.03,18.44 21.19,18.00 21.04,17.28 C 20.90,16.56 21.50,15.82 22.40,15.63 C 23.29,15.44 24.13,15.87 24.28,16.59 z" id="p3491" style="fill:#353348;fill-opacity:1;fill-rule:evenodd;stroke:none;marker:none;visibility:visible;display:inline;overflow:visible;enable-background:accumulate"/>
<path d="M 28.48,18.00 C 28.63,18.76 28.00,19.55 27.06,19.75 C 26.12,19.95 25.24,19.49 25.09,18.72 C 24.94,17.96 25.57,17.17 26.51,16.97 C 27.44,16.77 28.32,17.23 28.48,18.00 z" id="p3493" style="fill:#353348;fill-opacity:1;fill-rule:evenodd;stroke:none;marker:none;visibility:visible;display:inline;overflow:visible;enable-background:accumulate"/>
<path d="M 32.82,19.57 C 32.99,20.38 32.31,21.20 31.31,21.41 C 30.31,21.62 29.36,21.14 29.20,20.33 C 29.04,19.53 29.71,18.70 30.71,18.49 C 31.71,18.28 32.66,18.76 32.82,19.57 z" id="p3495" style="fill:#353348;fill-opacity:1;fill-rule:evenodd;stroke:none;marker:none;visibility:visible;display:inline;overflow:visible;enable-background:accumulate"/>
<path d="M 37.83,21.17 C 38.28,21.90 37.94,22.82 37.06,23.23 C 36.18,23.64 35.10,23.38 34.65,22.66 C 34.20,21.93 34.55,21.01 35.43,20.60 C 36.31,20.19 37.38,20.45 37.83,21.17 z" id="p3497" style="fill:#525163;fill-opacity:1;fill-rule:evenodd;stroke:none;marker:none;visibility:visible;display:inline;overflow:visible;enable-background:accumulate"/>
<path d="M 22.11,19.87 C 22.25,20.59 21.66,21.32 20.79,21.51 C 19.92,21.70 19.10,21.27 18.95,20.55 C 18.81,19.83 19.40,19.10 20.27,18.92 C 21.15,18.73 21.97,19.16 22.11,19.87 z" id="p3499" style="fill:#353348;fill-opacity:1;fill-rule:evenodd;stroke:none;marker:none;visibility:visible;display:inline;overflow:visible;enable-background:accumulate"/>
<path d="M 26.28,21.35 C 26.43,22.12 25.80,22.90 24.86,23.10 C 23.93,23.30 23.05,22.84 22.89,22.08 C 22.74,21.31 23.37,20.53 24.31,20.33 C 25.25,20.13 26.13,20.59 26.28,21.35 z" id="p3503" style="fill:#353348;fill-opacity:1;fill-rule:evenodd;stroke:none;marker:none;visibility:visible;display:inline;overflow:visible;enable-background:accumulate"/>
<path d="M 30.56,23.00 C 30.72,23.77 30.08,24.55 29.14,24.75 C 28.21,24.95 27.33,24.49 27.17,23.73 C 27.02,22.96 27.65,22.18 28.59,21.98 C 29.53,21.78 30.41,22.24 30.56,23.00 z" id="p3505" style="fill:#353348;fill-opacity:1;fill-rule:evenodd;stroke:none;marker:none;visibility:visible;display:inline;overflow:visible;enable-background:accumulate"/>
<path d="M 36.04,24.81 C 36.52,25.58 36.15,26.56 35.22,27.00 C 34.30,27.43 33.17,27.16 32.69,26.39 C 32.22,25.62 32.59,24.64 33.51,24.20 C 34.43,23.77 35.57,24.04 36.04,24.81 z" id="p3507" style="fill:#525163;fill-opacity:1;fill-rule:evenodd;stroke:none;marker:none;visibility:visible;display:inline;overflow:visible;enable-background:accumulate"/>
<path d="M 19.86,23.34 C 20.01,24.11 19.38,24.89 18.44,25.09 C 17.51,25.29 16.63,24.83 16.47,24.07 C 16.32,23.30 16.95,22.52 17.89,22.32 C 18.83,22.12 19.71,22.57 19.86,23.34 z" id="p3509" style="fill:#353348;fill-opacity:1;fill-rule:evenodd;stroke:none;marker:none;visibility:visible;display:inline;overflow:visible;enable-background:accumulate"/>
<path d="M 23.94,24.78 C 24.22,25.51 23.74,26.39 22.85,26.75 C 21.96,27.11 21.01,26.81 20.73,26.08 C 20.44,25.36 20.93,24.47 21.82,24.11 C 22.71,23.75 23.66,24.05 23.94,24.78 z" id="p3511" style="fill:#353348;fill-opacity:1;fill-rule:evenodd;stroke:none;marker:none;visibility:visible;display:inline;overflow:visible;enable-background:accumulate"/>
<path d="M 28.42,26.75 C 28.58,27.57 27.92,28.40 26.94,28.62 C 25.96,28.83 25.04,28.34 24.88,27.53 C 24.72,26.71 25.39,25.87 26.36,25.66 C 27.34,25.45 28.26,25.94 28.42,26.75 z" id="p3513" style="fill:#353348;fill-opacity:1;fill-rule:evenodd;stroke:none;marker:none;visibility:visible;display:inline;overflow:visible;enable-background:accumulate"/>
<path d="M 33.88,28.67 C 34.36,29.49 33.99,30.52 33.07,30.98 C 32.14,31.44 31.01,31.15 30.53,30.34 C 30.06,29.52 30.43,28.49 31.35,28.03 C 32.28,27.57 33.41,27.85 33.88,28.67 z" id="p3515" style="fill:#525163;fill-opacity:1;fill-rule:evenodd;stroke:none;marker:none;visibility:visible;display:inline;overflow:visible;enable-background:accumulate"/>
<path d="M 17.39,27.16 C 17.54,27.99 16.91,28.84 15.97,29.05 C 15.04,29.27 14.15,28.77 14.00,27.95 C 13.85,27.12 14.48,26.28 15.42,26.06 C 16.35,25.84 17.24,26.34 17.39,27.16 z" id="p3517" style="fill:#353348;fill-opacity:1;fill-rule:evenodd;stroke:none;marker:none;visibility:visible;display:inline;overflow:visible;enable-background:accumulate"/>
<path d="M 21.59,28.92 C 21.68,29.75 20.97,30.55 20.02,30.71 C 19.06,30.87 18.22,30.33 18.13,29.50 C 18.05,28.67 18.76,27.87 19.71,27.71 C 20.67,27.55 21.51,28.09 21.59,28.92 z" id="p3519" style="fill:#353348;fill-opacity:1;fill-rule:evenodd;stroke:none;marker:none;visibility:visible;display:inline;overflow:visible;enable-background:accumulate"/>
<path d="M 26.20,30.75 C 26.36,31.60 25.68,32.46 24.67,32.69 C 23.66,32.91 22.71,32.40 22.55,31.55 C 22.38,30.71 23.07,29.84 24.07,29.62 C 25.08,29.40 26.03,29.91 26.20,30.75 z" id="p3521" style="fill:#353348;fill-opacity:1;fill-rule:evenodd;stroke:none;marker:none;visibility:visible;display:inline;overflow:visible;enable-background:accumulate"/>
<path d="M 31.75,32.73 C 32.24,33.62 31.86,34.74 30.91,35.24 C 29.96,35.74 28.79,35.43 28.30,34.54 C 27.81,33.65 28.19,32.53 29.14,32.03 C 30.09,31.53 31.26,31.85 31.75,32.73 z" id="p3523" style="fill:#525163;fill-opacity:1;fill-rule:evenodd;stroke:none;marker:none;visibility:visible;display:inline;overflow:visible;enable-background:accumulate"/>
<path d="M 14.99,31.00 C 15.15,31.87 14.48,32.76 13.48,32.99 C 12.48,33.22 11.54,32.70 11.38,31.82 C 11.21,30.95 11.89,30.06 12.89,29.83 C 13.89,29.60 14.83,30.12 14.99,31.00 z" id="p3525" style="fill:#353348;fill-opacity:1;fill-rule:evenodd;stroke:none;marker:none;visibility:visible;display:inline;overflow:visible;enable-background:accumulate"/>
<path d="M 19.25,32.99 C 19.34,33.86 18.60,34.71 17.60,34.88 C 16.59,35.05 15.71,34.48 15.62,33.60 C 15.53,32.72 16.27,31.88 17.28,31.71 C 18.28,31.54 19.16,32.11 19.25,32.99 z" id="p3527" style="fill:#353348;fill-opacity:1;fill-rule:evenodd;stroke:none;marker:none;visibility:visible;display:inline;overflow:visible;enable-background:accumulate"/>
<path d="M 23.73,35.07 C 23.82,35.95 23.08,36.79 22.08,36.96 C 21.08,37.13 20.19,36.56 20.10,35.68 C 20.02,34.81 20.76,33.96 21.76,33.79 C 22.76,33.62 23.64,34.20 23.73,35.07 z" id="p3529" style="fill:#353348;fill-opacity:1;fill-rule:evenodd;stroke:none;marker:none;visibility:visible;display:inline;overflow:visible;enable-background:accumulate"/>
<path d="M 29.57,37.10 C 30.08,37.99 29.69,39.11 28.69,39.61 C 27.70,40.11 26.48,39.79 25.97,38.91 C 25.46,38.02 25.85,36.90 26.85,36.40 C 27.84,35.90 29.06,36.22 29.57,37.10 z" id="p3531" style="fill:#525163;fill-opacity:1;fill-rule:evenodd;stroke:none;marker:none;visibility:visible;display:inline;overflow:visible;enable-background:accumulate"/>
<path d="M 22.71,15.59 C 22.60,15.59 22.51,15.60 22.40,15.62 C 21.51,15.81 20.91,16.55 21.06,17.28 C 21.08,17.37 21.11,17.45 21.15,17.53 C 21.50,17.91 22.11,18.10 22.75,17.96 C 23.64,17.77 24.23,17.03 24.09,16.31 C 24.07,16.23 24.06,16.16 24.03,16.09 C 23.74,15.75 23.25,15.56 22.71,15.59 z M 26.84,16.93 C 26.72,16.94 26.61,16.94 26.5,16.96 C 25.56,17.16 24.94,17.95 25.09,18.71 C 25.10,18.79 25.12,18.86 25.15,18.93 C 25.16,18.94 25.17,18.95 25.18,18.96 C 25.19,18.97 25.18,18.99 25.18,19 C 25.55,19.41 26.20,19.61 26.87,19.46 C 27.81,19.26 28.46,18.48 28.31,17.71 C 28.30,17.65 28.30,17.58 28.28,17.53 C 28.27,17.51 28.25,17.51 28.25,17.5 C 27.95,17.12 27.42,16.91 26.84,16.93 z M 31.09,18.43 C 30.97,18.44 30.84,18.47 30.71,18.5 C 29.71,18.71 29.05,19.53 29.21,20.34 C 29.23,20.43 29.24,20.51 29.28,20.59 C 29.28,20.60 29.30,20.61 29.31,20.62 C 29.69,21.06 30.39,21.27 31.12,21.12 C 32.12,20.91 32.82,20.08 32.65,19.28 C 32.64,19.21 32.61,19.15 32.59,19.09 C 32.58,19.07 32.57,19.04 32.56,19.03 C 32.25,18.63 31.70,18.41 31.09,18.43 z M 20.59,18.87 C 20.48,18.87 20.39,18.88 20.28,18.90 C 19.40,19.09 18.82,19.84 18.96,20.56 C 18.98,20.65 19.02,20.73 19.06,20.81 C 19.40,21.17 20.00,21.35 20.62,21.21 C 21.49,21.03 22.08,20.30 21.93,19.59 C 21.91,19.50 21.85,19.42 21.81,19.34 C 21.52,19.04 21.08,18.85 20.59,18.87 z M 24.65,20.28 C 24.54,20.28 24.42,20.31 24.31,20.34 C 23.37,20.54 22.75,21.32 22.90,22.09 C 22.92,22.16 22.94,22.24 22.96,22.31 C 22.97,22.32 22.99,22.33 23,22.34 C 23.00,22.35 22.99,22.36 23,22.37 C 23.36,22.77 24.01,22.95 24.68,22.81 C 25.62,22.61 26.27,21.82 26.12,21.06 C 26.11,21.00 26.11,20.93 26.09,20.87 C 26.08,20.86 26.07,20.85 26.06,20.84 C 25.76,20.46 25.23,20.25 24.65,20.28 z M 28.93,21.93 C 28.82,21.94 28.71,21.94 28.59,21.96 C 27.65,22.16 27.03,22.95 27.18,23.71 C 27.20,23.79 27.22,23.86 27.25,23.93 C 27.25,23.94 27.27,23.95 27.28,23.96 C 27.28,23.97 27.27,23.99 27.28,24 C 27.64,24.41 28.29,24.61 28.96,24.46 C 29.90,24.26 30.52,23.48 30.37,22.71 C 30.35,22.63 30.34,22.54 30.31,22.46 C 30.01,22.11 29.49,21.91 28.93,21.93 z M 18.25,22.28 C 18.13,22.28 18.02,22.28 17.90,22.31 C 16.97,22.51 16.31,23.29 16.46,24.06 C 16.47,24.11 16.51,24.16 16.53,24.21 C 16.54,24.23 16.54,24.26 16.56,24.28 C 16.91,24.72 17.57,24.96 18.28,24.81 C 19.21,24.61 19.84,23.82 19.68,23.06 C 19.67,22.97 19.65,22.88 19.62,22.81 C 19.32,22.45 18.81,22.25 18.25,22.28 z M 22.5,23.96 C 22.28,23.98 22.03,24.03 21.81,24.12 C 20.92,24.48 20.43,25.36 20.71,26.09 C 21.11,26.60 21.92,26.77 22.68,26.46 C 23.56,26.11 24.04,25.25 23.78,24.53 C 23.77,24.52 23.78,24.50 23.78,24.5 C 23.76,24.46 23.73,24.43 23.71,24.40 C 23.43,24.09 22.99,23.94 22.5,23.96 z M 26.71,25.62 C 26.59,25.63 26.49,25.62 26.37,25.65 C 25.39,25.86 24.71,26.71 24.87,27.53 C 24.89,27.60 24.90,27.67 24.93,27.75 C 24.94,27.76 24.95,27.76 24.96,27.78 C 24.97,27.79 24.96,27.80 24.96,27.81 C 25.34,28.27 26.05,28.50 26.78,28.34 C 27.75,28.13 28.40,27.28 28.25,26.46 C 28.23,26.37 28.19,26.29 28.15,26.21 C 28.13,26.17 28.11,26.13 28.09,26.09 C 28.08,26.08 28.07,26.07 28.06,26.06 C 27.73,25.75 27.23,25.60 26.71,25.62 z M 15.78,26.03 C 15.66,26.03 15.55,26.03 15.43,26.06 C 14.50,26.27 13.84,27.11 14,27.93 C 14.01,28.04 14.05,28.12 14.09,28.21 C 14.44,28.70 15.11,28.94 15.81,28.78 C 16.74,28.56 17.37,27.70 17.21,26.87 C 17.20,26.78 17.18,26.70 17.15,26.62 C 17.14,26.60 17.13,26.58 17.12,26.56 C 16.82,26.19 16.32,26.00 15.78,26.03 z M 20.06,27.68 C 19.94,27.68 19.83,27.69 19.71,27.71 C 18.76,27.87 18.04,28.67 18.12,29.5 C 18.13,29.60 18.15,29.71 18.18,29.81 C 18.51,30.28 19.14,30.55 19.84,30.43 C 20.79,30.27 21.49,29.48 21.40,28.65 C 21.39,28.50 21.34,28.37 21.28,28.25 C 21.00,27.91 20.57,27.69 20.06,27.68 z M 24.43,29.56 C 24.31,29.56 24.21,29.59 24.09,29.62 C 23.08,29.84 22.39,30.71 22.56,31.56 C 22.58,31.66 22.61,31.78 22.65,31.87 C 23.04,32.33 23.76,32.56 24.5,32.40 C 25.50,32.18 26.19,31.31 26.03,30.46 C 26.00,30.33 25.93,30.23 25.87,30.12 C 25.53,29.75 25.01,29.53 24.43,29.56 z M 13.25,29.78 C 13.12,29.78 13.03,29.81 12.90,29.84 C 11.90,30.07 11.21,30.94 11.37,31.81 C 11.39,31.92 11.42,32.02 11.46,32.12 C 11.84,32.63 12.56,32.88 13.31,32.71 C 14.31,32.49 14.97,31.59 14.81,30.71 C 14.79,30.62 14.75,30.52 14.71,30.43 C 14.70,30.41 14.69,30.39 14.68,30.37 C 14.36,29.98 13.83,29.75 13.25,29.78 z M 17.65,31.68 C 17.53,31.68 17.40,31.69 17.28,31.71 C 16.27,31.88 15.53,32.71 15.62,33.59 C 15.64,33.76 15.70,33.91 15.78,34.06 C 15.80,34.09 15.81,34.12 15.84,34.15 C 16.22,34.52 16.81,34.69 17.43,34.59 C 18.43,34.42 19.18,33.59 19.09,32.71 C 19.07,32.57 19.05,32.43 19,32.31 C 18.71,31.92 18.21,31.69 17.65,31.68 z M 22.12,33.75 C 22.00,33.74 21.87,33.76 21.75,33.78 C 20.74,33.94 20.03,34.81 20.12,35.68 C 20.14,35.85 20.20,36.01 20.28,36.15 C 20.30,36.18 20.31,36.22 20.34,36.25 C 20.71,36.61 21.28,36.79 21.90,36.68 C 22.90,36.51 23.65,35.65 23.56,34.78 C 23.54,34.60 23.47,34.45 23.40,34.31 C 23.38,34.28 23.37,34.24 23.34,34.21 C 23.04,33.92 22.60,33.75 22.12,33.75 z" id="p3558" style="fill:#525163;fill-opacity:1;fill-rule:evenodd;stroke:none;marker:none;visibility:visible;display:inline;overflow:visible;enable-background:accumulate"/>
<path d="M 17.37,16.35 C 17.89,16.45 18.52,16.35 18.90,15.96" id="p3621" style="fill:none;fill-rule:evenodd;stroke:#747689;stroke-width:0.30;stroke-linecap:round;stroke-linejoin:miter;stroke-miterlimit:4;stroke-dasharray:none;stroke-opacity:1"/>
<path d="M 15.11,19.51 C 15.63,19.61 16.26,19.51 16.64,19.11" id="p3627" style="fill:none;fill-rule:evenodd;stroke:#747689;stroke-width:0.30;stroke-linecap:round;stroke-linejoin:miter;stroke-miterlimit:4;stroke-dasharray:none;stroke-opacity:1;display:inline"/>
<path d="M 13.14,23.02 C 13.66,23.02 14.03,22.80 14.41,22.40" id="p3629" style="fill:none;fill-rule:evenodd;stroke:#747689;stroke-width:0.30;stroke-linecap:round;stroke-linejoin:miter;stroke-miterlimit:4;stroke-dasharray:none;stroke-opacity:1;display:inline"/>
<path d="M 10.53,26.77 C 11.13,26.73 11.62,26.47 11.94,26.00" id="p3631" style="fill:none;fill-rule:evenodd;stroke:#747689;stroke-width:0.30;stroke-linecap:round;stroke-linejoin:miter;stroke-miterlimit:4;stroke-dasharray:none;stroke-opacity:1;display:inline"/>
<path d="M 8.02,30.54 C 8.62,30.49 9.12,30.23 9.43,29.76" id="p3633" style="fill:none;fill-rule:evenodd;stroke:#747689;stroke-width:0.30;stroke-linecap:round;stroke-linejoin:miter;stroke-miterlimit:4;stroke-dasharray:none;stroke-opacity:1;display:inline"/>
<path d="M 22.01,17.88 C 22.48,18.01 23.10,17.87 23.55,17.51" id="p3635" style="fill:none;fill-opacity:1;fill-rule:evenodd;stroke:#606272;stroke-width:0.30;stroke-linecap:round;stroke-linejoin:miter;marker:none;stroke-miterlimit:4;stroke-dasharray:none;stroke-dashoffset:0;stroke-opacity:1;visibility:visible;display:inline;overflow:visible;enable-background:accumulate"/>
<path d="M 19.88,21.17 C 20.34,21.29 20.97,21.15 21.42,20.79" id="p3637" style="fill:none;fill-opacity:1;fill-rule:evenodd;stroke:#606272;stroke-width:0.30;stroke-linecap:round;stroke-linejoin:miter;marker:none;stroke-miterlimit:4;stroke-dasharray:none;stroke-dashoffset:0;stroke-opacity:1;visibility:visible;display:inline;overflow:visible;enable-background:accumulate"/>
<path d="M 17.51,24.78 C 17.98,24.91 18.61,24.77 19.05,24.41" id="p3639" style="fill:none;fill-opacity:1;fill-rule:evenodd;stroke:#606272;stroke-width:0.30;stroke-linecap:round;stroke-linejoin:miter;marker:none;stroke-miterlimit:4;stroke-dasharray:none;stroke-dashoffset:0;stroke-opacity:1;visibility:visible;display:inline;overflow:visible;enable-background:accumulate"/>
<path d="M 26.13,19.41 C 26.60,19.54 27.22,19.39 27.67,19.03" id="p3641" style="fill:none;fill-opacity:1;fill-rule:evenodd;stroke:#606272;stroke-width:0.30;stroke-linecap:round;stroke-linejoin:miter;marker:none;stroke-miterlimit:4;stroke-dasharray:none;stroke-dashoffset:0;stroke-opacity:1;visibility:visible;display:inline;overflow:visible;enable-background:accumulate"/>
<path d="M 23.93,22.74 C 24.39,22.87 25.02,22.72 25.47,22.37" id="p3643" style="fill:none;fill-opacity:1;fill-rule:evenodd;stroke:#606272;stroke-width:0.30;stroke-linecap:round;stroke-linejoin:miter;marker:none;stroke-miterlimit:4;stroke-dasharray:none;stroke-dashoffset:0;stroke-opacity:1;visibility:visible;display:inline;overflow:visible;enable-background:accumulate"/>
<path d="M 21.65,26.45 C 22.11,26.57 22.74,26.43 23.19,26.07" id="p3645" style="fill:none;fill-opacity:1;fill-rule:evenodd;stroke:#606272;stroke-width:0.30;stroke-linecap:round;stroke-linejoin:miter;marker:none;stroke-miterlimit:4;stroke-dasharray:none;stroke-dashoffset:0;stroke-opacity:1;visibility:visible;display:inline;overflow:visible;enable-background:accumulate"/>
<path d="M 30.38,21.00 C 30.85,21.13 31.47,20.98 31.92,20.62" id="p3647" style="fill:none;fill-opacity:1;fill-rule:evenodd;stroke:#606272;stroke-width:0.30;stroke-linecap:round;stroke-linejoin:miter;marker:none;stroke-miterlimit:4;stroke-dasharray:none;stroke-dashoffset:0;stroke-opacity:1;visibility:visible;display:inline;overflow:visible;enable-background:accumulate"/>
<path d="M 28.22,24.36 C 28.69,24.49 29.32,24.34 29.76,23.98" id="p3649" style="fill:none;fill-opacity:1;fill-rule:evenodd;stroke:#606272;stroke-width:0.30;stroke-linecap:round;stroke-linejoin:miter;marker:none;stroke-miterlimit:4;stroke-dasharray:none;stroke-dashoffset:0;stroke-opacity:1;visibility:visible;display:inline;overflow:visible;enable-background:accumulate"/>
<path d="M 26.03,28.25 C 26.50,28.38 27.12,28.23 27.57,27.87" id="p3651" style="fill:none;fill-opacity:1;fill-rule:evenodd;stroke:#606272;stroke-width:0.30;stroke-linecap:round;stroke-linejoin:miter;marker:none;stroke-miterlimit:4;stroke-dasharray:none;stroke-dashoffset:0;stroke-opacity:1;visibility:visible;display:inline;overflow:visible;enable-background:accumulate"/>
<path d="M 15.07,28.67 C 15.53,28.80 16.16,28.66 16.61,28.30" id="p3653" style="fill:none;fill-opacity:1;fill-rule:evenodd;stroke:#606272;stroke-width:0.30;stroke-linecap:round;stroke-linejoin:miter;marker:none;stroke-miterlimit:4;stroke-dasharray:none;stroke-dashoffset:0;stroke-opacity:1;visibility:visible;display:inline;overflow:visible;enable-background:accumulate"/>
<path d="M 19.24,30.30 C 19.71,30.43 20.33,30.28 20.78,29.93" id="p3655" style="fill:none;fill-opacity:1;fill-rule:evenodd;stroke:#606272;stroke-width:0.30;stroke-linecap:round;stroke-linejoin:miter;marker:none;stroke-miterlimit:4;stroke-dasharray:none;stroke-dashoffset:0;stroke-opacity:1;visibility:visible;display:inline;overflow:visible;enable-background:accumulate"/>
<path d="M 23.84,32.32 C 24.30,32.44 24.93,32.30 25.38,31.94" id="p3657" style="fill:none;fill-opacity:1;fill-rule:evenodd;stroke:#606272;stroke-width:0.30;stroke-linecap:round;stroke-linejoin:miter;marker:none;stroke-miterlimit:4;stroke-dasharray:none;stroke-dashoffset:0;stroke-opacity:1;visibility:visible;display:inline;overflow:visible;enable-background:accumulate"/>
<path d="M 12.59,32.64 C 13.06,32.76 13.69,32.62 14.13,32.26" id="p3659" style="fill:none;fill-opacity:1;fill-rule:evenodd;stroke:#606272;stroke-width:0.30;stroke-linecap:round;stroke-linejoin:miter;marker:none;stroke-miterlimit:4;stroke-dasharray:none;stroke-dashoffset:0;stroke-opacity:1;visibility:visible;display:inline;overflow:visible;enable-background:accumulate"/>
<path d="M 16.87,34.51 C 17.34,34.64 17.96,34.49 18.41,34.13" id="p3661" style="fill:none;fill-opacity:1;fill-rule:evenodd;stroke:#606272;stroke-width:0.30;stroke-linecap:round;stroke-linejoin:miter;marker:none;stroke-miterlimit:4;stroke-dasharray:none;stroke-dashoffset:0;stroke-opacity:1;visibility:visible;display:inline;overflow:visible;enable-background:accumulate"/>
<path d="M 21.33,36.60 C 21.79,36.72 22.42,36.58 22.87,36.22" id="p3663" style="fill:none;fill-opacity:1;fill-rule:evenodd;stroke:#606272;stroke-width:0.30;stroke-linecap:round;stroke-linejoin:miter;marker:none;stroke-miterlimit:4;stroke-dasharray:none;stroke-dashoffset:0;stroke-opacity:1;visibility:visible;display:inline;overflow:visible;enable-background:accumulate"/>
<path d="M 26.73,39.19 C 27.26,39.50 27.93,39.56 28.50,39.26" id="p3665" style="fill:none;fill-rule:evenodd;stroke:#747689;stroke-width:0.30;stroke-linecap:round;stroke-linejoin:miter;stroke-miterlimit:4;stroke-dasharray:none;stroke-opacity:1;display:inline"/>
<path d="M 29.07,34.78 C 29.59,35.09 30.27,35.15 30.83,34.85" id="p3667" style="fill:none;fill-rule:evenodd;stroke:#747689;stroke-width:0.30;stroke-linecap:round;stroke-linejoin:miter;stroke-miterlimit:4;stroke-dasharray:none;stroke-opacity:1;display:inline"/>
<path d="M 31.23,30.53 C 31.75,30.84 32.42,30.90 32.99,30.60" id="p3669" style="fill:none;fill-rule:evenodd;stroke:#747689;stroke-width:0.30;stroke-linecap:round;stroke-linejoin:miter;stroke-miterlimit:4;stroke-dasharray:none;stroke-opacity:1;display:inline"/>
<path d="M 33.35,26.57 C 33.87,26.88 34.54,26.94 35.11,26.64" id="p3671" style="fill:none;fill-rule:evenodd;stroke:#747689;stroke-width:0.30;stroke-linecap:round;stroke-linejoin:miter;stroke-miterlimit:4;stroke-dasharray:none;stroke-opacity:1;display:inline"/>
<path d="M 35.29,22.82 C 35.82,23.14 36.49,23.19 37.05,22.89" id="p3673" style="fill:none;fill-rule:evenodd;stroke:#747689;stroke-width:0.30;stroke-linecap:round;stroke-linejoin:miter;stroke-miterlimit:4;stroke-dasharray:none;stroke-opacity:1;display:inline"/>
<path d="M 20.06,19.29 C 20.12,19.06 20.33,19.15 20.55,19.25 C 20.91,19.39 21.27,19.52 21.63,19.66 C 21.42,19.96 20.76,19.95 20.46,20.22 C 20.05,20.28 19.95,20.92 19.51,20.70 C 19.59,20.40 20.16,20.09 20.57,19.90 C 20.95,19.77 21.34,19.69 20.76,19.55 C 20.53,19.46 20.30,19.38 20.06,19.29 z" id="text3675" style="font-size:2.84px;font-style:normal;font-variant:normal;font-weight:normal;font-stretch:normal;fill:#ffffff;fill-opacity:1;stroke:none;font-family:Arial;-inkscape-font-specification:Arial"/>
<path d="M 24.26,21.40 C 23.68,21.00 24.66,20.52 25.18,20.90 C 25.70,21.11 25.49,21.74 24.88,21.64 C 25.42,21.97 24.86,22.56 24.22,22.41 C 23.67,22.34 23.27,21.86 23.62,21.55 C 23.75,21.41 24.02,21.35 24.26,21.40 L 24.26,21.40 z M 24.42,21.08 C 24.12,21.47 25.27,21.68 25.17,21.21 C 25.13,20.96 24.57,20.85 24.42,21.08 z M 23.85,21.72 C 23.45,22.36 25.22,22.38 24.73,21.74 C 24.53,21.51 24.00,21.48 23.85,21.72 L 23.85,21.72 z" id="text3679" style="font-size:2.84px;font-style:normal;font-variant:normal;font-weight:normal;font-stretch:normal;fill:#ffffff;fill-opacity:1;stroke:none;display:inline;font-family:Arial;-inkscape-font-specification:Arial"/>
<path d="M 27.78,23.39 C 28.26,23.43 27.94,24.01 28.62,23.87 C 28.97,23.78 29.47,23.35 28.77,23.52 C 27.99,23.45 27.91,22.69 28.51,22.49 C 29.26,22.20 30.04,22.93 29.59,23.37 C 29.40,23.79 28.73,24.31 28.02,23.93 C 27.76,23.81 27.67,23.57 27.78,23.39 L 27.78,23.39 z M 29.36,23.16 C 29.82,22.58 28.28,22.42 28.42,23.05 C 28.47,23.40 29.21,23.49 29.36,23.16 L 29.36,23.16 z" id="text3683" style="font-size:2.84px;font-style:normal;font-variant:normal;font-weight:normal;font-stretch:normal;fill:#ffffff;fill-opacity:1;stroke:none;display:inline;font-family:Arial;-inkscape-font-specification:Arial"/>
<path d="M 17.66,24.28 C 17.69,24.17 17.98,24.00 17.85,23.92 C 17.54,23.81 17.23,23.70 16.92,23.58 C 16.98,23.42 17.19,23.37 17.40,23.31 C 17.87,23.16 18.33,23.01 18.80,22.87 C 19.15,22.92 18.92,23.07 18.83,23.20 C 18.66,23.43 18.49,23.65 18.32,23.88 C 18.59,23.91 18.71,24.07 18.48,24.14 C 18.23,23.98 18.12,24.09 18.04,24.25 C 17.95,24.45 17.90,24.36 17.66,24.28 z M 18.04,23.78 C 18.20,23.56 18.37,23.35 18.53,23.13 C 18.13,23.26 17.72,23.39 17.32,23.52 C 17.56,23.61 17.80,23.69 18.04,23.78 z" id="text3687" style="font-size:2.85px;font-style:normal;font-variant:normal;font-weight:normal;font-stretch:normal;fill:#ffffff;fill-opacity:1;stroke:none;display:inline;font-family:Arial;-inkscape-font-specification:Arial"/>
<path d="M 21.30,25.36 C 21.84,25.39 21.37,25.88 21.94,25.95 C 22.83,26.13 22.87,25.00 21.94,25.15 C 21.66,25.21 21.48,24.99 21.76,24.88 C 21.96,24.70 22.16,24.52 22.35,24.34 C 22.73,24.49 23.11,24.63 23.49,24.78 C 23.44,25.00 23.26,24.95 23.04,24.84 C 22.84,24.76 22.65,24.68 22.45,24.61 C 22.31,24.73 22.17,24.86 22.04,24.98 C 22.67,24.90 23.23,25.45 22.90,25.83 C 22.67,26.24 21.81,26.27 21.42,25.90 C 21.24,25.74 21.20,25.53 21.30,25.36 L 21.30,25.36 z" id="text3691" style="font-size:2.97px;font-style:normal;font-variant:normal;font-weight:normal;font-stretch:normal;fill:#ffffff;fill-opacity:1;stroke:none;display:inline;font-family:Arial;-inkscape-font-specification:Arial"/>
<path d="M 27.58,26.90 C 27.11,26.80 27.41,26.16 26.67,26.34 C 26.38,26.42 25.89,26.81 26.51,26.67 C 27.35,26.74 27.43,27.65 26.72,27.80 C 26.13,27.98 25.39,27.43 25.62,27.00 C 25.82,26.59 26.19,26.07 26.90,26.13 C 27.38,26.19 27.80,26.57 27.58,26.90 L 27.58,26.90 z M 25.97,27.01 C 25.47,27.59 26.98,27.90 26.91,27.20 C 26.90,26.84 26.16,26.69 25.97,27.01 L 25.97,27.01 z" id="text3695" style="font-size:2.94px;font-style:normal;font-variant:normal;font-weight:normal;font-stretch:normal;fill:#ffffff;fill-opacity:1;stroke:none;display:inline;font-family:Arial;-inkscape-font-specification:Arial"/>
<path d="M 15.28,28.15 C 14.91,28.10 15.05,27.95 15.18,27.80 C 15.40,27.51 15.63,27.22 15.85,26.93 C 15.49,27.05 14.81,26.87 15.39,26.77 C 15.66,26.83 16.57,26.48 16.27,26.85 C 15.94,27.28 15.61,27.72 15.28,28.15 z" id="text3699" style="font-size:2.85px;font-style:normal;font-variant:normal;font-weight:normal;font-stretch:normal;fill:#ffffff;fill-opacity:1;stroke:none;display:inline;font-family:Arial;-inkscape-font-specification:Arial"/>
<path d="M 20.08,29.97 C 20.03,30.21 19.80,30.10 19.57,30.00 C 19.19,29.85 18.82,29.71 18.44,29.56 C 18.86,29.07 19.98,29.35 20.45,28.90 C 20.70,28.40 19.67,28.36 19.44,28.56 C 18.97,28.30 20.11,28.07 20.40,28.35 C 21.20,28.67 20.65,29.39 19.90,29.36 C 19.62,29.42 18.58,29.47 19.27,29.65 C 19.54,29.76 19.81,29.86 20.08,29.97 z" id="text3703" style="font-size:2.97px;font-style:normal;font-variant:normal;font-weight:normal;font-stretch:normal;fill:#ffffff;fill-opacity:1;stroke:none;display:inline;font-family:Arial;-inkscape-font-specification:Arial"/>
<path d="M 23.41,31.02 C 23.96,31.05 23.46,31.62 24.13,31.64 C 24.85,31.71 24.77,30.96 24.21,30.90 C 24.33,30.61 25.04,31.08 25.06,30.61 C 25.04,30.15 24.33,30.33 24.12,30.38 C 23.70,30.02 25.16,29.97 25.27,30.42 C 25.66,30.77 24.91,31.04 24.85,31.08 C 25.31,31.49 24.59,32.01 23.98,31.80 C 23.54,31.69 23.22,31.33 23.41,31.02 L 23.41,31.02 z" id="text3707" style="font-size:2.94px;font-style:normal;font-variant:normal;font-weight:normal;font-stretch:normal;fill:#ffffff;fill-opacity:1;stroke:none;display:inline;font-family:Arial;-inkscape-font-specification:Arial"/>
<path d="M 12.33,30.92 C 12.52,30.50 13.39,30.14 13.92,30.61 C 14.28,31.01 13.87,31.45 13.54,31.76 C 13.15,32.22 11.92,31.89 12.10,31.36 C 12.14,31.21 12.23,31.06 12.33,30.92 z M 12.62,31.02 C 12.11,31.31 12.55,32.11 13.22,31.68 C 13.58,31.42 14.20,30.62 13.23,30.56 C 12.91,30.63 12.77,30.85 12.62,31.02 L 12.62,31.02 z" id="text3711" style="font-size:2.85px;font-style:normal;font-variant:normal;font-weight:normal;font-stretch:normal;fill:#ffffff;fill-opacity:1;stroke:none;display:inline;font-family:Arial;-inkscape-font-specification:Arial"/>
<path d="M 16.80,33.54 C 16.87,33.33 17.02,33.29 17.27,33.44 C 17.22,33.62 17.08,33.72 16.85,33.55 L 16.81,33.54 L 16.80,33.54 z" id="text3715" style="font-size:2.97px;font-style:normal;font-variant:normal;font-weight:normal;font-stretch:normal;fill:#ffffff;fill-opacity:1;stroke:none;display:inline;font-family:Arial;-inkscape-font-specification:Arial"/>
<path d="M 22.77,35.34 C 22.28,35.14 21.78,34.94 21.29,34.74 C 21.34,34.49 21.57,34.62 21.79,34.72 C 22.16,34.86 22.53,35.01 22.90,35.16 C 22.86,35.22 22.81,35.28 22.77,35.34 z M 22.45,35.81 C 21.95,35.61 21.45,35.41 20.96,35.21 C 21.01,34.96 21.24,35.09 21.46,35.19 C 21.83,35.33 22.20,35.48 22.57,35.63 C 22.53,35.69 22.49,35.75 22.45,35.81 z" id="text3719" style="font-size:2.94px;font-style:normal;font-variant:normal;font-weight:normal;font-stretch:normal;fill:#ffffff;fill-opacity:1;stroke:none;display:inline;font-family:Arial;-inkscape-font-specification:Arial"/>
<path d="M 33.16,25.67 C 33.83,25.41 34.50,25.16 35.17,24.90 C 35.53,25.07 35.15,25.10 35.00,25.18 C 34.45,25.39 33.90,25.60 33.35,25.81 C 33.29,25.76 33.23,25.72 33.16,25.67 z" id="text3723" style="font-size:2.84px;font-style:normal;font-variant:normal;font-weight:normal;font-stretch:normal;fill:#ffffff;fill-opacity:1;stroke:none;display:inline;font-family:Arial;-inkscape-font-specification:Arial"/>
<path d="M 30.96,29.61 C 31.29,29.49 31.62,29.37 31.96,29.25 C 31.89,29.00 31.83,28.75 31.77,28.49 C 32.03,28.56 32.19,28.67 32.16,28.87 C 32.12,29.25 32.45,29.08 32.76,28.96 C 32.88,28.86 33.42,29.08 33.05,29.10 C 32.80,29.19 32.54,29.28 32.29,29.36 C 32.36,29.64 32.43,29.92 32.50,30.20 C 32.24,30.13 32.08,30.02 32.10,29.82 C 32.04,29.70 32.13,29.35 31.87,29.52 C 31.66,29.58 31.47,29.71 31.26,29.73 C 31.16,29.69 31.06,29.65 30.96,29.61 z" id="text3727" style="font-size:2.94px;font-style:normal;font-variant:normal;font-weight:normal;font-stretch:normal;fill:#ffffff;fill-opacity:1;stroke:none;display:inline;font-family:Arial;-inkscape-font-specification:Arial"/>
<path d="M 29.41,33.36 C 29.46,33.29 29.50,33.23 29.54,33.17 C 29.83,33.28 30.11,33.40 30.39,33.51 C 30.35,33.58 30.30,33.64 30.26,33.70 C 29.98,33.59 29.69,33.47 29.41,33.36 z" id="text3731" style="font-size:2.94px;font-style:normal;font-variant:normal;font-weight:normal;font-stretch:normal;fill:#ffffff;fill-opacity:1;stroke:none;display:inline;font-family:Arial;-inkscape-font-specification:Arial"/>
<path d="M 27.28,38.25 C 27.38,38.11 27.48,37.97 27.58,37.83 C 27.37,37.75 27.17,37.67 26.96,37.58 C 27.00,37.52 27.04,37.47 27.09,37.41 C 27.29,37.49 27.49,37.57 27.70,37.65 C 27.80,37.51 27.89,37.37 27.99,37.23 C 28.08,37.27 28.17,37.30 28.25,37.34 C 28.16,37.48 28.06,37.62 27.96,37.76 C 28.16,37.84 28.37,37.92 28.57,38.00 C 28.53,38.06 28.49,38.12 28.45,38.18 C 28.25,38.10 28.04,38.02 27.84,37.93 C 27.74,38.07 27.64,38.22 27.54,38.36 C 27.45,38.32 27.37,38.29 27.28,38.25 z" id="text3735" style="font-size:2.94px;font-style:normal;font-variant:normal;font-weight:normal;font-stretch:normal;fill:#ffffff;fill-opacity:1;stroke:none;display:inline;font-family:Arial;-inkscape-font-specification:Arial"/>
<path d="M 35.42,21.04 C 35.77,20.38 36.77,21.23 36.02,21.55 C 35.61,21.77 35.15,21.33 35.42,21.04 L 35.42,21.04 z M 35.96,20.95 C 35.40,20.83 35.51,21.80 35.97,21.34 C 36.05,21.23 36.17,21.04 35.96,20.95 z M 35.16,22.31 C 35.79,21.95 36.42,21.58 37.05,21.22 C 37.43,21.29 36.98,21.41 36.87,21.51 C 36.36,21.80 35.86,22.09 35.35,22.38 C 35.29,22.36 35.23,22.33 35.16,22.31 z M 36.20,22.24 C 36.55,21.58 37.55,22.43 36.79,22.75 C 36.38,22.97 35.92,22.53 36.20,22.24 L 36.20,22.24 z M 36.74,22.15 C 36.17,22.03 36.29,23.00 36.75,22.54 C 36.83,22.43 36.94,22.24 36.74,22.15 L 36.74,22.15 z" id="text3739" style="font-size:2.50px;font-style:normal;font-variant:normal;font-weight:normal;font-stretch:normal;fill:#ffffff;fill-opacity:1;stroke:none;display:inline;font-family:Arial;-inkscape-font-specification:Arial"/>
<path d="M 29.81,19.83 C 30.02,19.53 30.23,19.23 30.44,18.92 C 30.77,18.97 30.71,19.15 30.66,19.32 C 30.62,19.53 30.59,19.74 30.55,19.95 C 30.86,19.74 31.17,19.54 31.49,19.33 C 31.85,19.39 31.62,19.56 31.53,19.71 C 31.38,19.91 31.23,20.12 31.09,20.33 C 30.75,20.27 31.11,20.07 31.15,19.93 C 31.25,19.79 31.35,19.65 31.45,19.50 C 31.14,19.71 30.83,19.91 30.53,20.11 C 30.23,20.05 30.45,19.82 30.43,19.68 C 30.46,19.49 30.49,19.31 30.52,19.13 C 30.34,19.38 30.16,19.64 29.98,19.90 C 29.92,19.88 29.86,19.85 29.81,19.83 z M 31.48,20.14 C 31.55,19.91 31.86,20.18 32.05,20.22 C 32.05,20.44 31.71,20.20 31.53,20.16 L 31.50,20.14 L 31.48,20.14 z" id="text3743" style="font-size:1.73px;font-style:normal;font-variant:normal;font-weight:normal;font-stretch:normal;fill:#ffffff;fill-opacity:1;stroke:none;display:inline;font-family:Arial;-inkscape-font-specification:Arial"/>
<path d="M 25.37,18.29 C 25.55,17.96 25.74,17.62 25.93,17.29 C 26.20,17.33 26.21,17.48 26.15,17.66 C 26.13,17.90 26.10,18.15 26.07,18.39 C 26.35,18.15 26.64,17.92 26.93,17.68 C 27.25,17.72 27.11,17.89 27.01,18.04 C 26.87,18.28 26.74,18.53 26.60,18.77 C 26.29,18.73 26.58,18.53 26.61,18.40 C 26.71,18.22 26.81,18.05 26.90,17.87 C 26.62,18.10 26.34,18.33 26.06,18.56 C 25.79,18.52 25.97,18.28 25.94,18.13 C 25.97,17.92 25.99,17.71 26.01,17.50 C 25.85,17.79 25.69,18.07 25.53,18.35 C 25.48,18.33 25.42,18.31 25.37,18.29 z M 27.28,18.84 C 27.37,18.69 27.54,18.52 27.22,18.48 C 26.92,18.38 27.27,18.27 27.43,18.43 C 27.62,18.52 27.54,18.05 27.78,18.23 C 27.81,18.35 27.50,18.55 27.84,18.59 C 28.16,18.66 27.87,18.84 27.69,18.67 C 27.47,18.51 27.55,19.00 27.34,18.86 L 27.31,18.85 L 27.28,18.84 z" id="text3747" style="font-size:1.75px;font-style:normal;font-variant:normal;font-weight:normal;font-stretch:normal;fill:#ffffff;fill-opacity:1;stroke:none;display:inline;font-family:Arial;-inkscape-font-specification:Arial"/>
<path d="M 21.29,16.85 C 21.51,16.54 21.73,16.23 21.95,15.92 C 22.19,15.91 21.96,16.21 21.91,16.40 C 21.77,16.70 21.64,16.97 22.00,16.58 C 22.17,16.45 22.37,16.15 22.52,16.14 C 22.69,16.18 22.33,16.49 22.26,16.64 C 22.12,16.78 21.99,17.17 21.85,17.07 C 22.03,16.81 22.22,16.55 22.40,16.29 C 22.15,16.52 21.90,16.76 21.65,16.99 C 21.48,16.96 21.75,16.64 21.78,16.47 C 21.86,16.27 22.03,15.93 21.78,16.31 C 21.65,16.50 21.51,16.70 21.38,16.89 C 21.35,16.88 21.32,16.87 21.29,16.85 z M 22.08,17.16 C 22.30,16.85 22.52,16.54 22.74,16.23 C 22.89,16.33 23.26,16.29 23.14,16.61 C 22.96,16.97 22.64,16.76 22.73,17.12 C 22.76,17.38 22.51,17.49 22.60,17.19 C 22.74,16.94 22.52,16.58 22.33,16.97 C 22.23,17.08 22.18,17.27 22.08,17.16 z M 22.54,16.67 C 22.67,16.88 23.28,16.61 22.92,16.43 C 22.74,16.29 22.71,16.44 22.54,16.67 z M 23.47,17.29 C 23.59,17.63 22.55,17.70 22.95,17.14 C 23.13,16.52 24.12,16.38 23.77,16.96 C 23.76,16.75 23.48,16.48 23.16,16.98 C 22.84,17.34 23.12,17.68 23.47,17.29 L 23.47,17.29 z" id="text3751" style="font-size:1.25px;font-style:normal;font-variant:normal;font-weight:normal;font-stretch:normal;fill:#ffffff;fill-opacity:1;stroke:none;display:inline;font-family:Arial;-inkscape-font-specification:Arial"/>
<path d="M 10.50,25.47 C 10.54,25.50 10.58,25.53 10.62,25.56 C 10.46,25.74 10.22,25.87 10.02,25.84 C 9.82,25.81 9.65,25.68 9.66,25.46 C 9.68,25.20 9.85,24.90 10.08,24.70 C 10.38,24.44 10.80,24.47 10.92,24.72 C 10.96,24.81 10.97,24.96 10.90,25.06 C 10.85,25.05 10.80,25.05 10.75,25.04 C 10.80,24.91 10.79,24.76 10.68,24.71 C 10.55,24.63 10.34,24.65 10.18,24.80 C 10.00,24.96 9.86,25.18 9.83,25.39 C 9.79,25.65 10.10,25.79 10.36,25.60 C 10.41,25.56 10.46,25.52 10.50,25.47 L 10.50,25.47 z M 10.55,26.01 C 10.80,25.60 11.06,25.20 11.32,24.79 C 11.57,24.88 11.83,24.98 12.08,25.07 C 12.05,25.12 12.02,25.16 11.99,25.21 C 11.78,25.14 11.58,25.06 11.37,24.99 C 11.29,25.11 11.21,25.23 11.13,25.36 C 11.33,25.43 11.52,25.50 11.71,25.57 C 11.68,25.62 11.65,25.67 11.62,25.71 C 11.43,25.64 11.23,25.57 11.04,25.50 C 10.95,25.64 10.86,25.78 10.78,25.92 C 10.99,26.00 11.21,26.07 11.42,26.15 C 11.39,26.20 11.36,26.25 11.33,26.30 C 11.07,26.20 10.81,26.11 10.55,26.01 z" id="text3755" style="font-size:1.75px;font-style:normal;font-variant:normal;font-weight:normal;font-stretch:normal;fill:#ffffff;fill-opacity:1;stroke:none;display:inline;font-family:Arial;-inkscape-font-specification:Arial"/>
<path d="M 12.25,21.40 C 12.37,21.21 12.57,21.04 12.75,21.01 C 12.97,20.97 13.12,21.13 13.04,21.37 C 12.96,21.61 12.74,21.88 12.50,21.98 C 12.25,22.08 12.04,21.94 12.11,21.68 C 12.14,21.58 12.19,21.49 12.25,21.40 z M 12.34,21.43 C 12.22,21.59 12.17,21.79 12.27,21.86 C 12.36,21.94 12.54,21.90 12.68,21.75 C 12.83,21.60 12.97,21.37 12.93,21.23 C 12.89,21.07 12.64,21.09 12.47,21.28 C 12.42,21.33 12.38,21.38 12.34,21.43 z M 12.69,22.15 C 12.91,21.84 13.13,21.53 13.35,21.21 C 13.50,21.27 13.65,21.33 13.80,21.39 C 13.78,21.43 13.75,21.47 13.73,21.50 C 13.61,21.45 13.48,21.41 13.36,21.36 C 13.29,21.46 13.23,21.55 13.16,21.65 C 13.26,21.69 13.37,21.73 13.47,21.77 C 13.45,21.81 13.42,21.85 13.40,21.88 C 13.29,21.84 13.19,21.80 13.08,21.76 C 12.98,21.90 12.88,22.04 12.78,22.18 C 12.75,22.17 12.72,22.16 12.69,22.15 z M 13.27,22.37 C 13.49,22.06 13.71,21.75 13.93,21.44 C 14.08,21.50 14.23,21.56 14.38,21.62 C 14.35,21.65 14.33,21.69 14.30,21.73 C 14.18,21.68 14.06,21.63 13.94,21.58 C 13.87,21.68 13.80,21.78 13.73,21.87 C 13.84,21.91 13.94,21.96 14.05,22.00 C 14.02,22.03 14.00,22.07 13.97,22.11 C 13.87,22.07 13.76,22.03 13.66,21.98 C 13.56,22.13 13.46,22.27 13.36,22.41 C 13.33,22.40 13.30,22.39 13.27,22.37 z" id="text3759" style="font-size:1.25px;font-style:normal;font-variant:normal;font-weight:normal;font-stretch:normal;fill:#ffffff;fill-opacity:1;stroke:none;display:inline;font-family:Arial;-inkscape-font-specification:Arial"/>
<path d="M 14.53,18.21 L 14.47,18.70 L 15.61,17.60 L 16.76,18.07" id="p3763" style="fill:none;fill-rule:evenodd;stroke:#ffffff;stroke-width:0.2;stroke-linecap:butt;stroke-linejoin:bevel;stroke-miterlimit:4;stroke-dasharray:none;stroke-opacity:1"/>
<path d="M 16.90,15.70 L 19.03,14.72" id="p3765" style="fill:none;fill-rule:evenodd;stroke:#ffffff;stroke-width:0.2;stroke-linecap:butt;stroke-linejoin:miter;stroke-miterlimit:4;stroke-dasharray:none;stroke-opacity:1"/>
<path d="M 17.94,15.62 L 18.60,15.84" id="p3767" style="fill:none;fill-opacity:1;fill-rule:evenodd;stroke:#ffffff;stroke-width:0.2;stroke-linecap:butt;stroke-linejoin:miter;marker:none;stroke-miterlimit:4;stroke-dasharray:none;stroke-dashoffset:0;stroke-opacity:1;visibility:visible;display:inline;overflow:visible;enable-background:accumulate"/>
<path d="M 17.33,14.61 L 17.96,14.86" id="p3769" style="fill:none;fill-opacity:1;fill-rule:evenodd;stroke:#ffffff;stroke-width:0.2;stroke-linecap:butt;stroke-linejoin:miter;marker:none;stroke-miterlimit:4;stroke-dasharray:none;stroke-dashoffset:0;stroke-opacity:1;visibility:visible;display:inline;overflow:visible;enable-background:accumulate"/>
<path d="M 17.82,14.45 L 17.45,15.06" id="p3771" style="fill:none;fill-opacity:1;fill-rule:evenodd;stroke:#ffffff;stroke-width:0.2;stroke-linecap:butt;stroke-linejoin:miter;marker:none;stroke-miterlimit:4;stroke-dasharray:none;stroke-dashoffset:0;stroke-opacity:1;visibility:visible;display:inline;overflow:visible;enable-background:accumulate"/>
<path d="M 7.38,28.33 C 7.48,28.19 7.65,28.05 7.80,28.01 C 8.02,27.95 8.19,28.08 8.12,28.29 C 8.06,28.48 7.88,28.70 7.67,28.81 C 7.42,28.93 7.20,28.82 7.25,28.60 C 7.26,28.51 7.31,28.42 7.38,28.33 L 7.38,28.33 z M 7.46,28.36 C 7.37,28.48 7.31,28.63 7.38,28.71 C 7.44,28.79 7.61,28.78 7.75,28.66 C 7.88,28.55 7.99,28.41 8.02,28.28 C 8.05,28.11 7.89,28.04 7.71,28.13 C 7.61,28.18 7.53,28.28 7.46,28.36 L 7.46,28.36 z M 7.79,28.98 C 7.99,28.71 8.19,28.44 8.40,28.17 C 8.43,28.18 8.45,28.19 8.48,28.20 C 8.43,28.45 8.38,28.70 8.33,28.95 C 8.49,28.74 8.65,28.53 8.81,28.32 C 8.84,28.33 8.86,28.34 8.89,28.35 C 8.69,28.62 8.48,28.89 8.28,29.15 C 8.25,29.14 8.22,29.13 8.19,29.12 C 8.24,28.87 8.30,28.62 8.35,28.37 C 8.19,28.58 8.02,28.79 7.86,29.00 C 7.84,28.99 7.81,28.98 7.79,28.98 z" id="text3773" style="font-size:1.11px;font-style:normal;font-variant:normal;font-weight:normal;font-stretch:normal;fill:#ffffff;fill-opacity:1;stroke:none;display:inline;font-family:Arial;-inkscape-font-specification:Arial"/>
<path d="M 8.46,30.02 C 8.48,30.04 8.50,30.05 8.52,30.07 C 8.43,30.15 8.32,30.22 8.22,30.23 C 8.14,30.23 8.07,30.20 8.03,30.15 C 7.98,30.09 8.01,29.98 8.07,29.88 C 8.14,29.76 8.26,29.63 8.39,29.56 C 8.54,29.48 8.68,29.50 8.74,29.58 C 8.78,29.63 8.77,29.71 8.72,29.79 C 8.69,29.79 8.67,29.79 8.64,29.79 C 8.67,29.72 8.68,29.65 8.64,29.61 C 8.58,29.57 8.48,29.57 8.38,29.64 C 8.27,29.71 8.19,29.82 8.13,29.93 C 8.09,30.00 8.09,30.08 8.13,30.11 C 8.18,30.16 8.28,30.16 8.38,30.09 C 8.41,30.07 8.44,30.05 8.46,30.02 L 8.46,30.02 z" id="text3781" style="font-size:0.94px;font-style:normal;font-variant:normal;font-weight:normal;font-stretch:normal;fill:#ffffff;fill-opacity:1;stroke:none;display:inline;font-family:Arial;-inkscape-font-specification:Arial"/>
<path d="M 7.24,29.87 L 9.36,28.88" id="p3785" style="fill:none;fill-rule:evenodd;stroke:#ffffff;stroke-width:0.2;stroke-linecap:butt;stroke-linejoin:miter;stroke-miterlimit:4;stroke-dasharray:none;stroke-opacity:1;display:inline"/>
<path d="M 29.53,9.05 L 30.00,9.25 L 29.73,9.82" id="p3381" style="fill:none;fill-opacity:1;fill-rule:evenodd;stroke:#10171d;stroke-width:0.30;stroke-linecap:round;stroke-linejoin:round;marker:none;stroke-miterlimit:4;stroke-dasharray:none;stroke-dashoffset:0;stroke-opacity:1;visibility:visible;display:inline;overflow:visible;enable-background:accumulate"/>
<path d="M 29.15,9.92 L 29.60,10.07 L 29.24,10.67" id="p3383" style="fill:none;fill-opacity:1;fill-rule:evenodd;stroke:#10171d;stroke-width:0.30;stroke-linecap:round;stroke-linejoin:round;marker:none;stroke-miterlimit:4;stroke-dasharray:none;stroke-dashoffset:0;stroke-opacity:1;visibility:visible;display:inline;overflow:visible;enable-background:accumulate"/>
<path d="M 28.58,10.65 L 29.01,10.82" id="p3385" style="fill:none;fill-opacity:1;fill-rule:evenodd;stroke:#10171d;stroke-width:0.30;stroke-linecap:round;stroke-linejoin:round;marker:none;stroke-miterlimit:4;stroke-dasharray:none;stroke-dashoffset:0;stroke-opacity:1;visibility:visible;display:inline;overflow:visible;enable-background:accumulate"/>
<path d="M 29.32,11.08 L 29.21,11.24" id="p3387" style="fill:none;fill-opacity:1;fill-rule:evenodd;stroke:#10171d;stroke-width:0.30;stroke-linecap:round;stroke-linejoin:round;marker:none;stroke-miterlimit:4;stroke-dasharray:none;stroke-dashoffset:0;stroke-opacity:1;visibility:visible;display:inline;overflow:visible;enable-background:accumulate"/>
<path d="M 31.12,9.62 L 30.82,10.18" id="p3389" style="fill:none;fill-opacity:1;fill-rule:evenodd;stroke:#10171d;stroke-width:0.30;stroke-linecap:round;stroke-linejoin:round;marker:none;stroke-miterlimit:4;stroke-dasharray:none;stroke-dashoffset:0;stroke-opacity:1;visibility:visible;display:inline;overflow:visible;enable-background:accumulate"/>
<path d="M 30.63,10.56 L 30.32,11.10" id="p3391" style="fill:none;fill-opacity:1;fill-rule:evenodd;stroke:#10171d;stroke-width:0.30;stroke-linecap:round;stroke-linejoin:round;marker:none;stroke-miterlimit:4;stroke-dasharray:none;stroke-dashoffset:0;stroke-opacity:1;visibility:visible;display:inline;overflow:visible;enable-background:accumulate"/>
<path d="M 31.59,9.82 L 31.30,10.38" id="p3393" style="fill:none;fill-opacity:1;fill-rule:evenodd;stroke:#10171d;stroke-width:0.30;stroke-linecap:round;stroke-linejoin:round;marker:none;stroke-miterlimit:4;stroke-dasharray:none;stroke-dashoffset:0;stroke-opacity:1;visibility:visible;display:inline;overflow:visible;enable-background:accumulate"/>
<path d="M 32.21,10.07 L 31.92,10.62" id="p3395" style="fill:none;fill-opacity:1;fill-rule:evenodd;stroke:#10171d;stroke-width:0.30;stroke-linecap:round;stroke-linejoin:round;marker:none;stroke-miterlimit:4;stroke-dasharray:none;stroke-dashoffset:0;stroke-opacity:1;visibility:visible;display:inline;overflow:visible;enable-background:accumulate"/>
<path d="M 31.66,11.01 L 31.36,11.57" id="p3397" style="fill:none;fill-opacity:1;fill-rule:evenodd;stroke:#10171d;stroke-width:0.30;stroke-linecap:round;stroke-linejoin:round;marker:none;stroke-miterlimit:4;stroke-dasharray:none;stroke-dashoffset:0;stroke-opacity:1;visibility:visible;display:inline;overflow:visible;enable-background:accumulate"/>
<path d="M 33.34,10.29 L 33.05,10.85" id="p3399" style="fill:none;fill-opacity:1;fill-rule:evenodd;stroke:#10171d;stroke-width:0.30;stroke-linecap:round;stroke-linejoin:round;marker:none;stroke-miterlimit:4;stroke-dasharray:none;stroke-dashoffset:0;stroke-opacity:1;visibility:visible;display:inline;overflow:visible;enable-background:accumulate"/>
<path d="M 32.85,11.28 L 32.56,11.83" id="p3401" style="fill:none;fill-opacity:1;fill-rule:evenodd;stroke:#10171d;stroke-width:0.30;stroke-linecap:round;stroke-linejoin:round;marker:none;stroke-miterlimit:4;stroke-dasharray:none;stroke-dashoffset:0;stroke-opacity:1;visibility:visible;display:inline;overflow:visible;enable-background:accumulate"/>
<path d="M 33.78,10.51 L 33.49,11.06" id="p3403" style="fill:none;fill-opacity:1;fill-rule:evenodd;stroke:#10171d;stroke-width:0.30;stroke-linecap:round;stroke-linejoin:round;marker:none;stroke-miterlimit:4;stroke-dasharray:none;stroke-dashoffset:0;stroke-opacity:1;visibility:visible;display:inline;overflow:visible;enable-background:accumulate"/>
<path d="M 34.00,11.57 L 33.70,12.13" id="p3405" style="fill:none;fill-opacity:1;fill-rule:evenodd;stroke:#10171d;stroke-width:0.30;stroke-linecap:round;stroke-linejoin:round;marker:none;stroke-miterlimit:4;stroke-dasharray:none;stroke-dashoffset:0;stroke-opacity:1;visibility:visible;display:inline;overflow:visible;enable-background:accumulate"/>
<path d="M 34.88,10.80 L 34.59,11.36" id="p3407" style="fill:none;fill-opacity:1;fill-rule:evenodd;stroke:#10171d;stroke-width:0.30;stroke-linecap:round;stroke-linejoin:round;marker:none;stroke-miterlimit:4;stroke-dasharray:none;stroke-dashoffset:0;stroke-opacity:1;visibility:visible;display:inline;overflow:visible;enable-background:accumulate"/>
<path d="M 35.55,11.06 L 35.26,11.62" id="p3409" style="fill:none;fill-opacity:1;fill-rule:evenodd;stroke:#10171d;stroke-width:0.30;stroke-linecap:round;stroke-linejoin:round;marker:none;stroke-miterlimit:4;stroke-dasharray:none;stroke-dashoffset:0;stroke-opacity:1;visibility:visible;display:inline;overflow:visible;enable-background:accumulate"/>
<path d="M 35.08,12.01 L 34.78,12.57" id="p3411" style="fill:none;fill-opacity:1;fill-rule:evenodd;stroke:#10171d;stroke-width:0.30;stroke-linecap:round;stroke-linejoin:round;marker:none;stroke-miterlimit:4;stroke-dasharray:none;stroke-dashoffset:0;stroke-opacity:1;visibility:visible;display:inline;overflow:visible;enable-background:accumulate"/>
<path d="M 31.36,10.57 L 31.66,10.67" id="p3413" style="fill:none;fill-opacity:1;fill-rule:evenodd;stroke:#10171d;stroke-width:0.30;stroke-linecap:round;stroke-linejoin:round;marker:none;stroke-miterlimit:4;stroke-dasharray:none;stroke-dashoffset:0;stroke-opacity:1;visibility:visible;display:inline;overflow:visible;enable-background:accumulate"/>
<path d="M 34.05,10.46 L 34.34,10.56" id="p3415" style="fill:none;fill-opacity:1;fill-rule:evenodd;stroke:#10171d;stroke-width:0.30;stroke-linecap:round;stroke-linejoin:round;marker:none;stroke-miterlimit:4;stroke-dasharray:none;stroke-dashoffset:0;stroke-opacity:1;visibility:visible;display:inline;overflow:visible;enable-background:accumulate"/>
<path d="M 33.59,11.29 L 33.88,11.39" id="p3417" style="fill:none;fill-opacity:1;fill-rule:evenodd;stroke:#10171d;stroke-width:0.30;stroke-linecap:round;stroke-linejoin:round;marker:none;stroke-miterlimit:4;stroke-dasharray:none;stroke-dashoffset:0;stroke-opacity:1;visibility:visible;display:inline;overflow:visible;enable-background:accumulate"/>
<path d="M 33.13,12.06 L 33.42,12.16" id="p3419" style="fill:none;fill-opacity:1;fill-rule:evenodd;stroke:#10171d;stroke-width:0.30;stroke-linecap:round;stroke-linejoin:round;marker:none;stroke-miterlimit:4;stroke-dasharray:none;stroke-dashoffset:0;stroke-opacity:1;visibility:visible;display:inline;overflow:visible;enable-background:accumulate"/>
<path d="M 35.09,10.80 L 35.39,10.90" id="p3421" style="fill:none;fill-opacity:1;fill-rule:evenodd;stroke:#10171d;stroke-width:0.30;stroke-linecap:round;stroke-linejoin:round;marker:none;stroke-miterlimit:4;stroke-dasharray:none;stroke-dashoffset:0;stroke-opacity:1;visibility:visible;display:inline;overflow:visible;enable-background:accumulate"/>
<path d="M 34.68,11.65 L 34.98,11.75" id="p3423" style="fill:none;fill-opacity:1;fill-rule:evenodd;stroke:#10171d;stroke-width:0.30;stroke-linecap:round;stroke-linejoin:round;marker:none;stroke-miterlimit:4;stroke-dasharray:none;stroke-dashoffset:0;stroke-opacity:1;visibility:visible;display:inline;overflow:visible;enable-background:accumulate"/>
<path d="M 34.21,12.52 L 34.50,12.62" id="p3425" style="fill:none;fill-opacity:1;fill-rule:evenodd;stroke:#10171d;stroke-width:0.30;stroke-linecap:round;stroke-linejoin:round;marker:none;stroke-miterlimit:4;stroke-dasharray:none;stroke-dashoffset:0;stroke-opacity:1;visibility:visible;display:inline;overflow:visible;enable-background:accumulate"/>
<path d="M 25.63,10.16 L 35.00,13.26 L 36.32,10.08" id="p3429" style="fill:none;fill-opacity:1;fill-rule:evenodd;stroke:#10171d;stroke-width:0.2;stroke-linecap:round;stroke-linejoin:round;stroke-miterlimit:4;stroke-dasharray:none;stroke-opacity:1;display:inline"/>
<path d="M 25.55,13.85 C 25.70,13.60 25.85,13.44 26.21,13.55 C 26.57,13.65 30.91,15.18 31.32,15.39 C 31.73,15.59 31.58,15.85 31.53,16.15 C 31.48,16.46 31.32,16.82 31.27,17.07 C 31.22,17.33 30.91,17.43 30.45,17.28 C 29.99,17.12 25.80,15.59 25.44,15.49 C 25.09,15.39 25.23,15.03 25.28,14.77 C 25.33,14.52 25.40,14.23 25.55,13.85 z" id="p3461" style="fill:none;fill-opacity:1;fill-rule:evenodd;stroke:#0f1828;stroke-width:0.2;stroke-linecap:butt;stroke-linejoin:miter;stroke-miterlimit:4;stroke-dasharray:none;stroke-opacity:1;display:inline"/>
<path d="M 21.28,43.59 C 21.42,42.57 21.74,42.36 21.90,41.96 C 22.10,41.46 33.27,21.75 34.28,19.84 C 35.28,17.93 35.88,15.93 37.59,11.81 C 38.53,9.53 39.44,7.74 40.12,6.43" id="p3470" style="fill:none;fill-opacity:1;fill-rule:evenodd;stroke:#0c0f1a;stroke-width:0.30;stroke-linecap:butt;stroke-linejoin:miter;stroke-miterlimit:4;stroke-dasharray:none;stroke-opacity:1;display:inline"/>
<path d="M 2.71,30.70 C 1.60,33.02 2.51,34.32 3.41,34.83 C 4.32,35.33 24.22,45.08 25.73,45.78 C 27.24,46.49 29.85,46.08 30.86,43.87 C 31.86,41.66 40.51,24.37 41.81,21.66 C 43.12,18.94 43.62,16.43 44.73,14.02 C 45.84,11.60 46.24,10.50 46.64,9.59 C 47.04,8.69 46.24,8.29 45.03,7.88 C 43.82,7.48 24.22,1.85 23.22,1.65 C 22.21,1.45 21.51,1.85 21.01,2.66 C 20.50,3.46 17.89,8.29 17.08,10.30 C 16.28,12.31 14.67,14.52 13.37,16.13 C 12.06,17.74 3.51,29.40 2.71,30.70 z" id="stroke01" style="fill:none;fill-opacity:1;fill-rule:evenodd;stroke:#141414;stroke-width:0.5;stroke-linecap:butt;stroke-linejoin:miter;stroke-miterlimit:4;stroke-dasharray:none;stroke-opacity:1"/>
</g>
</svg>
