<?xml version="1.0" encoding="UTF-8" standalone="no"?>
<!DOCTYPE svg PUBLIC "-//W3C//DTD SVG 1.0//EN" "http://www.w3.org/TR/2001/REC-SVG-20010904/DTD/svg10.dtd">
<svg xmlns:svg="http://www.w3.org/2000/svg" xmlns="http://www.w3.org/2000/svg" version="1.0" width="100%" height="100%" viewBox="0 0 48 48" id="_camera01">
<defs id="defs2385"/>
<path d="M 7.09,36.00 C 7.23,36.14 18.65,44.87 18.65,44.87 C 18.65,44.87 18.56,45.02 18.73,45.18 C 18.88,45.34 19.12,45.50 20.31,45.42 C 21.49,45.34 40.66,42.72 41.13,42.72 C 41.60,42.72 41.76,41.69 41.84,41.31 C 41.92,40.91 42.64,11.85 42.71,11.29 C 42.79,10.74 41.60,10.34 41.37,10.19 C 41.13,10.03 40.81,10.19 39.31,9.79 C 37.81,9.39 37.25,9.32 36.93,9.16 C 36.61,9.01 36.14,9.16 34.95,8.84 C 33.76,8.53 25.92,6.46 25.92,6.46 C 25.92,6.46 25.29,6.63 23.31,6.71 C 21.34,6.78 8.27,7.34 7.48,7.34 C 6.69,7.34 6.29,7.41 6.29,8.69 C 6.29,9.95 6.77,34.25 6.77,35.13 C 6.77,35.47 6.94,35.86 7.09,36.00 L 7.09,36.00 z" id="p2482" style="fill:#565656;fill-opacity:1;fill-rule:evenodd;stroke:none"/>
<path d="M 22.69,6.73 C 19.98,6.83 8.24,7.33 7.47,7.33 C 7.02,7.33 6.70,7.37 6.50,7.64 C 8.18,8.16 11.16,9.02 11.99,9.30 C 13.15,9.68 12.85,9.56 13.57,8.88 C 14.29,8.19 18.39,8.03 19.97,7.94 C 21.54,7.85 22.48,8.30 22.48,8.30 L 22.91,6.94 L 22.69,6.73 L 22.69,6.73 z" id="p3775" style="fill:#b9b9b9;fill-opacity:0.27;fill-rule:evenodd;stroke:none"/>
<path d="M 23.17,6.89 C 23.17,6.89 23.17,8.64 22.49,8.78 C 21.80,8.94 18.85,9.47 18.85,9.47 L 15.90,9.62 C 15.90,9.62 18.10,11.13 18.40,11.13 C 18.70,11.13 20.98,11.81 20.98,11.81 L 27.03,11.51 C 27.03,11.51 24.98,10.83 24.68,10.15 C 24.38,9.47 25.36,8.18 25.28,7.50 C 25.22,6.81 23.09,6.89 23.17,6.89 z" id="p3753" style="fill:#0e0e0e;fill-opacity:0.18;fill-rule:evenodd;stroke:none;display:inline"/>
<path d="M 25.93,6.48 C 25.93,6.48 25.31,6.61 23.33,6.70 C 21.68,6.75 13.59,7.11 10.08,7.24 C 16.14,7.47 24.25,7.85 26.63,8.42 C 29.81,9.18 36.27,10.91 36.27,10.91 L 42.31,10.69 C 41.96,10.45 41.50,10.28 41.37,10.18 C 41.13,10.02 40.81,10.18 39.31,9.78 C 37.80,9.39 37.25,9.31 36.94,9.15 C 36.62,8.99 36.13,9.16 34.95,8.85 C 33.75,8.53 25.93,6.48 25.93,6.48 z" id="p3743" style="fill:#b9b9b9;fill-opacity:0.16;fill-rule:evenodd;stroke:none"/>
<path d="M 27.36,6.84 C 26.63,8.67 26.58,10.40 28.16,11.36 C 29.78,12.36 37.54,11.30 42.12,10.58 C 41.82,10.40 41.48,10.26 41.37,10.18 C 41.13,10.02 40.81,10.18 39.31,9.78 C 37.80,9.39 37.25,9.31 36.94,9.15 C 36.62,8.99 36.13,9.16 34.95,8.85 C 33.94,8.58 29.14,7.31 27.36,6.84 z" id="p3745" style="fill:#b9b9b9;fill-opacity:0.16;fill-rule:evenodd;stroke:none"/>
<path d="M 6.42,7.78 C 6.33,7.99 6.29,8.28 6.29,8.69 C 6.29,8.97 6.35,12.44 6.39,14.39 C 8.75,14.76 11.56,15.34 13.24,16.21 C 16.46,17.89 19.94,26.27 19.94,26.27 L 20.33,12.09 L 6.42,7.78 z" id="p3607" style="fill:#282828;fill-opacity:0.26;fill-rule:evenodd;stroke:none;display:inline"/>
<path d="M 6.42,7.78 C 6.33,7.99 6.29,8.28 6.29,8.69 C 6.29,9.17 6.39,14.14 6.48,18.70 C 8.78,19.37 12.38,19.14 15.06,17.40 C 19.18,14.69 20.33,11.96 20.33,11.96 L 6.42,7.78 z" id="p3613" style="fill:#282828;fill-opacity:0.26;fill-rule:evenodd;stroke:none;display:inline"/>
<path d="M 6.50,7.64 C 6.37,7.83 6.29,8.15 6.29,8.69 C 6.29,8.76 6.32,9.98 6.33,10.18 C 8.62,10.65 11.92,11.36 14.54,12.25 C 18.41,13.53 20.57,16.73 20.57,16.73 L 20.72,12.36 L 6.50,7.64 z" id="p3610" style="fill:#282828;fill-opacity:0.26;fill-rule:evenodd;stroke:none;display:inline"/>
<path d="M 18.84,19.66 L 16.94,18.82 L 17.05,12.80 L 18.90,13.35 L 18.84,19.66 z" id="p3583" style="fill:#191919;fill-opacity:1;fill-rule:evenodd;stroke:none;display:inline"/>
<path d="M 41.42,10.21 C 35.89,10.49 21.80,11.18 20.81,11.18 C 19.63,11.18 19.04,11.60 18.94,12.09 C 18.84,12.57 18.47,42.35 18.46,44.70 C 18.46,44.71 18.63,44.86 18.63,44.86 C 18.63,44.86 18.56,45.03 18.73,45.19 C 18.88,45.35 19.11,45.52 20.30,45.43 C 21.49,45.35 40.65,42.73 41.12,42.73 C 41.60,42.73 41.77,41.70 41.85,41.31 C 41.93,40.92 42.62,11.86 42.71,11.30 C 42.77,10.77 41.73,10.38 41.42,10.21 z" id="p3258" style="fill:#0c0c0c;fill-opacity:1;fill-rule:evenodd;stroke:none"/>
<path d="M 17.06,12.82 L 17.03,13.76 L 18.17,14.15 L 18.81,13.33 L 17.06,12.82 L 17.06,12.82 z" id="p3588" style="fill:#8c8c8c;fill-opacity:0.26;fill-rule:evenodd;stroke:none;display:inline"/>
<path d="M 42.71,11.21 L 21.69,12.39 C 22.19,12.59 21.61,13.86 21.61,15.16 C 21.61,16.44 22.08,16.65 23.58,20.52 C 25.06,24.38 31.40,19.82 35.27,23.09 C 39.14,26.36 40.64,39.23 40.64,40.22 C 40.64,40.83 41.09,41.45 41.67,42.03 C 41.75,41.76 41.81,41.48 41.85,41.31 C 41.93,40.92 42.62,11.86 42.71,11.30 C 42.71,11.28 42.71,11.24 42.71,11.21 L 42.71,11.21 z" id="p3267" style="fill:#fcfcfc;fill-opacity:0.48;fill-rule:evenodd;stroke:none;display:inline"/>
<path d="M 42.71,11.21 L 28.36,12.03 C 29.35,12.88 30.85,12.93 35.97,12.97 C 37.33,12.98 38.04,13.22 38.27,13.60 L 40.40,13.49 L 40.55,20.55 C 40.55,20.55 41.43,20.13 42.46,19.45 C 42.54,16.26 42.68,11.45 42.71,11.30 C 42.71,11.28 42.71,11.24 42.71,11.21 L 42.71,11.21 z" id="p3574" style="fill:#b9b9b9;fill-opacity:0.83;fill-rule:evenodd;stroke:none;display:inline"/>
<path d="M 42.22,29.15 C 40.67,30.16 38.20,31.65 35.22,33.19 C 30.32,35.70 29.64,36.12 22.51,30.68 C 21.26,33.32 20.84,35.42 18.60,33.19 C 18.54,38.08 18.46,43.91 18.46,44.70 C 18.46,44.71 18.63,44.86 18.63,44.86 C 18.63,44.86 18.56,45.03 18.73,45.19 C 18.88,45.35 19.11,45.52 20.30,45.43 C 21.49,45.35 40.65,42.73 41.12,42.73 C 41.60,42.73 41.77,41.70 41.85,41.31 C 41.89,41.14 42.06,35.40 42.22,29.15 L 42.22,29.15 z" id="p3415" style="fill:#5f5f5f;fill-opacity:0.70;fill-rule:evenodd;stroke:none;display:inline"/>
<path d="M 18.73,23.22 C 18.59,32.16 18.46,43.29 18.46,44.70 C 18.46,44.71 18.63,44.86 18.63,44.86 C 18.63,44.86 18.56,45.03 18.73,45.19 C 18.88,45.35 19.11,45.52 20.30,45.43 C 20.31,45.43 20.43,45.40 20.45,45.40 C 20.32,44.18 20.23,42.75 20.36,41.52 C 20.66,38.76 20.64,40.05 20.94,41.73 C 21.23,43.41 21.54,43.49 22.72,43.49 C 23.87,43.49 30.56,42.13 26.22,44.67 C 32.28,43.88 40.80,42.73 41.12,42.73 C 41.47,42.73 41.66,42.19 41.76,41.73 C 40.87,41.07 39.45,40.43 37.24,40.34 C 32.60,40.14 23.51,38.28 23.61,34.03 C 23.70,29.78 20.67,21.09 20.67,24.54 C 20.46,26.92 20.64,30.74 20.54,30.95 C 20.44,31.14 19.77,32.34 18.78,23.55 C 18.77,23.40 18.74,23.34 18.73,23.22 L 18.73,23.22 z" id="p3421" style="fill:#3a3a3a;fill-opacity:0.62;fill-rule:evenodd;stroke:none;display:inline"/>
<path d="M 19.46,11.39 L 41.56,10.21" id="p3263" style="fill:none;stroke:#a3a3a3;stroke-width:0.38;stroke-linecap:round;stroke-linejoin:miter;stroke-miterlimit:4;stroke-dasharray:none;stroke-opacity:0.81;display:inline"/>
<path d="M 19.10,45.18 L 19.60,11.89" id="p3261" style="fill:none;stroke:#929292;stroke-width:0.38;stroke-linecap:round;stroke-linejoin:miter;stroke-miterlimit:4;stroke-dasharray:none;stroke-opacity:0.88;display:inline"/>
<path d="M 16.96,17.97 L 16.93,18.82 L 18.84,19.67 L 18.84,19.58 L 18.14,18.48 L 16.96,17.97 z" id="p3586" style="fill:#b9b9b9;fill-opacity:0.54;fill-rule:evenodd;stroke:none;display:inline"/>
<path d="M 17.16,17.94 L 18.17,18.36 L 18.17,14.45 L 17.20,14.13 L 17.16,17.94 z" id="p3592" style="fill:#000000;fill-opacity:0.83;fill-rule:evenodd;stroke:none;display:inline"/>
<path d="M 39.13,23.85 C 39.13,23.78 39.08,27.95 38.91,29.71 C 40.21,31.10 40.92,31.94 42.09,33.64 C 42.18,30.42 42.24,27.86 42.34,24.24 C 40.54,27.92 40.63,26.19 39.13,23.85 L 39.13,23.85 z" id="p3424" style="fill:#070707;fill-opacity:0.51;fill-rule:evenodd;stroke:none;display:inline"/>
<path d="M 23.78,14.85 C 27.94,14.66 38.15,14.17 38.64,14.17 C 39.14,14.17 39.97,14.40 39.97,16.57 C 39.97,18.75 39.34,37.55 39.34,38.64 C 39.34,39.73 39.14,39.73 37.75,39.93 C 36.36,40.12 24.77,41.71 24.08,41.71 C 23.38,41.71 22.49,41.41 22.49,40.42 C 22.49,39.43 22.69,17.53 22.59,16.54 C 22.49,15.55 23.19,14.95 23.78,14.85 L 23.78,14.85 z" id="p3270" style="fill:#525252;fill-opacity:0.98;fill-rule:evenodd;stroke:none;display:inline"/>
<path d="M 38.64,14.15 C 38.15,14.15 27.95,14.65 23.79,14.84 C 23.31,14.92 22.79,15.32 22.64,15.97 C 29.35,16.86 35.00,16.38 39.82,21.61 C 39.87,19.88 39.97,17.06 39.97,16.57 C 39.97,14.40 39.14,14.15 38.64,14.15 z" id="p3511" style="fill:#e6e6e6;fill-opacity:0.11;fill-rule:evenodd;stroke:none"/>
<path d="M 38.64,14.15 C 38.15,14.15 27.95,14.65 23.79,14.84 C 23.19,14.94 22.50,15.55 22.61,16.54 C 22.63,16.81 22.65,18.75 22.64,21.30 C 28.48,22.24 35.64,20.73 37.16,22.19 C 37.74,22.74 38.66,23.85 39.73,25.18 C 39.84,21.48 39.97,17.40 39.97,16.57 C 39.97,14.40 39.14,14.15 38.64,14.15 z" id="p3513" style="fill:#e6e6e6;fill-opacity:0.11;fill-rule:evenodd;stroke:none"/>
<path d="M 23.99,23.00 C 23.36,23.30 22.87,27.61 23.69,28.76 C 24.32,29.65 24.26,32.54 22.51,38.22 C 22.51,38.64 22.48,40.34 22.48,40.43 C 22.48,41.42 23.39,41.70 24.09,41.70 C 24.78,41.70 36.37,40.11 37.76,39.92 C 39.15,39.72 39.34,39.73 39.34,38.64 C 39.34,38.45 39.40,36.09 39.43,35.07 C 38.34,34.26 37.22,33.72 36.09,33.64 C 30.46,33.26 25.02,24.25 24.28,23.12 C 24.18,22.98 24.09,22.95 23.99,23.00 z" id="p3444" style="fill:#1e1e1e;fill-opacity:0.2;fill-rule:evenodd;stroke:none;display:inline"/>
<path d="M 39.82,22.15 C 35.13,27.26 30.64,34.26 27.00,41.37 C 30.72,40.90 36.78,40.05 37.76,39.92 C 39.15,39.72 39.34,39.73 39.34,38.64 C 39.34,37.81 39.65,28.39 39.82,22.15 L 39.82,22.15 z" id="p3446" style="fill:#1e1e1e;fill-opacity:0.2;fill-rule:evenodd;stroke:none;display:inline"/>
<path d="M 38.64,14.15 C 38.29,14.15 32.62,14.42 28.12,14.63 C 24.24,18.89 24.14,20.91 26.15,22.58 C 28.41,24.46 34.21,27.09 39.10,28.40 C 39.27,28.44 39.46,28.46 39.64,28.45 C 39.80,23.15 39.97,17.72 39.97,16.57 C 39.97,14.40 39.14,14.15 38.64,14.15 L 38.64,14.15 z" id="p3442" style="fill:#979797;fill-opacity:0.2;fill-rule:evenodd;stroke:none;display:inline"/>
<path d="M 26.06,17.03 C 25.97,17.98 25.16,18.76 24.26,18.76 C 23.36,18.76 22.70,17.98 22.80,17.03 C 22.89,16.07 23.70,15.29 24.60,15.29 C 25.49,15.29 26.16,16.07 26.06,17.03 z" id="p3273" style="fill:#000000;fill-opacity:1;fill-rule:evenodd;stroke:none;marker:none;visibility:visible;display:inline;overflow:visible;enable-background:accumulate"/>
<path d="M 37.85,27.94 C 37.48,31.88 34.13,35.07 30.39,35.07 C 26.63,35.07 23.90,31.88 24.27,27.94 C 24.64,23.99 27.97,20.80 31.73,20.80 C 35.47,20.80 38.22,23.99 37.85,27.94 z" id="p3279" style="fill:#929292;fill-opacity:0.95;fill-rule:evenodd;stroke:none;marker:none;visibility:visible;display:inline;overflow:visible;enable-background:accumulate"/>
<path d="M 31.72,20.79 C 27.98,20.79 24.64,24.00 24.28,27.94 C 24.26,28.10 24.25,28.27 24.24,28.42 C 25.61,25.03 26.87,23.40 26.87,23.40 L 29.33,26.13 C 29.33,26.13 33.39,27.39 33.82,26.88 C 34.25,26.37 36.73,24.86 36.73,24.86 C 36.73,24.86 37.26,26.01 37.88,27.04 C 37.79,23.53 35.18,20.79 31.72,20.79 z" id="p3288" style="fill:#ffffff;fill-opacity:0.76;fill-rule:evenodd;stroke:none;display:inline"/>
<path d="M 37.70,28.88 C 33.60,36.61 27.15,33.64 25.09,31.95 C 26.14,33.82 28.07,35.07 30.40,35.07 C 33.83,35.07 36.93,32.37 37.70,28.88 L 37.70,28.88 z" id="p3291" style="fill:#ffffff;fill-opacity:0.28;fill-rule:evenodd;stroke:none;display:inline"/>
<path d="M 31.72,20.79 C 28.01,20.79 24.71,23.95 24.30,27.85 C 24.86,28.29 25.94,28.55 28.06,28.58 C 32.71,28.65 35.85,27.26 37.86,27.64 C 38.06,23.85 35.37,20.79 31.72,20.79 L 31.72,20.79 z" id="p3294" style="fill:#ffffff;fill-opacity:0.55;fill-rule:evenodd;stroke:none;display:inline"/>
<path d="M 31.67,21.52 C 30.1,21.52 28.60,22.13 27.43,23.16 L 30.70,27.00 L 31.37,27.31 L 35.03,22.67 C 34.11,21.95 32.97,21.52 31.67,21.52 z M 36.55,24.52 L 35.97,24.88 C 36.43,25.77 36.65,26.81 36.55,27.94 C 36.48,28.71 36.24,29.43 35.92,30.09 L 36.49,30.36 C 36.85,29.62 37.10,28.80 37.19,27.94 C 37.30,26.69 37.05,25.50 36.55,24.52 L 36.55,24.52 z M 35.73,25.03 L 35.09,25.46 C 35.46,26.17 35.63,27.02 35.55,27.94 C 35.49,28.56 35.31,29.16 35.06,29.71 L 35.67,30.01 C 35.98,29.37 36.21,28.68 36.27,27.94 C 36.37,26.86 36.17,25.87 35.73,25.03 z M 25.73,25.34 C 25.31,26.13 25.02,27.02 24.93,27.94 C 24.81,29.26 25.11,30.47 25.66,31.49 L 26.22,31.12 C 25.71,30.21 25.46,29.13 25.57,27.94 C 25.65,27.11 25.93,26.33 26.30,25.61 L 25.73,25.34 z M 26.54,25.70 C 26.18,26.38 25.92,27.13 25.85,27.94 C 25.74,29.06 25.98,30.11 26.46,30.98 L 27.12,30.55 C 26.71,29.80 26.49,28.92 26.57,27.94 C 26.64,27.24 26.86,26.59 27.19,26.00 L 26.54,25.70 L 26.54,25.70 z M 32.18,28.79 L 29.94,29.25 L 29.57,29.49 L 26.82,32.97 C 27.78,33.84 29.03,34.37 30.45,34.37 C 32.24,34.37 33.92,33.56 35.15,32.28 L 34.12,31.06 L 33.79,30.68 L 32.18,28.79 L 32.18,28.79 z" id="p3306" style="fill:#3a3a3a;fill-opacity:0.93;fill-rule:evenodd;stroke:none;marker:none;visibility:visible;display:inline;overflow:visible;enable-background:accumulate"/>
<path d="M 34.90,27.78 C 34.68,30.10 32.70,31.99 30.49,31.99 C 28.28,31.99 26.67,30.10 26.89,27.78 C 27.11,25.45 29.08,23.57 31.29,23.57 C 33.50,23.57 35.12,25.45 34.90,27.78 z" id="p3334" style="fill:#000000;fill-opacity:1;fill-rule:evenodd;stroke:none;marker:none;visibility:visible;display:inline;overflow:visible;enable-background:accumulate"/>
<path d="M 35.03,28.34 C 33.19,28.98 29.79,30.49 28.81,29.61 C 27.65,28.55 27.45,28.41 27.12,29.34 C 27.51,30.99 28.90,32.19 30.67,32.19 C 32.77,32.19 34.63,30.49 35.03,28.34 L 35.03,28.34 z" id="p3467" style="fill:#6c6c6c;fill-opacity:0.45;fill-rule:evenodd;stroke:none;display:inline"/>
<path d="M 27.96,34.21 C 29.96,34.95 31.45,34.95 33.38,33.92" id="p3356" style="fill:none;stroke:#ebebeb;stroke-width:0.58;stroke-linecap:round;stroke-linejoin:miter;stroke-miterlimit:4;stroke-dasharray:none;stroke-opacity:0.76"/>
<path d="M 28.29,22.81 C 28.71,22.68 29.11,22.29 29.56,22.40 C 29.88,22.48 29.69,22.99 29.76,23.00 C 30.32,23.03 30.23,23.86 29.71,23.91 C 29.40,24.10 28.83,24.46 28.77,23.86 C 28.61,23.51 28.45,23.16 28.29,22.81 z M 29.01,23.18 C 29.54,23.15 29.24,22.52 28.92,22.92 C 28.90,23.01 28.97,23.09 29.01,23.18 z M 29.27,23.75 C 29.71,23.76 29.73,23.08 29.24,23.39 C 29.07,23.50 29.21,23.63 29.27,23.75 z M 30.45,22.74 C 30.38,22.22 30.90,21.78 31.40,21.87 C 31.97,21.90 32.27,22.54 32.07,23.02 C 31.86,23.74 30.63,23.70 30.48,22.96 C 30.46,22.89 30.45,22.82 30.45,22.74 L 30.45,22.74 z M 30.95,22.72 C 30.88,23.36 31.79,23.21 31.63,22.64 C 31.66,22.17 30.95,22.11 30.94,22.59 L 30.94,22.65 L 30.95,22.72 L 30.95,22.72 z M 32.89,22.07 C 33.27,22.15 33.49,22.45 33.45,22.82 C 33.72,22.62 34.07,22.42 34.34,22.77 C 34.11,23.01 33.42,23.15 33.66,23.62 C 33.70,23.88 33.88,24.41 33.44,24.12 C 33.04,24.00 33.38,23.11 32.92,23.59 C 32.66,23.90 31.85,23.46 32.52,23.30 C 32.96,23.17 33.11,22.78 32.93,22.36 C 32.92,22.27 32.90,22.17 32.89,22.07 L 32.89,22.07 z" id="text3358" style="font-size:2.30px;font-style:normal;font-variant:normal;font-weight:normal;font-stretch:normal;fill:#efefef;fill-opacity:0.81;stroke:none;font-family:Arial Black;-inkscape-font-specification:Arial Black"/>
<path d="M 27.95,31.99 C 28.53,32.15 27.87,32.56 27.87,32.89 C 27.98,33.01 28.49,33.17 28.14,33.34 C 27.89,33.26 27.50,33.07 27.43,32.90 C 27.60,32.60 27.78,32.29 27.95,31.99 z M 29.35,32.72 C 29.90,32.80 29.43,33.35 29.29,33.63 C 29.01,33.91 28.44,33.68 28.38,33.30 C 28.42,33.02 28.54,32.62 28.75,32.47 C 29.26,32.59 28.65,33.01 28.74,33.32 C 29.04,33.82 29.24,32.92 29.35,32.72 L 29.35,32.72 z M 29.52,32.86 C 30.07,32.66 30.02,33.32 30.12,33.50 C 30.13,33.17 30.47,32.64 30.76,33.04 C 30.67,33.36 30.85,33.86 30.58,34.04 C 30.21,33.98 30.57,33.41 30.45,33.24 C 30.30,33.46 30.35,34.16 29.96,33.96 C 29.84,33.77 29.87,33.27 29.77,33.24 C 29.73,33.46 29.85,34.17 29.47,33.91 C 29.44,33.57 29.52,33.21 29.52,32.86 z M 30.76,32.89 C 31.29,32.67 31.12,33.37 31.22,33.67 C 31.44,34.08 30.73,34.06 30.87,33.63 C 30.83,33.39 30.80,33.14 30.76,32.89 z M 31.20,32.84 C 31.54,32.61 31.80,33.04 32.06,33.20 C 31.96,32.98 31.83,32.38 32.24,32.62 C 32.28,32.95 32.55,33.32 32.45,33.63 C 32.13,33.89 31.80,33.16 31.68,33.35 C 31.88,33.58 31.74,34.11 31.46,33.78 C 31.39,33.47 31.28,33.16 31.20,32.84 L 31.20,32.84 z M 32.46,33.04 C 32.15,32.57 32.82,31.97 33.27,32.28 C 33.73,32.53 33.63,33.31 33.06,33.36 C 32.81,33.43 32.56,33.28 32.46,33.04 z M 32.77,32.90 C 32.93,33.38 33.54,32.80 33.11,32.55 C 32.89,32.39 32.56,32.65 32.77,32.90 z M 33.91,32.94 C 33.73,32.63 33.34,32.28 33.32,31.99 C 33.58,31.83 34.05,31.32 34.30,31.76 C 34.35,31.98 34.17,32.17 34.50,32.15 C 35.05,32.25 34.44,32.71 34.21,32.39 C 33.89,32.18 33.98,32.60 34.17,32.71 C 34.15,32.84 33.98,32.85 33.91,32.94 L 33.91,32.94 z M 33.81,32.20 C 34.22,32.08 33.80,31.68 33.70,32.05 C 33.73,32.11 33.77,32.15 33.81,32.20 z" id="text3366" style="font-size:1.59px;font-style:normal;font-variant:normal;font-weight:normal;font-stretch:normal;fill:#efefef;fill-opacity:0.72;stroke:none;font-family:Arial Black;-inkscape-font-specification:Arial Black"/>
<path d="M 21.35,28.93 C 21.45,24.90 21.35,16.00 21.35,14.93 C 21.35,13.87 22.19,13.34 23.15,13.34 C 24.10,13.34 39.68,12.39 40.43,12.39 C 41.16,12.39 41.06,13.45 41.06,14.93 C 41.06,16.42 40.53,39.42 40.53,39.84 C 40.53,40.27 40.11,40.70 38.94,40.80 C 37.78,40.91 22.83,42.71 22.83,42.71 L 23.15,42.07 C 23.15,42.07 38.09,40.16 38.62,40.16 C 39.15,40.16 39.37,39.53 39.37,38.57 C 39.37,37.62 40.00,15.25 40.00,14.83 C 40.00,14.41 39.47,13.87 38.62,13.87 C 37.78,13.87 24.63,14.51 23.89,14.51 C 23.15,14.51 22.30,15.15 22.19,16.52 C 22.08,17.90 22.40,28.72 22.40,29.67 C 22.40,30.63 21.24,29.88 21.35,28.93 L 21.35,28.93 z" id="p3433" style="fill:#151515;fill-opacity:0.88;fill-rule:evenodd;stroke:none;display:inline"/>
<path d="M 22.08,41.65 C 22.62,42.61 22.51,42.81 23.46,42.71 C 24.42,42.61 39.37,40.70 39.37,40.70" id="p3436" style="fill:none;stroke:#e0e0e0;stroke-width:0.29;stroke-linecap:round;stroke-linejoin:miter;stroke-miterlimit:4;stroke-dasharray:none;stroke-opacity:0.79;display:inline"/>
<path d="M 31.82,23.97 C 29.77,23.97 27.93,25.72 27.73,27.88 C 27.52,30.04 29.04,31.79 31.09,31.79 C 32.37,31.79 33.57,31.10 34.33,30.06 C 34.45,29.91 34.55,29.74 34.63,29.58 C 34.66,29.52 34.70,29.46 34.73,29.39 C 34.94,28.94 35.07,28.45 35.12,27.94 C 35.21,27.08 35.00,26.25 34.63,25.58 C 34.63,25.57 34.64,25.55 34.63,25.54 C 34.54,25.37 34.43,25.22 34.30,25.06 C 33.69,24.37 32.83,23.97 31.82,23.97 L 31.82,23.97 z" id="p3460" style="fill:#404040;fill-opacity:1;fill-rule:evenodd;stroke:none;marker:none;visibility:visible;display:inline;overflow:visible;enable-background:accumulate"/>
<path d="M 31.56,24.45 C 29.72,24.45 28.07,26.02 27.88,27.97 C 27.70,29.91 29.06,31.48 30.91,31.48 C 32.06,31.48 33.14,30.87 33.83,29.93 C 33.93,29.79 34.01,29.65 34.10,29.49 C 34.13,29.44 34.16,29.38 34.18,29.33 C 34.36,28.92 34.49,28.48 34.54,28.02 C 34.61,27.24 34.43,26.50 34.10,25.89 C 34.09,25.89 34.10,25.87 34.10,25.86 C 34.01,25.71 33.92,25.57 33.80,25.43 C 33.26,24.82 32.47,24.45 31.56,24.45 L 31.56,24.45 z" id="p3481" style="fill:#000000;fill-opacity:1;fill-rule:evenodd;stroke:none;marker:none;visibility:visible;display:inline;overflow:visible;enable-background:accumulate"/>
<path d="M 27.88,27.97 C 27.70,29.91 29.06,31.48 30.91,31.48 C 31.49,31.48 32.04,31.33 32.54,31.06" id="p3483" style="fill:none;stroke:#e0e0e0;stroke-width:0.19;stroke-linecap:round;stroke-linejoin:round;marker:none;stroke-miterlimit:4;stroke-dasharray:none;stroke-dashoffset:0;stroke-opacity:0.98;visibility:visible;display:inline;overflow:visible;enable-background:accumulate"/>
<path d="M 34.37,25.70 C 34.37,25.69 34.37,25.68 34.37,25.67 C 34.28,25.50 34.17,25.35 34.04,25.19 C 33.45,24.52 32.60,24.12 31.60,24.12 C 29.57,24.12 27.77,25.84 27.57,27.97" id="p3485" style="fill:none;stroke:#6e6e6e;stroke-width:0.38;stroke-linecap:round;stroke-linejoin:round;marker:none;stroke-miterlimit:4;stroke-dasharray:none;stroke-dashoffset:0;stroke-opacity:0.86;visibility:visible;display:inline;overflow:visible;enable-background:accumulate"/>
<path d="M 34.37,25.70 C 34.37,25.69 34.37,25.68 34.37,25.67 C 34.28,25.50 34.17,25.35 34.04,25.19 C 33.45,24.52 32.60,24.12 31.60,24.12" id="p3487" style="fill:none;stroke:#dddddd;stroke-width:0.38;stroke-linecap:round;stroke-linejoin:round;marker:none;stroke-miterlimit:4;stroke-dasharray:none;stroke-dashoffset:0;stroke-opacity:0.86;visibility:visible;display:inline;overflow:visible;enable-background:accumulate"/>
<path d="M 30.78,24.54 C 29.27,24.91 28.04,26.31 27.87,27.97 C 27.80,28.82 28.04,29.58 28.46,30.19 C 28.92,30.61 29.54,30.85 30.24,30.85 C 31.28,30.85 32.23,30.30 32.85,29.46 C 32.94,29.34 33.01,29.20 33.09,29.06 C 33.11,29.02 33.16,29.00 33.18,28.94 C 33.34,28.57 33.44,28.17 33.49,27.77 C 33.55,27.06 33.38,26.40 33.09,25.85 C 33.09,25.84 33.09,25.83 33.09,25.83 C 33.01,25.68 32.92,25.55 32.82,25.43 C 32.33,24.87 31.64,24.54 30.82,24.54 C 30.80,24.54 30.79,24.54 30.78,24.54 L 30.78,24.54 z" id="p3489" style="fill:#3f3f3f;fill-opacity:1;fill-rule:evenodd;stroke:none;marker:none;visibility:visible;display:inline;overflow:visible;enable-background:accumulate"/>
<path d="M 30.63,25.40 C 29.43,25.40 28.37,26.42 28.24,27.67 C 28.13,28.93 29.01,29.95 30.20,29.95 C 30.95,29.95 31.65,29.55 32.09,28.94 C 32.15,28.85 32.21,28.75 32.27,28.66 C 32.29,28.63 32.31,28.59 32.32,28.55 C 32.44,28.29 32.52,28.01 32.55,27.71 C 32.60,27.20 32.48,26.73 32.27,26.33 C 32.27,26.33 32.27,26.32 32.27,26.31 C 32.21,26.21 32.14,26.13 32.07,26.03 C 31.71,25.63 31.21,25.40 30.63,25.40 L 30.63,25.40 z" id="p3494" style="fill:#000000;fill-opacity:1;fill-rule:evenodd;stroke:none;marker:none;visibility:visible;display:inline;overflow:visible;enable-background:accumulate"/>
<path d="M 30.64,25.40 C 29.44,25.40 28.36,26.42 28.24,27.67 C 28.17,28.40 28.44,29.05 28.91,29.46 C 28.91,29.46 28.93,29.45 28.94,29.46 C 29.18,29.57 29.45,29.64 29.76,29.64 C 30.50,29.64 31.19,29.25 31.64,28.64 C 31.71,28.55 31.76,28.46 31.82,28.37 C 31.83,28.33 31.86,28.28 31.88,28.25 C 32.00,27.98 32.06,27.73 32.09,27.43 C 32.14,26.92 32.03,26.43 31.82,26.03 C 31.76,25.93 31.71,25.83 31.64,25.73 C 31.61,25.69 31.55,25.67 31.51,25.64 C 31.25,25.50 30.97,25.40 30.64,25.40 z" id="p3496" style="fill:#4e4e4e;fill-opacity:1;fill-rule:evenodd;stroke:none;marker:none;visibility:visible;display:inline;overflow:visible;enable-background:accumulate"/>
<path d="M 30.64,25.40 C 29.44,25.40 28.36,26.42 28.24,27.67 C 28.22,27.82 28.23,27.95 28.24,28.09 C 30.02,28.50 30.23,27.55 31.07,27.55 C 31.34,27.55 31.71,27.58 32.06,27.61 C 32.07,27.55 32.08,27.49 32.09,27.43 C 32.14,26.92 32.03,26.43 31.82,26.03 C 31.76,25.93 31.71,25.83 31.64,25.73 C 31.61,25.69 31.55,25.67 31.51,25.64 C 31.25,25.50 30.97,25.40 30.64,25.40 z" id="p3501" style="fill:#131313;fill-opacity:1;fill-rule:evenodd;stroke:none"/>
<path d="M 30.64,25.40 C 30.25,25.40 29.88,25.51 29.54,25.70 L 29.57,27.04 L 32.09,26.94 C 32.05,26.61 31.96,26.29 31.82,26.03 C 31.76,25.93 31.71,25.83 31.64,25.73 C 31.61,25.69 31.55,25.67 31.51,25.64 C 31.25,25.50 30.97,25.40 30.64,25.40 z" id="p3503" style="fill:#e6e6e6;fill-opacity:0.8;fill-rule:evenodd;stroke:none"/>
<path d="M 30.64,24.61 C 30.58,24.62 30.51,24.62 30.45,24.64 C 30.45,24.64 30.45,24.66 30.45,24.67 C 30.43,24.71 30.42,24.76 30.42,24.82 C 29.91,24.86 30.47,25.50 30.73,25.18 C 30.69,25.06 30.71,24.92 30.70,24.79 C 30.71,24.71 30.70,24.64 30.67,24.61 C 30.66,24.60 30.65,24.61 30.64,24.61 L 30.64,24.61 z M 30.06,24.82 C 30.00,24.85 29.94,24.87 29.88,24.91 C 29.90,24.93 29.92,24.93 29.94,24.97 C 29.97,25.06 29.87,25.32 29.76,25.18 C 29.70,25.14 29.67,25.08 29.67,25.03 C 29.61,25.07 29.56,25.12 29.51,25.16 C 29.69,25.48 30.30,25.29 30.12,24.91 C 30.11,24.89 30.1,24.86 30.1,24.86 C 30.09,24.84 30.07,24.84 30.06,24.82 L 30.06,24.82 z M 30.48,24.91 C 30.64,25.24 30.05,24.93 30.48,24.91 z M 29.48,25.18 C 29.43,25.23 29.36,25.28 29.30,25.34 C 29.40,25.41 29.50,25.48 29.54,25.46 C 29.60,25.35 29.55,25.27 29.48,25.18 z M 29.15,25.46 C 29.10,25.51 29.03,25.55 28.97,25.61 C 29.05,25.69 29.14,25.74 29.27,25.67 C 29.23,25.60 29.19,25.52 29.15,25.46 L 29.15,25.46 z M 28.94,25.64 C 28.88,25.70 28.81,25.76 28.76,25.83 C 28.78,25.82 28.80,25.82 28.81,25.83 C 28.53,26.16 29.05,26.03 29.09,25.79 C 29.04,25.74 28.99,25.69 28.94,25.64 L 28.94,25.64 z M 33.06,26.21 C 33.03,26.21 33.01,26.23 32.97,26.24 C 32.83,26.21 32.42,26.45 32.69,26.55 C 33.11,26.44 32.44,26.86 32.69,27.00 C 32.87,26.95 33.07,26.90 33.25,26.85 C 33.55,26.70 33.14,26.65 33.01,26.67 C 33.22,26.65 33.25,26.24 33.06,26.21 L 33.06,26.21 z M 33.03,26.97 C 32.64,27.00 32.64,27.70 33.06,27.64 C 33.07,27.64 33.10,27.64 33.12,27.64 C 33.54,27.62 33.44,26.88 33.03,26.97 z M 33.09,27.15 C 33.24,27.18 33.30,27.40 33.06,27.43 C 32.97,27.43 32.74,27.25 32.91,27.18 C 32.97,27.14 33.04,27.14 33.09,27.15 z M 27.97,27.45 C 27.95,27.52 27.95,27.60 27.94,27.67 C 27.95,27.70 27.93,27.76 27.91,27.79 C 27.90,27.84 27.88,27.89 27.87,27.94 C 28.05,27.90 28.24,27.68 28.09,27.48 C 28.05,27.49 28.01,27.46 27.97,27.45 L 27.97,27.45 z M 32.82,27.67 C 32.74,27.70 32.68,27.75 32.69,27.85 C 32.87,27.84 33.03,27.93 33.21,27.91 C 33.51,27.78 33.05,27.59 32.82,27.67 z M 32.85,27.94 C 32.56,27.86 32.65,28.30 32.55,28.45 L 32.61,28.45 C 32.71,28.36 32.96,28.26 33.15,28.40 C 33.48,28.13 32.69,28.23 32.85,27.94 L 32.85,27.94 z M 27.87,28.01 C 27.87,28.09 27.87,28.18 27.87,28.28 C 27.94,28.33 28.00,28.38 27.91,28.42 C 27.90,28.43 27.88,28.42 27.87,28.42 C 27.88,28.50 27.87,28.57 27.87,28.64 C 27.88,28.73 27.92,28.80 27.94,28.88 C 28.03,28.80 28.13,28.74 28.12,28.70 C 28.05,28.64 27.99,28.62 27.91,28.64 C 28.15,28.52 28.12,28.09 27.87,28.01 z M 32.58,28.55 C 32.45,28.54 32.33,28.81 32.39,29.01 C 32.32,28.99 32.25,29.03 32.18,29.09 C 32.27,29.17 32.36,29.22 32.42,29.31 C 32.57,29.67 32.08,29.30 32.00,29.37 C 31.93,29.71 32.60,29.89 32.69,29.52 C 32.73,29.40 32.66,29.26 32.58,29.15 C 32.49,29.13 32.42,29.09 32.39,29.04 C 32.46,29.06 32.53,29.08 32.58,29.15 C 32.88,29.41 33.28,28.59 32.85,28.74 L 32.88,28.76 C 33.06,29.15 32.31,28.85 32.67,28.58 C 32.65,28.55 32.60,28.55 32.58,28.55 L 32.58,28.55 z M 28.27,28.98 C 28.16,29.02 28.08,29.07 27.97,29.09 C 27.99,29.16 28.01,29.24 28.03,29.31 C 28.20,29.28 28.33,29.16 28.27,28.98 z M 28.36,29.15 C 28.27,29.22 28.16,29.30 28.06,29.37 C 28.09,29.44 28.12,29.53 28.16,29.61 C 28.16,29.61 28.17,29.61 28.18,29.61 C 28.39,29.83 28.32,29.59 28.36,29.46 C 28.66,29.79 28.59,29.23 28.36,29.15 L 28.36,29.15 z M 31.67,29.58 C 31.58,29.61 31.49,29.66 31.45,29.76 L 31.48,29.82 L 31.51,29.85 C 31.57,30.15 31.99,30.38 32.15,30.03 C 32.31,29.71 31.94,29.49 31.67,29.58 L 31.67,29.58 z M 31.70,29.76 C 31.75,29.73 31.82,29.73 31.88,29.76 C 32.18,29.89 31.64,30.08 31.70,29.76 z M 31.39,29.91 C 31.14,29.86 30.83,30.09 31.00,30.36 C 30.95,30.25 30.86,30.14 30.78,30.09 C 30.34,29.93 30.33,30.53 30.48,30.79 C 30.51,30.80 30.57,30.83 30.61,30.82 C 30.61,30.82 30.63,30.82 30.64,30.82 C 30.66,30.81 30.69,30.79 30.70,30.76 C 30.58,30.44 30.80,30.65 30.97,30.70 C 31.04,30.65 31.05,30.52 31.00,30.39 C 31.01,30.40 31.03,30.39 31.03,30.39 C 31.21,30.77 31.85,30.40 31.61,30.06 C 31.56,29.98 31.47,29.93 31.39,29.91 L 31.39,29.91 z M 31.27,30.01 C 31.30,30.00 31.33,30.01 31.37,30.03 C 31.61,30.18 31.35,30.54 31.18,30.28 C 31.15,30.21 31.20,30.03 31.27,30.01 z M 29.94,30.09 C 29.90,30.10 29.88,30.12 29.85,30.15 C 29.87,30.29 29.83,30.42 29.81,30.55 C 29.75,30.85 30.08,30.83 30.1,30.55 C 30.54,30.58 30.22,30.04 29.94,30.09 z M 30.67,30.22 C 30.75,30.22 30.80,30.41 30.61,30.36 L 30.58,30.34 L 30.58,30.31 C 30.60,30.25 30.64,30.22 30.67,30.22 L 30.67,30.22 z M 30.06,30.31 C 30.14,30.27 30.36,30.45 30.03,30.43 C 30.00,30.34 30.03,30.32 30.06,30.31 z" id="text3523" style="font-size:0.94px;font-style:normal;font-variant:normal;font-weight:normal;font-stretch:normal;fill:#e3e3e3;fill-opacity:0.5;stroke:none;font-family:Arial Black;-inkscape-font-specification:Arial Black"/>
<path d="M 24.72,15.57 C 23.95,15.64 23.30,16.35 23.21,17.18 C 23.17,17.59 23.27,17.96 23.48,18.24 C 23.66,18.35 23.86,18.42 24.09,18.42 C 24.84,18.42 25.53,17.76 25.60,16.97 C 25.67,16.29 25.29,15.74 24.72,15.57 L 24.72,15.57 z" id="p3548" style="fill:#515151;fill-opacity:1;fill-rule:evenodd;stroke:none;marker:none;visibility:visible;display:inline;overflow:visible;enable-background:accumulate"/>
<path d="M 24.72,15.57 C 24.27,15.61 23.86,15.89 23.58,16.27 L 24.09,16.30 L 24.21,18.42 C 24.92,18.36 25.53,17.73 25.60,16.97 C 25.67,16.29 25.29,15.74 24.72,15.57 L 24.72,15.57 z" id="p3553" style="fill:#242424;fill-opacity:1;fill-rule:evenodd;stroke:none"/>
<path d="M 24.72,15.57 C 24.56,15.59 24.39,15.62 24.24,15.70 L 24.28,17.73 L 25.25,17.82 C 25.25,17.81 25.26,17.82 25.27,17.82 C 25.45,17.58 25.57,17.28 25.60,16.97 C 25.67,16.29 25.29,15.74 24.72,15.57 L 24.72,15.57 z" id="p3558" style="fill:#c5c5c5;fill-opacity:0.8;fill-rule:evenodd;stroke:none;display:inline"/>
<path d="M 26.13,17.13 C 26.04,18.00 25.29,18.71 24.47,18.71 C 23.65,18.71 23.06,18.00 23.15,17.13 C 23.24,16.25 23.98,15.54 24.80,15.54 C 25.62,15.54 26.22,16.25 26.13,17.13 z" id="p3546" style="fill:none;stroke:#989898;stroke-width:0.28;stroke-linecap:round;stroke-linejoin:round;marker:none;stroke-miterlimit:4;stroke-dasharray:none;stroke-dashoffset:0;stroke-opacity:1;visibility:visible;display:inline;overflow:visible;enable-background:accumulate"/>
<path d="M 32.90,16.53 C 32.81,17.49 32.00,18.27 31.10,18.27 C 30.20,18.27 29.54,17.49 29.64,16.53 C 29.73,15.57 30.53,14.79 31.43,14.79 C 32.33,14.79 33.00,15.57 32.90,16.53 z" id="p3564" style="fill:#000000;fill-opacity:1;fill-rule:evenodd;stroke:none;marker:none;visibility:visible;display:inline;overflow:visible;enable-background:accumulate"/>
<path d="M 31.56,15.08 C 30.78,15.15 30.12,15.85 30.05,16.69 C 30.00,17.1 30.10,17.46 30.32,17.74 C 30.49,17.85 30.70,17.93 30.92,17.93 C 31.68,17.93 32.36,17.27 32.43,16.47 C 32.51,15.80 32.13,15.23 31.56,15.08 L 31.56,15.08 z" id="p3566" style="fill:#9c9c9c;fill-opacity:1;fill-rule:evenodd;stroke:none;marker:none;visibility:visible;display:inline;overflow:visible;enable-background:accumulate"/>
<path d="M 31.56,15.08 C 31.09,15.12 30.69,15.39 30.41,15.78 L 30.92,15.80 L 31.05,17.93 C 31.74,17.86 32.36,17.23 32.43,16.47 C 32.51,15.80 32.13,15.23 31.56,15.08 L 31.56,15.08 z" id="p3568" style="fill:#b9b9b9;fill-opacity:1;fill-rule:evenodd;stroke:none;display:inline"/>
<path d="M 31.56,15.08 C 31.39,15.09 31.23,15.13 31.07,15.19 L 31.10,17.23 L 32.07,17.32 C 32.07,17.32 32.10,17.33 32.10,17.32 C 32.29,17.09 32.40,16.78 32.43,16.47 C 32.51,15.80 32.13,15.23 31.56,15.08 L 31.56,15.08 z" id="p3570" style="fill:#c5c5c5;fill-opacity:0.8;fill-rule:evenodd;stroke:none;display:inline"/>
<path d="M 32.97,16.63 C 32.88,17.51 32.13,18.22 31.31,18.22 C 30.49,18.22 29.89,17.51 29.98,16.63 C 30.07,15.76 30.81,15.05 31.63,15.05 C 32.46,15.05 33.06,15.76 32.97,16.63 z" id="p3572" style="fill:none;stroke:#bdbdbd;stroke-width:0.28;stroke-linecap:round;stroke-linejoin:round;marker:none;stroke-miterlimit:4;stroke-dasharray:none;stroke-dashoffset:0;stroke-opacity:1;visibility:visible;display:inline;overflow:visible;enable-background:accumulate"/>
<path d="M 41.38,14.83 C 41.38,13.87 40.85,12.82 39.89,12.82 C 38.94,12.82 24.31,13.77 23.78,13.77 C 23.25,13.77 21.87,13.98 21.87,15.68 C 21.87,17.38 21.76,38.05 21.76,38.05" id="p3438" style="fill:none;stroke:#e5e5e5;stroke-width:0.38;stroke-linecap:round;stroke-linejoin:miter;stroke-miterlimit:4;stroke-dasharray:none;stroke-opacity:0.51;display:inline"/>
<path d="M 18.90,19.55 L 18.22,18.56 L 18.22,14.29" id="p3597" style="fill:none;stroke:#3b3b3b;stroke-width:0.19;stroke-linecap:round;stroke-linejoin:miter;stroke-miterlimit:4;stroke-dasharray:none;stroke-opacity:1;display:inline"/>
<path d="M 17.08,13.87 L 18.19,14.23" id="p3595" style="fill:none;stroke:#d0d0d0;stroke-width:0.19;stroke-linecap:round;stroke-linejoin:miter;stroke-miterlimit:4;stroke-dasharray:none;stroke-opacity:1;display:inline"/>
<path d="M 6.46,7.82 L 18.96,11.78" id="p3625" style="fill:none;stroke:#191919;stroke-width:0.66;stroke-linecap:round;stroke-linejoin:miter;stroke-miterlimit:4;stroke-dasharray:none;stroke-opacity:0.52"/>
<path d="M 16.80,36.25 L 16.93,31.87 L 17.32,32.27 L 17.26,36.51 L 16.80,36.25 L 16.80,36.25 z" id="p3627" style="fill:#151515;fill-opacity:1;fill-rule:evenodd;stroke:none;display:inline"/>
<path d="M 16.52,32.06 C 15.87,32.06 15.36,32.58 15.36,33.19 C 15.36,33.80 15.87,34.27 16.52,34.27 C 16.77,34.27 17.02,34.21 17.20,34.07 L 17.24,32.33 C 17.04,32.18 16.79,32.06 16.52,32.06 z" id="p3633" style="fill:#c2c2c2;fill-opacity:0.98;fill-rule:evenodd;stroke:none;marker:none;visibility:visible;display:inline;overflow:visible;enable-background:accumulate"/>
<path d="M 16.79,32.19 C 16.16,32.19 15.63,32.69 15.63,33.30 C 15.63,33.92 16.16,34.43 16.79,34.43 C 16.93,34.43 17.05,34.39 17.17,34.34 L 17.24,32.30 C 17.09,32.24 16.95,32.19 16.79,32.19 L 16.79,32.19 z" id="p3630" style="fill:#242424;fill-opacity:0.98;fill-rule:evenodd;stroke:none;marker:none;visibility:visible;display:inline;overflow:visible;enable-background:accumulate"/>
<path d="M 16.52,32.06 C 15.87,32.06 15.36,32.58 15.36,33.19 C 15.36,33.66 15.67,34.04 16.12,34.19 C 16.31,34.32 16.53,34.43 16.79,34.43 C 16.93,34.43 17.05,34.39 17.17,34.34 L 17.17,34.07 C 17.18,34.06 17.20,34.07 17.20,34.07 L 17.24,32.33 L 17.24,32.30 C 17.16,32.28 17.10,32.24 17.03,32.22 C 16.87,32.13 16.70,32.06 16.52,32.06 z" id="p3655" style="fill:none;stroke:#1c1c1c;stroke-width:0.38;stroke-linecap:round;stroke-linejoin:round;marker:none;stroke-miterlimit:4;stroke-dasharray:none;stroke-dashoffset:0;stroke-opacity:1;visibility:visible;display:inline;overflow:visible;enable-background:accumulate"/>
<path d="M 17.27,32.33 L 17.16,36.28" id="p3641" style="fill:none;stroke:#0f0f0f;stroke-width:0.19;stroke-linecap:round;stroke-linejoin:miter;stroke-miterlimit:4;stroke-dasharray:none;stroke-opacity:1"/>
<path d="M 18.84,19.66 L 16.82,18.79 L 16.92,12.70 L 18.90,13.35" id="p3664" style="fill:none;stroke:#0a0a0a;stroke-width:0.29;stroke-linecap:butt;stroke-linejoin:round;stroke-miterlimit:4;stroke-dasharray:none;stroke-opacity:1;display:inline"/>
<path d="M 23.31,6.89 C 23.31,6.89 22.26,8.40 22.56,8.56 C 22.87,8.71 24.23,8.94 24.53,8.64 C 24.83,8.33 25.22,6.89 25.22,6.89 L 23.31,6.89 L 23.31,6.89 z" id="p3759" style="fill:#0e0e0e;fill-opacity:0.62;fill-rule:evenodd;stroke:none;display:inline"/>
<path d="M 23.25,6.97 C 23.25,6.97 23.01,8.40 22.56,8.64 C 22.11,8.86 21.24,8.92 21.19,9.03 C 21.03,9.38 21.12,9.85 22.18,9.77 C 23.25,9.69 24.68,9.24 24.68,9.24 C 24.68,9.24 25.66,7.27 25.36,7.05 C 25.06,6.81 23.25,6.97 23.25,6.97 z" id="p3756" style="fill:#0e0e0e;fill-opacity:0.33;fill-rule:evenodd;stroke:none;display:inline"/>
<path d="M 23.53,7.08 C 23.53,7.08 22.34,8.49 22.52,8.67 C 22.69,8.83 22.84,9.17 23.56,9.24 C 24.42,9.32 24.76,8.98 24.76,8.98 C 24.76,8.98 25.54,7.17 25.36,7.11 C 25.19,7.06 23.53,7.06 23.53,7.08 z" id="p3762" style="fill:#0e0e0e;fill-opacity:0.28;fill-rule:evenodd;stroke:none"/>
<path d="M 27.27,6.81 L 27.24,6.84 L 25.57,7.21 C 25.57,7.21 25.03,8.58 25.12,8.69 C 25.21,8.80 27.89,8.99 28.84,8.91 C 29.38,8.86 30.00,8.23 30.45,7.67 C 28.96,7.27 27.98,7.00 27.27,6.81 z" id="p3764" style="fill:#cdcdcd;fill-opacity:0.2;fill-rule:evenodd;stroke:none;display:inline"/>
<path d="M 22.94,6.73 C 22.45,6.75 20.99,6.80 19.91,6.84 C 19.77,7.40 20.00,8.19 22.48,8.21 L 23.21,7.06 L 22.94,6.73 z" id="p3767" style="fill:#cdcdcd;fill-opacity:0.08;fill-rule:evenodd;stroke:none"/>
<path d="M 7.09,36.00 C 7.23,36.14 18.65,44.87 18.65,44.87 C 18.65,44.87 18.56,45.02 18.73,45.18 C 18.88,45.34 19.12,45.50 20.31,45.42 C 21.49,45.34 40.66,42.72 41.13,42.72 C 41.60,42.72 41.76,41.69 41.84,41.31 C 41.92,40.91 42.64,11.85 42.71,11.29 C 42.79,10.74 41.60,10.34 41.37,10.19 C 41.13,10.03 40.81,10.19 39.31,9.79 C 37.81,9.39 37.25,9.32 36.93,9.16 C 36.61,9.01 36.14,9.16 34.95,8.84 C 33.76,8.53 25.92,6.46 25.92,6.46 C 25.92,6.46 25.29,6.63 23.31,6.71 C 21.34,6.78 8.27,7.34 7.48,7.34 C 6.69,7.34 6.29,7.41 6.29,8.69 C 6.29,9.95 6.77,34.25 6.77,35.13 C 6.77,35.47 6.94,35.86 7.09,36.00 L 7.09,36.00 z" id="stroke01" style="fill:none;stroke:#000000;stroke-width:0.5;stroke-linecap:butt;stroke-linejoin:miter;stroke-miterlimit:4;stroke-dasharray:none;stroke-opacity:1"/>
<path d="M 13.99,9.16 C 14.42,9.57 15.07,9.65 15.87,9.67 C 16.68,9.70 18.97,9.62 19.21,9.54 C 19.45,9.46 19.37,9.33 19.37,9.33 L 19.35,8.92 L 19.05,8.81 L 19.05,8.46 L 18.83,8.36 C 18.83,8.36 19.59,7.28 19.99,6.79 C 20.4,6.31 21.26,4.75 21.26,4.75 C 21.26,4.75 22.23,5.82 22.41,6.01 C 22.60,6.20 23.11,6.76 23.17,6.96 C 23.22,7.14 23.17,7.22 23.54,7.22 C 23.92,7.22 26.26,7.25 26.64,7.17 C 27.01,7.08 27.39,6.87 27.39,6.87 L 27.39,6.36 C 27.39,6.36 26.51,6.14 25.93,6.12 C 25.37,6.10 25.16,6.07 25.16,6.07 C 25.16,6.07 25.13,4.93 25.13,4.50 C 25.13,4.08 24.19,2.38 23.35,2.30 C 22.52,2.22 22.63,2.49 21.85,2.49 C 21.06,2.49 19.61,2.56 19.18,2.52 C 18.76,2.46 18.16,2.78 17.70,3.40 C 17.24,4.02 16.74,5.10 16.74,5.99 C 16.74,6.87 16.71,8.14 16.71,8.14 C 16.71,8.14 16.14,8.16 15.98,8.16 C 15.82,8.16 15.66,8.25 15.66,8.36 C 15.66,8.46 14.56,8.46 14.31,8.51 C 14.07,8.57 13.96,8.65 13.99,9.16 L 13.99,9.16 z" id="p3660" style="fill:#2f2f2f;fill-opacity:1;fill-rule:evenodd;stroke:none"/>
<path d="M 22.94,2.39 C 21.49,2.61 20.94,4.69 20.94,4.69 L 21.12,5.00 C 21.15,4.94 21.27,4.76 21.27,4.76 C 21.27,4.76 22.23,5.83 22.42,6.03 C 22.48,6.09 22.59,6.21 22.69,6.33 L 25.12,5.21 C 25.11,4.89 25.12,4.71 25.12,4.51 C 25.12,4.19 24.63,3.20 24.03,2.66 C 24.01,2.65 24.01,2.64 23.99,2.63 C 23.63,2.43 23.29,2.33 22.94,2.39 z" id="p3666" style="fill:#676767;fill-opacity:1;fill-rule:evenodd;stroke:none;display:inline"/>
<path d="M 23.15,3.09 C 22.84,3.13 22.52,3.24 22.34,3.36 C 22.00,3.56 21.39,4.55 21.27,4.76 C 21.27,4.76 22.23,5.83 22.42,6.03 C 22.61,6.21 23.12,6.77 23.18,6.97 C 23.24,7.15 23.17,7.21 23.55,7.21 C 23.92,7.21 26.25,7.26 26.63,7.18 C 27.01,7.09 27.39,6.87 27.39,6.87 L 27.39,6.36 C 27.39,6.36 27.34,6.36 27.33,6.36 C 27.17,6.43 26.96,6.51 26.85,6.54 C 26.55,6.62 25.15,6.51 25.15,6.51 L 25.12,5.84 L 25.15,5.73 C 25.15,5.46 25.12,5.11 25.12,4.73 C 25.00,4.97 24.89,5.17 24.88,5.09 C 24.84,4.86 24.27,3.64 23.94,3.27 C 23.77,3.08 23.46,3.05 23.15,3.09 z" id="p3670" style="fill:#000000;fill-opacity:0.98;fill-rule:evenodd;stroke:none;display:inline"/>
<path d="M 16.69,8.08 C 16.69,8.09 16.69,8.15 16.69,8.15 C 16.69,8.15 16.16,8.18 15.99,8.18 C 15.84,8.18 15.66,8.25 15.66,8.37 C 15.66,8.47 14.54,8.46 14.29,8.51 C 14.11,8.55 14.02,8.62 13.99,8.88 L 14.90,9.30 L 15.60,9.21 C 16.45,9.21 17.30,8.81 17.30,8.81 L 16.93,8.30 L 16.69,8.08 z" id="p3682" style="fill:#b9b9b9;fill-opacity:0.79;fill-rule:evenodd;stroke:none;display:inline"/>
<path d="M 14.05,8.83 C 14.90,9.29 15.23,9.28 16.16,9.31 C 17.09,9.34 17.64,9.34 17.64,9.34" id="p3674" style="fill:none;stroke:#000000;stroke-width:0.38;stroke-linecap:round;stroke-linejoin:miter;stroke-miterlimit:4;stroke-dasharray:none;stroke-opacity:1;display:inline"/>
<path d="M 15.72,8.53 C 15.72,8.53 16.48,8.69 16.74,8.69 C 17.01,8.69 18.21,8.60 18.21,8.60" id="p3676" style="fill:none;stroke:#000000;stroke-width:0.38;stroke-linecap:round;stroke-linejoin:miter;stroke-miterlimit:4;stroke-dasharray:none;stroke-opacity:1;display:inline"/>
<path d="M 25.15,5.48 L 25.12,6.57 L 26.03,6.87 L 27.39,6.51 L 27.39,6.36 C 27.39,6.36 26.51,6.14 25.93,6.11 C 25.37,6.09 25.15,6.06 25.15,6.06 C 25.15,6.06 25.16,5.70 25.15,5.48 z" id="p3686" style="fill:#8c8c8c;fill-opacity:0.79;fill-rule:evenodd;stroke:none;display:inline"/>
<path d="M 22.88,2.30 C 22.52,2.34 22.43,2.48 21.85,2.48 C 21.06,2.48 19.61,2.56 19.18,2.51 C 18.96,2.49 18.71,2.55 18.46,2.69 C 18.68,2.77 18.88,2.83 18.81,2.96 C 18.64,3.31 18.11,4.09 19.11,3.60 C 20.12,3.11 22.15,2.87 22.15,2.87 L 23.36,2.30 C 23.15,2.27 22.99,2.28 22.88,2.30 L 22.88,2.30 z" id="p3702" style="fill:#b9b9b9;fill-opacity:0.16;fill-rule:evenodd;stroke:none;display:inline"/>
<path d="M 22.88,2.30 C 22.52,2.34 22.67,2.47 22.09,2.47 C 21.74,2.75 21.32,3.05 21.21,3.15 C 21.00,3.34 20.72,3.71 20.51,4.09 C 20.31,4.47 20.12,4.85 20.06,4.97 C 20.04,5.00 19.91,5.15 19.75,5.36 C 19.60,5.57 19.41,5.85 19.18,6.14 C 18.73,6.74 18.19,7.43 17.79,8.00 L 18.09,8.21 C 18.48,7.65 19.03,6.95 19.48,6.36 C 19.71,6.07 19.90,5.81 20.06,5.60 C 20.21,5.39 20.34,5.24 20.4,5.14 C 20.47,5.00 20.64,4.60 20.79,4.21 C 20.94,3.83 21.21,3.47 21.31,3.37 C 21.49,3.20 21.79,2.89 22.22,2.58 C 22.39,2.46 22.66,2.39 22.88,2.30 L 22.88,2.30 z" id="p3706" style="fill:#101010;fill-opacity:1;fill-rule:evenodd;stroke:none;display:inline"/>
<path d="M 19.14,2.51 C 19.11,2.54 19.09,2.55 19.06,2.57 C 18.67,2.83 18.27,3.15 18.03,3.39 C 17.75,3.67 17.52,4.13 17.36,4.54 C 17.19,4.95 17.09,5.30 17.09,5.30 L 17.09,5.33 L 17.09,5.36 L 17.09,7.84 L 17.49,7.84 L 17.49,5.36 C 17.49,5.31 17.52,4.94 17.67,4.58 C 17.83,4.18 18.03,3.83 18.16,3.61 C 18.35,3.33 18.59,3.03 18.96,2.79 C 19.32,2.55 19.61,2.48 19.74,2.48 C 19.37,2.49 19.35,2.54 19.18,2.51 C 19.16,2.51 19.15,2.51 19.14,2.51 L 19.14,2.51 z" id="p3708" style="fill:#141414;fill-opacity:1;fill-rule:evenodd;stroke:none;display:inline"/>
<path d="M 17.88,7.87 C 17.88,7.87 19.64,5.62 19.81,5.40 C 19.99,5.16 20.25,4.64 20.25,4.64" id="p3716" style="fill:none;stroke:#767676;stroke-width:0.19;stroke-linecap:round;stroke-linejoin:miter;stroke-miterlimit:4;stroke-dasharray:none;stroke-opacity:0.72;display:inline"/>
<path d="M 16.96,8.02 C 16.96,8.02 17.11,7.72 17.11,7.41 C 17.11,7.09 17.05,5.52 17.11,5.44 C 17.16,5.35 17.39,4.52 17.39,4.52" id="p3714" style="fill:none;stroke:#494949;stroke-width:0.29;stroke-linecap:round;stroke-linejoin:miter;stroke-miterlimit:4;stroke-dasharray:none;stroke-opacity:1;display:inline"/>
<path d="M 18.30,3.51 C 18.49,3.23 18.89,2.73 19.23,2.62" id="p3739" style="fill:none;stroke:#696969;stroke-width:0.29;stroke-linecap:round;stroke-linejoin:miter;stroke-miterlimit:4;stroke-dasharray:none;stroke-opacity:0.76"/>
<path d="M 13.99,9.16 C 14.42,9.57 15.07,9.65 15.87,9.67 C 16.68,9.70 18.97,9.62 19.21,9.54 C 19.45,9.46 19.37,9.33 19.37,9.33 L 19.35,8.92 L 19.05,8.81 L 19.05,8.46 L 18.83,8.36 C 18.83,8.36 19.59,7.28 19.99,6.79 C 20.4,6.31 21.26,4.75 21.26,4.75 C 21.26,4.75 22.23,5.82 22.41,6.01 C 22.60,6.20 23.11,6.76 23.17,6.96 C 23.22,7.14 23.17,7.22 23.54,7.22 C 23.92,7.22 26.26,7.25 26.64,7.17 C 27.01,7.08 27.39,6.87 27.39,6.87 L 27.39,6.36 C 27.39,6.36 26.51,6.14 25.93,6.12 C 25.37,6.10 25.16,6.07 25.16,6.07 C 25.16,6.07 25.13,4.93 25.13,4.50 C 25.13,4.08 24.19,2.38 23.35,2.30 C 22.52,2.22 22.63,2.49 21.85,2.49 C 21.06,2.49 19.61,2.56 19.18,2.52 C 18.76,2.46 18.16,2.78 17.70,3.40 C 17.24,4.02 16.74,5.10 16.74,5.99 C 16.74,6.87 16.71,8.14 16.71,8.14 C 16.71,8.14 16.14,8.16 15.98,8.16 C 15.82,8.16 15.66,8.25 15.66,8.36 C 15.66,8.46 14.56,8.46 14.31,8.51 C 14.07,8.57 13.96,8.65 13.99,9.16 L 13.99,9.16 z" id="stroke02" style="fill:none;stroke:#0a0a0a;stroke-width:0.38;stroke-linecap:butt;stroke-linejoin:miter;stroke-miterlimit:4;stroke-dasharray:none;stroke-opacity:1;display:inline"/>
<path d="M 19.39,5.91 C 19.64,5.62 20.04,5.09 20.11,4.93" id="p3741" style="fill:none;stroke:#d0d0d0;stroke-width:0.29;stroke-linecap:round;stroke-linejoin:miter;stroke-miterlimit:4;stroke-dasharray:none;stroke-opacity:0.43"/>
</svg>
