<?xml version="1.0" encoding="UTF-8" standalone="no"?>
<!DOCTYPE svg PUBLIC "-//W3C//DTD SVG 1.0//EN" "http://www.w3.org/TR/2001/REC-SVG-20010904/DTD/svg10.dtd">
<svg xmlns:svg="http://www.w3.org/2000/svg" xmlns="http://www.w3.org/2000/svg" xmlns:xlink="http://www.w3.org/1999/xlink" version="1.0" width="100%" height="100%" viewBox="0 0 48 48" id="_pocketwatch01" style="display:inline">
<defs id="defs2385"/>
<g id="pocketwatch01" style="display:inline">
<path d="M 21.53,3.09 C 19.47,3.32 18.09,4.59 18.09,6.03 C 18.09,6.51 18.14,7.20 18.59,7.84 C 19.04,8.48 19.81,9.02 21.06,9.53 L 21.62,8.12 C 20.53,7.68 20.05,7.27 19.84,6.96 C 19.62,6.65 19.59,6.42 19.59,6.03 C 19.59,5.72 20.18,4.76 21.68,4.59 C 22.48,4.50 23.82,4.52 25.06,4.62 C 26.30,4.72 27.51,4.91 27.96,5.09 C 28.50,5.30 29.02,5.76 29.25,6.18 C 29.47,6.60 29.51,6.90 29.21,7.28 C 28.98,7.57 27.93,8.08 26.96,8.37 C 26.00,8.66 25.12,8.81 25.12,8.81 L 25.37,10.28 C 25.37,10.28 26.30,10.12 27.37,9.81 C 28.44,9.49 29.68,9.11 30.40,8.18 C 31.06,7.34 30.99,6.26 30.56,5.46 C 30.12,4.67 29.38,4.05 28.53,3.71 C 27.70,3.38 26.50,3.22 25.18,3.12 C 23.87,3.02 22.50,2.98 21.53,3.09 z" id="p3256" style="fill:#a0a0a1;fill-opacity:1;fill-rule:evenodd;stroke:none;display:inline"/>
<path d="M 22.34,3.03 C 22.05,3.04 21.77,3.06 21.53,3.09 C 20.04,3.25 18.91,3.97 18.40,4.90 C 18.13,7.39 19.75,8.26 21.09,8.81 L 21.34,8.81 L 21.62,8.12 C 20.53,7.68 20.05,7.27 19.84,6.96 C 19.62,6.65 19.59,6.42 19.59,6.03 C 19.59,5.72 20.18,4.76 21.68,4.59 C 22.48,4.50 23.82,4.52 25.06,4.62 C 26.30,4.72 27.51,4.91 27.96,5.09 C 28.50,5.30 29.02,5.76 29.25,6.18 C 29.47,6.60 29.51,6.90 29.21,7.28 C 28.98,7.57 27.93,8.08 26.96,8.37 C 26.57,8.49 26.24,8.55 25.93,8.62 L 27.68,8.56 C 27.68,8.56 26.54,9.96 28.78,8.87 C 29.84,8.35 30.50,7.61 30.90,6.75 C 30.90,6.29 30.76,5.84 30.56,5.46 C 30.12,4.67 29.38,4.05 28.53,3.71 C 27.70,3.38 26.50,3.22 25.18,3.12 C 24.20,3.04 23.20,3.00 22.34,3.03 z" id="p3700" style="fill:#101222;fill-opacity:0.81;fill-rule:evenodd;stroke:none;display:inline"/>
<path d="M 20.88,8.06 C 18.94,6.77 18.84,5.88 18.99,4.84 C 19.14,3.80 21.62,2.91 24.65,3.15 C 27.67,3.40 31.34,4.29 30.15,7.02" id="p3703" style="fill:none;fill-rule:evenodd;stroke:#8ba7ca;stroke-width:0.40;stroke-linecap:round;stroke-linejoin:miter;stroke-miterlimit:4;stroke-dasharray:none;stroke-opacity:0.40;display:inline"/>
<path d="M 19.34,6.33 C 19.19,5.48 19.39,4.15 21.57,4.00 C 23.76,3.85 28.12,3.45 29.41,5.39" id="p3706" style="fill:none;fill-rule:evenodd;stroke:#d5d2a9;stroke-width:0.30;stroke-linecap:round;stroke-linejoin:miter;stroke-miterlimit:4;stroke-dasharray:none;stroke-opacity:0.22;display:inline"/>
<path d="M 24.43,3.53 C 21.74,3.53 21.84,4.43 21.84,4.43 L 21.75,5.09 L 22.56,6.62 C 22.40,6.62 22.28,6.62 22.12,6.62 C 21.45,6.62 20.56,7.37 20.56,7.37 C 20.56,7.37 20.5,8.72 20.5,9 C 20.69,9.07 21.38,9.93 22.68,10.25 C 22.72,10.72 22.65,12.34 22.65,12.34 L 23.68,12.56 L 23.71,12.93 L 24.59,12.75 L 25.43,12.93 L 25.46,12.56 L 26.53,12.34 C 26.53,12.34 26.42,10.72 26.46,10.25 C 27.77,9.93 28.45,9.07 28.65,9 C 28.65,8.72 28.62,7.37 28.62,7.37 C 28.62,7.37 27.70,6.62 27.03,6.62 C 26.93,6.62 26.84,6.62 26.75,6.62 L 27.46,5.12 L 27.5,4.5 C 27.5,4.50 27.12,3.53 24.43,3.53 z" id="p3244" style="fill:#6c8281;fill-opacity:1;fill-rule:evenodd;stroke:none;display:inline"/>
<path d="M 24.34,11.93 C 21.87,11.87 19.41,12.37 17.15,13.37 C 16.89,13.04 16.56,12.79 16.25,12.93 C 15.50,13.26 13.68,14.22 13.03,14.71 C 12.82,14.55 12.35,13.80 12.06,14.09 C 11.77,14.38 10.45,15.52 10.12,15.93 C 9.79,16.34 9.75,16.47 9.87,16.59 C 9.99,16.71 10.25,16.97 10.5,17.21 C 10.21,17.54 8.82,19.79 8.65,20.25 C 8.52,20.61 8.75,20.95 9.15,21.18 C 6.03,27.77 7.67,35.96 13.62,41 C 20.71,46.98 31.24,46.24 37.12,39.34 C 43.00,32.44 42.02,21.98 34.93,16 C 31.83,13.38 28.08,12.02 24.34,11.93 z" id="p2465" style="fill:#949596;fill-opacity:1;fill-rule:evenodd;stroke:none;marker:none;visibility:visible;display:inline;overflow:visible;enable-background:accumulate"/>
<path d="M 12.09,29.81 C 11.32,29.77 10.96,30.19 11.12,31.25 C 11.62,34.60 11.07,36.15 10.75,37.90 C 10.74,37.91 10.75,37.92 10.75,37.93 C 11.55,39.05 12.52,40.07 13.62,41 C 20.42,46.74 30.38,46.27 36.37,40.12 C 28.00,40.09 15.67,29.99 12.09,29.81 z" id="p3638" style="fill:#3b4650;fill-opacity:0.65;fill-rule:evenodd;stroke:none;display:inline"/>
<path d="M 34.44,16.47 C 41.15,21.99 42.07,31.62 36.50,37.99 C 30.93,44.35 20.98,45.03 14.27,39.51 C 7.57,34.00 6.64,24.36 12.21,18.00 C 17.78,11.63 27.73,10.95 34.44,16.47 z" id="p3246" style="fill:#000000;fill-opacity:1;fill-rule:evenodd;stroke:none;marker:none;visibility:visible;display:inline;overflow:visible;enable-background:accumulate"/>
<path d="M 12.5,19.18 C 12.08,19.17 11.25,19.72 10.25,20.90 C 10.23,20.91 10.22,20.92 10.21,20.93 C 8.44,24.35 8.14,28.28 9.21,31.90 C 9.30,28.77 9.36,24.59 11.65,21.59 C 12.85,20.02 12.99,19.19 12.5,19.18 z" id="p3400" style="fill:#674e05;fill-opacity:1;fill-rule:evenodd;stroke:none;display:inline"/>
<path d="M 24.40,12.75 C 19.85,12.64 15.34,14.42 12.21,18 C 11.28,19.06 10.53,20.22 9.96,21.43 C 9.99,24.11 11.01,27.19 13.75,30.56 L 28,24.90 C 28,24.90 20.38,38.53 26.28,40.62 C 29.59,41.79 33.27,40.18 36.37,38.12 C 36.41,38.08 36.46,38.04 36.5,38 C 42.06,31.63 41.14,21.98 34.43,16.46 C 31.50,14.05 27.94,12.83 24.40,12.75 z" id="p3402" style="fill:#545a58;fill-opacity:1;fill-rule:evenodd;stroke:none;display:inline"/>
<path d="M 24.40,12.75 C 22.78,12.71 21.18,12.93 19.62,13.37 C 25.94,14.25 33.69,17.41 35.12,20 C 36.78,22.98 38.93,23.22 39.43,32.78 C 41.24,27.11 39.48,20.62 34.43,16.46 C 31.50,14.05 27.94,12.83 24.40,12.75 z" id="p3404" style="fill:#a2a391;fill-opacity:1;fill-rule:evenodd;stroke:none;display:inline"/>
<path d="M 37.53,21.55 C 41.22,28.59 38.45,37.03 31.33,40.40 C 24.21,43.77 15.45,40.80 11.76,33.76 C 8.07,26.72 10.85,18.28 17.96,14.91 C 25.08,11.54 33.84,14.51 37.53,21.55 z" id="p3241" style="fill:#bbd5d3;fill-opacity:1;fill-rule:evenodd;stroke:none;marker:none;visibility:visible;display:inline;overflow:visible;enable-background:accumulate"/>
<path d="M 25.98,21.87 C 25.98,22.45 25.51,22.92 24.93,22.92 C 24.35,22.92 23.88,22.45 23.88,21.87 C 23.88,21.29 24.35,20.82 24.93,20.82 C 25.51,20.82 25.98,21.29 25.98,21.87 z" id="p3566" style="fill:#2b2b2b;fill-opacity:1;fill-rule:evenodd;stroke:none;marker:none;visibility:visible;display:inline;overflow:visible;enable-background:accumulate"/>
<path d="M 25.68,21.74 C 25.68,22.17 25.35,22.52 24.93,22.52 C 24.52,22.52 24.18,22.17 24.18,21.74 C 24.18,21.31 24.52,20.96 24.93,20.96 C 25.35,20.96 25.68,21.31 25.68,21.74 z" id="p3568" style="fill:#595037;fill-opacity:1;fill-rule:evenodd;stroke:none;marker:none;visibility:visible;display:inline;overflow:visible;enable-background:accumulate"/>
<path d="M 28.87,22.13 C 28.87,24.30 27.03,26.06 24.77,26.06 C 22.51,26.06 20.68,24.30 20.68,22.13 C 20.68,19.97 22.51,18.21 24.77,18.21 C 27.03,18.21 28.87,19.97 28.87,22.13 L 28.87,22.13 z" id="p3528" style="fill:none;fill-opacity:1;fill-rule:evenodd;stroke:#000000;stroke-width:0.15;stroke-linecap:butt;stroke-linejoin:miter;marker:none;stroke-miterlimit:4;stroke-dasharray:none;stroke-dashoffset:0;stroke-opacity:1;visibility:visible;display:inline;overflow:visible;enable-background:accumulate"/>
<path d="M 25.55,21.74 C 25.55,22.09 25.28,22.38 24.93,22.38 C 24.59,22.38 24.31,22.09 24.31,21.74 C 24.31,21.38 24.59,21.10 24.93,21.10 C 25.28,21.10 25.55,21.38 25.55,21.74 z" id="p3570" style="fill:#152e1c;fill-opacity:1;fill-rule:evenodd;stroke:none;marker:none;visibility:visible;display:inline;overflow:visible;enable-background:accumulate"/>
<path d="M 29.41,22.13 C 29.41,24.59 27.33,26.58 24.77,26.58 C 22.21,26.58 20.14,24.59 20.14,22.13 C 20.14,19.68 22.21,17.69 24.77,17.69 C 27.33,17.69 29.41,19.68 29.41,22.13 L 29.41,22.13 z" id="p3524" style="fill:none;fill-opacity:1;fill-rule:evenodd;stroke:#000000;stroke-width:0.14;stroke-linecap:butt;stroke-linejoin:miter;marker:none;stroke-miterlimit:4;stroke-dasharray:none;stroke-dashoffset:0;stroke-opacity:1;visibility:visible;display:inline;overflow:visible;enable-background:accumulate"/>
<path d="M 36.89,21.90 C 40.35,28.53 37.75,36.48 31.07,39.66 C 24.40,42.84 16.19,40.04 12.72,33.41 C 9.26,26.78 11.87,18.83 18.54,15.65 C 25.21,12.47 33.43,15.27 36.89,21.90 z" id="p3420" style="fill:none;fill-opacity:1;fill-rule:evenodd;stroke:#000000;stroke-width:0.19;stroke-linecap:butt;stroke-linejoin:miter;marker:none;stroke-miterlimit:4;stroke-dasharray:none;stroke-dashoffset:0;stroke-opacity:1;visibility:visible;display:inline;overflow:visible;enable-background:accumulate"/>
<path d="M 36.23,22.22 C 39.50,28.49 37.04,36.00 30.73,39.00 C 24.42,42.00 16.66,39.36 13.39,33.09 C 10.12,26.83 12.58,19.31 18.89,16.31 C 25.19,13.31 32.96,15.96 36.23,22.22 z" id="p3425" style="fill:none;fill-opacity:1;fill-rule:evenodd;stroke:#000000;stroke-width:0.2;stroke-linecap:butt;stroke-linejoin:miter;marker:none;stroke-miterlimit:4;stroke-dasharray:none;stroke-dashoffset:0;stroke-opacity:1;visibility:visible;display:inline;overflow:visible;enable-background:accumulate"/>
<path d="M 35.66,22.49 C 38.77,28.44 36.43,35.58 30.44,38.43 C 24.44,41.29 17.07,38.77 13.96,32.82 C 10.85,26.87 13.19,19.73 19.18,16.88 C 25.17,14.02 32.55,16.54 35.66,22.49 z" id="p3427" style="fill:none;fill-opacity:1;fill-rule:evenodd;stroke:#000000;stroke-width:0.14;stroke-linecap:butt;stroke-linejoin:miter;marker:none;stroke-miterlimit:4;stroke-dasharray:none;stroke-dashoffset:0;stroke-opacity:1;visibility:visible;display:inline;overflow:visible;enable-background:accumulate"/>
<path d="M 16.97,16.54 L 17.74,17.64" id="p3429" style="fill:none;fill-rule:evenodd;stroke:#000000;stroke-width:0.30;stroke-linecap:butt;stroke-linejoin:miter;stroke-miterlimit:4;stroke-dasharray:none;stroke-opacity:1;display:inline"/>
<path d="M 11.96,22.95 L 13.26,23.36" id="p3431" style="fill:none;fill-rule:evenodd;stroke:#000000;stroke-width:0.30;stroke-linecap:butt;stroke-linejoin:miter;stroke-miterlimit:4;stroke-dasharray:none;stroke-opacity:1;display:inline"/>
<path d="M 11.78,31.12 L 13.09,30.67" id="p3433" style="fill:none;fill-rule:evenodd;stroke:#000000;stroke-width:0.30;stroke-linecap:butt;stroke-linejoin:miter;stroke-miterlimit:4;stroke-dasharray:none;stroke-opacity:1;display:inline"/>
<path d="M 16.61,38.02 L 17.42,36.94" id="p3435" style="fill:none;fill-rule:evenodd;stroke:#000000;stroke-width:0.30;stroke-linecap:butt;stroke-linejoin:miter;stroke-miterlimit:4;stroke-dasharray:none;stroke-opacity:1;display:inline"/>
<path d="M 24.66,40.93 L 24.66,39.61" id="p3437" style="fill:none;fill-rule:evenodd;stroke:#000000;stroke-width:0.30;stroke-linecap:butt;stroke-linejoin:miter;stroke-miterlimit:4;stroke-dasharray:none;stroke-opacity:1;display:inline"/>
<path d="M 32.80,38.67 L 32.02,37.53" id="p3439" style="fill:none;fill-rule:evenodd;stroke:#000000;stroke-width:0.30;stroke-linecap:butt;stroke-linejoin:miter;stroke-miterlimit:4;stroke-dasharray:none;stroke-opacity:1;display:inline"/>
<path d="M 37.77,32.11 L 36.47,31.59" id="p3441" style="fill:none;fill-rule:evenodd;stroke:#000000;stroke-width:0.30;stroke-linecap:butt;stroke-linejoin:miter;stroke-miterlimit:4;stroke-dasharray:none;stroke-opacity:1;display:inline"/>
<path d="M 36.42,24.27 L 37.72,23.87" id="p3443" style="fill:none;fill-rule:evenodd;stroke:#000000;stroke-width:0.30;stroke-linecap:butt;stroke-linejoin:miter;stroke-miterlimit:4;stroke-dasharray:none;stroke-opacity:1;display:inline"/>
<path d="M 31.97,18.19 L 32.78,17.16" id="p3445" style="fill:none;fill-rule:evenodd;stroke:#000000;stroke-width:0.30;stroke-linecap:butt;stroke-linejoin:miter;stroke-miterlimit:4;stroke-dasharray:none;stroke-opacity:1;display:inline"/>
<path d="M 31.75,18.22 C 31.75,18.84 31.75,19.47 31.75,20.10 C 31.58,20.10 31.41,20.10 31.23,20.10 C 31.23,19.68 31.23,19.27 31.23,18.86 C 31.07,18.99 30.89,19.08 30.69,19.13 C 30.69,18.99 30.69,18.85 30.69,18.71 C 30.91,18.64 31.13,18.53 31.26,18.34 C 31.30,18.31 31.30,18.21 31.36,18.22 C 31.49,18.22 31.62,18.22 31.75,18.22 z" id="text3451" style="font-size:2.58px;font-style:normal;font-variant:normal;font-weight:normal;font-stretch:normal;fill:#000000;fill-opacity:1;stroke:none;display:inline;font-family:Arial Black;-inkscape-font-specification:Arial Black"/>
<path d="M 36.07,25.32 C 35.55,25.32 35.04,25.32 34.53,25.32 C 34.55,25.07 34.69,24.84 34.88,24.67 C 35.05,24.50 35.27,24.38 35.44,24.21 C 35.52,24.13 35.58,24.00 35.51,23.89 C 35.43,23.75 35.19,23.76 35.12,23.91 C 35.08,23.96 35.12,24.09 35.04,24.07 C 34.88,24.06 34.72,24.04 34.57,24.03 C 34.59,23.85 34.65,23.65 34.82,23.55 C 35.01,23.43 35.24,23.44 35.45,23.45 C 35.64,23.46 35.84,23.51 35.96,23.68 C 36.10,23.87 36.08,24.15 35.94,24.33 C 35.79,24.54 35.55,24.65 35.36,24.81 C 35.34,24.84 35.22,24.91 35.31,24.90 C 35.56,24.90 35.81,24.90 36.07,24.90 C 36.07,25.04 36.07,25.18 36.07,25.32 z" id="text3459" style="font-size:2.58px;font-style:normal;font-variant:normal;font-weight:normal;font-stretch:normal;fill:#000000;fill-opacity:1;stroke:none;display:inline;font-family:Arial Black;-inkscape-font-specification:Arial Black"/>
<path d="M 35.10,30.92 C 34.94,30.89 34.77,30.86 34.61,30.83 C 34.66,30.63 34.81,30.45 35.01,30.40 C 35.21,30.34 35.44,30.34 35.64,30.39 C 35.84,30.43 36.00,30.59 36.02,30.79 C 36.03,30.95 35.94,31.11 35.80,31.19 C 35.75,31.21 35.75,31.22 35.80,31.23 C 35.98,31.27 36.11,31.44 36.11,31.61 C 36.13,31.87 35.97,32.12 35.73,32.21 C 35.53,32.28 35.31,32.27 35.10,32.24 C 34.90,32.21 34.71,32.07 34.63,31.88 C 34.63,31.84 34.55,31.74 34.61,31.74 C 34.78,31.72 34.94,31.70 35.10,31.68 C 35.12,31.79 35.16,31.92 35.28,31.94 C 35.40,31.98 35.53,31.91 35.57,31.80 C 35.62,31.67 35.60,31.49 35.46,31.43 C 35.37,31.39 35.27,31.41 35.18,31.43 C 35.19,31.31 35.20,31.19 35.21,31.07 C 35.33,31.10 35.46,31.04 35.50,30.92 C 35.54,30.82 35.48,30.69 35.36,30.68 C 35.26,30.65 35.15,30.71 35.12,30.81 C 35.11,30.85 35.10,30.88 35.10,30.92 L 35.10,30.92 z" id="text3463" style="font-size:2.58px;font-style:normal;font-variant:normal;font-weight:normal;font-stretch:normal;fill:#000000;fill-opacity:1;stroke:none;display:inline;font-family:Arial Black;-inkscape-font-specification:Arial Black"/>
<path d="M 31.36,37.15 C 31.05,37.15 30.74,37.15 30.42,37.15 C 30.42,37.01 30.42,36.87 30.42,36.72 C 30.74,36.35 31.05,35.98 31.36,35.61 C 31.51,35.61 31.66,35.61 31.81,35.61 C 31.81,35.99 31.81,36.37 31.81,36.75 C 31.88,36.75 31.96,36.75 32.04,36.75 C 32.04,36.88 32.04,37.01 32.04,37.15 C 31.96,37.15 31.88,37.15 31.81,37.15 C 31.81,37.26 31.81,37.38 31.81,37.49 C 31.66,37.49 31.51,37.49 31.36,37.49 C 31.36,37.38 31.36,37.26 31.36,37.15 z M 31.36,36.75 C 31.36,36.56 31.36,36.36 31.36,36.17 C 31.20,36.36 31.03,36.56 30.87,36.75 C 31.03,36.75 31.20,36.75 31.36,36.75 z" id="text3467" style="font-size:2.58px;font-style:normal;font-variant:normal;font-weight:normal;font-stretch:normal;fill:#000000;fill-opacity:1;stroke:none;display:inline;font-family:Arial Black;-inkscape-font-specification:Arial Black"/>
<path d="M 24.14,37.54 C 24.55,37.54 24.96,37.54 25.36,37.54 C 25.36,37.68 25.36,37.81 25.36,37.95 C 25.09,37.95 24.81,37.95 24.54,37.95 C 24.52,38.04 24.51,38.13 24.49,38.23 C 24.73,38.11 25.05,38.11 25.26,38.29 C 25.43,38.44 25.48,38.69 25.43,38.90 C 25.38,39.11 25.24,39.29 25.03,39.37 C 24.83,39.43 24.62,39.43 24.41,39.39 C 24.20,39.35 24.01,39.19 23.94,38.99 C 23.91,38.93 23.91,38.89 23.97,38.90 C 24.13,38.89 24.28,38.87 24.43,38.85 C 24.44,38.97 24.53,39.10 24.66,39.11 C 24.79,39.12 24.91,39.02 24.92,38.89 C 24.94,38.76 24.94,38.60 24.83,38.51 C 24.71,38.42 24.53,38.46 24.43,38.58 C 24.41,38.61 24.37,38.58 24.34,38.58 C 24.22,38.57 24.10,38.55 23.98,38.53 C 24.03,38.20 24.09,37.87 24.14,37.54 z" id="text3471" style="font-size:2.58px;font-style:normal;font-variant:normal;font-weight:normal;font-stretch:normal;fill:#000000;fill-opacity:1;stroke:none;display:inline;font-family:Arial Black;-inkscape-font-specification:Arial Black"/>
<path d="M 18.76,35.48 C 18.59,35.51 18.42,35.53 18.25,35.55 C 18.24,35.46 18.19,35.36 18.09,35.35 C 17.96,35.34 17.86,35.46 17.84,35.58 C 17.82,35.67 17.81,35.77 17.80,35.87 C 17.91,35.74 18.08,35.67 18.24,35.68 C 18.53,35.69 18.77,35.93 18.80,36.21 C 18.83,36.46 18.72,36.75 18.49,36.87 C 18.29,36.96 18.07,36.96 17.86,36.93 C 17.67,36.90 17.50,36.78 17.41,36.61 C 17.28,36.38 17.27,36.09 17.29,35.82 C 17.31,35.59 17.38,35.34 17.57,35.19 C 17.78,35.03 18.06,35.01 18.31,35.06 C 18.51,35.09 18.67,35.23 18.74,35.41 C 18.75,35.44 18.76,35.46 18.76,35.48 L 18.76,35.48 z M 17.82,36.31 C 17.81,36.44 17.89,36.59 18.03,36.62 C 18.15,36.65 18.28,36.56 18.30,36.44 C 18.33,36.30 18.32,36.12 18.19,36.03 C 18.06,35.96 17.88,36.02 17.84,36.16 C 17.82,36.21 17.82,36.26 17.82,36.31 L 17.82,36.31 z" id="text3475" style="font-size:2.58px;font-style:normal;font-variant:normal;font-weight:normal;font-stretch:normal;fill:#000000;fill-opacity:1;stroke:none;display:inline;font-family:Arial Black;-inkscape-font-specification:Arial Black"/>
<path d="M 13.30,29.58 C 13.80,29.58 14.30,29.58 14.80,29.58 C 14.80,29.69 14.80,29.81 14.80,29.93 C 14.41,30.27 14.20,30.77 14.14,31.27 C 14.12,31.32 14.14,31.40 14.11,31.43 C 13.94,31.43 13.78,31.43 13.61,31.43 C 13.66,31.06 13.75,30.69 13.95,30.38 C 14.03,30.25 14.12,30.13 14.21,30.01 C 13.91,30.01 13.60,30.01 13.30,30.01 C 13.30,29.87 13.30,29.72 13.30,29.58 z" id="text3479" style="font-size:2.58px;font-style:normal;font-variant:normal;font-weight:normal;font-stretch:normal;fill:#000000;fill-opacity:1;stroke:none;display:inline;font-family:Arial Black;-inkscape-font-specification:Arial Black"/>
<path d="M 13.86,23.59 C 13.73,23.53 13.62,23.40 13.61,23.25 C 13.59,23.08 13.67,22.92 13.81,22.83 C 14.01,22.69 14.26,22.69 14.49,22.72 C 14.68,22.74 14.88,22.83 14.96,23.01 C 15.04,23.19 14.99,23.41 14.84,23.53 C 14.81,23.56 14.73,23.59 14.81,23.61 C 15.00,23.71 15.09,23.94 15.05,24.14 C 15.02,24.34 14.87,24.51 14.68,24.56 C 14.45,24.63 14.21,24.63 13.98,24.58 C 13.78,24.54 13.62,24.39 13.57,24.20 C 13.52,24.01 13.56,23.78 13.72,23.66 C 13.76,23.63 13.81,23.61 13.86,23.59 z M 14.09,23.23 C 14.08,23.33 14.17,23.43 14.27,23.44 C 14.38,23.46 14.50,23.38 14.51,23.26 C 14.53,23.15 14.45,23.03 14.33,23.02 C 14.22,23.00 14.10,23.08 14.09,23.19 C 14.09,23.20 14.09,23.21 14.09,23.23 L 14.09,23.23 z M 14.06,24.02 C 14.05,24.17 14.19,24.32 14.34,24.30 C 14.49,24.27 14.57,24.10 14.54,23.96 C 14.52,23.82 14.37,23.70 14.23,23.75 C 14.12,23.79 14.06,23.91 14.06,24.02 z" id="text3483" style="font-size:2.58px;font-style:normal;font-variant:normal;font-weight:normal;font-stretch:normal;fill:#000000;fill-opacity:1;stroke:none;display:inline;font-family:Arial Black;-inkscape-font-specification:Arial Black"/>
<path d="M 17.67,19.23 C 17.84,19.21 18.01,19.19 18.18,19.17 C 18.19,19.26 18.24,19.36 18.35,19.37 C 18.47,19.38 18.57,19.26 18.59,19.14 C 18.61,19.05 18.62,18.95 18.63,18.85 C 18.52,18.97 18.36,19.04 18.20,19.03 C 17.93,19.04 17.68,18.81 17.64,18.54 C 17.59,18.29 17.69,18.01 17.91,17.87 C 18.10,17.76 18.34,17.76 18.56,17.79 C 18.75,17.82 18.92,17.93 19.01,18.09 C 19.16,18.34 19.16,18.63 19.14,18.91 C 19.12,19.14 19.04,19.40 18.84,19.54 C 18.63,19.69 18.35,19.70 18.11,19.66 C 17.90,19.62 17.74,19.46 17.68,19.27 L 17.67,19.25 L 17.67,19.23 z M 18.61,18.41 C 18.62,18.27 18.54,18.12 18.39,18.09 C 18.27,18.07 18.15,18.16 18.13,18.28 C 18.10,18.41 18.11,18.59 18.23,18.68 C 18.35,18.76 18.53,18.70 18.58,18.57 C 18.61,18.52 18.61,18.46 18.61,18.41 z" id="text3487" style="font-size:2.58px;font-style:normal;font-variant:normal;font-weight:normal;font-stretch:normal;fill:#000000;fill-opacity:1;stroke:none;display:inline;font-family:Arial Black;-inkscape-font-specification:Arial Black"/>
<path d="M 24.10,16.63 C 24.10,16.44 24.12,16.24 24.25,16.07 C 24.37,15.91 24.62,15.85 24.84,15.85 C 25.05,15.85 25.27,15.89 25.41,16.02 C 25.56,16.16 25.59,16.35 25.61,16.52 C 25.62,16.73 25.61,16.95 25.50,17.14 C 25.43,17.27 25.27,17.37 25.10,17.39 C 24.91,17.43 24.71,17.43 24.53,17.37 C 24.33,17.31 24.19,17.15 24.15,16.98 C 24.11,16.87 24.10,16.75 24.10,16.63 L 24.10,16.63 z M 24.61,16.63 C 24.61,16.76 24.61,16.90 24.67,17.02 C 24.71,17.10 24.83,17.15 24.93,17.12 C 25.05,17.07 25.08,16.95 25.09,16.85 C 25.11,16.68 25.11,16.50 25.07,16.32 C 25.05,16.23 24.99,16.14 24.87,16.13 C 24.76,16.12 24.67,16.20 24.65,16.28 C 24.61,16.39 24.61,16.51 24.61,16.63 L 24.61,16.63 z" id="text3491" style="font-size:2.33px;font-style:normal;font-variant:normal;font-weight:normal;font-stretch:normal;fill:#000000;fill-opacity:1;stroke:none;display:inline;font-family:Arial Black;-inkscape-font-specification:Arial Black"/>
<path d="M 23.71,19.28 C 23.77,19.28 23.83,19.27 23.89,19.27 C 23.91,19.35 23.99,19.45 24.13,19.47 C 24.30,19.50 24.50,19.40 24.51,19.28 C 24.53,19.17 24.40,19.06 24.24,19.05 C 24.18,19.03 24.05,19.10 24.08,19.03 C 24.09,19.01 24.09,18.98 24.10,18.95 C 24.23,18.96 24.40,18.92 24.43,18.82 C 24.47,18.73 24.38,18.63 24.24,18.62 C 24.11,18.60 23.97,18.66 23.94,18.74 C 23.93,18.79 23.91,18.82 23.84,18.80 C 23.80,18.79 23.76,18.79 23.72,18.78 C 23.75,18.65 23.90,18.54 24.10,18.52 C 24.30,18.49 24.55,18.56 24.61,18.71 C 24.67,18.81 24.60,18.94 24.45,18.99 C 24.40,19.01 24.56,19.02 24.59,19.05 C 24.77,19.17 24.73,19.38 24.56,19.48 C 24.36,19.62 23.97,19.61 23.80,19.45 C 23.74,19.40 23.71,19.34 23.71,19.28 L 23.71,19.28 z M 24.89,19.05 C 24.90,18.88 24.92,18.70 25.10,18.58 C 25.29,18.47 25.63,18.50 25.76,18.65 C 25.90,18.80 25.90,19.00 25.88,19.17 C 25.87,19.32 25.80,19.48 25.59,19.55 C 25.40,19.61 25.13,19.57 25.02,19.44 C 24.91,19.32 24.90,19.18 24.89,19.05 z M 25.09,19.05 C 25.09,19.16 25.09,19.28 25.17,19.39 C 25.25,19.47 25.42,19.50 25.54,19.44 C 25.68,19.36 25.68,19.22 25.70,19.11 C 25.69,18.98 25.71,18.84 25.62,18.72 C 25.55,18.63 25.37,18.59 25.25,18.65 C 25.11,18.72 25.10,18.85 25.09,18.96 C 25.09,18.99 25.09,19.02 25.09,19.05 L 25.09,19.05 z" id="text3530" style="font-size:1.75px;font-style:normal;font-variant:normal;font-weight:normal;font-stretch:normal;fill:#000000;fill-opacity:1;stroke:none;display:inline;font-family:Arial;-inkscape-font-specification:Arial"/>
<path d="M 27.01,20.91 C 27.07,20.91 27.14,20.91 27.20,20.90 C 27.22,20.98 27.28,21.06 27.39,21.09 C 27.52,21.12 27.67,21.09 27.75,21.01 C 27.83,20.94 27.84,20.83 27.80,20.75 C 27.76,20.66 27.63,20.61 27.50,20.61 C 27.39,20.61 27.28,20.65 27.21,20.71 C 27.16,20.71 27.10,20.70 27.04,20.70 C 27.09,20.52 27.14,20.34 27.19,20.16 C 27.44,20.16 27.69,20.16 27.95,20.16 C 27.95,20.20 27.95,20.24 27.95,20.28 C 27.74,20.28 27.54,20.28 27.34,20.28 C 27.31,20.38 27.28,20.47 27.25,20.56 C 27.42,20.48 27.65,20.47 27.82,20.56 C 27.95,20.62 28.03,20.73 28.02,20.84 C 28.02,21.00 27.87,21.15 27.64,21.19 C 27.46,21.22 27.25,21.20 27.12,21.10 C 27.05,21.05 27.01,20.98 27.01,20.91 L 27.01,20.91 z" id="text3534" style="font-size:1.75px;font-style:normal;font-variant:normal;font-weight:normal;font-stretch:normal;fill:#000000;fill-opacity:1;stroke:none;display:inline;font-family:Arial;-inkscape-font-specification:Arial"/>
<path d="M 26.95,24.09 C 26.88,24.09 26.82,24.09 26.76,24.09 C 26.76,23.82 26.76,23.55 26.76,23.28 C 26.65,23.35 26.52,23.40 26.38,23.44 C 26.38,23.39 26.38,23.35 26.38,23.31 C 26.56,23.25 26.73,23.17 26.82,23.05 C 26.87,23.05 26.91,23.05 26.95,23.05 C 26.95,23.40 26.95,23.75 26.95,24.09 z M 27.16,23.58 C 27.16,23.42 27.18,23.25 27.36,23.13 C 27.54,23.01 27.89,23.03 28.03,23.18 C 28.17,23.34 28.16,23.53 28.15,23.70 C 28.14,23.84 28.07,24.00 27.88,24.08 C 27.69,24.14 27.42,24.12 27.29,23.99 C 27.18,23.87 27.16,23.72 27.16,23.58 L 27.16,23.58 z M 27.35,23.58 C 27.36,23.70 27.35,23.82 27.44,23.92 C 27.51,24.01 27.69,24.04 27.80,23.97 C 27.95,23.90 27.95,23.77 27.96,23.66 C 27.96,23.53 27.97,23.39 27.90,23.26 C 27.84,23.18 27.68,23.13 27.55,23.17 C 27.41,23.22 27.38,23.34 27.36,23.44 C 27.36,23.49 27.35,23.53 27.35,23.58 L 27.35,23.58 z" id="text3538" style="font-size:1.75px;font-style:normal;font-variant:normal;font-weight:normal;font-stretch:normal;fill:#000000;fill-opacity:1;stroke:none;display:inline;font-family:Arial;-inkscape-font-specification:Arial"/>
<path d="M 24.56,25.82 C 24.49,25.82 24.43,25.82 24.37,25.82 C 24.37,25.55 24.37,25.28 24.37,25.01 C 24.26,25.07 24.13,25.12 23.99,25.16 C 23.99,25.12 23.99,25.08 23.99,25.04 C 24.17,24.98 24.34,24.90 24.44,24.78 C 24.48,24.78 24.52,24.78 24.56,24.78 C 24.56,25.12 24.56,25.47 24.56,25.82 z M 24.72,25.55 C 24.78,25.54 24.85,25.54 24.91,25.54 C 24.92,25.63 25.01,25.72 25.15,25.73 C 25.32,25.75 25.49,25.66 25.52,25.55 C 25.55,25.44 25.51,25.31 25.35,25.26 C 25.20,25.22 25.01,25.25 24.92,25.34 C 24.87,25.34 24.81,25.33 24.75,25.33 C 24.80,25.15 24.85,24.97 24.90,24.80 C 25.15,24.80 25.40,24.80 25.66,24.80 C 25.66,24.84 25.66,24.88 25.66,24.92 C 25.45,24.92 25.25,24.92 25.05,24.92 C 25.02,25.01 24.99,25.10 24.96,25.20 C 25.15,25.10 25.44,25.11 25.60,25.23 C 25.77,25.36 25.77,25.56 25.62,25.70 C 25.51,25.81 25.31,25.85 25.12,25.83 C 24.92,25.82 24.74,25.71 24.72,25.57 C 24.72,25.56 24.72,25.56 24.72,25.55 L 24.72,25.55 z" id="text3542" style="font-size:1.75px;font-style:normal;font-variant:normal;font-weight:normal;font-stretch:normal;fill:#000000;fill-opacity:1;stroke:none;display:inline;font-family:Arial;-inkscape-font-specification:Arial"/>
<path d="M 22.32,23.77 C 22.32,23.81 22.32,23.85 22.32,23.89 C 21.98,23.89 21.64,23.89 21.31,23.89 C 21.31,23.75 21.46,23.64 21.61,23.56 C 21.77,23.46 21.97,23.37 22.08,23.23 C 22.15,23.15 22.13,23.04 22.01,22.98 C 21.86,22.92 21.62,22.95 21.56,23.07 C 21.53,23.11 21.56,23.18 21.47,23.15 C 21.43,23.15 21.39,23.15 21.34,23.15 C 21.35,23.02 21.46,22.90 21.64,22.86 C 21.85,22.82 22.11,22.84 22.24,22.97 C 22.37,23.09 22.32,23.25 22.18,23.36 C 22.02,23.50 21.79,23.59 21.61,23.72 C 21.56,23.76 21.57,23.77 21.64,23.77 C 21.87,23.77 22.09,23.77 22.32,23.77 z M 22.52,23.38 C 22.52,23.21 22.54,23.03 22.73,22.91 C 22.92,22.80 23.25,22.83 23.39,22.98 C 23.53,23.13 23.52,23.33 23.51,23.50 C 23.49,23.65 23.42,23.81 23.22,23.88 C 23.03,23.94 22.76,23.90 22.64,23.77 C 22.54,23.65 22.52,23.51 22.52,23.38 L 22.52,23.38 z M 22.71,23.38 C 22.72,23.49 22.71,23.61 22.80,23.72 C 22.87,23.80 23.05,23.83 23.16,23.77 C 23.31,23.69 23.31,23.55 23.32,23.44 C 23.32,23.31 23.33,23.17 23.25,23.05 C 23.18,22.96 23.00,22.92 22.87,22.98 C 22.74,23.05 22.73,23.18 22.72,23.29 C 22.71,23.32 22.71,23.35 22.71,23.38 L 22.71,23.38 z" id="text3546" style="font-size:1.75px;font-style:normal;font-variant:normal;font-weight:normal;font-stretch:normal;fill:#000000;fill-opacity:1;stroke:none;display:inline;font-family:Arial;-inkscape-font-specification:Arial"/>
<path d="M 22.28,20.88 C 22.28,20.92 22.28,20.96 22.28,21.00 C 21.94,21.00 21.61,21.00 21.27,21.00 C 21.27,20.87 21.43,20.76 21.57,20.67 C 21.74,20.57 21.94,20.48 22.05,20.34 C 22.12,20.26 22.08,20.15 21.96,20.10 C 21.81,20.04 21.58,20.07 21.52,20.19 C 21.49,20.23 21.52,20.30 21.43,20.27 C 21.39,20.27 21.35,20.26 21.30,20.26 C 21.31,20.14 21.42,20.02 21.61,19.98 C 21.81,19.94 22.07,19.96 22.21,20.09 C 22.33,20.21 22.28,20.37 22.15,20.47 C 21.98,20.61 21.75,20.71 21.58,20.84 C 21.52,20.87 21.53,20.89 21.60,20.88 C 21.83,20.88 22.05,20.88 22.28,20.88 z M 22.48,20.73 C 22.55,20.73 22.61,20.72 22.68,20.72 C 22.69,20.81 22.79,20.91 22.93,20.92 C 23.11,20.94 23.28,20.83 23.29,20.71 C 23.32,20.60 23.25,20.48 23.10,20.44 C 22.96,20.41 22.77,20.44 22.69,20.53 C 22.63,20.52 22.57,20.52 22.52,20.51 C 22.56,20.34 22.61,20.16 22.66,19.98 C 22.92,19.98 23.17,19.98 23.42,19.98 C 23.42,20.02 23.42,20.06 23.42,20.10 C 23.22,20.10 23.02,20.10 22.81,20.10 C 22.79,20.19 22.76,20.29 22.73,20.38 C 22.92,20.28 23.23,20.30 23.38,20.43 C 23.60,20.60 23.50,20.91 23.19,20.99 C 22.96,21.06 22.66,21.02 22.54,20.86 C 22.51,20.82 22.49,20.78 22.48,20.73 L 22.48,20.73 z" id="text3550" style="font-size:1.75px;font-style:normal;font-variant:normal;font-weight:normal;font-stretch:normal;fill:#000000;fill-opacity:1;stroke:none;display:inline;font-family:Arial;-inkscape-font-specification:Arial"/>
<path d="M 24.78,14.34 L 24.68,26.25 C 24.20,26.36 23.84,26.80 23.84,27.34 C 23.84,27.87 24.18,28.30 24.65,28.43 C 24.63,28.78 24.54,30.12 24.5,30.90 C 24.46,31.63 25.37,31.67 25.37,30.96 C 25.37,30.51 25.30,29.35 25.25,28.43 C 25.70,28.29 26.03,27.86 26.03,27.34 C 26.03,26.82 25.70,26.38 25.25,26.25 L 25.03,14.40 L 24.78,14.34 z" id="p3515" style="fill:#000000;fill-opacity:1;fill-rule:evenodd;stroke:none;display:inline"/>
<path d="M 25.68,27.14 C 25.68,27.57 25.35,27.92 24.93,27.92 C 24.52,27.92 24.19,27.57 24.19,27.14 C 24.19,26.71 24.52,26.36 24.93,26.36 C 25.35,26.36 25.68,26.71 25.68,27.14 z" id="p3519" style="fill:#71602e;fill-opacity:1;fill-rule:evenodd;stroke:none;marker:none;visibility:visible;display:inline;overflow:visible;enable-background:accumulate"/>
<path d="M 36.65,20.09 C 29.96,24.30 25.41,32.98 24.75,41.78 C 26.96,41.83 29.23,41.40 31.34,40.40 C 38.45,37.03 41.22,28.59 37.53,21.56 C 37.26,21.05 36.97,20.55 36.65,20.09 z" id="p3643" style="fill:#3b4650;fill-opacity:0.10;fill-rule:evenodd;stroke:none;display:inline"/>
<path d="M 25.55,27.14 C 25.55,27.50 25.28,27.78 24.93,27.78 C 24.59,27.78 24.32,27.50 24.32,27.14 C 24.32,26.78 24.59,26.50 24.93,26.50 C 25.28,26.50 25.55,26.78 25.55,27.14 z" id="p3522" style="fill:#0f351a;fill-opacity:1;fill-rule:evenodd;stroke:none;marker:none;visibility:visible;display:inline;overflow:visible;enable-background:accumulate"/>
<path d="M 37.87,22.28 C 29.21,30.72 19.16,37.14 10.46,30.21 C 10.73,31.42 11.14,32.62 11.75,33.78 C 15.43,40.81 24.23,43.77 31.34,40.40 C 38.21,37.15 41.01,29.16 37.87,22.28 z" id="p3655" style="fill:#23685a;fill-opacity:0.10;fill-rule:evenodd;stroke:none;display:inline"/>
<path d="M 37.53,21.55 C 41.22,28.59 38.45,37.03 31.33,40.40 C 24.21,43.77 15.45,40.80 11.76,33.76 C 8.07,26.72 10.85,18.28 17.96,14.91 C 25.08,11.54 33.84,14.51 37.53,21.55 z" id="p3612" style="fill:#6bbac6;fill-opacity:0.35;fill-rule:evenodd;stroke:none;marker:none;visibility:visible;display:inline;overflow:visible;enable-background:accumulate"/>
<path d="M 16.5,12.90 C 16.42,12.89 16.32,12.90 16.25,12.93 C 15.50,13.26 13.68,14.22 13.03,14.71 C 12.82,14.55 12.35,13.80 12.06,14.09 C 11.77,14.38 10.45,15.52 10.12,15.93 C 9.79,16.34 9.75,16.47 9.87,16.59 C 9.99,16.71 10.25,16.97 10.5,17.21 C 10.21,17.54 8.82,19.79 8.65,20.25 C 8.52,20.60 8.73,20.95 9.12,21.18 C 9.13,21.19 9.14,21.18 9.15,21.18 C 10.01,19.59 10.82,18.01 12.31,16.56 C 13.79,15.11 15.86,14.19 17.12,13.34 C 16.93,13.11 16.72,12.93 16.5,12.90 z" id="p3614" style="fill:#cbc6c4;fill-opacity:1;fill-rule:evenodd;stroke:none;display:inline"/>
<path d="M 23.32,11.98 C 23.32,11.98 24.16,11.80 24.67,11.84 C 25.18,11.89 25.92,12.03 25.92,12.03 L 25.88,9.89 C 25.88,9.89 27.09,9.52 28.01,8.96 C 28.94,8.40 27.78,7.43 27.36,7.24 C 26.95,7.06 22.72,7.01 22.25,7.06 C 21.79,7.10 20.62,7.40 21.04,8.59 C 21.32,9.38 23.32,9.61 23.32,9.61 L 23.32,11.98 z" id="p3648" style="fill:#192332;fill-opacity:1;fill-rule:evenodd;stroke:none;display:inline"/>
<path d="M 21.37,12.54 C 23.04,12.31 25.09,11.98 27.83,12.77" id="p3651" style="fill:none;fill-rule:evenodd;stroke:#0f1530;stroke-width:0.5;stroke-linecap:round;stroke-linejoin:miter;stroke-miterlimit:4;stroke-dasharray:none;stroke-opacity:0.67;display:inline"/>
<path d="M 23.74,8.05 C 24.18,8.03 25.00,8.11 25.21,8.19" id="p3662" style="fill:none;fill-rule:evenodd;stroke:#9b9b9b;stroke-width:1.60;stroke-linecap:round;stroke-linejoin:miter;stroke-miterlimit:4;stroke-dasharray:none;stroke-opacity:0.42;display:inline"/>
<path d="M 23.88,8.03 C 24.11,7.99 24.39,8.03 24.58,8.03" id="p3653" style="fill:none;fill-rule:evenodd;stroke:#ffffff;stroke-width:1px;stroke-linecap:round;stroke-linejoin:miter;stroke-opacity:0.78;display:inline"/>
<path d="M 24.36,9.88 L 24.42,11.39" id="p3664" style="fill:none;fill-rule:evenodd;stroke:#494d5e;stroke-width:0.40;stroke-linecap:round;stroke-linejoin:miter;stroke-miterlimit:4;stroke-dasharray:none;stroke-opacity:0.69;display:inline"/>
<path d="M 23.62,9.66 C 23.87,9.64 24.73,9.70 24.98,9.70" id="p3660" style="fill:none;fill-rule:evenodd;stroke:#ebebeb;stroke-width:0.30;stroke-linecap:round;stroke-linejoin:miter;stroke-miterlimit:4;stroke-dasharray:none;stroke-opacity:0.90;display:inline"/>
<path d="M 24.75,3.71 L 24.21,4.03 L 23.5,3.75 L 22.87,4.18 L 22.40,4 L 21.87,4.5 L 21.81,4.59 L 21.75,5.09 L 22.56,6.62 C 22.52,6.62 22.49,6.62 22.46,6.62 C 23.09,6.82 23.66,6.66 24.59,6.71 C 25.39,6.75 26.17,6.84 26.84,6.62 C 26.81,6.62 26.78,6.62 26.75,6.62 L 27.46,5.12 L 27.46,4.87 L 27.25,4.40 L 26.96,4.40 L 26.62,4.15 L 26.03,4.18 L 25.71,3.87 L 25.21,4.06 L 24.75,3.71 z" id="p3666" style="fill:#1f242b;fill-opacity:0.82;fill-rule:evenodd;stroke:none;display:inline"/>
<path d="M 24.75,3.71 L 24.21,4.03 L 23.5,3.75 L 23.25,3.93 L 23.71,6.71 C 23.98,6.70 24.25,6.69 24.59,6.71 C 24.98,6.74 25.38,6.77 25.75,6.78 L 26.31,4.18 L 26.03,4.18 L 25.71,3.87 L 25.21,4.06 L 24.75,3.71 z" id="p3679" style="fill:#3c4654;fill-opacity:0.51;fill-rule:evenodd;stroke:none;display:inline"/>
<path d="M 19.74,7.62 L 20.68,8.16" id="p3709" style="fill:none;fill-rule:evenodd;stroke:#dddddd;stroke-width:0.5;stroke-linecap:round;stroke-linejoin:miter;stroke-miterlimit:4;stroke-dasharray:none;stroke-opacity:0.91;display:inline"/>
<path d="M 27.87,4.10 L 28.37,4.34" id="p3712" style="fill:none;fill-rule:evenodd;stroke:#ffffff;stroke-width:0.5;stroke-linecap:round;stroke-linejoin:miter;stroke-miterlimit:4;stroke-dasharray:none;stroke-opacity:0.83;display:inline"/>
<path d="M 11.04,15.92 C 11.31,15.39 12.37,14.54 12.37,14.54" id="p3624" style="fill:none;fill-rule:evenodd;stroke:#0d234f;stroke-width:0.60;stroke-linecap:round;stroke-linejoin:miter;stroke-miterlimit:4;stroke-dasharray:none;stroke-opacity:0.67"/>
<path d="M 11.36,16.50 L 10.83,16.13" id="p3628" style="fill:none;fill-rule:evenodd;stroke:#fdfdfd;stroke-width:0.69;stroke-linecap:round;stroke-linejoin:miter;stroke-miterlimit:4;stroke-dasharray:none;stroke-opacity:0.86"/>
<path d="M 10.19,15.92 L 10.19,15.92 L 10.94,16.66 L 10.99,17.03 L 10.56,17.35" id="p3616" style="fill:none;fill-rule:evenodd;stroke:#000000;stroke-width:0.2;stroke-linecap:butt;stroke-linejoin:miter;stroke-miterlimit:4;stroke-dasharray:none;stroke-opacity:1"/>
<path d="M 27.46,5.12 L 27.5,4.5 C 27.5,4.50 27.12,3.53 24.43,3.53 C 21.74,3.53 21.84,4.43 21.84,4.43" id="p3675" style="fill:none;fill-opacity:1;fill-rule:evenodd;stroke:#000000;stroke-width:0.2;stroke-linecap:butt;stroke-linejoin:miter;stroke-miterlimit:4;stroke-dasharray:none;stroke-opacity:1;display:inline"/>
<path d="M 37.53,21.55 C 41.22,28.59 38.45,37.03 31.33,40.40 C 24.21,43.77 15.45,40.80 11.76,33.76 C 8.07,26.72 10.85,18.28 17.96,14.91 C 25.08,11.54 33.84,14.51 37.53,21.55 z" id="p3398" style="fill:none;fill-opacity:1;fill-rule:evenodd;stroke:#d0bb9b;stroke-width:0.40;stroke-linecap:butt;stroke-linejoin:miter;marker:none;stroke-miterlimit:4;stroke-dasharray:none;stroke-dashoffset:0;stroke-opacity:1;visibility:visible;display:inline;overflow:visible;enable-background:accumulate"/>
<path d="M 9.28,21.04 C 10.51,18.74 12.55,15.51 16.97,13.48" id="p3630" style="fill:none;fill-rule:evenodd;stroke:#545c71;stroke-width:0.30;stroke-linecap:butt;stroke-linejoin:miter;stroke-miterlimit:4;stroke-dasharray:none;stroke-opacity:1"/>
<path d="M 11.68,17.56 C 12.16,16.93 12.90,16.29 13.27,16.02" id="p3619" style="fill:none;fill-rule:evenodd;stroke:#232e3b;stroke-width:0.60;stroke-linecap:round;stroke-linejoin:miter;stroke-miterlimit:4;stroke-dasharray:none;stroke-opacity:0.50"/>
<path d="M 9.24,20.17 L 9.50,19.69" id="p3626" style="fill:none;fill-rule:evenodd;stroke:#ffffff;stroke-width:0.69;stroke-linecap:round;stroke-linejoin:miter;stroke-miterlimit:4;stroke-dasharray:none;stroke-opacity:0.77"/>
<path d="M 13.83,15.03 L 14.36,14.63" id="p3632" style="fill:none;fill-rule:evenodd;stroke:#f9f9f9;stroke-width:0.5;stroke-linecap:round;stroke-linejoin:miter;stroke-miterlimit:4;stroke-dasharray:none;stroke-opacity:0.84"/>
<path d="M 28,20.25 C 29,22.12 29.25,24.62 29.12,25.87" id="p3634" style="fill:none;fill-rule:evenodd;stroke:#fdfdfd;stroke-width:4.59;stroke-linecap:round;stroke-linejoin:miter;stroke-miterlimit:4;stroke-dasharray:none;stroke-opacity:0.21"/>
<path d="M 18.87,31.62 C 19.62,32.37 21.12,33.87 22,34.25" id="p3636" style="fill:none;fill-rule:evenodd;stroke:#fafafa;stroke-width:4.40;stroke-linecap:round;stroke-linejoin:miter;stroke-miterlimit:4;stroke-dasharray:none;stroke-opacity:0.21"/>
<path d="M 23.16,6.44 L 22.88,5.05" id="p3682" style="fill:none;fill-rule:evenodd;stroke:#80a78f;stroke-width:0.40;stroke-linecap:round;stroke-linejoin:miter;stroke-miterlimit:4;stroke-dasharray:none;stroke-opacity:0.69"/>
<path d="M 23.57,6.19 L 23.49,5.54" id="p3684" style="fill:none;fill-opacity:1;fill-rule:evenodd;stroke:#abb899;stroke-width:0.40;stroke-linecap:round;stroke-linejoin:miter;marker:none;stroke-miterlimit:4;stroke-dasharray:none;stroke-dashoffset:0;stroke-opacity:0.46;visibility:visible;display:inline;overflow:visible;enable-background:accumulate"/>
<path d="M 25.62,6.44 L 25.98,4.97" id="p3686" style="fill:none;fill-opacity:1;fill-rule:evenodd;stroke:#abc290;stroke-width:0.40;stroke-linecap:round;stroke-linejoin:miter;marker:none;stroke-miterlimit:4;stroke-dasharray:none;stroke-dashoffset:0;stroke-opacity:0.33;visibility:visible;display:inline;overflow:visible;enable-background:accumulate"/>
<path d="M 26.02,6.32 L 26.23,5.83" id="p3688" style="fill:none;fill-opacity:1;fill-rule:evenodd;stroke:#80a78f;stroke-width:0.40;stroke-linecap:round;stroke-linejoin:miter;marker:none;stroke-miterlimit:4;stroke-dasharray:none;stroke-dashoffset:0;stroke-opacity:0.69;visibility:visible;display:inline;overflow:visible;enable-background:accumulate"/>
<path d="M 23.12,4.44 L 23.45,4.35" id="p3692" style="fill:none;fill-rule:evenodd;stroke:#fefefe;stroke-width:0.60;stroke-linecap:round;stroke-linejoin:miter;stroke-miterlimit:4;stroke-dasharray:none;stroke-opacity:0.89"/>
<path d="M 26.11,4.44 L 26.39,4.56" id="p3694" style="fill:none;fill-rule:evenodd;stroke:#fdfdfd;stroke-width:0.40;stroke-linecap:round;stroke-linejoin:miter;stroke-miterlimit:4;stroke-dasharray:none;stroke-opacity:0.89"/>
<path d="M 23.98,4.72 L 24.00,6.45" id="p3696" style="fill:none;fill-rule:evenodd;stroke:#676767;stroke-width:0.40;stroke-linecap:round;stroke-linejoin:miter;stroke-miterlimit:4;stroke-dasharray:none;stroke-opacity:0.36"/>
<path d="M 25.23,5.26 L 25.11,6.40" id="p3698" style="fill:none;fill-rule:evenodd;stroke:#676767;stroke-width:0.40;stroke-linecap:round;stroke-linejoin:miter;stroke-miterlimit:4;stroke-dasharray:none;stroke-opacity:0.36;display:inline"/>
<path d="M 22.34,3.03 C 22.05,3.04 21.77,3.06 21.53,3.09 C 19.47,3.32 18.09,4.59 18.09,6.03 C 18.09,6.51 18.14,7.20 18.59,7.84 C 19.04,8.48 19.81,9.02 21.06,9.53 L 21.09,9.46 C 21.45,9.75 21.95,10.07 22.68,10.25 C 22.71,10.63 22.67,11.57 22.65,12 C 20.76,12.14 18.89,12.59 17.15,13.37 C 16.89,13.04 16.56,12.79 16.25,12.93 C 15.50,13.26 13.68,14.22 13.03,14.71 C 12.82,14.55 12.35,13.80 12.06,14.09 C 11.77,14.38 10.45,15.52 10.12,15.93 C 9.79,16.34 9.75,16.47 9.87,16.59 C 9.99,16.71 10.25,16.97 10.5,17.21 C 10.21,17.54 8.82,19.79 8.65,20.25 C 8.52,20.61 8.75,20.95 9.15,21.18 C 6.03,27.77 7.67,35.96 13.62,41 C 20.71,46.98 31.24,46.24 37.12,39.34 C 43.00,32.44 42.02,21.98 34.93,16 C 32.44,13.89 29.52,12.62 26.53,12.15 C 26.51,11.87 26.43,10.67 26.46,10.25 C 26.97,10.12 27.36,9.92 27.68,9.71 C 28.67,9.41 29.75,9.02 30.40,8.18 C 31.06,7.34 30.99,6.26 30.56,5.46 C 30.12,4.67 29.38,4.05 28.53,3.71 C 27.70,3.38 26.50,3.22 25.18,3.12 C 24.20,3.04 23.20,3.00 22.34,3.03 z M 21.68,4.59 C 21.72,4.59 21.77,4.59 21.81,4.59 L 21.75,5.09 L 22.56,6.62 C 22.40,6.62 22.28,6.62 22.12,6.62 C 21.45,6.62 20.56,7.37 20.56,7.37 C 20.56,7.37 20.56,7.55 20.56,7.59 C 20.19,7.36 19.96,7.14 19.84,6.96 C 19.62,6.65 19.59,6.42 19.59,6.03 C 19.59,5.72 20.18,4.76 21.68,4.59 z M 27.46,4.96 C 27.67,5.01 27.85,5.04 27.96,5.09 C 28.50,5.30 29.02,5.76 29.25,6.18 C 29.47,6.60 29.51,6.90 29.21,7.28 C 29.13,7.39 28.90,7.53 28.62,7.68 C 28.62,7.60 28.62,7.37 28.62,7.37 C 28.62,7.37 27.70,6.62 27.03,6.62 C 26.93,6.62 26.84,6.62 26.75,6.62 L 27.46,5.12 L 27.46,4.96 z" id="stroke01" style="fill:none;fill-opacity:0.50;fill-rule:evenodd;stroke:#000000;stroke-width:0.5;stroke-linecap:butt;stroke-linejoin:miter;marker:none;stroke-miterlimit:4;stroke-dasharray:none;stroke-dashoffset:0;stroke-opacity:1;visibility:visible;display:inline;overflow:visible;enable-background:accumulate"/>
</g>
</svg>
