<?xml version="1.0" encoding="UTF-8" standalone="no"?>
<!DOCTYPE svg PUBLIC "-//W3C//DTD SVG 1.0//EN" "http://www.w3.org/TR/2001/REC-SVG-20010904/DTD/svg10.dtd">
<svg xmlns:svg="http://www.w3.org/2000/svg" xmlns="http://www.w3.org/2000/svg" xmlns:xlink="http://www.w3.org/1999/xlink" version="1.0" width="100%" height="100%" viewBox="0 0 48 48" id="_sdcard01" style="display:inline">
<defs id="defs2818">
<linearGradient id="lg4189">
<stop id="s4191" style="stop-color:#db2525;stop-opacity:1" offset="0"/>
<stop id="s4201" style="stop-color:#decd0e;stop-opacity:1" offset="0.25"/>
<stop id="s4203" style="stop-color:#36e41f;stop-opacity:1" offset="0.37"/>
<stop id="s4197" style="stop-color:#28ddbe;stop-opacity:1" offset="0.5"/>
<stop id="s4199" style="stop-color:#232bd8;stop-opacity:1" offset="0.75"/>
<stop id="s4193" style="stop-color:#dc2eb6;stop-opacity:1" offset="1"/>
</linearGradient>
<linearGradient id="lg3934">
<stop id="s3936" style="stop-color:#772527;stop-opacity:1" offset="0"/>
<stop id="s3938" style="stop-color:#ff9f46;stop-opacity:1" offset="1"/>
</linearGradient>
<linearGradient x1="23.87" y1="21.46" x2="23.87" y2="41.56" id="lg3940" xlink:href="#lg3934" gradientUnits="userSpaceOnUse"/>
<linearGradient x1="9.89" y1="9.40" x2="40.07" y2="9.40" id="lg4195" xlink:href="#lg4189" gradientUnits="userSpaceOnUse"/>
<linearGradient x1="9.89" y1="9.40" x2="40.07" y2="9.40" id="lg2475" xlink:href="#lg4189" gradientUnits="userSpaceOnUse"/>
<linearGradient x1="23.87" y1="21.46" x2="23.87" y2="41.56" id="lg2479" xlink:href="#lg3934" gradientUnits="userSpaceOnUse"/>
</defs>
<g id="sdcard01" style="display:inline">
<path d="M 8.52,1.96 C 11.48,1.96 35.2,2.07 35.2,2.07 L 40.78,7.98 L 40.67,16.07 L 39.79,16.07 L 39.69,18.36 L 40.78,18.36 C 40.78,18.36 40.34,43.84 40.45,44.93 C 40.56,46.03 39.69,46.46 39.03,46.46 C 38.37,46.46 28.53,46.46 28.53,46.46 L 28.1,45.92 L 19.89,45.81 L 19.46,46.35 C 19.46,46.35 9.51,46.14 8.74,46.14 C 7.98,46.14 7.21,45.37 7.21,44.93 C 7.21,44.5 7.1,22.41 7.1,22.41 L 8.41,22.08 L 8.41,17.16 L 7.1,16.72 L 7.1,13.33 L 7.76,12.9 L 7.1,12.57 C 7.1,12.57 7.21,4.15 7.21,3.6 C 7.21,3.06 7.87,1.96 8.52,1.96 L 8.52,1.96 z" id="p2902" style="fill:#18286c;fill-opacity:1;stroke:none"/>
<path d="M 8.53,12.78 L 7.09,13.53 L 7.09,16.71 L 8.4,17.15 L 8.53,12.78 z" id="p3699" style="fill:#eeeeee;fill-opacity:0.93;stroke:none"/>
<path d="M 11.37,6.66 C 13.14,6.71 34.98,6.56 36.73,6.77 C 38.48,6.99 38.7,8.3 38.59,9.94 C 38.48,11.58 38.7,39.36 38.7,41.22 C 38.7,43.07 37.39,43.84 35.86,43.84 C 34.33,43.84 12.79,43.62 11.48,43.4 C 10.16,43.18 9.51,42.75 9.62,40.34 C 9.73,37.94 9.51,10.49 9.51,9.07 C 9.51,7.65 9.59,6.62 11.37,6.66 z" id="p3705" style="fill:#141d3c;fill-opacity:1;stroke:none;display:inline"/>
<path d="M 35.75,7.32 C 37.61,7.43 37.94,8.85 37.94,9.94 C 37.94,11.04 37.94,39.9 37.83,40.78 C 37.72,41.65 37.94,43.07 36.19,43.29 C 34.44,43.51 13.88,43.29 12.24,43.29 C 10.6,43.29 9.94,42.31 9.84,40.45 C 9.73,38.59 9.84,11.15 9.94,9.73 C 10.05,8.3 10.27,7.43 12.24,7.32 C 14.21,7.21 34.55,7.54 35.75,7.32 L 35.75,7.32 z" id="p3701" style="fill:#fbae24;fill-opacity:1;stroke:none"/>
<path d="M 14.43,44.64 L 33.89,44.84" id="p3708" style="fill:none;stroke:#151835;stroke-width:1px;stroke-linecap:round;stroke-linejoin:miter;stroke-opacity:1;display:inline"/>
<path d="M 9.84,22.15 C 9.84,22.64 9.81,23.03 9.81,23.53 L 25.09,22.68 L 9.84,22.15 z M 9.81,23.81 C 9.8,24.76 9.81,25.51 9.81,26.46 L 24.96,25.62 L 10.25,25.12 L 24.96,24.31 L 9.81,23.81 z M 9.81,26.65 C 9.81,27.13 9.81,27.52 9.81,28 L 24.96,27.15 L 9.81,26.65 z M 9.81,28.15 C 9.81,28.64 9.81,29.05 9.81,29.53 L 24.96,28.68 L 9.81,28.15 z M 9.81,29.81 C 9.81,30.27 9.78,30.71 9.78,31.15 L 24.75,30.34 L 9.81,29.81 z M 9.78,31.34 C 9.78,31.79 9.78,32.28 9.78,32.71 L 24.87,31.87 L 9.78,31.34 z M 9.78,32.87 C 9.78,33.3 9.78,33.84 9.78,34.25 L 24.87,33.4 L 9.78,32.87 z M 9.78,34.31 C 9.78,34.85 9.78,35.16 9.78,35.65 L 24.75,34.81 L 9.78,34.31 z M 9.78,35.71 C 9.78,37.02 9.8,37.59 9.81,38.37 L 24.65,37.56 L 10.31,37.03 L 24.75,36.25 L 9.78,35.71 z M 9.81,38.56 C 9.81,38.93 9.83,39.71 9.84,39.9 L 24.65,39.09 L 9.81,38.56 z M 9.84,40.09 C 9.84,40.14 9.84,40.43 9.84,40.46 C 9.86,40.82 9.9,41.14 9.96,41.43 L 24.65,40.62 L 9.84,40.09 z M 10.09,41.81 C 10.29,42.4 10.6,42.82 11.09,43.06 L 24.71,42.31 L 10.09,41.81 z" id="p3722" style="fill:#ed902b;fill-opacity:1;stroke:none;display:inline"/>
<path d="M 30.06,15.75 L 9.84,17.53 C 9.83,18.95 9.85,20.43 9.84,22.03 L 24.5,41.56 L 37.93,22.56 C 37.93,21.1 37.93,20.73 37.93,19.43 L 30.06,15.75 z" id="p3719" style="fill:url(#lg2479);fill-opacity:1;stroke:none;display:inline"/>
<path d="M 9.87,14.75 C 9.86,16.37 9.85,18.51 9.84,20.56 L 37.93,20.56 C 37.93,18.07 37.93,16.43 37.93,14.87 L 9.87,14.75 z" id="p3713" style="fill:#007f61;fill-opacity:1;stroke:none;display:inline"/>
<path d="M 12.25,7.31 C 10.28,7.42 10.04,8.29 9.93,9.71 C 9.92,9.84 9.91,11.03 9.9,11.53 L 37.93,11.18 C 37.93,11.05 37.93,9.98 37.93,9.93 C 37.93,8.84 37.6,7.42 35.75,7.31 C 34.54,7.53 14.21,7.2 12.25,7.31 z" id="p4163" style="fill:url(#lg2475);fill-opacity:1;stroke:none;display:inline"/>
<path d="M 37.93,10.37 L 9.93,10.59 C 9.9,11.63 9.86,14.51 9.84,18.37 L 37.93,18.46 C 37.93,15.29 37.93,10.86 37.93,10.37 z" id="p3711" style="fill:#034da2;fill-opacity:1;stroke:none;display:inline"/>
<path d="M 12.04,19.61 C 12.04,19.98 11.73,20.28 11.36,20.28 C 10.99,20.28 10.69,19.98 10.69,19.61 C 10.69,19.23 10.99,18.93 11.36,18.93 C 11.73,18.93 12.04,19.23 12.04,19.61 L 12.04,19.61 z" id="p3953" style="fill:#e5fd66;fill-opacity:1;fill-rule:evenodd;stroke:none;marker:none;visibility:visible;display:inline;overflow:visible;enable-background:accumulate"/>
<path d="M 13.03,18.87 C 12.80,18.92 12.84,19.19 12.84,19.34 C 12.87,19.60 12.59,19.87 12.68,20.12 C 12.88,20.29 13.18,20.18 13.43,20.21 C 13.66,20.20 13.70,19.93 13.78,19.78 C 13.60,19.94 13.39,20.16 13.15,20.12 C 12.90,20.02 13.05,19.68 13.09,19.46 C 13.19,19.26 13.35,18.86 13.03,18.87 z M 14.78,18.87 C 14.27,18.82 13.72,19.51 13.93,19.93 C 14.09,20.37 14.88,20.33 15.18,19.87 C 15.50,19.45 15.29,18.82 14.78,18.87 z M 16.31,18.87 C 16.05,18.84 15.75,19 15.59,19.25 C 15.32,19.63 15.43,20.16 15.84,20.25 C 16.09,20.31 16.40,20.20 16.59,19.96 L 16.59,19.93 L 16.56,19.90 C 16.37,20.13 16.00,20.25 15.84,20.06 C 15.70,19.74 15.81,19.23 16.15,18.96 C 16.41,18.80 16.54,19.23 16.75,19.12 C 16.84,18.85 16.49,18.86 16.31,18.87 z M 17.31,18.87 C 17.19,18.86 17.06,18.93 17.06,19.09 C 17.06,19.30 17.05,19.49 16.96,19.71 C 16.85,19.91 16.74,20.29 17.09,20.21 C 17.35,20.13 17.03,19.76 17.40,19.75 C 17.63,19.79 17.46,20.18 17.75,20.21 C 17.87,20.25 18.00,20.20 18.12,20.15 C 17.87,19.98 17.85,19.67 17.65,19.46 C 17.67,19.40 17.67,19.33 17.71,19.28 C 17.58,19.51 17.20,19.32 17.43,19.12 C 17.51,18.98 17.43,18.88 17.31,18.87 z M 17.71,19.28 C 17.84,19.13 18.04,19.03 18.21,18.96 C 18.09,18.71 17.73,19.04 17.71,19.28 z M 14.68,18.93 L 14.71,18.93 L 14.75,18.93 C 14.98,19.00 15.04,19.29 14.96,19.53 C 14.96,19.76 14.83,20.06 14.56,20.15 C 14.27,20.17 14.14,19.87 14.25,19.62 C 14.30,19.37 14.42,19.06 14.68,18.93 z" id="p3969" style="fill:#e5fd66;fill-opacity:1;fill-rule:evenodd;stroke:none;marker:none;visibility:visible;display:inline;overflow:visible;enable-background:accumulate;"/>
<path d="M 32.40,12.93 C 32.35,12.92 32.29,12.95 32.21,13 C 32.10,13.46 32.01,13.93 31.90,14.40 L 31.84,14.25 L 31.81,14.12 C 31.21,13.38 30.24,15.32 30.56,16.37 C 30.79,17.07 31.44,16.34 31.84,16.65 C 32.00,15.98 32.15,15.32 32.31,14.65 C 32.47,14.17 32.74,12.99 32.40,12.93 z M 26.84,13.06 C 26.25,13.22 25.62,14.14 25.46,15.21 C 25.24,16.61 26.20,17.12 26.84,16.5 C 27.31,15.37 26.48,16.20 26.25,16.09 C 25.67,15.67 26.21,13.79 26.81,13.71 C 27.00,14.10 27.72,13.84 27.40,13.18 C 27.23,13.05 27.04,13.00 26.84,13.06 z M 13,13.15 C 12.86,13.75 12.73,14.36 12.59,14.96 C 12.41,15.53 12.03,16.97 12.65,16.65 C 12.81,16.01 12.97,15.39 13.12,14.75 C 13.52,13.83 12.96,16.44 13.56,16 C 13.85,15.38 14.14,14.77 14.43,14.15 C 14.53,14.00 14.31,14.76 14.28,14.96 C 14.09,15.53 13.71,16.97 14.34,16.65 C 14.61,15.47 14.91,14.33 15.18,13.15 C 14.97,13.15 14.74,13.15 14.53,13.15 C 14.23,13.78 13.95,14.40 13.65,15.03 C 13.65,14.40 13.62,13.78 13.62,13.15 C 13.41,13.15 13.20,13.15 13,13.15 z M 23.28,13.87 C 23.22,13.87 23.15,13.93 23.06,14.03 C 23.06,14.67 23.03,15.33 23.06,15.96 C 23.35,16.71 22.46,17.17 22.59,17.59 C 23.08,18.00 23.53,16.71 23.84,16 C 24.05,15.46 25.01,13.85 24.21,14.03 C 24.04,14.47 23.83,14.90 23.65,15.34 C 23.24,15.83 23.66,13.86 23.28,13.87 z M 28.40,13.93 C 28.26,13.94 28.11,13.99 28,14.06 C 27.48,14.70 28.20,14.56 28.43,14.56 C 28.55,15.28 27.64,14.81 27.43,15.5 C 26.93,17.16 28.13,16.53 28.62,16.65 C 28.73,16.16 28.85,15.65 28.96,15.15 C 29.26,14.25 28.83,13.92 28.40,13.93 z M 16.21,13.96 C 15.85,13.91 15.38,14.28 15.15,14.93 C 14.67,16.10 15.44,17.28 16.09,16.65 C 16.69,15.97 15.96,16.00 15.68,16.21 C 15.27,15.25 16.33,15.75 16.62,15.43 C 16.70,15.14 16.77,14.84 16.71,14.56 C 16.63,14.20 16.43,14.00 16.21,13.96 z M 20.78,13.96 C 20.24,13.90 19.46,15.02 19.62,16 C 19.77,17.07 20.73,16.99 21.12,15.93 C 21.45,15.14 21.36,13.82 20.78,13.96 z M 18.21,14 C 18.04,14.00 17.83,14.11 17.68,14.12 C 17.05,13.80 17.00,15.62 16.78,16.40 C 17.02,17.26 17.46,15.65 17.56,15.06 C 18.20,14.09 17.86,15.91 17.68,16.46 C 18.19,17.17 18.29,15.20 18.65,14.84 C 19.37,14.54 18.13,17.19 19.03,16.65 C 19.11,16.30 19.19,15.98 19.28,15.62 C 19.91,14.67 19.03,13.22 18.56,14.46 C 18.55,14.09 18.39,13.99 18.21,14 z M 21.96,14.03 C 21.75,14.79 21.38,15.77 21.43,16.56 C 22.02,16.88 22.12,14.02 22.84,14.75 C 22.92,14.56 22.98,14.31 22.93,14.12 C 22.67,14.03 22.23,14.29 21.96,14.03 z M 29.71,14.03 C 29.50,14.79 29.13,15.77 29.18,16.56 C 29.78,16.88 29.87,14.02 30.59,14.75 C 30.67,14.56 30.73,14.31 30.68,14.12 C 30.42,14.03 29.98,14.29 29.71,14.03 z M 20.65,14.56 C 20.90,14.53 20.86,15.08 20.78,15.40 C 20.39,17.14 19.75,14.52 20.65,14.56 z M 16.12,14.62 C 16.26,14.57 16.34,14.64 16.21,15.06 C 16.15,15.06 16.09,15.06 16.03,15.06 C 15.55,15.16 15.89,14.71 16.12,14.62 z M 31.34,14.71 C 31.67,14.56 31.82,16.25 31.18,16.12 C 30.90,16.15 30.98,15.49 31.09,15.15 C 31.18,14.87 31.26,14.75 31.34,14.71 z M 28.21,15.46 C 28.27,15.45 28.32,15.43 28.37,15.5 C 28.44,16.71 27.48,15.56 28.21,15.46 z" id="p4067" style="fill:#fefafb;fill-opacity:1;"/>
<path d="M 33.65,16.29 L 34.75,12.78 L 35.84,16.29 L 33.65,16.29 L 33.65,16.29 z" id="p4157" style="fill:#fff30b;fill-opacity:1;stroke:none;display:inline"/>
<path d="M 33.63,16.66 L 35.86,16.66" id="p4160" style="fill:none;stroke:#f7ff0b;stroke-width:0.40;stroke-linecap:butt;stroke-linejoin:miter;stroke-miterlimit:4;stroke-dasharray:none;stroke-opacity:0.98;display:inline"/>
<path d="M 17.59,27.99 L 16.57,29.83 C 16.57,29.83 21.47,29.95 22.61,29.99 C 23.75,30.03 25.15,28.27 23.43,27.01 C 22.94,26.65 21.1,26.15 20.82,26.07 C 20.53,25.99 20.08,25.46 20.94,25.46 C 21.8,25.46 25.18,25.58 25.18,25.58 L 25.63,24.31 C 25.63,24.31 22.82,24.15 20.41,24.52 C 18,24.89 17.96,26.19 19.22,27.01 C 20.04,27.54 20.9,27.46 21.31,27.66 C 21.71,27.87 21.8,28.23 20.94,28.23 C 20.08,28.23 17.59,27.99 17.59,27.99 L 17.59,27.99 z" id="p4205-0" style="fill:#4d1412;fill-opacity:1;stroke:none;display:inline"/>
<path d="M 17.26,27.54 L 16.24,29.38 C 16.24,29.38 21.14,29.5 22.29,29.54 C 23.43,29.58 24.82,27.82 23.1,26.56 C 22.61,26.2 20.77,25.7 20.49,25.62 C 20.2,25.54 19.75,25.01 20.61,25.01 C 21.47,25.01 24.86,25.13 24.86,25.13 L 25.31,23.87 C 25.31,23.87 22.49,23.7 20.08,24.07 C 17.67,24.44 17.63,25.74 18.9,26.56 C 19.71,27.09 20.57,27.01 20.98,27.22 C 21.39,27.42 21.47,27.79 20.61,27.79 C 19.75,27.79 17.26,27.54 17.26,27.54 L 17.26,27.54 z" id="p4205" style="fill:#fbfbfe;fill-opacity:1;stroke:none;display:inline"/>
<path d="M 27.16,24.26 C 26.82,24.27 26.04,24.29 26.04,24.29 L 25.54,25.64 C 25.54,25.64 26.65,25.69 27.04,25.73 C 27.08,25.74 27.09,25.76 27.13,25.76 L 28.38,24.36 C 27.99,24.32 27.6,24.26 27.16,24.26 z M 29.48,24.51 L 27.54,25.86 C 27.75,25.94 27.9,26.04 27.98,26.17 L 30.57,24.86 C 30.24,24.72 29.89,24.6 29.48,24.51 z M 31.41,25.26 L 28.04,26.39 C 28.07,26.92 27.36,27.57 26.48,27.54 C 25.46,27.52 24.82,27.54 24.82,27.54 L 23.98,29.92 C 23.98,29.92 27.14,29.94 27.85,29.83 C 32.7,29.04 33.47,26.64 31.41,25.26 z" id="p4230-4" style="fill:#4d1412;fill-opacity:1;stroke:none;display:inline"/>
<path d="M 27.06,23.84 C 26.71,23.84 25.93,23.87 25.93,23.87 L 25.43,25.21 C 25.43,25.21 26.54,25.26 26.93,25.31 C 26.97,25.31 26.99,25.33 27.03,25.34 L 28.28,23.93 C 27.89,23.89 27.49,23.83 27.06,23.84 z M 29.37,24.09 L 27.43,25.43 C 27.65,25.52 27.8,25.61 27.87,25.75 L 30.46,24.43 C 30.13,24.3 29.78,24.18 29.37,24.09 z M 31.31,24.84 L 27.93,25.96 C 27.96,26.49 27.25,27.14 26.37,27.12 C 25.35,27.09 24.71,27.12 24.71,27.12 L 23.87,29.5 C 23.87,29.5 27.04,29.52 27.75,29.4 C 32.6,28.61 33.36,26.21 31.31,24.84 z" id="p4230" style="fill:#ffffff;fill-opacity:1;stroke:none;display:inline"/>
<path d="M 27.57,35.47 L 26.07,41.1 C 26.07,41.13 27.15,41.18 28.57,41.06 C 29.98,40.95 30.77,39.03 29.75,38.13 C 30.93,37.46 30.82,35.57 30.19,35.53 C 29.56,35.49 27.57,35.47 27.57,35.47 z M 28.47,36.64 L 29.22,36.64 C 29.58,36.64 29.66,37.37 28.91,37.71 C 28.56,37.86 28.14,37.76 28.22,37.64 L 28.47,36.64 z M 27.94,38.78 L 28.69,38.78 C 29.04,38.78 29.13,39.51 28.38,39.85 C 28.03,40 27.58,39.93 27.66,39.81 L 27.94,38.78 z" id="p4280-2" style="fill:#200807;fill-opacity:1;stroke:none;display:inline"/>
<path d="M 27.28,35.15 L 25.78,40.78 C 25.78,40.82 26.86,40.86 28.28,40.75 C 29.69,40.63 30.48,38.71 29.46,37.81 C 30.64,37.14 30.53,35.25 29.9,35.21 C 29.27,35.17 27.28,35.15 27.28,35.15 z M 28.18,36.32 L 28.93,36.32 C 29.29,36.32 29.37,37.05 28.62,37.39 C 28.27,37.54 27.85,37.44 27.93,37.32 L 28.18,36.32 z M 27.65,38.46 L 28.4,38.46 C 28.75,38.46 28.84,39.19 28.09,39.53 C 27.74,39.68 27.29,39.61 27.37,39.5 L 27.65,38.46 z" id="p4280" style="fill:#ffffff;fill-opacity:1;stroke:none;display:inline"/>
<path d="M 36.13,43.8 C 38.17,43.72 38.68,42.58 38.68,41.48 C 38.68,40.38 38.6,10.06 38.6,10.06" id="p4332" style="fill:none;stroke:#d2e5eb;stroke-width:0.2;stroke-linecap:round;stroke-linejoin:miter;stroke-miterlimit:4;stroke-dasharray:none;stroke-opacity:0.25"/>
<path d="M 25.16,37.21 C 25.06,36.45 24.22,36.16 23.52,37.99 C 23.1,39.09 23.33,39.7 23.58,39.82 C 23.97,40.01 24.76,39.8 24.81,39.08 C 24.47,39.07 24.07,39.04 24.07,39.04 L 24.39,37.89 L 26.2,37.91 C 26.2,37.91 26.04,39.21 25.61,40.24 C 25.27,41.06 23.89,41.33 23.07,41.22 C 22.39,41.12 21.73,40.23 22.17,38.1 C 22.76,35.29 26.54,34.24 26.43,36.99 C 25.98,37.09 25.63,37.17 25.16,37.21 L 25.16,37.21 z" id="p4334-0" style="fill:#200807;fill-opacity:1;stroke:none;display:inline"/>
<path d="M 24.91,36.9 C 24.82,36.15 23.97,35.86 23.28,37.69 C 22.86,38.79 23.08,39.4 23.34,39.52 C 23.73,39.71 24.51,39.5 24.57,38.78 C 24.23,38.76 23.83,38.74 23.83,38.74 L 24.14,37.59 L 25.95,37.6 C 25.95,37.6 25.8,38.9 25.37,39.94 C 25.03,40.76 23.65,41.02 22.82,40.91 C 22.15,40.82 21.49,39.93 21.93,37.8 C 22.51,34.99 26.3,33.93 26.19,36.68 C 25.73,36.78 25.39,36.87 24.91,36.9 L 24.91,36.9 z" id="p4334" style="fill:#ffffff;fill-opacity:1;stroke:none;display:inline"/>
<path d="M 17.89,35.17 C 17.89,35.17 18.18,33.61 19.59,32.72 C 21.01,31.84 22.85,32.56 22.87,34.04 C 22.9,35.53 21.84,36.96 21.15,37.47 C 20.45,37.97 19.23,39.05 19.23,39.05 L 21.63,39.05 L 21.15,40.99 L 16.26,41.04 C 16.26,41.04 16.48,39.65 17.56,38.59 C 18.63,37.54 19.69,36.8 20.43,35.98 C 21.17,35.17 21.15,34.23 20.72,34.11 C 20.29,33.99 19.9,34.42 19.54,35.36 C 18.49,35.24 17.94,35.17 17.89,35.17 L 17.89,35.17 z" id="p4359-6" style="fill:#200807;fill-opacity:1;stroke:none;display:inline"/>
<path d="M 17.63,34.91 C 17.63,34.91 17.92,33.36 19.33,32.47 C 20.74,31.58 22.59,32.3 22.61,33.79 C 22.64,35.27 21.58,36.71 20.89,37.21 C 20.19,37.72 18.97,38.8 18.97,38.8 L 21.37,38.8 L 20.89,40.74 L 16,40.78 C 16,40.78 16.21,39.39 17.29,38.34 C 18.37,37.29 19.42,36.54 20.17,35.73 C 20.91,34.91 20.89,33.98 20.45,33.86 C 20.02,33.74 19.64,34.17 19.28,35.11 C 18.23,34.99 17.68,34.91 17.63,34.91 L 17.63,34.91 z" id="p4359" style="fill:#fffbf3;fill-opacity:1;stroke:none;display:inline"/>
<path d="M 8.68,12.67 L 8.59,22.52 L 7.19,22.87" id="p4384" style="fill:none;stroke:#b6ccd2;stroke-width:0.5;stroke-linecap:butt;stroke-linejoin:miter;stroke-miterlimit:4;stroke-dasharray:none;stroke-opacity:0.27;display:inline"/>
<path d="M 14.95,44.9 C 16.3,44.93 32.8,45.07 33.42,45.1 C 34.04,45.14 34.19,44.92 34.19,44.77" id="p4387" style="fill:none;stroke:#3f6e78;stroke-width:0.2;stroke-linecap:round;stroke-linejoin:miter;stroke-miterlimit:4;stroke-dasharray:none;stroke-opacity:0.27"/>
<path d="M 33.28,45.44 C 34.63,45.53 34.49,44.91 34.49,44.71" id="p4389" style="fill:none;stroke:#a1bcbc;stroke-width:0.2;stroke-linecap:round;stroke-linejoin:miter;stroke-miterlimit:4;stroke-dasharray:none;stroke-opacity:0.21"/>
<path d="M 36.78,43.72 C 37.89,43.57 38.58,42.83 38.65,41.84" id="p4391" style="fill:none;stroke:#7da9a8;stroke-width:0.30;stroke-linecap:round;stroke-linejoin:miter;stroke-miterlimit:4;stroke-dasharray:none;stroke-opacity:0.45"/>
<path d="M 8.52,1.96 C 11.48,1.96 35.2,2.07 35.2,2.07 L 40.78,7.98 L 40.67,16.07 L 39.79,16.07 L 39.69,18.36 L 40.78,18.36 C 40.78,18.36 40.34,43.84 40.45,44.93 C 40.56,46.03 39.69,46.46 39.03,46.46 C 38.37,46.46 28.53,46.46 28.53,46.46 L 28.1,45.92 L 19.89,45.81 L 19.46,46.35 C 19.46,46.35 9.51,46.14 8.74,46.14 C 7.98,46.14 7.21,45.37 7.21,44.93 C 7.21,44.5 7.1,22.41 7.1,22.41 L 8.41,22.08 L 8.41,17.16 L 7.1,16.72 L 7.1,13.33 L 7.76,12.9 L 7.1,12.57 C 7.1,12.57 7.21,4.15 7.21,3.6 C 7.21,3.06 7.87,1.96 8.52,1.96 L 8.52,1.96 z" id="stroke01" style="fill:none;stroke:#0b0b1e;stroke-width:0.5;stroke-linejoin:round;stroke-miterlimit:4;stroke-dasharray:none;stroke-opacity:1"/>
</g>
</svg>
