<?xml version="1.0" encoding="UTF-8" standalone="no"?>
<!DOCTYPE svg PUBLIC "-//W3C//DTD SVG 1.0//EN" "http://www.w3.org/TR/2001/REC-SVG-20010904/DTD/svg10.dtd">
<svg xmlns:svg="http://www.w3.org/2000/svg" xmlns="http://www.w3.org/2000/svg" version="1.0" width="100%" height="100%" viewBox="0 0 48 48" id="_toggle01">
<defs id="defs2385"/>
<path d="M 35.84,4.15 L 27.21,7.78 L 35.34,9.56 L 42.28,7.25 L 42.15,5.59 L 38.03,4.15 L 35.84,4.15 z M 34.31,13.68 L 36.75,20.15 L 41.37,18.21 L 41.25,16.40 L 34.31,13.68 z" id="p2475" style="fill:#c5cccc;fill-opacity:1;fill-rule:evenodd;stroke:none;display:inline"/>
<path d="M 42.18,6.18 L 34.46,8.84 L 34.28,9.31 L 35.34,9.56 L 42.28,7.25 L 42.18,6.18 z M 41.28,16.93 L 36.5,19 L 36.37,19.15 L 36.75,20.15 L 41.37,18.21 L 41.28,16.93 z" id="p3460" style="fill:#647054;fill-opacity:0.60;fill-rule:evenodd;stroke:none;"/>
<path d="M 14.69,7.64 L 23.85,3.90 L 37.90,9.44 L 37.26,36.52 L 24.88,42.45 L 14.69,7.64 z" id="p2471" style="fill:#5d6567;fill-opacity:1;fill-rule:evenodd;stroke:none;display:inline"/>
<path d="M 27.53,25.62 C 26.88,25.62 26.27,26.50 26.15,27.59 C 26.03,28.67 26.45,29.56 27.09,29.56 C 27.73,29.56 28.34,28.67 28.46,27.59 C 28.58,26.50 28.17,25.62 27.53,25.62 z" id="p3469" style="fill:#0f110d;fill-opacity:1;fill-rule:evenodd;stroke:none;marker:none;visibility:visible;display:inline;overflow:visible;enable-background:accumulate"/>
<path d="M 23.84,3.90 L 14.68,7.65 L 17,15.53 L 26.12,14.25 L 37.90,9.53 L 37.90,9.43 L 23.84,3.90 z" id="p3407" style="fill:#0d1925;fill-opacity:0.55;fill-rule:evenodd;stroke:none;display:inline"/>
<path d="M 24.87,13 L 30,11 L 29.87,9.74 L 26,6.24 L 15.87,10.75 L 24.87,13 z" id="p3409" style="fill:#13191e;fill-opacity:0.69;fill-rule:evenodd;stroke:none;display:inline"/>
<path d="M 23.72,11.25 L 26.04,8.93 L 30.17,9.31 L 33.91,7.89 L 33.52,6.73 L 23.08,3.00 L 20.11,4.16 L 19.98,5.06 L 18.69,5.19 L 18.69,6.09 L 15.08,7.89 L 23.72,11.25 z" id="p2473" style="fill:#262d35;fill-opacity:1;fill-rule:evenodd;stroke:none;display:inline"/>
<path d="M 23.09,3 L 20.12,4.15 L 20,5.06 L 18.68,5.18 L 18.68,6.09 L 15.09,7.90 L 22.59,10.81 L 25.75,8 L 26.5,7.87 L 30.25,8.12 L 33.59,6.93 L 33.53,6.75 L 23.09,3 z" id="p3418" style="fill:#354248;fill-opacity:1;fill-rule:evenodd;stroke:none;display:inline"/>
<path d="M 23.09,3 L 20.15,4.15 L 30.46,8.06 L 33.59,6.93 L 33.53,6.75 L 23.09,3 z" id="p3420" style="fill:#aab49b;fill-opacity:0.14;fill-rule:evenodd;stroke:none;display:inline"/>
<path d="M 6.57,7.89 C 6.44,11.89 6.44,35.36 6.44,36.91 C 6.44,38.45 7.73,39.23 8.76,39.61 C 9.79,40.00 22.04,45.42 23.72,45.93 C 25.40,46.45 26.04,45.16 26.56,44.90 C 27.07,44.64 27.07,44.00 27.07,43.22 C 27.07,42.45 27.46,14.60 27.46,13.31 C 27.46,12.02 26.43,11.63 25.65,11.25 C 24.88,10.86 10.18,5.32 9.54,5.19 C 8.89,5.06 6.44,5.96 6.57,7.89 z" id="p2469" style="fill:#20302f;fill-opacity:1;fill-rule:evenodd;stroke:none;display:inline"/>
<path d="M 7.84,7.03 C 7.35,7.03 6.93,7.30 6.59,7.68 C 6.58,7.69 6.57,7.70 6.56,7.71 C 6.56,7.78 6.55,7.84 6.56,7.90 C 6.43,11.90 6.43,35.35 6.43,36.90 C 6.43,38.45 7.74,39.23 8.78,39.62 C 9.76,39.99 20.88,44.88 23.34,45.78 C 23.91,45.33 24.25,44.93 24.25,44.75 C 24.25,44 24.62,16.25 24.62,15.5 C 24.62,14.75 25,13.37 24.25,13.12 C 23.5,12.87 9.87,7.62 8.37,7.12 C 8.18,7.06 8.01,7.02 7.84,7.03 z" id="p3369" style="fill:#424c4e;fill-opacity:0.81;fill-rule:evenodd;stroke:none;display:inline"/>
<path d="M 24.53,22.68 C 18.95,32.43 14.49,29.91 9.43,28.53 C 8.02,28.14 7.09,27.90 6.43,27.65 C 6.43,31.62 6.43,36.37 6.43,36.90 C 6.43,38.45 7.74,39.23 8.78,39.62 C 9.66,39.95 18.30,43.74 21.96,45.21 C 22.78,44.34 23.55,43.26 24.28,42 C 24.32,38.46 24.43,29.79 24.53,22.68 z" id="p3394" style="fill:#5f6f71;fill-opacity:0.26;fill-rule:evenodd;stroke:none;display:inline"/>
<path d="M 11.08,11.76 C 13.53,12.41 19.08,14.34 20.75,15.12 C 22.43,15.89 21.91,18.60 21.91,19.50 C 21.91,20.40 22.43,26.72 22.43,28.53 C 22.43,30.33 22.17,38.84 21.79,40.13 C 21.40,41.42 20.11,40.90 18.82,40.39 C 17.53,39.87 11.47,37.42 10.44,36.91 C 9.41,36.39 8.89,34.84 8.89,33.30 C 8.89,31.75 9.15,14.21 9.28,12.67 C 9.41,11.12 9.92,11.51 11.08,11.76 z" id="p3273" style="fill:#010302;fill-opacity:1;fill-rule:evenodd;stroke:none;display:inline"/>
<path d="M 11.71,11.96 C 10.54,13.10 9.73,13.88 9.03,14.59 C 7.61,16.01 5.81,17.30 5.68,19.62 C 5.81,21.94 7.49,22.20 8.78,26.59 C 9.33,28.47 9.93,32.39 10.06,33.68 C 10.19,34.97 10.57,36.01 11.34,36.65 C 12.11,37.30 16.37,39.09 19.34,40 C 20.58,40.37 21.29,40.36 21.78,40.15 C 21.78,40.14 21.77,40.13 21.78,40.12 C 22.16,38.83 22.43,30.33 22.43,28.53 C 22.43,26.72 21.90,20.40 21.90,19.5 C 21.90,18.59 22.42,15.89 20.75,15.12 C 19.18,14.40 14.36,12.72 11.71,11.96 z" id="p2465" style="fill:#05141a;fill-opacity:1;fill-rule:evenodd;stroke:none;display:inline"/>
<path d="M 14.68,9.5 C 12.88,14.59 14.87,19.46 14.87,19.46 C 14.87,19.46 20.83,27.11 24.43,29.06 C 24.52,22.48 24.62,15.84 24.62,15.5 C 24.62,14.75 25,13.37 24.25,13.12 C 23.78,12.97 19.07,11.16 14.68,9.5 z" id="p3396" style="fill:#2f3738;fill-opacity:0.56;fill-rule:evenodd;stroke:none;display:inline"/>
<path d="M 6.31,17.59 C 5.97,18.18 5.73,18.84 5.68,19.62 C 5.79,21.49 6.89,22.05 8,24.5 L 13.84,27.09 L 16.59,25.34 C 16.59,25.34 18.56,38.87 20,38.46 C 21.43,38.05 21.42,31.38 20.5,29.43 C 19.57,27.48 19.27,24.01 20.09,23.09 C 20.91,22.17 18.55,21.02 18.65,21.12 C 18.42,21.30 18.22,21.56 18.03,21.84 C 17.76,21.08 17.35,20.56 16.71,21.25 C 15.28,22.78 10.45,20.84 9.84,20.12 C 9.36,19.57 8.51,17.96 6.31,17.59 z" id="p3315" style="fill:#434e54;fill-opacity:0.46;fill-rule:evenodd;stroke:none;display:inline"/>
<path d="M 11.71,11.96 C 10.54,13.10 9.73,13.88 9.03,14.59 C 7.90,15.71 6.54,16.77 5.96,18.31 C 6.72,18.25 7.33,18.45 8.12,18.71 C 9.28,19.10 15.84,21.55 16.75,21.81 C 17.65,22.07 19.07,23.64 19.84,25.06 C 20.42,26.12 21.59,28.11 22.40,29.81 C 22.41,29.36 22.43,28.77 22.43,28.53 C 22.43,26.72 21.90,20.40 21.90,19.5 C 21.90,18.59 22.42,15.89 20.75,15.12 C 19.18,14.40 14.36,12.72 11.71,11.96 z" id="p3287" style="fill:#a9b9b9;fill-opacity:1;fill-rule:evenodd;stroke:none;display:inline"/>
<path d="M 5.75,20 C 6.03,21.97 7.56,22.47 8.78,26.59 C 9.33,28.47 9.93,32.39 10.06,33.68 C 10.07,33.78 10.08,33.87 10.09,33.96 C 10.10,33.99 10.11,34.00 10.12,34.03 C 10.55,35.16 10.96,36.15 11.34,36.40 C 12.11,36.92 18.30,39.11 19.59,39.5 C 20.88,39.88 21.03,37.94 21.03,34.71 C 21.03,31.49 19.34,28.13 18.43,26.71 C 17.53,25.30 15.96,23.59 15.34,23.37 C 13.53,22.73 9.81,21.32 8.78,20.93 C 8.13,20.69 6.99,20.17 5.75,20 z" id="p3289" style="fill:#585f65;fill-opacity:1;fill-rule:evenodd;stroke:none;display:inline"/>
<path d="M 10.03,13.62 C 9.72,13.92 9.29,14.33 9.03,14.59 C 7.90,15.71 6.54,16.77 5.96,18.31 C 6.72,18.25 7.33,18.45 8.12,18.71 C 9.28,19.10 15.84,21.55 16.75,21.81 C 16.94,21.86 17.17,21.98 17.40,22.15 C 18.53,20.88 20.20,19.00 20.5,18.78 C 20.91,18.47 20.59,17.05 18.75,16.43 C 17.38,15.98 12.95,14.56 10.03,13.62 z" id="p3309" style="fill:#dfe1e0;fill-opacity:1;fill-rule:evenodd;stroke:none;display:inline"/>
<path d="M 7.58,19.90 L 12.71,21.85" id="p3319" style="fill:none;fill-rule:evenodd;stroke:#add3ef;stroke-width:0.40;stroke-linecap:round;stroke-linejoin:miter;stroke-miterlimit:4;stroke-dasharray:none;stroke-opacity:0.27;display:inline"/>
<path d="M 13.77,22.13 L 15.11,22.61" id="p3328" style="fill:none;fill-rule:evenodd;stroke:#b4c5f0;stroke-width:0.5;stroke-linecap:round;stroke-linejoin:miter;stroke-miterlimit:4;stroke-dasharray:none;stroke-opacity:0.46;display:inline"/>
<path d="M 5.75,20 C 6.03,21.97 7.56,22.47 8.78,26.59 C 9.33,28.47 9.93,32.39 10.06,33.68 C 10.07,33.78 10.08,33.87 10.09,33.96 C 10.10,33.99 10.11,34.00 10.12,34.03 C 10.55,35.16 10.96,36.15 11.34,36.40 C 11.54,36.53 12.10,36.79 12.84,37.09 C 12.89,34.97 12.66,31.88 12.5,30.5 C 12.26,28.53 9.49,24.83 11.46,24.37 C 13.09,23.99 15.05,27.38 19.59,28.90 C 19.18,27.99 18.76,27.22 18.43,26.71 C 17.53,25.30 15.96,23.59 15.34,23.37 C 13.53,22.73 9.81,21.32 8.78,20.93 C 8.13,20.69 6.99,20.17 5.75,20 z M 20.96,33.81 C 17.67,34.39 16.27,36.28 15.65,38.12 C 17.30,38.72 19.00,39.32 19.59,39.5 C 20.88,39.88 21.03,37.94 21.03,34.71 C 21.03,34.41 20.99,34.11 20.96,33.81 z" id="p3330" style="fill:#6e818b;fill-opacity:0.17;fill-rule:evenodd;stroke:none;display:inline"/>
<path d="M 14.25,32.18 C 14.18,31.56 15.62,31.31 15.75,32.68 C 15.87,34.06 15.87,36.06 15.87,36.62 C 15.87,37.18 14.62,36.93 14.37,35.75 C 14.12,34.56 14.31,32.25 14.25,32.18 z" id="p3338" style="fill:#ced5d8;fill-opacity:1;fill-rule:evenodd;stroke:none;display:inline"/>
<path d="M 10.25,21.81 C 9.10,21.81 9.08,22.90 10.21,24.25 C 11.34,25.59 13.22,26.68 14.37,26.68 C 15.52,26.68 15.53,25.59 14.40,24.25 C 13.27,22.90 11.39,21.81 10.25,21.81 z M 11.40,23.15 C 11.92,23.15 12.74,23.64 13.25,24.25 C 13.75,24.85 13.73,25.34 13.21,25.34 C 12.70,25.34 11.88,24.85 11.37,24.25 C 10.86,23.64 10.89,23.15 11.40,23.15 z" id="p3341" style="opacity:1;fill:#e6e8e7;fill-opacity:1;fill-rule:nonzero;stroke:none;marker:none;visibility:visible;display:inline;overflow:visible;enable-background:accumulate"/>
<path d="M 9.21,5.18 C 8.60,5.26 7.57,5.72 7,6.53 C 8.20,6.17 9.20,6.88 10.12,7.25 C 11.37,7.74 24.37,12.5 25,12.75 C 25.62,13 25.75,13.87 25.75,15 C 25.75,16.12 25.25,43.87 25.37,44.5 C 25.42,44.74 25.96,44.86 26.65,44.84 C 27.07,44.55 27.06,43.93 27.06,43.21 C 27.06,42.44 27.46,14.60 27.46,13.31 C 27.46,12.02 26.42,11.63 25.65,11.25 C 24.88,10.86 10.17,5.31 9.53,5.18 C 9.45,5.17 9.34,5.17 9.21,5.18 z" id="p3367" style="fill:#919fa0;fill-opacity:0.56;fill-rule:evenodd;stroke:none;display:inline"/>
<path d="M 9.21,5.18 C 8.60,5.26 7.57,5.72 7,6.53 C 8.20,6.17 9.20,6.88 10.12,7.25 C 10.14,7.25 10.32,7.33 10.34,7.34 C 10.95,6.94 11.98,6.67 13.71,6.68 C 11.54,5.88 9.73,5.22 9.53,5.18 C 9.45,5.17 9.34,5.17 9.21,5.18 z M 27.15,12.31 L 25.40,13.12 C 25.67,13.53 25.75,14.19 25.75,15 C 25.75,15.45 25.65,21.46 25.56,27.06 C 26.12,26.07 26.72,25.22 27.31,24.46 C 27.38,19.38 27.46,13.79 27.46,13.31 C 27.46,12.89 27.33,12.57 27.15,12.31 z M 27.09,41.46 C 26.55,41.99 25.97,42.01 25.37,41.68 C 25.36,42.80 25.35,44.40 25.37,44.5 C 25.42,44.74 25.96,44.86 26.65,44.84 C 27.07,44.55 27.06,43.93 27.06,43.21 C 27.06,43.17 27.09,41.68 27.09,41.46 z" id="p3379" style="fill:#424c4e;fill-opacity:0.60;fill-rule:evenodd;stroke:none;display:inline"/>
<path d="M 19.43,5.12 L 18.84,5.18 L 18.68,5.53 L 18.68,5.90 L 25.15,8.53 L 25.75,8 L 26.31,7.90 L 19.43,5.12 z M 18.18,6.34 L 17,6.93 L 23.81,9.71 L 24.65,8.96 L 18.18,6.34 z" id="p3422" style="opacity:1;fill:#aab49b;fill-opacity:0.14;fill-rule:evenodd;stroke:none;marker:none;visibility:visible;display:inline;overflow:visible;enable-background:accumulate"/>
<path d="M 22.27,6.89 L 25.19,8.04" id="p3451" style="fill:none;fill-rule:evenodd;stroke:#b2b494;stroke-width:0.69;stroke-linecap:round;stroke-linejoin:miter;stroke-miterlimit:4;stroke-dasharray:none;stroke-opacity:0.39"/>
<path d="M 21.38,8.22 L 23.82,9.28" id="p3453" style="fill:none;fill-rule:evenodd;stroke:#b2b494;stroke-width:0.69;stroke-linecap:round;stroke-linejoin:miter;stroke-miterlimit:4;stroke-dasharray:none;stroke-opacity:0.39"/>
<path d="M 23.09,3 L 21.56,3.59 L 25.34,6.12 L 30.46,8.06 L 33.59,6.93 L 33.53,6.75 L 23.09,3 z" id="p3455" style="fill:#aab49b;fill-opacity:0.14;fill-rule:evenodd;stroke:none;"/>
<path d="M 8.96,27.12 C 8.93,29.60 8.90,32.84 8.90,33.31 C 8.90,34.85 9.40,36.39 10.43,36.90 C 11.46,37.42 17.52,39.89 18.81,40.40 C 20.10,40.92 21.39,41.41 21.78,40.12 C 22.16,38.83 22.43,30.33 22.43,28.53 C 22.43,26.72 21.90,20.40 21.90,19.5 C 21.90,18.59 22.42,15.89 20.75,15.12 C 19.07,14.35 13.54,12.42 11.09,11.78 C 10.51,11.65 10.10,11.46 9.81,11.53 C 9.52,11.59 9.34,11.88 9.28,12.65 C 9.26,12.82 9.23,13.76 9.21,14.28" id="p3301" style="fill:none;fill-opacity:1;fill-rule:evenodd;stroke:#081418;stroke-width:0.5;stroke-linecap:butt;stroke-linejoin:miter;stroke-miterlimit:4;stroke-dasharray:none;stroke-opacity:1;display:inline"/>
<path d="M 25.87,13.34 L 26.97,12.87" id="p3388" style="fill:none;fill-rule:evenodd;stroke:#e7e7e7;stroke-width:1px;stroke-linecap:round;stroke-linejoin:miter;stroke-opacity:0.40"/>
<path d="M 9.08,7.48 C 11.14,8.19 23.52,12.97 24.00,13.09" id="p3390" style="fill:none;fill-rule:evenodd;stroke:#dcdcdc;stroke-width:0.69;stroke-linecap:round;stroke-linejoin:miter;stroke-miterlimit:4;stroke-dasharray:none;stroke-opacity:0.28"/>
<path d="M 17.69,10.84 C 19.75,11.55 23.17,13.03 23.64,13.14" id="p3392" style="fill:none;fill-rule:evenodd;stroke:#f4f4f4;stroke-width:0.69;stroke-linecap:round;stroke-linejoin:miter;stroke-miterlimit:4;stroke-dasharray:none;stroke-opacity:0.47;display:inline"/>
<path d="M 23.09,3 L 20.12,4.15 L 20,5.06 L 18.68,5.18 L 18.68,6.03 L 15.46,7.34 C 12.48,6.22 9.79,5.23 9.53,5.18 C 8.88,5.05 6.43,5.97 6.56,7.90 C 6.51,9.26 6.48,13.07 6.46,17.31 C 6.02,17.97 5.73,18.71 5.68,19.62 C 5.73,20.54 6.01,21.15 6.43,21.81 C 6.41,28.90 6.43,36.07 6.43,36.90 C 6.43,38.45 7.74,39.23 8.78,39.62 C 9.81,40.01 22.04,45.42 23.71,45.93 C 25.39,46.45 26.04,45.16 26.56,44.90 C 27.07,44.64 27.06,43.99 27.06,43.21 C 27.06,43.17 27.09,41.64 27.09,41.40 L 37.25,36.53 L 37.65,19.78 L 41.37,18.21 L 41.25,16.40 L 37.78,15.03 L 37.90,9.43 L 36.90,9.03 L 42.28,7.25 L 42.15,5.59 L 38.03,4.15 L 35.84,4.15 L 31.43,6 L 23.09,3 z" id="stroke01" style="fill:none;fill-opacity:1;fill-rule:evenodd;stroke:#1c1c1c;stroke-width:0.5;stroke-linecap:butt;stroke-linejoin:miter;stroke-miterlimit:4;stroke-dasharray:none;stroke-opacity:1;display:inline"/>
<path d="M 11.71,11.96 C 10.54,13.10 9.73,13.88 9.03,14.59 C 7.61,16.01 5.81,17.30 5.68,19.62 C 5.81,21.94 7.49,22.20 8.78,26.59 C 9.33,28.47 9.93,32.39 10.06,33.68 C 10.19,34.97 10.57,36.01 11.34,36.65 C 12.11,37.30 16.37,39.09 19.34,40 C 20.58,40.37 21.29,40.36 21.78,40.15 C 21.78,40.14 21.77,40.13 21.78,40.12" id="stroke02" style="fill:none;fill-opacity:1;fill-rule:evenodd;stroke:#232323;stroke-width:0.5;stroke-linecap:butt;stroke-linejoin:miter;stroke-miterlimit:4;stroke-dasharray:none;stroke-opacity:1;display:inline"/>
</svg>
