<?xml version="1.0" encoding="UTF-8" standalone="no"?>
<!DOCTYPE svg PUBLIC "-//W3C//DTD SVG 1.0//EN" "http://www.w3.org/TR/2001/REC-SVG-20010904/DTD/svg10.dtd">
<svg xmlns:svg="http://www.w3.org/2000/svg" xmlns="http://www.w3.org/2000/svg" version="1.0" width="100%" height="100%" viewBox="0 0 48 48" id="_butter01">
<defs/>
<path d="m 7.76,24.36 c 0,0 2.26,6.53 2.52,7.23 0.26,0.69 0.78,1.22 1.74,1.65 0.95,0.43 13.07,6.45 16.30,7.93 3.22,1.48 5.49,0.78 7.32,-1.65 1.83,-2.44 4.70,-5.75 5.23,-6.45 0.52,-0.69 0.78,-1.48 1.04,-2.35 0.26,-0.87 1.04,-7.58 1.04,-7.58 z" id="path3884" style="fill:#4b6a07" />
<g id="g4194" style="opacity:0.5">
<path d="m 11.83,27.57 c -2.84,0.54 0.61,7.93 12.52,9.19 C 14.20,35.01 9.26,29.43 11.83,27.57 z" id="path4172" style="fill:#ffffff" />
<path d="m 26.14,33.11 c -0.59,-0.38 -0.52,0.52 -0.94,0.37 -0.21,0.14 0.38,0.22 0.15,0.43 -0.08,0.31 -0.15,0.64 -0.23,0.95 -0.48,-0.22 -0.17,0.18 0.12,0.21 0.15,0.03 0.59,0.33 0.45,0.03 -0.39,-0.04 -0.26,-0.32 -0.20,-0.52 0.06,-0.25 0.12,-0.51 0.18,-0.77 0.23,0.21 0.72,0.12 0.24,-0.06 -0.58,-0.26 0.27,-0.91 0.46,-0.17 0.31,-0.00 0.02,-0.51 -0.24,-0.47 z m -6.95,-2.85 c -0.59,-0.38 -0.52,0.51 -0.93,0.37 -0.21,0.14 0.39,0.22 0.14,0.43 -0.08,0.31 -0.15,0.63 -0.24,0.95 -0.48,-0.22 -0.17,0.18 0.12,0.21 0.15,0.03 0.60,0.34 0.46,0.03 -0.39,-0.04 -0.27,-0.32 -0.21,-0.52 0.06,-0.25 0.12,-0.51 0.19,-0.76 0.22,0.19 0.72,0.13 0.25,-0.05 -0.58,-0.16 0.12,-0.92 0.38,-0.29 0.31,0.41 0.21,-0.47 -0.18,-0.36 z m 5.49,3.00 c -0.24,-0.18 -0.82,-0.25 -0.31,0.06 -0.13,0.37 -0.08,1.12 -0.66,0.97 -0.46,-0.28 -0.16,-0.73 -0.12,-1.02 -0.01,-0.15 0.23,-0.42 -0.03,-0.48 -0.33,-0.23 -0.57,-0.08 -0.17,0.14 -0.07,0.39 -0.36,0.76 -0.11,1.29 0.34,0.48 0.84,-0.06 0.88,0.39 0.26,0.22 0.70,0.14 0.24,-0.09 0.06,-0.43 0.20,-0.85 0.30,-1.28 z m -2.53,-1.08 c -0.69,-0.29 -1.19,0.32 -0.87,1.09 0.50,0.73 1.31,0.61 1.45,0.08 0.14,-0.34 -0.03,-1.01 -0.57,-1.18 z m -1.74,-0.72 c -0.25,-0.22 -0.63,0.21 -0.54,-0.17 -0.17,-0.02 -0.47,-0.29 -0.55,-0.14 0.28,0.15 0.27,0.33 0.18,0.55 -0.11,0.45 -0.22,0.91 -0.33,1.37 -0.48,-0.24 -0.17,0.18 0.12,0.21 0.24,0.18 0.63,0.12 0.18,-0.10 -0.00,-0.23 0.09,-0.43 0.12,-0.66 0.33,0.76 1.17,0.60 1.26,0.12 0.14,-0.29 0.11,-0.98 -0.44,-1.19 z m 1.72,0.85 c 0.63,0.50 0.26,1.37 -0.24,1.29 -0.65,-0.35 -0.40,-1.28 0.01,-1.33 0.06,-0.01 0.14,7.55e-4 0.22,0.03 z m -1.84,-0.73 c 0.62,0.51 0.24,1.38 -0.27,1.24 -0.60,-0.41 -0.32,-1.23 0.07,-1.29 l 0.09,0.00 0.10,0.03 0,0 z M 17.72,30.40 c -0.24,-0.18 -0.82,-0.25 -0.31,0.06 -0.13,0.37 -0.08,1.12 -0.66,0.97 -0.46,-0.28 -0.16,-0.73 -0.12,-1.02 -0.01,-0.15 0.23,-0.42 -0.03,-0.48 -0.25,-0.20 -0.61,-0.08 -0.18,0.11 -0.03,0.42 -0.34,0.78 -0.10,1.31 0.34,0.53 0.88,-0.07 0.86,0.38 0.30,0.24 0.71,0.18 0.26,-0.10 0.10,-0.41 0.19,-0.83 0.30,-1.25 z m -2.51,-1.08 c -0.70,-0.30 -1.22,0.31 -0.87,1.09 0.49,0.72 1.31,0.61 1.44,0.07 0.13,-0.34 -0.02,-1.00 -0.56,-1.17 z m -1.75,-0.73 c -0.21,-0.23 -0.65,0.22 -0.51,-0.16 -0.32,-0.20 -0.82,-0.24 -0.30,0.09 -0.17,0.53 -0.27,1.12 -0.42,1.68 -0.48,-0.24 -0.17,0.18 0.12,0.21 0.24,0.19 0.65,0.13 0.18,-0.10 -0.01,-0.23 0.08,-0.44 0.12,-0.66 0.33,0.76 1.17,0.61 1.26,0.12 0.14,-0.29 0.11,-0.98 -0.44,-1.19 z m 1.72,0.85 c 0.65,0.50 0.27,1.38 -0.23,1.30 -0.66,-0.34 -0.42,-1.29 0.00,-1.33 0.06,-0.01 0.14,7.55e-4 0.22,0.03 z m -1.84,-0.73 c 0.64,0.50 0.24,1.38 -0.27,1.25 -0.59,-0.41 -0.30,-1.22 0.07,-1.28 l 0.09,0.00 0.10,0.03 z" id="path4174" style="font-size:8px;font-style:normal;font-variant:normal;font-weight:normal;font-stretch:normal;line-height:125%;letter-spacing:0px;word-spacing:0px;font-family:DejaVu Serif;-inkscape-font-specification:DejaVu Serif" />
<path d="m 26.37,32.98 c -0.59,-0.38 -0.52,0.52 -0.94,0.37 -0.21,0.14 0.38,0.22 0.15,0.43 -0.08,0.31 -0.15,0.64 -0.23,0.95 -0.48,-0.22 -0.17,0.18 0.12,0.21 0.15,0.03 0.59,0.33 0.45,0.03 -0.39,-0.04 -0.26,-0.32 -0.20,-0.52 0.06,-0.25 0.12,-0.51 0.18,-0.77 0.23,0.21 0.72,0.12 0.24,-0.06 -0.58,-0.26 0.27,-0.91 0.46,-0.17 0.31,-0.00 0.02,-0.51 -0.24,-0.47 z m -6.95,-2.85 c -0.59,-0.38 -0.52,0.51 -0.93,0.37 -0.21,0.14 0.39,0.22 0.14,0.43 -0.08,0.31 -0.15,0.63 -0.24,0.95 -0.48,-0.22 -0.17,0.18 0.12,0.21 0.15,0.03 0.60,0.34 0.46,0.03 -0.39,-0.04 -0.27,-0.32 -0.21,-0.52 0.06,-0.25 0.12,-0.51 0.19,-0.76 0.22,0.19 0.72,0.13 0.25,-0.05 -0.58,-0.16 0.12,-0.92 0.38,-0.29 0.31,0.41 0.21,-0.47 -0.18,-0.36 z m 5.49,3.00 c -0.24,-0.18 -0.82,-0.25 -0.31,0.06 -0.13,0.37 -0.08,1.12 -0.66,0.97 -0.46,-0.28 -0.16,-0.73 -0.12,-1.02 -0.01,-0.15 0.23,-0.42 -0.03,-0.48 -0.33,-0.23 -0.57,-0.08 -0.17,0.14 -0.07,0.39 -0.36,0.76 -0.11,1.29 0.34,0.48 0.84,-0.06 0.88,0.39 0.26,0.22 0.70,0.14 0.24,-0.09 0.06,-0.43 0.20,-0.85 0.30,-1.28 z m -2.53,-1.08 c -0.69,-0.29 -1.19,0.32 -0.87,1.09 0.50,0.73 1.31,0.61 1.45,0.08 0.14,-0.34 -0.03,-1.01 -0.57,-1.18 z m -1.74,-0.72 c -0.25,-0.22 -0.63,0.21 -0.54,-0.17 -0.17,-0.02 -0.47,-0.29 -0.55,-0.14 0.28,0.15 0.27,0.33 0.18,0.55 -0.11,0.45 -0.22,0.91 -0.33,1.37 -0.48,-0.24 -0.17,0.18 0.12,0.21 0.24,0.18 0.63,0.12 0.18,-0.10 -0.00,-0.23 0.09,-0.43 0.12,-0.66 0.33,0.76 1.17,0.60 1.26,0.12 0.14,-0.29 0.11,-0.98 -0.44,-1.19 z m 1.72,0.85 c 0.63,0.50 0.26,1.37 -0.24,1.29 -0.65,-0.35 -0.40,-1.28 0.01,-1.33 0.06,-0.01 0.14,7.55e-4 0.22,0.03 z m -1.84,-0.73 c 0.62,0.51 0.24,1.38 -0.27,1.24 -0.60,-0.41 -0.32,-1.23 0.07,-1.29 l 0.09,0.00 0.10,0.03 0,0 z m -2.55,-1.16 c -0.24,-0.18 -0.82,-0.25 -0.31,0.06 -0.13,0.37 -0.08,1.12 -0.66,0.97 -0.46,-0.28 -0.16,-0.73 -0.12,-1.02 -0.01,-0.15 0.23,-0.42 -0.03,-0.48 -0.25,-0.20 -0.61,-0.08 -0.18,0.11 -0.03,0.42 -0.34,0.78 -0.10,1.31 0.34,0.53 0.88,-0.07 0.86,0.38 0.30,0.24 0.71,0.18 0.26,-0.10 0.10,-0.41 0.19,-0.83 0.30,-1.25 z m -2.51,-1.08 c -0.70,-0.30 -1.22,0.31 -0.87,1.09 0.49,0.72 1.31,0.61 1.44,0.07 0.13,-0.34 -0.02,-1.00 -0.56,-1.17 z m -1.75,-0.73 c -0.21,-0.23 -0.65,0.22 -0.51,-0.16 -0.32,-0.20 -0.82,-0.24 -0.30,0.09 -0.17,0.53 -0.27,1.12 -0.42,1.68 -0.48,-0.24 -0.17,0.18 0.12,0.21 0.24,0.19 0.65,0.13 0.18,-0.10 -0.01,-0.23 0.08,-0.44 0.12,-0.66 0.33,0.76 1.17,0.61 1.26,0.12 0.14,-0.29 0.11,-0.98 -0.44,-1.19 z m 1.72,0.85 c 0.65,0.50 0.27,1.38 -0.23,1.30 -0.66,-0.34 -0.42,-1.29 0.00,-1.33 0.06,-0.01 0.14,7.56e-4 0.22,0.03 z m -1.84,-0.73 c 0.64,0.50 0.24,1.38 -0.27,1.25 -0.59,-0.41 -0.30,-1.22 0.07,-1.28 l 0.09,0.00 0.10,0.03 z" id="path4176" style="font-size:8px;font-style:normal;font-variant:normal;font-weight:normal;font-stretch:normal;line-height:125%;letter-spacing:0px;word-spacing:0px;fill:#ffc429;font-family:DejaVu Serif;-inkscape-font-specification:DejaVu Serif" />
<path d="m 25.43,35.55 c -0.40,0.11 0.40,0.55 0,0 z m -0.40,-0.02 c -0.42,-0.11 -0.10,0.59 -0.14,0.90 0.15,0.34 0.53,-0.08 0.16,0.03 -0.11,-0.28 0.04,-0.61 0.07,-0.64 -0.14,-0.07 -0.09,-0.19 -0.09,-0.28 z m 1.80,0.89 c -0.13,0.08 -0.57,-0.32 -0.36,0.09 -0.03,0.14 0.07,0.45 -0.06,0.47 0.04,0.18 0.49,0.26 0.21,-0.09 -0.09,-0.28 0.25,-0.52 0.21,-0.07 0.03,0.25 -0.18,0.42 0.20,0.47 -0.05,-0.10 0.08,-0.72 -0.21,-0.87 z m -3.62,-1.71 c -0.44,-0.27 -0.06,0.23 -0.20,0.33 -0.44,-0.45 -0.57,0.48 -0.12,0.68 0.14,-0.04 0.56,0.33 0.33,-0.09 -0.01,-0.31 1.12e-4,-0.62 -0.00,-0.93 z m 2.79,1.40 c -0.42,-0.16 -0.43,0.67 0.03,0.83 0.37,0.09 0.40,-0.64 -0.03,-0.83 z m -0.47,-0.16 c -0.51,-0.32 0.04,0.59 -0.25,0.65 0.51,0.41 0.14,-0.35 0.25,-0.60 l 1e-6,-0.05 -1e-6,-10e-7 z m 0.47,0.24 c 0.33,0.34 -0.11,0.92 -0.10,0.26 -10e-4,-0.10 -0.02,-0.28 0.10,-0.26 z m -1.56,-0.67 c -0.46,-0.19 -0.37,0.84 0.11,0.81 0.20,-0.07 0.07,-0.24 -0.04,-0.08 -0.36,-0.31 -0.13,-0.90 0.18,-0.42 0.03,-0.16 -0.09,-0.25 -0.25,-0.30 z M 20.97,33.90 c -0.14,-0.01 -0.58,-0.32 -0.34,0.03 0.02,0.28 0.00,0.55 0.01,0.84 -0.30,0.02 0.63,0.37 0.19,0.03 -0.18,-0.55 0.65,-0.00 0.39,-0.64 -0.04,-0.11 -0.15,-0.22 -0.25,-0.26 z m 3.00,1.45 c -0.49,-0.34 0.05,0.66 -0.33,0.49 -0.10,-0.26 0.09,-0.78 -0.30,-0.69 0.07,0.27 0.04,0.90 0.48,0.92 0.40,0.29 0.03,-0.52 0.15,-0.71 z m -3.08,-1.39 c 0.43,0.22 -0.13,0.72 -0.05,0.19 -0.00,-0.06 -0.04,-0.23 0.05,-0.19 z m 1.31,0.69 c -0.43,-0.16 -0.43,0.67 0.03,0.83 0.37,0.09 0.38,-0.63 -0.03,-0.83 z m -0.43,-0.15 c -0.14,0.18 -0.34,-0.27 -0.42,-0.06 0.13,0.20 0.03,0.39 0.06,0.59 -0.27,0.09 0.55,0.42 0.15,-0.02 -0.05,-0.30 0.16,-0.45 0.30,-0.30 0.02,-0.05 0.01,-0.20 -0.09,-0.20 z m 1.14,0.54 c 0.36,0.33 -0.13,0.81 -0.10,0.21 0.02,-0.07 -0.00,-0.23 0.10,-0.21 z m -0.71,-0.30 c 0.36,0.34 -0.11,0.94 -0.10,0.27 -0.00,-0.11 -0.01,-0.27 0.10,-0.27 z" id="path4178" style="font-size:3.27px;font-style:normal;font-variant:normal;font-weight:bold;font-stretch:normal;line-height:125%;letter-spacing:0px;word-spacing:0px;fill:#ffffff;font-family:DejaVu Serif;-inkscape-font-specification:DejaVu Serif Bold" />
</g>
<path d="M 43,23.15 7.75,24.37 c 0,0 0.44,1.23 0.68,1.93 7.05,3.38 18.08,8.25 20.09,9.09 2.70,1.13 8.01,0.19 9.5,-1.37 0.67,-0.71 2.42,-2.72 4.15,-4.75 C 42.52,27.04 43,23.15 43,23.15 z" id="path3108-4" style="fill:#183115;fill-opacity:0.33" />
<path d="m 43,23.15 -1.06,0.03 -6.71,7.28 -0.93,10.5 c 0.48,-0.37 0.94,-0.86 1.37,-1.43 1.83,-2.44 4.72,-5.73 5.25,-6.43 C 41.42,32.39 41.67,31.62 41.93,30.75 42.19,29.87 43,23.15 43,23.15 z" id="path3919" style="color:#000000;fill:#183115;fill-opacity:0.22;stroke-width:1px" />
<path d="m 43,23.15 -7.59,0.25 -3.59,5.68 -0.12,12.87 c 1.56,-0.08 2.84,-0.94 3.96,-2.43 1.83,-2.44 4.72,-5.73 5.25,-6.43 C 41.42,32.39 41.67,31.62 41.93,30.75 42.19,29.87 43,23.15 43,23.15 z" id="path3917" style="fill:#183115;fill-opacity:0.39" />
<path d="M 2.61,22.45 C 6.27,24.71 25.37,33.17 28.07,34.31 c 2.70,1.13 8.02,0.17 9.50,-1.39 1.48,-1.56 8.02,-9.06 8.45,-10.20 0.43,-1.13 1.13,-2.44 -2.87,-3.92 -4.01,-1.48 -23.28,-7.58 -23.28,-7.58 0,0 -15.60,9.15 -16.56,9.67 -0.98,0.63 -1.43,1.02 -0.69,1.56 z" id="path3108" style="fill:#b0b0ab;fill-opacity:1" />
<path d="m 6.55,18.58 c -3.60,2.54 -0.52,4.57 0.96,5.18 1.49,0.61 18.28,7.56 20.92,8.44 2.63,0.87 7.20,0.79 9.49,-1.67 2.28,-2.46 5.97,-6.76 7.12,-8.08 1.14,-1.31 0.52,-3.60 -2.81,-4.74 -3.34,-1.14 -17.49,-5.27 -19.34,-5.80 -1.84,-0.52 -5.36,-0.17 -6.94,0.70 -1.58,0.87 -9.40,5.97 -9.40,5.97 z" id="path3882" style="fill:#c9c3c3;fill-opacity:1" />
<path d="m 8.19,25.24 c 0,0 19.35,8.71 20.66,9.24 1.30,0.52 6.88,-0.08 8.28,-1.48 1.39,-1.39 5.05,-5.66 5.05,-5.66" id="path4004" style="fill:none;stroke:#d1cccc;stroke-width:0.5;stroke-linecap:round;stroke-opacity:1" />
<path d="m 27.99,33.61 c 1.39,0.61 4.27,0.69 6.36,0.17" id="path4006" style="fill:none;stroke:#d1cccc;stroke-width:1px;stroke-opacity:0.79" />
<path d="m 44.09,16.65 -8.68,11.71 0,5.71 c 0.94,-0.32 1.74,-0.72 2.18,-1.18 1.48,-1.56 8.00,-9.05 8.43,-10.18 0.34,-0.88 0.82,-1.87 -0.87,-2.96 0.41,-0.92 0.11,-2.12 -1.06,-3.09 z" id="path4008" style="fill:#1d1a1a;fill-opacity:0.31" />
<path d="m 6.62,16.43 c -3.57,2.52 -0.52,4.53 0.95,5.14 1.48,0.61 18.13,7.49 20.75,8.37 2.61,0.87 7.15,0.78 9.41,-1.65 2.26,-2.44 5.92,-6.71 7.06,-8.02 1.13,-1.30 0.52,-3.57 -2.79,-4.70 C 38.71,14.42 24.67,10.33 22.84,9.80 21.01,9.28 17.52,9.63 15.95,10.50 14.38,11.37 6.62,16.43 6.62,16.43 z" id="path3110" style="fill:#b5b7ab;fill-opacity:1" />
<path d="m 5.06,19.45 c -0.19,0.55 -0.10,1.06 0.15,1.51 0.50,0.89 1.64,1.55 2.38,1.86 1.48,0.61 18.20,7.52 20.83,8.40 2.62,0.87 7.17,0.78 9.45,-1.66 2.27,-2.45 5.95,-6.74 7.09,-8.05 0.56,-0.65 0.70,-1.55 0.27,-2.42" id="path3880" style="fill:none;stroke:#f3f2f2;stroke-width:0.69;stroke-opacity:0.44" />
<path d="m 34.70,31.95 c 1.56,-0.17 2.96,-1.48 3.31,-1.83" id="path4016" style="fill:none;stroke:#c7c0c0;stroke-width:0.60" />
<path d="m 7.99,17.86 c 1.47,-0.86 7.62,-5.04 9.10,-5.78 1.47,-0.73 2.95,-0.86 4.42,-0.49 1.47,0.36 18.57,5.78 19.80,6.15 1.23,0.36 1.72,1.84 0.24,3.19 -1.47,1.35 -6.02,6.39 -7.13,7.50 -1.10,1.10 -3.44,1.35 -5.53,0.61 C 26.81,28.31 9.47,20.93 8.24,20.32 7.01,19.70 6.51,18.84 7.99,17.86 z" id="path4018" style="color:#000000;fill:#43750e;stroke-width:1px" />
<g id="g4184" style="opacity:0.45">
<path d="M 16.36,13.93 C 10.36,15.52 8.03,25.49 28.91,24.05 11.92,24.28 9.32,17.40 16.36,13.93 z" id="path4057" style="fill:#ffffff" />
<path d="m 36.64,18.14 c -0.66,-0.39 -1.60,0.91 -2.22,0.81 -0.58,0.26 0.46,0.22 -0.23,0.60 -0.53,0.48 -1.05,0.99 -1.58,1.48 -0.65,-0.19 -0.54,0.31 -0.02,0.27 0.25,0.00 0.70,0.33 0.81,-0.07 -0.68,0.03 -0.10,-0.40 0.23,-0.72 0.42,-0.39 0.84,-0.79 1.26,-1.19 0.18,0.24 1.21,-0.02 0.53,-0.15 -0.79,-0.22 1.62,-1.43 1.08,-0.39 0.59,-0.09 0.67,-0.77 0.11,-0.63 z m -9.65,-2.29 c -0.66,-0.40 -1.60,0.91 -2.20,0.81 -0.58,0.26 0.46,0.22 -0.24,0.60 -0.53,0.48 -1.06,0.98 -1.59,1.47 -0.65,-0.19 -0.54,0.31 -0.02,0.27 0.25,0.00 0.72,0.33 0.83,-0.07 -0.69,0.03 -0.13,-0.40 0.22,-0.72 0.42,-0.39 0.85,-0.79 1.27,-1.18 0.17,0.23 1.19,0.00 0.55,-0.15 -0.91,-0.07 1.33,-1.39 1.07,-0.54 0.08,0.53 0.97,-0.76 0.09,-0.49 z m 6.73,2.91 c -0.23,-0.20 -1.25,-0.14 -0.67,0.18 -0.70,0.58 -1.50,1.68 -2.40,1.62 -0.52,-0.29 0.58,-1.04 0.99,-1.48 0.15,-0.22 0.96,-0.70 0.51,-0.70 -0.35,-0.25 -0.98,0.04 -0.50,0.26 -0.61,0.60 -1.60,1.23 -1.77,1.95 0.06,0.62 1.67,-0.33 1.18,0.33 0.23,0.25 1.15,0.01 0.57,-0.20 0.65,-0.66 1.40,-1.31 2.09,-1.97 z m -3.45,-0.90 c -0.95,-0.24 -2.64,0.81 -2.97,1.87 0.07,0.94 1.74,0.53 2.63,-0.28 0.68,-0.55 1.15,-1.49 0.33,-1.59 z m -2.41,-0.58 c -0.21,-0.25 -1.44,0.49 -0.82,-0.10 -0.29,0.00 -0.55,-0.29 -0.87,-0.05 0.34,0.15 0.11,0.42 -0.32,0.77 -0.75,0.71 -1.51,1.42 -2.27,2.13 -0.62,-0.22 -0.56,0.32 -0.02,0.28 0.23,0.21 1.03,0.01 0.47,-0.20 0.26,-0.34 0.69,-0.67 1.03,-1.01 -0.27,1.03 1.47,0.57 2.22,-0.16 0.63,-0.48 1.39,-1.49 0.59,-1.64 z m 2.21,0.78 c 0.58,0.57 -1.15,1.96 -2.00,1.98 -0.81,-0.33 0.77,-1.78 1.63,-1.97 0.13,-0.03 0.26,-0.03 0.37,-0.00 z m -2.58,-0.57 c 0.56,0.58 -1.19,1.97 -2.01,1.92 -0.63,-0.45 0.87,-1.74 1.68,-1.93 l 0.17,-0.01 0.16,0.02 0,0 z m -3.40,-1.01 c -0.23,-0.20 -1.25,-0.14 -0.67,0.18 -0.70,0.58 -1.50,1.68 -2.40,1.62 -0.52,-0.29 0.58,-1.04 0.99,-1.48 0.15,-0.22 0.95,-0.69 0.51,-0.70 -0.23,-0.23 -1.05,0.04 -0.48,0.22 -0.56,0.63 -1.59,1.25 -1.78,1.98 0.00,0.69 1.76,-0.36 1.15,0.33 0.27,0.27 1.12,0.07 0.62,-0.23 0.68,-0.63 1.37,-1.28 2.06,-1.93 z m -3.44,-0.89 c -0.94,-0.26 -2.67,0.80 -2.97,1.87 0.06,0.93 1.74,0.54 2.62,-0.28 0.67,-0.54 1.16,-1.48 0.34,-1.58 z M 18.19,14.98 c -0.13,-0.28 -1.50,0.51 -0.77,-0.09 -0.36,-0.21 -1.25,-0.13 -0.69,0.22 -0.96,0.84 -1.87,1.74 -2.81,2.61 -0.62,-0.22 -0.56,0.32 -0.02,0.28 0.24,0.21 1.06,0.01 0.47,-0.20 0.25,-0.34 0.69,-0.67 1.02,-1.01 -0.27,1.03 1.47,0.57 2.22,-0.16 0.63,-0.48 1.39,-1.49 0.59,-1.64 z m 2.21,0.78 c 0.63,0.55 -1.13,1.97 -1.99,1.99 -0.84,-0.32 0.75,-1.79 1.61,-1.98 0.13,-0.03 0.26,-0.03 0.37,-0.00 z m -2.58,-0.57 c 0.60,0.56 -1.19,1.98 -2.01,1.92 -0.62,-0.45 0.89,-1.72 1.68,-1.92 l 0.17,-0.01 0.16,0.01 z" id="path4091" style="font-size:8px;font-style:normal;font-variant:normal;font-weight:normal;font-stretch:normal;line-height:125%;letter-spacing:0px;word-spacing:0px;font-family:DejaVu Serif;-inkscape-font-specification:DejaVu Serif" />
<path d="m 37.24,17.89 c -0.66,-0.39 -1.60,0.91 -2.22,0.81 -0.58,0.26 0.46,0.22 -0.23,0.60 -0.53,0.48 -1.05,0.99 -1.58,1.48 -0.65,-0.19 -0.54,0.31 -0.02,0.27 0.25,0.00 0.70,0.33 0.81,-0.07 -0.68,0.03 -0.10,-0.40 0.23,-0.72 0.42,-0.39 0.84,-0.79 1.26,-1.19 0.18,0.24 1.21,-0.02 0.53,-0.15 -0.79,-0.22 1.62,-1.43 1.08,-0.39 0.59,-0.09 0.67,-0.77 0.11,-0.63 z m -9.65,-2.29 c -0.66,-0.40 -1.60,0.91 -2.20,0.81 -0.58,0.26 0.46,0.22 -0.24,0.60 -0.53,0.48 -1.06,0.98 -1.59,1.47 -0.65,-0.19 -0.54,0.31 -0.02,0.27 0.25,0.00 0.72,0.33 0.83,-0.07 -0.69,0.03 -0.13,-0.40 0.22,-0.72 0.42,-0.39 0.85,-0.79 1.27,-1.18 0.17,0.23 1.19,0.00 0.55,-0.15 -0.91,-0.07 1.33,-1.39 1.07,-0.54 0.08,0.53 0.97,-0.76 0.09,-0.49 z m 6.73,2.91 c -0.23,-0.20 -1.25,-0.14 -0.67,0.18 -0.70,0.58 -1.50,1.68 -2.40,1.62 -0.52,-0.29 0.58,-1.04 0.99,-1.48 0.15,-0.22 0.96,-0.70 0.51,-0.70 -0.35,-0.25 -0.98,0.04 -0.50,0.26 -0.61,0.60 -1.60,1.23 -1.77,1.95 0.06,0.62 1.67,-0.33 1.18,0.33 0.23,0.25 1.15,0.01 0.57,-0.20 0.65,-0.66 1.40,-1.31 2.09,-1.97 z m -3.45,-0.90 c -0.95,-0.24 -2.64,0.81 -2.97,1.87 0.07,0.94 1.74,0.53 2.63,-0.28 0.68,-0.55 1.15,-1.49 0.33,-1.59 z M 28.44,17.03 c -0.21,-0.25 -1.44,0.49 -0.82,-0.10 -0.29,0.00 -0.55,-0.29 -0.87,-0.05 0.34,0.15 0.11,0.42 -0.32,0.77 -0.75,0.71 -1.51,1.42 -2.27,2.13 -0.62,-0.22 -0.56,0.32 -0.02,0.28 0.23,0.21 1.03,0.01 0.47,-0.20 0.26,-0.34 0.69,-0.67 1.03,-1.01 -0.27,1.03 1.47,0.57 2.22,-0.16 0.63,-0.48 1.39,-1.49 0.59,-1.64 z m 2.21,0.78 c 0.58,0.57 -1.15,1.96 -2.00,1.98 -0.81,-0.33 0.77,-1.78 1.63,-1.97 0.13,-0.03 0.26,-0.03 0.37,-0.00 z M 28.06,17.24 c 0.56,0.58 -1.19,1.97 -2.01,1.92 -0.63,-0.45 0.87,-1.74 1.68,-1.93 l 0.17,-0.01 0.16,0.02 0,0 z m -3.40,-1.01 c -0.23,-0.20 -1.25,-0.14 -0.67,0.18 -0.70,0.58 -1.50,1.68 -2.40,1.62 -0.52,-0.29 0.58,-1.04 0.99,-1.48 0.15,-0.22 0.95,-0.69 0.51,-0.70 -0.23,-0.23 -1.05,0.04 -0.48,0.22 -0.56,0.63 -1.59,1.25 -1.78,1.98 0.00,0.69 1.76,-0.36 1.15,0.33 0.27,0.27 1.12,0.07 0.62,-0.23 0.68,-0.63 1.37,-1.28 2.06,-1.93 z m -3.44,-0.89 c -0.94,-0.26 -2.67,0.80 -2.97,1.87 0.06,0.93 1.74,0.54 2.62,-0.28 0.67,-0.54 1.16,-1.48 0.34,-1.58 z m -2.43,-0.59 c -0.13,-0.28 -1.50,0.51 -0.77,-0.09 -0.36,-0.21 -1.25,-0.13 -0.69,0.22 -0.96,0.84 -1.87,1.74 -2.81,2.61 -0.62,-0.22 -0.56,0.32 -0.02,0.28 0.24,0.21 1.06,0.01 0.47,-0.20 0.25,-0.34 0.69,-0.67 1.02,-1.01 -0.27,1.03 1.47,0.57 2.22,-0.16 0.63,-0.48 1.39,-1.49 0.59,-1.64 z m 2.21,0.78 c 0.63,0.55 -1.13,1.97 -1.99,1.99 -0.84,-0.32 0.75,-1.79 1.61,-1.98 0.13,-0.03 0.26,-0.03 0.37,-0.00 z m -2.58,-0.57 c 0.60,0.56 -1.19,1.98 -2.01,1.92 -0.62,-0.45 0.89,-1.72 1.68,-1.92 l 0.17,-0.01 0.16,0.01 z" id="path4064" style="font-size:8px;font-style:normal;font-variant:normal;font-weight:normal;font-stretch:normal;line-height:125%;letter-spacing:0px;word-spacing:0px;fill:#ffc429;font-family:DejaVu Serif;-inkscape-font-specification:DejaVu Serif" />
<path d="m 32.40,21.94 c -0.89,0.28 0.09,0.70 0,0 z m -0.73,0.07 c -0.66,-0.04 -0.91,0.90 -1.35,1.37 -0.12,0.46 1.11,-0.27 0.26,0.00 0.13,-0.38 0.83,-0.93 0.92,-0.98 -0.18,-0.07 0.05,-0.25 0.16,-0.40 z m 2.32,0.82 c -0.35,0.16 -0.68,-0.31 -0.79,0.23 -0.23,0.22 -0.40,0.64 -0.68,0.71 -0.13,0.25 0.61,0.24 0.52,-0.19 0.15,-0.39 1.10,-0.84 0.49,-0.16 -0.24,0.36 -0.85,0.67 -0.17,0.64 0.02,-0.14 1.03,-1.09 0.64,-1.23 z M 29.22,21.31 c -0.51,-0.28 -0.40,0.36 -0.79,0.56 -0.29,-0.54 -1.65,0.87 -1.05,1.04 0.32,-0.11 0.65,0.33 0.74,-0.22 0.35,-0.46 0.74,-0.92 1.11,-1.38 z m 3.57,1.30 c -0.61,-0.12 -1.62,1.11 -0.92,1.22 0.58,0.04 1.52,-1.06 0.92,-1.22 z m -0.68,-0.11 c -0.58,-0.33 -0.63,0.86 -1.25,1.03 0.47,0.47 0.70,-0.57 1.18,-0.95 l 0.06,-0.08 -10e-7,-10e-7 z m 0.58,0.23 c 0.21,0.41 -1.32,1.40 -0.52,0.42 0.12,-0.16 0.29,-0.41 0.52,-0.42 z m -2.13,-0.56 c -0.65,-0.15 -1.72,1.36 -0.75,1.17 0.48,-0.17 0.43,-0.38 0.01,-0.11 -0.31,-0.36 0.82,-1.29 0.85,-0.67 0.26,-0.25 0.12,-0.34 -0.10,-0.38 z m -4.57,-1.42 c -0.25,0.02 -0.70,-0.32 -0.69,0.14 -0.29,0.41 -0.66,0.82 -0.98,1.24 -0.60,0.11 0.75,0.37 0.32,-0.00 0.31,-0.76 1.22,-0.18 1.52,-1.06 0.05,-0.16 -0.01,-0.28 -0.16,-0.31 z m 3.90,1.31 c -0.52,-0.37 -0.69,0.96 -1.22,0.82 0.11,-0.36 1.12,-1.18 0.25,-0.94 -0.18,0.38 -1.00,1.32 -0.18,1.22 0.41,0.31 0.69,-0.79 1.14,-1.10 z m -4.12,-1.21 c 0.55,0.21 -1.12,1.10 -0.33,0.30 0.07,-0.09 0.18,-0.32 0.33,-0.30 z m 1.63,0.66 c -0.61,-0.12 -1.63,1.12 -0.92,1.22 0.59,0.03 1.48,-1.04 0.92,-1.22 z m -0.62,-0.11 c -0.49,0.31 -0.31,-0.30 -0.72,0.02 0.00,0.27 -0.39,0.57 -0.58,0.85 -0.63,0.21 0.53,0.46 0.32,-0.08 0.25,-0.43 0.84,-0.71 0.92,-0.52 0.10,-0.08 0.27,-0.31 0.06,-0.27 z m 1.49,0.48 c 0.28,0.39 -1.22,1.23 -0.46,0.35 0.13,-0.12 0.27,-0.34 0.46,-0.35 z m -0.97,-0.25 c 0.26,0.40 -1.34,1.42 -0.52,0.43 0.13,-0.16 0.29,-0.40 0.52,-0.43 z" id="path4100" style="font-size:3.27px;font-style:normal;font-variant:normal;font-weight:bold;font-stretch:normal;line-height:125%;letter-spacing:0px;word-spacing:0px;fill:#ffffff;font-family:DejaVu Serif;-inkscape-font-specification:DejaVu Serif Bold" />
</g>
<g id="layer3">
<path d="M 20.28,9.56 C 18.67,9.61 16.94,9.95 15.96,10.5 14.39,11.37 6.62,16.43 6.62,16.43 5.11,17.50 4.79,18.46 5.03,19.28 4.92,19.51 4.88,19.74 4.87,19.96 4.54,20.15 3.40,20.82 3.31,20.87 2.32,21.51 1.89,21.89 2.62,22.43 c 0.95,0.58 2.95,1.62 5.43,2.81 0.42,1.23 1.98,5.73 2.21,6.34 0.26,0.69 0.79,1.22 1.75,1.65 0.95,0.43 13.08,6.45 16.31,7.93 3.22,1.48 5.48,0.78 7.31,-1.65 1.83,-2.44 4.72,-5.73 5.25,-6.43 0.52,-0.69 0.76,-1.47 1.03,-2.34 0.11,-0.37 0.32,-1.88 0.53,-3.43 1.75,-2.08 3.35,-4.05 3.56,-4.59 0.30,-0.80 0.73,-1.70 -0.46,-2.68 C 45.55,19.69 45.49,19.34 45.31,19 45.37,17.78 44.41,16.37 42.03,15.56 38.71,14.42 24.67,10.33 22.84,9.81 22.15,9.61 21.24,9.53 20.28,9.56 z" id="stroke01" style="fill:none;stroke:#0c0b0b;stroke-width:0.5;" />
<path d="m 29.55,26.70 c -0.11,0.10 -0.30,0.22 -0.12,0.22 0.03,0.08 0.29,-0.15 0.25,-0.17 -0.04,-0.01 -0.08,-0.03 -0.13,-0.04 z m -5.93,-2.08 c -0.36,0.31 -0.72,0.62 -1.09,0.94 0.16,0.05 0.32,0.11 0.48,0.17 0.11,-0.10 0.30,-0.22 0.12,-0.22 -0.03,-0.04 -0.25,-0.02 -0.18,-0.11 0.27,-0.24 0.55,-0.48 0.83,-0.72 -0.05,-0.02 -0.11,-0.04 -0.17,-0.06 z m 1.19,0.46 c -0.10,0.07 -0.24,0.26 -0.31,0.18 -0.17,0.11 -0.17,0.17 -0.16,0.22 -0.19,0.17 -0.55,0.42 -0.45,0.55 0.08,0.03 0.16,0.13 0.30,-0.04 0.11,-0.10 -0.17,-0.10 0.11,-0.26 0.10,-0.07 0.24,-0.27 0.31,-0.18 0.04,0.09 0.23,-0.07 0.27,-0.14 -0.10,-0.02 -0.19,-0.05 0.00,-0.18 0.19,-0.12 -0.04,-0.09 -0.08,-0.14 z m 0.45,0.16 c -0.11,0.08 -0.25,0.27 -0.32,0.18 -0.10,0.07 -0.28,0.20 -0.11,0.19 -0.17,0.16 -0.41,0.32 -0.52,0.49 -0.00,0.07 0.13,0.23 0.28,0.09 0.27,-0.16 -0.15,-0.08 0.07,-0.25 0.10,-0.08 0.23,-0.22 0.33,-0.27 0.08,0.02 0.15,0.10 0.29,-0.05 0.17,-0.11 -0.18,-0.05 -0.07,-0.14 0.14,-0.11 0.26,-0.21 0.09,-0.21 -0.01,-0.00 -0.03,-0.01 -0.04,-0.01 z m -1.05,-0.11 c -0.19,-0.09 -0.64,0.16 -0.84,0.40 -0.25,0.25 -0.07,0.40 0.19,0.37 0.13,0.00 0.45,-0.30 0.12,-0.16 -0.31,0.10 -0.17,-0.30 0.01,-0.17 0.09,0.03 0.18,0.06 0.27,0.09 0.23,-0.18 0.42,-0.46 0.24,-0.53 z m 1.57,0.56 c -0.21,0.01 -0.30,0.09 -0.20,-0.04 -0.07,-0.06 -0.17,-0.04 -0.30,0.09 -0.21,0.18 -0.43,0.37 -0.65,0.56 0.08,0.03 0.15,0.10 0.28,-0.05 0.18,-0.14 0.39,-0.39 0.62,-0.41 0.03,0.11 -0.27,0.29 -0.41,0.44 -0.17,0.11 -0.19,0.18 -0.05,0.19 0.08,0.01 0.22,-0.17 0.33,-0.24 0.17,-0.22 0.73,-0.39 0.29,-0.05 -0.14,0.12 -0.29,0.25 -0.43,0.37 0.08,0.01 0.15,0.12 0.28,-0.03 0.22,-0.21 0.58,-0.44 0.60,-0.65 -0.00,-0.19 -0.54,0.17 -0.32,-0.11 -0.00,-0.02 -0.02,-0.04 -0.05,-0.05 z M 26.65,26.01 c -0.13,-0.04 -0.28,-0.06 -0.45,0.13 0.22,-0.11 0.42,0.12 0.18,0.15 -0.13,-0.17 -0.79,0.14 -0.74,0.39 0.01,0.14 0.50,-0.12 0.26,0.08 0.07,0.04 0.16,0.07 0.29,-0.07 0.19,-0.19 0.53,-0.40 0.55,-0.58 -0.00,-0.05 -0.04,-0.08 -0.10,-0.10 z m 0.73,0.26 c -0.12,-0.04 -0.40,0.12 -0.21,-0.04 -0.07,-0.04 -0.16,-0.07 -0.29,0.07 -0.22,0.19 -0.45,0.38 -0.67,0.58 0.08,0.03 0.15,0.10 0.28,-0.05 0.17,-0.13 0.35,-0.35 0.57,-0.39 0.03,0.15 0.34,-0.06 0.33,-0.15 l -0.01,-0.00 z m 0.29,0.10 c -0.31,-0.02 -0.83,0.38 -0.89,0.63 -0.13,0.27 0.67,-0.12 0.13,0.20 -0.32,0.16 -0.20,-0.26 -0.49,0.06 0.02,0.20 0.51,0.18 0.83,-0.13 0.24,-0.20 0.48,-0.41 0.72,-0.62 -0.08,-0.02 -0.15,-0.10 -0.27,0.04 0.04,-0.08 0.03,-0.15 -0.02,-0.18 z m 0.71,0.25 c -0.13,-0.04 -0.28,-0.06 -0.45,0.13 0.30,-0.15 0.37,0.23 0.13,0.13 -0.20,-0.21 -1.01,0.44 -0.57,0.45 0.19,-0.03 0.26,-0.09 0.13,0.04 0.07,0.04 0.16,0.07 0.29,-0.07 0.19,-0.19 0.53,-0.40 0.55,-0.58 -0.00,-0.05 -0.04,-0.08 -0.10,-0.10 z m 0.73,0.26 c -0.12,-0.04 -0.40,0.12 -0.21,-0.04 -0.07,-0.04 -0.16,-0.07 -0.29,0.07 -0.22,0.19 -0.45,0.38 -0.67,0.58 0.08,0.03 0.15,0.10 0.28,-0.05 0.17,-0.13 0.35,-0.35 0.57,-0.39 0.09,0.10 0.19,-5.24e-4 0.35,-0.14 l -0.01,-0.00 -0.01,-0.00 z m 0.76,0.27 c -0.12,-0.05 -0.38,0.14 -0.19,-0.04 -0.08,-0.02 -0.15,-0.10 -0.29,0.05 -0.23,0.19 -0.46,0.39 -0.69,0.59 0.08,0.01 0.15,0.12 0.28,-0.03 0.16,-0.13 0.30,-0.28 0.48,-0.39 0.39,-0.13 -0.01,0.22 -0.18,0.35 -0.07,0.08 -0.33,0.22 -0.17,0.22 0.06,0.09 0.20,-0.06 0.31,-0.16 0.18,-0.17 0.51,-0.38 0.50,-0.54 l -0.01,-0.03 -0.03,-0.02 z m -0.67,-0.21 c -0.27,0.23 -0.55,0.47 -0.82,0.71 0.08,0.03 0.15,0.10 0.28,-0.05 0.23,-0.19 0.46,-0.39 0.69,-0.59 -0.05,-0.01 -0.10,-0.03 -0.15,-0.05 z m -5.19,-1.70 c 0.07,0.15 -0.18,0.20 -0.25,0.11 -0.13,-0.01 0.26,-0.17 0.25,-0.11 z m 3.52,1.30 c 0.19,0.16 -0.82,0.65 -0.37,0.19 0.10,-0.09 0.27,-0.25 0.37,-0.19 z m -1.36,-0.16 c 0.30,0.03 -0.55,0.35 -0.16,0.03 0.05,-0.03 0.12,-0.04 0.16,-0.03 z m 1.74,0.63 c 0.29,0.01 -0.46,0.35 -0.22,0.06 0.07,-0.05 0.17,-0.07 0.22,-0.06 z" id="path4205" style="font-size:1.78px;font-style:normal;font-variant:normal;font-weight:bold;font-stretch:normal;line-height:125%;letter-spacing:0px;word-spacing:0px;fill:#acab0e;font-family:DejaVu Sans;-inkscape-font-specification:DejaVu Sans Bold" />
<path d="m 21.15,12.13 c -0.53,-0.16 -1.23,0.35 -1.46,0.77 -0.36,0.49 0.25,0.91 0.92,0.58 0.58,-0.30 1.11,-0.97 0.71,-1.29 -0.04,-0.03 -0.10,-0.05 -0.16,-0.06 z m 1.51,0.41 c -0.53,-0.16 -1.23,0.35 -1.46,0.77 -0.36,0.49 0.25,0.91 0.92,0.58 0.58,-0.30 1.11,-0.97 0.71,-1.29 -0.04,-0.03 -0.10,-0.05 -0.16,-0.06 z m -3.09,-0.80 c -0.45,0.22 -0.92,0.43 -1.36,0.67 -0.06,0.11 -0.38,0.31 -0.12,0.31 0.19,0.05 0.38,0.10 0.57,0.15 -0.38,0.26 -0.04,0.30 0.17,0.35 0.11,-0.17 0.24,-0.30 0.44,-0.20 0.50,-0.26 -0.20,-0.25 0.18,-0.50 0.18,-0.22 0.38,-0.44 0.57,-0.66 -0.15,-0.04 -0.30,-0.08 -0.46,-0.12 z m 1.35,0.63 c 0.22,0.22 -0.24,0.74 -0.63,0.92 -0.65,0.03 0.06,-0.64 0.36,-0.86 0.08,-0.04 0.18,-0.06 0.27,-0.05 z m 1.51,0.41 c 0.22,0.22 -0.24,0.74 -0.63,0.92 -0.65,0.03 0.06,-0.64 0.36,-0.86 0.08,-0.04 0.18,-0.06 0.27,-0.05 z m -3.06,-0.74 c -0.16,0.19 -0.33,0.38 -0.50,0.57 -0.12,-0.04 -0.38,-0.07 -0.41,-0.13 0.30,-0.14 0.61,-0.29 0.91,-0.44 z m 4.33,1.21 c -0.63,-0.16 -1.52,0.76 -1.00,1.02 0.13,0.17 0.90,-0.13 0.38,0.18 -0.41,0.27 -0.89,-0.36 -0.89,0.15 0.27,0.22 1.02,0.27 1.41,-0.15 0.21,-0.31 0.78,-0.76 0.77,-1.00 -0.16,-0.04 -0.31,-0.13 -0.44,0.01 -0.03,-0.10 -0.08,-0.20 -0.23,-0.23 z m -0.06,0.27 c 0.44,0.15 -0.46,0.88 -0.61,0.47 -0.03,-0.19 0.32,-0.52 0.61,-0.47 z" id="path4266" style="font-size:8px;font-style:normal;font-variant:normal;font-weight:bold;font-stretch:normal;line-height:125%;letter-spacing:0px;word-spacing:0px;color:#000000;fill:#acab0e;font-family:DejaVu Sans;-inkscape-font-specification:DejaVu Sans Bold" />
</g>
</svg>
