<?xml version="1.0" encoding="UTF-8" standalone="no"?>
<!DOCTYPE svg PUBLIC "-//W3C//DTD SVG 1.0//EN" "http://www.w3.org/TR/2001/REC-SVG-20010904/DTD/svg10.dtd">
<svg xmlns:svg="http://www.w3.org/2000/svg" xmlns="http://www.w3.org/2000/svg" version="1.0" width="100%" height="100%" viewBox="0 0 48 48" id="_canned01">
<defs/>
<g id="layer2">
<path d="m 24.30,3.01 c 8.50,-0.20 15.97,4.81 13.52,11.93 -0.26,3.18 -1.32,18.03 -1.41,18.82 0.97,1.94 -1.06,10.60 -10.60,10.25 C 16.26,43.66 14.23,38.10 14.58,34.38 13.96,29.88 12.46,17.24 12.28,15.82 9.45,10.34 14.46,3.25 24.30,3.01 z" id="path3222" style="fill:#038197" />
<path d="m 14.02,24.92 3.16,12.55 c 0,0 4.63,2.37 6.89,2.37 2.26,0 8.48,-2.03 8.48,-2.03 l 3.16,-12.21 -2.48,1.47 1.13,-4.07 c 0,0 -5.20,2.14 -10.17,1.80 -4.97,-0.33 -9.50,-2.26 -9.50,-2.26 l 1.13,3.95 z" id="path4235" style="fill:#7c4a20;fill-opacity:0.97" />
<path d="m 15.27,26.72 2.87,10.30 c 0,0 4.05,2.07 6.03,2.07 1.97,0 7.42,-1.78 7.42,-1.78 L 34.48,27.11 32.30,28.40 33.19,24.36 c 0,0 -4.55,1.88 -8.90,1.58 -4.35,-0.29 -8.31,-1.97 -8.31,-1.97 l 0.88,4.14 z" id="path4255" style="fill:#2a2219;fill-opacity:0.97" />
<path d="M 17.87,31.31 18,33.40 15.96,34.68 18.43,35.25 l 0.84,2 1.37,-1.78 2.56,-0.06 -1.59,-1.62 0.71,-2.03 -2.37,0.75 -2.09,-1.18 z m 11.06,0.5 -2.65,2 -2.90,-0.65 0.75,2.71 -2.09,2.56 3.15,-0.31 1.59,2.25 1.18,-2.93 3.06,-1.18 -2.40,-1.46 0.31,-2.96 z" id="path4652" style="color:#000000;fill:#e5d999;stroke:#c1dbc6;stroke-width:0" />
<path d="m 14.67,32.42 0.71,3.58 0.90,1.48 1.62,1.09 0.43,-2.72 -0.66,-0.43 0.14,-0.57 -3.01,-3.10 0.19,0.86 z" id="path4257" style="fill:#215035;fill-opacity:0.97;stroke:#c1dbc6;stroke-width:0.40" />
<path d="m 22.64,25.54 c -0.68,-0.01 -1.20,0.18 -1.51,0.59 -0.29,0.40 -0.35,0.97 -0.20,1.69 0.15,0.72 0.42,1.29 0.83,1.71 0.39,0.41 0.88,0.62 1.44,0.63 0.56,0.00 0.97,-0.20 1.27,-0.61 0.31,-0.40 0.46,-0.96 0.44,-1.68 -0.02,-0.71 -0.24,-1.28 -0.63,-1.69 -0.41,-0.41 -0.95,-0.63 -1.64,-0.64 0,0 0,0 0,0 m -5.84,-0.00 c 0,0 1.58,4.51 1.58,4.51 0,0 0.90,0.00 0.90,0.00 0,0 -0.48,-1.57 -0.48,-1.57 0,0 0.64,0.00 0.64,0.00 0.48,0.00 0.83,-0.09 1.02,-0.34 0.20,-0.25 0.25,-0.63 0.15,-1.10 -0.10,-0.46 -0.31,-0.83 -0.65,-1.08 -0.34,-0.25 -0.79,-0.37 -1.34,-0.38 0,0 -1.83,-0.03 -1.83,-0.03 0,0 0,0 0,0 m 8.35,0.14 c 0,0 0.05,2.63 0.05,2.63 0.01,0.62 0.15,1.09 0.41,1.40 0.25,0.30 0.63,0.47 1.14,0.47 0.50,0.00 0.89,-0.16 1.17,-0.46 0.29,-0.30 0.48,-0.76 0.56,-1.38 0,0 0.33,-2.60 0.33,-2.60 0,0 -1.09,-0.01 -1.09,-0.01 0,0 -0.21,2.61 -0.21,2.61 -0.03,0.36 -0.09,0.64 -0.20,0.79 -0.10,0.15 -0.27,0.20 -0.50,0.20 -0.22,-0.00 -0.38,-0.06 -0.48,-0.21 -0.09,-0.15 -0.12,-0.44 -0.11,-0.80 0,0 0.06,-2.62 0.06,-2.62 0,0 -1.12,-0.01 -1.12,-0.01 0,0 0,0 0,0 m 4.25,0.07 c 0,0 -0.66,4.35 -0.66,4.35 0,0 0.90,0.00 0.90,0.00 0,0 0.36,-1.84 0.36,-1.84 0,0 1.58,0.01 1.58,0.01 0,0 0.22,-0.83 0.22,-0.83 0,0 -1.64,-0.02 -1.64,-0.02 0,0 0.16,-0.81 0.16,-0.81 0,0 1.81,0.02 1.81,0.02 0,0 0.23,-0.83 0.23,-0.83 0,0 -2.97,-0.05 -2.97,-0.05 0,0 0,0 0,0 m -6.66,0.62 c 0.32,0.00 0.58,0.13 0.78,0.39 0.19,0.26 0.31,0.63 0.34,1.09 0.03,0.46 -0.01,0.83 -0.15,1.09 -0.13,0.25 -0.34,0.37 -0.62,0.37 -0.28,-0.00 -0.52,-0.12 -0.72,-0.38 -0.20,-0.26 -0.34,-0.63 -0.41,-1.10 -0.07,-0.47 -0.05,-0.84 0.08,-1.09 0.13,-0.25 0.37,-0.37 0.69,-0.37 0,0 0,0 0,0 m -4.59,-0.00 c 0,0 0.59,0.00 0.59,0.00 0.20,0.00 0.36,0.06 0.50,0.17 0.14,0.11 0.24,0.26 0.29,0.46 0.05,0.20 0.03,0.37 -0.04,0.48 -0.07,0.10 -0.19,0.16 -0.39,0.16 0,0 -0.56,-0.00 -0.56,-0.00 0,0 -0.39,-1.28 -0.39,-1.28 0,0 0,0 0,0" id="path4307" style="font-size:8px;font-style:normal;font-variant:normal;font-weight:bold;font-stretch:normal;line-height:125%;letter-spacing:0px;word-spacing:0px;fill:#bfbfbf;font-family:DejaVu Sans;-inkscape-font-specification:DejaVu Sans Bold" />
<path d="M 17.5,4.53 C 15.36,5.53 13.73,6.94 12.71,8.56 L 16.5,40.46 c 0.86,0.99 2.05,1.86 3.68,2.5 L 17.5,4.53 z" id="path4188" style="fill-opacity:0.18" />
<path d="m 19.46,3.78 c -6.54,2.00 -9.50,7.54 -7.18,12.03 0.17,1.41 1.69,14.05 2.31,18.56 -0.29,3.14 1.11,7.61 7.37,9.12 l 0,-25.87 -2.5,-13.84 z" id="path4186" style="color:#000000;fill-opacity:0.18;stroke-width:1px" />
<path d="m 24.31,3 c -9.83,0.23 -14.85,7.33 -12.03,12.81 0.00,0.02 0.02,0.25 0.03,0.28 2.57,3.99 8.04,6.12 13.75,5.46 7.14,-0.81 10.44,-3.32 12.03,-7.5 C 39.66,7.41 32.46,2.80 24.31,3 z" id="path3992" style="fill:#b1ccc7" />
<path d="m 24.31,3 c -9.83,0.23 -14.85,7.33 -12.03,12.81 0.00,0.02 0.02,0.25 0.03,0.28 0.29,0.46 0.62,0.90 1,1.31 0.00,0.00 0.02,-0.00 0.03,0 0.46,0.04 0.92,0.06 1.40,0.06 7.86,0 14.25,-5.52 14.25,-12.31 0,-0.59 -0.09,-1.17 -0.18,-1.75 C 27.38,3.11 25.86,2.96 24.31,3 z" id="path4152" style="color:#000000;fill:#282e40;fill-opacity:0.09;stroke-width:0.60" />
<path d="m 19.97,16.44 c 2.12,1.14 5.83,1.85 9.45,0.17" id="path4062" style="fill:none;stroke:#ffffff;stroke-width:2.79;stroke-linecap:round;stroke-opacity:0.21" />
<path d="m 21.03,17.15 c 1.67,0.61 4.50,1.14 6.27,0.35" id="path4082" style="fill:none;stroke:#ffffff;stroke-width:2.09;stroke-linecap:round;stroke-opacity:0.33" />
<path d="m 24.84,12.90 c -5.22,0 -9.52,2.54 -10.09,5.81 2.89,2.25 7.03,3.33 11.31,2.84 4.04,-0.46 6.84,-1.45 8.81,-3 -0.67,-3.19 -4.88,-5.65 -10.03,-5.65 z" id="path4084" style="color:#000000;fill:#ffffff;fill-opacity:0.14;stroke-width:2.09" />
<path d="m 24.31,3 c -9.83,0.23 -14.85,7.33 -12.03,12.81 0.00,0.02 0.02,0.25 0.03,0.28 2.57,3.99 8.04,6.12 13.75,5.46 7.14,-0.81 10.44,-3.32 12.03,-7.5 C 39.66,7.41 32.46,2.80 24.31,3 z M 20.5,6.43 c 0.15,-0.00 0.29,0.01 0.43,0.03 2.29,0.26 6.72,-0.09 9.90,0.43 3.18,0.53 4.50,0.96 5.56,3.53 1.06,2.56 0.80,8.05 -7.5,9.90 2.82,-0.97 4.60,-1.87 5.75,-3.90 -3.88,2.56 -5.83,3.80 -8.75,3.71 C 15.29,19.71 13.79,15.28 13.96,12.18 14.13,9.28 18.11,6.55 20.5,6.43 z" id="path4029" style="fill:#ffffff;fill-opacity:0.74" />
<path d="m 12.31,15.80 c 0.00,0.05 -0.00,0.11 0,0.12 2.57,3.99 8.04,6.12 13.75,5.46 6.74,-0.77 10.06,-3.05 11.75,-6.81" id="path4000" style="fill:none;stroke:#414141;stroke-width:0.60;stroke-linecap:round" />
<path d="m 14.58,18.38 c 1.76,1.41 3.97,2.47 7.07,2.91" id="path4005" style="fill:none;stroke:#000000;stroke-width:0.80;stroke-linecap:round;stroke-opacity:0.30" />
<path d="m 16.88,19.89 c 2.03,0.97 4.86,1.76 8.22,1.50" id="path4007" style="fill:none;stroke:#000000;stroke-width:0.5;stroke-linecap:round;stroke-opacity:0.45" />
<path d="m 14.76,14.41 c -0.44,-2.91 1.76,-6.36 4.41,-7.07 2.65,-0.70 4.41,0.79 6.27,0.88 1.85,0.08 3.96,-0.88 5.83,-0.35 1.23,0.35 2.47,0.61 3.44,3.35" id="path4032" style="fill:none;stroke:#ffffff;stroke-width:1px;stroke-opacity:0.80" />
<path d="m 17.41,14.41 c -0.44,-1.67 0.44,-6.01 4.50,-5.30 4.06,0.70 5.56,0.53 7.51,0.35 1.94,-0.17 3.09,1.59 3.09,2.74" id="path4034" style="fill:none;stroke:#ffffff;stroke-width:1px;stroke-opacity:0.80" />
<path d="m 19.88,13.97 c -0.61,-1.50 0.88,-4.06 2.91,-3.71 2.03,0.35 3.09,0.44 4.86,0.35 1.76,-0.08 2.20,0.70 2.29,1.59" id="path4036" style="fill:none;stroke:#ffffff;stroke-width:1px;stroke-opacity:0.80" />
<path d="m 14.79,14.19 c 0.97,2.53 3.76,4.99 7.72,5.58 4.72,0.69 7.85,-0.77 10.38,-2.66 2.53,-1.88 2.46,-4.67 1.94,-6.16" id="path4095" style="fill:none;stroke:#414d54;stroke-width:0.60;stroke-linecap:round;stroke-opacity:0.50" />
<path d="m 17.26,14.19 c 1.10,1.88 3.36,4.49 8.11,4.02 5.25,-0.51 7.91,-3.17 6.74,-6.68" id="path4097" style="fill:none;stroke:#414d54;stroke-width:0.60;stroke-linecap:round;stroke-opacity:0.50" />
<path d="m 19.85,13.86 c 1.03,2.01 3.17,2.92 6.35,2.46 3.17,-0.45 4.34,-2.46 3.69,-4.21" id="path4099" style="fill:none;stroke:#414d54;stroke-width:0.60;stroke-linecap:round;stroke-opacity:0.50" />
<path d="m 27.69,15.90 c 1.10,-0.19 1.74,-1.10 2.07,-1.55" id="path4125" style="fill:none;stroke:#000000;stroke-width:0.60;stroke-opacity:0.54" />
<path d="m 30.41,16.55 c 1.29,-0.84 1.87,-2.20 2.00,-3.10" id="path4131" style="color:#000000;fill:none;stroke:#000000;stroke-width:0.60;stroke-opacity:0.54" />
<path d="m 32.41,17.39 c 2.00,-1.48 2.65,-2.71 2.71,-4.72" id="path4133" style="color:#000000;fill:none;stroke:#000000;stroke-width:0.60;stroke-opacity:0.54" />
<path d="m 36.59,34.46 c -0.35,3.20 -3.19,8.62 -10.78,8.34 -8.25,-0.30 -10.91,-4.52 -11.25,-8.06 -0.18,3.70 2.01,8.93 11.25,9.28 8.68,0.32 11.13,-6.80 10.78,-9.56 z" id="path4175" style="fill:#fafefb" />
</g>
<g id="layer3">
<path d="m 24.30,3.01 c 8.50,-0.20 15.97,4.81 13.52,11.93 -0.26,3.18 -1.32,18.03 -1.41,18.82 0.97,1.94 -1.06,10.60 -10.60,10.25 C 16.26,43.66 14.23,38.10 14.58,34.38 13.96,29.88 12.46,17.24 12.28,15.82 9.45,10.34 14.46,3.25 24.30,3.01 z" id="stroke01" style="fill:none;stroke:#1a2d2f;stroke-width:0.5;" />
<path d="m 26.21,4.40 c -0.61,-0.00 -1.28,0.20 -1.81,0.71 -2.17,3.02 -3.45,4.67 -2.81,6.21 0.70,1.70 6.48,3.16 7.40,-0.75 0.18,-0.80 -0.42,-3.74 -0.65,-4.87 -0.14,-0.70 -1.09,-1.29 -2.12,-1.31 z m -1,3.90 c 1.49,-0.04 2.72,0.71 2.75,1.68 0.02,0.97 -1.16,1.79 -2.65,1.84 -1.49,0.04 -2.72,-0.71 -2.75,-1.68 -0.02,-0.97 1.16,-1.79 2.65,-1.84 z" id="path4157" style="fill:#cbdfe9" />
<path d="M 24.71,7.59 C 22.56,7.72 22.06,9.87 22.06,9.87 l -0.5,-0.15 c -0.17,0.58 -0.18,1.11 0.03,1.62 0.70,1.70 6.48,3.16 7.40,-0.75 0.02,-0.12 0.03,-0.32 0.03,-0.53 -0.25,0.04 -0.48,0.05 -0.59,0.09 -0.04,-0.18 0.33,-1.88 -2.68,-2.5 -0.37,-0.07 -0.72,-0.08 -1.03,-0.06 z m 0.5,0.71 c 1.49,-0.04 2.72,0.71 2.75,1.68 0.02,0.97 -1.16,1.79 -2.65,1.84 -1.49,0.04 -2.72,-0.71 -2.75,-1.68 -0.02,-0.97 1.16,-1.79 2.65,-1.84 z" id="path4163" style="fill:#ffffff;fill-opacity:0.60" />
<path d="m 26.12,5.09 c -0.99,0.03 -1.79,0.57 -1.78,1.21 0.01,0.64 0.84,1.15 1.84,1.12 0.99,-0.03 1.79,-0.57 1.78,-1.21 -0.01,-0.64 -0.84,-1.15 -1.84,-1.12 z" id="path4161" style="color:#000000;fill:#ffffff;fill-opacity:0.53;stroke:#525b5f;stroke-width:0.34" />
<path d="m 26.21,4.40 c -0.61,-0.00 -1.28,0.20 -1.81,0.71 -2.17,3.02 -3.45,4.67 -2.81,6.21 0.70,1.70 6.48,3.16 7.40,-0.75 0.18,-0.80 -0.42,-3.74 -0.65,-4.87 -0.14,-0.70 -1.09,-1.29 -2.12,-1.31 z m -1,3.90 c 1.49,-0.04 2.72,0.71 2.75,1.68 0.02,0.97 -1.16,1.79 -2.65,1.84 -1.49,0.04 -2.72,-0.71 -2.75,-1.68 -0.02,-0.97 1.16,-1.79 2.65,-1.84 z" id="path4169" style="fill:none;stroke:#7b888d;stroke-width:0.40" />
</g>
</svg>
