<?xml version="1.0" encoding="UTF-8" standalone="no"?>
<!DOCTYPE svg PUBLIC "-//W3C//DTD SVG 1.0//EN" "http://www.w3.org/TR/2001/REC-SVG-20010904/DTD/svg10.dtd">
<svg xmlns:svg="http://www.w3.org/2000/svg" xmlns="http://www.w3.org/2000/svg" version="1.0" width="100%" height="100%" viewBox="0 0 48 48" id="_cheese01">
<defs/>
<g id="layer2">
<path d="m 16.69,33.84 c -1.36,0.99 -6.26,0 -7.89,-0.90 C 7.16,32.03 3.44,28.85 3.26,27.67 3.08,26.49 3.81,25.95 2.99,23.86 2.17,21.77 1.63,17.78 2.90,16.78 4.17,15.78 4.26,14.88 5.62,14.24 6.98,13.61 8.62,13.88 8.98,13.70 9.34,13.51 10.52,12.61 11.06,12.61 c 0.54,0 2.26,0.18 2.63,0 0.36,-0.18 1.17,-1.27 2.35,-1.27 1.17,0 2.54,0.81 2.81,0.63 0.27,-0.18 1.54,-1.17 2.90,-0.90 1.36,0.27 2.72,0.81 2.99,1.17 0.54,-0.09 3.35,-0.45 6.07,0.54 2.72,0.99 7.16,3.17 7.44,5.62 0.27,2.44 -0.27,6.17 -0.27,6.17 0,0 -11.43,0.72 -15.33,1.81 -0.81,-0.09 -2.35,-0.09 -2.72,-0.18 -0.45,0.90 -1.90,3.62 -1.99,4.35 -0.09,0.72 -0.36,2.44 -1.27,3.26 z" id="path3140" style="fill:#e4ddd5" />
<path d="m 23.90,11.71 c -1.10,0.10 -2.46,0.30 -3.46,0.65 -1.79,0.28 -2.06,0.60 -1.21,1.21 0.84,0.61 1.79,1.60 2.21,1.65 0.42,0.04 4.08,-0.05 4.84,-0.71 0.75,-0.66 4.97,1.71 4.40,2 -0.56,0.28 3.32,1.93 3.09,2.59 -0.03,0.10 -0.02,0.23 0.03,0.37 1.28,-0.08 2.79,0.02 3.06,0.59 0.08,0.17 -0.00,0.37 -0.15,0.56 0.51,-0.24 1.07,-0.52 1.62,-0.81 -0.00,-0.49 -0.01,-0.99 -0.06,-1.43 -0.00,-0.01 0.00,-0.02 0,-0.03 -2.22,-0.10 -4.85,-0.48 -5.09,-1.34 -0.23,-0.84 -0.49,-2.59 0.53,-2.96 -1.00,-0.51 -2.02,-0.97 -2.87,-1.28 -2.72,-0.99 -5.51,-0.62 -6.06,-0.53 -0.11,-0.15 -0.45,-0.34 -0.87,-0.53 z" id="path4133" style="fill:#ffffff;fill-opacity:0.45" />
<path d="M 8.93,13.68 C 8.54,13.85 6.96,13.62 5.62,14.25 4.26,14.88 4.17,15.78 2.90,16.78 1.63,17.77 2.18,21.78 3,23.87 c 0.38,0.98 0.41,1.62 0.37,2.15 2.95,0.18 12.35,0.62 12.96,-1.53 0.72,-2.54 -6.18,-4.72 -5.28,-4.81 0.90,-0.09 3.00,0.09 4,0.09 0.99,0 -0.55,-0.99 -1.37,-1.81 C 12.87,17.15 11.26,17.34 10.62,17.25 10.21,17.19 9.53,15.42 8.93,13.68 z" id="path3148" style="fill:#b3a66e;fill-opacity:0.40" />
<path d="m 38.25,18.28 c -1.16,1.50 -3.34,2.18 -4.5,1.78 -1.54,-0.54 -4.98,-0.54 -6.43,-0.09 -1.45,0.45 -1.62,-0.47 -2.62,-0.65 -0.99,-0.18 -2.27,0.56 -2.90,0.56 -0.63,0 -1.01,-0.74 -2.46,-0.56 l -0.15,8.46 c 0.30,-0.59 0.65,-1.24 0.81,-1.56 0.36,0.09 1.90,0.09 2.71,0.18 3.90,-1.08 15.34,-1.81 15.34,-1.81 0,0 0.52,-3.73 0.25,-6.18 -0.00,-0.04 -0.02,-0.08 -0.03,-0.12 z" id="path3144" style="fill:#e2e3aa" />
<path d="m 38.25,18.28 c -1.16,1.50 -3.34,2.18 -4.5,1.78 -1.09,-0.38 -3.13,-0.47 -4.75,-0.34 2.09,0.81 5.05,1.23 5.87,1.46 0.76,0.21 1.31,1.75 0.93,3.56 1.30,-0.09 2.21,-0.15 2.21,-0.15 0,0 0.52,-3.73 0.25,-6.18 -0.00,-0.04 -0.02,-0.08 -0.03,-0.12 z" id="path4156" style="color:#000000;fill:#684710;fill-opacity:0.11;stroke-width:1px" />
<path d="m 19.81,19.28 c -0.15,-0.00 -0.31,0.00 -0.5,0.03 l -0.15,8.46 c 0.30,-0.59 0.65,-1.24 0.81,-1.56 0.35,0.08 1.82,0.10 2.65,0.18 -0.27,-0.33 -0.46,-0.74 -0.40,-1.21 0.14,-1.26 -0.97,-2.96 -1.65,-3.15 -0.50,-0.14 -0.63,-1.63 -0.59,-2.75 -0.05,-0.00 -0.09,0.00 -0.15,0 z" id="path4152" style="color:#000000;fill:#683810;fill-opacity:0.61;stroke-width:1px" />
<path d="m 22.46,21.68 c -0.89,-0.01 -1.93,0.03 -2.93,0.03 l -0.25,5.84 c 0.26,-0.51 0.55,-1.07 0.68,-1.34 0.36,0.09 1.90,0.09 2.71,0.18 2.64,-0.73 8.58,-1.30 12.25,-1.59 -0.46,-1.47 -1.51,-1.67 -2.25,-2.15 -0.83,-0.53 -6.06,-0.96 -6.40,-0.96 -0.34,0 -1.07,0.83 -1.81,0.34 -0.36,-0.24 -1.10,-0.33 -2,-0.34 z" id="path4154" style="fill:#684710;fill-opacity:0.11" />
<path d="m 19.42,16.59 c -1.14,0.32 -0.96,0.82 -0.45,1.14 0.50,0.32 0.59,1.09 0.59,1.09" id="path4145" style="fill:none;stroke:#886140;stroke-width:0.5;stroke-opacity:0.12" />
<path d="M 6.68,13.90 C 6.33,13.97 5.96,14.09 5.62,14.25 4.26,14.88 4.17,15.78 2.90,16.78 1.63,17.77 2.18,21.78 3,23.87 c 0.24,0.62 0.34,1.09 0.37,1.5 l 7.96,-1.59 C 9.98,21.51 7.08,19.51 8.62,18.87 c 1.54,-0.63 7.70,-2.35 9.06,-1.90 1.36,0.45 3.01,-1.07 4.37,-0.62 1.25,0.41 3.72,2.36 3.75,3.59 0.32,-0.72 1.12,-1.88 2.59,-1.78 2.44,0.18 -3.90,-3.81 -6.62,-2.90 -2.72,0.90 -5.89,1.36 -7.34,0 -1.17,-1.10 -6.13,0.10 -7.65,-1.34 -0.03,0.00 -0.06,-0.00 -0.09,0 z m 19.12,6.03 c -0.21,0.48 -0.21,0.78 -0.03,0.31 0.03,-0.09 0.03,-0.20 0.03,-0.31 z" id="path3150" style="fill:#9f9982;fill-opacity:0.18" />
<path d="M 2.62,17.09 C 1.72,18.43 2.25,21.96 3,23.87 c 0.81,2.08 0.09,2.63 0.28,3.81 0.18,1.17 3.89,4.34 5.53,5.25 1.63,0.90 6.51,1.90 7.87,0.90 0.45,-0.40 0.74,-1.03 0.93,-1.65 -0.73,-2.77 -1.59,-5.87 -2.18,-7.06 -1.08,-2.17 -2.82,-2.51 -4,-2.15 C 10.25,23.33 9.45,22.12 8,22.21 6.54,22.30 5.82,22.05 4.18,20.87 3.04,20.04 2.45,18.84 2.62,17.09 z" id="path3146" style="fill:#edeee2" />
<path d="m 2.62,17.09 c -0.85,1.27 -0.43,4.50 0.25,6.46 0.56,0.73 1.28,1.25 2.15,1.59 2.45,0.96 5.86,3.74 6.71,4.06 0.80,0.30 4.32,1.99 5.37,1.15 -0.60,-2.19 -1.22,-4.31 -1.68,-5.25 -0.06,-0.13 -0.14,-0.22 -0.21,-0.34 -1.86,1.05 -6.65,2.27 -9.06,-2.75 C 5.58,21.83 5.00,21.46 4.18,20.87 3.04,20.04 2.45,18.84 2.62,17.09 z" id="path3953" style="color:#000000;fill:#9f9982;fill-opacity:0.18;stroke-width:1px" />
<path d="m 2.87,19.28 c -0.25,0.04 -0.50,0.13 -0.71,0.28 0.02,0.98 0.19,2.05 0.43,3 0.20,0.09 0.37,0.20 0.5,0.40 0.88,1.08 1.94,2.25 3.43,2.37 1.01,0.12 1.58,1.09 1.90,1.96 0.30,0.80 0.71,1.71 1.68,1.68 0.84,0.27 1.53,0.92 2.43,1.03 0.36,-1.19 1.95,-1.78 3,-1.06 0.86,0.58 -0.71,0.97 -1.21,0.75 -0.30,-0.06 -1.35,-0.23 -0.68,0.28 0.64,0.24 1.00,1.09 0.03,1.03 -0.53,0.06 -1.13,-0.24 -1.31,-0.68 -0.36,0.53 -0.44,1.52 0.18,1.90 0.56,0.36 1.23,0.33 1.81,-0.03 0.29,-0.17 0.53,-0.28 0.15,0 -0.38,0.66 -1.14,0.76 -1.84,0.65 -0.56,-0.20 -1.55,0.63 -1.06,0.96 0.89,0.04 1.86,-0.52 2.68,0.03 0.78,0.29 1.58,-0.82 1.65,-1.59 0.17,-0.74 -0.38,-1.47 -0.71,-1.96 0.40,-0.47 1.37,-0.83 1.12,-1.59 -0.42,-0.66 -1.27,-0.62 -1.96,-0.68 -0.54,-0.31 0.74,-0.64 0.43,-1.21 -0.13,-0.85 -1.17,-0.97 -1.65,-1.25 -0.57,0.22 -1.18,0.91 -1.84,0.53 -0.69,-0.28 -1.09,-0.95 -1.06,-1.71 -0.03,-0.38 -0.01,-1.28 -0.37,-1.28 C 9.64,23.68 9.43,24.40 8.84,24.75 8.06,24.90 7.65,23.94 8,23.34 8.00,22.81 7.66,22.41 7.21,22.21 6.92,22.20 6.64,22.16 6.37,22.09 c -0.01,-0.00 -0.04,0.00 -0.06,0 C 6.05,22.14 5.80,22.27 5.62,22.5 5.32,23.40 7.10,23.27 7.06,24.18 6.93,24.81 7.99,24.90 8.21,25.46 7.41,25.24 6.60,24.84 5.81,24.53 5.08,24.25 4.02,23.45 4.68,22.59 5.01,22.36 5.44,22.14 5.71,21.81 5.27,21.59 4.79,21.31 4.18,20.87 3.59,20.44 3.14,19.93 2.87,19.28 z m 3.65,3.37 c 0.35,0.07 1.19,0.56 0.37,0.25 -0.13,-0.06 -0.27,-0.13 -0.37,-0.25 z m 3,2.84 c 0.62,0.18 -0.52,0.20 -0.12,0.03 L 9.53,25.5 z m 3.25,0.43 c 0.05,0.40 -0.48,0.07 0,0 z M 10.25,26.15 c 0.51,0.49 1.34,0.37 1.90,0.75 -0.39,0.34 -1.14,-0.27 -1.68,-0.34 C 10.29,26.50 9.82,26.27 10.25,26.15 z m 3.75,0.56 c 0.40,0.14 -0.13,0.38 0,0 z M 9.96,26.75 l 0.09,0 0.09,0 c 0.73,-0.11 1.53,0.62 1.03,1.34 -0.37,0.75 -1.48,0.87 -2,0.21 C 8.51,27.69 9.12,26.67 9.96,26.75 z m 1.75,0.90 c 0.40,0.01 -0.22,0.36 0,0 z m 1.5,0.56 c 0.56,0.74 -0.91,0.54 0,0 z m -1.37,0.81 c 0.56,-0.14 0.42,0.87 0.09,0.31 -0.04,-0.10 -0.07,-0.20 -0.09,-0.31 z m 3.25,1.93 c 0.09,-0.03 -0.03,0.11 0,0 z m -2.31,0.12 c 0.34,-0.02 0.53,0.58 0.06,0.28 -0.08,-0.06 -0.15,-0.13 -0.21,-0.21 0.05,-0.03 0.10,-0.05 0.15,-0.06 z m 2.40,1.5 c -0.03,0.73 -0.82,0.20 0,0 z M 14.37,33.43 c 0.21,-0.03 -1.2e-4,0.21 0,0 z" id="path4000" style="font-size:medium;font-style:normal;font-variant:normal;font-weight:normal;font-stretch:normal;text-indent:0;text-align:start;text-decoration:none;line-height:normal;letter-spacing:normal;word-spacing:normal;text-transform:none;direction:ltr;block-progression:tb;writing-mode:lr-tb;text-anchor:start;baseline-shift:baseline;color:#000000;fill:#bcb27d;fill-opacity:0.29;stroke-width:0.60;font-family:Sans;-inkscape-font-specification:Sans" />
<path d="m 3.40,16.34 c -0.14,0.14 -0.31,0.29 -0.5,0.43 -0.38,0.29 -0.59,0.88 -0.68,1.59 0.00,0.01 -0.00,0.02 0,0.03 C 3.02,22.18 7.22,22.17 7.5,22 c 0.67,0.51 1.60,1 2.21,1 0.96,0 3.61,-0.71 3.93,0.56 0.32,1.28 0.75,2.42 1.5,1.46 0.74,-0.96 1.49,-1.92 0.53,-2.56 -0.96,-0.64 -10.99,-3.41 -8.96,-1.28 0.06,0.20 0.34,0.46 0.65,0.71 -0.79,-0.20 -2.56,-0.42 -2.56,-1.25 0,-0.62 -0.17,-2.58 -1.40,-4.31 z" id="path4052" style="color:#000000;fill:#897d4f;fill-opacity:0.28;stroke-width:1px" />
<path d="m 12.06,22.05 c 1.06,0 3.31,0.74 3.63,1.17" id="path4084" style="fill:none;stroke:#f4f1e8;stroke-width:0.5;stroke-opacity:0.58" />
<path d="m 19.34,18.65 c -0.17,0.03 -0.39,0.21 -0.56,0.59 -0.45,0.99 -0.64,2.53 -1.28,2.71 -0.63,0.18 -0.70,1.52 -1.34,1.34 -0.63,-0.18 -0.45,1.82 -2,0.28 -0.18,0.90 0.82,3.90 1.09,4.71 0.23,0.71 1.66,3.16 1.46,5.46 0.86,-0.83 1.16,-2.47 1.25,-3.18 0.09,-0.72 1.54,-3.46 2,-4.37 0.00,0.00 0.05,-0.00 0.06,0 C 19.96,25.87 19.99,25.57 20.25,25.5 c 0.63,-0.18 0.53,0.08 -0.28,-1.18 0.63,0.18 0.72,-0.61 0.81,-1.34 0.09,-0.72 -1.36,-3.02 -1.09,-3.65 0.17,-0.39 -0.04,-0.71 -0.34,-0.65 z" id="path3142" style="fill:#b6a755" />
<path d="m 19.34,18.65 c -0.17,0.03 -0.39,0.21 -0.56,0.59 -0.45,0.99 -0.64,2.53 -1.28,2.71 -0.63,0.18 -0.70,1.52 -1.34,1.34 -0.63,-0.18 -0.45,1.82 -2,0.28 -0.18,0.90 0.82,3.90 1.09,4.71 0.20,0.62 1.31,2.55 1.46,4.56 0.32,-0.64 0.57,-1.33 0.68,-2.06 0.53,-3.52 -0.52,-4.59 0.21,-6.62 0.65,-1.78 1.64,-3.57 1.87,-5.5 -0.04,-0.01 -0.10,-0.04 -0.15,-0.03 z" id="path4088" style="fill:#6c623e;fill-opacity:0.28" />
<path d="m 20.75,22.71 c -1.66,1.15 -2.95,1.87 -3.34,3.81 -0.25,1.25 -0.62,3.44 -0.84,5.40 0.12,0.60 0.20,1.22 0.15,1.84 0.86,-0.83 1.16,-2.47 1.25,-3.18 0.09,-0.72 1.54,-3.46 2,-4.37 0.00,0.00 0.05,-0.00 0.06,0 C 19.96,25.87 19.99,25.57 20.25,25.5 c 0.63,-0.18 0.53,0.08 -0.28,-1.18 0.63,0.18 0.72,-0.61 0.81,-1.34 0.00,-0.06 -0.01,-0.16 -0.03,-0.25 z" id="path4090" style="fill:#6c623e;fill-opacity:0.28" />
<path d="m 20.60,22.69 c -1.38,0.64 -2.13,1.60 -2.56,2.45" id="path4094" style="fill:none;stroke:#fcf6e2;stroke-width:0.60;stroke-linecap:round;stroke-opacity:0.27" />
<path d="M 19.68,19.71 C 18.63,21.26 17.5,22.99 17.5,23.75 c 0,0.70 1.92,-0.77 3.18,-1.31 -0.23,-0.79 -0.88,-2.00 -1,-2.71 z" id="path4092" style="fill:#c7bf9f;fill-opacity:0.28" />
<path d="m 16.87,25.15 c -0.53,1.49 -0.42,3.09 0.74,2.88" id="path4105" style="fill:none;stroke:#93874a;stroke-width:2.29;stroke-linecap:round;stroke-opacity:0.69" />
<path d="m 15.58,26.11 c 1.49,0 2.24,-1.81 2.98,-2.98" id="path4107" style="fill:none;stroke:#e9ef15;stroke-width:2.29;stroke-opacity:0.08" />
<path d="m 13.98,20.13 c 1.60,-0.10 3.95,0 4.37,0.10" id="path4109" style="fill:none;stroke:#ffffff;stroke-width:1px;stroke-opacity:0.59" />
<path d="m 30.84,18.65 c -1.42,0 -2.59,0.02 -3.43,0.09 -0.38,0.21 -1.05,0.37 -1.84,0.37 -0.09,0 -0.16,-0.02 -0.25,-0.03 -0.00,0.34 0.41,0.62 0.93,0.62 0.39,0.00 0.72,-0.14 0.87,-0.37 0.03,0.22 0.34,0.37 0.68,0.31 0.32,-0.05 0.57,-0.25 0.56,-0.46 0.07,0.00 0.14,-0.00 0.21,0 0,0.23 0.27,0.40 0.62,0.40 0.33,0 0.59,-0.15 0.62,-0.37 0.05,7.76e-4 0.10,0.03 0.15,0.03 0.08,0.16 0.31,0.28 0.59,0.28 0.27,0 0.47,-0.11 0.56,-0.28 0.02,-10e-5 0.04,1.2e-4 0.06,0 0.05,0.19 0.31,0.34 0.62,0.34 0.33,0 0.60,-0.15 0.62,-0.37 0.04,-0.00 0.10,0.00 0.15,0 0.02,0.21 0.29,0.37 0.62,0.37 0.34,0 0.62,-0.17 0.62,-0.40 0,-0.00 9.16e-4,-0.02 0,-0.03 0.97,-0.05 1.62,-0.12 1.62,-0.21 0,-0.16 -2.08,-0.28 -4.65,-0.28 z" id="path4115" style="color:#000000;fill:#ffffff;fill-opacity:0.67;stroke-width:2.29" />
<path d="m 15.63,14.53 c 1.09,-0.50 2.74,-0.45 3.20,-0.45" id="path4141" style="fill:none;stroke:#896d5b;stroke-width:0.60;stroke-opacity:0.16" />
<path d="m 21.66,13.48 c 1.37,-0.22 2.14,0.04 2.46,-0.04 0.32,-0.09 0.96,-0.45 1.28,-0.36" id="path4143" style="fill:none;stroke:#896d5b;stroke-width:0.60;stroke-opacity:0.16" />
<path d="m 11.06,12.62 c -0.54,0 -1.73,0.88 -2.09,1.06 C 8.60,13.86 6.98,13.61 5.62,14.25 c -1.12,0.52 -1.37,1.23 -2.15,2.03 1.07,1.22 2.31,2.42 3.06,2.5 0.97,0.09 5.77,1.00 7.53,0.90 1.05,-0.05 0.07,-3.83 -0.43,-7.06 -0.43,0.15 -2.03,0 -2.56,0 z" id="path4147" style="fill:#ffffff;fill-opacity:0.17" />
<path d="m 22.46,24.01 c 0.19,0.04 0.97,0.34 1.36,0.19" id="path4158" style="fill:none;stroke:#ffffff;stroke-width:0.5;stroke-opacity:0.68" />
<path d="m 20.23,18.78 c 0.62,0 1.58,0.27 2.00,0.13" id="path4203" style="fill:none;stroke:#ffffff;stroke-width:0.60;stroke-opacity:0.81" />
<path d="m 21.27,20.02 c 0.55,0.41 1.79,-0.48 2.76,-0.41" id="path4205" style="fill:none;stroke:#673b15;stroke-width:0.69;stroke-opacity:0.11" />
<path d="m 21.06,22.09 c 1.31,-0.34 2.76,-0.06 3.31,0.20" id="path4207" style="color:#000000;fill:none;stroke:#673b15;stroke-width:0.89;stroke-opacity:0.07" />
<path d="m 25.55,22.09 c 0.62,-0.41 1.51,0.20 2.34,0.13 0.82,-0.06 1.51,-0.20 2.00,-0.13" id="path4209" style="color:#000000;fill:none;stroke:#673b15;stroke-width:0.69;stroke-opacity:0.03" />
</g>
<g id="layer3" />
<g id="layer4">
<path d="m 16.69,33.84 c -1.36,0.99 -6.26,0 -7.89,-0.90 C 7.16,32.03 3.44,28.85 3.26,27.67 3.08,26.49 3.81,25.95 2.99,23.86 2.17,21.77 1.63,17.78 2.90,16.78 4.17,15.78 4.26,14.88 5.62,14.24 6.98,13.61 8.62,13.88 8.98,13.70 9.34,13.51 10.52,12.61 11.06,12.61 c 0.54,0 2.26,0.18 2.63,0 0.36,-0.18 1.17,-1.27 2.35,-1.27 1.17,0 2.54,0.81 2.81,0.63 0.27,-0.18 1.54,-1.17 2.90,-0.90 1.36,0.27 2.72,0.81 2.99,1.17 0.54,-0.09 3.35,-0.45 6.07,0.54 2.72,0.99 7.16,3.17 7.44,5.62 0.27,2.44 -0.27,6.17 -0.27,6.17 0,0 -11.43,0.72 -15.33,1.81 -0.81,-0.09 -2.35,-0.09 -2.72,-0.18 -0.45,0.90 -1.90,3.62 -1.99,4.35 -0.09,0.72 -0.36,2.44 -1.27,3.26 z" id="stroke01" style="fill:none;stroke:#734f3e;stroke-width:0.5;stroke-opacity:1" />
<path d="m 24.69,23.46 c -0.95,0.63 -0.47,1.27 0,1.75 -0.23,1.27 -1.19,2.46 -1.43,2.94 -0.23,0.47 0.79,2.78 1.83,3.58 1.03,0.79 5.97,2.62 6.85,2.54 0.87,-0.07 2.62,-0.31 3.42,-0.15 2.62,3.02 5.25,2.86 6.53,2.30 0.87,0 2.62,-0.15 2.78,-0.71 0.15,-0.55 0,-2.78 -0.39,-3.66 0.07,-1.03 -0.63,-1.99 -0.79,-2.54 0.07,-1.67 -0.87,-3.82 -0.55,-4.69 0.31,-0.87 0.55,-1.75 -0.07,-3.02 -0.63,-1.27 -0.55,-2.38 -1.19,-2.46 -0.63,-0.07 -0.47,1.99 -1.67,2.07 -1.19,0.07 -2.38,0.63 -3.34,1.91 -1.99,0 -3.10,1.11 -4.77,1.11 -1.67,0 -3.34,0.07 -4.06,-0.31 -0.71,-0.39 -2.70,-0.71 -3.10,-0.63 z" id="path4248" style="color:#000000;fill:#ccc3a1;stroke-width:0.5" />
<path d="m 40.25,21.31 c -0.08,0.03 -0.14,0.08 -0.25,0.09 -0.81,0.05 -1.63,0.32 -2.37,0.90 -0.44,1.34 -1.27,2.29 -2,2.65 -0.93,0.46 -1.71,1.72 -2.34,4.15 0,0 4.39,-0.15 4,-1.09 -0.39,-0.93 0.85,-3.29 1.87,-4 0.68,-0.47 0.97,-1.68 1.09,-2.71 z" id="path4379" style="fill:#7f5404;fill-opacity:0.24" />
<path d="m 25.14,24.34 c 0.96,0.12 2.45,0.52 2.73,0.72 0.28,0.20 1.45,0.12 2.29,0" id="path4472" style="fill:none;stroke:#fafafa;stroke-width:1.60;stroke-linecap:round;stroke-opacity:0.31" />
<path d="m 38.46,21.78 c -0.43,0.19 -0.82,0.50 -1.21,0.87 0.88,-0.31 1.24,-0.60 1.21,-0.87 z m -13.78,1.68 c -0.95,0.63 -0.47,1.27 0,1.75 -0.23,1.27 -1.19,2.45 -1.43,2.93 -0.11,0.23 0.07,0.95 0.43,1.68 L 27.56,28.25 c -0.90,-1.25 -5.53,-1.89 2.18,-3.84 -0.83,-0.02 -1.53,-0.09 -1.93,-0.31 -0.71,-0.39 -2.72,-0.70 -3.12,-0.62 z" id="path4467" style="fill:#eae8e0;fill-opacity:0.40" />
<path d="M 41.65,19.31 C 41.55,19.29 41.50,19.35 41.43,19.43 41.60,20.53 42.42,22 42.12,22 c -0.42,0 -1.18,0.43 -1.71,0.96 -0.53,0.53 0.12,1.91 0.12,2.34 0,0.42 -2.75,0.18 -2.43,0.71 0.31,0.53 -0.65,1.18 -0.96,2.25 l 0,7.43 c 1.97,1.33 3.79,1.14 4.78,0.71 0.87,0 2.62,-0.16 2.78,-0.71 0.15,-0.55 -0.00,-2.78 -0.40,-3.65 0.07,-1.03 -0.62,-1.97 -0.78,-2.53 0.07,-1.67 -0.88,-3.84 -0.56,-4.71 0.31,-0.87 0.54,-1.75 -0.09,-3.03 -0.63,-1.27 -0.55,-2.38 -1.18,-2.46 z" id="path4252" style="fill:#9a8a68" />
<path d="m 40.5,23.06 a 0.40,0.40 0 0 0 -0.06,0.03 0.40,0.40 0 0 0 -0.12,0.68 c 0.45,0.41 0.86,0.87 1.12,1.28 0.13,0.20 0.21,0.40 0.25,0.53 0.03,0.13 0.04,0.16 0.03,0.18 -0.36,0.63 -0.45,1.36 -0.37,2.12 0.00,0.07 0.00,0.13 -0.03,0.18 -0.03,0.05 -0.12,0.10 -0.21,0.15 -0.18,0.10 -0.37,0.18 -0.37,0.18 a 0.40,0.40 0 1 0 0.18,0.75 c 0,0 0.28,-0.06 0.59,-0.25 0.15,-0.09 0.33,-0.22 0.46,-0.40 0.12,-0.18 0.21,-0.44 0.18,-0.71 0.00,0.01 0.02,0.01 0.03,0.03 0.11,0.28 0.17,0.61 0.28,0.87 a 0.40,0.40 0 1 0 0.75,-0.28 c -0.05,-0.12 -0.13,-0.51 -0.28,-0.87 -0.12,-0.32 -0.32,-0.70 -0.71,-0.87 0.04,-0.17 0.09,-0.34 0.18,-0.5 0.14,-0.25 0.13,-0.55 0.06,-0.81 -0.06,-0.25 -0.18,-0.50 -0.34,-0.75 -0.32,-0.49 -0.79,-0.99 -1.28,-1.43 A 0.40,0.40 0 0 0 40.5,23.06 z M 42.81,29.5 a 0.40,0.40 0 0 0 -0.28,0.56 c 0.02,0.06 0.04,0.01 0.03,0.03 -0.01,0.01 -0.08,0.07 -0.18,0.12 -0.20,0.09 -0.56,0.15 -0.78,0.15 a 0.40,0.40 0 1 0 0,0.78 c 0.33,0 0.74,-0.04 1.12,-0.21 0.18,-0.08 0.36,-0.20 0.5,-0.40 0.13,-0.20 0.15,-0.49 0.06,-0.75 A 0.40,0.40 0 0 0 42.84,29.5 a 0.40,0.40 0 0 0 -0.03,0 z" id="path4383" style="font-size:medium;font-style:normal;font-variant:normal;font-weight:normal;font-stretch:normal;text-indent:0;text-align:start;text-decoration:none;line-height:normal;letter-spacing:normal;word-spacing:normal;text-transform:none;direction:ltr;block-progression:tb;writing-mode:lr-tb;text-anchor:start;baseline-shift:baseline;color:#000000;fill:#e5e5e5;fill-opacity:0.18;stroke-width:0.80;font-family:Sans;-inkscape-font-specification:Sans" />
<path d="m 25.53,25.56 c 3.62,-0.19 8.18,0 8.90,0.39 -0.59,1.31 -0.72,1.97 -0.72,2.57 0,0.59 -9.36,-1.78 -8.18,-2.96 z" id="path4465" style="fill:#eae8e0;fill-opacity:0.23" />
<path d="m 24.62,25.46 c -0.30,1.17 -1.15,2.24 -1.37,2.68 -0.23,0.47 0.80,2.79 1.84,3.59 0.47,0.36 1.75,0.92 3.09,1.43 0.76,-0.06 1.44,-0.17 1.84,-0.34 1.48,-0.63 2.84,0.31 4.75,0.53 0.07,0.10 0.34,0.44 0.56,0.75 0.00,0.00 0.02,-0.00 0.03,0 1.93,2.22 3.85,2.73 5.25,2.62 1.50,-1.61 3.12,-1.36 3.71,-1.46 0.63,-0.10 -0.96,-2.13 -1.81,-2.87 -0.84,-0.74 -1.36,-1.17 -1.68,-2.87 -0.31,-1.69 -1.28,-1.91 -1.81,-1.59 -0.53,0.31 -1.28,-1.14 -1.81,-0.40 -0.53,0.74 -1.57,0.21 -2.53,0.53 -0.95,0.31 -4.46,-0.86 -5.31,-1.5 -0.74,-0.55 -2.48,-0.93 -4.75,-1.09 z" id="path4250" style="fill:#d7d390" />
<path d="m 37.65,27.31 c -0.15,-0.02 -0.30,0.03 -0.43,0.21 -0.53,0.74 -1.57,0.21 -2.53,0.53 -0.04,0.01 -0.10,0.02 -0.15,0.03 -1.13,1.39 -1.88,2.65 -1.62,3.40 0.16,0.46 0.05,0.95 -0.21,1.40 0.64,0.17 1.31,0.38 2.09,0.46 0.07,0.10 0.34,0.44 0.56,0.75 0.00,0.00 0.02,-0.00 0.03,0 1.93,2.22 3.85,2.73 5.25,2.62 1.50,-1.61 3.12,-1.36 3.71,-1.46 0.63,-0.10 -0.96,-2.13 -1.81,-2.87 -0.84,-0.74 -1.36,-1.17 -1.68,-2.87 -0.31,-1.69 -1.28,-1.91 -1.81,-1.59 -0.39,0.23 -0.91,-0.54 -1.37,-0.62 z" id="path4299" style="color:#000000;fill:#684710;fill-opacity:0.11;stroke-width:1px" />
<path d="m 25.71,25.56 c -0.02,0.08 -0.02,0.16 -0.06,0.25 -0.63,1.44 -0.46,4.25 0.62,4.53 1.08,0.27 4.90,-0.36 6.62,0.90 0.51,0.37 1.10,0.96 1.68,1.62 -0.27,-0.61 -0.54,-1.19 -0.71,-1.62 -0.63,-1.54 -5.31,-1.92 -6.31,-2.56 -0.88,-0.56 -1.76,-1.13 -1.25,-3.03 -0.18,-0.02 -0.39,-0.07 -0.59,-0.09 z m 8.87,7.31 c 0.09,0.20 0.18,0.41 0.28,0.62 0.10,0.14 0.28,0.37 0.46,0.62 0.00,0.00 0.02,-0.00 0.03,0 0.30,0.34 0.60,0.63 0.90,0.90 -0.41,-0.64 -1.04,-1.43 -1.68,-2.15 z" id="path4301" style="color:#000000;fill:#684710;fill-opacity:0.11;stroke-width:1px" />
<path d="m 37.65,27.31 c -0.15,-0.02 -0.30,0.03 -0.43,0.21 -0.39,0.54 -1.07,0.39 -1.78,0.40 0.51,0.37 1.19,0.54 1.81,0.59 1.08,0.09 3.53,0.80 2.62,2.53 -0.90,1.72 -1.82,2.26 -1.37,3.62 0.26,0.80 0.61,1.60 1.28,2.03 0.30,0.03 0.57,0.05 0.84,0.03 1.50,-1.61 3.12,-1.36 3.71,-1.46 0.63,-0.10 -0.96,-2.13 -1.81,-2.87 -0.84,-0.74 -1.36,-1.17 -1.68,-2.87 -0.31,-1.69 -1.28,-1.91 -1.81,-1.59 -0.39,0.23 -0.91,-0.54 -1.37,-0.62 z" id="path4303" style="color:#000000;fill:#8a5b04;fill-opacity:0.20;stroke-width:1px" />
<path d="m 38.05,32.68 a 0.54,0.45 0 1 1 -1.08,0 0.54,0.45 0 1 1 1.08,0 z" id="path4305" style="color:#000000;fill:#ffffff;fill-opacity:0.68;stroke-width:0.5" />
<path d="m 38.51,31.59 a 0.36,0.27 0 1 1 -0.72,0 0.36,0.27 0 1 1 0.72,0 z" id="path4307" style="color:#000000;fill:#ffffff;fill-opacity:0.68;stroke-width:0.5" />
<path d="m 40.59,21.09 c -0.15,0.16 -0.33,0.29 -0.59,0.31 -0.21,0.01 -0.44,0.07 -0.65,0.12 0.02,0.04 0.02,0.07 0.06,0.12 -0.49,0.87 -0.47,1.65 -1.25,2.46 0.94,1.68 -2.08,0.72 -2.5,2.18 0.92,0.21 2.09,-0.77 3.12,-1 1.28,-0.84 2.05,-2.64 1.81,-4.21 z" id="path4474" style="fill:#eae8e0;fill-opacity:0.40" />
<path d="m 38.61,27.48 c -0.86,-1.64 -0.23,-2.19 0.86,-1.95 1.09,0.23 1.33,-0.39 0.93,-1.40 -0.39,-1.01 0.23,-1.87 0.86,-1.80 0.62,0.07 1.33,-0.23 1.01,-0.78 -0.31,-0.54 -0.86,-1.09 -0.46,-1.72" id="path4381" style="fill:none;stroke:#9d8064;stroke-width:0.80;stroke-linecap:round;stroke-opacity:0.94" />
<path d="m 25.20,24.24 c 0.19,0.13 0.26,0.46 0.52,0.46" id="path4435" style="fill:none;stroke:#fdfdfd;stroke-width:0.80;stroke-opacity:0.61" />
<path d="m 33.38,24.64 c 0.72,-0.06 1.91,0 2.30,0.19" id="path4437" style="fill:none;stroke:#ffffff;stroke-width:1.20;stroke-opacity:0.52" />
<path d="m 28.76,25.70 c 0.52,-0.06 1.45,0.19 1.84,0.26" id="path4439" style="fill:none;stroke:#ffffff;stroke-width:0.69;stroke-linecap:round;stroke-opacity:0.40" />
<path d="m 35.68,27.17 c 0.73,-0.28 1.63,-0.39 1.80,-0.39" id="path4505" style="fill:none;stroke:#f7f7f7;stroke-width:0.60;stroke-linecap:round;stroke-opacity:0.35" />
<path d="m 35.57,28.24 c 1.01,0.05 1.68,-0.28 2.02,-0.50 0.33,-0.22 0.78,0.61 1.18,0.61 0.39,0 1.06,-0.28 1.23,0.39" id="path4507" style="fill:none;stroke:#8e5d2e;stroke-width:1px;stroke-opacity:0.35" />
<path d="m 24.69,23.46 c -0.95,0.63 -0.47,1.27 0,1.75 -0.23,1.27 -1.19,2.46 -1.43,2.94 -0.23,0.47 0.79,2.78 1.83,3.58 1.03,0.79 5.97,2.62 6.85,2.54 0.87,-0.07 2.62,-0.31 3.42,-0.15 2.62,3.02 5.25,2.86 6.53,2.30 0.87,0 2.62,-0.15 2.78,-0.71 0.15,-0.55 0,-2.78 -0.39,-3.66 0.07,-1.03 -0.63,-1.99 -0.79,-2.54 0.07,-1.67 -0.87,-3.82 -0.55,-4.69 0.31,-0.87 0.55,-1.75 -0.07,-3.02 -0.63,-1.27 -0.55,-2.38 -1.19,-2.46 -0.63,-0.07 -0.47,1.99 -1.67,2.07 -1.19,0.07 -2.38,0.63 -3.34,1.91 -1.99,0 -3.10,1.11 -4.77,1.11 -1.67,0 -3.34,0.07 -4.06,-0.31 -0.71,-0.39 -2.70,-0.71 -3.10,-0.63 z" id="stroke02" style="color:#000000;fill:none;stroke:#734f3e;stroke-width:0.5;stroke-opacity:1" />
</g>
</svg>
