<?xml version="1.0" encoding="UTF-8" standalone="no"?>
<!DOCTYPE svg PUBLIC "-//W3C//DTD SVG 1.0//EN" "http://www.w3.org/TR/2001/REC-SVG-20010904/DTD/svg10.dtd">
<svg xmlns:svg="http://www.w3.org/2000/svg" xmlns="http://www.w3.org/2000/svg" version="1.0" width="100%" height="100%" viewBox="0 0 48 48" id="_jam01">
<defs/>
<g id="layer6">
<path d="m 23.84,2.78 c -5.33,0.01 -11.27,0.64 -11.68,1.06 -0.41,0.41 -0.31,0.92 -0.31,1.34 l 0,3.06 c 0,0.52 0.65,0.84 1.28,0.84 -0.20,0.20 -0.12,0.71 0.18,0.71 0,2.83 -2.07,2.10 -1.96,4.53 0.13,3.04 1.22,2.51 1.12,6.18 -0.10,3.67 0.23,11.10 -0.18,13.31 -0.41,2.20 -1.48,6.81 -0.12,8.28 1.36,1.46 2.42,2.62 4,2.93 2.82,0.29 5.06,0.38 7.78,0.40 2.56,-0.03 5.10,-0.08 7.75,-0.40 1.57,-0.31 2.63,-1.46 4,-2.93 1.36,-1.46 0.32,-6.07 -0.09,-8.28 -0.41,-2.20 -0.11,-9.64 -0.21,-13.31 -0.10,-3.67 1.02,-3.14 1.15,-6.18 0.10,-2.42 -2,-1.69 -2,-4.53 0.31,0 0.42,-0.50 0.21,-0.71 C 35.37,9.09 36,8.77 36,8.25 L 36,5.18 C 36,4.76 36.10,4.26 35.68,3.84 34.85,3.14 29.18,2.76 23.84,2.78 z" id="path5981" style="fill:#621414" />
<path d="M 12.31,7.21 12.37,7.93 c 0.18,0.44 0.33,0.81 0.5,1.12 0.08,0.01 0.16,0.03 0.25,0.03 -0.06,0.06 -0.08,0.15 -0.09,0.25 C 13.55,10.20 14.20,10.5 15.75,10.5 c 2.18,0 15.11,0.89 16.84,0.53 0.73,-0.15 1.40,-0.57 1.93,-1.15 -2.53e-4,-0.02 0,-0.04 0,-0.06 0.04,0 0.05,-0.04 0.09,-0.06 0.05,-0.06 0.13,-0.11 0.18,-0.18 0.00,-0.01 0.02,-0.01 0.03,-0.03 0.00,-0.00 -0.00,-0.02 0,-0.03 0.03,-0.14 0.00,-0.30 -0.09,-0.40 0.13,0 0.27,-0.03 0.40,-0.06 0.28,-0.53 0.43,-1.17 0.43,-1.81 l -23.28,0 z" id="path6499" style="fill:#8f5a15" />
<path d="m 23.84,2.78 c -5.33,0.01 -11.27,0.64 -11.68,1.06 -0.41,0.41 -0.31,0.92 -0.31,1.34 l 0,3.06 c 0,0.50 0.60,0.82 1.21,0.84 L 13.28,8.5 c 0,0 3.55,-0.56 10.65,-0.56 7.10,0 10.84,0.56 10.84,0.56 L 34.81,9.09 C 35.42,9.07 36,8.75 36,8.25 L 36,5.18 C 36,4.76 36.10,4.26 35.68,3.84 34.85,3.14 29.18,2.76 23.84,2.78 z m 10.96,6.43 0,0.34 c 0.04,-0.11 0.04,-0.23 0,-0.34 z" id="path6497" style="fill:#cad0cc" />
<path d="m 29.65,2.93 0,5.15 c 1.73,0.08 3.04,0.16 3.87,0.25 l 0,-5.06 C 32.49,3.13 31.13,3.02 29.65,2.93 z" id="rect7118" style="color:#000000;fill:#e7e2e2;fill-opacity:0.40;stroke-width:2" />
<path d="M 23.84,2.78 C 21.39,2.79 18.86,2.93 16.75,3.12 l 0,5.06 c 1.75,-0.12 4.06,-0.25 7.18,-0.25 1.93,0 3.56,0.06 5,0.12 l 0,-5.15 C 27.30,2.82 25.58,2.77 23.84,2.78 z" id="rect7116" style="color:#000000;fill:#836a6a;fill-opacity:0.13;stroke-width:2" />
<path d="M 12.21,8.81 C 12.36,8.19 16.38,7.80 23.72,7.80 c 7.34,0 11.59,0.54 11.74,1.08" id="path7066" style="fill:none;stroke:#959595;stroke-width:0.69" />
<path d="m 36.34,39.12 c -0.25,0.45 -0.61,0.83 -1.12,1.40 C 33.76,42.16 27.86,42 23.5,42 19.13,42 14.37,41.26 13.28,40.81 12.66,40.55 11.97,40.36 11.5,39.75 c 0.02,1.00 0.19,1.87 0.65,2.37 1.36,1.46 2.42,2.62 4,2.93 2.82,0.29 5.06,0.38 7.78,0.40 2.56,-0.03 5.10,-0.08 7.75,-0.40 1.57,-0.31 2.63,-1.46 4,-2.93 0.55,-0.59 0.69,-1.73 0.65,-3 z" id="path6503" style="fill:#d7ad9d;fill-opacity:0.18" />
<path d="m 12.34,42.31 c 1.27,1.37 2.31,2.45 3.81,2.75 2.82,0.29 5.06,0.38 7.78,0.40 2.56,-0.03 5.10,-0.08 7.75,-0.40 1.35,-0.27 2.34,-1.18 3.46,-2.37 C 32.57,43.69 28.60,43.93 23.93,44 18.62,44.07 15.34,43.93 12.34,42.31 z" id="path6513" style="color:#000000;fill:#1d0606;fill-opacity:0.54;stroke-width:1px" />
<path d="M 15.12,9.21 13.03,9.31 c -0.03,0.22 0.05,0.5 0.28,0.5 0,2.83 -2.07,2.10 -1.96,4.53 0.13,3.04 1.22,2.51 1.12,6.18 -0.00,0.17 0.00,0.43 0,0.62 0.72,-0.35 1.20,-0.83 1,-1.46 -0.63,-2.00 1.00,-1.99 2.09,-1.81 1.09,0.18 5.82,3.55 9.37,3.18 3.55,-0.36 6.65,-2.91 8.56,-3.09 0.75,-0.07 1.41,0.40 1.93,1 0.21,-1.99 0.97,-2.12 1.09,-4.59 -0.42,0.62 -0.89,1.22 -1.31,1.5 -0.81,0.54 -3.73,-0.08 -5.28,-0.81 -1.36,0.63 -9.80,0.45 -12.71,-0.09 C 14.12,16.51 12.09,16.14 12,14.68 c -0.09,-1.45 1.19,-1.72 2.37,-2.09 1.18,-0.36 1.02,-0.36 0.65,-0.90 -0.36,-0.54 -0.17,-1.19 0.09,-2.46 z" id="path6509" style="fill:#e9ded7;fill-opacity:0.22" />
<path d="m 12.46,23.59 c 0.02,3.12 0.08,6.87 -0.06,9.06 2.56,3.10 5.80,4.13 9.34,4.40 4.04,0.31 10.01,0.30 13.81,-3.46 -0.23,-1.53 -0.18,-4.86 -0.15,-8.06 l -22.93,-1.93 z" id="path6517" style="fill:#1d0606;fill-opacity:0.54" />
<path d="m 36,7.12 -2.87,0.56 c -0.91,3.64 -0.16,5.09 0.75,5.28 0.91,0.18 1.90,0.25 1.81,1.43 -0.09,1.18 -1.72,2.65 -2,4.56 -0.27,1.91 -0.09,14.10 -0.09,14.46 0,0.36 0.53,-0.35 0.62,1.18 0.09,1.54 0.10,3.72 0.37,5.90 0.22,1.77 -0.11,3.48 -6.78,4.84 1.27,-0.05 2.56,-0.15 3.87,-0.31 1.57,-0.31 2.63,-1.46 4,-2.93 1.36,-1.46 0.32,-6.07 -0.09,-8.28 -0.41,-2.20 -0.11,-9.64 -0.21,-13.31 -0.10,-3.67 1.02,-3.14 1.15,-6.18 0.10,-2.42 -2,-1.69 -2,-4.53 0.31,0 0.42,-0.50 0.21,-0.71 0.62,0 1.25,-0.31 1.25,-0.84 l 0,-1.12 z" id="path6511" style="fill:#e4dcdc;fill-opacity:0.30" />
<path d="m 12.5,29.25 c -0.00,1.95 -0.05,3.72 -0.21,4.59 -0.41,2.20 -1.48,6.81 -0.12,8.28 1.36,1.46 2.42,2.62 4,2.93 0.45,0.04 0.88,0.08 1.31,0.12 -3.58,-1.23 -5.03,-4.06 -5.18,-4.84 -0.18,-0.91 0.99,-6.55 1.90,-9.46 L 12.5,29.25 z" id="path6515" style="fill:#cda7a7;fill-opacity:0.26" />
<rect width="18.66" height="1.91" rx="3.98" ry="0.95" x="14.56" y="10.13" id="rect6549" style="color:#000000;fill:#1a0909;fill-opacity:0.81;stroke-width:0.5" />
<path d="m 11.87,8.40 c 0.11,0.42 0.68,0.68 1.25,0.68 -0.20,0.20 -0.12,0.71 0.18,0.71 0,2.83 -2.07,2.10 -1.96,4.53 0.13,3.04 1.22,2.51 1.12,6.18 -0.01,0.48 0.00,1.15 0,1.75 C 13.71,20.88 13.64,18.12 13.12,17.37 12.50,16.48 11.61,15.96 11.96,14 c 0.35,-1.96 2.84,-1.54 2.84,-2.43 0,-0.81 -0.76,-2.34 -2.93,-3.15 z" id="path6574" style="fill:#f2e2e2;fill-opacity:0.33" />
<path d="m 15.08,28.71 c 0.17,2.94 3.12,10.80 3.74,11.69 0.62,0.89 11.60,1.07 13.48,0.17 1.87,-0.89 2.41,1.33 1.87,-6.60 -0.53,-7.94 -2.85,-6.42 -2.85,-6.42 z" id="path6576" style="color:#000000;fill:#300a0a;fill-opacity:0.54;stroke-width:1px" />
<path d="m 14.37,18.53 c 1.07,0.17 2.32,0.62 2.85,1.16 0.53,0.53 3.48,-0.98 6.51,-0.62 3.03,0.35 3.57,-0.08 5.26,0.89" id="path6572" style="fill:none;stroke:#321111;stroke-width:1.29;stroke-linecap:round;stroke-opacity:0.71" />
<path d="m 35.43,18.84 -23,0.31 c 0.03,0.38 0.04,0.82 0.03,1.37 -0.08,3.07 0.14,8.74 -0.03,11.81 2.19,0.76 6.03,0.78 12.21,0.71 6.53,-0.07 9.16,-0.29 10.78,-1.28 -0.12,-3.16 0.02,-8.35 -0.06,-11.25 -0.02,-0.71 0.00,-1.23 0.06,-1.68 z" id="path6501" style="fill:#cbcdc7" />
<path d="m 28.62,22.53 c 0.37,1.27 1.74,2.46 3.06,2.65 1.32,0.18 -0.61,-2.89 -3.06,-2.65 z m -8.68,1.31 c -0.61,1.50 -0.78,2.41 -0.5,3.21 0.28,0.80 1.87,1.03 1.87,1.03 l 0.53,-4 -1.90,-0.25 z m 7.78,0.18 c 0,0 -0.78,4.25 0.15,3.68 0.94,-0.56 1.68,-2.31 1.68,-2.68 0,-0.37 -0.52,-0.66 -1.84,-1 z m -10.87,2.15 -0.31,0.40 1.40,1.06 -2.12,0 0,0.5 2.78,0 0.03,0 L 18.71,28.25 19,27.84 16.84,26.18 z M 15.87,28.84 c -0.79,0.09 -0.95,0.90 -1.53,1.93 0.47,-0.33 1.35,0 1.78,0 0.42,0 1.93,-0.68 1.93,-0.68 0,0 -0.64,-1.10 -1.78,-1.25 -0.14,-0.01 -0.29,-0.01 -0.40,0 z M 30.65,29.12 c -0.75,0.18 -3.40,1.34 -4.25,1.81 -0.69,0.38 -0.77,1.08 -0.09,2.09 C 26.79,33.02 27.28,33.01 27.71,33 28.31,32.21 28.96,31.09 29.37,30.96 29.98,30.78 31.44,31.71 32.43,32 32.29,31.52 31.41,28.93 30.65,29.12 z" id="path6870" style="fill:#415b2a" />
<path d="m 23.03,12.97 a 3.44,0.69 0 1 1 -6.89,0 3.44,0.69 0 1 1 6.89,0 z" id="path6792" style="color:#000000;fill:#c47b7b;fill-opacity:0.33;stroke-width:1.70" />
<path d="m 18.39,12.55 c 1.16,-0.17 3.57,0 3.92,0.08" id="path6568" style="fill:none;stroke:#d89898;stroke-width:0.89;stroke-linecap:round;stroke-opacity:0.33" />
<path d="m 30.08,14.25 c 0.89,0.08 2.67,0.08 3.21,0.53" id="path6570" style="fill:none;stroke:#bc8d8d;stroke-width:1.70;stroke-opacity:0.55" />
<path d="m 30.06,33.60 c -0.38,1.31 -0.30,6.81 -0.23,7.42 0.07,0.61 0.68,-0.30 1.05,-0.31 0.29,-0.01 0.76,0.27 0.99,0.23 0.23,-0.03 0.34,-0.58 0.69,-0.50 0.34,0.07 0.77,0.38 0.96,0.23 0.19,-0.15 -0.50,-6.84 -0.92,-7.31 -0.42,-0.46 -1.00,0.58 -1.39,0.65 -0.38,0.07 -0.73,-0.61 -1.16,-0.42 z" id="path6729" style="fill:#e3bfbf;fill-opacity:0.24" />
<path d="m 13.18,40.03 c 0.08,-0.77 0.51,-4.53 0.51,-5.05" id="path6757" style="fill:none;stroke:#e69a9a;stroke-width:0.60;stroke-linecap:round;stroke-opacity:0.21" />
<path d="m 20.59,22.56 c -0.16,0.00 -0.30,0.04 -0.43,0.12 -0.53,0.33 -0.58,1.22 -0.09,2 0.30,0.48 0.73,0.81 1.15,0.90 -0.21,0.47 -0.31,1.06 -0.31,1.68 0,0.76 0.18,1.44 0.5,1.96 -0.23,0.24 -0.37,0.56 -0.37,0.90 0,0.76 0.72,1.37 1.59,1.37 0.87,0 1.56,-0.60 1.56,-1.37 0,-0.20 -0.03,-0.42 -0.12,-0.59 0.44,-0.54 0.75,-1.35 0.75,-2.28 0,-1.62 -0.88,-2.96 -1.96,-2.96 -0.18,0 -0.35,0.04 -0.53,0.12 C 22.28,24.12 22.19,23.78 22,23.46 21.63,22.88 21.07,22.55 20.59,22.56 z m 6.68,0.28 c -0.84,-0.03 -1.79,0.81 -2.25,2.06 -0.42,1.18 -0.27,2.34 0.31,2.90 -0.21,0.16 -0.42,0.35 -0.56,0.62 -0.42,0.82 -0.16,1.78 0.56,2.15 0.72,0.37 1.64,0.01 2.06,-0.81 0.36,-0.70 0.24,-1.51 -0.25,-1.96 0.49,-0.35 0.94,-0.93 1.21,-1.68 0.51,-1.42 0.17,-2.85 -0.75,-3.18 -0.11,-0.04 -0.22,-0.08 -0.34,-0.09 z m -9.43,0.62 c -0.16,0.00 -0.30,0.04 -0.43,0.12 -0.53,0.33 -0.55,1.22 -0.06,2 0.49,0.77 1.30,1.15 1.84,0.81 0.53,-0.33 0.55,-1.25 0.06,-2.03 -0.36,-0.58 -0.92,-0.91 -1.40,-0.90 z m -2.75,0.28 c -0.20,0.00 -0.39,0.04 -0.56,0.15 -0.51,0.32 -0.68,1.04 -0.46,1.81 -0.38,-0.10 -0.75,-0.04 -1,0.18 -0.39,0.38 -0.31,1.10 0.15,1.71 -0.00,0.63 0.45,1.33 1.25,1.78 0.84,0.47 1.75,0.50 2.28,0.09 0.03,0.56 0.32,1.05 0.78,1.37 -0.02,-7.56e-4 -0.04,0 -0.06,0 -0.87,0 -1.56,0.63 -1.56,1.40 0,0.24 0.05,0.48 0.18,0.68 0.77,0.05 1.72,0.07 2.68,0.09 0.17,-0.21 0.28,-0.49 0.28,-0.78 0,-0.40 -0.21,-0.77 -0.53,-1.03 0.05,0.00 0.10,0 0.15,0 1.08,0 1.96,-0.82 1.96,-1.84 0,-1.01 -0.88,-1.81 -1.96,-1.81 -0.63,0 -1.20,0.27 -1.56,0.71 -0.06,-0.26 -0.23,-0.53 -0.43,-0.78 0.03,-0.01 0.06,-0.01 0.09,-0.03 0.68,-0.43 0.75,-1.60 0.12,-2.59 -0.46,-0.74 -1.19,-1.16 -1.81,-1.15 z m 17.12,0.46 C 31.68,24.21 31.04,24.48 30.5,25 c -0.86,0.81 -1.15,1.93 -0.62,2.5 0.33,0.35 0.90,0.39 1.5,0.18 -0.58,0.62 -0.77,1.40 -0.43,1.90 0.42,0.64 1.56,0.59 2.56,-0.06 0.99,-0.66 1.45,-1.70 1.03,-2.34 -0.35,-0.52 -1.19,-0.60 -2.03,-0.25 0.79,-0.80 1.04,-1.86 0.53,-2.40 -0.19,-0.21 -0.48,-0.31 -0.81,-0.31 z" id="path6822" style="color:#000000;fill:#bc3936;stroke-width:1.70" />
<path d="m 31.71,24.12 c -0.64,0.27 -0.68,1.02 -1.01,1.56 -0.02,0.42 -1.10,0.41 -0.58,0.79 0.67,0.17 0.27,1.29 0.13,1.80 -0.08,0.76 -1.20,0.65 -1.09,1.40 0.61,0.15 1.21,-0.28 1.36,-0.87 0.32,-0.75 0.26,-1.69 0.86,-2.30 0.37,-0.02 0.63,-0.62 0.09,-0.46 -0.46,-0.39 -0.04,-1.16 0.37,-1.44 0.44,0.23 0.89,-0.67 0.20,-0.54 -0.11,-0.01 -0.23,-8.3e-4 -0.33,0.06 z m -7.78,0.15 c -0.68,0.09 -0.82,0.90 -1.07,1.42 0.06,0.50 -1.13,0.57 -0.68,0.95 0.71,0.06 0.31,1.10 0.14,1.51 -0.19,0.56 -0.48,1.03 -1.04,1.12 -0.44,0.92 1.09,0.39 1.19,-0.17 0.42,-0.76 0.34,-1.76 0.96,-2.42 0.21,-0.11 0.36,0.06 0.62,-0.10 -0.08,0.68 -0.29,1.41 -0.41,2.11 0.00,0.43 -0.90,1.19 -0.01,1.14 0.25,0.05 1.10,0.02 0.90,-0.42 -0.77,0.00 -0.36,-1.35 0.30,-1.13 0.67,-0.41 1.14,-1.31 0.77,-2.08 -0.21,-0.63 -0.80,-0.12 -1.18,-0.33 -0.34,0.23 -1.25,0.68 -1.00,-0.12 -0.05,-0.63 0.43,-0.97 0.98,-1.08 C 24.71,24.26 24.29,24.13 23.93,24.28 z M 16.96,24.5 c -0.56,0.39 -1.41,0.45 -1.73,1.15 -0.30,0.44 -0.04,1.71 0.52,0.87 0.15,-0.39 -0.25,-0.98 0.28,-1.21 0.50,0.39 0.18,1.30 0.06,1.85 -0.11,0.55 -0.64,0.64 -1.04,0.75 -0.30,0.62 0.82,0.24 1.17,0.34 0.33,0.06 1.38,-0.29 0.85,-0.59 -0.39,0.25 -0.84,-0.03 -0.43,-0.43 0.41,-0.64 1.33,-0.88 1.52,-1.68 -8.99e-4,-0.64 -0.72,-0.70 -1.06,-0.97 C 17.00,24.66 17.02,24.38 16.96,24.5 z M 17.25,25.15 c 0.74,0.18 -0.30,1.59 -0.43,0.89 0.16,-0.21 0.09,-1.05 0.40,-0.91 l 0.02,0.01 -1e-6,-3e-6 z m 12.46,0.53 c -0.70,0.19 -0.58,0.81 -0.65,1.37 -0.07,0.64 -0.90,0.63 -0.52,-0.04 0.21,-0.38 0.50,-1.42 -0.27,-1.14 -0.35,0.23 -0.47,0.56 -0.73,0.08 -0.69,-0.64 -1.26,0.51 -1.56,1.02 -0.38,0.49 -0.21,1.63 0.59,1.33 0.60,-0.05 0.94,-0.55 1.02,-1.12 0.02,-0.29 0.42,-0.93 0.43,-0.28 0.07,0.43 -0.45,1.61 0.34,1.44 0.26,-0.24 0.38,-0.37 0.65,-0.10 0.38,0.05 1.39,-0.62 0.87,-0.92 C 29.68,27.55 29.37,27.56 29.5,27.12 c 0.01,-0.47 0.43,-1.11 0.28,-1.47 -0.02,0.01 -0.04,0.02 -0.06,0.04 z M 18.87,25.87 c -0.70,0.42 -1.32,1.37 -0.90,2.19 0.34,0.42 1.03,0.40 1.29,-0.09 0.33,-0.41 0.36,-1.03 0.74,-1.39 0.32,0.32 -0.12,1.00 -0.03,1.47 0.03,0.86 0.83,-0.41 1.10,0.22 0.40,0.37 0.98,-0.43 1.04,-0.72 -0.24,-0.18 -0.65,0.33 -0.57,-0.25 0.04,-0.42 0.70,-1.33 0.15,-1.52 -0.30,0.23 -0.62,0.49 -0.53,0.96 0.09,0.39 -0.64,1.31 -0.60,0.51 0.13,-0.45 0.65,-1.45 -0.17,-1.41 -0.36,0.09 -0.49,0.73 -0.70,0.16 C 19.46,25.74 19.14,25.71 18.87,25.87 z m 0.28,0.53 c 0.27,0.47 -0.00,1.19 -0.48,1.39 -0.45,-0.30 -0.09,-1.20 0.26,-1.53 0.12,-0.05 0.21,0.03 0.22,0.14 z m 7.93,0 c 0.27,0.47 -0.00,1.19 -0.48,1.39 -0.45,-0.30 -0.09,-1.20 0.26,-1.53 0.12,-0.05 0.21,0.03 0.22,0.14 z m -1.93,0.03 c 0.28,0.40 -0.21,1.72 -0.71,1.18 -0.07,-0.49 0.25,-1.03 0.71,-1.18 z" id="path7045" style="font-size:5.35px;font-style:italic;font-variant:normal;font-weight:bold;font-stretch:normal;line-height:125%;letter-spacing:0px;word-spacing:0px;fill:#ffffff;font-family:URW Chancery L;-inkscape-font-specification:URW Chancery L Bold Italic" />
<path d="m 30.5,19.14 -13.28,0.18 -0.34,4.93 13.34,-0.21 0.28,-4.90 z" id="path6794" style="fill:#204578" />
<path d="m 19.89,20.01 -0.13,1.04 0.78,0.70 -1.04,0.19 -0.42,0.96 -0.50,-0.92 -1.05,-0.10 0.72,-0.76 -0.22,-1.03 0.95,0.45 z" id="path7050" style="color:#000000;fill:#ffffff;stroke:#ffffff;stroke-width:0.2" />
<path d="m 21.10,21.02 0.57,0.69 0.90,-0.08 -0.48,0.76 0.35,0.83 -0.87,-0.22 -0.68,0.59 -0.05,-0.90 -0.77,-0.46 0.84,-0.33 z" id="path7052" style="color:#000000;fill:#ff3939;stroke:#ffffff;stroke-width:0.2" />
<path d="m 29.18,20.39 -0.43,1.10 0.66,0.98 -1.18,-0.07 -0.73,0.93 -0.29,-1.15 -1.11,-0.40 1.00,-0.63 0.04,-1.18 0.91,0.75 z" id="path7054" style="color:#000000;fill:#ffffff;stroke:#ffffff;stroke-width:0.2" />
<path d="m 17.31,30.62 c 4.54,0.11 9.08,0.22 13.11,-0.11 -0.05,0.39 3e-6,1.36 0.05,1.64 -3.80,0.34 -11.07,0.28 -13.34,-10e-7 0.05,-0.62 0.17,-1.53 0.17,-1.53 z" id="path6796" style="fill:#d14d52" />
<path d="m 19.12,30.84 c -0.05,0 -0.10,0.00 -0.15,0.03 -0.05,0.02 -0.11,0.07 -0.15,0.12 -0.04,0.05 -0.06,0.10 -0.09,0.18 -0.02,0.07 -0.03,0.17 -0.03,0.28 0,0.10 0.00,0.20 0.03,0.28 0.02,0.07 0.05,0.13 0.09,0.18 0.04,0.05 0.10,0.09 0.15,0.12 0.05,0.02 0.09,0.03 0.15,0.03 0.06,0 0.13,-0.00 0.18,-0.03 0.05,-0.02 0.08,-0.07 0.12,-0.12 0.04,-0.05 0.07,-0.10 0.09,-0.18 0.02,-0.07 0.03,-0.17 0.03,-0.28 0,-0.10 -0.00,-0.20 -0.03,-0.28 C 19.50,31.10 19.47,31.05 19.43,31 19.39,30.94 19.33,30.90 19.28,30.87 19.22,30.84 19.18,30.84 19.12,30.84 z m -1.21,0.03 0,1.18 0.15,0 0,-0.53 c 0.03,0.03 0.05,0.08 0.09,0.12 0.03,0.04 0.09,0.07 0.12,0.12 0.03,0.04 0.06,0.07 0.09,0.12 0.02,0.05 0.03,0.11 0.06,0.15 l 0.21,0 c -0.02,-0.05 -0.05,-0.12 -0.09,-0.18 -0.03,-0.06 -0.08,-0.10 -0.12,-0.15 -0.03,-0.05 -0.05,-0.10 -0.09,-0.15 -0.03,-0.04 -0.08,-0.08 -0.12,-0.12 0.03,-0.04 0.05,-0.10 0.09,-0.15 0.03,-0.04 0.09,-0.07 0.12,-0.12 C 18.47,31.10 18.49,31.04 18.53,31 18.56,30.95 18.59,30.91 18.62,30.87 l -0.21,0 c -0.02,0.03 -0.03,0.08 -0.06,0.12 -0.02,0.04 -0.06,0.08 -0.09,0.12 -0.03,0.04 -0.06,0.08 -0.09,0.12 -0.03,0.04 -0.06,0.08 -0.09,0.12 l 0,-0.5 -0.15,0 z m 1.84,0 0,1.18 0.15,0 0,-0.84 c 0.03,0.05 0.08,0.11 0.12,0.18 0.04,0.07 0.08,0.14 0.12,0.21 0.03,0.07 0.08,0.14 0.12,0.21 0.03,0.07 0.06,0.15 0.09,0.21 l 0.12,0 0,-1.18 -0.15,0 0,0.78 C 20.31,31.59 20.28,31.53 20.25,31.46 20.21,31.39 20.16,31.32 20.12,31.25 20.08,31.17 20.04,31.09 20,31.03 19.95,30.96 19.91,30.92 19.87,30.87 l -0.12,0 z m 0.96,0 0,1.18 0.18,0 0,-0.53 0.34,0 0,-0.15 -0.34,0 0,-0.31 0.40,0 0,-0.18 -0.59,0 z m 0.75,0 0,1.18 0.15,0 0,-1.18 -0.15,0 z m 0.28,0 0,0.18 0.28,0 0,1 0.15,0 0,-1 0.28,0 0,-0.18 -0.71,0 z m 0.84,0 0,0.75 c 0,0.06 0.01,0.13 0.03,0.18 0.01,0.05 0.03,0.11 0.06,0.15 0.02,0.04 0.08,0.06 0.12,0.09 0.04,0.02 0.09,0.03 0.15,0.03 0.06,0 0.11,-0.00 0.15,-0.03 0.04,-0.02 0.06,-0.05 0.09,-0.09 0.02,-0.04 0.07,-0.09 0.09,-0.15 0.01,-0.05 -1e-6,-0.11 0,-0.18 l 0,-0.75 -0.15,0 0,0.71 c 0,0.05 -0.02,0.11 -0.03,0.15 -0.00,0.03 -0.01,0.06 -0.03,0.09 -0.01,0.02 -0.03,0.01 -0.06,0.03 -0.02,0.01 -0.03,0.03 -0.06,0.03 -0.02,0 -0.06,-0.01 -0.09,-0.03 -0.02,-0.01 -0.04,-0.00 -0.06,-0.03 -0.01,-0.02 -0.02,-0.05 -0.03,-0.09 -0.00,-0.03 -1e-6,-0.10 0,-0.15 l 0,-0.71 -0.18,0 z m 1.06,0 c -0.04,0.00 -0.08,0.01 -0.12,0.03 l 0,1.15 0.15,0 0,-0.43 0.09,0 0.03,0 c 0.00,0 0.01,0.00 0.03,0 0.01,0.02 0.04,0.05 0.06,0.09 0.01,0.03 0.01,0.05 0.03,0.09 0.02,0.03 0.04,0.08 0.06,0.12 0.01,0.04 0.04,0.08 0.06,0.12 l 0.18,0 C 24.23,32.01 24.20,31.98 24.18,31.93 24.16,31.89 24.14,31.82 24.12,31.78 24.10,31.73 24.08,31.69 24.06,31.65 24.04,31.61 24.01,31.58 24,31.56 c 0.12,-0.05 0.18,-0.15 0.18,-0.31 -1e-6,-0.12 -0.02,-0.21 -0.09,-0.28 -0.06,-0.06 -0.18,-0.09 -0.31,-0.09 -0.03,0 -0.07,-0.00 -0.12,0 z m 0.71,0 0,1.18 0.62,0 0,-0.18 -0.46,0 0,-0.34 0.37,0 0,-0.18 -0.37,0 0,-0.28 0.43,0 0,-0.18 -0.59,0 z m 1.09,0 0,1.18 0.62,0 0,-0.18 -0.46,0 0,-0.34 0.37,0 0,-0.18 -0.37,0 0,-0.28 0.43,0 0,-0.18 -0.59,0 z m 0.68,0 0.31,0.56 c -0.06,0.11 -0.13,0.24 -0.18,0.34 -0.05,0.10 -0.08,0.18 -0.12,0.28 l 0.18,0 c 0.01,-0.02 0.01,-0.05 0.03,-0.09 0.01,-0.04 0.04,-0.08 0.06,-0.12 0.02,-0.04 0.04,-0.08 0.06,-0.12 0.02,-0.04 0.04,-0.09 0.06,-0.12 0.04,0.07 0.08,0.16 0.12,0.25 0.03,0.08 0.06,0.15 0.09,0.21 l 0.18,0 c -0.03,-0.08 -0.07,-0.17 -0.12,-0.28 -0.05,-0.10 -0.12,-0.22 -0.18,-0.34 l 0.31,-0.56 -0.21,0 -0.18,0.40 -0.18,-0.40 -0.21,0 z m 0.87,0 0,0.18 0.28,0 0,1 0.15,0 0,-1 0.28,0 0,-0.18 -0.71,0 z m 0.96,0 c -0.04,0.00 -0.08,0.01 -0.12,0.03 l 0,1.15 0.15,0 0,-0.43 0.09,0 0.03,0 c 0.00,0 0.01,0.00 0.03,0 0.01,0.02 0.04,0.05 0.06,0.09 0.01,0.03 0.01,0.05 0.03,0.09 0.02,0.03 0.04,0.08 0.06,0.12 0.01,0.04 0.04,0.08 0.06,0.12 l 0.18,0 c -0.01,-0.04 -0.04,-0.07 -0.06,-0.12 -0.02,-0.04 -0.04,-0.11 -0.06,-0.15 -0.02,-0.04 -0.04,-0.08 -0.06,-0.12 -0.02,-0.03 -0.04,-0.06 -0.06,-0.09 0.12,-0.05 0.18,-0.15 0.18,-0.31 -1e-6,-0.12 -0.02,-0.21 -0.09,-0.28 C 28.36,30.90 28.25,30.87 28.12,30.87 c -0.03,0 -0.07,-0.00 -0.12,0 z m 1.03,0 c -0.03,0.08 -0.06,0.16 -0.09,0.25 -0.02,0.08 -0.06,0.18 -0.09,0.28 -0.02,0.09 -0.06,0.20 -0.09,0.31 -0.03,0.10 -0.05,0.21 -0.09,0.34 l 0.18,0 0.03,-0.12 c 0.01,-0.04 0.01,-0.10 0.03,-0.15 l 0.37,0 c 0.01,0.04 0.04,0.11 0.06,0.15 0.01,0.04 0.01,0.07 0.03,0.12 l 0.18,0 C 29.52,31.93 29.46,31.82 29.43,31.71 29.40,31.61 29.37,31.50 29.34,31.40 29.31,31.30 29.31,31.21 29.28,31.12 29.25,31.03 29.21,30.95 29.18,30.87 l -0.15,0 z M 19.12,31.03 c 0.04,0 0.09,0.01 0.12,0.03 0.03,0.02 0.03,0.05 0.06,0.09 0.02,0.03 0.05,0.07 0.06,0.12 0.01,0.05 0.03,0.12 0.03,0.18 0,0.06 -0.01,0.13 -0.03,0.18 -0.01,0.05 -0.03,0.08 -0.06,0.12 -0.02,0.03 -0.02,0.07 -0.06,0.09 -0.03,0.02 -0.08,0.03 -0.12,0.03 -0.04,0 -0.09,-0.01 -0.12,-0.03 -0.03,-0.02 -0.03,-0.05 -0.06,-0.09 -0.02,-0.03 -0.05,-0.07 -0.06,-0.12 -0.01,-0.05 -0.03,-0.12 -0.03,-0.18 0,-0.06 0.01,-0.13 0.03,-0.18 0.01,-0.05 0.03,-0.08 0.06,-0.12 0.02,-0.03 0.02,-0.07 0.06,-0.09 0.03,-0.02 0.08,-0.03 0.12,-0.03 z m 4.56,0.03 c 0.02,-0.00 0.08,1e-6 0.12,0 0.03,0 0.03,-0.00 0.06,0 0.02,0.00 0.07,0.01 0.09,0.03 0.02,0.01 0.02,0.03 0.03,0.06 0.01,0.02 0.03,0.05 0.03,0.09 0,0.03 -0.02,0.06 -0.03,0.09 -0.01,0.02 -0.01,0.04 -0.03,0.06 -0.02,0.01 -0.06,0.02 -0.09,0.03 -0.03,0.00 -0.05,1e-6 -0.09,0 l -0.09,0 0,-0.37 z m 4.34,0 c 0.02,-0.00 0.08,1e-6 0.12,0 0.03,0 0.03,-0.00 0.06,0 0.02,0.00 0.07,0.01 0.09,0.03 0.02,0.01 0.02,0.03 0.03,0.06 0.01,0.02 0.03,0.05 0.03,0.09 0,0.03 -0.02,0.06 -0.03,0.09 -0.01,0.02 -0.01,0.04 -0.03,0.06 -0.02,0.01 -0.06,0.02 -0.09,0.03 -0.03,0.00 -0.05,1e-6 -0.09,0 l -0.09,0 0,-0.37 z m 1.06,0.03 c 0.01,0.05 0.03,0.13 0.06,0.21 0.02,0.08 0.06,0.21 0.09,0.31 l -0.31,0 c 0.02,-0.10 0.06,-0.22 0.09,-0.31 0.02,-0.08 0.04,-0.15 0.06,-0.21 z" id="path6953" style="font-size:1.50px;font-style:normal;font-variant:normal;font-weight:500;font-stretch:normal;line-height:125%;letter-spacing:0px;word-spacing:0px;fill:#e0e0e0;font-family:Ubuntu;-inkscape-font-specification:Ubuntu Medium" />
<path d="m 29.53,18.93 -12.06,0.15 0,13.90 c 1.94,0.07 4.28,0.09 7.18,0.06 1.96,-0.02 3.53,-0.05 4.87,-0.12 l 0,-14 z" id="rect6914" style="color:#000000;fill:#271917;fill-opacity:0.13;stroke-width:0.5" />
<path d="m 35.43,18.84 -3.21,0.03 0,13.84 c 1.48,-0.19 2.46,-0.48 3.21,-0.93 -0.12,-3.16 0.02,-8.35 -0.06,-11.25 -0.02,-0.71 0.00,-1.23 0.06,-1.68 z M 14.37,19.12 12.43,19.15 c 0.03,0.38 0.04,0.82 0.03,1.37 -0.08,3.07 0.14,8.74 -0.03,11.81 0.54,0.18 1.18,0.32 1.93,0.43 l 0,-13.65 z" id="rect6916" style="color:#000000;fill:#f3edeb;fill-opacity:0.15;stroke-width:0.5" />
<path d="M 13.06,9.73 C 14.29,8.96 20.79,8.88 23.57,8.96 26.35,9.04 33.93,9.12 34.47,9.81" id="path7064" style="fill:none;stroke:#000000;stroke-width:0.60;stroke-opacity:0.54" />
<path d="m 28.21,9.81 c 0.77,0 2.62,0.15 3.09,0.23" id="path7112" style="fill:none;stroke:#f5f5f5;stroke-width:1px;stroke-opacity:0.37" />
<path d="M 18.24,9.43 C 20.94,9.27 22.80,9.27 24.19,9.27" id="path7114" style="fill:none;stroke:#33231e;stroke-width:2;stroke-opacity:0.43" />
<path d="m 17.15,40.43 c -0.30,0.01 -0.56,0.12 -0.59,0.31 -0.04,0.25 0.29,0.54 0.75,0.62 0.45,0.07 0.86,-0.08 0.90,-0.34 0.04,-0.25 -0.29,-0.51 -0.75,-0.59 -0.11,-0.01 -0.21,-0.00 -0.31,0 z" id="path6777" style="color:#000000;fill:#e3bfbf;fill-opacity:0.24;stroke-width:0.60" />
<path d="m 19.56,40.56 c -0.51,0 -0.93,0.18 -0.93,0.43 0,0.25 0.42,0.46 0.93,0.46 0.51,0 0.93,-0.21 0.93,-0.46 0,-0.25 -0.42,-0.43 -0.93,-0.43 z" id="path6779" style="color:#000000;fill:#e3bfbf;fill-opacity:0.35;stroke-width:0.60" />
<path d="m 21.93,40.90 c -0.42,0 -0.78,0.12 -0.78,0.28 0,0.15 0.35,0.25 0.78,0.25 0.42,0 0.78,-0.09 0.78,-0.25 0,-0.15 -0.35,-0.28 -0.78,-0.28 z" id="path6781" style="color:#000000;fill:#efdada;fill-opacity:0.55;stroke-width:0.60" />
<path d="m 15.18,40.34 c -0.13,0.03 -0.23,0.09 -0.25,0.18 -0.03,0.17 0.25,0.38 0.62,0.46 0.37,0.07 0.68,0.02 0.71,-0.15 0.03,-0.17 -0.22,-0.38 -0.59,-0.46 -0.18,-0.03 -0.36,-0.06 -0.5,-0.03 z" id="path6783" style="color:#000000;fill:#e3bfbf;fill-opacity:0.24;stroke-width:0.60" />
<path d="m 32.46,33.53 c -0.14,0.01 -0.16,0.79 -0.03,1.75 0.12,0.95 0.35,1.70 0.5,1.68 0.14,-0.01 0.16,-0.79 0.03,-1.75 -0.12,-0.95 -0.35,-1.70 -0.5,-1.68 z" id="path6785" style="color:#000000;fill:#e3bfbf;fill-opacity:0.35;stroke-width:0.60" />
<path d="m 33.53,40.75 c -0.11,0.00 -0.25,0.00 -0.37,0.03 -0.49,0.09 -0.87,0.30 -0.84,0.46 0.03,0.16 0.46,0.21 0.96,0.12 0.49,-0.09 0.87,-0.30 0.84,-0.46 C 34.10,40.78 33.86,40.73 33.53,40.75 z" id="path6787" style="color:#000000;fill:#f2e2e2;fill-opacity:0.53;stroke-width:0.60" />
<path d="m 23.84,2.78 c -5.33,0.01 -11.27,0.64 -11.68,1.06 -0.41,0.41 -0.31,0.92 -0.31,1.34 l 0,3.06 c 0,0.52 0.65,0.84 1.28,0.84 -0.20,0.20 -0.12,0.71 0.18,0.71 0,2.83 -2.07,2.10 -1.96,4.53 0.13,3.04 1.22,2.51 1.12,6.18 -0.10,3.67 0.23,11.10 -0.18,13.31 -0.41,2.20 -1.48,6.81 -0.12,8.28 1.36,1.46 2.42,2.62 4,2.93 2.82,0.29 5.06,0.38 7.78,0.40 2.56,-0.03 5.10,-0.08 7.75,-0.40 1.57,-0.31 2.63,-1.46 4,-2.93 1.36,-1.46 0.32,-6.07 -0.09,-8.28 -0.41,-2.20 -0.11,-9.64 -0.21,-13.31 -0.10,-3.67 1.02,-3.14 1.15,-6.18 0.10,-2.42 -2,-1.69 -2,-4.53 0.31,0 0.42,-0.50 0.21,-0.71 0.62,0 1.25,-0.31 1.25,-0.84 l 0,-3.06 c 0,-0.41 0.10,-0.92 -0.31,-1.34 -0.83,-0.69 -6.50,-1.08 -11.84,-1.06 z" id="stroke01" style="fill:none;stroke:#000000;stroke-width:0.5" />
</g>
</svg>
