<?xml version="1.0" encoding="UTF-8" standalone="no"?>
<!DOCTYPE svg PUBLIC "-//W3C//DTD SVG 1.0//EN" "http://www.w3.org/TR/2001/REC-SVG-20010904/DTD/svg10.dtd">
<svg xmlns:svg="http://www.w3.org/2000/svg" xmlns="http://www.w3.org/2000/svg" version="1.0" width="100%" height="100%" viewBox="0 0 48 48" id="_soup01">
<defs/>
<g id="layer2">
<path d="m 26.28,3.06 c -7.36,0 -13.34,1.61 -13.34,3.59 0,0.38 0,0.79 0,0.96 0,0.35 0.19,0.76 0.43,1.03 C 13.42,9.45 14.62,37.14 14.62,37.5 c 0,3.86 4.93,7 11.03,7 6.09,0 11.03,-3.13 11.03,-7 C 36.68,37.08 39.11,9.02 39.12,8.71 39.51,8.38 39.59,7.99 39.59,7.62 c 0,-0.23 -0.01,-0.63 0,-0.96 0,-1.98 -5.94,-3.59 -13.31,-3.59 z" id="path3907" style="color:#000000;fill:#d7dede;stroke-width:0.5" />
<path d="m 21.15,40.08 c -0.51,0.10 -0.55,0.83 -0.18,1.13 0.27,0.32 0.75,0.30 1.07,0.56 0.32,0.13 0.01,0.54 -0.24,0.42 -0.35,-0.07 -0.65,-0.38 -1.03,-0.33 -0.07,0.44 0.46,0.64 0.82,0.67 0.40,0.06 0.94,0.21 1.23,-0.16 0.28,-0.44 -0.17,-0.93 -0.58,-1.08 -0.30,-0.12 -0.75,-0.18 -0.84,-0.58 0.42,-0.30 0.89,0.11 1.28,0.26 0.22,-0.23 -0.07,-0.57 -0.33,-0.64 -0.37,-0.12 -0.79,-0.30 -1.19,-0.26 z m 10.23,0.01 c -0.53,0.06 -1.04,0.21 -1.56,0.34 0,0.75 0,1.51 0,2.27 0.23,-0.04 0.47,-0.09 0.71,-0.14 0,-0.24 0,-0.49 0,-0.73 0.41,-0.06 0.83,-0.16 1.18,-0.41 0.36,-0.26 0.52,-0.86 0.16,-1.19 -0.11,-0.15 -0.31,-0.14 -0.48,-0.11 z m -0.26,0.51 c 0.45,0.11 0.09,0.73 -0.25,0.71 -0.15,0.18 -0.49,-0.05 -0.32,-0.25 -0.19,-0.32 0.34,-0.48 0.57,-0.45 z m -2.17,0.05 c -0.17,0.02 -0.35,0.04 -0.53,0.07 0.01,0.46 -0.02,0.93 0,1.40 0.05,0.46 -0.81,0.69 -0.91,0.19 -0.13,-0.46 0.10,-0.96 -0.08,-1.40 -0.15,-0.14 -0.39,-0.01 -0.57,0.01 -0.22,0.10 -0.02,0.38 -0.08,0.57 0.04,0.44 -0.14,1.02 0.29,1.32 0.32,0.24 0.76,0.23 1.14,0.15 0.35,-0.10 0.76,-0.27 0.88,-0.65 0.11,-0.43 0.02,-0.90 0.07,-1.35 0.00,-0.12 0.01,-0.41 -0.19,-0.32 z m -4.83,0.13 c -0.46,0.10 -0.81,0.55 -0.73,1.03 0.01,0.42 0.27,0.83 0.68,0.99 0.42,0.22 0.93,0.31 1.39,0.13 0.45,-0.11 0.82,-0.54 0.76,-1.02 -0.03,-0.48 -0.45,-0.84 -0.87,-1.03 -0.38,-0.15 -0.82,-0.14 -1.22,-0.10 z m 0.65,0.39 c 0.38,0.06 0.70,0.40 0.72,0.79 0.04,0.48 -0.52,0.79 -0.93,0.59 -0.47,-0.21 -0.58,-0.91 -0.20,-1.27 0.12,-0.07 0.26,-0.13 0.41,-0.11 z" id="path4239" style="font-size:8px;font-style:normal;font-variant:normal;font-weight:bold;font-stretch:normal;line-height:125%;letter-spacing:0px;word-spacing:0px;fill:#f2f2f2;stroke:#3f3f3f;stroke-width:0.30;font-family:DejaVu Sans;-inkscape-font-specification:DejaVu Sans Bold" />
<path d="m 17.57,33.20 c 0.35,0.09 0.70,0.18 1.06,0.28 0,1.16 0,2.33 0,3.5 0.27,0.06 0.55,0.12 0.83,0.18 0,-1.14 0,-2.29 0,-3.43 0.35,0.07 0.70,0.14 1.06,0.21 -0.05,-0.32 0.19,-0.93 -0.35,-0.93 -0.86,-0.21 -1.73,-0.43 -2.60,-0.65 0,0.28 0,0.56 0,0.84 z m 13.43,0.62 c -0.06,0.35 0.16,0.98 -0.32,1.06 -0.13,0.23 -0.16,0.56 0.03,0.78 0.14,-0.41 0.43,0.11 0.28,0.31 0.02,0.55 -0.22,1.51 0.51,1.68 0.40,-0.00 1.14,-0.09 0.96,-0.65 0.11,-0.47 -0.40,0.09 -0.61,-0.18 -0.27,-0.37 1.66e-4,-0.93 -0.09,-1.38 0.13,-0.31 1.02,-0.21 0.77,-0.79 0.00,-0.18 0.05,-0.53 -0.19,-0.25 -0.20,-0.06 -0.62,0.42 -0.57,0 0,-0.27 0,-0.54 0,-0.81 -0.25,0.08 -0.51,0.16 -0.77,0.25 z m 3.31,-0.15 c -1.03,0.18 -1.48,1.30 -1.48,2.21 -0.10,0.74 0.68,1.53 1.44,1.09 0.97,-0.25 1.25,-1.35 1.20,-2.21 0.00,-0.53 -0.55,-1.36 -1.17,-1.09 z m -13.43,0.71 c -0.88,0.40 -0.84,1.59 -0.54,2.35 0.24,0.81 1.48,1.38 2.15,0.70 0.56,-0.81 0.28,-2.03 -0.41,-2.68 -0.31,-0.25 -0.77,-0.50 -1.19,-0.37 z m 13.33,0.09 c 0.71,0.18 0.43,1.12 0.25,1.62 -0.23,0.52 -1.02,0.06 -0.83,-0.40 -0.01,-0.43 0.01,-1.14 0.57,-1.21 z m -10.85,3.62 c 0.25,0.03 0.51,0.06 0.77,0.09 0.09,-0.71 -0.29,-1.63 0.32,-2.18 0.60,-0.12 0.39,0.71 0.42,1.05 0.00,0.41 0.01,0.83 0.02,1.25 0.25,0.02 0.51,0.04 0.77,0.06 0.07,-0.74 -0.20,-1.60 0.28,-2.25 0.70,0.02 0.35,0.90 0.48,1.33 0,0.31 0,0.62 0,0.94 0.25,0 0.51,0 0.77,0 -0.10,-0.96 0.30,-2.21 -0.50,-2.95 -0.41,-0.19 -1.02,-0.00 -1.14,0.45 -0.08,-0.62 -1.18,-1.05 -1.41,-0.28 -0.02,-0.17 -0.00,-0.63 -0.38,-0.56 -0.14,0.13 -0.54,-0.27 -0.41,0.12 0,0.97 0,1.94 0,2.91 z m 5.70,-2.96 c -0.54,0.07 -1.30,0.28 -1.09,0.96 -0.04,0.39 0.31,-0.13 0.48,-0.12 0.30,-0.13 0.88,-0.19 0.96,0.21 -0.39,0.37 -1.12,0.09 -1.41,0.65 -0.52,0.57 -0.11,1.74 0.77,1.5 0.28,-0.09 0.48,-0.32 0.64,-0.56 -0.17,0.35 0.25,0.49 0.51,0.31 0.55,0.00 0.07,-0.60 0.25,-0.90 0.07,-0.79 0.08,-2.26 -1.12,-2.06 z m -7.73,0.06 c 0.50,-0.08 0.68,0.71 0.65,1.08 0.05,0.37 -0.31,1.04 -0.72,0.59 -0.46,-0.44 -0.41,-1.24 -0.03,-1.71 l 0.09,0.03 z m 7.99,1.71 c 0.46,0.32 -0.56,1.23 -0.77,0.56 -0.08,-0.39 0.44,-0.58 0.77,-0.56 z" id="path4212" style="font-size:8px;font-style:normal;font-variant:normal;font-weight:bold;font-stretch:normal;line-height:125%;letter-spacing:0px;word-spacing:0px;fill:#962540;font-family:DejaVu Sans;-inkscape-font-specification:DejaVu Sans Bold" />
<path d="m 26.28,3.06 c -7.36,0 -13.34,1.61 -13.34,3.59 l 0,0.96 c 0,0.35 0.19,0.76 0.43,1.03 0.02,0.41 0.31,7.54 0.62,14.78 0.00,0.01 0.02,0.01 0.03,0.03 4.41,7.13 19.75,7.48 23.75,1.18 0.66,-7.78 1.33,-15.77 1.34,-15.93 0.38,-0.33 0.46,-0.72 0.46,-1.09 0,-0.23 -0.01,-0.63 0,-0.96 0,-1.98 -5.94,-3.59 -13.31,-3.59 z" id="path3927" style="fill:#990024" />
<path d="m 19.66,21.31 c -0.35,0.47 -0.19,1.15 -0.22,1.72 -0.08,0.25 -0.07,0.77 0.25,0.72 0.19,-0.15 0.16,-0.48 0.11,-0.71 0.44,-0.10 1.15,0.03 1.30,-0.61 -0.08,-0.69 -0.71,-1.12 -1.28,-1.14 l -0.07,0 -0.09,0.02 z m 0.29,0.35 c 0.34,-0.03 0.88,0.48 0.55,0.86 -0.22,0.11 -0.45,-0.03 -0.68,0.02 0.00,-0.29 0.01,-0.59 0.01,-0.88 l 0.07,-0.02 0.03,0.02 z m 11.56,0.04 c -0.42,-0.05 -0.00,0.82 0.18,0.38 0.10,-0.11 -9.83e-4,-0.54 -0.18,-0.38 z m 3.03,0.23 c -0.63,0.23 -0.65,1.13 -0.51,1.75 0.03,0.09 -0.11,0.42 0.09,0.25 0.52,-0.32 0.03,-1.25 0.47,-1.56 0.42,-0.01 0.53,0.65 0.34,0.99 0.01,0.33 0.43,0.20 0.36,-0.08 0.16,-0.56 -0.09,-1.63 -0.77,-1.35 z m -8.63,0.12 c -0.30,0.19 -0.02,0.62 -0.18,0.90 -0.45,-0.31 -1.23,0.13 -1.11,0.79 0.07,0.60 0.74,1.17 1.24,0.84 0.55,-0.43 0.17,-1.26 0.25,-1.88 -0.00,-0.19 0.10,-0.76 -0.20,-0.67 z m 6.99,0.12 c -0.55,0.16 -1.04,1.07 -0.68,1.67 0.39,0.53 1.22,0.16 1.34,-0.48 0.14,-0.47 -0.12,-1.32 -0.66,-1.18 z m -2.74,0.06 c -0.33,0.58 -0.15,1.29 -0.12,1.94 0.08,0.46 0.80,0.54 0.88,0.04 -0.49,0.05 -0.85,-0.76 -0.35,-1.06 0.06,-0.14 0.52,-0.40 0.18,-0.45 -0.20,0.08 -0.45,-0.02 -0.36,-0.31 -0.00,-0.12 -0.12,-0.22 -0.22,-0.14 z m -8.34,0.02 c -0.60,0.30 -0.34,1.18 -0.29,1.75 0.11,0.38 0.47,-0.08 0.36,-0.33 0.01,-0.34 -0.09,-0.67 -0.05,-1.01 0.21,-0.02 0.63,0.15 0.64,-0.25 -0.19,-0.13 -0.43,-0.20 -0.66,-0.14 z m 9.75,0.23 c -0.50,0.45 -0.13,1.23 -0.27,1.83 0.41,0.17 0.48,-0.50 0.40,-0.82 -0.01,-0.34 -0.02,-0.69 -0.01,-1.03 l -0.10,0.02 -0.00,8.12e-4 z m 1.30,0.10 c 0.67,0.02 0.20,1.47 -0.33,0.97 -0.20,-0.32 -0.07,-0.98 0.33,-0.97 z m -9.72,0.06 c -0.55,0.18 -0.73,1.11 -0.24,1.51 0.35,0.33 1.00,0.51 1.30,-0.00 0.22,-0.46 0.03,-1.06 -0.32,-1.36 -0.22,-0.14 -0.48,-0.27 -0.73,-0.14 z m 6.16,0.08 c -0.46,0.06 -0.87,0.57 -0.88,1.12 -0.06,0.57 0.52,0.96 0.95,0.74 0.05,-0.08 0.29,-0.24 0.05,-0.27 -0.26,-0.08 -0.79,-0.11 -0.61,-0.58 0.08,-0.33 0.35,-0.66 0.68,-0.59 0.11,-0.13 -0.02,-0.50 -0.20,-0.40 z m -1.47,0.31 c -0.50,0.29 0.11,1.28 -0.49,1.43 -0.55,-0.20 -0.17,-0.99 -0.44,-1.41 -0.52,0.38 -0.37,1.43 0.22,1.62 0.46,0.21 1.06,-0.21 0.88,-0.82 0,-0.29 0,-0.58 0,-0.87 l -0.07,-0.02 -0.09,0.06 z m -4.30,-0.04 c 0.67,0.03 0.37,1.52 -0.23,1.03 -0.25,-0.28 -0.24,-1.09 0.23,-1.03 z m 1.82,0.19 c 0.61,-0.11 0.52,1.25 -0.07,1.01 -0.34,-0.17 -0.40,-1.03 0.07,-1.01 z" id="path4318" style="font-size:8px;font-style:normal;font-variant:normal;font-weight:500;font-stretch:normal;line-height:125%;letter-spacing:0px;word-spacing:0px;fill:#98341b;font-family:Ubuntu;-inkscape-font-specification:Ubuntu Medium" />
<path d="m 37.90,12.18 c -0.67,0.62 -1.12,1.58 -1.13,2.59 -0.10,0.42 -0.39,0.75 -0.67,1.03 0.13,0.27 0.63,0.56 0.32,0.90 -0.11,0.88 -0.11,1.83 -0.55,2.60 -0.19,0.30 -0.71,0.61 -0.49,1.05 0.78,-0.25 1.04,-1.26 1.25,-2.06 0.20,-0.78 0.36,-1.58 0.55,-2.36 0.34,0.19 0.65,-0.65 0.18,-0.65 -0.29,-0.77 0.05,-1.58 0.29,-2.31 0.32,-0.01 0.80,-0.42 0.48,-0.81 l -0.13,0 -0.10,0.03 z m -19.90,1.15 c -0.72,0.20 -1.58,0.40 -2.00,1.21 -0.30,0.42 -0.10,1.21 0.41,1.19 0.50,-0.43 0.13,-1.74 0.97,-1.84 0.49,0.79 -0.08,1.69 -0.26,2.5 0.04,0.42 -0.16,1.16 -0.64,0.87 -0.28,-0.01 -0.61,0.01 -0.80,0.28 0.87,0.35 1.82,0.36 2.72,0.62 0.32,0.11 0.34,-0.67 0,-0.46 -0.86,-0.04 -0.53,-1.92 0.26,-1.5 0.77,0.11 1.62,-0.87 1.28,-1.76 -0.31,-0.83 -1.17,-1.27 -1.93,-1.11 z m 0.75,0.56 c 0.73,0.24 0.57,1.95 -0.26,1.75 -0.56,-0.45 -0.17,-1.27 0.10,-1.78 l 0.15,0.03 0.00,0.00 z m 10.00,0.34 c -0.85,0.25 -1.60,0.96 -1.91,1.93 -0.11,0.55 -0.57,1.13 -1.07,0.78 -0.20,0.15 -0.02,0.66 0.21,0.5 0.50,0.74 0.19,1.70 -0.12,2.46 -0.17,0.60 -0.79,1.01 -1.33,0.91 0.33,0.99 1.45,0.31 1.74,-0.39 0.59,-0.75 0.53,-1.97 1.11,-2.69 0.16,-0.08 0.46,-0.09 0.48,0.18 0.67,0.25 0.65,-0.85 0.72,-1.34 0.16,-0.41 0.42,-0.81 0.83,-0.90 0.01,1.02 -0.35,1.99 -0.48,3 0.00,0.51 -0.41,0.80 -0.80,0.64 -0.24,0.01 -0.51,0.14 -0.59,0.44 0.91,0.12 1.81,-0.14 2.72,-0.25 0.22,-0.01 0.11,-0.51 -0.02,-0.21 -0.43,-8.72e-4 -0.92,-1.02 -0.29,-1.15 0.58,-0.60 1.52,-0.87 1.77,-1.82 0.16,-0.86 -0.58,-1.76 -1.34,-1.51 -0.73,0.40 -1.62,0.55 -2.18,1.31 -0.20,0.25 -0.36,0.85 -0.75,0.68 -0.10,-0.99 0.61,-1.85 1.40,-2.09 0.17,-0.11 0.21,-0.61 -0.08,-0.46 z m 6.98,0.78 c -0.61,0.73 -0.51,1.83 -0.88,2.70 -0.48,0.31 -0.34,-0.57 -0.22,-0.85 0.15,-0.47 0.21,-1.00 0.03,-1.48 -0.44,0.12 -0.64,0.66 -0.91,1.03 -0.67,-0.90 -1.82,0.00 -2.04,0.93 -0.35,0.62 -0.48,1.97 0.37,2.06 0.91,-0.06 1.34,-1.19 1.53,-2.09 0.07,-0.28 0.24,-0.56 0.51,-0.62 0.04,0.75 -0.56,1.72 0.10,2.31 0.22,-0.28 0.44,-0.56 0.67,-0.84 -0.23,0.48 0.70,0.75 0.64,0.18 0.26,-0.32 0.68,-0.68 0.56,-1.18 -0.06,0.57 -0.84,0.00 -0.48,-0.34 0.13,-0.62 0.25,-1.25 0.26,-1.90 l -0.08,0 -0.08,0.09 z m -5.17,0.31 c 0.65,0.55 0.38,2.04 -0.45,2.09 -0.38,-0.02 -0.04,-0.55 -0.08,-0.81 0.08,-0.41 0.16,-0.82 0.21,-1.25 0.10,-0.03 0.21,-0.03 0.32,-0.03 z m -9.35,0.34 c -0.73,0.33 -1.70,1.08 -1.40,2.14 0.24,1.00 1.57,1.59 2.08,0.51 0.27,-0.50 0.47,-1.18 1.02,-1.37 0.27,0.74 -0.68,1.72 0.10,2.25 0.42,-0.04 1.07,-0.32 1.29,0.28 0.52,0.26 1.16,-0.17 1.32,-0.78 -0.31,0.26 -1.00,-0.00 -0.72,-0.53 0.11,-0.63 0.40,-1.24 0.37,-1.90 -0.89,0.27 -0.94,1.56 -1.34,2.34 -0.22,0.34 -0.77,-0.24 -0.43,-0.5 0.15,-0.58 0.23,-1.18 0.35,-1.78 -0.48,-0.15 -1.04,-0.11 -1.37,0.37 -0.18,-0.58 -0.67,-1.21 -1.26,-1.03 z m 0.10,0.62 c 0.81,0.49 0.14,2.42 -0.70,1.68 -0.35,-0.59 0.04,-1.70 0.70,-1.68 z m 11.57,0.40 c 0.39,0.76 -0.00,1.64 -0.40,2.28 -0.77,-0.57 -0.31,-1.87 0.29,-2.37 l 0.10,0.09 z" id="path4301" style="font-size:8px;font-style:italic;font-variant:normal;font-weight:bold;font-stretch:normal;line-height:125%;letter-spacing:0px;word-spacing:0px;fill:#333333;font-family:URW Chancery L;-inkscape-font-specification:URW Chancery L Bold Italic" />
<path d="m 37.66,11.59 c -0.67,0.62 -1.12,1.58 -1.13,2.59 -0.10,0.42 -0.39,0.75 -0.67,1.03 0.13,0.27 0.63,0.56 0.32,0.90 -0.11,0.88 -0.11,1.83 -0.55,2.60 -0.19,0.30 -0.71,0.61 -0.49,1.05 0.78,-0.25 1.04,-1.26 1.25,-2.06 0.20,-0.78 0.36,-1.58 0.55,-2.36 0.34,0.19 0.65,-0.65 0.18,-0.65 -0.29,-0.77 0.05,-1.58 0.29,-2.31 0.32,-0.01 0.80,-0.42 0.48,-0.81 l -0.13,0 -0.10,0.03 z m -19.90,1.15 c -0.72,0.20 -1.58,0.40 -2.00,1.21 -0.30,0.42 -0.10,1.21 0.41,1.19 0.50,-0.43 0.13,-1.74 0.97,-1.84 0.49,0.79 -0.08,1.69 -0.26,2.5 0.04,0.42 -0.16,1.16 -0.64,0.87 -0.28,-0.01 -0.61,0.01 -0.80,0.28 0.87,0.35 1.82,0.36 2.72,0.62 0.32,0.11 0.34,-0.67 0,-0.46 -0.86,-0.04 -0.53,-1.92 0.26,-1.5 0.77,0.11 1.62,-0.87 1.28,-1.76 -0.31,-0.83 -1.17,-1.27 -1.93,-1.11 z m 0.75,0.56 c 0.73,0.24 0.57,1.95 -0.26,1.75 -0.56,-0.45 -0.17,-1.27 0.10,-1.78 l 0.15,0.03 0.00,0.00 z m 10.00,0.34 c -0.85,0.25 -1.60,0.96 -1.91,1.93 -0.11,0.55 -0.57,1.13 -1.07,0.78 -0.20,0.15 -0.02,0.66 0.21,0.5 0.50,0.74 0.19,1.70 -0.12,2.46 -0.17,0.60 -0.79,1.01 -1.33,0.91 0.33,0.99 1.45,0.31 1.74,-0.39 0.59,-0.75 0.53,-1.97 1.11,-2.69 0.16,-0.08 0.46,-0.09 0.48,0.18 0.67,0.25 0.65,-0.85 0.72,-1.34 0.16,-0.41 0.42,-0.81 0.83,-0.90 0.01,1.02 -0.35,1.99 -0.48,3 0.00,0.51 -0.41,0.80 -0.80,0.64 -0.24,0.01 -0.51,0.14 -0.59,0.44 0.91,0.12 1.81,-0.14 2.72,-0.25 0.22,-0.01 0.11,-0.51 -0.02,-0.21 -0.43,-8.72e-4 -0.92,-1.02 -0.29,-1.15 0.58,-0.60 1.52,-0.87 1.77,-1.82 0.16,-0.86 -0.58,-1.76 -1.34,-1.51 -0.73,0.40 -1.62,0.55 -2.18,1.31 -0.20,0.25 -0.36,0.85 -0.75,0.68 -0.10,-0.99 0.61,-1.85 1.40,-2.09 0.17,-0.11 0.21,-0.61 -0.08,-0.46 z m 6.98,0.78 c -0.61,0.73 -0.51,1.83 -0.88,2.70 -0.48,0.31 -0.34,-0.57 -0.22,-0.85 0.15,-0.47 0.21,-1.00 0.03,-1.48 -0.44,0.12 -0.64,0.66 -0.91,1.03 -0.67,-0.90 -1.82,0.00 -2.04,0.93 -0.35,0.62 -0.48,1.97 0.37,2.06 0.91,-0.06 1.34,-1.19 1.53,-2.09 0.07,-0.28 0.24,-0.56 0.51,-0.62 0.04,0.75 -0.56,1.72 0.10,2.31 0.22,-0.28 0.44,-0.56 0.67,-0.84 -0.23,0.48 0.70,0.75 0.64,0.18 0.26,-0.32 0.68,-0.68 0.56,-1.18 -0.06,0.57 -0.84,0.00 -0.48,-0.34 0.13,-0.62 0.25,-1.25 0.26,-1.90 l -0.08,0 -0.08,0.09 z m -5.17,0.31 c 0.65,0.55 0.38,2.04 -0.45,2.09 -0.38,-0.02 -0.04,-0.55 -0.08,-0.81 0.08,-0.41 0.16,-0.82 0.21,-1.25 0.10,-0.03 0.21,-0.03 0.32,-0.03 z m -9.35,0.34 c -0.73,0.33 -1.70,1.08 -1.40,2.14 0.24,1.00 1.57,1.59 2.08,0.51 0.27,-0.50 0.47,-1.18 1.02,-1.37 0.27,0.74 -0.68,1.72 0.10,2.25 0.42,-0.04 1.07,-0.32 1.29,0.28 0.52,0.26 1.16,-0.17 1.32,-0.78 -0.31,0.26 -1.00,-0.00 -0.72,-0.53 0.11,-0.63 0.40,-1.24 0.37,-1.90 -0.89,0.27 -0.94,1.56 -1.34,2.34 -0.22,0.34 -0.77,-0.24 -0.43,-0.5 0.15,-0.58 0.23,-1.18 0.35,-1.78 -0.48,-0.15 -1.04,-0.11 -1.37,0.37 -0.18,-0.58 -0.67,-1.21 -1.26,-1.03 z m 0.10,0.62 c 0.81,0.49 0.14,2.42 -0.70,1.68 -0.35,-0.59 0.04,-1.70 0.70,-1.68 z m 11.57,0.40 c 0.39,0.76 -0.00,1.64 -0.40,2.28 -0.77,-0.57 -0.31,-1.87 0.29,-2.37 l 0.10,0.09 z" id="path4305" style="font-size:8px;font-style:italic;font-variant:normal;font-weight:bold;font-stretch:normal;line-height:125%;letter-spacing:0px;word-spacing:0px;fill:#cdcbd0;font-family:URW Chancery L;-inkscape-font-specification:URW Chancery L Bold Italic" />
<path d="m 13.65,9.84 a 0.50,0.50 0 0 0 -0.21,0.12 c 0.00,0.11 0.02,0.88 0.03,1.06 0.19,0.45 0.55,0.87 1.03,1.21 0.71,0.51 1.68,0.95 2.87,1.31 2.37,0.71 5.60,1.12 9.18,1.12 3.58,0 6.81,-0.40 9.21,-1.12 1.20,-0.35 2.21,-0.80 2.93,-1.31 0.04,-0.03 0.08,-0.06 0.12,-0.09 0.03,-0.41 0.13,-1.73 0.15,-1.93 a 0.50,0.50 0 0 0 -0.03,0.12 c -0.00,0.30 -0.25,0.68 -0.84,1.09 -0.58,0.41 -1.49,0.81 -2.62,1.15 -2.26,0.67 -5.43,1.09 -8.93,1.09 -3.50,0 -6.66,-0.41 -8.90,-1.09 -1.12,-0.33 -2.02,-0.74 -2.59,-1.15 -0.56,-0.40 -0.75,-0.75 -0.75,-1.06 a 0.50,0.50 0 0 0 -0.59,-0.53 0.50,0.50 0 0 0 -0.06,0 z m -0.06,2.71 a 0.50,0.50 0 0 0 -0.06,0.03 c 0.02,0.54 0.09,1.46 0.12,2.21 0.16,0.28 0.35,0.55 0.59,0.81 0.68,0.73 1.66,1.34 2.84,1.87 2.35,1.05 5.54,1.68 9.09,1.68 3.54,0 6.79,-0.63 9.18,-1.68 1.19,-0.52 2.19,-1.14 2.90,-1.87 0.10,-0.11 0.18,-0.22 0.28,-0.34 0.07,-0.93 0.16,-2.02 0.21,-2.65 a 0.50,0.50 0 0 0 -0.34,0.46 c -0.01,0.62 -0.28,1.23 -0.87,1.84 -0.59,0.60 -1.48,1.16 -2.59,1.65 -2.22,0.97 -5.35,1.59 -8.78,1.59 -3.42,0 -6.50,-0.61 -8.68,-1.59 C 16.41,16.10 15.56,15.54 15,14.93 14.43,14.33 14.17,13.71 14.18,13.09 A 0.50,0.50 0 0 0 13.59,12.56 z m 0.25,3.84 a 0.50,0.50 0 0 0 -0.12,0.06 c 0.03,0.77 0.05,1.09 0.09,1.96 0.53,1.32 1.76,2.45 3.43,3.31 2.28,1.17 5.39,1.87 8.84,1.87 3.44,0 6.57,-0.70 8.90,-1.87 1.41,-0.70 2.55,-1.59 3.25,-2.62 0.10,-1.24 0.12,-1.66 0.21,-2.71 a 0.50,0.50 0 0 0 -0.5,0.5 c -0.03,1.44 -1.25,2.85 -3.40,3.93 -2.14,1.07 -5.15,1.78 -8.46,1.78 -3.31,0 -6.27,-0.70 -8.37,-1.78 C 15.61,19.76 14.46,18.38 14.5,16.93 a 0.50,0.50 0 0 0 -0.59,-0.53 0.50,0.50 0 0 0 -0.06,0 z M 14.06,20.18 A 0.50,0.50 0 0 0 14,20.21 a 0.50,0.50 0 0 0 -0.12,0.06 c 0.04,0.93 0.05,1.00 0.09,1.96 0.53,1.31 1.74,2.45 3.37,3.31 2.24,1.17 5.27,1.87 8.65,1.87 3.38,0 6.46,-0.70 8.75,-1.87 1.40,-0.71 2.51,-1.63 3.18,-2.68 0.11,-1.32 0.10,-1.41 0.21,-2.68 a 0.50,0.50 0 0 0 -0.53,0.5 c -0.03,1.45 -1.24,2.88 -3.34,3.96 C 32.18,25.73 29.23,26.43 26,26.43 c -3.23,0 -6.13,-0.70 -8.18,-1.78 -2.05,-1.07 -3.19,-2.48 -3.15,-3.93 A 0.50,0.50 0 0 0 14.06,20.18 z M 14.25,24.25 a 0.50,0.50 0 0 0 -0.06,0.03 0.50,0.50 0 0 0 -0.12,0.06 c 0.04,1.06 0.05,1.17 0.09,2.18 0.54,1.31 1.70,2.46 3.25,3.34 2.19,1.24 5.18,2 8.5,2 3.31,0 6.32,-0.75 8.56,-2 1.34,-0.74 2.42,-1.69 3.09,-2.78 0.10,-1.28 0.13,-1.43 0.25,-2.81 a 0.50,0.50 0 0 0 -0.53,0.5 C 37.24,26.35 36.05,27.85 34,29 c -2.05,1.14 -4.93,1.87 -8.09,1.87 -3.16,0 -5.99,-0.73 -8,-1.87 -2.00,-1.13 -3.13,-2.64 -3.09,-4.21 a 0.50,0.50 0 0 0 -0.5,-0.53 0.50,0.50 0 0 0 -0.06,0 z m -0.03,3.68 c 0.04,1.11 0.05,1.63 0.09,2.56 0.04,0.09 0.10,0.18 0.15,0.28 A 0.50,0.50 0 0 0 14.34,30.75 c 0.04,1.12 0.09,2.49 0.12,3.18 0.60,1.15 1.59,2.18 2.84,3 2.16,1.40 5.15,2.25 8.43,2.25 3.28,0 6.25,-0.84 8.46,-2.25 1.14,-0.72 2.09,-1.59 2.75,-2.59 0.10,-1.28 0.29,-3.57 0.53,-6.37 a 0.50,0.50 0 0 0 -0.43,0.46 c -0.03,1.54 -1.21,3.03 -3.25,4.15 -2.03,1.11 -4.87,1.84 -8,1.84 -3.12,0 -5.92,-0.72 -7.90,-1.84 -1.98,-1.11 -3.09,-2.58 -3.06,-4.12 a 0.50,0.50 0 0 0 -0.53,-0.53 0.50,0.50 0 0 0 -0.06,0 0.50,0.50 0 0 0 -0.03,0 z m 0.59,3.34 c 0.62,0.83 1.52,1.58 2.59,2.18 2.17,1.22 5.12,1.96 8.40,1.96 3.27,0 6.28,-0.74 8.5,-1.96 1.09,-0.60 2.00,-1.32 2.65,-2.15 -0.06,1.81 -1.27,3.51 -3.28,4.78 -2.02,1.28 -4.82,2.09 -7.93,2.09 -3.10,0 -5.90,-0.81 -7.87,-2.09 -1.96,-1.27 -3.10,-2.97 -3.06,-4.81 z M 14.5,34.25 c 0.02,0.65 0.12,3.20 0.12,3.25 0,0.11 0.02,0.22 0.03,0.34 0.61,0.96 1.51,1.82 2.59,2.53 2.16,1.40 5.12,2.25 8.40,2.25 3.28,0 6.28,-0.84 8.5,-2.25 1.01,-0.64 1.83,-1.42 2.46,-2.28 0.02,-0.19 0.06,-0.39 0.06,-0.59 2.32e-4,-0.04 0.20,-2.43 0.25,-3.03 A 0.50,0.50 0 0 0 36.87,34.68 c -0.04,1.83 -1.22,3.56 -3.25,4.84 -2.02,1.28 -4.85,2.09 -7.96,2.09 -3.10,0 -5.90,-0.81 -7.87,-2.09 C 15.81,38.25 14.70,36.55 14.75,34.71 A 0.50,0.50 0 0 0 14.5,34.25 z" id="path3988" style="font-size:medium;font-style:normal;font-variant:normal;font-weight:normal;font-stretch:normal;text-indent:0;text-align:start;text-decoration:none;line-height:normal;letter-spacing:normal;word-spacing:normal;text-transform:none;direction:ltr;block-progression:tb;writing-mode:lr-tb;text-anchor:start;baseline-shift:baseline;color:#000000;fill:#303030;fill-opacity:0.08;font-family:Sans;-inkscape-font-specification:Sans" />
<path d="m 18.06,3.84 c -3.10,0.65 -5.12,1.66 -5.12,2.81 l 0,0.96 c 0,0.35 0.19,0.76 0.43,1.03 0.05,0.80 1.24,28.48 1.25,28.84 0,2.13 1.49,4.06 3.87,5.34 l -0.43,-39 z" id="path3931" style="fill:#322119;fill-opacity:0.10" />
<path d="m 38.5,5.21 c -0.67,6.93 -3.36,30.69 -9.06,38.84 4.22,-0.98 7.25,-3.53 7.25,-6.56 0.00,-0.41 2.42,-28.47 2.43,-28.78 0.38,-0.33 0.46,-0.72 0.46,-1.09 0,-0.23 -0.01,-0.63 0,-0.96 0,-0.50 -0.38,-0.99 -1.09,-1.43 z" id="path3933" style="fill:#f9fcfc;fill-opacity:0.16" />
<path d="m 28.21,25.53 c -1.99,0.14 -3.59,1.74 -3.59,3.56 0,1.82 1.59,3.20 3.59,3.06 1.99,-0.14 3.62,-1.74 3.62,-3.56 0,-1.82 -1.62,-3.20 -3.62,-3.06 z" id="path3929" style="color:#000000;fill:#897b64;stroke-width:0.5" />
<path d="m 33.78,3.68 -1,39.15 C 35.17,41.56 36.68,39.64 36.68,37.5 36.68,37.08 39.11,9.02 39.12,8.71 39.51,8.38 39.59,7.99 39.59,7.62 c 0,-0.23 -0.01,-0.63 0,-0.96 0,-1.23 -2.30,-2.32 -5.81,-2.96 z" id="path3935" style="fill:#fcfaf9;fill-opacity:0.10" />
<path d="M 15.90,4.43 C 14.07,5.05 12.93,5.80 12.93,6.65 l 0,0.96 c 0,0.35 0.19,0.76 0.43,1.03 0.05,0.80 1.24,28.48 1.25,28.84 0,1.61 0.87,3.09 2.31,4.28 L 15.90,4.43 z" id="path3937" style="fill:#322119;fill-opacity:0.16" />
<path d="m 26.28,4.03 c -7.36,0 -13.34,1.58 -13.34,3.56 0,1.98 5.97,3.59 13.34,3.59 7.36,0 13.31,-1.61 13.31,-3.59 0,-1.98 -5.94,-3.56 -13.31,-3.56 z" id="path4460" style="color:#000000;fill:#615955;stroke-width:0.69" />
<path d="m 26.28,3.06 c -7.36,0 -13.34,1.61 -13.34,3.59 0,1.98 5.97,3.59 13.34,3.59 7.36,0 13.31,-1.61 13.31,-3.59 0,-1.98 -5.94,-3.59 -13.31,-3.59 z" id="path3108" style="color:#000000;fill:#99aebc;stroke-width:0.69" />
<path d="m 26.28,3.06 c -7.36,0 -13.34,1.61 -13.34,3.59 0,1.60 3.94,2.94 9.34,3.40 C 21.05,7.83 21.14,5.58 22.81,5 c 2.34,-0.82 13.76,-0.33 10.37,4.71 3.83,-0.63 6.40,-1.76 6.40,-3.06 0,-1.98 -5.94,-3.59 -13.31,-3.59 z" id="path4504" style="color:#000000;fill:#4d6575;fill-opacity:0.35;stroke-width:0.69" />
<path d="m 28.09,25.84 c -0.59,0.11 -1.16,0.30 -1.75,0.34 -0.40,0.26 -0.75,0.56 -1.03,0.93 -0.12,0.33 -0.20,0.69 -0.28,1.03 -0.18,0.65 -0.15,1.35 -0.09,2.03 0.41,-0.13 0.95,-0.05 1.40,0.31 0.08,0.07 0.14,0.16 0.21,0.25 0.49,0.26 1.37,0.66 1.15,1.09 -0.27,-0.02 -0.52,-0.19 -0.75,-0.40 0.02,0.11 0.00,0.23 0,0.34 0.14,0.11 0.28,0.22 0.43,0.31 0.14,0.02 0.28,0.02 0.43,0.03 0.39,-0.17 0.65,-0.81 1.18,-0.84 0.35,-0.44 0.52,-0.73 1.15,-0.62 0.60,-0.06 1.41,-0.76 1.56,-1.37 0.04,-0.20 0.00,-0.40 -0.12,-0.56 -0.29,0.86 -1.40,1.22 -2.12,0.59 0.18,-0.65 -1.36,-0.40 -0.53,-1.15 0.13,-0.51 1.41,-0.71 0.93,-1.25 -0.57,0.09 -0.89,0.67 -1.56,0.40 0.07,0.06 0.12,0.16 0.15,0.25 0.53,0.08 0.27,0.62 -0.03,0.81 0.06,0.11 0.09,0.23 0.09,0.37 0,0.08 -0.03,0.17 -0.06,0.25 0.66,0.26 1.10,1.08 1.90,0.93 0.41,-0.13 0.82,-0.08 0.21,0.21 -0.51,0.31 -1.14,0.27 -1.65,0 0.00,-0.04 0.03,-0.08 0.03,-0.12 0,-0.32 -0.22,-0.63 -0.56,-0.87 -0.14,0.26 -0.40,0.46 -0.71,0.46 -0.46,0 -0.84,-0.39 -0.84,-0.87 0,-0.11 0.05,-0.20 0.09,-0.31 -0.01,-0.08 -0.04,-0.17 -0.09,-0.25 -0.14,-0.42 -0.18,-0.88 0.12,-1.28 0.50,-0.94 1.85,-0.92 2.65,-0.37 0.38,0.28 1.49,1.11 1.59,0.31 -0.09,-0.13 -0.19,-0.26 -0.31,-0.37 -0.68,-0.49 -1.53,-0.71 -2.37,-0.62 -0.15,0.00 -0.31,0.00 -0.46,0 z m 1.96,0.56 c 0.45,-0.03 0.98,0.61 0.25,0.18 -0.08,-0.05 -0.16,-0.11 -0.25,-0.18 z m -3.53,0.25 c 0.09,-0.01 0.21,-0.00 0.31,0 -0.27,0.30 -0.34,0.84 -0.43,1.21 -0.08,-0.02 -0.15,-0.06 -0.25,-0.06 -0.05,0 -0.10,0.02 -0.15,0.03 -0.30,-0.43 -0.49,-0.92 0.25,-1.09 0.09,-0.03 0.18,-0.07 0.28,-0.09 z M 25.5,27.59 c 0.07,0.07 0.17,0.19 0.25,0.31 -0.15,0.07 -0.26,0.20 -0.34,0.34 -0.02,-0.22 -0.02,-0.44 0.09,-0.65 z m -0.09,1.68 c 0.29,0.20 -0.17,0.37 0,0 z M 28.75,30.56 c 0.05,0.07 0.09,0.13 0.12,0.21 -0.31,0.30 -0.93,0.61 -1.25,0.15 0.48,0.00 0.88,-0.12 1.12,-0.37 z" id="path4349" style="font-size:medium;font-style:normal;font-variant:normal;font-weight:normal;font-stretch:normal;text-indent:0;text-align:start;text-decoration:none;line-height:normal;letter-spacing:normal;word-spacing:normal;text-transform:none;direction:ltr;block-progression:tb;writing-mode:lr-tb;text-anchor:start;baseline-shift:baseline;color:#000000;fill:#474034;fill-opacity:0.28;stroke-width:0.30;font-family:Sans;-inkscape-font-specification:Sans" />
<path d="m 28.06,25.56 c -0.72,0.08 -1.38,0.34 -1.93,0.75 1.42,0.10 3.01,0.14 4.43,-0.12 -0.51,-0.37 -1.16,-0.58 -1.87,-0.62 -0.20,0.00 -0.41,-0.00 -0.62,0 z m 2.96,1 c -1.55,0.41 -3.68,0.39 -5.43,0.25 -0.21,0.23 -0.41,0.47 -0.56,0.75 1.95,0.19 4.56,0.40 6.53,-0.25 -0.13,-0.27 -0.31,-0.52 -0.53,-0.75 z m 0.68,1.21 c -1.76,0.76 -4.82,0.62 -6.93,0.40 -0.07,0.25 -0.14,0.51 -0.15,0.78 2.07,0.22 5.10,0.48 7.21,-0.34 1.13e-4,-0.01 0,-0.02 0,-0.03 0,-0.28 -0.04,-0.55 -0.12,-0.81 z m 0.09,1.31 c -1.77,0.81 -5.00,0.63 -7.15,0.40 0.04,0.29 0.13,0.58 0.25,0.84 1.92,0.19 4.54,0.40 6.53,-0.21 0.17,-0.31 0.31,-0.67 0.37,-1.03 z m -0.84,1.68 c -1.61,0.49 -3.82,0.43 -5.59,0.25 0.35,0.41 0.79,0.74 1.34,0.93 0.78,0.05 1.59,0.06 2.40,0 0.73,-0.22 1.36,-0.64 1.84,-1.18 z" id="path4439" style="color:#000000;fill:#615747;fill-opacity:0.40;stroke-width:0.5" />
<path d="m 13.98,8.45 c 1.20,0.77 2.96,1.34 3.88,1.48" id="path4462" style="fill:none;stroke:#161c2f;stroke-width:1px;stroke-opacity:0.60" />
<path d="M 14.54,7.60 C 13.48,6.12 17.86,4.14 25.06,4.21 32.27,4.28 39.89,5.98 37.99,7.96" id="path4464" style="fill:none;stroke:#abc0d2;stroke-width:0.60" />
<path d="m 16.38,8.03 c -0.70,-1.48 2.33,-3.31 8.47,-3.17 6.14,0.14 12.85,0.91 11.51,3.31" id="path4466" style="color:#000000;fill:none;stroke:#abc0d2;stroke-width:0.80" />
<path d="M 18.92,8.52 C 18.14,7.46 17.65,6.12 22.31,5.70" id="path4468" style="color:#000000;fill:none;stroke:#abc0d2;stroke-width:0.89" />
<path d="m 30.29,5.55 c 4.94,1.20 4.94,2.18 4.02,2.96" id="path4470" style="color:#000000;fill:none;stroke:#abc0d2;stroke-width:0.89" />
<path d="m 17.58,6.97 c 1.41,-1.48 3.81,-1.90 8.47,-1.76 4.66,0.14 8.05,0.77 9.18,1.69" id="path4524" style="fill:none;stroke:#7b969f;stroke-width:0.5" />
<path d="m 21.84,9.93 c 2.39,0.20 5.57,0.36 8.74,0.00" id="path4526" style="fill:none;stroke:#ffffff;stroke-width:0.5;stroke-linecap:round;stroke-opacity:0.65" />
<path d="M 14.25,5.91 C 15.07,5.36 16.03,4.95 16.51,4.88" id="path4528" style="fill:none;stroke:#162540;stroke-width:0.89;stroke-opacity:0.40" />
<path d="m 32.48,3.99 c 2.26,0.47 4.72,0.82 6.03,2.33" id="path4530" style="color:#000000;fill:none;stroke:#162540;stroke-width:0.89;stroke-opacity:0.40" />
<path d="M 22.68,4.27 C 23.92,4.20 27.14,4.13 27.96,4.20" id="path4532" style="fill:none;stroke:#f3f3f3;stroke-width:0.60;stroke-linecap:round;stroke-opacity:0.50" />
<path d="m 18.30,9.41 c 3.18,0.57 8.80,1.21 13.96,0.38" id="path4578" style="fill:none;stroke:#ffffff;stroke-width:0.40;stroke-linecap:round;stroke-opacity:0.44" />
<path d="m 26.28,3.06 c -7.36,0 -13.34,1.61 -13.34,3.59 0,0.38 0,0.79 0,0.96 0,0.35 0.19,0.76 0.43,1.03 C 13.42,9.45 14.62,37.14 14.62,37.5 c 0,3.86 4.93,7 11.03,7 6.09,0 11.03,-3.13 11.03,-7 C 36.68,37.08 39.11,9.02 39.12,8.71 39.51,8.38 39.59,7.99 39.59,7.62 c 0,-0.23 -0.01,-0.63 0,-0.96 0,-1.98 -5.94,-3.59 -13.31,-3.59 z" id="stroke01" style="color:#000000;fill:none;stroke:#000000;stroke-width:0.5" />
</g>
</svg>
