<?xml version="1.0" encoding="UTF-8" standalone="no"?>

<svg xmlns:svg="http://www.w3.org/2000/svg" xmlns="http://www.w3.org/2000/svg" version="1.0" width="100%" height="100%" viewBox="0 0 48 48" id="_mercury01" style="display:inline">
<defs id="defs2818"/>
<path d="M 24.71,5.06 C 13.91,5.06 5.12,13.84 5.12,24.65 C 5.12,35.46 13.91,44.21 24.71,44.21 C 35.52,44.21 44.28,35.46 44.28,24.65 C 44.28,13.84 35.52,5.06 24.71,5.06 z" id="p3483" style="fill:#321709;fill-opacity:1;fill-rule:evenodd;stroke:none;marker:none;visibility:visible;display:inline;overflow:visible;enable-background:accumulate"/>
<path d="M 24.71,5.06 C 22.76,5.06 20.87,5.33 19.09,5.87 C 18.37,6.21 17.62,6.52 16.84,6.71 C 12.55,8.60 9.08,12.00 7.06,16.21 C 7.07,17.79 6.88,19.40 5.65,20.15 C 5.31,21.60 5.12,23.10 5.12,24.65 C 5.12,29.84 7.16,34.53 10.46,38.03 C 10.86,37.62 11.00,37.17 10.09,36.59 C 8.82,34.40 9.63,31.75 9.09,29.37 C 8.66,26.65 8.40,23.61 10.18,21.28 C 11.80,18.75 13.35,15.95 15.93,14.28 C 16.13,15.50 17.04,17.85 19.21,17.59 C 21.33,17.73 23.53,17.99 25.5,17 C 27.33,16.34 29.29,14.34 28.31,12.28 C 27.30,9.67 30.33,7.53 32.65,8.56 C 33.87,8.69 35.15,8.81 36.43,9 C 33.16,6.53 29.12,5.06 24.71,5.06 z" id="p3485" style="fill:#ad9f9a;fill-opacity:0.1;fill-rule:evenodd;stroke:none;"/>
<path d="M 42.53,16.59 C 42.43,16.84 42.32,17.06 42.18,17.28 C 40.89,19.22 38.13,20.28 36,19.09 C 33.81,18.63 33.58,22.87 31.09,21.34 C 28.40,21.45 29.51,25.31 31.84,24.90 C 33.38,24.93 35.60,27.24 33,27.59 C 30.50,27.91 28.76,29.74 27.06,31.28 C 24.65,31.32 24.91,28.57 24.87,26.96 C 23.64,25.65 21.39,26.80 20.53,28.06 C 18.74,28.97 17.25,32.00 15.06,31.09 C 12.40,30.48 10.85,33.27 10.31,35.43 C 10.05,35.89 9.85,36.62 9.81,37.34 C 10.36,37.99 10.98,38.58 11.62,39.15 C 13.01,37.90 12.64,34.08 15.31,34.71 C 17.54,35.63 17.41,38.59 19.06,40.06 C 20.75,40.27 22.48,39.90 24.09,40.71 C 26.28,40.57 26.08,37.37 28.62,37.90 C 29.81,37.97 32.14,37.53 32.59,38.5 C 31.92,40.86 28.52,40.39 27.56,42.46 C 27.69,43.34 28.17,43.69 28.75,43.78 C 29.52,43.61 30.28,43.40 31.03,43.15 C 31.41,42.94 31.79,42.71 32.06,42.5 C 32.54,42.08 33.32,41.96 33.34,42.18 C 35.70,41.02 37.79,39.40 39.5,37.43 C 38.97,36.34 35.95,36.54 37.62,34.90 C 38.97,33.18 38.21,30.36 40.28,29.09 C 41.70,27.18 42.89,25.12 44.21,23.15 C 44.04,20.83 43.44,18.62 42.53,16.59 z M 39.90,23 C 39.98,22.98 40.10,22.98 40.25,23 C 40.19,23.80 39.34,23.10 39.90,23 z" id="p3502" style="fill:#a9480b;fill-opacity:0.17;fill-rule:evenodd;stroke:none;"/>
<path d="M 17.25,6.53 C 14.38,7.71 11.86,9.58 9.87,11.90 C 11.34,11.56 13.01,11.42 13.65,13.06 C 14.94,14.37 16.79,13.77 18.37,14.09 C 19.58,14.44 21.30,15.03 21.34,16.53 C 20.06,17.92 21.14,20.03 22.56,20.84 C 23.63,21.65 25.21,21.38 25.96,20.28 C 26.88,19.34 27.10,17.82 28.28,17.15 C 30.39,16.68 30.49,19.34 31.18,20.59 C 32.43,21.91 35.18,21.25 35.34,19.31 C 35.43,18.01 32.66,17.38 33.90,19.06 C 33.60,20.80 31.72,19.79 32.65,18.37 C 32.87,16.78 32.43,14.99 31.06,14.03 C 31.56,12.58 31.24,10.74 29.46,10.5 C 27.22,9.69 24.81,10.21 22.5,10.21 C 21.21,10.25 18.51,11.33 19.21,9.12 C 19.03,7.97 18.25,7.04 17.25,6.53 z M 6.25,18.59 C 6.18,18.59 6.12,18.61 6.06,18.62 C 5.45,20.52 5.12,22.55 5.12,24.65 C 5.12,26.54 5.40,28.36 5.90,30.09 C 6.06,30.01 6.22,29.92 6.37,29.78 C 7.50,28.37 7.40,26.44 8.09,24.84 C 8.53,22.95 8.71,20.75 7.59,19.06 C 7.16,18.70 6.70,18.57 6.25,18.59 z" id="p3516" style="fill:#f8efeb;fill-opacity:0.06;fill-rule:evenodd;stroke:none;"/>
<path d="M 29.53,16.62 C 29.90,18.64 32.30,18.92 33.46,20.31 C 34.19,20.77 36.34,22.63 34.59,22.87 C 33.48,22.25 31.19,20.33 30.81,22.65 C 30.57,24.21 33.39,25.48 32.53,26.65 C 30.69,26.75 31.03,29.89 32.84,29.40 C 33.89,28.27 35.83,29.55 34.81,30.81 C 33.48,31.12 32.20,30.79 30.84,31.06 C 28.90,30.77 27.83,28.80 25.90,28.46 C 24.49,27.95 23.43,26.00 24.31,24.62 C 26.07,23.47 24.05,22.43 23.43,21.37 C 23.54,20.52 24.34,19.00 22.78,19 C 20.63,19.35 21.27,21.86 22.25,23.09 C 22.43,24.34 21.28,25.35 20.78,26.46 C 19.46,26.94 17.92,27.07 16.53,26.78 C 15.21,26.43 13.55,25.78 13.18,24.34 C 12.98,23.14 12.80,20.91 11.06,21.37 C 10.35,22.10 7.94,22.96 9.40,24.06 C 10.10,25.02 11.67,24.76 12.25,24.46 C 12.90,26.64 10.08,27.14 9.21,28.5 C 9.26,30.23 11.45,29.30 12.53,29.5 C 14.58,29.55 16.70,29.86 18.53,30.87 C 19.01,31.99 17.69,34.17 19.59,34.34 C 19.66,35.95 17.58,34.15 18.28,33.25 C 17.65,31.47 15.53,33.04 16.46,34.43 C 17.12,36.51 19.48,36.05 21.03,36.65 C 23.76,37.68 26.81,36.39 28.81,34.46 C 29.59,33.74 31.07,32.34 31.56,32.21 C 30.84,33.12 31.71,34.54 32.68,34 C 33.80,35.27 31.90,36.40 30.96,37.06 C 30.07,37.16 28.64,39.28 30.28,39.03 C 32.12,38.48 33.72,37.09 34.06,35.15 C 35.07,33.49 36.06,31.80 36.96,30.09 C 38.32,28.50 37.62,26.01 39.28,24.59 C 40.61,23.12 41.91,21.58 42.84,19.81 C 43.30,20.86 42.00,23.44 43.46,23.46 C 44.04,22.13 43.37,20.64 43.53,19.28 C 43.40,18.83 43.25,18.40 43.09,17.96 C 43.08,17.96 43.07,17.94 43.06,17.93 C 42.98,17.85 42.94,17.76 43,17.68 C 42.88,17.39 42.78,17.10 42.65,16.81 C 41.68,16.88 40.53,17.69 40.53,18.71 C 39.75,20.28 39.64,22.34 38.12,23.43 C 37.91,22.33 38.02,20.58 36.53,20.03 C 34.75,19.39 32.69,19.43 31.34,17.87 C 30.76,17.41 30.19,16.95 29.53,16.62 z M 41.81,17.46 C 43.31,18.85 41.69,20.79 40.71,21.96 C 39.69,23.30 38.60,24.61 37.21,25.59 C 36.50,26.36 34.78,27.45 36.43,28.34 C 37.16,29.62 35.30,30.20 34.78,28.96 C 33.26,27.67 33.63,25.22 31.93,24.06 C 31.06,23.28 31.87,21.28 32.87,22.71 C 33.59,23.65 35.58,23.65 36.03,22.87 C 36.20,22.57 36.14,22.15 35.68,21.62 C 35.09,21.24 33.61,19.74 35.31,20.09 C 37.08,20.54 37.66,22.52 37.28,24.03 C 38.64,25.44 39.70,22.53 40.06,21.46 C 40.78,20.20 41.42,18.84 41.81,17.46 z M 36.03,22.87 C 36.00,22.95 36.06,22.91 36.09,22.87 C 36.08,22.87 36.06,22.85 36.03,22.87 z M 22.56,19.46 C 23.71,20.21 21.66,22.60 23.71,22.53 C 25.30,23.48 23.12,24.71 23.25,25.78 C 23.50,27.66 25.60,28.73 25.65,30.65 C 25.29,32.26 22.77,31.34 24.03,29.90 C 24.38,28.01 21.81,27.13 22.09,25.28 C 23.94,24.07 22.29,22.11 22,20.62 C 22.00,20.18 22.19,19.72 22.56,19.46 z M 11.43,21.81 C 11.58,21.80 11.73,21.83 11.87,21.90 C 13.91,23.41 9.14,25.03 10.40,22.56 C 10.56,22.14 10.99,21.82 11.43,21.81 z M 12.90,25.09 C 13.99,26.96 16.32,27.52 18.34,27.56 C 20.07,26.45 21.44,29.25 20.71,30.59 C 19.37,31.21 19.98,32.18 20.40,33.12 C 20.15,34.90 18.87,33.16 19.25,32.15 C 19.49,30.31 17.92,29.46 16.34,29.37 C 14.22,28.85 12.03,28.94 9.87,28.81 C 10.75,27.48 13.08,27.02 12.90,25.09 z M 37.09,26.68 C 37.87,27.94 35.52,27.69 36.46,26.87 C 36.66,26.77 36.88,26.72 37.09,26.68 z M 21.53,26.87 C 23.50,27.61 23.18,30.02 23.34,31.65 C 24.53,33.54 26.67,30.75 26.65,30.21 C 27.59,31.76 25.89,33.83 24.28,34.06 C 22.96,34.76 20.69,34.77 20.87,32.78 C 20.65,31.34 22.25,30.31 21.09,28.78 C 20.84,28.13 20.64,27.12 21.53,26.87 z M 32.21,27.28 C 33.88,27.00 32.12,30.05 32.06,28.09 C 32.07,27.81 32.13,27.54 32.21,27.28 z M 26,28.81 C 26.76,28.81 25.87,29.50 26,28.81 z M 27.34,29.87 C 28.33,30.46 31.33,31.52 29.75,32.87 C 28.07,34.31 26.36,36.04 24.06,36.31 C 23.36,37.01 21.78,35.87 23.40,35.78 C 25.45,34.93 27.21,33.06 27.53,30.84 C 27.52,30.51 27.45,30.18 27.34,29.87 z M 35.5,31.12 C 35.77,32.88 33.44,34.25 32.18,32.90 C 32.43,31.18 34.48,31.80 35.5,31.12 z M 17.62,32.90 C 16.46,33.44 19.16,35.65 17.5,35.09 C 17.05,34.48 16.64,33.23 17.62,32.90 z M 20.62,34.93 C 21.49,34.91 22.79,35.44 21.31,35.90 C 20.59,36.16 19.32,35.31 20.62,34.93 z M 33.06,35.96 C 33.58,36.94 30.42,38.40 31.78,37.18 C 32.22,36.81 32.67,36.40 33.06,35.96 z" id="p3532" style="fill:#671e03;fill-opacity:0.30;fill-rule:evenodd;stroke:none;"/>
<path d="M 25.59,6.03 C 24.12,6.45 24.33,8.25 24.31,9.46 C 24.76,11.31 22.79,11.76 21.43,11.25 C 19.95,11.32 18.89,10.29 17.84,9.40 C 18.76,8.68 20.36,11.11 21.78,10.59 C 20.67,8.76 18.23,8.72 16.34,8.93 C 14.69,9.12 12.65,9.60 12,11.34 C 12.06,12.59 10.42,13.30 10.12,11.78 C 10.10,11.74 10.08,11.71 10.06,11.68 C 9.96,11.79 9.87,11.89 9.78,12 C 10.60,12.66 11.30,13.46 11.03,14.56 C 10.19,16.04 9.30,17.53 8.09,18.75 C 8.49,18.23 8.92,16.27 7.96,17.65 C 7.25,19.18 6.13,20.46 5.34,21.93 C 5.27,22.42 5.21,22.90 5.18,23.40 C 5.32,23.33 5.44,23.10 5.5,22.71 C 5.67,22.13 6.48,21.59 6,22.56 C 5.63,24.04 5.11,25.60 5.59,27.12 C 5.93,25.25 6.06,23.35 6.53,21.53 C 6.65,20.54 8.08,20.42 8.37,20.31 C 8.08,18.75 9.89,16.48 10.93,18.62 C 11.86,19.58 13.05,18.75 12.40,17.59 C 12.48,16.33 13.34,17.24 13.71,17.62 C 15.00,17.83 16.84,17.14 16.81,15.62 C 16.53,13.72 14.67,15.02 14,15.93 C 12.26,16.59 11.13,13.17 12.87,12.46 C 14.62,12.86 15.90,11.20 17.59,11.31 C 18.72,11.38 19.80,11.76 20.81,12.28 C 22.01,12.98 23.36,12.76 24.53,12.12 C 25.40,11.74 27.40,11.86 27.59,12.59 C 25.96,11.66 25.80,14.03 24.21,13.87 C 22.50,14.12 20.66,15.75 21.21,17.62 C 21.43,19.29 19.42,16.33 19.96,17.96 C 20.62,18.70 20.88,21.11 21.62,20.84 C 21.52,20.04 21.88,18.94 22.56,20.12 C 23.05,20.96 25.59,22.03 24.90,20.21 C 23.89,18.73 25.06,16.75 26.78,17.31 C 27.69,16.44 25.18,15.67 26.09,14.5 C 26.91,12.50 30.04,14.13 28.87,16 C 29.62,17.31 31.30,18.31 32.71,18.71 C 31.64,17.97 30.76,16.62 30.37,15.25 C 29.89,13.34 28.22,12.25 26.90,10.93 C 25.71,10.28 24.93,8.65 25.93,7.78 C 25.85,7.78 25.75,7.76 25.65,7.75 C 24.48,9.04 24.65,7.09 25.18,6.53 C 26.02,5.79 26.75,6.90 26.43,7.46 C 26.48,7.44 26.53,7.42 26.59,7.40 C 28.48,6.80 29.30,9.35 30.90,9.71 C 32.40,9.69 34.11,9.15 35.21,8.12 C 35.01,7.99 34.79,7.90 34.59,7.78 C 34.25,8.02 33.73,8.17 33.37,7.87 C 32.41,7.72 32.67,7.25 33.18,7 C 33.07,6.94 32.95,6.89 32.84,6.84 C 32.73,6.91 32.59,7.00 32.28,7.09 C 31.52,7.78 32.92,9.70 31.09,9.34 C 29.47,9.18 29.98,6.65 31.21,6.37 C 31.36,6.36 31.58,6.39 31.81,6.40 C 31.49,6.28 31.16,6.16 30.84,6.06 C 30.08,6.45 29.65,8.44 29.21,6.75 C 28.26,5.80 26.69,6.56 25.59,6.03 z M 26.43,7.46 C 26.23,7.55 26.07,7.66 25.93,7.78 C 26.19,7.75 26.35,7.62 26.43,7.46 z M 28.34,6.5 C 29.19,6.67 29.56,8.86 28.5,7.43 C 28.13,7.23 27.47,6.57 28.34,6.5 z M 32.40,8.09 C 33.03,8.14 34.80,8.23 33.25,8.68 C 32.85,8.75 32.58,8.37 32.40,8.09 z M 24.75,8.78 C 24.64,9.99 27.68,10.94 26.40,11.78 C 24.74,11.83 23.98,10.14 24.75,8.78 z M 15.65,9.5 C 14.24,9.52 14.97,11.28 15.15,11.65 C 14.28,12.69 11.22,12.18 12.90,10.65 C 13.62,9.92 14.65,9.56 15.65,9.5 z M 16.71,9.5 C 17.61,9.30 20.00,11.13 18.06,11.12 C 17.14,11.41 14.74,10.64 16.28,9.65 L 16.5,9.56 L 16.71,9.5 z M 20.34,9.84 C 20.75,9.81 20.70,10.33 20.34,9.84 z M 15.12,10.37 C 15.85,11.01 14.37,10.63 15.12,10.37 z M 20.65,11.62 C 21.43,11.92 23.86,11.14 23.59,12.18 C 22.61,12.56 21.41,12.36 20.65,11.62 z M 26.53,12.65 C 27.36,13.08 28.94,13.00 29.25,13.90 C 28.56,13.06 26.76,13.96 26.53,12.65 z M 25.90,13.71 C 25.12,14.64 26.25,16.27 26.06,16.84 C 24.05,16.62 23.61,19.24 24.65,20.43 C 23.95,21.40 22.51,19.62 21.90,19 C 20.87,17.45 21.63,15.05 23.46,14.53 C 24.25,14.18 25.09,13.99 25.90,13.71 z M 11.62,14.43 C 12.25,15.20 10.14,15.91 11.34,14.87 C 11.43,14.73 11.53,14.58 11.62,14.43 z M 15.78,14.84 C 17.45,15.67 15.20,17.80 14.03,16.90 C 13.69,18.01 13.48,15.70 14.40,16.25 C 14.98,15.89 15.13,15.11 15.78,14.84 z M 29.62,15.03 C 30.52,15.24 30.85,17.80 29.62,16.53 C 29.01,16.24 29.05,15.34 29.62,15.03 z M 12.03,15.18 C 13.49,16.03 11.63,17.00 12.12,18.12 C 11.81,19.61 9.59,17.23 10.71,16.37 C 11.03,15.87 11.49,15.44 12.03,15.18 z M 20.62,18.5 C 21.49,18.68 21.07,20.27 20.81,18.87 C 20.75,18.74 20.68,18.62 20.62,18.5 z M 7.59,19.34 C 8.66,20.29 6.66,20.20 7.59,19.34 z" id="p3547" style="fill:#d8cec8;fill-opacity:0.12;fill-rule:evenodd;stroke:none;"/>
<path d="M 26.11,33.39 A 5.47,4.74 0 1 1 15.15,33.39 A 5.47,4.74 0 1 1 26.11,33.39 z" id="p3560" style="opacity:1;fill:#e77716;fill-opacity:0.11;fill-rule:evenodd;stroke:none;marker:none;visibility:visible;display:inline;overflow:visible;enable-background:accumulate"/>
<path d="M 17.25,33.11 C 24.92,31.01 24.83,36.77 20.63,38.59" id="p3615" style="fill:none;fill-rule:evenodd;stroke:#eb7519;stroke-width:4.40;stroke-linecap:round;stroke-linejoin:miter;stroke-miterlimit:4;stroke-dasharray:none;stroke-opacity:0.29"/>
<path d="M 24.10,27.00 A 1.91,1.46 0 1 1 20.26,27.00 A 1.91,1.46 0 1 1 24.10,27.00 z" id="p3562" style="opacity:1;fill:#cb5732;fill-opacity:0.11;fill-rule:evenodd;stroke:none;marker:none;visibility:visible;display:inline;overflow:visible;enable-background:accumulate"/>
<path d="M 34.75,27.12 C 33.17,27.04 31.53,27.74 30.43,29.12 C 28.68,31.33 28.96,34.46 31.06,36.12 C 33.15,37.78 36.28,37.33 38.03,35.12 C 39.78,32.91 39.50,29.75 37.40,28.09 C 36.62,27.47 35.69,27.17 34.75,27.12 z" id="p3564" style="opacity:1;fill:#cb5732;fill-opacity:0.11;fill-rule:evenodd;stroke:none;marker:none;visibility:visible;display:inline;overflow:visible;enable-background:accumulate"/>
<path d="M 32.90,19.09 C 32.34,19.11 31.73,19.27 31.15,19.59 C 29.60,20.43 28.80,22.01 29.40,23.12 C 30.00,24.23 31.76,24.46 33.31,23.62 C 34.86,22.78 35.62,21.20 35.03,20.09 C 34.65,19.40 33.84,19.05 32.90,19.09 z" id="p3566" style="opacity:1;fill:#cb5732;fill-opacity:0.17;fill-rule:evenodd;stroke:none;marker:none;visibility:visible;display:inline;overflow:visible;enable-background:accumulate"/>
<path d="M 16.25,30.47 C 20.45,35.21 30.31,37.59 34.50,35.03" id="p3570" style="fill:none;fill-rule:evenodd;stroke:#a0432a;stroke-width:7.19;stroke-linecap:round;stroke-linejoin:miter;stroke-miterlimit:4;stroke-dasharray:none;stroke-opacity:0.22"/>
<path d="M 23.18,36.86 C 32.13,37.40 36.33,30.83 33.77,25.72" id="p3572" style="fill:none;fill-rule:evenodd;stroke:#803636;stroke-width:10;stroke-linecap:round;stroke-linejoin:miter;stroke-miterlimit:4;stroke-dasharray:none;stroke-opacity:0.18"/>
<path d="M 18.90,30.65 C 17.54,30.65 16.43,31.63 16.43,32.84 C 16.43,34.05 17.54,35.03 18.90,35.03 C 19.66,35.03 20.32,34.72 20.78,34.25 C 21.20,35.23 22.42,35.93 23.84,35.93 C 25.60,35.93 27.03,34.82 27.03,33.46 C 27.03,32.10 25.60,31.03 23.84,31.03 C 22.74,31.03 21.76,31.43 21.18,32.09 C 20.83,31.25 19.96,30.65 18.90,30.65 z" id="p3574" style="opacity:1;fill:#ffe73c;fill-opacity:0.19;fill-rule:evenodd;stroke:none;marker:none;visibility:visible;display:inline;overflow:visible;enable-background:accumulate"/>
<path d="M 22.45,37.59 A 1.82,1.82 0 1 1 18.80,37.59 A 1.82,1.82 0 1 1 22.45,37.59 z" id="p3579" style="opacity:1;fill:#ffe73c;fill-opacity:0.19;fill-rule:evenodd;stroke:none;marker:none;visibility:visible;display:inline;overflow:visible;enable-background:accumulate"/>
<path d="M 33.04,33.84 A 1.09,1.00 0 1 1 30.85,33.84 A 1.09,1.00 0 1 1 33.04,33.84 z" id="p3581" style="opacity:1;fill:#ffe73c;fill-opacity:0.44;fill-rule:evenodd;stroke:none;marker:none;visibility:visible;display:inline;overflow:visible;enable-background:accumulate"/>
<path d="M 23.5,32.46 C 22.36,32.54 21.44,33.24 21.37,34.12 C 21.29,35.12 22.33,36.01 23.68,36.12 C 25.04,36.23 26.19,35.50 26.28,34.5 C 26.34,33.74 25.79,33.06 24.93,32.71 C 24.65,32.60 24.30,32.49 23.96,32.46 C 23.79,32.45 23.66,32.45 23.5,32.46 z" id="p3583" style="opacity:1;fill:#ffe73c;fill-opacity:0.62;fill-rule:evenodd;stroke:none;marker:none;visibility:visible;display:inline;overflow:visible;enable-background:accumulate"/>
<path d="M 19.90,33.02 A 1.09,1.09 0 1 1 17.71,33.02 A 1.09,1.09 0 1 1 19.90,33.02 z" transform="translate(-0.91,-0.54)" id="p3585" style="opacity:1;fill:#ffe73c;fill-opacity:0.78;fill-rule:evenodd;stroke:none;marker:none;visibility:visible;display:inline;overflow:visible;enable-background:accumulate"/>
<path d="M 21.69,37.73 A 1.29,1.22 0 1 1 19.10,37.73 A 1.29,1.22 0 1 1 21.69,37.73 z" id="p3588" style="opacity:1;fill:#ffe73c;fill-opacity:0.62;fill-rule:evenodd;stroke:none;marker:none;visibility:visible;display:inline;overflow:visible;enable-background:accumulate"/>
<path d="M 30.98,37.86 A 0.83,0.83 0 1 1 29.30,37.86 A 0.83,0.83 0 1 1 30.98,37.86 z" id="p3590" style="opacity:1;fill:#ffe73c;fill-opacity:0.62;fill-rule:evenodd;stroke:none;marker:none;visibility:visible;display:inline;overflow:visible;enable-background:accumulate"/>
<path d="M 37.82,32.70 A 0.64,0.58 0 1 1 36.53,32.70 A 0.64,0.58 0 1 1 37.82,32.70 z" id="p3592" style="opacity:1;fill:#ffe73c;fill-opacity:0.62;fill-rule:evenodd;stroke:none;marker:none;visibility:visible;display:inline;overflow:visible;enable-background:accumulate"/>
<path d="M 32.66,27.34 A 0.96,0.90 0 1 1 30.72,27.34 A 0.96,0.90 0 1 1 32.66,27.34 z" id="p3594" style="opacity:1;fill:#ffe73c;fill-opacity:0.62;fill-rule:evenodd;stroke:none;marker:none;visibility:visible;display:inline;overflow:visible;enable-background:accumulate"/>
<path d="M 34.34,28.82 A 0.58,0.58 0 1 1 33.18,28.82 A 0.58,0.58 0 1 1 34.34,28.82 z" id="p3596" style="opacity:1;fill:#ffe73c;fill-opacity:0.62;fill-rule:evenodd;stroke:none;marker:none;visibility:visible;display:inline;overflow:visible;enable-background:accumulate"/>
<path d="M 25.19,33.84 A 2.00,1.46 0 1 1 21.18,33.84 A 2.00,1.46 0 1 1 25.19,33.84 z" id="p3599" style="opacity:1;fill:#fff5a7;fill-opacity:0.62;fill-rule:evenodd;stroke:none;marker:none;visibility:visible;display:inline;overflow:visible;enable-background:accumulate"/>
<path d="M 30.40,37.91 A 0.63,0.59 0 1 1 29.12,37.91 A 0.63,0.59 0 1 1 30.40,37.91 z" id="p3601" style="opacity:1;fill:#fff5a7;fill-opacity:0.62;fill-rule:evenodd;stroke:none;marker:none;visibility:visible;display:inline;overflow:visible;enable-background:accumulate"/>
<path d="M 19.62,32.84 A 1.00,0.91 0 1 1 17.62,32.84 A 1.00,0.91 0 1 1 19.62,32.84 z" id="p3603" style="opacity:1;fill:#fff5a7;fill-opacity:0.62;fill-rule:evenodd;stroke:none;marker:none;visibility:visible;display:inline;overflow:visible;enable-background:accumulate"/>
<path d="M 33.14,33.66 A 0.86,0.91 0 1 1 31.40,33.66 A 0.86,0.91 0 1 1 33.14,33.66 z" id="p3605" style="opacity:1;fill:#fff5a7;fill-opacity:0.62;fill-rule:evenodd;stroke:none;marker:none;visibility:visible;display:inline;overflow:visible;enable-background:accumulate"/>
<path d="M 21.56,37.21 A 1.22,1.09 0 1 1 19.10,37.21 A 1.22,1.09 0 1 1 21.56,37.21 z" id="p3607" style="opacity:1;fill:#fff5a7;fill-opacity:0.62;fill-rule:evenodd;stroke:none;marker:none;visibility:visible;display:inline;overflow:visible;enable-background:accumulate"/>
<path d="M 14.07,11.59 C 17.56,9.88 23.15,10.88 25.04,13.52" id="p3609" style="fill:none;fill-rule:evenodd;stroke:#b28954;stroke-width:5.40;stroke-linecap:round;stroke-linejoin:miter;stroke-miterlimit:4;stroke-dasharray:none;stroke-opacity:0.14"/>
<path d="M 16.52,23.85 C 18.20,23.33 19.10,17.91 16.78,16.62" id="p3611" style="opacity:1;fill:none;fill-opacity:1;fill-rule:evenodd;stroke:#b28954;stroke-width:4.30;stroke-linecap:round;stroke-linejoin:miter;marker:none;stroke-miterlimit:4;stroke-dasharray:none;stroke-dashoffset:0;stroke-opacity:0.12;visibility:visible;display:inline;overflow:visible;enable-background:accumulate"/>
<path d="M 18.33,21.91 C 20.91,21.79 24.53,22.56 26.59,17.91" id="p3613" style="opacity:1;fill:none;fill-opacity:1;fill-rule:evenodd;stroke:#b28954;stroke-width:3.79;stroke-linecap:round;stroke-linejoin:miter;marker:none;stroke-miterlimit:4;stroke-dasharray:none;stroke-dashoffset:0;stroke-opacity:0.06;visibility:visible;display:inline;overflow:visible;enable-background:accumulate"/>
<path d="M 26.59,18.11 A 1.87,1.61 0 1 1 22.85,18.11 A 1.87,1.61 0 1 1 26.59,18.11 z" id="p3617" style="opacity:1;fill:#fff5a7;fill-opacity:0.09;fill-rule:evenodd;stroke:none;marker:none;visibility:visible;display:inline;overflow:visible;enable-background:accumulate"/>
<path d="M 24.53,13.84 A 2.38,1.74 0 1 1 19.75,13.84 A 2.38,1.74 0 1 1 24.53,13.84 z" id="p3619" style="opacity:1;fill:#fff5a7;fill-opacity:0.09;fill-rule:evenodd;stroke:none;marker:none;visibility:visible;display:inline;overflow:visible;enable-background:accumulate"/>
<path d="M 32.71,16.18 C 31.93,16.16 31.24,16.53 31,17.18 C 30.67,18.05 31.27,19.09 32.34,19.5 C 33.41,19.90 34.51,19.52 34.84,18.65 C 35.17,17.78 34.59,16.74 33.53,16.34 C 33.26,16.24 32.97,16.19 32.71,16.18 z" id="p3621" style="opacity:1;fill:#fff5a7;fill-opacity:0.09;fill-rule:evenodd;stroke:none;marker:none;visibility:visible;display:inline;overflow:visible;enable-background:accumulate"/>
<path d="M 18.85,23.21 A 1.61,1.42 0 1 1 15.62,23.21 A 1.61,1.42 0 1 1 18.85,23.21 z" id="p3624" style="opacity:1;fill:#fff5a7;fill-opacity:0.09;fill-rule:evenodd;stroke:none;marker:none;visibility:visible;display:inline;overflow:visible;enable-background:accumulate"/>
<path d="M 15.23,18.30 A 1.61,1.03 0 1 1 12.00,18.30 A 1.61,1.03 0 1 1 15.23,18.30 z" id="p3626" style="opacity:1;fill:#fff5a7;fill-opacity:0.09;fill-rule:evenodd;stroke:none;marker:none;visibility:visible;display:inline;overflow:visible;enable-background:accumulate"/>
<path d="M 29.65,7.40 C 29.25,7.43 28.91,7.60 28.75,7.90 C 28.42,8.50 28.90,9.41 29.81,9.90 C 30.71,10.40 31.73,10.31 32.06,9.71 C 32.38,9.12 31.90,8.24 31,7.75 C 30.54,7.50 30.06,7.37 29.65,7.40 z" id="p3628" style="opacity:1;fill:#fff5a7;fill-opacity:0.09;fill-rule:evenodd;stroke:none;marker:none;visibility:visible;display:inline;overflow:visible;enable-background:accumulate"/>
<path d="M 26.20,17.00 A 1.09,0.77 0 1 1 24.01,17.00 A 1.09,0.77 0 1 1 26.20,17.00 z" id="p3631" style="opacity:1;fill:#ffc679;fill-opacity:0.40;fill-rule:evenodd;stroke:none;marker:none;visibility:visible;display:inline;overflow:visible;enable-background:accumulate"/>
<path d="M 18.98,23.62 A 1.09,0.82 0 1 1 16.79,23.62 A 1.09,0.82 0 1 1 18.98,23.62 z" id="p3633" style="opacity:1;fill:#ffeb4c;fill-opacity:0.40;fill-rule:evenodd;stroke:none;marker:none;visibility:visible;display:inline;overflow:visible;enable-background:accumulate"/>
<path d="M 23.64,16.13 A 0.73,0.63 0 1 1 22.18,16.13 A 0.73,0.63 0 1 1 23.64,16.13 z" id="p3635" style="opacity:1;fill:#fff6a7;fill-opacity:0.40;fill-rule:evenodd;stroke:none;marker:none;visibility:visible;display:inline;overflow:visible;enable-background:accumulate"/>
<path d="M 23.91,11.80 A 1.46,1.04 0 1 1 20.99,11.80 A 1.46,1.04 0 1 1 23.91,11.80 z" id="p3637" style="opacity:1;fill:#fff6a7;fill-opacity:0.40;fill-rule:evenodd;stroke:none;marker:none;visibility:visible;display:inline;overflow:visible;enable-background:accumulate"/>
<path d="M 23.73,12.02 A 0.82,0.63 0 1 1 22.09,12.02 A 0.82,0.63 0 1 1 23.73,12.02 z" id="p3639" style="opacity:1;fill:#fff6a7;fill-opacity:0.40;fill-rule:evenodd;stroke:none;marker:none;visibility:visible;display:inline;overflow:visible;enable-background:accumulate"/>
<path d="M 8.39,22.43 A 0.64,1.03 0 1 1 7.10,22.43 A 0.64,1.03 0 1 1 8.39,22.43 z" id="p3641" style="opacity:1;fill:#fff6a7;fill-opacity:0.40;fill-rule:evenodd;stroke:none;marker:none;visibility:visible;display:inline;overflow:visible;enable-background:accumulate"/>
<path d="M 12.52,17.40 A 0.64,0.64 0 1 1 11.23,17.40 A 0.64,0.64 0 1 1 12.52,17.40 z" id="p3643" style="opacity:1;fill:#fff6a7;fill-opacity:0.63;fill-rule:evenodd;stroke:none;marker:none;visibility:visible;display:inline;overflow:visible;enable-background:accumulate"/>
<path d="M 15.49,13.91 A 0.77,0.77 0 1 1 13.94,13.91 A 0.77,0.77 0 1 1 15.49,13.91 z" id="p3645" style="opacity:1;fill:#fff6a7;fill-opacity:0.30;fill-rule:evenodd;stroke:none;marker:none;visibility:visible;display:inline;overflow:visible;enable-background:accumulate"/>
<path d="M 17.34,8.06 C 17.10,8.07 16.80,8.14 16.5,8.28 C 15.88,8.56 15.47,8.99 15.59,9.25 C 15.71,9.50 16.32,9.50 16.93,9.21 C 17.55,8.93 17.96,8.50 17.84,8.25 C 17.78,8.12 17.58,8.05 17.34,8.06 z" id="p3647" style="opacity:1;fill:#fff6a7;fill-opacity:0.40;fill-rule:evenodd;stroke:none;marker:none;visibility:visible;display:inline;overflow:visible;enable-background:accumulate"/>
<path d="M 12.52,31.92 A 0.71,0.71 0 1 1 11.10,31.92 A 0.71,0.71 0 1 1 12.52,31.92 z" id="p3650" style="opacity:1;fill:#ffef5a;fill-opacity:0.23;fill-rule:evenodd;stroke:none;marker:none;visibility:visible;display:inline;overflow:visible;enable-background:accumulate"/>
<path d="M 9.81,31.02 A 0.64,0.83 0 1 1 8.52,31.02 A 0.64,0.83 0 1 1 9.81,31.02 z" transform="matrix(0.93,-0.34,0.34,0.93,-10.07,5.02)" id="p3652" style="opacity:1;fill:#ffef5a;fill-opacity:0.62;fill-rule:evenodd;stroke:none;marker:none;visibility:visible;display:inline;overflow:visible;enable-background:accumulate"/>
<path d="M 23.75,27.85 A 0.71,0.64 0 1 1 22.33,27.85 A 0.71,0.64 0 1 1 23.75,27.85 z" id="p3654" style="opacity:1;fill:#ffef5a;fill-opacity:0.47;fill-rule:evenodd;stroke:none;marker:none;visibility:visible;display:inline;overflow:visible;enable-background:accumulate"/>
<path d="M 30.08,9.00 A 0.90,0.64 0 1 1 28.27,9.00 A 0.90,0.64 0 1 1 30.08,9.00 z" id="p3656" style="opacity:1;fill:#fff48d;fill-opacity:0.47;fill-rule:evenodd;stroke:none;marker:none;visibility:visible;display:inline;overflow:visible;enable-background:accumulate"/>
<path d="M 42.60,20.56 A 0.51,1.22 0 1 1 41.57,20.56 A 0.51,1.22 0 1 1 42.60,20.56 z" id="p3658" style="opacity:1;fill:#fff48d;fill-opacity:0.71;fill-rule:evenodd;stroke:none;marker:none;visibility:visible;display:inline;overflow:visible;enable-background:accumulate"/>
<path d="M 38.21,24.82 A 0.71,0.71 0 1 1 36.79,24.82 A 0.71,0.71 0 1 1 38.21,24.82 z" id="p3660" style="opacity:1;fill:#fff48d;fill-opacity:0.47;fill-rule:evenodd;stroke:none;marker:none;visibility:visible;display:inline;overflow:visible;enable-background:accumulate"/>
<path d="M 32.14,17.85 A 0.64,0.58 0 1 1 30.85,17.85 A 0.64,0.58 0 1 1 32.14,17.85 z" id="p3662" style="opacity:1;fill:#fff48d;fill-opacity:0.47;fill-rule:evenodd;stroke:none;marker:none;visibility:visible;display:inline;overflow:visible;enable-background:accumulate"/>
<path d="M 25.95,6.68 A 1.48,0.64 0 1 1 22.98,6.68 A 1.48,0.64 0 1 1 25.95,6.68 z" id="p3664" style="opacity:1;fill:#ffeab5;fill-opacity:0.47;fill-rule:evenodd;stroke:none;marker:none;visibility:visible;display:inline;overflow:visible;enable-background:accumulate"/>
<path d="M 27.24,41.80 A 1.16,0.51 0 1 1 24.91,41.80 A 1.16,0.51 0 1 1 27.24,41.80 z" id="p3666" style="opacity:1;fill:#ffc679;fill-opacity:0.40;fill-rule:evenodd;stroke:none;marker:none;visibility:visible;display:inline;overflow:visible;enable-background:accumulate"/>
<path d="M 39.37,17.40 A 0.58,0.77 0 1 1 38.21,17.40 A 0.58,0.77 0 1 1 39.37,17.40 z" id="p3668" style="opacity:1;fill:#ffc679;fill-opacity:0.40;fill-rule:evenodd;stroke:none;marker:none;visibility:visible;display:inline;overflow:visible;enable-background:accumulate"/>
<path d="M 32.5,13.71 C 32.15,13.69 31.80,13.84 31.65,14.15 C 31.45,14.57 31.64,15.09 32.09,15.31 C 32.54,15.52 33.08,15.35 33.28,14.93 C 33.48,14.51 33.29,14.02 32.84,13.81 C 32.73,13.75 32.61,13.72 32.5,13.71 z" id="p3670" style="opacity:1;fill:#ffe3bc;fill-opacity:0.28;fill-rule:evenodd;stroke:none;marker:none;visibility:visible;display:inline;overflow:visible;enable-background:accumulate"/>
<path d="M 37.57,11.97 A 0.64,0.64 0 1 1 36.28,11.97 A 0.64,0.64 0 1 1 37.57,11.97 z" id="p3673" style="opacity:1;fill:#ffe3bc;fill-opacity:0.40;fill-rule:evenodd;stroke:none;marker:none;visibility:visible;display:inline;overflow:visible;enable-background:accumulate"/>
<path d="M 36.60,34.62 A 0.54,0.59 0 1 1 35.51,34.62 A 0.54,0.59 0 1 1 36.60,34.62 z" id="p3675" style="opacity:1;fill:#ffef5a;fill-opacity:0.23;fill-rule:evenodd;stroke:none;marker:none;visibility:visible;display:inline;overflow:visible;enable-background:accumulate"/>
<path d="M 38.25,28.00 A 0.45,0.54 0 1 1 37.33,28.00 A 0.45,0.54 0 1 1 38.25,28.00 z" id="p3677" style="opacity:1;fill:#ffef5a;fill-opacity:0.23;fill-rule:evenodd;stroke:none;marker:none;visibility:visible;display:inline;overflow:visible;enable-background:accumulate"/>
<path d="M 39.53,26.86 A 0.50,0.59 0 1 1 38.52,26.86 A 0.50,0.59 0 1 1 39.53,26.86 z" id="p3679" style="opacity:1;fill:#ffef5a;fill-opacity:0.23;fill-rule:evenodd;stroke:none;marker:none;visibility:visible;display:inline;overflow:visible;enable-background:accumulate"/>
<path d="M 24.71,5.06 C 13.91,5.06 5.12,13.84 5.12,24.65 C 5.12,35.46 13.91,44.21 24.71,44.21 C 35.52,44.21 44.28,35.46 44.28,24.65 C 44.28,13.84 35.52,5.06 24.71,5.06 z" id="stroke01" style="fill:none;fill-opacity:1;fill-rule:evenodd;stroke:#000000;stroke-width:0.5;stroke-linecap:butt;stroke-linejoin:miter;marker:none;stroke-miterlimit:4;stroke-dasharray:none;stroke-dashoffset:0;stroke-opacity:1;visibility:visible;display:inline;overflow:visible;enable-background:accumulate"/>
</svg>
