<?xml version="1.0" encoding="UTF-8" standalone="no"?>

<svg xmlns:svg="http://www.w3.org/2000/svg" xmlns="http://www.w3.org/2000/svg" version="1.0" width="100%" height="100%" viewBox="0 0 48 48" id="_mercury01" style="display:inline">
<defs id="defs2818"/>
<path d="M 24.71,5.06 C 13.91,5.06 5.12,13.84 5.12,24.65 C 5.12,35.46 13.91,44.21 24.71,44.21 C 35.52,44.21 44.28,35.46 44.28,24.65 C 44.28,13.84 35.52,5.06 24.71,5.06 z" id="p2497" style="fill:#0f2c29;fill-opacity:1;fill-rule:evenodd;stroke:none;marker:none;visibility:visible;display:inline;overflow:visible;enable-background:accumulate"/>
<path d="M 40.81,26.05 C 40.44,30.34 38.24,33.65 31.86,36.11" id="p3411" style="fill:none;fill-rule:evenodd;stroke:#224131;stroke-width:3.90;stroke-linecap:round;stroke-linejoin:miter;stroke-miterlimit:4;stroke-dasharray:none;stroke-opacity:0.21"/>
<path d="M 23.35,16.93 C 25.08,17.50 26.63,16.93 27.98,15.77" id="p3376" style="fill:none;fill-rule:evenodd;stroke:#e8e8e8;stroke-width:2.59;stroke-linecap:round;stroke-linejoin:miter;stroke-miterlimit:4;stroke-dasharray:none;stroke-opacity:0.14"/>
<path d="M 31.64,27.35 C 25.85,19.82 29.91,11.52 37.24,14.61" id="p3374" style="opacity:1;fill:none;fill-opacity:1;fill-rule:evenodd;stroke:#404629;stroke-width:5.69;stroke-linecap:round;stroke-linejoin:miter;marker:none;stroke-miterlimit:4;stroke-dasharray:none;stroke-dashoffset:0;stroke-opacity:0.43;visibility:visible;display:inline;overflow:visible;enable-background:accumulate"/>
<path d="M 24.71,5.06 C 13.91,5.06 5.12,13.84 5.12,24.65 C 5.12,35.46 13.91,44.21 24.71,44.21 C 27.92,44.21 30.92,43.42 33.59,42.06 C 32.77,42.18 31.92,42.28 31.06,42.28 C 21.96,42.28 14.56,34.91 14.56,25.81 C 14.56,16.70 21.96,9.31 31.06,9.31 C 33.98,9.31 36.74,10.07 39.12,11.40 C 35.54,7.51 30.42,5.06 24.71,5.06 z" id="p3271" style="fill:#aeccc9;fill-opacity:0.13;fill-rule:evenodd;stroke:none;marker:none;visibility:visible;display:inline;overflow:visible;enable-background:accumulate"/>
<path d="M 6.87,16.56 C 5.75,19.03 5.12,21.77 5.12,24.65 C 5.12,35.46 13.91,44.21 24.71,44.21 C 26.40,44.21 28.03,43.99 29.59,43.59 C 20.57,43.12 15.15,38.71 11.62,32.71 C 8.79,27.90 7.35,21.98 6.87,16.56 z" id="p3363" style="fill:#f2daef;fill-opacity:0.15;fill-rule:evenodd;stroke:none;"/>
<path d="M 10.22,24.26 C 17.17,23.29 21.99,27.73 25.47,33.91" id="p3372" style="fill:none;fill-rule:evenodd;stroke:#404629;stroke-width:4;stroke-linecap:round;stroke-linejoin:miter;stroke-miterlimit:4;stroke-dasharray:none;stroke-opacity:0.43"/>
<path d="M 20.62,10.59 C 17.38,10.66 15.22,13.39 13.18,15.56 C 11.12,16.74 11.76,20.12 9.34,20.90 C 7.70,21.36 6.28,22.31 5.15,23.56 C 5.13,23.89 5.12,24.22 5.12,24.56 C 5.16,24.49 5.21,24.41 5.25,24.34 C 5.42,22.81 8.18,23.10 6.78,24.53 C 5.57,26.14 7.97,26.14 8.40,24.78 C 9.19,23.71 10.71,21.87 11.62,23.84 C 12.77,24.27 12.99,21.80 13.68,23.59 C 14.66,24.64 16.50,24.22 17.62,25.43 C 18.89,26.38 20.23,27.22 21.59,28.03 C 22.60,28.61 23.81,31.67 22.21,31.53 C 20.46,29.92 19.49,27.58 17.43,26.28 C 16.02,25.06 13.67,24.46 12.28,26.03 C 11.43,26.89 9.14,28.46 9.90,29.5 C 11.37,28.69 11.73,26.41 13.62,26 C 15.91,25.33 17.66,27.27 19.03,28.81 C 20.28,30.28 21.58,31.77 22.5,33.46 C 23.37,34.87 24.37,33.66 23.62,32.46 C 22.84,30.53 24.22,27.09 26.65,28.18 C 28.44,29.62 26.79,31.74 27.25,33.5 C 27.78,35.28 29.91,36.56 31.71,35.84 C 32.83,34.08 31.22,32.27 30.71,30.59 C 29.99,28.95 29.70,26.79 30.5,25.43 C 29.01,25.20 26.38,27.15 26.06,24.46 C 25.67,22.40 27.38,20.84 28.21,19.18 C 28.43,17.25 30.20,14.86 32.25,16.40 C 34.25,17.39 36.19,18.51 38.37,19.09 C 40.15,19.27 42.20,21.42 43.84,20.62 C 43.60,19.48 43.27,18.37 42.84,17.31 C 42.77,17.25 42.72,17.18 42.65,17.12 C 42.71,17.16 42.78,17.20 42.84,17.25 C 42.64,16.76 42.38,16.30 42.15,15.84 C 40.77,14.72 39.14,13.84 37.43,13.5 C 35.02,14.26 37.68,16.33 39.15,16.21 C 40.68,16.45 44.30,18.22 42.59,19.90 C 40.81,19.48 39.04,18.60 37.31,17.87 C 36.02,16.49 34.31,15.02 33.56,13.18 C 34.18,12.67 34.99,13.25 35.68,13.03 C 37.28,13.00 39.09,12.92 40.68,13.34 C 40.46,13.03 40.23,12.73 40,12.43 C 38.11,12.15 36.11,12.38 34.21,12.40 C 33.06,12.67 31.03,12.10 30.46,12.84 C 31.01,14.14 34.94,13.77 33.65,15.56 C 31.90,15.01 30.15,14.71 28.34,14.53 C 25.53,13.70 23.46,11.35 20.62,10.59 z M 20.12,11.28 C 20.26,11.26 20.39,11.27 20.53,11.28 C 22.83,11.38 24.06,13.86 26.28,14.21 C 27.60,16.06 23.16,17.89 22.90,15.59 C 23.38,13.97 21.31,13.43 21.93,15.37 C 22.36,17.65 24.09,19.90 23.09,22.28 C 22.11,24.30 25.45,26.49 23.81,27.96 C 22.06,27.55 22.10,25.11 20.87,24 C 19.46,22.42 17.26,22.16 15.40,21.40 C 13.47,20.37 12.96,17.14 15.06,16 C 16.42,15.13 19.20,15.68 19.37,13.56 C 19.09,13.10 15.77,13.71 17.56,12.43 C 18.32,11.90 19.17,11.36 20.12,11.28 z M 18.53,14 C 17.76,14.11 15.57,15.58 15.93,14.53 C 16.75,14.16 17.64,14.04 18.53,14 z M 37.90,14.40 C 39.28,14.76 40.47,15.53 41.62,16.37 C 41.93,16.56 42.24,16.76 42.53,17 C 42.24,16.78 41.92,16.58 41.62,16.37 C 41.24,16.14 40.87,15.93 40.5,15.78 C 39.69,15.58 37.09,14.90 37.90,14.40 z M 29.53,15.15 C 30.72,15.57 27.75,15.38 29.53,15.15 z M 27.71,15.75 C 27.15,17.12 26.20,20.19 24.21,19.03 C 23.29,17.13 26.09,15.98 27.62,15.78 L 27.71,15.75 z M 13.68,15.93 C 13.46,16.21 13.24,16.51 13,16.81 C 12.49,18.12 13.10,20.15 11.56,20.5 C 11.18,19.06 12.10,17.88 13,16.81 C 13.13,16.46 13.32,16.13 13.68,15.93 z M 28.15,16.93 C 29.68,17.82 26.22,19.70 27.53,17.78 C 27.72,17.48 27.93,17.21 28.15,16.93 z M 13.18,19.34 C 12.51,20.83 16.61,21.89 14.43,22.84 C 13.03,22.44 12.33,20.54 13.18,19.34 z M 26.53,19.65 C 26.55,19.65 26.60,19.68 26.68,19.81 C 26.62,20.09 26.46,19.67 26.53,19.65 z M 26.40,20.53 C 26.45,21.42 25.48,21.00 26.40,20.53 z M 25.40,20.62 C 25.60,21.16 24.73,20.84 25.40,20.62 z M 24.18,20.81 C 24.40,21.03 23.83,20.86 24.18,20.81 z M 24.65,21.5 C 26.26,21.83 23.66,24.13 24.31,22.18 C 24.30,21.92 24.39,21.61 24.65,21.5 z M 11.53,21.84 C 12.71,22.30 11.24,23.58 11.53,21.84 z M 9.34,21.90 C 9.45,21.90 9.55,21.89 9.65,21.90 C 10.92,23.75 6.41,23.73 8.43,22.21 C 8.69,22.01 9.02,21.91 9.34,21.90 z M 17.06,23.06 C 19.32,22.90 21.23,24.93 21.59,27.06 C 19.74,25.98 17.63,25.17 16.28,23.43 C 16.43,23.16 16.77,23.07 17.06,23.06 z M 23.71,23.34 C 24.21,23.68 23.52,23.77 23.71,23.34 z M 25.12,24.06 C 27.02,24.95 23.11,26.40 24.53,24.65 C 24.80,24.57 25.15,24.40 25.12,24.06 z M 25.96,26.12 C 28.22,26.49 30.26,28.27 30.03,30.68 C 30.44,32.07 32.32,34.66 30.09,35.25 C 27.92,34.93 27.46,32.15 28.21,30.43 C 28.78,28.64 26.25,27.77 25.96,26.12 z" id="p3274" style="fill:#6d7237;fill-opacity:0.37;fill-rule:evenodd;stroke:none;"/>
<path d="M 22.53,10.71 C 19.33,11.15 16.68,13.14 14.15,15 C 12.52,14.61 9.20,15.51 9.81,17.65 C 12.20,17.46 13.85,15.04 16.28,15.06 C 15.67,14.64 15.91,13.46 17.15,13.37 C 18.78,12.31 20.58,11.39 22.53,11.12 C 22.24,13.61 19.56,14.61 17.43,15.06 C 17.27,15.13 17.10,15.16 16.96,15.18 C 18.16,15.84 17.80,17.01 17.43,18.18 C 17.74,17.24 18.36,16.33 18.93,15.65 C 18.60,17.34 19.65,20.00 17.78,20.93 C 17.14,20.09 17.13,19.13 17.43,18.18 C 17.23,18.84 17.02,19.50 17.12,20.06 C 16.36,22.17 13.85,20.87 12.53,22.28 C 10.79,23.42 9.25,24.86 7.84,26.37 C 6.61,28.30 6.62,30.56 6.90,32.78 C 7.03,33.07 7.19,33.34 7.34,33.62 C 6.88,30.04 8.15,26.23 11.09,24 C 12.69,22.42 15.10,20.83 17.37,22 C 17.55,22.07 17.73,22.13 17.90,22.21 C 17.90,22.18 17.93,22.13 17.96,22.06 C 18.39,21.98 18.09,22.28 17.96,22.28 C 19.05,22.80 20.03,23.48 20.96,24.25 C 20.86,24.15 20.74,23.93 20.65,23.53 C 20.59,23.35 20.61,23.18 20.59,23 C 21.86,22.77 21.43,24.67 20.96,24.25 C 22.03,25.12 23.06,26.09 24.21,26.84 C 24.91,27.40 25.52,28.80 24.34,27.56 C 23.30,28.70 26.05,30.28 26.34,31.68 C 27.49,34.27 25.78,36.81 24.40,38.90 C 23.24,40.64 21.86,42.22 20.40,43.71 C 20.54,43.74 20.67,43.78 20.81,43.81 C 23.70,40.82 26.47,37.55 27.25,33.37 C 28.88,34.76 27.90,37.06 27,38.59 C 25.99,40.52 24.94,42.69 23.28,44.15 C 23.46,44.16 23.65,44.17 23.84,44.18 C 25.63,42.57 26.71,40.24 27.53,38 C 27.77,36.70 29.26,36.60 28.81,38.15 C 28.79,40.01 28.61,41.93 28.68,43.81 C 28.82,43.78 28.95,43.74 29.09,43.71 C 28.98,41.40 29.31,39.05 29.28,36.75 C 30.58,38.52 31.66,40.68 31.78,42.90 C 31.90,42.85 32.03,42.80 32.15,42.75 C 31.93,40.52 31.01,38.38 29.75,36.53 C 29.58,34.79 26.20,33.35 27.90,31.65 C 29.80,32.97 31.08,35.13 31.81,37.28 C 31.74,38.39 33.28,41.20 33.56,38.71 C 32.96,36.66 31.72,34.88 31,32.87 C 30.41,31.15 28.35,29.29 29.68,27.46 C 30.89,25.75 33.33,24.82 33.56,22.5 C 33.94,20.34 36.16,17.96 38.40,19.37 C 40.09,20.23 41.81,19.51 43.46,19.09 C 43.43,18.97 43.41,18.84 43.37,18.71 C 41.67,19.17 39.98,19.80 38.37,18.81 C 36.37,17.55 34.14,19.54 33.46,21.40 C 32.44,23.58 31.57,26.34 29.06,27.18 C 26.58,27.32 26.09,24.11 27.65,22.93 C 27.20,23.24 26.73,23.52 26.34,23.87 C 24.66,24.26 25.48,22.59 26.53,22 C 25.75,22.37 24.97,22.75 24.31,23.31 C 21.79,24.59 19.53,20.47 22.06,19.06 C 23.97,17.14 26.46,15.23 29.34,15.59 C 31.54,15.82 29.02,18.90 30.25,19.59 C 29.31,20.67 28.04,21.26 26.78,21.87 C 27.04,21.77 27.32,21.75 27.56,21.87 C 29.01,21.15 30.51,20.30 31.40,18.90 C 30.90,20.84 29.21,21.86 27.65,22.93 C 28.01,22.66 28.48,22.51 29.06,22.53 C 31.44,21.24 31.58,18.01 33.65,16.5 C 35.13,15.71 36.81,16.08 38.40,15.96 C 39.86,15.95 41.31,16.27 42.65,16.84 C 42.55,16.60 42.42,16.36 42.31,16.12 C 41.89,15.91 41.46,15.76 41,15.78 C 38.57,15.30 36.06,15.54 33.65,15.96 C 32.89,16.71 30.45,19.17 30.78,16.59 C 29.53,14.01 26.11,15.08 24.40,16.56 C 22.66,17.30 21.39,20.02 20.28,20.46 C 19.48,18.36 22.16,16.79 23.40,15.40 C 25.55,13.82 28.66,13.72 30.78,15.40 C 32.92,16.49 35.40,15.39 37.15,14.06 C 38.35,13.76 40.69,15.59 41.25,14.21 C 41.06,13.92 40.88,13.62 40.68,13.34 C 39.08,12.74 37.19,13.23 35.56,12.75 C 36.53,13.38 37.02,14.52 35.31,14.84 C 32.90,16.29 30.37,14.48 28.09,13.81 C 24.67,13.42 21.11,15.72 20.12,19.03 C 18.06,19.58 19.52,16.04 19.84,15 C 20.60,13.70 24.48,12.49 22.53,10.71 z M 16.96,15.18 C 16.92,15.16 16.89,15.11 16.84,15.09 C 16.64,15.06 16.46,15.06 16.28,15.06 C 16.45,15.17 16.66,15.23 16.96,15.18 z M 35.37,11.34 C 32.51,11.34 29.65,11.44 26.84,11.96 C 25.59,12.20 25.32,13.98 26.96,13.25 C 29.18,12.66 31.54,11.32 33.84,12.34 C 34.08,12.27 34.36,12.29 34.62,12.34 C 34.49,12.25 34.37,12.14 34.25,12.03 C 33.75,11.03 36.10,11.93 36.46,11.65 C 37.44,11.80 38.43,11.76 39.43,11.75 C 39.31,11.61 39.18,11.50 39.06,11.37 C 38.77,11.37 38.49,11.38 38.21,11.37 C 37.26,11.36 36.32,11.34 35.37,11.34 z M 29.46,12.03 C 28.92,12.69 26.60,12.34 28.53,12.09 C 28.84,12.04 29.15,12.03 29.46,12.03 z M 34.68,12.37 C 34.93,12.52 35.19,12.63 35.46,12.71 C 35.22,12.56 34.96,12.43 34.68,12.37 z M 39.65,13.34 L 40.06,13.34 L 40.46,13.46 C 42.60,14.59 37.84,14.68 39.65,13.34 z M 12.53,15.40 C 13.41,17.29 8.23,17.64 10.84,16.12 C 11.35,15.79 11.94,15.56 12.53,15.40 z M 19.34,21.03 C 21.53,22.21 17.68,22.61 19.34,21.03 z M 23.03,23.59 C 23.84,23.59 22.92,24.96 22.56,23.68 C 22.75,23.62 22.91,23.59 23.03,23.59 z M 24.03,24.06 C 27.09,24.82 22.05,25.43 24.03,24.06 z M 23.09,24.75 C 23.92,25.43 23.50,25.37 23.09,24.75 z M 25.40,24.78 C 27.12,24.48 28.05,28.65 25.78,26.81 C 25.14,26.41 24.25,25.20 25.40,24.78 z M 24.59,26.12 C 25.71,26.12 25.64,28.17 24.78,26.78 L 24.62,26.46 L 24.59,26.12 z M 8.37,26.46 C 8.31,27.35 7.43,27.14 8.37,26.46 z M 25.81,28.12 C 27.31,28.10 29.94,30.60 28.53,31.37 C 27.45,30.44 26.74,29.18 25.81,28.12 z M 27.96,28.25 C 28.03,28.22 28.12,28.23 28.21,28.28 C 29.29,29.09 28.60,30.29 27.87,28.84 C 27.67,28.64 27.76,28.32 27.96,28.25 z M 24.87,28.65 C 26.09,28.78 27.02,32.27 25.65,29.90 C 25.41,29.48 25.15,29.05 24.87,28.65 z M 29.5,32.56 C 31.95,33.66 31.73,36.76 33.15,38.68 C 31.32,37.14 31.93,34.11 29.71,32.78 L 29.5,32.56 z" id="p3291" style="opacity:1;fill:#6a7026;fill-opacity:0.37;fill-rule:evenodd;stroke:none;marker:none;visibility:visible;display:inline;overflow:visible;enable-background:accumulate"/>
<path d="M 30.27,35.31 A 3.12,2.88 0 1 1 24.02,35.31 A 3.12,2.88 0 1 1 30.27,35.31 z" id="p3384" style="opacity:1;fill:#f6f8eb;fill-opacity:0.18;fill-rule:evenodd;stroke:none;marker:none;visibility:visible;display:inline;overflow:visible;enable-background:accumulate"/>
<path d="M 24.71,5.06 C 13.91,5.06 5.12,13.84 5.12,24.65 C 5.12,31.17 8.31,36.91 13.21,40.46 C 13.20,40.15 13.15,39.84 13.06,39.53 C 10.44,28.52 12.03,21.84 15.59,17.40 C 19.15,12.96 25.36,10.29 33.34,9.21 C 34.14,9.11 34.86,8.76 35.43,8.28 C 32.35,6.25 28.68,5.06 24.71,5.06 z" id="p3354" style="fill:#d4dcb3;fill-opacity:0.10;fill-rule:evenodd;stroke:none;"/>
<path d="M 38.96,11.28 C 36.08,11.29 33.43,13.34 30.5,12.59 C 28.46,12.55 29.71,15.13 27.78,15.25 C 25.34,16.63 23.16,18.43 21.09,20.31 C 19.21,22.27 22.36,23.53 22.93,22.59 C 22.55,23.87 24.72,25.94 23.68,26.56 C 22.99,26.07 20.16,24.93 21.96,24.18 C 20.22,21.59 17.02,20.20 13.93,20.56 C 10.47,20.56 7.59,23.35 6.84,26.62 C 6.15,28.61 6.83,30.64 6.84,32.65 C 7.13,33.29 7.46,33.90 7.81,34.5 C 7.97,34.76 8.11,35.05 8.28,35.31 C 8.49,33.38 9.03,31.49 9.25,29.56 C 9.52,27.17 11.10,24.92 13.78,25.25 C 14.70,25.13 17.58,25.18 17.21,24.71 C 15.59,24.05 12.34,25.47 11.71,24.43 C 13.15,22.67 15.28,20.27 17.81,21.37 C 18.92,21.66 21.18,23.49 20.81,23.93 C 19.92,23.41 18.18,23.38 19.84,24.37 C 22.16,26.18 25.40,27.59 26.09,30.75 C 25.92,32.22 24.57,29.40 23.65,29.5 C 21.78,29.06 25.75,31.84 23.31,31.28 C 22.90,30.69 20.67,29.06 21.71,30.71 C 24.74,34.35 24.96,39.33 24.87,43.84 C 24.82,43.96 24.80,44.08 24.78,44.21 C 24.90,44.21 25.03,44.22 25.15,44.21 C 25.15,43.24 25.57,41.78 25.25,41.09 C 25.18,39.40 25.11,37.71 24.71,36.06 C 26.50,38.32 26.79,41.40 26.15,44.15 C 26.30,44.14 26.44,44.10 26.59,44.09 C 26.97,42.30 27.09,40.43 26.40,38.71 C 25.80,37.57 26.63,36.69 27.18,38.18 C 27.47,39.13 28.54,41.48 29.43,40.53 C 28.91,39.47 29.70,37.59 30.90,38.96 C 32.80,39.21 35.20,38.69 36.71,40.06 C 36.80,39.99 36.91,39.94 37,39.87 C 36.99,39.86 37.00,39.85 37,39.84 C 36.93,39.55 36.95,39.23 37.15,38.93 C 37.45,38.92 37.75,38.91 38.06,38.90 C 38.21,38.76 38.38,38.64 38.53,38.5 C 37.44,38.69 35.01,38.47 36.81,38.21 C 37.53,38.17 38.24,38.11 38.96,38.03 C 39.11,37.87 39.23,37.71 39.37,37.56 C 37.75,37.86 36.05,38.40 34.68,37.28 C 32.75,35.22 30.97,32.72 31,29.78 C 30.85,27.45 30.57,25.13 30.5,22.81 C 30.82,20.42 33.26,18.15 35.75,19 C 38.42,19.52 41.66,19.02 43.68,21.25 C 43.78,21.33 43.89,21.43 44,21.53 C 43.96,21.32 43.94,21.11 43.90,20.90 C 42.63,19.77 41.17,18.86 39.40,19.06 C 36.98,18.94 34.18,17.60 32.03,19.34 C 29.85,21.06 29.87,24.14 30.37,26.62 C 30.54,30.10 30.71,34.23 33.71,36.56 C 35.23,38.57 31.86,37.58 30.84,37.56 C 28.21,37.42 28.12,34.60 26.59,33.12 C 25.90,31.89 28.89,33.27 28.40,31.40 C 27.89,28.87 24.91,27.97 24.06,25.59 C 24.10,23.48 23.10,21.37 21.12,22.25 C 20.82,19.91 23.68,18.88 25.09,17.53 C 26.50,16.47 27.98,15.45 29.62,14.78 C 33.32,17.89 38.55,17.46 42.68,19.68 C 43.01,19.76 43.35,19.84 43.68,19.93 C 43.65,19.80 43.62,19.66 43.59,19.53 C 41.03,18.67 38.56,17.62 35.90,17.09 C 33.96,16.58 31.73,16.21 30.34,14.65 C 31.09,13.26 33.81,13.26 35.46,13.40 C 37.31,13.60 39.17,13.82 41.03,13.84 C 40.94,13.70 40.84,13.57 40.75,13.43 C 38.37,13.36 35.99,13.12 33.62,12.93 C 35.48,12.28 37.42,11.76 39.40,11.71 C 39.27,11.56 39.13,11.42 39,11.28 C 38.99,11.27 38.97,11.28 38.96,11.28 z M 30.18,13 C 31.24,12.96 32.14,13.59 30.5,14 C 29.67,14.53 28.94,13.79 29.71,13.06 C 29.86,13.02 30.03,13.00 30.18,13 z M 13.5,20.96 C 13.75,20.95 13.99,20.97 14.25,21 C 12.66,23.46 9.80,24.65 7.93,26.87 C 6.45,27.54 8.38,23.99 9,23.40 C 10.09,22.05 11.74,21.04 13.5,20.96 z M 10.37,25.21 C 10.39,25.20 10.41,25.19 10.5,25.21 C 10.49,25.41 10.32,25.26 10.37,25.21 z M 11.93,25.21 C 12.90,25.15 10.85,25.44 11.93,25.21 z M 10.78,25.59 C 10.63,26.39 10.31,25.65 10.78,25.59 z M 10.09,25.81 C 8.76,28.11 8.09,30.76 7.96,33.40 C 7.38,30.83 7.77,27.70 9.84,25.90 C 9.92,25.87 10.01,25.83 10.09,25.81 z M 8.46,27 C 7.61,27.74 7.76,30.21 7.18,30.25 C 7.12,29.06 7.34,27.65 8.46,27 z M 25.46,28.37 C 26.85,28.55 28.97,31.88 27.15,32 C 26.24,30.97 26.12,29.53 25.46,28.37 z M 24.43,30.65 C 25.54,31.16 25.68,32.16 24.71,30.96 C 24.62,30.86 24.52,30.75 24.43,30.65 z M 22.31,30.87 C 22.56,31.09 22.72,31.42 22.75,31.53 C 22.70,31.49 22.55,31.32 22.31,30.87 z M 23.40,31.71 C 25.66,31.63 27.81,34.63 27.5,36.31 C 25.11,36.24 24.78,33.09 23.40,31.71 z M 23.75,32.96 C 24.46,33.73 25.70,36.47 24.34,34.15 C 24.15,33.75 23.98,33.34 23.75,32.96 z M 24.40,35.06 C 24.79,35.38 24.38,35.75 24.40,35.06 z M 25.59,36.21 C 26.29,36.38 26.19,37.14 25.59,36.21 z M 26.62,36.59 C 27.76,36.42 28.77,38.24 27.12,37.21 C 26.89,37.07 26.71,36.85 26.62,36.59 z M 28.84,37.40 C 30.45,38.24 33.85,37.79 34.53,38.59 C 32.65,38.79 30.18,38.98 28.84,37.40 z M 27.56,37.56 C 29.06,37.41 29.37,41.63 28.12,39.21 C 27.82,38.70 27.54,38.17 27.25,37.65 C 27.36,37.60 27.46,37.57 27.56,37.56 z" id="p3308" style="opacity:1;fill:#6d7237;fill-opacity:0.37;fill-rule:evenodd;stroke:none;marker:none;visibility:visible;display:inline;overflow:visible;enable-background:accumulate"/>
<path d="M 24.87,5.06 C 23.53,5.30 22.21,5.68 20.93,6.15 C 20.13,6.25 19.35,6.21 18.59,6.06 C 17.87,6.29 17.17,6.59 16.5,6.90 C 16.51,7.04 16.52,7.18 16.5,7.34 C 15.74,7.70 14.87,7.97 14.03,8.25 C 12.01,9.56 10.25,11.21 8.84,13.15 C 8.83,13.18 8.82,13.21 8.81,13.25 C 8.52,13.90 8.15,14.50 7.68,15 C 6.98,16.23 6.39,17.54 5.96,18.93 C 5.96,18.95 5.97,18.97 5.96,19 C 5.74,21.80 4.39,25.04 6.43,27.5 C 8.61,29.28 6.56,26.17 6.81,25.15 C 7.94,24.07 8.88,27.56 9.71,28.37 C 11.57,31.78 14.06,34.89 17.37,37 C 18.68,37.59 18.84,39.44 17.06,38.25 C 14.43,36.83 12.13,34.89 9.78,33.06 C 9.09,31.94 7.36,31.53 6.53,31.90 C 7.41,34.10 8.67,36.09 10.25,37.81 C 9.21,35.94 8.24,34.02 6.87,32.37 C 10.23,34.35 13.25,36.85 16.62,38.81 C 14.55,38.75 14.51,40.21 14.96,41.59 C 15.28,41.77 15.60,41.96 15.93,42.12 C 14.97,41.17 16.87,39.88 18.15,41.31 C 19.23,42.06 20.22,43.05 21.28,43.87 C 21.29,43.87 21.30,43.87 21.31,43.87 C 22.05,44.00 22.79,44.14 23.56,44.18 C 21.44,43.46 19.59,41.67 20.68,39.34 C 19.91,36.66 16.60,36.14 15,34.09 C 12.46,31.58 10.48,28.55 9.03,25.31 C 7.47,23.79 5.94,21.57 6.59,19.31 C 7.30,17.11 8.63,20.42 9.65,18.5 C 10.97,16.27 14.01,14.65 16.46,16.09 C 17.97,17.36 19.50,18.91 21.62,19.03 C 23.61,19.37 25.30,18.17 26.81,17.09 C 28.62,16.21 32.36,18.20 32.21,15.06 C 32.26,13.09 36.36,12.95 34,11.06 C 30.76,9.83 29.53,14.14 26.78,15.03 C 24.63,16.63 22.53,14.99 20.53,14.15 C 18.47,13.38 16.23,13.18 14.09,13.56 C 11.55,13.66 12.91,11.43 14.56,11.21 C 17.50,9.53 20.51,7.17 24.12,7.71 C 28.07,7.93 32.00,9.59 35.96,8.65 C 35.71,8.47 35.45,8.29 35.18,8.12 C 33.30,8.70 30.92,5.88 29,6.25 C 27.82,6.81 23.84,5.74 27.81,5.5 C 28.15,5.49 28.49,5.49 28.84,5.5 C 27.57,5.22 26.25,5.07 24.90,5.06 C 24.89,5.06 24.88,5.06 24.87,5.06 z M 21.59,6.59 C 21.64,6.58 21.70,6.57 21.78,6.59 C 21.53,7.23 21.26,6.65 21.59,6.59 z M 28.87,6.90 C 29.01,6.90 29.21,6.94 29.5,7.03 L 29.87,7.03 L 30.21,7 C 30.13,8.51 27.90,6.88 28.87,6.90 z M 19,7.34 C 19.06,7.32 19.25,7.62 19,7.5 C 18.97,7.39 18.97,7.35 19,7.34 z M 17.28,8.81 C 16.72,9.74 14.44,9.72 16.40,9.03 L 16.84,8.90 L 17.28,8.81 z M 13.28,9.65 C 13.21,10.78 10.65,11.77 12.28,10.18 C 12.57,9.95 12.91,9.75 13.28,9.65 z M 31.96,11.40 C 33.02,11.39 32.16,11.97 31.96,11.40 z M 10.40,11.75 C 9.81,13.00 10.11,15.16 8.34,15.46 C 8.96,14.19 9.63,12.94 10.40,11.75 z M 30.65,13.12 C 30.83,13.10 31.06,13.12 31.37,13.18 C 31.00,15.01 29.39,13.24 30.65,13.12 z M 14.40,14.03 C 13.97,14.97 10.08,16.73 11.84,14.81 C 12.65,14.42 13.54,14.25 14.40,14.03 z M 18.31,14.28 C 20.46,14.10 24.39,16.44 21.56,18.03 C 19.92,18.29 15.68,16.13 17.90,14.34 C 18.03,14.30 18.16,14.29 18.31,14.28 z M 28.21,14.87 C 28.38,14.80 28.51,15.24 28.06,15.15 C 28.10,14.98 28.16,14.89 28.21,14.87 z M 30.18,15.21 C 32.96,15.48 28.73,16.82 29.78,15.46 L 30.18,15.21 z M 23.84,18.09 C 23.84,18.79 23.23,18.10 23.84,18.09 z M 26.96,34.84 C 26.07,34.81 25.68,36.27 27.12,36.84 C 28.82,38.06 31.77,38.00 32.34,40.40 C 32.04,42.04 30.70,43.05 29.12,43.68 C 30.09,43.46 31.05,43.17 31.96,42.81 C 31.98,42.79 32.01,42.79 32.03,42.78 C 32.73,42.26 33.42,41.74 34.09,41.25 C 34.64,40.94 35.22,40.76 35.81,40.75 C 37.03,39.90 38.15,38.90 39.15,37.81 C 36.69,38.04 33.98,37.57 32.56,35.43 C 30.72,33.29 29.68,37.67 27.96,35.46 C 27.60,35.03 27.26,34.85 26.96,34.84 z M 31.34,37.18 C 32.50,37.54 34.62,38.43 33.71,39.96 C 33.25,38.81 30.40,38.87 31.34,37.18 z M 35.18,38.37 C 35.63,38.34 35.21,39.30 34.93,38.46 C 35.04,38.41 35.12,38.37 35.18,38.37 z M 36.5,38.75 C 36.55,38.75 36.62,38.79 36.71,38.84 C 36.64,39.56 36.13,38.69 36.5,38.75 z M 17.59,39.90 C 18.42,39.99 18.10,40.86 17.59,39.90 z M 17.5,42.62 C 17.34,42.62 17.18,42.63 17.03,42.65 C 17.76,42.96 18.53,43.21 19.31,43.43 C 19.19,42.94 18.33,42.64 17.5,42.62 z" id="p3321" style="fill:#bcd5d5;fill-opacity:0.18;fill-rule:evenodd;stroke:none;"/>
<path d="M 29.25,5.87 C 29.15,5.87 29.03,5.89 28.93,5.93 C 25.45,6.18 21.94,6.00 18.46,6.09 C 15.74,7.01 13.29,8.53 11.25,10.46 C 10.05,12.29 8.38,13.88 8.03,16.21 C 7.36,18.50 6.18,20.57 5.81,22.93 C 5.58,23.68 5.36,24.43 5.15,25.18 C 5.16,25.68 5.16,26.17 5.21,26.65 C 5.48,25.77 5.81,25.24 5.65,26.90 C 5.45,28.12 5.82,30.53 6.28,30.09 C 6.28,30.51 6.29,30.94 6.31,31.37 C 6.46,31.79 6.63,32.21 6.81,32.62 C 6.78,32.27 6.77,31.92 6.75,31.59 C 6.70,29.22 6.42,26.85 6.25,24.5 C 6.26,23.62 6.41,22.74 6.75,21.93 C 6.37,25.30 6.89,28.67 7.06,32.03 C 7.29,33.36 8.02,34.53 8.59,35.75 C 9.00,36.34 9.46,36.89 9.93,37.43 C 8.98,36.11 8.40,34.45 7.87,32.96 C 9.85,34.73 11.19,37.07 12.34,39.43 C 12.01,39.30 11.71,39.15 11.43,38.96 C 12.15,39.62 12.88,40.26 13.68,40.81 C 13.73,40.73 13.94,40.82 14.43,41.15 C 16.63,41.10 13.78,39.80 13.68,39.06 C 13.55,39.28 13.56,39.63 13.81,40.15 C 11.47,38.45 11.19,35.20 8.93,33.40 C 11.02,35.06 12.96,36.90 15,38.62 C 17.06,37.30 11.74,34.28 14.56,34.28 C 16.00,35.27 17.63,38.01 17.03,39.31 C 16.20,39.00 14.14,38.31 13.68,39.03 C 13.68,39.04 13.68,39.05 13.68,39.06 C 14.83,40.20 15.97,41.39 17,42.65 C 17.31,42.78 17.64,42.88 17.96,43 C 17.37,42.34 16.69,41.72 16.31,41.34 C 15.36,40.47 15.43,39.74 16.5,40.90 C 17.40,41.68 19.64,43.25 20.21,42.65 C 19.06,41.88 19.18,39.18 20.93,40.65 C 23.32,41.43 25.95,40.19 28.28,41.28 C 30.14,39.88 26.72,39.41 26.09,39.31 C 25.59,36.85 29.25,37.52 30.5,38.46 C 32.24,39.21 33.87,40.34 35.71,40.81 C 36.03,40.59 36.32,40.35 36.62,40.12 C 36.45,40.16 36.14,40.11 35.65,39.71 C 36.47,39.41 36.84,39.84 36.75,40.06 C 37.12,39.76 37.49,39.44 37.84,39.12 C 36.62,39.42 35.30,39.23 37.31,39.03 C 37.68,38.93 38.04,38.77 38.40,38.62 C 38.65,38.38 38.86,38.12 39.09,37.87 C 38.63,37.96 38.19,38.03 37.78,38.03 C 36.89,38.23 35.01,37.82 36.96,37.46 C 38.34,37.11 39.67,36.55 40.84,35.75 C 41.08,35.39 41.27,34.99 41.5,34.62 C 40.28,35.40 39.26,36.77 37.71,36.96 C 35.76,37.73 33.18,37.88 31.68,36.15 C 29.80,35.21 27.80,32.86 25.53,33.96 C 26.48,35.46 27.09,38.06 24.37,37.46 C 23.40,37.52 21.11,36.27 21.25,36.31 C 22.70,36.77 21.62,33.66 23.09,35.12 C 24.88,34.82 21.79,33.80 21.06,33.96 C 19.49,33.77 21.98,32.91 20.34,32.5 C 18.15,31.65 16.27,35.86 14.28,33.53 C 12.00,31.37 10.82,28.34 8.5,26.21 C 6.47,24.51 7.01,21.62 7.75,19.43 C 7.94,18.41 10.48,16.36 9.37,18.5 C 8.96,19.94 7.15,23.26 9.12,23.78 C 10.50,22.69 10.26,18.24 12.56,19.46 C 12.50,20.30 11.64,22.92 13.09,22.68 C 13.51,21.00 14.63,19.12 14.31,17.37 C 13.32,18.67 13.85,20.77 12.75,21.87 C 12.74,20.28 12.39,17.86 14.28,17.21 C 14.26,17.16 14.26,17.11 14.25,17.06 C 11.65,17.26 14.04,13.48 14.93,12.46 C 16.84,10.72 19.70,11.42 21.87,10.25 C 22.67,10.29 25.16,9.63 23.15,9.34 C 19.75,9.65 16.07,10.32 13.5,12.71 C 13.25,13.72 10.89,16.19 11.28,13.84 C 12.22,11.51 14.32,9.80 16.37,8.46 C 18.47,7.28 21.04,6.98 23.37,7.59 C 26.14,7.66 29.25,9.38 29.65,12.34 C 29.44,13.22 28.76,14.10 27.90,14.68 C 28.06,14.60 28.32,14.56 28.81,14.65 C 28.41,15.66 27.55,15.10 27.75,14.78 C 26.54,15.53 25.03,15.70 24.06,14.53 C 22.05,13.55 24.44,16.41 23.65,17.31 C 22.26,19.31 23.85,21.58 26.12,20.43 C 28.27,19.36 28.41,16.50 30.34,15.18 C 29.59,15.34 28.59,14.71 30.18,14.5 C 30.44,14.46 30.68,14.42 30.93,14.40 C 30.95,14.65 30.88,14.80 30.78,14.93 C 32.20,14.39 36.35,14.44 34.28,12.5 C 34.59,14.52 32.60,12.55 33.62,12.37 C 32.16,12.71 30.04,15.21 30.03,12.84 C 31.00,11.61 34.58,9.83 31.53,8.65 C 29.19,7.77 26.40,8.40 24.34,6.78 C 26.47,5.76 29.00,6.93 30.81,7.40 C 30.63,6.80 29.94,5.88 29.25,5.87 z M 33.62,12.37 C 33.75,12.35 33.96,12.38 34.21,12.43 C 34.18,12.40 34.16,12.37 34.12,12.34 C 33.96,12.30 33.80,12.33 33.62,12.37 z M 34.21,12.43 C 34.24,12.45 34.25,12.47 34.28,12.5 C 34.27,12.47 34.28,12.46 34.28,12.43 C 34.25,12.43 34.24,12.44 34.21,12.43 z M 30.78,14.93 C 30.73,14.95 30.66,14.98 30.62,15 C 30.52,15.05 30.43,15.12 30.34,15.18 C 30.51,15.15 30.67,15.06 30.78,14.93 z M 14.28,17.21 C 14.29,17.27 14.30,17.32 14.31,17.37 C 14.36,17.30 14.40,17.22 14.46,17.15 C 14.40,17.17 14.34,17.19 14.28,17.21 z M 18.71,6.43 L 18.78,6.43 C 20.69,6.33 17.88,6.77 18.59,6.46 L 18.71,6.43 z M 29.31,6.46 C 30.10,6.76 30.10,7.18 29.31,6.46 z M 22.43,6.75 C 23.21,6.63 25.34,7.71 23.37,7.25 C 22.94,7.32 20.91,6.84 22.43,6.75 z M 18.93,6.93 C 19.10,6.91 19.24,6.92 19.37,6.93 C 19.10,6.97 18.83,7.01 18.56,7.03 C 18.68,7.00 18.82,6.95 18.93,6.93 z M 18.5,7.03 C 17.39,7.28 16.03,7.91 15.84,7.40 C 16.69,7.09 17.60,7.08 18.5,7.03 z M 16.40,8 C 13.91,9.36 11.88,11.57 10.59,14.09 C 10.42,16.39 12.97,15.24 13.53,13.81 C 13.56,13.65 13.59,13.49 13.62,13.34 C 13.61,13.50 13.59,13.65 13.53,13.81 C 13.14,15.53 12.49,17.37 11.46,18.87 C 10.22,20.10 9.85,22.02 8.78,23.21 C 7.90,20.71 10.88,18.65 10.12,16.25 C 9.41,16.98 7.17,19.01 8.31,16.59 C 9.53,12.79 12.22,8.78 16.40,8 z M 27.03,8.21 C 28.59,8.74 33.09,8.17 31.75,10.93 C 29.50,12.82 28.97,9.16 27.31,8.40 L 27.03,8.21 z M 21.78,9.90 C 20.97,10.02 18.05,11.14 18.68,10.46 C 19.69,10.17 20.73,9.97 21.78,9.90 z M 32.71,13.21 C 33.12,14.82 30.78,13.23 32.71,13.21 z M 33.06,13.31 C 34.31,13.10 33.09,14.48 33.06,13.31 z M 33.28,14.06 C 33.34,14.06 33.31,14.29 33.18,14.15 C 33.22,14.07 33.26,14.06 33.28,14.06 z M 23.43,14.37 C 24.79,14.57 24.17,17.34 23.68,15.12 C 23.59,14.87 23.51,14.62 23.43,14.37 z M 25.5,15.62 C 26.33,15.61 25.36,17.19 25.03,15.75 C 25.23,15.67 25.38,15.62 25.5,15.62 z M 27.28,15.68 C 27.81,15.61 27.00,16.10 27.28,15.68 z M 28.12,16.06 C 27.29,17.71 25.77,16.01 28.12,16.06 z M 24.56,16.87 C 24.61,16.88 24.69,16.91 24.78,16.96 C 24.72,17.69 24.20,16.80 24.56,16.87 z M 26.68,17.03 C 26.73,17.00 26.83,17.02 27.03,17.12 C 26.93,17.58 26.54,17.12 26.68,17.03 z M 25.21,17.09 C 25.87,18.25 23.88,17.24 25.21,17.09 z M 27.84,17.18 C 29.33,18.59 25.86,17.58 27.84,17.18 z M 26.28,17.46 C 26.48,17.43 26.21,17.68 26.28,17.46 z M 25.78,17.71 C 25.81,17.71 25.86,17.73 25.93,17.75 C 26.05,18.25 25.51,17.74 25.78,17.71 z M 26.75,17.81 C 27.77,17.97 26.80,18.89 26.75,17.81 z M 24.09,18 C 23.98,18.93 25.19,20.13 25.21,20.15 C 23.67,20.73 22.19,18.90 24.09,18 z M 25,18.06 C 25.07,18.04 25.19,18.03 25.34,18.06 C 25.66,19.29 24.47,18.21 25,18.06 z M 26.28,18.06 C 28.17,19.13 23.65,19.76 25.75,18.81 C 25.89,18.54 25.99,18.21 26.28,18.06 z M 27,18.75 C 27.51,18.78 26.61,19.12 27,18.75 z M 7.03,20.21 C 7.28,20.81 6.51,20.75 7.03,20.21 z M 7.15,25.46 C 9.92,27.64 11.36,30.99 13.84,33.43 C 11.27,34.21 16.06,37.28 14.18,37.40 C 12.04,35.44 9.89,33.48 7.53,31.78 C 7.10,29.70 7.13,27.57 7.15,25.46 z M 19.53,32.90 C 19.73,34.09 15.76,34.71 18.34,35.78 C 20.70,36.60 23.10,37.25 25.37,38.31 C 26.93,40.98 22.76,40.97 21.18,40.34 C 19.34,40.09 16.56,38.51 17.06,36.5 C 17.45,36.46 18.15,36.81 18.53,37.03 C 18.42,36.96 18.37,36.93 18.09,36.75 C 16.07,35.85 17.02,32.71 19.18,32.96 C 19.29,32.94 19.41,32.92 19.53,32.90 z M 25.96,33.84 C 27.46,35.81 30.18,36.09 31.90,37.78 C 29.37,37.78 27.35,35.74 25.96,33.84 z M 19.09,34.03 C 20.57,35.25 16.91,35.90 18.40,34.34 L 18.75,34.15 L 19.09,34.03 z M 20.84,34.09 C 21.87,34.14 21.65,36.92 20.62,35.12 C 20.46,34.90 19.93,34.52 20.31,34.25 C 20.51,34.12 20.69,34.08 20.84,34.09 z M 27.15,34.28 C 28.22,34.34 30.92,36.63 28.46,35.34 C 27.96,35.07 27.50,34.74 27.15,34.28 z M 19.59,34.84 C 20.71,35.06 19.43,36.10 19.59,34.84 z M 26.71,35.43 C 27.37,36.01 30.09,38.14 27.68,37.09 C 27.22,36.64 26.94,36.03 26.71,35.43 z M 31.37,36.43 C 31.73,36.59 31.93,36.80 31.96,36.87 C 31.90,36.85 31.72,36.74 31.37,36.43 z M 26.06,37.28 C 26.12,37.25 26.22,37.27 26.40,37.34 C 26.12,37.70 25.87,37.35 26.06,37.28 z M 34,37.75 C 34.37,37.63 34.03,38.21 33.78,37.84 C 33.86,37.79 33.94,37.76 34,37.75 z M 31.68,38.12 C 32.79,38.15 32.50,38.63 31.25,38.18 L 31.15,38.15 C 31.35,38.14 31.53,38.12 31.68,38.12 z M 33.71,38.31 C 34.11,38.28 33.81,38.90 33.71,38.31 z M 37.90,38.34 C 37.23,39.46 33.90,38.31 36.59,38.43 C 37.03,38.41 37.47,38.37 37.90,38.34 z M 32.21,38.75 C 33.84,38.70 33.80,39.73 32.21,38.75 z M 15.40,39.25 C 17.04,39.14 19.76,40.94 18.78,41.96 C 17.43,41.24 16.31,40.19 15.09,39.28 C 15.19,39.25 15.29,39.25 15.40,39.25 z M 34.28,39.5 C 35.03,39.48 35.40,40.53 34.25,39.78 L 33.93,39.59 C 34.05,39.54 34.17,39.50 34.28,39.5 z M 28,39.96 L 28.06,39.96 C 29.56,41.20 25.62,40.39 27.87,40 L 28,39.96 z" id="p3340" style="fill:#e6e6e6;fill-opacity:0.23;fill-rule:evenodd;stroke:none;"/>
<path d="M 7.37,22.53 C 7.03,22.53 6.74,23.04 6.75,23.68 C 6.75,24.32 7.03,24.84 7.37,24.84 C 7.71,24.84 8.00,24.32 8,23.68 C 8,23.04 7.71,22.53 7.37,22.53 z" id="p3378" style="opacity:1;fill:#f6f8eb;fill-opacity:0.60;fill-rule:evenodd;stroke:none;marker:none;visibility:visible;display:inline;overflow:visible;enable-background:accumulate"/>
<path d="M 13.15,15.84 C 12.80,15.92 12.41,16.30 12.18,16.84 C 11.87,17.55 11.97,18.29 12.37,18.46 C 12.77,18.64 13.34,18.21 13.65,17.5 C 13.96,16.78 13.90,16.04 13.5,15.87 C 13.39,15.83 13.27,15.81 13.15,15.84 z" id="p3381" style="opacity:1;fill:#f6f8eb;fill-opacity:0.60;fill-rule:evenodd;stroke:none;marker:none;visibility:visible;display:inline;overflow:visible;enable-background:accumulate"/>
<path d="M 25.98,34.88 A 0.91,0.85 0 1 1 24.14,34.88 A 0.91,0.85 0 1 1 25.98,34.88 z" id="p3386" style="opacity:1;fill:#f6f8eb;fill-opacity:0.43;fill-rule:evenodd;stroke:none;marker:none;visibility:visible;display:inline;overflow:visible;enable-background:accumulate"/>
<path d="M 18.43,38.93 C 18.18,38.95 17.99,39.06 17.90,39.25 C 17.72,39.61 18.02,40.14 18.59,40.43 C 19.16,40.73 19.78,40.67 19.96,40.31 C 20.15,39.95 19.85,39.41 19.28,39.12 C 18.99,38.97 18.68,38.91 18.43,38.93 z" id="p3388" style="opacity:1;fill:#f6f8eb;fill-opacity:0.43;fill-rule:evenodd;stroke:none;marker:none;visibility:visible;display:inline;overflow:visible;enable-background:accumulate"/>
<path d="M 34.19,23.23 A 0.79,0.85 0 1 1 32.60,23.23 A 0.79,0.85 0 1 1 34.19,23.23 z" id="p3391" style="opacity:1;fill:#f6f8eb;fill-opacity:0.43;fill-rule:evenodd;stroke:none;marker:none;visibility:visible;display:inline;overflow:visible;enable-background:accumulate"/>
<path d="M 25.12,11.41 A 0.91,0.55 0 1 1 23.28,11.41 A 0.91,0.55 0 1 1 25.12,11.41 z" id="p3393" style="opacity:1;fill:#f6f8eb;fill-opacity:0.60;fill-rule:evenodd;stroke:none;marker:none;visibility:visible;display:inline;overflow:visible;enable-background:accumulate"/>
<path d="M 27.21,10.06 A 0.73,0.55 0 1 1 25.74,10.06 A 0.73,0.55 0 1 1 27.21,10.06 z" id="p3395" style="opacity:1;fill:#f6f8eb;fill-opacity:0.60;fill-rule:evenodd;stroke:none;marker:none;visibility:visible;display:inline;overflow:visible;enable-background:accumulate"/>
<path d="M 14.95,32.06 A 0.98,0.98 0 1 1 12.99,32.06 A 0.98,0.98 0 1 1 14.95,32.06 z" transform="matrix(0.80,0.59,-0.59,0.80,21.66,-2.05)" id="p3397" style="opacity:1;fill:#f6f8eb;fill-opacity:0.21;fill-rule:evenodd;stroke:none;marker:none;visibility:visible;display:inline;overflow:visible;enable-background:accumulate"/>
<path d="M 14.46,27.31 C 14.39,27.31 14.32,27.34 14.25,27.37 C 13.67,27.57 13.40,28.29 13.65,29 C 13.90,29.70 14.58,30.11 15.15,29.90 C 15.72,29.70 16.00,28.95 15.75,28.25 C 15.53,27.63 14.98,27.26 14.46,27.31 z" id="p3399" style="opacity:1;fill:#f6f8eb;fill-opacity:0.21;fill-rule:evenodd;stroke:none;marker:none;visibility:visible;display:inline;overflow:visible;enable-background:accumulate"/>
<path d="M 11.27,31.88 A 0.49,1.04 0 1 1 10.29,31.88 A 0.49,1.04 0 1 1 11.27,31.88 z" transform="matrix(0.87,-0.48,0.48,0.87,-14.16,9.29)" id="p3402" style="opacity:1;fill:#f6f8eb;fill-opacity:0.57;fill-rule:evenodd;stroke:none;marker:none;visibility:visible;display:inline;overflow:visible;enable-background:accumulate"/>
<path d="M 21.69,23.36 A 0.49,0.49 0 1 1 20.71,23.36 A 0.49,0.49 0 1 1 21.69,23.36 z" id="p3404" style="opacity:1;fill:#f6f8eb;fill-opacity:0.57;fill-rule:evenodd;stroke:none;marker:none;visibility:visible;display:inline;overflow:visible;enable-background:accumulate"/>
<path d="M 24.63,26.42 A 0.73,0.73 0 1 1 23.16,26.42 A 0.73,0.73 0 1 1 24.63,26.42 z" id="p3406" style="opacity:1;fill:#f6f8eb;fill-opacity:0.57;fill-rule:evenodd;stroke:none;marker:none;visibility:visible;display:inline;overflow:visible;enable-background:accumulate"/>
<path d="M 23.71,28.62 C 23.48,28.62 23.28,28.82 23.28,29.06 C 23.28,29.29 23.48,29.5 23.71,29.5 C 23.95,29.5 24.15,29.29 24.15,29.06 C 24.15,28.82 23.95,28.62 23.71,28.62 z" id="p3408" style="opacity:1;fill:#f6f8eb;fill-opacity:0.57;fill-rule:evenodd;stroke:none;marker:none;visibility:visible;display:inline;overflow:visible;enable-background:accumulate"/>
<path d="M 24.71,5.06 C 13.91,5.06 5.12,13.84 5.12,24.65 C 5.12,35.46 13.91,44.21 24.71,44.21 C 35.52,44.21 44.28,35.46 44.28,24.65 C 44.28,13.84 35.52,5.06 24.71,5.06 z" id="stroke01" style="fill:none;fill-opacity:1;fill-rule:evenodd;stroke:#000000;stroke-width:0.5;stroke-linecap:butt;stroke-linejoin:miter;marker:none;stroke-miterlimit:4;stroke-dasharray:none;stroke-dashoffset:0;stroke-opacity:1;visibility:visible;display:inline;overflow:visible;enable-background:accumulate"/>
</svg>
