<?xml version="1.0" encoding="UTF-8" standalone="no"?>
<!-- Created with Inkscape (http://www.inkscape.org/) -->
<svg   xmlns:svg="http://www.w3.org/2000/svg"   xmlns="http://www.w3.org/2000/svg"   version="1.0"   width="100%"   height="100%"   viewBox="0 0 48 48"   id="_moon01"   style="display:inline">  
<defs id="defs2818" />  
<path d="M 47,24 A 23,23 0 1 1 1,24 A 23,23 0 1 1 47,24 z" id="path3320" style="opacity:1;fill:#ba9f8a;fill-opacity:1;fill-rule:evenodd;stroke:none;stroke-width:0.5;stroke-linecap:round;stroke-linejoin:miter;marker:none;marker-start:none;marker-mid:none;marker-end:none;stroke-miterlimit:4;stroke-dasharray:none;stroke-dashoffset:0;stroke-opacity:1;visibility:visible;display:inline;overflow:visible;enable-background:accumulate" />  
<path d="M 25.65,25.31 C 22.24,25.44 19.13,27.92 18,31.09 C 17.67,32.78 18.96,35.15 16.81,36.03 C 15.08,37.31 13.18,38.31 11.46,39.62 C 11.74,37.84 13.50,36.74 14.15,35.09 C 15.35,33.10 16.27,30.73 15.84,28.37 C 14.24,27.03 13.06,29.45 12.43,30.65 C 10.78,33.59 8.77,36.39 6.37,38.78 C 6.44,38.86 6.52,38.94 6.59,39.03 C 9.32,36.29 11.44,33.00 13.40,29.68 C 13.58,27.66 16.83,28.19 15.62,30.25 C 15.27,33.77 12.78,36.46 10.93,39.31 C 11.75,40.92 13.37,38.06 14.59,37.90 C 16.02,37.39 17.24,35.60 18.43,35.40 C 20.04,37.07 17.36,38.67 16.31,39.78 C 15.42,40.51 15.58,42.31 16.87,40.96 C 17.74,40.26 18.84,37.96 19.90,38.71 C 19.52,40.04 20.48,38.77 20.62,39.87 C 22.44,40.94 23.26,38.02 23.12,36.62 C 23.43,34.72 25.02,33.25 26.87,32.90 C 29.27,32.00 31.80,31.51 34.18,30.56 C 36.65,31.09 33.47,33.08 32.65,33.84 C 29.84,35.83 26.49,36.88 23.84,39.12 C 22.86,39.51 20.51,42.30 22.84,41.84 C 24.93,41.19 26.99,40.46 29.06,39.71 C 31.95,38.48 34.83,37.09 37.87,36.25 C 39.52,35.37 39.75,32.84 41.78,32.53 C 43.13,32.38 44.46,31.49 45.59,31.15 C 45.70,30.71 45.99,30.01 46.34,29.53 C 46.37,29.38 46.40,29.23 46.43,29.09 C 45.26,30.33 44.24,31.76 42.46,32.18 C 41.68,32.70 39.49,32.50 41.03,31.43 C 42.68,30.19 45.78,30.13 46.18,27.68 C 45.72,25.09 42.50,26.94 41.28,27.96 C 40.56,28.10 39.93,27.77 39.31,27.53 C 40.99,28.82 36.14,31.27 37.12,29.09 C 36.63,28.74 34.08,30.48 35.68,29.12 C 36.72,28.35 37.87,27.63 39.18,27.46 C 38.56,27.23 37.94,27.16 37.25,27.78 C 35.13,28.92 33.50,31.06 30.96,31.34 C 28.40,32.00 25.76,32.73 23.62,34.37 C 24.61,32.07 26.34,30.06 26.68,27.5 C 26.86,26.65 26.69,25.47 25.65,25.31 z M 39.18,27.46 C 39.20,27.47 39.22,27.49 39.25,27.5 C 39.24,27.49 39.25,27.47 39.25,27.46 C 39.22,27.47 39.20,27.46 39.18,27.46 z M 25.37,25.59 L 25.59,25.59 C 27.53,27.17 25.45,29.50 25.03,31.31 C 24.84,32.15 23.26,33.27 24,31.62 C 24.27,30.38 26.14,28.90 25.40,27.68 C 25.18,29.25 24.25,30.53 23.25,31.71 C 23.79,32.68 21.69,33.90 22.81,32.31 C 22.86,32.20 22.93,32.12 23,32.03 C 22.73,32.33 22.47,32.61 22.21,32.90 C 21.85,34.15 20.32,37.20 18.96,35.56 C 19.04,33.36 21.78,32.65 22.65,30.78 C 23.51,29.69 24.35,28.57 25.34,27.59 C 25.29,27.53 25.24,27.49 25.18,27.43 C 23.39,28.96 22.36,31.16 20.56,32.68 C 19.89,33.81 18.02,35.12 18.21,32.87 C 18.03,29.07 21.63,26.17 25.12,25.62 L 25.37,25.59 z M 25.34,27.59 C 25.36,27.62 25.38,27.65 25.40,27.68 C 25.41,27.62 25.43,27.56 25.43,27.5 C 25.40,27.53 25.37,27.56 25.34,27.59 z M 44.78,26.65 C 47.09,27.45 44.53,29.92 43.15,30.21 C 42.28,31.01 39.59,31.36 40.81,29.43 C 40.55,28.06 40.16,30.86 39.75,31.18 C 39.08,32.50 36.74,33.71 36,33.71 C 37.82,32.66 39.50,31.03 39.96,28.90 C 41.50,28.01 43.03,27.05 44.78,26.65 z M 36.93,29.15 C 37.21,30.55 33.37,30.93 35.75,29.87 C 36.16,29.67 36.57,29.44 36.93,29.15 z M 39.56,29.15 C 38.98,31.63 36.62,33.01 34.59,34.21 C 36.29,34.98 38.59,31.56 39.62,33.62 C 39.08,36.09 36.15,36.32 34.21,37.15 C 30.75,38.59 27.38,40.23 23.75,41.21 C 22.66,41.70 21.22,41.76 22.68,40.62 C 25.59,37.54 29.81,36.26 33.18,33.84 C 34.78,32.38 36.06,30.34 38.31,29.84 C 38.72,29.61 39.15,29.39 39.56,29.15 z M 8.09,29.59 C 7.83,29.62 7.50,29.79 7.12,30.18 C 5.77,31.32 4.18,32.34 3.21,33.84 C 3.26,33.94 3.32,34.05 3.37,34.15 C 4.18,33.27 4.81,32.15 5.90,31.53 C 6.66,30.79 9.05,28.83 8.56,31.15 C 7.67,33.02 6.93,34.96 5.53,36.53 C 5.39,36.70 5.23,36.88 5.09,37.06 C 5.15,37.15 5.21,37.25 5.28,37.34 C 6.39,35.97 7.46,34.56 8.03,32.87 C 9.16,32.06 9.21,29.44 8.09,29.59 z M 40.25,30.78 C 40.35,31.66 38.96,32.34 40.25,30.78 z M 40.06,31.90 C 40.38,33.12 38.16,32.43 39.84,32.03 C 39.92,31.99 39.98,31.94 40.06,31.90 z M 23.43,32.53 C 24.27,33.74 21.26,35.35 22.31,35.78 C 23.83,34.57 22.70,37.36 22.62,38.06 C 22.74,39.57 20.36,40.51 20.62,38.46 C 20.84,36.24 22.18,34.31 23.43,32.53 z M 23.34,34.21 C 23.02,35.09 22.46,34.84 23.34,34.21 z M 21.40,35.06 C 21.21,35.87 20.65,37.89 19.53,36.96 C 20.17,36.34 20.78,35.70 21.40,35.06 z M 19.31,37.18 C 19.43,38.76 16.61,40.68 16.21,40.62 C 16.97,39.26 18.26,38.31 19.31,37.18 z M 20.53,37.40 C 20.50,38.65 19.32,37.90 20.53,37.40 z" id="path3464" style="fill:#ffffff;fill-opacity:0.30;fill-rule:evenodd;stroke:none;stroke-width:0.30;stroke-linecap:butt;stroke-linejoin:miter;stroke-miterlimit:4;stroke-dasharray:none;stroke-opacity:1" />  
<path d="M 20.31,41.43 C 16.61,41.73 12.89,41.53 9.18,41.59 C 11.35,43.41 13.85,44.84 16.59,45.78 C 17.04,45.80 17.49,45.82 17.93,45.87 C 21.03,46.46 24.00,44.88 27.09,45.15 C 28.42,45.45 29.77,45.80 31.15,45.81 C 31.19,45.81 31.23,45.81 31.28,45.81 C 33.22,45.16 35.04,44.27 36.71,43.15 C 35.98,43.29 35.24,43.32 34.5,43.21 C 32.59,42.49 30.53,42.18 28.5,42.15 C 25.73,42.32 23.05,41.53 20.31,41.43 z" id="path3421" style="opacity:1;fill:#eba227;fill-opacity:0.23;fill-rule:evenodd;stroke:none;stroke-width:1px;stroke-linecap:butt;stroke-linejoin:miter;marker:none;marker-start:none;marker-mid:none;marker-end:none;stroke-miterlimit:4;stroke-dasharray:none;stroke-dashoffset:0;stroke-opacity:1;visibility:visible;display:inline;overflow:visible;enable-background:accumulate" />  
<path d="M 30.84,16.43 C 30.15,16.45 29.46,16.56 28.78,16.81 C 26.44,18.28 23.65,17.70 21.06,17.87 C 14.71,19.23 8.26,16.52 1.93,17.53 C 1.33,19.58 1,21.75 1,24 C 1,27.25 1.68,30.34 2.90,33.15 C 3.89,33.50 4.99,33.54 5.96,33.18 C 8.67,33.81 11.29,34.83 14,35.46 C 17.44,34.57 21.01,35.51 24.5,34.93 C 28.70,33.64 33.12,34.19 37.43,34.37 C 40.24,34.70 43.17,34.05 45.43,32.31 C 46.43,29.73 47,26.93 47,24 C 47,21.86 46.69,19.80 46.15,17.84 C 45.07,17.85 43.92,17.98 43,17.78 C 41.22,16.70 39.11,16.51 37.09,16.71 C 35.01,17.08 32.91,16.38 30.84,16.43 z" id="path3409" style="fill:#eba227;fill-opacity:0.31;fill-rule:evenodd;stroke:none;stroke-width:1px;stroke-linecap:butt;stroke-linejoin:miter;stroke-opacity:1" />  
<path d="M 13.84,20.59 C 9.63,20.64 5.38,21.26 1.15,21.37 C 1.05,22.23 1,23.10 1,24 C 1,25.44 1.12,26.84 1.37,28.21 C 2.48,28.53 3.70,28.65 4.93,28.56 C 8.77,29.19 12.24,26.64 16.06,27.37 C 22.42,28.92 28.97,28.06 35.43,28.03 C 39.19,27.54 42.97,27.51 46.75,27.5 C 46.92,26.35 47,25.19 47,24 C 47,22.91 46.92,21.85 46.78,20.81 C 42.59,21.46 38.34,21.76 34.09,21.65 C 29.87,21.41 25.57,22.05 21.40,21.37 C 18.90,20.73 16.37,20.56 13.84,20.59 z" id="path3322" style="fill:#e0e8fc;fill-opacity:1;fill-rule:evenodd;stroke:none;stroke-width:1px;stroke-linecap:butt;stroke-linejoin:miter;stroke-opacity:1" />  
<path d="M 24.87,11.18 C 23.83,11.35 23.67,12.52 23.84,13.37 C 24.18,15.93 25.91,17.94 26.90,20.25 C 24.76,18.60 22.09,17.88 19.53,17.21 C 16.99,16.94 15.39,14.77 13.28,13.62 C 12.58,13.00 11.97,13.11 11.34,13.34 C 12.65,13.51 13.80,14.22 14.84,15 C 16.45,16.35 13.86,14.59 13.37,14.93 C 14.35,17.11 9.53,14.69 11.21,13.40 C 10.59,13.65 9.96,13.97 9.25,13.84 C 8.02,12.82 4.80,10.96 4.34,13.56 C 4.74,16.00 7.84,16.07 9.5,17.31 C 11.03,18.37 8.84,18.58 8.06,18.06 C 6.01,17.58 4.99,15.73 3.56,14.40 C 3.27,14.51 3.04,14.71 2.87,14.96 C 2.85,15.02 2.80,15.06 2.78,15.12 C 2.75,15.16 2.73,15.20 2.71,15.25 C 2.65,15.39 2.61,15.54 2.56,15.68 C 2.54,15.75 2.51,15.80 2.5,15.87 C 2.26,17.02 2.57,18.50 3.25,19.31 C 3.67,19.31 2.27,16.76 2.78,15.68 C 3.48,13.56 4.68,16.02 4.93,17.03 C 6.06,17.36 7.39,18.26 8.75,18.40 C 10.78,18.72 11.00,21.24 12.65,22.12 C 15.69,22.96 18.54,24.35 21.43,25.59 C 23.50,26.33 25.59,27.06 27.68,27.71 C 30.01,28.18 27.66,25.38 26.68,25 C 24.03,22.75 20.65,21.70 17.84,19.71 C 17.02,18.96 13.87,16.96 16.34,16.43 C 18.72,17.38 21.25,17.87 23.65,18.78 C 25.50,19.13 27.10,20.60 27.40,22.5 C 27.26,23.89 28.08,26.82 29.90,25.75 C 30.04,24.65 30.97,25.91 30.59,24.59 C 31.65,23.83 32.78,26.14 33.65,26.84 C 34.94,28.18 35.10,26.39 34.21,25.65 C 33.16,24.54 30.48,22.95 32.09,21.28 C 33.28,21.47 34.50,23.26 35.93,23.78 C 37.15,23.93 38.77,26.79 39.59,25.18 C 37.74,22.34 35.22,19.65 34.87,16.12 C 33.66,14.07 36.94,13.54 37.12,15.56 C 39.26,19.18 41.56,22.78 44.68,25.65 C 45.41,25.99 46.06,26.84 46.75,27.46 C 46.77,27.31 46.79,27.15 46.81,27 C 43.19,24.20 40.33,20.50 38.09,16.53 C 37.46,15.33 36.28,12.91 34.68,14.25 C 34.25,16.60 35.17,18.97 36.37,20.96 C 37.02,22.61 38.78,23.72 39.06,25.5 C 37.34,24.19 35.44,23.16 33.71,21.87 C 31.56,20.99 32.85,18.66 32.53,16.96 C 31.39,13.79 28.28,11.32 24.87,11.18 z M 11.34,13.34 C 11.32,13.34 11.30,13.34 11.28,13.34 C 11.27,13.34 11.28,13.37 11.28,13.37 C 11.30,13.36 11.32,13.35 11.34,13.34 z M 24.93,11.46 L 25.15,11.46 L 25.40,11.5 C 28.89,12.04 32.49,14.94 32.31,18.75 C 32.50,21.00 30.63,19.69 29.96,18.56 C 28.17,17.03 27.13,14.83 25.34,13.31 C 25.28,13.37 25.23,13.40 25.18,13.46 C 26.17,14.45 26.98,15.56 27.84,16.65 C 28.71,18.53 31.48,19.23 31.56,21.43 C 30.20,23.08 28.68,20.03 28.31,18.78 C 28.07,18.51 27.83,18.24 27.59,17.96 C 27.63,18.04 27.68,18.10 27.71,18.18 C 28.83,19.76 26.79,18.58 27.28,17.62 C 26.26,16.43 25.35,15.14 25.12,13.56 C 24.38,14.77 26.25,16.26 26.53,17.5 C 27.27,19.14 25.65,18.02 25.46,17.18 C 25.04,15.37 22.99,13.05 24.93,11.46 z M 25.12,13.56 C 25.14,13.53 25.16,13.49 25.18,13.46 C 25.15,13.43 25.12,13.40 25.09,13.37 C 25.10,13.43 25.11,13.50 25.12,13.56 z M 5.75,12.53 C 7.49,12.92 9.03,13.89 10.56,14.78 C 11.02,16.91 12.70,18.53 14.53,19.59 C 13.78,19.59 11.44,18.38 10.78,17.06 C 10.37,16.73 9.98,13.94 9.71,15.31 C 10.93,17.24 8.25,16.88 7.37,16.09 C 5.99,15.79 3.43,13.32 5.75,12.53 z M 10.96,15.03 C 11.37,15.27 11.80,15.49 12.21,15.71 C 14.46,16.22 15.74,18.25 17.34,19.71 C 20.71,22.14 24.90,23.41 27.81,26.5 C 29.27,27.63 27.86,27.58 26.78,27.09 C 23.14,26.11 19.74,24.47 16.28,23.03 C 14.34,22.19 11.44,21.96 10.90,19.5 C 11.93,17.44 14.23,20.86 15.93,20.09 C 13.90,18.88 11.54,17.51 10.96,15.03 z M 13.59,15.03 C 13.95,15.32 14.36,15.54 14.78,15.75 C 17.15,16.80 13.31,16.42 13.59,15.03 z M 42.18,15.46 C 41.31,15.70 41.45,18.00 42.5,18.75 C 43.36,21.32 45.39,23.19 46.96,25.34 C 46.97,25.18 46.96,25.03 46.96,24.87 C 46.33,24.04 45.64,23.21 45,22.40 C 43.59,20.84 42.82,18.89 41.93,17.03 C 41.44,14.70 43.86,16.67 44.62,17.40 C 45.41,17.85 45.94,18.56 46.5,19.25 C 46.45,19.02 46.39,18.78 46.34,18.56 C 45.44,17.64 44.35,16.87 43.37,16.06 C 42.86,15.54 42.47,15.39 42.18,15.46 z M 10.28,16.65 C 11.57,18.22 10.17,17.54 10.28,16.65 z M 10.46,17.78 C 10.54,17.81 10.61,17.83 10.68,17.87 C 12.36,18.27 10.14,19.00 10.46,17.78 z M 27.09,18.40 C 28.34,20.18 29.68,22.11 29.90,24.34 C 30.16,26.38 27.78,25.44 27.90,23.93 C 27.83,23.24 26.69,20.44 28.21,21.65 C 29.26,21.23 26.26,19.61 27.09,18.40 z M 27.18,20.09 C 28.06,20.72 27.50,20.97 27.18,20.09 z M 29.12,20.93 C 29.74,21.57 30.36,22.22 31,22.84 C 29.87,23.77 29.31,21.74 29.12,20.93 z M 31.21,23.06 C 32.26,24.19 33.55,25.13 34.31,26.5 C 33.92,26.55 31.09,24.64 31.21,23.06 z M 30,23.28 C 31.20,23.78 30.02,24.52 30,23.28 z" id="path3476" style="fill:#ffffff;fill-opacity:0.37;fill-rule:evenodd;stroke:none;stroke-width:0.30;stroke-linecap:butt;stroke-linejoin:miter;stroke-miterlimit:4;stroke-dasharray:none;stroke-opacity:1" />  
<path d="M 33.87,3.21 C 32.74,3.39 31.61,3.47 30.46,3.28 C 24.69,3.36 18.93,3.57 13.15,3.71 C 12.97,3.81 12.80,3.93 12.62,4.03 C 15.59,3.93 18.57,4.12 21.53,3.81 C 25.84,3.67 30.15,3.56 34.46,3.53 C 34.27,3.42 34.07,3.31 33.87,3.21 z M 10.87,5.12 C 10.78,5.18 10.68,5.24 10.59,5.31 C 10.82,5.34 11.05,5.37 11.28,5.40 C 17.20,5.66 23.12,5.47 29.03,5.96 C 31.94,6.06 34.89,6.02 37.78,5.59 C 37.74,5.56 37.72,5.52 37.68,5.5 C 36.74,5.66 35.78,5.77 34.81,5.68 C 27.08,5.98 19.35,4.92 11.62,5.15 C 11.44,5.15 11.15,5.13 10.87,5.12 z M 38.43,6.12 C 36.48,6.99 34.50,7.83 32.43,8.34 C 23.89,8.70 15.35,8.67 6.81,8.71 C 6.72,8.81 6.64,8.90 6.56,9 C 6.50,9.07 6.43,9.14 6.37,9.21 C 7.08,9.17 7.81,9.13 8.53,9.15 L 8.87,9.15 L 9.25,9.12 C 15.49,9.27 21.72,9.84 27.96,9.71 C 23.12,10.40 18.26,11.50 13.34,11.06 C 10.56,11.06 7.78,11.06 5,11.06 C 4.93,11.16 4.88,11.27 4.81,11.37 C 9.73,11.43 14.64,11.49 19.56,11.18 C 22.86,10.94 26.10,10.05 29.40,9.78 C 32.43,9.33 35.51,9.74 38.5,8.96 C 39.31,8.80 40.14,8.62 40.96,8.46 C 40.82,8.31 40.67,8.17 40.53,8.03 C 38.56,8.17 36.59,8.28 34.62,8.21 C 35.85,7.29 37.34,6.90 38.78,6.37 C 38.67,6.28 38.54,6.21 38.43,6.12 z M 39.5,8.40 C 36.50,9.16 33.39,9.31 30.31,9.40 C 33.23,8.29 36.42,8.49 39.5,8.40 z M 32.09,8.62 C 27.44,10.24 22.47,9.13 17.68,9.18 C 16.89,9.17 13.88,9.00 16.15,9 C 21.46,8.91 26.78,8.87 32.09,8.62 z" id="path3482" style="fill:#ffffff;fill-opacity:0.24;fill-rule:evenodd;stroke:none;stroke-width:0.30;stroke-linecap:butt;stroke-linejoin:miter;stroke-miterlimit:4;stroke-dasharray:none;stroke-opacity:1" />  
<path d="M 4,15.09 C 3.59,15.10 3.18,15.14 2.78,15.15 C 2.52,15.76 2.29,16.36 2.09,17 C 6.87,16.97 11.68,16.92 16.43,17.5 C 20.03,15.64 23.97,17.68 27.71,17.12 C 31.83,18.42 35.93,17.28 40.09,17.34 C 41.27,17.29 44.17,17.61 46,17.31 C 45.77,16.58 45.53,15.88 45.25,15.18 C 41.89,15.64 38.45,16.07 35.06,15.40 C 28.34,14.95 21.62,15.85 14.90,15.34 C 11.27,15.12 7.63,15.01 4,15.09 z" id="path3337" style="opacity:1;fill:#e0e8fc;fill-opacity:0.80;fill-rule:evenodd;stroke:none;stroke-width:1px;stroke-linecap:butt;stroke-linejoin:miter;marker:none;marker-start:none;marker-mid:none;marker-end:none;stroke-miterlimit:4;stroke-dasharray:none;stroke-dashoffset:0;stroke-opacity:1;visibility:visible;display:inline;overflow:visible;enable-background:accumulate" />  
<path d="M 4.53,11.78 C 4.15,12.38 3.79,13.01 3.46,13.65 C 8.93,13.53 14.40,13.36 19.84,13.93 C 23.06,14.21 26.21,13.28 29.40,13.56 C 33.87,14.59 38.51,13.94 43.06,13.84 C 43.70,14.26 44.29,14.33 44.78,14.18 C 44.44,13.48 44.08,12.78 43.68,12.12 C 40.83,13.23 37.83,13.32 34.87,12.53 C 31.61,12.38 28.42,12.10 25.18,11.96 C 22.61,12.04 20.04,11.80 17.53,12.46 C 13.25,12.21 8.95,12.00 4.65,11.84 C 4.62,11.82 4.56,11.80 4.53,11.78 z" id="path3343" style="opacity:1;fill:#e0e8fc;fill-opacity:0.65;fill-rule:evenodd;stroke:none;stroke-width:1px;stroke-linecap:butt;stroke-linejoin:miter;marker:none;marker-start:none;marker-mid:none;marker-end:none;stroke-miterlimit:4;stroke-dasharray:none;stroke-dashoffset:0;stroke-opacity:1;visibility:visible;display:inline;overflow:visible;enable-background:accumulate" />  
<path d="M 46.34,29.43 C 45.42,29.43 43.94,29.61 43.15,29.62 C 38.36,29.39 33.56,29.63 28.81,30.21 C 24.55,30.04 20.30,29.54 16.03,29.56 C 13.39,29.24 10.78,30.04 8.15,30 C 6.02,29.59 3.85,29.66 1.68,29.56 C 1.78,29.94 1.88,30.31 2,30.68 C 2.96,30.67 3.95,30.52 4.87,30.81 C 6.92,30.52 9.01,31.07 11.06,30.75 C 13.32,30.02 15.66,30.78 17.96,30.84 C 24.25,30.61 30.55,30.35 36.84,30.43 C 39.98,30.33 43.18,30.36 46.28,29.75 C 46.30,29.64 46.31,29.53 46.34,29.43 z" id="path3348" style="opacity:1;fill:#e0e8fc;fill-opacity:0.77;fill-rule:evenodd;stroke:none;stroke-width:1px;stroke-linecap:butt;stroke-linejoin:miter;marker:none;marker-start:none;marker-mid:none;marker-end:none;stroke-miterlimit:4;stroke-dasharray:none;stroke-dashoffset:0;stroke-opacity:1;visibility:visible;display:inline;overflow:visible;enable-background:accumulate" />  
<path d="M 45.21,32.56 C 45.01,32.56 44.80,32.60 44.62,32.68 C 42.21,33.98 39.40,33.51 36.84,34.28 C 32.36,33.51 27.77,33.53 23.25,33.81 C 20.83,33.66 18.43,33.46 16,33.53 C 11.72,33.28 7.43,33.69 3.15,33.71 C 3.48,34.41 3.85,35.09 4.25,35.75 C 5.91,35.48 7.55,35.10 9.25,35.09 C 16.90,34.79 24.56,35.71 32.21,35.62 C 35.10,36.10 37.82,34.68 40.68,34.65 C 41.88,35.02 43.14,34.77 44.37,34.68 C 44.72,34.01 45.05,33.30 45.34,32.59 C 45.30,32.59 45.26,32.56 45.21,32.56 z" id="path3353" style="opacity:1;fill:#e0e8fc;fill-opacity:0.82;fill-rule:evenodd;stroke:none;stroke-width:1px;stroke-linecap:butt;stroke-linejoin:miter;marker:none;marker-start:none;marker-mid:none;marker-end:none;stroke-miterlimit:4;stroke-dasharray:none;stroke-dashoffset:0;stroke-opacity:1;visibility:visible;display:inline;overflow:visible;enable-background:accumulate" />  
<path d="M 13.37,39.81 C 12.64,39.83 11.91,39.86 11.18,39.90 C 9.97,39.99 8.74,40.03 7.53,40.03 C 7.96,40.47 8.40,40.90 8.87,41.31 C 11.18,41.34 13.49,41.50 15.81,41.56 C 19.69,41.60 23.52,42.30 27.40,42.34 C 30.84,42.23 34.28,42.34 37.71,42.46 C 38.32,42.01 38.91,41.53 39.46,41.03 C 39.33,41.03 39.21,41.03 39.09,41 C 37.81,40.61 36.51,40.11 35.15,40.03 C 32.95,39.71 30.82,40.62 28.62,40.5 C 25.70,40.32 22.78,40.60 19.87,40.28 C 17.73,39.83 15.55,39.75 13.37,39.81 z" id="path3360" style="opacity:1;fill:#e0e8fc;fill-opacity:0.43;fill-rule:evenodd;stroke:none;stroke-width:1px;stroke-linecap:butt;stroke-linejoin:miter;marker:none;marker-start:none;marker-mid:none;marker-end:none;stroke-miterlimit:4;stroke-dasharray:none;stroke-dashoffset:0;stroke-opacity:1;visibility:visible;display:inline;overflow:visible;enable-background:accumulate" />  
<path d="M 30.78,15.40 C 31.96,17.92 35.00,18.75 36.56,21 C 37.42,21.65 37.57,22.91 36.34,21.81 C 33.20,19.90 30.36,17.51 27.15,15.71 C 24.52,17.59 28.18,20.36 29.68,21.75 C 30.01,23.29 27.11,21.46 26.37,20.93 C 24.80,19.69 23.31,18.24 21.34,17.68 C 20.52,16.95 16.98,15.16 17.5,16.93 C 20.46,18.76 15.69,19.64 14.18,19.03 C 11.45,18.20 8.65,19.26 5.90,18.96 C 7.58,18.94 11.74,17.20 8.56,15.84 C 6.48,15.27 4.34,15.64 2.31,16.31 C 2.23,16.51 2.19,16.73 2.12,16.93 C 3.64,16.42 5.20,16.05 6.81,16.09 C 8.34,15.00 10.30,18.26 7.78,17.90 C 5.99,18.60 4.04,18.91 2.31,19.75 C 5.26,19.85 8.20,19.20 11.15,19.25 C 12.03,18.88 15.19,19.46 13,20.28 C 10.63,21.39 8.01,22.14 5.93,23.75 C 4.47,25.76 8.16,23.74 8.87,23.43 C 12.02,21.84 14.99,19.73 18.5,19.03 C 19.86,18.75 19.16,17.38 18.75,17.03 C 18.68,17.00 18.62,16.96 18.56,16.93 C 18.60,16.90 18.66,16.95 18.75,17.03 C 20.73,17.94 23.06,18.62 24.56,20.15 C 22.75,20.54 21.15,18.31 19.28,19.18 C 20.14,20.50 22.56,20.06 24,20.84 C 25.98,21.43 27.88,22.36 29.81,23.06 C 32.42,22.50 28.60,20.49 28,19.46 C 26.78,18.71 26.02,15.28 28.28,16.90 C 30.64,18.46 32.86,20.20 35.25,21.71 C 36.11,23.03 39.72,23.68 37.71,21.43 C 37.00,20.88 33.91,18.18 36.34,19.53 C 36.94,20.12 39.19,21.83 39.15,20.68 C 38.03,19.59 35.06,18.92 35,17.78 C 37.55,18.31 39.43,20.55 42.09,20.75 C 43.17,21.56 45.38,20.70 43.34,19.84 C 42.46,19.28 39.67,18.32 40.28,17.53 C 42.39,18.10 44.42,19.28 46.59,19.62 C 46.56,19.45 46.50,19.29 46.46,19.12 C 44.12,18.73 42.06,17.12 39.65,17 C 37.98,18.40 42.12,19.04 42.37,20.25 C 39.38,19.85 37.10,17.48 34.09,17.09 C 32.87,16.79 31.67,16.31 30.78,15.40 z M 11.78,21.37 C 10.78,21.79 8.64,23.06 8.34,22.96 C 9.43,22.35 10.57,21.73 11.78,21.37 z M 11.03,27.68 C 10.42,27.66 9.85,27.79 9.43,28.12 C 6.53,27.92 4.62,30.27 2.21,31.34 C 2.26,31.47 2.29,31.61 2.34,31.75 C 3.14,31.36 3.83,31.18 3.84,31.78 C 3.34,34.06 5.93,31.07 6.62,30.65 C 8.17,29.33 11.44,27.50 13,29.15 C 13.26,31.79 9.16,30.60 9.31,32.68 C 11.06,32.22 14.61,30.38 15.37,31.18 C 13.60,32.16 10.07,34.43 12.59,36.5 C 14.03,36.76 13.94,34.23 15.71,34.40 C 16.78,34.03 19.17,33.37 19.46,33.31 C 17.58,34.24 18.32,36.33 20.15,34.62 C 21.37,33.84 22.76,34.64 22.62,35.90 C 24.66,37.10 26.26,34.77 27.71,33.68 C 28.54,33.35 29.96,31.58 29.37,33.46 C 32.00,33.21 34.07,31.25 36.59,30.56 C 38.36,29.83 40.16,29.18 42.03,28.75 C 40.55,30.14 37.17,32.07 37.12,33.37 C 39.57,32.13 41.05,29.39 43.71,28.56 C 44.86,28.43 45.64,29.01 46.25,29.81 C 46.31,29.55 46.37,29.29 46.43,29.03 C 44.77,27.47 41.82,28.16 39.81,28.81 C 36.34,29.85 33.16,31.62 29.84,33.03 C 30.55,31.95 33.62,30.58 32.71,29.68 C 29.72,31.45 27.16,33.91 24.12,35.59 C 21.22,35.83 23.44,31.44 25.43,31.53 C 26.51,31.15 27.82,29.24 25.68,30.15 C 23.22,30.88 22.19,34.62 19.40,34.28 C 20.07,33.82 21.97,31.68 19.93,32.5 C 17.57,33.66 14.41,33.52 12.71,35.71 C 11.27,33.60 14.55,32.24 16,31.31 C 17.07,30.92 19.84,28.49 17.25,29.68 C 16.06,30.21 13.33,31.28 12.90,30.71 C 14.81,29.20 12.83,27.75 11.03,27.68 z M 8.03,28.87 C 7.48,29.63 4.85,29.51 6.93,28.96 C 7.30,28.94 7.66,28.90 8.03,28.87 z M 6.90,29.84 C 6.52,30.51 3.89,31.81 5.59,30.34 C 6.02,30.16 6.46,30.01 6.90,29.84 z M 25.03,31.21 C 24.60,31.67 23.81,32.14 23.65,32.15 C 23.68,32.09 23.83,31.90 24.28,31.59 C 24.52,31.45 24.78,31.34 25.03,31.21 z M 10.37,31.90 C 9.51,32.77 9.30,32.08 10.37,31.90 z" id="path3451" style="fill:#ffffff;fill-opacity:0.26;fill-rule:evenodd;stroke:none;stroke-width:0.5;stroke-linecap:butt;stroke-linejoin:miter;stroke-miterlimit:4;stroke-dasharray:none;stroke-opacity:1" />  
<path d="M 16.80,37.77 A 1.21,0.73 0 1 1 14.37,37.77 A 1.21,0.73 0 1 1 16.80,37.77 z" id="path3497" style="opacity:1;fill:#ffffff;fill-opacity:0.64;fill-rule:evenodd;stroke:none;stroke-width:0.30;stroke-linecap:butt;stroke-linejoin:miter;marker:none;marker-start:none;marker-mid:none;marker-end:none;stroke-miterlimit:4;stroke-dasharray:none;stroke-dashoffset:0;stroke-opacity:1;visibility:visible;display:inline;overflow:visible;enable-background:accumulate" />  
<path d="M 24,1 C 11.30,1 1,11.30 1,24 C 1,36.69 11.30,47 24,47 C 27.43,47 30.69,46.22 33.62,44.87 C 10.65,46.46 12.49,3.63 30.87,2.06 C 28.70,1.38 26.39,1 24,1 z" id="path3334" style="opacity:1;fill:#8c7b6e;fill-opacity:0.20;fill-rule:evenodd;stroke:none;stroke-width:0.5;stroke-linecap:round;stroke-linejoin:miter;marker:none;marker-start:none;marker-mid:none;marker-end:none;stroke-miterlimit:4;stroke-dasharray:none;stroke-dashoffset:0;stroke-opacity:1;visibility:visible;display:inline;overflow:visible;enable-background:accumulate" />  
<path d="M 23.5,36.25 C 22.68,36.25 22.03,36.65 22.03,37.15 C 22.03,37.65 22.68,38.06 23.5,38.06 C 24.31,38.06 25,37.65 25,37.15 C 25,36.65 24.31,36.25 23.5,36.25 z" id="path3499" style="opacity:1;fill:#ffffff;fill-opacity:0.64;fill-rule:evenodd;stroke:none;stroke-width:0.30;stroke-linecap:butt;stroke-linejoin:miter;marker:none;marker-start:none;marker-mid:none;marker-end:none;stroke-miterlimit:4;stroke-dasharray:none;stroke-dashoffset:0;stroke-opacity:1;visibility:visible;display:inline;overflow:visible;enable-background:accumulate" />  
<path d="M 16.80,37.77 A 1.21,0.73 0 1 1 14.37,37.77 A 1.21,0.73 0 1 1 16.80,37.77 z" transform="matrix(0.81,0,0,0.90,18.88,4.78)" id="path3501" style="opacity:1;fill:#ffffff;fill-opacity:0.64;fill-rule:evenodd;stroke:none;stroke-width:0.30;stroke-linecap:butt;stroke-linejoin:miter;marker:none;marker-start:none;marker-mid:none;marker-end:none;stroke-miterlimit:4;stroke-dasharray:none;stroke-dashoffset:0;stroke-opacity:1;visibility:visible;display:inline;overflow:visible;enable-background:accumulate" />  
<path d="M 23.03,29.68 C 22.21,29.68 21.56,30.09 21.56,30.59 C 21.56,31.09 22.21,31.5 23.03,31.5 C 23.84,31.5 24.50,31.09 24.5,30.59 C 24.5,30.09 23.84,29.68 23.03,29.68 z" id="path3503" style="opacity:1;fill:#ffffff;fill-opacity:0.64;fill-rule:evenodd;stroke:none;stroke-width:0.30;stroke-linecap:butt;stroke-linejoin:miter;marker:none;marker-start:none;marker-mid:none;marker-end:none;stroke-miterlimit:4;stroke-dasharray:none;stroke-dashoffset:0;stroke-opacity:1;visibility:visible;display:inline;overflow:visible;enable-background:accumulate" />  
<path d="M 35.34,30.65 C 34.86,30.65 34.46,31.06 34.46,31.56 C 34.46,32.06 34.86,32.46 35.34,32.46 C 35.82,32.46 36.18,32.06 36.18,31.56 C 36.18,31.06 35.82,30.65 35.34,30.65 z" id="path3506" style="opacity:1;fill:#ffffff;fill-opacity:0.64;fill-rule:evenodd;stroke:none;stroke-width:0.30;stroke-linecap:butt;stroke-linejoin:miter;marker:none;marker-start:none;marker-mid:none;marker-end:none;stroke-miterlimit:4;stroke-dasharray:none;stroke-dashoffset:0;stroke-opacity:1;visibility:visible;display:inline;overflow:visible;enable-background:accumulate" />  
<path d="M 26.43,8.15 C 25.75,8.15 25.18,8.48 25.18,8.90 C 25.18,9.32 25.75,9.65 26.43,9.65 C 27.11,9.65 27.68,9.32 27.68,8.90 C 27.68,8.48 27.11,8.15 26.43,8.15 z" id="path3510" style="opacity:1;fill:#ffffff;fill-opacity:0.64;fill-rule:evenodd;stroke:none;stroke-width:0.30;stroke-linecap:butt;stroke-linejoin:miter;marker:none;marker-start:none;marker-mid:none;marker-end:none;stroke-miterlimit:4;stroke-dasharray:none;stroke-dashoffset:0;stroke-opacity:1;visibility:visible;display:inline;overflow:visible;enable-background:accumulate" />  
<path d="M 47,24 A 23,23 0 1 1 1,24 A 23,23 0 1 1 47,24 z" id="stroke01" style="opacity:1;fill:none;fill-opacity:0.38;fill-rule:evenodd;stroke:#000000;stroke-width:0.5;stroke-linecap:round;stroke-linejoin:miter;marker:none;marker-start:none;marker-mid:none;marker-end:none;stroke-miterlimit:4;stroke-dasharray:none;stroke-dashoffset:0;stroke-opacity:1;visibility:visible;display:inline;overflow:visible;enable-background:accumulate" />
</svg>
