<?xml version="1.0" encoding="UTF-8" standalone="no"?>
<!-- Created with Inkscape (http://www.inkscape.org/) -->
<svg
   xmlns:svg="http://www.w3.org/2000/svg"
   xmlns="http://www.w3.org/2000/svg"
   version="1.0"
   width="100%"
   height="100%"
   viewBox="0 0 48 48"
   id="_moon01"
   style="display:inline">
  <defs
     id="defs2818" />
  <path
     d="M 47,24 A 23,23 0 1 1 1,24 A 23,23 0 1 1 47,24 z"
     id="path3320"
     style="opacity:1;fill:#ba9f8a;fill-opacity:1;fill-rule:evenodd;stroke:none;stroke-width:0.5;stroke-linecap:round;stroke-linejoin:miter;marker:none;marker-start:none;marker-mid:none;marker-end:none;stroke-miterlimit:4;stroke-dasharray:none;stroke-dashoffset:0;stroke-opacity:1;visibility:visible;display:inline;overflow:visible;enable-background:accumulate" />
  <path
     d="M 25.65625,25.3125 C 22.244461,25.445541 19.134502,27.920443 18,31.09375 C 17.676076,32.788801 18.969211,35.15443 16.8125,36.03125 C 15.081757,37.316459 13.184535,38.318439 11.46875,39.625 C 11.742954,37.846145 13.502182,36.744937 14.15625,35.09375 C 15.354177,33.101704 16.27814,30.73441 15.84375,28.375 C 14.241264,27.035975 13.066416,29.457331 12.4375,30.65625 C 10.780391,33.597933 8.7704023,36.391789 6.375,38.78125 C 6.4459732,38.865745 6.5215909,38.947796 6.59375,39.03125 C 9.3269646,36.292931 11.445985,33.006461 13.40625,29.6875 C 13.582259,27.668592 16.832322,28.19819 15.625,30.25 C 15.27657,33.776301 12.787955,36.469561 10.9375,39.3125 C 11.756867,40.921644 13.377393,38.060144 14.59375,37.90625 C 16.029262,37.391286 17.246377,35.603795 18.4375,35.40625 C 20.048463,37.077 17.361474,38.673872 16.3125,39.78125 C 15.425354,40.519554 15.582486,42.310308 16.875,40.96875 C 17.748843,40.268819 18.843082,37.962216 19.90625,38.71875 C 19.520839,40.044918 20.488231,38.775627 20.625,39.875 C 22.444287,40.945065 23.26338,38.024803 23.125,36.625 C 23.431234,34.72975 25.022336,33.257509 26.875,32.90625 C 29.273566,32.000938 31.803551,31.510317 34.1875,30.5625 C 36.6528,31.090008 33.470985,33.088955 32.65625,33.84375 C 29.845453,35.830677 26.492234,36.883363 23.84375,39.125 C 22.863862,39.512617 20.513995,42.305789 22.84375,41.84375 C 24.936944,41.19411 26.99979,40.462555 29.0625,39.71875 C 31.959232,38.484252 34.837288,37.093225 37.875,36.25 C 39.522509,35.372929 39.750046,32.846624 41.78125,32.53125 C 43.132134,32.387865 44.463939,31.491422 45.59375,31.15625 C 45.704278,30.719624 45.993029,30.018407 46.34375,29.53125 C 46.379114,29.388092 46.404834,29.237948 46.4375,29.09375 C 45.262384,30.336583 44.247353,31.768978 42.46875,32.1875 C 41.685306,32.707473 39.496171,32.502772 41.03125,31.4375 C 42.689002,30.198538 45.788141,30.134269 46.1875,27.6875 C 45.727811,25.090141 42.504819,26.94916 41.28125,27.96875 C 40.566464,28.103949 39.939238,27.776531 39.3125,27.53125 C 40.996298,28.824246 36.143974,31.274245 37.125,29.09375 C 36.6355,28.749224 34.080983,30.482621 35.6875,29.125 C 36.725463,28.350889 37.878795,27.636274 39.1875,27.46875 C 38.561111,27.23934 37.94372,27.162938 37.25,27.78125 C 35.136224,28.926666 33.503655,31.068161 30.96875,31.34375 C 28.401047,32.007472 25.762096,32.730952 23.625,34.375 C 24.613837,32.070985 26.3497,30.060412 26.6875,27.5 C 26.86079,26.651838 26.69727,25.476165 25.65625,25.3125 z M 39.1875,27.46875 C 39.208821,27.476559 39.228669,27.491898 39.25,27.5 C 39.243191,27.49529 39.256995,27.473426 39.25,27.46875 C 39.229871,27.471057 39.207557,27.466183 39.1875,27.46875 z M 25.375,25.59375 L 25.59375,25.59375 C 27.537834,27.176225 25.45286,29.501772 25.03125,31.3125 C 24.844909,32.153193 23.260201,33.271715 24,31.625 C 24.272424,30.388972 26.141326,28.902085 25.40625,27.6875 C 25.181325,29.254606 24.254369,30.539978 23.25,31.71875 C 23.794838,32.681639 21.690729,33.907127 22.8125,32.3125 C 22.860328,32.20763 22.935128,32.127875 23,32.03125 C 22.73778,32.330897 22.474479,32.617835 22.21875,32.90625 C 21.851148,34.158778 20.32241,37.207469 18.96875,35.5625 C 19.044004,33.364809 21.780612,32.656349 22.65625,30.78125 C 23.518443,29.692154 24.356929,28.575689 25.34375,27.59375 C 25.298844,27.531868 25.24726,27.497969 25.1875,27.4375 C 23.394335,28.961366 22.361175,31.161908 20.5625,32.6875 C 19.894116,33.815152 18.029873,35.128562 18.21875,32.875 C 18.038434,29.071941 21.633239,26.172999 25.125,25.625 L 25.375,25.59375 z M 25.34375,27.59375 C 25.366376,27.624929 25.387178,27.655987 25.40625,27.6875 C 25.415203,27.625126 25.430789,27.563242 25.4375,27.5 C 25.406027,27.530706 25.374899,27.562755 25.34375,27.59375 z M 44.78125,26.65625 C 47.096779,27.451835 44.537767,29.920061 43.15625,30.21875 C 42.28023,31.010528 39.594429,31.366115 40.8125,29.4375 C 40.550444,28.068023 40.16124,30.862206 39.75,31.1875 C 39.081422,32.505648 36.749599,33.717104 36,33.71875 C 37.827802,32.664378 39.505828,31.03709 39.96875,28.90625 C 41.500045,28.018413 43.033346,27.052936 44.78125,26.65625 z M 36.9375,29.15625 C 37.214515,30.55368 33.374231,30.930285 35.75,29.875 C 36.166413,29.673901 36.575493,29.445419 36.9375,29.15625 z M 39.5625,29.15625 C 38.988047,31.635843 36.623173,33.014105 34.59375,34.21875 C 36.294969,34.988904 38.594888,31.567662 39.625,33.625 C 39.087404,36.091292 36.152089,36.323968 34.21875,37.15625 C 30.755385,38.599295 27.386318,40.239801 23.75,41.21875 C 22.661667,41.709756 21.227801,41.762993 22.6875,40.625 C 25.595501,37.542436 29.814485,36.269558 33.1875,33.84375 C 34.785095,32.380932 36.066998,30.347832 38.3125,29.84375 C 38.729631,29.616675 39.152257,29.395553 39.5625,29.15625 z M 8.09375,29.59375 C 7.83557,29.628585 7.5078092,29.798213 7.125,30.1875 C 5.7713936,31.320368 4.1869658,32.346094 3.21875,33.84375 C 3.2683573,33.948253 3.3238701,34.052619 3.375,34.15625 C 4.1876971,33.2759 4.8108654,32.154033 5.90625,31.53125 C 6.6614745,30.797054 9.0575773,28.833972 8.5625,31.15625 C 7.6733059,33.020788 6.9327695,34.966198 5.53125,36.53125 C 5.3903441,36.707598 5.2377711,36.887167 5.09375,37.0625 C 5.1582882,37.155631 5.2153792,37.251624 5.28125,37.34375 C 6.395885,35.9793 7.4604089,34.568345 8.03125,32.875 C 9.1672587,32.06912 9.21253,29.442798 8.09375,29.59375 z M 40.25,30.78125 C 40.357526,31.668632 38.961109,32.348063 40.25,30.78125 z M 40.0625,31.90625 C 40.381752,33.127024 38.169204,32.433726 39.84375,32.03125 C 39.921204,31.996237 39.985603,31.942468 40.0625,31.90625 z M 23.4375,32.53125 C 24.270807,33.742233 21.269679,35.355576 22.3125,35.78125 C 23.832756,34.572785 22.700099,37.367892 22.625,38.0625 C 22.746532,39.572015 20.36203,40.510944 20.625,38.46875 C 20.844818,36.241704 22.18739,34.311098 23.4375,32.53125 z M 23.34375,34.21875 C 23.029941,35.095215 22.469732,34.846788 23.34375,34.21875 z M 21.40625,35.0625 C 21.217384,35.87497 20.651252,37.8953 19.53125,36.96875 C 20.171246,36.348264 20.788383,35.704843 21.40625,35.0625 z M 19.3125,37.1875 C 19.435425,38.769709 16.611235,40.68203 16.21875,40.625 C 16.979584,39.261281 18.269643,38.315134 19.3125,37.1875 z M 20.53125,37.40625 C 20.507312,38.654685 19.328946,37.905903 20.53125,37.40625 z"
     id="path3464"
     style="fill:#ffffff;fill-opacity:0.30909089;fill-rule:evenodd;stroke:none;stroke-width:0.30000001;stroke-linecap:butt;stroke-linejoin:miter;stroke-miterlimit:4;stroke-dasharray:none;stroke-opacity:1" />
  <path
     d="M 20.3125,41.4375 C 16.614504,41.731435 12.892855,41.530626 9.1875,41.59375 C 11.353291,43.419974 13.854851,44.849848 16.59375,45.78125 C 17.041706,45.803954 17.491429,45.828676 17.9375,45.875 C 21.030191,46.461131 24.004435,44.889806 27.09375,45.15625 C 28.429309,45.457992 29.77277,45.800049 31.15625,45.8125 C 31.197852,45.811471 31.239651,45.813423 31.28125,45.8125 C 33.223936,45.164041 35.045231,44.270387 36.71875,43.15625 C 35.989443,43.294352 35.240795,43.326324 34.5,43.21875 C 32.593385,42.494995 30.53849,42.189743 28.5,42.15625 C 25.738758,42.320809 23.057381,41.539258 20.3125,41.4375 z"
     id="path3421"
     style="opacity:1;fill:#eba227;fill-opacity:0.23636361;fill-rule:evenodd;stroke:none;stroke-width:1px;stroke-linecap:butt;stroke-linejoin:miter;marker:none;marker-start:none;marker-mid:none;marker-end:none;stroke-miterlimit:4;stroke-dasharray:none;stroke-dashoffset:0;stroke-opacity:1;visibility:visible;display:inline;overflow:visible;enable-background:accumulate" />
  <path
     d="M 30.84375,16.4375 C 30.153995,16.454194 29.460254,16.563429 28.78125,16.8125 C 26.447275,18.282845 23.65579,17.704659 21.0625,17.875 C 14.716076,19.233666 8.2690003,16.521467 1.9375,17.53125 C 1.3364873,19.583529 1,21.754245 1,24 C 1,27.257336 1.6833479,30.347442 2.90625,33.15625 C 3.8976286,33.508463 4.9998642,33.542474 5.96875,33.1875 C 8.6746505,33.811847 11.297108,34.833048 14,35.46875 C 17.446921,34.575918 21.018714,35.512186 24.5,34.9375 C 28.701016,33.642449 33.128528,34.19431 37.4375,34.375 C 40.246197,34.700768 43.17968,34.053132 45.4375,32.3125 C 46.439814,29.732332 47,26.933048 47,24 C 47,21.86803 46.699902,19.803352 46.15625,17.84375 C 45.073338,17.85406 43.923868,17.986324 43,17.78125 C 41.228465,16.707575 39.117804,16.519194 37.09375,16.71875 C 35.014542,17.088519 32.913015,16.387418 30.84375,16.4375 z"
     id="path3409"
     style="fill:#eba227;fill-opacity:0.31363639;fill-rule:evenodd;stroke:none;stroke-width:1px;stroke-linecap:butt;stroke-linejoin:miter;stroke-opacity:1" />
  <path
     d="M 13.84375,20.59375 C 9.6301528,20.641845 5.3868624,21.261342 1.15625,21.375 C 1.057697,22.238801 1,23.109962 1,24 C 1,25.442754 1.1204852,26.849386 1.375,28.21875 C 2.488355,28.539156 3.7074,28.650012 4.9375,28.5625 C 8.7764859,29.193448 12.24638,26.643615 16.0625,27.375 C 22.428685,28.920349 28.979048,28.06442 35.4375,28.03125 C 39.198871,27.544878 42.974145,27.518804 46.75,27.5 C 46.924606,26.358316 47,25.19025 47,24 C 47,22.916887 46.926323,21.855883 46.78125,20.8125 C 42.591023,21.468588 38.343764,21.766328 34.09375,21.65625 C 29.87137,21.41211 25.574913,22.054726 21.40625,21.375 C 18.904864,20.738408 16.376081,20.564845 13.84375,20.59375 z"
     id="path3322"
     style="fill:#e0e8fc;fill-opacity:1;fill-rule:evenodd;stroke:none;stroke-width:1px;stroke-linecap:butt;stroke-linejoin:miter;stroke-opacity:1" />
  <path
     d="M 24.875,11.1875 C 23.83398,11.351165 23.670461,12.526838 23.84375,13.375 C 24.18155,15.935412 25.917412,17.945986 26.90625,20.25 C 24.769154,18.605952 22.098954,17.882473 19.53125,17.21875 C 16.996345,16.943161 15.395025,14.770415 13.28125,13.625 C 12.58753,13.006688 11.970139,13.11434 11.34375,13.34375 C 12.652455,13.511274 13.805788,14.22589 14.84375,15 C 16.450267,16.357621 13.864501,14.592975 13.375,14.9375 C 14.356026,17.117995 9.5349513,14.699246 11.21875,13.40625 C 10.592012,13.651531 9.9647861,13.978949 9.25,13.84375 C 8.026431,12.82416 4.803439,10.965142 4.34375,13.5625 C 4.743109,16.009269 7.8422492,16.073539 9.5,17.3125 C 11.03508,18.377772 8.8459433,18.582471 8.0625,18.0625 C 6.016662,17.581095 4.9952951,15.730784 3.5625,14.40625 C 3.2769772,14.512284 3.0491128,14.715812 2.875,14.96875 C 2.8513145,15.023976 2.8045144,15.069552 2.78125,15.125 C 2.7589551,15.16469 2.7388605,15.208128 2.71875,15.25 C 2.6590647,15.394745 2.6192978,15.54129 2.5625,15.6875 C 2.5442915,15.753201 2.5143093,15.806588 2.5,15.875 C 2.2602658,17.021162 2.5761644,18.504215 3.25,19.3125 C 3.677936,19.319605 2.2772329,16.764881 2.78125,15.6875 C 3.485742,13.567359 4.6831062,16.026312 4.9375,17.03125 C 6.067311,17.366422 7.3991152,18.262864 8.75,18.40625 C 10.781205,18.721624 11.008742,21.247927 12.65625,22.125 C 15.693962,22.968225 18.540769,24.359253 21.4375,25.59375 C 23.50021,26.337555 25.594305,27.069109 27.6875,27.71875 C 30.017255,28.180789 27.667389,25.387616 26.6875,25 C 24.039016,22.758363 20.654546,21.705678 17.84375,19.71875 C 17.029015,18.963955 13.878449,16.965009 16.34375,16.4375 C 18.727699,17.385317 21.257683,17.875937 23.65625,18.78125 C 25.508914,19.132509 27.100017,20.604751 27.40625,22.5 C 27.26787,23.899803 28.086964,26.820063 29.90625,25.75 C 30.043019,24.650627 30.979161,25.919917 30.59375,24.59375 C 31.656918,23.837216 32.782409,26.143818 33.65625,26.84375 C 34.948764,28.185308 35.105897,26.394553 34.21875,25.65625 C 33.169776,24.548872 30.482788,22.951999 32.09375,21.28125 C 33.284873,21.478795 34.501987,23.266284 35.9375,23.78125 C 37.153857,23.935144 38.774381,26.796645 39.59375,25.1875 C 37.743295,22.344561 35.223432,19.651302 34.875,16.125 C 33.667678,14.07319 36.94899,13.543591 37.125,15.5625 C 39.267488,19.189986 41.569403,22.78118 44.6875,25.65625 C 45.414156,25.99575 46.069221,26.841096 46.75,27.46875 C 46.773456,27.313986 46.792148,27.155757 46.8125,27 C 43.190381,24.203383 40.332089,20.50473 38.09375,16.53125 C 37.464834,15.332331 36.289984,12.910974 34.6875,14.25 C 34.25311,16.60941 35.177073,18.976703 36.375,20.96875 C 37.029068,22.619937 38.788294,23.721144 39.0625,25.5 C 37.346715,24.193439 35.449492,23.160208 33.71875,21.875 C 31.562039,20.99818 32.855175,18.663802 32.53125,16.96875 C 31.396748,13.795443 28.286788,11.320541 24.875,11.1875 z M 11.34375,13.34375 C 11.323693,13.341183 11.301379,13.346057 11.28125,13.34375 C 11.274255,13.348426 11.288059,13.37029 11.28125,13.375 C 11.302581,13.366898 11.322429,13.351559 11.34375,13.34375 z M 24.9375,11.46875 L 25.15625,11.46875 L 25.40625,11.5 C 28.898011,12.047999 32.492817,14.94694 32.3125,18.75 C 32.501377,21.003562 30.637133,19.690152 29.96875,18.5625 C 28.170075,17.036908 27.136916,14.836366 25.34375,13.3125 C 25.28399,13.372969 25.232406,13.406868 25.1875,13.46875 C 26.174321,14.450689 26.981558,15.567155 27.84375,16.65625 C 28.719388,18.531349 31.487245,19.23981 31.5625,21.4375 C 30.20884,23.082469 28.680101,20.033777 28.3125,18.78125 C 28.079056,18.517968 27.833369,18.241199 27.59375,17.96875 C 27.638293,18.043439 27.683069,18.109264 27.71875,18.1875 C 28.830004,19.767177 26.7903,18.583567 27.28125,17.625 C 26.265665,16.437176 25.352083,15.144648 25.125,13.5625 C 24.389925,14.777086 26.258826,16.263973 26.53125,17.5 C 27.271049,19.146715 25.655092,18.028192 25.46875,17.1875 C 25.04714,15.376772 22.993415,13.051225 24.9375,11.46875 z M 25.125,13.5625 C 25.144072,13.530987 25.164874,13.499929 25.1875,13.46875 C 25.156351,13.437755 25.125223,13.405706 25.09375,13.375 C 25.100461,13.438242 25.116048,13.500126 25.125,13.5625 z M 5.75,12.53125 C 7.497904,12.927936 9.0312054,13.893413 10.5625,14.78125 C 11.025423,16.91209 12.703447,18.539379 14.53125,19.59375 C 13.781651,19.592104 11.449828,18.380649 10.78125,17.0625 C 10.370009,16.737206 9.9808072,13.943022 9.71875,15.3125 C 10.936822,17.241115 8.2510201,16.885529 7.375,16.09375 C 5.993483,15.795061 3.4344709,13.326835 5.75,12.53125 z M 10.96875,15.03125 C 11.378993,15.270553 11.801618,15.491675 12.21875,15.71875 C 14.464252,16.222832 15.746154,18.255932 17.34375,19.71875 C 20.716765,22.144558 24.9045,23.417437 27.8125,26.5 C 29.272199,27.637993 27.869582,27.584755 26.78125,27.09375 C 23.144932,26.114801 19.744616,24.474296 16.28125,23.03125 C 14.347911,22.198968 11.443846,21.966291 10.90625,19.5 C 11.936362,17.442662 14.236281,20.863905 15.9375,20.09375 C 13.908077,18.889105 11.543203,17.510843 10.96875,15.03125 z M 13.59375,15.03125 C 13.955757,15.320419 14.364839,15.548902 14.78125,15.75 C 17.157019,16.805285 13.316735,16.42868 13.59375,15.03125 z M 42.1875,15.46875 C 41.319435,15.700846 41.451377,18.00611 42.5,18.75 C 43.367012,21.321907 45.399403,23.195575 46.96875,25.34375 C 46.977694,25.188378 46.96291,25.03118 46.96875,24.875 C 46.330827,24.041597 45.649875,23.219588 45,22.40625 C 43.598481,20.841198 42.826695,18.895789 41.9375,17.03125 C 41.442423,14.708972 43.869773,16.672053 44.625,17.40625 C 45.415663,17.855783 45.946461,18.56008 46.5,19.25 C 46.451874,19.021531 46.398609,18.788422 46.34375,18.5625 C 45.446591,17.640058 44.351188,16.879498 43.375,16.0625 C 42.864588,15.543451 42.476855,15.391385 42.1875,15.46875 z M 10.28125,16.65625 C 11.570142,18.223063 10.173724,17.543633 10.28125,16.65625 z M 10.46875,17.78125 C 10.545647,17.817468 10.610044,17.839988 10.6875,17.875 C 12.362047,18.277476 10.149498,19.002025 10.46875,17.78125 z M 27.09375,18.40625 C 28.34386,20.186098 29.686433,22.116703 29.90625,24.34375 C 30.16922,26.385944 27.784717,25.447015 27.90625,23.9375 C 27.831151,23.242892 26.698494,20.447786 28.21875,21.65625 C 29.261571,21.230576 26.260442,19.617234 27.09375,18.40625 z M 27.1875,20.09375 C 28.061518,20.721788 27.501308,20.970216 27.1875,20.09375 z M 29.125,20.9375 C 29.742867,21.579843 30.360003,22.223265 31,22.84375 C 29.879998,23.7703 29.313865,21.749971 29.125,20.9375 z M 31.21875,23.0625 C 32.261607,24.190134 33.551665,25.136282 34.3125,26.5 C 33.920015,26.55703 31.095824,24.64471 31.21875,23.0625 z M 30,23.28125 C 31.202304,23.780903 30.023937,24.529686 30,23.28125 z"
     id="path3476"
     style="fill:#ffffff;fill-opacity:0.37272728;fill-rule:evenodd;stroke:none;stroke-width:0.30000001;stroke-linecap:butt;stroke-linejoin:miter;stroke-miterlimit:4;stroke-dasharray:none;stroke-opacity:1" />
  <path
     d="M 33.875,3.21875 C 32.749493,3.3968087 31.615999,3.478827 30.46875,3.28125 C 24.692313,3.3624086 18.931312,3.5790458 13.15625,3.71875 C 12.976139,3.8152231 12.802208,3.9301604 12.625,4.03125 C 15.591782,3.9319824 18.575465,4.1229897 21.53125,3.8125 C 25.840756,3.6772901 30.15713,3.5666887 34.46875,3.53125 C 34.271008,3.4299217 34.076003,3.3144672 33.875,3.21875 z M 10.875,5.125 C 10.782074,5.1898121 10.685669,5.2463582 10.59375,5.3125 C 10.820538,5.3433574 11.056839,5.374233 11.28125,5.40625 C 17.200884,5.6663667 23.121524,5.4761548 29.03125,5.96875 C 31.941389,6.0641597 34.897162,6.0258071 37.78125,5.59375 C 37.746348,5.5675402 37.722555,5.5260155 37.6875,5.5 C 36.74021,5.6696773 35.786904,5.7753607 34.8125,5.6875 C 27.083334,5.9875447 19.35404,4.9275891 11.625,5.15625 C 11.441591,5.1584404 11.155964,5.1320539 10.875,5.125 z M 38.4375,6.125 C 36.485449,6.9901193 34.500086,7.8316567 32.4375,8.34375 C 23.897644,8.7031785 15.357664,8.6732088 6.8125,8.71875 C 6.7294422,8.8120778 6.644052,8.9053211 6.5625,9 C 6.5000468,9.0725059 6.4365603,9.1454615 6.375,9.21875 C 7.0865026,9.1710636 7.8116191,9.1339589 8.53125,9.15625 L 8.875,9.15625 L 9.25,9.125 C 15.490841,9.2795072 21.721926,9.8473742 27.96875,9.71875 C 23.124403,10.401343 18.264872,11.507043 13.34375,11.0625 C 10.562434,11.0625 7.7813163,11.0625 5,11.0625 C 4.9303694,11.164455 4.8805242,11.271878 4.8125,11.375 C 9.7352771,11.430142 14.646549,11.491156 19.5625,11.1875 C 22.86422,10.949225 26.103497,10.05644 29.40625,9.78125 C 32.439485,9.3386308 35.511592,9.7419973 38.5,8.96875 C 39.313547,8.8024351 40.149759,8.6214826 40.96875,8.46875 C 40.829547,8.3167718 40.674438,8.179437 40.53125,8.03125 C 38.561588,8.1718297 36.599121,8.2844417 34.625,8.21875 C 35.858072,7.293862 37.347997,6.9041143 38.78125,6.375 C 38.673451,6.2844515 38.54697,6.2135941 38.4375,6.125 z M 39.5,8.40625 C 36.500298,9.1659315 33.392663,9.3190267 30.3125,9.40625 C 33.239294,8.2905865 36.429604,8.4947151 39.5,8.40625 z M 32.09375,8.625 C 27.447492,10.240261 22.476273,9.135476 17.6875,9.1875 C 16.89546,9.179853 13.886048,9.0032551 16.15625,9 C 21.465575,8.9130364 26.788687,8.8730221 32.09375,8.625 z"
     id="path3482"
     style="fill:#ffffff;fill-opacity:0.24090911;fill-rule:evenodd;stroke:none;stroke-width:0.30000001;stroke-linecap:butt;stroke-linejoin:miter;stroke-miterlimit:4;stroke-dasharray:none;stroke-opacity:1" />
  <path
     d="M 4,15.09375 C 3.59231,15.102821 3.1888035,15.142194 2.78125,15.15625 C 2.5273884,15.763486 2.295686,16.367727 2.09375,17 C 6.875559,16.979188 11.683047,16.929133 16.4375,17.5 C 20.030201,15.649504 23.974761,17.681099 27.71875,17.125 C 31.834773,18.421328 35.933145,17.280471 40.09375,17.34375 C 41.272399,17.291073 44.174904,17.616428 46,17.3125 C 45.779167,16.585278 45.539014,15.882319 45.25,15.1875 C 41.8991,15.643421 38.452956,16.077971 35.0625,15.40625 C 28.343644,14.955693 21.627125,15.859265 14.90625,15.34375 C 11.279101,15.124058 7.6365693,15.012839 4,15.09375 z"
     id="path3337"
     style="opacity:1;fill:#e0e8fc;fill-opacity:0.80454544;fill-rule:evenodd;stroke:none;stroke-width:1px;stroke-linecap:butt;stroke-linejoin:miter;marker:none;marker-start:none;marker-mid:none;marker-end:none;stroke-miterlimit:4;stroke-dasharray:none;stroke-dashoffset:0;stroke-opacity:1;visibility:visible;display:inline;overflow:visible;enable-background:accumulate" />
  <path
     d="M 4.53125,11.78125 C 4.150136,12.387535 3.7930978,13.013697 3.46875,13.65625 C 8.9307867,13.535041 14.401242,13.368102 19.84375,13.9375 C 23.061827,14.215376 26.212116,13.289559 29.40625,13.5625 C 33.874653,14.590894 38.518526,13.944524 43.0625,13.84375 C 43.703543,14.265089 44.293424,14.333533 44.78125,14.1875 C 44.449094,13.485558 44.086446,12.785816 43.6875,12.125 C 40.832137,13.236268 37.839357,13.327657 34.875,12.53125 C 31.615386,12.389043 28.429676,12.106563 25.1875,11.96875 C 22.619209,12.044793 20.04925,11.800759 17.53125,12.46875 C 13.252009,12.213657 8.9511333,12.004473 4.65625,11.84375 C 4.6200305,11.820029 4.5697628,11.803122 4.53125,11.78125 z"
     id="path3343"
     style="opacity:1;fill:#e0e8fc;fill-opacity:0.65454544;fill-rule:evenodd;stroke:none;stroke-width:1px;stroke-linecap:butt;stroke-linejoin:miter;marker:none;marker-start:none;marker-mid:none;marker-end:none;stroke-miterlimit:4;stroke-dasharray:none;stroke-dashoffset:0;stroke-opacity:1;visibility:visible;display:inline;overflow:visible;enable-background:accumulate" />
  <path
     d="M 46.34375,29.4375 C 45.423028,29.434863 43.947318,29.610898 43.15625,29.625 C 38.368883,29.393757 33.569898,29.638176 28.8125,30.21875 C 24.553191,30.041168 20.303737,29.549757 16.03125,29.5625 C 13.394265,29.243102 10.787806,30.049409 8.15625,30 C 6.0207048,29.598508 3.8509471,29.660515 1.6875,29.5625 C 1.7814643,29.940258 1.8876021,30.317364 2,30.6875 C 2.967452,30.670885 3.9565995,30.524621 4.875,30.8125 C 6.9270302,30.522511 9.0125481,31.072991 11.0625,30.75 C 13.321361,30.027593 15.666264,30.787569 17.96875,30.84375 C 24.252669,30.618945 30.551427,30.359527 36.84375,30.4375 C 39.988877,30.336939 43.183194,30.368835 46.28125,29.75 C 46.307401,29.648437 46.318958,29.539599 46.34375,29.4375 z"
     id="path3348"
     style="opacity:1;fill:#e0e8fc;fill-opacity:0.77272728;fill-rule:evenodd;stroke:none;stroke-width:1px;stroke-linecap:butt;stroke-linejoin:miter;marker:none;marker-start:none;marker-mid:none;marker-end:none;stroke-miterlimit:4;stroke-dasharray:none;stroke-dashoffset:0;stroke-opacity:1;visibility:visible;display:inline;overflow:visible;enable-background:accumulate" />
  <path
     d="M 45.21875,32.5625 C 45.018472,32.562284 44.800858,32.60709 44.625,32.6875 C 42.210896,33.985317 39.400507,33.511724 36.84375,34.28125 C 32.366372,33.515335 27.770529,33.532283 23.25,33.8125 C 20.835752,33.661003 18.430272,33.463546 16,33.53125 C 11.720941,33.280657 7.4346642,33.69698 3.15625,33.71875 C 3.4810025,34.413634 3.8599061,35.094983 4.25,35.75 C 5.9100688,35.483327 7.5578983,35.102623 9.25,35.09375 C 16.908363,34.795496 24.560019,35.712239 32.21875,35.625 C 35.105289,36.102869 37.82681,34.687009 40.6875,34.65625 C 41.882653,35.020557 43.147752,34.772242 44.375,34.6875 C 44.729478,34.012981 45.056397,33.30563 45.34375,32.59375 C 45.300458,32.590489 45.261512,32.562546 45.21875,32.5625 z"
     id="path3353"
     style="opacity:1;fill:#e0e8fc;fill-opacity:0.82727272;fill-rule:evenodd;stroke:none;stroke-width:1px;stroke-linecap:butt;stroke-linejoin:miter;marker:none;marker-start:none;marker-mid:none;marker-end:none;stroke-miterlimit:4;stroke-dasharray:none;stroke-dashoffset:0;stroke-opacity:1;visibility:visible;display:inline;overflow:visible;enable-background:accumulate" />
  <path
     d="M 13.375,39.8125 C 12.648076,39.831303 11.912218,39.868452 11.1875,39.90625 C 9.9714493,39.997969 8.7491004,40.031192 7.53125,40.03125 C 7.9626642,40.474333 8.4093302,40.905201 8.875,41.3125 C 11.185412,41.346957 13.497043,41.506126 15.8125,41.5625 C 19.692412,41.608171 23.526403,42.308609 27.40625,42.34375 C 30.840843,42.238728 34.28574,42.346329 37.71875,42.46875 C 38.321707,42.019509 38.913308,41.536119 39.46875,41.03125 C 39.330705,41.034444 39.214402,41.032771 39.09375,41 C 37.812009,40.616044 36.517782,40.110312 35.15625,40.03125 C 32.950991,39.713478 30.826941,40.624207 28.625,40.5 C 25.705015,40.329738 22.786302,40.60703 19.875,40.28125 C 17.73196,39.831663 15.555771,39.756092 13.375,39.8125 z"
     id="path3360"
     style="opacity:1;fill:#e0e8fc;fill-opacity:0.43636361;fill-rule:evenodd;stroke:none;stroke-width:1px;stroke-linecap:butt;stroke-linejoin:miter;marker:none;marker-start:none;marker-mid:none;marker-end:none;stroke-miterlimit:4;stroke-dasharray:none;stroke-dashoffset:0;stroke-opacity:1;visibility:visible;display:inline;overflow:visible;enable-background:accumulate" />
  <path
     d="M 30.78125,15.40625 C 31.967511,17.9258 35.008443,18.755798 36.5625,21 C 37.427018,21.657692 37.57326,22.914267 36.34375,21.8125 C 33.201662,19.907416 30.368136,17.513451 27.15625,15.71875 C 24.528794,17.599795 28.186158,20.368535 29.6875,21.75 C 30.014279,23.29568 27.111812,21.466138 26.375,20.9375 C 24.80641,19.690115 23.316374,18.244623 21.34375,17.6875 C 20.523152,16.953613 16.98469,15.161184 17.5,16.9375 C 20.460657,18.769675 15.694855,19.644308 14.1875,19.03125 C 11.459033,18.202362 8.6535866,19.266959 5.90625,18.96875 C 7.5854908,18.943963 11.747819,17.209208 8.5625,15.84375 C 6.4827716,15.275107 4.3461655,15.647499 2.3125,16.3125 C 2.2399009,16.517219 2.1919152,16.730168 2.125,16.9375 C 3.640791,16.426389 5.2005286,16.055594 6.8125,16.09375 C 8.341641,15.001806 10.30864,18.268107 7.78125,17.90625 C 5.9953019,18.602579 4.0463632,18.913895 2.3125,19.75 C 5.2662476,19.852632 8.2029347,19.202203 11.15625,19.25 C 12.030481,18.881591 15.197443,19.460991 13,20.28125 C 10.635678,21.390695 8.0108887,22.148489 5.9375,23.75 C 4.4751234,25.768802 8.1607299,23.748185 8.875,23.4375 C 12.02358,21.843964 14.996118,19.734924 18.5,19.03125 C 19.861764,18.75139 19.160241,17.386863 18.75,17.03125 C 18.687319,17.002268 18.624404,16.966974 18.5625,16.9375 C 18.601705,16.904429 18.665926,16.958371 18.75,17.03125 C 20.731474,17.947439 23.063366,18.624546 24.5625,20.15625 C 22.758539,20.54589 21.156862,18.312393 19.28125,19.1875 C 20.147909,20.501965 22.569386,20.062525 24,20.84375 C 25.988579,21.433391 27.880682,22.366887 29.8125,23.0625 C 32.420874,22.500258 28.601551,20.493106 28,19.46875 C 26.78187,18.716656 26.020175,15.283856 28.28125,16.90625 C 30.640779,18.461879 32.863071,20.20476 35.25,21.71875 C 36.110152,23.030992 39.720234,23.687874 37.71875,21.4375 C 37.009285,20.880751 33.911571,18.184497 36.34375,19.53125 C 36.942654,20.126542 39.198984,21.833479 39.15625,20.6875 C 38.031827,19.598131 35.066901,18.922289 35,17.78125 C 37.553391,18.317012 39.43298,20.555552 42.09375,20.75 C 43.178151,21.562172 45.384776,20.704346 43.34375,19.84375 C 42.469442,19.287926 39.675283,18.321031 40.28125,17.53125 C 42.393406,18.105883 44.427173,19.289358 46.59375,19.625 C 46.561248,19.456676 46.504905,19.291999 46.46875,19.125 C 44.120723,18.739162 42.061247,17.127268 39.65625,17 C 37.988892,18.407021 42.125697,19.046356 42.375,20.25 C 39.381165,19.855678 37.101572,17.480968 34.09375,17.09375 C 32.876806,16.793497 31.674043,16.315835 30.78125,15.40625 z M 11.78125,21.375 C 10.789859,21.796505 8.6414939,23.064149 8.34375,22.96875 C 9.4395238,22.352299 10.570338,21.734893 11.78125,21.375 z M 11.03125,27.6875 C 10.429313,27.664732 9.8537445,27.796584 9.4375,28.125 C 6.53096,27.929433 4.6299627,30.276684 2.21875,31.34375 C 2.2640436,31.47808 2.2960543,31.616791 2.34375,31.75 C 3.14773,31.3682 3.8362092,31.183228 3.84375,31.78125 C 3.3405019,34.065028 5.9397942,31.075162 6.625,30.65625 C 8.1720467,29.335128 11.441751,27.507926 13,29.15625 C 13.260188,31.797733 9.1648767,30.605322 9.3125,32.6875 C 11.06338,32.222022 14.611148,30.382754 15.375,31.1875 C 13.602581,32.164456 10.071247,34.431485 12.59375,36.5 C 14.038991,36.766821 13.942454,34.237509 15.71875,34.40625 C 16.786204,34.038121 19.174207,33.373119 19.46875,33.3125 C 17.587854,34.241957 18.323045,36.339835 20.15625,34.625 C 21.378481,33.842975 22.765115,34.642396 22.625,35.90625 C 24.66704,37.105986 26.262764,34.778104 27.71875,33.6875 C 28.541417,33.357988 29.960564,31.585909 29.375,33.46875 C 32.006886,33.21105 34.078945,31.256533 36.59375,30.5625 C 38.363092,29.832977 40.166328,29.188453 42.03125,28.75 C 40.556909,30.147995 37.179424,32.074399 37.125,33.375 C 39.576225,32.13498 41.055194,29.398827 43.71875,28.5625 C 44.864179,28.43608 45.649745,29.011727 46.25,29.8125 C 46.316827,29.556161 46.379385,29.290979 46.4375,29.03125 C 44.776357,27.479894 41.829904,28.162381 39.8125,28.8125 C 36.342109,29.855078 33.167725,31.622182 29.84375,33.03125 C 30.557776,31.954325 33.628869,30.580906 32.71875,29.6875 C 29.724849,31.452247 27.163057,33.918737 24.125,35.59375 C 21.224676,35.835799 23.447906,31.44421 25.4375,31.53125 C 26.51851,31.155766 27.82001,29.246519 25.6875,30.15625 C 23.224227,30.888022 22.196981,34.62258 19.40625,34.28125 C 20.079023,33.822365 21.976788,31.682826 19.9375,32.5 C 17.575544,33.667185 14.419654,33.527786 12.71875,35.71875 C 11.275371,33.600846 14.559783,32.248534 16,31.3125 C 17.074062,30.926219 19.843984,28.491793 17.25,29.6875 C 16.062258,30.218794 13.334567,31.283876 12.90625,30.71875 C 14.819262,29.200844 12.837061,27.755804 11.03125,27.6875 z M 8.03125,28.875 C 7.4812389,29.637076 4.8529232,29.513664 6.9375,28.96875 C 7.305221,28.942038 7.6639255,28.906009 8.03125,28.875 z M 6.90625,29.84375 C 6.5211812,30.517634 3.8999202,31.810572 5.59375,30.34375 C 6.0291655,30.1659 6.4691364,30.017177 6.90625,29.84375 z M 25.03125,31.21875 C 24.606356,31.677112 23.810191,32.142052 23.65625,32.15625 C 23.685007,32.096718 23.833592,31.907298 24.28125,31.59375 C 24.521658,31.458762 24.787642,31.347564 25.03125,31.21875 z M 10.375,31.90625 C 9.513772,32.774374 9.3021484,32.083742 10.375,31.90625 z"
     id="path3451"
     style="fill:#ffffff;fill-opacity:0.26818183;fill-rule:evenodd;stroke:none;stroke-width:0.5;stroke-linecap:butt;stroke-linejoin:miter;stroke-miterlimit:4;stroke-dasharray:none;stroke-opacity:1" />
  <path
     d="M 16.805794,37.770386 A 1.2178111,0.73068672 0 1 1 14.370172,37.770386 A 1.2178111,0.73068672 0 1 1 16.805794,37.770386 z"
     id="path3497"
     style="opacity:1;fill:#ffffff;fill-opacity:0.6454545;fill-rule:evenodd;stroke:none;stroke-width:0.30000001;stroke-linecap:butt;stroke-linejoin:miter;marker:none;marker-start:none;marker-mid:none;marker-end:none;stroke-miterlimit:4;stroke-dasharray:none;stroke-dashoffset:0;stroke-opacity:1;visibility:visible;display:inline;overflow:visible;enable-background:accumulate" />
  <path
     d="M 24,1 C 11.304,1 1,11.304 1,24 C 1,36.696 11.304,47 24,47 C 27.4385,47 30.694588,46.229433 33.625,44.875 C 10.659824,46.465594 12.499417,3.6375208 30.875,2.0625 C 28.703721,1.3825119 26.394539,1 24,1 z"
     id="path3334"
     style="opacity:1;fill:#8c7b6e;fill-opacity:0.20454544;fill-rule:evenodd;stroke:none;stroke-width:0.5;stroke-linecap:round;stroke-linejoin:miter;marker:none;marker-start:none;marker-mid:none;marker-end:none;stroke-miterlimit:4;stroke-dasharray:none;stroke-dashoffset:0;stroke-opacity:1;visibility:visible;display:inline;overflow:visible;enable-background:accumulate" />
  <path
     d="M 23.5,36.25 C 22.685166,36.25 22.031249,36.657842 22.03125,37.15625 C 22.03125,37.654657 22.685167,38.062498 23.5,38.0625 C 24.314834,38.0625 25,37.654656 25,37.15625 C 25,36.657843 24.314834,36.25 23.5,36.25 z"
     id="path3499"
     style="opacity:1;fill:#ffffff;fill-opacity:0.6454545;fill-rule:evenodd;stroke:none;stroke-width:0.30000001;stroke-linecap:butt;stroke-linejoin:miter;marker:none;marker-start:none;marker-mid:none;marker-end:none;stroke-miterlimit:4;stroke-dasharray:none;stroke-dashoffset:0;stroke-opacity:1;visibility:visible;display:inline;overflow:visible;enable-background:accumulate" />
  <path
     d="M 16.805794,37.770386 A 1.2178111,0.73068672 0 1 1 14.370172,37.770386 A 1.2178111,0.73068672 0 1 1 16.805794,37.770386 z"
     transform="matrix(0.812132,0,0,0.902369,18.888363,4.7897129)"
     id="path3501"
     style="opacity:1;fill:#ffffff;fill-opacity:0.6454545;fill-rule:evenodd;stroke:none;stroke-width:0.30000001;stroke-linecap:butt;stroke-linejoin:miter;marker:none;marker-start:none;marker-mid:none;marker-end:none;stroke-miterlimit:4;stroke-dasharray:none;stroke-dashoffset:0;stroke-opacity:1;visibility:visible;display:inline;overflow:visible;enable-background:accumulate" />
  <path
     d="M 23.03125,29.6875 C 22.216416,29.6875 21.5625,30.095343 21.5625,30.59375 C 21.5625,31.092157 22.216416,31.5 23.03125,31.5 C 23.846084,31.5 24.500001,31.092157 24.5,30.59375 C 24.5,30.095343 23.846083,29.687499 23.03125,29.6875 z"
     id="path3503"
     style="opacity:1;fill:#ffffff;fill-opacity:0.6454545;fill-rule:evenodd;stroke:none;stroke-width:0.30000001;stroke-linecap:butt;stroke-linejoin:miter;marker:none;marker-start:none;marker-mid:none;marker-end:none;stroke-miterlimit:4;stroke-dasharray:none;stroke-dashoffset:0;stroke-opacity:1;visibility:visible;display:inline;overflow:visible;enable-background:accumulate" />
  <path
     d="M 35.34375,30.65625 C 34.866725,30.65625 34.46875,31.064093 34.46875,31.5625 C 34.46875,32.060907 34.866725,32.46875 35.34375,32.46875 C 35.820775,32.468748 36.1875,32.060907 36.1875,31.5625 C 36.1875,31.064093 35.820775,30.656249 35.34375,30.65625 z"
     id="path3506"
     style="opacity:1;fill:#ffffff;fill-opacity:0.6454545;fill-rule:evenodd;stroke:none;stroke-width:0.30000001;stroke-linecap:butt;stroke-linejoin:miter;marker:none;marker-start:none;marker-mid:none;marker-end:none;stroke-miterlimit:4;stroke-dasharray:none;stroke-dashoffset:0;stroke-opacity:1;visibility:visible;display:inline;overflow:visible;enable-background:accumulate" />
  <path
     d="M 26.4375,8.15625 C 25.756368,8.1562502 25.187499,8.4896228 25.1875,8.90625 C 25.1875,9.3228762 25.756368,9.6562484 26.4375,9.65625 C 27.118634,9.6562502 27.6875,9.3228755 27.6875,8.90625 C 27.687499,8.4896234 27.118633,8.15625 26.4375,8.15625 z"
     id="path3510"
     style="opacity:1;fill:#ffffff;fill-opacity:0.6454545;fill-rule:evenodd;stroke:none;stroke-width:0.30000001;stroke-linecap:butt;stroke-linejoin:miter;marker:none;marker-start:none;marker-mid:none;marker-end:none;stroke-miterlimit:4;stroke-dasharray:none;stroke-dashoffset:0;stroke-opacity:1;visibility:visible;display:inline;overflow:visible;enable-background:accumulate" />
  <path
     d="M 47,24 A 23,23 0 1 1 1,24 A 23,23 0 1 1 47,24 z"
     id="path2548"
     style="opacity:1;fill:none;fill-opacity:0.38636361;fill-rule:evenodd;stroke:#000000;stroke-width:0.5;stroke-linecap:round;stroke-linejoin:miter;marker:none;marker-start:none;marker-mid:none;marker-end:none;stroke-miterlimit:4;stroke-dasharray:none;stroke-dashoffset:0;stroke-opacity:1;visibility:visible;display:inline;overflow:visible;enable-background:accumulate" />
</svg>
