<?xml version="1.0" encoding="UTF-8" standalone="no"?>

<svg xmlns:svg="http://www.w3.org/2000/svg" xmlns="http://www.w3.org/2000/svg" version="1.0" width="100%" height="100%" viewBox="0 0 48 48" id="_mars01" style="display:inline">
<defs id="defs2818"/>
<path d="M 46,24 A 22,22 0 1 1 2,24 A 22,22 0 1 1 46,24 z" id="p3295" style="opacity:1;fill:#812405;fill-opacity:1;fill-rule:evenodd;stroke:none;marker:none;visibility:visible;display:inline;overflow:visible;enable-background:accumulate"/>
<path d="M 12.97,7.72 C 3.13,14.88 10.29,22.93 12.97,29.20 C 15.66,35.46 26.40,39.04 31.77,33.90 C 37.14,28.75 28.41,25.17 31.10,21.14 C 33.78,17.11 26.62,-0.78 12.97,7.72 z" id="p3297" style="fill:#f25b04;fill-opacity:0.28;fill-rule:evenodd;stroke:none;"/>
<path d="M 18.12,7.04 C 6.04,14.65 6.48,20.02 6.93,24.28 C 7.38,28.53 12.53,28.30 14.32,33.45 C 16.11,38.60 23.27,43.52 30.43,39.72 C 37.59,35.91 45.64,25.84 38.71,14.65 C 31.77,3.46 23.71,4.14 18.12,7.04 z" id="p3299" style="opacity:1;fill:#f25b04;fill-opacity:0.28;fill-rule:evenodd;stroke:none;marker:none;visibility:visible;display:inline;overflow:visible;enable-background:accumulate"/>
<path d="M 9.17,37.48 C 14.09,44.64 38.04,47.32 42.51,27.41 C 46.99,7.49 24.39,-2.79 13.20,7.72 C 2.01,18.23 5.59,22.48 6.26,24.28 C 6.93,26.07 4.69,31.88 9.17,37.48 z" id="p3301" style="opacity:1;fill:#f25b04;fill-opacity:0.28;fill-rule:evenodd;stroke:none;marker:none;visibility:visible;display:inline;overflow:visible;enable-background:accumulate"/>
<path d="M 32.22,16.89 A 10.18,7.38 0 1 1 11.85,16.89 A 10.18,7.38 0 1 1 32.22,16.89 z" transform="translate(-1.11,-1.56)" id="p3303" style="opacity:1;fill:#fb630b;fill-opacity:0.40;fill-rule:evenodd;stroke:none;marker:none;visibility:visible;display:inline;overflow:visible;enable-background:accumulate"/>
<path d="M 34.23,31.32 A 4.92,4.36 0 1 1 24.39,31.32 A 4.92,4.36 0 1 1 34.23,31.32 z" id="p3305" style="opacity:1;fill:#fb630b;fill-opacity:0.40;fill-rule:evenodd;stroke:none;marker:none;visibility:visible;display:inline;overflow:visible;enable-background:accumulate"/>
<path d="M 29.75,6.59 C 25.09,6.59 27.96,11.24 28.62,13.43 C 27.43,15.30 26.23,20.66 30,18.12 C 31.23,15.68 33.21,9.02 34.81,14.84 C 35.22,19.57 29.50,18.23 27.21,20.21 C 25.74,23.62 30.91,22.70 32.5,22.12 C 32.67,22.03 32.84,21.93 33,21.84 C 33.01,21.89 32.78,22.01 32.5,22.12 C 30.53,23.17 27.42,24.05 26.65,24.93 C 24.79,22.25 21.49,21.56 18.46,21.46 C 15.90,24.52 12.82,20.92 12.93,18.34 C 9.84,17.93 7.86,23.22 10.21,25.03 C 11.87,26.50 17.63,23.92 16.78,26 C 15.43,28.41 12.78,32.11 15,34.59 C 17.00,34.71 16.93,38.18 19.65,36 C 20.76,34.83 22.57,36.26 23.37,33.96 C 25.69,31.90 27.16,27.12 31.15,26.56 C 34.13,25.64 37.05,27.34 36.31,30.62 C 39.65,31.22 40.46,35.78 39.34,38.96 C 38.46,39.30 37.87,40.25 37.65,41.21 C 42.22,37.58 45.30,32.19 45.87,26.06 C 45.82,25.98 45.79,25.89 45.75,25.81 C 44.71,22.64 39.26,21.89 42.84,18.75 C 44.76,15.12 41.01,12.15 39.12,9.5 C 36.80,5.86 33.06,7.94 29.75,6.59 z M 30.03,9.46 C 31.12,9.89 30.22,10.30 30.03,9.46 z M 38.96,13.75 C 42.34,14.74 39.12,22.40 37.93,18.93 C 38.56,17.22 38.66,15.50 38.96,13.75 z M 19.93,26.81 C 21.09,26.95 25.22,30.26 22.37,29.12 C 22.09,28.21 18.84,27.83 19.93,26.81 z M 17.5,31.03 C 17.34,32.63 16.88,31.63 17.5,31.03 z" id="p3307" style="fill:#450d02;fill-opacity:0.30;fill-rule:evenodd;stroke:none;"/>
<path d="M 22.87,2.03 C 21.58,2.09 20.31,2.28 19.09,2.56 C 19.07,2.78 19.09,2.97 19.12,3.09 C 19.19,3.36 19.24,3.49 19.31,3.59 C 19.43,3.79 19.55,3.88 19.65,4 C 20.07,4.47 20.65,4.98 21.37,5.59 C 22.09,6.19 22.89,6.85 23.62,7.40 C 24.35,7.95 24.90,8.35 25.5,8.65 C 26.10,8.95 26.65,9.46 27.25,9.90 C 27.05,10.35 27.05,10.79 27.12,11.09 C 27.27,11.73 27.53,12.07 27.87,12.5 C 27.88,12.51 28.23,13.57 28.53,14.62 C 28.67,15.14 28.81,15.68 29.28,16.28 C 29.51,16.58 29.89,16.90 30.40,17.06 C 30.91,17.21 31.48,17.16 31.90,17 C 31.87,17.01 32.91,16.76 33.56,15.78 C 33.65,15.64 33.62,15.43 33.68,15.28 C 33.75,16.45 33.59,17.84 33.59,18.90 C 33.59,19.92 34.01,20.56 34.34,21.03 C 34.22,21.22 33.98,21.61 33.90,21.75 C 32.58,21.48 31.28,21.37 30,21.37 C 29.35,21.37 28.43,21.56 27.56,21.71 C 26.96,21.26 26.35,20.77 25.81,20.56 C 25.01,20.24 24.31,20.04 23.28,19.53 C 21.46,18.62 19.45,18.03 17.90,17.65 C 17.13,17.46 16.48,17.33 16.03,17.25 C 15.80,17.20 15.66,17.17 15.53,17.15 C 15.46,17.14 15.46,17.13 15.28,17.12 C 15.25,17.12 15.20,17.12 15.15,17.12 C 15.11,17.12 14.93,17.15 14.93,17.15 C 14.93,17.15 14.59,17.24 14.59,17.25 C 14.59,17.25 13.84,17.93 13.84,17.93 C 13.84,17.93 13.87,19.49 13.87,19.5 C 13.87,19.50 14.31,19.96 14.31,19.96 C 14.31,19.96 14.48,20.03 14.53,20.06 C 14.57,20.08 14.59,20.11 14.62,20.12 C 14.68,20.14 14.72,20.14 14.75,20.15 C 14.80,20.17 14.82,20.18 14.84,20.18 C 15.18,20.27 15.97,20.81 16.46,21.09 C 16.29,21.26 16.02,21.38 15.93,21.53 C 15.54,22.15 15.85,21.90 15.65,22 C 15.74,21.95 15.46,22.05 15.06,22 C 14.77,21.95 14.40,21.82 14.06,21.68 C 14.04,21.63 14.05,21.54 14.03,21.5 C 13.78,20.95 13.44,20.54 12.96,20.06 C 12.79,19.89 12.66,19.71 12.18,19.53 C 11.95,19.44 11.53,19.35 11.03,19.53 C 11.10,19.42 11.02,19.49 11.21,19.28 C 11.62,18.87 11.78,18.29 11.62,17.75 C 11.46,17.20 10.99,16.77 10.43,16.65 C 9.87,16.54 9.30,16.74 8.93,17.18 C 8.13,18.06 7.46,19.15 7.65,20.43 C 7.85,21.71 8.75,22.59 9.87,23.34 C 10.43,23.71 10.94,23.98 11.46,24.15 C 11.70,24.23 11.98,24.29 12.28,24.31 C 12.31,24.32 12.34,24.32 12.37,24.34 C 13.10,24.69 13.86,24.95 14.62,25.06 C 15.41,25.17 16.20,25.19 17.03,24.78 C 17.87,24.35 18.29,23.67 18.43,23.40 C 18.47,23.39 18.50,23.37 18.81,23.37 C 19.37,23.37 19.91,23.47 20.46,23.53 C 20.80,23.74 21.32,24.16 21.81,24.53 C 21.47,24.85 21.13,25.19 20.81,25.75 C 20.09,27.00 18.83,28.66 17.75,30.5 C 16.66,32.33 15.68,34.36 15.68,36.59 C 15.68,37.15 15.73,37.75 15.71,38.31 C 15.44,38.20 15.20,38.13 14.93,38.03 C 14.20,37.73 13.49,37.46 12.90,37.25 C 12.31,37.03 12.00,36.81 11.18,36.81 C 10.87,36.81 10.38,36.95 10.06,37.28 C 9.73,37.60 9.62,37.97 9.59,38.21 C 9.52,38.70 9.62,38.91 9.68,39.09 C 9.80,39.45 9.96,39.69 10.15,40 C 10.54,40.60 11.09,41.33 11.84,42.06 C 12.15,42.36 12.50,42.67 12.87,42.96 C 14.31,43.81 15.84,44.49 17.46,45 C 17.47,45.00 17.48,44.99 17.5,45 C 17.77,45.03 18.05,45.06 18.34,45.06 C 18.70,45.06 19.16,45.25 19.87,45.59 C 19.89,45.60 19.91,45.61 19.93,45.62 C 21.25,45.87 22.61,46 24,46 C 26.23,46 28.37,45.64 30.40,45.03 C 30.79,44.41 30.70,43.60 30.18,43.09 C 30.26,43.16 30.12,42.98 29.93,42.65 C 29.75,42.32 29.48,41.80 28.90,41.37 C 28.52,41.08 27.65,40.38 26.90,39.84 C 26.53,39.57 26.28,39.36 25.71,39.15 C 25.57,39.10 25.41,39.03 25.06,39.03 C 24.71,39.03 23.97,39.28 23.65,39.84 C 23.33,40.40 23.44,40.79 23.5,41.03 C 23.51,41.10 23.54,41.13 23.56,41.18 C 23.53,41.15 23.49,41.12 23.46,41.09 C 23.13,40.74 22.89,40.45 22.59,40.18 C 22.57,40.16 22.52,40.14 22.5,40.12 C 22.85,40.04 23.23,39.86 23.59,39.43 C 23.86,39.10 24.04,38.62 24.03,38.18 C 24.01,37.75 23.87,37.39 23.71,37.12 C 23.48,36.73 23.28,36.55 23.03,36.25 C 22.78,35.94 22.52,35.58 22.28,35.25 C 22.04,34.91 21.81,34.59 21.71,34.37 C 21.67,34.26 21.65,34.17 21.65,34.15 C 21.69,33.87 21.67,33.62 21.62,33.40 C 21.67,33.37 21.78,33.36 21.84,33.34 C 21.87,33.32 21.90,33.29 21.93,33.28 C 22.06,33.24 22.28,33.29 22.40,33.25 C 22.87,33.09 23.28,32.89 23.65,32.68 C 24.03,32.48 24.31,32.34 24.65,32.03 C 24.74,31.95 24.82,31.85 24.96,31.62 C 25.04,31.51 25.13,31.35 25.18,31.06 C 25.24,30.76 25.20,30.26 24.93,29.87 C 24.73,29.57 24.54,29.50 24.34,29.40 C 24.52,29.29 24.71,29.18 24.93,28.96 C 25.11,28.79 25.32,28.38 25.40,27.90 C 25.43,27.89 25.43,27.88 25.46,27.87 C 25.54,27.85 25.59,27.83 25.75,27.78 C 25.82,27.75 25.93,27.75 26.12,27.62 C 26.20,27.57 26.36,27.43 26.5,27.28 C 26.56,27.29 26.62,27.32 26.68,27.34 C 27.31,27.49 28.02,27.56 28.71,27.18 C 29.41,26.81 29.81,25.97 29.84,25.34 C 29.85,25.03 29.71,24.79 29.65,24.53 C 29.73,24.52 29.94,24.5 30,24.5 C 31.84,24.5 33.10,24.56 34.40,25.09 C 34.37,25.50 34.39,25.94 34.53,26.15 C 34.70,26.43 34.85,26.56 34.96,26.65 C 35.44,27.02 35.68,27.07 36.03,27.21 C 36.28,27.32 36.51,27.42 36.75,27.53 C 36.87,27.81 36.94,28.05 37.09,28.34 C 37.34,28.83 37.67,29.08 37.96,29.40 C 37.91,29.55 37.82,29.71 37.81,29.81 C 37.77,30.13 37.81,30.27 37.84,30.40 C 37.93,30.90 38.05,31.23 38.21,31.65 C 38.11,31.78 37.88,31.98 37.84,32.06 C 37.76,32.20 37.71,32.32 37.65,32.46 C 37.53,32.75 37.42,33.11 37.25,33.62 C 37.08,34.13 36.94,34.58 36.81,34.90 C 36.63,35.36 36.08,35.84 35.65,36.34 C 35.46,36.44 35.43,36.46 35.21,36.56 C 34.51,36.88 33.69,37.26 32.93,37.59 C 32.18,37.92 31.55,38.19 31.03,38.5 C 30.90,38.57 30.75,38.65 30.59,38.78 C 30.54,38.82 30.47,39.03 30.40,39.09 C 30.26,39.07 30.32,38.95 29.96,39.06 C 29.86,39.09 29.59,39.21 29.59,39.21 C 29.59,39.21 29.21,39.53 29.21,39.53 C 29.21,39.53 28.93,40.03 28.93,40.03 C 28.93,40.03 28.84,40.49 28.84,40.5 C 28.84,40.50 28.85,40.77 28.87,40.87 C 28.89,40.97 28.90,41.05 28.93,41.12 C 28.99,41.26 29.04,41.36 29.09,41.43 C 29.28,41.72 29.39,41.76 29.5,41.84 C 29.56,41.89 29.65,41.89 29.71,41.93 C 29.66,41.90 29.87,42.03 30.21,42.37 C 31.02,43.18 32.04,43.74 33.12,44.03 C 34.88,43.22 36.52,42.18 38,40.96 C 37.57,40.67 37.05,40.54 36.68,40.56 C 36.09,40.58 35.64,40.76 35.12,41.03 C 35.09,41.04 35.00,41.01 34.96,41.03 C 36.61,40.33 38.18,39.40 39.31,37.78 C 39.69,37.57 40.04,37.39 40.53,37.06 C 40.87,36.83 41.25,36.42 41.53,35.96 C 41.67,36.10 41.84,36.26 42,36.37 C 42.04,36.40 42.08,36.43 42.12,36.46 C 43.43,34.56 44.46,32.43 45.12,30.15 C 44.83,29.74 44.49,29.41 44.18,29 C 44.28,28.55 44.38,28.17 44.40,27.59 C 44.48,25.70 43.97,23.09 41.81,20.93 C 40.84,19.97 39.76,19.63 39.09,19.34 C 39.25,18.70 39.44,18.03 39.59,17.46 C 39.82,16.59 40.09,15.80 40.09,15.81 C 41.03,13.93 41.37,12.04 41.18,10.31 C 39.18,7.79 36.65,5.72 33.75,4.28 C 33.71,4.31 33.68,4.34 33.65,4.37 C 33.33,4.71 33.17,5.12 33.06,5.53 C 32.86,5.71 32.56,5.85 32.46,6.03 C 32.08,6.74 32.10,7.23 32.09,7.75 C 32.08,8.60 32.18,9.31 32.21,9.75 C 32.13,9.74 32.08,9.75 32,9.75 C 31.83,9.67 31.67,9.63 31.5,9.56 C 31.47,9.53 31.46,9.49 31.43,9.46 C 31.47,9.12 31.53,8.86 31.53,8.40 C 31.53,7.06 30.77,5.92 29.90,5.15 C 29.03,4.39 27.99,3.87 26.93,3.40 C 25.67,2.84 24.35,2.40 23.31,2.03 C 23.16,2.03 23.02,2.02 22.87,2.03 z M 38.46,22.5 C 38.90,22.70 39.40,22.90 39.62,23.12 C 39.91,23.41 39.98,23.70 40.18,24 C 40.06,23.87 39.93,23.74 39.81,23.62 C 39.46,23.27 38.94,22.88 38.46,22.5 z M 18.96,35.75 C 19.07,35.97 19.21,36.16 19.34,36.37 C 19.19,36.31 19.03,36.22 18.87,36.18 C 18.88,36.05 18.94,35.89 18.96,35.75 z M 20.31,39.84 C 20.44,39.87 20.58,39.91 20.71,39.93 C 20.64,39.97 20.60,40.04 20.53,40.09 C 20.44,40.03 20.37,40.00 20.31,39.96 C 20.32,39.97 20.32,39.95 20.31,39.87 C 20.31,39.86 20.31,39.85 20.31,39.84 z" id="p3319" style="fill:#500f03;fill-opacity:0.18;fill-rule:evenodd;stroke:none;"/>
<path d="M 33.46,8.56 C 31.22,8.86 30.00,11.59 30.96,13.56 C 31.33,15.03 32.92,15.79 33.84,16.56 C 33.91,17.65 33.93,19.52 32.5,19.65 C 31.05,18.79 29.44,19.82 29.03,21.34 C 29.10,22.62 27.48,23.77 27.90,24.87 C 29.34,25.86 31.48,24.59 32.18,23.25 C 32.62,22.25 31.09,21.69 30.90,21.59 C 32.21,20.55 33.65,22.03 35.06,21.96 C 36.23,22.41 37.48,23.22 38.75,23.68 C 39.98,24.25 41.40,25.43 40.81,26.96 C 40.32,28.14 40.84,29.41 42.21,29.28 C 42.98,30.43 42.00,31.91 41.81,33.15 C 41.41,34.33 41.10,35.87 41.78,36.96 C 44.43,33.33 46,28.84 46,24 C 46,23.91 46.00,23.83 46,23.75 C 44.55,22.75 42.88,22.07 41.18,21.65 C 39.98,20.56 37.80,21.02 37.06,19.37 C 37.55,18.03 38.91,16.77 38.59,15.12 C 38.59,13.15 37.80,11.27 36.78,9.62 C 35.66,9.31 34.42,9.28 33.46,8.56 z M 33.59,10.25 C 32.70,10.99 34.03,13.52 32.71,13.37 C 31.81,12.41 32.36,10.62 33.59,10.25 z M 36.75,14.28 C 37.50,14.79 36.22,17.27 36.34,15.62 C 36.45,15.16 36.66,14.74 36.75,14.28 z M 43.37,23.81 C 44.55,23.79 44.37,26.34 43.09,25.03 C 42.83,24.67 43.13,24.23 43.12,23.84 C 43.21,23.81 43.29,23.81 43.37,23.81 z" id="p3328" style="fill:#270904;fill-opacity:0.46;fill-rule:evenodd;stroke:none;"/>
<path d="M 9.43,16.93 C 8.33,17.47 8.67,18.94 9.14,19.81 C 9.42,20.79 10.10,21.57 10.99,22.07 C 12.17,22.92 13.54,23.50 14.98,23.73 C 16.27,23.62 17.56,23.78 18.85,23.76 C 19.88,23.87 20.86,24.43 21.55,25.17 C 21.70,26.01 20.38,26.20 20.09,27.01 C 19.34,27.96 18.79,29.30 19.29,30.49 C 19.27,31.55 18.03,30.90 17.56,31.48 C 16.75,32.38 17.07,33.70 17.17,34.78 C 17.27,35.56 17.71,36.82 18.71,36.41 C 19.56,35.82 18.97,34.79 18.75,34.02 C 18.41,33.24 19.27,32.30 19.96,33.13 C 20.68,34.24 21.85,32.63 21.55,32.55 C 21.49,33.67 23.45,34.15 23.67,32.93 C 23.76,32.03 23.01,31.16 23.37,30.28 C 24.08,29.84 25.28,30.92 25.68,29.68 C 25.85,28.88 24.30,28.14 25.67,27.71 C 26.46,27.00 25.64,26.00 25.02,25.49 C 23.89,24.75 23.82,23.05 22.48,22.55 C 21.40,22.06 20.23,21.80 19.11,21.41 C 18.03,21.27 16.82,20.67 15.79,21.25 C 14.90,21.94 14.02,20.93 13.04,21.12 C 12.27,20.82 12.10,19.77 11.11,19.74 C 9.98,19.28 10.86,17.77 10.13,17.04 C 9.93,16.90 9.67,16.90 9.43,16.93 z M 23.34,26.46 C 24.15,26.42 23.31,27.65 23.04,26.89 C 21.93,27.24 22.90,26.42 23.34,26.46 z M 21.62,27.93 C 22.00,28.45 20.62,29.78 21.06,28.62 C 21.20,28.36 21.40,28.13 21.62,27.93 z" id="p3341" style="opacity:1;fill:#270904;fill-opacity:0.24;fill-rule:evenodd;stroke:none;marker:none;visibility:visible;display:inline;overflow:visible;enable-background:accumulate"/>
<path d="M 35.28,8.84 C 34.45,9.62 32.98,9.59 32.46,10.71 C 32.11,11.69 33.16,12.02 33.87,11.90 C 33.20,12.90 33.45,14.16 33.31,15.31 C 33.22,16.39 32.37,17.24 32.37,18.34 C 32.16,19.59 32.90,20.78 34.09,21.15 C 34.86,21.85 33.02,22.44 34,23.31 C 35.11,24.45 37.03,24.50 38.40,23.81 C 39.37,23.13 41.11,23.31 40.21,24.81 C 39.63,25.67 40.46,26.03 41.06,26.34 C 41.09,27.21 39.96,28.26 41.15,28.90 C 42.12,30.00 43.22,31.15 43.37,32.68 C 43.47,33.20 43.46,33.72 43.46,34.25 C 44.42,32.44 45.14,30.50 45.56,28.43 C 45.56,28.42 45.56,28.41 45.56,28.40 C 45.10,26.20 44.34,24.04 42.71,22.43 C 41.59,21.19 40.09,20.26 38.40,20.09 C 37.29,19.95 36.50,18.82 37.12,17.87 C 36.45,16.58 38.03,15.84 37.78,14.65 C 37.98,13.30 37.92,11.74 36.68,11 C 36.33,10.21 36.62,8.64 35.28,8.84 z M 34.59,17.15 C 35.15,17.74 33.55,18.21 34.46,17.37 C 34.51,17.30 34.55,17.23 34.59,17.15 z M 37.34,22.09 C 38.43,22.27 35.92,22.70 37.28,22.15 L 37.31,22.12 L 37.34,22.09 z" id="p3351" style="opacity:1;fill:#0c0201;fill-opacity:0.26;fill-rule:evenodd;stroke:none;marker:none;visibility:visible;display:inline;overflow:visible;enable-background:accumulate"/>
<path d="M 7.03,10.03 C 6.44,10.74 5.87,11.49 5.37,12.28 C 5.34,12.47 5.24,12.65 5.09,12.78 C 3.13,16.06 2,19.89 2,24 C 2,25.56 2.15,27.09 2.46,28.56 C 2.65,28.14 2.93,27.78 3.21,27.43 C 2.98,27.67 2.79,28.70 2.59,29.12 C 2.85,30.23 3.19,31.30 3.62,32.34 C 3.64,31.65 3.64,30.95 3.81,30.40 C 3.67,29.85 5.00,28.00 4.34,29.46 C 3.98,30.77 4.16,32.13 4.12,33.46 C 4.85,34.98 5.77,36.41 6.81,37.71 C 6.82,37.06 6.74,36.38 6.65,35.78 C 5.87,34.07 8.39,35.24 8.34,33.81 C 8.20,32.55 9.68,32.13 9.65,31.09 C 9.05,30.09 7.48,29.49 8.18,28.06 C 7.80,26.67 6.80,25.39 7.46,23.90 C 7.37,21.91 4.23,23.23 4.34,21.18 C 4.45,19.51 3.36,17.67 4.46,16.18 C 5.69,14.54 7.42,12.80 7.15,10.56 C 7.13,10.39 7.08,10.20 7.03,10.03 z" id="p3365" style="opacity:1;fill:#270904;fill-opacity:0.28;fill-rule:evenodd;stroke:none;marker:none;visibility:visible;display:inline;overflow:visible;enable-background:accumulate"/>
<path d="M 42.68,30.65 C 42.27,30.66 41.86,30.79 41.53,30.96 C 40.65,31.44 40.08,32.23 39.68,33.03 C 39.12,34.15 38.87,35.37 38.28,35.96 C 38.21,36.03 37.86,36.30 37.43,36.59 C 37.01,36.88 36.50,37.23 36,37.56 C 35.49,37.88 34.98,38.18 34.59,38.46 C 34.39,38.60 34.24,38.74 34.09,38.87 C 34.03,38.92 33.97,39.10 33.90,39.15 C 33.76,39.16 33.66,39.18 33.53,39.18 C 32.65,39.18 31.56,39.36 30.53,39.43 C 29.49,39.51 28.52,39.41 28.25,39.28 C 28.13,39.22 27.79,38.94 27.46,38.53 C 27.13,38.12 26.80,37.61 26.46,37.15 C 26.13,36.69 25.86,36.27 25.40,35.93 C 25.17,35.77 24.72,35.54 24.21,35.75 C 23.71,35.95 23.57,36.40 23.5,36.71 C 23.38,37.16 23.28,37.69 23.31,38.25 C 23.17,37.30 23.04,36.34 22.93,35.59 C 22.87,35.16 22.81,34.80 22.78,34.53 C 22.74,34.25 22.75,33.98 22.75,34.06 C 22.75,33.86 22.66,33.49 22.34,33.25 C 22.01,33.00 21.70,33.02 21.53,33.06 C 21.19,33.13 21.07,33.23 20.93,33.31 C 20.82,33.37 20.72,33.43 20.65,33.46 C 20.35,33.37 20.20,33.31 20.09,33.25 C 20.07,33.22 20.05,33.18 20.03,33.15 C 19.91,33.02 19.77,32.93 19.53,32.84 C 19.51,32.64 19.60,32.52 19.56,32.31 C 19.45,31.82 18.99,31.52 18.5,31.62 C 18.00,31.72 17.67,32.19 17.78,32.68 C 17.92,33.40 17.70,34.33 17.62,35.43 C 17.57,36.15 17.80,36.95 18.21,37.71 C 18.18,37.76 18.16,37.83 18.12,37.87 C 16.39,37.42 14.52,36.96 12.81,37.31 C 12.09,37.45 11.78,37.98 11.56,38.43 C 11.34,38.88 11.18,39.38 11.06,39.87 C 10.93,40.36 10.83,40.85 10.75,41.25 C 10.71,41.39 10.71,41.38 10.68,41.5 C 11.27,41.94 11.87,42.36 12.5,42.75 C 12.69,42.56 12.87,42.32 13.06,42.09 C 13.24,41.85 13.43,41.65 13.53,41.25 C 13.63,40.82 14.12,40.32 14.81,40 C 15.46,39.69 16.22,39.62 16.75,39.71 C 16.72,39.89 16.61,40.28 16.46,40.65 C 16.46,40.66 16.44,40.67 16.43,40.68 C 16.42,40.71 16.41,40.75 16.40,40.78 C 16.37,40.87 16.38,40.90 16.34,41 C 16.09,41.59 15.79,42.26 15.59,42.96 C 15.47,43.38 15.41,43.82 15.43,44.28 C 16.61,44.78 17.84,45.18 19.12,45.46 C 18.95,45.18 18.90,44.94 18.93,44.56 C 18.98,43.93 19.32,42.88 19.84,41.31 C 19.93,41.03 19.95,40.89 20.03,40.65 C 20.09,40.74 20.12,40.88 20.18,40.96 C 20.57,41.45 20.77,41.69 21.06,42.03 C 21.03,42.10 21.07,42.13 21.03,42.21 C 20.70,42.87 20.50,43.45 20.56,44.06 C 20.61,44.66 21.00,45.24 21.46,45.53 C 21.87,45.78 22.31,45.89 22.78,45.96 C 22.81,45.97 22.84,45.96 22.87,45.96 C 23.24,45.98 23.62,46 24,46 C 28.67,46 33.02,44.55 36.59,42.06 C 36.41,42.04 36.24,42.03 36.06,42.03 C 35.92,42.03 35.82,42.00 35.68,42 C 35.63,41.79 35.54,41.59 35.5,41.40 C 35.45,41.18 35.49,41.12 35.46,40.93 C 35.78,40.85 35.97,40.79 36.12,40.75 C 36.16,40.73 36.27,40.73 36.31,40.71 C 36.33,40.71 36.33,40.72 36.40,40.68 C 36.42,40.67 36.46,40.64 36.5,40.62 C 36.53,40.60 36.65,40.53 36.65,40.53 C 36.65,40.53 36.81,40.34 36.81,40.34 C 36.81,40.34 36.96,39.93 36.96,39.93 C 36.96,39.93 36.81,39.34 36.81,39.34 C 36.81,39.34 36.73,39.29 36.68,39.25 C 36.79,39.18 36.86,39.13 36.96,39.06 C 37.46,38.74 37.98,38.40 38.43,38.09 C 38.89,37.78 39.26,37.54 39.56,37.25 C 40.70,36.10 40.95,34.55 41.31,33.84 C 41.60,33.25 42.07,32.70 42.40,32.53 C 42.56,32.44 42.65,32.44 42.78,32.46 C 42.90,32.48 43.07,32.54 43.34,32.81 C 43.57,33.04 43.74,33.26 43.87,33.5 C 44.17,32.87 44.41,32.22 44.65,31.56 C 44.64,31.55 44.63,31.54 44.62,31.53 C 44.16,31.07 43.65,30.78 43.09,30.68 C 42.95,30.66 42.82,30.65 42.68,30.65 z M 20.93,35.18 C 20.97,35.17 21.02,35.19 21.06,35.18 C 21.09,35.40 21.12,35.58 21.15,35.84 C 21.15,35.83 21.12,35.82 21.12,35.81 C 21.06,35.53 21.00,35.41 20.93,35.18 z M 23.34,38.43 C 23.36,38.68 23.57,38.90 23.65,39.15 C 23.57,39.07 23.48,38.98 23.40,38.90 C 23.38,38.79 23.39,38.70 23.37,38.59 C 23.36,38.53 23.35,38.49 23.34,38.43 z M 25.21,38.46 C 25.33,38.63 25.46,38.82 25.59,39 C 25.55,38.98 25.47,38.94 25.43,38.93 C 25.39,38.89 25.35,38.85 25.31,38.81 C 25.25,38.75 25.25,38.59 25.21,38.46 z M 33.71,41.15 C 33.75,41.36 33.70,41.56 33.75,41.78 C 33.03,41.68 32.25,41.57 31.56,41.37 C 32.27,41.32 33.02,41.27 33.71,41.15 z M 23.84,41.78 C 24.02,41.95 24.19,42.13 24.37,42.31 C 24.89,42.83 25.69,43.28 26.75,43.90 C 26.94,44.01 27.17,44.13 27.37,44.25 C 26.41,44.24 25.41,44.25 24.68,44.25 C 23.54,44.25 22.60,44.08 22.40,43.96 C 22.30,43.90 22.38,43.99 22.37,43.90 C 22.37,43.87 22.45,43.67 22.46,43.59 C 22.47,43.60 22.48,43.61 22.5,43.62 C 22.51,43.63 22.54,43.63 22.56,43.65 C 22.58,43.67 22.68,43.74 22.68,43.75 C 22.68,43.75 24.00,42.87 24,42.87 C 23.99,42.87 24.00,42.85 24,42.84 C 23.99,42.83 24.00,42.81 24,42.81 C 23.99,42.80 24.00,42.79 24,42.78 C 23.99,42.76 23.97,42.74 23.96,42.71 C 23.95,42.65 23.95,42.55 23.93,42.43 C 23.91,42.27 23.88,42.02 23.84,41.78 z M 28.84,42.25 C 29.80,42.66 30.77,43.07 31.71,43.31 C 31.33,43.40 30.99,43.41 30.59,43.56 C 30.01,43.11 29.41,42.77 28.84,42.25 z" id="p3380" style="opacity:1;fill:#270904;fill-opacity:0.24;fill-rule:evenodd;stroke:none;marker:none;visibility:visible;display:inline;overflow:visible;enable-background:accumulate"/>
<path d="M 38.31,23.90 C 36.67,24.56 37.86,26.35 38,27.56 C 38.18,29.63 36.00,30.74 34.21,30.87 C 31.16,31.46 28.12,32.16 25.03,32.46 C 23.12,33.60 25.30,36.37 27.06,35.40 C 28.90,35.55 27.76,38.24 29.53,38.43 C 30.24,38.46 32.87,38.97 30.81,38.93 C 28.83,38.58 27.20,37.28 25.59,36.15 C 24.48,35.36 23.39,34.36 22.06,34.03 C 19.69,34.22 21.00,37.13 20.03,38.25 C 18.42,38.66 17.22,36.99 16.21,35.96 C 15.03,34.60 13.80,32.98 11.90,32.65 C 10.30,32.75 10.47,34.87 11.43,35.68 C 12.32,36.31 13.31,36.70 13.96,37.65 C 15.32,39.16 16.89,40.82 19.06,40.96 C 20.70,40.79 21.96,43.43 23.5,41.93 C 24.44,41.07 22.60,38.36 24.84,39.03 C 26.91,40.56 29.39,42.08 32.09,41.75 C 33.72,41.47 35.23,40.63 36.5,39.59 C 37.68,38.65 37.64,36.51 35.90,36.34 C 34.48,35.65 35.18,34.20 36.5,34.09 C 37.56,33.07 39.76,32.34 39.93,34.43 C 40.31,35.75 40.36,37.12 40.56,38.46 C 42.44,36.31 43.91,33.77 44.84,31 C 44.24,28.46 43.02,26.07 40.75,24.68 C 40.03,24.21 39.18,23.86 38.31,23.90 z M 40.68,28.40 C 41.35,28.76 42.42,31.26 41.03,30.46 C 40.55,29.92 40.03,29.02 40.68,28.40 z M 25.71,35.06 C 25.75,35.05 25.82,35.06 25.93,35.12 C 25.77,35.27 25.60,35.07 25.71,35.06 z" id="p3389" style="opacity:1;fill:#500f03;fill-opacity:0.18;fill-rule:evenodd;stroke:none;marker:none;visibility:visible;display:inline;overflow:visible;enable-background:accumulate"/>
<path d="M 14.53,42.35 C 16.59,44.21 18.31,44.81 18.98,44.94" id="p3447" style="opacity:1;fill:none;fill-opacity:1;fill-rule:evenodd;stroke:#6f2b12;stroke-width:1px;stroke-linecap:butt;stroke-linejoin:miter;marker:none;stroke-miterlimit:4;stroke-dasharray:none;stroke-dashoffset:0;stroke-opacity:0.58;visibility:visible;display:inline;overflow:visible;enable-background:accumulate"/>
<path d="M 24.30,28.38 C 23.27,30.73 23.55,32.42 24.30,33.45" id="p3449" style="fill:none;fill-rule:evenodd;stroke:#d55921;stroke-width:1.39;stroke-linecap:round;stroke-linejoin:miter;stroke-miterlimit:4;stroke-dasharray:none;stroke-opacity:0.59"/>
<path d="M 23.89,25.17 L 23.36,26.09" id="p3451" style="fill:none;fill-rule:evenodd;stroke:#000000;stroke-width:1px;stroke-linecap:butt;stroke-linejoin:miter;stroke-opacity:0.38"/>
<path d="M 18.84,22.64 L 17.52,22.64" id="p3453" style="fill:none;fill-rule:evenodd;stroke:#000000;stroke-width:1px;stroke-linecap:butt;stroke-linejoin:miter;stroke-opacity:0.38"/>
<path d="M 12.76,18.90 C 13.13,20.59 15.57,21.15 17.26,19.09 C 19.14,18.90 24.58,19.09 26.09,19.84" id="p3455" style="fill:none;fill-rule:evenodd;stroke:#d7590c;stroke-width:2.20;stroke-linecap:round;stroke-linejoin:miter;stroke-miterlimit:4;stroke-dasharray:none;stroke-opacity:0.62"/>
<path d="M 46,24 A 22,22 0 1 1 2,24 A 22,22 0 1 1 46,24 z" id="stroke01" style="opacity:1;fill:none;fill-opacity:0.37;fill-rule:evenodd;stroke:#000000;stroke-width:0.5;stroke-linecap:round;stroke-linejoin:miter;marker:none;stroke-miterlimit:4;stroke-dasharray:none;stroke-dashoffset:0;stroke-opacity:1;visibility:visible;display:inline;overflow:visible;enable-background:accumulate"/>
</svg>
