<?xml version="1.0" encoding="UTF-8" standalone="no"?>
<!DOCTYPE svg PUBLIC "-//W3C//DTD SVG 1.0//EN" "http://www.w3.org/TR/2001/REC-SVG-20010904/DTD/svg10.dtd">
<svg xmlns:svg="http://www.w3.org/2000/svg" xmlns="http://www.w3.org/2000/svg" version="1.0" width="100%" height="100%" viewBox="0 0 48 48" id="_mercury01" style="display:inline">
<defs id="defs2818"/>
<g id="layer1">
<path d="M 43.18,24.54 A 19.02,19.02 0 1 1 5.12,24.54 A 19.02,19.02 0 1 1 43.18,24.54 z" transform="matrix(1.02,0,0,1.02,-0.14,-0.59)" id="p3252" style="opacity:1;fill:#8a7e71;fill-opacity:1;fill-rule:evenodd;stroke:none;marker:none;visibility:visible;display:inline;overflow:visible;enable-background:accumulate"/>
<path d="M 34.90,7.96 C 41.58,24.72 24.06,38.42 6.31,31.34 C 9.04,38.85 16.26,44.21 24.71,44.21 C 35.52,44.21 44.28,35.46 44.28,24.65 C 44.28,17.59 40.52,11.41 34.90,7.96 z" id="p3254" style="fill:#23201d;fill-opacity:0.22;fill-rule:evenodd;stroke:none;"/>
<path d="M 11.64,23.83 C 12.52,17.68 17.57,12.63 22.18,11.75" id="p3259" style="fill:none;fill-rule:evenodd;stroke:#ffffff;stroke-width:7;stroke-linecap:round;stroke-linejoin:miter;stroke-miterlimit:4;stroke-dasharray:none;stroke-opacity:0.17"/>
<path d="M 44.25,23.37 C 43.31,27.64 41.68,31.69 38.96,35.12 C 35.86,39.03 31.35,42.28 24.25,44.18 C 24.40,44.19 24.56,44.21 24.71,44.21 C 35.52,44.21 44.28,35.46 44.28,24.65 C 44.28,24.22 44.27,23.79 44.25,23.37 z" id="p3261" style="fill:#fefefe;fill-opacity:0.23;fill-rule:evenodd;stroke:none;"/>
<path d="M 12.89,20.97 C 8.38,19.72 6.99,21.74 6.99,24.54 C 6.99,27.33 11.18,29.98 13.98,28.42 C 16.77,26.87 15.06,21.12 12.89,20.97 z" id="p3290" style="fill:#fefefe;fill-opacity:0.11;fill-rule:evenodd;stroke:none;"/>
<path d="M 11.64,22.29 A 1.31,1.31 0 1 1 9.00,22.29 A 1.31,1.31 0 1 1 11.64,22.29 z" id="p3270" style="opacity:1;fill:#fefefe;fill-opacity:0.4;fill-rule:evenodd;stroke:none;marker:none;visibility:visible;display:inline;overflow:visible;enable-background:accumulate"/>
<path d="M 11.64,22.29 A 1.31,1.31 0 1 1 9.00,22.29 A 1.31,1.31 0 1 1 11.64,22.29 z" transform="matrix(0.58,0,0,0.58,9.57,4.89)" id="p3272" style="opacity:1;fill:#fefefe;fill-opacity:0.4;fill-rule:evenodd;stroke:none;marker:none;visibility:visible;display:inline;overflow:visible;enable-background:accumulate"/>
<path d="M 11.64,22.29 A 1.31,1.31 0 1 1 9.00,22.29 A 1.31,1.31 0 1 1 11.64,22.29 z" transform="matrix(0.58,0,0,0.58,5.83,4.67)" id="p3274" style="opacity:1;fill:#fefefe;fill-opacity:0.4;fill-rule:evenodd;stroke:none;marker:none;visibility:visible;display:inline;overflow:visible;enable-background:accumulate"/>
<path d="M 17.08,9.16 C 12.89,11.96 13.35,14.60 14.44,16.77 C 15.53,18.95 20.34,20.34 23.61,18.01 C 26.87,15.68 28.11,4.97 17.08,9.16 z" id="p3288" style="fill:#fefefe;fill-opacity:0.11;fill-rule:evenodd;stroke:none;"/>
<path d="M 11.64,22.29 A 1.31,1.31 0 1 1 9.00,22.29 A 1.31,1.31 0 1 1 11.64,22.29 z" transform="translate(6.81,-9.44)" id="p3276" style="opacity:1;fill:#fefefe;fill-opacity:0.4;fill-rule:evenodd;stroke:none;marker:none;visibility:visible;display:inline;overflow:visible;enable-background:accumulate"/>
<path d="M 11.64,22.29 A 1.31,1.31 0 1 1 9.00,22.29 A 1.31,1.31 0 1 1 11.64,22.29 z" transform="translate(17.35,-3.95)" id="p3278" style="opacity:1;fill:#fefefe;fill-opacity:0.24;fill-rule:evenodd;stroke:none;marker:none;visibility:visible;display:inline;overflow:visible;enable-background:accumulate"/>
<path d="M 11.64,22.29 A 1.31,1.31 0 1 1 9.00,22.29 A 1.31,1.31 0 1 1 11.64,22.29 z" transform="matrix(0.75,0,0,0.75,15.32,12.38)" id="p3280" style="opacity:1;fill:#fefefe;fill-opacity:0.21;fill-rule:evenodd;stroke:none;marker:none;visibility:visible;display:inline;overflow:visible;enable-background:accumulate"/>
<path d="M 11.64,22.29 A 1.31,1.31 0 1 1 9.00,22.29 A 1.31,1.31 0 1 1 11.64,22.29 z" transform="matrix(0.66,0,0,0.66,3.00,17.09)" id="p3282" style="opacity:1;fill:#fefefe;fill-opacity:0.4;fill-rule:evenodd;stroke:none;marker:none;visibility:visible;display:inline;overflow:visible;enable-background:accumulate"/>
<path d="M 11.64,22.29 A 1.31,1.31 0 1 1 9.00,22.29 A 1.31,1.31 0 1 1 11.64,22.29 z" transform="matrix(0.58,0,0,0.58,26.70,-3.67)" id="p3284" style="opacity:1;fill:#fefefe;fill-opacity:0.4;fill-rule:evenodd;stroke:none;marker:none;visibility:visible;display:inline;overflow:visible;enable-background:accumulate"/>
<path d="M 11.64,22.29 A 1.31,1.31 0 1 1 9.00,22.29 A 1.31,1.31 0 1 1 11.64,22.29 z" transform="translate(24.05,11.75)" id="p3292" style="opacity:1;fill:#fefefe;fill-opacity:0.24;fill-rule:evenodd;stroke:none;marker:none;visibility:visible;display:inline;overflow:visible;enable-background:accumulate"/>
<path d="M 11.64,22.29 A 1.31,1.31 0 1 1 9.00,22.29 A 1.31,1.31 0 1 1 11.64,22.29 z" transform="matrix(0.75,0,0,0.75,11.58,22.81)" id="p3294" style="opacity:1;fill:#fefefe;fill-opacity:0.21;fill-rule:evenodd;stroke:none;marker:none;visibility:visible;display:inline;overflow:visible;enable-background:accumulate"/>
<path d="M 22.40,5.21 C 21.87,5.28 21.32,5.36 20.81,5.46 C 22.15,6.13 23.37,7.18 24.46,8.15 C 26.51,10.55 27.17,13.78 27.46,16.84 C 27.08,19.20 24.35,17.10 23.03,16.78 C 19.98,15.33 17.73,12.72 14.87,11 C 14.05,10.29 13.87,9.17 14.15,8.18 C 13.72,8.46 13.28,8.75 12.87,9.06 C 13.09,11.12 15.09,12.43 16.68,13.53 C 19.41,15.57 22.05,18.22 25.62,18.59 C 27.93,19.23 26.70,21.93 26.18,23.46 C 25.52,25.64 24.65,27.89 24.96,30.21 C 23.68,31.51 23.39,28.19 24.65,28.09 C 24.19,26.05 21.24,28.28 20.56,26.09 C 19.33,24.43 17.84,23.04 16.68,21.34 C 15.12,20.60 16.74,23.21 17.09,23.84 C 17.88,25.26 18.98,26.52 20.34,27.40 C 21.26,28.68 18.70,27.10 18.18,26.96 C 16.47,26.17 14.70,25.38 12.78,25.34 C 11.09,25.98 11.52,28.35 12.81,29.18 C 13.98,29.85 15.40,29.81 16.71,30 C 18.28,30.06 19.86,29.84 21.40,29.56 C 22.64,30.82 19.59,31.68 19,32.71 C 17.40,33.99 15.23,33.93 13.43,33.15 C 11.91,32.56 10.56,31.43 9.87,29.93 C 8.45,28.40 7.63,31.39 9.34,31.62 C 11.59,34.07 13.31,36.98 15.81,39.21 C 17.24,40.58 18.77,42.00 20.65,42.68 C 23.02,42.91 24.60,40.34 24.56,38.21 C 24.91,36.27 27.38,36.67 28.59,35.59 C 31.30,33.73 33.93,31.61 35.59,28.71 C 36.21,27.34 37.65,25.88 37.21,24.31 C 36.12,22.59 33.74,23.60 32.15,22.84 C 31.14,22.58 29.91,20.68 31.87,21.37 C 33.02,21.81 36.72,21.06 34.62,19.65 C 32.95,18.69 30.99,18.68 29.12,18.62 C 27.42,17.44 28.89,15.11 28,13.5 C 27.33,10.54 26.01,7.56 23.37,5.87 C 23.05,5.65 22.73,5.42 22.40,5.21 z M 28.53,19.5 C 29.62,19.77 32.48,19.17 32.28,20.40 C 30.97,20.50 29.66,20.15 28.53,19.5 z M 27.90,20.59 C 29.69,21.98 31.25,24.03 33.65,24.31 C 35.49,23.06 37.28,25.95 35.37,27.06 C 33.88,29.92 31.62,32.36 28.90,34.09 C 28.10,35.60 24.85,36.32 25.90,33.75 C 26.23,30.92 25.45,27.94 26.65,25.25 C 27.12,23.71 27.64,22.18 27.90,20.59 z M 12.93,26.34 C 15.21,26.41 17.16,27.70 19.25,28.46 C 18.01,29.78 15.90,28.56 14.31,28.65 C 13.34,28.44 11.99,27.37 12.93,26.34 z M 22.87,30.62 C 23.44,31.03 25.33,32.66 23.43,32.03 C 21.11,31.47 20.74,35.37 22.87,35.78 C 24.83,36.98 23.61,39.97 22.18,41.18 C 20.14,42.51 18.34,40.12 16.96,38.87 C 15.36,37.32 13.89,35.64 12.53,33.87 C 15.23,35.34 18.96,34.86 20.93,32.40 C 21.58,31.81 22.19,31.18 22.87,30.62 z M 23.46,32.90 C 25.37,32.60 25.06,36.87 23.09,34.87 C 22.56,34.42 21.87,33.12 23.06,33.03 C 23.20,32.96 23.34,32.92 23.46,32.90 z" id="p3304" style="fill:#f5f5f5;fill-opacity:0.15;fill-rule:evenodd;stroke:none;"/>
<path d="M 21.28,5.87 C 21.19,5.88 21.09,5.92 21,5.96 C 23.28,6.72 23.40,11.34 20.5,10.25 C 19.90,8.90 20.67,7.30 21,5.96 C 20.83,6.03 20.66,6.13 20.46,6.28 C 19.43,8.31 20.09,10.77 19.09,12.87 C 18.51,15.02 17.75,17.49 15.71,18.68 C 13.00,19.84 10.16,21.76 7.09,20.78 C 6.16,20.51 5.31,21.66 6.62,21.78 C 6.08,21.90 5.66,21.85 5.37,21.68 C 5.34,21.87 5.30,22.06 5.28,22.25 C 6.42,22.50 7.94,22.28 7.68,23.09 C 6.17,24.73 8.93,24.13 9.87,24.28 C 12.09,24.73 13.89,26.15 15.68,27.43 C 17.09,29.45 19.09,31.87 21.81,31.65 C 23.98,30.69 21.94,28.05 22.15,26.34 C 21.97,25.39 22.70,21.63 22.90,24.53 C 23.08,25.45 22.47,27.41 23.46,27.68 C 23.05,26.52 24.67,23.76 25.21,26.12 C 25.24,28.20 22.63,29.44 23.34,31.53 C 22.40,33.27 21.87,36.17 19.34,36.03 C 17.13,35.73 16.67,33.13 15,31.93 C 13.44,30.38 12.08,28.55 10.28,27.28 C 10.05,27.31 9.87,27.35 9.71,27.43 C 12.87,29.83 15.12,33.17 17.96,35.90 C 18.13,38.63 14.16,37.34 12.53,38.31 C 9.92,38.73 10.43,35.88 10.34,34.25 C 10.15,32.01 9.41,29.74 9.62,27.5 C 8.10,28.43 9.70,31.63 9.65,33.18 C 9.94,34.34 10.28,36.19 9.87,37.37 C 10.31,37.88 10.76,38.38 11.25,38.84 C 12.41,38.34 13.99,38.61 15.34,38.28 C 17.49,37.77 19.55,36.49 20.78,39 C 21.67,39.98 23.59,42.32 24.31,41.84 C 24.17,40.28 22.74,37.01 24.71,36.53 C 26.69,37.62 29.25,39.33 31.15,37.15 C 34.28,35.19 38.34,34.19 40.18,30.68 C 40.65,29.76 42.01,26.97 40.40,26.90 C 40.62,29.25 37.76,30.90 36.03,28.87 C 34.46,27.67 34.03,24.96 36.34,24.34 C 38.55,21.72 39.95,18.44 40.78,15.15 C 40.57,12.52 37.35,12.17 35.28,12.06 C 31.71,11.71 28.14,11.45 24.56,11.43 C 23.79,8.78 27.55,9.23 29.15,8.75 C 30.99,8.39 33.02,8.41 34.87,7.93 C 34.69,7.83 34.52,7.72 34.34,7.62 C 33.95,7.71 33.53,7.77 33.09,7.75 C 30.29,8.08 27.39,8.13 24.78,9.31 C 22.75,9.71 22.91,5.63 21.28,5.87 z M 9.62,27.5 C 9.65,27.47 9.68,27.45 9.71,27.43 C 9.68,27.41 9.65,27.39 9.62,27.37 C 9.62,27.41 9.62,27.45 9.62,27.5 z M 23.5,10.12 C 25.27,12.46 18.29,11.26 21.84,10.59 C 22.38,10.41 22.94,10.27 23.5,10.12 z M 14.21,11.5 C 13.14,11.42 11.52,13.16 10.34,13.40 C 9.34,13.96 8.33,14.64 7.43,15.43 C 7.20,15.87 6.98,16.32 6.78,16.78 C 8.91,14.46 11.92,13.15 14.65,11.65 C 14.52,11.56 14.37,11.51 14.21,11.5 z M 20.81,11.68 C 22.80,11.56 25.11,12.29 25.43,14.5 C 26.23,15.77 27.57,19.12 24.90,19 C 22.51,18.94 20.09,19.22 17.71,18.90 C 16.72,17.65 21.61,17.22 19.87,16.46 C 19.02,17.16 17.15,17.77 18.46,16.06 C 19.10,14.68 19.60,13.25 19.96,11.78 C 20.23,11.73 20.52,11.70 20.81,11.68 z M 24.78,11.96 C 29.62,12.08 34.52,12.14 39.25,13.34 C 40.89,14.76 39.91,17.07 39.06,18.65 C 37.93,20.75 37.30,23.41 35.15,24.71 C 33.24,25.17 32.73,22.01 31.31,21 C 28.64,18.73 32.21,17.16 33.40,15.5 C 32.07,14.44 30.08,19.53 27.87,17.40 C 26.08,16.12 25.69,13.82 24.78,11.96 z M 26.65,17.75 C 28.23,17.98 27.25,19.21 26.65,17.75 z M 27.78,17.87 C 28.43,17.98 28.01,18.52 27.78,17.87 z M 30.15,18.15 C 30.24,20.61 27.50,18.24 30.15,18.15 z M 16.71,18.78 C 18.81,20.47 21.52,19.03 23.90,19.53 C 26.08,18.37 28.88,20.09 27.96,22.62 C 28.37,24.04 26.73,27.27 25.62,25.53 C 25.99,24.06 23.51,24.16 23.37,25.43 C 23.55,24.50 23.34,20.94 22.03,22.71 C 21.24,25.51 22.08,28.40 22.31,31.21 C 19.41,31.47 17.26,29.03 15.84,26.81 C 15.02,25.62 11.03,25.19 12.12,23.75 C 14.17,22.78 16.80,21.64 18.34,20.46 C 16.61,20.47 14.95,21.98 13.15,21.21 C 12.88,20.28 16.05,19.48 16.71,18.78 z M 28.12,18.84 C 28.78,19.82 29.36,21.61 30.59,20.96 C 31.49,21.70 33.66,24.25 32.65,24.71 C 31.80,24.12 30.88,24.22 30.31,24.68 C 32.87,24.77 34.92,26.88 35.68,29.21 C 36.34,31.40 39.72,29.92 40.18,29.28 C 39.28,32.12 36.62,34.03 33.90,34.96 C 33.01,36.08 29.27,37.76 30.56,34.90 C 31.33,31.68 31.50,28.19 30.31,25.06 C 30.28,24.93 30.31,24.81 30.31,24.68 C 29.68,25.19 29.49,26.13 30.34,27.06 C 31.09,30.17 30.37,33.37 29.71,36.43 C 28.42,37.71 28.84,34.21 28.93,33.43 C 29.64,30.83 27.09,28.47 27.34,26.28 C 28.64,24.39 28.80,22.04 28.09,19.90 C 28.04,19.55 28.04,19.19 28.12,18.84 z M 29.34,19.93 C 30.05,20.35 29.19,20.88 29.34,19.93 z M 12,20.87 C 11.36,21.33 11.62,20.95 12,20.87 z M 7.40,21.25 C 8.36,21.14 8.65,22.25 7.31,21.53 L 6.96,21.37 C 7.12,21.30 7.26,21.26 7.40,21.25 z M 10.21,21.56 C 10.69,22.63 7.43,22.38 9.43,21.84 L 9.84,21.71 L 10.21,21.56 z M 11.59,21.68 C 12.50,21.82 15.80,21.59 13.46,22.78 C 12.57,23.87 8.60,23.51 11,22.03 L 11.31,21.84 L 11.59,21.68 z M 9.06,23.12 C 11.20,23.82 6.09,24.18 9.06,23.12 z M 25.81,26.68 C 26.19,26.81 25.24,26.92 25.81,26.68 z M 26.28,27.09 C 28.19,29.06 28.70,32.00 28.34,34.65 C 29.15,36.15 27.67,38.84 26.28,36.62 C 24.70,35.06 21.92,36.53 23.40,38.68 C 23.73,39.49 23.38,41.68 22.5,40 C 20.43,38.97 19.24,36.16 21.96,35.25 C 24.04,32.90 23.83,29.14 26.28,27.09 z M 29.31,37.84 C 29.54,38.17 28.99,37.89 29.31,37.84 z" id="p3330" style="fill:#cbcbcb;fill-opacity:0.3;fill-rule:evenodd;stroke:none;"/>
<path d="M 19.44,15.48 A 0.65,0.65 0 1 1 18.12,15.48 A 0.65,0.65 0 1 1 19.44,15.48 z" id="p3345" style="opacity:1;fill:#fafafa;fill-opacity:0.51;fill-rule:evenodd;stroke:none;marker:none;visibility:visible;display:inline;overflow:visible;enable-background:accumulate"/>
<path d="M 19.44,15.48 A 0.65,0.65 0 1 1 18.12,15.48 A 0.65,0.65 0 1 1 19.44,15.48 z" transform="translate(0.54,-6.15)" id="p3347" style="opacity:1;fill:#fafafa;fill-opacity:0.69;fill-rule:evenodd;stroke:none;marker:none;visibility:visible;display:inline;overflow:visible;enable-background:accumulate"/>
<path d="M 19.44,15.48 A 0.65,0.65 0 1 1 18.12,15.48 A 0.65,0.65 0 1 1 19.44,15.48 z" transform="translate(-8.01,6.48)" id="p3349" style="opacity:1;fill:#fafafa;fill-opacity:0.69;fill-rule:evenodd;stroke:none;marker:none;visibility:visible;display:inline;overflow:visible;enable-background:accumulate"/>
<path d="M 27.25,5.25 C 29.19,7.50 31.07,9.84 33.31,11.81 C 35.68,15.02 34.41,19.16 34.34,22.81 C 34.17,26.12 33.39,29.37 32.34,32.5 C 31.78,35.85 29.22,38.42 26.34,39.93 C 24.09,40.21 21.28,41.49 21.46,42.87 C 17.53,43.05 14.77,39.68 11.15,38.75 C 11.54,39.12 11.92,39.50 12.34,39.84 C 15.75,41.67 19.06,43.97 23.09,43.40 C 24.42,43.52 28.03,41.35 27.81,43.46 C 27.70,43.65 27.57,43.86 27.43,44.03 C 27.58,44.01 27.72,43.99 27.87,43.96 C 29.74,41.71 32.20,39.99 34.96,39.03 C 37.52,37.78 40.85,36.82 41.78,33.78 C 41.84,32.90 41.53,32.40 41.06,32.18 C 41.22,34.97 38.54,37.13 36.12,38.03 C 34.91,39.13 33.50,38.16 35.43,37.43 C 37.31,35.83 38.86,33.90 40.5,32.06 C 39.39,32.02 37.97,32.95 37.84,34.15 C 35.92,35.84 34.44,38.70 31.59,38.81 C 31.23,35.73 34.81,34.29 35.93,31.75 C 37.77,29.24 39.97,26.84 41,23.87 C 41.25,20.04 38.98,16.60 36.68,13.75 C 34.26,10.73 31.43,8.07 28.59,5.46 C 28.15,5.37 27.70,5.30 27.25,5.25 z M 40.5,32.06 C 40.70,32.06 40.88,32.10 41.06,32.18 C 41.05,31.97 41.01,31.77 40.96,31.56 C 40.81,31.73 40.65,31.89 40.5,32.06 z M 20.25,5.59 C 20.04,5.64 19.83,5.69 19.62,5.75 C 19.43,5.96 19.21,6.18 18.96,6.37 C 15.24,9.72 13.15,14.37 11.18,18.87 C 8.66,23.05 6.35,27.94 7.53,32.93 C 7.48,33.23 7.46,33.54 7.43,33.84 C 7.61,34.18 7.80,34.51 8,34.84 C 7.69,33.43 7.74,31.90 7.84,30.56 C 7.89,26.55 9.40,22.71 11.62,19.43 C 13.66,15.64 14.83,11.28 18.06,8.25 C 18.77,7.41 19.56,6.52 20.25,5.59 z M 29.09,6.65 C 30.21,7.04 32.17,10.01 30.15,7.78 C 29.79,7.40 29.44,7.03 29.09,6.65 z M 35.46,13.78 C 36.91,13.62 37.77,17.00 36.21,14.65 C 35.96,14.36 35.71,14.07 35.46,13.78 z M 35.15,14.31 C 38.23,17.24 41.00,21.78 39.28,26.12 C 37.91,28.98 35.06,30.89 33.96,33.90 C 31.42,35.24 33.17,30.92 33.71,29.84 C 34.81,26.50 35.08,22.98 35.12,19.5 C 35.30,17.78 35.47,16.02 35.15,14.31 z M 40.21,21.65 C 40.68,22.02 40.47,23.41 40.25,22.18 L 40.21,21.65 z M 31.06,37.09 C 30.95,40.26 27.48,42.29 24.56,41.93 C 23.12,42.85 22.47,41.00 24.40,41.43 C 27.04,40.72 28.81,38.49 31.06,37.09 z M 32.40,42.46 C 31.94,42.51 31.52,42.72 31.25,43.09 C 31.77,42.90 32.27,42.69 32.78,42.46 C 32.65,42.46 32.53,42.45 32.40,42.46 z" id="p3351" style="fill:#c2c2c2;fill-opacity:0.24;fill-rule:evenodd;stroke:none;"/>
<path d="M 24.71,5.06 C 13.91,5.06 5.12,13.84 5.12,24.65 C 5.12,35.46 13.91,44.21 24.71,44.21 C 35.52,44.21 44.28,35.46 44.28,24.65 C 44.28,13.84 35.52,5.06 24.71,5.06 z" id="stroke01" style="opacity:1;fill:none;fill-opacity:1;fill-rule:evenodd;stroke:#000000;stroke-width:0.5;stroke-linecap:butt;stroke-linejoin:miter;marker:none;stroke-miterlimit:4;stroke-dasharray:none;stroke-dashoffset:0;stroke-opacity:1;visibility:visible;display:inline;overflow:visible;enable-background:accumulate"/>
</g>
</svg>
