<?xml version="1.0" encoding="UTF-8" standalone="no"?>

<svg xmlns:svg="http://www.w3.org/2000/svg" xmlns="http://www.w3.org/2000/svg" version="1.0" width="100%" height="100%" viewBox="0 0 48 48" id="_moon01" style="display:inline">
<defs id="defs2818"/>
<path d="M 45.33,23.94 C 45.33,35.76 35.76,45.33 23.94,45.33 C 12.13,45.33 2.55,35.76 2.55,23.94 C 2.55,12.13 12.13,2.55 23.94,2.55 C 35.76,2.55 45.33,12.13 45.33,23.94 L 45.33,23.94 z" id="p3521" style="fill:#2e3e8c;fill-opacity:1;fill-rule:evenodd;stroke:none;marker:none;visibility:visible;display:inline;overflow:visible;enable-background:accumulate"/>
<path d="M 32.87,7.06 C 26.20,7.77 19.43,7.51 12.84,8.90 C 11.31,9.65 9.57,9.74 7.87,9.87 C 7.71,10.05 7.52,10.21 7.37,10.40 C 8.54,10.18 9.73,10.02 10.93,10 C 16.18,8.43 21.69,8.33 27.12,7.96 C 30.91,7.85 34.81,7.12 38.5,8.28 C 38.23,8.03 37.99,7.79 37.71,7.56 C 37.71,7.55 37.69,7.56 37.68,7.56 C 36.13,7.19 34.52,7.01 32.87,7.06 z M 16.81,12.34 C 16.02,12.35 15.23,12.37 14.43,12.46 C 10.88,12.81 7.30,13.70 4.25,15.56 C 4.15,15.79 4.05,16.01 3.96,16.25 C 5.18,15.60 6.47,15.07 7.59,14.43 C 14.11,12.10 21.26,12.57 27.84,14.40 C 31.36,14.98 34.81,16.04 38.18,17.18 C 40.33,17.70 42.55,18.11 44.68,18.78 C 44.64,18.59 44.61,18.40 44.56,18.21 C 44.28,18.14 44.02,18.05 43.75,18 C 40.18,17.09 36.55,16.39 33.12,15.06 C 27.73,13.98 22.34,12.26 16.81,12.34 z M 12.84,21.31 C 10.80,21.31 8.78,21.37 6.75,21.5 C 5.72,21.39 4.03,21.88 2.62,22 C 2.61,22.16 2.60,22.33 2.59,22.5 C 4.29,22.39 6.20,21.66 7.81,21.96 C 15.78,21.57 23.80,22.02 31.59,23.84 C 36.25,24.64 40.67,26.42 44.78,28.75 C 44.81,28.59 44.87,28.44 44.90,28.28 C 40.53,25.93 35.98,23.88 31.03,23.21 C 25.06,21.85 18.95,21.29 12.84,21.31 z M 13.18,26.68 C 11.42,26.69 9.65,26.76 7.90,27 C 6.25,27.28 4.51,27.77 3.09,28.71 C 3.13,28.88 3.17,29.05 3.21,29.21 C 4.32,28.39 5.83,27.92 7.09,27.65 C 8.98,27.24 10.91,27.14 12.84,27.15 C 17.11,27.33 21.40,27.31 25.65,27.81 C 19.58,27.82 13.22,26.80 7.43,29.18 C 6.35,29.60 5.18,31.02 4.03,31.81 C 4.10,32.00 4.17,32.18 4.25,32.37 C 4.39,32.20 4.54,32.03 4.65,31.81 C 7.21,29.70 10.37,28.20 13.75,28.28 C 19.03,27.93 24.34,28.48 29.62,28.28 C 33.51,28.76 36.82,31.28 40.78,31.5 C 41.79,31.62 42.72,31.94 43.62,32.34 C 43.68,32.20 43.72,32.05 43.78,31.90 C 40.94,30.71 37.72,30.86 34.96,29.40 C 34.42,29.18 33.89,28.94 33.34,28.75 C 36.96,29.13 40.77,29.67 43.78,31.90 C 43.83,31.76 43.91,31.64 43.96,31.5 C 42.15,30.40 40.30,29.41 38.18,28.96 C 32.89,27.65 27.39,27.56 22,27 C 19.07,26.87 16.12,26.67 13.18,26.68 z M 20.65,33.31 C 19.45,33.31 18.27,33.42 17.09,33.65 C 14.29,32.84 10.98,35.01 10.81,37.96 C 10.20,37.99 9.32,38.30 8.5,38.71 C 8.65,38.87 8.80,39.03 8.96,39.18 C 10.38,38.73 11.93,38.31 11.65,36.46 C 12.97,33.85 16.33,33.99 18.84,33.87 C 23.98,33.50 29.03,34.98 34.15,35.03 C 36.49,35.35 38.67,36.15 40.84,37.03 C 40.94,36.89 41.05,36.76 41.15,36.62 C 38.63,35.59 36.08,34.63 33.31,34.46 C 30.27,34.29 27.25,34.00 24.25,33.53 C 23.06,33.40 21.85,33.30 20.65,33.31 z M 25.75,38.15 C 25.51,38.16 25.26,38.18 25.03,38.21 C 21.29,38.45 17.72,39.67 14.03,40.12 C 13.02,40.35 12.02,40.66 11.03,40.96 C 11.19,41.09 11.36,41.22 11.53,41.34 C 13.13,40.84 14.73,40.30 16.43,40.34 C 21.76,38.97 27.90,37.44 32.96,40.46 C 33.89,40.91 34.87,41.30 35.84,41.71 C 35.99,41.61 36.13,41.50 36.28,41.40 C 36.04,41.29 35.79,41.18 35.59,41.06 C 32.46,39.65 29.26,37.97 25.75,38.15 z" id="p3496" style="fill:#4172eb;fill-opacity:0.42;fill-rule:evenodd;stroke:none;"/>
<path d="M 40.83,23.19 C 40.83,33.56 32.43,41.95 22.06,41.95 C 11.70,41.95 3.29,33.56 3.29,23.19 C 3.29,12.82 11.70,4.42 22.06,4.42 C 32.43,4.42 40.83,12.82 40.83,23.19 L 40.83,23.19 z" id="p3349" style="fill:#4a79fb;fill-opacity:0.41;fill-rule:evenodd;stroke:none;marker:none;visibility:visible;display:inline;overflow:visible;enable-background:accumulate"/>
<path d="M 36.33,22.06 C 36.33,30.67 29.36,37.64 20.75,37.64 C 12.15,37.64 5.17,30.67 5.17,22.06 C 5.17,13.46 12.15,6.48 20.75,6.48 C 29.36,6.48 36.33,13.46 36.33,22.06 L 36.33,22.06 z" id="p3351" style="fill:#4a79fb;fill-opacity:0.41;fill-rule:evenodd;stroke:none;marker:none;visibility:visible;display:inline;overflow:visible;enable-background:accumulate"/>
<path d="M 37.64,22.62 C 37.64,29.37 30.54,34.83 21.78,34.83 C 13.02,34.83 5.92,29.37 5.92,22.62 C 5.92,15.88 13.02,10.42 21.78,10.42 C 30.54,10.42 37.64,15.88 37.64,22.62 L 37.64,22.62 z" id="p3355" style="fill:#4677ff;fill-opacity:0.41;fill-rule:evenodd;stroke:none;marker:none;visibility:visible;display:inline;overflow:visible;enable-background:accumulate"/>
<path d="M 22.37,30.03 C 20.63,30.05 18.89,30.15 17.18,30.31 C 12.80,30.13 8.67,31.79 5.34,34.5 C 6.01,35.68 6.80,36.81 7.68,37.84 C 11.04,34.46 15.69,33.30 20.62,35.15 C 26.99,35.03 33.74,35.15 39.28,38.84 C 40.46,37.62 41.47,36.24 42.34,34.78 C 36.41,31.03 29.34,29.92 22.37,30.03 z" id="p3475" style="opacity:1;fill:#2b3383;fill-opacity:0.2;fill-rule:evenodd;stroke:none;marker:none;visibility:visible;display:inline;overflow:visible;enable-background:accumulate"/>
<path d="M 22.78,32.37 C 16.77,32.29 10.33,32.95 7.09,37.09 C 11.00,42.10 17.08,45.34 23.93,45.34 C 31.13,45.34 37.49,41.78 41.37,36.34 C 37.99,33.90 33.47,32.38 30.18,32.68 C 28.00,32.61 25.43,32.40 22.78,32.37 z" id="p3357" style="opacity:1;fill:#2b3383;fill-opacity:0.35;fill-rule:evenodd;stroke:none;marker:none;visibility:visible;display:inline;overflow:visible;enable-background:accumulate"/>
<path d="M 22.84,2.56 C 16.03,2.90 10.07,6.43 6.40,11.68 C 15.72,8.51 26.34,9.29 35.96,9.75 C 37.52,10.31 39.65,11.24 41.75,12.06 C 37.91,6.32 31.36,2.56 23.93,2.56 C 23.56,2.56 23.20,2.54 22.84,2.56 z" id="p3359" style="fill:#2b3383;fill-opacity:0.35;fill-rule:evenodd;stroke:none;"/>
<path d="M 20.18,35.93 C 16.11,35.86 10.97,36.78 9.18,39.37 C 9.19,39.37 9.18,39.40 9.18,39.40 C 13.02,43.06 18.21,45.34 23.93,45.34 C 28.51,45.34 32.74,43.88 36.21,41.43 C 33.62,37.82 27.88,37.30 23.75,36.31 C 22.79,36.09 21.54,35.96 20.18,35.93 z" id="p3443" style="opacity:1;fill:#1b2693;fill-opacity:0.35;fill-rule:evenodd;stroke:none;marker:none;visibility:visible;display:inline;overflow:visible;enable-background:accumulate"/>
<path d="M 22.84,2.56 C 14.66,2.97 7.69,8.01 4.46,15.09 C 13.42,11.99 23.36,12.15 32.65,12.81 C 35.61,12.41 40.61,16.46 44.71,18.84 C 42.43,9.49 34.00,2.56 23.93,2.56 C 23.56,2.56 23.20,2.54 22.84,2.56 z" id="p3445" style="opacity:1;fill:#1b2693;fill-opacity:0.25;fill-rule:evenodd;stroke:none;marker:none;visibility:visible;display:inline;overflow:visible;enable-background:accumulate"/>
<path d="M 20.25,38.12 C 19.25,38.16 18.26,38.35 17.28,38.75 C 15.24,38.92 13.34,40.42 12.75,42.15 C 14.19,43.04 15.76,43.78 17.40,44.31 C 17.95,43.42 18.93,42.81 20.37,43.21 C 22.87,43.26 26.03,43.40 28.12,44.93 C 29.78,44.60 31.37,44.06 32.87,43.37 C 31.68,42.19 29.91,41.19 28.75,40.78 C 26.19,39.24 23.23,37.99 20.25,38.12 z" id="p3466" style="opacity:1;fill:#4677ff;fill-opacity:0.13;fill-rule:evenodd;stroke:none;marker:none;visibility:visible;display:inline;overflow:visible;enable-background:accumulate"/>
<path d="M 19.11,20.25 C 26.80,15.94 33.92,20.82 36.55,22.69 C 32.80,24.38 18.74,23.63 19.11,20.25 z" id="p3484" style="opacity:1;fill:#1b2693;fill-opacity:0.19;fill-rule:evenodd;stroke:none;marker:none;visibility:visible;display:inline;overflow:visible;enable-background:accumulate"/>
<path d="M 22.86,20.25 C 23.66,19.26 24.99,18.93 26.21,18.91 C 27.30,18.86 28.40,18.85 29.45,19.16 C 30.60,19.42 31.80,19.83 32.59,20.75 C 32.87,21.19 32.51,21.70 32.13,21.92 C 31.14,22.54 29.94,22.53 28.82,22.60 C 28.38,22.60 27.95,22.75 27.50,22.73 C 26.98,22.64 26.49,22.45 25.99,22.27 C 24.84,21.80 23.79,21.08 22.86,20.25 z" id="p3486" style="opacity:1;fill:#1b2693;fill-opacity:0.14;fill-rule:evenodd;stroke:none;marker:none;visibility:visible;display:inline;overflow:visible;enable-background:accumulate"/>
<path d="M 22.84,2.56 C 21.51,2.62 20.21,2.82 18.96,3.12 C 36.70,5.78 42.47,35.29 27.03,45.12 C 37.37,43.62 45.34,34.70 45.34,23.93 C 45.34,12.12 35.75,2.56 23.93,2.56 C 23.56,2.56 23.20,2.54 22.84,2.56 z" id="p3523" style="fill:#21338a;fill-opacity:0.26;fill-rule:evenodd;stroke:none;"/>
<path d="M 23.25,11.43 C 21.38,11.43 19.87,11.98 19.87,12.65 C 19.87,13.32 21.38,13.87 23.25,13.87 C 25.11,13.87 26.62,13.32 26.62,12.65 C 26.62,11.98 25.11,11.43 23.25,11.43 z" id="p3528" style="opacity:1;fill:#80e8fd;fill-opacity:0.11;fill-rule:evenodd;stroke:none;marker:none;visibility:visible;display:inline;overflow:visible;enable-background:accumulate"/>
<path d="M 23.90,11.96 C 22.65,11.96 21.62,12.35 21.62,12.81 C 21.62,13.26 22.65,13.62 23.90,13.62 C 25.16,13.62 26.18,13.26 26.18,12.81 C 26.18,12.35 25.16,11.96 23.90,11.96 z" id="p3530" style="opacity:1;fill:#80e8fd;fill-opacity:0.08;fill-rule:evenodd;stroke:none;marker:none;visibility:visible;display:inline;overflow:visible;enable-background:accumulate"/>
<path d="M 22.39,19.90 C 22.66,21.35 24.52,22.15 25.18,22.41" id="p3534" style="fill:none;fill-rule:evenodd;stroke:#7cd6ec;stroke-width:1.20;stroke-linecap:round;stroke-linejoin:miter;stroke-miterlimit:4;stroke-dasharray:none;stroke-opacity:0.13"/>
<path d="M 21.86,22.81 C 23.06,23.47 27.17,23.87 28.09,23.87" id="p3536" style="opacity:1;fill:none;fill-opacity:1;fill-rule:evenodd;stroke:#7cd6ec;stroke-width:1.20;stroke-linecap:round;stroke-linejoin:miter;marker:none;stroke-miterlimit:4;stroke-dasharray:none;stroke-dashoffset:0;stroke-opacity:0.13;visibility:visible;display:inline;overflow:visible;enable-background:accumulate"/>
<path d="M 23.24,21.05 C 23.52,21.57 24.60,22.17 24.92,22.36" id="p3538" style="opacity:1;fill:none;fill-opacity:1;fill-rule:evenodd;stroke:#7cd6ec;stroke-width:0.89;stroke-linecap:round;stroke-linejoin:miter;marker:none;stroke-miterlimit:4;stroke-dasharray:none;stroke-dashoffset:0;stroke-opacity:0.36;visibility:visible;display:inline;overflow:visible;enable-background:accumulate"/>
<path d="M 10.87,8.44 C 15.08,6.76 21.46,6.10 24.36,6.29" id="p3540" style="fill:none;fill-rule:evenodd;stroke:#7ccaee;stroke-width:0.60;stroke-linecap:round;stroke-linejoin:miter;stroke-miterlimit:4;stroke-dasharray:none;stroke-opacity:0.15"/>
<path d="M 25.18,18.57 C 25.77,18.37 27.43,18.50 27.43,18.50" id="p3542" style="opacity:1;fill:none;fill-opacity:1;fill-rule:evenodd;stroke:#7cd6ec;stroke-width:0.60;stroke-linecap:round;stroke-linejoin:miter;marker:none;stroke-miterlimit:4;stroke-dasharray:none;stroke-dashoffset:0;stroke-opacity:0.43;visibility:visible;display:inline;overflow:visible;enable-background:accumulate"/>
<path d="M 23.40,23.09 C 23.82,23.25 25.82,23.67 26.74,23.75" id="p3546" style="opacity:1;fill:none;fill-opacity:1;fill-rule:evenodd;stroke:#7cd6ec;stroke-width:0.60;stroke-linecap:round;stroke-linejoin:miter;marker:none;stroke-miterlimit:4;stroke-dasharray:none;stroke-dashoffset:0;stroke-opacity:0.43;visibility:visible;display:inline;overflow:visible;enable-background:accumulate"/>
<path d="M 16.08,6.94 C 21.67,6.29 26.48,5.97 30.57,6.90" id="p3548" style="opacity:1;fill:none;fill-opacity:1;fill-rule:evenodd;stroke:#7cd6ec;stroke-width:0.60;stroke-linecap:round;stroke-linejoin:miter;marker:none;stroke-miterlimit:4;stroke-dasharray:none;stroke-dashoffset:0;stroke-opacity:0.14;visibility:visible;display:inline;overflow:visible;enable-background:accumulate"/>
<path d="M 33.29,24.13 C 34.49,24.13 36.30,24.73 37.50,24.73" id="p3550" style="opacity:1;fill:none;fill-opacity:1;fill-rule:evenodd;stroke:#7cd6ec;stroke-width:0.60;stroke-linecap:round;stroke-linejoin:miter;marker:none;stroke-miterlimit:4;stroke-dasharray:none;stroke-dashoffset:0;stroke-opacity:0.29;visibility:visible;display:inline;overflow:visible;enable-background:accumulate"/>
<path d="M 8.62,32.95 C 9.42,32.35 9.82,31.95 10.82,31.95" id="p3552" style="opacity:1;fill:none;fill-opacity:1;fill-rule:evenodd;stroke:#7cd6ec;stroke-width:1;stroke-linecap:round;stroke-linejoin:miter;marker:none;stroke-miterlimit:4;stroke-dasharray:none;stroke-dashoffset:0;stroke-opacity:0.24;visibility:visible;display:inline;overflow:visible;enable-background:accumulate"/>
<path d="M 45.33,23.94 C 45.33,35.76 35.76,45.33 23.94,45.33 C 12.13,45.33 2.55,35.76 2.55,23.94 C 2.55,12.13 12.13,2.55 23.94,2.55 C 35.76,2.55 45.33,12.13 45.33,23.94 L 45.33,23.94 z" id="stroke01" style="fill:none;fill-opacity:1;fill-rule:evenodd;stroke:#000000;stroke-width:0.5;stroke-linecap:round;stroke-linejoin:miter;marker:none;stroke-miterlimit:4;stroke-dasharray:none;stroke-dashoffset:0;stroke-opacity:1;visibility:visible;display:inline;overflow:visible;enable-background:accumulate"/>
</svg>
