<?xml version="1.0" encoding="UTF-8" standalone="no"?>

<svg xmlns:svg="http://www.w3.org/2000/svg" xmlns="http://www.w3.org/2000/svg" version="1.0" width="100%" height="100%" viewBox="0 0 48 48" id="_moon01" style="display:inline">
<defs id="defs2818"/>
<path d="M 24.34,12 C 21.65,11.92 18.91,12.75 16.62,14.53 C 11.39,18.59 10.46,26.14 14.53,31.37 C 18.59,36.60 26.14,37.53 31.37,33.46 C 36.60,29.40 37.53,21.85 33.46,16.62 C 31.18,13.68 27.80,12.10 24.34,12 z" id="p3296" style="fill:#ad8752;fill-opacity:1;fill-rule:evenodd;stroke:none;marker:none;visibility:visible;display:inline;overflow:visible;enable-background:accumulate"/>
<path d="M 24.15,13.75 C 21.75,13.68 19.32,14.41 17.28,16 C 12.61,19.62 11.78,26.36 15.40,31.03 C 19.03,35.69 25.74,36.53 30.40,32.90 C 35.06,29.28 35.90,22.53 32.28,17.87 C 30.24,15.25 27.23,13.83 24.15,13.75 z" id="p3369" style="fill:#cfa154;fill-opacity:0.63;fill-rule:evenodd;stroke:none;marker:none;visibility:visible;display:inline;overflow:visible;enable-background:accumulate"/>
<path d="M 23.09,16.43 C 21.43,16.54 19.78,17.15 18.37,18.25 C 14.60,21.18 13.91,26.63 16.84,30.40 C 19.77,34.17 25.22,34.83 29,31.90 C 32.77,28.97 33.43,23.55 30.5,19.78 C 28.66,17.42 25.86,16.25 23.09,16.43 z" id="p3371" style="fill:#fbc868;fill-opacity:0.49;fill-rule:evenodd;stroke:none;marker:none;visibility:visible;display:inline;overflow:visible;enable-background:accumulate"/>
<path d="M 35.46,24.25 C 35.28,24.24 35.08,24.27 34.90,24.34 C 34.27,24.57 33.86,25.20 33.90,25.87 C 33.77,26.09 33.49,26.43 33.06,26.90 C 32.16,27.88 30.73,29.19 29.06,30.5 C 27.38,31.80 25.76,32.90 24.59,33.53 C 24.03,33.83 23.61,34.01 23.37,34.09 C 23.36,34.08 23.38,34.07 23.37,34.06 C 22.83,33.88 22.21,34.03 21.81,34.43 C 21.46,34.77 21.32,35.23 21.37,35.68 C 21.38,35.68 21.39,35.71 21.40,35.71 C 23.27,36.13 25.24,36.09 27.12,35.59 C 27.13,35.58 27.11,35.56 27.12,35.56 C 28.28,34.86 29.59,33.97 30.93,32.93 C 32.27,31.89 33.47,30.85 34.43,29.90 C 34.44,29.89 34.46,29.88 34.46,29.87 C 35.41,28.17 35.91,26.26 35.96,24.34 C 35.80,24.28 35.64,24.25 35.46,24.25 z" id="p3386" style="fill:#b5997a;fill-opacity:0.56;fill-rule:evenodd;stroke:none;marker:none;visibility:visible;display:inline;overflow:visible;enable-background:accumulate"/>
<path d="M 18.75,34.56 C 18.71,34.61 18.68,34.67 18.64,34.73 C 19.69,35.25 20.80,35.61 21.94,35.81 C 21.95,35.81 21.96,35.79 21.96,35.79 C 22.32,35.59 22.70,35.38 23.11,35.13 C 24.80,34.10 26.98,32.60 29.29,30.80 C 31.60,29.01 33.59,27.26 35.00,25.88 C 35.35,25.55 35.65,25.23 35.93,24.93 C 35.93,24.92 35.94,24.92 35.95,24.91 C 36.04,23.76 35.96,22.59 35.71,21.45 C 35.26,21.62 34.96,22.03 34.96,22.52 C 34.92,22.57 34.92,22.58 34.85,22.68 C 34.58,23.03 34.07,23.59 33.41,24.24 C 32.09,25.53 30.13,27.22 27.87,28.98 C 25.61,30.73 23.49,32.21 21.91,33.18 C 21.12,33.66 20.46,34.02 20.05,34.19 C 19.92,34.24 19.90,34.26 19.84,34.28 C 19.83,34.28 19.82,34.25 19.82,34.25 C 19.43,34.17 19.03,34.28 18.75,34.56 z" id="p3384" style="fill:#d6c186;fill-opacity:0.71;fill-rule:evenodd;stroke:none;marker:none;visibility:visible;display:inline;overflow:visible;enable-background:accumulate"/>
<path d="M 19.75,23.18 C 18.76,23.25 17.77,23.59 16.93,24.25 C 14.70,25.98 14.29,29.20 16.03,31.43 C 17.76,33.67 21.01,34.08 23.25,32.34 C 25.48,30.60 25.86,27.39 24.12,25.15 C 23.03,23.75 21.39,23.07 19.75,23.18 z" id="p3404" style="fill:#ffd382;fill-opacity:0.53;fill-rule:evenodd;stroke:none;marker:none;visibility:visible;display:inline;overflow:visible;enable-background:accumulate"/>
<path d="M 32.47,15.50 C 32.32,15.69 32.23,15.93 32.21,16.18 C 32.17,16.25 32.14,16.30 32.02,16.45 C 31.68,16.86 31.07,17.50 30.28,18.23 C 28.71,19.71 26.41,21.68 23.78,23.72 C 21.16,25.77 18.68,27.51 16.86,28.67 C 15.95,29.25 15.19,29.68 14.70,29.91 C 14.53,30.00 14.47,30.01 14.40,30.03 C 14.16,30.00 13.91,30.04 13.69,30.14 C 13.94,30.56 14.21,30.97 14.52,31.36 C 14.78,31.70 15.05,32.01 15.34,32.31 C 15.48,32.25 15.63,32.19 15.79,32.12 C 16.44,31.81 17.23,31.34 18.19,30.73 C 20.10,29.51 22.60,27.73 25.28,25.65 C 27.96,23.57 30.30,21.58 31.95,20.02 C 32.78,19.25 33.43,18.60 33.89,18.04 C 34.00,17.91 34.09,17.78 34.19,17.65 C 33.97,17.30 33.73,16.96 33.47,16.63 C 33.15,16.22 32.83,15.85 32.47,15.50 z" id="p3373" style="fill:#d5d170;fill-opacity:0.5;fill-rule:evenodd;stroke:none;marker:none;visibility:visible;display:inline;overflow:visible;enable-background:accumulate"/>
<path d="M 12.53,27.53 C 12.68,28.02 12.89,28.50 13.11,28.98 C 13.15,28.98 13.21,28.99 13.26,28.98 C 13.52,28.92 13.76,28.81 14.06,28.68 C 14.65,28.40 15.41,27.96 16.31,27.40 C 18.10,26.27 20.45,24.61 22.96,22.66 C 25.47,20.71 27.65,18.84 29.19,17.38 C 29.95,16.65 30.57,16.03 30.98,15.52 C 31.18,15.26 31.35,15.06 31.47,14.82 C 31.49,14.78 31.49,14.71 31.51,14.67 C 31.11,14.34 30.70,14.04 30.26,13.78 C 30.17,13.91 30.13,14.06 30.14,14.23 C 30.09,14.31 30.01,14.46 29.86,14.64 C 29.53,15.06 28.97,15.65 28.22,16.35 C 26.74,17.76 24.55,19.60 22.08,21.53 C 19.60,23.45 17.28,25.12 15.54,26.21 C 14.68,26.76 13.97,27.16 13.48,27.38 C 13.27,27.48 13.11,27.52 13.02,27.54 C 12.86,27.48 12.69,27.47 12.53,27.53 z" id="p3430" style="fill:#9e7e30;fill-opacity:0.27;fill-rule:evenodd;stroke:none;marker:none;visibility:visible;display:inline;overflow:visible;enable-background:accumulate"/>
<path d="M 12.20,22.01 C 12.09,22.62 12.02,23.23 12.01,23.85 C 12.26,24.00 12.53,24.02 12.72,24.01 C 13.02,24.00 13.28,23.94 13.55,23.85 C 14.08,23.66 14.69,23.37 15.39,22.96 C 16.81,22.16 18.60,20.95 20.48,19.48 C 22.37,18.01 23.99,16.58 25.11,15.41 C 25.68,14.82 26.12,14.31 26.42,13.83 C 26.58,13.60 26.70,13.36 26.79,13.08 C 26.84,12.89 26.89,12.63 26.81,12.34 C 26.22,12.20 25.62,12.13 25.02,12.08 C 24.93,12.24 24.87,12.42 24.88,12.62 C 24.86,12.66 24.86,12.67 24.80,12.76 C 24.61,13.05 24.22,13.51 23.70,14.05 C 22.67,15.12 21.12,16.53 19.30,17.95 C 17.47,19.37 15.72,20.53 14.43,21.26 C 13.78,21.63 13.24,21.89 12.91,22.01 C 12.83,22.03 12.84,22.05 12.79,22.06 C 12.78,22.05 12.78,22.04 12.77,22.03 C 12.59,21.96 12.38,21.97 12.20,22.01 z" id="p3382" style="fill:#ccac90;fill-opacity:0.41;fill-rule:evenodd;stroke:none;marker:none;visibility:visible;display:inline;overflow:visible;enable-background:accumulate"/>
<path d="M 24.34,12 C 21.65,11.92 18.91,12.75 16.62,14.53 C 11.39,18.59 10.46,26.14 14.53,31.37 C 18.59,36.60 26.14,37.53 31.37,33.46 C 36.60,29.40 37.53,21.85 33.46,16.62 C 31.18,13.68 27.80,12.10 24.34,12 z" id="stroke01" style="fill:none;fill-opacity:0.64;fill-rule:evenodd;stroke:#000000;stroke-width:0.5;stroke-linecap:butt;stroke-linejoin:miter;marker:none;stroke-miterlimit:4;stroke-dasharray:none;stroke-dashoffset:0;stroke-opacity:1;visibility:visible;display:inline;overflow:visible;enable-background:accumulate"/>
<path d="M 12.33,27.68 C 5.43,33.99 1.30,39.26 2.46,40.74 C 4.05,42.78 14.99,36.94 26.87,27.70 C 38.76,18.45 47.12,9.29 45.53,7.25 C 44.38,5.76 38.26,8.46 30.44,13.60 C 31.03,13.97 31.60,14.38 32.13,14.86 C 35.23,13.16 37.49,12.38 38.03,13.08 C 39.07,14.41 33.62,20.39 25.87,26.41 C 18.13,32.44 10.99,36.24 9.96,34.91 C 9.42,34.21 10.72,32.21 13.14,29.63 C 12.81,29.00 12.54,28.35 12.33,27.68 z" id="p3302" style="fill:#916f54;fill-opacity:1;fill-rule:evenodd;stroke:none;marker:none;visibility:visible;display:inline;overflow:visible;enable-background:accumulate"/>
<path d="M 12.57,28.29 C 10.41,30.31 8.61,32.14 7.37,33.67 C 6.60,34.64 6.02,35.49 5.67,36.22 C 5.50,36.59 5.38,36.92 5.34,37.27 C 5.30,37.63 5.38,38.04 5.63,38.36 C 5.97,38.79 6.47,38.91 6.97,38.90 C 7.46,38.89 7.99,38.77 8.61,38.57 C 9.85,38.17 11.43,37.44 13.27,36.42 C 16.94,34.37 21.65,31.20 26.60,27.35 C 31.55,23.50 35.79,19.71 38.68,16.66 C 40.12,15.13 41.22,13.78 41.91,12.67 C 42.26,12.12 42.51,11.64 42.64,11.16 C 42.76,10.69 42.77,10.17 42.44,9.73 C 42.19,9.41 41.81,9.24 41.46,9.19 C 41.11,9.14 40.76,9.17 40.36,9.25 C 39.56,9.40 38.60,9.75 37.47,10.27 C 35.68,11.09 33.46,12.39 30.97,13.98 C 31.37,14.25 31.76,14.53 32.13,14.86 C 32.23,14.80 32.32,14.77 32.42,14.72 C 34.59,13.35 36.52,12.25 38.07,11.55 C 41.95,10.02 39.94,13.18 37.66,15.71 C 36.63,16.80 35.35,18.01 33.98,19.28 C 31.86,21.43 29.09,23.91 25.87,26.41 C 22.66,28.91 19.57,30.99 16.96,32.51 C 15.40,33.53 13.91,34.47 12.60,35.20 C 9.51,36.77 5.81,38.33 8.46,34.57 C 9.53,33.25 11.07,31.65 12.93,29.87 C 13.00,29.79 13.06,29.71 13.14,29.63 C 12.91,29.19 12.74,28.74 12.57,28.29 z" id="p3349" style="fill:#cfc2ab;fill-opacity:0.58;fill-rule:evenodd;stroke:none;marker:none;visibility:visible;display:inline;overflow:visible;enable-background:accumulate"/>
<path d="M 12.67,28.01 C 12.73,28.19 12.80,28.36 12.87,28.53 C 12.97,28.54 13.07,28.52 13.17,28.50 C 13.36,28.46 13.61,28.38 13.89,28.25 C 14.45,28.00 15.18,27.59 16.07,27.03 C 17.84,25.92 20.17,24.24 22.67,22.29 C 25.17,20.35 27.38,18.50 28.89,17.06 C 29.65,16.34 30.23,15.73 30.61,15.25 C 30.80,15.01 30.94,14.79 31.03,14.61 C 31.07,14.52 31.11,14.43 31.13,14.33 C 30.98,14.22 30.81,14.13 30.65,14.03 C 30.63,14.05 30.61,14.08 30.60,14.11 C 30.58,14.17 30.59,14.23 30.62,14.29 C 30.63,14.30 30.63,14.31 30.64,14.32 C 30.63,14.34 30.61,14.35 30.58,14.40 C 30.52,14.52 30.39,14.70 30.21,14.93 C 29.85,15.38 29.29,15.99 28.54,16.70 C 27.04,18.13 24.85,19.96 22.36,21.90 C 19.88,23.83 17.56,25.50 15.81,26.60 C 14.93,27.15 14.20,27.54 13.68,27.78 C 13.42,27.90 13.20,27.99 13.07,28.02 C 13.02,28.03 13.00,28.05 12.98,28.05 C 12.97,28.05 12.96,28.03 12.96,28.03 C 12.94,28.01 12.92,28.00 12.89,28.00 C 12.87,27.98 12.85,27.97 12.83,27.97 C 12.78,27.96 12.74,27.97 12.69,27.99 C 12.70,28.00 12.67,28.01 12.67,28.01 z" id="p3380" style="fill:#824a19;fill-opacity:0.26;fill-rule:evenodd;stroke:none;marker:none;visibility:visible;display:inline;overflow:visible;enable-background:accumulate"/>
<path d="M 12.60,28.38 C 10.34,30.53 8.48,32.48 7.23,34.10 C 6.47,35.10 5.91,35.99 5.61,36.71 C 5.47,37.06 5.38,37.37 5.36,37.65 C 5.35,37.94 5.41,38.18 5.56,38.37 C 5.77,38.63 6.11,38.74 6.54,38.76 C 6.97,38.77 7.48,38.71 8.10,38.53 C 9.34,38.18 10.97,37.46 12.86,36.45 C 16.63,34.44 21.48,31.21 26.55,27.28 C 31.61,23.34 35.93,19.43 38.81,16.27 C 40.25,14.69 41.35,13.29 42.00,12.17 C 42.32,11.61 42.51,11.13 42.60,10.71 C 42.69,10.29 42.67,9.93 42.47,9.67 C 42.32,9.48 42.10,9.35 41.82,9.30 C 41.54,9.25 41.22,9.25 40.84,9.31 C 40.08,9.42 39.07,9.74 37.92,10.24 C 36.04,11.05 33.69,12.37 31.05,14.03 C 31.13,14.09 31.22,14.14 31.30,14.20 C 33.89,12.57 36.21,11.29 38.04,10.50 C 39.18,10.01 40.15,9.71 40.87,9.60 C 41.23,9.55 41.51,9.56 41.74,9.60 C 41.97,9.65 42.12,9.74 42.22,9.86 C 42.35,10.03 42.40,10.28 42.32,10.65 C 42.24,11.02 42.04,11.49 41.73,12.03 C 41.10,13.11 40.05,14.50 38.62,16.07 C 35.75,19.21 31.43,23.12 26.37,27.05 C 21.32,30.98 16.46,34.21 12.71,36.21 C 10.84,37.22 9.23,37.89 8.03,38.23 C 7.43,38.40 6.93,38.48 6.55,38.47 C 6.17,38.46 5.94,38.35 5.81,38.18 C 5.71,38.05 5.66,37.88 5.67,37.65 C 5.69,37.42 5.75,37.14 5.89,36.81 C 6.17,36.14 6.70,35.27 7.45,34.29 C 8.67,32.70 10.49,30.77 12.70,28.66 C 12.66,28.57 12.64,28.47 12.60,28.38 z" id="p3336" style="fill:#231d18;fill-opacity:0.78;fill-rule:evenodd;stroke:none;marker:none;visibility:visible;display:inline;overflow:visible;enable-background:accumulate"/>
<path d="M 12.33,27.68 C 5.43,33.99 1.30,39.26 2.46,40.74 C 4.05,42.78 14.99,36.94 26.87,27.70 C 38.76,18.45 47.12,9.29 45.53,7.25 C 44.38,5.76 38.26,8.46 30.44,13.60 C 30.71,13.77 30.96,13.96 31.22,14.14 C 34.82,11.77 38.03,9.91 40.46,8.82 C 41.74,8.24 42.81,7.88 43.58,7.74 C 43.96,7.67 44.29,7.67 44.49,7.70 C 44.70,7.73 44.77,7.80 44.81,7.85 C 44.86,7.92 44.92,8.07 44.83,8.43 C 44.73,8.79 44.50,9.28 44.13,9.88 C 43.41,11.07 42.16,12.63 40.49,14.41 C 37.16,17.98 32.16,22.47 26.34,27.00 C 20.51,31.54 14.92,35.27 10.64,37.62 C 8.50,38.80 6.68,39.62 5.35,40.04 C 4.69,40.24 4.15,40.35 3.78,40.35 C 3.40,40.35 3.27,40.26 3.22,40.19 C 3.18,40.14 3.13,40.05 3.15,39.85 C 3.17,39.65 3.25,39.32 3.42,38.97 C 3.74,38.26 4.35,37.32 5.23,36.21 C 6.89,34.13 9.48,31.47 12.67,28.57 C 12.55,28.27 12.43,27.98 12.33,27.68 z" id="p3360" style="fill:#c0ab87;fill-opacity:0.46;fill-rule:evenodd;stroke:none;marker:none;visibility:visible;display:inline;overflow:visible;enable-background:accumulate"/>
<path d="M 14.54,16.62 C 13.56,17.88 12.87,19.32 12.46,20.81 C 12.76,20.83 13.03,20.79 13.27,20.74 C 13.83,20.61 14.36,20.40 14.95,20.10 C 16.13,19.51 17.51,18.63 18.95,17.51 C 20.39,16.39 21.59,15.27 22.45,14.27 C 22.88,13.77 23.22,13.31 23.48,12.80 C 23.59,12.58 23.69,12.33 23.75,12.03 C 22.20,12.06 20.64,12.37 19.18,13.01 C 18.56,13.62 17.85,14.29 16.97,14.97 C 16.10,15.65 15.28,16.17 14.54,16.62 z" id="p3435" style="fill:#987a59;fill-opacity:0.39;fill-rule:evenodd;stroke:none;marker:none;visibility:visible;display:inline;overflow:visible;enable-background:accumulate"/>
<path d="M 19.88,12.70 C 19.90,12.74 19.91,12.79 19.94,12.82 C 19.91,12.79 19.96,12.80 19.90,12.97 C 19.83,13.14 19.69,13.42 19.47,13.70 C 19.04,14.26 18.33,14.94 17.47,15.61 C 16.62,16.27 15.78,16.79 15.13,17.07 C 14.80,17.21 14.50,17.29 14.32,17.31 C 14.14,17.33 14.14,17.28 14.16,17.31 C 14.14,17.28 14.11,17.27 14.08,17.25 C 13.95,17.45 13.82,17.63 13.70,17.83 C 13.90,17.99 14.16,18.01 14.41,17.99 C 14.71,17.95 15.02,17.86 15.38,17.71 C 16.11,17.39 17.02,16.87 17.91,16.17 C 18.81,15.48 19.54,14.73 20.02,14.10 C 20.26,13.78 20.43,13.51 20.53,13.23 C 20.62,12.99 20.66,12.73 20.56,12.50 C 20.33,12.56 20.11,12.62 19.88,12.70 z" id="p3378" style="fill:#4c3725;fill-opacity:0.43;fill-rule:evenodd;stroke:none;marker:none;visibility:visible;display:inline;overflow:visible;enable-background:accumulate"/>
<path d="M 12.51,27.50 C 5.49,33.89 1.29,39.24 2.46,40.74 C 4.05,42.78 14.99,36.94 26.87,27.70 C 38.76,18.45 47.12,9.29 45.53,7.25 C 44.36,5.75 38.14,8.50 30.22,13.73" id="stroke02" style="fill:none;fill-opacity:0.64;fill-rule:evenodd;stroke:#000000;stroke-width:0.5;stroke-linecap:butt;stroke-linejoin:miter;marker:none;stroke-miterlimit:4;stroke-dasharray:none;stroke-dashoffset:0;stroke-opacity:1;visibility:visible;display:inline;overflow:visible;enable-background:accumulate"/>
<path d="M 13.29,29.43 C 10.76,32.11 9.40,34.20 9.96,34.91 C 10.99,36.24 18.13,32.44 25.87,26.41 C 33.62,20.39 39.07,14.41 38.03,13.08 C 37.48,12.36 35.12,13.16 31.89,14.96" id="stroke03" style="fill:none;fill-opacity:0.64;fill-rule:evenodd;stroke:#000000;stroke-width:0.5;stroke-linecap:butt;stroke-linejoin:miter;marker:none;stroke-miterlimit:4;stroke-dasharray:none;stroke-dashoffset:0;stroke-opacity:1;visibility:visible;display:inline;overflow:visible;enable-background:accumulate"/>
</svg>
