<?xml version="1.0" encoding="UTF-8" standalone="no"?>

<svg xmlns:svg="http://www.w3.org/2000/svg" xmlns="http://www.w3.org/2000/svg" version="1.0" width="100%" height="100%" viewBox="0 0 48 48" id="_uranus01" style="display:inline">
<defs id="defs2818"/>
<path d="M 45,24 A 21,21 0 1 1 3,24 A 21,21 0 1 1 45,24 z" id="p3286" style="opacity:1;fill:#0d9dc2;fill-opacity:1;fill-rule:evenodd;stroke:none;marker:none;visibility:visible;display:inline;overflow:visible;enable-background:accumulate"/>
<path d="M 24,3 C 16.13,3 9.28,7.34 5.68,13.75 C 7.47,14.56 9.30,15.25 11.18,15.81 C 16.08,17.60 21.30,18.99 26.56,18.46 C 31.89,18.39 37.56,19.19 42.46,16.59 C 42.77,16.46 43.13,16.30 43.46,16.15 C 40.35,8.45 32.81,3 24,3 z" id="p3394" style="fill:#59c3e0;fill-opacity:0.23;fill-rule:evenodd;stroke:none;"/>
<path d="M 11.28,7.34 C 10.26,8.12 9.32,8.98 8.46,9.93 C 9.61,10.73 10.80,11.43 12.18,11.78 C 15.98,13.52 20.21,13.92 24.34,13.93 C 28.94,14.32 33.80,15.26 38.21,13.40 C 39.25,13.01 40.29,12.57 41.31,12.12 C 40.72,11.26 40.05,10.48 39.34,9.71 C 37.21,10.38 34.86,10.02 32.65,10.37 C 30.72,10.62 28.82,11.20 26.84,11.03 C 23.61,10.82 20.40,10.48 17.18,10.15 C 14.94,9.91 13.15,8.49 11.28,7.34 z" id="p3288" style="fill:#10f9fd;fill-opacity:0.32;fill-rule:evenodd;stroke:none;"/>
<path d="M 4.59,15.96 C 3.73,18.04 3.21,20.27 3.06,22.62 C 3.56,23.00 4.04,23.39 4.53,23.78 C 8.73,25.66 13.48,25.23 17.90,26.21 C 24.24,27.06 30.67,26.99 37.03,26.40 C 39.58,26.40 42.34,26.61 44.90,26.12 C 44.97,25.42 45,24.71 45,24 C 45,22.29 44.78,20.64 44.40,19.06 C 42.85,19.45 41.30,19.87 39.68,19.78 C 32.94,20.13 26.21,19.15 19.5,18.75 C 16.39,18.16 13.14,18.74 10.15,17.5 C 8.30,16.90 6.38,16.64 4.59,15.96 z" id="p3300" style="fill:#3cb8da;fill-opacity:0.54;fill-rule:evenodd;stroke:none;"/>
<path d="M 3.53,19.40 C 3.19,20.88 3,22.41 3,24 C 3,27.59 3.90,30.97 5.5,33.93 C 7.39,34.96 9.34,35.92 11.46,36.37 C 15.76,38.13 20.40,39.52 25.09,39 C 28.52,39.18 31.92,38.68 35.31,38.31 C 36.70,38.21 38.09,38.19 39.5,38.12 C 42.90,34.39 45,29.44 45,24 C 45,23.38 44.98,22.76 44.93,22.15 C 44.14,21.74 43.08,21.65 42.25,21.81 C 38.49,22.70 34.58,22.24 30.78,22.84 C 26.84,23.12 22.90,22.82 18.96,22.84 C 14.60,22.63 10.29,21.69 6.21,20.12 C 5.33,19.88 4.40,19.71 3.53,19.40 z" id="p3302" style="fill:#0a768a;fill-opacity:0.33;fill-rule:evenodd;stroke:none;"/>
<path d="M 4.21,31.06 C 7.12,39.18 14.88,45 24,45 C 32.20,45 39.29,40.26 42.75,33.40 C 42.61,33.40 42.45,33.42 42.31,33.43 C 40.24,33.46 38.25,34.18 36.18,34.21 C 26.36,35.70 16.09,35.40 6.68,31.96 C 5.86,31.67 5.03,31.37 4.21,31.06 z" id="p3304" style="fill:#0c4975;fill-opacity:0.38;fill-rule:evenodd;stroke:none;"/>
<path d="M 10.37,8.06 C 9.34,8.94 8.40,9.90 7.56,10.96 C 7.89,11.10 8.22,11.23 8.5,11.28 C 10.14,12.37 12.18,12.45 13.93,13.28 C 15.63,13.92 17.20,14.86 18.96,15.31 C 22.07,15.54 25.22,15.36 28.34,15.40 C 31.39,15.55 34.43,15.43 37.43,14.84 C 38.96,14.31 40.90,14.63 42.15,13.46 C 41.57,12.47 40.91,11.53 40.18,10.65 C 38.86,11.44 37.45,12.10 35.87,12.18 C 34.02,12.66 32.13,12.41 30.25,12.46 C 28.59,12.78 26.88,13.07 25.18,12.93 C 22.92,12.65 20.63,12.51 18.37,12.15 C 15.40,11.47 12.91,9.69 10.37,8.06 z" id="p3368" style="opacity:1;fill:#10f9fd;fill-opacity:0.45;fill-rule:evenodd;stroke:none;marker:none;visibility:visible;display:inline;overflow:visible;enable-background:accumulate"/>
<path d="M 3.03,25.18 C 3.18,28.05 3.92,30.74 5.12,33.18 C 6.78,33.64 8.40,34.25 9.96,34.96 C 13.29,36.74 17.17,37.18 20.87,36.59 C 25.25,35.70 29.77,36.31 34.18,35.75 C 36.25,35.35 38.40,35.81 40.37,34.90 C 40.95,34.61 41.58,34.47 42.21,34.40 C 43.44,32.26 44.30,29.89 44.71,27.37 C 43.26,27.63 41.92,28.76 40.5,29.15 C 37.76,29.41 35.05,29.90 32.31,30.15 C 26.75,30.08 21.14,30.48 15.62,29.65 C 11.53,27.89 7.22,26.68 3.03,25.18 z" id="p3383" style="fill:#27abcf;fill-opacity:0.33;fill-rule:evenodd;stroke:none;"/>
<path d="M 10.21,39.81 C 13.90,43.03 18.72,45 24,45 C 28.86,45 33.31,43.30 36.87,40.53 C 36.78,40.53 36.67,40.57 36.59,40.56 C 34.90,40.02 33.28,40.98 31.65,41.28 C 26.13,41.53 20.55,41.52 15.09,40.56 C 13.44,40.46 11.81,40.19 10.21,39.81 z" id="p3408" style="fill:#123562;fill-opacity:0.48;fill-rule:evenodd;stroke:none;"/>
<path d="M 39,38.65 C 36.86,39.74 34.63,40.66 32.40,41.53 C 28.28,42.52 23.97,42.12 19.90,41.09 C 17.84,40.92 15.89,40.16 14,39.37 C 12.61,38.99 11.16,39.20 9.75,39.37 C 13.49,42.84 18.49,45 24,45 C 29.88,45 35.18,42.55 39,38.65 z" id="p3421" style="fill:#133865;fill-opacity:0.26;fill-rule:evenodd;stroke:none;"/>
<path d="M 28.39,37.98 A 2.31,0.99 0 1 1 23.77,37.98 A 2.31,0.99 0 1 1 28.39,37.98 z" id="p3433" style="opacity:1;fill:#4ee4f0;fill-opacity:0.46;fill-rule:evenodd;stroke:none;marker:none;visibility:visible;display:inline;overflow:visible;enable-background:accumulate"/>
<path d="M 32.04,36.99 A 1.48,0.70 0 1 1 29.07,36.99 A 1.48,0.70 0 1 1 32.04,36.99 z" id="p3435" style="opacity:1;fill:#4ee4f0;fill-opacity:0.46;fill-rule:evenodd;stroke:none;marker:none;visibility:visible;display:inline;overflow:visible;enable-background:accumulate"/>
<path d="M 36.84,36.40 C 36.64,36.39 36.43,36.40 36.21,36.43 C 35.33,36.58 34.68,37.04 34.75,37.46 C 34.81,37.89 35.58,38.11 36.46,37.96 C 37.35,37.82 38.00,37.36 37.93,36.93 C 37.88,36.62 37.43,36.42 36.84,36.40 z" id="p3437" style="opacity:1;fill:#4ee4f0;fill-opacity:0.46;fill-rule:evenodd;stroke:none;marker:none;visibility:visible;display:inline;overflow:visible;enable-background:accumulate"/>
<path d="M 21.45,38.47 A 1.62,0.91 0 1 1 18.20,38.47 A 1.62,0.91 0 1 1 21.45,38.47 z" id="p3439" style="opacity:1;fill:#4ee4f0;fill-opacity:0.46;fill-rule:evenodd;stroke:none;marker:none;visibility:visible;display:inline;overflow:visible;enable-background:accumulate"/>
<path d="M 26.09,37.34 C 25.27,37.34 24.59,37.61 24.59,37.96 C 24.59,38.32 25.27,38.62 26.09,38.62 C 26.91,38.62 27.56,38.32 27.56,37.96 C 27.56,37.61 26.91,37.34 26.09,37.34 z" id="p3441" style="opacity:1;fill:#4ee4f0;fill-opacity:0.46;fill-rule:evenodd;stroke:none;marker:none;visibility:visible;display:inline;overflow:visible;enable-background:accumulate"/>
<path d="M 30.90,36.37 C 30.29,36.37 29.81,36.61 29.81,36.90 C 29.81,37.19 30.29,37.43 30.90,37.43 C 31.51,37.43 32.03,37.19 32.03,36.90 C 32.03,36.61 31.51,36.37 30.90,36.37 z" id="p3443" style="opacity:1;fill:#4ee4f0;fill-opacity:0.46;fill-rule:evenodd;stroke:none;marker:none;visibility:visible;display:inline;overflow:visible;enable-background:accumulate"/>
<path d="M 35.88,36.49 C 35.75,36.48 35.61,36.49 35.46,36.51 C 34.87,36.61 34.43,36.92 34.47,37.20 C 34.52,37.48 35.03,37.63 35.63,37.54 C 36.22,37.44 36.66,37.13 36.61,36.84 C 36.58,36.63 36.28,36.50 35.88,36.49 z" id="p3446" style="opacity:1;fill:#4ee4f0;fill-opacity:0.46;fill-rule:evenodd;stroke:none;marker:none;visibility:visible;display:inline;overflow:visible;enable-background:accumulate"/>
<path d="M 24,3 C 12.40,3 3,12.40 3,24 C 3,35.59 12.40,45 24,45 C 35.59,45 45,35.59 45,24 C 45,12.40 35.59,3 24,3 z M 24,4.96 C 34.49,4.96 43.03,13.50 43.03,24 C 43.03,34.49 34.49,43.03 24,43.03 C 13.50,43.03 4.96,34.49 4.96,24 C 4.96,13.50 13.50,4.96 24,4.96 z" id="p3365" style="opacity:1;fill:#02eef2;fill-opacity:0.16;fill-rule:evenodd;stroke:none;marker:none;visibility:visible;display:inline;overflow:visible;enable-background:accumulate"/>
<path d="M 45,24 A 21,21 0 1 1 3,24 A 21,21 0 1 1 45,24 z" id="stroke01" style="opacity:1;fill:none;fill-opacity:0.5;fill-rule:evenodd;stroke:#000000;stroke-width:0.5;stroke-linecap:round;stroke-linejoin:miter;marker:none;stroke-miterlimit:4;stroke-dasharray:none;stroke-dashoffset:0;stroke-opacity:1;visibility:visible;display:inline;overflow:visible;enable-background:accumulate"/>
</svg>
