<?xml version="1.0" encoding="UTF-8" standalone="no"?>
<!DOCTYPE svg PUBLIC "-//W3C//DTD SVG 1.0//EN" "http://www.w3.org/TR/2001/REC-SVG-20010904/DTD/svg10.dtd">
<svg xmlns:svg="http://www.w3.org/2000/svg" xmlns="http://www.w3.org/2000/svg" version="1.0" width="100%" height="100%" viewBox="0 0 48 48" id="_venus01" style="display:inline">
<defs id="defs2818"/>
<g id="layer1">
<path d="M 44.66,25.00 A 19.96,19.96 0 1 1 4.73,25.00 A 19.96,19.96 0 1 1 44.66,25.00 z" transform="translate(-0.75,-1.13)" id="p3465" style="opacity:1;fill:#71360d;fill-opacity:1;fill-rule:evenodd;stroke:none;marker:none;visibility:visible;display:inline;overflow:visible;enable-background:accumulate"/>
<path d="M 20.06,12.79 C 15.22,14.43 10.45,17.37 8.05,22.04 C 6.75,24.74 6.37,28.22 8.21,30.78 C 10.56,34.36 15.21,36.85 19.49,35.55 C 21.58,35.07 22.68,32.90 24.75,32.39 C 28.91,31.27 33.16,34.12 37.29,32.61 C 40.44,31.28 41.90,27.63 41.99,24.40 C 42.12,20.36 39.93,16.11 36.09,14.52 C 31.31,11.63 25.37,11.58 20.06,12.79 z" id="p3469" style="fill:#f39b17;fill-opacity:0.32;fill-rule:evenodd;stroke:none;"/>
<path d="M 6.43,20.74 C 6.24,23.58 7.94,26.42 9.46,27.37" id="p3602" style="fill:none;fill-rule:evenodd;stroke:#543320;stroke-width:1.89;stroke-linecap:round;stroke-linejoin:miter;stroke-miterlimit:4;stroke-dasharray:none;stroke-opacity:0.51"/>
<path d="M 24.60,7.12 C 18.05,7.24 11.41,11.28 11.05,18.38 C 9.75,24.63 9.29,33.61 16.79,35.97 C 22.85,38.88 30.98,36.77 35.33,31.84 C 39.28,25.41 38.26,14.43 30.58,11.21 C 28.24,10.55 27.05,7.81 24.60,7.12 z" id="p3476" style="opacity:1;fill:#f39b17;fill-opacity:0.32;fill-rule:evenodd;stroke:none;marker:none;visibility:visible;display:inline;overflow:visible;enable-background:accumulate"/>
<path d="M 24.53,6.62 C 23.09,6.63 21.65,6.79 20.25,7.12 C 12.96,8.76 5.16,16.02 4,23.34 C 3.99,23.37 3.97,23.40 3.96,23.43 C 3.96,23.58 3.96,23.72 3.96,23.87 C 3.96,25.80 4.26,27.67 4.78,29.43 C 5.57,31.13 6.88,32.75 8.84,34.18 C 19.41,41.53 39.67,38.79 43.15,24.93 C 44.54,13.80 34.59,6.52 24.53,6.62 z" id="p3485" style="opacity:1;fill:#f39b17;fill-opacity:0.32;fill-rule:evenodd;stroke:none;marker:none;visibility:visible;display:inline;overflow:visible;enable-background:accumulate"/>
<path d="M 22.15,27.65 C 19.23,28.03 16.97,34.56 14.71,33.81 C 13.36,33.36 10.50,34.11 7.87,35.68 C 11.51,40.61 17.34,43.84 23.93,43.84 C 32.89,43.84 40.47,37.93 43,29.81 C 42.78,30.02 42.54,30.28 42.28,30.59 C 33.98,40.49 25.96,28.19 22.75,27.65 C 22.54,27.62 22.35,27.63 22.15,27.65 z" id="p3498" style="fill:#71360d;fill-opacity:0.52;fill-rule:evenodd;stroke:none;"/>
<path d="M 28.28,12.34 C 28.04,14.10 26.63,15.31 25,15.78 C 25.44,15.67 25.99,15.66 26.65,15.75 L 27.71,15.34 L 28.62,14.65 C 30.82,19.64 22.26,17.55 23.93,22.87 C 23.43,21.47 21.85,16.55 25,15.78 C 23.06,16.33 20.83,15.83 19.87,13.87 C 16.10,14.24 26.42,20.78 22.06,24.21 C 19.93,25.30 15.65,30.68 15.43,29.59 C 18.13,21.95 11.23,34.93 7.93,29.56 C 6.44,28.96 4.90,25.57 3.96,24.12 C 3.97,24.72 4.00,25.31 4.06,25.90 L 4.06,25.93 C 4.10,26.31 4.19,26.69 4.25,27.06 C 5.54,28.67 6.77,29.95 4.40,27.96 C 4.47,28.29 4.57,28.61 4.65,28.93 C 6.80,30.45 9.22,32.35 5.71,32.03 C 5.86,32.35 6.02,32.68 6.18,33 C 8.29,33.39 13.44,31.38 14.5,29.12 C 17.31,29.04 6.91,34.90 13.03,33 C 16.91,30.19 21.17,23.76 25.62,28.28 C 28.60,24.90 33.12,27.18 33.21,30.65 C 36.56,32.58 36.02,35.01 32.5,32.25 C 30.74,30.26 27.26,28.97 30.75,32.03 C 32.68,35.06 37.09,36.72 40.18,35.43 C 40.46,35.05 40.72,34.65 40.96,34.25 C 41.35,33.61 41.71,32.95 42.03,32.28 C 40.38,33.40 37.53,35.78 36.21,32.21 C 32.21,26.92 42.84,33.28 42.34,27.81 C 44.53,22.90 40.45,31.92 37.71,29.46 C 34.77,29.66 26.83,25.03 33.71,24.31 C 38.91,22.66 45.08,14.25 36.68,13.15 C 36.32,15.67 36.09,21.33 33.15,19.12 C 31.49,21.33 33.74,23.79 29.65,25.15 C 27.79,26.63 22.23,29.06 25.93,25.62 C 26.57,24.20 32.52,21.15 27.68,22.12 C 26.11,20.34 23.90,24.49 25,20.28 C 28.22,18.75 32.08,16.95 28.28,12.34 z M 37.31,13.31 C 44.67,16.15 35.99,23.42 33.06,22.96 C 35.72,20.07 37.42,17.48 37.31,13.31 z M 19.93,14.78 C 21.59,16.03 21.04,16.18 19.93,14.78 z M 33.46,19.93 C 33.69,21.21 32.04,21.01 33.46,19.93 z M 26.65,22.18 C 26.49,23.37 25.11,22.97 26.65,22.18 z M 28.90,22.37 C 27.77,23.74 26.89,22.73 28.90,22.37 z M 26.15,23.68 C 25.71,24.83 24.24,23.59 26.15,23.68 z M 22.68,24.18 C 25.12,24.50 21.32,26.23 22.68,24.18 z M 24.46,24.5 C 24.72,24.61 24.22,24.68 24.46,24.5 z M 24.78,25.28 C 25.20,26.60 23.50,25.27 24.78,25.28 z M 21.09,25.71 C 20.98,26.18 20.36,25.73 21.09,25.71 z M 33.09,29.46 C 35.03,29.56 34.56,31.88 33.09,29.46 z M 9.40,31.06 C 10.56,31.13 9.28,32.09 8.75,31.09 C 9.02,31.06 9.24,31.05 9.40,31.06 z M 33.75,33.71 C 37.67,34.49 36.66,36.72 33.75,33.71 z M 36.90,33.75 C 38.54,34.45 37.81,35.29 36.90,33.75 z" id="p3505" style="fill:#e1ce66;fill-opacity:0.38;fill-rule:evenodd;stroke:none;"/>
<path d="M 20.46,13.15 C 18.33,13.20 18.03,16.59 18.78,16.96 C 16.33,17.92 14.72,20.66 13.93,23.09 C 12.98,25.43 14.80,27.47 15.21,29.21 C 14.09,31.09 12.28,33.89 10.28,31.09 C 7.74,29.71 6.71,27.01 5.5,24.59 C 5.30,23.77 4.37,22.51 4.03,22.56 C 4.01,22.78 4.00,22.99 4,23.21 C 4.03,23.37 4.04,23.52 4.12,23.75 C 4.74,25.05 7.24,27.95 6.40,28.56 C 5.89,27.75 4.69,27.34 4.34,27.68 C 4.41,28.03 4.50,28.37 4.59,28.71 C 4.65,28.81 4.69,28.88 4.78,29 C 6.06,32.11 11.43,35.09 14.06,32.18 C 15.25,30.20 17.22,28.05 14.53,26.28 C 14.07,23.85 15.02,21.40 16.59,19.53 C 17.32,17.24 20.68,18.03 21.46,16.93 C 18.39,17.21 18.55,13.54 21.43,13.93 C 24.28,14.75 23.61,18.60 23.71,20.93 C 23.64,23.50 20.95,25.38 18.56,25.68 C 16.87,25.58 13.63,27.93 17.21,27.75 C 19.48,26.00 23.01,27.50 24.21,24.53 C 27.46,23.36 28.12,29.32 24.81,29.09 C 23.31,29.04 21.10,29.38 21.81,31.18 C 21.78,33.13 19.50,33.19 18.5,33.46 C 19.33,34.42 21.79,33.33 21.31,35.53 C 22.81,38.21 24.07,41.01 25.37,43.78 C 25.65,43.76 25.91,43.71 26.18,43.68 C 25.18,42.20 24.50,40.47 23.87,38.78 C 22.89,37.39 20.01,33.00 23.81,33.90 C 25.19,37.27 28.74,39.00 32.31,39.62 C 33.05,39.64 34.24,39.96 35.40,40.21 C 35.69,40.01 35.96,39.78 36.25,39.56 C 32.36,39.04 28.30,38.45 25.53,35.5 C 24.28,32.50 30.60,35.42 31.03,32.18 C 32.86,28.20 32.51,38.42 33.87,34.28 C 34.64,30.46 30.76,29.07 28.43,27.09 C 27.19,25.02 32.07,24.37 33.71,23.71 C 34.59,23.54 35.50,23.46 36.40,23.46 C 39.98,24.01 37.11,31.48 34.56,28.68 C 33.57,27.72 29.93,24.59 31.90,27.68 C 33.46,29.97 36.15,30.56 38.40,31.90 C 41.43,33.12 43.25,28.84 43.37,26.37 C 43.42,25.37 43.62,24.98 43.87,24.96 C 43.88,24.72 43.90,24.46 43.90,24.21 C 41.86,23.86 43.23,28.94 41.31,30.21 C 39.90,33.07 35.04,30.28 38.03,27.96 C 38.74,26.35 40.81,23.00 38.37,24.12 C 36.82,21.77 33.60,22.97 31.43,23.65 C 29.47,24.00 27.41,26.80 26.34,23.96 C 27.05,24.02 28.74,20.27 26.37,19.28 C 25.18,19.55 24.24,23.14 24.43,20.06 C 24.49,17.55 24.45,13.06 20.90,13.18 C 20.74,13.15 20.61,13.15 20.46,13.15 z M 26.25,19.96 C 28.61,21.72 24.81,24.80 23.84,23.37 C 24.82,22.34 25.95,21.44 26.25,19.96 z M 22.59,25.43 C 21.59,26.52 20.22,25.46 22.59,25.43 z M 18.78,26.37 C 17.04,27.08 17.38,26.64 18.78,26.37 z M 27.59,27.25 C 29.05,28.94 32.56,29.61 30.31,32.15 C 29.62,34.17 24.12,33.29 27.75,32.06 C 30.03,30.10 25.93,29.24 27.59,27.25 z M 5.46,28.78 C 6.92,29.82 10.41,31.57 10.43,32.34 C 8.33,32.08 6.24,30.82 5.46,28.78 z M 25.68,29.62 C 24.84,30.70 22.37,29.64 25.06,29.68 L 25.68,29.62 z M 26.46,29.68 C 28.54,29.68 27.53,32.63 26,30.84 C 25.72,30.77 25.44,30.72 25.21,30.71 C 25.36,30.70 25.41,30.71 25.62,30.68 C 26.02,30.45 26.19,30.02 26.46,29.68 z M 25.12,30.71 C 24.35,30.79 24.50,30.70 25.12,30.71 z M 22.84,30.96 C 24.15,31.64 28.05,31.48 24.56,32.43 C 22.96,33.26 20.65,32.75 22.84,30.96 z M 25.65,32.81 C 24.10,33.66 23.83,33.15 25.65,32.81 z M 38.43,34.31 C 37.81,34.42 38.02,35.54 39.37,35.40 C 39.58,35.50 39.78,35.62 39.96,35.75 C 40.31,35.28 40.63,34.80 40.93,34.31 C 40.41,34.51 39.87,34.63 39.31,34.62 C 38.93,34.34 38.64,34.27 38.43,34.31 z M 39.96,34.84 C 40.19,34.81 39.70,34.99 39.96,34.84 z" id="p3517" style="opacity:1;fill:#e1ce66;fill-opacity:0.29;fill-rule:evenodd;stroke:none;marker:none;visibility:visible;display:inline;overflow:visible;enable-background:accumulate"/>
<path d="M 17.68,7.25 C 16.78,11.83 20.92,15.17 22.09,19.28 C 22.19,21.61 25.85,25.44 26.5,21.37 C 27.16,19.74 22.84,18.30 24.53,17.87 C 26.51,19.74 28.32,22.92 26.40,25.46 C 25.57,27.52 23.42,24.19 21.84,25.25 C 20.58,23.82 16.63,22.33 18.03,25.71 C 19.33,27.11 20.03,30.85 17.06,30.12 C 16.04,29.27 17.24,25.39 16,26.28 C 15.63,27.97 17.33,32.07 14.65,31.87 C 15.27,30.67 14.99,27.51 12.71,27.78 C 11.63,29.26 15.13,32.78 11.43,31.93 C 8.91,32.33 6.57,30.43 4.90,29.53 C 5.49,31.52 7.32,33.29 8.28,35.28 C 10.43,37.71 13.24,34.42 15.31,33.40 C 17.59,31.19 21.60,30.11 22.09,26.62 C 23.04,26.88 25.11,28.81 24.75,27.18 C 26.93,30.62 29.68,27.32 31.40,25.31 C 33.28,24.69 30.75,30.52 33.62,28.84 C 35.48,26.87 35.74,23.92 36.06,21.34 C 35.48,17.48 39.21,21.47 39.59,23.25 C 40.84,24.86 39.00,30.15 42.18,28.78 C 42.76,28.55 43.18,28.15 43.53,27.71 C 43.59,27.38 43.67,27.02 43.71,26.68 C 43.48,27.05 43.20,27.38 42.81,27.62 C 39.65,30.75 41.27,24.31 39.87,22.65 C 39.42,20.74 35.28,16.91 35.53,21 C 35.50,23.34 34.99,25.81 33.81,27.87 C 31.10,30.56 34.38,22.70 30.84,25 C 29.75,26.40 26.70,30.16 25.96,26.90 C 27.46,25.28 28.49,22.70 27.15,20.65 C 26.73,19.06 22.91,14.74 23.78,18.59 C 24.92,19.67 27.43,21.33 25.03,22.81 C 22.58,21.43 22.55,17.76 20.93,15.56 C 19.05,13.15 18.07,9.60 17.68,7.25 z M 18.15,23.90 C 21.32,23.92 22.96,28.18 19.65,29.46 C 20.30,27.43 18.03,25.89 18.15,23.90 z M 22.62,25.5 C 22.73,25.47 22.89,25.49 23.09,25.56 C 24.28,26.16 24.07,28.05 22.87,26.28 C 22.34,26.02 22.29,25.58 22.62,25.5 z M 24.62,26.21 C 25.48,26.18 25.05,27.21 24.62,26.21 z M 12.93,28.03 C 15.08,28.11 14.48,32.89 13.31,29.96 C 13.06,29.35 12.87,28.69 12.93,28.03 z M 16.65,30.25 C 17.43,31.07 18.23,30.91 16.59,31.75 C 15.56,32.70 16.98,30.80 16.65,30.25 z M 5.96,30.68 C 8.03,32.54 11.18,32.68 13.75,32.21 C 15.40,32.33 16.01,32.42 14.25,33.40 C 12.55,34.69 9.35,37.15 8.09,34.12 C 7.49,32.90 6.75,31.79 5.96,30.68 z" id="p3542" style="opacity:1;fill:#e1ce66;fill-opacity:0.37;fill-rule:evenodd;stroke:none;marker:none;visibility:visible;display:inline;overflow:visible;enable-background:accumulate"/>
<path d="M 11.50,12.13 C 8.83,17.22 9.90,26.58 15.52,28.99 C 21.14,31.40 25.42,25.25 26.76,21.77" id="p3556" style="fill:none;fill-opacity:1;fill-rule:evenodd;stroke:#f5df78;stroke-width:4;stroke-linecap:round;stroke-linejoin:miter;stroke-miterlimit:4;stroke-dasharray:none;stroke-opacity:0.22"/>
<path d="M 35.86,13.47 C 38.53,19.09 36.39,31.67 28.63,28.19" id="p3558" style="opacity:1;fill:none;fill-opacity:1;fill-rule:evenodd;stroke:#f5df78;stroke-width:4;stroke-linecap:round;stroke-linejoin:miter;marker:none;stroke-miterlimit:4;stroke-dasharray:none;stroke-dashoffset:0;stroke-opacity:0.22;visibility:visible;display:inline;overflow:visible;enable-background:accumulate"/>
<path d="M 19.53,21.50 C 22.21,16.68 24.62,14.01 28.63,13.20" id="p3560" style="opacity:1;fill:none;fill-opacity:1;fill-rule:evenodd;stroke:#f5bc78;stroke-width:10.69;stroke-linecap:round;stroke-linejoin:miter;marker:none;stroke-miterlimit:4;stroke-dasharray:none;stroke-dashoffset:0;stroke-opacity:0.29;visibility:visible;display:inline;overflow:visible;enable-background:accumulate"/>
<path d="M 14.72,32.74 C 18.46,30.33 25.15,28.46 30.51,31.67" id="p3562" style="opacity:1;fill:none;fill-opacity:1;fill-rule:evenodd;stroke:#f5df78;stroke-width:4;stroke-linecap:round;stroke-linejoin:miter;marker:none;stroke-miterlimit:4;stroke-dasharray:none;stroke-dashoffset:0;stroke-opacity:0.30;visibility:visible;display:inline;overflow:visible;enable-background:accumulate"/>
<path d="M 13.84,12.12 C 13.03,11.57 12.07,12.25 11.53,12.88 C 11.13,13.42 10.53,14.09 10.73,14.79 C 11.48,14.91 12.08,13.95 12.92,14.24 C 14.02,14.63 12.88,15.71 12.37,16.03 C 11.76,17.82 12.63,19.65 13.39,21.25 C 13.72,21.96 14.05,22.67 14.28,23.43 C 15.55,24.74 15.37,26.93 14.24,28.27 C 13.61,29.01 12.67,29.75 11.64,29.52 C 11.25,29.42 10.15,29.41 10.25,28.97 C 11.38,29.14 11.60,27.79 11.12,27.01 C 11.03,26.55 10.23,26.10 10.39,26.90 C 10.61,27.54 10.58,28.14 9.76,28.20 C 9.31,28.47 7.89,28.27 8.10,28.99 C 8.80,29.50 9.57,29.97 10.39,30.25 C 12.21,30.84 14.21,29.82 15.13,28.22 C 15.57,27.52 15.60,26.57 16.50,26.28 C 18.09,25.28 19.94,24.65 21.26,23.27 C 21.60,22.88 21.96,22.26 21.18,22.36 C 20.38,22.02 20.57,20.71 19.65,20.55 C 18.90,20.45 18.49,21.25 17.77,21.27 C 16.75,21.36 15.83,20.74 14.83,20.72 C 14.03,21.16 14.76,22.30 15.05,22.90 C 15.22,23.35 15.62,24.07 15.57,24.42 C 14.97,23.54 14.83,22.47 14.31,21.55 C 13.69,20.18 12.75,18.78 12.97,17.21 C 13.10,16.40 13.71,15.78 14.41,15.43 C 15.15,14.99 15.73,13.99 15.17,13.20 C 14.86,12.71 14.35,12.38 13.84,12.12 z M 13.56,12.78 C 13.74,13.14 14.64,13.73 14.31,14.07 C 13.65,13.69 12.66,13.90 12.18,13.36 C 12.41,12.88 13.08,12.82 13.56,12.78 z M 19.71,21.12 C 20.30,22.02 19.15,22.69 18.36,22.34 C 17.41,22.19 18.14,21.50 18.73,21.54 C 19.11,21.53 19.40,21.30 19.71,21.12 z M 15.15,21.21 C 15.75,21.33 16.34,22.71 15.61,22.77 C 15.28,22.32 15.36,21.71 15.15,21.21 z M 17,23.25 C 17.44,23.30 17.00,23.80 17,23.25 z M 18.34,23.71 C 18.96,23.56 19.30,24.18 18.64,24.45 C 18.28,24.66 17.15,25.41 17.04,24.80 C 17.32,24.26 17.89,24.07 18.34,23.71 z M 16.62,24 C 16.76,24.13 16.41,24.11 16.62,24 z" id="p3570" style="fill:#912e0f;fill-opacity:0.37;fill-rule:evenodd;stroke:none;"/>
<path d="M 27.03,7.15 C 26.17,8.52 30.98,8.84 28.57,9.37 C 27.45,8.78 24.10,6.99 24.30,8.95 C 26.31,10.27 28.79,10.21 30.97,10.97 C 32.44,11.75 35.77,14.72 34.28,15.68 C 33.07,13.28 33.09,18.03 32.25,18.84 C 30.64,21.89 34.57,22.82 36.18,20.63 C 38.67,18.58 35.97,16.12 35.09,14.03 C 34.16,11.66 31.50,11.05 30.04,9.33 C 30.29,7.68 27.66,7.82 27.03,7.15 z M 35.59,16.37 C 36.01,16.53 35.50,16.83 35.59,16.37 z M 33.62,17 C 33.73,18.36 37.52,16.59 35.73,18.48 C 34.19,19.78 37.16,18.93 35.98,19.91 C 34.74,21.96 31.19,20.93 33.21,18.57 C 33.36,18.05 33.37,17.49 33.62,17 z" id="p3572" style="opacity:1;fill:#5b1e0a;fill-opacity:0.26;fill-rule:evenodd;stroke:none;marker:none;visibility:visible;display:inline;overflow:visible;enable-background:accumulate"/>
<path d="M 22.68,28.06 C 20.90,26.78 19.48,29.55 20.28,29.90 C 16.56,30.86 20.14,35.44 22.80,35.08 C 24.30,35.39 29.49,34.80 25.92,36.46 C 22.53,37.55 24.82,41.35 27.67,40.61 C 29.20,40.45 33.18,39.88 32.57,38.17 C 30.46,38.82 27.63,40.73 25.52,38.91 C 24.83,36.82 31.52,35.97 27.75,34.33 C 25.27,33.94 19.55,34.89 19.78,31.34 C 21.16,29.65 22.33,33.09 24.18,31.64 C 25.90,31.45 29.21,30.45 26.23,29.03 C 25.10,28.55 23.85,28.44 22.68,28.06 z M 22.53,29.06 C 24.21,29.22 21.86,29.29 22.53,29.06 z M 25,29.71 C 25.83,29.50 25.01,30.37 25,29.71 z" id="p3574" style="opacity:1;fill:#5b1e0a;fill-opacity:0.3;fill-rule:evenodd;stroke:none;marker:none;visibility:visible;display:inline;overflow:visible;enable-background:accumulate"/>
<path d="M 21.00,31.91 C 26.30,37.40 30.09,38.91 34.63,34.37" id="p3604" style="opacity:1;fill:none;fill-opacity:1;fill-rule:evenodd;stroke:#671a03;stroke-width:4.5;stroke-linecap:round;stroke-linejoin:miter;marker:none;stroke-miterlimit:4;stroke-dasharray:none;stroke-dashoffset:0;stroke-opacity:0.34;visibility:visible;display:inline;overflow:visible;enable-background:accumulate"/>
<path d="M 26.62,21.63 A 2.67,2.67 0 1 1 21.27,21.63 A 2.67,2.67 0 1 1 26.62,21.63 z" transform="matrix(0.45,0,0,0.45,13.57,12.83)" id="p3606" style="opacity:1;fill:#ffffff;fill-opacity:0.44;fill-rule:evenodd;stroke:none;marker:none;visibility:visible;display:inline;overflow:visible;enable-background:accumulate"/>
<path d="M 26.62,21.63 A 2.67,2.67 0 1 1 21.27,21.63 A 2.67,2.67 0 1 1 26.62,21.63 z" transform="matrix(0.35,0,0,0.35,13.96,10.31)" id="p3608" style="opacity:1;fill:#ffffff;fill-opacity:0.33;fill-rule:evenodd;stroke:none;marker:none;visibility:visible;display:inline;overflow:visible;enable-background:accumulate"/>
<path d="M 26.62,21.63 A 2.67,2.67 0 1 1 21.27,21.63 A 2.67,2.67 0 1 1 26.62,21.63 z" transform="matrix(0.25,0,0,0.25,13.28,14.35)" id="p3610" style="opacity:1;fill:#ffffff;fill-opacity:0.33;fill-rule:evenodd;stroke:none;marker:none;visibility:visible;display:inline;overflow:visible;enable-background:accumulate"/>
<path d="M 33.68,15.26 C 34.63,16.77 34.82,18.47 34.25,19.80" id="p3612" style="opacity:1;fill:none;fill-opacity:1;fill-rule:evenodd;stroke:#7f2c19;stroke-width:1.89;stroke-linecap:round;stroke-linejoin:miter;marker:none;stroke-miterlimit:4;stroke-dasharray:none;stroke-dashoffset:0;stroke-opacity:0.32;visibility:visible;display:inline;overflow:visible;enable-background:accumulate"/>
<path d="M 44.66,25.00 A 19.96,19.96 0 1 1 4.73,25.00 A 19.96,19.96 0 1 1 44.66,25.00 z" transform="translate(-0.75,-1.13)" id="stroke01" style="opacity:1;fill:none;fill-opacity:1;fill-rule:evenodd;stroke:#000000;stroke-width:0.50;stroke-linecap:round;stroke-linejoin:miter;marker:none;stroke-miterlimit:4;stroke-dasharray:none;stroke-dashoffset:0;stroke-opacity:1;visibility:visible;display:inline;overflow:visible;enable-background:accumulate"/>
</g>
</svg>
