<?xml version="1.0" encoding="UTF-8" standalone="no"?>
<!DOCTYPE svg PUBLIC "-//W3C//DTD SVG 1.0//EN" "http://www.w3.org/TR/2001/REC-SVG-20010904/DTD/svg10.dtd">
<svg xmlns:svg="http://www.w3.org/2000/svg" xmlns="http://www.w3.org/2000/svg" xmlns:xlink="http://www.w3.org/1999/xlink" version="1.1" width="100%" height="100%" viewBox="0 0 48 48" id="_board03" style="display:inline">
<defs id="defs2385">
<radialGradient cx="35.04" cy="-3.26" r="24" fx="35.04" fy="-3.26" id="rg4182-512-326-624-589" xlink:href="#lg3175-410-204-224-611" gradientUnits="userSpaceOnUse" gradientTransform="matrix(0.14,-1.49,1.52,0.14,36.66,89.91)"/>
<linearGradient id="lg3175-410-204-224-611">
<stop id="s6267" style="stop-color:#6bef5c;stop-opacity:0.56" offset="0"/>
<stop id="s6269" style="stop-color:#37f95f;stop-opacity:0" offset="1"/>
</linearGradient>
<linearGradient x1="41.27" y1="46.27" x2="7.42" y2="6.28" id="lg4185-921-364-211-817" xlink:href="#lg3165-42-672-929-908" gradientUnits="userSpaceOnUse"/>
<linearGradient id="lg3165-42-672-929-908">
<stop id="s6273" style="stop-color:#2e7b2e;stop-opacity:1" offset="0"/>
<stop id="s6275" style="stop-color:#48fa58;stop-opacity:1" offset="1"/>
</linearGradient>
</defs>
<g>
<rect width="48" height="48" x="0" y="0" id="r2393" style="fill:url(#lg4185-921-364-211-817);fill-opacity:1;fill-rule:evenodd;stroke:none;marker:none;visibility:visible;display:inline;overflow:visible;enable-background:accumulate"/>
<rect width="48" height="48" x="0" y="0" id="r3173" style="fill:url(#rg4182-512-326-624-589);fill-opacity:1;fill-rule:evenodd;stroke:none;marker:none;visibility:visible;display:inline;overflow:visible;enable-background:accumulate"/>
<path d="M 4.87,0 C 3.87,1.07 3.09,2.37 2.59,3.84 C 2.06,5.39 1.97,6.97 2.15,8.5 C 1.44,8.29 0.71,8.18 0,8.12 L 0,29.34 C 1.13,29.25 2.23,28.97 3.28,28.53 L 0,35.62 L 0,36.31 L 5.37,38.12 L 7.34,29.59 C 8.56,31.96 10.71,33.88 13.43,34.81 C 19,36.7 25.01,33.72 26.9,28.15 C 28.78,22.61 25.85,16.57 20.34,14.65 C 21.41,13.55 22.28,12.23 22.81,10.68 C 24.11,6.85 23.1,2.78 20.53,0 L 4.87,0 z M 47.06,13.21 C 46.01,13.2 44.93,13.34 43.87,13.65 C 38.21,15.31 34.96,21.27 36.62,26.93 C 37.08,28.51 37.87,29.88 38.9,31.03 C 33.52,32.86 30.51,38.64 32.12,44.15 C 32.55,45.61 33.26,46.9 34.18,48 L 48,48 L 48,13.28 C 47.68,13.24 47.37,13.22 47.06,13.21 z" id="p5451" style="opacity:1;fill:#7bfb6d;fill-opacity:0.15;fill-rule:evenodd;stroke:none;marker:none;visibility:visible;display:inline;overflow:visible;enable-background:accumulate"/>
<path d="M 48,0 L 47,1 L 47,47 L 1,47 L 0,48 L 48,48 L 48,0 z" id="r3235" style="fill:#82fb82;fill-opacity:0.37;fill-rule:evenodd;stroke:none;marker:none;visibility:visible;display:inline;overflow:visible;enable-background:accumulate"/>
<path d="M 0,0 L 0,48 L 1,47 L 1,1 L 47,1 L 48,0 L 0,0 z" id="p3240" style="fill:#147b14;fill-opacity:0.38;fill-rule:evenodd;stroke:none;marker:none;visibility:visible;display:inline;overflow:visible;enable-background:accumulate"/>
<path d="M 32.59,3.9 C 31.64,3.94 30.71,4.41 30.18,5.28 C 29.94,5.66 29.82,6.1 29.78,6.53 C 28.41,5.76 26.67,6.21 25.84,7.56 C 24.99,8.94 25.42,10.74 26.81,11.59 C 27.45,11.98 28.18,12.12 28.87,12 L 27.43,13.84 L 28.84,14.71 L 29.87,12.53 C 30.05,13.24 30.54,13.89 31.21,14.31 C 32.6,15.16 34.39,14.72 35.25,13.34 C 36.09,11.96 35.68,10.16 34.31,9.31 C 34.66,9.08 34.98,8.76 35.21,8.37 C 36.07,6.99 35.63,5.16 34.25,4.31 C 33.73,3.99 33.16,3.88 32.59,3.9 z M 6.65,5.21 C 4.31,5.34 2.3,7.12 1.93,9.53 C 1.82,10.29 1.88,11.02 2.09,11.71 C 1.36,11.64 0.65,11.72 0,11.93 L 0,21.53 C 0.25,21.61 0.53,21.67 0.81,21.71 C 2.08,21.91 3.31,21.61 4.31,20.96 L 3.28,24.84 L 6.09,25.25 L 6.28,21.12 C 7.04,22.12 8.21,22.82 9.56,23.03 C 12.31,23.44 14.86,21.56 15.28,18.81 C 15.69,16.07 13.82,13.52 11.09,13.09 C 11.5,12.49 11.79,11.79 11.9,11.03 C 12.32,8.27 10.43,5.69 7.68,5.28 C 7.34,5.22 6.99,5.2 6.65,5.21 z M 48,11.93 C 46.24,12.51 44.88,14.04 44.59,16 C 44.21,18.47 45.69,20.78 48,21.53 L 48,11.93 z M 39.31,17.65 C 38.61,17.65 37.94,18.06 37.65,18.75 C 37.54,19 37.52,19.27 37.53,19.53 C 36.63,19.19 35.59,19.61 35.21,20.5 C 34.82,21.41 35.27,22.48 36.18,22.87 C 36.6,23.05 37.06,23.04 37.46,22.9 L 36.75,24.15 L 37.68,24.56 L 38.12,23.15 C 38.29,23.57 38.64,23.9 39.09,24.09 C 40,24.48 41.04,24.06 41.43,23.15 C 41.82,22.24 41.4,21.2 40.5,20.81 C 40.69,20.64 40.86,20.41 40.96,20.15 C 41.35,19.24 40.94,18.2 40.03,17.81 C 39.8,17.71 39.54,17.65 39.31,17.65 z M 25.71,20.71 C 24.9,20.81 24.15,21.32 23.78,22.12 C 23.55,21.85 23.24,21.62 22.9,21.46 C 21.67,20.91 20.24,21.45 19.68,22.68 C 19.12,23.91 19.67,25.37 20.9,25.93 C 21.24,26.09 21.58,26.16 21.93,26.15 C 21.45,27.36 22.02,28.73 23.21,29.28 C 24.44,29.83 25.87,29.29 26.43,28.06 C 26.69,27.49 26.73,26.89 26.56,26.34 L 28.21,27.34 L 28.78,26.09 L 26.87,25.43 C 27.44,25.21 27.94,24.75 28.21,24.15 C 28.77,22.92 28.22,21.49 27,20.93 C 26.69,20.79 26.37,20.72 26.06,20.71 C 25.94,20.71 25.83,20.7 25.71,20.71 z M 36.43,28 C 35.38,28.05 34.35,28.49 33.59,29.34 C 33.17,29.81 32.91,30.36 32.75,30.93 C 31.05,29.54 28.53,29.69 27.06,31.34 C 25.54,33.03 25.68,35.63 27.37,37.15 C 28.15,37.85 29.12,38.21 30.09,38.21 L 27.65,40.37 L 29.37,41.93 L 31.37,39.18 C 31.44,40.21 31.92,41.22 32.75,41.96 C 34.43,43.48 37.01,43.34 38.53,41.65 C 40.04,39.97 39.91,37.39 38.25,35.87 C 38.79,35.64 39.32,35.31 39.75,34.84 C 41.26,33.15 41.09,30.54 39.4,29.03 C 38.56,28.27 37.49,27.94 36.43,28 z M 10.18,31.09 C 9.8,31.08 9.41,31.16 9.03,31.31 C 7.51,31.89 6.75,33.6 7.34,35.12 C 7.5,35.54 7.75,35.89 8.06,36.18 C 6.62,36.81 5.93,38.46 6.5,39.93 C 7.08,41.45 8.79,42.21 10.31,41.62 C 11.01,41.35 11.55,40.83 11.87,40.21 L 12.46,42.5 L 14,41.9 L 12.9,39.75 C 13.58,40.03 14.38,40.06 15.12,39.78 C 16.64,39.19 17.39,37.48 16.81,35.96 C 16.23,34.45 14.54,33.71 13.03,34.28 C 13.06,33.85 13,33.42 12.84,33 C 12.4,31.86 11.33,31.13 10.18,31.09 z" id="p5459" style="opacity:1;fill:#1f7916;fill-opacity:0.15;fill-rule:evenodd;stroke:none;marker:none;visibility:visible;display:inline;overflow:visible;enable-background:accumulate"/>
</g>
</svg>
