<?xml version="1.0" encoding="UTF-8" standalone="no"?>
<!DOCTYPE svg PUBLIC "-//W3C//DTD SVG 1.0//EN" "http://www.w3.org/TR/2001/REC-SVG-20010904/DTD/svg10.dtd">
<svg xmlns:svg="http://www.w3.org/2000/svg" xmlns="http://www.w3.org/2000/svg" xmlns:xlink="http://www.w3.org/1999/xlink" version="1.1" width="100%" height="100%" viewBox="0 0 48 48" id="_board99" style="display:inline">
<defs id="defs2385">
<linearGradient id="lg3175">
<stop id="s3177" style="stop-color:#fae5b9;stop-opacity:0.50" offset="0"/>
<stop id="s3179" style="stop-color:#d8ac85;stop-opacity:0" offset="1"/>
</linearGradient>
<linearGradient id="lg3165">
<stop id="s3167" style="stop-color:#f2e3c1;stop-opacity:1" offset="0"/>
<stop id="s3169" style="stop-color:#f7f2e9;stop-opacity:1" offset="1"/>
</linearGradient>
<radialGradient cx="35.04" cy="-3.26" r="24" fx="35.04" fy="-3.26" id="rg2418" xlink:href="#lg3175" gradientUnits="userSpaceOnUse" gradientTransform="matrix(0.14,-1.49,1.52,0.14,36.66,89.91)"/>
<linearGradient x1="41.27" y1="46.27" x2="7.42" y2="6.28" id="lg2421" xlink:href="#lg3165" gradientUnits="userSpaceOnUse"/>
</defs>
<g>
<rect width="48" height="48" x="0" y="0" id="r2393" style="fill:url(#lg2421);fill-opacity:1;fill-rule:evenodd;stroke:none;marker:none;visibility:visible;display:inline;overflow:visible;enable-background:accumulate"/>
<rect width="48" height="48" x="0" y="0" id="r3173" style="fill:url(#rg2418);fill-opacity:1;fill-rule:evenodd;stroke:none;marker:none;visibility:visible;display:inline;overflow:visible;enable-background:accumulate"/>
<path d="M 0,0 L 0,12 L 12,12 L 12,0 L 0,0 z M 12,12 L 12,24 L 24,24 L 24,12 L 12,12 z M 24,12 L 36,12 L 36,0 L 24,0 L 24,12 z M 36,12 L 36,24 L 48,24 L 48,12 L 36,12 z M 36,24 L 24,24 L 24,36 L 36,36 L 36,24 z M 36,36 L 36,48 L 48,48 L 48,36 L 36,36 z M 24,36 L 12,36 L 12,48 L 24,48 L 24,36 z M 12,36 L 12,24 L 0,24 L 0,36 L 12,36 z" id="r3469" style="fill:#081a26;fill-opacity:0.50;fill-rule:evenodd;stroke:none;marker:none;visibility:visible;display:inline;overflow:visible;enable-background:accumulate"/>
<path d="M 48,0 L 47,1 L 47,47 L 1,47 L 0,48 L 48,48 L 48,0 z" id="r3235" style="fill:#ffffff;fill-opacity:0.55;fill-rule:evenodd;stroke:none;marker:none;visibility:visible;display:inline;overflow:visible;enable-background:accumulate"/>
<path d="M 0,0 L 0,48 L 1,47 L 1,1 L 47,1 L 48,0 L 0,0 z" id="p3240" style="fill:#000000;fill-opacity:0.25;fill-rule:evenodd;stroke:none;marker:none;visibility:visible;display:inline;overflow:visible;enable-background:accumulate"/>
</g>
</svg>
