<?xml version="1.0" encoding="UTF-8" standalone="no"?>
<!DOCTYPE svg PUBLIC "-//W3C//DTD SVG 1.0//EN" "http://www.w3.org/TR/2001/REC-SVG-20010904/DTD/svg10.dtd">
<svg xmlns:svg="http://www.w3.org/2000/svg" xmlns="http://www.w3.org/2000/svg" xmlns:xlink="http://www.w3.org/1999/xlink" version="1.1" width="100%" height="100%" viewBox="0 0 48 48" id="_board06" style="display:inline">
<defs id="defs2385">
<linearGradient id="lg3175">
<stop id="s3177" style="stop-color:#ff8416;stop-opacity:0.36" offset="0"/>
<stop id="s3179" style="stop-color:#c55c00;stop-opacity:0" offset="1"/>
</linearGradient>
<linearGradient id="lg3165">
<stop id="s3167" style="stop-color:#593812;stop-opacity:1" offset="0"/>
<stop id="s3169" style="stop-color:#b84d00;stop-opacity:1" offset="1"/>
</linearGradient>
<radialGradient cx="35.04" cy="-3.26" r="24" fx="35.04" fy="-3.26" id="rg2418" xlink:href="#lg3175" gradientUnits="userSpaceOnUse" gradientTransform="matrix(0.14,-1.49,1.52,0.14,36.66,89.91)"/>
<linearGradient x1="41.27" y1="46.27" x2="7.42" y2="6.28" id="lg2421" xlink:href="#lg3165" gradientUnits="userSpaceOnUse"/>
</defs>
<g>
<rect width="48" height="48" x="0" y="0" id="r2393" style="fill:url(#lg2421);fill-opacity:1;fill-rule:evenodd;stroke:none;marker:none;visibility:visible;display:inline;overflow:visible;enable-background:accumulate"/>
<rect width="48" height="48" x="0" y="0" id="r3173" style="fill:url(#rg2418);fill-opacity:1;fill-rule:evenodd;stroke:none;marker:none;visibility:visible;display:inline;overflow:visible;enable-background:accumulate"/>
<path d="M 36.31,0 L 29.37,16.75 L 48,24.46 L 48,0 L 36.31,0 z M 0,12.5 L 0,48 L 28.5,48 L 36.87,27.75 L 0,12.5 z" id="r3380" style="opacity:1;fill:#f1c492;fill-opacity:0.05;fill-rule:evenodd;stroke:none;marker:none;visibility:visible;display:inline;overflow:visible;enable-background:accumulate"/>
<path d="M 48,0 L 47,1 L 47,47 L 1,47 L 0,48 L 48,48 L 48,0 z" id="r3235" style="fill:#fffee6;fill-opacity:0.29;fill-rule:evenodd;stroke:none;marker:none;visibility:visible;display:inline;overflow:visible;enable-background:accumulate"/>
<path d="M 0,0 L 0,48 L 1,47 L 1,1 L 47,1 L 48,0 L 0,0 z" id="p3240" style="fill:#3d1608;fill-opacity:0.21;fill-rule:evenodd;stroke:none;marker:none;visibility:visible;display:inline;overflow:visible;enable-background:accumulate"/>
<path d="M 7.18,2.62 L 1.96,15.28 L 14.09,20.25 L 19.31,7.59 L 7.18,2.62 z M 35.78,5.65 L 25.84,7.84 L 28,17.81 L 37.96,15.62 L 35.78,5.65 z M 35.25,20.03 L 35.25,29.93 L 45.15,29.93 L 45.15,20.03 L 35.25,20.03 z M 31.12,22.43 L 27.18,25.90 L 30.62,29.84 L 34.59,26.40 L 31.12,22.43 z M 6.40,24.40 L 6.40,30.21 L 12.25,30.21 L 12.25,24.40 L 6.40,24.40 z M 24.34,30.15 L 13.34,32.96 L 16.15,44 L 27.15,41.18 L 24.34,30.15 z M 41.75,34.62 L 34.40,36.56 L 36.34,43.87 L 43.65,41.96 L 41.75,34.62 z" id="r3388" style="opacity:1;fill:#923e00;fill-opacity:0.29;fill-rule:evenodd;stroke:none;marker:none;visibility:visible;display:inline;overflow:visible;enable-background:accumulate"/>
</g>
</svg>
