<?xml version="1.0" encoding="UTF-8" standalone="no"?>
<!-- Created with Inkscape (http://www.inkscape.org/) -->
<svg
   xmlns:svg="http://www.w3.org/2000/svg"
   xmlns="http://www.w3.org/2000/svg"
   version="1.0"
   width="100%"
   height="100%"
   viewBox="0 0 48 48"
   id="svg2383">
  <defs
     id="defs2385" />
  <path
     d="M 6.5,0.5 C 3.176,0.5 0.5,3.176 0.5,6.5 L 0.5,41.5 C 0.5,44.824 3.176,47.5 6.5,47.5 L 41.5,47.5 C 44.824,47.5 47.5,44.824 47.5,41.5 L 47.5,6.5 C 47.5,3.176 44.824,0.5 41.5,0.5 L 6.5,0.5 z"
     id="r3173"
     style="fill:#edd322;fill-opacity:1;fill-rule:evenodd;stroke:none;marker:none;visibility:visible;display:inline;overflow:visible;enable-background:accumulate" />
  <path
     d="M 6.5,0.5 C 4.6864647,0.5 3.0671555,1.2987428 1.96875,2.5625 C 2.0726946,8.0994474 2.1851043,13.146964 2.125,13.25 C 2.102087,13.272913 1.279518,13.613176 0.5,13.9375 L 0.5,30.6875 C 1.7228909,31.067948 2.8813961,31.435611 2.90625,31.46875 C 3.0015912,31.592694 3.5112202,39.667069 4,46.96875 C 4.7584537,47.31383 5.6095588,47.5 6.5,47.5 L 12.5625,47.5 C 16.421678,41.98203 20.311577,36.423432 20.4375,36.375 C 20.6875,36.285001 46.38125,42.97 46.53125,42.75 C 46.671251,42.52 30.54125,21.4575 30.53125,21.1875 C 30.521607,20.975361 39.825019,6.3914034 43.25,0.78125 C 42.694165,0.61219817 42.112535,0.5 41.5,0.5 L 38,0.5 C 30.540089,3.0400781 19.397871,6.9533872 19.21875,6.90625 C 19.133368,6.877789 16.642672,3.9292178 13.78125,0.5 L 6.5,0.5 z"
     id="p3223"
     style="fill:#e6da39;fill-opacity:1;fill-rule:evenodd;stroke:none;marker:none;visibility:visible;display:inline;overflow:visible;enable-background:accumulate" />
  <path
     d="M 39.5625,0.5 C 39.348177,1.8787329 39.110881,3.4743037 39.09375,3.5 C 39.02375,3.57 28.9575,5.61875 28.9375,5.71875 C 28.9275,5.82875 38.1375,10.4 38.1875,10.5 C 38.2375,10.59 37.06625,20.835 37.15625,20.875 C 37.256248,20.914999 44.4625,13.55125 44.5625,13.53125 C 44.588148,13.5227 46.124005,14.224222 47.5,14.84375 L 47.5,6.5 C 47.5,3.176 44.824,0.5 41.5,0.5 L 39.5625,0.5 z M 8.34375,0.625 C 8.3172941,0.5787023 5.9128753,0.92946779 3.46875,1.3125 C 1.6881307,2.3508987 0.5,4.2818692 0.5,6.5 L 0.5,15.28125 C 3.1702684,16.472026 6.0780475,17.765702 6.125,17.71875 C 6.1950001,17.648751 1.4275,8.50625 1.4375,8.40625 C 1.4575001,8.3062504 8.39375,0.715 8.34375,0.625 z M 14.625,4.3125 C 14.585,4.3125001 13.28,7.69875 13.25,7.71875 C 13.21,7.73875 9.60375,7.6575 9.59375,7.6875 C 9.5837498,7.7275002 12.365,10.0225 12.375,10.0625 C 12.385,10.0925 11.19875,13.50125 11.21875,13.53125 C 11.24875,13.55125 14.30375,11.59375 14.34375,11.59375 C 14.38375,11.59375 17.25125,13.77 17.28125,13.75 C 17.311249,13.72 16.39625,10.25875 16.40625,10.21875 C 16.41625,10.18875 19.385,8.12375 19.375,8.09375 C 19.364999,8.0537498 15.74875,7.8325 15.71875,7.8125 C 15.69875,7.7825001 14.665,4.3125 14.625,4.3125 z M 27.1875,13.8125 C 27.1375,13.7925 24.32125,18.01125 24.28125,18.03125 C 24.231249,18.041249 19.27,16.835 19.25,16.875 C 19.22,16.914999 22.375,20.91875 22.375,20.96875 C 22.374999,21.028751 19.68875,25.335 19.71875,25.375 C 19.758751,25.414999 24.54375,23.6775 24.59375,23.6875 C 24.64375,23.7075 27.92875,27.5825 27.96875,27.5625 C 28.018751,27.542501 27.81375,22.44625 27.84375,22.40625 C 27.87375,22.36625 32.5625,20.45625 32.5625,20.40625 C 32.552499,20.35625 27.68625,18.9775 27.65625,18.9375 C 27.62625,18.8975 27.2375,13.8225 27.1875,13.8125 z M 12.21875,22.53125 C 12.13875,22.521249 9.06,29.98125 9,30.03125 C 8.93,30.071249 0.87375,29.70125 0.84375,29.78125 C 0.81375003,29.851249 6.94875,35.1075 6.96875,35.1875 C 6.98875,35.2675 4.18,42.825 4.25,42.875 C 4.31,42.925001 11.16,38.6875 11.25,38.6875 C 11.33,38.6975 17.64875,43.7375 17.71875,43.6875 C 17.788751,43.6475 15.87625,35.79875 15.90625,35.71875 C 15.93625,35.648751 22.67625,31.17375 22.65625,31.09375 C 22.63625,31.01375 14.59125,30.39375 14.53125,30.34375 C 14.46125,30.29375 12.30875,22.53125 12.21875,22.53125 z M 39.6875,25.3125 C 39.6375,25.312501 37.79,29.9175 37.75,29.9375 C 37.7,29.9675 32.76,29.79375 32.75,29.84375 C 32.73,29.89375 36.5425,33.04375 36.5625,33.09375 C 36.572499,33.14375 34.8975,37.81375 34.9375,37.84375 C 34.9775,37.87375 39.16875,35.21875 39.21875,35.21875 C 39.268751,35.228751 43.17875,38.27 43.21875,38.25 C 43.268751,38.22 42.0425,33.425 42.0625,33.375 C 42.082499,33.325001 46.16625,30.54 46.15625,30.5 C 46.146248,30.45 41.19625,30.12375 41.15625,30.09375 C 41.116248,30.06375 39.7375,25.3125 39.6875,25.3125 z M 40.78125,41.1875 C 40.715104,41.206399 40.212234,44.5503 39.75,47.5 L 41.5,47.5 C 42.439877,47.5 43.334584,47.288299 44.125,46.90625 C 42.674375,44.395233 40.842371,41.178768 40.78125,41.1875 z"
     id="p3198"
     style="fill:#efc731;fill-opacity:1;fill-rule:evenodd;stroke:none;marker:none;visibility:visible;display:inline;overflow:visible;enable-background:accumulate" />
  <rect
     width="47"
     height="47"
     ry="6"
     x="0.5"
     y="0.5"
     id="rect2526"
     style="fill:none;fill-opacity:1;fill-rule:evenodd;stroke:#b16537;marker:none;stroke-opacity:1;visibility:visible;display:inline;overflow:visible;enable-background:accumulate" />
  <rect
     width="41.566242"
     height="41.566242"
     ry="5.3063288"
     x="3.2168791"
     y="3.2168791"
     id="rect3346"
     style="fill:none;fill-opacity:1;fill-rule:evenodd;stroke:#ffe341;stroke-width:1;stroke-linecap:round;marker:none;stroke-miterlimit:4;stroke-dasharray:none;stroke-dashoffset:0;stroke-opacity:1;visibility:visible;display:inline;overflow:visible;enable-background:accumulate" />
</svg>
