<?xml version="1.0" encoding="UTF-8" standalone="no"?>
<!-- Created with Inkscape (http://www.inkscape.org/) -->
<svg
   xmlns:svg="http://www.w3.org/2000/svg"
   xmlns="http://www.w3.org/2000/svg"
   version="1.0"
   width="100%"
   height="100%"
   viewBox="0 0 48 48"
   id="svg2383">
  <defs
     id="defs2385" />
  <rect
     width="48"
     height="48"
     ry="2.944243"
     x="0"
     y="0"
     id="rect2381"
     style="opacity:1;fill:#1a1a1a;fill-opacity:1;fill-rule:nonzero;stroke:none;stroke-width:2.5;stroke-linecap:butt;stroke-linejoin:round;marker:none;marker-start:none;marker-mid:none;marker-end:none;stroke-miterlimit:4;stroke-dasharray:none;stroke-dashoffset:0;stroke-opacity:0.45;visibility:visible;display:inline;overflow:visible;enable-background:accumulate" />
  <rect
     width="47"
     height="47"
     ry="2.6007478"
     x="0.5"
     y="0.5"
     id="rect3153"
     style="opacity:1;fill:#4d4d4d;fill-opacity:1;fill-rule:nonzero;stroke:none;stroke-width:2.5;stroke-linecap:butt;stroke-linejoin:round;marker:none;marker-start:none;marker-mid:none;marker-end:none;stroke-miterlimit:4;stroke-dasharray:none;stroke-dashoffset:0;stroke-opacity:0.45;visibility:visible;display:inline;overflow:visible;enable-background:accumulate" />
  <rect
     width="46"
     height="46"
     ry="2.3307211"
     x="1"
     y="1"
     id="rect3155"
     style="opacity:1;fill:#1a1a1a;fill-opacity:1;fill-rule:nonzero;stroke:none;stroke-width:2.5;stroke-linecap:butt;stroke-linejoin:round;marker:none;marker-start:none;marker-mid:none;marker-end:none;stroke-miterlimit:4;stroke-dasharray:none;stroke-dashoffset:0;stroke-opacity:0.45;visibility:visible;display:inline;overflow:visible;enable-background:accumulate" />
  <rect
     width="45"
     height="45"
     ry="1.9199842"
     x="1.5"
     y="1.5"
     id="rect3157"
     style="opacity:1;fill:#333333;fill-opacity:1;fill-rule:nonzero;stroke:none;stroke-width:2.5;stroke-linecap:butt;stroke-linejoin:round;marker:none;marker-start:none;marker-mid:none;marker-end:none;stroke-miterlimit:4;stroke-dasharray:none;stroke-dashoffset:0;stroke-opacity:0.45;visibility:visible;display:inline;overflow:visible;enable-background:accumulate" />
  <path
     d="M 33.96875,4.625 C 33.903328,4.6450272 33.197406,11.351594 33.15625,11.40625 C 33.115094,11.460907 26.84492,13.994091 26.84375,14.0625 C 26.84258,14.130909 33.023236,16.881469 33.0625,16.9375 C 33.101764,16.993532 33.560299,23.727748 33.625,23.75 C 33.689699,23.772252 38.215829,18.738778 38.28125,18.71875 C 38.346672,18.698723 44.896346,20.335907 44.9375,20.28125 C 44.978656,20.226593 41.592581,14.380909 41.59375,14.3125 C 41.59492,14.244091 45.164265,8.5247813 45.125,8.46875 C 45.085736,8.4127184 38.502198,9.8347516 38.4375,9.8125 C 38.372801,9.7902481 34.034173,4.6049729 33.96875,4.625 z M 17.46875,10.875 C 17.321689,10.84572 8.9799348,23.093499 8.84375,23.15625 C 8.7767056,23.187143 5.1504899,22.815323 1.5,22.4375 L 1.5,31.78125 C 2.3532304,32.900081 2.9331007,33.650272 2.9375,33.6875 C 2.9429484,33.733606 2.3002368,35.184886 1.5,37 L 1.5,44.59375 C 1.5,45.05498 1.668391,45.450909 1.9375,45.78125 C 6.0153378,44.354985 11.066761,42.575933 11.15625,42.59375 C 11.218105,42.606065 13.289801,44.462872 15.5625,46.5 L 22.3125,46.5 C 22.216995,42.33816 22.083103,37.606031 22.125,37.53125 C 22.198291,37.400435 35.048846,30.055161 35.03125,29.90625 C 35.013653,29.757339 20.820514,25.610128 20.71875,25.5 C 20.616986,25.389872 17.615811,10.904281 17.46875,10.875 z"
     id="path3159"
     style="opacity:1;fill:#4d4d4d;fill-opacity:0.28636361;fill-rule:nonzero;stroke:none;stroke-width:2.5;stroke-linecap:butt;stroke-linejoin:round;marker:none;marker-start:none;marker-mid:none;marker-end:none;stroke-miterlimit:4;stroke-dasharray:none;stroke-dashoffset:0;stroke-opacity:0.45;visibility:visible;display:inline;overflow:visible;enable-background:accumulate" />
  <path
     d="M 3.40625,1.5 C 2.3425787,1.5 1.5,2.3425786 1.5,3.40625 L 1.5,16.1875 C 7.1646507,19.831321 15.121994,22.09375 23.9375,22.09375 C 32.820586,22.09375 40.827522,19.786695 46.5,16.09375 L 46.5,3.40625 C 46.5,2.3425787 45.65742,1.5 44.59375,1.5 L 3.40625,1.5 z"
     id="path3167"
     style="opacity:1;fill:#444136;fill-opacity:0.18181817;fill-rule:nonzero;stroke:none;stroke-width:2.5;stroke-linecap:butt;stroke-linejoin:round;marker:none;marker-start:none;marker-mid:none;marker-end:none;stroke-miterlimit:4;stroke-dasharray:none;stroke-dashoffset:0;stroke-opacity:0.45;visibility:visible;display:inline;overflow:visible;enable-background:accumulate" />
</svg>
