<?xml version="1.0" encoding="UTF-8" standalone="no"?>

<svg xmlns:svg="http://www.w3.org/2000/svg" xmlns="http://www.w3.org/2000/svg" xmlns:xlink="http://www.w3.org/1999/xlink" version="1.0" width="100%" height="100%" viewBox="0 0 48 48" id="ontology">
<defs id="defs2385">
<linearGradient id="lg3929">
<stop id="s3931" style="stop-color:#e7eb94;stop-opacity:1" offset="0"/>
<stop id="s3933" style="stop-color:#99e6e6;stop-opacity:0" offset="1"/>
</linearGradient>
<linearGradient id="lg3921">
<stop id="s3923" style="stop-color:#99dee6;stop-opacity:1" offset="0"/>
<stop id="s3925" style="stop-color:#99dee6;stop-opacity:0" offset="1"/>
</linearGradient>
<linearGradient id="lg3220">
<stop id="s3222" style="stop-color:#b9d1f9;stop-opacity:1" offset="0"/>
<stop id="s3224" style="stop-color:#0e1f77;stop-opacity:1" offset="1"/>
</linearGradient>
<linearGradient id="lg3210">
<stop id="s3212" style="stop-color:#1e327e;stop-opacity:1" offset="0"/>
<stop id="s3214" style="stop-color:#82c2fa;stop-opacity:1" offset="1"/>
</linearGradient>
<linearGradient x1="24" y1="48" x2="24" y2="0" id="lg3496" xlink:href="#lg3210" gradientUnits="userSpaceOnUse"/>
<radialGradient cx="24" cy="43.22" r="23.5" fx="24" fy="43.22" id="rg3597" xlink:href="#lg3220" gradientUnits="userSpaceOnUse" gradientTransform="matrix(2.35,0,0,1.81,-32.43,-35.37)"/>
<radialGradient cx="24" cy="24" r="23.5" fx="24" fy="24" id="rg3927" xlink:href="#lg3921" gradientUnits="userSpaceOnUse" gradientTransform="matrix(1.39,0,0,1.23,-9.46,-5.70)"/>
<radialGradient cx="24" cy="24" r="23.5" fx="24" fy="24" id="rg3935" xlink:href="#lg3929" gradientUnits="userSpaceOnUse"/>
</defs>
<path d="M 9.62,0.5 C 4.56,0.5 0.5,4.56 0.5,9.62 L 0.5,38.37 C 0.5,43.43 4.56,47.5 9.62,47.5 L 38.37,47.5 C 43.43,47.5 47.5,43.43 47.5,38.37 L 47.5,9.62 C 47.5,4.56 43.43,0.5 38.37,0.5 L 9.62,0.5 z" id="r3218" style="fill:url(#rg3597);fill-opacity:1;fill-rule:nonzero;stroke:none;marker:none;visibility:visible;display:inline;overflow:visible;enable-background:accumulate"/>
<path d="M 28.25,0.5 C 27.16,4.93 25.11,14.01 23.96,18.84 C 21.49,13.40 17.38,4.17 17.25,4.21 C 17.09,4.26 21.04,16.70 22.5,21.56 C 19.62,19.56 9.64,12.07 1.31,5.87 C 1.18,6.15 1.06,6.42 0.96,6.71 C 6.44,11.08 12.72,16.04 16.90,19.40 C 10.45,16.55 1.33,12.46 0.5,12.25 L 0.5,12.31 C 1.33,13.02 14.83,21.03 19.68,24.03 C 13.92,24.69 2.75,25.84 2.75,26 C 2.74,26.13 11.82,26.22 17.81,26.31 C 13.63,29.31 6.69,34.20 0.5,38.59 C 0.50,38.93 0.55,39.26 0.59,39.59 C 7.99,34.70 16.48,29.07 20.31,26.62 C 16.60,30.85 4.91,43.66 5.06,43.81 C 5.20,43.96 18.24,32.46 22.53,28.84 C 21.48,34.07 18.84,46.44 19,46.5 C 19.13,46.55 22.47,36.58 24.37,31.06 C 25.72,35.31 27.67,41.63 29.5,47.5 L 30.53,47.5 C 28.89,41.59 27.12,35.24 25.96,30.96 C 28.70,35.65 33.51,44.03 35.59,47.5 L 36.03,47.5 C 34.49,43.66 30.17,33.59 28.18,28.81 C 33.05,31.55 43.43,37.53 43.53,37.40 C 43.63,37.26 31.49,28.35 28.25,25.84 C 28.94,25.68 29.93,25.44 31.12,25.18 C 31.14,25.18 31.17,25.19 31.18,25.18 C 35.55,25.22 41.72,25.32 47.5,25.40 L 47.5,24.40 C 43.89,24.24 40.34,24.08 37.03,23.93 C 40.79,23.13 44.66,22.28 47.5,21.65 L 47.5,20.93 C 42.84,21.29 35.10,21.99 30.40,22.37 C 34.78,18.36 42.52,11.40 42.43,11.28 C 42.33,11.13 29.97,20.02 26.65,22.28 C 26.67,21.71 26.83,19.57 27.12,16.78 C 28.59,12.39 30.71,6.22 32.65,0.5 L 31.59,0.5 C 30.27,4.01 28.97,7.48 27.75,10.75 C 28.16,6.78 28.58,2.95 28.81,0.5 L 28.25,0.5 z" id="p3901" style="opacity:1;fill:url(#rg3927);fill-opacity:1;fill-rule:evenodd;stroke:none;marker:none;visibility:visible;display:inline;overflow:visible;enable-background:accumulate"/>
<path d="M 20.93,0.5 C 21.68,7.14 22.52,14.62 22.96,18.90 C 19.59,15.16 11.95,6.41 7.03,0.87 C 6.66,0.98 6.30,1.10 5.96,1.25 C 10.13,7.45 16.98,17.47 19.75,21.65 C 14.04,19.89 5.01,17.02 4.96,17.15 C 4.92,17.27 12.37,19.86 18,21.81 C 13.39,21.04 6.49,19.83 0.5,18.81 L 0.5,19.59 C 7.97,21.13 16.70,22.90 20.68,23.78 C 19.61,24.39 8.90,28.98 0.5,32.62 L 0.5,34.34 C 7.87,32.21 17.09,29.49 20.87,28.46 C 20.83,28.53 20.81,28.58 20.78,28.65 C 17.32,33.55 12.36,40.48 12.46,40.56 C 12.55,40.62 15.76,36.40 18.90,32.25 C 16.47,36.88 13.38,42.75 10.90,47.5 L 11.65,47.5 C 15.33,41.05 20.01,32.75 22.59,28.31 C 22.79,29.14 23.70,38.80 24.53,47.5 L 26.56,47.5 C 26.84,38.32 27.13,28.02 27.28,27.90 C 27.47,28.10 27.63,28.25 27.84,28.46 C 31.42,33.25 36.94,40.73 37.06,40.65 C 37.15,40.59 33.82,35.85 30.71,31.40 C 34.95,35.74 40.30,41.26 44.28,45.31 C 44.42,45.18 44.57,45.07 44.71,44.93 C 40.25,39.99 33.81,32.97 29.62,28.34 C 33.28,29.11 40.85,30.85 47.5,32.34 L 47.5,30.34 C 38.74,27.19 28.65,23.58 28.59,23.40 C 28.58,23.38 28.80,22.97 28.90,22.78 C 34.36,20.90 44.79,17.45 44.75,17.31 C 44.70,17.18 36.36,19.73 30.62,21.46 C 35.08,19.24 41.85,15.92 47.5,13.12 L 47.5,12.31 C 41.87,14.85 35.10,17.95 30.46,20.03 C 33.18,15.37 38.19,7.01 41.65,1.12 C 41.25,0.96 40.83,0.81 40.40,0.71 C 35.05,7.55 27.00,18.01 25.21,20.12 C 25.11,14.56 25.06,2.78 24.90,2.78 C 24.75,2.78 24.60,13.38 24.46,19.21 C 23.82,15.09 22.71,7.34 21.71,0.5 L 20.93,0.5 z" id="p3903" style="opacity:1;fill:url(#rg3935);fill-opacity:1;fill-rule:evenodd;stroke:none;marker:none;visibility:visible;display:inline;overflow:visible;enable-background:accumulate"/>
<path d="M 9.62,0.5 C 4.56,0.5 0.5,4.56 0.5,9.62 L 0.5,18.78 C 6.99,21.89 15.15,23.75 24,23.75 C 32.84,23.75 41.00,21.89 47.5,18.78 L 47.5,9.62 C 47.5,4.56 43.43,0.5 38.37,0.5 L 9.62,0.5 z" id="p3228" style="fill:#caeef2;fill-opacity:0.34;fill-rule:evenodd;stroke:none;marker:none;visibility:visible;display:inline;overflow:visible;enable-background:accumulate"/>
<rect width="47" height="47" ry="9.12" x="0.5" y="0.5" id="r2393" style="fill:none;fill-opacity:1;fill-rule:nonzero;stroke:url(#lg3496);stroke-width:1;stroke-linecap:butt;stroke-linejoin:round;marker:none;stroke-miterlimit:4;stroke-dasharray:none;stroke-dashoffset:0;stroke-opacity:1;visibility:visible;display:inline;overflow:visible;enable-background:accumulate"/>
</svg>
