<?xml version="1.0" encoding="UTF-8" standalone="no"?>

<svg xmlns:svg="http://www.w3.org/2000/svg" xmlns="http://www.w3.org/2000/svg" xmlns:xlink="http://www.w3.org/1999/xlink" version="1.0" width="100%" height="100%" viewBox="0 0 48 48" id="ontology">
<defs id="defs2385">
<linearGradient id="lg3220">
<stop id="s3222" style="stop-color:#f6b9f9;stop-opacity:1" offset="0"/>
<stop id="s3224" style="stop-color:#3f0e77;stop-opacity:1" offset="1"/>
</linearGradient>
<linearGradient id="lg3210">
<stop id="s3212" style="stop-color:#7e1e65;stop-opacity:1" offset="0"/>
<stop id="s3214" style="stop-color:#ce82fa;stop-opacity:1" offset="1"/>
</linearGradient>
<linearGradient x1="24" y1="48" x2="24" y2="0" id="lg3496" xlink:href="#lg3210" gradientUnits="userSpaceOnUse"/>
<radialGradient cx="24" cy="43.22" r="23.5" fx="24" fy="43.22" id="rg3597" xlink:href="#lg3220" gradientUnits="userSpaceOnUse" gradientTransform="matrix(2.35,0,0,1.81,-32.43,-35.37)"/>
</defs>
<path d="M 9.62,0.5 C 4.56,0.5 0.5,4.56 0.5,9.62 L 0.5,38.37 C 0.5,43.43 4.56,47.5 9.62,47.5 L 38.37,47.5 C 43.43,47.5 47.5,43.43 47.5,38.37 L 47.5,9.62 C 47.5,4.56 43.43,0.5 38.37,0.5 L 9.62,0.5 z" id="r3218" style="fill:url(#rg3597);fill-opacity:1;fill-rule:nonzero;stroke:none;marker:none;visibility:visible;display:inline;overflow:visible;enable-background:accumulate"/>
<path d="M 10.56,0.5 L 0.5,10.59 L 0.5,14.84 L 14.81,0.5 L 10.56,0.5 z M 19.25,0.5 L 0.5,19.25 L 0.5,23.46 L 23.5,0.5 L 19.25,0.5 z M 27.62,0.5 L 0.5,27.65 L 0.5,31.90 L 31.87,0.5 L 27.62,0.5 z M 36.31,0.5 L 0.5,36.31 L 0.5,38.37 C 0.5,39.04 0.58,39.68 0.71,40.31 L 40.34,0.71 C 39.70,0.58 39.05,0.5 38.37,0.5 L 36.31,0.5 z M 5.37,1.56 C 3.75,2.41 2.41,3.75 1.56,5.37 L 5.37,1.56 z M 43.28,1.93 L 1.93,43.28 C 2.48,44.13 3.14,44.90 3.93,45.53 L 45.53,3.93 C 44.90,3.14 44.13,2.48 43.28,1.93 z M 46.93,6.43 L 6.43,46.93 C 7.42,47.30 8.50,47.5 9.62,47.5 L 10.09,47.5 L 47.5,10.12 L 47.5,9.62 C 47.5,8.50 47.30,7.42 46.93,6.43 z M 47.5,14.25 L 14.28,47.5 L 18.53,47.5 L 47.5,18.5 L 47.5,14.25 z M 47.5,22.93 L 22.93,47.5 L 27.15,47.5 L 47.5,27.18 L 47.5,22.93 z M 47.5,31.31 L 31.34,47.5 L 35.59,47.5 L 47.5,35.56 L 47.5,31.31 z M 47.31,40.21 L 40.21,47.31 C 43.79,46.58 46.58,43.79 47.31,40.21 z" id="p4408" style="fill:#69067e;fill-opacity:0.2;fill-rule:evenodd;stroke:none;"/>
<path d="M 9.62,0.5 C 4.56,0.5 0.5,4.56 0.5,9.62 L 0.5,18.78 C 6.99,21.89 15.15,23.75 24,23.75 C 32.84,23.75 41.00,21.89 47.5,18.78 L 47.5,9.62 C 47.5,4.56 43.43,0.5 38.37,0.5 L 9.62,0.5 z" id="p3228" style="fill:#f2caee;fill-opacity:0.22;fill-rule:evenodd;stroke:none;marker:none;visibility:visible;display:inline;overflow:visible;enable-background:accumulate"/>
<rect width="47" height="47" ry="9.12" x="0.5" y="0.5" id="r2393" style="fill:none;fill-opacity:1;fill-rule:nonzero;stroke:url(#lg3496);stroke-width:1;stroke-linecap:butt;stroke-linejoin:round;marker:none;stroke-miterlimit:4;stroke-dasharray:none;stroke-dashoffset:0;stroke-opacity:1;visibility:visible;display:inline;overflow:visible;enable-background:accumulate"/>
</svg>
