<?xml version="1.0" encoding="UTF-8" standalone="no"?>
<!DOCTYPE svg PUBLIC "-//W3C//DTD SVG 1.0//EN" "http://www.w3.org/TR/2001/REC-SVG-20010904/DTD/svg10.dtd">
<svg xmlns:svg="http://www.w3.org/2000/svg" xmlns="http://www.w3.org/2000/svg" xmlns:xlink="http://www.w3.org/1999/xlink" version="1.0" width="100%" height="100%" viewBox="0 0 48 48" id="apple01">
<defs id="defs2385">
<linearGradient id="lg3364">
<stop id="s3366" style="stop-color:#5b7a3d;stop-opacity:0" offset="0"/>
<stop id="s3368" style="stop-color:#74943e;stop-opacity:0.76" offset="1"/>
</linearGradient>
<linearGradient id="lg3272">
<stop id="s3274" style="stop-color:#c5ec9f;stop-opacity:0" offset="0"/>
<stop id="s3276" style="stop-color:#c5ec9f;stop-opacity:1" offset="1"/>
</linearGradient>
<radialGradient cx="21.93" cy="42.00" r="17.53" fx="21.93" fy="42.00" id="rg3278" xlink:href="#lg3272" gradientUnits="userSpaceOnUse" gradientTransform="matrix(1.11,-0.67,0.59,0.97,-27.31,12.24)"/>
<radialGradient cx="16.99" cy="30.52" r="12.25" fx="16.99" fy="30.52" id="rg3370" xlink:href="#lg3364" gradientUnits="userSpaceOnUse" gradientTransform="matrix(0.77,1.08,-0.78,0.56,27.87,-4.24)"/>
</defs>
<g id="content" style="opacity:1;display:inline">
<path d="M 13.79,41.05 C 6.76,35.18 3.57,24.96 7.65,14.89 C 11.53,5.31 28.56,4.87 33.90,8.04 C 38.40,10.72 43.69,17.47 40.39,28.24 C 37.10,39.01 31.05,41.50 29.72,42.48 C 28.38,43.46 18.77,44.35 13.79,41.05 z" id="p2464" style="opacity:1;fill:#98b748;fill-opacity:1;fill-rule:evenodd;stroke:none;marker:none;visibility:visible;display:inline;overflow:visible;enable-background:accumulate"/>
<path d="M 5.90,25.71 C 6.38,31.82 9.30,37.32 13.78,41.06 C 18.76,44.35 28.38,43.44 29.71,42.46 C 31.05,41.48 37.11,39.01 40.40,28.25 C 40.64,27.47 40.81,26.73 40.96,26 C 36.46,32.03 30.34,35.06 21.59,35.21 C 12.72,35.37 8.48,30.89 5.90,25.71 z" id="p3245" style="fill:url(#rg3278);fill-opacity:1;fill-rule:evenodd;stroke:none;"/>
<path d="M 30.59,11.68 C 29.91,11.74 29.15,12.03 28.15,12.5 C 24.96,14.00 17.65,11.77 15.21,16.46 C 10.33,23.60 11.83,30.33 18.03,33.71 C 24.00,36.97 24.19,40.77 19.65,43.06 C 24.13,43.74 28.81,43.13 29.71,42.46 C 30.38,41.98 32.20,41.12 34.28,39.06 C 33.27,36.24 31.96,33.20 32.46,31.28 C 33.40,27.71 39.25,20.22 35.68,15.71 C 33.23,12.62 32.09,11.55 30.59,11.68 z" id="p3240" style="fill:url(#rg3370);fill-opacity:1;fill-rule:evenodd;stroke:none;"/>
<path d="M 35.25,9 C 33.47,9.71 31.66,10.60 30.21,11.37 C 27.40,12.87 26.27,17.21 27.40,18.90 C 28.53,20.59 31.15,24.34 28.71,24.90 C 26.27,25.46 21.59,22.08 20.65,26.96 C 19.90,31.85 26.09,31.65 26.84,35.59 C 27.53,39.22 25.36,41.28 22.37,43.34 C 25.87,43.50 29.00,42.99 29.71,42.46 C 31.05,41.48 37.11,39.01 40.40,28.25 C 43.36,18.56 39.35,12.14 35.25,9 z" id="p3280" style="fill:#a8cd82;fill-opacity:0.28;fill-rule:evenodd;stroke:none;"/>
<path d="M 41.40,22.65 C 40.07,25.77 37.83,28.91 34.56,32.96 C 32.51,35.50 32.69,38.01 33.71,39.59 C 35.95,37.55 38.59,34.16 40.40,28.25 C 41.01,26.24 41.32,24.38 41.40,22.65 z" id="p3250" style="fill:#c8d6ba;fill-opacity:0.33;fill-rule:evenodd;stroke:none;"/>
<path d="M 13.51,12.88 C 10.32,15.51 10.51,23.21 11.26,24.15 C 12.01,25.09 18.40,29.41 24.40,25.65 C 30.41,21.90 25.72,17.95 27.60,17.39 C 29.47,16.83 33.42,19.08 33.98,17.20 C 34.54,15.32 31.54,11.76 30.23,11.76 C 28.91,11.76 23.65,12.88 21.21,12.88 C 18.77,12.88 14.83,11.38 13.51,12.88 z" id="p3257" style="fill:#77844e;fill-opacity:0.42;fill-rule:evenodd;stroke:none;"/>
<path d="M 32.85,14.76 C 29.47,16.45 31.54,21.71 32.29,24.34 C 33.04,26.97 31.54,28.84 32.48,29.97 C 33.42,31.10 34.36,32.04 35.67,31.28 C 36.98,30.53 38.30,23.96 37.74,21.52 C 37.17,19.08 35.11,13.82 32.85,14.76 z" id="p3255" style="fill:#c7d18b;fill-opacity:0.39;fill-rule:evenodd;stroke:none;"/>
<path d="M 10,11.37 C 9.00,12.37 8.20,13.55 7.65,14.90 C 7.00,16.50 6.54,18.09 6.25,19.68 C 6.85,24.88 7.95,28.39 9.93,28.28 C 13.12,28.09 10.31,21.90 10.68,19.28 C 11.06,16.65 15.21,14.93 15.21,13.25 C 15.21,12.19 11.71,12.15 10.03,11.37 C 10.02,11.38 10.00,11.36 10,11.37 z" id="p3259" style="fill:#d6e0b2;fill-opacity:0.53;fill-rule:evenodd;stroke:none;"/>
<path d="M 24.28,6.28 C 20.63,6.38 16.70,7.16 13.5,8.84 C 13.49,8.84 13.47,8.83 13.46,8.84 C 13.32,9.18 13.23,9.41 13.15,9.37 C 8.43,12.74 15.34,14.25 23.78,12.90 C 32.03,11.58 38.98,12.35 34.53,8.43 C 34.32,8.29 34.11,8.15 33.90,8.03 C 31.90,6.84 28.26,6.16 24.28,6.28 z" id="p3285" style="fill:#e4e5b2;fill-opacity:0.54;fill-rule:evenodd;stroke:none;"/>
<path d="M 19.71,11.61 C 19.71,11.61 19.22,10.75 18.48,10.42 C 17.74,10.09 19.67,9.10 20.82,9.10 C 21.97,9.10 22.54,10.34 23.36,10.34 C 24.18,10.34 24.84,10.54 25.17,10.21 C 25.50,9.88 26.28,9.92 25.74,10.50 C 25.21,11.07 20.53,11.44 20.04,11.53 C 19.54,11.61 19.75,11.61 19.71,11.61 z" id="p3424" style="fill:#555b12;fill-opacity:0.34;fill-rule:evenodd;stroke:none;"/>
<path d="M 20.46,27.72 C 17.64,31.47 22.53,34.85 24.03,35.41 C 25.53,35.98 27.78,39.92 30.04,38.79 C 32.29,37.67 36.05,34.48 35.29,32.04 C 34.54,29.59 29.10,26.21 25.72,26.40 C 22.34,26.59 20.46,27.90 20.46,27.72 z" id="p3298" style="fill:#bde099;fill-opacity:0.14;fill-rule:evenodd;stroke:none;"/>
<path d="M 19.45,11.44 C 19.45,11.44 17.50,9.80 15.66,10.11 C 13.82,10.42 10.64,11.44 12.49,12.16 C 14.33,12.88 22.93,13.08 24.26,12.67 C 25.59,12.26 29.38,11.24 29.59,10.83 C 29.79,10.42 29.48,8.98 30.20,8.98 C 30.92,8.98 30.40,8.17 29.89,8.27 C 29.38,8.37 26.41,9.09 26.41,9.60 C 26.41,10.11 26.31,10.93 23.54,11.44 C 20.78,11.95 19.96,11.44 19.45,11.44 z" id="p3357" style="fill:#f7f7d7;fill-opacity:0.76;fill-rule:evenodd;stroke:none;"/>
<path d="M 33.84,8.03 C 33.10,8.30 32.33,8.50 31.53,8.46 C 29.38,8.36 28.14,8.16 28.25,9.18 C 27.43,10.21 31.63,13.17 32.65,13.28 C 33.68,13.38 34.59,12.17 35.71,12.68 C 36.37,12.98 38.30,14.06 39.81,14.62 C 38.32,11.52 36.04,9.29 33.90,8.03 C 33.89,8.02 33.88,8.03 33.87,8.03 C 33.86,8.03 33.85,8.02 33.84,8.03 z" id="p3359" style="fill:#f7f7d7;fill-opacity:0.32;fill-rule:evenodd;stroke:none;"/>
<path d="M 24.28,6.28 C 21.17,6.37 17.86,6.98 14.96,8.18 C 15.72,8.31 17.04,8.06 21.34,7.53 C 27.48,6.77 28.97,8.64 31.09,6.96 C 29.17,6.47 26.80,6.20 24.28,6.28 z" id="p3372" style="fill:#e8f7d7;fill-opacity:0.68;fill-rule:evenodd;stroke:none;"/>
<path d="M 19.33,11.44 C 21.17,11.58 24.36,11.30 26.07,10.76 C 27.77,10.21 25.79,10.56 25.79,10.56 C 25.79,10.56 26.61,9.67 27.22,9.40 C 27.84,9.13 24.64,8.51 23.21,8.65 C 21.78,8.79 20.66,8.76 19.74,8.58 C 19.24,8.49 18.14,8.57 17.58,8.61 C 15.92,8.73 18.36,9.51 18.81,10.53 C 19.03,11.04 19.74,11.24 19.33,11.44 z" id="p3377" style="fill:#374015;fill-opacity:0.46;fill-rule:evenodd;stroke:none;"/>
<path d="M 32.18,7.34 C 29.66,7.64 26.73,8.19 25.68,8.96 C 24.00,10.20 24.02,10.19 24.46,10.53 C 24.91,10.86 25.36,10.64 25.25,10.53 C 27.26,9.40 32.76,8.17 34.78,9.18 C 35.84,9.71 36.73,10.46 37.40,10.96 C 36.29,9.72 35.07,8.72 33.90,8.03 C 33.45,7.76 32.88,7.55 32.28,7.34 C 32.24,7.34 32.21,7.33 32.18,7.34 z" id="p3399" style="fill:#6c771b;fill-opacity:0.38;fill-rule:evenodd;stroke:none;"/>
<path d="M 20.39,7.92 C 20.93,8.15 22.73,9.27 23.00,10.44 C 23.27,11.61 23.00,11.56 23.00,11.56 L 21.06,11.56 C 21.06,11.56 20.62,9.90 19.85,9.50 C 19.09,9.09 20.26,9.05 20.57,8.82 C 20.88,8.60 20.35,8.15 20.08,8.06 C 19.81,7.97 20.44,7.88 20.39,7.92 z" id="p3416" style="fill:#374015;fill-opacity:0.34;fill-rule:evenodd;stroke:none;"/>
<path d="M 20.00,7.87 C 16.57,8.22 13.60,10.15 20.20,8.86 C 21.45,8.61 21.64,8.94 22.38,9.23 C 23.12,9.51 24.02,10.54 25.01,9.60 C 25.99,8.65 25.87,7.95 25.33,7.79 C 24.80,7.62 20.08,7.83 20.00,7.87 z" id="p3418" style="fill:#bcd17b;fill-opacity:0.42;fill-rule:evenodd;stroke:none;"/>
<path d="M 18.15,9.76 C 19.17,10.09 19.54,10.58 19.87,10.83 C 20.20,11.07 20.49,11.49 20.49,11.49 L 19.67,11.49 C 19.67,11.49 19.58,11.03 19.05,10.62 C 18.52,10.21 17.61,10.17 17.78,10.01 C 17.94,9.84 18.15,9.76 18.15,9.76 z" id="p3422" style="fill:#374015;fill-opacity:0.28;fill-rule:evenodd;stroke:none;"/>
<path d="M 13.79,41.05 C 6.76,35.18 3.57,24.96 7.65,14.89 C 11.53,5.31 28.56,4.87 33.90,8.04 C 38.40,10.72 43.69,17.47 40.39,28.24 C 37.10,39.01 31.05,41.50 29.72,42.48 C 28.38,43.46 18.77,44.35 13.79,41.05 z" id="stroke01" style="opacity:1;fill:none;fill-opacity:1;fill-rule:evenodd;stroke:#1a3b0a;stroke-width:0.5;stroke-linecap:butt;stroke-linejoin:miter;stroke-miterlimit:4;stroke-dasharray:none;stroke-opacity:1"/>
<path d="M 22.79,11.44 C 22.77,9.87 23.02,7.74 23.06,6.79 C 23.10,5.84 22.94,4.70 23.33,4.45 C 23.72,4.20 24.86,4.12 24.90,4.70 C 24.94,5.28 24.45,5.78 24.28,5.94 C 24.11,6.11 23.95,6.04 23.85,7.89 C 23.74,9.73 23.68,11.36 23.68,11.36 C 23.68,11.36 23.31,11.42 22.79,11.44 z" id="p3405" style="fill:#4f380c;fill-opacity:1;fill-rule:evenodd;stroke:none;"/>
<path d="M 24.25,4.28 C 23.91,4.26 23.54,4.34 23.34,4.46 C 23.09,4.62 23.05,5.17 23.06,5.78 C 23.26,6.08 23.54,6.25 24.03,6.25 C 24.03,6.24 24.06,6.25 24.06,6.25 C 24.13,6.06 24.20,6.01 24.28,5.93 C 24.44,5.77 24.94,5.29 24.90,4.71 C 24.88,4.42 24.58,4.30 24.25,4.28 z" id="p3407" style="fill:#000000;fill-opacity:0.50;fill-rule:evenodd;stroke:none;"/>
<path d="M 22.79,11.44 C 22.77,9.87 23.02,7.74 23.06,6.79 C 23.10,5.84 22.94,4.70 23.33,4.45 C 23.72,4.20 24.86,4.12 24.90,4.70 C 24.94,5.28 24.45,5.78 24.28,5.94 C 24.11,6.11 23.95,6.04 23.85,7.89 C 23.74,9.73 23.68,11.36 23.68,11.36" id="stroke02" style="fill:none;fill-opacity:1;fill-rule:evenodd;stroke:#1b1608;stroke-width:0.30;stroke-linecap:butt;stroke-linejoin:miter;stroke-miterlimit:4;stroke-dasharray:none;stroke-opacity:1;display:inline"/>
<path d="M 18.47,11.46 C 19.57,11.51 22.96,11.56 23.64,11.41 C 24.32,11.25 26.82,10.67 27.08,10.41 C 27.35,10.15 27.50,10.05 27.50,10.05" id="p3414" style="fill:none;fill-rule:evenodd;stroke:#ffffed;stroke-width:0.5;stroke-linecap:round;stroke-linejoin:miter;stroke-miterlimit:4;stroke-dasharray:none;stroke-opacity:1"/>
</g>
</svg>
