<?xml version="1.0" encoding="UTF-8" standalone="no"?>
<!DOCTYPE svg PUBLIC "-//W3C//DTD SVG 1.0//EN" "http://www.w3.org/TR/2001/REC-SVG-20010904/DTD/svg10.dtd">
<svg xmlns:svg="http://www.w3.org/2000/svg" xmlns="http://www.w3.org/2000/svg" xmlns:xlink="http://www.w3.org/1999/xlink" version="1.0" width="100%" height="100%" viewBox="0 0 48 48" id="_apricot">
<defs id="defs2385"/>
<g id="apricot" style="display:inline">
<path d="M 11.81,6.51 C 4.39,11.65 4.08,24.37 6.66,31.79 C 9.23,39.21 16.20,46.03 24.98,42.70 C 33.46,41.33 39.21,38.15 41.64,31.79 C 44.06,25.43 43.91,20.13 42.85,16.50 C 41.79,12.87 38.61,7.72 34.22,6.51 C 29.82,5.29 26.34,4.69 22.71,3.78 C 19.07,2.87 12.56,5.60 11.81,6.51 z" id="p2466" style="fill:#f99425;fill-opacity:1;fill-rule:evenodd;stroke:none;"/>
<path d="M 32.56,6.06 C 29.99,6.22 27.90,6.77 26.56,7.21 C 26.35,8.04 22.64,10.29 19.96,9.46 C 18.32,11.32 24.92,10.91 27.18,9.46 C 29.45,8.02 33.78,7.81 35.43,10.90 C 37.08,13.99 31.51,10.92 30.28,12.15 C 26.77,13.59 26.57,18.76 30.28,22.46 C 33.98,26.17 36.24,27.38 35.21,32.12 C 34.65,34.73 31.65,39.64 26.62,42.40 C 34.19,40.90 39.36,37.74 41.62,31.81 C 44.04,25.45 43.90,20.13 42.84,16.5 C 41.78,12.86 38.60,7.71 34.21,6.5 C 33.63,6.33 33.11,6.20 32.56,6.06 z" id="p3243" style="fill:#fdc07e;fill-opacity:0.31;fill-rule:evenodd;stroke:none;display:inline"/>
<path d="M 22.09,6.81 C 19.09,6.63 14.84,7.51 13.25,9.10" id="p3279" style="opacity:1;fill:none;fill-opacity:1;fill-rule:evenodd;stroke:#ffb436;stroke-width:6.19;stroke-linecap:round;stroke-linejoin:miter;marker:none;stroke-miterlimit:4;stroke-dasharray:none;stroke-dashoffset:0;stroke-opacity:0.67;visibility:visible;display:inline;overflow:visible;enable-background:accumulate"/>
<path d="M 20.71,4.68 C 18.44,4.66 15.76,5.03 13.12,5.65 C 12.46,5.98 11.98,6.29 11.81,6.5 C 4.39,11.64 4.08,24.39 6.65,31.81 C 8.71,37.74 13.58,43.24 19.93,43.53 C 15.45,38.70 14.40,31.73 18.53,35.03 C 23.68,39.15 25.94,33.36 25.12,26.15 C 24.30,18.94 30.07,9.47 25.75,5.96 C 24.66,5.09 22.87,4.71 20.71,4.68 z" id="p3247" style="fill:#c67103;fill-opacity:0.53;fill-rule:evenodd;stroke:none;display:inline"/>
<path d="M 24.62,19.12 C 25.25,22.62 27.87,27.25 29.12,28" id="p3272" style="opacity:1;fill:none;fill-opacity:1;fill-rule:evenodd;stroke:#ffb436;stroke-width:10.19;stroke-linecap:round;stroke-linejoin:miter;marker:none;stroke-miterlimit:4;stroke-dasharray:none;stroke-dashoffset:0;stroke-opacity:0.28;visibility:visible;display:inline;overflow:visible;enable-background:accumulate"/>
<path d="M 21.21,3.59 C 17.52,3.51 12.47,5.70 11.81,6.5 C 4.39,11.64 4.08,24.39 6.65,31.81 C 7.87,35.31 10.07,38.64 12.96,40.87 C 7.72,32.90 6.74,24.44 7.21,21.43 C 7.83,17.52 8.24,9.90 12.78,7.84 C 17.31,5.78 16.69,9.87 17.31,9.87 C 20.40,9.25 19.14,7.41 21,6.59 C 22.03,6.13 26.86,5.25 32,5.93 C 28.62,5.09 25.70,4.52 22.71,3.78 C 22.26,3.66 21.74,3.60 21.21,3.59 z" id="p3245" style="fill:#ebc595;fill-opacity:0.53;fill-rule:evenodd;stroke:none;display:inline"/>
<path d="M 17.30,9.27 C 13.59,16.68 12.36,22.66 13.18,29.25 C 14.00,35.84 19.25,41.07 22.34,42.10" id="p3261" style="opacity:1;fill:none;fill-opacity:1;fill-rule:evenodd;stroke:#ff9236;stroke-width:2.40;stroke-linecap:round;stroke-linejoin:miter;marker:none;stroke-miterlimit:4;stroke-dasharray:none;stroke-dashoffset:0;stroke-opacity:0.62;visibility:visible;display:inline;overflow:visible;enable-background:accumulate"/>
<path d="M 31.78,5.87 C 29.10,6.46 26.89,7.26 26.5,7.65 C 26.62,7.78 25.62,8.62 25.75,8.5 C 35.03,5.40 43.18,12.33 40.21,27.31 C 39.04,33.22 35.30,37.80 31.18,41.18 C 36.29,39.40 39.85,36.46 41.62,31.81 C 44.04,25.45 43.90,20.13 42.84,16.5 C 41.78,12.86 38.60,7.71 34.21,6.5 C 33.36,6.26 32.57,6.07 31.78,5.87 z" id="p3263" style="opacity:1;fill:#fdc07e;fill-opacity:0.45;fill-rule:evenodd;stroke:none;marker:none;visibility:visible;display:inline;overflow:visible;enable-background:accumulate"/>
<path d="M 30.94,15.81 C 32.06,16.68 34.66,19.65 35.77,21.63" id="p3268" style="opacity:1;fill:none;fill-opacity:1;fill-rule:evenodd;stroke:#ffd37e;stroke-width:5.30;stroke-linecap:round;stroke-linejoin:miter;marker:none;stroke-miterlimit:4;stroke-dasharray:none;stroke-dashoffset:0;stroke-opacity:0.20;visibility:visible;display:inline;overflow:visible;enable-background:accumulate"/>
<path d="M 37.13,16.55 C 37.87,19.77 38.49,26.95 33.91,33.76" id="p3270" style="opacity:1;fill:none;fill-opacity:1;fill-rule:evenodd;stroke:#ffcd78;stroke-width:9.10;stroke-linecap:round;stroke-linejoin:miter;marker:none;stroke-miterlimit:4;stroke-dasharray:none;stroke-dashoffset:0;stroke-opacity:0.20;visibility:visible;display:inline;overflow:visible;enable-background:accumulate"/>
<path d="M 43.5,23.68 C 40.26,29.81 36.24,35.66 28.09,38.28 C 19.54,41.02 20.99,43.21 8.96,36.46 C 12.38,41.70 18.10,45.29 24.96,42.68 C 33.44,41.32 39.20,38.17 41.62,31.81 C 42.75,28.85 43.31,26.12 43.5,23.68 z" id="p3274" style="opacity:1;fill:#fdc07e;fill-opacity:0.31;fill-rule:evenodd;stroke:none;marker:none;visibility:visible;display:inline;overflow:visible;enable-background:accumulate"/>
<path d="M 14.5,15.5 C 13.75,17.5 12.75,22.62 13,24.12" id="p3281" style="opacity:1;fill:none;fill-opacity:1;fill-rule:evenodd;stroke:#ffcd78;stroke-width:1.20;stroke-linecap:round;stroke-linejoin:miter;marker:none;stroke-miterlimit:4;stroke-dasharray:none;stroke-dashoffset:0;stroke-opacity:0.20;visibility:visible;display:inline;overflow:visible;enable-background:accumulate"/>
<path d="M 15.62,12.37 C 16.37,11.12 17.37,8.99 18.62,8.87" id="p3283" style="opacity:1;fill:none;fill-opacity:1;fill-rule:evenodd;stroke:#ffcd78;stroke-width:1.20;stroke-linecap:round;stroke-linejoin:miter;marker:none;stroke-miterlimit:4;stroke-dasharray:none;stroke-dashoffset:0;stroke-opacity:0.20;visibility:visible;display:inline;overflow:visible;enable-background:accumulate"/>
<path d="M 18.5,7.24 C 20.12,6.99 22.62,6.87 23.75,7.12" id="p3285" style="opacity:1;fill:none;fill-opacity:1;fill-rule:evenodd;stroke:#eea830;stroke-width:4.90;stroke-linecap:round;stroke-linejoin:miter;marker:none;stroke-miterlimit:4;stroke-dasharray:none;stroke-dashoffset:0;stroke-opacity:0.62;visibility:visible;display:inline;overflow:visible;enable-background:accumulate"/>
<path d="M 13.62,9.37 C 14.87,9.12 17.37,8.74 18.75,9.24" id="p3287" style="opacity:1;fill:none;fill-opacity:1;fill-rule:evenodd;stroke:#ffcd78;stroke-width:1.79;stroke-linecap:round;stroke-linejoin:miter;marker:none;stroke-miterlimit:4;stroke-dasharray:none;stroke-dashoffset:0;stroke-opacity:0.36;visibility:visible;display:inline;overflow:visible;enable-background:accumulate"/>
<path d="M 23.25,9.87 C 27.75,9.99 28,6.87 30.87,7.12" id="p3289" style="opacity:1;fill:none;fill-opacity:1;fill-rule:evenodd;stroke:#ffcd78;stroke-width:1.79;stroke-linecap:round;stroke-linejoin:miter;marker:none;stroke-miterlimit:4;stroke-dasharray:none;stroke-dashoffset:0;stroke-opacity:0.36;visibility:visible;display:inline;overflow:visible;enable-background:accumulate"/>
<path d="M 15.87,6.12 C 17,5.87 19.87,5.99 20.87,6.37" id="p3291" style="opacity:1;fill:none;fill-opacity:1;fill-rule:evenodd;stroke:#ffcd78;stroke-width:2.59;stroke-linecap:round;stroke-linejoin:miter;marker:none;stroke-miterlimit:4;stroke-dasharray:none;stroke-dashoffset:0;stroke-opacity:0.36;visibility:visible;display:inline;overflow:visible;enable-background:accumulate"/>
<path d="M 26.34,6.51 C 27.55,7.41 25.89,8.63 24.07,9.08 C 22.25,9.53 19.23,8.63 17.41,11.05 C 15.59,13.47 13.32,25.13 15.14,31.19 C 16.95,37.24 21.62,42.72 24.10,42.51" id="p2468" style="opacity:1;fill:none;fill-opacity:1;fill-rule:evenodd;stroke:#d86100;stroke-width:0.60;stroke-linecap:round;stroke-linejoin:miter;marker:none;stroke-miterlimit:4;stroke-dasharray:none;stroke-dashoffset:0;stroke-opacity:0.63;visibility:visible;display:inline;overflow:visible;enable-background:accumulate"/>
<path d="M 11.81,6.51 C 4.39,11.65 4.08,24.37 6.66,31.79 C 9.23,39.21 16.20,46.03 24.98,42.70 C 33.46,41.33 39.21,38.15 41.64,31.79 C 44.06,25.43 43.91,20.13 42.85,16.50 C 41.79,12.87 38.61,7.72 34.22,6.51 C 29.82,5.29 26.34,4.69 22.71,3.78 C 19.07,2.87 12.56,5.60 11.81,6.51 z" id="stroke01" style="fill:none;fill-opacity:1;fill-rule:evenodd;stroke:#68301c;stroke-width:0.5;stroke-linecap:butt;stroke-linejoin:miter;stroke-miterlimit:4;stroke-dasharray:none;stroke-opacity:1"/>
</g>
</svg>
