<?xml version="1.0" encoding="UTF-8" standalone="no"?>
<!DOCTYPE svg PUBLIC "-//W3C//DTD SVG 1.0//EN" "http://www.w3.org/TR/2001/REC-SVG-20010904/DTD/svg10.dtd">
<svg xmlns:svg="http://www.w3.org/2000/svg" xmlns="http://www.w3.org/2000/svg" version="1.0" width="100%" height="100%" viewBox="0 0 48 48" id="_aubergine01">
<defs/>
<g id="layer4" style="display:inline">
<path d="M 5.73,39.59 C 0.79,32.17 5.14,26.24 9.89,21.88 14.63,17.53 20.86,15.06 24.03,12.29 27.19,9.52 30.26,8.24 30.56,8.24 31.05,7.05 33.52,6.55 34.12,6.75 34.71,6.36 36.49,5.66 37.68,6.65 38.57,5.66 38.86,4.87 39.56,4.38 40.25,3.88 42.62,5.27 42.13,6.46 41.63,7.64 41.04,8.93 40.94,9.72 c 1.48,0.89 2.37,3.16 2.07,4.64 -0.29,1.48 -0.69,2.17 -0.69,3.06 0,0.89 -1.08,4.35 -2.37,6.82 -1.28,2.47 -6.82,11.86 -14.14,16.31 -7.31,4.45 -14.83,4.94 -20.07,-0.98 z" id="path4747" style="fill:#311d29;fill-opacity:1;stroke:none" />
<path d="M 39.90,4.28 C 39.77,4.28 39.64,4.31 39.56,4.37 38.87,4.86 38.57,5.66 37.68,6.65 36.50,5.66 34.71,6.35 34.12,6.75 33.53,6.55 31.05,7.06 30.56,8.25 30.26,8.25 27.19,9.51 24.03,12.28 20.86,15.05 14.62,17.52 9.87,21.87 5.12,26.22 0.80,32.17 5.75,39.59 c 5.24,5.93 12.74,5.45 20.06,1 7.31,-4.45 12.87,-13.87 14.15,-16.34 1.28,-2.47 2.37,-5.92 2.37,-6.81 0,-0.89 0.39,-1.57 0.68,-3.06 0.29,-1.48 -0.61,-3.76 -2.09,-4.65 0.09,-0.79 0.69,-2.06 1.18,-3.25 0.43,-1.03 -1.30,-2.23 -2.21,-2.18 z M 35.56,8.31 c 0.74,0.01 1.43,0.17 2.12,0.5 3.67,1.72 4.03,6.42 0.81,12.28 -3.21,5.86 -8.39,13.90 -12.53,16.43 C 21.83,40.05 13.91,46.39 6.56,39.5 2.31,32.48 4.47,28.91 8.84,25.12 c 4.36,-3.79 7.82,-3.78 14.37,-9.53 5.32,-4.66 9.13,-7.35 12.34,-7.28 z" id="path5307" style="fill:#bba7b5;fill-opacity:0.42;stroke:none" />
<path d="M 8.81,22.93 C 4.53,27.17 1.18,32.74 5.75,39.59 c 5.24,5.93 12.74,5.45 20.06,1 5.11,-3.10 9.31,-8.61 11.84,-12.5 -9.51,9.73 -22.95,8.13 -26.31,5.71 C 8.67,31.89 8.19,27.31 8.81,22.93 z" id="path5352" style="color:#000000;fill:#27121f;fill-opacity:0.28;fill-rule:nonzero;stroke:none;stroke-width:1px;marker:none;visibility:visible;display:inline;overflow:visible;enable-background:accumulate" />
<path d="M 39.90,4.28 C 39.77,4.28 39.64,4.31 39.56,4.37 38.87,4.86 38.57,5.66 37.68,6.65 36.66,5.80 35.23,6.21 34.46,6.59 34.38,15.14 33.02,25.71 24.43,30.18 14.14,35.55 9.32,38.27 7.53,41.28 12.61,45.35 19.28,44.56 25.81,40.59 33.13,36.14 38.68,26.72 39.96,24.25 c 1.28,-2.47 2.37,-5.92 2.37,-6.81 0,-0.89 0.39,-1.57 0.68,-3.06 0.29,-1.48 -0.61,-3.76 -2.09,-4.65 0.09,-0.79 0.69,-2.06 1.18,-3.25 0.43,-1.03 -1.30,-2.23 -2.21,-2.18 z" id="path5327" style="fill:#27121f;fill-opacity:0.56;stroke:none" />
<path d="m 29.65,13.17 c -2.87,0.45 -7.12,4.82 -10.34,7.24 -3.21,2.41 -8.15,3.56 -9.53,8.61 -1.37,5.05 -1.60,7.24 1.49,6.20 3.10,-1.03 4.59,-2.75 7.47,-2.98 2.87,-0.22 8.84,-7.12 10.45,-10.91 1.60,-3.79 2.75,-7.24 0.45,-8.15 z" id="path5284" style="color:#000000;fill:#bba7b5;fill-opacity:0.27;fill-rule:nonzero;stroke:none;stroke-width:1px;marker:none;visibility:visible;display:inline;overflow:visible;enable-background:accumulate" />
<path d="M 39.90,4.28 C 39.77,4.28 39.64,4.31 39.56,4.37 c -0.69,0.49 -0.98,1.29 -1.87,2.28 -1.03,-0.86 -2.49,-0.44 -3.25,-0.06 -4.71,13.05 -17.86,23.98 -22.56,26.68 -3.85,2.21 -6.95,0.36 -7.84,-3.18 -0.77,2.52 -0.66,5.31 1.03,8.37 1.51,1.45 3.34,2.76 5.56,3.71 9.52,4.08 19.31,-5.92 25.12,-13.71 3.19,-4.27 5.68,-9.98 7.31,-14.28 0.19,-1.48 -0.70,-3.61 -2.12,-4.46 0.09,-0.79 0.69,-2.06 1.18,-3.25 0.43,-1.03 -1.30,-2.23 -2.21,-2.18 z" id="path5413" style="fill:#240f1b;fill-opacity:0.58;stroke:none" />
<path d="m 39.83,21.27 c -2.22,4.94 -4.45,9.52 -10.63,15.21" id="path5416" style="fill:none;stroke:#f7cbe8;stroke-width:2.40;stroke-linecap:round;stroke-linejoin:miter;stroke-miterlimit:4;stroke-opacity:0.07;stroke-dasharray:none" />
<path d="m 41.23,19.25 c -2.42,5.65 -5.65,11.58 -10.42,16.25 -4.76,4.67 -8.98,7.18 -14.19,7.81" id="path5418" style="fill:none;stroke:#be96b4;stroke-width:1.5;stroke-linecap:round;stroke-linejoin:miter;stroke-miterlimit:4;stroke-opacity:0.11;stroke-dasharray:none" />
<path d="M 27.55,17.37 C 22.83,20.88 13.72,28.67 11.52,31.75" id="path5420" style="fill:none;stroke:#ce9dbb;stroke-width:2.40;stroke-linecap:butt;stroke-linejoin:miter;stroke-miterlimit:4;stroke-opacity:0.07;stroke-dasharray:none;display:inline" />
<path d="M 10.86,32.52 C 17.23,28.35 25.57,19.45 30.18,13.42" id="path5440" style="fill:none;stroke:#f1d9ec;stroke-width:4.5;stroke-linecap:round;stroke-linejoin:miter;stroke-miterlimit:4;stroke-opacity:0.07;stroke-dasharray:none" />
<path d="m 12.18,27.03 c -0.98,0.98 -2.63,2.74 -2.52,4.72" id="path5442" style="fill:none;stroke:#715068;stroke-width:3.59;stroke-linecap:round;stroke-linejoin:miter;stroke-miterlimit:4;stroke-opacity:0.31;stroke-dasharray:none" />
<path d="M 7.94,24.69 C 12.50,20.77 19.38,15.90 22.35,14.41 c 2.96,-1.48 5.72,-5.50 9.64,-5.93" id="path5444" style="color:#000000;fill:none;stroke:#d8a8cc;stroke-width:1.5;stroke-linecap:round;stroke-linejoin:miter;stroke-miterlimit:4;stroke-opacity:0.16;stroke-dasharray:none;stroke-dashoffset:0;marker:none;visibility:visible;display:inline;overflow:visible;enable-background:accumulate" />
<path d="m 11.28,30.66 c 2.44,-2.79 4.07,-4.18 6.63,-6.05" id="path5463" style="fill:none;stroke:#b779a0;stroke-width:4;stroke-linecap:round;stroke-linejoin:miter;stroke-miterlimit:4;stroke-opacity:0.20;stroke-dasharray:none" />
<path d="M 39.90,4.28 C 39.77,4.28 39.64,4.31 39.56,4.37 38.87,4.86 38.57,5.66 37.68,6.65 36.50,5.66 34.71,6.35 34.12,6.75 c -0.59,-0.19 -3.06,0.31 -3.56,1.5 -0.00,0 -0.02,-2.59e-4 -0.03,0 0.17,0.25 0.37,0.50 0.71,0.78 -1.28,2.07 -3.92,3.94 -4.06,4.18 -0.58,-0.14 -1.44,-0.62 -1.87,0.96 0.44,0.38 0.87,-1.29 1.59,0.09 0.53,1.03 3.64,-0.39 6.31,0 2.67,0.39 2.57,1.08 3.46,3.56 0.89,2.47 2.08,4.55 2.87,4.75 0.30,-0.30 1.16,-2.59 2.40,-3.56 0.19,-0.70 0.37,-1.30 0.37,-1.59 0,-0.89 0.39,-1.57 0.68,-3.06 0.29,-1.48 -0.61,-3.76 -2.09,-4.65 0.09,-0.79 0.69,-2.06 1.18,-3.25 0.43,-1.03 -1.30,-2.23 -2.21,-2.18 z" id="path4749" style="fill:#6f7d40;fill-opacity:1;stroke:none" />
<path d="m 30.62,12.31 c -0.97,0.67 -2.54,1.02 -3.93,1.65 0.06,0.08 0.14,0.16 0.21,0.31 0.51,0.98 3.35,-0.25 5.93,-0.03 -1.01,-0.55 -1.83,-1.44 -2.21,-1.93 z" id="path5473" style="fill:#c8c447;fill-opacity:0.36;stroke:none;display:inline" />
<path d="M 39.26,6.17 37.21,8.59" id="path5465" style="fill:none;stroke:#eff57f;stroke-width:1.70;stroke-linecap:butt;stroke-linejoin:miter;stroke-miterlimit:4;stroke-opacity:0.56;stroke-dasharray:none;display:inline" />
<path d="M 38.12,6.12 C 37.99,6.29 37.85,6.46 37.68,6.65 36.50,5.66 34.71,6.35 34.12,6.75 c -0.59,-0.19 -3.06,0.31 -3.56,1.5 -0.00,0 -0.02,-2.59e-4 -0.03,0 0.17,0.25 0.37,0.50 0.71,0.78 -0.73,1.18 -1.88,2.27 -2.78,3.06 2.09,-0.86 3.33,-1.35 3.90,-1.87 0.73,-0.65 1.98,-0.54 2.93,-0.68 -0.58,-0.14 -2.36,-0.49 -2,-0.93 0.36,-0.43 2.59,-0.20 3.25,-0.71 0.41,-0.32 1.12,-0.81 1.56,-1.75 z" id="path5467" style="fill:#dae58a;fill-opacity:0.55;stroke:none;display:inline" />
<path d="m 41,9.75 c -0.08,0.34 -0.10,0.79 0.03,1.40 0.24,1.10 1.05,2.70 1.81,4.06 0.06,-0.25 0.12,-0.52 0.18,-0.84 C 43.32,12.91 42.44,10.66 41,9.75 z" id="path5469" style="fill:#c4c8a7;fill-opacity:0.55;stroke:none;display:inline" />
<path d="m 37.65,9.90 c -0.29,0.65 -1.55,0.50 -1.18,1.75 0,0 2.76,5.83 3.06,10.90 6.11e-4,0.01 -5.9e-4,0.02 0,0.03 0.00,0.00 0.02,-0.00 0.03,0 0.13,-0.13 0.40,-0.69 0.75,-1.34 0.23,-2.27 0.37,-4.89 0.12,-5.84 -0.58,-2.19 -1.24,-3.88 -0.87,-4.46 -0.43,-0.58 -1.46,-0.22 -1.90,-1.03 z" id="path5471" style="fill:#9ca36c;fill-opacity:0.55;stroke:none;display:inline" />
<path d="M 39.90,4.28 C 39.77,4.28 39.64,4.31 39.56,4.37 c -0.12,0.08 -0.23,0.20 -0.34,0.31 -0.14,0.43 -0.07,0.87 0.21,1.12 0.54,0.46 0.95,0.75 0.65,1.21 -0.29,0.46 -1.48,2.57 -1.56,2.84 0.29,0.24 1.34,0.63 1.59,0.78 0.16,-0.56 0.53,-2.06 1.56,-3.12 0.14,-0.35 0.29,-0.70 0.43,-1.06 0.43,-1.03 -1.30,-2.23 -2.21,-2.18 z" id="path5525" style="fill:#505a2e;fill-opacity:0.68;stroke:none;display:inline" />
<path d="m 40.37,4.34 c -0.58,0.24 -0.69,0.91 0,1.46 0.57,0.45 1.45,0.54 1.78,0.18 0.00,-0.00 -0.00,-0.02 0,-0.03 C 42.03,5.24 41.13,4.55 40.37,4.34 z" id="path5475" style="fill:#c1a55c;fill-opacity:1;stroke:none;display:inline" />
<path d="m 38.23,11.16 c -0.29,0.22 -1.05,1.72 -1.20,2.11" id="path5527" style="fill:none;stroke:#abc2a9;stroke-width:2;stroke-linecap:butt;stroke-linejoin:miter;stroke-miterlimit:4;stroke-opacity:0.22;stroke-dasharray:none;display:inline" />
<path d="m 30.70,12.84 c 0,0 1.35,-0.59 1.64,-0.78" id="path5529" style="fill:none;stroke:#809b50;stroke-width:1px;stroke-linecap:butt;stroke-linejoin:miter;stroke-opacity:0.83;display:inline" />
<path d="m 31.17,9.78 c 0.24,-0.39 1.03,-0.64 1.20,-0.68" id="path5531" style="fill:none;stroke:#dfe691;stroke-width:0.80;stroke-linecap:butt;stroke-linejoin:miter;stroke-miterlimit:4;stroke-opacity:0.60;stroke-dasharray:none;display:inline" />
<path d="m 30.89,8.48 c 0.29,-0.36 0.59,-0.64 0.96,-0.71" id="path5533" style="fill:none;stroke:#dfe691;stroke-width:1px;stroke-linecap:butt;stroke-linejoin:miter;stroke-opacity:0.60;display:inline" />
<path d="m 34.62,13.09 c -0.26,0.04 -0.43,0.91 -0.59,1.34 1.00,0.23 1.47,0.57 1.81,1.18 -0.28,-1.24 -0.65,-2.33 -1.06,-2.46 -0.05,-0.06 -0.10,-0.07 -0.15,-0.06 z" id="path5535" style="fill:#505a2e;fill-opacity:0.68;stroke:none;display:inline" />
<path d="m 37.81,17.93 c -0.19,0.03 -0.44,0.46 -0.68,1 0.67,1.60 1.43,2.93 2.06,3.43 -0.10,-0.85 -0.55,-3.13 -1.15,-4.25 -0.05,-0.13 -0.13,-0.20 -0.21,-0.18 z" id="path5537" style="fill:#505a2e;fill-opacity:0.68;stroke:none;display:inline" />
<path d="m 32.92,13.20 c 0.50,-0.03 2.44,-0.03 2.79,0.76" id="path5657" style="fill:none;stroke:#626f40;stroke-width:1px;stroke-linecap:butt;stroke-linejoin:miter;stroke-opacity:0.99" />
<path d="m 39.73,11.01 c -0.27,0.89 0.42,2.20 0.85,4.03 0.42,1.82 0.15,3.17 0.11,3.56" id="path5659" style="fill:none;stroke:#738349;stroke-width:1px;stroke-linecap:butt;stroke-linejoin:miter;stroke-opacity:0.80" />
<path d="M 5.73,39.59 C 0.79,32.17 5.14,26.24 9.89,21.88 14.63,17.53 20.86,15.06 24.03,12.29 27.19,9.52 30.26,8.24 30.56,8.24 c 0.49,-1.18 2.96,-1.68 3.56,-1.48 0.59,-0.39 2.37,-1.08 3.56,-0.09 0.89,-0.98 1.18,-1.78 1.87,-2.27 0.69,-0.49 3.06,0.89 2.57,2.07 -0.49,1.18 -1.08,2.47 -1.18,3.26 1.48,0.89 2.37,3.16 2.07,4.64 -0.29,1.48 -0.69,2.17 -0.69,3.06 0,0.89 -1.08,4.35 -2.37,6.82 -1.28,2.47 -6.82,11.86 -14.14,16.31 -7.31,4.45 -14.83,4.94 -20.07,-0.98 z" id="stroke01" style="fill:none;stroke:#2a1920;stroke-width:0.5;stroke-miterlimit:4;stroke-opacity:1;stroke-dasharray:none;display:inline" />
</g>
</svg>
