<?xml version="1.0" encoding="UTF-8" standalone="no"?>
<!DOCTYPE svg PUBLIC "-//W3C//DTD SVG 1.0//EN" "http://www.w3.org/TR/2001/REC-SVG-20010904/DTD/svg10.dtd">
<svg xmlns:svg="http://www.w3.org/2000/svg" xmlns="http://www.w3.org/2000/svg" version="1.0" width="100%" height="100%" viewBox="0 0 48 48" id="_banana01">
<defs id="defs2385"/>
<g id="banana01" style="display:inline">
<path d="M 2.63,32.52 C 4.76,38.56 11.53,41.02 16.97,41.20 C 21.29,41.34 30.16,40.13 35.88,35.67 C 40.43,32.11 45.41,24.79 44.29,18.33 C 43.78,15.42 40.51,14.25 39.55,9.47 C 39.46,9.05 40.42,9.30 39.86,7.62 C 39.42,6.29 39.45,4.70 38.83,4.60 C 38.21,4.50 37.46,4.52 36.84,4.42 C 36.96,5.29 36.87,6.07 36.46,6.79 C 35.94,6.18 35.74,6.38 35.22,6.90 C 35.28,7.17 35.27,7.87 35.74,8.75 C 35.08,8.80 35.12,9.27 35.33,9.99 C 35.53,10.71 36.05,10.71 36.15,11.63 C 36.25,12.56 36.56,13.80 36.15,15.14 C 35.43,16.37 35.33,16.89 34.50,18.84 C 33.68,20.80 32.66,24.26 26.78,27.81 C 22.40,30.44 16.78,30.59 14.62,30.28 C 12.46,29.97 8.44,29.97 7.21,29.97 C 5.97,29.97 4.23,29.59 3.84,30.02 C 3.65,30.24 3.62,30.45 3.56,30.51 C 3.39,30.67 3.12,30.76 3.04,30.97 C 2.96,31.17 2.98,31.51 2.90,31.71 C 2.81,31.92 2.47,32.09 2.63,32.52 z" id="p2465" style="fill:#c5921d;fill-opacity:1;fill-rule:evenodd;stroke:none;"/>
<path d="M 40,11.12 C 40.13,14.26 40.39,16.87 39.87,19.31 C 39.31,21.93 37.97,24.61 34.18,28.12 C 27.16,34.63 16.33,36.34 2.62,32.53 C 3.42,34.78 4.87,36.54 6.65,37.87 C 6.66,37.87 6.67,37.87 6.68,37.87 C 19.09,40.21 29.73,38.09 37.09,31.28 C 41.33,27.35 43.35,23.73 44.09,20.21 C 44.20,19.71 44.28,19.21 44.34,18.71 C 44.32,18.59 44.30,18.46 44.28,18.34 C 43.83,15.79 41.27,14.58 40,11.12 z" id="p3240" style="fill:#39420c;fill-opacity:0.11;fill-rule:evenodd;stroke:none;"/>
<path d="M 44.43,19.56 C 41.31,25.67 38.36,31.48 29.26,35.42 C 23.62,37.85 13.83,40.11 4.90,36.28 C 7.95,39.61 12.84,41.05 16.96,41.18 C 20.95,41.31 28.81,40.31 34.5,36.65 C 34.86,36.40 35.20,36.14 35.56,35.87 C 35.58,35.86 35.60,35.85 35.62,35.84 C 36.00,35.56 36.37,35.26 36.75,34.96 C 36.76,34.95 36.77,34.94 36.78,34.93 C 40.78,31.42 44.77,25.27 44.43,19.56 z" id="p3246" style="fill:#efedb7;fill-opacity:0.10;fill-rule:evenodd;stroke:none;display:inline"/>
<path d="M 35.84,6.43 C 35.66,6.47 35.47,6.64 35.21,6.90 C 35.27,7.18 35.28,7.86 35.75,8.75 C 35.09,8.80 35.13,9.27 35.34,10 C 35.54,10.72 36.05,10.69 36.15,11.62 C 36.25,12.55 36.56,13.81 36.15,15.15 C 35.43,16.39 35.32,16.88 34.5,18.84 C 33.67,20.80 32.66,24.26 26.78,27.81 C 22.40,30.44 16.78,30.59 14.62,30.28 C 12.46,29.97 8.45,29.96 7.21,29.96 C 5.98,29.96 4.23,29.59 3.84,30.03 C 3.65,30.24 3.62,30.43 3.56,30.5 C 3.48,30.57 3.40,30.62 3.31,30.68 C 8.30,32.83 15.22,34.56 24.18,32.06 C 34.33,29.23 36.80,19.45 37.15,17.09 C 37.51,14.73 38.34,11.31 37.87,10.25 C 37.66,9.77 36.78,8.09 35.90,6.43 C 35.88,6.43 35.86,6.43 35.84,6.43 z" id="p3267" style="fill:#f0c546;fill-opacity:1;fill-rule:evenodd;stroke:none;display:inline"/>
<path d="M 36.84,4.43 C 36.96,5.31 36.88,6.09 36.46,6.81 C 35.95,6.19 35.73,6.39 35.21,6.90 C 35.27,7.18 35.28,7.86 35.75,8.75 C 35.09,8.80 35.13,9.27 35.34,10 C 35.54,10.72 36.05,10.69 36.15,11.62 C 36.25,12.48 36.50,13.62 36.21,14.84 C 36.71,15.07 37.11,15.22 37.40,15.31 C 38.37,15.37 39.99,14.89 41.59,13.93 C 40.76,12.81 39.96,11.45 39.56,9.46 C 39.47,9.04 40.43,9.31 39.87,7.62 C 39.43,6.29 39.46,4.69 38.84,4.59 C 38.22,4.49 37.46,4.54 36.84,4.43 z" id="p3243" style="fill:#436418;fill-opacity:0.18;fill-rule:evenodd;stroke:none;display:inline"/>
<path d="M 32.84,22.25 C 31.77,23.92 30.05,25.84 26.78,27.81 C 23.02,30.07 18.36,30.49 15.75,30.37 C 23.00,34.87 26.70,36.64 13.96,40.87 C 14.98,41.05 15.99,41.15 16.96,41.18 C 21.29,41.32 30.15,40.12 35.87,35.65 C 37.98,34.00 40.19,31.55 41.84,28.75 C 36.51,33.01 33.65,32.75 32.84,22.25 z" id="p3273" style="fill:#f7de93;fill-opacity:0.11;fill-rule:evenodd;stroke:none;display:inline"/>
<path d="M 12.30,32.42 C 20.42,33.18 27.54,33.26 33.31,24.89" id="p3318" style="fill:none;fill-rule:evenodd;stroke:#e9c95d;stroke-width:1.89;stroke-linecap:round;stroke-linejoin:miter;stroke-miterlimit:4;stroke-dasharray:none;stroke-opacity:0.41"/>
<path d="M 2.96,31.31 C 2.95,31.45 2.95,31.60 2.90,31.71 C 2.82,31.92 2.47,32.09 2.62,32.53 C 4.02,36.49 7.41,38.90 11.12,40.15 C 10.47,38.45 9.63,36.81 8.31,35.31 C 7.01,33.84 5.28,32.54 2.96,31.31 z" id="p3279" style="fill:#404e05;fill-opacity:0.10;fill-rule:evenodd;stroke:none;display:inline"/>
<path d="M 4.37,29.84 C 4.13,29.86 3.94,29.92 3.84,30.03 C 3.65,30.24 3.62,30.43 3.56,30.5 C 3.39,30.66 3.11,30.75 3.03,30.96 C 2.95,31.16 2.99,31.51 2.90,31.71 C 2.82,31.92 2.47,32.09 2.62,32.53 C 2.72,32.82 2.87,33.09 3,33.37 C 3.58,32.75 4.32,32.78 4.84,32.65 C 5.64,32.45 3.38,32.13 3.78,31.46 C 3.96,31.16 4.35,30.58 4.84,29.84 C 4.68,29.84 4.50,29.82 4.37,29.84 z" id="p3282" style="fill:#a2690a;fill-opacity:0.50;fill-rule:evenodd;stroke:none;display:inline"/>
<path d="M 9.89,31.59 C 13.95,32.25 18.86,32.52 22.98,30.99" id="p3285" style="fill:none;fill-rule:evenodd;stroke:#d0b10f;stroke-width:1px;stroke-linecap:round;stroke-linejoin:miter;stroke-opacity:0.24;display:inline"/>
<path d="M 42.65,21.12 C 41.93,21.21 41.29,21.66 40.96,22.31 C 37.20,29.23 32.34,31.87 32.34,31.87 C 31.60,32.22 31.12,32.96 31.09,33.78 C 31.06,34.59 31.47,35.37 32.18,35.78 C 32.89,36.18 33.77,36.15 34.46,35.71 C 34.46,35.71 37.73,33.89 41.18,29.78 C 42.82,27.28 44.03,24.45 44.34,21.62 C 43.87,21.23 43.27,21.04 42.65,21.12 z" id="p3299" style="fill:#cea43a;fill-opacity:0.40;fill-rule:evenodd;stroke:none;display:inline"/>
<path d="M 36.21,14.90 C 36.19,14.98 36.18,15.07 36.15,15.15 C 35.43,16.39 35.32,16.88 34.5,18.84 C 33.88,20.29 33.15,22.58 30.40,25.12 C 30.45,27.33 31.83,27.59 33.40,27.03 C 36.04,26.09 37.55,18.34 39.71,16.93 C 41.88,15.52 41.38,14.87 39.12,15.34 C 38.00,15.57 37.05,15.42 36.21,14.90 z" id="p3302" style="fill:#daba69;fill-opacity:0.27;fill-rule:evenodd;stroke:none;display:inline"/>
<path d="M 41.65,19.61 C 41.65,20.89 40.85,22.73 40.13,23.45" id="p3315" style="fill:none;fill-rule:evenodd;stroke:#593b09;stroke-width:5.5;stroke-linecap:round;stroke-linejoin:miter;stroke-miterlimit:4;stroke-dasharray:none;stroke-opacity:0.10;display:inline"/>
<path d="M 36.84,4.43 C 36.96,5.31 36.88,6.09 36.46,6.81 C 35.95,6.19 35.73,6.39 35.21,6.90 C 35.27,7.18 35.28,7.86 35.75,8.75 C 35.09,8.80 35.13,9.27 35.34,10 C 35.54,10.72 36.05,10.69 36.15,11.62 C 36.17,11.79 36.19,12.03 36.21,12.21 C 37.16,12.30 38.32,11.85 39.96,11.06 C 39.79,10.58 39.67,10.04 39.56,9.46 C 39.47,9.04 40.43,9.31 39.87,7.62 C 39.43,6.29 39.46,4.69 38.84,4.59 C 38.22,4.49 37.46,4.54 36.84,4.43 z" id="p3320" style="fill:#8a8f13;fill-opacity:0.35;fill-rule:evenodd;stroke:none;display:inline"/>
<path d="M 36.84,4.43 C 36.96,5.31 36.88,6.09 36.46,6.81 C 35.95,6.19 35.73,6.39 35.21,6.90 C 35.27,7.18 35.28,7.86 35.75,8.75 C 35.09,8.80 35.13,9.27 35.34,10 C 35.38,10.13 35.44,10.21 35.5,10.31 C 36.42,10.76 37.74,10.72 39.65,9.90 C 39.62,9.76 39.59,9.61 39.56,9.46 C 39.47,9.04 40.43,9.31 39.87,7.62 C 39.43,6.29 39.46,4.69 38.84,4.59 C 38.22,4.49 37.46,4.54 36.84,4.43 z" id="p3323" style="fill:#202104;fill-opacity:0.35;fill-rule:evenodd;stroke:none;display:inline"/>
<path d="M 36.84,4.43 C 36.96,5.31 36.88,6.09 36.46,6.81 C 35.95,6.19 35.73,6.39 35.21,6.90 C 35.27,7.18 35.28,7.86 35.75,8.75 C 35.39,8.77 35.25,8.94 35.21,9.18 C 35.27,9.21 35.34,9.22 35.40,9.25 C 36.45,9.59 37.22,9.81 37.5,9.81 C 37.64,9.81 38.70,9.43 39.75,9.15 C 39.96,8.98 40.23,8.70 39.87,7.62 C 39.43,6.29 39.46,4.69 38.84,4.59 C 38.22,4.49 37.46,4.54 36.84,4.43 z" id="p3326" style="fill:#664e18;fill-opacity:1;fill-rule:evenodd;stroke:none;display:inline"/>
<path d="M 36.84,4.43 C 36.96,5.31 36.88,6.09 36.46,6.81 C 35.95,6.19 35.73,6.39 35.21,6.90 C 35.27,7.18 35.28,7.86 35.75,8.75 C 35.27,8.78 35.16,9.05 35.21,9.46 C 36.34,9.53 37.83,9.53 38.18,9.31 C 38.74,8.96 38.60,8.13 38.81,7.43 C 38.93,7.03 38.74,5.99 38.09,4.53 C 37.66,4.50 37.23,4.50 36.84,4.43 z" id="p3329" style="fill:#925824;fill-opacity:1;fill-rule:evenodd;stroke:none;display:inline"/>
<path d="M 37.31,4.46 C 37.34,5.20 37.21,5.96 37.15,6.68 C 37.14,7.41 36.11,7.20 36.06,6.59 C 36.04,6.54 36.03,6.48 36.03,6.43 C 35.92,6.39 35.82,6.44 35.71,6.5 C 35.76,6.79 35.89,7.05 36.18,7.25 C 36.80,7.79 37.55,7.12 37.5,6.43 C 37.52,5.78 37.62,5.11 37.59,4.46 C 37.49,4.46 37.40,4.47 37.31,4.46 z M 37.90,4.5 C 38.13,4.86 38.16,5.31 38.12,5.75 C 38.19,6.47 38.15,7.53 37.31,7.78 C 36.66,7.90 35.81,7.57 35.65,6.87 C 35.60,6.79 35.58,6.69 35.56,6.59 C 35.46,6.67 35.34,6.77 35.21,6.90 C 35.24,7.01 35.27,7.21 35.31,7.43 C 35.53,7.91 35.79,8.37 36.21,8.71 C 36.64,9.18 37.33,9.15 37.81,8.81 C 38.39,8.48 39.00,7.85 38.87,7.12 C 38.77,6.87 38.72,6.53 38.59,6.59 C 38.58,6.90 38.43,7.14 38.25,7.37 C 38.34,7.20 38.40,6.98 38.40,6.78 C 38.43,6.04 38.53,5.29 38.28,4.59 C 38.27,4.58 38.26,4.54 38.25,4.53 C 38.13,4.52 38.02,4.50 37.90,4.5 z M 38.56,7.43 C 38.66,7.79 37.83,8.13 38.37,7.68 C 38.44,7.61 38.50,7.51 38.56,7.43 z M 37.90,7.78 C 37.80,7.90 37.73,8.02 37.65,8.15 C 37.38,8.81 36.27,8.47 36.5,8 C 36.97,8.22 37.51,8.09 37.90,7.78 z" id="p3346" style="fill:#a57c37;fill-opacity:0.55;fill-rule:evenodd;stroke:none;display:inline"/>
<path d="M 36.84,4.43 C 36.91,5.00 36.90,5.50 36.78,6 C 37.34,7.56 37.46,7.62 37.65,8.65 C 37.92,10.11 37.91,10.72 38.40,10.90 C 38.64,10.99 39.25,10.84 39.93,10.90 C 39.78,10.46 39.66,9.98 39.56,9.46 C 39.47,9.04 40.43,9.31 39.87,7.62 C 39.43,6.29 39.46,4.69 38.84,4.59 C 38.22,4.49 37.46,4.54 36.84,4.43 z" id="p3363" style="fill:#6f511e;fill-opacity:0.40;fill-rule:evenodd;stroke:none;display:inline"/>
<path d="M 35.66,9.74 C 36.30,9.83 36.76,9.85 37.84,9.69" id="p3332" style="fill:none;fill-rule:evenodd;stroke:#a3922d;stroke-width:0.60;stroke-linecap:round;stroke-linejoin:miter;stroke-miterlimit:4;stroke-dasharray:none;stroke-opacity:0.72"/>
<path d="M 35.76,8.83 C 35.85,9.18 36.82,9.14 36.82,9.14" id="p3370" style="fill:none;fill-rule:evenodd;stroke:#f6e44c;stroke-width:0.80;stroke-linecap:round;stroke-linejoin:miter;stroke-miterlimit:4;stroke-dasharray:none;stroke-opacity:0.35"/>
<path d="M 2.63,32.52 C 4.76,38.56 11.53,41.02 16.97,41.20 C 21.29,41.34 30.16,40.13 35.88,35.67 C 40.43,32.11 45.41,24.79 44.29,18.33 C 43.78,15.42 40.51,14.25 39.55,9.47 C 39.46,9.05 40.42,9.30 39.86,7.62 C 39.42,6.29 39.45,4.70 38.83,4.60 C 38.21,4.50 37.46,4.52 36.84,4.42 C 36.96,5.29 36.87,6.07 36.46,6.79 C 35.94,6.18 35.74,6.38 35.22,6.90 C 35.28,7.17 35.27,7.87 35.74,8.75 C 35.08,8.80 35.12,9.27 35.33,9.99 C 35.53,10.71 36.05,10.71 36.15,11.63 C 36.25,12.56 36.56,13.80 36.15,15.14 C 35.43,16.37 35.33,16.89 34.50,18.84 C 33.68,20.80 32.66,24.26 26.78,27.81 C 22.40,30.44 16.78,30.59 14.62,30.28 C 12.46,29.97 8.44,29.97 7.21,29.97 C 5.97,29.97 4.23,29.59 3.84,30.02 C 3.65,30.24 3.62,30.45 3.56,30.51 C 3.39,30.67 3.12,30.76 3.04,30.97 C 2.96,31.17 2.98,31.51 2.90,31.71 C 2.81,31.92 2.47,32.09 2.63,32.52 z" id="stroke01" style="fill:none;fill-opacity:1;fill-rule:evenodd;stroke:#322217;stroke-width:0.5;stroke-linecap:butt;stroke-linejoin:miter;stroke-miterlimit:4;stroke-dasharray:none;stroke-opacity:1"/>
</g>
</svg>
