<?xml version="1.0" encoding="UTF-8" standalone="no"?>
<!DOCTYPE svg PUBLIC "-//W3C//DTD SVG 1.0//EN" "http://www.w3.org/TR/2001/REC-SVG-20010904/DTD/svg10.dtd">
<svg xmlns:svg="http://www.w3.org/2000/svg" xmlns="http://www.w3.org/2000/svg" version="1.0" width="100%" height="100%" viewBox="0 0 48 48" id="_clementine01">
<defs/>
<g id="layer2">
<path d="m 17.62,12.15 c -2.62,-0.13 -6.55,0.26 -8.78,2.22 -2.22,1.96 -4.98,4.45 -5.37,10.09 -0.39,5.63 3.53,9.96 5.70,11.59 2.16,1.63 4.65,2.94 8.91,2.81 4.25,-0.13 7.33,-1.57 8.91,-3.34 1.57,-1.76 6.22,-7.66 2.35,-14.94 -3.86,-7.27 -7.47,-8.19 -11.72,-8.45 z" id="path3124" style="fill:#fe7f16" />
<path d="m 19.28,12.31 c -2.36,1.30 -3.72,3.12 -4.31,3.28 -0.86,0.23 -3.06,1.66 -2.75,2.21 0.31,0.55 0.79,0.24 2.53,-0.46 1.73,-0.70 5.35,-2.04 7.25,-0.46 1.57,1.31 9.40,7.31 7.28,15.46 1.51,-2.80 2.58,-6.96 0.06,-11.71 -3.35,-6.31 -6.50,-7.84 -10.06,-8.31 z" id="path4089" style="fill:#ae3401;fill-opacity:0.29" />
<path d="M 16.59,12.12 C 16.40,12.12 16.19,12.14 16,12.15 c -0.07,0.18 -0.14,0.38 -0.18,0.59 -0.49,1.59 0.52,3.17 2.03,3.68 2.03,1.35 4.15,2.57 6.21,3.87 1.51,1.19 3.00,2.43 4.46,3.68 0.87,0.91 1.70,1.90 2.31,3.03 0.11,-1.94 -0.27,-4.09 -1.5,-6.40 C 25.47,13.35 21.88,12.41 17.62,12.15 17.29,12.13 16.95,12.12 16.59,12.12 z" id="path4022" style="fill:#361c0f;fill-opacity:0.24" />
<path d="m 12.90,12.5 c -1.52,0.33 -2.99,0.92 -4.06,1.87 -2.22,1.96 -4.98,4.45 -5.37,10.09 -0.39,5.63 3.55,9.95 5.71,11.59 1.44,1.09 3.04,2.06 5.21,2.53 C 12.46,36.17 6.01,30.76 5.18,25.68 4.19,19.58 7.69,16.26 12.90,12.5 z" id="path3978" style="fill:#ffffff;fill-opacity:0.24" />
<path d="m 18.84,12.28 c -0.15,0.94 0.11,1.90 0.78,2.62 1.55,1.68 7.34,3.41 10.25,6.87 -0.16,-0.38 -0.32,-0.76 -0.53,-1.15 -3.48,-6.56 -6.76,-7.94 -10.5,-8.34 z" id="path3980" style="fill:#4d0d0d;fill-opacity:0.56" />
<path d="m 22.21,13.03 c 4.61,4.69 7.53,10.64 7.25,13.37 -0.32,3.12 -2.10,8.22 -7.40,11.90 2.22,-0.60 3.90,-1.59 4.93,-2.75 1.57,-1.76 6.20,-7.66 2.34,-14.93 -2.40,-4.52 -4.69,-6.61 -7.12,-7.59 z" id="path3982" style="fill:#ffffff;fill-opacity:0.24" />
<path d="m 7.96,21.28 c 3.78,4.09 8.27,4.09 12.45,0.55" id="path3984" style="fill:none;stroke:#fed892;stroke-width:4.40;stroke-linecap:round;stroke-opacity:0.21" />
<path d="m 18.41,15.56 c 2.68,-2.09 3.01,-2.03 4.65,-1.70 1.63,0.32 1.11,-0.58 4.52,-0.13 3.40,0.45 5.89,0.06 8.12,0.45 2.22,0.39 6.68,1.44 8.05,1.31 1.37,-0.13 2.55,-0.32 2.68,0 0.13,0.32 -7.53,2.35 -10.15,2.42 -2.62,0.06 -9.50,-0.13 -12.64,-1.44 -3.14,-1.31 -4.98,0.26 -5.24,-0.91 z" id="path3128" style="fill:#475f41" />
<path d="m 18.01,12.54 c -0.98,-0.13 -0.45,-2.62 0.06,-3.07 0.52,-0.45 3.34,0.19 4.25,-0.13 0.91,-0.32 0.98,0.26 2.49,0.06 1.50,-0.19 5.70,-0.32 6.61,-0.19 0.91,0.13 0.19,0.65 -0.26,1.76 -0.45,1.11 -2.75,2.62 -3.93,2.62 -1.17,0 -2.88,-0.98 -4.12,-0.91 -1.24,0.06 -1.76,1.17 -5.11,-0.13 z" id="path3126" style="fill:#869374" />
<path d="m 13.87,21.67 c -1.07,-0.08 -2.14,0.30 -3.01,0.90 -0.73,0.61 -0.91,1.69 -0.69,2.59 0.13,0.52 0.50,0.93 0.78,1.38 0.29,0.43 0.72,0.72 1.18,0.96 1.08,0.60 2.50,0.78 3.60,0.11 1.19,-0.67 1.95,-1.92 2.29,-3.23 0.10,-0.43 -0.00,-0.91 -0.31,-1.24 -0.70,-0.97 -1.80,-1.78 -3.04,-1.79 -0.28,0.02 -0.54,0.16 -0.79,0.30 z" id="path4024" style="fill:#f4e0d6;fill-opacity:0.13" />
<path d="m 6.25,17 c -1.37,1.70 -2.53,3.96 -2.78,7.46 -0.26,3.80 1.44,7.00 3.25,9.18 2.45,0.66 7.41,3.31 13.53,1.40 3.04,-0.94 5.43,-0.84 7.28,-0.15 1.85,-2.28 5.31,-7.68 1.81,-14.28 -0.31,-0.59 -0.62,-1.17 -0.93,-1.68 -4.95,11.68 -12.57,11.77 -18.25,10.37 C 5.16,28.08 4.39,22.04 6.25,17 z" id="path4091" style="fill:#fede53;fill-opacity:0.13" />
<path d="M 10.32,14.26 C 6.93,17.49 3.94,20.96 5.20,26.56" id="path4116" style="fill:none;stroke:#fafafa;stroke-width:2;stroke-linecap:round;stroke-opacity:0.17" />
<path d="m 8.82,32.70 c 2.36,1.89 5.75,4.96 10.71,2.28" id="path4118" style="fill:none;stroke:#f6913c;stroke-width:4.59;stroke-linecap:round;stroke-opacity:0.49" />
<path d="m 9.87,14.46 c -0.72,0.45 -0.78,1.46 -1.53,1.90 -0.57,0.53 -0.00,1.59 0.75,1.53 0.68,0.38 0.94,1.53 0.25,2.03 -0.62,0.36 -1.60,-0.56 -2.03,0.25 -0.32,0.55 -1.08,0.52 -1.37,-0.03 -0.74,-0.46 -1.56,0.58 -0.84,1.15 0.29,0.71 -0.63,0.85 -0.90,1.31 -0.29,0.70 0.27,1.50 0.90,1.78 0.78,0.23 0.49,-1.16 1.21,-0.84 0.72,0.52 -0.11,1.22 -0.75,1.15 -0.58,0.01 -1.49,0.23 -1.34,1 0.09,0.53 0.62,1.07 0.31,1.62 -0.39,0.51 -0.76,1.35 -0.12,1.84 0.64,0.56 1.30,-0.23 1.90,-0.25 0.31,0.45 0.80,1.04 1.37,0.56 C 8.22,29.02 7.84,28.02 7.12,28 6.53,27.91 5.81,28.24 5.37,27.68 5.37,27.51 5.34,27.33 5.31,27.15 c 0.31,0.10 0.70,0.12 0.96,0.06 0.49,0.01 1.18,0.07 1.43,-0.46 0.17,-0.47 -0.31,-0.97 -0.78,-0.93 -0.46,0.52 -1.18,0.56 -1.84,0.46 -0.06,-0.21 -0.13,-0.46 -0.18,-0.62 0.65,-0.16 1.41,-0.18 1.87,-0.75 C 7.44,24.52 7.56,23.61 7.34,22.93 7.34,22.15 6.16,21.76 5.81,22.53 5.72,22.95 4.98,23.68 4.84,22.93 5.08,22.26 5.97,22.12 6.28,21.5 c 0.55,0.04 1.35,0.20 1.28,-0.62 0.36,-0.56 1.09,-0.16 1.62,-0.15 0.85,-0.26 1.10,-1.23 1.65,-1.84 0.54,-0.54 -0.09,-1.09 -0.68,-0.93 -0.41,-0.23 -0.31,-0.86 -0.81,-1.09 -0.13,-0.45 0.69,-0.68 0.43,-1.25 -0.14,-0.52 1.13,-0.86 0.09,-1.12 z m 0.18,0.21 c 0.40,0.04 -0.24,0.33 0,0 z m -2.59,3.46 -0.12,0.03 C 6.67,18.01 5.86,19.21 6.62,19.53 c 0.59,0.04 1.64,-0.86 0.93,-1.37 l -0.09,0 z m -1.78,2.81 c 0.22,0.00 0.04,0.12 0,0 z m 2.90,1.75 C 7.78,22.96 8.66,23.97 8.37,24.53 8.57,25.20 9.79,25.19 9.84,24.43 9.78,23.71 8.94,23.39 8.71,22.75 8.68,22.72 8.62,22.73 8.59,22.71 z M 6.90,28.62 c 0.21,0.07 0.09,0.32 0,0 z" id="path4120" style="font-size:medium;font-style:normal;font-variant:normal;font-weight:normal;font-stretch:normal;text-indent:0;text-align:start;text-decoration:none;line-height:normal;letter-spacing:normal;word-spacing:normal;text-transform:none;direction:ltr;block-progression:tb;writing-mode:lr-tb;text-anchor:start;baseline-shift:baseline;color:#000000;fill:#fe7f16;fill-opacity:0.51;stroke-width:0.60;font-family:Sans;-inkscape-font-specification:Sans" />
<path d="M 6.31,20.71 C 5.83,20.91 5.55,21.60 5.84,22.06 6.45,22.56 6.98,21.26 6.60,20.82 6.54,20.71 6.41,20.71 6.31,20.71 z m -0.87,2.59 c -0.70,0.37 0.02,1.12 0.28,1.56 0.14,0.79 -1.08,0.56 -1.13,1.24 -0.07,0.70 0.61,1.01 1.18,0.82 0.41,0.17 0.89,0.20 1.17,-0.12 0.37,-0.20 0.62,0.45 1.08,0.31 0.71,0.36 1.10,-0.92 0.22,-0.87 C 7.79,26.18 7.37,26.32 7.11,25.91 6.83,25.84 6.11,26.41 6.12,25.90 6.76,25.45 6.66,24.57 6.18,24.03 6.02,23.72 5.78,23.41 5.43,23.31 z m 0.68,4.37 c -0.79,0.09 -0.43,1.37 0.11,1.54 0.39,-0.02 0.41,-0.54 0.87,-0.34 0.36,0.04 0.61,0.62 0.23,0.71 -0.09,0.05 -0.52,-0.43 -0.71,0.00 -0.26,0.55 0.02,1.42 0.54,1.72 0.30,0.14 0.61,-0.39 0.60,0.07 0.20,0.49 0.79,0.19 0.93,0.70 0.52,0.62 0.96,-0.43 0.54,-0.82 C 9.17,30.95 8.34,30.82 9.02,30.78 9.48,30.53 9.13,29.92 9.29,29.48 9.05,29.03 8.48,29.41 8.09,29.34 8.42,28.91 8.24,28.17 7.65,28.11 7.21,27.78 6.57,28.44 6.41,27.83 6.33,27.75 6.23,27.69 6.12,27.68 z m -1.46,0.37 C 4.07,28.47 4.71,29.44 5.32,29.31 5.99,29.00 5.19,27.94 4.65,28.06 z m 1.18,1.21 c -0.71,0.21 -0.05,1.46 0.52,1.06 0.34,-0.37 -0.05,-1.05 -0.52,-1.06 z m 1.96,1.43 c 0.22,0.08 0.47,0.13 0.11,0.21 C 7.75,31.15 7.95,30.75 7.81,30.71 z m 3.90,2.06 c -0.39,0.47 -0.87,0.97 -1.30,1.29 0.14,0.87 1.30,0.30 1.52,-0.26 0.22,-0.31 0.37,-1.04 -0.21,-1.02 z" id="path4250" style="font-size:medium;font-style:normal;font-variant:normal;font-weight:normal;font-stretch:normal;text-indent:0;text-align:start;text-decoration:none;line-height:normal;letter-spacing:normal;word-spacing:normal;text-transform:none;direction:ltr;block-progression:tb;writing-mode:lr-tb;text-anchor:start;baseline-shift:baseline;color:#000000;fill:#fc9e45;fill-opacity:0.59;stroke-width:0.80;font-family:Sans;-inkscape-font-specification:Sans" />
<path d="m 10.96,21.75 c -0.68,-0.20 -0.59,0.98 0.03,0.76 0.14,0.34 0.51,1.02 0.80,0.38 0.20,-0.52 -0.27,-1.19 -0.84,-1.15 z m 8.18,0.15 c -0.72,-0.13 -0.59,1.08 0.10,0.79 0.67,0.04 0.67,-1.00 -0.03,-0.80 l -0.06,0.00 -1.2e-5,-2.2e-5 z M 8.12,22.25 C 7.49,22.34 7.96,23.26 8.45,22.97 8.90,23.24 9.77,22.80 9.16,22.34 8.84,22.14 8.46,22.30 8.12,22.25 z m 5.21,0.28 c -0.54,0.24 -0.09,0.82 0.18,1.10 0.29,0.44 0.78,0.78 0.94,1.30 -0.35,0.14 -0.84,-0.08 -0.63,-0.51 -0.05,-0.64 -0.90,-1.02 -1.44,-0.79 -0.45,0.37 0.04,0.85 0.49,0.64 0.38,0.09 0.21,0.51 0.24,0.79 0,0.22 0,0.44 0,0.67 -0.45,-0.52 -1.07,0.58 -0.33,0.62 0.55,0.19 1.18,0.38 1.75,0.14 -0.53,0.44 0.48,1.12 0.60,0.40 0.12,-0.52 0.33,-1.02 0.55,-1.51 0.23,-0.32 0.72,-1.35 -0.06,-1.20 -0.67,0.51 -0.50,-0.71 -1.04,-0.87 -0.57,0.16 -0.65,-0.57 -1.09,-0.77 l -0.07,-0.01 -0.08,-0.00 z M 10.25,22.68 c -0.31,0.09 -0.38,1.11 -0.62,0.44 -0.40,-0.27 -0.78,0.29 -0.56,0.63 -0.13,0.65 0.93,1.13 1.16,0.40 0.17,-0.41 0.88,-1.36 0.11,-1.50 L 10.25,22.68 z m 5.62,0.68 c -0.63,0.24 0.01,0.97 0.48,0.86 0.70,0.04 0.44,-0.97 -0.16,-0.79 -0.10,-0.02 -0.21,-0.04 -0.32,-0.07 z m -4.53,0.06 c -0.46,0.14 -0.07,0.91 -0.62,0.98 -0.20,0.54 0.34,1.11 0.83,1.23 0.37,-0.24 0.52,-0.87 0.39,-1.30 -0.24,-0.28 -0.08,-1.02 -0.59,-0.92 z m 8.03,0 c -0.68,0.09 -0.17,0.97 0.31,0.88 0.65,0.21 0.79,-0.80 0.08,-0.76 C 19.64,23.51 19.50,23.48 19.37,23.43 z m -1.81,0.03 c -0.23,0.39 -0.83,1.17 -0.30,1.51 0.55,0.00 0.68,-0.74 0.77,-1.17 -0.00,-0.23 -0.23,-0.41 -0.46,-0.33 z M 16.75,25.12 c -0.49,-0.14 -1.31,0.58 -0.53,0.80 0.46,0.20 1.34,-0.38 0.74,-0.78 -0.06,-0.02 -0.13,-0.03 -0.20,-0.01 z m -2.34,0.46 c 0.26,0.44 -0.99,0.31 -0.43,0.04 0.14,1.43e-4 0.31,0.06 0.43,-0.04 z m 3.53,0.06 c -0.59,0.04 0.15,1.12 0.17,0.39 0.01,-0.14 0.08,-0.48 -0.17,-0.39 z m -2.28,0.78 c -0.57,0.05 0.11,1.10 0.16,0.38 0.00,-0.13 0.00,-0.35 -0.16,-0.38 z" id="path4395" style="font-size:medium;font-style:normal;font-variant:normal;font-weight:normal;font-stretch:normal;text-indent:0;text-align:start;text-decoration:none;line-height:normal;letter-spacing:normal;word-spacing:normal;text-transform:none;direction:ltr;block-progression:tb;writing-mode:lr-tb;text-anchor:start;baseline-shift:baseline;color:#000000;fill:#fed9bb;fill-opacity:0.20;stroke-width:0.69;font-family:Sans;-inkscape-font-specification:Sans" />
<path d="m 20.63,20.41 c -0.67,0.10 -0.37,1.50 0.25,0.93 0.26,-0.27 0.29,-1.01 -0.25,-0.93 z m -2.5,0.31 c -0.70,0.43 0.48,1.15 0.87,0.63 0.38,-0.45 -0.25,-0.85 -0.67,-0.63 l -0.10,3.55e-4 -0.10,-4.78e-4 0,-4.4e-5 z m -5.71,0.5 c -0.47,0.30 0.02,0.87 0.40,0.98 0.63,0.29 0.73,-0.68 0.16,-0.82 -0.17,-0.10 -0.37,-0.13 -0.56,-0.16 z m -2.50,0.03 c -0.56,-0.10 -0.55,0.73 -0.18,0.95 0.60,0.36 0.94,-0.91 0.28,-0.96 l -0.09,0.00 z m 7.40,0 c -0.48,0.17 -0.71,1.26 -0.04,1.24 0.46,-0.14 0.66,-1.18 0.04,-1.24 z m 4.37,0.03 c -0.65,-0.26 -0.87,1.18 -0.11,0.87 0.31,-0.13 0.58,-0.75 0.11,-0.87 z m -2.75,0.18 c -0.27,0.36 -0.66,0.76 -0.61,1.26 0.30,0.62 0.96,-0.14 0.98,-0.60 0.10,-0.28 0.05,-0.77 -0.37,-0.66 z m 0.75,0.06 c -0.64,0.42 0.67,1.11 0.74,0.37 0.03,-0.38 -0.48,-0.42 -0.74,-0.37 z m -7.84,0.34 c -0.21,0.49 -0.80,1.05 -0.58,1.61 0.27,0.41 1.12,0.07 0.73,-0.40 0.32,-0.31 0.52,-1.18 -0.12,-1.20 l -0.02,0.00 c 0,0 -3e-6,4e-6 -3e-6,4e-6 z m 1.81,0.31 c -0.54,0.09 -0.66,1.21 -0.02,1.16 0.43,-0.15 0.52,-1.03 0.02,-1.16 z m 1.93,0.12 c -0.68,0.43 0.51,1.16 0.87,0.59 0.31,-0.67 -0.43,-0.68 -0.87,-0.59 z m -1.09,0.5 c -0.74,0.11 0.52,1.11 -0.23,0.98 -0.47,0.06 -0.37,0.85 -0.87,0.66 0.39,-0.65 -0.73,-0.81 -0.81,-0.16 0.20,0.54 -0.80,0.99 -0.26,1.44 0.31,0.10 0.74,0.11 0.70,0.55 0.32,0.57 0.94,0.00 0.71,-0.45 0.59,0.11 0.79,-0.58 0.52,-1.03 -0.23,-0.45 0.41,0.16 0.59,0.23 0.23,0.33 0.93,0.07 1.01,0.42 -0.43,-0.06 -0.97,-0.37 -1.37,8.58e-4 -0.37,0.68 0.65,0.55 1.04,0.63 0.55,0.35 1.14,-0.26 1.05,-0.82 0.04,-0.54 -0.88,-0.66 -1.04,-0.69 0.70,0.18 0.60,-1.23 -0.04,-0.78 -0.07,0.15 -0.69,0.47 -0.44,0.18 0.59,-0.29 0.07,-1.34 -0.52,-1.17 z m 2.90,0.87 c -0.79,0.09 -0.01,1.30 0.44,0.71 0.42,-0.26 -0.04,-0.90 -0.44,-0.71 z m -1.90,0.15 c 0.09,0.16 0.23,0.71 -0.08,0.35 -0.07,-0.12 -0.00,-0.27 0.08,-0.35 z m -4.34,0.09 c -0.66,0.21 -0.05,1.08 0.45,0.98 0.77,0.07 0.51,-1.15 -0.15,-0.90 -0.10,-0.01 -0.20,-0.03 -0.30,-0.08 z m 2.34,1.09 c 0.11,0.09 -0.14,0.09 0,0 z m -0.18,0.09 c 0.18,0.12 -0.19,-0.02 0,0 z m -0.31,0.03 c 0.31,-0.04 -0.19,0.17 2e-5,10e-6 l -2e-5,-10e-6 z m 0.56,0.18 c 0.16,0.06 -0.12,0.14 0,0 z" id="path4586" style="font-size:medium;font-style:normal;font-variant:normal;font-weight:normal;font-stretch:normal;text-indent:0;text-align:start;text-decoration:none;line-height:normal;letter-spacing:normal;word-spacing:normal;text-transform:none;direction:ltr;block-progression:tb;writing-mode:lr-tb;text-anchor:start;baseline-shift:baseline;color:#000000;fill:#f1dfa3;fill-opacity:0.20;stroke-width:0.69;font-family:Sans;-inkscape-font-specification:Sans" />
<path d="m 21.93,28.96 a 1.65,1.26 0 1 1 -3.31,0 1.65,1.26 0 1 1 3.31,0 z" id="path4808" style="opacity:0.45;color:#000000;fill:#f1dfa3;fill-opacity:0.21;stroke-width:0.69" />
<path d="m 25.15,24.65 c -0.17,-0.03 -0.41,0.06 -0.68,0.28 -0.54,0.42 -1,1.19 -1,1.71 0,0.52 0.45,0.61 1,0.18 0.54,-0.42 1,-1.19 1,-1.71 0,-0.26 -0.13,-0.43 -0.31,-0.46 z" id="path4810" style="opacity:0.45;color:#000000;fill:#f1dfa3;fill-opacity:0.21;stroke-width:0.69" />
<path d="m 25.52,28.88 a 0.77,0.56 0 1 1 -1.55,0 0.77,0.56 0 1 1 1.55,0 z" id="path4812" style="opacity:0.45;color:#000000;fill:#f1dfa3;fill-opacity:0.21;stroke-width:0.69" />
<path d="m 26.37,17.93 c -0.73,0.41 0.35,0.83 0.17,1.36 0.19,0.62 -0.25,-0.13 -0.52,0.22 -0.03,-0.50 -0.96,-1.00 -1.06,-0.28 0.10,0.38 0.51,1.18 0.97,0.81 0.26,0.57 0.74,1.09 1.36,1.08 0.56,-0.01 1.16,0.18 0.95,0.89 -0.09,0.66 0.73,0.35 0.81,0.14 0.28,0.33 0.81,1.01 1.11,0.29 0.22,-0.66 -0.79,-1.02 -1.10,-0.98 0.06,-0.39 -0.53,-0.85 -0.47,-0.95 0.51,-0.36 -0.11,-1.53 -0.70,-1.24 -0.49,0.28 0.23,1.04 0.02,1.07 -0.30,0.05 -1.07,-0.06 -0.97,-0.27 0.83,-0.07 0.30,-1.28 0.17,-1.80 -0.15,-0.25 -0.46,-0.37 -0.75,-0.34 z m 0.65,4.37 c -0.74,0.08 -0.24,0.96 0.24,1.00 0.22,0.38 0.74,0.84 1.07,0.69 0.08,0.29 -0.57,0.31 -0.43,0.79 -0.01,0.40 -0.35,1.15 0.37,1.00 0.63,-0.16 0.48,-0.97 0.49,-1.36 0.27,0.14 0.47,-0.00 0.66,0.33 0.22,0.10 0.41,0.77 -0.03,0.54 -0.96,-0.04 -0.68,1.16 -0.71,1.81 0.26,0.55 0.92,0.06 0.84,-0.40 0.63,0.22 0.35,-0.78 0.92,-0.64 0.42,-0.48 -0.12,-1.06 -0.08,-1.61 -0.06,-0.58 -1.01,-0.27 -0.71,-0.87 0.04,-0.43 -0.33,-1.38 -0.79,-0.77 -0.26,-0.18 -0.76,-0.43 -0.96,-0.03 -0.23,-0.23 -0.53,-0.44 -0.87,-0.46 z M 29.68,27 c -0.50,0.08 -0.38,1.42 -0.77,0.62 -0.61,-0.64 -1.00,0.62 -0.37,0.89 -0.01,-0.01 -0.77,0.24 -0.61,0.69 0.11,0.31 0.37,0.33 0.21,0.71 0.08,0.49 -0.92,0.64 -0.31,1.10 0.69,0.30 1.22,-0.52 1.14,-1.14 -0.14,-0.38 -0.01,-0.27 0.31,-0.36 0.19,-0.15 0.43,-0.78 0.11,-0.34 -0.25,0.12 -0.67,-0.24 -0.16,-0.19 0.46,0.09 0.30,-0.38 0.63,-0.58 C 29.97,27.97 30.56,26.95 29.68,27 z m -0.78,1.56 c -0.03,0.26 -0.32,-0.05 0,0 z m -0.21,0.75 c 0.17,0.16 -0.14,0.07 0,0 z M 26.62,31.25 c -0.43,0.14 -1.45,0.76 -0.57,1.04 0.62,0.21 1.60,-0.40 0.91,-1.01 C 26.86,31.21 26.73,31.20 26.62,31.25 z m 0.78,0.59 c -0.70,0.25 -0.39,1.69 0.33,1.00 0.30,-0.31 0.25,-1.11 -0.33,-1.00 z m -1.06,1.62 c -0.43,0.11 -1.32,0.68 -0.65,1.09 0.55,0.23 1.57,-0.81 0.74,-1.07 l -0.08,-0.01 z" id="path4820" style="font-size:medium;font-style:normal;font-variant:normal;font-weight:normal;font-stretch:normal;text-indent:0;text-align:start;text-decoration:none;line-height:normal;letter-spacing:normal;word-spacing:normal;text-transform:none;direction:ltr;block-progression:tb;writing-mode:lr-tb;text-anchor:start;baseline-shift:baseline;color:#000000;fill:#d29f6f;fill-opacity:0.54;stroke-width:0.80;font-family:Sans;-inkscape-font-specification:Sans" />
<path d="m 18.5,19.59 c -0.13,0.02 -0.25,0.05 -0.40,0.12 C 17.49,19.99 17,20.55 17,20.96 c 0,0.40 0.49,0.52 1.09,0.25 0.60,-0.27 1.09,-0.84 1.09,-1.25 0,-0.30 -0.29,-0.43 -0.68,-0.37 z" id="path4815" style="opacity:0.45;color:#000000;fill:#f4e6b7;fill-opacity:0.45;stroke-width:0.69" />
<path d="m 20.81,11.62 c -0.87,-0.00 -1.72,0.45 -2.65,0.96 3.13,1.19 3.71,0.20 4.87,0.09 C 23.01,12.67 23.01,12.66 23,12.65 22.19,11.91 21.48,11.63 20.81,11.62 z" id="path5048" style="fill:#617949" />
<path d="m 31.34,9.21 c -1.89,0.27 -3.99,0.98 -4.12,1.28 -0.18,0.43 1.45,1.09 0.71,1.21 -0.74,0.12 -3.27,-1.20 -2.53,-0.53 0.58,0.53 0.82,1.13 1.93,2.40 1.20,-0.06 3.39,-1.53 3.84,-2.62 0.45,-1.11 1.16,-1.61 0.25,-1.75 -0.01,-0.00 -0.07,0.00 -0.09,0 z" id="path5050" style="fill:#617949;fill-opacity:0.71" />
<path d="m 21.59,13.68 c -0.73,0.08 -1.50,0.56 -3.18,1.87 0.26,1.17 2.10,-0.40 5.25,0.90 1.80,0.75 4.83,1.13 7.59,1.31 -2.14,-1.57 -4.26,-3.08 -6.43,-4.06 -0.59,0.13 -0.85,0.33 -1.75,0.15 -0.61,-0.12 -1.02,-0.23 -1.46,-0.18 z" id="path5052" style="fill:#dce8b5;fill-opacity:0.19" />
<path d="m 25.31,13.62 c -0.99,0.10 -1.15,0.46 -2.25,0.25 -1.15,-0.23 -1.67,-0.31 -2.81,0.37 0.17,0.59 0.36,1.16 0.62,1.68 0.64,-0.00 1.40,0.08 2.28,0.37 0.63,-0.77 1.36,-1.86 2.15,-2.68 z" id="path5054" style="fill:#0b110d;fill-opacity:0.27" />
<path d="m 25.53,14.56 c -0.24,0.43 -1.15,0.87 -1.28,1 0.92,0.59 2.42,0.77 2.71,1.78 3.32,0.54 7.44,0.64 9.34,0.59 0.14,-0.00 0.35,-0.04 0.53,-0.06 -2.21,-0.42 -5.30,-1.02 -6.37,-1.28 -1.54,-0.37 -4.32,-1.41 -4.93,-2.03 z" id="path5072" style="fill:#798968;fill-opacity:0.71" />
<path d="m 28.87,13.87 c 1.42,1.01 3.44,1.89 5.31,2.34 2.07,0.49 9.02,0.07 11.68,-0.90 -0.49,-0.00 -1.24,0.10 -2.09,0.18 -1.37,0.13 -5.83,-0.91 -8.06,-1.31 C 33.78,13.84 31.63,14.10 28.87,13.87 z" id="path5074" style="fill:#3a4b28;fill-opacity:0.40" />
</g>
<g id="layer3">
<path d="m 15.82,17.18 c -1.05,0 -1.99,-0.24 -1.67,-1.34" id="path5145" style="fill:none;stroke:#955224;stroke-width:0.60;stroke-linecap:round" />
<path d="m 15.65,15.78 c -0.69,0 -1.28,0.35 -1.28,0.78 0,0.42 0.58,0.78 1.28,0.78 0.69,0 1.25,-0.35 1.25,-0.78 0,-0.42 -0.55,-0.78 -1.25,-0.78 z" id="path5141" style="color:#000000;fill:#cc5d0e;stroke-width:0.30" />
<path d="m 17.59,12.15 c -0.31,-0.01 -0.64,-0.03 -1,-0.03 -2.53,0.01 -5.80,0.52 -7.75,2.25 -2.22,1.96 -4.98,4.45 -5.37,10.09 -0.39,5.63 3.55,9.95 5.71,11.59 2.16,1.63 4.64,2.97 8.90,2.84 4.25,-0.13 7.33,-1.57 8.90,-3.34 1.57,-1.76 6.20,-7.66 2.34,-14.93 -0.67,-1.26 -1.33,-2.33 -2,-3.25" id="stroke02" style="fill:none;stroke:#79341a;stroke-width:0.5" />
<path d="m 22.37,13.16 c 0,0 0.91,0.39 1.17,0.72" id="stroke01" style="fill:none;stroke:#79341a;stroke-width:0.5;stroke-linecap:round" />
<path d="m 17.93,12.28 c -0.66,0.39 -1.10,0.70 -1.78,1.37 l 0.56,0.56 c 0.63,-0.63 0.97,-0.86 1.62,-1.25 l -0.40,-0.68 z" id="path3134" style="font-size:medium;font-style:normal;font-variant:normal;font-weight:normal;font-stretch:normal;text-indent:0;text-align:start;text-decoration:none;line-height:normal;letter-spacing:normal;word-spacing:normal;text-transform:none;direction:ltr;block-progression:tb;writing-mode:lr-tb;text-anchor:start;baseline-shift:baseline;color:#000000;fill:#9e9a41;stroke-width:0.80;font-family:Sans;-inkscape-font-specification:Sans" />
<path d="m 15.31,12.62 a 0.65,0.65 0 0 0 0.09,1.28 c 0.32,0.02 0.50,0.10 0.53,0.12 0.02,0.01 -0.00,-0.04 0,0.06 C 15.94,14.30 15.70,15.03 15.21,16 A 0.65,0.65 0 1 0 16.37,16.56 C 16.87,15.56 17.26,14.87 17.25,14.09 17.24,13.70 17.05,13.25 16.71,13 16.38,12.74 15.98,12.66 15.53,12.62 a 0.65,0.65 0 0 0 -0.21,0 z" id="path3130" style="font-size:medium;font-style:normal;font-variant:normal;font-weight:normal;font-stretch:normal;text-indent:0;text-align:start;text-decoration:none;line-height:normal;letter-spacing:normal;word-spacing:normal;text-transform:none;direction:ltr;block-progression:tb;writing-mode:lr-tb;text-anchor:start;baseline-shift:baseline;color:#000000;fill:#1c371c;stroke-width:1.29;font-family:Sans;-inkscape-font-specification:Sans" />
<path d="m 17.21,14.34 c -0.48,0.39 -1.12,0.58 -1.53,0.53 -0.04,0.12 -0.12,0.31 -0.18,0.46 0.46,0.13 0.84,0.41 1.12,0.71 0.31,-0.62 0.54,-1.18 0.59,-1.71 z" id="path5133" style="fill:#97a428;fill-opacity:0.28" />
<path d="M 16.31,15.28 15.93,16 c 1.01,0.50 1.80,0.34 2.56,0.28 L 18.43,15.5 c -0.81,0.06 -1.30,0.19 -2.12,-0.21 z" id="path3132" style="font-size:medium;font-style:normal;font-variant:normal;font-weight:normal;font-stretch:normal;text-indent:0;text-align:start;text-decoration:none;line-height:normal;letter-spacing:normal;word-spacing:normal;text-transform:none;direction:ltr;block-progression:tb;writing-mode:lr-tb;text-anchor:start;baseline-shift:baseline;color:#000000;fill:#9e9a41;stroke-width:0.80;font-family:Sans;-inkscape-font-specification:Sans" />
<path d="m 18.01,12.54 c -0.98,-0.13 -0.45,-2.62 0.06,-3.07 0.52,-0.45 3.34,0.19 4.25,-0.13 0.91,-0.32 0.98,0.26 2.49,0.06 1.50,-0.19 5.70,-0.32 6.61,-0.19 0.91,0.13 0.19,0.65 -0.26,1.76 -0.45,1.11 -2.75,2.62 -3.93,2.62 -1.17,0 -2.88,-0.98 -4.12,-0.91 -1.24,0.06 -1.76,1.17 -5.11,-0.13 z" id="stroke03" style="fill:none;stroke:#1c371c;stroke-width:0.5" />
<path d="m 18.41,15.56 c 2.68,-2.09 3.01,-2.03 4.65,-1.70 1.63,0.32 1.11,-0.58 4.52,-0.13 3.40,0.45 5.89,0.06 8.12,0.45 2.22,0.39 6.68,1.44 8.05,1.31 1.37,-0.13 2.55,-0.32 2.68,0 0.13,0.32 -7.53,2.35 -10.15,2.42 -2.62,0.06 -9.50,-0.13 -12.64,-1.44 -3.14,-1.31 -4.98,0.26 -5.24,-0.91 z" id="stroke04" style="fill:none;stroke:#1c371c;stroke-width:0.5" />
<path d="m 18.11,15.85 c 1.31,-0.40 4.89,-0.85 6.51,-0.40 1.61,0.45 6.71,1.41 9.48,1.41 2.77,0 3.48,0.30 5.09,-0.05" id="path5103" style="fill:none;stroke:#9cb153;stroke-width:0.30;stroke-linecap:round;stroke-opacity:0.38" />
<path d="m 17.97,12.86 c 0.65,-0.52 3.91,-2.73 6.27,-2.93" id="path5105" style="color:#000000;fill:none;stroke:#9cb153;stroke-width:0.30;stroke-linecap:round;stroke-opacity:0.51" />
<path d="m 15.31,12.62 a 0.65,0.65 0 0 0 -0.28,1.12 0.65,0.65 0 0 0 0.15,0.09 0.65,0.65 0 0 0 0.12,0.06 c 0.03,0.00 0.06,0.00 0.09,0 0.22,-0.02 0.41,-0.20 0.56,-0.43 0.19,-0.32 -0.02,-0.69 -0.43,-0.84 a 0.65,0.65 0 0 0 -0.03,0 c -0.01,-0.00 -0.02,0.00 -0.03,0 a 0.65,0.65 0 0 0 -0.15,0 z" id="path5131" style="fill:#7c8a42" />
<path d="m 15.90,15.97 c 0.60,0.35 1.89,0.65 2.82,0.16" id="path5147" style="color:#000000;fill:none;stroke:#1c371c;stroke-width:0.30;stroke-linecap:round" />
<path d="m 17.08,14.05 c 0.13,-0.38 1.18,-1.04 1.45,-1.18" id="path5166" style="color:#000000;fill:none;stroke:#1c371c;stroke-width:0.30;stroke-linecap:round" />
</g>
</svg>
