<?xml version="1.0" encoding="UTF-8" standalone="no"?>
<!DOCTYPE svg PUBLIC "-//W3C//DTD SVG 1.0//EN" "http://www.w3.org/TR/2001/REC-SVG-20010904/DTD/svg10.dtd">
<svg xmlns:svg="http://www.w3.org/2000/svg" xmlns="http://www.w3.org/2000/svg" version="1.0" width="100%" height="100%" viewBox="0 0 48 48" id="_kiwi01">
<defs id="defs2385"/>
<g id="kiwi01" style="display:inline">
<path d="M 7.48,12.72 C 2.61,19.73 3.32,22.34 4.75,25.90 C 6.17,29.47 11.75,36.36 13.42,37.42 C 15.08,38.49 22.20,43.48 27.55,42.77 C 32.89,42.06 40.50,40.75 43.58,31.84 C 46.67,22.93 39.31,12.36 37.05,10.94 C 34.79,9.51 29.92,6.31 21.73,6.90 C 13.53,7.49 9.14,10.58 7.48,12.72 z" id="p2470" style="fill:#b57a47;fill-opacity:1;fill-rule:evenodd;stroke:none;"/>
<path d="M 31.59,9.28 L 32.43,27.34 C 35.28,29.24 40.01,23.29 40.96,24.84 C 41.56,25.80 42.30,30.32 41.87,35.37 C 42.52,34.34 43.12,33.19 43.59,31.84 C 46.68,22.93 39.31,12.36 37.06,10.93 C 36.98,10.89 36.89,10.83 36.81,10.78 L 31.59,9.28 z" id="p3254" style="opacity:1;fill:#f1e440;fill-opacity:0.29;fill-rule:evenodd;stroke:none;display:inline"/>
<path d="M 5.34,16.18 C 2.91,20.73 3.58,22.99 4.75,25.90 C 6.17,29.46 11.74,36.36 13.40,37.43 C 15.06,38.50 22.21,43.49 27.56,42.78 C 27.86,42.74 28.18,42.70 28.5,42.65 C 21.10,36.83 22.71,31.31 23.15,24 L 20.65,17.46 L 5.34,16.18 z" id="p3252" style="opacity:1;fill:#cfc439;fill-opacity:0.30;fill-rule:evenodd;stroke:none;display:inline"/>
<path d="M 12.94,26.85 C 17.34,33.03 29.09,35.41 33.37,34.81 C 37.64,34.22 45.48,25.67 38.48,17.83 C 31.47,9.99 12.94,26.97 12.94,26.85 z" id="p3256" style="opacity:1;fill:#b4f140;fill-opacity:0.16;fill-rule:evenodd;stroke:none;display:inline"/>
<path d="M 41.06,18.43 C 40.53,18.48 40.54,19.24 41.06,19.18 C 39.53,19.88 40.56,22.43 39.18,22.81 C 38.16,22.78 37.02,23.81 38.75,23.93 C 40.52,24.21 42.30,24.30 44.09,24.40 C 44.07,24.26 44.02,24.13 44,24 C 43.25,23.96 41.68,23.83 43.25,23.84 L 43.34,23.84 C 43.50,23.80 43.75,23.82 44,23.84 C 43.94,23.55 43.88,23.25 43.81,22.96 C 42.94,23.02 42.14,23.00 42.03,22.71 C 42.25,22.66 42.48,22.61 42.71,22.59 C 42.95,22.57 43.34,22.57 43.68,22.56 C 43.65,22.45 43.65,22.32 43.62,22.21 C 42.47,22.31 41.30,22.50 40.84,22.5 C 42.12,22.19 40.83,20.97 40.78,20.87 C 41.49,20.38 43.02,18.43 41.37,18.46 C 41.25,18.42 41.14,18.42 41.06,18.43 z M 44.09,24.40 C 42.53,24.95 40.91,23.87 39.34,24.5 C 38.00,25.33 36.32,24.50 35.71,26 C 34.19,26.54 34.72,28.11 35.46,28.03 C 33.31,28.50 34.01,31.26 33.96,32.68 C 33.61,33.51 32.89,34.99 33.21,33.15 C 33.11,31.62 33.81,29.39 33.18,28.28 C 32.72,29.09 33.17,31.82 32.65,31.87 C 32.51,30.72 32.55,28.00 31.75,27.96 C 31.97,29.76 32.07,31.63 31.53,33.37 C 30.91,34.87 29.22,33.89 29.5,32.56 C 28.85,31.01 28.74,32.91 28.81,33.53 C 27.36,34.87 27.85,32.72 28.34,32 C 27.13,31.01 25.61,34.83 24.96,32.5 C 24.50,31.07 23.50,32.06 22.96,32.43 C 22.40,31.67 21.42,30.84 21.09,32.28 C 20.06,31.37 18.93,31.64 17.81,32.21 C 18.15,31.59 17.96,30.71 17.37,31.75 C 16.78,32.59 15.88,34.50 15.12,34.40 C 15.49,33.00 17.31,31.47 16.31,30 C 15.54,30.53 14.94,32.05 14.71,30.93 C 13.57,31.87 13.31,33.74 12.15,34.53 C 12.16,33.72 13.05,30.75 11.62,31.59 C 12.75,30.06 10.36,30.64 10.53,31.84 C 9.66,33.28 8.43,31.58 9.43,30.59 C 9.84,29.33 9.78,32.34 10.46,30.71 C 10.89,29.80 11.21,28.27 9.84,29.28 C 9.24,29.88 8.20,30.63 8.15,29.18 C 8.21,28.40 7.80,27.53 7.71,28.87 C 7.37,29.97 8.85,30.61 9,30.59 C 8.25,31.55 9.21,32.98 9.65,33.12 C 9.61,33.16 9.59,33.23 9.56,33.28 C 9.67,33.41 9.76,33.55 9.87,33.68 C 10.20,32.99 10.64,32.35 11.28,31.90 C 11.26,32.54 10.77,33.56 10.28,34.18 C 10.36,34.28 10.42,34.37 10.5,34.46 C 10.92,33.85 11.38,33.45 11.06,34.68 C 11.06,34.88 11.06,35.02 11.09,35.15 C 11.24,35.32 11.42,35.50 11.56,35.65 C 12.11,35.57 12.94,34.49 13.21,33.90 C 13.66,33.31 14.95,30.80 14.21,32.75 C 13.84,33.93 11.77,35.89 12.90,36.75 C 13.90,36.34 14.18,34.65 15.37,35.06 C 16.04,34.60 17.15,32.54 16.37,34.43 C 16.15,35.70 15.35,37.96 16.21,38.68 C 17.57,37.41 17.31,35.25 18.21,33.68 C 18.82,33.46 18.26,35.81 18.03,36.46 C 17.92,37.68 17.58,39.11 18.06,40.21 C 18.06,40.22 18.05,40.24 18.06,40.25 C 18.23,40.34 18.41,40.40 18.59,40.5 C 19.72,39.69 20.45,38.09 22,37.65 C 22.55,37.24 24.99,35.91 23.78,37.53 C 23.44,38.86 21.38,40.91 22.53,41.90 C 23.71,41.08 24.54,39.81 25.96,39.34 C 26.49,38.87 28.20,36.83 27.15,38.56 C 26.74,39.69 25.39,41.49 25.75,42.31 C 25.92,42.19 26.08,41.97 26.21,41.71 C 26.04,42.05 26.00,42.47 26.06,42.81 C 26.24,42.82 26.44,42.84 26.62,42.84 C 26.40,41.59 27.44,40.11 27.71,38.81 C 28.02,38.21 29.27,36.69 29.25,36.93 C 28.79,37.48 28.88,39.30 29.43,37.87 C 29.62,36.69 30.77,36.07 31.31,35.09 C 32.21,36.39 31.58,37.99 30.53,38.93 C 29.48,40.43 28.07,41.61 26.75,42.84 C 26.96,42.83 27.19,42.80 27.40,42.78 C 28.58,41.78 30.24,39.92 30.81,39.34 C 30.56,40.08 29.49,41.97 29.87,42.43 C 30.00,42.41 30.14,42.36 30.28,42.34 C 31.35,40.68 31.87,38.75 32.40,36.87 C 33.34,35.18 33.93,33.29 35.06,31.71 C 36.22,31.06 35.45,33.72 35.62,34.37 C 35.90,36.63 33.33,37.44 33,39.5 C 32.53,40.86 33.95,40.98 34.18,39.71 C 34.97,38.53 36.25,37.79 36.75,36.40 C 37.09,37.56 36.83,38.84 37.03,40.03 C 37.23,39.91 37.42,39.78 37.62,39.65 C 37.64,39.54 37.63,39.49 37.68,39.31 L 37.75,39.12 L 37.81,38.93 C 37.81,39.16 37.79,39.37 37.75,39.56 C 37.91,39.45 38.08,39.36 38.25,39.25 C 38.36,38.14 38.22,36.94 38.62,35.90 C 38.90,36.67 38.26,38.31 38.71,38.90 C 38.83,38.81 38.94,38.72 39.06,38.62 C 39.05,37.65 38.77,36.21 39.81,37 C 40.76,36.09 38.71,33.17 41.03,34 C 42.10,33.77 42.26,34.22 42.21,34.84 C 42.40,34.51 42.60,34.16 42.78,33.81 C 42.86,33.63 42.95,33.46 43.03,33.28 C 42.59,32.43 41.86,30.66 43.59,31.31 C 43.63,31.32 43.70,31.33 43.75,31.34 C 43.81,31.12 43.88,30.90 43.93,30.68 C 42.57,30.77 41.00,30.60 41.65,28.93 C 42.13,28.24 43.33,28.06 44.28,27.81 C 44.29,27.48 44.32,27.16 44.31,26.84 C 43.33,26.82 42.33,26.88 41.65,26.31 C 42.54,26.12 43.37,25.70 44.21,25.31 C 44.20,25.18 44.20,25.06 44.18,24.93 C 43.33,25.41 41.13,26.28 42.56,25.06 C 43.07,24.85 43.61,24.86 44.15,24.81 C 44.13,24.67 44.11,24.54 44.09,24.40 z M 41.40,19.56 C 41.44,20.38 40.12,20.45 41.15,19.75 L 41.40,19.56 z M 40.34,21.28 C 42.04,21.79 39.87,22.90 40.34,21.28 z M 40.40,23.12 C 41.34,23.06 42.33,23.35 43.31,23.43 C 41.88,23.43 40.45,23.64 39.03,23.53 C 39.47,23.25 39.93,23.15 40.40,23.12 z M 38.37,23.37 C 38.40,23.35 38.48,23.35 38.65,23.40 C 38.67,23.71 38.28,23.44 38.37,23.37 z M 41.34,24.68 C 42.59,24.93 40.02,25.81 40.21,26.46 C 39.27,26.89 36.25,28.03 37.34,25.96 C 38.11,24.70 40.05,24.88 41.34,24.68 z M 36.62,25.28 C 37.00,25.87 35.82,25.71 36.62,25.28 z M 41.5,25.59 C 41.42,26.01 40.56,26.14 41.21,25.71 L 41.5,25.59 z M 36.84,25.93 C 37.29,26.93 35.65,27.94 36.21,26.37 C 36.30,26.09 36.67,26.13 36.84,25.93 z M 35.84,26.5 C 36.36,27.97 33.65,27.60 35.84,26.5 z M 41,26.59 C 41.65,27.40 44.22,26.92 44.15,27.34 C 42.81,27.74 41.14,29.25 40.34,27.34 C 40.18,27.01 40.84,26.81 41,26.59 z M 39.68,27.18 C 38.70,27.89 37.08,29.46 36.65,28.03 C 37.35,27.13 38.72,27.60 39.68,27.18 z M 39.87,27.62 C 42.17,27.98 38.41,31.63 39.43,28.84 C 39.54,28.42 39.62,27.98 39.87,27.62 z M 36.34,27.71 C 36.40,28.60 35.63,27.83 36.34,27.71 z M 39.25,27.93 C 39.12,28.71 38.97,31.44 37.90,29.68 C 36.51,28.78 38.89,28.55 39.25,27.93 z M 35.34,28.56 C 35.43,28.55 35.52,28.55 35.62,28.56 C 35.69,29.61 34.52,31.39 34.31,31.65 C 34.33,30.68 34.03,28.70 35.34,28.56 z M 36.31,28.78 C 37.08,29.05 35.49,29.27 36.31,28.78 z M 40.90,29.18 C 41.81,30.49 40.99,31.43 39.53,30.81 C 39.02,30.20 40.58,29.55 40.90,29.18 z M 36.93,29.25 C 38.52,29.84 38.30,32.84 37.09,33 C 37.26,32.12 36.69,31.36 36.43,32.62 C 36.24,33.50 35.77,34.53 36.12,33 C 36.48,31.48 34.40,30.39 36.28,29.40 L 36.59,29.31 L 36.93,29.25 z M 10.34,29.65 C 10.43,30.53 9.54,30.33 10.34,29.65 z M 38.68,30.68 C 39.37,31.16 38.48,30.95 38.68,30.68 z M 16,30.87 C 15.36,31.85 15.30,33.38 14.56,33.93 C 14.51,32.68 15.25,31.76 16,30.87 z M 11.53,30.96 C 11.29,31.58 10.94,31.54 11.53,30.96 z M 39.62,31.06 C 40.20,31.14 38.90,32.02 39.25,31.09 C 39.42,31.06 39.54,31.05 39.62,31.06 z M 41.18,31.21 C 42.15,31.04 42.99,34.11 41.96,32.34 C 41.22,31.91 38.90,31.62 41,31.31 C 41.06,31.26 41.12,31.23 41.18,31.21 z M 38.62,31.62 C 38.92,32.28 38.01,32.20 38.62,31.62 z M 21.84,31.78 C 23.16,32.70 20.62,32.72 21.84,31.78 z M 24.15,32 C 25.13,33.50 24.01,32.77 24.15,32 z M 32.25,32 C 32.36,33.19 32.64,34.55 31.93,35.5 C 31.11,34.40 32.14,33.18 32.25,32 z M 39.90,32.03 C 41.14,31.99 43.22,33.63 41.25,33.65 C 40.35,33.71 39.17,33.26 39.43,32.15 C 39.56,32.07 39.72,32.03 39.90,32.03 z M 19.62,32.06 C 22.26,32.48 18.24,33.26 19.62,32.06 z M 27.93,32.28 C 27.67,33.34 26.72,32.55 27.93,32.28 z M 11.93,32.31 C 12.16,33.16 11.27,36.41 11.62,34.09 C 11.72,33.50 11.85,32.90 11.93,32.31 z M 18.90,32.31 C 18.68,33.25 16.98,32.55 18.53,32.40 C 18.65,32.36 18.78,32.34 18.90,32.31 z M 38.71,32.46 C 39.05,33.14 38.27,33.21 38.71,32.46 z M 22.96,32.71 C 23.16,32.74 22.76,33.15 22.84,32.75 C 22.89,32.73 22.94,32.71 22.96,32.71 z M 22.43,32.78 C 23.28,34.32 21.01,33.98 21.40,32.84 C 21.74,32.76 22.10,32.86 22.43,32.78 z M 20.40,32.93 C 20.52,32.92 20.66,32.91 20.81,32.93 C 20.40,34.21 19.28,36.76 19.09,37.15 C 19.58,35.92 18.62,33.05 20.40,32.93 z M 26.90,32.93 C 27.37,33.64 25.23,35.09 25.65,34.81 C 25.88,34.09 26.17,33.28 26.90,32.93 z M 23.71,33.03 C 25.39,33.36 23.13,36.01 23.56,33.87 C 23.59,33.59 23.65,33.30 23.71,33.03 z M 18,33.12 C 17.29,34.45 16.77,37.62 16.25,37.90 C 16.48,36.44 16.25,33.40 18,33.12 z M 23.28,33.15 C 23.31,34.14 22.83,33.79 23.28,33.15 z M 37.68,33.18 C 37.80,34.02 36.63,34.46 37.68,33.18 z M 38.06,33.25 C 38.75,33.87 38.42,36.82 37.43,35.09 C 37.49,34.42 38.02,33.92 38.06,33.25 z M 38.53,33.34 C 38.95,33.90 38.47,33.95 38.53,33.34 z M 21.09,33.37 C 22.89,34.60 20.76,36.41 20.28,37.78 C 20.06,38.43 18.35,39.92 19.12,38.28 C 19.74,36.63 20.45,35.01 21.09,33.37 z M 24.59,33.37 C 25.92,33.28 24.53,34.68 24.59,33.37 z M 27.43,33.5 C 28.20,34.45 25.08,35.57 26.78,34.21 C 27.00,33.98 27.22,33.74 27.43,33.5 z M 14.21,33.59 C 14.83,34.68 12.23,37.33 13.34,35.18 C 13.61,34.64 13.90,34.11 14.21,33.59 z M 39.15,33.62 C 39.59,34.20 39.89,36.55 39.34,36.09 C 38.99,35.31 39.10,34.44 39.15,33.62 z M 25.59,33.90 C 25.35,34.58 24.68,36.41 24.81,34.59 C 24.88,34.20 25.38,34.18 25.59,33.90 z M 22.81,33.93 C 23.55,34.96 22.32,35.22 22.65,34.18 C 22.70,34.10 22.76,34.02 22.81,33.93 z M 28.90,34.21 C 29.15,34.92 27.96,37.03 27.90,36.62 C 28.41,35.89 27.72,34.40 28.90,34.21 z M 29.68,34.28 C 31.48,34.11 29.49,36.61 29.68,34.28 z M 36.68,34.46 C 37.11,35.40 35.79,35.74 36.59,34.65 C 36.62,34.59 36.65,34.52 36.68,34.46 z M 24.43,34.75 C 24.84,36.84 21.84,36.67 20.81,37.90 C 20.62,37.55 21.72,35.74 22.31,35.12 C 23.06,35.22 23.23,36.12 23.87,35.12 C 24.06,34.99 24.24,34.87 24.43,34.75 z M 27.59,34.84 C 27.94,36.66 26.61,38.47 24.96,39.12 C 25.12,37.77 26.02,36.15 27.15,35.21 C 27.30,35.09 27.45,34.97 27.59,34.84 z M 29.25,34.87 C 30.39,35.65 27.61,38.15 28.71,36.25 C 28.92,35.80 29.12,35.35 29.25,34.87 z M 18.78,35.78 C 18.78,36.61 18.39,38.78 18.65,36.78 C 18.69,36.44 18.73,36.11 18.78,35.78 z M 36.5,35.81 C 36.33,36.49 35.02,38.63 35.62,36.78 C 35.76,36.35 36.12,36.03 36.5,35.81 z M 37.46,35.81 C 38.70,36.19 37.11,39.79 37.46,37.37 C 37.47,36.84 37.47,36.33 37.46,35.81 z M 25.46,36.81 C 25.35,37.42 24.75,37.54 25.46,36.81 z M 34.96,37.18 C 34.45,37.98 33.89,39.94 33.37,39.93 C 33.53,38.86 34.09,37.84 34.96,37.18 z M 24.68,37.71 C 24.67,38.14 24.31,38.75 24.21,38.84 C 24.22,38.78 24.30,38.60 24.46,38.28 L 24.56,38 L 24.68,37.71 z M 24.12,37.75 C 23.86,38.76 23.00,41.02 22.62,41.06 C 23.05,39.92 23.58,38.83 24.12,37.75 z M 31.65,38 C 31.67,38.01 31.61,38.11 31.59,38.03 C 31.62,38.00 31.64,37.99 31.65,38 z M 18.46,39.18 C 18.33,39.74 19.38,40.09 18.28,40.31 C 18.21,39.96 18.19,39.43 18.46,39.18 z M 24.5,39.18 C 24.68,39.94 23.41,40.43 24.5,39.18 z M 26.56,40.75 C 26.60,40.65 26.52,41.00 26.37,41.37 C 26.46,41.07 26.53,40.79 26.56,40.75 z" id="p3281" style="fill:#945f28;fill-opacity:0.19;fill-rule:evenodd;stroke:none;"/>
<path d="M 41.87,17.59 C 40.42,17.80 38.66,18.40 38.40,18.68 C 39.57,19.03 37.10,20.72 39,21.06 C 39.94,21.55 42.06,21.02 42.37,21.75 C 41.30,23.65 38.61,20.85 38.25,23.68 C 38.21,24.99 39.64,23.69 39.96,24.87 C 41.29,25.22 40.73,25.84 39.81,26.12 C 38.81,27.45 40.81,27.93 40.81,26.37 C 42.01,25.14 41.00,28.01 40.81,28.59 C 40.21,30.01 39.68,27.29 38.5,27.90 C 37.19,27.78 34.90,29.09 35.31,26.96 C 34.76,27.31 35.10,29.04 33.62,28.68 C 32.77,28.88 32.24,29.46 32.21,28.21 C 32.38,27.31 30.94,25.65 31.62,27.43 C 32.89,28.69 31.24,31.13 30,29.34 C 29.33,27.89 26.93,26.24 25.84,28.15 C 24.62,30.27 26.66,32.16 27.78,33.78 C 28.16,35.29 30.00,35.45 30.68,36.43 C 29.18,37.83 26.71,36.08 24.90,37.06 C 23.97,36.57 20.81,36.63 21.53,35.65 C 23.80,36.18 26.11,35.64 28.31,35.46 C 27.56,34.33 24.83,34.43 23.28,34.15 C 21.30,34.55 22.49,29.83 20.46,31.40 C 19.91,32.49 22.95,34.44 20.53,34.12 C 19.61,33.83 18.22,31.62 17.62,33.43 C 16.79,31.45 15.45,29.55 13.5,28.56 C 13.31,28.63 13.20,28.74 13.09,28.84 C 15.07,29.42 16.18,31.39 17.15,33.06 C 17.64,33.97 17.50,35.03 17,33.46 C 15.94,32.49 16.95,34.97 15.75,34 C 14.27,32.92 13.57,31.04 13,29.37 L 13.03,29.09 L 13.09,28.84 C 11.99,29.81 13.94,31.89 14.40,33.03 C 13.96,32.39 12.54,31.36 13.12,32.96 C 13.25,33.87 13.95,36.61 13.43,36.28 C 12.90,34.60 12.31,31.68 10.84,31.21 C 10.79,31.68 10.88,32.14 10.93,32.31 C 10.91,32.21 10.84,32.00 10.71,31.65 C 10.19,30.52 10.45,28.44 9,28.09 C 8.95,29.80 9.76,32.52 9.78,33.56 C 9.78,33.57 9.77,33.58 9.78,33.59 C 9.86,33.69 9.94,33.80 10.03,33.90 C 10.36,32.19 9.08,30.37 9.46,28.78 C 10.35,30.68 10.78,32.76 11.18,34.81 C 12.46,36.35 10.99,32.70 11.34,31.87 C 12.70,33.28 12.59,36.17 13.71,37.18 C 14.55,35.78 13.18,34.08 13.56,32.68 C 14.49,33.57 15.99,35.15 15.84,36.31 C 15.14,35.67 14.84,33.89 13.96,33.87 C 14.76,35.43 15.17,37.15 15.65,38.84 C 15.81,38.93 15.99,39.05 16.15,39.15 C 15.87,38.37 15.65,37.68 15.90,37.78 C 16.14,38.26 16.35,38.83 16.56,39.40 C 16.74,39.51 16.90,39.61 17.09,39.71 C 16.84,39.16 16.62,38.60 16.53,38 C 16.33,37.19 16.50,36.23 17.03,37.43 C 17.24,38.24 19.77,39.71 18.78,38.06 C 20.34,39.48 17.24,35.24 18.96,35.87 C 19.94,37.63 21.67,39.44 21.75,41.40 C 21.67,41.56 21.64,41.71 21.62,41.84 C 21.73,41.88 21.83,41.93 21.93,41.96 C 21.91,41.92 21.89,41.88 21.87,41.84 C 21.74,40.97 22.59,40.22 23.43,40.28 C 24.26,41.62 27.84,41.05 27.43,42.78 C 27.47,42.77 27.52,42.78 27.56,42.78 C 27.66,42.76 27.77,42.73 27.87,42.71 C 28.02,42.47 28.11,42.24 27.96,41.96 C 28.40,40.27 30.94,41.69 32.21,40.75 C 33.88,40.05 34.86,38.12 36.96,38.96 C 37.36,39.05 38.13,39.02 38.81,38.84 C 39.02,38.67 39.20,38.49 39.40,38.31 C 39.26,38.37 39.11,38.44 38.87,38.5 C 38.23,38.67 37.14,38.43 37.40,37.53 C 38.06,37.22 39.72,37.58 39.75,38 C 39.83,37.91 39.91,37.83 40,37.75 C 39.93,37.61 39.82,37.46 39.62,37.31 C 39.48,37.28 39.28,37.29 39.09,37.28 C 40.04,37.16 41.00,36.03 39.37,36.06 C 38.34,36.21 36.86,35.91 38.09,34.78 C 38.05,33.31 41.06,32.04 40.15,34.21 C 39.94,35.36 41.41,34.95 41.59,35.81 C 41.60,35.79 41.61,35.76 41.62,35.75 C 41.59,35.64 41.61,35.49 41.59,35.28 C 41.44,35.14 41.28,34.80 41.65,34.90 C 41.75,35.07 41.79,35.26 41.81,35.43 C 41.88,35.33 41.96,35.23 42.03,35.12 C 41.83,35.03 41.65,34.85 42.06,34.78 C 42.12,34.84 42.12,34.89 42.15,34.93 C 42.54,34.27 42.92,33.54 43.25,32.75 C 43.09,32.72 42.87,32.63 42.59,32.37 C 41.39,32.02 43.02,31.25 43.34,30.93 C 43.46,31.18 43.54,31.51 43.59,31.81 C 43.64,31.65 43.70,31.50 43.75,31.34 C 43.74,31.33 43.75,31.32 43.75,31.31 C 43.96,30.58 44.12,29.86 44.21,29.12 C 43.73,29.12 43.30,29.09 43.18,29.43 C 43.37,28.94 43.78,28.55 44.28,28.21 C 44.28,28.13 44.27,28.05 44.28,27.96 C 43.73,28.32 43.21,28.61 42.84,28.68 C 42.05,26.79 40.61,28.75 41.56,30 C 41.71,30.22 41.76,30.45 41.78,30.68 C 41.78,30.53 41.84,30.33 41.93,30.12 C 42.34,30.20 42.81,30.34 43.15,30 C 43.50,31.20 41.95,31.65 41.78,30.87 C 41.72,31.89 40.59,32.62 40.18,31.21 C 40.37,29.31 42.16,27.49 41.53,25.59 L 41.37,25.53 C 42.12,25.81 43.20,25.82 44.25,25.81 C 44.24,25.72 44.22,25.64 44.21,25.56 C 43.37,25.61 42.53,25.60 41.75,25.31 C 40.69,24.18 41.10,22.21 42.96,22.31 C 43.25,22.29 43.44,22.19 43.56,22.09 C 43.51,21.93 43.48,21.77 43.43,21.62 C 43.56,21.82 42.60,22.35 42.5,21.90 L 42.62,21.78 L 42.87,21.59 C 43.23,21.53 43.39,21.55 43.43,21.62 C 43.35,21.33 43.25,21.06 43.15,20.78 C 41.82,21.61 39.66,20.99 38.43,20.34 C 38.35,19.68 39.05,19.24 39.46,18.84 C 40.17,19.13 41.46,18.93 42.46,19 C 42.43,18.90 42.41,18.80 42.37,18.71 C 41.45,18.69 39.56,18.53 41.34,18.53 C 41.53,18.61 41.91,18.64 42.31,18.59 C 42.26,18.48 42.20,18.38 42.15,18.28 C 41.14,18.35 39.92,18.24 41.46,17.93 C 41.63,17.90 41.80,17.89 41.96,17.87 C 41.92,17.78 41.91,17.68 41.87,17.59 z M 9.78,33.56 C 8.83,31.56 8.20,29.42 7.12,27.5 C 7.44,26.87 6.95,23.81 6.56,25.87 C 6.36,26.50 6.02,29.58 6.25,27.43 C 6.33,26.63 5.23,25.29 5.37,26.90 C 5.38,26.99 5.36,27.11 5.37,27.21 C 5.45,27.37 5.56,27.52 5.65,27.68 C 5.65,26.99 5.75,26.22 5.90,27.46 C 5.94,27.67 5.93,27.89 5.93,28.12 C 5.94,28.13 5.93,28.14 5.93,28.15 C 6.08,28.40 6.21,28.65 6.37,28.90 C 6.48,28.38 6.59,27.87 6.65,27.34 C 6.95,27.70 6.85,28.89 6.68,29.37 C 6.76,29.49 6.85,29.62 6.93,29.75 C 7.09,28.82 7.04,27.48 7.65,29.25 C 8.12,30.12 8.46,31.42 8.90,32.5 C 9.19,32.87 9.49,33.20 9.78,33.56 z M 39.93,22.5 C 40.82,22.47 40.05,23.38 39.46,23.71 C 37.90,24.72 38.55,22.91 39.43,22.56 C 39.63,22.51 39.81,22.50 39.93,22.5 z M 40.84,23.25 C 41.87,24.35 40.08,25.55 39.62,24.03 C 40.05,23.81 40.43,23.50 40.84,23.25 z M 4.46,23.71 C 4.40,24.14 4.38,24.59 4.40,25.03 C 4.51,25.31 4.63,25.60 4.75,25.90 C 4.76,25.95 4.79,26.01 4.81,26.06 C 4.74,25.05 4.70,24.05 4.46,23.71 z M 6.84,25.90 C 6.97,26.93 6.51,27.44 6.84,25.90 z M 40.62,26.03 C 40.21,27.92 39.10,26.77 40.62,26.03 z M 26.93,27.59 C 28.98,27.74 30.57,29.70 30.09,31.62 C 31.05,33.05 27.28,31.71 27.87,32.62 C 29.92,32.42 27.39,33.95 27.21,32.5 C 26.03,31.34 24.87,28.43 26.93,27.59 z M 41.78,28.03 C 43.44,28.32 41.58,31.15 41.65,29 C 41.59,28.68 41.60,28.31 41.78,28.03 z M 38.53,28.09 C 40.51,27.89 40.66,31.96 38.40,31.37 C 36.55,31.99 34.72,30.67 35.43,28.71 C 36.17,28.12 37.26,28.42 38.12,28.18 C 38.27,28.13 38.39,28.10 38.53,28.09 z M 34.90,28.71 C 35.07,29.80 34.32,32.90 33.03,31.12 C 32.10,29.49 33.35,28.71 34.90,28.71 z M 42.81,29.37 C 43.48,30.15 41.15,30.00 42.81,29.37 z M 43.62,29.37 C 43.79,29.41 43.58,29.56 43.62,29.37 z M 32.28,29.65 C 33.45,30.96 30.84,33.26 31,30.90 C 30.65,29.91 31.72,29.99 32.28,29.65 z M 43.84,29.71 C 44.47,30.39 43.27,30.21 43.84,29.71 z M 35.06,29.84 C 35.65,30.43 35.57,32.25 34.78,31.34 C 34.87,30.84 34.98,30.34 35.06,29.84 z M 30.53,30.68 C 31.67,31.36 30.26,32.57 30.28,31.18 L 30.37,30.93 L 30.53,30.68 z M 32.75,31.12 C 33.15,31.73 32.48,31.99 32.75,31.12 z M 21.03,31.18 C 21.98,31.61 22.14,34.73 21.06,32.65 C 20.86,32.23 20.52,31.51 21.03,31.18 z M 39.81,31.31 C 39.89,31.57 39.45,31.61 39.81,31.31 z M 37.93,31.53 C 39.07,31.46 39.57,32.84 37.96,32.81 C 37.34,31.75 36.31,33.26 36.25,31.90 C 36.50,31.52 37.01,31.56 37.40,31.65 C 37.59,31.58 37.77,31.54 37.93,31.53 z M 35.81,31.78 C 37.22,33.33 33.15,32.45 35.18,31.84 C 35.39,31.82 35.60,31.78 35.81,31.78 z M 33.96,31.84 L 34.37,31.87 C 34.53,33.34 32.28,31.80 33.96,31.84 z M 39.81,31.84 C 41.24,33.36 37.87,32.97 39.81,31.84 z M 31.81,32 C 31.93,31.99 32.11,32.00 32.34,32.03 C 32.35,32.67 30.93,32.04 31.81,32 z M 32.65,32 C 33.84,31.87 32.34,33.14 32.65,32 z M 41.90,32.09 C 41.91,32.73 41.12,32.31 41.90,32.09 z M 40.56,32.12 C 41.62,32.08 40.79,33.30 40.56,32.12 z M 30.93,32.28 C 31.71,32.30 32.69,33.09 31.34,32.65 C 30.95,32.60 30.03,32.47 30.93,32.28 z M 40.40,32.43 C 41.09,32.61 40.27,32.91 40.40,32.43 z M 42.25,32.56 C 43.80,33.00 42.39,34.35 42.25,32.56 z M 41.96,32.59 C 42.56,33.33 42.54,35.11 41.62,33.65 C 41.46,33.29 41.51,32.71 41.96,32.59 z M 30,32.65 C 31.37,32.66 33.08,33.57 31.46,34.90 C 30.28,36.05 26.65,33.24 29.43,32.71 C 29.60,32.68 29.80,32.65 30,32.65 z M 32.96,32.71 C 33.62,32.77 32.89,33.51 32.59,32.75 C 32.75,32.72 32.87,32.71 32.96,32.71 z M 33.93,32.75 C 34.77,32.87 33.57,34.03 33.43,32.78 C 33.64,32.74 33.81,32.73 33.93,32.75 z M 35.03,32.75 C 36.26,32.72 37.13,33.84 36.5,35.09 C 36.79,36.25 34.50,36.19 35.59,35.15 C 35.65,34.20 34.01,33.84 34.46,32.84 C 34.65,32.79 34.85,32.75 35.03,32.75 z M 41.40,32.75 C 41.49,33.45 40.89,33.01 41.40,32.75 z M 36.71,32.90 C 36.89,32.86 36.70,33.33 36.62,32.96 C 36.66,32.93 36.69,32.91 36.71,32.90 z M 37.81,32.90 C 38.48,32.84 37.79,33.87 37.43,33 C 37.59,32.93 37.71,32.91 37.81,32.90 z M 40.71,32.93 C 40.74,32.93 40.76,32.94 40.81,32.96 C 40.81,33.46 40.54,32.96 40.71,32.93 z M 18.40,32.96 C 19.72,33.52 19.80,34.56 18.25,34.31 C 18.02,34.96 18.76,35.71 17.93,34.59 C 17.80,34.09 17.61,32.95 18.40,32.96 z M 37.12,32.96 C 37.58,33.44 36.77,33.37 37.12,32.96 z M 32.75,33.21 C 33.73,33.31 33.42,36.58 34.18,34.37 C 35.28,33.27 35.56,37.02 33.84,35.75 C 31.88,36.27 29.69,35.94 28.34,34.34 C 28.46,34.02 30.09,36.27 31.18,35.31 C 32.00,34.97 32.50,34.11 32.53,33.25 C 32.60,33.22 32.68,33.21 32.75,33.21 z M 40.96,33.21 C 41.79,33.81 41.32,35.38 40.93,33.81 C 40.81,33.64 40.71,33.33 40.96,33.21 z M 38.5,33.40 C 38.16,34.23 37.12,36.12 37.43,34.15 C 37.25,33.46 38.18,33.75 38.5,33.40 z M 33.56,33.5 C 34.52,34.00 33.34,35.25 33.59,33.75 C 33.58,33.66 33.57,33.58 33.56,33.5 z M 37,33.59 C 37.68,34.49 36.57,37.02 36.78,34.65 C 36.82,34.29 36.92,33.94 37,33.59 z M 14.84,33.68 C 15.59,33.96 16.41,35.99 15.37,34.43 C 15.20,34.18 15.03,33.92 14.84,33.68 z M 40.62,33.78 C 41.82,35.30 39.56,35.00 40.62,33.78 z M 16.75,33.84 C 17.34,34.65 17.41,35.37 16.84,34.12 C 16.80,34.03 16.77,33.94 16.75,33.84 z M 21.09,34.31 C 21.26,34.31 21.48,34.32 21.75,34.37 C 20.93,35.44 19.91,34.32 21.09,34.31 z M 22.28,34.34 C 22.80,34.36 22.84,34.95 22.03,34.37 C 22.12,34.35 22.20,34.34 22.28,34.34 z M 16.46,34.43 C 17.31,34.85 16.67,35.13 16.46,34.43 z M 20.06,34.43 C 21.34,35.96 16.82,34.41 19.37,34.46 C 19.60,34.45 19.83,34.44 20.06,34.43 z M 22.68,34.81 L 22.78,34.81 C 23.54,34.76 26.37,35.43 24.21,35.53 C 23.18,35.84 20.24,35.08 22.68,34.81 z M 24.84,34.90 C 25.73,34.82 27.15,35.24 25.5,35 C 25.28,34.97 25.05,34.95 24.84,34.90 z M 16.28,34.93 C 17.67,34.89 17.51,37.42 16.34,35.93 C 16.16,35.63 16.17,35.26 16.28,34.93 z M 21.03,35.03 C 21.06,35.03 21.09,35.04 21.15,35.06 C 21.09,35.51 20.79,35.03 21.03,35.03 z M 27.46,35.12 C 27.53,35.14 27.34,35.29 27.31,35.15 C 27.40,35.12 27.44,35.11 27.46,35.12 z M 18.90,35.18 C 20.05,35.36 19.79,35.81 18.96,35.25 L 18.90,35.18 z M 20.81,35.56 C 22.02,36.60 20.10,36.71 20.31,35.71 C 20.48,35.68 20.64,35.62 20.81,35.56 z M 19.31,35.75 C 21.20,36.34 20.92,39.00 22.5,40.06 C 21.02,39.92 20.70,37.67 19.84,36.56 C 19.68,36.28 19.50,36.00 19.31,35.75 z M 34.03,35.93 C 34.84,35.91 34.59,36.98 33.53,36.56 C 31.77,36.33 32.33,36.05 33.62,36.03 C 33.78,35.97 33.91,35.94 34.03,35.93 z M 35.43,36 C 36.42,35.92 37.94,37.03 36.15,36.87 C 35.62,36.82 34.07,37.09 35.06,36.12 C 35.17,36.05 35.29,36.01 35.43,36 z M 15.15,36.21 C 15.33,36.39 15.42,36.81 15.40,36.90 C 15.37,36.87 15.32,36.76 15.25,36.56 L 15.15,36.21 z M 37.81,36.21 C 38.92,36.21 41.05,36.67 38.93,36.81 C 38.43,36.80 37.02,37.31 37.40,36.25 C 37.50,36.22 37.65,36.21 37.81,36.21 z M 16.31,36.31 C 16.61,36.43 16.12,36.51 16.31,36.31 z M 31.34,36.40 C 31.95,36.61 34.50,36.88 32.59,37.28 C 31.83,37.48 28.98,37.22 31.34,36.40 z M 17.62,36.46 C 17.90,37.16 19.06,39.06 17.68,37.68 C 17.23,37.29 16.43,36.46 17.62,36.46 z M 21.43,36.75 C 22.29,37.21 20.94,37.04 21.43,36.75 z M 21.84,36.81 C 23.49,36.65 26.46,37.84 26.90,38.5 C 25.19,38.47 23.17,38.03 21.90,36.93 L 21.87,36.84 L 21.84,36.81 z M 34.12,36.96 C 34.96,37.11 36.42,37.43 34.75,37.34 C 33.88,37.41 32.09,37.71 33.84,37.12 C 33.93,37.07 34.03,37.01 34.12,36.96 z M 21.09,37.09 C 22.36,36.91 22.71,40.36 21.56,38.37 C 21.30,38.00 20.98,37.58 21.09,37.09 z M 27.56,37.09 C 28.36,37.00 31.18,37.54 28.93,37.59 C 28.00,37.70 25.63,37.50 25.65,37.18 C 26.29,37.11 26.92,37.09 27.56,37.09 z M 38.06,37.21 C 38.18,37.22 38.26,37.21 38.59,37.21 C 38.65,37.24 38.71,37.24 38.78,37.25 C 38.51,37.23 38.24,37.22 38.06,37.21 z M 36.68,37.53 C 37.98,38.42 35.15,38.24 34.59,38.28 C 32.86,38.26 33.60,37.47 34.84,37.65 C 35.45,37.60 36.07,37.55 36.68,37.53 z M 22.31,37.65 C 23.86,38.15 26.18,39.48 27.5,38.46 C 26.95,37.76 25.71,37.67 27.28,37.87 C 27.70,37.95 28.57,37.90 29.28,37.84 C 28.34,38.08 27.50,38.64 29.18,38.71 C 30.56,39.01 33.25,38.24 33.78,39.34 C 32.50,40.92 30.02,41.01 28.18,40.87 C 27.15,39.78 25.80,39.24 24.5,40.21 C 23.06,40.28 22.36,38.88 22.31,37.65 z M 29.75,37.75 C 29.89,37.73 30.03,37.73 30.15,37.75 C 30.34,37.73 29.85,37.76 29.37,37.81 C 29.49,37.78 29.63,37.76 29.75,37.75 z M 32.65,37.84 C 35.17,38.78 29.59,38.25 31.93,37.87 L 32.31,37.87 L 32.65,37.84 z M 30.81,38 C 32.19,38.95 27.21,38.27 29.56,38.15 C 29.97,38.09 30.39,38.05 30.81,38 z M 37.62,38.46 C 37.70,38.49 37.41,38.70 37.40,38.53 C 37.53,38.48 37.59,38.45 37.62,38.46 z M 35.40,38.5 L 35.71,38.5 C 36.82,38.40 37.45,38.66 35.96,38.68 C 35.32,38.80 33.37,38.60 35.09,38.53 L 35.40,38.5 z M 22.81,39.90 C 23.47,39.90 22.67,40.43 22.81,39.90 z M 26,40 C 26.20,39.98 26.42,40.00 26.62,40.03 C 28.59,40.93 25.49,41.07 25.40,40.18 C 25.58,40.06 25.79,40.01 26,40 z M 24.68,40.65 C 25.60,40.94 26.81,40.86 27.37,41.59 C 26.46,41.33 25.55,41.04 24.68,40.65 z M 27.53,41.06 C 27.85,41.03 27.56,41.76 27.34,41.12 C 27.41,41.08 27.48,41.06 27.53,41.06 z" id="p3292" style="fill:#f2d490;fill-opacity:0.20;fill-rule:evenodd;stroke:none;"/>
<path d="M 23.21,6.84 C 22.73,6.85 22.26,6.86 21.75,6.90 C 13.55,7.50 9.13,10.58 7.46,12.71 C 4.90,16.40 3.89,18.87 3.71,20.90 C 4.16,24.87 6.23,27.35 9.03,28.75 C 13.30,30.88 19.84,33.28 29.34,30.43 C 37.23,28.07 42.22,22.50 40.78,15.59 C 39.36,13.19 37.87,11.45 37.06,10.93 C 34.94,9.60 30.51,6.71 23.21,6.84 z" id="p3243" style="opacity:1;fill:#c3d936;fill-opacity:1;fill-rule:evenodd;stroke:none;marker:none;visibility:visible;display:inline;overflow:visible;enable-background:accumulate"/>
<path d="M 12.49,20.89 C 12.96,22.66 16.49,25.37 19.32,26.31" id="p3815" style="fill:none;fill-rule:evenodd;stroke:#0f892d;stroke-width:4.5;stroke-linecap:butt;stroke-linejoin:miter;stroke-miterlimit:4;stroke-dasharray:none;stroke-opacity:0.21"/>
<path d="M 23.21,6.84 C 22.73,6.85 22.26,6.86 21.75,6.90 C 13.55,7.50 9.13,10.58 7.46,12.71 C 4.90,16.40 3.89,18.87 3.71,20.90 C 3.72,20.97 3.74,21.02 3.75,21.09 C 8.68,12.25 19.27,7.19 31.56,8.15 C 29.35,7.37 26.60,6.78 23.21,6.84 z" id="p3809" style="fill:#328116;fill-opacity:0.17;fill-rule:evenodd;stroke:none;display:inline"/>
<path d="M 6.71,17.00 C 6.36,20.42 5.06,22.66 8.48,25.72" id="p3817" style="fill:none;fill-rule:evenodd;stroke:#d3e62d;stroke-width:3.20;stroke-linecap:butt;stroke-linejoin:miter;stroke-miterlimit:4;stroke-dasharray:none;stroke-opacity:0.41"/>
<path d="M 21.56,8.84 C 19.71,9.89 17.48,8.41 15.64,9.49 C 13.88,10.27 11.74,10.62 10.55,12.28 C 9.36,13.71 8.09,15.37 8.14,17.33 C 8.72,18.35 6.83,19.13 7.42,20.17 C 6.50,21.43 8.66,22.65 7.89,23.98 C 8.51,25.88 10.75,26.08 12.20,27.05 C 14.27,28.80 17.10,28.94 19.60,29.65 C 21.36,30.21 23.17,29.78 24.89,29.33 C 26.13,29.32 27.45,30.35 28.30,28.83 C 28.92,27.90 29.83,27.22 30.97,27.22 C 32.37,26.92 33.93,27.13 35.18,26.32 C 35.53,24.38 37.44,22.82 36.93,20.73 C 37.11,19.83 36.35,18.75 36.86,18.01 C 35.86,16.82 36.54,14.76 35.03,13.91 C 33.75,13.81 32.90,12.98 31.95,12.20 C 30.82,12.45 31.33,10.63 30.00,10.95 C 28.70,11.45 28.16,10.13 27.05,9.88 C 25.86,9.53 24.64,9.92 23.50,10.24 C 22.63,10.11 22.62,8.57 21.56,8.84 z M 21.34,11 C 21.72,12.57 23.56,12.85 24.71,12.29 C 25.46,12.43 27.68,11.39 26.82,12.88 C 25.62,13.22 25.38,15.30 26.57,15.78 C 27.77,15.85 28.26,14.34 29.43,14.14 C 31.13,13.25 31.08,15.92 32.67,15.56 C 33.47,15.37 34.35,15.99 33.55,16.73 C 34.23,17.84 35.14,19.11 34.22,20.37 C 34.20,21.02 35.29,22.41 33.91,22.21 C 32.97,22.93 34.37,25.47 32.41,24.82 C 31.00,25.52 29.14,24.98 27.95,26.18 C 27.33,27.44 25.76,27.19 24.61,27.28 C 23.37,27.67 22.07,27.96 20.75,27.77 C 18.86,27.55 17.04,26.97 15.22,26.44 C 14.14,26.05 13.10,25.50 12.22,24.76 C 12.26,23.42 10.49,23.39 9.93,23.28 C 10.20,21.76 9.06,20.10 10.10,18.71 C 10.42,17.64 10.35,16.40 10.85,15.34 C 11.52,13.43 13.39,12.37 15.23,11.83 C 16.44,11.11 17.67,11.24 19.03,11.34 C 19.81,11.32 20.59,11.21 21.34,11 z M 35.25,19.25 C 35.35,19.15 35.29,19.41 35.25,19.25 z M 9.12,19.93 C 8.73,20.34 8.63,20.13 9.12,19.93 z M 20.03,27.84 C 20.34,28.15 20.42,28.23 20.03,27.84 z" id="p3315" style="fill:#daec6b;fill-opacity:0.60;fill-rule:evenodd;stroke:none;display:inline"/>
<path d="M 44.09,29.87 C 40.38,36.70 34.68,40.36 30.87,40.75 C 28.57,40.97 26.10,41.68 23.90,42.5 C 25.15,42.78 26.40,42.93 27.56,42.78 C 32.90,42.06 40.50,40.75 43.59,31.84 C 43.81,31.19 43.97,30.53 44.09,29.87 z" id="p3258" style="opacity:1;fill:#eaeee3;fill-opacity:0.16;fill-rule:evenodd;stroke:none;display:inline"/>
<path d="M 21.12,36.93 C 18.81,36.90 16.70,37.60 14.75,38.28 C 17.43,40.01 23.03,43.38 27.56,42.78 C 29.54,42.51 31.83,42.16 34.09,41.37 C 27.86,40.93 28.51,38.47 23.5,37.25 C 22.68,37.05 21.89,36.94 21.12,36.93 z" id="p3273" style="opacity:1;fill:#d9e639;fill-opacity:0.06;fill-rule:evenodd;stroke:none;display:inline"/>
<path d="M 23.99,36.12 C 26.42,36.43 34.75,34.12 36.93,32.20" id="p3279" style="fill:none;fill-rule:evenodd;stroke:#904a23;stroke-width:7.40;stroke-linecap:round;stroke-linejoin:miter;stroke-miterlimit:4;stroke-dasharray:none;stroke-opacity:0.27"/>
<path d="M 17.99,16.94 C 17.93,14.56 15.79,11.12 15.55,10.29" id="p3345" style="opacity:1;fill:none;fill-opacity:1;fill-rule:evenodd;stroke:#fdffb3;stroke-width:0.5;stroke-linecap:round;stroke-linejoin:miter;marker:none;stroke-miterlimit:4;stroke-dasharray:none;stroke-dashoffset:0;stroke-opacity:0.41;visibility:visible;display:inline;overflow:visible;enable-background:accumulate"/>
<path d="M 17.75,9.45 C 18.05,10.58 18.64,15.39 18.34,16.34" id="p3347" style="opacity:1;fill:none;fill-opacity:1;fill-rule:evenodd;stroke:#fdffb3;stroke-width:0.5;stroke-linecap:round;stroke-linejoin:miter;marker:none;stroke-miterlimit:4;stroke-dasharray:none;stroke-dashoffset:0;stroke-opacity:0.41;visibility:visible;display:inline;overflow:visible;enable-background:accumulate"/>
<path d="M 20.30,9.93 C 19.89,11.65 18.88,15.10 18.70,16.58" id="p3349" style="opacity:1;fill:none;fill-opacity:1;fill-rule:evenodd;stroke:#fdffb3;stroke-width:0.5;stroke-linecap:round;stroke-linejoin:miter;marker:none;stroke-miterlimit:4;stroke-dasharray:none;stroke-dashoffset:0;stroke-opacity:0.41;visibility:visible;display:inline;overflow:visible;enable-background:accumulate"/>
<path d="M 22.44,10.11 C 21.14,12.60 19.53,16.70 19.35,17.35" id="p3351" style="opacity:1;fill:none;fill-opacity:1;fill-rule:evenodd;stroke:#fdffb3;stroke-width:0.5;stroke-linecap:round;stroke-linejoin:miter;marker:none;stroke-miterlimit:4;stroke-dasharray:none;stroke-dashoffset:0;stroke-opacity:0.41;visibility:visible;display:inline;overflow:visible;enable-background:accumulate"/>
<path d="M 24.28,10.82 C 22.20,14.26 20.60,17.00 20.30,17.41" id="p3353" style="opacity:1;fill:none;fill-opacity:1;fill-rule:evenodd;stroke:#fdffb3;stroke-width:0.5;stroke-linecap:round;stroke-linejoin:miter;marker:none;stroke-miterlimit:4;stroke-dasharray:none;stroke-dashoffset:0;stroke-opacity:0.41;visibility:visible;display:inline;overflow:visible;enable-background:accumulate"/>
<path d="M 25.35,11.89 C 22.50,15.99 21.43,17.17 21.14,18.07" id="p3355" style="opacity:1;fill:none;fill-opacity:1;fill-rule:evenodd;stroke:#fdffb3;stroke-width:0.5;stroke-linecap:round;stroke-linejoin:miter;marker:none;stroke-miterlimit:4;stroke-dasharray:none;stroke-dashoffset:0;stroke-opacity:0.41;visibility:visible;display:inline;overflow:visible;enable-background:accumulate"/>
<path d="M 27.85,11.71 C 25.89,13.49 22.92,17.65 22.38,18.54" id="p3357" style="opacity:1;fill:none;fill-opacity:1;fill-rule:evenodd;stroke:#fdffb3;stroke-width:0.5;stroke-linecap:round;stroke-linejoin:miter;marker:none;stroke-miterlimit:4;stroke-dasharray:none;stroke-dashoffset:0;stroke-opacity:0.41;visibility:visible;display:inline;overflow:visible;enable-background:accumulate"/>
<path d="M 31.29,13.20 C 28.32,15.75 25.71,17.95 24.40,19.25" id="p3359" style="opacity:1;fill:none;fill-opacity:1;fill-rule:evenodd;stroke:#fdffb3;stroke-width:0.5;stroke-linecap:round;stroke-linejoin:miter;marker:none;stroke-miterlimit:4;stroke-dasharray:none;stroke-dashoffset:0;stroke-opacity:0.41;visibility:visible;display:inline;overflow:visible;enable-background:accumulate"/>
<path d="M 32.60,14.32 C 29.45,16.22 26.42,18.42 25.41,19.49" id="p3361" style="opacity:1;fill:none;fill-opacity:1;fill-rule:evenodd;stroke:#fdffb3;stroke-width:0.5;stroke-linecap:round;stroke-linejoin:miter;marker:none;stroke-miterlimit:4;stroke-dasharray:none;stroke-dashoffset:0;stroke-opacity:0.41;visibility:visible;display:inline;overflow:visible;enable-background:accumulate"/>
<path d="M 17.93,15.69 C 16.86,15.93 16.86,16.64 16.86,17.47 C 16.86,18.30 16.03,18.42 16.86,19.25 C 17.69,20.08 19.71,20.56 20.66,21.03 C 21.61,21.51 22.80,22.58 25.29,22.58 C 27.79,22.58 29.57,21.75 27.19,19.97 C 24.82,18.18 22.80,18.30 21.85,17.71 C 20.90,17.11 18.76,15.10 17.93,15.69 z" id="p3249" style="fill:#fefeb1;fill-opacity:1;fill-rule:evenodd;stroke:none;display:inline"/>
<path d="M 18.93,11.78 C 17.64,12.32 17.19,13.92 15.84,14.45 C 14.21,14.91 12.67,16.45 13.43,18.25 C 14.21,19.35 13.70,21.11 14.99,21.87 C 16.77,22.24 16.74,24.29 18.81,24.51 C 20.88,25.42 22.58,26.94 25.02,26.18 C 26.18,26.05 28.46,25.42 28.71,25.03 C 29.07,25.44 31.01,24.56 31.50,23.74 C 32.45,22.67 32.38,21.51 32.19,20.09 C 32.38,18.38 31.27,17.16 30.09,16.30 C 28.65,16.79 27.17,16.56 26.00,15.46 C 24.85,14.09 22.74,14.70 21.74,13.45 C 20.90,12.75 20.12,12.93 19.60,11.94 C 19.40,11.82 19.16,11.76 18.93,11.78 z M 18.62,15.12 C 19.45,15.93 20.87,14.94 21.53,16.20 C 23.30,16.37 24.88,16.89 26.24,18.08 C 27.58,19.54 29.82,17.82 30.00,20.43 C 30.27,22.74 28.82,22.07 27.51,23.33 C 27.39,24.58 26.47,23.16 25.57,23.89 C 23.90,24.64 22.45,24.53 21.08,23.58 C 19.90,22.97 18.43,22.73 18.47,21.18 C 17.37,20.49 15.70,20.16 15.77,18.48 C 14.54,16.65 17.45,16.28 18.33,15.18 L 18.62,15.12 z M 28.90,24.05 C 28.99,24.31 28.98,24.27 28.90,24.05 z" id="p3433" style="fill:#0e3011;fill-opacity:0.23;fill-rule:evenodd;stroke:none;display:inline"/>
<path d="M 19.21,11.93 C 18.97,11.93 18.78,12.21 18.78,12.56 C 18.78,12.91 18.97,13.18 19.21,13.18 C 19.46,13.18 19.68,12.91 19.68,12.56 C 19.68,12.21 19.46,11.93 19.21,11.93 z" id="p3575" style="fill:#603811;fill-opacity:1;fill-rule:evenodd;stroke:none;marker:none;visibility:visible;display:inline;overflow:visible;enable-background:accumulate"/>
<path d="M 17.87,12.31 C 17.65,12.31 17.46,12.53 17.46,12.81 C 17.46,13.09 17.65,13.31 17.87,13.31 C 18.09,13.31 18.28,13.09 18.28,12.81 C 18.28,12.53 18.09,12.31 17.87,12.31 z" id="p3573" style="fill:#603811;fill-opacity:1;fill-rule:evenodd;stroke:none;marker:none;visibility:visible;display:inline;overflow:visible;enable-background:accumulate"/>
<path d="M 16.28,13.06 C 16.21,13.05 16.14,13.06 16.09,13.09 C 15.87,13.20 15.83,13.56 16,13.87 C 16.16,14.18 16.47,14.33 16.68,14.21 C 16.90,14.10 16.94,13.74 16.78,13.43 C 16.65,13.20 16.46,13.07 16.28,13.06 z" id="p3571" style="fill:#603811;fill-opacity:1;fill-rule:evenodd;stroke:none;marker:none;visibility:visible;display:inline;overflow:visible;enable-background:accumulate"/>
<path d="M 22,13.15 C 21.82,13.15 21.64,13.27 21.53,13.5 C 21.38,13.79 21.42,14.14 21.62,14.28 C 21.82,14.41 22.10,14.29 22.25,14 C 22.39,13.70 22.35,13.35 22.15,13.21 C 22.10,13.18 22.05,13.15 22,13.15 z" id="p3569" style="fill:#603811;fill-opacity:1;fill-rule:evenodd;stroke:none;marker:none;visibility:visible;display:inline;overflow:visible;enable-background:accumulate"/>
<path d="M 17.96,13.87 C 17.77,13.87 17.62,14.09 17.62,14.37 C 17.62,14.65 17.77,14.87 17.96,14.87 C 18.16,14.87 18.31,14.65 18.31,14.37 C 18.31,14.09 18.16,13.87 17.96,13.87 z" id="p3567" style="fill:#603811;fill-opacity:0.59;fill-rule:evenodd;stroke:none;marker:none;visibility:visible;display:inline;overflow:visible;enable-background:accumulate"/>
<path d="M 23.03,13.87 C 22.89,13.89 22.73,14.02 22.59,14.21 C 22.34,14.57 22.24,15.04 22.37,15.28 C 22.50,15.51 22.81,15.41 23.06,15.06 C 23.31,14.71 23.40,14.23 23.28,14 C 23.24,13.94 23.20,13.89 23.15,13.87 C 23.11,13.86 23.07,13.86 23.03,13.87 z" id="p3565" style="fill:#603811;fill-opacity:1;fill-rule:evenodd;stroke:none;marker:none;visibility:visible;display:inline;overflow:visible;enable-background:accumulate"/>
<path d="M 14.87,14.06 C 14.81,14.07 14.76,14.11 14.71,14.15 C 14.54,14.33 14.59,14.66 14.84,14.90 C 14.86,14.92 14.88,14.95 14.90,14.96 C 15.14,15.16 15.46,15.19 15.62,15.03 C 15.79,14.85 15.71,14.52 15.46,14.28 C 15.28,14.09 15.05,14.01 14.87,14.06 z" id="p3563" style="fill:#603811;fill-opacity:0.65;fill-rule:evenodd;stroke:none;marker:none;visibility:visible;display:inline;overflow:visible;enable-background:accumulate"/>
<path d="M 14.90,14.96 C 14.67,14.80 14.33,14.74 14.18,14.87 C 14.03,15.00 14.10,15.24 14.34,15.40 C 14.57,15.57 14.91,15.62 15.06,15.5 C 15.10,15.46 15.11,15.41 15.12,15.37 C 15.15,15.24 15.08,15.09 14.90,14.96 z" id="p3561" style="fill:#603811;fill-opacity:1;fill-rule:evenodd;stroke:none;marker:none;visibility:visible;display:inline;overflow:visible;enable-background:accumulate"/>
<path d="M 19.78,14.25 C 19.56,14.25 19.37,14.47 19.37,14.75 C 19.37,15.02 19.56,15.25 19.78,15.25 C 20.00,15.25 20.18,15.02 20.18,14.75 C 20.18,14.47 20.00,14.25 19.78,14.25 z" id="p3559" style="fill:#603811;fill-opacity:1;fill-rule:evenodd;stroke:none;marker:none;visibility:visible;display:inline;overflow:visible;enable-background:accumulate"/>
<path d="M 24.5,14.34 C 24.38,14.30 24.20,14.40 24.06,14.59 C 23.86,14.84 23.77,15.17 23.87,15.34 C 23.97,15.51 24.20,15.47 24.40,15.21 C 24.60,14.96 24.69,14.60 24.59,14.43 C 24.56,14.39 24.53,14.35 24.5,14.34 z" id="p3557" style="fill:#603811;fill-opacity:1;fill-rule:evenodd;stroke:none;marker:none;visibility:visible;display:inline;overflow:visible;enable-background:accumulate"/>
<path d="M 24.84,15.25 C 24.74,15.27 24.64,15.35 24.53,15.43 C 24.23,15.66 24.01,16.02 24.06,16.25 C 24.11,16.47 24.39,16.47 24.68,16.25 C 24.98,16.02 25.20,15.66 25.15,15.43 C 25.14,15.38 25.10,15.30 25.06,15.28 C 25.00,15.23 24.93,15.22 24.84,15.25 z" id="p3555" style="fill:#603811;fill-opacity:0.79;fill-rule:evenodd;stroke:none;marker:none;visibility:visible;display:inline;overflow:visible;enable-background:accumulate"/>
<path d="M 13.84,15.43 C 13.67,15.43 13.52,15.48 13.43,15.56 C 13.26,15.71 13.37,15.95 13.71,16.09 C 14.06,16.23 14.51,16.24 14.68,16.09 C 14.73,16.05 14.74,16.01 14.75,15.96 C 14.76,15.82 14.63,15.66 14.37,15.56 C 14.20,15.49 14.01,15.43 13.84,15.43 z" id="p3553" style="fill:#603811;fill-opacity:1;fill-rule:evenodd;stroke:none;marker:none;visibility:visible;display:inline;overflow:visible;enable-background:accumulate"/>
<path d="M 23.5,15.43 C 23.38,15.45 23.24,15.57 23.12,15.75 C 22.90,16.05 22.82,16.45 22.93,16.65 C 23.04,16.85 23.28,16.80 23.5,16.5 C 23.71,16.19 23.82,15.76 23.71,15.56 C 23.69,15.51 23.66,15.48 23.62,15.46 C 23.59,15.45 23.53,15.43 23.5,15.43 z" id="p3551" style="fill:#603811;fill-opacity:1;fill-rule:evenodd;stroke:none;marker:none;visibility:visible;display:inline;overflow:visible;enable-background:accumulate"/>
<path d="M 30.28,16.34 C 30.07,16.35 29.80,16.47 29.59,16.68 C 29.30,16.96 29.20,17.27 29.40,17.37 C 29.60,17.47 29.99,17.37 30.28,17.09 C 30.56,16.81 30.66,16.47 30.46,16.37 C 30.41,16.34 30.35,16.34 30.28,16.34 z" id="p3549" style="fill:#603811;fill-opacity:1;fill-rule:evenodd;stroke:none;marker:none;visibility:visible;display:inline;overflow:visible;enable-background:accumulate"/>
<path d="M 13.28,16.40 C 13.06,16.41 12.89,16.51 12.84,16.65 C 12.77,16.84 12.94,17.03 13.25,17.09 C 13.55,17.15 13.87,17.06 13.93,16.87 C 13.95,16.82 13.95,16.76 13.93,16.71 C 13.89,16.58 13.72,16.45 13.5,16.40 C 13.42,16.39 13.35,16.40 13.28,16.40 z" id="p3547" style="fill:#603811;fill-opacity:1;fill-rule:evenodd;stroke:none;marker:none;visibility:visible;display:inline;overflow:visible;enable-background:accumulate"/>
<path d="M 26.78,16.43 C 26.63,16.39 26.36,16.46 26.12,16.65 C 25.80,16.90 25.62,17.26 25.71,17.43 C 25.81,17.61 26.15,17.56 26.46,17.31 C 26.78,17.06 26.96,16.70 26.87,16.53 C 26.85,16.48 26.83,16.45 26.78,16.43 z" id="p3545" style="fill:#603811;fill-opacity:1;fill-rule:evenodd;stroke:none;marker:none;visibility:visible;display:inline;overflow:visible;enable-background:accumulate"/>
<path d="M 24.65,16.46 C 24.53,16.47 24.37,16.51 24.25,16.59 C 23.91,16.81 23.74,17.23 23.87,17.5 C 24.00,17.76 24.34,17.81 24.68,17.59 C 25.02,17.37 25.22,16.98 25.09,16.71 C 25.06,16.65 25.02,16.56 24.96,16.53 C 24.88,16.47 24.78,16.45 24.65,16.46 z" id="p3543" style="fill:#603811;fill-opacity:1;fill-rule:evenodd;stroke:none;marker:none;visibility:visible;display:inline;overflow:visible;enable-background:accumulate"/>
<path d="M 14.81,16.62 C 14.40,16.63 14.06,16.80 14.03,17 C 14.00,17.19 14.28,17.35 14.68,17.34 C 15.09,17.33 15.46,17.16 15.5,16.96 C 15.50,16.91 15.49,16.88 15.46,16.84 C 15.37,16.71 15.11,16.62 14.81,16.62 z" id="p3541" style="fill:#603811;fill-opacity:1;fill-rule:evenodd;stroke:none;marker:none;visibility:visible;display:inline;overflow:visible;enable-background:accumulate"/>
<path d="M 27.34,16.84 C 27.17,16.84 26.97,16.90 26.81,17.06 C 26.52,17.34 26.41,17.76 26.59,18 C 26.76,18.23 27.14,18.21 27.43,17.93 C 27.72,17.65 27.83,17.23 27.65,17 C 27.61,16.94 27.56,16.90 27.5,16.87 C 27.45,16.85 27.40,16.84 27.34,16.84 z" id="p3539" style="fill:#603811;fill-opacity:1;fill-rule:evenodd;stroke:none;marker:none;visibility:visible;display:inline;overflow:visible;enable-background:accumulate"/>
<path d="M 30.96,17.31 C 30.76,17.32 30.49,17.44 30.28,17.65 C 29.99,17.93 29.89,18.27 30.09,18.37 C 30.29,18.47 30.68,18.33 30.96,18.06 C 31.25,17.78 31.35,17.47 31.15,17.37 C 31.10,17.34 31.03,17.30 30.96,17.31 z" id="p3537" style="fill:#603811;fill-opacity:1;fill-rule:evenodd;stroke:none;marker:none;visibility:visible;display:inline;overflow:visible;enable-background:accumulate"/>
<path d="M 14.87,17.37 C 14.47,17.38 14.09,17.61 14.06,17.90 C 14.03,18.20 14.34,18.44 14.75,18.43 C 15.15,18.42 15.50,18.20 15.53,17.90 C 15.53,17.83 15.53,17.75 15.5,17.68 C 15.40,17.49 15.17,17.36 14.87,17.37 z" id="p3535" style="fill:#603811;fill-opacity:1;fill-rule:evenodd;stroke:none;marker:none;visibility:visible;display:inline;overflow:visible;enable-background:accumulate"/>
<path d="M 13.03,17.68 C 12.72,17.70 12.45,17.86 12.43,18.06 C 12.41,18.25 12.63,18.41 12.93,18.40 C 13.24,18.39 13.51,18.22 13.53,18.03 C 13.53,17.98 13.55,17.91 13.53,17.87 C 13.45,17.75 13.26,17.67 13.03,17.68 z" id="p3533" style="fill:#603811;fill-opacity:0.84;fill-rule:evenodd;stroke:none;marker:none;visibility:visible;display:inline;overflow:visible;enable-background:accumulate"/>
<path d="M 32.03,18.37 C 31.82,18.33 31.50,18.40 31.25,18.56 C 30.90,18.76 30.76,19.04 30.93,19.18 C 31.10,19.33 31.50,19.29 31.84,19.09 C 32.18,18.88 32.35,18.61 32.18,18.46 C 32.14,18.43 32.09,18.38 32.03,18.37 z" id="p3529" style="fill:#603811;fill-opacity:0.84;fill-rule:evenodd;stroke:none;marker:none;visibility:visible;display:inline;overflow:visible;enable-background:accumulate"/>
<path d="M 27.37,18.40 C 27.28,18.43 27.21,18.48 27.12,18.56 C 26.89,18.78 26.79,19.12 26.93,19.31 C 27.07,19.49 27.36,19.50 27.59,19.28 C 27.82,19.06 27.91,18.71 27.78,18.53 C 27.74,18.48 27.70,18.42 27.65,18.40 C 27.58,18.37 27.46,18.37 27.37,18.40 z" id="p3527" style="fill:#603811;fill-opacity:1;fill-rule:evenodd;stroke:none;marker:none;visibility:visible;display:inline;overflow:visible;enable-background:accumulate"/>
<path d="M 12.25,19.09 C 12.13,19.07 11.99,19.09 11.84,19.12 C 11.45,19.21 11.11,19.45 11.12,19.65 C 11.13,19.85 11.45,19.93 11.84,19.84 C 12.23,19.75 12.57,19.54 12.56,19.34 C 12.56,19.29 12.53,19.25 12.5,19.21 C 12.44,19.16 12.36,19.10 12.25,19.09 z" id="p3525" style="fill:#603811;fill-opacity:1;fill-rule:evenodd;stroke:none;marker:none;visibility:visible;display:inline;overflow:visible;enable-background:accumulate"/>
<path d="M 32.5,19.40 C 32.36,19.41 32.20,19.41 32.06,19.46 C 31.68,19.60 31.48,19.85 31.62,20.03 C 31.76,20.20 32.15,20.25 32.53,20.12 C 32.90,19.99 33.13,19.73 33,19.56 C 32.96,19.51 32.90,19.49 32.84,19.46 C 32.74,19.42 32.63,19.40 32.5,19.40 z" id="p3521" style="fill:#603811;fill-opacity:0.66;fill-rule:evenodd;stroke:none;marker:none;visibility:visible;display:inline;overflow:visible;enable-background:accumulate"/>
<path d="M 31.37,20.87 C 31.23,20.86 31.11,20.87 30.96,20.90 C 30.58,20.99 30.32,21.24 30.43,21.43 C 30.55,21.62 30.95,21.71 31.34,21.62 C 31.73,21.53 31.99,21.28 31.87,21.09 C 31.84,21.04 31.81,21.00 31.75,20.96 C 31.65,20.91 31.51,20.88 31.37,20.87 z" id="p3519" style="fill:#603811;fill-opacity:0.68;fill-rule:evenodd;stroke:none;marker:none;visibility:visible;display:inline;overflow:visible;enable-background:accumulate"/>
<path d="M 14.75,21.37 C 14.63,21.37 14.51,21.38 14.37,21.43 C 13.99,21.56 13.68,21.83 13.71,22.03 C 13.74,22.22 14.05,22.28 14.43,22.15 C 14.81,22.02 15.12,21.75 15.09,21.56 C 15.08,21.51 15.07,21.46 15.03,21.43 C 14.96,21.39 14.86,21.37 14.75,21.37 z" id="p3517" style="fill:#603811;fill-opacity:1;fill-rule:evenodd;stroke:none;marker:none;visibility:visible;display:inline;overflow:visible;enable-background:accumulate"/>
<path d="M 19.90,21.53 C 19.83,21.53 19.76,21.54 19.68,21.56 C 19.30,21.67 19.01,22.02 19.06,22.31 C 19.10,22.60 19.42,22.73 19.81,22.62 C 20.19,22.51 20.51,22.19 20.46,21.90 C 20.45,21.83 20.42,21.77 20.37,21.71 C 20.27,21.59 20.11,21.52 19.90,21.53 z" id="p3515" style="fill:#603811;fill-opacity:1;fill-rule:evenodd;stroke:none;marker:none;visibility:visible;display:inline;overflow:visible;enable-background:accumulate"/>
<path d="M 16.09,21.78 C 15.98,21.81 15.84,21.85 15.71,21.93 C 15.38,22.16 15.16,22.50 15.25,22.68 C 15.33,22.86 15.66,22.85 16,22.62 C 16.33,22.39 16.55,22.05 16.46,21.87 C 16.44,21.82 16.42,21.79 16.37,21.78 C 16.30,21.75 16.20,21.75 16.09,21.78 z" id="p3513" style="fill:#603811;fill-opacity:0.79;fill-rule:evenodd;stroke:none;marker:none;visibility:visible;display:inline;overflow:visible;enable-background:accumulate"/>
<path d="M 17.65,21.87 C 17.54,21.89 17.43,21.95 17.34,22.06 C 17.16,22.27 17.14,22.57 17.31,22.71 C 17.48,22.86 17.75,22.80 17.93,22.59 C 18.11,22.38 18.13,22.08 17.96,21.93 C 17.88,21.86 17.77,21.85 17.65,21.87 z" id="p3511" style="fill:#603811;fill-opacity:1;fill-rule:evenodd;stroke:none;marker:none;visibility:visible;display:inline;overflow:visible;enable-background:accumulate"/>
<path d="M 32.06,22.03 C 31.66,22.02 31.37,22.19 31.43,22.40 C 31.50,22.61 31.88,22.80 32.28,22.81 C 32.68,22.82 32.97,22.65 32.90,22.43 C 32.89,22.38 32.86,22.32 32.81,22.28 C 32.66,22.14 32.36,22.03 32.06,22.03 z" id="p3509" style="fill:#603811;fill-opacity:1;fill-rule:evenodd;stroke:none;marker:none;visibility:visible;display:inline;overflow:visible;enable-background:accumulate"/>
<path d="M 21.53,22.5 C 21.38,22.50 21.22,22.62 21.12,22.81 C 20.99,23.05 21.01,23.34 21.18,23.43 C 21.35,23.53 21.61,23.40 21.75,23.15 C 21.88,22.91 21.85,22.62 21.68,22.53 C 21.64,22.50 21.58,22.49 21.53,22.5 z" id="p3505" style="fill:#603811;fill-opacity:1;fill-rule:evenodd;stroke:none;marker:none;visibility:visible;display:inline;overflow:visible;enable-background:accumulate"/>
<path d="M 18.93,23.12 C 18.81,23.12 18.66,23.15 18.53,23.21 C 18.16,23.39 17.93,23.78 18.03,24.06 C 18.12,24.34 18.48,24.42 18.84,24.25 C 19.20,24.07 19.43,23.71 19.34,23.43 C 19.32,23.36 19.30,23.29 19.25,23.25 C 19.16,23.18 19.06,23.12 18.93,23.12 z" id="p3503" style="fill:#603811;fill-opacity:0.75;fill-rule:evenodd;stroke:none;marker:none;visibility:visible;display:inline;overflow:visible;enable-background:accumulate"/>
<path d="M 30.09,23.21 C 30.03,23.23 30.01,23.26 29.96,23.31 C 29.79,23.48 29.84,23.82 30.09,24.06 C 30.34,24.30 30.67,24.36 30.84,24.18 C 31.01,24.01 30.96,23.64 30.71,23.40 C 30.53,23.22 30.27,23.17 30.09,23.21 z" id="p3501" style="fill:#603811;fill-opacity:0.87;fill-rule:evenodd;stroke:none;marker:none;visibility:visible;display:inline;overflow:visible;enable-background:accumulate"/>
<path d="M 16.93,23.43 C 16.82,23.46 16.68,23.53 16.56,23.62 C 16.22,23.85 16.01,24.19 16.09,24.37 C 16.17,24.55 16.51,24.50 16.84,24.28 C 17.17,24.05 17.39,23.74 17.31,23.56 C 17.29,23.51 17.26,23.45 17.21,23.43 C 17.14,23.40 17.05,23.40 16.93,23.43 z" id="p3497" style="fill:#603811;fill-opacity:1;fill-rule:evenodd;stroke:none;marker:none;visibility:visible;display:inline;overflow:visible;enable-background:accumulate"/>
<path d="M 28.15,24.40 C 28.09,24.42 28.04,24.45 28,24.5 C 27.83,24.67 27.90,25.00 28.15,25.25 C 28.40,25.49 28.73,25.54 28.90,25.37 C 29.07,25.20 29.03,24.86 28.78,24.62 C 28.59,24.44 28.33,24.35 28.15,24.40 z" id="p3493" style="fill:#603811;fill-opacity:0.60;fill-rule:evenodd;stroke:none;marker:none;visibility:visible;display:inline;overflow:visible;enable-background:accumulate"/>
<path d="M 19.62,24.43 C 19.53,24.46 19.42,24.51 19.34,24.59 C 19.11,24.81 19.01,25.12 19.15,25.31 C 19.29,25.49 19.58,25.50 19.81,25.28 C 20.04,25.06 20.13,24.71 20,24.53 C 19.96,24.48 19.92,24.45 19.87,24.43 C 19.79,24.40 19.71,24.41 19.62,24.43 z" id="p3491" style="fill:#603811;fill-opacity:0.89;fill-rule:evenodd;stroke:none;marker:none;visibility:visible;display:inline;overflow:visible;enable-background:accumulate"/>
<path d="M 26.31,25.06 C 26.15,25.12 26.04,25.32 26.03,25.56 C 26.01,25.87 26.17,26.17 26.40,26.21 C 26.63,26.26 26.82,26.03 26.84,25.71 C 26.86,25.40 26.69,25.10 26.46,25.06 C 26.41,25.05 26.36,25.04 26.31,25.06 z" id="p3372" style="fill:#603811;fill-opacity:1;fill-rule:evenodd;stroke:none;marker:none;visibility:visible;display:inline;overflow:visible;enable-background:accumulate"/>
<path d="M 26.62,19.66 C 27.98,18.64 33.44,15.30 34.71,14.99" id="p3661" style="opacity:1;fill:none;fill-opacity:1;fill-rule:evenodd;stroke:#fdffb3;stroke-width:0.5;stroke-linecap:round;stroke-linejoin:miter;marker:none;stroke-miterlimit:4;stroke-dasharray:none;stroke-dashoffset:0;stroke-opacity:0.41;visibility:visible;display:inline;overflow:visible;enable-background:accumulate"/>
<path d="M 28.93,17.81 C 28.81,17.82 28.68,17.85 28.56,17.93 C 28.22,18.15 28.02,18.54 28.15,18.81 C 28.28,19.07 28.66,19.15 29,18.93 C 29.33,18.71 29.50,18.29 29.37,18.03 C 29.34,17.96 29.30,17.91 29.25,17.87 C 29.16,17.81 29.06,17.80 28.93,17.81 z" id="p3531" style="fill:#603811;fill-opacity:1;fill-rule:evenodd;stroke:none;marker:none;visibility:visible;display:inline;overflow:visible;enable-background:accumulate"/>
<path d="M 26.84,20.18 C 29.52,18.73 33.70,16.62 34.32,16.49" id="p3663" style="opacity:1;fill:none;fill-opacity:1;fill-rule:evenodd;stroke:#fdffb3;stroke-width:0.5;stroke-linecap:round;stroke-linejoin:miter;marker:none;stroke-miterlimit:4;stroke-dasharray:none;stroke-dashoffset:0;stroke-opacity:0.41;visibility:visible;display:inline;overflow:visible;enable-background:accumulate"/>
<path d="M 31.50,19.17 C 32.87,18.56 35.59,17.59 35.90,17.59" id="p3665" style="opacity:1;fill:none;fill-opacity:1;fill-rule:evenodd;stroke:#fdffb3;stroke-width:0.5;stroke-linecap:round;stroke-linejoin:miter;marker:none;stroke-miterlimit:4;stroke-dasharray:none;stroke-dashoffset:0;stroke-opacity:0.41;visibility:visible;display:inline;overflow:visible;enable-background:accumulate"/>
<path d="M 28.11,21.15 C 30.40,20.32 35.15,19.57 36.12,19.52" id="p3667" style="opacity:1;fill:none;fill-opacity:1;fill-rule:evenodd;stroke:#fdffb3;stroke-width:0.5;stroke-linecap:round;stroke-linejoin:miter;marker:none;stroke-miterlimit:4;stroke-dasharray:none;stroke-dashoffset:0;stroke-opacity:0.41;visibility:visible;display:inline;overflow:visible;enable-background:accumulate"/>
<path d="M 27.98,21.55 C 31.11,21.46 35.64,21.42 36.34,21.59" id="p3669" style="opacity:1;fill:none;fill-opacity:1;fill-rule:evenodd;stroke:#fdffb3;stroke-width:0.5;stroke-linecap:round;stroke-linejoin:miter;marker:none;stroke-miterlimit:4;stroke-dasharray:none;stroke-dashoffset:0;stroke-opacity:0.41;visibility:visible;display:inline;overflow:visible;enable-background:accumulate"/>
<path d="M 27.37,21.50 C 28.25,21.64 33.61,24.23 34.19,24.28" id="p3671" style="opacity:1;fill:none;fill-opacity:1;fill-rule:evenodd;stroke:#fdffb3;stroke-width:0.5;stroke-linecap:round;stroke-linejoin:miter;marker:none;stroke-miterlimit:4;stroke-dasharray:none;stroke-dashoffset:0;stroke-opacity:0.41;visibility:visible;display:inline;overflow:visible;enable-background:accumulate"/>
<path d="M 26.93,21.90 C 27.94,22.78 29.08,24.45 29.48,24.72 C 29.87,24.98 31.24,25.55 31.50,25.82" id="p3673" style="opacity:1;fill:none;fill-opacity:1;fill-rule:evenodd;stroke:#fdffb3;stroke-width:0.5;stroke-linecap:round;stroke-linejoin:miter;marker:none;stroke-miterlimit:4;stroke-dasharray:none;stroke-dashoffset:0;stroke-opacity:0.41;visibility:visible;display:inline;overflow:visible;enable-background:accumulate"/>
<path d="M 25.74,21.99 C 26.18,22.65 27.54,25.55 27.67,26.56" id="p3675" style="opacity:1;fill:none;fill-opacity:1;fill-rule:evenodd;stroke:#fdffb3;stroke-width:0.5;stroke-linecap:round;stroke-linejoin:miter;marker:none;stroke-miterlimit:4;stroke-dasharray:none;stroke-dashoffset:0;stroke-opacity:0.41;visibility:visible;display:inline;overflow:visible;enable-background:accumulate"/>
<path d="M 26.06,23.68 C 25.90,23.73 25.77,23.92 25.75,24.15 C 25.71,24.47 25.86,24.78 26.09,24.84 C 26.31,24.89 26.52,24.68 26.56,24.37 C 26.59,24.06 26.44,23.74 26.21,23.68 C 26.16,23.67 26.11,23.67 26.06,23.68 z" id="p3495" style="fill:#603811;fill-opacity:1;fill-rule:evenodd;stroke:none;marker:none;visibility:visible;display:inline;overflow:visible;enable-background:accumulate"/>
<path d="M 24.68,21.81 C 24.95,22.52 25.43,25.99 25.08,27.44" id="p3677" style="opacity:1;fill:none;fill-opacity:1;fill-rule:evenodd;stroke:#fdffb3;stroke-width:0.5;stroke-linecap:round;stroke-linejoin:miter;marker:none;stroke-miterlimit:4;stroke-dasharray:none;stroke-dashoffset:0;stroke-opacity:0.41;visibility:visible;display:inline;overflow:visible;enable-background:accumulate"/>
<path d="M 23.98,22.30 C 23.85,23.40 22.92,27.53 22.53,28.28" id="p3679" style="opacity:1;fill:none;fill-opacity:1;fill-rule:evenodd;stroke:#fdffb3;stroke-width:0.5;stroke-linecap:round;stroke-linejoin:miter;marker:none;stroke-miterlimit:4;stroke-dasharray:none;stroke-dashoffset:0;stroke-opacity:0.41;visibility:visible;display:inline;overflow:visible;enable-background:accumulate"/>
<path d="M 23.23,21.99 C 22.53,23.48 21.12,27.05 20.24,28.10" id="p3681" style="opacity:1;fill:none;fill-opacity:1;fill-rule:evenodd;stroke:#fdffb3;stroke-width:0.5;stroke-linecap:round;stroke-linejoin:miter;marker:none;stroke-miterlimit:4;stroke-dasharray:none;stroke-dashoffset:0;stroke-opacity:0.41;visibility:visible;display:inline;overflow:visible;enable-background:accumulate"/>
<path d="M 22.39,21.72 C 21.78,22.74 18.48,27.18 17.64,27.88" id="p3683" style="opacity:1;fill:none;fill-opacity:1;fill-rule:evenodd;stroke:#fdffb3;stroke-width:0.5;stroke-linecap:round;stroke-linejoin:miter;marker:none;stroke-miterlimit:4;stroke-dasharray:none;stroke-dashoffset:0;stroke-opacity:0.41;visibility:visible;display:inline;overflow:visible;enable-background:accumulate"/>
<path d="M 20.84,23.37 C 20.65,23.38 20.46,23.51 20.34,23.75 C 20.18,24.05 20.22,24.42 20.43,24.53 C 20.65,24.64 20.96,24.46 21.12,24.15 C 21.28,23.84 21.21,23.51 21,23.40 C 20.94,23.37 20.90,23.37 20.84,23.37 z" id="p3499" style="fill:#603811;fill-opacity:1;fill-rule:evenodd;stroke:none;marker:none;visibility:visible;display:inline;overflow:visible;enable-background:accumulate"/>
<path d="M 21.47,21.20 C 20.33,22.69 17.02,26.70 15.97,27.40" id="p3685" style="opacity:1;fill:none;fill-opacity:1;fill-rule:evenodd;stroke:#fdffb3;stroke-width:0.5;stroke-linecap:round;stroke-linejoin:miter;marker:none;stroke-miterlimit:4;stroke-dasharray:none;stroke-dashoffset:0;stroke-opacity:0.41;visibility:visible;display:inline;overflow:visible;enable-background:accumulate"/>
<path d="M 20.37,20.58 C 19.71,21.33 18.34,22.91 17.86,23.44" id="p3687" style="opacity:1;fill:none;fill-opacity:1;fill-rule:evenodd;stroke:#fdffb3;stroke-width:0.5;stroke-linecap:round;stroke-linejoin:miter;marker:none;stroke-miterlimit:4;stroke-dasharray:none;stroke-dashoffset:0;stroke-opacity:0.41;visibility:visible;display:inline;overflow:visible;enable-background:accumulate"/>
<path d="M 19.14,20.10 C 18.39,20.80 17.64,21.59 16.98,22.08" id="p3689" style="opacity:1;fill:none;fill-opacity:1;fill-rule:evenodd;stroke:#fdffb3;stroke-width:0.5;stroke-linecap:round;stroke-linejoin:miter;marker:none;stroke-miterlimit:4;stroke-dasharray:none;stroke-dashoffset:0;stroke-opacity:0.41;visibility:visible;display:inline;overflow:visible;enable-background:accumulate"/>
<path d="M 18.17,19.70 C 17.29,20.49 12.84,23.70 10.69,24.76" id="p3691" style="opacity:1;fill:none;fill-opacity:1;fill-rule:evenodd;stroke:#fdffb3;stroke-width:0.5;stroke-linecap:round;stroke-linejoin:miter;marker:none;stroke-miterlimit:4;stroke-dasharray:none;stroke-dashoffset:0;stroke-opacity:0.41;visibility:visible;display:inline;overflow:visible;enable-background:accumulate"/>
<path d="M 17.55,19.08 C 16.41,20.05 11.61,22.34 10.16,23.09" id="p3693" style="opacity:1;fill:none;fill-opacity:1;fill-rule:evenodd;stroke:#fdffb3;stroke-width:0.5;stroke-linecap:round;stroke-linejoin:miter;marker:none;stroke-miterlimit:4;stroke-dasharray:none;stroke-dashoffset:0;stroke-opacity:0.41;visibility:visible;display:inline;overflow:visible;enable-background:accumulate"/>
<path d="M 17.42,18.47 C 15.62,19.44 10.51,21.59 8.62,22.21" id="p3695" style="opacity:1;fill:none;fill-opacity:1;fill-rule:evenodd;stroke:#fdffb3;stroke-width:0.5;stroke-linecap:round;stroke-linejoin:miter;marker:none;stroke-miterlimit:4;stroke-dasharray:none;stroke-dashoffset:0;stroke-opacity:0.41;visibility:visible;display:inline;overflow:visible;enable-background:accumulate"/>
<path d="M 16.23,18.51 C 14.16,18.95 9.54,20.98 8.49,20.80" id="p3697" style="opacity:1;fill:none;fill-opacity:1;fill-rule:evenodd;stroke:#fdffb3;stroke-width:0.5;stroke-linecap:round;stroke-linejoin:miter;marker:none;stroke-miterlimit:4;stroke-dasharray:none;stroke-dashoffset:0;stroke-opacity:0.41;visibility:visible;display:inline;overflow:visible;enable-background:accumulate"/>
<path d="M 14,19.15 C 13.93,19.16 13.85,19.16 13.78,19.18 C 13.39,19.30 13.13,19.64 13.18,19.93 C 13.23,20.22 13.58,20.36 13.96,20.25 C 14.35,20.13 14.61,19.79 14.56,19.5 C 14.54,19.42 14.54,19.36 14.5,19.31 C 14.39,19.19 14.20,19.14 14,19.15 z" id="p3523" style="fill:#603811;fill-opacity:1;fill-rule:evenodd;stroke:none;marker:none;visibility:visible;display:inline;overflow:visible;enable-background:accumulate"/>
<path d="M 17.86,18.42 C 15.40,18.29 9.10,19.17 8.36,19.26" id="p3699" style="opacity:1;fill:none;fill-opacity:1;fill-rule:evenodd;stroke:#fdffb3;stroke-width:0.5;stroke-linecap:round;stroke-linejoin:miter;marker:none;stroke-miterlimit:4;stroke-dasharray:none;stroke-dashoffset:0;stroke-opacity:0.41;visibility:visible;display:inline;overflow:visible;enable-background:accumulate"/>
<path d="M 13.33,11.47 C 14.16,12.09 15.40,13.72 15.84,14.29" id="p3701" style="opacity:1;fill:none;fill-opacity:1;fill-rule:evenodd;stroke:#fdffb3;stroke-width:0.5;stroke-linecap:round;stroke-linejoin:miter;marker:none;stroke-miterlimit:4;stroke-dasharray:none;stroke-dashoffset:0;stroke-opacity:0.41;visibility:visible;display:inline;overflow:visible;enable-background:accumulate"/>
<path d="M 9.72,15.74 C 10.51,15.87 13.28,15.96 13.68,16.18" id="p3703" style="opacity:1;fill:none;fill-opacity:1;fill-rule:evenodd;stroke:#fdffb3;stroke-width:0.5;stroke-linecap:round;stroke-linejoin:miter;marker:none;stroke-miterlimit:4;stroke-dasharray:none;stroke-dashoffset:0;stroke-opacity:0.41;visibility:visible;display:inline;overflow:visible;enable-background:accumulate"/>
<path d="M 13.37,13.76 C 14.03,14.38 14.56,14.86 15.13,15.17" id="p3705" style="opacity:1;fill:none;fill-opacity:1;fill-rule:evenodd;stroke:#fdffb3;stroke-width:0.5;stroke-linecap:round;stroke-linejoin:miter;marker:none;stroke-miterlimit:4;stroke-dasharray:none;stroke-dashoffset:0;stroke-opacity:0.41;visibility:visible;display:inline;overflow:visible;enable-background:accumulate"/>
<path d="M 8.44,17.41 C 9.94,17.41 13.02,17.15 13.64,17.41" id="p3707" style="opacity:1;fill:none;fill-opacity:1;fill-rule:evenodd;stroke:#fdffb3;stroke-width:0.5;stroke-linecap:round;stroke-linejoin:miter;marker:none;stroke-miterlimit:4;stroke-dasharray:none;stroke-dashoffset:0;stroke-opacity:0.41;visibility:visible;display:inline;overflow:visible;enable-background:accumulate"/>
<path d="M 29,22.40 C 28.94,22.42 28.88,22.45 28.84,22.5 C 28.67,22.67 28.75,23.00 29,23.25 C 29.24,23.49 29.58,23.54 29.75,23.37 C 29.91,23.20 29.84,22.86 29.59,22.62 C 29.40,22.44 29.17,22.35 29,22.40 z" id="p3507" style="fill:#603811;fill-opacity:1;fill-rule:evenodd;stroke:none;marker:none;visibility:visible;display:inline;overflow:visible;enable-background:accumulate"/>
<path d="M 34.29,12.05 C 37.82,14.41 38.77,17.12 37.94,20.54" id="p3819" style="fill:none;fill-rule:evenodd;stroke:#e3e646;stroke-width:4.69;stroke-linecap:butt;stroke-linejoin:miter;stroke-miterlimit:4;stroke-dasharray:none;stroke-opacity:0.40"/>
<path d="M 7.48,12.72 C 2.61,19.73 3.32,22.34 4.75,25.90 C 6.17,29.47 11.75,36.36 13.42,37.42 C 15.08,38.49 22.20,43.48 27.55,42.77 C 32.89,42.06 40.50,40.75 43.58,31.84 C 46.67,22.93 39.31,12.36 37.05,10.94 C 34.79,9.51 29.92,6.31 21.73,6.90 C 13.53,7.49 9.14,10.58 7.48,12.72 z" id="stroke01" style="fill:none;fill-rule:evenodd;stroke:#7f601d;stroke-width:0.5;stroke-linecap:butt;stroke-linejoin:miter;stroke-miterlimit:4;stroke-dasharray:none;stroke-opacity:1"/>
</g>
</svg>
