<?xml version="1.0" encoding="UTF-8" standalone="no"?>
<!DOCTYPE svg PUBLIC "-//W3C//DTD SVG 1.0//EN" "http://www.w3.org/TR/2001/REC-SVG-20010904/DTD/svg10.dtd">
<svg xmlns:svg="http://www.w3.org/2000/svg" xmlns="http://www.w3.org/2000/svg" version="1.0" width="100%" height="100%" viewBox="0 0 48 48" id="_leaf02">
<defs id="defs2386"/>
<g id="leaf02" style="display:inline">
<path d="m 32.43,3.12 c -0.92,2.77 -1.67,3.00 -2.09,2.75 -1.26,1.76 -1.92,2.52 -3.18,1.34 -1.68,6.13 -1.76,6.30 -4.37,3.78 -2.60,-2.52 -2.42,-3.77 -3.43,-4.53 0.50,1.42 -2.11,2.68 -4.46,0.75 -0.33,0.58 -1.84,0.78 -2.93,-0.56 1.09,2.43 0.07,3.52 -0.59,3.43 0.67,1.00 1.02,5.61 -2,4.43 1.00,0.67 1.40,1.45 1.65,2.12 0.25,0.67 2.28,2.49 3.12,3.84 -3.95,0.25 -5.05,-0.82 -6.06,-1.25 1.09,1.68 -0.50,2.44 -2.43,2.78 -0.16,0.92 -1.01,1.40 -2.78,1.15 1.59,1.51 2.53,1.87 2.03,2.71 2.10,0.92 3.35,3.09 0.5,4.68 3.44,0 6.82,0.74 7.5,2.34 -1.59,1.93 -1.69,2.77 -2.28,3.03 0.50,1.00 -0.68,2.09 -1.43,2.68 3.78,-1.34 3.13,-0.83 3.46,-0.5 1.26,-0.25 2.34,-0.58 2.93,1.43 1.26,-1.59 5.29,-2.75 5.71,-2.84 0.84,1.93 1.42,2.35 1.59,3.53 0.25,-1.93 0.50,-2.45 1.09,-3.12 0.49,-0.56 2.31,-2.88 2.96,-4.90 0.26,1.53 0.57,2.47 1.28,4.40 C 29.14,39.16 31.34,45.53 31.75,47 a 0.30,0.30 0 0 0 0,0.03 0.30,0.30 0 0 0 0.03,0.06 0.30,0.30 0 0 0 0.37,0.09 0.30,0.30 0 0 0 0.12,-0.12 0.30,0.30 0 0 0 0.03,-0.15 0.30,0.30 0 0 0 0,-0.09 c -0.43,-1.56 -2.60,-7.81 -3.53,-10.34 -0.82,-2.25 -1.11,-3.12 -1.40,-5.18 4.40,1.72 7.25,0.82 8,1.15 0.75,0.33 1.26,0.51 3.03,0.68 -3.36,-2.35 -2.43,-3.19 -2.18,-4.03 0.25,-0.84 4.13,-2.85 5.81,-2.68 -1.00,-0.50 -3.03,-1.76 1,-4.37 C 41.43,21.77 42.68,19.07 44.87,17.81 43.27,17.47 39.68,19.09 41.03,17.75 38.67,18.67 37.50,18.23 36.75,18.90 36.32,17.22 37.83,15.72 38,14.12 c 0.16,-1.59 0.75,-2.10 1.84,-3.87 -2.52,1.26 -4.70,1.02 -5.12,-3.34 C 33.45,7.57 32.68,6.06 32.43,3.12 z" id="p3041" style="fill:#4f824c;fill-opacity:1;stroke:none;marker:none;visibility:visible;display:inline;overflow:visible;enable-background:accumulate;font-family:Sans;-inkscape-font-specification:Sans"/>
<path d="m 32.43,3.12 c -0.92,2.77 -1.67,3.00 -2.09,2.75 -1.26,1.76 -1.92,2.52 -3.18,1.34 -1.68,6.13 -1.76,6.30 -4.37,3.78 -0.40,-0.39 -0.71,-0.72 -1,-1.06 -0.55,2.32 -1.08,4.65 -0.56,7.06 0.22,3.33 2.53,5.93 3.37,9.09 0.77,1.75 1.64,3.63 2.78,5.28 -0.00,-0.03 0.00,-0.05 0,-0.09 4.40,1.72 7.25,0.82 8,1.15 0.75,0.33 1.26,0.51 3.03,0.68 -3.36,-2.35 -2.43,-3.19 -2.18,-4.03 0.25,-0.84 4.13,-2.85 5.81,-2.68 -1.00,-0.50 -3.03,-1.76 1,-4.37 C 41.43,21.77 42.68,19.07 44.87,17.81 43.27,17.47 39.68,19.09 41.03,17.75 38.67,18.67 37.50,18.23 36.75,18.90 36.32,17.22 37.83,15.72 38,14.12 c 0.16,-1.59 0.75,-2.10 1.84,-3.87 -2.52,1.26 -4.70,1.02 -5.12,-3.34 C 33.45,7.57 32.68,6.06 32.43,3.12 z" id="p3847" style="fill:#a3b2a5;fill-opacity:0.21;stroke:none"/>
<path d="m 23.28,30.12 c -0.43,0.00 -0.89,0.04 -1.31,0.06 -1.26,0.19 -2.56,0.19 -3.78,0.59 -1.67,0.89 -1.84,2.94 -2.78,4.40 -0.23,1.00 -0.46,2.04 -0.62,3.06 0.31,0.23 0.57,0.64 0.78,1.34 1.26,-1.59 5.29,-2.75 5.71,-2.84 0.84,1.93 1.42,2.35 1.59,3.53 0.25,-1.93 0.50,-2.45 1.09,-3.12 0.49,-0.56 2.31,-2.88 2.96,-4.90 0.03,0.20 0.08,0.37 0.12,0.56 0.23,-0.53 0.31,-1.08 -0.12,-1.62 -0.99,-0.93 -2.33,-1.07 -3.65,-1.06 z" id="p3849" style="fill:#a3b2a5;fill-opacity:0.13;stroke:none"/>
<path d="M 32.43,3.12 C 31.51,5.89 30.76,6.12 30.34,5.87 29.61,6.90 29.06,7.55 28.5,7.71 c 0.00,0.00 -0.00,0.02 0,0.03 0.42,0.98 0.83,2.00 1.62,2.75 1.35,1.70 0.85,4.15 -0.03,5.96 -0.27,2.06 -1.04,4.06 -1.68,6.06 -0.37,1.08 0.37,1.91 0.65,0.46 0.87,-1.55 2.24,-2.80 2.71,-4.56 0.83,-1.90 3.13,-1.83 4.68,-2.81 0.46,-0.29 0.93,-0.59 1.40,-0.90 0.05,-0.19 0.10,-0.39 0.12,-0.59 0.16,-1.59 0.75,-2.10 1.84,-3.87 -2.52,1.26 -4.70,1.02 -5.12,-3.34 C 33.45,7.57 32.68,6.06 32.43,3.12 z" id="p3851" style="fill:#1b6322;fill-opacity:0.24;stroke:none"/>
<path d="m 41.03,17.75 c -1.34,0.52 -2.28,0.61 -3,0.71 -0.94,1.30 -1.91,2.62 -3.18,3.62 -0.65,0.32 -2.35,1.72 -0.62,1.06 1.09,-0.47 2.22,-0.93 3.40,-1.09 1.56,0.44 -0.04,2.53 0.34,3.75 -0.08,0.66 0.18,1.17 0.62,1.56 1.21,-0.58 2.59,-1.05 3.43,-0.96 -1.00,-0.50 -3.03,-1.76 1,-4.37 C 41.43,21.77 42.68,19.07 44.87,17.81 43.27,17.47 39.68,19.09 41.03,17.75 z" id="p3853" style="fill:#1b6322;fill-opacity:0.23;stroke:none"/>
<path d="m 8.06,19.25 c 1.09,1.68 -0.50,2.44 -2.43,2.78 -0.16,0.92 -1.01,1.40 -2.78,1.15 1.59,1.51 2.53,1.87 2.03,2.71 2.10,0.92 3.35,3.09 0.5,4.68 3.37,0 6.66,0.72 7.43,2.25 0.04,-0.06 0.10,-0.12 0.15,-0.18 0.58,-0.62 1.31,-1.48 0.84,-2.37 C 13.80,29.05 14.89,28.18 15.06,27 14.98,25.81 13.90,25.11 13.28,24.21 13.49,23.19 14.47,22.63 15.25,22.06 16.16,21.67 15.24,21.06 14.62,21.18 13.70,21.18 12.81,20.90 12,20.5 9.73,20.32 8.85,19.58 8.06,19.25 z" id="p3855" style="fill:#1d4a24;fill-opacity:0.20;stroke:none"/>
<path d="m 19.34,6.46 c 0.50,1.42 -2.11,2.68 -4.46,0.75 -0.33,0.58 -1.84,0.78 -2.93,-0.56 1.09,2.43 0.07,3.52 -0.59,3.43 0.66,0.99 1.01,5.42 -1.84,4.46 0.24,0.17 0.46,0.37 0.68,0.56 0.89,1.06 2.23,1.24 2.15,-0.46 -0.13,-1.85 2.43,-1.04 3.5,-0.56 0.78,0.78 2.22,0.94 1.75,-0.56 0.16,-1.51 0.17,-3.01 0.06,-4.53 -0.51,-1.82 1.66,0.73 1.75,1.5 0.57,1.30 1.60,0.09 2.12,-0.84 -1.31,-1.63 -1.38,-2.58 -2.18,-3.18 z" id="p3857" style="fill:#1d4a24;fill-opacity:0.13;stroke:none"/>
<path d="m 26.81,8.40 c -0.77,2.77 -1.18,4.03 -1.84,4.12 -0.07,0.28 -0.17,0.56 -0.25,0.84 0.11,1.91 -0.60,-0.14 -1.06,-0.78 -1.25,-1.75 -0.54,0.72 -0.96,1.5 -0.29,1.88 0.04,3.78 0.12,5.65 -0.12,-0.78 -1.51,-2.66 -2.65,-3.37 -1.59,-1.43 -0.91,1.16 -0.65,2.09 0.42,1.49 0.49,3.06 1.03,4.53 -1.82,-1.02 -3.02,-2.85 -4.65,-4.15 -1.05,-1.32 -1.50,-0.22 -0.75,0.87 0.50,1.62 1.50,3.03 2.12,4.62 1.18,1.70 -1.06,-0.00 -1.75,-0.12 -2.16,-1.21 0.60,0.64 1.09,1.40 1.38,1.18 -0.20,1.51 -1.21,1 -0.58,0.00 -3.08,-0.96 -2.28,-0.15 1.90,0.83 3.89,1.52 5.81,2.34 1.08,0.11 4.06,1.94 1.53,2.18 -1.42,0.20 -2.80,0.57 -4.15,1.03 -0.72,0.57 -4.28,1.13 -2,1.90 1.93,0.59 1.02,2.16 -0.40,2.65 -0.48,0.29 -1.07,0.71 -1.5,1.21 0.13,0.06 0.12,0.21 0.25,0.34 1.26,-0.25 2.34,-0.58 2.93,1.43 1.26,-1.59 5.29,-2.75 5.71,-2.84 0.84,1.93 1.42,2.35 1.59,3.53 0.25,-1.93 0.50,-2.45 1.09,-3.12 0.49,-0.56 2.31,-2.88 2.96,-4.90 0.26,1.53 0.57,2.47 1.28,4.40 0.32,0.89 0.89,2.48 1.40,3.96 0.12,0.02 0.24,0.02 0.34,0.03 0.07,0.01 0.21,0.04 0.31,0.06 -0.55,-1.59 -1.14,-3.27 -1.5,-4.25 -0.82,-2.25 -1.11,-3.12 -1.40,-5.18 4.40,1.72 7.25,0.82 8,1.15 0.75,0.33 1.26,0.51 3.03,0.68 -3.19,-2.23 -2.54,-3.10 -2.25,-3.90 -0.90,-0.28 -1.79,-0.57 -0.75,-1.09 0.91,-0.69 4.13,-2.24 2.18,-3.28 C 35.79,25.35 37.06,23.74 37.43,23.06 39.11,21.46 36.25,22.20 35.34,22 c -0.28,-1.01 1.92,-1.97 2.75,-2.87 -0.24,-0.25 -0.75,-0.28 -1.34,-0.21 -0.86,0.10 -1.89,0.45 -2.53,0.62 -1.76,0.40 -0.02,-1.02 0.34,-1.71 1.12,-1.60 -0.28,0.35 -0.87,0.78 -1.45,0.98 -2.64,2.29 -3.90,3.5 -0.29,-0.97 0.81,-2.57 1.12,-3.78 0.63,-1.16 0.87,-2.29 1.5,-3.43 -1.28,1.43 -2.49,2.95 -3.56,4.56 -0.29,0.13 -0.68,0.98 -0.90,1.59 0.06,-1.39 0.75,-2.66 1.03,-4 C 29.22,15.54 29.87,14.19 30.5,12.81 31.00,10.64 29.88,12.95 29.31,13.5 28.70,12.09 28.68,10.37 27.65,9.12 27.40,8.56 27.09,8.37 26.81,8.40 z" id="p3942" style="fill:#77907b;fill-opacity:0.41;stroke:none;display:inline"/>
<path d="m 16.96,30.43 c -0.14,-0.00 -0.33,0.02 -0.56,0.09 -0.81,1.10 -1.28,2.86 -2.93,3.28 -0.49,0.13 -0.99,0.25 -1.5,0.34 -0.74,1.08 -0.92,1.62 -1.37,1.81 0.50,1.00 -0.68,2.09 -1.43,2.68 3.78,-1.34 3.13,-0.83 3.46,-0.5 0.29,-0.05 0.57,-0.11 0.84,-0.15 1.15,-1.70 2.75,-3.14 3.37,-5.15 0.31,-0.75 1.15,-2.38 0.12,-2.40 z" id="p3949" style="fill:#1b6322;fill-opacity:0.30;stroke:none;display:inline"/>
<path d="m 18.97,38.15 c -0.05,-0.93 -0.01,-1.87 0.42,-2.71 0.53,-0.74 0.27,-1.73 0.67,-2.46 0.67,-0.52 1.60,-0.36 2.38,-0.62 0.91,-0.20 1.60,-0.93 2.54,-1.11 0.97,-0.34 0.38,0.72 -0.05,0.97 -0.58,0.75 -1.00,1.69 -1.78,2.26 -0.65,0.11 -0.88,0.89 -0.04,0.48 0.66,-0.34 1.22,-0.87 1.81,-1.33 0.39,-0.63 0.91,-1.06 1.56,-1.42 0.31,-0.46 0.65,-0.38 0.49,0.19 -0.42,0.80 -0.65,1.70 -1.06,2.52 -0.52,0.89 -1.71,0.73 -2.54,1.13 -0.75,0.09 -1.51,0.23 -2.20,0.52 -0.75,-0.59 0.35,-1.38 0.65,-1.92 0.29,-0.46 0.68,-1.11 0.70,-1.58 -0.63,0.42 -0.85,1.25 -1.64,1.49 -0.80,0.44 -0.34,1.55 -0.84,2.22 -0.28,0.51 -0.77,0.87 -1.08,1.37 z" id="p3951" style="fill:#1b6322;fill-opacity:0.20;stroke:none;display:inline"/>
<path d="m 20.18,7.56 c -0.52,1.09 -0.81,2.31 -1.12,3.46 -0.27,2.36 0.02,4.76 0.71,7.03 0.56,2.00 2.11,3.44 2.96,5.28 0.78,1.44 2.12,2.52 2.81,4 -0.33,-1.47 0.19,-3.22 -0.87,-4.59 -1.17,-2.42 -3.71,-4.25 -3.75,-7.15 -0.09,-1.77 0.84,-3.29 1.62,-4.81 C 21.09,9.30 20.59,8.29 20.18,7.56 z" id="p3969" style="fill:#1b6322;fill-opacity:0.19;stroke:none;display:inline"/>
<path d="m 12.68,18.68 c 0.54,0.60 1.08,1.25 1.43,1.81 -2.19,0.14 -3.49,-0.12 -4.40,-0.46 0.12,0.75 0.09,1.46 -0.5,2.03 -1.22,0.84 -1.88,2.49 -0.96,3.81 0.54,1.16 0.87,2.93 2.62,2.43 0.99,3.64e-4 3.26,-0.35 2.75,-1.71 -1.03,-0.56 -2.03,-2.84 -0.15,-2.96 0.87,-0.40 3.11,-0.66 2.12,-2.06 -0.95,-0.96 -1.59,-2.30 -2.90,-2.87 z" id="p3975" style="fill:#1b6322;fill-opacity:0.19;stroke:none;display:inline"/>
<path d="m 32.43,3.12 c -0.92,2.77 -1.67,3.00 -2.09,2.75 -1.26,1.76 -1.92,2.52 -3.18,1.34 -1.02,3.72 -1.45,5.25 -2.21,5.31 -0.12,1.70 0.18,3.42 0.5,5.09 0.68,2.21 1.10,4.51 1.15,6.84 0.13,1.35 0.10,2.71 0.03,4.06 0.13,0.48 0.35,2.89 0.25,1.34 0.18,-2.16 0.94,-4.22 1.75,-6.21 0.36,-1.52 -0.08,-3.16 0.59,-4.62 0.18,-1.42 -1.37,-2.66 -0.68,-4.06 1.26,-0.69 2.01,-1.87 2.18,-3.34 0.35,-0.77 0.25,1.28 0.21,1.75 -0.23,2.45 -1.20,4.77 -1.31,7.25 -0.02,0.53 -0.25,1.99 -0.21,1.96 0.71,-1.67 1.23,-3.53 2.46,-4.90 1.14,-1.27 2.64,1.08 2.69,1.58 -0.39,1.56 -0.99,1.64 -1.83,2.60 1.29,-0.11 3.63,-1.95 3.11,-3.05 C 33.85,19.51 34.32,16.90 35.59,16.5 36.38,15.95 37.12,15.37 37.87,14.78 37.93,14.56 37.97,14.34 38,14.12 c 0.16,-1.59 0.75,-2.10 1.84,-3.87 -2.52,1.26 -4.70,1.02 -5.12,-3.34 C 33.45,7.57 32.68,6.06 32.43,3.12 z" id="p3982" style="fill:#1b6322;fill-opacity:0.19;stroke:none;display:inline"/>
<path d="m 27.25,31 c -0.19,-0.00 -0.41,0.32 -0.34,0.71 -0.03,0.23 -0.02,0.45 -0.03,0.68 0.01,-0.05 0.04,-0.10 0.06,-0.15 0.26,1.53 0.57,2.47 1.28,4.40 C 29.14,39.16 31.34,45.53 31.75,47 a 0.30,0.30 0 0 0 0,0.03 0.30,0.30 0 0 0 0.03,0.06 0.30,0.30 0 0 0 0.03,0.03 0.30,0.30 0 0 0 0.34,0.06 0.30,0.30 0 0 0 0.12,-0.12 0.30,0.30 0 0 0 0.03,-0.15 0.30,0.30 0 0 0 0,-0.09 C 31.87,45.24 29.70,38.99 28.78,36.46 27.95,34.21 27.66,33.33 27.37,31.28 27.40,31.29 27.43,31.30 27.46,31.31 27.41,31.10 27.34,31.00 27.25,31 z" id="p4089" style="fill:#c1ec93;fill-opacity:1;stroke:none"/>
<path d="m 19.74,35.20 c 0.29,-0.99 1.09,-2.28 1.78,-2.28 0.69,0 2.57,-0.99 3.27,-1.38" id="p4047" style="fill:none;stroke:#213f19;stroke-width:1;stroke-linecap:round;stroke-linejoin:miter;stroke-miterlimit:4;stroke-opacity:0.13;stroke-dasharray:none"/>
<path d="m 27.77,22.60 c -1.09,0.99 0,3.17 -0.59,5.45" id="p4049" style="fill:none;stroke:#213f19;stroke-width:1px;stroke-linecap:round;stroke-linejoin:miter;stroke-opacity:0.17"/>
<path d="m 31.25,14.86 c -0.29,1.88 -0.99,4.56 -1.88,6.94" id="p4051" style="fill:none;stroke:#2a5120;stroke-width:1.29;stroke-linecap:round;stroke-linejoin:miter;stroke-miterlimit:4;stroke-opacity:0.16;stroke-dasharray:none"/>
<path d="m 36.60,13.27 c -1.38,1.98 -2.87,3.47 -2.87,3.47" id="p4053" style="fill:none;stroke:#315f26;stroke-width:1.89;stroke-linecap:round;stroke-linejoin:miter;stroke-miterlimit:4;stroke-opacity:0.23;stroke-dasharray:none"/>
<path d="m 38.59,19.52 c -1.28,0.89 -3.57,2.67 -3.57,2.67" id="p4055" style="fill:none;stroke:#315f26;stroke-width:1.29;stroke-linecap:round;stroke-linejoin:miter;stroke-miterlimit:4;stroke-opacity:0.33;stroke-dasharray:none"/>
<path d="m 18.84,18.03 c 1.98,3.07 3.57,5.65 4.26,7.44" id="p4057" style="fill:none;stroke:#a6c19f;stroke-width:1.70;stroke-linecap:round;stroke-linejoin:miter;stroke-miterlimit:4;stroke-opacity:0.13;stroke-dasharray:none"/>
<path d="m 23.20,23.13 c 2.09,4.19 3.42,6.40 3.64,7.73" id="p4059" style="fill:none;stroke:#89a15c;stroke-width:0.40;stroke-linecap:butt;stroke-linejoin:miter;stroke-miterlimit:4;stroke-opacity:0.65;stroke-dasharray:none"/>
<path d="m 28.51,23.10 c -0.66,3.42 -1.99,6.99 -1.66,7.76 0.33,0.77 2.21,-2.87 5.30,-4.42" id="p4061" style="fill:none;stroke:#89a15c;stroke-width:0.30;stroke-linecap:butt;stroke-linejoin:miter;stroke-miterlimit:4;stroke-opacity:0.65;stroke-dasharray:none"/>
<path d="m 16.57,27.00 c 4.42,1.21 9.06,2.65 9.94,3.64 -2.98,0.77 -7.18,2.54 -8.84,3.53" id="p4063" style="fill:none;stroke:#89a15c;stroke-width:0.30;stroke-linecap:butt;stroke-linejoin:miter;stroke-miterlimit:4;stroke-opacity:0.65;stroke-dasharray:none"/>
<path d="m 15.35,11.31 c 2.09,2.54 3.97,4.97 4.42,5.74 1.21,2.09 3.39,6.10 3.39,6.10" id="p4065" style="fill:none;stroke:#89a15c;stroke-width:0.30;stroke-linecap:butt;stroke-linejoin:miter;stroke-miterlimit:4;stroke-opacity:0.65;stroke-dasharray:none"/>
<path d="m 23.42,16.39 c 0,2.76 -0.44,4.86 -1.10,5.30" id="p4067" style="fill:none;stroke:#89a15c;stroke-width:0.2;stroke-linecap:round;stroke-linejoin:miter;stroke-miterlimit:4;stroke-opacity:0.65;stroke-dasharray:none"/>
<path d="m 15.02,20.26 c 3.42,1.76 6.18,2.98 7.84,2.65" id="p4069" style="fill:none;stroke:#89a15c;stroke-width:0.2;stroke-linecap:round;stroke-linejoin:miter;stroke-miterlimit:4;stroke-opacity:0.65;stroke-dasharray:none"/>
<path d="m 5.41,23.91 c 3.97,0.88 10.16,2.87 11.05,3.09" id="p4071" style="fill:none;stroke:#89a15c;stroke-width:0.2;stroke-linecap:round;stroke-linejoin:miter;stroke-miterlimit:4;stroke-opacity:0.65;stroke-dasharray:none"/>
<path d="m 14.80,22.80 c 1.21,1.32 2.09,2.65 1.76,4.30" id="p4073" style="fill:none;stroke:#89a15c;stroke-width:0.2;stroke-linecap:round;stroke-linejoin:miter;stroke-miterlimit:4;stroke-opacity:0.65;stroke-dasharray:none"/>
<path d="M 9.39,29.32 C 12.70,28.55 15.13,27.77 16.57,27.00" id="p4075" style="fill:none;stroke:#89a15c;stroke-width:0.2;stroke-linecap:round;stroke-linejoin:miter;stroke-miterlimit:4;stroke-opacity:0.65;stroke-dasharray:none"/>
<path d="m 13.03,36.39 c 2.98,-1.43 3.97,-1.87 5.08,-2.43" id="p4077" style="fill:none;stroke:#89a15c;stroke-width:0.2;stroke-linecap:round;stroke-linejoin:miter;stroke-miterlimit:4;stroke-opacity:0.65;stroke-dasharray:none"/>
<path d="m 31.93,26.56 c 2.32,-1.21 5.08,-3.64 6.07,-3.97" id="p4079" style="fill:none;stroke:#89a15c;stroke-width:0.2;stroke-linecap:round;stroke-linejoin:miter;stroke-miterlimit:4;stroke-opacity:0.65;stroke-dasharray:none"/>
<path d="M 31.27,10.76 C 30.71,13.41 29.50,20.92 28.50,23.13" id="p4081" style="fill:none;stroke:#89a15c;stroke-width:0.30;stroke-linecap:butt;stroke-linejoin:miter;stroke-miterlimit:4;stroke-opacity:0.65;stroke-dasharray:none"/>
<path d="m 29.73,18.85 c 1.87,-0.99 4.30,-3.01 5.73,-4.66" id="p4083" style="fill:none;stroke:#89a15c;stroke-width:0.2;stroke-linecap:round;stroke-linejoin:miter;stroke-miterlimit:4;stroke-opacity:0.65;stroke-dasharray:none"/>
<path d="m 12.92,15.95 c 2.76,1.76 6.51,2.98 7.73,2.98" id="p4085" style="fill:none;stroke:#89a15c;stroke-width:0.2;stroke-linecap:round;stroke-linejoin:miter;stroke-miterlimit:4;stroke-opacity:0.65;stroke-dasharray:none"/>
<path d="m 28.62,23.13 c 1.32,-0.11 3.31,-1.87 3.86,-2.43" id="p4087" style="fill:none;stroke:#89a15c;stroke-width:0.2;stroke-linecap:round;stroke-linejoin:miter;stroke-miterlimit:4;stroke-opacity:0.65;stroke-dasharray:none"/>
<path d="m 26.70,30.50 c 0.19,0.50 0.42,0.65 0.42,1.00" id="p4112" style="fill:none;stroke:#ade29f;stroke-width:0.80;stroke-linecap:round;stroke-linejoin:miter;stroke-miterlimit:4;stroke-opacity:0.79;stroke-dasharray:none;display:inline"/>
<path d="m 26.10,28.85 c 0.11,0.28 0.62,1.35 0.65,1.55" id="p4115" style="fill:none;stroke:#ade29f;stroke-width:0.40;stroke-linecap:round;stroke-linejoin:miter;stroke-miterlimit:4;stroke-opacity:0.26;stroke-dasharray:none"/>
<path d="m 25.42,29.94 c 0.28,0.16 0.90,0.43 1.02,0.66 -0.57,0.22 -0.74,0.25 -0.83,0.29" id="p4117" style="fill:none;stroke:#ade29f;stroke-width:0.30;stroke-linecap:round;stroke-linejoin:miter;stroke-miterlimit:4;stroke-opacity:0.27;stroke-dasharray:none"/>
<path d="m 26.99,29.11 c -0.13,0.71 -0.40,1.51 -0.11,2.03 0.68,-0.57 0.83,-0.74 0.96,-0.89" id="p4121" style="fill:none;stroke:#ade29f;stroke-width:0.30;stroke-linecap:round;stroke-linejoin:miter;stroke-miterlimit:4;stroke-opacity:0.27;stroke-dasharray:none"/>
<path d="m 32.43,3.12 c -0.92,2.77 -1.67,3.00 -2.09,2.75 -1.26,1.76 -1.92,2.52 -3.18,1.34 -1.68,6.13 -1.76,6.30 -4.37,3.78 -2.60,-2.52 -2.42,-3.77 -3.43,-4.53 0.50,1.42 -2.11,2.68 -4.46,0.75 -0.33,0.58 -1.84,0.78 -2.93,-0.56 1.09,2.43 0.07,3.52 -0.59,3.43 0.67,1.00 1.02,5.61 -2,4.43 1.00,0.67 1.40,1.45 1.65,2.12 0.25,0.67 2.28,2.49 3.12,3.84 -3.95,0.25 -5.05,-0.82 -6.06,-1.25 1.09,1.68 -0.50,2.44 -2.43,2.78 -0.16,0.92 -1.01,1.40 -2.78,1.15 1.59,1.51 2.53,1.87 2.03,2.71 2.10,0.92 3.35,3.09 0.5,4.68 3.44,0 6.82,0.74 7.5,2.34 -1.59,1.93 -1.69,2.77 -2.28,3.03 0.50,1.00 -0.68,2.09 -1.43,2.68 3.78,-1.34 3.13,-0.83 3.46,-0.5 1.26,-0.25 2.34,-0.58 2.93,1.43 1.26,-1.59 5.29,-2.75 5.71,-2.84 0.84,1.93 1.42,2.35 1.59,3.53 0.25,-1.93 0.50,-2.45 1.09,-3.12 0.49,-0.56 2.31,-2.88 2.96,-4.90 0.26,1.53 0.57,2.47 1.28,4.40 C 29.14,39.16 31.34,45.53 31.75,47 a 0.30,0.30 0 0 0 0,0.03 0.30,0.30 0 0 0 0.03,0.06 0.30,0.30 0 0 0 0.37,0.09 0.30,0.30 0 0 0 0.12,-0.12 0.30,0.30 0 0 0 0.03,-0.15 0.30,0.30 0 0 0 0,-0.09 c -0.43,-1.56 -2.60,-7.81 -3.53,-10.34 -0.82,-2.25 -1.11,-3.12 -1.40,-5.18 4.40,1.72 7.25,0.82 8,1.15 0.75,0.33 1.26,0.51 3.03,0.68 -3.36,-2.35 -2.43,-3.19 -2.18,-4.03 0.25,-0.84 4.13,-2.85 5.81,-2.68 -1.00,-0.50 -3.03,-1.76 1,-4.37 C 41.43,21.77 42.68,19.07 44.87,17.81 43.27,17.47 39.68,19.09 41.03,17.75 38.67,18.67 37.50,18.23 36.75,18.90 36.32,17.22 37.83,15.72 38,14.12 c 0.16,-1.59 0.75,-2.10 1.84,-3.87 -2.52,1.26 -4.70,1.02 -5.12,-3.34 C 33.45,7.57 32.68,6.06 32.43,3.12 z" id="stroke01" style="fill:none;stroke:#243727;stroke-width:0.5;stroke-miterlimit:4;stroke-opacity:1;stroke-dasharray:none;marker:none;visibility:visible;display:inline;overflow:visible;enable-background:accumulate"/>
</g>
</svg>
