<?xml version="1.0" encoding="UTF-8" standalone="no"?>
<!DOCTYPE svg PUBLIC "-//W3C//DTD SVG 1.0//EN" "http://www.w3.org/TR/2001/REC-SVG-20010904/DTD/svg10.dtd">
<svg xmlns:svg="http://www.w3.org/2000/svg" xmlns="http://www.w3.org/2000/svg" version="1.0" width="100%" height="100%" viewBox="0 0 48 48" id="_leaf01">
<defs id="defs2386"/>
<g id="leaf01" style="display:inline">
<path d="m 16,44.90 c 0.34,-1.20 0.51,-2.92 0.60,-4.38 0.08,-1.46 0.60,-4.81 1.03,-5.59 C 12.55,31.31 13.84,30.96 11.35,28.90 8.86,26.83 6.19,21.33 6.62,20.73 5.24,14.96 6.36,15.31 6.96,15.74 8.25,12.73 8.86,12.47 9.46,13.16 10.58,11.44 11.44,10.40 12.21,11.44 c 0.77,-2.49 1.37,-1.29 1.54,-1.20 1.80,-1.80 2.06,-0.60 2.58,-0.34 0.60,-0.25 1.11,0 1.29,0.25 1.11,-0.86 1.63,-0.08 1.80,0.68 1.29,-1.03 2.40,-1.54 2.66,-0.68 1.11,-1.97 1.37,-0.94 1.72,-1.97 0.34,-1.03 1.97,-1.37 2.06,0.08 1.37,-1.03 1.89,-0.34 2.23,-0.86 0.34,-0.51 1.20,-1.29 2.06,-0.43 1.11,-1.29 1.89,-1.46 1.97,-0.77 1.29,-1.37 1.29,-0.25 1.29,-0.25 1.46,-1.03 2.58,-1.89 2.66,-1.80 0.08,0.08 -0.43,2.66 -0.94,3.52 0.25,0 0.25,0.51 -0.51,1.80 1.03,0.34 0.94,1.37 0.77,1.72 1.11,0.25 0.94,0.86 0.94,1.46 1.63,-0.34 1.72,0.77 1.97,1.46 0.51,0.17 0.68,1.03 0.51,1.46 0.68,0 1.20,1.63 0.68,2.92 1.54,0.60 -0.51,4.12 -0.86,4.90 0.43,0.08 0.51,0.77 0.43,1.29 0.51,0.17 1.72,0 0.34,2.49 0.51,0.17 0.77,0.86 0.60,1.37 0.68,0.43 0.43,1.54 -0.60,2.92 0.86,0.68 -0.43,1.63 -0.68,1.54 -0.43,1.97 -1.29,3.09 -2.15,3.61 0.77,1.46 -0.77,2.40 -2.06,3.09 0.43,0.34 -0.25,0.94 -1.29,1.11 0.43,0.34 1.11,1.03 -2.06,0.68 -3.18,-0.34 -7.65,-1.80 -9.03,-2.75 -1.37,-0.94 -2.15,-2.58 -3.52,-3.09 -0.51,1.03 -1.20,2.83 -1.37,5.50 -0.17,2.66 -0.48,3.54 -0.71,4.07 C 16.48,45.48 15.94,45.13 16,44.90 z" id="p3124" style="fill:#5c8239;fill-opacity:1;stroke:none"/>
<path d="m 36.12,4.12 c -0.08,-0.08 -1.19,0.78 -2.65,1.81 0,0 0.00,-1.12 -1.28,0.25 -0.08,-0.68 -0.88,-0.50 -2,0.78 C 29.32,6.10 28.46,6.89 28.12,7.40 27.78,7.92 27.28,7.21 25.90,8.25 25.82,6.78 24.15,7.15 23.81,8.18 23.46,9.21 23.21,8.17 22.09,10.15 21.83,9.29 20.72,9.81 19.43,10.84 19.26,10.06 18.74,9.29 17.62,10.15 17.45,9.89 16.94,9.64 16.34,9.90 15.99,9.73 15.75,9.13 15.09,9.31 c 0.33,1.15 0.40,2.39 0.59,3.59 0.24,2.50 0.89,4.97 2.12,7.18 0.66,0.95 1.22,2.37 2.43,2.65 0.54,-0.80 0.69,-1.98 0.93,-2.96 0.48,-1.85 -0.46,-3.90 0.62,-5.62 0.72,-1.74 2.24,0.21 3.28,-0.81 0.73,-1.14 0.14,-2.88 1.28,-3.81 0.74,0.84 1.06,2.69 2.06,3.68 1.28,0.41 2.32,-1.68 3.78,-1.75 1.31,0.38 -0.50,1.80 -1.28,2.03 -1.43,0.38 -2.25,1.95 -1.12,3.15 0.64,1.70 2.45,1.56 3.75,0.78 1.85,-0.62 3.61,-1.47 5.37,-2.31 -0.01,-0.41 -0.19,-0.90 -0.56,-1.03 -0.25,-0.68 -0.36,-1.78 -2,-1.43 0,-0.60 0.18,-1.21 -0.93,-1.46 0.17,-0.34 0.25,-1.37 -0.78,-1.71 0.77,-1.29 0.78,-1.81 0.53,-1.81 C 35.70,6.79 36.21,4.21 36.12,4.12 z" id="p3912" style="fill:#266818;fill-opacity:0.40;stroke:none;display:inline"/>
<path d="m 40.06,19.03 c -0.85,0.73 -1.69,1.46 -2.65,2.06 -1.70,1.26 -3.38,2.61 -5.21,3.68 -1.13,0.73 -3.51,0.79 -3.93,2 0.95,0.91 3.64,1.34 3.06,3.03 -0.42,0.56 -3.11,0.83 -2.21,1.56 1.65,0.35 3.41,0.44 4.96,1.15 0.53,1.07 -1.92,0.84 -2.65,1.15 -1.82,0.35 -3.74,0.40 -5.43,1.25 -1.77,0.05 -1.60,1.84 -0.31,2.46 0.75,0.47 2.88,1.84 0.75,1.87 -0.58,0.13 -1.14,0.37 -1.65,0.68 1.93,0.69 4.45,1.37 6.46,1.59 3.18,0.34 2.49,-0.34 2.06,-0.68 1.03,-0.17 1.74,-0.78 1.31,-1.12 1.29,-0.68 2.83,-1.63 2.06,-3.09 0.86,-0.51 1.69,-1.64 2.12,-3.62 0.25,0.08 1.54,-0.87 0.68,-1.56 1.03,-1.37 1.31,-2.47 0.62,-2.90 0.17,-0.51 -0.10,-1.20 -0.62,-1.37 1.37,-2.49 0.17,-2.32 -0.34,-2.5 0.08,-0.51 0.02,-1.19 -0.40,-1.28 0.28,-0.64 1.73,-3.18 1.34,-4.37 z" id="p3917" style="fill:#1ebf19;fill-opacity:0.17;stroke:none;display:inline"/>
<path d="m 18.84,33.31 c -0.11,0.00 -0.23,0.03 -0.34,0.06 0.18,0.87 0.67,1.73 0.78,2.65 1.01,0.69 1.75,1.95 2.90,2.75 1.37,0.94 5.84,2.43 9.03,2.78 3.18,0.34 2.49,-0.34 2.06,-0.68 1.03,-0.17 1.74,-0.78 1.31,-1.12 1.18,-0.63 2.57,-1.50 2.18,-2.78 -1.03,0.08 -2.08,-0.18 -3.12,-0.18 -1.68,-0.32 -3.43,-0.26 -5.03,-0.96 -1.13,-0.37 -2.18,-1.00 -3.40,-1.12 -1.28,-0.41 -2.59,-0.83 -3.93,-1.03 -0.80,-0.01 -1.64,-0.40 -2.43,-0.34 z" id="p3929" style="fill:#668818;fill-opacity:0.5;stroke:none;display:inline"/>
<path d="M 15.25,9.28 C 14.91,9.32 14.42,9.57 13.75,10.25 13.57,10.16 12.99,8.94 12.21,11.43 11.44,10.40 10.58,11.43 9.46,13.15 8.86,12.46 8.25,12.73 6.96,15.75 6.36,15.31 5.24,14.95 6.62,20.71 c -0.43,0.60 2.22,6.12 4.71,8.18 2.47,2.04 1.25,2.42 6.15,5.93 0.09,-0.12 0.19,-0.24 0.28,-0.37 0.22,-1.33 -0.54,-2.59 -0.84,-3.87 C 16.27,28.87 15.42,27.17 15.34,25.31 14.74,23.13 15.45,20.88 15.25,18.68 14.87,16.55 14.78,14.35 15.37,12.25 15.50,11.30 15.68,10.35 15.78,9.40 15.63,9.30 15.47,9.25 15.25,9.28 z" id="p3931" style="fill:#588818;fill-opacity:0.63;stroke:none;display:inline"/>
<path d="M 24.96,7.28 C 24.50,7.31 23.98,7.67 23.81,8.18 23.46,9.21 23.21,8.17 22.09,10.15 21.89,9.48 21.19,9.66 20.28,10.25 c -0.02,0.92 -0.05,1.85 -0.09,2.78 -0.38,3.66 -0.36,7.32 -0.28,11 -0.03,-0.07 -0.08,-0.16 -0.12,-0.21 0.18,-1.87 -0.47,-3.73 -1.59,-5.21 -1.34,-1.25 -1.92,-3.16 -3.46,-4.21 -1.87,-0.17 -0.23,2.54 0.15,3.46 0.92,1.78 1.53,3.73 1.90,5.71 0.60,2.55 0.93,5.16 1.56,7.71 -0.00,1.24 -0.75,2.15 -1.62,2.96 0.29,0.22 0.55,0.43 0.90,0.68 -0.09,0.16 -0.18,0.44 -0.28,0.81 0.08,-0.00 0.16,0.00 0.25,0 0.35,-0.03 0.71,-0.03 1.06,-0.06 2.99,-0.23 6.02,-0.17 9.03,-0.12 2.45,-0.07 5.22,0.00 7.18,-1.71 1.45,-0.83 0.98,-3.20 -0.87,-2.37 -1.25,0.38 -2.62,0.97 -3.90,0.5 -0.33,-1.23 1.10,-2.44 1.53,-3.65 0.70,-1.38 2.11,-2.58 2.12,-4.21 -1.00,-1.84 -3.21,2.08 -4.31,0.12 1.97,-1.39 4.02,-2.70 6,-4.09 1.36,-1.15 3.00,-1.95 4.31,-3.18 -0.09,-0.76 -0.45,-1.37 -0.87,-1.37 0.17,-0.43 0.01,-1.29 -0.5,-1.46 -0.05,-0.13 -0.10,-0.28 -0.15,-0.43 -1.45,1.17 -3.07,2.22 -4.84,2.87 -1.19,0.31 -2.34,0.82 -3.25,1.68 -0.84,0.97 -3.24,1.55 -3.09,-0.40 0.25,-2.50 0.01,-5.03 -0.5,-7.5 C 26.36,9.61 26.34,8.82 26.21,8.06 26.11,8.12 26.01,8.16 25.90,8.25 25.86,7.51 25.43,7.24 24.96,7.28 z" id="p3941" style="fill:#d3e5c0;fill-opacity:0.07;stroke:none;display:inline"/>
<path d="m 15.25,9.28 c -0.33,0.03 -0.82,0.29 -1.5,0.96 -0.17,-0.08 -0.75,-1.30 -1.53,1.18 -0.77,-1.03 -1.63,-0.00 -2.75,1.71 -0.26,-0.30 -0.54,-0.40 -0.87,-0.18 1.07,1.75 2.48,3.32 2.96,5.37 0.56,1.30 1.31,2.56 2.21,3.65 0.57,1.01 0.75,2.19 1.31,3.21 0.36,0.97 0.39,2.01 0.59,3.03 -2.13,-3.06 -4.67,-5.84 -6.87,-8.87 -1.09,-1.08 -1.75,-2.47 -2.53,-3.78 -0.39,0.22 -0.55,1.34 0.34,5.12 -0.43,0.60 2.22,6.12 4.71,8.18 2.06,1.70 1.58,2.25 4.21,4.43 0.15,0.12 0.26,0.23 0.43,0.37 0.15,0.12 0.29,0.21 0.46,0.34 0.35,0.27 0.70,0.55 1.15,0.87 -0.04,0.08 -0.07,0.20 -0.12,0.34 -0.04,0.14 -0.10,0.30 -0.15,0.5 -0.03,0.14 -0.05,0.27 -0.09,0.43 0.55,-0.45 0.94,-1.12 1.03,-1.84 0.54,-1.38 0.24,-2.89 0.31,-4.34 0.09,-1.22 -0.35,-2.40 -0.40,-3.62 -0.64,-1.10 -0.88,-2.30 -1.46,-3.43 C 16.17,21.85 15.78,20.67 15.25,19.56 15.04,18.67 14.95,17.75 14.84,16.84 14.81,15.89 14.63,14.96 14.75,14 c 0.09,-1.37 0.84,-2.55 1.31,-3.81 0.04,-0.12 0.10,-0.25 0.15,-0.37 C 15.95,9.60 15.74,9.22 15.25,9.28 z" id="p4008" style="fill:#a5c2a0;fill-opacity:0.13;stroke:none;display:inline"/>
<path d="m 36.12,4.12 c -0.03,-0.03 -0.30,0.13 -0.68,0.40 -0.29,0.60 -0.62,1.16 -1.06,1.5 -1.49,1.98 -2.60,4.29 -3.56,6.59 2.02,1.28 4.60,1.39 6.5,2.96 1.97,2.34 -2.87,3.67 -1.62,6.15 0.78,2.69 -2.45,2.91 -3.18,4.81 -0.38,2.26 1.64,5.36 -0.59,7.03 -2.07,0.62 -4.38,0.99 -6.53,0.43 -3.09,-1.59 -2.13,2.24 -0.93,3.71 0.42,0.82 0.82,1.67 1.21,2.53 1.77,0.57 3.84,1.09 5.56,1.28 3.18,0.34 2.49,-0.34 2.06,-0.68 1.03,-0.17 1.74,-0.78 1.31,-1.12 1.29,-0.68 2.83,-1.63 2.06,-3.09 0.86,-0.51 1.69,-1.64 2.12,-3.62 0.25,0.08 1.54,-0.87 0.68,-1.56 1.03,-1.37 1.31,-2.47 0.62,-2.90 0.17,-0.51 -0.10,-1.20 -0.62,-1.37 1.37,-2.49 0.17,-2.32 -0.34,-2.5 0.08,-0.51 0.02,-1.19 -0.40,-1.28 0.34,-0.77 2.39,-4.30 0.84,-4.90 0.51,-1.29 6.72e-4,-2.93 -0.68,-2.93 0.17,-0.43 0.01,-1.29 -0.5,-1.46 -0.25,-0.68 -0.36,-1.78 -2,-1.43 0,-0.60 0.18,-1.21 -0.93,-1.46 0.17,-0.34 0.25,-1.37 -0.78,-1.71 0.77,-1.29 0.78,-1.81 0.53,-1.81 C 35.70,6.79 36.21,4.21 36.12,4.12 z" id="p4012" style="fill:#1b710b;fill-opacity:0.14;stroke:none;display:inline"/>
<path d="m 32.53,18.25 c -1.21,0.14 -2.44,0.30 -3.65,0.5 -0.92,0.22 -1.90,0.22 -2.78,0.56 -0.96,0.77 -0.42,2.36 -1.40,3.15 -1.11,0.73 -2.78,0.74 -3.46,2.06 -0.21,1.32 -0.20,2.95 -1.43,3.81 -1.05,0.98 -1.26,2.50 -1.81,3.78 -0.24,0.76 -0.78,1.45 -1.21,2.15 0.28,0.21 0.53,0.41 0.87,0.65 -0.02,0.04 -0.06,0.11 -0.09,0.18 0.49,-0.21 0.70,0.55 0.87,1.15 0.08,-0.20 0.16,-0.43 0.25,-0.59 0.67,0.25 1.22,0.79 1.75,1.37 -0.03,-0.23 -0.07,-0.45 -0.09,-0.62 -0.28,-0.78 -1.30,-1.42 -0.93,-2.34 1.05,-1.04 1.64,-2.48 2.81,-3.43 0.95,-0.57 2.13,-0.56 3.21,-0.75 0.94,-0.22 2.30,-0.17 2.81,-1.12 C 28.06,27.82 27.03,27.38 26.5,26.65 25.62,26.18 25.07,24.57 26.53,24.5 c 2.05,-1.14 4.43,-1.58 6.43,-2.84 1.49,-0.57 1.07,-3.15 -0.43,-3.40 z" id="p4019" style="fill:#bfd3a4;fill-opacity:0.16;stroke:none;display:inline"/>
<path d="m 34.11,26.18 c -2.04,0.05 -2.07,2.56 -3.27,3.69 -1.27,2.07 1.47,3.79 3.29,2.87 1.99,-0.67 2.02,-3.00 2.68,-4.66 -0.01,-1.56 -2.70,-0.16 -2.70,-1.91 z" id="p4026" style="fill:#1b710b;fill-opacity:0.08;stroke:none;display:inline"/>
<path d="m 34.81,5 c -0.40,0.29 -0.81,0.56 -1.34,0.93 0,0 0.00,-1.12 -1.28,0.25 -0.08,-0.68 -0.88,-0.50 -2,0.78 C 30.09,6.87 30.00,6.80 29.90,6.75 c 0.04,0.45 0.08,0.91 0.03,1.37 0.05,0.84 -0.13,1.74 0.15,2.56 0.10,0.29 0.36,0.57 0.59,0.21 0.73,-0.53 1.72,-0.61 2.43,-1.18 0.65,-0.60 0.59,-1.55 0.71,-2.37 C 34.00,6.51 34.59,5.80 34.81,5 z" id="p4076" style="fill:#a5c2a0;fill-opacity:0.13;stroke:none"/>
<path d="m 17.40,34.75 c 0.08,0.06 0.12,0.12 0.21,0.18 -0.43,0.77 -0.94,4.13 -1.03,5.59 -0.08,1.46 -0.24,3.17 -0.59,4.37 -0.05,0.23 0.47,0.57 0.56,0.37 0.22,-0.52 0.54,-1.39 0.71,-4.06 0.17,-2.66 0.85,-4.49 1.37,-5.53 0.24,0.09 0.47,0.22 0.68,0.37 -0.29,-1.38 -1.05,-2.27 -1.93,-1.31 z" id="p4131" style="fill:#e4f067;fill-opacity:0.66;stroke:none"/>
<path d="m 24.58,26.67 c 0.77,0.15 1.40,0.15 2.33,-0.31" id="p4155" style="fill:none;stroke:#daeac6;stroke-width:1.89;stroke-linecap:round;stroke-linejoin:miter;stroke-miterlimit:4;stroke-opacity:0.10;stroke-dasharray:none"/>
<path d="m 22.84,26.05 c -0.54,1.21 -1.28,2.33 -1.66,3.63 -0.38,1.24 -1.45,2.04 -2.05,3.16 -0.25,0.36 -0.53,0.71 -0.90,0.96" id="p4109" style="fill:none;stroke:#f4f9cb;stroke-width:1px;stroke-linecap:round;stroke-linejoin:miter;stroke-opacity:0.18"/>
<path d="m 18.26,34.45 c 2.20,-3.46 4.30,-7.13 4.93,-8.29 0.62,-1.15 2.62,-5.56 3.25,-6.50 0.62,-0.94 2.41,-5.03 3.56,-6.71" id="p4091" style="fill:none;stroke:#c4e655;stroke-width:0.30;stroke-linecap:butt;stroke-linejoin:miter;stroke-miterlimit:4;stroke-opacity:0.75;stroke-dasharray:none"/>
<path d="M 23.09,26.26 C 21.20,22.17 20.26,17.87 19.73,14.19" id="p4093" style="fill:none;stroke:#c4e655;stroke-width:0.2;stroke-linecap:round;stroke-linejoin:miter;stroke-miterlimit:4;stroke-opacity:0.53;stroke-dasharray:none"/>
<path d="M 25.82,20.39 C 24.14,16.19 24.04,12.72 24.04,11.46" id="p4095" style="fill:none;stroke:#d3ec80;stroke-width:0.2;stroke-linecap:round;stroke-linejoin:miter;stroke-miterlimit:4;stroke-opacity:0.45;stroke-dasharray:none"/>
<path d="M 18.16,34.45 C 17.74,29.20 15.95,23.64 15.32,22.28" id="p4097" style="fill:none;stroke:#eaf686;stroke-width:0.30;stroke-linecap:butt;stroke-linejoin:miter;stroke-miterlimit:4;stroke-opacity:0.63;stroke-dasharray:none"/>
<path d="M 23.41,26.16 C 27.29,25.63 37.16,23.11 38.63,17.03" id="p4099" style="fill:none;stroke:#c4e655;stroke-width:0.2;stroke-linecap:round;stroke-linejoin:miter;stroke-miterlimit:4;stroke-opacity:0.56;stroke-dasharray:none"/>
<path d="m 30.44,24.37 c 0.94,1.15 0.94,1.25 1.78,1.57" id="p4101" style="fill:none;stroke:#c4e655;stroke-width:0.2;stroke-linecap:round;stroke-linejoin:miter;stroke-miterlimit:4;stroke-opacity:0.29;stroke-dasharray:none"/>
<path d="m 26.34,19.76 c 2.20,0 5.03,-0.83 8.50,-3.35" id="p4103" style="fill:none;stroke:#c8d891;stroke-width:0.2;stroke-linecap:round;stroke-linejoin:miter;stroke-miterlimit:4;stroke-opacity:0.45;stroke-dasharray:none"/>
<path d="m 30.01,12.95 c 1.33,-2.14 2.53,-4.00 4.00,-5.47" id="p4105" style="fill:none;stroke:#c4e655;stroke-width:0.2;stroke-linecap:butt;stroke-linejoin:miter;stroke-miterlimit:4;stroke-opacity:0.45;stroke-dasharray:none"/>
<path d="m 28.86,14.93 c 1.78,-0.52 2.72,-1.15 3.35,-1.04" id="p4107" style="fill:none;stroke:#c4e655;stroke-width:0.2;stroke-linecap:round;stroke-linejoin:miter;stroke-miterlimit:4;stroke-opacity:0.45;stroke-dasharray:none"/>
<path d="M 18.06,34.30 C 16.52,32.41 15.93,30.29 14.40,28.52 12.86,26.75 11.21,24.62 9.91,22.26" id="p4117" style="fill:none;stroke:#eaf686;stroke-width:0.30;stroke-linecap:round;stroke-linejoin:miter;stroke-miterlimit:4;stroke-opacity:0.63;stroke-dasharray:none"/>
<path d="m 15.22,22.26 c -3.06,-1.06 -3.30,-2.12 -5.78,-6.49" id="p4119" style="fill:none;stroke:#eaf686;stroke-width:0.2;stroke-linecap:butt;stroke-linejoin:miter;stroke-miterlimit:4;stroke-opacity:0.48;stroke-dasharray:none"/>
<path d="m 11.92,14.00 c 1.06,1.29 1.41,1.53 2.12,1.88 0.11,1.77 0.42,4.35 1.27,6.39" id="p4121" style="fill:none;stroke:#eaf686;stroke-width:0.30;stroke-linecap:butt;stroke-linejoin:miter;stroke-miterlimit:4;stroke-opacity:0.48;stroke-dasharray:none"/>
<path d="m 14.04,15.89 c 0.82,-2.00 0.82,-3.77 0.82,-4.48" id="p4123" style="fill:none;stroke:#eaf686;stroke-width:0.2;stroke-linecap:round;stroke-linejoin:miter;stroke-miterlimit:4;stroke-opacity:0.48;stroke-dasharray:none"/>
<path d="m 18.29,34.42 c 5.19,-0.23 10.74,-1.53 12.74,-2.36" id="p4125" style="fill:none;stroke:#eaf686;stroke-width:0.30;stroke-linecap:butt;stroke-linejoin:miter;stroke-miterlimit:4;stroke-opacity:0.63;stroke-dasharray:none"/>
<path d="m 37.42,26.04 c -0.94,3.30 -4.60,5.43 -6.72,6.13" id="p4127" style="fill:none;stroke:#eaf686;stroke-width:0.2;stroke-linecap:butt;stroke-linejoin:miter;stroke-miterlimit:4;stroke-opacity:0.63;stroke-dasharray:none"/>
<path d="m 32.58,36.90 c -2.59,0.11 -8.02,-0.82 -14.04,-2.24 5.78,2.71 4.48,2.59 9.79,5.07" id="p4129" style="fill:none;stroke:#eaf686;stroke-width:0.2;stroke-linecap:round;stroke-linejoin:round;stroke-miterlimit:4;stroke-opacity:0.63;stroke-dasharray:none"/>
<path d="m 18.21,34.52 c -0.11,0.26 -0.24,0.46 -0.34,0.76" id="p4149" style="fill:none;stroke:#cfe27e;stroke-width:0.80;stroke-linecap:round;stroke-linejoin:miter;stroke-miterlimit:4;stroke-opacity:1;stroke-dasharray:none"/>
<path d="m 16.96,19.98 c 0.93,1.55 1.24,2.95 1.24,4.20" id="p4151" style="fill:none;stroke:#daeac6;stroke-width:1.5;stroke-linecap:round;stroke-linejoin:miter;stroke-miterlimit:4;stroke-opacity:0.10;stroke-dasharray:none"/>
<path d="m 28.01,21.07 c 2.17,-0.31 3.57,-0.46 4.66,-1.40" id="p4153" style="fill:none;stroke:#daeac6;stroke-width:1px;stroke-linecap:round;stroke-linejoin:miter;stroke-opacity:0.10"/>
<path d="m 33.27,27.13 c -0.71,0.89 -1.07,1.07 -1.43,2.15" id="p4157" style="fill:none;stroke:#1f4312;stroke-width:1.60;stroke-linecap:round;stroke-linejoin:miter;stroke-miterlimit:4;stroke-opacity:0.11;stroke-dasharray:none"/>
<path d="m 34.89,14.72 c -0.71,0.17 -1.43,0.71 -2.15,1.25" id="p4159" style="fill:none;stroke:#1f4312;stroke-width:1.70;stroke-linecap:round;stroke-linejoin:miter;stroke-miterlimit:4;stroke-opacity:0.22;stroke-dasharray:none"/>
<path d="m 16,44.90 c 0.34,-1.20 0.51,-2.92 0.60,-4.38 0.08,-1.46 0.60,-4.81 1.03,-5.59 C 12.55,31.31 13.84,30.96 11.35,28.90 8.86,26.83 6.19,21.33 6.62,20.73 5.24,14.96 6.36,15.31 6.96,15.74 8.25,12.73 8.86,12.47 9.46,13.16 10.58,11.44 11.44,10.40 12.21,11.44 c 0.77,-2.49 1.37,-1.29 1.54,-1.20 1.80,-1.80 2.06,-0.60 2.58,-0.34 0.60,-0.25 1.11,0 1.29,0.25 1.11,-0.86 1.63,-0.08 1.80,0.68 1.29,-1.03 2.40,-1.54 2.66,-0.68 1.11,-1.97 1.37,-0.94 1.72,-1.97 0.34,-1.03 1.97,-1.37 2.06,0.08 1.37,-1.03 1.89,-0.34 2.23,-0.86 0.34,-0.51 1.20,-1.29 2.06,-0.43 1.11,-1.29 1.89,-1.46 1.97,-0.77 1.29,-1.37 1.29,-0.25 1.29,-0.25 1.46,-1.03 2.58,-1.89 2.66,-1.80 0.08,0.08 -0.43,2.66 -0.94,3.52 0.25,0 0.25,0.51 -0.51,1.80 1.03,0.34 0.94,1.37 0.77,1.72 1.11,0.25 0.94,0.86 0.94,1.46 1.63,-0.34 1.72,0.77 1.97,1.46 0.51,0.17 0.68,1.03 0.51,1.46 0.68,0 1.20,1.63 0.68,2.92 1.54,0.60 -0.51,4.12 -0.86,4.90 0.43,0.08 0.51,0.77 0.43,1.29 0.51,0.17 1.72,0 0.34,2.49 0.51,0.17 0.77,0.86 0.60,1.37 0.68,0.43 0.43,1.54 -0.60,2.92 0.86,0.68 -0.43,1.63 -0.68,1.54 -0.43,1.97 -1.29,3.09 -2.15,3.61 0.77,1.46 -0.77,2.40 -2.06,3.09 0.43,0.34 -0.25,0.94 -1.29,1.11 0.43,0.34 1.11,1.03 -2.06,0.68 -3.18,-0.34 -7.65,-1.80 -9.03,-2.75 -1.37,-0.94 -2.15,-2.58 -3.52,-3.09 -0.51,1.03 -1.20,2.83 -1.37,5.50 -0.17,2.66 -0.48,3.54 -0.71,4.07 C 16.48,45.48 15.94,45.13 16,44.90 z" id="stroke01" style="fill:none;stroke:#203c12;stroke-width:0.5;stroke-miterlimit:4;stroke-opacity:1;stroke-dasharray:none"/>
</g>
</svg>
