<?xml version="1.0" encoding="UTF-8" standalone="no"?>
<!DOCTYPE svg PUBLIC "-//W3C//DTD SVG 1.0//EN" "http://www.w3.org/TR/2001/REC-SVG-20010904/DTD/svg10.dtd">
<svg xmlns:svg="http://www.w3.org/2000/svg" xmlns="http://www.w3.org/2000/svg" version="1.0" width="100%" height="100%" viewBox="0 0 48 48" id="_leaf03">
<defs id="defs2386"/>
<g id="leaf03" style="display:inline">
<path d="M 34.62,5.75 C 32.92,5.66 30.20,5.99 26.53,8.59 20.75,12.67 16.66,21.96 20.18,28.62 c -4.04,3.58 -6.78,5.96 -8.75,7.40 -2.09,1.53 -3.40,2.10 -5.03,2.40 -1.35,0.25 -2.24,0.36 -2.93,0.5 -0.69,0.13 -1.22,0.31 -1.65,0.75 l 0.62,0.62 c 0.27,-0.27 0.56,-0.37 1.18,-0.5 0.62,-0.12 1.55,-0.21 2.93,-0.46 1.75,-0.32 3.25,-1.01 5.40,-2.59 2.02,-1.48 4.78,-3.87 8.84,-7.46 4.19,2.70 13.32,-0.06 16.06,-1.62 2.83,-1.62 3.61,-3.86 5.84,-6.5 2.22,-2.63 2.96,-8.90 3.06,-9.71 0.10,-0.81 1.30,-2.54 0.59,-3.25 C 45.66,7.47 37.27,5.86 36.56,5.96 36.29,6.00 35.64,5.80 34.62,5.75 z" id="p3073" style="fill:#82ab20;fill-opacity:1;stroke:none"/>
<path d="m 29.5,11.75 c -0.45,0.02 -0.90,0.12 -1.34,0.31 -1.62,0.89 -2.92,2.31 -4.53,3.25 -1.47,0.84 -2.45,2.23 -3.56,3.46 -0.28,0.37 -0.53,0.77 -0.81,1.15 -0.63,2.98 -0.46,6.03 0.93,8.68 -1.30,1.16 -2.28,1.98 -3.34,2.90 0.03,0.35 0.11,0.71 0.18,1.06 1.16,-1.00 2.30,-1.99 3.78,-3.31 4.19,2.70 13.32,-0.06 16.06,-1.62 0.46,-0.26 0.85,-0.54 1.21,-0.84 0.66,-1.35 1.66,-2.59 2.62,-3.78 1.36,-1.55 1.16,-3.90 0.37,-5.68 -0.38,-1.39 -1.23,-2.74 -2.78,-3 -1.80,-0.12 -3.03,-1.46 -4.65,-2.06 C 32.30,12.14 30.87,11.66 29.5,11.75 z" id="p4025" style="fill:#b9f295;fill-opacity:0.09;stroke:none;display:inline"/>
<path d="m 46.53,8.46 c -0.12,0.11 -0.24,0.23 -0.34,0.37 -2.14,0.97 -4.33,1.88 -6.25,3.28 -3.65,3.14 -7.15,6.54 -11.21,9.18 -3.64,1.73 -4.93,6.10 -8.46,7.96 -0.11,0.03 -0.29,-0.03 -0.37,0.09 -0.02,0.25 -0.02,0.49 -0.03,0.75 0.35,-0.31 0.59,-0.50 0.96,-0.84 4.19,2.70 13.32,-0.06 16.06,-1.62 2.83,-1.62 3.61,-3.86 5.84,-6.5 2.22,-2.63 2.96,-8.90 3.06,-9.71 0.09,-0.72 1.03,-2.15 0.75,-2.96 z" id="p3868" style="fill:#6e740e;fill-opacity:0.18;stroke:none"/>
<path d="m 33.93,5.75 c -1.70,0.04 -4.19,0.57 -7.40,2.84 -0.98,0.69 -1.89,1.54 -2.75,2.5 0.53,-0.05 1.07,-0.08 1.62,-0.06 2.84,-0.09 5.69,-0.07 8.31,1.18 2.32,0.89 4.68,1.67 6.37,3.62 1.46,0.69 3.11,0.57 4.75,0.5 0.60,-2.28 0.88,-4.45 0.93,-4.90 0.10,-0.81 1.30,-2.54 0.59,-3.25 C 45.66,7.47 37.27,5.86 36.56,5.96 36.29,6.00 35.64,5.80 34.62,5.75 34.41,5.73 34.18,5.74 33.93,5.75 z" id="p3876" style="fill:#246617;fill-opacity:0.06;stroke:none"/>
<path d="m 38.81,13.15 c -0.03,0.00 -0.06,0.02 -0.09,0.03 -0.96,0.85 -1.93,1.71 -2.90,2.56 -0.02,0.04 -0.06,0.08 -0.09,0.12 -0.68,0.79 -1.47,1.41 -2.34,1.93 -1.49,1.24 -3.02,2.43 -4.65,3.5 -3.64,1.73 -4.93,6.10 -8.46,7.96 -0.11,0.03 -0.29,-0.03 -0.37,0.09 -0.02,0.25 -0.02,0.49 -0.03,0.75 0.31,-0.26 0.59,-0.50 0.96,-0.84 0.26,0.16 0.54,0.30 0.84,0.43 0.18,0.08 0.39,0.15 0.59,0.21 0.10,0.03 0.20,0.06 0.31,0.09 0.21,0.05 0.43,0.11 0.65,0.15 0.40,0.07 0.82,0.12 1.25,0.15 0.05,0.00 0.10,0.02 0.15,0.03 0.03,0.00 0.06,-0.00 0.09,0 0.36,0.02 0.74,0.03 1.12,0.03 0.09,-9.43e-4 0.18,0.00 0.28,0 0.07,-0.00 0.14,0.00 0.21,0 0.38,-0.01 0.79,-0.05 1.18,-0.09 0.05,-0.00 0.10,0.00 0.15,0 0.17,-0.01 0.35,-0.03 0.53,-0.06 0.34,-0.04 0.68,-0.09 1.03,-0.15 0.05,-0.00 0.10,-0.02 0.15,-0.03 0.01,-0.00 0.02,0.00 0.03,0 0.65,-0.11 1.27,-0.28 1.90,-0.43 0.11,-0.02 0.23,-0.03 0.34,-0.06 0.19,-0.05 0.37,-0.10 0.56,-0.15 C 31.39,29.08 30.61,28.57 29.96,28 28.94,27.07 29.28,25.49 30.28,24.71 31.38,23.70 32.74,22.98 33.87,22 c 2.40,-1.83 5.12,-3.75 6,-6.81 0.51,-0.93 -0.06,-2.20 -1.06,-2.03 z" id="p3881" style="fill:#088a19;fill-opacity:0.15;stroke:none"/>
<path d="m 33.93,5.75 c -1.70,0.04 -4.19,0.57 -7.40,2.84 -5.15,3.64 -8.92,11.41 -7.18,17.78 1.70,-1.36 4.47,-2.13 4.37,-4.53 -0.44,-1.76 0.54,-3.45 1.40,-4.93 0.76,-1.87 2.36,-3.30 4.40,-3.68 C 31.09,13.18 32.64,11.00 30.31,11.25 29.56,11.10 27.29,11.73 28.03,10.43 30.70,9.06 33.59,8.06 36.37,6.90 37.20,6.74 38.01,6.49 38.84,6.28 37.69,6.08 36.77,5.93 36.56,5.96 36.29,6.00 35.64,5.80 34.62,5.75 34.41,5.73 34.18,5.74 33.93,5.75 z" id="p3887" style="fill:#acd60c;fill-opacity:0.15;stroke:none"/>
<path d="m 33.93,5.75 c -1.70,0.04 -4.19,0.57 -7.40,2.84 -2.30,1.62 -4.32,4.08 -5.71,6.87 0.34,-0.32 0.66,-0.64 0.96,-1 0.90,-0.92 1.88,-1.81 3,-2.46 0.90,-0.70 1.48,-1.62 2.59,-2.18 1.48,-0.93 3.19,-1.71 5,-1.62 1.45,-0.17 3.21,-0.44 4.56,0.18 1.04,0.64 2.04,1.51 2.40,2.71 0.47,1.01 0.35,2.81 2.03,2.40 1.14,0.31 2.08,1.15 3.03,1.84 0.20,0.04 0.45,0.07 0.68,0.12 0.28,-1.24 0.42,-2.23 0.53,-3 -0.91,-0.25 -1.94,-2.71e-4 -2.87,-0.34 -1.21,-0.21 -2.11,0.05 -1.81,-1.5 C 40.20,9.61 39.26,8.60 38.53,7.53 38.19,7.00 37.80,6.52 37.40,6.03 36.99,5.97 36.67,5.95 36.56,5.96 36.29,6.00 35.64,5.80 34.62,5.75 34.41,5.73 34.18,5.74 33.93,5.75 z" id="p3958" style="fill:#b9e098;fill-opacity:0.21;stroke:none;display:inline"/>
<path d="m 43.40,7.21 c 0.09,0.55 -0.23,1.08 -0.15,1.62 0.10,0.38 -0.14,0.63 -0.40,0.75 -0.04,0.24 -0.25,0.34 -0.43,0.40 0.23,0.31 0.57,0.47 0.93,0.59 0.47,0.13 0.95,0.16 1.43,0.18 0.37,0.16 0.76,0.06 1.15,0.15 0.32,-0.88 1.02,-2.16 0.43,-2.75 C 46.12,7.93 44.90,7.58 43.40,7.21 z" id="p3960" style="fill:#b9e098;fill-opacity:0.18;stroke:none;display:inline"/>
<path d="m 37.90,13.81 c -0.28,-0.02 -1.03,0.18 -1.06,0.5 -0.81,0.49 -1.57,1.14 -2.34,1.71 -0.93,0.46 -1.84,0.97 -2.90,1.18 -1.06,0.27 -2.14,0.52 -3.09,1.09 -1.10,0.46 -2.18,0.77 -3.25,1.34 -0.87,0.30 -1.71,0.72 -2.65,0.78 -0.42,0.00 -1.78,0.29 -0.75,0.43 1.25,0.15 2.54,0.01 3.81,0.06 0.31,0.07 1.57,-0.60 0.81,0.06 -0.77,0.69 -1.38,1.14 -2.18,1.75 -0.87,0.43 -1.50,1.26 -2.43,1.62 -0.88,0.47 -1.85,0.72 -2.71,1.18 0.20,1.06 0.54,2.08 1.06,3.06 -0.13,0.11 -0.21,0.16 -0.34,0.28 0.16,0.16 0.35,0.33 0.5,0.46 0.11,-0.21 0.27,-0.25 0.37,-0.25 0.46,-0.35 0.98,-0.73 1.5,-1.06 0.74,-0.33 1.09,-1.01 1.59,-1.62 0.58,-0.80 1.14,-1.54 1.81,-2.28 0.48,-0.67 1.16,-1.22 1.53,-1.96 0.49,-0.36 0.79,-1.19 1.5,-1.53 0.87,-0.45 1.55,-1.20 2.5,-1.5 0.63,-0.75 1.60,-0.89 2.34,-1.53 0.66,-0.53 1.55,-1.24 2.37,-1.78 0.59,-0.65 1.47,-0.88 1.81,-1.65 0.38,-0.23 0.39,-0.35 0.21,-0.37 z M 20.71,29.12 c -0.10,0.07 -0.21,0.17 -0.31,0.25 0.19,-0.01 0.32,-0.04 0.37,-0.09 0.08,-0.07 0.03,-0.14 -0.06,-0.15 z" id="p3964" style="fill:#acd4a4;fill-opacity:0.26;stroke:none;display:inline"/>
<path d="m 40.68,15.46 c -0.81,-0.02 -1.61,0.16 -2.21,0.81 -1.06,0.60 -1.66,1.62 -2.12,2.71 -0.60,1.11 -1.75,1.76 -2.71,2.53 -1.05,0.49 -2.19,0.87 -3.15,1.56 -1.26,0.49 -2.14,1.65 -3.03,2.65 -0.60,0.93 -1.32,1.75 -1.96,2.65 -0.48,0.81 -1.30,1.29 -2.06,1.81 4.60,0.82 11.21,-1.27 13.46,-2.56 1.21,-0.69 2.04,-1.50 2.78,-2.40 -0.65,-0.02 -1.28,-0.06 -1.93,0.09 -1.69,0.09 -3.35,0.82 -5.06,0.56 -0.12,-0.76 1.26,-1.62 1.96,-2.12 0.89,-0.69 1.74,-1.48 2.18,-2.56 0.96,-0.90 1.84,-1.91 2.87,-2.75 1.10,-1.01 2.58,-0.40 3.68,0.25 0.19,0.05 0.40,0.14 0.62,0.25 0.36,-0.86 0.66,-1.81 0.90,-2.75 -0.90,-0.21 -1.82,-0.41 -2.75,-0.53 -0.46,-0.10 -0.97,-0.20 -1.46,-0.21 z" id="p3966" style="fill:#acd4a4;fill-opacity:0.20;stroke:none;display:inline"/>
<path d="m 42.34,11.84 c -0.20,0.00 -0.39,0.01 -0.59,0.03 -0.56,0.26 -1.12,0.54 -1.59,0.96 -0.18,0.16 -0.83,0.43 -0.65,0.59 0.67,0.05 1.37,-0.10 2,0.21 0.52,0.26 1.13,0.21 1.68,0.40 0.50,0.12 1.06,0.12 1.56,0.31 0.19,0.03 0.34,0.14 0.5,0.25 0.19,-0.97 0.32,-1.66 0.40,-2.25 -0.49,0.00 -0.99,0.03 -1.46,-0.12 -0.44,-0.02 -0.77,-0.35 -1.21,-0.37 -0.20,-0.01 -0.41,-0.03 -0.62,-0.03 z m -2.87,3.87 c 0.40,0.34 0.87,0.61 1.28,0.96 0.65,0.51 1.38,0.93 2.03,1.46 0.37,0.30 0.77,0.57 1.21,0.78 0.36,-0.85 0.63,-1.80 0.87,-2.71 -0.22,0.02 -0.45,0.10 -0.65,0.21 -1.10,0.41 -2.35,0.31 -3.40,-0.21 -0.44,-0.14 -0.88,-0.43 -1.34,-0.5 z" id="p4033" style="fill:#e0eb48;fill-opacity:0.19;stroke:none;display:inline"/>
<path d="m 39,13.12 c -0.10,0.03 -0.20,0.10 -0.31,0.25 -1.24,0.86 -2.45,1.79 -3.68,2.68 -1.07,0.77 -2.12,1.57 -3.15,2.40 -0.79,1.15 -1.94,1.98 -3.03,2.84 -1.10,0.97 -2.41,1.75 -3.25,3 -0.78,1.08 -1.95,1.75 -3.03,2.5 -0.65,0.77 -1.20,1.68 -2.12,2.21 0.12,0.26 -0.03,0.44 -0.09,0.68 0.18,-0.16 0.30,-0.26 0.5,-0.43 0.24,0.15 0.50,0.28 0.78,0.40 0.00,-0.00 -0.00,-0.02 0,-0.03 -0.33,-1.01 0.60,-1.71 1.34,-2.31 1.27,-0.16 2.49,-0.65 3.68,-1.15 1.05,-0.23 0.20,-0.80 -0.34,-1 C 26.73,24.28 28.06,23.93 29,23.5 c 1.15,-0.36 -0.16,-0.39 -0.65,-0.34 -1.00,0.09 0.05,-0.40 0.43,-0.40 0.97,-0.35 2.08,-0.48 3,-1 -0.02,-0.59 -1.36,-0.16 -1.75,-0.65 0.63,-0.80 2.01,-0.49 2.93,-0.87 1.03,-0.61 1.94,-1.43 2.96,-2.09 0.48,-0.66 -1.76,0.05 -1.5,-0.71 0.73,-0.49 1.67,-0.48 2.46,-0.84 0.69,-0.28 1.49,-0.54 2.09,-0.87 -0.88,-0.20 -1.94,0.45 -2.71,0.18 0.61,-0.99 1.78,-1.51 2.65,-2.28 C 39.50,13.36 39.30,13.03 39,13.12 z" id="p4038" style="fill:#2d7500;fill-opacity:0.31;stroke:none;display:inline"/>
<path d="m 34.65,16.15 c 0.46,-0.90 0.35,-1.98 0.71,-2.92 -0.20,-0.66 -1.07,0.53 -1.43,0.76 -0.56,0.56 -0.92,1.28 -1.07,2.06 -0.36,0.72 -0.25,-0.60 -0.12,-0.86 0.09,-0.37 0.34,-1.30 0.09,-1.36 -0.43,0.66 -0.64,1.46 -1.14,2.09 -0.62,1.09 -0.78,2.50 -1.80,3.33 -0.51,0.13 -0.28,-1.04 -0.46,-1.45 -0.08,-1.12 -0.92,0.13 -1.17,0.55 -0.61,0.73 -1.76,0.35 -2.52,0.89 -0.25,0.13 -1.56,0.61 -0.60,0.61 0.94,-0.25 1.22,0.79 0.63,1.39 -0.21,0.60 -0.30,1.54 -1.09,1.60 -0.45,-0.08 -0.52,-1.57 -0.75,-0.48 -0.23,0.80 0.10,2.08 -0.60,2.57 -0.71,-0.00 -1.43,-0.00 -2.15,-0.00 0.63,0.53 1.14,1.24 1.24,2.07 0.75,-0.08 1.38,-0.89 1.96,-1.37 0.53,-0.73 1.18,-1.36 1.84,-1.97 0.68,-0.83 1.67,-1.31 2.49,-1.99 0.75,-0.61 1.64,-1.13 2.12,-2.02 0.86,-1.12 2.15,-1.79 3.23,-2.67 0.18,-0.23 0.87,-0.44 0.61,-0.82 z" id="p4043" style="fill:#b9f295;fill-opacity:0.17;stroke:none;display:inline"/>
<path d="m 33.93,5.75 c -1.06,0.02 -2.44,0.23 -4.09,0.93 0.61,0.26 1.29,0.38 1.90,0.65 0.92,0.43 1.98,0.31 2.96,0.5 0.74,-0.01 1.34,0.49 2.06,0.65 0.67,0.18 1.32,0.54 1.56,1.25 0.53,0.61 0.71,1.51 1.43,1.96 0.78,0.55 1.22,-0.39 1.68,-0.84 0.59,-0.52 1.32,-0.85 2.12,-0.87 0.65,-0.13 1.36,-0.20 1.75,-0.84 C 45.63,8.81 45.99,8.48 46.28,8.12 45.20,7.39 37.25,5.87 36.56,5.96 36.29,6.00 35.64,5.80 34.62,5.75 34.41,5.73 34.18,5.74 33.93,5.75 z" id="p4082" style="fill:#78af56;fill-opacity:0.24;stroke:none;display:inline"/>
<path d="m 29.25,6.96 c -0.84,0.40 -1.73,0.93 -2.71,1.62 -4.18,2.96 -7.46,8.64 -7.62,14.09 0.54,-0.85 0.74,-1.93 1.09,-2.87 0.56,-2.10 2.46,-3.37 4.12,-4.59 1.23,-1.16 2.84,-1.76 4.40,-2.34 1.79,-0.99 3.92,-0.77 5.87,-1.15 0.92,-0.15 2.31,-0.86 1.75,-2 C 35.24,8.82 34.11,8.15 32.90,7.75 31.70,7.47 30.48,7.13 29.25,6.96 z" id="p4086" style="fill:#2d7500;fill-opacity:0.14;stroke:none;display:inline"/>
<path d="m 27.85,13.82 c 2.51,-1.57 5.02,-2.51 6.17,-1.86" id="p4118" style="fill:none;stroke:#a9cb49;stroke-width:2.79;stroke-linecap:round;stroke-linejoin:miter;stroke-miterlimit:4;stroke-opacity:0.38;stroke-dasharray:none;display:inline"/>
<path d="m 40.13,13.89 c 1.00,-0.50 3.01,-0.28 3.51,-0.14" id="p4121" style="fill:none;stroke:#a9cb49;stroke-width:1.29;stroke-linecap:round;stroke-linejoin:miter;stroke-miterlimit:4;stroke-opacity:0.27;stroke-dasharray:none"/>
<path d="m 41.68,22.43 c -0.50,0.25 -1.03,0.74 -1.40,0.93 -1.17,0.58 -2.34,1.16 -3.18,2.21 -1.28,1.55 -3.43,1.92 -5.34,1.90 -1.78,-0.14 -3.45,0.52 -5.21,0.68 -1.79,0.04 -3.86,0.16 -5.31,1.31 4.34,2.30 13.00,-0.32 15.65,-1.84 2.35,-1.34 3.28,-3.14 4.81,-5.21 z" id="p4123" style="fill:#dff030;fill-opacity:0.15;stroke:none;display:inline"/>
<path d="m 34.11,22.34 c -1.26,0.84 -2.28,1.86 -2.79,2.37" id="p4149" style="fill:none;stroke:#d8e8ad;stroke-width:1.79;stroke-linecap:round;stroke-linejoin:miter;stroke-miterlimit:4;stroke-opacity:0.20;stroke-dasharray:none"/>
<path d="M 21.61,27.67 C 24.87,24.18 34.28,15.91 35.87,15.00" id="p4151" style="fill:none;stroke:#d8e8ad;stroke-width:0.89;stroke-linecap:round;stroke-linejoin:miter;stroke-miterlimit:4;stroke-opacity:0.29;stroke-dasharray:none;display:inline"/>
<path d="m 39.66,12.20 c 1.44,-0.75 2.19,-1.51 2.95,-1.82" id="p4153" style="fill:none;stroke:#d8e8ad;stroke-width:0.69;stroke-linecap:round;stroke-linejoin:miter;stroke-miterlimit:4;stroke-opacity:0.29;stroke-dasharray:none;display:inline"/>
<path d="m 41.04,13.52 c -1.64,0.86 -2.82,1.64 -4.19,3.28" id="p4370" style="fill:none;stroke:#a6c94a;stroke-width:1.29;stroke-linecap:round;stroke-linejoin:miter;stroke-miterlimit:4;stroke-opacity:0.29;stroke-dasharray:none"/>
<path d="m 39.54,11.50 c -2.44,0.79 -3.11,2.19 -4.14,3.23" id="p4391" style="fill:none;stroke:#a6c94a;stroke-width:1.60;stroke-linecap:round;stroke-linejoin:miter;stroke-miterlimit:4;stroke-opacity:0.18;stroke-dasharray:none"/>
<path d="m 2.27,39.88 c 1.51,-0.68 3.64,-0.68 5.91,-1.36 2.27,-0.68 11.90,-9.02 13.88,-10.92 1.97,-1.89 3.64,-3.94 5.30,-5.30" id="p4157" style="fill:none;stroke:#b5bc57;stroke-width:0.5;stroke-linecap:butt;stroke-linejoin:miter;stroke-miterlimit:4;stroke-opacity:0.90;stroke-dasharray:none"/>
<path d="m 27.31,22.44 c 1.70,-1.54 6.24,-5.62 8.20,-7.02" id="p4159" style="fill:none;stroke:#b5bc57;stroke-width:0.40;stroke-linecap:butt;stroke-linejoin:miter;stroke-miterlimit:4;stroke-opacity:0.90;stroke-dasharray:none;display:inline"/>
<path d="M 46.26,8.44 C 44.61,9.58 38.31,12.93 35.52,15.41" id="p4161" style="fill:none;stroke:#b5bc57;stroke-width:0.2;stroke-linecap:butt;stroke-linejoin:miter;stroke-miterlimit:4;stroke-opacity:0.90;stroke-dasharray:none;display:inline"/>
<path d="m 20.25,28.70 c -0.19,-0.60 -0.20,-1.23 -0.19,-1.85 -0.29,-0.95 -0.15,-1.96 -0.19,-2.95 0.01,-0.63 -0.06,-1.28 0.10,-1.90 0.02,-0.43 0.24,-0.81 0.25,-1.25 0.10,-0.58 0.18,-1.17 0.28,-1.76 0.12,-0.47 0.16,-0.96 0.27,-1.44 0.04,-0.58 0.28,-1.12 0.41,-1.69 0.01,-0.12 0.00,-0.24 0.00,-0.36" id="p4169" style="fill:none;stroke:#a4bc57;stroke-width:0.2;stroke-linecap:butt;stroke-linejoin:miter;stroke-miterlimit:4;stroke-opacity:0.56;stroke-dasharray:none"/>
<path d="m 21.10,28.36 c 0.07,-1.20 0.34,-2.39 0.32,-3.60 0.00,-0.73 0.02,-1.47 0.18,-2.19 0.15,-0.93 0.32,-1.86 0.44,-2.80 0.04,-0.70 0.20,-1.39 0.29,-2.09 0.03,-0.88 0.24,-1.76 0.65,-2.56 0.39,-1.02 1.17,-1.82 1.72,-2.76 0.21,-0.45 0.41,-0.92 0.46,-1.42" id="p4171" style="fill:none;stroke:#a4bc57;stroke-width:0.2;stroke-linecap:butt;stroke-linejoin:miter;stroke-miterlimit:4;stroke-opacity:0.56;stroke-dasharray:none"/>
<path d="m 28.35,8.44 c -0.60,1.64 -1.36,3.22 -1.99,4.85 -0.42,0.98 -0.92,1.95 -1.07,3.03 -0.13,0.73 -0.19,1.48 -0.51,2.16 -0.23,0.55 -0.34,1.16 -0.34,1.76 -0.21,0.87 -0.11,1.78 -0.21,2.66 -0.24,0.65 -0.46,1.31 -0.43,2.02 -0.00,0.23 -0.00,0.47 0.05,0.69" id="p4175" style="fill:none;stroke:#a4bc57;stroke-width:0.2;stroke-linecap:butt;stroke-linejoin:miter;stroke-miterlimit:4;stroke-opacity:0.56;stroke-dasharray:none"/>
<path d="m 27.11,22.74 c 0.02,-1.43 0.25,-2.86 0.64,-4.23 0.18,-1.02 0.24,-2.09 0.65,-3.06 0.16,-0.84 0.48,-1.65 0.55,-2.52 0.31,-0.79 0.68,-1.56 1.23,-2.23 0.49,-0.73 1.08,-1.40 1.56,-2.14 0.25,-0.48 0.46,-0.98 0.67,-1.48" id="p4177" style="fill:none;stroke:#a4bc57;stroke-width:0.2;stroke-linecap:butt;stroke-linejoin:miter;stroke-miterlimit:4;stroke-opacity:0.56;stroke-dasharray:none"/>
<path d="m 36.02,7.21 c -0.71,0.61 -1.15,1.47 -1.89,2.06 -0.36,0.47 -0.81,0.85 -1.21,1.31 -0.60,0.81 -0.98,1.76 -1.36,2.69 -0.12,0.69 -0.36,1.36 -0.47,2.05 -0.11,0.67 -0.17,1.35 -0.32,2.01 -0.03,0.72 -0.34,1.41 -0.41,2.14 -0.02,0.12 -0.05,0.27 -0.17,0.33" id="p4179" style="fill:none;stroke:#a4bc57;stroke-width:0.2;stroke-linecap:butt;stroke-linejoin:miter;stroke-miterlimit:4;stroke-opacity:0.56;stroke-dasharray:none"/>
<path d="m 32.68,17.55 c 0.00,-0.65 0.50,-1.16 0.64,-1.78 0.27,-0.73 0.61,-1.45 0.80,-2.22 0.28,-0.72 0.62,-1.41 0.92,-2.13 0.43,-0.82 1.05,-1.54 1.71,-2.19 0.54,-0.38 1.01,-0.85 1.51,-1.29 0.31,-0.37 0.58,-0.77 1.01,-1.03" id="p4181" style="fill:none;stroke:#a4bc57;stroke-width:0.2;stroke-linecap:butt;stroke-linejoin:miter;stroke-miterlimit:4;stroke-opacity:0.56;stroke-dasharray:none"/>
<path d="M 42.17,7.25 C 41.69,7.67 41.32,8.22 40.75,8.53 40.38,8.80 40.08,9.17 39.69,9.42 c -0.32,0.28 -0.64,0.59 -0.92,0.92 -0.38,0.49 -0.78,0.99 -1.07,1.55 -0.18,0.38 -0.51,0.66 -0.61,1.08 -0.22,0.46 -0.35,0.96 -0.56,1.43 -0.04,0.07 -0.05,0.15 -0.10,0.22" id="p4183" style="fill:none;stroke:#a4bc57;stroke-width:0.2;stroke-linecap:butt;stroke-linejoin:miter;stroke-miterlimit:4;stroke-opacity:0.56;stroke-dasharray:none"/>
<path d="m 39.74,12.45 c 0.02,-0.26 0.19,-0.45 0.33,-0.64 0.13,-0.38 0.31,-0.74 0.50,-1.10 0.06,-0.33 0.37,-0.55 0.43,-0.89 0.14,-0.27 0.16,-0.62 0.41,-0.83 0.20,-0.27 0.43,-0.53 0.73,-0.70 0.29,-0.16 0.44,-0.50 0.53,-0.81 l 0.00,0.01 -0.00,0.03" id="p4185" style="fill:none;stroke:#a4bc57;stroke-width:0.2;stroke-linecap:butt;stroke-linejoin:miter;stroke-miterlimit:4;stroke-opacity:0.56;stroke-dasharray:none"/>
<path d="m 21.34,28.41 c 0.73,-0.03 1.54,0.39 2.22,-0.05 0.67,-0.18 1.28,-0.56 1.99,-0.60 1.05,-0.20 2.12,-0.06 3.18,-0.10 0.81,0.03 1.65,-0.08 2.45,0.11 0.84,0.18 1.70,-0.01 2.53,-0.19 0.74,-0.06 1.49,-0.18 2.23,-0.10" id="p4187" style="fill:none;stroke:#a4bc57;stroke-width:0.2;stroke-linecap:butt;stroke-linejoin:miter;stroke-miterlimit:4;stroke-opacity:0.56;stroke-dasharray:none"/>
<path d="m 23.77,28.27 c 0.36,0.34 0.75,0.68 1.24,0.81 0.54,0.23 1.12,0.35 1.71,0.39 0.66,0.25 1.40,0.30 2.09,0.10 0.39,-0.09 0.77,-0.31 1.19,-0.24 0.40,0.05 0.82,0.05 1.21,-0.11 0.50,-0.17 0.98,-0.42 1.48,-0.60 0.30,-0.04 0.71,-0.09 0.96,0.11" id="p4189" style="fill:none;stroke:#a4bc57;stroke-width:0.2;stroke-linecap:butt;stroke-linejoin:miter;stroke-miterlimit:4;stroke-opacity:0.56;stroke-dasharray:none"/>
<path d="m 24.25,25.69 c 0.57,-0.54 1.43,-0.33 2.12,-0.57 0.91,-0.14 1.85,-0.09 2.77,-0.06 1.54,0.31 3.14,0.87 4.73,0.44 0.55,-0.20 1.13,-0.20 1.71,-0.17 0.75,-0.02 1.45,-0.33 2.15,-0.57 0.70,-0.15 1.44,0.05 2.13,-0.11 0.11,-0.07 0.18,-0.19 0.22,-0.32" id="p4191" style="fill:none;stroke:#a4bc57;stroke-width:0.2;stroke-linecap:butt;stroke-linejoin:miter;stroke-miterlimit:4;stroke-opacity:0.56;stroke-dasharray:none"/>
<path d="m 26.68,23.26 c 0.98,-0.17 1.97,-0.37 2.96,-0.46 0.59,0.01 1.17,-0.18 1.76,-0.01 1.48,-0.00 2.97,0.02 4.45,-0.01 0.70,-0.03 1.30,-0.46 1.98,-0.54 0.64,-0.02 1.30,-0.03 1.89,-0.33 0.52,-0.19 1.06,-0.37 1.53,-0.68 l 0.11,-0.03 0.11,-0.00" id="p4193" style="fill:none;stroke:#a4bc57;stroke-width:0.2;stroke-linecap:butt;stroke-linejoin:miter;stroke-miterlimit:4;stroke-opacity:0.56;stroke-dasharray:none"/>
<path d="m 37.78,22.31 c 0.15,0.14 0.37,0.19 0.52,0.34 0.14,0.12 0.30,0.21 0.48,0.27 0.16,0.10 0.38,-0.00 0.53,0.08 0.16,0.04 0.33,0.07 0.51,0.06 0.22,0.06 0.45,0.07 0.68,0.01 0.13,-0.09 0.27,-0.19 0.41,-0.28 0.03,-0.01 0.06,-0.03 0.08,-0.07" id="p4195" style="fill:none;stroke:#a4bc57;stroke-width:0.2;stroke-linecap:butt;stroke-linejoin:miter;stroke-miterlimit:4;stroke-opacity:0.56;stroke-dasharray:none"/>
<path d="m 29.01,21.12 c 0.73,-0.22 1.49,-0.37 2.21,-0.61 0.93,-0.28 1.91,-0.16 2.87,-0.24 0.57,-0.00 1.15,0.04 1.72,-0.07 0.69,0.02 1.39,-0.26 2.07,-0.06 0.65,0.12 1.30,-0.08 1.93,-0.19 0.82,-0.16 1.42,-0.80 2.20,-1.07 0.42,-0.40 1.06,-0.03 1.54,-0.30" id="p4197" style="fill:none;stroke:#a4bc57;stroke-width:0.2;stroke-linecap:butt;stroke-linejoin:miter;stroke-miterlimit:4;stroke-opacity:0.56;stroke-dasharray:none"/>
<path d="m 31.97,18.50 c 0.80,-0.06 1.58,-0.28 2.38,-0.33 0.66,0.01 1.35,0.05 1.98,-0.18 0.70,-0.14 1.38,-0.43 2.11,-0.37 0.57,-0.04 1.14,-0.03 1.71,-0.07 0.71,-0.31 1.44,-0.61 2.17,-0.90 0.53,-0.29 1.12,-0.42 1.72,-0.52 0.32,-0.03 0.51,-0.35 0.80,-0.40" id="p4199" style="fill:none;stroke:#a4bc57;stroke-width:0.2;stroke-linecap:butt;stroke-linejoin:miter;stroke-miterlimit:4;stroke-opacity:0.56;stroke-dasharray:none"/>
<path d="m 34.21,16.59 c 0.67,-0.10 1.35,-0.19 2.03,-0.20 0.76,-0.13 1.54,-0.15 2.28,-0.36 0.51,-0.02 0.95,-0.33 1.43,-0.47 0.52,-0.30 1.10,-0.47 1.66,-0.68 0.64,-0.14 1.25,-0.45 1.66,-0.98 0.21,-0.22 0.37,-0.51 0.61,-0.71" id="p4201" style="fill:none;stroke:#a4bc57;stroke-width:0.2;stroke-linecap:butt;stroke-linejoin:miter;stroke-miterlimit:4;stroke-opacity:0.56;stroke-dasharray:none"/>
<path d="m 38.31,13.45 c 0.61,-0.09 1.22,-0.21 1.84,-0.31 0.30,-0.09 0.61,-0.14 0.93,-0.19 0.41,-0.05 0.82,-0.16 1.19,-0.36 0.35,-0.17 0.70,-0.35 1.06,-0.49 0.33,-0.21 0.75,-0.27 1.05,-0.55 0.33,-0.18 0.73,-0.23 1.10,-0.26 0.07,-0.00 0.15,-0.05 0.22,-0.04" id="p4203" style="fill:none;stroke:#a4bc57;stroke-width:0.2;stroke-linecap:butt;stroke-linejoin:miter;stroke-miterlimit:4;stroke-opacity:0.56;stroke-dasharray:none"/>
<path d="m 42.64,10.73 c 0.19,-0.07 0.40,-0.02 0.60,-0.09 0.20,-0.04 0.41,-0.04 0.61,-0.08 0.20,-0.01 0.41,-0.05 0.60,-0.14 0.16,-0.03 0.32,0.00 0.48,-0.06 0.13,-0.07 0.32,-0.01 0.43,-0.13 0.14,-0.07 0.26,-0.17 0.37,-0.28 0.03,-0.02 0.07,-0.05 0.11,-0.06" id="p4205" style="fill:none;stroke:#a4bc57;stroke-width:0.2;stroke-linecap:butt;stroke-linejoin:miter;stroke-miterlimit:4;stroke-opacity:0.56;stroke-dasharray:none"/>
<path d="M 34.62,5.75 C 32.92,5.66 30.20,5.99 26.53,8.59 20.75,12.67 16.66,21.96 20.18,28.62 c -4.04,3.58 -6.78,5.96 -8.75,7.40 -2.09,1.53 -3.40,2.10 -5.03,2.40 -1.35,0.25 -2.24,0.36 -2.93,0.5 -0.69,0.13 -1.22,0.31 -1.65,0.75 l 0.62,0.62 c 0.27,-0.27 0.56,-0.37 1.18,-0.5 0.62,-0.12 1.55,-0.21 2.93,-0.46 1.75,-0.32 3.25,-1.01 5.40,-2.59 2.02,-1.48 4.78,-3.87 8.84,-7.46 4.19,2.70 13.32,-0.06 16.06,-1.62 2.83,-1.62 3.61,-3.86 5.84,-6.5 2.22,-2.63 2.96,-8.90 3.06,-9.71 0.10,-0.81 1.30,-2.54 0.59,-3.24 -0.70,-0.70 -9.10,-2.32 -9.81,-2.21 -0.26,0.03 -0.91,-0.16 -1.93,-0.21 z" id="stroke01" style="fill:none;stroke:#1b2d13;stroke-width:0.5;stroke-miterlimit:4;stroke-opacity:1;stroke-dasharray:none"/>
</g>
</svg>
