<?xml version="1.0" encoding="UTF-8" standalone="no"?>
<!DOCTYPE svg PUBLIC "-//W3C//DTD SVG 1.0//EN" "http://www.w3.org/TR/2001/REC-SVG-20010904/DTD/svg10.dtd">
<svg xmlns:svg="http://www.w3.org/2000/svg" xmlns="http://www.w3.org/2000/svg" version="1.0" width="100%" height="100%" viewBox="0 0 48 48" id="_leek01">
<defs/>
<g id="layer6" style="display:inline">
<path d="m 23.69,14.44 c 0.26,1.21 0.36,2.11 0.58,2.47 0.21,0.36 3.42,7.28 4.11,8.65 0.68,1.37 2.53,4.00 3.06,4.64 0.52,0.63 2.58,3.27 4.32,4.74 1.74,1.47 4.59,4.06 5.64,4.48 1.05,0.42 1.95,1.05 1.84,1.74 0.47,-0.52 0.68,-0.68 0.68,-0.68 l 0.10,0.52 0.26,-0.05 0.21,0.89 -0.31,0.15 0.52,0.36 -1.05,0.63 0.21,0.79 -0.42,-0.10 -0.10,0.52 -0.31,-0.52 -0.26,0.47 -0.47,0.31 -1.16,-0.36 0.26,-0.26 c 0,0 -0.15,-0.00 -0.42,-0.05 -0.84,-0.15 -0.94,-1.21 -1.37,-1.42 -1.03,-0.51 -5.11,-3.58 -6.85,-5.17 -1.74,-1.58 -3.11,-3.37 -4.53,-4.16 -1.42,-0.79 -7.65,-4.43 -8.23,-4.64 -0.58,-0.21 -3.21,-1.21 -4.59,-1.58 -1.37,-0.36 -4.69,-1.37 -4.69,-1.37 l 0.42,-2.21 c 0,0 4.37,0.89 5.11,1.10 0.73,0.21 3.21,1.10 3.95,1.31 -2.00,-1.53 -9.86,-7.80 -18.09,-11.08 -0.10,-0.36 0.05,-0.68 0.05,-0.68 l 0.31,0.15 c 0,0 0.79,-1.47 0.73,-2.32 0.26,0.05 0.73,0.42 0.73,0.42 L 4.27,11.85 c 0,0 8.07,3.64 11.08,5.54 C 12.08,13.75 9.44,11.11 7.17,9.58 7.54,9.37 8.75,9.37 9.23,8.26 9.70,8.69 10.92,9.85 10.92,9.85 L 9.70,7.84 11.55,6.68 12.97,8.48 11.34,4.84 c 0,0 1.26,-1.10 1.58,-1.58 1.16,2.32 5.54,10.28 8.33,13.77 0.31,-0.15 1.74,-0.47 1.74,-0.47 0,0 0,-1.79 -0.10,-2.21 0.15,-0.05 0.79,0.10 0.79,0.10 z" id="path5819-9" style="fill:#e4daa9;fill-opacity:1;stroke:none" />
<path d="m 12.93,3.25 c -0.31,0.47 -1.59,1.59 -1.59,1.59 l 1.62,3.62 -1.40,-1.78 -1.84,1.15 1.18,2 c 0,0 -1.21,-1.14 -1.68,-1.56 -0.47,1.10 -1.66,1.10 -2.03,1.31 2.26,1.53 4.88,4.17 8.15,7.81 -3.00,-1.89 -11.06,-5.56 -11.06,-5.56 l -0.31,0.34 c 0,0 -0.48,-0.38 -0.75,-0.43 0.05,0.84 -0.75,2.31 -0.75,2.31 l -0.31,-0.15 c 0,0 -0.13,0.31 -0.03,0.68 8.23,3.27 16.08,9.56 18.09,11.09 C 19.48,25.47 16.98,24.58 16.25,24.37 15.51,24.16 11.12,23.25 11.12,23.25 l -0.40,2.21 c 0,0 3.31,1.00 4.68,1.37 1.37,0.36 4.01,1.38 4.59,1.59 0.58,0.21 6.79,3.83 8.21,4.62 0.80,0.44 1.59,1.22 2.43,2.09 1.37,-0.02 2.70,-0.29 4.15,-1.06 -1.47,-1.47 -2.94,-3.35 -3.37,-3.87 -0.52,-0.63 -2.37,-3.28 -3.06,-4.65 -0.68,-1.37 -3.88,-8.25 -4.09,-8.62 -0.21,-0.36 -0.32,-1.28 -0.59,-2.5 0,0 -0.62,-0.14 -0.78,-0.09 C 23.01,14.76 23,16.56 23,16.56 c 0,0 -1.43,0.31 -1.75,0.46 C 18.45,13.54 14.09,5.57 12.93,3.25 z" id="path6354" style="fill:#76a111;fill-opacity:0.31;stroke:none" />
<path d="m 24.93,18.31 -4.87,7.25 c 0.03,0.02 0.12,0.10 0.15,0.12 -0.03,-0.00 -0.14,-0.04 -0.18,-0.06 l -1.5,2.25 c 0.60,0.22 1.25,0.48 1.46,0.56 0.58,0.21 6.79,3.83 8.21,4.62 0.48,0.27 0.97,0.69 1.46,1.15 1.69,-0.03 2.46,-0.57 2.75,-0.71 -0.76,-0.25 -1.41,-0.59 -2.34,-1.18 0.15,-0.70 0.77,-1.40 1.59,-1.81 -0.05,-0.06 -0.21,-0.23 -0.25,-0.28 -0.52,-0.63 -2.37,-3.28 -3.06,-4.65 -0.57,-1.15 -2.57,-5.44 -3.43,-7.25 z" id="path6358" style="fill:#798d25;fill-opacity:1;stroke:none" />
<path d="m 12.93,3.25 c -0.31,0.47 -1.59,1.59 -1.59,1.59 l 1.62,3.62 -1.40,-1.78 -1.84,1.15 1.18,2 c 0,0 -1.21,-1.14 -1.68,-1.56 -0.47,1.10 -1.66,1.10 -2.03,1.31 2.26,1.53 4.88,4.17 8.15,7.81 -3.00,-1.89 -11.06,-5.56 -11.06,-5.56 l -0.31,0.34 c 0,0 -0.48,-0.38 -0.75,-0.43 0.05,0.84 -0.75,2.31 -0.75,2.31 l -0.31,-0.15 c 0,0 -0.13,0.31 -0.03,0.68 8.23,3.27 16.08,9.56 18.09,11.09 C 19.48,25.47 16.98,24.58 16.25,24.37 15.51,24.16 11.12,23.25 11.12,23.25 l -0.40,2.21 c 0,0 3.31,1.00 4.68,1.37 1.37,0.36 4.01,1.38 4.59,1.59 0.53,0.19 5.48,3.06 7.46,4.18 L 26.25,29.87 24.87,25.75 26.40,28.5 c 0,0 0.91,-0.13 1.37,-0.90 -0.61,-1.07 -2.13,-4.01 -2.59,-4.78 -0.21,-0.36 0.44,-0.90 1.21,-1.40 -0.95,-2.02 -2.01,-4.27 -2.12,-4.46 -0.21,-0.36 -0.32,-1.28 -0.59,-2.5 0,0 -0.62,-0.14 -0.78,-0.09 C 23.01,14.76 23,16.56 23,16.56 c 0,0 -1.43,0.31 -1.75,0.46 C 18.45,13.54 14.09,5.57 12.93,3.25 z" id="path6356" style="fill:#7e9080;fill-opacity:1;stroke:none" />
<path d="m 30.87,29.46 c -0.97,1.14 -1.96,2.59 -2.62,3.62 0.80,0.45 1.61,1.22 2.46,2.09 2.54,-0.04 5.12,1.28 5.62,2.25 0.49,0.94 0.56,1.99 -0.21,2.53 1.30,0.99 2.48,1.81 3.15,2.21 0.09,-0.55 0.31,-1.12 0.75,-1.56 0.62,-0.62 1.31,-0.87 1.90,-0.90 -0.17,-0.08 -0.34,-0.20 -0.53,-0.28 -1.05,-0.42 -3.88,-2.99 -5.62,-4.46 -1.74,-1.47 -3.81,-4.11 -4.34,-4.75 -0.12,-0.14 -0.32,-0.42 -0.56,-0.75 z" id="path6393" style="fill:#8d5a25;fill-opacity:0.06;stroke:none" />
<path d="m 41.15,40.15 c -0.60,0 -1.09,0.43 -1.09,1 0,0.56 0.49,1.03 1.09,1.03 0.60,0 1.09,-0.46 1.09,-1.03 0,-0.56 -0.49,-1 -1.09,-1 z" id="path6395" style="color:#000000;fill:#f0f6df;fill-opacity:0.57;fill-rule:nonzero;stroke:none;stroke-width:0.5;marker:none;visibility:visible;display:inline;overflow:visible;enable-background:accumulate" />
<path d="m 42.90,40.34 c -0.07,1.31 -1.05,2.79 -1.81,3.5 0.16,0.02 0.31,0.03 0.31,0.03 l -0.25,0.28 1.15,0.37 0.46,-0.34 0.28,-0.46 0.31,0.53 0.09,-0.53 0.43,0.12 -0.21,-0.81 1.06,-0.62 -0.53,-0.37 0.31,-0.15 -0.21,-0.90 -0.25,0.06 L 43.93,40.5 c 0,0 -0.21,0.15 -0.68,0.68 0.04,-0.29 -0.08,-0.58 -0.34,-0.84 z" id="path6397" style="fill:#735c20;fill-opacity:0.18;stroke:none" />
<path d="m 43.93,40.5 c 0,0 -0.10,0.11 -0.28,0.28 -0.01,0.03 -0.04,0.06 -0.06,0.09 -0.06,0.11 -0.15,0.22 -0.25,0.31 -0.03,0.15 -0.36,-0.07 -0.18,0.15 0.09,0.19 -0.21,0.25 -0.25,0.34 0.00,0.17 -0.06,0.34 0.12,0.46 -0.03,0.31 -0.34,0.05 -0.53,0.03 -0.21,-0.04 -0.46,-0.00 -0.56,0.21 C 41.82,42.51 41.87,42.51 42,42.5 c 0.22,-0.05 -0.01,0.33 0.25,0.28 -0.03,0.11 -0.26,-0.01 -0.37,0 -0.17,-0.05 -0.02,0.06 0.03,0.12 0.12,0.08 -0.13,0.22 0,0.37 0.01,0.26 -0.06,0.06 -0.12,-0.03 -0.16,0.03 -0.33,0.09 -0.18,0.28 0.11,0.25 0.24,0.51 0.43,0.71 0.40,0.13 0.15,-0.41 0.21,-0.62 0.04,-0.06 -0.12,-0.40 0.03,-0.25 0.17,0.17 0.20,0.55 0.5,0.53 0.03,0.04 0.08,0.04 0.12,0.06 l 0.15,-0.25 0.06,0.12 c 0.02,-0.06 0.03,-0.14 -0.03,-0.21 -0.20,0.01 -0.16,-0.46 -0.25,-0.53 0.14,0.23 0.30,-0.00 0.5,0.18 0.30,0.08 0.31,-0.36 0.31,-0.56 -0.01,-0.11 0.05,-0.28 -0.06,-0.34 0.22,0.23 0.49,-0.17 0.25,-0.28 -0.23,0.02 -0.50,-0.06 -0.62,-0.28 0.21,-0.19 0.44,-0.36 0.5,-0.62 C 43.80,41.06 43.90,40.93 44,40.81 L 43.93,40.5 z m -0.78,1.43 c 0.16,-0.04 -0.00,0.31 -0.03,0.09 0.05,-0.00 0.02,-0.06 0.03,-0.09 z m -0.71,0.53 c 0.27,0.01 0.35,0.34 0.34,0.56 C 42.60,42.89 42.51,42.61 42.40,42.5 L 42.43,42.46 z M 43.21,42.5 c 0.14,0.02 0.26,0.30 0.12,0.34 C 43.15,42.80 43.25,42.61 43.21,42.5 z m -0.53,1.21 c 0.08,-0.00 0.13,0.28 0,0 z" id="path6399" style="font-size:medium;font-style:normal;font-variant:normal;font-weight:normal;font-stretch:normal;text-indent:0;text-align:start;text-decoration:none;line-height:normal;letter-spacing:normal;word-spacing:normal;text-transform:none;direction:ltr;block-progression:tb;writing-mode:lr-tb;text-anchor:start;baseline-shift:baseline;color:#000000;fill:#997c46;fill-opacity:0.58;stroke:none;stroke-width:0.30;marker:none;visibility:visible;display:inline;overflow:visible;enable-background:accumulate;font-family:Sans;-inkscape-font-specification:Sans" />
<path d="m 8.42,9.26 c 0,0 3.99,3.19 5.74,5.30" id="path6465" style="fill:none;stroke:#48644c;stroke-width:1;stroke-linecap:butt;stroke-linejoin:miter;stroke-miterlimit:4;stroke-opacity:0.59;stroke-dasharray:none;display:inline" />
<path d="M 11.19,8.39 10.60,7.37 c 0,0 5.45,8.50 7.41,11.62" id="path6467" style="fill:none;stroke:#7b9988;stroke-width:2.29;stroke-linecap:butt;stroke-linejoin:miter;stroke-miterlimit:4;stroke-opacity:1;stroke-dasharray:none;display:inline" />
<path d="m 8.57,9.09 c 0.89,0.71 5.30,4.82 5.89,5.60 0.59,0.77 4.58,6.07 5.66,7.74" id="path6538" style="fill:none;stroke:#4b9b38;stroke-width:2;stroke-linecap:butt;stroke-linejoin:miter;stroke-miterlimit:4;stroke-opacity:0.26;stroke-dasharray:none" />
<path d="m 2.76,13.91 7.84,4.06" id="path6490" style="fill:none;stroke:#0b1712;stroke-width:1px;stroke-linecap:butt;stroke-linejoin:miter;stroke-opacity:0.81;display:inline" />
<path d="m 10.17,16.97 c 2.83,1.09 5.37,2.32 5.95,2.68 0.58,0.36 4.28,3.56 6.68,5.66" id="path6492" style="fill:none;stroke:#32463b;stroke-width:1px;stroke-linecap:butt;stroke-linejoin:miter;stroke-opacity:0.68;display:inline" />
<path d="m 2.09,14.21 c -0.01,0.11 -0.01,0.22 0.03,0.37 8.23,3.27 16.08,9.56 18.09,11.09 -0.05,-0.01 -0.23,-0.06 -0.31,-0.09 0.93,0.66 1.65,1.18 1.65,1.18 L 23.93,25.75 c 0,0 -6.62,-5.05 -7.21,-5.71 -0.58,-0.66 -4.5,-2.06 -4.5,-2.06 l -10.12,-3.75 z" id="path6515" style="fill:#8f9e90;fill-opacity:1;stroke:none;display:inline" />
<path d="M 10.50,7.55 17.03,16.73" id="path6540" style="fill:none;stroke:#2f4a42;stroke-width:1px;stroke-linecap:butt;stroke-linejoin:miter;stroke-opacity:0.27;display:inline" />
<path d="m 12.24,3.91 c 0,0 4.87,9.01 6.12,11.08 1.24,2.06 4.38,6.94 5.45,8.43" id="path6542" style="fill:none;stroke:#2f4a42;stroke-width:1px;stroke-linecap:butt;stroke-linejoin:miter;stroke-opacity:0.27;display:inline" />
<path d="m 10.75,11.69 3.96,4.23 -2.73,-4.31 z" id="path6565" style="fill:#394733;fill-opacity:0.72;stroke:none" />
<path d="M 15.31,24.15 10.75,25.25 l 0,0.09 1.59,-0.15 c 0,0 0.97,-0.00 4.03,0.84 C 19.43,26.87 26.34,30 26.34,30 l -6.12,-4.31 C 20.20,25.68 20.16,25.66 20.15,25.65 19.37,25.42 16.97,24.58 16.25,24.37 16.12,24.34 15.59,24.22 15.31,24.15 z" id="path6567" style="fill:#43573e;fill-opacity:0.46;stroke:none;display:inline" />
<path d="m 19.27,27.50 4.24,1.54 3.08,1.86" id="path6590" style="fill:none;stroke:#98b7a0;stroke-width:1.10;stroke-linecap:butt;stroke-linejoin:miter;stroke-miterlimit:4;stroke-opacity:0.45;stroke-dasharray:none;display:inline" />
<path d="m 21.91,16.83 c 1.54,4.43 2.69,8.54 3.91,10.85" id="path6592" style="color:#000000;fill:none;stroke:#799890;stroke-width:1px;stroke-linecap:butt;stroke-linejoin:miter;stroke-miterlimit:4;stroke-opacity:0.61;stroke-dasharray:none;stroke-dashoffset:0;marker:none;visibility:visible;display:inline;overflow:visible;enable-background:accumulate" />
<path d="m 24.80,19.79 c 0,0 2.18,5.65 2.89,6.74" id="path6596" style="fill:none;stroke:#67924a;stroke-width:1.70;stroke-linecap:butt;stroke-linejoin:miter;stroke-miterlimit:4;stroke-opacity:0.78;stroke-dasharray:none;display:inline" />
<path d="m 27.88,27.88 1.60,2.63" id="path6598" style="fill:none;stroke:#84a53e;stroke-width:1px;stroke-linecap:butt;stroke-linejoin:miter;stroke-opacity:0.69;display:inline" />
<path d="m 28.91,27.95 1.28,2.18" id="path6600" style="color:#000000;fill:none;stroke:#84a53e;stroke-width:1px;stroke-linecap:butt;stroke-linejoin:miter;stroke-miterlimit:4;stroke-opacity:0.69;stroke-dasharray:none;stroke-dashoffset:0;marker:none;visibility:visible;display:inline;overflow:visible;enable-background:accumulate" />
<path d="m 24.60,29.05 c 0.39,0.27 2.29,1.29 2.62,1.57" id="path6723" style="color:#000000;fill:none;stroke:#bed1a3;stroke-width:0.30;stroke-linecap:round;stroke-linejoin:miter;stroke-miterlimit:4;stroke-opacity:1;stroke-dasharray:none;stroke-dashoffset:0;marker:none;visibility:visible;display:inline;overflow:visible;enable-background:accumulate" />
<path d="m 27.18,30.58 c 1.02,0.83 2.57,1.79 3.14,2.12 0.57,0.32 1.92,1.02 2.82,1.02" id="path6602" style="fill:none;stroke:#c9cc93;stroke-width:0.40;stroke-linecap:round;stroke-linejoin:miter;stroke-miterlimit:4;stroke-opacity:1;stroke-dasharray:none;display:inline" />
<path d="m 30.00,32.32 c 0.19,-0.38 0.83,-1.86 1.60,-1.60" id="path6604" style="color:#000000;fill:none;stroke:#c9cc93;stroke-width:0.40;stroke-linecap:round;stroke-linejoin:miter;stroke-miterlimit:4;stroke-opacity:1;stroke-dasharray:none;stroke-dashoffset:0;marker:none;visibility:visible;display:inline;overflow:visible;enable-background:accumulate" />
<path d="m 25.58,26.36 0.97,2.54" id="path6670" style="color:#000000;fill:none;stroke:#67924a;stroke-width:1.20;stroke-linecap:butt;stroke-linejoin:miter;stroke-miterlimit:4;stroke-opacity:0.78;stroke-dasharray:none;stroke-dashoffset:0;marker:none;visibility:visible;display:inline;overflow:visible;enable-background:accumulate" />
<path d="m 22.48,16.70 c 1.41,3.98 2.95,8.67 4.36,11.43" id="path6594" style="color:#000000;fill:none;stroke:#2f4a42;stroke-width:1px;stroke-linecap:butt;stroke-linejoin:miter;stroke-miterlimit:4;stroke-opacity:0.27;stroke-dasharray:none;stroke-dashoffset:0;marker:none;visibility:visible;display:inline;overflow:visible;enable-background:accumulate" />
<path d="m 23.69,14.44 c 0.26,1.21 0.36,2.11 0.58,2.47 0.21,0.36 3.42,7.28 4.11,8.65 0.68,1.37 2.53,4.00 3.06,4.64 0.52,0.63 2.58,3.27 4.32,4.74 1.74,1.47 4.59,4.06 5.64,4.48 1.05,0.42 1.95,1.05 1.84,1.74 0.47,-0.52 0.68,-0.68 0.68,-0.68 l 0.10,0.52 0.26,-0.05 0.21,0.89 -0.31,0.15 0.52,0.36 -1.05,0.63 0.21,0.79 -0.42,-0.10 -0.10,0.52 -0.31,-0.52 -0.26,0.47 -0.47,0.31 -1.16,-0.36 0.26,-0.26 c 0,0 -0.15,-0.00 -0.42,-0.05 -0.84,-0.15 -0.94,-1.21 -1.37,-1.42 -1.03,-0.51 -5.11,-3.58 -6.85,-5.17 -1.74,-1.58 -3.11,-3.37 -4.53,-4.16 -1.42,-0.79 -7.65,-4.43 -8.23,-4.64 -0.58,-0.21 -3.21,-1.21 -4.59,-1.58 -1.37,-0.36 -4.69,-1.37 -4.69,-1.37 l 0.42,-2.21 c 0,0 4.37,0.89 5.11,1.10 0.73,0.21 3.21,1.10 3.95,1.31 -2.00,-1.53 -9.86,-7.80 -18.09,-11.08 -0.10,-0.36 0.05,-0.68 0.05,-0.68 l 0.31,0.15 c 0,0 0.79,-1.47 0.73,-2.32 0.26,0.05 0.73,0.42 0.73,0.42 L 4.27,11.85 c 0,0 8.07,3.64 11.08,5.54 C 12.08,13.75 9.44,11.11 7.17,9.58 7.54,9.37 8.75,9.37 9.23,8.26 9.70,8.69 10.92,9.85 10.92,9.85 L 9.70,7.84 11.55,6.68 12.97,8.48 11.34,4.84 c 0,0 1.26,-1.10 1.58,-1.58 1.16,2.32 5.54,10.28 8.33,13.77 0.31,-0.15 1.74,-0.47 1.74,-0.47 0,0 0,-1.79 -0.10,-2.21 0.15,-0.05 0.79,0.10 0.79,0.10 z" id="stroke01" style="fill:none;stroke:#283d29;stroke-width:0.5;stroke-linecap:butt;stroke-linejoin:round;stroke-miterlimit:4;stroke-opacity:1;stroke-dasharray:none;display:inline" />
</g>
</svg>
