<?xml version="1.0" encoding="UTF-8" standalone="no"?>
<!DOCTYPE svg PUBLIC "-//W3C//DTD SVG 1.0//EN" "http://www.w3.org/TR/2001/REC-SVG-20010904/DTD/svg10.dtd">
<svg xmlns:svg="http://www.w3.org/2000/svg" xmlns="http://www.w3.org/2000/svg" version="1.0" width="100%" height="100%" viewBox="0 0 48 48" id="_mushroom01">
<defs/>
<g id="layer2">
<path d="M 18.54,33.34 C 14.02,31.71 10.85,31.35 8.32,29.90 5.78,28.45 2.89,24.38 3.70,18.77 4.52,13.17 11.57,6.29 15.28,5.29 18.99,4.30 24.33,2.94 28.40,5.20 c 4.07,2.26 6.96,3.70 9.22,7.59 2.26,3.89 2.80,6.69 0.36,9.49 -2.44,2.80 -4.07,4.97 -6.51,6.96 0.03,2.41 -1.62,3.43 -1.44,4.88 -0.21,0.04 -0.63,0.09 -0.63,0.09 0,0 0.36,5.69 -0.36,9.95 -0.90,1.35 -11.39,-1.35 -11.30,-2.53 0.09,-1.17 0.90,-0.90 1.35,-3.70 0.45,-2.80 0.09,-3.98 -0.54,-4.61 z" id="path3079" style="fill:#e7e0cf" />
<path d="m 16.15,26.03 c -0.29,0.04 -0.38,0.47 0.25,1.87 0.83,1.84 3.12,1.97 4.84,1.62 l 0.15,-1.59 1,0.09 -0.12,1.25 c 0.69,-0.25 1.14,-0.58 1,-0.78 -0.48,-0.67 0.66,-1.44 -0.5,-1.15 -1.16,0.29 -4.53,0.38 -5.5,-0.78 0,0 -0.73,-0.59 -1.12,-0.53 z" id="path4328" style="fill:#80634a;fill-opacity:0.39" />
<path d="M 23.43,3.96 C 20.55,3.90 17.59,4.69 15.28,5.31 11.57,6.30 4.53,13.17 3.71,18.78 2.98,23.86 5.29,27.65 7.62,29.40 5.44,25.47 10.03,20.57 14.5,18.34 19.48,15.85 36.82,12.69 39.59,18.18 39.53,16.58 38.81,14.85 37.62,12.81 35.36,8.92 32.47,7.48 28.40,5.21 26.87,4.37 25.16,4.00 23.43,3.96 z" id="path3867" style="fill:#ac935f;fill-opacity:0.50" />
<path d="M 23.43,3.96 C 20.55,3.90 17.59,4.69 15.28,5.31 11.57,6.30 4.53,13.17 3.71,18.78 c -0.81,5.60 2.06,9.67 4.59,11.12 0.40,0.23 0.84,0.43 1.28,0.62 0.03,-2.23 0.61,-4.24 1.62,-5.59 -1.75,-1.53 -3.96,-6.17 1.96,-9.68 5.70,-3.38 13.03,-7.35 22.96,-4.53 -2.02,-2.40 -4.51,-3.70 -7.75,-5.5 -1.52,-0.84 -3.23,-1.20 -4.96,-1.25 z" id="path3869" style="fill:#8d8167;fill-opacity:0.23" />
<path d="M 20.31,4.21 C 18.50,4.47 16.75,4.91 15.28,5.31 11.57,6.30 4.53,13.17 3.71,18.78 2.90,24.39 5.77,28.45 8.31,29.90 9.05,30.33 9.87,30.63 10.75,30.93 7.40,27.97 6.24,24.18 8.56,20.96 11.41,17.01 15.81,17.22 14.71,16.12 11.69,11.75 13.16,5.87 20.31,4.21 z" id="path3871" style="fill:#8d8167;fill-opacity:0.23" />
<path d="M 22.34,5.56 C 14.21,5.84 8.10,11.92 6.37,16.34 4.85,20.23 4.78,25.68 9.53,30.5 c 0.77,0.32 1.59,0.60 2.5,0.87 -1.60,-1.66 -2.23,-2.83 -1.93,-6.65 0.43,-5.71 11.22,-6.62 16.93,-7.5 5.71,-0.87 9.65,2.88 10.31,0.90 C 38.00,16.14 35.82,7.57 25.93,5.81 24.70,5.59 23.50,5.52 22.34,5.56 z" id="path3873" style="fill:#b89449;fill-opacity:0.30" />
<path d="m 24.37,5.75 c -3.92,0.13 -6.75,2.71 -6.75,6.59 0,4.77 4.29,9.70 9.62,11 5.32,1.29 9.65,-1.51 9.65,-6.28 0,-4.77 -4.32,-9.70 -9.65,-11 C 26.25,5.81 25.28,5.71 24.37,5.75 z" id="path3924" style="color:#000000;fill:#efede8;fill-opacity:0.30;stroke-width:0.5" />
<path d="M 16.84,4.87 C 16.30,5.01 15.77,5.18 15.28,5.31 15.26,5.31 15.24,5.33 15.21,5.34 15.03,5.71 14.86,6.05 14.40,6 c -0.89,-0.11 -1.19,1.06 -2.12,1.03 -0.15,0.02 -0.31,0.09 -0.46,0.18 -0.07,0.04 -0.15,0.09 -0.21,0.15 -0.33,0.30 -0.52,0.75 -0.25,1.15 0.27,0.29 0.82,0.32 0.21,0.59 -0.21,0.53 -0.35,1.28 -0.15,1.81 0.45,0.26 0.49,0.64 0,0.87 -0.37,0.54 0.62,1.35 -0.40,1.31 -0.90,-0.04 -1.48,1.04 -0.84,1.71 0.35,0.53 1.73,1.06 0.90,1.71 -0.17,0.68 -0.43,1.81 0.53,2.03 1.13,0.35 1.48,-0.97 0.96,-1.75 C 12.26,16.42 12.30,16.32 12.65,16 c 0.25,-0.52 -0.33,-1.21 0.15,-1.65 0.26,0.66 0.96,0.92 1.46,1.34 -0.45,0.87 0.11,2.16 1.03,2.43 0.80,0.16 1.22,-0.81 1.31,-1.21 0.92,-0.10 1.01,-1.60 0.12,-1.84 -0.58,-0.42 -1.17,0.46 -1.56,0.21 0.64,-0.43 0.55,-1.31 -0.06,-1.75 -0.33,-0.53 -0.75,-0.87 -1.34,-1.06 0.58,-0.50 0.66,-1.38 0.71,-2.12 C 15.14,9.75 14.86,8.78 14.46,8.18 14.87,7.26 16.03,8.23 16.62,7.62 17.31,6.96 17.19,5.89 16.93,5.06 16.91,4.99 16.88,4.93 16.84,4.87 z m 12.62,2.03 C 28.90,6.98 28.76,7.92 29.31,8.12 c 0.37,0.16 0.90,0.12 1.15,0.5 0.20,0.30 0.45,0.68 0.87,0.62 0.59,-0.08 0.80,-1.03 0.25,-1.31 C 31.24,7.67 31.01,7.23 30.56,7.12 30.24,7.02 29.93,6.92 29.59,6.90 c -0.03,2.09e-4 -0.08,-0.00 -0.12,0 z M 12.93,8.62 C 13.39,9.32 11.68,8.86 12.62,8.71 L 12.78,8.68 12.93,8.62 z M 30.37,9.40 c -0.20,-0.00 -0.39,0.03 -0.56,0.18 -0.35,0.33 -0.16,1.07 0.34,1.12 0.30,0.04 0.80,-0.09 0.90,0.31 0.28,0.33 0.88,0.20 1.03,-0.21 C 32.30,10.33 31.96,9.79 31.53,9.59 31.36,9.50 31.18,9.45 31,9.40 c -0.19,0.04 -0.41,0.00 -0.62,0 z m 2.96,1.53 c -0.36,0.05 -0.81,0.14 -0.96,0.53 0.12,0.39 -0.06,0.79 -0.37,1 -0.16,0.34 0.05,0.73 0.37,0.90 0.35,0.23 0.78,0.15 1.18,0.18 0.34,-0.03 0.63,-0.27 0.93,-0.43 0.27,-0.28 0.17,-0.70 0.18,-1.06 -0.07,-0.38 -0.43,-0.62 -0.75,-0.81 -0.16,-0.15 -0.33,-0.38 -0.59,-0.31 z m -22.43,7.68 c -0.56,0.27 -1.25,0.53 -1.62,1.03 -0.43,0.55 -0.95,1.47 -0.28,2.06 0.54,0.52 1.21,0.13 1.59,-0.28 0.96,0.20 1.16,-0.73 0.93,-1.43 0.45,-0.52 0.09,-1.42 -0.62,-1.37 z M 4.56,20.06 c -0.58,0.10 -1.04,0.79 -0.65,1.34 0.52,0.35 1.14,0.36 1.62,0.81 C 6.16,22.47 6.84,21.71 6.5,21.12 6.15,20.57 5.53,19.94 4.81,20.06 c -0.08,-0.01 -0.16,-0.01 -0.25,0 z" id="path3927" style="font-size:medium;font-style:normal;font-variant:normal;font-weight:normal;font-stretch:normal;text-indent:0;text-align:start;text-decoration:none;line-height:normal;letter-spacing:normal;word-spacing:normal;text-transform:none;direction:ltr;block-progression:tb;writing-mode:lr-tb;text-anchor:start;baseline-shift:baseline;color:#000000;fill:#704128;fill-opacity:0.20;stroke-width:1.60;font-family:Sans;-inkscape-font-specification:Sans" />
<path d="m 26.87,21.81 -4.65,0.37 -4.65,1.84 -2.34,2.90 0.06,5.34 c 0.99,0.29 2.07,0.63 3.25,1.06 0.63,0.63 1.01,1.82 0.56,4.62 -0.45,2.80 -1.28,2.51 -1.37,3.68 -0.02,0.29 0.63,0.69 1.62,1.09 1.67,-2.38 1.99,-6.53 2.37,-7.75 0.48,-1.55 -0.86,-3.89 -1.25,-5.25 -0.38,-1.35 0.78,-2.20 -0.37,-2.5 -1.16,-0.29 -1.47,-1.45 -0.40,-2.71 1.06,-1.26 6.41,-1.95 10.78,1.25 L 30.68,24.5 29.5,22.68 26.87,21.81 z" id="path4366" style="fill:#80634a;fill-opacity:0.39" />
<path d="m 20.65,31.79 c 1.48,0.44 4.07,0.29 5.25,0.07" id="path4455" style="fill:none;stroke:#efefd7;stroke-width:4;stroke-linecap:round;stroke-opacity:0.42" />
<path d="m 27.18,21.37 c -0.39,0.26 -1.30,0.36 -2.25,0.40 0.84,0.70 3.51,-0.28 3.65,0.84 0.14,1.12 1.00,2.26 0.71,4.09 0.72,0.18 1.37,0.84 1.87,1.59 1.69,-1.37 3.18,-3.11 3.18,-4.56 -0.84,-0.14 -2.95,-0.96 -3.65,-1.81 -0.84,0.42 -2.12,0.00 -3.53,-0.56 z m -2.25,0.40 c -1.05,0.04 -2.16,0 -2.68,0 -1.69,1.12 -4.78,1.68 -5.34,1.68 -0.42,1.40 -3.53,3.12 -3.53,3.12 0,0 0.98,1.24 0.84,1.81 -0.14,0.56 -1.38,1.26 -2.09,1.40 -0.53,0.10 0.87,0.96 3.37,2.53 0.89,0.26 1.84,0.57 2.87,0.93 -0.58,-1.18 -2.12,-2.26 -2.31,-3.03 -0.28,-1.12 0.84,-2.54 1.96,-2.96 0,0 -0.28,-0.70 -0.84,-2.25 0.84,0.28 1.26,-1.40 2.53,-1.68 0.70,0.70 4.37,-0.85 5.21,-1.56 z" id="path4208" style="fill:#251507" />
<path d="m 33.75,23.59 c -0.98,0.87 -2.58,1.99 -4.40,3.12 0.71,0.19 1.34,0.85 1.84,1.59 1.69,-1.37 3.18,-3.11 3.18,-4.56 -0.15,-0.02 -0.39,-0.08 -0.62,-0.15 z m -20.37,5.68 c -0.41,0.26 -0.89,0.46 -1.25,0.53 -0.53,0.10 0.87,0.96 3.37,2.53 0.89,0.26 1.84,0.57 2.87,0.93 C 17.94,32.41 17.01,31.60 16.46,30.93 14.83,30.49 14.12,30.05 13.37,29.28 z" id="path4252" style="fill:#e09a5d;fill-opacity:0.29" />
<path d="m 30.99,17.00 c 1.69,0 2.67,0.56 3.52,0.84" id="path4275" style="fill:none;stroke:#bb8732;stroke-width:2.09;stroke-opacity:0.20" />
<path d="m 19.06,34.18 c 0.26,0.74 0.33,1.89 0.03,3.78 -0.45,2.80 -1.28,2.51 -1.37,3.68 -0.03,0.42 1.34,1.06 3.12,1.62 1.47,-1.71 1.79,-4.40 1.93,-5.65 -0.67,-0.38 -1.05,-1.45 -0.46,-2.71 -1.60,0.06 -2.43,-0.29 -3.25,-0.71 z" id="path4332" style="fill:#80634a;fill-opacity:0.25" />
<path d="M 18.03,41.96 C 17.99,41.97 17.97,41.99 17.93,42 c 1.19,1.09 7.81,2.81 10.25,2.53 -0.74,-0.83 -4.89,-1.80 -6.65,-2.15 -1.21,-0.24 -2.62,-0.49 -3.5,-0.40 z" id="path4334" style="fill:#ae8c4d;fill-opacity:0.79" />
<path d="m 24.93,21.78 c -0.84,0.70 -4.51,2.26 -5.21,1.56 -1.26,0.28 -1.68,1.96 -2.53,1.68 0.28,0.77 0.26,0.75 0.40,1.12 2.69,-2.02 4.78,-1.93 5.53,-1.28 0.83,0.72 4.08,-1.63 6.06,-0.18 -0.20,-0.77 -0.51,-1.42 -0.59,-2.06 -0.14,-1.12 -2.81,-0.13 -3.65,-0.84 z" id="path4392" style="fill:#9b8660;fill-opacity:0.28" />
<path d="m 23.58,30.22 c 0,1.00 0.33,3.01 0.33,3.01" id="path4394" style="fill:none;stroke:#fefefe;stroke-width:2.59;stroke-opacity:0.52" />
<path d="m 26.60,35.25 c -0.11,1.00 -0.44,3.35 -0.55,4.35" id="path4396" style="fill:none;stroke:#ffffff;stroke-width:3.79;stroke-opacity:0.51" />
<path d="m 26.49,27.76 c 0.67,0 2.01,-0.11 2.57,-0.11" id="path4398" style="fill:none;stroke:#ffffff;stroke-width:1.20;stroke-opacity:0.42" />
<path d="m 24.59,28.55 1.45,-0.22" id="path4400" style="fill:none;stroke:#946f5b;stroke-width:1px;stroke-opacity:0.56" />
<path d="M 29.03,7.09 C 27.59,7.35 30.21,8.97 30.21,7.53 29.56,7.52 29.54,6.99 29.03,7.09 z M 13.98,7.06 c -0.37,0.63 -2.49,1.71 -0.97,2.19 0.69,-0.52 2.60,-1.54 0.97,-2.19 z M 27.40,8.90 c -0.72,1.78 2.28,0.81 0.79,0 -0.26,0 -0.53,0 -0.79,0 z m 3.15,0 c -0.63,1.24 1.44,1.38 0.82,0.10 C 31.23,8.73 30.82,8.97 30.56,8.90 z m 1.40,0.31 c -0.64,1.24 1.47,1.38 0.85,0.10 C 32.66,9.04 32.23,9.28 31.96,9.21 z M 14.80,8.53 c -1.23,0.24 -0.40,1.06 0.14,0.93 0.72,0.87 1.52,-0.70 0.35,-0.90 l -0.26,0.00 -0.23,-0.03 z M 31.71,10.81 c 0.13,0.66 0.37,1.22 0.07,0.19 z M 13.36,9.69 c -1.14,0.20 -3.02,0.01 -2.25,1.80 0.89,0.65 1.21,1.53 0.67,2.61 -0.08,0.68 -0.22,1.36 -0.32,2.05 1.12,0.59 1.12,-0.44 1.21,-1.22 0.02,-0.80 0.43,-1.52 0.41,-2.31 -4.75e-4,-0.91 -1.96,-1.81 -0.23,-1.86 0.52,0.26 1.25,1.10 1.76,0.10 -1.11,-0.04 -0.55,-1.14 -1.26,-1.17 z m 4.31,1.71 c -1.45,0.41 0.86,1.80 0.40,0.50 -0.18,-0.12 -0.26,-0.33 -0.40,-0.50 z m -3.62,0.81 c -0.06,0.86 -1.59,2.81 0.09,2.72 0.21,-0.91 1.70,-2.57 -0.09,-2.72 z m -2.62,1.84 c -1.48,-0.05 -0.31,1.82 -1.79,1.89 0.60,0.31 -1.46,-0.16 -0.45,0.81 0.98,0.71 0.92,-1.01 1.85,-0.30 0.56,-0.62 0.67,-1.62 0.39,-2.40 z m 6.96,0.25 c -0.68,1.78 2.10,0.77 0.73,0 -0.24,0 -0.48,0 -0.73,0 z m -3.56,0.53 c -1.08,0.43 -0.44,2.19 0.46,1.13 0.67,-0.70 0.03,-0.81 -0.46,-1.13 z m -1.12,1.90 c -1.63,-0.60 -0.71,2.00 0.00,0.66 -0.07,-0.21 10e-4,-0.44 -0.00,-0.66 z m -2.46,1.43 c -0.57,1.07 1.11,1.44 0.74,0.22 -0.08,-0.36 -0.49,-0.20 -0.74,-0.22 z" id="path4039" style="font-size:medium;font-style:normal;font-variant:normal;font-weight:normal;font-stretch:normal;text-indent:0;text-align:start;text-decoration:none;line-height:normal;letter-spacing:normal;word-spacing:normal;text-transform:none;direction:ltr;block-progression:tb;writing-mode:lr-tb;text-anchor:start;baseline-shift:baseline;color:#000000;fill:#6f3e14;fill-opacity:0.24;font-family:Sans;-inkscape-font-specification:Sans" />
<path d="m 5.07,22.21 c 0.14,2.53 1.54,5.63 5.21,6.34" id="path4206" style="fill:none;stroke:#f0f0f0;stroke-width:2.20;stroke-opacity:0.24" />
<path d="m 21.98,15.02 c 1.26,-0.42 5.21,-0.56 6.19,-0.42" id="path4295" style="fill:none;stroke:#ffffff;stroke-width:1.79;stroke-opacity:0.35" />
<path d="M 18.54,33.34 C 14.02,31.71 10.85,31.35 8.32,29.90 5.78,28.45 2.89,24.38 3.70,18.77 4.52,13.17 11.57,6.29 15.28,5.29 c 3.70,-0.99 9.04,-2.35 13.11,-0.09 4.07,2.26 6.96,3.70 9.22,7.59 2.26,3.89 2.80,6.69 0.36,9.49 -2.44,2.80 -4.07,4.97 -6.51,6.96 0.03,2.41 -1.62,3.43 -1.44,4.88 -0.21,0.04 -0.63,0.09 -0.63,0.09 0,0 0.36,5.69 -0.36,9.95 -0.90,1.35 -11.39,-1.35 -11.30,-2.53 0.09,-1.17 0.90,-0.90 1.35,-3.70 0.45,-2.80 0.09,-3.98 -0.54,-4.61 z" id="stroke01" style="fill:none;stroke:#2a2219;stroke-width:0.5" />
</g>
</svg>
