<?xml version="1.0" encoding="UTF-8" standalone="no"?>
<!DOCTYPE svg PUBLIC "-//W3C//DTD SVG 1.0//EN" "http://www.w3.org/TR/2001/REC-SVG-20010904/DTD/svg10.dtd">
<svg xmlns:svg="http://www.w3.org/2000/svg" xmlns="http://www.w3.org/2000/svg" version="1.0" width="100%" height="100%" viewBox="0 0 48 48" id="_orange01">
<defs/>
<g id="layer2">
<path d="M 19.62,5.41 C 9.38,8.86 6.90,13.38 5.60,23.09 4.31,32.79 13.58,40.34 17.79,41.85 21.99,43.36 29.32,45.41 36.55,38.51 43.77,31.61 43.23,20.93 39.89,15.00 36.55,9.07 29.54,3.46 19.62,5.41 z" id="path3156-9" style="fill:#e75d02" />
<path d="M 23.21,5.03 C 22.07,5.05 20.86,5.16 19.62,5.40 9.38,8.85 6.88,13.38 5.59,23.09 c -0.77,5.83 2.28,10.88 5.75,14.31 C 9.97,22.24 17.49,11.48 28.93,5.87 27.18,5.31 25.29,4.99 23.21,5.03 z" id="path5284" style="fill:#e97117;fill-opacity:0.53" />
<path d="m 26.63,22.01 a 7.65,6.57 0 1 1 -15.31,0 7.65,6.57 0 1 1 15.31,0 z" id="path3982" style="color:#000000;fill:#e86408;fill-opacity:0.62;stroke-width:4.5" />
<path d="m 34.06,17.68 c -2.86,0.15 -5.33,1.26 -6.46,3.25 C 25.40,24.77 36.66,31.08 37.75,37.25 42.34,31.92 42.99,24.87 41.59,19.37 39.15,18.10 36.46,17.55 34.06,17.68 z" id="path3944" style="fill:#670101;fill-opacity:0.07" />
<path d="M 12.25,8.96 C 7.98,12.09 6.49,16.33 5.59,23.09 4.35,32.41 12.85,39.72 17.25,41.62 11.43,37.77 11.16,33.11 11,29.12 10.78,24.05 7.44,25.35 6.90,22.12 6.49,19.68 8.59,13.72 12.25,8.96 z" id="path3946" style="fill:#f5ece9;fill-opacity:0.12" />
<path d="m 30.62,6.46 c 4.40,3.19 7.15,7.41 7.87,9.71 0.96,3.08 4.42,15.48 -5.09,24.78 C 34.45,40.31 35.51,39.50 36.56,38.5 43.78,31.59 43.24,20.93 39.90,15 37.98,11.58 34.82,8.29 30.62,6.46 z" id="path3948" style="fill:#f5ece9;fill-opacity:0.11" />
<path d="m 16.06,10.80 c 4.85,2.37 11.75,1.50 14.12,0.86" id="path3950" style="fill:none;stroke:#f9e9c0;stroke-width:4.5;stroke-linecap:round;stroke-opacity:0.12" />
<path d="M 40.37,15.93 C 38.86,26.46 26.72,30.54 18.43,29.34 11.73,28.37 7.87,22.57 6.62,17.68 6.19,19.29 5.86,21.07 5.59,23.09 4.68,29.91 9.02,35.65 13.12,39 c 2.27,-0.22 5.28,-0.30 9.31,-0.15 4.85,0.17 8.49,0.90 11.28,1.90 0.93,-0.61 1.90,-1.34 2.84,-2.25 6.86,-6.56 6.71,-16.49 3.81,-22.56 z" id="path3952" style="fill:#fd4d0d;fill-opacity:0.31" />
<path d="m 24.58,21.69 a 4.42,4.42 0 1 1 -8.84,0 4.42,4.42 0 1 1 8.84,0 z" id="path3954" style="color:#000000;fill:#fdb233;fill-opacity:0.08;stroke-width:0.5" />
<path d="m 35.04,12.20 a 4.95,3.34 0 1 1 -9.91,0 4.95,3.34 0 1 1 9.91,0 z" id="path3980" style="color:#000000;fill:#fdc25d;fill-opacity:0.15;stroke-width:4.5" />
<path d="m 33.21,15.78 1.12,1.65 c -0.32,-0.60 -0.35,-1.46 -1.12,-1.65 z m -2.15,1.62 C 31.00,17.40 30.93,17.43 30.87,17.5 l 0.09,0.03 c 0.07,0.00 0.14,0.02 0.21,0.03 0.06,-0.03 -0.01,-0.14 -0.12,-0.15 z m 0.12,0.15 1.03,0.18 C 31.87,17.67 31.53,17.59 31.18,17.56 z m 0.65,0.65 c -0.16,0.64 -0.16,1.31 -0.21,1.96 l 0.21,-1.96 z m 6.37,1.12 1.59,1.34 c -0.36,-0.62 -1.07,-0.88 -1.59,-1.34 z m -9.06,0.21 1,0 -1,0 z m 0.37,1.37 L 31,21.53 C 30.51,21.32 30.06,21.02 29.53,20.93 z m 8.56,0.09 0.62,1.25 c 0.12,-0.34 -0.03,-0.69 -0.28,-0.93 0.09,-0.00 -0.09,-0.40 -0.34,-0.31 z m -5.75,1.96 -0.12,1.71 C 32.26,24.15 32.70,23.54 32.34,23 z m -2.75,0.18 C 29.54,23.18 29.48,23.19 29.40,23.25 l 0.12,0.03 c 0.19,0.02 0.19,-0.08 0.06,-0.09 z m -0.06,0.09 c -0.03,-0.00 -0.04,0.01 -0.09,0 0.09,0.43 0.61,0.44 0.75,0.18 l -0.65,-0.18 z m 0.65,0.18 0.28,0.09 c -0.07,-0.06 -0.16,-0.13 -0.25,-0.15 C 30.21,23.43 30.2,23.44 30.18,23.46 z M 30.5,23.56 c 0.08,0.06 0.15,0.12 0.25,0.06 L 30.5,23.56 z m -1.56,2.09 c -0.09,-0.00 -0.18,-9.2e-5 -0.28,0.03 L 29.5,25.78 c -0.18,-0.04 -0.37,-0.11 -0.56,-0.12 z M 24.5,25.93 23.68,26.25 C 23.98,26.19 24.30,26.20 24.5,25.93 z M 23.68,26.25 c -0.09,0.01 -0.19,0.01 -0.28,0.06 -0.08,-0.03 -0.19,-0.02 -0.25,0.12 l 0.18,-0.06 c -0.02,0.01 -0.04,0.04 -0.06,0.06 0.27,0.06 0.26,-0.03 0.18,-0.09 L 23.68,26.25 z m 6.34,-0.06 1.09,0 -1.09,0 z m -1.37,1.46 c 0.12,0.71 0.60,1.31 0.87,1.96 l -0.87,-1.96 z m -2.81,0.25 -0.53,0.25 c 0.28,0.03 0.60,0.18 0.53,-0.25 z m -0.53,0.25 C 25.17,28.14 25.04,28.14 25,28.28 l 0.31,-0.12 z" id="path3149" style="fill:#990101;fill-opacity:0.06" />
<path d="M 26.71,25.57 C 26.54,25.06 26.58,24.51 26.58,23.98" id="path3151" style="fill:#990101;fill-opacity:0.06" />
<path d="m 24.38,23.49 c 0.19,-0.22 0.33,-0.48 0.49,-0.73" id="path3153" style="fill:#990101;fill-opacity:0.06" />
<path d="m 25.11,19.94 c 0.38,-0.43 1.12,0.00 1.47,-0.49" id="path3155" style="fill:#990101;fill-opacity:0.06" />
<path d="m 26.22,21.90 c 0.41,-0.05 0.80,-0.26 1.22,-0.24" id="path3157" style="fill:#990101;fill-opacity:0.06" />
<path d="m 22.91,19.81 c -0.18,0.43 0.06,0.95 -0.24,1.34" id="path3159" style="fill:#990101;fill-opacity:0.06" />
<path d="m 22.91,23.61 c 0.43,0.15 0.90,0.11 1.34,0.24" id="path3161" style="fill:#990101;fill-opacity:0.06" />
<path d="m 25.11,21.77 c 0.37,0.07 0.73,-0.06 1.10,-0.12" id="path3163" style="fill:#990101;fill-opacity:0.06" />
<path d="m 26.46,22.51 c 0.21,0.47 0.14,1.05 0.49,1.47" id="path3165" style="fill:#990101;fill-opacity:0.06" />
<path d="m 27.69,25.08 c 0.12,-0.43 0.26,-0.90 0.61,-1.22" id="path3167" style="fill:#990101;fill-opacity:0.06" />
<path d="m 23.39,21.22 a 2.16,2.68 0 1 1 -4.33,0 2.16,2.68 0 1 1 4.33,0 z" id="path4899" style="color:#000000;fill:#f6f6f6;fill-opacity:0.19;stroke-width:1.20" />
<path d="m 33.81,14.62 c -1.37,-0.11 -0.77,1.75 0.19,1.86 1.20,0.04 0.93,-1.79 -0.04,-1.85 L 33.81,14.62 z m 0.15,0.12 c 0.08,-0.03 -0.01,0.11 0,0 z m 0.15,0.21 c 0.54,0.73 -1.20,0.35 -0.08,0.01 l 0.06,-0.01 0.01,-0.00 z m -2.90,1.31 c -1.38,0.25 -0.95,2.03 -0.90,3.04 -1.10,0.54 -0.18,1.63 0.72,1.58 0.95,0.91 2.01,-0.75 0.76,-1.28 -0.24,-0.65 -0.60,-1.96 0.39,-2.12 0.53,-0.10 0.21,2.34 1.42,1.69 0.74,-0.63 0.17,-2.33 -0.71,-2.48 -0.57,0.18 -0.44,0.58 -0.76,-0.08 C 31.87,16.41 31.54,16.33 31.21,16.28 z M 27.68,17.25 c -1.25,-0.01 -1.09,1.53 -0.26,2.01 1.56,0.92 1.41,-1.90 0.26,-2.01 z m -1.84,1.03 c -1.25,0.26 -0.22,2.73 0.91,2.15 0.65,-0.65 -0.16,-1.97 -0.91,-2.15 z m 3,2.31 c -1.05,-0.46 -2.32,1.11 -0.82,1.38 0.92,-0.34 1.44,1.24 0.27,0.73 -1.29,-0.40 -1.13,1.69 0.05,1.32 0.74,0.51 1.49,-0.21 2.03,0.64 1.35,0.67 1.26,-1.45 0.22,-1.74 C 30.00,22.25 30.42,20.81 29.29,20.73 29.17,20.61 29.00,20.59 28.84,20.59 z m -6,0.28 c -0.95,0.34 -0.69,2.38 0.29,2.37 0.91,-0.39 0.72,-2.05 -0.15,-2.37 l -0.14,0.00 z m 2.78,0.34 c -1.51,0.27 -0.18,2.07 0.70,2.30 1.16,-0.25 0.45,-2.01 -0.40,-2.26 l -0.14,-0.03 -0.15,-0.00 z m 1.15,2.68 c -1.14,-0.15 -1.85,2.05 -0.49,2.03 0.82,-0.39 0.50,1.67 1.53,1.82 1.56,0.15 0.43,-1.51 0.09,-2.19 -0.35,-0.40 -1.12,-0.10 -0.38,-0.61 0.28,-0.52 -0.19,-1.09 -0.74,-1.03 z M 31.25,23.93 c 0.15,0.22 -0.22,0.21 0,0 z m -7.5,0.75 c -1.25,0.62 0.42,1.93 1.24,1.24 C 26.05,24.88 24.68,24.49 23.75,24.68 z m 5.62,0 c -1.88,0.15 -0.71,2.08 0.61,1.28 1.32,-0.26 0.41,-1.68 -0.61,-1.28 z m 1.15,0 c 0.33,-0.11 0.10,0.19 0,0 z m -0.93,3.53 c -1.08,0.58 0.27,2.18 1.15,1.91 0.93,-0.61 0.03,-1.87 -0.86,-1.90 l -0.14,-0.01 -0.14,0.00 z m -4.34,0.25 c -1.16,0.42 0.05,2.13 0.92,2.02 1.38,-0.53 -0.02,-1.98 -0.92,-2.02 z m 1.84,1.84 c -1.08,0.40 -0.24,2.17 0.65,2.21 1.29,-0.37 0.26,-2.16 -0.65,-2.21 z" id="path4249" style="font-size:medium;font-style:normal;font-variant:normal;font-weight:normal;font-stretch:normal;text-indent:0;text-align:start;text-decoration:none;line-height:normal;letter-spacing:normal;word-spacing:normal;text-transform:none;direction:ltr;block-progression:tb;writing-mode:lr-tb;text-anchor:start;baseline-shift:baseline;color:#000000;fill:#d75102;fill-opacity:0.62;stroke-width:1.29;font-family:Sans;-inkscape-font-specification:Sans" />
<path d="m 18.37,17.59 c -0.53,0.34 -0.76,1.25 -0.46,1.79 0.62,0.52 1.15,-0.25 1.16,-0.84 C 19.29,18.04 18.93,17.46 18.37,17.59 z m 2.75,0 c -0.70,-0.31 -1.44,0.90 -0.55,1.13 0.57,0.19 1.28,0.81 1.88,0.39 0.51,-0.75 -0.54,-1.24 -1.10,-1.50 l -0.11,-0.02 -0.11,0.00 z m -4.90,0.68 c -0.61,-0.00 -0.89,0.67 -0.86,1.20 -0.21,0.72 0.68,1.38 1.20,0.73 0.04,-0.54 0.46,-1.17 0.20,-1.71 -0.11,-0.16 -0.33,-0.26 -0.54,-0.22 z m 2.18,1.56 c -0.84,0.08 -0.51,1.44 0.27,1.24 0.43,0.07 0.24,0.36 -0.10,0.26 -0.77,0.04 -0.86,1.20 -0.07,1.33 0.38,0.02 1.28,0.06 0.74,0.59 -0.30,0.70 0.50,0.20 0.58,-0.15 0.21,-0.44 0.23,-0.96 0.01,-1.41 0.71,0.15 0.35,-1.02 0.11,-1.34 -0.41,-0.35 -1.03,-0.44 -1.56,-0.52 z M 20.87,20 c -0.86,0.12 -0.37,1.12 -0.43,1.68 -0.02,0.48 0.68,0.77 0.15,1.11 -0.01,0.63 -0.96,0.62 -0.75,1.32 0.22,0.71 1.26,0.88 1.87,0.59 0.47,-0.33 -0.10,-0.95 0.29,-1.34 0.52,-0.34 -0.02,-1.10 0.42,-1.54 0.58,-0.53 -0.33,-1.00 -0.76,-1.15 C 21.49,20.39 21.31,19.89 20.87,20 z m -0.90,0.56 c 0.20,0.13 0.11,0.32 0,0 z m 3.84,0.65 c -0.73,0.21 -0.49,1.13 -0.41,1.69 0.12,0.76 1.52,0.64 1.20,-0.17 -0.08,-0.53 0.02,-1.56 -0.79,-1.52 z M 16.62,22.62 c -0.75,0.09 -0.47,1.37 0.24,1.20 0.52,-0.03 0.02,1.09 0.67,0.75 0.75,0.10 1.18,-0.88 0.54,-1.32 C 17.75,22.73 17.21,22.57 16.62,22.62 z m 5.93,2.06 c -0.76,0.00 -0.64,1.35 0.11,1.22 0.67,-0.14 1.50,0.25 2.06,-0.27 0.40,-0.53 -0.32,-1.11 -0.85,-0.99 -0.43,0.09 -0.88,0.02 -1.31,0.03 z m -3.93,0.37 c -0.76,-0.02 -0.86,1.03 -0.60,1.57 0.44,0.73 1.30,0.19 1.92,0.24 0.78,-0.34 0.23,-1.28 -0.32,-1.54 C 19.32,25.14 18.97,25.02 18.62,25.06 z m -2.5,2.40 c 0,0.40 0,0.81 0,1.21 0.42,-0.20 0.25,-0.93 0.09,-1.21 -0.03,-10e-4 -0.06,-0.00 -0.09,-0.00 z m 4.62,1.18 c -0.76,0.06 -0.73,1.33 -0.01,1.45 0.60,-0.04 1.63,0.17 1.81,-0.61 -0.03,-0.78 -0.96,-0.80 -1.54,-0.74 -0.08,-0.01 -0.17,-0.04 -0.24,-0.09 z" id="path4470" style="font-size:medium;font-style:normal;font-variant:normal;font-weight:normal;font-stretch:normal;text-indent:0;text-align:start;text-decoration:none;line-height:normal;letter-spacing:normal;word-spacing:normal;text-transform:none;direction:ltr;block-progression:tb;writing-mode:lr-tb;text-anchor:start;baseline-shift:baseline;color:#000000;fill:#e29954;fill-opacity:0.18;stroke-width:1.20;font-family:Sans;-inkscape-font-specification:Sans" />
<path d="m 22,8.90 c -1.12,0.11 -0.41,2.04 0.52,1.41 1.14,1.15 1.86,-1.29 0.39,-1.32 C 22.61,8.98 22.27,9.08 22,8.90 z M 33,9.06 c -1.34,0.25 -0.07,1.54 0.22,2.18 1.18,0.68 1.39,-1.79 0.21,-1.99 C 33.29,9.18 33.14,9.12 33,9.06 z m -5.06,0.37 c -1.13,0.27 -0.12,1.68 0.69,1.26 1.00,0.42 1.85,-1.31 0.47,-1.26 C 28.72,9.42 28.32,9.44 27.93,9.43 z m -13.25,0.15 c -0.93,0.47 -0.90,2.00 -0.45,2.77 1.24,0.33 0.86,-1.22 1.06,-1.93 C 15.40,10.01 15.18,9.52 14.68,9.59 z m 4.78,0.53 c -1.16,0.39 -0.02,2.12 0.89,1.38 0.81,0.17 0.03,2.03 1.37,1.59 0.65,0.35 1.25,0.30 1.65,-0.35 0.84,-0.31 1.98,0.67 2.49,-0.42 0.40,0.51 -0.14,1.21 -0.69,0.77 -0.74,-0.08 -2.89,-0.24 -2.14,0.99 0.87,0.23 2.30,0.46 2.90,-0.23 0.49,-0.52 2.26,0.68 2.41,-0.67 -0.41,-1.13 2.27,0.14 1.65,-1.37 -0.67,-0.55 -2.28,-1.20 -2.69,-0.06 -0.31,0.63 1.46,0.73 0.34,0.83 -1.09,0.22 -0.36,-1.90 -1.61,-1.95 -0.89,0.00 -2.30,-0.55 -2.25,0.87 -0.71,0.07 -2.59,0.84 -2.19,-0.53 C 21.58,9.92 20.10,10.37 19.46,10.12 z M 30.5,10.31 c -1.05,0.25 -0.19,1.45 0.44,1.37 0.23,0.95 1.91,1.13 1.46,-0.14 C 32.13,10.76 31.31,10.21 30.5,10.31 z m -13.34,0.46 c -0.37,0.20 -0.95,1.53 -0.16,0.87 0.16,-0.22 0.74,-0.73 0.16,-0.87 z m 1.68,1.34 c -1.48,-0.15 -0.89,2.43 0.40,1.45 0.96,0.15 1.65,-1.39 0.36,-1.32 -0.25,0.03 -0.57,0.08 -0.77,-0.12 z M 29.31,13.25 c -1.40,0.88 1.30,2.15 1.73,0.98 C 31.30,12.96 29.91,13.58 29.31,13.25 z m 3.75,0.15 c -0.75,0.48 -0.89,1.57 -1.84,1.82 -0.40,1.16 1.50,1.39 1.81,0.31 0.70,-0.45 1.15,-1.92 0.06,-2.13 l -0.04,-0.00 c 0,0 -5e-6,10e-7 -5e-6,10e-7 z M 12.62,18.81 c -1.26,0.58 0.36,1.70 1.16,1.17 1.29,-0.45 -0.38,-1.75 -1.16,-1.17 l 4e-6,-2e-6 z m 8,0 c -1.28,0.61 0.47,1.36 0.82,1.40 -0.07,1.32 1.96,0.75 2.63,0.40 C 24.61,19.60 23.03,19.62 22.47,19.77 22.77,18.39 21.41,18.90 20.62,18.81 z m -1.5,0.28 c -0.54,-0.08 -1.68,0.71 -0.51,0.43 0.23,-0.02 0.75,-0.05 0.51,-0.43 z m 5.43,1.46 c -0.25,0.38 -0.19,1.75 0.07,0.62 0.01,-0.19 0.38,-0.68 -0.07,-0.62 z m -5.03,0.12 c -0.97,-0.39 -0.96,1.06 -1.74,0.75 -0.85,0.63 -0.04,1.86 0.86,1.65 -0.58,0.84 0.80,0.78 1.27,1.35 0.63,0.75 2.10,0.22 1.32,-0.74 -0.56,-0.85 -1.72,-0.03 -2.25,-0.39 0.52,-0.21 0.82,-0.59 0.97,-1.13 0.43,0.83 2.55,0.86 1.78,-0.39 -0.61,-0.54 -1.53,-0.73 -2.19,-1.09 l -0.02,0.00 c 0,0 6e-6,0 6e-6,0 z m -5.84,1.90 c -1.40,0.10 -0.30,1.48 0.20,1.95 0.25,1.00 1.78,0.73 1.25,-0.32 C 14.96,23.53 14.53,22.57 13.68,22.59 z m 9.90,0.18 c -1.18,0.53 0.43,3.16 1.17,1.87 0.24,-0.71 -0.46,-1.77 -1.17,-1.87 z M 23.81,24 c 0.08,0.42 -0.04,0.34 0,0 z m 0.71,0.43 c 0.19,-0.04 -0.17,0.15 0,0 z m -6.68,1.62 c -1.14,0.17 -0.27,1.63 0.56,1.41 0.60,1.44 2.08,-0.59 0.76,-1.09 -0.40,-0.23 -0.88,-0.24 -1.32,-0.31 z" id="path4598" style="font-size:medium;font-style:normal;font-variant:normal;font-weight:normal;font-stretch:normal;text-indent:0;text-align:start;text-decoration:none;line-height:normal;letter-spacing:normal;word-spacing:normal;text-transform:none;direction:ltr;block-progression:tb;writing-mode:lr-tb;text-anchor:start;baseline-shift:baseline;color:#000000;fill:#f6f6f6;fill-opacity:0.09;stroke-width:1.20;font-family:Sans;-inkscape-font-specification:Sans" />
<path d="m 38.49,23.86 a 5.63,6.99 0 1 1 -11.27,0 5.63,6.99 0 1 1 11.27,0 z" id="path4901" style="color:#000000;fill:#aa690a;fill-opacity:0.07;stroke-width:1.20" />
<path d="m 40.90,27.17 a 5.26,7.14 0 1 1 -10.52,0 5.26,7.14 0 1 1 10.52,0 z" id="path4903" style="color:#000000;fill:#8e3f02;fill-opacity:0.08;stroke-width:1.20" />
<path d="m 37.68,15.40 c -0.89,-0.23 -1.23,1.43 -0.20,1.31 0.62,0.15 1.87,0.09 1.60,-0.85 -0.25,-0.47 -0.92,-0.50 -1.39,-0.46 z m 0.84,1.93 c -0.74,0.21 -0.50,1.16 -0.06,1.57 0.49,0.19 0.12,0.60 -0.19,0.27 -0.50,-0.57 -1.63,-0.71 -1.96,0.11 -0.13,0.86 1.07,0.90 1.67,0.94 0.84,-0.29 0.18,0.85 0.62,1.28 0.09,0.95 -1.52,0.14 -1.59,1.08 -0.05,1.06 1.35,0.57 1.86,1.02 -0.00,0.41 -0.81,0.50 -0.44,1.06 0.05,0.45 0.99,0.47 0.83,0.72 -0.47,0.59 0.13,1.33 -0.42,1.95 -0.20,0.81 -1.15,0.29 -1.53,0.98 -0.43,0.65 -1.86,0.49 -1.56,1.58 0.31,0.59 1.10,0.31 1.56,0.05 0.45,-0.26 0.84,-0.62 1.24,-0.95 0.22,-0.62 0.98,-0.18 0.41,0.28 -0.06,0.98 1.55,0.92 1.46,-0.06 -0.04,-0.83 1.00,-1.16 0.82,-1.97 -0.12,-0.60 -0.80,-1.08 -0.21,-1.64 0.31,-0.71 0.18,-1.44 0.52,-2.13 0.03,-0.58 -0.17,-1.33 -0.80,-1.51 -0.39,-0.37 -1.17,-1.14 -0.71,-1.67 0.82,-0.31 0.56,-1.35 0.13,-1.89 -0.31,-0.53 -0.61,-1.19 -1.35,-1.07 -0.10,-0.00 -0.20,-0.01 -0.30,-0.03 z m 0.62,1.5 c 0.38,0.37 -0.33,0.48 0,0 z M 40,23.12 c 0.49,0.09 0.20,1.23 -0.33,0.76 -0.74,-0.04 0.17,-0.08 0.24,-0.40 C 39.97,23.38 40.01,23.25 40,23.12 z m -2.71,2.59 c -0.91,0.37 -0.09,1.42 0.38,1.82 0.77,0.47 1.47,-0.78 0.85,-1.33 -0.26,-0.39 -0.77,-0.60 -1.24,-0.49 z m 1.62,4.37 c -0.69,-0.03 -1.01,0.81 -1.63,0.93 -0.33,0.59 -0.43,1.83 0.38,2.03 0.87,-0.02 0.77,-1.02 1.00,-1.53 0.60,-0.04 1.61,-0.53 0.97,-1.23 -0.18,-0.18 -0.47,-0.27 -0.73,-0.20 z" id="path4907" style="font-size:medium;font-style:normal;font-variant:normal;font-weight:normal;font-stretch:normal;text-indent:0;text-align:start;text-decoration:none;line-height:normal;letter-spacing:normal;word-spacing:normal;text-transform:none;direction:ltr;block-progression:tb;writing-mode:lr-tb;text-anchor:start;baseline-shift:baseline;color:#000000;fill:#ea8d46;fill-opacity:0.15;stroke-width:1.29;font-family:Sans;-inkscape-font-specification:Sans" />
<path d="M 25.12,6.71 C 24.54,6.81 23.83,6.91 23.42,7.37 23.22,8.04 24.05,8.23 24.48,7.88 24.93,7.78 25.85,7.69 25.59,7.01 25.51,6.83 25.32,6.69 25.12,6.71 z m 0.87,0 c -0.74,0.29 -0.07,1.27 0.55,1.06 0.47,0.09 1.77,0.25 1.44,-0.57 -0.16,-0.67 -0.86,-0.25 -1.32,-0.41 C 26.45,6.75 26.22,6.69 26,6.71 z m -7.96,1.68 c -0.62,0.41 -1.37,0.55 -2.09,0.75 0.53,0.17 0.99,0.66 1.58,0.59 0.42,-0.25 1.26,-0.16 1.11,-0.85 C 18.61,8.59 18.34,8.34 18.03,8.40 z m 6.12,0.31 c -0.61,0.03 -0.10,0.97 -0.76,0.85 -0.69,0.21 -0.32,1.25 0.33,0.97 0.29,-0.14 0.89,0.03 0.31,0.21 -0.35,0.28 0.21,1.03 0.09,1.04 -0.62,-0.28 -1.04,0.79 -0.40,1.04 0.51,0.14 1.00,0.36 1.19,0.88 0.48,0.11 0.83,0.71 1.46,0.55 0.65,0.00 1.49,-0.28 1.63,-0.99 0.28,-0.49 -0.29,-1.40 -0.81,-0.85 -0.11,0.56 -0.54,1.14 -1.18,0.78 -0.45,-0.15 -0.36,-0.61 -0.10,-0.83 0.20,-0.64 0.86,-1.09 0.72,-1.85 0.03,-0.80 -0.53,-1.58 -1.33,-1.71 -0.38,-0.08 -0.77,-0.09 -1.16,-0.09 z m 3.15,0.06 c -0.66,0.11 -0.38,1.20 0.25,0.99 0.60,0.23 0.53,1.20 1.24,1.29 0.64,-0.02 0.68,-0.89 0.17,-1.14 -0.29,-0.50 -0.64,-1.19 -1.33,-1.15 -0.11,-0.00 -0.23,0.00 -0.34,0.00 z m -8.28,0.90 c -0.65,-0.00 -1.00,0.63 -1.19,1.16 -0.42,0.44 -0.88,1.01 -0.51,1.61 -0.14,0.58 0.52,0.71 0.54,1.28 0.12,0.78 1.29,0.44 0.99,-0.26 -0.30,-0.41 -0.16,-0.90 -0.51,-1.29 -0.42,-0.41 0.43,-0.10 0.44,0.20 0.17,0.49 0.72,1.23 1.22,0.61 0.22,-0.62 -0.58,-1.05 -0.66,-1.66 -0.39,0.00 -0.85,-0.40 -0.24,-0.57 0.50,-0.23 0.52,-0.95 -0.06,-1.08 z M 20.18,10.40 c -0.76,0.22 -0.12,1.04 -0.19,1.54 0.15,0.63 0.34,1.48 0.95,1.80 0.69,0.19 0.88,-0.69 0.37,-1.05 -0.29,-0.18 -0.35,-1.10 0.03,-0.51 0.46,0.53 0.72,1.26 1.31,1.64 0.08,0.29 -0.00,0.76 0.50,0.79 0.49,0.16 0.95,0.66 1.43,0.11 0.30,-0.60 -0.55,-0.90 -0.99,-1.05 -0.49,-0.13 -0.39,-0.85 -0.75,-1.17 0.62,-0.01 0.71,-0.77 0.61,-1.24 0.09,-0.68 -0.93,-1.10 -1.11,-0.33 0.04,0.22 0.30,0.97 -0.05,0.91 -0.21,-0.57 -0.86,-1.04 -1.49,-0.86 0.02,-0.32 -0.29,-0.63 -0.62,-0.56 z m 5.43,0.18 c 0.24,0.27 -0.35,0.95 -0.28,0.35 0.08,-0.12 0.22,-0.21 0.28,-0.35 z M 19,11.28 c -0.12,0.22 -0.25,0.45 -0.37,0.68 -0.21,-0.27 0.06,-0.67 0.37,-0.68 z m 4.31,2.37 c -0.03,0.31 -0.59,0.79 -0.30,0.18 0.05,-0.10 0.16,-0.22 0.30,-0.18 z" id="path5063" style="font-size:medium;font-style:normal;font-variant:normal;font-weight:normal;font-stretch:normal;text-indent:0;text-align:start;text-decoration:none;line-height:normal;letter-spacing:normal;word-spacing:normal;text-transform:none;direction:ltr;block-progression:tb;writing-mode:lr-tb;text-anchor:start;baseline-shift:baseline;color:#000000;fill:#f6f6f6;fill-opacity:0.09;stroke-width:1.20;font-family:Sans;-inkscape-font-specification:Sans" />
<path d="m 28.29,11.20 a 2.00,1.21 0 1 1 -4.00,0 2.00,1.21 0 1 1 4.00,0 z" id="path5228" style="color:#000000;fill:#f6f6f6;fill-opacity:0.09;stroke-width:1.20" />
<path d="m 27.79,11.92 a 2.53,1.28 0 1 1 -5.07,0 2.53,1.28 0 1 1 5.07,0 z" id="path5230" style="color:#000000;fill:#f6f6f6;fill-opacity:0.09;stroke-width:1.20" />
<path d="m 28.86,11.24 a 2.35,1.39 0 1 1 -4.71,0 2.35,1.39 0 1 1 4.71,0 z" id="path5232" style="color:#000000;fill:#f6f6f6;fill-opacity:0.09;stroke-width:1.20" />
<path d="m 24.56,10.50 a 3.13,1.39 0 1 1 -6.26,0 3.13,1.39 0 1 1 6.26,0 z" id="path5234" style="color:#000000;fill:#f6f6f6;fill-opacity:0.09;stroke-width:1.20" />
<path d="m 21.77,11.09 a 2.35,1.24 0 1 1 -4.71,0 2.35,1.24 0 1 1 4.71,0 z" id="path5236" style="color:#000000;fill:#f6f6f6;fill-opacity:0.09;stroke-width:1.20" />
<path d="m 23.32,11.77 a 1.48,0.68 0 1 1 -2.97,0 1.48,0.68 0 1 1 2.97,0 z" id="path5238" style="color:#000000;fill:#f6f6f6;fill-opacity:0.09;stroke-width:1.20" />
<path d="m 26.11,11.56 a 1.05,0.65 0 1 1 -2.10,0 1.05,0.65 0 1 1 2.10,0 z" id="path5240" style="color:#000000;fill:#f6f6f6;fill-opacity:0.22;stroke-width:1.20" />
<path d="m 23.76,7.13 a 1.95,0.76 0 1 1 -3.90,0 1.95,0.76 0 1 1 3.90,0 z" id="path5242" style="color:#000000;fill:#f6f6f6;fill-opacity:0.22;stroke-width:1.20" />
<path d="m 23.09,7.06 a 0.95,0.43 0 1 1 -1.91,0 0.95,0.43 0 1 1 1.91,0 z" id="path5244" style="color:#000000;fill:#f6f6f6;fill-opacity:0.22;stroke-width:1.20" />
<path d="m 27.20,7.56 a 1.05,0.39 0 1 1 -2.11,0 1.05,0.39 0 1 1 2.11,0 z" id="path5271" style="color:#000000;fill:#f6f6f6;fill-opacity:0.22;stroke-width:1.20" />
<path d="m 26.34,7.36 a 1.05,0.39 0 1 1 -2.11,0 1.05,0.39 0 1 1 2.11,0 z" id="path5273" style="color:#000000;fill:#f6f6f6;fill-opacity:0.22;stroke-width:1.20" />
<path d="m 24.28,7.62 a 2.61,0.59 0 1 1 -5.22,0 2.61,0.59 0 1 1 5.22,0 z" id="path5275" style="color:#000000;fill:#f6f6f6;fill-opacity:0.22;stroke-width:1.20" />
<path d="m 21.77,6.96 a 1.22,0.52 0 1 1 -2.44,0 1.22,0.52 0 1 1 2.44,0 z" id="path5277" style="color:#000000;fill:#f6f6f6;fill-opacity:0.22;stroke-width:1.20" />
<path d="m 22.59,7.08 c -1.00,0 -1.81,-0.02 -1.81,0.41 0,0.43 0.80,0.78 1.81,0.78 1.00,0 1.84,-0.34 1.84,-0.78 0,-0.43 -0.83,-0.41 -1.84,-0.41 z" id="path5279" style="color:#000000;fill:#513212;stroke-width:1.20" />
<path d="m 24.35,7.49 a 1.55,0.52 0 1 1 -3.11,0 1.55,0.52 0 1 1 3.11,0 z" id="path5282" style="color:#000000;fill:#5a6d46;stroke-width:1.20" />
<path d="m 11.48,24.79 c -1.26,2.87 -0.68,7.81 1.83,10.22" id="path5307" style="fill:none;stroke:#e05a08;stroke-width:3.09;stroke-linecap:round;stroke-opacity:0.44" />
<path d="m 24.32,7.32 a 1.21,0.54 0 1 1 -2.42,0 1.21,0.54 0 1 1 2.42,0 z" id="path5312" style="color:#000000;fill:#133415;fill-opacity:0.49;stroke-width:3.09" />
<path d="m 23.21,7.15 c -0.42,0 -0.75,0.11 -0.75,0.25 0,0.13 0.32,0.25 0.75,0.25 0.42,0 0.78,-0.11 0.78,-0.25 0,-0.13 -0.35,-0.25 -0.78,-0.25 z" id="path5309" style="color:#000000;fill:#1c1510;fill-opacity:0.77;stroke-width:3.09" />
<path d="M 14.70,9.57 C 13.02,10.33 12.27,11.16 11.86,12.25" id="path5314" style="color:#000000;fill:none;stroke:#ea872a;stroke-width:3;stroke-linecap:round;stroke-opacity:0.36" />
<path d="m 31.32,24.80 a 0.41,0.54 0 1 1 -0.83,0 0.41,0.54 0 1 1 0.83,0 z" id="path5333" style="color:#000000;fill:#f19a19;fill-opacity:0.14;stroke-width:3" />
<path d="m 32.41,22.64 a 0.83,1.03 0 1 1 -1.66,0 0.83,1.03 0 1 1 1.66,0 z" id="path5335" style="color:#000000;fill:#f19a19;fill-opacity:0.14;stroke-width:3" />
<path d="m 29.86,20.90 a 0.36,0.54 0 1 1 -0.72,0 0.36,0.54 0 1 1 0.72,0 z" id="path5337" style="color:#000000;fill:#f19a19;fill-opacity:0.14;stroke-width:3" />
<path d="m 36.41,20.41 a 0.70,0.57 0 1 1 -1.40,0 0.70,0.57 0 1 1 1.40,0 z" id="path5339" style="color:#000000;fill:#f19a19;fill-opacity:0.14;stroke-width:3" />
<path d="M 19.62,5.41 C 9.38,8.86 6.90,13.38 5.60,23.09 4.31,32.79 13.58,40.34 17.79,41.85 21.99,43.36 29.32,45.41 36.55,38.51 43.77,31.61 43.23,20.93 39.89,15.00 36.55,9.07 29.54,3.46 19.62,5.41 z" id="stroke01" style="fill:none;stroke:#55300e;stroke-width:0.5" />
</g>
</svg>
