<?xml version="1.0" encoding="UTF-8" standalone="no"?>
<!DOCTYPE svg PUBLIC "-//W3C//DTD SVG 1.0//EN" "http://www.w3.org/TR/2001/REC-SVG-20010904/DTD/svg10.dtd">
<svg xmlns:svg="http://www.w3.org/2000/svg" xmlns="http://www.w3.org/2000/svg" version="1.0" width="100%" height="100%" viewBox="0 0 48 48" id="_pear01">
<defs id="defs2386"/>
<g id="pear01" style="display:inline">
<path d="M 23.72,10.74 C 26.41,10.98 26.97,13.43 27.36,14.54 C 27.76,15.64 29.1,22.29 30.13,23.63 C 31.16,24.98 34.88,30.04 34.96,33.28 C 35.03,36.53 33.48,41.76 28.71,43.57 C 26.02,44.58 24.34,44.04 23.14,44.03 C 22.01,44.03 21.21,45.2 17,43.17 C 13.36,41.41 10.06,35.24 13.05,28.46 C 14.85,24.38 15.5,25.69 17.95,18.97 C 20.4,12.24 21.59,10.74 23.72,10.74 z" id="p2525" style="opacity:1;fill:#f1bb33;fill-opacity:1;fill-rule:evenodd;stroke:none"/>
<path d="M 25.4,11.4 C 25.27,11.39 25.15,11.41 25.06,11.46 C 24.43,12.16 25.41,13.01 25.62,14.12 C 25.83,15.23 24.79,21.86 23.2,26.68 C 19.69,37.32 22.92,38.12 21.27,39.4 C 19.91,40.44 16.46,34.73 13.68,35.78 C 12.86,36.08 12.61,37.09 12.78,38.37 C 13.73,40.65 15.33,42.38 17,43.18 C 21.2,45.21 22.02,44.02 23.15,44.03 C 24.35,44.03 26.03,44.58 28.71,43.56 C 33.49,41.75 35.04,36.52 34.96,33.28 C 34.88,30.03 31.15,24.96 30.12,23.62 C 29.09,22.28 27.77,15.63 27.37,14.53 C 27.09,13.75 26.72,12.34 25.62,11.46 C 25.54,11.44 25.47,11.41 25.4,11.4 z" id="p3316" style="opacity:1;fill:#dc9c3e;fill-opacity:0.76;fill-rule:evenodd;stroke:none"/>
<path d="M 14.18,30.56 C 13.79,33.61 15.17,35.39 16.84,35.68 C 18.52,35.98 20.39,37.55 21.87,37.16 C 23.34,36.76 25.61,36.86 25.81,34.89 C 26,32.92 23.24,30.36 22.95,29.57 C 22.65,28.78 22.46,19.03 21.57,19.03 C 20.68,19.03 18.12,24.45 16.84,25.73 C 15.56,27.01 13.89,29.38 14.18,30.56 z" id="p3444" style="opacity:1;fill:#f8f033;fill-opacity:0.31;fill-rule:evenodd;stroke:none"/>
<path d="M 22.98,13.21 C 22.21,13.91 21.38,14.53 21.93,15.16 C 22.49,15.78 22.77,14.88 23.11,14.67 C 23.46,14.46 24.43,13.98 24.02,13.49 C 23.6,13 23.53,12.87 22.98,13.21 z" id="p3385" style="opacity:1;fill:#f8f8e7;fill-opacity:0.76;fill-rule:evenodd;stroke:none"/>
<path d="M 20.75,23.49 C 19.57,24.6 21.52,25.43 21.17,26.33 C 20.82,27.24 17.91,30.22 19.78,31.19 C 21.66,32.17 21.03,29.53 21.73,28.21 C 22.42,26.89 23.32,25.43 22.98,24.39 C 22.63,23.35 21.73,22.03 20.75,23.49 z" id="p3387" style="opacity:1;fill:#f8f8e7;fill-opacity:0.76;fill-rule:evenodd;stroke:none"/>
<path d="M 23.72,10.74 C 26.41,10.98 26.97,13.43 27.36,14.54 C 27.76,15.64 29.1,22.29 30.13,23.63 C 31.16,24.98 34.88,30.04 34.96,33.28 C 35.03,36.53 33.48,41.76 28.71,43.57 C 26.02,44.58 24.34,44.04 23.14,44.03 C 22.01,44.03 21.21,45.2 17,43.17 C 13.36,41.41 10.06,35.24 13.05,28.46 C 14.85,24.38 15.5,25.69 17.95,18.97 C 20.4,12.24 21.59,10.74 23.72,10.74 z" id="stroke01" style="opacity:1;fill:none;fill-opacity:1;fill-rule:evenodd;stroke:#42360c;stroke-width:0.5;stroke-linecap:butt;stroke-linejoin:miter;stroke-miterlimit:4;stroke-dasharray:none;stroke-opacity:1;display:inline"/>
<path d="M 15.46,1.4 C 15.1,1.7 15.27,2.83 15.37,2.84 C 16.88,3.02 17.81,2.39 19.81,3.78 C 21.48,4.93 22.55,7.58 22.81,8.46 C 23.07,9.35 23.31,11.16 23.31,11.5 C 23.31,11.57 23.31,11.66 23.31,11.78 C 23.52,11.79 23.67,11.72 23.81,11.62 C 23.93,11.54 24.03,11.43 24.18,11.34 C 24.14,10.8 24.08,10.2 24.03,9.46 C 23.92,7.95 22.16,4.61 20.65,3.46 C 19.14,2.32 17.2,1.55 15.46,1.4 z" id="p3306" style="opacity:1;fill:#ae704c;fill-opacity:1;fill-rule:evenodd;stroke:none"/>
<path d="M 13.81,26.96 C 13.58,27.38 13.33,27.85 13.06,28.46 C 10.07,35.24 13.35,41.43 17,43.18 C 21.2,45.21 22.02,44.02 23.15,44.03 C 24.35,44.03 26.03,44.58 28.71,43.56 C 33.49,41.75 35.04,36.52 34.96,33.28 C 34.93,31.85 34.18,30.09 33.28,28.43 C 33.48,31.89 32.55,35.81 30.71,38.62 C 28.53,41.96 26.36,39.5 24.31,39.5 C 22.25,39.5 19.66,40.81 16.06,38.62 C 12.98,36.75 13.33,31.26 13.81,26.96 z" id="p3417" style="opacity:1;fill:#b7390f;fill-opacity:0.22;fill-rule:evenodd;stroke:none"/>
<path d="M 26.4,12.87 C 26.23,12.87 26.08,12.94 25.96,13.03 C 24.55,14.7 26.35,19.84 25.84,22.15 C 25.32,24.47 23,29.6 22.87,33.84 C 22.74,38.08 22.25,40.8 23.28,42.09 C 23.77,42.71 24.91,43.54 26.18,44.15 C 26.91,44.09 27.75,43.92 28.71,43.56 C 33.49,41.75 35.04,36.52 34.96,33.28 C 34.88,30.03 31.15,24.96 30.12,23.62 C 29.09,22.28 27.77,15.63 27.37,14.53 C 27.22,14.12 27.03,13.53 26.75,12.93 C 26.63,12.91 26.5,12.87 26.4,12.87 z M 25.84,30.9 C 27.64,31.16 31.5,37.44 30.21,39.5 C 28.28,42.59 25.07,41.18 25.59,39.12 C 26.1,37.06 27.52,35.01 26.75,33.46 C 25.97,31.92 25.2,31.03 25.84,30.9 z" id="p3409" style="opacity:1;fill:#a37814;fill-opacity:0.41;fill-rule:evenodd;stroke:none"/>
<path d="M 27.78,16.12 C 27.49,17.9 27.55,19.76 26.93,20.71 C 26.19,21.87 25.53,24.35 28.34,26.09 C 31.15,27.82 33.72,30.4 33.31,32.71 C 32.89,35.03 29.32,31.07 29.4,34.62 C 30.14,36.93 29.34,40.48 28.43,41.06 C 27.65,41.56 25.24,43.29 26.43,44.12 C 27.1,44.05 27.85,43.88 28.71,43.56 C 33.49,41.75 35.04,36.52 34.96,33.28 C 34.88,30.03 31.15,24.96 30.12,23.62 C 29.33,22.59 28.37,18.5 27.78,16.12 z" id="p3425" style="opacity:1;fill:#614114;fill-opacity:0.35;fill-rule:evenodd;stroke:none"/>
<path d="M 34.53,33.75 C 34.46,33.75 34.42,33.75 34.37,33.78 C 33.63,34.19 32.15,37.68 30.75,40.65 C 29.34,43.63 25.61,43.12 24.62,43.12 C 23.63,43.12 22.23,42.46 21.4,42.21 C 20.57,41.97 18.1,42.37 17.28,42.87 C 17.11,42.99 16.97,43.03 16.84,43.09 C 16.89,43.12 16.94,43.16 17,43.18 C 21.2,45.21 22.02,44.02 23.15,44.03 C 24.35,44.03 26.03,44.58 28.71,43.56 C 33.24,41.84 34.85,37.06 34.93,33.81 C 34.79,33.77 34.64,33.73 34.53,33.75 z" id="p3430" style="opacity:1;fill:#dedeba;fill-opacity:0.33;fill-rule:evenodd;stroke:none"/>
<path d="M 31.52,30.77 C 31.77,31.79 31.19,32.62 30.23,32.62 C 29.27,32.62 28.30,31.79 28.05,30.77 C 27.80,29.74 28.38,28.91 29.34,28.91 C 30.30,28.91 31.27,29.74 31.52,30.77 L 31.52,30.77 z" id="p3435" style="opacity:1;fill:#b11305;fill-opacity:0.17;stroke:none"/>
<path d="M 30.92,32.08 C 31.04,32.46 30.92,32.77 30.63,32.77 C 30.35,32.77 30.02,32.46 29.90,32.08 C 29.77,31.71 29.90,31.40 30.18,31.40 C 30.46,31.40 30.79,31.71 30.92,32.08 L 30.92,32.08 z" id="p3437" style="opacity:1;fill:#a32214;fill-opacity:0.41;stroke:none"/>
<path d="M 23.71,10.75 C 21.58,10.75 20.42,12.24 17.96,18.96 C 19.82,16.91 21.24,13.66 22,13.37 C 22.9,13.02 24.81,11.9 24.81,12.53 C 24.81,13.15 23.32,13.85 23.53,14.68 C 23.74,15.52 24.57,18.05 25.34,17.84 C 26.11,17.63 26.26,16.24 26.75,16.93 C 27.23,17.63 27.29,21.24 28.4,22.84 C 29.22,24.01 30.82,25.27 32.06,26.37 C 31.26,25.14 30.5,24.12 30.12,23.62 C 29.09,22.28 27.77,15.63 27.37,14.53 C 26.97,13.42 26.4,10.98 23.71,10.75 z" id="p3439" style="opacity:1;fill:#a32214;fill-opacity:0.22;fill-rule:evenodd;stroke:none"/>
<path d="M 24.5,12.02 C 23.45,12.17 21.94,13.08 22.02,14.28 C 22.09,15.49 21.41,19.49 20.96,20.85 C 20.51,22.2 20.31,23.36 20.06,24.62 C 19.3,28.39 17.94,27.93 18.02,29.52 C 18.1,31.15 21.19,30.57 21.79,29.82 C 22.39,29.07 22.69,25.22 23.22,24.24 C 23.75,23.26 24.43,18.13 24.35,17.23 C 24.28,16.32 25.49,11.87 24.5,12.02 z" id="p3448" style="opacity:1;fill:#fffff5;fill-opacity:0.31;fill-rule:evenodd;stroke:none"/>
<path d="M 16.4,1.56 C 16.37,1.7 16.32,1.86 16.31,2 C 17.25,2.16 17.86,2.32 17.84,2.43 C 17.82,2.52 17.11,2.38 16.28,2.25 C 16.26,2.51 16.28,2.71 16.31,2.87 C 17.25,2.84 18.09,2.74 19.4,3.53 L 19.59,3.12 C 19.59,3.12 19.57,2.9 19.56,2.75 C 18.56,2.17 17.47,1.77 16.4,1.56 z" id="p3452" style="opacity:1;fill:#1f2040;fill-opacity:0.81;fill-rule:evenodd;stroke:none"/>
<path d="M 23.03,9.5 C 23.18,10.34 23.31,11.27 23.31,11.5 C 23.31,11.57 23.31,11.66 23.31,11.78 L 23.81,11.53 C 23.88,11.32 23.93,11.12 23.93,11 C 23.93,10.59 23.58,10.09 23.03,9.5 z" id="p3461" style="opacity:1;fill:#1f2040;fill-opacity:0.81;fill-rule:evenodd;stroke:none"/>
<path d="M 17.78,1.93 L 17.78,2.43 C 18.64,2.61 19.99,3.22 20.68,4.12 C 21.37,5.02 21.96,5.59 21.96,5.59 C 21.96,5.59 21.26,4.24 20.59,3.43 C 19.74,2.8 18.78,2.29 17.78,1.93 z" id="p3466" style="opacity:1;fill:#f6f0e9;fill-opacity:0.73;fill-rule:evenodd;stroke:none"/>
<path d="M 22.7,11.62 C 22.7,11.62 22.99,11.96 23.33,11.87 C 23.67,11.79 23.87,11.43 24.29,11.39 L 24.85,11.2" id="p3450" style="opacity:1;fill:none;fill-rule:evenodd;stroke:#f7c289;stroke-width:0.40;stroke-linecap:round;stroke-linejoin:miter;stroke-miterlimit:4;stroke-dasharray:none;stroke-opacity:0.81"/>
<path d="M 24.18,11.34 C 24.14,10.8 24.08,10.2 24.03,9.46 C 23.92,7.95 22.16,4.61 20.65,3.46 C 19.14,2.32 17.2,1.55 15.46,1.4 C 15.1,1.7 15.27,2.83 15.37,2.84 C 16.88,3.02 17.81,2.39 19.81,3.78 C 21.48,4.93 22.55,7.58 22.81,8.46 C 23.07,9.35 23.31,11.16 23.31,11.5 C 23.31,11.57 23.31,11.66 23.31,11.78" id="stroke02" style="opacity:1;fill:none;fill-opacity:1;fill-rule:evenodd;stroke:#42220c;stroke-width:0.30;stroke-linecap:round;stroke-linejoin:miter;stroke-miterlimit:4;stroke-dasharray:none;stroke-opacity:1;display:inline"/>
</g>
</svg>
