<?xml version="1.0" encoding="UTF-8" standalone="no"?>
<!DOCTYPE svg PUBLIC "-//W3C//DTD SVG 1.0//EN" "http://www.w3.org/TR/2001/REC-SVG-20010904/DTD/svg10.dtd">
<svg xmlns:svg="http://www.w3.org/2000/svg" xmlns="http://www.w3.org/2000/svg" version="1.0" width="100%" height="100%" viewBox="0 0 48 48" id="_pepper02" style="enable-background:new">
<defs id="defs2385"/>
<g id="pepper02" style="display:inline">
<path d="M 9.1,9.43 C 14.95,3.9 19.18,4.81 21.52,5.2 C 23.86,5.59 24.32,6.5 24.77,6.5 C 25.23,6.5 27.77,5.14 29.39,5.4 C 31.02,5.66 32.32,6.31 33.42,6.76 C 34.53,7.22 36.09,8.71 36.55,8.84 C 37,8.97 39.67,10.27 40.71,12.48 C 41.75,14.7 41.37,20.66 39.93,25.23 C 38.84,28.68 37.79,30.17 37.46,31.22 C 36.84,33.18 37.13,34.79 36.16,37.39 C 35.18,40 31.9,41.64 29.98,42.4 C 27.29,43.46 26.2,42.66 25.62,42.66 C 25.03,42.66 22.56,43.31 20.48,42.73 C 18.4,42.14 18.27,41.56 16.9,41.1 C 15.54,40.65 13.91,38.3 12.94,37.72 C 11.96,37.13 9.49,34.21 9.17,30.7 C 8.84,27.18 8.91,26.01 7.8,21.98 C 6.69,17.95 6.69,12.29 9.1,9.43 z" id="p2465" style="fill:#e33729;fill-opacity:1;fill-rule:evenodd;stroke:none"/>
<path d="M 28.71,27.72 C 28.4,30.53 27,38.46 26.9,39.56 C 26.8,40.67 25.89,42.07 28.3,41.47 C 30.71,40.87 32.22,37.35 32.72,35.75 C 33.22,34.14 29.51,32.84 30.61,29.62 C 31.72,26.41 34.43,25.21 33.32,23 C 32.22,20.79 31.11,18.78 30.41,20.39 C 29.71,22 29.01,25.51 28.71,27.72 z" id="p3305" style="fill:#cb271a;fill-opacity:0.51;fill-rule:evenodd;stroke:none;display:inline"/>
<path d="M 16.78,5.06 C 14.67,5.44 12.09,6.6 9.09,9.43 C 6.68,12.29 6.7,17.96 7.81,22 C 8.91,26.03 8.83,27.17 9.15,30.68 C 9.48,34.19 11.96,37.13 12.93,37.71 C 13.91,38.3 15.54,40.63 16.9,41.09 C 17.77,41.38 18.18,41.73 18.87,42.09 C 15.12,34.41 14.46,26.13 14.93,20.09 C 15.19,16.78 16.01,10.59 16.78,5.06 z" id="p3248" style="fill:#e4686a;fill-opacity:0.36;fill-rule:evenodd;stroke:none"/>
<path d="M 28.75,5.37 C 27.16,5.46 25.17,6.49 24.78,6.5 C 24.49,6.5 24.21,6.14 23.46,5.78 C 23.8,9.62 24.36,17.03 23.96,20.43 C 23.57,23.83 20.98,35.72 19.81,42.5 C 20.01,42.57 20.25,42.64 20.5,42.71 C 22.53,43.29 24.91,42.68 25.56,42.65 C 27.73,34.88 30.62,21.86 30.62,17.37 C 30.62,14.75 30.3,9.92 29.96,5.53 C 29.78,5.48 29.6,5.43 29.4,5.4 C 29.2,5.37 28.97,5.36 28.75,5.37 z" id="p3254" style="fill:#e4686a;fill-opacity:0.36;fill-rule:evenodd;stroke:none"/>
<path d="M 36.71,8.93 C 37.29,14.04 37.47,21.7 36.93,24.4 C 36.4,27.05 34.63,35.76 33.43,40.59 C 34.61,39.76 35.66,38.7 36.15,37.4 C 37.13,34.8 36.84,33.17 37.46,31.21 C 37.79,30.17 38.84,28.69 39.93,25.25 C 41.38,20.67 41.75,14.71 40.71,12.5 C 39.74,10.42 37.38,9.19 36.71,8.93 z" id="p3252" style="fill:#e4686a;fill-opacity:0.36;fill-rule:evenodd;stroke:none"/>
<path d="M 17.26,12.36 C 13.75,14.16 12.94,19.18 12.94,22.2 C 12.94,25.21 14.15,29.12 15.15,29.42 C 16.16,29.72 20.67,30.03 20.07,32.03 C 19.47,34.04 14.65,33.04 14.45,34.44 C 14.25,35.85 14.15,37.55 15.76,39.16 C 17.36,40.77 21.48,41.67 22.88,41.37 C 24.29,41.07 27,33.54 26.2,31.23 C 25.39,28.92 21.68,28.82 22.38,26.11 C 23.08,23.4 25.19,22.6 23.49,20.69 C 21.78,18.78 20.47,18.78 20.47,20.29 C 20.47,21.79 21.58,26.11 20.17,26.11 C 18.77,26.11 16.26,24.3 17.36,21.39 C 18.47,18.48 19.67,15.97 19.67,15.97 C 19.67,15.97 19.77,13.26 18.57,12.66 C 17.36,12.06 17.26,12.46 17.26,12.36 z" id="p3303" style="fill:#da2a1c;fill-opacity:0.51;fill-rule:evenodd;stroke:none;display:inline"/>
<path d="M 18.12,4.9 C 15.8,5.03 12.75,5.98 9.09,9.43 C 8.76,9.82 8.49,10.26 8.25,10.75 L 8.46,12.21 C 8.23,14.27 8.45,16.12 8.75,16.12 C 9.04,16.12 10.57,11.7 11.28,11.93 C 11.98,12.17 12.36,12.65 12.18,13.18 C 12.01,13.71 10.28,16.75 10.28,17.28 C 10.28,17.81 10.81,16.41 11.34,16.53 C 11.87,16.64 11.6,20.89 11.71,21.65 C 11.83,22.42 13.05,14.88 14.46,15.46 C 15.88,16.05 20.03,17.68 20.44,18.27 C 20.85,18.86 19.01,23.11 20.53,23.46 C 25.87,24.71 25.28,20.22 26.28,20.4 C 27.28,20.58 28.58,21.06 28.93,21.59 C 29.29,22.12 29.65,23.93 30.18,23.87 C 30.71,23.81 31.78,21.17 32.78,21.46 C 33.78,21.76 38.64,22.94 40,19.59 C 40.42,18.55 40.83,17.07 41.25,15.53 C 41.19,14.26 41.04,13.19 40.71,12.5 C 39.67,10.28 37.01,8.97 36.56,8.84 C 36.1,8.71 34.54,7.23 33.43,6.78 C 32.33,6.32 31.03,5.66 29.4,5.4 C 27.78,5.14 25.23,6.49 24.78,6.5 C 24.32,6.5 23.87,5.6 21.53,5.21 C 20.65,5.07 19.51,4.83 18.12,4.9 z" id="p3240" style="fill:#c40002;fill-opacity:0.77;fill-rule:evenodd;stroke:none"/>
<path d="M 27.94,18.46 C 27.71,19.45 26.23,19.95 24.64,19.57 C 23.04,19.19 21.94,18.09 22.18,17.09 C 22.41,16.10 23.90,15.61 25.49,15.98 C 27.08,16.36 28.18,17.47 27.94,18.46 z" id="p3242" style="fill:#ffdfe0;fill-opacity:0.68;fill-rule:evenodd;stroke:none;marker:none;visibility:visible;display:inline;overflow:visible;enable-background:accumulate"/>
<path d="M 19.61,16.79 C 18.97,19.72 19.36,23.79 19.74,25.2 C 20.12,26.6 20.76,32.97 21.65,31.69 C 22.54,30.42 22.79,25.32 24.2,24.18 C 25.6,23.03 27.89,21.76 28.4,20.61 C 28.91,19.46 30.18,16.41 27.25,15.77 C 24.32,15.13 19.99,15.9 19.61,16.79 z" id="p3327" style="fill:#c60d0d;fill-opacity:0.41;fill-rule:evenodd;stroke:none;display:inline"/>
<path d="M 30.12,19.02 C 30.12,20.02 29.81,20.83 29.44,20.83 C 29.06,20.83 28.76,20.02 28.76,19.02 C 28.76,18.01 29.06,17.20 29.44,17.20 C 29.81,17.20 30.12,18.01 30.12,19.02 L 30.12,19.02 z" id="p3244" style="fill:#ffdfe0;fill-opacity:0.68;fill-rule:evenodd;stroke:none;marker:none;visibility:visible;display:inline;overflow:visible;enable-background:accumulate"/>
<path d="M 36.35,19.02 C 36.08,20.24 34.60,20.94 33.06,20.59 C 31.51,20.23 30.48,18.97 30.76,17.75 C 31.03,16.54 32.51,15.84 34.05,16.19 C 35.60,16.54 36.63,17.81 36.35,19.02 z" id="p3246" style="fill:#ffdfe0;fill-opacity:0.68;fill-rule:evenodd;stroke:none;marker:none;visibility:visible;display:inline;overflow:visible;enable-background:accumulate"/>
<path d="M 9.09,29.78 C 9.12,30.09 9.12,30.33 9.15,30.68 C 9.48,34.19 11.96,37.13 12.93,37.71 C 13.91,38.3 15.54,40.63 16.9,41.09 C 18.27,41.54 18.41,42.13 20.5,42.71 C 22.58,43.3 25.03,42.65 25.62,42.65 C 26.21,42.65 27.28,43.46 29.96,42.4 C 31.89,41.64 35.18,40 36.15,37.4 C 36.87,35.49 36.91,34.12 37.12,32.75 C 34.96,36.21 32.6,39.55 31.53,40.43 C 29.54,42.05 23.6,42.06 20,41.34 C 17.23,40.79 12.47,34.8 9.09,29.78 z" id="p3250" style="fill:#e4686a;fill-opacity:0.47;fill-rule:evenodd;stroke:none"/>
<path d="M 18.12,4.9 C 15.8,5.03 12.75,5.98 9.09,9.43 C 7.64,11.15 7.08,13.88 7.09,16.65 C 7.44,15.85 7.76,14.89 7.9,13.87 C 7.9,12.55 10.25,8.96 11.78,8.96 C 13.3,8.96 15.03,9.66 16.62,10.56 C 18.21,11.46 19.62,12.5 19.62,13.06 C 19.62,13.61 20.31,13.53 20.31,13.53 L 20.81,13.4 C 20.81,13.4 18.98,10.84 16.56,9.53 C 14.13,8.21 16.08,9.09 15.87,8.75 C 15.66,8.4 13.18,8.05 13.18,7.5 C 13.18,6.94 17.32,5.64 19.12,5.78 C 20.92,5.91 23.22,6.38 24.12,6.87 C 25.02,7.36 27.32,6.06 28.5,6.06 C 29.67,6.06 32.71,7.3 33.75,8 C 34.78,8.69 35.2,8.77 34.71,9.18 C 34.23,9.6 34.45,10.21 33.68,10.9 C 32.92,11.59 30.36,13.19 30.5,13.46 C 30.63,13.74 30.84,14.03 30.84,14.03 C 30.84,14.03 33.08,13.34 34.12,12.71 C 35.16,12.09 35.55,10.78 35.9,10.78 C 36.25,10.78 38.82,10.82 39.65,11.93 C 40.48,13.04 40.69,14.44 40.62,15.28 C 40.55,16.11 40.56,18.18 40.56,18.18 C 40.56,18.18 40.66,19.69 40.84,21.46 C 41.48,17.81 41.48,14.13 40.71,12.5 C 39.67,10.28 37.01,8.97 36.56,8.84 C 36.1,8.71 34.54,7.23 33.43,6.78 C 32.33,6.32 31.03,5.66 29.4,5.4 C 27.78,5.14 25.23,6.49 24.78,6.5 C 24.32,6.5 23.87,5.6 21.53,5.21 C 20.65,5.07 19.51,4.83 18.12,4.9 z" id="p3281" style="fill:#ffb1b3;fill-opacity:0.68;fill-rule:evenodd;stroke:none;display:inline"/>
<path d="M 13.35,8.54 C 11.14,9.25 9.53,10.15 10.64,10.95 C 11.74,11.76 11.44,13.96 12.34,13.36 C 13.25,12.76 14.35,11.96 15.35,12.36 C 16.36,12.76 18.27,12.06 19.47,12.36 C 20.67,12.66 23.99,12.96 24.69,12.16 C 25.39,11.35 24.09,7.94 23.28,6.84 C 22.48,5.73 17.26,5.13 15.25,6.13 C 13.25,7.14 15.25,7.64 15.86,8.34 C 16.46,9.05 14.55,8.54 13.35,8.54 z" id="p3309" style="fill:#810000;fill-opacity:0.31;fill-rule:evenodd;stroke:none;display:inline"/>
<path d="M 19.27,7.58 C 18.16,8.62 18.44,9.1 19.2,9.93 C 19.96,10.76 20.86,12.15 20.86,12.15 L 23.64,11.67 C 23.64,11.67 23.57,9.52 23.01,8.55 C 22.46,7.58 22.11,7.09 21.56,7.09 C 21,7.09 19.2,7.51 19.27,7.58 z" id="p3283" style="fill:#ffbdbe;fill-opacity:0.58;fill-rule:evenodd;stroke:none;display:inline"/>
<path d="M 16.96,11.9 C 14.95,11.93 12.78,12.91 11.93,15.34 C 10.96,18.11 11.93,16.53 11.93,16.53 C 12.56,15.35 13.98,13.27 16,13.34 C 18.01,13.41 19.12,14.79 20.43,15 C 21.75,15.2 25.92,15.13 27.03,15.62 C 28.14,16.11 29.18,16.87 29.18,16.87 C 29.18,16.87 29.47,15.62 30.37,15.62 C 31.27,15.62 33.91,15.77 34.81,15.84 C 35.71,15.91 36.75,16.51 37.03,16.37 C 37.3,16.23 36.46,15.28 36.46,15.28 C 36.46,15.28 37.65,15.21 38.34,15.56 C 39.03,15.9 40.5,17.76 40.5,18.53 C 40.49,19.04 40.61,20.77 40.71,22.06 C 41,20.57 41.17,19.07 41.25,17.68 C 40.75,16.8 39.91,15.43 39.15,14.87 C 38.11,14.11 36.46,13.32 35.21,13.53 C 33.97,13.73 32.65,14.59 32.65,14.59 C 32.65,14.59 31.13,14.59 30.09,14.87 C 29.05,15.15 28.68,15.84 28.68,15.84 C 28.68,15.84 26.75,14.65 25.09,14.37 C 23.42,14.09 22.18,14.38 21.9,14.25 C 21.62,14.11 20.03,12.21 17.81,11.93 C 17.53,11.9 17.25,11.9 16.96,11.9 z" id="p3279" style="fill:#ffbdbe;fill-opacity:0.86;fill-rule:evenodd;stroke:none;display:inline"/>
<path d="M 31.61,8.34 C 32.65,8.69 32.79,10.28 32.09,10.9 C 31.4,11.53 30.15,14.02 30.15,14.02 L 27.66,12.29 C 27.66,12.29 28.21,9.31 29.39,8.69 C 30.57,8.06 31.61,8.48 31.61,8.34 z" id="p3285" style="fill:#ffbdbe;fill-opacity:0.58;fill-rule:evenodd;stroke:none;display:inline"/>
<path d="M 8.06,11.15 C 6.73,14.21 6.89,18.66 7.81,22 C 8.91,26.03 8.83,27.17 9.15,30.68 C 9.38,33.11 10.64,35.24 11.71,36.53 C 10.52,33.35 9.88,29.28 9.78,28.25 C 9.64,26.86 8.67,22.06 8.46,21.09 C 8.29,20.26 8.11,14.16 8.06,11.15 z" id="p3287" style="fill:#ffd9da;fill-opacity:0.58;fill-rule:evenodd;stroke:none;display:inline"/>
<path d="M 11.9,15.96 C 11.12,16.08 10.12,18.34 10.03,19.09 C 9.93,19.89 10.43,23.09 10.43,24.5 C 10.43,25.9 10.65,30.23 11.15,32.34 C 11.33,33.08 11.92,35.18 12.59,37.46 C 12.71,37.57 12.84,37.66 12.93,37.71 C 13.19,37.87 13.51,38.16 13.84,38.5 C 12.9,35.56 12.04,32.77 11.84,31.93 C 11.34,29.82 11.75,27.21 11.75,25.81 C 11.75,24.4 11.53,22.41 11.53,21.31 C 11.53,20.2 11.73,17.67 12.03,15.96 C 11.98,15.95 11.95,15.96 11.9,15.96 z" id="p3307" style="fill:#fad2d2;fill-opacity:0.38;fill-rule:evenodd;stroke:none;display:inline"/>
<path d="M 14.25,11.55 C 14.45,12.56 16.36,12.56 16.36,12.56 L 17.86,12.16 C 17.86,12.16 16.26,10.85 15.55,10.75 C 14.85,10.65 14.25,10.95 14.25,11.55 z" id="p3315" style="fill:#ffd7d7;fill-opacity:0.67;fill-rule:evenodd;stroke:none;display:inline"/>
<path d="M 21.48,16.57 C 21.38,17.48 21.78,18.98 23.08,19.18 C 24.39,19.39 24.89,19.89 25.79,19.69 C 26.7,19.49 27.2,18.98 28.1,19.49 C 29.01,19.99 29.21,20.59 29.61,20.49 C 30.01,20.39 29.91,19.49 30.61,19.49 C 31.32,19.49 31.32,20.79 33.32,20.79 C 35.33,20.79 36.54,20.89 36.84,20.09 C 37.14,19.28 36.84,16.57 33.42,16.57 C 30.01,16.57 31.11,18.28 30.51,18.18 C 29.91,18.08 29.21,17.18 29.21,17.18 C 29.21,17.18 29.01,18.58 28.6,18.28 C 28.2,17.98 27.7,16.27 26.6,16.07 C 25.49,15.87 21.48,15.67 21.48,16.57 z" id="p3317" style="fill:#f7e7be;fill-opacity:0.36;fill-rule:evenodd;stroke:none;display:inline"/>
<path d="M 36.84,12.66 C 36.54,13.16 37.04,13.26 37.54,13.36 C 38.04,13.46 38.74,13.06 37.54,12.46 C 36.33,11.86 36.74,12.06 36.84,12.66 z" id="p3319" style="fill:#fad2d2;fill-opacity:0.62;fill-rule:evenodd;stroke:none;display:inline"/>
<path d="M 29.71,18.06 C 29.51,18.12 29.17,19.16 28.4,22.28 C 26.87,28.52 27.13,35.12 26.37,36.78 C 25.75,38.11 22.98,40.68 20,42.56 C 20.15,42.61 20.31,42.66 20.5,42.71 C 22.51,43.28 24.85,42.69 25.53,42.65 C 26.31,39.96 27.44,35.97 28.28,30.93 C 29.17,25.71 30.56,20.99 30.18,19.59 C 29.99,18.89 29.92,17.99 29.71,18.06 z" id="p3329" style="fill:#fcc6c6;fill-opacity:0.18;fill-rule:evenodd;stroke:none;display:inline"/>
<path d="M 41.31,16.37 C 38.52,25.66 39.31,24.67 38.71,26.21 C 38.08,27.87 36.69,29.92 36.18,32.21 C 35.81,33.88 35.04,37.41 34.4,39.81 C 35.16,39.12 35.81,38.32 36.15,37.4 C 37.13,34.8 36.84,33.17 37.46,31.21 C 37.79,30.17 38.84,28.69 39.93,25.25 C 40.82,22.42 41.31,19.04 41.31,16.37 z" id="p3331" style="fill:#fcc6c6;fill-opacity:0.56;fill-rule:evenodd;stroke:none;display:inline"/>
<path d="M 9.1,9.43 C 14.95,3.9 19.18,4.81 21.52,5.2 C 23.86,5.59 24.32,6.5 24.77,6.5 C 25.23,6.5 27.77,5.14 29.39,5.4 C 31.02,5.66 32.32,6.31 33.42,6.76 C 34.53,7.22 36.09,8.71 36.55,8.84 C 37,8.97 39.67,10.27 40.71,12.48 C 41.75,14.7 41.37,20.66 39.93,25.23 C 38.84,28.68 37.79,30.17 37.46,31.22 C 36.84,33.18 37.13,34.79 36.16,37.39 C 35.18,40 31.9,41.64 29.98,42.4 C 27.29,43.46 26.2,42.66 25.62,42.66 C 25.03,42.66 22.56,43.31 20.48,42.73 C 18.4,42.14 18.27,41.56 16.9,41.1 C 15.54,40.65 13.91,38.3 12.94,37.72 C 11.96,37.13 9.49,34.21 9.17,30.7 C 8.84,27.18 8.91,26.01 7.8,21.98 C 6.69,17.95 6.69,12.29 9.1,9.43 z" id="stroke01" style="fill:none;fill-opacity:1;fill-rule:evenodd;stroke:#3b0f09;stroke-width:0.5;stroke-linecap:butt;stroke-linejoin:miter;stroke-miterlimit:4;stroke-dasharray:none;stroke-opacity:1;display:inline"/>
<path d="M 20.23,12.77 C 20.16,12.05 20.51,10.76 20.51,10.76 L 21.16,10.97 C 21.16,10.97 23.96,10.33 24.68,10.33 C 25.39,10.33 25.11,10.47 25.11,10.47 C 25.11,10.47 26.54,8.32 27.26,7.75 C 27.98,7.17 31.78,4.8 32.28,4.8 C 32.78,4.8 33.57,4.8 33.57,4.8 C 33.57,4.8 34.07,4.88 34.22,5.66 C 34.36,6.45 34.36,7.39 34.22,7.53 C 34.07,7.67 31.71,8.53 30.99,9.4 C 30.27,10.26 29.05,11.55 29.05,11.55 C 29.05,11.55 29.77,11.83 29.99,12.12 C 30.2,12.41 30.99,13.2 31.2,13.63 C 31.42,14.06 32.35,13.92 32.14,14.27 C 31.92,14.63 30.77,14.7 30.13,14.85 C 29.48,14.99 28.62,15.78 28.62,15.78 C 28.62,15.78 26.76,14.99 26.04,14.7 C 25.32,14.42 23.1,14.56 22.6,14.42 C 22.09,14.27 20.16,12.7 20.23,12.77 z" id="p3342" style="fill:#92ab0f;fill-opacity:1;fill-rule:evenodd;stroke:none;display:inline"/>
<path d="M 32.28,4.81 C 31.77,4.81 27.96,7.17 27.25,7.75 C 26.59,8.27 25.47,9.92 25.25,10.25 C 24.83,11.04 24.28,12.12 24.28,12.12 C 24.28,12.12 22.35,12.71 23.28,13.4 C 23.67,13.7 24.09,14.12 24.46,14.5 C 25.1,14.52 25.71,14.59 26.03,14.71 C 26.14,14.76 26.28,14.81 26.43,14.87 L 26.59,13.4 C 26.59,13.4 28.04,13.48 28.81,12.87 C 29.21,12.55 29.43,12.14 29.56,11.81 C 29.3,11.66 29.06,11.56 29.06,11.56 C 29.06,11.56 30.28,10.26 31,9.4 C 31.71,8.54 34.07,7.67 34.21,7.53 C 34.27,7.47 34.33,7.27 34.34,7.03 C 34.09,7.1 32.33,7.66 31.18,8.59 C 29.95,9.59 28.06,11.71 28.06,11.71 C 28.06,11.71 27.13,12.19 26.59,11.5 C 28.04,9.39 32.03,6.19 34.21,5.65 C 34.07,4.86 33.56,4.81 33.56,4.81 C 33.56,4.81 32.78,4.81 32.28,4.81 z" id="p3351" style="fill:#566317;fill-opacity:0.4;fill-rule:evenodd;stroke:none;display:inline"/>
<path d="M 24.68,10.34 C 23.97,10.34 21.15,10.96 21.15,10.96 L 20.53,10.75 C 20.53,10.75 20.45,11.02 20.4,11.21 C 21.58,11.99 23.06,12.96 23.06,12.96 L 24.43,11.96 L 25.15,10.4 C 25.13,10.37 25.04,10.34 24.68,10.34 z" id="p3355" style="fill:#292f0b;fill-opacity:0.57;fill-rule:evenodd;stroke:none;display:inline"/>
<path d="M 26.51,13.42 L 26.66,14.57 C 26.66,14.57 28.04,15.11 28.2,14.72 C 28.35,14.34 28.12,13.03 28.12,13.03 L 26.51,13.42 z" id="p3357" style="fill:#cfdd8b;fill-opacity:0.55;fill-rule:evenodd;stroke:none;display:inline"/>
<path d="M 33.62,4.84 C 32.94,5.14 30.99,6 30.28,6.65 C 29.43,7.42 28.5,8.5 28.65,8.5 L 29.9,9.81 L 31.65,8.43 L 30.5,7.34 L 31.18,6.81 L 31.59,7.43 L 34.28,6.15 C 34.26,5.99 34.24,5.81 34.21,5.65 C 34.1,5 33.74,4.88 33.62,4.84 z" id="p3359" style="fill:#c9dd68;fill-opacity:0.38;fill-rule:evenodd;stroke:none;display:inline"/>
<path d="M 24.35,12.03 C 24.2,12.49 23.97,12.95 23.97,12.95 L 24.59,13.57 L 24.12,14.03 C 24.12,14.03 22.66,13.57 22.74,13.11 C 22.82,12.65 24.12,11.96 24.35,12.03 z" id="p3367" style="fill:#b5bf86;fill-opacity:0.55;fill-rule:evenodd;stroke:none;display:inline"/>
<path d="M 29.25,11.62 L 28.75,12.56 C 28.9,13.33 29.43,13.71 29.43,13.71 L 30.43,12.71 L 30.43,12.62 C 30.26,12.42 30.07,12.22 30,12.12 C 29.83,11.9 29.45,11.71 29.25,11.62 z" id="p3369" style="fill:#414d06;fill-opacity:0.52;fill-rule:evenodd;stroke:none;display:inline"/>
<path d="M 20.43,11.18 C 20.33,11.6 20.16,12.27 20.21,12.78 C 20.16,12.72 21.34,13.67 22.09,14.15 L 21.53,12.71 L 22.06,12.34 C 22.06,12.34 21.26,11.74 20.43,11.18 z" id="p3371" style="fill:#c4cd9c;fill-opacity:0.36;fill-rule:evenodd;stroke:none;display:inline"/>
<path d="M 25.78,9.53 C 25.45,9.98 25.18,10.36 25.15,10.4 C 25.14,10.38 25.13,10.35 25.06,10.34 C 24.87,10.74 24.65,11.27 24.65,11.56 C 24.65,11.99 25.3,12.21 26.06,12.81 C 26.81,13.4 27.99,12.96 28.37,12.96 C 28.72,12.96 29.16,11.78 29.21,11.62 C 29.16,11.6 29.06,11.56 29.06,11.56 C 29.06,11.56 29.37,11.22 29.78,10.78 C 29.13,10.87 27.73,11.17 27.12,11.03 C 26.58,10.9 26.31,10.41 25.78,9.53 z" id="p3409" style="fill:#414d06;fill-opacity:0.18;fill-rule:evenodd;stroke:none"/>
<path d="M 20.23,12.77 C 20.16,12.05 20.51,10.76 20.51,10.76 L 21.16,10.97 C 21.16,10.97 23.96,10.33 24.68,10.33 C 25.39,10.33 25.11,10.47 25.11,10.47 C 25.11,10.47 26.54,8.32 27.26,7.75 C 27.98,7.17 31.78,4.8 32.28,4.8 C 32.78,4.8 33.57,4.8 33.57,4.8 C 33.57,4.8 34.07,4.88 34.22,5.66 C 34.36,6.45 34.36,7.39 34.22,7.53 C 34.07,7.67 31.71,8.53 30.99,9.4 C 30.27,10.26 29.05,11.55 29.05,11.55 C 29.05,11.55 29.77,11.83 29.99,12.12 C 30.2,12.41 30.99,13.2 31.2,13.63 C 31.42,14.06 32.35,13.92 32.14,14.27 C 31.92,14.63 30.82,14.7 30.18,14.85" id="stroke02" style="fill:none;fill-opacity:1;fill-rule:evenodd;stroke:#092800;stroke-width:0.5;stroke-linecap:round;stroke-linejoin:miter;stroke-miterlimit:4;stroke-dasharray:none;stroke-opacity:1;display:inline"/>
<path d="M 35.21,13.67 C 33.97,13.88 32.65,14.73 32.65,14.73 C 32.65,14.73 31.13,14.74 30.09,15.01 C 29.05,15.29 28.68,15.98 28.68,15.98 C 28.68,15.98 26.75,14.79 25.09,14.51 C 23.42,14.24 22.18,14.53 21.9,14.39 C 21.62,14.25 20.03,12.35 17.81,12.08" id="p3346" style="fill:none;fill-opacity:1;fill-rule:evenodd;stroke:#fdc1b8;stroke-width:0.40;stroke-linecap:round;stroke-linejoin:miter;stroke-miterlimit:4;stroke-dasharray:none;stroke-opacity:1;display:inline"/>
</g>
</svg>
