<?xml version="1.0" encoding="UTF-8" standalone="no"?>
<!DOCTYPE svg PUBLIC "-//W3C//DTD SVG 1.0//EN" "http://www.w3.org/TR/2001/REC-SVG-20010904/DTD/svg10.dtd">
<svg xmlns:svg="http://www.w3.org/2000/svg" xmlns="http://www.w3.org/2000/svg" version="1.0" width="100%" height="100%" viewBox="0 0 48 48" id="_pistachio01">
<defs/>
<g id="layer2">
<path d="M 24.03,7.22 C 24.27,4.95 21.27,3.25 16.82,5.27 12.37,7.30 8.65,11.18 8.57,15.55 c -0.80,1.37 -0.89,2.83 0,3.31 2.18,4.28 5.74,4.77 8.33,3.80 2.58,-0.97 6.95,-4.53 7.84,-7.36 0.89,-2.83 1.13,-5.34 0.16,-6.23 -0.32,-0.80 -0.56,-1.69 -0.89,-1.86 z" id="path3060-9" style="fill:#d5b876" />
<path d="M 21.28,5.43 C 19.86,5.78 18.42,5.92 16.96,6 c -1.33,0.13 -2.67,0.67 -3.56,1.71 -1.93,1.75 -3.73,3.96 -4.15,6.62 -0.52,1.11 1.01,0.90 1.5,0.37 0.65,-0.39 0.86,-1.19 1.46,-1.65 1.12,-1.04 2.64,-1.54 4,-2.21 0.95,-0.41 1.90,-0.78 2.87,-1.15 -1.60,0.99 -3.42,1.66 -4.93,2.81 -1.27,0.65 -2.28,1.70 -3.43,2.53 C 9.94,15.48 9.09,15.74 8.28,16.12 8.13,16.47 8.05,16.83 8,17.15 8.33,17.04 8.69,16.84 8.93,16.81 c 0.41,0.07 0.42,0.66 0.96,0.34 1.00,-0.42 1.39,-1.59 2.40,-2.03 1.19,-0.64 2.55,-0.95 3.59,-1.87 1.26,-0.95 2.51,-2.00 4.06,-2.43 0.52,-0.18 1.47,-1.13 1.71,-0.90 -1.74,2.73 -4.26,5.08 -7.37,6.12 -1.61,0.64 -3.15,1.45 -4.68,2.28 0.07,0.82 1.19,0.22 1.71,0.18 2.27,-0.29 4.45,-1.08 6.56,-1.96 2.24,-0.89 4.42,-2.22 5.81,-4.25 C 24.35,11.33 24.84,10.26 24.93,9.12 24.93,9.10 24.90,9.10 24.90,9.09 24.86,8.98 24.82,8.88 24.78,8.78 24.41,8.36 23.53,8.69 23.25,9.15 c -0.53,1.05 -0.54,2.39 -1.46,3.25 -1.31,1.45 -3.18,2.15 -4.93,2.90 C 19.29,13.79 21.51,11.73 22.81,9.12 21.89,8.55 23.47,8.51 23.78,8.06 24.23,7.88 24.41,7.22 23.75,7.40 c -0.44,0.33 -1.13,0.41 -1.37,0 -0.85,0.58 -1.68,1.27 -2.71,1.53 -2.45,0.91 -4.90,1.92 -7.18,3.21 -0.90,0.68 -1.43,1.73 -2.37,2.37 -0.61,-0.56 0.56,-1.41 0.68,-2.06 1.11,-1.72 2.95,-2.80 4.75,-3.71 1.79,-0.85 3.75,-1.26 5.5,-2.21 0.33,-0.22 0.92,-0.87 0.25,-1.09 z m -0.43,0.59 C 19.50,6.92 17.88,7.18 16.43,7.84 14.58,8.60 12.78,9.59 11.34,11 11.11,11.27 10.44,12.10 10.93,11.34 12.03,9.65 13.42,8.10 15.12,7 16.92,6.16 18.98,6.60 20.84,6.03 z M 24.37,9 c 0.04,1.35 -0.75,2.55 -1.53,3.59 -1.94,2.36 -4.91,3.48 -7.71,4.46 -0.97,0.31 -1.96,0.55 -2.96,0.75 2.42,-1.12 4.93,-2.06 7.37,-3.15 1.65,-0.81 3.33,-2.09 3.71,-4 C 23.30,9.96 23.67,9.22 24.37,9 z m -8.28,3.12 c -0.46,0.20 -1.44,0.99 -1.62,0.84 0.45,-0.41 1.06,-0.61 1.62,-0.84 z M 10.53,16 c -0.06,0.42 -1.13,0.74 -0.37,0.18 0.11,-0.08 0.25,-0.10 0.37,-0.18 z" id="path3953" style="font-size:medium;font-style:normal;font-variant:normal;font-weight:normal;font-stretch:normal;text-indent:0;text-align:start;text-decoration:none;line-height:normal;letter-spacing:normal;word-spacing:normal;text-transform:none;direction:ltr;block-progression:tb;writing-mode:lr-tb;text-anchor:start;baseline-shift:baseline;color:#000000;fill:#c79e5d;fill-opacity:0.47;stroke-width:0.5;font-family:Sans;-inkscape-font-specification:Sans" />
<path d="m 34.62,9.56 c -1.61,-1.61 -1.94,-0.72 -2.26,0 -3.47,1.94 -3.96,6.63 -3.15,12.29 0.80,5.66 6.23,5.66 6.63,5.74 0.16,0.48 1.53,0.64 2.26,0.16 4.93,-0.72 6.55,-3.15 6.14,-8.57 -0.40,-5.42 -2.42,-9.22 -4.53,-9.79 -0.56,-0.89 -0.97,-1.45 -1.69,0.16 -1.37,-1.94 -2.83,-0.56 -3.39,0 z" id="path3062-6" style="fill:#ddc38a" />
<path d="m 39.59,9.28 c -0.67,1.23 0.69,2.55 0.25,3.90 0.03,0.53 0.12,2.69 -0.18,1.06 -0.20,-0.81 -1.12,-3.07 -1.96,-2.21 0.47,1.28 1.63,2.28 1.46,3.84 0.19,2.19 -0.66,4.29 -1.46,6.28 1.06,1.10 1.55,-1.57 2.06,-2.37 0.95,-2.05 1.21,-4.35 0.93,-6.59 0.23,-0.66 0.45,1.57 0.43,2.06 -0.15,2.44 0.47,5.09 -0.68,7.37 -0.22,1.29 -3.44,1.70 -2.28,3 0.07,-0.02 0.12,-0.06 0.18,-0.09 -0.09,0.42 -0.32,0.82 -0.65,1.09 -0.20,0.19 -0.65,0.37 -0.43,0.71 0.25,0.27 0.46,-0.18 0.75,0 0.40,0.02 0.81,-0.14 1.21,0 0.56,-0.14 1.00,-0.55 1.56,-0.71 0.38,-0.23 0.83,-0.42 1.12,-0.78 0.42,-0.33 0.91,-0.63 1.18,-1.12 0.34,-0.50 0.71,-1.00 0.96,-1.56 0.04,-0.20 0.09,-0.40 0.12,-0.62 -0.07,-0.02 -0.16,-0.03 -0.21,0.09 0.02,0.17 -0.37,0.71 -0.18,0.28 0.14,-0.40 0.32,-0.79 0.5,-1.18 0.01,-0.23 0.02,-0.47 0.03,-0.71 -0.14,0.08 -0.25,0.34 -0.34,0.46 -0.70,0.81 -1.34,1.71 -1.75,2.71 0.03,-0.11 0.11,-0.35 0.12,-0.40 0.23,-0.67 0.40,-1.34 0.40,-2.06 0.02,-0.23 0.24,-0.68 0,-0.84 0.39,-1.81 0.76,-3.64 0.90,-5.5 -0.40,-1.58 -0.98,-2.93 -1.62,-3.93 0.15,1.73 0.76,3.41 0.62,5.18 0.03,0.53 -0.30,2.07 -0.21,0.68 -0.04,-1.86 0.16,-4.09 -1.25,-5.53 C 40.53,11.20 40.58,10.03 40,9.5 39.91,9.46 39.80,9.43 39.71,9.40 39.69,9.37 39.67,9.34 39.65,9.31 39.63,9.30 39.61,9.28 39.59,9.28 z m 0.12,8.21 c 0.03,0.09 -0.13,0.03 0,0 z m 3.93,4.90 c -0.31,0.76 -0.47,1.67 -1.18,2.18 -0.20,0.04 0.08,-0.34 0.12,-0.46 0.26,-0.62 0.62,-1.19 1.06,-1.71 z m -1.56,1.12 c -0.24,0.64 -0.61,1.22 -1.12,1.68 -0.10,0.15 -0.40,0.33 -0.21,0 0.22,-0.46 0.57,-0.89 0.78,-1.37 0.21,-0.03 0.41,-0.11 0.56,-0.31 z m -1.12,0.40 c -0.22,0.59 -0.47,1.18 -0.78,1.75 -0.17,0.49 -0.67,0.78 -1.12,1 -0.23,0.18 -0.80,0.51 -0.90,0.25 0.31,-0.25 0.52,-0.61 0.65,-1 0.60,1.45 1.65,-0.70 1.71,-1.59 0.05,-0.27 0.22,-0.35 0.43,-0.40 z m 0.71,0.90 c -0.02,0.51 -0.51,0.80 -0.87,1.09 -0.10,0.11 -0.40,0.17 -0.15,-0.03 0.35,-0.35 0.72,-0.67 1.03,-1.06 z m -1.65,1.71 c 0.42,-0.03 -0.48,0.34 -0.06,0.03 l 0.06,-0.03 z" id="path4220" style="font-size:medium;font-style:normal;font-variant:normal;font-weight:normal;font-stretch:normal;text-indent:0;text-align:start;text-decoration:none;line-height:normal;letter-spacing:normal;word-spacing:normal;text-transform:none;direction:ltr;block-progression:tb;writing-mode:lr-tb;text-anchor:start;baseline-shift:baseline;color:#000000;fill:#c79e5d;fill-opacity:0.47;stroke-width:0.5;font-family:Sans;-inkscape-font-specification:Sans" />
<path d="m 44.06,17.43 c -2.29,7.57 -12.17,5.88 -15.15,1.28 0.04,1.00 0.15,2.06 0.31,3.15 0.80,5.66 6.22,5.66 6.62,5.75 0.16,0.48 1.52,0.64 2.25,0.15 4.93,-0.72 6.56,-3.17 6.15,-8.59 -0.04,-0.61 -0.10,-1.18 -0.18,-1.75 z" id="path4211" style="fill:#7c6213;fill-opacity:0.13" />
<path d="m 24.18,13.28 c -6.23,7.36 -14.81,8.99 -15.62,2.43 -0.00,-0.04 -0.02,-0.07 -0.03,-0.12 -0.78,1.36 -0.85,2.80 0.03,3.28 1.04,2.05 2.42,3.21 3.84,3.78 4.18,-0.24 6.92,-2.29 8.87,-4.03 2.54,-2.95 2.72,-4.00 2.90,-5.34 z" id="path3878" style="fill:#7e5422" />
<path d="m 19,4.53 c -0.67,0.14 -1.38,0.39 -2.15,0.75 -4.45,2.02 -8.20,5.91 -8.28,10.28 -0.80,1.37 -0.89,2.82 0,3.31 1.38,2.72 3.35,3.89 5.25,4.15 -0.55,-0.79 -1.32,-1.68 -2.56,-2.87 0.97,0.08 0.95,0.10 2.65,-0.62 C 7.35,16.17 12.99,7.75 19,4.53 z" id="path3880" style="fill:#736a39;fill-opacity:0.20" />
<path d="m 20.53,4.37 c -1.05,0.00 -2.29,0.27 -3.68,0.90 -4.45,2.02 -8.20,5.91 -8.28,10.28 -0.80,1.37 -0.89,2.82 0,3.31 0.76,1.49 1.72,2.51 2.71,3.18 C 11.08,15.34 18.41,3.10 23.71,5.84 23.20,4.97 22.09,4.37 20.53,4.37 z" id="path3886" style="fill:#5f4d16;fill-opacity:0.09" />
<path d="m 22.65,7.71 c -2.19,-0.43 -5.64,1.94 -5.71,3.32 -0.06,1.38 -0.12,2.00 -1.44,2.32 -1.31,0.31 -0.87,2.51 2.07,1.31 2.94,-1.19 2.57,-1.75 2.69,-3.76 0.12,-2.00 1.88,-1.00 2.76,-1.25 0.87,-0.25 0.94,-1.75 -0.37,-1.94 z" id="path3888" style="fill:#e7f287;fill-opacity:0.31" />
<path d="m 18.46,11.06 c -0.31,-3.46e-4 -0.64,0.06 -0.96,0.21 -0.86,0.42 -1.30,1.27 -1,1.90 0.30,0.62 1.22,0.79 2.09,0.37 0.86,-0.42 1.33,-1.27 1.03,-1.90 -0.19,-0.39 -0.63,-0.59 -1.15,-0.59 z" id="path3911" style="color:#000000;fill:#f5f5d4;fill-opacity:0.22;stroke-width:0.5" />
<path d="m 11.18,9.37 c -1.57,1.80 -2.58,3.94 -2.62,6.18 -0.80,1.37 -0.89,2.82 0,3.31 1.72,3.38 4.30,4.38 6.59,4.18 -0.71,-0.30 -1.19,-0.63 -0.87,-0.65 0.67,-0.04 1.39,-0.56 2.31,-1.34 -0.82,0.38 -0.48,-0.68 -0.96,-0.25 -0.48,0.43 -1.90,0.98 -2.43,0.84 -0.51,-0.14 -1.90,-1.26 -2,-1.34 0.19,0.04 0.80,0.14 2.59,0.03 2.37,-0.14 3.48,-1.56 1.15,-1.12 C 12.60,19.65 10.82,17.36 10.34,16.25 9.90,15.24 9.24,13.92 11.18,9.37 z" id="path3913" style="color:#000000;fill:#1e1807;fill-opacity:0.14;stroke-width:1px" />
<path d="m 13.58,15.99 c 3.53,-0.32 5.46,-0.96 6.83,-3.13" id="path3987" style="fill:none;stroke:#ebe190;stroke-width:1.70;stroke-opacity:0.37" />
<path d="m 22.68,14.90 c -6.02,5.94 -13.37,6.85 -14.12,0.81 -0.00,-0.04 -0.02,-0.07 -0.03,-0.12 -0.78,1.36 -0.85,2.80 0.03,3.28 1.04,2.05 2.42,3.21 3.84,3.78 0.95,-0.05 1.81,-0.22 2.62,-0.43 0.70,-0.37 1.30,-0.76 1.68,-1.06 2.56,-0.52 5.02,-3.54 5.96,-6.25 z" id="path3989" style="fill:#a27966" />
<path d="m 8.53,15.59 c -0.78,1.36 -0.85,2.80 0.03,3.28 0.47,0.93 1.03,1.65 1.62,2.25 1.14,0.52 2.37,0.77 3.25,0.65 1.21,-0.15 2.55,-1.51 3.65,-2.93 -4.26,1.91 -8.01,1.09 -8.53,-3.12 -0.00,-0.04 -0.02,-0.07 -0.03,-0.12 z" id="path3991" style="fill:#8b8040" />
<path d="m 8.53,15.59 c -0.78,1.36 -0.85,2.80 0.03,3.28 1.04,2.05 2.42,3.21 3.84,3.78 C 12.83,22.63 13.22,22.56 13.62,22.5 13.48,22.00 13.18,21.69 13.01,21.30 12.31,20.99 11.74,20.42 11.37,19.56 9.86,19.05 8.82,17.80 8.56,15.71 8.55,15.67 8.53,15.64 8.53,15.59 z" id="path3993" style="fill:#5c4520;fill-opacity:0.37" />
<path d="m 21.53,15.96 c -0.38,0.33 -0.76,0.64 -1.15,0.93 -0.02,0.03 -0.06,0.03 -0.09,0.06 -0.50,0.57 -0.92,0.93 -1.40,1.34 a 0.35,0.35 0 0 0 0.46,0.53 c 0.68,-0.59 1.31,-1.11 2.21,-2.37 a 0.35,0.35 0 0 0 -0.03,-0.5 z" id="path4028" style="font-size:medium;font-style:normal;font-variant:normal;font-weight:normal;font-stretch:normal;text-indent:0;text-align:start;text-decoration:none;line-height:normal;letter-spacing:normal;word-spacing:normal;text-transform:none;direction:ltr;block-progression:tb;writing-mode:lr-tb;text-anchor:start;baseline-shift:baseline;color:#000000;fill:#6e5245;stroke-width:0.69;font-family:Sans;-inkscape-font-specification:Sans" />
<path d="m 16.19,21.44 c 0.34,-0.04 0.59,-0.14 0.78,-0.34" id="path4055" style="fill:none;stroke:#644f28;stroke-width:0.69;stroke-linecap:round;stroke-opacity:0.45" />
<path d="m 12.83,21.09 c 0,0 0.34,0.19 0.93,-0.34" id="path4057" style="fill:none;stroke:#e6e6e6;stroke-width:1px;stroke-opacity:0.27" />
<path d="m 9.28,17.90 c 0.59,1.46 1.98,2.60 3.5,2.56 1.64,-0.04 3.44,-0.31 5.15,-2 -3.70,1.94 -7.16,1.88 -8.65,-0.56 z" id="path4059" style="fill-opacity:0.36" />
<path d="m 8.57,17.68 c 0.40,1.15 0.86,1.64 1.81,2.54" id="path4064" style="fill:none;stroke:#000000;stroke-width:1.10;stroke-linecap:round;stroke-opacity:0.23" />
<path d="m 33,8.68 c -0.32,0.11 -0.46,0.51 -0.62,0.87 -3.47,1.94 -3.96,6.64 -3.15,12.31 0.80,5.66 6.22,5.66 6.62,5.75 0.16,0.48 1.52,0.64 2.25,0.15 0.11,-0.01 0.23,-0.04 0.34,-0.06 -0.03,-0.59 -1.80,-0.52 -2.21,-0.56 -0.51,-0.04 -1.40,-1.10 -1.87,-1.81 -0.46,-0.70 -1.81,-4.60 -2.37,-8.21 -0.52,-3.39 -0.54,-6.27 1.12,-8.43 -0.02,0.00 -0.06,-0.00 -0.09,0 z" id="path4066" style="color:#000000;fill:#7c6213;fill-opacity:0.35;stroke-width:1px" />
<path d="m 44.21,18.81 c -0.21,1.70 -0.60,3.44 -1.31,4 -1.54,1.22 -2.37,-1.68 -4.71,-1.59 0.14,2.34 0.39,5.24 -0.40,5.90 -0.49,0.40 -1.31,0.36 -1.93,0.5 0.16,0.48 1.52,0.64 2.25,0.15 4.93,-0.72 6.56,-3.17 6.15,-8.59 -0.00,-0.13 -0.01,-0.24 -0.03,-0.37 z" id="path4068" style="color:#000000;fill:#7c6213;fill-opacity:0.18;stroke-width:1px" />
<path d="M 39.31,8.81 C 38.95,8.85 38.59,8.91 38.28,9.06 38.27,9.07 38.25,9.08 38.25,9.09 38.17,9.22 38.11,9.37 38.03,9.56 37.96,9.46 37.88,9.42 37.81,9.34 36.73,10.07 36,11.42 36,12.96 c 0,2.32 1.66,4.21 3.68,4.21 1.71,0 3.12,-1.36 3.53,-3.18 -0.87,-2.55 -2.16,-4.23 -3.5,-4.59 C 39.57,9.18 39.44,8.96 39.31,8.81 z" id="path4278" style="color:#000000;fill:#e1e957;fill-opacity:0.29;stroke-width:2.40" />
<path d="m 36.5,8.56 c -0.81,-0.02 -1.52,0.64 -1.87,1 -0.01,-0.01 -0.01,-0.01 -0.03,-0.03 -1.29,0.38 -1.89,1.44 -1.93,2.18 -0.04,0.75 0.01,3.90 0.53,6.25 0.51,2.34 1.26,5.71 1.59,6.28 0.32,0.56 1.20,2.17 1.81,2.59 0.32,-0.04 0.53,-0.65 0.62,-1.5 0.09,-0.84 0.23,-8.84 0.18,-10.62 C 37.37,13.56 37.77,10.47 38.62,8.65 38.45,8.79 38.25,9.07 38.03,9.56 37.51,8.83 36.98,8.57 36.5,8.56 z" id="path4070" style="fill:#8b8040" />
<path d="m 37.56,12.78 c -0.83,0.41 -1.32,0.82 -1.43,1.31 -0.11,0.48 0.54,0.96 1.28,1.5 -0.00,-0.20 0.00,-0.73 0,-0.87 -0.01,-0.42 0.05,-1.14 0.15,-1.93 z" id="path4285" style="fill:#553c1e;fill-opacity:0.47" />
<path d="m 37.37,19.84 c -1.20,0.15 -2.34,0.53 -3.53,1 0.37,1.60 0.73,3.05 0.93,3.40 0.32,0.56 1.20,2.17 1.81,2.59 0.32,-0.04 0.53,-0.65 0.62,-1.5 0.05,-0.46 0.11,-2.94 0.15,-5.5 z" id="path4072" style="fill:#8b6447" />
<path d="m 33.72,9.22 c -1.29,0.95 -1.70,2.66 -1.63,4.02" id="path4133" style="fill:none;stroke:#e4f081;stroke-width:1.10;stroke-opacity:0.5" />
<path d="M 38.62,8.65 C 38.45,8.79 38.25,9.07 38.03,9.56 37.97,9.48 37.93,9.41 37.87,9.34 c -0.50,2.49 -0.59,3.90 -1,5 -0.47,1.29 -0.61,5.79 -0.68,7.5 -0.06,1.52 -0.01,3.28 0.18,4.81 0.07,0.07 0.15,0.14 0.21,0.18 0.32,-0.04 0.53,-0.65 0.62,-1.5 0.09,-0.84 0.23,-8.84 0.18,-10.62 -0.03,-1.15 0.37,-4.24 1.21,-6.06 z" id="path4202" style="fill:#423d1e;fill-opacity:0.30" />
<path d="m 34.37,9.62 c -1.13,0.43 -1.67,1.39 -1.71,2.09 -0.02,0.44 0.00,1.77 0.12,3.25 0.75,-1.50 1.64,-3.72 2.09,-4.31 0.28,-0.36 0.02,-0.79 -0.5,-1.03 z" id="path4205" style="fill:#6d573f;fill-opacity:0.77" />
<path d="m 30.87,10.75 c -1.62,1.80 -2.13,4.66 -1.96,8.03 0.87,2.85 2.44,5.75 3.37,7.84 1.63,0.92 3.34,0.95 3.56,1 0.14,0.43 1.21,0.59 1.96,0.28 -0.55,-0.19 -1.09,-0.45 -1.59,-0.75 -0.00,-7.75e-4 -0.02,0.00 -0.03,0 C 35.97,27.12 35.68,26.89 35.40,26.62 35.35,26.57 35.30,26.55 35.25,26.5 32.62,24.48 31.05,21.32 30.5,19.06 29.94,16.77 30.10,13.65 30.87,10.75 z" id="path4208" style="color:#000000;fill:#7c6213;fill-opacity:0.19;stroke-width:1px" />
<path d="m 33.38,21.58 c 0.27,0.81 0.88,2.86 1.22,3.34" id="path4216" style="fill:none;stroke:#e7e283;stroke-width:0.89;stroke-opacity:0.59" />
<path d="m 39.87,11.51 c 0.47,1.65 0.63,3.62 0.55,4.49" id="path4218" style="fill:none;stroke:#f2f27f;stroke-width:2.40;stroke-opacity:0.22" />
<path d="m 36.40,8.56 c -0.77,0.02 -1.44,0.65 -1.78,1 -0.01,-0.01 -0.01,-0.01 -0.03,-0.03 -1.29,0.38 -1.89,1.44 -1.93,2.18 -0.04,0.75 0.01,3.90 0.53,6.25 0.51,2.34 1.26,5.71 1.59,6.28 0.32,0.56 1.20,2.17 1.81,2.59 0.08,-0.01 0.15,-0.04 0.21,-0.12 C 34.65,23.56 34.08,18.29 33.75,16.12 33.44,14.10 34.59,10.94 36.40,8.56 z" id="path4283" style="fill:#444f24;fill-opacity:0.23" />
<path d="m 34.20,20.78 c 0.74,0 1.48,-0.29 2.18,-0.44" id="path4287" style="fill:none;stroke:#efd181;stroke-width:0.5;stroke-linecap:round;stroke-opacity:0.22" />
<path d="m 36.38,10.17 c -1.48,2.42 -1.43,5.35 -1.28,6.44" id="path4319" style="fill:none;stroke:#f8f87f;stroke-width:2.90;stroke-linecap:round;stroke-opacity:0.15" />
<path d="m 35.24,9.63 c 0.49,0.44 0.14,1.68 -0.59,2.03 -0.74,0.34 0.24,1.14 1.04,0.59 0.79,-0.54 1.14,-1.68 1.73,-1.09" id="path4321" style="fill:none;stroke:#cfeb77;stroke-width:0.80;stroke-linejoin:round;stroke-opacity:0.15" />
<path d="m 36.13,12.90 c -1.18,1.14 -0.74,2.32 0.14,2.72 0.89,0.39 0.69,0.94 0.89,1.28" id="path4323" style="fill:none;stroke:#2e470e;stroke-width:1px;stroke-opacity:0.14" />
<path d="m 34.47,11.72 c -0.28,0.36 0.14,1.09 1.09,0.50" id="path4327" style="fill:none;stroke:#d5db62;stroke-width:0.69;stroke-opacity:0.28" />
<path d="m 35.84,9.06 c 0.77,-0.09 1.43,0.49 1.61,1.21" id="path4329" style="color:#000000;fill:none;stroke:#d5db62;stroke-opacity:0.37" />
<path d="m 7.18,29.87 c -0.31,-4.07 2.31,-4.63 4.39,-4.63 2.07,0 6.38,1.99 8.94,5.27 2.55,3.27 3.99,4.87 2.31,8.94 -0.55,2.31 -2.23,7.66 -7.18,5.27 C 10.70,42.33 7.42,35.14 6.30,34.26 5.19,33.38 5.43,32.82 7.02,32.02 6.86,30.99 6.62,30.27 7.18,29.87 z" id="path4369-4" style="color:#000000;fill:#d5b876;stroke-width:0.5" />
<path d="M 10.03,26.21 C 9.03,26.18 8.35,26.30 7.75,26.81 7.30,27.50 7.07,28.47 7.18,29.87 6.80,30.14 6.82,30.58 6.90,31.15 l 7.37,-3.21 c 0,0 -0.96,-1.41 -3.40,-1.65 -0.30,-0.02 -0.58,-0.05 -0.84,-0.06 z" id="path4680" style="fill:#6d5236;fill-opacity:0.59" />
<path d="M 10.95,27.37 C 9.93,27.65 9.07,27.55 8.68,28.75" id="path4747" style="fill:none;stroke:#32190c;stroke-width:1px;stroke-linecap:round;stroke-opacity:0.51" />
<path d="m 9.89,31.38 c 4.05,1.01 6.72,4.05 7.61,5.20" id="path4515" style="color:#000000;fill:none;stroke:#f2f27f;stroke-width:5.90;stroke-linecap:round;stroke-opacity:0.22" />
<path d="m 16.65,33.09 c -1.20,-0.03 -2.25,0.43 -2.78,1.37 -0.84,1.49 0.04,3.57 1.96,4.65 1.92,1.08 4.15,0.74 5,-0.75 0.84,-1.49 -0.04,-3.57 -1.96,-4.65 -0.72,-0.40 -1.49,-0.60 -2.21,-0.62 z" id="path4517" style="color:#000000;fill:#e3cf86;fill-opacity:0.46;stroke-width:0.5" />
<path d="m 10.53,32.21 c -0.12,0.61 0.68,0.64 1.07,0.84 0.84,0.41 1.66,0.87 2.52,1.25 1.34,0.47 2.63,1.11 3.91,1.75 0.95,0.54 1.94,1.06 2.81,1.73 0.21,0.12 0.79,0.85 0.25,0.56 -0.68,-0.46 -1.45,-0.77 -2.20,-1.09 -0.72,-0.28 -1.53,-0.39 -2.13,-0.93 -0.54,-0.53 -1.37,-0.57 -1.96,-1.04 -0.53,-0.26 -1.09,-0.49 -1.63,-0.77 -0.51,-0.11 -0.14,0.46 0.17,0.41 1.14,0.56 2.29,1.12 3.37,1.80 0.41,0.48 0.83,0.97 1.20,1.48 -0.95,-0.52 -1.86,-1.12 -2.84,-1.59 -0.51,0.34 0.59,0.85 0.41,0.94 -0.45,-0.41 -1.02,-0.66 -1.48,-1.07 -0.20,-0.15 -0.99,-0.60 -0.91,-0.13 0.41,0.21 0.85,0.32 1.17,0.69 0.89,0.63 1.85,1.21 2.56,2.06 0.50,0.25 0.34,-0.48 0.04,-0.62 -0.33,-0.43 -0.72,-0.81 -1.15,-1.15 0.80,0.43 1.58,0.92 2.40,1.34 0.21,0.55 0.81,-0.27 0.28,-0.39 -0.27,-0.45 -0.67,-0.81 -1.02,-1.22 0.59,0.37 1.34,0.34 1.93,0.73 0.86,0.40 1.80,0.71 2.51,1.37 0.44,0.16 0.31,-0.32 0.05,-0.46 -0.31,-0.53 -0.65,-1.07 -1.24,-1.34 -0.57,-0.32 0.33,0.28 0.22,-0.15 -0.31,-0.42 -0.84,-0.64 -1.22,-1.00 -0.14,-0.12 -0.71,-0.46 -0.24,-0.25 0.22,0.12 0.91,0.66 0.92,0.22 -0.37,-0.36 -0.89,-0.52 -1.29,-0.85 -1.29,-0.84 -2.69,-1.58 -4.20,-1.94 -0.64,-0.17 -1.24,-0.55 -1.92,-0.53 -0.53,0.06 -0.11,0.40 0.20,0.36 0.47,-0.03 0.86,0.24 1.30,0.37 1.12,0.37 2.34,0.62 3.28,1.39 -0.84,-0.26 -1.63,-0.70 -2.46,-1.01 -0.28,-0.12 -0.42,0.23 -0.40,0.26 -0.80,-0.27 -1.60,-0.57 -2.33,-1.02 -0.50,-0.25 -0.95,-0.61 -1.45,-0.88 -0.17,-0.07 -0.36,-0.11 -0.54,-0.09 z m 7.53,3.43 c 0.41,0.16 0.86,0.33 1.18,0.65 -0.39,-0.22 -0.80,-0.40 -1.18,-0.65 z" id="path4689" style="font-size:medium;font-style:normal;font-variant:normal;font-weight:normal;font-stretch:normal;text-indent:0;text-align:start;text-decoration:none;line-height:normal;letter-spacing:normal;word-spacing:normal;text-transform:none;direction:ltr;block-progression:tb;writing-mode:lr-tb;text-anchor:start;baseline-shift:baseline;color:#000000;fill:#f7f7ab;fill-opacity:0.12;stroke-width:0.30;font-family:Sans;-inkscape-font-specification:Sans" />
<path d="m 6.84,30.56 c -0.02,0.38 0.09,0.86 0.18,1.46 C 5.43,32.82 5.19,33.37 6.31,34.25 7.43,35.12 10.70,42.32 15.65,44.71 19.68,46.66 21.52,43.50 22.37,41 20.04,42.82 16.46,41.48 14.56,40.21 12.48,38.83 9.47,35.43 6.84,30.56 z" id="path4423" style="color:#000000;fill:#937722;fill-opacity:0.25;stroke-width:1px" />
<path d="M 6.59,32.28 C 5.41,32.95 5.31,33.46 6.31,34.25 c 1.11,0.87 4.39,8.07 9.34,10.46 2.43,1.17 4.07,0.47 5.18,-0.81 -2.40,0.44 -5.78,-1.56 -7.81,-3.18 -2.25,-1.80 -4.59,-4.49 -6.43,-8.43 z" id="path4425" style="color:#000000;fill:#5f4d16;fill-opacity:0.22;stroke-width:1px" />
<path d="m 12.08,26.93 c -1.84,0.09 -3.51,1.71 -5.23,3.84 0.01,0.34 0.11,0.75 0.18,1.25 C 6.32,32.38 5.92,32.69 5.75,33 c 0.20,-0.18 0.37,-0.34 0.37,-0.34 2.55,-1.78 3.85,-1.38 5,-1 1.14,0.38 8.05,2.42 9.96,4.46 -0.51,-2.55 -2.26,-5.91 -6.03,-8.06 -1.09,-0.62 -2.04,-1.17 -2.98,-1.12 z" id="path4492" style="fill:#ac755c" />
<path d="m 12.09,26.93 c -1.84,0.09 -3.52,1.71 -5.25,3.84 0.01,0.34 0.11,0.75 0.18,1.25 C 6.32,32.38 5.92,32.69 5.75,33 c 0.20,-0.18 0.37,-0.34 0.37,-0.34 2.55,-1.78 3.85,-1.38 5,-1 0.46,0.15 1.91,0.60 3.53,1.18 0.59,-1.34 -0.60,-2.64 -1,-3.68 -0.40,-1.08 2.02,0.09 4.37,1.90 0.14,0.10 0.57,0.30 1.03,0.53 -0.95,-1.30 -2.26,-2.54 -4,-3.53 -1.09,-0.62 -2.03,-1.17 -2.96,-1.12 z" id="path4595" style="color:#000000;fill:#8b8040;stroke-width:1px" />
<path d="m 9.59,26.06 c -0.60,0.03 -1.19,0.19 -1.71,0.53 -0.00,0.00 0.00,0.02 0,0.03 -0.19,0.26 -0.34,0.57 -0.46,0.93 2.16,-1.44 2.22,-1.03 2.56,-0.12 0.63,-0.76 2.17,-0.40 2.93,-0.40 5.49,2.55 5.60,4.21 6.5,5.75 0.89,1.53 1.03,2.82 2.31,3.71 -0.51,-5.62 -6.65,-8.70 -8.18,-9.46 -0.86,-0.43 -2.43,-1.06 -3.93,-0.96 z" id="path4427" style="fill:#381309;fill-opacity:0.79" />
<path d="m 8.24,33.15 c 0.63,1.77 1.39,2.66 2.66,4.05" id="path4574" style="fill:none;stroke:#e2c597;stroke-width:1.79;stroke-opacity:0.43" />
<path d="m 9.5,29.5 c -0.66,-0.02 -1.42,0.27 -2.18,0.75 -0.15,0.18 -0.31,0.33 -0.46,0.53 0.01,0.34 0.11,0.75 0.18,1.25 C 6.32,32.38 5.92,32.69 5.75,33 c 0.20,-0.18 0.37,-0.34 0.37,-0.34 2.55,-1.78 3.85,-1.38 5,-1 0.06,0.02 0.27,0.09 0.37,0.12 C 11.47,31.38 11.40,31.01 11.25,30.68 10.87,29.90 10.24,29.52 9.5,29.5 z" id="path4597" style="fill:#474d2d;fill-opacity:0.42" />
<path d="m 20.83,32.81 c 0.72,1.31 1.08,2.98 1.22,3.84" id="path4599" style="fill:none;stroke:#872d11;stroke-width:0.60;stroke-opacity:0.34" />
<path d="m 10.58,28.24 c 2.20,-0.47 4.52,0.41 6.30,2.26" id="path4660" style="fill:none;stroke:#efe7df;stroke-width:1.5;stroke-opacity:0.14" />
<path d="m 10.06,39.62 c 1.50,1.99 3.37,4.02 5.59,5.09 3.86,1.86 5.72,-0.96 6.62,-3.40 -2.49,0.93 -6.82,0.14 -12.21,-1.68 z" id="path4687" style="color:#000000;fill:#5f4d16;fill-opacity:0.09;stroke-width:1px" />
<path d="m 21.22,42.32 c -0.56,0.84 -1.40,1.54 -2.38,1.68" id="path4743" style="fill:none;stroke:#ebebeb;stroke-width:1px;stroke-opacity:0.20" />
<path d="m 9.76,25.90 c -1.42,0.62 -2.01,1.55 -2.05,3.68" id="path4745" style="fill:none;stroke:#d9aa64;stroke-width:0.60;stroke-opacity:0.52" />
<path d="m 17.80,31.31 c 0.47,0.31 1.43,1.54 1.64,2.12" id="path4749" style="fill:none;stroke:#ddedab;stroke-width:0.80;stroke-opacity:0.16" />
</g>
<g id="layer3">
<path d="M 24.03,7.22 C 24.27,4.95 21.27,3.25 16.82,5.27 c -4.45,2.02 -8.17,5.90 -8.25,10.27 -0.80,1.37 -0.89,2.83 0,3.31 2.18,4.28 5.74,4.77 8.33,3.80 2.58,-0.97 6.95,-4.53 7.84,-7.36 0.89,-2.83 1.13,-5.34 0.16,-6.23 -0.32,-0.80 -0.56,-1.69 -0.89,-1.86 z" id="stroke01" style="fill:none;stroke:#3f2e16;stroke-width:0.5;stroke-linejoin:round" />
<path d="m 34.62,9.56 c -1.61,-1.61 -1.94,-0.72 -2.26,0 -3.47,1.94 -3.96,6.63 -3.15,12.29 0.80,5.66 6.23,5.66 6.63,5.74 0.16,0.48 1.53,0.64 2.26,0.16 4.93,-0.72 6.55,-3.15 6.14,-8.57 -0.40,-5.42 -2.42,-9.22 -4.53,-9.79 -0.56,-0.89 -0.97,-1.45 -1.69,0.16 -1.37,-1.94 -2.83,-0.56 -3.39,0 z" id="stroke02" style="fill:none;stroke:#3f2e16;stroke-width:0.5;stroke-linejoin:round" />
<path d="m 7.18,29.87 c -0.31,-4.07 2.31,-4.63 4.39,-4.63 2.07,0 6.38,1.99 8.94,5.27 2.55,3.27 3.99,4.87 2.31,8.94 -0.55,2.31 -2.23,7.66 -7.18,5.27 C 10.70,42.33 7.42,35.14 6.30,34.26 5.19,33.38 5.43,32.82 7.02,32.02 6.86,30.99 6.62,30.27 7.18,29.87 z" id="stroke03" style="color:#000000;fill:none;stroke:#3f2e16;stroke-width:0.5;stroke-linejoin:round" />
</g>
</svg>
