<?xml version="1.0" encoding="UTF-8" standalone="no"?>
<!DOCTYPE svg PUBLIC "-//W3C//DTD SVG 1.0//EN" "http://www.w3.org/TR/2001/REC-SVG-20010904/DTD/svg10.dtd">
<svg xmlns:svg="http://www.w3.org/2000/svg" xmlns="http://www.w3.org/2000/svg" version="1.0" width="100%" height="100%" viewBox="0 0 48 48" id="_potato01">
<defs/>
<g id="layer1">
<path d="M 27.98,3.72 C 18.72,1.87 9.71,14.24 8.30,23.19 c -1.47,9.37 4.30,15.62 7.58,17.88 3.27,2.25 9.01,3.44 11.43,2.96 3.40,-0.67 10.66,-4.14 12.17,-16.54 C 40.86,16.20 33.85,4.89 27.98,3.72 z" id="path3092-5" style="fill:#baa054" />
<path d="M 24.85,6.14 C 21.34,6.23 11.21,17.12 11.30,22.62 c 0.09,5.49 3.21,12.68 7.48,13.73 4.26,1.04 13.16,-3.50 14.01,-15.05 C 33.65,9.74 26.83,5.95 24.85,6.14 z" id="path3880" style="fill:#f3edc6;fill-opacity:0.12" />
<path d="M 24.85,8.41 C 22.19,8.22 13.86,18.07 14.15,22.62 c 0.28,4.54 1.98,6.15 4.07,6.62 2.08,0.47 8.61,-1.13 9.65,-6.72 1.04,-5.58 1.04,-13.35 -3.03,-14.10 z" id="path3882" style="color:#000000;fill:#f2eab2;fill-opacity:0.12;stroke-width:1px" />
<path d="m 18.31,19.49 c -4.92,3.21 -0.85,8.52 2.17,8.04 3.03,-0.47 4.73,-2.46 3.78,-6.24 -0.94,-3.78 -4.82,-2.65 -5.96,-1.79 z" id="path3884" style="fill:#ffffff;fill-opacity:0.10" />
<path d="M 26.25,3.53 C 25.53,3.52 24.81,3.60 24.10,3.75 c 5.87,0.68 6.45,3.99 8.34,9.09 2.20,5.96 1.16,9.60 -3.25,11.03 -4.41,1.42 -4.14,6.48 -2.71,7.78 1.42,1.29 4.38,2.57 4,5.56 -0.22,1.76 -1.90,5.50 -5.96,6.81 1.11,0.12 2.11,0.13 2.81,0 C 30.72,43.35 38.00,39.89 39.50,27.5 40.87,16.20 33.84,4.88 27.97,3.71 27.39,3.60 26.83,3.53 26.25,3.53 z" id="path3927" style="color:#000000;fill:#7a4c1c;fill-opacity:0.17;stroke-width:1px" />
<path d="m 30.94,5.12 c 3.62,5.16 6.83,12.52 5.90,15.62 -1.16,3.89 -4.14,2.85 -5.18,4.15 0.64,1.29 1.40,2.59 1.40,2.59 0,0 0.40,-3.51 2.87,-2.34 2.02,0.96 1.22,13.16 -9.46,18.96 0.29,-0.01 0.60,-0.04 0.84,-0.09 C 30.72,43.35 38.00,39.89 39.50,27.5 40.65,18.07 35.94,8.67 30.94,5.12 z" id="path3929" style="color:#000000;fill:#240e03;fill-opacity:0.25;stroke-width:1px" />
<path d="m 29.03,4.03 c 5.32,5.96 7.21,14.78 4.43,20.87 -3.37,7.39 -5.72,6.08 -11.56,6.34 -5.83,0.25 -5.19,-0.23 -2.34,1.84 1.94,-1.29 3.26,-0.39 8.06,0.25 4.80,0.64 7.25,-8.18 7.25,-1.43 0,5.46 -5.45,9.05 -12,11.87 0.36,0.07 0.71,0.13 1.06,0.18 C 31.31,41.63 40.41,36.98 38.41,21.78 37.45,14.50 34.27,8.99 31.06,5.18 30.39,4.69 29.71,4.29 29.03,4.03 z" id="path3931" style="fill:#7a4c1c;fill-opacity:0.25" />
<path d="M 26.25,3.53 C 22.87,3.48 19.61,5.20 16.78,7.81 24.18,4.65 25.56,4.10 26.81,7.25 c 1.46,3.66 4.77,12.84 -1.46,18.71 -3.88,3.65 -12.02,4.77 -15.40,8.09 1.69,3.40 4.16,5.78 5.93,7 3.27,2.25 9.01,3.45 11.43,2.96 C 30.72,43.35 38.00,39.89 39.50,27.5 40.87,16.20 33.84,4.88 27.97,3.71 27.39,3.60 26.83,3.53 26.25,3.53 z" id="path3996" style="fill:#5f2508;fill-opacity:0.11" />
<path d="M 11.26,18.87 C 9.80,26.04 9.58,30.63 14.62,34.67" id="path4035" style="fill:none;stroke:#986f22;stroke-width:3.70;stroke-linecap:round;stroke-opacity:0.19" />
<path d="M 22.68,5.99 C 29.18,4.31 31.87,6.44 32.99,13.61" id="path4037" style="fill:none;stroke:#634416;stroke-width:3.59;stroke-linecap:round;stroke-opacity:0.11" />
<path d="m 35.12,13.72 c 1.68,3.36 2.57,8.73 2.01,13.32" id="path4039" style="fill:none;stroke:#482c1d;stroke-width:2.5;stroke-linecap:round;stroke-opacity:0.21" />
<path d="m 34.33,28.84 c -0.33,2.12 -2.35,4.70 -3.69,5.82" id="path4041" style="fill:none;stroke:#926234;stroke-width:8.80;stroke-linecap:round;stroke-opacity:0.45" />
<path d="m 34.78,18.31 c 1.34,3.13 0.67,7.72 -0.89,10.41" id="path4043" style="color:#000000;fill:none;stroke:#482c1d;stroke-width:5;stroke-linecap:round;stroke-opacity:0.21" />
<path d="m 25.57,31.71 c 2.52,-0.63 5.80,0.50 6.69,2.52" id="path4069" style="color:#000000;fill:none;stroke:#482c1d;stroke-width:7.59;stroke-linecap:round;stroke-opacity:0.11" />
<path d="m 21.66,7.75 c -0.45,0 -1.15,0.52 -1.56,1.18 -0.13,0.22 -0.21,0.41 -0.25,0.59 -0.48,-0.21 -1.13,0.06 -1.46,0.65 -0.34,0.62 -0.20,1.35 0.28,1.62 0.48,0.27 1.15,-0.00 1.5,-0.62 0.20,-0.37 0.22,-0.76 0.12,-1.09 C 20.74,10.03 21.37,9.55 21.75,8.93 22.16,8.27 22.12,7.75 21.66,7.75 z m 6.18,0.18 c -0.66,0 -1.18,0.48 -1.18,1.09 0,0.61 0.52,1.09 1.18,1.09 0.66,0 1.18,-0.48 1.18,-1.09 0,-0.61 -0.52,-1.09 -1.18,-1.09 z m 4.84,2.28 c -0.58,0 -1.06,0.56 -1.06,1.25 0,0.68 0.47,1.25 1.06,1.25 0.58,0 1.06,-0.56 1.06,-1.25 0,-0.68 -0.47,-1.25 -1.06,-1.25 z m -3.56,0.46 c -0.64,0 -1.16,0.46 -1.18,1.06 -0.09,-0.02 -0.18,-0.06 -0.28,-0.06 -0.66,0 -1.18,0.47 -1.18,1.06 0,0.58 0.52,1.06 1.18,1.06 0.62,0 1.10,-0.42 1.15,-0.96 0.10,0.02 0.20,0.06 0.31,0.06 0.66,0 1.21,-0.51 1.21,-1.12 0,-0.61 -0.55,-1.09 -1.21,-1.09 z M 17.47,12.25 c -0.73,0 -1.31,0.51 -1.31,1.12 0,0.61 0.57,1.09 1.31,1.09 0.73,0 1.34,-0.48 1.34,-1.09 0,-0.61 -0.60,-1.12 -1.34,-1.12 z m 4.75,2.03 c -0.71,0 -1.28,0.47 -1.28,1.06 0,0.58 0.56,1.06 1.28,1.06 0.71,0 1.28,-0.47 1.28,-1.06 0,-0.58 -0.56,-1.06 -1.28,-1.06 z M 10.53,16.43 c -0.71,1.47 -1.27,2.95 -1.68,4.40 0.21,0.96 0.63,1.66 1.15,1.78 -0.00,0.09 -0.03,0.18 -0.03,0.28 0,0.78 0.21,1.40 0.46,1.40 0.25,0 0.46,-0.61 0.46,-1.40 0,-0.22 -0.03,-0.43 -0.06,-0.62 0.09,-0.11 0.16,-0.24 0.25,-0.40 0.41,0.32 0.98,0.5 1.62,0.5 1.27,0 2.31,-0.78 2.31,-1.78 0,-0.99 -1.04,-1.81 -2.31,-1.81 -0.41,0 -0.78,0.09 -1.12,0.25 -0.08,-1.27 -0.50,-2.27 -1.06,-2.59 z m 15.59,0.87 c -0.78,0 -1.40,0.51 -1.40,1.12 0,0.61 0.61,1.09 1.40,1.09 0.78,0 1.43,-0.48 1.43,-1.09 0,-0.61 -0.64,-1.12 -1.43,-1.12 z m -8.96,5.71 c -0.71,0 -1.28,0.56 -1.28,1.28 0,0.71 0.56,1.31 1.28,1.31 0.71,0 1.28,-0.60 1.28,-1.31 0,-0.71 -0.56,-1.28 -1.28,-1.28 z m 7.68,0.93 c -0.65,0.11 -1.15,0.61 -1.15,1.21 0,0.68 0.64,1.25 1.43,1.25 0.78,0 1.43,-0.56 1.43,-1.25 0,-0.68 -0.64,-1.21 -1.43,-1.21 -0.09,0 -0.18,-0.01 -0.28,0 z m 4.56,0 c -0.62,0.12 -1.09,0.65 -1.09,1.28 0,0.71 0.61,1.28 1.37,1.28 0.76,0 1.37,-0.56 1.37,-1.28 0,-0.71 -0.61,-1.28 -1.37,-1.28 -0.09,0 -0.19,-0.01 -0.28,0 z m -17.96,0.25 c -0.49,0 -0.89,0.87 -0.90,1.93 -0.46,0.02 -0.84,0.57 -0.84,1.21 0,0.66 0.39,1.18 0.87,1.18 0.26,0 0.49,-0.17 0.65,-0.43 0.07,0.03 0.14,0.06 0.21,0.06 0.50,0 0.93,-0.87 0.93,-1.96 0,-1.09 -0.42,-2 -0.93,-2 z M 24.03,29.75 c -1.14,0 -2.09,0.47 -2.09,1.06 0,0.17 0.10,0.35 0.25,0.5 -0.25,-0.04 -0.54,-0.09 -0.84,-0.09 -1.19,0 -2.15,0.39 -2.15,0.87 0,0.48 0.96,0.87 2.15,0.87 1.19,0 2.15,-0.39 2.15,-0.87 0,-0.11 -0.05,-0.18 -0.15,-0.28 0.21,0.03 0.44,0.06 0.68,0.06 1.14,0 2.06,-0.47 2.06,-1.06 0,-0.58 -0.91,-1.06 -2.06,-1.06 z m -6.40,0.56 c -0.66,0 -1.21,0.43 -1.21,0.96 0,0.53 0.55,0.96 1.21,0.96 0.66,0 1.18,-0.43 1.18,-0.96 0,-0.53 -0.52,-0.96 -1.18,-0.96 z m 12.43,2.40 c -0.52,0.11 -0.93,0.61 -0.93,1.21 0,0.68 0.52,1.25 1.15,1.25 0.63,0 1.15,-0.56 1.15,-1.25 0,-0.68 -0.52,-1.21 -1.15,-1.21 -0.07,0 -0.14,-0.01 -0.21,0 z m -13.18,4.68 c -0.50,0 -0.90,0.39 -0.90,0.90 0,0.50 0.39,0.93 0.90,0.93 -0.03,0.10 -0.09,0.19 -0.09,0.31 0,0.53 0.42,0.96 0.93,0.96 0.50,0 0.90,-0.43 0.90,-0.96 0,-0.52 -0.38,-0.95 -0.87,-0.96 0.02,-0.08 0.06,-0.18 0.06,-0.28 0,-0.50 -0.42,-0.90 -0.93,-0.90 z M 28.53,38.31 c -0.58,0 -1.06,0.47 -1.06,1.06 0,0.58 0.47,1.06 1.06,1.06 0.58,0 1.06,-0.47 1.06,-1.06 0,-0.58 -0.47,-1.06 -1.06,-1.06 z" id="path4156" style="color:#000000;fill:#98490d;fill-opacity:0.21;stroke-width:7.59" />
<path d="m 20.31,32.90 c 0.87,0.49 1.74,0.37 2.37,0.37" id="path4240" style="fill:none;stroke:#ffffff;stroke-width:1.29;stroke-linecap:round;stroke-opacity:0.31" />
<path d="m 17.82,21.55 c -0.37,1.12 0.12,2.99 0.99,3.36" id="path4242" style="fill:none;stroke:#ffffff;stroke-width:1.70;stroke-opacity:0.33" />
<path d="m 19.31,26.41 c 0,0 2.12,0.62 2.37,-1.12" id="path4244" style="fill:none;stroke:#ffffff;stroke-width:1px;stroke-opacity:0.29" />
<path d="m 26.25,3.53 c -5.44,-0.08 -10.63,4.45 -14.06,9.90 4.84,-2.34 9.37,-3.40 12.5,-2.5 3.76,1.09 13.41,10.00 7,31.21 C 34.95,40.00 38.50,35.72 39.50,27.5 40.87,16.20 33.84,4.88 27.97,3.71 27.39,3.60 26.83,3.53 26.25,3.53 z" id="path4246" style="fill:#7d3c0b;fill-opacity:0.12" />
<path d="m 27.62,33.81 a 0.37,0.5 0 1 1 -0.75,0 0.37,0.5 0 1 1 0.75,0 z" transform="translate(2.97,0)" id="path4089" style="color:#000000;fill:#2c2304;fill-opacity:0.83;stroke-width:7.59" />
<path d="m 22.25,30.65 a 1,0.46 0 1 1 -2,0 1,0.46 0 1 1 2,0 z" transform="translate(2.97,0)" id="path4091" style="color:#000000;fill:#2c2304;fill-opacity:0.72;stroke-width:7.59" />
<path d="m 24.93,31.15 a 0.21,0.28 0 1 1 -0.43,0 0.21,0.28 0 1 1 0.43,0 z" transform="translate(2.97,0)" id="path4093" style="color:#000000;fill:#2c2304;fill-opacity:0.83;stroke-width:7.59" />
<path d="m 31.5,30.81 a 0.28,0.37 0 1 1 -0.56,0 0.28,0.37 0 1 1 0.56,0 z" transform="translate(2.97,0)" id="path4095" style="color:#000000;fill:#2c2304;fill-opacity:0.83;stroke-width:7.59" />
<path d="m 34.18,28.84 a 0.18,0.46 0 1 1 -0.37,0 0.18,0.46 0 1 1 0.37,0 z" transform="translate(2.97,0)" id="path4097" style="color:#000000;fill:#2c2304;fill-opacity:0.83;stroke-width:7.59" />
<path d="m 29.87,37.65 a 0.34,0.46 0 1 1 -0.68,0 0.34,0.46 0 1 1 0.68,0 z" transform="translate(2.97,0)" id="path4099" style="color:#000000;fill:#2c2304;fill-opacity:0.83;stroke-width:7.59" />
<path d="m 32,37.43 a 0.21,0.43 0 1 1 -0.43,0 0.21,0.43 0 1 1 0.43,0 z" transform="translate(2.97,0)" id="path4101" style="color:#000000;fill:#2c2304;fill-opacity:0.83;stroke-width:7.59" />
<path d="m 26,39.68 a 0.37,0.37 0 1 1 -0.75,0 0.37,0.37 0 1 1 0.75,0 z" transform="translate(2.97,0)" id="path4103" style="color:#000000;fill:#2c2304;fill-opacity:0.83;stroke-width:7.59" />
<path d="m 20.87,39.65 a 0.34,0.28 0 1 1 -0.68,0 0.34,0.28 0 1 1 0.68,0 z" transform="translate(2.97,0)" id="path4105" style="color:#000000;fill:#2c2304;fill-opacity:0.71;stroke-width:7.59" />
<path d="m 17.5,37.68 a 0.5,0.37 0 1 1 -1,0 0.5,0.37 0 1 1 1,0 z" transform="translate(2.97,0)" id="path4107" style="color:#000000;fill:#2c2304;fill-opacity:0.71;stroke-width:7.59" />
<path d="m 20.12,36.09 a 0.43,0.28 0 1 1 -0.87,0 0.43,0.28 0 1 1 0.87,0 z" transform="translate(2.97,0)" id="path4109" style="color:#000000;fill:#2c2304;fill-opacity:0.71;stroke-width:7.59" />
<path d="m 22.75,35.78 a 0.34,0.40 0 1 1 -0.68,0 0.34,0.40 0 1 1 0.68,0 z" transform="translate(2.97,0)" id="path4111" style="color:#000000;fill:#2c2304;fill-opacity:0.71;stroke-width:7.59" />
<path d="m 23.5,43.12 a 0.46,0.18 0 1 1 -0.93,0 0.46,0.18 0 1 1 0.93,0 z" transform="translate(2.97,0)" id="path4113" style="color:#000000;fill:#2c2304;fill-opacity:0.83;stroke-width:7.59" />
<path d="m 29.87,40.37 a 0.21,0.43 0 1 1 -0.43,0 0.21,0.43 0 1 1 0.43,0 z" transform="translate(2.97,0)" id="path4115" style="color:#000000;fill:#2c2304;fill-opacity:0.83;stroke-width:7.59" />
<path d="m 32.81,23.71 a 0.37,0.59 0 1 1 -0.75,0 0.37,0.59 0 1 1 0.75,0 z" transform="translate(2.97,0)" id="path4117" style="color:#000000;fill:#2c2304;fill-opacity:0.83;stroke-width:7.59" />
<path d="m 27.31,25.31 a 0.46,0.5 0 1 1 -0.93,0 0.46,0.5 0 1 1 0.93,0 z" transform="translate(2.97,0)" id="path4119" style="color:#000000;fill:#2c2304;fill-opacity:0.71;stroke-width:7.59" />
<path d="m 17.41,23.63 a 0.59,0.69 0 1 1 -1.19,0 0.59,0.69 0 1 1 1.19,0 z" transform="translate(2.97,0)" id="path4121" style="color:#000000;fill:#523607;fill-opacity:0.71;stroke-width:7.59" />
<path d="m 10.04,29.75 a 0.41,0.64 0 1 1 -0.82,0 0.41,0.64 0 1 1 0.82,0 z" transform="translate(2.97,0)" id="path4123" style="color:#000000;fill:#523607;fill-opacity:0.71;stroke-width:7.59" />
<path d="m 7.64,27.31 a 0.32,0.59 0 1 1 -0.64,0 0.32,0.59 0 1 1 0.64,0 z" transform="translate(2.97,0)" id="path4125" style="color:#000000;fill:#523607;fill-opacity:0.71;stroke-width:7.59" />
<path d="m 11.14,21.09 a 0.46,0.64 0 1 1 -0.92,0 0.46,0.64 0 1 1 0.92,0 z" transform="translate(2.97,0)" id="path4127" style="color:#000000;fill:#523607;fill-opacity:0.71;stroke-width:7.59" />
<path d="m 15.10,28.14 a 0.41,0.41 0 1 1 -0.82,0 0.41,0.41 0 1 1 0.82,0 z" transform="translate(2.97,0)" id="path4129" style="color:#000000;fill:#523607;fill-opacity:0.71;stroke-width:7.59" />
<path d="m 22.66,25.38 a 0.41,0.41 0 1 1 -0.82,0 0.41,0.41 0 1 1 0.82,0 z" transform="translate(2.97,0)" id="path4131" style="color:#000000;fill:#523607;fill-opacity:0.71;stroke-width:7.59" />
<path d="m 15.47,31.50 a 0.59,0.46 0 1 1 -1.19,0 0.59,0.46 0 1 1 1.19,0 z" transform="translate(2.97,0)" id="path4133" style="color:#000000;fill:#523607;fill-opacity:0.71;stroke-width:7.59" />
<path d="m 14.27,38.09 a 0.32,0.32 0 1 1 -0.64,0 0.32,0.32 0 1 1 0.64,0 z" transform="translate(2.97,0)" id="path4135" style="color:#000000;fill:#523607;fill-opacity:0.71;stroke-width:7.59" />
<path d="m 19.89,15.20 a 0.50,0.46 0 1 1 -1.01,0 0.50,0.46 0 1 1 1.01,0 z" transform="translate(2.97,0)" id="path4137" style="color:#000000;fill:#523607;fill-opacity:0.71;stroke-width:7.59" />
<path d="m 23.30,18.19 a 0.50,0.50 0 1 1 -1.01,0 0.50,0.50 0 1 1 1.01,0 z" transform="translate(2.97,0)" id="path4139" style="color:#000000;fill:#523607;fill-opacity:0.71;stroke-width:7.59" />
<path d="m 14.64,13.17 a 0.41,0.36 0 1 1 -0.82,0 0.41,0.36 0 1 1 0.82,0 z" transform="translate(2.97,0)" id="path4141" style="color:#000000;fill:#523607;fill-opacity:0.71;stroke-width:7.59" />
<path d="m 12.98,16.76 a 0.36,0.18 0 1 1 -0.73,0 0.36,0.18 0 1 1 0.73,0 z" transform="translate(2.97,0)" id="path4143" style="color:#000000;fill:#523607;fill-opacity:0.71;stroke-width:7.59" />
<path d="m 19.89,5.89 a 0.27,0.27 0 1 1 -0.55,0 0.27,0.27 0 1 1 0.55,0 z" transform="translate(2.97,0)" id="path4145" style="color:#000000;fill:#523607;fill-opacity:0.71;stroke-width:7.59" />
<path d="m 25.05,8.89 a 0.36,0.50 0 1 1 -0.73,0 0.36,0.50 0 1 1 0.73,0 z" transform="translate(2.97,0)" id="path4147" style="color:#000000;fill:#523607;fill-opacity:0.71;stroke-width:7.59" />
<path d="m 28.65,16.63 a 0.32,0.23 0 1 1 -0.64,0 0.32,0.23 0 1 1 0.64,0 z" transform="translate(2.97,0)" id="path4149" style="color:#000000;fill:#523607;fill-opacity:0.71;stroke-width:7.59" />
<path d="m 32.15,19.80 a 0.36,0.46 0 1 1 -0.73,0 0.36,0.46 0 1 1 0.73,0 z" transform="translate(2.97,0)" id="path4151" style="color:#000000;fill:#523607;fill-opacity:0.71;stroke-width:7.59" />
<path d="m 29.84,11.38 a 0.32,0.50 0 1 1 -0.64,0 0.32,0.50 0 1 1 0.64,0 z" transform="translate(2.97,0)" id="path4153" style="color:#000000;fill:#523607;fill-opacity:0.71;stroke-width:7.59" />
<path d="M 27.98,3.72 C 18.72,1.87 9.71,14.24 8.30,23.19 c -1.47,9.37 4.30,15.62 7.58,17.88 3.27,2.25 9.01,3.44 11.43,2.96 3.40,-0.67 10.66,-4.14 12.17,-16.54 C 40.86,16.20 33.85,4.89 27.98,3.72 z" id="stroke01" style="fill:none;stroke:#403123;stroke-width:0.5;" />
</g>
</svg>
