<?xml version="1.0" encoding="UTF-8" standalone="no"?>
<!DOCTYPE svg PUBLIC "-//W3C//DTD SVG 1.0//EN" "http://www.w3.org/TR/2001/REC-SVG-20010904/DTD/svg10.dtd">
<svg xmlns:svg="http://www.w3.org/2000/svg" xmlns="http://www.w3.org/2000/svg" xmlns:xlink="http://www.w3.org/1999/xlink" version="1.0" width="100%" height="100%" viewBox="0 0 48 48" id="radish01">
<defs id="defs2385"/>
<g id="layer2" style="display:inline">
<path d="M 34.34,6.09 C 34.02,6.89 33.85,7.00 33.75,7.43 C 34.65,9.00 34.57,9.55 34.56,11 C 34.08,11.17 33.59,11.37 33.12,11.62 C 33.40,10.78 33.48,9.81 33.12,9.31 C 32.42,8.34 31.03,8.15 31.78,8.90 C 32.38,9.50 32.29,10.85 32.12,12.21 C 30.98,12.98 29.93,13.99 29.06,15.40 C 29.04,15.05 29.04,14.75 29.00,14.62 C 28.73,13.87 26.39,12.49 25.96,13.25 C 26.50,13.57 26.72,14.03 26.93,14.62 C 26.73,14.68 26.47,14.94 26.18,15.28 C 25.15,13.90 23.57,12.94 22.12,12.25 C 22.15,12.20 22.18,12.17 22.21,12.12 C 23.18,10.62 22.71,9.86 22.34,10.56 C 21.36,10.49 20.67,10.94 20.12,11.40 C 20.01,11.36 19.88,11.31 19.78,11.28 C 17.01,10.29 19.39,9.28 19.00,7.90 C 18.21,8.69 16.82,9.67 15.43,10.46 C 15.43,11.65 13.46,13.63 14.25,14.03 C 15.04,14.42 16.62,12.66 17.21,11.87 C 17.58,11.96 18.12,12.09 18.93,12.40 C 18.05,13.15 16.55,14.75 16.87,15.59 C 17.73,16.07 18.04,15.21 18.09,14.46 C 18.84,14.11 19.54,13.32 19.93,12.84 C 20.78,13.21 21.77,13.68 23.12,14.43 C 24.51,15.20 25.10,15.95 25.21,16.71 C 24.87,17.38 24.59,18.14 24.50,18.84 C 24.31,19.08 24.12,19.32 23.90,19.56 L 28.78,22.59 C 29.72,15.94 32.56,10.19 42.09,12.25 C 44.46,12.25 44.84,10.67 41.09,10.28 C 40.89,10.26 40.63,10.26 40.40,10.25 C 40.79,9.85 41.66,9.54 42.25,9.31 C 42.62,9.41 43.34,9.38 42.81,8.90 C 42.33,8.47 40.10,8.16 38.06,10.25 C 37.17,10.32 36.24,10.46 35.28,10.75 C 35.44,10.49 35.59,10.15 35.59,9.68 C 35.59,8.34 34.77,6.89 34.34,6.09 z" id="p2469" style="fill:#b29b15;fill-opacity:1;fill-rule:evenodd;stroke:none;"/>
<path d="M 26.59,13.03 C 26.31,12.99 26.07,13.06 25.96,13.25 C 26.50,13.57 26.72,14.03 26.93,14.62 C 26.78,14.66 26.58,14.84 26.37,15.06 C 26.67,15.78 27.04,16.98 26.46,17.56 C 26.04,17.98 25.48,17.60 25.03,17.12 C 24.77,17.68 24.57,18.27 24.50,18.84 C 24.31,19.08 24.12,19.32 23.90,19.56 L 28.78,22.59 C 28.97,21.20 29.25,19.86 29.65,18.62 C 28.11,18.20 28.32,17.46 28.84,16.71 C 29.04,16.43 29.12,15.87 29.18,15.21 C 29.14,15.28 29.10,15.33 29.06,15.40 C 29.04,15.05 29.04,14.75 29.00,14.62 C 28.79,14.06 27.44,13.13 26.59,13.03 z" id="p3408" style="fill:#82980f;fill-opacity:0.65;fill-rule:evenodd;stroke:none;display:inline"/>
<path d="M 19.31,17.75 C 13.15,17.65 8.96,22.28 7.34,27.46 C 4.38,36.94 11.08,38.71 13.06,44.43 C 15.63,44.04 15.82,44.04 17.40,43.84 C 18.00,43.90 18.58,43.92 19.15,43.93 C 19.55,43.94 19.97,43.91 20.37,43.90 C 20.84,43.89 21.31,43.85 21.78,43.81 C 21.80,43.81 21.82,43.81 21.84,43.81 C 22.05,43.79 22.25,43.77 22.46,43.75 C 22.48,43.74 22.51,43.75 22.53,43.75 C 29.41,42.72 34.35,38.32 35.09,34.53 C 35.93,30.23 36.05,27.40 33.71,24.71 C 33.69,24.68 33.65,24.65 33.62,24.62 C 33.40,24.37 33.17,24.12 32.90,23.87 C 32.88,23.85 32.86,23.83 32.84,23.81 C 32.56,23.56 32.23,23.31 31.90,23.06 C 31.88,23.04 31.86,23.01 31.84,23 C 31.50,22.73 31.14,22.48 30.75,22.21 C 30.73,22.21 30.73,22.19 30.71,22.18 C 30.30,21.90 29.85,21.62 29.37,21.34 C 28.41,20.76 27.32,20.17 26.09,19.56 C 23.62,18.32 21.36,17.78 19.31,17.75 z" id="p2467" style="fill:#e60f50;fill-opacity:1;fill-rule:evenodd;stroke:none;"/>
<path d="M 19.56,29.78 C 14.74,29.55 10.11,32.74 8.25,37.21 C 9.80,39.63 12.05,41.51 13.06,44.43 C 15.63,44.04 15.82,44.04 17.40,43.84 C 18.00,43.90 18.58,43.92 19.15,43.93 C 19.55,43.94 19.97,43.91 20.37,43.90 C 20.84,43.89 21.31,43.85 21.78,43.81 C 21.80,43.81 21.82,43.81 21.84,43.81 C 22.05,43.79 22.25,43.77 22.46,43.75 C 22.48,43.74 22.51,43.75 22.53,43.75 C 29.41,42.72 34.35,38.32 35.09,34.53 C 35.26,33.67 35.40,32.90 35.50,32.15 C 30.41,29.51 23.71,29.97 19.56,29.78 z" id="p3279" style="fill:#cd0d2a;fill-opacity:0.47;fill-rule:evenodd;stroke:none;display:inline"/>
<path d="M 19.31,17.75 C 17.38,17.72 15.64,18.14 14.12,18.90 C 16.44,22.28 18.90,24.49 24.87,25.68 C 28.71,26.45 32.20,27.41 35.31,27.59 C 35.01,26.58 34.52,25.64 33.71,24.71 C 33.69,24.68 33.65,24.65 33.62,24.62 C 33.40,24.37 33.17,24.12 32.90,23.87 C 32.88,23.85 32.86,23.83 32.84,23.81 C 32.56,23.56 32.23,23.31 31.90,23.06 C 31.88,23.04 31.86,23.01 31.84,23 C 31.50,22.73 31.14,22.48 30.75,22.21 C 30.73,22.21 30.73,22.19 30.71,22.18 C 30.30,21.90 29.85,21.62 29.37,21.34 C 28.41,20.76 27.32,20.17 26.09,19.56 C 23.62,18.32 21.36,17.78 19.31,17.75 z" id="p3281" style="fill:#f0cbbe;fill-opacity:0.26;fill-rule:evenodd;stroke:none;display:inline"/>
<path d="M 13.18,19.46 C 10.35,21.26 8.34,24.25 7.34,27.46 C 6.10,31.42 6.57,34.03 7.65,36.15 C 10.72,30.89 12.39,24.90 13.18,19.46 z" id="p3283" style="fill:#aa1945;fill-opacity:0.37;fill-rule:evenodd;stroke:none;display:inline"/>
<path d="M 35.40,32.81 C 27.05,34.47 21.29,39.40 17.90,43.87 C 18.32,43.90 18.74,43.93 19.15,43.93 C 19.55,43.94 19.97,43.91 20.37,43.90 C 20.84,43.89 21.31,43.85 21.78,43.81 C 21.80,43.81 21.82,43.81 21.84,43.81 C 22.05,43.79 22.25,43.77 22.46,43.75 C 22.48,43.74 22.51,43.75 22.53,43.75 C 29.41,42.72 34.35,38.32 35.09,34.53 C 35.21,33.92 35.32,33.36 35.40,32.81 z" id="p3285" style="fill:#d57583;fill-opacity:0.27;fill-rule:evenodd;stroke:none;display:inline"/>
<path d="M 19.31,17.75 C 14.99,17.68 11.64,19.95 9.46,23.09 C 15.02,19.62 19.59,19.89 23.50,21.84 C 26.58,23.38 32.48,25.42 35.62,30.65 C 35.73,28.36 35.27,26.50 33.71,24.71 C 33.69,24.68 33.65,24.65 33.62,24.62 C 33.40,24.37 33.17,24.12 32.90,23.87 C 32.88,23.85 32.86,23.83 32.84,23.81 C 32.56,23.56 32.23,23.31 31.90,23.06 C 31.88,23.04 31.86,23.01 31.84,23 C 31.50,22.73 31.14,22.48 30.75,22.21 C 30.73,22.21 30.73,22.19 30.71,22.18 C 30.30,21.90 29.85,21.62 29.37,21.34 C 28.41,20.76 27.32,20.17 26.09,19.56 C 23.62,18.32 21.36,17.78 19.31,17.75 z" id="p3314" style="fill:#e52a63;fill-opacity:0.53;fill-rule:evenodd;stroke:none;"/>
<path d="M 9.78,22.68 C 8.70,24.12 7.87,25.75 7.34,27.46 C 4.38,36.94 11.08,38.71 13.06,44.43 C 15.63,44.04 15.82,44.04 17.40,43.84 C 18.00,43.90 18.58,43.92 19.15,43.93 C 19.55,43.94 19.97,43.91 20.37,43.90 C 20.84,43.89 21.31,43.85 21.78,43.81 C 21.80,43.81 21.82,43.81 21.84,43.81 C 22.05,43.79 22.25,43.77 22.46,43.75 C 22.48,43.74 22.51,43.75 22.53,43.75 C 28.08,42.91 32.34,39.90 34.18,36.78 C 26.77,39.18 14.89,34.26 12.50,32.06 C 10.02,29.78 9.17,28.00 9.78,22.68 z" id="p3318" style="fill:#bc1441;fill-opacity:0.45;fill-rule:evenodd;stroke:none;"/>
<path d="M 6.68,33.03 C 7.29,37.98 11.55,40.06 13.06,44.43 C 15.63,44.04 15.82,44.04 17.40,43.84 C 18.00,43.90 18.58,43.92 19.15,43.93 C 19.55,43.94 19.97,43.91 20.37,43.90 C 20.60,43.89 20.83,43.89 21.06,43.87 C 19.04,41.88 18.52,39.27 16.06,37.25 C 13.68,35.29 9.85,34.02 6.68,33.03 z" id="p3316" style="fill:#bb1c4c;fill-opacity:0.46;fill-rule:evenodd;stroke:none;"/>
<path d="M 13.14,36.44 C 14.08,36.63 18.40,37.01 19.43,36.16" id="p3326" style="fill:none;fill-rule:evenodd;stroke:#b50b3e;stroke-width:7.5;stroke-linecap:round;stroke-linejoin:miter;stroke-miterlimit:4;stroke-dasharray:none;stroke-opacity:0.57"/>
<path d="M 9.95,33.06 C 10.70,34.85 14.92,41.98 21.69,40.39" id="p3328" style="fill:none;fill-opacity:1;fill-rule:evenodd;stroke:#a80e32;stroke-width:6.09;stroke-linecap:round;stroke-linejoin:miter;marker:none;stroke-miterlimit:4;stroke-dasharray:none;stroke-dashoffset:0;stroke-opacity:0.46;visibility:visible;display:inline;overflow:visible;enable-background:accumulate"/>
<path d="M 29.48,24.33 C 31.64,26.20 32.68,28.18 32.30,31.18" id="p3330" style="fill:none;fill-opacity:1;fill-rule:evenodd;stroke:#f53670;stroke-width:4.5;stroke-linecap:round;stroke-linejoin:miter;marker:none;stroke-miterlimit:4;stroke-dasharray:none;stroke-dashoffset:0;stroke-opacity:0.48;visibility:visible;display:inline;overflow:visible;enable-background:accumulate"/>
<path d="M 15.21,40.39 C 18.96,41.23 25.35,42.83 30.14,35.88" id="p3332" style="fill:none;fill-opacity:1;fill-rule:evenodd;stroke:#6f0525;stroke-width:5;stroke-linecap:round;stroke-linejoin:miter;marker:none;stroke-miterlimit:4;stroke-dasharray:none;stroke-dashoffset:0;stroke-opacity:0.15;visibility:visible;display:inline;overflow:visible;enable-background:accumulate"/>
<path d="M 17.27,21.23 C 19.53,22.07 23.94,24.04 25.35,26.86" id="p3334" style="fill:none;fill-opacity:1;fill-rule:evenodd;stroke:#f64f81;stroke-width:5.59;stroke-linecap:round;stroke-linejoin:miter;marker:none;stroke-miterlimit:4;stroke-dasharray:none;stroke-dashoffset:0;stroke-opacity:0.33;visibility:visible;display:inline;overflow:visible;enable-background:accumulate"/>
<path d="M 11.92,25.08 C 11.07,28.55 11.54,30.71 14.74,34.00" id="p3336" style="fill:none;fill-opacity:1;fill-rule:evenodd;stroke:#d50040;stroke-width:5.80;stroke-linecap:round;stroke-linejoin:miter;marker:none;stroke-miterlimit:4;stroke-dasharray:none;stroke-dashoffset:0;stroke-opacity:0.57;visibility:visible;display:inline;overflow:visible;enable-background:accumulate"/>
<path d="M 18.12,31.28 C 20.09,32.68 22.44,34.85 26.10,35.03" id="p3338" style="fill:none;fill-opacity:1;fill-rule:evenodd;stroke:#d70643;stroke-width:6.69;stroke-linecap:round;stroke-linejoin:miter;marker:none;stroke-miterlimit:4;stroke-dasharray:none;stroke-dashoffset:0;stroke-opacity:0.46;visibility:visible;display:inline;overflow:visible;enable-background:accumulate"/>
<path d="M 18.21,21.13 C 19.62,21.51 23.00,23.48 23.57,24.61" id="p3340" style="fill:none;fill-opacity:1;fill-rule:evenodd;stroke:#ff88a7;stroke-width:4;stroke-linecap:round;stroke-linejoin:miter;marker:none;stroke-miterlimit:4;stroke-dasharray:none;stroke-dashoffset:0;stroke-opacity:0.28;visibility:visible;display:inline;overflow:visible;enable-background:accumulate"/>
<path d="M 34.34,6.09 C 34.02,6.89 33.85,7.00 33.75,7.43 C 34.65,9.00 34.57,9.55 34.56,11 C 34.08,11.17 33.59,11.37 33.12,11.62 C 33.40,10.78 33.48,9.81 33.12,9.31 C 32.42,8.34 31.03,8.15 31.78,8.90 C 32.38,9.50 32.29,10.85 32.12,12.21 C 31.13,12.88 30.23,13.77 29.43,14.90 L 30.06,17.18 L 30.21,17.21 C 31.95,13.28 35.32,10.79 42.09,12.25 C 44.46,12.25 44.84,10.67 41.09,10.28 C 40.89,10.26 40.63,10.26 40.40,10.25 C 40.79,9.85 41.66,9.54 42.25,9.31 C 42.62,9.41 43.34,9.38 42.81,8.90 C 42.33,8.47 40.10,8.16 38.06,10.25 C 37.17,10.32 36.24,10.46 35.28,10.75 C 35.44,10.49 35.59,10.15 35.59,9.68 C 35.59,8.34 34.77,6.89 34.34,6.09 z" id="p3400" style="fill:#f2eb4b;fill-opacity:0.49;fill-rule:evenodd;stroke:none;display:inline"/>
<path d="M 19.00,7.90 C 18.21,8.69 16.82,9.67 15.43,10.46 C 15.43,11.45 14.07,12.96 14.06,13.68 L 14.25,14.03 L 14.28,14.03 C 15.08,14.37 16.63,12.65 17.21,11.87 C 17.58,11.96 18.12,12.09 18.93,12.40 C 18.05,13.15 16.55,14.75 16.87,15.59 C 17.73,16.07 18.04,15.21 18.09,14.46 C 18.84,14.11 19.54,13.32 19.93,12.84 C 20.78,13.21 21.77,13.68 23.12,14.43 C 23.26,14.51 23.37,14.57 23.50,14.65 C 24.31,14.32 25.06,14.43 25.56,14.56 C 24.57,13.55 23.30,12.81 22.12,12.25 C 22.15,12.20 22.18,12.17 22.21,12.12 C 23.18,10.62 22.71,9.86 22.34,10.56 C 21.36,10.49 20.67,10.94 20.12,11.40 C 20.01,11.36 19.88,11.31 19.78,11.28 C 17.01,10.29 19.39,9.28 19.00,7.90 z" id="p3402" style="fill:#f2eb4b;fill-opacity:0.49;fill-rule:evenodd;stroke:none;marker:none;visibility:visible;display:inline;overflow:visible;enable-background:accumulate"/>
<path d="M 19.00,7.90 C 18.21,8.69 16.82,9.67 15.43,10.46 C 15.43,11.65 13.46,13.63 14.25,14.03 C 15.04,14.42 16.62,12.66 17.21,11.87 L 16.71,10.62 L 17.75,10.81 L 18.18,12.15 C 18.26,12.18 18.35,12.22 18.43,12.25 L 19.03,10.93 C 17.54,10.05 19.34,9.12 19.00,7.90 z" id="p3404" style="fill:#459121;fill-opacity:0.49;fill-rule:evenodd;stroke:none;display:inline"/>
<path d="M 37.43,10.31 C 37.15,10.34 36.85,10.38 36.56,10.43 L 36.62,12 C 38.14,11.74 39.94,11.78 42.09,12.25 C 42.21,12.25 42.29,12.22 42.40,12.21 C 41.76,11.03 39.22,11.28 38.31,11.28 C 37.72,11.28 37.51,10.76 37.43,10.31 z" id="p3406" style="fill:#446d30;fill-opacity:0.49;fill-rule:evenodd;stroke:none;display:inline"/>
<path d="M 20.84,12.21 C 21.69,12.40 23.57,13.24 24.22,13.81" id="p3430" style="fill:none;fill-rule:evenodd;stroke:#f1ff85;stroke-width:0.69;stroke-linecap:round;stroke-linejoin:miter;stroke-miterlimit:4;stroke-dasharray:none;stroke-opacity:0.61"/>
<path d="M 34.37,6.95 C 34.65,7.51 35.02,8.36 35.02,9.30" id="p3432" style="fill:none;fill-opacity:1;fill-rule:evenodd;stroke:#f1ff85;stroke-width:0.69;stroke-linecap:round;stroke-linejoin:miter;marker:none;stroke-miterlimit:4;stroke-dasharray:none;stroke-dashoffset:0;stroke-opacity:0.61;visibility:visible;display:inline;overflow:visible;enable-background:accumulate"/>
<path d="M 40.66,10.80 C 41.04,10.71 42.26,10.52 42.26,10.52" id="p3434" style="fill:none;fill-opacity:1;fill-rule:evenodd;stroke:#f1ff85;stroke-width:0.69;stroke-linecap:round;stroke-linejoin:miter;marker:none;stroke-miterlimit:4;stroke-dasharray:none;stroke-dashoffset:0;stroke-opacity:0.61;visibility:visible;display:inline;overflow:visible;enable-background:accumulate"/>
<path d="M 27.89,19.16 C 27.89,19.16 28.45,19.16 29.01,18.41" id="p3436" style="fill:none;fill-rule:evenodd;stroke:#253f13;stroke-width:1px;stroke-linecap:round;stroke-linejoin:miter;stroke-opacity:0.67"/>
<path d="M 25.35,17.66 C 25.82,17.84 26.57,17.94 26.76,17.66" id="p3438" style="fill:none;fill-opacity:1;fill-rule:evenodd;stroke:#253f13;stroke-width:0.60;stroke-linecap:round;stroke-linejoin:miter;marker:none;stroke-miterlimit:4;stroke-dasharray:none;stroke-dashoffset:0;stroke-opacity:0.67;visibility:visible;display:inline;overflow:visible;enable-background:accumulate"/>
<path d="M 26.66,15.78 C 27.13,17.00 26.85,18.41 26.57,19.72" id="p3440" style="fill:none;fill-opacity:1;fill-rule:evenodd;stroke:#798f1d;stroke-width:0.60;stroke-linecap:square;stroke-linejoin:miter;marker:none;stroke-miterlimit:4;stroke-dasharray:none;stroke-dashoffset:0;stroke-opacity:1;visibility:visible;display:inline;overflow:visible;enable-background:accumulate"/>
<path d="M 29.06,21.15 C 30.21,15.14 33.25,10.34 42.09,12.25 C 44.46,12.25 44.84,10.67 41.09,10.28 C 40.89,10.26 40.63,10.26 40.40,10.25 C 40.79,9.85 41.66,9.54 42.25,9.31 C 42.62,9.41 43.34,9.38 42.81,8.90 C 42.33,8.47 40.10,8.16 38.06,10.25 C 37.17,10.32 36.24,10.46 35.28,10.75 C 35.44,10.49 35.59,10.15 35.59,9.68 C 35.59,8.34 34.77,6.89 34.34,6.09 C 34.02,6.89 33.85,7.00 33.75,7.43 C 34.65,9.00 34.57,9.55 34.56,11 C 34.08,11.17 33.59,11.37 33.12,11.62 C 33.40,10.78 33.48,9.81 33.12,9.31 C 32.42,8.34 31.03,8.15 31.78,8.90 C 32.38,9.50 32.29,10.85 32.12,12.21 C 30.98,12.98 29.93,13.99 29.06,15.40 C 29.04,15.05 29.04,14.75 29.00,14.62 C 28.73,13.87 26.39,12.49 25.96,13.25 C 26.50,13.57 26.72,14.03 26.93,14.62 C 26.73,14.68 26.47,14.94 26.18,15.28 C 25.15,13.90 23.57,12.94 22.12,12.25 C 22.15,12.20 22.18,12.17 22.21,12.12 C 23.18,10.62 22.71,9.86 22.34,10.56 C 21.36,10.49 20.67,10.94 20.12,11.40 C 20.01,11.36 19.88,11.31 19.78,11.28 C 17.01,10.29 19.39,9.28 19.00,7.90 C 18.21,8.69 16.82,9.67 15.43,10.46 C 15.43,11.65 13.46,13.63 14.25,14.03 C 15.04,14.42 16.62,12.66 17.21,11.87 C 17.58,11.96 18.12,12.09 18.93,12.40 C 18.05,13.15 16.55,14.75 16.87,15.59 C 17.73,16.07 18.04,15.21 18.09,14.46 C 18.84,14.11 19.54,13.32 19.93,12.84 C 20.78,13.21 21.77,13.68 23.12,14.43 C 24.51,15.20 25.10,15.95 25.21,16.71 C 24.87,17.38 24.59,18.14 24.50,18.84" id="stroke01" style="fill:none;fill-rule:evenodd;stroke:#384a12;stroke-width:0.5;stroke-linecap:butt;stroke-linejoin:miter;stroke-miterlimit:4;stroke-dasharray:none;stroke-opacity:1;display:inline"/>
<path d="M 13.06,44.44 C 15.62,44.05 15.82,44.05 17.40,43.85 C 26.90,44.77 34.16,39.22 35.08,34.53 C 36.44,27.57 35.97,24.49 26.09,19.56 C 16.22,14.62 9.49,20.54 7.33,27.46 C 4.37,36.94 11.08,38.71 13.06,44.44 z" id="stroke02" style="fill:none;fill-rule:evenodd;stroke:#4f0c1a;stroke-width:0.5;stroke-linecap:butt;stroke-linejoin:miter;stroke-miterlimit:4;stroke-dasharray:none;stroke-opacity:1;display:inline"/>
</g>
</svg>
