<?xml version="1.0" encoding="UTF-8" standalone="no"?>
<!DOCTYPE svg PUBLIC "-//W3C//DTD SVG 1.0//EN" "http://www.w3.org/TR/2001/REC-SVG-20010904/DTD/svg10.dtd">
<svg xmlns:svg="http://www.w3.org/2000/svg" xmlns="http://www.w3.org/2000/svg" xmlns:xlink="http://www.w3.org/1999/xlink" version="1.0" width="100%" height="100%" viewBox="0 0 48 48" id="sherry01">
<defs id="defs2385"/>
<g id="content" style="opacity:1;display:inline">
<path d="M 20.53,27.68 C 18.25,27.55 16.48,29.39 16.03,29.65 C 15.47,29.97 9.48,31.51 11,37.96 C 13.07,42.03 16.18,43.61 18.5,43.37 C 20.81,43.13 26.16,40.89 26.71,36.90 C 26.76,36.56 26.78,36.26 26.81,35.93 C 27.47,38.18 29.32,41.74 31.81,42.75 C 35.03,44.05 39.12,42.19 40.56,39.56 C 41.99,36.93 41.54,32.54 37.87,29.28 C 36.83,28.56 35.57,27.07 30.78,28.21 C 28.43,28.77 27.15,31.23 26.71,33.12 C 26.30,31.15 25.02,29.59 22.15,28.15 C 21.58,27.87 21.05,27.71 20.53,27.68 z" id="p2464" style="fill:#cf0e11;fill-opacity:1;fill-rule:evenodd;stroke:none;"/>
<path d="M 38.28,29.68 C 40.21,32.86 41.49,35.73 38.15,37.43 C 33.61,39.74 29.09,36.95 28.53,36.46 C 27.82,35.81 26.61,34.13 26.43,33.87 C 25.94,35.20 24.25,36.60 21.59,37.71 C 18.93,38.83 14.51,37.85 13.21,37.03 C 12.44,36.54 11.74,35.76 11.62,32.84 C 10.86,34.05 10.46,35.70 11,37.96 C 13.07,42.03 16.18,43.61 18.5,43.37 C 20.53,43.16 24.93,41.40 26.34,38.28 C 26.69,37.54 26.72,36.73 26.81,35.93 C 27.68,38.79 29.25,41.17 31.81,42.75 C 35.03,44.05 39.12,42.19 40.56,39.56 C 41.94,37.03 41.56,32.90 38.28,29.68 z" id="p3243" style="fill:#ba6668;fill-opacity:0.45;fill-rule:evenodd;stroke:none;"/>
<path d="M 11.03,34.12 C 10.70,35.16 10.63,36.41 11,37.96 C 13.07,42.03 16.18,43.61 18.5,43.37 C 19.61,43.25 21.44,42.67 23.09,41.65 C 21.67,41.93 19.82,42.27 18.56,42.37 C 16.80,42.52 13.35,40.11 12.40,38.87 C 11.63,37.87 11.32,35.99 11.03,34.12 z" id="p3258" style="fill:#d8b9ba;fill-opacity:0.45;fill-rule:evenodd;stroke:none;"/>
<path d="M 26.93,35.37 C 26.80,35.37 26.78,35.74 26.78,36.25 C 26.78,36.14 26.80,36.04 26.81,35.93 C 27.47,38.18 29.32,41.74 31.81,42.75 C 33.69,43.51 35.85,43.19 37.62,42.28 C 36.77,42.30 35.76,42.20 34.83,42.16 C 32.86,42.09 30.03,40.33 29.22,39.31 C 28.42,38.28 27.30,35.37 26.93,35.37 z" id="p3263" style="fill:#d8b9ba;fill-opacity:0.45;fill-rule:evenodd;stroke:none;"/>
<path d="M 17.52,35.51 C 17.38,36.67 19.06,38.04 19.42,38.06 C 20.62,38.13 22.02,38.02 23.51,36.67 C 24.16,36.08 25.41,34.78 25.63,34.26 C 25.85,33.75 23.95,32.95 23.95,32.95 C 23.95,32.95 22.34,34.56 21.61,34.78 C 20.88,34.99 17.74,35.21 17.52,35.51 z" id="p3280" style="fill:#d8b9ba;fill-opacity:0.45;fill-rule:evenodd;stroke:none;"/>
<path d="M 34.47,35.43 C 34.10,36.09 35.05,38.33 35.41,38.33 C 35.78,38.33 38.17,38.08 39.52,36.22 C 40.27,35.19 38.78,33.75 38.27,33.68 C 37.76,33.61 35.42,35.36 34.47,35.43 z" id="p3282" style="fill:#d8b9ba;fill-opacity:0.45;fill-rule:evenodd;stroke:none;"/>
<path d="M 21.25,33.31 C 19.50,34.41 18.84,33.61 18.84,33.61 L 19.35,33.24 C 19.35,33.24 20.01,33.68 20.45,33.24 C 20.88,32.80 20.88,31.56 20.88,31.56 L 21.54,31.56 C 21.54,31.56 21.91,32.66 21.25,33.31 z" id="p3284" style="fill:#f2dbdb;fill-opacity:0.81;fill-rule:evenodd;stroke:none;"/>
<path d="M 28.92,33.75 C 28.92,33.75 29.87,34.56 29.94,35.21 C 30.01,35.87 30.09,34.04 30.96,33.97 C 31.84,33.90 33.15,34.04 33.23,33.68 C 33.30,33.31 30.89,33.17 30.89,33.17 L 31.11,32.51 C 31.11,32.51 29.36,32.95 28.92,33.75 z" id="p3286" style="fill:#efddde;fill-opacity:0.76;fill-rule:evenodd;stroke:none;"/>
<path d="M 20.53,27.68 C 18.25,27.55 16.48,29.39 16.03,29.65 C 15.75,29.81 14.17,30.25 12.81,31.43 C 12.80,31.44 12.81,31.45 12.81,31.46 C 12.79,31.48 12.76,31.48 12.75,31.5 C 12.64,31.67 12.58,31.83 12.5,31.93 C 11.72,32.90 12.56,34.93 12.56,34.93 C 12.62,33.12 13.97,31.99 14.81,32.06 C 15.65,32.12 17.46,33.49 17.46,33.5 L 18.12,33.56 C 18.12,33.56 17.80,33.24 17.09,32.59 C 16.38,31.94 16.64,30.76 16.84,30.37 C 17.03,29.98 19.93,28.06 21.87,28.96 C 23.81,29.87 25.12,32.59 25.12,32.59 C 25.12,32.59 25.43,32.07 25.43,31.62 C 25.43,31.34 24.88,30.34 24.37,29.53 C 23.76,29.05 23.04,28.60 22.15,28.15 C 21.58,27.87 21.05,27.71 20.53,27.68 z" id="p3288" style="fill:#e8cecf;fill-opacity:0.83;fill-rule:evenodd;stroke:none;"/>
<path d="M 30.88,30.97 C 30.88,30.97 32.43,30.97 32.88,30.90 C 33.34,30.84 33.98,30.00 33.98,30.00 C 33.98,30.00 32.30,29.28 30.88,30.97 z" id="p3293" style="fill:#e8cecf;fill-opacity:0.66;fill-rule:evenodd;stroke:none;"/>
<path d="M 33.78,27.81 C 32.97,27.82 31.98,27.93 30.78,28.21 C 29.65,28.48 28.78,29.22 28.12,30.09 C 28.06,30.70 28.03,31.16 28.03,31.28 C 28.03,31.66 28.62,31.75 28.62,31.75 C 29.91,28.77 32.56,27.93 35.21,28.90 C 37.87,29.87 36.83,30.77 36.25,30.84 C 35.66,30.90 34.90,31.43 34.90,31.43 C 34.90,31.43 35.47,31.41 35.28,32.12 C 35.08,32.83 34.12,33.09 34.12,33.09 C 34.12,33.09 33.93,33.50 34.90,33.25 C 35.87,32.99 36.45,31.93 37.81,32 C 39.17,32.06 40.21,34.46 40.21,34.46 C 40.21,34.46 40.47,34.04 40.75,33.37 C 40.21,31.95 39.28,30.53 37.87,29.28 C 37.09,28.74 36.20,27.78 33.78,27.81 z" id="p3295" style="fill:#f9eaea;fill-opacity:0.75;fill-rule:evenodd;stroke:none;"/>
<path d="M 27.90,30.37 C 27.31,31.25 26.92,32.24 26.71,33.12 C 26.53,32.25 26.18,31.45 25.59,30.71 C 25.68,31.97 25.66,33.04 25.37,33.84 C 24.93,35.04 23.99,36.32 24.5,37.71 C 24.72,38.32 25.19,38.89 25.68,39.34 C 26.21,38.62 26.59,37.80 26.71,36.90 C 26.76,36.56 26.78,36.26 26.81,35.93 C 26.92,36.32 27.09,36.77 27.28,37.21 C 27.47,36.84 27.73,36.54 27.78,36.71 C 27.84,36.97 28.48,39.06 29.18,38.87 C 29.88,38.68 30.31,36.57 30.06,35.56 C 29.80,34.54 28.43,32.38 28.43,31.87 C 28.43,31.50 27.96,31.40 27.90,30.37 z" id="p3300" style="fill:#bb0a0d;fill-opacity:0.70;fill-rule:evenodd;stroke:none;"/>
<path d="M 14.21,34.15 C 12.96,34.14 11.75,34.57 10.78,35.43 C 10.71,36.18 10.77,37.01 11,37.96 C 13.07,42.03 16.18,43.61 18.5,43.37 C 18.73,43.35 19.02,43.28 19.31,43.21 C 20.67,41.19 20.50,38.31 18.68,36.25 C 17.49,34.89 15.82,34.16 14.21,34.15 z" id="p3308" style="opacity:1;fill:#710608;fill-opacity:0.20;fill-rule:evenodd;stroke:none;marker:none;visibility:visible;display:inline;overflow:visible;enable-background:accumulate"/>
<path d="M 34.15,33.09 L 34.57,33.43 C 34.57,33.43 36.99,32.53 36.92,31.42 C 36.85,30.31 35.12,31.35 35.12,31.35 C 35.12,31.35 36.16,32.18 34.15,33.09 z" id="p3313" style="fill:#f9f6f6;fill-opacity:0.72;fill-rule:evenodd;stroke:none;"/>
<path d="M 18.15,33.66 C 17.73,34.08 15.18,32.04 15.18,32.04 L 16.79,30.86 C 16.79,30.86 16.45,32.55 18.15,33.66 z" id="p3315" style="fill:#f9f6f6;fill-opacity:0.72;fill-rule:evenodd;stroke:none;"/>
<path d="M 20.53,27.68 C 18.25,27.55 16.48,29.39 16.03,29.65 C 15.93,29.71 15.53,29.88 15.18,30.03 C 17.55,29.57 18.85,28.71 19.49,28.71 C 20.25,28.71 22.82,29.40 23.5,30 C 23.85,30.31 24.52,30.30 24.96,30.06 C 24.27,29.39 23.36,28.75 22.15,28.15 C 21.58,27.87 21.05,27.71 20.53,27.68 z" id="p3317" style="fill:#f9f6f6;fill-opacity:0.72;fill-rule:evenodd;stroke:none;"/>
<path d="M 20.53,27.68 C 18.25,27.55 16.48,29.39 16.03,29.65 C 15.47,29.97 9.48,31.51 11,37.96 C 13.07,42.03 16.18,43.61 18.5,43.37 C 20.81,43.13 26.16,40.89 26.71,36.90 C 26.76,36.56 26.78,36.26 26.81,35.93 C 27.47,38.18 29.32,41.74 31.81,42.75 C 35.03,44.05 39.12,42.19 40.56,39.56 C 41.99,36.93 41.54,32.54 37.87,29.28 C 36.83,28.56 35.57,27.07 30.78,28.21 C 28.43,28.77 27.15,31.23 26.71,33.12 C 26.30,31.15 25.02,29.59 22.15,28.15 C 21.58,27.87 21.05,27.71 20.53,27.68 z" id="stroke01" style="fill:none;fill-opacity:1;fill-rule:evenodd;stroke:#720101;stroke-width:0.5;stroke-linecap:butt;stroke-linejoin:miter;stroke-miterlimit:4;stroke-dasharray:none;stroke-opacity:1"/>
<path d="M 17.25,31.87 C 17.25,32.76 19.89,33.29 20.21,32.76 C 20.61,32.11 19.93,31.30 19.93,31.30 C 19.93,31.30 19.97,24.01 20.70,21.25 C 21.43,18.50 23.27,14.60 24.26,12.34 C 24.57,11.65 25.24,10.80 25.24,10.80 C 25.24,10.80 28.11,16.23 28.52,17.20 C 28.92,18.18 31.19,24.90 31.68,27.09 C 32.16,29.28 32.49,30.98 32.41,31.47 C 32.33,31.95 31.51,31.79 31.60,32.44 C 31.68,33.09 33.71,33.49 34.67,32.28 C 34.99,31.88 34.11,31.55 33.78,31.06 C 33.46,30.57 31.51,22.47 30.70,20.20 C 29.89,17.93 26.57,11.05 26.57,10.64 C 26.57,10.24 26.17,9.75 26.17,9.75 C 26.17,9.75 26.41,9.75 26.49,9.18 C 26.57,8.62 26.33,7.40 26.65,6.99 C 26.98,6.59 26.90,5.54 26.65,5.21 C 26.41,4.89 25.84,4.48 25.52,4.56 C 25.19,4.65 24.47,5.62 24.47,5.94 C 24.47,6.27 24.63,7.64 24.30,7.97 C 23.98,8.29 24.30,9.26 24.30,9.26 C 24.30,9.26 23.90,10.24 23.57,10.97 C 23.25,11.69 20.62,17.89 19.97,20.62 C 19.62,22.05 18.94,27.83 18.71,29.36 C 18.35,31.84 17.54,30.73 17.25,31.87 z" id="p3323" style="fill:#90a832;fill-opacity:1;fill-rule:evenodd;stroke:none;"/>
<path d="M 19,27.37 C 18.91,28.06 18.77,29.02 18.71,29.37 C 18.61,30.09 18.46,30.49 18.31,30.75 C 18.37,31.38 18.08,32.10 17.87,32.56 C 18.07,32.66 18.31,32.74 18.56,32.81 C 18.79,32.26 19.39,32.12 19.81,32.09 C 19.99,32.08 20.08,31.85 20.12,31.59 C 20.02,31.42 19.93,31.31 19.93,31.31 C 19.93,31.31 19.93,30.88 19.93,30.59 C 19.72,30.59 19.24,30.83 19,30.65 C 18.79,30.50 18.90,29.80 19,27.37 z" id="p3329" style="fill:#315923;fill-opacity:0.74;fill-rule:evenodd;stroke:none;"/>
<path d="M 31.5,26.40 C 31.55,26.61 31.65,26.93 31.68,27.09 C 32.17,29.28 32.48,30.98 32.40,31.46 C 32.38,31.62 32.27,31.71 32.15,31.78 C 32.14,32.12 32.12,32.58 32.12,32.68 C 32.12,32.75 32.09,32.83 32.06,32.90 C 32.33,33.02 32.71,33.05 33.09,33.03 C 33.16,32.57 33.16,31.96 33,31.06 C 32.59,28.84 32.09,27.56 31.5,26.40 z" id="p3334" style="fill:#315923;fill-opacity:0.76;fill-rule:evenodd;stroke:none;"/>
<path d="M 24.46,6.25 C 24.49,6.75 24.58,7.69 24.31,7.96 C 23.98,8.29 24.31,9.28 24.31,9.28 C 24.31,9.28 23.91,10.23 23.59,10.96 C 23.35,11.50 21.84,14.95 20.81,17.84 C 20.81,17.85 20.80,17.86 20.81,17.87 C 20.97,18.43 21.18,18.77 21.46,19 C 22.33,16.64 23.53,14.02 24.28,12.34 C 24.58,11.65 25.25,10.81 25.25,10.81 C 25.25,10.81 28.12,16.24 28.53,17.21 C 28.54,17.24 28.57,17.36 28.59,17.40 C 28.60,17.42 28.61,17.42 28.62,17.43 C 29.56,18.94 30.48,20.66 31.21,21.81 C 31.04,21.22 30.84,20.57 30.71,20.21 C 29.90,17.94 26.56,11.06 26.56,10.65 C 26.56,10.25 26.18,9.75 26.18,9.75 C 26.18,9.75 26.41,9.75 26.5,9.18 C 26.58,8.62 26.33,7.40 26.65,7 C 26.69,6.94 26.72,6.88 26.75,6.81 C 26.24,6.61 25.47,6.43 24.46,6.25 z" id="p3358" style="fill:#ffec43;fill-opacity:0.52;fill-rule:evenodd;stroke:none;"/>
<path d="M 24.23,9.51 C 24.23,9.51 24.83,10.62 25.15,10.69 C 25.47,10.75 26.39,10.18 26.39,10.18" id="p3339" style="fill:none;fill-rule:evenodd;stroke:#4c2407;stroke-width:0.40;stroke-linecap:butt;stroke-linejoin:miter;stroke-miterlimit:4;stroke-dasharray:none;stroke-opacity:0.82"/>
<path d="M 24.33,9.36 C 24.33,9.36 24.99,9.36 25.50,9.36 C 26.01,9.36 26.39,9.45 26.39,9.45" id="p3341" style="fill:none;fill-rule:evenodd;stroke:#592209;stroke-width:0.40;stroke-linecap:butt;stroke-linejoin:miter;stroke-miterlimit:4;stroke-dasharray:none;stroke-opacity:0.84"/>
<path d="M 25.53,4.56 C 25.20,4.64 24.46,5.61 24.46,5.93 C 24.46,6.26 24.63,7.64 24.31,7.96 C 24.20,8.07 24.15,8.25 24.15,8.43 C 24.52,8.46 24.82,8.43 24.96,8.56 C 25.21,8.77 25.86,9.03 26.5,9.03 C 26.53,8.42 26.35,7.37 26.65,7 C 26.98,6.59 26.89,5.54 26.65,5.21 C 26.41,4.89 25.85,4.48 25.53,4.56 z" id="p3343" style="fill:#453d2e;fill-opacity:0.74;fill-rule:evenodd;stroke:none;"/>
<path d="M 26.31,4.87 C 25.90,5.44 25.59,5.97 25.56,6.34 C 25.50,6.89 25.68,8.31 25.68,8.31 L 26.5,8.46 C 26.47,7.90 26.43,7.27 26.65,7 C 26.98,6.59 26.89,5.54 26.65,5.21 C 26.57,5.10 26.45,4.98 26.31,4.87 z" id="p3353" style="fill:#d2b02b;fill-opacity:0.77;fill-rule:evenodd;stroke:none;"/>
<path d="M 25.53,4.56 C 25.20,4.64 24.46,5.61 24.46,5.93 C 24.46,5.99 24.46,6.19 24.46,6.31 C 24.57,6.34 24.69,6.37 24.87,6.37 C 25.50,6.37 26.40,6.42 26.87,6.09 C 26.86,5.73 26.77,5.38 26.65,5.21 C 26.41,4.89 25.85,4.48 25.53,4.56 z" id="p3348" style="fill:#fffcf5;fill-opacity:0.42;fill-rule:evenodd;stroke:none;"/>
<path d="M 34.67,32.28 C 34.99,31.88 34.11,31.55 33.78,31.06 C 33.46,30.57 31.51,22.47 30.70,20.20 C 29.89,17.93 26.57,11.05 26.57,10.64 C 26.57,10.24 26.17,9.75 26.17,9.75 C 26.17,9.75 26.41,9.75 26.49,9.18 C 26.57,8.62 26.33,7.40 26.65,6.99 C 26.98,6.59 26.90,5.54 26.65,5.21 C 26.41,4.89 25.84,4.48 25.52,4.56 C 25.19,4.65 24.47,5.62 24.47,5.94 C 24.47,6.27 24.63,7.64 24.30,7.97 C 23.98,8.29 24.30,9.26 24.30,9.26 C 24.30,9.26 23.90,10.24 23.57,10.97 C 23.25,11.69 20.62,17.89 19.97,20.62 C 19.62,22.05 18.94,27.83 18.71,29.36 C 18.35,31.84 17.54,30.73 17.25,31.87 M 20.21,32.76 C 20.61,32.11 19.93,31.30 19.93,31.30 C 19.93,31.30 19.97,24.01 20.70,21.25 C 21.43,18.50 23.27,14.60 24.26,12.34 C 24.57,11.65 25.24,10.80 25.24,10.80 C 25.24,10.80 28.11,16.23 28.52,17.20 C 28.92,18.18 31.19,24.90 31.68,27.09 C 32.16,29.28 32.49,30.98 32.41,31.47 C 32.33,31.95 31.51,31.79 31.60,32.44" id="stroke02" style="opacity:1;fill:none;fill-opacity:1;fill-rule:evenodd;stroke:#081705;stroke-width:0.40;stroke-linecap:round;stroke-linejoin:miter;stroke-miterlimit:4;stroke-dasharray:none;stroke-opacity:1;display:inline"/>
</g>
</svg>
