<?xml version="1.0" encoding="UTF-8" standalone="no"?>
<!DOCTYPE svg PUBLIC "-//W3C//DTD SVG 1.0//EN" "http://www.w3.org/TR/2001/REC-SVG-20010904/DTD/svg10.dtd">
<svg xmlns:svg="http://www.w3.org/2000/svg" xmlns="http://www.w3.org/2000/svg" xmlns:xlink="http://www.w3.org/1999/xlink" version="1.0" width="100%" height="100%" viewBox="0 0 48 48" id="sherry01">
<defs id="defs2385"/>
<g id="content" style="opacity:1;display:inline">
<path d="M 23.36,29.88 C 17.85,29.57 14.66,31.84 14.25,35.75 C 13.84,39.66 16.10,44.65 21.35,45.27 C 26.60,45.89 30.31,41.92 31.08,37.75 C 31.85,33.59 28.20,30.09 23.36,29.88 z" id="p2481" style="opacity:1;fill:#cf0e11;fill-opacity:1;fill-rule:evenodd;stroke:none;marker:none;visibility:visible;display:inline;overflow:visible;enable-background:accumulate"/>
<path d="M 22.41,31.98 C 22.77,30.75 24.72,19.51 25.30,15.50 C 25.89,11.50 25.98,6.15 25.83,5.78 C 25.69,5.42 25.76,3.75 26.41,3.45 C 26.92,3.53 27.46,4.18 27.61,5.06 C 27.75,5.93 27.00,7.92 27.00,8.86 C 27.00,9.81 26.56,14.59 26.34,16.12 C 26.12,17.65 24.99,22.71 24.84,24.38 C 24.70,26.06 24.08,30.16 24.38,32.35" id="p2483" style="opacity:1;fill:#90a832;fill-opacity:1;fill-rule:evenodd;stroke:none;marker:none;visibility:visible;display:inline;overflow:visible;enable-background:accumulate"/>
<path d="M 22.75,30.37 C 22.62,31.01 22.46,31.80 22.40,32 L 24.37,32.34 C 24.30,31.78 24.29,31.11 24.31,30.37 C 23.72,30.64 23.21,30.63 22.75,30.37 z" id="p2521" style="opacity:1;fill:#315923;fill-opacity:0.76;fill-rule:evenodd;stroke:none;marker:none;visibility:visible;display:inline;overflow:visible;enable-background:accumulate"/>
<path d="M 26.40,3.46 C 25.75,3.75 25.69,5.41 25.84,5.78 C 25.94,6.03 25.91,8.80 25.68,11.81 C 25.99,12.55 26.24,13.69 26.40,15.43 C 26.63,13.56 27,9.73 27,8.87 C 27,7.92 27.77,5.93 27.62,5.06 C 27.47,4.18 26.91,3.54 26.40,3.46 z" id="p2529" style="opacity:1;fill:#ffec43;fill-opacity:0.51;fill-rule:evenodd;stroke:none;marker:none;visibility:visible;display:inline;overflow:visible;enable-background:accumulate"/>
<path d="M 26.40,3.46 C 25.75,3.75 25.69,5.41 25.84,5.78 C 25.87,5.84 25.89,6.11 25.90,6.5 L 26.34,6.40 C 26.34,6.40 26.54,6.98 27.21,7.56 C 27.43,6.64 27.71,5.62 27.62,5.06 C 27.47,4.18 26.91,3.54 26.40,3.46 z" id="p2534" style="opacity:1;fill:#453d2e;fill-opacity:0.73;fill-rule:evenodd;stroke:none;marker:none;visibility:visible;display:inline;overflow:visible;enable-background:accumulate"/>
<path d="M 26.90,3.71 L 26.43,4.56 L 26.75,6 L 27.40,6.84 C 27.56,6.15 27.69,5.47 27.62,5.06 C 27.52,4.46 27.23,3.99 26.90,3.71 z" id="p2544" style="opacity:1;fill:#d2b02b;fill-opacity:0.76;fill-rule:evenodd;stroke:none;marker:none;visibility:visible;display:inline;overflow:visible;enable-background:accumulate"/>
<path d="M 26.40,3.46 C 26.00,3.64 25.85,4.31 25.81,4.90 C 26.34,4.97 26.94,4.99 27.56,4.87 C 27.37,4.10 26.87,3.53 26.40,3.46 z" id="p2539" style="opacity:1;fill:#fffcf5;fill-opacity:0.41;fill-rule:evenodd;stroke:none;marker:none;visibility:visible;display:inline;overflow:visible;enable-background:accumulate"/>
<path d="M 25.98,7.60 C 26.20,7.78 26.78,7.97 27.03,7.93" id="p2551" style="opacity:1;fill:none;fill-opacity:1;fill-rule:evenodd;stroke:#4c2407;stroke-width:0.40;stroke-linecap:butt;stroke-linejoin:miter;marker:none;stroke-miterlimit:4;stroke-dasharray:none;stroke-dashoffset:0;stroke-opacity:0.81;visibility:visible;display:inline;overflow:visible;enable-background:accumulate"/>
<path d="M 21.17,33.44 C 21.76,33.66 22.99,33.73 23.79,33.66 C 24.59,33.58 25.98,34.53 26.92,34.46" id="p2590" style="fill:none;fill-rule:evenodd;stroke:#cd6e6e;stroke-width:1px;stroke-linecap:round;stroke-linejoin:miter;stroke-opacity:0.46;display:inline"/>
<path d="M 26.56,30.56 C 27.41,31.24 27.73,31.96 27.59,32.21 C 27.30,32.72 26.13,33.22 25.18,33.15 C 24.89,33.44 24.59,34.09 24.59,34.09 C 24.59,34.09 27.65,34.61 28.96,33.59 C 29.55,34.53 30.14,36.64 29.78,38.46 C 29.56,38.17 29.03,37.53 29.03,37.53 C 29.03,37.53 28.51,42.97 24.18,45.15 C 27.90,44.36 30.46,41.11 31.09,37.75 C 31.68,34.57 29.68,31.79 26.56,30.56 z" id="p2553" style="opacity:1;fill:#f9eaea;fill-opacity:0.75;fill-rule:evenodd;stroke:none;marker:none;visibility:visible;display:inline;overflow:visible;enable-background:accumulate"/>
<path d="M 14.37,35.09 C 14.33,35.30 14.27,35.52 14.25,35.75 C 13.83,39.66 16.09,44.66 21.34,45.28 C 25.97,45.82 29.41,42.80 30.68,39.21 C 25.00,43.54 18.03,39.37 14.37,35.09 z" id="p2555" style="opacity:1;fill:#ba6668;fill-opacity:0.45;fill-rule:evenodd;stroke:none;marker:none;visibility:visible;display:inline;overflow:visible;enable-background:accumulate"/>
<path d="M 18.56,30.43 C 16.01,31.32 14.52,33.17 14.25,35.75 C 13.86,39.40 15.82,44.00 20.37,45.09 C 14.26,41.03 15.80,34.42 18.56,30.43 z" id="p2557" style="opacity:1;fill:#710608;fill-opacity:0.2;fill-rule:evenodd;stroke:none;marker:none;visibility:visible;display:inline;overflow:visible;enable-background:accumulate"/>
<path d="M 21.39,37.66 C 21.32,38.68 21.25,39.99 21.32,40.35 C 21.39,40.72 25.47,41.08 26.20,41.08 C 26.56,39.99 27.21,38.75 25.98,38.68 C 24.74,38.61 22.56,37.81 21.39,37.66 z" id="p2571" style="opacity:1;fill:#d8b9ba;fill-opacity:0.45;fill-rule:evenodd;stroke:none;marker:none;visibility:visible;display:inline;overflow:visible;enable-background:accumulate"/>
<path d="M 21.40,29.87 C 20.39,29.94 19.49,30.10 18.68,30.37 C 19.19,30.67 19.90,31.05 20.84,31.53 C 20.57,31.17 20.68,31.01 20.84,30.65 C 20.79,31.02 21.21,31.55 22.34,32.09 C 22.49,32.14 22.24,32.00 22.34,31.28 C 22.38,30.98 22.08,30.41 21.62,29.87 C 21.55,29.87 21.47,29.87 21.40,29.87 z" id="p2573" style="opacity:1;fill:#f9f6f6;fill-opacity:0.72;fill-rule:evenodd;stroke:none;marker:none;visibility:visible;display:inline;overflow:visible;enable-background:accumulate"/>
<path d="M 27.37,31.46 C 27.37,31.41 28.72,31.77 30.21,35.68 C 30.79,37.18 30.25,39.43 29.62,41.34 C 30.34,40.24 30.86,39.00 31.09,37.75 C 31.50,35.50 30.60,33.47 28.96,32.03 C 28.95,32.02 28.95,32.00 28.93,32 C 28.45,31.74 27.92,31.55 27.37,31.46 z" id="p2575" style="opacity:1;fill:#f9f6f6;fill-opacity:0.72;fill-rule:evenodd;stroke:none;marker:none;visibility:visible;display:inline;overflow:visible;enable-background:accumulate"/>
<path d="M 20.96,35.91 C 20.52,36.13 20.23,36.42 19.65,36.42" id="p2588" style="fill:none;fill-rule:evenodd;stroke:#ffb3b3;stroke-width:0.80;stroke-linecap:round;stroke-linejoin:miter;stroke-miterlimit:4;stroke-dasharray:none;stroke-opacity:0.33;display:inline"/>
<path d="M 24.81,30.31 C 26.20,30.82 27.94,32.35 24.74,32.64" id="p2592" style="fill:none;fill-rule:evenodd;stroke:#dd9b9b;stroke-width:0.5;stroke-linecap:round;stroke-linejoin:miter;stroke-miterlimit:4;stroke-dasharray:none;stroke-opacity:0.46;display:inline"/>
<path d="M 22.84,29.84 C 22.68,29.83 22.50,29.84 22.34,29.84 C 17.45,29.85 14.63,32.08 14.25,35.75 C 13.83,39.66 16.09,44.66 21.34,45.28 C 26.59,45.89 30.32,41.91 31.09,37.75 C 31.81,33.87 28.67,30.60 24.34,30" id="stroke01" style="opacity:1;fill:none;fill-opacity:1;fill-rule:evenodd;stroke:#720101;stroke-width:0.5;stroke-linecap:butt;stroke-linejoin:miter;marker:none;stroke-miterlimit:4;stroke-dasharray:none;stroke-dashoffset:0;stroke-opacity:1;visibility:visible;display:inline;overflow:visible;enable-background:accumulate"/>
<path d="M 22.41,31.98 C 22.77,30.75 24.72,19.51 25.30,15.50 C 25.89,11.50 25.98,6.15 25.83,5.78 C 25.69,5.42 25.76,3.75 26.41,3.45 C 26.92,3.53 27.46,4.18 27.61,5.06 C 27.75,5.93 27.00,7.92 27.00,8.86 C 27.00,9.81 26.56,14.59 26.34,16.12 C 26.12,17.65 24.99,22.71 24.84,24.38 C 24.70,26.06 24.08,30.16 24.38,32.35" id="stroke02" style="opacity:1;fill:none;fill-opacity:1;fill-rule:evenodd;stroke:#081705;stroke-width:0.40;stroke-linecap:round;stroke-linejoin:miter;marker:none;stroke-miterlimit:4;stroke-dasharray:none;stroke-dashoffset:0;stroke-opacity:1;visibility:visible;display:inline;overflow:visible;enable-background:accumulate"/>
</g>
</svg>
