<?xml version="1.0" encoding="UTF-8" standalone="no"?>
<!DOCTYPE svg PUBLIC "-//W3C//DTD SVG 1.0//EN" "http://www.w3.org/TR/2001/REC-SVG-20010904/DTD/svg10.dtd">
<svg xmlns:svg="http://www.w3.org/2000/svg" xmlns="http://www.w3.org/2000/svg" xmlns:xlink="http://www.w3.org/1999/xlink" version="1.0" width="100%" height="100%" viewBox="0 0 48 48" id="strawberry01">
<defs id="defs2386">
<linearGradient id="lg3349">
<stop id="s3351" style="stop-color:#f2d362;stop-opacity:1" offset="0"/>
<stop id="s3353" style="stop-color:#bd3732;stop-opacity:0.72" offset="1"/>
</linearGradient>
<radialGradient cx="18.52" cy="24.03" r="14.31" fx="18.52" fy="24.03" id="rg3355" xlink:href="#lg3349" gradientUnits="userSpaceOnUse" gradientTransform="matrix(0.84,0.45,-0.52,0.96,15.34,-7.96)"/>
</defs>
<g id="content" style="opacity:1;display:inline">
<path d="M 9.05,43.18 C 6.96,40.52 7.4,39.26 7.4,37.11 C 7.4,34.95 7.85,34.57 7.97,33.43 C 8.1,32.3 8.98,20.96 9.68,17.8 C 10.38,14.63 11.65,12.11 14.49,10.83 C 16.39,9.98 17.85,10.07 19.56,10.26 C 21.26,10.45 32.53,11.85 35.7,18.94 C 38.87,26.03 38.3,29.26 37.6,30.78 C 36.9,32.29 34.94,33.37 33.04,34.45 C 31.14,35.52 16.2,43.12 14.05,43.75 C 11.9,44.39 9.93,43.82 9.05,43.18 z" id="p2502" style="fill:#c41328;fill-opacity:1;fill-rule:evenodd;stroke:none"/>
<path d="M 24.34,11.15 C 27.26,14.65 31.42,18.42 30.78,22.12 C 30.05,26.29 27.66,32.56 25.15,34.65 C 22.65,36.74 15.01,40.8 13.65,42.37 C 13.23,42.86 12.96,43.46 13.09,43.96 C 13.4,43.92 13.73,43.84 14.06,43.75 C 16.21,43.11 31.13,35.51 33.03,34.43 C 34.93,33.36 36.89,32.3 37.59,30.78 C 38.29,29.26 38.88,26.02 35.71,18.93 C 33.69,14.4 28.37,12.2 24.34,11.15 z" id="p3280" style="fill:#63252c;fill-opacity:0.67;fill-rule:evenodd;stroke:none"/>
<path d="M 17.65,19.43 L 16.86,18.79 C 16.86,18.79 17.87,16.56 18.94,16.70 C 20.02,16.85 19.44,17.06 19.44,17.06 L 19.16,17.35 C 19.16,17.35 18.15,17.35 17.79,18.07 C 17.43,18.79 17.72,19.50 17.65,19.43 z" id="p3298" style="fill:#ffeaea;fill-opacity:0.87;fill-rule:evenodd;stroke:none;"/>
<path d="M 19.56,18.34 C 19.56,18.34 19.07,18.81 18.59,19.21 C 18.11,19.61 19.33,21.23 19.81,20.59 C 20.29,19.95 20.83,19.85 21.31,20.5 C 21.79,21.14 20.43,21.71 19.87,21.87 C 19.31,22.03 18.43,20.43 17.87,21.15 C 17.31,21.87 19.88,22.02 18.28,22.90 C 16.67,23.78 16.20,22.74 16.12,22.5 C 16.04,22.25 17.08,21.39 17.40,21.15 C 17.72,20.91 17.32,20.75 16.84,21.15 C 16.36,21.55 15.87,21.07 15.71,20.59 C 15.55,20.11 14.99,20.33 14.75,20.81 C 14.50,21.29 15.62,21.71 15.62,21.71 L 15.31,22.28 L 14.5,21.93 C 14.5,21.93 13.56,23.78 13,23.78 C 12.43,23.78 11.30,25.64 11.62,25.96 C 11.94,26.28 12.33,24.91 12.81,24.75 C 13.29,24.58 13.38,25.70 13.62,26.18 C 13.86,26.66 12.73,27.14 12.09,27.46 C 11.45,27.78 12.74,28.45 13.06,28.53 C 13.38,28.61 13.14,30.19 12.90,30.59 C 12.66,30.99 11.71,31.17 11.71,31.5 C 11.71,31.82 13.24,31.00 13.56,30.84 C 13.88,30.68 13.47,29.63 13.87,29.15 C 14.27,28.67 14.90,29.46 15.46,29.46 C 16.02,29.46 15.31,28.28 16.59,27.40 C 17.87,26.52 18.26,28.52 18.75,28.28 C 19.23,28.04 17.95,27.15 18.43,26.43 C 18.91,25.71 20.18,26.36 20.18,25.56 C 20.18,24.76 21.97,26.59 22.53,25.87 C 23.09,25.15 21.56,24.82 21.40,24.18 C 21.24,23.54 22.51,21.72 22.43,20.43 C 22.35,19.15 21.32,18.90 19.56,18.34 z M 20.06,22.84 C 20.17,22.85 20.28,22.87 20.37,22.93 C 20.73,23.20 20.67,23.88 20.25,24.43 C 19.82,24.99 19.20,25.20 18.84,24.93 C 18.48,24.67 18.54,24.02 18.96,23.46 C 19.28,23.05 19.71,22.82 20.06,22.84 z M 14.46,22.87 C 15.32,22.94 15.65,24.12 15.53,24.34 C 15.41,24.55 15.05,25.12 14.84,25.03 C 14.62,24.93 14.33,24.45 14.18,24.40 C 14.04,24.35 14.09,25.01 13.68,24.78 C 13.49,24.42 13.61,22.80 14.46,22.87 z M 16.96,24.31 C 17.00,24.31 17.05,24.33 17.09,24.34 C 17.43,24.43 17.57,24.99 17.40,25.62 C 17.24,26.25 16.83,26.68 16.5,26.59 C 16.16,26.50 16.02,25.94 16.18,25.31 C 16.31,24.84 16.57,24.45 16.84,24.34 C 16.88,24.32 16.92,24.31 16.96,24.31 z M 14.65,26.12 C 15.07,26.22 15.32,26.79 15.18,27.37 C 15.04,27.95 14.57,28.31 14.15,28.21 C 13.73,28.11 13.51,27.58 13.65,27 C 13.79,26.41 14.23,26.02 14.65,26.12 z" id="p3302" style="fill:#fab1b7;fill-opacity:1;fill-rule:evenodd;stroke:none;"/>
<path d="M 20.34,21.94 C 20.77,23.53 20.26,24.32 20.77,24.32 C 21.28,24.32 21.86,23.17 22.07,22.88 C 22.29,22.59 22.07,20.92 22.43,20.92 C 22.80,20.92 21.57,20.92 21.57,20.92 C 21.57,20.92 21.13,21.94 20.34,21.94 z" id="p3316" style="fill:#ffeaea;fill-opacity:0.84;fill-rule:evenodd;stroke:none;"/>
<path d="M 29,21.31 C 27.44,21.55 28.60,24.17 28.03,24.5 C 27.45,24.82 26.48,25.72 25.75,25.31 C 25.01,24.90 20.58,24.33 19.03,25.31 C 17.47,26.29 17.31,28.12 15.18,25.75 C 13.05,23.37 13.54,28.19 13.62,29.09 C 13.70,29.99 13.21,30.49 11.90,31.31 C 10.59,32.13 9.93,33.00 10.34,33.90 C 10.75,34.80 11.56,35.06 11.56,35.06 C 11.56,35.06 9.60,34.72 9.68,35.87 C 9.76,37.02 9.95,38.25 10.93,38.25 C 11.91,38.25 13.13,36.87 13.62,36.87 C 14.11,36.87 16.72,35.71 16.96,35.06 C 17.21,34.40 17.30,35.87 18.12,35.46 C 18.94,35.05 18.68,33.75 19.75,33.75 C 20.81,33.75 22.20,34.09 22.78,33.68 C 23.35,33.27 24.52,33.34 25.09,34 C 25.66,34.65 27.53,35.64 27.12,36.21 C 26.84,36.61 25.82,37.65 25.93,38.25 C 29.36,36.52 32.52,34.88 33.31,34.43 C 35.21,33.35 37.17,32.29 37.87,30.78 C 38.37,29.68 38.81,27.68 37.84,24.03 C 37.61,24.96 37.17,25.68 37.03,25.40 C 36.86,25.07 36.20,23.04 35.21,22.71 C 34.23,22.39 35.71,24.51 34.81,24.59 C 33.91,24.67 33.34,23.37 32.28,24.43 C 31.21,25.50 30.55,21.06 29,21.31 z M 30.68,24.56 C 30.78,24.55 30.88,24.57 30.96,24.62 C 31.30,24.80 31.38,25.32 31.12,25.81 C 30.86,26.29 30.37,26.55 30.03,26.37 C 29.69,26.19 29.61,25.63 29.87,25.15 C 30.07,24.79 30.39,24.57 30.68,24.56 z M 32.87,25.28 C 32.94,25.26 33.01,25.25 33.06,25.28 C 33.26,25.40 33.24,25.86 33,26.28 C 32.75,26.70 32.36,26.93 32.15,26.81 C 31.95,26.69 32.00,26.26 32.25,25.84 C 32.43,25.52 32.67,25.31 32.87,25.28 z M 25.40,26.12 C 25.46,26.12 25.54,26.13 25.59,26.15 C 26.01,26.31 26.13,27.00 25.87,27.71 C 25.61,28.43 25.04,28.90 24.62,28.75 C 24.20,28.59 24.08,27.86 24.34,27.15 C 24.57,26.53 25.01,26.11 25.40,26.12 z M 23.03,26.25 C 23.44,26.32 23.65,26.92 23.53,27.56 C 23.40,28.20 22.97,28.64 22.56,28.56 C 22.14,28.48 21.90,27.92 22.03,27.28 C 22.15,26.64 22.61,26.17 23.03,26.25 z M 36.15,26.90 C 36.22,26.91 36.29,26.95 36.34,27 C 36.53,27.17 36.40,27.59 36.09,27.93 C 35.78,28.27 35.37,28.39 35.18,28.21 C 34.99,28.04 35.09,27.62 35.40,27.28 C 35.64,27.02 35.94,26.88 36.15,26.90 z M 28,27 C 28.09,27.00 28.17,27.03 28.25,27.09 C 28.55,27.31 28.50,27.87 28.15,28.34 C 27.80,28.81 27.30,29.03 27,28.81 C 26.69,28.58 26.71,28.00 27.06,27.53 C 27.32,27.17 27.70,26.98 28,27 z M 29.75,27.96 C 29.81,27.95 29.88,27.96 29.93,27.96 C 30.00,27.97 30.07,28.01 30.12,28.06 C 30.31,28.24 30.21,28.66 29.90,29 C 29.59,29.33 29.16,29.45 28.96,29.28 C 28.77,29.10 28.87,28.68 29.18,28.34 C 29.36,28.15 29.56,28.01 29.75,27.96 z M 32.87,28.40 C 33.11,28.36 33.33,28.40 33.5,28.56 C 33.82,28.87 33.76,29.45 33.37,29.87 C 32.98,30.29 32.38,30.40 32.06,30.09 C 31.73,29.78 31.79,29.19 32.18,28.78 C 32.38,28.57 32.63,28.44 32.87,28.40 z M 20.56,29.12 C 20.79,29.08 21.00,29.10 21.15,29.25 C 21.45,29.53 21.32,30.12 20.90,30.53 C 20.48,30.94 19.91,31.03 19.62,30.75 C 19.33,30.46 19.42,29.91 19.84,29.5 C 20.05,29.29 20.32,29.16 20.56,29.12 z M 24.09,29.34 C 24.59,29.28 25.04,29.43 25.18,29.78 C 25.38,30.23 24.96,30.86 24.28,31.15 C 23.59,31.44 22.88,31.30 22.68,30.84 C 22.49,30.38 22.90,29.79 23.59,29.5 C 23.76,29.42 23.92,29.36 24.09,29.34 z M 26.87,30.62 C 27.15,30.62 27.33,30.79 27.31,31.12 C 27.28,31.55 26.93,32.06 26.5,32.25 C 26.06,32.43 25.72,32.24 25.75,31.81 C 25.77,31.37 26.15,30.87 26.59,30.68 C 26.70,30.64 26.78,30.62 26.87,30.62 z M 20.21,31.40 C 20.44,31.37 20.66,31.42 20.84,31.56 C 21.20,31.84 21.23,32.35 20.90,32.71 C 20.57,33.08 20.01,33.15 19.65,32.87 C 19.29,32.59 19.26,32.08 19.59,31.71 C 19.75,31.53 19.99,31.43 20.21,31.40 z" id="p3357" style="fill:#f1d7d7;fill-opacity:0.14;fill-rule:evenodd;stroke:none;"/>
<path d="M 14.95,35.64 C 15.17,36.19 16.20,35.97 16.20,35.97 L 16.09,34.95 L 14.95,35.64 z" id="p3435" style="fill:#f8dbdb;fill-opacity:0.70;fill-rule:evenodd;stroke:none;"/>
<path d="M 14.03,38.46 C 14.41,38.29 14.92,37.95 14.92,37.57 C 14.92,37.19 15.42,37.27 15.42,37.27 L 15.47,38.16 L 14.53,38.75 L 14.03,38.46 z" id="p3437" style="fill:#ffd2d2;fill-opacity:0.82;fill-rule:evenodd;stroke:none;"/>
<path d="M 17.71,36.76 L 17.20,37.36 L 17.67,37.40 L 18.10,37.02 L 17.71,36.76 z" id="p3439" style="fill:#ffd2d2;fill-opacity:0.82;fill-rule:evenodd;stroke:none;"/>
<path d="M 15.68,30.11 L 15.17,30.74 C 15.17,30.74 14.15,31.12 13.94,31.04 C 13.73,30.95 14.07,31.51 14.32,31.46 C 14.58,31.42 15.89,30.95 15.93,30.70 C 15.98,30.45 15.72,30.15 15.68,30.11 z" id="p3441" style="fill:#ffd2d2;fill-opacity:0.82;fill-rule:evenodd;stroke:none;"/>
<path d="M 7.40,39.62 C 7.50,40.64 7.88,41.69 9.06,43.18 C 9.94,43.82 11.91,44.39 14.06,43.75 C 14.29,43.68 14.72,43.49 15.21,43.28 C 14.32,42.88 13.29,42.50 12.84,42.25 C 11.76,41.65 11.39,41.99 10.31,42.59 C 9.23,43.19 8.87,41.53 8.87,40.81 C 8.87,40.28 8.39,39.95 7.40,39.62 z" id="p3443" style="fill:#decece;fill-opacity:0.16;fill-rule:evenodd;stroke:none;"/>
<path d="M 18.78,10.68 C 18.54,10.69 18.29,10.78 18.15,10.93 C 17.96,11.14 18.05,11.36 18.34,11.43 C 18.62,11.51 18.99,11.42 19.18,11.21 C 19.37,11.01 19.31,10.79 19.03,10.71 C 18.96,10.69 18.86,10.68 18.78,10.68 z M 25.06,11.12 C 24.99,11.11 24.90,11.13 24.81,11.15 C 24.45,11.23 24.08,11.54 24,11.87 C 23.91,12.20 24.14,12.38 24.5,12.31 C 24.85,12.23 25.22,11.91 25.31,11.59 C 25.37,11.34 25.27,11.16 25.06,11.12 z M 15.53,11.28 C 15.23,11.32 14.90,11.58 14.81,11.84 C 14.71,12.10 14.86,12.25 15.15,12.21 C 15.44,12.17 15.77,11.94 15.87,11.68 C 15.97,11.42 15.82,11.24 15.53,11.28 z M 20.43,11.56 C 20.07,11.54 19.64,11.77 19.46,12.06 C 19.29,12.35 19.44,12.60 19.81,12.62 C 20.17,12.64 20.60,12.41 20.78,12.12 C 20.95,11.83 20.80,11.58 20.43,11.56 z M 26.87,12.71 C 26.51,12.79 26.15,13.11 26.06,13.43 C 25.97,13.76 26.20,13.98 26.56,13.90 C 26.92,13.82 27.28,13.48 27.37,13.15 C 27.46,12.83 27.23,12.64 26.87,12.71 z M 22.43,13.21 C 22.07,13.29 21.71,13.64 21.62,13.96 C 21.53,14.29 21.76,14.48 22.12,14.40 C 22.48,14.32 22.84,14.01 22.93,13.68 C 23.02,13.36 22.79,13.14 22.43,13.21 z M 16.90,13.37 C 16.54,13.45 16.18,13.79 16.09,14.12 C 16.00,14.45 16.23,14.63 16.59,14.56 C 16.95,14.48 17.31,14.16 17.40,13.84 C 17.49,13.51 17.26,13.29 16.90,13.37 z M 18.62,14.37 C 18.55,14.37 18.45,14.39 18.37,14.43 C 18.04,14.59 17.78,15.00 17.78,15.34 C 17.77,15.68 18.01,15.84 18.34,15.68 C 18.67,15.52 18.96,15.11 18.96,14.78 C 18.97,14.52 18.83,14.36 18.62,14.37 z M 11.59,14.65 C 11.53,14.65 11.50,14.68 11.43,14.71 C 11.17,14.85 10.94,15.19 10.93,15.46 C 10.93,15.74 11.14,15.85 11.40,15.71 C 11.66,15.58 11.86,15.24 11.87,14.96 C 11.87,14.76 11.76,14.64 11.59,14.65 z M 28.59,15.40 C 28.52,15.41 28.45,15.42 28.37,15.46 C 28.04,15.63 27.75,16.03 27.75,16.37 C 27.74,16.71 28.01,16.84 28.34,16.68 C 28.67,16.52 28.92,16.11 28.93,15.78 C 28.94,15.52 28.80,15.39 28.59,15.40 z M 13.03,15.65 C 12.96,15.67 12.88,15.72 12.81,15.78 C 12.51,15.99 12.32,16.41 12.37,16.75 C 12.42,17.08 12.70,17.18 13,16.96 C 13.29,16.75 13.48,16.33 13.43,16 C 13.40,15.74 13.23,15.60 13.03,15.65 z M 21.93,16.31 C 21.86,16.31 21.80,16.33 21.71,16.37 C 21.38,16.53 21.10,16.94 21.09,17.28 C 21.08,17.61 21.35,17.75 21.68,17.59 C 22.01,17.43 22.27,17.02 22.28,16.68 C 22.28,16.43 22.14,16.30 21.93,16.31 z M 13.90,17.93 C 13.83,17.92 13.74,17.94 13.65,17.96 C 13.30,18.07 12.97,18.41 12.90,18.75 C 12.84,19.08 13.05,19.25 13.40,19.15 C 13.75,19.05 14.12,18.70 14.18,18.37 C 14.23,18.12 14.11,17.96 13.90,17.93 z M 29.65,18 C 29.58,18.00 29.51,18.02 29.43,18.06 C 29.11,18.23 28.84,18.66 28.84,19 C 28.84,19.33 29.11,19.48 29.43,19.31 C 29.76,19.14 30.03,18.71 30.03,18.37 C 30.03,18.12 29.86,17.98 29.65,18 z M 18.68,18.12 C 18.61,18.12 18.55,18.14 18.46,18.18 C 18.13,18.34 17.85,18.75 17.84,19.09 C 17.83,19.43 18.10,19.56 18.43,19.40 C 18.76,19.24 19.02,18.83 19.03,18.5 C 19.03,18.24 18.89,18.11 18.68,18.12 z M 31.62,19.09 C 31.55,19.10 31.48,19.10 31.40,19.15 C 31.09,19.34 30.82,19.78 30.84,20.12 C 30.86,20.46 31.15,20.56 31.46,20.37 C 31.78,20.18 32.01,19.77 32,19.43 C 31.98,19.18 31.83,19.06 31.62,19.09 z M 10.25,19.37 C 10.13,19.35 9.97,19.43 9.84,19.56 C 9.58,19.82 9.48,20.30 9.59,20.62 C 9.69,20.94 9.99,20.98 10.25,20.71 C 10.50,20.45 10.60,19.97 10.5,19.65 C 10.44,19.49 10.36,19.39 10.25,19.37 z M 23.90,19.46 C 23.83,19.48 23.75,19.53 23.68,19.59 C 23.40,19.82 23.21,20.29 23.28,20.62 C 23.34,20.95 23.65,21.04 23.93,20.81 C 24.22,20.58 24.41,20.11 24.34,19.78 C 24.29,19.53 24.11,19.41 23.90,19.46 z M 26.81,19.71 C 26.75,19.72 26.69,19.72 26.62,19.75 C 26.35,19.86 26.13,20.15 26.12,20.40 C 26.11,20.65 26.29,20.76 26.56,20.65 C 26.82,20.54 27.04,20.24 27.06,20 C 27.07,19.81 26.98,19.71 26.81,19.71 z M 20.68,20.12 C 20.61,20.12 20.51,20.14 20.43,20.18 C 20.10,20.34 19.85,20.75 19.84,21.09 C 19.83,21.43 20.07,21.56 20.40,21.40 C 20.73,21.24 21.02,20.83 21.03,20.5 C 21.03,20.24 20.89,20.11 20.68,20.12 z M 12.06,20.25 C 11.94,20.21 11.79,20.25 11.65,20.37 C 11.37,20.60 11.20,21.07 11.28,21.40 C 11.35,21.73 11.62,21.82 11.90,21.59 C 12.18,21.35 12.35,20.89 12.28,20.56 C 12.24,20.39 12.17,20.28 12.06,20.25 z M 15.56,20.25 C 15.50,20.25 15.44,20.27 15.37,20.31 C 15.11,20.44 14.88,20.75 14.87,21.03 C 14.86,21.30 15.08,21.44 15.34,21.31 C 15.60,21.17 15.80,20.84 15.81,20.56 C 15.81,20.35 15.73,20.24 15.56,20.25 z M 33.56,20.5 C 33.44,20.50 33.31,20.59 33.21,20.75 C 33.02,21.06 33.01,21.55 33.18,21.84 C 33.35,22.13 33.64,22.12 33.84,21.81 C 34.03,21.50 34.07,21.00 33.90,20.71 C 33.82,20.57 33.68,20.49 33.56,20.5 z M 17.37,21.56 C 17.30,21.56 17.23,21.58 17.15,21.62 C 16.82,21.78 16.57,22.19 16.56,22.53 C 16.55,22.86 16.79,23.03 17.12,22.87 C 17.45,22.71 17.74,22.30 17.75,21.96 C 17.75,21.71 17.58,21.55 17.37,21.56 z M 13.25,21.59 C 13.18,21.61 13.09,21.65 13.03,21.71 C 12.76,21.96 12.63,22.45 12.71,22.78 C 12.80,23.10 13.07,23.15 13.34,22.90 C 13.61,22.65 13.77,22.20 13.68,21.87 C 13.62,21.63 13.44,21.52 13.25,21.59 z M 10.06,21.84 C 9.97,21.86 9.89,21.92 9.84,22.06 C 9.73,22.33 9.79,22.74 9.96,22.93 C 10.14,23.13 10.36,23.05 10.46,22.78 C 10.57,22.51 10.51,22.13 10.34,21.93 C 10.25,21.83 10.15,21.81 10.06,21.84 z M 29.12,22.75 C 29.05,22.76 28.98,22.79 28.90,22.84 C 28.59,23.04 28.37,23.47 28.40,23.81 C 28.43,24.14 28.69,24.26 29,24.06 C 29.30,23.86 29.53,23.43 29.5,23.09 C 29.47,22.84 29.33,22.71 29.12,22.75 z M 26.40,22.96 C 26.33,22.97 26.23,22.99 26.15,23.03 C 25.82,23.19 25.57,23.59 25.56,23.93 C 25.55,24.27 25.79,24.41 26.12,24.25 C 26.45,24.08 26.74,23.68 26.75,23.34 C 26.75,23.09 26.61,22.95 26.40,22.96 z M 11.65,23.34 C 11.53,23.34 11.41,23.43 11.31,23.59 C 11.11,23.90 11.08,24.39 11.25,24.68 C 11.41,24.98 11.70,24.96 11.90,24.65 C 12.10,24.34 12.13,23.85 11.96,23.56 C 11.88,23.41 11.77,23.33 11.65,23.34 z M 14.75,23.34 C 14.69,23.34 14.63,23.36 14.56,23.40 C 14.28,23.56 14.03,23.97 14.03,24.31 C 14.02,24.65 14.25,24.78 14.53,24.62 C 14.80,24.46 15.05,24.08 15.06,23.75 C 15.06,23.49 14.92,23.33 14.75,23.34 z M 19.75,23.37 C 19.67,23.37 19.61,23.39 19.53,23.43 C 19.20,23.59 18.91,24.00 18.90,24.34 C 18.89,24.68 19.17,24.81 19.5,24.65 C 19.82,24.49 20.08,24.08 20.09,23.75 C 20.09,23.49 19.96,23.36 19.75,23.37 z M 23.06,23.37 C 22.99,23.37 22.89,23.39 22.81,23.43 C 22.48,23.59 22.22,24.00 22.21,24.34 C 22.21,24.68 22.45,24.81 22.78,24.65 C 23.11,24.49 23.39,24.08 23.40,23.75 C 23.41,23.49 23.27,23.36 23.06,23.37 z M 35.43,24.15 C 35.31,24.16 35.19,24.21 35.09,24.37 C 34.89,24.68 34.89,25.17 35.06,25.46 C 35.23,25.75 35.52,25.74 35.71,25.43 C 35.91,25.12 35.95,24.63 35.78,24.34 C 35.69,24.19 35.55,24.14 35.43,24.15 z M 30.78,24.78 C 30.71,24.78 30.61,24.80 30.53,24.84 C 30.20,25.00 29.94,25.41 29.93,25.75 C 29.92,26.08 30.17,26.22 30.5,26.06 C 30.82,25.90 31.11,25.49 31.12,25.15 C 31.13,24.90 30.99,24.76 30.78,24.78 z M 17.06,24.84 C 16.99,24.84 16.89,24.86 16.81,24.90 C 16.48,25.06 16.22,25.47 16.21,25.81 C 16.21,26.15 16.45,26.28 16.78,26.12 C 17.11,25.96 17.39,25.55 17.40,25.21 C 17.41,24.96 17.27,24.83 17.06,24.84 z M 10.37,24.87 C 10.28,24.89 10.21,24.98 10.15,25.12 C 10.04,25.39 10.07,25.77 10.25,25.96 C 10.42,26.16 10.67,26.11 10.78,25.84 C 10.88,25.57 10.82,25.19 10.65,25 C 10.56,24.90 10.46,24.85 10.37,24.87 z M 9.18,25.03 C 9.07,25.06 8.96,25.17 8.90,25.34 C 8.78,25.68 8.86,26.15 9.09,26.40 C 9.32,26.65 9.62,26.56 9.75,26.21 C 9.87,25.87 9.76,25.40 9.53,25.15 C 9.41,25.03 9.30,24.99 9.18,25.03 z M 12.96,25.37 C 12.85,25.35 12.72,25.40 12.59,25.53 C 12.32,25.78 12.18,26.23 12.28,26.56 C 12.37,26.88 12.63,26.96 12.90,26.71 C 13.17,26.46 13.34,25.98 13.25,25.65 C 13.20,25.49 13.08,25.39 12.96,25.37 z M 32.71,25.43 C 32.62,25.44 32.52,25.47 32.43,25.59 C 32.26,25.82 32.19,26.21 32.31,26.43 C 32.42,26.65 32.67,26.63 32.84,26.40 C 33.01,26.17 33.05,25.81 32.93,25.59 C 32.87,25.48 32.81,25.43 32.71,25.43 z M 23.03,26.53 C 22.96,26.54 22.88,26.57 22.81,26.62 C 22.51,26.83 22.32,27.29 22.37,27.62 C 22.42,27.95 22.70,28.05 23,27.84 C 23.29,27.63 23.48,27.17 23.43,26.84 C 23.40,26.59 23.23,26.48 23.03,26.53 z M 14.68,26.56 C 14.56,26.53 14.41,26.59 14.28,26.71 C 14.01,26.97 13.87,27.42 13.96,27.75 C 14.06,28.07 14.35,28.12 14.62,27.87 C 14.89,27.62 15.03,27.16 14.93,26.84 C 14.89,26.68 14.80,26.58 14.68,26.56 z M 19.90,26.75 C 19.83,26.75 19.73,26.77 19.65,26.81 C 19.32,26.97 19.07,27.38 19.06,27.71 C 19.05,28.05 19.29,28.19 19.62,28.03 C 19.95,27.86 20.24,27.46 20.25,27.12 C 20.25,26.87 20.11,26.73 19.90,26.75 z M 25.46,26.96 C 25.39,26.97 25.30,26.99 25.21,27.03 C 24.88,27.19 24.63,27.59 24.62,27.93 C 24.61,28.27 24.85,28.44 25.18,28.28 C 25.51,28.11 25.80,27.71 25.81,27.37 C 25.81,27.12 25.68,26.95 25.46,26.96 z M 36.06,27.06 C 35.99,27.07 35.92,27.10 35.84,27.15 C 35.53,27.35 35.31,27.78 35.34,28.12 C 35.37,28.46 35.66,28.57 35.96,28.37 C 36.27,28.17 36.50,27.71 36.46,27.37 C 36.44,27.12 36.27,27.02 36.06,27.06 z M 11.21,27.12 C 11.09,27.11 10.98,27.16 10.87,27.31 C 10.65,27.60 10.57,28.09 10.71,28.40 C 10.86,28.71 11.15,28.72 11.37,28.43 C 11.59,28.14 11.67,27.65 11.53,27.34 C 11.46,27.19 11.33,27.13 11.21,27.12 z M 27.93,27.34 C 27.86,27.34 27.77,27.34 27.68,27.37 C 27.34,27.50 27.03,27.88 27,28.21 C 26.96,28.55 27.21,28.72 27.56,28.59 C 27.90,28.46 28.21,28.08 28.25,27.75 C 28.27,27.49 28.14,27.35 27.93,27.34 z M 17.18,28.15 C 17.11,28.16 17.01,28.20 16.93,28.25 C 16.60,28.41 16.35,28.78 16.34,29.12 C 16.33,29.46 16.57,29.63 16.90,29.46 C 17.23,29.30 17.52,28.90 17.53,28.56 C 17.53,28.30 17.39,28.14 17.18,28.15 z M 29.68,28.34 C 29.63,28.34 29.59,28.37 29.53,28.40 C 29.26,28.51 29.01,28.78 29,29.03 C 28.98,29.27 29.20,29.39 29.46,29.28 C 29.73,29.16 29.95,28.87 29.96,28.62 C 29.97,28.44 29.85,28.33 29.68,28.34 z M 33.09,28.78 C 32.73,28.85 32.37,29.20 32.28,29.53 C 32.19,29.85 32.42,30.04 32.78,29.96 C 33.13,29.89 33.50,29.57 33.59,29.25 C 33.68,28.92 33.45,28.70 33.09,28.78 z M 12.81,28.87 C 12.74,28.87 12.64,28.89 12.56,28.93 C 12.23,29.09 11.97,29.50 11.96,29.84 C 11.96,30.18 12.20,30.34 12.53,30.18 C 12.86,30.02 13.14,29.61 13.15,29.28 C 13.16,29.02 13.02,28.86 12.81,28.87 z M 20.84,29.34 C 20.77,29.33 20.68,29.34 20.59,29.37 C 20.24,29.49 19.92,29.88 19.87,30.21 C 19.82,30.55 20.09,30.71 20.43,30.59 C 20.78,30.47 21.11,30.11 21.15,29.78 C 21.19,29.53 21.05,29.35 20.84,29.34 z M 14.71,29.65 C 14.64,29.65 14.57,29.68 14.5,29.71 C 14.21,29.85 14.04,30.16 14.12,30.43 C 14.20,30.71 14.49,30.85 14.78,30.71 C 15.06,30.58 15.24,30.24 15.15,29.96 C 15.09,29.76 14.92,29.64 14.71,29.65 z M 24.03,29.78 C 23.96,29.77 23.90,29.78 23.81,29.81 C 23.46,29.91 23.12,30.26 23.06,30.59 C 22.99,30.92 23.21,31.10 23.56,31 C 23.91,30.89 24.28,30.55 24.34,30.21 C 24.39,29.96 24.24,29.80 24.03,29.78 z M 10.93,29.96 C 10.81,29.94 10.69,29.99 10.56,30.12 C 10.30,30.38 10.17,30.86 10.28,31.18 C 10.38,31.50 10.68,31.54 10.93,31.28 C 11.19,31.01 11.32,30.57 11.21,30.25 C 11.16,30.08 11.05,29.98 10.93,29.96 z M 9.56,30.12 C 9.44,30.12 9.32,30.19 9.21,30.34 C 9.00,30.64 8.94,31.13 9.09,31.43 C 9.24,31.74 9.53,31.73 9.75,31.43 C 9.96,31.14 10.02,30.64 9.87,30.34 C 9.79,30.19 9.68,30.12 9.56,30.12 z M 17.96,30.62 C 17.67,30.64 17.38,30.77 17.21,30.96 C 17.00,31.22 17.11,31.48 17.46,31.56 C 17.82,31.64 18.28,31.50 18.5,31.25 C 18.71,30.99 18.60,30.70 18.25,30.62 C 18.16,30.60 18.06,30.61 17.96,30.62 z M 26.93,30.81 C 26.86,30.80 26.77,30.81 26.68,30.84 C 26.33,30.95 26.02,31.29 25.96,31.62 C 25.90,31.95 26.14,32.13 26.5,32.03 C 26.85,31.92 27.15,31.58 27.21,31.25 C 27.26,31.00 27.14,30.83 26.93,30.81 z M 29.96,30.87 C 29.89,30.86 29.80,30.87 29.71,30.90 C 29.36,31.01 29.02,31.35 28.96,31.68 C 28.91,32.02 29.15,32.20 29.5,32.09 C 29.84,31.98 30.19,31.64 30.25,31.31 C 30.29,31.06 30.18,30.89 29.96,30.87 z M 35.09,31.09 C 34.73,31.17 34.37,31.48 34.28,31.81 C 34.19,32.13 34.42,32.35 34.78,32.28 C 35.13,32.20 35.50,31.85 35.59,31.53 C 35.68,31.20 35.45,31.01 35.09,31.09 z M 20.71,31.62 C 20.64,31.61 20.58,31.63 20.5,31.65 C 20.15,31.75 19.82,32.07 19.78,32.37 C 19.73,32.67 19.96,32.81 20.31,32.71 C 20.65,32.61 20.98,32.29 21.03,32 C 21.06,31.77 20.93,31.64 20.71,31.62 z M 13.09,31.78 C 13.02,31.78 12.95,31.80 12.87,31.84 C 12.55,32.01 12.27,32.44 12.28,32.78 C 12.28,33.11 12.55,33.26 12.87,33.09 C 13.19,32.92 13.47,32.49 13.46,32.15 C 13.46,31.90 13.30,31.76 13.09,31.78 z M 15.53,31.87 C 15.35,31.88 15.18,31.93 15.06,32.03 C 14.82,32.23 14.86,32.52 15.15,32.68 C 15.44,32.84 15.88,32.82 16.12,32.62 C 16.36,32.42 16.32,32.13 16.03,31.96 C 15.88,31.88 15.70,31.86 15.53,31.87 z M 32.46,32.15 C 32.39,32.16 32.30,32.17 32.21,32.21 C 31.88,32.38 31.63,32.78 31.62,33.12 C 31.61,33.46 31.85,33.59 32.18,33.43 C 32.51,33.27 32.80,32.86 32.81,32.53 C 32.81,32.27 32.68,32.14 32.46,32.15 z M 23.81,32.37 C 23.74,32.36 23.65,32.37 23.56,32.40 C 23.21,32.51 22.87,32.88 22.81,33.21 C 22.75,33.55 22.99,33.73 23.34,33.62 C 23.69,33.51 24.03,33.14 24.09,32.81 C 24.14,32.56 24.02,32.39 23.81,32.37 z M 11.56,32.81 C 11.44,32.78 11.29,32.84 11.15,32.96 C 10.88,33.21 10.73,33.67 10.81,34 C 10.89,34.32 11.16,34.39 11.43,34.15 C 11.71,33.91 11.89,33.45 11.81,33.12 C 11.77,32.96 11.67,32.84 11.56,32.81 z M 9.81,32.90 C 9.69,32.90 9.54,32.97 9.43,33.12 C 9.22,33.42 9.19,33.91 9.34,34.21 C 9.49,34.51 9.78,34.51 10,34.21 C 10.21,33.91 10.27,33.42 10.12,33.12 C 10.04,32.97 9.93,32.90 9.81,32.90 z M 26.56,33.03 C 26.49,33.04 26.39,33.07 26.31,33.12 C 25.99,33.30 25.76,33.72 25.78,34.06 C 25.79,34.40 26.05,34.52 26.37,34.34 C 26.69,34.16 26.95,33.74 26.93,33.40 C 26.92,33.15 26.77,33.00 26.56,33.03 z M 29,33.53 C 28.92,33.53 28.86,33.55 28.78,33.59 C 28.45,33.75 28.19,34.16 28.18,34.5 C 28.17,34.83 28.42,35.00 28.75,34.84 C 29.07,34.68 29.36,34.27 29.37,33.93 C 29.38,33.68 29.21,33.51 29,33.53 z M 17.56,33.87 C 17.27,33.91 16.98,34.07 16.84,34.28 C 16.64,34.55 16.79,34.82 17.15,34.87 C 17.51,34.92 17.96,34.74 18.15,34.46 C 18.35,34.19 18.20,33.92 17.84,33.87 C 17.75,33.86 17.65,33.86 17.56,33.87 z M 15.18,33.96 C 15.11,33.97 15.01,33.99 14.93,34.03 C 14.60,34.19 14.35,34.59 14.34,34.93 C 14.33,35.27 14.57,35.41 14.90,35.25 C 15.23,35.08 15.52,34.68 15.53,34.34 C 15.53,34.09 15.39,33.95 15.18,33.96 z M 20.31,34.18 C 19.94,34.21 19.53,34.50 19.40,34.81 C 19.27,35.12 19.47,35.37 19.84,35.34 C 20.20,35.31 20.58,35.03 20.71,34.71 C 20.84,34.40 20.67,34.15 20.31,34.18 z M 22.87,34.68 C 22.51,34.73 22.11,35.02 22,35.34 C 21.88,35.66 22.07,35.85 22.43,35.81 C 22.80,35.76 23.19,35.47 23.31,35.15 C 23.42,34.83 23.23,34.64 22.87,34.68 z M 8.28,34.78 C 8.18,34.78 8.08,34.85 8,34.96 C 7.83,35.20 7.78,35.56 7.90,35.78 C 8.02,35.99 8.23,35.98 8.40,35.75 C 8.57,35.51 8.61,35.15 8.5,34.93 C 8.44,34.82 8.37,34.77 8.28,34.78 z M 12.81,34.93 C 12.74,34.94 12.67,34.95 12.59,35 C 12.26,35.16 11.97,35.56 11.96,35.90 C 11.96,36.24 12.23,36.38 12.56,36.21 C 12.89,36.05 13.14,35.65 13.15,35.31 C 13.16,35.05 13.02,34.92 12.81,34.93 z M 25.43,34.96 C 25.36,34.96 25.27,34.97 25.18,35 C 24.83,35.10 24.50,35.48 24.43,35.81 C 24.37,36.14 24.61,36.32 24.96,36.21 C 25.32,36.11 25.65,35.73 25.71,35.40 C 25.76,35.15 25.64,34.99 25.43,34.96 z M 29.68,35.06 C 29.61,35.06 29.51,35.08 29.43,35.12 C 29.10,35.28 28.85,35.69 28.84,36.03 C 28.83,36.36 29.07,36.50 29.40,36.34 C 29.73,36.18 30.02,35.77 30.03,35.43 C 30.03,35.18 29.89,35.05 29.68,35.06 z M 17,35.96 C 16.92,35.97 16.83,35.99 16.75,36.03 C 16.42,36.19 16.16,36.59 16.15,36.93 C 16.14,37.27 16.38,37.41 16.71,37.25 C 17.04,37.08 17.33,36.68 17.34,36.34 C 17.34,36.09 17.21,35.95 17,35.96 z M 19.68,36.09 C 19.61,36.07 19.52,36.10 19.43,36.12 C 19.07,36.19 18.72,36.48 18.62,36.81 C 18.52,37.13 18.73,37.35 19.09,37.28 C 19.45,37.21 19.84,36.88 19.93,36.56 C 20.00,36.31 19.89,36.13 19.68,36.09 z M 10.96,36.15 C 10.90,36.15 10.85,36.15 10.78,36.18 C 10.48,36.32 10.22,36.67 10.21,36.96 C 10.21,37.26 10.45,37.38 10.75,37.25 C 11.04,37.11 11.27,36.76 11.28,36.46 C 11.28,36.24 11.15,36.14 10.96,36.15 z M 22.12,36.62 C 22.05,36.61 21.96,36.63 21.87,36.65 C 21.52,36.75 21.18,37.10 21.12,37.43 C 21.06,37.76 21.30,37.94 21.65,37.84 C 22.00,37.74 22.34,37.39 22.40,37.06 C 22.45,36.81 22.33,36.64 22.12,36.62 z M 9.34,36.75 C 9.24,36.73 9.13,36.78 9.03,36.90 C 8.82,37.13 8.74,37.53 8.84,37.81 C 8.94,38.08 9.19,38.10 9.40,37.87 C 9.61,37.64 9.69,37.24 9.59,36.96 C 9.54,36.83 9.44,36.76 9.34,36.75 z M 25.06,36.81 C 24.99,36.80 24.90,36.82 24.81,36.84 C 24.45,36.92 24.08,37.23 24,37.56 C 23.91,37.88 24.14,38.11 24.5,38.03 C 24.85,37.94 25.22,37.60 25.31,37.28 C 25.37,37.03 25.27,36.84 25.06,36.81 z M 14.25,36.93 C 14.18,36.94 14.10,36.96 14.03,37 C 13.73,37.14 13.50,37.50 13.5,37.81 C 13.49,38.12 13.70,38.24 14,38.09 C 14.29,37.94 14.55,37.58 14.56,37.28 C 14.56,37.05 14.44,36.92 14.25,36.93 z M 17.37,38.18 C 17.31,38.19 17.25,38.22 17.18,38.25 C 16.92,38.36 16.69,38.65 16.68,38.90 C 16.68,39.15 16.89,39.27 17.15,39.15 C 17.41,39.03 17.64,38.71 17.65,38.46 C 17.66,38.28 17.54,38.17 17.37,38.18 z M 12.06,38.5 C 11.99,38.50 11.91,38.52 11.84,38.56 C 11.54,38.70 11.31,39.06 11.31,39.37 C 11.30,39.68 11.54,39.83 11.84,39.68 C 12.13,39.54 12.36,39.15 12.37,38.84 C 12.38,38.61 12.25,38.48 12.06,38.5 z M 20.37,38.53 C 20.31,38.53 20.25,38.53 20.18,38.56 C 19.92,38.68 19.69,39.00 19.68,39.25 C 19.68,39.49 19.89,39.58 20.15,39.46 C 20.41,39.35 20.64,39.06 20.65,38.81 C 20.66,38.62 20.54,38.52 20.37,38.53 z M 14.5,39.03 C 14.43,39.02 14.39,39.03 14.31,39.06 C 13.99,39.16 13.67,39.47 13.62,39.78 C 13.57,40.08 13.77,40.25 14.09,40.15 C 14.40,40.05 14.72,39.70 14.78,39.40 C 14.82,39.17 14.69,39.04 14.5,39.03 z M 16.65,39.90 C 16.59,39.90 16.53,39.90 16.46,39.93 C 16.20,40.05 16.00,40.34 16,40.59 C 15.99,40.84 16.20,40.96 16.46,40.84 C 16.73,40.72 16.93,40.43 16.93,40.18 C 16.94,40.00 16.82,39.89 16.65,39.90 z M 19.37,40 C 19.09,40.06 18.83,40.32 18.78,40.56 C 18.72,40.80 18.90,40.94 19.18,40.87 C 19.46,40.80 19.72,40.55 19.78,40.31 C 19.83,40.07 19.65,39.93 19.37,40 z M 11.28,40.12 C 11.21,40.12 11.16,40.12 11.09,40.15 C 10.81,40.28 10.62,40.63 10.68,40.90 C 10.75,41.18 11.03,41.28 11.31,41.15 C 11.59,41.02 11.78,40.71 11.71,40.43 C 11.67,40.23 11.48,40.11 11.28,40.12 z M 14.28,41.06 C 14.00,41.12 13.74,41.38 13.68,41.62 C 13.63,41.86 13.81,42.00 14.09,41.93 C 14.37,41.87 14.63,41.61 14.68,41.37 C 14.74,41.13 14.56,40.99 14.28,41.06 z M 9.40,41.37 C 9.23,41.37 9.06,41.42 8.93,41.5 C 8.69,41.65 8.71,41.92 9,42.09 C 9.28,42.26 9.72,42.25 9.96,42.09 C 10.21,41.93 10.18,41.69 9.90,41.53 C 9.76,41.44 9.57,41.37 9.40,41.37 z" id="p2486" style="opacity:1;fill:url(#rg3355);fill-opacity:1;fill-rule:evenodd;stroke:none;marker:none;visibility:visible;display:inline;overflow:visible;enable-background:accumulate"/>
<path d="M 9.05,43.18 C 6.96,40.52 7.4,39.26 7.4,37.11 C 7.4,34.95 7.85,34.57 7.97,33.43 C 8.1,32.3 8.98,20.96 9.68,17.8 C 10.38,14.63 11.65,12.11 14.49,10.83 C 16.39,9.98 17.85,10.07 19.56,10.26 C 21.26,10.45 32.53,11.85 35.7,18.94 C 38.87,26.03 38.3,29.26 37.6,30.78 C 36.9,32.29 34.94,33.37 33.04,34.45 C 31.14,35.52 16.2,43.12 14.05,43.75 C 11.9,44.39 9.93,43.82 9.05,43.18 z" id="stroke01" style="fill:none;fill-opacity:1;fill-rule:evenodd;stroke:#3a0f13;stroke-width:0.5;stroke-linecap:butt;stroke-linejoin:miter;stroke-miterlimit:4;stroke-dasharray:none;stroke-opacity:1;display:inline"/>
<path d="M 42.31,18.86 C 42.31,18.86 42.36,18.14 42.22,17.76 C 42.07,17.38 40.16,14.85 39.35,14.56 C 38.54,14.27 37.11,15.09 36.82,15.13 C 36.53,15.18 35.96,14.8 35.2,14.99 C 34.43,15.18 33.48,15.42 33.48,15.61 C 33.48,15.8 34.96,16.23 35.15,16.14 C 35.34,16.04 35.48,15.76 35.82,15.8 C 36.15,15.85 37.06,16.52 37.49,16.57 C 37.92,16.62 38.87,16.57 39.4,16.76 C 39.92,16.95 41.5,17.47 41.83,17.9 C 42.17,18.33 42.31,19 42.31,18.86 z" id="p3299" style="fill:#3c5b1d;fill-opacity:1;fill-rule:evenodd;stroke:none"/>
<path d="M 37.2,22.11 C 37.63,23.11 37.82,23.49 38.49,23.68 C 39.16,23.87 40.12,23.4 40.12,23.4 C 40.12,23.4 39.49,23.64 39.02,23.25 C 38.54,22.87 38.16,21.77 37.68,20.96 C 37.2,20.15 37.2,21.68 37.2,22.11 z" id="p3301" style="fill:#545536;fill-opacity:1;fill-rule:evenodd;stroke:none"/>
<path d="M 29.33,8.68 C 29.33,8.68 29.04,9.17 29.09,9.42 C 29.14,9.66 29.28,9.56 29.28,9.91 C 29.28,10.25 28.25,11.14 28.25,11.63 C 28.25,12.12 32.23,15.26 32.33,14.77 C 32.43,14.28 31.89,12.46 30.66,10.84 C 29.43,9.22 29.33,8.58 29.33,8.68 z" id="p3287" style="fill:#647139;fill-opacity:1;fill-rule:evenodd;stroke:none"/>
<path d="M 37.64,2.59 C 36.66,3.22 34.64,4.6 33.71,5.53 C 32.77,6.47 31.3,8.53 30.91,9.56 C 30.51,10.6 29.92,12.32 29.83,12.76 C 29.73,13.2 31.05,14.92 31.25,14.09 C 31.45,13.25 31.15,11.58 32.73,8.97 C 34.3,6.37 36.61,4.99 37.44,4.65 C 38.28,4.31 38.33,4.06 38.33,4.06 C 38.33,4.06 37.89,3.91 37.79,3.57 C 37.69,3.22 37.69,2.54 37.64,2.59 z" id="p3289" style="fill:#716b39;fill-opacity:1;fill-rule:evenodd;stroke:none"/>
<path d="M 34.29,16.23 C 34.96,17.71 36.15,19.62 36.39,21.3 C 36.63,22.97 36.77,23.83 37.06,24.11 C 37.35,24.4 37.92,22.97 38.01,22.11 C 38.11,21.25 37.3,18.81 35.96,16.85 C 34.62,14.9 33.76,15.52 32.9,15.09 C 32.04,14.66 34.34,16.28 34.29,16.23 z" id="p3297" style="fill:#737b2e;fill-opacity:1;fill-rule:evenodd;stroke:none"/>
<path d="M 17.47,9.09 C 17.47,9.09 19.34,10.69 20.81,10.97 C 22.27,11.24 25.89,11.45 26.37,11.45 C 26.86,11.45 24.91,10.34 23.31,10.13 C 21.71,9.92 20.74,9.85 20.74,9.85 L 17.47,9.09 z" id="p3291" style="fill:#928946;fill-opacity:1;fill-rule:evenodd;stroke:none"/>
<path d="M 29.11,11.57 C 29.97,11.91 30.45,12.58 30.36,12.92 C 30.26,13.26 28.55,13.51 27.78,13.22 L 26.84,11.39 C 26.84,11.39 28.43,11.38 29.11,11.57 z" id="p3293" style="fill:#74762d;fill-opacity:1;fill-rule:evenodd;stroke:none"/>
<path d="M 28.23,13.32 C 27.49,13.24 26.17,13.06 25.35,12.1 C 24.53,11.14 23.72,10.37 24.77,9.31 C 25.5,8.59 26.7,9.12 26.7,9.12 L 27.28,11.38 C 27.39,11.91 27.71,12.69 28.23,13.32 z" id="p3295" style="opacity:1;fill:#76ac2b;fill-opacity:1;fill-rule:evenodd;stroke:none;display:inline"/>
<path d="M 29.24,13.5 C 28.89,14.92 29.33,15.76 29.73,16.44 C 30.12,17.13 30.61,18.95 30.66,19.64 C 30.71,20.33 31.25,19.05 31.69,18.85 C 32.14,18.66 33.66,19.05 34.25,18.51 C 34.84,17.97 34.89,16.54 34.74,16 C 34.59,15.46 34.79,15.22 34.79,15.22 C 34.79,15.22 34.25,15.41 33.71,15.07 C 33.17,14.72 30.86,13 30.46,12.81 C 30.07,12.61 29.43,13.1 29.24,13.5 z" id="p3285" style="fill:#6b7f2b;fill-opacity:1;fill-rule:evenodd;stroke:none"/>
<path d="M 37.43,23.9 C 37.61,24.07 37.53,23.8 37.75,23.21 C 37.93,23.46 38.16,23.59 38.5,23.68 C 39.16,23.87 40.12,23.4 40.12,23.4 C 40.12,23.4 39.5,23.63 39.03,23.25 C 38.66,22.95 38.31,22.25 37.96,21.56 C 37.8,20.45 37.08,18.48 35.96,16.84 C 35.72,16.48 35.49,16.24 35.28,16.03 C 35.42,15.91 35.55,15.77 35.81,15.81 C 36.14,15.86 37.07,16.51 37.5,16.56 C 37.92,16.61 38.88,16.55 39.4,16.75 C 39.93,16.94 41.5,17.47 41.84,17.9 C 42.17,18.33 42.31,19.01 42.31,18.87 C 42.31,18.87 42.36,18.16 42.21,17.78 C 42.07,17.39 40.15,14.84 39.34,14.56 C 38.53,14.27 37.09,15.07 36.81,15.12 C 36.52,15.17 35.95,14.8 35.18,15 C 34.86,15.07 34.55,15.16 34.25,15.25 C 34.08,15.22 33.9,15.17 33.71,15.06 C 33.47,14.9 32.83,14.44 32.21,14 C 32.09,13.49 31.88,12.8 31.5,12.09 C 31.65,11.26 31.96,10.22 32.71,8.96 C 34.29,6.36 36.6,5 37.43,4.65 C 38.27,4.31 38.34,4.06 38.34,4.06 C 38.34,4.06 37.87,3.9 37.78,3.56 C 37.68,3.21 37.7,2.54 37.65,2.59 C 36.67,3.23 34.65,4.59 33.71,5.53 C 32.78,6.46 31.29,8.53 30.9,9.56 C 30.78,9.87 30.63,10.27 30.5,10.65 C 29.43,9.2 29.34,8.59 29.34,8.68 C 29.34,8.68 29.04,9.16 29.09,9.4 C 29.14,9.65 29.28,9.56 29.28,9.9 C 29.28,10.21 28.48,10.96 28.31,11.46 C 27.86,11.42 27.56,11.4 27.28,11.4 C 27.27,11.39 27.28,11.38 27.28,11.37 L 26.71,9.12 C 26.71,9.12 25.5,8.59 24.78,9.31 C 24.39,9.69 24.26,10.04 24.28,10.37 C 23.95,10.27 23.63,10.16 23.31,10.12 C 21.71,9.91 20.75,9.84 20.75,9.84 L 17.46,9.09 C 17.46,9.09 18.31,9.94 19.1,10.22" id="stroke02" style="opacity:1;fill:none;fill-opacity:1;fill-rule:evenodd;stroke:#183a0f;stroke-width:0.5;stroke-linecap:round;stroke-linejoin:round;stroke-miterlimit:4;stroke-dasharray:none;stroke-opacity:1;display:inline"/>
</g>
</svg>
