<?xml version="1.0" encoding="UTF-8" standalone="no"?>
<!DOCTYPE svg PUBLIC "-//W3C//DTD SVG 1.0//EN" "http://www.w3.org/TR/2001/REC-SVG-20010904/DTD/svg10.dtd">
<svg xmlns:svg="http://www.w3.org/2000/svg" xmlns="http://www.w3.org/2000/svg" xmlns:xlink="http://www.w3.org/1999/xlink" version="1.0" width="100%" height="100%" viewBox="0 0 48 48" id="tomato01">
<defs id="defs2395"/>
<g id="content" style="opacity:1;display:inline">
<path d="M 29.56,1 C 29.46,1.01 29.48,1.19 29.68,1.59 C 30.29,2.81 29.2,6.35 27.65,9.4 C 26.89,9.53 26.32,9.69 25.96,9.75 C 25.41,9.41 24.37,9.24 23.18,9.18 C 23.35,6.5 25.06,2.87 25.06,2.87 C 25.06,2.87 24.68,2.61 24.46,2.34 C 24.17,2.68 21.93,6.31 21.93,9.18 C 20.04,9.25 18.07,9.62 17.15,10.37 C 9.75,8.64 1.89,16.51 3,27.37 C 4.1,38.23 17.16,46.44 24.09,45.96 C 31.01,45.49 43.42,36.05 45.15,28.65 C 46.58,22.56 43.12,16.58 38.59,13 C 39.37,13.07 40.12,13.14 40.56,13.21 C 41.52,13.37 44.27,14.83 44.43,13.28 C 44,14.28 40.95,12.39 37.71,12.31 C 37.01,11.81 36.29,11.4 35.56,11.03 C 35.19,10.84 34.84,10.68 34.5,10.53 C 34.83,10.42 35.09,10.34 35.09,10.34 L 35.75,10.75 C 35.75,10.75 36.11,10.42 34.93,9.78 C 34.34,9.45 33.77,9.15 33.12,9.12 C 32.68,9.1 32.21,9.24 31.68,9.56 C 30.98,9.39 30.34,9.31 29.78,9.28 C 30.42,7.53 30.93,5.52 31.03,4.15 C 31.15,2.46 29.86,0.96 29.56,1 z" id="p3262" style="fill:#fc6131;fill-opacity:1;fill-rule:evenodd;stroke:none"/>
<path d="M 29.56,1 C 29.46,1.01 29.48,1.19 29.68,1.59 C 30.29,2.81 29.2,6.35 27.65,9.4 C 26.89,9.53 26.32,9.69 25.96,9.75 C 25.41,9.41 24.37,9.24 23.18,9.18 C 23.35,6.5 25.06,2.87 25.06,2.87 C 25.06,2.87 24.68,2.61 24.46,2.34 C 24.17,2.68 21.93,6.31 21.93,9.18 C 20.04,9.25 18.07,9.62 17.15,10.37 C 9.75,8.64 1.89,16.51 3,27.37 C 4.1,38.23 17.16,46.44 24.09,45.96 C 26.22,45.82 28.86,44.8 31.56,43.28 C 21.33,27.05 27.73,17.03 41.5,15.84 C 40.61,14.78 39.64,13.82 38.59,13 C 39.37,13.07 40.12,13.14 40.56,13.21 C 41.52,13.37 44.27,14.83 44.43,13.28 C 44,14.28 40.95,12.39 37.71,12.31 C 37.01,11.81 36.29,11.4 35.56,11.03 C 35.19,10.84 34.84,10.68 34.5,10.53 C 34.83,10.42 35.09,10.34 35.09,10.34 L 35.75,10.75 C 35.75,10.75 36.11,10.42 34.93,9.78 C 34.34,9.45 33.77,9.15 33.12,9.12 C 32.68,9.1 32.21,9.24 31.68,9.56 C 30.98,9.39 30.34,9.31 29.78,9.28 C 30.42,7.53 30.93,5.52 31.03,4.15 C 31.15,2.46 29.86,0.96 29.56,1 z" id="p3311" style="fill:#742b15;fill-opacity:0.22;fill-rule:evenodd;stroke:none;display:inline"/>
<path d="M 9.18,12.09 C 5.14,14.91 2.3,20.55 3,27.37 C 4.1,38.23 17.16,46.44 24.09,45.96 C 25.51,45.87 27.16,45.37 28.9,44.62 C 1.66,37.89 1.58,23.82 9.18,12.09 z" id="p3287" style="fill:#2c0303;fill-opacity:0.37;fill-rule:evenodd;stroke:none;display:inline"/>
<path d="M 29.56,1 C 29.46,1.01 29.48,1.19 29.68,1.59 C 30.28,2.78 29.25,6.14 27.78,9.12 C 28.55,8.71 29.38,8.33 30.25,7.96 C 30.67,6.59 30.95,5.18 31.03,4.15 C 31.15,2.46 29.86,0.96 29.56,1 z M 24.46,2.34 C 24.17,2.68 21.93,6.31 21.93,9.18 C 20.04,9.25 18.07,9.62 17.15,10.37 C 9.75,8.64 1.89,16.51 3,27.37 C 4.1,38.23 17.16,46.44 24.09,45.96 C 31.01,45.49 43.42,36.05 45.15,28.65 C 45.69,26.34 45.53,24.03 44.87,21.87 C 21.59,47.91 6.05,21.34 27.06,9.53 C 26.65,9.61 26.2,9.71 25.96,9.75 C 25.41,9.41 24.37,9.24 23.18,9.18 C 23.35,6.5 25.06,2.87 25.06,2.87 C 25.06,2.87 24.68,2.61 24.46,2.34 z" id="p3317" style="fill:#ef3200;fill-opacity:0.33;fill-rule:evenodd;stroke:none;display:inline"/>
<path d="M 21.93,32.68 C 19.61,32.78 18.36,34.32 19.18,37.15 C 20.29,40.94 21.8,44.26 24.62,45.9 C 27.64,45.52 31.53,43.6 35.15,40.96 C 30.51,35.2 25.17,32.55 21.93,32.68 z" id="p3290" style="fill:#b71a00;fill-opacity:0.22;fill-rule:evenodd;stroke:none;display:inline"/>
<path d="M 45.46,25.4 C 38.55,33.69 26.55,42.57 39.68,37.12 C 42.42,34.38 44.51,31.38 45.15,28.65 C 45.41,27.56 45.5,26.47 45.46,25.4 z" id="p3293" style="fill:#b2330c;fill-opacity:0.41;fill-rule:evenodd;stroke:none;display:inline"/>
<path d="M 7.34,37 C 12.05,42.68 19.44,46.28 24.09,45.96 C 25.29,45.88 26.67,45.53 28.12,44.96 C 19.13,45.02 13.71,41.56 7.34,37 z" id="p3296" style="fill:#f8b49f;fill-opacity:0.41;fill-rule:evenodd;stroke:none;display:inline"/>
<path d="M 15.06,10.12 C 8.35,10.13 2,17.53 3,27.37 C 3.71,34.37 9.38,40.25 15.18,43.43 C 6.58,29.49 9.95,18.66 15.59,10.15 C 15.42,10.14 15.23,10.12 15.06,10.12 z" id="p3320" style="fill:#9d210c;fill-opacity:0.18;fill-rule:evenodd;stroke:none;display:inline"/>
<path d="M 15.21,15.21 C 14.85,15.23 14.27,15.33 13.46,15.53 C 7.58,18.18 4.58,20.92 3,23.62 C 2.89,24.82 2.86,26.07 3,27.37 C 3.18,29.18 3.7,30.9 4.46,32.53 C 5.7,32.08 6.82,31.02 6.9,29.68 C 7.25,23.98 6.21,22.19 11.56,18.62 C 14.51,16.65 16.79,15.15 15.21,15.21 z" id="p3384" style="fill:#b23d28;fill-opacity:0.33;fill-rule:evenodd;stroke:none;display:inline"/>
<path d="M 5.37,18.78 C 4.86,18.82 4.35,19.03 3.9,19.4 C 3.08,21.76 2.7,24.45 3,27.37 C 3.95,36.75 13.83,44.15 20.96,45.68 C 15.98,24.42 13.78,30.38 10.5,23.31 C 9.13,20.36 7.14,18.62 5.37,18.78 z" id="p3329" style="fill:#9d210c;fill-opacity:0.18;fill-rule:evenodd;stroke:none;display:inline"/>
<path d="M 38.84,37.9 C 33.76,38.88 30.88,40.09 32.71,42.59 C 34.85,41.27 36.96,39.66 38.84,37.9 z" id="p3332" style="fill:#e9d9d6;fill-opacity:0.26;fill-rule:evenodd;stroke:none;display:inline"/>
<path d="M 5.53,34.53 C 9.91,41.62 18.79,46.32 24.09,45.96 C 26.83,45.78 30.44,44.16 33.9,41.84 C 19.71,39.87 14.72,36.06 5.53,34.53 z" id="p3368" style="fill:#c02105;fill-opacity:0.47;fill-rule:evenodd;stroke:none;display:inline"/>
<path d="M 19.51,19.82 C 19.82,16.68 15.26,15.89 12.43,21.4 C 9.6,26.91 11.48,30.84 12.27,32.26 C 13.37,29.27 16.83,21.71 19.51,19.82 z" id="p3371" style="fill:#fa8d3e;fill-opacity:0.31;fill-rule:evenodd;stroke:none;display:inline"/>
<path d="M 3.25,21.59 C 2.88,23.38 2.79,25.32 3,27.37 C 3.73,34.58 9.73,40.61 15.71,43.71 C 13.99,37.25 9.96,29.12 3.25,21.59 z" id="p3379" style="fill:#a51700;fill-opacity:0.37;fill-rule:evenodd;stroke:none"/>
<path d="M 18.9,9.59 C 18.18,9.78 17.56,10.04 17.15,10.37 C 10.54,8.82 3.58,14.97 2.96,24.06 C 7.54,10.84 13.3,10.85 17.06,11.68 C 20.99,12.56 23.18,15.03 23.18,15.03 C 23.18,15.03 21.31,12.12 18.9,9.59 z" id="p3390" style="fill:#d67c6a;fill-opacity:0.57;fill-rule:evenodd;stroke:none;display:inline"/>
<path d="M 25.84,18.68 C 22.48,18.68 20.38,15.42 21.54,13.74 C 20.49,12.06 20.07,11.01 20.07,11.01 C 20.07,11.01 22.69,13.32 23.53,14.26 C 24.37,15.21 30.89,13.53 29.63,15.42 C 28.37,17.31 27.74,18.78 25.84,18.68 z" id="p3335" style="fill:#a0a77d;fill-opacity:0.98;fill-rule:evenodd;stroke:none;display:inline"/>
<path d="M 20.06,11 C 20.06,11 20.48,12.06 21.53,13.75 C 21.11,14.35 21.13,15.14 21.46,15.93 C 21.74,15.86 21.92,15.65 21.96,15.28 C 22.06,14.48 22.02,13.52 21.75,12.53 C 20.88,11.73 20.06,11 20.06,11 z" id="p3498" style="fill:#d8e0a8;fill-opacity:0.61;fill-rule:evenodd;stroke:none"/>
<path d="M 21.96,8.68 C 21.95,8.85 21.93,9.02 21.93,9.18 C 21.6,9.19 21.27,9.21 20.93,9.25 C 21.04,10.12 21.23,10.99 21.59,11.56 C 22.61,13.16 23.33,15.03 22.75,15.03 C 22.16,15.03 19.39,13 15.31,15.18 C 11.22,17.37 12.11,20.14 13.28,19.56 C 15.32,15.33 19.67,13.59 23.46,17.96 C 24.48,19.13 27.98,18.09 28.71,18.09 C 29.44,18.09 31.06,18.96 31.06,18.96 L 32.09,17.81 C 32.09,17.81 28.88,16.35 27.28,16.93 C 25.67,17.52 33.55,14.44 35.15,14.59 C 36.76,14.73 39.51,15.34 41.4,16.65 C 39.51,14.76 33.67,12.28 29.59,14.03 C 30.95,13.3 33.23,11.9 35.31,10.9 C 35.03,10.77 34.76,10.64 34.5,10.53 C 34.83,10.42 35.09,10.34 35.09,10.34 L 35.71,10.71 C 35.73,10.71 35.76,10.72 35.78,10.71 C 35.78,10.7 35.77,10.7 35.78,10.68 C 35.82,10.56 35.82,10.26 34.93,9.78 C 34.34,9.45 33.77,9.15 33.12,9.12 C 33.06,9.12 32.99,9.15 32.93,9.15 L 24.93,15.46 L 22.75,10.53 L 21.96,8.68 z" id="p3393" style="fill:#61190b;fill-opacity:0.79;fill-rule:evenodd;stroke:none;display:inline"/>
<path d="M 29.56,1 C 29.46,1.01 29.48,1.19 29.68,1.59 C 30.25,2.73 29.34,5.86 27.96,8.75 C 27.48,10.22 26.57,11.42 26.09,11.93 C 24.99,12.15 24.62,13.15 24.62,13.15 C 24.62,13.15 24.08,12.01 23.59,11.03 C 23.28,10.41 23.15,9.71 23.31,9.18 C 23.26,9.18 23.23,9.18 23.18,9.18 C 23.35,6.5 25.06,2.87 25.06,2.87 C 25.06,2.87 24.68,2.61 24.46,2.34 C 24.18,2.66 22.13,6 21.96,8.81 C 22.17,10.2 22.47,11.19 22.65,11.71 C 23.09,12.97 23.02,14.41 22.75,14.25 C 18.86,9.98 16.02,12.17 14.43,14.25 C 12.85,16.32 13.78,17.96 14.28,16.87 C 14.77,15.78 15.85,13.2 19.03,13.09 C 22.2,12.98 21.54,14.89 22.53,16.09 C 23.51,17.29 23.6,18.85 25.21,18.75 C 27.34,18.61 30.07,16.34 32,15.34 C 32.89,14.87 33.22,14.07 34.25,13.96 C 34.85,13.9 35.23,13.57 35.34,13.25 C 37.24,12.79 38.93,12.85 40.37,13.18 C 40.42,13.19 40.52,13.21 40.56,13.21 C 41.52,13.37 44.27,14.83 44.43,13.28 C 44,14.28 40.95,12.39 37.71,12.31 C 37.59,12.22 37.47,12.14 37.34,12.06 C 36.35,12.22 35.28,12.43 35.28,12.43 C 35.28,12.43 35.24,11.82 34.75,11.71 C 34.8,12.64 34.4,12.78 34.4,12.78 L 34.25,12.34 C 34.25,12.34 33.85,12.71 33.53,12.93 C 33.2,13.15 32.1,13.04 31.5,12.93 C 32.5,11.19 34.11,10.43 35.37,10.09 C 35.25,10 35.14,9.89 34.93,9.78 C 34.34,9.45 33.77,9.15 33.12,9.12 C 32.68,9.1 32.21,9.24 31.68,9.56 C 31.67,9.55 31.66,9.56 31.65,9.56 C 30.71,10.1 29.92,10.69 29.53,11.18 C 28.21,12.82 28.54,11.17 29.31,10.18 C 29.41,10.05 29.58,9.73 29.78,9.28 C 30.42,7.53 30.93,5.52 31.03,4.15 C 31.15,2.46 29.86,0.96 29.56,1 z" id="p3278" style="fill:#879166;fill-opacity:1;fill-rule:evenodd;stroke:none"/>
<path d="M 15.06,10.12 C 8.35,10.13 2,17.53 3,27.37 C 4.1,38.23 17.16,46.44 24.09,45.96 C 30.43,45.53 41.37,37.58 44.5,30.56 C 42.48,30.07 39.16,31.13 37.62,31.78 C 34.63,33.04 33.35,38.56 31.93,38.87 C 30.52,39.18 28.33,32.9 25.03,32.75 C 21.72,32.59 18.73,36.97 16.84,36.65 C 14.95,36.34 16.85,28.94 15.43,27.84 C 14.02,26.74 12.73,29.73 10.53,27.37 C 8.32,25.01 10.53,20.78 9.9,19.68 C 9.27,18.58 7.09,20.44 6.62,19.34 C 6.18,18.31 5.86,17.21 16.18,10.21 C 15.81,10.17 15.43,10.12 15.06,10.12 z" id="p3404" style="fill:#c12302;fill-opacity:0.27;fill-rule:evenodd;stroke:none;display:inline"/>
<path d="M 11.64,22.03 C 10.07,23.13 9.12,25.02 8.97,25.8" id="p3410" style="fill:none;fill-rule:evenodd;stroke:#ef6f47;stroke-width:5;stroke-linecap:round;stroke-linejoin:miter;stroke-miterlimit:4;stroke-dasharray:none;stroke-opacity:0.31"/>
<path d="M 22.51,23.5 C 20.65,24.95 19.46,28 19.2,29.72" id="p3412" style="fill:none;fill-rule:evenodd;stroke:#ef6f47;stroke-width:5.5;stroke-linecap:round;stroke-linejoin:miter;stroke-miterlimit:4;stroke-dasharray:none;stroke-opacity:0.26"/>
<path d="M 32.43,22.75 C 32.54,24.47 32.54,27.32 32.2,28.69" id="p3414" style="fill:none;fill-rule:evenodd;stroke:#f4a063;stroke-width:4.5;stroke-linecap:round;stroke-linejoin:miter;stroke-miterlimit:4;stroke-dasharray:none;stroke-opacity:0.36"/>
<path d="M 37.68,18.53 C 41.45,20.81 41.91,23.78 41.91,23.78" id="p3424" style="fill:none;fill-rule:evenodd;stroke:#f9c199;stroke-width:3.70;stroke-linecap:round;stroke-linejoin:miter;stroke-miterlimit:4;stroke-dasharray:none;stroke-opacity:0.17"/>
<path d="M 35.8,17.17 C 37.93,17.53 41.02,22.98 41.61,27.25" id="p3446" style="fill:none;fill-rule:evenodd;stroke:#f9c199;stroke-width:5.09;stroke-linecap:round;stroke-linejoin:miter;stroke-miterlimit:4;stroke-dasharray:none;stroke-opacity:0.17"/>
<path d="M 22.78,22.47 C 21.66,26.33 22.53,29.2 22.53,30.69" id="p3448" style="fill:none;fill-rule:evenodd;stroke:#ffa15d;stroke-width:5.59;stroke-linecap:round;stroke-linejoin:miter;stroke-miterlimit:4;stroke-dasharray:none;stroke-opacity:0.18"/>
<path d="M 31.28,13.25 C 29.96,13.46 26.35,16.42 25.18,17.18 C 24.14,17.86 24.15,17.87 24.21,18.53 C 24.47,18.69 24.79,18.77 25.21,18.75 C 26.21,18.68 27.35,18.15 28.46,17.5 C 28.89,16.88 29.29,16.34 29.81,16.12 C 30.12,15.99 31.52,15.34 32.81,14.75 C 33.22,14.38 33.6,14.03 34.25,13.96 C 34.52,13.94 34.72,13.86 34.9,13.75 C 33.81,13.81 32.29,13.39 31.5,13.25 C 31.43,13.23 31.36,13.23 31.28,13.25 z" id="p3450" style="fill:#3d2400;fill-opacity:0.57;fill-rule:evenodd;stroke:none;display:inline"/>
<path d="M 34.75,11.71 C 34.8,12.64 34.4,12.78 34.4,12.78 L 34.25,12.34 C 34.25,12.34 33.85,12.71 33.53,12.93 C 33.31,13.08 32.77,13.07 32.25,13.03 C 32.27,13.17 32.35,13.3 32.81,13.4 C 33.29,13.5 34.48,14.03 35.06,13.65 C 35.07,13.64 35.08,13.63 35.09,13.62 C 35.13,13.59 35.18,13.54 35.21,13.5 C 35.22,13.48 35.24,13.48 35.25,13.46 C 35.29,13.4 35.31,13.33 35.34,13.25 C 35.4,13.04 35.4,12.78 35.34,12.43 C 35.34,12.43 35.28,12.43 35.28,12.43 C 35.28,12.43 35.24,11.82 34.75,11.71 z" id="p3483" style="fill:#1f2c10;fill-opacity:0.61;fill-rule:evenodd;stroke:none"/>
<path d="M 27.42,15.39 C 30.17,13.46 31.23,13.01 32.6,13.33 C 33.98,13.64 34.74,13.8 35.13,13.49" id="p3453" style="fill:none;fill-rule:evenodd;stroke:#a1ae6a;stroke-width:0.30;stroke-linecap:round;stroke-linejoin:miter;stroke-miterlimit:4;stroke-dasharray:none;stroke-opacity:1;display:inline"/>
<path d="M 23.26,15.34 C 23.6,16.17 23.49,16.67 23.82,16.73 C 24.15,16.79 24.98,17.06 24.98,17.06 L 27.21,15.4 L 27.48,13.95 L 24.93,14.29 C 24.93,14.29 24.82,15.45 24.6,15.45 C 24.37,15.45 24.26,15.34 24.04,14.84 C 23.71,15.01 23.26,15.29 23.26,15.34 z" id="p3461" style="fill:#1f401d;fill-opacity:0.70;fill-rule:evenodd;stroke:none;display:inline"/>
<path d="M 28.48,10.05 C 28.02,10.97 27.52,12.08 27.21,12.5" id="p3491" style="fill:none;fill-rule:evenodd;stroke:#d7e9ce;stroke-width:0.69;stroke-linecap:round;stroke-linejoin:miter;stroke-miterlimit:4;stroke-dasharray:none;stroke-opacity:0.31;display:inline"/>
<path d="M 29.43,6.48 C 28.51,9.36 27.82,10.89 26.87,12.46" id="p3488" style="fill:none;fill-rule:evenodd;stroke:#56634c;stroke-width:0.30;stroke-linecap:round;stroke-linejoin:miter;stroke-miterlimit:4;stroke-dasharray:none;stroke-opacity:0.54;display:inline"/>
<path d="M 24.6,12.84 C 24.21,14.62 25.6,15.06 25.98,15.06 C 26.37,15.06 27.71,15.56 28.09,13.73 C 28.48,11.9 26.1,11.34 24.6,12.84 z" id="p3464" style="fill:#b5c55f;fill-opacity:1;fill-rule:evenodd;stroke:none;display:inline"/>
<path d="M 27.6,13.55 C 27.6,14.07 27.09,14.50 26.47,14.50 C 25.85,14.50 25.35,14.07 25.35,13.55 C 25.35,13.02 25.85,12.60 26.47,12.60 C 27.09,12.60 27.6,13.02 27.6,13.55 L 27.6,13.55 z" id="p3477" style="fill:#f1efb5;fill-opacity:0.41;fill-rule:evenodd;stroke:none;marker:none;visibility:visible;display:inline;overflow:visible;enable-background:accumulate"/>
<path d="M 26.46,12 C 26.37,12 26.28,12.01 26.18,12.03 C 26.29,13.11 26.62,13.88 27.9,14.31 C 27.98,14.15 28.04,13.97 28.09,13.75 C 28.33,12.6 27.5,11.95 26.46,12 z" id="p3472" style="fill:#8f9e28;fill-opacity:0.41;fill-rule:evenodd;stroke:none"/>
<path d="M 25.66,17.56 C 27.13,16.51 28.51,15.46 28.89,15.34" id="p3479" style="fill:none;fill-rule:evenodd;stroke:#f39c9c;stroke-width:1px;stroke-linecap:round;stroke-linejoin:miter;stroke-opacity:0.12"/>
<path d="M 24.88,18.25 C 25.54,17.62 26.34,17.13 26.34,17.13" id="p3481" style="fill:none;fill-rule:evenodd;stroke:#e01b1b;stroke-width:1px;stroke-linecap:round;stroke-linejoin:miter;stroke-opacity:0.17"/>
<path d="M 21.84,13.37 C 21.95,13.96 21.99,14.53 21.96,15.06 C 22.09,15.42 22.27,15.78 22.53,16.09 C 22.61,16.19 22.7,16.29 22.78,16.4 C 23.28,16.19 23.81,15.96 24.09,16.09 C 23.79,15.6 23.34,14.83 22.9,14.12 C 22.86,14.23 22.81,14.28 22.75,14.25 C 22.44,13.91 22.13,13.63 21.84,13.37 z" id="p3503" style="fill:#3c6a1c;fill-opacity:0.55;fill-rule:evenodd;stroke:none;display:inline"/>
<path d="M 15.25,13.31 C 14.95,13.6 14.67,13.93 14.43,14.25 C 12.85,16.32 13.78,17.96 14.28,16.87 C 14.49,16.39 14.84,15.65 15.4,14.93 C 15.28,14.47 15.18,13.91 15.25,13.31 z" id="p3506" style="fill:#d9f2aa;fill-opacity:0.18;fill-rule:evenodd;stroke:none;display:inline"/>
<path d="M 15.5,13.6 C 16.3,12.8 17.19,12.4 18.73,12.4 C 20.28,12.4 21.62,12.55 22.02,13.5 C 22.41,14.44 22.81,15.34 23.36,15.49" id="p3509" style="fill:none;fill-rule:evenodd;stroke:#506f2b;stroke-width:0.30;stroke-linecap:round;stroke-linejoin:miter;stroke-miterlimit:4;stroke-dasharray:none;stroke-opacity:0.43;display:inline"/>
<path d="M 22.81,10.32 C 23.51,11.51 23.95,13.2 24.25,14.99" id="p3512" style="fill:none;fill-rule:evenodd;stroke:#506f2b;stroke-width:0.30;stroke-linecap:round;stroke-linejoin:miter;stroke-miterlimit:4;stroke-dasharray:none;stroke-opacity:0.43;display:inline"/>
<path d="M 26.39,27.09 C 26.69,28.97 25.90,30.51 24.63,30.51 C 23.35,30.51 22.07,28.97 21.77,27.09 C 21.47,25.20 22.26,23.67 23.53,23.67 C 24.81,23.67 26.09,25.20 26.39,27.09 L 26.39,27.09 z" id="p3344" style="fill:#ffffff;fill-opacity:0.47;fill-rule:evenodd;stroke:none;marker:none;visibility:visible;display:inline;overflow:visible;enable-background:accumulate"/>
<path d="M 33.10,26.18 C 32.78,27.73 31.57,28.98 30.40,28.98 C 29.22,28.98 28.53,27.73 28.85,26.18 C 29.17,24.63 30.39,23.37 31.56,23.37 C 32.73,23.37 33.42,24.63 33.10,26.18 L 33.10,26.18 z" id="p3346" style="fill:#ffffff;fill-opacity:0.47;fill-rule:evenodd;stroke:none;marker:none;visibility:visible;display:inline;overflow:visible;enable-background:accumulate"/>
<path d="M 17.34,19 C 16.24,19 15.08,20.19 14.78,21.65 C 14.47,23.11 15.11,24.28 16.21,24.28 C 17.17,22.34 18.02,21.23 18.84,20.56 C 18.72,19.64 18.15,19 17.34,19 z" id="p3348" style="fill:#ffffff;fill-opacity:0.28;fill-rule:evenodd;stroke:none;marker:none;visibility:visible;display:inline;overflow:visible;enable-background:accumulate"/>
<path d="M 35.75,18.62 C 35.45,18.66 35.16,18.81 34.96,19.06 C 35.97,20.48 36.9,21.83 37.56,23 C 37.8,22.92 38.03,22.79 38.18,22.56 C 38.72,21.76 38.43,20.34 37.53,19.4 C 36.96,18.81 36.3,18.54 35.75,18.62 z" id="p3350" style="fill:#ffffff;fill-opacity:0.28;fill-rule:evenodd;stroke:none;marker:none;visibility:visible;display:inline;overflow:visible;enable-background:accumulate"/>
<path d="M 25.10,26.55 C 25.30,27.43 24.97,28.14 24.36,28.14 C 23.75,28.14 23.09,27.43 22.89,26.55 C 22.69,25.66 23.02,24.95 23.63,24.95 C 24.24,24.95 24.90,25.66 25.10,26.55 L 25.10,26.55 z" id="p3358" style="fill:#ffffff;fill-opacity:0.63;fill-rule:evenodd;stroke:none;marker:none;visibility:visible;display:inline;overflow:visible;enable-background:accumulate"/>
<path d="M 31.66,26.80 C 31.19,27.56 30.46,27.84 30.03,27.41 C 29.59,26.99 29.62,26.02 30.09,25.25 C 30.56,24.48 31.29,24.21 31.72,24.63 C 32.15,25.06 32.13,26.03 31.66,26.80 L 31.66,26.80 z" id="p3360" style="fill:#ffffff;fill-opacity:0.63;fill-rule:evenodd;stroke:none;marker:none;visibility:visible;display:inline;overflow:visible;enable-background:accumulate"/>
<path d="M 37.28,20.11 C 37.49,20.71 37.31,21.22 36.89,21.27 C 36.47,21.32 35.96,20.88 35.76,20.29 C 35.56,19.70 35.73,19.18 36.15,19.13 C 36.58,19.08 37.08,19.52 37.28,20.11 L 37.28,20.11 z" id="p3362" style="fill:#ffffff;fill-opacity:0.4;fill-rule:evenodd;stroke:none;marker:none;visibility:visible;display:inline;overflow:visible;enable-background:accumulate"/>
<path d="M 17.18,22.07 C 16.73,22.68 16.10,22.86 15.77,22.47 C 15.44,22.08 15.54,21.27 15.99,20.66 C 16.44,20.05 17.07,19.87 17.40,20.26 C 17.73,20.65 17.63,21.46 17.18,22.07 L 17.18,22.07 z" id="p3366" style="fill:#ffffff;fill-opacity:0.45;fill-rule:evenodd;stroke:none;marker:none;visibility:visible;display:inline;overflow:visible;enable-background:accumulate"/>
<path d="M 22.71,17.01 C 23.6,18.62 25.21,19.01 27.65,18.01" id="p3459" style="fill:none;fill-rule:evenodd;stroke:#363a20;stroke-width:0.69;stroke-linecap:round;stroke-linejoin:miter;stroke-miterlimit:4;stroke-dasharray:none;stroke-opacity:1"/>
<path d="M 24.6,12.84 C 24.21,14.62 25.6,15.06 25.98,15.06 C 26.37,15.06 27.71,15.56 28.09,13.73 C 28.48,11.9 26.1,11.34 24.6,12.84 z" id="p3469" style="fill:none;fill-opacity:1;fill-rule:evenodd;stroke:#606c2e;stroke-width:0.30;stroke-linecap:butt;stroke-linejoin:miter;stroke-miterlimit:4;stroke-dasharray:none;stroke-opacity:1;display:inline"/>
<path d="M 13.75,17.14 C 14.12,17.5 14.68,16.01 15.2,15.21 C 15.72,14.4 17.17,13 19.35,13.12 C 21.52,13.24 21.64,14.16 21.84,14.85 C 22.04,15.53 22.72,16.29 22.93,16.74 C 23.13,17.18 23.53,17.66 23.77,17.86" id="p3521" style="fill:none;fill-rule:evenodd;stroke:#3c4a36;stroke-width:0.2;stroke-linecap:butt;stroke-linejoin:miter;stroke-miterlimit:4;stroke-dasharray:none;stroke-opacity:1;display:inline"/>
<path d="M 29.56,1 C 29.46,1.01 29.48,1.19 29.68,1.59 C 30.29,2.81 29.2,6.35 27.65,9.4 C 26.89,9.53 26.32,9.69 25.96,9.75 C 25.41,9.41 24.37,9.24 23.18,9.18 C 23.35,6.5 25.06,2.87 25.06,2.87 C 25.06,2.87 24.68,2.61 24.46,2.34 C 24.17,2.68 21.93,6.31 21.93,9.18 C 20.04,9.25 18.07,9.62 17.15,10.37 C 9.75,8.64 1.89,16.51 3,27.37 C 4.1,38.23 17.16,46.44 24.09,45.96 C 31.01,45.49 43.42,36.05 45.15,28.65 C 46.58,22.56 43.12,16.58 38.59,13 C 39.37,13.07 40.12,13.14 40.56,13.21 C 41.52,13.37 44.27,14.83 44.43,13.28 C 44,14.28 40.95,12.39 37.71,12.31 C 37.01,11.81 36.29,11.4 35.56,11.03 C 35.19,10.84 34.84,10.68 34.5,10.53 C 34.83,10.42 35.09,10.34 35.09,10.34 L 35.75,10.75 C 35.75,10.75 36.11,10.42 34.93,9.78 C 34.34,9.45 33.77,9.15 33.12,9.12 C 32.68,9.1 32.21,9.24 31.68,9.56 C 30.98,9.39 30.34,9.31 29.78,9.28 C 30.42,7.53 30.93,5.52 31.03,4.15 C 31.15,2.46 29.86,0.96 29.56,1 z" id="stroke01" style="fill:none;fill-opacity:1;fill-rule:evenodd;stroke:#1e0c05;stroke-width:0.5;stroke-linecap:butt;stroke-linejoin:miter;stroke-miterlimit:4;stroke-dasharray:none;stroke-opacity:1"/>
</g>
</svg>
