<?xml version="1.0" encoding="UTF-8" standalone="no"?>
<!DOCTYPE svg PUBLIC "-//W3C//DTD SVG 1.0//EN" "http://www.w3.org/TR/2001/REC-SVG-20010904/DTD/svg10.dtd">
<svg xmlns:svg="http://www.w3.org/2000/svg" xmlns="http://www.w3.org/2000/svg" xmlns:xlink="http://www.w3.org/1999/xlink" version="1.0" width="100%" height="100%" viewBox="0 0 48 48" id="vanilla01">
<defs id="defs2385"/>
<g id="content" style="opacity:1;display:inline">
<path d="M 4.25,6.15 L 3.75,6.30 L 3.51,6.89 C 3.51,6.89 3.75,6.89 3.82,7.24 C 3.90,7.59 3.82,7.98 4.06,8.22 C 4.29,8.45 5.27,8.76 6.25,9.70 C 6.36,10.80 7.50,13.14 7.73,13.57 C 7.97,14.00 8.55,14.35 8.59,14.78 C 8.63,15.21 10.78,17.36 11.05,17.99 C 11.33,18.61 12.19,19.16 12.38,19.63 C 12.58,20.10 13.59,20.99 14.41,21.82 C 15.23,22.64 17.70,25.41 18.67,26.07 C 19.65,26.74 19.42,27.25 20.67,27.68 C 21.17,28.61 22.19,29.55 23.64,30.65 C 25.08,31.74 25.82,32.87 27.03,33.77 C 28.25,34.67 30.63,36.51 31.92,37.41 C 33.21,38.30 34.19,38.93 36.18,40.30 C 38.17,41.66 38.33,41.35 38.52,41.63 C 38.72,41.90 39.89,42.64 40.52,42.92 C 40.63,42.72 40.83,42.41 40.95,42.09 C 40.48,41.63 40.05,41.51 39.23,40.88 C 38.41,40.26 37.86,39.83 36.49,39.05 C 35.12,38.27 34.42,37.56 33.72,37.25 C 33.01,36.94 29.50,34.01 27.58,32.33 C 25.67,30.65 22.66,27.64 21.76,26.62 C 20.86,25.61 20.98,26.19 19.92,24.98 C 18.87,23.77 18.13,23.42 17.58,22.71 C 17.03,22.01 15.20,19.98 14.10,19.08 C 13.01,18.18 13.20,17.95 12.38,17.28 C 13.20,17.87 14.22,18.45 14.57,18.85 C 14.92,19.24 16.91,21.15 17.38,21.70 C 17.85,22.24 19.45,24.00 19.84,24.32 C 20.24,24.63 21.92,26.15 22.74,26.86 C 23.56,27.56 27.74,30.96 28.32,31.47 C 28.91,31.97 32.11,34.12 33.44,35.10 C 34.77,36.08 41.49,39.91 43.37,40.34 C 43.99,40.41 44.66,39.16 44.50,38.54 C 43.72,38.42 43.29,38.89 42.55,38.42 C 41.80,37.95 37.23,35.22 35.20,34.20 C 33.17,33.19 28.36,29.71 26.33,28.15 C 24.30,26.58 23.36,25.80 22.78,24.82 C 22.42,24.71 22.46,25.02 21.76,24.12 C 21.06,23.22 20.43,22.75 20.31,22.40 C 20.24,22.48 20.16,22.71 19.84,22.17 C 19.53,21.62 17.66,20.13 16.99,19.39 C 16.33,18.65 14.26,17.17 12.89,15.72 C 11.52,14.27 10.58,13.69 9.72,12.48 C 8.86,11.26 8.08,10.56 7.61,9.39 C 7.15,8.22 5.54,6.89 4.64,7.28 C 4.49,6.89 4.22,6.58 4.25,6.15 z" id="p3237" style="fill:#493121;fill-opacity:1;fill-rule:evenodd;stroke:none;"/>
<path d="M 7.31,12.65 C 7.46,12.98 7.68,13.44 7.75,13.56 C 7.98,13.99 8.55,14.35 8.59,14.78 C 8.63,15.21 10.78,17.37 11.06,18 C 11.33,18.62 12.17,19.15 12.37,19.62 C 12.57,20.09 13.58,20.99 14.40,21.81 C 15.22,22.63 17.71,25.42 18.68,26.09 C 19.66,26.75 19.40,27.25 20.65,27.68 C 21.16,28.62 22.17,29.56 23.62,30.65 C 24.49,31.31 25.13,31.96 25.75,32.59 C 32.77,37.33 38.93,41.29 40.78,42.46 C 40.84,42.35 40.89,42.21 40.93,42.09 C 40.46,41.62 40.03,41.50 39.21,40.87 C 38.39,40.24 37.86,39.84 36.5,39.06 C 35.13,38.28 34.42,37.56 33.71,37.25 C 33.01,36.93 29.50,34.02 27.59,32.34 C 25.67,30.66 22.64,27.64 21.75,26.62 C 20.85,25.60 20.99,26.21 19.93,25 C 18.88,23.78 18.14,23.42 17.59,22.71 C 17.41,22.48 16.98,21.99 16.59,21.56 C 13.85,19.01 10.78,15.96 7.31,12.65 z" id="p3239" style="fill:#272112;fill-opacity:0.37;fill-rule:evenodd;stroke:none;display:inline"/>
<path d="M 4.25,6.15 L 3.75,6.31 L 3.53,6.90 C 3.53,6.90 3.76,6.89 3.84,7.25 C 3.92,7.60 3.82,7.98 4.06,8.21 C 4.20,8.36 4.63,8.55 5.15,8.87 C 5.25,8.35 5.41,7.84 5.71,7.40 C 5.33,7.22 4.95,7.15 4.65,7.28 C 4.49,6.89 4.21,6.58 4.25,6.15 z" id="p3241" style="fill:#24271d;fill-opacity:0.59;fill-rule:evenodd;stroke:none;display:inline"/>
<path d="M 8.87,13.37 C 9.83,14.63 11.39,16.23 12.65,17.46 C 13.41,17.98 14.24,18.49 14.56,18.84 C 14.83,19.14 15.91,20.21 16.68,21 C 16.68,20.97 16.69,20.96 16.68,20.93 C 16.52,20.44 16.14,19.19 15.28,17.84 C 15.26,17.82 15.23,17.82 15.21,17.81 C 14.44,17.16 13.59,16.44 12.90,15.71 C 12.39,15.17 11.94,14.75 11.53,14.37 C 10.76,13.96 9.88,13.62 8.87,13.37 z" id="p3245" style="fill:#85522a;fill-opacity:0.59;fill-rule:evenodd;stroke:none;display:inline"/>
<path d="M 20.31,22.40 C 20.26,22.45 20.22,22.54 20.12,22.5 C 21.28,24.34 22.78,25.88 24.93,27.62 C 27.60,29.77 40.19,39.24 44.28,39.53 C 44.44,39.18 44.56,38.79 44.5,38.53 C 43.71,38.41 43.30,38.90 42.56,38.43 C 41.82,37.96 37.25,35.23 35.21,34.21 C 33.18,33.20 28.37,29.71 26.34,28.15 C 24.31,26.59 23.36,25.82 22.78,24.84 C 22.42,24.72 22.45,25.02 21.75,24.12 C 21.04,23.22 20.42,22.75 20.31,22.40 z" id="p3247" style="fill:#a77407;fill-opacity:0.37;fill-rule:evenodd;stroke:none;display:inline"/>
<path d="M 19.87,22.43 C 22.5,25.56 26.68,29 27.75,29.75 C 28.81,30.5 33,33.56 33.31,34 C 33.62,34.43 34.18,34.25 34.62,34.62 C 35.06,35 36.06,35.68 36.56,35.87" id="p3263" style="fill:none;fill-rule:evenodd;stroke:#b68512;stroke-width:0.30;stroke-linecap:round;stroke-linejoin:miter;stroke-miterlimit:4;stroke-dasharray:none;stroke-opacity:0.56;display:inline"/>
<path d="M 8.06,13.87 C 11.43,17.56 17,24.12 25.31,31.43 C 33.62,38.75 39.43,41.31 40.56,42.68" id="p3265" style="opacity:1;fill:none;fill-opacity:1;fill-rule:evenodd;stroke:#321a0e;stroke-width:0.2;stroke-linecap:round;stroke-linejoin:miter;marker:none;stroke-miterlimit:4;stroke-dasharray:none;stroke-dashoffset:0;stroke-opacity:0.62;visibility:visible;display:inline;overflow:visible;enable-background:accumulate"/>
<path d="M 20.31,24.5 C 27.81,31.06 39.56,39.18 43.93,40" id="p3267" style="fill:none;fill-rule:evenodd;stroke:#3a1f13;stroke-width:0.2;stroke-linecap:round;stroke-linejoin:miter;stroke-miterlimit:4;stroke-dasharray:none;stroke-opacity:0.62;display:inline"/>
<path d="M 16.56,22.31 C 17.06,22.87 20.43,26.5 21.12,26.93 C 21.81,27.37 26.81,32.31 29.25,33.87" id="p3272" style="opacity:1;fill:none;fill-opacity:1;fill-rule:evenodd;stroke:#321a0e;stroke-width:0.2;stroke-linecap:round;stroke-linejoin:miter;marker:none;stroke-miterlimit:4;stroke-dasharray:none;stroke-dashoffset:0;stroke-opacity:0.62;visibility:visible;display:inline;overflow:visible;enable-background:accumulate"/>
<path d="M 11.12,14.81 C 12.87,16.12 13.81,16.5 14.43,17.18" id="p3274" style="opacity:1;fill:none;fill-opacity:1;fill-rule:evenodd;stroke:#b68512;stroke-width:0.30;stroke-linecap:round;stroke-linejoin:miter;marker:none;stroke-miterlimit:4;stroke-dasharray:none;stroke-dashoffset:0;stroke-opacity:0.56;visibility:visible;display:inline;overflow:visible;enable-background:accumulate"/>
<path d="M 4.75,8.31 C 6.25,9.06 6.56,9.12 6.81,9.68 C 7.06,10.25 7.75,12.43 8.5,13.56 C 9.25,14.68 11.43,17.18 11.93,17.68" id="p3276" style="opacity:1;fill:none;fill-opacity:1;fill-rule:evenodd;stroke:#321a0e;stroke-width:0.2;stroke-linecap:round;stroke-linejoin:miter;marker:none;stroke-miterlimit:4;stroke-dasharray:none;stroke-dashoffset:0;stroke-opacity:0.62;visibility:visible;display:inline;overflow:visible;enable-background:accumulate"/>
<path d="M 6.68,10.18 C 6.87,10.56 7.31,11 7.43,11.37" id="p3278" style="fill:none;fill-rule:evenodd;stroke:#965b2b;stroke-width:0.69;stroke-linecap:round;stroke-linejoin:miter;stroke-miterlimit:4;stroke-dasharray:none;stroke-opacity:0.51"/>
<path d="M 8.37,12.68 C 8.56,13 8.87,13.68 9.68,14.37" id="p3280" style="fill:none;fill-rule:evenodd;stroke:#d5631f;stroke-width:0.5;stroke-linecap:butt;stroke-linejoin:miter;stroke-miterlimit:4;stroke-dasharray:none;stroke-opacity:0.18"/>
<path d="M 13.87,17.68 C 15.56,19.06 18.06,22 19.06,23.5" id="p3282" style="opacity:1;fill:none;fill-opacity:1;fill-rule:evenodd;stroke:#321a0e;stroke-width:0.2;stroke-linecap:round;stroke-linejoin:miter;marker:none;stroke-miterlimit:4;stroke-dasharray:none;stroke-dashoffset:0;stroke-opacity:0.41;visibility:visible;display:inline;overflow:visible;enable-background:accumulate"/>
<path d="M 10.81,15.87 C 11.37,17.06 12.18,17.87 12.62,18.31" id="p3284" style="fill:none;fill-rule:evenodd;stroke:#8b6529;stroke-width:0.89;stroke-linecap:butt;stroke-linejoin:miter;stroke-miterlimit:4;stroke-dasharray:none;stroke-opacity:0.21"/>
<path d="M 4.90,7.68 C 5.34,7.87 5.62,7.78 5.93,8.15" id="p3286" style="fill:none;fill-rule:evenodd;stroke:#36220d;stroke-width:1px;stroke-linecap:round;stroke-linejoin:miter;stroke-opacity:0.73"/>
<path d="M 21.38,27.84 C 22.80,29.30 23.77,29.88 24.70,30.80 C 25.63,31.73 26.42,32.75 27.26,33.37" id="p3288" style="fill:none;fill-rule:evenodd;stroke:#352b1d;stroke-width:1px;stroke-linecap:butt;stroke-linejoin:miter;stroke-opacity:0.54"/>
<path d="M 4.25,6.15 L 3.75,6.30 L 3.51,6.89 C 3.51,6.89 3.75,6.89 3.82,7.24 C 3.90,7.59 3.82,7.98 4.06,8.22 C 4.29,8.45 5.27,8.76 6.25,9.70 C 6.36,10.80 7.50,13.14 7.73,13.57 C 7.97,14.00 8.55,14.35 8.59,14.78 C 8.63,15.21 10.78,17.36 11.05,17.99 C 11.33,18.61 12.19,19.16 12.38,19.63 C 12.58,20.10 13.59,20.99 14.41,21.82 C 15.23,22.64 17.70,25.41 18.67,26.07 C 19.65,26.74 19.42,27.25 20.67,27.68 C 21.17,28.61 22.19,29.55 23.64,30.65 C 25.08,31.74 25.82,32.87 27.03,33.77 C 28.25,34.67 30.63,36.51 31.92,37.41 C 33.21,38.30 34.19,38.93 36.18,40.30 C 38.17,41.66 38.33,41.35 38.52,41.63 C 38.72,41.90 39.89,42.64 40.52,42.92 C 40.63,42.72 40.83,42.41 40.95,42.09 C 40.48,41.63 40.05,41.51 39.23,40.88 C 38.41,40.26 37.86,39.83 36.49,39.05 C 35.12,38.27 34.42,37.56 33.72,37.25 C 33.01,36.94 29.50,34.01 27.58,32.33 C 25.67,30.65 22.66,27.64 21.76,26.62 C 20.86,25.61 20.98,26.19 19.92,24.98 C 18.87,23.77 18.13,23.42 17.58,22.71 C 17.03,22.01 15.20,19.98 14.10,19.08 C 13.01,18.18 13.20,17.95 12.38,17.28 C 13.20,17.87 14.22,18.45 14.57,18.85 C 14.92,19.24 16.91,21.15 17.38,21.70 C 17.85,22.24 19.45,24.00 19.84,24.32 C 20.24,24.63 21.92,26.15 22.74,26.86 C 23.56,27.56 27.74,30.96 28.32,31.47 C 28.91,31.97 32.11,34.12 33.44,35.10 C 34.77,36.08 41.49,39.91 43.37,40.34 C 43.99,40.41 44.66,39.16 44.50,38.54 C 43.72,38.42 43.29,38.89 42.55,38.42 C 41.80,37.95 37.23,35.22 35.20,34.20 C 33.17,33.19 28.36,29.71 26.33,28.15 C 24.30,26.58 23.36,25.80 22.78,24.82 C 22.42,24.71 22.46,25.02 21.76,24.12 C 21.06,23.22 20.43,22.75 20.31,22.40 C 20.24,22.48 20.16,22.71 19.84,22.17 C 19.53,21.62 17.66,20.13 16.99,19.39 C 16.33,18.65 14.26,17.17 12.89,15.72 C 11.52,14.27 10.58,13.69 9.72,12.48 C 8.86,11.26 8.08,10.56 7.61,9.39 C 7.15,8.22 5.54,6.89 4.64,7.28 C 4.49,6.89 4.22,6.58 4.25,6.15 z" id="stroke01" style="fill:none;fill-rule:evenodd;stroke:#221711;stroke-width:0.5;stroke-linecap:round;stroke-linejoin:round;stroke-miterlimit:4;stroke-dasharray:none;stroke-opacity:1"/>
</g>
</svg>
