<?xml version="1.0" encoding="UTF-8" standalone="no"?>
<svg xmlns:svg="http://www.w3.org/2000/svg" xmlns="http://www.w3.org/2000/svg" version="1.0" width="100%" height="100%" viewBox="0 0 48 48" id="svg2383">
<defs id="defs2385"/>
<g id="layer4" style="display:inline">
<path d="M 22.55,34.50 C 20.81,34.67 16.98,34.41 16.11,34.15 C 15.32,34.32 13.32,34.41 12.27,34.41 C 11.23,34.41 3.22,34.50 2.17,34.50 C 1.13,34.50 1.39,31.88 2.61,30.58 C 3.83,29.27 5.39,29.01 6.00,28.40 C 6.61,27.79 9.57,25.26 10.36,25.09 C 11.40,20.74 12.01,18.12 16.37,15.77 C 20.72,13.42 21.42,15.25 22.38,15.07 C 23.34,14.90 26.30,14.29 27.69,14.64 C 29.08,14.99 31.17,16.64 31.96,16.73 C 32.74,16.82 35.88,18.65 37.18,20.04 C 38.49,21.43 41.36,25.18 41.89,26.83 C 42.41,28.49 43.54,28.49 44.15,29.88 C 44.76,31.27 44.59,32.49 45.80,32.84 C 47.02,33.19 47.37,34.06 47.46,34.93 C 47.55,35.80 47.37,37.02 47.02,37.20 C 46.68,37.37 44.06,37.63 42.49,37.46 C 40.93,37.28 37.01,35.63 35.01,35.63 C 33.00,35.63 22.55,34.41 22.55,34.50 z" id="p3237" style="fill:#c3baac;fill-opacity:1;fill-rule:evenodd;stroke:none;display:inline"/>
<path d="M 14.71,16.84 C 13.17,17.97 12.27,19.18 11.65,20.65 C 11.41,22.79 12.16,24.70 13.12,26.62 C 14.42,29.22 13.66,31.70 12.5,34.40 C 13.58,34.39 15.38,34.32 16.12,34.15 C 16.86,34.37 19.67,34.57 21.59,34.53 C 19.81,33.10 17.89,30.62 17.5,27.5 C 17.14,24.63 14.88,20.15 14.71,16.84 z" id="p2446" style="opacity:1;fill:#675f52;fill-opacity:0.17;fill-rule:evenodd;stroke:none;marker:none;visibility:visible;display:inline;overflow:visible;enable-background:accumulate"/>
<path d="M 36.68,23.74 C 40.22,26.36 41.92,34.73 37.44,34.56" id="p3295" style="opacity:1;fill:none;fill-opacity:1;fill-rule:evenodd;stroke:#827763;stroke-width:2.5;stroke-linecap:round;stroke-linejoin:miter;marker:none;stroke-miterlimit:4;stroke-dasharray:none;stroke-dashoffset:0;stroke-opacity:0.61;visibility:visible;display:inline;overflow:visible;enable-background:accumulate"/>
<path d="M 42.81,28.28 C 42.18,30.23 41.03,32.02 40.5,32.37 C 39.95,32.73 38.95,34.23 37.78,36.15 C 39.57,36.65 41.50,37.35 42.5,37.46 C 44.06,37.64 46.68,37.36 47.03,37.18 C 47.37,37.01 47.55,35.80 47.46,34.93 C 47.38,34.06 47.03,33.19 45.81,32.84 C 44.59,32.49 44.76,31.26 44.15,29.87 C 43.80,29.07 43.29,28.74 42.81,28.28 z" id="p2438" style="fill:#655f57;fill-opacity:1;fill-rule:evenodd;stroke:none;display:inline"/>
<path d="M 12.87,25.96 C 10.90,26.08 8.60,26.94 5.78,28.59 C 5.76,28.60 5.76,28.61 5.75,28.62 C 5.70,28.65 5.64,28.68 5.59,28.71 C 5.53,28.75 5.47,28.77 5.40,28.81 C 4.49,29.35 3.55,30.00 2.53,30.71 C 1.39,32.05 1.17,34.49 2.18,34.5 C 3.23,34.5 11.23,34.40 12.28,34.40 C 13.32,34.40 15.34,34.33 16.12,34.15 C 16.95,34.40 20.45,34.63 22.28,34.5 C 20.38,32.00 19.82,29.29 18,27.75 C 16.5,26.48 14.84,25.85 12.87,25.96 z" id="p2453" style="fill:#675f52;fill-opacity:0.31;fill-rule:evenodd;stroke:none;display:inline"/>
<path d="M 10.43,24.84 C 10.41,24.92 10.39,25.00 10.37,25.09 C 9.59,25.26 6.60,27.79 6,28.40 C 5.39,29.01 3.84,29.28 2.62,30.59 C 1.40,31.90 1.14,34.49 2.18,34.5 C 3.23,34.5 11.23,34.40 12.28,34.40 C 13.25,34.40 15.02,34.33 15.90,34.18 C 14.96,33.30 14.44,32.30 14.12,31.75 C 13.62,30.87 12.12,30.5 11.37,30.37 C 10.62,30.25 11.25,29.62 10.62,29 C 10.28,28.66 10.18,27.06 10.43,24.84 z" id="p2440" style="fill:#988f80;fill-opacity:1;fill-rule:evenodd;stroke:none;display:inline"/>
<path d="M 30.81,17.56 C 28.23,17.70 26.81,19.74 25.12,23.75 C 22.44,30.10 30.71,17.25 38.65,21.78 C 38.10,21.08 37.56,20.43 37.18,20.03 C 36.79,19.61 36.23,19.15 35.62,18.71 C 33.63,17.89 32.07,17.49 30.81,17.56 z" id="p2442" style="fill:#e3e1dc;fill-opacity:0.53;fill-rule:evenodd;stroke:none;display:inline"/>
<path d="M 26.40,14.53 C 24.94,14.56 23.09,14.96 22.37,15.09 C 21.76,15.20 21.24,14.49 19.81,14.59 C 20.59,15.52 20.52,17.60 19.5,22.75 C 20,24.37 22.25,25.62 22.25,25.62 C 22.25,25.62 19.12,18.87 23.75,17.25 C 25.73,16.55 28.64,16.37 31.59,16.62 C 30.64,16.23 28.89,14.95 27.68,14.65 C 27.33,14.56 26.89,14.52 26.40,14.53 z" id="p2444" style="fill:#675f52;fill-opacity:0.30;fill-rule:evenodd;stroke:none;display:inline"/>
<path d="M 26.40,14.53 C 25.78,14.54 25.11,14.62 24.46,14.71 C 29.06,15.86 31.14,17.78 32.12,17.87 C 33.5,18 38.25,21.25 40.12,25.87 C 42,30.5 43.12,29.25 43.62,30.62 C 44.12,32 44.75,33 43.62,33.25 C 42.5,33.5 42.12,33.5 41.62,34.5 C 42.87,34.12 45.75,32.75 46.25,33.75 C 46.56,34.38 46.50,36.00 46,37.37 C 46.50,37.31 46.91,37.24 47.03,37.18 C 47.37,37.01 47.55,35.80 47.46,34.93 C 47.38,34.06 47.03,33.19 45.81,32.84 C 44.59,32.49 44.76,31.26 44.15,29.87 C 43.54,28.48 42.39,28.49 41.87,26.84 C 41.35,25.18 38.49,21.42 37.18,20.03 C 35.88,18.63 32.75,16.83 31.96,16.75 C 31.18,16.66 29.08,15.00 27.68,14.65 C 27.33,14.56 26.89,14.52 26.40,14.53 z" id="p2455" style="fill:#e3e1dc;fill-opacity:0.53;fill-rule:evenodd;stroke:none;display:inline"/>
<path d="M 21.46,17.06 C 19.52,19.17 20.03,21.12 19.94,22.56" id="p3291" style="fill:none;fill-rule:evenodd;stroke:#827763;stroke-width:2.5;stroke-linecap:round;stroke-linejoin:miter;stroke-miterlimit:4;stroke-dasharray:none;stroke-opacity:0.61"/>
<path d="M 20.85,18.12 C 20.06,22.27 19.18,29.26 20.77,32.17" id="p3256" style="opacity:1;fill:none;fill-opacity:1;fill-rule:evenodd;stroke:#3a3a3a;stroke-width:1.5;stroke-linecap:round;stroke-linejoin:miter;marker:none;stroke-miterlimit:4;stroke-dasharray:none;stroke-dashoffset:0;stroke-opacity:0.17;visibility:visible;display:inline;overflow:visible;enable-background:accumulate"/>
<path d="M 14.58,28.29 C 15.10,31.27 17.69,32.84 19.58,32.81" id="p3258" style="fill:none;fill-rule:evenodd;stroke:#4b443d;stroke-width:3.79;stroke-linecap:round;stroke-linejoin:miter;stroke-miterlimit:4;stroke-dasharray:none;stroke-opacity:0.33"/>
<path d="M 9.46,28.15 C 8.14,28.13 7.15,28.58 7.15,29.96 C 7.64,29.96 9.29,29.96 10.96,30 C 10.93,29.73 10.99,29.36 10.62,29 C 10.51,28.88 10.43,28.60 10.37,28.25 C 10.05,28.20 9.76,28.16 9.46,28.15 z" id="p3260" style="opacity:1;fill:#272727;fill-opacity:0.72;fill-rule:evenodd;stroke:none;marker:none;visibility:visible;display:inline;overflow:visible;enable-background:accumulate"/>
<path d="M 12.93,30.84 C 12.28,31.62 11.78,33.13 12.15,34.40 C 12.17,34.40 12.26,34.40 12.28,34.40 C 13.25,34.40 15.02,34.33 15.90,34.18 C 14.96,33.30 14.44,32.30 14.12,31.75 C 13.89,31.34 13.42,31.05 12.93,30.84 z" id="p3262" style="opacity:1;fill:#272727;fill-opacity:0.72;fill-rule:evenodd;stroke:none;marker:none;visibility:visible;display:inline;overflow:visible;enable-background:accumulate"/>
<path d="M 12.37,22.80 C 11.49,25.01 11.40,26.16 11.57,27.22" id="p3272" style="fill:none;fill-rule:evenodd;stroke:#d1cfcb;stroke-width:2.29;stroke-linecap:round;stroke-linejoin:miter;stroke-miterlimit:4;stroke-dasharray:none;stroke-opacity:0.52"/>
<path d="M 16.26,18.12 C 15.64,19.89 15.02,23.60 16.97,26.16" id="p3274" style="opacity:1;fill:none;fill-opacity:1;fill-rule:evenodd;stroke:#d1cfcb;stroke-width:3.29;stroke-linecap:round;stroke-linejoin:miter;marker:none;stroke-miterlimit:4;stroke-dasharray:none;stroke-dashoffset:0;stroke-opacity:0.52;visibility:visible;display:inline;overflow:visible;enable-background:accumulate"/>
<path d="M 5.21,31.47 C 4.94,32.35 5.74,33.68 6.36,33.68" id="p3276" style="fill:none;fill-rule:evenodd;stroke:#3f3f3f;stroke-width:2;stroke-linecap:round;stroke-linejoin:miter;stroke-miterlimit:4;stroke-dasharray:none;stroke-opacity:0.43"/>
<path d="M 11.31,32.12 C 11.65,33.14 12.86,33.38 13.69,33.43" id="p3280" style="fill:none;fill-rule:evenodd;stroke:#2f2c28;stroke-width:2.20;stroke-linecap:round;stroke-linejoin:miter;stroke-miterlimit:4;stroke-dasharray:none;stroke-opacity:0.12"/>
<path d="M 16.91,31.98 C 17.57,32.76 18.40,33.71 19.72,33.71" id="p3287" style="fill:none;fill-rule:evenodd;stroke:#262523;stroke-width:2;stroke-linecap:round;stroke-linejoin:miter;stroke-miterlimit:4;stroke-dasharray:none;stroke-opacity:0.27;display:inline"/>
<path d="M 29.66,19.09 C 28.14,19.85 26.96,21.46 26.45,23.65" id="p3293" style="opacity:1;fill:none;fill-opacity:1;fill-rule:evenodd;stroke:#e9e6e0;stroke-width:2.5;stroke-linecap:round;stroke-linejoin:miter;marker:none;stroke-miterlimit:4;stroke-dasharray:none;stroke-dashoffset:0;stroke-opacity:0.61;visibility:visible;display:inline;overflow:visible;enable-background:accumulate"/>
<path d="M 40.46,32.37 C 39.92,32.75 38.94,34.24 37.78,36.15 C 39.20,36.55 40.69,37.05 41.75,37.31 C 41.09,36.32 41.11,34.22 41.06,32.93 C 41.04,32.58 40.83,32.40 40.5,32.37 C 40.48,32.37 40.47,32.37 40.46,32.37 z M 44.75,35.15 C 44.10,35.19 43.84,36.76 43.25,37.5 C 44.09,37.52 44.99,37.48 45.75,37.40 C 46.71,35.29 45.55,35.10 44.75,35.15 z" id="p3297" style="fill:#151515;fill-opacity:0.78;fill-rule:evenodd;stroke:none;display:inline"/>
<path d="M 44.71,33.65 C 43.49,33.63 41.33,35.15 41.12,34.84 C 40.99,34.65 40.24,34.23 39.12,34.06 C 38.71,34.66 38.27,35.35 37.78,36.15 C 39.57,36.65 41.50,37.35 42.5,37.46 C 43.66,37.59 45.41,37.48 46.37,37.34 C 46.70,35.34 45.94,34.22 45.18,33.78 C 45.06,33.70 44.89,33.65 44.71,33.65 z" id="p3299" style="fill:#151515;fill-opacity:0.53;fill-rule:evenodd;stroke:none;display:inline"/>
<path d="M 44.62,37.05 L 45.13,36.59" id="p3311" style="fill:none;fill-rule:evenodd;stroke:#dddddd;stroke-width:1.29;stroke-linecap:round;stroke-linejoin:miter;stroke-miterlimit:4;stroke-dasharray:none;stroke-opacity:0.37;display:inline"/>
<path d="M 43.60,34.74 C 43.84,34.66 44.11,34.64 44.41,34.68" id="p3315" style="fill:none;fill-rule:evenodd;stroke:#000000;stroke-width:1.20;stroke-linecap:round;stroke-linejoin:miter;stroke-miterlimit:4;stroke-dasharray:none;stroke-opacity:0.32;display:inline"/>
<path d="M 13.59,31.31 C 13.49,31.33 13.41,31.38 13.34,31.5 C 12.81,32.38 13.34,32.74 13.56,33.18 C 13.73,33.52 13.28,33.20 12.53,34.40 C 13.53,34.39 15.08,34.32 15.90,34.18 C 14.96,33.30 14.44,32.30 14.12,31.75 C 14.03,31.58 13.90,31.43 13.75,31.31 C 13.74,31.30 13.72,31.31 13.71,31.31 C 13.67,31.30 13.63,31.30 13.59,31.31 z" id="p3347" style="opacity:1;fill:#272727;fill-opacity:0.72;fill-rule:evenodd;stroke:none;marker:none;visibility:visible;display:inline;overflow:visible;enable-background:accumulate"/>
<path d="M 10.18,28.43 C 9.02,28.51 8.13,29.26 7.56,29.96 C 8.20,29.96 9.47,29.96 10.96,30 C 10.93,29.73 10.99,29.36 10.62,29 C 10.53,28.91 10.45,28.69 10.40,28.43 C 10.33,28.43 10.25,28.43 10.18,28.43 z" id="p3351" style="opacity:1;fill:#272727;fill-opacity:0.72;fill-rule:evenodd;stroke:none;marker:none;visibility:visible;display:inline;overflow:visible;enable-background:accumulate"/>
<path d="M 17.47,21.62 C 16.40,21.89 18.79,23.75 19.26,24.68 C 19.72,25.61 20.12,26.54 20.32,27.00 C 20.39,27.53 20.46,28.66 20.59,29.00 C 18.99,31.79 20.59,33.91 20.85,34.51 C 21.12,35.11 22.85,37.10 23.38,37.37 C 23.91,37.63 24.37,39.09 26.10,39.03 C 26.57,38.89 26.83,38.63 26.83,38.63 C 26.83,38.63 27.30,38.89 28.36,38.96 C 29.42,39.03 30.69,38.43 31.42,38.16 C 33.48,38.36 36.39,38.32 38.26,34.91 C 39.53,32.59 39.06,31.51 39.62,29.14 C 40.04,27.33 38.52,25.48 37.86,24.21 C 37.46,23.02 36.13,21.02 35.40,20.83 C 34.67,20.63 34.07,21.42 33.28,22.02 C 31.68,21.76 29.82,22.09 29.02,22.09 C 27.63,21.82 24.18,21.69 22.45,22.55 C 21.19,22.42 18.20,21.76 17.47,21.62 z" id="p2465" style="fill:#817b6c;fill-opacity:1;fill-rule:evenodd;stroke:none;"/>
<path d="M 20.43,28.09 C 20.47,28.48 20.52,28.83 20.59,29 C 18.99,31.79 20.57,33.90 20.84,34.5 C 21.01,34.88 21.82,35.85 22.5,36.56 C 22.53,35.75 22.71,34.83 22.34,34.68 C 21.72,34.44 21.43,33.33 21.56,32.53 C 21.25,32.77 21.12,32.71 20.87,32.71 C 20.44,32.28 21.37,29.83 21.56,29.03 C 21.20,28.96 20.80,28.60 20.43,28.09 z M 24.56,35.84 C 24.44,35.84 24.29,35.87 24.12,35.93 C 23.70,36.08 23.63,36.91 23.43,37.43 C 23.94,37.78 24.43,39.09 26.09,39.03 C 26.16,39.01 26.22,38.99 26.28,38.96 C 25.81,38.36 25.62,37.41 25.31,37.09 C 24.88,36.66 25,36 25,36 C 25,36 24.90,35.82 24.56,35.84 z" id="p3248" style="opacity:1;fill:#c5c5c5;fill-opacity:0.91;fill-rule:evenodd;stroke:none;marker:none;visibility:visible;display:inline;overflow:visible;enable-background:accumulate"/>
<path d="M 24.87,37.68 C 25.34,38.12 25.46,38.21 25.81,38.25" id="p3447" style="fill:none;fill-rule:evenodd;stroke:#e2e2e2;stroke-width:1.5;stroke-linecap:round;stroke-linejoin:miter;stroke-miterlimit:4;stroke-dasharray:none;stroke-opacity:0.74"/>
<path d="M 26.91,37.85 C 27.28,38.18 27.90,37.99 28.21,37.96" id="p3326" style="fill:none;fill-rule:evenodd;stroke:#b8b8b8;stroke-width:1px;stroke-linecap:round;stroke-linejoin:miter;stroke-opacity:0.39"/>
<path d="M 26.40,37.68 C 26.5,38.03 26.71,38.46 26.78,38.59" id="p3354" style="fill:none;fill-rule:evenodd;stroke:#1f0b07;stroke-width:0.40;stroke-linecap:round;stroke-linejoin:miter;stroke-miterlimit:4;stroke-dasharray:none;stroke-opacity:1;display:inline"/>
<path d="M 25.87,21.90 C 24.72,21.94 23.54,22.11 22.68,22.46 C 23.70,22.84 24.58,23.07 25.31,23 C 24.32,23.98 23.96,25.76 23.84,26.5 C 24.27,26.00 25.44,25.03 26,24.96 C 25.56,25.95 25.50,26.56 25.56,27 C 26.60,26.32 28.20,23.04 29.25,24.09 C 28.75,24.77 28.31,25.44 28.37,26.18 C 28.99,26.12 29.99,26.51 29.87,25.65 C 29.75,24.79 31.29,23.37 31.90,23.68 C 32.30,23.32 32.92,22.66 33.37,21.96 C 33.34,21.99 33.31,22.00 33.28,22.03 C 31.68,21.76 29.82,22.09 29.03,22.09 C 28.33,21.96 27.12,21.86 25.87,21.90 z" id="p3246" style="opacity:1;fill:#c5c5c5;fill-opacity:0.91;fill-rule:evenodd;stroke:none;marker:none;visibility:visible;display:inline;overflow:visible;enable-background:accumulate"/>
<path d="M 27.84,22.94 C 26.95,23.86 26.87,25.90 26.91,26.56" id="p3338" style="opacity:1;fill:none;fill-opacity:1;fill-rule:evenodd;stroke:#d3d3d3;stroke-width:1px;stroke-linecap:butt;stroke-linejoin:miter;marker:none;stroke-miterlimit:4;stroke-dasharray:none;stroke-dashoffset:0;stroke-opacity:0.36;visibility:visible;display:inline;overflow:visible;enable-background:accumulate"/>
<path d="M 25.87,21.90 C 24.80,21.94 23.71,22.09 22.87,22.40 C 23.60,22.49 24.33,22.52 24.71,22.59 C 25.42,22.72 27.69,22.27 27.87,22.62 C 27.47,22.97 26.92,23.76 26.65,24.34 C 27.62,23.59 29.44,22.86 29.84,22.90 C 30.06,23.17 30.31,23.53 30.31,23.53 C 30.31,23.53 29.26,23.99 29,24.75 C 29.04,24.92 29.46,25.15 29.46,25.15 C 29.46,25.15 29.51,24.22 30.84,23.78 C 32.16,23.33 32.40,23.06 32.40,23.06 C 32.40,23.06 32.69,22.82 33,22.46 C 33.04,22.41 33.08,22.36 33.12,22.31 C 33.19,22.21 33.28,22.10 33.34,22 C 33.32,22.01 33.30,22.01 33.28,22.03 C 31.68,21.76 29.82,22.09 29.03,22.09 C 28.33,21.96 27.12,21.86 25.87,21.90 z" id="p3330" style="fill:#ffffff;fill-opacity:0.67;fill-rule:evenodd;stroke:none;display:inline"/>
<path d="M 37.37,23.15 C 37.77,24.66 37.91,26.27 37.87,26.81 C 37.81,27.55 38.93,27.29 38.75,28.09 C 38.56,28.89 37.81,30.13 37.81,31.06 C 37.81,31.86 37.51,35.91 33.68,38.15 C 35.30,37.95 36.99,37.18 38.25,34.90 C 39.52,32.59 39.06,31.52 39.62,29.15 C 40.05,27.34 38.53,25.48 37.87,24.21 C 37.76,23.90 37.58,23.53 37.37,23.15 z" id="p3250" style="opacity:1;fill:#c5c5c5;fill-opacity:0.91;fill-rule:evenodd;stroke:none;marker:none;visibility:visible;display:inline;overflow:visible;enable-background:accumulate"/>
<path d="M 28.75,33.56 C 28.31,34.15 27.5,36.09 27.46,36.43" id="p3352" style="fill:none;fill-rule:evenodd;stroke:#4e4e4e;stroke-width:1px;stroke-linecap:round;stroke-linejoin:miter;stroke-opacity:0.78;display:inline"/>
<path d="M 29.37,31.49 C 28.51,31.61 28.14,32.60 28.38,33.58 C 28.63,34.57 31.16,34.20 31.46,32.05 C 30.54,31.80 29.37,31.49 29.37,31.49 z" id="p3252" style="fill:#000000;fill-opacity:1;fill-rule:evenodd;stroke:none;display:inline"/>
<path d="M 22.78,32.05 C 23.27,31.55 24.87,31.61 25.12,33.52 C 24.87,34.02 23.83,34.14 23.40,33.95 C 22.97,33.77 22.47,32.66 22.78,32.05 z" id="p3254" style="opacity:1;fill:#000000;fill-opacity:1;fill-rule:evenodd;stroke:none;marker:none;visibility:visible;display:inline;overflow:visible;enable-background:accumulate"/>
<path d="M 29.37,31.5 C 29.20,31.52 29.03,31.59 28.90,31.68 C 28.74,31.89 28.62,32.12 28.62,32.40 C 28.62,33.08 29.19,33.65 29.87,33.65 C 30.55,33.65 31.09,33.08 31.09,32.40 C 31.09,32.23 31.06,32.08 31,31.93 C 30.25,31.73 29.37,31.5 29.37,31.5 z" id="p3261" style="opacity:1;fill:#eeab54;fill-opacity:1;fill-rule:nonzero;stroke:none;marker:none;visibility:visible;display:inline;overflow:visible;enable-background:accumulate"/>
<path d="M 23.31,31.81 C 23.15,31.83 23.04,31.89 22.93,31.96 C 22.78,32.31 22.77,32.72 23,33.09 C 23.34,33.67 24.06,33.90 24.59,33.59 C 24.80,33.46 24.91,33.28 25,33.06 C 24.68,32.03 23.89,31.72 23.31,31.81 z" id="p3263" style="opacity:1;fill:#eeab54;fill-opacity:1;fill-rule:nonzero;stroke:none;marker:none;visibility:visible;display:inline;overflow:visible;enable-background:accumulate"/>
<path d="M 26.07,35.22 C 25.94,35.80 25.94,36.28 26.03,36.55" id="p3388" style="fill:none;fill-rule:evenodd;stroke:#d8d8d8;stroke-width:1.70;stroke-linecap:round;stroke-linejoin:miter;stroke-miterlimit:4;stroke-dasharray:none;stroke-opacity:0.45"/>
<path d="M 25.12,36.89 C 25.43,37.54 26.51,37.94 26.51,37.94 C 26.51,37.94 27.52,36.93 27.60,36.54 C 27.21,36.67 26.99,36.80 26.99,36.80 C 26.99,36.80 26.78,36.72 26.25,36.72 C 25.73,36.72 25.03,36.89 25.12,36.89 z" id="p3282" style="fill:#2c150e;fill-opacity:1;fill-rule:evenodd;stroke:none;display:inline"/>
<path d="M 22.46,32.58 C 22.46,33.36 23.12,34.23 23.55,34.41" id="p3284" style="fill:none;fill-rule:evenodd;stroke:#f4f4f4;stroke-width:0.2;stroke-linecap:round;stroke-linejoin:miter;stroke-miterlimit:4;stroke-dasharray:none;stroke-opacity:0.65;display:inline"/>
<path d="M 24.51,31.75 C 24.90,31.97 25.12,32.32 25.16,32.75" id="p3286" style="fill:none;fill-rule:evenodd;stroke:#dedede;stroke-width:0.60;stroke-linecap:butt;stroke-linejoin:miter;stroke-miterlimit:4;stroke-dasharray:none;stroke-opacity:0.43;display:inline"/>
<path d="M 29.00,34.32 C 29.95,34.63 31.17,34.54 31.78,32.49" id="p3288" style="fill:none;fill-rule:evenodd;stroke:#d3d3d3;stroke-width:0.60;stroke-linecap:round;stroke-linejoin:miter;stroke-miterlimit:4;stroke-dasharray:none;stroke-opacity:0.23;display:inline"/>
<path d="M 37.84,24.15 C 37.92,26.43 37.62,29.68 36.56,29.71 C 35.34,29.76 34.97,28.96 34.5,28.65 C 34.36,29.17 33.27,31.23 32.62,31.5 C 33.67,31.93 35.59,33.18 36.37,34.53 C 36.75,35.18 36.88,35.99 36.75,36.81 C 37.29,36.33 37.79,35.72 38.25,34.90 C 39.52,32.59 39.06,31.52 39.62,29.15 C 40.05,27.34 38.53,25.48 37.87,24.21 C 37.86,24.19 37.85,24.17 37.84,24.15 z" id="p3290" style="fill:#f6f6f4;fill-opacity:0.22;fill-rule:evenodd;stroke:none;display:inline"/>
<path d="M 23.68,28.49 C 24.21,28.92 24.38,30.88 24.38,31.36 C 23.94,31.19 23.64,30.66 23.42,30.32 C 23.20,29.97 23.38,29.18 23.16,29.05 C 23.25,29.18 23.51,29.84 23.68,28.49 z" id="p3292" style="fill:#3a3a3a;fill-opacity:0.91;fill-rule:evenodd;stroke:none;display:inline"/>
<path d="M 25.99,29.10 C 25.51,30.53 25.77,31.36 25.86,31.75" id="p3294" style="fill:none;fill-rule:evenodd;stroke:#1c1c1c;stroke-width:0.69;stroke-linecap:round;stroke-linejoin:miter;stroke-miterlimit:4;stroke-dasharray:none;stroke-opacity:0.64;display:inline"/>
<path d="M 23.31,31.81 C 23.15,31.83 23.04,31.89 22.93,31.96 C 22.78,32.31 22.77,32.72 23,33.09 C 23.07,33.22 23.17,33.34 23.28,33.43 C 23.66,33.48 23.91,33.28 23.87,33.18 C 23.82,33.04 23.65,32.53 23.93,31.87 C 23.72,31.80 23.50,31.78 23.31,31.81 z" id="p3303" style="fill:#e9f129;fill-opacity:0.32;fill-rule:evenodd;stroke:none;display:inline"/>
<path d="M 23.77,32.28 A 0.28,0.28 0 1 1 23.20,32.28 A 0.28,0.28 0 1 1 23.77,32.28 z" id="p3312" style="opacity:1;fill:#f8f8f8;fill-opacity:0.83;fill-rule:evenodd;stroke:none;marker:none;visibility:visible;display:inline;overflow:visible;enable-background:accumulate"/>
<path d="M 29.37,31.5 C 29.20,31.52 29.03,31.59 28.90,31.68 C 28.74,31.89 28.62,32.12 28.62,32.40 C 28.62,32.61 28.68,32.79 28.78,32.96 C 28.93,32.39 29.24,32.25 29.62,32.25 C 30.01,32.25 30.73,32.35 31,32.87 C 31.06,32.72 31.09,32.57 31.09,32.40 C 31.09,32.23 31.06,32.08 31,31.93 C 30.25,31.73 29.37,31.5 29.37,31.5 z" id="p3323" style="fill:#a73200;fill-opacity:0.59;fill-rule:evenodd;stroke:none;display:inline"/>
<path d="M 29.48,32.45 C 29.50,32.84 29.74,33.02 29.87,33.02 C 30.00,33.02 30.15,32.56 30.11,32.30 C 30.06,32.04 29.95,31.91 29.76,31.91 C 29.56,31.91 29.48,32.21 29.48,32.45 z" id="p3306" style="fill:#000000;fill-opacity:1;fill-rule:evenodd;stroke:none;display:inline"/>
<path d="M 30.76,32.04 A 0.21,0.28 0 1 1 30.32,32.04 A 0.21,0.28 0 1 1 30.76,32.04 z" id="p3314" style="opacity:1;fill:#f8f8f8;fill-opacity:0.83;fill-rule:evenodd;stroke:none;marker:none;visibility:visible;display:inline;overflow:visible;enable-background:accumulate"/>
<path d="M 29.45,32.21 A 0.21,0.37 0 1 1 29.02,32.21 A 0.21,0.37 0 1 1 29.45,32.21 z" transform="matrix(0.96,0.25,-0.25,0.96,9.02,-6.30)" id="p3316" style="opacity:1;fill:#f8f8f8;fill-opacity:0.83;fill-rule:evenodd;stroke:none;marker:none;visibility:visible;display:inline;overflow:visible;enable-background:accumulate"/>
<path d="M 23.31,31.81 C 23.15,31.83 23.04,31.89 22.93,31.96 C 22.90,32.03 22.89,32.11 22.87,32.18 C 23.53,32.00 23.81,31.96 24.78,32.53 C 24.40,31.92 23.78,31.74 23.31,31.81 z" id="p3321" style="opacity:1;fill:#a73200;fill-opacity:0.59;fill-rule:evenodd;stroke:none;marker:none;visibility:visible;display:inline;overflow:visible;enable-background:accumulate"/>
<path d="M 23.68,32.38 C 23.68,32.80 23.90,33.10 24.08,33.12 C 24.25,33.15 24.38,32.65 24.36,32.45 C 24.34,32.25 24.12,31.93 23.99,31.95 C 23.86,31.97 23.64,32.34 23.68,32.38 z" id="p3308" style="fill:#000000;fill-opacity:1;fill-rule:evenodd;stroke:none;display:inline"/>
<path d="M 18.25,22.62 C 21.56,23.93 22.25,24.37 22.81,25.12 C 23.37,25.87 22.87,26.37 22.12,27.18 C 21.37,28 21.31,27.87 21.18,28.25 C 21.06,28.62 20.75,27.43 20.75,26.87 C 20.75,26.31 18.18,22.87 18.25,22.62 z" id="p3342" style="fill:#2c140e;fill-opacity:0.61;fill-rule:evenodd;stroke:none;display:inline"/>
<path d="M 35,21.56 L 35,21.56 C 33.25,22.75 31.25,24.18 30.87,24.75 C 30.5,25.31 30.25,26.37 30.5,26.87 C 30.75,27.37 31.62,28 31.87,27.62 C 32.12,27.25 32.56,27.12 33.18,27.75 C 33.81,28.37 33.81,28.75 34,29.31 C 34.62,29.06 35.68,28.87 36.06,29.31 C 36.43,29.75 37.75,27.31 37.31,24.81 C 36.87,22.31 35.56,21.5 35,21.56 z" id="p3344" style="opacity:1;fill:#1f1f1f;fill-opacity:0.75;fill-rule:evenodd;stroke:none;marker:none;visibility:visible;display:inline;overflow:visible;enable-background:accumulate"/>
<path d="M 29.62,27.12 C 29.06,27.25 27.93,30.75 28,31.31 C 28.06,31.87 28.75,31.25 28.75,31.25 C 28.75,31.25 29.06,29.68 29.56,29.68 C 30.06,29.68 31.62,30.25 31.87,31.31 C 32.12,32.37 33.62,29.87 34.43,29.37 C 35.25,28.87 35.18,26.12 34.68,26 C 34.18,25.87 35.81,22.68 36.25,22.5 C 36.68,22.31 35.62,21.18 34.75,21.81 C 33.87,22.43 31.75,24.5 32.25,25.5 C 32.75,26.5 33.62,27.06 32.87,27.62 C 32.12,28.18 31.06,28.06 29.62,27.12 z" id="p3346" style="opacity:1;fill:#424242;fill-opacity:0.72;fill-rule:evenodd;stroke:none;marker:none;visibility:visible;display:inline;overflow:visible;enable-background:accumulate"/>
<path d="M 25.06,32.46 C 25.46,33.06 25.40,33.5 25.31,34.03" id="p3348" style="fill:none;fill-rule:evenodd;stroke:#c6c6c6;stroke-width:0.40;stroke-linecap:round;stroke-linejoin:miter;stroke-miterlimit:4;stroke-dasharray:none;stroke-opacity:0.55;display:inline"/>
<path d="M 24.40,29 C 24.59,29.59 24.46,30 24.5,30.28" id="p3350" style="fill:none;fill-rule:evenodd;stroke:#dbdbdb;stroke-width:0.60;stroke-linecap:round;stroke-linejoin:miter;stroke-miterlimit:4;stroke-dasharray:none;stroke-opacity:0.34;display:inline"/>
<path d="M 31.81,31.90 C 31.50,31.93 31.28,31.98 31.18,32.03 C 31.46,32.12 31.59,32.21 31.87,32.37 C 34.46,32.37 35.56,35.53 35.28,35.68 C 35,35.84 34.56,35.18 34.15,35.25 C 33.75,35.31 32.90,35.90 32.78,36.21 C 32.59,36.28 31.12,36.28 31.12,36.28 C 31.12,36.28 30.81,36.46 30.84,36.53 C 31.31,36.53 31.81,36.68 32.37,36.75 C 32.22,36.87 31.76,37.31 31.34,38.18 C 31.36,38.18 31.38,38.16 31.40,38.15 C 32.45,38.25 33.72,38.31 34.96,37.87 C 33.16,37.26 33.47,36.98 34.75,36.56 C 36.25,36.06 38,34.06 37.03,33.75 C 36.06,33.43 36.25,33.81 35.18,32.75 C 34.39,31.95 32.74,31.83 31.81,31.90 z" id="p3356" style="opacity:1;fill:#424242;fill-opacity:0.46;fill-rule:evenodd;stroke:none;marker:none;visibility:visible;display:inline;overflow:visible;enable-background:accumulate"/>
<path d="M 27.56,38.06 C 28.43,38.18 29.40,37.81 30.78,37.40" id="p3369" style="fill:none;fill-rule:evenodd;stroke:#424242;stroke-width:0.2;stroke-linecap:butt;stroke-linejoin:miter;stroke-miterlimit:4;stroke-dasharray:0.2, 0.2;stroke-dashoffset:0;stroke-opacity:0.60;display:inline"/>
<path d="M 28.21,37.5 C 29,37.59 30.53,36.71 32.03,37.06" id="p3371" style="fill:none;fill-rule:evenodd;stroke:#424242;stroke-width:0.2;stroke-linecap:butt;stroke-linejoin:miter;stroke-miterlimit:4;stroke-dasharray:0.2, 0.2;stroke-dashoffset:0;stroke-opacity:0.74;display:inline"/>
<path d="M 28.71,36.93 C 29.87,36.59 31.15,36.37 32.25,36.5" id="p3373" style="fill:none;fill-rule:evenodd;stroke:#424242;stroke-width:0.30;stroke-linecap:butt;stroke-linejoin:miter;stroke-miterlimit:4;stroke-dasharray:0.30, 0.30;stroke-dashoffset:0;stroke-opacity:0.77;display:inline"/>
<path d="M 32.15,35.59 C 32.93,35.15 33.56,34.75 33.90,34.06" id="p3378" style="fill:none;fill-rule:evenodd;stroke:#bfbfbf;stroke-width:1.39;stroke-linecap:round;stroke-linejoin:miter;stroke-miterlimit:4;stroke-dasharray:none;stroke-opacity:0.31"/>
<path d="M 32.18,37.87 C 32.43,37.62 32.87,37.53 33.18,37.5" id="p3380" style="fill:none;fill-rule:evenodd;stroke:#000000;stroke-width:1px;stroke-linecap:round;stroke-linejoin:miter;stroke-opacity:0.26"/>
<path d="M 32.25,38.03 C 32.37,37.09 33.31,36.68 33.56,36.5" id="p3382" style="fill:none;fill-rule:evenodd;stroke:#000000;stroke-width:1px;stroke-linecap:butt;stroke-linejoin:miter;stroke-opacity:0.29"/>
<path d="M 27.56,34.21 C 28.21,35.5 29.21,36.12 29.78,36.18" id="p3384" style="fill:none;fill-rule:evenodd;stroke:#9c9c9c;stroke-width:0.60;stroke-linecap:round;stroke-linejoin:miter;stroke-miterlimit:4;stroke-dasharray:none;stroke-opacity:0.37"/>
<path d="M 26.51,29.88 C 26.29,30.67 26.16,31.82 26.16,32.09" id="p3410" style="opacity:1;fill:none;fill-opacity:1;fill-rule:evenodd;stroke:#3a3a3a;stroke-width:1.5;stroke-linecap:round;stroke-linejoin:miter;marker:none;stroke-miterlimit:4;stroke-dasharray:none;stroke-dashoffset:0;stroke-opacity:0.43;visibility:visible;display:inline;overflow:visible;enable-background:accumulate"/>
<path d="M 29.21,28.90 C 28.63,29.83 28.37,30.80 28.59,31.16" id="p3412" style="opacity:1;fill:none;fill-opacity:1;fill-rule:evenodd;stroke:#000000;stroke-width:1px;stroke-linecap:butt;stroke-linejoin:miter;marker:none;stroke-miterlimit:4;stroke-dasharray:none;stroke-dashoffset:0;stroke-opacity:0.29;visibility:visible;display:inline;overflow:visible;enable-background:accumulate"/>
<path d="M 34.21,22.93 C 35.18,22.21 36.09,23.18 36.46,24.18" id="p3445" style="fill:none;fill-rule:evenodd;stroke:#401e09;stroke-width:1.39;stroke-linecap:round;stroke-linejoin:miter;stroke-miterlimit:4;stroke-dasharray:none;stroke-opacity:0.41"/>
<path d="M 34.12,22.68 C 33.68,23.62 32.87,24.93 33.12,25.81" id="p3456" style="fill:none;fill-rule:evenodd;stroke:#5b564e;stroke-width:1.70;stroke-linecap:round;stroke-linejoin:miter;stroke-miterlimit:4;stroke-dasharray:none;stroke-opacity:0.66"/>
<path d="M 32.83,24.97 C 33.45,25.77 33.45,26.07 33.98,26.34" id="p3414" style="fill:none;fill-rule:evenodd;stroke:#a4a4a4;stroke-width:1px;stroke-linecap:round;stroke-linejoin:miter;stroke-opacity:0.34;display:inline"/>
<path d="M 35.70,24.97 C 35.62,25.81 35.75,27.31 35.57,27.93" id="p3458" style="fill:none;fill-rule:evenodd;stroke:#000000;stroke-width:1.5;stroke-linecap:round;stroke-linejoin:miter;stroke-miterlimit:4;stroke-dasharray:none;stroke-opacity:0.39;display:inline"/>
<path d="M 36.28,26.69 C 36.68,27.05 36.94,27.93 36.76,28.64 C 36.59,29.35 37.47,28.81 37.74,27.93 C 38.00,27.05 37.60,22.19 35.09,21.21 C 33.85,21.96 31.37,23.82 31.02,24.93" id="p3416" style="fill:none;fill-rule:evenodd;stroke:#f7f7f7;stroke-width:0.40;stroke-linecap:round;stroke-linejoin:miter;stroke-miterlimit:4;stroke-dasharray:none;stroke-opacity:0.80;display:inline"/>
<path d="M 31.68,25.10 C 31.46,25.59 31.68,26.61 32.04,26.69" id="p3461" style="fill:none;fill-rule:evenodd;stroke:#000000;stroke-width:1px;stroke-linecap:butt;stroke-linejoin:miter;stroke-opacity:0.55"/>
<path d="M 23.71,36.20 C 23.88,36.55 24.26,36.90 24.46,36.97" id="p3463" style="opacity:1;fill:none;fill-opacity:1;fill-rule:evenodd;stroke:#424242;stroke-width:0.2;stroke-linecap:butt;stroke-linejoin:miter;marker:none;stroke-miterlimit:4;stroke-dasharray:0.2, 0.2;stroke-dashoffset:0;stroke-opacity:0.74;visibility:visible;display:inline;overflow:visible;enable-background:accumulate"/>
<path d="M 26.62,37.41 C 26.87,37.39 27.11,37.06 27.11,37.06" id="p3465" style="fill:none;fill-rule:evenodd;stroke:#150d0b;stroke-width:0.40;stroke-linecap:round;stroke-linejoin:miter;stroke-miterlimit:4;stroke-dasharray:none;stroke-opacity:1"/>
<path d="M 22.18,31.69 C 22.40,31.29 22.75,31.16 23.02,31.16" id="p3318" style="fill:none;fill-rule:evenodd;stroke:#d4d4d4;stroke-width:1px;stroke-linecap:butt;stroke-linejoin:miter;stroke-opacity:0.61"/>
<path d="M 20.68,29.57 C 20.32,30.63 20.24,31.11 20.32,31.73" id="p3320" style="opacity:1;fill:none;fill-opacity:1;fill-rule:evenodd;stroke:#e2e2e2;stroke-width:0.89;stroke-linecap:round;stroke-linejoin:miter;marker:none;stroke-miterlimit:4;stroke-dasharray:none;stroke-dashoffset:0;stroke-opacity:0.74;visibility:visible;display:inline;overflow:visible;enable-background:accumulate"/>
<path d="M 26.33,26.91 C 26.33,26.91 26.16,27.44 26.16,27.62" id="p3322" style="opacity:1;fill:none;fill-opacity:1;fill-rule:evenodd;stroke:#1c1c1c;stroke-width:0.5;stroke-linecap:round;stroke-linejoin:miter;marker:none;stroke-miterlimit:4;stroke-dasharray:none;stroke-dashoffset:0;stroke-opacity:0.35;visibility:visible;display:inline;overflow:visible;enable-background:accumulate"/>
<path d="M 27.88,32.09 C 27.66,32.57 27.53,33.15 27.62,33.46" id="p3324" style="opacity:1;fill:none;fill-opacity:1;fill-rule:evenodd;stroke:#bfbfbf;stroke-width:1px;stroke-linecap:butt;stroke-linejoin:miter;marker:none;stroke-miterlimit:4;stroke-dasharray:none;stroke-dashoffset:0;stroke-opacity:0.44;visibility:visible;display:inline;overflow:visible;enable-background:accumulate"/>
<path d="M 19.96,22.81 C 20.62,23.09 22.81,24.21 23.09,25.09" id="p3328" style="opacity:1;fill:none;fill-opacity:1;fill-rule:evenodd;stroke:#f7f7f7;stroke-width:0.30;stroke-linecap:round;stroke-linejoin:miter;marker:none;stroke-miterlimit:4;stroke-dasharray:none;stroke-dashoffset:0;stroke-opacity:0.48;visibility:visible;display:inline;overflow:visible;enable-background:accumulate"/>
<path d="M 24.79,23.78 C 24.30,24.22 24.13,24.93 24.13,25.28" id="p3336" style="opacity:1;fill:none;fill-opacity:1;fill-rule:evenodd;stroke:#cdcdcd;stroke-width:1px;stroke-linecap:butt;stroke-linejoin:miter;marker:none;stroke-miterlimit:4;stroke-dasharray:none;stroke-dashoffset:0;stroke-opacity:0.89;visibility:visible;display:inline;overflow:visible;enable-background:accumulate"/>
<path d="M 37.51,36.04 C 37.77,35.71 38.02,35.34 38.26,34.91 C 39.53,32.59 39.06,31.51 39.62,29.14 C 40.04,27.33 38.52,25.48 37.86,24.21 C 37.46,23.02 36.13,21.02 35.40,20.83 C 34.67,20.63 34.07,21.42 33.28,22.02 C 31.68,21.76 29.82,22.09 29.02,22.09 C 27.63,21.82 24.18,21.69 22.45,22.55 C 21.19,22.42 18.20,21.76 17.47,21.62 C 16.40,21.89 18.79,23.75 19.26,24.68 C 19.72,25.61 20.12,26.54 20.32,27.00 C 20.39,27.53 20.46,28.66 20.59,29.00 C 18.99,31.79 20.59,33.91 20.85,34.51" id="stroke01" style="fill:none;fill-rule:evenodd;stroke:#323232;stroke-width:0.40;stroke-linecap:butt;stroke-linejoin:miter;stroke-miterlimit:4;stroke-dasharray:none;stroke-opacity:1"/>
<path d="M 26.40,14.53 C 24.94,14.56 23.09,14.96 22.37,15.09 C 21.41,15.26 20.72,13.42 16.37,15.78 C 12.02,18.13 11.42,20.73 10.37,25.09 C 9.59,25.26 6.60,27.79 6,28.40 C 5.39,29.01 3.84,29.28 2.62,30.59 C 1.40,31.90 1.14,34.49 2.18,34.5 C 3.23,34.5 11.23,34.40 12.28,34.40 C 13.32,34.40 15.34,34.33 16.12,34.15 C 16.77,34.35 19.03,34.54 20.87,34.56 C 21.19,35.20 22.85,37.11 23.37,37.37 C 23.90,37.64 24.36,39.09 26.09,39.03 C 26.55,38.89 26.84,38.62 26.84,38.62 C 26.84,38.62 27.31,38.90 28.37,38.96 C 29.43,39.03 30.67,38.42 31.40,38.15 C 33.18,38.32 35.63,38.31 37.46,36.09 C 39.34,36.59 41.44,37.35 42.5,37.46 C 44.06,37.64 46.68,37.36 47.03,37.18 C 47.37,37.01 47.55,35.80 47.46,34.93 C 47.38,34.06 47.03,33.19 45.81,32.84 C 44.59,32.49 44.76,31.26 44.15,29.87 C 43.54,28.48 42.39,28.49 41.87,26.84 C 41.35,25.18 38.49,21.42 37.18,20.03 C 35.88,18.63 32.75,16.83 31.96,16.75 C 31.18,16.66 29.08,15.00 27.68,14.65 C 27.33,14.56 26.89,14.52 26.40,14.53 z" id="stroke02" style="fill:none;fill-rule:evenodd;stroke:#323232;stroke-width:0.5;stroke-linecap:butt;stroke-linejoin:miter;stroke-miterlimit:4;stroke-dasharray:none;stroke-opacity:1"/>
</g>
</svg>
