<?xml version="1.0" encoding="UTF-8" standalone="no"?>

<svg xmlns:svg="http://www.w3.org/2000/svg" xmlns="http://www.w3.org/2000/svg" xmlns:xlink="http://www.w3.org/1999/xlink" version="1.0" width="100%" height="100%" viewBox="0 0 48 48" id="svg2383" style="display:inline">
<defs id="defs2385"/>
<g id="layer2" style="display:inline">
<path d="M 44.687,13.406 L 3.906,13.625 L 1.625,32.937 L 2.5,34.125 L 4.375,34.125 L 5.843,16.656 L 42.406,16.343 L 44.625,34.218 L 46.093,34.218 L 46.937,32.718 L 44.687,13.406 z" id="p3252" style="opacity:1;fill:#14110f;fill-opacity:1;fill-rule:evenodd;stroke:none;marker:none;visibility:visible;display:inline;overflow:visible;enable-background:accumulate"/>
<g id="g3377">
<path d="M 7.437,15.567 L 6.977,20.167" id="p3277" style="fill:none;fill-rule:evenodd;stroke:#dec079;stroke-width:0.699;stroke-linecap:round;stroke-linejoin:miter;stroke-miterlimit:4;stroke-dasharray:none;stroke-opacity:1"/>
<path d="M 10.274,15.490 L 9.814,19.784" id="p3279" style="fill:none;fill-rule:evenodd;stroke:#dec079;stroke-width:0.699;stroke-linecap:round;stroke-linejoin:miter;stroke-miterlimit:4;stroke-dasharray:none;stroke-opacity:1"/>
<path d="M 12.957,15.490 L 12.651,21.164" id="p3281" style="fill:none;fill-rule:evenodd;stroke:#dec079;stroke-width:0.699;stroke-linecap:round;stroke-linejoin:miter;stroke-miterlimit:4;stroke-dasharray:none;stroke-opacity:1"/>
<path d="M 15.794,15.490 L 15.487,21.164" id="p3283" style="fill:none;fill-rule:evenodd;stroke:#dec079;stroke-width:0.699;stroke-linecap:round;stroke-linejoin:miter;stroke-miterlimit:4;stroke-dasharray:none;stroke-opacity:1"/>
<path d="M 18.324,15.567 L 18.248,21.087" id="p3285" style="fill:none;fill-rule:evenodd;stroke:#dec079;stroke-width:0.699;stroke-linecap:round;stroke-linejoin:miter;stroke-miterlimit:4;stroke-dasharray:none;stroke-opacity:1"/>
<path d="M 21.391,15.643 L 21.315,21.011" id="p3287" style="fill:none;fill-rule:evenodd;stroke:#dec079;stroke-width:0.699;stroke-linecap:round;stroke-linejoin:miter;stroke-miterlimit:4;stroke-dasharray:none;stroke-opacity:1"/>
<path d="M 24.075,15.567 L 24.151,21.087" id="p3289" style="fill:none;fill-rule:evenodd;stroke:#dec079;stroke-width:0.699;stroke-linecap:round;stroke-linejoin:miter;stroke-miterlimit:4;stroke-dasharray:none;stroke-opacity:1"/>
<path d="M 26.835,15.490 L 26.988,20.934" id="p3291" style="fill:none;fill-rule:evenodd;stroke:#dec079;stroke-width:0.699;stroke-linecap:round;stroke-linejoin:miter;stroke-miterlimit:4;stroke-dasharray:none;stroke-opacity:1"/>
<path d="M 29.595,15.567 L 29.902,21.087" id="p3293" style="fill:none;fill-rule:evenodd;stroke:#dec079;stroke-width:0.699;stroke-linecap:round;stroke-linejoin:miter;stroke-miterlimit:4;stroke-dasharray:none;stroke-opacity:1"/>
<path d="M 32.509,15.490 L 32.816,21.087" id="p3295" style="fill:none;fill-rule:evenodd;stroke:#dec079;stroke-width:0.699;stroke-linecap:round;stroke-linejoin:miter;stroke-miterlimit:4;stroke-dasharray:none;stroke-opacity:1"/>
<path d="M 35.116,15.490 L 35.576,20.474" id="p3297" style="fill:none;fill-rule:evenodd;stroke:#dec079;stroke-width:0.699;stroke-linecap:round;stroke-linejoin:miter;stroke-miterlimit:4;stroke-dasharray:none;stroke-opacity:1"/>
<path d="M 37.953,15.490 L 38.413,20.781" id="p3299" style="fill:none;fill-rule:evenodd;stroke:#dec079;stroke-width:0.699;stroke-linecap:round;stroke-linejoin:miter;stroke-miterlimit:4;stroke-dasharray:none;stroke-opacity:1"/>
<path d="M 40.866,15.413 L 41.326,20.704" id="p3301" style="fill:none;fill-rule:evenodd;stroke:#dec079;stroke-width:0.699;stroke-linecap:round;stroke-linejoin:miter;stroke-miterlimit:4;stroke-dasharray:none;stroke-opacity:1"/>
</g>
<path d="M 44.687,13.406 L 3.906,13.625 L 3.218,19.375 L 2.906,21.968 L 1.625,32.937 L 2.5,34.125 L 46.093,34.218 L 46.937,32.718 L 45.687,22.093 L 45.437,19.843 L 45.343,19 L 44.687,13.406 z M 43.156,14.593 L 43.687,19 L 4.781,19.375 L 5.312,14.812 L 43.156,14.593 z M 4.468,21.968 L 44.062,22.093 L 45.218,31.406 L 3.375,31.312 L 4.468,21.968 z" id="p3246" style="opacity:1;fill:#251f1c;fill-opacity:1;fill-rule:evenodd;stroke:none;marker:none;visibility:visible;display:inline;overflow:visible;enable-background:accumulate"/>
<use transform="matrix(0.909,-3.976e-2,3.976e-2,0.909,18.041,-8.607)" id="use3733" x="0" y="0" width="48" height="48" xlink:href="#g3532"/>
<use transform="matrix(0.910,-3.775e-2,3.775e-2,0.910,12.298,-8.622)" id="use3725" x="0" y="0" width="48" height="48" xlink:href="#g3532"/>
<use transform="matrix(0.910,-2.068e-2,2.068e-2,0.910,10.094,-8.945)" id="use3721" x="0" y="0" width="48" height="48" xlink:href="#g3532"/>
<path d="M 4.468,21.968 L 44.062,22.093 L 43.687,19 L 4.781,19.375 L 4.468,21.968 z" id="r3303" style="opacity:1;fill:#251f1c;fill-opacity:1;fill-rule:evenodd;stroke:none;marker:none;visibility:visible;display:inline;overflow:visible;enable-background:accumulate"/>
<path d="M 43.875,20.375 L 4.625,20.656 L 4.468,21.968 L 44.062,22.093 L 43.875,20.375 z" id="p3249" style="opacity:1;fill:#14110f;fill-opacity:1;fill-rule:evenodd;stroke:none;marker:none;visibility:visible;display:inline;overflow:visible;enable-background:accumulate"/>
<g id="g3392">
<path d="M 6.823,21.547 L 5.827,31.898" id="p3337" style="fill:none;fill-rule:evenodd;stroke:#dec079;stroke-width:0.699;stroke-linecap:round;stroke-linejoin:miter;stroke-miterlimit:4;stroke-dasharray:none;stroke-opacity:1"/>
<path d="M 9.660,21.624 L 8.817,31.745" id="p3353" style="fill:none;fill-rule:evenodd;stroke:#dec079;stroke-width:0.699;stroke-linecap:round;stroke-linejoin:miter;stroke-miterlimit:4;stroke-dasharray:none;stroke-opacity:1"/>
<path d="M 12.574,21.471 L 11.960,31.668" id="p3355" style="fill:none;fill-rule:evenodd;stroke:#dec079;stroke-width:0.699;stroke-linecap:round;stroke-linejoin:miter;stroke-miterlimit:4;stroke-dasharray:none;stroke-opacity:1"/>
<path d="M 15.526,21.471 L 15.104,31.668" id="p3357" style="fill:none;fill-rule:evenodd;stroke:#dec079;stroke-width:0.699;stroke-linecap:round;stroke-linejoin:miter;stroke-miterlimit:4;stroke-dasharray:none;stroke-opacity:1"/>
<path d="M 18.209,21.356 L 18.094,31.898" id="p3359" style="fill:none;fill-rule:evenodd;stroke:#dec079;stroke-width:0.699;stroke-linecap:round;stroke-linejoin:miter;stroke-miterlimit:4;stroke-dasharray:none;stroke-opacity:1"/>
<path d="M 21.276,21.432 L 21.085,31.745" id="p3361" style="fill:none;fill-rule:evenodd;stroke:#dec079;stroke-width:0.699;stroke-linecap:round;stroke-linejoin:miter;stroke-miterlimit:4;stroke-dasharray:none;stroke-opacity:1"/>
<path d="M 24.113,21.547 L 24.151,31.898" id="p3363" style="fill:none;fill-rule:evenodd;stroke:#dec079;stroke-width:0.699;stroke-linecap:round;stroke-linejoin:miter;stroke-miterlimit:4;stroke-dasharray:none;stroke-opacity:1"/>
<path d="M 26.988,21.471 L 27.218,32.205" id="p3365" style="fill:none;fill-rule:evenodd;stroke:#dec079;stroke-width:0.699;stroke-linecap:round;stroke-linejoin:miter;stroke-miterlimit:4;stroke-dasharray:none;stroke-opacity:1"/>
<path d="M 29.902,21.432 L 30.439,31.975" id="p3367" style="fill:none;fill-rule:evenodd;stroke:#dec079;stroke-width:0.699;stroke-linecap:round;stroke-linejoin:miter;stroke-miterlimit:4;stroke-dasharray:none;stroke-opacity:1"/>
<path d="M 32.854,21.317 L 33.429,31.745" id="p3369" style="fill:none;fill-rule:evenodd;stroke:#dec079;stroke-width:0.699;stroke-linecap:round;stroke-linejoin:miter;stroke-miterlimit:4;stroke-dasharray:none;stroke-opacity:1"/>
<path d="M 35.652,21.356 L 36.573,31.821" id="p3371" style="fill:none;fill-rule:evenodd;stroke:#dec079;stroke-width:0.699;stroke-linecap:round;stroke-linejoin:miter;stroke-miterlimit:4;stroke-dasharray:none;stroke-opacity:1"/>
<path d="M 38.489,21.279 L 39.486,31.975" id="p3373" style="fill:none;fill-rule:evenodd;stroke:#dec079;stroke-width:0.699;stroke-linecap:round;stroke-linejoin:miter;stroke-miterlimit:4;stroke-dasharray:none;stroke-opacity:1"/>
<path d="M 41.441,21.317 L 42.553,31.821" id="p3375" style="fill:none;fill-rule:evenodd;stroke:#dec079;stroke-width:0.699;stroke-linecap:round;stroke-linejoin:miter;stroke-miterlimit:4;stroke-dasharray:none;stroke-opacity:1"/>
</g>
<use transform="translate(-4.607e-2,-5.920)" id="use3551" x="0" y="0" width="48" height="48" xlink:href="#g3532"/>
<use transform="translate(0,-4.538)" id="use3549" x="0" y="0" width="48" height="48" xlink:href="#g3532"/>
<use transform="translate(-2.303e-2,-3.155)" id="use3547" x="0" y="0" width="48" height="48" xlink:href="#g3532"/>
<use transform="translate(0,-1.543)" id="use3543" x="0" y="0" width="48" height="48" xlink:href="#g3532"/>
<g id="g3532">
<path d="M 24.191,29.873 C 23.439,29.873 22.831,29.993 22.831,30.629 C 22.831,30.772 22.831,30.903 22.831,31.042 C 22.831,31.679 23.439,31.799 24.191,31.799 C 24.943,31.799 25.579,31.679 25.579,31.042 C 25.579,30.916 25.579,30.768 25.579,30.629 C 25.579,29.993 24.943,29.873 24.191,29.873 z" id="p3415" style="fill:#27221d;fill-opacity:1;fill-rule:evenodd;stroke:none;marker:none;visibility:visible;display:inline;overflow:visible;enable-background:accumulate"/>
<path d="M 24.191,31.088 C 23.593,31.088 23.113,31.158 22.998,31.478 C 23.002,31.483 22.993,31.496 22.998,31.501 C 23.228,31.743 23.674,31.799 24.191,31.799 C 24.721,31.799 25.180,31.736 25.412,31.478 C 25.297,31.158 24.790,31.088 24.191,31.088 z" id="p3417" style="fill:#000000;fill-opacity:1;fill-rule:evenodd;stroke:none;marker:none;visibility:visible;display:inline;overflow:visible;enable-background:accumulate"/>
<path d="M 23.438,30.436 C 23.901,30.292 24.422,30.292 24.682,30.321" id="p3425" style="fill:none;fill-rule:evenodd;stroke:#d0d0d0;stroke-width:0.888px;stroke-linecap:round;stroke-linejoin:miter;stroke-opacity:0.104"/>
<path d="M 24.335,30.451 C 24.538,30.422 24.972,30.509 25.087,30.538" id="p3427" style="fill:none;fill-rule:evenodd;stroke:#fdcfa8;stroke-width:0.710;stroke-linecap:round;stroke-linejoin:miter;stroke-miterlimit:4;stroke-dasharray:none;stroke-opacity:0.104"/>
<path d="M 11.630,7.880 A 0.382,0.244 0 1 1 10.864,7.880 A 0.382,0.244 0 1 1 11.630,7.880 z" transform="matrix(1.079,0.218,-0.218,1.079,14.242,19.374)" id="p3431" style="fill:#f5baa1;fill-opacity:0.268;fill-rule:evenodd;stroke:none;marker:none;visibility:visible;display:inline;overflow:visible;enable-background:accumulate"/>
<path d="M 24.191,29.873 C 23.439,29.873 22.831,29.993 22.831,30.629 C 22.831,30.772 22.831,30.903 22.831,31.042 C 22.831,31.679 23.439,31.799 24.191,31.799 C 24.943,31.799 25.579,31.679 25.579,31.042 C 25.579,30.916 25.579,30.768 25.579,30.629 C 25.579,29.993 24.943,29.873 24.191,29.873 z" id="p3423" style="fill:none;fill-opacity:1;fill-rule:evenodd;stroke:#000000;stroke-width:0.2;stroke-linecap:round;stroke-linejoin:miter;marker:none;stroke-miterlimit:4;stroke-dasharray:none;stroke-dashoffset:0;stroke-opacity:1;visibility:visible;display:inline;overflow:visible;enable-background:accumulate"/>
<path d="M 0.618,26.474 A 0.464,0.252 0 1 1 -0.309,26.474 A 0.464,0.252 0 1 1 0.618,26.474 z" transform="matrix(0.888,0,0,0.888,24.083,8.294)" id="p3442" style="fill:#dec079;fill-opacity:1;fill-rule:evenodd;stroke:none;marker:none;visibility:visible;display:inline;overflow:visible;enable-background:accumulate"/>
</g>
<use transform="matrix(0.999,1.567e-2,-1.567e-2,0.999,-2.573,-6.355)" id="use3561" x="0" y="0" width="48" height="48" xlink:href="#g3532"/>
<use transform="matrix(0.999,3.955e-2,-3.955e-2,0.999,-1.855,-5.453)" id="use3559" x="0" y="0" width="48" height="48" xlink:href="#g3532"/>
<use transform="matrix(0.999,3.955e-2,-3.955e-2,0.999,-1.890,-4.029)" id="use3557" x="0" y="0" width="48" height="48" xlink:href="#g3532"/>
<use transform="matrix(0.999,3.955e-2,-3.955e-2,0.999,-1.926,-2.463)" id="use3555" x="0" y="0" width="48" height="48" xlink:href="#g3532"/>
<use transform="matrix(0.999,3.955e-2,-3.955e-2,0.999,-1.961,-0.933)" id="use3553" x="0" y="0" width="48" height="48" xlink:href="#g3532"/>
<use transform="matrix(0.999,3.521e-2,-3.521e-2,0.999,-7.843,-6.881)" id="use3573" x="0" y="0" width="48" height="48" xlink:href="#g3532"/>
<use transform="matrix(0.998,5.907e-2,-5.907e-2,0.998,-7.142,-5.966)" id="use3575" x="0" y="0" width="48" height="48" xlink:href="#g3532"/>
<use transform="matrix(0.998,5.907e-2,-5.907e-2,0.998,-7.206,-4.543)" id="use3577" x="0" y="0" width="48" height="48" xlink:href="#g3532"/>
<use transform="matrix(0.998,5.907e-2,-5.907e-2,0.998,-7.272,-2.978)" id="use3579" x="0" y="0" width="48" height="48" xlink:href="#g3532"/>
<use transform="matrix(0.998,5.907e-2,-5.907e-2,0.998,-7.337,-1.449)" id="use3581" x="0" y="0" width="48" height="48" xlink:href="#g3532"/>
<use transform="matrix(0.999,1.567e-2,-1.567e-2,0.999,-5.527,-6.390)" id="use3583" x="0" y="0" width="48" height="48" xlink:href="#g3532"/>
<use transform="matrix(0.999,3.955e-2,-3.955e-2,0.999,-4.809,-5.489)" id="use3585" x="0" y="0" width="48" height="48" xlink:href="#g3532"/>
<use transform="matrix(0.999,3.955e-2,-3.955e-2,0.999,-4.844,-4.065)" id="use3587" x="0" y="0" width="48" height="48" xlink:href="#g3532"/>
<use transform="matrix(0.999,3.955e-2,-3.955e-2,0.999,-4.880,-2.499)" id="use3589" x="0" y="0" width="48" height="48" xlink:href="#g3532"/>
<use transform="matrix(0.999,3.955e-2,-3.955e-2,0.999,-4.916,-0.968)" id="use3591" x="0" y="0" width="48" height="48" xlink:href="#g3532"/>
<use transform="matrix(0.999,4.257e-2,-4.257e-2,0.999,-10.718,-7.121)" id="use3593" x="0" y="0" width="48" height="48" xlink:href="#g3532"/>
<use transform="matrix(0.997,6.643e-2,-6.643e-2,0.997,-10.024,-6.200)" id="use3595" x="0" y="0" width="48" height="48" xlink:href="#g3532"/>
<use transform="matrix(0.997,6.643e-2,-6.643e-2,0.997,-10.098,-4.778)" id="use3597" x="0" y="0" width="48" height="48" xlink:href="#g3532"/>
<use transform="matrix(0.997,6.643e-2,-6.643e-2,0.997,-10.176,-3.214)" id="use3599" x="0" y="0" width="48" height="48" xlink:href="#g3532"/>
<use transform="matrix(0.997,6.643e-2,-6.643e-2,0.997,-10.253,-1.685)" id="use3601" x="0" y="0" width="48" height="48" xlink:href="#g3532"/>
<use transform="matrix(0.996,8.011e-2,-8.011e-2,0.996,-12.487,-7.986)" id="use3603" x="0" y="0" width="48" height="48" xlink:href="#g3532"/>
<use transform="matrix(0.994,0.103,-0.103,0.994,-11.828,-7.040)" id="use3605" x="0" y="0" width="48" height="48" xlink:href="#g3532"/>
<use transform="matrix(0.994,0.103,-0.103,0.994,-11.955,-5.622)" id="use3607" x="0" y="0" width="48" height="48" xlink:href="#g3532"/>
<use transform="matrix(0.994,0.103,-0.103,0.994,-12.092,-4.061)" id="use3609" x="0" y="0" width="48" height="48" xlink:href="#g3532"/>
<use transform="matrix(0.994,0.103,-0.103,0.994,-12.226,-2.536)" id="use3611" x="0" y="0" width="48" height="48" xlink:href="#g3532"/>
<use transform="matrix(0.994,0.105,-0.105,0.994,-14.554,-8.487)" id="use3613" x="0" y="0" width="48" height="48" xlink:href="#g3532"/>
<use transform="matrix(0.991,0.129,-0.129,0.991,-13.920,-7.524)" id="use3615" x="0" y="0" width="48" height="48" xlink:href="#g3532"/>
<use transform="matrix(0.991,0.129,-0.129,0.991,-14.084,-6.110)" id="use3617" x="0" y="0" width="48" height="48" xlink:href="#g3532"/>
<use transform="matrix(0.991,0.129,-0.129,0.991,-14.260,-4.553)" id="use3619" x="0" y="0" width="48" height="48" xlink:href="#g3532"/>
<use transform="matrix(0.991,0.129,-0.129,0.991,-14.433,-3.032)" id="use3621" x="0" y="0" width="48" height="48" xlink:href="#g3532"/>
<use transform="matrix(0.999,-2.410e-2,2.410e-2,0.999,2.172,-5.538)" id="use3623" x="0" y="0" width="48" height="48" xlink:href="#g3532"/>
<use transform="matrix(1,-2.115e-4,2.115e-4,1,2.926,-4.666)" id="use3625" x="0" y="0" width="48" height="48" xlink:href="#g3532"/>
<use transform="matrix(1,-2.115e-4,2.115e-4,1,2.947,-3.242)" id="use3627" x="0" y="0" width="48" height="48" xlink:href="#g3532"/>
<use transform="matrix(1,-2.115e-4,2.115e-4,1,2.974,-1.676)" id="use3629" x="0" y="0" width="48" height="48" xlink:href="#g3532"/>
<use transform="matrix(1,-2.115e-4,2.115e-4,1,2.999,-0.145)" id="use3631" x="0" y="0" width="48" height="48" xlink:href="#g3532"/>
<use transform="matrix(0.997,-6.385e-2,6.385e-2,0.997,3.737,-7.387)" id="use3633" x="0" y="0" width="48" height="48" xlink:href="#g3532"/>
<use transform="matrix(0.999,-3.999e-2,3.999e-2,0.999,4.524,-6.545)" id="use3635" x="0" y="0" width="48" height="48" xlink:href="#g3532"/>
<use transform="matrix(0.999,-3.999e-2,3.999e-2,0.999,4.854,-2.254)" id="use3637" x="0" y="0" width="48" height="48" xlink:href="#g3532"/>
<use transform="matrix(0.999,-3.999e-2,3.999e-2,0.999,4.943,-0.690)" id="use3639" x="0" y="0" width="48" height="48" xlink:href="#g3532"/>
<use transform="matrix(0.999,-3.999e-2,3.999e-2,0.999,5.029,0.837)" id="use3641" x="0" y="0" width="48" height="48" xlink:href="#g3532"/>
<use transform="matrix(0.997,-6.591e-2,6.591e-2,0.997,6.992,-4.363)" id="use3643" x="0" y="0" width="48" height="48" xlink:href="#g3532"/>
<use transform="matrix(0.999,-4.205e-2,4.205e-2,0.999,7.782,-3.523)" id="use3645" x="0" y="0" width="48" height="48" xlink:href="#g3532"/>
<use transform="matrix(0.999,-4.205e-2,4.205e-2,0.999,7.862,-2.101)" id="use3647" x="0" y="0" width="48" height="48" xlink:href="#g3532"/>
<use transform="matrix(0.999,-4.205e-2,4.205e-2,0.999,7.954,-0.537)" id="use3649" x="0" y="0" width="48" height="48" xlink:href="#g3532"/>
<use transform="matrix(0.999,-4.205e-2,4.205e-2,0.999,8.044,0.990)" id="use3651" x="0" y="0" width="48" height="48" xlink:href="#g3532"/>
<use transform="matrix(0.997,-7.210e-2,7.210e-2,0.997,9.309,-7.118)" id="use3653" x="0" y="0" width="48" height="48" xlink:href="#g3532"/>
<use transform="matrix(0.998,-4.825e-2,4.825e-2,0.998,10.557,-3.363)" id="use3655" x="0" y="0" width="48" height="48" xlink:href="#g3532"/>
<use transform="matrix(0.998,-4.825e-2,4.825e-2,0.998,10.647,-1.942)" id="use3657" x="0" y="0" width="48" height="48" xlink:href="#g3532"/>
<use transform="matrix(0.998,-4.825e-2,4.825e-2,0.998,10.748,-0.379)" id="use3659" x="0" y="0" width="48" height="48" xlink:href="#g3532"/>
<use transform="matrix(0.998,-4.825e-2,4.825e-2,0.998,10.847,1.148)" id="use3661" x="0" y="0" width="48" height="48" xlink:href="#g3532"/>
<use transform="matrix(0.996,-8.001e-2,8.001e-2,0.996,12.076,-6.906)" id="use3663" x="0" y="0" width="48" height="48" xlink:href="#g3532"/>
<use transform="matrix(0.998,-5.618e-2,5.618e-2,0.998,12.877,-6.077)" id="use3665" x="0" y="0" width="48" height="48" xlink:href="#g3532"/>
<use transform="matrix(0.998,-5.618e-2,5.618e-2,0.998,12.978,-4.657)" id="use3667" x="0" y="0" width="48" height="48" xlink:href="#g3532"/>
<use transform="matrix(0.998,-5.618e-2,5.618e-2,0.998,13.495,-0.175)" id="use3669" x="0" y="0" width="48" height="48" xlink:href="#g3532"/>
<use transform="matrix(0.998,-5.618e-2,5.618e-2,0.998,13.606,1.351)" id="use3671" x="0" y="0" width="48" height="48" xlink:href="#g3532"/>
<use transform="matrix(0.996,-8.900e-2,8.900e-2,0.996,14.709,-6.613)" id="use3673" x="0" y="0" width="48" height="48" xlink:href="#g3532"/>
<use transform="matrix(0.997,-6.518e-2,6.518e-2,0.997,15.518,-5.791)" id="use3675" x="0" y="0" width="48" height="48" xlink:href="#g3532"/>
<use transform="matrix(0.997,-6.518e-2,6.518e-2,0.997,16.135,-1.452)" id="use3677" x="0" y="0" width="48" height="48" xlink:href="#g3532"/>
<use transform="matrix(0.997,-6.518e-2,6.518e-2,0.997,16.263,0.108)" id="use3679" x="0" y="0" width="48" height="48" xlink:href="#g3532"/>
<use transform="matrix(0.997,-6.518e-2,6.518e-2,0.997,16.388,1.634)" id="use3681" x="0" y="0" width="48" height="48" xlink:href="#g3532"/>
<path d="M 1.843,30.968 L 1.625,32.937 L 2.5,34.125 L 46.093,34.218 L 46.937,32.718 L 46.718,30.968 L 45.156,30.968 L 45.218,31.406 L 3.375,31.312 L 3.406,30.968 L 1.843,30.968 z" id="r3407" style="opacity:1;fill:#251f1c;fill-opacity:1;fill-rule:evenodd;stroke:none;marker:none;visibility:visible;display:inline;overflow:visible;enable-background:accumulate"/>
<use transform="matrix(0.910,0,0,0.910,2.062,-12.072)" id="use3683" x="0" y="0" width="48" height="48" xlink:href="#g3532"/>
<use transform="matrix(0.910,0,0,0.910,2.062,-10.663)" id="use3685" x="0" y="0" width="48" height="48" xlink:href="#g3532"/>
<use transform="matrix(0.910,0,0,0.910,-0.705,-12.072)" id="use3687" x="0" y="0" width="48" height="48" xlink:href="#g3532"/>
<use transform="matrix(0.910,0,0,0.910,-0.705,-10.663)" id="use3689" x="0" y="0" width="48" height="48" xlink:href="#g3532"/>
<use transform="matrix(0.909,4.169e-2,-4.169e-2,0.909,-2.346,-13.052)" id="use3691" x="0" y="0" width="48" height="48" xlink:href="#g3532"/>
<use transform="matrix(0.909,4.169e-2,-4.169e-2,0.909,-2.410,-11.644)" id="use3693" x="0" y="0" width="48" height="48" xlink:href="#g3532"/>
<use transform="matrix(0.909,5.288e-2,-5.288e-2,0.909,-4.630,-13.268)" id="use3695" x="0" y="0" width="48" height="48" xlink:href="#g3532"/>
<use transform="matrix(0.909,5.288e-2,-5.288e-2,0.909,-4.712,-11.861)" id="use3697" x="0" y="0" width="48" height="48" xlink:href="#g3532"/>
<use transform="matrix(0.910,3.403e-2,-3.403e-2,0.910,-8.118,-12.805)" id="use3699" x="0" y="0" width="48" height="48" xlink:href="#g3532"/>
<use transform="matrix(0.910,3.403e-2,-3.403e-2,0.910,-8.171,-11.397)" id="use3701" x="0" y="0" width="48" height="48" xlink:href="#g3532"/>
<use transform="matrix(0.908,5.716e-2,-5.716e-2,0.908,-10.126,-13.349)" id="use3703" x="0" y="0" width="48" height="48" xlink:href="#g3532"/>
<use transform="matrix(0.908,5.716e-2,-5.716e-2,0.908,-10.214,-11.942)" id="use3705" x="0" y="0" width="48" height="48" xlink:href="#g3532"/>
<use transform="matrix(0.908,6.549e-2,-6.549e-2,0.908,-12.617,-13.533)" id="use3707" x="0" y="0" width="48" height="48" xlink:href="#g3532"/>
<use transform="matrix(0.908,6.549e-2,-6.549e-2,0.908,-12.718,-12.127)" id="use3709" x="0" y="0" width="48" height="48" xlink:href="#g3532"/>
<use transform="matrix(0.910,0,0,0.910,4.874,-12.072)" id="use3711" x="0" y="0" width="48" height="48" xlink:href="#g3532"/>
<use transform="matrix(0.910,0,0,0.910,4.874,-10.663)" id="use3713" x="0" y="0" width="48" height="48" xlink:href="#g3532"/>
<use transform="matrix(0.910,0,0,0.910,7.686,-12.037)" id="use3715" x="0" y="0" width="48" height="48" xlink:href="#g3532"/>
<use transform="matrix(0.910,0,0,0.910,7.686,-10.627)" id="use3717" x="0" y="0" width="48" height="48" xlink:href="#g3532"/>
<use transform="matrix(0.910,-2.068e-2,2.068e-2,0.910,9.919,-11.671)" id="use3719" x="0" y="0" width="48" height="48" xlink:href="#g3532"/>
<use transform="matrix(0.910,-3.775e-2,3.775e-2,0.910,12.097,-11.205)" id="use3723" x="0" y="0" width="48" height="48" xlink:href="#g3532"/>
<use transform="matrix(0.910,-3.612e-2,3.612e-2,0.910,14.923,-11.211)" id="use3727" x="0" y="0" width="48" height="48" xlink:href="#g3532"/>
<use transform="matrix(0.910,-3.612e-2,3.612e-2,0.910,14.979,-9.803)" id="use3729" x="0" y="0" width="48" height="48" xlink:href="#g3532"/>
<use transform="matrix(0.909,-3.976e-2,3.976e-2,0.909,17.766,-11.154)" id="use3731" x="0" y="0" width="48" height="48" xlink:href="#g3532"/>
<path d="M 4.982,15.041 L 3.132,31.129" id="p3739" style="fill:none;fill-rule:evenodd;stroke:#f4e7bc;stroke-width:0.5;stroke-linecap:round;stroke-linejoin:miter;stroke-miterlimit:4;stroke-dasharray:none;stroke-opacity:0.412;display:inline"/>
<path d="M 46.875,32.843 L 1.687,33.031 L 2.5,34.125 L 46.093,34.218 L 46.875,32.843 z" id="p3237" style="fill:#14110f;fill-opacity:1;fill-rule:evenodd;stroke:none;"/>
<path d="M 43,13.406 C 43.613,13.837 44.016,14.391 44.125,15.406 C 44.338,17.399 46,32.843 46,32.843 L 42.562,32.906 C 42.562,32.906 45.107,32.819 45.656,34.218 L 46.093,34.218 L 46.937,32.718 L 44.687,13.406 L 43,13.406 z" id="p3735" style="fill:#fcd8aa;fill-opacity:0.258;fill-rule:evenodd;stroke:none;display:inline"/>
<path d="M 23.812,32.937 L 1.687,33.031 L 2.5,34.125 L 26.468,34.187 C 25.987,33.754 25.053,33.332 23.812,32.937 z" id="p3737" style="fill:#f9c075;fill-opacity:0.054;fill-rule:evenodd;stroke:none;display:inline"/>
<path d="M 44.276,15.112 L 46.127,31.414" id="p3756" style="opacity:1;fill:none;fill-opacity:1;fill-rule:evenodd;stroke:#f4e7bc;stroke-width:0.5;stroke-linecap:round;stroke-linejoin:miter;marker:none;stroke-miterlimit:4;stroke-dasharray:none;stroke-dashoffset:0;stroke-opacity:0.412;visibility:visible;display:inline;overflow:visible;enable-background:accumulate"/>
<path d="M 1.718,33.062 L 2.5,34.125 L 7.843,34.125 L 7.062,33.062 L 1.718,33.062 z" id="p3758" style="fill:#3e3529;fill-opacity:0.985;fill-rule:evenodd;stroke:none;display:inline"/>
<path d="M 41,33.125 L 40.75,34.218 L 46.093,34.218 L 46.687,33.156 L 41,33.125 z" id="p3760" style="fill:#3e3529;fill-opacity:0.985;fill-rule:evenodd;stroke:none;display:inline"/>
<path d="M 3.312,18.718 L 3.062,20.875 L 4.781,20.875 L 4.906,20.437 C 4.906,20.437 9.897,20.666 9.968,19.812 C 10.039,18.958 5.062,19.312 5.062,19.312 L 4.968,18.812 L 3.312,18.718 z" id="p3770" style="fill:#695234;fill-opacity:0.985;fill-rule:evenodd;stroke:none;display:inline"/>
<path d="M 45.312,18.625 L 43.625,18.75 L 43.562,19.25 C 43.562,19.249 38.585,18.895 38.656,19.75 C 38.727,20.604 43.718,20.375 43.718,20.375 L 43.843,20.812 L 45.562,20.812 L 45.312,18.625 z" id="p3772" style="fill:#695234;fill-opacity:0.985;fill-rule:evenodd;stroke:none;display:inline"/>
</g>
<g id="layer3" style="display:inline">
<path d="M 3.903,13.627 L 1.626,32.927 L 2.493,34.120 L 46.083,34.229 L 46.951,32.711 L 44.673,13.410 L 3.903,13.627 z" id="stroke01" style="fill:none;fill-rule:evenodd;stroke:#000000;stroke-width:0.5;stroke-linecap:butt;stroke-linejoin:miter;stroke-miterlimit:4;stroke-dasharray:none;stroke-opacity:1"/>
</g>
</svg>
