<?xml version="1.0" encoding="UTF-8" standalone="no"?>
<!DOCTYPE svg PUBLIC "-//W3C//DTD SVG 1.0//EN" "http://www.w3.org/TR/2001/REC-SVG-20010904/DTD/svg10.dtd">
<svg xmlns:svg="http://www.w3.org/2000/svg" xmlns="http://www.w3.org/2000/svg" version="1.0" width="100%" height="100%" viewBox="0 0 48 48" id="_bag01">
<defs id="defs2385"/>
<g id="bag01" style="display:inline">
<path d="M 36.03,5.71 C 33.49,5.85 30.70,8.34 29.40,9.93 C 28.46,10.12 26.92,10.15 26.87,10.90 C 26.87,10.90 21.07,12.69 18.53,13.46 C 17.88,13.21 16.42,13.72 15.68,13.93 C 14.95,14.15 14.75,14.36 14.40,14.84 C 13.97,14.97 11.31,15.65 11.31,15.65 C 11.31,15.65 11.29,14.33 10.68,14.03 C 10.08,13.72 7.11,13.24 6.68,13.37 C 6.25,13.50 5.31,15.40 5.31,15.40 C 5.31,15.40 5.04,15.28 4.87,15.28 C 4.40,15.58 4.18,16.65 4.18,16.65 C 4.18,16.65 4.47,16.74 4.68,16.87 C 3.52,19.76 1.93,24.25 1.93,24.25 L 1.93,24.62 L 3.87,24.71 C 3.87,24.71 4,27.49 4,28.06 C 3.99,28.62 4.64,29.10 5.15,29.40 C 5.10,30.08 4.87,31.03 5.43,31.06 C 5.43,31.06 5.43,32.23 5.43,32.53 C 6.38,33.20 12.02,37.47 13.34,39.90 C 13.85,40.25 14.37,40.27 14.96,40.03 C 15.56,39.78 22.75,36.04 24.75,35.56 C 25.66,37.15 27.14,39.43 29.65,41.37 C 30.24,41.83 31.54,42.00 31.81,41.84 C 32.08,41.68 32.03,40.37 31.25,39.62 C 30.46,38.87 28.25,37.60 27.09,34.34 C 29.03,33.75 34.61,31.83 35.34,31.37 C 36.07,30.91 36.85,30.47 37.93,30.15 C 40.33,32.90 42.78,35.23 44.03,36.06 C 44.43,36.33 45.45,36.39 45.78,36.15 C 46.10,35.91 45.73,34.74 45.28,34.34 C 44.82,33.93 41.83,31.91 40,29.21 C 41.50,28.65 44.26,27.57 44.87,27.31 C 45.25,27.15 45,23.11 45,21.68 C 45.48,21.20 46.28,20.50 46.28,19.71 C 46.28,19.36 45.80,19.13 45.78,18.18 C 45.74,17.02 45.04,11.59 40,8.06 C 39.48,6.76 38.56,5.58 36.03,5.71 z M 36.68,7.21 C 37.60,7.20 38.38,7.41 39,7.78 C 36.29,7.97 33.30,9.00 31.18,9.53 C 33.23,7.90 35.15,7.24 36.68,7.21 z" id="p2393" style="fill:#7e563b;fill-opacity:1;fill-rule:evenodd;stroke:none;"/>
<path d="M 23.98,32.46 L 28.41,33.89 L 29.25,32.77 L 26.82,30.15 L 23.61,31.43 L 23.98,32.46 z" id="p3359" style="fill:#281e16;fill-opacity:1;fill-rule:evenodd;stroke:none;"/>
<path d="M 29.03,28.37 L 17,30.93 C 18.22,33.23 20.07,35.35 21.53,36.87 C 22.87,36.26 24.10,35.72 24.75,35.56 C 25.13,36.22 25.63,37.04 26.25,37.87 L 28.5,36.93 C 27.98,36.24 27.47,35.41 27.09,34.34 C 28.03,34.05 29.85,33.46 31.53,32.87 L 29.03,28.37 z" id="p3212" style="fill:#53352b;fill-opacity:0.48;fill-rule:evenodd;stroke:none;"/>
<path d="M 4.31,16.21 C 4.24,16.43 4.18,16.65 4.18,16.65 C 4.18,16.65 4.47,16.74 4.68,16.87 C 3.52,19.76 1.93,24.25 1.93,24.25 L 1.93,24.62 L 3.87,24.71 C 3.87,24.71 4,27.49 4,28.06 C 3.99,28.62 4.64,29.10 5.15,29.40 C 5.10,30.08 4.87,31.03 5.43,31.06 C 5.43,31.06 5.43,32.23 5.43,32.53 C 6.38,33.20 12.02,37.47 13.34,39.90 C 13.70,40.15 14.07,40.21 14.46,40.15 C 13.90,39.61 13.56,38.73 13.56,37.96 C 13.56,36.58 13.75,20.90 13.75,20.90 L 4.31,16.21 z" id="p3191" style="fill:#574632;fill-opacity:1;fill-rule:evenodd;stroke:none;display:inline"/>
<path d="M 5.12,17.78 L 4.15,18.25 C 3.63,19.59 3.16,20.81 2.75,21.96 L 13.96,27.81 L 14.87,26.15 C 14.87,26.15 11.07,24.29 9.68,23.46 C 10.58,21.25 9.48,19.44 5.12,17.78 z" id="p3196" style="fill:#220e07;fill-opacity:1;fill-rule:evenodd;stroke:none;display:inline"/>
<path d="M 8.98,22.66 C 10.25,23.26 12.39,24.40 12.46,26.55 C 12.53,28.69 12.93,32.45 13.00,33.05 C 13.06,33.65 11.92,33.85 10.92,33.65 C 9.91,33.45 7.30,24.54 7.30,24.54 L 8.98,22.66 z" id="p3230" style="fill:#2c1006;fill-opacity:0.59;fill-rule:evenodd;stroke:none;display:inline"/>
<path d="M 3.25,20.68 C 2.53,22.61 1.93,24.25 1.93,24.25 L 1.93,24.62 L 3.87,24.71 C 3.87,24.71 4,27.49 4,28.06 C 3.99,28.62 4.64,29.10 5.15,29.40 C 5.12,29.82 5.02,30.37 5.09,30.71 C 5.21,30.83 5.32,30.94 5.43,31.06 C 7.24,32.83 8.96,34.44 9.53,34.65 C 10.84,35.14 11.68,33.84 11.68,33.84 C 11.68,33.84 10.78,25.67 10.37,25.46 C 9.96,25.26 5.03,21.81 5.03,21.81 L 3.25,20.68 z" id="p3199" style="fill:#895530;fill-opacity:1;fill-rule:evenodd;stroke:none;display:inline"/>
<path d="M 37.96,7.87 C 36.30,8.10 34.70,8.57 33.18,9 C 33.15,9.01 33.12,9.01 33.09,9.03 C 32.02,9.45 30.74,9.79 29.56,9.78 C 29.51,9.83 29.44,9.88 29.40,9.93 C 28.46,10.12 26.92,10.15 26.87,10.90 C 26.87,10.90 21.07,12.69 18.53,13.46 C 17.88,13.21 16.42,13.72 15.68,13.93 C 14.95,14.15 14.75,14.36 14.40,14.84 C 13.97,14.97 11.31,15.65 11.31,15.65 C 11.31,15.65 11.29,14.33 10.68,14.03 C 10.08,13.72 7.11,13.24 6.68,13.37 C 6.25,13.50 5.31,15.40 5.31,15.40 C 5.31,15.40 5.04,15.28 4.87,15.28 C 4.40,15.58 4.18,16.65 4.18,16.65 C 4.18,16.65 4.47,16.74 4.68,16.87 C 4.64,16.97 4.60,17.08 4.56,17.18 L 6.15,17.68 C 8.37,17.93 10.36,20.64 11.71,24.09 C 13.07,27.54 13.85,30.07 14.34,30.62 C 13.72,32.28 13.74,32.84 15.34,32.71 C 16.82,32.84 21.01,34.80 24.09,33.93 C 24.03,30.47 27.70,28.84 28.28,33.93 C 30.63,33.17 34.55,31.82 35.28,31.40 C 35.77,30.74 36.15,30.21 36.40,30.06 C 36.22,26.18 38.39,24.04 39.5,27 C 40.82,26.11 43.12,24.02 45,21.93 C 44.99,21.87 45,21.74 45,21.68 C 45.48,21.20 46.28,20.50 46.28,19.71 C 46.28,19.36 45.80,19.13 45.78,18.18 C 45.74,17.02 45.04,11.59 40,8.06 C 39.99,8.05 40.00,8.04 40,8.03 L 38,7.87 L 37.96,7.87 z" id="p3198" style="fill:#724e38;fill-opacity:1;fill-rule:evenodd;stroke:none;display:inline"/>
<path d="M 8.39,16.38 C 9.81,13.83 10.47,13.50 11.20,15.58 C 10.29,15.91 8.28,16.49 8.39,16.38 z" id="p3278" style="fill:#3d2c26;fill-opacity:1;fill-rule:evenodd;stroke:none;"/>
<path d="M 25.78,11.25 C 25.65,11.28 25.18,11.44 25,11.5 C 25.07,11.49 25.12,11.46 25.21,11.46 C 25.45,12.80 24.15,12.09 24.37,11.68 C 23.55,11.93 22.65,12.22 21.43,12.59 C 21.30,12.82 21.20,13.01 21.12,13.18 C 21.30,13.27 21.48,13.37 21.65,13.46 C 21.81,13.55 21.94,13.65 22.09,13.75 C 22.16,13.66 22.18,13.60 22.28,13.5 C 22.59,13.71 22.70,13.91 22.68,14.09 C 23.30,14.53 23.84,15.02 24.34,15.56 C 24.42,15.44 24.53,15.34 24.65,15.25 C 24.74,15.48 24.82,15.82 24.90,16.18 C 25.29,16.67 25.61,17.22 25.93,17.78 C 26.09,17.75 26.28,17.68 26.5,17.53 C 26.33,17.69 26.16,17.82 26,17.90 C 26.14,18.16 26.27,18.41 26.40,18.68 C 27.10,18.76 27.09,19.21 26.90,19.78 C 27.14,20.37 27.35,21.01 27.56,21.65 C 28.33,21.39 28.16,21.77 27.68,22.15 C 28.35,24.39 28.87,26.90 29.40,29.68 C 29.23,29.79 29.03,29.99 28.87,30.18 C 28.82,30.48 28.75,30.76 28.65,31.03 C 28.82,31.50 29.21,32.34 29.21,32.34 C 29.42,32.09 29.98,31.67 30.71,31.25 C 30.32,31.51 29.74,31.10 30.84,30.78 L 30.93,30.71 L 31,30.68 C 30.98,30.98 30.88,31.15 30.75,31.25 C 31.07,31.06 31.41,30.86 31.78,30.68 C 31.78,30.62 31.77,30.57 31.78,30.5 C 31.77,30.01 31.92,29.28 32.56,29.34 C 32.84,29.57 32.95,29.89 32.93,30.21 C 33.20,30.11 33.48,30.00 33.75,29.93 C 33.61,29.88 33.56,29.71 33.87,29.37 C 34.21,29.60 34.18,29.78 34.06,29.87 C 34.46,29.78 34.84,29.70 35.18,29.71 C 35.20,29.66 35.24,29.60 35.28,29.53 C 35.33,29.52 35.35,29.53 35.40,29.53 C 35.37,28.85 35.43,28.06 35.21,27.90 C 35.01,27.75 34.67,27.64 34.59,27.62 C 34.54,28.11 33.24,27.42 34.37,27.09 C 34.44,27.20 34.46,27.26 34.5,27.34 C 34.44,26.83 34.38,26.32 34.31,25.81 C 34.23,25.23 34.13,24.66 34.03,24.09 C 34.02,24.06 34.00,24.03 34,24 C 33.98,23.93 33.96,23.87 33.96,23.81 C 33.96,23.80 33.97,23.79 33.96,23.78 C 33.82,23.04 33.66,22.30 33.46,21.59 C 33.35,21.41 33.26,21.17 33.28,20.90 C 33.09,20.28 32.88,19.68 32.65,19.09 C 32.52,19.08 32.34,18.95 32.15,18.62 C 32.29,18.63 32.40,18.66 32.5,18.68 C 32.30,18.19 32.09,17.70 31.87,17.25 C 31.44,17.07 31.02,16.34 31.09,15.84 C 30.73,15.24 30.36,14.69 29.93,14.18 C 29.93,14.18 29.91,14.19 29.90,14.18 C 29.75,14.20 29.55,14.02 29.34,13.53 C 29.33,13.51 29.31,13.51 29.31,13.5 C 29.06,13.24 28.82,13.00 28.56,12.78 C 28.54,12.76 28.52,12.73 28.5,12.71 C 27.99,12.30 27.44,11.96 26.87,11.68 C 26.83,11.67 26.82,11.64 26.78,11.62 C 26.77,11.62 26.75,11.62 26.75,11.62 L 26.71,11.59 C 26.47,11.47 26.19,11.40 25.93,11.31 C 26.77,12.21 26.07,12.04 25.75,11.71 C 25.80,12.16 25.54,12.13 25.68,11.65 C 25.58,11.51 25.56,11.36 25.78,11.25 z M 25.68,11.65 C 25.70,11.67 25.72,11.69 25.75,11.71 C 25.74,11.65 25.74,11.61 25.71,11.53 C 25.69,11.58 25.70,11.61 25.68,11.65 z M 29.21,11.68 C 29.40,11.78 30.07,11.91 29.21,11.68 z M 23.84,12.53 C 24.19,12.98 23.43,13.01 23.84,12.53 z M 24.46,12.68 C 25.15,12.62 24.62,13.26 24.46,12.68 z M 22,12.81 C 22.04,12.80 22.11,12.81 22.18,12.81 C 22.09,13.26 21.69,12.89 22,12.81 z M 22.62,12.93 C 22.62,12.92 22.66,12.92 22.71,12.93 C 22.77,13.06 22.61,12.97 22.62,12.93 z M 26.09,13 C 27.04,14.40 24.22,14.01 26.09,13 z M 27.53,13.31 C 27.30,14.65 26.17,14.29 27.53,13.31 z M 28.37,13.31 C 29.10,13.22 28.05,14.02 28.37,13.31 z M 23.90,13.46 C 24.32,13.48 23.73,14.06 23.90,13.46 z M 23.34,13.5 C 24.10,14.14 22.85,14.74 23.34,13.5 z M 25.03,13.59 C 25.43,14.20 24.31,14.04 25.03,13.59 z M 29.12,14.06 C 30.13,14.60 28.78,15.25 29.12,14.06 z M 24.18,14.34 C 24.55,15.35 22.99,14.77 24.18,14.34 z M 28.43,14.5 C 28.81,15.43 27.42,15.17 28.43,14.5 z M 25.87,14.56 C 26.03,14.97 25.44,14.62 25.87,14.56 z M 29.31,15.46 C 29.39,15.92 28.81,15.62 29.31,15.46 z M 26.15,15.65 C 26.46,16.27 25.61,16.09 26.15,15.65 z M 25.37,15.96 C 25.69,16.14 25.18,16.36 25.37,15.96 z M 29.59,16 C 30.72,17.37 29.14,18.48 29.59,16 z M 29.06,16.75 C 29.37,17.64 27.99,17.14 29.06,16.75 z M 26.78,16.84 C 26.99,16.84 26.57,17.01 26.78,16.84 z M 27.25,17.53 C 27.30,17.98 26.74,17.64 27.25,17.53 z M 28.84,17.68 C 29.06,17.64 28.80,18.23 28.71,17.75 C 28.77,17.71 28.81,17.69 28.84,17.68 z M 29.71,17.87 C 30.27,17.92 29.57,18.67 29.40,17.90 C 29.54,17.87 29.63,17.86 29.71,17.87 z M 28.25,18.03 C 29.27,18.19 28.11,18.84 28.25,18.03 z M 28.28,18.87 C 28.68,18.73 28.13,19.26 28.28,18.87 z M 28.96,18.90 C 29.48,18.89 28.42,19.28 28.96,18.90 z M 30.03,18.96 C 31.29,19.49 28.81,20.69 30.03,18.96 z M 29.34,19.37 C 29.27,20.80 27.93,20.29 29.34,19.37 z M 32.59,19.81 C 33.41,20.40 31.17,20.21 32.59,19.81 z M 27.40,20.28 C 27.53,20.64 27.23,20.50 27.40,20.28 z M 30.68,20.65 C 30.81,21.42 29.66,21.01 30.68,20.65 z M 31.18,20.65 C 31.45,20.82 31.12,20.99 31.18,20.65 z M 29.56,20.71 C 29.78,20.97 29.11,20.99 29.56,20.71 z M 29.06,20.75 C 29.23,22.47 27.88,21.16 29.06,20.75 z M 32.59,20.75 C 32.70,21.51 31.69,21.24 32.59,20.75 z M 29.81,21.28 C 30.32,21.78 29.05,21.49 29.81,21.28 z M 31.43,21.37 C 31.74,22.03 31.10,21.81 31.43,21.37 z M 32.90,21.37 C 34.41,21.90 32.70,24.78 32.53,22.56 C 32.62,22.15 32.86,21.79 32.90,21.37 z M 30.46,22 C 31.61,22.63 29.45,23.10 30.46,22 z M 29.81,22.06 C 29.38,23.45 28.56,22.69 29.81,22.06 z M 28.06,22.65 C 28.47,22.68 27.90,23.18 28.06,22.65 z M 29.90,22.93 C 30.33,23.64 28.99,23.63 29.90,22.93 z M 31,23.06 C 31.46,23.97 29.85,23.39 31,23.06 z M 32.56,23.93 C 32.93,23.81 32.55,24.20 32.56,23.93 z M 33.53,24.06 C 33.71,24.18 33.37,24.15 33.53,24.06 z M 30.15,24.18 C 30.58,25.73 28.30,24.29 30.15,24.18 z M 30.65,24.21 C 31.22,24.11 30.51,24.68 30.65,24.21 z M 29.03,24.84 C 29.56,25.80 27.89,25.49 29.03,24.84 z M 31.84,25.03 C 32.10,25.95 31.55,25.58 31.84,25.03 z M 31.25,25.12 C 31.63,26.60 29.99,26.01 31.25,25.12 z M 33.21,25.31 C 33.35,25.75 32.82,25.38 33.21,25.31 z M 33.68,25.53 C 34.56,26.41 32.97,26.50 33.68,25.53 z M 30.34,25.87 C 31.10,27.28 29.29,26.28 30.34,25.87 z M 32.84,25.96 C 33.00,26.11 32.62,26.10 32.84,25.96 z M 29.53,26.31 C 30.89,27.39 28.76,27.10 29.53,26.31 z M 33.03,27.15 C 33.12,27.14 33.24,27.14 33.37,27.15 C 34.12,29.08 31.64,27.27 33.03,27.15 z M 29.25,27.37 C 29.60,27.54 29.10,27.81 29.25,27.37 z M 30.68,27.53 C 32.25,28.09 29.50,27.93 30.68,27.53 z M 29.75,28.06 C 31.51,29.53 28.56,29.51 29.75,28.06 z M 34.5,28.78 C 35.17,28.79 35.09,29.09 34.5,28.78 z M 34.62,29.25 C 34.85,29.21 34.51,29.82 34.5,29.31 C 34.55,29.27 34.59,29.25 34.62,29.25 z M 30.84,29.53 C 31.50,30.75 29.52,30.11 30.84,29.53 z M 30.03,29.93 C 30.26,30.58 29.28,30.17 30.03,29.93 z M 29.28,30.56 C 29.87,31.71 28.57,32.84 29.28,30.56 z" id="p3250" style="fill:#a88251;fill-opacity:0.77;fill-rule:evenodd;stroke:none;display:inline"/>
<path d="M 11.27,15.62 L 8.43,16.42" id="p3276" style="fill:none;fill-rule:evenodd;stroke:#261a16;stroke-width:0.40;stroke-linecap:round;stroke-linejoin:miter;stroke-miterlimit:4;stroke-dasharray:none;stroke-opacity:1"/>
<path d="M 6.68,13.37 C 6.25,13.50 5.31,15.40 5.31,15.40 C 5.31,15.40 5.04,15.28 4.87,15.28 C 4.40,15.58 4.18,16.65 4.18,16.65 C 4.18,16.65 4.47,16.74 4.68,16.87 C 3.52,19.76 1.93,24.25 1.93,24.25 L 1.93,24.62 L 3.81,24.71 L 3.87,24.71 C 3.98,24.72 5.31,24.74 5.62,24.68 C 5.81,24.65 8.63,12.16 10.87,14.18 C 10.81,14.12 10.76,14.06 10.68,14.03 C 10.08,13.72 7.11,13.24 6.68,13.37 z" id="p3175" style="fill:#644734;fill-opacity:1;fill-rule:evenodd;stroke:none;display:inline"/>
<path d="M 6.78,16.67 C 6.33,16.70 4.88,17.38 4.34,17.83 C 3.19,20.72 1.93,24.25 1.93,24.25 L 1.93,24.62 L 3.81,24.71 L 3.87,24.71 C 3.98,24.72 5.31,24.74 5.62,24.68 C 5.73,24.66 6.74,20.51 8,17.37 C 7.52,16.91 7.13,16.67 6.78,16.67 z" id="p3180" style="fill:#917765;fill-opacity:0.65;fill-rule:evenodd;stroke:none;display:inline"/>
<path d="M 37.96,7.87 C 36.30,8.10 34.70,8.57 33.18,9 C 33.15,9.01 33.12,9.01 33.09,9.03 C 32.02,9.45 30.74,9.79 29.56,9.78 C 29.51,9.83 29.44,9.88 29.40,9.93 C 28.46,10.12 26.92,10.15 26.87,10.90 C 26.87,10.90 21.07,12.69 18.53,13.46 C 17.88,13.21 16.42,13.72 15.68,13.93 C 14.95,14.15 14.75,14.36 14.40,14.84 C 13.97,14.97 11.31,15.65 11.31,15.65 C 11.31,15.65 11.29,14.33 10.68,14.03 C 10.08,13.72 7.11,13.24 6.68,13.37 C 6.25,13.50 5.31,15.40 5.31,15.40 C 5.31,15.40 5.10,15.30 4.93,15.28 L 5.40,17.46 L 6.15,17.68 C 8.00,17.89 9.70,19.82 11,22.46 L 43.93,12.34 C 43.07,10.85 41.82,9.34 40,8.06 C 39.99,8.05 40.00,8.04 40,8.03 L 38,7.87 L 37.96,7.87 z" id="p3222" style="fill:#49433f;fill-opacity:0.29;fill-rule:evenodd;stroke:none;display:inline"/>
<path d="M 42.40,10.21 L 9.31,19.78 C 10.22,20.91 11.05,22.41 11.71,24.09 C 12.29,25.55 12.70,26.73 13.09,27.78 L 45.59,16.78 C 45.28,15.15 44.47,12.56 42.40,10.21 z" id="p3224" style="fill:#d8cac1;fill-opacity:0.15;fill-rule:evenodd;stroke:none;display:inline"/>
<path d="M 45.75,17.78 L 13.5,28.84 C 13.83,29.72 14.13,30.38 14.34,30.62 C 14.24,30.87 14.18,31.04 14.12,31.25 L 46.28,19.68 C 46.25,19.35 45.80,19.10 45.78,18.18 C 45.77,18.09 45.76,17.92 45.75,17.78 z" id="p3226" style="fill:#5e4332;fill-opacity:0.47;fill-rule:evenodd;stroke:none;display:inline"/>
<path d="M 43.40,11.53 L 10.43,21.37 C 10.91,22.19 11.33,23.11 11.71,24.09 C 12.15,25.19 12.42,25.99 12.75,26.87 L 45.43,16.09 C 45.12,14.81 44.53,13.18 43.40,11.53 z" id="p3241" style="fill:#d8cac1;fill-opacity:0.15;fill-rule:evenodd;stroke:none;"/>
<path d="M 13.98,27.52 L 20.30,25.33" id="p3246" style="fill:none;fill-rule:evenodd;stroke:#e7e3e0;stroke-width:2.59;stroke-linecap:butt;stroke-linejoin:miter;stroke-miterlimit:4;stroke-dasharray:none;stroke-opacity:0.16"/>
<path d="M 15.04,26.46 L 20.47,24.80" id="p3248" style="fill:none;fill-rule:evenodd;stroke:#eaeaea;stroke-width:1.5;stroke-linecap:round;stroke-linejoin:miter;stroke-miterlimit:4;stroke-dasharray:none;stroke-opacity:0.20"/>
<path d="M 16.62,31.27 C 20.51,33.02 22.12,32.97 22.70,32.97 C 22.60,32.29 22.60,31.37 23.38,30.93 C 22.89,30.54 22.75,30.93 16.62,31.27 z" id="p2415" style="fill:#9b764c;fill-opacity:1;fill-rule:evenodd;stroke:none;display:inline"/>
<path d="M 39.91,23.88 C 40.93,23.44 41.13,22.81 41.37,22.47 C 42.58,21.89 43.12,21.74 44.38,20.77 C 42.88,23.05 41.22,24.90 40.79,25.10 C 40.49,24.17 39.76,24.56 39.76,24.56 L 39.91,23.88 z" id="p2417" style="fill:#9b764c;fill-opacity:1;fill-rule:evenodd;stroke:none;display:inline"/>
<path d="M 10.21,25.61 C 9.77,25.72 9.45,26.77 9.31,29.71 C 9.24,31.00 10.33,31.08 10.78,34.62 C 11.34,34.36 11.68,33.84 11.68,33.84 C 11.48,31.43 10.74,26.71 10.56,25.84 C 10.55,25.70 10.32,25.59 10.21,25.61 z" id="p3223" style="fill:#3d1707;fill-opacity:0.70;fill-rule:evenodd;stroke:none;display:inline"/>
<path d="M 8.56,28.37 C 6.81,31.03 6.51,31.21 5.28,30.90 C 5.33,30.95 5.38,31.01 5.43,31.06 C 7.01,32.61 8.48,33.96 9.21,34.43 C 9.97,33.78 9.91,32.23 9.28,31.43 C 8.40,30.34 8.90,28.25 8.56,28.37 z" id="p3238" style="fill:#201511;fill-opacity:0.25;fill-rule:evenodd;stroke:none;"/>
<path d="M 6.20,23.14 L 9.94,25.70" id="p3245" style="fill:none;fill-rule:evenodd;stroke:#431d08;stroke-width:1px;stroke-linecap:butt;stroke-linejoin:miter;stroke-opacity:0.43"/>
<path d="M 10.21,25.62 C 9.84,25.71 9.57,26.58 9.40,28.68 C 10.50,29.63 10.74,27.98 10.68,26.68 C 10.65,26.47 10.58,25.95 10.56,25.84 C 10.55,25.70 10.33,25.59 10.21,25.62 z" id="p3249" style="fill:#201511;fill-opacity:0.40;fill-rule:evenodd;stroke:none;"/>
<path d="M 5.17,30.85 C 6.22,31.68 7.97,29.90 8.57,28.22 C 8.84,28.29 9.31,28.29 9.31,28.29 C 9.31,28.29 9.84,24.08 10.53,26.13" id="p3227" style="fill:none;fill-opacity:0.65;fill-rule:evenodd;stroke:#d1aa55;stroke-width:0.40;stroke-linecap:round;stroke-linejoin:round;marker:none;stroke-miterlimit:4;stroke-dasharray:none;stroke-dashoffset:0;stroke-opacity:1;visibility:visible;display:inline;overflow:visible;enable-background:accumulate"/>
<path d="M 7.77,18.31 L 7.92,23.83 L 6.23,22.71 C 6.23,22.71 7.27,18.36 7.77,18.31 z" id="p3268" style="fill:#6b522a;fill-opacity:1;fill-rule:evenodd;stroke:none;"/>
<path d="M 7.97,20.27 C 8.61,20.32 8.94,20.25 8.99,21.99 C 9.04,23.73 8.51,23.85 7.99,23.38 C 7.92,21.81 7.94,20.27 7.97,20.27 z" id="p3270" style="fill:#513316;fill-opacity:1;fill-rule:evenodd;stroke:none;"/>
<path d="M 5.43,31.06 C 7.24,32.83 8.96,34.44 9.53,34.65 C 10.84,35.14 11.68,33.84 11.68,33.84 C 11.68,33.84 10.78,25.67 10.37,25.46 C 9.96,25.26 7.51,23.65 6.29,22.78" id="p3236" style="fill:none;fill-opacity:0.65;fill-rule:evenodd;stroke:#392c10;stroke-width:0.40;stroke-linecap:butt;stroke-linejoin:round;marker:none;stroke-miterlimit:4;stroke-dasharray:none;stroke-dashoffset:0;stroke-opacity:1;visibility:visible;display:inline;overflow:visible;enable-background:accumulate"/>
<path d="M 9.11,30.84 C 9.40,31.56 9.86,31.90 9.86,32.88" id="p3243" style="fill:none;fill-rule:evenodd;stroke:#ac5313;stroke-width:0.60;stroke-linecap:round;stroke-linejoin:miter;stroke-miterlimit:4;stroke-dasharray:none;stroke-opacity:0.77"/>
<path d="M 5.44,28.53 L 5.52,27.95" id="p3247" style="fill:none;fill-rule:evenodd;stroke:#cea94c;stroke-width:0.60;stroke-linecap:round;stroke-linejoin:miter;stroke-miterlimit:4;stroke-dasharray:none;stroke-opacity:1"/>
<path d="M 7.77,18.16 L 7.99,23.48" id="p3262" style="fill:none;fill-rule:evenodd;stroke:#3f3229;stroke-width:0.30;stroke-linecap:round;stroke-linejoin:miter;stroke-miterlimit:4;stroke-dasharray:none;stroke-opacity:1;display:inline"/>
<path d="M 7.99,20.25 C 9.06,20.27 8.89,20.89 8.96,21.99 C 9.04,23.08 8.89,24.05 8.02,23.48" id="p3264" style="fill:none;fill-rule:evenodd;stroke:#3f3229;stroke-width:0.40;stroke-linecap:round;stroke-linejoin:miter;stroke-miterlimit:4;stroke-dasharray:none;stroke-opacity:1;display:inline"/>
<path d="M 38.03,26.03 C 37.20,26.02 36.40,26.86 36.37,30.09 C 36.06,30.49 35.84,30.88 35.65,31.21 C 36.30,30.82 37.00,30.43 37.93,30.15 C 38.05,30.28 38.16,30.40 38.28,30.53 C 39.53,29.02 40.24,27.46 39.65,26.87 C 39.33,26.55 38.67,26.03 38.03,26.03 z" id="p3377" style="fill:#332a1d;fill-opacity:0.67;fill-rule:evenodd;stroke:none;"/>
<path d="M 3.82,24.71 C 3.82,24.71 5.31,24.74 5.63,24.68 C 5.82,24.65 9.25,9.46 11.31,15.66" id="p3173" style="fill:none;fill-opacity:0.65;fill-rule:evenodd;stroke:#392c10;stroke-width:0.40;stroke-linecap:butt;stroke-linejoin:round;marker:none;stroke-miterlimit:4;stroke-dasharray:none;stroke-dashoffset:0;stroke-opacity:1;visibility:visible;display:inline;overflow:visible;enable-background:accumulate"/>
<path d="M 7.58,18.20 C 8.77,18.39 10.36,20.64 11.71,24.09 C 13.07,27.54 13.85,30.07 14.34,30.62 C 13.72,32.28 13.74,32.84 15.34,32.71 C 16.82,32.84 21.01,34.80 24.09,33.93 C 24.03,30.47 27.70,28.84 28.28,33.93 C 30.63,33.17 34.55,31.82 35.28,31.40 C 35.77,30.74 36.15,30.21 36.40,30.06 C 36.22,26.18 38.39,24.04 39.5,27 C 40.82,26.11 43.12,24.02 45,21.93 C 44.99,21.87 45,21.74 45,21.68" id="p3206" style="fill:none;fill-opacity:0.65;fill-rule:evenodd;stroke:#392c10;stroke-width:0.40;stroke-linecap:butt;stroke-linejoin:round;stroke-miterlimit:4;stroke-dasharray:none;stroke-opacity:1;display:inline"/>
<path d="M 23.65,29.19 C 23.65,29.55 23.38,29.84 23.05,29.84 C 22.71,29.84 22.44,29.55 22.44,29.19 C 22.44,28.83 22.71,28.54 23.05,28.54 C 23.38,28.54 23.65,28.83 23.65,29.19 L 23.65,29.19 z" id="p3267" style="fill:#ffeac4;fill-opacity:1;fill-rule:evenodd;stroke:none;marker:none;visibility:visible;display:inline;overflow:visible;enable-background:accumulate"/>
<path d="M 28.32,27.38 C 28.32,27.74 28.05,28.03 27.72,28.03 C 27.39,28.03 27.12,27.74 27.12,27.38 C 27.12,27.02 27.39,26.73 27.72,26.73 C 28.05,26.73 28.32,27.02 28.32,27.38 L 28.32,27.38 z" id="p3269" style="fill:#ffeac4;fill-opacity:1;fill-rule:evenodd;stroke:none;marker:none;visibility:visible;display:inline;overflow:visible;enable-background:accumulate"/>
<path d="M 36.24,24.38 C 36.24,24.74 35.97,25.03 35.64,25.03 C 35.30,25.03 35.03,24.74 35.03,24.38 C 35.03,24.03 35.30,23.74 35.64,23.74 C 35.97,23.74 36.24,24.03 36.24,24.38 L 36.24,24.38 z" id="p3271" style="fill:#ffeac4;fill-opacity:1;fill-rule:evenodd;stroke:none;marker:none;visibility:visible;display:inline;overflow:visible;enable-background:accumulate"/>
<path d="M 40.49,22.64 C 40.49,23.00 40.22,23.29 39.88,23.29 C 39.55,23.29 39.28,23.00 39.28,22.64 C 39.28,22.28 39.55,21.99 39.88,21.99 C 40.22,21.99 40.49,22.28 40.49,22.64 L 40.49,22.64 z" id="p3273" style="fill:#ffeac4;fill-opacity:1;fill-rule:evenodd;stroke:none;marker:none;visibility:visible;display:inline;overflow:visible;enable-background:accumulate"/>
<path d="M 17.14,34.62 C 17.14,34.87 16.92,35.10 16.66,35.14 C 16.39,35.18 16.17,35.00 16.17,34.76 C 16.17,34.51 16.39,34.28 16.66,34.24 C 16.92,34.20 17.14,34.37 17.14,34.62 z" id="p3217" style="fill:#f4d7a2;fill-opacity:1;fill-rule:evenodd;stroke:none;marker:none;visibility:visible;display:inline;overflow:visible;enable-background:accumulate"/>
<path d="M 17.21,36.31 C 17.21,36.56 16.99,36.79 16.72,36.83 C 16.46,36.87 16.24,36.70 16.24,36.45 C 16.24,36.20 16.46,35.97 16.72,35.93 C 16.99,35.89 17.21,36.06 17.21,36.31 z" id="p3219" style="fill:#ffeac4;fill-opacity:1;fill-rule:evenodd;stroke:none;marker:none;visibility:visible;display:inline;overflow:visible;enable-background:accumulate"/>
<path d="M 19.49,34.31 C 19.49,34.56 19.27,34.79 19.01,34.83 C 18.74,34.86 18.52,34.69 18.52,34.45 C 18.52,34.20 18.74,33.96 19.01,33.93 C 19.27,33.89 19.49,34.06 19.49,34.31 z" id="p3221" style="fill:#d5b478;fill-opacity:1;fill-rule:evenodd;stroke:none;marker:none;visibility:visible;display:inline;overflow:visible;enable-background:accumulate"/>
<path d="M 12.45,27.78 C 12.50,28.07 12.40,28.32 12.24,28.35 C 12.08,28.37 11.92,28.16 11.87,27.87 C 11.82,27.59 11.92,27.33 12.08,27.31 C 12.24,27.28 12.40,27.49 12.45,27.78 L 12.45,27.78 z" id="p3254" style="fill:#c3a46b;fill-opacity:0.77;fill-rule:evenodd;stroke:none;marker:none;visibility:visible;display:inline;overflow:visible;enable-background:accumulate"/>
<path d="M 12.94,31.93 C 13.01,32.21 12.93,32.47 12.78,32.50 C 12.62,32.54 12.44,32.34 12.37,32.06 C 12.31,31.77 12.38,31.51 12.54,31.48 C 12.70,31.44 12.88,31.64 12.94,31.93 L 12.94,31.93 z" id="p3256" style="fill:#ad905b;fill-opacity:0.81;fill-rule:evenodd;stroke:none;marker:none;visibility:visible;display:inline;overflow:visible;enable-background:accumulate"/>
<path d="M 13.32,35.61 C 13.39,35.89 13.30,36.16 13.11,36.20 C 12.93,36.24 12.73,36.04 12.67,35.76 C 12.60,35.48 12.69,35.21 12.88,35.17 C 13.06,35.13 13.26,35.32 13.32,35.61 L 13.32,35.61 z" id="p3258" style="fill:#cdaa6b;fill-opacity:1;fill-rule:evenodd;stroke:none;marker:none;visibility:visible;display:inline;overflow:visible;enable-background:accumulate"/>
<path d="M 13.02,37.42 C 13.08,37.71 12.99,37.97 12.81,38.01 C 12.63,38.06 12.43,37.86 12.36,37.58 C 12.29,37.29 12.39,37.03 12.57,36.99 C 12.75,36.94 12.95,37.14 13.02,37.42 L 13.02,37.42 z" id="p3260" style="fill:#d0b17a;fill-opacity:1;fill-rule:evenodd;stroke:none;marker:none;visibility:visible;display:inline;overflow:visible;enable-background:accumulate"/>
<path d="M 17.90,13.40 C 17.18,13.45 16.23,13.77 15.68,13.93 C 14.97,14.14 14.76,14.36 14.43,14.81 C 15.36,14.51 16.47,14.37 16.96,14.71 C 17.88,15.35 24.65,20.55 24.31,33.28 C 24.28,34.15 24.34,34.92 24.43,35.65 C 24.53,35.62 24.67,35.58 24.75,35.56 C 25.66,37.15 27.14,39.43 29.65,41.37 C 30.24,41.83 31.54,42.00 31.81,41.84 C 32.08,41.68 32.03,40.37 31.25,39.62 C 30.49,38.89 28.40,37.67 27.21,34.65 C 27.00,34.62 26.69,33.99 26.71,30.46 C 26.77,22.27 22.57,14.65 18.18,13.40 C 18.10,13.40 18.00,13.40 17.90,13.40 z" id="p3186" style="fill:#9a6c4a;fill-opacity:1;fill-rule:evenodd;stroke:none;display:inline"/>
<path d="M 29.71,9.59 C 29.61,9.71 29.49,9.82 29.40,9.93 C 28.46,10.12 26.92,10.15 26.87,10.90 C 26.87,10.90 26.81,10.93 26.81,10.93 C 26.88,10.94 27.03,10.96 27.03,10.96 C 27.96,10.67 29.27,10.72 29.52,10.82 C 31.01,11.46 36.72,16.77 37.33,28.98 C 37.55,29.59 37.71,29.84 37.93,30.15 C 40.33,32.90 42.78,35.23 44.03,36.06 C 44.43,36.33 45.45,36.39 45.78,36.15 C 46.10,35.91 45.73,34.74 45.28,34.34 C 44.82,33.94 41.90,31.96 40.06,29.31 C 40.03,29.28 40.02,29.24 40,29.21 C 39.58,28.73 39.30,27.96 39.31,26.62 C 39.37,17.84 34.44,9.88 29.71,9.59 z" id="p3188" style="fill:#9a6c4a;fill-opacity:1;fill-rule:evenodd;stroke:none;marker:none;visibility:visible;display:inline;overflow:visible;enable-background:accumulate"/>
<path d="M 4.22,16.39 L 8.18,17.54 L 8.14,18.03 L 8.57,16.92 L 8.53,16.49 L 4.59,15.40 L 4.22,16.39 z" id="p3272" style="fill:#7f5d4f;fill-opacity:1;fill-rule:evenodd;stroke:none;"/>
<path d="M 4.37,16.49 L 8.18,17.54 L 8.14,18.03 L 8.57,16.92 L 8.53,16.49 L 4.80,15.47" id="p3274" style="fill:none;fill-opacity:1;fill-rule:evenodd;stroke:#322721;stroke-width:0.5;stroke-linecap:butt;stroke-linejoin:round;stroke-miterlimit:4;stroke-dasharray:none;stroke-opacity:1;display:inline"/>
<path d="M 21.15,15.21 L 18.68,16.21 C 19.90,17.49 21.46,19.63 22.65,22.75 L 25.28,22.12 C 24.26,19.25 22.82,16.80 21.15,15.21 z" id="p3284" style="fill:#785f4f;fill-opacity:0.72;fill-rule:evenodd;stroke:none;display:inline"/>
<path d="M 22.28,16.46 L 20.68,18.81 C 21.52,20.10 22.34,21.70 23,23.68 L 25.62,23.03 C 24.82,20.44 23.65,18.17 22.28,16.46 z" id="p3280" style="fill:#bba697;fill-opacity:0.40;fill-rule:evenodd;stroke:none;display:inline"/>
<path d="M 33.68,11.56 L 31.56,12.34 C 32.81,13.58 34.30,15.64 35.40,18.62 L 37.75,17.93 C 36.72,15.27 35.28,13.04 33.68,11.56 z" id="p3286" style="fill:#785f4f;fill-opacity:0.72;fill-rule:evenodd;stroke:none;display:inline"/>
<path d="M 35.15,13.21 L 33.62,14.96 C 34.45,16.28 35.23,17.94 35.84,19.96 L 38.15,19.21 C 37.41,16.89 36.37,14.83 35.15,13.21 z" id="p3282" style="fill:#bba697;fill-opacity:0.40;fill-rule:evenodd;stroke:none;display:inline"/>
<path d="M 26.28,32.71 C 25.48,32.79 24.86,33.38 24.34,34.53 C 24.34,34.54 24.34,34.55 24.34,34.56 C 24.36,34.94 24.39,35.30 24.43,35.65 C 24.53,35.62 24.67,35.58 24.75,35.56 C 25.66,37.15 27.14,39.43 29.65,41.37 C 30.24,41.83 31.54,42.00 31.81,41.84 C 32.08,41.68 32.03,40.37 31.25,39.62 C 30.49,38.89 28.40,37.67 27.21,34.65 C 27.06,34.63 26.84,34.25 26.75,32.75 C 26.58,32.73 26.42,32.70 26.28,32.71 z" id="p3288" style="fill:#d4c7bd;fill-opacity:0.40;fill-rule:evenodd;stroke:none;display:inline"/>
<path d="M 39.40,27.84 C 38.13,27.83 37.24,28.76 37,30.34 C 37.01,30.38 37.01,30.42 37.03,30.46 C 37.31,30.35 37.60,30.25 37.93,30.15 C 40.33,32.90 42.78,35.23 44.03,36.06 C 44.43,36.33 45.45,36.39 45.78,36.15 C 46.10,35.91 45.73,34.74 45.28,34.34 C 44.82,33.94 41.90,31.96 40.06,29.31 C 40.03,29.28 40.02,29.24 40,29.21 C 39.73,28.91 39.52,28.46 39.40,27.84 z" id="p3290" style="fill:#d4c7bd;fill-opacity:0.40;fill-rule:evenodd;stroke:none;display:inline"/>
<path d="M 28.65,37.12 C 28.15,37.70 27.85,38.71 27.96,39.87 C 28.47,40.38 29.02,40.88 29.65,41.37 C 30.24,41.83 31.54,42.00 31.81,41.84 C 32.08,41.68 32.03,40.37 31.25,39.62 C 30.74,39.14 29.67,38.42 28.65,37.12 z" id="p3292" style="fill:#7b6350;fill-opacity:0.40;fill-rule:evenodd;stroke:none;display:inline"/>
<path d="M 41.93,31.5 C 41.50,31.84 41.34,32.67 41.37,33.78 C 42.46,34.83 43.39,35.64 44.03,36.06 C 44.43,36.33 45.45,36.39 45.78,36.15 C 46.10,35.91 45.73,34.74 45.28,34.34 C 44.96,34.06 43.45,33.00 41.93,31.5 z" id="p3294" style="fill:#7b6350;fill-opacity:0.40;fill-rule:evenodd;stroke:none;display:inline"/>
<path d="M 17.90,13.40 C 17.18,13.45 16.23,13.77 15.68,13.93 C 14.97,14.14 14.76,14.36 14.43,14.81 C 15.36,14.51 16.47,14.37 16.96,14.71 C 17.88,15.35 24.65,20.55 24.31,33.28 C 24.28,34.15 24.34,34.92 24.43,35.65 C 24.53,35.62 24.67,35.58 24.75,35.56 C 25.66,37.15 27.14,39.43 29.65,41.37 C 30.24,41.83 31.54,42.00 31.81,41.84 C 32.08,41.68 32.03,40.37 31.25,39.62 C 30.49,38.89 28.40,37.67 27.21,34.65 C 27.00,34.62 26.69,33.99 26.71,30.46 C 26.77,22.27 22.57,14.65 18.18,13.40 C 18.10,13.40 18.00,13.40 17.90,13.40 z" id="p3328" style="fill:none;fill-opacity:1;fill-rule:evenodd;stroke:#453532;stroke-width:0.30;stroke-linecap:butt;stroke-linejoin:miter;stroke-miterlimit:4;stroke-dasharray:none;stroke-opacity:1;display:inline"/>
<path d="M 29.71,9.59 C 29.61,9.71 29.49,9.82 29.40,9.93 C 28.46,10.12 26.92,10.15 26.87,10.90 C 26.87,10.90 26.81,10.93 26.81,10.93 C 26.88,10.94 27.03,10.96 27.03,10.96 C 27.96,10.67 29.06,10.69 29.31,10.79 C 36.66,15.19 36.50,25.13 37.63,29.79 C 40.03,32.54 42.78,35.23 44.03,36.06 C 44.43,36.33 45.45,36.39 45.78,36.15 C 46.10,35.91 45.73,34.74 45.28,34.34 C 44.82,33.94 41.90,31.96 40.06,29.31 C 40.03,29.28 40.02,29.24 40,29.21 C 39.58,28.73 39.30,27.96 39.31,26.62 C 39.37,17.84 34.44,9.88 29.71,9.59 z" id="p3330" style="fill:none;fill-opacity:1;fill-rule:evenodd;stroke:#453532;stroke-width:0.30;stroke-linecap:butt;stroke-linejoin:miter;marker:none;stroke-miterlimit:4;stroke-dasharray:none;stroke-dashoffset:0;stroke-opacity:1;visibility:visible;display:inline;overflow:visible;enable-background:accumulate"/>
<path d="M 26.78,32.39 C 25.46,32.66 24.81,32.84 24.31,33.28 C 24.28,34.15 24.34,34.92 24.43,35.65 C 24.53,35.62 24.67,35.58 24.75,35.56 C 24.75,35.57 24.77,35.58 24.78,35.59 C 25.22,34.46 26.08,33.95 27,34.34 C 26.97,33.95 27.05,33.19 26.78,32.39 z" id="p3367" style="fill:#332a1d;fill-opacity:0.67;fill-rule:evenodd;stroke:none;"/>
<path d="M 39.18,27.87 C 38.92,27.89 38.62,28.03 38.25,28.28 C 37.86,28.53 37.55,28.79 37.37,29.09 C 37.57,29.61 37.73,29.86 37.93,30.15 C 38.05,30.28 38.16,30.40 38.28,30.53 C 38.48,29.52 38.96,29.00 40,29.21 C 39.74,28.92 39.55,28.49 39.43,27.90 C 39.35,27.88 39.28,27.86 39.18,27.87 z" id="p3372" style="fill:#332a1d;fill-opacity:0.67;fill-rule:evenodd;stroke:none;"/>
<path d="M 26.28,32.06 C 25.76,32.02 25.25,32.22 24.78,32.56 C 23.83,33.23 23.07,34.51 23.59,35.90 L 24.34,35.62 C 23.97,34.63 24.53,33.72 25.25,33.21 C 25.60,32.96 25.99,32.82 26.25,32.84 C 26.50,32.86 26.60,32.92 26.68,33.25 L 26.71,33.28 L 26.71,33.31 L 26.85,34.29 L 27.18,34.53 C 27.53,34.05 27.62,33.52 27.46,33.06 C 27.46,33.04 27.47,33.01 27.46,33 L 27.43,33 C 27.25,32.44 26.77,32.09 26.28,32.06 z" id="p3332" style="fill:#929292;fill-opacity:1;fill-rule:evenodd;stroke:none;"/>
<path d="M 26.28,32.06 C 25.76,32.02 25.25,32.22 24.78,32.56 C 23.83,33.23 23.07,34.51 23.59,35.90 L 24.34,35.62 C 23.97,34.63 24.53,33.72 25.25,33.21 C 25.60,32.96 25.99,32.82 26.25,32.84 C 26.50,32.86 26.60,32.92 26.68,33.25 L 26.79,33.89 L 27.06,34.49 L 27.63,34.11 L 27.43,33 C 27.25,32.44 26.77,32.09 26.28,32.06 z" id="p3357" style="fill:none;fill-opacity:1;fill-rule:evenodd;stroke:#4d4d4d;stroke-width:0.30;stroke-linecap:butt;stroke-linejoin:miter;stroke-miterlimit:4;stroke-dasharray:none;stroke-opacity:1;display:inline"/>
<path d="M 39.47,27.53 C 38.95,27.49 38.44,27.69 37.97,28.03 C 37.03,28.69 36.58,29.36 36.72,30.59 L 37.53,30.27 C 37.54,29.44 37.72,29.19 38.44,28.68 C 38.80,28.43 39.19,28.29 39.44,28.31 C 39.69,28.33 39.85,28.49 39.92,28.71 C 40.05,28.97 39.91,29.10 39.93,29.29 L 40.69,28.98 L 40.63,28.46 C 40.45,27.91 39.97,27.56 39.47,27.53 z" id="p3338" style="fill:#929292;fill-opacity:1;fill-rule:evenodd;stroke:none;marker:none;visibility:visible;display:inline;overflow:visible;enable-background:accumulate"/>
<path d="M 39.47,27.53 C 38.95,27.49 38.44,27.69 37.97,28.03 C 37.03,28.69 36.58,29.36 36.72,30.59 L 37.53,30.27 C 37.54,29.44 37.72,29.19 38.44,28.68 C 38.80,28.43 39.19,28.29 39.44,28.31 C 39.69,28.33 39.85,28.49 39.92,28.71 C 40.05,28.97 39.91,29.10 39.93,29.29 L 40.69,28.98 L 40.63,28.46 C 40.45,27.91 39.97,27.56 39.47,27.53 z" id="p3363" style="fill:none;fill-opacity:1;fill-rule:evenodd;stroke:#4d4d4d;stroke-width:0.30;stroke-linecap:butt;stroke-linejoin:round;marker:none;stroke-miterlimit:4;stroke-dasharray:none;stroke-dashoffset:0;stroke-opacity:1;visibility:visible;display:inline;overflow:visible;enable-background:accumulate"/>
<path d="M 36.03,5.71 C 33.49,5.85 30.70,8.34 29.40,9.93 C 28.46,10.12 26.92,10.15 26.87,10.90 C 26.87,10.90 21.07,12.69 18.53,13.46 C 17.88,13.21 16.42,13.72 15.68,13.93 C 14.95,14.15 14.75,14.36 14.40,14.84 C 13.97,14.97 11.31,15.65 11.31,15.65 C 11.31,15.65 11.29,14.33 10.68,14.03 C 10.08,13.72 7.11,13.24 6.68,13.37 C 6.25,13.50 5.31,15.40 5.31,15.40 C 5.31,15.40 5.04,15.28 4.87,15.28 C 4.40,15.58 4.18,16.65 4.18,16.65 C 4.18,16.65 4.47,16.74 4.68,16.87 C 3.52,19.76 1.93,24.25 1.93,24.25 L 1.93,24.62 L 3.87,24.71 C 3.87,24.71 4,27.49 4,28.06 C 3.99,28.62 4.64,29.10 5.15,29.40 C 5.10,30.08 4.87,31.03 5.43,31.06 C 5.43,31.06 5.43,32.23 5.43,32.53 C 6.38,33.20 12.02,37.47 13.34,39.90 C 13.85,40.25 14.37,40.27 14.96,40.03 C 15.56,39.78 22.75,36.04 24.75,35.56 C 25.66,37.15 27.14,39.43 29.65,41.37 C 30.24,41.83 31.54,42.00 31.81,41.84 C 32.08,41.68 32.03,40.37 31.25,39.62 C 30.46,38.87 28.25,37.60 27.09,34.34 C 29.03,33.75 34.61,31.83 35.34,31.37 C 36.07,30.91 36.85,30.47 37.93,30.15 C 40.33,32.90 42.78,35.23 44.03,36.06 C 44.43,36.33 45.45,36.39 45.78,36.15 C 46.10,35.91 45.73,34.74 45.28,34.34 C 44.82,33.93 41.83,31.91 40,29.21 C 41.50,28.65 44.26,27.57 44.87,27.31 C 45.25,27.15 45,23.11 45,21.68 C 45.48,21.20 46.28,20.50 46.28,19.71 C 46.28,19.36 45.80,19.13 45.78,18.18 C 45.74,17.02 45.04,11.59 40,8.06 C 39.48,6.76 38.56,5.58 36.03,5.71 z M 36.68,7.21 C 37.60,7.20 38.38,7.41 39,7.78 C 36.29,7.97 33.30,9.00 31.18,9.53 C 33.23,7.90 35.15,7.24 36.68,7.21 z" id="stroke01" style="fill:none;fill-opacity:1;fill-rule:evenodd;stroke:#1c0b07;stroke-width:0.5;stroke-linecap:butt;stroke-linejoin:round;stroke-miterlimit:4;stroke-dasharray:none;stroke-opacity:1;display:inline"/>
<path d="M 23.69,27.77 C 24.93,27.87 26.47,27.04 26.72,26.70 C 26.88,27.39 26.94,28.68 26.94,29.10 C 26.14,29.64 25.13,30.01 23.94,29.97 C 23.87,29.09 23.75,28.17 23.69,27.77 z" id="p3344" style="fill:#7e583e;fill-opacity:1;fill-rule:evenodd;stroke:none;display:inline"/>
<path d="M 23.69,27.77 C 24.93,27.87 26.47,27.04 26.72,26.70" id="p3340" style="fill:none;fill-rule:evenodd;stroke:#e8ce85;stroke-width:0.30;stroke-linecap:round;stroke-linejoin:miter;stroke-miterlimit:4;stroke-dasharray:none;stroke-opacity:1"/>
<path d="M 36.20,23.11 C 36.85,23.19 38.34,22.44 39.08,22.10 C 39.08,22.08 39.32,23.18 39.46,24.13 C 38.84,24.76 37.50,25.03 36.49,25.24 C 36.46,25.06 36.37,24.40 36.20,23.11 z" id="p3348" style="fill:#7e583e;fill-opacity:1;fill-rule:evenodd;stroke:none;marker:none;visibility:visible;display:inline;overflow:visible;enable-background:accumulate"/>
<path d="M 36.20,23.11 C 36.85,23.19 38.34,22.44 39.08,22.10" id="p3342" style="fill:none;fill-rule:evenodd;stroke:#e8ce85;stroke-width:0.30;stroke-linecap:round;stroke-linejoin:miter;stroke-miterlimit:4;stroke-dasharray:none;stroke-opacity:1"/>
<path d="M 21.99,28.68 C 21.71,29.59 22.30,30.28 23.10,30.11 C 23.90,29.94 23.67,29.99 24.32,29.94 C 24.98,29.90 26.43,29.42 26.83,29.16 C 27.23,28.91 27.95,28.70 28.30,28.47 C 28.66,28.24 28.92,27.37 28.64,26.85 C 28.37,26.32 27.61,26.36 27.61,26.36" id="p3350" style="fill:none;fill-rule:evenodd;stroke:#4a3a32;stroke-width:0.2;stroke-linecap:round;stroke-linejoin:miter;stroke-miterlimit:4;stroke-dasharray:none;stroke-opacity:1"/>
<path d="M 34.79,24.83 C 35.15,25.51 35.70,25.49 36.47,25.19 C 37.34,25.10 38.68,24.85 39.44,24.15 C 40.17,23.81 41.06,23.30 40.95,22.49" id="p3352" style="fill:none;fill-opacity:1;fill-rule:evenodd;stroke:#4a3a32;stroke-width:0.2;stroke-linecap:round;stroke-linejoin:miter;marker:none;stroke-miterlimit:4;stroke-dasharray:none;stroke-dashoffset:0;stroke-opacity:1;visibility:visible;display:inline;overflow:visible;enable-background:accumulate"/>
<path d="M 24.38,33.11 C 25.01,32.56 25.24,32.36 25.69,32.28" id="p3361" style="fill:none;fill-rule:evenodd;stroke:#e5e3d5;stroke-width:0.5;stroke-linecap:round;stroke-linejoin:miter;stroke-miterlimit:4;stroke-dasharray:none;stroke-opacity:0.72"/>
<path d="M 37.55,28.66 C 38.18,28.11 38.41,27.91 38.86,27.83" id="p3365" style="fill:none;fill-rule:evenodd;stroke:#e5e3d5;stroke-width:0.5;stroke-linecap:round;stroke-linejoin:miter;stroke-miterlimit:4;stroke-dasharray:none;stroke-opacity:0.72;display:inline"/>
</g>
</svg>
