<?xml version="1.0" encoding="UTF-8" standalone="no"?>
<!DOCTYPE svg PUBLIC "-//W3C//DTD SVG 1.0//EN" "http://www.w3.org/TR/2001/REC-SVG-20010904/DTD/svg10.dtd">
<svg xmlns:svg="http://www.w3.org/2000/svg" xmlns="http://www.w3.org/2000/svg" version="1.0" width="100%" height="100%" viewBox="0 0 48 48" id="_binocular01">
<defs id="defs2385"/>
<g id="layer6" style="display:inline">
<g id="g3438" style="display:inline">
<path d="M 13.41,17.65 C 14.86,15.69 18.21,15.24 19.61,14.57 C 21.01,13.90 22.91,12.95 23.97,13.23 C 25.03,13.51 28.89,17.03 28.50,18.88 C 28.11,20.72 26.60,21.28 25.31,22.29 C 24.03,23.29 22.52,24.80 21.29,24.63 C 20.06,24.47 20.17,23.46 17.21,25.19 C 14.58,21.89 13.46,17.76 13.41,17.65 z" id="p2478" style="fill:#57535a;fill-opacity:1;fill-rule:evenodd;stroke:none;"/>
<path d="M 18.18,15.31 C 17.95,15.31 17.69,15.31 17.40,15.34 C 17.39,15.34 17.38,15.34 17.37,15.34 C 15.92,15.80 14.31,16.43 13.40,17.65 C 13.46,17.76 14.54,21.68 17.03,24.93 C 17.30,24.90 17.56,24.87 17.84,24.84 C 20.08,23.66 20.16,24.41 21.21,24.59 C 21.27,24.59 21.35,24.59 21.40,24.59 C 21.61,24.58 21.81,24.56 22,24.53 C 22.08,24.51 22.16,24.48 22.25,24.46 C 22.74,24.27 23.27,23.92 23.78,23.53 C 24.60,22.38 24.24,20.57 23.40,19.43 C 22.12,17.70 20.52,15.90 19.90,15.62 C 19.59,15.48 19.13,15.31 18.18,15.31 z" id="p3254" style="fill:#6d6f6d;fill-opacity:1;fill-rule:evenodd;stroke:none;display:inline"/>
<path d="M 17.5,15.65 C 17.15,15.65 16.73,15.69 16.25,15.75 C 15.15,16.17 14.07,16.75 13.40,17.65 C 13.46,17.76 14.58,21.86 17.18,25.15 C 17.21,25.15 17.24,25.15 17.28,25.15 C 20.17,23.48 20.06,24.45 21.28,24.62 C 21.70,24.68 22.18,24.56 22.65,24.31 C 22.66,24.30 22.67,24.29 22.68,24.28 C 23.99,23.21 23.70,21.06 22.75,19.78 C 21.46,18.04 19.83,16.24 19.21,15.96 C 18.91,15.82 18.45,15.65 17.5,15.65 z" id="p3251" style="fill:#110f18;fill-opacity:1;fill-rule:evenodd;stroke:#000000;stroke-width:0.1;stroke-linecap:butt;stroke-linejoin:miter;stroke-miterlimit:4;stroke-dasharray:none;stroke-opacity:1;display:inline"/>
<path d="M 17.5,15.65 C 17.15,15.65 16.73,15.69 16.25,15.75 C 15.15,16.17 14.07,16.75 13.40,17.65 C 13.42,17.68 13.56,18.13 13.78,18.75 C 15.58,16.82 17.79,16.61 19.96,16.56 C 19.65,16.27 19.39,16.04 19.21,15.96 C 18.91,15.82 18.45,15.65 17.5,15.65 z M 23.06,20.34 C 23.16,21.39 23.00,22.41 21.90,22.84 C 20.72,23.30 19.87,23.76 19.25,24.28 C 20.22,24.04 20.44,24.51 21.28,24.62 C 21.70,24.68 22.18,24.56 22.65,24.31 C 22.66,24.30 22.67,24.29 22.68,24.28 C 23.82,23.35 23.72,21.62 23.06,20.34 z" id="p3306" style="fill:#b9b9b9;fill-opacity:0.22;fill-rule:evenodd;stroke:none;display:inline"/>
<path d="M 23.53,13.18 C 23.27,13.18 22.99,13.26 22.68,13.34 C 22.90,13.38 23.08,13.41 23.21,13.46 C 23.85,13.70 25.61,15.36 27.03,17 C 27.73,17.81 28.16,19.02 28,20.09 C 28.22,19.75 28.39,19.35 28.5,18.87 C 28.89,17.03 25.03,13.52 23.96,13.25 C 23.83,13.21 23.68,13.18 23.53,13.18 z" id="p3258" style="fill:#6d6f6d;fill-opacity:1;fill-rule:evenodd;stroke:none;"/>
<path d="M 16.75,15.75 C 18.33,15.54 18.97,15.82 19.23,16.01" id="p3334" style="opacity:1;fill:none;fill-opacity:1;fill-rule:evenodd;stroke:#c1c1c1;stroke-width:0.30;stroke-linecap:round;stroke-linejoin:miter;marker:none;stroke-miterlimit:4;stroke-dasharray:none;stroke-dashoffset:0;stroke-opacity:1;visibility:visible;display:inline;overflow:visible;enable-background:accumulate"/>
<path d="M 14.84,16.90 C 12.51,17.21 10.29,17.54 7.93,18.06 C 7.75,18.08 7.57,18.13 7.40,18.18 C 6.45,18.60 5.52,19.11 4.59,19.59 C 3.05,20.69 2.52,23.18 3.43,25.87 C 4.59,29.27 7.61,31.72 10.18,31.34 C 11.51,31.11 12.56,30.54 13.40,30 L 13.62,29.90 L 13.62,29.87 C 15.58,28.09 17.23,26.20 18.81,24.25 C 19.55,23.43 19.77,22.02 19.25,20.46 C 18.49,18.24 16.52,16.65 14.84,16.90 z" id="p2526" style="fill:#666666;fill-opacity:1;fill-rule:evenodd;stroke:none;marker:none;visibility:visible;display:inline;overflow:visible;enable-background:accumulate"/>
<path d="M 12.74,24.49 C 13.90,27.89 12.75,30.96 10.18,31.34 C 7.61,31.72 4.58,29.28 3.42,25.87 C 2.26,22.47 3.41,19.41 5.98,19.02 C 8.56,18.64 11.58,21.09 12.74,24.49 L 12.74,24.49 z" id="p2514" style="fill:#808080;fill-opacity:1;fill-rule:evenodd;stroke:none;marker:none;visibility:visible;display:inline;overflow:visible;enable-background:accumulate"/>
<path d="M 3.95,21.69 C 3.44,24.31 3.72,26.20 4.73,27.49" id="p3342" style="fill:none;fill-rule:evenodd;stroke:#494949;stroke-width:0.80;stroke-linecap:butt;stroke-linejoin:miter;stroke-miterlimit:4;stroke-dasharray:none;stroke-opacity:1"/>
<path d="M 12.19,24.74 C 13.15,27.58 12.20,30.13 10.05,30.45 C 7.91,30.77 5.39,28.73 4.43,25.89 C 3.46,23.06 4.42,20.51 6.56,20.19 C 8.70,19.87 11.22,21.91 12.19,24.74 L 12.19,24.74 z" id="p2519" style="fill:#120f18;fill-opacity:1;fill-rule:evenodd;stroke:none;marker:none;visibility:visible;display:inline;overflow:visible;enable-background:accumulate"/>
<path d="M 12.53,27.15 C 11.60,27.23 10.48,27.52 10.43,27.5 C 9.88,28.37 8.77,29.42 8.31,29.37 C 8.44,30.10 9.71,30.52 10.62,30.31 C 11.78,29.87 12.45,28.66 12.53,27.15 z" id="p3352" style="fill:#959595;fill-opacity:0.33;fill-rule:evenodd;stroke:none;display:inline"/>
<path d="M 7.71,20.28 C 6.79,21.08 6.50,22.69 7.09,24.43 C 7.88,26.76 9.96,28.44 11.71,28.18 C 11.97,28.14 12.22,28.05 12.43,27.93 C 12.63,27.00 12.58,25.90 12.18,24.75 C 11.39,22.43 9.56,20.67 7.75,20.28 C 7.74,20.27 7.72,20.28 7.71,20.28 z" id="p2516" style="fill:#7c8395;fill-opacity:1;fill-rule:evenodd;stroke:none;marker:none;visibility:visible;display:inline;overflow:visible;enable-background:accumulate"/>
<path d="M 7.71,20.28 C 6.97,20.93 6.63,22.09 6.84,23.43 C 7.45,23.48 9.18,23.62 9.65,23.62 C 10.26,23.96 11.25,24.50 12.21,24.87 C 12.20,24.83 12.20,24.79 12.18,24.75 C 11.39,22.43 9.56,20.67 7.75,20.28 C 7.74,20.27 7.72,20.28 7.71,20.28 z" id="p2552" style="fill:#516284;fill-opacity:1;fill-rule:evenodd;stroke:none;marker:none;visibility:visible;display:inline;overflow:visible;enable-background:accumulate"/>
<path d="M 3.42,20.53 C 5.89,18.17 8.76,18.84 10.33,19.96 C 11.90,21.09 12.97,23.78 13.36,25.13 C 13.76,26.48 13.81,26.54 12.75,24.63 C 11.68,22.72 10.78,21.31 9.38,20.30 C 7.97,19.29 6.46,18.11 3.42,20.53 z" id="p2558" style="fill:#120f18;fill-opacity:1;fill-rule:evenodd;stroke:none;marker:none;visibility:visible;display:inline;overflow:visible;enable-background:accumulate"/>
<path d="M 3.87,23.17 C 4.15,26.09 4.43,27.66 5.05,28.39 C 5.67,29.12 8.31,30.92 10.11,30.52 C 7.92,30.36 7.13,29.54 5.39,27.55 C 4.60,26.65 3.87,23.33 3.87,23.17 z" id="p2560" style="fill:#120f18;fill-opacity:1;fill-rule:evenodd;stroke:none;marker:none;visibility:visible;display:inline;overflow:visible;enable-background:accumulate"/>
<path d="M 2.97,23.05 C 3.20,20.58 5.72,17.66 10.67,21.37" id="p2566" style="fill:none;fill-rule:evenodd;stroke:#141414;stroke-width:0.40;stroke-linecap:round;stroke-linejoin:miter;stroke-miterlimit:4;stroke-dasharray:none;stroke-opacity:1;display:inline"/>
<path d="M 4.77,27.88 C 8.03,31.48 9.43,31.82 11.90,29.68" id="p3339" style="fill:none;fill-opacity:1;fill-rule:evenodd;stroke:#3a3a3a;stroke-width:0.40;stroke-linecap:round;stroke-linejoin:miter;marker:none;stroke-miterlimit:4;stroke-dasharray:none;stroke-dashoffset:0;stroke-opacity:1;visibility:visible;display:inline;overflow:visible;enable-background:accumulate"/>
<path d="M 4.92,19.76 C 5.97,19.30 6.48,19.12 7.86,19.53" id="p3344" style="fill:none;fill-opacity:1;fill-rule:evenodd;stroke:#f9f9f9;stroke-width:0.40;stroke-linecap:round;stroke-linejoin:miter;marker:none;stroke-miterlimit:4;stroke-dasharray:none;stroke-dashoffset:0;stroke-opacity:0.60;visibility:visible;display:inline;overflow:visible;enable-background:accumulate"/>
<path d="M 6.20,19.30 C 7.08,19.30 8.00,19.49 8.59,19.85" id="p3347" style="fill:none;fill-opacity:1;fill-rule:evenodd;stroke:#f9f9f9;stroke-width:0.40;stroke-linecap:round;stroke-linejoin:miter;marker:none;stroke-miterlimit:4;stroke-dasharray:none;stroke-dashoffset:0;stroke-opacity:0.60;visibility:visible;display:inline;overflow:visible;enable-background:accumulate"/>
<path d="M 7.12,29.97 C 7.95,30.48 9.51,31.12 10.75,30.38" id="p3349" style="fill:none;fill-opacity:1;fill-rule:evenodd;stroke:#f9f9f9;stroke-width:0.40;stroke-linecap:round;stroke-linejoin:miter;marker:none;stroke-miterlimit:4;stroke-dasharray:none;stroke-dashoffset:0;stroke-opacity:0.60;visibility:visible;display:inline;overflow:visible;enable-background:accumulate"/>
<path d="M 5.93,21.00 C 4.46,25.14 8.37,29.60 11.53,29.42" id="p3358" style="fill:none;fill-opacity:1;fill-rule:evenodd;stroke:#f9f9f9;stroke-width:0.2;stroke-linecap:round;stroke-linejoin:miter;marker:none;stroke-miterlimit:4;stroke-dasharray:none;stroke-dashoffset:0;stroke-opacity:0.60;visibility:visible;display:inline;overflow:visible;enable-background:accumulate"/>
<path d="M 7.86,28.82 C 8.41,29.42 9.47,29.92 10.20,29.92" id="p3361" style="fill:none;fill-opacity:1;fill-rule:evenodd;stroke:#141414;stroke-width:0.40;stroke-linecap:round;stroke-linejoin:miter;marker:none;stroke-miterlimit:4;stroke-dasharray:none;stroke-dashoffset:0;stroke-opacity:1;visibility:visible;display:inline;overflow:visible;enable-background:accumulate"/>
<path d="M 11.12,29.81 C 12.36,28.92 12.79,26.94 12.06,24.78 C 11.19,22.22 9.00,20.31 7.03,20.34 C 6.89,20.34 6.75,20.35 6.62,20.37 C 6.34,20.41 6.08,20.50 5.84,20.62" id="p3364" style="fill:none;fill-opacity:1;fill-rule:evenodd;stroke:#2a2a2a;stroke-width:0.30;stroke-linecap:butt;stroke-linejoin:miter;marker:none;stroke-miterlimit:4;stroke-dasharray:none;stroke-dashoffset:0;stroke-opacity:1;visibility:visible;display:inline;overflow:visible;enable-background:accumulate"/>
<path d="M 17.90,18.25 C 18.05,18.66 18.18,19.15 18.28,19.78 C 18.59,21.91 15.15,23.71 15.15,23.71 L 14.90,22.90 L 13.65,23.62 C 13.65,23.62 13.23,23.88 13.18,24.71 C 13.13,24.66 13.67,25.56 13.65,27.43 C 13.64,28.87 13.07,29.87 12.37,30.59 C 12.74,30.40 13.09,30.20 13.40,30 L 13.62,29.90 L 13.62,29.87 C 15.58,28.09 17.23,26.20 18.81,24.25 C 19.55,23.43 19.77,22.02 19.25,20.46 C 18.95,19.60 18.47,18.85 17.90,18.25 z" id="p3369" style="fill:#000000;fill-opacity:0.63;fill-rule:evenodd;stroke:none;marker:none;visibility:visible;display:inline;overflow:visible;enable-background:accumulate"/>
<path d="M 20.65,17.23 C 22.15,19.02 23.36,20.19 23.52,21.53" id="p3331" style="fill:none;fill-rule:evenodd;stroke:#989898;stroke-width:0.30;stroke-linecap:round;stroke-linejoin:miter;stroke-miterlimit:4;stroke-dasharray:none;stroke-opacity:1;display:inline"/>
<path d="M 19.71,17.51 A 0.39,0.39 0 1 1 18.92,17.51 A 0.39,0.39 0 1 1 19.71,17.51 z" transform="translate(1.59,1.36)" id="p3338" style="opacity:1;fill:#767676;fill-opacity:1;fill-rule:evenodd;stroke:none;marker:none;visibility:visible;display:inline;overflow:visible;enable-background:accumulate"/>
<path d="M 20.87,18.59 C 20.74,18.59 20.62,18.71 20.62,18.84 C 20.62,18.97 20.74,19.09 20.87,19.09 C 21.00,19.09 21.09,18.97 21.09,18.84 C 21.09,18.71 21.00,18.59 20.87,18.59 z" id="p3340" style="opacity:1;fill:#c1c1c1;fill-opacity:1;fill-rule:evenodd;stroke:none;marker:none;visibility:visible;display:inline;overflow:visible;enable-background:accumulate"/>
<path d="M 14.84,16.90 C 12.51,17.21 10.29,17.54 7.93,18.06 C 7.75,18.08 7.57,18.13 7.40,18.18 C 6.45,18.60 5.52,19.11 4.59,19.59 C 3.05,20.69 2.52,23.18 3.43,25.87 C 4.59,29.27 7.61,31.72 10.18,31.34 C 11.51,31.11 12.56,30.54 13.40,30 L 13.62,29.90 L 13.62,29.87 C 15.58,28.09 17.23,26.20 18.81,24.25 C 19.55,23.43 19.77,22.02 19.25,20.46 C 18.49,18.24 16.52,16.65 14.84,16.90 z" id="p3375" style="fill:none;fill-opacity:1;fill-rule:evenodd;stroke:#000000;stroke-width:0.30;stroke-linecap:butt;stroke-linejoin:miter;marker:none;stroke-miterlimit:4;stroke-dasharray:none;stroke-dashoffset:0;stroke-opacity:1;visibility:visible;display:inline;overflow:visible;enable-background:accumulate"/>
</g>
<g id="g3298">
<path d="M 20.63,16.34 L 20.63,16.34 C 21.57,17.41 23.96,20.14 24.47,21.77 C 24.73,21.60 25.20,21.30 25.20,21.30 C 25.20,21.30 24.98,20.27 25.71,19.76 C 27.63,19.93 28.66,20.57 28.83,21.55 C 30.75,19.72 33.78,17.45 33.78,17.45 L 33.57,17.33 L 35.96,15.53 C 35.96,15.53 33.48,14.63 32.71,13.44 C 31.95,12.24 29.43,11.86 28.23,13.57 C 27.59,13.74 26.73,14.12 26.01,14.68 C 25.41,14.59 24.60,14.51 24.51,14.29 C 24.30,14.46 23.96,14.68 23.96,14.68 C 23.96,14.68 24.51,15.49 24.86,15.79 C 24.51,16.00 24.21,16.22 23.87,16.22 C 23.53,16.22 22.25,16.34 21.44,15.83 C 21.14,15.96 20.37,16.13 20.63,16.34 z" id="p3274" style="fill:#46444f;fill-opacity:1;fill-rule:evenodd;stroke:none;display:inline"/>
<path d="M 30.62,12.40 C 29.85,12.37 29.05,12.64 28.46,13.28 C 30.36,12.43 32.53,13.06 32.65,15.46 C 33.21,15.39 33.21,15.18 33.21,15.18 C 33.21,15.18 33.19,13.97 32.46,13.15 C 32.45,13.14 32.44,13.13 32.43,13.12 C 32.41,13.09 32.37,13.05 32.34,13.03 C 32.31,13.00 32.28,12.99 32.25,12.96 C 31.82,12.64 31.23,12.42 30.62,12.40 z" id="p3288" style="fill:#c9c9c9;fill-opacity:1;fill-rule:evenodd;stroke:none;display:inline"/>
<path d="M 24.56,14.72 C 25.41,15.03 25.83,15.10 26.37,14.93" id="p3294" style="fill:none;fill-rule:evenodd;stroke:#9f9f9f;stroke-width:0.5;stroke-linecap:round;stroke-linejoin:miter;stroke-miterlimit:4;stroke-dasharray:none;stroke-opacity:1;display:inline"/>
<path d="M 28.62,13.65 C 28.26,13.71 27.16,14.79 26.40,15.06 C 25.78,15.28 24.89,15.15 23.96,14.68 C 23.96,14.68 24.50,15.43 24.84,15.75 C 25.74,15.54 27.29,15.16 27.59,15.18 C 27.98,15.21 29.12,16.62 29.12,16.62 L 31.87,17.65 L 33.37,17.78 C 33.45,17.72 33.78,17.46 33.78,17.46 L 33.56,17.34 L 35.37,15.96 C 33.58,16.22 31.65,15.13 31.46,14.87 C 31.25,14.57 30.56,13.78 30.56,13.78 L 30.25,14.34 C 30.25,14.34 29.77,13.96 29.53,13.96 C 29.28,13.96 28.87,14.09 28.87,14.09 C 28.87,14.09 28.68,13.80 28.62,13.65 z" id="p3276" style="fill:#161616;fill-opacity:0.59;fill-rule:evenodd;stroke:none;display:inline"/>
<path d="M 29.12,14.59 C 29.04,14.60 28.97,14.63 28.90,14.68 C 28.39,15.11 28.31,15.03 28.31,15.03 C 28.31,15.03 27.98,15.03 27.56,15.28 C 28.94,17.58 30.64,17.96 32.93,18.12 C 33.23,17.89 33.78,17.46 33.78,17.46 L 33.65,17.40 C 31.08,17.78 29.37,16.31 29.37,16.31 C 29.37,16.31 29.85,16.08 30.09,15.84 C 30.51,15.42 29.68,14.52 29.12,14.59 z" id="p3243" style="fill:#9d9d9f;fill-opacity:1;fill-rule:evenodd;stroke:none;display:inline"/>
<path d="M 31.06,13.43 C 30.85,13.49 30.5,13.74 30.5,13.71 C 31.60,15.13 32.28,15.94 35.09,16.18 L 35.59,15.81 C 33.94,15.58 32.82,15.74 31.06,13.43 z" id="p3245" style="opacity:1;fill:#9d9d9f;fill-opacity:1;fill-rule:evenodd;stroke:none;marker:none;visibility:visible;display:inline;overflow:visible;enable-background:accumulate"/>
<path d="M 24.84,15.78 C 24.51,15.98 24.20,16.21 23.87,16.21 C 23.53,16.21 22.24,16.35 21.43,15.84 C 21.13,15.97 20.36,16.13 20.62,16.34 C 21.56,17.41 23.95,20.15 24.46,21.78 C 24.72,21.61 25.18,21.31 25.18,21.31 C 25.18,21.31 24.99,20.26 25.71,19.75 C 25.82,19.75 25.92,19.76 26.03,19.78 C 26.09,18.98 26.14,18.21 26.12,17.62 C 26.09,16.62 25.65,16.09 24.87,15.78 C 24.86,15.77 24.85,15.78 24.84,15.78 z" id="p3247" style="fill:#161616;fill-opacity:1;fill-rule:evenodd;stroke:none;display:inline"/>
<path d="M 21.43,15.84 C 21.23,15.93 20.82,16.02 20.65,16.15 C 21.84,16.92 22.93,17.00 24.03,16.46 C 24.61,16.18 24.77,15.99 24.75,15.87 C 24.46,16.05 24.17,16.21 23.87,16.21 C 23.53,16.21 22.24,16.35 21.43,15.84 z" id="p3262" style="fill:#9f9f9f;fill-opacity:1;fill-rule:evenodd;stroke:none;display:inline"/>
<path d="M 25.53,19.81 C 25.34,19.83 25.16,19.90 25,20.03 C 24.54,20.38 24.37,20.90 24.40,21.65 C 24.42,21.69 24.45,21.74 24.46,21.78 C 24.72,21.61 25.18,21.31 25.18,21.31 C 25.18,21.31 25.01,20.33 25.65,19.81 C 25.61,19.81 25.57,19.80 25.53,19.81 z" id="p3264" style="fill:#9f9f9f;fill-opacity:1;fill-rule:evenodd;stroke:none;display:inline"/>
<path d="M 25.46,15.83 C 26.54,15.68 27.75,16.10 28.11,17.70 C 28.48,19.30 26.88,19.75 26.88,19.75 C 26.88,19.75 27.99,19.69 28.63,18.43 C 29.26,17.16 28.45,16.55 28.27,16.34 C 28.33,16.22 28.33,16.07 28.33,16.07 L 27.66,15.31 L 27.36,15.83 C 27.36,15.83 26.60,15.47 25.46,15.83 z" id="p3282" style="fill:#161616;fill-opacity:1;fill-rule:evenodd;stroke:none;display:inline"/>
<path d="M 26.82,15.74 C 27.36,15.86 27.81,16.31 28.11,16.88" id="p3285" style="fill:none;fill-opacity:1;fill-rule:evenodd;stroke:#b6b6b6;stroke-width:0.30;stroke-linecap:round;stroke-linejoin:miter;stroke-miterlimit:4;stroke-dasharray:none;stroke-opacity:1;display:inline"/>
<path d="M 20.63,16.34 L 20.63,16.34 C 21.57,17.41 23.96,20.14 24.47,21.77 C 24.73,21.60 25.20,21.30 25.20,21.30 C 25.20,21.30 24.98,20.27 25.71,19.76 C 27.63,19.93 28.66,20.57 28.83,21.55 C 30.75,19.72 33.78,17.45 33.78,17.45 L 33.57,17.33 L 35.96,15.53 C 35.96,15.53 33.48,14.63 32.71,13.44 C 31.95,12.24 29.43,11.86 28.23,13.57 C 27.59,13.74 26.73,14.12 26.01,14.68 C 25.41,14.59 24.60,14.51 24.51,14.29 C 24.30,14.46 23.96,14.68 23.96,14.68 C 23.96,14.68 24.51,15.49 24.86,15.79 C 24.51,16.00 24.21,16.22 23.87,16.22 C 23.53,16.22 22.25,16.34 21.44,15.83 C 21.14,15.96 20.37,16.13 20.63,16.34 z" id="p2439" style="fill:none;fill-rule:evenodd;stroke:#000000;stroke-width:0.30;stroke-linecap:butt;stroke-linejoin:miter;stroke-miterlimit:4;stroke-dasharray:none;stroke-opacity:1;display:inline"/>
</g>
<g id="g3469" style="display:inline">
<path d="M 28.72,24.35 C 28.11,22.68 28.50,21.84 29.22,21.00 C 29.95,20.16 33.36,16.86 34.48,15.97 C 35.60,15.08 36.66,14.18 37.94,14.24 C 39.23,14.29 41.86,16.86 42.86,18.60 C 43.87,20.33 43.48,21.28 43.36,22.79 C 43.25,24.30 43.31,26.14 42.47,27.65 C 41.63,29.16 28.83,24.52 28.72,24.35 z" id="p2476" style="fill:#5e5d65;fill-opacity:1;fill-rule:evenodd;stroke:none;"/>
<path d="M 34.71,17.14 C 33.93,17.18 33.01,17.48 31.90,18.17 C 30.85,19.18 29.84,20.17 29.49,20.58 C 28.76,21.42 28.38,22.25 28.99,23.92 C 29.10,24.09 41.90,28.75 42.74,27.24 C 43.20,26.41 43.39,25.47 43.49,24.55 C 43.16,19.80 38.12,18.32 36.71,17.61 C 36.09,17.30 35.46,17.11 34.71,17.14 z" id="p3413" style="opacity:1;fill:#808380;fill-opacity:1;fill-rule:evenodd;stroke:none;marker:none;visibility:visible;display:inline;overflow:visible;enable-background:accumulate"/>
<path d="M 41.93,17.31 L 38.90,27.56 C 40.74,27.96 42.20,28.12 42.46,27.65 C 43.30,26.14 43.26,24.29 43.37,22.78 C 43.48,21.27 43.88,20.32 42.87,18.59 C 42.64,18.19 42.30,17.75 41.93,17.31 z" id="p3417" style="fill:#f0f0f0;fill-opacity:0.17;fill-rule:evenodd;stroke:none;"/>
<path d="M 40.16,16.59 L 40.16,16.59 C 42.17,18.59 43.48,20.66 43.55,21.91" id="p3422" style="fill:none;fill-rule:evenodd;stroke:#2c2c2c;stroke-width:0.30;stroke-linecap:round;stroke-linejoin:miter;stroke-miterlimit:4;stroke-dasharray:none;stroke-opacity:1;display:inline"/>
<path d="M 34.43,17.56 C 33.66,17.60 32.74,17.90 31.62,18.59 C 30.57,19.60 29.57,20.59 29.21,21 C 28.49,21.83 28.10,22.66 28.71,24.34 C 28.83,24.51 41.63,29.16 42.46,27.65 C 42.92,26.82 43.12,25.89 43.21,24.96 C 42.88,20.22 37.84,18.73 36.43,18.03 C 35.81,17.72 35.19,17.52 34.43,17.56 z" id="p3407" style="fill:#110f18;fill-opacity:1;fill-rule:evenodd;stroke:none;display:inline"/>
<path d="M 34.43,17.56 C 33.66,17.60 32.74,17.90 31.62,18.59 C 30.57,19.60 29.57,20.59 29.21,21 C 28.49,21.83 28.10,22.66 28.71,24.34 C 28.75,24.40 30.53,25.09 32.78,25.84 C 31.99,22.11 32.60,19.76 35.75,17.75 C 35.34,17.61 34.91,17.53 34.43,17.56 z" id="p3425" style="opacity:1;fill:#b9b9b9;fill-opacity:0.22;fill-rule:evenodd;stroke:none;marker:none;visibility:visible;display:inline;overflow:visible;enable-background:accumulate"/>
<path d="M 28.72,24.35 C 28.11,22.68 28.50,21.84 29.22,21.00 C 29.95,20.16 33.36,16.86 34.48,15.97 C 35.60,15.08 36.66,14.18 37.94,14.24 C 39.23,14.29 41.86,16.86 42.86,18.60 C 43.87,20.33 43.48,21.28 43.36,22.79 C 43.25,24.30 43.31,26.14 42.47,27.65 C 41.63,29.16 28.83,24.52 28.72,24.35 z" id="p3405" style="opacity:1;fill:none;fill-opacity:1;fill-rule:evenodd;stroke:#000000;stroke-width:0.30;stroke-linecap:butt;stroke-linejoin:miter;marker:none;stroke-miterlimit:4;stroke-dasharray:none;stroke-dashoffset:0;stroke-opacity:1;visibility:visible;display:inline;overflow:visible;enable-background:accumulate"/>
<path d="M 36.87,19.59 C 35.80,19.60 34.13,20.53 32.47,21.47 C 30.76,22.44 28.93,23.08 27.58,24.36 C 25.69,25.96 25.22,28.82 26.25,31.62 C 27.70,35.61 32.12,38.30 36.12,37.62 C 38.29,37.25 39.49,36.22 40.32,35.21 C 41.79,33.53 42.36,30.48 42.53,28.79 C 42.71,27.11 43.16,25.74 42.78,24.15 C 42.13,21.49 39.48,19.44 36.87,19.59 z" id="p3359" style="opacity:1;fill:#918c8c;fill-opacity:1;fill-rule:evenodd;stroke:none;marker:none;visibility:visible;display:inline;overflow:visible;enable-background:accumulate"/>
<path d="M 31.78,24.21 C 31.56,24.23 31.36,24.27 31.15,24.31 C 27.77,24.88 26.01,28.06 27.25,31.43 C 28.48,34.80 32.21,37.07 35.59,36.5 C 38.97,35.92 40.73,32.74 39.5,29.37 C 38.34,26.21 34.98,24.00 31.78,24.21 z" id="p2505" style="fill:#66666f;fill-opacity:1;fill-rule:evenodd;stroke:none;marker:none;visibility:visible;display:inline;overflow:visible;enable-background:accumulate"/>
<path d="M 41.93,22.31 C 41.52,23.95 40.94,26.29 40.65,26.96 C 41.36,28.28 41.80,29.41 41.87,32.12 C 42.24,30.90 42.44,29.65 42.53,28.78 C 42.70,27.09 43.16,25.74 42.78,24.15 C 42.61,23.49 42.31,22.87 41.93,22.31 z" id="p3400" style="fill:#ffffff;fill-opacity:0.32;fill-rule:evenodd;stroke:none;"/>
<path d="M 36.87,19.59 C 35.80,19.60 34.13,20.53 32.47,21.47 C 30.76,22.44 28.93,23.08 27.58,24.36 C 25.69,25.96 25.22,28.82 26.25,31.62 C 27.70,35.61 32.12,38.30 36.12,37.62 C 38.29,37.25 39.49,36.22 40.32,35.21 C 41.79,33.53 42.36,30.48 42.53,28.79 C 42.71,27.11 43.16,25.74 42.78,24.15 C 42.13,21.49 39.48,19.44 36.87,19.59 z" id="p2469" style="opacity:1;fill:none;fill-opacity:1;fill-rule:evenodd;stroke:#000000;stroke-width:0.30;stroke-linecap:butt;stroke-linejoin:miter;marker:none;stroke-miterlimit:4;stroke-dasharray:none;stroke-dashoffset:0;stroke-opacity:1;visibility:visible;display:inline;overflow:visible;enable-background:accumulate"/>
<path d="M 39.49,29.36 C 40.72,32.73 38.98,35.93 35.60,36.50 C 32.22,37.07 28.48,34.80 27.25,31.43 C 26.02,28.06 27.76,24.87 31.14,24.29 C 34.52,23.72 38.25,25.99 39.49,29.36 L 39.49,29.36 z" id="p3343" style="fill:#1a1a1a;fill-opacity:1;fill-rule:evenodd;stroke:none;marker:none;visibility:visible;display:inline;overflow:visible;enable-background:accumulate"/>
<path d="M 36.61,32.50 C 36.61,32.50 34.47,34.82 34.28,34.98 C 34.90,35.09 35.13,35.17 35.48,35.17 C 35.25,35.29 34.36,35.91 34.20,36.06 C 33.39,35.91 32.46,35.64 31.96,35.44 C 31.92,35.56 31.88,35.75 31.88,35.75 C 31.88,35.75 33.51,36.49 35.02,36.33 C 36.53,36.18 37.34,35.71 37.65,35.48 C 37.11,35.56 35.68,35.33 36.68,34.71 C 37.69,34.09 39.16,33.12 38.54,32.42 C 37.92,31.72 36.68,32.46 36.61,32.50 z" id="p3377" style="fill:#daddf5;fill-opacity:0.20;fill-rule:evenodd;stroke:none;display:inline"/>
<path d="M 26.57,28.00 C 26.46,30.52 26.84,32.49 28.21,33.91" id="p3345" style="opacity:1;fill:none;fill-opacity:1;fill-rule:evenodd;stroke:#494949;stroke-width:0.80;stroke-linecap:butt;stroke-linejoin:miter;marker:none;stroke-miterlimit:4;stroke-dasharray:none;stroke-dashoffset:0;stroke-opacity:1;visibility:visible;display:inline;overflow:visible;enable-background:accumulate"/>
<path d="M 27.61,32.98 C 28.76,34.57 32.32,38.08 36.37,36.54" id="p3348" style="opacity:1;fill:none;fill-opacity:1;fill-rule:evenodd;stroke:#3a3a3a;stroke-width:0.40;stroke-linecap:round;stroke-linejoin:miter;marker:none;stroke-miterlimit:4;stroke-dasharray:none;stroke-dashoffset:0;stroke-opacity:1;visibility:visible;display:inline;overflow:visible;enable-background:accumulate"/>
<path d="M 31.78,24.21 C 31.56,24.23 31.36,24.27 31.15,24.31 C 30.39,24.44 29.70,24.69 29.12,25.06 C 28.25,26.29 28.02,27.98 28.65,29.71 C 29.78,32.79 33.19,34.86 36.28,34.34 C 38.04,34.04 39.31,32.94 39.87,31.5 C 39.87,30.80 39.76,30.10 39.5,29.37 C 38.34,26.21 34.98,24.00 31.78,24.21 z" id="p3353" style="fill:#6875d3;fill-opacity:0.60;fill-rule:evenodd;stroke:none;marker:none;visibility:visible;display:inline;overflow:visible;enable-background:accumulate"/>
<path d="M 31.78,24.21 C 31.66,24.22 31.55,24.26 31.43,24.28 C 30.83,24.69 30.32,25.23 29.96,25.90 C 28.65,28.37 29.79,31.55 32.5,33 C 35.20,34.44 38.46,33.59 39.78,31.12 C 39.79,31.09 39.82,31.06 39.84,31.03 C 39.80,30.48 39.70,29.94 39.5,29.37 C 38.34,26.21 34.98,24.00 31.78,24.21 z" id="p3362" style="opacity:1;fill:#7c8395;fill-opacity:1;fill-rule:evenodd;stroke:none;marker:none;visibility:visible;display:inline;overflow:visible;enable-background:accumulate"/>
<path d="M 31.78,24.21 C 31.56,24.23 31.36,24.27 31.15,24.31 C 30.39,24.44 29.70,24.69 29.12,25.06 C 28.79,25.52 28.57,26.05 28.43,26.62 C 31.09,28.44 35.38,31.32 38.84,33.09 C 39.30,32.64 39.64,32.09 39.87,31.5 C 39.87,30.80 39.76,30.10 39.5,29.37 C 38.34,26.21 34.98,24.00 31.78,24.21 z" id="p3368" style="fill:#123680;fill-opacity:0.27;fill-rule:evenodd;stroke:none;display:inline"/>
<path d="M 27.77,28.33 C 27.88,31.45 31.11,35.28 36.43,35.07" id="p3374" style="fill:none;fill-rule:evenodd;stroke:#bbbbbb;stroke-width:0.30;stroke-linecap:round;stroke-linejoin:miter;stroke-miterlimit:4;stroke-dasharray:none;stroke-opacity:0.49;display:inline"/>
<path d="M 31.5,23.12 C 31.24,23.14 30.99,23.17 30.75,23.21 C 28.22,23.64 26.46,25.34 25.90,27.53 C 27.01,25.89 28.99,23.73 31.68,23.90 C 35.40,24.13 39.52,26.36 40.06,29.46 C 40.58,32.44 40.44,35.78 35.5,37.62 C 35.66,37.60 35.83,37.59 36,37.56 C 39.97,36.88 42.01,33.14 40.56,29.18 C 39.20,25.47 35.25,22.87 31.5,23.12 z" id="p3383" style="fill:#474747;fill-opacity:0.61;fill-rule:evenodd;stroke:none;display:inline"/>
<path d="M 32,23 C 31.50,23.00 30.97,23.05 30.43,23.12 C 28.39,23.38 26.96,25.13 26,26.87 C 25.81,27.50 25.70,28.19 25.71,28.90 C 26.62,25.41 27.46,25.20 28.81,24.53 C 30.36,23.75 34.24,23.60 36.03,24.68 C 37.81,25.77 39.97,27.46 40.59,30.87 C 41.21,34.28 41.82,30.02 39.81,27 C 38.04,24.35 35.47,22.94 32,23 z" id="p3389" style="fill:#0f0f0f;fill-opacity:1;fill-rule:evenodd;stroke:none;display:inline"/>
<path d="M 28.09,24.53 C 29.02,23.91 31.00,23.36 32.32,23.52" id="p3392" style="fill:none;fill-rule:evenodd;stroke:#dddddd;stroke-width:0.60;stroke-linecap:round;stroke-linejoin:miter;stroke-miterlimit:4;stroke-dasharray:none;stroke-opacity:0.61;display:inline"/>
<path d="M 29.70,23.81 C 30.74,23.56 32.55,23.41 33.34,23.62" id="p3398" style="opacity:1;fill:none;fill-opacity:1;fill-rule:evenodd;stroke:#f1f1f1;stroke-width:0.60;stroke-linecap:round;stroke-linejoin:miter;marker:none;stroke-miterlimit:4;stroke-dasharray:none;stroke-dashoffset:0;stroke-opacity:0.68;visibility:visible;display:inline;overflow:visible;enable-background:accumulate"/>
<path d="M 31.28,19.71 C 31.04,19.71 30.84,19.91 30.84,20.15 C 30.84,20.39 31.04,20.59 31.28,20.59 C 31.52,20.59 31.71,20.39 31.71,20.15 C 31.71,19.91 31.52,19.71 31.28,19.71 z" id="p3432" style="opacity:1;fill:#141414;fill-opacity:1;fill-rule:evenodd;stroke:none;marker:none;visibility:visible;display:inline;overflow:visible;enable-background:accumulate"/>
<path d="M 31.21,19.87 C 31.09,19.87 30.99,19.96 31,20.09 C 31,20.22 31.09,20.34 31.21,20.34 C 31.34,20.34 31.46,20.22 31.46,20.09 C 31.46,19.96 31.34,19.87 31.21,19.87 z" id="p3434" style="opacity:1;fill:#8f8f8f;fill-opacity:1;fill-rule:evenodd;stroke:none;marker:none;visibility:visible;display:inline;overflow:visible;enable-background:accumulate"/>
</g>
<path d="M 30.62,12.40 C 29.74,12.37 28.84,12.70 28.25,13.56 C 27.60,13.73 26.72,14.13 26,14.68 C 25.17,13.91 24.37,13.35 23.96,13.25 C 22.90,12.97 21.02,13.92 19.62,14.59 C 18.39,15.18 15.63,15.60 14,17.03 C 11.97,17.30 10.00,17.61 7.93,18.06 C 7.75,18.08 7.57,18.13 7.40,18.18 C 6.45,18.60 5.52,19.11 4.59,19.59 C 3.05,20.69 2.52,23.18 3.43,25.87 C 4.59,29.27 7.61,31.72 10.18,31.34 C 11.51,31.11 12.56,30.54 13.40,30 L 13.62,29.90 L 13.62,29.87 C 15.51,28.16 17.10,26.34 18.62,24.46 C 20.16,23.83 20.29,24.49 21.28,24.62 C 22.51,24.79 24.02,23.28 25.31,22.28 C 26.18,21.59 27.18,21.13 27.84,20.31 C 28.41,20.62 28.75,21.04 28.84,21.56 C 28.49,22.11 28.30,22.72 28.5,23.62 C 28.18,23.84 27.87,24.10 27.59,24.37 C 25.70,25.97 25.22,28.82 26.25,31.62 C 27.70,35.61 32.12,38.30 36.12,37.62 C 38.29,37.25 39.48,36.22 40.31,35.21 C 41.77,33.53 42.35,30.47 42.53,28.78 C 42.59,28.10 42.72,27.51 42.81,26.90 C 43.30,25.56 43.28,24.05 43.37,22.78 C 43.48,21.27 43.88,20.32 42.87,18.59 C 41.86,16.86 39.22,14.30 37.93,14.25 C 36.99,14.20 36.18,14.67 35.37,15.28 C 34.59,14.94 33.25,14.27 32.71,13.43 C 32.33,12.83 31.50,12.43 30.62,12.40 z" id="stroke01" style="fill:none;fill-rule:evenodd;stroke:#000000;stroke-width:0.5;stroke-linecap:butt;stroke-linejoin:miter;stroke-miterlimit:4;stroke-dasharray:none;stroke-opacity:1;display:inline"/>
</g>
</svg>
