<?xml version="1.0" encoding="UTF-8" standalone="no"?>
<!DOCTYPE svg PUBLIC "-//W3C//DTD SVG 1.0//EN" "http://www.w3.org/TR/2001/REC-SVG-20010904/DTD/svg10.dtd">
<svg xmlns:svg="http://www.w3.org/2000/svg" xmlns="http://www.w3.org/2000/svg" version="1.0" width="100%" height="100%" viewBox="0 0 48 48" id="_bucket02">
<defs id="defs2385"/>
<g id="bucket02" style="display:inline">
<path d="M 4.9,7.46 C 4.9,9.11 11.53,38.63 11.72,39.26 C 11.91,39.9 14.85,43.34 23.39,43.28 C 31.93,43.21 34.54,40.73 34.67,40.28 C 34.8,39.84 43.4,8.29 43.46,7.97 C 43.53,7.65 42.51,5.8 41.04,4.59 C 39.58,3.38 37.79,2.87 37.41,2.87 C 37.03,2.87 35.24,3.38 35.11,3.63 C 34.99,3.89 33.14,12.24 33.14,12.24 C 33.14,12.24 28.1,11.03 22.24,11.35 C 16.38,11.66 12.93,12.68 12.93,12.68 C 12.93,12.68 12.81,11.66 12.49,11.47 C 12.17,11.28 10.38,10.64 9.68,9.82 C 8.98,8.99 8.66,7.46 8.34,7.33 C 8.03,7.2 4.84,7.33 4.9,7.46 z" id="p2480" style="opacity:1;fill:#e9f321;fill-opacity:1;fill-rule:evenodd;stroke:none"/>
<path d="M 4.93,7.68 C 5.13,10.13 11.53,38.65 11.71,39.28 C 11.82,39.63 12.8,40.83 15.12,41.84 C 14.57,38.44 10.36,12.73 10.12,12.37 C 9.87,11.99 8.52,11.67 7.12,10.71 C 6.07,10 5.52,9.44 4.93,7.68 z" id="p3258" style="opacity:1;fill:#765030;fill-opacity:0.41;fill-rule:evenodd;stroke:none;display:inline"/>
<path d="M 11.62,20.78 C 12.97,28.73 14.77,39.67 15.12,41.84 C 17.51,42.96 21.54,43.21 23.25,43.28 L 23.59,23.46 C 23.59,23.46 19.68,23.38 16.81,22.68 C 15.52,22.37 13.52,21.72 11.62,20.78 z" id="p3260" style="opacity:1;fill:#ca8324;fill-opacity:0.51;fill-rule:evenodd;stroke:none;display:inline"/>
<path d="M 40.53,18.75 C 39.72,19.82 38.35,20.65 35.43,21.75 L 31.5,42.15 C 33.7,41.41 34.61,40.52 34.68,40.28 C 34.77,39.98 37.95,28.22 40.53,18.75 z" id="p3262" style="opacity:1;fill:#b66e09;fill-opacity:0.52;fill-rule:evenodd;stroke:none;display:inline"/>
<path d="M 23.68,11.31 L 23.78,12.37 L 23.62,21.78 C 26.27,21.89 29.26,21.74 31.58,21.12 L 33.34,12.21 C 33.1,12.16 28.75,11.23 23.68,11.31 z" id="p3343" style="opacity:1;fill:#703a18;fill-opacity:0.86;fill-rule:evenodd;stroke:none;display:inline"/>
<path d="M 7.65,7.28 C 6.62,7.26 4.85,7.37 4.9,7.46 C 4.9,7.49 4.93,7.64 4.93,7.68 C 4.94,7.69 4.93,7.7 4.93,7.71 C 5.51,9.45 6.07,10 7.12,10.71 C 8.35,11.55 9.52,11.88 9.96,12.21 C 10.75,12.13 11.69,11.91 12.62,11.65 C 12.58,11.58 12.55,11.5 12.5,11.46 C 12.18,11.27 10.38,10.64 9.68,9.81 C 8.98,8.98 8.66,7.47 8.34,7.34 C 8.26,7.31 7.99,7.28 7.65,7.28 z" id="p3292" style="opacity:1;fill:#a78618;fill-opacity:0.31;fill-rule:evenodd;stroke:none;display:inline"/>
<path d="M 37.4,2.87 C 37.02,2.87 35.25,3.37 35.12,3.62 C 34.99,3.87 33.3,12.29 33.3,12.29 L 31.6,21.07 C 31.8,21.02 31.8,21.02 32,20.96 C 34.81,20.08 35.89,19.16 36.28,18.65 C 36.43,18.03 36.58,17.54 36.75,16.9 C 37.91,12.43 39.17,7.87 39.53,7.9 C 39.99,7.94 41.94,7.95 43.46,7.93 C 43.48,7.56 42.49,5.78 41.06,4.59 C 39.59,3.38 37.78,2.87 37.4,2.87 z" id="p3348" style="opacity:1;fill:#c7982a;fill-opacity:0.68;fill-rule:evenodd;stroke:none;display:inline"/>
<path d="M 37.46,16.59 C 37.16,16.6 36.96,16.64 36.9,16.65 C 36.65,16.71 36.59,17.99 36.46,18.37 C 36.34,18.75 35.44,19.88 32,20.96 C 28.55,22.05 23.91,21.94 20.21,21.5 C 16.52,21.05 14.53,19.18 14.53,19.18 L 11.9,20.65 C 15.25,22.38 16.66,22.68 21.37,23.43 C 23.27,23.74 26.35,23.34 26.87,23.31 C 27.9,23.24 30.87,23.98 38.12,20.59 C 39.52,19.93 40.17,19.05 40.46,18.34 C 40.76,17.63 40.71,17.09 40.71,17.09 C 39.93,16.7 38.52,16.61 37.46,16.59 z" id="p3323" style="opacity:1;fill:#c8c031;fill-opacity:0.7;fill-rule:evenodd;stroke:none;display:inline"/>
<path d="M 14.53,19.18 L 11.9,20.65 C 15.25,22.38 16.66,22.68 21.37,23.43 C 22.02,23.54 22.79,23.54 23.56,23.53 L 23.62,21.78 C 22.44,21.72 21.29,21.62 20.21,21.5 C 16.52,21.05 14.53,19.18 14.53,19.18 z" id="p3357" style="opacity:1;fill:#7c6531;fill-opacity:0.41;fill-rule:evenodd;stroke:none;display:inline"/>
<path d="M 11.62,20.78 C 12.93,28.51 14.61,38.66 15.03,41.25 L 19.43,42.43 L 15.34,22.25 C 14.21,21.89 12.91,21.42 11.62,20.78 z" id="p3367" style="opacity:1;fill:#c8973e;fill-opacity:0.37;fill-rule:evenodd;stroke:none;display:inline"/>
<path d="M 11.62,20.78 C 12.97,28.73 14.77,39.67 15.12,41.84 C 15.53,42.03 16,42.19 16.5,42.34 L 13.12,21.46 C 12.62,21.26 12.12,21.02 11.62,20.78 z" id="p3371" style="opacity:1;fill:#503117;fill-opacity:0.18;fill-rule:evenodd;stroke:none;display:inline"/>
<path d="M 17.21,22.78 L 21.15,43.15 C 21.98,43.22 22.73,43.26 23.25,43.28 L 23.5,28.75 L 22.46,23.4 C 21.2,23.33 19.09,23.19 17.21,22.78 z" id="p3375" style="opacity:1;fill:#f6f079;fill-opacity:0.3;fill-rule:evenodd;stroke:none;display:inline"/>
<path d="M 18.37,23 L 22.03,42.53 L 23.25,42.78 L 23.37,35.62 L 21.03,23.31 C 20.2,23.24 19.29,23.15 18.37,23 z" id="p3369" style="opacity:1;fill:#d29322;fill-opacity:0.23;fill-rule:evenodd;stroke:none;display:inline"/>
<path d="M 18.9,21.28 C 18.39,21.66 17.82,22.15 17.31,22.71 C 18.4,22.96 19.67,23.16 21.37,23.43 C 21.75,23.49 22.18,23.54 22.62,23.56 L 23.03,21.75 C 22.05,21.69 21.11,21.6 20.21,21.5 C 19.75,21.44 19.31,21.37 18.9,21.28 z" id="p3399" style="opacity:1;fill:#825e25;fill-opacity:0.1;fill-rule:evenodd;stroke:none"/>
<path d="M 15.65,20 L 13.4,21.4 C 15.16,22.21 16.56,22.6 18.71,23 L 19.87,21.43 C 17.96,21.15 16.54,20.53 15.65,20 z" id="p3401" style="opacity:1;fill:#e2cb9a;fill-opacity:0.18;fill-rule:evenodd;stroke:none"/>
<path d="M 40.43,19.06 C 38.89,20.62 38,20.75 38,20.75 C 38,20.75 37.88,22.01 37.59,23 C 37.33,23.86 34.76,34.74 33.28,41.37 C 34.17,40.88 34.64,40.44 34.68,40.28 C 34.77,39.98 37.88,28.46 40.43,19.06 z" id="p3412" style="opacity:1;fill:#e7df62;fill-opacity:0.33;fill-rule:evenodd;stroke:none;display:inline"/>
<path d="M 37.46,16.59 C 37.16,16.6 36.96,16.64 36.9,16.65 C 36.65,16.71 36.59,17.99 36.46,18.37 C 36.35,18.7 35.67,19.61 33.21,20.56 L 35.59,21.68 C 36.37,21.38 37.21,21.01 38.12,20.59 C 39.52,19.93 40.17,19.05 40.46,18.34 C 40.76,17.63 40.71,17.09 40.71,17.09 C 39.93,16.7 38.52,16.61 37.46,16.59 z" id="p3416" style="opacity:1;fill:#a7752c;fill-opacity:0.33;fill-rule:evenodd;stroke:none;display:inline"/>
<path d="M 40.53,18.75 C 40.23,19.14 39.87,19.51 39.37,19.87 L 39.03,20.24 L 33.81,40.93 C 34.09,40.71 34.66,40.37 34.68,40.28 C 34.77,39.98 37.95,28.22 40.53,18.75 z" id="p3421" style="opacity:1;fill:#fbf59e;fill-opacity:0.52;fill-rule:evenodd;stroke:none;display:inline"/>
<path d="M 35.96,19 C 35.52,19.42 34.73,19.98 33.21,20.56 L 35.59,21.68 C 36.37,21.38 37.21,21.01 38.12,20.59 C 38.36,20.48 38.55,20.34 38.75,20.21 L 35.96,19 z" id="p3439" style="opacity:1;fill:#654d29;fill-opacity:0.25;fill-rule:evenodd;stroke:none;display:inline"/>
<path d="M 11.4,37.84 C 11.48,38.16 11.7,39.23 11.71,39.28 C 11.9,39.91 14.86,43.34 23.4,43.28 C 31.94,43.21 34.56,40.72 34.68,40.28 C 34.69,40.25 35.07,38.8 35.12,38.62 C 33.24,40.6 29.82,42.05 23.84,42 C 18.05,41.95 13.75,40.19 11.4,37.84 z" id="p3409" style="opacity:1;fill:#f3e719;fill-opacity:1;fill-rule:evenodd;stroke:none;display:inline"/>
<path d="M 11.4,37.84 C 11.48,38.16 11.7,39.23 11.71,39.28 C 11.87,39.79 13.84,42.11 19.06,42.96 L 19,41.5 C 15.62,40.81 13.04,39.48 11.4,37.84 z" id="p3450" style="opacity:1;fill:#a77408;fill-opacity:0.4;fill-rule:evenodd;stroke:none"/>
<path d="M 12.9,39.06 L 13.09,40.71 C 13.86,41.28 14.99,41.88 16.56,42.37 L 16.4,40.78 C 15.06,40.31 13.88,39.72 12.9,39.06 z" id="p3455" style="opacity:1;fill:#776338;fill-opacity:0.28;fill-rule:evenodd;stroke:none;display:inline"/>
<path d="M 37.4,2.87 C 37.02,2.87 35.25,3.37 35.12,3.62 C 35.12,3.62 35.12,3.65 35.12,3.65 C 36.1,4.07 37.3,4.66 37.96,5.25 C 39.02,6.18 39.28,6.24 39.43,8 C 39.47,7.94 39.5,7.9 39.53,7.9 C 39.99,7.94 41.94,7.95 43.46,7.93 C 43.48,7.56 42.49,5.78 41.06,4.59 C 39.59,3.38 37.78,2.87 37.4,2.87 z" id="p3465" style="opacity:1;fill:#f8f331;fill-opacity:0.46;fill-rule:evenodd;stroke:none;display:inline"/>
<path d="M 24.4,11.31 C 23.7,11.3 22.98,11.3 22.25,11.34 C 16.38,11.66 12.93,12.68 12.93,12.68 L 13.18,14.25 C 17.37,12.6 20.91,12.54 22.46,12.5 C 24.67,12.43 28.42,12.59 30.36,12.89 C 31.42,13.05 33.09,13.31 33.09,13.31 C 33.17,12.96 33.13,12.6 33.15,12.25 C 33.15,12.25 29.29,11.33 24.4,11.31 z" id="p3471" style="opacity:1;fill:#4d3d07;fill-opacity:0.33;fill-rule:evenodd;stroke:none;display:inline"/>
<path d="M 36.53,11.15 L 34.65,11.43 C 34.2,12.14 34,13.75 33.87,14.62 C 33.74,15.49 33.79,17.19 33.4,16.96 C 33.16,16.82 31.52,16.21 31.52,16.21 C 31.52,16.21 30.8,19.86 30.65,21.31 C 31.11,21.21 31.56,21.1 32,20.96 C 35.44,19.88 34.92,19.78 35.23,19.54 C 35.34,19.46 35.84,19.11 36.06,18.93 C 36.05,18.51 35.47,18.31 35.38,18.21 C 35.18,18.02 35.66,14.48 35.75,13.81 C 35.85,13.12 36.53,11.15 36.53,11.15 z" id="p4021" style="opacity:1;fill:#a76506;fill-opacity:0.31;fill-rule:evenodd;stroke:none"/>
<path d="M 33.09,13.31 C 33.09,13.31 32.11,13.18 31.34,13.06 L 29.75,21.5 C 30.38,21.4 31.02,21.27 31.59,21.12 C 32.24,17.7 32.75,15.15 33.09,13.31 z" id="p3480" style="opacity:1;fill:#2a1503;fill-opacity:0.61;fill-rule:evenodd;stroke:none;display:inline"/>
<path d="M 26.84,12.62 L 25.18,21.81 C 25.65,21.81 26.12,21.79 26.59,21.78 L 28.34,12.68 C 27.86,12.65 27.36,12.64 26.84,12.62 z" id="p3482" style="opacity:1;fill:#2a1503;fill-opacity:0.56;fill-rule:evenodd;stroke:none;display:inline"/>
<path d="M 26.56,17.34 L 26.25,19.09 C 26.25,19.09 25.79,18.9 23.68,18.78 L 23.62,21.78 C 26.27,21.89 29.26,21.74 31.59,21.12 L 31.78,20.15 L 30.9,20.18 L 31.21,18.18 C 31.21,18.18 29.74,17.62 28.59,17.46 C 27.44,17.31 26.56,17.34 26.56,17.34 z" id="p3484" style="opacity:1;fill:#531807;fill-opacity:0.67;fill-rule:evenodd;stroke:none;display:inline"/>
<path d="M 27.25,11.4 L 25.53,12.5 L 24.06,21.78 C 24.71,21.8 25.36,21.79 26.03,21.78 L 27.84,12.68 L 29.81,11.65 C 29.03,11.56 28.19,11.47 27.25,11.4 z" id="p3526" style="opacity:1;fill:#f19f29;fill-opacity:0.26;fill-rule:evenodd;stroke:none;display:inline"/>
<path d="M 33.31,12.31 L 32.46,13.28 L 31.06,21.25 C 31.23,21.2 31.42,21.17 31.59,21.12 L 33.31,12.31 z" id="p3528" style="opacity:1;fill:#daad70;fill-opacity:0.26;fill-rule:evenodd;stroke:none;display:inline"/>
<path d="M 25.03,20.53 C 24.59,20.55 24.14,20.63 23.65,20.71 L 23.62,21.78 C 25.75,21.87 28.1,21.79 30.15,21.43 C 29.5,21.16 28.75,20.87 28.21,20.78 C 27.51,20.65 26.41,20.46 25.03,20.53 z" id="p3530" style="opacity:1;fill:#320a03;fill-opacity:0.43;fill-rule:evenodd;stroke:none;display:inline"/>
<path d="M 29.43,15.87 C 29.34,15.88 29.27,15.88 29.21,15.9 C 29.21,15.9 28.38,19.81 28,21.68 C 28.39,21.65 28.77,21.61 29.15,21.56 C 29.39,20.53 30.34,16.31 30.21,16.09 C 30.1,15.91 29.72,15.85 29.43,15.87 z" id="p3532" style="opacity:1;fill:#3a1604;fill-opacity:0.41;fill-rule:evenodd;stroke:none;display:inline"/>
<path d="M 31,11.81 L 29.15,12.75 L 27.53,20.46 L 28.56,17.62 L 29.65,12.75 L 31.59,11.9 C 31.4,11.87 31.21,11.84 31,11.81 z" id="p3524" style="opacity:1;fill:#f19f29;fill-opacity:0.26;fill-rule:evenodd;stroke:none;display:inline"/>
<path d="M 23.59,17.71 C 21.29,17.67 17.13,17.68 14.78,19.37 C 15.3,19.8 17.11,21.12 20.21,21.5 C 23.91,21.94 28.55,22.05 32,20.96 C 32.45,20.82 32.87,20.67 33.25,20.53 C 32.93,18.99 26.74,17.9 23.59,17.71 z" id="p3562" style="opacity:1;fill:#5d3e07;fill-opacity:0.13;fill-rule:evenodd;stroke:none;display:inline"/>
<path d="M 21.96,12.43 C 21.66,12.69 21.56,16 21.56,16.09 C 21.56,16.22 21.43,18.26 21.43,18.9 C 21.43,19.54 21.21,19.47 20.7,19.47 C 20.18,19.47 19.78,19.86 19.78,18.96 C 19.78,18.07 19.68,12.62 19.68,12.62 L 19.31,12.75 L 19.43,21.37 C 19.69,21.42 19.94,21.46 20.21,21.5 C 20.73,21.56 21.29,21.57 21.84,21.62 C 21.88,20.59 22.06,15.86 22.06,15.06 C 22.06,14.16 21.88,12.19 22.65,16.15 C 22.92,17.53 23.29,18.28 23.68,18.68 L 23.68,18.31 C 23.23,17.69 22.79,16.58 22.53,14.53 C 22.31,12.81 22.1,12.31 21.96,12.43 z" id="p3567" style="opacity:1;fill:#5d2807;fill-opacity:0.18;fill-rule:evenodd;stroke:none;display:inline"/>
<path d="M 17.53,13 L 17.09,13.12 C 17.09,13.12 17.28,17.16 17.28,18 C 17.28,18.62 17.22,19.91 17.18,20.71 C 17.37,20.79 17.57,20.86 17.78,20.93 C 17.77,20.37 17.71,16.91 17.65,15.43 C 17.59,13.83 17.53,13 17.53,13 z" id="p3569" style="opacity:1;fill:#5d2807;fill-opacity:0.13;fill-rule:evenodd;stroke:none;display:inline"/>
<path d="M 20.9,17.31 C 19.81,17.31 18.26,17.49 17.7,17.57 C 16.19,17.78 14.68,18.32 14.3,18.64 L 14.53,19.18 C 14.53,19.18 15.92,20.46 18.5,21.15 C 19.68,20.32 22.33,20.25 22.59,20.25 C 22.91,20.25 22.9,17.37 22.9,17.37 C 22.9,17.37 21.99,17.3 20.9,17.31 z" id="p3582" style="opacity:1;fill:#fae648;fill-opacity:0.54;fill-rule:evenodd;stroke:none;display:inline"/>
<path d="M 12.87,12.75 L 14.46,19.21 L 14.53,19.18 C 14.53,19.18 15.05,19.66 16.03,20.18 C 15.58,17.69 14.84,13.78 14.65,13.59 C 14.4,13.33 12.87,12.87 12.87,12.75 z" id="p3338" style="opacity:1;fill:#925720;fill-opacity:0.67;fill-rule:evenodd;stroke:none;display:inline"/>
<path d="M 8.08,16.12 C 8.51,16.84 9.22,19.74 9.99,20.97 C 10.75,22.21 12.41,23.5 13.08,24.54 C 13.74,25.59 15.12,28.97 16.22,29.92 C 17.31,30.87 19.88,32.58 20.17,32.68 C 20.45,32.77 20.45,35.06 20.45,35.06 C 20.45,35.06 18.6,33.87 17.98,32.96 C 17.36,32.06 17.07,31.15 16.22,30.77 C 15.36,30.39 13.03,26.4 12.46,25.4 C 11.89,24.4 11.37,23.4 9.94,21.97 C 9.51,21.54 7.8,16.03 7.8,16.03 L 8.08,16.12 z" id="p3830" style="opacity:1;fill:#4a2b1a;fill-opacity:0.3;fill-rule:evenodd;stroke:none;display:inline"/>
<path d="M 7.75,15.98 C 7.75,15.98 9.51,21.4 9.79,22.02 C 10.08,22.64 12.13,24.83 12.55,25.83 C 12.98,26.83 14.27,29.92 15.12,30.25 C 15.98,30.58 17.93,32.15 18.26,32.63 C 18.6,33.1 18.64,33.96 19.31,34.29 C 19.98,34.63 20.83,34.63 20.83,34.63 L 20.64,32.68 C 20.64,32.68 17.26,32.3 15.65,29.35 C 14.03,26.4 12.93,25.07 11.03,22.54 C 9.13,20.02 7.89,15.46 7.89,15.46 L 7.75,15.98 z" id="p3833" style="opacity:1;fill:#7c4818;fill-opacity:0.33;fill-rule:evenodd;stroke:none"/>
<path d="M 39,22.34 C 38.73,22.38 38.54,22.55 38.5,22.81 C 38.38,23.49 38.05,25.12 37.65,25.12 C 37.25,25.12 36.81,25.48 36.46,25.03 C 36.12,24.57 35.56,24.86 35.21,25.37 C 34.87,25.88 34.92,26.48 34.12,26.65 C 33.32,26.82 29.13,27.81 26.96,28.78 C 24.8,29.74 23.66,30.38 22.75,30.43 C 21.83,30.49 20.12,30.3 19.15,30.81 C 18.18,31.32 16.38,33.88 14.9,33.93 C 13.69,33.98 11.54,32.99 9.78,30.65 C 10.8,35.23 11.65,39.06 11.71,39.28 C 11.83,39.65 12.92,40.99 15.56,42.03 C 15.13,39.53 15.08,36.93 16.28,36.62 C 18.04,36.16 18.98,36.74 19.5,36.68 C 20.01,36.63 31.9,32.18 31.9,32.18 L 37.4,30.25 C 38.31,26.9 38.51,26.24 39.56,22.4 C 39.34,22.35 39.16,22.31 39,22.34 z" id="p3870" style="opacity:1;fill:#a1652d;fill-opacity:0.31;fill-rule:evenodd;stroke:none;display:inline"/>
<path d="M 19.75,31.34 C 18.41,31.31 16.36,31.3 15.11,33.38 C 15.55,36.74 16.07,40.04 16.68,42.36 C 17.72,42.64 19.5,43.07 20.9,43.18 C 19.81,40.89 18.63,37.66 21.34,37.4 C 24.87,37.06 22.41,32.41 22.46,32.46 C 21.74,31.84 20.78,31.36 19.75,31.34 z" id="p3876" style="opacity:1;fill:#885320;fill-opacity:0.31;fill-rule:evenodd;stroke:none;display:inline"/>
<path d="M 34.65,11.22 C 34.1,11.77 33.99,11.72 33.74,13.19 C 33.49,14.65 33.34,15.01 33.39,15.26 C 33.44,15.51 33.99,15.61 34.35,15.76 C 34.7,15.91 34.95,16.42 35.21,16.27 C 35.46,16.12 35.46,13.69 35.66,13.14 C 35.86,12.58 36.42,11.77 36.57,11.52 C 36.72,11.27 36.02,10.26 36.02,10.26 L 34.65,11.22 z" id="p3988" style="opacity:1;fill:#411f03;fill-opacity:0.16;fill-rule:evenodd;stroke:none;display:inline"/>
<path d="M 36.47,11.57 C 35.91,12.23 35.76,12.18 35.61,12.83 C 35.46,13.49 35.41,15.01 35.21,15.11 C 35.01,15.21 34.05,15.01 34.1,14.7 C 34.15,14.4 34.5,11.62 34.8,11.37 C 35.11,11.12 36.02,10.41 36.02,10.41 L 37.03,10.91 L 36.47,11.57 z" id="p3985" style="opacity:1;fill:#411b03;fill-opacity:0.21;fill-rule:evenodd;stroke:none;display:inline"/>
<path d="M 39.48,8.07 C 39.56,6.29 38.23,5.39 37.7,5.04 C 37.06,4.62 35.73,3.68 35.18,3.79" id="p3463" style="opacity:1;fill:none;fill-rule:evenodd;stroke:#e6ce60;stroke-width:0.2;stroke-linecap:butt;stroke-linejoin:miter;stroke-miterlimit:4;stroke-dasharray:none;stroke-opacity:1"/>
<path d="M 36.76,16.73 C 36.84,15.59 39.31,8.09 39.51,8.01 C 39.7,7.93 43.45,7.95 43.45,7.95" id="p3461" style="opacity:1;fill:none;fill-rule:evenodd;stroke:#ecea6f;stroke-width:0.30;stroke-linecap:round;stroke-linejoin:miter;stroke-miterlimit:4;stroke-dasharray:none;stroke-opacity:1"/>
<path d="M 11.79,20.78 C 18.54,24.28 25.87,23.52 26.89,23.46 C 27.91,23.39 32.93,23.16 38.17,20.71 C 41.04,19.38 40.85,17.08 40.85,17.08" id="p3273" style="opacity:1;fill:none;fill-rule:evenodd;stroke:#ffffb1;stroke-width:0.30;stroke-linecap:butt;stroke-linejoin:miter;stroke-miterlimit:4;stroke-dasharray:none;stroke-opacity:1;display:inline"/>
<path d="M 11.67,20.74 C 11.12,17.34 10.36,12.73 10.12,12.37 C 9.87,11.99 8.52,11.67 7.12,10.71 C 6.07,10 5.52,9.44 4.93,7.68" id="p3350" style="opacity:1;fill:none;fill-opacity:0.41;fill-rule:evenodd;stroke:#fefa42;stroke-width:0.30;stroke-linecap:round;stroke-linejoin:miter;stroke-miterlimit:4;stroke-dasharray:none;stroke-opacity:0.86;display:inline"/>
<path d="M 10.01,12.26 C 11.02,12.15 12.63,11.65 12.63,11.65" id="p3353" style="opacity:1;fill:none;fill-rule:evenodd;stroke:#ffff57;stroke-width:0.30;stroke-linecap:butt;stroke-linejoin:miter;stroke-miterlimit:4;stroke-dasharray:none;stroke-opacity:0.95;display:inline"/>
<path d="M 4.9,7.46 C 4.9,9.11 11.53,38.63 11.72,39.26 C 11.91,39.9 14.85,43.34 23.39,43.28 C 31.93,43.21 34.54,40.73 34.67,40.28 C 34.8,39.84 43.4,8.29 43.46,7.97 C 43.53,7.65 42.51,5.8 41.04,4.59 C 39.58,3.38 37.79,2.87 37.41,2.87 C 37.03,2.87 35.24,3.38 35.11,3.63 C 34.99,3.89 33.14,12.24 33.14,12.24 C 33.14,12.24 28.1,11.03 22.24,11.35 C 16.38,11.66 12.93,12.68 12.93,12.68 C 12.93,12.68 12.81,11.66 12.49,11.47 C 12.17,11.28 10.38,10.64 9.68,9.82 C 8.98,8.99 8.66,7.46 8.34,7.33 C 8.03,7.2 4.84,7.33 4.9,7.46 z" id="stroke01" style="opacity:1;fill:none;fill-opacity:1;fill-rule:evenodd;stroke:#392400;stroke-width:0.5;stroke-linecap:butt;stroke-linejoin:miter;stroke-miterlimit:4;stroke-dasharray:none;stroke-opacity:1"/>
<path d="M 15.69,13.5 C 17.88,12.83 20.68,12.59 22.23,12.54" id="p3564" style="opacity:1;fill:none;fill-opacity:0.33;fill-rule:evenodd;stroke:#f5f1ba;stroke-width:0.2;stroke-linecap:round;stroke-linejoin:miter;stroke-miterlimit:4;stroke-dasharray:none;stroke-opacity:0.93;display:inline"/>
<path d="M 7.67,14.65 C 8.01,15.46 8.16,16.16 8.02,16.20 C 7.87,16.25 7.48,15.63 7.15,14.81 C 6.81,14.00 6.66,13.31 6.80,13.26 C 6.95,13.21 7.34,13.84 7.67,14.65 L 7.67,14.65 z" id="p3723" style="opacity:1;fill:#170f04;fill-opacity:0.92;fill-rule:evenodd;stroke:none;marker:none;visibility:visible;display:inline;overflow:visible;enable-background:accumulate"/>
<path d="M 42.39,12.14 C 42.18,12.89 42.07,13.46 42,13.75 C 42.13,14.05 42.27,14.54 42.4,15.09 C 42.66,16.18 42.83,17.33 42.96,17.87 C 42.97,17.88 42.9,18.62 42.71,19.25 C 42.53,19.87 42.23,20.51 42.18,20.59 C 42.08,20.76 42.06,20.87 42,21.06 C 41.93,21.24 41.84,21.48 41.75,21.75 C 41.56,22.28 41.31,22.98 41.03,23.75 C 40.46,25.27 39.75,27.06 39,28.37 L 40.28,29.12 C 41.12,27.66 41.86,25.81 42.43,24.25 C 42.72,23.46 43,22.78 43.18,22.25 C 43.28,21.98 43.34,21.75 43.4,21.59 C 43.46,21.43 43.53,21.28 43.5,21.34 C 43.71,20.97 43.94,20.4 44.15,19.68 C 44.37,18.97 44.59,18.26 44.4,17.5 C 44.34,17.27 44.15,15.96 43.87,14.78 C 43.73,14.19 43.59,13.6 43.37,13.12 C 43.26,12.88 43.12,12.67 42.93,12.46 C 42.74,12.26 42.62,12.22 42.39,12.14 z" id="p3861" style="opacity:1;fill:#e6c486;fill-opacity:1;fill-rule:evenodd;stroke:none"/>
<path d="M 42,13.75 C 42.13,14.05 42.27,14.54 42.4,15.09 C 42.46,15.35 42.51,15.58 42.56,15.84 C 42.71,16.01 42.89,16.17 43.18,16.34 C 43.67,16.62 44.09,17.15 44.43,17.75 C 44.42,17.66 44.42,17.58 44.4,17.5 C 44.35,17.28 44.18,16.13 43.93,15.03 C 43.27,14.43 42.58,13.95 42,13.75 z M 42.93,18 C 42.92,18.16 42.88,18.71 42.71,19.25 C 42.7,19.3 42.67,19.35 42.65,19.4 C 42.89,19.65 43.17,19.92 43.31,20.28 C 43.37,20.44 43.5,20.78 43.62,21.06 C 43.78,20.72 43.96,20.3 44.12,19.78 C 44.12,19.77 44.12,19.75 44.12,19.75 C 43.94,19.04 43.69,18.47 43.37,18.28 C 43.22,18.19 43.08,18.09 42.93,18 z M 41.62,22.06 C 41.45,22.55 41.26,23.1 41.03,23.75 C 40.46,25.27 39.75,27.06 39,28.37 L 40.28,29.12 C 40.64,28.5 40.99,27.8 41.31,27.09 C 41.35,26.63 41.42,26.2 41.56,25.87 C 41.95,24.91 42.56,23.54 41.62,22.06 z" id="p3890" style="opacity:1;fill:#74471b;fill-opacity:0.6;fill-rule:evenodd;stroke:none;display:inline"/>
<path d="M 42.09,13.4 C 42.07,13.49 42.01,13.68 42,13.75 C 42.13,14.05 42.27,14.54 42.4,15.09 C 42.67,16.09 42.8,17.15 42.93,18.15 C 43.9,17.15 43.24,16.56 43.03,15.76 C 42.8,14.9 43.5,15.8 43.4,15.31 C 43.32,14.89 42.97,14.11 42.09,13.4 z" id="p3902" style="opacity:1;fill:#4d1e03;fill-opacity:0.8;fill-rule:evenodd;stroke:none;display:inline"/>
<path d="M 41.5,22.43 C 41.35,22.85 41.21,23.24 41.03,23.75 C 40.73,24.55 40.39,25.43 40.03,26.28 C 40.17,26.19 40.3,26.12 40.37,26 C 40.6,25.57 41.29,26.23 41.74,26.11 C 41.8,26.09 41.88,25.89 41.86,25.75 C 41.8,25.29 41.4,25.21 41.16,24.85 C 40.93,24.48 41.64,24.7 41.9,24.28 C 42.1,23.96 42.01,23.21 41.5,22.43 z" id="p3904" style="opacity:1;fill:#4d1e03;fill-opacity:0.8;fill-rule:evenodd;stroke:none;display:inline"/>
<path d="M 42.15,20.68 C 42.09,20.81 42.05,20.91 42,21.06 C 41.93,21.24 41.84,21.48 41.75,21.75 C 41.72,21.82 41.68,21.95 41.65,22.03 C 41.99,22.36 42.44,22.68 42.93,22.9 C 43.01,22.69 43.12,22.42 43.18,22.25 C 43.21,22.16 43.22,22.1 43.25,22.03 C 43.1,21.93 42.97,21.81 42.84,21.75 C 42.39,21.52 42.24,21.18 42.15,20.68 z" id="p3906" style="opacity:1;fill:#3e2212;fill-opacity:0.8;fill-rule:evenodd;stroke:none;display:inline"/>
<path d="M 42,13.75 C 42.13,14.05 42.27,14.54 42.4,15.09 C 42.66,16.18 42.83,17.33 42.96,17.87 C 42.97,17.88 42.9,18.62 42.71,19.25 C 42.53,19.87 42.23,20.51 42.18,20.59 C 42.08,20.76 42.06,20.87 42,21.06 C 41.93,21.24 41.84,21.48 41.75,21.75 C 41.56,22.28 41.31,22.98 41.03,23.75 C 40.46,25.27 39.75,27.06 39,28.37 L 40.28,29.12 C 41.12,27.66 41.86,25.81 42.43,24.25 C 42.72,23.46 43,22.78 43.18,22.25 C 43.28,21.98 43.34,21.75 43.4,21.59 C 43.46,21.43 43.53,21.28 43.5,21.34 C 43.71,20.97 43.94,20.4 44.15,19.68 C 44.37,18.97 44.59,18.26 44.4,17.5 C 44.34,17.27 44.15,15.96 43.87,14.78 C 43.73,14.19 43.59,13.6 43.37,13.12 C 43.26,12.88 43.12,12.67 42.93,12.46 C 42.74,12.26 42.61,12.14 42.39,12.1" id="stroke03" style="opacity:1;fill:none;fill-opacity:1;fill-rule:evenodd;stroke:#553d11;stroke-width:0.40;stroke-linecap:butt;stroke-linejoin:miter;stroke-miterlimit:4;stroke-dasharray:none;stroke-opacity:1;display:inline"/>
<path d="M 42.08,15.09 C 42.03,15.74 41.72,17.83 42.36,18.81 C 43.01,19.79 43.76,19.81 43.93,20.51 C 44.1,21.21 44.57,22.19 44.07,22.5" id="p3923" style="opacity:1;fill:none;fill-rule:evenodd;stroke:#c18a38;stroke-width:0.2;stroke-linecap:round;stroke-linejoin:miter;stroke-miterlimit:4;stroke-dasharray:none;stroke-opacity:1"/>
<path d="M 41.79,14.43 C 42.05,15.65 43.42,15.95 43.94,16.6 C 44.45,17.24 44.97,18.21 44.33,19.69 C 43.68,21.17 43.04,21.81 43.04,21.81" id="p3896" style="opacity:1;fill:none;fill-rule:evenodd;stroke:#38230a;stroke-width:0.40;stroke-linecap:round;stroke-linejoin:miter;stroke-miterlimit:4;stroke-dasharray:none;stroke-opacity:1;display:inline"/>
<path d="M 39.82,29.4 C 41.43,28.05 41.49,26.44 41.24,25.6 C 40.98,24.77 43.42,24.7 43.68,23.8 C 43.94,22.9 42.85,23.29 42.07,22.84 C 41.3,22.39 41.17,21.81 41.94,21.36" id="p3893" style="opacity:1;fill:none;fill-rule:evenodd;stroke:#7d4316;stroke-width:0.30;stroke-linecap:round;stroke-linejoin:miter;stroke-miterlimit:4;stroke-dasharray:none;stroke-opacity:1;display:inline"/>
<path d="M 20.63,36.64 C 21.83,40.26 22.62,39.51 22.98,39.51 C 23.33,39.51 23.99,39.38 24.3,39.16 C 24.61,38.94 24.79,38.49 25.27,38.36 C 25.76,38.23 29.34,37.26 32.17,36.33 C 35,35.4 38.44,33.5 38.93,33.41 C 39.42,33.32 39.46,33.54 39.64,33.54 C 39.81,33.54 41.36,33.54 41.67,33.32 C 41.98,33.1 42.07,32.92 42.11,32.66 C 42.16,32.39 42.02,30.23 41.58,28.95 C 41.14,27.67 40.21,25.68 39.02,25.5 C 37.83,25.32 37.34,26.87 36.94,26.96 C 36.54,27.05 33.1,27.8 30.71,28.46 C 28.32,29.12 23.55,31.47 23.29,31.51 C 23.02,31.55 21.08,31.51 20.55,31.91 C 20.01,32.31 19.71,33.41 20.63,36.64 z" id="p3591" style="opacity:1;fill:#eae720;fill-opacity:1;fill-rule:evenodd;stroke:none;display:inline"/>
<path d="M 22.37,31.56 C 21.68,31.59 20.9,31.65 20.56,31.9 C 20.03,32.3 19.69,33.43 20.62,36.65 C 21.81,40.28 22.61,39.5 22.96,39.5 C 23.32,39.5 24,39.37 24.31,39.15 C 24.49,39.02 24.62,38.8 24.81,38.62 C 25.07,37.42 25.03,35.84 24.68,34.75 C 24.23,33.31 23.45,32.05 22.37,31.56 z" id="p3612" style="opacity:1;fill:#dcb10d;fill-opacity:0.56;fill-rule:evenodd;stroke:none;display:inline"/>
<path d="M 20.37,32.12 C 19.98,32.65 19.82,33.86 20.62,36.65 C 21.68,39.86 22.41,39.62 22.81,39.53 C 23.17,38.93 23.1,37.92 22.28,35.4 C 21.47,32.94 20.94,32.28 20.37,32.12 z" id="p3602" style="opacity:1;fill:#714e33;fill-opacity:0.56;fill-rule:evenodd;stroke:none;display:inline"/>
<path d="M 38.59,25.5 C 37.69,25.67 37.28,26.89 36.93,26.96 C 36.91,26.97 36.75,27.02 36.71,27.03 C 37.88,27.29 38.58,28.29 39,29.28 C 39.44,30.33 39.99,32.83 39.43,33.43 C 39.51,33.47 39.57,33.56 39.65,33.56 C 39.83,33.56 41.37,33.53 41.68,33.31 C 41.99,33.09 42.08,32.92 42.12,32.65 C 42.16,32.39 42.03,30.21 41.59,28.93 C 41.15,27.65 40.22,25.67 39.03,25.5 C 38.88,25.47 38.72,25.47 38.59,25.5 z" id="p3604" style="opacity:1;fill:#ceaf02;fill-opacity:0.56;fill-rule:evenodd;stroke:none;display:inline"/>
<path d="M 41.54,29.71 C 41.60,30.07 41.42,30.36 41.14,30.36 C 40.87,30.36 40.61,30.07 40.55,29.71 C 40.50,29.34 40.67,29.05 40.95,29.05 C 41.22,29.05 41.49,29.34 41.54,29.71 z" id="p3606" style="opacity:1;fill:#f3f1cc;fill-opacity:0.73;fill-rule:evenodd;stroke:none;marker:none;visibility:visible;display:inline;overflow:visible;enable-background:accumulate"/>
<path d="M 37.73,31.65 C 37.73,31.89 36.77,32.31 35.59,32.61 C 34.41,32.90 33.46,32.95 33.46,32.72 C 33.46,32.49 34.41,32.06 35.59,31.77 C 36.77,31.47 37.73,31.42 37.73,31.65 L 37.73,31.65 z" id="p3608" style="opacity:1;fill:#f3f1cc;fill-opacity:0.58;fill-rule:evenodd;stroke:none;marker:none;visibility:visible;display:inline;overflow:visible;enable-background:accumulate"/>
<path d="M 38.18,31.00 C 38.24,31.31 37.89,31.65 37.40,31.74 C 36.90,31.84 36.45,31.66 36.39,31.35 C 36.33,31.03 36.68,30.70 37.17,30.60 C 37.67,30.50 38.12,30.68 38.18,31.00 L 38.18,31.00 z" id="p3610" style="opacity:1;fill:#f3f1cc;fill-opacity:0.76;fill-rule:evenodd;stroke:none;marker:none;visibility:visible;display:inline;overflow:visible;enable-background:accumulate"/>
<path d="M 42.06,31.78 C 40.87,32.19 39.94,32.07 39.62,32.03 C 39.19,31.97 34.15,34.27 32.06,34.96 C 29.97,35.66 25.34,36.94 24.81,37.15 C 24.27,37.37 22.83,37.7 23,37.96 C 23.11,38.15 23.02,38.78 22.84,39.53 C 22.88,39.52 22.93,39.5 22.96,39.5 C 23.32,39.5 24,39.37 24.31,39.15 C 24.62,38.93 24.79,38.5 25.28,38.37 C 25.76,38.24 29.35,37.27 32.18,36.34 C 35.01,35.41 38.45,33.49 38.93,33.4 C 39.42,33.31 39.47,33.56 39.65,33.56 C 39.83,33.56 41.37,33.53 41.68,33.31 C 41.99,33.09 42.08,32.92 42.12,32.65 C 42.14,32.56 42.12,32.21 42.09,31.78 C 42.08,31.78 42.07,31.77 42.06,31.78 z" id="p3650" style="opacity:1;fill:#8c5b19;fill-opacity:0.21;fill-rule:evenodd;stroke:none;display:inline"/>
<path d="M 38.59,25.5 C 37.69,25.67 37.28,26.89 36.93,26.96 C 36.53,27.05 33.1,27.8 30.71,28.46 C 28.33,29.13 23.54,31.45 23.28,31.5 C 23.01,31.54 21.09,31.5 20.56,31.9 C 20.51,31.93 20.47,31.98 20.43,32.03 L 20.46,32.06 L 21.12,32.71 C 21.82,32.71 22.66,32.78 23.46,32.62 C 24.27,32.46 26.11,31.17 29.43,30.15 C 32.76,29.13 37.52,28.25 38.21,27.93 C 38.91,27.61 39.07,26.22 39.93,26.28 C 40,26.28 40.09,26.25 40.18,26.25 C 39.84,25.85 39.44,25.56 39.03,25.5 C 38.88,25.47 38.72,25.47 38.59,25.5 z" id="p3652" style="opacity:1;fill:#ae711f;fill-opacity:0.41;fill-rule:evenodd;stroke:none;display:inline"/>
<path d="M 21.47,35.62 C 21.68,36.48 21.69,37.21 21.47,37.27 C 21.26,37.32 20.92,36.67 20.70,35.82 C 20.49,34.96 20.49,34.23 20.70,34.17 C 20.91,34.12 21.26,34.77 21.47,35.62 z" id="p3729" style="opacity:1;fill:#170f04;fill-opacity:0.92;fill-rule:evenodd;stroke:none;marker:none;visibility:visible;display:inline;overflow:visible;enable-background:accumulate"/>
<path d="M 20.37,32.12 C 19.98,32.65 19.82,33.86 20.62,36.65 C 21.68,39.86 22.41,39.62 22.81,39.53 C 23.17,38.93 23.1,37.92 22.28,35.4 C 21.47,32.94 20.94,32.28 20.37,32.12 z" id="p3643" style="opacity:1;fill:none;fill-opacity:0.56;fill-rule:evenodd;stroke:#c39029;stroke-width:0.30;stroke-linecap:butt;stroke-linejoin:miter;stroke-miterlimit:4;stroke-dasharray:none;stroke-opacity:1;display:inline"/>
<path d="M 20.63,36.64 C 21.83,40.26 22.35,39.52 22.92,39.56 C 23.49,39.61 24.43,38.77 24.95,38.63 C 25.49,38.49 29.34,37.26 32.17,36.33 C 34.73,35.59 38.4,33.27 39.64,33.54 C 40.82,33.81 41.52,33.53 41.9,33.03 C 42.27,32.54 42.02,30.23 41.58,28.95 C 41.14,27.67 40.21,25.68 39.02,25.5 C 37.83,25.32 37.34,26.87 36.94,26.96 C 36.54,27.05 33.1,27.8 30.71,28.46 C 28.32,29.12 23.55,31.47 23.29,31.51 C 23.02,31.55 21.08,31.51 20.55,31.91 C 20.01,32.31 19.71,33.41 20.63,36.64 z" id="stroke02" style="opacity:1;fill:none;fill-opacity:1;fill-rule:evenodd;stroke:#644303;stroke-width:0.5;stroke-linecap:butt;stroke-linejoin:miter;stroke-miterlimit:4;stroke-dasharray:none;stroke-opacity:1;display:inline"/>
<path d="M 41.5,15.25 C 42.07,13.12 43.03,9.59 43.15,9.12" id="p3863" style="opacity:1;fill:none;fill-opacity:1;fill-rule:evenodd;stroke:#392400;stroke-width:0.5;stroke-linecap:butt;stroke-linejoin:miter;stroke-miterlimit:4;stroke-dasharray:none;stroke-opacity:1;display:inline"/>
<path d="M 24.25,15.75 C 17.85,15.75 14.62,16.76 14.04,17.81 L 14.53,19.18 C 14.53,19.18 16.52,21.05 20.21,21.5 C 23.91,21.94 28.55,22.05 32,20.96 C 34.03,20.32 35.15,19.66 35.78,19.15 C 35.44,17.25 30.42,15.75 24.25,15.75 z" id="p4061" style="opacity:1;fill:#98dbc8;fill-opacity:0.38;fill-rule:evenodd;stroke:none;marker:none;visibility:visible;display:inline;overflow:visible;enable-background:accumulate"/>
<path d="M 24.25,15.75 C 17.85,15.75 14.61,16.76 14.03,17.81 L 14.53,19.18 C 14.53,19.18 14.61,19.23 14.62,19.25 C 16.55,18.4 19.89,17.84 23.68,17.84 C 28.7,17.84 32.9,18.82 34.12,20.15 C 34.88,19.79 35.42,19.44 35.78,19.15 C 35.44,17.25 30.42,15.75 24.25,15.75 z" id="p4073" style="opacity:1;fill:#dfe5b3;fill-opacity:0.15;fill-rule:evenodd;stroke:none;marker:none;visibility:visible;display:inline;overflow:visible;enable-background:accumulate"/>
<path d="M 35.78,19.15 C 35.44,17.25 30.42,15.75 24.25,15.75 C 17.85,15.75 14.62,16.76 14.04,17.81" id="p4078" style="opacity:1;fill:none;fill-opacity:0.38;fill-rule:evenodd;stroke:#dceeee;stroke-width:0.18;stroke-linecap:round;stroke-linejoin:round;marker:none;stroke-miterlimit:4;stroke-dasharray:none;stroke-dashoffset:0;stroke-opacity:0.47;visibility:visible;display:inline;overflow:visible;enable-background:accumulate"/>
<path d="M 7.49,14.4 C 6.54,14.41 6.33,15.06 6.4,16.09 C 6.32,17.49 6.53,18.89 6.87,20.25 C 7.6,21.84 8.83,23.12 9.81,24.56 C 11.75,27.21 13.51,30.02 15.62,32.56 C 17.19,34.3 19.26,36.03 21.75,36 C 21.82,35.97 21.88,35.99 21.68,35.43 C 21.46,34.8 21.58,34.99 21,34.78 C 18.97,34.43 17.47,32.86 16.18,31.37 C 13.66,28.08 11.42,24.6 8.9,21.31 C 8.33,20.56 7.81,19.72 7.78,18.75 C 7.67,17.73 7.59,16.6 7.86,15.6 C 8.03,15.56 7.83,14.73 7.49,14.4 z M 14.16,18.54 C 14.89,19.69 14.49,19.13 15.47,19.9 C 15.88,20.21 16.14,20.28 16.38,20.31 C 16.56,19.85 16.56,19.45 15.93,19.53 C 15.03,18.39 14.48,16.94 13.55,15.82 C 13.73,16.45 13.93,17.59 14.16,18.54 z" id="p3733" style="opacity:1;fill:#e8e893;fill-opacity:1;fill-rule:evenodd;stroke:none"/>
<path d="M 13,27 C 13.11,27.73 13.16,28.48 13.06,29.18 C 13.21,29.39 13.37,29.6 13.53,29.81 C 13.56,29.21 13.57,28.5 13.5,27.68 C 13.33,27.45 13.16,27.23 13,27 z M 14,28.4 C 14.19,29.3 14.37,30.22 14.46,31.09 C 14.75,31.47 15.04,31.84 15.34,32.21 C 15.12,31.29 14.98,30.4 15,29.75 C 14.67,29.3 14.32,28.86 14,28.4 z" id="p3819" style="opacity:1;fill:#793209;fill-opacity:0.76;fill-rule:evenodd;stroke:none;display:inline"/>
<path d="M 19.3,34.48 C 20,33.78 20.13,33.26 19.94,33 C 19.75,32.75 19.1,32.62 19.1,32.62 C 19.1,32.62 19.3,31.65 18.4,30.69 C 17.5,29.72 15.44,30.62 15.44,30.62" id="p3737" style="opacity:1;fill:none;fill-rule:evenodd;stroke:#dfc183;stroke-width:0.30;stroke-linecap:butt;stroke-linejoin:miter;stroke-miterlimit:4;stroke-dasharray:none;stroke-opacity:1;display:inline"/>
<path d="M 14.92,29.98 C 15.63,28.31 15.11,27.34 15.11,27.34" id="p3739" style="opacity:1;fill:none;fill-rule:evenodd;stroke:#7a3d24;stroke-width:0.40;stroke-linecap:round;stroke-linejoin:miter;stroke-miterlimit:4;stroke-dasharray:none;stroke-opacity:1;display:inline"/>
<path d="M 21.5,35 C 21.08,34.85 20.52,35.32 19.75,35.9 C 18.98,36.48 15.63,33.65 14.99,32.49 C 14.34,31.33 12.35,29.14 11.96,28.89 C 11.58,28.63 12.03,27.02 12.73,26.89 C 13.44,26.76 14.34,27.28 14.73,28.76 C 15.11,30.24 14.86,31.07 15.37,31.07 C 15.89,31.07 15.63,29.92 16.14,29.59 C 16.66,29.27 16.66,29.01 17.37,29.34" id="p3765" style="opacity:1;fill:none;fill-rule:evenodd;stroke:#5e2e02;stroke-width:0.2;stroke-linecap:butt;stroke-linejoin:miter;stroke-miterlimit:4;stroke-dasharray:none;stroke-opacity:1;display:inline"/>
<path d="M 7.58,14.46 C 6.67,14.52 6.34,15.09 6.4,16.09 C 6.32,17.49 6.53,18.89 6.87,20.25 C 7.6,21.84 8.83,23.12 9.81,24.56 C 10.62,25.67 11.4,26.83 12.18,27.96 C 12.03,26.99 11.86,26.21 11.37,25.28 C 10.66,23.93 7.45,19.43 7,18.53 C 6.55,17.65 6.92,16.2 7.58,14.46 z M 16.25,33.21 C 17.73,34.71 19.66,36.02 21.83,35.99 C 21.77,35.74 21.73,35.66 21.63,35.2 C 21.25,35.52 21.37,35.43 21.03,35.46 C 20.34,35.52 17.61,33.98 16.25,33.21 z" id="p3767" style="opacity:1;fill:#5d2807;fill-opacity:0.56;fill-rule:evenodd;stroke:none;display:inline"/>
<path d="M 10.06,23.53 C 10.01,23.56 9.98,23.66 9.96,23.81 C 9.84,24.05 10.27,24.5 10.28,25.21 C 10.69,25.79 11.09,26.38 11.5,26.96 C 11.51,26.64 11.48,26.32 11.43,26.12 C 11.33,25.71 10.38,23.32 10.06,23.53 z" id="p3811" style="opacity:1;fill:#431c05;fill-opacity:0.76;fill-rule:evenodd;stroke:none"/>
<path d="M 6.46,18.09 C 6.55,18.81 6.69,19.53 6.87,20.25 C 7.44,21.5 8.32,22.55 9.15,23.65 C 9.06,22.66 8.49,21.63 8.03,20.96 C 7.56,20.3 7.04,19.64 6.46,18.09 z" id="p3809" style="opacity:1;fill:#431c05;fill-opacity:0.76;fill-rule:evenodd;stroke:none"/>
<path d="M 15.06,18.81 C 14.85,18.83 14.67,18.93 14.53,19.12 C 14.77,19.49 14.73,19.33 15.46,19.9 C 15.65,20.04 15.8,20.12 15.93,20.18 C 16.06,19.94 16.15,19.75 16.15,19.56 C 16.08,19.55 16.03,19.51 15.93,19.53 C 15.77,19.32 15.64,19.09 15.5,18.87 C 15.36,18.83 15.2,18.79 15.06,18.81 z" id="p3839" style="opacity:1;fill:#563210;fill-opacity:0.76;fill-rule:evenodd;stroke:none"/>
<path d="M 13.56,15.81 C 13.68,16.23 13.79,16.89 13.93,17.56 C 14.21,17.61 14.47,17.62 14.65,17.53 C 14.31,16.93 13.99,16.32 13.56,15.81 z" id="p3841" style="opacity:1;fill:#563210;fill-opacity:0.76;fill-rule:evenodd;stroke:none"/>
<path d="M 15.65,19.12 C 15.41,19.19 15.15,19.3 14.84,19.46 C 14.95,19.54 15.06,19.58 15.46,19.9 C 15.87,20.21 16.13,20.28 16.37,20.31 C 16.54,19.84 16.56,19.45 15.93,19.53 C 15.83,19.4 15.75,19.25 15.65,19.12 z" id="p3849" style="opacity:1;fill:#562810;fill-opacity:0.76;fill-rule:evenodd;stroke:none;display:inline"/>
<path d="M 16.4,20.25 C 16.57,19.78 16.56,19.45 15.93,19.53 C 15.03,18.39 14.58,16.95 13.65,15.84 M 7.46,14.41 C 6.52,14.42 6.33,15.06 6.4,16.09 C 6.32,17.49 6.53,18.89 6.87,20.25 C 7.6,21.84 8.83,23.12 9.81,24.56 C 11.75,27.21 13.51,30.02 15.62,32.56 C 17.19,34.3 19.26,36.03 21.75,36 L 21.34,34.87 C 19.31,34.52 17.47,32.86 16.18,31.37 C 13.66,28.08 11.42,24.6 8.9,21.31 C 8.33,20.56 7.81,19.72 7.78,18.75 C 7.65,17.63 7.46,15.67 7.91,15.64" id="p3783" style="opacity:1;fill:none;fill-opacity:1;fill-rule:evenodd;stroke:#724525;stroke-width:0.30;stroke-linecap:round;stroke-linejoin:miter;stroke-miterlimit:4;stroke-dasharray:none;stroke-opacity:1;display:inline"/>
<path d="M 7.84,15.12 C 6.3,17.05 6.69,17.82 7.07,18.46 C 7.46,19.11 9.45,21.62 9.71,22.32 C 9.97,23.03 11.64,28.69 12.41,29.27 C 13.18,29.85 17.95,31.65 18.4,32.62 C 18.85,33.58 18.2,35.58 19.81,35.51 C 21.42,35.45 21.7,35.38 21.7,35.38" id="p3743" style="opacity:1;fill:none;fill-rule:evenodd;stroke:#e0cd67;stroke-width:0.30;stroke-linecap:butt;stroke-linejoin:miter;stroke-miterlimit:4;stroke-dasharray:none;stroke-opacity:1;display:inline"/>
<path d="M 7.38,14.26 C 6.35,14.71 6.69,15.63 6.75,16.02 C 6.82,16.4 8.1,18.66 8.1,19.3 C 8.1,19.94 7.46,21.49 7.72,22 C 7.97,22.52 8.68,21.74 9.9,22.71 C 11.13,23.67 12.22,25.28 12.16,25.73 C 12.09,26.18 11.06,27.15 11.32,27.6 C 11.58,28.05 13.83,28.89 14.6,29.53 C 15.37,30.17 16.21,33.26 17.43,34.48 C 18.65,35.71 20.48,36.07 21.23,35.51 C 21.37,35.4 21.49,35.33 21.49,35.33" id="p3735" style="opacity:1;fill:none;fill-rule:evenodd;stroke:#6b3c16;stroke-width:0.40;stroke-linecap:round;stroke-linejoin:miter;stroke-miterlimit:4;stroke-dasharray:none;stroke-opacity:1;display:inline"/>
<path d="M 6.82,16.34 C 7.65,17.82 8.55,18.4 9.26,18.85" id="p3741" style="opacity:1;fill:none;fill-rule:evenodd;stroke:#694533;stroke-width:0.30;stroke-linecap:round;stroke-linejoin:miter;stroke-miterlimit:4;stroke-dasharray:none;stroke-opacity:1;display:inline"/>
<path d="M 20.71,34.21 C 20.92,34.16 21.26,34.79 21.47,35.62 C 21.68,36.46 21.68,37.18 21.47,37.24" id="p3785" style="opacity:1;fill:none;fill-opacity:0.92;fill-rule:evenodd;stroke:#3f210b;stroke-width:0.18;stroke-linecap:round;stroke-linejoin:round;marker:none;stroke-miterlimit:4;stroke-dasharray:none;stroke-dashoffset:0;stroke-opacity:1;visibility:visible;display:inline;overflow:visible;enable-background:accumulate"/>
<path d="M 6.81,13.28 C 6.96,13.23 7.34,13.85 7.67,14.65 C 8.00,15.45 8.15,16.13 8.01,16.17" id="p3804" style="opacity:1;fill:none;fill-opacity:0.92;fill-rule:evenodd;stroke:#251407;stroke-width:0.19;stroke-linecap:round;stroke-linejoin:round;marker:none;stroke-miterlimit:4;stroke-dasharray:none;stroke-dashoffset:0;stroke-opacity:1;visibility:visible;display:inline;overflow:visible;enable-background:accumulate"/>
<path d="M 12.8,12.7 L 14.41,19.22" id="p3363" style="opacity:1;fill:none;fill-rule:evenodd;stroke:#c4a332;stroke-width:0.30;stroke-linecap:butt;stroke-linejoin:miter;stroke-miterlimit:4;stroke-dasharray:none;stroke-opacity:1;display:inline"/>
<path d="M 40.71,17.09 C 39.93,16.7 38.52,16.61 37.46,16.59 C 37.16,16.6 36.96,16.64 36.9,16.65 C 36.65,16.71 36.59,17.99 36.46,18.37 C 36.34,18.75 35.44,19.88 32,20.96 C 28.55,22.05 23.91,21.94 20.21,21.5 C 16.52,21.05 14.53,19.18 14.53,19.18 L 11.9,20.65" id="p3436" style="opacity:1;fill:none;fill-opacity:1;fill-rule:evenodd;stroke:#674a1f;stroke-width:0.2;stroke-linecap:round;stroke-linejoin:round;stroke-miterlimit:4;stroke-dasharray:none;stroke-opacity:1;display:inline"/>
<path d="M 37.28,10.33 C 37.22,11.01 36.80,11.56 36.33,11.56 C 35.87,11.56 35.54,11.01 35.60,10.33 C 35.66,9.66 36.08,9.11 36.55,9.11 C 37.01,9.11 37.34,9.66 37.28,10.33 z" id="p3721" style="opacity:1;fill:#170f04;fill-opacity:0.92;fill-rule:evenodd;stroke:none;marker:none;visibility:visible;display:inline;overflow:visible;enable-background:accumulate"/>
<path d="M 36.46,10.7 C 36.05,11.48 34.71,11.53 34.48,11.51 C 34.26,11.5 33.81,11.27 33.78,11.1 C 33.75,10.92 33.11,11.16 32.89,11.51 C 32.67,11.86 31.04,13.62 30.64,13.71 C 30.24,13.81 29.83,13.16 29.51,12.85 C 29.19,12.55 27.95,11.99 28.08,11.83 C 28.2,11.67 28.52,11.48 28.68,11.45 C 28.84,11.42 28.49,11.42 28.51,11.23 C 28.52,11.04 28.73,11.5 29.35,11.1 C 29.97,10.7 32.03,9.67 32.51,9.62 C 32.99,9.57 33.46,9.67 33.54,9.47 C 33.62,9.28 33.91,8.92 34.21,8.8 C 34.52,8.69 35.19,8.31 35.65,8.52 C 36.11,8.72 36.59,9.38 36.6,9.55 C 36.62,9.73 36.49,10.69 36.46,10.7 z" id="p3928" style="opacity:1;fill:#1a140b;fill-opacity:1;fill-rule:evenodd;stroke:none"/>
<path d="M 36.4,9.34 C 36.16,9.31 35.86,9.38 35.53,9.5 C 34.86,9.72 35.18,10.57 35.09,10.75 C 35,10.92 34.29,11.35 34.34,10.68 C 34.38,10.02 33.7,9.98 33.75,10.25 C 33.77,10.42 33.8,10.66 33.65,11.03 C 33.72,11.02 33.77,11.04 33.78,11.09 C 33.81,11.26 34.27,11.51 34.5,11.53 C 34.72,11.54 36.05,11.49 36.46,10.71 C 36.5,10.7 36.6,9.73 36.59,9.56 C 36.59,9.52 36.57,9.44 36.53,9.37 C 36.48,9.36 36.45,9.34 36.4,9.34 z" id="p3930" style="opacity:1;fill:#040100;fill-opacity:0.81;fill-rule:evenodd;stroke:none"/>
<path d="M 35.77,9.78 C 35.47,9.78 35.19,10.79 34.96,10.88 C 34.56,11.02 34.35,10.97 34.09,11.37 C 34.23,11.44 34.39,11.52 34.5,11.53 C 34.72,11.54 36.05,11.49 36.46,10.71 C 36.47,10.71 36.6,9.9 36.58,9.9 C 36.36,9.82 36.07,9.79 35.77,9.78 z" id="p3932" style="opacity:1;fill:#3b2110;fill-opacity:0.81;fill-rule:evenodd;stroke:none"/>
<path d="M 33.87,10.15 C 33.69,10.15 33.19,10.41 32.53,10.75 C 31.86,11.08 30.76,12.05 29.68,13.03 C 29.98,13.35 30.31,13.79 30.65,13.71 C 31.05,13.62 32.68,11.88 32.9,11.53 C 33.05,11.29 33.37,11.1 33.59,11.06 C 33.71,10.78 33.91,10.3 33.93,10.25 C 33.95,10.18 33.93,10.15 33.87,10.15 z" id="p3934" style="opacity:1;fill:#e1c085;fill-opacity:0.81;fill-rule:evenodd;stroke:none"/>
<path d="M 34.68,8.62 C 34.51,8.69 34.32,8.77 34.21,8.81 C 33.91,8.92 33.64,9.27 33.56,9.46 C 33.48,9.66 32.97,9.57 32.5,9.62 C 32.02,9.67 29.96,10.69 29.34,11.09 C 28.72,11.49 28.51,11.02 28.5,11.21 C 28.48,11.41 28.84,11.43 28.68,11.46 C 28.52,11.5 28.22,11.68 28.09,11.84 C 27.96,12 29.21,12.54 29.53,12.84 C 29.85,13.14 30.25,13.81 30.65,13.71 C 31.05,13.62 32.68,11.88 32.9,11.53 C 33.07,11.26 33.45,11.04 33.65,11.03 C 33.72,10.62 33.87,10.31 33.9,10.03 C 33.95,9.63 33.8,10.15 34.19,10.14 C 34.41,10.14 34.46,10 34.53,9.65 C 34.6,9.31 34.7,8.84 34.68,8.62 z" id="p3947" style="opacity:1;fill:#d4a965;fill-opacity:0.61;fill-rule:evenodd;stroke:none"/>
<path d="M 33.46,9.53 C 33.3,9.62 32.9,9.58 32.5,9.62 C 32.02,9.67 29.96,10.69 29.34,11.09 C 28.72,11.49 28.51,11.02 28.5,11.21 C 28.48,11.41 28.84,11.43 28.68,11.46 C 28.52,11.5 28.22,11.68 28.09,11.84 C 27.98,11.97 28.2,11.99 28.67,12.3 C 29.8,11.61 30.6,10.88 31.38,10.48 C 32.27,10.04 33.41,9.89 33.49,9.86 C 33.64,9.8 33.61,9.8 33.46,9.53 z" id="p3949" style="opacity:1;fill:#e9c999;fill-opacity:0.61;fill-rule:evenodd;stroke:none"/>
<path d="M 33.72,10.99 C 33.74,10.8 33.76,10.94 33.93,10.93 C 34.1,10.92 34.56,10.41 34.67,9.9 C 34.78,9.4 34.9,8.5 34.96,8.49 C 35.01,8.49 36.02,8.61 36.1,8.69 C 36.18,8.77 36.22,9.75 36.13,10.04 C 36.05,10.34 35.32,11.57 34.49,11.48 C 33.66,11.4 33.73,10.99 33.72,10.99 z" id="p3991" style="opacity:1;fill:#d4a965;fill-opacity:0.41;fill-rule:evenodd;stroke:none"/>
<path d="M 33.81,10.31 C 33.71,10.29 32.33,11 32.09,11.18 C 31.84,11.36 31.05,12.09 30.87,12.12 C 30.69,12.15 30.38,11.73 30.21,11.75 C 30.08,11.76 29.59,12.21 29.21,12.62 C 29.34,12.7 29.46,12.77 29.53,12.84 C 29.85,13.14 30.25,13.81 30.65,13.71 C 31.05,13.62 32.68,11.88 32.9,11.53 C 33.05,11.3 33.35,11.11 33.56,11.06 C 33.64,10.78 33.73,10.55 33.78,10.43 C 33.81,10.34 33.83,10.31 33.81,10.31 z" id="p3993" style="opacity:1;fill:#dac9af;fill-opacity:0.41;fill-rule:evenodd;stroke:none"/>
<path d="M 28.07,11.87 C 28.41,11.77 28.72,11.71 28.94,11.86 C 29.17,12.01 29.64,12.39 29.74,12.39 C 29.84,12.39 30.05,12.23 30.17,12.27 C 30.29,12.32 30.88,12.79 30.92,12.94 C 30.97,13.08 30.79,13.19 30.85,13.35 C 30.91,13.51 30.79,13.67 30.79,13.67 C 30.79,13.67 30.58,13.87 29.39,12.76 C 28.19,11.65 28.07,11.89 28.07,11.87 z" id="p4005" style="opacity:1;fill:#56290c;fill-opacity:0.56;fill-rule:evenodd;stroke:none"/>
<path d="M 30.86,13.62 C 30.86,13.62 32.41,11.21 32.59,11 C 32.76,10.78 34,10.24 34,10.24 L 33.91,10.55 C 33.91,10.55 32.9,10.88 32.76,11.02 C 32.63,11.15 31.44,13.11 31.44,13.11 L 30.86,13.62 z" id="p4007" style="opacity:1;fill:#110802;fill-opacity:0.56;fill-rule:evenodd;stroke:none;display:inline"/>
<path d="M 30.78,12.98 C 30.78,12.98 31.56,11.95 31.73,11.79 C 31.91,11.64 31.73,12.07 31.52,12.41 C 31.31,12.76 31.13,13.44 30.92,13.56 C 30.71,13.68 30.1,14.1 30.78,12.98 z" id="p4014" style="opacity:1;fill:#f1daca;fill-opacity:0.56;fill-rule:evenodd;stroke:none;display:inline"/>
<path d="M 34.38,10.65 C 34.96,9.69 34.98,8.46 34.98,8.46" id="p4026" style="opacity:1;fill:none;fill-rule:evenodd;stroke:#eec776;stroke-width:0.2;stroke-linecap:round;stroke-linejoin:miter;stroke-miterlimit:4;stroke-dasharray:none;stroke-opacity:0.52"/>
<path d="M 36.46,10.7 C 36.05,11.48 34.71,11.53 34.48,11.51 C 34.26,11.5 33.81,11.27 33.78,11.1 C 33.75,10.92 33.11,11.16 32.89,11.51 C 32.67,11.86 31.04,13.62 30.64,13.71 C 30.24,13.81 29.83,13.16 29.51,12.85 C 29.19,12.55 27.95,11.99 28.08,11.83 C 28.2,11.67 28.52,11.48 28.68,11.45 C 28.84,11.42 28.49,11.42 28.51,11.23 C 28.52,11.04 28.73,11.5 29.35,11.1 C 29.97,10.7 32.03,9.67 32.51,9.62 C 32.99,9.57 33.46,9.67 33.54,9.47 C 33.62,9.28 33.88,8.91 34.18,8.78 C 34.58,8.59 34.83,8.5 34.89,8.45 C 35,8.36 35.71,8.54 35.99,8.65 C 36.27,8.76 36.31,8.85 36.57,9.14" id="p3945" style="opacity:1;fill:none;fill-opacity:1;fill-rule:evenodd;stroke:#412d11;stroke-width:0.30;stroke-linecap:round;stroke-linejoin:miter;stroke-miterlimit:4;stroke-dasharray:none;stroke-opacity:1;display:inline"/>
<path d="M 36.55,9.12 C 37.01,9.12 37.34,9.66 37.28,10.33 C 37.22,11.01 36.80,11.55 36.34,11.55" id="p3957" style="opacity:1;fill:none;fill-opacity:0.92;fill-rule:evenodd;stroke:#110c04;stroke-width:0.39;stroke-linecap:round;stroke-linejoin:round;marker:none;stroke-miterlimit:4;stroke-dasharray:none;stroke-dashoffset:0;stroke-opacity:1;visibility:visible;display:inline;overflow:visible;enable-background:accumulate"/>
<path d="M 30.09,13.45 C 30.09,13.45 31.54,11.78 31.83,11.54 C 32.13,11.29 31.72,11 32.01,10.79 C 32.31,10.57 33.7,10.08 33.7,10.08 L 33.63,9.89 C 33.63,9.89 32.28,10.3 31.88,10.49 C 31.49,10.69 31.33,10.74 31.31,10.82 C 31.3,10.9 31.59,11.32 31.57,11.47 C 31.56,11.62 29.88,13.3 29.88,13.3 L 30.09,13.45 z" id="p3998" style="opacity:1;fill:#44361f;fill-opacity:0.41;fill-rule:evenodd;stroke:none;display:inline"/>
<path d="M 33.94,10.31 C 33.1,10.18 31.84,9.53 31.64,11.12 C 31.43,12.71 30.89,13.97 29.76,14.01" id="p4028" style="opacity:1;fill:none;fill-rule:evenodd;stroke:#381a0f;stroke-width:0.2;stroke-linecap:round;stroke-linejoin:miter;stroke-miterlimit:4;stroke-dasharray:none;stroke-opacity:0.92"/>
<path d="M 33.09,8.34 C 33.58,8.47 33.86,8.99 33.9,9.37 C 33.94,9.75 33.35,10.53 33.49,10.97 C 33.63,11.4 33.44,11.99 32.99,11.64" id="p3962" style="opacity:1;fill:none;fill-rule:evenodd;stroke:#291c07;stroke-width:0.2;stroke-linecap:butt;stroke-linejoin:miter;stroke-miterlimit:4;stroke-dasharray:none;stroke-opacity:1;display:inline"/>
</g>
</svg>
