<?xml version="1.0" encoding="UTF-8" standalone="no"?>
<!DOCTYPE svg PUBLIC "-//W3C//DTD SVG 1.0//EN" "http://www.w3.org/TR/2001/REC-SVG-20010904/DTD/svg10.dtd">
<svg xmlns:svg="http://www.w3.org/2000/svg" xmlns="http://www.w3.org/2000/svg" version="1.0" width="100%" height="100%" viewBox="0 0 48 48" id="_bulb01">
<defs id="defs2818"/>
<g id="bulb01" style="display:inline">
<path d="m 24.12,1.75 c -4.08,0.05 -13.55,3.67 -13.46,13.59 0.05,6.70 4.16,9.20 5.84,14.43 0.40,1.27 -0.07,2.97 0.31,3.78 0.06,0.13 0.38,0.70 1,1.28 -0.06,0.19 0.00,0.32 0.09,0.46 -0.25,0.35 0.00,0.96 0.21,1.18 -0.10,0.22 0.09,0.52 0.34,0.75 -0.78,0.84 -0.33,1.16 -0.09,1.5 -0.53,0.63 -0.33,1.10 -0.03,1.43 -0.44,0.77 -0.24,1.25 0.09,1.59 -0.10,0.34 -0.47,0.78 0.5,1.68 1.23,1.14 2.91,2.06 3.28,2.25 0.36,0.18 0.71,0.42 0.87,0.46 0.17,0.04 0.66,0.06 0.81,0.03 0.15,-0.03 0.98,-0.49 1.21,-0.62 2.17,-1.20 3.32,-2.08 3.37,-2.65 0.73,-0.61 0.58,-1.47 0.31,-1.81 0.47,-0.62 0.31,-1.22 -0.03,-1.5 0.47,-0.45 0.42,-1.28 0.06,-1.46 0.29,-0.26 0.34,-0.54 0.31,-1 C 29.12,36.70 29,36.12 29,36.12 c 0,0 0.23,-0.32 0.15,-0.62 0.09,-0.12 0.32,-0.28 0.21,-0.59 0.60,-0.37 0.75,-0.72 0.96,-1.09 0.98,-1.73 0.42,-2.61 1.31,-5.06 1.11,-3.06 5.81,-7.28 5.75,-13.65 C 37.29,4.83 27.88,1.69 24.12,1.75 z" id="p2965" style="fill:#c8c8cb;fill-opacity:1;stroke:none"/>
<path d="m 24.12,1.75 c -4.08,0.05 -13.55,3.67 -13.46,13.59 0.00,0.22 0.02,0.43 0.03,0.65 1.40,-3.63 2.79,-4.23 4.40,-5.15 2.12,-1.21 3.12,-3.72 4.43,-4.12 1.31,-0.40 1.91,-2.73 4.34,-2.53 2.42,0.20 3.64,-0.81 6.37,1.71 2.73,2.53 2.94,3.94 4.06,5.96 0.55,1.00 2.03,2.70 3.09,3.12 C 37.24,4.81 27.86,1.69 24.12,1.75 z" id="p3838" style="fill:#4f4f5b;fill-opacity:0.12;stroke:none;display:inline"/>
<path d="m 15.82,20.91 c -0.80,-2.74 0.73,-4.55 2.48,-5.02 1.74,-0.46 6.63,-2.54 9.25,-0.53 2.61,2.01 4.69,4.82 4.42,5.56 -0.26,0.73 -1.67,4.96 -2.14,5.63 -0.46,0.67 -3.08,1.00 -2.81,1.47 0.26,0.46 2.48,0 2.54,0.93 0.06,0.93 0.13,4.02 0.13,4.29 0,0.26 -1.00,1.20 -1.00,1.20 0,0 1.00,-1.54 -0.20,-2.01 -1.20,-0.46 -6.30,0.06 -7.24,0.06 -0.93,0 -2.54,1.20 -2.27,0.46 0.26,-0.73 0.33,-3.08 0.06,-3.68 -0.26,-0.60 -0.13,-2.34 -0.67,-2.94 -0.53,-0.60 -2.07,-4.42 -2.54,-5.43 z" id="p3877" style="fill:#89898f;fill-opacity:0.27;stroke:none;display:inline"/>
<path d="m 16.53,9.18 c -1.70,-0.00 -3.34,0.59 -5.15,1.65 -0.46,1.33 -0.73,2.81 -0.71,4.5 0.05,6.66 4.11,9.18 5.81,14.34 1.24,-0.55 2.46,-0.21 2.46,-0.21 0,0 -0.12,-1.91 -1.84,-5.65 -1.72,-3.74 -2.91,-5.66 -2.81,-8.09 0.10,-2.42 2.41,-3.33 5.25,-5.96 -1.06,-0.37 -2.04,-0.56 -3,-0.56 z" id="p3841" style="fill:#d1d1d4;fill-opacity:0.79;stroke:none;display:inline"/>
<path d="m 15.59,9.84 c -1.15,0.07 -2.56,0.39 -4.28,1.09 -0.43,1.30 -0.67,2.76 -0.65,4.40 6.47e-4,0.07 -0.00,0.14 0,0.21 0.85,0.88 2.06,1.97 3.90,3.15 -1.00,-2.48 -1.61,-3.78 -0.40,-4.25 1.20,-0.46 2.81,-1.53 2.81,-1.53 0,0 2.26,2.09 2.93,2.56 0.67,0.46 2.02,-2.22 4.90,-1.21 2.88,1.00 4.81,1.75 5.68,4.03 0.87,2.27 1.87,2.06 0.93,3.46 -0.93,1.40 -1.55,3.88 -1.68,4.68 -0.11,0.67 -1.71,2.46 2.43,1.12 C 33.72,24.80 37.05,21.12 37.37,16 c -1.37,-1.49 -3.03,-3.24 -6.18,-3.81 -3.75,-0.67 -7.99,-1.80 -10.40,-1 -1.13,-0.46 -2.51,-1.52 -5.18,-1.34 z" id="p3880" style="fill:#fbfbfc;fill-opacity:0.14;stroke:none;display:inline"/>
<path d="m 16.81,9.12 c -1.29,0.04 -3.42,0.72 -5.46,1.81 -0.44,1.30 -0.70,2.76 -0.68,4.40 0.01,1.60 0.23,2.96 0.62,4.18 1.50,-4.35 2.19,-4.80 3.06,-5.31 0.98,-0.57 2.56,-1.40 2.56,-1.40 0,0 1.95,2.21 2.53,2.37 0.57,0.16 3.68,-1.63 4.34,-1.46 0.65,0.16 1.06,-0.40 1.06,-1.06 0,-0.65 -5.40,-3.61 -8.03,-3.53 z" id="p3944" style="fill:#dfdfe3;fill-opacity:0.13;stroke:none;display:inline"/>
<path d="m 24.12,1.75 c -4.08,0.05 -13.55,3.67 -13.46,13.59 0.05,6.70 4.16,9.20 5.84,14.43 0.40,1.27 -0.07,2.97 0.31,3.78 0.06,0.13 0.38,0.70 1,1.28 0.90,0.26 1.31,0.18 1.31,0.18 0,0 -0.99,-0.69 -1.09,-2.31 -0.10,-1.61 1.48,-1.70 0.37,-5.65 C 17.29,23.11 13.06,17.73 12.96,15 12.87,12.34 11.27,4.67 25.06,1.81 24.72,1.77 24.40,1.74 24.12,1.75 z" id="p3765" style="fill:#f1f3f5;fill-opacity:0.43;stroke:none;display:inline"/>
<path d="m 25.21,1.81 c 5.20,1.37 10.56,4.97 11.21,11.87 0.51,5.47 -5.58,10.41 -6.87,13.56 -0.74,1.81 0.60,1.72 0.40,3.75 -0.20,2.02 -0.11,2.82 -1.12,3.53 -0.49,0.34 -0.25,0.49 0.75,0.18 0.01,-0.00 0.05,0.00 0.06,0 0.37,-0.30 0.51,-0.60 0.68,-0.90 0.98,-1.73 0.42,-2.61 1.31,-5.06 1.11,-3.06 5.81,-7.28 5.75,-13.65 C 37.30,5.70 29.43,2.28 25.21,1.81 z" id="p3768" style="fill:#f1f3f5;fill-opacity:0.43;stroke:none;display:inline"/>
<path d="M 24.40,3.96 C 21.36,3.86 19.63,5.68 19.43,6.18 c -0.15,0.38 -2.38,0.70 -3.59,3.37 2.06,-0.40 3.88,-0.29 4.81,0.37 1.31,-1.21 9.39,-0.40 10.40,1.31 0.55,-0.30 1.56,-0.08 2.56,0.62 C 32.61,4.68 27.17,4.06 24.40,3.96 z M 18.31,19.06 c -0.99,0.33 -1.43,0.48 -2.65,0.21 1.02,4.46 2.96,7.56 2.96,7.56 L 18.71,28.37 19.62,30.5 c 0,0 8.61,-1.32 8.81,-2.84 0.17,-1.34 1.81,-5.36 2.62,-7.09 -1.99,0.05 -4.00,-0.19 -4.43,-0.68 -1.31,0.50 -6.38,1.11 -8.31,-0.81 z" id="p3771" style="fill:#fbfbfc;fill-opacity:0.60;stroke:none;display:inline"/>
<path d="m 18.50,26.74 c -1.60,-4.08 -3.88,-8.24 -3.55,-10.65 0.33,-2.41 1.74,-4.55 3.15,-5.36" id="p3889" style="fill:none;stroke:#a2a8ae;stroke-width:0.40;stroke-linecap:round;stroke-linejoin:miter;stroke-miterlimit:4;stroke-opacity:0.46;stroke-dasharray:none;display:inline"/>
<path d="m 26.06,5.28 c -1.13,0.05 -2.28,0.26 -3.09,0.31 -1.61,0.10 -0.20,1.00 -1.71,1.31 -0.95,0.19 -1.86,1.18 -2.03,2.53 0.57,0.09 1.08,0.24 1.43,0.5 1.31,-1.21 9.39,-0.40 10.40,1.31 0.29,-0.16 0.73,-0.16 1.21,-0.03 -0.20,-0.93 -1,-1.46 -1,-1.46 0,0 0.78,-0.01 0.68,-1.03 C 31.86,7.70 30.77,7.01 29.15,5.90 28.34,5.34 27.20,5.23 26.06,5.28 z" id="p3774" style="fill:#fbfbfc;fill-opacity:0.90;stroke:none;display:inline"/>
<path d="m 28.42,15.08 c 3.15,2.01 4.29,4.89 4.29,4.89 0,0 1.40,-1.67 1.81,-3.01 0.40,-1.34 0.33,-3.08 0.33,-3.08 0,0 -1.47,-1.34 -3.82,-1.74" id="p3883" style="fill:none;stroke:#e1e4e7;stroke-width:0.40;stroke-linecap:round;stroke-linejoin:miter;stroke-miterlimit:4;stroke-opacity:0.48;stroke-dasharray:none;display:inline"/>
<path d="m 35.46,12.73 c 0.46,-1.13 -0.06,-2.21 -0.06,-2.21" id="p3886" style="fill:none;stroke:#eff1f3;stroke-width:0.60;stroke-linecap:round;stroke-linejoin:miter;stroke-miterlimit:4;stroke-opacity:0.45;stroke-dasharray:none;display:inline"/>
<path d="m 18.68,19.40 c -0.26,0.64 -0.18,1.21 0.34,1.56 0.80,0.53 1.49,4.91 1.56,5.65 0.06,0.73 -0.83,1.65 -0.56,2.18 0.25,0.51 5.98,0.12 6.43,0.09 0.04,-0.01 0.10,-0.01 0.15,-0.03 -0.02,-0.07 -0.52,-1.52 0,-4.59 0.25,-1.47 0.66,-2.89 1.03,-4 -0.48,-0.11 -0.87,-0.23 -1.03,-0.40 -1.23,0.47 -5.79,1.06 -7.93,-0.46 z" id="p3892" style="fill:#fbfbfc;fill-opacity:0.65;stroke:none;display:inline"/>
<path d="m 16.22,17.83 c 0.73,2.21 2.74,7.70 2.88,8.78 0.13,1.07 0.26,3.08 0.26,3.08" id="p3895" style="fill:none;stroke:#afb4ba;stroke-width:0.80;stroke-linecap:round;stroke-linejoin:miter;stroke-miterlimit:4;stroke-opacity:0.30;stroke-dasharray:none;display:inline"/>
<path d="m 22.67,20.77 c 0.40,-0.00 1.63,-5.26e-4 2.11,0.00 0.44,0.00 0.39,0.68 0.07,0.68 -0.08,6.25e-4 -0.13,0.01 -0.25,0.01 -0.01,0.26 -0.18,4.97 -0.17,5.28 0.01,0.55 1.05,0.13 1.06,0.70 0.00,0.30 -0.10,2.75 -0.15,3.04 -0.04,0.23 -3.38,0.13 -3.45,-0.11 -0.05,-0.21 -0.05,-2.01 -0.05,-2.55 0.00,-0.77 0.51,-0.29 0.75,-0.58 0.10,-0.13 0.29,-0.29 0.28,-0.49 -0.01,-0.35 0.04,-5.05 0.03,-5.42 -0.06,0.00 -0.12,0.01 -0.23,0.00 -0.39,-0.01 -0.40,-0.57 -0.00,-0.57 l 3.9e-5,-4e-5 z" id="p3970" style="fill:#bebcb7;fill-opacity:1;stroke:none;display:inline"/>
<path d="m 27.84,16.81 c 0,0 -2.44,8.09 -2.56,8.50 -0.12,0.40 -0.25,1.05 -0.32,1.42 -0.03,0.16 -0.01,0.35 -0.01,0.35" id="p3975" style="fill:none;stroke:#000000;stroke-width:0.30;stroke-linecap:round;stroke-linejoin:miter;stroke-miterlimit:4;stroke-opacity:0.84;stroke-dasharray:none;display:inline"/>
<path d="m 19.17,16.20 1.01,0.12 c 0,0 3.45,0.56 3.78,0.73 0.32,0.16 1.26,0.40 1.26,0.40 0,0 2.19,-0.12 2.44,-0.08 0.24,0.04 0.36,0.12 0.36,0.12" id="p3985" style="fill:none;stroke:#404040;stroke-width:0.40;stroke-linecap:butt;stroke-linejoin:miter;stroke-miterlimit:4;stroke-opacity:0.62;stroke-dasharray:none;display:inline"/>
<path d="m 19.30,16.20 2.64,10.17 c 0,0 0.23,0.28 0.28,0.69 0.01,0.13 0.01,0.28 0.01,0.28" id="p3973" style="fill:none;stroke:#000000;stroke-width:0.30;stroke-linecap:round;stroke-linejoin:miter;stroke-miterlimit:4;stroke-opacity:0.84;stroke-dasharray:none;display:inline"/>
<path d="m 28.09,16.81 -0.08,0.77" id="p3988" style="fill:none;stroke:#272727;stroke-width:0.30;stroke-linecap:round;stroke-linejoin:miter;stroke-miterlimit:4;stroke-opacity:1;stroke-dasharray:none;display:inline"/>
<path d="m 31.60,18.49 c -2.51,2.51 -2.82,3.24 -3.97,8.78 -1.15,5.54 -1.25,7.22 -1.25,7.22 0,0 2.30,0.41 2.72,-1.04 0.41,-1.46 -0.10,-4.39 -0.20,-5.33 -0.10,-0.94 0.94,-1.56 2.19,-4.18 1.25,-2.61 3.24,-3.03 4.08,-4.70 0.83,-1.67 1.56,-5.96 0.94,-7.95 -0.62,-1.98 0.10,0.73 -0.52,2.30 -0.62,1.56 -1.25,4.70 -2.09,5.75 -0.83,1.04 -1.25,0.20 -1.88,-0.83 z" id="p4016" style="fill:#b9b9bd;fill-opacity:0.53;stroke:none;display:inline"/>
<path d="m 22.65,21.07 2.19,0.02" id="p4019" style="fill:none;stroke:#000000;stroke-width:0.5;stroke-linecap:round;stroke-linejoin:miter;stroke-miterlimit:4;stroke-opacity:0.63;stroke-dasharray:none"/>
<path d="m 23.47,21.15 0.70,0.02" id="p4021" style="fill:none;stroke:#f6f6f6;stroke-width:0.60;stroke-linecap:round;stroke-linejoin:miter;stroke-miterlimit:4;stroke-opacity:0.83;stroke-dasharray:none"/>
<path d="m 22.90,21.56 c 0.00,0.66 -0.04,4.87 -0.03,5.21 0.00,0.07 -0.02,0.12 -0.06,0.18 0.12,0.00 0.25,-0.05 0.37,-0.15 0.39,-0.33 0.81,-0.22 0.84,-0.53 0.02,-0.30 0.18,-4.43 0.18,-4.43 l 0.37,-0.06 c 9.7e-4,-0.02 -5.78e-4,-0.17 0,-0.18 l -1.68,-0.03 z" id="p4023" style="fill:#eff0f2;fill-opacity:0.68;stroke:none"/>
<path d="m 23.04,27.03 c 0.42,-0.28 1.04,0 1.12,-0.08 0.08,-0.08 0.02,-0.73 0.02,-0.73 0,0 0.05,0.25 -0.25,0.30 -0.30,0.05 -1.04,0.25 -0.89,0.50 z" id="p4048" style="fill:#644f32;fill-opacity:0.68;stroke:none;display:inline"/>
<path d="m 22.62,27.25 c -0.00,0.01 -0.02,0.02 -0.03,0.03 -0.24,0.29 -0.74,-0.21 -0.75,0.56 -6.42e-4,0.36 0.01,1.17 0.03,1.81 0.59,0.23 1.13,0.03 1.31,-0.06 0.19,-0.11 0.81,0.66 1.12,0.5 0.30,-0.16 0.32,-0.49 0.15,-0.43 C 24.30,29.71 23.90,29.58 23.62,29.18 23.34,28.79 23.33,28.89 23.21,29.09 23.10,29.29 22.66,29.77 22.5,29.40 22.35,29.09 22.39,28.38 22.62,27.25 z" id="p4051" style="fill:#444e52;fill-opacity:0.66;stroke:none;display:inline"/>
<path d="m 22.06,29.92 c 0.28,0.08 0.39,0.11 0.67,-0.08 0.28,-0.19 0.30,-0.28 0.61,0.05 0.30,0.33 0.98,0.56 1.18,0.47 0.19,-0.08 0.73,-0.53 0.73,-0.53" id="p4057" style="fill:none;stroke:#e9e9e9;stroke-width:0.5;stroke-linecap:round;stroke-linejoin:miter;stroke-miterlimit:4;stroke-opacity:0.78;stroke-dasharray:none;display:inline"/>
<path d="m 23.5,27.68 c -0.10,0.01 -0.21,0.06 -0.34,0.12 -0.25,0.11 0.03,0.84 -0.21,0.84 C 22.68,28.65 22.75,28 22.75,28 c 0,0 -0.01,0.64 -0.18,0.78 -0.12,0.10 -0.37,0.00 -0.71,-0.28 2.61e-4,0.14 -9.96e-4,0.24 0,0.40 0.62,0.22 1.06,-0.05 1.25,-0.12 0.22,-0.08 0.92,0.28 1.09,0.34 0.16,0.05 0.22,-0.67 0.28,-0.87 0.05,-0.19 -0.22,-0.44 -0.56,-0.53 C 23.73,27.67 23.60,27.66 23.5,27.68 z" id="p3970-3" style="fill:#ededeb;fill-opacity:0.81;stroke:none;display:inline"/>
<path d="m 21.86,29.92 c 0.22,0.08 0.67,0.16 0.87,0 0.19,-0.16 0.33,-0.19 0.64,0.11 0.30,0.30 0.67,0.36 0.67,0.36" id="p4094" style="fill:none;stroke:#f8f8f8;stroke-width:0.30;stroke-linecap:round;stroke-linejoin:miter;stroke-miterlimit:4;stroke-opacity:0.62;stroke-dasharray:none;display:inline"/>
<path d="m 23.61,27.05 c 0.02,0.39 -0.14,1.43 0,1.68 0.14,0.25 1.43,0.61 1.46,0.28 0.02,-0.33 0.02,-1.77 0.02,-1.77 0,0 -1.23,-0.39 -1.48,-0.19 z" id="p4097" style="fill:#ededeb;fill-opacity:0.31;stroke:none"/>
<path d="m 25.10,27.25 -0.05,1.93" id="p4099" style="fill:none;stroke:#403e29;stroke-width:0.2;stroke-linecap:butt;stroke-linejoin:miter;stroke-miterlimit:4;stroke-opacity:0.54;stroke-dasharray:none"/>
<path d="m 19.15,34.52 c -1.50,-0.95 -1.84,-1.16 -0.75,-1.43 1.09,-0.27 2.25,-0.68 2.80,-0.61 0.54,0.06 0.68,0.27 1.29,0.20 0.61,-0.06 4.30,-0.61 5.06,-0.54 0.75,0.06 1.70,0.47 0.61,2.25 -1.09,1.77 -8.96,0.27 -9.02,0.13 z" id="p4134" style="fill:#ededeb;fill-opacity:0.37;stroke:none;display:inline"/>
<path d="m 21.21,32.46 c -0.41,-0.05 -1.21,0.17 -2.03,0.40 1.13,0.32 1.34,0.42 1.34,1.65 0,0.13 0.01,0.21 0.03,0.31 0.30,0.05 0.65,0.07 1.03,0.12 0.01,0.00 0.02,-0.00 0.03,0 0.12,-0.09 0.18,-0.15 0.18,-0.15 l 0.37,-2.12 c -0.35,-0.02 -0.53,-0.16 -0.96,-0.21 z" id="p4137" style="fill:#ededeb;fill-opacity:0.64;stroke:none;display:inline"/>
<path d="m 23.46,33.90 c -1.29,0 -3.64,0.05 -4.18,0.12 -0.54,0.06 -0.81,0.48 -0.40,0.68 C 19.28,34.92 19.41,35.06 19,35 c -0.27,-0.04 -0.61,-0.08 -1.18,-0.09 -0.03,0.15 0.01,0.28 0.09,0.40 -0.25,0.35 0.00,0.96 0.21,1.18 -0.10,0.22 0.09,0.52 0.34,0.75 -0.78,0.84 -0.33,1.16 -0.09,1.5 -0.41,0.49 -0.38,0.88 -0.21,1.18 l 7.90,-0.5 c 0,0 1.81,-1.53 3.03,-2.71 C 29.04,36.40 29,36.12 29,36.12 c 0,0 0.23,-0.32 0.15,-0.62 0.08,-0.10 0.26,-0.23 0.25,-0.46 -0.52,-0.14 -1.07,-0.21 -0.87,-0.21 0.34,0 0.59,-0.48 0.25,-0.68 -0.34,-0.20 -4.01,-0.21 -5.31,-0.21 z" id="p4143" style="fill:#a88d5b;fill-opacity:1;stroke:none;display:inline"/>
<path d="m 23.42,36.90 c 0.41,-1.08 0.82,-1.36 1.27,-1.33 0.44,0.03 0.73,0.41 0.98,0.41 0.25,0 -0.38,-0.69 0.19,-0.69 0.57,0 1.04,0 1.46,-0.12 0.41,-0.12 -0.82,0.19 -0.89,0.28 -0.06,0.09 0.44,0.22 0.63,0.95 0.19,0.73 -3.46,1.49 -3.46,1.30 0,-0.19 -0.12,-0.76 -0.19,-0.79 z" id="p4541" style="fill:#62442f;fill-opacity:0.30;stroke:none;display:inline"/>
<path d="m 21.88,29.73 c -0.75,1.02 -0.68,2.05 -0.61,2.80 0.06,0.75 0,3.62 0,3.62" id="p4140" style="fill:none;stroke:#939a9f;stroke-width:0.40;stroke-linecap:butt;stroke-linejoin:miter;stroke-miterlimit:4;stroke-opacity:0.61;stroke-dasharray:none;display:inline"/>
<path d="m 18.05,34.59 c 1.70,0.61 5.26,0.68 6.49,0.68 1.23,0 4.30,-0.34 4.85,-0.75" id="p4146" style="fill:none;stroke:#d2d5d7;stroke-width:0.5;stroke-linecap:round;stroke-linejoin:miter;stroke-miterlimit:4;stroke-opacity:0.22;stroke-dasharray:none;display:inline"/>
<path d="m 22.23,29.88 c 0.21,0.02 0.41,-0.06 0.60,-0.15 0.18,-0.09 0.31,0.02 0.31,0.02" id="p4203" style="fill:none;stroke:#3b4044;stroke-width:0.30;stroke-linecap:round;stroke-linejoin:miter;stroke-miterlimit:4;stroke-opacity:0.49;stroke-dasharray:none"/>
<path d="m 17.81,35.12 c 0.02,0.06 0.05,0.12 0.09,0.18 -0.25,0.35 0.00,0.96 0.21,1.18 -0.10,0.22 0.09,0.52 0.34,0.75 -0.78,0.84 -0.33,1.16 -0.09,1.5 -0.53,0.63 -0.33,1.10 -0.03,1.43 -0.44,0.77 -0.24,1.25 0.09,1.59 -0.10,0.34 -0.47,0.78 0.5,1.68 1.23,1.14 2.91,2.06 3.28,2.25 0.36,0.18 0.71,0.42 0.87,0.46 0.17,0.04 0.66,0.06 0.81,0.03 0.15,-0.03 0.98,-0.49 1.21,-0.62 2.17,-1.20 3.32,-2.08 3.37,-2.65 0.73,-0.61 0.58,-1.47 0.31,-1.81 0.47,-0.62 0.31,-1.22 -0.03,-1.5 0.47,-0.45 0.42,-1.28 0.06,-1.46 0.29,-0.26 0.34,-0.54 0.31,-1 C 29.12,36.70 29,36.12 29,36.12 c 0,0 0.23,-0.32 0.15,-0.62 0.06,-0.08 0.18,-0.18 0.21,-0.34 -1.35,0.72 -2.75,1.17 -5.81,1.03 -3.69,-0.16 -3.93,-0.22 -5.75,-1.06 z" id="p4205" style="fill:#757979;fill-opacity:1;stroke:none;display:inline"/>
<path d="m 27.93,35.78 c -1.04,0.33 -2.33,0.49 -4.37,0.40 -1.93,-0.08 -2.92,-0.15 -3.68,-0.31 -0.17,0.52 -0.00,0.86 0.25,1.12 0.29,0.29 -0.41,1.09 -0.37,1.46 0.03,0.37 0.68,0.75 0.68,0.93 0,0.18 -0.99,0.36 -0.81,0.81 0.18,0.44 1.19,0.75 1.12,0.93 -0.07,0.18 -1.09,-0.11 -1.06,0.37 0.03,0.48 1.21,1.16 1.21,1.28 0,0.11 -1.16,-0.12 -1.12,0.28 0.03,0.41 0.66,1.25 3.28,1.21 2.61,-0.03 4.64,-0.87 4.71,-1.43 0.07,-0.56 -0.98,-0.44 -0.71,-0.59 0.26,-0.14 1.06,-0.51 0.87,-1 -0.18,-0.48 -1.38,-0.38 -1.12,-0.5 0.26,-0.11 1.29,-0.58 1.18,-1 -0.11,-0.41 -1.31,-0.50 -0.93,-0.65 0.37,-0.14 1.18,-0.55 1.18,-0.81 0,-0.26 -0.81,-0.54 -1.56,-0.46 -0.74,0.07 -1.12,0.03 -0.18,-0.18 0.93,-0.22 1.43,-0.62 1.43,-0.62 0,0 -1.72,0.46 -0.93,0.12 0.78,-0.33 1.03,-0.56 1.03,-0.90 0,-0.08 -0.06,-0.29 -0.09,-0.46 z" id="p4208" style="fill:#151513;fill-opacity:0.61;stroke:none;display:inline"/>
<path d="m 21.28,45.18 c 0.38,0.23 0.80,0.46 0.93,0.53 0.36,0.18 0.71,0.42 0.87,0.46 0.17,0.04 0.66,0.06 0.81,0.03 0.15,-0.03 0.98,-0.49 1.21,-0.62 0.22,-0.12 0.39,-0.22 0.59,-0.34 -1.85,0.28 -3.32,0.18 -4.43,-0.06 z" id="p4211" style="fill:#353334;fill-opacity:1;stroke:none;display:inline"/>
<path d="m 18.16,36.59 c 1.42,0.44 2.57,0.82 5.60,0.89 3.02,0.07 5.00,-0.67 5.38,-1.00" id="p4214" style="fill:none;stroke:#8a8a8a;stroke-width:0.2;stroke-linecap:butt;stroke-linejoin:miter;stroke-miterlimit:4;stroke-opacity:1;stroke-dasharray:none;display:inline"/>
<path d="m 25.71,45.25 c -1.85,0.28 -3.32,0.18 -4.43,-0.06" id="p4211-0" style="fill:none;stroke:#000000;stroke-width:0.30;stroke-miterlimit:4;stroke-opacity:1;stroke-dasharray:none;display:inline"/>
<path d="m 17.81,35.12 c 0.02,0.06 0.05,0.12 0.09,0.18 -0.25,0.35 0.00,0.96 0.21,1.18 -0.09,0.21 0.07,0.49 0.31,0.71 0.01,0.01 0.01,0.02 0.03,0.03 0.71,0.36 1.35,0.59 1.68,0.68 0.48,0.13 0.44,-0.05 0.18,0.59 -0.26,0.65 0.30,0.74 0.5,0.90 C 21.03,39.60 20.5,39.70 20.5,40.12 c 0,0.42 1.00,0.58 0.96,0.87 -0.03,0.29 -0.81,0.10 -0.84,0.68 -0.03,0.58 0.84,0.86 0.87,1.06 0.03,0.19 -0.90,-0.21 -0.90,0.43 0,0.65 0.45,0.93 1.53,0.96 1.07,0.03 4.58,-0.46 4.78,-0.62 0.19,-0.16 0.14,-0.93 -0.25,-1 -0.39,-0.06 0.69,-0.26 0.56,-0.71 C 27.08,41.35 26.99,41.03 26.43,41 c -0.55,-0.03 0.97,-0.42 0.87,-0.84 -0.09,-0.42 -1.39,-0.27 -0.96,-0.43 0.42,-0.16 0.17,-0.65 0.59,-0.68 0.42,-0.03 1.53,-1.21 0.62,-1.21 -0.91,0 -2.19,-0.15 -1.31,-0.25 0.87,-0.09 1.58,-0.30 1.68,-0.43 0.07,-0.09 -0.33,-0.04 -0.46,-0.06 0.00,-0.00 -0.01,-0.02 0,-0.03 0.19,-0.13 0.62,-0.64 0.59,-0.84 -0.00,-0.03 -0.31,-0.14 -0.75,-0.25 -0.94,0.22 -2.09,0.32 -3.75,0.25 -3.69,-0.16 -3.93,-0.22 -5.75,-1.06 z" id="p4381" style="fill:#151513;fill-opacity:0.45;stroke:none;display:inline"/>
<path d="m 18.49,38.13 c 1.07,0.55 2.34,0.68 4.20,0.68 1.85,0 4.65,-0.48 5.34,-0.81" id="p4407" style="fill:none;stroke:#a3a3a3;stroke-width:0.80;stroke-linecap:round;stroke-linejoin:miter;stroke-miterlimit:4;stroke-opacity:0.61;stroke-dasharray:none;display:inline"/>
<path d="m 18.22,39.74 c 1.07,0.55 2.34,0.68 4.20,0.68 1.85,0 4.65,-0.48 5.34,-0.81" id="p4407-6" style="fill:none;stroke:#a3a3a3;stroke-width:0.80;stroke-linecap:round;stroke-linejoin:miter;stroke-miterlimit:4;stroke-opacity:0.61;stroke-dasharray:none;display:inline"/>
<path d="m 18.38,41.30 c 1.07,0.55 2.34,0.68 4.20,0.68 1.85,0 4.65,-0.48 5.34,-0.81" id="p4407-63" style="fill:none;stroke:#a3a3a3;stroke-width:0.80;stroke-linecap:round;stroke-linejoin:miter;stroke-miterlimit:4;stroke-opacity:0.61;stroke-dasharray:none;display:inline"/>
<path d="m 19.00,43.26 c 0.81,0.26 1.62,0.45 3.48,0.45 1.85,0 4.65,-0.48 5.34,-0.81" id="p4407-9" style="fill:none;stroke:#a3a3a3;stroke-width:0.80;stroke-linecap:round;stroke-linejoin:miter;stroke-miterlimit:4;stroke-opacity:0.61;stroke-dasharray:none;display:inline"/>
<path d="m 21.78,38.78 c 1.38,0.09 4.14,-0.24 5.18,-0.47" id="p4453" style="fill:none;stroke:#f4f4f4;stroke-width:0.69;stroke-linecap:round;stroke-linejoin:miter;stroke-miterlimit:4;stroke-opacity:0.82;stroke-dasharray:none"/>
<path d="m 21.81,40.41 c 1.38,0.09 4.14,-0.24 5.18,-0.47" id="p4453-8" style="fill:none;stroke:#f4f4f4;stroke-width:0.69;stroke-linecap:round;stroke-linejoin:miter;stroke-miterlimit:4;stroke-opacity:0.82;stroke-dasharray:none;display:inline"/>
<path d="m 21.81,41.95 c 1.38,0.09 4.14,-0.24 5.18,-0.47" id="p4453-5" style="fill:none;stroke:#f4f4f4;stroke-width:0.69;stroke-linecap:round;stroke-linejoin:miter;stroke-miterlimit:4;stroke-opacity:0.82;stroke-dasharray:none;display:inline"/>
<path d="m 21.84,43.70 c 1.38,0.09 4.14,-0.24 5.18,-0.47" id="p4453-86" style="fill:none;stroke:#f4f4f4;stroke-width:0.69;stroke-linecap:round;stroke-linejoin:miter;stroke-miterlimit:4;stroke-opacity:0.82;stroke-dasharray:none;display:inline"/>
<path d="m 19.49,38.64 c 0.95,0.22 3.13,0.31 3.57,0.24" id="p4495" style="fill:none;stroke:#383838;stroke-width:0.30;stroke-linecap:round;stroke-linejoin:miter;stroke-miterlimit:4;stroke-opacity:0.71;stroke-dasharray:none;display:inline"/>
<path d="m 19.50,40.28 c 0.95,0.22 3.13,0.31 3.57,0.24" id="p4495-1" style="fill:none;stroke:#383838;stroke-width:0.30;stroke-linecap:round;stroke-linejoin:miter;stroke-miterlimit:4;stroke-opacity:0.71;stroke-dasharray:none;display:inline"/>
<path d="m 19.48,41.79 c 0.95,0.22 3.13,0.31 3.57,0.24" id="p4495-6" style="fill:none;stroke:#383838;stroke-width:0.30;stroke-linecap:round;stroke-linejoin:miter;stroke-miterlimit:4;stroke-opacity:0.65;stroke-dasharray:none;display:inline"/>
<path d="m 19.74,43.55 c 0.95,0.22 3.13,0.31 3.57,0.24" id="p4495-68" style="fill:none;stroke:#383838;stroke-width:0.30;stroke-linecap:round;stroke-linejoin:miter;stroke-miterlimit:4;stroke-opacity:0.51;stroke-dasharray:none;display:inline"/>
<path d="m 24.03,33.90 c 0.66,0.34 1.38,0.71 0.34,0.68 -1.36,-0.03 -3.14,0.12 -2.15,0.21 1.08,0.25 3.83,0.06 4.46,0.03 0.63,-0.03 -1.29,-0.28 -0.71,-0.34 0.38,-0.04 1.67,-0.17 2.21,-0.46 -1.02,-0.09 -2.96,-0.12 -4.15,-0.12 z" id="p4538" style="fill:#62442f;fill-opacity:0.45;stroke:none;display:inline"/>
<path d="m 22.67,20.77 c 0.40,-0.00 1.63,-5.26e-4 2.11,0.00 0.44,0.00 0.39,0.68 0.07,0.68 -0.08,6.25e-4 -0.13,0.01 -0.25,0.01 -0.01,0.26 -0.18,4.97 -0.17,5.28 0.01,0.55 1.05,0.13 1.06,0.70 0.00,0.30 -0.10,2.75 -0.15,3.04 -0.04,0.23 -3.38,0.13 -3.45,-0.11 -0.05,-0.21 -0.05,-2.01 -0.05,-2.55 0.00,-0.77 0.51,-0.29 0.75,-0.58 0.10,-0.13 0.29,-0.29 0.28,-0.49 -0.01,-0.35 0.04,-5.05 0.03,-5.42 -0.06,0.00 -0.12,0.01 -0.23,0.00 -0.39,-0.01 -0.40,-0.57 -0.00,-0.57 l 3.9e-5,-4e-5 z" id="p3970-2" style="fill:none;stroke:#7b7b7b;stroke-width:0.30;stroke-miterlimit:4;stroke-opacity:0.99;stroke-dasharray:none;display:inline"/>
<path d="m 23.49,21.00 c 0.12,0 0.40,-0.28 0.61,-0.65 0.20,-0.36 1.26,-2.88 1.26,-2.88" id="p3979" style="fill:none;stroke:#252525;stroke-width:0.2;stroke-linecap:round;stroke-linejoin:miter;stroke-miterlimit:4;stroke-opacity:0.61;stroke-dasharray:none;display:inline"/>
<path d="m 24.67,21.09 c 0.32,-0.08 0.73,-0.24 1.30,-0.73 0.56,-0.48 2.56,-2.36 2.72,-2.52 0.16,-0.16 0.04,-0.77 -0.40,-0.61 -0.44,0.16 -0.44,0.56 -0.20,0.69 0.24,0.12 0.56,0 0.77,-0.12 0.20,-0.12 0.40,-0.44 0.40,-0.44" id="p3982" style="fill:none;stroke:#252525;stroke-width:0.2;stroke-linecap:round;stroke-linejoin:miter;stroke-miterlimit:4;stroke-opacity:0.61;stroke-dasharray:none;display:inline"/>
<path d="m 22.19,27.87 -0.09,4.30 -0.21,2.85 0,0.26 -0.09,0.79" id="p4122" style="fill:none;stroke:#000000;stroke-width:0.2;stroke-linecap:butt;stroke-linejoin:miter;stroke-miterlimit:4;stroke-opacity:0.86;stroke-dasharray:none;display:inline"/>
<path d="m 24.85,30.54 -0.14,1.33 c 0,0 -0.04,2.12 -0.04,2.22 0,0.09 -0.12,0.48 -0.12,0.62 0,0.14 0.14,0.12 0.14,0.41 0,0.29 -0.10,1.09 -0.10,1.09" id="p4124" style="fill:none;stroke:#000000;stroke-width:0.2;stroke-linecap:butt;stroke-linejoin:miter;stroke-miterlimit:4;stroke-opacity:0.86;stroke-dasharray:none;display:inline"/>
<path d="m 29.37,35.15 c -1.35,0.72 -2.75,1.17 -5.81,1.03 -3.69,-0.16 -3.93,-0.22 -5.75,-1.06 0.02,0.06 0.05,0.12 0.09,0.18" id="p4205-5" style="fill:none;stroke:#686868;stroke-width:0.30;stroke-miterlimit:4;stroke-opacity:1;stroke-dasharray:none;display:inline"/>
<path d="m 22.19,27.87 -0.09,4.40" id="p4130" style="fill:none;stroke:#521515;stroke-width:0.30;stroke-linecap:butt;stroke-linejoin:miter;stroke-miterlimit:4;stroke-opacity:1;stroke-dasharray:none;display:inline"/>
<path d="m 23.26,30.57 c 0.43,0.04 1.19,0.04 1.19,0.04" id="p4195" style="fill:none;stroke:#eeeeee;stroke-width:0.40;stroke-linecap:round;stroke-linejoin:miter;stroke-miterlimit:4;stroke-opacity:0.77;stroke-dasharray:none"/>
<path d="m 23.75,28.84 c 0.07,0.09 0.32,0.28 0.32,0.28" id="p4197" style="fill:none;stroke:#a5a5a5;stroke-width:0.40;stroke-linecap:round;stroke-linejoin:miter;stroke-miterlimit:4;stroke-opacity:0.77;stroke-dasharray:none"/>
<path d="m 25.04,30.51 c 0.24,-0.03 0.23,-0.15 0.24,-0.32 0.00,-0.17 0.05,-0.97 0.05,-0.97" id="p4199" style="fill:none;stroke:#e6e6e6;stroke-width:0.40;stroke-linecap:round;stroke-linejoin:miter;stroke-miterlimit:4;stroke-opacity:0.67;stroke-dasharray:none"/>
<path d="m 24.05,30.59 0.52,0.02" id="p4201" style="fill:none;stroke:#f6f6f6;stroke-width:0.40;stroke-linecap:round;stroke-linejoin:miter;stroke-miterlimit:4;stroke-opacity:0.67;stroke-dasharray:none"/>
<path d="m 22.56,36.14 c 1.20,0.06 2.89,0.06 3.30,0" id="p4616" style="fill:none;stroke:#f8f8f8;stroke-width:0.2;stroke-linecap:round;stroke-linejoin:miter;stroke-miterlimit:4;stroke-opacity:0.84;stroke-dasharray:none;display:inline"/>
<path d="M 24.12,1.75 C 20.03,1.80 10.57,5.42 10.65,15.34 c 0.05,6.70 4.16,9.20 5.84,14.43 0.40,1.27 -0.07,2.97 0.31,3.78 0.06,0.13 0.38,0.70 1,1.28 -0.06,0.19 0.00,0.32 0.09,0.46 -0.25,0.35 0.00,0.96 0.21,1.18 -0.10,0.22 0.09,0.52 0.34,0.75 -0.78,0.84 -0.33,1.16 -0.09,1.5 -0.53,0.63 -0.33,1.10 -0.03,1.43 -0.44,0.77 -0.24,1.25 0.09,1.59 -0.10,0.34 -0.47,0.78 0.5,1.68 1.23,1.14 2.91,2.06 3.28,2.25 0.36,0.18 0.71,0.42 0.87,0.46 0.17,0.04 0.66,0.06 0.81,0.03 0.15,-0.03 0.98,-0.49 1.21,-0.62 2.17,-1.20 3.32,-2.08 3.37,-2.65 0.73,-0.61 0.58,-1.47 0.31,-1.81 0.47,-0.62 0.31,-1.22 -0.03,-1.5 0.47,-0.45 0.42,-1.28 0.06,-1.46 0.29,-0.26 0.34,-0.54 0.31,-1 C 29.12,36.70 29,36.12 29,36.12 c 0,0 0.23,-0.32 0.15,-0.62 0.09,-0.12 0.32,-0.28 0.21,-0.59 0.60,-0.37 0.75,-0.72 0.96,-1.09 0.98,-1.73 0.42,-2.61 1.31,-5.06 1.11,-3.06 5.81,-7.28 5.75,-13.65 C 37.29,4.83 27.88,1.69 24.12,1.75 z" id="stroke01" style="fill:none;stroke:#000000;stroke-width:0.5;stroke-linejoin:round;stroke-miterlimit:4;stroke-opacity:1;stroke-dasharray:none;display:inline"/>
</g>
</svg>
