<?xml version="1.0" encoding="UTF-8" standalone="no"?>
<!DOCTYPE svg PUBLIC "-//W3C//DTD SVG 1.0//EN" "http://www.w3.org/TR/2001/REC-SVG-20010904/DTD/svg10.dtd">
<svg xmlns:svg="http://www.w3.org/2000/svg" xmlns="http://www.w3.org/2000/svg" version="1.0" width="100%" height="100%" viewBox="0 0 48 48" id="_clean01">
<defs/>
<g id="layer4">
<path d="m 11.48,8.20 c 0.16,0.86 -0.05,1.45 -0.26,1.77 -0.21,0.32 0.37,0.75 0.21,1.24 -0.16,0.48 -0.26,1.40 -0.05,1.45 0.21,0.05 1.56,-1.07 2.10,-1.99 0.53,-0.91 0.37,-1.40 0.37,-1.40 0,0 0.21,1.02 1.50,0.64 0.26,0.53 1.40,2.75 1.40,2.75 l 4.20,-2.37 c 0,0 -1.50,-2.37 -1.83,-2.80 0.32,-0.26 0.91,-0.86 0.91,-1.34 0,-0.48 -0.48,-1.24 -1.24,-1.83 C 18.06,3.72 17.20,2.37 14.66,2.59 12.13,2.80 9.54,4.53 9.32,4.69 9.11,4.85 9.05,5.77 9.22,6.20 c 0.16,0.43 1.02,1.67 1.61,1.61 0.26,0.05 0.64,0.37 0.64,0.37 z" id="path5496-0" style="fill:#b5b4af" />
<path d="M 14.65,2.59 C 14.02,2.64 13.38,2.80 12.78,3 c 2.34,-0.08 4.20,0.60 5.06,1.90 1.10,1.68 1.04,2.03 0.68,2.46 0.39,0.91 1.36,2.53 1.81,3.28 l 0.62,-0.34 c 0,0 -1.48,-2.38 -1.81,-2.81 0.32,-0.26 0.90,-0.85 0.90,-1.34 0,-0.48 -0.49,-1.25 -1.25,-1.84 C 18.05,3.71 17.19,2.37 14.65,2.59 z" id="path5576" style="fill:#e0e0e0;fill-opacity:0.32" />
<path d="m 15.96,8.78 c -0.23,0.15 -0.60,0.53 -0.78,1.18 0.06,-0.01 0.11,-0.01 0.18,-0.03 0.26,0.53 1.40,2.75 1.40,2.75 l 0.87,-0.5 c 0,0 -1.36,-3.62 -1.68,-3.40 z" id="path5541" style="fill:#e0e0e0;fill-opacity:0.59" />
<path d="m 20.71,10.05 c 1.82,2.15 6.29,6.46 7.12,7.29 2.23,0.82 2.56,1.82 3.23,2.98 0.66,1.15 8.03,13.50 8.61,14.58 0.57,1.07 -0.57,2.73 -1.07,3.31 -0.49,0.57 -4.80,3.97 -5.96,4.72 -1.15,0.74 -4.55,1.40 -5.21,1.40 -0.66,0 -1.57,-0.24 -2.48,-1.90 -0.91,-1.65 -4.97,-9.77 -5.46,-10.85 -0.49,-1.07 -0.82,-2.31 -0.33,-4.80 0.49,-2.48 0.82,-4.14 0.99,-4.63 0.16,-0.49 0.33,-0.66 0.91,-1.07 0.41,-1.32 -0.49,-1.98 -0.74,-2.23 -0.24,-0.24 -0.62,-0.50 -0.71,-1.17 -0.08,-0.66 -0.24,-0.98 -0.69,-1.14 -0.30,-0.10 -0.74,-0.63 -0.66,-1.21 0.08,-0.57 -0.74,-1.10 -1.40,-1.26 -0.66,-0.16 -0.49,-1.07 -0.49,-1.65 0,-0.57 3.23,-2.81 4.39,-2.31 z" id="path4797" style="fill:#cbd552" />
<path d="m 20.18,10 c -1.39,0.10 -3.87,1.86 -3.87,2.37 0,0.57 -0.16,1.49 0.5,1.65 0.66,0.16 1.48,0.70 1.40,1.28 -0.08,0.57 0.34,1.11 0.65,1.21 0.45,0.15 0.63,0.46 0.71,1.12 0.08,0.66 0.47,0.93 0.71,1.18 0.20,0.20 0.79,0.65 0.81,1.53 1.44,-0.59 4.35,-2.43 6.21,-3.53 -1.25,-1.23 -4.94,-4.79 -6.62,-6.78 C 20.57,10.00 20.38,9.98 20.18,10 z" id="path5405" style="fill:#a5b62e" />
<path d="m 19.66,10.52 c 0,0 -0.17,1.10 0.39,1.76 0.57,0.66 3.09,3.00 5.21,6.14" id="path5488" style="fill:none;stroke:#2b561b;stroke-width:2.29;stroke-opacity:0.26" />
<path d="m 27.53,17.03 c -2.21,0.72 -5.10,0.78 -6.90,2.09 0.33,0.35 0.70,0.96 0.40,1.93 -0.57,0.41 -0.74,0.59 -0.90,1.09 -0.16,0.49 -0.50,2.13 -1,4.62 -0.49,2.48 -0.15,3.73 0.34,4.81 0.21,0.45 1.23,2.46 2.21,4.43 2.90,-3.73 7.32,-9.51 10.21,-14.31 -0.17,-0.29 -0.78,-1.29 -0.84,-1.40 -0.66,-1.15 -0.98,-2.14 -3.21,-2.96 -0.04,-0.04 -0.25,-0.25 -0.31,-0.31 z" id="path5311" style="fill:#ebf7a4;fill-opacity:0.17" />
<path d="m 27.21,16.75 c -2.51,1.64 -5.10,3.75 -7.25,6 -0.18,0.75 -0.44,2.02 -0.84,4.03 -0.36,1.80 -0.29,2.96 -0.03,3.87 4.16,-0.81 9.56,-3.05 13.53,-7.71 -0.47,-0.79 -1.44,-2.41 -1.56,-2.62 -0.66,-1.15 -0.98,-2.14 -3.21,-2.96 -0.07,-0.07 -0.48,-0.45 -0.62,-0.59 z" id="path5313" style="fill:#d9f465;fill-opacity:0.45" />
<path d="m 27.40,17.34 c -0.62,0.04 -1.14,0.33 -1.43,1.62 -0.58,2.57 -1.86,6.44 -2.21,7.5 -0.35,1.05 0.00,2.56 0.93,3.96 0.93,1.40 4.10,7.97 4.68,9.03 0.45,0.82 1.83,2.82 3.09,3.56 0.05,-0.03 0.13,-0.06 0.18,-0.09 1.15,-0.74 5.44,-4.13 5.93,-4.71 0.49,-0.57 1.67,-2.23 1.09,-3.31 -0.57,-1.07 -7.96,-13.43 -8.62,-14.59 -0.65,-1.15 -0.97,-2.14 -3.18,-2.96 -0.01,-4.63e-4 -0.02,4.24e-4 -0.03,0 -0.14,-0.00 -0.30,-0.00 -0.43,0 z" id="path5307" style="fill:#91a132" />
<path d="m 25.40,21.25 c -0.61,2.17 -1.39,4.44 -1.65,5.21 -0.35,1.05 0.00,2.56 0.93,3.96 0.93,1.40 4.10,7.97 4.68,9.03 0.45,0.82 1.83,2.82 3.09,3.56 0.05,-0.03 0.13,-0.06 0.18,-0.09 1.15,-0.74 5.44,-4.13 5.93,-4.71 0.49,-0.57 1.67,-2.23 1.09,-3.31 -0.20,-0.38 -1.72,-2.94 -3.03,-5.15 -6.32,2.36 -8.66,-0.66 -11.25,-8.5 z" id="path5355" style="fill:#687725;fill-opacity:0.22" />
<path d="m 39.81,35.34 c -2.14,2.68 -7.49,6.63 -8.09,7.03 -0.49,0.32 -3.18,1.16 -5.71,1.43 0.52,0.43 1.03,0.53 1.43,0.53 0.66,0 4.05,-0.66 5.21,-1.40 1.15,-0.74 5.44,-4.13 5.93,-4.71 0.43,-0.50 1.37,-1.82 1.21,-2.87 z" id="path5309" style="fill:#49740b;fill-opacity:0.53" />
<path d="m 27.12,17.81 c -0.84,2.56 -2.38,7.30 -2.65,8.65 -0.35,1.75 0.35,2.21 0.93,3.5 0.58,1.28 4.21,8.53 4.56,9.12 0.24,0.41 1.60,2.43 2.90,3.68 0.50,-0.34 1.33,-0.97 2.25,-1.68 -1.67,0.69 -3.79,-1.80 -4.46,-3.87 C 29.52,33.70 27.31,27.37 27.12,17.81 z M 37.25,30.75 c 0.26,5.68 -0.38,8.58 -1.37,9.78 1.27,-1.01 2.47,-2.02 2.71,-2.31 0.49,-0.57 1.67,-2.23 1.09,-3.31 C 39.52,34.59 38.20,32.37 37.25,30.75 z" id="path5350" style="fill:#6c7d19;fill-opacity:0.27" />
<path d="m 27.86,17.45 c -1.01,-0.36 -1.44,0.36 -1.66,1.08 -0.21,0.72 -2.17,7.52 -2.31,8.17 -0.14,0.65 -0.14,1.80 0.36,2.67 0.50,0.86 5.21,9.84 5.50,10.42 0.28,0.57 2.17,2.96 2.75,3.18" id="path5353" style="fill:none;stroke:#96a13e;stroke-width:1.20;stroke-opacity:0.42" />
<path d="m 21.69,28.66 1.64,3.95" id="path5378" style="fill:none;stroke:#ffffff;stroke-width:3;stroke-opacity:0.31" />
<path d="m 23.23,28.22 -1.97,0.65" id="path5380" style="fill:none;stroke:#f3f2d4;stroke-width:1.70;stroke-opacity:0.56" />
<path d="m 21.18,10.56 c -0.98,0.17 -1.27,0.30 -1.31,0.68 -0.04,0.45 0.42,0.30 1.06,0.71 0.63,0.40 0.90,1.11 1,1.43 0.72,0.22 1.85,1.55 1.81,2.28 0.68,0.36 1.08,1.09 1.31,1.5 0.20,0.37 1.13,0.68 2.03,-0.56 -1.30,-1.27 -4.15,-4.08 -5.90,-6.06 z" id="path5403" style="fill:#adc292;fill-opacity:0.69" />
<path d="m 18.92,14.01 0.59,1.04" id="path5407" style="fill:none;stroke:#e3ec8f;stroke-width:1px;stroke-opacity:0.44" />
<path d="m 20.33,16.15 0.68,1.13" id="path5409" style="fill:none;stroke:#e3ec8f;stroke-width:1.29;stroke-opacity:0.44" />
<path d="m 22.06,18.51 0.77,1.00" id="path5411" style="fill:none;stroke:#e3ec8f;stroke-width:1.29;stroke-opacity:0.44" />
<path d="m 17.33,12.23 0.45,0.54" id="path5413" style="fill:none;stroke:#e3ec8f;stroke-width:1px;stroke-opacity:0.44" />
<path d="m 27.27,16.95 -0.79,0.47" id="path5456" style="fill:none;stroke:#ffffff;stroke-width:1px;stroke-opacity:0.77" />
<path d="m 17.24,14.09 c 0.53,-0.79 2.33,-2.33 3.13,-1.96" id="path5458" style="fill:none;stroke:#345614;stroke-width:1px;stroke-opacity:0.20" />
<path d="m 19.05,16.42 c 0.15,-0.74 2.54,-2.33 3.07,-2.33" id="path5460" style="fill:none;stroke:#345614;stroke-width:1px;stroke-opacity:0.20" />
<path d="m 20.37,18.76 c 0.42,-0.79 2.17,-2.22 3.39,-2.38" id="path5462" style="fill:none;stroke:#345614;stroke-width:1px;stroke-opacity:0.20" />
<path d="m 19.04,14.28 c 0.31,-0.25 0.76,-0.64 1.04,-0.73" id="path5490" style="fill:none;stroke:#adc62e;stroke-width:1.89;stroke-linecap:round;stroke-opacity:0.27" />
<path d="m 20.59,16.54 c 0.31,-0.25 0.76,-0.64 1.04,-0.73" id="path5492" style="fill:none;stroke:#adc62e;stroke-width:1.70;stroke-linecap:round;stroke-opacity:0.27" />
<path d="m 22.23,18.71 c 0.31,-0.25 0.76,-0.64 1.04,-0.73" id="path5494" style="fill:none;stroke:#adc62e;stroke-width:1.70;stroke-linecap:round;stroke-opacity:0.27" />
<path d="M 14.37,5.87 C 14.55,6.69 14.08,8.30 13.90,9.43 14.02,9.69 14.38,10.16 15.25,9.96 15.03,9.11 15.90,8.23 16.62,7.78 16.51,6.78 15.48,6.19 14.37,5.87 z" id="path5530" style="fill:#cdd6bc;fill-opacity:0.59" />
<path d="m 12.68,6.59 c -0.20,0.20 -0.95,1.08 -1.31,1.5 0.04,0.03 0.12,0.09 0.12,0.09 0.16,0.86 -0.06,1.45 -0.28,1.78 -0.21,0.32 0.38,0.76 0.21,1.25 -0.16,0.48 -0.27,1.41 -0.06,1.46 0.08,0.02 0.35,-0.16 0.65,-0.40 0.88,-1.50 0.91,-2.46 0.71,-2.75 -0.25,-0.35 -0.15,-0.70 0.31,-1.06 0.46,-0.35 -0.12,-2.12 -0.37,-1.87 z" id="path5534" style="fill:#ffffff;fill-opacity:0.59" />
<path d="m 12.62,6.28 c 0,0 -1.64,0.45 -1.96,0.59 -0.22,0.09 -0.39,0.38 -0.5,0.59 0.23,0.20 0.47,0.36 0.68,0.34 0.12,0.02 0.25,0.13 0.37,0.21 l 1.40,-1.75 z" id="path5539" style="fill:#ffffff;fill-opacity:0.33" />
<path d="m 11.26,7.95 c 0.71,-0.96 1.14,-1.71 1.71,-1.85 0.57,-0.14 2.43,-0.42 2.96,0.39 0.53,0.82 0.75,0.96 0.92,1.32 0.89,-0.42 1.96,-0.46 2.21,-0.32" id="path5545" style="fill:none;stroke:#a3a3a3;stroke-width:0.2" />
<path d="m 11.19,3.73 c 0.35,0.17 1.39,2.53 1.39,2.53" id="path5547" style="fill:none;stroke:#a3a3a3;stroke-width:0.2" />
<path d="M 11.87,4.91 C 13.90,4.30 16.09,3.84 18.98,4.66" id="path5549" style="fill:none;stroke:#a3a3a3;stroke-width:0.2" />
<path d="m 9.40,4.87 c -0.06,0 -0.15,0.00 -0.21,0.06 -0.00,0.00 0.00,0.02 0,0.03 -0.09,0.34 -0.08,0.93 0.03,1.25 C 9.30,6.44 9.59,6.87 9.93,7.25 11.01,6.96 10.40,5.58 10.06,5.28 9.86,5.10 9.62,4.87 9.40,4.87 z" id="path5566" style="fill:#ffffff;fill-opacity:0.69" />
<path d="M 10.81,3.84 C 10.02,4.25 9.43,4.61 9.34,4.68 9.12,4.84 9.05,5.78 9.21,6.21 9.32,6.49 9.70,7.04 10.12,7.43 10.30,7.06 10.47,6.69 10.59,6.53 10.91,6.06 11.87,6.09 11.87,6.09 c 0,0 -0.49,-0.20 -1.03,-0.78 C 10.56,5.01 10.56,4.45 10.81,3.84 z" id="path5578" style="fill:#e0e0e0;fill-opacity:0.32" />
<path d="m 16.31,9.20 1.07,1.99" id="path5588" style="fill:none;stroke:#b0b0b0;stroke-width:0.40" />
<path d="m 17.09,8.77 1.04,2.02" id="path5590" style="fill:none;stroke:#a7a7a7;stroke-width:0.40" />
<path d="m 17.88,8.48 0.97,1.89" id="path5592" style="fill:none;stroke:#a7a7a7;stroke-width:0.40" />
<path d="m 18.50,8.35 0.88,1.63" id="path5594" style="fill:none;stroke:#a7a7a7;stroke-width:0.40" />
<path d="m 16.08,10.18 0.71,1.33" id="path5596" style="fill:none;stroke:#c3c3c3;stroke-width:0.40" />
<path d="m 20.71,10.06 c 0.05,0.06 0.15,0.17 0.21,0.25 0.00,0.00 0.02,-0.00 0.03,0 0,0 -1.48,-2.38 -1.81,-2.81 0.32,-0.26 0.90,-0.85 0.90,-1.34 0,-0.48 -0.49,-1.25 -1.25,-1.84 -0.75,-0.59 -1.62,-1.93 -4.15,-1.71 -2.53,0.21 -5.09,1.93 -5.31,2.09 -0.21,0.16 -0.28,1.09 -0.12,1.53 0.16,0.43 1.03,1.64 1.62,1.59 0.26,0.05 0.65,0.37 0.65,0.37 0.16,0.86 -0.06,1.45 -0.28,1.78 -0.21,0.32 0.38,0.76 0.21,1.24 -0.16,0.48 -0.27,1.41 -0.06,1.46 0.21,0.05 1.55,-1.08 2.09,-2 0.40,-0.68 0.42,-1.13 0.40,-1.31 0.06,0.21 0.39,0.88 1.5,0.56 0.21,0.42 0.78,1.54 1.09,2.15" id="stroke02" style="fill:none;stroke:#3e3e3e;stroke-width:0.5" />
<path d="m 20.71,10.05 c 1.82,2.15 6.29,6.46 7.12,7.29 2.23,0.82 2.56,1.82 3.23,2.98 0.66,1.15 8.03,13.50 8.61,14.58 0.57,1.07 -0.57,2.73 -1.07,3.31 -0.49,0.57 -4.80,3.97 -5.96,4.72 -1.15,0.74 -4.55,1.40 -5.21,1.40 -0.66,0 -1.57,-0.24 -2.48,-1.90 -0.91,-1.65 -4.97,-9.77 -5.46,-10.85 -0.49,-1.07 -0.82,-2.31 -0.33,-4.80 0.49,-2.48 0.82,-4.14 0.99,-4.63 0.16,-0.49 0.33,-0.66 0.91,-1.07 0.41,-1.32 -0.49,-1.98 -0.74,-2.23 -0.24,-0.24 -0.62,-0.50 -0.71,-1.17 -0.08,-0.66 -0.24,-0.98 -0.69,-1.14 -0.30,-0.10 -0.74,-0.63 -0.66,-1.21 0.08,-0.57 -0.74,-1.10 -1.40,-1.26 -0.66,-0.16 -0.49,-1.07 -0.49,-1.65 0,-0.57 3.23,-2.81 4.39,-2.31 z" id="stroke01" style="fill:none;stroke:#26331e;stroke-width:0.5" />
</g>
</svg>
