<?xml version="1.0" encoding="UTF-8" standalone="no"?>
<!DOCTYPE svg PUBLIC "-//W3C//DTD SVG 1.0//EN" "http://www.w3.org/TR/2001/REC-SVG-20010904/DTD/svg10.dtd">
<svg xmlns:svg="http://www.w3.org/2000/svg" xmlns="http://www.w3.org/2000/svg" version="1.0" width="100%" height="100%" viewBox="0 0 48 48" id="_compass02">
<defs id="defs2385"/>
<g id="compass02" style="display:inline">
<path d="M 4.90,3.93 C 4.02,4.00 3.18,4.98 3.56,5.53 C 4.07,6.25 6.48,9.04 7.5,10.28 C 6.91,11.22 7.06,12.03 7.06,12.03 L 12.81,17.34 C 14.26,19.12 24.46,31.18 24.46,31.18 C 24.46,31.18 24.94,31.55 25,31.93 C 24.23,31.27 23.54,30.70 23.31,30.53 C 22.21,29.73 20.11,32.77 20.84,33.28 C 20.85,33.29 21.02,33.46 21.12,33.56 C 20.30,34.42 20.24,35.37 20.56,36.25 C 20.39,36.90 20.97,38.13 21.5,38.59 C 21.95,38.99 23.00,39.21 23.62,39.15 C 24.55,39.49 25.55,39.45 26.37,38.53 C 28.21,40.22 29.98,41.82 30.53,42.25 C 31.84,43.26 34.66,44.35 35.90,44.93 C 37.14,45.52 37.52,45.23 37.15,44.65 C 36.79,44.07 33.70,39.84 33.34,39.40 C 33.16,39.18 30.94,37.18 28.62,35.12 L 29.12,34.75 C 29.12,34.75 29.43,33.64 29.43,33.28 C 29.43,32.91 26,30.15 26,30.15 L 15.68,16.53 L 35.75,34.87 C 35.75,34.87 38.76,37.94 39.34,38.53 C 39.92,39.11 39.90,39.26 40.34,38.96 C 41.58,40.20 43.18,41.87 43.18,41.87 L 44.93,42.90 L 43.68,41 L 41.21,38.37 L 41.53,38.03 C 41.53,38.03 40.12,35.84 39.25,34.96 C 38.37,34.09 37.37,34.24 36.71,33.59 C 36.06,32.93 32.41,29.20 26.87,23.81 C 21.33,18.42 17.86,15.37 17.12,14.34 C 17.02,14.20 16.89,14.12 16.78,14.06 C 16.33,13.41 15.54,12.26 15.43,12.09 C 15.29,11.87 11.81,7.78 11.81,7.78 L 9.90,8.59 C 9.90,8.59 6.76,5.16 5.75,4.21 C 5.49,3.98 5.19,3.91 4.90,3.93 z" id="p3261" style="fill:#111310;fill-opacity:1;fill-rule:evenodd;stroke:none;display:inline"/>
<path d="M 21.12,31.81 C 20.73,32.43 20.54,33.07 20.84,33.28 C 20.85,33.29 21.02,33.46 21.12,33.56 C 20.30,34.42 20.24,35.37 20.56,36.25 C 20.39,36.90 20.97,38.13 21.5,38.59 C 21.95,38.99 23.00,39.21 23.62,39.15 C 24.55,39.49 25.55,39.45 26.37,38.53 C 28.21,40.22 29.98,41.82 30.53,42.25 C 30.96,42.58 31.57,42.92 32.21,43.25 L 33.53,42.15 L 21.12,31.81 z" id="p3513" style="fill:#3b3b3b;fill-opacity:0.42;fill-rule:evenodd;stroke:none;"/>
<path d="M 14.34,15.29 L 35.76,34.88 C 35.76,34.88 38.74,37.94 39.33,38.53 C 39.91,39.11 39.91,39.25 40.35,38.96 C 41.58,40.20 43.19,41.88 43.19,41.88 L 44.93,42.90 L 43.70,41.00 L 41.22,38.38 L 41.51,38.02 C 41.51,38.02 40.13,35.83 39.25,34.96 C 38.38,34.08 37.36,34.23 36.70,33.57 C 36.05,32.92 32.41,29.20 26.87,23.81 C 21.34,18.42 17.86,15.38 17.11,14.35 C 16.16,13.03 14.42,15.36 14.34,15.29 z" id="p2465" style="fill:#a91a4d;fill-opacity:1;fill-rule:evenodd;stroke:none;"/>
<path d="M 10.93,11.68 C 10.39,11.73 9.84,11.92 9.84,12.46 C 9.84,13.56 10.86,14.58 11.59,15.09 C 11.73,15.67 11.57,15.79 12.37,16.81 C 13.17,17.83 24.46,31.18 24.46,31.18 C 24.46,31.18 24.71,31.37 24.87,31.62 C 24.93,31.72 24.98,31.83 25,31.93 C 24.93,31.88 24.93,31.86 24.87,31.81 C 24.86,31.99 24.84,32.22 24.78,32.43 C 24.74,32.56 24.67,32.67 24.59,32.78 C 24.28,33.21 21.99,33.65 21.99,33.65 L 20.56,36.34 C 20.45,37.01 20.99,38.15 21.5,38.59 C 21.95,38.99 23.00,39.21 23.62,39.15 C 25.21,38.39 25.80,37.61 26.14,37.23 C 26.63,36.68 26.46,35.35 26.81,34.81 C 26.86,34.63 26.95,34.48 27.06,34.40 C 27.50,34.11 27.96,34.43 28.65,35.09 L 28.90,34.90 L 29.12,34.75 C 29.12,34.75 29.43,33.64 29.43,33.28 C 29.43,33.23 29.36,33.16 29.28,33.06 C 29.20,32.97 29.08,32.83 28.96,32.71 C 28.94,32.69 28.89,32.67 28.87,32.65 C 28.56,32.35 28.19,31.97 27.78,31.62 C 27.75,31.60 27.74,31.61 27.71,31.59 C 26.95,30.93 26.34,30.43 26.18,30.31 C 26.16,30.29 26,30.15 26,30.15 L 12.03,11.71 C 12.03,11.71 11.48,11.64 10.93,11.68 z" id="p2469" style="fill:#a91a4d;fill-opacity:1;fill-rule:evenodd;stroke:none;"/>
<path d="M 14.90,14.78 C 14.62,15.04 14.42,15.26 14.37,15.28 L 14.75,15.68 L 35.75,34.87 C 35.75,34.87 38.76,37.94 39.34,38.53 C 39.92,39.11 39.90,39.26 40.34,38.96 C 40.37,38.99 40.37,39.00 40.40,39.03 L 40.59,38.56 L 37.78,35.62 L 30.37,28.78 L 14.90,14.78 z" id="p3442" style="fill:#9e3a5c;fill-opacity:1;fill-rule:evenodd;stroke:none;"/>
<path d="M 4.90,3.93 C 4.02,4.00 3.18,4.98 3.56,5.53 C 4.07,6.25 6.48,9.04 7.5,10.28 C 6.91,11.22 7.06,12.03 7.06,12.03 L 8.84,13.68 L 12.81,17.34 C 12.76,17.27 12.40,16.84 12.37,16.81 C 11.57,15.79 11.73,15.67 11.59,15.09 C 10.90,14.61 9.95,13.67 9.84,12.65 L 11.06,13.68 L 14.21,16.34 L 15.15,15.81 L 17.18,14.65 C 17.18,14.65 15.58,12.31 15.43,12.09 C 15.29,11.87 11.81,7.78 11.81,7.78 L 9.90,8.59 C 9.90,8.59 9.13,7.72 8.21,6.75 C 7.30,5.77 6.25,4.69 5.75,4.21 C 5.49,3.98 5.19,3.91 4.90,3.93 z" id="p2473" style="fill:#1e9d06;fill-opacity:1;fill-rule:evenodd;stroke:none;display:inline"/>
<path d="M 4.90,3.93 C 4.02,4.00 3.18,4.98 3.56,5.53 C 4.07,6.25 6.48,9.04 7.5,10.28 C 6.91,11.22 7.06,12.03 7.06,12.03 L 8.84,13.68 L 12.81,17.34 C 12.76,17.27 12.40,16.84 12.37,16.81 C 11.57,15.79 11.73,15.67 11.59,15.09 C 10.90,14.61 9.95,13.67 9.84,12.65 L 11.06,13.68 L 14.21,16.34 L 14.71,16.06 L 11.53,13.03 L 8.25,9.5 C 8.25,9.5 8.97,9.04 9.87,8.56 C 9.84,8.53 9.11,7.70 8.21,6.75 C 7.30,5.77 6.25,4.69 5.75,4.21 C 5.49,3.98 5.19,3.91 4.90,3.93 z" id="p3393" style="fill:#3eba1a;fill-opacity:1;fill-rule:evenodd;stroke:none;display:inline"/>
<path d="M 7.51,10.28 L 8.19,9.41 L 9.88,8.59" id="p3396" style="fill:none;fill-rule:evenodd;stroke:#29861f;stroke-width:0.40;stroke-linecap:butt;stroke-linejoin:miter;stroke-miterlimit:4;stroke-dasharray:none;stroke-opacity:1;display:inline"/>
<path d="M 7.74,11.69 L 7.74,11.69 L 8.33,10.41 L 9.47,11.69 L 11.34,13.69 C 11.34,13.69 9.15,11.83 8.79,11.46 C 8.42,11.10 7.83,11.74 7.74,11.69 z" id="p3399" style="fill:#097701;fill-opacity:1;fill-rule:evenodd;stroke:none;display:inline"/>
<path d="M 4.90,3.93 C 4.02,4.00 3.18,4.98 3.56,5.53 C 3.60,5.59 3.79,5.84 3.87,5.93 C 4.59,4.62 5.63,4.59 7.65,6.12 C 6.91,5.34 6.15,4.59 5.75,4.21 C 5.49,3.98 5.19,3.91 4.90,3.93 z" id="p3402" style="fill:#1d9a05;fill-opacity:0.44;fill-rule:evenodd;stroke:none;display:inline"/>
<path d="M 11.81,7.78 L 9.90,8.59 C 9.84,8.63 9.80,8.67 9.71,8.71 C 9.08,9.05 11.31,8.69 11.90,9.25 C 12.38,9.69 13.10,10.62 15.18,11.78 C 14.64,11.10 11.81,7.78 11.81,7.78 z" id="p3411" style="fill:#136403;fill-opacity:0.41;fill-rule:evenodd;stroke:none;display:inline"/>
<path d="M 11.49,11.30 C 11.79,10.96 12.47,10.71 12.89,11.00" id="p3413" style="fill:none;fill-rule:evenodd;stroke:#1c5f06;stroke-width:0.80;stroke-linecap:round;stroke-linejoin:miter;stroke-miterlimit:4;stroke-dasharray:none;stroke-opacity:0.53;display:inline"/>
<path d="M 14.00,11.20 C 14.42,11.75 14.37,12.41 13.89,12.68 C 13.41,12.95 12.68,12.72 12.26,12.17 C 11.83,11.62 11.88,10.96 12.37,10.69 C 12.85,10.42 13.58,10.64 14.00,11.20 z" id="p3420" style="fill:#35372a;fill-opacity:1;fill-rule:evenodd;stroke:none;marker:none;visibility:visible;display:inline;overflow:visible;enable-background:accumulate"/>
<path d="M 13.53,10.88 L 13.23,11.43" id="p3423" style="fill:none;fill-rule:evenodd;stroke:#857853;stroke-width:0.5;stroke-linecap:round;stroke-linejoin:miter;stroke-miterlimit:4;stroke-dasharray:none;stroke-opacity:1"/>
<path d="M 12.40,11.65 C 12.28,11.65 12.15,11.69 12.03,11.71 C 12.07,11.87 12.13,12.03 12.25,12.18 C 12.57,12.61 13.09,12.84 13.53,12.81 C 13.43,11.98 12.97,11.65 12.40,11.65 z" id="p3425" style="fill:#9a883d;fill-opacity:0.26;fill-rule:evenodd;stroke:none;"/>
<path d="M 12.60,11.81 L 13.15,12.20" id="p3430" style="fill:none;fill-rule:evenodd;stroke:#e9df89;stroke-width:0.5;stroke-linecap:round;stroke-linejoin:miter;stroke-miterlimit:4;stroke-dasharray:none;stroke-opacity:1"/>
<path d="M 13.18,14.31 L 13.68,14.81" id="p3432" style="fill:none;fill-opacity:1;fill-rule:evenodd;stroke:#1c5f06;stroke-width:0.5;stroke-linecap:round;stroke-linejoin:miter;marker:none;stroke-miterlimit:4;stroke-dasharray:none;stroke-dashoffset:0;stroke-opacity:0.53;visibility:visible;display:inline;overflow:visible;enable-background:accumulate"/>
<path d="M 11.93,13.43 L 12.62,14.12" id="p3436" style="fill:none;fill-rule:evenodd;stroke:#eaeac1;stroke-width:0.40;stroke-linecap:round;stroke-linejoin:miter;stroke-miterlimit:4;stroke-dasharray:none;stroke-opacity:0.69"/>
<path d="M 14.35,15.99 L 17.01,14.48" id="p3440" style="fill:none;fill-rule:evenodd;stroke:#41a422;stroke-width:0.5;stroke-linecap:round;stroke-linejoin:miter;stroke-miterlimit:4;stroke-dasharray:none;stroke-opacity:1"/>
<path d="M 9.87,12.5 L 12.28,14.75 L 14.21,16.34 L 17.21,14.62" id="p3438" style="fill:none;fill-rule:evenodd;stroke:#296213;stroke-width:0.30;stroke-linecap:round;stroke-linejoin:miter;stroke-miterlimit:4;stroke-dasharray:none;stroke-opacity:1"/>
<path d="M 26.03,24.89 L 27.10,25.84" id="p3450" style="fill:none;fill-opacity:1;fill-rule:evenodd;stroke:#d17495;stroke-width:0.40;stroke-linecap:round;stroke-linejoin:miter;stroke-miterlimit:4;stroke-dasharray:none;stroke-opacity:1"/>
<path d="M 38.17,36.02 L 40.53,38.55" id="p3452" style="fill:none;fill-opacity:1;fill-rule:evenodd;stroke:#cd4d77;stroke-width:0.30;stroke-linecap:round;stroke-linejoin:miter;marker:none;stroke-miterlimit:4;stroke-dasharray:none;stroke-dashoffset:0;stroke-opacity:1;visibility:visible;display:inline;overflow:visible;enable-background:accumulate"/>
<path d="M 37.51,35.40 L 37.14,35.07" id="p3454" style="fill:none;fill-opacity:1;fill-rule:evenodd;stroke:#e2a7bc;stroke-width:0.30;stroke-linecap:round;stroke-linejoin:miter;marker:none;stroke-miterlimit:4;stroke-dasharray:none;stroke-dashoffset:0;stroke-opacity:1;visibility:visible;display:inline;overflow:visible;enable-background:accumulate"/>
<path d="M 39.27,37.20 L 40.30,38.31" id="p3456" style="fill:none;fill-opacity:1;fill-rule:evenodd;stroke:#e2a7bc;stroke-width:0.30;stroke-linecap:round;stroke-linejoin:miter;marker:none;stroke-miterlimit:4;stroke-dasharray:none;stroke-dashoffset:0;stroke-opacity:1;visibility:visible;display:inline;overflow:visible;enable-background:accumulate"/>
<path d="M 41.28,38.43 C 41.02,38.60 40.78,38.85 40.53,39.15 C 41.72,40.35 43.18,41.87 43.18,41.87 L 44.93,42.90 L 43.68,41 L 41.28,38.43 z" id="p3458" style="fill:#9b978c;fill-opacity:1;fill-rule:evenodd;stroke:none;"/>
<path d="M 42.92,40.94 L 43.67,41.64" id="p3463" style="fill:none;fill-rule:evenodd;stroke:#e6e6e6;stroke-width:0.69;stroke-linecap:round;stroke-linejoin:miter;stroke-miterlimit:4;stroke-dasharray:none;stroke-opacity:1"/>
<path d="M 10.06,12 C 9.93,12.11 9.84,12.26 9.84,12.46 C 9.84,13.56 10.86,14.58 11.59,15.09 C 11.73,15.67 11.57,15.79 12.37,16.81 C 13.17,17.83 24.46,31.18 24.46,31.18 C 24.46,31.18 24.71,31.37 24.87,31.62 C 24.89,31.65 24.89,31.68 24.90,31.71 L 25.15,31.15 L 24.03,29.34 L 10.06,12 z" id="p3465" style="fill:#9e3a5c;fill-opacity:1;fill-rule:evenodd;stroke:none;marker:none;visibility:visible;display:inline;overflow:visible;enable-background:accumulate"/>
<path d="M 32.93,39.75 C 32.67,40.01 33.26,40.76 33,41.03 C 32.73,41.29 32.07,40.88 31.81,41.21 C 31.54,41.55 32.32,42.14 32.06,42.40 C 31.90,42.56 31.29,42.48 30.53,42.25 C 31.84,43.26 34.66,44.35 35.90,44.93 C 37.14,45.52 37.52,45.23 37.15,44.65 C 36.83,44.13 34.53,40.96 33.75,39.93 C 33.32,39.78 33.00,39.68 32.93,39.75 z" id="p3486" style="fill:#c59c67;fill-opacity:1;fill-rule:evenodd;stroke:none;display:inline"/>
<path d="M 36.56,43.84 C 36.34,44.26 36.09,44.61 35.81,44.87 C 35.83,44.88 35.88,44.92 35.90,44.93 C 37.14,45.52 37.52,45.23 37.15,44.65 C 37.09,44.55 36.74,44.10 36.56,43.84 z" id="p3492" style="fill:#000000;fill-opacity:1;fill-rule:evenodd;stroke:none;"/>
<path d="M 32.93,39.75 C 32.91,39.77 32.88,39.80 32.87,39.84 C 32.87,39.85 32.87,39.86 32.87,39.87 C 32.91,39.96 32.94,40.01 32.87,39.93 C 32.87,39.99 32.89,40.05 32.90,40.12 C 33.43,40.74 34.00,41.62 33.96,41.81 C 33.60,41.35 33.29,40.86 32.96,40.37 C 32.98,40.42 32.98,40.48 33,40.53 C 33.20,40.78 33.38,41.04 33.43,41.25 C 33.35,41.19 33.21,41.06 33.06,40.90 C 33.05,40.94 33.02,40.97 33,41 C 33.48,41.52 33.95,42.05 34.34,42.65 C 33.71,42.35 33.26,41.61 32.75,41.12 C 32.53,41.13 32.24,41.05 32.03,41.09 C 32.01,41.14 31.98,41.15 31.93,41.12 C 31.92,41.11 31.91,41.13 31.90,41.12 C 31.87,41.14 31.84,41.18 31.81,41.21 C 31.80,41.23 31.78,41.23 31.78,41.25 C 31.78,41.25 31.77,41.27 31.78,41.28 C 31.89,41.49 31.92,41.72 31.81,41.59 C 31.88,41.76 31.99,41.93 32.06,42.09 C 32.07,42.11 32.08,42.13 32.09,42.15 C 32.22,42.32 32.34,42.48 32.37,42.56 C 32.30,42.49 32.19,42.43 32.09,42.37 C 32.08,42.38 32.07,42.39 32.06,42.40 C 32.02,42.43 31.97,42.45 31.90,42.46 C 32.25,42.82 33.08,43.09 32.31,43 C 32.30,43.09 32.32,43.22 32.37,43.34 C 32.43,43.37 32.50,43.37 32.56,43.40 C 32.51,42.96 32.79,43.27 33.12,43.68 C 33.32,43.78 33.45,43.84 33.65,43.93 C 33.62,43.89 33.55,43.84 33.53,43.81 C 32.84,43.05 32.21,42.17 31.90,41.18 C 33.06,41.97 33.67,43.29 34.56,44.34 C 34.62,44.37 34.68,44.38 34.75,44.40 C 34.76,44.41 34.76,44.43 34.78,44.43 C 34.86,44.47 34.95,44.49 35.03,44.53 C 34.22,43.63 33.56,42.57 32.90,41.59 C 33.82,42.35 34.20,43.69 35.37,44.15 C 35.71,44.74 36.15,44.45 35.87,44.03 C 36.07,44.31 36.20,44.43 35.93,43.90 C 35.65,43.40 34.80,42.15 35.65,43.21 C 36.60,43.94 35.28,42.25 35.06,41.90 C 34.61,41.25 34.19,40.59 33.75,39.93 C 33.73,39.93 33.72,39.94 33.71,39.93 C 33.62,39.90 33.57,39.86 33.5,39.84 C 33.94,40.50 34.45,41.13 34.87,41.81 C 35.22,42.32 36.33,43.86 35.34,42.65 C 34.53,41.71 33.86,40.66 33.03,39.75 C 33.00,39.75 32.94,39.73 32.93,39.75 z M 33.53,40.68 C 33.78,40.90 33.60,40.89 33.53,40.68 z M 33.81,41.21 C 34.32,41.75 35.20,43.15 35.21,43.34 C 34.67,42.69 34.22,41.95 33.81,41.21 z M 30.93,42.34 C 31.04,42.47 31.14,42.59 31.25,42.71 C 31.32,42.76 31.39,42.83 31.46,42.87 C 31.33,42.71 31.19,42.54 31.06,42.37 C 31.02,42.36 30.98,42.35 30.93,42.34 z M 33.84,42.53 C 34.23,42.80 35.46,44.35 34.46,43.34 C 34.24,43.07 34.06,42.80 33.84,42.53 z M 34.12,42.62 C 34.28,42.77 34.42,42.90 34.46,42.96 C 34.42,42.93 34.32,42.84 34.12,42.62 z M 35,42.62 C 35.01,42.62 35.08,42.73 35.28,43 C 35.36,43.20 35.66,43.68 35.87,44 C 35.83,43.94 35.78,43.90 35.71,43.84 C 35.53,43.55 34.95,42.62 35,42.62 z M 35,43.37 C 35.48,43.58 36.09,44.88 35.31,43.90 C 35.18,43.74 35.08,43.56 35,43.37 z" id="p3497" style="fill:#875616;fill-opacity:0.31;fill-rule:evenodd;stroke:none;"/>
<path d="M 28.09,37.72 L 29.01,38.50" id="p3518" style="fill:none;fill-rule:evenodd;stroke:#3e3e3e;stroke-width:0.5;stroke-linecap:round;stroke-linejoin:miter;stroke-miterlimit:4;stroke-dasharray:none;stroke-opacity:1"/>
<path d="M 30.29,39.45 L 31.10,38.61" id="p3526" style="fill:none;fill-rule:evenodd;stroke:#494949;stroke-width:1.29;stroke-linecap:round;stroke-linejoin:miter;stroke-miterlimit:4;stroke-dasharray:none;stroke-opacity:0.32"/>
<path d="M 29.96,39.27 L 30.40,39.63" id="p3520" style="fill:none;fill-rule:evenodd;stroke:#6d6d6d;stroke-width:0.60;stroke-linecap:round;stroke-linejoin:miter;stroke-miterlimit:4;stroke-dasharray:none;stroke-opacity:1"/>
<path d="M 31.32,40.48 L 31.91,39.85" id="p3522" style="fill:none;fill-rule:evenodd;stroke:#4c4c4c;stroke-width:1.10;stroke-linecap:round;stroke-linejoin:miter;stroke-miterlimit:4;stroke-dasharray:none;stroke-opacity:0.69"/>
<path d="M 22.62,30.43 C 21.53,30.77 20.25,32.86 20.84,33.28 C 20.84,33.28 20.87,33.30 20.87,33.31 C 21.26,32.64 21.33,32.34 21.81,31.96 C 22.22,31.64 22.31,30.89 22.71,30.43 C 22.68,30.44 22.65,30.42 22.62,30.43 z" id="p3528" style="fill:#c59c67;fill-opacity:1;fill-rule:evenodd;stroke:none;"/>
<path d="M 22.38,32.09 L 23.35,31.76" id="p3533" style="fill:none;fill-rule:evenodd;stroke:#3a3a3a;stroke-width:1.20;stroke-linecap:round;stroke-linejoin:miter;stroke-miterlimit:4;stroke-dasharray:none;stroke-opacity:1"/>
<path d="M 23.78,36.42 C 24.40,37.25 24.34,38.30 23.65,38.75 C 22.95,39.20 21.88,38.89 21.26,38.05 C 20.64,37.22 20.70,36.17 21.39,35.72 C 22.09,35.27 23.16,35.58 23.78,36.42 L 23.78,36.42 z" id="p3537" style="fill:#c8c0b5;fill-opacity:1;fill-rule:evenodd;stroke:none;marker:none;visibility:visible;display:inline;overflow:visible;enable-background:accumulate"/>
<path d="M 24.41,38.55 C 25.03,37.96 25.13,36.95 24.56,36.05 C 24.06,35.25 23.16,34.78 22.34,34.80 C 22.07,34.80 21.80,34.87 21.56,34.99 C 21.24,35.14 21.03,35.38 20.87,35.67" id="p3547" style="fill:none;fill-opacity:1;fill-rule:evenodd;stroke:#761337;stroke-width:0.2;stroke-linecap:round;stroke-linejoin:miter;marker:none;stroke-miterlimit:4;stroke-dasharray:none;stroke-dashoffset:0;stroke-opacity:1;visibility:visible;display:inline;overflow:visible;enable-background:accumulate"/>
<path d="M 24.69,38.20 C 25.31,37.61 25.41,36.60 24.85,35.70 C 24.34,34.90 23.44,34.43 22.63,34.45 C 22.35,34.45 22.09,34.51 21.85,34.63 C 21.52,34.79 21.31,35.03 21.16,35.32" id="p3553" style="fill:none;fill-opacity:1;fill-rule:evenodd;stroke:#761337;stroke-width:0.2;stroke-linecap:round;stroke-linejoin:miter;marker:none;stroke-miterlimit:4;stroke-dasharray:none;stroke-dashoffset:0;stroke-opacity:1;visibility:visible;display:inline;overflow:visible;enable-background:accumulate"/>
<path d="M 24.15,38.91 C 24.78,38.32 24.87,37.31 24.31,36.41 C 23.81,35.61 22.91,35.14 22.09,35.16 C 21.82,35.17 21.55,35.23 21.31,35.35 C 20.99,35.51 20.78,35.74 20.62,36.04" id="p3555" style="fill:none;fill-opacity:1;fill-rule:evenodd;stroke:#761337;stroke-width:0.2;stroke-linecap:round;stroke-linejoin:miter;marker:none;stroke-miterlimit:4;stroke-dasharray:none;stroke-dashoffset:0;stroke-opacity:1;visibility:visible;display:inline;overflow:visible;enable-background:accumulate"/>
<path d="M 23.12,32.65 L 22.62,32.96 L 22.43,32.75 L 21.81,33.18 L 21.62,33.06 L 21.12,33.56 L 21.06,33.62 C 20.29,34.46 20.25,35.39 20.56,36.25 C 20.52,36.39 20.53,36.57 20.56,36.75 C 20.75,35.77 21.40,34.68 22.03,34.37 C 22.28,34.25 22.56,34.19 22.84,34.18 C 23.69,34.16 24.57,34.63 25.09,35.46 C 25.78,36.57 25.47,37.75 24.53,38.37 C 23.94,38.76 23.48,39.00 23.09,39.15 C 23.28,39.17 23.47,39.17 23.62,39.15 C 24.55,39.49 25.55,39.45 26.37,38.53 C 26.38,38.54 26.39,38.55 26.40,38.56 L 26.93,37.46 L 26.75,37.18 L 27.12,36.56 L 26.81,36.21 L 27,35.56 L 26.31,35.21 L 26.40,34.68 L 25.71,34.28 L 25.78,33.93 L 25.06,33.62 L 24.78,33.09 L 24.15,33.12 L 23.87,32.75 L 23.34,32.81 L 23.12,32.65 z" id="p3535" style="fill:#148a1c;fill-opacity:1;fill-rule:evenodd;stroke:none;display:inline"/>
<path d="M 22.05,35.16 C 22.44,35.16 22.89,35.25 23.17,35.41" id="p3557" style="fill:none;fill-rule:evenodd;stroke:#724e69;stroke-width:0.40;stroke-linecap:round;stroke-linejoin:miter;stroke-miterlimit:4;stroke-dasharray:none;stroke-opacity:1"/>
<path d="M 22.51,36.21 C 22.51,36.21 23.26,36.37 23.53,37.38" id="p3559" style="fill:none;fill-rule:evenodd;stroke:#a9a9a9;stroke-width:1px;stroke-linecap:round;stroke-linejoin:miter;stroke-opacity:0.55"/>
<path d="M 22.85,37.52 C 22.94,37.79 23.44,38.14 23.44,38.14" id="p3561" style="fill:none;fill-rule:evenodd;stroke:#8f8f8f;stroke-width:0.80;stroke-linecap:round;stroke-linejoin:miter;stroke-miterlimit:4;stroke-dasharray:none;stroke-opacity:0.57"/>
<path d="M 29.40,33.21 C 28.80,33.54 28.16,33.91 27.56,34.34 C 27.87,34.41 28.21,34.66 28.65,35.09 L 28.90,34.90 L 29.12,34.75 C 29.12,34.75 29.43,33.64 29.43,33.28 C 29.43,33.26 29.41,33.23 29.40,33.21 z" id="p3568" style="fill:#cd8fa5;fill-opacity:0.42;fill-rule:evenodd;stroke:none;display:inline"/>
<path d="M 23.12,32.65 L 22.62,32.96 L 22.53,32.87 L 22.43,33 L 22.75,33.28 L 23.21,32.71 L 23.12,32.65 z M 23.87,32.75 L 23.65,32.78 L 23.25,33.25 L 23.56,33.5 L 24.03,32.96 L 23.87,32.75 z M 24.68,33.09 L 24.18,33.68 L 24.46,33.93 L 24.93,33.40 L 24.78,33.09 L 24.68,33.09 z M 25.5,33.81 L 25.03,34.37 L 25.31,34.65 L 25.75,34.15 L 25.78,33.93 L 25.5,33.81 z M 26.25,34.59 L 25.81,35.09 L 26.12,35.37 L 26.31,35.15 L 26.40,34.68 L 26.25,34.59 z M 26.87,35.5 L 26.40,36.06 L 26.71,36.31 L 26.81,36.21 L 26.81,36.18 L 27,35.56 L 26.87,35.5 z" id="p3571" style="fill:#7ad080;fill-opacity:0.35;fill-rule:evenodd;stroke:none;"/>
<path d="M 27.57,31.84 L 26.20,33.21" id="p3484" style="fill:none;fill-rule:evenodd;stroke:#4c4c4c;stroke-width:0.89;stroke-linecap:round;stroke-linejoin:miter;stroke-miterlimit:4;stroke-dasharray:none;stroke-opacity:1"/>
<path d="M 24.95,31.71 L 26.26,30.53" id="p3482" style="fill:none;fill-rule:evenodd;stroke:#4d1336;stroke-width:0.60;stroke-linecap:butt;stroke-linejoin:miter;stroke-miterlimit:4;stroke-dasharray:none;stroke-opacity:0.46"/>
<path d="M 4.90,3.93 C 4.02,4.00 3.18,4.98 3.56,5.53 C 4.07,6.25 6.48,9.04 7.5,10.28 C 6.91,11.22 7.06,12.03 7.06,12.03 L 12.81,17.34 C 14.26,19.12 24.46,31.18 24.46,31.18 C 24.46,31.18 24.94,31.55 25,31.93 C 24.23,31.27 23.54,30.70 23.31,30.53 C 22.21,29.73 20.11,32.77 20.84,33.28 C 20.85,33.29 21.02,33.46 21.12,33.56 C 20.30,34.42 20.24,35.37 20.56,36.25 C 20.39,36.90 20.97,38.13 21.5,38.59 C 21.95,38.99 23.00,39.21 23.62,39.15 C 24.55,39.49 25.55,39.45 26.37,38.53 C 28.21,40.22 29.98,41.82 30.53,42.25 C 31.84,43.26 34.66,44.35 35.90,44.93 C 37.14,45.52 37.52,45.23 37.15,44.65 C 36.79,44.07 33.70,39.84 33.34,39.40 C 33.16,39.18 30.94,37.18 28.62,35.12 L 29.12,34.75 C 29.12,34.75 29.43,33.64 29.43,33.28 C 29.43,32.91 26,30.15 26,30.15 L 15.68,16.53 L 35.75,34.87 C 35.75,34.87 38.76,37.94 39.34,38.53 C 39.92,39.11 39.90,39.26 40.34,38.96 C 41.58,40.20 43.18,41.87 43.18,41.87 L 44.93,42.90 L 43.68,41 L 41.21,38.37 L 41.53,38.03 C 41.53,38.03 40.12,35.84 39.25,34.96 C 38.37,34.09 37.37,34.24 36.71,33.59 C 36.06,32.93 32.41,29.20 26.87,23.81 C 21.33,18.42 17.86,15.37 17.12,14.34 C 17.02,14.20 16.89,14.12 16.78,14.06 C 16.33,13.41 15.54,12.26 15.43,12.09 C 15.29,11.87 11.81,7.78 11.81,7.78 L 9.90,8.59 C 9.90,8.59 6.76,5.16 5.75,4.21 C 5.49,3.98 5.19,3.91 4.90,3.93 z" id="stroke01" style="fill:none;fill-rule:evenodd;stroke:#26020d;stroke-width:0.5;stroke-linecap:butt;stroke-linejoin:round;stroke-miterlimit:4;stroke-dasharray:none;stroke-opacity:1;display:inline"/>
</g>
</svg>
