<?xml version="1.0" encoding="UTF-8" standalone="no"?>
<!DOCTYPE svg PUBLIC "-//W3C//DTD SVG 1.0//EN" "http://www.w3.org/TR/2001/REC-SVG-20010904/DTD/svg10.dtd">
<svg xmlns:svg="http://www.w3.org/2000/svg" xmlns="http://www.w3.org/2000/svg" version="1.0" width="100%" height="100%" viewBox="0 0 48 48" id="_compass01">
<defs id="defs2385"/>
<g id="compass01" style="display:inline">
<path d="M 17.25,3.62 C 16.03,3.84 12.97,8.82 10.12,15.25 C 7.08,22.1 5.32,28.32 6.34,28.78 C 8.04,29.59 6.87,29.04 8.5,29.78 C 8.92,29.97 9.74,29.12 10.78,27.62 C 11.22,28.02 11.82,28.17 12,28.06 C 12.19,27.93 12.4,27.62 12.4,27.62 L 12.84,27.96 C 12.7,28.64 12.62,29.32 12.62,30.03 C 12.5,30.94 12.52,31.83 12.53,32.75 C 12.53,39.29 18.5,44.62 25.87,44.62 C 30.52,44.62 34.63,42.49 37.03,39.28 C 37.13,39.34 37.28,39.39 37.4,39.46 C 37.35,40.16 37.53,40.89 37.96,41.53 C 38.88,42.85 40.58,43.26 41.75,42.37 C 42.91,41.48 43.06,39.66 42.15,38.34 C 41.4,37.26 40.13,36.82 39.06,37.18 C 38.81,37.07 38.59,36.95 38.4,36.87 C 40.23,31.61 39.45,25.98 35.59,21.84 C 35.64,21.73 35.68,21.64 35.68,21.56 C 35.68,21.02 34.89,20.51 34.43,20.59 C 34.33,20.61 34.23,20.63 34.15,20.68 C 31.89,19.12 29.05,18.18 25.96,18.18 C 21.18,18.18 17.01,20.42 14.65,23.78 L 14.43,23.65 C 14.43,23.65 15.21,22.47 15.21,22.18 C 15.21,21.96 14.84,21.48 14.37,21.34 C 14.86,20.34 15.35,19.28 15.84,18.18 C 18.88,11.33 20.64,5.13 19.62,4.68 C 18.91,4.32 18.03,3.92 17.25,3.62 z M 41.06,38.34 C 41.23,38.47 41.39,38.61 41.53,38.81 C 42.21,39.79 42.07,41.08 41.28,41.68 C 40.48,42.29 39.27,42.04 38.59,41.06 C 38.33,40.69 38.18,40.27 38.15,39.87 C 38.83,40.21 39.51,40.5 39.65,40.5 C 39.94,40.5 40.6,40.03 40.81,39.75 C 40.99,39.5 41.13,38.68 41.06,38.34 z" id="p2463" style="fill:#a88d60;fill-opacity:1;fill-rule:evenodd;stroke:none;marker:none;visibility:visible;display:inline;overflow:visible;enable-background:accumulate"/>
<path d="M 19.56,4.65 C 19.16,4.81 18.63,5.36 17.96,6.25 C 17.95,6.24 17.95,6.22 17.93,6.21 L 14.28,14.84 L 16.71,16.12 C 19.2,10.13 20.53,5.09 19.62,4.68 C 19.6,4.67 19.58,4.66 19.56,4.65 z" id="p3426" style="fill:#221d0b;fill-opacity:0.51;fill-rule:evenodd;stroke:none;display:inline"/>
<path d="M 18.03,6.18 C 18.01,6.21 17.98,6.22 17.96,6.25 C 17.95,6.24 17.95,6.22 17.93,6.21 C 17.47,6.15 16.71,6.87 16.28,7.78 C 16.2,7.93 16.14,8.07 16.09,8.21 C 16.04,8.36 16.02,8.49 16,8.62 C 15.95,8.87 15.97,9.09 16.03,9.25 C 15.93,9.4 15.84,9.58 15.75,9.75 L 15.37,11.53 L 17.93,13.12 C 18.76,10.89 19.33,8.91 19.65,7.43 L 18.03,6.18 z" id="p3428" style="fill:#221d0b;fill-opacity:0.51;fill-rule:evenodd;stroke:none;display:inline"/>
<path d="M 8.56,27.31 C 8.31,28.49 8.25,29.36 8.43,29.75 C 8.48,29.76 8.45,29.75 8.5,29.78 C 8.84,29.93 9.45,29.37 10.21,28.37 C 9.84,28.05 9.21,27.69 8.56,27.31 z" id="p3424" style="fill:#221d0b;fill-opacity:0.51;fill-rule:evenodd;stroke:none;display:inline"/>
<path d="M 18.18,5.96 C 18.1,6.07 18.05,6.13 17.96,6.25 C 17.95,6.24 17.95,6.22 17.93,6.21 C 17.47,6.15 16.71,6.87 16.28,7.78 C 15.98,8.39 15.91,8.93 16.03,9.25 C 14.88,11.23 13.62,13.71 12.4,16.46 C 10.22,21.38 8.74,25.82 8.4,28.18 C 9.95,26.27 12.17,22.33 14.28,17.59 C 16.44,12.72 17.85,8.35 18.18,5.96 z" id="p3294" style="fill:#635944;fill-opacity:0.95;fill-rule:evenodd;stroke:none;marker:none;visibility:visible;display:inline;overflow:visible;enable-background:accumulate"/>
<path d="M 17.75,6.21 C 17.28,6.32 16.66,6.98 16.28,7.78 C 15.98,8.39 15.91,8.93 16.03,9.25 C 14.88,11.23 13.62,13.71 12.4,16.46 C 11.92,17.54 11.5,18.57 11.09,19.59 C 12.69,17.51 15.21,11.78 15.68,11.78 C 15.89,11.78 16.23,11.75 16.62,11.62 C 17.29,9.68 17.81,7.96 18.06,6.68 C 18.02,6.5 17.98,6.38 17.93,6.21 C 17.93,6.21 17.9,6.22 17.9,6.21 C 17.85,6.21 17.8,6.2 17.75,6.21 z" id="p3384" style="fill:#44697a;fill-opacity:0.37;fill-rule:evenodd;stroke:none;display:inline"/>
<path d="M 10.59,23.59 C 10.57,23.61 10.51,23.71 10.37,23.96 C 10.05,24.53 9.71,24.85 9.12,25.12 C 8.88,25.91 8.72,26.59 8.59,27.21 L 8.9,27.25 L 10.59,28.25 L 11.84,25.87 C 11.84,25.87 10.72,25.31 10.5,24.75 C 10.33,24.32 10.65,23.54 10.59,23.59 z" id="p3382" style="fill:#d7aa24;fill-opacity:0.51;fill-rule:evenodd;stroke:none;display:inline"/>
<path d="M 8.4,28.18 C 9.95,26.27 12.17,22.33 14.28,17.59 C 16.44,12.72 17.85,8.35 18.18,5.96 C 18.1,6.07 18.05,6.13 17.96,6.25 C 17.95,6.24 17.95,6.22 17.93,6.21" id="p3322" style="fill:none;fill-opacity:0.76;fill-rule:evenodd;stroke:#31270e;stroke-width:0.30;stroke-linecap:round;stroke-linejoin:miter;marker:none;stroke-miterlimit:4;stroke-dasharray:none;stroke-dashoffset:0;stroke-opacity:1;visibility:visible;display:inline;overflow:visible;enable-background:accumulate"/>
<path d="M 8.62,18.87 C 6.55,24.15 5.51,28.41 6.34,28.78 C 7.99,29.56 7.01,29.1 8.43,29.75 C 7.96,28.78 9,24.87 10.93,20 C 10.82,19.94 9.4,19.26 8.62,18.87 z" id="p3324" style="fill:#738d8d;fill-opacity:0.77;fill-rule:evenodd;stroke:none;display:inline"/>
<path d="M 9.46,16.81 C 8.49,19.13 7.67,21.32 7.09,23.18 L 9.34,24.37 C 9.96,22.4 10.85,20.07 11.93,17.56 L 9.46,16.81 z" id="p3326" style="fill:#1e1809;fill-opacity:0.43;fill-rule:evenodd;stroke:none;display:inline"/>
<path d="M 13.31,8.84 C 12.52,10.25 11.67,11.9 10.84,13.68 L 13.34,14.37 C 14.11,12.75 14.89,11.27 15.62,9.96 L 13.31,8.84 z" id="p3328" style="fill:#faf7b1;fill-opacity:0.63;fill-rule:evenodd;stroke:none;display:inline"/>
<path d="M 16.31,4.34 C 15.91,4.77 15.45,5.38 14.93,6.15 L 17.03,6.68 C 17.35,6.36 17.69,6.18 17.93,6.21 C 17.95,6.22 17.95,6.24 17.96,6.25 C 18.23,5.89 18.46,5.64 18.68,5.4 L 16.31,4.34 z" id="p3330" style="fill:#faf7b1;fill-opacity:0.63;fill-rule:evenodd;stroke:none;display:inline"/>
<path d="M 17.25,3.62 C 16.93,3.68 16.49,4.07 15.96,4.71 L 18.53,5.59 C 18.93,5.12 19.28,4.76 19.56,4.65 C 18.86,4.3 18.01,3.91 17.25,3.62 z" id="p3332" style="fill:#bcb9a5;fill-opacity:0.77;fill-rule:evenodd;stroke:none;display:inline"/>
<path d="M 13.03,9.34 C 12.18,10.88 11.31,12.66 10.43,14.59 L 11.9,14.81 C 11.9,14.81 11.84,13.3 12.28,13.15 C 12.51,13.07 13.24,13.12 13.9,13.21 C 14.39,12.22 14.9,11.29 15.37,10.43 L 13.03,9.34 z" id="p3360" style="fill:#fffbe7;fill-opacity:0.68;fill-rule:evenodd;stroke:none;display:inline"/>
<path d="M 15.78,9.42 C 15.46,7.98 16.53,6.73 17.03,6.35" id="p3380" style="fill:none;fill-rule:evenodd;stroke:#edda90;stroke-width:0.5;stroke-linecap:butt;stroke-linejoin:miter;stroke-miterlimit:4;stroke-dasharray:none;stroke-opacity:0.76"/>
<path d="M 8.09,20.18 C 7.93,20.61 7.8,21.02 7.65,21.43 L 9.93,22.65 C 10.09,22.19 10.25,21.73 10.43,21.25 L 8.09,20.18 z" id="p3364" style="fill:#482312;fill-opacity:0.68;fill-rule:evenodd;stroke:none;display:inline"/>
<path d="M 9.78,16.06 C 8.25,19.59 7.09,22.86 6.5,25.21 C 7.3,25.63 7.99,25.95 8.78,26.31 C 9.42,23.81 10.7,20.3 12.4,16.46 C 12.41,16.45 12.43,16.45 12.43,16.43 L 9.78,16.06 z" id="p3362" style="fill:#482312;fill-opacity:0.37;fill-rule:evenodd;stroke:none;display:inline"/>
<path d="M 17.25,3.62 C 16.03,3.84 12.97,8.82 10.12,15.25 C 7.08,22.1 5.32,28.32 6.34,28.78 C 7.99,29.56 7.01,29.1 8.43,29.75 C 7.85,28.55 9.54,22.92 12.4,16.46 C 13.62,13.71 14.88,11.23 16.03,9.25 C 15.91,8.93 15.98,8.39 16.28,7.78 C 16.71,6.87 17.47,6.15 17.93,6.21 C 17.95,6.22 17.95,6.24 17.96,6.25 C 18.63,5.36 19.16,4.81 19.56,4.65 C 18.86,4.3 18.01,3.91 17.25,3.62 z" id="p3314" style="fill:none;fill-opacity:0.76;fill-rule:evenodd;stroke:#2b1400;stroke-width:0.40;stroke-linecap:round;stroke-linejoin:miter;marker:none;stroke-miterlimit:4;stroke-dasharray:none;stroke-dashoffset:0;stroke-opacity:1;visibility:visible;display:inline;overflow:visible;enable-background:accumulate"/>
<path d="M 12.59,30.62 C 12.54,31.33 12.52,32.03 12.53,32.75 C 12.53,39.29 18.5,44.62 25.87,44.62 C 30.52,44.62 35.48,41.89 37.03,39.28 C 39.2,35.59 39.05,35.08 39.25,32.75 C 37.83,37.95 32.57,41.81 26.28,41.81 C 19.15,41.81 13.32,36.86 12.93,30.62 L 12.59,30.62 z" id="p3189" style="fill:#61726f;fill-opacity:0.82;fill-rule:evenodd;stroke:none;marker:none;visibility:visible;display:inline;overflow:visible;enable-background:accumulate"/>
<path d="M 36.58,38.93 C 36.62,39 37.14,39.31 37.36,39.45 C 37.48,38.81 38.14,38.93 38.19,39.86 C 38.69,40.15 39.12,40.3 39.65,40.5 C 39.94,40.5 40.6,40.05 40.8,39.76 C 41.01,39.47 41.18,38.35 41.01,38.19 C 40.85,38.02 38.11,36.7 37.91,36.7 C 37.7,36.7 37.29,37.44 37.12,37.69 C 36.96,37.94 36.67,38.72 36.58,38.93 z" id="p3271" style="fill:#a58144;fill-opacity:1;fill-rule:evenodd;stroke:none;display:inline"/>
<path d="M 40.02,39.09 C 39.86,39.57 39.74,40.18 39.68,40.57 C 39.97,40.43 40.51,40.14 40.76,39.81 C 40.96,39.54 41.03,39.2 41.07,38.88 C 41.14,38.22 40.96,38.13 40.78,38.04 C 40.35,38.38 40.19,38.62 40.02,39.09 z" id="p3240" style="fill:#5c573e;fill-opacity:0.76;fill-rule:evenodd;stroke:none;display:inline"/>
<path d="M 37.24,37.8 C 37.24,37.8 39.18,38.91 39.59,39.04 C 40,39.17 40.29,38.56 39.84,38.37 C 39.4,38.18 37.59,37.23 37.59,37.23 L 37.24,37.8 z" id="p3244" style="fill:#f1d961;fill-opacity:0.57;fill-rule:evenodd;stroke:none;display:inline"/>
<path d="M 38.24,40.75 C 38.51,41.29 38.57,41.82 38.37,41.93 C 38.16,42.03 37.77,41.67 37.49,41.12 C 37.21,40.58 37.15,40.05 37.36,39.94 C 37.57,39.84 37.96,40.20 38.24,40.75 z" id="p3274" style="fill:#ebec87;fill-opacity:0.87;fill-rule:evenodd;stroke:none;marker:none;visibility:visible;display:inline;overflow:visible;enable-background:accumulate"/>
<path d="M 39.27,37.2 L 41.14,38.4 C 41.14,38.4 42.02,39.31 41.98,40.07 C 41.93,40.84 42.77,39.1 42.09,38.31 C 41.42,37.52 40.61,36.94 39.27,37.2 z" id="p3276" style="fill:#312918;fill-opacity:0.87;fill-rule:evenodd;stroke:none"/>
<path d="M 37.02,38.12 C 37.02,38.12 39.15,39.24 39.48,39.4 C 39.8,39.56 40.19,38.91 39.64,38.59 C 39.08,38.26 37.25,37.38 37.25,37.38 L 37.02,38.12 z" id="p3279" style="fill:#e6e3b7;fill-opacity:0.43;fill-rule:evenodd;stroke:none"/>
<path d="M 14,23 L 12.12,27.06 C 12.28,27.26 12.36,27.49 12.34,27.68 C 12.36,27.66 12.4,27.62 12.4,27.62 L 12.84,27.96 C 12.8,28.16 12.77,28.36 12.75,28.56 L 13.37,27.93 L 15.06,23.87 L 14.78,23.62 C 14.74,23.67 14.69,23.72 14.65,23.78 L 14.43,23.65 C 14.43,23.65 14.53,23.51 14.56,23.46 L 14,23 z" id="p3285" style="fill:#393222;fill-opacity:0.85;fill-rule:evenodd;stroke:none;display:inline"/>
<path d="M 11.43,26.62 L 10.87,27.68 C 11.3,28.03 11.83,28.16 12,28.06 C 12.14,27.96 12.27,27.77 12.34,27.68 C 12.37,27.32 12.15,26.79 11.43,26.62 z" id="p3281" style="fill:#2f4543;fill-opacity:0.87;fill-rule:evenodd;stroke:none;display:inline"/>
<path d="M 13.55,22.98 C 14.01,22.9 14.58,23.36 14.62,23.7" id="p3283" style="fill:none;fill-rule:evenodd;stroke:#0f0b04;stroke-width:0.30;stroke-linecap:square;stroke-linejoin:miter;stroke-miterlimit:4;stroke-dasharray:none;stroke-opacity:1;display:inline"/>
<path d="M 38.31,29.74 C 38.31,35.84 32.73,40.79 25.86,40.79 C 18.98,40.79 13.40,35.84 13.40,29.74 C 13.40,23.63 18.98,18.69 25.86,18.69 C 32.73,18.69 38.31,23.63 38.31,29.74 z" id="p3216" style="fill:#fffaca;fill-opacity:1;fill-rule:evenodd;stroke:none;marker:none;visibility:visible;display:inline;overflow:visible;enable-background:accumulate"/>
<path d="M 32.39,29.94 L 32.17,30.00 C 32.19,29.94 32.19,29.88 32.19,29.82 C 32.19,29.76 32.18,29.71 32.16,29.67 C 32.15,29.61 32.13,29.56 32.11,29.54 C 32.08,29.51 32.05,29.50 32.01,29.51 C 31.98,29.52 31.96,29.53 31.96,29.56 C 31.94,29.58 31.95,29.62 31.95,29.68 L 31.95,29.80 C 31.96,29.92 31.95,30.00 31.92,30.06 C 31.89,30.12 31.82,30.16 31.74,30.18 C 31.63,30.21 31.54,30.21 31.46,30.15 C 31.39,30.10 31.34,30.01 31.30,29.88 C 31.29,29.81 31.28,29.74 31.27,29.68 C 31.26,29.61 31.26,29.54 31.28,29.47 L 31.49,29.42 C 31.47,29.48 31.46,29.56 31.46,29.62 C 31.46,29.68 31.47,29.74 31.49,29.80 C 31.50,29.85 31.53,29.90 31.55,29.92 C 31.58,29.95 31.60,29.95 31.64,29.94 C 31.67,29.93 31.70,29.92 31.71,29.89 C 31.71,29.87 31.72,29.83 31.71,29.76 L 31.72,29.65 C 31.71,29.55 31.72,29.47 31.75,29.41 C 31.79,29.35 31.85,29.31 31.93,29.29 C 32.03,29.26 32.12,29.27 32.18,29.32 C 32.26,29.37 32.31,29.45 32.34,29.58 C 32.36,29.63 32.37,29.69 32.37,29.75 C 32.39,29.81 32.38,29.87 32.39,29.94 M 32.50,30.22 L 32.69,30.92 L 32.49,30.98 L 32.37,30.54 L 32.19,30.59 L 32.30,31.00 L 32.10,31.05 L 31.98,30.64 L 31.75,30.70 L 31.88,31.16 L 31.69,31.22 L 31.49,30.50 L 32.50,30.22" id="text3231" style="fill:#2e230f;fill-opacity:1;stroke:none;display:inline"/>
<path d="M 23.45,38.47 L 23.16,38.36 L 23.27,37.44 L 22.76,38.21 L 22.48,38.10 L 22.59,37.18 L 22.08,37.95 L 21.79,37.84 L 22.49,36.78 L 22.85,36.91 L 22.72,37.87 L 23.27,37.07 L 23.61,37.20 L 23.45,38.47" id="text3243" style="fill:#2e230f;fill-opacity:1;stroke:none;display:inline"/>
<path d="M 18.15,29.72 L 18.37,29.26 L 19.79,29.29 L 18.64,28.68 L 18.82,28.29 L 20.50,29.20 L 20.28,29.65 L 18.86,29.61 L 20.01,30.23 L 19.82,30.62 L 18.15,29.72" id="text3227" style="fill:#2e230f;fill-opacity:1;stroke:none;display:inline"/>
<path d="M 18.45,35.35 L 18.38,35.09 L 18.94,34.59 L 18.29,34.76 L 18.23,34.53 L 19.17,34.28 L 19.24,34.55 L 18.69,35.05 L 19.32,34.89 L 19.38,35.11 L 18.45,35.35 M 18.19,34.37 L 18.13,34.14 L 18.76,33.81 L 18.05,33.83 L 17.99,33.60 L 18.62,33.26 L 17.91,33.28 L 17.85,33.05 L 18.84,33.03 L 18.91,33.31 L 18.25,33.65 L 19.00,33.63 L 19.07,33.91 L 18.19,34.37" id="text3247" style="fill:#2e230f;fill-opacity:1;stroke:none;display:inline"/>
<path d="M 21.76,26.23 L 22.07,26.17 L 22.89,26.89 L 22.45,26.09 L 22.71,26.04 L 23.36,27.20 L 23.05,27.26 L 22.21,26.54 L 22.66,27.34 L 22.41,27.39 L 21.76,26.23 M 22.98,25.99 L 23.73,25.84 L 23.86,26.07 L 23.38,26.16 L 23.51,26.38 L 23.94,26.29 L 24.07,26.51 L 23.63,26.60 L 23.78,26.87 L 24.26,26.77 L 24.39,27.00 L 23.63,27.14 L 22.98,25.99" id="text3219" style="fill:#2e230f;fill-opacity:1;stroke:none;display:inline"/>
<path d="M 27.52,36.33 L 25.77,33.03 L 23.74,36.14 L 25.02,32.37 L 23.13,31.57 L 21.29,30.53 L 24.45,31.19 L 24.03,28.21 L 25.68,31.14 L 27.71,28.4 L 27.14,30.81 L 27.47,31.23 L 30.26,30.9 L 27.33,31.94 L 27.42,32.42 L 27.57,32.7 L 30.16,34.07 L 26.62,32.98 L 27.52,36.33 z" id="p3374" style="fill:none;fill-rule:evenodd;stroke:#000000;stroke-width:0.30;stroke-linecap:butt;stroke-linejoin:round;stroke-miterlimit:4;stroke-dasharray:none;stroke-opacity:0.66;display:inline"/>
<path d="M 28.06,25.52 L 29.01,25.89 L 28.90,26.16 L 28.31,25.93 L 28.20,26.18 L 28.77,26.40 L 28.66,26.66 L 28.10,26.44 L 27.98,26.75 L 28.61,27.00 L 28.50,27.26 L 27.53,26.88 L 28.06,25.52" id="text3223" style="fill:#2e230f;fill-opacity:1;stroke:none;display:inline"/>
<path d="M 16.84,22.4 C 14.81,24.38 13.56,27.02 13.56,29.9 C 13.56,33.09 15.1,35.93 17.53,37.96 C 19.6,33.95 20.01,32.8 19.99,29.74 C 19.98,26.84 18.4,24.94 16.84,22.4 z" id="p3308" style="fill:#835908;fill-opacity:0.6;fill-rule:evenodd;stroke:none;display:inline"/>
<path d="M 17.83,36.17 C 17.83,36.17 18.28,36.36 18.66,36.3 C 19.05,36.23 25.12,34.76 25.12,34.76 C 25.12,34.76 26.05,35.05 27.04,34.7 C 27.93,34.38 27.93,32.97 28.32,32.78 C 28.7,32.59 32.41,30.54 32.66,30.67 C 32.92,30.8 33.37,30.99 33.75,30.67 C 34.13,30.35 34.84,28.75 34.84,28.75 L 32.73,28.56 L 20.13,34.31 C 20.13,34.31 17.64,36.04 17.83,36.17 z" id="p3293" style="fill:#302605;fill-opacity:0.79;fill-rule:evenodd;stroke:none;display:inline"/>
<path d="M 33.21,20.71 C 32.64,21.82 31.84,23.58 31.84,24.78 C 31.84,26.59 33.94,29.91 33.78,31.09 C 33.53,32.84 34.17,32.33 33.88,35 C 33.74,36.37 32.64,35.64 32.59,39.43 C 36.23,37.48 38.68,33.94 38.68,29.9 C 38.68,26.1 36.5,22.72 33.21,20.71 z" id="p3306" style="fill:#695b40;fill-opacity:0.27;fill-rule:evenodd;stroke:none;display:inline"/>
<path d="M 32.71,35.53 L 32.43,35.40 C 32.50,35.34 32.55,35.28 32.60,35.22 C 32.65,35.16 32.69,35.10 32.72,35.04 C 32.76,34.96 32.78,34.89 32.77,34.84 C 32.77,34.79 32.75,34.76 32.70,34.73 C 32.66,34.72 32.63,34.71 32.59,34.73 C 32.56,34.75 32.52,34.79 32.48,34.85 L 32.37,34.99 C 32.27,35.12 32.18,35.20 32.08,35.24 C 32.00,35.26 31.90,35.26 31.79,35.21 C 31.64,35.13 31.55,35.04 31.52,34.91 C 31.49,34.80 31.52,34.64 31.60,34.46 C 31.64,34.38 31.69,34.30 31.75,34.22 C 31.81,34.15 31.88,34.08 31.94,34.01 L 32.23,34.14 C 32.15,34.20 32.07,34.27 32.02,34.34 C 31.95,34.41 31.91,34.48 31.87,34.56 C 31.83,34.63 31.82,34.69 31.82,34.75 C 31.83,34.79 31.86,34.83 31.90,34.85 C 31.95,34.87 31.98,34.88 32.02,34.86 C 32.05,34.84 32.09,34.80 32.15,34.73 L 32.25,34.61 C 32.34,34.49 32.44,34.41 32.52,34.38 C 32.62,34.35 32.72,34.35 32.82,34.41 C 32.96,34.47 33.04,34.56 33.07,34.69 C 33.10,34.80 33.07,34.95 33.00,35.11 C 32.96,35.18 32.92,35.25 32.87,35.32 C 32.83,35.39 32.77,35.46 32.71,35.53" id="text3235" style="fill:#2e230f;fill-opacity:1;stroke:none;display:inline"/>
<path d="M 26.12,18.78 C 19.19,18.78 13.56,23.76 13.56,29.9 C 13.56,31.44 13.92,32.88 14.56,34.21 C 18.42,22.5 31.23,21.93 37.34,34.87 C 38.19,33.37 38.68,31.69 38.68,29.9 C 38.68,23.76 33.05,18.78 26.12,18.78 z" id="p3222" style="fill:#3c321f;fill-opacity:0.9;fill-rule:evenodd;stroke:none;display:inline"/>
<path d="M 28.35,38.30 L 28.25,38.06 C 28.32,38.08 28.38,38.09 28.45,38.11 C 28.51,38.11 28.56,38.11 28.61,38.10 C 28.67,38.09 28.72,38.08 28.74,38.05 C 28.76,38.03 28.76,38.00 28.74,37.96 C 28.73,37.93 28.71,37.91 28.69,37.89 C 28.65,37.89 28.62,37.87 28.56,37.87 L 28.44,37.87 C 28.31,37.86 28.21,37.84 28.15,37.80 C 28.08,37.75 28.02,37.68 27.98,37.59 C 27.93,37.47 27.93,37.38 27.97,37.31 C 28.01,37.24 28.10,37.20 28.24,37.18 C 28.31,37.17 28.38,37.17 28.45,37.17 C 28.52,37.18 28.59,37.19 28.67,37.20 L 28.77,37.43 C 28.69,37.40 28.61,37.39 28.54,37.38 C 28.47,37.37 28.40,37.37 28.35,37.38 C 28.29,37.39 28.26,37.40 28.23,37.43 C 28.21,37.45 28.20,37.49 28.22,37.52 C 28.23,37.55 28.25,37.58 28.29,37.60 C 28.32,37.61 28.36,37.62 28.43,37.63 L 28.55,37.63 C 28.66,37.65 28.75,37.66 28.82,37.71 C 28.89,37.76 28.94,37.81 28.98,37.90 C 29.03,38.01 29.02,38.09 28.98,38.16 C 28.94,38.23 28.86,38.27 28.74,38.29 C 28.68,38.30 28.62,38.31 28.56,38.31 C 28.49,38.31 28.42,38.30 28.35,38.30 M 28.16,38.36 L 27.89,38.40 L 27.39,37.65 L 27.55,38.45 L 27.29,38.49 L 26.78,37.74 L 26.93,38.54 L 26.68,38.58 L 26.47,37.47 L 26.77,37.43 L 27.30,38.21 L 27.14,37.37 L 27.45,37.33 L 28.16,38.36" id="text3239" style="fill:#2e230f;fill-opacity:1;stroke:none;display:inline"/>
<path d="M 26.12,18.78 C 19.38,18.78 13.99,24.45 13.7,30.36 C 15.11,24.49 20.18,21.66 25.63,21.66 C 32.38,21.66 37.8,26.73 38.28,32.62 C 40.44,24.49 33.23,19.79 26.12,18.78 z" id="p3243" style="fill:#c79f2a;fill-opacity:0.21;fill-rule:evenodd;stroke:none;marker:none;visibility:visible;display:inline;overflow:visible;enable-background:accumulate"/>
<path d="M 36.52,30.5 C 35.32,28.64 33.93,27.18 32.54,26.25 C 31.15,25.33 30.29,25 30.29,25 L 31.41,23.4 L 29.89,22.68 C 29.89,22.68 29.95,21.48 30.29,21.55 C 30.62,21.62 32.01,22.94 31.48,22.28 C 30.95,21.62 32.8,22.21 33.86,23.14 C 34.92,24.07 35.32,25.26 35.32,25.26 C 35.32,25.26 34.46,25.72 34.79,26.06 C 35.12,26.39 36.18,27.18 36.52,30.5 z" id="p3287" style="fill:#d0a445;fill-opacity:0.31;fill-rule:evenodd;stroke:none;display:inline"/>
<path d="M 32.12,39.65 C 34.41,37.98 35.84,35.46 35.84,32.62 C 35.84,27.58 31.24,23.46 25.56,23.46 C 19.88,23.46 15.28,27.58 15.28,32.62 C 15.28,34.3 15.79,35.86 16.68,37.21" id="p3278" style="fill:none;fill-opacity:1;fill-rule:evenodd;stroke:#271c18;stroke-width:0.25;stroke-linecap:round;stroke-linejoin:miter;marker:none;stroke-miterlimit:4;stroke-dasharray:none;stroke-dashoffset:0;stroke-opacity:0.72;visibility:visible;display:inline;overflow:visible;enable-background:accumulate"/>
<path d="M 13.7,30.36 C 15.11,24.49 20.18,21.66 25.63,21.66 C 32.38,21.66 37.8,26.73 38.28,32.62" id="p3251" style="fill:none;fill-opacity:0.21;fill-rule:evenodd;stroke:#463817;stroke-width:0.40;stroke-linecap:round;stroke-linejoin:miter;marker:none;stroke-miterlimit:4;stroke-dasharray:none;stroke-dashoffset:0;stroke-opacity:1;visibility:visible;display:inline;overflow:visible;enable-background:accumulate"/>
<path d="M 17.12,34.99 C 17.43,35.35 17.89,34.94 17.89,34.94 L 25.08,33.47 C 25.08,33.47 26.3,33.62 27.07,33.31 C 27.83,33.01 28.29,31.88 28.29,31.58 C 28.29,31.27 28.19,31.12 28.19,31.12 L 32.67,29.13 C 32.67,29.13 32.78,29.49 33.18,29.49 C 33.59,29.49 34,29.08 34.15,28.88 C 34.31,28.67 34.97,27.19 34.97,27.19 C 34.97,27.19 33.34,27.04 33.08,27.04 C 32.83,27.04 31.96,27.04 31.86,27.25 C 31.76,27.45 31.96,27.91 31.96,27.91 L 27.68,29.69 C 27.68,29.69 27.17,28.88 26.05,28.98 C 24.93,29.08 24.52,29.69 24.52,29.69 L 17.69,34.38 C 17.69,34.38 16.97,34.69 17.12,34.99 z" id="p3197" style="fill:#c3c1b4;fill-opacity:1;fill-rule:evenodd;stroke:none;display:inline"/>
<path d="M 33.09,27.03 C 32.83,27.03 31.97,27.04 31.87,27.25 C 31.77,27.45 31.96,27.9 31.96,27.9 L 28.31,29.43 C 28.46,29.58 28.6,29.71 28.65,29.9 C 28.71,30.11 28.81,30.39 28.93,30.78 L 32.68,29.12 C 32.68,29.12 32.77,29.5 33.18,29.5 C 33.59,29.5 34,29.07 34.15,28.87 C 34.3,28.67 34.96,27.18 34.96,27.18 C 34.96,27.18 33.34,27.03 33.09,27.03 z" id="p3211" style="fill:#565656;fill-opacity:0.51;fill-rule:evenodd;stroke:none;display:inline"/>
<path d="M 24.65,29.53 C 24.56,29.61 24.53,29.68 24.53,29.68 L 17.68,34.37 C 17.68,34.37 16.97,34.69 17.12,35 C 17.43,35.35 17.9,34.93 17.9,34.93 L 18.43,34.84 C 18.36,34.57 18.35,34.36 18.5,34.28 C 18.75,34.12 22.12,32.31 22.12,32.31 C 22.12,32.31 23.25,32.31 23.56,32 C 23.87,31.68 23.53,30.53 24,30.53 C 24.22,30.53 24.45,30.03 24.65,29.53 z" id="p3209" style="fill:#fdfdfd;fill-opacity:0.83;fill-rule:evenodd;stroke:none;display:inline"/>
<path d="M 33.09,27.03 C 32.83,27.03 31.97,27.04 31.87,27.25 C 32.06,28.11 32.49,28.77 33,29.45 C 33.41,29.45 34,29.07 34.15,28.87 C 34.3,28.67 34.96,27.18 34.96,27.18 C 34.96,27.18 33.34,27.03 33.09,27.03 z" id="p3263" style="fill:#a32832;fill-opacity:1;fill-rule:evenodd;stroke:none"/>
<path d="M 24.56,31.4 L 22.34,34.03 L 25.09,33.46 C 25.09,33.46 25.48,33.51 25.96,33.5 L 24.56,31.4 z" id="p3268" style="fill:#dcdcdc;fill-opacity:0.66;fill-rule:evenodd;stroke:none;display:inline"/>
<path d="M 17.12,34.99 C 17.43,35.35 17.89,34.94 17.89,34.94 L 25.08,33.47 C 25.08,33.47 26.3,33.62 27.07,33.31 C 27.83,33.01 28.29,31.88 28.29,31.58 C 28.29,31.27 28.19,31.12 28.19,31.12 L 32.67,29.13 C 32.67,29.13 32.78,29.49 33.18,29.49 C 33.59,29.49 34,29.08 34.15,28.88 C 34.31,28.67 34.97,27.19 34.97,27.19 C 34.97,27.19 33.34,27.04 33.08,27.04 C 32.83,27.04 31.96,27.04 31.86,27.25 C 31.76,27.45 31.96,27.91 31.96,27.91 L 27.68,29.69 C 27.68,29.69 27.17,28.88 26.05,28.98 C 24.93,29.08 24.52,29.69 24.52,29.69 L 17.69,34.38 C 17.69,34.38 16.97,34.69 17.12,34.99 z" id="p3205" style="fill:none;fill-opacity:1;fill-rule:evenodd;stroke:#2a2a2a;stroke-width:0.2;stroke-linecap:butt;stroke-linejoin:miter;stroke-miterlimit:4;stroke-dasharray:none;stroke-opacity:1;display:inline"/>
<path d="M 28.02,31.5 C 28.02,32.41 27.18,33.14 26.15,33.14 C 25.11,33.14 24.28,32.41 24.28,31.5 C 24.28,30.58 25.11,29.85 26.15,29.85 C 27.18,29.85 28.02,30.58 28.02,31.5 L 28.02,31.5 z" id="p3280" style="fill:#222222;fill-opacity:0.92;fill-rule:evenodd;stroke:none;marker:none;visibility:visible;display:inline;overflow:visible;enable-background:accumulate"/>
<path d="M 26.5,20.56 C 26.38,20.56 26.29,20.59 26.21,20.62 C 25.91,20.72 25.58,21.27 25.68,21.37 C 25.78,21.47 26.09,21.6 26.09,21.9 C 26.09,22.16 25.58,27.62 25.43,29.15 C 24.81,29.44 24.37,30.05 24.37,30.78 C 24.37,31.77 25.21,32.59 26.21,32.59 C 27.22,32.59 28.03,31.77 28.03,30.78 C 28.03,30.12 27.66,29.56 27.12,29.25 C 27.21,27.75 27.57,20.96 27.43,20.78 C 27.32,20.62 26.85,20.54 26.5,20.56 z" id="p3201" style="fill:#c3a16b;fill-opacity:1;fill-rule:evenodd;stroke:none;display:inline"/>
<path d="M 25.12,29.34 C 24.67,29.67 24.37,30.18 24.37,30.78 C 24.37,31.77 25.21,32.59 26.21,32.59 C 26.37,32.59 26.54,32.56 26.68,32.53 L 26,30 L 25.12,29.34 z" id="p3346" style="fill:#463b1f;fill-opacity:0.70;fill-rule:evenodd;stroke:none;display:inline"/>
<path d="M 25.9,30.31 L 24.5,31.4 C 24.62,31.72 24.82,32.01 25.09,32.21 L 26.34,30.37 L 25.9,30.31 z" id="p3348" style="fill:#e1de76;fill-opacity:0.56;fill-rule:evenodd;stroke:none;display:inline"/>
<path d="M 26.46,20.56 L 26.34,21.59 L 27,21.59 C 26.99,21.59 27.3,22.55 27.06,23.15 C 26.86,23.66 26.44,23.5 26,22.81 C 25.96,23.27 25.9,24.15 25.81,25.15 C 26.23,24.68 26.54,24.65 27.25,25.59 C 27.27,25.62 27.28,25.63 27.31,25.65 C 27.42,23.3 27.52,20.89 27.43,20.78 C 27.32,20.62 26.85,20.54 26.5,20.56 C 26.48,20.56 26.48,20.56 26.46,20.56 z" id="p3315" style="fill:#2c1409;fill-opacity:0.63;fill-rule:evenodd;stroke:none;display:inline"/>
<path d="M 26.5,20.56 C 26.38,20.56 26.29,20.59 26.21,20.62 C 25.91,20.72 25.58,21.27 25.68,21.37 C 25.78,21.47 26.09,21.6 26.09,21.9 C 26.09,22.16 25.58,27.62 25.43,29.15 C 24.81,29.44 24.37,30.05 24.37,30.78 C 24.37,31.77 25.21,32.59 26.21,32.59 C 27.22,32.59 28.03,31.77 28.03,30.78 C 28.03,30.12 27.66,29.56 27.12,29.25 C 27.21,27.75 27.57,20.96 27.43,20.78 C 27.32,20.62 26.85,20.54 26.5,20.56 z" id="p3288" style="fill:none;fill-opacity:1;fill-rule:evenodd;stroke:#362d1a;stroke-width:0.2;stroke-linecap:butt;stroke-linejoin:miter;stroke-miterlimit:4;stroke-dasharray:none;stroke-opacity:1;display:inline"/>
<path d="M 27.09,20.59 C 27.08,21.66 27.03,24.45 26.96,25.09 C 26.89,25.86 26.65,28.67 26.65,29.09 C 26.65,29.51 26.93,30.09 26.93,30.09 L 27.87,30.12 C 27.72,29.76 27.46,29.45 27.12,29.25 C 27.21,27.75 27.57,20.96 27.43,20.78 C 27.38,20.7 27.25,20.63 27.09,20.59 z" id="p3365" style="fill:#2b2109;fill-opacity:0.43;fill-rule:evenodd;stroke:none"/>
<path d="M 27.25,30.43 C 27.25,31.02 26.74,31.50 26.13,31.50 C 25.51,31.50 25.01,31.02 25.01,30.43 C 25.01,29.83 25.51,29.35 26.13,29.35 C 26.74,29.35 27.25,29.83 27.25,30.43 z" id="p3272" style="fill:#e3d471;fill-opacity:1;fill-rule:evenodd;stroke:none;marker:none;visibility:visible;display:inline;overflow:visible;enable-background:accumulate"/>
<path d="M 26.5,20.56 C 26.38,20.56 26.29,20.59 26.21,20.62 C 25.91,20.72 25.58,21.27 25.68,21.37 C 25.78,21.47 26.09,21.6 26.09,21.9 C 26.09,21.91 26.06,22.18 26.06,22.21 C 26.13,22.14 26.65,21.74 27.46,22.37 C 27.49,21.5 27.47,20.83 27.43,20.78 C 27.32,20.62 26.85,20.54 26.5,20.56 z" id="p3319" style="fill:#2c1409;fill-opacity:0.63;fill-rule:evenodd;stroke:none;display:inline"/>
<path d="M 26.77,30.08 C 26.77,30.51 26.38,30.86 25.91,30.86 C 25.43,30.86 25.04,30.51 25.04,30.08 C 25.04,29.66 25.43,29.31 25.91,29.31 C 26.38,29.31 26.77,29.66 26.77,30.08 z" id="p3370" style="fill:#211000;fill-opacity:0.83;fill-rule:evenodd;stroke:none;marker:none;visibility:visible;display:inline;overflow:visible;enable-background:accumulate"/>
<path d="M 26.69,30.24 C 26.69,30.59 26.38,30.88 25.99,30.88 C 25.60,30.88 25.28,30.59 25.28,30.24 C 25.28,29.89 25.60,29.60 25.99,29.60 C 26.38,29.60 26.69,29.89 26.69,30.24 z" id="p3372" style="fill:#17292d;fill-opacity:0.93;fill-rule:evenodd;stroke:none;marker:none;visibility:visible;display:inline;overflow:visible;enable-background:accumulate"/>
<path d="M 10.71,27.62 C 12.68,24.7 13.98,22.13 14.47,21.15" id="p3430" style="fill:none;fill-rule:evenodd;stroke:#25180c;stroke-width:0.30;stroke-linecap:butt;stroke-linejoin:miter;stroke-miterlimit:4;stroke-dasharray:none;stroke-opacity:1;display:inline"/>
<path d="M 26.12,18.78 C 23.66,18.78 21.37,19.38 19.43,20.46 C 19.84,23.93 19.68,24 19.5,26.25 C 19.3,28.6 18.26,32.8 15.96,36.4 C 18.24,39.19 21.94,41.03 26.12,41.03 C 33.05,41.03 38.68,36.04 38.68,29.9 C 38.68,23.76 33.05,18.78 26.12,18.78 z" id="p3297" style="fill:#fbf1d1;fill-opacity:0.23;fill-rule:evenodd;stroke:none;display:inline"/>
<path d="M 39.27,31.38 C 38.21,37.59 32.57,41.81 26.28,41.81 C 21.37,41.81 12.21,38.69 12.87,28.21" id="p3203" style="fill:none;fill-opacity:0.82;fill-rule:evenodd;stroke:#f8eda4;stroke-width:0.5;stroke-linecap:round;stroke-linejoin:miter;marker:none;stroke-miterlimit:4;stroke-dasharray:none;stroke-dashoffset:0;stroke-opacity:1;visibility:visible;display:inline;overflow:visible;enable-background:accumulate"/>
<path d="M 38.31,29.74 C 38.31,35.84 32.73,40.79 25.86,40.79 C 18.98,40.79 13.40,35.84 13.40,29.74 C 13.40,23.63 18.98,18.69 25.86,18.69 C 32.73,18.69 38.31,23.63 38.31,29.74 z" id="p3247" style="fill:none;fill-opacity:1;fill-rule:evenodd;stroke:#d0ae67;stroke-width:1.38;stroke-linecap:round;stroke-linejoin:miter;marker:none;stroke-miterlimit:4;stroke-dasharray:none;stroke-dashoffset:0;stroke-opacity:1;visibility:visible;display:inline;overflow:visible;enable-background:accumulate"/>
<path d="M 25.4,19.25 C 20.82,19.48 16.82,21.39 14.43,24.28 C 14.41,24.31 14.39,24.34 14.37,24.37 C 13.38,26.02 12.84,27.91 12.84,29.9 C 12.84,36.41 18.8,41.68 26.12,41.68 C 33.04,41.68 38.74,36.98 39.34,30.96 L 39,30.96 C 38.72,36.35 33.18,41.02 26.34,41.02 C 19.33,41.02 13.65,36.13 13.65,30.56 C 13.65,28.67 14.31,26.91 15.43,25.4 C 17.23,22.05 20.99,19.7 25.4,19.46 L 25.4,19.25 z" id="p3291" style="fill:#4e3112;fill-opacity:0.81;fill-rule:evenodd;stroke:none;marker:none;visibility:visible;display:inline;overflow:visible;enable-background:accumulate"/>
<path d="M 31.54,19.3 C 31.4,19.91 33.46,21.12 33.97,21.54 C 34.48,21.96 34.91,22.24 35.14,22.1 C 35.37,21.96 33.69,20.19 31.54,19.3 z" id="p3349" style="fill:#fbfbce;fill-opacity:0.54;fill-rule:evenodd;stroke:none"/>
<path d="M 36.58,38.93 C 36.62,39 37.21,39.67 37.36,39.39 C 37.7,38.76 38.36,39.28 38.18,39.83 C 38.68,40.12 39.12,40.3 39.65,40.5 C 39.94,40.5 40.6,40.05 40.8,39.76 C 41.01,39.47 41.18,38.35 41.01,38.19 C 40.85,38.02 38.11,36.7 37.91,36.7 C 37.7,36.7 37.29,37.44 37.12,37.69 C 36.96,37.94 36.67,38.72 36.58,38.93 z" id="p3236" style="fill:none;fill-opacity:1;fill-rule:evenodd;stroke:#1b160f;stroke-width:0.40;stroke-linecap:butt;stroke-linejoin:miter;stroke-miterlimit:4;stroke-dasharray:none;stroke-opacity:1;display:inline"/>
<path d="M 17.25,3.62 C 16.03,3.84 12.97,8.82 10.12,15.25 C 7.08,22.1 5.32,28.32 6.34,28.78 C 8.04,29.59 6.87,29.04 8.5,29.78 C 8.92,29.97 9.74,29.12 10.78,27.62 C 11.22,28.02 11.82,28.17 12,28.06 C 12.19,27.93 12.4,27.62 12.4,27.62 L 12.84,27.96 C 12.7,28.64 12.62,29.32 12.62,30.03 C 12.5,30.94 12.52,31.83 12.53,32.75 C 12.53,39.29 18.5,44.62 25.87,44.62 C 30.52,44.62 34.63,42.49 37.03,39.28 C 37.13,39.34 37.28,39.39 37.4,39.46 C 37.35,40.16 37.53,40.89 37.96,41.53 C 38.88,42.85 40.58,43.26 41.75,42.37 C 42.91,41.48 43.06,39.66 42.15,38.34 C 41.4,37.26 40.13,36.82 39.06,37.18 C 38.81,37.07 38.59,36.95 38.4,36.87 C 38.94,35.59 39.25,34.19 39.25,32.75 C 39.29,31.8 39.32,30.94 39.31,30.03 C 39.31,26.84 37.89,23.97 35.59,21.84 C 35.64,21.73 35.68,21.64 35.68,21.56 C 35.68,21.02 34.89,20.51 34.43,20.59 C 34.33,20.61 34.23,20.63 34.15,20.68 C 31.89,19.12 29.05,18.18 25.96,18.18 C 21.18,18.18 17.01,20.42 14.65,23.78 L 14.43,23.65 C 14.43,23.65 15.21,22.47 15.21,22.18 C 15.21,21.96 14.84,21.48 14.37,21.34 C 14.86,20.34 15.35,19.28 15.84,18.18 C 18.88,11.33 20.64,5.13 19.62,4.68 C 18.91,4.32 18.03,3.92 17.25,3.62 z M 41.06,38.34 C 41.23,38.47 41.39,38.61 41.53,38.81 C 42.21,39.79 42.07,41.08 41.28,41.68 C 40.48,42.29 39.27,42.04 38.59,41.06 C 38.33,40.69 38.18,40.27 38.15,39.87 C 38.83,40.21 39.51,40.5 39.65,40.5 C 39.94,40.5 40.6,40.03 40.81,39.75 C 40.99,39.5 41.13,38.68 41.06,38.34 z" id="stroke01" style="fill:none;fill-opacity:1;fill-rule:evenodd;stroke:#000000;stroke-width:0.5;stroke-linecap:round;stroke-linejoin:round;marker:none;stroke-miterlimit:4;stroke-dasharray:none;stroke-dashoffset:0;stroke-opacity:0.98;visibility:visible;display:inline;overflow:visible;enable-background:accumulate"/>
<path d="M 26.25,18.84 C 19.94,18.84 17.52,22 16.34,24 C 18.46,21.23 22.05,19.62 26.12,19.62 C 32.25,19.62 37.27,23.53 37.87,28.81 C 37.6,23.7 32.86,18.84 26.25,18.84 z" id="p3312" style="fill:#4e3112;fill-opacity:0.81;fill-rule:evenodd;stroke:none"/>
<path d="M 19.37,19.75 C 15.46,21.8 12.84,25.58 12.84,29.9 C 12.84,32.13 13.56,34.21 14.78,36 C 15.23,35.67 15.56,35.42 15.9,35.15 C 14.88,33.6 14.31,31.82 14.31,29.9 C 14.31,26.11 16.58,22.8 20,20.96 C 19.99,20.96 20,20.94 20,20.93 C 19.81,20.55 19.6,20.18 19.37,19.75 z" id="p3323" style="fill:#604e3b;fill-opacity:0.73;fill-rule:evenodd;stroke:none"/>
</g>
</svg>
