<?xml version="1.0" encoding="UTF-8" standalone="no"?>
<!DOCTYPE svg PUBLIC "-//W3C//DTD SVG 1.0//EN" "http://www.w3.org/TR/2001/REC-SVG-20010904/DTD/svg10.dtd">
<svg xmlns:svg="http://www.w3.org/2000/svg" xmlns="http://www.w3.org/2000/svg" version="1.0" width="100%" height="100%" viewBox="0 0 48 48" id="_envelope01" style="display:inline">
<defs id="defs2385"/>
<g id="envelope01" style="display:inline">
<path d="M 3.50,33.78 L 6.69,7.41 L 44.70,11.63 L 42.02,38.00 L 3.50,33.78 z" id="p2482" style="fill:#8ee03e;fill-opacity:1;fill-rule:evenodd;stroke:none;"/>
<path d="M 6.68,7.40 L 3.5,33.78 L 3.87,33.81 L 4.81,31.78 L 8.81,27 L 18.56,8.71 L 6.68,7.40 z" id="p3299" style="fill:#7ed22c;fill-opacity:0.35;fill-rule:evenodd;stroke:none;"/>
<path d="M 4.01,33.78 L 4.84,31.82 L 24.20,22.24 L 40.89,35.53 L 41.81,37.80" id="p3293" style="fill:none;fill-rule:evenodd;stroke:#bffc7f;stroke-width:0.5;stroke-linecap:butt;stroke-linejoin:miter;stroke-miterlimit:4;stroke-dasharray:none;stroke-opacity:0.93;display:inline"/>
<path d="M 6.68,7.40 L 6.65,7.62 L 7.09,11.03 L 21.93,24.93 L 43.37,14.40 L 44.68,11.96 L 44.71,11.62 L 6.68,7.40 z" id="p3263" style="fill:#326203;fill-opacity:0.41;fill-rule:evenodd;stroke:none;display:inline"/>
<path d="M 6.68,7.40 L 6.65,7.53 L 7.21,10.71 L 22.15,23.59 L 43.68,13.81 L 44.71,11.68 L 44.71,11.62 L 6.68,7.40 z" id="p3260" style="fill:#0e420e;fill-opacity:0.46;fill-rule:evenodd;stroke:none;display:inline"/>
<path d="M 6.68,7.40 L 6.21,11.34 C 12.52,17.93 18.95,25.19 20.40,26.15 C 21.95,27.18 27.09,27.69 29.15,31.09 C 30.22,32.86 31.20,35.13 31.93,36.90 L 38.03,37.56 C 36.76,36.49 35.04,34.93 34.40,33.78 C 33.37,31.92 31.11,29.65 29.15,27.90 C 27.19,26.15 24.91,25.34 25.84,24.93 C 26.77,24.52 41.93,15.95 42.65,15.43 C 43.02,15.17 43.89,13.58 44.68,12.03 L 44.71,11.62 L 6.68,7.40 z" id="p3290" style="fill:#4b8711;fill-opacity:0.11;fill-rule:evenodd;stroke:none;display:inline"/>
<path d="M 6.75,7.40 L 7.53,10.18 L 24.5,21.71 L 43.68,13.5 L 44.59,11.62 L 6.75,7.40 z" id="p3257" style="fill:#abf95e;fill-opacity:1;fill-rule:evenodd;stroke:none;display:inline"/>
<path d="M 5.56,16.59 L 4.59,24.78 C 10.63,29.44 13.84,32.79 15.56,35.09 L 28.18,36.46 C 26.13,34.93 23.30,32.98 19.37,30.5 C 11.95,25.80 7.70,20.82 5.56,16.59 z" id="p3266" style="fill:#5aa016;fill-opacity:0.12;fill-rule:evenodd;stroke:none;display:inline"/>
<path d="M 43.96,19.12 C 39.44,20.02 27.71,25.25 27.71,25.25 L 31.31,28.21 C 31.31,28.21 33.15,26.79 36.65,26.28 C 38.90,25.95 40.91,28.75 42.62,32.06 L 43.96,19.12 z" id="p3269" style="fill:#326203;fill-opacity:0.06;fill-rule:evenodd;stroke:none;display:inline"/>
<path d="M 6.75,7.40 L 7.53,10.18 L 24.5,21.71 L 43.68,13.5 L 44.59,11.62 L 6.75,7.40 z" id="p3287" style="fill:none;fill-opacity:1;fill-rule:evenodd;stroke:#2d451f;stroke-width:0.5;stroke-linecap:butt;stroke-linejoin:round;stroke-miterlimit:4;stroke-dasharray:none;stroke-opacity:1;display:inline"/>
<path d="M 3.50,33.78 L 6.69,7.41 L 44.70,11.63 L 42.02,38.00 L 3.50,33.78 z" id="stroke01" style="fill:none;fill-opacity:1;fill-rule:evenodd;stroke:#000000;stroke-width:0.5;stroke-linecap:butt;stroke-linejoin:miter;stroke-miterlimit:4;stroke-dasharray:none;stroke-opacity:1"/>
</g>
</svg>
