<?xml version="1.0" encoding="UTF-8" standalone="no"?>
<!DOCTYPE svg PUBLIC "-//W3C//DTD SVG 1.0//EN" "http://www.w3.org/TR/2001/REC-SVG-20010904/DTD/svg10.dtd">
<svg xmlns:svg="http://www.w3.org/2000/svg" xmlns="http://www.w3.org/2000/svg" version="1.0" width="100%" height="100%" viewBox="0 0 48 48" id="_feather02">
<defs id="defs2385"/>
<g id="feather02" style="display:inline">
<path d="M 39.53,3.03 C 38.58,2.97 37.69,3.14 37.06,3.43 C 34.45,4.65 23.91,13.54 21.34,16.46 C 18.77,19.39 15.44,25.09 15.12,25.59 C 14.88,25.96 15.00,27.26 15.03,28.68 C 13.10,31.13 12.41,31.99 11.34,33.59 C 11.21,33.57 11.11,33.56 11.06,33.62 C 10.81,33.91 9.28,36.14 8.90,36.93 C 8.82,37.05 8.85,37.20 8.93,37.34 C 7.54,39.53 6.58,41.05 6.71,41.28 C 6.73,41.31 6.78,41.34 6.81,41.37 C 6.40,41.74 6.11,42.01 5.96,42.37 C 5.80,42.79 5.46,44.10 5.34,44.56 C 5.21,45.02 6.25,43.32 6.59,43.40 C 6.92,43.48 7.30,43.43 7.46,42.81 C 7.58,42.39 7.42,42.14 7.43,41.81 C 7.51,41.85 7.59,41.90 7.65,41.93 C 7.90,42.06 9.09,39.88 9.84,38.46 C 9.89,38.37 10.02,38.15 10.09,38.03 C 10.18,38.02 10.26,38.00 10.31,37.93 C 10.64,37.51 12.33,34.84 12.5,34.46 C 12.52,34.40 12.48,34.33 12.43,34.25 C 13.27,32.97 14.31,31.50 15.5,29.93 C 19.02,28.60 21.32,29.56 24.25,28.75 C 25.24,28.32 26.05,27.14 27.62,26 C 29.19,24.85 33.24,21.86 34.28,21.15 C 35.31,20.44 36.90,18.86 37.40,18.68 C 37.90,18.50 41.16,15.86 41.34,15.40 C 41.52,14.94 42.13,14.46 42.28,13.96 C 42.88,13.82 44.67,8.54 43.53,5.65 C 42.81,3.85 41.10,3.12 39.53,3.03 z" id="p2674" style="fill:#c7c8cd;fill-opacity:1;fill-rule:evenodd;stroke:none;"/>
<path d="M 42.96,10.21 C 42.11,10.27 41.22,10.75 40.84,11.56 C 41.91,13.64 39.97,11.85 38.93,11.56 C 36.34,11.14 41.39,12.17 40.06,12.90 C 37.94,13.42 35.98,13.92 33.87,14.5 C 32.68,15.89 31.40,17.44 29.56,18 C 27.95,19.40 25.94,20.17 24.34,21.62 C 22.33,22.50 21.43,24.58 20.06,26.15 C 19.41,27.28 18.69,28.36 17.84,29.34 C 20.15,28.98 22.02,29.37 24.25,28.75 C 25.24,28.32 26.05,27.14 27.62,26 C 29.19,24.85 33.24,21.86 34.28,21.15 C 35.31,20.44 36.90,18.86 37.40,18.68 C 37.90,18.50 41.16,15.86 41.34,15.40 C 41.52,14.94 42.13,14.46 42.28,13.96 C 42.61,13.88 43.29,12.23 43.65,10.28 C 43.43,10.23 43.20,10.20 42.96,10.21 z" id="p3455" style="fill:#757884;fill-opacity:0.23;fill-rule:evenodd;stroke:none;display:inline"/>
<path d="M 41.93,3.75 C 40.64,4.04 38.94,5.47 38.12,6.12 C 36.23,7.49 36.54,6.06 37.53,4.78 C 36.40,3.71 35.11,8.24 33.40,8.87 C 30.85,10.06 28.63,11.75 26.56,13.65 C 24.49,15.31 23.38,17.98 20.75,18.93 C 20.08,19.41 19.35,19.79 18.62,20.15 C 16.89,22.70 15.33,25.26 15.12,25.59 C 14.88,25.96 15.00,27.26 15.03,28.68 C 15.92,28.31 17.28,27.32 18.12,26.65 C 18.19,24.23 21.16,22.68 22.5,20.68 C 24.98,18.73 27.04,16.28 29.62,14.43 C 31.76,12.77 34.20,11.59 36.37,9.96 C 38.55,8.21 41.39,7.24 43.37,5.34 C 43.02,4.64 42.52,4.11 41.93,3.75 z" id="p3459" style="fill:#757884;fill-opacity:0.23;fill-rule:evenodd;stroke:none;display:inline"/>
<path d="M 43.53,6.46 C 42.42,6.41 41.77,7.33 41.65,7.78 C 40.52,7.80 36.64,9.25 39.59,8.68 C 40.96,8.10 45.11,10.74 42.03,9.5 C 39.04,9.31 36.12,10.31 33.43,11.53 C 32.95,12.21 36.16,11.94 37.15,12.53 C 39.34,13.10 34.98,12.35 34.21,13.06 C 33.38,13.54 29.71,13.91 30.65,14.81 C 33.30,14.71 35.85,16.31 38.71,15.62 C 39.23,15.73 40.06,15.84 40.84,15.96 C 40.94,15.87 41.05,15.79 41.12,15.71 C 39.24,15.34 37.32,15.32 35.40,15.40 C 34.08,15.46 32.21,14.35 31.5,14.28 C 34.00,13.36 36.72,12.35 39.37,13.37 C 40.13,13.64 41.19,13.88 42.25,14 C 42.25,13.98 42.27,13.98 42.28,13.96 C 42.35,13.95 42.45,13.85 42.56,13.68 C 41.39,13.72 40.25,13.57 39.15,12.87 C 37.81,12.07 34.22,11.77 34.12,11.5 C 36.63,10.60 39.32,9.50 42,9.71 C 42.51,10.06 43.19,10.27 43.65,10.31 C 43.69,10.09 43.71,9.88 43.75,9.65 C 43.63,9.55 43.52,9.46 43.34,9.34 C 42.36,8.89 39.23,8.20 42.03,7.87 C 42.55,7.54 43.24,7.77 43.90,8.09 C 43.90,7.91 43.91,7.73 43.90,7.56 C 43.03,7.56 42.30,7.58 42.68,6.93 C 42.96,6.94 43.39,6.93 43.84,6.93 C 43.82,6.78 43.80,6.64 43.78,6.5 C 43.69,6.48 43.60,6.47 43.53,6.46 z M 33.68,16.59 C 31.65,16.57 29.59,17.15 27.59,17.37 C 25.12,17.72 25.77,19.94 28.21,19.68 C 30.20,19.97 32.32,20.46 34.15,21.25 C 34.17,21.23 34.26,21.16 34.28,21.15 C 34.35,21.10 34.42,21.02 34.5,20.96 C 33.22,20.53 31.66,20.23 30.71,19.75 C 29.59,19.35 26.56,19.51 26.81,18.78 C 29.26,18.80 31.65,19.46 34.09,19.65 C 34.49,19.61 35.09,19.77 35.71,19.96 C 35.96,19.76 36.18,19.59 36.40,19.40 C 35.07,19.04 33.80,18.46 32.37,18.43 C 30.51,18.19 28.56,18.59 26.75,18.18 C 28.48,17.04 31.27,17.33 33.43,16.84 C 35.18,16.81 36.84,17.72 38.56,17.87 C 38.71,17.76 38.87,17.65 39.03,17.53 C 37.88,17.58 36.74,17.40 35.68,16.84 C 35.01,16.66 34.36,16.59 33.68,16.59 z M 29.65,18.59 C 31.84,18.58 34.95,18.97 35.68,19.68 C 33.43,19.01 31.06,19.13 28.78,18.62 C 29.04,18.60 29.34,18.59 29.65,18.59 z M 26.71,20.06 C 25.16,20.00 21.92,21.06 24.56,21.43 C 26.65,21.73 28.94,21.72 30.81,22.81 C 32.01,23.82 28.84,22.02 28.09,22.34 C 26.59,22.38 22.04,22.01 22.12,23.15 C 23.78,23.20 23.69,23.70 22.18,23.81 C 20.96,24.22 17.66,25.53 18.15,26.31 C 20.38,25.36 22.69,26.07 24.78,26.96 C 25.16,27.11 25.72,27.16 26.25,27.15 C 26.37,27.04 26.49,26.93 26.62,26.81 C 25.47,26.90 24.34,26.86 23.31,26.09 C 22.18,25.21 19.03,26.01 18.84,25.68 C 20.93,24.49 23.91,22.74 26.15,24.56 C 26.82,25.14 27.60,25.40 28.40,25.43 C 28.49,25.37 28.59,25.28 28.68,25.21 C 27.31,25.18 25.82,24.16 25.25,23.46 L 25.5,23.40 L 25.84,23.37 C 26.95,23.22 28.85,23.92 29.65,24.5 C 29.89,24.32 30.03,24.24 30.28,24.06 C 29.27,23.94 27.99,23.74 27.34,23.25 C 26.38,22.68 23.31,23.70 23.5,22.81 C 26.03,22.45 29.11,22.56 31.28,23.34 C 31.35,23.28 31.39,23.24 31.46,23.18 C 30.04,21.09 26.66,21.74 24.43,21.03 C 24.04,20.34 27.34,20.37 28.40,20.59 C 30.20,20.88 32.03,21.07 33.78,21.53 C 33.84,21.48 34.00,21.34 34.06,21.31 C 31.88,20.59 29.51,20.48 27.25,20.15 C 27.12,20.09 26.94,20.07 26.71,20.06 z M 20.12,26.78 C 19.21,26.79 18.33,27.01 17.5,27.62 C 18.84,27.31 21.80,26.62 23.71,27.62 C 24.25,27.73 24.95,27.72 25.65,27.68 C 25.75,27.59 25.86,27.50 25.96,27.40 C 24.04,27.56 22.03,26.74 20.12,26.78 z" id="p3474" style="fill:#7f828e;fill-opacity:0.16;fill-rule:evenodd;stroke:none;display:inline"/>
<path d="M 38.78,3.03 C 38.74,3.07 38.72,3.10 38.68,3.15 C 36.90,4.40 35.50,6.00 34.59,8 C 33.60,9.83 34.36,6.09 35.18,5.56 C 35.70,5.06 36.04,4.47 36.34,3.84 C 36.07,4.01 35.74,4.23 35.40,4.46 C 35.14,4.91 34.89,5.27 34.75,5.31 C 34.79,5.13 34.87,4.98 34.93,4.81 C 34.68,4.99 34.43,5.13 34.15,5.34 C 33.92,6.04 33.75,6.76 33.59,7.46 C 32.52,9.46 33.19,12.27 31.28,13.75 C 29.52,14.90 27.99,16.34 26.25,17.5 C 25.22,18.23 23.93,19.48 24.59,17.40 C 24.99,15.70 25.80,14.12 26.06,12.37 C 26.05,12.23 26.01,12.12 26,12.03 C 25.68,12.31 25.39,12.60 25.09,12.87 C 24.99,13.11 24.97,13.10 25,12.96 C 24.60,13.32 24.23,13.63 23.87,13.96 C 23.67,15.79 23.62,17.65 23.31,19.46 C 22.58,21.96 21.03,19.55 21.68,18.06 C 21.77,17.67 21.87,16.72 21.81,15.96 C 21.66,16.12 21.46,16.33 21.34,16.46 C 21.32,16.48 21.32,16.51 21.31,16.53 C 21.31,17.20 21.02,18.74 21.12,19.21 C 20.64,21.27 22.92,22.11 23.65,20.06 C 24.25,20.80 24.53,18.66 25.5,18.62 C 27.13,17.68 28.49,16.39 30,15.28 C 30.93,14.84 31.98,13.20 32.06,14.68 C 32.59,12.95 34.20,11.42 36.06,10.56 C 38.21,9.56 38.71,7.00 40.5,5.59 C 40.91,4.98 41.69,4.56 42.43,4.12 C 42.29,4.00 42.12,3.88 41.96,3.78 C 41.36,4.24 40.79,4.76 40.21,5.21 C 38.61,6.49 38.01,8.67 36.31,9.81 C 35.34,10.20 32.76,12.65 34.18,10.21 C 35.27,7.88 36.43,5.43 38.59,3.90 C 39.07,3.75 39.31,3.34 39.37,3.03 C 39.17,3.02 38.97,3.01 38.78,3.03 z M 33.59,9.18 C 33.67,10.11 33.01,11.17 33.5,9.56 L 33.59,9.18 z M 20.81,17.12 C 20.59,17.38 20.37,17.64 20.15,17.93 C 20.13,18.06 20.10,18.20 20.09,18.31 C 20.07,18.24 20.05,18.18 20.03,18.12 C 19.60,18.68 19.22,19.27 18.81,19.87 C 18.70,20.82 18.68,21.58 18.53,20.28 C 18.39,20.47 18.25,20.65 18.12,20.84 C 18.12,20.85 18.12,20.86 18.12,20.87 C 18.12,20.88 18.12,20.89 18.12,20.90 C 18.44,22.26 17.82,24.57 19.18,25.15 C 18.92,23.12 18.89,20.95 19.53,19.03 C 19.78,20.58 19.12,22.35 19.78,23.75 C 20.57,21.63 20.38,19.31 20.81,17.12 z M 18.12,20.90 C 17.89,21.24 17.61,21.57 17.40,21.90 C 17.40,21.91 17.41,21.93 17.40,21.93 C 17.39,22.47 17.38,22.97 17.31,23.25 C 17.29,24.32 17.11,24.90 17.12,23.40 C 17.28,23.02 17.27,22.64 17.18,22.31 C 16.78,22.93 16.42,23.50 16.12,24 C 16.18,25.18 16.05,26.45 16.75,26.96 C 17.03,25.87 17.64,28.26 17.56,26.40 C 17.75,24.76 17.81,21.76 18.12,20.90 z M 20.09,18.37 C 20.13,18.57 20.12,18.78 20.06,19.06 C 20.03,18.90 20.05,18.66 20.09,18.37 z" id="p3490" style="fill:#7f828e;fill-opacity:0.24;fill-rule:evenodd;stroke:none;display:inline"/>
<path d="M 43.75,6.31 C 42.29,6.66 40.84,7.16 39.93,7.59 C 40.75,7.95 42.42,6.93 41.28,7.78 C 41.78,8.30 45.21,9.14 42.75,8.90 C 41.76,8.96 37.91,8.77 40.31,10.09 C 41.34,10.65 38.84,9.84 39.21,10.40 C 38.32,10.10 36.65,10.75 38.28,11.34 C 39.01,12.35 36.17,11.58 35.53,11.78 C 33.66,11.84 37.62,13.07 35.5,12.65 C 34.20,12.61 34.84,13.53 33.68,13.25 C 33.26,13.89 31.41,14.40 31.68,14.81 C 33.39,15.80 30.33,14.78 30.78,16.09 C 29.45,15.63 30.05,16.77 30.46,17.12 C 29.36,16.99 27.40,17.10 27.62,18.03 C 27.60,18.68 30.17,18.21 28.31,18.56 C 27.42,18.55 25.86,18.13 25.34,18.71 C 25.98,18.97 28.83,18.81 27.90,19.62 C 26.69,19.55 23.99,19.08 25.15,20.21 C 24.26,19.63 22.59,20.24 24.40,20.43 C 25.90,20.79 22.74,20.75 24.65,21.43 C 25.14,21.85 23.34,21.22 24.37,22.03 C 23.47,22.40 20.63,21.98 21.78,23.43 C 20.72,22.93 20.15,24.23 20.5,24.84 C 19.14,24.35 17.63,26.33 19.71,26.25 C 20.54,26.32 22.88,26.59 22.62,26.90 C 21.26,26.93 18.94,26.39 18.18,27.03 C 20.11,27.11 22.17,27.01 24.12,27.46 C 24.34,27.55 24.91,27.70 25.46,27.87 C 25.57,27.78 25.67,27.69 25.78,27.59 C 23.75,26.72 21.64,25.98 19.43,25.87 C 18.38,24.93 22.15,25.23 20.81,23.93 C 21.75,23.98 22.66,23.44 21.81,22.65 C 22.78,22.82 26.07,22.23 24.71,21.06 C 25.66,20.92 25.98,20.27 25.34,19.68 C 26.58,20.06 28.56,20.17 28.90,19.28 C 30.79,19.58 29.10,18.64 29.31,18.65 C 31.53,19.37 33.94,19.84 36.28,19.34 C 37.60,18.47 34.84,19.02 34.21,18.96 C 32.34,18.90 30.37,18.67 28.68,17.81 C 27.94,16.81 32.28,18.07 30.71,16.65 C 29.66,15.99 32.20,16.70 31.12,15.68 C 32.18,16.08 32.73,15.24 32.56,14.71 C 34.93,15.25 37.28,16.41 39.78,15.90 C 40.05,15.93 40.70,15.75 41.25,15.53 C 41.27,15.49 41.33,15.43 41.34,15.40 C 41.39,15.26 41.48,15.11 41.59,14.96 C 41.52,14.97 41.49,14.95 41.40,14.96 C 39.53,15.57 37.43,15.50 35.68,14.56 C 35.01,14.01 32.80,14.30 33.03,14.06 C 33.62,13.38 34.53,13.88 35.03,13.37 C 34.83,12.64 38.33,13.44 36.46,12.40 C 38.05,12.49 39.57,12.97 41,13.65 C 43.11,13.80 39.93,12.48 39.25,12.5 C 38.40,12.30 37.97,12.03 39,11.84 C 38.96,11.12 37.04,10.55 38.84,10.68 C 39.99,11.05 42.29,10.45 40.15,9.59 C 40.12,8.97 42.78,9.80 43.68,10.09 C 43.71,9.94 43.72,9.80 43.75,9.65 C 43.08,9.48 42.54,9.34 42.65,9.28 C 42.99,9.38 43.46,9.35 43.81,9.25 C 43.83,9.00 43.86,8.74 43.87,8.5 C 43.78,8.46 43.71,8.41 43.59,8.37 C 42.92,8.14 40.97,7.83 42.81,7.65 C 43.08,7.69 43.51,7.60 43.90,7.5 C 43.89,7.25 43.87,7.04 43.84,6.81 C 42.75,6.96 40.86,7.37 42.81,6.81 C 43.10,6.71 43.44,6.64 43.78,6.59 C 43.76,6.50 43.77,6.40 43.75,6.31 z M 37.12,12.03 C 37.74,11.94 37.72,12.18 37.12,12.03 z M 34.15,14.53 C 34.28,14.51 34.42,14.50 34.56,14.53 C 36.00,14.90 37.47,15.80 38.90,15.68 C 37.29,15.93 34.41,14.99 33.78,14.59 C 33.91,14.57 34.02,14.54 34.15,14.53 z" id="p3500" style="fill:#e9e9e9;fill-opacity:0.20;fill-rule:evenodd;stroke:none;display:inline"/>
<path d="M 43.15,12.31 C 40.54,13.59 37.39,13.39 35.06,15.28 C 32.07,17.74 29.10,21.12 28.84,25.12 C 30.71,23.75 33.43,21.73 34.28,21.15 C 35.31,20.44 36.90,18.86 37.40,18.68 C 37.90,18.50 41.16,15.86 41.34,15.40 C 41.52,14.94 42.13,14.46 42.28,13.96 C 42.48,13.92 42.83,13.25 43.15,12.31 z" id="p3516" style="fill:#989898;fill-opacity:0.39;fill-rule:evenodd;stroke:none;display:inline"/>
<path d="M 32.43,10.40 C 29.95,11.37 27.15,13.13 24.78,14.75 C 22.98,16.47 21.21,18.28 19.18,19.75 C 18.96,19.94 18.72,20.12 18.5,20.31 C 16.81,22.80 15.33,25.27 15.12,25.59 C 14.88,25.96 15.00,27.26 15.03,28.68 C 14.51,29.33 14.24,29.68 13.87,30.15 C 14.14,30.24 14.43,30.33 14.65,30.40 C 15.02,27.89 17.56,26.64 18.75,24.56 C 21.55,21.92 24.72,19.52 26.59,16.06 C 28.33,13.97 31.07,12.83 32.43,10.40 z" id="p3518" style="fill:#989898;fill-opacity:0.39;fill-rule:evenodd;stroke:none;display:inline"/>
<path d="M 43.43,5.56 C 36.28,8.81 25.62,16.69 15.03,28.62 C 15.03,28.64 15.03,28.66 15.03,28.68 C 13.10,31.13 12.41,31.99 11.34,33.59 C 11.21,33.57 11.11,33.56 11.06,33.62 C 10.81,33.91 9.28,36.14 8.90,36.93 C 8.82,37.05 8.85,37.20 8.93,37.34 C 7.54,39.53 6.58,41.05 6.71,41.28 C 6.73,41.31 6.78,41.34 6.81,41.37 C 6.40,41.74 6.11,42.01 5.96,42.37 C 5.80,42.79 5.46,44.10 5.34,44.56 C 5.21,45.02 6.25,43.32 6.59,43.40 C 6.92,43.48 7.30,43.43 7.46,42.81 C 7.58,42.39 7.42,42.14 7.43,41.81 C 7.51,41.85 7.59,41.90 7.65,41.93 C 7.90,42.06 9.09,39.88 9.84,38.46 C 9.89,38.37 10.02,38.15 10.09,38.03 C 10.18,38.02 10.26,38.00 10.31,37.93 C 10.64,37.51 12.33,34.84 12.5,34.46 C 12.52,34.40 12.48,34.33 12.43,34.25 C 13.25,33.01 14.26,31.57 15.40,30.06 C 15.40,30.05 15.41,30.03 15.40,30.03 C 15.43,29.99 15.47,29.97 15.5,29.93 C 23.90,20.38 32.99,11.06 43.5,5.90 C 43.5,5.90 43.50,5.49 43.43,5.56 z" id="p3534" style="fill:#ffffff;fill-opacity:0.96;fill-rule:evenodd;stroke:none;display:inline"/>
<path d="M 43.43,5.56 C 41.57,6.41 39.46,7.59 37.18,9.06 C 37.55,9.01 37.88,8.95 38.25,8.90 C 39.96,7.80 41.70,6.78 43.5,5.90 C 43.5,5.90 43.50,5.49 43.43,5.56 z" id="p3540" style="fill:#384d4a;fill-opacity:0.19;fill-rule:evenodd;stroke:none;display:inline"/>
<path d="M 17.03,26.43 C 16.36,27.15 15.69,27.87 15.03,28.62 C 15.03,28.64 15.03,28.66 15.03,28.68 C 13.10,31.13 12.41,31.99 11.34,33.59 C 11.21,33.57 11.11,33.56 11.06,33.62 C 10.81,33.91 9.28,36.14 8.90,36.93 C 8.82,37.05 8.85,37.20 8.93,37.34 C 7.54,39.53 6.58,41.05 6.71,41.28 C 6.73,41.31 6.78,41.34 6.81,41.37 C 6.40,41.74 6.11,42.01 5.96,42.37 C 5.86,42.63 5.70,43.16 5.56,43.68 C 6.15,43.55 6.71,43.08 7.18,42.12 C 9.41,37.59 12.97,32.90 17.03,26.43 z" id="p3543" style="fill:#7f6347;fill-opacity:0.50;fill-rule:evenodd;stroke:none;display:inline"/>
<path d="M 14.90,28.84 C 14.81,28.96 14.77,29.01 14.68,29.12 C 14.91,29.39 15.12,29.67 15.18,30.03 C 15.08,29.77 14.83,29.47 14.56,29.31 C 14.47,29.42 14.39,29.48 14.31,29.59 C 14.54,29.93 14.80,30.23 15.06,30.56 C 15.18,30.39 15.27,30.23 15.40,30.06 C 15.40,30.05 15.41,30.03 15.40,30.03 C 15.43,29.99 15.47,29.97 15.5,29.93 C 15.27,29.57 15.05,29.23 14.90,28.84 z M 13.84,30.21 C 13.78,30.29 13.71,30.39 13.65,30.46 C 13.87,30.58 14.13,30.74 14.28,30.81 C 14.41,30.89 14.52,31.00 14.65,31.09 C 14.71,31.00 14.78,30.92 14.84,30.84 C 14.53,30.60 14.19,30.39 13.84,30.21 z M 13.53,30.62 C 13.46,30.70 13.37,30.82 13.31,30.90 C 13.35,30.95 13.44,31.02 13.46,31.06 C 13.69,31.30 13.91,31.55 14.15,31.78 C 14.21,31.69 14.28,31.61 14.34,31.53 C 14.05,31.25 13.77,30.94 13.53,30.62 z M 12.78,31.62 C 12.72,31.69 12.67,31.77 12.62,31.84 C 12.98,32.05 13.37,32.17 13.75,32.34 C 13.79,32.28 13.83,32.21 13.87,32.15 C 13.53,32.01 13.20,31.83 12.90,31.68 C 12.86,31.67 12.82,31.64 12.78,31.62 z M 12.53,31.96 C 12.46,32.05 12.37,32.13 12.31,32.21 C 12.42,32.31 12.52,32.40 12.62,32.5 C 12.77,32.64 13.05,32.85 13.25,33.06 C 13.29,33.00 13.33,32.93 13.37,32.87 C 13.35,32.84 13.33,32.81 13.31,32.78 C 13.16,32.55 12.70,32.21 12.53,31.96 z M 12,32.68 C 11.89,32.82 11.79,32.97 11.68,33.12 C 12.06,33.32 12.43,33.52 12.81,33.71 C 12.90,33.58 12.99,33.42 13.09,33.28 C 12.73,33.07 12.36,32.87 12,32.68 z M 9.03,36.75 C 9.00,36.80 8.92,36.88 8.90,36.93 C 8.82,37.05 8.85,37.20 8.93,37.34 C 8.87,37.44 8.84,37.49 8.78,37.59 C 8.96,37.80 9.16,37.99 9.34,38.18 C 9.46,38.33 9.62,38.48 9.78,38.62 C 9.80,38.57 9.82,38.51 9.84,38.46 C 9.85,38.44 9.88,38.40 9.90,38.37 C 9.80,38.26 9.73,38.13 9.62,38.03 C 9.43,37.75 8.72,37.16 8.93,37 C 9.48,37.15 10.01,37.37 10.53,37.59 C 10.57,37.53 10.66,37.42 10.71,37.34 C 10.16,37.11 9.61,36.88 9.03,36.75 z M 8.43,38.15 C 8.34,38.29 8.26,38.39 8.18,38.53 C 8.59,38.77 9.00,39.00 9.40,39.25 C 9.46,39.14 9.53,39.04 9.59,38.93 C 9.21,38.65 8.84,38.38 8.43,38.15 z M 8.15,38.59 C 8.09,38.69 8.02,38.78 7.96,38.87 C 8.22,39.10 8.48,39.35 8.68,39.62 C 8.42,39.61 8.13,39.34 7.84,39.09 C 7.75,39.23 7.63,39.40 7.56,39.53 C 7.92,39.92 8.22,40.36 8.53,40.81 C 8.57,40.73 8.63,40.64 8.68,40.56 C 8.47,40.27 8.27,39.98 8.09,39.68 C 8.39,39.77 8.62,40.00 8.87,40.21 C 8.97,40.04 9.05,39.86 9.15,39.68 C 8.86,39.36 8.36,38.86 8.15,38.59 z M 7.12,40.28 C 7.06,40.39 7.01,40.49 6.96,40.59 C 7.12,40.71 7.27,40.79 7.34,40.87 C 7.59,41.08 7.83,41.30 8.09,41.5 C 8.14,41.43 8.19,41.33 8.25,41.25 C 7.88,40.91 7.52,40.55 7.12,40.28 z" id="p3554" style="fill:#5c453c;fill-opacity:1;fill-rule:evenodd;stroke:none;display:inline"/>
<path d="M 15.53,28.69 C 16.72,27.16 17.90,25.97 18.25,25.56" id="p3566" style="fill:none;fill-rule:evenodd;stroke:#b7ab9d;stroke-width:0.69;stroke-linecap:round;stroke-linejoin:miter;stroke-miterlimit:4;stroke-dasharray:none;stroke-opacity:0.36"/>
<path d="M 11.06,33.62 C 10.81,33.91 9.28,36.14 8.90,36.93 C 9.16,37.57 9.76,37.84 10.31,37.93 C 10.64,37.51 12.33,34.84 12.5,34.46 C 12.51,34.43 12.51,34.41 12.5,34.37 C 12.13,33.97 11.62,33.70 11.06,33.62 z" id="p3568" style="fill:#9eabb4;fill-opacity:1;fill-rule:evenodd;stroke:none;display:inline"/>
<path d="M 11.15,34.43 C 10.93,34.50 10.85,34.75 10.75,34.93 C 10.63,35.09 10.43,35.43 10.71,35.53 C 10.88,35.59 11.13,35.50 11.21,35.71 C 11.13,35.85 10.91,35.64 10.78,35.75 C 10.59,35.82 10.42,36.01 10.40,36.21 C 10.34,36.35 10.72,36.50 10.46,36.5 C 10.20,36.38 10.08,36.72 10.21,36.90 C 10.25,37.06 10.33,37.27 10.53,37.28 C 10.75,37.26 10.43,37.39 10.37,37.43 C 10.24,37.51 10.05,37.56 9.93,37.43 C 9.85,37.23 9.97,37.02 9.96,36.81 C 10.01,36.69 10.08,36.41 9.87,36.46 C 9.78,36.61 9.77,36.77 9.75,36.93 C 9.72,37.15 9.63,37.42 9.78,37.62 C 9.95,37.79 10.24,37.70 10.46,37.68 C 10.56,37.54 10.76,37.25 10.93,37 C 10.86,37.01 10.79,37.02 10.71,37.03 C 10.56,37.16 10.34,36.94 10.40,36.78 C 10.51,36.68 10.69,36.70 10.81,36.59 C 10.94,36.49 11.07,36.39 11.18,36.28 C 11.22,36.19 11.38,35.92 11.37,36.15 C 11.37,36.20 11.38,36.25 11.40,36.28 C 11.49,36.14 11.50,36.10 11.59,35.96 C 11.56,35.81 11.54,35.66 11.56,35.5 C 11.54,35.27 11.70,35.07 11.90,35 C 12.04,34.93 12.18,34.86 12.31,34.78 C 12.35,34.71 12.48,34.50 12.5,34.46 C 12.50,34.45 12.49,34.44 12.5,34.43 C 12.37,34.50 12.25,34.56 12.12,34.62 C 11.98,34.68 11.83,34.89 11.68,34.84 C 11.66,34.72 11.76,34.38 11.53,34.5 C 11.37,34.64 11.23,34.84 11.03,34.93 C 11.04,34.77 11.38,34.55 11.15,34.43 z M 11.46,35.03 C 11.33,35.13 11.53,35.51 11.25,35.37 C 11.08,35.38 10.98,35.24 11.18,35.18 C 11.27,35.13 11.37,35.07 11.46,35.03 z M 10.90,35.90 C 11.01,35.93 11.09,36.08 10.93,36.15 C 10.83,36.31 10.53,36.19 10.71,36.03 C 10.73,35.99 10.75,35.96 10.78,35.93 C 10.82,35.90 10.86,35.89 10.90,35.90 z" id="p3593" style="fill:#0d1118;fill-opacity:0.70;fill-rule:evenodd;stroke:none;display:inline"/>
<path d="M 10.22,35.78 C 10.56,35.17 11.28,34.23 11.28,34.23" id="p3618" style="fill:none;fill-rule:evenodd;stroke:#c1c1c1;stroke-width:1px;stroke-linecap:round;stroke-linejoin:miter;stroke-opacity:0.49;display:inline"/>
<path d="M 11.82,34.40 C 11.72,34.30 11.52,34.23 11.40,34.20" id="p3621" style="fill:none;fill-rule:evenodd;stroke:#f5f5f5;stroke-width:0.5;stroke-linecap:round;stroke-linejoin:miter;stroke-miterlimit:4;stroke-dasharray:none;stroke-opacity:0.58"/>
<path d="M 6.75,41.06 C 6.71,41.16 6.69,41.24 6.71,41.28 C 6.73,41.31 6.78,41.34 6.81,41.37 C 6.40,41.74 6.11,42.01 5.96,42.37 C 5.80,42.79 5.46,44.10 5.34,44.56 C 5.21,45.02 6.25,43.32 6.59,43.40 C 6.92,43.48 7.30,43.43 7.46,42.81 C 7.58,42.39 7.42,42.14 7.43,41.81 C 7.51,41.85 7.59,41.90 7.65,41.93 C 7.67,41.94 7.69,41.91 7.71,41.90 C 7.43,41.58 7.10,41.30 6.75,41.06 z" id="p3623" style="fill:#a2a2a2;fill-opacity:1;fill-rule:evenodd;stroke:none;display:inline"/>
<path d="M 6.81,41.34 C 6.81,41.34 6.80,41.36 6.81,41.37 C 6.40,41.74 6.11,42.01 5.96,42.37 C 5.80,42.79 5.46,44.10 5.34,44.56 C 5.23,44.96 6.01,43.70 6.43,43.43 C 6.44,43.37 6.59,43.34 6.62,43.28 C 6.84,42.73 6.80,42.19 7.13,41.37 C 7.07,41.34 6.88,41.38 6.81,41.34 z" id="p3626" style="fill:#505050;fill-opacity:1;fill-rule:evenodd;stroke:none;display:inline"/>
<path d="M 7.10,42.32 L 7.10,42.61" id="p3629" style="fill:none;fill-rule:evenodd;stroke:#ffffff;stroke-width:0.40;stroke-linecap:round;stroke-linejoin:miter;stroke-miterlimit:4;stroke-dasharray:none;stroke-opacity:1;display:inline"/>
<path d="M 11.36,33.66 C 11.77,33.76 12.10,33.94 12.30,34.23" id="p3613" style="fill:none;fill-rule:evenodd;stroke:#2c363d;stroke-width:0.30;stroke-linecap:round;stroke-linejoin:miter;stroke-miterlimit:4;stroke-dasharray:none;stroke-opacity:1;display:inline"/>
<path d="M 8.94,37.13 C 9.42,37.63 9.85,37.83 10.26,37.85" id="p3616" style="fill:none;fill-rule:evenodd;stroke:#212a30;stroke-width:0.30;stroke-linecap:butt;stroke-linejoin:miter;stroke-miterlimit:4;stroke-dasharray:none;stroke-opacity:1"/>
<path d="M 39.53,3.03 C 38.58,2.97 37.69,3.14 37.06,3.43 C 34.45,4.65 23.91,13.54 21.34,16.46 C 18.77,19.39 15.44,25.09 15.12,25.59 C 14.88,25.96 15.00,27.26 15.03,28.68 C 13.10,31.13 12.41,31.99 11.34,33.59 C 11.21,33.57 11.11,33.56 11.06,33.62 C 10.81,33.91 9.28,36.14 8.90,36.93 C 8.82,37.05 8.85,37.20 8.93,37.34 C 7.54,39.53 6.58,41.05 6.71,41.28 C 6.73,41.31 6.78,41.34 6.81,41.37 C 6.40,41.74 6.11,42.01 5.96,42.37 C 5.80,42.79 5.46,44.10 5.34,44.56 C 5.21,45.02 6.25,43.32 6.59,43.40 C 6.92,43.48 7.30,43.43 7.46,42.81 C 7.58,42.39 7.42,42.14 7.43,41.81 C 7.51,41.85 7.59,41.90 7.65,41.93 C 7.90,42.06 9.09,39.88 9.84,38.46 C 9.89,38.37 10.02,38.15 10.09,38.03 C 10.18,38.02 10.26,38.00 10.31,37.93 C 10.64,37.51 12.33,34.84 12.5,34.46 C 12.52,34.40 12.48,34.33 12.43,34.25 C 13.27,32.97 14.31,31.50 15.5,29.93 C 19.02,28.60 21.32,29.56 24.25,28.75 C 25.24,28.32 26.05,27.14 27.62,26 C 29.19,24.85 33.24,21.86 34.28,21.15 C 35.31,20.44 36.90,18.86 37.40,18.68 C 37.90,18.50 41.16,15.86 41.34,15.40 C 41.52,14.94 42.13,14.46 42.28,13.96 C 42.88,13.82 44.67,8.54 43.53,5.65 C 42.81,3.85 41.10,3.12 39.53,3.03 z" id="p3453" style="fill:none;fill-rule:evenodd;stroke:#000000;stroke-width:0.5;stroke-linecap:butt;stroke-linejoin:miter;stroke-miterlimit:4;stroke-dasharray:none;stroke-opacity:1"/>
</g>
</svg>
