<?xml version="1.0" encoding="UTF-8" standalone="no"?>
<!DOCTYPE svg PUBLIC "-//W3C//DTD SVG 1.0//EN" "http://www.w3.org/TR/2001/REC-SVG-20010904/DTD/svg10.dtd">
<svg xmlns:svg="http://www.w3.org/2000/svg" xmlns="http://www.w3.org/2000/svg" version="1.0" width="100%" height="100%" viewBox="0 0 48 48" id="_feather01">
<defs id="defs2385"/>
<g id="feather01" style="display:inline">
<path d="M 9.59,3.40 C 9.32,3.38 9.12,3.42 8.96,3.5 C 8.86,4.11 8.66,4.44 8.56,5.06 C 7.63,4.23 7.20,4.44 6.68,5.06 C 6.17,5.68 3.59,9.06 5.96,10.40 C 4.93,11.02 5.77,12.56 6.18,13.18 C 6.59,13.80 7.31,14.63 7.62,15.25 C 8.03,17.31 9.16,17.93 9.37,18.65 C 9.58,19.37 11.75,22.66 14.12,24.62 C 16.49,26.58 19.35,31.31 20.28,32.03 C 21.20,32.75 22.13,32.65 22.75,33.68 C 23.36,34.71 28.01,38.21 30.28,38.62 C 32.13,38.96 34.08,38.88 34.87,38.84 C 34.87,39.28 33.81,38.98 33.43,38.96 C 33.21,38.84 32.86,39.06 33.12,39.28 C 33.85,39.60 34.51,39.39 35.25,39.21 C 35.30,39.37 35.02,39.57 34.93,39.71 C 34.77,39.87 34.45,39.97 34.37,40.09 C 33.82,40.73 35.29,39.98 35.65,39.75 C 35.63,40.11 35.56,40.52 35.71,40.87 C 35.83,41.07 36.21,41.08 36.25,40.81 C 36.23,40.60 36.26,40.39 36.25,40.18 C 38.86,42.67 41.22,44.59 42.53,44.71 C 42.57,44.34 39.96,42.04 36.87,39.37 C 37.08,39.31 37.32,39.29 37.37,39.06 C 37.42,38.76 37.09,38.72 36.90,38.75 C 37.04,38.57 37.30,38.59 37.40,38.37 C 37.40,38.02 36.93,38.14 36.78,38.31 C 36.62,38.40 36.33,38.73 36.21,38.62 C 36.42,38.33 36.62,38.02 36.84,37.75 C 37.02,37.60 37.24,37.19 36.93,37.06 C 36.68,37.00 36.51,37.26 36.31,37.37 C 35.86,37.50 35.81,37.96 35.59,38.28 C 35.58,38.27 35.57,38.26 35.56,38.25 C 35.73,37.82 35.96,37.41 36.31,37.09 C 36.50,37.02 36.64,36.82 36.56,36.62 C 36.52,36.51 36.42,36.42 36.31,36.40 C 36.15,36.38 36.02,36.45 35.93,36.56 C 36.04,36.33 36.19,36.09 36.37,35.93 C 35.96,35.42 35.52,35.12 36.25,34.40 C 36.06,33.96 35.46,33.35 34.81,33.46 C 34.20,33.57 33.93,33.53 33.18,36.15 C 33.17,36.14 33.16,36.13 33.15,36.12 C 32.84,28.48 32.22,24.79 29.96,22.03 C 27.70,19.25 25.45,16.17 24.93,15.96 C 24.42,15.76 24.39,16.15 23.78,16.15 C 22.64,10.90 18.65,9.28 18.34,9.28 C 18.03,9.28 17.71,10.39 17.71,11.21 C 15.91,6.08 11.49,3.54 9.59,3.40 z" id="p2482" style="fill:#575970;fill-opacity:1;fill-rule:evenodd;stroke:none;"/>
<path d="M 7.68,15.46 C 8.13,17.34 9.17,17.96 9.37,18.65 C 9.46,18.98 9.99,19.86 10.71,20.87 C 12.29,21.32 13.90,21.62 15.56,21.43 C 18.96,21.02 15.16,17.01 13.18,18.43 C 11.28,17.57 9.49,16.49 7.68,15.46 z" id="p3283" style="fill:#afbcc4;fill-opacity:0.19;fill-rule:evenodd;stroke:none;display:inline"/>
<path d="M 24.62,15.90 C 24.44,15.92 24.31,16.02 24.09,16.09 C 24.38,17.27 25.07,18.70 24.87,19.62 C 25.33,22.04 24.18,24.55 25,26.93 C 26.53,28.73 28.60,30.06 29.90,32.06 C 29.09,32.64 26.30,31.61 25.34,33.21 C 24.60,33.72 23.81,33.95 23,34 C 24.11,35.27 28.19,38.24 30.28,38.62 C 32.13,38.96 34.08,38.88 34.87,38.84 C 34.87,39.28 33.81,38.98 33.43,38.96 C 33.21,38.84 32.86,39.06 33.12,39.28 C 33.85,39.60 34.51,39.39 35.25,39.21 C 35.30,39.37 35.02,39.57 34.93,39.71 C 34.77,39.87 34.45,39.97 34.37,40.09 C 33.82,40.73 35.29,39.98 35.65,39.75 C 35.63,40.11 35.56,40.52 35.71,40.87 C 35.75,40.94 35.82,40.98 35.90,41 C 35.99,40.97 36.09,40.96 36.18,40.93 C 36.21,40.90 36.24,40.86 36.25,40.81 C 36.23,40.60 36.26,40.39 36.25,40.18 C 36.46,40.38 36.66,40.55 36.87,40.75 C 37.27,40.65 37.69,40.54 38.09,40.43 C 37.65,40.05 37.34,39.77 36.87,39.37 C 37.08,39.31 37.32,39.29 37.37,39.06 C 37.42,38.76 37.09,38.72 36.90,38.75 C 37.04,38.57 37.30,38.59 37.40,38.37 C 37.40,38.02 36.93,38.14 36.78,38.31 C 36.62,38.40 36.33,38.73 36.21,38.62 C 36.42,38.33 36.62,38.02 36.84,37.75 C 37.02,37.60 37.24,37.19 36.93,37.06 C 36.68,37.00 36.51,37.26 36.31,37.37 C 35.86,37.50 35.81,37.96 35.59,38.28 C 35.58,38.27 35.57,38.26 35.56,38.25 C 35.73,37.82 35.96,37.41 36.31,37.09 C 36.50,37.02 36.64,36.82 36.56,36.62 C 36.52,36.51 36.42,36.42 36.31,36.40 C 36.15,36.38 36.02,36.45 35.93,36.56 C 36.04,36.33 36.19,36.09 36.37,35.93 C 35.96,35.42 35.52,35.12 36.25,34.40 C 36.12,34.11 35.81,33.77 35.43,33.59 C 35.20,33.57 34.97,33.55 34.75,33.5 C 34.74,33.49 34.72,33.50 34.71,33.5 C 34.18,33.59 33.88,33.69 33.18,36.15 C 33.17,36.14 33.16,36.13 33.15,36.12 C 33.09,34.62 33.03,33.31 32.93,32.09 C 31.69,29.90 30.69,27.51 30.21,25.03 C 29.96,24.13 30.03,23.23 30.18,22.34 C 30.11,22.24 30.04,22.12 29.96,22.03 C 27.70,19.25 25.45,16.17 24.93,15.96 C 24.80,15.91 24.70,15.89 24.62,15.90 z" id="p3285" style="fill:#e5ecee;fill-opacity:0.14;fill-rule:evenodd;stroke:none;display:inline"/>
<path d="M 12.93,4.87 C 13.91,7.39 13.56,10.34 13.90,13 C 13.94,16.26 16.75,18.38 18.53,20.78 C 19.53,21.86 20.73,24.77 22.21,24.12 C 24.14,21.84 23.09,18.69 22.72,15.99 C 22.18,13.96 21.30,12.19 20.31,10.37 C 19.32,9.60 18.47,9.28 18.34,9.28 C 18.03,9.28 17.71,10.39 17.71,11.21 C 16.66,8.22 14.74,6.14 12.93,4.87 z" id="p3287" style="fill:#c9c9ab;fill-opacity:0.14;fill-rule:evenodd;stroke:none;display:inline"/>
<path d="M 6.65,5.09 C 6.22,5.61 4.61,7.79 5.09,9.34 C 5.42,9.60 5.77,9.82 6.15,9.96 C 8.99,10.92 10.95,13.30 13.28,15.06 C 13.36,14.46 11.59,12.76 10.87,11.84 C 9.45,9.62 7.82,7.47 6.65,5.09 z" id="p3289" style="fill:#abbdc9;fill-opacity:0.19;fill-rule:evenodd;stroke:none;display:inline"/>
<path d="M 7.93,16.31 C 8.44,17.55 9.20,18.07 9.37,18.65 C 9.58,19.37 11.75,22.66 14.12,24.62 C 14.96,25.31 15.86,26.35 16.71,27.43 C 19.28,27.51 21.13,29.46 23.37,30.43 C 24.38,30.87 27.36,32.22 26.31,29.96 C 23.68,27.31 21.07,24.60 18.68,21.71 C 17.35,19.61 14.84,18.88 12.56,18.31 C 10.76,18.29 9.33,17.32 7.93,16.31 z" id="p3323" style="fill:#eee5ee;fill-opacity:0.07;fill-rule:evenodd;stroke:none;display:inline"/>
<path d="M 5.46,11.43 C 5.50,12.08 5.93,12.80 6.18,13.18 C 6.59,13.80 7.31,14.63 7.62,15.25 C 8.03,17.31 9.16,17.93 9.37,18.65 C 9.46,18.96 9.95,19.80 10.62,20.75 C 12.33,21.24 14.17,21.35 15.93,21.28 C 18.41,21.59 16.29,19.03 15.34,18.43 C 14.68,16.19 12.48,14.75 10.28,14.31 C 8.73,13.28 6.97,12.52 5.46,11.43 z" id="p3325" style="fill:#eee5ee;fill-opacity:0.07;fill-rule:evenodd;stroke:none;display:inline"/>
<path d="M 28.40,23.78 C 30.09,26.73 30.56,30.21 30.37,33.56 C 31.09,34.36 31.37,36.21 29.75,35.21 C 28.21,34.85 28.22,36.82 29.62,36.93 C 30.69,37.77 32.62,37.94 33.62,38.87 C 34.08,38.86 34.61,38.85 34.87,38.84 C 34.87,39.21 34.21,39.07 33.75,39 C 33.87,39.12 33.98,39.27 34.06,39.43 C 34.45,39.41 34.83,39.31 35.25,39.21 C 35.30,39.37 35.02,39.57 34.93,39.71 C 34.77,39.87 34.45,39.97 34.37,40.09 C 34.30,40.17 34.26,40.24 34.25,40.28 C 34.16,40.56 35.34,39.95 35.65,39.75 C 35.63,40.11 35.56,40.52 35.71,40.87 C 35.77,40.96 35.86,41.02 35.96,41.03 C 36.06,40.85 36.15,40.67 36.25,40.5 C 36.25,40.39 36.25,40.29 36.25,40.18 C 36.28,40.22 36.33,40.24 36.37,40.28 C 36.54,39.97 36.70,39.67 36.87,39.37 C 36.98,39.17 37.07,38.97 37.18,38.78 C 37.09,38.74 36.99,38.73 36.90,38.75 C 37.04,38.57 37.30,38.59 37.40,38.37 C 37.40,38.02 36.93,38.14 36.78,38.31 C 36.62,38.40 36.33,38.73 36.21,38.62 C 36.42,38.33 36.62,38.02 36.84,37.75 C 37.02,37.60 37.24,37.19 36.93,37.06 C 36.68,37.00 36.51,37.26 36.31,37.37 C 35.86,37.50 35.81,37.96 35.59,38.28 C 35.58,38.27 35.57,38.26 35.56,38.25 C 35.73,37.82 35.96,37.41 36.31,37.09 C 36.50,37.02 36.64,36.82 36.56,36.62 C 36.52,36.51 36.42,36.42 36.31,36.40 C 36.15,36.38 36.02,36.45 35.93,36.56 C 36.04,36.33 36.19,36.09 36.37,35.93 C 36.29,35.84 36.22,35.77 36.15,35.68 C 35.24,36.01 34.35,36.37 33.59,36.71 C 31.86,35.43 32.83,32.81 31.56,31.15 C 30.68,28.81 30.29,26.23 28.96,24.09 C 28.81,23.94 28.61,23.83 28.40,23.78 z" id="p3329" style="fill:#eee5ee;fill-opacity:0.18;fill-rule:evenodd;stroke:none;display:inline"/>
<path d="M 9.31,3.40 C 9.62,3.87 9.93,4.31 10.09,4.65 C 10.47,5.97 10.44,7.64 10.65,8.84 C 9.91,7.61 9.36,6.21 8.56,5.03 C 8.56,5.04 8.56,5.05 8.56,5.06 C 7.94,4.51 7.53,4.41 7.18,4.59 C 7.50,5.29 8.66,5.99 8.71,6.84 C 9.54,8.44 10.18,10.15 11.34,11.56 C 11.24,12.21 13.03,13.00 12.12,13.28 C 10.14,12.15 8.25,10.84 6.34,9.59 C 5.96,8.73 5.29,9.16 5.21,9.65 C 5.35,9.90 5.55,10.12 5.84,10.31 C 5.86,10.31 5.88,10.31 5.90,10.31 C 5.95,10.35 5.94,10.37 5.96,10.40 C 6.14,10.60 6.03,10.62 5.78,10.59 C 5.24,11.12 5.55,12.02 5.90,12.68 C 6.00,12.71 6.09,12.75 6.18,12.78 C 6.10,12.77 6.02,12.77 5.93,12.78 C 6.02,12.93 6.11,13.08 6.18,13.18 C 6.31,13.37 6.46,13.60 6.62,13.81 C 6.64,13.82 6.63,13.83 6.65,13.84 C 6.76,13.90 6.78,13.92 6.71,13.90 C 6.99,14.26 7.22,14.62 7.43,14.96 C 7.48,14.97 7.55,14.99 7.59,15 C 9.70,15.54 12.20,15.14 13.93,16.71 C 14.96,17.98 15.78,19.41 16.93,20.59 C 18.30,22.15 19.93,23.47 21.31,25.03 C 21.86,26.04 19.69,25.07 19.09,25.03 C 17.52,24.65 16.06,23.39 14.37,24 C 14.15,24.05 13.92,24.15 13.71,24.25 C 13.85,24.37 13.98,24.50 14.12,24.62 C 14.16,24.65 14.20,24.71 14.25,24.75 C 16.00,24.99 17.67,25.58 19.37,26.03 C 21.16,26.28 23.02,26.85 24.31,28.18 C 24.11,29.84 21.99,28.79 20.96,28.62 C 19.50,28.20 18.06,27.53 16.56,27.25 C 17.04,27.86 17.49,28.46 17.93,29.06 C 18.86,29.38 20.10,29.78 20.25,30 C 19.80,29.96 19.03,29.70 18.37,29.62 C 18.74,30.13 19.11,30.64 19.40,31.03 C 20.05,31.08 20.69,31.14 21.28,31.40 C 22.94,31.78 24.68,31.84 26.31,32.37 C 27.89,32.90 29.23,30.79 27.90,29.81 C 27.68,27.82 28.32,25.85 27.93,23.87 C 27.74,22.98 28.30,20.56 26.96,20.81 C 26.66,22.32 26.99,23.94 27.03,25.5 C 27.06,26.21 27.22,26.45 26.53,26.37 C 26.16,26.85 25.71,27.76 25.96,26.56 C 26.36,25.62 25.12,24.38 24.71,25.81 C 24.69,24.61 24.48,23.31 24.84,22.12 C 25.30,20.52 24.90,18.84 24.87,17.21 C 24.79,16.80 24.79,16.36 24.78,15.93 C 24.42,15.87 24.32,16.15 23.78,16.15 C 23.74,16.00 23.69,15.86 23.65,15.71 C 23.57,18.07 23.71,20.42 23.78,22.78 C 23.49,23.39 23.31,25.60 23.12,23.81 C 22.27,23.04 22.15,21.88 21.15,21.46 C 21.30,20.55 20.36,19.46 20.06,20.75 C 19.65,19.31 19.28,17.87 19.62,16.25 C 19.31,14.93 19.63,13.60 19.68,12.28 C 20.07,11.41 19.00,9.04 18.43,10.81 C 18.40,12.62 18.94,14.48 18.15,16.21 C 17.86,17.20 17.86,16.82 17.65,16.06 C 16.99,15.93 16.36,15.96 16.71,15.06 C 16.54,13.44 15.56,12.05 15.25,10.46 C 14.78,8.85 14.46,7.17 13.87,5.59 C 13.36,5.15 12.86,4.80 12.37,4.5 C 12.51,5.05 12.79,5.78 12.84,6.12 C 13.08,7.16 13.17,8.21 13.21,9.28 C 12.60,7.43 11.35,5.79 10.90,3.93 C 10.89,3.87 10.88,3.81 10.87,3.75 C 10.38,3.56 9.94,3.43 9.59,3.40 C 9.48,3.39 9.40,3.39 9.31,3.40 z M 13.96,8.56 C 14.46,10.60 15.07,12.61 15.87,14.56 C 15.82,15.49 16.28,17.39 15.71,17.71 C 14.96,16.90 14.50,15.76 14.90,14.78 C 14.07,13.55 14.22,11.70 14.06,10.18 C 14.08,9.64 14.00,9.10 13.96,8.56 z M 7.09,11.81 C 7.82,12.00 8.45,12.50 7.43,11.96 C 7.31,11.91 7.21,11.86 7.09,11.81 z M 6.21,12.78 C 6.51,12.80 6.77,12.92 7.06,13.03 C 6.78,12.95 6.49,12.86 6.21,12.78 z M 13.06,13.06 C 13.27,13.57 13.19,14.06 13.06,13.06 z M 7.31,13.12 C 7.87,13.29 8.43,13.47 8.93,13.78 C 8.40,13.62 7.85,13.36 7.31,13.12 z M 18.78,16.93 C 18.76,18.04 18.39,19.88 18.06,20.5 C 17.01,19.60 16.04,18.59 16.93,17.21 C 16.56,17.94 17.46,19.84 18.25,18.59 C 18.26,17.99 18.57,17.49 18.78,16.93 z M 19.03,20.21 C 18.76,21.52 21.09,21.43 20.40,22.84 C 20.20,22.59 19.98,22.37 19.78,22.34 C 19.04,21.85 18.50,21.08 19.03,20.21 z M 21.21,23 C 21.47,22.95 21.62,23.01 21.43,23.68 C 21.27,24.07 20.94,23.53 20.56,23.03 C 20.76,23.12 21.02,23.03 21.21,23 z M 22.34,24.06 C 22.28,24.50 22.35,24.94 22.53,25.31 C 22.82,25.93 23.36,26.39 23.93,26.5 C 23.93,27.26 22.19,25.92 22.43,25.84 C 22.61,25.66 22.61,25.49 22.53,25.31 C 22.27,24.77 21.29,24.24 22.34,24.06 z M 25.09,27.15 C 25.17,27.59 25.04,28.50 24.68,27.59 C 24.90,27.56 25.02,27.33 25.09,27.15 z M 25.31,28.12 C 25.38,28.08 25.32,28.23 25.31,28.12 z M 25.96,28.53 C 27.18,28.44 26.07,30.49 27.37,30.56 C 27.81,32.40 25.02,31.15 24.09,31.03 C 23.65,30.28 22.63,30.07 21.71,29.68 C 23.03,30.12 24.81,29.80 25.25,28.71 C 25.46,28.92 25.93,28.86 25.96,28.53 z" id="p3358" style="fill:#55556e;fill-opacity:0.50;fill-rule:evenodd;stroke:none;display:inline"/>
<path d="M 8.93,3.62 C 8.89,3.85 8.84,4.06 8.78,4.25 C 8.77,4.25 8.78,4.27 8.78,4.28 C 9.13,4.89 9.57,5.52 9.56,6.18 C 9.98,7.40 10.35,8.63 10.68,9.87 C 9.96,8.51 9.87,6.80 8.78,5.65 C 8.80,6.89 9.66,7.95 9.96,9.15 C 10.18,9.61 10.63,11.00 10.03,9.84 C 9.02,8.22 7.68,6.87 6.37,5.5 C 6.28,5.61 6.22,5.69 6.12,5.84 C 6.57,6.35 7.40,7.02 7.62,7.37 C 8.68,8.48 9.57,9.76 10.28,11.12 C 10.86,11.63 11.62,13.58 10.18,12.46 C 8.70,11.78 7.16,11.24 5.59,10.81 C 5.51,10.96 5.47,11.13 5.46,11.31 C 6.40,11.66 7.39,12.19 7.37,12.40 C 6.72,12.19 6.10,11.93 5.5,11.62 C 5.53,11.83 5.60,12.01 5.68,12.21 C 6.88,12.76 8.17,13.18 9.40,13.59 C 9.97,14.71 6.60,12.15 7.56,13.84 C 7.25,13.76 6.74,13.51 6.25,13.28 C 6.36,13.45 6.51,13.65 6.65,13.84 C 8.75,14.60 10.79,15.49 12.93,16.12 C 13.98,15.57 15.51,18.04 13.59,17.46 C 11.45,17.01 9.42,16.18 7.53,15.09 C 7.55,15.14 7.60,15.20 7.62,15.25 C 7.65,15.39 7.68,15.52 7.71,15.65 C 8.67,16.13 9.63,16.56 10.59,17 C 11.89,17.46 13.28,18.08 14.68,17.84 C 15.49,17.68 14.75,16.68 15.62,17.40 C 16.84,17.73 17.84,20.18 15.78,19.40 C 13.64,19.05 11.44,19.11 9.34,18.56 C 9.35,18.59 9.36,18.62 9.37,18.65 C 9.39,18.72 9.44,18.82 9.5,18.93 C 11.29,19.54 13.32,19.16 15.03,20.09 C 15.87,20.31 17.71,21.55 17.46,21.81 C 14.73,21.07 12.11,20.00 9.5,18.93 C 9.58,19.11 9.70,19.35 9.87,19.62 C 10.67,19.95 11.66,20.05 12.37,20.46 C 13.96,21.26 15.40,22.34 17.03,23.06 C 19.01,24.07 21.03,25.11 22.65,26.68 C 22.81,27.71 24.76,27.50 24.93,28.81 C 25.47,29.28 25.85,30.62 24.68,29.93 C 22.90,29.66 21.10,29.34 19.5,28.5 C 18.83,28.29 17.48,27.65 16.87,27.62 C 17.13,27.95 17.37,28.29 17.62,28.62 C 18.72,29.29 20.13,29.49 21.37,29.78 C 22.96,30.25 24.52,30.85 26.03,31.53 C 25.36,31.92 23.43,31.44 22.31,31.53 C 21.46,31.57 20.45,31.37 19.56,31.25 C 19.84,31.60 20.11,31.89 20.28,32.03 C 20.31,32.05 20.34,32.07 20.37,32.09 C 20.82,32.15 21.29,32.21 21.68,32.34 C 23.94,32.64 26.27,32.54 28.46,31.93 C 28.34,31.17 27.85,29.50 26.68,29.28 C 26.87,26.74 26.05,24.27 24.87,22.06 C 24.47,20.51 24.98,18.85 24.43,17.34 C 24.14,16.19 22.90,16.66 23.43,17.75 C 23.49,19.50 24.58,21.15 24.06,22.90 C 23.81,23.77 23.63,25.58 23.21,25.81 C 22.73,24.69 21.18,23.28 22.31,22.31 C 21.67,21.37 21.19,20.42 21.09,19.31 C 19.86,18.35 20.17,21.19 19.15,19.90 C 18.57,18.31 19.15,16.50 19,14.81 C 18.87,14.06 19.37,12.46 18.56,12.28 C 18.30,14.03 18.78,15.94 18.03,17.65 C 17.92,18.32 17.36,18.79 17.46,17.81 C 17.77,14.72 17.27,11.47 15.56,8.84 C 15.18,8.06 14.80,6.07 14.03,6.25 C 14.32,8.52 14.60,10.79 15.09,13.03 C 14.47,11.66 13.98,9.72 13.56,8.09 C 13.28,6.99 13.03,5.88 12.78,4.78 C 12.57,4.63 12.36,4.52 12.15,4.40 C 12.13,5.72 12.57,7.07 12.46,8.40 C 12.53,9.46 12.84,10.50 12.84,11.56 C 11.77,8.80 10.10,6.33 8.93,3.62 z M 9.90,6.28 C 11.22,8.73 12.60,11.21 13.15,13.96 C 12.03,12.93 11.31,11.60 11.12,10.09 C 10.75,8.81 10.34,7.54 9.90,6.28 z M 12.71,6.5 C 13.35,9.55 14.11,12.62 15.5,15.43 C 16.33,14.25 14.92,12.76 15.12,11.40 C 15.00,10.41 14.59,8.21 14.78,7.96 C 15.97,10.35 17.27,12.87 17.09,15.62 C 17.12,16.34 17.41,18.81 16.21,17.40 C 14.84,16.60 13.68,15.32 13.53,13.68 C 13.30,11.58 12.86,9.53 12.81,7.40 C 12.78,7.10 12.74,6.79 12.71,6.5 z M 7.78,12.03 C 8.93,12.45 10.90,12.75 11.28,13.84 C 9.91,13.67 9.04,12.45 7.78,12.03 z M 11.93,13.12 C 12.65,13.90 14.02,15.50 14,16.03 C 12.71,15.47 12.08,14.45 11.93,13.12 z M 10.18,13.93 C 10.77,14.29 11.64,14.71 10.5,14.31 C 10.35,14.21 10.31,14.05 10.18,13.93 z M 9.09,14.18 C 9.59,14.15 10.70,15.01 9.62,14.5 L 9.34,14.34 L 9.09,14.18 z M 10.87,14.81 C 11.70,14.87 12.18,15.65 11.12,15.09 C 10.98,15.07 10.95,14.90 10.87,14.81 z M 12.40,15.5 C 12.75,15.56 12.26,15.64 12.40,15.5 z M 23.75,16.96 C 24.13,17.59 24.40,19.41 24.18,19.53 C 23.96,18.69 23.86,17.82 23.75,16.96 z M 18.53,17.62 C 18.75,18.19 18.52,20.31 17.96,18.78 C 18.17,18.40 18.36,18.02 18.53,17.62 z M 17.68,19.28 C 18.92,19.96 16.93,19.94 17.68,19.28 z M 20.65,19.46 C 21.13,19.92 21.10,21.20 20.28,20.43 C 20.40,20.11 20.39,19.73 20.65,19.46 z M 15.68,19.84 C 16.43,19.99 18.13,19.90 18.21,20.37 C 17.34,20.63 16.43,20.30 15.68,19.84 z M 19.31,20.46 C 20.50,20.61 18.64,23.12 19,21.37 C 18.99,21.04 18.81,20.52 19.31,20.46 z M 18.56,20.78 C 18.71,21.60 18.59,22.45 17.96,21.37 C 16.49,20.38 17.96,21.11 18.56,20.78 z M 20.15,20.81 C 21.53,20.80 21.64,23.48 20,22.56 C 18.72,22.48 20.35,21.40 20.15,20.81 z M 21.59,21.93 C 22.28,22.28 21.40,22.80 21.59,21.93 z M 24.53,22.12 C 25.60,24.37 26.54,26.80 26.31,29.34 C 25.93,30.26 27.40,29.33 27.53,30.40 C 28.54,32.00 26.57,32.15 25.87,31 C 25.34,30.74 23.80,30.39 23.84,30.15 C 24.61,30.08 27.17,31.30 25.93,29.71 C 25.34,27.90 23.58,27.23 22.46,25.90 C 20.65,24.38 18.54,23.28 16.43,22.21 C 18.05,22.85 20.35,22.42 21.56,23.56 C 22.13,24.32 22.49,26.60 23.56,26.15 C 24.22,24.95 24.19,23.44 24.53,22.12 z M 21.46,31.87 C 22.57,31.97 25.01,32.01 25.28,32.03 C 24.01,32.05 22.72,32.05 21.46,31.87 z" id="p3373" style="fill:#2a2b37;fill-opacity:0.42;fill-rule:evenodd;stroke:none;display:inline"/>
<path d="M 6.31,5.59 C 6.21,5.73 6.14,5.79 6.03,5.96 C 6.86,6.89 8.10,7.63 8.40,8.93 C 8.80,9.38 9.77,10.69 8.68,9.56 C 7.84,8.70 6.62,7.54 5.43,7 C 5.31,7.26 5.23,7.53 5.15,7.81 C 5.90,8.38 6.69,8.91 7.37,9.56 C 8.59,10.56 9.84,11.55 11.18,12.40 C 12.42,14.22 13.94,15.86 14.90,17.84 C 14.88,18.57 12.56,17.21 11.71,17.09 C 10.40,16.61 9.08,16.14 7.75,15.75 C 7.80,15.94 7.87,16.11 7.93,16.28 C 9.26,16.70 11.22,17.26 11.34,17.62 C 10.13,17.47 9.05,16.89 7.96,16.37 C 8.47,17.57 9.21,18.08 9.37,18.65 C 9.44,18.91 9.82,19.55 10.31,20.28 C 10.32,20.29 10.33,20.30 10.34,20.31 C 12.04,21.85 14.37,22.73 16.43,23.68 C 17.13,23.99 19.69,24.93 17.56,24.46 C 16.04,24.23 14.57,23.83 13.06,23.62 C 13.41,23.97 13.75,24.32 14.12,24.62 C 14.64,24.80 15.15,25.00 15.40,25.34 C 17.95,26.93 20.58,28.39 23.12,30 C 23.69,30.36 25.57,31.28 23.93,30.75 C 23.20,30.28 20.49,29.89 22.43,30.78 C 24.10,31.77 26.04,32.01 27.84,32.65 C 28.98,32.89 29.61,34.90 27.96,34.21 C 25.89,33.95 23.99,33.02 22.15,32.09 C 20.89,32.94 24.14,33.38 24.90,33.87 C 26.35,34.45 27.76,35.11 29.12,35.87 C 27.61,36.30 26.16,35.20 24.65,35.43 C 26.24,36.53 28.50,37.14 30.5,37.43 C 32.17,37.61 33.92,37.61 35.46,38.37 C 34.92,37.53 35.75,36.72 36.28,35.84 C 36.02,35.53 35.81,35.27 35.90,34.93 C 35.81,34.93 35.70,34.92 35.59,34.81 C 34.66,35.52 35.53,34.15 35.65,33.90 C 35.77,33.92 35.88,33.95 35.96,34 C 35.77,33.77 35.51,33.57 35.21,33.5 C 35.20,33.49 35.19,33.50 35.18,33.5 C 34.65,33.91 34.40,35.21 34.31,36.03 C 34.35,37.45 33.29,37.40 33.31,36 C 33.31,35.91 33.31,35.82 33.31,35.75 C 33.26,35.90 33.23,35.97 33.18,36.15 C 33.17,36.14 33.16,36.13 33.15,36.12 C 33.13,35.50 33.09,34.94 33.06,34.37 C 32.88,33.62 32.68,32.85 32.65,32.09 C 32.87,31.33 32.55,30.01 32.12,31.40 C 31.90,32.10 31.75,33.26 31.81,31.84 C 32.24,30.77 30.88,28.75 30.53,30.81 C 30.07,32.40 30.40,29.45 30.25,29.03 C 29.94,27.27 30.31,25.03 28.93,23.71 C 28.61,24.14 28.36,25.99 28.28,24.37 C 28.18,22.81 28.23,21.24 28.09,19.68 C 28.03,19.61 27.96,19.54 27.90,19.46 C 27.32,20.83 28.09,22.93 27.68,23.87 C 27.36,22.37 26.99,20.72 26.18,19.46 C 25.43,20.14 26.90,22.21 25.96,23.31 C 25.55,23.96 25.74,26.80 25.28,24.90 C 24.50,22.10 24.39,19.14 23.34,16.40 C 21.71,15.55 22.35,18.77 22,19.75 C 21.89,20.46 21.65,22.41 21.34,22.28 C 21.16,18.98 21.26,15.63 20.46,12.40 C 20.64,11.56 19.93,10.32 20.03,11.87 C 20.30,15.47 20.67,19.08 20.93,22.68 C 20.89,23.69 21.62,24.24 21.78,22.90 C 22.42,20.95 22.47,18.89 22.68,16.87 C 23.63,16.59 23.53,19.13 23.87,19.93 C 24.34,22.68 24.59,25.56 25.93,28.06 C 26.14,26.95 25.81,24.58 26.31,24.28 C 26.73,26.64 27.12,29.05 26.96,31.46 C 28.15,31.29 27.28,28.31 27.90,28.65 C 27.79,29.41 28.43,31.35 28.53,29.5 C 28.46,27.95 28.11,25.92 29.12,24.75 C 30.10,26.62 29.23,28.85 29.37,30.87 C 28.92,31.56 29.70,32.74 29.84,31.93 C 29.88,32.68 30.19,33.63 30.46,32.34 C 30.45,31.61 31.43,29.38 31.40,31.34 C 31.70,32.25 30.75,34.08 32,34.37 C 32.14,33.54 32.36,32.09 32.18,33.75 C 31.96,34.58 32.69,34.74 32.68,34.5 C 32.56,35.58 34.09,38.12 32.06,37.21 C 31.35,36.70 29.43,36.80 29.37,36.15 C 30.69,35.66 28.07,35.05 27.53,34.65 C 26.00,33.73 30.08,35.78 29.53,33.96 C 28.63,31.88 26.07,31.59 24.40,30.34 C 21.87,28.90 19.44,27.28 16.90,25.87 C 18.80,26.58 20.92,26.42 22.78,27.21 C 24.32,26.68 21.45,25.72 20.87,25.31 C 17.79,23.53 14.24,22.65 11.31,20.59 C 10.59,20.16 9.26,18.76 9.5,18.34 C 11.51,19.75 13.75,20.87 16.06,21.71 C 17.57,22.09 18.59,20.11 16.84,19.56 C 16.53,19.25 14.46,18.40 15.81,18.81 C 15.27,17.31 14.19,16.03 13.34,14.71 C 12.26,13.05 10.84,11.72 9.84,10.12 C 8.47,8.91 8.05,7.04 6.59,5.87 C 6.50,5.77 6.40,5.68 6.31,5.59 z M 5.62,7.62 C 6.40,7.89 8.15,9.65 6.5,8.28 C 6.21,8.06 5.91,7.84 5.62,7.62 z M 8.78,17.46 C 10.80,18.09 12.70,19.18 14.84,19.37 C 16.19,18.95 18.77,21.34 16.12,21.28 C 14.75,20.93 13.46,20.15 12.15,19.53 C 10.99,18.90 9.88,18.19 8.78,17.46 z M 26.5,21.12 C 27.41,23.19 27.89,25.54 27.37,27.78 C 27.01,25.57 26.63,23.37 26.5,21.12 z M 14.18,24.25 C 16.20,24.58 18.20,25.06 20.15,25.68 C 18.19,25.04 16.01,25.36 14.18,24.25 z M 36.18,34.31 C 36.20,34.35 36.21,34.39 36.21,34.43 C 36.23,34.42 36.23,34.41 36.25,34.40 C 36.23,34.37 36.20,34.34 36.18,34.31 z M 35.71,35.15 C 35.70,35.70 34.76,38.02 34.87,36.31 C 35.05,35.86 35.33,35.45 35.71,35.15 z M 34.43,37.34 C 34.93,37.82 33.93,37.81 34.43,37.34 z" id="p3387" style="fill:#abafb6;fill-opacity:0.21;fill-rule:evenodd;stroke:none;display:inline"/>
<path d="M 9.25,3.40 C 9.14,3.42 9.04,3.46 8.96,3.5 C 8.86,4.11 8.66,4.44 8.56,5.06 C 7.63,4.23 7.20,4.44 6.68,5.06 C 6.17,5.68 3.59,9.06 5.96,10.40 C 4.93,11.02 5.77,12.56 6.18,13.18 C 6.59,13.80 7.31,14.63 7.62,15.25 C 8.03,17.31 9.16,17.93 9.37,18.65 C 9.58,19.37 11.75,22.66 14.12,24.62 C 16.49,26.58 19.35,31.31 20.28,32.03 C 21.20,32.75 22.13,32.65 22.75,33.68 C 22.84,33.83 23.03,34.07 23.28,34.31 C 23.68,34.12 24.14,33.94 24.53,33.84 C 25.06,33.71 25.79,33.84 26.34,33.84 C 27.20,33.84 27.28,33.79 27.56,33.25 C 27.80,32.76 27.91,32.48 28.06,31.90 C 28.16,31.48 27.93,31.08 27.93,30.56 C 27.66,29.90 27.06,28.86 26.46,28.12 C 26.01,27.55 25.85,27.26 25.5,26.90 C 25.15,26.55 25.12,26.00 25.12,25.43 C 25.12,24.54 24.70,23.44 24.53,22.75 C 24.40,22.22 24.40,21.64 24.28,21.15 C 24.07,20.33 24.56,19.90 25,19.68 C 25.54,19.41 26.03,20.32 26.21,20.68 C 26.61,21.47 27.41,22.35 27.93,22.87 C 28.39,23.32 28.82,24.01 29.15,24.56 C 29.53,25.18 29.63,25.55 29.87,26.03 C 30.11,26.51 30.26,26.91 30.37,27.37 C 30.56,28.11 31.25,28.87 31.71,29.34 C 32.13,29.75 32.51,30.81 32.68,31.15 C 32.76,31.31 32.81,31.39 32.87,31.5 C 32.47,26.87 31.70,24.16 29.96,22.03 C 27.70,19.25 25.45,16.17 24.93,15.96 C 24.42,15.76 24.39,16.15 23.78,16.15 C 22.64,10.90 18.65,9.28 18.34,9.28 C 18.03,9.28 17.71,10.39 17.71,11.21 C 15.91,6.08 11.49,3.54 9.59,3.40 C 9.45,3.39 9.35,3.38 9.25,3.40 z" id="p3409" style="fill:#323246;fill-opacity:0.25;fill-rule:evenodd;stroke:none;display:inline"/>
<path d="M 8.47,8.15 C 12.35,13.65 15.50,17.71 18.39,20.95 C 21.27,24.20 23.43,26.99 25.24,28.97" id="p3400" style="fill:none;fill-rule:evenodd;stroke:#a7a7a7;stroke-width:0.45;stroke-linecap:round;stroke-linejoin:miter;stroke-miterlimit:4;stroke-dasharray:none;stroke-opacity:0.70;display:inline"/>
<path d="M 9.25,3.40 C 9.14,3.42 9.04,3.46 8.96,3.5 C 8.86,4.11 8.66,4.44 8.56,5.06 C 7.63,4.23 7.20,4.44 6.68,5.06 C 6.17,5.68 3.59,9.06 5.96,10.40 C 4.93,11.02 5.77,12.56 6.18,13.18 C 6.59,13.80 7.31,14.63 7.62,15.25 C 8.03,17.31 9.16,17.93 9.37,18.65 C 9.58,19.37 11.75,22.66 14.12,24.62 C 16.49,26.58 19.35,31.31 20.28,32.03 C 21.20,32.75 22.13,32.65 22.75,33.68 C 23.30,34.60 27.05,37.46 29.46,38.37 C 28.15,37.25 26.90,36.07 25.87,34.68 C 26.56,33.51 29.37,35.03 30.5,34.28 C 28.36,32.95 30.56,31.22 30.31,29.40 C 30.28,28.40 31.02,28.09 32.65,29.59 C 32.20,26.10 31.45,23.85 29.96,22.03 C 27.70,19.25 25.45,16.17 24.93,15.96 C 24.42,15.76 24.39,16.15 23.78,16.15 C 22.64,10.90 18.65,9.28 18.34,9.28 C 18.03,9.28 17.71,10.39 17.71,11.21 C 15.91,6.08 11.49,3.54 9.59,3.40 C 9.45,3.39 9.35,3.38 9.25,3.40 z" id="p3415" style="fill:#323246;fill-opacity:0.25;fill-rule:evenodd;stroke:none;display:inline"/>
<path d="M 20.37,23.38 C 23.25,26.81 25.60,29.42 26.86,30.60 C 28.12,31.77 29.74,33.39 30.65,34.38" id="p3402" style="fill:none;fill-rule:evenodd;stroke:#a0a0a0;stroke-width:0.50;stroke-linecap:round;stroke-linejoin:miter;stroke-miterlimit:4;stroke-dasharray:none;stroke-opacity:0.80;display:inline"/>
<path d="M 28.66,32.40 C 33.71,37.27 40.38,43.22 41.55,44.03" id="p3404" style="fill:none;fill-rule:evenodd;stroke:#c5c5c5;stroke-width:.55px;stroke-linecap:round;stroke-linejoin:miter;stroke-opacity:1;display:inline"/>
<path d="M 36.81,37.78 C 36.14,37.96 35.61,38.57 35.25,39.34 C 35.12,39.59 35.02,39.84 34.93,40.12 C 35.22,39.99 35.51,39.84 35.65,39.75 C 35.63,40.11 35.56,40.52 35.71,40.87 C 35.83,41.07 36.21,41.08 36.25,40.81 C 36.23,40.60 36.26,40.39 36.25,40.18 C 38.86,42.67 41.22,44.59 42.53,44.71 C 42.57,44.34 39.96,42.04 36.87,39.37 C 37.08,39.31 37.32,39.29 37.37,39.06 C 37.42,38.76 37.09,38.72 36.90,38.75 C 37.04,38.57 37.30,38.59 37.40,38.37 C 37.40,38.02 36.93,38.14 36.78,38.31 C 36.62,38.40 36.33,38.73 36.21,38.62 C 36.41,38.34 36.60,38.04 36.81,37.78 z" id="p3428" style="fill:#ffffff;fill-opacity:0.64;fill-rule:evenodd;stroke:none;display:inline"/>
<path d="M 34.86,38.11 C 34.89,36.56 35.56,35.77 35.94,35.52" id="p3424" style="fill:none;fill-rule:evenodd;stroke:#f9f9f9;stroke-width:0.5;stroke-linecap:butt;stroke-linejoin:miter;stroke-miterlimit:4;stroke-dasharray:none;stroke-opacity:0.50"/>
<path d="M 34.00,37.37 L 36.13,39.31" id="p3422" style="fill:none;fill-rule:evenodd;stroke:#ffffff;stroke-width:1.39;stroke-linecap:round;stroke-linejoin:miter;stroke-miterlimit:4;stroke-dasharray:none;stroke-opacity:0.81"/>
<path d="M 35.65,38.77 C 35.65,38.77 36.09,37.57 37.01,37.29" id="p3426" style="fill:none;fill-rule:evenodd;stroke:#f9f9f9;stroke-width:0.5;stroke-linecap:butt;stroke-linejoin:miter;stroke-miterlimit:4;stroke-dasharray:none;stroke-opacity:0.88"/>
<path d="M 9.59,3.40 C 9.32,3.38 9.12,3.42 8.96,3.5 C 8.86,4.11 8.66,4.44 8.56,5.06 C 7.63,4.23 7.20,4.44 6.68,5.06 C 6.17,5.68 3.59,9.06 5.96,10.40 C 4.93,11.02 5.77,12.56 6.18,13.18 C 6.59,13.80 7.31,14.63 7.62,15.25 C 8.03,17.31 9.16,17.93 9.37,18.65 C 9.58,19.37 11.75,22.66 14.12,24.62 C 16.49,26.58 19.35,31.31 20.28,32.03 C 21.20,32.75 22.13,32.65 22.75,33.68 C 23.36,34.71 28.01,38.21 30.28,38.62 C 32.13,38.96 34.08,38.88 34.87,38.84 C 34.87,39.28 33.81,38.98 33.43,38.96 C 33.21,38.84 32.86,39.06 33.12,39.28 C 33.85,39.60 34.51,39.39 35.25,39.21 C 35.30,39.37 35.02,39.57 34.93,39.71 C 34.77,39.87 34.45,39.97 34.37,40.09 C 33.82,40.73 35.29,39.98 35.65,39.75 C 35.63,40.11 35.56,40.52 35.71,40.87 C 35.83,41.07 36.21,41.08 36.25,40.81 C 36.23,40.60 36.26,40.39 36.25,40.18 C 38.86,42.67 41.22,44.59 42.53,44.71 C 42.57,44.34 39.96,42.04 36.87,39.37 C 37.08,39.31 37.32,39.29 37.37,39.06 C 37.42,38.76 37.09,38.72 36.90,38.75 C 37.04,38.57 37.30,38.59 37.40,38.37 C 37.40,38.02 36.93,38.14 36.78,38.31 C 36.62,38.40 36.33,38.73 36.21,38.62 C 36.42,38.33 36.62,38.02 36.84,37.75 C 37.02,37.60 37.24,37.19 36.93,37.06 C 36.68,37.00 36.51,37.26 36.31,37.37 C 35.86,37.50 35.81,37.96 35.59,38.28 C 35.58,38.27 35.57,38.26 35.56,38.25 C 35.73,37.82 35.96,37.41 36.31,37.09 C 36.50,37.02 36.64,36.82 36.56,36.62 C 36.52,36.51 36.42,36.42 36.31,36.40 C 36.15,36.38 36.02,36.45 35.93,36.56 C 36.04,36.33 36.19,36.09 36.37,35.93 C 35.96,35.42 35.52,35.12 36.25,34.40 C 36.06,33.96 35.46,33.35 34.81,33.46 C 34.20,33.57 33.93,33.53 33.18,36.15 C 33.17,36.14 33.16,36.13 33.15,36.12 C 32.84,28.48 32.22,24.79 29.96,22.03 C 27.70,19.25 25.45,16.17 24.93,15.96 C 24.42,15.76 24.39,16.15 23.78,16.15 C 22.64,10.90 18.65,9.28 18.34,9.28 C 18.03,9.28 17.71,10.39 17.71,11.21 C 15.91,6.08 11.49,3.54 9.59,3.40 z" id="p3281" style="fill:none;fill-rule:evenodd;stroke:#000000;stroke-width:0.5;stroke-linecap:butt;stroke-linejoin:miter;stroke-miterlimit:4;stroke-dasharray:none;stroke-opacity:1"/>
</g>
</svg>
