<?xml version="1.0" encoding="UTF-8" standalone="no"?>
<svg
   xmlns:dc="http://purl.org/dc/elements/1.1/"
   xmlns:cc="http://creativecommons.org/ns#"
   xmlns:rdf="http://www.w3.org/1999/02/22-rdf-syntax-ns#"
   xmlns:svg="http://www.w3.org/2000/svg"
   xmlns="http://www.w3.org/2000/svg"
   viewBox="0 0 48 48"
   version="1.1"
   id="svg3336"
   height="100%"
   width="100%">
  <g
     style="display:inline"
     id="layer2">
    <path
       id="path3357"
       d="m 2.18,41.55 c 0,0 11.97,-12.08 12.89,-12.89 C 16,27.85 17.95,26.47 20.60,23.71 c 2.64,-2.76 5.17,-5.64 5.17,-5.64 L 23.71,17.26 c 0,0 -0.46,-6.79 -0.46,-7.48 0,-0.69 5.17,-6.10 6.67,-7.59 8.05,1.15 15.21,5.78 15.90,6.47 0.39,1.53 -0.79,7.10 -1.02,7.56 -0.23,0.46 -6.24,6.21 -6.70,6.56 -0.46,0.34 -1.61,0.69 -1.95,0.57 -0.34,-0.11 -6.21,-3.10 -6.21,-3.10 0,0 -4.94,4.60 -6.67,6.67 -1.72,2.07 -4.25,5.52 -5.75,7.02 C 16,35.45 7.25,45.46 6.67,45.92 6.10,46.38 1.95,43.62 2.18,41.55 Z"
       style="fill:#6e3d14;fill-opacity:1;fill-rule:evenodd;stroke:none;stroke-width:0.5;stroke-linecap:butt;stroke-linejoin:miter;stroke-miterlimit:4;stroke-dasharray:none;stroke-opacity:1" />
    <path
       id="path4680"
       d="m 39.50,13.90 -3.18,3.66 -1.05,5.35 c 0.22,0.10 0.83,0.41 0.87,0.43 0.34,0.11 1.49,-0.23 1.95,-0.57 0.08,-0.06 0.87,-0.82 1.25,-1.18 z"
       style="display:inline;fill:#926e52;fill-opacity:1;fill-rule:evenodd;stroke:none;stroke-width:1px;stroke-linecap:butt;stroke-linejoin:miter;stroke-opacity:1" />
    <path
       id="path4655"
       d="m 45.84,8.79 c -2.49,1.92 -7.21,7.42 -7.21,7.42 l -0.51,6.55 c 0.48,-0.36 6.46,-6.08 6.69,-6.54 0.22,-0.45 1.35,-5.75 1.03,-7.43 z"
       style="display:inline;fill:#d7beae;fill-opacity:1;fill-rule:evenodd;stroke:none;stroke-width:1px;stroke-linecap:butt;stroke-linejoin:miter;stroke-opacity:1" />
    <path
       id="path4678"
       d="m 43.86,7.33 -6.00,6.28 0,2.22 2.60,1.73 5.16,-5.28 c 0.22,-1.47 0.36,-2.94 0.19,-3.62 -0.19,-0.19 -0.91,-0.69 -1.97,-1.33 z"
       style="display:inline;fill:#cdb398;fill-opacity:1;fill-rule:evenodd;stroke:none;stroke-width:1px;stroke-linecap:butt;stroke-linejoin:miter;stroke-opacity:1" />
    <path
       id="path4651"
       d="m 29.92,2.18 c -1.24,1.24 -5.02,5.18 -6.25,6.86 3.67,1.18 14.18,5.91 14.18,5.91 0,0 4.92,-4.58 7.48,-6.68 C 43.51,6.96 37.08,3.21 29.92,2.18 Z"
       style="display:inline;fill:#a88552;fill-opacity:1;fill-rule:evenodd;stroke:none;stroke-width:1px;stroke-linecap:butt;stroke-linejoin:miter;stroke-opacity:1" />
    <path
       id="path4773"
       d="m 37.88,15.80 c 0,0 -6.25,-2.95 -8.87,-3.98"
       style="fill:none;fill-rule:evenodd;stroke:#a56636;stroke-width:1.39;stroke-linecap:butt;stroke-linejoin:miter;stroke-miterlimit:4;stroke-dasharray:none;stroke-opacity:0.49" />
    <path
       id="path4653"
       d="m 23.27,10.21 c 0.04,1.23 0.43,7.05 0.43,7.05 l 2.07,0.80 4.14,2.18 c 0,0 5.87,2.99 6.21,3.10 0.12,0.04 0.35,0.01 0.61,-0.04 l 0.61,-7.00 c 0,0 -11.34,-4.91 -14.10,-6.10 z"
       style="display:inline;fill:#836131;fill-opacity:1;fill-rule:evenodd;stroke:none;stroke-width:1px;stroke-linecap:butt;stroke-linejoin:miter;stroke-opacity:1" />
    <path
       id="path4721"
       d="m 23.53,14.38 c 0.08,1.22 0.17,2.87 0.17,2.87 l 2.07,0.80 1.36,0.71 c 0.00,-0.05 -0.00,-0.11 -0.01,-0.16 -0.34,-1.20 -1.76,-2.98 -3.58,-4.23 z"
       style="display:inline;fill:#452404;fill-opacity:0.18;fill-rule:evenodd;stroke:none;stroke-width:1px;stroke-linecap:butt;stroke-linejoin:miter;stroke-opacity:1" />
    <path
       id="path4819"
       d="M 27.90 4.28 C 27.84 4.34 27.78 4.40 27.73 4.46 C 27.77 4.47 27.81 4.48 27.85 4.5 C 30.46 5.10 33.14 5.53 35.64 6.55 C 36.91 7.09 37.71 8.30 38.97 8.87 C 40.03 9.51 41.02 10.26 42.24 10.58 C 43.08 11.01 41.20 10.62 40.89 10.37 C 39.35 9.67 37.85 8.89 36.34 8.12 C 34.80 7.49 33.03 8.09 31.50 7.35 C 30.01 6.64 28.50 5.85 26.91 5.33 C 26.86 5.39 26.81 5.44 26.75 5.50 C 28.49 6.06 30.13 6.93 31.80 7.64 C 30.19 7.60 28.53 7.38 27.15 6.49 C 26.87 6.37 26.55 6.21 26.24 6.06 C 26.18 6.11 26.13 6.16 26.08 6.22 C 26.59 6.44 27.11 6.63 27.53 6.92 C 28.88 7.71 30.45 7.76 31.96 7.86 C 33.28 8.06 34.15 9.20 35.30 9.79 C 36.53 10.58 37.79 11.35 39.00 12.18 C 38.41 13.09 36.67 12.18 35.68 12.20 C 34.38 11.99 33.48 10.88 32.18 10.69 C 31.03 10.48 29.84 10.34 28.83 9.72 C 27.32 9.17 25.59 9.26 24.24 8.33 C 24.21 8.37 24.16 8.42 24.13 8.46 C 24.27 8.57 24.36 8.66 24.24 8.68 C 24.16 8.66 24.09 8.62 24.02 8.59 C 23.97 8.65 23.95 8.69 23.90 8.74 C 24.78 9.11 25.76 9.23 26.50 9.92 C 28.17 10.98 29.99 11.78 31.65 12.85 C 32.95 13.83 34.54 14.85 36.25 14.41 C 37.51 13.93 38.80 15.86 39.61 14.52 C 40.25 14.02 41.86 13.02 42.23 13.62 C 40.94 15.06 39.66 16.72 39.60 18.74 C 39.65 19.40 39.38 20.65 39.80 21.18 C 39.94 21.05 40.03 20.97 40.18 20.82 C 40.25 19.56 40.66 18.35 41.27 17.21 C 41.93 15.76 42.07 14.01 43.30 12.85 C 43.50 12.09 44.37 10.70 45.66 10.79 C 45.72 10.81 45.77 10.84 45.82 10.86 C 45.83 10.75 45.85 10.63 45.86 10.52 C 45.76 10.52 45.65 10.53 45.52 10.56 C 43.84 10.54 43.57 12.48 42.38 13.11 C 41.10 13.28 40.00 13.86 39.09 14.75 C 38.07 14.80 37.07 13.85 35.88 14.27 C 33.97 14.59 32.53 13.13 31.05 12.21 C 29.28 11.29 27.53 10.35 25.86 9.28 C 27.56 9.42 29.11 10.14 30.71 10.63 C 32.22 10.69 33.50 11.39 34.77 12.11 C 36.06 12.62 37.45 12.70 38.82 12.76 C 40.00 11.84 37.55 11.23 36.97 10.63 C 35.54 9.71 34.13 8.76 32.66 7.90 C 34.33 8.02 36.19 7.86 37.57 8.99 C 38.87 9.75 40.33 10.23 41.64 10.96 C 42.34 11.28 43.43 10.44 42.11 10.34 C 40.68 9.86 39.45 8.88 38.16 8.12 C 36.94 7.11 35.67 6.05 34.06 5.78 C 32.03 5.16 29.95 4.76 27.90 4.28 z M 23.26 10.03 C 23.26 10.06 23.27 10.21 23.27 10.25 C 24.11 10.73 24.87 11.43 25.70 11.86 C 25.00 11.81 24.14 11.73 23.35 11.5 C 23.36 11.66 23.36 11.80 23.37 11.99 C 23.49 12.05 23.62 12.11 23.73 12.16 C 24.89 12.64 26.09 12.98 27.10 13.75 C 28.51 14.69 30.11 15.30 31.52 16.24 C 33.14 17.11 34.95 17.63 36.72 18.07 C 37.57 18.10 37.88 19.56 36.85 18.89 C 35.19 17.59 32.95 17.74 31.10 16.88 C 29.05 16.08 26.99 15.30 24.95 14.49 C 24.57 14.47 24.04 14.35 23.51 14.26 C 23.51 14.35 23.51 14.35 23.52 14.44 C 24.90 14.54 26.17 15.22 27.46 15.68 C 29.85 16.51 32.12 17.84 34.69 17.98 C 35.67 18.15 36.96 19.90 37.76 18.88 C 37.41 17.57 35.66 17.80 34.64 17.29 C 33.12 16.84 31.66 16.17 30.34 15.30 C 28.61 14.56 27.09 13.38 25.41 12.57 C 24.93 12.38 23.39 12.01 23.65 11.76 C 24.40 11.93 26.20 12.54 26.33 11.97 C 25.25 11.45 24.32 10.60 23.26 10.03 z M 45.68 11.99 C 45.32 12.43 44.83 12.89 44.67 13.19 C 43.87 14.12 43.40 15.26 42.89 16.35 C 42.56 17.15 42.41 17.99 42.25 18.84 C 42.35 18.75 42.43 18.67 42.51 18.58 C 42.69 17.59 42.88 16.60 43.42 15.72 C 43.93 14.47 44.70 13.37 45.62 12.38 C 45.64 12.25 45.66 12.12 45.68 11.99 z M 42.09 14.21 C 41.54 15.81 41.12 17.47 40.23 18.92 C 39.96 19.49 40.12 21.00 39.89 21.04 C 39.55 19.00 39.84 16.73 41.31 15.17 C 41.56 14.85 41.83 14.53 42.09 14.21 z M 23.63 16.01 C 23.63 16.08 23.64 16.20 23.64 16.26 C 24.33 16.45 25.00 16.68 25.53 17.21 C 26.84 18.18 28.49 18.34 29.90 19.10 C 31.26 19.75 32.66 20.47 34.19 20.48 C 35.52 20.88 36.65 21.90 37.31 23.10 C 37.32 23.12 37.32 23.14 37.33 23.15 C 37.38 23.14 37.42 23.12 37.46 23.10 C 36.85 21.69 35.47 20.53 33.94 20.27 C 32.36 20.15 30.97 19.38 29.56 18.72 C 28.29 18.11 26.86 17.91 25.70 17.06 C 25.05 16.65 24.36 16.27 23.63 16.01 z "
       style="color:#000000;font-style:normal;font-variant:normal;font-weight:normal;font-stretch:normal;font-size:medium;line-height:normal;fill:#794d30;fill-opacity:0.51;fill-rule:evenodd;stroke:none;stroke-width:0.2;stroke-linecap:butt;stroke-linejoin:miter;stroke-miterlimit:4;stroke-dasharray:none;stroke-dashoffset:0;stroke-opacity:1;color-rendering:auto;image-rendering:auto;shape-rendering:auto;text-rendering:auto;enable-background:accumulate" />
    <path
       id="path4753"
       d="m 28.00,12.25 c -1.48,2.56 -3.13,2.31 -4.51,1.44 0.10,1.62 0.22,3.56 0.22,3.56 l 2.07,0.80 2.93,1.55 c 3.81,-0.14 5.40,-1.68 5.40,-4.04 0,-0.21 -0.01,-0.44 -0.03,-0.68 -1.81,-0.78 -3.37,-1.46 -6.08,-2.63 z"
       style="display:inline;fill:#633a06;fill-opacity:0.26;fill-rule:evenodd;stroke:none;stroke-width:1px;stroke-linecap:butt;stroke-linejoin:miter;stroke-opacity:1" />
    <path
       id="path4717"
       d="m 23.27,10.21 c 0.04,1.23 0.43,7.05 0.43,7.05 l 2.07,0.80 3.54,1.87 C 32.23,18.49 32.77,16.99 32.5,14.20 28.92,12.65 25.08,10.99 23.27,10.21 Z"
       style="display:inline;fill:#452404;fill-opacity:0.40;fill-rule:evenodd;stroke:none;stroke-width:1px;stroke-linecap:butt;stroke-linejoin:miter;stroke-opacity:1" />
    <path
       id="path4719"
       d="m 26.59,11.65 c 1.13,2.19 1.97,4.58 1.65,5.72 -0.5,1.75 1.12,2.25 2.75,1.12 0.86,-0.60 1.47,-2.30 1.98,-4.08 -2.32,-1.00 -3.80,-1.64 -6.38,-2.76 z"
       style="display:inline;fill:#452404;fill-opacity:0.18;fill-rule:evenodd;stroke:none;stroke-width:1px;stroke-linecap:butt;stroke-linejoin:miter;stroke-opacity:1" />
    <path
       id="path4810"
       d="M 29.92 2.18 C 29.87 2.23 29.76 2.35 29.71 2.40 C 30.48 3.14 31.76 3.52 32.72 3.71 C 34.42 3.92 36.05 4.53 37.28 5.75 C 38.78 7.08 40.41 8.28 42.26 9.08 C 43.46 9.85 40.48 9.28 39.92 9.29 C 38.40 9.12 37.03 8.30 36.07 7.12 C 34.53 5.65 32.49 4.85 30.71 3.76 C 29.01 3.18 28.36 5.37 29.84 6.13 C 30.47 6.91 28.31 5.70 27.88 5.75 C 27.48 5.47 27.07 5.45 26.72 5.53 C 26.62 5.64 26.53 5.74 26.43 5.84 C 26.55 5.82 26.72 5.83 27.01 5.93 C 29.66 6.16 32.10 7.53 33.85 9.49 C 35.19 10.72 36.83 12.19 38.80 11.79 C 39.45 12.02 41.67 12.35 40.24 11.28 C 38.16 9.74 35.08 10.38 33.28 8.37 C 31.98 7.24 28.93 6.16 29.53 4.19 C 31.04 3.70 32.34 5.33 33.76 5.74 C 35.83 6.96 37.22 9.41 39.83 9.59 C 40.87 9.87 42.72 9.51 43.32 9.94 C 42.15 11.58 39.83 12.26 39.26 14.35 C 38.61 15.77 38.63 18.52 38.43 19.28 C 38.06 18.00 38.50 15.80 36.77 15.51 C 34.90 14.92 33.10 14.07 31.22 13.56 C 28.60 13.34 26.87 11.07 24.50 10.19 C 24.27 10.00 23.83 9.73 23.38 9.47 C 23.30 9.60 23.25 9.72 23.25 9.78 C 23.25 9.78 23.25 9.83 23.25 9.84 C 24.48 10.44 25.62 11.20 26.58 12.21 C 26.91 12.50 27.26 12.73 27.63 12.91 C 28.06 13.04 28.47 13.21 28.86 13.41 C 29.92 13.73 31.04 13.92 32.07 14.33 C 33.39 14.82 34.76 15.26 36.01 15.90 C 34.79 15.74 33.44 15.87 32.27 15.36 C 31.09 14.79 30.03 13.99 28.86 13.41 C 28.44 13.27 28.03 13.12 27.63 12.91 C 27.61 12.91 27.58 12.90 27.56 12.89 C 26.27 12.33 24.78 11.54 23.36 11.80 C 23.37 11.89 23.37 11.95 23.38 12.04 C 25.58 11.95 27.50 13.28 29.47 14.06 C 30.99 14.94 32.52 16.30 34.39 16.00 C 35.04 16.15 37.31 16.69 36.11 15.56 C 37.89 15.75 37.97 17.64 38.02 19.03 C 35.83 19.35 33.83 18.36 31.98 17.36 C 29.66 16.33 27.75 14.62 25.60 13.33 C 25.18 12.93 24.10 12.88 23.41 12.71 C 23.42 12.80 23.42 12.83 23.43 12.93 C 25.06 13.29 26.52 14.16 27.83 15.19 C 29.52 16.44 31.34 17.48 33.27 18.29 C 34.62 19.46 36.52 19.15 37.95 19.46 C 38.62 20.24 38.02 21.89 37.05 20.69 C 35.11 19.91 33.13 19.25 31.19 18.49 C 28.52 17.48 25.87 16.28 23.75 14.32 C 23.67 14.25 23.59 14.18 23.50 14.11 C 23.52 14.47 23.52 14.49 23.55 14.82 C 23.90 15.08 24.24 15.32 24.48 15.51 C 26.38 16.72 28.20 18.13 30.43 18.66 C 32.77 19.51 35.13 20.36 37.31 21.61 C 37.87 21.74 38.10 22.19 38.16 22.72 C 38.21 22.68 38.64 22.27 38.77 22.15 C 38.77 22.11 38.76 22.05 38.77 22.02 C 38.79 22.04 38.81 22.07 38.83 22.09 C 38.90 22.03 39.07 21.87 39.16 21.79 C 39.11 21.54 39.05 21.30 38.94 21.05 C 38.95 19.06 40.12 17.33 40.52 15.41 C 41.42 12.77 43.23 10.54 45.34 8.77 L 45.58 8.63 C 44.63 10.43 43.42 12.12 42.88 14.10 C 41.55 15.50 41.44 17.49 41.83 19.26 C 41.95 19.14 42.05 19.04 42.17 18.92 C 42.11 18.48 42.06 18.03 42.11 17.85 C 42.23 15.55 43.41 13.40 44.97 11.77 C 45.22 11.53 45.51 11.31 45.79 11.13 C 45.80 11.04 45.81 10.94 45.82 10.85 C 45.74 10.88 45.66 10.90 45.57 10.92 C 44.93 11.17 43.40 13.28 44.29 11.68 C 44.58 10.80 46.00 9.34 45.74 8.58 C 45.68 8.53 45.57 8.46 45.47 8.38 C 44.61 8.66 43.20 10.70 44.36 8.91 C 44.58 8.62 44.81 8.35 45.06 8.09 C 45.00 8.04 44.91 7.99 44.84 7.94 C 44.32 8.68 43.81 9.38 42.92 9.25 C 41.60 8.30 40.03 7.68 38.78 6.61 C 37.29 5.37 35.85 3.91 33.84 3.60 C 32.54 3.41 30.98 3.13 29.99 2.19 C 29.97 2.19 29.95 2.19 29.92 2.18 z M 26.27 6.02 C 26.17 6.12 26.09 6.22 25.99 6.32 C 26.03 6.59 26.29 6.85 26.89 7.00 C 28.80 7.82 30.96 7.98 32.69 9.22 C 33.67 9.67 35.50 11.53 34.86 12.08 C 33.10 11.44 32.00 9.59 30.06 9.33 C 28.43 8.75 27.10 7.54 25.51 6.87 C 25.43 6.96 25.37 7.03 25.29 7.12 C 26.26 7.69 27.44 7.99 28.28 8.81 C 29.76 9.73 31.62 9.86 32.86 11.20 C 33.55 12.19 36.49 13.29 35.14 11.13 C 33.40 8.48 30.12 7.62 27.23 6.89 C 26.77 6.81 26.28 6.30 26.27 6.02 z M 34.18 9.35 C 36.06 10.64 38.69 10.20 40.40 11.81 C 38.92 11.23 37.12 11.93 35.84 10.75 C 35.24 10.33 34.72 9.83 34.18 9.35 z M 42.76 11.04 C 40.72 13.29 39.89 16.26 39.00 19.08 C 38.56 19.93 38.99 17.25 39.00 16.72 C 39.18 14.77 40.06 12.83 41.78 11.77 C 42.10 11.52 42.43 11.29 42.76 11.04 z M 26.09 11.36 C 26.68 11.71 29.19 13.37 27.30 12.28 C 26.87 12.01 26.47 11.70 26.09 11.36 z M 30.15 13.50 C 30.47 13.59 30.79 13.68 31.10 13.78 C 32.97 14.37 30.87 13.74 30.15 13.50 z M 38.38 19.79 C 38.59 20.48 38.31 20.81 38.38 19.79 z M 35.70 20.51 C 36.32 20.59 38.72 21.91 36.95 21.09 C 36.54 20.89 36.11 20.71 35.70 20.51 z "
       style="color:#000000;font-style:normal;font-variant:normal;font-weight:normal;font-stretch:normal;font-size:medium;line-height:normal;fill:#7d4d24;fill-opacity:0.20;fill-rule:evenodd;stroke:none;stroke-width:0.30;stroke-linecap:butt;stroke-linejoin:miter;stroke-miterlimit:4;stroke-dasharray:none;stroke-dashoffset:0;stroke-opacity:1;color-rendering:auto;image-rendering:auto;shape-rendering:auto;text-rendering:auto;enable-background:accumulate" />
    <path
       id="path4174"
       d="m 29.19,15.19 c -0.40,-0.01 -0.78,0.04 -1.00,0.26 -0.42,0.42 -1.64,1.67 -2.51,2.56 l 0.11,0.04 c 0,0 -2.53,2.87 -5.17,5.64 -2.64,2.76 -4.60,4.14 -5.52,4.94 C 14.15,29.46 2.18,41.55 2.18,41.55 1.95,43.62 6.10,46.38 6.67,45.92 7.25,45.46 15.99,35.45 17.49,33.95 c 1.49,-1.49 4.02,-4.94 5.75,-7.02 1.60,-1.92 5.70,-5.76 6.30,-6.32 0.90,-1.03 2.11,-2.16 2.38,-2.51 0.46,-0.59 -0.78,-2.30 -1.11,-2.50 -0.20,-0.12 -0.95,-0.37 -1.62,-0.40 z"
       style="fill:#c8aa6b;fill-opacity:1;fill-rule:evenodd;stroke:none;stroke-width:1px;stroke-linecap:butt;stroke-linejoin:miter;stroke-opacity:1" />
    <path
       id="path4232"
       d="m 16.26,27.68 c -0.41,0.33 -0.93,0.75 -1.18,0.97 C 14.15,29.46 2.18,41.55 2.18,41.55 c -0.23,2.07 3.91,4.83 4.48,4.37 0.45,-0.36 5.96,-6.63 8.99,-9.98 -0.75,-1.61 -1.38,-2.82 -1.45,-3.32 -0.16,-1.17 0.31,-1.94 2.05,-4.93 z"
       style="color:#000000;clip-rule:nonzero;display:inline;overflow:visible;visibility:visible;opacity:1;isolation:auto;mix-blend-mode:normal;color-interpolation:sRGB;color-interpolation-filters:linearRGB;solid-color:#000000;solid-opacity:1;fill:#85592d;fill-opacity:0.40;fill-rule:evenodd;stroke:none;stroke-width:1px;stroke-linecap:butt;stroke-linejoin:miter;stroke-miterlimit:4;stroke-dasharray:none;stroke-dashoffset:0;stroke-opacity:1;color-rendering:auto;image-rendering:auto;shape-rendering:auto;text-rendering:auto;enable-background:accumulate" />
    <path
       id="path4322"
       d="m 10.25,33.44 c -3.68,3.69 -8.06,8.10 -8.06,8.10 -0.08,0.75 0.41,1.59 1.10,2.34 1.94,-1.34 3.50,-0.68 4.69,0.60 1.52,-1.68 4.02,-4.49 6.25,-6.98 -0.76,-2.73 -2.03,-3.91 -3.99,-4.07 z"
       style="fill:#704923;fill-opacity:0.27;fill-rule:evenodd;stroke:none;stroke-width:1px;stroke-linecap:butt;stroke-linejoin:miter;stroke-opacity:1" />
    <path
       id="path4344"
       d="m 30.19,15.35 c -1.09,1.08 -1.97,2.39 -3.20,3.33 -0.76,-0.13 -0.77,-0.76 -0.51,-1.47 -0.16,0.16 -0.25,0.26 -0.41,0.42 -0.04,0.37 -0.01,0.75 0.14,1.13 1.51,0.85 2.45,-1.65 3.53,-2.50 0.14,-0.17 0.44,-0.48 0.75,-0.80 -0.10,-0.03 -0.15,-0.07 -0.29,-0.10 z m 0.81,0.41 c -1.17,1.57 -2.63,2.94 -4.04,4.28 -0.91,1.00 -2.39,0.77 -2.40,-0.61 -0.11,0.12 -0.09,0.11 -0.22,0.25 0.00,0.06 9.21e-4,0.13 0.01,0.20 -0.11,1.29 1.57,1.18 1.94,0.99 -1.02,1.05 -1.40,2.53 -2.39,3.58 -1.53,1.73 -3.14,3.40 -4.72,5.09 0.60,-1.99 1.29,-4.14 3.06,-5.40 1.02,-0.66 1.27,-2.20 0.53,-2.80 -0.08,0.08 -0.16,0.17 -0.24,0.26 1.25,0.70 -0.64,2.54 -1.46,3.19 -1.52,1.51 -1.61,3.83 -2.65,5.57 -1.64,1.46 -2.66,3.65 -4.58,4.75 -0.70,0.31 -2.71,1.89 -2.40,1.52 1.01,-1.16 2.20,-2.17 3.55,-2.92 2.51,-1.88 3.69,-4.95 4.45,-7.89 0.79,-0.44 0.78,-1.06 0.49,-1.49 -0.08,0.08 -0.16,0.15 -0.24,0.23 0.00,0.09 0.00,0.19 -0.02,0.33 -0.70,0.39 -0.88,2.39 -1.15,2.14 -0.17,-0.42 -0.39,-0.65 -0.64,-0.77 -0.08,0.07 -0.17,0.15 -0.25,0.23 1.40,0.69 0.37,2.55 -0.16,3.58 -1.07,2.23 -3.50,3.55 -5.32,4.89 0.97,-1.51 -1.15,-2.67 -1.87,-0.94 -1.05,0.69 -2.64,3.24 -0.25,3.05 -0.60,1.41 -2.91,1.77 -2.66,-0.23 0.01,-0.25 0.08,-0.47 0.16,-0.69 -0.19,0.19 -0.20,0.20 -0.39,0.40 -0.11,0.88 0.13,1.78 0.80,2.18 -1.10,0.12 -1.56,-0.53 -1.62,-1.36 -0.17,0.17 -0.22,0.22 -0.39,0.39 0.18,1.44 2.13,1.74 3.12,0.91 -0.75,1.46 -3.61,2.19 -3.20,-0.20 0.00,-0.22 0.02,-0.45 0.05,-0.67 -0.15,0.15 -0.22,0.22 -0.37,0.37 5.68e-4,0.09 -0.00,0.18 0,0.27 -0.58,2.47 2.63,2.36 3.52,0.66 1.57,-1.51 3.36,-2.81 5.27,-3.90 -0.75,1.24 -1.70,2.37 -2.97,3.13 C 9.74,39.42 8.14,40.23 6.89,41.63 5.29,43.01 4.44,41.02 4.29,39.42 c -0.07,0.07 -0.19,0.19 -0.25,0.26 0.17,1.54 0.83,3.30 2.56,2.51 1.18,-0.90 2.18,-2.04 3.54,-2.71 1.69,-0.98 3.35,-2.17 4.28,-3.94 1.14,-1.30 3.19,-1.74 3.81,-3.61 0.47,-1.75 1.89,-2.88 3.07,-4.18 1.17,-1.26 2.36,-2.53 3.47,-3.85 0.77,-2.00 2.27,-3.60 3.98,-4.85 0.94,-0.84 1.78,-1.78 2.67,-2.67 -0.06,-0.10 -0.12,-0.20 -0.19,-0.29 -0.55,0.61 -0.93,1.19 -0.28,0.26 0.06,-0.06 0.16,-0.21 0.24,-0.32 -0.09,-0.11 -0.14,-0.16 -0.22,-0.23 z m 0.81,1.19 c -1.34,1.50 -2.95,2.78 -4.09,4.46 -1.38,1.20 -2.37,2.72 -3.34,4.27 0.35,-0.37 0.69,-0.73 1.09,-1.13 0.72,-1.07 1.50,-2.10 2.5,-2.96 1.09,-1.58 2.65,-2.89 3.97,-4.33 -0.03,-0.09 -0.07,-0.19 -0.12,-0.29 z m -16.08,11.80 c -1.39,0.40 -3.21,2.00 -2.20,3.56 1.54,0.98 3.53,-1.40 3.11,-2.94 -0.11,-0.38 -0.49,-0.69 -0.91,-0.61 z m 0.18,0.39 c 1.10,1.05 -0.56,2.92 -1.76,3.08 -1.11,-0.67 -0.33,-1.84 0.61,-2.53 0.10,-0.10 0.23,-0.18 0.36,-0.23 0.27,-0.15 0.55,-0.27 0.78,-0.31 z m -0.78,0.31 c -0.12,0.07 -0.24,0.14 -0.36,0.23 -0.90,0.87 -0.78,3.25 0.54,1.83 0.22,-0.52 1.37,-1.93 0.35,-2.12 -0.19,-0.03 -0.37,-0.00 -0.52,0.05 z m 0.54,0.25 c 0.32,0.63 -1.55,3.27 -1.17,1.10 0.14,-0.54 0.57,-1.08 1.17,-1.10 z m 2.69,1.17 c -0.54,1.44 -1.50,2.82 -2.98,3.41 0.94,-1.17 1.95,-2.29 2.98,-3.41 z m 1.14,0.70 c -0.81,0.83 -1.56,1.73 -2.29,2.64 0.06,-0.06 0.23,-0.25 0.28,-0.30 0.55,-0.55 1.27,-1.41 2.01,-2.33 z m -8.05,1.98 c 1.42,0.42 -0.83,3.31 -0.19,1.13 -1.22,-0.50 -0.67,-0.23 0.19,-1.13 z m -0.98,1.18 c 1.85,0.50 -2.16,3.38 -0.97,0.82 0.20,-0.36 0.51,-0.79 0.97,-0.82 z m 1.72,0.54 c -0.57,0.54 -1.59,1.67 -1.83,1.82 0.57,-0.62 1.10,-1.39 1.83,-1.82 z m 1.56,2.72 c -0.31,0.27 -0.64,0.53 -0.99,0.77 -2.42,1.08 -4.82,2.29 -6.86,4.01 -1.50,1.41 -3.25,-0.23 -2.96,-1.95 -0.00,-0.03 0.00,-0.07 0.00,-0.11 -0.03,0.03 -0.27,0.27 -0.29,0.29 0.03,0.73 0.18,1.44 0.59,2.04 1.66,1.51 3.44,-0.61 4.81,-1.50 1.48,-0.97 3.10,-1.71 4.71,-2.46 0.34,-0.38 0.65,-0.73 0.98,-1.10 z m -2.92,3.27 c -1.54,0.48 -2.92,1.49 -4.30,2.31 -0.47,0.47 -1.09,1.04 -1.65,1.61 0.10,0.07 0.20,0.12 0.30,0.18 0.75,-0.86 1.51,-1.73 2.58,-2.22 0.83,-0.52 1.69,-1.02 2.61,-1.38 0.15,-0.17 0.28,-0.32 0.44,-0.50 -6.01e-4,1.9e-4 -0.00,-1.9e-4 -0.00,0 z"
       style="color:#000000;font-style:normal;font-variant:normal;font-weight:normal;font-stretch:normal;font-size:medium;line-height:normal;fill:#452404;fill-opacity:0.25;fill-rule:evenodd;stroke:none;stroke-width:0.30;stroke-linecap:butt;stroke-linejoin:miter;stroke-miterlimit:4;stroke-dasharray:none;stroke-dashoffset:0;stroke-opacity:1;color-rendering:auto;image-rendering:auto;shape-rendering:auto;text-rendering:auto;enable-background:accumulate" />
    <path
       id="path4236"
       d="m 6.41,42.94 c 2.11,-2.49 7.99,-9.13 8.97,-9.58 0.98,-0.45 1.66,-1.73 1.96,-2.03"
       style="display:inline;fill:none;fill-rule:evenodd;stroke:#f7efd1;stroke-width:1.70;stroke-linecap:round;stroke-linejoin:miter;stroke-miterlimit:4;stroke-dasharray:none;stroke-opacity:0.25" />
    <path
       id="path4240"
       d="m 29.19,15.19 c -0.40,-0.01 -0.78,0.04 -1.00,0.26 -0.42,0.42 -1.64,1.67 -2.51,2.56 l 0.11,0.04 c 0,0 -2.53,2.87 -5.17,5.64 -1.25,1.31 -2.35,2.29 -3.25,3.07 1.12e-4,5.88e-4 -1.13e-4,0.00 0,0.00 0.18,0.94 1.37,1.89 3.40,-0.59 2.21,-2.70 7.04,-8.36 9.67,-10.75 -0.33,-0.11 -0.76,-0.23 -1.22,-0.25 z"
       style="display:inline;fill:#85592d;fill-opacity:0.40;fill-rule:evenodd;stroke:none;stroke-width:1px;stroke-linecap:butt;stroke-linejoin:miter;stroke-opacity:1" />
    <path
       id="path4238"
       d="M 22.41,25.89 C 23.61,24.75 26.86,20.98 27.46,20.53"
       style="display:inline;fill:none;fill-rule:evenodd;stroke:#f7efd1;stroke-width:1.70;stroke-linecap:round;stroke-linejoin:miter;stroke-miterlimit:4;stroke-dasharray:none;stroke-opacity:0.25" />
    <path
       style="display:inline;fill:none;fill-rule:evenodd;stroke:#faf4e0;stroke-width:0.69;stroke-linecap:butt;stroke-linejoin:miter;stroke-miterlimit:4;stroke-dasharray:none;stroke-opacity:0.58"
       d="m 6.41,42.94 c 2.11,-2.49 7.99,-9.13 8.97,-9.58 0.98,-0.45 1.66,-1.73 1.96,-2.03"
       id="path4318" />
    <path
       style="display:inline;fill:none;fill-rule:evenodd;stroke:#f7efd1;stroke-width:0.69;stroke-linecap:butt;stroke-linejoin:miter;stroke-miterlimit:4;stroke-dasharray:none;stroke-opacity:0.67"
       d="M 22.41,25.89 C 23.61,24.75 26.86,20.98 27.46,20.53"
       id="path4320" />
    <path
       id="path4324"
       d="m 29.19,15.19 c -0.40,-0.01 -0.78,0.04 -1.00,0.26 -0.23,0.23 -0.85,0.86 -1.37,1.39 1.44,1.30 2.01,2.91 1.79,4.65 0.27,-0.25 0.84,-0.80 0.94,-0.90 0.90,-1.03 2.11,-2.16 2.38,-2.51 0.46,-0.59 -0.78,-2.30 -1.11,-2.50 -0.20,-0.12 -0.95,-0.37 -1.62,-0.40 z"
       style="fill:#ca8f55;fill-opacity:0.49;fill-rule:evenodd;stroke:none;stroke-width:1px;stroke-linecap:butt;stroke-linejoin:miter;stroke-opacity:1" />
    <path
       id="path4326"
       d="m 20.29,24.01 c -1.73,1.77 -3.00,2.83 -3.99,3.64 1.58,0.72 2.89,1.80 3.69,3.36 0.68,-0.85 1.31,-1.63 1.97,-2.47 -0.16,-1.80 -0.63,-3.56 -1.67,-4.53 z"
       style="fill:#ca8139;fill-opacity:0.29;fill-rule:evenodd;stroke:none;stroke-width:1px;stroke-linecap:butt;stroke-linejoin:miter;stroke-opacity:1" />
    <path
       id="path4337"
       d="m 29.19,15.19 c -0.40,-0.01 -0.78,0.04 -1.00,0.26 -0.42,0.42 -1.64,1.67 -2.51,2.56 l 0.11,0.04 c 0,0 -2.53,2.87 -5.17,5.64 -2.64,2.76 -4.60,4.14 -5.52,4.94 C 14.15,29.46 2.18,41.55 2.18,41.55 2.10,42.29 2.59,43.11 3.26,43.85 3.32,42.26 3.53,41.92 5.39,40.06 7.93,37.51 14.71,28.94 17.36,27.67 c 2.02,-0.97 8.88,-8.80 12.01,-12.46 -0.05,-0.00 -0.11,-0.01 -0.17,-0.01 z"
       style="fill:#4d3218;fill-opacity:0.33;fill-rule:evenodd;stroke:none;stroke-width:1px;stroke-linecap:butt;stroke-linejoin:miter;stroke-opacity:1" />
    <path
       id="path4234"
       d="m 2.32,42.03 c -0.03,-0.00 -0.07,0.00 -0.10,0.00 0.36,1.97 3.86,4.25 4.43,3.88 C 6.63,45.00 4.98,43.76 4,43.01 3.24,42.45 2.81,42.06 2.32,42.03 Z"
       style="display:inline;fill:#3b2f16;fill-opacity:1;fill-rule:evenodd;stroke:none;stroke-width:1px;stroke-linecap:butt;stroke-linejoin:miter;stroke-opacity:1" />
    <path
       id="path4775"
       d="m 29.92,2.18 c -0.49,0.49 -1.40,1.44 -2.37,2.47 4.94,1.48 15.34,5.68 15.34,5.68 l 0.36,1.19 c 0,0 -0.30,4.11 -0.95,7.24 1.26,-1.23 2.39,-2.37 2.49,-2.56 0.23,-0.46 1.41,-6.02 1.02,-7.56 C 45.14,7.97 37.98,3.33 29.92,2.18 Z"
       style="color:#000000;clip-rule:nonzero;display:inline;overflow:visible;visibility:visible;opacity:1;isolation:auto;mix-blend-mode:normal;color-interpolation:sRGB;color-interpolation-filters:linearRGB;solid-color:#000000;solid-opacity:1;fill:#72552c;fill-opacity:0.19;fill-rule:evenodd;stroke:none;stroke-width:1px;stroke-linecap:butt;stroke-linejoin:miter;stroke-miterlimit:4;stroke-dasharray:none;stroke-dashoffset:0;stroke-opacity:1;color-rendering:auto;image-rendering:auto;shape-rendering:auto;text-rendering:auto;enable-background:accumulate" />
    <path
       id="path4777"
       d="m 41.62,12.89 c -1.63,1.75 -2.99,3.32 -2.99,3.32 l -0.51,6.55 c 0.17,-0.13 1.43,-1.33 2.54,-2.39 -0.67,-0.43 -1.21,-0.99 -1.34,-1.47 -0.23,-0.85 0.65,-3.40 2.31,-6.01 z"
       style="display:inline;fill:#72552c;fill-opacity:0.26;fill-rule:evenodd;stroke:none;stroke-width:1px;stroke-linecap:butt;stroke-linejoin:miter;stroke-opacity:1" />
    <path
       id="path4198"
       d="m 29.84,20.30 c 0.85,-0.94 1.84,-1.88 2.09,-2.21 0.46,-0.59 -0.78,-2.30 -1.11,-2.50 -0.20,-0.12 -0.95,-0.37 -1.62,-0.40 -0.40,-0.01 -0.78,0.04 -1.00,0.26 -0.42,0.42 -1.50,1.64 -2.37,2.53"
       style="color:#000000;clip-rule:nonzero;display:inline;overflow:visible;visibility:visible;opacity:1;isolation:auto;mix-blend-mode:normal;color-interpolation:sRGB;color-interpolation-filters:linearRGB;solid-color:#000000;solid-opacity:1;fill:none;fill-opacity:1;fill-rule:evenodd;stroke:#382e28;stroke-width:0.30;stroke-linecap:butt;stroke-linejoin:miter;stroke-miterlimit:4;stroke-dasharray:none;stroke-dashoffset:0;stroke-opacity:1;color-rendering:auto;image-rendering:auto;shape-rendering:auto;text-rendering:auto;enable-background:accumulate" />
    <path
       id="stroke01"
       d="m 2.18,41.55 c 0,0 11.97,-12.08 12.89,-12.89 C 16,27.85 17.95,26.47 20.60,23.71 c 2.64,-2.76 5.17,-5.64 5.17,-5.64 L 23.71,17.26 c 0,0 -0.46,-6.79 -0.46,-7.48 0,-0.69 5.17,-6.10 6.67,-7.59 8.05,1.15 15.21,5.78 15.90,6.47 0.39,1.53 -0.79,7.10 -1.02,7.56 -0.23,0.46 -6.24,6.21 -6.70,6.56 -0.46,0.34 -1.61,0.69 -1.95,0.57 -0.34,-0.11 -6.21,-3.10 -6.21,-3.10 0,0 -4.94,4.60 -6.67,6.67 -1.72,2.07 -4.25,5.52 -5.75,7.02 C 16,35.45 7.25,45.46 6.67,45.92 6.10,46.38 1.95,43.62 2.18,41.55 Z"
       style="display:inline;fill:none;fill-rule:evenodd;stroke:#382e28;stroke-width:0.5;stroke-linecap:butt;stroke-linejoin:bevel;stroke-miterlimit:4;stroke-dasharray:none;stroke-opacity:1" />
  </g>
</svg>
