<?xml version="1.0" encoding="UTF-8" standalone="no"?>
<!DOCTYPE svg PUBLIC "-//W3C//DTD SVG 1.0//EN" "http://www.w3.org/TR/2001/REC-SVG-20010904/DTD/svg10.dtd">
<svg xmlns:svg="http://www.w3.org/2000/svg" xmlns="http://www.w3.org/2000/svg" version="1.0" width="100%" height="100%" viewBox="0 0 48 48" id="_hourglass01">
<defs id="defs4154"/>
<g id="layer3" style="display:inline">
<path d="M 24.75,3.29 C 19.58,3.29 15.39,3.88 15.39,4.62 C 15.39,4.91 15.39,5.29 15.39,5.55 C 15.39,6.28 19.58,6.88 24.75,6.88 C 29.92,6.88 34.10,6.28 34.10,5.55 C 34.10,5.28 34.10,4.97 34.10,4.62 C 34.10,3.88 29.92,3.29 24.75,3.29 L 24.75,3.29 z" id="ellipse4801" style="fill:#2a2627;fill-opacity:1;stroke:none;"/>
<path d="M 24.75,4.33 C 18.66,4.33 13.73,5.23 13.73,6.34 C 13.73,6.97 13.72,7.26 13.72,7.60 C 13.72,8.65 18.66,9.49 24.75,9.49 C 30.84,9.49 35.77,8.65 35.78,7.60 C 35.78,7.27 35.77,6.88 35.77,6.34 C 35.77,5.23 30.84,4.33 24.75,4.33 L 24.75,4.33 z" id="ellipse4799" style="fill:#2c1d1a;fill-opacity:1;stroke:none;"/>
<ellipse cx="24.75" cy="7.60" rx="11.02" ry="1.88" id="ellipse4797" style="fill:#4d4342;fill-opacity:1;stroke:none;"/>
<path d="M 26.05,5.51 C 25.37,5.49 24.71,5.50 24.08,5.51 C 21.56,5.57 18.97,5.74 16.99,6.08 C 16.00,6.25 15.16,6.46 14.52,6.75 C 14.21,6.89 13.94,7.04 13.72,7.25 C 13.72,7.25 13.72,7.26 13.72,7.26 C 13.72,7.36 13.72,7.52 13.72,7.60 C 13.72,7.76 13.86,7.92 14.08,8.07 L 14.25,8.07 C 14.25,8.03 14.26,7.99 14.36,7.89 C 14.45,7.80 14.63,7.68 14.89,7.57 C 15.40,7.34 16.19,7.14 17.14,6.97 C 19.04,6.64 21.60,6.47 24.10,6.41 C 26.58,6.35 29.51,6.52 31.79,6.87 C 32.92,7.04 33.90,7.27 34.55,7.51 C 34.87,7.63 35.11,7.76 35.24,7.86 C 35.36,7.96 35.34,7.98 35.34,7.96 L 35.54,7.97 C 35.68,7.85 35.78,7.73 35.78,7.60 C 35.78,7.42 35.77,7.30 35.77,7.14 C 35.53,6.95 35.23,6.80 34.86,6.67 C 34.11,6.39 33.09,6.16 31.92,5.98 C 30.17,5.71 28.06,5.55 26.05,5.51 z" id="p4269" style="font-size:medium;font-style:normal;font-variant:normal;font-weight:normal;font-stretch:normal;text-indent:0;text-align:start;text-decoration:none;line-height:normal;letter-spacing:normal;word-spacing:normal;text-transform:none;direction:ltr;block-progression:tb;writing-mode:lr-tb;text-anchor:start;opacity:1;fill:#3a2b28;fill-opacity:0.84;fill-rule:evenodd;stroke:none;visibility:visible;display:inline;overflow:visible;enable-background:accumulate;font-family:sans-serif"/>
<path d="M 24.75,7.39 C 19.58,7.39 15.38,7.98 15.39,8.72 C 15.39,8.95 15.39,9.25 15.39,9.41 C 15.39,10.15 19.58,10.75 24.75,10.75 C 29.92,10.74 34.10,10.15 34.10,9.41 C 34.10,9.24 34.10,8.94 34.10,8.72 C 34.11,7.98 29.92,7.39 24.75,7.39 L 24.75,7.39 z" id="ellipse4795" style="fill:#1b1112;fill-opacity:1;stroke:none;"/>
<ellipse cx="24.75" cy="9.41" rx="9.35" ry="1.33" id="p4793" style="fill:#433836;fill-opacity:1;stroke:none;"/>
<path d="M 15.39,5.22 L 15.39,5.29 C 14.35,5.59 13.73,5.95 13.73,6.34 C 13.73,6.86 13.72,7.31 13.72,7.60 C 13.72,7.97 14.36,8.31 15.43,8.60 C 15.41,8.64 15.39,8.68 15.39,8.72 L 15.39,9.41 C 15.39,9.58 15.63,9.74 16.02,9.89 L 16.02,11.54 L 17.48,11.31 C 17.48,11.20 17.48,10.59 17.48,10.52 C 17.26,9.24 18.00,7.85 17.12,7.78 C 16.07,7.70 14.01,7.50 15.83,7.05 C 17.65,6.61 22.11,5.35 23.56,5.47 C 24.81,5.58 19.46,5.18 15.39,5.22 z" id="p4218" style="fill:#100c0d;fill-opacity:0.43;fill-rule:evenodd;stroke:none;display:inline"/>
<path d="M 24.75,8.08 C 23.16,8.09 21.59,8.14 20.20,8.25 C 20.05,8.67 20.62,9.19 21.34,9.52 C 22.14,9.90 22.59,10.29 22.22,10.69 C 23.04,10.73 23.89,10.74 24.75,10.74 C 26.27,10.74 27.76,10.69 29.11,10.59 C 29.82,10.02 29.70,9.37 26.80,9.00 C 28.31,8.98 30.76,8.85 32.01,8.58 C 30.23,8.26 27.56,8.08 24.75,8.08 z" id="p4224" style="fill:#2c1d1a;fill-opacity:0.29;fill-rule:evenodd;stroke:none;display:inline"/>
<path d="M 24.79,38.37 C 18.99,38.19 16.75,32.43 21.09,27.95 C 23.07,25.91 24.04,25.42 23.99,24.12 C 23.93,22.58 21.77,22.33 19.98,19.74 C 18.08,17.00 18.32,9.26 24.67,9.38 C 32.38,9.53 31.39,17.89 29.54,20.05 C 28.00,21.85 25.90,22.77 25.84,24.31 C 25.78,25.85 26.56,26.26 28.31,27.82 C 31.98,31.11 31.70,38.74 24.79,38.37 L 24.79,38.37 z" id="p4942" style="fill:#7b7b7b;fill-opacity:1;fill-rule:evenodd;stroke:none;display:inline"/>
<ellipse cx="24.33" cy="43.33" rx="9.92" ry="3.32" id="ellipse4779" style="fill:#4f4d4e;fill-opacity:1;stroke:none;"/>
<ellipse cx="24.33" cy="41.58" rx="10.50" ry="3.51" id="ellipse4777" style="fill:#6a5e5e;fill-opacity:1;stroke:none;"/>
<ellipse cx="24.33" cy="40.61" rx="10.50" ry="3.51" id="ellipse4775" style="fill:#403533;fill-opacity:1;stroke:none;"/>
<ellipse cx="24.33" cy="39.45" rx="9.82" ry="3.29" id="ellipse4773" style="fill:#413c39;fill-opacity:1;stroke:none;"/>
<ellipse cx="24.33" cy="38.57" rx="8.98" ry="3.01" id="p4771" style="fill:#564042;fill-opacity:1;stroke:none;"/>
<path d="M 16.02,9.43 L 16.02,38.96 C 16.02,39.67 17.39,39.71 17.42,38.88 C 17.42,38.88 17.48,10.01 17.48,9.43 C 17.48,8.84 15.93,8.75 16.02,9.43 L 16.02,9.43 z" id="p4781" style="fill:#271f1c;fill-opacity:1;fill-rule:evenodd;stroke:none;display:inline"/>
<path d="M 24.67,9.38 C 23.04,9.35 21.82,9.84 20.92,10.63 C 22.13,10.70 23.43,10.74 24.75,10.75 C 25.19,10.74 25.62,10.74 26.06,10.73 L 25.71,21.77 C 24.99,22.04 24.51,22.73 24.51,23.50 C 24.51,24.23 24.94,24.90 25.60,25.19 L 25.25,36.52 L 26.51,36.61 L 26.85,25.29 C 27.66,25.07 28.22,24.34 28.22,23.50 C 28.21,22.71 27.71,22.00 26.95,21.75 L 27.28,10.69 C 27.76,10.67 28.23,10.65 28.68,10.62 C 27.73,9.89 26.44,9.41 24.67,9.38 z" id="p4789" style="fill:#2a2021;fill-opacity:1;stroke:none;"/>
<path d="M 24.33,35.56 C 22.34,35.56 20.41,35.79 18.83,36.20 C 17.63,37.19 18.18,38.32 19.72,38.72 C 22.14,39.34 26.74,39.57 29.08,38.48 C 30.38,37.88 29.96,36.74 28.40,35.89 C 27.14,35.68 25.75,35.56 24.33,35.56 L 24.33,35.56 z" id="p5041" style="fill:#201611;fill-opacity:0.44;fill-rule:evenodd;stroke:none;display:inline"/>
<path d="M 17.43,34.74 C 16.94,34.75 16.47,34.77 16.02,34.79 L 16.02,37.43 C 15.80,37.62 15.63,37.81 15.51,38.00 C 14.89,38.43 14.55,38.90 14.51,39.37 C 14.08,39.76 13.83,40.17 13.83,40.61 L 13.83,41.58 C 13.83,42.66 14.41,42.76 14.41,43.33 C 14.41,44.02 15.03,44.66 16.10,45.19 C 15.29,43.11 15.26,42.09 16.29,41.83 C 17.54,41.52 17.46,40.51 20.11,40.12 C 22.76,39.73 28.61,39.42 31.03,39.03 C 32.00,38.87 32.87,38.25 32.75,37.54 C 32.45,37.27 32.04,37.01 31.53,36.78 C 31.53,36.71 31.54,36.43 31.54,36.35 C 31.18,36.17 30.70,36.00 30.15,35.84 L 30.14,36.28 C 28.52,35.82 26.46,35.56 24.33,35.56 C 21.66,35.56 19.13,35.96 17.42,36.65 C 17.42,36.29 17.43,35.23 17.43,34.74 L 17.43,34.74 z" id="p5047" style="fill:#201611;fill-opacity:0.34;fill-rule:evenodd;stroke:none;"/>
<path d="M 24.79,38.37 C 18.99,38.19 16.75,32.43 21.09,27.95 C 23.07,25.91 24.04,25.42 23.99,24.12 C 23.93,22.58 21.77,22.33 19.98,19.74 C 18.08,17.00 18.32,9.26 24.67,9.38 C 32.38,9.53 31.39,17.89 29.54,20.05 C 28.00,21.85 25.90,22.77 25.84,24.31 C 25.78,25.85 26.56,26.26 28.31,27.82 C 31.98,31.11 31.70,38.74 24.79,38.37 L 24.79,38.37 z" id="p5167" style="fill:#adaa63;fill-opacity:0.41;fill-rule:evenodd;stroke:none;display:inline"/>
<path d="M 23.53,17.83 C 22.03,17.84 20.56,17.93 19.26,18.10 C 19.44,18.74 19.68,19.31 19.98,19.74 C 21.61,22.09 23.52,22.52 23.91,23.73 C 24.64,24.43 24.50,25.78 24.40,27.92 C 22.83,28.09 21.10,29.56 18.92,31.96 C 18.35,35.28 20.66,38.24 24.79,38.37 C 29.55,38.63 31.17,35.08 30.50,31.77 C 29.88,30.96 29.05,30.25 28.59,30.00 C 27.85,29.60 26.79,28.16 25.15,27.93 C 25.15,27.86 25.15,27.81 25.15,27.74 C 25.09,25.06 25.23,24.01 26.03,23.62 C 26.57,22.46 28.24,21.57 29.54,20.05 C 29.86,19.68 30.15,19.12 30.37,18.46 C 28.60,18.05 26.06,17.83 23.53,17.83 L 23.53,17.83 z" id="p5107" style="fill:#612c37;fill-opacity:1;fill-rule:evenodd;stroke:none;display:inline"/>
<path d="M 28.84,40.11 C 26.28,40.11 22.49,40.55 21.20,40.90 C 19.49,41.37 19.02,42.22 17.46,42.93 C 16.20,43.49 17.33,44.86 18.55,46.02 C 20.18,46.42 22.17,46.66 24.33,46.66 C 29.81,46.66 34.26,45.17 34.25,43.33 C 34.24,42.99 34.54,42.74 34.71,42.27 C 34.02,41.04 31.99,40.57 30.87,40.28 C 30.42,40.16 29.70,40.11 28.84,40.11 z" id="p5030" style="fill:#e6b9a4;fill-opacity:0.18;fill-rule:evenodd;stroke:none;display:inline"/>
<circle cx="16.80" cy="25.36" r="2.33" id="p4767" style="fill:#241c1a;fill-opacity:1;stroke:none;"/>
<path d="M 16.20,25.22 C 15.45,25.22 14.82,25.73 14.72,26.41 C 15.12,27.20 15.92,27.69 16.80,27.69 C 16.90,27.69 17.00,27.68 17.10,27.67 C 17.47,27.41 17.68,27.01 17.68,26.58 C 17.68,25.83 17.02,25.22 16.20,25.22 L 16.20,25.22 z" id="p5055" style="fill:#85716c;fill-opacity:0.16;stroke:none;"/>
<path d="M 18.38,23.65 C 18.39,24.66 17.93,25.27 17.25,25.66 C 16.52,26.08 15.48,26.18 14.53,25.87 C 14.75,26.85 15.57,27.58 16.57,27.68 C 16.57,27.68 16.57,27.68 16.57,27.68 C 17.11,27.58 17.63,27.41 18.10,27.14 C 18.32,27.01 18.53,26.84 18.73,26.67 C 18.99,26.28 19.13,25.82 19.13,25.36 C 19.13,24.71 18.86,24.09 18.38,23.65 L 18.38,23.65 z" id="p5060" style="font-size:medium;font-style:normal;font-variant:normal;font-weight:normal;font-stretch:normal;text-indent:0;text-align:start;text-decoration:none;line-height:normal;letter-spacing:normal;word-spacing:normal;text-transform:none;direction:ltr;block-progression:tb;writing-mode:lr-tb;text-anchor:start;opacity:1;fill:#646464;fill-opacity:0.13;fill-rule:evenodd;stroke:none;visibility:visible;display:inline;overflow:visible;enable-background:accumulate;font-family:sans-serif"/>
<path d="M 15.03,38.41 C 14.71,38.72 14.54,39.04 14.51,39.37 C 14.47,39.41 14.44,39.44 14.41,39.48 C 14.65,39.91 14.96,40.27 15.31,40.56 C 16.06,41.18 16.95,41.53 17.70,41.75 L 17.98,40.79 C 17.31,40.60 16.53,40.28 15.95,39.79 C 15.51,39.43 15.18,38.99 15.03,38.41 z" id="p5083" style="font-size:medium;font-style:normal;font-variant:normal;font-weight:normal;font-stretch:normal;text-indent:0;text-align:start;text-decoration:none;line-height:normal;letter-spacing:normal;word-spacing:normal;text-transform:none;direction:ltr;block-progression:tb;writing-mode:lr-tb;text-anchor:start;opacity:1;fill:#5f5f5f;fill-opacity:0.36;fill-rule:evenodd;stroke:none;visibility:visible;display:inline;overflow:visible;enable-background:accumulate;font-family:sans-serif"/>
<path d="M 23.53,17.83 C 22.03,17.84 20.57,17.93 19.27,18.10 C 19.27,18.12 19.27,18.13 19.28,18.14 C 19.28,18.15 19.28,18.16 19.29,18.17 C 20.31,18.90 22.30,19.40 24.35,19.40 C 26.20,19.40 28.57,19.42 30.15,19.00 C 30.22,18.84 30.29,18.69 30.35,18.51 C 30.36,18.49 30.36,18.48 30.37,18.46 C 28.60,18.05 26.05,17.83 23.53,17.83 L 23.53,17.83 z" id="p5150" style="fill:#351a20;fill-opacity:1;fill-rule:evenodd;stroke:none;display:inline"/>
<path d="M 24.64,27.96 C 24.33,27.97 24.08,28.01 23.80,28.05 C 22.44,28.46 20.94,29.78 19.14,31.74 C 19.26,32.44 19.67,32.99 20.18,33.15 C 21.35,33.51 22.37,32.78 23.76,33.30 C 25.15,33.81 27.06,33.73 28.01,33.44 C 28.23,34.61 27.27,36.88 25.96,37.46 C 24.83,37.96 22.64,36.87 20.83,37.04 C 21.33,37.43 21.92,37.75 22.58,37.98 C 22.89,38.09 23.22,38.17 23.56,38.24 C 23.61,38.24 23.66,38.25 23.71,38.26 C 24.06,38.32 24.41,38.36 24.79,38.37 C 25.10,38.39 25.40,38.39 25.69,38.37 C 25.76,38.37 25.83,38.36 25.90,38.35 C 26.11,38.33 26.31,38.32 26.51,38.28 C 26.58,38.27 26.65,38.25 26.72,38.23 C 26.90,38.20 27.08,38.16 27.25,38.10 C 27.32,38.08 27.39,38.05 27.46,38.03 C 27.61,37.97 27.76,37.92 27.90,37.85 C 27.93,37.84 27.95,37.83 27.97,37.82 C 27.63,37.48 27.47,37.07 27.86,36.66 C 28.88,35.56 29.18,33.66 29.18,33.15 C 29.76,33.00 30.13,32.71 30.20,32.27 C 29.69,32.20 29.10,32.27 29.10,32.27 C 29.10,32.27 27.05,27.81 24.64,27.96 L 24.64,27.96 z" id="p5148" style="fill:#432128;fill-opacity:1;fill-rule:evenodd;stroke:none;display:inline"/>
<path d="M 25.12,31.39 C 24.24,31.30 23.28,31.68 23.02,32.65 C 22.64,34.06 20.51,33.01 19.00,31.53 C 18.96,31.71 18.93,31.89 18.90,32.08 C 19.63,32.87 19.95,34.88 20.08,36.34 C 21.11,37.52 22.72,38.31 24.79,38.37 C 27.74,38.53 29.48,37.22 30.22,35.42 L 30.27,32.83 C 26.18,34.51 27.26,32.96 26.47,32.03 C 26.16,31.66 25.66,31.44 25.12,31.39 L 25.12,31.39 z" id="p4281" style="fill:#cdbab6;fill-opacity:0.08;fill-rule:evenodd;stroke:none;display:inline"/>
<path d="M 24.07,6.35 C 21.91,6.35 19.74,6.51 17.89,6.85 C 16.21,7.17 15.08,7.26 14.34,6.99 C 13.94,7.19 13.72,7.39 13.72,7.60 C 13.72,7.95 14.27,8.28 15.31,8.58 C 16.51,7.82 18.04,7.28 20.04,7.14 C 29.35,6.49 33.65,7.50 30.12,6.85 C 28.36,6.53 26.23,6.36 24.07,6.35 L 24.07,6.35 z" id="p4248" style="fill:#100c0d;fill-opacity:0.43;fill-rule:evenodd;stroke:none;display:inline"/>
<path d="M 30.85,4.42 C 29.56,4.34 25.27,5.56 29.27,5.88 C 32.59,6.15 34.60,6.81 35.24,8.17 C 35.58,7.99 35.78,7.80 35.78,7.60 C 35.78,7.09 35.77,6.71 35.77,6.34 C 35.77,5.95 35.14,5.59 34.10,5.29 L 34.10,5.17 C 32.73,4.80 31.39,4.45 30.85,4.42 z" id="p4255" style="fill:#100c0d;fill-opacity:0.47;fill-rule:evenodd;stroke:none;display:inline"/>
<path d="M 25.81,10.77 C 27.42,12.51 29.01,14.74 29.12,17.15 C 28.92,19.33 25.58,18.67 26.13,21.01 C 26.05,22.17 24.85,23.98 25.86,24.24 C 25.95,23.09 27.17,22.28 28.42,21.16 C 28.58,20.02 28.69,18.83 29.61,17.97 C 30.86,15.89 30.31,12.85 28.04,11.73 C 27.33,11.33 26.55,11.09 25.81,10.77 z M 22.74,11.06 C 21.84,11.89 20.39,11.61 20.40,13.39 C 18.45,14.51 21.94,17.13 19.50,17.35 C 19.35,17.44 19.24,17.55 19.15,17.67 C 19.33,18.49 19.61,19.21 19.98,19.74 C 21.07,21.32 22.29,22.02 23.09,22.68 C 23.13,22.62 23.17,22.56 23.21,22.48 C 23.65,20.92 21.42,20.27 21.51,18.68 C 22.20,17.32 20.26,15.56 21.72,14.51 C 21.28,13.76 21.72,11.99 22.74,11.06 z M 29.82,32.91 C 29.55,32.89 29.25,32.95 28.93,33.12 C 27.42,33.91 25.72,34.80 23.99,34.16 C 22.71,33.65 21.25,34.34 19.96,33.73 C 20.39,34.69 21.76,35.72 22.82,36.14 C 24.43,36.34 26.16,36.50 27.71,35.90 C 28.29,35.69 29.00,36.10 29.65,36.42 C 30.30,35.53 30.62,34.43 30.63,33.27 C 30.40,33.07 30.13,32.93 29.82,32.91 z" id="p5115" style="fill:#e2d1d5;fill-opacity:0.27;fill-rule:evenodd;stroke:none;display:inline"/>
<path d="M 21.22,18.22 C 21.68,19.05 22.14,19.25 22.86,19.10 C 23.59,18.95 25.65,18.69 26.01,19.15 C 26.37,19.61 26.37,18.53 26.93,18.33 C 27.50,18.12 28.79,17.61 27.19,17.71 C 25.59,17.81 23.89,18.12 24.41,17.55 C 23.53,17.50 22.92,17.30 22.92,16.88 C 22.35,17.61 21.58,18.17 21.22,18.22 L 21.22,18.22 z" id="p4284" style="fill:#cdbab6;fill-opacity:0.19;fill-rule:evenodd;stroke:none;display:inline"/>
<path d="M 33.54,38.31 C 33.52,38.47 33.50,38.62 33.46,38.76 C 33.33,39.30 33.08,39.67 32.64,39.94 C 32.51,40.01 32.43,40.14 32.43,40.29 C 32.43,40.44 32.51,40.58 32.65,40.65 C 32.78,40.72 32.94,40.71 33.06,40.62 C 33.58,40.30 33.93,39.83 34.13,39.27 C 34.08,38.94 33.88,38.62 33.54,38.31 z" id="p5039" style="font-size:medium;font-style:normal;font-variant:normal;font-weight:normal;font-stretch:normal;text-indent:0;text-align:start;text-decoration:none;line-height:normal;letter-spacing:normal;word-spacing:normal;text-transform:none;direction:ltr;block-progression:tb;writing-mode:lr-tb;text-anchor:start;opacity:1;fill:#4c4c4c;fill-opacity:0.51;fill-rule:evenodd;stroke:none;visibility:visible;display:inline;overflow:visible;enable-background:accumulate;font-family:sans-serif"/>
<path d="M 30.69,9.37 L 30.09,38.90 C 30.07,39.61 31.44,39.68 31.48,38.85 C 31.48,38.85 32.13,9.98 32.14,9.40 C 32.16,8.82 30.60,8.69 30.69,9.37 L 30.69,9.37 z" id="p4787" style="fill:#271f1c;fill-opacity:1;fill-rule:evenodd;stroke:none;display:inline"/>
<path d="M 23.15,43.16 C 24.45,43.24 25.50,43.24 26.30,43.13" id="p5037" style="fill:none;fill-rule:evenodd;stroke:#ececec;stroke-width:1.10;stroke-linecap:round;stroke-linejoin:miter;stroke-miterlimit:4;stroke-dasharray:none;stroke-opacity:0.12;display:inline"/>
<path d="M 24.59,43.21 C 25.31,43.24 27.74,43.11 28.49,42.93" id="p5097" style="fill:none;fill-rule:evenodd;stroke:#ffffff;stroke-width:1px;stroke-linecap:round;stroke-linejoin:miter;stroke-opacity:0.16;display:inline"/>
<path d="M 24.58,4.18 C 25.99,4.17 27.83,4.28 29.03,4.34" id="p4220" style="fill:none;fill-rule:evenodd;stroke:#f6f6f6;stroke-width:1px;stroke-linecap:butt;stroke-linejoin:miter;stroke-opacity:0.13;display:inline"/>
<path d="M 32.12,4.71 C 31.79,4.70 31.52,4.97 31.51,5.30 C 31.50,5.63 31.76,5.91 32.09,5.91 C 33.34,5.94 34.87,6.72 35.77,7.26 C 35.77,6.94 35.77,6.61 35.77,6.34 C 35.77,5.95 35.14,5.59 34.10,5.29 L 34.10,5.11 C 33.48,4.89 32.80,4.73 32.12,4.71 z" id="p4262" style="font-size:medium;font-style:normal;font-variant:normal;font-weight:normal;font-stretch:normal;text-indent:0;text-align:start;text-decoration:none;line-height:normal;letter-spacing:normal;word-spacing:normal;text-transform:none;direction:ltr;block-progression:tb;writing-mode:lr-tb;text-anchor:start;opacity:1;fill:#a48266;fill-opacity:0.12;fill-rule:evenodd;stroke:none;visibility:visible;display:inline;overflow:visible;enable-background:accumulate;font-family:sans-serif"/>
<path d="M 22.73,4.10 C 24.82,4.07 27.91,4.13 29.86,4.36" id="p4277" style="fill:none;fill-rule:evenodd;stroke:#fefefe;stroke-width:0.89;stroke-linecap:round;stroke-linejoin:miter;stroke-miterlimit:4;stroke-dasharray:none;stroke-opacity:0.10;display:inline"/>
<path d="M 25.23,29.76 C 25.44,29.76 25.54,29.71 25.85,29.50" id="p4279" style="fill:none;fill-rule:evenodd;stroke:#ffffff;stroke-width:1px;stroke-linecap:round;stroke-linejoin:miter;stroke-opacity:0.37;display:inline"/>
<path d="M 25.38,29.77 L 25.71,29.57" id="p4290" style="fill:none;fill-rule:evenodd;stroke:#ffffff;stroke-width:0.60;stroke-linecap:round;stroke-linejoin:miter;stroke-miterlimit:4;stroke-dasharray:none;stroke-opacity:0.60;display:inline"/>
<circle cx="31.08" cy="24.78" r="2.52" id="p4769" style="fill:#241c1a;fill-opacity:1;stroke:none;"/>
<ellipse cx="31.35" cy="22.95" rx="0.58" ry="0.33" id="p5081" style="fill:#edeaab;fill-opacity:0.18;stroke:none;"/>
<path d="M 32.40,22.62 C 32.34,22.65 32.28,22.68 32.22,22.70 C 31.85,22.83 31.35,22.85 30.73,22.82 C 30.34,22.80 30.01,23.10 29.99,23.49 C 29.98,23.87 30.27,24.20 30.66,24.22 C 31.35,24.26 32.02,24.25 32.67,24.03 C 32.91,23.94 33.13,23.82 33.35,23.67 C 33.14,23.24 32.81,22.87 32.40,22.62 L 32.40,22.62 z" id="p5074" style="font-size:medium;font-style:normal;font-variant:normal;font-weight:normal;font-stretch:normal;text-indent:0;text-align:start;text-decoration:none;line-height:normal;letter-spacing:normal;word-spacing:normal;text-transform:none;direction:ltr;block-progression:tb;writing-mode:lr-tb;text-anchor:start;opacity:1;fill:#925c3e;fill-opacity:0.18;fill-rule:evenodd;stroke:none;visibility:visible;display:inline;overflow:visible;enable-background:accumulate;font-family:sans-serif"/>
<path d="M 28.62,24.21 C 28.58,24.40 28.56,24.59 28.56,24.78 C 28.56,25.57 28.93,26.31 29.56,26.79 C 30.15,26.94 30.76,27.01 31.35,26.99 C 31.76,26.97 32.17,26.91 32.56,26.82 C 33.22,26.35 33.61,25.59 33.61,24.78 C 33.61,24.63 33.60,24.49 33.57,24.34 C 32.92,24.76 32.10,25.05 31.27,25.09 C 30.30,25.13 29.38,24.88 28.62,24.21 L 28.62,24.21 z" id="p5067" style="font-size:medium;font-style:normal;font-variant:normal;font-weight:normal;font-stretch:normal;text-indent:0;text-align:start;text-decoration:none;line-height:normal;letter-spacing:normal;word-spacing:normal;text-transform:none;direction:ltr;block-progression:tb;writing-mode:lr-tb;text-anchor:start;opacity:1;fill:#535353;fill-opacity:0.19;fill-rule:evenodd;stroke:none;visibility:visible;display:inline;overflow:visible;enable-background:accumulate;font-family:sans-serif"/>
<path d="M 24.75,3.29 C 19.58,3.29 15.39,3.88 15.39,4.62 L 15.39,5.29 C 14.35,5.59 13.73,5.95 13.73,6.34 C 13.73,6.86 13.72,7.31 13.72,7.60 C 13.72,7.97 14.36,8.31 15.43,8.60 C 15.41,8.64 15.39,8.68 15.39,8.72 L 15.39,9.41 C 15.39,9.58 15.63,9.74 16.02,9.89 L 16.02,23.16 C 15.09,23.49 14.47,24.37 14.47,25.36 C 14.47,26.35 15.09,27.23 16.02,27.56 L 16.02,37.43 C 15.80,37.62 15.63,37.81 15.51,38.00 C 14.89,38.43 14.55,38.90 14.51,39.37 C 14.08,39.76 13.83,40.17 13.83,40.61 L 13.83,41.58 C 13.83,42.66 14.41,42.76 14.41,43.33 C 14.41,45.17 18.85,46.66 24.33,46.66 C 29.81,46.66 34.26,45.17 34.25,43.33 C 34.24,42.85 34.83,42.57 34.83,41.58 L 34.83,40.61 C 34.83,40.18 34.58,39.76 34.15,39.38 C 34.12,38.89 33.77,38.42 33.14,37.99 C 32.88,37.55 32.33,37.14 31.53,36.78 C 31.57,35.15 31.64,31.72 31.74,27.21 C 32.84,26.91 33.61,25.92 33.61,24.78 C 33.61,23.68 32.90,22.71 31.85,22.37 C 31.99,16.43 32.11,11.17 32.13,10.23 C 33.35,10.00 34.10,9.72 34.10,9.41 L 34.10,8.72 C 34.10,8.68 34.09,8.64 34.07,8.60 C 35.13,8.31 35.78,7.97 35.78,7.60 C 35.78,7.09 35.77,6.71 35.77,6.34 C 35.77,5.95 35.14,5.59 34.10,5.29 L 34.10,4.62 C 34.10,3.88 29.92,3.29 24.75,3.29 L 24.75,3.29 z M 28.81,10.59 C 29.45,10.55 30.11,10.50 30.67,10.44 L 30.42,22.34 C 29.32,22.64 28.56,23.64 28.56,24.78 C 28.56,25.88 29.27,26.85 30.33,27.18 L 30.14,36.28 C 30.01,36.25 29.88,36.21 29.75,36.18 M 19.82,35.97 C 18.91,36.15 18.10,36.38 17.42,36.65 C 17.43,34.95 17.43,31.82 17.44,27.60 C 18.44,27.31 19.13,26.40 19.13,25.36 C 19.13,24.32 18.45,23.41 17.45,23.12 C 17.47,16.77 17.48,11.19 17.48,10.24 C 18.39,10.41 19.57,10.53 20.91,10.62" id="stroke01" style="fill:none;fill-opacity:1;stroke:#000000;stroke-width:0.5;stroke-linecap:round;stroke-linejoin:bevel;stroke-miterlimit:4;stroke-dasharray:none;stroke-opacity:1;display:inline"/>
<path d="M 30.31,31.02 C 29.93,29.81 29.26,28.67 28.31,27.82 C 26.56,26.26 25.78,25.85 25.84,24.31 C 25.90,22.77 28.00,21.85 29.54,20.05 C 29.97,19.55 30.35,18.71 30.59,17.72 M 30.67,13.88 C 30.16,11.53 28.48,9.45 24.67,9.38 C 18.32,9.26 18.08,17.00 19.98,19.74 C 21.77,22.33 23.93,22.58 23.99,24.12 C 24.04,25.42 23.06,25.91 21.09,27.95 C 16.75,32.43 18.99,38.19 24.79,38.37 C 27.74,38.53 29.48,37.22 30.22,35.42" id="stroke02" style="fill:none;fill-rule:evenodd;stroke:#000000;stroke-width:0.5;stroke-linecap:butt;stroke-linejoin:miter;stroke-miterlimit:4;stroke-dasharray:none;stroke-opacity:1;display:inline"/>
<path d="M 26.81,26.47 L 26.85,25.29 C 27.66,25.07 28.22,24.34 28.22,23.50 C 28.21,22.91 27.93,22.35 27.45,22.01" id="stroke03" style="fill:none;fill-opacity:1;stroke:#000000;stroke-width:0.5;stroke-linecap:round;stroke-linejoin:bevel;stroke-miterlimit:4;stroke-dasharray:none;stroke-opacity:1;display:inline"/>
</g>
</svg>
