<?xml version="1.0" encoding="UTF-8" standalone="no"?>
<!DOCTYPE svg PUBLIC "-//W3C//DTD SVG 1.0//EN" "http://www.w3.org/TR/2001/REC-SVG-20010904/DTD/svg10.dtd">
<svg xmlns:svg="http://www.w3.org/2000/svg" xmlns="http://www.w3.org/2000/svg" version="1.0" width="100%" height="100%" viewBox="0 0 48 48" id="_lock01">
<defs id="defs2385">
<clipPath id="clipPath3466">
<path d="M 26.81,-0.81 L 11.53,2.96 L 11,10.21 L 9.46,18.37 L 12.46,21.96 L 13.06,22.25 C 13.01,22.33 12.99,22.41 13,22.5 C 13.02,23.02 14.1,23.41 15.4,23.34 C 16.68,23.27 17.7,22.79 17.71,22.28 L 19.15,22.09 L 33.06,20.93 C 33.11,21.44 34.17,21.84 35.43,21.81 C 36.72,21.78 37.76,21.33 37.75,20.81 L 39.15,20.81 L 40.53,2.78 L 26.81,-0.81 z" id="p3468" style="opacity:1;fill:#000000;fill-opacity:1;fill-rule:evenodd;stroke:none;marker:none;visibility:visible;display:inline;overflow:visible;enable-background:accumulate"/>
</clipPath>
</defs>
<g id="lock01" style="display:inline">
<path d="M 10.96,41.61 L 10.89,21.04 L 37.96,19.06 L 39.72,22.14 L 38.95,42.27 C 38.95,42.27 35.65,43.48 25.74,44.36 C 15.84,45.24 12.1,44.69 12.1,44.69 L 10.96,41.61 z" id="p2548" style="fill:#b8a270;fill-opacity:1;fill-rule:evenodd;stroke:none"/>
<path d="M 37.96,19.06 L 10.9,21.03 L 10.9,22.5 L 12.09,24.34 C 12.09,24.34 15.62,26.69 26.62,25.78 C 35.75,25.01 39.62,22.15 39.62,22.15 L 39.65,22.03 L 37.96,19.06 z" id="p3329" style="fill:#f6ecdb;fill-opacity:1;fill-rule:evenodd;stroke:none;display:inline"/>
<path d="M 37.96,19.06 L 10.9,21.03 L 10.87,24.34 L 39.71,22.18 L 39.71,22.15 L 37.96,19.06 z" id="p3325" style="fill:#cdb88a;fill-opacity:1;fill-rule:evenodd;stroke:none"/>
<path d="M 10.9,21.03 L 10.97,41.65 L 12.09,44.68 C 12.09,44.68 12.2,44.68 12.21,44.68 L 12.21,24.43 L 10.96,21.03 L 10.9,21.03 z" id="p3323" style="fill:#664e39;fill-opacity:0.91;fill-rule:evenodd;stroke:none"/>
<path d="M 37.96,19.06 L 16.78,20.59 C 17.24,21.48 17.45,22.54 17.5,23.84 L 39.71,22.18 L 39.71,22.15 L 37.96,19.06 z" id="p3370" style="fill:#664e39;fill-opacity:0.27;fill-rule:evenodd;stroke:none;display:inline"/>
<path d="M 37.68,20.71 C 37.69,21.23 36.66,21.67 35.37,21.71 C 34.08,21.74 33.03,21.34 33.02,20.82 C 33.00,20.30 34.04,19.86 35.32,19.83 C 36.61,19.79 37.67,20.19 37.68,20.71 z" id="p3461" style="fill:#000000;fill-opacity:1;fill-rule:evenodd;stroke:none;marker:none;visibility:visible;display:inline;overflow:visible;enable-background:accumulate"/>
<path d="M 33.75,19.37 L 20.43,20.34 C 21.53,21.56 20.16,22.82 18.4,23.78 L 31.81,22.78 C 31.83,22.04 32.36,20.97 33.75,19.37 z" id="p3334" style="fill:#7d6c49;fill-opacity:0.36;fill-rule:evenodd;stroke:none;display:inline"/>
<path d="M 10.81,34.68 L 10.97,41.68 L 12.09,44.68 C 12.09,44.68 12.2,44.68 12.21,44.68 L 12.21,37.75 C 11.74,37.12 11.24,36.04 10.81,34.68 z" id="p3332" style="fill:#cbbeb3;fill-opacity:0.25;fill-rule:evenodd;stroke:none;display:inline"/>
<path d="M 17.64,22.16 C 17.67,22.68 16.63,23.16 15.33,23.23 C 14.03,23.30 12.95,22.93 12.93,22.40 C 12.90,21.88 13.93,21.40 15.23,21.33 C 16.53,21.26 17.61,21.63 17.64,22.16 z" id="p3459" style="fill:#000000;fill-opacity:1;fill-rule:evenodd;stroke:none;marker:none;visibility:visible;display:inline;overflow:visible;enable-background:accumulate"/>
<path d="M 12.18,24.27 L 39.71,22.18 L 39.71,22.15" id="p3365" style="fill:none;fill-opacity:1;fill-rule:evenodd;stroke:#d6cbc6;stroke-width:0.40;stroke-linecap:butt;stroke-linejoin:miter;stroke-miterlimit:4;stroke-dasharray:none;stroke-opacity:0.95;display:inline"/>
<path d="M 12.09,44.68 C 12.09,44.68 12.2,44.68 12.21,44.68 L 12.21,24.43 L 10.96,21.03 L 10.9,21.03" id="p3362" style="fill:none;fill-opacity:0.91;fill-rule:evenodd;stroke:#533d32;stroke-width:0.40;stroke-linecap:butt;stroke-linejoin:miter;stroke-miterlimit:4;stroke-dasharray:none;stroke-opacity:0.95;display:inline"/>
<path d="M 10.96,41.61 L 10.89,21.04 L 37.96,19.06 L 39.72,22.14 L 38.95,42.27 C 38.95,42.27 35.65,43.48 25.74,44.36 C 15.84,45.24 12.1,44.69 12.1,44.69 L 10.96,41.61 z" id="stroke01" style="fill:none;fill-opacity:1;fill-rule:evenodd;stroke:#1f1711;stroke-width:0.5;stroke-linecap:butt;stroke-linejoin:miter;stroke-miterlimit:4;stroke-dasharray:none;stroke-opacity:1;display:inline"/>
<g clip-path="url(#clipPath3466)" id="g3441" style="display:inline">
<path d="M 13.18,24.39 C 13.14,27.08 17.34,26.27 17.28,24.39 C 17.17,21.37 17.45,15.18 17.48,14.1 C 17.55,11.28 20.98,8.01 25.75,7.51 C 30.26,7.04 33.15,9.39 33.22,11.48 C 33.28,13.56 33.08,30.65 33.08,30.65 L 37.52,30.38 C 37.52,30.38 37.32,12.82 37.32,10.74 C 37.32,8.66 35.03,3.21 26.29,3.34 C 17.55,3.48 13.44,10.13 13.31,13.09 C 13.18,16.05 13.21,21.7 13.18,24.39 z" id="p3379" style="fill:#b9b1af;fill-opacity:1;fill-rule:evenodd;stroke:none;display:inline"/>
<path d="M 23.37,7.93 C 19.09,9.44 17.35,11.61 17.12,12.43 C 16.9,13.24 16.54,25.18 16.53,25.65 C 16.98,25.35 17.29,24.92 17.28,24.4 C 17.17,21.38 17.47,15.16 17.5,14.09 C 17.55,11.77 19.86,9.16 23.34,8.03 L 23.37,7.93 z" id="p3430" style="fill:#1f1815;fill-opacity:0.79;fill-rule:evenodd;stroke:none"/>
<path d="M 26.28,3.34 C 17.53,3.47 13.44,10.13 13.31,13.09 C 13.3,13.19 13.31,13.35 13.31,13.46 C 13.31,13.47 13.3,13.49 13.31,13.5 C 13.64,14.08 14,14.37 14,14.37 C 14,14.37 14.79,12.63 15.87,11.62 C 16.95,10.61 20.91,6.03 26.5,6.03 C 32.08,6.03 34.62,8.19 35.09,8.59 C 35.51,8.95 36.95,10.42 36.12,7.46 C 36.12,7.46 36.12,7.44 36.12,7.43 C 34.68,5.34 31.74,3.25 26.28,3.34 z" id="p3382" style="fill:#09090a;fill-opacity:0.92;fill-rule:evenodd;stroke:none;display:inline"/>
<path d="M 25.68,4 C 22.56,4.12 20.06,5.36 18.75,6.37 C 17,7.71 15.76,8.59 14.79,9.94 C 14.65,10.15 14.09,10.87 13.75,11.31 C 13.49,11.97 13.33,12.59 13.31,13.09 C 13.3,13.19 13.31,13.35 13.31,13.46 C 13.31,13.47 13.3,13.49 13.31,13.5 C 13.64,14.08 14,14.37 14,14.37 C 14,14.37 14.44,13.38 15.12,12.46 C 15.13,12.45 15.14,12.44 15.15,12.43 C 15.9,10.31 16.44,9.05 18.21,7.78 C 20.63,6.03 25.94,4.81 28.96,5.21 C 31.99,5.62 33.6,5.28 28.96,4.28 C 27.8,4.02 26.72,3.95 25.68,4 z" id="p3385" style="fill:#f7f7f8;fill-opacity:0.65;fill-rule:evenodd;stroke:none;display:inline"/>
<path d="M 25.68,4 C 22.56,4.12 20.06,5.36 18.75,6.37 C 18.61,6.48 18.5,6.55 18.37,6.65 C 18.36,6.99 18.62,7.19 19.09,7.25 C 21.75,5.79 26.26,4.85 28.96,5.21 C 31.99,5.62 33.6,5.28 28.96,4.28 C 27.8,4.02 26.72,3.95 25.68,4 z" id="p3388" style="fill:#f7f7f8;fill-opacity:0.92;fill-rule:evenodd;stroke:none;display:inline"/>
<path d="M 28.46,7.12 C 27.05,7.11 25.56,7.35 24.15,7.62 L 24.18,7.78 C 24.69,7.65 25.2,7.58 25.75,7.53 C 30.25,7.06 33.15,9.41 33.21,11.5 C 33.28,13.58 33.09,30.65 33.09,30.65 L 34.25,30.59 C 34.29,23.69 34.35,13.53 34.09,10.53 C 32.96,7.88 30.81,7.14 28.46,7.12 z" id="p3408" style="fill:#d7cac5;fill-opacity:0.73;fill-rule:evenodd;stroke:none;display:inline"/>
<path d="M 33.62,10.06 C 33.59,10.06 33.56,10.09 33.53,10.12 C 33.37,10.28 33.25,10.41 33.12,10.84 C 33.18,11.05 33.21,11.29 33.21,11.5 C 33.28,13.58 33.09,30.65 33.09,30.65 L 37.53,30.37 C 37.53,30.37 37.47,25.83 37.43,22.03 C 36.05,22.35 35.21,21.94 34.96,21.75 C 34.66,21.5 34.37,20.69 34.31,20.15 C 34.25,19.61 34.15,12.36 34.15,11.37 C 34.15,10.5 33.85,10.01 33.62,10.06 z" id="p3411" style="fill:#3f312b;fill-opacity:0.73;fill-rule:evenodd;stroke:none;display:inline"/>
<path d="M 13.18,24.39 C 13.14,27.08 17.34,26.27 17.28,24.39 C 17.17,21.37 17.45,15.18 17.48,14.1 C 17.55,11.28 20.98,8.01 25.75,7.51 C 30.26,7.04 33.15,9.39 33.22,11.48 C 33.28,13.56 33.08,30.65 33.08,30.65 L 37.52,30.38 C 37.52,30.38 37.32,12.82 37.32,10.74 C 37.32,8.66 35.03,3.21 26.29,3.34 C 17.55,3.48 13.44,10.13 13.31,13.09 C 13.18,16.05 13.21,21.7 13.18,24.39 z" id="stroke02" style="fill:none;fill-opacity:1;fill-rule:evenodd;stroke:#000000;stroke-width:0.5;stroke-linecap:butt;stroke-linejoin:miter;stroke-miterlimit:4;stroke-dasharray:none;stroke-opacity:1;display:inline"/>
<path d="M 37.4,19.71 C 37.26,20.03 37.16,20.31 37.12,20.37 C 37.03,20.49 36.89,20.31 36.71,20.31 C 36.53,20.31 36.23,21.36 35.87,22.65 L 36.65,24.84 L 37.46,24.28 C 37.44,22.48 37.42,21.88 37.4,19.71 z" id="p3414" style="fill:#1f1815;fill-opacity:0.79;fill-rule:evenodd;stroke:none;display:inline"/>
<path d="M 33.38,7.6 C 34.67,8.16 35.74,9.11 35.9,10.85" id="p3426" style="fill:none;fill-rule:evenodd;stroke:#ececec;stroke-width:1.10;stroke-linecap:round;stroke-linejoin:miter;stroke-miterlimit:4;stroke-dasharray:none;stroke-opacity:0.4"/>
<path d="M 16.64,11.19 C 15.61,12.4 15.09,13.32 15.09,14.18 C 15.09,15.05 14.97,19.19 14.97,19.19" id="p3428" style="fill:none;fill-rule:evenodd;stroke:#383838;stroke-width:1.28;stroke-linecap:round;stroke-linejoin:miter;stroke-miterlimit:4;stroke-dasharray:none;stroke-opacity:0.16"/>
<path d="M 13.68,11.53 C 13.47,12.11 13.33,12.64 13.31,13.09 C 13.17,16.05 13.22,21.71 13.18,24.4 C 13.15,27.09 17.34,26.28 17.28,24.4 C 17.25,23.53 17.23,22.38 17.25,21.18 C 16.62,22.02 15.91,22.81 15.4,22.81 C 14.42,22.81 14.43,21.78 14.43,21.78 C 14.43,21.78 14.06,22.28 13.68,22.28 C 13.31,22.28 13.46,21.76 13.46,21.46 C 13.46,21.19 13.65,16.28 13.68,11.53 z" id="p3435" style="fill:#533e28;fill-opacity:0.79;fill-rule:evenodd;stroke:none;display:inline"/>
</g>
<path d="M 17.44,21.80 C 17.57,21.91 17.63,22.03 17.64,22.16 C 17.67,22.68 16.63,23.16 15.33,23.23 C 14.04,23.30 12.95,22.93 12.93,22.40" id="p3470" style="fill:none;fill-opacity:1;fill-rule:evenodd;stroke:#e2d4c2;stroke-width:0.29;stroke-linecap:round;stroke-linejoin:round;marker:none;stroke-miterlimit:4;stroke-dashoffset:0;stroke-opacity:1;visibility:visible;display:inline;overflow:visible;enable-background:accumulate"/>
<path d="M 37.49,20.35 C 37.62,20.46 37.67,20.58 37.68,20.71 C 37.69,21.23 36.66,21.67 35.37,21.71 C 34.09,21.74 33.03,21.34 33.02,20.82" id="p3487" style="fill:none;fill-opacity:1;fill-rule:evenodd;stroke:#e2d4c2;stroke-width:0.29;stroke-linecap:round;stroke-linejoin:round;marker:none;stroke-miterlimit:4;stroke-dasharray:none;stroke-dashoffset:0;stroke-opacity:1;visibility:visible;display:inline;overflow:visible;enable-background:accumulate"/>
</g>
</svg>
