<?xml version="1.0" encoding="UTF-8" standalone="no"?>
<!DOCTYPE svg PUBLIC "-//W3C//DTD SVG 1.0//EN" "http://www.w3.org/TR/2001/REC-SVG-20010904/DTD/svg10.dtd">
<svg xmlns:svg="http://www.w3.org/2000/svg" xmlns="http://www.w3.org/2000/svg" version="1.0" width="100%" height="100%" viewBox="0 0 48 48" id="_pickaxe01">
<defs id="defs2385"/>
<g id="pickaxe01" style="display:inline">
<path d="M 3.35,21.91 L 6.50,19.34 C 6.50,19.34 7.57,21.77 8.50,23.05 C 9.43,24.34 11.29,27.41 11.29,27.41 C 11.29,27.41 10.71,28.34 11.36,29.20 C 12.00,30.06 12.62,29.85 13.13,29.46 C 13.45,29.21 13.79,29.41 13.79,29.41 C 13.79,29.41 18.08,27.27 21.94,23.70 C 25.79,20.12 31.44,13.76 33.23,12.12 C 35.01,10.48 38.16,7.47 39.02,6.69 C 39.87,5.90 42.95,8.90 41.95,9.83 C 40.95,10.76 36.73,14.48 35.44,15.69 C 34.16,16.91 28.87,21.20 26.44,23.41 C 24.01,25.63 20.22,29.49 19.65,30.63 C 19.08,31.77 18.09,32.33 18.13,32.51 C 18.18,32.80 18.36,33.20 18.15,33.42 C 17.93,33.63 17.86,33.56 18.36,34.20 C 18.86,34.85 22.44,38.78 24.72,40.28 C 27.01,41.78 27.72,42.49 27.58,42.78 C 27.44,43.06 26.87,42.92 25.15,42.06 C 23.44,41.21 17.36,37.28 16.86,36.85 C 16.36,36.42 15.79,35.85 15.79,35.85 C 15.79,35.85 14.00,36.54 12.23,34.57 C 10.29,32.41 11.63,32.24 10.57,31.13 C 9.42,29.91 8.43,30.49 7.93,29.91 C 7.43,29.34 5.00,26.41 3.35,21.91 z" id="p2481" style="fill:#48401f;fill-opacity:1;fill-rule:evenodd;stroke:none;"/>
<path d="M 19.96,25.34 C 16.74,27.90 13.78,29.40 13.78,29.40 C 13.78,29.40 13.44,29.22 13.12,29.46 C 12.81,29.70 12.48,29.86 12.12,29.78 L 12.43,31.56 C 14.47,31.41 15.65,29.51 16.53,28.93 C 17.20,28.48 18.87,28.44 19.96,25.34 z" id="p3376" style="fill:#25211a;fill-opacity:0.56;fill-rule:evenodd;stroke:none;display:inline"/>
<path d="M 6.5,19.34 L 3.34,21.90 C 4.98,26.40 7.43,29.33 7.93,29.90 C 8.43,30.47 9.41,29.90 10.56,31.12 C 11.61,32.24 10.30,32.42 12.25,34.59 C 14.01,36.56 15.78,35.84 15.78,35.84 C 15.78,35.84 16.37,36.41 16.87,36.84 C 17.37,37.27 23.44,41.20 25.15,42.06 C 26.87,42.92 27.45,43.06 27.59,42.78 C 27.73,42.49 27.00,41.78 24.71,40.28 C 22.43,38.78 18.87,34.86 18.37,34.21 C 17.87,33.57 17.94,33.62 18.15,33.40 C 18.27,33.28 18.28,33.12 18.25,32.93 C 17.28,33.30 16.36,33.26 15.15,32.25 C 13.98,31.26 13.60,30.43 13.62,29.34 C 13.49,29.31 13.30,29.32 13.12,29.46 C 12.61,29.86 12.01,30.07 11.37,29.21 C 10.73,28.36 11.28,27.40 11.28,27.40 C 11.28,27.40 9.42,24.34 8.5,23.06 C 7.57,21.77 6.5,19.34 6.5,19.34 z" id="p3259" style="fill:#2b2a2a;fill-opacity:1;fill-rule:evenodd;stroke:none;display:inline"/>
<path d="M 6.5,19.34 L 3.34,21.90 C 4.15,24.13 5.16,26.01 6.03,27.37 C 5.89,25.41 5.78,23.33 5.68,22.71 C 5.53,21.73 6.04,21.56 6.5,22.25 C 6.86,22.79 8.14,24.83 10.37,25.90 C 9.76,24.92 9.01,23.77 8.5,23.06 C 7.57,21.77 6.5,19.34 6.5,19.34 z" id="p3257" style="fill:#a9a9a6;fill-opacity:0.52;fill-rule:evenodd;stroke:none;display:inline"/>
<path d="M 39.43,6.56 C 39.27,6.55 39.13,6.58 39.03,6.68 C 38.82,6.87 38.04,7.60 37.62,8 C 38.13,8.93 38.77,9.85 39.28,10.15 C 40.03,10.61 37.31,12.55 34.96,14.75 C 32.62,16.94 27.93,21.80 26.87,21.5 C 26.31,21.33 26.65,19.88 27.21,18.37 C 25.41,20.27 23.53,22.21 21.93,23.68 C 21.10,24.46 20.23,25.14 19.40,25.78 C 20.86,25.64 21.45,25.56 21.65,26.12 C 21.78,26.46 21.94,26.93 22.18,27.59 C 23.54,26.16 25.17,24.56 26.43,23.40 C 28.86,21.19 34.15,16.90 35.43,15.68 C 36.72,14.47 40.93,10.77 41.93,9.84 C 42.81,9.03 40.58,6.62 39.43,6.56 z" id="p3261" style="fill:#ccac4a;fill-opacity:0.42;fill-rule:evenodd;stroke:none;display:inline"/>
<path d="M 21.40,37.43 C 20.83,37.77 19.99,38.08 19.03,38.31 C 21.10,39.66 24.02,41.49 25.15,42.06 C 26.87,42.92 27.45,43.06 27.59,42.78 C 27.73,42.49 27.00,41.78 24.71,40.28 C 23.72,39.63 22.52,38.53 21.40,37.43 z" id="p3263" style="fill:#a9a9a6;fill-opacity:0.35;fill-rule:evenodd;stroke:none;display:inline"/>
<path d="M 24.34,40 C 24.18,40.52 23.99,40.94 23.81,41.28 C 24.32,41.58 24.85,41.91 25.15,42.06 C 26.87,42.92 27.45,43.06 27.59,42.78 C 27.73,42.49 27.00,41.78 24.71,40.28 C 24.59,40.20 24.46,40.09 24.34,40 z" id="p3265" style="fill:#dddddc;fill-opacity:0.62;fill-rule:evenodd;stroke:none;display:inline"/>
<path d="M 18.25,32.93 C 17.80,33.10 17.36,33.18 16.90,33.12 C 15.74,33.68 14.90,34.44 13.84,35.71 C 14.94,36.15 15.78,35.84 15.78,35.84 C 15.78,35.84 16.37,36.41 16.87,36.84 C 17.04,36.99 17.96,37.59 19.06,38.31 C 20.37,38.13 21.18,37.89 21.62,37.62 C 20.07,36.12 18.67,34.60 18.37,34.21 C 17.87,33.57 17.94,33.62 18.15,33.40 C 18.27,33.28 18.28,33.12 18.25,32.93 z" id="p3298" style="fill:#1e1d1d;fill-opacity:0.59;fill-rule:evenodd;stroke:none;display:inline"/>
<path d="M 13.73,31.19 C 14.55,32.20 15.15,32.84 15.86,33.21 C 16.75,33.68 17.70,33.68 18.32,33.23" id="p3342" style="fill:none;fill-rule:evenodd;stroke:#a4a29d;stroke-width:0.30;stroke-linecap:butt;stroke-linejoin:miter;stroke-miterlimit:4;stroke-dasharray:none;stroke-opacity:0.56;display:inline"/>
<path d="M 10.40,25.96 C 9.30,26.39 8.06,27.04 6.93,28.62 C 7.39,29.24 7.77,29.72 7.93,29.90 C 8.43,30.47 9.41,29.90 10.56,31.12 C 11.50,32.12 10.58,32.38 11.75,33.96 C 12.77,33.12 13.68,32.20 14.34,31.43 C 13.80,30.76 13.60,30.12 13.62,29.34 C 13.49,29.31 13.30,29.32 13.12,29.46 C 12.61,29.86 12.01,30.07 11.37,29.21 C 10.73,28.36 11.28,27.40 11.28,27.40 C 11.28,27.40 10.86,26.70 10.40,25.96 z" id="p3300" style="fill:#1e1d1d;fill-opacity:0.78;fill-rule:evenodd;stroke:none;display:inline"/>
<path d="M 4.78,20.75 C 5.72,21.71 5.79,22.45 6.25,23.18 C 6.83,24.13 10.39,29.06 11.12,29.5 C 11.85,29.93 11.79,30.24 12.15,29.81 C 12.15,29.80 12.15,29.78 12.15,29.78" id="p3302" style="fill:none;fill-rule:evenodd;stroke:#6c6b6a;stroke-width:0.60;stroke-linecap:butt;stroke-linejoin:miter;stroke-miterlimit:4;stroke-dasharray:none;stroke-opacity:1;display:inline"/>
<path d="M 17.32,34.97 C 18.78,36.57 19.36,37.51 21.10,38.75 C 22.85,39.99 27.44,42.68 27.44,42.68" id="p3304" style="fill:none;fill-rule:evenodd;stroke:#c9c5c5;stroke-width:0.40;stroke-linecap:butt;stroke-linejoin:miter;stroke-miterlimit:4;stroke-dasharray:none;stroke-opacity:0.57;display:inline"/>
<path d="M 6.5,19.34 L 3.34,21.90 C 4.30,24.54 5.50,26.56 6.46,27.96 C 7.45,26.65 7.63,25.53 7.43,25.09 C 7.15,24.47 5.85,22.15 5.96,21.87 C 6.06,21.63 9.56,25.40 11.25,27.53 C 11.27,27.46 11.28,27.40 11.28,27.40 C 11.28,27.40 9.42,24.34 8.5,23.06 C 7.57,21.77 6.5,19.34 6.5,19.34 z" id="p3347" style="fill:#65563b;fill-opacity:0.33;fill-rule:evenodd;stroke:none;display:inline"/>
<path d="M 11.21,27.53 C 10.86,27.76 10.57,28.18 10.46,28.81 C 10.34,29.51 10.11,30.06 9.81,30.53 C 10.05,30.65 10.29,30.84 10.56,31.12 C 11.35,31.96 10.81,32.26 11.31,33.28 C 12.31,32.39 11.63,31.22 11.5,30.81 C 11.37,30.43 11.58,30.07 11.87,29.71 C 11.70,29.62 11.54,29.45 11.37,29.21 C 10.86,28.53 11.09,27.80 11.21,27.53 z" id="p3349" style="fill:#65563b;fill-opacity:0.30;fill-rule:evenodd;stroke:none;display:inline"/>
<path d="M 3.37,21.87 L 3.34,21.90 C 4.98,26.40 7.43,29.33 7.93,29.90 C 8.43,30.47 9.41,29.90 10.56,31.12 C 10.81,31.38 10.90,31.61 10.96,31.81 C 11.02,31.00 10.69,30.50 10.40,30.25 C 9.96,29.86 8.84,29.70 8.40,29.56 C 7.96,29.41 7.79,28.86 6.87,27.5 C 6.09,26.34 4.53,23.73 3.37,21.87 z" id="p3321" style="fill:#b0adad;fill-opacity:0.77;fill-rule:evenodd;stroke:none;display:inline"/>
<path d="M 6.5,19.34 L 3.34,21.90 C 3.74,23.00 4.19,24.00 4.65,24.90 C 4.80,23.82 4.97,22.96 5.09,22.75 C 5.23,22.48 6.35,21.73 7.34,21.09 C 6.86,20.16 6.5,19.34 6.5,19.34 z" id="p3323" style="fill:#b0adad;fill-opacity:0.38;fill-rule:evenodd;stroke:none;display:inline"/>
<path d="M 14.75,31.84 C 14.23,32.64 13.44,33.66 12.81,34.12 C 12.69,34.21 12.46,34.45 12.28,34.62 C 13.02,35.44 13.76,35.78 14.37,35.90 C 14.36,34.42 15.34,33.50 16.21,32.93 C 15.88,32.79 15.54,32.57 15.15,32.25 C 14.99,32.11 14.88,31.97 14.75,31.84 z" id="p3325" style="fill:#b0adad;fill-opacity:0.23;fill-rule:evenodd;stroke:none;display:inline"/>
<path d="M 19.31,37.24 C 20.97,38.70 24.52,41.18 26.71,42.59" id="p3327" style="fill:none;fill-rule:evenodd;stroke:#e6e4e2;stroke-width:0.40;stroke-linecap:round;stroke-linejoin:miter;stroke-miterlimit:4;stroke-dasharray:none;stroke-opacity:0.91;display:inline"/>
<path d="M 18.25,32.93 C 18.01,33.02 17.79,33.09 17.56,33.12 C 17.56,33.12 17.53,33.12 17.53,33.12 C 17.35,33.54 17.23,33.78 16.84,34.03 C 16.39,34.31 16.05,33.93 15.65,34.78 C 15.48,35.14 15.18,35.57 14.90,35.96 C 15.43,35.97 15.78,35.84 15.78,35.84 C 15.78,35.84 15.86,35.92 15.87,35.93 C 16.71,35.10 17.39,34.34 18.03,33.59 C 18.04,33.53 18.07,33.48 18.15,33.40 C 18.27,33.28 18.28,33.12 18.25,32.93 z" id="p3345" style="fill:#5e5442;fill-opacity:0.30;fill-rule:evenodd;stroke:none;display:inline"/>
<path d="M 12.66,34.43 L 13.40,35.05" id="p3351" style="fill:none;fill-rule:evenodd;stroke:#d9d9d9;stroke-width:0.40;stroke-linecap:round;stroke-linejoin:miter;stroke-miterlimit:4;stroke-dasharray:none;stroke-opacity:0.55;display:inline"/>
<path d="M 21.71,38.57 L 21.95,38.76" id="p3353" style="fill:none;fill-rule:evenodd;stroke:#d5d3d2;stroke-width:0.40;stroke-linecap:round;stroke-linejoin:miter;stroke-miterlimit:4;stroke-dasharray:none;stroke-opacity:0.66;display:inline"/>
<path d="M 13.96,33.59 L 14.30,33.86" id="p3355" style="fill:none;fill-rule:evenodd;stroke:#d6d2d0;stroke-width:0.40;stroke-linecap:round;stroke-linejoin:miter;stroke-miterlimit:4;stroke-dasharray:none;stroke-opacity:0.54;display:inline"/>
<path d="M 7.20,24.48 L 8.58,26.52" id="p3374" style="fill:none;fill-rule:evenodd;stroke:#cacaca;stroke-width:0.40;stroke-linecap:round;stroke-linejoin:miter;stroke-miterlimit:4;stroke-dasharray:none;stroke-opacity:0.41"/>
<path d="M 25.12,20.59 C 25.10,20.61 25.08,20.63 25.06,20.65 C 25.20,21.12 25.38,21.67 25.40,22.15 C 25.47,23.51 25.17,23.06 23.84,21.87 C 23.75,21.96 23.65,22.06 23.56,22.15 C 23.90,22.51 24.26,22.85 24.59,23.09 C 25.13,23.49 25.07,24.18 24.81,24.96 C 25.34,24.45 25.84,23.92 26.31,23.5 C 26.23,23.27 26.16,23.05 26.06,22.81 C 25.18,20.80 25.16,20.70 25.12,20.59 z" id="p3378" style="fill:#25211a;fill-opacity:0.31;fill-rule:evenodd;stroke:none;display:inline"/>
<path d="M 27.06,18.59 C 26.97,18.68 26.86,18.75 26.78,18.84 C 26.68,19.38 26.58,19.92 26.43,20.40 C 25.56,23.31 26.49,21.78 27.21,21.78 C 27.50,21.78 27.63,21.94 27.71,22.28 C 27.92,22.10 28.09,21.96 28.31,21.78 C 27.98,21.31 27.55,21.30 26.93,20.5 C 25.99,19.26 28.73,20.85 27.5,19.46 C 27.19,19.12 27.08,18.84 27.06,18.59 z" id="p3380" style="fill:#25211a;fill-opacity:0.33;fill-rule:evenodd;stroke:none;display:inline"/>
<path d="M 39.15,6.62 C 39.11,6.64 39.06,6.65 39.03,6.68 C 38.17,7.47 35.00,10.48 33.21,12.12 C 32.44,12.83 30.91,14.48 29.15,16.34 C 34.25,12.86 38.33,9.42 38.81,8.62 C 39.19,7.99 39.17,7.31 39.15,6.62 z" id="p3382" style="fill:#25211a;fill-opacity:0.53;fill-rule:evenodd;stroke:none;display:inline"/>
<path d="M 24.03,21.68 C 23.91,21.80 23.79,21.91 23.68,22.03 C 23.92,22.41 24.11,22.82 23.96,23.21 C 23.71,23.88 23.66,25.08 22.21,23.43 C 22.15,23.49 22.09,23.56 22.03,23.62 C 22.69,24.21 22.98,24.48 22.65,24.93 C 22.13,25.64 21.17,25.43 21.03,26.81 C 20.96,27.43 20.91,28.20 21,28.90 C 21.35,28.50 21.72,28.10 22.15,27.65 C 21.89,27.17 21.78,26.70 22.09,26.31 C 22.97,25.21 24.41,22.42 24.93,24.81 C 25.00,24.74 25.08,24.69 25.15,24.62 C 24.63,23.77 24.09,22.83 24.03,21.68 z" id="p3400" style="fill:#25211a;fill-opacity:0.38;fill-rule:evenodd;stroke:none;display:inline"/>
<path d="M 30.03,15.40 C 29.69,15.76 29.39,16.11 29.03,16.5 C 29.42,17.08 29.73,17.57 29.81,18 C 30.00,18.99 28.35,19.73 28.78,20.59 C 28.85,20.73 28.98,20.92 29.09,21.09 C 29.19,21.00 29.30,20.92 29.40,20.84 C 29.36,20.37 29.44,19.88 29.78,19.37 C 30.82,17.80 30.60,16.66 30.03,15.40 z" id="p3402" style="fill:#25211a;fill-opacity:0.53;fill-rule:evenodd;stroke:none;display:inline"/>
<path d="M 27.75,22.25 C 26.92,22.67 26.14,23.09 25.62,23.43 C 23.91,24.57 18.88,29.19 17.84,29.81 C 16.79,30.42 16.93,30.89 17.12,31.84 C 17.22,32.34 17.57,32.46 18.12,32.53 C 18.12,32.52 18.12,32.50 18.12,32.5 C 18.08,32.31 19.08,31.76 19.65,30.62 C 20.22,29.48 24.00,25.62 26.43,23.40 C 26.79,23.08 27.29,22.64 27.75,22.25 z" id="p3404" style="fill:#917646;fill-opacity:0.37;fill-rule:evenodd;stroke:none;display:inline"/>
<path d="M 18.96,26.12 C 18.63,26.37 18.31,26.62 18,26.84 C 20.76,27.42 18.55,27.99 17.46,28.12 C 17.16,28.16 16.82,28.01 16.5,27.84 C 16.49,27.84 16.47,27.83 16.46,27.84 C 16.31,27.94 16.23,28.00 16.09,28.09 C 17.62,29.41 20.24,27.03 20.25,28.06 C 20.25,28.47 20.53,28.82 20.87,29.09 C 20.88,29.08 20.89,29.07 20.90,29.06 C 20.61,28.69 20.59,28.11 20.68,27.09 C 20.78,26.05 20.22,26.13 18.96,26.12 z" id="p3420" style="fill:#79633a;fill-opacity:0.42;fill-rule:evenodd;stroke:none;display:inline"/>
<path d="M 33.75,11.62 C 33.56,11.79 33.38,11.97 33.21,12.12 C 33.16,12.17 33.03,12.31 32.96,12.37 C 33.74,14.15 33.34,13.64 32.62,15.31 C 32.15,16.39 31.73,17.06 32.31,18.40 C 33.34,17.53 34.16,16.79 34.78,16.25 C 33.28,16.52 33.26,16.01 33.06,15.46 C 32.77,14.66 34.34,13.58 33.90,12.12 C 33.87,12.00 33.79,11.76 33.75,11.62 z" id="p3422" style="fill:#79633a;fill-opacity:0.42;fill-rule:evenodd;stroke:none;display:inline"/>
<path d="M 26.96,18.65 C 26.64,18.99 26.32,19.34 26,19.68 C 27.38,20.07 28.87,19.25 29.62,20.06 C 29.73,20.18 29.79,20.31 29.84,20.46 C 30.15,20.20 30.46,19.95 30.78,19.68 C 30.52,19.35 30.02,19.17 29.18,19.31 C 27.72,19.54 27.12,19.20 26.96,18.65 z" id="p3424" style="fill:#79633a;fill-opacity:0.42;fill-rule:evenodd;stroke:none;display:inline"/>
<path d="M 34.62,10.81 C 34.42,11.00 34.28,11.13 34.09,11.31 C 34.07,12.13 34.48,12.55 35.75,12.62 C 38.22,12.77 36.60,13.51 35.21,14.31 C 33.85,15.10 33.06,15.59 34.25,16.59 C 34.09,16.30 34.09,15.94 34.5,15.59 C 35.13,15.04 35.82,14.86 36.5,14.75 C 36.98,14.30 37.46,13.87 38.09,13.31 C 37.81,13.01 37.39,12.74 36.84,12.56 C 35.56,12.13 34.52,12.86 34.62,10.81 z M 28.81,16.71 C 28.77,16.75 28.75,16.80 28.71,16.84 C 28.95,17.58 29.46,18.39 30.5,18.96 C 30.76,19.11 31.00,19.20 31.25,19.28 C 31.50,19.06 31.72,18.89 31.96,18.68 C 31.75,18.62 31.55,18.53 31.31,18.43 C 29.60,17.71 28.98,17.23 28.81,16.71 z" id="p3426" style="fill:#917646;fill-opacity:0.23;fill-rule:evenodd;stroke:none;display:inline"/>
<path d="M 38.28,7.40 C 37.60,8.04 36.55,9.00 35.43,10.06 C 35.64,11.41 37.66,12.11 38.34,11.59 C 39.09,11.02 39.20,10.77 39.25,12.25 C 39.96,11.61 40.43,11.17 40.93,10.71 C 39.28,10.39 40.70,9.92 40.15,9.15 C 39.53,8.28 39.22,8.60 38.78,8.03 C 38.64,7.85 38.46,7.64 38.28,7.40 z" id="p3448" style="fill:#1d180e;fill-opacity:0.42;fill-rule:evenodd;stroke:none;display:inline"/>
<path d="M 39.43,6.56 C 39.32,6.55 39.24,6.58 39.15,6.62 C 38.86,7.50 39.29,8.07 39.71,8.59 C 40.16,9.13 41.01,9.80 42.09,9.53 C 42.32,8.54 40.46,6.61 39.43,6.56 z" id="p3450" style="fill:#1a1913;fill-opacity:0.84;fill-rule:evenodd;stroke:none;display:inline"/>
<path d="M 34.98,12.76 C 34.98,12.76 37.45,10.44 38.19,9.72 C 38.94,9.00 39.09,8.43 39.31,8.48 C 39.54,8.53 40.04,9.20 40.24,9.27 C 40.44,9.35 36.57,12.66 36.15,13.09 C 35.73,13.51 34.03,13.63 34.98,12.76 z" id="p3454" style="fill:#959e57;fill-opacity:0.23;fill-rule:evenodd;stroke:none;display:inline"/>
<path d="M 39.34,8.40 C 40.46,9.62 41.21,10.00 42.06,9.60" id="p3457" style="fill:none;fill-rule:evenodd;stroke:#9f9450;stroke-width:0.40;stroke-linecap:butt;stroke-linejoin:miter;stroke-miterlimit:4;stroke-dasharray:none;stroke-opacity:0.74;display:inline"/>
<path d="M 13.78,29.31 C 13.59,29.34 13.26,29.31 13.41,29.60 C 13.55,30.42 13.41,30.76 14.65,32.08 C 15.90,33.40 17.09,33.66 18.31,33.18 C 18.27,33.02 18.15,32.51 17.91,32.67 C 16.98,33.25 15.98,32.96 15.00,32.01 C 14.01,31.04 13.90,30.01 13.78,29.31 z" id="p3287" style="fill:#0e0d0a;fill-opacity:1;fill-rule:evenodd;stroke:none;display:inline"/>
<path d="M 3.35,21.91 L 6.50,19.34 C 6.50,19.34 7.57,21.77 8.50,23.05 C 9.43,24.34 11.29,27.41 11.29,27.41 C 11.29,27.41 10.71,28.34 11.36,29.20 C 12.00,30.06 12.62,29.85 13.13,29.46 C 13.45,29.21 13.79,29.41 13.79,29.41 C 13.79,29.41 18.08,27.27 21.94,23.70 C 25.79,20.12 31.44,13.76 33.23,12.12 C 35.01,10.48 38.16,7.47 39.02,6.69 C 39.87,5.90 42.95,8.90 41.95,9.83 C 40.95,10.76 36.73,14.48 35.44,15.69 C 34.16,16.91 28.87,21.20 26.44,23.41 C 24.01,25.63 20.22,29.49 19.65,30.63 C 19.08,31.77 18.09,32.33 18.13,32.51 C 18.18,32.80 18.36,33.20 18.15,33.42 C 17.93,33.63 17.86,33.56 18.36,34.20 C 18.86,34.85 22.44,38.78 24.72,40.28 C 27.01,41.78 27.72,42.49 27.58,42.78 C 27.44,43.06 26.87,42.92 25.15,42.06 C 23.44,41.21 17.36,37.28 16.86,36.85 C 16.36,36.42 15.79,35.85 15.79,35.85 C 15.79,35.85 14.00,36.54 12.23,34.57 C 10.29,32.41 11.63,32.24 10.57,31.13 C 9.42,29.91 8.43,30.49 7.93,29.91 C 7.43,29.34 5.00,26.41 3.35,21.91 z" id="stroke01" style="fill:none;fill-opacity:1;fill-rule:evenodd;stroke:#161103;stroke-width:0.5;stroke-linecap:butt;stroke-linejoin:miter;stroke-miterlimit:4;stroke-dasharray:none;stroke-opacity:1;display:inline"/>
</g>
</svg>
