<?xml version="1.0" encoding="UTF-8" standalone="no"?>
<!DOCTYPE svg PUBLIC "-//W3C//DTD SVG 1.0//EN" "http://www.w3.org/TR/2001/REC-SVG-20010904/DTD/svg10.dtd">
<svg xmlns:svg="http://www.w3.org/2000/svg" xmlns="http://www.w3.org/2000/svg" version="1.0" width="100%" height="100%" viewBox="0 0 48 48" id="_pin01">
<defs id="defs2385"/>
<g id="pin01" style="display:inline">
<path d="M 12.96,1.84 C 12.56,1.87 12.13,1.93 11.62,2.03 C 7.54,2.77 4.69,6.84 3.09,9.56 C 1.48,12.28 2.21,14.64 2.46,15 C 2.89,15.58 4.46,17.09 6.56,17.46 C 8.66,17.83 10.12,16.87 10.12,16.87 C 10.12,16.87 14.87,22.61 16.56,24.75 C 15.82,26.85 14.53,33.37 18.03,36.62 C 21.53,39.87 27.57,35.94 31.43,32.9 C 35.48,29.13 37.65,24.51 37.03,21.46 C 37.02,20.97 36.87,20.49 36.56,20.06 C 32.6,14.62 24.46,17.24 24.46,17.25 L 17.31,10.43 C 17.31,10.43 18.07,9.11 18.18,8 C 18.38,5.99 17.83,4.74 16.59,3.28 C 16.19,2.81 15.79,1.63 12.96,1.84 z" id="p2482" style="fill:#ce2721;fill-opacity:1;fill-rule:evenodd;stroke:none;marker:none;visibility:visible;display:inline;overflow:visible;enable-background:accumulate"/>
<path d="M 28.12,16.62 C 26.04,16.73 24.46,17.25 24.46,17.25 L 24.18,17 C 23.68,17.57 23.21,18.11 22.87,18.4 C 22.97,18.49 22.83,18.84 21.87,19.87 C 19.68,22.21 17.18,25.34 17.5,23.62 C 17.61,22.98 17.13,23.43 16.4,24.56 C 16.44,24.6 16.52,24.7 16.56,24.75 C 16.29,25.5 15.97,26.83 15.81,28.37 C 17.96,25 20.45,23.13 21.12,22.21 C 21.32,21.84 21.44,21.72 21.25,22.06 C 21.22,22.1 21.15,22.17 21.12,22.21 C 20.68,23.03 19.81,25.13 20.78,26.75 C 22.18,29.09 29.84,22.99 29.84,21.75 C 29.84,20.5 30.46,17.99 27.96,17.68 C 26.71,17.53 28.23,17.07 30.4,16.71 C 29.6,16.62 28.84,16.58 28.12,16.62 z M 22.87,18.4 C 22.75,18.29 22.23,18.62 22.5,18.62 C 22.58,18.62 22.72,18.53 22.87,18.4 z" id="p3273" style="fill:#eccac9;fill-opacity:0.31;fill-rule:evenodd;stroke:none;display:inline"/>
<path d="M 28.12,16.62 C 26.04,16.73 24.46,17.25 24.46,17.25 L 24.18,17 C 23.68,17.57 23.21,18.11 22.87,18.4 C 22.97,18.49 22.83,18.84 21.87,19.87 C 21.46,20.31 21.03,20.76 20.62,21.21 C 20.54,21.67 20.56,22.16 20.68,22.68 C 20.83,22.52 21.03,22.34 21.12,22.21 C 21.01,22.41 20.87,22.67 20.75,23 C 20.88,23.44 21.11,23.91 21.4,24.43 C 22.09,25.66 23.38,26.13 24.9,26.18 C 27.32,24.79 29.84,22.46 29.84,21.75 C 29.84,20.5 30.46,17.99 27.96,17.68 C 26.71,17.53 28.23,17.07 30.4,16.71 C 29.6,16.62 28.84,16.58 28.12,16.62 z M 22.87,18.4 C 22.75,18.29 22.23,18.62 22.5,18.62 C 22.58,18.62 22.72,18.53 22.87,18.4 z" id="p3297" style="fill:#f9eded;fill-opacity:0.2;fill-rule:evenodd;stroke:none;display:inline"/>
<path d="M 22,20.43 C 21.73,20.59 20.4,22.49 19.4,23.5 C 18.63,24.27 17.16,25.28 15.84,28.06 C 15.5,30.85 15.7,34.45 18.03,36.62 C 18.51,37.07 19.06,37.36 19.62,37.56 C 21.72,33.82 25.46,26.54 23.37,25.5 C 20.55,24.08 21.94,20.94 22.03,20.5 C 22.04,20.44 22.03,20.41 22,20.43 z" id="p3332" style="fill:#fecccc;fill-opacity:0.17;fill-rule:evenodd;stroke:none;display:inline"/>
<path d="M 18.52,22.42 C 18.52,22.42 17.7,25.78 19.01,26.68 C 20.32,27.58 23.52,23.65 23.52,23.65 C 23.52,23.65 22.21,19.55 21.31,20.21 C 20.41,20.86 18.52,22.42 18.52,22.42 z" id="p3338" style="fill:#ce2721;fill-opacity:0.45;fill-rule:evenodd;stroke:none;display:inline"/>
<path d="M 32.68,18.21 C 28.45,18.23 22.65,22.06 19.31,27.18 C 17.08,30.6 16.44,33.77 17.34,35.81 C 17.38,35.86 17.39,35.92 17.43,35.96 C 17.62,36.19 17.81,36.42 18.03,36.62 C 21.53,39.87 27.57,35.94 31.43,32.9 C 32.95,31.49 34.21,29.96 35.15,28.43 C 35.43,27.99 35.68,27.53 35.9,27.09 C 35.93,27.02 35.96,26.97 36,26.9 C 36.03,26.84 36.03,26.78 36.06,26.71 C 36.26,26.28 36.44,25.86 36.59,25.43 C 36.62,25.35 36.66,25.27 36.68,25.18 C 36.73,25.02 36.77,24.87 36.81,24.71 C 36.92,24.27 37.01,23.85 37.06,23.43 C 37.22,22.03 37,20.8 36.4,19.9 C 36.28,19.72 36.14,19.56 36,19.4 C 35.4,18.78 34.56,18.38 33.5,18.25 C 33.23,18.21 32.96,18.21 32.68,18.21 z" id="p3271" style="fill:#882c2d;fill-opacity:1;fill-rule:evenodd;stroke:none;marker:none;visibility:visible;display:inline;overflow:visible;enable-background:accumulate"/>
<path d="M 11.87,11.43 C 11.4,10.65 14.21,9.09 14.84,9.87 C 15.46,10.65 22.81,17.84 22.81,17.84 C 22.81,17.84 20.04,20.8 19.68,20.34 C 18.92,19.36 11.56,10.96 11.87,11.43 z" id="p3277" style="fill:#eccac9;fill-opacity:0.43;fill-rule:evenodd;stroke:none;display:inline"/>
<path d="M 10.5,13.21 C 10.46,13.31 10.78,13.78 11.4,14.4 C 12.65,15.65 11.4,16.12 10.78,15.34 C 10.32,14.76 9.86,14.81 9.9,17 C 10.03,16.93 10.12,16.87 10.12,16.87 C 10.12,16.87 14.68,22.37 16.43,24.59 C 17.4,22.74 18.22,21.61 17.81,21.28 C 17.03,20.65 13.28,15.96 11.71,14.25 C 10.93,13.39 10.53,13.12 10.5,13.21 z" id="p3280" style="fill:#da5752;fill-opacity:0.43;fill-rule:evenodd;stroke:none;display:inline"/>
<path d="M 28.75,31.78 C 22.73,34.29 17.88,34.12 20.89,30.44 C 23.9,26.77 33.82,20.4 32.92,26.1 C 32.42,29.27 28.58,31.61 28.58,31.61 L 28.75,31.78 z" id="p3294" style="fill:#2b100f;fill-opacity:0.17;fill-rule:evenodd;stroke:none;display:inline"/>
<path d="M 13.9,1.81 C 13.62,1.79 13.32,1.81 12.96,1.84 C 12.56,1.87 12.13,1.93 11.62,2.03 C 9.18,2.47 7.21,4.11 5.65,5.93 L 7.03,7.37 C 7.03,7.37 5.96,8.28 4.97,9.91 C 4.34,10.95 4,13.4 4,13.4 L 2.21,11.78 C 1.87,13.46 2.28,14.74 2.46,15 C 2.89,15.58 4.46,17.09 6.56,17.46 C 8.66,17.83 10.12,16.87 10.12,16.87 C 10.12,16.87 14.87,22.61 16.56,24.75 C 16.55,24.77 16.54,24.81 16.53,24.84 C 18.06,22.55 19.06,21.25 19.06,21.25 C 19.06,21.25 11.69,14.07 11.03,12.9 C 10.36,11.73 14.21,8.87 15.21,9.87 C 16.22,10.87 23.21,18.25 23.21,18.25 L 24.46,17.25 L 17.31,10.43 C 17.31,10.43 18.07,9.11 18.18,8 C 18.38,5.99 17.83,4.74 16.59,3.28 C 16.24,2.87 15.88,1.9 13.9,1.81 z" id="p3300" style="fill:#230000;fill-opacity:0.25;fill-rule:evenodd;stroke:none;display:inline"/>
<path d="M 11.5,2.06 C 8.9,2.58 6.83,4.45 5.25,6.43 C 5.86,7.28 6.33,7.62 6.84,7.37 C 7.84,6.87 9.69,4.86 11.03,4.53 C 11.68,4.36 11.74,3.25 11.5,2.06 z" id="p3303" style="fill:#f89e9e;fill-opacity:0.43;fill-rule:evenodd;stroke:none;display:inline"/>
<path d="M 10.4,10.48 C 11.89,11.05 20.36,19.63 20.36,19.63 C 20.36,19.63 18.07,21.8 17.72,22.26 C 17.38,22.72 16.58,21.8 15.89,21.11 C 15.21,20.43 8.92,14.02 8.92,14.02 C 8.92,14.02 5.83,12.31 5.6,11.05 C 5.37,9.79 8.8,6.7 9.6,6.59 C 10.4,6.47 11.78,9.56 11.78,9.56 C 11.78,9.56 10.75,10.02 10.4,10.48 z" id="p3411" style="fill:#211111;fill-opacity:0.16;fill-rule:evenodd;stroke:none;display:inline"/>
<path d="M 2.18,12.09 C 1.94,13.62 2.29,14.76 2.46,15 C 2.75,15.39 3.59,16.2 4.75,16.81 C 4.26,15.4 3.22,13.75 2.18,12.09 z" id="p3306" style="fill:#f89e9e;fill-opacity:0.33;fill-rule:evenodd;stroke:none;display:inline"/>
<path d="M 31.85,27.8 C 29.01,32.16 24.71,35.70 22.25,35.70 C 19.78,35.70 20.08,32.16 22.92,27.8 C 25.76,23.43 30.06,19.89 32.53,19.89 C 35.00,19.89 34.69,23.43 31.85,27.8 L 31.85,27.8 z" id="p3321" style="fill:#420404;fill-opacity:0.17;fill-rule:evenodd;stroke:none;marker:none;visibility:visible;display:inline;overflow:visible;enable-background:accumulate"/>
<path d="M 31.14,29.19 C 27.69,33.07 22.81,35.45 20.25,34.48 C 17.68,33.52 18.40,29.59 21.85,25.70 C 25.30,21.82 30.18,19.45 32.74,20.41 C 35.31,21.37 34.59,25.30 31.14,29.19 L 31.14,29.19 z" id="p3323" style="fill:#850606;fill-opacity:0.17;fill-rule:evenodd;stroke:none;marker:none;visibility:visible;display:inline;overflow:visible;enable-background:accumulate"/>
<path d="M 31.93,26.28 C 27.91,29.55 22.75,31.61 20.41,30.87 C 18.07,30.13 19.43,26.87 23.44,23.60 C 27.46,20.32 32.62,18.27 34.96,19.01 C 37.30,19.75 35.95,23.00 31.93,26.28 L 31.93,26.28 z" id="p3325" style="fill:#faabab;fill-opacity:0.07;fill-rule:evenodd;stroke:none;marker:none;visibility:visible;display:inline;overflow:visible;enable-background:accumulate"/>
<path d="M 22.96,22.9 C 22.21,23.59 21.51,24.35 20.84,25.15 L 25.75,29.9 C 25.92,30.13 28.59,28.89 28.25,28.15 C 27.9,27.41 24.6,24.82 23.53,23.68 C 23.26,23.4 23.07,23.12 22.96,22.9 z" id="p3341" style="fill:#6b0c0c;fill-opacity:0.26;fill-rule:evenodd;stroke:none;display:inline"/>
<path d="M 22.56,25.03 C 24.66,27.19 25.74,27.87 25.62,28.26 C 25.51,28.66 25.11,29.28 25.4,29.34 C 25.68,29.4 26.81,29.45 27.27,29.06 C 27.72,28.66 28.69,27.47 27.78,27.47 C 26.87,27.47 26.7,27.81 26.25,27.41 C 25.79,27.02 23.75,24.86 23.41,24.52 C 23.07,24.18 22.39,24.86 22.56,25.03 z" id="p3344" style="fill:#2a0a0a;fill-opacity:0.17;fill-rule:evenodd;stroke:none;display:inline"/>
<path d="M 13.18,13.84 L 18.12,19.44" id="p3403" style="fill:none;fill-rule:evenodd;stroke:#a41e14;stroke-width:1.78;stroke-linecap:round;stroke-linejoin:miter;stroke-miterlimit:4;stroke-dasharray:none;stroke-opacity:0.4"/>
<path d="M 16.1,2.86 C 16.66,4.09 17.1,5.91 17.07,6.37 C 16.94,8.69 14.64,8.19 15.56,8.65 C 16.22,8.98 16.66,9.66 17.37,10.28 C 17.49,10.07 18.08,9.01 18.18,8 C 18.35,6.33 16.94,4.04 16.1,2.86 z" id="p3405" style="fill:#c79090;fill-opacity:0.22;fill-rule:evenodd;stroke:none;display:inline"/>
<path d="M 12.92,8.65 L 11.89,5.21 C 11.89,5.21 6.97,7.62 6.06,9.45 C 5.14,11.28 4.8,14.82 5.26,15.28 C 5.71,15.74 8.8,14.71 8.8,14.71 C 8.8,14.71 8.57,12.42 9.6,11.16 C 10.63,9.9 12.46,8.76 12.92,8.65 z" id="p3408" style="fill:#7f1814;fill-opacity:0.62;fill-rule:evenodd;stroke:none;display:inline"/>
<path d="M 10.75,10.36 C 11.78,9.56 12.69,9.1 12.69,9.1" id="p3414" style="fill:none;fill-rule:evenodd;stroke:#e68b8b;stroke-width:0.69;stroke-linecap:round;stroke-linejoin:miter;stroke-miterlimit:4;stroke-dasharray:none;stroke-opacity:0.35;display:inline"/>
<path d="M 13.9,1.81 C 13.62,1.79 13.32,1.81 12.96,1.84 C 12.56,1.87 12.13,1.93 11.62,2.03 C 11.06,2.13 10.51,2.28 10,2.5 C 10.82,3.37 11.3,3.82 11.43,4 C 11.82,3.83 12.42,3.65 13.03,3.65 C 14.27,3.65 15.52,3.74 16,4.12 C 16.3,4.37 14.9,2.96 14.25,1.84 C 14.13,1.83 14.03,1.81 13.9,1.81 z M 11.4,4.03 C 11.02,4.19 10.88,4.34 11.21,4.25 C 11.45,4.18 11.52,4.15 11.43,4.03 C 11.42,4.03 11.41,4.02 11.4,4.03 z" id="p3424" style="fill:#dd2c26;fill-opacity:0.63;fill-rule:evenodd;stroke:none;display:inline"/>
<path d="M 26.51,28.28 C 25.4,29.32 25.8,29.54 25.8,29.54 C 25.8,29.54 35.81,39.8 36.82,40.85 C 37.82,41.91 42.18,45.04 42.4,44.85 C 42.63,44.66 39.08,39.35 38.31,38.62 C 37.53,37.89 28.31,28.33 27.88,27.91 C 27.44,27.5 26.8,27.98 26.51,28.28 z" id="p3262" style="fill:#fcfefb;fill-opacity:1;fill-rule:evenodd;stroke:none;display:inline"/>
<path d="M 16.28,25.85 C 17.24,22.15 22.46,17.43 25.93,16.95" id="p3330" style="fill:none;fill-rule:evenodd;stroke:#e46157;stroke-width:0.40;stroke-linecap:butt;stroke-linejoin:miter;stroke-miterlimit:4;stroke-dasharray:none;stroke-opacity:0.76"/>
<path d="M 36.23,19.73 C 36.11,19.55 35.97,19.38 35.82,19.23 C 35.22,18.61 34.39,18.2 33.32,18.07 C 33.05,18.04 32.79,18.04 32.51,18.04 C 28.28,18.06 22.48,21.89 19.13,27.01 C 16.9,30.42 16.27,33.6 17.16,35.63 C 17.2,35.68 17.22,35.74 17.26,35.79 C 17.44,36.01 17.63,36.24 17.85,36.44" id="p3327" style="fill:none;fill-opacity:1;fill-rule:evenodd;stroke:#e06c63;stroke-width:0.40;stroke-linecap:butt;stroke-linejoin:miter;marker:none;stroke-miterlimit:4;stroke-dasharray:none;stroke-dashoffset:0;stroke-opacity:0.81;visibility:visible;display:inline;overflow:visible;enable-background:accumulate"/>
<path d="M 27.53,27.75 C 27.15,27.72 26.72,28.06 26.5,28.28 C 25.39,29.31 25.81,29.53 25.81,29.53 C 25.81,29.53 27.94,31.72 29.43,33.25 C 30.11,32.96 31.06,32.59 32.06,32.21 C 30.11,30.2 28.05,28.07 27.87,27.9 C 27.76,27.8 27.65,27.75 27.53,27.75 z" id="p3347" style="fill:#591616;fill-opacity:0.65;fill-rule:evenodd;stroke:none;display:inline"/>
<path d="M 26.18,28.62 C 25.56,29.33 25.81,29.53 25.81,29.53 C 25.81,29.53 35.8,39.78 36.81,40.84 C 37.78,41.86 41.89,44.84 42.34,44.84 C 41.82,44.34 37.59,40.25 36.84,39.56 C 36.04,38.82 33.05,35.75 31.81,34.62 C 30.69,33.61 27.04,29.58 26.18,28.62 z" id="p3351" style="fill:#5b3535;fill-opacity:0.6;fill-rule:evenodd;stroke:none;display:inline"/>
<path d="M 27.53,27.75 C 27.45,27.74 27.11,28.03 27.04,28.05 C 27.63,28.66 37.16,38.35 37.49,38.68 C 37.81,39 41.92,44.05 42.37,44.65 C 41.99,43.69 39.01,39.28 38.31,38.62 C 37.53,37.89 28.3,28.32 27.87,27.9 C 27.76,27.8 27.65,27.75 27.53,27.75 z" id="p3355" style="fill:#160d0d;fill-opacity:0.73;fill-rule:evenodd;stroke:none;display:inline"/>
<path d="M 26.33,28.46 L 28.85,31.04" id="p3359" style="fill:none;fill-rule:evenodd;stroke:#2b0303;stroke-width:1.20;stroke-linecap:butt;stroke-linejoin:miter;stroke-miterlimit:4;stroke-dasharray:none;stroke-opacity:0.77;display:inline"/>
<path d="M 28.05,30.47 L 29.58,32.06" id="p3374" style="fill:none;fill-rule:evenodd;stroke:#5f0606;stroke-width:1.20;stroke-linecap:round;stroke-linejoin:miter;stroke-miterlimit:4;stroke-dasharray:none;stroke-opacity:0.73;display:inline"/>
<path d="M 27.53,27.75 C 27.15,27.72 26.72,28.06 26.5,28.28 C 25.39,29.31 25.81,29.53 25.81,29.53 C 25.81,29.53 27.53,31.32 28.4,32.21 C 28.67,30.86 29.2,30.18 30.21,30.34 C 29.39,29.49 27.97,28 27.87,27.9 C 27.76,27.8 27.65,27.75 27.53,27.75 z" id="p3378" style="fill:#2a0a0a;fill-opacity:0.47;fill-rule:evenodd;stroke:none;display:inline"/>
<path d="M 30.13,31.85 L 31.93,33.72" id="p3382" style="fill:none;fill-rule:evenodd;stroke:#ebebeb;stroke-width:1px;stroke-linecap:round;stroke-linejoin:miter;stroke-opacity:0.57;display:inline"/>
<path d="M 25.8,29.54 C 25.8,29.54 35.81,39.8 36.82,40.85 C 37.82,41.91 42.18,45.04 42.4,44.85 C 42.63,44.66 39.08,39.35 38.31,38.62 C 37.53,37.89 28.31,28.33 27.88,27.91" id="p3394" style="fill:none;fill-opacity:1;fill-rule:evenodd;stroke:#161616;stroke-width:0.40;stroke-linecap:round;stroke-linejoin:miter;stroke-miterlimit:4;stroke-dasharray:none;stroke-opacity:1;display:inline"/>
<path d="M 10.22,2.57 C 7.45,3.73 4.07,7.17 3.09,9.56 C 1.73,12.87 2.05,14.61 2.85,15.38 C 3.37,15.88 4.46,17.09 6.56,17.46 C 8.66,17.83 10.12,16.87 10.12,16.87 C 10.12,16.87 14.87,22.61 16.56,24.75 C 15.82,26.85 14.53,33.37 18.03,36.62 C 21.14,39.51 26.28,36.72 30.09,33.93 C 33.09,37.01 36.19,40.19 36.81,40.84 C 37.81,41.89 42.18,45.03 42.4,44.84 C 42.63,44.65 39.09,39.35 38.31,38.62 C 37.85,38.19 34.88,35.12 32.09,32.25 C 35.7,28.6 37.62,24.34 37.03,21.46 C 37.02,20.97 36.87,20.49 36.56,20.06 C 32.6,14.62 24.46,17.24 24.46,17.25 L 17.31,10.43 C 17.32,10.46 18.1,8.57 18.08,7.24 C 18.06,5.39 16.96,3.59 15.85,2.62 C 14.78,1.66 12.96,1.43 10.22,2.57 z" id="stroke01" style="fill:none;fill-opacity:1;fill-rule:evenodd;stroke:#000000;stroke-width:0.5;stroke-linecap:butt;stroke-linejoin:bevel;stroke-miterlimit:4;stroke-dasharray:none;stroke-opacity:1;display:inline"/>
<path d="M 25.66,29.92 C 25.59,29.63 25.71,28.99 26.41,28.39 C 27.1,27.8 27.61,27.66 27.95,27.74" id="p3399" style="fill:none;fill-rule:evenodd;stroke:#3e0c0c;stroke-width:0.40;stroke-linecap:round;stroke-linejoin:miter;stroke-miterlimit:4;stroke-dasharray:none;stroke-opacity:1;display:inline"/>
</g>
</svg>
