<?xml version="1.0" encoding="UTF-8" standalone="no"?>
<!DOCTYPE svg PUBLIC "-//W3C//DTD SVG 1.0//EN" "http://www.w3.org/TR/2001/REC-SVG-20010904/DTD/svg10.dtd">
<svg xmlns:svg="http://www.w3.org/2000/svg" xmlns="http://www.w3.org/2000/svg" version="1.0" width="100%" height="100%" viewBox="0 0 48 48" id="_ruler01">
<defs id="defs2385"/>
<g id="ruler01" style="display:inline">
<path d="M 3.71,6.64 C 3.95,6.04 8.51,2.20 8.75,2.32 C 8.99,2.44 44.35,40.68 44.35,41.28 C 44.35,41.88 40.06,45.77 39.70,45.65 C 39.34,45.53 3.95,7.36 3.71,6.64 z" id="p2803" style="fill:#c77527;fill-opacity:1;fill-rule:evenodd;stroke:none;"/>
<path d="M 8.75,2.31 C 8.66,2.26 7.94,2.83 7.12,3.5 L 43.06,42.84 C 43.76,42.13 44.34,41.49 44.34,41.28 C 44.34,40.68 8.98,2.43 8.75,2.31 z" id="p4059" style="fill:#d78422;fill-opacity:1;fill-rule:evenodd;stroke:none;display:inline"/>
<path d="M 5.65,4.71 C 4.68,5.56 3.81,6.40 3.71,6.65 C 3.95,7.37 39.32,45.53 39.68,45.65 C 39.84,45.70 40.78,44.95 41.75,44.09 L 5.65,4.71 z" id="p4057" style="fill:#8a460c;fill-opacity:1;fill-rule:evenodd;stroke:none;display:inline"/>
<path d="M 24.90,19.75 C 23.61,20.57 22.55,22.73 22.53,27.34 C 26.83,31.99 31.10,36.57 34.28,39.96 C 35.44,37.77 37.06,35.79 38.18,34.28 C 34.44,30.14 29.72,24.98 24.90,19.75 z" id="p4069" style="fill:#f8b692;fill-opacity:0.11;fill-rule:evenodd;stroke:none;display:inline"/>
<path d="M 8.75,2.31 C 8.51,2.19 3.95,6.05 3.71,6.65 C 3.77,6.81 5.72,9.01 8.5,12.06 C 9.02,9.06 9.92,6.54 11,4.71 C 10.35,4.02 8.77,2.32 8.75,2.31 z" id="p4072" style="fill:#582205;fill-opacity:0.11;fill-rule:evenodd;stroke:none;display:inline"/>
<path d="M 40.43,36.78 C 40.17,39.04 39.57,41.33 38.28,44.18 C 39.05,45.00 39.64,45.64 39.68,45.65 C 40.04,45.77 44.34,41.88 44.34,41.28 C 44.34,41.16 42.69,39.29 40.43,36.78 z" id="p4075" style="fill:#993d0b;fill-opacity:0.11;fill-rule:evenodd;stroke:none;display:inline"/>
<path d="M 8.12,2.71 C 8.02,2.79 7.92,2.84 7.81,2.93 C 9.66,6.58 12.07,9.96 13.31,13.90 C 10.56,10.98 8.26,7.72 5.93,4.46 C 5.87,4.51 5.83,4.57 5.78,4.62 C 6.39,5.58 6.72,6.40 5.62,5.03 C 5.58,4.96 5.54,4.90 5.5,4.84 C 5.39,4.94 5.29,5.03 5.18,5.12 C 5.03,5.26 4.85,5.40 4.71,5.53 C 5.14,6.12 5.65,6.71 6.12,7.28 C 6.00,7.07 5.92,6.85 5.87,6.65 C 6.34,7.19 6.70,7.80 7.03,8.43 C 8.09,9.65 9.40,10.83 8.75,11.43 C 8.02,10.53 7.56,9.46 7.03,8.43 C 6.93,8.32 6.84,8.20 6.75,8.09 C 7.11,8.71 7.27,9.38 6.96,10.12 C 5.90,9.32 4.89,7.35 4.03,6.25 C 3.92,6.36 3.86,6.45 3.81,6.53 C 4.18,7.04 4.55,7.54 4.90,8.06 C 5.70,8.97 6.99,10.40 8.46,12.03 C 8.95,12.10 9.06,12.37 9,12.59 C 9.26,12.88 9.50,13.16 9.78,13.46 C 9.84,13.44 9.90,13.44 9.96,13.43 C 9.77,13.31 9.53,13.05 9.31,12.56 C 10.53,12.59 10.64,13.30 10.34,13.46 C 11.42,13.80 12.50,15.81 11.81,15.65 C 12.37,16.27 13.05,17.00 13.65,17.65 C 14.25,17.75 14.12,17.97 13.93,17.96 C 15.19,19.34 16.41,20.67 17.78,22.15 C 17.81,22.18 17.84,22.22 17.87,22.25 C 19.78,23.90 21.79,25.45 23.34,27.46 C 22.78,27.18 22.25,26.86 21.75,26.5 C 22.54,27.35 23.15,27.99 23.93,28.84 C 25.40,29.84 26.69,31.02 27.56,32.62 C 27.47,32.56 27.40,32.49 27.31,32.43 C 27.92,33.09 28.47,33.74 29.06,34.37 C 29.07,34.39 29.11,34.39 29.12,34.40 C 29.29,34.49 29.45,34.62 29.56,34.75 C 29.41,34.63 29.27,34.52 29.12,34.40 C 29.63,34.95 30.17,35.54 30.65,36.06 C 31.89,36.93 32.94,37.99 33.68,39.31 C 36.04,41.83 37.60,43.50 38.59,44.53 C 39.11,44.81 39.61,45.12 40.12,45.43 C 40.25,45.34 40.41,45.23 40.59,45.09 C 40.37,44.96 40.16,44.83 39.93,44.71 C 38.13,43.41 36.46,41.81 35.56,39.75 C 37.15,41.71 39.20,43.11 41.28,44.5 C 41.85,44.01 42.38,43.51 42.93,42.96 C 40.96,40.92 39.04,38.83 37.37,36.53 C 39.41,38.48 42.19,39.72 43.81,42.09 C 43.92,41.97 44.01,41.85 44.09,41.75 C 42.85,40.54 41.73,39.21 40.81,37.75 C 41.11,37.85 41.37,37.98 41.65,38.12 C 41.49,37.94 41.29,37.72 41.12,37.53 C 40.65,37.11 40.25,36.65 39.87,36.15 C 39.79,36.06 39.76,35.99 39.68,35.90 C 39.36,35.54 39.16,35.35 38.81,34.96 C 39.00,35.30 39.17,35.64 39.31,36.03 C 36.13,36.08 34.85,32.71 33.03,30.71 C 32.49,30.16 31.90,29.68 31.31,29.18 C 32.98,30.38 35.00,31.33 36.65,32.62 C 36.30,32.23 35.87,31.72 35.5,31.31 C 31.44,28.48 28.00,24.88 24.75,21.18 C 24.60,21.27 24.58,21.47 24.75,21.87 C 23.51,21.53 21.21,18.04 23.93,19.90 C 24.54,20.29 25.92,21.49 26.87,21.87 C 26.29,21.24 25.86,20.75 25.28,20.12 C 23.32,18.76 21.33,17.46 19.53,15.90 C 21.11,16.57 22.50,17.53 23.84,18.59 C 22.94,17.62 22.21,16.81 21.34,15.87 C 21.33,15.86 21.31,15.88 21.31,15.87 C 19.41,14.33 18.16,11.78 15.65,11.15 C 15.64,11.16 15.64,11.17 15.62,11.18 C 18.01,12.75 19.92,14.92 22,16.87 C 19.40,15.63 16.67,14.02 15.34,11.37 C 14.09,12.58 18.60,15.03 17.34,15.68 C 14.62,13.41 12.91,10.20 10.78,7.43 C 9.82,5.89 9.00,4.30 8.12,2.71 z M 15.34,11.37 C 15.41,11.30 15.50,11.25 15.62,11.18 C 15.43,11.06 15.25,10.92 15.06,10.81 C 15.14,11.01 15.24,11.18 15.34,11.37 z M 24.75,21.18 C 24.77,21.17 24.80,21.16 24.84,21.15 C 24.69,21.03 24.55,20.90 24.40,20.78 C 24.52,20.91 24.63,21.05 24.75,21.18 z M 24.84,21.15 C 27.00,22.89 29.12,24.67 31.15,26.56 C 30.22,25.54 29.46,24.70 28.5,23.65 C 28.07,23.29 27.63,22.93 27.18,22.59 C 27.00,22.10 25.42,21.03 24.84,21.15 z M 10.34,13.46 C 10.21,13.42 10.09,13.42 9.96,13.43 C 10.12,13.53 10.24,13.52 10.34,13.46 z M 5.31,5.31 C 5.58,5.67 5.83,6.06 6.09,6.43 C 7.27,7.79 8.97,8.93 9.87,10.40 C 11.20,12.39 9.56,11.66 8.87,10.40 C 7.85,9.15 7.00,7.77 6.09,6.43 C 5.78,6.07 5.52,5.71 5.31,5.31 z M 6.15,7.31 C 6.30,7.56 6.50,7.80 6.71,8.06 C 6.56,7.80 6.36,7.56 6.15,7.31 z M 11.59,9.21 C 12.89,11.54 15.32,13.07 16.28,15.62 C 15.90,15.54 15.55,15.44 15.25,15.28 C 17.91,16.51 19.90,19.02 20.93,21.75 C 17.49,21.03 15.62,17.64 14.03,14.84 C 14.44,14.96 14.83,15.10 15.21,15.28 C 13.13,14.13 12.79,11.12 11.59,9.21 z M 10.68,11.31 C 12.09,12.47 11.45,12.99 10.68,11.31 z M 11.40,13.56 C 12.66,13.82 12.40,15.59 11.40,13.56 z M 12.59,14.12 C 13.72,14.46 13.37,16.41 12.59,14.12 z M 13.46,14.56 C 14.28,15.16 13.37,15.16 13.46,14.56 z M 10.18,14.96 C 10.40,15.31 10.38,15.27 10.18,14.96 z M 18.75,15.71 C 20.02,16.12 21.98,18.92 19.62,16.93 C 19.27,16.58 18.95,16.17 18.75,15.71 z M 13.12,16 C 13.56,16.16 14.45,18.49 13.12,16 z M 18.34,16.75 C 19.58,16.71 19.57,19.47 18.62,17.40 L 18.34,17.09 L 18.09,16.78 C 18.18,16.75 18.26,16.75 18.34,16.75 z M 14.18,16.90 C 15.30,17.13 17.22,20.22 15.03,18.28 C 14.65,17.89 14.34,17.42 14.18,16.90 z M 19.87,17.75 C 23.38,21.22 27.08,24.50 30.62,27.93 C 31.17,28.37 31.71,28.85 32.15,29.40 C 31.65,28.90 31.13,28.42 30.62,27.93 C 29.99,27.43 29.33,26.97 28.65,26.53 C 28.68,26.72 28.50,26.74 28.25,26.28 C 26.79,25.31 25.38,24.31 24.46,22.78 C 24.17,22.28 23.88,22.12 23.62,22.12 C 24.01,22.78 23.84,23.38 23.31,22.18 C 22.88,22.39 22.54,22.93 22.31,22.90 C 20.51,21.80 20.87,19.36 19.87,17.75 z M 23.31,22.18 C 23.41,22.13 23.51,22.12 23.62,22.12 C 23.47,21.86 23.24,21.62 22.90,21.46 C 23.01,21.66 23.11,21.84 23.21,22.03 C 23.24,22.10 23.28,22.12 23.31,22.18 z M 28.25,26.28 C 28.38,26.36 28.52,26.44 28.65,26.53 C 28.62,26.36 28.44,26.07 28.03,25.81 C 28.11,26.00 28.18,26.15 28.25,26.28 z M 15.12,18.71 C 16.10,18.79 15.59,19.81 15.12,18.71 z M 16,20.09 C 17.40,20.18 19.18,22.57 19.15,22.93 C 18.06,22.03 17.05,21.03 16,20.09 z M 18.31,21.56 C 19.39,21.78 18.99,22.77 18.31,21.56 z M 20.31,21.96 C 21.54,22.05 21.76,25.32 20.46,23 C 20.21,22.71 19.97,22.43 19.71,22.15 C 19.93,22.01 20.13,21.95 20.31,21.96 z M 22.03,23.25 C 23.13,24.14 22.98,25.59 22.28,23.71 C 22.19,23.55 22.11,23.41 22.03,23.25 z M 22.62,23.53 C 23.40,23.62 24.66,24.51 25.21,25.43 C 25.05,25.16 24.88,24.89 24.71,24.62 C 25.87,25.23 27.91,27.08 26.93,28.31 C 26.37,27.45 25.85,26.57 25.34,25.68 C 25.60,26.24 25.57,26.77 25,27.12 C 24.06,26.02 23.31,24.79 22.62,23.53 z M 21.34,24.5 C 22.81,25.54 21.81,25.74 21.34,24.5 z M 26.28,25.65 C 29.09,27.23 31.01,29.91 32.87,32.46 C 32.62,32.49 32.37,32.51 32.15,32.5 C 33.43,33.25 34.21,35.39 32.28,33.31 C 31.87,32.97 31.47,32.64 31.06,32.31 C 31.13,32.29 31.20,32.28 31.28,32.28 C 28.69,31.39 27.92,27.63 26.28,25.65 z M 31.28,32.28 C 31.54,32.37 31.81,32.47 32.12,32.5 C 31.86,32.34 31.56,32.26 31.28,32.28 z M 23.46,26.5 C 24.61,26.95 25.96,29.43 24.15,27.40 C 23.90,27.12 23.65,26.83 23.46,26.5 z M 23.65,27.34 C 24.40,27.40 24.78,28.91 23.93,27.84 L 23.65,27.34 z M 29.87,28.18 C 31.34,28.72 30.92,30.21 30.06,28.43 L 29.87,28.18 z M 26.5,29 C 27.05,28.90 26.34,29.64 26.5,29 z M 25.46,29.5 C 26.61,30.28 28.56,31.43 28.37,32.93 C 27.38,31.81 26.47,30.60 25.46,29.5 z M 26.87,30.21 C 27.84,30.61 29.44,32.91 29.28,33 C 28.55,32.01 27.74,31.08 26.87,30.21 z M 32.43,31 C 33.47,31.74 32.86,32.38 32.43,31 z M 29.09,31.31 C 31.17,33.37 33.38,35.34 35.09,37.75 C 32.37,36.38 31.13,33.40 29.09,31.31 z M 30.71,32.43 C 31.89,33.33 35.11,35.68 34.46,36.34 C 33.20,35.05 31.95,33.74 30.71,32.43 z M 33.25,32.59 C 34.51,32.92 33.72,34.28 33.25,32.59 z M 29.68,32.71 C 30.76,33.39 32.05,35.92 30.31,33.65 C 30.08,33.35 29.87,33.04 29.68,32.71 z M 33.90,33.84 C 36.94,35.62 38.23,39.10 40.62,41.53 C 37.56,39.80 35.98,36.50 33.90,33.84 z M 30.37,35.21 C 31.34,35.40 30.42,35.82 30.37,35.21 z M 31.34,35.25 C 32.20,35.35 31.44,35.92 31.34,35.25 z M 36.56,35.34 C 37.53,35.49 40.59,37.65 39,37.62 C 38.13,36.91 37.37,36.10 36.56,35.34 z M 31.28,35.81 C 31.87,35.99 30.93,36.41 31.28,35.81 z M 32.03,36.28 C 33.24,36.32 32.44,37.79 32.03,36.28 z M 33.09,37.40 C 34.55,37.57 36.47,41.32 34.56,40.18 C 33.95,39.27 33.47,38.31 32.81,37.43 C 32.90,37.41 32.99,37.39 33.09,37.40 z M 34.25,37.75 C 35.35,37.58 37.79,40.40 35.46,38.78 C 35.03,38.47 34.60,38.14 34.25,37.75 z M 36.81,38.31 C 38.24,39.22 37.06,40.02 36.81,38.31 z M 35.34,39.06 C 37.05,39.71 40.18,42.27 39.75,43.18 C 38.12,41.98 36.69,40.56 35.34,39.06 z M 40.15,40.46 C 41.33,40.95 42.10,43.30 40.75,41.21 C 40.56,40.95 40.37,40.70 40.15,40.46 z M 39.43,41.71 C 40.20,42.14 42.42,44.73 40.46,43 C 40.07,42.61 39.71,42.19 39.43,41.71 z M 41.62,43.28 C 42.56,43.62 41.65,43.85 41.62,43.28 z" id="p4087" style="fill:#582205;fill-opacity:0.11;fill-rule:evenodd;stroke:none;"/>
<path d="M 5.67,4.73 L 23.24,23.98" id="p4105" style="fill:none;fill-rule:evenodd;stroke:#d88a52;stroke-width:0.2;stroke-linecap:round;stroke-linejoin:miter;stroke-miterlimit:4;stroke-dasharray:none;stroke-opacity:1"/>
<path d="M 5.67,4.77 L 8.78,8.22" id="p4107" style="fill:none;fill-rule:evenodd;stroke:#e5b18b;stroke-width:0.2;stroke-linecap:round;stroke-linejoin:miter;stroke-miterlimit:4;stroke-dasharray:none;stroke-opacity:0.77"/>
<path d="M 26.34,27.33 L 41.71,44.10" id="p4109" style="fill:none;fill-rule:evenodd;stroke:#d8864a;stroke-width:0.2;stroke-linecap:butt;stroke-linejoin:miter;stroke-miterlimit:4;stroke-dasharray:none;stroke-opacity:0.93"/>
<path d="M 30.68,32.11 L 35.84,37.79" id="p4111" style="fill:none;fill-rule:evenodd;stroke:#e3a172;stroke-width:0.2;stroke-linecap:round;stroke-linejoin:miter;stroke-miterlimit:4;stroke-dasharray:none;stroke-opacity:0.93"/>
<path d="M 43.05,42.89 L 29.93,28.46" id="p4113" style="fill:none;fill-rule:evenodd;stroke:#e09246;stroke-width:0.2;stroke-linecap:butt;stroke-linejoin:miter;stroke-miterlimit:4;stroke-dasharray:none;stroke-opacity:0.93"/>
<path d="M 21.29,18.98 L 27.46,25.77" id="p4115" style="fill:none;fill-rule:evenodd;stroke:#eab581;stroke-width:0.30;stroke-linecap:round;stroke-linejoin:miter;stroke-miterlimit:4;stroke-dasharray:none;stroke-opacity:0.43"/>
<path d="M 7.15,3.54 L 12.82,9.75" id="p4117" style="fill:none;fill-rule:evenodd;stroke:#eab581;stroke-width:0.30;stroke-linecap:round;stroke-linejoin:miter;stroke-miterlimit:4;stroke-dasharray:none;stroke-opacity:0.28"/>
<path d="M 25.59,24.40 C 25.59,24.75 25.31,25.03 24.97,25.03 C 24.63,25.03 24.35,24.75 24.35,24.40 C 24.35,24.06 24.63,23.78 24.97,23.78 C 25.31,23.78 25.59,24.06 25.59,24.40 z" id="p4119" style="fill:#576e6c;fill-opacity:1;fill-rule:evenodd;stroke:none;marker:none;visibility:visible;display:inline;overflow:visible;enable-background:accumulate"/>
<path d="M 25.59,24.31 C 25.19,24.47 24.87,24.66 24.62,24.90 C 24.72,24.97 24.84,25.03 24.96,25.03 C 25.31,25.03 25.59,24.74 25.59,24.40 C 25.59,24.37 25.59,24.34 25.59,24.31 z" id="p4126" style="fill:#9bb0ae;fill-opacity:0.52;fill-rule:evenodd;stroke:none;"/>
<path d="M 21.92,26.57 L 23.11,25.52" id="p3581" style="fill:none;fill-rule:evenodd;stroke:#000000;stroke-width:0.2;stroke-linecap:butt;stroke-linejoin:miter;stroke-miterlimit:4;stroke-dasharray:none;stroke-opacity:0.91;display:inline"/>
<path d="M 22.83,27.46 L 23.66,26.73" id="p3583" style="fill:none;fill-rule:evenodd;stroke:#000000;stroke-width:0.2;stroke-linecap:butt;stroke-linejoin:miter;stroke-miterlimit:4;stroke-dasharray:none;stroke-opacity:0.91;display:inline"/>
<path d="M 23.71,28.46 L 24.90,27.41" id="p3637" style="fill:none;fill-rule:evenodd;stroke:#000000;stroke-width:0.2;stroke-linecap:butt;stroke-linejoin:miter;stroke-miterlimit:4;stroke-dasharray:none;stroke-opacity:0.91;display:inline"/>
<path d="M 24.63,29.35 L 25.45,28.62" id="p3643" style="fill:none;fill-rule:evenodd;stroke:#000000;stroke-width:0.2;stroke-linecap:butt;stroke-linejoin:miter;stroke-miterlimit:4;stroke-dasharray:none;stroke-opacity:0.91;display:inline"/>
<path d="M 25.38,30.36 L 26.57,29.30" id="p3651" style="fill:none;fill-rule:evenodd;stroke:#000000;stroke-width:0.2;stroke-linecap:butt;stroke-linejoin:miter;stroke-miterlimit:4;stroke-dasharray:none;stroke-opacity:0.91;display:inline"/>
<path d="M 26.30,31.25 L 27.12,30.51" id="p3657" style="fill:none;fill-rule:evenodd;stroke:#000000;stroke-width:0.2;stroke-linecap:butt;stroke-linejoin:miter;stroke-miterlimit:4;stroke-dasharray:none;stroke-opacity:0.91;display:inline"/>
<path d="M 27.18,32.24 L 28.36,31.19" id="p3665" style="fill:none;fill-rule:evenodd;stroke:#000000;stroke-width:0.2;stroke-linecap:butt;stroke-linejoin:miter;stroke-miterlimit:4;stroke-dasharray:none;stroke-opacity:0.91;display:inline"/>
<path d="M 28.09,33.13 L 28.91,32.40" id="p3671" style="fill:none;fill-rule:evenodd;stroke:#000000;stroke-width:0.2;stroke-linecap:butt;stroke-linejoin:miter;stroke-miterlimit:4;stroke-dasharray:none;stroke-opacity:0.91;display:inline"/>
<path d="M 28.98,34.02 L 30.17,32.97" id="p3801" style="fill:none;fill-rule:evenodd;stroke:#000000;stroke-width:0.2;stroke-linecap:butt;stroke-linejoin:miter;stroke-miterlimit:4;stroke-dasharray:none;stroke-opacity:0.91;display:inline"/>
<path d="M 29.90,34.91 L 30.72,34.18" id="p3803" style="fill:none;fill-rule:evenodd;stroke:#000000;stroke-width:0.2;stroke-linecap:butt;stroke-linejoin:miter;stroke-miterlimit:4;stroke-dasharray:none;stroke-opacity:0.91;display:inline"/>
<path d="M 30.78,35.91 L 31.97,34.86" id="p3805" style="fill:none;fill-rule:evenodd;stroke:#000000;stroke-width:0.2;stroke-linecap:butt;stroke-linejoin:miter;stroke-miterlimit:4;stroke-dasharray:none;stroke-opacity:0.91;display:inline"/>
<path d="M 31.69,36.80 L 32.51,36.07" id="p3807" style="fill:none;fill-rule:evenodd;stroke:#000000;stroke-width:0.2;stroke-linecap:butt;stroke-linejoin:miter;stroke-miterlimit:4;stroke-dasharray:none;stroke-opacity:0.91;display:inline"/>
<path d="M 32.45,37.81 L 33.63,36.76" id="p3809" style="fill:none;fill-rule:evenodd;stroke:#000000;stroke-width:0.2;stroke-linecap:butt;stroke-linejoin:miter;stroke-miterlimit:4;stroke-dasharray:none;stroke-opacity:0.91;display:inline"/>
<path d="M 33.36,38.70 L 34.18,37.96" id="p3811" style="fill:none;fill-rule:evenodd;stroke:#000000;stroke-width:0.2;stroke-linecap:butt;stroke-linejoin:miter;stroke-miterlimit:4;stroke-dasharray:none;stroke-opacity:0.91;display:inline"/>
<path d="M 34.24,39.69 L 35.43,38.64" id="p3813" style="fill:none;fill-rule:evenodd;stroke:#000000;stroke-width:0.2;stroke-linecap:butt;stroke-linejoin:miter;stroke-miterlimit:4;stroke-dasharray:none;stroke-opacity:0.91;display:inline"/>
<path d="M 35.15,40.58 L 35.98,39.85" id="p3815" style="fill:none;fill-rule:evenodd;stroke:#000000;stroke-width:0.2;stroke-linecap:butt;stroke-linejoin:miter;stroke-miterlimit:4;stroke-dasharray:none;stroke-opacity:0.91;display:inline"/>
<path d="M 7.97,11.51 L 9.16,10.46" id="p3817" style="fill:none;fill-rule:evenodd;stroke:#000000;stroke-width:0.2;stroke-linecap:butt;stroke-linejoin:miter;stroke-miterlimit:4;stroke-dasharray:none;stroke-opacity:0.91;display:inline"/>
<path d="M 8.88,12.40 L 9.71,11.66" id="p3819" style="fill:none;fill-rule:evenodd;stroke:#000000;stroke-width:0.2;stroke-linecap:butt;stroke-linejoin:miter;stroke-miterlimit:4;stroke-dasharray:none;stroke-opacity:0.91;display:inline"/>
<path d="M 9.76,13.39 L 10.95,12.34" id="p3821" style="fill:none;fill-rule:evenodd;stroke:#000000;stroke-width:0.2;stroke-linecap:butt;stroke-linejoin:miter;stroke-miterlimit:4;stroke-dasharray:none;stroke-opacity:0.91;display:inline"/>
<path d="M 10.68,14.28 L 11.50,13.55" id="p3823" style="fill:none;fill-rule:evenodd;stroke:#000000;stroke-width:0.2;stroke-linecap:butt;stroke-linejoin:miter;stroke-miterlimit:4;stroke-dasharray:none;stroke-opacity:0.91;display:inline"/>
<path d="M 11.43,15.29 L 12.62,14.24" id="p3825" style="fill:none;fill-rule:evenodd;stroke:#000000;stroke-width:0.2;stroke-linecap:butt;stroke-linejoin:miter;stroke-miterlimit:4;stroke-dasharray:none;stroke-opacity:0.91;display:inline"/>
<path d="M 12.35,16.18 L 13.17,15.45" id="p3827" style="fill:none;fill-rule:evenodd;stroke:#000000;stroke-width:0.2;stroke-linecap:butt;stroke-linejoin:miter;stroke-miterlimit:4;stroke-dasharray:none;stroke-opacity:0.91;display:inline"/>
<path d="M 13.23,17.17 L 14.42,16.12" id="p3829" style="fill:none;fill-rule:evenodd;stroke:#000000;stroke-width:0.2;stroke-linecap:butt;stroke-linejoin:miter;stroke-miterlimit:4;stroke-dasharray:none;stroke-opacity:0.91;display:inline"/>
<path d="M 14.14,18.07 L 14.96,17.33" id="p3831" style="fill:none;fill-rule:evenodd;stroke:#000000;stroke-width:0.2;stroke-linecap:butt;stroke-linejoin:miter;stroke-miterlimit:4;stroke-dasharray:none;stroke-opacity:0.91;display:inline"/>
<path d="M 15.04,18.96 L 16.22,17.91" id="p3833" style="fill:none;fill-rule:evenodd;stroke:#000000;stroke-width:0.2;stroke-linecap:butt;stroke-linejoin:miter;stroke-miterlimit:4;stroke-dasharray:none;stroke-opacity:0.91;display:inline"/>
<path d="M 15.95,19.85 L 16.77,19.11" id="p3835" style="fill:none;fill-rule:evenodd;stroke:#000000;stroke-width:0.2;stroke-linecap:butt;stroke-linejoin:miter;stroke-miterlimit:4;stroke-dasharray:none;stroke-opacity:0.91;display:inline"/>
<path d="M 16.83,20.84 L 18.02,19.79" id="p3837" style="fill:none;fill-rule:evenodd;stroke:#000000;stroke-width:0.2;stroke-linecap:butt;stroke-linejoin:miter;stroke-miterlimit:4;stroke-dasharray:none;stroke-opacity:0.91;display:inline"/>
<path d="M 17.74,21.73 L 18.57,21.00" id="p3839" style="fill:none;fill-rule:evenodd;stroke:#000000;stroke-width:0.2;stroke-linecap:butt;stroke-linejoin:miter;stroke-miterlimit:4;stroke-dasharray:none;stroke-opacity:0.91;display:inline"/>
<path d="M 18.50,22.74 L 19.69,21.69" id="p3841" style="fill:none;fill-rule:evenodd;stroke:#000000;stroke-width:0.2;stroke-linecap:butt;stroke-linejoin:miter;stroke-miterlimit:4;stroke-dasharray:none;stroke-opacity:0.91;display:inline"/>
<path d="M 19.41,23.63 L 20.23,22.90" id="p3843" style="fill:none;fill-rule:evenodd;stroke:#000000;stroke-width:0.2;stroke-linecap:butt;stroke-linejoin:miter;stroke-miterlimit:4;stroke-dasharray:none;stroke-opacity:0.91;display:inline"/>
<path d="M 20.29,24.63 L 21.48,23.58" id="p3845" style="fill:none;fill-rule:evenodd;stroke:#000000;stroke-width:0.2;stroke-linecap:butt;stroke-linejoin:miter;stroke-miterlimit:4;stroke-dasharray:none;stroke-opacity:0.91;display:inline"/>
<path d="M 21.21,25.52 L 22.03,24.78" id="p3847" style="fill:none;fill-rule:evenodd;stroke:#000000;stroke-width:0.2;stroke-linecap:butt;stroke-linejoin:miter;stroke-miterlimit:4;stroke-dasharray:none;stroke-opacity:0.91;display:inline"/>
<path d="M 4.59,7.67 L 5.78,6.62" id="p3881" style="fill:none;fill-rule:evenodd;stroke:#000000;stroke-width:0.2;stroke-linecap:butt;stroke-linejoin:miter;stroke-miterlimit:4;stroke-dasharray:none;stroke-opacity:0.91;display:inline"/>
<path d="M 5.51,8.56 L 6.33,7.82" id="p3883" style="fill:none;fill-rule:evenodd;stroke:#000000;stroke-width:0.2;stroke-linecap:butt;stroke-linejoin:miter;stroke-miterlimit:4;stroke-dasharray:none;stroke-opacity:0.91;display:inline"/>
<path d="M 6.39,9.55 L 7.57,8.50" id="p3885" style="fill:none;fill-rule:evenodd;stroke:#000000;stroke-width:0.2;stroke-linecap:butt;stroke-linejoin:miter;stroke-miterlimit:4;stroke-dasharray:none;stroke-opacity:0.91;display:inline"/>
<path d="M 7.30,10.44 L 8.12,9.71" id="p3887" style="fill:none;fill-rule:evenodd;stroke:#000000;stroke-width:0.2;stroke-linecap:butt;stroke-linejoin:miter;stroke-miterlimit:4;stroke-dasharray:none;stroke-opacity:0.91;display:inline"/>
<path d="M 35.94,41.66 L 37.13,40.61" id="p3889" style="fill:none;fill-rule:evenodd;stroke:#000000;stroke-width:0.2;stroke-linecap:butt;stroke-linejoin:miter;stroke-miterlimit:4;stroke-dasharray:none;stroke-opacity:0.91;display:inline"/>
<path d="M 36.86,42.55 L 37.68,41.82" id="p3891" style="fill:none;fill-rule:evenodd;stroke:#000000;stroke-width:0.2;stroke-linecap:butt;stroke-linejoin:miter;stroke-miterlimit:4;stroke-dasharray:none;stroke-opacity:0.91;display:inline"/>
<path d="M 37.61,43.55 L 38.80,42.50" id="p3893" style="fill:none;fill-rule:evenodd;stroke:#000000;stroke-width:0.2;stroke-linecap:butt;stroke-linejoin:miter;stroke-miterlimit:4;stroke-dasharray:none;stroke-opacity:0.91;display:inline"/>
<path d="M 24.27,21.30 L 25.46,20.24" id="p3899" style="fill:none;fill-rule:evenodd;stroke:#000000;stroke-width:0.2;stroke-linecap:butt;stroke-linejoin:miter;stroke-miterlimit:4;stroke-dasharray:none;stroke-opacity:0.91;display:inline"/>
<path d="M 23.72,20.09 L 24.54,19.35" id="p3901" style="fill:none;fill-rule:evenodd;stroke:#000000;stroke-width:0.2;stroke-linecap:butt;stroke-linejoin:miter;stroke-miterlimit:4;stroke-dasharray:none;stroke-opacity:0.91;display:inline"/>
<path d="M 22.47,19.41 L 23.66,18.36" id="p3903" style="fill:none;fill-rule:evenodd;stroke:#000000;stroke-width:0.2;stroke-linecap:butt;stroke-linejoin:miter;stroke-miterlimit:4;stroke-dasharray:none;stroke-opacity:0.91;display:inline"/>
<path d="M 21.93,18.20 L 22.75,17.47" id="p3905" style="fill:none;fill-rule:evenodd;stroke:#000000;stroke-width:0.2;stroke-linecap:butt;stroke-linejoin:miter;stroke-miterlimit:4;stroke-dasharray:none;stroke-opacity:0.91;display:inline"/>
<path d="M 20.81,17.51 L 21.99,16.46" id="p3907" style="fill:none;fill-rule:evenodd;stroke:#000000;stroke-width:0.2;stroke-linecap:butt;stroke-linejoin:miter;stroke-miterlimit:4;stroke-dasharray:none;stroke-opacity:0.91;display:inline"/>
<path d="M 20.26,16.30 L 21.08,15.57" id="p3909" style="fill:none;fill-rule:evenodd;stroke:#000000;stroke-width:0.2;stroke-linecap:butt;stroke-linejoin:miter;stroke-miterlimit:4;stroke-dasharray:none;stroke-opacity:0.91;display:inline"/>
<path d="M 19.01,15.63 L 20.20,14.58" id="p3911" style="fill:none;fill-rule:evenodd;stroke:#000000;stroke-width:0.2;stroke-linecap:butt;stroke-linejoin:miter;stroke-miterlimit:4;stroke-dasharray:none;stroke-opacity:0.91;display:inline"/>
<path d="M 18.46,14.42 L 19.29,13.69" id="p3913" style="fill:none;fill-rule:evenodd;stroke:#000000;stroke-width:0.2;stroke-linecap:butt;stroke-linejoin:miter;stroke-miterlimit:4;stroke-dasharray:none;stroke-opacity:0.91;display:inline"/>
<path d="M 17.20,13.84 L 18.39,12.79" id="p3915" style="fill:none;fill-rule:evenodd;stroke:#000000;stroke-width:0.2;stroke-linecap:butt;stroke-linejoin:miter;stroke-miterlimit:4;stroke-dasharray:none;stroke-opacity:0.91;display:inline"/>
<path d="M 16.65,12.64 L 17.48,11.90" id="p3917" style="fill:none;fill-rule:evenodd;stroke:#000000;stroke-width:0.2;stroke-linecap:butt;stroke-linejoin:miter;stroke-miterlimit:4;stroke-dasharray:none;stroke-opacity:0.91;display:inline"/>
<path d="M 15.41,11.96 L 16.60,10.91" id="p3919" style="fill:none;fill-rule:evenodd;stroke:#000000;stroke-width:0.2;stroke-linecap:butt;stroke-linejoin:miter;stroke-miterlimit:4;stroke-dasharray:none;stroke-opacity:0.91;display:inline"/>
<path d="M 14.86,10.75 L 15.68,10.02" id="p3921" style="fill:none;fill-rule:evenodd;stroke:#000000;stroke-width:0.2;stroke-linecap:butt;stroke-linejoin:miter;stroke-miterlimit:4;stroke-dasharray:none;stroke-opacity:0.91;display:inline"/>
<path d="M 13.74,10.06 L 14.93,9.01" id="p3923" style="fill:none;fill-rule:evenodd;stroke:#000000;stroke-width:0.2;stroke-linecap:butt;stroke-linejoin:miter;stroke-miterlimit:4;stroke-dasharray:none;stroke-opacity:0.91;display:inline"/>
<path d="M 13.19,8.85 L 14.01,8.12" id="p3925" style="fill:none;fill-rule:evenodd;stroke:#000000;stroke-width:0.2;stroke-linecap:butt;stroke-linejoin:miter;stroke-miterlimit:4;stroke-dasharray:none;stroke-opacity:0.91;display:inline"/>
<path d="M 11.95,8.18 L 13.13,7.13" id="p3927" style="fill:none;fill-rule:evenodd;stroke:#000000;stroke-width:0.2;stroke-linecap:butt;stroke-linejoin:miter;stroke-miterlimit:4;stroke-dasharray:none;stroke-opacity:0.91;display:inline"/>
<path d="M 11.40,6.97 L 12.22,6.23" id="p3929" style="fill:none;fill-rule:evenodd;stroke:#000000;stroke-width:0.2;stroke-linecap:butt;stroke-linejoin:miter;stroke-miterlimit:4;stroke-dasharray:none;stroke-opacity:0.91;display:inline"/>
<path d="M 38.22,36.36 L 39.40,35.31" id="p3931" style="fill:none;fill-rule:evenodd;stroke:#000000;stroke-width:0.2;stroke-linecap:butt;stroke-linejoin:miter;stroke-miterlimit:4;stroke-dasharray:none;stroke-opacity:0.91;display:inline"/>
<path d="M 37.67,35.15 L 38.49,34.42" id="p3933" style="fill:none;fill-rule:evenodd;stroke:#000000;stroke-width:0.2;stroke-linecap:butt;stroke-linejoin:miter;stroke-miterlimit:4;stroke-dasharray:none;stroke-opacity:0.91;display:inline"/>
<path d="M 36.42,34.48 L 37.61,33.42" id="p3935" style="fill:none;fill-rule:evenodd;stroke:#000000;stroke-width:0.2;stroke-linecap:butt;stroke-linejoin:miter;stroke-miterlimit:4;stroke-dasharray:none;stroke-opacity:0.91;display:inline"/>
<path d="M 35.87,33.27 L 36.70,32.53" id="p3937" style="fill:none;fill-rule:evenodd;stroke:#000000;stroke-width:0.2;stroke-linecap:butt;stroke-linejoin:miter;stroke-miterlimit:4;stroke-dasharray:none;stroke-opacity:0.91;display:inline"/>
<path d="M 34.75,32.58 L 35.94,31.53" id="p3939" style="fill:none;fill-rule:evenodd;stroke:#000000;stroke-width:0.2;stroke-linecap:butt;stroke-linejoin:miter;stroke-miterlimit:4;stroke-dasharray:none;stroke-opacity:0.91;display:inline"/>
<path d="M 34.21,31.37 L 35.03,30.64" id="p3941" style="fill:none;fill-rule:evenodd;stroke:#000000;stroke-width:0.2;stroke-linecap:butt;stroke-linejoin:miter;stroke-miterlimit:4;stroke-dasharray:none;stroke-opacity:0.91;display:inline"/>
<path d="M 32.96,30.69 L 34.15,29.64" id="p3943" style="fill:none;fill-rule:evenodd;stroke:#000000;stroke-width:0.2;stroke-linecap:butt;stroke-linejoin:miter;stroke-miterlimit:4;stroke-dasharray:none;stroke-opacity:0.91;display:inline"/>
<path d="M 32.41,29.49 L 33.23,28.75" id="p3945" style="fill:none;fill-rule:evenodd;stroke:#000000;stroke-width:0.2;stroke-linecap:butt;stroke-linejoin:miter;stroke-miterlimit:4;stroke-dasharray:none;stroke-opacity:0.91;display:inline"/>
<path d="M 31.15,28.91 L 32.34,27.86" id="p3947" style="fill:none;fill-rule:evenodd;stroke:#000000;stroke-width:0.2;stroke-linecap:butt;stroke-linejoin:miter;stroke-miterlimit:4;stroke-dasharray:none;stroke-opacity:0.91;display:inline"/>
<path d="M 30.60,27.70 L 31.43,26.97" id="p3949" style="fill:none;fill-rule:evenodd;stroke:#000000;stroke-width:0.2;stroke-linecap:butt;stroke-linejoin:miter;stroke-miterlimit:4;stroke-dasharray:none;stroke-opacity:0.91;display:inline"/>
<path d="M 29.36,27.02 L 30.55,25.97" id="p3951" style="fill:none;fill-rule:evenodd;stroke:#000000;stroke-width:0.2;stroke-linecap:butt;stroke-linejoin:miter;stroke-miterlimit:4;stroke-dasharray:none;stroke-opacity:0.91;display:inline"/>
<path d="M 28.81,25.82 L 29.63,25.08" id="p3953" style="fill:none;fill-rule:evenodd;stroke:#000000;stroke-width:0.2;stroke-linecap:butt;stroke-linejoin:miter;stroke-miterlimit:4;stroke-dasharray:none;stroke-opacity:0.91;display:inline"/>
<path d="M 27.69,25.13 L 28.88,24.08" id="p3955" style="fill:none;fill-rule:evenodd;stroke:#000000;stroke-width:0.2;stroke-linecap:butt;stroke-linejoin:miter;stroke-miterlimit:4;stroke-dasharray:none;stroke-opacity:0.91;display:inline"/>
<path d="M 27.14,23.92 L 27.96,23.19" id="p3957" style="fill:none;fill-rule:evenodd;stroke:#000000;stroke-width:0.2;stroke-linecap:butt;stroke-linejoin:miter;stroke-miterlimit:4;stroke-dasharray:none;stroke-opacity:0.91;display:inline"/>
<path d="M 25.90,23.24 L 27.08,22.19" id="p3959" style="fill:none;fill-rule:evenodd;stroke:#000000;stroke-width:0.2;stroke-linecap:butt;stroke-linejoin:miter;stroke-miterlimit:4;stroke-dasharray:none;stroke-opacity:0.91;display:inline"/>
<path d="M 25.35,22.03 L 26.17,21.30" id="p3961" style="fill:none;fill-rule:evenodd;stroke:#000000;stroke-width:0.2;stroke-linecap:butt;stroke-linejoin:miter;stroke-miterlimit:4;stroke-dasharray:none;stroke-opacity:0.91;display:inline"/>
<path d="M 41.60,40.20 L 42.78,39.15" id="p3963" style="fill:none;fill-rule:evenodd;stroke:#000000;stroke-width:0.2;stroke-linecap:butt;stroke-linejoin:miter;stroke-miterlimit:4;stroke-dasharray:none;stroke-opacity:0.91;display:inline"/>
<path d="M 41.05,38.99 L 41.87,38.26" id="p3965" style="fill:none;fill-rule:evenodd;stroke:#000000;stroke-width:0.2;stroke-linecap:butt;stroke-linejoin:miter;stroke-miterlimit:4;stroke-dasharray:none;stroke-opacity:0.91;display:inline"/>
<path d="M 39.80,38.32 L 40.99,37.26" id="p3967" style="fill:none;fill-rule:evenodd;stroke:#000000;stroke-width:0.2;stroke-linecap:butt;stroke-linejoin:miter;stroke-miterlimit:4;stroke-dasharray:none;stroke-opacity:0.91;display:inline"/>
<path d="M 39.25,37.11 L 40.08,36.37" id="p3969" style="fill:none;fill-rule:evenodd;stroke:#000000;stroke-width:0.2;stroke-linecap:butt;stroke-linejoin:miter;stroke-miterlimit:4;stroke-dasharray:none;stroke-opacity:0.91;display:inline"/>
<path d="M 10.25,6.21 L 11.43,5.16" id="p3971" style="fill:none;fill-rule:evenodd;stroke:#000000;stroke-width:0.2;stroke-linecap:butt;stroke-linejoin:miter;stroke-miterlimit:4;stroke-dasharray:none;stroke-opacity:0.91;display:inline"/>
<path d="M 9.70,5.00 L 10.52,4.27" id="p3973" style="fill:none;fill-rule:evenodd;stroke:#000000;stroke-width:0.2;stroke-linecap:butt;stroke-linejoin:miter;stroke-miterlimit:4;stroke-dasharray:none;stroke-opacity:0.91;display:inline"/>
<path d="M 8.58,4.31 L 9.76,3.26" id="p3975" style="fill:none;fill-rule:evenodd;stroke:#000000;stroke-width:0.2;stroke-linecap:butt;stroke-linejoin:miter;stroke-miterlimit:4;stroke-dasharray:none;stroke-opacity:0.91;display:inline"/>
<path d="M 3.71,6.64 C 3.95,6.04 8.51,2.20 8.75,2.32 C 8.99,2.44 44.35,40.68 44.35,41.28 C 44.35,41.88 40.06,45.77 39.70,45.65 C 39.34,45.53 3.95,7.36 3.71,6.64 z" id="stroke01" style="fill:none;fill-opacity:1;fill-rule:evenodd;stroke:#230c05;stroke-width:0.5;stroke-linecap:butt;stroke-linejoin:miter;stroke-miterlimit:4;stroke-dasharray:none;stroke-opacity:1"/>
<path d="M 25.59,24.40 A 0.62,0.62 0 1 1 24.35,24.40 A 0.62,0.62 0 1 1 25.59,24.40 z" id="p4122" style="opacity:1;fill:none;fill-opacity:1;fill-rule:evenodd;stroke:#131c1b;stroke-width:0.30;stroke-linecap:round;stroke-linejoin:round;marker:none;stroke-miterlimit:4;stroke-dasharray:none;stroke-dashoffset:0;stroke-opacity:1;visibility:visible;display:inline;overflow:visible;enable-background:accumulate"/>
</g>
</svg>
