<?xml version="1.0" encoding="UTF-8" standalone="no"?>
<!DOCTYPE svg PUBLIC "-//W3C//DTD SVG 1.0//EN" "http://www.w3.org/TR/2001/REC-SVG-20010904/DTD/svg10.dtd">
<svg xmlns:svg="http://www.w3.org/2000/svg" xmlns="http://www.w3.org/2000/svg" version="1.0" width="100%" height="100%" viewBox="0 0 48 48" id="_scissors01">
<defs id="defs2385"/>
<g id="scissors01" style="display:inline">
<path d="M 13.34,3.81 C 8.71,3.69 9.05,5.37 9.21,6.21 C 9.37,7.06 10.87,11.25 10.87,11.25 C 10.87,11.25 4.92,8.52 4.40,9.09 C 2.15,10.02 1.84,14.63 4.21,16.40 C 6.59,18.17 10.48,18.21 12.21,19.06 C 13.95,19.90 18.17,22.76 19.75,24.21 C 19.91,24.13 19.98,24.05 20.18,24.21 C 20.38,24.37 20.31,24.76 20.71,25.12 C 21.12,25.48 21.56,25.53 21.56,25.53 C 21.56,25.53 28.23,31.97 32.06,35.56 C 35.88,39.14 40.88,43.65 41.12,43.81 C 41.36,43.97 42.17,43.23 41.96,42.87 C 41.76,42.51 27.10,25.16 24.53,22.75 C 24.41,22.10 23.57,21.21 23.25,21.09 C 23.20,20.85 23.44,20.87 22.84,20.03 C 22.23,19.18 19.17,15.38 18.65,13.25 C 18.13,11.11 17.97,3.93 13.34,3.81 z M 16.06,6.78 C 17.30,9.32 16.35,10.60 14.78,10.96 C 13.21,11.33 9.53,8.23 11.18,5.65 C 12.43,4.44 15.10,5.07 16.06,6.78 z M 5.46,10.84 C 6.24,10.75 7.01,11.12 7.34,11.25 C 7.86,11.45 10.86,13.11 10.21,14.96 C 9.57,16.82 7.50,16.45 6.21,16.09 C 4.92,15.73 2.78,14.15 4.15,11.65 C 4.53,11.11 5.00,10.89 5.46,10.84 z M 11.68,12.28 C 13.50,12.96 14.98,13.79 17.68,18.46 C 13.98,16.09 12.77,14.93 11.68,12.28 z" id="p2465" style="fill:#101010;fill-opacity:1;fill-rule:evenodd;stroke:none;"/>
<path d="M 24.62,22.84 C 24.57,24.32 23.79,25.33 21.87,25.09 C 21.78,25.21 21.67,25.34 21.5,25.53 C 21.50,25.53 21.56,25.53 21.56,25.53 C 21.56,25.53 28.23,31.97 32.06,35.56 C 35.88,39.14 40.88,43.65 41.12,43.81 C 41.36,43.97 42.17,43.23 41.96,42.87 C 41.76,42.51 27.36,25.47 24.62,22.84 z" id="p3248" style="fill:#9a9c9f;fill-opacity:1;fill-rule:evenodd;stroke:none;"/>
<path d="M 11.53,14 C 11.48,13.99 11.43,14.01 11.37,14.06 C 10.68,14.96 11.62,16.13 13.81,17.21 C 15.99,18.29 14.69,19.26 16.31,20.18 C 17.93,21.11 20.10,23.10 21.15,23.90 C 22.20,24.70 23.05,24.57 23.75,23.90 C 24.44,23.23 24.52,21.74 22.90,21.12 C 21.64,20.64 19.12,19.25 17.40,18.03 C 17.49,18.18 17.59,18.30 17.68,18.46 C 16.63,17.79 15.79,17.22 15.09,16.68 C 14.61,16.93 13.44,16.32 12.65,15.34 C 11.86,14.36 11.68,14.02 11.53,14 z" id="p3272" style="fill:#484848;fill-opacity:0.18;fill-rule:evenodd;stroke:none;display:inline"/>
<path d="M 11.28,13.25 C 11.41,13.56 11.38,13.94 11.15,14.43 C 10.39,15.78 13.04,17.21 13.09,17.43 C 11.44,16.79 7.98,17.15 6.12,17.40 C 8.32,18.23 10.90,18.41 12.21,19.06 C 13.95,19.90 18.17,22.76 19.75,24.21 C 19.87,24.15 19.94,24.08 20.06,24.12 C 20.59,22.46 18.89,19.99 17.25,18.18 C 16.10,17.44 15.18,16.79 14.46,16.18 C 13.88,16.76 12.63,15.51 11.28,13.25 z" id="p3250" style="fill:#242424;fill-opacity:0.55;fill-rule:evenodd;stroke:none;"/>
<path d="M 11.96,9.56 C 11.54,10.28 11.40,11.05 11.65,11.15 C 11.97,11.29 13.53,11.54 14.43,12.53 C 15.33,13.52 16.01,13.81 17.35,16.17 C 18.28,16.95 19.78,17.71 20.87,17.34 C 19.91,15.96 18.93,14.38 18.65,13.25 C 18.61,13.08 18.57,12.84 18.53,12.62 C 17.95,12.60 17.45,12.75 17.31,13.12 C 16.81,14.38 15.75,12.59 14.31,11.78 C 13.72,11.45 13.41,11.03 13.25,10.62 C 12.79,10.37 12.37,9.98 11.96,9.56 z" id="p3252" style="fill:#242424;fill-opacity:0.55;fill-rule:evenodd;stroke:none;"/>
<path d="M 2.65,13.68 C 2.84,14.76 3.36,15.76 4.21,16.40 C 6.59,18.17 10.48,18.21 12.21,19.06 C 13.95,19.90 18.17,22.76 19.75,24.21 C 19.91,24.13 19.98,24.05 20.18,24.21 C 20.38,24.37 20.31,24.76 20.71,25.12 C 21.05,25.42 21.35,25.48 21.46,25.5 C 21.67,25.30 21.83,25.12 21.93,24.93 C 20.81,24.37 16.29,20.69 13.84,19.31 C 11.39,17.93 11.67,18.15 8.15,17.43 C 5.03,16.80 4.55,16.35 2.65,13.68 z" id="p3266" style="fill:#5b5b5b;fill-opacity:0.40;fill-rule:evenodd;stroke:none;display:inline"/>
<path d="M 15.87,13.96 C 15.88,14.00 15.94,14.08 16.09,14.25 C 17.31,15.55 18.03,17.29 18.68,18.43 C 20.96,19.78 22.33,20.29 23.15,20.53 C 23.09,20.41 22.99,20.24 22.84,20.03 C 22.34,19.32 20.15,16.60 19.12,14.46 C 17.99,15.34 15.83,13.76 15.87,13.96 z" id="p3278" style="fill:#212121;fill-opacity:0.39;fill-rule:evenodd;stroke:none;display:inline"/>
<path d="M 5.75,9.93 C 5.58,9.93 5.41,9.93 5.25,9.96 C 3.92,10.25 3.18,11.30 3.15,12.68 C 3.13,13.72 3.58,14.61 4.43,14.96 C 3.74,14.19 3.37,13.08 4.15,11.65 C 4.53,11.11 5.00,10.89 5.46,10.84 C 6.24,10.75 7.01,11.12 7.34,11.25 C 7.86,11.45 10.86,13.11 10.21,14.96 C 10.21,14.99 10.19,15.00 10.18,15.03 C 11.11,13.92 10.75,12.17 9.59,11.53 C 8.15,10.73 6.92,9.93 5.75,9.93 z" id="p3280" style="fill:#000000;fill-opacity:1;fill-rule:evenodd;stroke:none;display:inline"/>
<path d="M 22.46,24.44 C 21.07,24.25 20.89,23.62 20.10,23.02 C 19.31,22.42 16.99,20.45 14.63,19.06 C 12.26,17.66 10.71,17.25 9.80,17.11 C 8.90,16.97 6.79,16.88 5.61,16.11" id="p3292" style="fill:none;fill-rule:evenodd;stroke:#656565;stroke-width:0.30;stroke-linecap:round;stroke-linejoin:miter;stroke-miterlimit:4;stroke-dasharray:none;stroke-opacity:0.32;display:inline"/>
<path d="M 3.26,11.89 C 3.80,10.36 5.00,9.69 6.23,9.99 C 7.46,10.29 9.06,10.99 9.73,11.52 C 10.41,12.05 11.06,12.98 11.64,14.00" id="p3294" style="fill:none;fill-rule:evenodd;stroke:#2a2a2a;stroke-width:0.30;stroke-linecap:round;stroke-linejoin:miter;stroke-miterlimit:4;stroke-dasharray:none;stroke-opacity:1;display:inline"/>
<path d="M 11.98,10.89 C 13.75,11.66 15.11,12.73 15.74,13.49" id="p3296" style="fill:none;fill-rule:evenodd;stroke:#2b2b2b;stroke-width:0.60;stroke-linecap:round;stroke-linejoin:miter;stroke-miterlimit:4;stroke-dasharray:none;stroke-opacity:0.61;display:inline"/>
<path d="M 18.66,18.31 C 19.91,19.06 21.98,20.12 22.77,20.42" id="p3298" style="fill:none;fill-rule:evenodd;stroke:#393939;stroke-width:0.30;stroke-linecap:round;stroke-linejoin:miter;stroke-miterlimit:4;stroke-dasharray:none;stroke-opacity:1;display:inline"/>
<path d="M 19.13,18.54 C 19.13,18.54 21.99,20.11 22.75,20.37" id="p3304" style="fill:none;fill-rule:evenodd;stroke:#696969;stroke-width:0.2;stroke-linecap:round;stroke-linejoin:miter;stroke-miterlimit:4;stroke-dasharray:none;stroke-opacity:1"/>
<path d="M 7.80,16.83 C 9.45,17.06 11.25,17.10 13.78,18.56" id="p3306" style="fill:none;fill-rule:evenodd;stroke:#767676;stroke-width:0.30;stroke-linecap:round;stroke-linejoin:miter;stroke-miterlimit:4;stroke-dasharray:none;stroke-opacity:0.53"/>
<path d="M 14.58,18.97 C 15.56,19.63 18.36,21.50 19.34,22.36" id="p3308" style="fill:none;fill-rule:evenodd;stroke:#767676;stroke-width:0.30;stroke-linecap:round;stroke-linejoin:miter;stroke-miterlimit:4;stroke-dasharray:1.2, 0.6, 0.3, 0.6;stroke-dashoffset:0;stroke-opacity:0.53"/>
<path d="M 11.90,14.51 C 12.05,14.84 12.30,15.11 12.58,15.36" id="p3310" style="fill:none;fill-rule:evenodd;stroke:#2f2f2f;stroke-width:0.60;stroke-linecap:round;stroke-linejoin:miter;stroke-miterlimit:4;stroke-dasharray:none;stroke-opacity:0.55"/>
<path d="M 4.29,10.39 C 5.09,9.94 5.54,9.87 6.04,9.94 C 6.54,10.02 7.59,10.39 7.96,10.57" id="p3312" style="fill:none;fill-rule:evenodd;stroke:#676767;stroke-width:0.30;stroke-linecap:round;stroke-linejoin:miter;stroke-miterlimit:4;stroke-dasharray:1.2, 0.6, 0.3, 0.6;stroke-dashoffset:0;stroke-opacity:0.41"/>
<path d="M 12.16,11.01 C 12.97,11.36 15.08,12.60 16.32,14.41" id="p3316" style="fill:none;fill-rule:evenodd;stroke:#393939;stroke-width:0.5;stroke-linecap:round;stroke-linejoin:miter;stroke-miterlimit:4;stroke-dasharray:none;stroke-opacity:0.53"/>
<path d="M 12.85,11.34 C 13.45,11.66 14.40,12.30 14.90,12.79" id="p3314" style="fill:none;fill-rule:evenodd;stroke:#4d4d4d;stroke-width:0.40;stroke-linecap:round;stroke-linejoin:miter;stroke-miterlimit:4;stroke-dasharray:none;stroke-opacity:0.46"/>
<path d="M 23.75,22.67 C 23.79,23.36 23.26,23.92 22.56,23.92 C 21.86,23.92 21.25,23.36 21.21,22.67 C 21.16,21.98 21.70,21.42 22.40,21.42 C 23.10,21.42 23.70,21.98 23.75,22.67 z" id="p3318" style="fill:#741919;fill-opacity:1;fill-rule:evenodd;stroke:none;marker:none;visibility:visible;display:inline;overflow:visible;enable-background:accumulate"/>
<path d="M 23.63,22.57 C 23.67,23.20 23.18,23.71 22.55,23.71 C 21.91,23.71 21.37,23.20 21.33,22.57 C 21.29,21.95 21.77,21.44 22.40,21.44 C 23.04,21.44 23.59,21.95 23.63,22.57 z" id="p3321" style="fill:#7c1c1d;fill-opacity:1;fill-rule:evenodd;stroke:none;marker:none;visibility:visible;display:inline;overflow:visible;enable-background:accumulate"/>
<path d="M 22.25,22.43 C 22.07,22.50 21.78,22.74 21.43,23 C 21.63,23.42 22.07,23.71 22.56,23.71 C 22.57,23.71 22.58,23.71 22.59,23.71 C 22.47,23.19 22.60,22.50 22.43,22.43 C 22.38,22.41 22.32,22.40 22.25,22.43 z" id="p3323" style="fill:#8e3535;fill-opacity:0.37;fill-rule:evenodd;stroke:none;"/>
<path d="M 21.71,22.90 C 21.60,22.90 21.51,22.91 21.40,22.93 C 21.58,23.39 22.05,23.71 22.56,23.71 C 22.64,23.71 22.70,23.70 22.78,23.68 C 22.50,23.17 22.12,22.92 21.71,22.90 z" id="p3328" style="fill:#ba7171;fill-opacity:0.37;fill-rule:evenodd;stroke:none;"/>
<path d="M 24.62,22.84 C 24.57,24.32 23.79,25.33 21.87,25.09 C 21.78,25.21 21.67,25.34 21.5,25.53 C 21.50,25.53 21.56,25.53 21.56,25.53 C 21.56,25.53 22.42,26.37 22.68,26.62 C 23.88,26.04 24.69,24.55 25.03,23.25 C 24.91,23.13 24.71,22.92 24.62,22.84 z" id="p3344" style="fill:#b9babc;fill-opacity:0.77;fill-rule:evenodd;stroke:none;display:inline"/>
<path d="M 27.31,25.75 C 26.96,27.21 26.31,28.58 25.15,28.96 C 27.36,31.08 30.03,33.66 32.06,35.56 C 32.71,36.17 33.37,36.76 34.06,37.40 C 34.16,36.25 34.33,35.04 34.62,34.15 C 32.02,31.11 29.36,28.04 27.31,25.75 z" id="p3348" style="fill:#b6b8ba;fill-opacity:1;fill-rule:evenodd;stroke:none;display:inline"/>
<path d="M 29.62,28.37 C 29.44,29.43 28.83,30.47 27.43,31.15 C 28.27,31.95 29.03,32.66 29.84,33.43 C 30.66,32.90 31.48,32.06 31.90,31.03 C 31.12,30.12 30.35,29.21 29.62,28.37 z" id="p3346" style="fill:#e9eaea;fill-opacity:0.73;fill-rule:evenodd;stroke:none;display:inline"/>
<path d="M 28.73,29.38 L 31.05,31.71" id="p3357" style="fill:none;fill-rule:evenodd;stroke:#e7e7e7;stroke-width:2.20;stroke-linecap:round;stroke-linejoin:miter;stroke-miterlimit:4;stroke-dasharray:none;stroke-opacity:0.65"/>
<path d="M 21.68,25.65 C 21.90,25.86 28.29,32.03 32.06,35.56 C 35.88,39.14 40.88,43.65 41.12,43.81 C 41.34,43.96 42.05,43.34 42,42.96 C 41.98,42.95 41.98,42.94 41.96,42.93 C 39.14,40.13 33.75,35.36 32.09,33.87 C 29.88,31.89 24.75,26.98 23.78,26.31 C 23.01,25.77 22.96,25.70 21.68,25.65 z" id="p3333" style="fill:#343434;fill-opacity:1;fill-rule:evenodd;stroke:none;display:inline"/>
<path d="M 26.20,25.81 C 26.20,25.81 29.12,28.83 29.61,29.38" id="p3415" style="fill:none;fill-rule:evenodd;stroke:#f1f1f1;stroke-width:0.69;stroke-linecap:round;stroke-linejoin:miter;stroke-miterlimit:4;stroke-dasharray:none;stroke-opacity:0.27"/>
<path d="M 27.31,29.46 C 28.04,30.62 28.65,31.75 29.15,32.81 C 30.15,33.76 31.22,34.77 32.06,35.56 C 35.88,39.14 40.88,43.65 41.12,43.81 C 41.34,43.96 42.05,43.34 42,42.96 C 41.98,42.95 41.98,42.94 41.96,42.93 C 39.14,40.13 33.75,35.36 32.09,33.87 C 30.95,32.85 29.03,31.06 27.31,29.46 z" id="p3429" style="fill:#3c3c3a;fill-opacity:1;fill-rule:evenodd;stroke:none;display:inline"/>
<path d="M 33.40,35.06 C 34.15,36.34 34.89,37.57 35.40,38.62 C 38.27,41.26 40.95,43.69 41.12,43.81 C 41.34,43.96 42.05,43.34 42,42.96 C 41.98,42.95 41.98,42.94 41.96,42.93 C 39.56,40.54 35.64,37.05 33.40,35.06 z" id="p3431" style="fill:#454545;fill-opacity:1;fill-rule:evenodd;stroke:none;display:inline"/>
<path d="M 39.03,40.15 C 38.99,40.80 38.89,41.31 38.81,41.75 C 39.86,42.69 41.03,43.75 41.12,43.81 C 41.34,43.96 42.05,43.34 42,42.96 C 41.98,42.95 41.98,42.94 41.96,42.93 C 41.15,42.13 40.12,41.16 39.03,40.15 z" id="p3433" style="fill:#4b4338;fill-opacity:1;fill-rule:evenodd;stroke:none;display:inline"/>
<path d="M 22.03,25.78 C 21.96,25.77 21.89,25.80 21.84,25.81 C 22.31,26.26 28.37,32.11 32.06,35.56 C 35.88,39.14 40.88,43.65 41.12,43.81 C 41.23,43.88 41.48,43.75 41.68,43.56 C 39.28,41.44 34.96,37.48 33.31,36 C 31.08,34.00 24.09,27.30 23,26.31 C 22.59,25.93 22.28,25.80 22.03,25.78 z" id="p3447" style="fill:#9d9d9d;fill-opacity:0.28;fill-rule:evenodd;stroke:none;display:inline"/>
<path d="M 27.28,27.25 L 27.56,27.03" id="p3425" style="fill:none;fill-rule:evenodd;stroke:#f0f0f0;stroke-width:0.40;stroke-linecap:round;stroke-linejoin:miter;stroke-miterlimit:4;stroke-dasharray:none;stroke-opacity:0.67"/>
<path d="M 27.72,27.09 L 27.18,27.53 L 28.41,28.88 L 28.88,28.41 L 27.72,27.09 z" id="p3423" style="fill:none;fill-rule:evenodd;stroke:#4b4b4b;stroke-width:0.2;stroke-linecap:butt;stroke-linejoin:round;stroke-miterlimit:4;stroke-dasharray:none;stroke-opacity:0.59"/>
<path d="M 27.52,27.40 L 28.56,28.58" id="p3427" style="fill:none;fill-rule:evenodd;stroke:#646464;stroke-width:0.30;stroke-linecap:butt;stroke-linejoin:miter;stroke-miterlimit:4;stroke-dasharray:0.6, 0.3, 0.15, 0.3;stroke-dashoffset:0;stroke-opacity:0.55"/>
<path d="M 13.34,3.81 C 8.71,3.69 9.05,5.37 9.21,6.21 C 9.37,7.06 10.87,11.25 10.87,11.25 C 10.87,11.25 4.92,8.52 4.40,9.09 C 2.15,10.02 1.84,14.63 4.21,16.40 C 6.59,18.17 10.48,18.21 12.21,19.06 C 13.95,19.90 18.17,22.76 19.75,24.21 C 19.91,24.13 19.98,24.05 20.18,24.21 C 20.38,24.37 20.31,24.76 20.71,25.12 C 21.12,25.48 21.56,25.53 21.56,25.53 C 21.56,25.53 28.23,31.97 32.06,35.56 C 35.88,39.14 40.88,43.65 41.12,43.81 C 41.36,43.97 42.17,43.23 41.96,42.87 C 41.76,42.51 27.10,25.16 24.53,22.75 C 24.41,22.10 23.57,21.21 23.25,21.09 C 23.20,20.85 23.44,20.87 22.84,20.03 C 22.23,19.18 19.17,15.38 18.65,13.25 C 18.13,11.11 17.97,3.93 13.34,3.81 z M 16.06,6.78 C 17.30,9.32 16.35,10.60 14.78,10.96 C 13.21,11.33 9.53,8.23 11.18,5.65 C 12.43,4.44 15.10,5.07 16.06,6.78 z M 5.46,10.84 C 6.24,10.75 7.01,11.12 7.34,11.25 C 7.86,11.45 10.86,13.11 10.21,14.96 C 9.57,16.82 7.50,16.45 6.21,16.09 C 4.92,15.73 2.78,14.15 4.15,11.65 C 4.53,11.11 5.00,10.89 5.46,10.84 z M 11.83,12.25 C 13.65,12.94 14.98,13.79 17.68,18.46 C 13.98,16.09 12.92,14.91 11.83,12.25 z" id="stroke01" style="fill:none;fill-opacity:1;fill-rule:evenodd;stroke:#000000;stroke-width:0.50;stroke-linecap:butt;stroke-linejoin:miter;stroke-miterlimit:4;stroke-dasharray:none;stroke-opacity:1"/>
</g>
</svg>
