<?xml version="1.0" encoding="UTF-8" standalone="no"?>
<!DOCTYPE svg PUBLIC "-//W3C//DTD SVG 1.0//EN" "http://www.w3.org/TR/2001/REC-SVG-20010904/DTD/svg10.dtd">
<svg xmlns:svg="http://www.w3.org/2000/svg" xmlns="http://www.w3.org/2000/svg" version="1.0" width="100%" height="100%" viewBox="0 0 48 48" id="_scissors03">
<defs id="defs2385"/>
<g id="scissors03" style="display:inline">
<path d="M 44.56,5.75 C 42.64,5.84 41.04,7.31 36.21,12.12 C 29.77,18.53 27.96,20.56 27.31,20.93 C 26.66,21.30 24.17,22.37 22.84,22.28 C 22.62,22.12 22.24,22.09 22.03,21.93 C 16.95,23.20 18.01,22.85 16.31,23.56 C 14.60,24.27 13.68,25.30 13.31,24.09 C 12.94,22.88 9.61,19.10 5,22.56 C 1.03,25.53 3.43,30.79 8.21,29.96 C 8.53,29.91 8.90,30.12 9.12,30.37 C 5.78,32.88 0.60,37.51 2.06,39.12 C 3.79,41.04 11.89,40.40 17.53,37.06 C 23.16,33.71 26.07,28.85 26.93,26.84 C 30.89,23.65 30.76,23.86 35.40,19.28 C 40.04,14.69 46.87,7.08 46.71,6.06 C 45.87,5.86 45.20,5.71 44.56,5.75 z M 9.62,22.84 C 10.35,22.84 11.08,23.03 11.65,23.59 C 13.17,25.07 10.15,26.87 9.65,27.31 C 9.16,27.74 6.08,29.17 4.93,27.68 C 3.91,26.07 6.03,24.08 6.75,23.65 C 7.19,23.38 8.40,22.84 9.62,22.84 z M 22.90,25.03 L 21.96,25.84 C 21.96,25.84 20.88,25.84 19.15,26.15 C 19.15,26.15 20.18,25.46 20.34,25.31 C 20.93,25.25 22.90,25.03 22.90,25.03 z M 19.34,29.68 C 19.68,29.71 20.01,29.87 20.37,30.18 C 21.82,31.45 19.33,34.61 14.71,36.65 C 10.10,38.69 6.74,39.04 6.12,37.18 C 5.22,34.27 8.08,35.25 13.46,32.53 C 17.00,30.74 18.30,29.61 19.34,29.68 z" id="p3246" style="fill:#e8dedb;fill-opacity:1;fill-rule:evenodd;stroke:none;"/>
<path d="M 27.15,21 C 26.37,21.41 24.11,22.36 22.84,22.28 C 22.62,22.12 22.24,22.09 22.03,21.93 C 19.51,22.56 18.52,22.81 17.93,22.96 L 17.90,22.96 L 17.34,24.12 L 20.18,25.43 C 20.22,25.40 20.32,25.33 20.34,25.31 C 20.93,25.25 22.90,25.03 22.90,25.03 C 23.16,24.89 23.44,24.78 23.62,24.65 C 23.95,24.41 25.94,22.74 27.15,21 z" id="p3317" style="fill:#cac4be;fill-opacity:1;fill-rule:evenodd;stroke:none;display:inline"/>
<path d="M 8.90,21.12 C 7.76,21.09 6.44,21.48 5,22.56 C 1.03,25.53 3.43,30.79 8.21,29.96 C 8.53,29.91 8.90,30.12 9.12,30.37 C 5.78,32.88 0.60,37.51 2.06,39.12 C 3.79,41.04 11.89,40.40 17.53,37.06 C 23.16,33.71 26.07,28.85 26.93,26.84 C 26.62,26.45 26.24,25.98 26.15,25.87 C 26.02,25.72 23.59,25.72 22.03,25.78 L 21.96,25.84 C 21.96,25.84 20.88,25.84 19.15,26.15 C 19.15,26.15 19.67,25.79 20.03,25.53 C 19.99,25.45 20,25.37 20,25.37 C 20,25.37 22.45,23.43 22.84,22.28 C 22.62,22.12 22.24,22.09 22.03,21.93 C 16.95,23.20 18.01,22.85 16.31,23.56 C 14.60,24.27 13.68,25.30 13.31,24.09 C 13.05,23.26 11.41,21.19 8.90,21.12 z M 9.62,22.84 C 10.35,22.84 11.08,23.03 11.65,23.59 C 13.17,25.07 10.15,26.87 9.65,27.31 C 9.16,27.74 6.08,29.17 4.93,27.68 C 3.91,26.07 6.03,24.08 6.75,23.65 C 7.19,23.38 8.40,22.84 9.62,22.84 z M 19.34,29.68 C 19.68,29.71 20.01,29.87 20.37,30.18 C 21.82,31.45 19.33,34.61 14.71,36.65 C 10.10,38.69 6.74,39.04 6.12,37.18 C 5.22,34.27 8.08,35.25 13.46,32.53 C 17.00,30.74 18.30,29.61 19.34,29.68 z" id="p3248" style="fill:#222c2b;fill-opacity:1;fill-rule:evenodd;stroke:none;display:inline"/>
<path d="M 18.11,23.65 C 18.11,23.65 20.47,23.22 20.99,23.22" id="p3311" style="fill:none;fill-rule:evenodd;stroke:#434343;stroke-width:1.39;stroke-linecap:round;stroke-linejoin:miter;stroke-miterlimit:4;stroke-dasharray:none;stroke-opacity:0.25"/>
<path d="M 26.03,25.84 C 25.37,29.07 19.49,35.08 14.59,37.40 C 9.38,39.87 5.06,39.43 1.84,38.62 C 1.87,38.80 1.93,38.98 2.06,39.12 C 3.79,41.04 11.89,40.40 17.53,37.06 C 23.16,33.71 26.07,28.85 26.93,26.84 C 26.62,26.45 26.24,25.98 26.15,25.87 C 26.14,25.86 26.05,25.85 26.03,25.84 z" id="p3274" style="opacity:1;fill:#000000;fill-opacity:0.47;fill-rule:evenodd;stroke:none;marker:none;visibility:visible;display:inline;overflow:visible;enable-background:accumulate"/>
<path d="M 19.59,27.84 C 18.63,27.86 17.65,27.96 16.68,28.15 C 12.79,28.91 8.66,30.86 5.46,34.06 C 3.36,36.16 2.42,37.87 2.15,39.18 C 3.00,40.01 5.11,40.33 7.68,40.12 C 7.23,39.65 7.09,39.20 7.21,38.21 C 6.68,38.02 6.29,37.68 6.12,37.18 C 5.22,34.27 8.08,35.25 13.46,32.53 C 17.00,30.74 18.30,29.61 19.34,29.68 C 19.68,29.71 20.01,29.87 20.37,30.18 C 20.95,30.69 20.88,31.51 20.31,32.43 C 20.68,32.98 21.06,33.48 21.56,34.03 C 23.42,32.31 24.80,30.54 25.71,29.09 C 24.40,28.25 22.11,27.77 19.59,27.84 z" id="p3250" style="fill:#df1d38;fill-opacity:1;fill-rule:evenodd;stroke:none;display:inline"/>
<path d="M 22.03,21.93 C 21.64,22.54 20.96,23.45 19.65,24.75 C 15.52,25.52 12.54,26.57 10.84,27.68 C 9.14,28.79 6.99,29.63 5,28.75 C 4.47,28.51 4.21,28.59 4.12,28.81 C 5.04,29.74 6.45,30.27 8.21,29.96 C 8.49,29.92 8.80,30.07 9.03,30.28 C 10.66,29.42 14.02,26.90 19.42,26.15 C 19.57,26.04 19.89,25.63 20.03,25.53 C 19.99,25.45 20,25.37 20,25.37 C 20,25.37 22.45,23.43 22.84,22.28 C 22.62,22.12 22.24,22.09 22.03,21.93 z" id="p3266" style="fill:#000000;fill-opacity:0.47;fill-rule:evenodd;stroke:none;display:inline"/>
<path d="M 8.90,21.12 C 7.76,21.09 6.44,21.48 5,22.56 C 2.30,24.58 2.56,27.65 4.5,29.15 C 5.03,28.62 5.43,28.63 6.12,28.81 C 7.27,29.11 12.20,27.46 12.59,24.68 C 12.74,23.64 12.28,22.74 11.5,22 C 11.47,21.98 11.45,21.95 11.43,21.93 C 10.74,21.49 9.89,21.15 8.90,21.12 z M 9.62,22.84 C 10.35,22.84 11.08,23.03 11.65,23.59 C 13.17,25.07 10.15,26.87 9.65,27.31 C 9.16,27.74 6.08,29.17 4.93,27.68 C 3.91,26.07 6.03,24.08 6.75,23.65 C 7.19,23.38 8.40,22.84 9.62,22.84 z" id="p3252" style="fill:#c91f33;fill-opacity:1;fill-rule:evenodd;stroke:none;display:inline"/>
<path d="M 24.71,28.59 C 23.75,30.02 22.33,31.57 20.75,33.03 C 20.99,33.35 21.25,33.69 21.56,34.03 C 23.42,32.31 24.80,30.54 25.71,29.09 C 25.43,28.91 25.09,28.74 24.71,28.59 z M 2.28,38.75 C 2.23,38.90 2.18,39.04 2.15,39.18 C 3.00,40.01 5.11,40.33 7.68,40.12 C 7.43,39.85 7.28,39.60 7.21,39.25 C 5.37,39.30 3.72,39.08 2.28,38.75 z" id="p3268" style="fill:#421111;fill-opacity:0.54;fill-rule:evenodd;stroke:none;display:inline"/>
<path d="M 18.75,28.37 C 18.10,28.39 17.48,28.62 16.96,29 C 15.59,30.00 10.76,32.41 8.31,32.93 C 5.85,33.46 4.14,35.34 5.15,36.87 C 5.68,37.67 6.23,38.07 7.09,38.15 C 6.62,37.95 6.27,37.64 6.12,37.18 C 5.22,34.27 8.08,35.25 13.46,32.53 C 17.00,30.74 18.30,29.61 19.34,29.68 C 19.68,29.71 20.01,29.87 20.37,30.18 C 20.95,30.69 20.88,31.51 20.31,32.43 C 20.34,32.48 20.37,32.54 20.40,32.59 C 21.17,31.84 21.51,31.06 21.21,30.06 C 20.86,28.85 19.81,28.34 18.75,28.37 z" id="p3285" style="fill:#531a2e;fill-opacity:0.25;fill-rule:evenodd;stroke:none;display:inline"/>
<path d="M 5.59,35.95 C 5.31,35.18 5.80,34.62 6.68,34.22" id="p3291" style="fill:none;fill-rule:evenodd;stroke:#471313;stroke-width:1.20;stroke-linecap:round;stroke-linejoin:miter;stroke-miterlimit:4;stroke-dasharray:none;stroke-opacity:0.37"/>
<path d="M 16.71,30.27 C 17.28,29.22 18.44,28.78 19.21,29.06" id="p3293" style="fill:none;fill-rule:evenodd;stroke:#471b15;stroke-width:1.29;stroke-linecap:round;stroke-linejoin:miter;stroke-miterlimit:4;stroke-dasharray:none;stroke-opacity:0.35"/>
<path d="M 7.16,34.39 C 9.41,33.72 14.47,31.71 16.68,30.17" id="p3295" style="fill:none;fill-rule:evenodd;stroke:#702424;stroke-width:0.80;stroke-linecap:round;stroke-linejoin:miter;stroke-miterlimit:4;stroke-dasharray:none;stroke-opacity:0.41"/>
<path d="M 18.56,26.62 C 21.33,26.29 24.32,26.14 25.25,26.21" id="p3297" style="fill:none;fill-rule:evenodd;stroke:#363636;stroke-width:1px;stroke-linecap:round;stroke-linejoin:miter;stroke-opacity:0.44"/>
<path d="M 8.65,21.71 C 6.46,21.82 3.99,23.71 3.87,25.78 C 3.79,27.15 4.44,27.79 5.28,28 C 5.15,27.91 5.03,27.81 4.93,27.68 C 3.91,26.07 6.03,24.08 6.75,23.65 C 7.19,23.38 8.40,22.84 9.62,22.84 C 10.35,22.84 11.08,23.03 11.65,23.59 C 11.67,23.61 11.69,23.63 11.71,23.65 C 11.57,22.93 10.96,22.33 10.09,21.96 C 9.65,21.78 9.16,21.69 8.65,21.71 z" id="p3299" style="fill:#451526;fill-opacity:0.31;fill-rule:evenodd;stroke:none;display:inline"/>
<path d="M 12.37,22.71 C 12.71,23.66 12.79,24.63 12.5,25.53 C 12.95,25.36 13.31,24.99 13.62,24.56 C 13.49,24.48 13.39,24.34 13.31,24.09 C 13.21,23.76 12.88,23.23 12.37,22.71 z" id="p3301" style="fill:#110f0f;fill-opacity:0.47;fill-rule:evenodd;stroke:none;display:inline"/>
<path d="M 4.38,25.40 C 4.81,24.17 6.65,22.56 7.83,22.42" id="p3313" style="fill:none;fill-rule:evenodd;stroke:#5f1313;stroke-width:1;stroke-linecap:round;stroke-linejoin:miter;stroke-miterlimit:4;stroke-dasharray:none;stroke-opacity:0.46"/>
<path d="M 44.56,5.75 C 44.30,5.76 44.03,5.80 43.78,5.87 C 41.13,10.43 35.64,16.74 33.68,18.65 C 31.52,20.76 31.16,21.47 31.06,23.43 C 32.06,22.54 33.18,21.46 35.40,19.28 C 40.04,14.69 46.87,7.08 46.71,6.06 C 45.87,5.86 45.20,5.71 44.56,5.75 z" id="p3315" style="fill:#b9aeab;fill-opacity:1;fill-rule:evenodd;stroke:none;display:inline"/>
<path d="M 44.56,5.75 C 44.30,5.76 44.03,5.80 43.78,5.87 C 42.66,7.80 41.02,10.00 39.37,12.09 C 39.44,13.30 39.40,14.43 39.31,15.28 C 43.13,11.20 46.83,6.81 46.71,6.06 C 45.87,5.86 45.20,5.71 44.56,5.75 z M 33.78,18.56 C 33.75,18.58 33.70,18.63 33.68,18.65 C 31.52,20.76 31.16,21.47 31.06,23.43 C 32.06,22.54 33.18,21.46 35.40,19.28 C 35.61,19.07 35.84,18.81 36.06,18.59 C 34.98,18.81 34.34,18.85 33.78,18.56 z" id="p3330" style="fill:#373131;fill-opacity:0.09;fill-rule:evenodd;stroke:none;display:inline"/>
<path d="M 32.25,20.18 C 31.34,21.27 31.13,22.03 31.06,23.43 C 31.77,22.80 32.69,21.90 33.87,20.75 C 33.35,20.55 32.82,20.36 32.25,20.18 z" id="p3332" style="fill:#373131;fill-opacity:0.12;fill-rule:evenodd;stroke:none;display:inline"/>
<path d="M 44.56,5.75 C 44.30,5.76 44.03,5.80 43.78,5.87 C 43.22,6.83 42.52,7.88 41.78,8.93 C 42.13,9.81 42.45,10.71 42.68,11.53 C 45.03,8.84 46.79,6.58 46.71,6.06 C 45.87,5.86 45.20,5.71 44.56,5.75 z" id="p3334" style="fill:#373131;fill-opacity:0.06;fill-rule:evenodd;stroke:none;display:inline"/>
<path d="M 27.74,21.91 L 28.33,22.76 L 29.12,22.99 L 29.98,22.42 L 30.04,21.48 L 29.47,20.69 L 28.56,20.55 L 27.78,21.12 L 27.74,21.91 z" id="p3350" style="fill:#ddd4d1;fill-opacity:1;fill-rule:evenodd;stroke:none;display:inline"/>
<path d="M 29.25,20.65 L 29.75,21.31 L 29.71,22.18 L 29,22.68 L 28.43,22.53 L 27.78,21.5 L 27.75,21.90 L 28.34,22.78 L 29.12,23 L 29.96,22.43 L 30.03,21.5 L 29.46,20.68 L 29.25,20.65 z" id="p3353" style="fill:#594744;fill-opacity:0.49;fill-rule:evenodd;stroke:none;"/>
<path d="M 28.56,20.56 L 27.78,21.12 L 27.75,21.90 L 27.90,22.15 L 27.96,21.28 L 28.65,20.75 L 29.59,20.87 L 29.46,20.68 L 28.56,20.56 z" id="p3358" style="fill:#ffffff;fill-opacity:0.56;fill-rule:evenodd;stroke:none;"/>
<path d="M 28.38,22.63 L 29.06,22.80 L 29.79,22.28 L 29.84,21.48" id="p3365" style="fill:none;fill-rule:evenodd;stroke:#241815;stroke-width:0.2;stroke-linecap:butt;stroke-linejoin:miter;stroke-miterlimit:4;stroke-dasharray:none;stroke-opacity:0.50"/>
<path d="M 28.60,21.54 L 28.79,21.39" id="p3369" style="fill:none;fill-rule:evenodd;stroke:#ffffff;stroke-width:0.40;stroke-linecap:round;stroke-linejoin:miter;stroke-miterlimit:4;stroke-dasharray:none;stroke-opacity:0.9"/>
<path d="M 29.28,21.67 A 0.41,0.41 0 1 1 28.44,21.67 A 0.41,0.41 0 1 1 29.28,21.67 z" id="p3461" style="opacity:1;fill:none;fill-opacity:0.49;fill-rule:evenodd;stroke:#160e0c;stroke-width:0.2;stroke-linecap:round;stroke-linejoin:miter;marker:none;stroke-miterlimit:4;stroke-dasharray:none;stroke-dashoffset:0;stroke-opacity:0.57;visibility:visible;display:inline;overflow:visible;enable-background:accumulate"/>
<path d="M 23.07,25.02 C 23.07,25.02 25.62,23.13 26.89,21.24" id="p3327" style="fill:none;fill-rule:evenodd;stroke:#f5f5f5;stroke-width:0.2;stroke-linecap:butt;stroke-linejoin:miter;stroke-miterlimit:4;stroke-dasharray:none;stroke-opacity:1;display:inline"/>
<path d="M 31.95,22.45 C 32.08,21.74 33.70,19.95 34.91,18.83 C 36.11,17.70 40.43,13.01 42.52,10.67 C 44.64,8.30 46.18,6.59 46.43,6.14" id="p3348" style="fill:none;fill-rule:evenodd;stroke:#2e2e2e;stroke-width:0.30;stroke-linecap:butt;stroke-linejoin:miter;stroke-miterlimit:4;stroke-dasharray:none;stroke-opacity:1"/>
<path d="M 44.56,5.75 C 42.64,5.84 41.04,7.31 36.21,12.12 C 29.77,18.53 27.96,20.56 27.31,20.93 C 26.66,21.30 24.17,22.37 22.84,22.28 C 22.62,22.12 22.24,22.09 22.03,21.93 C 16.95,23.20 18.01,22.85 16.31,23.56 C 14.60,24.27 13.68,25.30 13.31,24.09 C 12.94,22.88 9.61,19.10 5,22.56 C 1.03,25.53 3.43,30.79 8.21,29.96 C 8.53,29.91 8.90,30.12 9.12,30.37 C 5.78,32.88 0.60,37.51 2.06,39.12 C 3.79,41.04 11.89,40.40 17.53,37.06 C 23.16,33.71 26.07,28.85 26.93,26.84 C 30.89,23.65 30.76,23.86 35.40,19.28 C 40.04,14.69 46.87,7.08 46.71,6.06 C 45.87,5.86 45.20,5.71 44.56,5.75 z M 9.62,22.84 C 10.35,22.84 11.08,23.03 11.65,23.59 C 13.17,25.07 10.15,26.87 9.65,27.31 C 9.16,27.74 6.08,29.17 4.93,27.68 C 3.91,26.07 6.03,24.08 6.75,23.65 C 7.19,23.38 8.40,22.84 9.62,22.84 z M 22.90,25.03 L 21.96,25.84 C 21.96,25.84 20.88,25.84 19.15,26.15 C 19.15,26.15 20.18,25.46 20.34,25.31 C 20.93,25.25 22.90,25.03 22.90,25.03 z M 19.34,29.68 C 19.68,29.71 20.01,29.87 20.37,30.18 C 21.82,31.45 19.33,34.61 14.71,36.65 C 10.10,38.69 6.74,39.04 6.12,37.18 C 5.22,34.27 8.08,35.25 13.46,32.53 C 17.00,30.74 18.30,29.61 19.34,29.68 z" id="stroke01" style="fill:none;fill-rule:evenodd;stroke:#000000;stroke-width:0.5;stroke-linecap:butt;stroke-linejoin:miter;stroke-miterlimit:4;stroke-dasharray:none;stroke-opacity:1"/>
</g>
</svg>
