<?xml version="1.0" encoding="UTF-8" standalone="no"?>
<!DOCTYPE svg PUBLIC "-//W3C//DTD SVG 1.0//EN" "http://www.w3.org/TR/2001/REC-SVG-20010904/DTD/svg10.dtd">
<svg xmlns:svg="http://www.w3.org/2000/svg" xmlns="http://www.w3.org/2000/svg" version="1.0" width="100%" height="100%" viewBox="0 0 48 48" id="_scissors02">
<defs id="defs2385"/>
<g id="scissors02" style="display:inline">
<path d="M 9.03,2.62 L 17.21,17.12 C 17.21,17.12 7.82,10.37 2.81,8.5 C 6.25,14.02 17.94,23.18 22.68,26 C 22.89,26.62 24.47,29.32 24.68,29.53 C 24.89,29.73 26.90,30.46 27.06,30.78 C 27.16,30.98 27.32,30.99 26.90,31.62 C 26.48,32.25 25.86,34.55 26.12,35.75 C 26.38,36.94 27.85,38.49 27.43,39.59 C 28.11,40.68 29.90,43.03 29.90,43.03 C 29.90,43.03 30.20,41.85 31.25,42.37 C 32.29,42.89 35.18,43.86 36.62,41.21 C 37.44,39.71 36.40,32.88 26.90,28.5 C 26.59,28.29 26.29,27.91 26.65,26.71 C 28.06,26.45 29.15,25.72 31.18,26.09 C 33.22,26.45 34.21,26.19 37.34,29.21 C 37.65,29.84 37.71,31.31 38.03,31.46 C 38.34,31.62 38.78,30.42 40.43,30.87 C 44.45,31.97 47.87,27.19 43,23.53 C 41.17,22.15 38.22,22.52 37.5,23.09 C 36.20,24.10 35.96,25.71 35.15,25.40 C 34.01,24.96 30.45,23.88 27.84,24.09 C 26.69,23.31 25.78,22.53 25.31,22.21 C 18.53,12.25 14.03,2.52 9.03,2.62 z M 40.43,23.40 C 41.21,23.48 41.81,23.92 42.21,24.18 C 43.01,24.72 45.41,26.42 43.81,28.93 C 42.21,31.44 39.61,29.71 39.15,29.40 C 38.69,29.10 36.30,27.10 37.75,24.78 C 38.73,23.60 39.66,23.33 40.43,23.40 z M 29.68,31.43 C 30.04,31.40 30.46,31.49 31,31.93 C 32.06,32.81 32.52,34.37 33.25,35.59 C 33.97,36.81 34.81,38.06 35.34,38.93 C 35.87,39.81 35.88,40.88 34.62,41.68 C 33.36,42.48 30.50,41.94 28.53,38.21 C 26.55,34.49 26.98,33.39 28.81,31.71 C 29.05,31.64 29.33,31.47 29.68,31.43 z" id="p3275" style="fill:#b7c2d2;fill-opacity:1;fill-rule:evenodd;stroke:none;"/>
<path d="M 14.93,10.09 C 14.78,10.10 14.63,10.14 14.5,10.21 C 14.79,10.57 14.74,11.07 14.84,11.5 C 15.08,11.82 15.69,11.88 15.53,12.40 C 15.87,12.77 16.45,12.83 16.78,13.25 C 17.32,13.51 17.24,14.17 17.65,14.53 C 18.30,14.63 17.93,13.70 18.21,13.37 C 18.53,13.05 18.72,12.65 18.90,12.25 C 18.80,12.09 18.69,11.93 18.59,11.78 C 18.37,11.80 18.11,11.85 18,11.71 C 17.73,11.31 17.25,11.36 16.87,11.18 C 16.41,10.79 16.05,10.21 15.40,10.12 C 15.25,10.08 15.09,10.08 14.93,10.09 z" id="p3412" style="fill:#46385a;fill-opacity:0.41;fill-rule:evenodd;stroke:none;display:inline"/>
<path d="M 2.81,8.5 C 6.25,14.02 17.94,23.18 22.68,26 C 22.89,26.62 24.47,29.32 24.68,29.53 C 24.89,29.73 26.90,30.46 27.06,30.78 C 27.16,30.98 27.32,30.99 26.90,31.62 C 26.48,32.25 25.86,34.55 26.12,35.75 C 26.38,36.94 27.85,38.49 27.43,39.59 C 28.11,40.68 29.90,43.03 29.90,43.03 C 29.90,43.03 30.20,41.85 31.25,42.37 C 32.29,42.89 35.18,43.86 36.62,41.21 C 37.44,39.71 36.40,32.88 26.90,28.5 C 26.59,28.29 26.29,27.91 26.65,26.71 C 28.06,26.45 29.15,25.72 31.18,26.09 C 33.22,26.45 34.21,26.19 37.34,29.21 C 37.65,29.84 37.71,31.31 38.03,31.46 C 38.34,31.62 38.78,30.42 40.43,30.87 C 44.45,31.97 47.87,27.19 43,23.53 C 41.17,22.15 38.22,22.52 37.5,23.09 C 36.20,24.10 35.96,25.71 35.15,25.40 C 34.01,24.96 30.45,23.88 27.84,24.09 C 26.69,23.31 25.78,22.53 25.31,22.21 L 25.28,22.31 L 22.78,20.34 C 22.78,20.34 22.51,20.40 22.31,20.46 C 21.58,20.46 20.07,18.94 18.68,18.09 C 18.42,17.93 17.82,17.50 17.12,16.96 L 17.21,17.12 C 17.21,17.12 7.82,10.37 2.81,8.5 z M 40.43,23.40 C 41.21,23.48 41.81,23.92 42.21,24.18 C 43.01,24.72 45.41,26.42 43.81,28.93 C 42.21,31.44 39.61,29.71 39.15,29.40 C 38.69,29.10 36.30,27.10 37.75,24.78 C 38.73,23.60 39.66,23.33 40.43,23.40 z M 29.68,31.43 C 30.04,31.40 30.46,31.49 31,31.93 C 32.06,32.81 32.52,34.37 33.25,35.59 C 33.97,36.81 34.81,38.06 35.34,38.93 C 35.87,39.81 35.88,40.88 34.62,41.68 C 33.36,42.48 30.50,41.94 28.53,38.21 C 26.55,34.49 26.98,33.39 28.81,31.71 C 29.05,31.64 29.33,31.47 29.68,31.43 z" id="p3279" style="fill:#afc6d8;fill-opacity:1;fill-rule:evenodd;stroke:none;display:inline"/>
<path d="M 21.59,20.18 C 21.30,20.91 21.43,21.78 22.34,21.81 C 23.27,21.60 24.13,21.91 24.81,22.59 C 25.18,23.00 25.53,22.88 25.81,22.59 C 25.64,22.46 25.42,22.29 25.31,22.21 L 25.28,22.31 L 22.78,20.34 C 22.78,20.34 22.51,20.40 22.31,20.46 C 22.12,20.46 21.87,20.35 21.59,20.18 z" id="p3445" style="fill:#ffffff;fill-opacity:0.47;fill-rule:evenodd;stroke:none;display:inline"/>
<path d="M 20.56,22.65 C 20.28,23.13 19.55,23.26 19.21,23.65 C 20.54,24.60 21.76,25.45 22.68,26 C 22.70,26.03 22.75,26.13 22.78,26.18 C 23.65,26.51 24.51,26.88 25.43,27 C 25.85,26.84 26.25,26.79 26.62,26.87 C 26.64,26.81 26.63,26.78 26.65,26.71 C 27.61,26.54 28.41,26.15 29.46,26.03 C 29.25,25.36 29.07,24.69 28.75,24.06 C 28.44,24.05 28.13,24.07 27.84,24.09 C 27.17,23.63 26.62,23.20 26.15,22.84 C 25.43,22.95 24.44,22.93 25.31,23.65 C 25.39,24.53 24.11,25.34 23.21,25.18 C 22.02,24.77 21.23,23.67 20.56,22.65 z" id="p3441" style="fill:#692918;fill-opacity:0.19;fill-rule:evenodd;stroke:none;display:inline"/>
<path d="M 26.18,23.40 C 25.23,23.71 25.33,25.25 24.06,25.15 C 22.97,25.14 22.50,26.42 23.81,26.43 C 24.73,26.43 25.70,26.91 26.62,26.90 C 26.64,26.83 26.63,26.79 26.65,26.71 C 27.12,26.63 27.58,26.50 28.03,26.37 C 28.70,25.84 28.95,24.73 28.46,24.06 C 28.26,24.06 28.04,24.07 27.84,24.09 C 27.68,23.98 27.55,23.89 27.40,23.78 C 26.97,23.78 26.55,23.79 26.18,23.40 z" id="p3447" style="fill:#904e30;fill-opacity:0.14;fill-rule:evenodd;stroke:none;display:inline"/>
<path d="M 39.84,22.59 C 38.78,22.58 37.86,22.81 37.5,23.09 C 36.20,24.10 35.96,25.71 35.15,25.40 C 34.02,24.96 30.53,23.91 27.93,24.09 C 28.24,25.21 28.19,25.80 28.03,26.34 C 28.91,26.07 29.83,25.85 31.18,26.09 C 33.22,26.45 34.21,26.19 37.34,29.21 C 37.65,29.84 37.71,31.31 38.03,31.46 C 38.34,31.62 38.78,30.42 40.43,30.87 C 44.45,31.97 47.87,27.19 43,23.53 C 42.08,22.84 40.89,22.60 39.84,22.59 z M 40.43,23.40 C 41.21,23.48 41.81,23.92 42.21,24.18 C 43.01,24.72 45.41,26.42 43.81,28.93 C 42.21,31.44 39.61,29.71 39.15,29.40 C 38.69,29.10 36.30,27.10 37.75,24.78 C 38.73,23.60 39.66,23.33 40.43,23.40 z M 23.53,27.65 C 24.02,28.53 24.57,29.41 24.68,29.53 C 24.89,29.73 26.90,30.46 27.06,30.78 C 27.16,30.98 27.32,30.99 26.90,31.62 C 26.48,32.25 25.86,34.55 26.12,35.75 C 26.38,36.94 27.85,38.49 27.43,39.59 C 28.11,40.68 29.90,43.03 29.90,43.03 C 29.90,43.03 30.20,41.85 31.25,42.37 C 32.29,42.89 35.18,43.86 36.62,41.21 C 37.44,39.71 36.40,32.88 26.90,28.5 C 25.59,28.08 24.45,27.83 23.53,27.65 z M 29.68,31.43 C 30.04,31.40 30.46,31.49 31,31.93 C 32.06,32.81 32.52,34.37 33.25,35.59 C 33.97,36.81 34.81,38.06 35.34,38.93 C 35.87,39.81 35.88,40.88 34.62,41.68 C 33.36,42.48 30.50,41.94 28.53,38.21 C 26.55,34.49 26.98,33.39 28.81,31.71 C 29.05,31.64 29.33,31.47 29.68,31.43 z" id="p3277" style="fill:#25252b;fill-opacity:1;fill-rule:evenodd;stroke:none;display:inline"/>
<path d="M 2.81,8.5 C 5.67,13.09 14.18,20.14 19.71,24.03 C 20.80,23.18 21.86,21.75 22.75,20.34 C 22.71,20.35 22.49,20.40 22.31,20.46 C 21.58,20.46 20.07,18.94 18.68,18.09 C 18.42,17.93 17.82,17.50 17.12,16.96 L 17.21,17.12 C 17.21,17.12 7.82,10.37 2.81,8.5 z" id="p3281" style="fill:#a58877;fill-opacity:1;fill-rule:evenodd;stroke:none;display:inline"/>
<path d="M 2.81,8.5 C 5.49,12.81 13.14,19.26 18.65,23.25 C 18.56,22.61 18.05,21.97 18.75,21.37 C 19.08,20.57 18.46,21.13 18.03,21.25 C 17.03,21.60 16.45,20.74 16.5,19.87 C 16.57,18.59 14.64,18.88 14.68,17.78 C 15.32,16.85 14.05,17.30 13.71,16.96 C 14.00,16.40 13.98,15.85 13.15,16 C 11.90,15.94 12.13,14.18 11.18,13.59 C 10.75,12.84 10.11,12.87 9.59,13.5 C 9.10,13.14 8.65,12.30 8.59,11.56 C 8.51,11.48 8.41,11.39 8.31,11.31 C 7.93,11.08 7.56,10.83 7.18,10.62 C 7.00,10.55 6.80,10.51 6.62,10.5 C 5.90,11.21 5.74,10.45 5.53,9.75 C 4.55,9.24 3.61,8.80 2.81,8.5 z" id="p3363" style="fill:#5a2115;fill-opacity:0.24;fill-rule:evenodd;stroke:none;display:inline"/>
<path d="M 9.03,2.62 L 13.87,11.21 C 14.22,11.06 14.54,10.81 14.78,10.5 C 15.41,10.98 15.89,12.19 16.03,13.18 C 16.21,14.31 16.19,12.97 16.81,13.43 C 17.27,14.58 19.18,14.21 18.53,12.93 C 17.78,12.36 15.79,11.76 16.53,10.53 C 17.07,10.45 17.31,10.12 17.28,9.81 C 17.18,9.66 17.06,9.51 16.96,9.37 C 16.86,9.30 16.74,9.21 16.59,9.18 C 15.38,8.63 14.48,7.67 14.34,6.31 C 14.31,6.13 14.29,5.95 14.25,5.78 C 14.24,5.77 14.25,5.75 14.25,5.75 C 12.49,3.77 10.78,2.58 9.03,2.62 z" id="p3379" style="fill:#97581e;fill-opacity:0.34;fill-rule:evenodd;stroke:none;display:inline"/>
<path d="M 10.03,2.75 C 10.98,3.71 12.03,4.66 12.62,5.75 C 14.00,6.19 13.97,7.66 14.90,8.59 C 15.14,9.20 16.83,10.98 15.12,10.56 C 14.42,10.31 14.19,10.80 13.96,11.34 L 16.46,15.81 C 17.05,16.07 17.67,16.28 18.25,16.56 C 19.58,16.79 20.53,17.54 21.25,18.62 C 21.69,19.42 19.02,18.32 20.5,19.03 C 21.52,19.22 22.53,19.41 23.37,19.90 C 23.53,19.89 23.64,19.88 23.75,19.84 C 23.51,19.48 23.26,19.10 23.03,18.75 C 22.13,18.67 22.13,18.17 22.28,17.59 C 21.34,16.11 20.45,14.70 19.59,13.34 C 19.05,13.11 18.47,12.90 18.25,12.31 C 17.33,11.50 17.05,10.35 16.68,9.28 C 16.17,8.23 14.29,8.03 14.68,6.65 C 14.74,6.58 14.76,6.50 14.81,6.43 C 13.18,4.46 11.62,3.12 10.03,2.75 z" id="p3367" style="fill:#515760;fill-opacity:0.27;fill-rule:evenodd;stroke:none;display:inline"/>
<path d="M 2.81,8.5 C 3.36,9.39 4.14,10.39 5.06,11.43 C 5.07,11.44 5.08,11.46 5.09,11.46 C 5.73,11.68 6.21,12.17 6.56,12.81 C 7.26,13.45 8.51,12.61 8.84,13.87 C 9.61,14.39 10.07,15.22 10.81,15.78 C 11.65,15.92 12.94,15.32 13.09,16.62 C 13.83,17.41 12.69,18.02 12.75,18.68 C 13.21,19.07 13.69,19.43 14.15,19.81 C 14.52,19.69 14.84,19.44 14.84,19.25 C 15.13,19.90 16.46,21.40 16.78,20.09 C 16.50,18.94 14.64,19.04 14.65,17.75 C 14.46,16.85 16.30,17.69 15.34,16.81 C 14.51,16.75 13.41,17.18 13.28,15.96 C 12.91,15.04 12.19,14.68 11.25,14.81 C 10.91,14.25 10.51,12.93 9.62,13.06 C 9.49,13.51 9.31,14.17 9.06,13.31 C 9.40,12.70 9.23,12.19 8.90,11.68 C 8.89,11.67 8.88,11.66 8.87,11.65 C 6.70,10.35 4.51,9.13 2.81,8.5 z" id="p3381" style="fill:#5b2112;fill-opacity:0.15;fill-rule:evenodd;stroke:none;display:inline"/>
<path d="M 16.62,16.68 C 17.08,17.48 17.50,18.30 18.06,19.03 C 18.18,20.32 16.55,19.14 16.25,20.21 C 16.01,20.44 15.81,20.72 15.68,21.03 C 16.00,21.27 16.31,21.51 16.62,21.75 C 16.76,21.65 16.89,21.55 17,21.46 C 17.23,20.58 18.29,20.78 18.93,21.06 C 19.57,21.73 18.19,22.38 18.43,23.09 C 18.56,23.18 18.68,23.28 18.81,23.37 C 19.43,23.17 19.60,22.14 20.46,22.28 C 20.97,21.70 21.47,21.02 21.93,20.37 C 21.13,20.03 19.86,18.82 18.68,18.09 C 18.42,17.93 17.82,17.50 17.12,16.96 L 17.21,17.12 C 17.21,17.12 16.79,16.80 16.62,16.68 z" id="p3396" style="fill:#deb579;fill-opacity:0.20;fill-rule:evenodd;stroke:none;display:inline"/>
<path d="M 9.75,2.68 C 10.19,3.80 11.51,4.20 12.18,5.28 C 12.80,6.25 13.51,7.11 14.25,8 C 14.71,9.17 13.95,6.96 13.96,6.5 C 13.45,5.92 13.23,5.25 13.03,4.56 C 11.92,3.54 10.86,2.87 9.75,2.68 z" id="p3402" style="fill:#e0e4e4;fill-opacity:0.32;fill-rule:evenodd;stroke:none;display:inline"/>
<path d="M 17.28,9.84 C 16.95,10.67 16.69,11.53 17.5,12.21 C 18.21,13.11 18.91,15.12 19.28,15.43 C 20.22,15.94 19.96,16.79 19.21,16.68 C 19.71,17.06 19.71,18.74 20.46,17.96 C 21.79,18.74 21.25,20.89 23.15,21 C 24.08,21.28 25.27,23.07 26.18,22.87 C 25.82,22.59 25.51,22.35 25.31,22.21 C 22.25,17.73 19.66,13.36 17.28,9.84 z M 19.21,16.68 C 19.14,16.62 19.07,16.60 18.96,16.62 C 19.05,16.65 19.14,16.67 19.21,16.68 z M 18.96,16.62 C 18.90,16.60 18.84,16.56 18.78,16.53 C 18.21,16.61 17.55,17.97 18.40,16.96 C 18.63,16.73 18.82,16.64 18.96,16.62 z" id="p3404" style="fill:#e0e4e4;fill-opacity:0.41;fill-rule:evenodd;stroke:none;display:inline"/>
<path d="M 17.06,12 C 16.94,12.00 16.89,12.09 16.96,12.37 C 17.21,13.16 17.48,14.30 16.65,14.84 C 16.32,14.89 16.16,15.02 16.12,15.18 L 16.56,16 C 16.57,16.00 16.58,16.02 16.59,16.03 C 16.74,16.15 16.90,16.25 17.06,16.31 C 17.74,16.49 17.35,17.72 18.21,17.21 C 18.80,17.12 18.71,15.89 19.15,16.62 C 19.64,16.96 20.96,17.26 20.37,18.06 C 20.01,18.80 21.56,19.10 22.09,19.5 C 22.33,19.97 23.12,19.73 22.62,19.28 C 21.91,18.86 21.73,18.18 21.87,17.46 C 21.84,17.25 21.80,17.00 21.78,16.78 C 21.77,16.77 21.78,16.75 21.78,16.75 C 21.39,16.14 20.99,15.52 20.62,14.93 C 19.99,15.25 19.19,15.96 18.75,14.96 C 17.91,14.32 18.28,13.11 17.75,12.31 C 17.59,12.23 17.25,11.99 17.06,12 z" id="p3430" style="fill:#46385a;fill-opacity:0.15;fill-rule:evenodd;stroke:none;display:inline"/>
<path d="M 23.59,22.25 C 23.02,22.36 22.57,22.88 22.56,23.5 C 22.55,24.20 23.12,24.78 23.81,24.78 C 24.50,24.78 25.05,24.20 25.06,23.5 C 25.07,22.79 24.53,22.25 23.84,22.25 C 23.75,22.25 23.67,22.23 23.59,22.25 z" id="p3498" style="opacity:1;fill:#c5dced;fill-opacity:1;fill-rule:evenodd;stroke:none;marker:none;visibility:visible;display:inline;overflow:visible;enable-background:accumulate"/>
<path d="M 23.84,22.37 C 23.23,22.37 22.72,22.87 22.71,23.5 C 22.71,23.52 22.71,23.54 22.71,23.56 C 22.72,23.56 22.74,23.55 22.75,23.56 C 23.13,23.72 23.40,24.11 23.40,24.56 C 23.52,24.61 23.67,24.62 23.81,24.62 C 24.41,24.62 24.89,24.12 24.90,23.5 C 24.90,23.48 24.90,23.47 24.90,23.46 C 24.53,23.28 24.27,22.91 24.28,22.46 C 24.15,22.41 23.99,22.37 23.84,22.37 z" id="p3500" style="opacity:1;fill:#876a64;fill-opacity:1;fill-rule:evenodd;stroke:none;marker:none;visibility:visible;display:inline;overflow:visible;enable-background:accumulate"/>
<path d="M 23.36,23.54 C 23.36,23.54 23.80,23.28 23.92,23.16" id="p3510" style="fill:none;fill-rule:evenodd;stroke:#d2eff2;stroke-width:0.60;stroke-linecap:round;stroke-linejoin:miter;stroke-miterlimit:4;stroke-dasharray:none;stroke-opacity:0.45;display:inline"/>
<path d="M 23.56,23.40 L 23.66,23.56" id="p3513" style="fill:none;fill-rule:evenodd;stroke:#ffffff;stroke-width:0.80;stroke-linecap:round;stroke-linejoin:miter;stroke-miterlimit:4;stroke-dasharray:none;stroke-opacity:0.41"/>
<path d="M 39.84,22.59 C 38.78,22.58 37.86,22.81 37.5,23.09 C 36.64,23.76 36.24,24.69 35.84,25.15 C 36.31,25.52 36.81,25.87 37.31,26.21 C 37.32,25.76 37.43,25.28 37.75,24.78 C 38.73,23.60 39.66,23.33 40.43,23.40 C 41.21,23.48 41.81,23.92 42.21,24.18 C 43.01,24.72 45.41,26.42 43.81,28.93 C 42.21,31.44 39.61,29.71 39.15,29.40 C 39.15,29.40 39.13,29.37 39.12,29.37 C 38.83,30.00 38.18,30.58 37.90,31.28 C 37.94,31.36 37.98,31.44 38.03,31.46 C 38.34,31.62 38.78,30.42 40.43,30.87 C 44.45,31.97 47.87,27.19 43,23.53 C 42.08,22.84 40.89,22.60 39.84,22.59 z" id="p3515" style="fill:#bbada1;fill-opacity:0.24;fill-rule:evenodd;stroke:none;display:inline"/>
<path d="M 36.75,40.81 C 36.39,41.01 36.06,41.20 35.71,41.25 C 35.43,41.40 35.19,41.43 34.96,41.40 C 34.86,41.49 34.76,41.60 34.62,41.68 C 33.80,42.20 32.30,42.13 30.81,41 C 30.28,41.39 29.80,41.90 29.5,42.46 C 29.63,42.64 29.90,43.03 29.90,43.03 C 29.90,43.03 30.20,41.85 31.25,42.37 C 32.29,42.89 35.18,43.86 36.62,41.21 C 36.68,41.11 36.71,40.96 36.75,40.81 z" id="p3517" style="fill:#bbada1;fill-opacity:0.24;fill-rule:evenodd;stroke:none;display:inline"/>
<path d="M 27.93,24.09 C 28.24,25.21 28.19,25.80 28.03,26.34 C 28.53,26.19 29.05,26.07 29.65,26.03 C 29.72,25.40 29.81,24.76 29.93,24.15 C 29.24,24.08 28.56,24.05 27.93,24.09 z" id="p3519" style="fill:#a1adbb;fill-opacity:0.11;fill-rule:evenodd;stroke:none;display:inline"/>
<path d="M 26.45,33.54 C 26.21,36.24 27.44,39.07 31.19,42.03" id="p3541" style="fill:none;fill-rule:evenodd;stroke:#514d4a;stroke-width:0.60;stroke-linecap:round;stroke-linejoin:miter;stroke-miterlimit:4;stroke-dasharray:none;stroke-opacity:1;display:inline"/>
<path d="M 34.82,42.21 L 35.68,41.72" id="p3544" style="fill:none;fill-rule:evenodd;stroke:#dedede;stroke-width:0.80;stroke-linecap:butt;stroke-linejoin:miter;stroke-miterlimit:4;stroke-dasharray:none;stroke-opacity:1;display:inline"/>
<path d="M 27.44,32.80 C 28.30,31.32 28.97,30.71 29.53,30.52" id="p3547" style="fill:none;fill-rule:evenodd;stroke:#c2c2c2;stroke-width:0.30;stroke-linecap:round;stroke-linejoin:miter;stroke-miterlimit:4;stroke-dasharray:none;stroke-opacity:1;display:inline"/>
<path d="M 36.48,26.71 C 36.73,23.57 38.39,22.83 39.50,22.71" id="p3553" style="fill:none;fill-rule:evenodd;stroke:#fcfcfc;stroke-width:0.30;stroke-linecap:round;stroke-linejoin:miter;stroke-miterlimit:4;stroke-dasharray:none;stroke-opacity:0.62;display:inline"/>
<path d="M 35.87,26.03 L 36.11,26.71" id="p3556" style="fill:none;fill-rule:evenodd;stroke:#d3f6f7;stroke-width:0.40;stroke-linecap:round;stroke-linejoin:miter;stroke-miterlimit:4;stroke-dasharray:none;stroke-opacity:0.45;display:inline"/>
<path d="M 42.06,23 C 43.86,24.47 44.41,25.78 44.31,26.84 C 44.31,26.86 44.30,26.88 44.31,26.90 C 44.30,26.94 44.31,26.99 44.31,27.03 C 44.37,27.60 44.26,28.23 43.81,28.93 C 42.46,31.05 40.48,30.17 39.59,29.65 C 39.11,29.69 39.20,29.95 39.59,30.81 C 39.83,30.79 40.10,30.78 40.43,30.87 C 44.45,31.97 47.87,27.19 43,23.53 C 42.70,23.31 42.39,23.13 42.06,23 z" id="p3539" style="fill:#dfe3e8;fill-opacity:0.24;fill-rule:evenodd;stroke:none;display:inline"/>
<path d="M 35.44,27.32 C 37.53,28.80 38.76,30.03 39.93,30.40" id="p3550" style="fill:none;fill-rule:evenodd;stroke:#525252;stroke-width:0.5;stroke-linecap:round;stroke-linejoin:miter;stroke-miterlimit:4;stroke-dasharray:none;stroke-opacity:1;display:inline"/>
<path d="M 37.39,28.83 L 38.73,29.85" id="p3563" style="fill:none;fill-rule:evenodd;stroke:#d3d3d3;stroke-width:0.60;stroke-linecap:butt;stroke-linejoin:miter;stroke-miterlimit:4;stroke-dasharray:none;stroke-opacity:1"/>
<path d="M 28.59,30.78 L 29.35,30.38" id="p3565" style="fill:none;fill-rule:evenodd;stroke:#e1e1e1;stroke-width:0.5;stroke-linecap:round;stroke-linejoin:miter;stroke-miterlimit:4;stroke-dasharray:none;stroke-opacity:1;display:inline"/>
<path d="M 28.26,24.29 C 28.26,24.29 28.97,24.84 29.13,25.05" id="p3568" style="fill:none;fill-rule:evenodd;stroke:#afbcce;stroke-width:0.60;stroke-linecap:round;stroke-linejoin:miter;stroke-miterlimit:4;stroke-dasharray:none;stroke-opacity:0.21"/>
<path d="M 24.85,28.34 C 25.32,28.46 26.87,28.88 27.39,28.93" id="p3570" style="fill:none;fill-rule:evenodd;stroke:#dcdcdc;stroke-width:0.30;stroke-linecap:round;stroke-linejoin:miter;stroke-miterlimit:4;stroke-dasharray:none;stroke-opacity:0.17"/>
<path d="M 25.41,28.48 L 24.87,28.37" id="p3572" style="fill:none;fill-rule:evenodd;stroke:#e3e3e3;stroke-width:0.5;stroke-linecap:round;stroke-linejoin:miter;stroke-miterlimit:4;stroke-dasharray:none;stroke-opacity:0.45"/>
<path d="M 24.55,26.72 C 23.95,27.52 23.35,27.32 23.35,27.32 L 22.71,26.06 L 24.55,26.72 z" id="p3574" style="fill:#6e2a15;fill-opacity:0.49;fill-rule:evenodd;stroke:none;display:inline"/>
<path d="M 22.60,20.81 C 22.19,21.42 20.55,23.47 20.30,23.59" id="p3474" style="fill:none;fill-rule:evenodd;stroke:#efefef;stroke-width:0.2;stroke-linecap:round;stroke-linejoin:miter;stroke-miterlimit:4;stroke-dasharray:none;stroke-opacity:1"/>
<path d="M 17.06,16.97 C 18.09,17.69 21.30,20.05 21.85,20.36 C 22.40,20.67 22.67,20.36 22.67,20.36 L 25.34,22.24" id="p3295" style="fill:none;fill-rule:evenodd;stroke:#202833;stroke-width:0.30;stroke-linecap:butt;stroke-linejoin:round;stroke-miterlimit:4;stroke-dasharray:none;stroke-opacity:1"/>
<path d="M 23.37,21.54 L 22.70,21.13" id="p3476" style="fill:none;fill-rule:evenodd;stroke:#eaeaea;stroke-width:0.80;stroke-linecap:round;stroke-linejoin:miter;stroke-miterlimit:4;stroke-dasharray:none;stroke-opacity:1"/>
<path d="M 22.81,26.04 L 25.31,26.99 L 26.61,26.72" id="p3297" style="opacity:1;fill:none;fill-opacity:1;fill-rule:evenodd;stroke:#202833;stroke-width:0.30;stroke-linecap:butt;stroke-linejoin:round;marker:none;stroke-miterlimit:4;stroke-dasharray:none;stroke-dashoffset:0;stroke-opacity:1;visibility:visible;display:inline;overflow:visible;enable-background:accumulate"/>
<path d="M 9.03,2.62 L 17.21,17.12 C 17.21,17.12 7.82,10.37 2.81,8.5 C 6.25,14.02 17.94,23.18 22.68,26 C 22.89,26.62 24.47,29.32 24.68,29.53 C 24.89,29.73 26.90,30.46 27.06,30.78 C 27.16,30.98 27.32,30.99 26.90,31.62 C 26.48,32.25 25.86,34.55 26.12,35.75 C 26.38,36.94 27.85,38.49 27.43,39.59 C 28.11,40.68 29.90,43.03 29.90,43.03 C 29.90,43.03 30.20,41.85 31.25,42.37 C 32.29,42.89 35.18,43.86 36.62,41.21 C 37.44,39.71 36.40,32.88 26.90,28.5 C 26.59,28.29 26.29,27.91 26.65,26.71 C 28.06,26.45 29.15,25.72 31.18,26.09 C 33.22,26.45 34.21,26.19 37.34,29.21 C 37.65,29.84 37.71,31.31 38.03,31.46 C 38.34,31.62 38.78,30.42 40.43,30.87 C 44.45,31.97 47.87,27.19 43,23.53 C 41.17,22.15 38.22,22.52 37.5,23.09 C 36.20,24.10 35.96,25.71 35.15,25.40 C 34.01,24.96 30.45,23.88 27.84,24.09 C 26.69,23.31 25.78,22.53 25.31,22.21 C 18.53,12.25 14.03,2.52 9.03,2.62 z M 40.43,23.40 C 41.21,23.48 41.81,23.92 42.21,24.18 C 43.01,24.72 45.41,26.42 43.81,28.93 C 42.21,31.44 39.61,29.71 39.15,29.40 C 38.69,29.10 36.30,27.10 37.75,24.78 C 38.73,23.60 39.66,23.33 40.43,23.40 z M 29.68,31.43 C 30.04,31.40 30.46,31.49 31,31.93 C 32.06,32.81 32.52,34.37 33.25,35.59 C 33.97,36.81 34.81,38.06 35.34,38.93 C 35.87,39.81 35.88,40.88 34.62,41.68 C 33.36,42.48 30.50,41.94 28.53,38.21 C 26.55,34.49 26.98,33.39 28.81,31.71 C 29.05,31.64 29.33,31.47 29.68,31.43 z" id="stroke01" style="fill:none;fill-rule:evenodd;stroke:#000000;stroke-width:0.5;stroke-linecap:butt;stroke-linejoin:miter;stroke-miterlimit:4;stroke-dasharray:none;stroke-opacity:1"/>
</g>
</svg>
