<?xml version="1.0" encoding="UTF-8" standalone="no"?>
<!DOCTYPE svg PUBLIC "-//W3C//DTD SVG 1.0//EN" "http://www.w3.org/TR/2001/REC-SVG-20010904/DTD/svg10.dtd">
<svg xmlns:svg="http://www.w3.org/2000/svg" xmlns="http://www.w3.org/2000/svg" version="1.0" width="100%" height="100%" viewBox="0 0 48 48" id="_shovel01">
<defs id="defs2385"/>
<g id="shovel01" style="display:inline">
<path d="M 35.09,3.21 C 34.78,3.25 32.92,6.01 32.87,6.96 C 32.74,9.68 32.41,9.74 31.75,10.71 C 31.08,11.69 26.01,17.92 23.75,20.75 C 21.48,23.57 20.88,23.91 19.53,26.34 C 19.00,27.28 17.65,30.14 17.09,30.96 C 16.35,30.39 15.62,29.76 15.06,29.28 C 14.50,28.79 14.22,28.24 13.84,28.31 C 13.46,28.38 10.61,30.86 9.18,32.18 C 7.75,33.51 7.12,35.03 6.81,36.25 C 6.49,37.46 6.25,38.57 6.53,39.93 C 6.81,41.29 7.14,42.58 8.75,42.68 C 10.35,42.79 12.42,42.49 13.18,42.21 C 13.95,41.93 15.25,41.18 16.37,40.34 C 17.49,39.50 21.32,35.98 21.78,35.53 C 22.23,35.07 22.37,34.81 22.37,34.81 C 22.37,34.81 22.31,34.62 21.37,34.28 C 20.43,33.93 20.42,33.50 19.93,33.15 C 19.44,32.80 19.65,32.88 19.37,32.62 C 21.04,30.02 21.26,28.59 22.68,26.59 C 25.07,23.24 30.62,16.50 33.03,13.15 C 35.43,9.81 36.84,11.21 38.93,9.09 C 39.42,8.59 41.05,6.79 40.84,6.37 C 40.63,5.95 38.77,4.84 37.62,4.25 C 36.47,3.65 35.40,3.18 35.09,3.21 z M 35.31,5.03 C 35.73,5.27 36.30,5.81 36.96,6.18 C 38.01,6.78 38.46,6.86 38.79,7.07 C 38.58,7.41 38.32,7.88 37.83,8.26 C 37.25,8.72 35.79,9.17 35.34,9.28 C 34.89,9.38 33.90,10.06 33.90,10.06 L 33.81,10 C 33.81,10 33.97,9.62 33.93,9.31 C 33.90,8.99 33.88,7.78 34.06,7.15 C 34.23,6.52 35.31,5.03 35.31,5.03 z" id="p2481" style="fill:#5f6050;fill-opacity:1;fill-rule:evenodd;stroke:none;"/>
<path d="M 31.13,12.40 C 31.44,11.97 31.68,11.68 31.95,11.40 C 32.23,11.13 32.25,11.24 32.34,11.40 C 32.44,11.56 32.42,11.60 32.21,11.89 C 31.99,12.19 31.30,12.97 31.17,13.15 C 31.03,13.33 30.91,12.99 30.81,12.95 C 30.71,12.91 30.75,12.87 31.13,12.40 z" id="p3255" style="fill:#aeaaa7;fill-opacity:0.33;fill-rule:evenodd;stroke:none;"/>
<path d="M 35.90,3.46 C 35.39,3.89 35.27,4.38 35.34,5.06 C 35.75,5.31 36.31,5.81 36.96,6.18 C 38.01,6.78 38.45,6.85 38.78,7.06 C 38.77,7.07 38.76,7.10 38.75,7.12 C 39.33,6.65 39.71,6.06 39.93,5.59 C 39.24,5.12 38.31,4.60 37.62,4.25 C 37.00,3.92 36.40,3.65 35.93,3.46 C 35.92,3.46 35.91,3.47 35.90,3.46 z" id="p3260" style="fill:#78653d;fill-opacity:1;fill-rule:evenodd;stroke:none;display:inline"/>
<path d="M 30.25,12.65 C 28.40,14.99 25.37,18.72 23.75,20.75 C 23.30,21.30 23.11,21.50 22.78,21.90 C 23.57,22.73 24.26,23.28 24.90,23.62 C 27.27,20.56 30.27,16.84 32.21,14.25 C 31.56,13.55 30.91,13.04 30.25,12.65 z" id="p3262" style="fill:#9d7f56;fill-opacity:1;fill-rule:evenodd;stroke:none;display:inline"/>
<path d="M 13.84,28.31 C 13.46,28.38 10.61,30.86 9.18,32.18 C 7.75,33.51 7.12,35.03 6.81,36.25 C 6.49,37.46 6.25,38.57 6.53,39.93 C 6.81,41.29 7.14,42.58 8.75,42.68 C 10.35,42.79 12.42,42.49 13.18,42.21 C 13.27,42.18 13.39,42.13 13.5,42.09 C 13.33,37.21 14.44,33.18 15.59,29.71 C 15.42,29.57 15.20,29.40 15.06,29.28 C 14.50,28.79 14.22,28.24 13.84,28.31 z" id="p3318" style="fill:#555146;fill-opacity:0.70;fill-rule:evenodd;stroke:none;display:inline"/>
<path d="M 13.84,28.31 C 13.46,28.38 10.61,30.86 9.18,32.18 C 7.75,33.51 7.12,35.03 6.81,36.25 C 6.77,36.40 6.72,36.56 6.68,36.71 C 10.02,34.28 11.59,35.92 12.5,35.25 C 13.21,34.71 14.22,31.91 14.90,29.12 C 14.46,28.68 14.18,28.25 13.84,28.31 z" id="p3264" style="fill:#2d2e26;fill-opacity:0.53;fill-rule:evenodd;stroke:none;display:inline"/>
<path d="M 20.37,30.93 C 19.41,31.16 18.57,31.33 18.21,31.43 C 17.57,31.62 15.80,34.41 15.06,35.06 C 14.32,35.70 14.22,37.18 14.96,37.18 C 15.70,37.18 19.05,35.15 16.46,37.09 C 14.23,38.76 13.69,38.39 9.34,42.68 C 10.83,42.70 12.51,42.46 13.18,42.21 C 13.95,41.93 15.25,41.18 16.37,40.34 C 16.49,40.25 16.73,40.04 16.90,39.90 C 18.97,36.18 20.14,34.67 21,34.09 C 20.44,33.78 20.34,33.44 19.93,33.15 C 19.44,32.80 19.65,32.88 19.37,32.62 C 19.77,32.00 20.10,31.45 20.37,30.93 z" id="p3316" style="fill:#535244;fill-opacity:0.89;fill-rule:evenodd;stroke:none;display:inline"/>
<path d="M 7.81,33.87 C 7.31,34.69 6.99,35.53 6.81,36.25 C 6.49,37.46 6.25,38.57 6.53,39.93 C 6.81,41.29 7.14,42.58 8.75,42.68 C 10.35,42.79 12.42,42.49 13.18,42.21 C 13.90,41.95 15.09,41.27 16.15,40.5 C 11.66,41.62 11.22,40.50 10.43,40.03 C 9.51,39.47 7.40,39.94 7.12,38.46 C 6.98,37.72 7.22,36.07 7.81,33.87 z" id="p3292" style="fill:#2a3133;fill-opacity:0.47;fill-rule:evenodd;stroke:none;display:inline"/>
<path d="M 6.53,37.56 C 6.40,38.31 6.35,39.07 6.53,39.93 C 6.81,41.29 7.14,42.58 8.75,42.68 C 9.25,42.72 9.79,42.69 10.34,42.65 C 10.13,41.87 9.89,41.10 9.53,40.59 C 8.67,39.38 7.75,39.74 6.53,37.56 z" id="p3266" style="fill:#d7890f;fill-opacity:0.28;fill-rule:evenodd;stroke:none;display:inline"/>
<path d="M 20.65,33.84 C 19.59,35.41 18.47,37.40 17.37,39.53 C 18.94,38.18 21.41,35.89 21.78,35.53 C 22.23,35.07 22.37,34.81 22.37,34.81 C 22.37,34.81 22.31,34.62 21.37,34.28 C 21.01,34.14 20.82,33.99 20.65,33.84 z" id="p3268" style="fill:#bfc0b3;fill-opacity:0.53;fill-rule:evenodd;stroke:none;display:inline"/>
<path d="M 40.62,6.15 C 39.81,6.16 39.44,7.24 39.03,7.84 C 38.48,8.64 37.43,9.17 36.25,9.56 C 35.06,9.95 34.09,10.44 33.5,10.87 C 32.90,11.30 23.86,22.79 23.34,23.84 C 22.81,24.89 21.72,25.84 21.21,26.59 C 20.71,27.34 20.81,27.56 20.65,27.81 C 20.49,28.06 20.28,27.96 20.03,28.37 C 19.78,28.78 19.99,29.17 19.81,29.46 C 19.63,29.76 19.45,29.79 19.25,30.15 C 19.04,30.52 19.16,30.91 19.03,31.12 C 18.89,31.33 18.55,31.47 18.68,31.90 C 18.77,32.17 18.98,32.41 19.40,32.59 C 21.05,30.02 21.27,28.58 22.68,26.59 C 25.07,23.24 30.62,16.50 33.03,13.15 C 35.43,9.81 36.84,11.21 38.93,9.09 C 39.42,8.59 41.05,6.79 40.84,6.37 C 40.81,6.32 40.76,6.25 40.68,6.18 C 40.67,6.17 40.63,6.16 40.62,6.15 z" id="p3290" style="fill:#2a271d;fill-opacity:0.65;fill-rule:evenodd;stroke:none;display:inline"/>
<path d="M 15.18,29.37 C 14.64,31.42 13.66,35.27 13.87,35.78 C 14.15,36.42 16.64,34.87 15.90,34.87 C 15.25,34.87 14.88,35.65 16.75,30.68 C 16.18,30.23 15.63,29.76 15.18,29.37 z" id="p3294" style="fill:#c7c8bd;fill-opacity:0.28;fill-rule:evenodd;stroke:none;display:inline"/>
<path d="M 8.75,40.96 C 8.27,40.98 7.74,41.23 7.09,41.62 C 7.41,42.20 7.87,42.63 8.75,42.68 C 9.37,42.72 10.05,42.68 10.71,42.62 C 10.08,41.44 9.48,40.93 8.75,40.96 z" id="p3314" style="fill:#bb8844;fill-opacity:0.50;fill-rule:evenodd;stroke:none;display:inline"/>
<path d="M 14.21,28.43 C 12.89,30.71 11.17,33.38 10.53,34.03 C 9.93,34.62 8.70,35.38 7.28,34.96 C 7.17,35.21 7.07,35.45 7,35.68 C 7.05,35.78 7.10,35.90 7.12,35.96 C 7.33,36.71 6.55,37.62 7,38.15 C 7.44,38.69 9.93,41.05 11.75,40.18 C 13.56,39.32 14.95,37.92 15.37,37.62 C 15.79,37.32 18.56,35.34 17.43,35.93 C 16.30,36.53 14.12,36.66 14.06,36.18 C 14.00,35.71 14.26,33.73 15.18,32.15 C 15.56,31.50 15.92,30.82 16.21,30.21 C 15.82,29.89 15.37,29.55 15.06,29.28 C 14.69,28.95 14.45,28.61 14.21,28.43 z" id="p3332" style="fill:#989a86;fill-opacity:0.22;fill-rule:evenodd;stroke:none;display:inline"/>
<path d="M 19.31,30.12 C 18.98,30.09 19.51,30.76 19.28,30.96 C 19.04,31.17 18.54,31.58 18.25,31.46 C 17.95,31.34 17.70,32.01 17.37,32.28 C 17.04,32.54 15.93,34.00 15.28,34.75 C 14.95,35.07 16.04,34.55 16.40,34.31 C 16.76,34.07 17.77,34.17 18.21,33.84 C 18.66,33.51 19.18,32.18 19.18,32.18 L 19.84,31.81 C 20.10,31.37 20.33,31.00 20.53,30.62 C 20.03,30.37 19.49,30.14 19.31,30.12 z" id="p3334" style="fill:#393329;fill-opacity:0.74;fill-rule:evenodd;stroke:none;display:inline"/>
<path d="M 15.16,34.73 C 15.08,34.49 15.91,33.33 15.91,33.15 C 15.91,32.97 15.85,32.20 16.06,31.93 C 16.26,31.67 17.28,31.01 17.28,31.01 C 17.28,31.01 17.42,31.43 17.28,31.78 C 17.13,32.14 16.74,32.32 16.68,32.59 C 16.62,32.86 15.85,33.90 15.67,34.19 C 15.49,34.49 15.25,34.82 15.16,34.73 z" id="p3338" style="fill:#35322d;fill-opacity:0.42;fill-rule:evenodd;stroke:none;display:inline"/>
<path d="M 15.52,34.31 C 15.91,33.90 16.62,33.24 16.71,33.09 C 16.80,32.94 17.01,32.32 17.25,32.26 C 17.48,32.20 17.60,31.58 17.87,31.49 C 18.14,31.40 18.58,31.64 18.70,31.34 C 18.82,31.04 18.73,30.83 18.73,30.83" id="p3341" style="fill:none;fill-opacity:0.74;fill-rule:evenodd;stroke:#8c8c73;stroke-width:0.2;stroke-linecap:round;stroke-linejoin:miter;stroke-miterlimit:4;stroke-dasharray:none;stroke-opacity:0.50;display:inline"/>
<path d="M 14.09,36.01 C 13.97,35.56 14.63,33.60 14.78,33.21 C 14.93,32.83 16.18,30.27 16.18,30.27" id="p3344" style="fill:none;fill-rule:evenodd;stroke:#c1bfb4;stroke-width:0.2;stroke-linecap:round;stroke-linejoin:miter;stroke-miterlimit:4;stroke-dasharray:none;stroke-opacity:0.42;display:inline"/>
<path d="M 16.74,35.47 L 20.43,33.72" id="p3346" style="fill:none;fill-rule:evenodd;stroke:#bab8a8;stroke-width:0.1;stroke-linecap:round;stroke-linejoin:miter;stroke-miterlimit:4;stroke-dasharray:none;stroke-opacity:0.42;display:inline"/>
<path d="M 7.03,35.53 C 6.94,35.77 6.87,36.02 6.81,36.25 C 6.66,36.83 6.50,37.39 6.43,37.96 C 6.95,37.76 7.43,37.18 7.78,36.90 C 8.22,36.54 8.72,37.30 8.75,37.81 C 8.77,38.31 8.07,38.30 7.75,38.09 C 7.42,37.88 7.66,38.11 7.84,38.46 C 8.02,38.82 8.38,39.04 7.34,38.71 C 6.30,38.39 6.86,38.58 7.25,38.96 C 7.63,39.35 6.62,39.35 7.81,39.62 C 9.00,39.89 8.77,40.01 8.71,39.75 C 8.65,39.48 8.03,39.33 8.12,39.06 C 8.21,38.79 7.81,38.21 7.81,38.21 C 7.81,38.21 8.11,38.49 8.53,38.43 C 8.86,38.38 8.89,38.02 8.93,37.96 C 9.02,38.11 9.60,37.96 9.81,37.96 C 10.02,37.96 10.83,38.58 10.65,38.34 C 10.47,38.10 10.30,37.70 10.18,37.5 C 10.06,37.29 10.46,37 10.46,37 C 10.46,37 10.05,36.80 9.84,36.75 C 9.73,36.72 9.59,36.58 9.5,36.46 C 9.50,36.57 9.42,36.71 9.28,36.81 C 9.07,36.96 9.32,37.25 9.5,37.25 C 9.67,37.25 9.67,37.75 9.37,37.90 C 9.07,38.05 8.61,37.04 8.34,36.75 C 8.07,36.45 7.43,36.89 7.46,36.59 C 7.48,36.39 7.33,35.99 7.03,35.53 z" id="p3348" style="fill:#2c3035;fill-opacity:0.42;fill-rule:evenodd;stroke:none;display:inline"/>
<path d="M 10.20,39.55 C 10.23,39.34 11.06,39.07 11.00,39.25 C 10.94,39.43 10.70,39.70 11.27,39.40 C 11.83,39.10 12.19,38.83 12.52,38.98 C 12.84,39.13 12.31,38.83 11.74,39.28 C 11.18,39.73 10.76,39.93 10.61,39.79 C 10.46,39.64 10.14,39.73 10.20,39.55 z" id="p3350" style="fill:#2c3035;fill-opacity:0.42;fill-rule:evenodd;stroke:none;display:inline"/>
<path d="M 16.26,39.34 L 15.85,39.58" id="p3352" style="fill:none;fill-rule:evenodd;stroke:#060604;stroke-width:0.5;stroke-linecap:round;stroke-linejoin:miter;stroke-miterlimit:4;stroke-dasharray:none;stroke-opacity:0.27;display:inline"/>
<path d="M 16.83,38.33 L 16.59,38.63" id="p3354" style="fill:none;fill-rule:evenodd;stroke:#12110e;stroke-width:0.30;stroke-linecap:round;stroke-linejoin:miter;stroke-miterlimit:4;stroke-dasharray:none;stroke-opacity:0.38;display:inline"/>
<path d="M 22.32,23.93 L 22.21,24.41 C 22.21,24.41 22.49,24.55 22.72,24.36 C 22.96,24.16 23.17,23.73 23.14,23.62 C 23.11,23.51 23.04,23.47 23.04,23.47 L 22.32,23.93 z" id="p3215" style="fill:#c7c3b4;fill-opacity:0.45;fill-rule:evenodd;stroke:none;"/>
<path d="M 22.85,23.78 C 22.81,23.91 22.72,24.02 22.61,24.09 C 22.49,24.15 22.37,24.15 22.29,24.09 C 22.21,24.02 22.18,23.91 22.21,23.78 C 22.25,23.65 22.34,23.53 22.46,23.47 C 22.57,23.40 22.69,23.40 22.77,23.47 C 22.86,23.53 22.88,23.65 22.85,23.78 z" id="p2418" style="fill:#6d5e4a;fill-opacity:1;fill-rule:nonzero;stroke:#1e1c18;stroke-width:0.1;stroke-linecap:round;stroke-linejoin:round;marker:none;stroke-miterlimit:4;stroke-dasharray:none;stroke-dashoffset:0;stroke-opacity:1;visibility:visible;display:inline;overflow:visible;enable-background:accumulate"/>
<path d="M 19.03,27.31 C 18.46,28.42 17.76,29.84 17.28,30.65 C 17.60,31.00 17.86,31.04 17.96,30.90 C 18.14,30.67 18.82,30.07 18.90,30.56 C 18.97,30.97 18.43,32.65 19.40,32.56 C 20.64,30.62 21.09,29.31 21.84,27.93 C 20.78,27.99 19.76,28.47 19.31,28.12 C 19.11,27.97 19.05,27.64 19.03,27.31 z" id="p2424" style="fill:#34291b;fill-opacity:0.63;fill-rule:evenodd;stroke:none;display:inline"/>
<path d="M 19.06,29.29 C 19.06,29.29 18.86,29.48 18.90,29.51 C 18.94,29.55 19.30,29.69 19.50,29.58 C 19.69,29.47 19.77,29.22 19.79,29.06 C 19.81,28.90 19.40,28.87 19.40,28.87 L 19.06,29.29 z" id="p3206" style="fill:#b9ac9c;fill-opacity:0.39;fill-rule:evenodd;stroke:none;display:inline"/>
<path d="M 19.54,28.89 C 19.55,29.03 19.50,29.17 19.41,29.27 C 19.32,29.36 19.21,29.40 19.11,29.37 C 19.01,29.33 18.95,29.23 18.94,29.10 C 18.93,28.96 18.98,28.82 19.07,28.72 C 19.16,28.63 19.27,28.59 19.37,28.62 C 19.47,28.66 19.53,28.76 19.54,28.89 z" id="p2420" style="fill:#695d4f;fill-opacity:1;fill-rule:nonzero;stroke:#1e1c18;stroke-width:0.1;stroke-linecap:round;stroke-linejoin:round;marker:none;stroke-miterlimit:4;stroke-dasharray:none;stroke-dashoffset:0;stroke-opacity:1;visibility:visible;display:inline;overflow:visible;enable-background:accumulate"/>
<path d="M 18.17,31.10 C 18.17,31.10 17.98,31.28 18.02,31.32 C 18.05,31.36 18.42,31.50 18.61,31.39 C 18.81,31.27 18.88,31.02 18.90,30.86 C 18.92,30.70 18.52,30.68 18.52,30.68 L 18.17,31.10 z" id="p3203" style="fill:#b9ac9c;fill-opacity:0.51;fill-rule:evenodd;stroke:none;display:inline"/>
<path d="M 18.71,30.73 C 18.71,30.86 18.66,31.00 18.56,31.08 C 18.47,31.16 18.35,31.18 18.25,31.13 C 18.16,31.08 18.10,30.97 18.10,30.84 C 18.09,30.70 18.15,30.57 18.25,30.49 C 18.34,30.41 18.46,30.39 18.55,30.44 C 18.65,30.49 18.71,30.60 18.71,30.73 z" id="p2422" style="fill:#6b5d4d;fill-opacity:0.99;fill-rule:nonzero;stroke:#1e1c18;stroke-width:0.1;stroke-linecap:round;stroke-linejoin:round;marker:none;stroke-miterlimit:4;stroke-dasharray:none;stroke-dashoffset:0;stroke-opacity:1;visibility:visible;display:inline;overflow:visible;enable-background:accumulate"/>
<path d="M 7.37,34.75 C 7.13,35.27 6.93,35.78 6.81,36.25 C 6.62,36.99 6.47,37.69 6.43,38.43 C 7.03,38.51 7.51,38.21 7.71,37.90 C 8.03,37.44 6.76,38.75 7.56,36.93 C 8.36,35.11 8.62,36.37 8.81,36.25 C 8.99,36.12 7.80,35.43 8.12,35.37 C 8.44,35.31 10.64,36.34 8.03,35.15 C 7.73,35.02 7.54,34.90 7.37,34.75 z" id="p3208" style="fill:#21262c;fill-opacity:0.34;fill-rule:evenodd;stroke:none;"/>
<path d="M 21.25,23.78 C 20.67,24.49 20.17,25.17 19.53,26.34 C 19.48,26.41 19.39,26.62 19.34,26.71 C 19.82,26.82 20.57,26.63 20.84,26.59 C 21.16,26.53 21.26,25.64 21.5,25.81 C 21.66,25.92 21.87,26.83 22.37,27.09 C 22.48,26.92 22.56,26.76 22.68,26.59 C 22.82,26.39 23.05,26.09 23.21,25.87 C 22.79,25.70 22.28,25.45 22.09,25.03 C 21.95,24.72 21.62,24.18 21.25,23.78 z" id="p3217" style="fill:#443828;fill-opacity:0.57;fill-rule:evenodd;stroke:none;"/>
<path d="M 23.19,22.28 L 23.62,22.69 L 31.06,13.10 L 30.66,12.90 L 23.19,22.28 z" id="p3224" style="fill:#d9bc96;fill-opacity:0.38;fill-rule:evenodd;stroke:none;"/>
<path d="M 31.65,13.65 C 31.65,13.65 29.83,15.84 29.28,16.53 C 28.88,17.03 25.29,22.10 25.25,23.18 C 27.57,20.18 30.39,16.69 32.25,14.21 L 31.65,13.65 z" id="p3226" style="fill:#bf6c21;fill-opacity:0.26;fill-rule:evenodd;stroke:none;"/>
<path d="M 35.46,3.28 C 35.39,3.38 33.75,5.84 33.56,6.25 C 33.37,6.65 33.25,7.35 33.28,7.90 C 33.30,8.45 33.43,9.58 33.34,9.87 C 33.24,10.16 32.46,11.13 32.43,11.28 C 32.41,11.42 32.55,11.59 32.71,11.59 C 32.71,11.59 33.45,10.85 33.62,10.68 C 33.73,10.57 34.20,10.11 34.56,9.65 C 34.21,9.85 33.90,10.06 33.90,10.06 L 33.81,10 C 33.81,10 33.97,9.62 33.93,9.31 C 33.90,8.99 33.88,7.78 34.06,7.15 C 34.23,6.52 35.31,5.03 35.31,5.03 C 35.33,5.04 35.37,5.07 35.40,5.09 C 35.35,4.72 35.35,4.34 35.43,4.18 C 35.54,3.96 35.80,3.51 35.84,3.43 C 35.70,3.38 35.57,3.31 35.46,3.28 z" id="p3241" style="fill:#0f0b07;fill-opacity:0.53;fill-rule:evenodd;stroke:none;"/>
<path d="M 32.84,11.34 C 32.97,11.64 32.95,11.83 32.91,11.97 C 32.88,12.11 33.43,11.46 33.68,11.30 C 33.94,11.14 34.74,9.96 33.37,10.83 C 33.15,10.97 32.89,11.36 32.84,11.34 z" id="p3251" style="fill:#754924;fill-opacity:0.32;fill-rule:evenodd;stroke:none;"/>
<path d="M 32.92,11.29 C 33.61,10.39 34.96,9.77 35.21,9.68 C 35.41,9.60 37.28,9.13 38.05,8.56 C 38.45,8.27 39.09,7.16 39.23,7.00 C 39.36,6.85 40.04,6.06 40.11,5.85" id="p3231" style="fill:none;fill-rule:evenodd;stroke:#bdbdab;stroke-width:0.2;stroke-linecap:round;stroke-linejoin:miter;stroke-miterlimit:4;stroke-dasharray:none;stroke-opacity:0.77;display:inline"/>
<path d="M 34.34,5 C 34.34,4.97 34.34,4.99 34.31,5.03 C 34.05,5.43 33.83,5.78 33.71,6 C 33.64,6.14 33.56,6.24 33.46,6.46 C 33.45,6.51 33.45,6.51 33.43,6.56 C 33.43,6.57 33.44,6.58 33.43,6.59 C 33.37,6.80 33.33,7.04 33.31,7.28 C 33.37,7.56 33.63,7.76 33.93,8.06 C 33.95,7.72 33.99,7.39 34.06,7.15 C 34.10,7.00 34.22,6.81 34.34,6.59 C 34.33,6.58 34.34,6.56 34.34,6.56 C 33.93,6.15 34.31,5.15 34.34,5 z" id="p3246" style="fill:#866c29;fill-opacity:0.32;fill-rule:evenodd;stroke:none;"/>
<path d="M 32.64,10.81 C 32.79,10.56 33.07,10.29 33.27,9.79 C 33.38,9.51 33.08,7.28 33.44,6.51 C 33.80,5.75 35.35,3.37 35.50,3.35" id="p3233" style="fill:none;fill-rule:evenodd;stroke:#b1b197;stroke-width:0.2;stroke-linecap:round;stroke-linejoin:miter;stroke-miterlimit:4;stroke-dasharray:none;stroke-opacity:0.65;display:inline"/>
<path d="M 32.40,11.10 C 32.16,11.44 32.59,11.61 32.73,11.49" id="p3237" style="fill:none;fill-opacity:1;fill-rule:evenodd;stroke:#cfcfc0;stroke-width:0.2;stroke-linecap:round;stroke-linejoin:miter;marker:none;stroke-miterlimit:4;stroke-dasharray:none;stroke-dashoffset:0;stroke-opacity:0.65;visibility:visible;display:inline;overflow:visible;enable-background:accumulate"/>
<path d="M 32.73,11.50 L 33.05,11.12" id="p3239" style="fill:none;fill-opacity:1;fill-rule:evenodd;stroke:#e8e8e0;stroke-width:0.2;stroke-linecap:round;stroke-linejoin:miter;marker:none;stroke-miterlimit:4;stroke-dasharray:none;stroke-dashoffset:0;stroke-opacity:0.83;visibility:visible;display:inline;overflow:visible;enable-background:accumulate"/>
<path d="M 31.18,12.74 C 31.46,12.38 31.68,12.44 31.77,12.56 C 31.87,12.68 31.74,13.07 31.91,13.03 C 32.09,12.99 32.46,12.68 32.46,13.01 C 32.46,13.35 31.81,13.84 31.81,13.84 L 31.34,13.44 C 31.34,13.44 31.68,13.13 31.18,12.74 z" id="p3253" style="fill:#754924;fill-opacity:0.32;fill-rule:evenodd;stroke:none;"/>
<path d="M 38.31,8.65 C 38.31,8.63 38.28,8.65 38.25,8.68 C 37.95,8.94 36.87,9.31 36.25,9.53 C 35.62,9.74 35.09,9.90 34.56,10.37 C 34.23,10.66 34.29,10.99 34.65,11.43 C 35.95,10.46 36.99,10.60 38.25,9.68 C 37.77,9.77 38.32,8.77 38.31,8.65 z" id="p3258" style="fill:#14100e;fill-opacity:0.42;fill-rule:evenodd;stroke:none;"/>
<path d="M 40.59,6.15 C 40.24,6.20 39.89,6.48 39.62,6.87 C 39.18,7.53 39.81,6.92 40.21,7.62 C 40.62,7.09 40.94,6.57 40.84,6.37 C 40.81,6.31 40.74,6.23 40.65,6.15 C 40.63,6.15 40.61,6.15 40.59,6.15 z" id="p3261" style="fill:#14100e;fill-opacity:0.42;fill-rule:evenodd;stroke:none;"/>
<path d="M 35.40,4.21 C 35.33,4.46 35.30,4.74 35.34,5.06 C 35.75,5.31 36.31,5.81 36.96,6.18 C 38.01,6.78 38.45,6.85 38.78,7.06 C 38.77,7.07 38.76,7.10 38.75,7.12 C 38.99,6.92 39.19,6.69 39.37,6.46 C 38.00,5.80 36.54,4.89 35.40,4.21 z" id="p3271" style="fill:#14100e;fill-opacity:0.56;fill-rule:evenodd;stroke:none;"/>
<path d="M 35.57,3.87 C 35.57,3.87 37.24,4.64 37.81,4.95 C 38.38,5.27 39.68,6.07 39.68,6.07" id="p3273" style="fill:none;fill-rule:evenodd;stroke:#e9e5cb;stroke-width:0.30;stroke-linecap:butt;stroke-linejoin:miter;stroke-miterlimit:4;stroke-dasharray:none;stroke-opacity:0.33"/>
<path d="M 30.25,12.65 C 28.40,14.99 25.37,18.72 23.75,20.75 C 23.30,21.30 23.11,21.50 22.78,21.90 C 23.57,22.73 24.26,23.28 24.90,23.62 C 27.27,20.56 30.27,16.84 32.21,14.25 C 31.56,13.55 30.91,13.04 30.25,12.65 z" id="p3311" style="fill:none;fill-opacity:1;fill-rule:evenodd;stroke:#141717;stroke-width:0.30;stroke-linecap:butt;stroke-linejoin:miter;stroke-miterlimit:4;stroke-dasharray:none;stroke-opacity:1;display:inline"/>
<path d="M 35.90,3.46 C 35.39,3.89 35.27,4.38 35.34,5.06 C 35.75,5.31 36.31,5.81 36.96,6.18 C 38.01,6.78 38.45,6.85 38.78,7.06 C 38.77,7.07 38.76,7.10 38.75,7.12 C 39.33,6.65 39.71,6.06 39.93,5.59 C 39.24,5.12 38.31,4.60 37.62,4.25 C 37.00,3.92 36.40,3.65 35.93,3.46 C 35.92,3.46 35.91,3.47 35.90,3.46 z" id="p3308" style="fill:none;fill-opacity:1;fill-rule:evenodd;stroke:#13120f;stroke-width:0.30;stroke-linecap:butt;stroke-linejoin:miter;stroke-miterlimit:4;stroke-dasharray:none;stroke-opacity:1;display:inline"/>
<path d="M 35.09,3.21 C 34.78,3.25 32.92,6.01 32.87,6.96 C 32.74,9.68 32.41,9.74 31.75,10.71 C 31.08,11.69 26.01,17.92 23.75,20.75 C 21.48,23.57 20.88,23.91 19.53,26.34 C 19.00,27.28 17.65,30.14 17.09,30.96 C 16.35,30.39 15.62,29.76 15.06,29.28 C 14.50,28.79 14.22,28.24 13.84,28.31 C 13.46,28.38 10.61,30.86 9.18,32.18 C 7.75,33.51 7.12,35.03 6.81,36.25 C 6.49,37.46 6.25,38.57 6.53,39.93 C 6.81,41.29 7.14,42.58 8.75,42.68 C 10.35,42.79 12.42,42.49 13.18,42.21 C 13.95,41.93 15.25,41.18 16.37,40.34 C 17.49,39.50 21.32,35.98 21.78,35.53 C 22.23,35.07 22.37,34.81 22.37,34.81 C 22.37,34.81 22.31,34.62 21.37,34.28 C 20.43,33.93 20.42,33.50 19.93,33.15 C 19.44,32.80 19.65,32.88 19.37,32.62 C 21.04,30.02 21.26,28.59 22.68,26.59 C 25.07,23.24 30.62,16.50 33.03,13.15 C 35.43,9.81 36.84,11.21 38.93,9.09 C 39.42,8.59 41.05,6.79 40.84,6.37 C 40.63,5.95 38.77,4.84 37.62,4.25 C 36.47,3.65 35.40,3.18 35.09,3.21 z M 35.31,5.03 C 35.73,5.27 36.30,5.81 36.96,6.18 C 38.01,6.78 38.46,6.86 38.79,7.07 C 38.58,7.41 38.32,7.88 37.83,8.26 C 37.25,8.72 35.79,9.17 35.34,9.28 C 34.89,9.38 33.90,10.06 33.90,10.06 L 33.81,10 C 33.81,10 33.97,9.62 33.93,9.31 C 33.90,8.99 33.88,7.78 34.06,7.15 C 34.23,6.52 35.31,5.03 35.31,5.03 z" id="stroke01" style="fill:none;fill-opacity:1;fill-rule:evenodd;stroke:#000000;stroke-width:0.5;stroke-linecap:butt;stroke-linejoin:round;stroke-miterlimit:4;stroke-dasharray:none;stroke-opacity:1;display:inline"/>
</g>
</svg>
