<?xml version="1.0" encoding="UTF-8" standalone="no"?>

<svg xmlns:svg="http://www.w3.org/2000/svg" xmlns="http://www.w3.org/2000/svg" version="1.0" width="100%" height="100%" viewBox="0 0 48 48" id="svg4700" style="display:inline">
<defs id="defs4702"/>
<g id="layer3" style="display:inline">
<path d="M 10.62,7.35 L 8.93,44.79 L 39.55,44.37 L 37.94,6.67 L 10.62,7.35 z" id="p5331" style="fill:#3e4e8a;fill-opacity:1;fill-rule:evenodd;stroke:none;"/>
<path d="M 11.30,8.11 L 9.78,43.78 L 38.53,43.36 L 37.35,7.26 L 11.30,8.11 z" id="p5333" style="fill:#dde4ec;fill-opacity:1;fill-rule:evenodd;stroke:none;"/>
<path d="M 12.98,11.99 C 13.32,12.53 12.52,12.45 12.52,11.99 C 12.52,11.52 13.32,11.23 13.87,11.94 C 14.42,12.66 14.46,13.76 15.09,14.05 C 15.72,14.35 15.64,14.05 15.64,13.84" id="p5335" style="fill:none;fill-rule:evenodd;stroke:#000000;stroke-width:0.40;stroke-linecap:round;stroke-linejoin:miter;stroke-miterlimit:4;stroke-dasharray:none;stroke-opacity:1"/>
<path d="M 35.92,11.69 C 35.62,12.07 36.47,11.99 36.47,11.56 C 36.47,11.14 35.54,10.97 35.08,11.48 C 34.61,11.99 34.19,13.67 33.77,13.93 C 33.35,14.18 33.01,13.84 33.14,13.63" id="p5337" style="fill:none;fill-rule:evenodd;stroke:#000000;stroke-width:0.40;stroke-linecap:round;stroke-linejoin:miter;stroke-miterlimit:4;stroke-dasharray:none;stroke-opacity:1"/>
<path d="M 14.64,13.71 C 14.64,13.71 13.83,33.95 13.78,36.19 C 13.74,38.42 16.23,40.62 17.83,40.66 C 19.43,40.70 28.88,40.66 30.94,40.57 C 33.01,40.49 34.78,37.88 34.74,36.15 C 34.70,34.42 34.28,13.33 34.28,13.33" id="p5339" style="fill:none;fill-rule:evenodd;stroke:#000000;stroke-width:0.5;stroke-linecap:round;stroke-linejoin:miter;stroke-miterlimit:4;stroke-dasharray:none;stroke-opacity:1"/>
<path d="M 15.18,14.18 C 15.18,14.18 14.39,33.71 14.35,35.82 C 14.31,37.93 16.66,40.01 18.17,40.05 C 19.69,40.09 28.61,40.05 30.56,39.97 C 32.51,39.89 34.18,37.42 34.14,35.78 C 34.10,34.15 33.70,14.24 33.70,14.24" id="p5341" style="fill:none;fill-rule:evenodd;stroke:#000000;stroke-width:0.30;stroke-linecap:round;stroke-linejoin:miter;stroke-miterlimit:4;stroke-dasharray:none;stroke-opacity:1"/>
<path d="M 23.19,42.83 C 23.29,42.83 23.40,42.83 23.51,42.83 C 23.51,42.37 23.51,41.90 23.51,41.44 C 23.40,41.47 23.29,41.51 23.18,41.54 C 23.18,41.42 23.18,41.29 23.18,41.17 C 23.29,41.13 23.40,41.09 23.51,41.06 C 23.62,41.06 23.73,41.06 23.85,41.06 C 23.85,41.65 23.85,42.24 23.85,42.83 C 23.95,42.83 24.06,42.83 24.16,42.83 C 24.16,42.96 24.16,43.08 24.16,43.21 C 23.84,43.21 23.51,43.21 23.19,43.21 C 23.19,43.08 23.19,42.96 23.19,42.83 z M 24.84,42.80 C 25.05,42.80 25.25,42.80 25.46,42.80 C 25.46,42.94 25.46,43.08 25.46,43.21 C 25.12,43.21 24.78,43.21 24.44,43.21 C 24.44,43.08 24.44,42.94 24.44,42.80 C 24.62,42.56 24.81,42.32 24.98,42.06 C 25.08,41.94 25.13,41.69 25.04,41.53 C 24.95,41.36 24.78,41.39 24.66,41.46 C 24.59,41.48 24.49,41.61 24.45,41.60 C 24.45,41.45 24.45,41.30 24.45,41.15 C 24.68,41.04 24.94,40.96 25.18,41.08 C 25.32,41.15 25.44,41.36 25.45,41.59 C 25.46,41.82 25.39,42.03 25.29,42.18 C 25.15,42.40 24.99,42.60 24.84,42.80 z" id="text5351" style="font-size:2.37px;font-style:normal;font-variant:normal;font-weight:bold;font-stretch:normal;line-height:125%;letter-spacing:0px;word-spacing:0px;fill:#000000;fill-opacity:1;stroke:none;font-family:Sans;-inkscape-font-specification:Sans Bold"/>
<path d="M 17.12,43.04 C 17.23,43.04 17.34,43.04 17.45,43.04 C 17.45,42.58 17.45,42.11 17.45,41.65 C 17.34,41.68 17.22,41.72 17.11,41.75 C 17.11,41.63 17.11,41.50 17.11,41.38 C 17.23,41.34 17.34,41.30 17.46,41.27 C 17.57,41.27 17.69,41.27 17.80,41.27 C 17.80,41.86 17.80,42.45 17.80,43.04 C 17.91,43.04 18.02,43.04 18.13,43.04 C 18.13,43.17 18.13,43.29 18.13,43.42 C 17.80,43.42 17.46,43.42 17.12,43.42 C 17.12,43.29 17.12,43.17 17.12,43.04 z M 18.50,43.04 C 18.61,43.04 18.72,43.04 18.83,43.04 C 18.83,42.58 18.83,42.11 18.83,41.65 C 18.72,41.68 18.61,41.72 18.49,41.75 C 18.49,41.63 18.49,41.50 18.49,41.38 C 18.61,41.34 18.73,41.30 18.84,41.27 C 18.96,41.27 19.07,41.27 19.19,41.27 C 19.19,41.86 19.19,42.45 19.19,43.04 C 19.30,43.04 19.41,43.04 19.52,43.04 C 19.52,43.17 19.52,43.29 19.52,43.42 C 19.18,43.42 18.84,43.42 18.50,43.42 C 18.50,43.29 18.50,43.17 18.50,43.04 z" id="text5355" style="font-size:2.42px;font-style:normal;font-variant:normal;font-weight:bold;font-stretch:normal;line-height:125%;letter-spacing:0px;word-spacing:0px;fill:#000000;fill-opacity:1;stroke:none;font-family:Sans;-inkscape-font-specification:Sans Bold"/>
<path d="M 11.67,40.53 C 11.78,40.53 11.89,40.53 12.01,40.53 C 12.01,40.07 12.01,39.61 12.01,39.14 C 11.89,39.18 11.78,39.21 11.67,39.25 C 11.67,39.12 11.67,38.99 11.67,38.87 C 11.78,38.84 11.90,38.79 12.01,38.76 C 12.13,38.76 12.24,38.76 12.36,38.76 C 12.36,39.35 12.36,39.94 12.36,40.53 C 12.47,40.53 12.58,40.53 12.69,40.53 C 12.69,40.66 12.69,40.79 12.69,40.91 C 12.35,40.91 12.01,40.91 11.67,40.91 C 11.67,40.79 11.67,40.66 11.67,40.53 z M 13.75,39.84 C 13.74,39.63 13.75,39.40 13.67,39.21 C 13.60,39.04 13.40,39.08 13.35,39.27 C 13.29,39.52 13.30,39.80 13.30,40.07 C 13.32,40.24 13.32,40.45 13.43,40.55 C 13.53,40.63 13.67,40.56 13.70,40.39 C 13.74,40.21 13.74,40.02 13.75,39.84 L 13.75,39.84 z M 14.12,39.84 C 14.12,40.19 14.07,40.59 13.87,40.81 C 13.69,40.99 13.45,41.00 13.25,40.87 C 13.04,40.73 12.94,40.36 12.93,40.03 C 12.91,39.66 12.93,39.25 13.11,38.96 C 13.27,38.71 13.55,38.67 13.76,38.79 C 13.98,38.92 14.09,39.26 14.11,39.59 C 14.12,39.67 14.12,39.76 14.12,39.84 z" id="text5359" style="font-size:2.42px;font-style:normal;font-variant:normal;font-weight:bold;font-stretch:normal;line-height:125%;letter-spacing:0px;word-spacing:0px;fill:#000000;fill-opacity:1;stroke:none;font-family:Sans;-inkscape-font-specification:Sans Bold"/>
<path d="M 11.89,32.12 C 11.89,31.99 11.89,31.86 11.89,31.73 C 12.08,31.84 12.31,31.90 12.52,31.80 C 12.68,31.72 12.75,31.51 12.76,31.32 C 12.73,31.31 12.65,31.40 12.59,31.41 C 12.35,31.50 12.05,31.44 11.89,31.19 C 11.75,30.98 11.74,30.67 11.83,30.42 C 11.92,30.16 12.16,30.00 12.39,29.99 C 12.61,29.97 12.85,30.04 13.00,30.25 C 13.18,30.51 13.21,30.86 13.20,31.19 C 13.19,31.50 13.09,31.83 12.87,32.03 C 12.66,32.23 12.36,32.24 12.10,32.19 C 12.03,32.17 11.96,32.15 11.89,32.12 z M 12.46,31.09 C 12.57,31.10 12.67,31.02 12.69,30.89 C 12.72,30.74 12.72,30.56 12.65,30.43 C 12.57,30.31 12.40,30.30 12.31,30.40 C 12.21,30.51 12.21,30.69 12.23,30.84 C 12.24,30.96 12.31,31.08 12.42,31.09 C 12.43,31.09 12.45,31.09 12.46,31.09 z" id="text5363" style="font-size:2.69px;font-style:normal;font-variant:normal;font-weight:bold;font-stretch:normal;line-height:125%;letter-spacing:0px;word-spacing:0px;fill:#000000;fill-opacity:1;stroke:none;font-family:Sans;-inkscape-font-specification:Sans Bold"/>
<path d="M 12.65,26.85 C 12.54,26.84 12.42,26.92 12.40,27.06 C 12.36,27.20 12.39,27.40 12.52,27.47 C 12.63,27.53 12.80,27.52 12.88,27.39 C 12.94,27.27 12.94,27.09 12.88,26.97 C 12.83,26.88 12.74,26.85 12.65,26.85 L 12.65,26.85 z M 12.32,26.67 C 12.16,26.62 12.02,26.49 11.99,26.29 C 11.96,26.09 12.02,25.87 12.17,25.76 C 12.36,25.62 12.59,25.61 12.81,25.63 C 12.99,25.65 13.19,25.73 13.28,25.94 C 13.36,26.15 13.33,26.43 13.16,26.57 C 13.13,26.62 13.01,26.65 13.00,26.67 C 13.17,26.72 13.32,26.87 13.35,27.09 C 13.38,27.31 13.33,27.58 13.16,27.71 C 12.97,27.86 12.73,27.87 12.51,27.85 C 12.31,27.83 12.10,27.74 12.00,27.52 C 11.93,27.33 11.92,27.10 12.01,26.92 C 12.07,26.79 12.19,26.71 12.32,26.67 L 12.32,26.67 z M 12.42,26.24 C 12.42,26.35 12.48,26.47 12.58,26.50 C 12.69,26.53 12.83,26.49 12.87,26.35 C 12.90,26.23 12.88,26.05 12.76,26.00 C 12.65,25.95 12.49,25.97 12.44,26.11 C 12.43,26.15 12.42,26.20 12.42,26.24 L 12.42,26.24 z" id="text5367" style="font-size:2.69px;font-style:normal;font-variant:normal;font-weight:bold;font-stretch:normal;line-height:125%;letter-spacing:0px;word-spacing:0px;fill:#000000;fill-opacity:1;stroke:none;font-family:Sans;-inkscape-font-specification:Sans Bold"/>
<path d="M 12.20,21.35 L 13.46,21.35 L 13.46,21.63 L 12.81,23.29 L 12.39,23.29 L 13.01,21.71 L 12.20,21.71 L 12.20,21.35 L 12.20,21.35 z" id="p5389" style="font-size:2.48px;font-style:normal;font-variant:normal;font-weight:bold;font-stretch:normal;line-height:125%;letter-spacing:0px;word-spacing:0px;fill:#000000;fill-opacity:1;stroke-width:1px;stroke-linecap:butt;stroke-linejoin:miter;stroke-opacity:1;font-family:Sans;-inkscape-font-specification:Sans Bold"/>
<path d="M 12.99,18.04 C 12.87,18.03 12.79,18.15 12.78,18.26 C 12.77,18.39 12.76,18.54 12.84,18.66 C 12.93,18.77 13.13,18.74 13.17,18.61 C 13.22,18.49 13.22,18.35 13.20,18.22 C 13.17,18.13 13.10,18.03 12.99,18.04 z M 13.51,17.10 C 13.51,17.22 13.51,17.34 13.51,17.46 C 13.34,17.37 13.12,17.30 12.94,17.40 C 12.78,17.49 12.74,17.68 12.73,17.85 C 12.94,17.65 13.31,17.68 13.48,17.92 C 13.62,18.11 13.64,18.36 13.58,18.59 C 13.54,18.77 13.42,18.93 13.24,19.00 C 13.06,19.07 12.85,19.06 12.68,18.96 C 12.48,18.83 12.38,18.59 12.35,18.37 C 12.31,18.10 12.32,17.83 12.39,17.57 C 12.47,17.34 12.63,17.12 12.87,17.05 C 13.08,16.99 13.31,17.03 13.51,17.10 z" id="p5385" style="font-size:2.43px;font-style:normal;font-variant:normal;font-weight:bold;font-stretch:normal;line-height:125%;letter-spacing:0px;word-spacing:0px;fill:#000000;fill-opacity:1;stroke-width:1px;stroke-linecap:butt;stroke-linejoin:miter;stroke-opacity:1;font-family:Sans;-inkscape-font-specification:Sans Bold"/>
<path d="M 27.91,42.72 C 28.02,42.72 28.14,42.72 28.26,42.72 C 28.26,42.31 28.26,41.90 28.26,41.49 C 28.14,41.52 28.02,41.55 27.90,41.58 C 27.90,41.47 27.90,41.36 27.90,41.24 C 28.02,41.21 28.14,41.18 28.26,41.15 C 28.39,41.15 28.51,41.15 28.63,41.15 C 28.63,41.68 28.63,42.20 28.63,42.72 C 28.75,42.72 28.87,42.72 28.98,42.72 C 28.98,42.84 28.98,42.95 28.98,43.06 C 28.62,43.06 28.26,43.06 27.91,43.06 C 27.91,42.95 27.91,42.84 27.91,42.72 z" id="text5391" style="font-size:2.35px;font-style:normal;font-variant:normal;font-weight:bold;font-stretch:normal;line-height:125%;letter-spacing:0px;word-spacing:0px;fill:#000000;fill-opacity:1;stroke:none;font-family:Sans;-inkscape-font-specification:Sans Bold"/>
<path d="M 35.09,40.23 C 35.36,40.23 35.64,40.23 35.92,40.23 C 35.92,40.37 35.92,40.50 35.92,40.64 C 35.46,40.64 35.01,40.64 34.55,40.64 C 34.55,40.50 34.55,40.37 34.55,40.23 C 34.79,39.99 35.03,39.75 35.27,39.50 C 35.37,39.39 35.45,39.22 35.40,39.06 C 35.36,38.90 35.20,38.81 35.06,38.83 C 34.88,38.85 34.71,38.94 34.56,39.05 C 34.56,38.89 34.56,38.74 34.56,38.58 C 34.85,38.47 35.16,38.41 35.46,38.49 C 35.66,38.53 35.85,38.70 35.89,38.94 C 35.93,39.15 35.88,39.38 35.75,39.54 C 35.58,39.76 35.38,39.94 35.19,40.13 C 35.16,40.16 35.12,40.20 35.09,40.23 z" id="text5395" style="font-size:2.75px;font-style:normal;font-variant:normal;font-weight:bold;font-stretch:normal;line-height:125%;letter-spacing:0px;word-spacing:0px;fill:#000000;fill-opacity:1;stroke:none;font-family:Sans;-inkscape-font-specification:Sans Bold"/>
<path d="M 36.51,30.72 C 36.65,30.76 36.78,30.89 36.81,31.08 C 36.84,31.28 36.80,31.52 36.66,31.63 C 36.49,31.78 36.28,31.80 36.08,31.79 C 35.95,31.78 35.82,31.75 35.70,31.70 C 35.70,31.57 35.70,31.44 35.70,31.31 C 35.88,31.43 36.10,31.50 36.30,31.42 C 36.38,31.39 36.45,31.29 36.43,31.17 C 36.43,31.04 36.34,30.96 36.25,30.94 C 36.15,30.92 36.05,30.93 35.95,30.92 C 35.95,30.82 35.95,30.71 35.95,30.60 C 36.07,30.60 36.21,30.63 36.32,30.55 C 36.43,30.48 36.43,30.25 36.31,30.18 C 36.19,30.11 36.05,30.13 35.92,30.17 C 35.87,30.17 35.79,30.25 35.76,30.23 C 35.76,30.11 35.76,30.00 35.76,29.88 C 36.00,29.79 36.27,29.76 36.51,29.85 C 36.63,29.89 36.75,30.01 36.78,30.17 C 36.81,30.35 36.77,30.56 36.64,30.65 C 36.60,30.68 36.56,30.70 36.51,30.72 L 36.51,30.72 z" id="text5399" style="font-size:2.32px;font-style:normal;font-variant:normal;font-weight:bold;font-stretch:normal;line-height:125%;letter-spacing:0px;word-spacing:0px;fill:#000000;fill-opacity:1;stroke:none;font-family:Sans;-inkscape-font-specification:Sans Bold"/>
<path d="M 36.17,25.67 C 36.02,25.93 35.87,26.20 35.72,26.47 C 35.87,26.47 36.02,26.47 36.17,26.47 C 36.17,26.20 36.17,25.93 36.17,25.67 z M 36.10,25.26 C 36.26,25.26 36.41,25.26 36.56,25.26 C 36.56,25.66 36.56,26.07 36.56,26.47 C 36.64,26.47 36.72,26.47 36.79,26.47 C 36.79,26.59 36.79,26.71 36.79,26.83 C 36.72,26.83 36.64,26.83 36.56,26.83 C 36.56,26.94 36.56,27.06 36.56,27.17 C 36.43,27.17 36.30,27.17 36.17,27.17 C 36.17,27.06 36.17,26.94 36.17,26.83 C 35.94,26.83 35.70,26.83 35.46,26.83 C 35.46,26.68 35.46,26.54 35.46,26.40 C 35.68,26.02 35.89,25.64 36.10,25.26 z" id="text5403" style="font-size:2.40px;font-style:normal;font-variant:normal;font-weight:bold;font-stretch:normal;line-height:125%;letter-spacing:0px;word-spacing:0px;fill:#000000;fill-opacity:1;stroke:none;font-family:Sans;-inkscape-font-specification:Sans Bold"/>
<path d="M 35.52,20.89 C 35.86,20.89 36.19,20.89 36.53,20.89 C 36.53,21.01 36.53,21.14 36.53,21.26 C 36.30,21.26 36.07,21.26 35.85,21.26 C 35.85,21.36 35.85,21.47 35.85,21.57 C 36.03,21.51 36.23,21.53 36.40,21.64 C 36.55,21.74 36.64,21.95 36.64,22.16 C 36.66,22.37 36.60,22.60 36.46,22.73 C 36.27,22.91 36.02,22.92 35.80,22.89 C 35.69,22.86 35.57,22.83 35.46,22.77 C 35.46,22.64 35.46,22.50 35.46,22.37 C 35.63,22.49 35.84,22.60 36.04,22.54 C 36.15,22.51 36.25,22.37 36.24,22.22 C 36.25,22.07 36.15,21.93 36.04,21.90 C 35.86,21.85 35.68,21.92 35.52,22.00 C 35.52,21.63 35.52,21.26 35.52,20.89 z" id="text5407" style="font-size:2.41px;font-style:normal;font-variant:normal;font-weight:bold;font-stretch:normal;line-height:125%;letter-spacing:0px;word-spacing:0px;fill:#000000;fill-opacity:1;stroke:none;font-family:Sans;-inkscape-font-specification:Sans Bold"/>
<path d="M 36.09,17.87 C 35.98,17.85 35.88,17.97 35.88,18.09 C 35.86,18.23 35.86,18.38 35.94,18.48 C 36.03,18.60 36.23,18.57 36.28,18.41 C 36.32,18.29 36.31,18.16 36.29,18.05 C 36.27,17.94 36.18,17.86 36.09,17.87 z M 36.60,16.93 C 36.60,17.05 36.60,17.17 36.60,17.29 C 36.43,17.19 36.22,17.12 36.03,17.22 C 35.89,17.30 35.83,17.49 35.82,17.67 C 36.02,17.49 36.31,17.50 36.51,17.67 C 36.66,17.80 36.73,18.03 36.71,18.24 C 36.70,18.48 36.58,18.70 36.40,18.79 C 36.21,18.89 36.00,18.89 35.81,18.81 C 35.61,18.71 35.49,18.46 35.45,18.21 C 35.41,17.95 35.41,17.67 35.49,17.41 C 35.56,17.14 35.75,16.92 35.99,16.87 C 36.19,16.82 36.40,16.85 36.60,16.93 z" id="p5413" style="font-size:2.43px;font-style:normal;font-variant:normal;font-weight:bold;font-stretch:normal;line-height:125%;letter-spacing:0px;word-spacing:0px;fill:#000000;fill-opacity:1;stroke-width:1px;stroke-linecap:butt;stroke-linejoin:miter;stroke-opacity:1;font-family:Sans;-inkscape-font-specification:Sans Bold"/>
<g id="g5426">
<path d="M 28.27,12.78 C 29.03,13.16 29.55,12.38 30.09,12.73 C 30.86,13.22 31.13,12.41 31.76,12.81 C 32.30,13.15 32.56,12.47 33.18,12.71 C 33.63,12.89 33.76,12.68 34.04,12.65 C 33.80,12.98 33.70,13.26 33.42,13.24 C 32.76,13.18 32.60,13.87 32.01,13.78 C 31.02,13.62 31.43,14.46 30.56,14.46 C 29.68,14.46 29.85,15.17 28.78,15.07 C 27.72,14.98 26.68,14.24 26.68,14.24 L 28.27,12.78 z" id="p5424" style="fill:#e2c859;fill-opacity:1;fill-rule:evenodd;stroke:none;"/>
<path d="M 29.69,12.65 C 29.28,12.70 28.84,13.07 28.27,12.78 L 27.43,13.55 C 28.70,14.07 29.65,13.23 30.12,13.35 C 30.63,13.47 30.79,13.50 31.19,13.32 C 31.59,13.13 31.67,13.30 32.33,13.41 C 32.48,13.43 32.67,13.43 32.86,13.41 C 33.01,13.30 33.18,13.22 33.42,13.24 C 33.70,13.26 33.80,12.98 34.04,12.65 C 33.76,12.68 33.63,12.89 33.18,12.71 C 32.56,12.47 32.30,13.15 31.76,12.81 C 31.13,12.40 30.86,13.22 30.09,12.73 C 29.96,12.64 29.82,12.63 29.69,12.65 L 29.69,12.65 z" id="p5419" style="fill:#d68536;fill-opacity:1;fill-rule:evenodd;stroke:none;"/>
<path d="M 28.27,12.78 C 29.03,13.16 29.55,12.38 30.09,12.73 C 30.86,13.22 31.13,12.41 31.76,12.81 C 32.30,13.15 32.56,12.47 33.18,12.71 C 33.63,12.89 33.76,12.68 34.04,12.65 C 33.80,12.98 33.70,13.26 33.42,13.24 C 32.76,13.18 32.60,13.87 32.01,13.78 C 31.02,13.62 31.43,14.46 30.56,14.46 C 29.68,14.46 29.85,15.17 28.78,15.07 C 27.72,14.98 26.68,14.24 26.68,14.24 L 28.27,12.78 z" id="p5417" style="fill:none;fill-rule:evenodd;stroke:#313131;stroke-width:0.30;stroke-linecap:butt;stroke-linejoin:miter;stroke-miterlimit:4;stroke-dasharray:none;stroke-opacity:1"/>
</g>
<g id="g2554">
<path d="M 26.89,11.49 C 27.73,11.52 27.89,10.60 28.52,10.69 C 29.43,10.82 29.33,9.97 30.07,10.07 C 30.71,10.16 30.66,9.43 31.33,9.40 C 31.81,9.38 31.85,9.13 32.09,8.99 C 32.00,9.39 32.03,9.69 31.77,9.78 C 31.14,10.00 31.28,10.70 30.70,10.86 C 29.74,11.12 30.46,11.71 29.66,12.07 C 28.86,12.44 29.31,13.01 28.30,13.37 C 27.29,13.72 26.04,13.48 26.04,13.48 L 26.89,11.49 z" id="p5433" style="fill:#e2c859;fill-opacity:1;fill-rule:evenodd;stroke:none;"/>
<path d="M 28.12,10.78 C 27.77,11.00 27.52,11.52 26.89,11.49 L 26.44,12.54 C 27.81,12.49 28.33,11.33 28.81,11.24 C 29.32,11.14 29.48,11.11 29.76,10.77 C 30.05,10.44 30.19,10.56 30.84,10.38 C 30.99,10.34 31.16,10.26 31.32,10.17 C 31.42,10.01 31.54,9.86 31.77,9.78 C 32.03,9.69 32.00,9.39 32.09,8.99 C 31.85,9.13 31.81,9.38 31.33,9.40 C 30.66,9.43 30.71,10.16 30.07,10.07 C 29.33,9.97 29.43,10.82 28.52,10.69 C 28.37,10.67 28.24,10.71 28.12,10.78 L 28.12,10.78 z" id="p5435" style="fill:#d68536;fill-opacity:1;fill-rule:evenodd;stroke:none;"/>
<path d="M 26.89,11.49 C 27.73,11.52 27.89,10.60 28.52,10.69 C 29.43,10.82 29.33,9.97 30.07,10.07 C 30.71,10.16 30.66,9.43 31.33,9.40 C 31.81,9.38 31.85,9.13 32.09,8.99 C 32.00,9.39 32.03,9.69 31.77,9.78 C 31.14,10.00 31.28,10.70 30.70,10.86 C 29.74,11.12 30.46,11.71 29.66,12.07 C 28.86,12.44 29.31,13.01 28.30,13.37 C 27.29,13.72 26.04,13.48 26.04,13.48 L 26.89,11.49 z" id="p5437" style="fill:none;fill-rule:evenodd;stroke:#313131;stroke-width:0.30;stroke-linecap:butt;stroke-linejoin:miter;stroke-miterlimit:4;stroke-dasharray:none;stroke-opacity:1"/>
</g>
<g id="g2562">
<path d="M 24.70,11.59 C 25.45,11.41 25.35,10.58 25.93,10.50 C 26.76,10.39 26.46,9.68 27.13,9.59 C 27.71,9.50 27.49,8.89 28.06,8.70 C 28.48,8.56 28.45,8.34 28.62,8.16 C 28.64,8.52 28.75,8.77 28.54,8.91 C 28.05,9.25 28.35,9.82 27.88,10.10 C 27.11,10.57 27.89,10.89 27.28,11.40 C 26.67,11.91 27.21,12.30 26.42,12.85 C 25.63,13.41 24.47,13.51 24.47,13.51 L 24.70,11.59 z" id="p5441" style="fill:#e2c859;fill-opacity:1;fill-rule:evenodd;stroke:none;"/>
<path d="M 25.60,10.68 C 25.35,10.96 25.27,11.46 24.70,11.59 L 24.58,12.61 C 25.76,12.22 25.93,11.10 26.32,10.90 C 26.75,10.69 26.87,10.62 27.04,10.26 C 27.21,9.90 27.36,9.97 27.89,9.66 C 28.00,9.59 28.13,9.48 28.25,9.35 C 28.30,9.19 28.36,9.04 28.54,8.91 C 28.75,8.77 28.64,8.52 28.62,8.15 C 28.45,8.34 28.48,8.56 28.06,8.70 C 27.49,8.89 27.71,9.50 27.13,9.59 C 26.46,9.68 26.76,10.39 25.93,10.50 C 25.79,10.52 25.69,10.59 25.60,10.68 L 25.60,10.68 z" id="p5443" style="fill:#d68536;fill-opacity:1;fill-rule:evenodd;stroke:none;"/>
<path d="M 24.70,11.59 C 25.45,11.41 25.35,10.58 25.93,10.50 C 26.76,10.39 26.46,9.68 27.13,9.59 C 27.71,9.50 27.49,8.89 28.06,8.70 C 28.48,8.56 28.45,8.34 28.62,8.16 C 28.64,8.52 28.75,8.77 28.54,8.91 C 28.05,9.25 28.35,9.82 27.88,10.10 C 27.11,10.57 27.89,10.89 27.28,11.40 C 26.67,11.91 27.21,12.30 26.42,12.85 C 25.63,13.41 24.47,13.51 24.47,13.51 L 24.70,11.59 z" id="p5445" style="fill:none;fill-rule:evenodd;stroke:#313131;stroke-width:0.30;stroke-linecap:butt;stroke-linejoin:miter;stroke-miterlimit:4;stroke-dasharray:none;stroke-opacity:1"/>
</g>
<g id="g2570">
<path d="M 23.33,12.50 C 23.87,12.01 23.19,11.51 23.65,11.17 C 24.31,10.68 23.54,10.36 24.07,9.96 C 24.53,9.62 23.89,9.33 24.27,8.91 C 24.54,8.61 24.36,8.48 24.38,8.27 C 24.66,8.50 24.93,8.61 24.85,8.81 C 24.65,9.28 25.31,9.51 25.10,9.93 C 24.74,10.62 25.66,10.44 25.48,11.09 C 25.30,11.73 26.05,11.71 25.74,12.47 C 25.43,13.24 24.47,13.88 24.47,13.88 L 23.33,12.50 z" id="p5449" style="fill:#e2c859;fill-opacity:1;fill-rule:evenodd;stroke:none;"/>
<path d="M 23.48,11.45 C 23.46,11.76 23.73,12.13 23.33,12.50 L 23.93,13.23 C 24.71,12.39 24.06,11.57 24.28,11.24 C 24.51,10.88 24.57,10.77 24.46,10.45 C 24.36,10.13 24.55,10.10 24.79,9.63 C 24.85,9.53 24.88,9.39 24.90,9.25 C 24.83,9.12 24.77,8.98 24.85,8.81 C 24.93,8.61 24.66,8.50 24.38,8.27 C 24.36,8.48 24.54,8.61 24.27,8.91 C 23.89,9.32 24.53,9.62 24.07,9.96 C 23.54,10.36 24.31,10.68 23.65,11.17 C 23.54,11.25 23.49,11.35 23.48,11.45 L 23.48,11.45 z" id="p5451" style="fill:#d68536;fill-opacity:1;fill-rule:evenodd;stroke:none;"/>
<path d="M 23.33,12.50 C 23.87,12.01 23.19,11.51 23.65,11.17 C 24.31,10.68 23.54,10.36 24.07,9.96 C 24.53,9.62 23.89,9.33 24.27,8.91 C 24.54,8.61 24.36,8.48 24.38,8.27 C 24.66,8.50 24.93,8.61 24.85,8.81 C 24.65,9.28 25.31,9.51 25.10,9.93 C 24.74,10.62 25.66,10.44 25.48,11.09 C 25.30,11.73 26.05,11.71 25.74,12.47 C 25.43,13.24 24.47,13.88 24.47,13.88 L 23.33,12.50 z" id="p5453" style="fill:none;fill-rule:evenodd;stroke:#313131;stroke-width:0.26;stroke-linecap:butt;stroke-linejoin:miter;stroke-miterlimit:4;stroke-dasharray:none;stroke-opacity:1"/>
</g>
<g id="g2578">
<path d="M 22.20,12.81 C 22.30,12.10 21.54,11.91 21.66,11.38 C 21.84,10.63 21.12,10.65 21.26,10.04 C 21.38,9.51 20.77,9.49 20.79,8.93 C 20.81,8.53 20.60,8.48 20.50,8.27 C 20.83,8.37 21.08,8.37 21.14,8.59 C 21.27,9.14 21.87,9.07 21.96,9.57 C 22.11,10.39 22.65,9.83 22.90,10.53 C 23.14,11.23 23.66,10.89 23.88,11.77 C 24.10,12.64 23.80,13.66 23.80,13.66 L 22.20,12.81 z" id="p5457" style="fill:#e2c859;fill-opacity:1;fill-rule:evenodd;stroke:none;"/>
<path d="M 21.71,11.73 C 21.87,12.04 22.28,12.28 22.21,12.81 L 23.05,13.26 C 23.11,12.11 22.18,11.59 22.14,11.18 C 22.10,10.74 22.08,10.61 21.82,10.35 C 21.56,10.08 21.68,9.97 21.58,9.41 C 21.55,9.29 21.50,9.14 21.43,8.99 C 21.30,8.90 21.19,8.79 21.14,8.59 C 21.08,8.37 20.83,8.37 20.50,8.27 C 20.60,8.48 20.81,8.53 20.79,8.93 C 20.77,9.49 21.38,9.51 21.26,10.04 C 21.12,10.65 21.84,10.63 21.66,11.38 C 21.63,11.51 21.66,11.62 21.71,11.73 L 21.71,11.73 z" id="p5459" style="fill:#d68536;fill-opacity:1;fill-rule:evenodd;stroke:none;"/>
<path d="M 22.20,12.81 C 22.30,12.10 21.54,11.91 21.66,11.38 C 21.84,10.63 21.12,10.65 21.26,10.04 C 21.38,9.51 20.77,9.49 20.79,8.93 C 20.81,8.53 20.60,8.48 20.50,8.27 C 20.83,8.37 21.08,8.37 21.14,8.59 C 21.27,9.14 21.87,9.07 21.96,9.57 C 22.11,10.39 22.65,9.83 22.90,10.53 C 23.14,11.23 23.66,10.89 23.88,11.77 C 24.10,12.64 23.80,13.66 23.80,13.66 L 22.20,12.81 z" id="p5461" style="fill:none;fill-rule:evenodd;stroke:#313131;stroke-width:0.25;stroke-linecap:butt;stroke-linejoin:miter;stroke-miterlimit:4;stroke-dasharray:none;stroke-opacity:1"/>
</g>
<g id="g2586">
<path d="M 20.83,13.58 C 20.60,12.76 19.68,12.91 19.56,12.27 C 19.40,11.37 18.63,11.73 18.49,11.00 C 18.38,10.37 17.70,10.64 17.46,10.02 C 17.29,9.57 17.04,9.61 16.83,9.42 C 17.24,9.39 17.51,9.26 17.68,9.48 C 18.08,10.01 18.70,9.66 19.04,10.16 C 19.59,10.99 19.92,10.12 20.52,10.76 C 21.12,11.41 21.52,10.80 22.18,11.65 C 22.83,12.49 22.99,13.75 22.99,13.75 L 20.83,13.58 z" id="p5465" style="fill:#e2c859;fill-opacity:1;fill-rule:evenodd;stroke:none;"/>
<path d="M 19.78,12.63 C 20.10,12.89 20.66,12.97 20.83,13.58 L 21.97,13.67 C 21.49,12.39 20.24,12.26 20.00,11.83 C 19.74,11.38 19.66,11.24 19.25,11.07 C 18.84,10.90 18.92,10.73 18.55,10.17 C 18.46,10.04 18.33,9.91 18.19,9.78 C 18.00,9.74 17.83,9.67 17.68,9.48 C 17.51,9.26 17.23,9.39 16.83,9.43 C 17.04,9.61 17.29,9.57 17.46,10.02 C 17.70,10.64 18.38,10.37 18.49,11.00 C 18.63,11.74 19.40,11.37 19.56,12.27 C 19.59,12.43 19.67,12.54 19.78,12.63 L 19.78,12.63 z" id="p5467" style="fill:#d68536;fill-opacity:1;fill-rule:evenodd;stroke:none;"/>
<path d="M 20.83,13.58 C 20.60,12.76 19.68,12.91 19.56,12.27 C 19.40,11.37 18.63,11.73 18.49,11.00 C 18.38,10.37 17.70,10.64 17.46,10.02 C 17.29,9.57 17.04,9.61 16.83,9.42 C 17.24,9.39 17.51,9.26 17.68,9.48 C 18.08,10.01 18.70,9.66 19.04,10.16 C 19.59,10.99 19.92,10.12 20.52,10.76 C 21.12,11.41 21.52,10.80 22.18,11.65 C 22.83,12.49 22.99,13.75 22.99,13.75 L 20.83,13.58 z" id="p5469" style="fill:none;fill-rule:evenodd;stroke:#313131;stroke-width:0.30;stroke-linecap:butt;stroke-linejoin:miter;stroke-miterlimit:4;stroke-dasharray:none;stroke-opacity:1"/>
</g>
<g id="g2594">
<path d="M 20.42,15.38 C 19.88,14.72 19.09,15.22 18.74,14.68 C 18.23,13.92 17.66,14.56 17.24,13.93 C 16.89,13.40 16.37,13.92 15.91,13.44 C 15.57,13.10 15.36,13.24 15.09,13.15 C 15.45,12.95 15.65,12.73 15.90,12.86 C 16.48,13.19 16.91,12.62 17.41,12.95 C 18.25,13.49 18.21,12.56 19.01,12.91 C 19.82,13.27 19.95,12.55 20.88,13.07 C 21.82,13.58 22.47,14.68 22.47,14.68 L 20.42,15.38 z" id="p5473" style="fill:#e2c859;fill-opacity:1;fill-rule:evenodd;stroke:none;"/>
<path d="M 19.07,14.92 C 19.47,15.04 20.02,14.88 20.42,15.37 L 21.50,15.01 C 20.55,14.02 19.35,14.40 18.96,14.10 C 18.54,13.78 18.41,13.69 17.97,13.70 C 17.53,13.71 17.53,13.52 16.97,13.15 C 16.84,13.07 16.67,13.00 16.48,12.94 C 16.30,12.97 16.11,12.98 15.90,12.86 C 15.65,12.73 15.45,12.96 15.09,13.15 C 15.36,13.24 15.57,13.10 15.91,13.44 C 16.37,13.92 16.89,13.40 17.24,13.94 C 17.66,14.56 18.23,13.92 18.74,14.68 C 18.82,14.81 18.94,14.88 19.07,14.92 L 19.07,14.92 z" id="p5475" style="fill:#d68536;fill-opacity:1;fill-rule:evenodd;stroke:none;"/>
<path d="M 20.42,15.38 C 19.88,14.72 19.09,15.22 18.74,14.68 C 18.23,13.92 17.66,14.56 17.24,13.93 C 16.89,13.40 16.37,13.92 15.91,13.44 C 15.57,13.10 15.36,13.24 15.09,13.15 C 15.45,12.95 15.65,12.73 15.90,12.86 C 16.48,13.19 16.91,12.62 17.41,12.95 C 18.25,13.49 18.21,12.56 19.01,12.91 C 19.82,13.27 19.95,12.55 20.88,13.07 C 21.82,13.58 22.47,14.68 22.47,14.68 L 20.42,15.38 z" id="p5477" style="fill:none;fill-rule:evenodd;stroke:#313131;stroke-width:0.30;stroke-linecap:butt;stroke-linejoin:miter;stroke-miterlimit:4;stroke-dasharray:none;stroke-opacity:1"/>
</g>
<g id="g2602">
<path d="M 21.02,16.91 C 20.21,16.81 19.98,17.68 19.38,17.54 C 18.52,17.34 18.55,18.16 17.84,18.00 C 17.24,17.87 17.23,18.57 16.59,18.54 C 16.12,18.52 16.07,18.76 15.82,18.88 C 15.94,18.50 15.94,18.21 16.20,18.15 C 16.82,17.99 16.74,17.31 17.31,17.20 C 18.25,17.02 17.61,16.40 18.41,16.12 C 19.20,15.84 18.82,15.25 19.82,14.99 C 20.81,14.74 21.99,15.08 21.99,15.08 L 21.02,16.91 z" id="p5481" style="fill:#e2c859;fill-opacity:1;fill-rule:evenodd;stroke:none;"/>
<path d="M 19.78,17.49 C 20.13,17.30 20.41,16.83 21.02,16.91 L 21.53,15.94 C 20.22,15.88 19.62,16.94 19.15,16.99 C 18.65,17.04 18.50,17.06 18.20,17.36 C 17.89,17.66 17.77,17.53 17.14,17.64 C 16.99,17.67 16.82,17.73 16.65,17.81 C 16.55,17.96 16.42,18.09 16.20,18.15 C 15.94,18.21 15.94,18.50 15.82,18.88 C 16.07,18.76 16.12,18.52 16.59,18.54 C 17.23,18.57 17.24,17.87 17.85,18.00 C 18.55,18.17 18.52,17.34 19.38,17.54 C 19.53,17.57 19.66,17.55 19.78,17.49 L 19.78,17.49 z" id="p5483" style="fill:#d68536;fill-opacity:1;fill-rule:evenodd;stroke:none;"/>
<path d="M 21.02,16.91 C 20.21,16.81 19.98,17.68 19.38,17.54 C 18.52,17.34 18.55,18.16 17.84,18.00 C 17.24,17.87 17.23,18.57 16.59,18.54 C 16.12,18.52 16.07,18.76 15.82,18.88 C 15.94,18.50 15.94,18.21 16.20,18.15 C 16.82,17.99 16.74,17.31 17.31,17.20 C 18.25,17.02 17.61,16.40 18.41,16.12 C 19.20,15.84 18.82,15.25 19.82,14.99 C 20.81,14.74 21.99,15.08 21.99,15.08 L 21.02,16.91 z" id="p5485" style="fill:none;fill-rule:evenodd;stroke:#313131;stroke-width:0.28;stroke-linecap:butt;stroke-linejoin:miter;stroke-miterlimit:4;stroke-dasharray:none;stroke-opacity:1"/>
</g>
<g id="g2610">
<path d="M 22.27,18.42 C 21.43,18.55 21.46,19.49 20.82,19.52 C 19.91,19.57 20.17,20.39 19.42,20.43 C 18.78,20.47 18.97,21.17 18.32,21.33 C 17.85,21.45 17.86,21.70 17.66,21.89 C 17.67,21.48 17.58,21.19 17.82,21.05 C 18.39,20.71 18.12,20.05 18.65,19.78 C 19.55,19.33 18.72,18.90 19.44,18.39 C 20.15,17.87 19.60,17.40 20.52,16.85 C 21.44,16.31 22.71,16.31 22.71,16.31 L 22.27,18.42 z" id="p5489" style="fill:#e2c859;fill-opacity:1;fill-rule:evenodd;stroke:none;"/>
<path d="M 21.20,19.35 C 21.50,19.07 21.64,18.52 22.27,18.42 L 22.50,17.30 C 21.18,17.62 20.89,18.85 20.43,19.04 C 19.95,19.23 19.81,19.30 19.59,19.68 C 19.37,20.07 19.21,19.98 18.61,20.27 C 18.47,20.34 18.32,20.45 18.18,20.58 C 18.11,20.76 18.03,20.93 17.81,21.05 C 17.58,21.19 17.67,21.48 17.66,21.89 C 17.86,21.70 17.85,21.45 18.32,21.33 C 18.97,21.17 18.78,20.47 19.42,20.43 C 20.17,20.39 19.91,19.57 20.82,19.52 C 20.98,19.51 21.10,19.45 21.20,19.35 L 21.20,19.35 z" id="p5491" style="fill:#d68536;fill-opacity:1;fill-rule:evenodd;stroke:none;"/>
<path d="M 22.27,18.42 C 21.43,18.55 21.46,19.49 20.82,19.52 C 19.91,19.57 20.17,20.39 19.42,20.43 C 18.78,20.47 18.97,21.17 18.32,21.33 C 17.85,21.45 17.86,21.70 17.66,21.89 C 17.67,21.48 17.58,21.19 17.82,21.05 C 18.39,20.71 18.12,20.05 18.65,19.78 C 19.55,19.33 18.72,18.90 19.44,18.39 C 20.15,17.87 19.60,17.40 20.52,16.85 C 21.44,16.31 22.71,16.31 22.71,16.31 L 22.27,18.42 z" id="p5493" style="fill:none;fill-rule:evenodd;stroke:#313131;stroke-width:0.30;stroke-linecap:butt;stroke-linejoin:miter;stroke-miterlimit:4;stroke-dasharray:none;stroke-opacity:1"/>
</g>
<g id="g2618">
<path d="M 24.37,18.48 C 23.64,18.82 23.97,19.56 23.40,19.77 C 22.57,20.07 23.08,20.65 22.41,20.90 C 21.84,21.11 22.24,21.63 21.70,21.94 C 21.31,22.17 21.40,22.37 21.27,22.57 C 21.15,22.24 20.97,22.04 21.14,21.86 C 21.56,21.42 21.09,20.97 21.50,20.60 C 22.17,19.99 21.27,19.87 21.76,19.26 C 22.25,18.64 21.59,18.42 22.25,17.72 C 22.92,17.02 24.08,16.65 24.08,16.65 L 24.37,18.48 z" id="p5497" style="fill:#e2c859;fill-opacity:1;fill-rule:evenodd;stroke:none;"/>
<path d="M 23.69,19.53 C 23.87,19.22 23.82,18.73 24.37,18.48 L 24.22,17.51 C 23.10,18.15 23.24,19.22 22.89,19.50 C 22.51,19.79 22.40,19.89 22.32,20.26 C 22.25,20.63 22.07,20.60 21.62,21.01 C 21.51,21.10 21.41,21.24 21.32,21.38 C 21.32,21.54 21.29,21.70 21.14,21.86 C 20.97,22.04 21.15,22.25 21.27,22.58 C 21.40,22.37 21.31,22.17 21.70,21.94 C 22.24,21.63 21.84,21.12 22.41,20.90 C 23.08,20.66 22.57,20.07 23.40,19.77 C 23.54,19.72 23.63,19.64 23.69,19.53 L 23.69,19.53 z" id="p5499" style="fill:#d68536;fill-opacity:1;fill-rule:evenodd;stroke:none;"/>
<path d="M 24.37,18.48 C 23.64,18.82 23.97,19.56 23.40,19.77 C 22.57,20.07 23.08,20.65 22.41,20.90 C 21.84,21.11 22.24,21.63 21.70,21.94 C 21.31,22.17 21.40,22.37 21.27,22.57 C 21.15,22.24 20.97,22.04 21.14,21.86 C 21.56,21.42 21.09,20.97 21.50,20.60 C 22.17,19.99 21.27,19.87 21.76,19.26 C 22.25,18.64 21.59,18.42 22.25,17.72 C 22.92,17.02 24.08,16.65 24.08,16.65 L 24.37,18.48 z" id="p5501" style="fill:none;fill-rule:evenodd;stroke:#313131;stroke-width:0.27;stroke-linecap:butt;stroke-linejoin:miter;stroke-miterlimit:4;stroke-dasharray:none;stroke-opacity:1"/>
</g>
<g id="g2626">
<path d="M 25.94,17.43 C 25.37,17.93 26.00,18.48 25.52,18.83 C 24.84,19.32 25.58,19.68 25.02,20.09 C 24.54,20.43 25.15,20.77 24.75,21.19 C 24.46,21.50 24.63,21.64 24.59,21.86 C 24.33,21.61 24.07,21.48 24.17,21.27 C 24.40,20.78 23.75,20.52 24.00,20.08 C 24.40,19.36 23.47,19.51 23.70,18.84 C 23.92,18.17 23.18,18.16 23.54,17.36 C 23.91,16.56 24.90,15.92 24.90,15.92 L 25.94,17.43 z" id="p5505" style="fill:#e2c859;fill-opacity:1;fill-rule:evenodd;stroke:none;"/>
<path d="M 25.71,18.53 C 25.76,18.21 25.51,17.80 25.94,17.43 L 25.39,16.63 C 24.56,17.49 25.14,18.39 24.91,18.73 C 24.65,19.09 24.58,19.21 24.66,19.55 C 24.74,19.89 24.56,19.92 24.28,20.40 C 24.22,20.51 24.18,20.66 24.15,20.81 C 24.21,20.95 24.25,21.09 24.17,21.27 C 24.07,21.48 24.33,21.61 24.59,21.86 C 24.63,21.64 24.46,21.50 24.75,21.19 C 25.15,20.77 24.54,20.43 25.02,20.09 C 25.58,19.68 24.84,19.32 25.52,18.83 C 25.64,18.74 25.69,18.64 25.71,18.53 L 25.71,18.53 z" id="p5507" style="fill:#d68536;fill-opacity:1;fill-rule:evenodd;stroke:none;"/>
<path d="M 25.94,17.43 C 25.37,17.93 26.00,18.48 25.52,18.83 C 24.84,19.32 25.58,19.68 25.02,20.09 C 24.54,20.43 25.15,20.77 24.75,21.19 C 24.46,21.50 24.63,21.64 24.59,21.86 C 24.33,21.61 24.07,21.48 24.17,21.27 C 24.40,20.78 23.75,20.52 24.00,20.08 C 24.40,19.36 23.47,19.51 23.70,18.84 C 23.92,18.17 23.18,18.16 23.54,17.36 C 23.91,16.56 24.90,15.92 24.90,15.92 L 25.94,17.43 z" id="p5509" style="fill:none;fill-rule:evenodd;stroke:#313131;stroke-width:0.26;stroke-linecap:butt;stroke-linejoin:miter;stroke-miterlimit:4;stroke-dasharray:none;stroke-opacity:1"/>
</g>
<g id="g2634">
<path d="M 26.29,17.41 C 26.23,18.19 27.08,18.37 26.97,18.96 C 26.82,19.79 27.62,19.73 27.49,20.42 C 27.38,21.00 28.07,20.99 28.07,21.60 C 28.07,22.05 28.30,22.10 28.43,22.33 C 28.06,22.23 27.78,22.25 27.70,22.00 C 27.52,21.41 26.86,21.51 26.73,20.97 C 26.52,20.06 25.94,20.71 25.64,19.95 C 25.33,19.20 24.77,19.59 24.48,18.64 C 24.18,17.70 24.46,16.55 24.46,16.55 L 26.29,17.41 z" id="p5513" style="fill:#e2c859;fill-opacity:1;fill-rule:evenodd;stroke:none;"/>
<path d="M 26.90,18.58 C 26.71,18.24 26.24,17.99 26.29,17.41 L 25.32,16.95 C 25.32,18.22 26.38,18.75 26.45,19.20 C 26.52,19.68 26.55,19.82 26.85,20.10 C 27.15,20.38 27.03,20.51 27.17,21.12 C 27.20,21.25 27.27,21.41 27.36,21.57 C 27.50,21.67 27.64,21.78 27.70,22.00 C 27.78,22.25 28.06,22.23 28.43,22.33 C 28.30,22.10 28.07,22.05 28.07,21.60 C 28.07,20.99 27.38,21.00 27.49,20.42 C 27.62,19.73 26.82,19.79 26.97,18.96 C 27.00,18.81 26.97,18.69 26.90,18.58 L 26.90,18.58 z" id="p5515" style="fill:#d68536;fill-opacity:1;fill-rule:evenodd;stroke:none;"/>
<path d="M 26.29,17.41 C 26.23,18.19 27.08,18.37 26.97,18.96 C 26.82,19.79 27.62,19.73 27.49,20.42 C 27.38,21.00 28.07,20.99 28.07,21.60 C 28.07,22.05 28.30,22.10 28.43,22.33 C 28.06,22.23 27.78,22.25 27.70,22.00 C 27.52,21.41 26.86,21.51 26.73,20.97 C 26.52,20.06 25.94,20.71 25.64,19.95 C 25.33,19.20 24.77,19.59 24.48,18.64 C 24.18,17.70 24.46,16.55 24.46,16.55 L 26.29,17.41 z" id="p5517" style="fill:none;fill-rule:evenodd;stroke:#313131;stroke-width:0.27;stroke-linecap:butt;stroke-linejoin:miter;stroke-miterlimit:4;stroke-dasharray:none;stroke-opacity:1"/>
</g>
<g id="g2642">
<path d="M 28.31,16.92 C 28.44,17.76 29.38,17.73 29.42,18.37 C 29.47,19.29 30.28,19.02 30.33,19.77 C 30.37,20.41 31.08,20.22 31.24,20.86 C 31.35,21.33 31.61,21.32 31.79,21.53 C 31.39,21.52 31.10,21.61 30.96,21.37 C 30.62,20.80 29.96,21.07 29.69,20.54 C 29.23,19.65 28.80,20.47 28.29,19.76 C 27.77,19.05 27.30,19.60 26.75,18.68 C 26.20,17.77 26.19,16.50 26.19,16.50 L 28.31,16.92 z" id="p5521" style="fill:#e2c859;fill-opacity:1;fill-rule:evenodd;stroke:none;"/>
<path d="M 29.25,17.99 C 28.96,17.69 28.41,17.55 28.31,16.92 L 27.19,16.70 C 27.52,18.02 28.75,18.31 28.93,18.76 C 29.13,19.24 29.20,19.39 29.58,19.60 C 29.97,19.82 29.88,19.98 30.18,20.58 C 30.25,20.72 30.36,20.87 30.49,21.01 C 30.66,21.08 30.83,21.16 30.96,21.37 C 31.10,21.61 31.39,21.52 31.79,21.53 C 31.61,21.32 31.35,21.33 31.24,20.86 C 31.08,20.22 30.37,20.41 30.33,19.77 C 30.29,19.02 29.47,19.29 29.42,18.37 C 29.41,18.21 29.34,18.09 29.25,17.99 L 29.25,17.99 z" id="p5523" style="fill:#d68536;fill-opacity:1;fill-rule:evenodd;stroke:none;"/>
<path d="M 28.31,16.92 C 28.44,17.76 29.38,17.73 29.42,18.37 C 29.47,19.29 30.28,19.02 30.33,19.77 C 30.37,20.41 31.08,20.22 31.24,20.86 C 31.35,21.33 31.61,21.32 31.79,21.53 C 31.39,21.52 31.10,21.61 30.96,21.37 C 30.62,20.80 29.96,21.07 29.69,20.54 C 29.23,19.65 28.80,20.47 28.29,19.76 C 27.77,19.05 27.30,19.60 26.75,18.68 C 26.20,17.77 26.19,16.50 26.19,16.50 L 28.31,16.92 z" id="p5525" style="fill:none;fill-rule:evenodd;stroke:#313131;stroke-width:0.30;stroke-linecap:butt;stroke-linejoin:miter;stroke-miterlimit:4;stroke-dasharray:none;stroke-opacity:1"/>
</g>
<g id="g2650">
<path d="M 29.01,15.01 C 29.40,15.76 30.28,15.43 30.51,16.03 C 30.85,16.88 31.54,16.37 31.82,17.07 C 32.06,17.67 32.67,17.26 33.02,17.82 C 33.28,18.23 33.52,18.14 33.76,18.28 C 33.37,18.40 33.13,18.58 32.92,18.39 C 32.41,17.96 31.88,18.43 31.45,18.00 C 30.74,17.30 30.59,18.22 29.88,17.70 C 29.16,17.19 28.89,17.87 28.08,17.17 C 27.27,16.47 26.86,15.26 26.86,15.26 L 29.01,15.01 z" id="p5529" style="fill:#e2c859;fill-opacity:1;fill-rule:evenodd;stroke:none;"/>
<path d="M 30.23,15.73 C 29.87,15.53 29.30,15.57 29.01,15.01 L 27.87,15.14 C 28.60,16.30 29.86,16.18 30.18,16.55 C 30.52,16.95 30.62,17.06 31.06,17.15 C 31.49,17.23 31.45,17.41 31.93,17.89 C 32.04,18.00 32.19,18.10 32.36,18.20 C 32.55,18.21 32.73,18.24 32.92,18.40 C 33.13,18.58 33.37,18.40 33.76,18.28 C 33.52,18.14 33.28,18.23 33.02,17.83 C 32.67,17.26 32.06,17.67 31.82,17.07 C 31.54,16.37 30.85,16.88 30.51,16.03 C 30.45,15.88 30.35,15.79 30.23,15.73 L 30.23,15.73 z" id="p5531" style="fill:#d68536;fill-opacity:1;fill-rule:evenodd;stroke:none;"/>
<path d="M 29.01,15.01 C 29.40,15.76 30.28,15.43 30.51,16.03 C 30.85,16.88 31.54,16.37 31.82,17.07 C 32.06,17.67 32.67,17.26 33.02,17.82 C 33.28,18.23 33.52,18.14 33.76,18.28 C 33.37,18.40 33.13,18.58 32.92,18.39 C 32.41,17.96 31.88,18.43 31.45,18.00 C 30.74,17.30 30.59,18.22 29.88,17.70 C 29.16,17.19 28.89,17.87 28.08,17.17 C 27.27,16.47 26.86,15.26 26.86,15.26 L 29.01,15.01 z" id="p5533" style="fill:none;fill-rule:evenodd;stroke:#313131;stroke-width:0.30;stroke-linecap:butt;stroke-linejoin:miter;stroke-miterlimit:4;stroke-dasharray:none;stroke-opacity:1"/>
</g>
<path d="M 24.25,10.87 C 21.86,10.99 20.01,12.76 20.12,14.81 C 20.23,16.85 22.23,18.40 24.62,18.28 C 27.01,18.15 28.85,16.42 28.75,14.37 C 28.64,12.32 26.63,10.75 24.25,10.87 z" id="p5415" style="fill:#e2c859;fill-opacity:1;stroke:none;"/>
<path d="M 21.91,11.88 C 21.83,11.85 21.56,11.96 21.28,12.08 C 20.48,12.82 20.06,13.80 20.11,14.80 C 20.20,16.44 21.53,17.82 23.39,18.20 C 22.72,17.85 22.11,17.40 21.68,16.91 C 20.61,15.70 20.36,14.06 21.91,12.02 C 21.96,11.94 21.95,11.90 21.91,11.88 L 21.91,11.88 z" id="p5538" style="fill:#d68536;fill-opacity:1;fill-rule:evenodd;stroke:none;"/>
<path d="M 24.68,10.87 C 24.53,10.86 24.39,10.86 24.24,10.87 C 23.89,10.89 23.55,10.95 23.21,11.04 C 22.28,11.61 22.86,11.52 23.56,11.37 C 24.30,11.21 26.10,11.11 26.68,13.06 C 26.40,12.92 25.62,12.71 25.01,13.29 C 24.41,13.87 24.62,14.80 24.65,15.10 C 24.67,15.40 24.09,15.49 24.09,15.49 C 24.09,15.49 23.56,15.26 23.51,15.42 C 23.46,15.58 24.18,15.72 24.44,15.75 C 24.69,15.77 24.69,15.28 25.01,15.49 C 25.34,15.70 25.55,15.42 25.48,15.24 C 25.41,15.05 25.04,15.12 25.04,15.12 C 25.04,15.12 24.78,14.22 25.20,13.68 C 25.62,13.15 26.59,13.52 26.99,13.80 C 26.55,14.22 26.50,14.26 26.75,14.31 C 27.01,14.36 27.22,14.66 27.35,15.58 C 27.46,16.27 27.12,17.63 25.23,18.22 C 27.34,17.85 28.85,16.20 28.76,14.36 C 28.66,12.45 26.89,10.94 24.68,10.87 L 24.68,10.87 z" id="p5540" style="fill:#d68536;fill-opacity:1;fill-rule:evenodd;stroke:none;"/>
<path d="M 24.25,10.87 C 21.86,10.99 20.01,12.76 20.12,14.81 C 20.23,16.85 22.23,18.40 24.62,18.28 C 27.01,18.15 28.85,16.42 28.75,14.37 C 28.64,12.32 26.63,10.75 24.25,10.87 z" id="ellipse5550" style="fill:none;fill-opacity:1;stroke:#313131;stroke-width:0.30;stroke-linecap:round;stroke-linejoin:round;stroke-miterlimit:4;stroke-dasharray:none;stroke-opacity:1"/>
<path d="M 30.14,19.49 L 33.72,20.29" id="p5609" style="fill:none;fill-rule:evenodd;stroke:#1d1d1d;stroke-width:0.30;stroke-linecap:butt;stroke-linejoin:miter;stroke-miterlimit:4;stroke-dasharray:none;stroke-opacity:1"/>
<path d="M 28.99,20.77 L 33.85,23.60" id="p5611" style="fill:none;fill-rule:evenodd;stroke:#1d1d1d;stroke-width:0.30;stroke-linecap:butt;stroke-linejoin:miter;stroke-miterlimit:4;stroke-dasharray:none;stroke-opacity:1"/>
<path d="M 28.37,22.23 L 33.89,27.93" id="p5613" style="fill:none;fill-rule:evenodd;stroke:#1d1d1d;stroke-width:0.30;stroke-linecap:butt;stroke-linejoin:miter;stroke-miterlimit:4;stroke-dasharray:none;stroke-opacity:1"/>
<path d="M 26.07,21.61 L 33.89,36.86" id="p5615" style="fill:none;fill-rule:evenodd;stroke:#1d1d1d;stroke-width:0.30;stroke-linecap:butt;stroke-linejoin:miter;stroke-miterlimit:4;stroke-dasharray:none;stroke-opacity:1"/>
<path d="M 24.79,20.42 L 28.90,40.04" id="p5617" style="fill:none;fill-rule:evenodd;stroke:#1d1d1d;stroke-width:0.30;stroke-linecap:butt;stroke-linejoin:miter;stroke-miterlimit:4;stroke-dasharray:none;stroke-opacity:1"/>
<path d="M 23.95,20.06 L 19.93,40.08" id="p5619" style="fill:none;fill-rule:evenodd;stroke:#1d1d1d;stroke-width:0.30;stroke-linecap:butt;stroke-linejoin:miter;stroke-miterlimit:4;stroke-dasharray:none;stroke-opacity:1"/>
<path d="M 22.89,21.08 L 14.84,37.57" id="p5621" style="fill:none;fill-rule:evenodd;stroke:#1d1d1d;stroke-width:0.30;stroke-linecap:butt;stroke-linejoin:miter;stroke-miterlimit:4;stroke-dasharray:none;stroke-opacity:1"/>
<path d="M 21.16,21.88 L 14.62,28.95" id="p5623" style="fill:none;fill-rule:evenodd;stroke:#1d1d1d;stroke-width:0.30;stroke-linecap:butt;stroke-linejoin:miter;stroke-miterlimit:4;stroke-dasharray:none;stroke-opacity:1"/>
<path d="M 19.88,21.04 L 14.89,24.17" id="p5625" style="fill:none;fill-rule:evenodd;stroke:#1d1d1d;stroke-width:0.30;stroke-linecap:butt;stroke-linejoin:miter;stroke-miterlimit:4;stroke-dasharray:none;stroke-opacity:1"/>
<path d="M 18.29,19.98 L 15.02,20.86" id="p5627" style="fill:none;fill-rule:evenodd;stroke:#1d1d1d;stroke-width:0.30;stroke-linecap:butt;stroke-linejoin:miter;stroke-miterlimit:4;stroke-dasharray:none;stroke-opacity:1"/>
<path d="M 15.02,18.43 L 16.04,18.38" id="p5629" style="fill:none;fill-rule:evenodd;stroke:#1d1d1d;stroke-width:0.30;stroke-linecap:butt;stroke-linejoin:miter;stroke-miterlimit:4;stroke-dasharray:none;stroke-opacity:1"/>
<path d="M 21.99,38.28 L 23.88,35.93" id="p5675" style="fill:none;fill-rule:evenodd;stroke:#202020;stroke-width:0.2;stroke-linecap:butt;stroke-linejoin:miter;stroke-miterlimit:4;stroke-dasharray:none;stroke-opacity:1"/>
<path d="M 23.06,38.96 L 24.18,35.88" id="p5677" style="fill:none;fill-rule:evenodd;stroke:#202020;stroke-width:0.2;stroke-linecap:butt;stroke-linejoin:miter;stroke-miterlimit:4;stroke-dasharray:none;stroke-opacity:1"/>
<path d="M 25.29,38.88 L 24.22,35.75" id="p5679" style="fill:none;fill-rule:evenodd;stroke:#202020;stroke-width:0.2;stroke-linecap:butt;stroke-linejoin:miter;stroke-miterlimit:4;stroke-dasharray:none;stroke-opacity:1"/>
<path d="M 26.62,38.45 L 24.56,35.71" id="p5681" style="fill:none;fill-rule:evenodd;stroke:#202020;stroke-width:0.2;stroke-linecap:butt;stroke-linejoin:miter;stroke-miterlimit:4;stroke-dasharray:none;stroke-opacity:1"/>
<path d="M 20.62,31.22 L 23.75,35.93" id="p5667" style="fill:none;fill-rule:evenodd;stroke:#212121;stroke-width:0.2;stroke-linecap:butt;stroke-linejoin:miter;stroke-miterlimit:4;stroke-dasharray:none;stroke-opacity:1"/>
<path d="M 23.62,33.53 L 24.18,36.01" id="p5669" style="fill:none;fill-rule:evenodd;stroke:#212121;stroke-width:0.2;stroke-linecap:butt;stroke-linejoin:miter;stroke-miterlimit:4;stroke-dasharray:none;stroke-opacity:1"/>
<path d="M 24.30,35.80 L 25.08,33.49" id="p5671" style="fill:none;fill-rule:evenodd;stroke:#212121;stroke-width:0.2;stroke-linecap:butt;stroke-linejoin:miter;stroke-miterlimit:4;stroke-dasharray:none;stroke-opacity:1"/>
<path d="M 28.41,30.75 L 24.56,35.88" id="p5673" style="fill:none;fill-rule:evenodd;stroke:#212121;stroke-width:0.2;stroke-linecap:butt;stroke-linejoin:miter;stroke-miterlimit:4;stroke-dasharray:none;stroke-opacity:1"/>
<path d="M 22.60,16.35 C 23.11,16.64 23.75,16.48 23.97,16.40 C 24.19,16.31 24.81,16.35 25.03,16.46 C 25.25,16.57 26.05,16.44 26.05,16.44 C 26.05,16.44 25.27,16.42 25.14,16.22 C 25.01,16.02 24.57,16.18 24.30,16.18 C 24.04,16.18 23.93,16.04 23.62,16.18 C 23.31,16.31 23.13,16.44 22.60,16.35 L 22.60,16.35 z" id="p5552" style="fill:none;fill-rule:evenodd;stroke:#313131;stroke-width:0.2;stroke-linecap:butt;stroke-linejoin:miter;stroke-miterlimit:4;stroke-dasharray:none;stroke-opacity:1"/>
<path d="M 23.55,16.73 C 23.84,17.13 24.96,17.06 25.16,16.79" id="p5554" style="fill:none;fill-rule:evenodd;stroke:#313131;stroke-width:0.30;stroke-linecap:butt;stroke-linejoin:miter;stroke-miterlimit:4;stroke-dasharray:none;stroke-opacity:1"/>
<path d="M 23.04,15.71 C 23.29,15.69 23.46,15.47 23.51,15.34 C 23.64,15.67 23.84,15.58 24.06,15.56 C 24.28,15.53 24.57,15.89 24.74,15.58 C 24.92,15.27 25.12,15.62 25.32,15.58 C 25.52,15.53 25.58,15.45 25.54,15.27 C 25.69,15.56 25.78,15.64 25.98,15.69" id="p5556" style="fill:none;fill-rule:evenodd;stroke:#313131;stroke-width:0.30;stroke-linecap:round;stroke-linejoin:round;stroke-miterlimit:4;stroke-dasharray:none;stroke-opacity:1"/>
<path d="M 22.54,14.15 L 22.45,14.40 C 22.45,14.40 21.89,14.48 21.68,13.89 C 21.48,13.29 21.57,13.29 21.95,13.18 C 22.32,13.07 23.46,13 23.64,13.18 C 23.81,13.37 23.90,14.20 23.48,14.31 C 23.35,14.25 23.39,13.87 23.21,13.79 C 23.04,13.71 22.65,13.51 22.20,13.70 C 21.75,13.89 22.17,13.98 22.54,14.15 z" id="p5592" style="fill:#d68536;fill-opacity:1;fill-rule:evenodd;stroke:none;"/>
<path d="M 21.61,13.13 C 22.38,13.08 22.49,12.88 22.95,12.88 C 23.42,12.88 23.68,13.15 23.68,13.15" id="p5558" style="fill:none;fill-rule:evenodd;stroke:#313131;stroke-width:0.40;stroke-linecap:round;stroke-linejoin:miter;stroke-miterlimit:4;stroke-dasharray:none;stroke-opacity:1"/>
<path d="M 22.53,14.08 C 22.22,14.01 21.94,13.83 21.74,13.88 C 22.16,13.72 22.34,13.52 22.76,13.61 C 23.17,13.70 23.31,13.77 23.37,13.97" id="p5560" style="fill:none;fill-rule:evenodd;stroke:#313131;stroke-width:0.2;stroke-linecap:round;stroke-linejoin:miter;stroke-miterlimit:4;stroke-dasharray:none;stroke-opacity:1"/>
<path d="M 22.62,13.56 C 22.48,13.56 22.37,13.66 22.37,13.81 C 22.37,13.95 22.48,14.09 22.62,14.09 C 22.76,14.09 22.87,13.95 22.87,13.81 C 22.87,13.66 22.76,13.56 22.62,13.56 z" id="p5562" style="fill:#313131;fill-opacity:1;stroke:none;"/>
<path d="M 27.04,12.99 C 26.27,12.95 26.16,12.75 25.69,12.75 C 25.23,12.75 24.96,13.02 24.96,13.02" id="p5564" style="fill:none;fill-rule:evenodd;stroke:#313131;stroke-width:0.40;stroke-linecap:round;stroke-linejoin:miter;stroke-miterlimit:4;stroke-dasharray:none;stroke-opacity:1"/>
<path d="M 26.11,13.94 C 26.42,13.88 26.71,13.70 26.91,13.74 C 26.49,13.59 26.31,13.39 25.89,13.48 C 25.47,13.57 25.34,13.63 25.27,13.83" id="p5566" style="fill:none;fill-rule:evenodd;stroke:#313131;stroke-width:0.2;stroke-linecap:round;stroke-linejoin:miter;stroke-miterlimit:4;stroke-dasharray:none;stroke-opacity:1"/>
<path d="M 26.03,13.40 C 25.89,13.40 25.78,13.54 25.78,13.68 C 25.78,13.83 25.89,13.93 26.03,13.93 C 26.17,13.93 26.28,13.83 26.28,13.68 C 26.28,13.54 26.17,13.40 26.03,13.40 z" id="ellipse5568" style="fill:#313131;fill-opacity:1;stroke:none;"/>
<path d="M 22.42,31.82 C 23.06,32.72 23.06,33.44 23.06,33.79 C 23.06,34.13 25.59,34.17 25.59,33.70 C 25.59,33.23 25.80,32.03 26.66,31.43 C 27.51,30.83 21.78,30.79 22.42,31.82 L 22.42,31.82 z" id="p5663" style="fill:#e2c859;fill-opacity:1;fill-rule:evenodd;stroke:#1b1b1b;stroke-width:0.30;stroke-linecap:butt;stroke-linejoin:miter;stroke-miterlimit:4;stroke-dasharray:none;stroke-opacity:1"/>
<path d="M 24.18,22.31 C 20.77,22.49 18.09,24.91 18.18,27.68 C 18.28,30.46 21.12,32.56 24.53,32.37 C 27.94,32.18 30.62,29.77 30.53,27 C 30.43,24.22 27.59,22.12 24.18,22.31 z" id="p5631" style="fill:#354b97;fill-opacity:1;stroke:none;"/>
<path d="M 24.74,22.30 C 29.20,24.73 29.64,28.84 24.87,32.33 C 28.13,32.00 30.62,29.66 30.53,27.00 C 30.44,24.40 27.93,22.36 24.74,22.30 L 24.74,22.30 z M 24.58,22.30 C 24.55,22.30 24.51,22.30 24.48,22.31 C 24.44,26.01 24.47,30.87 24.24,32.36 C 24.28,32.36 24.31,32.36 24.35,32.36 C 26.80,28.94 26.42,23.39 24.58,22.30 z M 24.45,22.31 C 24.40,22.31 24.34,22.31 24.28,22.31 C 20.17,23.99 19.02,29.26 23.79,32.36 C 23.88,32.36 23.97,32.36 24.06,32.36 C 22.79,28.68 21.95,24.79 24.45,22.31 z" id="p5683" style="fill:#d68536;fill-opacity:1;fill-rule:evenodd;stroke:none;display:inline"/>
<path d="M 24.14,25.00 C 22.08,25.03 20.35,25.59 18.35,26.35 C 18.22,26.78 18.16,27.23 18.17,27.67 C 18.19,28.10 18.27,28.53 18.43,28.95 C 22.75,26.92 26.25,26.23 30.19,28.78 C 30.43,28.21 30.55,27.60 30.53,27.00 C 30.52,26.71 30.48,26.43 30.41,26.16 C 27.84,25.30 25.87,24.97 24.14,25.00 z" id="p5634" style="fill:#ead14f;fill-opacity:1;fill-rule:evenodd;stroke:none;"/>
<path d="M 24.18,22.31 C 20.77,22.49 18.09,24.91 18.18,27.68 C 18.28,30.46 21.12,32.56 24.53,32.37 C 27.94,32.18 30.62,29.77 30.53,27 C 30.43,24.22 27.59,22.12 24.18,22.31 z" id="ellipse5640" style="fill:none;fill-opacity:1;stroke:#1d1d1d;stroke-width:0.29;stroke-linecap:round;stroke-linejoin:round;stroke-miterlimit:4;stroke-dasharray:none;stroke-opacity:1"/>
<path d="M 15.11,37.39 C 15.99,37.81 15.47,36.83 16.42,37.12 C 17.37,37.42 17.86,36.04 18.46,36.40 C 17.80,35.38 17.37,34.72 17.37,34.72 C 16.52,34.76 16.62,36.10 15.96,36.17 C 15.30,36.24 15.24,36.73 15.20,36.93 C 15.17,37.12 15.04,37.39 14.81,37.09 C 14.88,37.42 15.11,37.48 15.11,37.39 L 15.11,37.39 z" id="p5651" style="fill:#d76d25;fill-opacity:1;fill-rule:evenodd;stroke:#1c1c1c;stroke-width:0.2;stroke-linecap:butt;stroke-linejoin:miter;stroke-miterlimit:4;stroke-dasharray:none;stroke-opacity:1"/>
<path d="M 17.14,34.33 L 19.44,37.98" id="p5653" style="fill:none;fill-rule:evenodd;stroke:#1b1b1b;stroke-width:0.30;stroke-linecap:round;stroke-linejoin:miter;stroke-miterlimit:4;stroke-dasharray:none;stroke-opacity:1"/>
<path d="M 18.78,37.16 L 18.92,37.39 L 19.87,36.70 L 20.13,37.29 L 20.59,37.52 L 21.51,37.06 L 21.15,36.20 L 22.27,35.74 L 22.20,35.48 L 20.46,35.81 L 20.10,35.12 L 19.70,35.22 L 19.70,35.78 L 19.97,36.01 L 19.54,36.24 L 18.78,37.16 z" id="p5649" style="fill:#2f2f2f;fill-opacity:1;fill-rule:evenodd;stroke:#161616;stroke-width:0.2;stroke-linecap:butt;stroke-linejoin:miter;stroke-miterlimit:4;stroke-dasharray:none;stroke-opacity:1"/>
<path d="M 20.89,38.76 L 20.39,37.32 L 21.41,36.89 L 22.92,39.03 L 22.27,38.93 L 21.18,37.52 L 21.41,39.22 L 20.89,38.76 z" id="p5647" style="fill:#d76d25;fill-opacity:1;fill-rule:evenodd;stroke:#1a1a1a;stroke-width:0.2;stroke-linecap:butt;stroke-linejoin:bevel;stroke-miterlimit:4;stroke-dasharray:none;stroke-opacity:1"/>
<path d="M 33.57,37.20 C 32.69,37.63 33.21,36.64 32.26,36.94 C 31.31,37.23 30.81,35.85 30.22,36.21 C 30.88,35.20 31.31,34.54 31.31,34.54 C 32.16,34.57 32.06,35.92 32.72,35.98 C 33.38,36.05 33.44,36.54 33.48,36.74 C 33.51,36.94 33.64,37.20 33.87,36.90 C 33.80,37.23 33.57,37.30 33.57,37.20 L 33.57,37.20 z" id="p5655" style="fill:#d76d25;fill-opacity:1;fill-rule:evenodd;stroke:#1c1c1c;stroke-width:0.2;stroke-linecap:butt;stroke-linejoin:miter;stroke-miterlimit:4;stroke-dasharray:none;stroke-opacity:1"/>
<path d="M 29.90,36.97 L 29.76,37.20 L 28.81,36.51 L 28.55,37.10 L 28.09,37.33 L 27.17,36.87 L 27.53,36.02 L 26.41,35.56 L 26.48,35.29 L 28.22,35.62 L 28.58,34.93 L 28.98,35.03 L 28.98,35.59 L 28.71,35.82 L 29.14,36.05 L 29.90,36.97 z" id="p5657" style="fill:#2f2f2f;fill-opacity:1;fill-rule:evenodd;stroke:#161616;stroke-width:0.2;stroke-linecap:butt;stroke-linejoin:miter;stroke-miterlimit:4;stroke-dasharray:none;stroke-opacity:1"/>
<path d="M 27.79,38.58 L 28.29,37.13 L 27.27,36.71 L 25.76,38.84 L 26.41,38.74 L 27.50,37.33 L 27.27,39.04 L 27.79,38.58 z" id="p5659" style="fill:#d76d25;fill-opacity:1;fill-rule:evenodd;stroke:#1a1a1a;stroke-width:0.2;stroke-linecap:butt;stroke-linejoin:bevel;stroke-miterlimit:4;stroke-dasharray:none;stroke-opacity:1"/>
<path d="M 28.16,37.90 C 27.93,37.91 27.68,37.96 27.41,38.04 C 26.32,38.37 25.14,38.67 23.96,38.67 C 23.85,38.67 23.77,38.69 23.69,38.71 C 22.66,38.64 21.64,38.40 20.69,38.11 C 19.60,37.78 18.78,38.01 18.82,38.53 C 18.85,39.06 19.57,38.86 20.30,38.93 C 21.02,38.99 20.72,39.59 22.10,40.01 C 23.44,40.01 24.69,39.93 26,39.95 C 27.37,39.52 27.08,38.93 27.80,38.86 C 28.52,38.80 29.25,39.00 29.28,38.47 C 29.30,38.08 28.85,37.85 28.16,37.90 z" id="p5642" style="fill:#362e22;fill-opacity:1;fill-rule:evenodd;stroke:#171717;stroke-width:0.30;stroke-linecap:butt;stroke-linejoin:miter;stroke-miterlimit:4;stroke-dasharray:none;stroke-opacity:1"/>
<path d="M 31.47,34.29 L 29.17,37.93" id="p5661" style="fill:none;fill-rule:evenodd;stroke:#1b1b1b;stroke-width:0.30;stroke-linecap:round;stroke-linejoin:miter;stroke-miterlimit:4;stroke-dasharray:none;stroke-opacity:1"/>
<path d="M 24.25,35.34 C 23.81,35.34 23.46,35.54 23.46,35.81 C 23.46,36.08 23.81,36.31 24.25,36.31 C 24.68,36.31 25.03,36.08 25.03,35.81 C 25.03,35.54 24.68,35.34 24.25,35.34 z" id="p5665" style="fill:#e2c859;fill-opacity:1;stroke:#1b1b1b;stroke-width:0.2;stroke-linecap:round;stroke-linejoin:bevel;stroke-miterlimit:4;stroke-dasharray:none;stroke-opacity:1"/>
<path d="M 10.62,7.35 L 8.93,44.79 L 39.55,44.37 L 37.94,6.67 L 10.62,7.35 z" id="stroke01" style="fill:none;fill-rule:evenodd;stroke:#000000;stroke-width:0.5;stroke-linecap:butt;stroke-linejoin:miter;stroke-miterlimit:4;stroke-dasharray:none;stroke-opacity:1;display:inline"/>
<path d="M 23.17,3.71 L 22.48,3.78 L 24.13,18.28 L 24.83,18.21 L 23.17,3.71 L 23.17,3.71 z" id="p5594" style="font-size:medium;font-style:normal;font-variant:normal;font-weight:normal;font-stretch:normal;text-indent:0;text-align:start;text-decoration:none;line-height:normal;letter-spacing:normal;word-spacing:normal;text-transform:none;direction:ltr;block-progression:tb;writing-mode:lr-tb;text-anchor:start;opacity:1;fill:#181818;fill-opacity:1;fill-rule:evenodd;stroke:none;visibility:visible;display:inline;overflow:visible;enable-background:accumulate;font-family:sans-serif"/>
<path d="M 23.17,3.71 L 22.48,3.78 L 22.57,4.61 L 23.26,4.52 L 23.17,3.71 L 23.17,3.71 z" id="p5598" style="fill:#2f2f2f;fill-opacity:1;fill-rule:evenodd;stroke:none;"/>
</g>
</svg>
