<?xml version="1.0" encoding="UTF-8" standalone="no"?>
<!DOCTYPE svg PUBLIC "-//W3C//DTD SVG 1.0//EN" "http://www.w3.org/TR/2001/REC-SVG-20010904/DTD/svg10.dtd">
<svg xmlns:svg="http://www.w3.org/2000/svg" xmlns="http://www.w3.org/2000/svg" version="1.0" width="100%" height="100%" viewBox="0 0 48 48" id="_trashbin01">
<defs id="defs2385"/>
<g id="trashbin01" style="display:inline">
<path d="M 25.25,3.53 C 25.06,3.55 24.87,3.67 24.62,4.03 C 24.18,4.67 23.78,6 23.78,6 C 23.78,6 22.53,6.01 21.75,6.06 C 20.96,6.11 16.1,7.35 15.65,7.4 C 15.21,7.45 14.24,7.4 14,7.4 C 13.75,7.4 13.53,7.39 13.53,7.59 C 13.53,7.79 13.37,8.81 13.37,8.81 C 13.37,8.81 13.16,8.87 12.96,8.87 C 12.77,8.87 12.69,9.21 12.93,9.21 C 13.12,9.21 14.08,9.37 15.4,9.59 C 12.99,9.84 11.5,10.2 11.5,10.59 C 11.48,10.72 11.48,10.93 11.5,11.15 C 11.5,11.28 11.72,11.41 12.03,11.53 L 11.96,14.75 L 12.09,15.43 L 12.96,36.37 L 12.96,36.46 C 12.98,37.04 13.1,37.61 13.28,38.15 C 13.24,38.34 13.21,38.52 13.21,38.71 C 13.21,41.85 18.25,44.4 24.46,44.4 C 30.67,44.4 35.71,41.85 35.71,38.71 C 35.71,38.52 35.72,38.34 35.68,38.15 C 35.87,37.58 36.03,37.02 36.03,36.4 C 36.03,36.23 36.03,36.16 36.03,35.87 L 37.06,15.43 L 37.37,15.06 L 37.34,12.59 C 38.29,12.71 39.59,12.89 39.71,12.9 C 40.11,12.95 40.08,12.62 40.03,12.53 C 39.98,12.43 39.65,12.43 39.65,12.43 C 39.65,12.43 39.65,11.97 39.65,11.62 C 39.65,11.27 39.86,10.94 39.46,10.84 C 39.07,10.74 38.48,10.31 37.93,10.21 C 37.39,10.12 37.04,9.79 36.5,9.5 C 35.95,9.2 32.21,7.38 31.71,7.18 C 31.22,6.99 30.4,6.73 30.15,6.68 C 29.9,6.63 30,5.38 30,4.93 C 30,4.49 28.97,3.72 28.53,3.62 C 28.08,3.52 25.95,3.53 25.65,3.53 C 25.58,3.53 25.51,3.53 25.43,3.53 C 25.38,3.52 25.31,3.52 25.25,3.53 z M 25.96,4.03 C 25.96,4.08 27.56,4.12 28.06,4.12 C 28.55,4.12 29,4.38 29,4.87 C 29,5.36 29.06,6.59 29.06,6.59 C 29.06,6.59 27.84,6.29 26.9,6.25 C 25.96,6.2 25.03,6 25.03,6 C 25.03,6 25.2,5.5 25.25,5.06 C 25.3,4.61 25.96,4.03 25.96,4.03 z" id="p3265" style="fill:#959593;fill-opacity:1;fill-rule:evenodd;stroke:none"/>
<path d="M 12.78,10 C 11.98,10.18 11.5,10.38 11.5,10.59 C 11.48,10.72 11.48,10.93 11.5,11.15 C 11.5,11.28 11.72,11.41 12.03,11.53 L 11.96,14.75 L 12.09,15.43 L 12.4,22.78 C 16.89,22.03 17.28,25.37 17.28,24.4 C 17.28,23.29 16.96,17.84 18.75,17.84 C 20.53,17.84 22.56,22.19 23.5,24.5 C 24.43,26.8 24.97,27.12 27.87,27.12 C 30.77,27.12 35.28,26.77 35.62,25.75 C 35.96,24.72 35.87,16.9 35.87,16.9 L 35.68,16.4 C 35.68,16.4 36.21,15.7 36.21,15.28 C 36.21,14.85 36.12,14.09 36.12,14.09 L 36.21,12.46 L 30.75,11.53 L 21.71,10.93 L 12.78,10 z" id="p3346" style="fill:#191a1b;fill-opacity:0.21;fill-rule:evenodd;stroke:none;display:inline"/>
<path d="M 35.62,12.21 L 35.43,14.43 C 35.43,14.43 36.03,15.29 36.03,15.71 C 36.03,16.14 35.43,16.71 35.43,16.71 L 34.4,16.9 C 34.4,16.9 33.65,35.38 33.65,36.4 C 33.65,37.42 31.93,37.53 31.93,37.53 L 31.78,40.34 L 33.46,39.81 C 33.46,39.81 33.25,40.5 32.87,42.5 C 34.64,41.49 35.71,40.16 35.71,38.71 C 35.71,38.52 35.72,38.34 35.68,38.15 C 35.87,37.58 36.03,37.02 36.03,36.4 C 36.03,36.23 36.03,36.16 36.03,35.87 L 37.06,15.43 L 37.37,15.06 L 37.34,12.75 L 35.62,12.21 z" id="p3343" style="fill:#191a1b;fill-opacity:0.28;fill-rule:evenodd;stroke:none;display:inline"/>
<path d="M 12.81,9.96 C 11.99,10.15 11.5,10.37 11.5,10.59 C 11.48,10.72 11.48,10.93 11.5,11.15 C 11.5,11.28 11.72,11.41 12.03,11.53 L 11.96,14.75 L 12.09,15.43 L 12.09,15.5 C 12.99,15.97 13.96,16.41 14.59,16.53 C 16.09,16.79 16,18.56 16,20.15 C 16,21.53 16.65,35.67 17.34,43.09 C 19.28,43.89 21.76,44.4 24.46,44.4 C 25.31,44.4 26.14,44.33 26.93,44.25 C 26.91,40.54 26.78,21 26.78,19.71 C 26.78,18.3 24.82,17.5 27.12,17.5 C 28.97,17.5 34.13,16.83 37.03,16.25 L 37.06,15.43 L 37.37,15.06 L 37.34,12.65 L 30.75,11.5 L 17.75,10.87 L 12.81,9.96 z" id="p3337" style="fill:#5e5e5e;fill-opacity:0.35;fill-rule:evenodd;stroke:none;display:inline"/>
<path d="M 33.06,11.68 C 33.06,11.68 32.58,24.96 32.53,27.18 C 32.47,29.4 33.72,29.68 33.93,30.28 C 34.15,30.87 33.49,39.28 33.43,39.71 C 33.4,39.99 33.28,40.94 33,42.43 C 34.69,41.44 35.71,40.13 35.71,38.71 C 35.71,38.52 35.72,38.34 35.68,38.15 C 35.87,37.58 36.03,37.02 36.03,36.4 C 36.03,36.23 36.03,36.16 36.03,35.87 L 37.06,15.43 L 37.37,15.06 L 37.34,12.59 L 33.06,11.68 z" id="p3325" style="fill:#6f6f6f;fill-opacity:0.67;fill-rule:evenodd;stroke:none;display:inline"/>
<path d="M 28.84,9.09 L 28.37,11.46 L 26.59,11 C 26.59,11 26.58,38.3 26.46,39.71 C 26.35,41.13 26.58,41.13 27.06,41.37 C 27.35,41.52 27.14,42.98 26.9,44.25 C 28.42,44.08 29.8,43.75 31.03,43.31 L 31.31,41.03 L 30.75,40.78 L 31.43,40.18 L 33.34,15.96 L 31.68,15.96 L 31.81,14.9 L 34.4,14.53 L 34.4,11.93 L 35.21,12.06 L 35.93,10.15 L 28.84,9.09 z" id="p3280" style="fill:#f9f9f8;fill-opacity:0.31;fill-rule:evenodd;stroke:none;display:inline"/>
<path d="M 16.9,10.65 C 16.55,13.02 16.78,14.43 16.78,14.43 C 16.78,14.43 16.07,15.12 16.31,15.59 C 16.54,16.06 17.03,17.15 17.03,17.15 C 17.03,17.15 17.63,35.24 19.06,43.71 C 20.66,44.16 22.51,44.4 24.46,44.4 C 25.16,44.4 25.86,44.37 26.53,44.31 C 26.38,42.72 26.17,40.54 26,38.53 C 25.76,35.81 26.25,17.62 26.25,17.62 L 28.71,17.96 L 28.71,16.31 L 25.65,16.18 L 25.4,15.03 L 27.31,15.03 L 27.43,11.12 L 16.9,10.65 z" id="p3298" style="fill:#585858;fill-opacity:0.38;fill-rule:evenodd;stroke:none;display:inline"/>
<path d="M 20.21,11.21 C 20.21,11.21 20.81,14.07 20.81,14.78 C 20.81,15.49 20.34,16.18 20.34,16.18 L 20.93,17.75 L 20.68,19.62 C 20.68,19.62 20.08,19.5 19.96,21.75 C 19.86,23.77 20.72,37.71 20.9,41.26 C 21.6,41.38 22.31,41.43 23.06,41.48 C 22.91,38.61 22.62,35.64 22.81,34.15 C 23.04,32.26 23.75,29.79 23.75,27.31 C 23.74,24.82 24.24,20.67 24.12,19.96 C 24,19.25 22.56,18.08 23.15,17.96 C 23.74,17.85 24.34,16.31 24.34,16.31 L 23.4,14.9 C 23.4,14.9 23.05,12.4 23.53,12.4 C 24,12.4 25.31,11.21 25.31,11.21 L 20.21,11.21 z" id="p3283" style="fill:#a4b3c6;fill-opacity:0.21;fill-rule:evenodd;stroke:none;display:inline"/>
<path d="M 38.44,10.46 C 38.44,11.01 32.39,11.46 24.93,11.46 C 17.47,11.46 11.42,11.01 11.42,10.46 C 11.42,9.90 17.47,9.46 24.93,9.46 C 32.39,9.46 38.44,9.90 38.44,10.46 z" id="p3427" style="fill:#080808;fill-opacity:1;fill-rule:evenodd;stroke:none;marker:none;visibility:visible;display:inline;overflow:visible;enable-background:accumulate"/>
<path d="M 36.06,35.46 C 35.84,35.52 35.68,35.73 35.68,35.96 C 35.68,37.24 34.56,38.52 32.53,39.5 C 30.49,40.47 27.61,41.09 24.43,41.09 C 21.25,41.09 18.38,40.47 16.34,39.5 C 14.3,38.52 13.18,37.24 13.18,35.96 C 13.19,35.8 13.12,35.63 13,35.53 C 12.97,35.51 12.96,35.51 12.93,35.5 L 12.96,36.37 L 12.96,36.46 C 13.04,37.16 13.15,37 13.25,37.67 C 13.82,38.86 15.17,39.87 16.25,40.39 C 18.47,41.45 21.12,42.12 24.43,42.12 C 27.74,42.12 30.08,41.68 32.3,40.61 C 33.43,40.07 35.62,38.59 35.9,36.96 C 36.04,36.53 35.97,36.32 36.03,35.87 L 36.06,35.46 z" id="p3301" style="fill:#585858;fill-opacity:1;fill-rule:evenodd;stroke:none;marker:none;visibility:visible;display:inline;overflow:visible;enable-background:accumulate"/>
<path d="M 13.25,37.67 C 13.82,38.86 15.17,39.87 16.25,40.39 C 18.47,41.45 21.12,42.12 24.43,42.12 C 27.74,42.12 30.08,41.68 32.3,40.61 C 33.43,40.07 35.62,38.59 35.9,36.96" id="p3323" style="fill:none;fill-opacity:1;fill-rule:evenodd;stroke:#b9b9b9;stroke-width:0.40;stroke-linecap:round;stroke-linejoin:round;marker:none;stroke-miterlimit:4;stroke-dasharray:none;stroke-dashoffset:0;stroke-opacity:1;visibility:visible;display:inline;overflow:visible;enable-background:accumulate"/>
<path d="M 20.32,41.11 C 21.56,41.27 22.43,41.49 23.14,41.49" id="p3328" style="fill:none;fill-rule:evenodd;stroke:#d0d7f7;stroke-width:0.60;stroke-linecap:round;stroke-linejoin:miter;stroke-miterlimit:4;stroke-dasharray:none;stroke-opacity:0.88;display:inline"/>
<path d="M 29.48,40.95 C 30.34,40.73 31.32,40.3 31.32,40.3" id="p3330" style="fill:none;fill-rule:evenodd;stroke:#d4d7f8;stroke-width:0.69;stroke-linecap:round;stroke-linejoin:miter;stroke-miterlimit:4;stroke-dasharray:none;stroke-opacity:0.85;display:inline"/>
<path d="M 20.88,11.97 C 20.88,12.58 21.35,13.05 21.96,13.05 C 22.57,13.05 22.57,15.21 22.57,15.21 L 20.81,15.01 C 20.81,15.01 21.15,15.89 21.15,16.16 C 21.15,16.43 20.81,17.31 20.81,17.31 L 21.69,17.38 C 21.69,17.38 21.89,19.4 21.62,19.94 C 21.35,20.49 20.95,21.9 20.88,23.19 C 20.81,24.47 21.02,32.65 21.08,33.53 C 21.15,34.41 22.98,36.64 23.04,35.02 C 23.11,33.4 22.91,28.19 23.18,27.65 C 23.45,27.11 23.85,26.1 23.85,25.08 C 23.85,24.07 23.65,20.76 23.79,20.28 C 23.92,19.81 22.84,19.34 22.91,18.8 C 22.98,18.25 23.18,17.38 23.18,17.38 L 23.79,17.38 C 23.79,17.38 24.06,16.7 24.06,16.29 C 24.06,15.89 23.52,15.08 23.52,15.08 L 23.11,15.08 C 23.11,15.08 22.84,13.52 23.04,13.12 C 23.25,12.71 23.31,12.04 23.31,12.04 L 20.88,11.97 z" id="p3360" style="fill:#8ca2e1;fill-opacity:0.37;fill-rule:evenodd;stroke:none;display:inline"/>
<path d="M 12.43,10.09 C 11.86,10.25 11.5,10.41 11.5,10.59 C 11.48,10.72 11.48,10.93 11.5,11.15 C 11.5,11.28 11.72,11.41 12.03,11.53 L 11.96,14.75 L 12.09,15.43 L 12.53,25.68 C 14.08,26.51 15.56,26.22 15.84,25.53 C 16.31,24.34 15.84,28.48 16.43,28.84 C 17.02,29.19 17.49,31.44 20.09,32.15 C 22.69,32.86 25.54,31.91 26.25,31.43 C 26.95,30.96 26.11,26.58 27.53,27.06 C 28.94,27.53 30.72,30.86 33.09,29.56 C 35.45,28.26 35.47,26.36 35.59,25.18 C 35.71,24 36.28,12.4 36.28,12.4 L 27.53,11.12 L 12.43,10.09 z" id="p3286" style="fill:#13130d;fill-opacity:0.15;fill-rule:evenodd;stroke:none;display:inline"/>
<path d="M 22.03,23.53 L 21.96,31.23" id="p3357" style="fill:none;fill-rule:evenodd;stroke:#b4c5f7;stroke-width:2.08;stroke-linecap:round;stroke-linejoin:miter;stroke-miterlimit:4;stroke-dasharray:none;stroke-opacity:0.25;display:inline"/>
<path d="M 39.65,12.4 C 39.5,12.4 39.34,12.43 39.15,12.56 C 39.05,12.62 38.92,12.71 38.81,12.78 C 39.11,12.82 39.67,12.9 39.71,12.9 C 40.01,12.94 40.07,12.75 40.06,12.62 C 40.06,12.61 40.06,12.6 40.06,12.59 C 40,12.54 39.94,12.49 39.87,12.46 C 39.83,12.45 39.79,12.44 39.75,12.43 C 39.7,12.43 39.65,12.43 39.65,12.43 C 39.65,12.43 39.65,12.4 39.65,12.4 z M 12,13.46 L 11.96,14.75 L 12.09,15.4 L 12.09,15.43 C 14.78,16.83 17.92,17.47 24.25,17.62 C 30.86,17.77 34.21,16.77 36.53,16.14 L 37.06,15.43 L 37.37,15.06 L 37.34,13.5 C 35.5,14.23 32.27,14.94 24.9,15.09 C 15.54,15.28 14.31,14.37 12,13.46 z" id="p3363" style="fill:#94969f;fill-opacity:0.38;fill-rule:evenodd;stroke:none;display:inline"/>
<path d="M 11.96,14.71 L 11.96,14.75 L 12.09,15.4 L 12.09,15.43 C 14.78,16.83 17.92,17.47 24.25,17.62 C 30.86,17.77 34.17,16.77 36.49,16.14 L 37.06,15.43 L 37.37,15.06 C 33.81,15.9 29.39,16.4 26.09,16.4 C 22.32,16.4 16.52,15.89 11.96,14.71 z" id="p3366" style="fill:#70727a;fill-opacity:0.23;fill-rule:evenodd;stroke:none;display:inline"/>
<path d="M 25.55,15.08 C 25.47,15.57 25.47,16.15 25.47,16.15 C 25.47,16.15 30.25,16.23 31.03,16.1 C 31.8,15.98 33.07,15.98 33.07,15.98 C 33.07,15.98 31.15,14.92 31.52,14.88 C 31.89,14.84 25.59,15.04 25.55,15.08 z" id="p3375" style="fill:#c3cdeb;fill-opacity:0.3;fill-rule:evenodd;stroke:none;display:inline"/>
<path d="M 35.97,15.49 C 34.58,15.69 29.43,16.51 26,16.43 C 22.56,16.35 19.99,16.23 19.99,16.23" id="p3380" style="fill:none;fill-rule:evenodd;stroke:#525252;stroke-width:0.40;stroke-linecap:round;stroke-linejoin:miter;stroke-miterlimit:4;stroke-dasharray:none;stroke-opacity:0.27;display:inline"/>
<path d="M 27.84,15.74 L 30.66,15.65" id="p3378" style="fill:none;fill-rule:evenodd;stroke:#eeeeee;stroke-width:1px;stroke-linecap:round;stroke-linejoin:miter;stroke-opacity:0.75;display:inline"/>
<path d="M 28.75,17.49 C 28.75,17.49 30.63,17.29 31.71,17.29 C 32.79,17.29 34.54,16.89 34.54,16.89 L 34.54,19.04 C 34.54,19.04 35.08,19.11 35.08,19.45 C 35.08,19.78 33.59,19.98 33.59,19.98 L 33.73,22.34 C 33.73,22.34 32.05,22.68 31.37,22.68 C 30.7,22.68 29.42,22.81 29.42,22.81 L 29.28,20.25 L 28.48,20.05 L 28.48,19.58 L 28.75,19.58 L 28.75,17.49 z" id="p3404" style="fill:#5f5f62;fill-opacity:0.81;fill-rule:evenodd;stroke:none;display:inline"/>
<path d="M 29.87,20.93 C 31.05,20.87 33.44,20.59 33.86,20.47" id="p3421" style="fill:none;fill-rule:evenodd;stroke:#000000;stroke-width:1px;stroke-linecap:butt;stroke-linejoin:miter;stroke-opacity:0.54"/>
<path d="M 30.36,20.46 C 29.82,20.46 29.55,20.59 29.55,21.4 C 29.55,22.21 29.55,22.81 29.28,22.88 C 29.02,22.95 28.34,23.49 28.34,23.96 C 28.34,24.43 28.14,25.24 28.68,25.24 C 29.22,25.24 31.24,24.83 32.05,24.77 C 32.85,24.7 34.33,24.36 34.6,24.36 C 34.87,24.36 35.08,23.82 35.08,23.35 C 35.08,22.88 34.67,22.34 34.67,22.34 C 34.67,22.34 34.13,22.14 34.13,21.47 C 34.13,20.79 34.54,19.85 33.73,19.85" id="p3410" style="fill:none;fill-rule:evenodd;stroke:#3b3b3b;stroke-width:0.80;stroke-linecap:round;stroke-linejoin:round;stroke-miterlimit:4;stroke-dasharray:none;stroke-opacity:1;display:inline"/>
<path d="M 30.1,20.28 L 33.8,19.85" id="p3407" style="fill:none;fill-rule:evenodd;stroke:#9f9f9f;stroke-width:0.80;stroke-linecap:round;stroke-linejoin:miter;stroke-miterlimit:4;stroke-dasharray:none;stroke-opacity:1;display:inline"/>
<path d="M 28.63,23.16 C 29.02,22.85 29.39,22.76 29.42,22.46" id="p3413" style="fill:none;fill-rule:evenodd;stroke:#e9e9e9;stroke-width:0.40;stroke-linecap:round;stroke-linejoin:miter;stroke-miterlimit:4;stroke-dasharray:none;stroke-opacity:0.7"/>
<path d="M 28.99,25.01 L 32.15,24.52" id="p3415" style="fill:none;fill-rule:evenodd;stroke:#d2d2d2;stroke-width:0.30;stroke-linecap:round;stroke-linejoin:miter;stroke-miterlimit:4;stroke-dasharray:none;stroke-opacity:0.5"/>
<path d="M 34.43,24.19 C 34.64,24.16 34.82,23.91 34.82,23.91" id="p3417" style="fill:none;fill-rule:evenodd;stroke:#d3d3d3;stroke-width:0.30;stroke-linecap:round;stroke-linejoin:miter;stroke-miterlimit:4;stroke-dasharray:none;stroke-opacity:0.83"/>
<path d="M 28.9,19.59 C 28.9,19.59 30.86,19.39 31.81,19.29 C 32.77,19.19 34.57,18.89 34.57,18.89" id="p3419" style="fill:none;fill-rule:evenodd;stroke:#d3d3d3;stroke-width:0.30;stroke-linecap:butt;stroke-linejoin:miter;stroke-miterlimit:4;stroke-dasharray:none;stroke-opacity:0.55"/>
<path d="M 28.75,17.49 C 28.75,17.49 30.63,17.29 31.71,17.29 C 32.79,17.29 34.54,16.89 34.54,16.89" id="p3423" style="fill:none;fill-opacity:0.81;fill-rule:evenodd;stroke:#b9b9b9;stroke-width:0.30;stroke-linecap:butt;stroke-linejoin:miter;stroke-miterlimit:4;stroke-dasharray:none;stroke-opacity:0.73;display:inline"/>
<path d="M 28.57,20.02 L 28.54,19.66 L 28.85,19.63 L 28.88,17.48" id="p3425" style="fill:none;fill-rule:evenodd;stroke:#303030;stroke-width:0.30;stroke-linecap:butt;stroke-linejoin:miter;stroke-miterlimit:4;stroke-dasharray:none;stroke-opacity:0.47"/>
<path d="M 38.36,11.23 C 38.36,11.78 32.31,12.23 24.85,12.23 C 17.39,12.23 11.92,11.84 11.54,11.31" id="p3434" style="fill:none;fill-opacity:1;fill-rule:evenodd;stroke:#4a4a4a;stroke-width:0.60;stroke-linecap:round;stroke-linejoin:round;marker:none;stroke-miterlimit:4;stroke-dasharray:none;stroke-dashoffset:0;stroke-opacity:1;visibility:visible;display:inline;overflow:visible;enable-background:accumulate"/>
<path d="M 38.36,10.74 C 38.36,11.3 32.31,11.75 24.85,11.75 C 17.39,11.75 11.92,11.36 11.54,10.82" id="p3429" style="fill:none;fill-opacity:1;fill-rule:evenodd;stroke:#b0b0b0;stroke-width:0.60;stroke-linecap:round;stroke-linejoin:round;marker:none;stroke-miterlimit:4;stroke-dasharray:none;stroke-dashoffset:0;stroke-opacity:1;visibility:visible;display:inline;overflow:visible;enable-background:accumulate"/>
<path d="M 19.87,11.66 C 21.88,11.73 23.07,11.76 24.67,11.73" id="p3436" style="fill:none;fill-rule:evenodd;stroke:#e5e5e5;stroke-width:0.60;stroke-linecap:round;stroke-linejoin:miter;stroke-miterlimit:4;stroke-dasharray:none;stroke-opacity:0.76;display:inline"/>
<path d="M 25.25,3.53 C 25.06,3.55 24.87,3.67 24.62,4.03 C 24.18,4.67 23.78,6 23.78,6 C 23.78,6 22.53,6.01 21.75,6.06 C 20.96,6.11 16.1,7.35 15.65,7.4 C 15.21,7.45 14.24,7.4 14,7.4 C 13.75,7.4 13.53,7.39 13.53,7.59 C 13.53,7.79 13.37,8.81 13.37,8.81 L 13.31,9.03 C 13.61,9.24 14.05,9.32 15.39,9.5 C 16.68,9.68 31.35,11.76 37.34,12.59 C 37.36,12.59 37.41,12.59 37.43,12.59 C 37.63,12.61 37.7,12.62 37.9,12.65 C 37.94,12.66 37.99,12.67 38.03,12.68 C 38.76,12.78 39.63,12.89 39.71,12.9 C 40.11,12.95 40.08,12.62 40.03,12.53 C 39.98,12.43 39.65,12.43 39.65,12.43 C 39.65,12.43 39.65,11.97 39.65,11.62 C 39.65,11.27 39.86,10.94 39.46,10.84 C 39.07,10.74 38.48,10.31 37.93,10.21 C 37.39,10.12 37.04,9.79 36.5,9.5 C 35.95,9.2 32.21,7.38 31.71,7.18 C 31.22,6.99 30.4,6.73 30.15,6.68 C 29.9,6.63 30,5.38 30,4.93 C 30,4.49 28.97,3.72 28.53,3.62 C 28.08,3.52 25.95,3.53 25.65,3.53 C 25.58,3.53 25.51,3.53 25.43,3.53 C 25.38,3.52 25.31,3.52 25.25,3.53 z M 25.96,4.03 C 25.96,4.08 27.56,4.12 28.06,4.12 C 28.55,4.12 29,4.38 29,4.87 C 29,5.36 29.06,6.59 29.06,6.59 C 29.06,6.59 27.84,6.29 26.9,6.25 C 25.96,6.2 25.03,6 25.03,6 C 25.03,6 25.2,5.5 25.25,5.06 C 25.29,4.61 25.96,4.03 25.96,4.03 z" id="p3439" style="fill:#7b7b7b;fill-opacity:1;fill-rule:evenodd;stroke:none;display:inline"/>
<path d="M 26.5,18.72 L 26.42,33.67" id="p3447" style="fill:none;fill-rule:evenodd;stroke:#212121;stroke-width:2.20;stroke-linecap:round;stroke-linejoin:miter;stroke-miterlimit:4;stroke-dasharray:none;stroke-opacity:0.21;display:inline"/>
<path d="M 16.49,18.5 L 16.96,30.18" id="p3450" style="fill:none;fill-rule:evenodd;stroke:#212121;stroke-width:2.70;stroke-linecap:round;stroke-linejoin:miter;stroke-miterlimit:4;stroke-dasharray:none;stroke-opacity:0.15;display:inline"/>
<path d="M 13.65,7.43 C 13.58,7.46 13.53,7.5 13.53,7.59 C 13.53,7.79 13.37,8.81 13.37,8.81 L 13.31,9.03 C 13.61,9.24 14.06,9.31 15.4,9.5 C 16.69,9.67 31.35,11.76 37.34,12.59 C 37.36,12.59 37.41,12.59 37.43,12.59 C 37.63,12.61 37.7,12.62 37.9,12.65 C 37.94,12.66 37.99,12.67 38.03,12.68 C 38.76,12.78 39.63,12.89 39.71,12.9 C 40.11,12.95 40.08,12.62 40.03,12.53 C 39.98,12.43 39.65,12.43 39.65,12.43 C 39.65,12.43 39.65,11.97 39.65,11.62 C 39.65,11.45 39.71,11.29 39.71,11.15 C 39.71,11.14 39.71,11.13 39.71,11.12 C 36.51,10.32 31.07,9.42 29.25,9.21 C 26.92,8.95 20.94,8.06 13.68,7.43 C 13.67,7.43 13.66,7.43 13.65,7.43 z" id="p3452" style="fill:#7c8185;fill-opacity:1;fill-rule:evenodd;stroke:none;display:inline"/>
<path d="M 18.21,7.87 C 18.02,8.66 17.91,9.28 17.84,9.84 C 20.46,10.21 26.47,11.05 32.28,11.87 L 32.37,9.68 C 31.07,9.47 29.89,9.29 29.25,9.21 C 27.43,9.01 23.35,8.42 18.21,7.87 z" id="p3455" style="fill:#414345;fill-opacity:0.70;fill-rule:evenodd;stroke:none;display:inline"/>
<path d="M 25.12,8.68 L 24.84,10.84 C 26.2,11.03 26.81,11.1 28.28,11.31 L 28.37,9.09 C 27.59,8.99 26.37,8.84 25.12,8.68 z" id="p3462" style="fill:#171819;fill-opacity:0.21;fill-rule:evenodd;stroke:none;display:inline"/>
<path d="M 22.78,8.4 L 22.5,10.5 C 23.51,10.64 24.22,10.73 25.4,10.9 L 25.68,8.78 C 24.69,8.65 24.05,8.56 22.78,8.4 z" id="p3460" style="fill:#99b2ca;fill-opacity:0.3;fill-rule:evenodd;stroke:none;display:inline"/>
<path d="M 36.93,10.53 L 37.06,12.56 C 37.14,12.57 37.26,12.58 37.34,12.59 C 37.36,12.59 37.41,12.59 37.43,12.59 C 37.63,12.61 37.7,12.62 37.9,12.65 C 37.94,12.66 37.99,12.67 38.03,12.68 C 38.76,12.78 39.63,12.89 39.71,12.9 C 40.11,12.95 40.08,12.62 40.03,12.53 C 39.98,12.43 39.65,12.43 39.65,12.43 C 39.65,12.43 39.65,11.97 39.65,11.62 C 39.65,11.45 39.71,11.29 39.71,11.15 C 39.71,11.14 39.71,11.13 39.71,11.12 C 38.9,10.92 37.94,10.73 36.93,10.53 z" id="p3458" style="fill:#161718;fill-opacity:0.22;fill-rule:evenodd;stroke:none;display:inline"/>
<path d="M 38.44,10.83 L 38.24,12.66" id="p3483" style="fill:none;fill-rule:evenodd;stroke:#3b3b3b;stroke-width:1px;stroke-linecap:butt;stroke-linejoin:miter;stroke-opacity:0.55"/>
<path d="M 15.21,7.59 C 15.07,8.09 14.94,8.73 14.84,9.4 C 15.04,9.43 15.14,9.46 15.4,9.5 C 15.66,9.53 18.68,9.95 19.87,10.12 C 19.84,9.57 19.78,8.7 19.81,8.06 C 18.37,7.9 16.84,7.74 15.21,7.59 z" id="p3485" style="fill:#858a8f;fill-opacity:0.4;fill-rule:evenodd;stroke:none"/>
<path d="M 32.37,9.68 C 31.07,9.47 29.89,9.29 29.25,9.21 C 27.43,9.01 23.35,8.42 18.21,7.87" id="p3490" style="fill:none;fill-opacity:0.70;fill-rule:evenodd;stroke:#cfcfcf;stroke-width:0.30;stroke-linecap:butt;stroke-linejoin:miter;stroke-miterlimit:4;stroke-dasharray:none;stroke-opacity:0.83;display:inline"/>
<path d="M 30.21,9.91 C 31.3,10.06 33.06,10.34 33.06,10.34" id="p3492" style="fill:none;fill-rule:evenodd;stroke:#d9d9d9;stroke-width:1.38;stroke-linecap:round;stroke-linejoin:miter;stroke-miterlimit:4;stroke-dasharray:none;stroke-opacity:0.76;display:inline"/>
<path d="M 13.39,8.85 L 13.33,9.07 C 13.64,9.29 14.07,9.36 15.42,9.55 C 16.71,9.72 31.37,11.81 37.36,12.63 C 37.38,12.64 37.44,12.63 37.46,12.63" id="p3445" style="fill:none;fill-opacity:1;fill-rule:evenodd;stroke:#242424;stroke-width:0.40;stroke-linecap:butt;stroke-linejoin:miter;stroke-miterlimit:4;stroke-dasharray:none;stroke-opacity:0.93;display:inline"/>
<path d="M 30.85,9.78 C 31.66,9.87 33.01,10.05 33.01,10.05" id="p3495" style="fill:none;fill-rule:evenodd;stroke:#f3f3f3;stroke-width:1px;stroke-linecap:round;stroke-linejoin:miter;stroke-opacity:0.6;display:inline"/>
<path d="M 17.23,7.21 C 20.99,7.33 28.4,8.24 29.49,8.36 C 30.58,8.48 36.63,9.64 36.63,9.64" id="p3500" style="fill:none;fill-rule:evenodd;stroke:#373737;stroke-width:0.60;stroke-linecap:round;stroke-linejoin:miter;stroke-miterlimit:4;stroke-dasharray:none;stroke-opacity:0.65;display:inline"/>
<path d="M 33.44,9.46 C 35.38,9.7 37.65,10.19 37.65,10.19" id="p3498" style="fill:none;fill-rule:evenodd;stroke:#d2d2d2;stroke-width:0.60;stroke-linecap:round;stroke-linejoin:miter;stroke-miterlimit:4;stroke-dasharray:none;stroke-opacity:0.5;display:inline"/>
<path d="M 19.77,6.48 C 22.48,6.48 31.28,7.64 34.12,8.38" id="p3504" style="fill:none;fill-rule:evenodd;stroke:#363636;stroke-width:0.40;stroke-linecap:round;stroke-linejoin:miter;stroke-miterlimit:4;stroke-dasharray:none;stroke-opacity:0.37"/>
<path d="M 25.25,3.53 C 25.06,3.55 24.87,3.67 24.62,4.03 C 24.18,4.67 23.78,6 23.78,6 C 23.78,6 22.53,6.01 21.75,6.06 C 20.96,6.11 16.1,7.35 15.65,7.4 C 15.21,7.45 14.24,7.4 14,7.4 C 13.75,7.4 13.53,7.39 13.53,7.59 C 13.53,7.79 13.37,8.81 13.37,8.81 C 13.37,8.81 13.16,8.87 12.96,8.87 C 12.77,8.87 12.69,9.21 12.93,9.21 C 13.12,9.21 14.08,9.37 15.4,9.59 C 12.99,9.84 11.5,10.2 11.5,10.59 C 11.48,10.72 11.48,10.93 11.5,11.15 C 11.5,11.28 11.72,11.41 12.03,11.53 L 11.96,14.75 L 12.09,15.43 L 12.96,36.37 L 12.96,36.46 C 12.98,37.04 13.1,37.61 13.28,38.15 C 13.24,38.34 13.21,38.52 13.21,38.71 C 13.21,41.85 18.25,44.4 24.46,44.4 C 30.67,44.4 35.71,41.85 35.71,38.71 C 35.71,38.52 35.72,38.34 35.68,38.15 C 35.87,37.58 36.03,37.02 36.03,36.4 C 36.03,36.23 36.03,36.16 36.03,35.87 L 37.06,15.43 L 37.37,15.06 L 37.34,12.59 C 38.29,12.71 39.59,12.89 39.71,12.9 C 40.11,12.95 40.08,12.62 40.03,12.53 C 39.98,12.43 39.65,12.43 39.65,12.43 C 39.65,12.43 39.65,11.97 39.65,11.62 C 39.65,11.27 39.86,10.94 39.46,10.84 C 39.07,10.74 38.48,10.31 37.93,10.21 C 37.39,10.12 37.04,9.79 36.5,9.5 C 35.95,9.2 32.21,7.38 31.71,7.18 C 31.22,6.99 30.4,6.73 30.15,6.68 C 29.9,6.63 30,5.38 30,4.93 C 30,4.49 28.97,3.72 28.53,3.62 C 28.08,3.52 25.95,3.53 25.65,3.53 C 25.58,3.53 25.51,3.53 25.43,3.53 C 25.38,3.52 25.31,3.52 25.25,3.53 z M 25.96,4.03 C 25.96,4.08 27.56,4.12 28.06,4.12 C 28.55,4.12 29,4.38 29,4.87 C 29,5.36 29.06,6.59 29.06,6.59 C 29.06,6.59 27.84,6.29 26.9,6.25 C 25.96,6.2 25.03,6 25.03,6 C 25.03,6 25.2,5.5 25.25,5.06 C 25.3,4.61 25.96,4.03 25.96,4.03 z" id="stroke01" style="fill:none;fill-opacity:1;fill-rule:evenodd;stroke:#000000;stroke-width:0.5;stroke-linecap:butt;stroke-linejoin:round;stroke-miterlimit:4;stroke-dasharray:none;stroke-opacity:1"/>
</g>
</svg>
