<?xml version="1.0" encoding="UTF-8" standalone="no"?>
<!DOCTYPE svg PUBLIC "-//W3C//DTD SVG 1.0//EN" "http://www.w3.org/TR/2001/REC-SVG-20010904/DTD/svg10.dtd">
<svg xmlns:svg="http://www.w3.org/2000/svg" xmlns="http://www.w3.org/2000/svg" version="1.0" width="100%" height="100%" viewBox="0 0 48 48" id="_lefthand04" style="display:inline">
<defs id="defs2818"/>
<g id="lefthand04">
<path d="M 21.46,2.81 C 22.45,2.86 23.55,3.85 23.55,4.68 C 23.55,6.16 23.84,11.4 23.84,12.75 C 23.84,14.09 24.50,18.13 24.37,19.75 C 24.23,21.36 24.50,22.05 24.90,20.84 C 25.30,19.63 25.98,16.26 26.65,14.78 C 27.32,13.3 27.58,9.8 28.12,7.65 C 28.66,5.5 31.64,6.42 31.37,8.31 C 31.10,10.19 30.56,16.67 30.43,17.75 C 30.30,18.82 28.79,23.66 28.52,24.46 C 28.25,25.27 29.06,25.66 29.46,25.53 C 29.60,25.12 30.97,22.03 31.77,21.5 C 32.58,20.96 34.17,17.88 35.65,16 C 37.13,14.11 39.14,15.99 38.34,17.34 C 37.53,18.68 32.83,27.82 32.02,29.03 C 31.22,30.24 31.49,32.38 31.09,33.59 C 30.68,34.8 27.47,43.02 26.52,44.5 C 25.96,45.37 25.37,46.53 24.65,48 L 10.80,48 C 12.03,45.69 13.22,43.52 13.46,43.15 C 14.00,42.34 13.73,41.14 13.46,40.46 C 13.19,39.79 13.34,34.94 13.34,32.65 C 13.34,30.36 14.13,24.99 13.99,21.5 C 13.86,18 11.60,10.99 11.46,7.5 C 11.33,4 14.54,4.68 14.80,6.43 C 15.07,8.18 16.56,13.28 16.96,14.5 C 17.36,15.71 18.84,21.21 18.84,21.21 C 18.84,21.21 19.50,21.1 19.77,20.96 C 19.77,20.02 19.66,15.03 19.93,14.09 C 20.20,13.15 19.80,8.73 19.93,4.96 C 19.99,3.32 20.69,2.77 21.46,2.81 z" id="p2531" style="fill:#ba6d35;fill-opacity:1;fill-rule:nonzero;stroke:none;marker:none;visibility:visible;display:inline;overflow:visible;enable-background:accumulate"/>
<path d="M 21.46,2.81 C 21.68,2.82 21.90,2.87 22.12,2.96 C 21.29,3.4 20.80,4.24 20.80,5.37 C 20.80,7.18 21.31,13.08 21.21,13.56 C 21.12,14.03 20.07,18.61 21.21,21.28 C 20.57,21.46 20.02,21.4 19.59,21.03 C 19.65,21.01 19.73,20.99 19.77,20.96 C 19.77,20.02 19.66,15.03 19.93,14.09 C 20.20,13.15 19.80,8.73 19.93,4.96 C 19.99,3.32 20.69,2.77 21.46,2.81 z M 13.30,5 C 13.41,5.01 13.49,5.06 13.59,5.09 C 12.74,5.58 12.19,6.67 12.24,8.62 C 12.27,9.6 12.28,11.02 12.30,12.53 C 11.89,10.62 11.51,8.8 11.46,7.5 C 11.39,5.53 12.38,4.87 13.30,5 z M 29.74,6.4 C 30.04,6.43 30.33,6.55 30.59,6.71 C 29.78,7.08 29.20,7.79 28.99,8.9 C 28.61,10.9 27.65,14.79 27.27,15.84 C 26.89,16.89 25.68,20.6 25.77,22.21 C 25.21,22.37 24.87,22.06 24.77,21.15 C 24.81,21.07 24.86,20.96 24.90,20.84 C 25.30,19.63 25.98,16.26 26.65,14.78 C 27.32,13.3 27.58,9.8 28.12,7.65 C 28.35,6.71 29.05,6.34 29.74,6.4 z M 37.09,15.21 C 37.51,15.23 37.89,15.46 38.15,15.78 C 37.06,15.86 36.29,16.66 35.84,17.56 C 35.17,18.89 33.10,21.64 32.15,22.59 C 31.20,23.54 29.84,26.2 29.74,27.15 C 29.44,26.85 29.35,26.28 29.40,25.53 C 29.42,25.52 29.44,25.53 29.46,25.53 C 29.60,25.12 30.97,22.03 31.77,21.5 C 32.58,20.96 34.17,17.88 35.65,16 C 36.11,15.41 36.62,15.2 37.09,15.21 z M 13.93,20.93 C 14.72,21.54 15.28,22.18 15.59,22.03 C 14.92,22.88 14.83,24.42 15.40,25.28 C 15.97,26.13 18.16,28.3 19.59,28.78 C 20.06,28.3 22.05,27.15 22.62,26.96 C 23.19,26.77 23.38,28.02 22.43,28.4 C 21.48,28.78 18.91,30.41 18.24,31.84 C 17.58,33.27 17.95,34.95 18.71,36 C 19.47,37.04 20.90,39.81 20.52,41.62 C 20.14,43.43 19.96,45.04 22.05,44.37 C 23.94,43.77 21.08,46.94 26.43,44.68 C 25.98,45.4 25.47,46.31 24.93,47.4 C 23.85,46.5 22.65,45.9 22.05,45.9 C 21.29,45.9 18.53,44.38 18.34,45.71 C 18.26,46.24 17.89,47.11 17.49,48 L 10.80,48 C 12.03,45.69 13.22,43.52 13.46,43.15 C 14.00,42.34 13.73,41.14 13.46,40.46 C 13.19,39.79 13.34,34.94 13.34,32.65 C 13.34,30.36 14.13,24.99 13.99,21.5 C 13.99,21.33 13.95,21.12 13.93,20.93 z" id="p2582" style="fill:#733e26;fill-opacity:0.54;fill-rule:nonzero;stroke:none;marker:none;visibility:visible;display:inline;overflow:visible;enable-background:accumulate"/>
<path d="M 30.71,14.56 C 30.59,15.89 30.48,17.36 30.43,17.75 C 30.30,18.82 28.79,23.66 28.52,24.46 C 28.34,25.02 28.68,25.34 29.02,25.46 C 28.28,26.74 26.84,25.93 26.52,25.37 C 26.14,24.7 27.10,23.64 28.05,22.21 C 28.68,21.27 29.74,17.88 30.71,14.56 z M 17.84,17.5 C 18.35,19.36 18.84,21.21 18.84,21.21 C 18.84,21.21 19.22,21.15 19.52,21.06 C 19.54,21.1 19.57,21.14 19.59,21.18 C 23.87,22.89 20.83,26.13 19.02,25.28 C 17.22,24.42 17.02,21.16 17.02,20.21 C 17.02,19.55 17.29,17.77 17.84,17.5 z M 30.02,28.53 C 30.16,28.5 30.33,28.55 30.52,28.68 C 31.08,29.07 31.48,29.24 31.84,29.37 C 31.26,30.61 31.45,32.48 31.09,33.59 C 30.70,34.76 27.70,42.43 26.65,44.28 C 22.22,43.13 27.07,35.47 26.99,34.12 C 26.90,32.5 28.71,34.1 28.99,33.06 C 29.24,32.14 29.05,28.68 30.02,28.53 z" id="p2595" style="fill:#f0ad7f;fill-opacity:0.35;fill-rule:nonzero;stroke:none;marker:none;visibility:visible;display:inline;overflow:visible;enable-background:accumulate"/>
<path d="M 17.09,33.03 C 18.02,33.15 19.20,34.14 20.05,34.21 C 21.48,38.78 19.97,43.13 19.59,44.28 C 19.21,45.42 22.06,45.52 23.77,46.18 C 24.29,46.39 24.72,46.75 25.09,47.15 C 24.94,47.44 24.80,47.68 24.65,48 L 20.05,48 C 19.89,46.92 19.44,45.58 18.71,45.15 C 18.36,45.9 17.94,47.05 17.59,48 L 15.71,48 C 16.08,46.83 16.51,45.15 16.15,44.65 C 15.67,43.99 17.00,42.29 16.43,41.25 C 15.86,40.2 15.29,34.1 16.24,33.25 C 16.48,33.03 16.77,32.98 17.09,33.03 z" id="p3376" style="fill:#f0ad7f;fill-opacity:0.12;fill-rule:nonzero;stroke:none;marker:none;visibility:visible;display:inline;overflow:visible;enable-background:accumulate"/>
<path d="M 26.43,31.16 C 27.09,32.3 26.62,32.78 25.29,32.78 C 25.57,35.25 25.10,40.1 24.05,41.05 C 23.67,40.86 23.67,40.96 23.38,40.67 C 22.81,42.29 21.01,45.62 20.34,46 C 19.96,45.52 19.77,45.33 20.63,43.91 C 21.48,42.48 23.10,40.1 23.38,38.1 C 23.67,36.11 23.67,33.73 23.58,32.02 C 24.34,31.64 24.72,31.64 26.43,31.16 z" id="p3378" style="fill:#682d1f;fill-opacity:0.3;fill-rule:nonzero;stroke:none;marker:none;visibility:visible;display:inline;overflow:visible;enable-background:accumulate"/>
<path d="M 23.77,32.59 C 24.72,38.39 21.29,43.62 21.01,44" id="p3389" style="fill:none;fill-opacity:1;fill-rule:nonzero;stroke:#6a2805;stroke-width:1.20;stroke-linecap:round;stroke-linejoin:miter;marker:none;stroke-miterlimit:4;stroke-dasharray:none;stroke-dashoffset:0;stroke-opacity:0.37;visibility:visible;display:inline;overflow:visible;enable-background:accumulate"/>
<path d="M 17.77,45.62 C 17.58,46.66 17.30,47.33 17.01,48" id="p3391" style="fill:none;fill-opacity:1;fill-rule:nonzero;stroke:#6a2805;stroke-width:1.20;stroke-linecap:round;stroke-linejoin:miter;marker:none;stroke-miterlimit:4;stroke-dasharray:none;stroke-dashoffset:0;stroke-opacity:0.37;visibility:visible;display:inline;overflow:visible;enable-background:accumulate"/>
<path d="M 17.87,33.63 C 18.63,35.25 19.29,36.3 20.15,36.68" id="p3395" style="fill:none;fill-opacity:1;fill-rule:nonzero;stroke:#dda763;stroke-width:1.38;stroke-linecap:round;stroke-linejoin:miter;marker:none;stroke-miterlimit:4;stroke-dasharray:none;stroke-dashoffset:0;stroke-opacity:0.12;visibility:visible;display:inline;overflow:visible;enable-background:accumulate"/>
<path d="M 23.86,29.83 C 23.19,30.02 21.10,31.44 20.63,32.11" id="p3397" style="fill:none;fill-opacity:1;fill-rule:nonzero;stroke:#f2b177;stroke-width:1.38;stroke-linecap:round;stroke-linejoin:miter;marker:none;stroke-miterlimit:4;stroke-dasharray:none;stroke-dashoffset:0;stroke-opacity:0.25;visibility:visible;display:inline;overflow:visible;enable-background:accumulate"/>
<path d="M 18.91,46.38 L 18.25,47.9" id="p3399" style="fill:none;fill-opacity:1;fill-rule:nonzero;stroke:#f2b177;stroke-width:1.38;stroke-linecap:round;stroke-linejoin:miter;marker:none;stroke-miterlimit:4;stroke-dasharray:none;stroke-dashoffset:0;stroke-opacity:0.25;visibility:visible;display:inline;overflow:visible;enable-background:accumulate"/>
<path d="M 27.95,35.06 C 27.86,36.2 26.81,39.34 26.24,40.1" id="p3401" style="fill:none;fill-opacity:1;fill-rule:nonzero;stroke:#f2b177;stroke-width:1.38;stroke-linecap:round;stroke-linejoin:miter;marker:none;stroke-miterlimit:4;stroke-dasharray:none;stroke-dashoffset:0;stroke-opacity:0.25;visibility:visible;display:inline;overflow:visible;enable-background:accumulate"/>
<path d="M 30.23,30.59 C 30.14,31.54 29.95,32.11 29.57,32.78" id="p3403" style="fill:none;fill-opacity:1;fill-rule:nonzero;stroke:#f2b177;stroke-width:1.38;stroke-linecap:round;stroke-linejoin:miter;marker:none;stroke-miterlimit:4;stroke-dasharray:none;stroke-dashoffset:0;stroke-opacity:0.25;visibility:visible;display:inline;overflow:visible;enable-background:accumulate"/>
<path d="M 22.34,34.3 C 22.53,35.15 22.72,36.2 22.43,36.87" id="p3410" style="fill:none;fill-opacity:1;fill-rule:nonzero;stroke:#f2b177;stroke-width:1.76;stroke-linecap:round;stroke-linejoin:miter;marker:none;stroke-miterlimit:4;stroke-dasharray:none;stroke-dashoffset:0;stroke-opacity:0.25;visibility:visible;display:inline;overflow:visible;enable-background:accumulate"/>
<path d="M 21.20,41.53 C 20.91,42.19 20.53,43.33 20.25,43.81" id="p3412" style="fill:none;fill-opacity:1;fill-rule:nonzero;stroke:#f2b177;stroke-width:1.38;stroke-linecap:round;stroke-linejoin:miter;marker:none;stroke-miterlimit:4;stroke-dasharray:none;stroke-dashoffset:0;stroke-opacity:0.25;visibility:visible;display:inline;overflow:visible;enable-background:accumulate"/>
<path d="M 28.05,32.3 C 27.28,32.21 25.86,32.02 25.10,31.73" id="p3414" style="fill:none;fill-opacity:1;fill-rule:nonzero;stroke:#6a2805;stroke-width:1.20;stroke-linecap:round;stroke-linejoin:miter;marker:none;stroke-miterlimit:4;stroke-dasharray:none;stroke-dashoffset:0;stroke-opacity:0.2;visibility:visible;display:inline;overflow:visible;enable-background:accumulate"/>
<path d="M 14.80,32.87 C 14.94,32.85 15.11,32.94 15.30,33.15 C 15.40,34.77 16.33,36.01 16.43,37.15 C 16.53,38.29 14.73,43.23 15.59,44.37 C 16.44,45.51 14.36,44.77 14.74,45.34 C 15.06,45.82 16.64,47.18 17.30,48 L 14.93,48 C 14.32,47.02 13.64,46.09 13.30,46.28 C 13.06,46.42 12.42,47.17 11.74,48 L 11.18,48 C 12.65,45.52 14.39,42.27 14.34,40.68 C 14.25,38.35 13.88,33.02 14.80,32.87 z" id="p3416" style="fill:#682d1f;fill-opacity:0.15;fill-rule:nonzero;stroke:none;marker:none;visibility:visible;display:inline;overflow:visible;enable-background:accumulate"/>
<path d="M 26.29,26.59 C 26.76,27.21 26.67,28.83 26.57,29.16 C 27.24,29.45 28.81,28.97 28.57,27.59 C 28.33,26.21 26.95,26.59 26.29,26.59 z" id="p3422" style="fill:#fcbfa4;fill-opacity:0.33;fill-rule:nonzero;stroke:none;marker:none;visibility:visible;display:inline;overflow:visible;enable-background:accumulate"/>
<path d="M 28.24,28.69 L 27.76,28.97" id="p3425" style="fill:none;fill-opacity:1;fill-rule:nonzero;stroke:#fae9dc;stroke-width:0.80;stroke-linecap:round;stroke-linejoin:miter;marker:none;stroke-miterlimit:4;stroke-dasharray:none;stroke-dashoffset:0;stroke-opacity:0.27;visibility:visible;display:inline;overflow:visible;enable-background:accumulate"/>
<path d="M 24.76,45.85 C 24.38,46.14 24.10,46.57 23.77,46.71" id="p3427" style="fill:none;fill-opacity:1;fill-rule:nonzero;stroke:#6a2805;stroke-width:1.88;stroke-linecap:round;stroke-linejoin:miter;marker:none;stroke-miterlimit:4;stroke-dasharray:none;stroke-dashoffset:0;stroke-opacity:0.2;visibility:visible;display:inline;overflow:visible;enable-background:accumulate"/>
<path d="M 22.32,14.32 C 22.76,14.58 23.20,15.29 23.29,15.82" id="p3429" style="fill:none;fill-opacity:1;fill-rule:nonzero;stroke:#f2b177;stroke-width:1.38;stroke-linecap:round;stroke-linejoin:miter;marker:none;stroke-miterlimit:4;stroke-dasharray:none;stroke-dashoffset:0;stroke-opacity:0.25;visibility:visible;display:inline;overflow:visible;enable-background:accumulate"/>
<path d="M 29.30,18.47 C 29.30,18.47 28.24,18.47 27.89,18.56" id="p3431" style="fill:none;fill-opacity:1;fill-rule:nonzero;stroke:#f2b177;stroke-width:1.38;stroke-linecap:round;stroke-linejoin:miter;marker:none;stroke-miterlimit:4;stroke-dasharray:none;stroke-dashoffset:0;stroke-opacity:0.25;visibility:visible;display:inline;overflow:visible;enable-background:accumulate"/>
<path d="M 29.21,13.26 C 28.86,13.17 28.06,13.08 27.71,13.17" id="p3433" style="fill:none;fill-opacity:1;fill-rule:nonzero;stroke:#6a2805;stroke-width:0.80;stroke-linecap:round;stroke-linejoin:miter;marker:none;stroke-miterlimit:4;stroke-dasharray:none;stroke-dashoffset:0;stroke-opacity:0.21;visibility:visible;display:inline;overflow:visible;enable-background:accumulate"/>
<path d="M 22.58,13.35 C 21.79,13.35 20.82,13.35 20.46,14.14" id="p3435" style="fill:none;fill-opacity:1;fill-rule:nonzero;stroke:#6a2805;stroke-width:0.80;stroke-linecap:round;stroke-linejoin:miter;marker:none;stroke-miterlimit:4;stroke-dasharray:none;stroke-dashoffset:0;stroke-opacity:0.21;visibility:visible;display:inline;overflow:visible;enable-background:accumulate"/>
<path d="M 21.52,8.57 C 21.08,8.57 20.73,8.66 20.55,8.93" id="p3437" style="fill:none;fill-opacity:1;fill-rule:nonzero;stroke:#6a2805;stroke-width:0.80;stroke-linecap:round;stroke-linejoin:miter;marker:none;stroke-miterlimit:4;stroke-dasharray:none;stroke-dashoffset:0;stroke-opacity:0.21;visibility:visible;display:inline;overflow:visible;enable-background:accumulate"/>
<path d="M 24.97,21.21 C 25.24,21.83 25.32,22.45 26.30,22.98" id="p3439" style="fill:none;fill-opacity:1;fill-rule:nonzero;stroke:#7e4503;stroke-width:0.80;stroke-linecap:round;stroke-linejoin:miter;marker:none;stroke-miterlimit:4;stroke-dasharray:none;stroke-dashoffset:0;stroke-opacity:0.55;visibility:visible;display:inline;overflow:visible;enable-background:accumulate"/>
<path d="M 23.29,23.42 C 23.38,23.95 23.29,26.16 23.29,26.61 C 22.50,26.78 20.82,27.84 20.37,28.2 C 19.58,27.75 18.34,26.87 17.99,26.34 C 18.25,26.25 18.69,25.46 18.78,25.1 C 19.14,25.46 19.67,26.52 19.93,26.61 C 20.46,26.16 21.88,25.99 22.32,25.9 C 22.14,24.4 22.14,24.48 23.29,23.42 z" id="p3441" style="fill:#733e26;fill-opacity:0.43;fill-rule:nonzero;stroke:none;marker:none;visibility:visible;display:inline;overflow:visible;enable-background:accumulate"/>
<path d="M 33.01,22.98 C 33.01,22.63 32.22,22.1 31.69,22.45" id="p3443" style="fill:none;fill-opacity:1;fill-rule:nonzero;stroke:#8a4106;stroke-width:1.10;stroke-linecap:round;stroke-linejoin:miter;marker:none;stroke-miterlimit:4;stroke-dasharray:none;stroke-dashoffset:0;stroke-opacity:0.3;visibility:visible;display:inline;overflow:visible;enable-background:accumulate"/>
<path d="M 35.22,20.15 C 34.78,19.36 34.43,19.27 34.52,18.65" id="p3445" style="fill:none;fill-opacity:1;fill-rule:nonzero;stroke:#6a2805;stroke-width:0.80;stroke-linecap:round;stroke-linejoin:miter;marker:none;stroke-miterlimit:4;stroke-dasharray:none;stroke-dashoffset:0;stroke-opacity:0.21;visibility:visible;display:inline;overflow:visible;enable-background:accumulate"/>
<path d="M 16.75,16 C 16.93,16.88 17.90,19.89 17.99,20.59" id="p3456" style="fill:none;fill-opacity:1;fill-rule:nonzero;stroke:#f2b177;stroke-width:1.38;stroke-linecap:round;stroke-linejoin:miter;marker:none;stroke-miterlimit:4;stroke-dasharray:none;stroke-dashoffset:0;stroke-opacity:0.25;visibility:visible;display:inline;overflow:visible;enable-background:accumulate"/>
<path d="M 14.98,10.52 C 15.25,10.96 15.42,11.76 15.42,11.76" id="p3458" style="fill:none;fill-opacity:1;fill-rule:nonzero;stroke:#f2b177;stroke-width:1.38;stroke-linecap:round;stroke-linejoin:miter;marker:none;stroke-miterlimit:4;stroke-dasharray:none;stroke-dashoffset:0;stroke-opacity:0.25;visibility:visible;display:inline;overflow:visible;enable-background:accumulate"/>
<path d="M 20.37,27.58 C 20.02,27.49 19.40,27.05 18.96,26.61" id="p3460" style="fill:none;fill-opacity:1;fill-rule:nonzero;stroke:#6a2805;stroke-width:1.20;stroke-linecap:round;stroke-linejoin:miter;marker:none;stroke-miterlimit:4;stroke-dasharray:none;stroke-dashoffset:0;stroke-opacity:0.37;visibility:visible;display:inline;overflow:visible;enable-background:accumulate"/>
<path d="M 16.31,24.66 C 16.22,25.37 17.19,26.25 17.90,26.87" id="p3462" style="fill:none;fill-opacity:1;fill-rule:nonzero;stroke:#f2b177;stroke-width:0.98;stroke-linecap:round;stroke-linejoin:miter;marker:none;stroke-miterlimit:4;stroke-dasharray:none;stroke-dashoffset:0;stroke-opacity:0.25;visibility:visible;display:inline;overflow:visible;enable-background:accumulate"/>
<path d="M 13.40,33 C 14.47,31.11 17.17,29.63 18.31,29.3 C 19.45,28.96 22.14,26.94 23.22,26.61 C 24.29,26.27 27.52,26.67 27.93,26.61 C 28.33,26.54 29.54,29.23 27.79,30.44 C 26.04,31.65 24.50,31.32 23.55,32.06 C 22.61,32.8 22.07,33.27 21.27,33.47" id="p2577" style="fill:none;fill-opacity:1;fill-rule:nonzero;stroke:#301e05;stroke-width:0.5;stroke-linecap:round;stroke-linejoin:round;marker:none;stroke-miterlimit:4;stroke-dasharray:none;stroke-dashoffset:0;stroke-opacity:1;visibility:visible;display:inline;overflow:visible;enable-background:accumulate"/>
<path d="M 23.55,32.12 L 23.55,32.12 C 23.82,35.49 23.55,38.04 23.22,39.05" id="p2579" style="fill:none;fill-opacity:1;fill-rule:nonzero;stroke:#301e05;stroke-width:0.5;stroke-linecap:round;stroke-linejoin:round;marker:none;stroke-miterlimit:4;stroke-dasharray:none;stroke-dashoffset:0;stroke-opacity:1;visibility:visible;display:inline;overflow:visible;enable-background:accumulate"/>
<path d="M 10.80,48 C 12.03,45.69 13.22,43.52 13.46,43.15 C 14.00,42.34 13.73,41.14 13.46,40.46 C 13.19,39.79 13.34,34.94 13.34,32.65 C 13.34,30.36 14.13,24.99 13.99,21.5 C 13.86,18 11.60,10.99 11.46,7.5 C 11.33,4 14.54,4.68 14.80,6.43 C 15.07,8.18 16.56,13.28 16.96,14.5 C 17.36,15.71 18.84,21.21 18.84,21.21 C 18.84,21.21 19.50,21.1 19.77,20.96 C 19.77,20.02 19.66,15.03 19.93,14.09 C 20.20,13.15 19.80,8.73 19.93,4.96 C 19.99,3.32 20.69,2.77 21.46,2.81 C 22.45,2.86 23.55,3.85 23.55,4.68 C 23.55,6.16 23.84,11.4 23.84,12.75 C 23.84,14.09 24.50,18.13 24.37,19.75 C 24.23,21.36 24.50,22.05 24.90,20.84 C 25.30,19.63 25.98,16.26 26.65,14.78 C 27.32,13.3 27.58,9.8 28.12,7.65 C 28.66,5.5 31.64,6.42 31.37,8.31 C 31.10,10.19 30.56,16.67 30.43,17.75 C 30.30,18.82 28.79,23.66 28.52,24.46 C 28.25,25.27 29.06,25.66 29.46,25.53 C 29.60,25.12 30.97,22.03 31.77,21.5 C 32.58,20.96 34.17,17.88 35.65,16 C 37.13,14.11 39.14,15.99 38.34,17.34 C 37.53,18.68 32.83,27.82 32.02,29.03 C 31.22,30.24 31.49,32.38 31.09,33.59 C 30.68,34.8 27.47,43.02 26.52,44.5 C 25.96,45.37 25.37,46.53 24.65,48" id="stroke01" style="fill:none;fill-opacity:1;fill-rule:nonzero;stroke:#301e05;stroke-width:0.5;stroke-linecap:butt;stroke-linejoin:round;marker:none;stroke-miterlimit:4;stroke-dasharray:none;stroke-dashoffset:0;stroke-opacity:1;visibility:visible;display:inline;overflow:visible;enable-background:accumulate"/>
</g>
</svg>
