<?xml version="1.0" encoding="UTF-8" standalone="no"?>
<!DOCTYPE svg PUBLIC "-//W3C//DTD SVG 1.0//EN" "http://www.w3.org/TR/2001/REC-SVG-20010904/DTD/svg10.dtd">
<svg xmlns:svg="http://www.w3.org/2000/svg" xmlns="http://www.w3.org/2000/svg" version="1.0" width="100%" height="100%" viewBox="0 0 48 48" id="_lefthand01" style="display:inline">
<defs id="defs2818"/>
<g id="lefthand01">
<path d="M 26.72,4.71 C 27.72,4.81 28.71,5.64 28.56,6.81 C 28.04,10.95 27.67,16.13 27.16,23.12 C 32.21,21.7 33.48,24.31 34.12,26.12 C 36.72,27.16 37.26,31.42 36.87,32.59 C 37.39,33.5 37.50,37.38 35.81,39.71 C 34.49,41.54 30.82,45.79 28.34,48 L 8.12,48 C 11.42,44.72 14.68,41.54 15.22,41 C 16.38,39.83 16.18,35.2 16.91,33.62 C 17.68,31.94 18.22,29.86 19.12,28.43 C 19.99,27.08 20.41,23.51 21.19,22.21 C 21.84,17.94 24.24,9.19 24.94,6.03 C 25.16,5.01 25.94,4.64 26.72,4.71 z" id="p2542" style="fill:#ba6d35;fill-opacity:1;fill-rule:nonzero;stroke:none;marker:none;visibility:visible;display:inline;overflow:visible;enable-background:accumulate"/>
<path d="M 26.72,4.71 C 27.00,4.74 27.27,4.86 27.53,5 C 26.69,5.81 26.61,6.37 26.34,7.78 C 25.98,9.7 23.78,20.8 23.78,22 C 23.78,23.19 24.70,24.56 25.34,24.56 C 25.62,24.56 26.49,23.83 27.37,23.06 C 29.25,22.56 30.59,22.64 31.56,23.03 C 31.87,23.62 32.03,24.28 31.75,24.84 C 30.93,26.49 28.53,28.85 28.53,29.31 C 28.53,29.77 28.35,31.25 28.62,32.62 C 28.90,33.99 30.11,35.44 30.84,35.62 C 32.22,35.07 32.84,34.71 32.84,34.71 C 32.84,34.71 31.85,35.72 32.03,37.09 C 32.21,38.46 33.03,38.37 33.03,38.37 C 33.03,38.37 30.20,39.2 29.56,38.75 C 28.92,38.29 28.28,37.64 28.28,38.37 C 28.28,38.96 29.32,44.99 27.41,48 L 8.12,48 C 11.42,44.72 14.68,41.54 15.22,41 C 16.38,39.83 16.18,35.2 16.91,33.62 C 17.68,31.94 18.22,29.86 19.12,28.43 C 19.99,27.08 20.41,23.51 21.19,22.21 C 21.84,17.94 24.24,9.19 24.94,6.03 C 25.16,5.01 25.94,4.64 26.72,4.71 z" id="p3532" style="fill:#733e26;fill-opacity:0.54;fill-rule:nonzero;stroke:none;marker:none;visibility:visible;display:inline;overflow:visible;enable-background:accumulate"/>
<path d="M 27.66,16.53 C 27.50,18.6 27.34,20.62 27.16,23.12 C 27.26,23.09 27.36,23.08 27.47,23.06 C 27.46,23.07 27.45,23.08 27.44,23.09 C 26.70,23.55 25.34,22.26 25.34,21.43 C 25.34,20.83 26.47,18.71 27.66,16.53 z M 33.69,25.09 C 33.84,25.4 33.99,25.7 34.09,26 L 32.56,28.4 C 32.56,28.4 30.84,28.84 29.28,29.03 C 29.87,27.69 31.91,25.85 33.69,25.09 z M 36.44,38.59 C 36.26,38.99 36.06,39.37 35.81,39.71 C 34.62,41.36 31.51,44.99 29.09,47.31 C 29.94,44.47 28.51,41.3 28.28,40.21 C 28.01,38.93 29.10,38.84 29.56,38.75 C 30.02,39.11 31.76,39.21 33.31,38.93 C 33.99,39.09 35.12,39.06 36.44,38.59 z" id="p3538" style="fill:#f0ad7f;fill-opacity:0.35;fill-rule:nonzero;stroke:none;marker:none;visibility:visible;display:inline;overflow:visible;enable-background:accumulate"/>
<path d="M 32.85,29.36 C 32.94,30.37 33.67,32.52 33.95,32.66 C 34.22,32.79 35.51,32.75 35.92,32.66 C 36.06,29.91 35.32,28.26 33.90,28.21 C 33.26,28.72 32.85,29.13 32.85,29.36 z" id="p3551" style="fill:#fcbfa4;fill-opacity:0.33;fill-rule:nonzero;stroke:none;marker:none;visibility:visible;display:inline;overflow:visible;enable-background:accumulate"/>
<path d="M 26.99,24.87 C 24.84,25.79 23.83,27.02 24.01,27.53 C 24.20,28.03 24.79,29.54 24.79,30.41 C 25.39,30.32 25.71,30.04 25.71,30.04 C 25.71,30.04 26.62,25.88 26.99,24.87 z" id="p3553" style="fill:#581902;fill-opacity:0.33;fill-rule:nonzero;stroke:none;marker:none;visibility:visible;display:inline;overflow:visible;enable-background:accumulate"/>
<path d="M 22.14,24.6 C 22.23,25.24 22.59,27.66 23.33,28.67" id="p3557" style="fill:none;fill-opacity:1;fill-rule:nonzero;stroke:#efa35e;stroke-width:1.38;stroke-linecap:round;stroke-linejoin:miter;marker:none;stroke-miterlimit:4;stroke-dasharray:none;stroke-dashoffset:0;stroke-opacity:0.25;visibility:visible;display:inline;overflow:visible;enable-background:accumulate"/>
<path d="M 29.02,38.8 C 27.79,37.83 27.41,37.25 25.92,37.44 C 24.43,37.63 23.26,37.96 22.61,37.89 C 24.62,38.28 25.46,40.81 25.14,41.65 C 24.82,42.49 24.82,43.72 23.58,44.89 C 25.72,44.95 28.44,47.87 29.02,38.8 z" id="p3573" style="fill:#f0ad7f;fill-opacity:0.35;fill-rule:nonzero;stroke:none;marker:none;visibility:visible;display:inline;overflow:visible;enable-background:accumulate"/>
<path d="M 27.83,37.09 C 28.06,38.14 28.04,41.81 27.95,43.14" id="p3559" style="fill:none;fill-opacity:1;fill-rule:nonzero;stroke:#6a2805;stroke-width:1.20;stroke-linecap:round;stroke-linejoin:miter;marker:none;stroke-miterlimit:4;stroke-dasharray:none;stroke-dashoffset:0;stroke-opacity:0.37;visibility:visible;display:inline;overflow:visible;enable-background:accumulate"/>
<path d="M 26.07,41.58 L 26.07,41.58 C 26.30,43.19 24.75,46.07 20.85,48.32" id="p3561" style="fill:none;fill-opacity:1;fill-rule:nonzero;stroke:#6a2805;stroke-width:1.20;stroke-linecap:round;stroke-linejoin:miter;marker:none;stroke-miterlimit:4;stroke-dasharray:none;stroke-dashoffset:0;stroke-opacity:0.37;visibility:visible;display:inline;overflow:visible;enable-background:accumulate"/>
<path d="M 31.93,35.13 C 31.48,35.77 30.33,37.28 31.66,38.7 C 29.46,39.11 28.68,38.38 28.45,36.73 C 30.29,36.09 31.11,35.59 31.93,35.13 z" id="p3563" style="fill:#581902;fill-opacity:0.33;fill-rule:nonzero;stroke:none;marker:none;visibility:visible;display:inline;overflow:visible;enable-background:accumulate"/>
<path d="M 20.22,28.24 L 20.22,28.24 C 20.48,29.34 20.61,30.58 23.52,31.29 C 21.51,31.16 19.83,31.09 19.18,31.74 C 18.53,30.7 19.12,30.12 20.22,28.24 z" id="p3569" style="fill:#682d1f;fill-opacity:0.15;fill-rule:nonzero;stroke:none;marker:none;visibility:visible;display:inline;overflow:visible;enable-background:accumulate"/>
<path d="M 19.91,34.37 C 20.05,34.36 20.19,34.43 20.34,34.59 C 20.21,35.95 20.02,37.64 21.19,38.81 C 20.93,39.2 18.28,41.25 20.16,43 C 20.03,43.45 19.62,44.06 18.84,44 C 18.07,43.93 16.67,44.11 16.34,47.21 C 16.31,47.55 16.25,47.8 16.19,48 L 15.16,48 C 14.63,47.35 14.04,46.22 13.56,45.65 C 13.09,45.08 12.24,44.83 11.41,44.75 C 12.85,43.33 14.93,41.29 15.22,41 C 15.56,40.65 15.77,39.99 15.94,39.21 C 17.15,38.93 18.44,38.05 18.66,36.93 C 18.87,35.83 19.30,34.41 19.91,34.37 z" id="p3571" style="fill:#682d1f;fill-opacity:0.15;fill-rule:nonzero;stroke:none;marker:none;visibility:visible;display:inline;overflow:visible;enable-background:accumulate"/>
<path d="M 29.46,35.17 C 26.71,35.27 23.88,35.54 21.04,33.43" id="p3581" style="fill:none;fill-opacity:1;fill-rule:nonzero;stroke:#dda763;stroke-width:2.5;stroke-linecap:round;stroke-linejoin:miter;marker:none;stroke-miterlimit:4;stroke-dasharray:none;stroke-dashoffset:0;stroke-opacity:0.15;visibility:visible;display:inline;overflow:visible;enable-background:accumulate"/>
<path d="M 29.46,30.78 C 28.18,31.05 26.17,31.42 24.88,31.24" id="p3583" style="fill:none;fill-opacity:1;fill-rule:nonzero;stroke:#dda763;stroke-width:1.70;stroke-linecap:round;stroke-linejoin:miter;marker:none;stroke-miterlimit:4;stroke-dasharray:none;stroke-dashoffset:0;stroke-opacity:0.31;visibility:visible;display:inline;overflow:visible;enable-background:accumulate"/>
<path d="M 31.29,25.83 C 30.19,26.47 29.74,27.3 29.28,28.03" id="p3585" style="fill:none;fill-opacity:1;fill-rule:nonzero;stroke:#dda763;stroke-width:1.70;stroke-linecap:round;stroke-linejoin:miter;marker:none;stroke-miterlimit:4;stroke-dasharray:none;stroke-dashoffset:0;stroke-opacity:0.31;visibility:visible;display:inline;overflow:visible;enable-background:accumulate"/>
<path d="M 23.69,24.31 C 23.69,24.93 24.14,25.72 24.14,25.72" id="p3592" style="fill:none;fill-opacity:1;fill-rule:nonzero;stroke:#efa35e;stroke-width:0.98;stroke-linecap:round;stroke-linejoin:miter;marker:none;stroke-miterlimit:4;stroke-dasharray:none;stroke-dashoffset:0;stroke-opacity:0.18;visibility:visible;display:inline;overflow:visible;enable-background:accumulate"/>
<path d="M 27.05,11.49 C 26.43,11.31 25.68,11.49 25.24,11.49" id="p3594" style="fill:none;fill-opacity:1;fill-rule:nonzero;stroke:#f7c08b;stroke-width:0.88;stroke-linecap:round;stroke-linejoin:miter;marker:none;stroke-miterlimit:4;stroke-dasharray:none;stroke-dashoffset:0;stroke-opacity:0.11;visibility:visible;display:inline;overflow:visible;enable-background:accumulate"/>
<path d="M 25.99,16.53 C 25.29,16.35 24.14,16.44 23.61,16.53" id="p3596" style="fill:none;fill-opacity:1;fill-rule:nonzero;stroke:#f7c08b;stroke-width:0.88;stroke-linecap:round;stroke-linejoin:miter;marker:none;stroke-miterlimit:4;stroke-dasharray:none;stroke-dashoffset:0;stroke-opacity:0.11;visibility:visible;display:inline;overflow:visible;enable-background:accumulate"/>
<path d="M 27.32,23.86 C 26.61,23.69 25.55,24.04 25.11,24.31" id="p3598" style="fill:none;fill-opacity:1;fill-rule:nonzero;stroke:#f7c08b;stroke-width:0.60;stroke-linecap:round;stroke-linejoin:miter;marker:none;stroke-miterlimit:4;stroke-dasharray:none;stroke-dashoffset:0;stroke-opacity:0.18;visibility:visible;display:inline;overflow:visible;enable-background:accumulate"/>
<path d="M 28.82,31.82 C 29.26,33.15 29.00,33.15 29.44,33.94" id="p3600" style="fill:none;fill-opacity:1;fill-rule:nonzero;stroke:#f7c08b;stroke-width:0.5;stroke-linecap:round;stroke-linejoin:miter;marker:none;stroke-miterlimit:4;stroke-dasharray:none;stroke-dashoffset:0;stroke-opacity:0.25;visibility:visible;display:inline;overflow:visible;enable-background:accumulate"/>
<path d="M 29.97,32.09 C 30.41,32.88 30.41,34.03 30.32,34.38" id="p3602" style="fill:none;fill-opacity:1;fill-rule:nonzero;stroke:#f7c08b;stroke-width:0.5;stroke-linecap:round;stroke-linejoin:miter;marker:none;stroke-miterlimit:4;stroke-dasharray:none;stroke-dashoffset:0;stroke-opacity:0.25;visibility:visible;display:inline;overflow:visible;enable-background:accumulate"/>
<path d="M 25.20,39.33 C 24.58,40.84 24.58,41.28 23.43,42.78" id="p3604" style="fill:none;fill-opacity:1;fill-rule:nonzero;stroke:#c5a589;stroke-width:4.48;stroke-linecap:round;stroke-linejoin:miter;marker:none;stroke-miterlimit:4;stroke-dasharray:none;stroke-dashoffset:0;stroke-opacity:0.12;visibility:visible;display:inline;overflow:visible;enable-background:accumulate"/>
<path d="M 20.78,28.64 C 21.13,29.17 21.22,29.43 21.84,29.96" id="p3606" style="fill:none;fill-opacity:1;fill-rule:nonzero;stroke:#efa35e;stroke-width:0.98;stroke-linecap:round;stroke-linejoin:miter;marker:none;stroke-miterlimit:4;stroke-dasharray:none;stroke-dashoffset:0;stroke-opacity:0.13;visibility:visible;display:inline;overflow:visible;enable-background:accumulate"/>
<path d="M 32.53,25.63 C 32.18,25.19 31.30,24.48 30.85,24.4" id="p3608" style="fill:none;fill-opacity:1;fill-rule:nonzero;stroke:#efa35e;stroke-width:1.38;stroke-linecap:round;stroke-linejoin:miter;marker:none;stroke-miterlimit:4;stroke-dasharray:none;stroke-dashoffset:0;stroke-opacity:0.25;visibility:visible;display:inline;overflow:visible;enable-background:accumulate"/>
<path d="M 33.77,29.43 C 33.77,29.43 33.42,29.52 33.06,29.61" id="p3610" style="fill:none;fill-opacity:1;fill-rule:nonzero;stroke:#fae9dc;stroke-width:0.80;stroke-linecap:round;stroke-linejoin:miter;marker:none;stroke-miterlimit:4;stroke-dasharray:none;stroke-dashoffset:0;stroke-opacity:0.27;visibility:visible;display:inline;overflow:visible;enable-background:accumulate"/>
<path d="M 25.24,29.92 C 25.06,29.26 23.78,27.53 23.47,26.21" id="p3622" style="fill:none;fill-opacity:1;fill-rule:nonzero;stroke:#6a2805;stroke-width:1.20;stroke-linecap:round;stroke-linejoin:miter;marker:none;stroke-miterlimit:4;stroke-dasharray:none;stroke-dashoffset:0;stroke-opacity:0.37;visibility:visible;display:inline;overflow:visible;enable-background:accumulate"/>
<path d="M 25.77,28.51 C 25.73,27.71 25.77,27.58 25.73,26.69" id="p3624" style="fill:none;fill-opacity:1;fill-rule:nonzero;stroke:#6a2805;stroke-width:1.20;stroke-linecap:round;stroke-linejoin:miter;marker:none;stroke-miterlimit:4;stroke-dasharray:none;stroke-dashoffset:0;stroke-opacity:0.37;visibility:visible;display:inline;overflow:visible;enable-background:accumulate"/>
<path d="M 26.44,37.19 C 28.09,37.28 34.68,33.8 35.60,33.07 C 36.51,32.33 36.24,27.39 32.67,28.3 C 29.10,29.22 26.17,29.95 24.61,30.41 C 23.60,30.04 23.05,29.68 22.32,29.04" id="p2752" style="fill:none;fill-opacity:1;fill-rule:nonzero;stroke:#301e05;stroke-width:0.5;stroke-linecap:round;stroke-linejoin:round;marker:none;stroke-miterlimit:4;stroke-dasharray:none;stroke-dashoffset:0;stroke-opacity:1;visibility:visible;display:inline;overflow:visible;enable-background:accumulate"/>
<path d="M 27.17,24.18 C 26.62,25.83 25.80,29.04 25.71,30.14" id="p3524" style="fill:none;fill-opacity:1;fill-rule:nonzero;stroke:#301e05;stroke-width:0.5;stroke-linecap:round;stroke-linejoin:round;marker:none;stroke-miterlimit:4;stroke-dasharray:none;stroke-dashoffset:0;stroke-opacity:1;visibility:visible;display:inline;overflow:visible;enable-background:accumulate"/>
<path d="M 33.86,25.56 C 33.95,26.2 32.58,28.21 32.58,28.21" id="p3526" style="fill:none;fill-opacity:1;fill-rule:nonzero;stroke:#301e05;stroke-width:0.5;stroke-linecap:butt;stroke-linejoin:round;marker:none;stroke-miterlimit:4;stroke-dasharray:none;stroke-dashoffset:0;stroke-opacity:1;visibility:visible;display:inline;overflow:visible;enable-background:accumulate"/>
<path d="M 37.16,35.91 L 37.16,35.91 C 35.60,37.83 32.48,38.65 30.84,38.84 C 29.19,39.02 28.64,38.01 28.45,36.82" id="p3528" style="fill:none;fill-opacity:1;fill-rule:nonzero;stroke:#301e05;stroke-width:0.5;stroke-linecap:round;stroke-linejoin:round;marker:none;stroke-miterlimit:4;stroke-dasharray:none;stroke-dashoffset:0;stroke-opacity:1;visibility:visible;display:inline;overflow:visible;enable-background:accumulate"/>
<path d="M 36.97,31.88 C 36.61,32.24 36.42,32.52 35.96,32.79" id="p3530" style="fill:none;fill-opacity:1;fill-rule:nonzero;stroke:#301e05;stroke-width:0.5;stroke-linecap:round;stroke-linejoin:round;marker:none;stroke-miterlimit:4;stroke-dasharray:none;stroke-dashoffset:0;stroke-opacity:1;visibility:visible;display:inline;overflow:visible;enable-background:accumulate"/>
<path d="M 8.12,48 C 11.42,44.72 14.68,41.54 15.22,41 C 16.38,39.83 16.18,35.2 16.91,33.62 C 17.68,31.94 18.22,29.86 19.12,28.43 C 19.99,27.08 20.41,23.51 21.19,22.21 C 21.84,17.94 24.24,9.19 24.94,6.03 C 25.16,5.01 25.94,4.64 26.72,4.71 C 27.72,4.81 28.71,5.64 28.56,6.81 C 28.04,10.95 27.67,16.13 27.16,23.12 C 32.21,21.7 33.48,24.31 34.12,26.12 C 36.72,27.16 37.26,31.42 36.87,32.59 C 37.39,33.5 37.50,37.38 35.81,39.71 C 34.49,41.54 30.82,45.79 28.34,48" id="stroke01" style="fill:none;fill-opacity:1;fill-rule:nonzero;stroke:#301e05;stroke-width:0.5;stroke-linecap:butt;stroke-linejoin:round;marker:none;stroke-miterlimit:4;stroke-dasharray:none;stroke-dashoffset:0;stroke-opacity:1;visibility:visible;display:inline;overflow:visible;enable-background:accumulate"/>
</g>
</svg>
