<?xml version="1.0" encoding="UTF-8" standalone="no"?>
<!DOCTYPE svg PUBLIC "-//W3C//DTD SVG 1.0//EN" "http://www.w3.org/TR/2001/REC-SVG-20010904/DTD/svg10.dtd">
<svg xmlns:svg="http://www.w3.org/2000/svg" xmlns="http://www.w3.org/2000/svg" version="1.0" width="100%" height="100%" viewBox="0 0 48 48" id="_hand01" style="display:inline">
<defs id="defs2818"/>
<g id="hand01" style="display:inline">
<path d="M 20.09,3.53 C 19.2,3.55 18.47,4.27 18.44,5.15 C 18.38,6.7 19.03,9.39 19.44,10.61 C 19.84,11.83 19.76,15.06 20,15.98 C 20.36,17.35 21.46,21.84 21.65,22.82 C 21.89,24.06 21.44,23.91 21.37,23.75 C 21.24,23.4 20.56,20.47 20.15,19.5 C 19.74,18.52 18.32,13.63 18,12.65 C 17.67,11.67 17.49,9.13 16.81,7.71 C 15.91,5.84 13.28,6.85 13.35,8.58 C 13.4,9.97 13.6,11.11 14.25,12.58 C 14.9,14.04 15.17,17.85 15.75,19.89 C 16.32,21.93 17.63,25.7 17.87,26.35 C 18.11,27 17.97,27.43 17.25,28 C 16.52,28.57 15.87,26.59 13.79,24.63 C 12.61,23.52 11.53,21.78 11.04,21.04 C 10.56,20.31 9.65,18.45 8.2,17.51 C 6.78,16.59 4.79,17.91 5.74,19.82 C 6.95,22.27 10.6,26.93 11.45,27.88 C 12.05,28.55 13.48,30.42 14.38,31.56 C 15.27,32.7 15.5,35.22 16.16,36.77 C 16.81,38.32 17.71,39.8 18.69,41.27 C 19.66,42.73 20.01,43.7 20.75,44.52 C 21.48,45.33 21.96,47.13 22.12,47.3 C 22.2,47.38 22.22,47.61 22.21,47.95 L 36.83,47.95 C 36.92,47.14 37.05,46.14 37.36,44.77 C 37.87,42.49 38.59,42.58 39.07,41.12 C 39.73,39.11 39.71,38.09 40.03,36.84 C 40.49,35.03 40.84,31.36 41.06,30.5 C 41.39,29.2 42.72,26.53 42.77,24.25 C 42.82,22.16 44.12,19.19 43.86,18 C 43.76,17.86 42.56,17.44 41.02,18.4 C 39.19,19.54 38.56,22.08 38.56,23.8 C 36.68,26.35 37.05,29.82 35.5,28.62 C 33.72,27.25 32.42,24.22 31.25,20.56 C 29.81,16.09 30.12,14.64 29.56,13.46 C 28.64,11.55 28.23,7.41 26.43,5.78 C 24.64,4.14 22.77,6.13 24,9.56 C 25.22,12.98 24.97,13.3 25.46,15.99 C 25.94,18.68 26.66,18.77 26.83,21.14 C 26.96,23.06 26.06,22.51 25.71,21.14 C 25.32,19.6 25.71,17.39 24,12.9 C 22.28,8.41 23.12,5.69 21.78,4.31 C 21.22,3.73 20.63,3.51 20.09,3.53 z" id="p2842" style="fill:#ba6d35;fill-opacity:1;stroke:none"/>
<path d="M 29.86,23.8 C 30.68,28.2 32.39,33.28 37.25,31.93" id="p4023" style="fill:none;stroke:#e8a86f;stroke-width:3.27;stroke-linecap:round;stroke-linejoin:miter;stroke-miterlimit:4;stroke-dasharray:none;stroke-opacity:0.47"/>
<path d="M 7.06,17.21 C 6.59,17.24 6.18,17.48 5.88,17.83 C 6.82,18.14 7.4,18.86 7.72,19.83 C 8.2,21.29 9.6,23.13 10.97,24.01 C 12.33,24.89 13.6,27.83 14.87,29.69 C 16.14,31.54 17.68,33.3 18.46,33.5 C 19.12,33.66 16.99,30.28 17.12,28.07 C 16.44,28.31 15.73,26.47 13.78,24.64 C 12.6,23.53 11.52,21.79 11.03,21.05 C 10.54,20.32 9.63,18.46 8.18,17.53 C 7.83,17.29 7.43,17.19 7.06,17.21 z" id="p3665" style="fill:#f0ad7f;fill-opacity:0.35;stroke:none"/>
<path d="M 23.99,7.03 C 24.17,8.4 24.78,10.49 25.14,11.82 C 25.5,13.15 25.64,15.78 26.72,17.41" id="p3926" style="fill:none;stroke:#893d0f;stroke-width:0.69;stroke-linecap:round;stroke-linejoin:miter;marker:none;stroke-miterlimit:4;stroke-dasharray:none;stroke-dashoffset:0;stroke-opacity:0.66;visibility:visible;display:inline;overflow:visible;enable-background:accumulate"/>
<path d="M 25.12,5.18 C 25,5.18 24.9,5.23 24.78,5.27 C 25.58,6 26.23,6.9 26.49,8.17 C 26.97,10.51 28.05,13.17 28.64,14.45 C 29.22,15.72 28.44,16.98 28.82,18.45 C 29.21,19.91 29.31,23.81 29.5,25.57 C 29.69,27.33 30.78,28.7 33.03,29.88 C 35.27,31.05 37.32,33.1 38.4,32.22 C 39.47,31.34 41.33,25.49 41.33,24.32 C 41.33,23.38 42.04,20.26 43.45,17.86 C 42.97,17.76 42.09,17.75 41.02,18.42 C 39.19,19.56 38.56,22.1 38.56,23.82 C 36.68,26.35 37.05,29.82 35.5,28.62 C 33.72,27.25 32.42,24.22 31.25,20.56 C 29.81,16.09 30.12,14.64 29.56,13.46 C 28.64,11.55 28.23,7.41 26.43,5.78 C 25.98,5.37 25.53,5.17 25.12,5.18 z" id="p3667" style="fill:#f0ad7f;fill-opacity:0.35;stroke:none"/>
<path d="M 24.07,7.27 C 24,6.8 23.78,6.43 24.1,6.14 C 24.43,5.85 25.71,5.3 26.19,5.7 C 26.66,6.1 26.59,6.72 26.37,6.94 C 26.15,7.16 25.02,7.49 24.06,7.27 L 24.07,7.27 z" id="p3941" style="fill:#fcbfa4;fill-opacity:0.33;fill-rule:nonzero;stroke:none;marker:none;visibility:visible;display:inline;overflow:visible;enable-background:accumulate"/>
<path d="M 20.31,3.56 C 20.43,4.83 20.7,6.42 20.84,7.02 C 21.03,7.9 21.71,8.77 21.8,10.23 C 21.89,11.69 23.45,13.94 23.55,15.6 C 23.64,17.26 24.53,21.55 24.92,22.63 C 25.31,23.7 25.5,25.28 25.7,25.97 C 25.89,26.65 25.03,25.77 24.64,24.79 C 24.25,23.82 23.67,24.52 23.86,25.1 C 24.05,25.68 25.51,29.77 25.51,30.75 C 25.51,31.72 26.19,34.16 26.19,31.62 C 26.19,29.08 27.35,27.04 27.15,25.97 C 27,25.15 26.34,23.67 26.12,22.1 C 25.96,21.89 25.79,21.56 25.69,21.14 C 25.32,19.6 25.71,17.39 24,12.9 C 22.28,8.41 23.12,5.69 21.78,4.31 C 21.29,3.81 20.78,3.6 20.31,3.56 z" id="p3671" style="fill:#f0ad7f;fill-opacity:0.35;stroke:none;display:inline"/>
<path d="M 15.21,6.71 C 15.89,8.47 16.61,10.43 16.61,11.71 C 16.61,13.47 16.8,15.8 17.48,17.36 C 18.16,18.92 19.24,23.73 19.63,25.29 C 20.02,26.85 22.08,32.13 23.16,34.29 C 24.23,36.44 25.2,38.87 24.91,36.72 C 24.62,34.57 24.72,32.61 24.04,30.85 C 23.36,29.09 23.35,27.83 22.76,26.17 C 22.47,25.35 22.13,24.35 21.64,22.92 C 21.84,24.03 21.43,23.91 21.37,23.75 C 21.24,23.4 20.56,20.47 20.15,19.5 C 19.74,18.52 18.32,13.63 18,12.65 C 17.67,11.67 17.49,9.13 16.81,7.71 C 16.46,6.97 15.84,6.69 15.22,6.71 L 15.21,6.71 z" id="p3673" style="fill:#f0ad7f;fill-opacity:0.35;stroke:none;display:inline"/>
<path d="M 18.99,23.86 C 19.55,23.83 20.04,23.62 20.04,23.62" id="p3976" style="fill:none;stroke:#deb084;stroke-width:2.07;stroke-linecap:round;stroke-linejoin:miter;stroke-miterlimit:4;stroke-dasharray:none;stroke-opacity:0.2;display:inline"/>
<path d="M 20.09,3.53 C 19.2,3.55 18.47,4.27 18.44,5.15 C 18.38,6.7 19.03,9.39 19.44,10.61 C 19.84,11.83 19.76,15.06 20,15.98 C 20.36,17.35 21.46,21.84 21.65,22.82 C 21.88,24.04 21.44,23.89 21.37,23.72 C 21.36,23.69 21.28,23.39 21.25,23.29 C 21.42,25 21.61,27.49 21.28,28.04 C 20.76,28.88 20.04,25.78 19.93,24.34 C 19.83,22.89 17.76,18.03 17.56,17 C 17.35,15.96 16.94,12.67 16.84,12.15 C 16.74,11.63 15.48,11.85 15.28,11.03 C 15.07,10.2 15.48,9.77 16,9.46 C 16.32,9.27 15.91,7.88 15.56,6.75 C 14.5,6.57 13.29,7.4 13.34,8.59 C 13.39,9.98 13.59,11.12 14.24,12.59 C 14.89,14.05 15.16,17.86 15.74,19.9 C 16.31,21.94 17.62,25.71 17.86,26.36 C 18.1,27.01 17.96,27.44 17.24,28.01 C 16.86,28.31 16.49,27.88 15.93,27.14 C 15.86,28.31 17.7,29.63 18.27,30.1 C 18.88,30.61 19.6,31.96 18.98,33.41 C 18.37,34.85 17.56,32.39 16.73,31.66 C 15.92,30.96 17.14,30.34 16.21,29.62 C 15.28,28.9 12.07,25.17 11.25,24.34 C 10.42,23.51 9.18,21.23 8.87,20.71 C 8.56,20.2 7.96,21.46 7.65,20.84 C 7.34,20.22 7.01,19.8 7.53,19.5 C 7.86,19.29 7.16,18.52 6.34,17.46 C 5.62,17.85 5.18,18.74 5.72,19.83 C 6.93,22.28 10.58,26.94 11.43,27.89 C 12.03,28.56 13.46,30.43 14.36,31.57 C 15.25,32.71 15.48,35.23 16.14,36.78 C 16.79,38.33 17.69,39.81 18.67,41.28 C 19.64,42.74 19.99,43.71 20.73,44.53 C 21.46,45.34 21.94,47.14 22.1,47.31 C 22.18,47.39 22.2,47.62 22.19,47.96 L 30.31,47.96 C 32.54,46 35.15,45.27 37.31,44.96 C 37.32,44.9 37.32,44.85 37.34,44.78 C 37.85,42.5 38.57,42.59 39.05,41.13 C 39.71,39.12 39.69,38.1 40.01,36.85 C 40.46,35.08 40.82,31.55 41.04,30.6 C 38.54,34.24 35.86,34.52 34.54,34.44 C 32.79,34.34 30.85,31.96 30.23,30.41 C 29.62,28.87 29.4,25.16 29.3,23.51 C 29.24,21.87 28.41,17.84 28.31,17.12 C 28.2,16.4 26.85,16.07 26.75,14.93 C 26.64,13.8 28,14.41 28,13.28 C 28,12.14 25.94,8.73 25.53,7.5 C 25.36,7 24.95,6.18 24.53,5.37 C 23.67,5.88 23.24,7.44 24,9.56 C 25.22,12.98 24.97,13.3 25.46,15.99 C 25.94,18.68 26.66,18.77 26.83,21.14 C 26.91,22.27 26.62,22.54 26.3,22.29 C 26.55,23.24 27.14,25.45 27.14,26.38 C 27.14,27.51 26.14,29.88 26.24,30.81 C 26.32,31.53 26.25,33.06 26.18,33.21 C 26.17,33.18 26.14,33.13 26.12,33 C 26.02,31.97 24.27,28.35 24.06,26.69 C 23.86,25.04 24.39,23.07 24.18,21.73 C 23.98,20.39 23.44,17.29 23.34,16.36 C 23.24,15.44 21.27,17.08 21.06,15.65 C 20.86,14.21 22.21,13.19 22.21,13.19 C 22.21,13.19 21.6,9.79 21.5,8.76 C 21.39,7.71 20.25,7 20.15,5.96 C 20.1,5.44 20.26,4.5 20.4,3.56 C 20.29,3.54 20.19,3.52 20.09,3.53 z" id="p2842-1" style="fill:#9f4e2c;fill-opacity:0.27;stroke:none;display:inline"/>
<path d="M 18.85,4.73 C 19.47,4.07 20.13,3.89 20.9,4.07 C 21.67,4.25 21.41,5.02 21.34,5.31 C 21.28,5.62 20.62,5.73 20.14,5.84 C 19.66,5.95 19.04,6.06 19,5.87 C 18.96,5.69 18.67,4.95 18.85,4.73 z" id="p3938" style="fill:#fcbfa4;fill-opacity:0.33;fill-rule:nonzero;stroke:none;marker:none;visibility:visible;display:inline;overflow:visible;enable-background:accumulate"/>
<path d="M 14.19,9.47 C 13.86,8.66 13.64,8.44 13.9,7.96 C 14.16,7.49 15.19,6.79 15.99,7.3 C 16.79,7.81 16.57,8.8 16.57,8.98 C 16.57,9.16 15,9.67 14.19,9.45 L 14.19,9.47 z" id="p3935" style="fill:#fcbfa4;fill-opacity:0.33;fill-rule:nonzero;stroke:none;marker:none;visibility:visible;display:inline;overflow:visible;enable-background:accumulate"/>
<path d="M 5.92,18.54 C 5.77,19.01 6.15,19.54 6.35,19.77 C 6.55,20 6.68,19.59 7.1,19.39 C 7.53,19.19 8.11,19.12 7.99,18.85 C 7.86,18.57 7.86,18.12 7.51,17.86 C 7.15,17.6 6.77,17.72 6.43,17.92 C 6.1,18.12 5.97,18.3 5.93,18.53 L 5.92,18.54 z" id="p3906" style="fill:#fcbfa4;fill-opacity:0.33;stroke:none;display:inline"/>
<path d="M 6.5,19.86 C 6.95,19.41 7.6,19.12 7.96,19.03" id="p3909" style="fill:none;stroke:#965528;stroke-width:0.30;stroke-linecap:round;stroke-linejoin:miter;stroke-miterlimit:4;stroke-dasharray:none;stroke-opacity:0.91"/>
<path d="M 26.65,31.46 C 23.86,31.52 20.45,33.69 19.56,34.25 C 18.74,34.75 17.39,33.88 15.03,33 C 15.03,33.01 15.03,33.04 15.03,33.06 C 15.22,33.66 15.39,34.3 15.56,34.96 C 15.6,35.14 15.66,35.31 15.71,35.49 C 15.75,35.63 15.79,35.78 15.83,35.92 C 15.85,36 15.89,36.08 15.92,36.17 C 15.99,36.38 16.05,36.6 16.13,36.79 C 16.78,38.34 17.68,39.82 18.66,41.29 C 19.63,42.75 19.98,43.72 20.72,44.54 C 20.81,44.64 20.88,44.75 20.97,44.88 C 21.05,45.01 21.14,45.13 21.22,45.28 C 21.31,45.46 21.41,45.65 21.5,45.84 C 21.54,45.94 21.58,46.05 21.62,46.15 C 21.64,46.21 21.65,46.27 21.68,46.33 C 21.76,46.53 21.83,46.76 21.89,46.92 C 21.9,46.95 21.94,47.01 21.95,47.04 C 21.96,47.09 21.99,47.16 22.04,47.22 C 22.21,47.43 22.59,47.68 23.07,47.93 L 31.66,47.93 C 34.24,45.88 30.44,42.9 29.37,42.96 C 28.11,43.04 26.88,42.89 27.28,42.5 C 27.67,42.11 30.81,40.45 30.18,39.82 C 29.56,39.2 29.15,37.65 29.15,35.29 C 29.15,32.94 30.71,32.28 27.81,31.58 C 27.45,31.5 27.06,31.48 26.66,31.49 L 26.65,31.46 z" id="p3717" style="fill:#4d2311;fill-opacity:0.22;stroke:none;display:inline"/>
<path d="M 24.75,32.59 C 24.68,33.29 24.6,34.08 24.9,35.1 C 25.21,36.12 25.52,37.14 24.83,37.61 C 24.13,38.08 23.73,38.47 23.81,39.02 C 23.88,39.57 25.93,40.98 25.61,41.69 C 25.3,42.39 23.1,44.44 24.28,43.73 C 25.45,43.03 30.95,40.83 30.01,39.33 C 29.07,37.84 28.91,36.66 29.31,35.8 C 29.7,34.94 29,32.35 28.92,31.48 C 28.85,30.62 29.07,29.05 28.45,29.05 C 27.83,29.05 26.88,28.98 26.73,28.35 C 26.58,27.73 26.03,30.47 26.11,31.17 C 26.18,31.87 27.28,33.68 26.97,33.92 C 26.66,34.15 25.32,32.98 25.25,32.27 C 25.18,31.57 24.63,31.88 24.78,32.58 L 24.75,32.59 z" id="p3720" style="fill:#ae6b34;fill-opacity:0.5;stroke:none;display:inline"/>
<path d="M 6.03,17.65 C 5.5,18.11 5.26,18.9 5.72,19.83 C 6.93,22.28 10.58,26.94 11.43,27.89 C 12.03,28.56 13.46,30.43 14.36,31.57 C 15.25,32.71 15.48,35.23 16.14,36.78 C 16.79,38.33 17.69,39.81 18.67,41.28 C 19.64,42.74 19.99,43.71 20.73,44.53 C 21.46,45.34 21.94,47.14 22.1,47.31 C 22.18,47.39 22.2,47.62 22.19,47.96 L 26.5,48 C 26.12,47.1 25.82,46.14 26.22,45.94 C 27,45.55 29.83,44.98 30.12,44.98 C 30.41,44.98 30.79,43.13 29.62,43.33 C 28.45,43.52 27.28,44.21 25.12,44.7 C 22.97,45.18 25.62,44 27.77,42.05 C 29.92,40.1 25.42,43.7 23.46,43.01 C 21.51,42.33 20.74,38.53 19.46,36.76 C 18.19,35 19.37,35.12 18.68,34.14 C 18,33.17 16.05,31.69 14.78,30.52 C 13.51,29.35 13.8,28.37 13.41,27.68 C 13.02,27 12.81,26.6 12.32,27.18 C 11.82,27.74 10.27,25.29 9.68,24.12 C 9.1,22.95 8.12,21.7 7.34,20.53 C 6.74,19.63 6.4,18.93 6.03,17.65 z" id="p3730" style="fill:#733e26;fill-opacity:0.54;stroke:none;display:inline"/>
<path d="M 12.62,29.34 C 13.22,30.1 13.86,30.94 14.37,31.59 C 15.26,32.73 15.49,35.25 16.15,36.8 C 16.8,38.35 17.7,39.83 18.68,41.3 C 19.65,42.76 20,43.73 20.74,44.55 C 21.47,45.36 21.95,47.16 22.11,47.33 C 22.19,47.41 22.21,47.64 22.2,47.98 L 23.79,47.98 C 23.4,47.42 23.14,46.87 23.42,46.55 C 24.14,45.73 27.25,45.41 27.67,45.3 C 28.08,45.2 28.27,44.38 26.83,44.59 C 25.39,44.79 22.4,45.72 23.74,44.59 C 25.08,43.46 23.54,43.55 22.71,43.66 C 21.89,43.76 21.68,41.91 21.37,40.57 C 21.07,39.23 18.58,36.97 18.06,36.04 C 17.55,35.12 18.59,34.78 18.59,34.26 C 18.59,33.75 15.92,32.12 15.09,30.98 C 14.53,30.21 13.82,29.94 12.63,29.36 L 12.62,29.34 z" id="p2832" style="fill:#581902;fill-opacity:0.37;stroke:none;display:inline"/>
<path d="M 19.78,3.56 C 19.05,3.72 18.47,4.38 18.44,5.15 C 18.38,6.7 19.03,9.39 19.44,10.61 C 19.84,11.83 19.76,15.06 20,15.98 C 20.36,17.35 21.46,21.84 21.65,22.82 C 22.23,24.11 23.15,26.25 23.15,27.22 C 23.15,28.53 23.74,29.93 24.18,30.81 C 24.61,31.68 24.82,34.31 25.11,35.77 C 25.4,37.23 24.98,37.93 24.61,37.64 C 24.25,37.35 21.23,30.49 20.43,29.18 C 19.63,27.87 18.77,22.7 17.75,21.53 C 16.73,20.37 16.38,18.69 16.6,17.82 C 16.81,16.95 16.65,15.97 16.07,15.61 C 15.49,15.25 15,12.57 14.7,10.96 C 14.14,7.89 14.76,7.85 16.32,7.06 C 15.2,6.16 13.3,7.11 13.36,8.59 C 13.41,9.98 13.61,11.12 14.26,12.59 C 14.91,14.05 15.18,17.86 15.76,19.9 C 16.33,21.94 17.64,25.71 17.88,26.36 C 18.12,27.01 17.98,27.44 17.26,28.01 C 16.96,28.24 16.65,28.03 16.26,27.58 C 18.05,30.39 19.78,29.8 20.1,30.83 C 20.46,31.99 22.21,35.55 22.94,37.23 C 23.67,38.91 24.31,40.38 25.4,41.48 C 26.49,42.57 24.7,42.63 23.53,44.38 C 22.36,46.15 26.15,43.09 27.46,42 C 28.78,40.9 31.12,40.48 30.68,39.96 C 30.24,39.45 29.13,38.28 29.06,37.62 C 28.98,36.96 28.35,35.64 28.28,36.81 C 28.2,37.98 28.35,39.01 27.84,38.5 C 27.33,37.98 25.7,33.52 25.56,32.93 C 25.41,32.35 24.55,29.45 23.96,27.62 C 23.38,25.79 23.82,23.89 23.09,22.43 C 22.36,20.97 21.55,17.91 21.18,16.75 C 20.82,15.58 20.88,14.17 20.81,12.71 C 20.73,11.25 20.58,9.79 20.21,9.28 C 19.85,8.76 19.94,5.55 20.09,4.53 C 20.14,4.19 20.03,3.86 19.87,3.56 C 19.84,3.56 19.81,3.56 19.78,3.56 z" id="p3756" style="fill:#682d1f;fill-opacity:0.15;stroke:none;display:inline"/>
<path d="M 16.09,21.03 C 16.72,23.1 17.66,25.82 17.87,26.37 C 17.89,26.43 17.88,26.49 17.9,26.55 C 18.12,26.78 18.31,27.12 18.46,27.58 C 19.07,29.51 19.61,30.72 21.46,33.98 C 23.3,37.23 22.86,36.88 22.86,38.82 C 22.86,40.75 23.64,39.95 23.73,38.73 C 23.81,37.5 23.81,36.1 22.77,34.52 C 21.72,32.94 19.45,27.23 18.84,25.56 C 18.38,24.3 17.36,22.39 16.09,21.03 z" id="p3656" style="fill:#581902;fill-opacity:0.26;fill-rule:nonzero;stroke:none;marker:none;visibility:visible;display:inline;overflow:visible;enable-background:accumulate"/>
<path d="M 19.93,15.59 C 19.95,15.72 19.97,15.91 20,16 C 20.36,17.37 21.46,21.86 21.65,22.84 C 21.71,23.19 21.73,23.43 21.71,23.59 C 21.93,24.19 22.16,24.8 22.42,25.27 C 23.21,26.67 23.12,27.31 22.95,28.02 C 22.78,28.72 23.99,30.46 24.26,31.61 C 24.52,32.75 25.07,33.38 25.16,31.89 C 25.24,30.4 24.36,29.14 23.91,28.18 C 23.47,27.22 23.73,25.74 23.29,24.68 C 22.85,23.63 22.07,20.26 21.54,18.59 C 21.16,17.39 20.46,16.38 19.92,15.59 L 19.93,15.59 z" id="p3659" style="fill:#581902;fill-opacity:0.15;fill-rule:nonzero;stroke:none;marker:none;visibility:visible;display:inline;overflow:visible;enable-background:accumulate"/>
<path d="M 25.37,15.4 C 25.4,15.6 25.41,15.75 25.46,15.99 C 25.94,18.68 26.66,18.77 26.83,21.14 C 26.94,22.68 26.37,22.62 25.96,21.82 C 26.06,22.46 26.34,24.04 26.92,24.91 C 27.62,25.96 26.47,22.89 27.17,23.95 C 27.87,25 27.98,25.88 28.95,25.35 C 29.91,24.83 27.46,21.23 27.55,19.82 C 27.62,18.7 26.87,18.84 25.37,15.39 L 25.37,15.4 z" id="p3662" style="fill:#581902;fill-opacity:0.33;fill-rule:nonzero;stroke:none;marker:none;visibility:visible;display:inline;overflow:visible;enable-background:accumulate"/>
<path d="M 13.5,24.34 C 13.89,25.64 14.35,27.08 14.75,27.96 C 15.31,29.22 15.77,31.49 16.78,32.24 C 17.78,32.98 19.7,33.74 20.4,34.49 C 21.09,35.23 22.42,37.61 22.33,35.86 C 22.25,34.12 20.77,32.83 20.46,32.18 C 20.16,31.53 19.64,29 18.37,29.21 C 17.25,29.41 16.32,28.89 16.06,27.31 C 15.54,26.64 14.84,25.65 13.78,24.65 C 13.68,24.56 13.59,24.44 13.5,24.34 L 13.5,24.34 z" id="p3746" style="fill:#b76d31;fill-opacity:0.2;stroke:none;display:inline"/>
<path d="M 15.5,34.71 C 15.68,35.46 15.9,36.2 16.15,36.8 C 16.8,38.35 17.7,39.83 18.68,41.3 C 19.65,42.76 20,43.73 20.74,44.55 C 22.3,42.41 18.14,37.89 17.21,36.65 C 16.74,36.01 16.21,35.41 15.5,34.71 L 15.5,34.71 z" id="p3749" style="fill:#855e3e;fill-opacity:0.18;stroke:none;display:inline"/>
<path d="M 24.36,38.56 C 24.02,39.17 23.67,39.78 24.15,40.21 C 24.63,40.64 27.03,42.26 27.81,41.82 C 28.59,41.39 29.25,40.43 29.55,39.51 C 29.85,38.6 29.16,37.59 28.99,37.59 C 28.82,37.59 28.08,38.15 28.08,38.41 C 28.08,38.67 29.25,39.23 28.69,39.85 C 28.13,40.46 26.08,41.37 25.29,39.77 C 24.51,38.16 24.33,38.55 24.38,38.55 L 24.36,38.56 z" id="p3752" style="fill:#581902;fill-opacity:0.18;fill-rule:nonzero;stroke:none;marker:none;visibility:visible;display:inline;overflow:visible;enable-background:accumulate"/>
<path d="M 22.43,46.08 C 23.79,45.08 25.43,44.44 26.35,43.8 C 27.26,43.17 27.62,42.16 29.26,41.71" id="p3859" style="fill:none;stroke:#b8612c;stroke-width:0.80;stroke-linecap:round;stroke-linejoin:miter;stroke-miterlimit:4;stroke-dasharray:none;stroke-opacity:0.37;display:inline"/>
<path d="M 19.15,39.79 C 19.69,40.79 20.24,41.7 20.24,42.43" id="p3862" style="fill:none;stroke:#ea9f5c;stroke-width:1px;stroke-linecap:round;stroke-linejoin:miter;stroke-opacity:0.18;display:inline"/>
<path d="M 23.53,37.6 C 22.99,39.78 22.44,41.33 21.98,42.16 C 21.53,42.98 21.16,43.89 21.16,44.62" id="p3865" style="fill:none;stroke:#7f3b17;stroke-width:0.69;stroke-linecap:round;stroke-linejoin:miter;stroke-miterlimit:4;stroke-dasharray:none;stroke-opacity:0.7;display:inline"/>
<path d="M 24.99,40.33 C 23.63,41.97 21.8,44.25 21.53,45.62" id="p3868" style="fill:none;stroke:#9b5521;stroke-width:0.60;stroke-linecap:round;stroke-linejoin:miter;stroke-miterlimit:4;stroke-dasharray:none;stroke-opacity:0.41;display:inline"/>
<path d="M 21.67,23.89 C 21.8,24.57 21.62,24.84 21.62,24.84" id="p3871" style="fill:none;stroke:#511d0b;stroke-width:0.60;stroke-linecap:round;stroke-linejoin:miter;stroke-miterlimit:4;stroke-dasharray:none;stroke-opacity:0.81;display:inline"/>
<path d="M 22.07,24.83 C 22.98,26.65 22.7,26.74 22.7,28.11 C 22.7,29.47 23.79,31.48 23.79,31.48" id="p3874" style="fill:none;stroke:#ecbe7f;stroke-width:0.69;stroke-linecap:round;stroke-linejoin:miter;stroke-miterlimit:4;stroke-dasharray:none;stroke-opacity:0.26;display:inline"/>
<path d="M 21.49,28.89 C 21.62,30.57 23.6,34.27 24.04,35.18 C 24.47,36.08 24.67,37.19 24.67,37.19" id="p3879" style="fill:none;stroke:#efa35e;stroke-width:1.38;stroke-linecap:round;stroke-linejoin:miter;stroke-miterlimit:4;stroke-dasharray:none;stroke-opacity:0.25;display:inline"/>
<path d="M 19.96,31.62 C 20.51,33.15 22.15,36.47 22.15,36.47" id="p3882" style="fill:none;stroke:#efa35e;stroke-width:1.38;stroke-linecap:round;stroke-linejoin:miter;marker:none;stroke-miterlimit:4;stroke-dasharray:none;stroke-dashoffset:0;stroke-opacity:0.25;visibility:visible;display:inline;overflow:visible;enable-background:accumulate"/>
<path d="M 25.07,28.23 C 25.64,29.46 26.13,30.04 26.04,30.97 C 25.96,31.89 26,32.69 26.65,33.84" id="p3911" style="fill:none;stroke:#efa35e;stroke-width:1;stroke-linecap:round;stroke-linejoin:miter;marker:none;stroke-miterlimit:4;stroke-dasharray:none;stroke-dashoffset:0;stroke-opacity:0.31;visibility:visible;display:inline;overflow:visible;enable-background:accumulate"/>
<path d="M 15.2,7.79 L 15.32,8.53" id="p3965" style="fill:none;stroke:#f39d94;stroke-width:1.27;stroke-linecap:round;stroke-linejoin:miter;stroke-miterlimit:4;stroke-dasharray:none;stroke-opacity:0.31;display:inline"/>
<path d="M 15.88,8.21 C 15.97,8.63 15.97,8.98 16.07,9.31 C 16.16,9.63 16.45,10.02 16.55,10.57" id="p3968" style="fill:none;stroke:#fae9dc;stroke-width:0.5;stroke-linecap:round;stroke-linejoin:miter;stroke-miterlimit:4;stroke-dasharray:none;stroke-opacity:0.27"/>
<path d="M 15.17,10.74 C 15.46,10.63 16.17,10.57 16.17,10.57" id="p3970" style="fill:none;stroke:#e6a869;stroke-width:1.70;stroke-linecap:round;stroke-linejoin:miter;stroke-miterlimit:4;stroke-dasharray:none;stroke-opacity:0.18;display:inline"/>
<path d="M 17.12,13.24 C 17.21,14.33 18.08,17.41 18.08,17.41" id="p3973" style="fill:none;stroke:#f7c08b;stroke-width:0.69;stroke-linecap:round;stroke-linejoin:miter;stroke-miterlimit:4;stroke-dasharray:none;stroke-opacity:0.27;display:inline"/>
<path d="M 14.26,9.51 C 15.12,9.56 15.99,9.44 16.45,9.16" id="p3992" style="fill:none;stroke:#965528;stroke-width:0.30;stroke-linecap:round;stroke-linejoin:miter;marker:none;stroke-miterlimit:4;stroke-dasharray:none;stroke-dashoffset:0;stroke-opacity:0.91;visibility:visible;display:inline;overflow:visible;enable-background:accumulate"/>
<path d="M 19.99,4.95 L 20.02,5.08" id="p2877" style="fill:none;stroke:#f39d94;stroke-width:1.5;stroke-linecap:round;stroke-linejoin:miter;marker:none;stroke-miterlimit:4;stroke-dasharray:none;stroke-dashoffset:0;stroke-opacity:0.43;visibility:visible;display:inline;overflow:visible;enable-background:accumulate"/>
<path d="M 20.8,5.43 L 20.7,4.88" id="p3685" style="fill:none;stroke:#fae9dc;stroke-width:0.5;stroke-linecap:round;stroke-linejoin:miter;marker:none;stroke-miterlimit:4;stroke-dasharray:none;stroke-dashoffset:0;stroke-opacity:0.27;visibility:visible;display:inline;overflow:visible;enable-background:accumulate"/>
<path d="M 19.12,5.96 C 19.98,6.01 20.84,5.79 21.29,5.51" id="p3992-9" style="fill:none;stroke:#8b4e25;stroke-width:0.30;stroke-linecap:round;stroke-linejoin:miter;marker:none;stroke-miterlimit:4;stroke-dasharray:none;stroke-dashoffset:0;stroke-opacity:0.81;visibility:visible;display:inline;overflow:visible;enable-background:accumulate"/>
<path d="M 17.46,18.45 C 17.26,19.16 17.46,19.71 17.73,20.01" id="p3718" style="fill:none;stroke:#f7c08b;stroke-width:0.30;stroke-linecap:round;stroke-linejoin:miter;marker:none;stroke-miterlimit:4;stroke-dasharray:none;stroke-dashoffset:0;stroke-opacity:0.18;visibility:visible;display:inline;overflow:visible;enable-background:accumulate"/>
<path d="M 20.43,7.23 L 21.66,7.06" id="p3721" style="fill:none;stroke:#e6a869;stroke-width:1.70;stroke-linecap:round;stroke-linejoin:miter;marker:none;stroke-miterlimit:4;stroke-dasharray:none;stroke-dashoffset:0;stroke-opacity:0.18;visibility:visible;display:inline;overflow:visible;enable-background:accumulate"/>
<path d="M 22.03,9.92 C 22.09,10.87 22.54,12.68 22.95,13.33" id="p3723" style="fill:none;stroke:#f7c08b;stroke-width:0.69;stroke-linecap:round;stroke-linejoin:miter;marker:none;stroke-miterlimit:4;stroke-dasharray:none;stroke-dashoffset:0;stroke-opacity:0.2;visibility:visible;display:inline;overflow:visible;enable-background:accumulate"/>
<path d="M 21.08,16.61 C 22.23,17.15 22.88,17.15 23.91,16.38" id="p3727" style="fill:none;stroke:#f7c08b;stroke-width:0.30;stroke-linecap:round;stroke-linejoin:miter;marker:none;stroke-miterlimit:4;stroke-dasharray:none;stroke-dashoffset:0;stroke-opacity:0.16;visibility:visible;display:inline;overflow:visible;enable-background:accumulate"/>
<path d="M 25.27,33.72 L 25.94,36.9" id="p3788" style="fill:none;stroke:#6a2805;stroke-width:1.20;stroke-linecap:round;stroke-linejoin:miter;stroke-miterlimit:4;stroke-dasharray:none;stroke-opacity:0.37;display:inline"/>
<path d="M 25.25,6.71 L 25.13,6.17" id="p3804" style="fill:none;stroke:#f39d94;stroke-width:1.27;stroke-linecap:round;stroke-linejoin:miter;marker:none;stroke-miterlimit:4;stroke-dasharray:none;stroke-dashoffset:0;stroke-opacity:0.31;visibility:visible;display:inline;overflow:visible;enable-background:accumulate"/>
<path d="M 24.2,7.42 C 25.06,7.47 26.26,7.18 26.51,6.61" id="p3992-91" style="fill:none;stroke:#a46235;stroke-width:0.30;stroke-linecap:round;stroke-linejoin:miter;marker:none;stroke-miterlimit:4;stroke-dasharray:none;stroke-dashoffset:0;stroke-opacity:0.87;visibility:visible;display:inline;overflow:visible;enable-background:accumulate"/>
<path d="M 25.39,8.54 L 26.61,8.28" id="p3721-1" style="fill:none;stroke:#e6a869;stroke-width:1.70;stroke-linecap:round;stroke-linejoin:miter;marker:none;stroke-miterlimit:4;stroke-dasharray:none;stroke-dashoffset:0;stroke-opacity:0.18;visibility:visible;display:inline;overflow:visible;enable-background:accumulate"/>
<path d="M 21.4,15.19 C 21.32,15.56 21.48,16.1 21.6,16.26" id="p3872" style="fill:none;stroke:#f7c08b;stroke-width:0.5;stroke-linecap:round;stroke-linejoin:miter;marker:none;stroke-miterlimit:4;stroke-dasharray:none;stroke-dashoffset:0;stroke-opacity:0.15;visibility:visible;display:inline;overflow:visible;enable-background:accumulate"/>
<path d="M 21.89,15.37 C 22.05,15.9 22.17,16.65 22.17,17.27" id="p3895" style="fill:none;stroke:#753118;stroke-width:0.40;stroke-linecap:round;stroke-linejoin:miter;stroke-miterlimit:4;stroke-dasharray:none;stroke-opacity:0.27"/>
<path d="M 20.45,14.99 C 20.53,15.94 20.82,16.81 21.11,17.35" id="p3897" style="fill:none;stroke:#893d0f;stroke-width:0.69;stroke-linecap:round;stroke-linejoin:miter;stroke-miterlimit:4;stroke-dasharray:none;stroke-opacity:0.66"/>
<path d="M 16.36,19.25 C 16.44,20.2 16.6,20.73 17.31,21.69" id="p3897-1" style="fill:none;stroke:#893d0f;stroke-width:1.10;stroke-linecap:round;stroke-linejoin:miter;stroke-miterlimit:4;stroke-dasharray:none;stroke-opacity:0.66;display:inline"/>
<path d="M 15.92,19.33 C 16.34,20.39 16.68,20.85 17.44,21.19" id="p3921" style="fill:none;stroke:#d3a58e;stroke-width:0.40;stroke-linecap:round;stroke-linejoin:miter;stroke-miterlimit:4;stroke-dasharray:none;stroke-opacity:0.37;display:inline"/>
<path d="M 23.26,17.95 C 23.26,17.95 23.97,21.93 24.45,23.52" id="p3924" style="fill:none;stroke:#d69455;stroke-width:1.77;stroke-linecap:round;stroke-linejoin:miter;stroke-miterlimit:4;stroke-dasharray:none;stroke-opacity:0.26"/>
<path d="M 26,14.4 C 25.91,15.46 26,15.99 26.7,16.95" id="p3897-1-0" style="fill:none;stroke:#893d0f;stroke-width:1.10;stroke-linecap:round;stroke-linejoin:miter;stroke-miterlimit:4;stroke-dasharray:none;stroke-opacity:0.66;display:inline"/>
<path d="M 26.86,14.33 C 26.78,14.7 26.73,15.31 26.86,15.47" id="p3872-7" style="fill:none;stroke:#f7c08b;stroke-width:0.5;stroke-linecap:round;stroke-linejoin:miter;marker:none;stroke-miterlimit:4;stroke-dasharray:none;stroke-dashoffset:0;stroke-opacity:0.25;visibility:visible;display:inline;overflow:visible;enable-background:accumulate"/>
<path d="M 26.95,7.4 C 27.2,8.26 28.28,11.73 28.5,12.19 C 28.71,12.65 29.33,13.85 29.51,15.04" id="p3994" style="fill:none;stroke:#e9bf9b;stroke-width:1px;stroke-linecap:round;stroke-linejoin:miter;stroke-opacity:0.31;display:inline"/>
<path d="M 27.84,28.43 C 27.36,28.43 26.89,28.53 26.69,28.83 C 25.99,30.16 26.18,32.12 26.54,32.83 C 26.89,33.53 27.77,32.46 28.66,33.08 C 29.54,33.7 31.12,33.54 31.12,34.51 C 31.12,35.48 32.17,39.03 31.03,40.01 C 30.03,40.86 23.66,43.34 21.72,46.38 C 21.9,46.85 22.05,47.24 22.12,47.31 C 22.2,47.39 22.22,47.62 22.21,47.96 L 32.66,47.96 C 32.94,46.92 33.44,46.08 33.82,45.83 C 34.48,45.39 35.53,45.9 37.29,45.1 C 37.31,44.99 37.32,44.91 37.35,44.79 C 37.86,42.51 38.58,42.6 39.06,41.14 C 39.72,39.13 39.7,38.11 40.02,36.86 C 40.48,35.05 40.83,31.38 41.05,30.52 C 41.06,30.47 41.09,30.39 41.11,30.34 C 38.03,33.52 35.83,35.07 35.52,33.37 C 35.17,31.42 36.38,30.67 33.49,29.37 C 32.65,29 33.93,31.68 33.49,33.37 C 33.14,33.63 31.08,31.49 29.31,31.31 C 28.96,31.23 29.05,29.21 29.31,28.94 C 29.47,28.78 28.62,28.46 27.81,28.44 L 27.84,28.43 z" id="p3997" style="fill:#cf7a36;fill-opacity:0.4;stroke:none;display:inline"/>
<path d="M 39.35,29.56 C 39.68,31.58 39.72,34.57 39.23,36.73" id="p3823" style="fill:none;stroke:#e5b67a;stroke-width:1.60;stroke-linecap:round;stroke-linejoin:miter;stroke-miterlimit:4;stroke-dasharray:none;stroke-opacity:0.31"/>
<path d="M 18.9,37.06 C 18.05,37.14 17.31,37.66 16.94,38.43 C 17.46,39.4 18.05,40.35 18.69,41.3 C 19.21,42.08 19.55,42.71 19.87,43.26 C 21.29,44.51 22.32,45.82 22.71,47.97 L 27.67,47.97 C 27,42.57 23.3,39.7 20.75,37.62 C 20.23,37.19 19.57,36.98 18.91,37.06 L 18.9,37.06 z" id="p4049" style="fill:#673310;fill-opacity:0.31;stroke:none;marker:none;visibility:visible;display:inline;overflow:visible;enable-background:accumulate;"/>
<path d="M 28.92,24.84 C 29.11,25.92 29.5,27.17 29.58,28.42" id="p4025" style="fill:none;stroke:#8b430e;stroke-width:1.20;stroke-linecap:round;stroke-linejoin:miter;marker:none;stroke-miterlimit:4;stroke-dasharray:none;stroke-dashoffset:0;stroke-opacity:0.57;visibility:visible;display:inline;overflow:visible;enable-background:accumulate"/>
<path d="M 22.3,47.08 C 22.52,46.21 23.74,45.45 26.05,45 C 28.36,44.55 30.63,44.47 31.05,44.47" id="p2920" style="fill:none;stroke:#51280a;stroke-width:0.80;stroke-linecap:round;stroke-linejoin:miter;stroke-miterlimit:4;stroke-dasharray:none;stroke-opacity:0.27;display:inline"/>
<path d="M 27.6,43.7 C 29.64,42.7 32.76,40.53 36.33,43.3" id="p3695" style="fill:none;stroke:#f0b063;stroke-width:2.40;stroke-linecap:round;stroke-linejoin:miter;stroke-miterlimit:4;stroke-dasharray:none;stroke-opacity:0.22"/>
<path d="M 30.07,34.89 C 30,36.06 29.56,36.73 29.78,37.5 C 30,38.27 30.73,38.42 30.81,39.22" id="p3697" style="fill:none;stroke:#efa35e;stroke-width:1;stroke-linecap:round;stroke-linejoin:miter;marker:none;stroke-miterlimit:4;stroke-dasharray:none;stroke-dashoffset:0;stroke-opacity:0.31;visibility:visible;display:inline;overflow:visible;enable-background:accumulate"/>
<path d="M 27.2,32.43 C 30.18,32.14 35.07,34.38 36.4,41.81" id="p3722" style="fill:none;stroke:#7f421a;stroke-width:2.20;stroke-linecap:round;stroke-linejoin:miter;stroke-miterlimit:4;stroke-dasharray:none;stroke-opacity:0.22;display:inline"/>
<path d="M 38.42,35.66 C 37.62,37.86 37.65,39.3 35.55,41.54" id="p3728" style="fill:none;stroke:#5c2a06;stroke-width:1.77;stroke-linecap:round;stroke-linejoin:miter;stroke-miterlimit:4;stroke-dasharray:none;stroke-opacity:0.13;display:inline"/>
<path d="M 36.84,37.1 C 36.33,38.86 35.56,40.48 33.9,41.99" id="p3725" style="fill:none;stroke:#cc8948;stroke-width:1.38;stroke-linecap:round;stroke-linejoin:miter;stroke-miterlimit:4;stroke-dasharray:none;stroke-opacity:0.56;display:inline"/>
<path d="M 42.31,17.9 C 41.94,17.98 41.51,18.14 41.06,18.43 C 39.23,19.57 38.6,22.11 38.6,23.83 C 37.15,25.74 37.03,28.23 36.35,28.76 C 36.91,29.15 37.19,29.19 37.22,29.07 C 37.26,28.89 38.13,28.13 38.81,27.95 C 39.48,27.77 39.81,25.14 39.81,24.64 C 39.81,24.15 38.97,23.54 40.4,20.61 C 40.95,19.48 41.65,18.59 42.3,17.9 L 42.31,17.9 z" id="p3731" style="fill:#883d23;fill-opacity:0.47;stroke:none;display:inline"/>
<path d="M 38.65,25.49 C 38.29,26.16 38.25,26.52 38.2,26.79" id="p3734" style="fill:none;stroke:#d7a362;stroke-width:1px;stroke-linecap:round;stroke-linejoin:miter;stroke-opacity:0.27;display:inline"/>
<path d="M 36.04,28.97 C 36.53,29.55 37.07,30.35 37.65,30.84" id="p3737" style="fill:none;stroke:#ae6e51;stroke-width:0.69;stroke-linecap:round;stroke-linejoin:miter;stroke-miterlimit:4;stroke-dasharray:none;stroke-opacity:0.43;display:inline"/>
<path d="M 43.03,17.81 C 42.59,18.08 42.38,18.47 42.32,18.77 C 42.23,19.22 42.09,19.78 42.44,20.14 C 42.66,20.36 43.1,20.47 43.47,20.73 C 43.76,19.61 44.03,18.6 43.9,18.02 C 43.85,17.95 43.54,17.81 43.06,17.81 C 43.06,17.81 43.04,17.81 43.03,17.81 L 43.03,17.81 z" id="p3740" style="fill:#d47857;fill-opacity:0.5;stroke:none;display:inline"/>
<path d="M 40.81,26.66 C 40.41,28.01 39.55,29.67 39.55,29.67" id="p3743" style="fill:none;stroke:#dda763;stroke-width:1.70;stroke-linecap:round;stroke-linejoin:miter;stroke-miterlimit:4;stroke-dasharray:none;stroke-opacity:0.31;display:inline"/>
<path d="M 39.87,30.04 C 39.6,30.58 39.15,31.43 38.7,31.75" id="p3747" style="fill:none;stroke:#e0ae84;stroke-width:0.80;stroke-linecap:round;stroke-linejoin:miter;stroke-miterlimit:4;stroke-dasharray:none;stroke-opacity:0.47;display:inline"/>
<path d="M 28,16.87 C 28.26,18.29 29.31,21.8 29.31,21.8" id="p3783" style="fill:none;stroke:#c06326;stroke-width:2;stroke-linecap:round;stroke-linejoin:miter;stroke-miterlimit:4;stroke-dasharray:none;stroke-opacity:0.33;display:inline"/>
<path d="M 29.86,21.48 L 30.55,23.87" id="p3786" style="fill:none;stroke:#c17237;stroke-width:2.20;stroke-linecap:round;stroke-linejoin:miter;stroke-miterlimit:4;stroke-dasharray:none;stroke-opacity:0.36;display:inline"/>
<path d="M 32.38,31.14 C 32.78,32.16 34.21,33.89 35.13,34.51" id="p3789" style="fill:none;stroke:#9f6538;stroke-width:3.5;stroke-linecap:round;stroke-linejoin:miter;stroke-miterlimit:4;stroke-dasharray:none;stroke-opacity:0.43;display:inline"/>
<path d="M 41.1,19.63 C 40.12,21.07 39.77,22.64 39.72,23.27" id="p3792" style="fill:none;stroke:#ad5833;stroke-width:1.60;stroke-linecap:round;stroke-linejoin:miter;stroke-miterlimit:4;stroke-dasharray:none;stroke-opacity:0.47;display:inline"/>
<path d="M 42.68,18.01 C 41.18,20.17 42.86,20.66 43.49,20.86" id="p3992-91-5" style="fill:none;stroke:#a46235;stroke-width:0.30;stroke-linecap:round;stroke-linejoin:miter;marker:none;stroke-miterlimit:4;stroke-dasharray:none;stroke-dashoffset:0;stroke-opacity:0.87;visibility:visible;display:inline;overflow:visible;enable-background:accumulate"/>
<path d="M 42.9,18.31 C 42.9,18.31 42.64,19.13 42.49,19.65" id="p3817" style="fill:none;stroke:#f3bca3;stroke-width:1px;stroke-linecap:round;stroke-linejoin:miter;stroke-opacity:0.51"/>
<path d="M 43.01,20.51 C 43.24,20.68 43.56,21.06 43.56,21.06" id="p3819" style="fill:none;stroke:#ebcab5;stroke-width:0.30;stroke-linecap:round;stroke-linejoin:miter;stroke-miterlimit:4;stroke-dasharray:none;stroke-opacity:0.62"/>
<path d="M 41.75,21.03 C 41.55,22.23 41.83,23.57 42.27,24.07" id="p3821" style="fill:none;stroke:#e6aa75;stroke-width:1.27;stroke-linecap:round;stroke-linejoin:miter;stroke-miterlimit:4;stroke-dasharray:none;stroke-opacity:0.31"/>
<path d="M 24.97,46.95 C 25.61,46.84 28.4,46.78 28.4,46.78" id="p3850" style="fill:none;stroke:#6c330f;stroke-width:1.77;stroke-linecap:round;stroke-linejoin:miter;stroke-miterlimit:4;stroke-dasharray:none;stroke-opacity:0.47"/>
<path d="M 24.68,46.07 C 25.72,45.73 30.67,45.2 33.23,45.2" id="p3848" style="fill:none;stroke:#d29152;stroke-width:0.5;stroke-linecap:round;stroke-linejoin:miter;stroke-miterlimit:4;stroke-dasharray:none;stroke-opacity:0.25"/>
<path d="M 25.94,44.09 C 26.74,43.72 28.53,43.22 28.53,43.22" id="p3852" style="fill:none;stroke:#9f5c2a;stroke-width:1.60;stroke-linecap:round;stroke-linejoin:miter;stroke-miterlimit:4;stroke-dasharray:none;stroke-opacity:0.56"/>
<path d="M 25.09,44.13 C 26.07,43.62 27.24,42.96 28.34,42.74" id="p3856" style="fill:none;stroke:#66320d;stroke-width:0.69;stroke-linecap:round;stroke-linejoin:miter;stroke-miterlimit:4;stroke-dasharray:none;stroke-opacity:0.41"/>
<path d="M 33.38,33.52 C 33.64,35.02 33.83,38.4 32.8,40.98" id="p3854" style="fill:none;stroke:#d1874a;stroke-width:2.77;stroke-linecap:round;stroke-linejoin:miter;stroke-miterlimit:4;stroke-dasharray:none;stroke-opacity:0.33"/>
<path d="M 36.84,48 C 36.93,47.19 37.06,46.19 37.37,44.82 C 37.88,42.54 38.6,42.63 39.08,41.17 C 39.74,39.16 39.72,38.14 40.04,36.89 C 40.5,35.08 40.85,31.41 41.07,30.55 C 41.4,29.25 42.73,26.58 42.78,24.3 C 42.83,22.21 44.56,18.82 43.8,18.21 C 43.73,18.04 42.6,17.47 41.06,18.43 C 39.23,19.58 38.6,22.11 38.59,23.84 C 36.68,26.35 37.05,29.82 35.5,28.62 C 33.72,27.25 32.42,24.22 31.25,20.56 C 29.81,16.09 30.12,14.64 29.56,13.46 C 28.64,11.55 28.23,7.41 26.43,5.78 C 24.64,4.14 22.77,6.13 24,9.56 C 25.22,12.98 24.97,13.3 25.46,15.99 C 25.94,18.68 26.66,18.77 26.83,21.14 C 26.96,23.06 26.06,22.51 25.71,21.14 C 25.32,19.6 25.71,17.39 24,12.9 C 22.28,8.41 23.12,5.69 21.78,4.31 C 21.22,3.73 20.63,3.51 20.09,3.53 C 19.2,3.55 18.47,4.27 18.44,5.15 C 18.38,6.7 19.03,9.39 19.44,10.61 C 19.84,11.83 19.76,15.06 20,15.98 C 20.36,17.35 21.46,21.84 21.65,22.82 C 21.89,24.06 21.44,23.91 21.37,23.75 C 21.24,23.4 20.56,20.47 20.15,19.5 C 19.74,18.52 18.32,13.63 18,12.65 C 17.67,11.67 17.49,9.13 16.81,7.71 C 15.91,5.84 13.28,6.85 13.35,8.58 C 13.4,9.97 13.6,11.11 14.25,12.58 C 14.9,14.04 15.17,17.85 15.75,19.89 C 16.32,21.93 17.63,25.7 17.87,26.35 C 18.11,27 17.97,27.43 17.25,28 C 16.52,28.57 15.87,26.59 13.79,24.63 C 12.61,23.52 11.53,21.78 11.04,21.04 C 10.56,20.31 9.65,18.45 8.2,17.51 C 6.78,16.59 4.79,17.91 5.74,19.82 C 6.95,22.27 10.6,26.93 11.45,27.88 C 12.05,28.55 13.48,30.42 14.38,31.56 C 15.27,32.7 15.5,35.22 16.16,36.77 C 16.81,38.32 17.71,39.8 18.69,41.27 C 19.66,42.73 20.01,43.7 20.75,44.52 C 21.48,45.33 21.96,47.13 22.12,47.3 C 22.2,47.38 22.22,47.61 22.21,47.95" id="stroke01" style="fill:none;stroke:#301e05;stroke-width:0.5;stroke-linejoin:round;stroke-miterlimit:4;stroke-dasharray:none;stroke-opacity:1;display:inline"/>
</g>
</svg>
