<?xml version="1.0" encoding="UTF-8" standalone="no"?>
<!DOCTYPE svg PUBLIC "-//W3C//DTD SVG 1.0//EN" "http://www.w3.org/TR/2001/REC-SVG-20010904/DTD/svg10.dtd">
<svg xmlns:svg="http://www.w3.org/2000/svg" xmlns="http://www.w3.org/2000/svg" version="1.0" width="100%" height="100%" viewBox="0 0 48 48" id="_lefthand02" style="display:inline">
    <defs id="defs2818"/>
<g id="lefthand02">
<path d="M 32.26,3.37 C 33.59,3.37 34.72,4.87 33.95,6.68 C 33.33,8.13 32.19,12.36 31.67,14.53 C 31.15,16.7 29.40,22.07 28.89,23 C 28.37,23.92 28.79,24.44 29.20,24.65 C 30.34,23.93 33.00,23.93 33.51,25.28 C 37.44,25.28 36.20,28.98 35.17,30.53 C 35.79,34.35 34.88,34.37 34.98,35.4 C 35.08,36.43 34.66,37.89 34.04,38.71 C 33.42,39.54 33.43,40.88 32.61,42.84 C 32.11,44.02 31.40,45.76 29.86,48 L 13.23,48 C 13.56,47.62 13.91,47.21 14.20,46.87 C 16.68,43.98 16.16,43.97 16.57,39.21 C 16.99,34.46 17.51,26.61 17.51,24.65 C 17.51,22.69 15.96,18.04 15.86,16.5 C 15.75,14.95 15.25,8.84 15.36,5.43 C 15.46,2.02 19.47,4.52 19.57,7 C 19.68,9.47 20.72,14.72 21.14,15.65 C 21.55,16.58 22.06,18.97 22.89,21.96 C 23.40,21.96 24.04,21.86 24.45,21.96 C 24.76,20.52 26.51,15.14 27.23,13.9 C 27.95,12.66 28.46,8.76 30.01,5.25 C 30.59,3.93 31.47,3.37 32.26,3.37 z" id="p2562" style="fill:#ba6d35;fill-opacity:1;fill-rule:nonzero;stroke:none;marker:none;visibility:visible;display:inline;overflow:visible;enable-background:accumulate"/>
<path d="M 32.26,3.37 C 32.68,3.37 33.06,3.52 33.39,3.78 C 31.69,4.91 31.23,6.75 31.23,7.25 C 31.23,7.83 30.40,8.26 30.32,8.78 C 30.25,9.29 29.54,10.95 29.32,13 C 29.11,15.04 27.94,15.12 27.57,16 C 27.21,16.87 25.96,20.67 26.32,21.18 C 26.61,21.58 27.84,22.49 29.23,22.21 C 29.12,22.5 28.96,22.87 28.89,23 C 28.37,23.92 28.79,24.44 29.20,24.65 C 29.86,24.23 31.04,24.08 32.01,24.28 C 31.33,24.84 30.75,25.51 30.57,26.25 C 29.84,26.61 29.24,27.1 28.95,27.46 C 28.66,27.83 28.51,28.86 28.07,30.25 C 27.64,31.63 28.36,31.92 28.79,32.21 C 28.43,33.67 27.13,35 25.01,35 C 24.65,34.85 26.24,37.99 25.73,40.4 C 25.22,42.81 24.20,46.09 25.73,47.18 C 26.93,48.04 27.85,48.09 30.95,46.25 C 30.64,46.79 30.29,47.37 29.86,48 L 13.23,48 C 13.56,47.62 13.91,47.21 14.20,46.87 C 16.68,43.98 16.16,43.97 16.57,39.21 C 16.99,34.46 17.51,26.61 17.51,24.65 C 17.51,22.69 15.96,18.04 15.86,16.5 C 15.75,14.95 15.25,8.84 15.36,5.43 C 15.41,3.8 16.34,3.53 17.32,3.96 C 16.77,4.38 16.36,4.89 16.39,5.56 C 16.46,7.24 16.98,12.79 17.64,14.62 C 18.29,16.45 19.61,21.49 19.61,22.37 C 19.61,23.25 18.73,24.4 19.17,25.28 C 19.61,26.15 21.42,28.92 24.86,29.65 C 24.86,27.75 25.60,26 24.57,24.46 C 23.71,23.17 24.59,23.97 24.42,21.96 C 24.43,21.97 24.44,21.96 24.45,21.96 C 24.76,20.52 26.51,15.14 27.23,13.9 C 27.95,12.66 28.46,8.76 30.01,5.25 C 30.59,3.93 31.47,3.37 32.26,3.37 z" id="p2582" style="fill:#733e26;fill-opacity:0.54;fill-rule:nonzero;stroke:none;marker:none;visibility:visible;display:inline;overflow:visible;enable-background:accumulate"/>
<path d="M 21.01,15.34 C 21.05,15.45 21.11,15.58 21.14,15.65 C 21.55,16.57 22.05,18.93 22.86,21.87 C 22.15,22.32 21.47,21.61 20.82,20.84 C 19.79,19.6 19.67,16.18 20.29,16.18 C 20.58,16.18 20.84,15.84 21.01,15.34 z M 28.70,36.4 C 28.93,36.5 29.07,37 29.07,38.09 C 29.07,40.26 29.69,40.25 30.11,39.21 C 30.52,38.18 31.56,37.78 32.70,37.06 C 33.10,37.12 33.76,37.17 34.79,37.12 C 34.62,37.72 34.35,38.3 34.04,38.71 C 33.48,39.46 33.40,40.65 32.79,42.31 C 25.11,51.03 26.88,45.6 27.54,44.28 C 28.27,42.83 27.24,37.99 27.86,37.06 C 28.17,36.59 28.47,36.3 28.70,36.4 z" id="p2590" style="fill:#f0ad7f;fill-opacity:0.35;fill-rule:nonzero;stroke:none;marker:none;visibility:visible;display:inline;overflow:visible;enable-background:accumulate"/>
<path d="M 21.20,33.9 C 21.29,33.91 21.35,33.97 21.42,34.06 C 22.30,34.35 21.49,36.89 22.51,37.62 C 23.54,38.35 20.56,40.26 21.51,43.84 C 22.46,47.42 18.44,43.02 18.29,45 C 18.22,45.99 18.90,47.08 19.64,48 L 13.23,48 C 13.56,47.62 13.91,47.21 14.20,46.87 C 15.83,44.97 16.17,44.29 16.32,42.71 C 17.03,41.67 17.65,40.59 18.01,39.53 C 19.29,35.82 20.56,33.85 21.20,33.9 z" id="p2600" style="fill:#682d1f;fill-opacity:0.15;fill-rule:nonzero;stroke:none;marker:none;visibility:visible;display:inline;overflow:visible;enable-background:accumulate"/>
<path d="M 29.32,37.4 C 29.32,38.57 29.17,41.57 28.95,42.52" id="p2602" style="fill:none;fill-opacity:1;fill-rule:nonzero;stroke:#6a2805;stroke-width:1.20;stroke-linecap:round;stroke-linejoin:miter;marker:none;stroke-miterlimit:4;stroke-dasharray:none;stroke-dashoffset:0;stroke-opacity:0.37;visibility:visible;display:inline;overflow:visible;enable-background:accumulate"/>
<path d="M 27.57,42.96 C 27.20,44.05 26.32,46.02 25.67,46.9" id="p2604" style="fill:none;fill-opacity:1;fill-rule:nonzero;stroke:#6a2805;stroke-width:1.20;stroke-linecap:round;stroke-linejoin:miter;marker:none;stroke-miterlimit:4;stroke-dasharray:none;stroke-dashoffset:0;stroke-opacity:0.37;visibility:visible;display:inline;overflow:visible;enable-background:accumulate"/>
<path d="M 28.54,32.25 C 29.22,32.3 30.09,33.38 31.26,33.65 C 31.26,33.65 30.11,34.37 29.07,35.09 C 28.04,35.09 25.77,35.59 25.67,37.25 C 25.57,38.9 26.39,38.79 27.42,39.62 C 27.32,41.27 25.36,42.64 23.92,45.84 C 23.54,46.67 23.72,47.37 24.17,48 L 19.73,48 C 21.15,44.89 22.73,41.37 22.79,40.65 C 22.90,39.52 24.23,38.08 23.92,35.81 C 23.61,33.54 27.54,32.62 28.26,32.31 C 28.35,32.27 28.45,32.24 28.54,32.25 z" id="p2632" style="fill:none;fill-opacity:1;fill-rule:nonzero;stroke:#c5a589;stroke-width:4.48;stroke-linecap:round;stroke-linejoin:miter;marker:none;stroke-miterlimit:4;stroke-dasharray:none;stroke-dashoffset:0;stroke-opacity:0.12;visibility:visible;display:inline;overflow:visible;enable-background:accumulate"/>
<path d="M 31.25,32.71 C 28.98,33.64 24.13,34.57 22.16,33.84" id="p2634" style="fill:none;fill-opacity:1;fill-rule:nonzero;stroke:#dda763;stroke-width:2.5;stroke-linecap:round;stroke-linejoin:miter;marker:none;stroke-miterlimit:4;stroke-dasharray:none;stroke-dashoffset:0;stroke-opacity:0.15;visibility:visible;display:inline;overflow:visible;enable-background:accumulate"/>
<path d="M 20.72,25.17 L 20.72,25.17 C 21.23,26.1 22.06,28.37 23.82,29.2" id="p2636" style="fill:none;fill-opacity:1;fill-rule:nonzero;stroke:#efa35e;stroke-width:1.38;stroke-linecap:round;stroke-linejoin:miter;marker:none;stroke-miterlimit:4;stroke-dasharray:none;stroke-dashoffset:0;stroke-opacity:0.25;visibility:visible;display:inline;overflow:visible;enable-background:accumulate"/>
<path d="M 19.58,28.16 C 19.99,28.68 20.41,29.92 21.44,30.44" id="p2638" style="fill:none;fill-opacity:1;fill-rule:nonzero;stroke:#efa35e;stroke-width:1.38;stroke-linecap:round;stroke-linejoin:miter;marker:none;stroke-miterlimit:4;stroke-dasharray:none;stroke-dashoffset:0;stroke-opacity:0.25;visibility:visible;display:inline;overflow:visible;enable-background:accumulate"/>
<path d="M 33.76,25.28 C 36.17,25.38 36.43,27.01 36.04,28.53 C 36.03,28.54 36.02,28.55 36.01,28.56 C 35.65,28.98 35.28,29.29 35.07,29.5 C 34.66,29.91 32.51,27.33 32.92,26.71 C 33.08,26.48 33.38,25.88 33.76,25.28 z" id="p2640" style="fill:#fcbfa4;fill-opacity:0.33;fill-rule:nonzero;stroke:none;marker:none;visibility:visible;display:inline;overflow:visible;enable-background:accumulate"/>
<path d="M 27.54,26.72 C 26.81,27.44 25.88,27.34 25.47,26.41 C 25.06,25.48 24.33,28.89 25.57,29.61 C 26.09,29.4 26.30,29.09 26.30,29.09 L 27.54,26.72 z" id="p2642" style="fill:#581902;fill-opacity:0.33;fill-rule:nonzero;stroke:none;marker:none;visibility:visible;display:inline;overflow:visible;enable-background:accumulate"/>
<path d="M 30.63,34.15 C 30.22,34.77 29.39,36.63 30.53,37.25 C 30.12,37.36 29.08,37.25 29.08,37.25 L 28.98,35.19 L 30.63,34.15 z" id="p2644" style="fill:#581902;fill-opacity:0.33;fill-rule:nonzero;stroke:none;marker:none;visibility:visible;display:inline;overflow:visible;enable-background:accumulate"/>
<path d="M 29.33,28.15 C 29.33,28.15 30.65,29.37 30.86,29.78" id="p2659" style="fill:none;fill-opacity:1;fill-rule:nonzero;stroke:#6a2805;stroke-width:1;stroke-linecap:round;stroke-linejoin:miter;marker:none;stroke-miterlimit:4;stroke-dasharray:none;stroke-dashoffset:0;stroke-opacity:0.22;visibility:visible;display:inline;overflow:visible;enable-background:accumulate"/>
<path d="M 28.92,30.29 C 29.53,31.21 29.74,32.12 30.04,32.43" id="p2661" style="fill:none;fill-opacity:1;fill-rule:nonzero;stroke:#f7c08b;stroke-width:0.5;stroke-linecap:round;stroke-linejoin:miter;marker:none;stroke-miterlimit:4;stroke-dasharray:none;stroke-dashoffset:0;stroke-opacity:0.25;visibility:visible;display:inline;overflow:visible;enable-background:accumulate"/>
<path d="M 33.60,26.12 L 32.48,26.83" id="p2663" style="fill:none;fill-opacity:1;fill-rule:nonzero;stroke:#fae9dc;stroke-width:0.80;stroke-linecap:round;stroke-linejoin:miter;marker:none;stroke-miterlimit:4;stroke-dasharray:none;stroke-dashoffset:0;stroke-opacity:0.27;visibility:visible;display:inline;overflow:visible;enable-background:accumulate"/>
<path d="M 29.94,16.35 L 29.94,16.35 C 29.53,16.04 28.11,15.64 27.50,15.74" id="p2665" style="fill:none;fill-opacity:1;fill-rule:nonzero;stroke:#6a2805;stroke-width:0.69;stroke-linecap:round;stroke-linejoin:miter;marker:none;stroke-miterlimit:4;stroke-dasharray:none;stroke-dashoffset:0;stroke-opacity:0.22;visibility:visible;display:inline;overflow:visible;enable-background:accumulate"/>
<path d="M 19.76,13.4 C 19.76,14.11 19.87,14.82 19.97,15.23" id="p2667" style="fill:none;fill-opacity:1;fill-rule:nonzero;stroke:#f7c08b;stroke-width:0.88;stroke-linecap:round;stroke-linejoin:miter;marker:none;stroke-miterlimit:4;stroke-dasharray:none;stroke-dashoffset:0;stroke-opacity:0.11;visibility:visible;display:inline;overflow:visible;enable-background:accumulate"/>
<path d="M 25.36,24.59 C 25.16,25.61 25.16,27.85 25.46,28.56" id="p2669" style="fill:none;fill-opacity:1;fill-rule:nonzero;stroke:#6a2805;stroke-width:1.20;stroke-linecap:round;stroke-linejoin:miter;marker:none;stroke-miterlimit:4;stroke-dasharray:none;stroke-dashoffset:0;stroke-opacity:0.37;visibility:visible;display:inline;overflow:visible;enable-background:accumulate"/>
<path d="M 18.03,22.76 C 17.93,23.68 18.44,25 19.15,26.12" id="p2671" style="fill:none;fill-opacity:1;fill-rule:nonzero;stroke:#6a2805;stroke-width:1.20;stroke-linecap:round;stroke-linejoin:miter;marker:none;stroke-miterlimit:4;stroke-dasharray:none;stroke-dashoffset:0;stroke-opacity:0.22;visibility:visible;display:inline;overflow:visible;enable-background:accumulate"/>
<path d="M 33.70,28.97 C 32.48,30.09 30.04,32.12 29.43,32.53" id="p3450" style="fill:none;fill-opacity:1;fill-rule:nonzero;stroke:#efa35e;stroke-width:1.38;stroke-linecap:round;stroke-linejoin:miter;marker:none;stroke-miterlimit:4;stroke-dasharray:none;stroke-dashoffset:0;stroke-opacity:0.25;visibility:visible;display:inline;overflow:visible;enable-background:accumulate"/>
<path d="M 18.64,12.99 C 18.54,13.5 18.64,14.93 18.64,14.93" id="p3452" style="fill:none;fill-opacity:1;fill-rule:nonzero;stroke:#efa35e;stroke-width:1.38;stroke-linecap:round;stroke-linejoin:miter;marker:none;stroke-miterlimit:4;stroke-dasharray:none;stroke-dashoffset:0;stroke-opacity:0.25;visibility:visible;display:inline;overflow:visible;enable-background:accumulate"/>
<path d="M 19.66,15.84 C 19.15,15.84 17.22,15.74 16.51,16.15" id="p3456" style="fill:none;fill-opacity:1;fill-rule:nonzero;stroke:#6a2805;stroke-width:0.69;stroke-linecap:round;stroke-linejoin:miter;marker:none;stroke-miterlimit:4;stroke-dasharray:none;stroke-dashoffset:0;stroke-opacity:0.22;visibility:visible;display:inline;overflow:visible;enable-background:accumulate"/>
<path d="M 31.47,9.33 C 30.86,9.13 29.43,8.92 29.43,8.92" id="p3458" style="fill:none;fill-opacity:1;fill-rule:nonzero;stroke:#6a2805;stroke-width:0.69;stroke-linecap:round;stroke-linejoin:miter;marker:none;stroke-miterlimit:4;stroke-dasharray:none;stroke-dashoffset:0;stroke-opacity:0.22;visibility:visible;display:inline;overflow:visible;enable-background:accumulate"/>
<path d="M 34.34,32.81 C 34.19,33.39 33.83,34.11 33.04,34.83" id="p3462" style="fill:none;fill-opacity:1;fill-rule:nonzero;stroke:#efa35e;stroke-width:1.38;stroke-linecap:round;stroke-linejoin:miter;marker:none;stroke-miterlimit:4;stroke-dasharray:none;stroke-dashoffset:0;stroke-opacity:0.25;visibility:visible;display:inline;overflow:visible;enable-background:accumulate"/>
<path d="M 35.23,30.54 C 33.77,31.78 32.09,33.31 31.14,33.75 C 30.19,34.19 28.59,35.43 28.00,36.02" id="p2564" style="fill:none;fill-opacity:1;fill-rule:nonzero;stroke:#301e05;stroke-width:0.5;stroke-linecap:round;stroke-linejoin:round;marker:none;stroke-miterlimit:4;stroke-dasharray:none;stroke-dashoffset:0;stroke-opacity:1;visibility:visible;display:inline;overflow:visible;enable-background:accumulate"/>
<path d="M 33.55,25.35 C 32.68,25.35 30.05,26.16 29.17,27.03 C 28.30,27.91 25.52,30.03 24.35,30.47" id="p2566" style="fill:none;fill-opacity:1;fill-rule:nonzero;stroke:#301e05;stroke-width:0.5;stroke-linecap:round;stroke-linejoin:round;marker:none;stroke-miterlimit:4;stroke-dasharray:none;stroke-dashoffset:0;stroke-opacity:1;visibility:visible;display:inline;overflow:visible;enable-background:accumulate"/>
<path d="M 29.24,24.62 C 28.37,25.43 26.98,27.47 26.18,29.15" id="p2568" style="fill:none;fill-opacity:1;fill-rule:nonzero;stroke:#301e05;stroke-width:0.5;stroke-linecap:round;stroke-linejoin:round;marker:none;stroke-miterlimit:4;stroke-dasharray:none;stroke-dashoffset:0;stroke-opacity:1;visibility:visible;display:inline;overflow:visible;enable-background:accumulate"/>
<path d="M 28.88,35.36 C 29.39,36.45 29.03,39.67 29.03,40.33" id="p2570" style="fill:none;fill-opacity:1;fill-rule:nonzero;stroke:#301e05;stroke-width:0.5;stroke-linecap:round;stroke-linejoin:round;marker:none;stroke-miterlimit:4;stroke-dasharray:none;stroke-dashoffset:0;stroke-opacity:1;visibility:visible;display:inline;overflow:visible;enable-background:accumulate"/>
<path d="M 34.28,35.07 C 32.82,36.24 30.27,37.77 29.39,37.33" id="p2572" style="fill:none;fill-opacity:1;fill-rule:nonzero;stroke:#301e05;stroke-width:0.5;stroke-linecap:round;stroke-linejoin:round;marker:none;stroke-miterlimit:4;stroke-dasharray:none;stroke-dashoffset:0;stroke-opacity:1;visibility:visible;display:inline;overflow:visible;enable-background:accumulate"/>
<path d="M 34.28,36.75 C 33.85,36.75 33.19,36.67 32.90,36.38" id="p2574" style="fill:none;fill-opacity:1;fill-rule:nonzero;stroke:#301e05;stroke-width:0.5;stroke-linecap:round;stroke-linejoin:round;marker:none;stroke-miterlimit:4;stroke-dasharray:none;stroke-dashoffset:0;stroke-opacity:1;visibility:visible;display:inline;overflow:visible;enable-background:accumulate"/>
<path d="M 13.23,48 C 13.56,47.62 13.91,47.21 14.20,46.87 C 16.68,43.98 16.16,43.97 16.57,39.21 C 16.99,34.46 17.51,26.61 17.51,24.65 C 17.51,22.69 15.96,18.04 15.86,16.5 C 15.75,14.95 15.25,8.84 15.36,5.43 C 15.46,2.02 19.47,4.52 19.57,7 C 19.68,9.47 20.72,14.72 21.14,15.65 C 21.55,16.58 22.06,18.97 22.89,21.96 C 23.40,21.96 24.04,21.86 24.45,21.96 C 24.76,20.52 26.51,15.14 27.23,13.9 C 27.95,12.66 28.46,8.76 30.01,5.25 C 30.59,3.93 31.47,3.37 32.26,3.37 C 33.59,3.37 34.72,4.87 33.95,6.68 C 33.33,8.13 32.19,12.36 31.67,14.53 C 31.15,16.7 29.40,22.07 28.89,23 C 28.37,23.92 28.79,24.44 29.20,24.65 C 30.34,23.93 33.00,23.93 33.51,25.28 C 37.44,25.28 36.20,28.98 35.17,30.53 C 35.79,34.35 34.88,34.37 34.98,35.4 C 35.08,36.43 34.66,37.89 34.04,38.71 C 33.42,39.54 33.43,40.88 32.61,42.84 C 32.11,44.02 31.40,45.76 29.86,48" id="stroke01" style="fill:none;fill-opacity:1;fill-rule:nonzero;stroke:#301e05;stroke-width:0.5;stroke-linecap:butt;stroke-linejoin:round;marker:none;stroke-miterlimit:4;stroke-dasharray:none;stroke-dashoffset:0;stroke-opacity:1;visibility:visible;display:inline;overflow:visible;enable-background:accumulate"/>
</g>
</svg>
