<?xml version="1.0" encoding="UTF-8" standalone="no"?>
<!DOCTYPE svg PUBLIC "-//W3C//DTD SVG 1.0//EN" "http://www.w3.org/TR/2001/REC-SVG-20010904/DTD/svg10.dtd">
<svg xmlns:svg="http://www.w3.org/2000/svg" xmlns="http://www.w3.org/2000/svg" version="1.0" width="100%" height="100%" viewBox="0 0 48 48" id="_lefthand03" style="display:inline">
    <defs id="defs2818"/>
<g id="lefthand03">
<path d="M 26.15,2.84 C 27.09,2.89 27.97,3.59 27.90,4.93 C 27.77,7.62 28.05,13.14 27.78,15.43 C 27.51,17.72 27.22,22.56 27.09,23.37 C 26.96,24.18 27.36,24.86 27.50,24.18 C 27.63,23.51 29.00,18.52 29.81,17.31 C 30.62,16.1 31.40,12.34 32.34,9.25 C 33.28,6.15 36.93,8.03 36.12,10.18 C 35.58,11.62 34.63,16.49 34.09,19.18 C 33.55,21.87 32.63,23.92 32.09,25 C 31.55,26.07 31.70,26.74 31.96,27.28 C 32.91,27.28 34.12,29.01 33.71,30.62 C 33.85,31.29 34.36,33.6 33.15,35.62 C 31.94,37.64 31.28,40.58 30.34,42.46 C 29.65,43.85 27.35,46.21 25.65,48 L 11.31,48 C 12.25,46.51 13.09,45.12 13.25,44.5 C 13.65,42.88 13.12,40.19 13.53,36.96 C 13.93,33.73 15.95,28.34 16.21,27 C 16.48,25.65 15.93,22.29 15.53,19.87 C 15.12,17.45 14.32,12.6 14.18,8.03 C 14.05,3.45 17.41,3.58 17.81,6.28 C 18.55,11.22 19.85,15.29 20.12,16.9 C 20.39,18.52 21.06,21.63 21.06,22.43 C 21.06,23.24 22.40,23.37 22.40,22.43 C 22.40,21.49 22.92,16.23 23.06,14.75 C 23.19,13.26 23.59,7.21 24.00,4.65 C 24.20,3.37 25.21,2.79 26.15,2.84 z" id="p2701" style="fill:#ba6d35;fill-opacity:1;fill-rule:nonzero;stroke:none;marker:none;visibility:visible;display:inline;overflow:visible;enable-background:accumulate"/>
<path d="M 26.15,2.84 C 26.47,2.86 26.79,2.96 27.06,3.12 C 25.33,3.59 24.70,4.43 24.78,5.84 C 24.87,7.65 24.87,11.16 24.87,12.4 C 24.87,13.64 23.65,15.82 23.65,16.96 C 23.65,18.11 23.08,21.16 23.93,22.4 C 24.53,23.26 23.21,23.19 22.40,22.34 C 22.42,21.27 22.93,16.2 23.06,14.75 C 23.19,13.26 23.59,7.21 24.00,4.65 C 24.20,3.37 25.21,2.79 26.15,2.84 z M 16.12,4.4 C 16.25,4.4 16.37,4.42 16.50,4.46 C 15.55,5.45 15.02,5.89 15.09,7.75 C 15.19,10.31 15.64,16.7 16.40,19.93 C 17.16,23.17 17.55,24.39 17.84,24.87 C 16.98,24.68 16.97,24.12 16.78,24.12 C 17.16,25.93 21.26,29.04 22.50,29.9 C 22.78,29.81 23.75,29.53 23.75,29.53 C 23.75,29.53 23.37,30.86 23.56,31.25 C 23.75,31.63 24.30,32 24.87,31.9 C 24.40,32.38 21.91,33.92 21.15,34.87 C 20.39,35.82 19.83,36.66 20.78,40.09 C 21.73,43.51 19.93,43.63 20.40,45.34 C 20.83,46.89 20.57,48.14 28.03,45.46 C 27.24,46.33 26.40,47.22 25.65,48 L 11.31,48 C 12.25,46.51 13.09,45.12 13.25,44.5 C 13.65,42.88 13.12,40.19 13.53,36.96 C 13.93,33.73 15.95,28.34 16.21,27 C 16.48,25.65 15.93,22.29 15.53,19.87 C 15.12,17.45 14.32,12.6 14.18,8.03 C 14.11,5.45 15.13,4.38 16.12,4.4 z M 34.15,7.62 C 34.52,7.62 34.89,7.71 35.21,7.9 C 33.97,8.45 33.06,9.26 33.06,9.93 C 33.06,10.88 32.31,14.89 32.03,15.65 C 31.74,16.41 30.31,18.58 30.12,19.34 C 29.93,20.1 28.31,22.69 28.50,24.59 C 28.63,25.88 27.78,25.51 27.59,23.87 C 27.86,22.74 29.05,18.44 29.81,17.31 C 30.62,16.1 31.40,12.34 32.34,9.25 C 32.69,8.08 33.42,7.63 34.15,7.62 z M 28.62,34.12 C 29.35,34.12 30.28,34.31 30.56,34.5 C 30.83,34.68 30.10,34.87 29.28,35.87 C 28.46,36.87 27.16,37.87 26.25,37.78 C 25.33,37.68 25.90,35.59 24.53,35.59 C 25.99,35.13 25.52,35.22 28.62,34.12 z" id="p2749" style="fill:#733e26;fill-opacity:0.54;fill-rule:nonzero;stroke:none;marker:none;visibility:visible;display:inline;overflow:visible;enable-background:accumulate"/>
<path d="M 19.50,14.28 C 19.78,15.38 20.03,16.33 20.12,16.9 C 20.39,18.52 21.06,21.63 21.06,22.43 C 21.06,23.24 22.40,23.37 22.40,22.43 C 22.40,22.33 22.42,22.01 22.43,21.81 C 22.82,24.47 23.42,25.55 23.06,26.09 C 22.51,26.91 20.42,25.65 19.78,23.28 C 19.26,21.35 18.92,17.27 19.50,14.28 z M 33.81,33.84 C 33.70,34.43 33.51,35.03 33.15,35.62 C 32.14,37.31 31.51,39.64 30.78,41.46 C 24.76,46.98 22.86,44.79 23.62,44.34 C 24.53,43.79 26.36,41.87 27.09,39.68 C 27.82,37.49 30.36,34.86 31.09,34.59 C 31.60,34.4 32.39,34.08 33.81,33.84 z" id="p2760" style="fill:#f0ad7f;fill-opacity:0.35;fill-rule:nonzero;stroke:none;marker:none;visibility:visible;display:inline;overflow:visible;enable-background:accumulate"/>
<path d="M 26.08,35.22 C 26.17,35.77 25.44,37.96 24.98,38.41" id="p2773" style="fill:none;fill-opacity:1;fill-rule:nonzero;stroke:#6a2805;stroke-width:1.20;stroke-linecap:round;stroke-linejoin:miter;marker:none;stroke-miterlimit:4;stroke-dasharray:none;stroke-dashoffset:0;stroke-opacity:0.37;visibility:visible;display:inline;overflow:visible;enable-background:accumulate"/>
<path d="M 23.61,39.96 C 23.07,42.79 22.25,44.62 20.88,45.62" id="p2775" style="fill:none;fill-opacity:1;fill-rule:nonzero;stroke:#6a2805;stroke-width:1.20;stroke-linecap:round;stroke-linejoin:miter;marker:none;stroke-miterlimit:4;stroke-dasharray:none;stroke-dashoffset:0;stroke-opacity:0.37;visibility:visible;display:inline;overflow:visible;enable-background:accumulate"/>
<path d="M 29.27,28.28 C 29.91,29.29 29.64,30.66 30.37,30.75 C 31.10,30.84 33.20,30.47 33.01,29.1 C 32.83,27.74 31.55,27.28 31.01,27.37 C 30.46,27.46 29.18,28.28 29.27,28.28 z" id="p2785" style="fill:#fcbfa4;fill-opacity:0.33;fill-rule:nonzero;stroke:none;marker:none;visibility:visible;display:inline;overflow:visible;enable-background:accumulate"/>
<path d="M 23.43,34.12 C 23.34,32.94 20.51,32.48 20.06,33.94 C 19.60,35.4 16.22,36.04 16.77,37.23 C 17.32,38.41 17.68,38.41 16.86,39.87 C 16.04,41.33 16.59,44.07 18.87,43.8 C 21.15,43.52 21.37,40.75 20.79,39.23 C 20.33,38.05 20.88,36.4 21.24,35.77 C 21.85,34.7 23.52,35.4 23.43,34.12 z" id="p2788" style="fill:#f0ad7f;fill-opacity:0.12;fill-rule:nonzero;stroke:none;marker:none;visibility:visible;display:inline;overflow:visible;enable-background:accumulate"/>
<path d="M 17.21,27.09 C 18.58,28.37 19.15,31.01 20.34,31.46 C 18.88,31.74 17.33,32.31 16.87,32.31 C 16.32,32.03 16.03,30.1 16.31,29.28 C 16.58,28.45 17.12,27 17.21,27.09 z M 15.31,34.53 C 15.46,34.55 15.67,34.73 15.87,35.12 C 16.05,36.31 16.31,38.14 17.40,38.96 C 18.50,39.79 16.49,39.87 16.40,41.15 C 16.31,42.43 16.12,43.16 17.12,43.53 C 18.13,43.89 17.15,47.25 16.96,48.62 C 16.78,49.99 11.93,49.65 11.93,49.65 C 11.93,49.65 12.38,46.35 12.84,45.53 C 13.30,44.7 14.40,45.63 14.40,43.81 C 14.40,42.21 14.24,34.38 15.31,34.53 z" id="p3561" style="fill:#682d1f;fill-opacity:0.15;fill-rule:nonzero;stroke:none;marker:none;visibility:visible;display:inline;overflow:visible;enable-background:accumulate"/>
<path d="M 26.81,25 C 26.81,25.82 26.90,26.09 26.81,26.64" id="p3568" style="fill:none;fill-opacity:1;fill-rule:nonzero;stroke:#efa35e;stroke-width:1.38;stroke-linecap:round;stroke-linejoin:miter;marker:none;stroke-miterlimit:4;stroke-dasharray:none;stroke-dashoffset:0;stroke-opacity:0.25;visibility:visible;display:inline;overflow:visible;enable-background:accumulate"/>
<path d="M 21.42,24.18 C 22.15,25.18 22.43,25.64 22.61,26.09" id="p3572" style="fill:none;fill-opacity:1;fill-rule:nonzero;stroke:#efa35e;stroke-width:1.38;stroke-linecap:round;stroke-linejoin:miter;marker:none;stroke-miterlimit:4;stroke-dasharray:none;stroke-dashoffset:0;stroke-opacity:0.25;visibility:visible;display:inline;overflow:visible;enable-background:accumulate"/>
<path d="M 18.23,27.1 C 19.23,28.01 20.42,29.83 20.97,30.47" id="p3574" style="fill:none;fill-opacity:1;fill-rule:nonzero;stroke:#efa35e;stroke-width:1.38;stroke-linecap:round;stroke-linejoin:miter;marker:none;stroke-miterlimit:4;stroke-dasharray:none;stroke-dashoffset:0;stroke-opacity:0.25;visibility:visible;display:inline;overflow:visible;enable-background:accumulate"/>
<path d="M 16.59,29.83 C 17.04,30.38 17.68,31.2 18.05,31.39" id="p3576" style="fill:none;fill-opacity:1;fill-rule:nonzero;stroke:#efa35e;stroke-width:0.98;stroke-linecap:round;stroke-linejoin:miter;marker:none;stroke-miterlimit:4;stroke-dasharray:none;stroke-dashoffset:0;stroke-opacity:0.12;visibility:visible;display:inline;overflow:visible;enable-background:accumulate"/>
<path d="M 30.00,36.86 C 29.00,37.96 28.36,40.51 27.90,41.52" id="p3578" style="fill:none;fill-opacity:1;fill-rule:nonzero;stroke:#f2b177;stroke-width:1.38;stroke-linecap:round;stroke-linejoin:miter;marker:none;stroke-miterlimit:4;stroke-dasharray:none;stroke-dashoffset:0;stroke-opacity:0.25;visibility:visible;display:inline;overflow:visible;enable-background:accumulate"/>
<path d="M 26.35,37.96 C 25.99,38.6 25.80,39.78 25.17,40.15" id="p3580" style="fill:none;fill-opacity:1;fill-rule:nonzero;stroke:#efa35e;stroke-width:1.38;stroke-linecap:round;stroke-linejoin:miter;marker:none;stroke-miterlimit:4;stroke-dasharray:none;stroke-dashoffset:0;stroke-opacity:0.25;visibility:visible;display:inline;overflow:visible;enable-background:accumulate"/>
<path d="M 28.91,32.66 C 27.72,32.48 26.35,32.39 25.90,32.57" id="p3582" style="fill:none;fill-opacity:1;fill-rule:nonzero;stroke:#efa35e;stroke-width:1.38;stroke-linecap:round;stroke-linejoin:miter;marker:none;stroke-miterlimit:4;stroke-dasharray:none;stroke-dashoffset:0;stroke-opacity:0.25;visibility:visible;display:inline;overflow:visible;enable-background:accumulate"/>
<path d="M 32.10,30.29 C 31.55,30.11 30.46,30.38 30.46,30.38" id="p3584" style="fill:none;fill-opacity:1;fill-rule:nonzero;stroke:#fae9dc;stroke-width:0.80;stroke-linecap:round;stroke-linejoin:miter;marker:none;stroke-miterlimit:4;stroke-dasharray:none;stroke-dashoffset:0;stroke-opacity:0.27;visibility:visible;display:inline;overflow:visible;enable-background:accumulate"/>
<path d="M 16.13,33.67 C 16.13,34.4 15.31,35.4 19.23,39.23" id="p3586" style="fill:none;fill-opacity:1;fill-rule:nonzero;stroke:#dda763;stroke-width:1.38;stroke-linecap:round;stroke-linejoin:miter;marker:none;stroke-miterlimit:4;stroke-dasharray:none;stroke-dashoffset:0;stroke-opacity:0.12;visibility:visible;display:inline;overflow:visible;enable-background:accumulate"/>
<path d="M 16.22,45.9 C 15.49,46.9 15.67,47.45 15.31,48" id="p3592" style="fill:none;fill-opacity:1;fill-rule:nonzero;stroke:#efa35e;stroke-width:1.38;stroke-linecap:round;stroke-linejoin:miter;marker:none;stroke-miterlimit:4;stroke-dasharray:none;stroke-dashoffset:0;stroke-opacity:0.25;visibility:visible;display:inline;overflow:visible;enable-background:accumulate"/>
<path d="M 17.23,45.07 C 17.04,45.9 16.91,46.9 16.45,48" id="p3588" style="fill:none;fill-opacity:1;fill-rule:nonzero;stroke:#6a2805;stroke-width:1.20;stroke-linecap:round;stroke-linejoin:miter;marker:none;stroke-miterlimit:4;stroke-dasharray:none;stroke-dashoffset:0;stroke-opacity:0.37;visibility:visible;display:inline;overflow:visible;enable-background:accumulate"/>
<path d="M 21.52,42.7 C 21.24,43.34 20.42,45.17 19.87,45.26" id="p3590" style="fill:none;fill-opacity:1;fill-rule:nonzero;stroke:#efa35e;stroke-width:1.38;stroke-linecap:round;stroke-linejoin:miter;marker:none;stroke-miterlimit:4;stroke-dasharray:none;stroke-dashoffset:0;stroke-opacity:0.25;visibility:visible;display:inline;overflow:visible;enable-background:accumulate"/>
<path d="M 32.23,36.44 C 31.45,35.67 29.39,34.44 28.74,34.19" id="p3606" style="fill:none;fill-opacity:1;fill-rule:nonzero;stroke:#6a2805;stroke-width:1.20;stroke-linecap:round;stroke-linejoin:miter;marker:none;stroke-miterlimit:4;stroke-dasharray:none;stroke-dashoffset:0;stroke-opacity:0.2;visibility:visible;display:inline;overflow:visible;enable-background:accumulate"/>
<path d="M 21.26,29.02 C 21.58,29.35 22.16,29.73 22.22,29.99" id="p3608" style="fill:none;fill-opacity:1;fill-rule:nonzero;stroke:#6a2805;stroke-width:1;stroke-linecap:round;stroke-linejoin:miter;marker:none;stroke-miterlimit:4;stroke-dasharray:none;stroke-dashoffset:0;stroke-opacity:0.22;visibility:visible;display:inline;overflow:visible;enable-background:accumulate"/>
<path d="M 21.97,38.87 C 21.83,40.33 20.74,42.02 19.05,42.06" id="p3610" style="fill:none;fill-opacity:1;fill-rule:nonzero;stroke:#c5a589;stroke-width:4.48;stroke-linecap:round;stroke-linejoin:miter;marker:none;stroke-miterlimit:4;stroke-dasharray:none;stroke-dashoffset:0;stroke-opacity:0.12;visibility:visible;display:inline;overflow:visible;enable-background:accumulate"/>
<path d="M 32.01,20.07 C 31.55,19.8 30.55,19.52 30.00,19.52" id="p3612" style="fill:none;fill-opacity:1;fill-rule:nonzero;stroke:#6a2805;stroke-width:0.80;stroke-linecap:round;stroke-linejoin:miter;marker:none;stroke-miterlimit:4;stroke-dasharray:none;stroke-dashoffset:0;stroke-opacity:0.21;visibility:visible;display:inline;overflow:visible;enable-background:accumulate"/>
<path d="M 25.71,15.69 C 25.07,15.69 24.34,15.51 23.89,15.69" id="p3614" style="fill:none;fill-opacity:1;fill-rule:nonzero;stroke:#6a2805;stroke-width:0.80;stroke-linecap:round;stroke-linejoin:miter;marker:none;stroke-miterlimit:4;stroke-dasharray:none;stroke-dashoffset:0;stroke-opacity:0.21;visibility:visible;display:inline;overflow:visible;enable-background:accumulate"/>
<path d="M 26.53,9.3 C 26.08,9.3 25.53,9.12 24.80,9.3" id="p3616" style="fill:none;fill-opacity:1;fill-rule:nonzero;stroke:#6a2805;stroke-width:0.80;stroke-linecap:round;stroke-linejoin:miter;marker:none;stroke-miterlimit:4;stroke-dasharray:none;stroke-dashoffset:0;stroke-opacity:0.07;visibility:visible;display:inline;overflow:visible;enable-background:accumulate"/>
<path d="M 17.50,16.05 C 16.95,16.15 16.13,16.42 16.13,16.42" id="p3618" style="fill:none;fill-opacity:1;fill-rule:nonzero;stroke:#6a2805;stroke-width:0.80;stroke-linecap:round;stroke-linejoin:miter;marker:none;stroke-miterlimit:4;stroke-dasharray:none;stroke-dashoffset:0;stroke-opacity:0.12;visibility:visible;display:inline;overflow:visible;enable-background:accumulate"/>
<path d="M 19.05,23.26 C 18.50,23.54 17.68,23.9 17.04,23.54" id="p3620" style="fill:none;fill-opacity:1;fill-rule:nonzero;stroke:#6a2805;stroke-width:0.80;stroke-linecap:round;stroke-linejoin:miter;marker:none;stroke-miterlimit:4;stroke-dasharray:none;stroke-dashoffset:0;stroke-opacity:0.21;visibility:visible;display:inline;overflow:visible;enable-background:accumulate"/>
<path d="M 26.17,21.8 C 26.17,22.53 26.08,23.17 26.08,23.63" id="p3622" style="fill:none;fill-opacity:1;fill-rule:nonzero;stroke:#6a2805;stroke-width:0.80;stroke-linecap:round;stroke-linejoin:miter;marker:none;stroke-miterlimit:4;stroke-dasharray:none;stroke-dashoffset:0;stroke-opacity:0.21;visibility:visible;display:inline;overflow:visible;enable-background:accumulate"/>
<path d="M 29.73,24.54 C 29.55,25.45 29.64,26.09 29.73,26.46" id="p3624" style="fill:none;fill-opacity:1;fill-rule:nonzero;stroke:#6a2805;stroke-width:0.80;stroke-linecap:round;stroke-linejoin:miter;marker:none;stroke-miterlimit:4;stroke-dasharray:none;stroke-dashoffset:0;stroke-opacity:0.21;visibility:visible;display:inline;overflow:visible;enable-background:accumulate"/>
<path d="M 28.36,23.54 C 28.27,24.27 28.18,24.45 28.82,25.18" id="p3626" style="fill:none;fill-opacity:1;fill-rule:nonzero;stroke:#6a2805;stroke-width:1.10;stroke-linecap:round;stroke-linejoin:miter;marker:none;stroke-miterlimit:4;stroke-dasharray:none;stroke-dashoffset:0;stroke-opacity:0.21;visibility:visible;display:inline;overflow:visible;enable-background:accumulate"/>
<path d="M 26.72,14.59 C 26.44,15.6 26.53,17.79 26.26,18.61" id="p3636" style="fill:none;fill-opacity:1;fill-rule:nonzero;stroke:#efa35e;stroke-width:1.38;stroke-linecap:round;stroke-linejoin:miter;marker:none;stroke-miterlimit:4;stroke-dasharray:none;stroke-dashoffset:0;stroke-opacity:0.25;visibility:visible;display:inline;overflow:visible;enable-background:accumulate"/>
<path d="M 32.65,20.98 C 32.28,22.72 31.01,25 30.92,25.64" id="p3639" style="fill:none;fill-opacity:1;fill-rule:nonzero;stroke:#efa35e;stroke-width:1.38;stroke-linecap:round;stroke-linejoin:miter;marker:none;stroke-miterlimit:4;stroke-dasharray:none;stroke-dashoffset:0;stroke-opacity:0.25;visibility:visible;display:inline;overflow:visible;enable-background:accumulate"/>
<path d="M 31.95,27.34 C 30.94,27.34 27.98,28.08 27.31,28.55 C 26.63,29.02 23.88,29.36 23.27,29.49 C 22.66,29.62 21.72,31.31 19.97,31.64 C 18.22,31.98 16.41,32.18 15.60,32.85" id="p2741" style="fill:none;fill-opacity:1;fill-rule:nonzero;stroke:#301e05;stroke-width:0.5;stroke-linecap:round;stroke-linejoin:round;marker:none;stroke-miterlimit:4;stroke-dasharray:none;stroke-dashoffset:0;stroke-opacity:1;visibility:visible;display:inline;overflow:visible;enable-background:accumulate"/>
<path d="M 33.77,30.63 L 33.77,30.63 C 32.96,31.71 32.83,31.71 32.15,32.18 C 31.48,32.65 27.71,34.6 26.97,34.74 C 26.23,34.87 24.08,35.61 23.40,36.22 C 22.73,36.82 21.72,37.23 21.72,37.23" id="p2743" style="fill:none;fill-opacity:1;fill-rule:nonzero;stroke:#301e05;stroke-width:0.5;stroke-linecap:round;stroke-linejoin:round;marker:none;stroke-miterlimit:4;stroke-dasharray:none;stroke-dashoffset:0;stroke-opacity:1;visibility:visible;display:inline;overflow:visible;enable-background:accumulate"/>
<path d="M 23.20,36.49 C 23.74,38.04 23.54,40.19 23.00,41.27" id="p2745" style="fill:none;fill-opacity:1;fill-rule:nonzero;stroke:#301e05;stroke-width:0.5;stroke-linecap:round;stroke-linejoin:round;marker:none;stroke-miterlimit:4;stroke-dasharray:none;stroke-dashoffset:0;stroke-opacity:1;visibility:visible;display:inline;overflow:visible;enable-background:accumulate"/>
<path d="M 33.16,32.99 C 32.22,33.39 30.06,33.44 30.06,33.44" id="p2747" style="fill:none;fill-opacity:1;fill-rule:nonzero;stroke:#301e05;stroke-width:0.5;stroke-linecap:round;stroke-linejoin:round;marker:none;stroke-miterlimit:4;stroke-dasharray:none;stroke-dashoffset:0;stroke-opacity:1;visibility:visible;display:inline;overflow:visible;enable-background:accumulate"/>
<path d="M 11.31,48 C 12.25,46.51 13.09,45.12 13.25,44.5 C 13.65,42.88 13.12,40.19 13.53,36.96 C 13.93,33.73 15.95,28.34 16.21,27 C 16.48,25.65 15.93,22.29 15.53,19.87 C 15.12,17.45 14.32,12.6 14.18,8.03 C 14.05,3.45 17.41,3.58 17.81,6.28 C 18.55,11.22 19.85,15.29 20.12,16.9 C 20.39,18.52 21.06,21.63 21.06,22.43 C 21.06,23.24 22.40,23.37 22.40,22.43 C 22.40,21.49 22.92,16.23 23.06,14.75 C 23.19,13.26 23.59,7.21 24.00,4.65 C 24.20,3.37 25.21,2.79 26.15,2.84 C 27.09,2.89 27.97,3.59 27.90,4.93 C 27.77,7.62 28.05,13.14 27.78,15.43 C 27.51,17.72 27.22,22.56 27.09,23.37 C 26.96,24.18 27.36,24.86 27.50,24.18 C 27.63,23.51 29.00,18.52 29.81,17.31 C 30.62,16.1 31.40,12.34 32.34,9.25 C 33.28,6.15 36.93,8.03 36.12,10.18 C 35.58,11.62 34.63,16.49 34.09,19.18 C 33.55,21.87 32.63,23.92 32.09,25 C 31.55,26.07 31.70,26.74 31.96,27.28 C 32.91,27.28 34.12,29.01 33.71,30.62 C 33.85,31.29 34.36,33.6 33.15,35.62 C 31.94,37.64 31.28,40.58 30.34,42.46 C 29.65,43.85 27.35,46.21 25.65,48" id="stroke01" style="fill:none;fill-opacity:1;fill-rule:nonzero;stroke:#301e05;stroke-width:0.5;stroke-linecap:butt;stroke-linejoin:round;marker:none;stroke-miterlimit:4;stroke-dasharray:none;stroke-dashoffset:0;stroke-opacity:1;visibility:visible;display:inline;overflow:visible;enable-background:accumulate"/>
</g>
</svg>
