<?xml version="1.0" encoding="UTF-8" standalone="no"?>
<!DOCTYPE svg PUBLIC "-//W3C//DTD SVG 1.0//EN" "http://www.w3.org/TR/2001/REC-SVG-20010904/DTD/svg10.dtd">
<svg xmlns:svg="http://www.w3.org/2000/svg" xmlns="http://www.w3.org/2000/svg" version="1.0" width="100%" height="100%" viewBox="0 0 48 48" id="_lefthand00" style="display:inline">
<defs id="defs2818"/>
<g id="lefthand00">
<path d="M 24.84,14.37 C 24.71,14.38 24.58,14.37 24.46,14.40 C 23.50,14.62 22.00,14.73 18.78,19.34 C 16.31,19.66 15.77,21.28 15.56,23.21 C 15.34,25.15 14.69,25.78 14.37,26.75 C 14.05,27.71 13.83,30.72 13.93,32.43 C 14.04,34.15 12.34,38.86 11.81,39.93 C 11.38,40.78 7.69,44.87 4.62,48 L 26.25,48 C 27.89,45.48 29.63,43.35 31.21,42.21 C 33.47,40.60 34.86,37.04 35.71,35.21 C 36.57,33.39 37.96,29.96 37.96,28.25 C 37.96,26.53 37.67,26.00 36.06,25.25 C 36.27,24.49 36.25,22.98 35.93,22.34 C 35.61,21.69 34.11,20.84 33.46,20.84 C 35.82,19.44 34.97,17.83 34.65,17.40 C 34.33,16.97 32.07,16.67 31.21,16.78 C 30.36,16.88 29.29,16.33 28.21,16.12 C 28.00,15.58 27.67,15.15 27.25,14.93 C 26.87,14.74 25.76,14.33 24.84,14.37 z" id="p2555" style="opacity:1;fill:#ba6d35;fill-opacity:1;fill-rule:nonzero;stroke:none;marker:none;visibility:visible;display:inline;overflow:visible;enable-background:accumulate"/>
<path d="M 24.84,14.37 C 24.71,14.38 24.58,14.37 24.46,14.40 C 23.50,14.62 22.00,14.73 18.78,19.34 C 16.31,19.66 15.77,21.28 15.56,23.21 C 15.34,25.15 14.69,25.78 14.37,26.75 C 14.05,27.71 13.83,30.72 13.93,32.43 C 14.04,34.15 12.34,38.86 11.81,39.93 C 11.38,40.78 7.69,44.87 4.62,48 L 19.28,48 C 19.38,47.76 19.48,47.56 19.5,47.40 C 19.65,46.11 21.54,40.71 22.15,42.31 C 22.76,43.90 24.04,46.46 25.40,45.93 C 26.77,45.40 28.06,41.56 27,39.43 C 25.93,37.31 23.28,37.44 23.81,35.46 C 24.34,33.49 23.66,29.32 22.75,27.12 C 21.83,24.92 22.45,24.40 22.68,22.81 C 22.91,21.21 26.62,20.15 28.06,18.93 C 29.29,17.89 29.15,16.65 28.56,16.21 C 28.44,16.18 28.33,16.14 28.21,16.12 C 28.20,16.10 28.19,16.08 28.18,16.06 C 27.36,15.91 26.54,15.68 25.12,16.65 C 25.57,15.59 25.58,14.84 25.21,14.40 C 25.21,14.40 25.21,14.37 25.21,14.37 C 25.09,14.36 24.96,14.37 24.84,14.37 z M 27.31,23.18 C 26.78,23.94 26.01,23.86 25.40,23.93 C 25.93,24.08 26.78,25.62 27.31,27.06 C 27.84,28.50 28.21,31.90 28.21,31.90 C 28.21,31.90 28.52,32.07 28.90,32 C 28.45,33.28 30.20,34.96 31.34,34.28 C 32.48,33.59 33.08,31.69 33.46,30.40 C 33.84,29.11 32.46,28.65 32.46,28.65 C 32.46,28.65 31.33,28.66 30.5,28.96 C 31.03,27.22 29.28,26.99 30.34,26.15 C 31.40,25.32 31.87,22.82 31.34,23.28 C 30.81,23.73 30.11,24.70 29.12,25.68 C 29.20,24.85 27.91,23.26 27.31,23.18 z" id="p3402" style="opacity:1;fill:#733e26;fill-opacity:0.54;fill-rule:nonzero;stroke:none;marker:none;visibility:visible;display:inline;overflow:visible;enable-background:accumulate"/>
<path d="M 22.13,41.16 C 22.13,43.04 23.24,46.29 24.44,46.71" id="p3506" style="opacity:1;fill:none;fill-opacity:1;fill-rule:nonzero;stroke:#5a3518;stroke-width:4.48;stroke-linecap:round;stroke-linejoin:miter;marker:none;stroke-miterlimit:4;stroke-dasharray:none;stroke-dashoffset:0;stroke-opacity:0.20;visibility:visible;display:inline;overflow:visible;enable-background:accumulate"/>
<path d="M 18.71,48.34 C 18.88,47.14 20.59,42.18 21.96,40.90 C 22.99,39.19 24.36,35.60 23.67,30.81" id="p3504" style="opacity:1;fill:none;fill-opacity:1;fill-rule:nonzero;stroke:#d4ac7c;stroke-width:2.5;stroke-linecap:round;stroke-linejoin:miter;marker:none;stroke-miterlimit:4;stroke-dasharray:none;stroke-dashoffset:0;stroke-opacity:0.10;visibility:visible;display:inline;overflow:visible;enable-background:accumulate"/>
<path d="M 18.90,20.62 C 18.70,20.63 18.44,20.71 18.12,20.90 C 16.83,21.66 17.53,27.50 18.06,29.62 C 18.59,31.74 17.98,34.18 18.43,35.62 C 18.89,37.06 16.09,40.09 14.12,41.68 C 12.76,42.78 10.38,46.03 9,48 L 15.06,48 C 16.53,46.27 15.49,43.58 16.90,42.53 C 18.72,41.16 21.16,38.58 21.84,36.31 C 22.52,34.03 21.62,34.34 21.09,34.34 C 21.85,33.20 21.39,30.62 21.09,29.40 C 20.80,28.25 20.86,25.95 22.28,25 C 22.28,24.97 22.27,24.95 22.28,24.93 C 21.32,25.24 20.12,25.31 19.56,25.31 C 18.34,23.18 19.79,21.81 21.31,21.96 C 19.83,21.28 19.52,20.60 18.90,20.62 z" id="p3412" style="opacity:1;fill:#682d1f;fill-opacity:0.15;fill-rule:nonzero;stroke:none;marker:none;visibility:visible;display:inline;overflow:visible;enable-background:accumulate"/>
<path d="M 16.96,20.03 C 16.03,20.74 15.70,21.91 15.56,23.21 C 15.34,25.15 14.69,25.78 14.37,26.75 C 14.05,27.71 13.83,30.72 13.93,32.43 C 14.04,34.15 12.34,38.86 11.81,39.93 C 11.38,40.78 7.69,44.87 4.62,48 L 6.62,48 C 8.80,45.17 10.83,42.41 12.06,41.31 C 13.57,39.94 16.17,36.16 16.25,34.18 C 16.32,32.21 16.77,26.98 16.62,24.93 C 16.49,23.22 16.22,21.88 16.96,20.03 z" id="p3414" style="opacity:1;fill:#b07956;fill-opacity:0.34;fill-rule:nonzero;stroke:none;marker:none;visibility:visible;display:inline;overflow:visible;enable-background:accumulate"/>
<path d="M 26.09,24.71 C 26.32,25.85 27.23,28.59 26.78,31.62 C 26.32,34.65 25.40,34.88 24.34,35.34 C 24.57,35.87 27.22,37.46 28.06,35.18 C 28.27,34.61 28.36,33.77 28.34,32.81 C 28.27,29.92 27.28,25.91 26.09,24.71 z M 28.34,32.81 C 28.35,33.12 28.37,33.45 28.37,33.81 C 28.67,34.11 28.97,35.77 29.81,38.12 C 30.38,39.73 29.51,41.97 29,44.34 C 29.75,43.48 30.50,42.73 31.21,42.21 C 33.47,40.60 34.86,37.04 35.71,35.21 C 36.16,34.27 36.72,32.90 37.18,31.56 C 36.55,31.91 35.85,32.07 35.28,32 C 35.58,33.51 35.06,34.20 34.53,34.12 C 34.91,34.80 34.05,35.47 33.90,36.31 C 33.83,35.70 33.98,35.41 32.84,34.65 C 33.22,35.03 33.14,36.15 32.84,36.53 C 32.38,35.31 31.25,34.48 30.5,34.40 C 29.74,34.33 28.90,32.75 28.90,32.75 L 28.90,31.84 L 28.31,31.90 C 28.31,31.90 28.32,32.31 28.34,32.81 z M 37.59,26.31 C 37.66,27.22 37.60,28.09 37.25,28.65 C 36.11,30.47 35.27,31.90 36.18,31.37 C 36.58,31.14 37.17,30.51 37.68,30 C 37.85,29.33 37.96,28.72 37.96,28.25 C 37.96,27.35 37.89,26.76 37.59,26.31 z" id="p3416" style="opacity:1;fill:#f0ad7f;fill-opacity:0.35;fill-rule:nonzero;stroke:none;marker:none;visibility:visible;display:inline;overflow:visible;enable-background:accumulate"/>
<path d="M 28.90,34.49 C 29.43,35.48 30.04,36.54 29.96,37.98" id="p3468" style="opacity:1;fill:none;fill-opacity:1;fill-rule:nonzero;stroke:#c4aa8b;stroke-width:2.5;stroke-linecap:round;stroke-linejoin:miter;marker:none;stroke-miterlimit:4;stroke-dasharray:none;stroke-dashoffset:0;stroke-opacity:0.26;visibility:visible;display:inline;overflow:visible;enable-background:accumulate"/>
<path d="M 25.48,20.53 C 22.10,22.03 21.78,23.85 22.26,25.89" id="p3478" style="opacity:1;fill:none;fill-opacity:1;fill-rule:nonzero;stroke:#c4aa8b;stroke-width:2.5;stroke-linecap:round;stroke-linejoin:miter;marker:none;stroke-miterlimit:4;stroke-dasharray:none;stroke-dashoffset:0;stroke-opacity:0.14;visibility:visible;display:inline;overflow:visible;enable-background:accumulate"/>
<path d="M 22.49,23.98 C 23.10,23.94 24.05,23.87 24.43,23.75" id="p3490" style="opacity:1;fill:none;fill-opacity:1;fill-rule:nonzero;stroke:#dda763;stroke-width:1.10;stroke-linecap:round;stroke-linejoin:miter;marker:none;stroke-miterlimit:4;stroke-dasharray:none;stroke-dashoffset:0;stroke-opacity:0.19;visibility:visible;display:inline;overflow:visible;enable-background:accumulate"/>
<path d="M 20.56,25.46 C 21.77,24.85 24.58,24.48 25.41,24.02" id="p3433" style="opacity:1;fill:none;fill-opacity:1;fill-rule:nonzero;stroke:#6a2805;stroke-width:0.5;stroke-linecap:round;stroke-linejoin:miter;marker:none;stroke-miterlimit:4;stroke-dasharray:none;stroke-dashoffset:0;stroke-opacity:0.50;visibility:visible;display:inline;overflow:visible;enable-background:accumulate"/>
<path d="M 25.71,21.82 L 25.71,21.82 C 25.94,22.35 26.09,23.11 25.87,23.72" id="p3435" style="opacity:1;fill:none;fill-opacity:1;fill-rule:nonzero;stroke:#6a2805;stroke-width:0.5;stroke-linecap:round;stroke-linejoin:miter;marker:none;stroke-miterlimit:4;stroke-dasharray:none;stroke-dashoffset:0;stroke-opacity:0.37;visibility:visible;display:inline;overflow:visible;enable-background:accumulate"/>
<path d="M 28.67,20.53 C 28.45,21.29 28.67,21.67 28.37,22.20" id="p3437" style="opacity:1;fill:none;fill-opacity:1;fill-rule:nonzero;stroke:#6a2805;stroke-width:0.5;stroke-linecap:round;stroke-linejoin:miter;marker:none;stroke-miterlimit:4;stroke-dasharray:none;stroke-dashoffset:0;stroke-opacity:0.37;visibility:visible;display:inline;overflow:visible;enable-background:accumulate"/>
<path d="M 28.22,32.44 C 28.22,33.81 28.22,36.54 27.31,38.66" id="p3439" style="opacity:1;fill:none;fill-opacity:1;fill-rule:nonzero;stroke:#6a2805;stroke-width:1.20;stroke-linecap:round;stroke-linejoin:miter;marker:none;stroke-miterlimit:4;stroke-dasharray:none;stroke-dashoffset:0;stroke-opacity:0.37;visibility:visible;display:inline;overflow:visible;enable-background:accumulate"/>
<path d="M 32.16,34.11 C 33.23,34.72 33.76,35.40 33.91,36.08" id="p3441" style="opacity:1;fill:none;fill-opacity:1;fill-rule:nonzero;stroke:#6a2805;stroke-width:0.5;stroke-linecap:round;stroke-linejoin:miter;marker:none;stroke-miterlimit:4;stroke-dasharray:none;stroke-dashoffset:0;stroke-opacity:0.37;visibility:visible;display:inline;overflow:visible;enable-background:accumulate"/>
<path d="M 20.71,27.66 C 22.15,27.51 24.73,26.07 25.49,25.46" id="p3443" style="opacity:1;fill:none;fill-opacity:1;fill-rule:nonzero;stroke:#dda763;stroke-width:1.39;stroke-linecap:round;stroke-linejoin:miter;marker:none;stroke-miterlimit:4;stroke-dasharray:none;stroke-dashoffset:0;stroke-opacity:0.31;visibility:visible;display:inline;overflow:visible;enable-background:accumulate"/>
<path d="M 31.40,16.78 C 31.78,17.46 32.06,18.00 32.15,18.56 C 32.76,18.71 33.47,19.24 34.68,17.65 C 34.71,17.62 34.72,17.59 34.75,17.56 C 34.71,17.50 34.68,17.44 34.65,17.40 C 34.35,17.00 32.35,16.72 31.40,16.78 z" id="p3445" style="opacity:1;fill:#fcbfa4;fill-opacity:0.33;fill-rule:nonzero;stroke:none;marker:none;visibility:visible;display:inline;overflow:visible;enable-background:accumulate"/>
<path d="M 29.89,19.70 C 30.42,19.70 31.48,19.24 31.86,18.63" id="p3447" style="opacity:1;fill:none;fill-opacity:1;fill-rule:nonzero;stroke:#6a2805;stroke-width:1.20;stroke-linecap:round;stroke-linejoin:miter;marker:none;stroke-miterlimit:4;stroke-dasharray:none;stroke-dashoffset:0;stroke-opacity:0.21;visibility:visible;display:inline;overflow:visible;enable-background:accumulate"/>
<path d="M 25.34,38.51 C 25.87,39.73 26.40,40.18 26.02,41.93" id="p3460" style="opacity:1;fill:none;fill-opacity:1;fill-rule:nonzero;stroke:#6a2805;stroke-width:1.70;stroke-linecap:round;stroke-linejoin:miter;marker:none;stroke-miterlimit:4;stroke-dasharray:none;stroke-dashoffset:0;stroke-opacity:0.20;visibility:visible;display:inline;overflow:visible;enable-background:accumulate"/>
<path d="M 20.86,34.41 C 21.62,34.34 23.82,34.11 24.65,34.03" id="p3462" style="opacity:1;fill:none;fill-opacity:1;fill-rule:nonzero;stroke:#dda763;stroke-width:1.10;stroke-linecap:round;stroke-linejoin:miter;marker:none;stroke-miterlimit:4;stroke-dasharray:none;stroke-dashoffset:0;stroke-opacity:0.19;visibility:visible;display:inline;overflow:visible;enable-background:accumulate"/>
<path d="M 24.20,41.32 C 24.65,42.53 26.25,44.88 27.00,45.19" id="p3464" style="opacity:1;fill:none;fill-opacity:1;fill-rule:nonzero;stroke:#dda763;stroke-width:1.60;stroke-linecap:round;stroke-linejoin:miter;marker:none;stroke-miterlimit:4;stroke-dasharray:none;stroke-dashoffset:0;stroke-opacity:0.21;visibility:visible;display:inline;overflow:visible;enable-background:accumulate"/>
<path d="M 26.70,30.77 C 27.00,31.91 27.00,34.26 26.09,35.25" id="p3466" style="opacity:1;fill:none;fill-opacity:1;fill-rule:nonzero;stroke:#dda763;stroke-width:1.70;stroke-linecap:round;stroke-linejoin:miter;marker:none;stroke-miterlimit:4;stroke-dasharray:none;stroke-dashoffset:0;stroke-opacity:0.31;visibility:visible;display:inline;overflow:visible;enable-background:accumulate"/>
<path d="M 23.89,20.76 C 26.25,19.24 28.37,17.34 30.42,18.10" id="p3470" style="opacity:1;fill:none;fill-opacity:1;fill-rule:nonzero;stroke:#8d4a25;stroke-width:1.70;stroke-linecap:round;stroke-linejoin:miter;marker:none;stroke-miterlimit:4;stroke-dasharray:none;stroke-dashoffset:0;stroke-opacity:0.37;visibility:visible;display:inline;overflow:visible;enable-background:accumulate"/>
<path d="M 32.72,22.83 C 32.34,23.64 31.43,24.98 30.63,25.36" id="p3480" style="opacity:1;fill:none;fill-opacity:1;fill-rule:nonzero;stroke:#c4aa8b;stroke-width:1.60;stroke-linecap:round;stroke-linejoin:miter;marker:none;stroke-miterlimit:4;stroke-dasharray:none;stroke-dashoffset:0;stroke-opacity:0.14;visibility:visible;display:inline;overflow:visible;enable-background:accumulate"/>
<path d="M 35.13,24.28 C 34.44,25.03 33.85,26.27 33.74,27.07" id="p3482" style="opacity:1;fill:none;fill-opacity:1;fill-rule:nonzero;stroke:#dda763;stroke-width:1.70;stroke-linecap:round;stroke-linejoin:miter;marker:none;stroke-miterlimit:4;stroke-dasharray:none;stroke-dashoffset:0;stroke-opacity:0.31;visibility:visible;display:inline;overflow:visible;enable-background:accumulate"/>
<path d="M 19.57,27.32 C 21.05,26.87 22.49,26.30 22.95,25.99" id="p3484" style="opacity:1;fill:none;fill-opacity:1;fill-rule:nonzero;stroke:#6a2805;stroke-width:0.69;stroke-linecap:round;stroke-linejoin:miter;marker:none;stroke-miterlimit:4;stroke-dasharray:none;stroke-dashoffset:0;stroke-opacity:0.37;visibility:visible;display:inline;overflow:visible;enable-background:accumulate"/>
<path d="M 21.28,28.50 C 22.19,28.23 22.87,27.66 23.40,27.24" id="p3486" style="opacity:1;fill:none;fill-opacity:1;fill-rule:nonzero;stroke:#6a2805;stroke-width:0.69;stroke-linecap:round;stroke-linejoin:miter;marker:none;stroke-miterlimit:4;stroke-dasharray:none;stroke-dashoffset:0;stroke-opacity:0.27;visibility:visible;display:inline;overflow:visible;enable-background:accumulate"/>
<path d="M 24.58,22.96 C 24.88,23.34 25.11,23.83 25.18,24.02" id="p3488" style="opacity:1;fill:none;fill-opacity:1;fill-rule:nonzero;stroke:#6a2805;stroke-width:0.5;stroke-linecap:round;stroke-linejoin:miter;marker:none;stroke-miterlimit:4;stroke-dasharray:none;stroke-dashoffset:0;stroke-opacity:0.37;visibility:visible;display:inline;overflow:visible;enable-background:accumulate"/>
<path d="M 32.06,18.18 L 33.06,18.43" id="p3496" style="opacity:1;fill:none;fill-opacity:1;fill-rule:nonzero;stroke:#fae9dc;stroke-width:0.80;stroke-linecap:round;stroke-linejoin:miter;marker:none;stroke-miterlimit:4;stroke-dasharray:none;stroke-dashoffset:0;stroke-opacity:0.27;visibility:visible;display:inline;overflow:visible;enable-background:accumulate"/>
<path d="M 35.25,30.93 C 36.25,30.56 37.12,29.25 37.37,28.93" id="p3499" style="opacity:1;fill:none;fill-opacity:1;fill-rule:nonzero;stroke:#efa35e;stroke-width:1.38;stroke-linecap:round;stroke-linejoin:miter;marker:none;stroke-miterlimit:4;stroke-dasharray:none;stroke-dashoffset:0;stroke-opacity:0.25;visibility:visible;display:inline;overflow:visible;enable-background:accumulate"/>
<path d="M 31.81,21.18 C 32.62,20.37 33.50,19.77 34.00,19.77" id="p3502" style="opacity:1;fill:none;fill-opacity:1;fill-rule:nonzero;stroke:#efa35e;stroke-width:1.38;stroke-linecap:round;stroke-linejoin:miter;marker:none;stroke-miterlimit:4;stroke-dasharray:none;stroke-dashoffset:0;stroke-opacity:0.32;visibility:visible;display:inline;overflow:visible;enable-background:accumulate"/>
<path d="M 18.77,19.29 L 18.77,19.29 C 20.01,19.19 21.08,18.81 21.94,18.11 C 22.80,17.42 23.71,17.09 24.24,16.99 C 24.78,16.88 26.01,15.97 26.44,15.91 C 26.87,15.86 28.00,16.07 28.00,16.07" id="p2615" style="opacity:1;fill:none;fill-opacity:1;fill-rule:nonzero;stroke:#301e05;stroke-width:0.5;stroke-linecap:round;stroke-linejoin:round;marker:none;stroke-miterlimit:4;stroke-dasharray:none;stroke-dashoffset:0;stroke-opacity:1;visibility:visible;display:inline;overflow:visible;enable-background:accumulate"/>
<path d="M 23.01,15.48 C 22.21,16.50 22.21,17.42 22.21,17.84" id="p3387" style="opacity:1;fill:none;fill-opacity:1;fill-rule:nonzero;stroke:#301e05;stroke-width:0.5;stroke-linecap:round;stroke-linejoin:round;marker:none;stroke-miterlimit:4;stroke-dasharray:none;stroke-dashoffset:0;stroke-opacity:1;visibility:visible;display:inline;overflow:visible;enable-background:accumulate"/>
<path d="M 33.36,20.85 L 33.36,20.85 C 32.67,21.44 31.92,22.14 31.16,22.46 C 30.41,22.78 28.86,22.51 28.32,22.24 C 28.11,22.73 27.41,23.59 25.85,23.80 C 25.75,23.91 25.59,24.01 25.32,24.07 C 26.55,24.55 27.19,26.27 27.73,28.79 C 28.27,31.31 28.70,33.72 27.89,35.66" id="p3389" style="opacity:1;fill:none;fill-opacity:1;fill-rule:nonzero;stroke:#301e05;stroke-width:0.5;stroke-linecap:round;stroke-linejoin:round;marker:none;stroke-miterlimit:4;stroke-dasharray:none;stroke-dashoffset:0;stroke-opacity:1;visibility:visible;display:inline;overflow:visible;enable-background:accumulate"/>
<path d="M 27.30,27.02 C 28.59,26.16 29.72,25.19 30.25,24.50 C 30.79,23.80 32.51,21.87 32.77,21.44" id="p3391" style="opacity:1;fill:none;fill-opacity:1;fill-rule:nonzero;stroke:#301e05;stroke-width:0.5;stroke-linecap:round;stroke-linejoin:round;marker:none;stroke-miterlimit:4;stroke-dasharray:none;stroke-dashoffset:0;stroke-opacity:1;visibility:visible;display:inline;overflow:visible;enable-background:accumulate"/>
<path d="M 28.37,32.12 C 29.29,31.47 30.63,30.13 31.27,29.54 C 31.92,28.95 34.12,27.72 34.60,27.07 C 35.08,26.43 35.94,25.36 35.94,25.36" id="p3396" style="opacity:1;fill:none;fill-opacity:1;fill-rule:nonzero;stroke:#301e05;stroke-width:0.5;stroke-linecap:round;stroke-linejoin:round;marker:none;stroke-miterlimit:4;stroke-dasharray:none;stroke-dashoffset:0;stroke-opacity:1;visibility:visible;display:inline;overflow:visible;enable-background:accumulate"/>
<path d="M 28.91,32.01 C 28.75,32.76 29.13,33.19 29.45,33.51 C 29.77,33.83 30.25,34.64 31.75,34.26 C 33.26,33.89 34.33,32.71 35.03,31.95 C 35.46,31.85 36.64,31.20 37.17,30.18" id="p3400" style="opacity:1;fill:none;fill-opacity:1;fill-rule:nonzero;stroke:#301e05;stroke-width:0.5;stroke-linecap:round;stroke-linejoin:round;marker:none;stroke-miterlimit:4;stroke-dasharray:none;stroke-dashoffset:0;stroke-opacity:1;visibility:visible;display:inline;overflow:visible;enable-background:accumulate"/>
<path d="M 26.25,48 C 27.89,45.48 29.63,43.35 31.21,42.21 C 33.47,40.60 34.86,37.04 35.71,35.21 C 36.57,33.39 37.96,29.96 37.96,28.25 C 37.96,26.53 37.67,26.00 36.06,25.25 C 36.27,24.49 36.25,22.98 35.93,22.34 C 35.61,21.69 34.11,20.84 33.46,20.84 C 35.82,19.44 34.97,17.83 34.65,17.40 C 34.33,16.97 32.07,16.67 31.21,16.78 C 30.36,16.88 29.29,16.33 28.21,16.12 C 28.00,15.58 27.67,15.15 27.25,14.93 C 26.87,14.74 25.76,14.33 24.84,14.37 C 24.71,14.38 24.58,14.37 24.46,14.40 C 23.50,14.62 22.00,14.73 18.78,19.34 C 16.31,19.66 15.77,21.28 15.56,23.21 C 15.34,25.15 14.69,25.78 14.37,26.75 C 14.05,27.71 13.83,30.72 13.93,32.43 C 14.04,34.15 12.34,38.86 11.81,39.93 C 11.38,40.78 7.69,44.87 4.62,48" id="stroke01" style="opacity:1;fill:none;fill-opacity:1;fill-rule:nonzero;stroke:#301e05;stroke-width:0.5;stroke-linecap:butt;stroke-linejoin:round;marker:none;stroke-miterlimit:4;stroke-dasharray:none;stroke-dashoffset:0;stroke-opacity:1;visibility:visible;display:inline;overflow:visible;enable-background:accumulate"/>
</g>
</svg>
