<?xml version="1.0" encoding="UTF-8" standalone="no"?>
<!DOCTYPE svg PUBLIC "-//W3C//DTD SVG 1.0//EN" "http://www.w3.org/TR/2001/REC-SVG-20010904/DTD/svg10.dtd">
<svg xmlns:svg="http://www.w3.org/2000/svg" xmlns="http://www.w3.org/2000/svg" version="1.0" width="100%" height="100%" viewBox="0 0 48 48" id="_hand01" style="display:inline">
<defs id="defs2818"/>
<g id="hand01">
<path d="M 24.90,4.71 C 23.90,4.81 22.91,5.64 23.06,6.81 C 23.58,10.95 23.95,16.13 24.46,23.12 C 19.41,21.70 18.14,24.31 17.5,26.12 C 14.90,27.16 14.36,31.42 14.75,32.59 C 14.23,33.50 14.12,37.38 15.81,39.71 C 17.13,41.54 20.80,45.79 23.28,48 L 43.5,48 C 40.20,44.72 36.94,41.54 36.40,41 C 35.24,39.83 35.44,35.20 34.71,33.62 C 33.94,31.94 33.40,29.86 32.5,28.43 C 31.63,27.08 31.21,23.51 30.43,22.21 C 29.78,17.94 27.38,9.19 26.68,6.03 C 26.46,5.01 25.68,4.64 24.90,4.71 z" id="p2542" style="opacity:1;fill:#ba6d35;fill-opacity:1;fill-rule:nonzero;stroke:none;marker:none;visibility:visible;display:inline;overflow:visible;enable-background:accumulate"/>
<path d="M 24.90,4.71 C 24.62,4.74 24.35,4.86 24.09,5 C 24.93,5.81 25.01,6.37 25.28,7.78 C 25.64,9.70 27.84,20.80 27.84,22 C 27.84,23.19 26.92,24.56 26.28,24.56 C 26.00,24.56 25.13,23.83 24.25,23.06 C 22.37,22.56 21.03,22.64 20.06,23.03 C 19.75,23.62 19.59,24.28 19.87,24.84 C 20.69,26.49 23.09,28.85 23.09,29.31 C 23.09,29.77 23.27,31.25 23,32.62 C 22.72,33.99 21.51,35.44 20.78,35.62 C 19.40,35.07 18.78,34.71 18.78,34.71 C 18.78,34.71 19.77,35.72 19.59,37.09 C 19.41,38.46 18.59,38.37 18.59,38.37 C 18.59,38.37 21.42,39.20 22.06,38.75 C 22.70,38.29 23.34,37.64 23.34,38.37 C 23.34,38.96 22.30,44.99 24.21,48 L 43.5,48 C 40.20,44.72 36.94,41.54 36.40,41 C 35.24,39.83 35.44,35.20 34.71,33.62 C 33.94,31.94 33.40,29.86 32.5,28.43 C 31.63,27.08 31.21,23.51 30.43,22.21 C 29.78,17.94 27.38,9.19 26.68,6.03 C 26.46,5.01 25.68,4.64 24.90,4.71 z" id="p3532" style="opacity:1;fill:#733e26;fill-opacity:0.54;fill-rule:nonzero;stroke:none;marker:none;visibility:visible;display:inline;overflow:visible;enable-background:accumulate"/>
<path d="M 23.96,16.53 C 24.12,18.60 24.28,20.62 24.46,23.12 C 24.36,23.09 24.26,23.08 24.15,23.06 C 24.16,23.07 24.17,23.08 24.18,23.09 C 24.92,23.55 26.28,22.26 26.28,21.43 C 26.28,20.83 25.15,18.71 23.96,16.53 z M 17.93,25.09 C 17.78,25.40 17.63,25.70 17.53,26 L 19.06,28.40 C 19.06,28.40 20.78,28.84 22.34,29.03 C 21.75,27.69 19.71,25.85 17.93,25.09 z M 15.18,38.59 C 15.36,38.99 15.56,39.37 15.81,39.71 C 17.00,41.36 20.11,44.99 22.53,47.31 C 21.68,44.47 23.11,41.30 23.34,40.21 C 23.61,38.93 22.52,38.84 22.06,38.75 C 21.60,39.11 19.86,39.21 18.31,38.93 C 17.63,39.09 16.50,39.06 15.18,38.59 z" id="p3538" style="opacity:1;fill:#f0ad7f;fill-opacity:0.35;fill-rule:nonzero;stroke:none;marker:none;visibility:visible;display:inline;overflow:visible;enable-background:accumulate"/>
<path d="M 18.77,29.36 C 18.68,30.37 17.95,32.52 17.67,32.66 C 17.40,32.79 16.11,32.75 15.70,32.66 C 15.56,29.91 16.30,28.26 17.72,28.21 C 18.36,28.72 18.77,29.13 18.77,29.36 z" id="p3551" style="opacity:1;fill:#fcbfa4;fill-opacity:0.33;fill-rule:nonzero;stroke:none;marker:none;visibility:visible;display:inline;overflow:visible;enable-background:accumulate"/>
<path d="M 24.63,24.87 C 26.78,25.79 27.79,27.02 27.61,27.53 C 27.42,28.03 26.83,29.54 26.83,30.41 C 26.23,30.32 25.91,30.04 25.91,30.04 C 25.91,30.04 25.00,25.88 24.63,24.87 z" id="p3553" style="opacity:1;fill:#581902;fill-opacity:0.33;fill-rule:nonzero;stroke:none;marker:none;visibility:visible;display:inline;overflow:visible;enable-background:accumulate"/>
<path d="M 29.48,24.60 C 29.39,25.24 29.03,27.66 28.29,28.67" id="p3557" style="opacity:1;fill:none;fill-opacity:1;fill-rule:nonzero;stroke:#efa35e;stroke-width:1.38;stroke-linecap:round;stroke-linejoin:miter;marker:none;stroke-miterlimit:4;stroke-dasharray:none;stroke-dashoffset:0;stroke-opacity:0.25;visibility:visible;display:inline;overflow:visible;enable-background:accumulate"/>
<path d="M 22.60,38.80 C 23.83,37.83 24.21,37.25 25.70,37.44 C 27.19,37.63 28.36,37.96 29.01,37.89 C 27.00,38.28 26.16,40.81 26.48,41.65 C 26.80,42.49 26.80,43.72 28.04,44.89 C 25.90,44.95 23.18,47.87 22.60,38.80 z" id="p3573" style="opacity:1;fill:#f0ad7f;fill-opacity:0.35;fill-rule:nonzero;stroke:none;marker:none;visibility:visible;display:inline;overflow:visible;enable-background:accumulate"/>
<path d="M 23.79,37.09 C 23.56,38.14 23.58,41.81 23.67,43.14" id="p3559" style="opacity:1;fill:none;fill-opacity:1;fill-rule:nonzero;stroke:#6a2805;stroke-width:1.20;stroke-linecap:round;stroke-linejoin:miter;marker:none;stroke-miterlimit:4;stroke-dasharray:none;stroke-dashoffset:0;stroke-opacity:0.37;visibility:visible;display:inline;overflow:visible;enable-background:accumulate"/>
<path d="M 25.55,41.58 L 25.55,41.58 C 25.32,43.19 26.87,46.07 30.77,48.32" id="p3561" style="opacity:1;fill:none;fill-opacity:1;fill-rule:nonzero;stroke:#6a2805;stroke-width:1.20;stroke-linecap:round;stroke-linejoin:miter;marker:none;stroke-miterlimit:4;stroke-dasharray:none;stroke-dashoffset:0;stroke-opacity:0.37;visibility:visible;display:inline;overflow:visible;enable-background:accumulate"/>
<path d="M 19.69,35.13 C 20.14,35.77 21.29,37.28 19.96,38.70 C 22.16,39.11 22.94,38.38 23.17,36.73 C 21.33,36.09 20.51,35.59 19.69,35.13 z" id="p3563" style="opacity:1;fill:#581902;fill-opacity:0.33;fill-rule:nonzero;stroke:none;marker:none;visibility:visible;display:inline;overflow:visible;enable-background:accumulate"/>
<path d="M 31.40,28.24 L 31.40,28.24 C 31.14,29.34 31.01,30.58 28.10,31.29 C 30.11,31.16 31.79,31.09 32.44,31.74 C 33.09,30.70 32.50,30.12 31.40,28.24 z" id="p3569" style="opacity:1;fill:#682d1f;fill-opacity:0.15;fill-rule:nonzero;stroke:none;marker:none;visibility:visible;display:inline;overflow:visible;enable-background:accumulate"/>
<path d="M 31.71,34.37 C 31.57,34.36 31.43,34.43 31.28,34.59 C 31.41,35.95 31.60,37.64 30.43,38.81 C 30.69,39.20 33.34,41.25 31.46,43 C 31.59,43.45 32.00,44.06 32.78,44 C 33.55,43.93 34.95,44.11 35.28,47.21 C 35.31,47.55 35.37,47.80 35.43,48 L 36.46,48 C 36.99,47.35 37.58,46.22 38.06,45.65 C 38.53,45.08 39.38,44.83 40.21,44.75 C 38.77,43.33 36.69,41.29 36.40,41 C 36.06,40.65 35.85,39.99 35.68,39.21 C 34.47,38.93 33.18,38.05 32.96,36.93 C 32.75,35.83 32.32,34.41 31.71,34.37 z" id="p3571" style="opacity:1;fill:#682d1f;fill-opacity:0.15;fill-rule:nonzero;stroke:none;marker:none;visibility:visible;display:inline;overflow:visible;enable-background:accumulate"/>
<path d="M 22.16,35.17 C 24.91,35.27 27.74,35.54 30.58,33.43" id="p3581" style="opacity:1;fill:none;fill-opacity:1;fill-rule:nonzero;stroke:#dda763;stroke-width:2.5;stroke-linecap:round;stroke-linejoin:miter;marker:none;stroke-miterlimit:4;stroke-dasharray:none;stroke-dashoffset:0;stroke-opacity:0.15;visibility:visible;display:inline;overflow:visible;enable-background:accumulate"/>
<path d="M 22.16,30.78 C 23.44,31.05 25.45,31.42 26.74,31.24" id="p3583" style="opacity:1;fill:none;fill-opacity:1;fill-rule:nonzero;stroke:#dda763;stroke-width:1.70;stroke-linecap:round;stroke-linejoin:miter;marker:none;stroke-miterlimit:4;stroke-dasharray:none;stroke-dashoffset:0;stroke-opacity:0.31;visibility:visible;display:inline;overflow:visible;enable-background:accumulate"/>
<path d="M 20.33,25.83 C 21.43,26.47 21.88,27.30 22.34,28.03" id="p3585" style="opacity:1;fill:none;fill-opacity:1;fill-rule:nonzero;stroke:#dda763;stroke-width:1.70;stroke-linecap:round;stroke-linejoin:miter;marker:none;stroke-miterlimit:4;stroke-dasharray:none;stroke-dashoffset:0;stroke-opacity:0.31;visibility:visible;display:inline;overflow:visible;enable-background:accumulate"/>
<path d="M 27.93,24.31 C 27.93,24.93 27.48,25.72 27.48,25.72" id="p3592" style="opacity:1;fill:none;fill-opacity:1;fill-rule:nonzero;stroke:#efa35e;stroke-width:0.98;stroke-linecap:round;stroke-linejoin:miter;marker:none;stroke-miterlimit:4;stroke-dasharray:none;stroke-dashoffset:0;stroke-opacity:0.19;visibility:visible;display:inline;overflow:visible;enable-background:accumulate"/>
<path d="M 24.57,11.49 C 25.19,11.31 25.94,11.49 26.38,11.49" id="p3594" style="opacity:1;fill:none;fill-opacity:1;fill-rule:nonzero;stroke:#f7c08b;stroke-width:0.89;stroke-linecap:round;stroke-linejoin:miter;marker:none;stroke-miterlimit:4;stroke-dasharray:none;stroke-dashoffset:0;stroke-opacity:0.11;visibility:visible;display:inline;overflow:visible;enable-background:accumulate"/>
<path d="M 25.63,16.53 C 26.33,16.35 27.48,16.44 28.01,16.53" id="p3596" style="opacity:1;fill:none;fill-opacity:1;fill-rule:nonzero;stroke:#f7c08b;stroke-width:0.89;stroke-linecap:round;stroke-linejoin:miter;marker:none;stroke-miterlimit:4;stroke-dasharray:none;stroke-dashoffset:0;stroke-opacity:0.11;visibility:visible;display:inline;overflow:visible;enable-background:accumulate"/>
<path d="M 24.30,23.86 C 25.01,23.69 26.07,24.04 26.51,24.31" id="p3598" style="opacity:1;fill:none;fill-opacity:1;fill-rule:nonzero;stroke:#f7c08b;stroke-width:0.60;stroke-linecap:round;stroke-linejoin:miter;marker:none;stroke-miterlimit:4;stroke-dasharray:none;stroke-dashoffset:0;stroke-opacity:0.18;visibility:visible;display:inline;overflow:visible;enable-background:accumulate"/>
<path d="M 22.80,31.82 C 22.36,33.15 22.62,33.15 22.18,33.94" id="p3600" style="opacity:1;fill:none;fill-opacity:1;fill-rule:nonzero;stroke:#f7c08b;stroke-width:0.5;stroke-linecap:round;stroke-linejoin:miter;marker:none;stroke-miterlimit:4;stroke-dasharray:none;stroke-dashoffset:0;stroke-opacity:0.25;visibility:visible;display:inline;overflow:visible;enable-background:accumulate"/>
<path d="M 21.65,32.09 C 21.21,32.88 21.21,34.03 21.30,34.38" id="p3602" style="opacity:1;fill:none;fill-opacity:1;fill-rule:nonzero;stroke:#f7c08b;stroke-width:0.5;stroke-linecap:round;stroke-linejoin:miter;marker:none;stroke-miterlimit:4;stroke-dasharray:none;stroke-dashoffset:0;stroke-opacity:0.25;visibility:visible;display:inline;overflow:visible;enable-background:accumulate"/>
<path d="M 26.42,39.33 C 27.04,40.84 27.04,41.28 28.19,42.78" id="p3604" style="opacity:1;fill:none;fill-opacity:1;fill-rule:nonzero;stroke:#c5a589;stroke-width:4.48;stroke-linecap:round;stroke-linejoin:miter;marker:none;stroke-miterlimit:4;stroke-dasharray:none;stroke-dashoffset:0;stroke-opacity:0.12;visibility:visible;display:inline;overflow:visible;enable-background:accumulate"/>
<path d="M 30.84,28.64 C 30.49,29.17 30.40,29.43 29.78,29.96" id="p3606" style="opacity:1;fill:none;fill-opacity:1;fill-rule:nonzero;stroke:#efa35e;stroke-width:0.98;stroke-linecap:round;stroke-linejoin:miter;marker:none;stroke-miterlimit:4;stroke-dasharray:none;stroke-dashoffset:0;stroke-opacity:0.14;visibility:visible;display:inline;overflow:visible;enable-background:accumulate"/>
<path d="M 19.09,25.63 C 19.44,25.19 20.32,24.48 20.77,24.40" id="p3608" style="opacity:1;fill:none;fill-opacity:1;fill-rule:nonzero;stroke:#efa35e;stroke-width:1.38;stroke-linecap:round;stroke-linejoin:miter;marker:none;stroke-miterlimit:4;stroke-dasharray:none;stroke-dashoffset:0;stroke-opacity:0.25;visibility:visible;display:inline;overflow:visible;enable-background:accumulate"/>
<path d="M 17.85,29.43 C 17.85,29.43 18.20,29.52 18.56,29.61" id="p3610" style="opacity:1;fill:none;fill-opacity:1;fill-rule:nonzero;stroke:#fae9dc;stroke-width:0.80;stroke-linecap:round;stroke-linejoin:miter;marker:none;stroke-miterlimit:4;stroke-dasharray:none;stroke-dashoffset:0;stroke-opacity:0.27;visibility:visible;display:inline;overflow:visible;enable-background:accumulate"/>
<path d="M 26.38,29.92 C 26.56,29.26 27.84,27.53 28.15,26.21" id="p3622" style="opacity:1;fill:none;fill-opacity:1;fill-rule:nonzero;stroke:#6a2805;stroke-width:1.20;stroke-linecap:round;stroke-linejoin:miter;marker:none;stroke-miterlimit:4;stroke-dasharray:none;stroke-dashoffset:0;stroke-opacity:0.37;visibility:visible;display:inline;overflow:visible;enable-background:accumulate"/>
<path d="M 25.85,28.51 C 25.89,27.71 25.85,27.58 25.89,26.69" id="p3624" style="opacity:1;fill:none;fill-opacity:1;fill-rule:nonzero;stroke:#6a2805;stroke-width:1.20;stroke-linecap:round;stroke-linejoin:miter;marker:none;stroke-miterlimit:4;stroke-dasharray:none;stroke-dashoffset:0;stroke-opacity:0.37;visibility:visible;display:inline;overflow:visible;enable-background:accumulate"/>
<path d="M 25.18,37.19 C 23.53,37.28 16.94,33.80 16.02,33.07 C 15.11,32.33 15.38,27.39 18.95,28.30 C 22.52,29.22 25.45,29.95 27.01,30.41 C 28.02,30.04 28.57,29.68 29.30,29.04" id="p2752" style="opacity:1;fill:none;fill-opacity:1;fill-rule:nonzero;stroke:#301e05;stroke-width:0.5;stroke-linecap:round;stroke-linejoin:round;marker:none;stroke-miterlimit:4;stroke-dasharray:none;stroke-dashoffset:0;stroke-opacity:1;visibility:visible;display:inline;overflow:visible;enable-background:accumulate"/>
<path d="M 24.45,24.18 C 25.00,25.83 25.82,29.04 25.91,30.14" id="p3524" style="opacity:1;fill:none;fill-opacity:1;fill-rule:nonzero;stroke:#301e05;stroke-width:0.5;stroke-linecap:round;stroke-linejoin:round;marker:none;stroke-miterlimit:4;stroke-dasharray:none;stroke-dashoffset:0;stroke-opacity:1;visibility:visible;display:inline;overflow:visible;enable-background:accumulate"/>
<path d="M 17.76,25.56 C 17.67,26.20 19.04,28.21 19.04,28.21" id="p3526" style="opacity:1;fill:none;fill-opacity:1;fill-rule:nonzero;stroke:#301e05;stroke-width:0.5;stroke-linecap:butt;stroke-linejoin:round;marker:none;stroke-miterlimit:4;stroke-dasharray:none;stroke-dashoffset:0;stroke-opacity:1;visibility:visible;display:inline;overflow:visible;enable-background:accumulate"/>
<path d="M 14.46,35.91 L 14.46,35.91 C 16.02,37.83 19.14,38.65 20.78,38.84 C 22.43,39.02 22.98,38.01 23.17,36.82" id="p3528" style="opacity:1;fill:none;fill-opacity:1;fill-rule:nonzero;stroke:#301e05;stroke-width:0.5;stroke-linecap:round;stroke-linejoin:round;marker:none;stroke-miterlimit:4;stroke-dasharray:none;stroke-dashoffset:0;stroke-opacity:1;visibility:visible;display:inline;overflow:visible;enable-background:accumulate"/>
<path d="M 14.65,31.88 C 15.01,32.24 15.20,32.52 15.66,32.79" id="p3530" style="opacity:1;fill:none;fill-opacity:1;fill-rule:nonzero;stroke:#301e05;stroke-width:0.5;stroke-linecap:round;stroke-linejoin:round;marker:none;stroke-miterlimit:4;stroke-dasharray:none;stroke-dashoffset:0;stroke-opacity:1;visibility:visible;display:inline;overflow:visible;enable-background:accumulate"/>
<path d="M 43.5,48 C 40.20,44.72 36.94,41.54 36.40,41 C 35.24,39.83 35.44,35.20 34.71,33.62 C 33.94,31.94 33.40,29.86 32.5,28.43 C 31.63,27.08 31.21,23.51 30.43,22.21 C 29.78,17.94 27.38,9.19 26.68,6.03 C 26.46,5.01 25.68,4.64 24.90,4.71 C 23.90,4.81 22.91,5.64 23.06,6.81 C 23.58,10.95 23.95,16.13 24.46,23.12 C 19.41,21.70 18.14,24.31 17.5,26.12 C 14.90,27.16 14.36,31.42 14.75,32.59 C 14.23,33.50 14.12,37.38 15.81,39.71 C 17.13,41.54 20.80,45.79 23.28,48" id="stroke01" style="opacity:1;fill:none;fill-opacity:1;fill-rule:nonzero;stroke:#301e05;stroke-width:0.5;stroke-linecap:butt;stroke-linejoin:round;marker:none;stroke-miterlimit:4;stroke-dasharray:none;stroke-dashoffset:0;stroke-opacity:1;visibility:visible;display:inline;overflow:visible;enable-background:accumulate"/>
</g>
</svg>
