<?xml version="1.0" encoding="UTF-8" standalone="no"?>
<!DOCTYPE svg PUBLIC "-//W3C//DTD SVG 1.0//EN" "http://www.w3.org/TR/2001/REC-SVG-20010904/DTD/svg10.dtd">
<svg xmlns:svg="http://www.w3.org/2000/svg" xmlns="http://www.w3.org/2000/svg" version="1.0" width="100%" height="100%" viewBox="0 0 48 48" id="_righthand04" style="display:inline">
<defs id="defs2818"/>
<g id="righthand04">
<path d="M 26.84,2.81 C 25.85,2.86 24.75,3.85 24.75,4.68 C 24.75,6.16 24.46,11.40 24.46,12.75 C 24.46,14.09 23.80,18.13 23.93,19.75 C 24.07,21.36 23.80,22.05 23.40,20.84 C 23.00,19.63 22.32,16.26 21.65,14.78 C 20.98,13.30 20.72,9.80 20.18,7.65 C 19.64,5.50 16.66,6.42 16.93,8.31 C 17.20,10.19 17.74,16.67 17.87,17.75 C 18.00,18.82 19.51,23.66 19.78,24.46 C 20.05,25.27 19.24,25.66 18.84,25.53 C 18.70,25.12 17.33,22.03 16.53,21.5 C 15.72,20.96 14.13,17.88 12.65,16 C 11.17,14.11 9.16,15.99 9.96,17.34 C 10.77,18.68 15.47,27.82 16.28,29.03 C 17.08,30.24 16.81,32.38 17.21,33.59 C 17.62,34.80 20.83,43.02 21.78,44.5 C 22.34,45.37 22.93,46.53 23.65,48 L 37.5,48 C 36.27,45.69 35.08,43.52 34.84,43.15 C 34.30,42.34 34.57,41.14 34.84,40.46 C 35.11,39.79 34.96,34.94 34.96,32.65 C 34.96,30.36 34.17,24.99 34.31,21.5 C 34.44,18.00 36.70,10.99 36.84,7.5 C 36.97,4.00 33.76,4.68 33.5,6.43 C 33.23,8.18 31.74,13.28 31.34,14.5 C 30.94,15.71 29.46,21.21 29.46,21.21 C 29.46,21.21 28.80,21.10 28.53,20.96 C 28.53,20.02 28.64,15.03 28.37,14.09 C 28.10,13.15 28.50,8.73 28.37,4.96 C 28.31,3.32 27.61,2.77 26.84,2.81 z" id="p2531" style="opacity:1;fill:#ba6d35;fill-opacity:1;fill-rule:nonzero;stroke:none;marker:none;visibility:visible;display:inline;overflow:visible;enable-background:accumulate"/>
<path d="M 26.84,2.81 C 26.62,2.82 26.40,2.87 26.18,2.96 C 27.01,3.40 27.5,4.24 27.5,5.37 C 27.5,7.18 26.99,13.08 27.09,13.56 C 27.18,14.03 28.23,18.61 27.09,21.28 C 27.73,21.46 28.28,21.40 28.71,21.03 C 28.65,21.01 28.57,20.99 28.53,20.96 C 28.53,20.02 28.64,15.03 28.37,14.09 C 28.10,13.15 28.50,8.73 28.37,4.96 C 28.31,3.32 27.61,2.77 26.84,2.81 z M 35,5 C 34.89,5.01 34.81,5.06 34.71,5.09 C 35.56,5.58 36.11,6.67 36.06,8.62 C 36.03,9.60 36.02,11.02 36,12.53 C 36.41,10.62 36.79,8.80 36.84,7.5 C 36.91,5.53 35.92,4.87 35,5 z M 18.56,6.40 C 18.26,6.43 17.97,6.55 17.71,6.71 C 18.52,7.08 19.10,7.79 19.31,8.90 C 19.69,10.90 20.65,14.79 21.03,15.84 C 21.41,16.89 22.62,20.60 22.53,22.21 C 23.09,22.37 23.43,22.06 23.53,21.15 C 23.49,21.07 23.44,20.96 23.40,20.84 C 23.00,19.63 22.32,16.26 21.65,14.78 C 20.98,13.30 20.72,9.80 20.18,7.65 C 19.95,6.71 19.25,6.34 18.56,6.40 z M 11.21,15.21 C 10.79,15.23 10.41,15.46 10.15,15.78 C 11.24,15.86 12.01,16.66 12.46,17.56 C 13.13,18.89 15.20,21.64 16.15,22.59 C 17.10,23.54 18.46,26.20 18.56,27.15 C 18.86,26.85 18.95,26.28 18.90,25.53 C 18.88,25.52 18.86,25.53 18.84,25.53 C 18.70,25.12 17.33,22.03 16.53,21.5 C 15.72,20.96 14.13,17.88 12.65,16 C 12.19,15.41 11.68,15.20 11.21,15.21 z M 34.37,20.93 C 33.58,21.54 33.02,22.18 32.71,22.03 C 33.38,22.88 33.47,24.42 32.90,25.28 C 32.33,26.13 30.14,28.30 28.71,28.78 C 28.24,28.30 26.25,27.15 25.68,26.96 C 25.11,26.77 24.92,28.02 25.87,28.40 C 26.82,28.78 29.39,30.41 30.06,31.84 C 30.72,33.27 30.35,34.95 29.59,36 C 28.83,37.04 27.40,39.81 27.78,41.62 C 28.16,43.43 28.34,45.04 26.25,44.37 C 24.36,43.77 27.22,46.94 21.87,44.68 C 22.32,45.40 22.83,46.31 23.37,47.40 C 24.45,46.50 25.65,45.90 26.25,45.90 C 27.01,45.90 29.77,44.38 29.96,45.71 C 30.04,46.24 30.41,47.11 30.81,48 L 37.5,48 C 36.27,45.69 35.08,43.52 34.84,43.15 C 34.30,42.34 34.57,41.14 34.84,40.46 C 35.11,39.79 34.96,34.94 34.96,32.65 C 34.96,30.36 34.17,24.99 34.31,21.5 C 34.31,21.33 34.35,21.12 34.37,20.93 z" id="p2582" style="opacity:1;fill:#733e26;fill-opacity:0.54;fill-rule:nonzero;stroke:none;marker:none;visibility:visible;display:inline;overflow:visible;enable-background:accumulate"/>
<path d="M 17.59,14.56 C 17.71,15.89 17.82,17.36 17.87,17.75 C 18.00,18.82 19.51,23.66 19.78,24.46 C 19.96,25.02 19.62,25.34 19.28,25.46 C 20.02,26.74 21.46,25.93 21.78,25.37 C 22.16,24.70 21.20,23.64 20.25,22.21 C 19.62,21.27 18.56,17.88 17.59,14.56 z M 30.46,17.5 C 29.95,19.36 29.46,21.21 29.46,21.21 C 29.46,21.21 29.08,21.15 28.78,21.06 C 28.76,21.10 28.73,21.14 28.71,21.18 C 24.43,22.89 27.47,26.13 29.28,25.28 C 31.08,24.42 31.28,21.16 31.28,20.21 C 31.28,19.55 31.01,17.77 30.46,17.5 z M 18.28,28.53 C 18.14,28.50 17.97,28.55 17.78,28.68 C 17.22,29.07 16.82,29.24 16.46,29.37 C 17.04,30.61 16.85,32.48 17.21,33.59 C 17.60,34.76 20.60,42.43 21.65,44.28 C 26.08,43.13 21.23,35.47 21.31,34.12 C 21.40,32.50 19.59,34.10 19.31,33.06 C 19.06,32.14 19.25,28.68 18.28,28.53 z" id="p2595" style="opacity:1;fill:#f0ad7f;fill-opacity:0.35;fill-rule:nonzero;stroke:none;marker:none;visibility:visible;display:inline;overflow:visible;enable-background:accumulate"/>
<path d="M 31.21,33.03 C 30.28,33.15 29.10,34.14 28.25,34.21 C 26.82,38.78 28.33,43.13 28.71,44.28 C 29.09,45.42 26.24,45.52 24.53,46.18 C 24.01,46.39 23.58,46.75 23.21,47.15 C 23.36,47.44 23.50,47.68 23.65,48 L 28.25,48 C 28.41,46.92 28.86,45.58 29.59,45.15 C 29.94,45.90 30.36,47.05 30.71,48 L 32.59,48 C 32.22,46.83 31.79,45.15 32.15,44.65 C 32.63,43.99 31.30,42.29 31.87,41.25 C 32.44,40.20 33.01,34.10 32.06,33.25 C 31.82,33.03 31.53,32.98 31.21,33.03 z" id="p3376" style="opacity:1;fill:#f0ad7f;fill-opacity:0.12;fill-rule:nonzero;stroke:none;marker:none;visibility:visible;display:inline;overflow:visible;enable-background:accumulate"/>
<path d="M 21.87,31.16 C 21.21,32.30 21.68,32.78 23.01,32.78 C 22.73,35.25 23.20,40.10 24.25,41.05 C 24.63,40.86 24.63,40.96 24.92,40.67 C 25.49,42.29 27.29,45.62 27.96,46.00 C 28.34,45.52 28.53,45.33 27.67,43.91 C 26.82,42.48 25.20,40.10 24.92,38.10 C 24.63,36.11 24.63,33.73 24.72,32.02 C 23.96,31.64 23.58,31.64 21.87,31.16 z" id="p3378" style="opacity:1;fill:#682d1f;fill-opacity:0.30;fill-rule:nonzero;stroke:none;marker:none;visibility:visible;display:inline;overflow:visible;enable-background:accumulate"/>
<path d="M 24.53,32.59 C 23.58,38.39 27.01,43.62 27.29,44.00" id="p3389" style="opacity:1;fill:none;fill-opacity:1;fill-rule:nonzero;stroke:#6a2805;stroke-width:1.20;stroke-linecap:round;stroke-linejoin:miter;marker:none;stroke-miterlimit:4;stroke-dasharray:none;stroke-dashoffset:0;stroke-opacity:0.37;visibility:visible;display:inline;overflow:visible;enable-background:accumulate"/>
<path d="M 30.53,45.62 C 30.72,46.66 31.00,47.33 31.29,48" id="p3391" style="opacity:1;fill:none;fill-opacity:1;fill-rule:nonzero;stroke:#6a2805;stroke-width:1.20;stroke-linecap:round;stroke-linejoin:miter;marker:none;stroke-miterlimit:4;stroke-dasharray:none;stroke-dashoffset:0;stroke-opacity:0.37;visibility:visible;display:inline;overflow:visible;enable-background:accumulate"/>
<path d="M 30.43,33.63 C 29.67,35.25 29.01,36.30 28.15,36.68" id="p3395" style="opacity:1;fill:none;fill-opacity:1;fill-rule:nonzero;stroke:#dda763;stroke-width:1.38;stroke-linecap:round;stroke-linejoin:miter;marker:none;stroke-miterlimit:4;stroke-dasharray:none;stroke-dashoffset:0;stroke-opacity:0.12;visibility:visible;display:inline;overflow:visible;enable-background:accumulate"/>
<path d="M 24.44,29.83 C 25.11,30.02 27.20,31.44 27.67,32.11" id="p3397" style="opacity:1;fill:none;fill-opacity:1;fill-rule:nonzero;stroke:#f2b177;stroke-width:1.38;stroke-linecap:round;stroke-linejoin:miter;marker:none;stroke-miterlimit:4;stroke-dasharray:none;stroke-dashoffset:0;stroke-opacity:0.25;visibility:visible;display:inline;overflow:visible;enable-background:accumulate"/>
<path d="M 29.39,46.38 L 30.05,47.90" id="p3399" style="opacity:1;fill:none;fill-opacity:1;fill-rule:nonzero;stroke:#f2b177;stroke-width:1.38;stroke-linecap:round;stroke-linejoin:miter;marker:none;stroke-miterlimit:4;stroke-dasharray:none;stroke-dashoffset:0;stroke-opacity:0.25;visibility:visible;display:inline;overflow:visible;enable-background:accumulate"/>
<path d="M 20.35,35.06 C 20.44,36.20 21.49,39.34 22.06,40.10" id="p3401" style="opacity:1;fill:none;fill-opacity:1;fill-rule:nonzero;stroke:#f2b177;stroke-width:1.38;stroke-linecap:round;stroke-linejoin:miter;marker:none;stroke-miterlimit:4;stroke-dasharray:none;stroke-dashoffset:0;stroke-opacity:0.25;visibility:visible;display:inline;overflow:visible;enable-background:accumulate"/>
<path d="M 18.07,30.59 C 18.16,31.54 18.35,32.11 18.73,32.78" id="p3403" style="opacity:1;fill:none;fill-opacity:1;fill-rule:nonzero;stroke:#f2b177;stroke-width:1.38;stroke-linecap:round;stroke-linejoin:miter;marker:none;stroke-miterlimit:4;stroke-dasharray:none;stroke-dashoffset:0;stroke-opacity:0.25;visibility:visible;display:inline;overflow:visible;enable-background:accumulate"/>
<path d="M 25.96,34.30 C 25.77,35.15 25.58,36.20 25.87,36.87" id="p3410" style="opacity:1;fill:none;fill-opacity:1;fill-rule:nonzero;stroke:#f2b177;stroke-width:1.77;stroke-linecap:round;stroke-linejoin:miter;marker:none;stroke-miterlimit:4;stroke-dasharray:none;stroke-dashoffset:0;stroke-opacity:0.25;visibility:visible;display:inline;overflow:visible;enable-background:accumulate"/>
<path d="M 27.10,41.53 C 27.39,42.19 27.77,43.33 28.05,43.81" id="p3412" style="opacity:1;fill:none;fill-opacity:1;fill-rule:nonzero;stroke:#f2b177;stroke-width:1.38;stroke-linecap:round;stroke-linejoin:miter;marker:none;stroke-miterlimit:4;stroke-dasharray:none;stroke-dashoffset:0;stroke-opacity:0.25;visibility:visible;display:inline;overflow:visible;enable-background:accumulate"/>
<path d="M 20.25,32.30 C 21.02,32.21 22.44,32.02 23.20,31.73" id="p3414" style="opacity:1;fill:none;fill-opacity:1;fill-rule:nonzero;stroke:#6a2805;stroke-width:1.20;stroke-linecap:round;stroke-linejoin:miter;marker:none;stroke-miterlimit:4;stroke-dasharray:none;stroke-dashoffset:0;stroke-opacity:0.2;visibility:visible;display:inline;overflow:visible;enable-background:accumulate"/>
<path d="M 33.5,32.87 C 33.36,32.85 33.19,32.94 33,33.15 C 32.90,34.77 31.97,36.01 31.87,37.15 C 31.77,38.29 33.57,43.23 32.71,44.37 C 31.86,45.51 33.94,44.77 33.56,45.34 C 33.24,45.82 31.66,47.18 31,48 L 33.37,48 C 33.98,47.02 34.66,46.09 35,46.28 C 35.24,46.42 35.88,47.17 36.56,48 L 37.12,48 C 35.65,45.52 33.91,42.27 33.96,40.68 C 34.05,38.35 34.42,33.02 33.5,32.87 z" id="p3416" style="opacity:1;fill:#682d1f;fill-opacity:0.15;fill-rule:nonzero;stroke:none;marker:none;visibility:visible;display:inline;overflow:visible;enable-background:accumulate"/>
<path d="M 22.01,26.59 C 21.54,27.21 21.63,28.83 21.73,29.16 C 21.06,29.45 19.49,28.97 19.73,27.59 C 19.97,26.21 21.35,26.59 22.01,26.59 z" id="p3422" style="opacity:1;fill:#fcbfa4;fill-opacity:0.33;fill-rule:nonzero;stroke:none;marker:none;visibility:visible;display:inline;overflow:visible;enable-background:accumulate"/>
<path d="M 20.06,28.69 L 20.54,28.97" id="p3425" style="opacity:1;fill:none;fill-opacity:1;fill-rule:nonzero;stroke:#fae9dc;stroke-width:0.80;stroke-linecap:round;stroke-linejoin:miter;marker:none;stroke-miterlimit:4;stroke-dasharray:none;stroke-dashoffset:0;stroke-opacity:0.27;visibility:visible;display:inline;overflow:visible;enable-background:accumulate"/>
<path d="M 23.54,45.85 C 23.92,46.14 24.20,46.57 24.53,46.71" id="p3427" style="opacity:1;fill:none;fill-opacity:1;fill-rule:nonzero;stroke:#6a2805;stroke-width:1.89;stroke-linecap:round;stroke-linejoin:miter;marker:none;stroke-miterlimit:4;stroke-dasharray:none;stroke-dashoffset:0;stroke-opacity:0.2;visibility:visible;display:inline;overflow:visible;enable-background:accumulate"/>
<path d="M 25.98,14.32 C 25.54,14.58 25.10,15.29 25.01,15.82" id="p3429" style="opacity:1;fill:none;fill-opacity:1;fill-rule:nonzero;stroke:#f2b177;stroke-width:1.38;stroke-linecap:round;stroke-linejoin:miter;marker:none;stroke-miterlimit:4;stroke-dasharray:none;stroke-dashoffset:0;stroke-opacity:0.25;visibility:visible;display:inline;overflow:visible;enable-background:accumulate"/>
<path d="M 19.00,18.47 C 19.00,18.47 20.06,18.47 20.41,18.56" id="p3431" style="opacity:1;fill:none;fill-opacity:1;fill-rule:nonzero;stroke:#f2b177;stroke-width:1.38;stroke-linecap:round;stroke-linejoin:miter;marker:none;stroke-miterlimit:4;stroke-dasharray:none;stroke-dashoffset:0;stroke-opacity:0.25;visibility:visible;display:inline;overflow:visible;enable-background:accumulate"/>
<path d="M 19.09,13.26 C 19.44,13.17 20.24,13.08 20.59,13.17" id="p3433" style="opacity:1;fill:none;fill-opacity:1;fill-rule:nonzero;stroke:#6a2805;stroke-width:0.80;stroke-linecap:round;stroke-linejoin:miter;marker:none;stroke-miterlimit:4;stroke-dasharray:none;stroke-dashoffset:0;stroke-opacity:0.21;visibility:visible;display:inline;overflow:visible;enable-background:accumulate"/>
<path d="M 25.72,13.35 C 26.51,13.35 27.48,13.35 27.84,14.14" id="p3435" style="opacity:1;fill:none;fill-opacity:1;fill-rule:nonzero;stroke:#6a2805;stroke-width:0.80;stroke-linecap:round;stroke-linejoin:miter;marker:none;stroke-miterlimit:4;stroke-dasharray:none;stroke-dashoffset:0;stroke-opacity:0.21;visibility:visible;display:inline;overflow:visible;enable-background:accumulate"/>
<path d="M 26.78,8.57 C 27.22,8.57 27.57,8.66 27.75,8.93" id="p3437" style="opacity:1;fill:none;fill-opacity:1;fill-rule:nonzero;stroke:#6a2805;stroke-width:0.80;stroke-linecap:round;stroke-linejoin:miter;marker:none;stroke-miterlimit:4;stroke-dasharray:none;stroke-dashoffset:0;stroke-opacity:0.21;visibility:visible;display:inline;overflow:visible;enable-background:accumulate"/>
<path d="M 23.33,21.21 C 23.06,21.83 22.98,22.45 22.00,22.98" id="p3439" style="opacity:1;fill:none;fill-opacity:1;fill-rule:nonzero;stroke:#7e4503;stroke-width:0.80;stroke-linecap:round;stroke-linejoin:miter;marker:none;stroke-miterlimit:4;stroke-dasharray:none;stroke-dashoffset:0;stroke-opacity:0.55;visibility:visible;display:inline;overflow:visible;enable-background:accumulate"/>
<path d="M 25.01,23.42 C 24.92,23.95 25.01,26.16 25.01,26.61 C 25.80,26.78 27.48,27.84 27.93,28.20 C 28.72,27.75 29.96,26.87 30.31,26.34 C 30.05,26.25 29.61,25.46 29.52,25.10 C 29.16,25.46 28.63,26.52 28.37,26.61 C 27.84,26.16 26.42,25.99 25.98,25.90 C 26.16,24.40 26.16,24.48 25.01,23.42 z" id="p3441" style="opacity:1;fill:#733e26;fill-opacity:0.44;fill-rule:nonzero;stroke:none;marker:none;visibility:visible;display:inline;overflow:visible;enable-background:accumulate"/>
<path d="M 15.29,22.98 C 15.29,22.63 16.08,22.10 16.61,22.45" id="p3443" style="opacity:1;fill:none;fill-opacity:1;fill-rule:nonzero;stroke:#8a4106;stroke-width:1.10;stroke-linecap:round;stroke-linejoin:miter;marker:none;stroke-miterlimit:4;stroke-dasharray:none;stroke-dashoffset:0;stroke-opacity:0.30;visibility:visible;display:inline;overflow:visible;enable-background:accumulate"/>
<path d="M 13.08,20.15 C 13.52,19.36 13.87,19.27 13.78,18.65" id="p3445" style="opacity:1;fill:none;fill-opacity:1;fill-rule:nonzero;stroke:#6a2805;stroke-width:0.80;stroke-linecap:round;stroke-linejoin:miter;marker:none;stroke-miterlimit:4;stroke-dasharray:none;stroke-dashoffset:0;stroke-opacity:0.21;visibility:visible;display:inline;overflow:visible;enable-background:accumulate"/>
<path d="M 31.55,16.00 C 31.37,16.88 30.40,19.89 30.31,20.59" id="p3456" style="opacity:1;fill:none;fill-opacity:1;fill-rule:nonzero;stroke:#f2b177;stroke-width:1.38;stroke-linecap:round;stroke-linejoin:miter;marker:none;stroke-miterlimit:4;stroke-dasharray:none;stroke-dashoffset:0;stroke-opacity:0.25;visibility:visible;display:inline;overflow:visible;enable-background:accumulate"/>
<path d="M 33.32,10.52 C 33.05,10.96 32.88,11.76 32.88,11.76" id="p3458" style="opacity:1;fill:none;fill-opacity:1;fill-rule:nonzero;stroke:#f2b177;stroke-width:1.38;stroke-linecap:round;stroke-linejoin:miter;marker:none;stroke-miterlimit:4;stroke-dasharray:none;stroke-dashoffset:0;stroke-opacity:0.25;visibility:visible;display:inline;overflow:visible;enable-background:accumulate"/>
<path d="M 27.93,27.58 C 28.28,27.49 28.90,27.05 29.34,26.61" id="p3460" style="opacity:1;fill:none;fill-opacity:1;fill-rule:nonzero;stroke:#6a2805;stroke-width:1.20;stroke-linecap:round;stroke-linejoin:miter;marker:none;stroke-miterlimit:4;stroke-dasharray:none;stroke-dashoffset:0;stroke-opacity:0.37;visibility:visible;display:inline;overflow:visible;enable-background:accumulate"/>
<path d="M 31.99,24.66 C 32.08,25.37 31.11,26.25 30.40,26.87" id="p3462" style="opacity:1;fill:none;fill-opacity:1;fill-rule:nonzero;stroke:#f2b177;stroke-width:0.98;stroke-linecap:round;stroke-linejoin:miter;marker:none;stroke-miterlimit:4;stroke-dasharray:none;stroke-dashoffset:0;stroke-opacity:0.25;visibility:visible;display:inline;overflow:visible;enable-background:accumulate"/>
<path d="M 34.90,33.00 C 33.83,31.11 31.13,29.63 29.99,29.30 C 28.85,28.96 26.16,26.94 25.08,26.61 C 24.01,26.27 20.78,26.67 20.37,26.61 C 19.97,26.54 18.76,29.23 20.51,30.44 C 22.26,31.65 23.80,31.32 24.75,32.06 C 25.69,32.80 26.23,33.27 27.03,33.47" id="p2577" style="opacity:1;fill:none;fill-opacity:1;fill-rule:nonzero;stroke:#301e05;stroke-width:0.5;stroke-linecap:round;stroke-linejoin:round;marker:none;stroke-miterlimit:4;stroke-dasharray:none;stroke-dashoffset:0;stroke-opacity:1;visibility:visible;display:inline;overflow:visible;enable-background:accumulate"/>
<path d="M 24.75,32.12 L 24.75,32.12 C 24.48,35.49 24.75,38.04 25.08,39.05" id="p2579" style="opacity:1;fill:none;fill-opacity:1;fill-rule:nonzero;stroke:#301e05;stroke-width:0.5;stroke-linecap:round;stroke-linejoin:round;marker:none;stroke-miterlimit:4;stroke-dasharray:none;stroke-dashoffset:0;stroke-opacity:1;visibility:visible;display:inline;overflow:visible;enable-background:accumulate"/>
<path d="M 37.5,48 C 36.27,45.69 35.08,43.52 34.84,43.15 C 34.30,42.34 34.57,41.14 34.84,40.46 C 35.11,39.79 34.96,34.94 34.96,32.65 C 34.96,30.36 34.17,24.99 34.31,21.5 C 34.44,18.00 36.70,10.99 36.84,7.5 C 36.97,4.00 33.76,4.68 33.5,6.43 C 33.23,8.18 31.74,13.28 31.34,14.5 C 30.94,15.71 29.46,21.21 29.46,21.21 C 29.46,21.21 28.80,21.10 28.53,20.96 C 28.53,20.02 28.64,15.03 28.37,14.09 C 28.10,13.15 28.50,8.73 28.37,4.96 C 28.31,3.32 27.61,2.77 26.84,2.81 C 25.85,2.86 24.75,3.85 24.75,4.68 C 24.75,6.16 24.46,11.40 24.46,12.75 C 24.46,14.09 23.80,18.13 23.93,19.75 C 24.07,21.36 23.80,22.05 23.40,20.84 C 23.00,19.63 22.32,16.26 21.65,14.78 C 20.98,13.30 20.72,9.80 20.18,7.65 C 19.64,5.50 16.66,6.42 16.93,8.31 C 17.20,10.19 17.74,16.67 17.87,17.75 C 18.00,18.82 19.51,23.66 19.78,24.46 C 20.05,25.27 19.24,25.66 18.84,25.53 C 18.70,25.12 17.33,22.03 16.53,21.5 C 15.72,20.96 14.13,17.88 12.65,16 C 11.17,14.11 9.16,15.99 9.96,17.34 C 10.77,18.68 15.47,27.82 16.28,29.03 C 17.08,30.24 16.81,32.38 17.21,33.59 C 17.62,34.80 20.83,43.02 21.78,44.5 C 22.34,45.37 22.93,46.53 23.65,48" id="stroke01" style="opacity:1;fill:none;fill-opacity:1;fill-rule:nonzero;stroke:#301e05;stroke-width:0.5;stroke-linecap:butt;stroke-linejoin:round;marker:none;stroke-miterlimit:4;stroke-dasharray:none;stroke-dashoffset:0;stroke-opacity:1;visibility:visible;display:inline;overflow:visible;enable-background:accumulate"/>
</g>
</svg>
