<?xml version="1.0" encoding="UTF-8" standalone="no"?>
<!DOCTYPE svg PUBLIC "-//W3C//DTD SVG 1.0//EN" "http://www.w3.org/TR/2001/REC-SVG-20010904/DTD/svg10.dtd">
<svg xmlns:svg="http://www.w3.org/2000/svg" xmlns="http://www.w3.org/2000/svg" version="1.0" width="100%" height="100%" viewBox="0 0 48 48" id="_lefthand10" style="display:inline">
    <defs id="defs2818"/>
<g id="lefthand10">
<path d="M 29.39,3.53 C 30.28,3.55 31.01,4.27 31.04,5.15 C 31.10,6.7 30.45,9.39 30.04,10.61 C 29.64,11.83 29.72,15.06 29.48,15.98 C 29.12,17.35 28.02,21.84 27.83,22.82 C 27.59,24.06 28.04,23.91 28.11,23.75 C 28.24,23.4 28.92,20.47 29.33,19.5 C 29.74,18.52 31.16,13.63 31.48,12.65 C 31.81,11.67 31.99,9.13 32.67,7.71 C 33.57,5.84 36.20,6.85 36.13,8.58 C 36.08,9.97 35.88,11.11 35.23,12.58 C 34.58,14.04 34.31,17.85 33.73,19.89 C 33.16,21.93 31.85,25.7 31.61,26.35 C 31.37,27 31.51,27.43 32.23,28 C 32.96,28.57 33.61,26.59 35.69,24.63 C 36.87,23.52 37.95,21.78 38.44,21.04 C 38.92,20.31 39.83,18.45 41.28,17.51 C 42.70,16.59 44.69,17.91 43.74,19.82 C 42.53,22.27 38.88,26.93 38.03,27.88 C 37.43,28.55 36.00,30.42 35.10,31.56 C 34.21,32.7 33.98,35.22 33.32,36.77 C 32.67,38.32 31.77,39.8 30.79,41.27 C 29.82,42.73 29.47,43.7 28.73,44.52 C 28.00,45.33 27.52,47.13 27.36,47.3 C 27.28,47.38 27.26,47.61 27.27,47.95 L 12.65,47.95 C 12.56,47.14 12.43,46.14 12.12,44.77 C 11.61,42.49 10.89,42.58 10.41,41.12 C 9.75,39.11 9.77,38.09 9.45,36.84 C 8.99,35.03 8.64,31.36 8.42,30.5 C 8.09,29.2 6.76,26.53 6.71,24.25 C 6.66,22.16 5.36,19.19 5.62,18 C 5.72,17.86 6.92,17.44 8.46,18.4 C 10.29,19.54 10.92,22.08 10.92,23.8 C 12.80,26.35 12.43,29.82 13.98,28.62 C 15.76,27.25 17.06,24.22 18.23,20.56 C 19.67,16.09 19.36,14.64 19.92,13.46 C 20.84,11.55 21.25,7.41 23.05,5.78 C 24.84,4.14 26.71,6.13 25.48,9.56 C 24.26,12.98 24.51,13.3 24.02,15.99 C 23.54,18.68 22.82,18.77 22.65,21.14 C 22.52,23.06 23.42,22.51 23.77,21.14 C 24.16,19.6 23.77,17.39 25.48,12.9 C 27.20,8.41 26.36,5.69 27.70,4.31 C 28.26,3.73 28.85,3.51 29.39,3.53 z" id="p2842" style="fill:#ba6d35;fill-opacity:1;stroke:none"/>
<path d="M 19.62,23.8 C 18.80,28.2 17.09,33.28 12.23,31.93" id="p4023" style="fill:none;stroke:#e8a86f;stroke-width:3.26;stroke-linecap:round;stroke-linejoin:miter;stroke-miterlimit:4;stroke-dasharray:none;stroke-opacity:0.47"/>
<path d="M 42.42,17.21 C 42.89,17.24 43.30,17.48 43.60,17.83 C 42.66,18.14 42.08,18.86 41.76,19.83 C 41.28,21.29 39.88,23.13 38.51,24.01 C 37.15,24.89 35.88,27.83 34.61,29.69 C 33.34,31.54 31.80,33.3 31.02,33.5 C 30.36,33.66 32.49,30.28 32.36,28.07 C 33.04,28.31 33.75,26.47 35.70,24.64 C 36.88,23.53 37.96,21.79 38.45,21.05 C 38.94,20.32 39.85,18.46 41.30,17.53 C 41.65,17.29 42.05,17.19 42.42,17.21 z" id="p3665" style="fill:#f0ad7f;fill-opacity:0.35;stroke:none"/>
<path d="M 25.49,7.03 C 25.31,8.4 24.70,10.49 24.34,11.82 C 23.98,13.15 23.84,15.78 22.76,17.41" id="p3926" style="fill:none;stroke:#893d0f;stroke-width:0.69;stroke-linecap:round;stroke-linejoin:miter;marker:none;stroke-miterlimit:4;stroke-dasharray:none;stroke-dashoffset:0;stroke-opacity:0.66;visibility:visible;display:inline;overflow:visible;enable-background:accumulate"/>
<path d="M 24.36,5.18 C 24.48,5.18 24.58,5.23 24.70,5.27 C 23.90,6 23.25,6.9 22.99,8.17 C 22.51,10.51 21.43,13.17 20.84,14.45 C 20.26,15.72 21.04,16.98 20.66,18.45 C 20.27,19.91 20.17,23.81 19.98,25.57 C 19.79,27.33 18.70,28.7 16.45,29.88 C 14.21,31.05 12.16,33.1 11.08,32.22 C 10.01,31.34 8.15,25.49 8.15,24.32 C 8.15,23.38 7.44,20.26 6.03,17.86 C 6.51,17.76 7.39,17.75 8.46,18.42 C 10.29,19.56 10.92,22.1 10.92,23.82 C 12.80,26.35 12.43,29.82 13.98,28.62 C 15.76,27.25 17.06,24.22 18.23,20.56 C 19.67,16.09 19.36,14.64 19.92,13.46 C 20.84,11.55 21.25,7.41 23.05,5.78 C 23.50,5.37 23.95,5.17 24.36,5.18 z" id="p3667" style="fill:#f0ad7f;fill-opacity:0.35;stroke:none"/>
<path d="M 25.41,7.27 C 25.48,6.8 25.70,6.43 25.38,6.14 C 25.05,5.85 23.77,5.3 23.29,5.7 C 22.82,6.1 22.89,6.72 23.11,6.94 C 23.33,7.16 24.46,7.49 25.42,7.27 L 25.41,7.27 z" id="p3941" style="fill:#fcbfa4;fill-opacity:0.33;fill-rule:nonzero;stroke:none;marker:none;visibility:visible;display:inline;overflow:visible;enable-background:accumulate"/>
<path d="M 29.17,3.56 C 29.05,4.83 28.78,6.42 28.64,7.02 C 28.45,7.9 27.77,8.77 27.68,10.23 C 27.59,11.69 26.03,13.94 25.93,15.6 C 25.84,17.26 24.95,21.55 24.56,22.63 C 24.17,23.7 23.98,25.28 23.78,25.97 C 23.59,26.65 24.45,25.77 24.84,24.79 C 25.23,23.82 25.81,24.52 25.62,25.1 C 25.43,25.68 23.97,29.77 23.97,30.75 C 23.97,31.72 23.29,34.16 23.29,31.62 C 23.29,29.08 22.13,27.04 22.33,25.97 C 22.48,25.15 23.14,23.67 23.36,22.1 C 23.52,21.89 23.69,21.56 23.79,21.14 C 24.16,19.6 23.77,17.39 25.48,12.9 C 27.20,8.41 26.36,5.69 27.70,4.31 C 28.19,3.81 28.70,3.6 29.17,3.56 z" id="p3671" style="fill:#f0ad7f;fill-opacity:0.35;stroke:none;display:inline"/>
<path d="M 34.27,6.71 C 33.59,8.47 32.87,10.43 32.87,11.71 C 32.87,13.47 32.68,15.8 32.00,17.36 C 31.32,18.92 30.24,23.73 29.85,25.29 C 29.46,26.85 27.40,32.13 26.32,34.29 C 25.25,36.44 24.28,38.87 24.57,36.72 C 24.86,34.57 24.76,32.61 25.44,30.85 C 26.12,29.09 26.13,27.83 26.72,26.17 C 27.01,25.35 27.35,24.35 27.84,22.92 C 27.64,24.03 28.05,23.91 28.11,23.75 C 28.24,23.4 28.92,20.47 29.33,19.5 C 29.74,18.52 31.16,13.63 31.48,12.65 C 31.81,11.67 31.99,9.13 32.67,7.71 C 33.02,6.97 33.64,6.69 34.26,6.71 L 34.27,6.71 z" id="p3673" style="fill:#f0ad7f;fill-opacity:0.35;stroke:none;display:inline"/>
<path d="M 30.49,23.86 C 29.93,23.83 29.44,23.62 29.44,23.62" id="p3976" style="fill:none;stroke:#deb084;stroke-width:2.06;stroke-linecap:round;stroke-linejoin:miter;stroke-miterlimit:4;stroke-dasharray:none;stroke-opacity:0.2;display:inline"/>
<path d="M 29.39,3.53 C 30.28,3.55 31.01,4.27 31.04,5.15 C 31.10,6.7 30.45,9.39 30.04,10.61 C 29.64,11.83 29.72,15.06 29.48,15.98 C 29.12,17.35 28.02,21.84 27.83,22.82 C 27.60,24.04 28.04,23.89 28.11,23.72 C 28.12,23.69 28.20,23.39 28.23,23.29 C 28.06,25 27.87,27.49 28.20,28.04 C 28.72,28.88 29.44,25.78 29.55,24.34 C 29.65,22.89 31.72,18.03 31.92,17 C 32.13,15.96 32.54,12.67 32.64,12.15 C 32.74,11.63 34.00,11.85 34.20,11.03 C 34.41,10.2 34.00,9.77 33.48,9.46 C 33.16,9.27 33.57,7.88 33.92,6.75 C 34.98,6.57 36.19,7.4 36.14,8.59 C 36.09,9.98 35.89,11.12 35.24,12.59 C 34.59,14.05 34.32,17.86 33.74,19.9 C 33.17,21.94 31.86,25.71 31.62,26.36 C 31.38,27.01 31.52,27.44 32.24,28.01 C 32.62,28.31 32.99,27.88 33.55,27.14 C 33.62,28.31 31.78,29.63 31.21,30.1 C 30.60,30.61 29.88,31.96 30.50,33.41 C 31.11,34.85 31.92,32.39 32.75,31.66 C 33.56,30.96 32.34,30.34 33.27,29.62 C 34.20,28.9 37.41,25.17 38.23,24.34 C 39.06,23.51 40.30,21.23 40.61,20.71 C 40.92,20.2 41.52,21.46 41.83,20.84 C 42.14,20.22 42.47,19.8 41.95,19.5 C 41.62,19.29 42.32,18.52 43.14,17.46 C 43.86,17.85 44.30,18.74 43.76,19.83 C 42.55,22.28 38.90,26.94 38.05,27.89 C 37.45,28.56 36.02,30.43 35.12,31.57 C 34.23,32.71 34.00,35.23 33.34,36.78 C 32.69,38.33 31.79,39.81 30.81,41.28 C 29.84,42.74 29.49,43.71 28.75,44.53 C 28.02,45.34 27.54,47.14 27.38,47.31 C 27.30,47.39 27.28,47.62 27.29,47.96 L 19.17,47.96 C 16.94,46 14.33,45.27 12.17,44.96 C 12.16,44.9 12.16,44.85 12.14,44.78 C 11.63,42.5 10.91,42.59 10.43,41.13 C 9.77,39.12 9.79,38.1 9.47,36.85 C 9.02,35.08 8.66,31.55 8.44,30.6 C 10.94,34.24 13.62,34.52 14.94,34.44 C 16.69,34.34 18.63,31.96 19.25,30.41 C 19.86,28.87 20.08,25.16 20.18,23.51 C 20.24,21.87 21.07,17.84 21.17,17.12 C 21.28,16.4 22.63,16.07 22.73,14.93 C 22.84,13.8 21.48,14.41 21.48,13.28 C 21.48,12.14 23.54,8.73 23.95,7.5 C 24.12,7 24.53,6.18 24.95,5.37 C 25.81,5.88 26.24,7.44 25.48,9.56 C 24.26,12.98 24.51,13.3 24.02,15.99 C 23.54,18.68 22.82,18.77 22.65,21.14 C 22.57,22.27 22.86,22.54 23.18,22.29 C 22.93,23.24 22.34,25.45 22.34,26.38 C 22.34,27.51 23.34,29.88 23.24,30.81 C 23.16,31.53 23.23,33.06 23.30,33.21 C 23.31,33.18 23.34,33.13 23.36,33 C 23.46,31.97 25.21,28.35 25.42,26.69 C 25.62,25.04 25.09,23.07 25.30,21.73 C 25.50,20.39 26.04,17.29 26.14,16.36 C 26.24,15.44 28.21,17.08 28.42,15.65 C 28.62,14.21 27.27,13.19 27.27,13.19 C 27.27,13.19 27.88,9.79 27.98,8.76 C 28.09,7.71 29.23,7 29.33,5.96 C 29.38,5.44 29.22,4.5 29.08,3.56 C 29.19,3.54 29.29,3.52 29.39,3.53 z" id="p2842-1" style="fill:#9f4e2c;fill-opacity:0.27;stroke:none;display:inline"/>
<path d="M 30.63,4.73 C 30.01,4.07 29.35,3.89 28.58,4.07 C 27.81,4.25 28.07,5.02 28.14,5.31 C 28.20,5.62 28.86,5.73 29.34,5.84 C 29.82,5.95 30.44,6.06 30.48,5.87 C 30.52,5.69 30.81,4.95 30.63,4.73 z" id="p3938" style="fill:#fcbfa4;fill-opacity:0.33;fill-rule:nonzero;stroke:none;marker:none;visibility:visible;display:inline;overflow:visible;enable-background:accumulate"/>
<path d="M 35.29,9.47 C 35.62,8.66 35.84,8.44 35.58,7.96 C 35.32,7.49 34.29,6.79 33.49,7.3 C 32.69,7.81 32.91,8.8 32.91,8.98 C 32.91,9.16 34.48,9.67 35.29,9.45 L 35.29,9.47 z" id="p3935" style="fill:#fcbfa4;fill-opacity:0.33;fill-rule:nonzero;stroke:none;marker:none;visibility:visible;display:inline;overflow:visible;enable-background:accumulate"/>
<path d="M 43.56,18.54 C 43.71,19.01 43.33,19.54 43.13,19.77 C 42.93,20 42.80,19.59 42.38,19.39 C 41.95,19.19 41.37,19.12 41.49,18.85 C 41.62,18.57 41.62,18.12 41.97,17.86 C 42.33,17.6 42.71,17.72 43.05,17.92 C 43.38,18.12 43.51,18.3 43.55,18.53 L 43.56,18.54 z" id="p3906" style="fill:#fcbfa4;fill-opacity:0.33;stroke:none;display:inline"/>
<path d="M 42.98,19.86 C 42.53,19.41 41.88,19.12 41.52,19.03" id="p3909" style="fill:none;stroke:#965528;stroke-width:0.30;stroke-linecap:round;stroke-linejoin:miter;stroke-miterlimit:4;stroke-dasharray:none;stroke-opacity:0.91"/>
<path d="M 22.83,31.46 C 25.62,31.52 29.03,33.69 29.92,34.25 C 30.74,34.75 32.09,33.88 34.45,33 C 34.45,33.01 34.45,33.04 34.45,33.06 C 34.26,33.66 34.09,34.3 33.92,34.96 C 33.88,35.14 33.82,35.31 33.77,35.49 C 33.73,35.63 33.69,35.78 33.65,35.92 C 33.63,36 33.59,36.08 33.56,36.17 C 33.49,36.38 33.43,36.6 33.35,36.79 C 32.70,38.34 31.80,39.82 30.82,41.29 C 29.85,42.75 29.50,43.72 28.76,44.54 C 28.67,44.64 28.60,44.75 28.51,44.88 C 28.43,45.01 28.34,45.13 28.26,45.28 C 28.17,45.46 28.07,45.65 27.98,45.84 C 27.94,45.94 27.90,46.05 27.86,46.15 C 27.84,46.21 27.83,46.27 27.80,46.33 C 27.72,46.53 27.65,46.76 27.59,46.92 C 27.58,46.95 27.54,47.01 27.53,47.04 C 27.52,47.09 27.49,47.16 27.44,47.22 C 27.27,47.43 26.89,47.68 26.41,47.93 L 17.82,47.93 C 15.24,45.88 19.04,42.9 20.11,42.96 C 21.37,43.04 22.60,42.89 22.20,42.5 C 21.81,42.11 18.67,40.45 19.30,39.82 C 19.92,39.2 20.33,37.65 20.33,35.29 C 20.33,32.94 18.77,32.28 21.67,31.58 C 22.03,31.5 22.42,31.48 22.82,31.49 L 22.83,31.46 z" id="p3717" style="fill:#4d2311;fill-opacity:0.22;stroke:none;display:inline"/>
<path d="M 24.73,32.59 C 24.80,33.29 24.88,34.08 24.58,35.1 C 24.27,36.12 23.96,37.14 24.65,37.61 C 25.35,38.08 25.75,38.47 25.67,39.02 C 25.60,39.57 23.55,40.98 23.87,41.69 C 24.18,42.39 26.38,44.44 25.20,43.73 C 24.03,43.03 18.53,40.83 19.47,39.33 C 20.41,37.84 20.57,36.66 20.17,35.8 C 19.78,34.94 20.48,32.35 20.56,31.48 C 20.63,30.62 20.41,29.05 21.03,29.05 C 21.65,29.05 22.60,28.98 22.75,28.35 C 22.90,27.73 23.45,30.47 23.37,31.17 C 23.30,31.87 22.20,33.68 22.51,33.92 C 22.82,34.15 24.16,32.98 24.23,32.27 C 24.30,31.57 24.85,31.88 24.70,32.58 L 24.73,32.59 z" id="p3720" style="fill:#ae6b34;fill-opacity:0.5;stroke:none;display:inline"/>
<path d="M 43.45,17.65 C 43.98,18.11 44.22,18.9 43.76,19.83 C 42.55,22.28 38.90,26.94 38.05,27.89 C 37.45,28.56 36.02,30.43 35.12,31.57 C 34.23,32.71 34.00,35.23 33.34,36.78 C 32.69,38.33 31.79,39.81 30.81,41.28 C 29.84,42.74 29.49,43.71 28.75,44.53 C 28.02,45.34 27.54,47.14 27.38,47.31 C 27.30,47.39 27.28,47.62 27.29,47.96 L 22.98,48 C 23.36,47.1 23.66,46.14 23.26,45.94 C 22.48,45.55 19.65,44.98 19.36,44.98 C 19.07,44.98 18.69,43.13 19.86,43.33 C 21.03,43.52 22.20,44.21 24.36,44.7 C 26.51,45.18 23.86,44 21.71,42.05 C 19.56,40.1 24.06,43.7 26.02,43.01 C 27.97,42.33 28.74,38.53 30.02,36.76 C 31.29,35 30.11,35.12 30.80,34.14 C 31.48,33.17 33.43,31.69 34.70,30.52 C 35.97,29.35 35.68,28.37 36.07,27.68 C 36.46,27 36.67,26.6 37.16,27.18 C 37.66,27.74 39.21,25.29 39.80,24.12 C 40.38,22.95 41.36,21.7 42.14,20.53 C 42.74,19.63 43.08,18.93 43.45,17.65 z" id="p3730" style="fill:#733e26;fill-opacity:0.54;stroke:none;display:inline"/>
<path d="M 36.86,29.34 C 36.26,30.1 35.62,30.94 35.11,31.59 C 34.22,32.73 33.99,35.25 33.33,36.8 C 32.68,38.35 31.78,39.83 30.80,41.3 C 29.83,42.76 29.48,43.73 28.74,44.55 C 28.01,45.36 27.53,47.16 27.37,47.33 C 27.29,47.41 27.27,47.64 27.28,47.98 L 25.69,47.98 C 26.08,47.42 26.34,46.87 26.06,46.55 C 25.34,45.73 22.23,45.41 21.81,45.3 C 21.40,45.2 21.21,44.38 22.65,44.59 C 24.09,44.79 27.08,45.72 25.74,44.59 C 24.40,43.46 25.94,43.55 26.77,43.66 C 27.59,43.76 27.80,41.91 28.11,40.57 C 28.41,39.23 30.90,36.97 31.42,36.04 C 31.93,35.12 30.89,34.78 30.89,34.26 C 30.89,33.75 33.56,32.12 34.39,30.98 C 34.95,30.21 35.66,29.94 36.85,29.36 L 36.86,29.34 z" id="p2832" style="fill:#581902;fill-opacity:0.37;stroke:none;display:inline"/>
<path d="M 29.70,3.56 C 30.43,3.72 31.01,4.38 31.04,5.15 C 31.10,6.7 30.45,9.39 30.04,10.61 C 29.64,11.83 29.72,15.06 29.48,15.98 C 29.12,17.35 28.02,21.84 27.83,22.82 C 27.25,24.11 26.33,26.25 26.33,27.22 C 26.33,28.53 25.74,29.93 25.30,30.81 C 24.87,31.68 24.66,34.31 24.37,35.77 C 24.08,37.23 24.50,37.93 24.87,37.64 C 25.23,37.35 28.25,30.49 29.05,29.18 C 29.85,27.87 30.71,22.7 31.73,21.53 C 32.75,20.37 33.10,18.69 32.88,17.82 C 32.67,16.95 32.83,15.97 33.41,15.61 C 33.99,15.25 34.48,12.57 34.78,10.96 C 35.34,7.89 34.72,7.85 33.16,7.06 C 34.28,6.16 36.18,7.11 36.12,8.59 C 36.07,9.98 35.87,11.12 35.22,12.59 C 34.57,14.05 34.30,17.86 33.72,19.9 C 33.15,21.94 31.84,25.71 31.60,26.36 C 31.36,27.01 31.50,27.44 32.22,28.01 C 32.52,28.24 32.83,28.03 33.22,27.58 C 31.43,30.39 29.70,29.8 29.38,30.83 C 29.02,31.99 27.27,35.55 26.54,37.23 C 25.81,38.91 25.17,40.38 24.08,41.48 C 22.99,42.57 24.78,42.63 25.95,44.38 C 27.12,46.15 23.33,43.09 22.02,42 C 20.70,40.9 18.36,40.48 18.80,39.96 C 19.24,39.45 20.35,38.28 20.42,37.62 C 20.50,36.96 21.13,35.64 21.20,36.81 C 21.28,37.98 21.13,39.01 21.64,38.5 C 22.15,37.98 23.78,33.52 23.92,32.93 C 24.07,32.35 24.93,29.45 25.52,27.62 C 26.10,25.79 25.66,23.89 26.39,22.43 C 27.12,20.97 27.93,17.91 28.30,16.75 C 28.66,15.58 28.60,14.17 28.67,12.71 C 28.75,11.25 28.90,9.79 29.27,9.28 C 29.63,8.76 29.54,5.55 29.39,4.53 C 29.34,4.19 29.45,3.86 29.61,3.56 C 29.64,3.56 29.67,3.56 29.70,3.56 z" id="p3756" style="fill:#682d1f;fill-opacity:0.15;stroke:none;display:inline"/>
<path d="M 33.39,21.03 C 32.76,23.1 31.82,25.82 31.61,26.37 C 31.59,26.43 31.60,26.49 31.58,26.55 C 31.36,26.78 31.17,27.12 31.02,27.58 C 30.41,29.51 29.87,30.72 28.02,33.98 C 26.18,37.23 26.62,36.88 26.62,38.82 C 26.62,40.75 25.84,39.95 25.75,38.73 C 25.67,37.5 25.67,36.1 26.71,34.52 C 27.76,32.94 30.03,27.23 30.64,25.56 C 31.10,24.3 32.12,22.39 33.39,21.03 z" id="p3656" style="fill:#581902;fill-opacity:0.26;fill-rule:nonzero;stroke:none;marker:none;visibility:visible;display:inline;overflow:visible;enable-background:accumulate"/>
<path d="M 29.55,15.59 C 29.53,15.72 29.51,15.91 29.48,16 C 29.12,17.37 28.02,21.86 27.83,22.84 C 27.77,23.19 27.75,23.43 27.77,23.59 C 27.55,24.19 27.32,24.8 27.06,25.27 C 26.27,26.67 26.36,27.31 26.53,28.02 C 26.70,28.72 25.49,30.46 25.22,31.61 C 24.96,32.75 24.41,33.38 24.32,31.89 C 24.24,30.4 25.12,29.14 25.57,28.18 C 26.01,27.22 25.75,25.74 26.19,24.68 C 26.63,23.63 27.41,20.26 27.94,18.59 C 28.32,17.39 29.02,16.38 29.56,15.59 L 29.55,15.59 z" id="p3659" style="fill:#581902;fill-opacity:0.15;fill-rule:nonzero;stroke:none;marker:none;visibility:visible;display:inline;overflow:visible;enable-background:accumulate"/>
<path d="M 24.11,15.4 C 24.08,15.6 24.07,15.75 24.02,15.99 C 23.54,18.68 22.82,18.77 22.65,21.14 C 22.54,22.68 23.11,22.62 23.52,21.82 C 23.42,22.46 23.14,24.04 22.56,24.91 C 21.86,25.96 23.01,22.89 22.31,23.95 C 21.61,25 21.50,25.88 20.53,25.35 C 19.57,24.83 22.02,21.23 21.93,19.82 C 21.86,18.7 22.61,18.84 24.11,15.39 L 24.11,15.4 z" id="p3662" style="fill:#581902;fill-opacity:0.33;fill-rule:nonzero;stroke:none;marker:none;visibility:visible;display:inline;overflow:visible;enable-background:accumulate"/>
<path d="M 35.98,24.34 C 35.59,25.64 35.13,27.08 34.73,27.96 C 34.17,29.22 33.71,31.49 32.70,32.24 C 31.70,32.98 29.78,33.74 29.08,34.49 C 28.39,35.23 27.06,37.61 27.15,35.86 C 27.23,34.12 28.71,32.83 29.02,32.18 C 29.32,31.53 29.84,29 31.11,29.21 C 32.23,29.41 33.16,28.89 33.42,27.31 C 33.94,26.64 34.64,25.65 35.70,24.65 C 35.80,24.56 35.89,24.44 35.98,24.34 L 35.98,24.34 z" id="p3746" style="fill:#b76d31;fill-opacity:0.2;stroke:none;display:inline"/>
<path d="M 33.98,34.71 C 33.80,35.46 33.58,36.2 33.33,36.8 C 32.68,38.35 31.78,39.83 30.80,41.3 C 29.83,42.76 29.48,43.73 28.74,44.55 C 27.18,42.41 31.34,37.89 32.27,36.65 C 32.74,36.01 33.27,35.41 33.98,34.71 L 33.98,34.71 z" id="p3749" style="fill:#855e3e;fill-opacity:0.18;stroke:none;display:inline"/>
<path d="M 25.12,38.56 C 25.46,39.17 25.81,39.78 25.33,40.21 C 24.85,40.64 22.45,42.26 21.67,41.82 C 20.89,41.39 20.23,40.43 19.93,39.51 C 19.63,38.6 20.32,37.59 20.49,37.59 C 20.66,37.59 21.40,38.15 21.40,38.41 C 21.40,38.67 20.23,39.23 20.79,39.85 C 21.35,40.46 23.40,41.37 24.19,39.77 C 24.97,38.16 25.15,38.55 25.10,38.55 L 25.12,38.56 z" id="p3752" style="fill:#581902;fill-opacity:0.18;fill-rule:nonzero;stroke:none;marker:none;visibility:visible;display:inline;overflow:visible;enable-background:accumulate"/>
<path d="M 27.05,46.08 C 25.69,45.08 24.05,44.44 23.13,43.8 C 22.22,43.17 21.86,42.16 20.22,41.71" id="p3859" style="fill:none;stroke:#b8612c;stroke-width:0.80;stroke-linecap:round;stroke-linejoin:miter;stroke-miterlimit:4;stroke-dasharray:none;stroke-opacity:0.37;display:inline"/>
<path d="M 30.33,39.79 C 29.79,40.79 29.24,41.7 29.24,42.43" id="p3862" style="fill:none;stroke:#ea9f5c;stroke-width:1px;stroke-linecap:round;stroke-linejoin:miter;stroke-opacity:0.18;display:inline"/>
<path d="M 25.95,37.6 C 26.49,39.78 27.04,41.33 27.50,42.16 C 27.95,42.98 28.32,43.89 28.32,44.62" id="p3865" style="fill:none;stroke:#7f3b17;stroke-width:0.69;stroke-linecap:round;stroke-linejoin:miter;stroke-miterlimit:4;stroke-dasharray:none;stroke-opacity:0.7;display:inline"/>
<path d="M 24.49,40.33 C 25.85,41.97 27.68,44.25 27.95,45.62" id="p3868" style="fill:none;stroke:#9b5521;stroke-width:0.60;stroke-linecap:round;stroke-linejoin:miter;stroke-miterlimit:4;stroke-dasharray:none;stroke-opacity:0.41;display:inline"/>
<path d="M 27.81,23.89 C 27.68,24.57 27.86,24.84 27.86,24.84" id="p3871" style="fill:none;stroke:#511d0b;stroke-width:0.60;stroke-linecap:round;stroke-linejoin:miter;stroke-miterlimit:4;stroke-dasharray:none;stroke-opacity:0.81;display:inline"/>
<path d="M 27.41,24.83 C 26.50,26.65 26.78,26.74 26.78,28.11 C 26.78,29.47 25.69,31.48 25.69,31.48" id="p3874" style="fill:none;stroke:#ecbe7f;stroke-width:0.69;stroke-linecap:round;stroke-linejoin:miter;stroke-miterlimit:4;stroke-dasharray:none;stroke-opacity:0.26;display:inline"/>
<path d="M 27.99,28.89 C 27.86,30.57 25.88,34.27 25.44,35.18 C 25.01,36.08 24.81,37.19 24.81,37.19" id="p3879" style="fill:none;stroke:#efa35e;stroke-width:1.38;stroke-linecap:round;stroke-linejoin:miter;stroke-miterlimit:4;stroke-dasharray:none;stroke-opacity:0.25;display:inline"/>
<path d="M 29.52,31.62 C 28.97,33.15 27.33,36.47 27.33,36.47" id="p3882" style="fill:none;stroke:#efa35e;stroke-width:1.38;stroke-linecap:round;stroke-linejoin:miter;marker:none;stroke-miterlimit:4;stroke-dasharray:none;stroke-dashoffset:0;stroke-opacity:0.25;visibility:visible;display:inline;overflow:visible;enable-background:accumulate"/>
<path d="M 24.41,28.23 C 23.84,29.46 23.35,30.04 23.44,30.97 C 23.52,31.89 23.48,32.69 22.83,33.84" id="p3911" style="fill:none;stroke:#efa35e;stroke-width:1;stroke-linecap:round;stroke-linejoin:miter;marker:none;stroke-miterlimit:4;stroke-dasharray:none;stroke-dashoffset:0;stroke-opacity:0.31;visibility:visible;display:inline;overflow:visible;enable-background:accumulate"/>
<path d="M 34.28,7.79 L 34.16,8.53" id="p3965" style="fill:none;stroke:#f39d94;stroke-width:1.26;stroke-linecap:round;stroke-linejoin:miter;stroke-miterlimit:4;stroke-dasharray:none;stroke-opacity:0.31;display:inline"/>
<path d="M 33.60,8.21 C 33.51,8.63 33.51,8.98 33.41,9.31 C 33.32,9.63 33.03,10.02 32.93,10.57" id="p3968" style="fill:none;stroke:#fae9dc;stroke-width:0.5;stroke-linecap:round;stroke-linejoin:miter;stroke-miterlimit:4;stroke-dasharray:none;stroke-opacity:0.27"/>
<path d="M 34.31,10.74 C 34.02,10.63 33.31,10.57 33.31,10.57" id="p3970" style="fill:none;stroke:#e6a869;stroke-width:1.70;stroke-linecap:round;stroke-linejoin:miter;stroke-miterlimit:4;stroke-dasharray:none;stroke-opacity:0.18;display:inline"/>
<path d="M 32.36,13.24 C 32.27,14.33 31.40,17.41 31.40,17.41" id="p3973" style="fill:none;stroke:#f7c08b;stroke-width:0.69;stroke-linecap:round;stroke-linejoin:miter;stroke-miterlimit:4;stroke-dasharray:none;stroke-opacity:0.27;display:inline"/>
<path d="M 35.22,9.51 C 34.36,9.56 33.49,9.44 33.03,9.16" id="p3992" style="fill:none;stroke:#965528;stroke-width:0.30;stroke-linecap:round;stroke-linejoin:miter;marker:none;stroke-miterlimit:4;stroke-dasharray:none;stroke-dashoffset:0;stroke-opacity:0.91;visibility:visible;display:inline;overflow:visible;enable-background:accumulate"/>
<path d="M 29.49,4.95 L 29.46,5.08" id="p2877" style="fill:none;stroke:#f39d94;stroke-width:1.5;stroke-linecap:round;stroke-linejoin:miter;marker:none;stroke-miterlimit:4;stroke-dasharray:none;stroke-dashoffset:0;stroke-opacity:0.43;visibility:visible;display:inline;overflow:visible;enable-background:accumulate"/>
<path d="M 28.68,5.43 L 28.78,4.88" id="p3685" style="fill:none;stroke:#fae9dc;stroke-width:0.5;stroke-linecap:round;stroke-linejoin:miter;marker:none;stroke-miterlimit:4;stroke-dasharray:none;stroke-dashoffset:0;stroke-opacity:0.27;visibility:visible;display:inline;overflow:visible;enable-background:accumulate"/>
<path d="M 30.36,5.96 C 29.50,6.01 28.64,5.79 28.19,5.51" id="p3992-9" style="fill:none;stroke:#8b4e25;stroke-width:0.30;stroke-linecap:round;stroke-linejoin:miter;marker:none;stroke-miterlimit:4;stroke-dasharray:none;stroke-dashoffset:0;stroke-opacity:0.81;visibility:visible;display:inline;overflow:visible;enable-background:accumulate"/>
<path d="M 32.02,18.45 C 32.22,19.16 32.02,19.71 31.75,20.01" id="p3718" style="fill:none;stroke:#f7c08b;stroke-width:0.30;stroke-linecap:round;stroke-linejoin:miter;marker:none;stroke-miterlimit:4;stroke-dasharray:none;stroke-dashoffset:0;stroke-opacity:0.18;visibility:visible;display:inline;overflow:visible;enable-background:accumulate"/>
<path d="M 29.05,7.23 L 27.82,7.06" id="p3721" style="fill:none;stroke:#e6a869;stroke-width:1.70;stroke-linecap:round;stroke-linejoin:miter;marker:none;stroke-miterlimit:4;stroke-dasharray:none;stroke-dashoffset:0;stroke-opacity:0.18;visibility:visible;display:inline;overflow:visible;enable-background:accumulate"/>
<path d="M 27.45,9.92 C 27.39,10.87 26.94,12.68 26.53,13.33" id="p3723" style="fill:none;stroke:#f7c08b;stroke-width:0.69;stroke-linecap:round;stroke-linejoin:miter;marker:none;stroke-miterlimit:4;stroke-dasharray:none;stroke-dashoffset:0;stroke-opacity:0.2;visibility:visible;display:inline;overflow:visible;enable-background:accumulate"/>
<path d="M 28.40,16.61 C 27.25,17.15 26.60,17.15 25.57,16.38" id="p3727" style="fill:none;stroke:#f7c08b;stroke-width:0.30;stroke-linecap:round;stroke-linejoin:miter;marker:none;stroke-miterlimit:4;stroke-dasharray:none;stroke-dashoffset:0;stroke-opacity:0.16;visibility:visible;display:inline;overflow:visible;enable-background:accumulate"/>
<path d="M 24.21,33.72 L 23.54,36.9" id="p3788" style="fill:none;stroke:#6a2805;stroke-width:1.20;stroke-linecap:round;stroke-linejoin:miter;stroke-miterlimit:4;stroke-dasharray:none;stroke-opacity:0.37;display:inline"/>
<path d="M 24.23,6.71 L 24.35,6.17" id="p3804" style="fill:none;stroke:#f39d94;stroke-width:1.26;stroke-linecap:round;stroke-linejoin:miter;marker:none;stroke-miterlimit:4;stroke-dasharray:none;stroke-dashoffset:0;stroke-opacity:0.31;visibility:visible;display:inline;overflow:visible;enable-background:accumulate"/>
<path d="M 25.28,7.42 C 24.42,7.47 23.22,7.18 22.97,6.61" id="p3992-91" style="fill:none;stroke:#a46235;stroke-width:0.30;stroke-linecap:round;stroke-linejoin:miter;marker:none;stroke-miterlimit:4;stroke-dasharray:none;stroke-dashoffset:0;stroke-opacity:0.87;visibility:visible;display:inline;overflow:visible;enable-background:accumulate"/>
<path d="M 24.09,8.54 L 22.87,8.28" id="p3721-1" style="fill:none;stroke:#e6a869;stroke-width:1.70;stroke-linecap:round;stroke-linejoin:miter;marker:none;stroke-miterlimit:4;stroke-dasharray:none;stroke-dashoffset:0;stroke-opacity:0.18;visibility:visible;display:inline;overflow:visible;enable-background:accumulate"/>
<path d="M 28.08,15.19 C 28.16,15.56 28.00,16.1 27.88,16.26" id="p3872" style="fill:none;stroke:#f7c08b;stroke-width:0.5;stroke-linecap:round;stroke-linejoin:miter;marker:none;stroke-miterlimit:4;stroke-dasharray:none;stroke-dashoffset:0;stroke-opacity:0.15;visibility:visible;display:inline;overflow:visible;enable-background:accumulate"/>
<path d="M 27.59,15.37 C 27.43,15.9 27.31,16.65 27.31,17.27" id="p3895" style="fill:none;stroke:#753118;stroke-width:0.40;stroke-linecap:round;stroke-linejoin:miter;stroke-miterlimit:4;stroke-dasharray:none;stroke-opacity:0.27"/>
<path d="M 29.03,14.99 C 28.95,15.94 28.66,16.81 28.37,17.35" id="p3897" style="fill:none;stroke:#893d0f;stroke-width:0.69;stroke-linecap:round;stroke-linejoin:miter;stroke-miterlimit:4;stroke-dasharray:none;stroke-opacity:0.66"/>
<path d="M 33.12,19.25 C 33.04,20.2 32.88,20.73 32.17,21.69" id="p3897-1" style="fill:none;stroke:#893d0f;stroke-width:1.10;stroke-linecap:round;stroke-linejoin:miter;stroke-miterlimit:4;stroke-dasharray:none;stroke-opacity:0.66;display:inline"/>
<path d="M 33.56,19.33 C 33.14,20.39 32.80,20.85 32.04,21.19" id="p3921" style="fill:none;stroke:#d3a58e;stroke-width:0.40;stroke-linecap:round;stroke-linejoin:miter;stroke-miterlimit:4;stroke-dasharray:none;stroke-opacity:0.37;display:inline"/>
<path d="M 26.22,17.95 C 26.22,17.95 25.51,21.93 25.03,23.52" id="p3924" style="fill:none;stroke:#d69455;stroke-width:1.76;stroke-linecap:round;stroke-linejoin:miter;stroke-miterlimit:4;stroke-dasharray:none;stroke-opacity:0.26"/>
<path d="M 23.48,14.4 C 23.57,15.46 23.48,15.99 22.78,16.95" id="p3897-1-0" style="fill:none;stroke:#893d0f;stroke-width:1.10;stroke-linecap:round;stroke-linejoin:miter;stroke-miterlimit:4;stroke-dasharray:none;stroke-opacity:0.66;display:inline"/>
<path d="M 22.62,14.33 C 22.70,14.7 22.75,15.31 22.62,15.47" id="p3872-7" style="fill:none;stroke:#f7c08b;stroke-width:0.5;stroke-linecap:round;stroke-linejoin:miter;marker:none;stroke-miterlimit:4;stroke-dasharray:none;stroke-dashoffset:0;stroke-opacity:0.25;visibility:visible;display:inline;overflow:visible;enable-background:accumulate"/>
<path d="M 22.53,7.4 C 22.28,8.26 21.20,11.73 20.98,12.19 C 20.77,12.65 20.15,13.85 19.97,15.04" id="p3994" style="fill:none;stroke:#e9bf9b;stroke-width:1px;stroke-linecap:round;stroke-linejoin:miter;stroke-opacity:0.31;display:inline"/>
<path d="M 21.64,28.43 C 22.12,28.43 22.59,28.53 22.79,28.83 C 23.49,30.16 23.30,32.12 22.94,32.83 C 22.59,33.53 21.71,32.46 20.82,33.08 C 19.94,33.7 18.36,33.54 18.36,34.51 C 18.36,35.48 17.31,39.03 18.45,40.01 C 19.45,40.86 25.82,43.34 27.76,46.38 C 27.58,46.85 27.43,47.24 27.36,47.31 C 27.28,47.39 27.26,47.62 27.27,47.96 L 16.82,47.96 C 16.54,46.92 16.04,46.08 15.66,45.83 C 15.00,45.39 13.95,45.9 12.19,45.1 C 12.17,44.99 12.16,44.91 12.13,44.79 C 11.62,42.51 10.90,42.6 10.42,41.14 C 9.76,39.13 9.78,38.11 9.46,36.86 C 9.00,35.05 8.65,31.38 8.43,30.52 C 8.42,30.47 8.39,30.39 8.37,30.34 C 11.45,33.52 13.65,35.07 13.96,33.37 C 14.31,31.42 13.10,30.67 15.99,29.37 C 16.83,29 15.55,31.68 15.99,33.37 C 16.34,33.63 18.40,31.49 20.17,31.31 C 20.52,31.23 20.43,29.21 20.17,28.94 C 20.01,28.78 20.86,28.46 21.67,28.44 L 21.64,28.43 z" id="p3997" style="fill:#cf7a36;fill-opacity:0.4;stroke:none;display:inline"/>
<path d="M 10.13,29.56 C 9.80,31.58 9.76,34.57 10.25,36.73" id="p3823" style="fill:none;stroke:#e5b67a;stroke-width:1.60;stroke-linecap:round;stroke-linejoin:miter;stroke-miterlimit:4;stroke-dasharray:none;stroke-opacity:0.31"/>
<path d="M 30.58,37.06 C 31.43,37.14 32.17,37.66 32.54,38.43 C 32.02,39.4 31.43,40.35 30.79,41.3 C 30.27,42.08 29.93,42.71 29.61,43.26 C 28.19,44.51 27.16,45.82 26.77,47.97 L 21.81,47.97 C 22.48,42.57 26.18,39.7 28.73,37.62 C 29.25,37.19 29.91,36.98 30.57,37.06 L 30.58,37.06 z" id="p4049" style="fill:#673310;fill-opacity:0.31;stroke:none;marker:none;visibility:visible;display:inline;overflow:visible;enable-background:accumulate"/>
<path d="M 20.56,24.84 C 20.37,25.92 19.98,27.17 19.90,28.42" id="p4025" style="fill:none;stroke:#8b430e;stroke-width:1.20;stroke-linecap:round;stroke-linejoin:miter;marker:none;stroke-miterlimit:4;stroke-dasharray:none;stroke-dashoffset:0;stroke-opacity:0.56;visibility:visible;display:inline;overflow:visible;enable-background:accumulate"/>
<path d="M 27.18,47.08 C 26.96,46.21 25.74,45.45 23.43,45 C 21.12,44.55 18.85,44.47 18.43,44.47" id="p2920" style="fill:none;stroke:#51280a;stroke-width:0.80;stroke-linecap:round;stroke-linejoin:miter;stroke-miterlimit:4;stroke-dasharray:none;stroke-opacity:0.27;display:inline"/>
<path d="M 21.88,43.7 C 19.84,42.7 16.72,40.53 13.15,43.3" id="p3695" style="fill:none;stroke:#f0b063;stroke-width:2.40;stroke-linecap:round;stroke-linejoin:miter;stroke-miterlimit:4;stroke-dasharray:none;stroke-opacity:0.22"/>
<path d="M 19.41,34.89 C 19.48,36.06 19.92,36.73 19.70,37.5 C 19.48,38.27 18.75,38.42 18.67,39.22" id="p3697" style="fill:none;stroke:#efa35e;stroke-width:1;stroke-linecap:round;stroke-linejoin:miter;marker:none;stroke-miterlimit:4;stroke-dasharray:none;stroke-dashoffset:0;stroke-opacity:0.31;visibility:visible;display:inline;overflow:visible;enable-background:accumulate"/>
<path d="M 22.28,32.43 C 19.30,32.14 14.41,34.38 13.08,41.81" id="p3722" style="fill:none;stroke:#7f421a;stroke-width:2.20;stroke-linecap:round;stroke-linejoin:miter;stroke-miterlimit:4;stroke-dasharray:none;stroke-opacity:0.22;display:inline"/>
<path d="M 11.06,35.66 C 11.86,37.86 11.83,39.3 13.93,41.54" id="p3728" style="fill:none;stroke:#5c2a06;stroke-width:1.76;stroke-linecap:round;stroke-linejoin:miter;stroke-miterlimit:4;stroke-dasharray:none;stroke-opacity:0.12;display:inline"/>
<path d="M 12.64,37.1 C 13.15,38.86 13.92,40.48 15.58,41.99" id="p3725" style="fill:none;stroke:#cc8948;stroke-width:1.38;stroke-linecap:round;stroke-linejoin:miter;stroke-miterlimit:4;stroke-dasharray:none;stroke-opacity:0.56;display:inline"/>
<path d="M 7.17,17.9 C 7.54,17.98 7.97,18.14 8.42,18.43 C 10.25,19.57 10.88,22.11 10.88,23.83 C 12.33,25.74 12.45,28.23 13.13,28.76 C 12.57,29.15 12.29,29.19 12.26,29.07 C 12.22,28.89 11.35,28.13 10.67,27.95 C 10.00,27.77 9.67,25.14 9.67,24.64 C 9.67,24.15 10.51,23.54 9.08,20.61 C 8.53,19.48 7.83,18.59 7.18,17.9 L 7.17,17.9 z" id="p3731" style="fill:#883d23;fill-opacity:0.47;stroke:none;display:inline"/>
<path d="M 10.83,25.49 C 11.19,26.16 11.23,26.52 11.28,26.79" id="p3734" style="fill:none;stroke:#d7a362;stroke-width:1px;stroke-linecap:round;stroke-linejoin:miter;stroke-opacity:0.27;display:inline"/>
<path d="M 13.44,28.97 C 12.95,29.55 12.41,30.35 11.83,30.84" id="p3737" style="fill:none;stroke:#ae6e51;stroke-width:0.69;stroke-linecap:round;stroke-linejoin:miter;stroke-miterlimit:4;stroke-dasharray:none;stroke-opacity:0.43;display:inline"/>
<path d="M 6.45,17.81 C 6.89,18.08 7.10,18.47 7.16,18.77 C 7.25,19.22 7.39,19.78 7.04,20.14 C 6.82,20.36 6.38,20.47 6.01,20.73 C 5.72,19.61 5.45,18.6 5.58,18.02 C 5.63,17.95 5.94,17.81 6.42,17.81 C 6.42,17.81 6.44,17.81 6.45,17.81 L 6.45,17.81 z" id="p3740" style="fill:#d47857;fill-opacity:0.5;stroke:none;display:inline"/>
<path d="M 8.67,26.66 C 9.07,28.01 9.93,29.67 9.93,29.67" id="p3743" style="fill:none;stroke:#dda763;stroke-width:1.70;stroke-linecap:round;stroke-linejoin:miter;stroke-miterlimit:4;stroke-dasharray:none;stroke-opacity:0.31;display:inline"/>
<path d="M 9.61,30.04 C 9.88,30.58 10.33,31.43 10.78,31.75" id="p3747" style="fill:none;stroke:#e0ae84;stroke-width:0.80;stroke-linecap:round;stroke-linejoin:miter;stroke-miterlimit:4;stroke-dasharray:none;stroke-opacity:0.47;display:inline"/>
<path d="M 21.48,16.87 C 21.22,18.29 20.17,21.8 20.17,21.8" id="p3783" style="fill:none;stroke:#c06326;stroke-width:2;stroke-linecap:round;stroke-linejoin:miter;stroke-miterlimit:4;stroke-dasharray:none;stroke-opacity:0.33;display:inline"/>
<path d="M 19.62,21.48 L 18.93,23.87" id="p3786" style="fill:none;stroke:#c17237;stroke-width:2.20;stroke-linecap:round;stroke-linejoin:miter;stroke-miterlimit:4;stroke-dasharray:none;stroke-opacity:0.36;display:inline"/>
<path d="M 17.10,31.14 C 16.70,32.16 15.27,33.89 14.35,34.51" id="p3789" style="fill:none;stroke:#9f6538;stroke-width:3.5;stroke-linecap:round;stroke-linejoin:miter;stroke-miterlimit:4;stroke-dasharray:none;stroke-opacity:0.43;display:inline"/>
<path d="M 8.38,19.63 C 9.36,21.07 9.71,22.64 9.76,23.27" id="p3792" style="fill:none;stroke:#ad5833;stroke-width:1.60;stroke-linecap:round;stroke-linejoin:miter;stroke-miterlimit:4;stroke-dasharray:none;stroke-opacity:0.47;display:inline"/>
<path d="M 6.80,18.01 C 8.30,20.17 6.62,20.66 5.99,20.86" id="p3992-91-5" style="fill:none;stroke:#a46235;stroke-width:0.30;stroke-linecap:round;stroke-linejoin:miter;marker:none;stroke-miterlimit:4;stroke-dasharray:none;stroke-dashoffset:0;stroke-opacity:0.87;visibility:visible;display:inline;overflow:visible;enable-background:accumulate"/>
<path d="M 6.58,18.31 C 6.58,18.31 6.84,19.13 6.99,19.65" id="p3817" style="fill:none;stroke:#f3bca3;stroke-width:1px;stroke-linecap:round;stroke-linejoin:miter;stroke-opacity:0.51"/>
<path d="M 6.47,20.51 C 6.24,20.68 5.92,21.06 5.92,21.06" id="p3819" style="fill:none;stroke:#ebcab5;stroke-width:0.30;stroke-linecap:round;stroke-linejoin:miter;stroke-miterlimit:4;stroke-dasharray:none;stroke-opacity:0.62"/>
<path d="M 7.73,21.03 C 7.93,22.23 7.65,23.57 7.21,24.07" id="p3821" style="fill:none;stroke:#e6aa75;stroke-width:1.26;stroke-linecap:round;stroke-linejoin:miter;stroke-miterlimit:4;stroke-dasharray:none;stroke-opacity:0.31"/>
<path d="M 24.51,46.95 C 23.87,46.84 21.08,46.78 21.08,46.78" id="p3850" style="fill:none;stroke:#6c330f;stroke-width:1.76;stroke-linecap:round;stroke-linejoin:miter;stroke-miterlimit:4;stroke-dasharray:none;stroke-opacity:0.47"/>
<path d="M 24.80,46.07 C 23.76,45.73 18.81,45.2 16.25,45.2" id="p3848" style="fill:none;stroke:#d29152;stroke-width:0.5;stroke-linecap:round;stroke-linejoin:miter;stroke-miterlimit:4;stroke-dasharray:none;stroke-opacity:0.25"/>
<path d="M 23.54,44.09 C 22.74,43.72 20.95,43.22 20.95,43.22" id="p3852" style="fill:none;stroke:#9f5c2a;stroke-width:1.60;stroke-linecap:round;stroke-linejoin:miter;stroke-miterlimit:4;stroke-dasharray:none;stroke-opacity:0.56"/>
<path d="M 24.39,44.13 C 23.41,43.62 22.24,42.96 21.14,42.74" id="p3856" style="fill:none;stroke:#66320d;stroke-width:0.69;stroke-linecap:round;stroke-linejoin:miter;stroke-miterlimit:4;stroke-dasharray:none;stroke-opacity:0.41"/>
<path d="M 16.10,33.52 C 15.84,35.02 15.65,38.4 16.68,40.98" id="p3854" style="fill:none;stroke:#d1874a;stroke-width:2.76;stroke-linecap:round;stroke-linejoin:miter;stroke-miterlimit:4;stroke-dasharray:none;stroke-opacity:0.33"/>
<path d="M 12.64,48 C 12.55,47.19 12.42,46.19 12.11,44.82 C 11.60,42.54 10.88,42.63 10.40,41.17 C 9.74,39.16 9.76,38.14 9.44,36.89 C 8.98,35.08 8.63,31.41 8.41,30.55 C 8.08,29.25 6.75,26.58 6.70,24.3 C 6.65,22.21 4.92,18.82 5.68,18.21 C 5.75,18.04 6.88,17.47 8.42,18.43 C 10.25,19.58 10.88,22.11 10.89,23.84 C 12.80,26.35 12.43,29.82 13.98,28.62 C 15.76,27.25 17.06,24.22 18.23,20.56 C 19.67,16.09 19.36,14.64 19.92,13.46 C 20.84,11.55 21.25,7.41 23.05,5.78 C 24.84,4.14 26.71,6.13 25.48,9.56 C 24.26,12.98 24.51,13.3 24.02,15.99 C 23.54,18.68 22.82,18.77 22.65,21.14 C 22.52,23.06 23.42,22.51 23.77,21.14 C 24.16,19.6 23.77,17.39 25.48,12.9 C 27.20,8.41 26.36,5.69 27.70,4.31 C 28.26,3.73 28.85,3.51 29.39,3.53 C 30.28,3.55 31.01,4.27 31.04,5.15 C 31.10,6.7 30.45,9.39 30.04,10.61 C 29.64,11.83 29.72,15.06 29.48,15.98 C 29.12,17.35 28.02,21.84 27.83,22.82 C 27.59,24.06 28.04,23.91 28.11,23.75 C 28.24,23.4 28.92,20.47 29.33,19.5 C 29.74,18.52 31.16,13.63 31.48,12.65 C 31.81,11.67 31.99,9.13 32.67,7.71 C 33.57,5.84 36.20,6.85 36.13,8.58 C 36.08,9.97 35.88,11.11 35.23,12.58 C 34.58,14.04 34.31,17.85 33.73,19.89 C 33.16,21.93 31.85,25.7 31.61,26.35 C 31.37,27 31.51,27.43 32.23,28 C 32.96,28.57 33.61,26.59 35.69,24.63 C 36.87,23.52 37.95,21.78 38.44,21.04 C 38.92,20.31 39.83,18.45 41.28,17.51 C 42.70,16.59 44.69,17.91 43.74,19.82 C 42.53,22.27 38.88,26.93 38.03,27.88 C 37.43,28.55 36.00,30.42 35.10,31.56 C 34.21,32.7 33.98,35.22 33.32,36.77 C 32.67,38.32 31.77,39.8 30.79,41.27 C 29.82,42.73 29.47,43.7 28.73,44.52 C 28.00,45.33 27.52,47.13 27.36,47.3 C 27.28,47.38 27.26,47.61 27.27,47.95" id="stroke01" style="fill:none;stroke:#301e05;stroke-width:0.5;stroke-linejoin:round;stroke-miterlimit:4;stroke-dasharray:none;stroke-opacity:1;display:inline"/>
</g>
</svg>
