<?xml version="1.0" encoding="UTF-8" standalone="no"?>
<!DOCTYPE svg PUBLIC "-//W3C//DTD SVG 1.0//EN" "http://www.w3.org/TR/2001/REC-SVG-20010904/DTD/svg10.dtd">
<svg xmlns:svg="http://www.w3.org/2000/svg" xmlns="http://www.w3.org/2000/svg" version="1.0" width="100%" height="100%" viewBox="0 0 48 48" id="_righthand05" style="display:inline">
<defs id="defs2818"/>
<g id="righthand05">
<path d="M 16.31,2.25 C 15.28,2.26 14.45,3.14 15.03,4.53 C 16.06,7.00 16.90,12.06 17.62,14.12 C 18.34,16.18 18.63,18.64 19.56,21.21 C 19.04,20.29 17.51,17.41 17,16.59 C 16.48,15.76 14.62,10.82 13.18,8.25 C 11.74,5.67 9.07,8.33 11.03,11.53 C 12.98,14.72 13.07,19.46 15.03,22.25 C 16.98,25.03 16.36,27.08 16.15,27.90 C 15.64,27.70 13.50,23.79 12.06,22.96 C 10.62,22.14 9.88,19.98 7.71,18.03 C 5.55,16.07 4.95,19.14 5.46,20.28 C 5.98,21.41 8.55,24.50 10.40,26.56 C 12.26,28.62 12.97,30.48 13.59,31.31 C 14.21,32.13 16.69,37.07 17.31,38.31 C 17.93,39.54 22.23,45.20 23.06,46.03 C 23.35,46.32 23.77,47.10 24.21,48 L 37.93,48 C 37.26,46.81 36.63,45.70 36.25,45 C 35.01,42.73 35.85,40.27 36.37,38.93 C 36.89,37.59 38.22,32.86 38.12,31.93 C 38.02,31.01 39.35,27.69 39.87,26.56 C 40.39,25.42 41.31,23.69 41.31,22.56 C 41.31,21.42 42.33,19.15 42.75,18.12 C 43.16,17.09 42.34,16.27 41.31,16.37 C 40.28,16.47 37.68,16.57 37.37,19.25 C 37.06,21.92 36.16,23.18 35.03,24.93 C 33.79,24.93 32.32,23.88 31.09,22.75 C 29.85,21.61 29.34,17.72 28.93,15.56 C 28.52,13.39 27.51,7.30 26.28,4.62 C 25.04,1.94 22.25,2.37 23.28,6.18 C 24.31,9.99 24.20,17.00 24.31,18.03 C 24.41,19.06 24.42,19.98 23.90,19.78 C 22.97,15.24 21.62,13.39 21.31,12.15 C 21.00,10.92 19.66,6.58 18.53,3.90 C 18.03,2.73 17.11,2.23 16.31,2.25 z" id="p2873" style="opacity:1;fill:#ba6d35;fill-opacity:1;fill-rule:nonzero;stroke:none;marker:none;visibility:visible;display:inline;overflow:visible;enable-background:accumulate"/>
<path d="M 16.31,2.25 C 15.67,2.26 15.10,2.57 14.90,3.15 C 15.81,3.00 16.56,3.21 17.09,3.81 C 17.91,4.73 20.07,10.82 20.28,12.78 C 20.48,14.73 21.02,13.06 21.43,14.40 C 21.84,15.74 22.95,18.52 23.06,19.96 C 23.12,20.88 23.77,21.01 23.96,19.78 C 23.94,19.77 23.93,19.79 23.90,19.78 C 22.97,15.24 21.62,13.39 21.31,12.15 C 21.00,10.92 19.66,6.58 18.53,3.90 C 18.03,2.73 17.11,2.23 16.31,2.25 z M 24.21,2.90 C 23.86,2.92 23.55,3.12 23.34,3.46 C 24.33,3.52 25.09,4.08 25.43,4.84 C 25.95,5.97 27.38,11.54 27.28,12.78 C 27.17,14.01 27.80,13.29 27.90,14.21 C 28.00,15.14 28.94,22.55 29.87,23.37 C 30.80,24.19 32.43,26.68 33.46,26.37 C 34.15,26.17 34.64,25.95 34.81,24.90 C 33.62,24.79 32.25,23.81 31.09,22.75 C 29.85,21.61 29.34,17.72 28.93,15.56 C 28.52,13.39 27.51,7.30 26.28,4.62 C 25.74,3.45 24.90,2.86 24.21,2.90 z M 11.65,7.21 C 11.25,7.27 10.89,7.56 10.65,8 C 11.27,8.03 11.79,8.16 12.06,8.65 C 12.68,9.78 15.64,17.31 15.75,18.03 C 15.95,17.72 16.26,17.50 16.78,18.12 C 17.29,18.74 19.15,22.35 18.84,23.28 C 18.59,24.01 20.06,23.75 19.21,20.56 C 18.56,19.36 17.44,17.30 17,16.59 C 16.48,15.76 14.62,10.82 13.18,8.25 C 12.73,7.44 12.16,7.14 11.65,7.21 z M 41.5,16.37 C 42.11,17.50 42.02,18.43 41.40,19.46 C 40.47,21.01 39.24,23.27 38.93,25.12 C 38.62,26.97 37.58,27.59 36.96,27.59 C 36.35,27.59 36.65,28.64 36.65,30.5 C 36.65,32.35 34.29,35.85 33.46,36.37 C 32.64,36.89 31.30,37.69 30.37,39.34 C 29.54,40.81 28.80,48.20 21.53,44.15 C 22.22,45.03 22.81,45.78 23.06,46.03 C 23.35,46.32 23.77,47.10 24.21,48 L 24.87,48 C 26.59,46.60 28.49,45.54 29.34,45.12 C 30.99,44.30 32.75,43.98 33.78,48 L 37.93,48 C 37.26,46.81 36.63,45.70 36.25,45 C 35.01,42.73 35.85,40.27 36.37,38.93 C 36.89,37.59 38.22,32.86 38.12,31.93 C 38.02,31.01 39.35,27.69 39.87,26.56 C 40.39,25.42 41.31,23.69 41.31,22.56 C 41.31,21.42 42.33,19.15 42.75,18.12 C 43.13,17.15 42.43,16.38 41.5,16.37 z M 6.37,17.40 C 5.91,17.44 5.63,17.84 5.46,18.34 C 6.51,17.76 7.48,18.68 8.34,20.09 C 9.47,21.94 12.96,25.44 13.68,26.78 C 14.34,28.00 16.44,31.63 15.93,27.68 C 15.18,26.85 13.34,23.70 12.06,22.96 C 10.62,22.14 9.88,19.98 7.71,18.03 C 7.17,17.54 6.72,17.37 6.37,17.40 z" id="p2915" style="opacity:1;fill:#733e26;fill-opacity:0.54;fill-rule:nonzero;stroke:none;marker:none;visibility:visible;display:inline;overflow:visible;enable-background:accumulate"/>
<path d="M 23.5,20.93 C 22.60,21.05 22.07,23.19 22.34,24.09 C 22.65,25.12 22.87,31.71 22.56,30.37 C 22.25,29.03 19.04,24.52 19.25,25.25 C 19.45,25.97 19.97,29.86 19.25,30.68 C 18.52,31.51 21.41,35.31 22.75,36.65 C 24.08,37.99 26.35,44.49 25.53,44.90 C 25.04,45.15 22.06,43.26 19.62,41.65 C 21.02,43.55 22.59,45.56 23.06,46.03 C 23.35,46.32 23.77,47.10 24.21,48 L 31.90,48 C 32.85,46.39 34.29,43.74 35.78,40.84 C 35.78,40.82 35.80,40.80 35.81,40.78 C 35.97,40.06 36.18,39.42 36.37,38.93 C 36.89,37.59 38.22,32.86 38.12,31.93 C 38.09,31.63 38.23,31.03 38.43,30.37 C 35.56,33.71 31.80,39.75 31.09,40.15 C 30.16,40.67 27.17,40.36 27.28,39.43 C 27.38,38.51 25.85,35.65 25.34,34.62 C 24.82,33.59 25.11,29.55 24.5,28.93 C 23.88,28.31 23.90,23.06 23.90,21 C 23.76,20.92 23.62,20.92 23.5,20.93 z" id="p2930" style="opacity:1;fill:#733e26;fill-opacity:0.54;fill-rule:nonzero;stroke:none;marker:none;visibility:visible;display:inline;overflow:visible;enable-background:accumulate"/>
<path d="M 18.98,22.34 C 18.60,23.26 19.63,26.48 20.16,27.18" id="p3770" style="opacity:1;fill:none;fill-opacity:1;fill-rule:nonzero;stroke:#a1613d;stroke-width:1.60;stroke-linecap:round;stroke-linejoin:miter;marker:none;stroke-miterlimit:4;stroke-dasharray:none;stroke-dashoffset:0;stroke-opacity:0.53;visibility:visible;display:inline;overflow:visible;enable-background:accumulate"/>
<path d="M 22.42,17.61 C 22.85,18.85 23.39,22.66 23.39,24.49" id="p3768" style="opacity:1;fill:none;fill-opacity:1;fill-rule:nonzero;stroke:#a1613d;stroke-width:1.89;stroke-linecap:round;stroke-linejoin:miter;marker:none;stroke-miterlimit:4;stroke-dasharray:none;stroke-dashoffset:0;stroke-opacity:0.67;visibility:visible;display:inline;overflow:visible;enable-background:accumulate"/>
<path d="M 17.61,27.70 L 17.61,27.70 C 19.77,25.64 23.07,23.69 26.67,24.10" id="p3744" style="opacity:1;fill:none;fill-opacity:1;fill-rule:nonzero;stroke:#d3b397;stroke-width:3.38;stroke-linecap:round;stroke-linejoin:miter;marker:none;stroke-miterlimit:4;stroke-dasharray:none;stroke-dashoffset:0;stroke-opacity:0.18;visibility:visible;display:inline;overflow:visible;enable-background:accumulate"/>
<path d="M 28.63,27.50 C 27.50,29.25 27.50,34.91 28.22,36.87 C 28.94,38.83 31.62,35.94 32.24,35.22 C 32.85,34.50 33.78,30.28 31.72,30.38 C 29.66,30.48 29.45,31.41 29.66,28.84 C 29.87,26.26 28.53,27.50 28.63,27.50 z" id="p2936" style="opacity:1;fill:#f0ad7f;fill-opacity:0.25;fill-rule:nonzero;stroke:none;marker:none;visibility:visible;display:inline;overflow:visible;enable-background:accumulate"/>
<path d="M 27.31,27.03 C 25.56,28.56 26.28,28.69 23.59,29.5 C 22.71,30.59 26.14,30.45 23.59,32.56 C 21.04,34.67 26.06,39.63 25.18,41.31 C 24.43,42.74 23.52,41.99 19.56,41.56 C 20.93,43.42 22.43,45.37 22.96,45.93 C 25.14,45.00 27.07,43.79 28.03,42.84 C 29.56,41.31 28.48,38.08 28.12,37.71 C 27.76,37.35 26.51,29.07 27.31,27.03 z" id="p3712" style="opacity:1;fill:#9d6034;fill-opacity:0.53;fill-rule:nonzero;stroke:none;marker:none;visibility:visible;display:inline;overflow:visible;enable-background:accumulate"/>
<path d="M 19.57,33.37 C 23.17,30.90 26.26,28.63 30.28,23.07" id="p2939" style="opacity:1;fill:none;fill-opacity:1;fill-rule:nonzero;stroke:#6a2805;stroke-width:1.20;stroke-linecap:round;stroke-linejoin:miter;marker:none;stroke-miterlimit:4;stroke-dasharray:none;stroke-dashoffset:0;stroke-opacity:0.25;visibility:visible;display:inline;overflow:visible;enable-background:accumulate"/>
<path d="M 31.53,28.77 C 31.53,29.20 30.66,33.94 30.00,34.96" id="p3718" style="opacity:1;fill:none;fill-opacity:1;fill-rule:nonzero;stroke:#f2b177;stroke-width:4.36;stroke-linecap:round;stroke-linejoin:miter;marker:none;stroke-miterlimit:4;stroke-dasharray:none;stroke-dashoffset:0;stroke-opacity:0.25;visibility:visible;display:inline;overflow:visible;enable-background:accumulate"/>
<path d="M 36.77,30.28 C 36.15,31.82 34.60,35.84 32.96,37.18" id="p3720" style="opacity:1;fill:none;fill-opacity:1;fill-rule:nonzero;stroke:#b29072;stroke-width:1.58;stroke-linecap:round;stroke-linejoin:miter;marker:none;stroke-miterlimit:4;stroke-dasharray:none;stroke-dashoffset:0;stroke-opacity:0.17;visibility:visible;display:inline;overflow:visible;enable-background:accumulate"/>
<path d="M 31.82,26.57 C 33.27,27.81 35.02,28.01 36.15,28.01" id="p3722" style="opacity:1;fill:none;fill-opacity:1;fill-rule:nonzero;stroke:#f2b177;stroke-width:1.38;stroke-linecap:round;stroke-linejoin:miter;marker:none;stroke-miterlimit:4;stroke-dasharray:none;stroke-dashoffset:0;stroke-opacity:0.25;visibility:visible;display:inline;overflow:visible;enable-background:accumulate"/>
<path d="M 39.03,17.81 C 38.00,18.84 38.42,20.39 37.80,21.42" id="p3724" style="opacity:1;fill:none;fill-opacity:1;fill-rule:nonzero;stroke:#f2b177;stroke-width:1.38;stroke-linecap:round;stroke-linejoin:miter;marker:none;stroke-miterlimit:4;stroke-dasharray:none;stroke-dashoffset:0;stroke-opacity:0.25;visibility:visible;display:inline;overflow:visible;enable-background:accumulate"/>
<path d="M 37.08,34.40 C 36.25,35.43 34.30,38.52 33.88,39.34" id="p3726" style="opacity:1;fill:none;fill-opacity:1;fill-rule:nonzero;stroke:#f2b177;stroke-width:1.08;stroke-linecap:round;stroke-linejoin:miter;marker:none;stroke-miterlimit:4;stroke-dasharray:none;stroke-dashoffset:0;stroke-opacity:0.09;visibility:visible;display:inline;overflow:visible;enable-background:accumulate"/>
<path d="M 34.09,42.74 C 33.57,43.98 32.85,45.01 33.37,45.73 C 33.88,46.45 34.09,47.38 34.30,47.89" id="p3728" style="opacity:1;fill:none;fill-opacity:1;fill-rule:nonzero;stroke:#6a2805;stroke-width:1.20;stroke-linecap:round;stroke-linejoin:miter;marker:none;stroke-miterlimit:4;stroke-dasharray:none;stroke-dashoffset:0;stroke-opacity:0.37;visibility:visible;display:inline;overflow:visible;enable-background:accumulate"/>
<path d="M 19.46,39.86 C 20.90,41.61 24.82,46.14 25.33,48" id="p3732" style="opacity:1;fill:none;fill-opacity:1;fill-rule:nonzero;stroke:#b29072;stroke-width:1.58;stroke-linecap:round;stroke-linejoin:miter;marker:none;stroke-miterlimit:4;stroke-dasharray:none;stroke-dashoffset:0;stroke-opacity:0.17;visibility:visible;display:inline;overflow:visible;enable-background:accumulate"/>
<path d="M 17.30,30.18 C 20.08,32.44 23.79,37.49 24.51,39.86" id="p3734" style="opacity:1;fill:none;fill-opacity:1;fill-rule:nonzero;stroke:#d88f4c;stroke-width:3.77;stroke-linecap:round;stroke-linejoin:miter;marker:none;stroke-miterlimit:4;stroke-dasharray:none;stroke-dashoffset:0;stroke-opacity:0.17;visibility:visible;display:inline;overflow:visible;enable-background:accumulate"/>
<path d="M 22.24,28.32 C 22.24,28.32 24.51,31.41 27.39,32.44" id="p3736" style="opacity:1;fill:none;fill-opacity:1;fill-rule:nonzero;stroke:#b29072;stroke-width:1.58;stroke-linecap:round;stroke-linejoin:miter;marker:none;stroke-miterlimit:4;stroke-dasharray:none;stroke-dashoffset:0;stroke-opacity:0.17;visibility:visible;display:inline;overflow:visible;enable-background:accumulate"/>
<path d="M 18.12,26.36 C 18.02,27.19 18.23,27.91 18.23,28.42" id="p3738" style="opacity:1;fill:none;fill-opacity:1;fill-rule:nonzero;stroke:#f2b177;stroke-width:1.98;stroke-linecap:round;stroke-linejoin:miter;marker:none;stroke-miterlimit:4;stroke-dasharray:none;stroke-dashoffset:0;stroke-opacity:0.25;visibility:visible;display:inline;overflow:visible;enable-background:accumulate"/>
<path d="M 21.21,24 C 21.32,24.82 21.42,25.75 21.73,26.47" id="p3740" style="opacity:1;fill:none;fill-opacity:1;fill-rule:nonzero;stroke:#f2b177;stroke-width:1.58;stroke-linecap:round;stroke-linejoin:miter;marker:none;stroke-miterlimit:4;stroke-dasharray:none;stroke-dashoffset:0;stroke-opacity:0.25;visibility:visible;display:inline;overflow:visible;enable-background:accumulate"/>
<path d="M 15.34,31.41 C 15.75,32.34 16.78,34.09 17.40,34.60" id="p3742" style="opacity:1;fill:none;fill-opacity:1;fill-rule:nonzero;stroke:#f2b177;stroke-width:1.98;stroke-linecap:round;stroke-linejoin:miter;marker:none;stroke-miterlimit:4;stroke-dasharray:none;stroke-dashoffset:0;stroke-opacity:0.25;visibility:visible;display:inline;overflow:visible;enable-background:accumulate"/>
<path d="M 25.20,30.37 C 25.27,31.68 24.90,33.36 25.49,34.67" id="p3746" style="opacity:1;fill:none;fill-opacity:1;fill-rule:nonzero;stroke:#d9975c;stroke-width:1.88;stroke-linecap:round;stroke-linejoin:miter;marker:none;stroke-miterlimit:4;stroke-dasharray:none;stroke-dashoffset:0;stroke-opacity:0.20;visibility:visible;display:inline;overflow:visible;enable-background:accumulate"/>
<path d="M 11.22,25.99 C 11.49,26.43 12.37,27.49 12.63,27.84" id="p3748" style="opacity:1;fill:none;fill-opacity:1;fill-rule:nonzero;stroke:#f2b177;stroke-width:0.98;stroke-linecap:round;stroke-linejoin:miter;marker:none;stroke-miterlimit:4;stroke-dasharray:none;stroke-dashoffset:0;stroke-opacity:0.25;visibility:visible;display:inline;overflow:visible;enable-background:accumulate"/>
<path d="M 14.40,18.92 C 14.84,19.98 15.90,22.19 16.35,22.72" id="p3751" style="opacity:1;fill:none;fill-opacity:1;fill-rule:nonzero;stroke:#f2b177;stroke-width:1.27;stroke-linecap:round;stroke-linejoin:miter;marker:none;stroke-miterlimit:4;stroke-dasharray:none;stroke-dashoffset:0;stroke-opacity:0.25;visibility:visible;display:inline;overflow:visible;enable-background:accumulate"/>
<path d="M 18.64,14.41 C 18.91,15.29 19.79,18.12 19.97,19.27" id="p3753" style="opacity:1;fill:none;fill-opacity:1;fill-rule:nonzero;stroke:#f2b177;stroke-width:1.98;stroke-linecap:round;stroke-linejoin:miter;marker:none;stroke-miterlimit:4;stroke-dasharray:none;stroke-dashoffset:0;stroke-opacity:0.25;visibility:visible;display:inline;overflow:visible;enable-background:accumulate"/>
<path d="M 28.54,17.68 C 28.90,19.62 29.34,22.89 27.93,25.37" id="p3755" style="opacity:1;fill:none;fill-opacity:1;fill-rule:nonzero;stroke:#934b18;stroke-width:1.5;stroke-linecap:round;stroke-linejoin:miter;marker:none;stroke-miterlimit:4;stroke-dasharray:none;stroke-dashoffset:0;stroke-opacity:0.55;visibility:visible;display:inline;overflow:visible;enable-background:accumulate"/>
<path d="M 24.93,13.97 C 25.02,14.67 25.80,17.24 25.36,18.65" id="p3757" style="opacity:1;fill:none;fill-opacity:1;fill-rule:nonzero;stroke:#f2b177;stroke-width:1.98;stroke-linecap:round;stroke-linejoin:miter;marker:none;stroke-miterlimit:4;stroke-dasharray:none;stroke-dashoffset:0;stroke-opacity:0.25;visibility:visible;display:inline;overflow:visible;enable-background:accumulate"/>
<path d="M 19.09,13.26 C 19.44,13.17 20.24,13.08 20.59,13.17" id="p3759" style="opacity:1;fill:none;fill-opacity:1;fill-rule:nonzero;stroke:#6a2805;stroke-width:0.80;stroke-linecap:round;stroke-linejoin:miter;marker:none;stroke-miterlimit:4;stroke-dasharray:none;stroke-dashoffset:0;stroke-opacity:0.21;visibility:visible;display:inline;overflow:visible;enable-background:accumulate"/>
<path d="M 26.39,13.16 C 26.69,13.16 27.53,13.31 27.83,13.54" id="p3761" style="opacity:1;fill:none;fill-opacity:1;fill-rule:nonzero;stroke:#6a2805;stroke-width:1;stroke-linecap:round;stroke-linejoin:miter;marker:none;stroke-miterlimit:4;stroke-dasharray:none;stroke-dashoffset:0;stroke-opacity:0.21;visibility:visible;display:inline;overflow:visible;enable-background:accumulate"/>
<path d="M 11.33,24.95 C 11.71,24.80 12.01,24.34 11.86,23.81" id="p3764" style="opacity:1;fill:none;fill-opacity:1;fill-rule:nonzero;stroke:#6a2805;stroke-width:1.10;stroke-linecap:round;stroke-linejoin:miter;marker:none;stroke-miterlimit:4;stroke-dasharray:none;stroke-dashoffset:0;stroke-opacity:0.21;visibility:visible;display:inline;overflow:visible;enable-background:accumulate"/>
<path d="M 17.03,29.74 C 18.10,30.50 18.86,31.03 20.07,30.96" id="p3766" style="opacity:1;fill:none;fill-opacity:1;fill-rule:nonzero;stroke:#a1613d;stroke-width:2.29;stroke-linecap:round;stroke-linejoin:miter;marker:none;stroke-miterlimit:4;stroke-dasharray:none;stroke-dashoffset:0;stroke-opacity:0.46;visibility:visible;display:inline;overflow:visible;enable-background:accumulate"/>
<path d="M 19.09,37.73 C 19.85,38.94 21.37,40.69 22.96,41.83" id="p3772" style="opacity:1;fill:none;fill-opacity:1;fill-rule:nonzero;stroke:#f2b177;stroke-width:3.06;stroke-linecap:round;stroke-linejoin:miter;marker:none;stroke-miterlimit:4;stroke-dasharray:none;stroke-dashoffset:0;stroke-opacity:0.15;visibility:visible;display:inline;overflow:visible;enable-background:accumulate"/>
<path d="M 37.93,48 C 37.26,46.81 36.63,45.70 36.25,45 C 35.01,42.73 35.85,40.27 36.37,38.93 C 36.89,37.59 38.22,32.86 38.12,31.93 C 38.02,31.01 39.35,27.69 39.87,26.56 C 40.39,25.42 41.31,23.69 41.31,22.56 C 41.31,21.42 42.33,19.15 42.75,18.12 C 43.16,17.09 42.34,16.27 41.31,16.37 C 40.28,16.47 37.68,16.57 37.37,19.25 C 37.06,21.92 36.16,23.18 35.03,24.93 C 33.79,24.93 32.32,23.88 31.09,22.75 C 29.85,21.61 29.34,17.72 28.93,15.56 C 28.52,13.39 27.51,7.30 26.28,4.62 C 25.04,1.94 22.25,2.37 23.28,6.18 C 24.31,9.99 24.20,17.00 24.31,18.03 C 24.41,19.06 24.42,19.98 23.90,19.78 C 22.97,15.24 21.62,13.39 21.31,12.15 C 21.00,10.92 19.66,6.58 18.53,3.90 C 18.03,2.73 17.11,2.23 16.31,2.25 C 15.28,2.26 14.45,3.14 15.03,4.53 C 16.06,7.00 16.90,12.06 17.62,14.12 C 18.34,16.18 18.63,18.64 19.56,21.21 C 19.04,20.29 17.51,17.41 17,16.59 C 16.48,15.76 14.62,10.82 13.18,8.25 C 11.74,5.67 9.07,8.33 11.03,11.53 C 12.98,14.72 13.07,19.46 15.03,22.25 C 16.98,25.03 16.36,27.08 16.15,27.90 C 15.64,27.70 13.50,23.79 12.06,22.96 C 10.62,22.14 9.88,19.98 7.71,18.03 C 5.55,16.07 4.95,19.14 5.46,20.28 C 5.98,21.41 8.55,24.50 10.40,26.56 C 12.26,28.62 12.97,30.48 13.59,31.31 C 14.21,32.13 16.69,37.07 17.31,38.31 C 17.93,39.54 22.23,45.20 23.06,46.03 C 23.35,46.32 23.77,47.10 24.21,48" id="stroke01" style="opacity:1;fill:none;fill-opacity:1;fill-rule:nonzero;stroke:#301e05;stroke-width:0.5;stroke-linecap:butt;stroke-linejoin:round;marker:none;stroke-miterlimit:4;stroke-dasharray:none;stroke-dashoffset:0;stroke-opacity:1;visibility:visible;display:inline;overflow:visible;enable-background:accumulate"/>
</g>
</svg>
