<?xml version="1.0" encoding="UTF-8" standalone="no"?>
<!DOCTYPE svg PUBLIC "-//W3C//DTD SVG 1.0//EN" "http://www.w3.org/TR/2001/REC-SVG-20010904/DTD/svg10.dtd">
<svg xmlns:svg="http://www.w3.org/2000/svg" xmlns="http://www.w3.org/2000/svg" version="1.0" width="100%" height="100%" viewBox="0 0 48 48" id="_hand02" style="display:inline">
<defs id="defs2818"/>
<g id="hand02">
<path d="M 20.06,3.37 C 18.73,3.37 17.60,4.87 18.37,6.68 C 18.99,8.13 20.13,12.36 20.65,14.53 C 21.17,16.70 22.92,22.07 23.43,23 C 23.95,23.92 23.53,24.44 23.12,24.65 C 21.98,23.93 19.32,23.93 18.81,25.28 C 14.88,25.28 16.12,28.98 17.15,30.53 C 16.53,34.35 17.44,34.37 17.34,35.40 C 17.24,36.43 17.66,37.89 18.28,38.71 C 18.90,39.54 18.89,40.88 19.71,42.84 C 20.21,44.02 20.92,45.76 22.46,48 L 39.09,48 C 38.76,47.62 38.41,47.21 38.12,46.87 C 35.64,43.98 36.16,43.97 35.75,39.21 C 35.33,34.46 34.81,26.61 34.81,24.65 C 34.81,22.69 36.36,18.04 36.46,16.5 C 36.57,14.95 37.07,8.84 36.96,5.43 C 36.86,2.02 32.85,4.52 32.75,7 C 32.64,9.47 31.60,14.72 31.18,15.65 C 30.77,16.58 30.26,18.97 29.43,21.96 C 28.92,21.96 28.28,21.86 27.87,21.96 C 27.56,20.52 25.81,15.14 25.09,13.90 C 24.37,12.66 23.86,8.76 22.31,5.25 C 21.73,3.93 20.85,3.37 20.06,3.37 z" id="p2562" style="opacity:1;fill:#ba6d35;fill-opacity:1;fill-rule:nonzero;stroke:none;marker:none;visibility:visible;display:inline;overflow:visible;enable-background:accumulate"/>
<path d="M 20.06,3.37 C 19.64,3.37 19.26,3.52 18.93,3.78 C 20.63,4.91 21.09,6.75 21.09,7.25 C 21.09,7.83 21.92,8.26 22,8.78 C 22.07,9.29 22.78,10.95 23,13 C 23.21,15.04 24.38,15.12 24.75,16 C 25.11,16.87 26.36,20.67 26,21.18 C 25.71,21.58 24.48,22.49 23.09,22.21 C 23.20,22.50 23.36,22.87 23.43,23 C 23.95,23.92 23.53,24.44 23.12,24.65 C 22.46,24.23 21.28,24.08 20.31,24.28 C 20.99,24.84 21.57,25.51 21.75,26.25 C 22.48,26.61 23.08,27.10 23.37,27.46 C 23.66,27.83 23.81,28.86 24.25,30.25 C 24.68,31.63 23.96,31.92 23.53,32.21 C 23.89,33.67 25.19,35 27.31,35 C 27.67,34.85 26.08,37.99 26.59,40.40 C 27.10,42.81 28.12,46.09 26.59,47.18 C 25.39,48.04 24.47,48.09 21.37,46.25 C 21.68,46.79 22.03,47.37 22.46,48 L 39.09,48 C 38.76,47.62 38.41,47.21 38.12,46.87 C 35.64,43.98 36.16,43.97 35.75,39.21 C 35.33,34.46 34.81,26.61 34.81,24.65 C 34.81,22.69 36.36,18.04 36.46,16.5 C 36.57,14.95 37.07,8.84 36.96,5.43 C 36.91,3.80 35.98,3.53 35,3.96 C 35.55,4.38 35.96,4.89 35.93,5.56 C 35.86,7.24 35.34,12.79 34.68,14.62 C 34.03,16.45 32.71,21.49 32.71,22.37 C 32.71,23.25 33.59,24.40 33.15,25.28 C 32.71,26.15 30.90,28.92 27.46,29.65 C 27.46,27.75 26.72,26.00 27.75,24.46 C 28.61,23.17 27.73,23.97 27.90,21.96 C 27.89,21.97 27.88,21.96 27.87,21.96 C 27.56,20.52 25.81,15.14 25.09,13.90 C 24.37,12.66 23.86,8.76 22.31,5.25 C 21.73,3.93 20.85,3.37 20.06,3.37 z" id="p2582" style="opacity:1;fill:#733e26;fill-opacity:0.54;fill-rule:nonzero;stroke:none;marker:none;visibility:visible;display:inline;overflow:visible;enable-background:accumulate"/>
<path d="M 31.31,15.34 C 31.27,15.45 31.21,15.58 31.18,15.65 C 30.77,16.57 30.27,18.93 29.46,21.87 C 30.17,22.32 30.85,21.61 31.5,20.84 C 32.53,19.60 32.65,16.18 32.03,16.18 C 31.74,16.18 31.48,15.84 31.31,15.34 z M 23.62,36.40 C 23.39,36.50 23.25,37.00 23.25,38.09 C 23.25,40.26 22.63,40.25 22.21,39.21 C 21.80,38.18 20.76,37.78 19.62,37.06 C 19.22,37.12 18.56,37.17 17.53,37.12 C 17.70,37.72 17.97,38.30 18.28,38.71 C 18.84,39.46 18.92,40.65 19.53,42.31 C 27.21,51.03 25.44,45.60 24.78,44.28 C 24.05,42.83 25.08,37.99 24.46,37.06 C 24.15,36.59 23.85,36.30 23.62,36.40 z" id="p2590" style="opacity:1;fill:#f0ad7f;fill-opacity:0.35;fill-rule:nonzero;stroke:none;marker:none;visibility:visible;display:inline;overflow:visible;enable-background:accumulate"/>
<path d="M 31.12,33.90 C 31.03,33.91 30.97,33.97 30.90,34.06 C 30.02,34.35 30.83,36.89 29.81,37.62 C 28.78,38.35 31.76,40.26 30.81,43.84 C 29.86,47.42 33.88,43.02 34.03,45 C 34.10,45.99 33.42,47.08 32.68,48 L 39.09,48 C 38.76,47.62 38.41,47.21 38.12,46.87 C 36.49,44.97 36.15,44.29 36,42.71 C 35.29,41.67 34.67,40.59 34.31,39.53 C 33.03,35.82 31.76,33.85 31.12,33.90 z" id="p2600" style="opacity:1;fill:#682d1f;fill-opacity:0.15;fill-rule:nonzero;stroke:none;marker:none;visibility:visible;display:inline;overflow:visible;enable-background:accumulate"/>
<path d="M 23.00,37.40 C 23.00,38.57 23.15,41.57 23.37,42.52" id="p2602" style="opacity:1;fill:none;fill-opacity:1;fill-rule:nonzero;stroke:#6a2805;stroke-width:1.20;stroke-linecap:round;stroke-linejoin:miter;marker:none;stroke-miterlimit:4;stroke-dasharray:none;stroke-dashoffset:0;stroke-opacity:0.37;visibility:visible;display:inline;overflow:visible;enable-background:accumulate"/>
<path d="M 24.75,42.96 C 25.12,44.05 26.00,46.02 26.65,46.90" id="p2604" style="opacity:1;fill:none;fill-opacity:1;fill-rule:nonzero;stroke:#6a2805;stroke-width:1.20;stroke-linecap:round;stroke-linejoin:miter;marker:none;stroke-miterlimit:4;stroke-dasharray:none;stroke-dashoffset:0;stroke-opacity:0.37;visibility:visible;display:inline;overflow:visible;enable-background:accumulate"/>
<path d="M 23.78,32.25 C 23.10,32.30 22.23,33.38 21.06,33.65 C 21.06,33.65 22.21,34.37 23.25,35.09 C 24.28,35.09 26.55,35.59 26.65,37.25 C 26.75,38.90 25.93,38.79 24.90,39.62 C 25.00,41.27 26.96,42.64 28.40,45.84 C 28.78,46.67 28.60,47.37 28.15,48 L 32.59,48 C 31.17,44.89 29.59,41.37 29.53,40.65 C 29.42,39.52 28.09,38.08 28.40,35.81 C 28.71,33.54 24.78,32.62 24.06,32.31 C 23.97,32.27 23.87,32.24 23.78,32.25 z" id="p2632" style="opacity:1;fill:none;fill-opacity:1;fill-rule:nonzero;stroke:#c5a589;stroke-width:4.48;stroke-linecap:round;stroke-linejoin:miter;marker:none;stroke-miterlimit:4;stroke-dasharray:none;stroke-dashoffset:0;stroke-opacity:0.12;visibility:visible;display:inline;overflow:visible;enable-background:accumulate"/>
<path d="M 21.07,32.71 C 23.34,33.64 28.19,34.57 30.16,33.84" id="p2634" style="opacity:1;fill:none;fill-opacity:1;fill-rule:nonzero;stroke:#dda763;stroke-width:2.5;stroke-linecap:round;stroke-linejoin:miter;marker:none;stroke-miterlimit:4;stroke-dasharray:none;stroke-dashoffset:0;stroke-opacity:0.15;visibility:visible;display:inline;overflow:visible;enable-background:accumulate"/>
<path d="M 31.60,25.17 L 31.60,25.17 C 31.09,26.10 30.26,28.37 28.50,29.20" id="p2636" style="opacity:1;fill:none;fill-opacity:1;fill-rule:nonzero;stroke:#efa35e;stroke-width:1.38;stroke-linecap:round;stroke-linejoin:miter;marker:none;stroke-miterlimit:4;stroke-dasharray:none;stroke-dashoffset:0;stroke-opacity:0.25;visibility:visible;display:inline;overflow:visible;enable-background:accumulate"/>
<path d="M 32.74,28.16 C 32.33,28.68 31.91,29.92 30.88,30.44" id="p2638" style="opacity:1;fill:none;fill-opacity:1;fill-rule:nonzero;stroke:#efa35e;stroke-width:1.38;stroke-linecap:round;stroke-linejoin:miter;marker:none;stroke-miterlimit:4;stroke-dasharray:none;stroke-dashoffset:0;stroke-opacity:0.25;visibility:visible;display:inline;overflow:visible;enable-background:accumulate"/>
<path d="M 18.56,25.28 C 16.15,25.38 15.89,27.01 16.28,28.53 C 16.29,28.54 16.30,28.55 16.31,28.56 C 16.67,28.98 17.04,29.29 17.25,29.5 C 17.66,29.91 19.81,27.33 19.40,26.71 C 19.24,26.48 18.94,25.88 18.56,25.28 z" id="p2640" style="opacity:1;fill:#fcbfa4;fill-opacity:0.33;fill-rule:nonzero;stroke:none;marker:none;visibility:visible;display:inline;overflow:visible;enable-background:accumulate"/>
<path d="M 24.78,26.72 C 25.51,27.44 26.44,27.34 26.85,26.41 C 27.26,25.48 27.99,28.89 26.75,29.61 C 26.23,29.40 26.02,29.09 26.02,29.09 L 24.78,26.72 z" id="p2642" style="opacity:1;fill:#581902;fill-opacity:0.33;fill-rule:nonzero;stroke:none;marker:none;visibility:visible;display:inline;overflow:visible;enable-background:accumulate"/>
<path d="M 21.69,34.15 C 22.10,34.77 22.93,36.63 21.79,37.25 C 22.20,37.36 23.24,37.25 23.24,37.25 L 23.34,35.19 L 21.69,34.15 z" id="p2644" style="opacity:1;fill:#581902;fill-opacity:0.33;fill-rule:nonzero;stroke:none;marker:none;visibility:visible;display:inline;overflow:visible;enable-background:accumulate"/>
<path d="M 22.99,28.15 C 22.99,28.15 21.67,29.37 21.46,29.78" id="p2659" style="opacity:1;fill:none;fill-opacity:1;fill-rule:nonzero;stroke:#6a2805;stroke-width:1;stroke-linecap:round;stroke-linejoin:miter;marker:none;stroke-miterlimit:4;stroke-dasharray:none;stroke-dashoffset:0;stroke-opacity:0.22;visibility:visible;display:inline;overflow:visible;enable-background:accumulate"/>
<path d="M 23.40,30.29 C 22.79,31.21 22.58,32.12 22.28,32.43" id="p2661" style="opacity:1;fill:none;fill-opacity:1;fill-rule:nonzero;stroke:#f7c08b;stroke-width:0.5;stroke-linecap:round;stroke-linejoin:miter;marker:none;stroke-miterlimit:4;stroke-dasharray:none;stroke-dashoffset:0;stroke-opacity:0.25;visibility:visible;display:inline;overflow:visible;enable-background:accumulate"/>
<path d="M 18.72,26.12 L 19.84,26.83" id="p2663" style="opacity:1;fill:none;fill-opacity:1;fill-rule:nonzero;stroke:#fae9dc;stroke-width:0.80;stroke-linecap:round;stroke-linejoin:miter;marker:none;stroke-miterlimit:4;stroke-dasharray:none;stroke-dashoffset:0;stroke-opacity:0.27;visibility:visible;display:inline;overflow:visible;enable-background:accumulate"/>
<path d="M 22.38,16.35 L 22.38,16.35 C 22.79,16.04 24.21,15.64 24.82,15.74" id="p2665" style="opacity:1;fill:none;fill-opacity:1;fill-rule:nonzero;stroke:#6a2805;stroke-width:0.69;stroke-linecap:round;stroke-linejoin:miter;marker:none;stroke-miterlimit:4;stroke-dasharray:none;stroke-dashoffset:0;stroke-opacity:0.22;visibility:visible;display:inline;overflow:visible;enable-background:accumulate"/>
<path d="M 32.56,13.40 C 32.56,14.11 32.45,14.82 32.35,15.23" id="p2667" style="opacity:1;fill:none;fill-opacity:1;fill-rule:nonzero;stroke:#f7c08b;stroke-width:0.88;stroke-linecap:round;stroke-linejoin:miter;marker:none;stroke-miterlimit:4;stroke-dasharray:none;stroke-dashoffset:0;stroke-opacity:0.11;visibility:visible;display:inline;overflow:visible;enable-background:accumulate"/>
<path d="M 26.96,24.59 C 27.16,25.61 27.16,27.85 26.86,28.56" id="p2669" style="opacity:1;fill:none;fill-opacity:1;fill-rule:nonzero;stroke:#6a2805;stroke-width:1.20;stroke-linecap:round;stroke-linejoin:miter;marker:none;stroke-miterlimit:4;stroke-dasharray:none;stroke-dashoffset:0;stroke-opacity:0.37;visibility:visible;display:inline;overflow:visible;enable-background:accumulate"/>
<path d="M 34.29,22.76 C 34.39,23.68 33.88,25.00 33.17,26.12" id="p2671" style="opacity:1;fill:none;fill-opacity:1;fill-rule:nonzero;stroke:#6a2805;stroke-width:1.20;stroke-linecap:round;stroke-linejoin:miter;marker:none;stroke-miterlimit:4;stroke-dasharray:none;stroke-dashoffset:0;stroke-opacity:0.22;visibility:visible;display:inline;overflow:visible;enable-background:accumulate"/>
<path d="M 18.62,28.97 C 19.84,30.09 22.28,32.12 22.89,32.53" id="p3450" style="opacity:1;fill:none;fill-opacity:1;fill-rule:nonzero;stroke:#efa35e;stroke-width:1.38;stroke-linecap:round;stroke-linejoin:miter;marker:none;stroke-miterlimit:4;stroke-dasharray:none;stroke-dashoffset:0;stroke-opacity:0.25;visibility:visible;display:inline;overflow:visible;enable-background:accumulate"/>
<path d="M 33.68,12.99 C 33.78,13.50 33.68,14.93 33.68,14.93" id="p3452" style="opacity:1;fill:none;fill-opacity:1;fill-rule:nonzero;stroke:#efa35e;stroke-width:1.38;stroke-linecap:round;stroke-linejoin:miter;marker:none;stroke-miterlimit:4;stroke-dasharray:none;stroke-dashoffset:0;stroke-opacity:0.25;visibility:visible;display:inline;overflow:visible;enable-background:accumulate"/>
<path d="M 32.66,15.84 C 33.17,15.84 35.10,15.74 35.81,16.15" id="p3456" style="opacity:1;fill:none;fill-opacity:1;fill-rule:nonzero;stroke:#6a2805;stroke-width:0.69;stroke-linecap:round;stroke-linejoin:miter;marker:none;stroke-miterlimit:4;stroke-dasharray:none;stroke-dashoffset:0;stroke-opacity:0.22;visibility:visible;display:inline;overflow:visible;enable-background:accumulate"/>
<path d="M 20.85,9.33 C 21.46,9.13 22.89,8.92 22.89,8.92" id="p3458" style="opacity:1;fill:none;fill-opacity:1;fill-rule:nonzero;stroke:#6a2805;stroke-width:0.69;stroke-linecap:round;stroke-linejoin:miter;marker:none;stroke-miterlimit:4;stroke-dasharray:none;stroke-dashoffset:0;stroke-opacity:0.22;visibility:visible;display:inline;overflow:visible;enable-background:accumulate"/>
<path d="M 17.98,32.81 C 18.13,33.39 18.49,34.11 19.28,34.83" id="p3462" style="opacity:1;fill:none;fill-opacity:1;fill-rule:nonzero;stroke:#efa35e;stroke-width:1.38;stroke-linecap:round;stroke-linejoin:miter;marker:none;stroke-miterlimit:4;stroke-dasharray:none;stroke-dashoffset:0;stroke-opacity:0.25;visibility:visible;display:inline;overflow:visible;enable-background:accumulate"/>
<path d="M 17.09,30.54 C 18.55,31.78 20.23,33.31 21.18,33.75 C 22.13,34.19 23.73,35.43 24.32,36.02" id="p2564" style="opacity:1;fill:none;fill-opacity:1;fill-rule:nonzero;stroke:#301e05;stroke-width:0.5;stroke-linecap:round;stroke-linejoin:round;marker:none;stroke-miterlimit:4;stroke-dasharray:none;stroke-dashoffset:0;stroke-opacity:1;visibility:visible;display:inline;overflow:visible;enable-background:accumulate"/>
<path d="M 18.77,25.35 C 19.64,25.35 22.27,26.16 23.15,27.03 C 24.02,27.91 26.80,30.03 27.97,30.47" id="p2566" style="opacity:1;fill:none;fill-opacity:1;fill-rule:nonzero;stroke:#301e05;stroke-width:0.5;stroke-linecap:round;stroke-linejoin:round;marker:none;stroke-miterlimit:4;stroke-dasharray:none;stroke-dashoffset:0;stroke-opacity:1;visibility:visible;display:inline;overflow:visible;enable-background:accumulate"/>
<path d="M 23.08,24.62 C 23.95,25.43 25.34,27.47 26.14,29.15" id="p2568" style="opacity:1;fill:none;fill-opacity:1;fill-rule:nonzero;stroke:#301e05;stroke-width:0.5;stroke-linecap:round;stroke-linejoin:round;marker:none;stroke-miterlimit:4;stroke-dasharray:none;stroke-dashoffset:0;stroke-opacity:1;visibility:visible;display:inline;overflow:visible;enable-background:accumulate"/>
<path d="M 23.44,35.36 C 22.93,36.45 23.29,39.67 23.29,40.33" id="p2570" style="opacity:1;fill:none;fill-opacity:1;fill-rule:nonzero;stroke:#301e05;stroke-width:0.5;stroke-linecap:round;stroke-linejoin:round;marker:none;stroke-miterlimit:4;stroke-dasharray:none;stroke-dashoffset:0;stroke-opacity:1;visibility:visible;display:inline;overflow:visible;enable-background:accumulate"/>
<path d="M 18.04,35.07 C 19.50,36.24 22.05,37.77 22.93,37.33" id="p2572" style="opacity:1;fill:none;fill-opacity:1;fill-rule:nonzero;stroke:#301e05;stroke-width:0.5;stroke-linecap:round;stroke-linejoin:round;marker:none;stroke-miterlimit:4;stroke-dasharray:none;stroke-dashoffset:0;stroke-opacity:1;visibility:visible;display:inline;overflow:visible;enable-background:accumulate"/>
<path d="M 18.04,36.75 C 18.47,36.75 19.13,36.67 19.42,36.38" id="p2574" style="opacity:1;fill:none;fill-opacity:1;fill-rule:nonzero;stroke:#301e05;stroke-width:0.5;stroke-linecap:round;stroke-linejoin:round;marker:none;stroke-miterlimit:4;stroke-dasharray:none;stroke-dashoffset:0;stroke-opacity:1;visibility:visible;display:inline;overflow:visible;enable-background:accumulate"/>
<path d="M 39.09,48 C 38.76,47.62 38.41,47.21 38.12,46.87 C 35.64,43.98 36.16,43.97 35.75,39.21 C 35.33,34.46 34.81,26.61 34.81,24.65 C 34.81,22.69 36.36,18.04 36.46,16.5 C 36.57,14.95 37.07,8.84 36.96,5.43 C 36.86,2.02 32.85,4.52 32.75,7 C 32.64,9.47 31.60,14.72 31.18,15.65 C 30.77,16.58 30.26,18.97 29.43,21.96 C 28.92,21.96 28.28,21.86 27.87,21.96 C 27.56,20.52 25.81,15.14 25.09,13.90 C 24.37,12.66 23.86,8.76 22.31,5.25 C 21.73,3.93 20.85,3.37 20.06,3.37 C 18.73,3.37 17.60,4.87 18.37,6.68 C 18.99,8.13 20.13,12.36 20.65,14.53 C 21.17,16.70 22.92,22.07 23.43,23 C 23.95,23.92 23.53,24.44 23.12,24.65 C 21.98,23.93 19.32,23.93 18.81,25.28 C 14.88,25.28 16.12,28.98 17.15,30.53 C 16.53,34.35 17.44,34.37 17.34,35.40 C 17.24,36.43 17.66,37.89 18.28,38.71 C 18.90,39.54 18.89,40.88 19.71,42.84 C 20.21,44.02 20.92,45.76 22.46,48" id="stroke01" style="opacity:1;fill:none;fill-opacity:1;fill-rule:nonzero;stroke:#301e05;stroke-width:0.5;stroke-linecap:butt;stroke-linejoin:round;marker:none;stroke-miterlimit:4;stroke-dasharray:none;stroke-dashoffset:0;stroke-opacity:1;visibility:visible;display:inline;overflow:visible;enable-background:accumulate"/>
</g>
</svg>
