<?xml version="1.0" encoding="UTF-8" standalone="no"?>
<!DOCTYPE svg PUBLIC "-//W3C//DTD SVG 1.0//EN" "http://www.w3.org/TR/2001/REC-SVG-20010904/DTD/svg10.dtd">
<svg xmlns:svg="http://www.w3.org/2000/svg" xmlns="http://www.w3.org/2000/svg" version="1.0" width="100%" height="100%" viewBox="0 0 48 48" id="_righthand00" style="display:inline">
<defs id="defs2818"/>
<g id="righthand00">
<path d="M 23.50,14.37 C 23.63,14.38 23.76,14.37 23.88,14.4 C 24.84,14.62 26.34,14.73 29.56,19.34 C 32.03,19.66 32.57,21.28 32.78,23.21 C 33.00,25.15 33.65,25.78 33.97,26.75 C 34.29,27.71 34.51,30.72 34.41,32.43 C 34.30,34.15 36.00,38.86 36.53,39.93 C 36.96,40.78 40.65,44.87 43.72,48 L 22.09,48 C 20.45,45.48 18.71,43.35 17.13,42.21 C 14.87,40.6 13.48,37.04 12.63,35.21 C 11.77,33.39 10.38,29.96 10.38,28.25 C 10.38,26.53 10.67,26 12.28,25.25 C 12.07,24.49 12.09,22.98 12.41,22.34 C 12.73,21.69 14.23,20.84 14.88,20.84 C 12.52,19.44 13.37,17.83 13.69,17.4 C 14.01,16.97 16.27,16.67 17.13,16.78 C 17.98,16.88 19.05,16.33 20.13,16.12 C 20.34,15.58 20.67,15.15 21.09,14.93 C 21.47,14.74 22.58,14.33 23.50,14.37 z" id="p2555" style="fill:#ba6d35;fill-opacity:1;fill-rule:nonzero;stroke:none;marker:none;visibility:visible;display:inline;overflow:visible;enable-background:accumulate"/>
<path d="M 23.50,14.37 C 23.63,14.38 23.76,14.37 23.88,14.4 C 24.84,14.62 26.34,14.73 29.56,19.34 C 32.03,19.66 32.57,21.28 32.78,23.21 C 33.00,25.15 33.65,25.78 33.97,26.75 C 34.29,27.71 34.51,30.72 34.41,32.43 C 34.30,34.15 36.00,38.86 36.53,39.93 C 36.96,40.78 40.65,44.87 43.72,48 L 29.06,48 C 28.96,47.76 28.86,47.56 28.84,47.4 C 28.69,46.11 26.80,40.71 26.19,42.31 C 25.58,43.9 24.30,46.46 22.94,45.93 C 21.57,45.4 20.28,41.56 21.34,39.43 C 22.41,37.31 25.06,37.44 24.53,35.46 C 24.00,33.49 24.68,29.32 25.59,27.12 C 26.51,24.92 25.89,24.4 25.66,22.81 C 25.43,21.21 21.72,20.15 20.28,18.93 C 19.05,17.89 19.19,16.65 19.78,16.21 C 19.90,16.18 20.01,16.14 20.13,16.12 C 20.14,16.1 20.15,16.08 20.16,16.06 C 20.98,15.91 21.80,15.68 23.22,16.65 C 22.77,15.59 22.76,14.84 23.13,14.4 C 23.13,14.4 23.13,14.37 23.13,14.37 C 23.25,14.36 23.38,14.37 23.50,14.37 z M 21.03,23.18 C 21.56,23.94 22.33,23.86 22.94,23.93 C 22.41,24.08 21.56,25.62 21.03,27.06 C 20.50,28.5 20.13,31.9 20.13,31.9 C 20.13,31.9 19.82,32.07 19.44,32 C 19.89,33.28 18.14,34.96 17.00,34.28 C 15.86,33.59 15.26,31.69 14.88,30.4 C 14.50,29.11 15.88,28.65 15.88,28.65 C 15.88,28.65 17.01,28.66 17.84,28.96 C 17.31,27.22 19.06,26.99 18.00,26.15 C 16.94,25.32 16.47,22.82 17.00,23.28 C 17.53,23.73 18.23,24.7 19.22,25.68 C 19.14,24.85 20.43,23.26 21.03,23.18 z" id="p3402" style="fill:#733e26;fill-opacity:0.54;fill-rule:nonzero;stroke:none;marker:none;visibility:visible;display:inline;overflow:visible;enable-background:accumulate"/>
<path d="M 26.21,41.16 C 26.21,43.04 25.10,46.29 23.90,46.71" id="p3506" style="fill:none;fill-opacity:1;fill-rule:nonzero;stroke:#5a3518;stroke-width:4.48;stroke-linecap:round;stroke-linejoin:miter;marker:none;stroke-miterlimit:4;stroke-dasharray:none;stroke-dashoffset:0;stroke-opacity:0.2;visibility:visible;display:inline;overflow:visible;enable-background:accumulate"/>
<path d="M 29.63,48.34 C 29.46,47.14 27.75,42.18 26.38,40.9 C 25.35,39.19 23.98,35.6 24.67,30.81" id="p3504" style="fill:none;fill-opacity:1;fill-rule:nonzero;stroke:#d4ac7c;stroke-width:2.5;stroke-linecap:round;stroke-linejoin:miter;marker:none;stroke-miterlimit:4;stroke-dasharray:none;stroke-dashoffset:0;stroke-opacity:0.1;visibility:visible;display:inline;overflow:visible;enable-background:accumulate"/>
<path d="M 29.44,20.62 C 29.64,20.63 29.90,20.71 30.22,20.9 C 31.51,21.66 30.81,27.5 30.28,29.62 C 29.75,31.74 30.36,34.18 29.91,35.62 C 29.45,37.06 32.25,40.09 34.22,41.68 C 35.58,42.78 37.96,46.03 39.34,48 L 33.28,48 C 31.81,46.27 32.85,43.58 31.44,42.53 C 29.62,41.16 27.18,38.58 26.50,36.31 C 25.82,34.03 26.72,34.34 27.25,34.34 C 26.49,33.2 26.95,30.62 27.25,29.4 C 27.54,28.25 27.48,25.95 26.06,25 C 26.06,24.97 26.07,24.95 26.06,24.93 C 27.02,25.24 28.22,25.31 28.78,25.31 C 30.00,23.18 28.55,21.81 27.03,21.96 C 28.51,21.28 28.82,20.6 29.44,20.62 z" id="p3412" style="fill:#682d1f;fill-opacity:0.15;fill-rule:nonzero;stroke:none;marker:none;visibility:visible;display:inline;overflow:visible;enable-background:accumulate"/>
<path d="M 31.38,20.03 C 32.31,20.74 32.64,21.91 32.78,23.21 C 33.00,25.15 33.65,25.78 33.97,26.75 C 34.29,27.71 34.51,30.72 34.41,32.43 C 34.30,34.15 36.00,38.86 36.53,39.93 C 36.96,40.78 40.65,44.87 43.72,48 L 41.72,48 C 39.54,45.17 37.51,42.41 36.28,41.31 C 34.77,39.94 32.17,36.16 32.09,34.18 C 32.02,32.21 31.57,26.98 31.72,24.93 C 31.85,23.22 32.12,21.88 31.38,20.03 z" id="p3414" style="fill:#b07956;fill-opacity:0.33;fill-rule:nonzero;stroke:none;marker:none;visibility:visible;display:inline;overflow:visible;enable-background:accumulate"/>
<path d="M 22.25,24.71 C 22.02,25.85 21.11,28.59 21.56,31.62 C 22.02,34.65 22.94,34.88 24.00,35.34 C 23.77,35.87 21.12,37.46 20.28,35.18 C 20.07,34.61 19.98,33.77 20.00,32.81 C 20.07,29.92 21.06,25.91 22.25,24.71 z M 20.00,32.81 C 19.99,33.12 19.97,33.45 19.97,33.81 C 19.67,34.11 19.37,35.77 18.53,38.12 C 17.96,39.73 18.83,41.97 19.34,44.34 C 18.59,43.48 17.84,42.73 17.13,42.21 C 14.87,40.6 13.48,37.04 12.63,35.21 C 12.18,34.27 11.62,32.9 11.16,31.56 C 11.79,31.91 12.49,32.07 13.06,32 C 12.76,33.51 13.28,34.2 13.81,34.12 C 13.43,34.8 14.29,35.47 14.44,36.31 C 14.51,35.7 14.36,35.41 15.50,34.65 C 15.12,35.03 15.20,36.15 15.50,36.53 C 15.96,35.31 17.09,34.48 17.84,34.4 C 18.60,34.33 19.44,32.75 19.44,32.75 L 19.44,31.84 L 20.03,31.9 C 20.03,31.9 20.02,32.31 20.00,32.81 z M 10.75,26.31 C 10.68,27.22 10.74,28.09 11.09,28.65 C 12.23,30.47 13.07,31.9 12.16,31.37 C 11.76,31.14 11.17,30.51 10.66,30 C 10.49,29.33 10.38,28.72 10.38,28.25 C 10.38,27.35 10.45,26.76 10.75,26.31 z" id="p3416" style="fill:#f0ad7f;fill-opacity:0.35;fill-rule:nonzero;stroke:none;marker:none;visibility:visible;display:inline;overflow:visible;enable-background:accumulate"/>
<path d="M 19.44,34.49 C 18.91,35.48 18.30,36.54 18.38,37.98" id="p3468" style="fill:none;fill-opacity:1;fill-rule:nonzero;stroke:#c4aa8b;stroke-width:2.5;stroke-linecap:round;stroke-linejoin:miter;marker:none;stroke-miterlimit:4;stroke-dasharray:none;stroke-dashoffset:0;stroke-opacity:0.26;visibility:visible;display:inline;overflow:visible;enable-background:accumulate"/>
<path d="M 22.86,20.53 C 26.24,22.03 26.56,23.85 26.08,25.89" id="p3478" style="fill:none;fill-opacity:1;fill-rule:nonzero;stroke:#c4aa8b;stroke-width:2.5;stroke-linecap:round;stroke-linejoin:miter;marker:none;stroke-miterlimit:4;stroke-dasharray:none;stroke-dashoffset:0;stroke-opacity:0.13;visibility:visible;display:inline;overflow:visible;enable-background:accumulate"/>
<path d="M 25.85,23.98 C 25.24,23.94 24.29,23.87 23.91,23.75" id="p3490" style="fill:none;fill-opacity:1;fill-rule:nonzero;stroke:#dda763;stroke-width:1.10;stroke-linecap:round;stroke-linejoin:miter;marker:none;stroke-miterlimit:4;stroke-dasharray:none;stroke-dashoffset:0;stroke-opacity:0.18;visibility:visible;display:inline;overflow:visible;enable-background:accumulate"/>
<path d="M 27.78,25.46 C 26.57,24.85 23.76,24.48 22.93,24.02" id="p3433" style="fill:none;fill-opacity:1;fill-rule:nonzero;stroke:#6a2805;stroke-width:0.5;stroke-linecap:round;stroke-linejoin:miter;marker:none;stroke-miterlimit:4;stroke-dasharray:none;stroke-dashoffset:0;stroke-opacity:0.5;visibility:visible;display:inline;overflow:visible;enable-background:accumulate"/>
<path d="M 22.63,21.82 L 22.63,21.82 C 22.40,22.35 22.25,23.11 22.47,23.72" id="p3435" style="fill:none;fill-opacity:1;fill-rule:nonzero;stroke:#6a2805;stroke-width:0.5;stroke-linecap:round;stroke-linejoin:miter;marker:none;stroke-miterlimit:4;stroke-dasharray:none;stroke-dashoffset:0;stroke-opacity:0.37;visibility:visible;display:inline;overflow:visible;enable-background:accumulate"/>
<path d="M 19.67,20.53 C 19.89,21.29 19.67,21.67 19.97,22.2" id="p3437" style="fill:none;fill-opacity:1;fill-rule:nonzero;stroke:#6a2805;stroke-width:0.5;stroke-linecap:round;stroke-linejoin:miter;marker:none;stroke-miterlimit:4;stroke-dasharray:none;stroke-dashoffset:0;stroke-opacity:0.37;visibility:visible;display:inline;overflow:visible;enable-background:accumulate"/>
<path d="M 20.12,32.44 C 20.12,33.81 20.12,36.54 21.03,38.66" id="p3439" style="fill:none;fill-opacity:1;fill-rule:nonzero;stroke:#6a2805;stroke-width:1.20;stroke-linecap:round;stroke-linejoin:miter;marker:none;stroke-miterlimit:4;stroke-dasharray:none;stroke-dashoffset:0;stroke-opacity:0.37;visibility:visible;display:inline;overflow:visible;enable-background:accumulate"/>
<path d="M 16.18,34.11 C 15.11,34.72 14.58,35.4 14.43,36.08" id="p3441" style="fill:none;fill-opacity:1;fill-rule:nonzero;stroke:#6a2805;stroke-width:0.5;stroke-linecap:round;stroke-linejoin:miter;marker:none;stroke-miterlimit:4;stroke-dasharray:none;stroke-dashoffset:0;stroke-opacity:0.37;visibility:visible;display:inline;overflow:visible;enable-background:accumulate"/>
<path d="M 27.63,27.66 C 26.19,27.51 23.61,26.07 22.85,25.46" id="p3443" style="fill:none;fill-opacity:1;fill-rule:nonzero;stroke:#dda763;stroke-width:1.38;stroke-linecap:round;stroke-linejoin:miter;marker:none;stroke-miterlimit:4;stroke-dasharray:none;stroke-dashoffset:0;stroke-opacity:0.31;visibility:visible;display:inline;overflow:visible;enable-background:accumulate"/>
<path d="M 16.94,16.78 C 16.56,17.46 16.28,18 16.19,18.56 C 15.58,18.71 14.87,19.24 13.66,17.65 C 13.63,17.62 13.62,17.59 13.59,17.56 C 13.63,17.5 13.66,17.44 13.69,17.4 C 13.99,17 15.99,16.72 16.94,16.78 z" id="p3445" style="fill:#fcbfa4;fill-opacity:0.33;fill-rule:nonzero;stroke:none;marker:none;visibility:visible;display:inline;overflow:visible;enable-background:accumulate"/>
<path d="M 18.45,19.7 C 17.92,19.7 16.86,19.24 16.48,18.63" id="p3447" style="fill:none;fill-opacity:1;fill-rule:nonzero;stroke:#6a2805;stroke-width:1.20;stroke-linecap:round;stroke-linejoin:miter;marker:none;stroke-miterlimit:4;stroke-dasharray:none;stroke-dashoffset:0;stroke-opacity:0.21;visibility:visible;display:inline;overflow:visible;enable-background:accumulate"/>
<path d="M 23.00,38.51 C 22.47,39.73 21.94,40.18 22.32,41.93" id="p3460" style="fill:none;fill-opacity:1;fill-rule:nonzero;stroke:#6a2805;stroke-width:1.70;stroke-linecap:round;stroke-linejoin:miter;marker:none;stroke-miterlimit:4;stroke-dasharray:none;stroke-dashoffset:0;stroke-opacity:0.2;visibility:visible;display:inline;overflow:visible;enable-background:accumulate"/>
<path d="M 27.48,34.41 C 26.72,34.34 24.52,34.11 23.69,34.03" id="p3462" style="fill:none;fill-opacity:1;fill-rule:nonzero;stroke:#dda763;stroke-width:1.10;stroke-linecap:round;stroke-linejoin:miter;marker:none;stroke-miterlimit:4;stroke-dasharray:none;stroke-dashoffset:0;stroke-opacity:0.18;visibility:visible;display:inline;overflow:visible;enable-background:accumulate"/>
<path d="M 24.14,41.32 C 23.69,42.53 22.09,44.88 21.34,45.19" id="p3464" style="fill:none;fill-opacity:1;fill-rule:nonzero;stroke:#dda763;stroke-width:1.60;stroke-linecap:round;stroke-linejoin:miter;marker:none;stroke-miterlimit:4;stroke-dasharray:none;stroke-dashoffset:0;stroke-opacity:0.21;visibility:visible;display:inline;overflow:visible;enable-background:accumulate"/>
<path d="M 21.64,30.77 C 21.34,31.91 21.34,34.26 22.25,35.25" id="p3466" style="fill:none;fill-opacity:1;fill-rule:nonzero;stroke:#dda763;stroke-width:1.70;stroke-linecap:round;stroke-linejoin:miter;marker:none;stroke-miterlimit:4;stroke-dasharray:none;stroke-dashoffset:0;stroke-opacity:0.31;visibility:visible;display:inline;overflow:visible;enable-background:accumulate"/>
<path d="M 24.45,20.76 C 22.09,19.24 19.97,17.34 17.92,18.1" id="p3470" style="fill:none;fill-opacity:1;fill-rule:nonzero;stroke:#8d4a25;stroke-width:1.70;stroke-linecap:round;stroke-linejoin:miter;marker:none;stroke-miterlimit:4;stroke-dasharray:none;stroke-dashoffset:0;stroke-opacity:0.37;visibility:visible;display:inline;overflow:visible;enable-background:accumulate"/>
<path d="M 15.62,22.83 C 16.00,23.64 16.91,24.98 17.71,25.36" id="p3480" style="fill:none;fill-opacity:1;fill-rule:nonzero;stroke:#c4aa8b;stroke-width:1.60;stroke-linecap:round;stroke-linejoin:miter;marker:none;stroke-miterlimit:4;stroke-dasharray:none;stroke-dashoffset:0;stroke-opacity:0.13;visibility:visible;display:inline;overflow:visible;enable-background:accumulate"/>
<path d="M 13.21,24.28 C 13.90,25.03 14.49,26.27 14.60,27.07" id="p3482" style="fill:none;fill-opacity:1;fill-rule:nonzero;stroke:#dda763;stroke-width:1.70;stroke-linecap:round;stroke-linejoin:miter;marker:none;stroke-miterlimit:4;stroke-dasharray:none;stroke-dashoffset:0;stroke-opacity:0.31;visibility:visible;display:inline;overflow:visible;enable-background:accumulate"/>
<path d="M 28.77,27.32 C 27.29,26.87 25.85,26.3 25.39,25.99" id="p3484" style="fill:none;fill-opacity:1;fill-rule:nonzero;stroke:#6a2805;stroke-width:0.69;stroke-linecap:round;stroke-linejoin:miter;marker:none;stroke-miterlimit:4;stroke-dasharray:none;stroke-dashoffset:0;stroke-opacity:0.37;visibility:visible;display:inline;overflow:visible;enable-background:accumulate"/>
<path d="M 27.06,28.5 C 26.15,28.23 25.47,27.66 24.94,27.24" id="p3486" style="fill:none;fill-opacity:1;fill-rule:nonzero;stroke:#6a2805;stroke-width:0.69;stroke-linecap:round;stroke-linejoin:miter;marker:none;stroke-miterlimit:4;stroke-dasharray:none;stroke-dashoffset:0;stroke-opacity:0.27;visibility:visible;display:inline;overflow:visible;enable-background:accumulate"/>
<path d="M 23.76,22.96 C 23.46,23.34 23.23,23.83 23.16,24.02" id="p3488" style="fill:none;fill-opacity:1;fill-rule:nonzero;stroke:#6a2805;stroke-width:0.5;stroke-linecap:round;stroke-linejoin:miter;marker:none;stroke-miterlimit:4;stroke-dasharray:none;stroke-dashoffset:0;stroke-opacity:0.37;visibility:visible;display:inline;overflow:visible;enable-background:accumulate"/>
<path d="M 16.28,18.18 L 15.28,18.43" id="p3496" style="fill:none;fill-opacity:1;fill-rule:nonzero;stroke:#fae9dc;stroke-width:0.80;stroke-linecap:round;stroke-linejoin:miter;marker:none;stroke-miterlimit:4;stroke-dasharray:none;stroke-dashoffset:0;stroke-opacity:0.27;visibility:visible;display:inline;overflow:visible;enable-background:accumulate"/>
<path d="M 13.09,30.93 C 12.09,30.56 11.22,29.25 10.97,28.93" id="p3499" style="fill:none;fill-opacity:1;fill-rule:nonzero;stroke:#efa35e;stroke-width:1.38;stroke-linecap:round;stroke-linejoin:miter;marker:none;stroke-miterlimit:4;stroke-dasharray:none;stroke-dashoffset:0;stroke-opacity:0.25;visibility:visible;display:inline;overflow:visible;enable-background:accumulate"/>
<path d="M 16.53,21.18 C 15.72,20.37 14.84,19.77 14.34,19.77" id="p3502" style="fill:none;fill-opacity:1;fill-rule:nonzero;stroke:#efa35e;stroke-width:1.38;stroke-linecap:round;stroke-linejoin:miter;marker:none;stroke-miterlimit:4;stroke-dasharray:none;stroke-dashoffset:0;stroke-opacity:0.31;visibility:visible;display:inline;overflow:visible;enable-background:accumulate"/>
<path d="M 29.57,19.29 L 29.57,19.29 C 28.33,19.19 27.26,18.81 26.40,18.11 C 25.54,17.42 24.63,17.09 24.10,16.99 C 23.56,16.88 22.33,15.97 21.90,15.91 C 21.47,15.86 20.34,16.07 20.34,16.07" id="p2615" style="fill:none;fill-opacity:1;fill-rule:nonzero;stroke:#301e05;stroke-width:0.5;stroke-linecap:round;stroke-linejoin:round;marker:none;stroke-miterlimit:4;stroke-dasharray:none;stroke-dashoffset:0;stroke-opacity:1;visibility:visible;display:inline;overflow:visible;enable-background:accumulate"/>
<path d="M 25.33,15.48 C 26.13,16.5 26.13,17.42 26.13,17.84" id="p3387" style="fill:none;fill-opacity:1;fill-rule:nonzero;stroke:#301e05;stroke-width:0.5;stroke-linecap:round;stroke-linejoin:round;marker:none;stroke-miterlimit:4;stroke-dasharray:none;stroke-dashoffset:0;stroke-opacity:1;visibility:visible;display:inline;overflow:visible;enable-background:accumulate"/>
<path d="M 14.98,20.85 L 14.98,20.85 C 15.67,21.44 16.42,22.14 17.18,22.46 C 17.93,22.78 19.48,22.51 20.02,22.24 C 20.23,22.73 20.93,23.59 22.49,23.8 C 22.59,23.91 22.75,24.01 23.02,24.07 C 21.79,24.55 21.15,26.27 20.61,28.79 C 20.07,31.31 19.64,33.72 20.45,35.66" id="p3389" style="fill:none;fill-opacity:1;fill-rule:nonzero;stroke:#301e05;stroke-width:0.5;stroke-linecap:round;stroke-linejoin:round;marker:none;stroke-miterlimit:4;stroke-dasharray:none;stroke-dashoffset:0;stroke-opacity:1;visibility:visible;display:inline;overflow:visible;enable-background:accumulate"/>
<path d="M 21.04,27.02 C 19.75,26.16 18.62,25.19 18.09,24.5 C 17.55,23.8 15.83,21.87 15.57,21.44" id="p3391" style="fill:none;fill-opacity:1;fill-rule:nonzero;stroke:#301e05;stroke-width:0.5;stroke-linecap:round;stroke-linejoin:round;marker:none;stroke-miterlimit:4;stroke-dasharray:none;stroke-dashoffset:0;stroke-opacity:1;visibility:visible;display:inline;overflow:visible;enable-background:accumulate"/>
<path d="M 19.97,32.12 C 19.05,31.47 17.71,30.13 17.07,29.54 C 16.42,28.95 14.22,27.72 13.74,27.07 C 13.26,26.43 12.40,25.36 12.40,25.36" id="p3396" style="fill:none;fill-opacity:1;fill-rule:nonzero;stroke:#301e05;stroke-width:0.5;stroke-linecap:round;stroke-linejoin:round;marker:none;stroke-miterlimit:4;stroke-dasharray:none;stroke-dashoffset:0;stroke-opacity:1;visibility:visible;display:inline;overflow:visible;enable-background:accumulate"/>
<path d="M 19.43,32.01 C 19.59,32.76 19.21,33.19 18.89,33.51 C 18.57,33.83 18.09,34.64 16.59,34.26 C 15.08,33.89 14.01,32.71 13.31,31.95 C 12.88,31.85 11.70,31.2 11.17,30.18" id="p3400" style="fill:none;fill-opacity:1;fill-rule:nonzero;stroke:#301e05;stroke-width:0.5;stroke-linecap:round;stroke-linejoin:round;marker:none;stroke-miterlimit:4;stroke-dasharray:none;stroke-dashoffset:0;stroke-opacity:1;visibility:visible;display:inline;overflow:visible;enable-background:accumulate"/>
<path d="M 22.09,48 C 20.45,45.48 18.71,43.35 17.13,42.21 C 14.87,40.6 13.48,37.04 12.63,35.21 C 11.77,33.39 10.38,29.96 10.38,28.25 C 10.38,26.53 10.67,26 12.28,25.25 C 12.07,24.49 12.09,22.98 12.41,22.34 C 12.73,21.69 14.23,20.84 14.88,20.84 C 12.52,19.44 13.37,17.83 13.69,17.4 C 14.01,16.97 16.27,16.67 17.13,16.78 C 17.98,16.88 19.05,16.33 20.13,16.12 C 20.34,15.58 20.67,15.15 21.09,14.93 C 21.47,14.74 22.58,14.33 23.50,14.37 C 23.63,14.38 23.76,14.37 23.88,14.4 C 24.84,14.62 26.34,14.73 29.56,19.34 C 32.03,19.66 32.57,21.28 32.78,23.21 C 33.00,25.15 33.65,25.78 33.97,26.75 C 34.29,27.71 34.51,30.72 34.41,32.43 C 34.30,34.15 36.00,38.86 36.53,39.93 C 36.96,40.78 40.65,44.87 43.72,48" id="stroke01" style="fill:none;fill-opacity:1;fill-rule:nonzero;stroke:#301e05;stroke-width:0.5;stroke-linecap:butt;stroke-linejoin:round;marker:none;stroke-miterlimit:4;stroke-dasharray:none;stroke-dashoffset:0;stroke-opacity:1;visibility:visible;display:inline;overflow:visible;enable-background:accumulate"/>
</g>
</svg>
