<?xml version="1.0" encoding="UTF-8" standalone="no"?>
<svg xmlns:dc="http://purl.org/dc/elements/1.1/" xmlns:cc="http://creativecommons.org/ns#" xmlns:rdf="http://www.w3.org/1999/02/22-rdf-syntax-ns#" xmlns:svg="http://www.w3.org/2000/svg" xmlns="http://www.w3.org/2000/svg" viewBox="0 0 48 48" version="1.1" id="candy01" height="100%" width="100%">
 <defs id="defs3346" />
 <g style="display:inline" id="layer2">
 <path style="fill:#232378;stroke-width:0.5;stroke-linecap:butt;stroke-opacity:1" d="M 1.683,24.403 C 0.945,17.909 8.213,12.561 17.791,10.819 c 9.578,-1.741 19.969,1.106 25.164,6.443 5.241,5.385 2.873,10.187 1.393,13.496 -1.830,4.091 -6.965,7.749 -12.799,9.055 C 25.715,41.121 17.432,41.577 9.258,37.377 2.989,34.155 2.118,28.234 1.683,24.403 Z" id="path4236" />
 <path id="path4167" d="m 23.224,10.310 c -1.813,0.017 -3.637,0.183 -5.433,0.509 -3.689,0.670 -7.028,1.879 -9.707,3.480 -3.466,2.449 -5.325,5.183 -5.269,8.796 0.087,5.572 2.612,7.748 6.531,9.925 3.918,2.176 20.548,6.095 31.345,-0.609 3.701,-2.298 5.202,-5.898 5.341,-9.660 C 45.713,21.024 44.823,19.182 42.955,17.263 38.735,12.927 31.083,10.233 23.224,10.310 Z" style="fill:#1717ae;fill-opacity:0.723;stroke-width:0.5;stroke-linecap:butt;" />
 <path id="path4218" d="m 30.836,11.113 c 2.674,1.402 4.665,4.037 4.630,8.935 -0.087,12.277 -16.195,11.320 -18.111,12.017 -1.582,0.575 -2.860,4.711 -1.738,7.705 5.960,1.504 11.616,1.009 15.931,0.042 5.833,-1.306 10.970,-4.963 12.800,-9.054 C 45.830,27.450 48.197,22.649 42.955,17.263 40.131,14.362 35.766,12.205 30.836,11.113 Z" style="fill:#09085d;fill-opacity:0.331;stroke-width:1px;stroke-linecap:butt;stroke-opacity:1" />
 <path id="path4230" d="M 8.068,14.310 C 3.803,16.864 1.230,20.414 1.683,24.402 2.119,28.233 2.988,34.155 9.258,37.376 10.203,37.862 11.150,38.279 12.094,38.646 14.937,36.610 22.694,34.548 16.572,32.414 7.081,29.105 7.866,28.408 5.428,25.273 3.390,22.653 4.963,19.222 8.068,14.310 Z" style="fill:#0e0b7f;fill-opacity:0.674;stroke-width:1px;stroke-linecap:butt;stroke-opacity:1" />
 <path id="path4570" d="M 8.135,16.106 C 4.687,18.076 2.347,21.401 5.179,26.573" style="fill:none;stroke:#161677;stroke-width:2.5;stroke-linecap:round;stroke-opacity:0.524" />
 <path id="path4228" d="m 22.319,19.178 c 1.828,2.873 6.356,5.224 9.055,3.744 2.699,-1.480 3.134,-6.008 2.960,-7.140 -0.174,-1.131 -8.010,-4.353 -11.145,-2.263 -3.134,2.089 -0.870,5.659 -0.870,5.659 z" style="fill:#5858ef;fill-opacity:0.314;stroke-width:1px;stroke-linecap:butt;stroke-opacity:1" />
 <path id="path4169" d="m 25.398,12.527 c -1.938,0.053 -4.320,1.012 -5.953,4.386 1.689,-1.351 4.774,-4.899 8.455,-3.203 -7.204,4.231 -12.749,9.966 -8.714,14.001 4.179,4.179 9.839,-1.045 8.968,-5.921 0.609,5.224 -5.226,8.880 -8.099,5.746 -2.873,-3.134 0.435,-7.836 6.095,-11.232 0.986,-0.675 2.062,-1.497 2.939,-1.964 3.146,1.764 4.236,2.781 4.636,6.144 0.435,3.657 -3.919,14.976 -19.853,8.271 4.527,3.744 19.504,7.228 22.291,-7.312 5.623,-0.146 8.479,4.179 8.589,8.404 1.432,-3.248 2.981,-7.658 -1.785,-12.568 -3.438,-1.923 -8.326,-3.770 -14.814,-4.195 -0.587,-0.293 -1.592,-0.588 -2.755,-0.556 z m 2.822,4.371 a 1.629,3.319 68.919 0 0 -1.832,0.333 1.629,3.319 68.919 0 0 -2.757,2.683 1.629,3.319 68.919 0 0 3.5,0.513 1.629,3.319 68.919 0 0 1.248,-0.585 2.350,1.044 0 0 1 -0.574,0.031 2.350,1.044 0 0 1 -2.351,-1.044 2.350,1.044 0 0 1 2.351,-1.044 2.350,1.044 0 0 1 2.037,0.525 1.629,3.319 68.919 0 0 0.048,-0.566 1.629,3.319 68.919 0 0 -1.669,-0.845 z" style="fill:#b0adea;fill-opacity:0.447;stroke-width:0.5;stroke-linecap:butt;" />
 <path id="path4174" d="m 24.275,10.328 c -2.615,0.443 -6.706,1.213 -8.224,1.972 -2.263,1.131 -5.920,0.087 -3.744,4.789 2.919,-3.854 8.192,-6.288 13.894,-6.666 -0.638,-0.050 -1.280,-0.081 -1.925,-0.095 z" style="fill:#9896e4;fill-opacity:0.535;stroke-width:0.5;stroke-linecap:butt;" />
 <path id="path4176" d="M 3.976,17.660 C 2.273,19.655 1.404,21.945 1.683,24.402 2.119,28.233 2.988,34.155 9.258,37.376 12.474,39.029 15.706,39.953 18.801,40.396 18.457,38.776 12.051,35.226 7.603,32.066 1.856,27.982 2.418,24.088 3.976,17.660 Z" style="fill:#a9a8d2;fill-opacity:0.265;stroke-width:1px;stroke-linecap:butt;stroke-opacity:1" />
 <path id="path4178" d="M 45.771,27.121 C 42.066,35.055 30.855,39.005 19.969,38.074 9.461,37.175 4.398,32.760 2.142,27.451 c 0.705,3.466 2.346,7.475 7.115,9.925 8.174,4.200 16.457,3.743 22.291,2.437 5.833,-1.306 10.970,-4.963 12.800,-9.054 0.477,-1.067 1.044,-2.291 1.421,-3.638 z" style="fill:#6360d3;fill-opacity:0.265;stroke-width:1px;stroke-linecap:butt;stroke-opacity:1" />
 <path id="path4180" d="m 8.562,28.930 c 0.348,0.435 1.306,1.131 1.915,1.393" style="fill:none;stroke:#a0a0f0;stroke-width:1.899;stroke-linecap:butt;stroke-opacity:0.657" />
 <ellipse ry="0.565" rx="0.348" cy="17.742" cx="5.949" id="path4182" style="fill:#1e1bae;fill-opacity:0.585;stroke-width:0.5;stroke-linecap:butt;marker:none;" />
 <ellipse ry="0.522" rx="0.783" cy="15.260" cx="8.736" id="path4184" style="fill:#1e1bae;fill-opacity:0.585;stroke-width:0.5;stroke-linecap:butt;marker:none;" />
 <ellipse transform="matrix(1,0,-0.554,0.832,0,0)" ry="0.889" rx="0.478" cy="32.817" cx="25.046" id="path4186" style="fill:#9996ea;fill-opacity:0.845;stroke-width:0.5;stroke-linecap:butt;marker:none;" />
 <ellipse ry="0.478" rx="0.696" cy="22.531" cx="16.050" id="path4188" style="fill:#b8b6e1;fill-opacity:0.845;stroke-width:0.5;stroke-linecap:butt;marker:none;" />
 <path id="path4220" d="m 36.889,13.123 c 3.175,2.768 5.892,5.801 5.892,6.925 0,1.480 -4.439,-0.434 -5.310,-0.085 -0.870,0.348 -2.438,10.013 -8.185,11.232 -5.746,1.219 -9.230,4.352 -6.531,4.875 2.255,0.436 11.433,1.240 10.380,3.320 5.161,-1.563 9.552,-4.915 11.214,-8.630 1.480,-3.308 3.847,-8.110 -1.394,-13.496 -1.590,-1.634 -3.673,-3.033 -6.066,-4.140 z" style="fill:#09085d;fill-opacity:0.331;stroke-width:1px;stroke-linecap:butt;stroke-opacity:1" />
 <path id="path4671" d="m 30.275,12.429 c -1.078,0.100 -2.143,0.410 -3.322,1.009 a 17.244,7.190 39.002 0 0 0.072,0.376 c 0.303,-0.173 0.598,-0.331 0.875,-0.458 3.684,2.335 4.960,3.619 5.429,7.591 0.074,0.627 0.013,1.444 -0.173,2.339 a 17.244,7.190 39.002 0 0 2.189,2.054 c 0.336,-0.929 0.622,-1.944 0.839,-3.064 4.647,0.218 7.677,2.928 9.105,6.246 1.180,-3.084 1.828,-6.977 -2.328,-11.253 -3.246,-1.897 -7.457,-3.721 -12.687,-4.841 z m -2.185,4.150 a 17.244,7.190 39.002 0 0 0.740,1.320 1.950,3.801 73.794 0 0 0.007,-0.488 1.950,3.801 73.794 0 0 -0.748,-0.832 z" style="fill:#b0adea;fill-opacity:0.447;stroke-width:0.5;stroke-linecap:butt;" />
 <path id="path4222" d="m 43.913,24.054 c -0.348,1.306 -1.654,3.047 -2.350,4.005" style="fill:none;stroke:#8686f1;stroke-width:2;stroke-linecap:butt;stroke-opacity:0.591" />
 <ellipse ry="0.783" rx="0.870" cy="21.790" cx="6.298" id="path4224" style="fill:none;stroke:#1414ae;stroke-width:0.5;stroke-linecap:butt;marker:none;" />
 <ellipse ry="0.609" rx="0.565" cy="18.046" cx="9.650" id="path4226" style="fill:none;stroke:#1414ae;stroke-width:0.5;stroke-linecap:butt;marker:none;" />
 <path id="path4564" d="m 4.810,30.514 c 5.295,5.048 13.791,6.895 20.195,7.265 6.403,0.369 12.437,-1.970 15.269,-4.063" style="fill:none;stroke:#3b3ba1;stroke-width:1.299;stroke-linecap:round;stroke-opacity:0.519" />
 <path id="path4566" d="m 25.251,13.520 c 1.600,2.955 3.817,6.526 3.201,11.082" style="fill:none;stroke:#2525bf;stroke-width:1.200;stroke-linecap:butt;stroke-opacity:0.580" />
 <path id="path4568" d="m 41.259,19.800 c 0.369,0.985 0.615,2.093 0.492,3.078" style="fill:none;stroke:#9f9ff4;stroke-width:1.299;stroke-linecap:butt;stroke-opacity:0.591;" />
 <path id="path4613" d="m 5.974,15.751 c -2.985,2.379 -4.664,5.366 -4.291,8.650 0.431,3.796 1.296,9.642 7.412,12.882 A 0.900,0.900 0 0 0 8.957,37.029 c -4.303,-5.613 -5.854,-9.397 -5.843,-12.728 0.009,-2.746 1.131,-5.370 2.861,-8.548 z" style="font-style:normal;font-variant:normal;font-weight:normal;font-stretch:normal;font-size:medium;line-height:normal;font-family:sans-serif;text-indent:0;text-align:start;text-decoration:none;text-decoration-line:none;text-decoration-style:letter-spacing:normal;word-spacing:normal;text-transform:none;direction:ltr;block-progression:tb;writing-mode:lr-tb;baseline-shift:baseline;text-anchor:start;white-space:normal;fill:#b5b5ef;fill-opacity:0.259;stroke-width:1.799;stroke-linecap:round;" />
 <path id="path4635" d="m 3.239,29.668 c 4.225,4.838 6.337,5.451 11.176,6.882" style="fill:none;stroke:#a0a0e5;stroke-width:0.600;stroke-linecap:round;stroke-opacity:0.254" />
 <path id="path4652" d="m 8.895,29.395 c 1.158,0.817 1.499,0.954 2.453,1.294" style="fill:none;stroke:#b4b4ea;stroke-width:1.600;stroke-linecap:butt;stroke-opacity:0.640" />
 <path id="path4669" d="m 13.195,15.040 c 1.734,-1.638 3.373,-2.312 5.686,-3.083" style="fill:none;stroke:#b0b0ee;stroke-width:0.800;stroke-linecap:round;stroke-opacity:0.430" />
 <path id="path4611" d="m 33.994,16.722 c 2.216,0.246 5.295,1.108 7.142,3.078" style="fill:none;stroke:#cecef5;stroke-width:4.800;stroke-linecap:butt;stroke-opacity:0.353" />
 <path style="fill:none;stroke:#0d0d4d;stroke-width:0.5;stroke-linecap:butt;stroke-opacity:1" d="M 1.683,24.403 C 0.945,17.909 8.213,12.561 17.791,10.819 c 9.578,-1.741 19.969,1.106 25.164,6.443 5.241,5.385 2.873,10.187 1.393,13.496 -1.830,4.091 -6.965,7.749 -12.799,9.055 C 25.715,41.121 17.432,41.577 9.258,37.377 2.989,34.155 2.118,28.234 1.683,24.403 Z" id="stroke01" />
 </g>
</svg>
