<?xml version="1.0" encoding="UTF-8" standalone="no"?>
<svg xmlns:dc="http://purl.org/dc/elements/1.1/" xmlns:cc="http://creativecommons.org/ns#" xmlns:rdf="http://www.w3.org/1999/02/22-rdf-syntax-ns#" xmlns:svg="http://www.w3.org/2000/svg" xmlns="http://www.w3.org/2000/svg" viewBox="0 0 48 48" version="1.1" id="cane01" height="100%" width="100%">
 <defs id="defs4138" />
 <g style="display:inline" id="layer2">
 <path id="path4697-7" d="m 11.586,44.764 c -0.208,0.835 2.296,1.670 2.609,0.835 0.313,-0.835 11.169,-30.271 12.108,-32.776 0.939,-2.505 3.323,-7.185 5.769,-6.140 2.593,1.108 1.850,4.470 1.120,7.184 -0.730,2.713 -1.565,4.801 -1.565,5.427 0,0.626 1.811,1.461 2.437,0.521 0.626,-0.939 2.964,-7.625 2.675,-10.342 -0.380,-3.588 -2.872,-6.718 -7.600,-5.105 -3.225,1.099 -5.968,7.828 -8.055,13.569 -2.087,5.741 -9.290,25.887 -9.498,26.826 z" style="fill:#eceafc;stroke-width:0.5;stroke-linecap:butt;stroke-opacity:1" />
 <path id="path4785" d="m 13.617,45.833 c 0.079,-0.175 0.334,-0.350 0.366,-0.844 0.031,-0.493 0.194,-3.660 0.222,-4.602 0.063,-2.102 0.557,-4.204 1.067,-6.052 0.127,-0.414 0.589,-1.321 0.589,-1.321 0,0 -0.430,1.592 -0.541,2.468 -0.111,0.875 -0.302,2.325 -0.382,3.472 -0.079,1.146 -0.111,2.850 -0.191,3.312 -0.079,0.461 -0.127,2.054 -0.445,2.659 -0.318,0.605 -0.286,1.130 -0.684,0.907 z" style="fill:#2b1ab4;stroke-width:1px;stroke-linecap:butt;" />
 <path id="path4822" d="m 20.426,19.943 c -0.832,2.496 -1.005,5.028 -1.144,6.519 -0.138,1.491 -0.138,3.433 -0.138,4.022 0,0.589 -0.104,1.629 -0.208,2.080 0.485,-0.832 1.179,-3.433 1.352,-6.277 0.173,-2.843 -0.034,-5.479 1.317,-9.467 -0.866,1.976 -1.179,3.121 -1.179,3.121 z" style="fill:#2b1ab4;stroke-width:1px;stroke-linecap:butt;" />
 <path id="path4873" d="m 24.171,10.511 c -0.416,1.976 -0.381,2.809 -0.450,3.710 -0.069,0.901 -0.242,5.444 -0.485,6.727 0.381,-0.589 0.762,-3.017 0.936,-4.161 0.173,-1.144 0.346,-4.196 0.312,-4.924 -0.034,-0.728 -0.138,-1.629 0.520,-2.878 -0.416,0.450 -0.589,1.005 -0.832,1.525 z" style="fill:#2b1ab4;stroke-width:1px;stroke-linecap:butt;" />
 <path id="path4934" d="M 28.011,9.384 C 28.633,6.275 29.566,4.341 31.949,3.995 33.296,4.168 34.747,4.997 34.747,4.997 l 1.105,1.554 c 0,0 -0.759,-1.416 -2.383,-1.692 -1.623,-0.276 -3.384,0.310 -5.042,3.868 -0.138,0.276 -0.414,0.656 -0.414,0.656 z" style="fill:#2b1ab4;stroke-width:1px;stroke-linecap:butt;" />
 <path id="path4936" d="m 33.158,7.346 c 2.452,2.245 2.383,6.908 1.830,10.051 -0.103,0.725 -0.483,1.623 -0.483,1.623 0,0 0.518,-3.212 0.172,-5.871 -0.345,-2.659 -0.518,-3.419 -0.898,-3.903 -0.034,-0.518 -0.414,-1.485 -0.621,-1.899 z" style="fill:#2b1ab4;stroke-width:1px;stroke-linecap:butt;" />
 <path id="path4749" d="m 17.545,28.050 c -0.970,3.416 -1.054,5.609 -1.054,7.633 0,2.024 -0.379,5.145 -1.180,6.916" style="fill:none;stroke:#3030b9;stroke-width:0.2;stroke-linecap:butt;stroke-opacity:1" />
 <path style="fill:none;stroke:#3030b9;stroke-width:0.2;stroke-linecap:butt;stroke-opacity:1" d="m 17.924,27.038 c -0.970,3.416 -1.054,5.609 -1.054,7.633 0,2.024 -0.379,5.145 -1.180,6.916" id="path4751" />
 <path id="path4753" d="m 18.388,25.899 c -0.970,3.416 -1.054,5.609 -1.054,7.633 0,2.024 -0.379,5.145 -1.180,6.916" style="fill:none;stroke:#3030b9;stroke-width:0.2;stroke-linecap:butt;stroke-opacity:1" />
 <path id="path4755" d="m 13.139,40.259 c -0.175,1.178 -0.732,4.825 -0.414,5.478" style="fill:none;stroke:#3030b9;stroke-width:0.2;stroke-linecap:butt;" />
 <path id="path4771" d="m 12.582,41.963 c -0.286,1.959 -0.430,3.312 -0.063,3.711" style="fill:none;stroke:#3030b9;stroke-width:0.2;stroke-linecap:butt;" />
 <path id="path4778" d="m 12.009,43.715 c -0.079,0.700 -0.159,1.449 0.127,1.736" style="fill:none;stroke:#3030b9;stroke-width:0.2;stroke-linecap:butt;" />
 <path id="path4853" d="m 22.368,14.533 c -0.936,3.051 -0.971,4.404 -1.040,5.306 -0.069,0.901 -0.034,2.774 -0.069,3.606 -0.034,0.832 -0.173,3.537 -0.901,5.479" style="fill:none;stroke:#3030b9;stroke-width:0.2;stroke-linecap:butt;" />
 <path style="fill:none;stroke:#3030b9;stroke-width:0.2;stroke-linecap:butt;" d="m 22.854,13.389 c -0.936,3.051 -0.971,4.404 -1.040,5.306 -0.069,0.901 -0.034,2.774 -0.069,3.606 -0.034,0.832 -0.173,3.537 -0.901,5.479" id="path4869" />
 <path id="path4871" d="m 23.270,12.245 c -0.936,3.051 -0.971,4.404 -1.040,5.306 -0.069,0.901 -0.034,2.774 -0.069,3.606 -0.034,0.832 -0.173,3.537 -0.901,5.479" style="fill:none;stroke:#3030b9;stroke-width:0.2;stroke-linecap:butt;" />
 <path id="path4875" d="m 26.634,6.384 c -0.658,1.421 -0.866,2.878 -0.971,3.849 -0.104,0.971 -0.208,4.543 -0.346,5.028" style="fill:none;stroke:#3030b9;stroke-width:0.2;stroke-linecap:butt;" />
 <path id="path4891" d="M 27.639,5.378 C 26.911,6.210 26.322,7.597 26.287,8.603 26.252,9.609 25.836,13.944 25.732,14.395" style="fill:none;stroke:#3030b9;stroke-width:0.2;stroke-linecap:butt;" />
 <path id="path4898" d="M 28.506,4.719 C 27.501,6.037 27.258,6.141 26.911,7.771 26.564,9.401 26.391,11.690 26.044,13.458" style="fill:none;stroke:#3030b9;stroke-width:0.2;stroke-linecap:butt;" />
 <path id="path4970" d="m 30.671,6.621 c 1.208,-1.174 2.486,-1.070 3.350,-0.794 0.863,0.276 2.521,1.968 2.659,4.144" style="fill:none;stroke:#3030b9;stroke-width:0.2;stroke-linecap:butt;" />
 <path id="path4986" d="m 30.947,6.621 c 1.277,-0.552 2.141,-0.552 2.935,-0.241 0.794,0.310 2.659,1.830 2.659,5.457" style="fill:none;stroke:#3030b9;stroke-width:0.2;stroke-linecap:butt;" />
 <path id="path4993" d="m 31.258,6.482 c 1.450,-0.103 2.555,-0.069 3.212,0.587 0.656,0.656 1.899,1.934 1.692,6.458" style="fill:none;stroke:#3030b9;stroke-width:0.2;stroke-linecap:butt;" />
 <path id="path5000" d="m 33.434,13.114 c 0,2.452 0.241,5.595 -0.207,6.666" style="fill:none;stroke:#3030b9;stroke-width:0.2;stroke-linecap:butt;" />
 <path id="path5007" d="m 33.054,14.323 c -0.034,2.314 0.069,4.490 -0.103,5.319" style="fill:none;stroke:#3030b9;stroke-width:0.2;stroke-linecap:butt;" />
 <path id="path5014" d="m 32.709,15.946 c -0.069,1.381 -0.034,3.039 -0.034,3.488" style="fill:none;stroke:#3030b9;stroke-width:0.2;stroke-linecap:butt;" />
 <path id="stroke01" d="m 11.586,44.764 c -0.208,0.835 2.296,1.670 2.609,0.835 0.313,-0.835 11.169,-30.271 12.108,-32.776 0.939,-2.505 3.323,-7.185 5.769,-6.140 2.593,1.108 1.850,4.470 1.120,7.184 -0.730,2.713 -1.565,4.801 -1.565,5.427 0,0.626 1.811,1.461 2.437,0.521 0.626,-0.939 2.964,-7.625 2.675,-10.342 -0.380,-3.588 -2.872,-6.718 -7.600,-5.105 -3.225,1.099 -5.968,7.828 -8.055,13.569 -2.087,5.741 -9.290,25.887 -9.498,26.826 z" style="fill:none;stroke:#070745;stroke-width:0.5;stroke-linecap:butt;stroke-opacity:1" />
 </g>
</svg>
