<?xml version="1.0" encoding="UTF-8" standalone="no"?>
<svg xmlns:dc="http://purl.org/dc/elements/1.1/" xmlns:cc="http://creativecommons.org/ns#" xmlns:rdf="http://www.w3.org/1999/02/22-rdf-syntax-ns#" xmlns:svg="http://www.w3.org/2000/svg" xmlns="http://www.w3.org/2000/svg" viewBox="0 0 48 48" version="1.1" id="candy02" height="100%" width="100%">
 <defs id="defs4138" />
 <g style="display:inline" id="layer4">
 <path id="path5335" d="m 47.075,23.751 c 1e-6,12.354 -9.544,19.372 -21.317,19.372 -10.446,0 -21.317,-8.673 -21.317,-19.372 10e-8,-11.846 9.544,-19.372 21.317,-19.372 11.773,0 21.317,8.673 21.317,19.372 z" style="fill:#278a2d;stroke-width:0.500;stroke-linecap:butt;marker:none;" transform="matrix(1,0,-0.068,0.997,0,0)" />
 <path id="ellipse5342" d="M 25.458,4.369 C 14.315,4.369 4.714,11.097 3.033,21.837 A 21.453,18.221 0 0 0 24.470,39.677 21.453,18.221 0 0 0 45.117,26.333 c 0.159,-0.851 0.277,-1.728 0.339,-2.638 C 46.186,13.021 37.232,4.369 25.458,4.369 Z" style="fill:#036103;fill-opacity:0.502;stroke-width:0.499;stroke-linecap:butt;marker:none;" />
 <ellipse style="fill:#048b04;stroke-width:0.5;stroke-linecap:butt;marker:none;" id="ellipse5340" cx="24.967" cy="20.377" rx="20.291" ry="15.843" />
 <ellipse transform="matrix(0.890,0.454,-0.454,0.890,0,0)" ry="5.567" rx="9.300" cy="18.186" cx="27.382" id="path5428" style="fill:#46c946;fill-opacity:0.348;stroke-width:4;stroke-linecap:round;marker:none;" />
 <path id="path5338" d="m 25.335,4.373 c -0.609,0.002 -1.213,0.029 -1.812,0.072 a 18.082,14.599 0 0 0 -0.910,0.089 c -0.218,0.023 -0.435,0.051 -0.652,0.080 A 18.082,14.599 0 0 0 7.132,18.966 18.082,14.599 0 0 0 25.216,33.566 18.082,14.599 0 0 0 43.298,18.966 18.082,14.599 0 0 0 25.335,4.373 Z" style="fill:#13b413;stroke-width:0.5;stroke-linecap:butt;marker:none;" />
 <ellipse ry="13.061" rx="18.855" cy="17.978" cx="24.333" id="path5426" style="fill:#50c850;fill-opacity:0.375;stroke-width:4;stroke-linecap:round;marker:none;" />
 <path id="path5379" d="m 5.386,15.072 c -1.438,2.513 -2.346,5.406 -2.566,8.623 -0.217,3.185 0.550,6.188 2.005,8.837 0.454,0.525 0.931,1.036 1.457,1.515 2.229,2.033 6.352,4.982 11.830,6.308 5.477,1.326 12.337,0.890 19.332,-3.802 A 2.000,2.000 0 1 0 35.216,33.232 C 29.105,37.332 23.639,37.581 19.054,36.470 14.470,35.360 10.795,32.750 8.978,31.093 4.755,27.243 3.338,21.620 5.386,15.072 Z" style="font-style:normal;font-variant:normal;font-weight:normal;font-stretch:normal;font-size:medium;line-height:normal;font-family:sans-serif;text-indent:0;text-align:start;text-decoration:none;text-decoration-line:none;text-decoration-style:letter-spacing:normal;word-spacing:normal;text-transform:none;direction:ltr;block-progression:tb;writing-mode:lr-tb;baseline-shift:baseline;text-anchor:start;white-space:normal;fill:#176117;fill-opacity:0.353;stroke-width:4;stroke-linecap:round;" />
 <ellipse transform="matrix(0.987,0.158,-0.138,0.990,0,0)" ry="6.295" rx="10.877" cy="9.294" cx="30.286" id="path5383" style="fill:#7cc57c;fill-opacity:0.232;stroke-width:4;stroke-linecap:round;marker:none;" />
 <ellipse transform="matrix(0.998,0.047,-0.047,0.998,0,0)" style="fill:#5cc569;fill-opacity:0.392;stroke-width:4;stroke-linecap:round;marker:none;" id="ellipse5406" cx="29.907" cy="12.597" rx="6.552" ry="2.989" />
 <path id="text5459" d="m 24.507,11.017 2.310,2.712 -0.880,2.875 c -1.461,-2.470 -4.484,-3.633 -7.264,-3.466 -1.144,-0.413 -0.740,1.864 -1.842,1.353 -0.962,-0.499 -1.726,0.319 -2.082,1.136 -0.743,1.203 -0.950,2.809 -0.174,4.051 1.051,1.797 3.127,2.594 5.008,3.215 1.244,0.388 2.516,0.687 3.743,1.130 1.100,-0.352 2.133,0.349 3.046,0.867 0.363,0.148 1.733,0.750 1.501,0.013 -0.436,-0.632 -1.895,-1.042 -1.595,-1.920 l 3.077,-3.899 c -0.629,-0.974 0.526,-2.372 1.604,-2.014 0.439,-0.968 1.513,-1.667 2.590,-1.517 -0.812,-0.739 -1.943,-0.939 -2.856,-1.522 -2.062,-1.005 -4.124,-2.010 -6.186,-3.015 z m -0.343,7.404 c 1.201,0.352 0.329,1.929 -0.513,2.164 -0.446,0.439 -0.840,0.948 -1.321,1.341 -0.917,0.433 -2.183,-0.827 -1.430,-1.670 0.595,-0.941 1.469,-1.629 2.001,-1.830 0.531,-0.200 1.016,-0.030 1.264,-0.006 z m -5.021,1.080 c 1.051,-0.382 0.994,1.715 0.046,1.473 -0.475,-0.264 -0.825,-1.385 -0.046,-1.473 z" style="font-style:normal;font-variant:normal;font-weight:normal;font-stretch:normal;font-size:19.066px;line-height:125%;font-family:'Snap ITC';-inkscape-font-specification:'Snap ITC';letter-spacing:0px;word-spacing:0px;fill:#a8c4a8;fill-opacity:0.839;stroke-width:1px;stroke-linecap:butt;stroke-opacity:1" />
 <ellipse ry="2.156" rx="4.728" cy="13.990" cx="29.281" id="path5381" style="fill:#96c4a0;fill-opacity:0.740;stroke-width:4;stroke-linecap:round;marker:none;" />
 <path id="path5481" d="M 21.755,6.831 C 25.883,5.939 28.784,6.720 29.900,7.166" style="fill:none;stroke:#98c098;stroke-width:1.200;stroke-linecap:round;stroke-opacity:0.270" />
 <ellipse transform="matrix(0.894,-0.447,0.447,0.894,0,0)" ry="1.561" rx="2.231" cy="43.181" cx="19.946" id="path5483" style="fill:#5ec672;fill-opacity:0.337;stroke-width:4;stroke-linecap:round;marker:none;" />
 <path id="path5485" d="m 11.045,34.165 c 3.458,4.351 6.136,6.917 13.834,6.694" style="fill:none;stroke:#338c33;stroke-width:1.1;stroke-linecap:round;stroke-opacity:0.270;stroke-dasharray:none" />
 <path id="path5508" d="m 26.565,6.325 c 2.130,0.077 3.644,0.518 4.481,0.976" style="fill:none;stroke:#83c383;stroke-width:1.600;stroke-linecap:round;stroke-opacity:0.668" />
 <path id="path5510" d="m 5.665,32.659 c 5.229,6.275 11.679,8.454 17.693,8.628 6.014,0.174 13.684,-3.486 17.693,-8.105" style="fill:none;stroke:#459e45;stroke-width:1.3;stroke-linecap:round;stroke-opacity:0.353;stroke-dasharray:none" />
 <path id="stroke01" d="M 45.455,23.696 C 44.613,36.021 34.590,43.023 22.817,43.023 12.370,43.023 2.090,34.370 2.819,23.696 3.626,11.877 13.684,4.368 25.457,4.368 c 11.773,0 20.726,8.653 19.997,19.327 z" style="fill:none;stroke:#032303;stroke-width:0.5;stroke-linecap:butt;marker:none;" />
 </g>
</svg>
