<?xml version="1.0" encoding="UTF-8" standalone="no"?>
<svg xmlns:dc="http://purl.org/dc/elements/1.1/" xmlns:cc="http://creativecommons.org/ns#" xmlns:rdf="http://www.w3.org/1999/02/22-rdf-syntax-ns#" xmlns:svg="http://www.w3.org/2000/svg" xmlns="http://www.w3.org/2000/svg" width="100%" height="100%" id="candy03" version="1.1" viewBox="0 0 48 48">
 <defs id="defs4138" />
 <g id="layer1" style="display:inline">
 <path style="fill:#a29500;stroke-width:0.5;stroke-linecap:butt;stroke-opacity:1" d="M 14.608,6.010 C 10.935,9.015 8.347,11.52 6.928,14.942 5.509,18.365 5.175,18.365 4.674,21.787 4.006,23.04 3.422,24.208 3.589,25.544 3.756,26.88 4.507,26.796 4.591,29.467 c 0.083,2.671 1.502,6.845 3.923,9.266 2.420,2.420 8.598,8.097 17.196,6.594 8.598,-1.502 13.606,-7.262 14.942,-9.433 1.335,-2.170 3.84,-7.262 3.756,-10.100 0.417,-0.417 1.168,-0.918 0.751,-2.337 -0.417,-1.419 -3.088,-10.267 -5.76,-12.688 -2.671,-2.420 -5.426,-5.175 -12.438,-7.095 -7.012,-1.92 -9.015,0.250 -12.354,2.337 z" id="path4697-9" />
 <path style="fill:#ffffcc;fill-opacity:0.154;stroke-width:1px;stroke-linecap:butt;stroke-opacity:1" d="M 22.544,2.935 C 18.866,2.833 17.113,4.444 14.609,6.009 13.880,6.606 13.227,7.175 12.583,7.744 11.220,14.701 11.065,22.350 12.093,26.359 c 1.006,3.923 3.208,13.396 6.537,18.648 2.116,0.567 4.485,0.773 7.080,0.320 3.755,-0.656 6.826,-2.124 9.205,-3.751 C 36.176,32.738 36.170,13.853 25.373,3.294 24.314,3.076 23.375,2.958 22.544,2.935 Z" id="path4816" />
 <path style="fill:none;stroke:#887c02;stroke-width:6.5;stroke-linecap:round;stroke-opacity:0.441;" d="M 9.801,17.958 C 5.473,27.760 13.111,38.452 24.822,36.925" id="path4852" />
 <path style="fill:#bcad3b;fill-opacity:0.552;stroke-width:1px;stroke-linecap:butt;stroke-opacity:1" d="M 22.544,2.935 C 18.866,2.833 17.113,4.444 14.609,6.009 13.753,6.709 12.969,7.381 12.232,8.044 19.514,4.147 22.659,3.769 28.214,5.843 c 6.260,2.337 12.856,10.934 12.773,15.275 -0.083,4.340 -0.752,18.950 -13.107,22.957 -7.906,2.564 -16.102,-2.596 -21.277,-7.958 0.542,0.970 1.174,1.879 1.912,2.617 2.420,2.420 8.597,8.096 17.195,6.593 8.598,-1.502 13.607,-7.261 14.943,-9.431 1.335,-2.170 3.839,-7.263 3.755,-10.101 0.417,-0.417 1.169,-0.918 0.751,-2.337 C 44.744,22.037 42.073,13.190 39.402,10.769 36.731,8.348 33.975,5.593 26.962,3.673 c -1.753,-0.48 -3.191,-0.704 -4.417,-0.738 z" id="path4711" />
 <path style="fill:none;stroke:#625a06;stroke-width:6.5;stroke-linecap:butt;stroke-opacity:0.441" d="m 19.730,4.592 c 4.964,8.910 8.274,27.113 7.765,39.079" id="path4850" />
 <ellipse style="fill:#ffffb6;fill-opacity:0.265;stroke-width:0.5;stroke-linecap:round;marker:none;" id="path4701" cx="28.312" cy="25.594" rx="2.504" ry="2.983" transform="matrix(1,0,0.116,0.993,0,0)" />
 <path style="fill:none;stroke:#ffef34;stroke-width:2.200;stroke-linecap:round;stroke-opacity:0.502" d="m 17.872,6.344 c 2.903,-1.501 5.739,-1.169 7.526,-0.074" id="path4872" />
 <ellipse style="fill:#ffff7d;fill-opacity:0.265;stroke-width:0.5;stroke-linecap:round;marker:none;" id="path4699" cx="17.989" cy="22.873" rx="6.553" ry="6.511" />
 <path style="font-style:normal;font-variant:normal;font-weight:normal;font-stretch:normal;font-size:medium;line-height:normal;font-family:sans-serif;text-indent:0;text-align:start;text-decoration:none;text-decoration-line:none;text-decoration-style:letter-spacing:normal;word-spacing:normal;text-transform:none;direction:ltr;block-progression:tb;writing-mode:lr-tb;baseline-shift:baseline;text-anchor:start;white-space:normal;fill:#7f750a;fill-opacity:0.364;stroke-width:0.600;stroke-linecap:butt;" d="m 24.171,8.833 c -4.251,0.599 -8.649,0.298 -13.007,0.207 -0.159,0.155 -0.314,0.311 -0.466,0.466 0.085,0.002 0.171,-0.001 0.257,0.001 2.280,0.302 0.295,0.884 -1.826,1.757 -0.240,0.302 -0.463,0.611 -0.679,0.923 0.359,-0.238 0.730,-0.458 1.125,-0.644 6.392,-3.045 13.727,-0.772 20.306,0.425 3.184,1.448 10.207,0.576 11.474,2.203 -8.424,-1.594 -16.957,0.786 -25.421,-0.037 -4.428,-0.239 -7.590,2.365 -10.703,4.894 -0.043,0.142 -0.081,0.304 -0.121,0.460 4.598,-3.845 10.814,-5.630 16.740,-4.599 4.027,-0.054 8.027,-0.603 12.052,-0.718 1.969,-0.518 7.799,0.506 8.289,1.093 -0.603,-1.335 -1.259,-2.574 -1.931,-3.5 C 37.693,10.501 35.219,8.955 32.185,9.070 29.521,8.819 26.843,8.913 24.171,8.833 Z m 1.992,0.533 c 5.117,-0.005 13.051,1.049 13.390,3.408 -6.681,-0.295 -13.069,-2.538 -19.697,-3.099 1.436,-0.114 2.882,-0.053 4.316,-0.242 0.585,-0.043 1.259,-0.065 1.990,-0.066 z m 16.058,5.966 c 0.026,0.206 -0.739,0.342 -2.794,0.300 -11.095,-0.070 -21.890,2.638 -32.460,5.728 -0.812,0.257 -1.672,0.507 -2.425,0.683 -0.152,0.290 -0.293,0.580 -0.423,0.867 0.795,-0.216 1.581,-0.464 2.349,-0.806 10.772,-2.829 21.612,-6.160 32.880,-5.820 1.083,-0.026 2.166,-0.050 3.25,-0.074 -0.125,-0.295 -0.244,-0.588 -0.375,-0.878 z m -18.214,3.544 c -3.971,0.027 -7.883,0.660 -11.630,2.443 -2.738,1.483 -5.693,3.395 -8.794,4.082 0.004,0.047 0.001,0.093 0.007,0.140 0.045,0.365 0.136,0.624 0.244,0.863 l 0.082,-0.041 0.195,-0.099 c 1.924,0.088 1.182,0.533 0.064,0.875 0.141,0.334 0.272,0.754 0.349,1.414 8.055,-0.312 16.131,0.797 24.185,-0.136 1.369,-0.103 2.737,-0.226 4.103,-0.369 -9.178,1.959 -19.083,4.237 -28.238,1.197 0.003,0.078 0.013,0.137 0.015,0.220 0.001,0.044 0.009,0.097 0.011,0.142 10.019,3.779 21.012,0.521 31.087,-1.640 2.054,-0.346 6.126,-1.405 8.707,-1.732 0.008,-0.151 0.015,-0.302 0.011,-0.443 0.028,-0.028 0.064,-0.064 0.095,-0.093 -0.582,-0.008 -0.670,-0.135 0.337,-0.357 0.330,-0.379 0.606,-0.908 0.318,-1.886 -0.021,-0.071 -0.110,-0.345 -0.142,-0.453 -6.171,0.007 -12.361,-1.200 -18.554,-0.365 -6.738,0.377 -13.272,2.487 -19.941,3.074 2.620,-2.776 9.579,-5.767 14.525,-6.136 6.693,-0.514 13.265,1.232 19.917,1.591 0.835,1.190 2.280,1.230 3.781,0.964 -0.076,-0.246 -0.111,-0.365 -0.208,-0.666 -0.210,-0.054 -0.419,-0.105 -0.656,-0.189 -6.472,-0.807 -13.256,-2.443 -19.875,-2.398 z m 9.726,3.951 c 1.076,0.004 2.153,0.036 3.230,0.097 6.785,0.831 -3.747,1.071 -5.695,1.462 -6.612,0.660 -13.242,1.246 -19.890,1.359 7.329,-1.668 14.823,-2.954 22.355,-2.919 z m 9.468,1.009 c 6.252,0.674 -4.162,2.459 -5.980,2.925 -9.940,1.747 -20.088,1.430 -30.124,1.085 -4.380,-1.166 4.446,-1.935 6.343,-1.535 9.946,-0.326 19.851,-1.577 29.761,-2.476 z m 0.964,3.863 c -9.399,4.074 -20.032,4.464 -30.164,4.566 -2.779,0.491 -6.191,-0.787 -9.156,-0.841 0.052,0.253 0.115,0.509 0.183,0.771 4.26e-5,1.63e-4 0.001,-1.63e-4 0.001,0 3.876,-0.147 8.004,1.419 11.902,0.695 4.162,-0.070 8.313,-0.423 12.453,-0.843 -6.054,1.373 -12.231,4.314 -18.464,3.312 -0.987,0.096 -2.705,0.391 -4.433,0.548 0.088,0.164 0.176,0.329 0.271,0.490 1.366,-0.185 2.699,-0.398 3.732,-0.353 10.074,0.843 19.273,-4.680 29.222,-5.380 1.270,-0.176 2.952,-0.512 3.716,-0.539 0.087,-0.236 0.172,-0.468 0.251,-0.703 -1.583,0.518 -2.963,0.695 -3.310,0.406 1.224,-0.296 2.414,-0.712 3.564,-1.222 0.090,-0.311 0.162,-0.608 0.228,-0.906 z m -0.949,2.990 c -0.293,0.158 -0.698,0.355 -1.234,0.597 -9.809,4.807 -20.361,9.858 -31.597,8.673 -0.225,-0.042 -0.473,-0.079 -0.707,-0.119 0.599,0.548 1.304,1.151 2.121,1.759 1.233,-0.036 2.464,-0.111 3.679,-0.244 8.295,-0.554 16.910,-1.711 24.703,-4.791 0.172,-0.238 0.354,-0.484 0.470,-0.673 0.049,-0.080 0.119,-0.222 0.171,-0.310 -5.125,2.178 -10.649,3.473 -16.154,4.169 5.524,-2.269 11.199,-4.211 16.982,-5.664 0.106,-0.203 0.200,-0.377 0.308,-0.593 -2.317,0.634 -5.260,1.329 -6.902,1.802 -0.402,0.171 -0.802,0.351 -1.208,0.509 -0.154,-0.081 0.376,-0.269 1.208,-0.509 2.625,-1.117 5.186,-2.453 7.765,-3.664 0.135,-0.313 0.266,-0.624 0.392,-0.943 z" id="path4912" />
 <path style="fill:#ffffa6;fill-opacity:0.408;stroke-width:1px;stroke-linecap:butt;stroke-opacity:1" d="m 31.164,5.123 c 3.877,3.165 7.492,7.152 8.169,9.525 0.908,3.180 3.036,7.767 5.744,8.541 C 44.544,21.394 41.993,13.118 39.402,10.769 37.346,8.906 35.220,6.848 31.164,5.123 Z" id="path4818" />
 <path style="fill:none;stroke:#e0ce1e;stroke-width:1.299;stroke-linecap:butt;stroke-opacity:0.795" d="M 22.785,4.337 C 28.768,5.356 33.860,7.520 36.661,11.466" id="path4844" />
 <path style="fill:none;stroke:#ffff9e;stroke-width:1.5;stroke-linecap:butt;stroke-opacity:0.823" d="m 30.041,5.356 c 5.473,2.800 8.146,4.837 9.929,8.528" id="path4846" />
 <ellipse ry="5.410" rx="5.407" cy="23.032" cx="15.280" id="ellipse4848" style="fill:#ffffb6;fill-opacity:0.265;stroke-width:0.5;stroke-linecap:round;marker:none;" transform="matrix(1,0,0.117,0.993,0,0)" />
 <ellipse transform="matrix(1,0,0.117,0.993,0,0)" style="fill:#ffffb6;fill-opacity:0.265;stroke-width:0.5;stroke-linecap:round;marker:none;" id="ellipse4868" cx="15.361" cy="22.341" rx="4.347" ry="4.349" />
 <path style="fill:none;stroke:#a99b12;stroke-width:0.2;stroke-linecap:butt;stroke-opacity:0.375" d="m 34.353,11.992 c -3.068,0.527 -5.985,1.688 -9.052,2.232 -5.304,1.340 -10.516,3.181 -15.293,5.875 8.261,-2.335 16.867,-3.021 25.245,-4.771 1.604,-0.234 3.996,-1.929 1.608,-3.028 -0.768,-0.383 -1.669,-0.455 -2.508,-0.308 z M 10.007,20.100 C 8.520,20.765 5.846,20.872 5.212,22.137 6.796,22.460 8.533,20.745 10.007,20.100 Z m -2.605,1.563 c -0.698,0.521 -3.461,1.936 -1.116,1.167 2.140,-0.919 4.276,-1.850 6.489,-2.581 -1.809,0.398 -3.604,0.861 -5.373,1.414 z m 5.729,-1.492 c 8.669,-1.865 17.648,-2.405 26.061,-5.373 -7.649,2.223 -15.595,3.077 -23.385,4.629 -0.899,0.218 -1.792,0.468 -2.676,0.743 z m -7.022,2.780 c -1.421,-0.070 -1.789,2.950 -0.001,1.688 4.757,-1.110 9.643,-1.588 14.330,-2.999 4.655,-1.215 9.308,-2.442 13.976,-3.606 -9.544,0.919 -18.953,2.854 -28.305,4.917 z m 9.467,-0.048 c -3.665,0.943 -7.336,1.865 -11.024,2.718 2.650,0.165 5.370,-0.799 8.062,-1.042 7.461,-1.175 14.934,-2.272 22.395,-3.452 0.480,-0.693 3.208,-0.942 1.033,-0.840 -6.862,0.539 -13.622,1.922 -20.466,2.617 z m 21.542,-2.541 c -4.303,3.255 -10.072,2.771 -14.797,5.065 -2.743,0.901 -5.563,1.550 -8.404,2.056 5.302,-0.808 10.708,-1.325 15.785,-3.151 1.715,-0.508 3.478,-0.910 5.273,-0.973 -4.134,1.210 -8.385,1.973 -12.528,3.146 -5.688,1.190 -11.480,1.824 -17.146,3.134 2.189,0.333 4.315,-0.644 6.505,-0.681 9.212,-1.224 18.585,-2.095 27.403,-5.213 2.111,-1.114 0.145,-3.918 -1.809,-3.384 l -0.281,8.9e-5 z m -23.202,7.121 c -3.062,0.433 -6.137,0.781 -9.197,1.235 3.076,-0.322 6.150,-0.693 9.197,-1.235 z" id="path4930" />
 <ellipse transform="matrix(1,0,0.116,0.993,0,0)" ry="2.160" rx="1.813" cy="25.301" cx="28.230" id="ellipse4870" style="fill:#ffffb6;fill-opacity:0.265;stroke-width:0.5;stroke-linecap:round;marker:none;" />
 <path style="fill:none;stroke:#e8d432;stroke-width:3.799;stroke-linecap:round;stroke-opacity:0.464" d="m 19.107,38.501 c 3.313,0.883 8.615,0.220 14.579,-3.313" id="path4960" />
 <path style="fill:#ffffa8;fill-opacity:0.745;stroke-width:1px;stroke-linecap:butt;" d="m 3.923,27.965 c 0.417,0.417 0.667,2.420 2.170,4.758 1.502,2.337 6.177,5.426 11.102,5.342 4.925,-0.083 8.514,-1.001 11.937,-2.253 3.422,-1.252 9.182,-5.175 9.850,-5.342 -0.166,0.333 0.417,0.667 0.417,0.667 0,0 2.587,-1.669 2.921,-3.255 0.333,-1.586 0,-2.253 -0.333,-2.003 -0.333,0.250 -1.669,-0.667 -1.836,-0.166 -0.166,0.500 0,1.419 -0.584,1.586 -0.584,0.166 -5.342,1.586 -8.431,2.337 C 28.048,30.386 21.12,32.64 20.368,32.556 c -0.751,-0.083 -2.003,0.834 -2.253,0.834 -0.250,0 -1.335,-0.500 -3.84,-0.500 -2.504,0 -5.843,0.166 -9.349,-4.257 -3.506,-4.424 -1.001,-0.667 -1.001,-0.667 z" id="path4707" />
 <path style="fill:none;stroke:#ffffaa;stroke-width:5;stroke-linecap:round;stroke-opacity:0.535" d="m 15.772,35.367 c 2.352,0.112 4.951,0.029 7.192,-0.811" id="path4874" />
 <path style="fill:none;stroke:#ffffaa;stroke-width:3.200;stroke-linecap:round;stroke-opacity:0.519;" d="m 31.455,31.908 c 0.825,-0.275 1.778,-0.741 2.683,-1.213" id="path4878" />
 <path style="fill:#ffff9d;fill-opacity:0.751;stroke-width:1px;stroke-linecap:butt;" d="m 42.302,27.861 c -0.146,-0.020 -0.313,0.021 -0.396,0.271 -0.083,1.252 -1.084,3.756 -2.169,5.425 -1.085,1.669 -2.254,1.252 -4.675,3.255 -2.420,2.003 -7.846,4.673 -13.189,5.341 C 16.528,42.824 12.021,39.986 9.433,37.732 6.845,35.478 5.593,31.804 5.593,31.804 l -0.214,1.552 c 0.664,1.958 1.724,3.965 3.136,5.376 0.297,0.297 0.652,0.645 1.060,1.021 3.619,2.124 7.413,3.656 9.623,3.902 3.756,0.417 10.353,-1.502 12.523,-2.503 2.170,-1.001 5.758,-3.087 7.511,-5.591 1.753,-2.504 3.339,-7.597 3.339,-7.597 0,0 -0.125,-0.082 -0.271,-0.103 z" id="path4705" />
 <path style="fill:#ffffaa;fill-opacity:0.801;stroke-width:1px;stroke-linecap:butt;stroke-opacity:1" d="M 22.544,2.935 C 18.866,2.833 17.113,4.444 14.609,6.009 10.936,9.014 8.346,11.520 6.927,14.943 c -1.400,3.378 -1.744,3.446 -2.234,6.738 0.004,0.013 0.064,0.189 0.064,0.189 2.587,-3.422 4.175,-4.673 7.931,-5.007 3.756,-0.333 9.934,-2.003 14.525,-2.003 4.591,0 8.180,0.334 10.267,1.085 -0.417,-1.419 -1.336,-2.754 -1.503,-3.255 C 30.301,11.270 22.122,11.102 18.449,11.937 14.776,12.772 9.515,13.773 6.677,17.279 8.931,11.853 12.355,10.183 14.275,9.599 16.195,9.015 25.878,5.926 32.974,9.515 33.225,9.265 32.054,8.347 32.054,8.347 c 0,0 -5.091,-2.587 -10.267,-1.585 -5.175,1.001 -5.592,0.249 -8.263,2.169 2.253,-1.92 3.088,-2.922 4.507,-3.589 1.419,-0.667 6.511,-1.417 8.097,-0.75 0.354,-0.096 0.891,-0.401 1.478,-0.718 -0.222,-0.065 -0.412,-0.135 -0.644,-0.199 -1.753,-0.48 -3.191,-0.704 -4.417,-0.738 z" id="path4703" />
 <path style="fill:none;stroke:#ffffaa;stroke-width:3.900;stroke-linecap:round;stroke-opacity:0.447;" d="m 15.387,14.090 c 1.234,-0.284 1.899,-0.379 2.469,-0.474" id="path4894" />
 <path style="fill:#ffffb8;fill-opacity:0.530;stroke-width:1px;stroke-linecap:butt;" d="m 30.886,19.335 c -2.379,0.073 -4.549,0.489 -6.427,0.865 -3.756,0.751 -12.186,2.255 -14.023,2.505 -1.633,0.222 -4.456,-0.269 -6.529,3.849 0.163,0.334 0.345,0.671 0.486,1.246 1.063,-1.249 2.140,-2.078 2.619,-2.257 C 7.679,25.294 18.365,23.623 20.035,23.457 21.704,23.290 31.972,20.869 33.474,21.203 c 1.502,0.333 4.507,0.501 5.175,1.335 0.500,-0.250 -5.05e-4,-1.586 -0.083,-2.003 -2.713,-1.001 -5.300,-1.272 -7.679,-1.199 z" id="path4709" />
 <path style="fill:none;stroke:#ffffae;stroke-width:2.099;stroke-linecap:butt;stroke-opacity:0.535" d="M 16.805,22.847 C 17.701,22.735 20.670,22.063 21.230,22.063" id="path4876" />
 <path style="fill:none;stroke:#5a530e;stroke-width:0.5;stroke-linecap:butt;stroke-opacity:1" d="M 14.608,6.010 C 10.935,9.015 8.347,11.52 6.928,14.942 5.509,18.365 5.175,18.365 4.674,21.787 4.006,23.04 3.422,24.208 3.589,25.544 3.756,26.88 4.507,26.796 4.591,29.467 c 0.083,2.671 1.502,6.845 3.923,9.266 2.420,2.420 8.598,8.097 17.196,6.594 8.598,-1.502 13.606,-7.262 14.942,-9.433 1.335,-2.170 3.84,-7.262 3.756,-10.100 0.417,-0.417 1.168,-0.918 0.751,-2.337 -0.417,-1.419 -3.088,-10.267 -5.76,-12.688 -2.671,-2.420 -5.426,-5.175 -12.438,-7.095 -7.012,-1.92 -9.015,0.250 -12.354,2.337 z" id="stroke01" />
 </g>
</svg>
