<?xml version="1.0" encoding="UTF-8" standalone="no"?>
<!DOCTYPE svg PUBLIC "-//W3C//DTD SVG 1.0//EN" "http://www.w3.org/TR/2001/REC-SVG-20010904/DTD/svg10.dtd">
<svg xmlns:svg="http://www.w3.org/2000/svg" xmlns="http://www.w3.org/2000/svg" version="1.0" width="100%" height="100%" viewBox="0 0 48 48" id="_aero01">
<defs id="defs2385"/>
<g id="aero01" style="display:inline">
<path d="M 9.81,10.46 C 8.06,10.46 5.94,11.14 5.68,11.25 C 5.55,11.35 5.54,11.48 5.75,11.56 C 5.74,12.16 5.81,16.38 5.84,16.9 C 5.86,18.73 7.44,19.27 7.96,19.68 C 7.68,19.94 7.39,20.36 7.5,20.93 C 7.54,21.19 7.78,21.38 8.09,21.5 C 7.6,21.82 7.08,22.13 7,22.15 C 6.81,22.2 6.43,22.05 6.12,22.46 C 5.75,22.46 5.38,22.53 5.12,22.56 C 4.86,22.58 4.46,23.09 4.9,24.18 C 5.42,25.25 5.82,24.76 6.06,24.68 C 6.29,24.6 6.63,24.52 6.84,24.46 C 7.07,24.54 7.41,24.46 7.59,24.31 C 7.93,24.36 8.78,24.43 8.93,24.4 C 9.09,24.38 9.42,24.15 9.68,24.15 C 9.94,24.15 11.94,24.11 12.78,23.9 C 13.61,23.69 14.74,23.33 15.21,23.31 C 15.34,23.54 15.72,23.76 16.53,23.65 C 17.33,23.55 19.05,22.97 20.12,23 C 21.19,23.02 21.55,22.94 22,23.31 C 22.02,23.54 22.03,24.04 22.03,24.25 C 21.82,24.27 21.84,24.5 21.84,24.68 C 21.84,24.87 21.84,25.07 22.15,25.15 C 22.39,25.52 22.54,25.68 22.59,26.31 C 22.64,26.93 22.6,27.19 22.5,27.37 C 22.18,27.27 22.03,27.59 22.06,27.93 C 22.08,28.27 22.22,29.97 22.25,30.18 C 22.26,30.34 22.52,30.51 22.78,30.59 C 23.37,34.98 23.77,42.56 27.93,48 L 30.96,48 C 26.32,43.38 25.74,35.47 25.06,30.4 C 25.44,30.15 25.53,29.95 25.53,29.62 C 25.53,29.28 25.33,27.7 25.31,27.31 C 25.28,26.92 24.79,27.03 24.68,27.03 C 24.63,26.74 24.41,26.41 24.43,26 C 24.46,25.58 24.57,25.15 24.65,24.96 C 24.91,24.78 25.12,24.58 24.96,24.09 C 24.78,23.85 24.59,24.07 24.59,23.81 C 24.59,23.55 24.37,20.93 24.37,20.93 C 24.37,20.93 29.79,19.45 30.15,19.4 C 30.52,19.35 30.71,18.9 30.71,18.9 C 30.71,18.9 40.59,16.04 40.93,15.96 C 41.27,15.89 41.28,15.59 41.28,15.59 L 41.5,15.59 C 41.5,15.59 41.62,15.8 41.93,15.75 C 42.25,15.69 42.71,15.5 43.15,15.37 C 43.59,15.24 43.67,13.22 42.37,13.4 C 41.07,13.58 41.11,13.87 41.09,14.06 C 40.91,13.95 40.73,13.82 40.18,13.87 C 39.63,13.92 30.07,16.01 29.81,16.06 C 29.78,15.98 29.51,15.88 29.28,15.9 C 29.2,15.91 25.6,16.8 22.71,17.5 C 22.58,17.07 22.44,16.62 22.4,16.5 C 22.63,16.42 23.58,16.11 23.43,15.59 C 23.41,15.52 23.4,15.3 23.37,15.21 C 23.13,14.41 19.78,15.27 19.93,16.34 C 19.93,16.34 19.92,16.48 19.96,16.65 C 20.05,16.98 20.55,16.91 21.37,16.75 C 21.37,16.88 21.41,17.34 21.43,17.81 C 17.82,18.68 16.51,18.99 13.81,19.65 C 13.48,19.24 12.95,18.92 12.5,18.96 C 13.54,18.34 13.76,16.99 13.81,16 C 13.86,15 13.9,11.88 13.9,11.59 C 14.16,11.56 14.3,11.42 13.65,11.18 C 13,10.95 11.56,10.46 9.81,10.46 z" id="p2516" style="fill:#a3aaba;fill-opacity:1;fill-rule:evenodd;stroke:none"/>
<path d="M 41.55,13.75 C 42.17,14.13 42.32,14.79 42.04,15.6" id="p3332" style="fill:none;fill-rule:evenodd;stroke:#1a1a1a;stroke-width:0.5;stroke-linecap:round;stroke-linejoin:miter;stroke-miterlimit:4;stroke-dasharray:none;stroke-opacity:0.81;display:inline"/>
<path d="M 41.2,14.76 C 41.41,14.71 41.95,14.58 41.95,14.58" id="p3335" style="fill:none;fill-rule:evenodd;stroke:#f8f8f8;stroke-width:0.80;stroke-linecap:round;stroke-linejoin:miter;stroke-miterlimit:4;stroke-dasharray:none;stroke-opacity:0.81"/>
<path d="M 40.18,13.87 C 39.63,13.92 30.07,16.01 29.81,16.06 C 29.78,15.98 29.51,15.88 29.28,15.9 C 29.27,15.9 28.87,15.99 28.84,16 C 29.98,16.52 30.61,18.17 29.87,19.46 C 29.91,19.46 30.13,19.4 30.15,19.4 C 30.52,19.35 30.71,18.9 30.71,18.9 C 30.71,18.9 40.59,16.04 40.93,15.96 C 41.27,15.89 41.28,15.59 41.28,15.59 L 41.34,15.59 C 41.39,15.06 41.31,14.5 41.09,14.06 C 40.91,13.95 40.73,13.82 40.18,13.87 z" id="p3308" style="fill:#191919;fill-opacity:1;fill-rule:evenodd;stroke:none"/>
<path d="M 30.46,16.79 L 40.6,14.34" id="p3320" style="fill:none;fill-rule:evenodd;stroke:#6a6a6a;stroke-width:1.20;stroke-linecap:round;stroke-linejoin:miter;stroke-miterlimit:4;stroke-dasharray:none;stroke-opacity:0.22;display:inline"/>
<path d="M 30.17,16.72 L 40.93,14.32" id="p3314" style="fill:none;fill-rule:evenodd;stroke:#000000;stroke-width:0.5;stroke-linecap:round;stroke-linejoin:miter;stroke-miterlimit:4;stroke-dasharray:none;stroke-opacity:0.56;display:inline"/>
<path d="M 30.67,18.14 L 41.09,15.39" id="p3317" style="fill:none;fill-rule:evenodd;stroke:#000000;stroke-width:0.5;stroke-linecap:round;stroke-linejoin:miter;stroke-miterlimit:4;stroke-dasharray:none;stroke-opacity:0.47;display:inline"/>
<path d="M 5.62,24.43 L 7.45,23.97 L 9.12,24.02 L 9.64,23.7 L 12.56,23.39 L 30.44,18.65 L 30.44,17.71 L 5.36,23.76 L 5.62,24.43 z" id="p3343" style="fill:#838581;fill-opacity:1;fill-rule:evenodd;stroke:none;display:inline"/>
<path d="M 21.03,18.26 C 21.53,18.13 21.86,18.15 21.82,17.7 C 21.78,17.25 21.66,16.46 21.66,16.46" id="p3253" style="fill:none;fill-rule:evenodd;stroke:#000000;stroke-width:0.60;stroke-linecap:round;stroke-linejoin:miter;stroke-miterlimit:4;stroke-dasharray:none;stroke-opacity:0.8"/>
<path d="M 5.74,24.26 L 7.5,23.65 L 9.26,23.45 L 9.6,23.38 L 12.57,22.77 L 30.49,18.17 L 30.09,16.75 L 12.03,20.88 L 5.47,23.11 L 5.74,24.26 z" id="p3337" style="fill:#e6eff8;fill-opacity:1;fill-rule:evenodd;stroke:none;display:inline"/>
<path d="M 7.19,22.93 L 8.92,22.24 L 9.17,22.21 L 12.4,21.2 L 29.97,16.79 L 29.67,16.33 L 12.15,20.51 L 8.6,21.64 L 7.05,22.51 L 5.35,22.67 L 5.81,23.34 L 7.19,22.93 z" id="p3340" style="fill:#191919;fill-opacity:1;fill-rule:evenodd;stroke:none;display:inline"/>
<path d="M 29.28,15.9 C 29.27,15.9 28.87,15.99 28.84,16 C 29.98,16.52 30.61,18.17 29.87,19.46 C 29.91,19.46 30.13,19.4 30.15,19.4 C 30.52,19.35 30.71,18.9 30.71,18.9 C 30.94,17.83 30.61,16.68 29.93,16.03 C 29.93,16.03 29.81,16.06 29.81,16.06 C 29.79,16.02 29.72,15.97 29.62,15.93 C 29.52,15.9 29.39,15.89 29.28,15.9 z" id="p3311" style="fill:#131313;fill-opacity:1;fill-rule:evenodd;stroke:none;display:inline"/>
<path d="M 5.62,24.43 L 7.45,23.97 L 9.12,24.02 L 9.64,23.7 L 12.56,23.39 L 30.44,18.65" id="p3346" style="fill:none;fill-opacity:1;fill-rule:evenodd;stroke:#1a1a1a;stroke-width:0.2;stroke-linecap:butt;stroke-linejoin:miter;stroke-miterlimit:4;stroke-dasharray:none;stroke-opacity:0.81;display:inline"/>
<path d="M 24.03,20.75 C 24.03,20.75 17.2,22.55 16.71,22.68 C 16.22,22.82 16.28,22.91 16.15,23.25 L 20.31,22.28 L 22.59,22.53 L 22.71,24.09 C 22.71,24.09 22.66,24.72 22.9,24.81 C 23.15,24.9 23.09,26.09 23.03,26.62 C 22.96,27.15 23.21,28.46 23.21,28.46 L 25.37,27.87 C 25.35,27.67 25.31,27.4 25.31,27.31 C 25.28,26.92 24.79,27.03 24.68,27.03 C 24.63,26.74 24.41,26.41 24.43,26 C 24.46,25.58 24.57,25.15 24.65,24.96 C 24.69,24.93 24.74,24.9 24.78,24.87 L 24.25,24.4 L 24.03,20.75 z" id="p2406" style="fill:#e1e1e1;fill-opacity:1;fill-rule:evenodd;stroke:none;display:inline"/>
<path d="M 16.36,22.73 L 23.7,20.82" id="p2409" style="fill:none;fill-rule:evenodd;stroke:#272727;stroke-width:0.2;stroke-linecap:round;stroke-linejoin:miter;stroke-miterlimit:4;stroke-dasharray:none;stroke-opacity:1;display:inline"/>
<path d="M 21.84,24.5 C 21.83,24.56 21.84,24.62 21.84,24.68 C 21.84,24.87 21.84,25.07 22.15,25.15 C 22.34,25.45 22.45,25.61 22.53,26 C 22.99,26.18 23.37,26.15 23.62,26.09 C 23.82,26.04 24.18,26.2 24.5,26.37 C 24.46,26.25 24.42,26.13 24.43,26 C 24.45,25.79 24.48,25.58 24.53,25.4 C 24.17,25.36 23.71,25.48 23.25,25.5 C 22.49,25.52 22.89,25.44 22.78,25.06 L 21.84,24.5 z" id="p2418" style="fill:#595959;fill-opacity:0.56;fill-rule:evenodd;stroke:none;display:inline"/>
<path d="M 23.12,22.91 C 23.21,23.75 23.28,25.76 23.39,26.11" id="p2415" style="fill:none;fill-rule:evenodd;stroke:#060606;stroke-width:0.69;stroke-linecap:round;stroke-linejoin:miter;stroke-miterlimit:4;stroke-dasharray:none;stroke-opacity:1;display:inline"/>
<path d="M 16.4,23.13 C 17.29,22.89 19.87,22.24 20.72,22.22 C 21.57,22.2 22.88,22.73 23.1,22.86" id="p2412" style="fill:none;fill-rule:evenodd;stroke:#6e6e6e;stroke-width:0.60;stroke-linecap:round;stroke-linejoin:miter;stroke-miterlimit:4;stroke-dasharray:none;stroke-opacity:1;display:inline"/>
<path d="M 23.23,21.39 C 23.23,22.44 23.81,23.6 21.99,23.2" id="p2421" style="fill:none;fill-rule:evenodd;stroke:#1a1a1a;stroke-width:0.2;stroke-linecap:round;stroke-linejoin:miter;stroke-miterlimit:4;stroke-dasharray:none;stroke-opacity:1;display:inline"/>
<path d="M 21.97,24.58 C 22.3,25.2 24.43,24.89 24.88,24.35" id="p3202" style="fill:none;fill-rule:evenodd;stroke:#8a8a8a;stroke-width:0.60;stroke-linecap:round;stroke-linejoin:miter;stroke-miterlimit:4;stroke-dasharray:none;stroke-opacity:1"/>
<path d="M 25.43,28.78 C 24.29,28.87 23.13,28.95 22.15,29.03 C 22.19,29.53 22.23,30.08 22.25,30.18 C 22.26,30.34 22.52,30.51 22.78,30.59 C 23.37,34.98 23.77,42.56 27.93,48 L 30.96,48 C 26.32,43.38 25.74,35.47 25.06,30.4 C 25.44,30.15 25.53,29.95 25.53,29.62 C 25.53,29.5 25.47,29.11 25.43,28.78 z" id="p3234" style="fill:#2d4629;fill-opacity:0.51;fill-rule:evenodd;stroke:none"/>
<path d="M 24.96,27.18 C 24.92,27.23 24.75,27.35 24.5,27.43 C 24.24,27.52 23.9,27.59 23.59,27.62 C 23.28,27.65 23,27.66 22.78,27.62 C 22.55,27.58 22.44,27.48 22.43,27.46 L 22.04,27.62 L 22.08,30.05 C 22.23,30.33 22.51,30.4 22.82,30.45 C 23.12,30.51 23.5,30.56 23.85,30.53 C 24.21,30.49 24.55,30.43 24.86,30.33 C 25.17,30.22 25.43,30.08 25.61,29.86 L 25.32,27.19 L 24.96,27.18 z" id="p3204" style="fill:#a6a6a6;fill-opacity:1;fill-rule:evenodd;stroke:none;display:inline"/>
<path d="M 24.37,29.34 L 23.4,29.46 C 23.68,31.63 24.07,35.96 25.18,40.15 C 25.96,43.07 27.08,45.94 28.81,48 L 30.15,48 C 28.27,46.12 26.99,43.09 26.15,39.9 C 25.07,35.82 24.66,31.55 24.37,29.34 z" id="p3239" style="fill:#afcab0;fill-opacity:0.47;fill-rule:evenodd;stroke:none"/>
<path d="M 22.97,27.59 L 23.25,30.5 C 23.48,30.53 23.72,30.53 23.97,30.53 L 23.65,27.62 C 23.43,27.63 23.23,27.65 23.06,27.62 C 23.02,27.61 23,27.6 22.97,27.59 z" id="p3214" style="fill:#000000;fill-opacity:0.51;fill-rule:evenodd;stroke:none"/>
<path d="M 21.92,24.21 C 22.25,24.82 24.39,24.51 24.84,23.97" id="p3210" style="fill:none;fill-rule:evenodd;stroke:#1e1e1e;stroke-width:0.2;stroke-linecap:round;stroke-linejoin:miter;stroke-miterlimit:4;stroke-dasharray:none;stroke-opacity:1;display:inline"/>
<path d="M 24.81,27.31 C 24.73,27.35 24.62,27.39 24.5,27.43 C 24.24,27.52 23.9,27.59 23.59,27.62 C 23.57,27.62 23.55,27.62 23.53,27.62 L 23.87,30.53 C 24.21,30.49 24.57,30.44 24.87,30.34 C 24.98,30.3 25.06,30.26 25.15,30.21 L 24.81,27.31 z" id="p3216" style="fill:#d0d0d0;fill-opacity:0.52;fill-rule:evenodd;stroke:none"/>
<path d="M 22.22,27.31 C 22.55,27.93 24.68,27.62 25.13,27.08" id="p3212" style="fill:none;fill-rule:evenodd;stroke:#1e1e1e;stroke-width:0.2;stroke-linecap:round;stroke-linejoin:miter;stroke-miterlimit:4;stroke-dasharray:none;stroke-opacity:1;display:inline"/>
<path d="M 23.83,27.75 C 24.26,27.68 24.57,27.58 24.67,27.54" id="p3232" style="fill:none;fill-rule:evenodd;stroke:#e9e9e9;stroke-width:0.2;stroke-linecap:round;stroke-linejoin:miter;stroke-miterlimit:4;stroke-dasharray:none;stroke-opacity:1"/>
<path d="M 19.98,16.29 C 20.19,16.84 23.33,16.13 23.4,15.45" id="p3248" style="fill:none;fill-rule:evenodd;stroke:#f1f1f1;stroke-width:0.5;stroke-linecap:round;stroke-linejoin:miter;stroke-miterlimit:4;stroke-dasharray:none;stroke-opacity:0.81;display:inline"/>
<path d="M 20.93,16.45 C 21.39,16.43 22.02,16.3 22.02,16.3" id="p3251" style="fill:none;fill-rule:evenodd;stroke:#1d1d1d;stroke-width:0.5;stroke-linecap:butt;stroke-linejoin:miter;stroke-miterlimit:4;stroke-dasharray:none;stroke-opacity:1"/>
<path d="M 22.18,16.99 L 22.29,17.52" id="p3255" style="fill:none;fill-rule:evenodd;stroke:#cbcbcb;stroke-width:0.60;stroke-linecap:round;stroke-linejoin:miter;stroke-miterlimit:4;stroke-dasharray:none;stroke-opacity:0.79"/>
<path d="M 7.48,11.47 C 7.48,12.15 7.34,15.69 7.43,16.42 C 7.52,17.16 9.49,18.85 10.78,18.72 C 12.06,18.58 13.12,17.71 13.17,16.38 C 13.21,15.05 13.17,11.42 13.17,11.42 L 7.48,11.47 z" id="p3257" style="fill:#dfe6ec;fill-opacity:1;fill-rule:evenodd;stroke:none;display:inline"/>
<path d="M 5.64,11.47 L 13.95,11.51" id="p3260" style="fill:none;fill-rule:evenodd;stroke:#565656;stroke-width:0.30;stroke-linecap:butt;stroke-linejoin:miter;stroke-miterlimit:4;stroke-dasharray:none;stroke-opacity:1;display:inline"/>
<path d="M 5.73,12.25 L 13.85,12.29" id="p3262" style="fill:none;fill-rule:evenodd;stroke:#565656;stroke-width:0.30;stroke-linecap:butt;stroke-linejoin:miter;stroke-miterlimit:4;stroke-dasharray:none;stroke-opacity:1;display:inline"/>
<path d="M 5.73,13.12 L 13.85,13.07" id="p3264" style="fill:none;fill-rule:evenodd;stroke:#565656;stroke-width:0.30;stroke-linecap:butt;stroke-linejoin:miter;stroke-miterlimit:4;stroke-dasharray:none;stroke-opacity:1;display:inline"/>
<path d="M 8.96,12.45 L 11.1,12.45" id="p3269" style="fill:none;fill-rule:evenodd;stroke:#ffffff;stroke-width:0.40;stroke-linecap:round;stroke-linejoin:miter;stroke-miterlimit:4;stroke-dasharray:none;stroke-opacity:0.93;display:inline"/>
<path d="M 8.99,13.3 L 10.99,13.3" id="p3271" style="fill:none;fill-rule:evenodd;stroke:#ffffff;stroke-width:0.40;stroke-linecap:round;stroke-linejoin:miter;stroke-miterlimit:4;stroke-dasharray:none;stroke-opacity:0.93;display:inline"/>
<path d="M 9.59,11.41 C 9.59,11.41 9.47,15.93 9.47,16.26 C 9.47,16.6 8.73,16.71 8.77,17.04 C 8.81,17.37 10.07,17.34 10.33,17.3 C 10.58,17.26 10.51,17.11 10.36,16.48 C 10.21,15.86 10.36,11.38 10.36,11.38 L 9.59,11.41 z" id="p3275" style="fill:#101010;fill-opacity:1;fill-rule:evenodd;stroke:none;display:inline"/>
<path d="M 8.36,17.85 L 8.84,17.37 C 8.84,17.37 10.03,17.52 10.77,17.48 C 11.51,17.45 12.88,17.48 12.95,16.19 C 13.03,14.89 12.92,11.49 12.92,11.49 L 13.36,11.49 C 13.36,11.49 13.29,15.56 13.25,16.37 C 13.21,17.19 12.77,18.67 10.81,18.74 C 8.84,18.82 8.33,17.97 8.36,17.85 z" id="p3278" style="fill:#757575;fill-opacity:0.77;fill-rule:evenodd;stroke:none;display:inline"/>
<path d="M 10.29,18.47 C 11.13,18.52 11.66,18.56 12.59,17.5" id="p3302" style="fill:none;fill-rule:evenodd;stroke:#262626;stroke-width:0.80;stroke-linecap:round;stroke-linejoin:miter;stroke-miterlimit:4;stroke-dasharray:none;stroke-opacity:0.88;display:inline"/>
<path d="M 7.4,11.67 L 7.36,16.15" id="p3281" style="fill:none;fill-rule:evenodd;stroke:#1f1f1f;stroke-width:0.60;stroke-linecap:round;stroke-linejoin:miter;stroke-miterlimit:4;stroke-dasharray:none;stroke-opacity:0.55;display:inline"/>
<path d="M 7.47,11.6 C 7.4,13.19 7.44,16 7.44,16.37 C 7.44,16.74 7.84,17.93 9.18,18.37" id="p3284" style="fill:none;fill-rule:evenodd;stroke:#151515;stroke-width:0.30;stroke-linecap:butt;stroke-linejoin:miter;stroke-miterlimit:4;stroke-dasharray:none;stroke-opacity:1;display:inline"/>
<path d="M 8.77,17.37 L 8.4,17.93 C 8.4,17.93 9.07,18.67 9.88,18.67 C 9.62,18.45 9.66,18.19 9.99,18.08 C 9.59,17.93 9.25,17.78 8.77,17.37 z" id="p3287" style="fill:#101010;fill-opacity:1;fill-rule:evenodd;stroke:none;display:inline"/>
<path d="M 9.4,17.41 C 10.66,17.63 12.73,17.48 13.03,16.41" id="p3290" style="fill:none;fill-rule:evenodd;stroke:#141414;stroke-width:0.30;stroke-linecap:round;stroke-linejoin:miter;stroke-miterlimit:4;stroke-dasharray:none;stroke-opacity:0.95;display:inline"/>
<path d="M 7.91,19.63 C 8.68,19.87 9.72,19.64 10.39,18.9" id="p3293" style="fill:none;fill-rule:evenodd;stroke:#424242;stroke-width:0.40;stroke-linecap:round;stroke-linejoin:miter;stroke-miterlimit:4;stroke-dasharray:none;stroke-opacity:1;display:inline"/>
<path d="M 10.21,19.25 C 10.21,19.58 10.71,20.23 10.77,20.3 C 10.91,20.03 11.22,19.58 11.47,19.45 C 11.44,19.25 10.79,18.59 10.79,18.59 L 10.21,19.25 z" id="p3306" style="fill:#898989;fill-opacity:0.83;fill-rule:evenodd;stroke:none"/>
<path d="M 13.76,19.69 C 13.76,19.69 11.19,20.41 10.76,20.41 C 11.29,19.17 12.53,18.93 13.19,19.22 C 13.86,19.5 13.81,19.74 13.76,19.69 z" id="p3296" style="fill:#5c5c5c;fill-opacity:0.83;fill-rule:evenodd;stroke:none;display:inline"/>
<path d="M 9.76,19.5 C 10.1,19.12 10.67,18.31 10.91,18.31 C 11.14,18.31 11,19.12 11,19.12" id="p3299" style="fill:none;fill-rule:evenodd;stroke:#131313;stroke-width:0.60;stroke-linecap:round;stroke-linejoin:miter;stroke-miterlimit:4;stroke-dasharray:none;stroke-opacity:1;display:inline"/>
<path d="M 10.82,20.25 C 11.17,19.61 11.59,19.24 12.42,19.1" id="p3309" style="fill:none;fill-rule:evenodd;stroke:#d7d7d7;stroke-width:0.1;stroke-linecap:round;stroke-linejoin:miter;stroke-miterlimit:4;stroke-dasharray:none;stroke-opacity:1"/>
<path d="M 12.49,21.97 C 12.72,22.64 12.53,23.63 12.53,23.63" id="p3312" style="fill:none;fill-rule:evenodd;stroke:#1d1d1d;stroke-width:0.2;stroke-linecap:round;stroke-linejoin:miter;stroke-miterlimit:4;stroke-dasharray:none;stroke-opacity:1;display:inline"/>
<path d="M 12.67,21.94 C 12.9,22.6 12.7,23.6 12.7,23.6" id="p3315" style="fill:none;fill-rule:evenodd;stroke:#e7e7e7;stroke-width:0.2;stroke-linecap:round;stroke-linejoin:miter;stroke-miterlimit:4;stroke-dasharray:none;stroke-opacity:0.52;display:inline"/>
<path d="M 8.48,21.41 C 8.86,21.81 9.51,22.47 9.14,24.26" id="p3318" style="fill:none;fill-rule:evenodd;stroke:#b8b8b8;stroke-width:0.60;stroke-linecap:butt;stroke-linejoin:miter;stroke-miterlimit:4;stroke-dasharray:none;stroke-opacity:0.82;display:inline"/>
<path d="M 6.53,22.31 C 7.27,22.44 7.46,23.45 7.25,24.41" id="p3321" style="fill:none;fill-rule:evenodd;stroke:#c6c6c6;stroke-width:0.5;stroke-linecap:round;stroke-linejoin:miter;stroke-miterlimit:4;stroke-dasharray:none;stroke-opacity:0.7;display:inline"/>
<path d="M 7.03,23.37 C 7.19,23.77 6.95,24.36 6.95,24.36" id="p3324" style="fill:none;fill-rule:evenodd;stroke:#000000;stroke-width:0.2;stroke-linecap:round;stroke-linejoin:miter;stroke-miterlimit:4;stroke-dasharray:none;stroke-opacity:0.85"/>
<path d="M 5.84,23.56 C 5.95,24.11 5.74,24.61 5.37,24.68 C 5.00,24.75 4.61,24.36 4.50,23.80 C 4.39,23.25 4.60,22.75 4.97,22.68 C 5.33,22.61 5.73,23.01 5.84,23.56 z" id="p3326" style="fill:#000000;fill-opacity:0.95;fill-rule:evenodd;stroke:#e3e3e3;stroke-width:0.19;stroke-linecap:round;stroke-linejoin:round;marker:none;stroke-miterlimit:4;stroke-dasharray:none;stroke-dashoffset:0;stroke-opacity:0.85;visibility:visible;display:inline;overflow:visible;enable-background:accumulate"/>
<path d="M 30.96,48 C 26.32,43.38 25.74,35.47 25.06,30.4 C 25.44,30.15 25.53,29.95 25.53,29.62 C 25.53,29.28 25.33,27.7 25.31,27.31 C 25.28,26.92 24.79,27.03 24.68,27.03 C 24.63,26.74 24.41,26.41 24.43,26 C 24.46,25.58 24.57,25.15 24.65,24.96 C 24.91,24.78 25.12,24.58 24.96,24.09 C 24.78,23.85 24.59,24.07 24.59,23.81 C 24.59,23.55 24.37,20.93 24.37,20.93 C 24.37,20.93 29.79,19.45 30.15,19.4 C 30.52,19.35 30.71,18.9 30.71,18.9 C 30.71,18.9 40.59,16.04 40.93,15.96 C 41.27,15.89 41.28,15.59 41.28,15.59 L 41.5,15.59 C 41.5,15.59 41.62,15.8 41.93,15.75 C 42.25,15.69 42.71,15.5 43.15,15.37 C 43.59,15.24 43.67,13.22 42.37,13.4 C 41.07,13.58 41.11,13.87 41.09,14.06 C 40.91,13.95 40.73,13.82 40.18,13.87 C 39.63,13.92 30.07,16.01 29.81,16.06 C 29.78,15.98 29.51,15.88 29.28,15.9 C 29.2,15.91 25.6,16.8 22.71,17.5 C 22.58,17.07 22.44,16.62 22.4,16.5 C 22.63,16.42 23.58,16.11 23.43,15.59 C 23.41,15.52 23.4,15.3 23.37,15.21 C 23.13,14.41 19.78,15.27 19.93,16.34 C 19.93,16.34 19.92,16.48 19.96,16.65 C 20.05,16.98 20.55,16.91 21.37,16.75 C 21.37,16.88 21.41,17.34 21.43,17.81 C 17.82,18.68 16.51,18.99 13.81,19.65 C 13.48,19.24 12.95,18.92 12.5,18.96 C 13.54,18.34 13.76,16.99 13.81,16 C 13.86,15 13.9,11.88 13.9,11.59 C 14.16,11.56 14.3,11.42 13.65,11.18 C 13,10.95 11.56,10.46 9.81,10.46 C 8.06,10.46 5.94,11.14 5.68,11.25 C 5.55,11.35 5.54,11.48 5.75,11.56 C 5.74,12.16 5.81,16.38 5.84,16.9 C 5.86,18.73 7.44,19.27 7.96,19.68 C 7.68,19.94 7.39,20.36 7.5,20.93 C 7.54,21.19 7.78,21.38 8.09,21.5 C 7.6,21.82 7.08,22.13 7,22.15 C 6.81,22.2 6.43,22.05 6.12,22.46 C 5.75,22.46 5.38,22.53 5.12,22.56 C 4.86,22.58 4.46,23.09 4.9,24.18 C 5.42,25.25 5.82,24.76 6.06,24.68 C 6.29,24.6 6.63,24.52 6.84,24.46 C 7.07,24.54 7.41,24.46 7.59,24.31 C 7.93,24.36 8.78,24.43 8.93,24.4 C 9.09,24.38 9.42,24.15 9.68,24.15 C 9.94,24.15 11.94,24.11 12.78,23.9 C 13.61,23.69 14.74,23.33 15.21,23.31 C 15.34,23.54 15.72,23.76 16.53,23.65 C 17.33,23.55 19.05,22.97 20.12,23 C 21.19,23.02 21.55,22.94 22,23.31 C 22.02,23.54 22.03,24.04 22.03,24.25 C 21.82,24.27 21.84,24.5 21.84,24.68 C 21.84,24.87 21.84,25.07 22.15,25.15 C 22.39,25.52 22.54,25.68 22.59,26.31 C 22.64,26.93 22.6,27.19 22.5,27.37 C 22.18,27.27 22.03,27.59 22.06,27.93 C 22.08,28.27 22.22,29.97 22.25,30.18 C 22.26,30.34 22.52,30.51 22.78,30.59 C 23.37,34.98 23.77,42.56 27.93,48" id="stroke" style="fill:none;fill-opacity:1;fill-rule:evenodd;stroke:#000000;stroke-width:0.50;stroke-linecap:butt;stroke-linejoin:round;stroke-miterlimit:4;stroke-dasharray:none;stroke-opacity:1;display:inline"/>
</g>
</svg>
