<?xml version="1.0" encoding="UTF-8" standalone="no"?>
<!DOCTYPE svg PUBLIC "-//W3C//DTD SVG 1.0//EN" "http://www.w3.org/TR/2001/REC-SVG-20010904/DTD/svg10.dtd">
<svg xmlns:svg="http://www.w3.org/2000/svg" xmlns="http://www.w3.org/2000/svg" version="1.0" width="100%" height="100%" viewBox="0 0 48 48" id="_blue04">
<defs id="defs2385"/>
<g id="blue04" style="display:inline">
<path d="M 3.5,3.51 C 3.5,3.51 3.44,4.47 3.75,4.83 C 4.05,5.18 4.71,5.84 4.71,5.84 C 4.71,5.84 4.46,6.3 4.71,6.55 C 4.97,6.81 6.64,8.53 6.64,8.53 L 7.71,11.52 L 8.16,12.03 L 7.91,12.39 L 11.21,15.89 L 11.66,15.89 L 11.66,16.39 C 11.66,16.39 39.76,44.49 40.12,44.8 C 40.47,45.1 41.08,44.65 41.08,44.65 C 41.08,44.65 41.44,44.95 41.69,45.15 C 41.94,45.36 42.6,44.95 43.67,43.94 C 44.73,42.92 45.29,42.06 45.04,41.81 C 44.79,41.55 44.53,41.25 44.53,41.25 C 44.53,41.25 45.14,40.44 44.68,40.03 C 44.23,39.63 15.97,11.52 15.97,11.52 L 15.87,10.91 C 15.87,10.91 12.98,8.33 12.73,8.13 C 12.47,7.92 11.97,8.23 11.97,8.23 L 11.51,7.77 L 8.57,6.81 C 8.57,6.81 6.54,4.78 6.34,4.63 C 6.13,4.47 5.78,4.88 5.78,4.88 C 5.78,4.88 4.97,3.81 4.46,3.61 C 3.95,3.41 3.55,3.41 3.5,3.51 z" id="p3564" style="fill:#c4cac8;fill-opacity:1;fill-rule:evenodd;stroke:none;display:inline"/>
<path d="M 17.19,20.57 C 16.42,20.95 18.48,21.14 17.56,20.61 C 17.38,19.7 19.74,20.97 18.56,20.9 C 18.51,20.33 17.64,20.49 18.05,20.96 C 17.57,21.8 15.8,20.24 17.18,20.56 L 17.19,20.57 z M 19.21,22.25 C 19.2,21.9 17.84,21.22 18.23,21.89 C 18.99,22.17 18.63,22.49 18.01,22.11 C 16.85,21.2 20.37,20.89 19.83,21.96 C 19.73,22.11 19.5,22.22 19.21,22.25 z M 18.68,21.44 C 18.58,22.01 20.28,21.92 19.22,21.45 C 19.05,21.4 18.83,21.39 18.68,21.44 z M 20.61,23.16 C 21.36,22.48 18.47,22.28 19.43,23.04 C 20.61,23.58 18.23,23.12 18.9,22.69 C 19.02,21.84 21.97,22.57 20.61,23.16 z M 20.46,24.44 C 19.88,24 19.47,23.42 20.72,23.32 C 21.69,23.18 21.16,23.52 20.58,23.52 C 19.74,23.76 20.79,24.46 21.36,23.98 C 22.37,23.78 21.92,24.23 21.24,24.24 C 20.98,24.31 20.73,24.39 20.46,24.44 z M 22.74,24.84 C 22.53,24.28 20.14,25.11 21.45,24.53 C 21.94,24.21 23.08,24.47 22.88,24.82 L 22.74,24.84 L 22.74,24.84 z M 23.99,24.92 C 23.27,25.27 23.7,24.42 23.99,24.92 z M 23.31,25.09 C 22.69,25.08 22.11,25.7 21.52,25.33 C 22.15,25.34 22.61,24.77 23.31,25.09 z M 23.95,25.73 C 23.34,25.31 21.77,26.45 22.23,25.78 C 22.7,25.64 23.9,25.11 24.03,25.48 C 23.84,25.52 23.68,25.64 23.95,25.73 z M 23.61,26.03 C 25.24,25.97 24.59,27.3 23.32,27.13 C 22.37,26.97 22.33,25.67 23.47,26.35 C 24.05,26.7 25.15,26.63 23.61,26.03 z M 22.88,26.62 C 23.97,27.33 23.5,25.85 22.8,26.51 L 22.82,26.57 L 22.88,26.62 L 22.88,26.62 z M 24.12,27.4 C 23.35,27.78 25.41,27.97 24.48,27.44 C 24.31,26.53 26.67,27.79 25.49,27.72 C 25.44,27.16 24.57,27.32 24.98,27.79 C 24.5,28.63 22.73,27.07 24.1,27.39 L 24.12,27.4 z M 25.85,29.75 C 25.27,29.31 24.86,28.73 26.1,28.63 C 27.08,28.49 26.55,28.83 25.97,28.83 C 25.13,29.07 26.18,29.77 26.75,29.29 C 27.75,29.09 27.31,29.53 26.63,29.55 C 26.37,29.62 26.12,29.7 25.85,29.75 z M 26.56,30.45 C 26.21,30.09 27.72,29.39 27.73,29.78 C 27.34,29.92 26.61,30.45 27.65,30.23 C 28.22,30.05 28.89,30.54 27.94,30.42 C 27.48,30.43 27.02,30.44 26.56,30.45 z M 29.42,31.11 C 29.96,31.66 31.35,32.74 29.5,32.8 C 28.33,32.85 31.39,32.11 29.58,32.06 C 29.23,32.2 27.94,32.25 28.83,32.05 C 30.02,32.08 29.23,30.96 28.46,31.6 C 27.43,31.77 28.08,31.31 28.68,31.3 C 28.92,31.24 29.17,31.17 29.42,31.11 z M 30.54,32.86 C 32.17,32.8 31.51,34.12 30.25,33.96 C 29.3,33.8 29.25,32.5 30.39,33.18 C 30.98,33.52 32.07,33.46 30.54,32.86 z M 29.81,33.45 C 30.89,34.15 30.43,32.67 29.72,33.33 L 29.75,33.39 L 29.81,33.45 L 29.81,33.45 z M 32.42,34.37 C 32.2,33.81 29.82,34.65 31.13,34.06 C 31.61,33.75 32.76,34.01 32.56,34.36 L 32.42,34.37 L 32.42,34.37 z M 33.65,34.44 C 33.09,34.5 31.78,34.89 33.15,34.99 C 33.92,35.36 32.33,34.92 32.43,35.3 C 32.27,35.59 31.53,35.71 32.03,35.32 C 32.86,34.82 30.58,35.01 31.6,34.76 C 32.14,34.59 33,34.23 33.65,34.44 z M 33.66,36.48 C 33.64,36.14 32.28,35.46 32.67,36.13 C 33.44,36.4 33.07,36.72 32.46,36.34 C 31.29,35.43 34.81,35.12 34.27,36.19 C 34.17,36.34 33.95,36.46 33.66,36.48 z M 33.12,35.68 C 33.02,36.24 34.72,36.15 33.66,35.69 C 33.49,35.64 33.28,35.62 33.12,35.68 z M 35.1,37.01 C 34.88,36.45 32.5,37.29 33.8,36.7 C 34.29,36.39 35.44,36.65 35.23,37 L 35.1,37.01 L 35.1,37.01 z" id="text3671" style="fill:#183975;fill-opacity:0.81;stroke:none;display:inline"/>
<path d="M 17.12,13.46 L 16.58,14.02 L 18.10,16.33 L 19.06,15.34 L 17.12,13.46 z" id="p3694" style="fill:#c11e22;fill-opacity:0.79;fill-rule:evenodd;stroke:none;display:inline"/>
<path d="M 16.25,14.34 L 14.87,15.68 L 16.71,17.75 L 17.75,16.73 L 16.25,14.34 z" id="p3681" style="fill:#0d3694;fill-opacity:0.81;fill-rule:evenodd;stroke:none;display:inline"/>
<path d="M 16.84,17.79 C 16.84,17.79 35.79,36.88 36.3,37.28 C 36.82,37.69 37.03,38.05 38.16,36.86 C 39.31,35.66 39.09,35.41 38.5,34.82 C 37.78,34.11 19.3,15.82 19.3,15.82 L 16.84,17.79 z" id="p3696" style="fill:#d21f22;fill-opacity:0.75;fill-rule:evenodd;stroke:none;display:inline"/>
<path d="M 20.67,19.59 C 20.29,18.93 18.87,18.17 20.12,19.23 C 20.63,20.45 17.9,17.84 19.3,17.82 C 20.13,17.44 21.42,19.17 20.67,19.59 z M 20.27,18.87 C 20.53,18.23 19.21,18.24 20.27,18.87 z M 23.28,20.53 C 22.75,21.02 22.18,22.29 21.1,20.65 C 19.94,19.12 22.06,19.59 22.48,20.18 C 22.62,19.84 23.03,20.21 23.28,20.53 z M 21.97,20.73 C 22.17,19.75 20.76,20.8 21.94,20.76 L 21.97,20.73 z M 25.16,22.42 C 24.63,22.91 24.06,24.18 22.97,22.54 C 21.82,21.01 23.93,21.48 24.35,22.07 C 24.49,21.73 24.9,22.1 25.16,22.42 z M 23.85,22.62 C 24.04,21.64 22.63,22.69 23.82,22.65 L 23.85,22.62 z M 25.52,22.78 C 27,23.94 24.71,23.37 25.52,22.78 z M 25.19,23.11 C 26.67,24.13 23.9,24.88 24.59,23.63 C 24.78,23.45 25.09,23.38 25.19,23.11 z M 26.09,24.02 C 27.2,24.85 27.98,26.36 26.59,26.25 C 25.82,25.82 27.29,24.93 26.17,25.04 C 26.01,25.99 24.68,24.4 25.71,24.4 C 25.84,24.27 25.96,24.15 26.09,24.02 z M 28.94,26.89 C 30.13,28.05 27.7,29.09 27.07,27.31 C 26.47,25.93 28.43,28.61 27.91,27.35 C 26.22,26.29 28.55,25.53 28.87,26.95 L 28.92,26.91 L 28.94,26.89 z M 28,26.78 C 27.9,27.81 29.12,26.6 28,26.78 z M 30.76,29.18 C 30.43,27.5 33.51,30.31 31.86,30.38 C 31.59,32.1 28.71,28.52 30.76,29.18 z M 31.25,29.19 C 31.16,30.14 32.31,29.2 31.25,29.19 L 31.25,29.19 z M 30.7,29.67 C 30.61,30.68 31.85,29.61 30.7,29.67 z M 33.25,32.96 C 32.38,32.4 30.92,30.42 32.75,31.46 C 33.58,31.77 33.63,31.14 32.76,30.79 C 32.76,29.59 35.42,32.6 33.62,32.14 C 32.46,31.69 33.09,32.19 33.45,32.77 L 33.35,32.87 L 33.25,32.96 L 33.25,32.96 z M 34.46,32.9 C 34.12,31.22 37.21,34.03 35.56,34.1 C 35.28,35.83 32.41,32.24 34.46,32.9 z M 34.94,32.92 C 34.86,33.87 36,32.93 34.94,32.92 L 34.94,32.92 z M 34.4,33.4 C 34.3,34.41 35.55,33.33 34.4,33.4 z M 35.94,34.47 C 36.59,33.3 38.82,36.05 37.39,36.31 C 36.45,36.65 35.03,35.03 35.94,34.47 z M 36.48,35.02 C 35.62,36.16 38.19,35.56 36.82,34.79 L 36.65,34.86 L 36.48,35.02 L 36.48,35.02 z" id="text3699" style="opacity:0;fill:#ffffff;fill-opacity:0.87;stroke:none;display:inline"/>
<path d="M 18.32,18.56 C 18.90,18.23 19.60,16.54 20.15,17.85 C 21.73,18.38 19.89,20.35 19.30,18.70 C 18.77,18.91 18.92,19.32 18.32,18.56 z M 19.67,18.21 C 19.27,19.47 21.06,17.89 19.67,18.21 z M 19.97,20.22 C 20.55,19.89 21.24,18.20 21.79,19.51 C 23.37,20.04 21.53,22.01 20.94,20.36 C 20.41,20.57 20.56,20.98 19.97,20.22 z M 21.31,19.87 C 20.91,21.13 22.70,19.55 21.31,19.87 z M 22.31,21.10 C 23.57,21.77 21.83,22.29 22.07,21.32 L 22.22,21.20 L 22.31,21.10 L 22.31,21.10 z M 22.39,22.67 C 22.97,22.34 23.67,20.65 24.21,21.96 C 25.80,22.49 23.95,24.46 23.36,22.81 C 22.84,23.02 22.99,23.43 22.39,22.67 z M 23.73,22.32 C 23.35,23.57 25.10,22.01 23.73,22.32 z M 25.38,23.00 C 25.52,23.44 26.82,24.08 25.88,24.09 C 25.40,23.47 24.67,25.14 24.51,23.83 C 24.83,23.59 25.08,23.27 25.38,23.00 z M 25.95,24.56 C 26.85,23.70 28.47,26.09 26.99,26.22 C 26.29,26.19 25.38,25.11 25.95,24.56 z M 26.44,25.06 C 25.93,26.06 27.87,25.23 26.61,24.95 L 26.44,25.06 L 26.44,25.06 z M 29.86,26.79 C 29.28,27.12 28.58,28.81 28.04,27.50 C 26.45,26.97 28.30,25.00 28.88,26.65 C 29.41,26.44 29.26,26.03 29.86,26.79 z M 28.52,27.14 C 28.91,25.88 27.12,27.46 28.52,27.14 z M 30.16,29.78 C 29.80,29.12 28.39,28.51 29.41,27.83 C 29.78,26.96 30.72,28.29 29.76,28.43 C 29.71,29.62 30.90,27.60 31.07,28.89 C 30.76,29.18 30.47,29.49 30.16,29.78 z M 31.79,30.67 C 32.77,31.97 30.02,30.56 30.80,29.69 C 31.21,28.38 33.31,30.83 32.21,30.59 C 31.74,29.18 30.56,30.53 31.79,30.67 z M 34.04,31.01 C 33.40,31.15 34.23,32.23 33.37,31.68 C 32.84,31.88 33.37,33.09 32.54,32.24 C 32.02,31.56 32.97,31.32 32.91,30.76 C 33.35,30.82 33.58,30.70 34.04,31.01 z M 34.56,31.54 C 35.45,31.96 34.64,32.66 34.35,31.75 L 34.39,31.70 L 34.56,31.54 L 34.56,31.54 z M 34.19,31.90 C 35.37,32.43 33.32,33.98 33.29,32.75 C 33.62,32.51 33.88,32.18 34.19,31.90 z M 34.44,33.14 C 35.33,32.28 36.96,34.67 35.48,34.80 C 34.78,34.77 33.87,33.69 34.44,33.14 z M 34.93,33.63 C 34.42,34.64 36.36,33.81 35.10,33.53 L 34.93,33.63 L 34.93,33.63 z M 36.63,34.38 C 37.00,35.03 38.41,35.65 37.39,36.33 C 37.01,37.20 36.08,35.87 37.04,35.73 C 37.08,34.54 35.89,36.56 35.73,35.26 C 36.04,34.98 36.33,34.67 36.63,34.38 z" id="text4703" style="fill:#ffffff;fill-opacity:0.87;fill-rule:nonzero;stroke:none;marker:none;visibility:visible;display:inline;overflow:visible;enable-background:accumulate"/>
<path d="M 37.53,38.21 L 38.68,37.05 L 43.54,39.98 L 42.23,41.06 L 37.53,38.21 z" id="p3711" style="fill:#1713b5;fill-opacity:0.81;fill-rule:evenodd;stroke:none;display:inline"/>
<path d="M 38.12,37.78 C 38.17,37.88 38.25,37.99 38.41,38.07 C 38.73,38.08 38.34,37.89 38.44,37.8 C 38.44,37.68 38.73,37.58 38.94,37.7 C 39.13,37.75 39.22,37.96 38.98,37.95 C 38.96,37.87 38.89,37.71 38.67,37.77 C 38.45,37.87 38.86,37.96 38.79,38.06 C 38.76,38.22 38.31,38.17 38.14,38.06 C 37.97,37.97 37.98,37.84 38.12,37.78 z M 38.31,38.45 C 38.68,38.36 38.9,38.17 39.29,38.1 C 39.51,38.07 39.75,38.18 39.83,38.29 C 39.97,38.48 39.64,38.67 39.25,38.63 C 39,38.65 38.93,38.5 38.8,38.42 C 38.61,38.38 38.49,38.62 38.31,38.45 z M 39.13,38.26 C 38.87,38.3 38.95,38.49 39.23,38.53 C 39.5,38.59 39.73,38.49 39.7,38.35 C 39.7,38.21 39.26,38.16 39.13,38.26 z M 40.14,39.04 C 40.12,39.21 39.69,39.08 39.59,38.97 C 39.38,38.84 39.54,38.72 39.72,38.64 C 40.02,38.5 40.65,38.68 40.65,38.9 C 40.63,39 40.38,39.11 40.22,38.97 C 40.1,38.91 39.84,38.7 39.74,38.84 C 39.65,38.95 39.89,39.08 40.11,39.04 L 40.14,39.04 L 40.14,39.04 z M 39.96,38.7 C 40.01,38.8 40.29,38.95 40.47,38.88 C 40.51,38.77 40.27,38.65 40.06,38.68 C 40.03,38.68 39.99,38.69 39.96,38.7 z M 40.92,39.5 C 40.93,39.67 40.5,39.59 40.39,39.47 C 40.17,39.35 40.28,39.22 40.46,39.15 C 40.69,39 41.28,39.1 41.39,39.3 C 41.43,39.37 41.24,39.51 41.25,39.37 C 41.21,39.26 40.99,39.14 40.77,39.18 C 40.58,39.23 40.35,39.36 40.58,39.47 C 40.68,39.52 40.83,39.53 40.92,39.5 z M 41.81,39.4 C 41.89,39.29 42.15,39.39 42,39.47 C 41.93,39.5 41.85,39.43 41.81,39.4 z M 40.85,39.75 C 41.11,39.68 41.28,39.55 41.56,39.51 C 41.82,39.56 41.44,39.64 41.38,39.69 C 41.25,39.73 41.02,39.86 40.85,39.75 z M 41.73,40.21 C 41.37,40.22 41.12,39.93 41.37,39.83 C 41.58,39.78 41.75,39.9 41.92,39.95 C 42.11,40.05 42.33,39.97 42.17,39.86 C 42.01,39.83 41.62,39.69 41.99,39.72 C 42.25,39.75 42.46,39.91 42.37,40.03 C 42.28,40.17 42.03,40.28 41.73,40.3 C 41.66,40.28 41.68,40.23 41.73,40.21 z M 42.02,40.09 C 41.95,39.97 41.59,39.9 41.45,39.99 C 41.43,40.1 41.74,40.17 41.9,40.13 C 41.95,40.12 41.99,40.11 42.02,40.09 z M 41.93,40.43 C 42.29,40.34 42.52,40.16 42.91,40.09 C 43.23,40.07 42.89,40.19 42.8,40.23 C 42.56,40.34 42.31,40.44 41.98,40.48 C 41.96,40.46 41.95,40.45 41.93,40.43 z" id="text3714" style="fill:#e2e2e2;fill-opacity:0.95;stroke:none;display:inline"/>
<path d="M 11.81,14.03 L 10.15,14.78 L 11.21,15.9 L 11.65,15.9 L 11.65,16.4 C 11.65,16.4 39.76,44.5 40.12,44.81 C 40.48,45.11 41.09,44.65 41.09,44.65 C 41.09,44.65 41.43,44.95 41.68,45.15 C 41.88,45.31 42.3,45.11 42.96,44.56 L 42.28,43.78 L 41.78,44.03 L 11.81,14.03 z" id="p3657" style="fill:#5e606a;fill-opacity:0.25;fill-rule:evenodd;stroke:none"/>
<path d="M 12.34,13.75 L 10.87,15.53 L 11.21,15.9 L 11.65,15.9 L 11.65,16.4 C 11.65,16.4 39.76,44.5 40.12,44.81 C 40.48,45.11 41.09,44.65 41.09,44.65 C 41.09,44.65 41.43,44.95 41.68,45.15 C 41.88,45.31 42.32,45.1 43,44.53 L 12.34,13.75 z" id="p3664" style="fill:#5e606a;fill-opacity:0.25;fill-rule:evenodd;stroke:none"/>
<path d="M 14.43,9.65 L 12.4,12.03 L 43.18,42.71 L 42.96,43.03 L 43.78,43.84 C 44.77,42.87 45.27,42.05 45.03,41.81 C 44.77,41.55 44.53,41.25 44.53,41.25 C 44.53,41.25 45.14,40.43 44.68,40.03 C 44.23,39.62 15.96,11.53 15.96,11.53 L 15.87,10.9 C 15.87,10.9 15.1,10.25 14.43,9.65 z M 14.5,12.09 L 44.37,41.65 L 43.87,42.15 L 14,12.59 L 14.5,12.09 z" id="p3643" style="fill:#fcfcfe;fill-opacity:0.27;fill-rule:evenodd;stroke:none;display:inline"/>
<path d="M 3.81,3.43 C 3.64,3.42 3.52,3.44 3.5,3.5 C 3.5,3.49 3.44,4.48 3.75,4.84 C 4.05,5.19 4.71,5.84 4.71,5.84 C 4.71,5.84 4.46,6.3 4.71,6.56 C 4.97,6.81 6.65,8.53 6.65,8.53 L 7.71,11.53 L 8.15,12.03 L 7.9,12.4 L 11.21,15.9 L 11.65,15.9 L 11.65,15.96 C 13.17,14.19 14.56,12.71 15.96,11.43 L 15.87,10.9 C 15.87,10.9 12.97,8.32 12.71,8.12 C 12.46,7.92 11.96,8.21 11.96,8.21 L 11.5,7.78 L 8.56,6.81 C 8.56,6.81 6.54,4.77 6.34,4.62 C 6.14,4.47 5.78,4.87 5.78,4.87 C 5.78,4.87 4.97,3.82 4.46,3.62 C 4.21,3.52 3.98,3.45 3.81,3.43 z" id="p3575" style="fill:#2424b2;fill-opacity:1;fill-rule:evenodd;stroke:none;display:inline"/>
<path d="M 3.59,3.43 C 3.56,3.44 3.54,3.45 3.53,3.46 L 7.68,7.68 L 8.56,6.81 C 8.56,6.81 6.54,4.77 6.34,4.62 C 6.14,4.47 5.78,4.87 5.78,4.87 C 5.78,4.87 4.97,3.82 4.46,3.62 C 4.21,3.52 3.98,3.45 3.81,3.43 C 3.72,3.43 3.64,3.42 3.59,3.43 z" id="p3588" style="fill:#8686ff;fill-opacity:0.46;fill-rule:evenodd;stroke:none;display:inline"/>
<path d="M 3.81,3.43 C 3.64,3.42 3.52,3.44 3.5,3.5 C 3.5,3.49 3.44,4.48 3.75,4.84 C 4.05,5.19 4.71,5.84 4.71,5.84 C 4.71,5.84 4.65,5.96 4.62,6.12 L 6.37,4.65 C 6.37,4.65 6.34,4.62 6.34,4.62 C 6.14,4.47 5.78,4.87 5.78,4.87 C 5.78,4.87 4.97,3.82 4.46,3.62 C 4.21,3.52 3.98,3.45 3.81,3.43 z" id="p3573" style="fill:#854d3c;fill-opacity:1;fill-rule:evenodd;stroke:none;display:inline"/>
<path d="M 11.34,7.71 L 10.4,8.56 L 10.93,9.15 L 11.09,8.96 L 14.68,12.65 C 15.11,12.22 15.54,11.82 15.96,11.43 L 15.87,10.9 C 15.87,10.9 12.97,8.32 12.71,8.12 C 12.46,7.92 11.96,8.21 11.96,8.21 L 11.5,7.78 L 11.34,7.71 z M 10.03,8.9 L 9.62,9.28 L 13.78,13.59 C 13.96,13.39 14.15,13.22 14.34,13.03 L 10.81,9.4 L 10.62,9.56 L 10.03,8.9 z" id="p3590" style="fill:#7979ff;fill-opacity:0.38;fill-rule:evenodd;stroke:none;display:inline"/>
<path d="M 8.17,12.06 C 9.48,10.39 10.52,9.49 11.97,8.32" id="p3585" style="fill:none;fill-rule:evenodd;stroke:#040434;stroke-width:0.30;stroke-linecap:round;stroke-linejoin:miter;stroke-miterlimit:4;stroke-dasharray:none;stroke-opacity:0.65;display:inline"/>
<path d="M 5.95,5.39 L 7.81,7.25" id="p3614" style="fill:none;fill-rule:evenodd;stroke:#7a7aff;stroke-width:0.5;stroke-linecap:square;stroke-linejoin:miter;stroke-miterlimit:4;stroke-dasharray:none;stroke-opacity:0.55;display:inline"/>
<path d="M 10.72,9.82 L 14.01,13.2" id="p3617" style="fill:none;fill-rule:evenodd;stroke:#7f7fff;stroke-width:0.69;stroke-linecap:butt;stroke-linejoin:miter;stroke-miterlimit:4;stroke-dasharray:none;stroke-opacity:0.68"/>
<path d="M 9.86,9.06 L 10.24,9.49" id="p3619" style="fill:none;fill-rule:evenodd;stroke:#7f7fff;stroke-width:0.5;stroke-linecap:butt;stroke-linejoin:miter;stroke-miterlimit:4;stroke-dasharray:none;stroke-opacity:0.68"/>
<path d="M 11.87,8.57 L 15.36,11.97" id="p3621" style="fill:none;fill-rule:evenodd;stroke:#8080ff;stroke-width:0.88;stroke-linecap:butt;stroke-linejoin:miter;stroke-miterlimit:4;stroke-dasharray:none;stroke-opacity:0.43"/>
<path d="M 3.59,4.4 C 3.63,4.57 3.66,4.74 3.75,4.84 C 4.05,5.19 4.71,5.84 4.71,5.84 C 4.71,5.84 4.46,6.3 4.71,6.56 C 4.97,6.81 6.65,8.53 6.65,8.53 L 7.71,11.53 L 8.15,12.03 L 7.9,12.4 L 11.21,15.9 L 11.65,15.9 L 11.65,15.96 C 11.93,15.63 12.19,15.37 12.46,15.06 L 8.78,11.34 L 8.93,11.12 L 8.34,10.46 L 7.15,8.25 L 3.59,4.4 z" id="p3623" style="fill:#0b0b45;fill-opacity:0.46;fill-rule:evenodd;stroke:none"/>
<path d="M 8.87,6.9 C 8.2,7.39 7.38,8.1 6.75,8.84 L 7.62,11.25 C 8.66,10.08 10.09,8.58 11.12,7.65 L 8.87,6.9 z" id="p3631" style="fill:#0b0b45;fill-opacity:0.22;fill-rule:evenodd;stroke:none"/>
<path d="M 11.65,15.9 L 11.65,15.96 C 13.17,14.19 14.56,12.71 15.96,11.43" id="p3638" style="fill:none;fill-opacity:1;fill-rule:evenodd;stroke:#070743;stroke-width:0.30;stroke-linecap:butt;stroke-linejoin:miter;stroke-miterlimit:4;stroke-dasharray:none;stroke-opacity:0.93;display:inline"/>
<path d="M 3.5,3.51 C 3.5,3.51 3.44,4.47 3.75,4.83 C 4.05,5.18 4.71,5.84 4.71,5.84 C 4.71,5.84 4.46,6.3 4.71,6.55 C 4.97,6.81 6.64,8.53 6.64,8.53 L 7.71,11.52 L 8.16,12.03 L 7.91,12.39 L 11.21,15.89 L 11.66,15.89 L 11.66,16.39 C 11.66,16.39 39.76,44.49 40.12,44.8 C 40.47,45.1 41.08,44.65 41.08,44.65 C 41.08,44.65 41.44,44.95 41.69,45.15 C 41.94,45.36 42.6,44.95 43.67,43.94 C 44.73,42.92 45.29,42.06 45.04,41.81 C 44.79,41.55 44.53,41.25 44.53,41.25 C 44.53,41.25 45.14,40.44 44.68,40.03 C 44.23,39.63 15.97,11.52 15.97,11.52 L 15.87,10.91 C 15.87,10.91 12.98,8.33 12.73,8.13 C 12.47,7.92 11.97,8.23 11.97,8.23 L 11.51,7.77 L 8.57,6.81 C 8.57,6.81 6.54,4.78 6.34,4.63 C 6.13,4.47 5.78,4.88 5.78,4.88 C 5.78,4.88 4.97,3.81 4.46,3.61 C 3.95,3.41 3.55,3.41 3.5,3.51 z" id="stroke02" style="fill:none;fill-opacity:1;fill-rule:evenodd;stroke:#0b0b2e;stroke-width:0.5;stroke-linecap:butt;stroke-linejoin:miter;stroke-miterlimit:4;stroke-dasharray:none;stroke-opacity:1;display:inline"/>
<path d="M 40.99,44.63 C 43.02,43.18 43.37,42.77 44.47,41.2" id="p3641" style="fill:none;fill-rule:evenodd;stroke:#1e2135;stroke-width:0.30;stroke-linecap:butt;stroke-linejoin:miter;stroke-miterlimit:4;stroke-dasharray:none;stroke-opacity:0.83"/>
<path d="M 14.55,5.82 C 14.35,6.06 14.51,6.42 14.67,6.62 C 14.83,6.82 20.08,12.19 20.32,12.43 C 20.56,12.67 21,13.23 21.17,13.48 C 21.33,13.72 21.69,14.04 22.25,13.72 C 22.82,13.4 25.24,11.06 25.56,10.61 C 25.88,10.17 25.72,9.89 25.56,9.65 C 25.4,9.4 25.28,9.48 24.63,8.8 C 23.99,8.11 18.87,3.07 18.63,2.87 C 18.38,2.67 18.1,2.55 17.66,2.91 C 17.21,3.27 15.44,4.65 14.55,5.82 z" id="p3476" style="fill:#2323ac;fill-opacity:1;fill-rule:evenodd;stroke:none;display:inline"/>
<path d="M 16.78,3.75 L 21.62,8.47" id="p3562" style="fill:none;fill-rule:evenodd;stroke:#0b0b2e;stroke-width:0.5;stroke-linecap:butt;stroke-linejoin:miter;stroke-miterlimit:4;stroke-dasharray:none;stroke-opacity:0.43"/>
<path d="M 16.41,4 L 21.21,8.84" id="p3479" style="fill:none;fill-rule:evenodd;stroke:#5656ff;stroke-width:0.40;stroke-linecap:butt;stroke-linejoin:miter;stroke-miterlimit:4;stroke-dasharray:none;stroke-opacity:0.5"/>
<path d="M 17.46,3.18 L 17.06,3.62 L 22.12,8.62 L 22.18,8.56 L 23.75,10.12 C 24.04,9.85 24.34,9.58 24.65,9.34 C 24.76,9.26 24.86,9.2 24.96,9.12 C 24.87,9.03 24.76,8.95 24.62,8.81 C 24.51,8.69 23.9,8.06 23.59,7.75 C 23.58,7.74 23.56,7.75 23.56,7.75 C 23.33,7.89 23.04,8.12 22.75,8.37 L 17.46,3.18 z M 22.12,8.93 C 21.91,9.15 21.73,9.37 21.65,9.5 C 21.8,9.66 22.46,10.3 23,10.84 C 23.17,10.66 23.36,10.49 23.56,10.31 L 22.12,8.93 z M 25.21,9.34 C 25.08,9.43 24.97,9.49 24.84,9.59 C 24.62,9.76 24.4,9.93 24.18,10.12 L 25.15,11.09 C 25.33,10.9 25.5,10.7 25.56,10.62 C 25.88,10.18 25.72,9.89 25.56,9.65 C 25.47,9.51 25.38,9.47 25.21,9.34 z M 23.75,10.56 C 23.57,10.73 23.37,10.89 23.21,11.06 C 23.61,11.45 23.89,11.74 24.18,12.03 C 24.38,11.84 24.54,11.67 24.71,11.5 L 23.75,10.56 z" id="p3481" style="fill:#5e5eff;fill-opacity:0.5;fill-rule:evenodd;stroke:none"/>
<path d="M 15.6,4.85 L 20.48,9.85" id="p3499" style="fill:none;fill-rule:evenodd;stroke:#2f2fd1;stroke-width:0.40;stroke-linecap:butt;stroke-linejoin:miter;stroke-miterlimit:4;stroke-dasharray:none;stroke-opacity:0.67;display:inline"/>
<path d="M 14.93,5.4 C 14.81,5.54 14.66,5.67 14.56,5.81 C 14.36,6.05 14.52,6.42 14.68,6.62 C 14.84,6.82 20.07,12.19 20.31,12.43 C 20.55,12.67 20.99,13.22 21.15,13.46 C 21.31,13.71 21.68,14.04 22.25,13.71 C 22.38,13.64 22.64,13.43 22.93,13.18 L 14.93,5.4 z" id="p3505" style="fill:#080834;fill-opacity:0.6;fill-rule:evenodd;stroke:none;display:inline"/>
<path d="M 14.56,5.81 C 14.36,6.05 14.52,6.42 14.68,6.62 C 14.82,6.79 18.34,10.41 19.56,11.65 C 19.71,11.1 19.43,10.65 19.43,10.65 L 20.04,10 L 15.28,5.26 C 15.07,5.11 14.71,5.68 14.56,5.81 z" id="p3502" style="fill:#04042a;fill-opacity:0.68;fill-rule:evenodd;stroke:none;display:inline"/>
<path d="M 14.65,5.68 C 14.62,5.72 14.59,5.77 14.56,5.81 C 14.36,6.05 14.52,6.42 14.68,6.62 C 14.82,6.79 18.01,10.08 19.37,11.46 L 19.4,10.53 L 14.65,5.68 z" id="p3508" style="fill:#6f6fff;fill-opacity:0.4;fill-rule:evenodd;stroke:none;display:inline"/>
<path d="M 23.56,7.75 C 23.36,7.86 23.12,8.07 22.87,8.28 L 23.87,9.31 L 23.37,9.75 L 23.75,10.12 C 24.04,9.85 24.34,9.58 24.65,9.34 C 24.76,9.26 24.86,9.2 24.96,9.12 C 24.87,9.03 24.76,8.95 24.62,8.81 C 24.51,8.69 23.9,8.06 23.59,7.75 C 23.58,7.74 23.56,7.75 23.56,7.75 z M 25.21,9.34 C 25.08,9.43 24.97,9.49 24.84,9.59 C 24.62,9.76 24.4,9.93 24.18,10.12 L 25.15,11.09 C 25.33,10.9 25.5,10.7 25.56,10.62 C 25.88,10.18 25.72,9.89 25.56,9.65 C 25.47,9.51 25.38,9.47 25.21,9.34 z M 23.18,9.93 L 22.62,10.46 C 22.77,10.62 22.84,10.69 23,10.84 C 23.17,10.66 23.36,10.49 23.56,10.31 L 23.18,9.93 z M 23.75,10.56 C 23.57,10.73 23.37,10.89 23.21,11.06 C 23.61,11.45 23.89,11.74 24.18,12.03 C 24.38,11.84 24.54,11.67 24.71,11.5 L 23.75,10.56 z" id="p3545" style="fill:#6f6fff;fill-opacity:0.4;fill-rule:evenodd;stroke:none"/>
<path d="M 23.93,10.37 L 23.15,11.12 L 24.12,12.09 C 24.39,11.83 24.64,11.57 24.87,11.34 L 23.93,10.37 z" id="p3550" style="fill:#8989ff;fill-opacity:0.54;fill-rule:evenodd;stroke:none;display:inline"/>
<path d="M 25.75,10.18 C 24.47,10.87 22.94,12.21 22.06,13.78 C 22.12,13.75 22.17,13.75 22.25,13.71 C 22.81,13.39 25.23,11.06 25.56,10.62 C 25.68,10.45 25.73,10.31 25.75,10.18 z" id="p3556" style="fill:#030316;fill-opacity:0.98;fill-rule:evenodd;stroke:none;display:inline"/>
<path d="M 14.55,5.82 C 14.35,6.06 14.51,6.42 14.67,6.62 C 14.83,6.82 20.08,12.19 20.32,12.43 C 20.56,12.67 21,13.23 21.17,13.48 C 21.33,13.72 21.69,14.04 22.25,13.72 C 22.82,13.4 25.24,11.06 25.56,10.61 C 25.88,10.17 25.72,9.89 25.56,9.65 C 25.4,9.4 25.28,9.48 24.63,8.8 C 23.99,8.11 18.87,3.07 18.63,2.87 C 18.38,2.67 18.1,2.55 17.66,2.91 C 17.21,3.27 15.44,4.65 14.55,5.82 z" id="stroke01" style="fill:none;fill-opacity:1;fill-rule:evenodd;stroke:#010130;stroke-width:0.5;stroke-linecap:butt;stroke-linejoin:miter;stroke-miterlimit:4;stroke-dasharray:none;stroke-opacity:1"/>
</g>
</svg>
