<?xml version="1.0" encoding="UTF-8" standalone="no"?>
<!DOCTYPE svg PUBLIC "-//W3C//DTD SVG 1.0//EN" "http://www.w3.org/TR/2001/REC-SVG-20010904/DTD/svg10.dtd">
<svg xmlns:svg="http://www.w3.org/2000/svg" xmlns="http://www.w3.org/2000/svg" version="1.0" width="100%" height="100%" viewBox="0 0 48 48" id="_brush01">
<defs id="defs2385"/>
<g id="brush01" style="display:inline">
<path d="M 7.98,27.27 L 3.44,25.13 L 4.13,25.06 L 3.85,24.65 L 2.61,23.96 L 2.06,22.86 L 2.47,22.52 L 2.54,20.59 L 2.75,20.11 L 2.13,19.21 L 2.47,19.42 L 2.75,18.38 L 12.94,13.22 L 13.91,12.67 L 14.25,12.67 L 14.25,12.19 L 15.90,11.50 L 16.32,11.15 L 17.14,10.74 L 18.11,10.12 L 18.52,10.40 L 18.59,9.78 L 20.45,9.16 L 20.93,9.16 L 20.65,8.67 L 21.07,8.81 L 21.34,8.54 L 22.86,9.23 L 22.03,8.54 L 22.24,8.54 L 26.85,11.57 L 11.08,24.03 L 7.98,27.27 z" id="p5446" style="fill:#d1b77c;fill-opacity:1;fill-rule:evenodd;stroke:none;display:inline"/>
<path d="M 2.56,19.09 L 2.46,19.43 L 2.12,19.21 L 2.75,20.12 L 2.56,20.59 L 2.46,22.53 L 2.06,22.87 L 2.62,23.96 L 3.84,24.65 L 4.12,25.06 L 3.43,25.12 L 8,27.28 L 11.09,24.03 L 11.09,23.90 L 2.56,19.09 z" id="p5451" style="fill:#774521;fill-opacity:0.76;fill-rule:evenodd;stroke:none;display:inline"/>
<path d="M 20.78,8.71 C 21.56,10.85 24.81,12.50 21.06,10.09 C 18.91,9.41 26.83,16.31 22.15,13.18 C 20.60,11.56 16.95,9.67 20.46,12.75 C 21.13,13.17 21.93,14.27 22.34,15.12 L 22.78,14.78 C 22.67,14.66 22.57,14.56 22.43,14.43 C 22.70,14.49 22.84,14.51 23.06,14.56 L 24.34,13.56 C 24.19,13.31 24.01,13.02 23.78,12.68 C 24.12,12.93 24.43,13.15 24.68,13.28 L 25.5,12.62 C 25.21,12.21 24.70,11.74 23.96,11.37 C 22.91,10.61 21.95,9.73 21.15,8.71 L 21.06,8.81 L 20.78,8.71 z M 16.37,11.12 L 16.31,11.15 L 16.18,11.28 C 16.27,11.49 16.44,11.82 16.78,12.34 C 18.17,13.30 21.51,18.44 17.81,15.53 C 17.04,14.81 15.81,13.22 14.59,12.03 L 14.25,12.18 L 14.25,12.68 L 13.90,12.68 L 13.40,12.96 C 15.20,13.98 17.15,14.86 16.96,16.96 C 15.99,16.53 13.86,14.23 12.75,13.31 L 12.40,13.5 C 13.73,14.69 15.06,17.22 12.46,14.75 C 12.30,14.42 12.01,14.12 11.68,13.84 L 10.90,14.25 C 12.78,15.49 14.67,16.82 14.53,17.5 C 13.01,16.70 11.62,15.66 10.34,14.53 L 9.15,15.12 C 10.78,16.67 11.19,17.43 9.12,15.31 C 9.05,15.26 9.03,15.26 8.96,15.21 L 8.37,15.53 C 9.72,16.95 12.31,19.36 12.90,20.12 C 16.42,24.48 8.52,19.32 8.65,17.15 C 8.35,16.72 7.91,16.34 7.40,16.03 L 6.59,16.43 C 7.18,17.05 7.24,17.41 6.15,16.65 L 4.78,17.34 C 4.88,17.47 4.96,17.61 5.09,17.75 C 7.06,18.65 12.53,23.97 7.5,20.62 C 5.96,18.86 3.46,18.09 6.37,20.37 C 7.71,22.57 14.03,24.18 9.93,20.84 C 8.52,20.07 4.34,16.33 8.31,18.81 C 9.39,19.53 11.45,21.43 13.12,22.43 L 14.43,21.37 C 13.15,19.77 12.19,17.69 15.15,19.68 C 15.37,19.92 15.59,20.12 15.81,20.28 L 17.59,18.87 C 17.43,18.69 17.24,18.53 17,18.34 C 15.48,16.37 18.87,18.72 18.68,16.90 C 19.06,17.10 19.37,17.22 19.62,17.28 L 20.53,16.56 C 20.50,16.11 20.29,15.58 20.06,15.21 C 20.34,15.58 20.71,15.87 21.09,16.09 L 21.56,15.75 C 21.36,15.60 21.16,15.41 20.90,15.18 C 19.99,14.53 17.24,11.68 16.37,11.12 z M 10.5,15.25 C 12.18,16.98 16.50,18.72 16.18,19.71 C 14.10,18.49 12.07,17.09 10.5,15.25 z" id="p5504" style="fill:#b58d3f;fill-opacity:0.47;fill-rule:evenodd;stroke:none;"/>
<path d="M 21.28,8.59 L 21.06,8.81 L 20.65,8.68 L 20.93,9.15 L 20.43,9.15 L 20.37,9.18 C 20.33,9.30 20.17,9.32 20,9.31 L 19.37,9.53 C 21.72,10.47 25.69,14.43 21.25,11.21 C 20.55,10.68 19.89,10.11 19.21,9.56 L 18.75,9.71 C 19.62,11.44 23.21,12.68 24.09,13.75 L 25.03,13 C 24.96,12.89 24.91,12.80 24.84,12.65 C 24.98,12.71 25.08,12.80 25.18,12.87 L 25.84,12.37 C 24.90,11.05 23.32,9.70 22.18,9.37 C 21.88,9.11 21.59,8.84 21.28,8.59 z M 21.09,9.12 C 23.19,10.49 22.88,11.32 21.09,9.12 z M 18.12,10.12 L 18,10.18 C 18.96,11.01 18.53,11.64 17.53,10.53 L 17.15,10.75 C 18.36,12.05 21.68,13.46 22.96,14.65 L 23.5,14.21 C 21.87,13.43 19.98,10.94 18.56,10.12 L 18.53,10.40 L 18.12,10.12 z M 15,12.37 C 15.09,12.58 15.16,12.72 15.25,12.87 C 15.29,12.79 15.46,12.83 15.68,12.90 C 15.52,12.72 15.32,12.52 15,12.37 z M 15.68,12.90 C 16.25,13.55 15.92,14.11 15.25,12.87 C 15.16,13.02 15.49,13.50 16.56,14.46 C 17.93,15.09 19.46,16.86 19.40,17.43 L 20.75,16.37 C 20.45,16.26 19.94,15.95 19.15,15.40 C 18.46,14.37 16.55,13.17 15.68,12.90 z M 17.65,12.37 C 17.50,12.39 17.49,12.63 17.71,13.12 C 18.87,13.72 20.72,15.50 21.03,16.15 L 21.90,15.46 C 20.40,14.35 18.17,12.29 17.65,12.37 z M 12.71,13.34 L 12.25,13.56 C 12.50,13.84 12.84,14.22 13.37,14.75 C 15.19,15.54 18.52,20.69 14.68,17.5 C 14.25,16.42 12.29,14.80 11.15,14.12 L 10.65,14.37 C 10.82,14.60 11.04,14.86 11.40,15.25 C 13.83,15.97 16.80,22.07 12.56,18.75 C 11.92,17.77 10.09,16.07 8.96,15.21 L 8.46,15.46 C 8.66,15.73 8.89,16.00 9.28,16.43 C 11.00,17.09 14.08,22.08 10.68,18.93 C 10.07,18.20 9.05,16.84 7.96,15.71 L 7.37,16.03 C 7.91,16.73 7.94,17.09 7,16.21 L 6.53,16.46 C 8.43,17.86 10.60,19.25 9.68,20.31 C 8.34,19.90 6.63,18.35 5.12,17.15 L 4.62,17.43 C 6.65,18.38 9.15,22.08 5.93,18.87 C 5.46,18.40 4.97,17.93 4.46,17.5 L 3.65,17.90 C 5.98,19.98 9.33,22.29 7.93,23 C 6.18,21.34 0.47,16.27 4.71,20.84 C 5.71,22.71 10.80,25.52 9.03,21.93 C 11.14,23.62 8.19,19.67 10.93,21.09 C 12.27,20.99 13.81,21.26 14.90,21 L 16.18,20 C 16.27,19.75 16.30,19.47 16.31,19.12 C 16.53,19.27 16.70,19.37 16.87,19.46 L 17.62,18.84 C 17.05,17.45 15.35,15.18 18.03,18.12 C 18.15,18.17 18.26,18.21 18.37,18.25 L 19.15,17.62 C 18.85,17.62 18.24,17.37 17.21,16.68 C 16.35,15.94 14.01,14.15 12.71,13.34 z" id="p5521" style="fill:#dacc91;fill-opacity:0.41;fill-rule:evenodd;stroke:none;"/>
<path d="M 2.71,20.15 L 2.56,20.59 L 2.53,21.21 C 3.96,22.28 6.05,24.36 6.18,24.71 C 4.58,24.06 6.60,26.21 5.40,25 C 4.58,24.47 3.19,23.24 2.25,22.71 L 2.06,22.87 L 2.28,23.28 C 3.72,24.38 5.38,25.22 6.78,26.40 C 7.05,26.69 7.53,27.02 8,27.28 L 8.43,26.84 C 8.39,26.80 8.38,26.78 8.34,26.75 C 6.63,25.40 5.94,23.30 4.12,22.09 C 5.97,22.92 7.88,24.28 9.84,25.34 L 10.25,24.90 C 9.34,24.44 8.34,23.96 8.03,23.71 C 6.21,22.58 4.52,21.29 2.71,20.15 z M 2.90,20.65 C 4.18,21.32 3.78,21.87 2.90,20.65 z" id="p5541" style="fill:#3d2304;fill-opacity:0.34;fill-rule:evenodd;stroke:none;"/>
<path d="M 7.98,27.27 L 3.44,25.13 L 4.13,25.06 L 3.85,24.65 L 2.61,23.96 L 2.06,22.86 L 2.47,22.52 L 2.54,20.59 L 2.75,20.11 L 2.13,19.21 L 2.47,19.42 L 2.75,18.38 L 12.94,13.22 L 13.91,12.67 L 14.25,12.67 L 14.25,12.19 L 15.90,11.50 L 16.32,11.15 L 17.14,10.74 L 18.11,10.12 L 18.52,10.40 L 18.59,9.78 L 20.45,9.16 L 20.93,9.16 L 20.65,8.67 L 21.07,8.81 L 21.34,8.54 L 22.86,9.23 L 22.03,8.54 L 22.24,8.54 L 26.85,11.57 L 11.08,24.03 L 7.98,27.27 z" id="stroke02" style="fill:none;fill-opacity:1;fill-rule:evenodd;stroke:#1a170b;stroke-width:0.40;stroke-linecap:butt;stroke-linejoin:miter;stroke-miterlimit:4;stroke-dasharray:none;stroke-opacity:1;display:inline"/>
<path d="M 8.28,24.96 C 8.28,25.17 8.14,25.35 7.97,25.35 C 7.80,25.35 7.66,25.17 7.66,24.96 C 7.66,24.75 7.80,24.58 7.97,24.58 C 8.14,24.58 8.28,24.75 8.28,24.96 z" id="p4649" style="fill:#ffffff;fill-opacity:1;fill-rule:evenodd;stroke:none;marker:none;visibility:visible;display:inline;overflow:visible;enable-background:accumulate"/>
<path d="M 7.95,21.90 C 7.80,22.24 7.85,27.13 7.92,27.30 C 7.99,27.47 11.78,30.17 11.85,30.26 C 11.92,30.36 11.95,30.48 12.11,30.53 C 12.28,30.58 12.55,30.67 13.01,30.43 C 13.46,30.19 16.74,27.97 16.74,27.97 C 16.74,27.97 16.81,28.46 17.00,28.53 C 17.20,28.60 17.27,28.65 17.34,28.62 C 17.41,28.60 17.73,28.43 18.52,27.88 C 19.32,27.32 21.49,25.76 21.61,25.64 C 21.73,25.52 21.82,25.37 21.82,25.25 C 21.82,25.13 21.85,24.48 21.85,24.48 C 21.85,24.48 21.99,24.53 22.26,24.53 C 22.52,24.53 22.64,24.38 22.91,24.41 C 23.17,24.43 24.33,25.18 25.27,25.90 C 26.21,26.62 29.08,28.84 30.35,29.73 C 31.63,30.62 36.40,33.51 38.66,34.70 C 40.93,35.88 42.13,36.89 43.05,36.77 C 43.97,36.65 45.51,34.21 45.24,33.44 C 44.98,32.67 43.46,32.09 42.81,31.64 C 42.16,31.18 39.17,28.99 37.94,28.24 C 36.71,27.49 33.36,25.56 31.48,24.65 C 29.61,23.73 25.68,21.85 25.68,21.85 C 25.68,21.85 27.73,20.65 28.35,20.22 C 28.98,19.78 30.04,19.11 30.11,18.96 C 30.18,18.82 30.93,14.60 30.93,14.60 C 30.93,14.60 31.08,13.83 30.91,13.59 C 30.74,13.35 30.62,13.32 30.52,13.32 C 30.42,13.32 30.47,13.49 30.16,13.23 C 29.85,12.96 26.74,11.37 26.62,11.28 C 26.50,11.18 21.08,14.12 20.45,14.43 C 19.82,14.75 18.93,15.32 18.14,15.76 C 17.34,16.19 8.04,21.61 7.95,21.90 z" id="p5161" style="fill:#3c2e2c;fill-opacity:1;fill-rule:evenodd;stroke:none;"/>
<path d="M 20.53,18.59 L 10.90,24.5 L 11.18,29.81 C 11.36,29.94 11.83,30.26 11.84,30.28 C 11.91,30.37 11.95,30.48 12.12,30.53 C 12.29,30.57 12.54,30.67 13,30.43 C 13.45,30.19 16.75,27.96 16.75,27.96 C 16.75,27.96 16.80,28.45 17,28.53 C 17.19,28.60 17.27,28.64 17.34,28.62 C 17.41,28.60 17.73,28.42 18.53,27.87 C 19.32,27.32 21.50,25.77 21.62,25.65 C 21.74,25.53 21.84,25.37 21.84,25.25 C 21.84,25.12 21.84,24.5 21.84,24.5 C 21.84,24.49 21.98,24.53 22.25,24.53 C 22.51,24.53 22.64,24.38 22.90,24.40 C 22.94,24.41 23.04,24.46 23.12,24.5 L 23.12,23.37 C 23.12,21.50 20.53,18.59 20.53,18.59 z" id="p5298" style="fill:#19100f;fill-opacity:0.55;fill-rule:evenodd;stroke:none;display:inline"/>
<path d="M 18.20,21.31 C 15.85,23.59 14.06,24.90 14.20,25.31 C 14.33,25.73 14.82,26.83 15.23,26.83 C 15.64,26.83 18.54,24.00 18.88,24.00 C 19.23,24.00 20.26,25.52 20.26,25.52 L 23.71,21.52 C 23.71,21.52 24.12,20.83 23.92,20.14 C 23.71,19.45 23.50,19.04 23.02,19.11 C 22.54,19.18 18.33,21.59 18.20,21.31 z" id="p5286" style="fill:#070503;fill-opacity:0.50;fill-rule:evenodd;stroke:none;display:inline"/>
<path d="M 26.62,11.28 C 26.50,11.18 21.09,14.12 20.46,14.43 C 19.84,14.75 18.95,15.31 18.15,15.75 C 17.36,16.18 8.03,21.61 7.93,21.90 C 7.79,22.24 7.86,27.14 7.93,27.31 C 8.00,27.48 11.77,30.18 11.84,30.28 C 11.89,29.34 12.09,25.39 12.09,25.06 C 12.09,24.68 12.01,24.59 12.81,24.12 C 13.61,23.65 18.82,20.42 19.71,19.90 C 20.50,19.45 28.48,14.65 30.62,13.37 C 30.59,13.36 30.56,13.34 30.53,13.34 C 30.43,13.34 30.46,13.48 30.15,13.21 C 29.84,12.95 26.74,11.37 26.62,11.28 z" id="p5166" style="fill:#e8dbca;fill-opacity:1;fill-rule:evenodd;stroke:none;display:inline"/>
<path d="M 8.82,22.40 C 8.67,22.83 8.76,25.17 8.70,25.28 C 8.64,25.40 8.70,25.54 8.73,25.97 C 8.76,26.41 8.82,27.27 8.70,27.88" id="p5363" style="opacity:1;fill:none;fill-opacity:1;fill-rule:evenodd;stroke:#874f26;stroke-width:0.2;stroke-linecap:butt;stroke-linejoin:miter;marker:none;stroke-miterlimit:4;stroke-dasharray:none;stroke-dashoffset:0;stroke-opacity:0.40;visibility:visible;display:inline;overflow:visible;enable-background:accumulate"/>
<path d="M 9.31,22.72 C 9.19,23.09 9.16,25.60 9.16,25.60 C 9.16,25.60 9.16,25.77 9.19,26.12 C 9.22,26.46 9.31,27.67 9.25,28.25" id="p5365" style="opacity:1;fill:none;fill-opacity:1;fill-rule:evenodd;stroke:#874f26;stroke-width:0.2;stroke-linecap:butt;stroke-linejoin:miter;marker:none;stroke-miterlimit:4;stroke-dasharray:none;stroke-dashoffset:0;stroke-opacity:0.40;visibility:visible;display:inline;overflow:visible;enable-background:accumulate"/>
<path d="M 16.20,23.31 C 15.58,23.80 16.27,25.45 16.54,25.45 C 16.82,25.45 19.02,24.00 19.02,24.00 L 19.78,25.18 L 23.78,21.25 C 23.78,21.25 23.64,19.11 23.30,19.11 C 22.95,19.11 20.06,20.56 20.06,20.56 L 16.20,23.31 z" id="p5289" style="fill:#070503;fill-opacity:0.79;fill-rule:evenodd;stroke:none;display:inline"/>
<path d="M 8.38,22.08 C 8.21,22.43 8.21,24.76 8.21,24.76 C 8.21,24.76 8.21,25.48 8.24,25.77 C 8.27,26.06 8.35,27.10 8.18,27.50" id="p5361" style="opacity:1;fill:none;fill-opacity:1;fill-rule:evenodd;stroke:#874f26;stroke-width:0.2;stroke-linecap:butt;stroke-linejoin:miter;marker:none;stroke-miterlimit:4;stroke-dasharray:none;stroke-dashoffset:0;stroke-opacity:0.40;visibility:visible;display:inline;overflow:visible;enable-background:accumulate"/>
<path d="M 11.47,24.27 C 11.27,24.68 11.18,27.13 11.18,27.13 C 11.18,27.13 11.18,27.53 11.24,27.76 C 11.29,27.99 11.41,28.05 11.27,29.81" id="p5367" style="opacity:1;fill:none;fill-opacity:1;fill-rule:evenodd;stroke:#874f26;stroke-width:0.2;stroke-linecap:butt;stroke-linejoin:miter;marker:none;stroke-miterlimit:4;stroke-dasharray:none;stroke-dashoffset:0;stroke-opacity:0.40;visibility:visible;display:inline;overflow:visible;enable-background:accumulate"/>
<path d="M 7.86,24.85 L 11.90,27.82" id="p5373" style="fill:none;fill-rule:evenodd;stroke:#765241;stroke-width:0.60;stroke-linecap:round;stroke-linejoin:miter;stroke-miterlimit:4;stroke-dasharray:none;stroke-opacity:0.88;display:inline"/>
<path d="M 26.62,11.28 C 26.50,11.18 21.09,14.12 20.46,14.43 C 19.84,14.75 18.95,15.31 18.15,15.75 C 17.76,15.96 15.28,17.41 12.87,18.84 C 11.88,19.43 11.01,19.93 10.18,20.43 C 9.99,20.55 9.73,20.70 9.56,20.81 C 9.53,20.82 9.49,20.85 9.46,20.87 C 9.06,21.12 8.69,21.36 8.43,21.53 C 8.24,21.65 8.17,21.71 8.09,21.78 C 8.06,21.80 7.97,21.86 7.96,21.87 L 8.31,22.15 C 8.31,22.15 8.27,22.29 8.34,22.34 C 8.41,22.39 8.62,22.37 8.62,22.37 L 8.75,22.46 C 8.75,22.46 8.63,22.61 8.81,22.68 C 8.98,22.75 9.12,22.71 9.12,22.71 L 9.25,22.78 C 9.25,22.78 9.18,22.97 9.34,23.03 C 9.50,23.08 9.65,23.06 9.65,23.06 L 11.34,24.25 L 12.09,24.78 C 12.11,24.59 12.24,24.45 12.81,24.12 C 13.61,23.65 18.82,20.42 19.71,19.90 C 20.50,19.45 28.48,14.65 30.62,13.37 C 30.59,13.36 30.56,13.34 30.53,13.34 C 30.43,13.34 30.46,13.48 30.15,13.21 C 29.84,12.95 26.74,11.37 26.62,11.28 z" id="p5168" style="fill:#4e555c;fill-opacity:1;fill-rule:evenodd;stroke:none;"/>
<path d="M 23.62,19.93 C 23.22,19.98 22.67,20.26 22,21 C 20.64,22.47 21.18,23.82 21.37,25.06 L 21.78,25.34 C 21.79,25.30 21.84,25.28 21.84,25.25 C 21.84,25.12 21.84,24.5 21.84,24.5 C 21.84,24.49 21.98,24.53 22.25,24.53 C 22.51,24.53 22.64,24.38 22.90,24.40 C 23.17,24.43 24.34,25.18 25.28,25.90 C 26.22,26.62 29.06,28.85 30.34,29.75 C 31.62,30.64 36.39,33.50 38.65,34.68 C 40.92,35.86 42.14,36.90 43.06,36.78 C 43.97,36.66 45.51,34.20 45.25,33.43 C 44.98,32.66 43.46,32.11 42.81,31.65 C 42.16,31.19 39.16,28.99 37.93,28.25 C 36.70,27.50 33.37,25.57 31.5,24.65 C 29.66,23.76 25.97,21.98 25.81,21.90 C 25.80,21.90 25.68,21.84 25.68,21.84 L 24.90,21.37 C 24.90,21.37 24.88,20.59 24.5,20.25 C 24.30,20.07 24.02,19.89 23.62,19.93 z" id="p5175" style="fill:#161c1a;fill-opacity:0.81;fill-rule:evenodd;stroke:none;display:inline"/>
<path d="M 23.03,20.15 C 22.72,20.31 22.39,20.57 22,21 C 20.64,22.47 21.18,23.82 21.37,25.06 L 21.78,25.34 C 21.79,25.30 21.84,25.28 21.84,25.25 C 21.84,25.12 21.84,24.5 21.84,24.5 C 21.84,24.49 21.98,24.53 22.25,24.53 C 22.51,24.53 22.64,24.38 22.90,24.40 C 23.17,24.43 24.34,25.18 25.28,25.90 C 26.22,26.62 29.06,28.85 30.34,29.75 C 31.62,30.64 36.39,33.50 38.65,34.68 C 40.71,35.76 41.92,36.70 42.81,36.78 C 43.02,35.79 43.94,34.05 43.71,33.37 C 43.40,32.42 41.20,32.03 39.31,30.56 C 37.42,29.09 25.85,22.77 24.59,21.93 C 23.33,21.09 23.03,20.15 23.03,20.15 z" id="p5170" style="fill:#de8034;fill-opacity:0.12;fill-rule:evenodd;stroke:none;display:inline"/>
<path d="M 21.68,21.37 C 21.13,22.14 21.05,22.89 21.12,23.59 C 21.23,23.66 21.33,23.74 21.46,23.81 C 22.43,24.31 22.58,23.65 23.43,24 C 24.28,24.34 29.71,28.50 31.65,29.78 C 33.59,31.05 37.43,33.55 40.03,34.90 C 41.20,35.51 42.04,36.18 42.62,36.75 C 42.78,36.78 42.92,36.79 43.06,36.78 C 43.42,36.73 43.87,36.31 44.28,35.78 C 44.37,35.18 44.37,34.62 44.12,34.31 C 43.42,33.46 43.43,34.37 43.12,34.37 C 42.81,34.37 39.90,32.78 39.43,32.43 C 38.97,32.08 32.56,28.17 31.43,27.43 C 30.31,26.70 23.93,22.45 23.46,22.18 C 23.00,21.91 21.96,21.81 21.96,21.81 C 21.96,21.81 21.87,21.70 21.68,21.37 z" id="p5178" style="fill:#080707;fill-opacity:0.53;fill-rule:evenodd;stroke:none;display:inline"/>
<path d="M 22.18,20.81 C 22.12,20.87 22.06,20.92 22,21 C 21.32,21.73 21.10,22.44 21.09,23.12 C 21.09,23.12 21.08,23.15 21.09,23.15 C 22.19,23.95 22.50,22.66 24.40,24.06 C 26.73,25.77 33.58,30.65 38.56,33.53 C 41.05,34.96 41.96,35.89 42.28,36.62 C 42.28,36.62 42.27,36.65 42.28,36.65 C 42.56,36.76 42.82,36.81 43.06,36.78 C 43.96,36.66 45.47,34.26 45.25,33.46 C 44.79,33.75 44.36,34.08 44.09,34.25 C 43.08,34.87 41.82,34.07 40.5,33.37 C 39.17,32.67 39.18,31.59 38.56,31.28 C 37.94,30.97 25.25,22.73 23.93,22.03 C 22.97,21.52 22.73,21.39 22.18,20.81 z" id="p5203" style="fill:#080707;fill-opacity:0.28;fill-rule:evenodd;stroke:none;display:inline"/>
<path d="M 35.11,28.43 C 34.25,29.71 37.03,30.24 37.64,30.49 C 38.24,30.74 39.17,31.31 39.63,31.92 C 40.10,32.53 39.38,31.31 39.13,30.78 C 38.88,30.24 37.39,29.25 36.96,29.03 C 36.53,28.82 35.39,27.89 35.11,28.43 z" id="p5209" style="fill:#f4e081;fill-opacity:0.07;fill-rule:evenodd;stroke:none;display:inline"/>
<path d="M 37.48,29.60 C 37.17,29.66 37.21,29.83 37.14,29.98 C 37.03,30.23 37.43,30.36 38.04,30.54 C 38.44,30.66 38.97,30.97 39.12,31.28 C 39.62,32.25 40.20,33.10 41.03,33.34 C 41.81,33.56 42.87,33.56 43.15,33.56 L 43.15,33.28 C 42.87,33.28 41.80,33.26 41.09,33.06 C 40.42,32.87 39.73,31.93 39.37,31.15 C 39.01,30.37 38.46,30.39 37.98,29.87 C 37.68,29.68 37.66,29.57 37.48,29.60 z" id="p5212" style="fill:#c98e1e;fill-opacity:0.10;fill-rule:evenodd;stroke:none;display:inline"/>
<path d="M 39.62,29.40 C 39.52,29.58 39.42,29.99 39.43,30.21 C 39.46,30.57 39.47,31.33 39.71,31.81 C 39.95,32.29 40.89,33.39 42.18,33.34 C 43.48,33.29 44.24,32.99 43.71,32.46 C 43.63,32.38 43.54,32.23 43.5,32.06 C 43.23,31.92 42.98,31.78 42.81,31.65 C 42.38,31.35 40.91,30.31 39.62,29.40 z" id="p5222" style="fill:#0a0c10;fill-opacity:0.86;fill-rule:evenodd;stroke:none;display:inline"/>
<path d="M 37.68,28.09 C 36.03,28.25 38.31,29.13 38.59,29.40 C 38.91,29.71 39.28,31.27 40.09,32.15 C 39.99,31.02 40.30,30.48 40.75,30.18 C 39.70,29.44 38.59,28.65 37.93,28.25 C 37.88,28.21 37.74,28.13 37.68,28.09 z" id="p5228" style="fill:#0a0c10;fill-opacity:0.59;fill-rule:evenodd;stroke:none;display:inline"/>
<path d="M 40.25,32.73 C 40.61,33.01 40.85,33.15 41.17,33.26" id="p5234" style="fill:none;fill-rule:evenodd;stroke:#f7dd35;stroke-width:0.30;stroke-linecap:round;stroke-linejoin:miter;stroke-miterlimit:4;stroke-dasharray:none;stroke-opacity:0.14;display:inline"/>
<path d="M 40.40,29.93 L 40.12,30.15 C 39.58,30.66 39.69,31.54 39.87,31.87 C 40.05,32.20 40.26,32.62 40.40,32.59 C 40.55,32.55 40.84,31.96 40.84,31.78 C 40.84,31.60 40.49,31.29 40.56,30.96 C 40.59,30.80 40.75,30.53 40.90,30.31 C 40.91,30.30 40.89,30.29 40.90,30.28 C 40.71,30.14 40.60,30.07 40.40,29.93 z" id="p5237" style="fill:#697792;fill-opacity:0.35;fill-rule:evenodd;stroke:none;display:inline"/>
<path d="M 41.87,31 C 42.02,31.55 42.02,32.13 42,32.34 C 41.96,32.66 41.78,33.18 41.78,33.18 C 41.78,33.18 42.13,32.30 42.53,32.12 C 42.67,32.06 42.96,31.98 43.28,31.93 C 43.11,31.84 42.93,31.74 42.81,31.65 C 42.67,31.56 42.17,31.21 41.87,31 z" id="p5240" style="fill:#806840;fill-opacity:0.35;fill-rule:evenodd;stroke:none;display:inline"/>
<path d="M 44.93,33 C 44.43,33.23 44.16,33.44 44.03,34.15 C 43.85,35.13 43.35,35.52 43.35,35.59 C 43.35,35.64 44.16,35.30 44.78,35 C 45.12,34.37 45.36,33.76 45.25,33.43 C 45.19,33.28 45.07,33.13 44.93,33 z" id="p5246" style="fill:#616e6f;fill-opacity:0.26;fill-rule:evenodd;stroke:none;display:inline"/>
<path d="M 45.25,33.40 C 44.84,33.52 44.19,34.20 43.53,35.31 C 43.06,36.09 42.92,36.57 43.03,36.78 C 43.03,36.78 43.06,36.77 43.06,36.78 C 43.97,36.66 45.51,34.20 45.25,33.43 C 45.24,33.42 45.25,33.41 45.25,33.40 z" id="p5243" style="fill:#b06c4b;fill-opacity:0.26;fill-rule:evenodd;stroke:none;display:inline"/>
<path d="M 40.43,29.93 C 39.98,30.31 39.73,30.64 39.78,31.12 C 39.84,31.73 40,31.87 40,31.87 C 39.99,31.87 40.86,31.44 41.15,31.09 C 41.22,31.00 41.33,30.85 41.46,30.68 C 41.08,30.41 40.88,30.25 40.43,29.93 z" id="p5261" style="fill:#738884;fill-opacity:0.26;fill-rule:evenodd;stroke:none;"/>
<path d="M 23.62,19.93 C 23.43,19.95 23.19,20.06 22.93,20.21 L 23.25,20.43 C 23.25,20.43 22.56,21.07 22.28,21.40 C 22.00,21.73 21.75,22.21 21.75,22.21 L 22.37,22.5 C 23.12,21.37 23.54,21.14 23.59,21.09 C 23.64,21.04 24.25,21.65 24.43,21.65 C 24.58,21.65 24.67,21.46 24.90,21.37 C 24.90,21.37 24.88,20.59 24.5,20.25 C 24.30,20.07 24.02,19.89 23.62,19.93 z" id="p5266" style="fill:#292219;fill-opacity:1;fill-rule:evenodd;stroke:none;display:inline"/>
<path d="M 24,20.18 C 23.86,20.20 23.73,20.25 23.59,20.31 L 23.59,20.62 C 23.59,20.62 24.20,20.48 24.53,20.90 C 24.85,21.32 24.90,21.46 24.90,21.46 L 25,21.43 L 24.90,21.37 C 24.90,21.37 24.88,20.59 24.5,20.25 C 24.49,20.24 24.47,20.22 24.46,20.21 C 24.32,20.19 24.16,20.17 24,20.18 z" id="p5269" style="fill:#697792;fill-opacity:0.35;fill-rule:evenodd;stroke:none;display:inline"/>
<path d="M 22.08,21.60 C 22.47,21.00 23.04,20.61 23.04,20.61" id="p5280" style="fill:none;fill-rule:evenodd;stroke:#916e3f;stroke-width:0.2;stroke-linecap:round;stroke-linejoin:miter;stroke-miterlimit:4;stroke-dasharray:none;stroke-opacity:0.35;display:inline"/>
<path d="M 23.42,20.93 C 23.14,21.14 22.75,21.74 22.75,21.74 C 22.75,21.74 23.18,21.84 23.39,21.95 C 23.60,22.06 23.88,22.16 24.02,21.95 C 24.17,21.74 23.92,21.60 23.74,21.42 C 23.57,21.24 23.42,20.89 23.42,20.93 z" id="p5283" style="fill:#ba8f63;fill-opacity:0.22;fill-rule:evenodd;stroke:none;display:inline"/>
<path d="M 20.07,20.39 L 20.89,19.87" id="p5352" style="fill:none;fill-rule:evenodd;stroke:#6e8fa2;stroke-width:0.2;stroke-linecap:round;stroke-linejoin:miter;stroke-miterlimit:4;stroke-dasharray:none;stroke-opacity:0.74;display:inline"/>
<path d="M 21.96,19.22 L 26.82,16.32" id="p5354" style="fill:none;fill-rule:evenodd;stroke:#8ca9b9;stroke-width:0.2;stroke-linecap:round;stroke-linejoin:miter;stroke-miterlimit:4;stroke-dasharray:none;stroke-opacity:0.74;display:inline"/>
<path d="M 27.48,15.88 L 30.89,13.81" id="p5356" style="fill:none;fill-rule:evenodd;stroke:#bcdef1;stroke-width:0.2;stroke-linecap:round;stroke-linejoin:miter;stroke-miterlimit:4;stroke-dasharray:none;stroke-opacity:0.74;display:inline"/>
<path d="M 8.01,25.08 L 11.64,27.73" id="p5376" style="fill:#e8dbca;fill-opacity:1;fill-rule:evenodd;stroke:#e9dfbf;stroke-width:0.30;stroke-linecap:round;stroke-linejoin:miter;stroke-miterlimit:4;stroke-dasharray:none;stroke-opacity:1;display:inline"/>
<path d="M 12.09,30.36 C 12.09,30.36 12.25,24.86 12.33,24.73 C 12.41,24.59 30.84,13.47 30.84,13.47" id="p5341" style="fill:none;fill-rule:evenodd;stroke:#080909;stroke-width:0.80;stroke-linecap:butt;stroke-linejoin:round;stroke-miterlimit:4;stroke-dasharray:none;stroke-opacity:1"/>
<path d="M 24.15,12.5 C 22.58,13.32 20.81,14.26 20.46,14.43 C 19.84,14.75 18.95,15.31 18.15,15.75 C 17.77,15.95 15.38,17.34 13.06,18.71 C 13.37,19.37 13.70,19.60 14.15,19.65 C 15.20,19.77 16.49,19.68 16.37,20.5 C 16.33,20.78 16.54,21.22 16.81,21.68 C 18.06,20.91 19.34,20.12 19.71,19.90 C 20.23,19.60 23.82,17.46 26.84,15.65 C 26.80,14.37 26.13,13.13 24.15,12.5 z" id="p5379" style="fill:#c3c7cc;fill-opacity:0.22;fill-rule:evenodd;stroke:none;display:inline"/>
<path d="M 21.56,13.87 C 21.24,14.04 20.57,14.38 20.46,14.43 C 19.84,14.75 18.95,15.31 18.15,15.75 C 17.97,15.84 16.60,16.67 15.78,17.15 C 16.16,18.02 16.80,18.75 17.31,18.75 C 17.94,18.75 19.28,19.00 19.96,19.75 C 20.49,19.44 22.91,18.00 25.15,16.65 C 24.91,15.66 23.96,14.64 21.56,13.87 z" id="p5381" style="fill:#c3c7cc;fill-opacity:0.32;fill-rule:evenodd;stroke:none;display:inline"/>
<path d="M 18.03,15.84 C 17.82,15.95 16.57,16.67 15.81,17.12 C 16.18,18.58 16.12,20.32 15.43,20.37 C 14.95,20.40 14.51,19.18 14.12,18.09 C 13.57,18.41 13.44,18.50 12.87,18.84 C 11.88,19.43 11.01,19.93 10.18,20.43 C 9.99,20.55 9.73,20.70 9.56,20.81 C 9.53,20.82 9.49,20.85 9.46,20.87 C 9.06,21.12 8.69,21.36 8.43,21.53 C 8.24,21.65 8.17,21.71 8.09,21.78 C 8.06,21.80 7.97,21.86 7.96,21.87 L 8.31,22.15 C 8.31,22.15 8.27,22.29 8.34,22.34 C 8.41,22.39 8.62,22.37 8.62,22.37 L 8.75,22.46 C 8.75,22.46 8.63,22.61 8.81,22.68 C 8.98,22.75 9.12,22.71 9.12,22.71 L 9.25,22.78 C 9.25,22.78 9.18,22.97 9.34,23.03 C 9.50,23.08 9.65,23.06 9.65,23.06 L 11.34,24.25 L 12.09,24.78 C 12.11,24.59 12.24,24.45 12.81,24.12 C 13.58,23.67 18.38,20.69 19.5,20.03 C 18.91,19.03 18.18,17.49 18.03,15.84 z" id="p5416" style="fill:#212828;fill-opacity:0.43;fill-rule:evenodd;stroke:none;"/>
<path d="M 29.71,12.93 C 23.69,16.54 17.64,20.13 11.62,23.75 C 11.16,24.35 11.70,24.33 12.15,24.03 C 18.17,20.43 24.20,16.84 30.21,13.25 C 30.19,13.23 30.19,13.24 30.15,13.21 C 30.10,13.17 29.90,13.04 29.71,12.93 z" id="p5391" style="fill:#eaeeee;fill-opacity:0.96;fill-rule:evenodd;stroke:none;display:inline"/>
<path d="M 8.35,22.26 C 8.89,21.91 18.14,16.39 19.26,15.80 C 20.39,15.21 27.09,11.53 27.09,11.53" id="p5402" style="fill:none;fill-rule:evenodd;stroke:#e3ebeb;stroke-width:0.30;stroke-linecap:butt;stroke-linejoin:miter;stroke-miterlimit:4;stroke-dasharray:none;stroke-opacity:0.83"/>
<path d="M 8.83,22.53 C 9.36,22.18 18.61,16.66 19.74,16.07 C 20.86,15.48 27.56,11.80 27.56,11.80" id="p5404" style="fill:none;fill-rule:evenodd;stroke:#e6f3f3;stroke-width:0.30;stroke-linecap:round;stroke-linejoin:miter;stroke-miterlimit:4;stroke-dasharray:none;stroke-opacity:0.84;display:inline"/>
<path d="M 9.36,22.77 C 9.90,22.41 19.14,16.90 20.27,16.31 C 21.40,15.71 28.10,12.04 28.10,12.04" id="p5406" style="fill:none;fill-rule:evenodd;stroke:#e5ecec;stroke-width:0.30;stroke-linecap:round;stroke-linejoin:miter;stroke-miterlimit:4;stroke-dasharray:none;stroke-opacity:0.83;display:inline"/>
<path d="M 8.34,21.68 C 8.20,21.70 8.07,21.72 7.93,21.75 C 7.99,22.00 8.02,22.34 8.27,22.45 C 8.41,22.52 8.62,22.11 8.71,22.65 C 8.84,22.76 9.02,22.48 9.07,22.95 C 9.15,23.10 9.31,23.03 9.5,23.02 C 9.59,23.07 9.85,23.40 9.99,23.51 C 10.42,23.82 10.87,24.12 11.31,24.43 C 11.40,24.43 11.47,24.26 11.54,24.33 C 11.60,24.55 11.84,24.69 12.01,24.79 C 12.11,24.84 12.17,24.78 12.27,24.68 C 12.86,24.42 12.05,24.53 11.89,24.42 C 11.70,24.38 11.74,23.94 11.50,23.98 C 11.31,24.08 11.18,24.00 11.03,23.91 C 10.59,23.59 9.99,23.22 9.66,22.84 C 9.47,22.84 9.35,22.71 9.29,22.53 C 9.16,22.39 8.95,22.75 8.92,22.20 C 8.81,22.03 8.62,22.53 8.46,22.06 C 8.42,21.93 8.36,21.81 8.34,21.68 z" id="p5408" style="fill:#222929;fill-opacity:0.97;fill-rule:evenodd;stroke:none;display:inline"/>
<path d="M 9.36,22.77 C 9.90,22.41 19.14,16.90 20.27,16.31" id="p5436" style="fill:none;fill-rule:evenodd;stroke:#3e4242;stroke-width:0.2;stroke-linecap:round;stroke-linejoin:miter;stroke-miterlimit:4;stroke-dasharray:none;stroke-opacity:0.34;display:inline"/>
<path d="M 9.02,22.43 C 9.55,22.08 18.80,16.56 19.92,15.97" id="p5438" style="fill:none;fill-rule:evenodd;stroke:#3e4242;stroke-width:0.2;stroke-linecap:round;stroke-linejoin:miter;stroke-miterlimit:4;stroke-dasharray:none;stroke-opacity:0.34;display:inline"/>
<path d="M 8.49,22.18 C 9.02,21.83 18.27,16.31 19.40,15.72" id="p5440" style="fill:none;fill-rule:evenodd;stroke:#3e4242;stroke-width:0.2;stroke-linecap:round;stroke-linejoin:miter;stroke-miterlimit:4;stroke-dasharray:none;stroke-opacity:0.34;display:inline"/>
<path d="M 8.66,22.02 L 8.78,21.91" id="p5427" style="fill:none;fill-rule:evenodd;stroke:#f4f5f6;stroke-width:0.2;stroke-linecap:round;stroke-linejoin:miter;stroke-miterlimit:4;stroke-dasharray:none;stroke-opacity:0.94;display:inline"/>
<path d="M 9.12,22.39 L 9.27,22.24" id="p5429" style="fill:none;fill-rule:evenodd;stroke:#f4f5f6;stroke-width:0.2;stroke-linecap:round;stroke-linejoin:miter;stroke-miterlimit:4;stroke-dasharray:none;stroke-opacity:0.94;display:inline"/>
<path d="M 9.65,22.69 L 9.80,22.53" id="p5431" style="fill:none;fill-rule:evenodd;stroke:#f4f5f6;stroke-width:0.2;stroke-linecap:round;stroke-linejoin:miter;stroke-miterlimit:4;stroke-dasharray:none;stroke-opacity:0.94;display:inline"/>
<path d="M 11.67,23.97 L 20.38,18.79" id="p5442" style="fill:none;fill-rule:evenodd;stroke:#182323;stroke-width:0.30;stroke-linecap:round;stroke-linejoin:miter;stroke-miterlimit:4;stroke-dasharray:none;stroke-opacity:0.79"/>
<path d="M 26.19,15.29 L 29.80,13.11" id="p5444" style="fill:none;fill-rule:evenodd;stroke:#182323;stroke-width:0.30;stroke-linecap:round;stroke-linejoin:miter;stroke-miterlimit:4;stroke-dasharray:none;stroke-opacity:0.59"/>
<path d="M 21.84,22.93 C 21.84,22.93 17.67,26.50 17.5,26.65 C 17.32,26.80 17.00,27.21 17.06,27.78 C 17.10,28.15 17.19,28.38 17.40,28.59 C 17.51,28.54 17.81,28.37 18.53,27.87 C 19.32,27.32 21.50,25.77 21.62,25.65 C 21.73,25.54 21.79,25.39 21.81,25.28 L 21.84,24.5 L 21.84,22.93 z" id="p5292" style="fill:#462f2c;fill-opacity:1;fill-rule:evenodd;stroke:none;display:inline"/>
<path d="M 21.84,22.93 C 21.16,23.50 20.48,24.07 19.81,24.65 C 19.80,25.02 20.25,25.10 20.41,25.37 C 20.56,25.69 20.34,26.04 20.43,26.37 C 20.63,26.49 20.78,26.22 20.95,26.15 C 21.11,25.98 21.47,25.88 21.45,25.63 C 21.38,25.38 21.31,24.96 21.46,24.79 C 21.60,24.81 21.77,25.31 21.81,25.06 C 21.86,24.39 21.83,23.73 21.84,23.06 C 21.84,23.02 21.84,22.97 21.84,22.93 z M 17.78,26.40 C 17.61,26.60 17.30,26.70 17.28,27 C 17.15,27.24 17.04,27.49 17.06,27.77 C 17.10,27.96 17.17,28.32 17.29,28.37 C 17.53,28.00 17.93,27.76 18.11,27.35 C 18.20,27.14 18.43,26.60 18.03,26.60 C 17.91,26.60 17.72,26.58 17.78,26.40 z" id="p5301" style="fill:#0d0909;fill-opacity:0.16;fill-rule:evenodd;stroke:none;display:inline"/>
<path d="M 23.51,19.62 C 23.00,19.55 22.48,19.78 22.05,20.09 C 21.66,20.41 21.32,20.81 21.10,21.26 C 20.73,21.51 20.37,21.78 20,22.03 C 20.50,22.32 21.01,22.60 21.53,22.87 C 20.25,23.96 18.94,25.02 17.66,26.12 C 17.20,26.46 16.82,26.95 16.80,27.54 C 16.78,27.97 16.82,28.50 17.23,28.74 C 17.35,28.88 17.69,28.50 17.37,28.45 C 16.99,28.16 17.04,27.60 17.16,27.19 C 17.42,26.60 17.99,26.24 18.45,25.82 C 19.62,24.84 20.63,23.96 21.80,22.98 C 21.90,22.84 21.79,22.67 21.69,22.62 C 21.31,22.43 20.95,22.21 20.59,22 C 20.84,21.82 21.08,21.62 21.34,21.46 C 21.57,20.85 22.09,20.39 22.63,20.03 C 23.41,19.47 23.82,19.90 24.46,20.16 C 24.31,19.83 24.01,19.69 23.51,19.62 z" id="p5334" style="fill:#211513;fill-opacity:1;fill-rule:evenodd;stroke:none;display:inline"/>
<path d="M 25.82,22.01 L 24.90,21.51 C 24.90,21.51 24.88,20.59 24.5,20.25 C 24.30,20.07 24.02,19.89 23.62,19.93 C 23.22,19.98 22.67,20.26 22,21 C 21.66,21.36 21.38,21.90 21.21,22.27" id="p5278" style="fill:none;fill-opacity:0.81;fill-rule:evenodd;stroke:#020200;stroke-width:0.30;stroke-linecap:butt;stroke-linejoin:miter;stroke-miterlimit:4;stroke-dasharray:none;stroke-opacity:1;display:inline"/>
<path d="M 23.12,19.62 C 22.74,19.67 22.38,19.85 22.06,20.09 C 21.67,20.41 21.31,20.80 21.09,21.25 C 20.72,21.50 20.37,21.78 20,22.03 C 20.39,22.25 20.78,22.47 21.18,22.68 C 21.37,22.69 21.54,22.69 21.75,22.68 C 21.72,22.66 21.71,22.63 21.68,22.62 C 21.31,22.43 20.95,22.21 20.59,22 C 20.84,21.82 21.08,21.62 21.34,21.46 C 21.57,20.85 22.09,20.38 22.62,20.03 C 23.41,19.46 23.82,19.89 24.46,20.15 C 24.31,19.83 23.99,19.69 23.5,19.62 C 23.37,19.60 23.25,19.60 23.12,19.62 z" id="p5343" style="fill:#342b1f;fill-opacity:0.61;fill-rule:evenodd;stroke:none;display:inline"/>
<path d="M 21.52,20.92 C 21.81,20.56 21.99,20.32 22.19,20.20" id="p5350" style="opacity:1;fill:none;fill-opacity:1;fill-rule:evenodd;stroke:#916e3f;stroke-width:0.2;stroke-linecap:round;stroke-linejoin:miter;marker:none;stroke-miterlimit:4;stroke-dasharray:none;stroke-dashoffset:0;stroke-opacity:0.26;visibility:visible;display:inline;overflow:visible;enable-background:accumulate"/>
<path d="M 7.95,21.90 C 7.80,22.24 7.85,27.13 7.92,27.30 C 7.99,27.47 11.78,30.17 11.85,30.26 C 11.92,30.36 11.95,30.48 12.11,30.53 C 12.28,30.58 12.55,30.67 13.01,30.43 C 13.46,30.19 16.74,27.97 16.74,27.97 C 16.74,27.97 16.81,28.46 17.00,28.53 C 17.20,28.60 17.27,28.65 17.34,28.62 C 17.41,28.60 17.73,28.43 18.52,27.88 C 19.32,27.32 21.49,25.76 21.61,25.64 C 21.73,25.52 21.82,25.37 21.82,25.25 C 21.82,25.13 21.85,24.48 21.85,24.48 C 21.85,24.48 21.99,24.53 22.26,24.53 C 22.52,24.53 22.64,24.38 22.91,24.41 C 23.17,24.43 24.33,25.18 25.27,25.90 C 26.21,26.62 29.08,28.84 30.35,29.73 C 31.63,30.62 36.40,33.51 38.66,34.70 C 40.93,35.88 42.13,36.89 43.05,36.77 C 43.97,36.65 45.51,34.21 45.24,33.44 C 44.98,32.67 43.46,32.09 42.81,31.64 C 42.16,31.18 39.17,28.99 37.94,28.24 C 36.71,27.49 33.36,25.56 31.48,24.65 C 29.61,23.73 25.68,21.85 25.68,21.85 C 25.68,21.85 27.73,20.65 28.35,20.22 C 28.98,19.78 30.04,19.11 30.11,18.96 C 30.18,18.82 30.93,14.60 30.93,14.60 C 30.93,14.60 31.08,13.83 30.91,13.59 C 30.74,13.35 30.62,13.32 30.52,13.32 C 30.42,13.32 30.47,13.49 30.16,13.23 C 29.85,12.96 26.74,11.37 26.62,11.28 C 26.50,11.18 21.08,14.12 20.45,14.43 C 19.82,14.75 18.93,15.32 18.14,15.76 C 17.34,16.19 8.04,21.61 7.95,21.90 z" id="stroke01" style="fill:none;fill-opacity:1;fill-rule:evenodd;stroke:#0c0a0a;stroke-width:0.5;stroke-linecap:butt;stroke-linejoin:bevel;stroke-miterlimit:4;stroke-dasharray:none;stroke-opacity:1;display:inline"/>
</g>
</svg>
