<?xml version="1.0" encoding="UTF-8" standalone="no"?>
<!DOCTYPE svg PUBLIC "-//W3C//DTD SVG 1.0//EN" "http://www.w3.org/TR/2001/REC-SVG-20010904/DTD/svg10.dtd">
<svg xmlns:svg="http://www.w3.org/2000/svg" xmlns="http://www.w3.org/2000/svg" version="1.0" width="100%" height="100%" viewBox="0 0 48 48" id="_brush02">
<defs id="defs2385"/>
<g id="brush02" style="display:inline">
<path d="M 31.49,32.85 C 31.49,32.85 35.31,34.72 36.63,35.34 C 37.95,35.96 40.21,37.21 40.64,37.33 C 41.07,37.44 41.46,37.41 41.46,37.41 L 41.81,36.7 C 41.81,36.7 42,36.59 42.12,36.39 C 42.24,36.2 42.82,34.95 43.02,34.72 C 43.21,34.49 43.17,34.17 43.17,34.17 L 43.4,34.02 L 43.95,32.97 L 44.07,32.81 L 43.95,32.58 L 44.38,32.19 L 44.34,32.07 C 44.34,32.07 44.61,31.53 45,30.86 C 45.39,30.2 46.21,28.88 46.21,28.88 C 46.21,28.88 46.05,28.72 46.21,28.53 C 46.36,28.33 46.17,27.13 45.47,26.82 C 44.77,26.5 41.5,25.65 40.13,25.18 C 38.77,24.71 35.46,23.47 35.46,23.47 L 29.27,27.79 L 29.93,31.06 L 31.49,32.85 z" id="p3582" style="fill:#baa789;fill-opacity:1;fill-rule:evenodd;stroke:none"/>
<path d="M 30.84,30.25 C 30.82,30.27 30.7,31.2 30.62,31.84 L 31.5,32.84 C 31.5,32.84 35.3,34.72 36.62,35.34 C 37.94,35.96 40.22,37.22 40.65,37.34 C 41.08,37.46 41.46,37.4 41.46,37.4 L 41.81,36.71 C 41.81,36.71 42,36.6 42.12,36.4 C 42.16,36.34 42.26,36.06 42.37,35.84 C 41.92,35.54 41.43,35.21 41.28,35.21 C 40.97,35.21 35.22,32.51 30.84,30.25 z" id="p3589" style="fill:#5b503f;fill-opacity:0.45;fill-rule:evenodd;stroke:none;display:inline"/>
<path d="M 45.75,27.03 C 45.66,27.72 45.5,27.9 45.5,27.9 L 45.43,28.71 L 44.9,29.09 C 44.9,29.09 45.11,29.55 44.81,29.93 C 44.51,30.31 43.98,30.69 43.68,31.37 C 43.38,32.05 43.01,31.98 42.93,32.43 C 42.86,32.89 43.02,33.17 42.71,33.4 C 42.41,33.63 42.08,34.15 41.93,34.53 C 41.78,34.9 41.71,35.53 41.71,35.53 L 41.56,36.06 L 41.46,37.4 L 41.81,36.71 C 41.81,36.71 42,36.6 42.12,36.4 C 42.24,36.21 42.83,34.95 43.03,34.71 C 43.22,34.48 43.18,34.18 43.18,34.18 L 43.4,34.03 L 43.96,32.96 L 44.06,32.81 L 43.96,32.59 L 44.37,32.18 L 44.34,32.06 C 44.34,32.06 44.61,31.53 45,30.87 C 45.38,30.21 46.21,28.87 46.21,28.87 C 46.21,28.87 46.06,28.72 46.21,28.53 C 46.35,28.36 46.21,27.48 45.75,27.03 z" id="p3591" style="fill:#664d25;fill-opacity:0.68;fill-rule:evenodd;stroke:none;display:inline"/>
<path d="M 35.56,23.5 C 36.29,24.08 37.22,24.39 37.87,25.08 C 37.31,25.3 36.7,24.61 36.12,24.46 C 35.69,24.22 34.65,23.59 34.47,24.28 C 36.38,24.9 38.27,25.63 40.1,26.44 C 40.84,26.78 41.57,27.14 42.28,27.53 C 39.66,26.35 36.95,25.39 34.31,24.28 C 33.97,24.39 33.61,24.83 34.21,24.82 C 37.12,25.95 40.08,27.03 42.75,28.68 C 39.52,27.86 36.66,26.14 33.68,24.71 C 33.29,25.22 34.54,25.38 34.8,25.74 C 37.74,27.4 41.12,28.03 44.08,29.64 C 44.57,29.82 45.47,30.44 44.59,30.77 C 43.68,30.71 43.09,29.9 42.34,29.46 C 41.14,28.64 39.78,28.07 38.47,27.46 C 36.79,26.74 35.07,26.09 33.28,25.71 C 32.85,25.64 32.61,26.14 33.19,26.08 C 36.39,27.06 39.82,27.83 42.43,30.06 C 41.39,30.87 39.94,30.46 38.88,29.89 C 37.53,29.17 36.12,28.58 34.85,27.72 C 34.09,27.24 33.34,26.73 32.59,26.21 C 32.52,27.28 33.77,27.55 34.48,28.01 C 37.16,29.5 40.05,30.55 42.95,31.51 C 43.38,31.92 42.18,31.6 41.94,31.61 C 39.26,31.24 36.96,29.73 34.53,28.66 C 33.63,28.38 32.88,27.6 31.91,27.61 C 31.02,27.79 31.66,28.55 32.25,28.61 C 33.16,29.02 34.1,29.4 34.92,29.97 C 34.38,30.25 33.71,29.65 33.14,29.5 C 32.38,29.17 31.56,28.67 30.7,28.84 C 30.15,29.38 31.52,29.79 31.86,30.11 C 33.39,30.93 35.06,31.47 36.52,32.41 C 37.57,32.97 38.81,33.41 39.46,34.47 C 39.76,34.96 39.27,35.4 38.85,34.94 C 36.32,33.89 34.21,31.88 31.46,31.34 C 32.34,32.74 34.05,33.11 35.44,33.78 C 36.72,34.46 38.01,35.1 39.29,35.75 C 40.08,36.17 40.86,36.6 41.62,37.06 C 42.23,36.27 40.55,36.09 40.75,35.22 C 40.75,34.27 41.99,34.14 42.54,34.73 C 43.13,35.19 43.33,34.05 42.58,34.2 C 41.56,34.07 40.59,33.64 39.63,33.28 C 37.44,32.37 35.42,31.12 33.34,30 C 36.44,31.05 39.82,31.61 42.47,33.66 C 42.68,33.97 43.58,34.51 43.3,33.78 C 42.82,33.39 42.1,32.44 42.95,32.04 C 43.59,31.95 44.49,32.5 44.62,31.52 C 45.07,30.77 45.47,29.99 45.99,29.28 C 46.35,28.59 46.4,27.59 45.52,27.24 C 44.81,26.9 44.18,26.15 43.32,26.24 C 43.5,27.29 42.08,27.07 41.54,26.66 C 39.93,25.9 38.4,25 36.93,24 C 36.48,23.82 36.02,23.66 35.56,23.5 z M 32.59,26.21 C 33.09,25.72 31.52,25.69 32.39,26.08 C 32.46,26.12 32.52,26.17 32.59,26.21 z M 37.43,25.81 C 37.82,25.9 38.47,25.99 38.59,26.41 C 38.18,26.26 37.82,26 37.43,25.81 z M 43.34,27.62 C 43.75,27.37 44.99,28.09 44.32,28.27 C 43.94,28.14 43.65,27.86 43.34,27.62 z M 31.78,27.84 C 33.48,28.72 35.41,29.12 37.02,30.19 C 36.91,30.5 35.89,29.98 35.51,29.89 C 34.18,29.36 33,28.55 31.78,27.84 z M 43.81,28.31 C 44.47,28.07 45.2,29.66 44.2,29.05 C 44,28.92 42.93,28.27 43.81,28.31 z M 39.03,31.34 C 39.39,31.36 40.28,31.71 40.01,32.03 C 39.64,31.94 38.68,31.56 38.88,31.33 L 39.03,31.34 z M 30.46,31.65 C 33.56,34.15 37.37,35.44 40.81,37.37 C 41.37,37.55 41.56,37.26 40.95,37.11 C 37.45,35.31 33.89,33.6 30.46,31.65 z M 33.5,32.46 C 34.76,33.02 36.02,33.59 37.19,34.34 C 35.92,33.81 34.73,33.08 33.5,32.46 z M 38.4,33.03 C 38.68,33.09 39.69,33.51 39.42,33.48 C 39.08,33.34 38.74,33.18 38.4,33.03 z" id="p3601" style="fill:#664d25;fill-opacity:0.12;fill-rule:evenodd;stroke:none"/>
<path d="M 34.12,24.4 C 33.34,24.65 34.07,25.09 34.53,24.99 C 37.04,25.46 39.53,26.12 42.08,26.3 C 43.47,26.3 44.74,27.05 45.64,28.06 C 45.93,28.51 46.53,28.17 46.01,27.79 C 45.5,27.2 44.91,26.55 44.11,26.38 C 43.32,26.17 42.53,25.9 41.75,25.69 C 40.88,25.6 40,25.57 39.17,25.31 C 37.48,25.03 35.8,24.73 34.12,24.4 z M 33.34,25.06 C 32.41,25.39 33.33,26.4 33.84,26.67 C 35.73,27.99 38.07,28.31 40.12,29.28 C 41.68,29.92 43.2,30.67 44.59,31.62 C 44.99,30.64 43.51,30.59 43,30.1 C 40.43,28.62 37.58,27.78 34.81,26.79 C 34.34,26.58 34.55,25.99 35,26.39 C 38.47,27.87 42.23,28.44 45.84,29.5 C 46.09,28.49 44.5,28.86 43.94,28.46 C 40.75,27.65 37.48,27.03 34.46,25.65 C 34.34,25.18 33.77,25.02 33.34,25.06 z M 30.53,26.9 C 29.54,27.17 30.41,28.1 30.98,28.27 C 32.14,29.11 33.46,29.76 34.88,30 C 37.65,30.72 40.07,32.32 42.53,33.73 C 42.79,34.14 43.74,34.14 43.31,33.55 C 40.99,32.22 38.65,30.9 36.18,29.89 C 34.8,29.43 33.34,29.17 32.06,28.46 C 32.47,27.57 33.49,28.7 34.18,28.68 C 37.52,29.75 40.77,31.12 43.96,32.59 C 44.71,31.8 43.05,31.7 42.58,31.4 C 38.9,29.79 35.12,28.38 31.25,27.28 C 31.11,27.02 30.8,26.9 30.53,26.9 z M 30.03,28.06 C 29.33,28.63 30.38,29.17 30.77,29.55 C 31.84,31.06 33.57,31.86 35.2,32.62 C 37.55,33.79 40,34.75 42.25,36.12 C 42.69,35.16 41.15,35.16 40.67,34.66 C 38.46,33.47 36.11,32.55 33.93,31.31 C 36.81,32.73 39.98,33.52 42.71,35.25 C 43.14,34.48 42.06,34.25 41.54,34.06 C 41.01,33.74 39.74,33.34 39.57,33.24 C 40.75,33.67 41.91,34.16 43.06,34.65 C 43.37,33.68 41.92,33.77 41.39,33.34 C 38.02,31.96 34.43,31.04 31.3,29.12 C 30.87,28.78 30.6,28.21 30.03,28.06 z" id="p3627" style="fill:#f2dab3;fill-opacity:0.15;fill-rule:evenodd;stroke:none"/>
<path d="M 31.49,32.85 C 31.49,32.85 35.31,34.72 36.63,35.34 C 37.95,35.96 40.21,37.21 40.64,37.33 C 41.07,37.44 41.46,37.41 41.46,37.41 L 41.81,36.7 C 41.81,36.7 42,36.59 42.12,36.39 C 42.24,36.2 42.82,34.95 43.02,34.72 C 43.21,34.49 43.17,34.17 43.17,34.17 L 43.4,34.02 L 43.95,32.97 L 44.07,32.81 L 43.95,32.58 L 44.38,32.19 L 44.34,32.07 C 44.34,32.07 44.61,31.53 45,30.86 C 45.39,30.2 46.21,28.88 46.21,28.88 C 46.21,28.88 46.05,28.72 46.21,28.53 C 46.36,28.33 46.17,27.13 45.47,26.82 C 44.77,26.5 41.5,25.65 40.13,25.18 C 38.77,24.71 35.46,23.47 35.46,23.47 L 29.27,27.79 L 29.93,31.06 L 31.49,32.85 z" id="stroke02" style="fill:none;fill-opacity:1;fill-rule:evenodd;stroke:#2f2111;stroke-width:0.40;stroke-linecap:butt;stroke-linejoin:miter;stroke-miterlimit:4;stroke-dasharray:none;stroke-opacity:1;display:inline"/>
<path d="M 1.82,15.46 C 1.38,17.75 7.17,20.07 7.8,20.36 C 8.43,20.64 14.58,22.98 17.03,23.66 C 19.48,24.35 22.33,25.37 23.24,27.71 C 24.16,30.05 23.93,29.87 24.33,30.1 C 24.72,30.33 25.86,30.56 25.86,30.56 C 25.86,30.56 26.15,30.9 26.49,31.01 C 26.83,31.13 26.89,31.07 27.8,31.41 C 28.71,31.76 30.02,32.33 30.31,32.55 C 30.59,32.78 31.68,33.01 31.68,33.01 C 31.68,33.01 31.05,32.72 31.51,31.47 C 31.96,30.22 31.96,30.33 33.73,27.54 C 35.49,24.75 36.35,23.72 36.35,23.72 C 36.35,23.72 36.06,23.78 35.84,23.55 C 35.61,23.32 35.55,23.66 34.75,23.27 C 33.96,22.87 31.45,21.84 31.45,21.84 C 31.45,21.84 31.22,21.73 30.94,21.61 C 30.65,21.5 29.91,21.21 29.57,20.99 C 29.23,20.76 28.83,20.7 27.74,21.1 C 26.66,21.5 24.67,22.58 20.34,20.53 C 16.01,18.48 10.29,15.29 5.64,14.66 C 3.23,14.33 2.03,14.34 1.82,15.46 z" id="p2567" style="fill:#e5b98a;fill-opacity:1;fill-rule:evenodd;stroke:none"/>
<path d="M 17.31,19.06 C 18.2,20.47 19.23,21.92 20.03,22.56 C 21.39,23.65 22.12,24.22 21.71,25.75 C 22.11,26.06 22.46,26.41 22.75,26.81 C 22.89,26.09 22.86,25.98 23.5,24.96 C 23.9,24.31 24.92,22.93 25.93,21.65 C 24.71,21.86 22.96,21.77 20.34,20.53 C 19.39,20.08 18.36,19.57 17.31,19.06 z" id="p3466" style="fill:#bc864c;fill-opacity:0.27;fill-rule:evenodd;stroke:none;display:inline"/>
<path d="M 11.84,16.53 C 13.17,17.27 14.26,18.34 15.51,19.19 C 14.26,18.61 13.13,17.76 11.78,17.43 C 12.11,18.74 10.41,19.2 9.5,18.8 C 8.84,19.07 8.2,20.27 9.05,20.67 C 8.42,19.35 10.4,18.78 11.27,19.48 C 12.85,20.05 14.52,20.6 15.85,21.68 C 17.01,22.75 18.22,23.77 19.62,24.52 C 21.1,25.37 22.58,26.23 24,27.17 C 24.81,27.55 25.54,28.55 26.53,28.19 C 27.46,27.58 28.46,28.33 29.36,28.58 C 30.68,29.07 31.76,27.14 30.8,26.19 C 29.27,24.6 27.16,23.74 25.61,22.17 C 25.25,21.73 24.42,22.26 25.19,22.46 C 26.96,23.75 28.74,25.03 30.38,26.48 C 29.5,27.13 28.52,26.24 27.98,25.55 C 26.49,23.94 24.71,22.64 22.92,21.38 C 22.66,22.46 24.43,22.55 24.87,23.39 C 25.33,23.78 26.39,24.59 26.48,24.77 C 24.37,23.44 22.43,21.87 20.37,20.46 C 19.52,20.61 21.03,21.32 21.26,21.58 C 23.96,23.61 26.79,25.46 29.5,27.5 C 28.52,28.19 27.32,27.5 26.5,26.88 C 24.31,25.33 22.22,23.66 20.02,22.13 C 19.36,21.89 19.73,20.67 18.73,20.76 C 16.29,19.58 14.44,17.42 11.84,16.53 z M 17.43,23.09 C 17.17,21.89 15.82,23.71 17.06,23.64 C 17.74,24.03 18.19,23.78 17.43,23.09 z M 15.93,22.68 C 15.19,23.29 17.23,23.46 16.19,22.89 L 16.06,22.79 L 15.93,22.68 z M 11.62,17.81 C 13.52,18.36 15.19,19.46 16.93,20.37 C 16.53,21.56 18.03,21.97 18.83,22.37 C 21.59,23.8 24.19,25.59 26.31,27.86 C 24.69,27.34 23.32,26.28 21.88,25.41 C 20.8,24.69 19.73,23.96 18.62,23.28 C 18.93,22.24 17.69,21.89 16.95,21.62 C 14.97,20.68 13.11,19.43 11.62,17.81 z M 28.12,20.96 C 27.91,21.78 30.17,22.2 28.92,22.79 C 27.87,22.7 27.11,21.64 26.03,21.74 C 25.93,22.27 27.21,22.58 27.79,22.72 C 28.67,22.72 29.22,23.76 30.09,23.5 C 31.29,22.88 30.48,21.53 29.38,21.53 C 28.94,21.39 28.48,21.27 28.12,20.96 z M 22.53,26.56 C 23.24,27.86 24.47,28.75 25.38,29.9 C 25.01,29.47 23.61,28.52 24.03,29.78 C 24.4,30.78 26.61,30.38 25.57,29.29 C 24.71,28.22 23.49,27.52 22.53,26.56 z" id="p3420" style="fill:#a8772b;fill-opacity:0.15;fill-rule:evenodd;stroke:none"/>
<path d="M 1.84,15.4 C 1.83,15.42 1.81,15.44 1.81,15.46 C 1.37,17.76 7.18,20.09 7.81,20.37 C 8.43,20.65 14.58,22.97 17.03,23.65 C 19.48,24.34 22.33,25.38 23.25,27.71 C 24.16,30.05 23.94,29.86 24.34,30.09 C 24.74,30.32 25.87,30.56 25.87,30.56 C 25.87,30.56 26.15,30.91 26.5,31.03 C 26.58,31.05 26.65,31.04 26.71,31.06 L 27.84,28.71 C 27.84,28.71 25.07,27.53 25,27.37 C 24.92,27.21 22.67,24.39 21.96,24 C 21.26,23.6 15.3,20.62 13.96,20.15 C 12.63,19.68 8.62,17.73 7.68,17.34 C 6.74,16.95 6.34,17.42 5.56,17.18 C 4.77,16.95 4.31,15.84 4,15.68 C 3.75,15.56 2.95,15.45 1.84,15.4 z" id="p3359" style="fill:#f8f6f0;fill-opacity:0.23;fill-rule:evenodd;stroke:none;display:inline"/>
<path d="M 1.81,15.62 C 1.65,17.86 7.19,20.09 7.81,20.37 C 8.43,20.65 14.58,22.97 17.03,23.65 C 19.48,24.34 22.33,25.38 23.25,27.71 C 24.16,30.05 23.94,29.86 24.34,30.09 C 24.57,30.22 24.98,30.34 25.34,30.43 C 25.39,29.53 25.32,28.76 25,28.62 C 24.05,28.23 24.29,27.54 23.9,26.68 C 23.51,25.82 21,23.91 18.37,23.01 C 16.1,22.23 8.56,19.17 7.23,18.55 C 6.12,18.03 3.95,17.2 1.81,15.62 z" id="p3356" style="fill:#3e2803;fill-opacity:0.37;fill-rule:evenodd;stroke:none;display:inline"/>
<path d="M 3.43,14.46 C 2.48,14.48 1.94,14.77 1.81,15.46 C 1.37,17.76 7.18,20.09 7.81,20.37 C 7.98,20.45 9.18,20.89 10.03,21.21 C 10.11,20.04 10.31,19.2 10.87,18.59 C 11.48,17.92 12.05,17.23 12.62,16.84 C 10.23,15.8 7.83,14.95 5.65,14.65 C 4.75,14.53 4.01,14.45 3.43,14.46 z" id="p3342" style="fill:#003856;fill-opacity:1;fill-rule:evenodd;stroke:none"/>
<path d="M 1.84,15.4 C 1.83,15.42 1.81,15.44 1.81,15.46 C 1.37,17.76 7.18,20.09 7.81,20.37 C 7.98,20.45 9.18,20.89 10.03,21.21 C 10.1,20.14 10.28,19.34 10.75,18.75 C 9.44,18.14 8.16,17.54 7.68,17.34 C 6.74,16.95 6.34,17.42 5.56,17.18 C 4.77,16.95 4.31,15.84 4,15.68 C 3.75,15.56 2.95,15.45 1.84,15.4 z" id="p3369" style="fill:#a4b1d4;fill-opacity:0.3;fill-rule:evenodd;stroke:none;display:inline"/>
<path d="M 1.81,15.62 C 1.77,16.3 2.2,16.89 2.66,17.35 C 3.16,17.84 3.75,18.25 4.34,18.64 C 5.59,19.37 6.89,20 8.23,20.54 C 8.83,20.76 9.43,20.99 10.03,21.21 C 10.06,20.74 10.12,20.27 10.25,19.81 C 9.29,19.4 8.38,19.21 7.31,18.81 C 6.24,18.42 5.06,17.97 4,17.31 C 3.25,16.84 2.52,16.15 1.81,15.62 z" id="p3374" style="fill:#000b28;fill-opacity:0.5;fill-rule:evenodd;stroke:none;display:inline"/>
<path d="M 7.46,16.02 C 7.38,16.58 6.69,17.04 5.93,17.04 C 5.17,17.04 4.63,16.58 4.71,16.02 C 4.80,15.45 5.47,15.00 6.23,15.00 C 6.99,15.00 7.55,15.45 7.46,16.02 z" id="p3472" style="fill:#59c3dc;fill-opacity:0.3;fill-rule:evenodd;stroke:none;marker:none;visibility:visible;display:inline;overflow:visible;enable-background:accumulate"/>
<path d="M 6.87,15.31 C 6.87,15.31 6.02,16.16 6.21,16.56 C 6.41,16.95 5.59,17.19 5.5,16.4 C 5.42,15.78 5.27,15.53 5.09,15.43 C 4.89,15.6 4.72,15.8 4.68,16.03 C 4.6,16.59 5.17,17.03 5.93,17.03 C 6.69,17.03 7.35,16.59 7.43,16.03 C 7.44,15.96 7.47,15.87 7.46,15.81 C 7.29,15.42 6.87,15.31 6.87,15.31 z" id="p3482" style="fill:#021d2b;fill-opacity:0.48;fill-rule:evenodd;stroke:none;display:inline"/>
<path d="M 6.4,15.4 C 6.22,15.38 6.03,15.39 5.84,15.43 C 5.27,15.56 4.86,15.96 4.75,16.4 C 4.9,16.77 5.36,17.03 5.93,17.03 C 6.66,17.03 7.3,16.62 7.43,16.09 C 7.28,15.71 6.88,15.45 6.4,15.4 z" id="p3491" style="fill:#021d2b;fill-opacity:0.48;fill-rule:evenodd;stroke:none;marker:none;visibility:visible;display:inline;overflow:visible;enable-background:accumulate"/>
<path d="M 7.04,16.31 C 6.98,16.68 6.53,16.98 6.03,16.98 C 5.52,16.98 5.16,16.68 5.22,16.31 C 5.28,15.94 5.73,15.63 6.23,15.63 C 6.73,15.63 7.09,15.94 7.04,16.31 L 7.04,16.31 z" id="p3474" style="fill:#000000;fill-opacity:0.93;fill-rule:evenodd;stroke:none;marker:none;visibility:visible;display:inline;overflow:visible;enable-background:accumulate"/>
<path d="M 8.84,15.56 C 8.47,15.59 8.32,15.68 8.15,15.9 C 7.81,16.35 7.45,16.79 7.75,16.84 C 7.98,16.88 10.13,17.83 11.09,18.34 C 11.61,17.76 12.12,17.18 12.62,16.84 C 11.51,16.36 10.4,15.92 9.31,15.56 C 9.19,15.56 8.93,15.55 8.84,15.56 z" id="p3498" style="fill:#1ea0d3;fill-opacity:0.07;fill-rule:evenodd;stroke:none"/>
<path d="M 1.81,15.5 C 1.79,15.59 1.8,15.68 1.81,15.78 C 2.92,16.95 4.37,18.04 4.78,18.25 C 5.23,18.47 9.11,19.95 10.15,20.34 C 10.2,20.02 10.27,19.72 10.37,19.46 C 9.84,19.39 8.89,19.19 7.28,18.59 C 5.34,17.87 2.86,16.61 1.81,15.5 z" id="p3503" style="fill:#012a3b;fill-opacity:0.56;fill-rule:evenodd;stroke:none;display:inline"/>
<path d="M 29.93,21.18 C 28.58,23.12 26.06,26.7 25.43,27.62 C 24.87,28.45 24.73,29.31 24.9,30.31 C 25.36,30.44 25.87,30.56 25.87,30.56 C 25.87,30.56 26.15,30.91 26.5,31.03 C 26.84,31.14 26.9,31.06 27.81,31.4 C 28.72,31.74 30.02,32.33 30.31,32.56 C 30.59,32.79 31.68,33 31.68,33 C 31.68,33 31.04,32.72 31.5,31.46 C 31.95,30.21 31.95,30.32 33.71,27.53 C 35.48,24.73 36.34,23.71 36.34,23.71 C 36.34,23.71 36.07,23.79 35.84,23.56 C 35.61,23.33 35.54,23.68 34.75,23.28 C 33.95,22.88 31.46,21.84 31.46,21.84 C 31.46,21.84 31.22,21.73 30.93,21.62 C 30.72,21.54 30.3,21.36 29.93,21.18 z" id="p3344" style="fill:#898584;fill-opacity:1;fill-rule:evenodd;stroke:none"/>
<path d="M 31.21,21.84 C 29.86,23.77 27.44,27.23 26.82,28.15 C 26.25,28.98 26.15,29.75 26.33,30.75" id="p3509" style="fill:none;fill-opacity:1;fill-rule:evenodd;stroke:#1a1b1b;stroke-width:0.69;stroke-linecap:round;stroke-linejoin:miter;stroke-miterlimit:4;stroke-dasharray:none;stroke-opacity:0.81;display:inline"/>
<path d="M 30.8,32.68 C 30.8,32.68 30.35,32.34 30.68,31.3 C 31.08,30.03 31.13,30.15 32.9,27.36 C 34.67,24.57 35.48,23.63 35.48,23.63" id="p3515" style="fill:none;fill-opacity:1;fill-rule:evenodd;stroke:#1a1b1b;stroke-width:0.69;stroke-linecap:round;stroke-linejoin:miter;stroke-miterlimit:4;stroke-dasharray:none;stroke-opacity:0.81;display:inline"/>
<path d="M 26.21,26.5 C 26.07,26.7 25.78,27.13 25.68,27.28 C 26.51,27.75 27.1,27.99 27.62,28.12 C 28.3,28.29 30.21,29.58 30.46,29.62 C 30.71,29.66 31.94,30.11 32.06,30.15 C 32.12,30.03 32.34,29.74 32.43,29.59 L 32.56,29.31 C 32.56,29.31 31.2,29.48 30.18,28.84 C 29.16,28.2 27.66,27.31 27.28,27.18 C 27.08,27.12 26.64,26.81 26.21,26.5 z" id="p3555" style="fill:#454548;fill-opacity:0.22;fill-rule:evenodd;stroke:none;display:inline"/>
<path d="M 29.33,31.93 C 29.33,31.93 28.93,31.59 29.3,30.57 C 29.75,29.32 29.75,29.42 31.52,26.63 C 33.28,23.84 33.93,23.08 33.93,23.08" id="p3517" style="fill:none;fill-opacity:1;fill-rule:evenodd;stroke:#1a1b1b;stroke-width:0.69;stroke-linecap:round;stroke-linejoin:miter;stroke-miterlimit:4;stroke-dasharray:none;stroke-opacity:0.81;display:inline"/>
<path d="M 31.21,21.84 C 29.86,23.77 27.44,27.23 26.82,28.15 C 26.25,28.98 26.15,29.75 26.33,30.75" id="p3525" style="fill:none;fill-opacity:1;fill-rule:evenodd;stroke:#f4f5f5;stroke-width:0.30;stroke-linecap:round;stroke-linejoin:miter;stroke-miterlimit:4;stroke-dasharray:none;stroke-opacity:0.68;display:inline"/>
<path d="M 30.8,32.68 C 30.8,32.68 30.35,32.34 30.68,31.3 C 31.08,30.03 31.13,30.15 32.9,27.36 C 34.67,24.57 35.48,23.63 35.48,23.63" id="p3527" style="fill:none;fill-opacity:1;fill-rule:evenodd;stroke:#f4f5f5;stroke-width:0.30;stroke-linecap:round;stroke-linejoin:miter;stroke-miterlimit:4;stroke-dasharray:none;stroke-opacity:0.68;display:inline"/>
<path d="M 29.33,31.93 C 29.33,31.93 28.93,31.59 29.3,30.57 C 29.75,29.32 29.75,29.42 31.52,26.63 C 33.28,23.84 33.93,23.08 33.93,23.08" id="p3529" style="fill:none;fill-opacity:1;fill-rule:evenodd;stroke:#f4f5f5;stroke-width:0.30;stroke-linecap:round;stroke-linejoin:miter;stroke-miterlimit:4;stroke-dasharray:none;stroke-opacity:0.68;display:inline"/>
<path d="M 25.34,27.78 C 25.15,28.09 25.05,28.42 24.96,28.75 C 25.41,28.56 25.9,28.5 26.21,28.5 C 26.34,28.5 26.42,28.48 26.46,28.5 C 26.64,28.54 26.71,29.16 27.06,29.25 C 27.4,29.33 29.28,30.09 29.28,30.09 C 29.28,30.09 29.52,29.58 29.65,29.71 C 29.78,29.84 29.53,30.01 29.87,30.18 C 30.21,30.35 30.79,30.28 31.09,30.5 C 31.25,30.61 31.48,30.86 31.65,31.09 C 31.7,30.95 31.75,30.77 31.81,30.65 C 31.48,30.43 31.47,30.16 31.34,30.06 C 31.17,29.93 30.98,30.24 30.68,30.15 C 30.38,30.07 30.06,30.01 30.06,29.84 C 30.06,29.67 30.03,29.53 29.78,29.62 C 29.52,29.71 29.49,29.49 29.28,29.4 C 29.06,29.32 28.33,28.84 27.9,28.71 C 27.47,28.58 26.77,28.41 26.56,28.37 C 26.34,28.33 26.25,28.16 25.9,28.03 C 25.71,27.95 25.55,27.89 25.34,27.78 z M 24.96,28.75 C 24.91,28.97 24.85,29.19 24.84,29.43 C 24.85,29.2 24.91,28.97 24.96,28.75 z" id="p3531" style="fill:#f5f5f8;fill-opacity:0.86;fill-rule:evenodd;stroke:none;display:inline"/>
<path d="M 26.21,28.5 C 25.9,28.5 25.41,28.56 24.96,28.75 C 24.84,29.24 24.8,29.75 24.9,30.31 C 25.36,30.44 25.87,30.56 25.87,30.56 C 25.87,30.56 26.15,30.91 26.5,31.03 C 26.84,31.14 26.9,31.06 27.81,31.4 C 28.72,31.74 30.02,32.33 30.31,32.56 C 30.59,32.79 31.68,33 31.68,33 C 31.68,33 31.04,32.72 31.5,31.46 C 31.55,31.3 31.6,31.21 31.65,31.09 C 31.48,30.86 31.25,30.61 31.09,30.5 C 30.79,30.28 30.21,30.35 29.87,30.18 C 29.53,30.01 29.78,29.84 29.65,29.71 C 29.52,29.58 29.28,30.09 29.28,30.09 C 29.28,30.09 27.4,29.33 27.06,29.25 C 26.71,29.16 26.64,28.54 26.46,28.5 C 26.42,28.48 26.34,28.5 26.21,28.5 z" id="p3534" style="fill:#afafb2;fill-opacity:0.37;fill-rule:evenodd;stroke:none;display:inline"/>
<path d="M 26.59,28.62 C 26.51,28.66 26.46,28.86 26.43,29.12 C 26.39,29.45 26.16,29.24 26.03,29.03 L 26.18,29.46 L 29.09,30.65 L 29.4,30.65 L 29.59,30.84 L 31.4,31.81 C 31.43,31.7 31.45,31.59 31.5,31.46 C 31.52,31.4 31.54,31.37 31.56,31.31 C 31.5,31.28 31.44,31.24 31.37,31.21 C 30.34,30.87 29.62,30.59 29.62,30.59 L 29.21,30.59 L 29.18,30.28 C 29.18,30.28 27.38,29.67 26.9,29.5 C 26.43,29.32 26.81,28.71 26.68,28.62 C 26.65,28.6 26.62,28.61 26.59,28.62 z M 26.03,29.03 C 26.02,29.02 26.03,29 26.03,29 C 25.93,28.83 25.44,28.75 24.96,28.71 C 24.95,28.77 24.91,28.82 24.9,28.87 L 25.96,29.37 L 26.03,29.03 z" id="p3537" style="fill:#030304;fill-opacity:0.86;fill-rule:evenodd;stroke:none;display:inline"/>
<path d="M 27.49,28.14 C 28.06,27.85 29.22,28.03 29.97,27.33 C 30.73,26.64 32.44,24.27 32.44,24.27 L 29.38,29.02 C 29.38,29.02 28.59,28.43 27.49,28.14 z" id="p3552" style="fill:#454548;fill-opacity:0.35;fill-rule:evenodd;stroke:none;display:inline"/>
<path d="M 27.72,25.83 C 27.73,26.09 27.49,26.31 27.20,26.31 C 26.90,26.31 26.66,26.09 26.65,25.83 C 26.64,25.56 26.87,25.35 27.16,25.35 C 27.46,25.35 27.71,25.56 27.72,25.83 z" id="p3566" style="fill:#fafafa;fill-opacity:0.86;fill-rule:evenodd;stroke:none;marker:none;visibility:visible;display:inline;overflow:visible;enable-background:accumulate"/>
<path d="M 27.42,25.97 C 27.43,26.16 27.25,26.32 27.02,26.32 C 26.79,26.32 26.60,26.16 26.59,25.97 C 26.58,25.77 26.76,25.61 26.99,25.61 C 27.22,25.61 27.41,25.77 27.42,25.97 z" id="p3568" style="fill:#353535;fill-opacity:0.86;fill-rule:evenodd;stroke:none;marker:none;visibility:visible;display:inline;overflow:visible;enable-background:accumulate"/>
<path d="M 27.28,25.84 C 27.29,25.96 27.18,26.05 27.04,26.05 C 26.90,26.05 26.78,25.96 26.78,25.84 C 26.77,25.72 26.88,25.63 27.02,25.63 C 27.16,25.63 27.28,25.72 27.28,25.84 z" id="p3570" style="fill:#8f8f8f;fill-opacity:0.86;fill-rule:evenodd;stroke:none;marker:none;visibility:visible;display:inline;overflow:visible;enable-background:accumulate"/>
<path d="M 29.67,23.09 C 29.68,23.35 29.44,23.57 29.15,23.57 C 28.85,23.57 28.61,23.35 28.60,23.09 C 28.59,22.82 28.82,22.61 29.11,22.61 C 29.41,22.61 29.66,22.82 29.67,23.09 z" id="p3575" style="fill:#fafafa;fill-opacity:0.86;fill-rule:evenodd;stroke:none;marker:none;visibility:visible;display:inline;overflow:visible;enable-background:accumulate"/>
<path d="M 29.38,23.22 C 29.39,23.41 29.21,23.57 28.98,23.57 C 28.75,23.57 28.56,23.41 28.55,23.22 C 28.54,23.02 28.72,22.86 28.95,22.86 C 29.18,22.86 29.37,23.02 29.38,23.22 z" id="p3577" style="fill:#353535;fill-opacity:0.86;fill-rule:evenodd;stroke:none;marker:none;visibility:visible;display:inline;overflow:visible;enable-background:accumulate"/>
<path d="M 29.23,23.08 C 29.24,23.20 29.13,23.29 28.99,23.29 C 28.85,23.29 28.73,23.20 28.73,23.08 C 28.72,22.96 28.83,22.87 28.97,22.87 C 29.11,22.87 29.23,22.96 29.23,23.08 z" id="p3579" style="fill:#8f8f8f;fill-opacity:0.86;fill-rule:evenodd;stroke:none;marker:none;visibility:visible;display:inline;overflow:visible;enable-background:accumulate"/>
<path d="M 1.82,15.46 C 1.38,17.75 7.17,20.07 7.8,20.36 C 8.43,20.64 14.58,22.98 17.03,23.66 C 19.48,24.35 22.33,25.37 23.24,27.71 C 24.16,30.05 23.93,29.87 24.33,30.1 C 24.72,30.33 25.86,30.56 25.86,30.56 C 25.86,30.56 26.15,30.9 26.49,31.01 C 26.83,31.13 26.89,31.07 27.8,31.41 C 28.71,31.76 30.02,32.33 30.31,32.55 C 30.59,32.78 31.68,33.01 31.68,33.01 C 31.68,33.01 31.05,32.72 31.51,31.47 C 31.96,30.22 31.96,30.33 33.73,27.54 C 35.49,24.75 36.35,23.72 36.35,23.72 C 36.35,23.72 36.06,23.78 35.84,23.55 C 35.61,23.32 35.55,23.66 34.75,23.27 C 33.96,22.87 31.45,21.84 31.45,21.84 C 31.45,21.84 31.22,21.73 30.94,21.61 C 30.65,21.5 29.91,21.21 29.57,20.99 C 29.23,20.76 28.83,20.7 27.74,21.1 C 26.66,21.5 24.67,22.58 20.34,20.53 C 16.01,18.48 10.29,15.29 5.64,14.66 C 3.23,14.33 2.03,14.34 1.82,15.46 z" id="stroke01" style="fill:none;fill-opacity:1;fill-rule:evenodd;stroke:#1f2123;stroke-width:0.5;stroke-linecap:butt;stroke-linejoin:bevel;stroke-miterlimit:4;stroke-dasharray:none;stroke-opacity:1"/>
</g>
</svg>
