<?xml version="1.0" encoding="UTF-8" standalone="no"?>
<!DOCTYPE svg PUBLIC "-//W3C//DTD SVG 1.0//EN" "http://www.w3.org/TR/2001/REC-SVG-20010904/DTD/svg10.dtd">
<svg xmlns:svg="http://www.w3.org/2000/svg" xmlns="http://www.w3.org/2000/svg" version="1.0" width="100%" height="100%" viewBox="0 0 48 48" id="_brush05">
<defs id="defs2818"/>
<g id="brush05" style="display:inline">
<path d="M 42.78,6.60 C 42.25,6.20 41.72,6.66 41.06,7.19 40.40,7.72 27.92,18.75 26.47,20.00 c -1.45,1.25 -5.61,5.21 -6.40,6.00 -0.79,0.79 -1.32,1.38 -1.32,1.38 l -0.26,0.39 c 0,0 -0.39,0.19 -0.66,0.52 -0.26,0.33 -0.33,0.59 -0.33,0.59 0,0 -0.39,0.06 -0.79,0.39 -0.39,0.33 -4.09,4.22 -5.41,5.21 -1.32,0.99 -2.64,2.50 -2.97,2.77 -0.33,0.26 -0.99,0.99 -1.58,1.58 -0.59,0.59 -1.45,1.78 -1.58,2.17 -0.13,0.39 -0.33,1.12 -0.33,1.12 0,0 0.85,-0.19 1.25,-0.39 0.39,-0.19 3.49,-2.17 3.56,-2.24 0.06,-0.06 0.39,-0.19 0.79,-0.59 0.39,-0.39 1.18,-1.05 1.71,-1.65 0.52,-0.59 1.84,-2.17 2.90,-2.97 1.05,-0.79 3.82,-3.03 4.02,-3.30 0.19,-0.26 0.26,-0.46 0.26,-0.46 0,0 0.26,0 0.52,-0.19 0.26,-0.19 0.59,-0.52 0.59,-0.52 0,0 -0.13,-0.26 0.19,-0.33 0.33,-0.06 2.70,-2.31 4.35,-3.82 1.65,-1.51 12.67,-12.87 13.53,-13.73 0.85,-0.85 5.08,-4.81 4.22,-5.34 z" id="p2995" style="fill:#1b1a1f;fill-opacity:1;stroke:none"/>
<path d="m 42.40,6.46 -23.06,21.31 0.25,1.53 23.18,-22.09 c 0.00,-0.00 -0.00,-0.02 0,-0.03 0.12,-0.28 0.15,-0.49 0,-0.59 -0.12,-0.09 -0.25,-0.11 -0.37,-0.12 z" id="p3796" style="fill:#000000;fill-opacity:0.40;stroke:none;display:inline"/>
<path d="M 42.18,6.46 C 41.84,6.55 41.47,6.85 41.06,7.18 40.40,7.71 27.92,18.74 26.46,20 25.01,21.25 20.85,25.20 20.06,26 19.27,26.79 18.75,27.40 18.75,27.40 l -0.25,0.37 c 0,0 -0.42,0.20 -0.68,0.53 -0.26,0.33 -0.31,0.59 -0.31,0.59 0,0 -0.18,0.04 -0.40,0.15 l 0.12,0.28 c 0,0 8.13,-7.60 9.37,-8.78 C 27.73,19.47 40.29,8.31 42.37,6.46 c -0.06,-0.00 -0.11,-0.01 -0.18,0 z M 42.21,8.06 C 38.86,11.34 29.62,20.41 28.62,21.40 c -1.18,1.18 -8.15,7.37 -8.15,7.37 l 0.37,0.65 c 0.64,-0.43 2.70,-2.38 4.18,-3.75 1.65,-1.51 12.67,-12.89 13.53,-13.75 0.56,-0.56 2.59,-2.48 3.65,-3.87 z" id="p3847" style="fill:#dbdbdb;fill-opacity:0.15;stroke:none"/>
<path d="M 20.20,27.92 34.20,14.59" id="p3798" style="fill:none;stroke:#525252;stroke-width:0.30;stroke-linecap:round;stroke-linejoin:miter;stroke-miterlimit:4;stroke-opacity:0.13;stroke-dasharray:none;display:inline"/>
<path d="M 9.12,36.5 C 8.79,36.83 8.43,37.21 8.31,37.31 7.98,37.57 7.34,38.28 6.75,38.87 c -0.59,0.59 -1.46,1.79 -1.59,2.18 -0.13,0.39 -0.34,1.12 -0.34,1.12 0,0 0.85,-0.20 1.25,-0.40 0.39,-0.19 3.49,-2.15 3.56,-2.21 0.06,-0.06 0.41,-0.19 0.81,-0.59 0.09,-0.09 0.24,-0.22 0.37,-0.34 L 9.12,36.5 z" id="p3792" style="fill:#896159;fill-opacity:1;stroke:none;display:inline"/>
<path d="M 8.46,37.5 C 8.32,37.46 8.11,37.53 8,37.71 7.87,37.80 7.75,37.88 7.62,37.96 7.61,37.97 7.60,37.98 7.59,38 7.47,38.12 7.34,38.27 7.21,38.40 7.45,38.24 7.68,38.07 7.93,37.93 8.13,37.82 8.32,37.72 8.53,37.62 c -0.85,0.86 -1.83,1.60 -2.75,2.40 -0.01,0.02 -0.01,0.04 -0.03,0.06 -0.11,0.15 -0.22,0.29 -0.31,0.43 0.72,-0.66 1.41,-1.32 2.18,-1.93 0.34,-0.00 -0.34,0.52 -0.5,0.62 -0.50,0.28 -0.97,0.65 -1.28,1.15 -0.28,0.42 -0.54,0.87 -0.87,1.28 -0.04,0.15 -0.10,0.31 -0.12,0.37 C 5.09,41.87 5.37,41.74 5.65,41.62 5.39,41.81 5.11,42.01 4.84,42.18 4.85,42.18 4.99,42.12 5.12,42.09 5.31,41.95 5.50,41.83 5.68,41.68 6.04,41.40 6.48,41.26 6.93,41.25 7.17,41.10 7.32,41.02 7.62,40.84 7.75,40.69 8.04,40.53 8.15,40.43 8.33,40.32 8.53,40.21 8.71,40.12 8.74,40.11 8.78,40.10 8.81,40.09 c 0.24,-0.15 0.58,-0.39 0.65,-0.43 -0.01,0.00 -0.08,-0.06 0,-0.03 0.00,0.02 0.00,0.03 0,0.03 0.01,-0.00 0.12,-0.05 0.12,-0.06 -0.15,-0.14 -0.39,0.04 -0.62,0.21 0.02,-0.01 0.06,-0.03 0.15,0 -0.08,0.20 -0.23,0.04 -0.15,0 -0.13,0.10 -0.29,0.18 -0.40,0.21 -0.42,0.19 -0.94,0.82 -1.37,0.62 0.29,-0.42 0.81,-0.64 1.21,-0.96 0.69,-0.46 1.43,-0.91 2.12,-1.40 L 10.43,38.15 10.25,37.93 C 9.92,38.17 9.60,38.42 9.25,38.62 9.19,38.60 9.14,38.53 9.09,38.5 c 0.14,-0.04 0.32,-0.18 0.25,-0.37 -0.08,0.04 -0.17,0.09 -0.25,0.15 -0.10,0.08 -0.11,0.14 -0.12,0.18 0.02,0.00 0.06,0.01 0.09,0.03 -0.06,0.01 -0.13,0.01 -0.12,-0.03 -0.07,-0.01 -0.16,-0.00 -0.25,0.12 -0.70,0.54 -1.20,1.47 -2.15,1.62 C 6.06,40.18 6.74,39.67 6.87,39.53 7.43,39.00 8.10,38.56 8.56,37.93 8.68,37.69 8.60,37.53 8.46,37.5 z m 1.59,0.75 C 9.94,38.41 9.38,38.86 9.43,38.59 9.61,38.43 9.84,38.34 10.06,38.25 z M 8.21,39.37 C 8.10,39.49 7.99,39.63 7.87,39.75 7.91,39.73 7.95,39.70 8,39.68 8.01,39.95 7.64,40.00 7.65,39.90 7.27,40.22 6.86,40.49 6.43,40.75 6.85,40.28 7.38,39.97 7.87,39.59 7.98,39.52 8.10,39.44 8.21,39.37 z m -1.37,0.87 C 6.67,40.46 6.19,40.85 6.06,40.68 6.29,40.49 6.60,40.43 6.84,40.25 z m 0.5,0.09 c -0.19,0.37 -0.93,0.86 -1.12,0.71 0.32,-0.32 0.75,-0.47 1.12,-0.71 z m -1.31,0.21 c -0.08,0.33 -0.32,-0.05 0,0 z M 5.5,41.28 c 0.01,-0.01 0.07,-0.01 0.18,0 0.07,0.17 -0.22,0.04 -0.18,0 z" id="p3898" style="fill:#2c2219;fill-opacity:0.23;stroke:none;marker:none;visibility:visible;display:inline;overflow:visible;enable-background:accumulate"/>
<path d="m 8.59,37.43 c -0.54,0.40 -1.10,0.79 -1.62,1.21 -0.05,0.04 -0.10,0.08 -0.15,0.12 -0.02,0.02 -0.03,0.06 -0.06,0.09 -0.13,0.13 -0.28,0.31 -0.43,0.5 0.29,-0.18 0.59,-0.35 0.87,-0.56 -0.26,0.17 -0.72,0.67 -0.93,0.62 -0.07,0.09 -0.14,0.18 -0.21,0.28 0.16,-0.08 0.30,-0.14 0.31,-0.12 -0.17,0.16 -0.36,0.30 -0.56,0.43 C 5.69,40.15 5.63,40.26 5.56,40.37 5.73,40.29 5.92,40.22 6.09,40.12 7.22,39.54 8.33,38.92 9.46,38.34 8.81,38.37 8.34,38.91 7.75,39.12 7.12,39.42 6.49,39.75 5.87,40.06 6.41,39.46 7.30,39.39 7.87,38.84 8.30,38.52 8.71,38.17 9.15,37.87 8.85,37.82 8.55,38.01 8.28,38.21 8.46,38.09 8.61,37.94 8.71,37.75 8.26,38.07 7.80,38.37 7.34,38.68 7.70,38.41 8.07,38.14 8.43,37.87 8.43,37.69 7.96,38.06 8.34,37.78 8.46,37.71 8.66,37.61 8.59,37.43 z M 10.31,38 c -0.42,0.06 -0.67,0.54 -1.03,0.75 -1.28,1.02 -2.84,1.58 -4.18,2.53 -0.01,0.05 -0.01,0.07 -0.03,0.12 1.18,-0.72 2.40,-1.40 3.59,-2.12 0.58,-0.39 1.13,-0.81 1.68,-1.25 L 10.31,38 z M 8.25,38.43 C 7.90,38.65 7.23,39.32 7.03,39.15 7.43,38.90 7.85,38.69 8.25,38.43 z" id="p3792-1" style="fill:#c79e7f;fill-opacity:0.36;stroke:none;display:inline"/>
<path d="M 19.06,27.06 C 19.00,27.12 18.75,27.40 18.75,27.40 l -0.25,0.37 c 0,0 -0.42,0.20 -0.68,0.53 -0.26,0.33 -0.31,0.59 -0.31,0.59 0,0 -0.38,0.07 -0.78,0.40 -0.39,0.33 -4.11,4.22 -5.43,5.21 -1.30,0.97 -2.58,2.45 -2.93,2.75 0.52,0.58 1.10,1.28 1.65,2.03 0.12,-0.08 0.27,-0.17 0.43,-0.34 0.39,-0.39 1.19,-1.06 1.71,-1.65 0.52,-0.59 2.06,-2.08 3.11,-2.87 1.05,-0.79 3.61,-3.13 3.81,-3.40 0.19,-0.26 0.25,-0.46 0.25,-0.46 0,0 0.26,0.01 0.53,-0.18 0.26,-0.19 0.59,-0.53 0.59,-0.53 0,0 -0.14,-0.27 0.18,-0.34 0.07,-0.01 0.26,-0.12 0.5,-0.31 -0.15,-0.56 -0.38,-1.11 -0.75,-1.40 -0.27,-0.21 -0.75,-0.46 -1.34,-0.71 z" id="p3794" style="fill:#977f79;fill-opacity:1;stroke:none;display:inline"/>
<path d="m 17.43,28.93 c -0.08,0.01 -0.37,0.08 -0.71,0.37 -0.20,0.17 -1.32,1.30 -2.53,2.5 1.29,-0.82 1.89,-1.13 2.21,-0.96 0.48,0.25 0.81,0.58 0.65,0.78 -0.16,0.19 -3.04,2.38 -3.59,3.03 -0.54,0.64 -2.17,2.70 -0.75,1.31 1.42,-1.38 5.48,-5.11 5.84,-5.37 0.35,-0.25 0.07,-0.86 -0.34,-1.18 -0.15,-0.11 -0.44,-0.28 -0.78,-0.46 z" id="p3980" style="fill:#27110b;fill-opacity:0.32;stroke:none;display:inline"/>
<path d="m 16.96,31.44 1.47,-1.32" id="p4138" style="fill:none;stroke:#423434;stroke-width:0.80;stroke-linecap:round;stroke-linejoin:miter;stroke-miterlimit:4;stroke-opacity:0.57;stroke-dasharray:none"/>
<path d="m 30.59,16.84 5.85,-5.17" id="p3872" style="fill:none;stroke:#747474;stroke-width:0.5;stroke-linecap:round;stroke-linejoin:miter;stroke-miterlimit:4;stroke-opacity:0.16;stroke-dasharray:none"/>
<path d="m 14.03,33.71 c -0.18,0.10 -1.72,1.25 -2.06,1.5 -0.45,0.32 -0.74,0.37 -0.96,0.43 -0.22,0.06 -0.39,0.42 -0.68,0.81 -0.23,0.30 -1.02,1.09 -1.40,1.46 0.25,0.30 0.51,0.62 0.78,0.96 0.44,-0.49 1.12,-1.21 1.5,-1.31 0.51,-0.12 0.71,-0.58 0.75,-0.81 0.03,-0.22 1.15,-1.31 1.15,-1.31 0,0 -0.73,-0.33 0.59,-1.43 0.33,-0.27 0.40,-0.34 0.34,-0.31 z" id="p3971" style="fill:#231713;fill-opacity:0.74;stroke:none;display:inline"/>
<path d="M 8.98,37.68 C 9.56,37.20 10.40,36.20 10.53,36.03" id="p3974" style="fill:none;stroke:#fbfbfb;stroke-width:0.40;stroke-linecap:round;stroke-linejoin:miter;stroke-miterlimit:4;stroke-opacity:0.83;stroke-dasharray:none;display:inline"/>
<path d="m 15.81,31.34 c -0.10,-0.12 -2.02,2.16 -2.75,1.59 -0.52,0.50 -0.95,0.89 -1.34,1.21 0.36,0.44 0.69,0.85 0.56,1.03 -0.20,0.26 0.23,0.72 0.43,0.5 0.20,-0.22 2.04,-2.12 2.34,-2.34 0.30,-0.22 1.45,-1.22 1.25,-1.46 -0.20,-0.24 -0.37,-0.38 -0.5,-0.53 z" id="p4040" style="fill:#b3c9ce;fill-opacity:0.34;stroke:none;display:inline"/>
<path d="m 11.31,34.5 c -0.00,0.00 -0.02,0.02 -0.03,0.03 -0.32,0.24 -0.82,0.71 -1.13,0.99 0.40,0.32 0.72,0.57 0.73,0.70 0.02,0.24 0.54,1.07 0.83,0.73 0.13,-0.16 0.67,-0.57 0.59,-0.71 -0.08,-0.14 -0.78,-0.63 -0.68,-0.87 0.08,-0.19 0.18,-0.37 -0.31,-0.87 z" id="p4037" style="fill:#953c1a;fill-opacity:0.50;stroke:none;display:inline"/>
<path d="m 11.37,35.26 c 0,0 1.55,-0.93 1.90,-1.19 0.35,-0.25 4.71,-4.26 4.71,-4.26" id="p3977" style="fill:none;stroke:#fbfbfb;stroke-width:0.30;stroke-linecap:round;stroke-linejoin:miter;stroke-miterlimit:4;stroke-opacity:0.83;stroke-dasharray:none;display:inline"/>
<path d="M 9.11,38.09 10.90,36.14" id="p4025" style="fill:none;stroke:#c3dfef;stroke-width:1px;stroke-linecap:butt;stroke-linejoin:miter;stroke-opacity:0.19;display:inline"/>
<path d="m 11.40,37.17 0.35,-0.29" id="p4027" style="fill:none;stroke:#f0f0f0;stroke-width:0.2;stroke-linecap:round;stroke-linejoin:miter;stroke-miterlimit:4;stroke-opacity:0.81;stroke-dasharray:none;display:inline"/>
<path d="m 12.06,36.27 0.08,-0.08" id="p4029" style="fill:none;stroke:#f8f8f8;stroke-width:0.30;stroke-linecap:round;stroke-linejoin:miter;stroke-miterlimit:4;stroke-opacity:0.80;stroke-dasharray:none;display:inline"/>
<path d="m 12.95,35.38 1.17,-1.22" id="p4031" style="fill:none;stroke:#f2f2f2;stroke-width:0.2;stroke-linecap:round;stroke-linejoin:miter;stroke-miterlimit:4;stroke-opacity:0.73;stroke-dasharray:none;display:inline"/>
<path d="m 11.77,35.70 c -0.16,0.17 0.17,0.49 0.30,0.46 0.12,-0.03 0.87,-0.85 0.76,-0.92 -0.10,-0.07 -0.55,0.30 -0.64,0.32 -0.08,0.01 -0.26,-0.01 -0.42,0.14 z" id="p4089" style="fill:#f89e1e;fill-opacity:0.66;stroke:none;display:inline"/>
<path d="m 10.63,35.67 0.53,-0.42" id="p4092" style="fill:none;stroke:#e69d11;stroke-width:0.30;stroke-linecap:round;stroke-linejoin:miter;stroke-miterlimit:4;stroke-opacity:0.89;stroke-dasharray:none;display:inline"/>
<path d="m 10.97,36.27 0.46,0.58" id="p4095" style="fill:none;stroke:#f1821e;stroke-width:0.30;stroke-linecap:round;stroke-linejoin:miter;stroke-miterlimit:4;stroke-opacity:0.38;stroke-dasharray:none;display:inline"/>
<path d="m 14.86,34.28 4.20,-3.67" id="p4098" style="fill:none;stroke:#f7f7f7;stroke-width:0.30;stroke-linecap:round;stroke-linejoin:miter;stroke-miterlimit:4;stroke-opacity:0.25;stroke-dasharray:none"/>
<path d="M 19.06,27.06 C 19.00,27.12 18.75,27.40 18.75,27.40 l -0.25,0.37 c 0,0 -0.42,0.20 -0.68,0.53 -0.17,0.22 -0.24,0.36 -0.28,0.46 L 17.62,28.81 c 0.55,0.36 1.16,0.84 1.31,1.06 0.14,0.21 0.25,0.35 0.34,0.25 0.08,-0.10 0.87,-0.71 0.81,-0.90 C 20.02,29.02 19.90,28.66 19.68,28.75 19.47,28.83 19.10,29.10 19,29.06 c -0.10,-0.04 -0.25,-0.36 -0.06,-0.40 0.19,-0.04 0.62,-0.36 0.75,-0.28 0.12,0.08 0.51,0.68 0.62,0.68 0.06,0 0.35,-0.26 0.59,-0.53 -0.13,-0.30 -0.28,-0.57 -0.5,-0.75 -0.27,-0.21 -0.75,-0.46 -1.34,-0.71 z" id="p4100" style="fill:#735b56;fill-opacity:1;stroke:none;display:inline"/>
<path d="m 16.51,30.10 c 0.33,-0.28 0.99,-0.89 1.23,-0.91 0.23,-0.01 0.22,-0.42 0.28,-0.50 0.06,-0.08 0.59,-0.55 0.67,-0.55 0.08,0 0.25,-0.05 0.30,-0.33 0.05,-0.28 0.28,-0.47 0.28,-0.47" id="p4142" style="fill:none;stroke:#c88c24;stroke-width:0.5;stroke-linecap:round;stroke-linejoin:miter;stroke-miterlimit:4;stroke-opacity:0.31;stroke-dasharray:none;display:inline"/>
<path d="m 18.00,28.75 0.59,0.57" id="p4126" style="fill:none;stroke:#f1f1f1;stroke-width:0.40;stroke-linecap:round;stroke-linejoin:miter;stroke-miterlimit:4;stroke-opacity:0.86;stroke-dasharray:none;display:inline"/>
<path d="m 19.80,28.00 0.38,-0.25" id="p4130" style="fill:none;stroke:#fbfbfb;stroke-width:0.40;stroke-linecap:round;stroke-linejoin:miter;stroke-miterlimit:4;stroke-opacity:0.90;stroke-dasharray:none;display:inline"/>
<path d="m 18.99,28.79 c 0.29,-0.10 0.61,-0.25 0.72,-0.12 0.10,0.12 0.55,0.55 0.55,0.68 0,0.12 -0.70,0.74 -0.70,0.74" id="p4132" style="fill:none;stroke:#d1d1d1;stroke-width:0.40;stroke-linecap:round;stroke-linejoin:miter;stroke-miterlimit:4;stroke-opacity:0.53;stroke-dasharray:none;display:inline"/>
<path d="m 18.77,29.07 0.29,-0.25" id="p4128" style="fill:none;stroke:#f8f8f8;stroke-width:0.40;stroke-linecap:round;stroke-linejoin:miter;stroke-miterlimit:4;stroke-opacity:0.92;stroke-dasharray:none;display:inline"/>
<path d="m 16.62,31.87 1.87,-1.62" id="p4140" style="fill:none;stroke:#e17070;stroke-width:0.40;stroke-linecap:round;stroke-linejoin:miter;stroke-miterlimit:4;stroke-opacity:0.14;stroke-dasharray:none"/>
<path d="M 20.26,28.61 20.46,28.45" id="p4147" style="fill:none;stroke:#fdfdfd;stroke-width:0.2;stroke-linecap:round;stroke-linejoin:miter;stroke-miterlimit:4;stroke-opacity:0.76;stroke-dasharray:none;display:inline"/>
<path d="m 19.07,29.66 0.28,-0.25" id="p4145" style="fill:none;stroke:#f6f6f6;stroke-width:0.2;stroke-linecap:round;stroke-linejoin:miter;stroke-miterlimit:4;stroke-opacity:0.93;stroke-dasharray:none;display:inline"/>
<path d="m 18.97,29.41 0.08,0.08" id="p4155" style="fill:none;stroke:#f1a74c;stroke-width:0.2;stroke-linecap:round;stroke-linejoin:miter;stroke-miterlimit:4;stroke-opacity:0.86;stroke-dasharray:none;display:inline"/>
<path d="m 20.12,28.33 0.08,0.10" id="p4151" style="color:#000000;fill:none;stroke:#f1a74c;stroke-width:0.2;stroke-linecap:round;stroke-linejoin:miter;stroke-miterlimit:4;stroke-opacity:0.86;stroke-dasharray:none;stroke-dashoffset:0;marker:none;visibility:visible;display:inline;overflow:visible;enable-background:accumulate"/>
<path d="m 19.09,31.03 c 0.19,-0.26 0.25,-0.46 0.25,-0.46 0,0 0.26,0.01 0.53,-0.18 0.26,-0.19 0.59,-0.53 0.59,-0.53 0,0 -0.14,-0.27 0.18,-0.34 0.07,-0.01 0.26,-0.12 0.5,-0.31 -0.15,-0.56 -0.38,-1.11 -0.75,-1.40 C 20.13,27.56 19.64,27.32 19.06,27.06 19.00,27.12 18.75,27.40 18.75,27.40 l -0.25,0.37 c 0,0 -0.42,0.20 -0.68,0.53 -0.26,0.33 -0.31,0.59 -0.31,0.59 0,0 -0.38,0.07 -0.78,0.40 -0.39,0.33 -4.11,4.22 -5.43,5.21 -1.30,0.97 -2.58,2.45 -2.93,2.75 0.52,0.58 1.10,1.28 1.65,2.03 0.12,-0.08 0.27,-0.17 0.43,-0.34 0.39,-0.39 1.19,-1.06 1.71,-1.65" id="p3794-8" style="fill:none;stroke:#302020;stroke-width:0.30;stroke-miterlimit:4;stroke-opacity:1;stroke-dasharray:none;display:inline"/>
<path d="M 42.78,6.60 C 42.25,6.20 41.72,6.66 41.06,7.19 40.40,7.72 27.92,18.75 26.47,20.00 c -1.45,1.25 -5.61,5.21 -6.40,6.00 -0.79,0.79 -1.32,1.38 -1.32,1.38 l -0.26,0.39 c 0,0 -0.39,0.19 -0.66,0.52 -0.26,0.33 -0.33,0.59 -0.33,0.59 0,0 -0.39,0.06 -0.79,0.39 -0.39,0.33 -4.09,4.22 -5.41,5.21 -1.32,0.99 -2.64,2.50 -2.97,2.77 -0.33,0.26 -0.99,0.99 -1.58,1.58 -0.59,0.59 -1.45,1.78 -1.58,2.17 -0.13,0.39 -0.33,1.12 -0.33,1.12 0,0 0.85,-0.19 1.25,-0.39 0.39,-0.19 3.49,-2.17 3.56,-2.24 0.06,-0.06 0.39,-0.19 0.79,-0.59 0.39,-0.39 1.16,-1.07 1.71,-1.65 0.61,-0.63 2.26,-2.17 2.98,-2.80 0.99,-0.86 3.74,-3.20 3.94,-3.46 0.19,-0.26 0.26,-0.46 0.26,-0.46 0,0 0.26,0 0.52,-0.19 0.26,-0.19 0.59,-0.52 0.59,-0.52 0,0 -0.13,-0.26 0.19,-0.33 0.33,-0.06 2.70,-2.31 4.35,-3.82 1.65,-1.51 12.67,-12.87 13.53,-13.73 0.85,-0.85 5.08,-4.81 4.22,-5.34 z" id="stroke01" style="fill:none;stroke:#000000;stroke-width:0.5;stroke-miterlimit:4;stroke-opacity:1;stroke-dasharray:none"/>
</g>
</svg>
