<?xml version="1.0" encoding="UTF-8" standalone="no"?>
<!DOCTYPE svg PUBLIC "-//W3C//DTD SVG 1.0//EN" "http://www.w3.org/TR/2001/REC-SVG-20010904/DTD/svg10.dtd">
<svg xmlns:svg="http://www.w3.org/2000/svg" xmlns="http://www.w3.org/2000/svg" version="1.0" width="100%" height="100%" viewBox="0 0 48 48" id="_brush04">
<defs id="defs2818"/>
<g id="brush04" style="display:inline">
<path d="M 43,6.03 C 42.56,6.06 42.21,6.31 41.84,6.5 C 41.24,6.8 38.64,9.05 37.19,10.15 C 35.74,11.25 32.37,14.54 30.57,16.15 C 28.77,17.75 23.06,23.15 21.67,24.61 C 20.7,25.63 19.58,25.55 18.42,25.95 C 17.27,26.35 15.88,27.36 15.17,27.91 C 14.47,28.46 11.73,31.17 11.17,31.72 C 10.62,32.27 10.61,32.55 10.36,32.75 C 10.09,32.98 8.05,34.23 6.25,35.93 C 4.44,37.63 1.74,41.64 2.75,43 C 3.75,44.35 8.11,42.26 9.46,41.41 C 10.81,40.56 13.3,38.06 13.8,37.51 C 14.3,36.96 14.24,37.22 14.39,37.01 C 14.54,36.81 20.32,32.22 21.14,31.01 C 21.66,30.24 22.54,28.15 22.99,27.35 C 23.44,26.55 29.35,21.94 30.75,20.74 C 32.15,19.54 39.66,13.11 40.46,12.31 C 41.26,11.51 42.56,10.27 43.18,9.64 C 43.9,8.9 45.42,7.6 43.87,6.25 C 43.53,6.06 43.26,6 43,6.03 z M 43.12,7.31 C 43.56,7.33 43.63,7.58 43.49,7.68 C 43.31,7.81 42.82,8.29 42.68,8.43 C 42.55,8.57 41.9,8.91 41.5,8.78 C 41.09,8.64 40.76,8.51 41.03,8.43 C 41.29,8.35 41.44,8.27 41.68,8.03 C 41.92,7.79 42.1,7.42 42.53,7.34 C 42.77,7.29 42.97,7.3 43.12,7.31 L 43.12,7.31 z" id="p2938" style="fill:#606465;fill-opacity:1;stroke:none"/>
<path d="M 13.06,29.87 C 12.24,30.67 11.43,31.47 11.16,31.74 C 10.61,32.29 10.6,32.57 10.35,32.77 C 10.09,32.98 8.05,34.23 6.25,35.93 C 4.44,37.63 1.74,41.64 2.75,43 C 3.75,44.35 8.11,42.25 9.46,41.4 C 10.81,40.55 13.31,38.05 13.81,37.5 C 14.31,36.94 14.25,37.2 14.4,37 C 14.45,36.93 15.57,35.98 16.5,35.21 C 15.67,33.06 14.61,31.05 13.06,29.87 z" id="p3745" style="fill:#ae9979;fill-opacity:1;stroke:none;display:inline"/>
<path d="M 43,6.03 C 42.56,6.06 42.21,6.31 41.84,6.5 C 41.32,6.75 39.4,8.39 37.93,9.56 C 37.97,9.91 38.08,10.23 38.33,10.43 C 38.87,10.85 39.88,10.69 40.23,11.11 C 40.41,11.33 40.58,11.57 40.73,12.01 C 41.53,11.22 42.63,10.15 43.19,9.58 C 43.89,8.89 45.42,7.6 43.87,6.25 C 43.53,6.06 43.26,6 43,6.03 z M 42.87,7.31 C 42.96,7.31 43.04,7.31 43.12,7.31 C 43.56,7.33 43.63,7.58 43.49,7.68 C 43.31,7.81 42.82,8.29 42.68,8.43 C 42.55,8.57 41.9,8.91 41.5,8.78 C 41.09,8.64 40.76,8.51 41.03,8.43 C 41.29,8.35 41.44,8.27 41.68,8.03 C 41.92,7.79 42.1,7.42 42.53,7.34 C 42.65,7.31 42.77,7.31 42.87,7.31 z" id="p3739" style="fill:#d3434d;fill-opacity:1;fill-rule:nonzero;stroke:none;marker:none;visibility:visible;display:inline;overflow:visible;enable-background:accumulate"/>
<path d="M 23.12,23.15 C 22.51,23.74 21.95,24.3 21.66,24.61 C 20.96,25.34 20.17,25.48 19.35,25.67 C 19.54,26.01 19.75,26.29 19.97,26.45 C 20.93,27.14 21.24,27.13 21.93,27.79 C 22.06,27.92 22.21,28.22 22.36,28.6 C 22.58,28.12 22.82,27.6 22.98,27.32 C 23.14,27.03 24.14,26.17 25.29,25.2 C 24.7,24.44 24.06,23.79 23.11,23.14 L 23.12,23.15 z" id="p3742" style="fill:#d3434d;fill-opacity:1;stroke:none;display:inline"/>
<path d="M 20.46,25.4 C 19.8,25.65 19.11,25.71 18.4,25.96 C 17.25,26.36 15.86,27.37 15.15,27.92 C 14.56,28.38 12.7,30.19 11.75,31.13 C 13.31,32.66 14.82,34.12 16.21,35.44 C 18,33.96 20.56,31.83 21.14,30.98 C 21.62,30.27 22.38,28.48 22.85,27.58 C 22.45,26.2 21.69,25.57 20.48,25.4 C 20.47,25.4 20.46,25.4 20.45,25.4 L 20.46,25.4 z" id="p4225" style="fill:#242323;fill-opacity:0.12;stroke:none"/>
<path d="M 16.58,29.55 C 16.58,29.55 18.5,27.75 19.19,27.4" id="p4250" style="fill:none;stroke:#ababab;stroke-width:1.60;stroke-linecap:round;stroke-linejoin:miter;stroke-miterlimit:4;stroke-dasharray:none;stroke-opacity:0.12"/>
<path d="M 44.53,7.25 C 43.04,8.4 41.32,9.93 40.88,10.34 C 40,11.15 37.6,12.62 37.2,13.02 C 36.8,13.42 26.63,22.75 25.2,23.77 C 23.78,24.78 22.21,26.39 21.39,27.2 C 20.58,28.01 19.51,29.23 17.61,31.54 C 17.65,31.58 18.02,32.47 18.48,33.5 C 19.68,32.47 20.83,31.47 21.15,31 C 21.67,30.22 22.54,28.14 23,27.34 C 23.45,26.54 29.37,21.92 30.78,20.72 C 32.18,19.52 39.69,13.09 40.49,12.29 C 41.29,11.49 42.59,10.24 43.2,9.61 C 43.7,9.09 44.7,8.24 44.51,7.27 L 44.53,7.25 z" id="p4098" style="fill:#191815;fill-opacity:0.22;stroke:none;display:inline"/>
<path d="M 14.59,31.46 C 13.72,32.11 12.87,32.79 12,33.43 C 12.06,33.29 12.03,33.14 11.93,33 C 11.69,33.78 10.84,34.28 10.22,34.78 C 9.27,35.51 8.21,36.06 7.16,36.65 C 8.62,35.31 9.93,33.74 11.66,32.72 C 11.44,32.61 11.17,32.68 11.04,33.09 C 9.99,33.78 8.93,34.52 8.08,35.46 C 6.8,36.49 5.45,37.45 4.3,38.64 C 4.17,38.69 3.97,38.85 3.8,39.01 C 3.73,39.1 3.69,39.17 3.65,39.25 C 3.7,39.21 3.72,39.21 3.84,39.12 C 4.65,38.49 5.5,37.89 6.37,37.34 C 5.3,38.26 4.35,39.33 3.18,40.12 C 3.14,40.22 3.07,40.31 3.03,40.4 C 3.19,40.29 3.36,40.16 3.43,40.03 C 3.76,39.77 4.1,39.55 4.46,39.34 C 3.85,39.75 3.38,40.34 2.87,40.87 C 2.75,41.18 2.64,41.47 2.59,41.75 C 3.46,41.12 4.35,40.46 5.12,39.71 C 5.13,40.09 4.92,40.36 4.65,40.59 C 4.83,40.43 5.01,40.28 5.18,40.12 C 4.85,40.69 4.45,41.21 4,41.68 C 4.03,41.63 4.1,41.57 4.21,41.53 C 4.04,41.96 3.88,41.84 4,41.68 C 3.58,42.12 3.14,42.52 2.71,42.93 C 2.73,42.95 2.73,42.98 2.75,43 C 2.75,43.01 2.77,43.01 2.78,43.03 C 2.94,43.03 2.99,43.1 2.96,43.21 C 2.98,43.22 3.02,43.22 3.05,43.24 C 3.27,42.99 3.51,42.74 3.67,42.46 C 4.28,41.78 5.12,41.37 5.88,40.9 C 6.34,40.48 6.71,39.91 7.31,39.65 C 6.1,40.99 4.63,42.08 3.35,43.36 C 3.38,43.36 3.41,43.38 3.44,43.39 C 4,42.8 4.59,42.23 5.28,41.77 C 4.75,42.34 4.18,42.89 3.6,43.42 C 3.63,43.42 3.68,43.42 3.72,43.42 C 3.94,42.98 4.84,42.73 5.03,42.21 C 5.93,41.26 6.8,40.27 7.9,39.53 C 6.79,40.91 5.59,42.23 4.25,43.4 C 4.43,43.39 4.58,43.37 4.75,43.34 C 4.98,43.22 5.23,43.12 5.37,43.18 C 5.65,43.11 5.92,43.04 6.21,42.93 C 6.43,42.78 6.66,42.62 6.9,42.5 C 6.79,42.6 6.67,42.7 6.56,42.81 C 6.63,42.78 6.71,42.77 6.78,42.75 C 7.07,42.51 7.38,42.29 7.78,42.19 C 7.64,42.31 7.47,42.42 7.32,42.53 C 7.5,42.45 7.7,42.37 7.88,42.28 C 7.91,42.26 7.96,42.25 8,42.22 C 8.13,42.13 8.25,42.04 8.4,41.97 C 8.39,41.98 8.39,42.01 8.37,42.03 C 8.45,41.99 8.5,41.95 8.58,41.91 C 8.6,41.9 8.61,41.87 8.64,41.85 C 8.91,41.6 9.22,41.4 9.57,41.29 C 9.57,41.3 9.52,41.33 9.51,41.35 C 9.82,41.15 10.21,40.87 10.6,40.54 C 10.38,40.17 11.44,39.71 11.63,39.33 C 13.08,37.9 14.54,36.47 15.66,34.74 C 16.05,34.77 16.05,34.41 15.94,34.18 C 14.01,36.92 11.72,39.45 8.94,41.36 C 8.71,41.85 8.48,41.22 8.94,41.27 C 9.23,40.4 8.1,41.41 7.93,41.68 C 7.79,42.05 6.76,42.1 7.4,41.65 C 8.67,40.47 9.82,39.18 11.09,38 C 12.63,36.63 14.33,35.42 15.93,34.1 C 15.83,33.95 15.65,33.92 15.53,34.28 C 13.93,35.56 12.34,36.85 10.72,38.12 C 10.16,37.26 11.19,36.5 11.78,36 C 13.02,34.85 14.18,33.52 14.9,31.97 C 14.9,31.96 14.9,31.95 14.9,31.94 C 14.86,31.87 14.82,31.81 14.78,31.75 C 14.34,33.33 13,34.44 12,35.68 C 11.09,36.32 10.54,37.41 9.47,37.86 C 9.73,36.82 10.75,36.23 11.18,35.27 C 10.5,35.13 10.5,36.82 9.68,36.27 C 9.8,35.59 10.61,35.15 10.99,34.56 C 12.05,33.39 13.38,32.51 14.67,31.6 C 14.65,31.56 14.61,31.52 14.58,31.48 L 14.59,31.46 z M 15.93,34.08 C 15.94,34.09 15.95,34.12 15.96,34.14 C 15.97,34.12 16,34.11 16.02,34.08 C 16.02,34.07 16,34.05 16,34.03 C 15.98,34.04 15.97,34.07 15.94,34.09 L 15.93,34.08 z M 4.65,40.58 C 4.38,40.82 4.04,41.02 3.81,41.25 C 3.35,41.67 2.97,42.15 2.59,42.65 C 2.6,42.69 2.6,42.74 2.62,42.78 C 2.83,42.51 3.05,42.27 3.25,42 C 3.68,41.5 4.17,41.03 4.65,40.59 L 4.65,40.58 z M 11.65,32.71 C 11.76,32.77 11.86,32.89 11.93,33 C 11.98,32.85 12,32.7 12,32.53 C 11.89,32.59 11.77,32.65 11.66,32.71 L 11.65,32.71 z M 9.28,34.08 C 9.24,34.13 9.35,34.32 9.37,34.12 C 9.32,34.08 9.29,34.08 9.28,34.09 L 9.28,34.08 z M 11.15,34.17 C 10.26,35.25 9.39,36.36 8.37,37.31 C 8.5,37.23 8.63,37.18 8.75,37.09 C 8.02,37.86 7.03,38.29 6.09,38.75 C 6.69,38.04 7.59,37.76 8.37,37.31 C 8.03,37.43 7.66,37.5 7.28,37.59 C 6.57,38.25 5.69,38.71 4.94,39.34 C 5.62,38.71 6.31,38.05 7.15,37.63 C 6.87,37.7 6.59,37.8 6.34,37.94 C 6.38,37.91 6.42,37.86 6.46,37.82 C 6.73,37.55 7.69,37.07 7.55,36.98 C 6.83,37.13 6.45,37.87 5.77,38.1 C 5.9,37.73 6.59,37.29 7,36.96 C 8.35,36 9.88,35.26 11.15,34.18 L 11.15,34.17 z M 7.15,37.6 C 7.19,37.59 7.23,37.58 7.27,37.57 C 7.31,37.53 7.37,37.5 7.42,37.45 C 7.32,37.49 7.24,37.55 7.14,37.6 L 7.15,37.6 z M 8.02,35.64 C 7.36,36.42 6.49,36.98 5.71,37.64 C 6.25,36.75 7.27,36.33 8.02,35.64 z M 10.5,36.06 C 9.97,36.79 9.43,37.52 8.78,38.15 C 9.13,37.3 9.89,36.72 10.5,36.06 z M 9.72,36.71 C 9.07,37.6 8.06,38.12 7.29,38.89 C 7.97,38.23 8.58,37.48 9.29,36.83 C 9.43,36.77 9.57,36.74 9.72,36.71 z M 8.19,37.71 C 7.39,38.34 6.48,38.85 5.69,39.52 C 6.12,38.49 7.38,38.33 8.19,37.71 z M 10.37,37.71 C 10.47,38.76 9.32,39.2 8.62,39.74 C 8.26,40.06 7.6,40.91 7.25,40.67 C 7.72,39.67 8.79,39.15 9.5,38.33 C 9.76,38.09 10.03,37.85 10.37,37.71 z M 9.87,37.8 C 9.09,38.62 8.21,39.37 7.21,39.9 C 8.07,39.18 8.77,38.19 9.87,37.81 L 9.87,37.8 z M 5.21,38 C 5.21,38.22 5.03,38 5.21,38 z M 8.5,38.03 C 7.73,38.81 6.92,39.57 6.07,40.28 C 6.75,39.41 7.58,38.65 8.5,38.03 z M 7.87,38.12 C 6.91,39.13 5.97,40.17 4.81,40.96 C 5.37,39.62 6.67,38.84 7.87,38.12 z M 8.46,38.33 C 8.32,38.61 8,38.59 8.46,38.33 z M 5.78,38.37 C 5.19,38.84 4.4,39.85 3.93,40 C 4.49,39.39 5.14,38.88 5.78,38.37 z M 10.18,38.68 C 8.87,40.16 7.39,41.49 5.93,42.83 C 5.41,43.24 4.69,42.83 5.47,42.37 C 6.51,41.3 7.88,40.65 8.97,39.62 C 9.36,39.3 9.77,38.99 10.18,38.69 L 10.18,38.68 z M 7.97,38.96 C 7.72,39.39 7.35,39.25 7.97,38.96 z M 4.75,39.06 C 4.76,39.32 4.56,39.1 4.75,39.06 z M 5.25,39.21 C 5.19,39.29 5.11,39.31 5.07,39.33 C 5.1,39.31 5.15,39.27 5.25,39.21 z M 5.12,39.56 C 4.49,40.44 3.41,40.8 2.66,41.56 C 3.35,40.75 4.15,40.02 5.12,39.56 z M 6.77,39.87 C 6.48,40.33 6.24,40.11 6.77,39.87 z M 6.25,39.9 C 5.68,40.75 4.77,41.26 4.03,41.93 C 4.57,41.06 5.6,40.68 6.25,39.9 z M 9.37,40.58 C 9.04,40.64 9.39,40.83 9.37,40.58 z M 6,40.65 C 5.87,41.02 5.51,40.83 6,40.65 z M 10.15,40.65 C 10.18,41.09 9.41,40.96 10,40.71 L 10.15,40.65 z M 8.81,41.08 C 8.75,41.53 7.67,41.9 8.44,41.33 C 8.55,41.25 8.68,41.15 8.81,41.08 z" id="p3851" style="fill:#dacb9d;fill-opacity:0.43;stroke:none;marker:none;visibility:visible;display:inline;overflow:visible;enable-background:accumulate"/>
<path d="M 13.06,29.87 C 12.24,30.67 11.43,31.47 11.16,31.74 C 10.61,32.29 10.6,32.57 10.35,32.77 C 10.32,32.79 10.02,32.97 9.92,33.05 C 11.25,33.72 12.53,34.87 13.7,37.61 C 13.72,37.58 13.8,37.51 13.82,37.49 C 14.32,36.94 14.26,37.2 14.41,36.99 C 14.45,36.93 15.57,35.98 16.5,35.21 C 15.67,33.06 14.61,31.05 13.06,29.87 z" id="p3826" style="fill:#d6c2a4;fill-opacity:0.33;stroke:none"/>
<path d="M 13.4,30.15 C 12.45,31.43 11.29,32.58 10.03,33.58 C 10.44,33.27 10.86,32.96 11.28,32.65 C 12.09,31.93 12.82,31.11 13.46,30.22 C 13.44,30.21 13.42,30.18 13.4,30.16 L 13.4,30.15 z M 15.33,32.74 C 15.29,32.77 15.25,32.8 15.21,32.83 C 15.28,32.83 15.34,32.87 15.42,32.89 C 15.4,32.85 15.37,32.8 15.34,32.75 L 15.33,32.74 z M 15.21,32.83 C 14.53,32.83 14.07,33.64 13.56,34.08 C 14.11,33.67 14.65,33.24 15.21,32.83 z M 13.59,32.83 C 13.01,32.81 12.59,33.4 12.13,33.7 C 12.14,33.7 12.13,33.71 12.16,33.73 C 12.17,33.75 12.16,33.78 12.16,33.79 C 12.14,33.79 12.07,33.76 12.04,33.73 C 12.01,33.74 11.99,33.77 11.95,33.79 C 11.96,33.78 12,33.79 12.07,33.82 C 12.06,34.01 11.91,33.83 11.95,33.79 C 11.81,33.84 11.65,33.83 11.49,33.79 C 10.79,34.99 9.36,35.54 8.43,36.57 C 8.08,36.92 7.05,37.85 7,37.43 C 8.38,36.16 9.9,35.03 11.25,33.72 C 11.23,33.71 11.21,33.71 11.19,33.69 C 10.05,34.22 9.48,35.45 8.41,36.09 C 6.6,37.65 4.87,39.35 2.91,40.74 C 2.89,40.79 2.87,40.84 2.85,40.89 C 3.69,40.29 4.55,39.72 5.31,39.02 C 4.47,39.87 3.61,40.71 2.78,41.58 C 2.73,41.58 2.69,41.61 2.63,41.64 C 2.62,41.64 2.6,41.64 2.6,41.64 C 2.56,41.79 2.57,41.93 2.56,42.06 C 3.01,41.76 3.46,41.45 3.84,41.09 C 3.55,41.47 3.18,41.76 2.81,42.06 C 2.53,42.1 2.14,42.4 2.43,42.62 C 2.69,42.7 2.94,42.5 3.15,42.37 C 3.46,42.15 3.55,42.09 3.84,41.84 C 4.38,41.42 4.88,40.93 5.5,40.62 C 5.68,40.49 6.26,40.51 5.9,40.8 C 5.73,41.08 5.07,41.12 5.15,41.48 C 5.16,41.49 5.19,41.49 5.21,41.51 C 4.41,42.02 3.59,42.51 2.78,43.01 C 2.79,43.03 2.82,43.05 2.84,43.07 C 3.63,42.53 4.54,42.11 5.37,41.62 C 4.65,42.14 3.93,42.67 3.21,43.18 C 3.26,43.15 3.34,43.12 3.43,43.09 L 3.52,43.03 L 3.61,42.97 C 3.61,43.23 3.41,43.33 3.27,43.34 C 3.3,43.34 3.33,43.36 3.36,43.37 C 4.23,42.73 5.11,42.07 5.95,41.37 C 5.97,41.36 5.99,41.38 6,41.37 C 6.02,41.35 6.06,41.35 6.09,41.34 C 6.59,41.26 6.23,41.77 5.81,42.12 C 6.36,41.7 6.9,41.29 7.43,40.84 C 7.91,40.52 8.42,40.26 8.93,40 C 8.95,39.98 9,39.98 9.03,39.96 C 9.09,39.93 9.15,39.9 9.21,39.87 C 9.21,39.88 9.21,39.91 9.18,39.93 C 9.06,40.03 8.93,40.12 8.81,40.21 C 7.99,40.79 7.21,41.41 6.34,41.9 C 6.17,41.99 5.99,42.06 5.81,42.12 C 5.81,42.12 5.79,42.12 5.78,42.12 C 5.67,42.15 5.53,42.19 5.41,42.21 C 5.33,42.26 5.31,42.33 5.32,42.39 C 5.3,42.39 5.28,42.41 5.26,42.42 C 4.74,42.69 4.29,43.04 3.83,43.42 C 3.9,43.42 3.97,43.42 4.04,43.42 C 4.04,43.42 4.06,43.42 4.07,43.42 C 4.5,43.11 4.92,42.78 5.35,42.46 C 5.41,42.57 5.59,42.64 5.69,42.46 C 5.81,42.4 5.93,42.34 6.06,42.28 C 5.6,42.63 5.13,42.99 4.66,43.34 C 4.76,43.33 4.86,43.34 4.97,43.31 C 4.97,43.31 4.99,43.31 5,43.31 C 5.55,42.86 6.12,42.44 6.68,42 C 6.97,41.86 7.26,41.71 7.55,41.57 C 8.15,41.23 8.68,40.75 9.2,40.29 C 9.4,40.28 9.6,39.96 9.57,39.79 C 11.06,38.7 12.56,37.62 14.1,36.58 C 14.08,36.55 14.09,36.47 14.19,36.49 C 14.3,36.42 14.42,36.35 14.53,36.28 C 14.33,36.2 13.41,36.86 13,37.15 C 11.71,38.1 10.38,39.01 9,39.86 C 8.79,39.94 8.55,40.03 8.31,40.12 C 8.4,39.88 8.53,39.65 8.68,39.46 C 8.25,39.92 7.79,40.39 7.25,40.68 C 7.19,40.71 7.13,40.74 7.07,40.77 C 6.94,40.82 6.81,40.86 6.67,40.89 C 7.63,40.31 8.5,39.57 9.32,38.8 C 9.1,39 8.91,39.23 8.7,39.45 C 9.29,38.74 10.24,38.31 10.82,37.58 C 12.08,36.53 13.4,35.56 14.66,34.49 C 14.63,34.48 14.6,34.49 14.57,34.49 C 14.03,34.4 13.5,35.6 13.36,35.27 C 14.13,34.57 14.87,33.85 15.51,33.02 C 15.48,33 15.48,32.96 15.46,32.93 C 14.22,34.45 12.77,35.77 11.25,37 C 11.27,36.99 11.32,36.99 11.4,37 C 11.34,37.18 11.18,37.04 11.25,37 C 10.3,37.76 9.32,38.49 8.35,39.25 C 8.31,38.9 7.85,39.36 7.73,39.5 C 7.47,39.71 7.15,39.83 6.86,40.03 C 6.6,40.17 6.33,40.32 6.05,40.43 C 5.96,40.04 6.45,39.98 6.67,39.78 C 6.93,39.51 7.29,39.29 7.6,39.07 C 8.23,38.63 8.91,38.32 9.53,37.86 C 9.66,37.74 9.88,37.57 9.84,37.36 C 9.49,37.56 9.27,38.02 8.81,38.04 C 8.06,38.29 7.56,38.95 6.88,39.32 C 5.93,39.99 5.09,40.83 4.07,41.41 C 4.26,41.26 4.45,41.11 4.63,40.95 C 7.04,39.14 9.48,37.35 11.81,35.42 C 12.33,35.02 12.87,34.64 13.4,34.24 C 12.13,34.97 10.99,35.97 9.81,36.86 C 8.3,38.05 6.81,39.25 5.22,40.36 C 5.65,39.53 6.57,39.2 7.22,38.55 C 8.92,37.24 10.77,36.07 12.34,34.59 C 12.43,34.37 12.42,34.24 12.37,34.16 C 11.07,36.1 8.64,36.89 7.09,38.62 C 6.44,38.7 7.58,37.85 7.77,37.66 C 8.23,37.25 8.71,36.86 9.2,36.48 C 9.1,36.5 9.1,36.43 9.45,36.23 C 9.51,36.19 9.57,36.13 9.63,36.08 C 9.59,36.18 9.52,36.26 9.45,36.33 C 10.38,35.62 11.31,34.89 12.2,34.12 C 12.09,34.12 11.95,34.15 11.8,34.24 C 12.4,33.82 13.02,33.39 13.58,32.9 L 13.59,32.83 z M 14.56,34.5 C 14.57,34.5 14.56,34.49 14.56,34.44 C 14.54,34.42 14.51,34.42 14.5,34.41 C 14.51,34.44 14.54,34.49 14.56,34.5 z M 14.13,36.56 C 14.15,36.59 14.21,36.59 14.22,36.5 C 14.19,36.52 14.16,36.54 14.13,36.56 z M 3.23,43.18 C 3.19,43.2 3.15,43.24 3.11,43.27 C 3.12,43.27 3.15,43.27 3.17,43.27 C 3.17,43.25 3.18,43.21 3.23,43.18 z M 11.25,33.71 C 11.32,33.75 11.4,33.78 11.46,33.8 C 11.53,33.68 11.62,33.54 11.67,33.4 C 11.53,33.48 11.4,33.57 11.27,33.68 C 11.26,33.69 11.25,33.7 11.24,33.71 L 11.25,33.71 z M 12.03,33.75 C 12.05,33.74 12.07,33.74 12.09,33.72 C 12,33.69 11.98,33.72 12.03,33.75 z M 9.62,33.28 C 9.5,33.36 9.42,33.41 9.25,33.53 C 7.33,35.6 5.38,37.64 3.41,39.68 C 3.37,39.76 3.33,39.84 3.29,39.93 C 3.96,39.1 4.78,38.41 5.54,37.65 C 4.82,38.43 4.09,39.21 3.29,39.93 C 3.27,39.95 3.25,39.95 3.25,39.96 C 3.2,40.06 3.16,40.15 3.12,40.25 C 4.23,39.2 5.31,38.14 6.28,36.96 C 7.39,35.74 8.66,34.66 9.96,33.65 C 9.39,34.11 8.8,34.54 8.18,34.93 C 7.95,35.2 6.93,36.17 7.65,35.37 C 8.31,34.67 8.96,33.98 9.62,33.28 z M 12.68,33.68 C 12.54,33.81 12.39,33.92 12.25,34.05 C 12.29,34.05 12.34,34.05 12.37,34.08 C 12.46,33.94 12.6,33.83 12.68,33.68 z M 11.59,34.33 C 11.47,34.44 11.37,34.59 11.34,34.73 C 11.05,35.1 10.12,35.39 10.91,34.79 C 11.12,34.62 11.37,34.49 11.59,34.33 z M 10.34,35.14 C 10.35,35.67 8.94,36.21 9.87,35.5 C 10.02,35.38 10.17,35.27 10.33,35.16 L 10.34,35.14 z M 14.3,36.95 C 14.14,37.04 13.97,37.15 13.8,37.26 C 13.83,37.27 13.88,37.31 13.92,37.35 C 13.97,37.3 14.03,37.23 14.07,37.2 C 14.14,37.12 14.22,37.04 14.28,36.95 L 14.3,36.95 z M 13.8,37.26 C 13.26,37 12.41,38.28 11.84,38.51 C 9.73,40.07 7.72,41.77 5.47,43.13 C 5.75,43.06 6.02,42.99 6.31,42.88 C 6.89,42.49 7.47,42.08 8.09,41.73 C 7.77,41.89 7.51,42.01 7.47,41.94 C 9.65,40.47 11.57,38.66 13.81,37.26 L 13.8,37.26 z M 7.56,37.37 C 6.04,38.58 4.91,40.21 3.25,41.25 C 4.63,39.89 5.89,38.39 7.56,37.37 z M 7.5,37.68 C 6.7,38.59 5.87,39.47 4.87,40.15 C 5.77,39.35 6.55,38.43 7.5,37.68 z M 8.46,38.3 C 8.44,38.38 8.36,38.45 8.31,38.46 C 8.32,38.45 8.31,38.4 8.37,38.37 L 8.4,38.34 L 8.46,38.31 L 8.46,38.3 z M 12.89,38.42 C 11.68,39.47 10.25,40.27 9,41.25 C 8.86,41.32 8.62,41.47 8.4,41.59 C 8.74,41.4 9.08,41.22 9.43,41.06 C 10.45,40.41 11.44,39.69 12.39,38.94 C 12.56,38.78 12.73,38.6 12.89,38.44 L 12.89,38.42 z M 9.43,38.53 C 8.49,39.42 7.49,40.27 6.37,40.93 C 7.39,40.13 8.39,39.3 9.43,38.53 z M 8.03,39.37 C 8.05,39.4 8.06,39.43 8.06,39.46 C 8.01,39.5 7.96,39.54 7.91,39.58 C 7.91,39.58 7.89,39.58 7.88,39.58 C 7.78,39.6 7.71,39.58 7.88,39.49 C 7.93,39.46 7.97,39.41 8.03,39.37 L 8.03,39.37 z M 7.47,39.9 C 7.14,40.16 6.81,40.42 6.5,40.68 C 6.14,40.93 5.76,41.14 5.4,41.37 C 5.4,41.37 5.38,41.37 5.37,41.37 C 5.53,41.1 5.91,41.03 6.12,40.78 C 6.52,40.42 6.92,40.05 7.46,39.91 L 7.47,39.9 z M 9.31,40 C 8.68,40.68 7.94,41.27 7.09,41.65 C 7.41,41.4 7.73,41.15 8.06,40.9 C 8.39,40.68 8.7,40.41 9.03,40.18 C 9.12,40.12 9.22,40.06 9.31,40 z M 8.5,40.15 C 8.42,40.2 8.34,40.25 8.25,40.3 C 8.25,40.27 8.27,40.24 8.28,40.21 C 8.28,40.21 8.3,40.21 8.31,40.21 C 8.37,40.19 8.43,40.18 8.5,40.15 z M 5,40.18 C 4.82,40.64 3.63,41.35 4.5,40.53 C 4.65,40.39 4.82,40.28 5,40.18 z M 3.54,41.21 C 3.3,41.48 3.31,41.28 3.54,41.21 z M 4.16,41.42 C 3.73,41.86 3.47,42.12 2.91,42.38 C 2.85,42.55 2.71,42.52 2.63,42.44 C 2.78,42.31 2.93,42.18 3.09,42.07 C 3.1,42.06 3.13,42.06 3.15,42.04 C 3.12,42.07 3.1,42.12 3.06,42.16 C 3.18,42.05 3.33,41.96 3.46,41.85 C 3.5,41.82 3.54,41.79 3.58,41.76 C 3.74,41.66 3.92,41.55 4.14,41.42 L 4.16,41.42 z M 6.28,42.07 C 6.15,42.16 5.74,42.41 5.81,42.25 C 5.97,42.19 6.12,42.15 6.28,42.09 L 6.28,42.07 z" id="p3893" style="fill:#35301a;fill-opacity:0.18;stroke:none;marker:none;visibility:visible;display:inline;overflow:visible;enable-background:accumulate"/>
<path d="M 11.68,31.21 C 11.54,31.35 11.23,31.66 11.15,31.74 C 10.6,32.29 10.59,32.57 10.34,32.77 C 10.09,32.97 8.05,34.22 6.25,35.92 C 4.85,37.24 2.91,39.98 2.6,41.76 C 3.24,42.42 3.94,42.44 4.69,41.79 C 5.72,40.89 6.99,38.06 7.94,37.42 C 8.88,36.79 14,32.96 14,32.96 L 11.69,31.21 L 11.68,31.21 z" id="p3943" style="fill:#ebe7d6;fill-opacity:0.18;stroke:none"/>
<path d="M 30.68,16.06 C 30.65,16.08 30.59,16.12 30.56,16.15 C 28.76,17.75 23.05,23.15 21.66,24.61 C 20.69,25.63 19.57,25.55 18.41,25.95 C 17.26,26.35 15.87,27.36 15.16,27.91 C 14.88,28.13 14.24,28.73 13.57,29.37 L 15.22,29.43 C 16.77,27.97 17.04,27.21 18,26.81 C 18.95,26.41 21.46,25.8 21.93,25.25 C 22.16,24.98 26.28,20.61 30.68,16.07 L 30.68,16.06 z" id="p4101" style="fill:#191815;fill-opacity:0.15;stroke:none;display:inline"/>
<path d="M 15.12,27.93 C 14.41,28.49 11.7,31.19 11.16,31.74 C 10.91,31.99 10.77,32.2 10.66,32.36 C 12.04,33.04 13.75,34.6 14.41,36.98 C 14.51,36.84 17.41,34.52 19.41,32.73 C 18.81,30.79 17.27,28.72 15.16,27.92 C 15.16,27.92 15.14,27.92 15.13,27.92 L 15.12,27.93 z" id="p3748" style="fill:#b5aea6;fill-opacity:1;stroke:none;display:inline"/>
<path d="M 16.4,28.62 L 12.12,32.43 L 11.62,33 C 11.98,33.26 12.34,33.56 12.68,33.93 C 12.71,33.97 12.76,34.01 12.8,34.05 C 12.92,34.19 13.05,34.33 13.17,34.48 C 13.21,34.53 13.25,34.6 13.29,34.66 C 13.39,34.81 13.5,34.96 13.6,35.12 L 18.5,30.81 C 18.45,30.73 18.39,30.66 18.34,30.59 C 18.25,30.45 18.16,30.31 18.06,30.18 C 18.03,30.15 18.02,30.12 18,30.09 C 17.86,29.92 17.71,29.78 17.56,29.62 C 17.38,29.44 17.19,29.25 17,29.09 C 16.8,28.92 16.61,28.76 16.4,28.62 z" id="p4000" style="fill:#e7e4da;fill-opacity:0.68;stroke:none;display:inline"/>
<path d="M 11.04,31.83 C 12.56,31.83 15.12,35 15.18,36.4" id="p3988" style="fill:none;stroke:#000000;stroke-width:0.30;stroke-linecap:butt;stroke-linejoin:miter;stroke-miterlimit:4;stroke-dasharray:none;stroke-opacity:0.76;display:inline"/>
<path d="M 13.78,35.31 L 14.69,34.83 L 18.71,31.3" id="p3991" style="fill:none;stroke:#000000;stroke-width:0.30;stroke-linecap:butt;stroke-linejoin:miter;stroke-miterlimit:4;stroke-dasharray:none;stroke-opacity:0.55;display:inline"/>
<path d="M 16.46,28.65 L 16.4,28.96 C 16.4,28.96 12.99,32.06 12.56,32.49 C 12.35,32.7 12.21,32.98 11.97,33.2 C 12.44,33.59 12.49,33.58 12.9,34.15 L 13.49,33.56 L 17.77,29.88 C 17.29,29.22 17.13,29.13 16.46,28.65 z" id="p3997" style="fill:#f9f8f6;fill-opacity:0.93;stroke:none;display:inline"/>
<path d="M 11.95,33.11 L 12.49,32.44 L 16.57,28.79" id="p3994" style="fill:none;stroke:#000000;stroke-width:0.2;stroke-linecap:butt;stroke-linejoin:miter;stroke-miterlimit:4;stroke-dasharray:none;stroke-opacity:0.27;display:inline"/>
<path d="M 18.37,30.65 L 13.5,34.96 C 13.58,35.08 13.67,35.19 13.75,35.33 L 14.62,34.87 L 18.77,31.28 C 18.66,31.07 18.51,30.87 18.37,30.66 L 18.37,30.65 z" id="p4047" style="fill:#4a4840;fill-opacity:0.33;stroke:none;display:inline"/>
<path d="M 15.75,28.21 L 11.69,31.92 L 11.23,32.67 C 11.45,32.81 11.68,32.98 11.91,33.17 L 12.44,32.46 L 16.69,28.78 C 16.4,28.56 16.06,28.38 15.75,28.21 z" id="p4073" style="fill:#4a4840;fill-opacity:0.26;stroke:none"/>
<path d="M 22.94,24.51 L 33.8,14.87" id="p4104" style="fill:none;stroke:#fdfdfd;stroke-width:1.20;stroke-linecap:round;stroke-linejoin:miter;stroke-miterlimit:4;stroke-dasharray:none;stroke-opacity:0.02;display:inline"/>
<path d="M 14.06,37.25 C 12.27,37.68 8.73,39.88 8.16,40.28 C 7.45,40.78 6.54,41.89 5.57,43.15 C 7.07,42.72 8.73,41.87 9.47,41.4 C 10.82,40.55 13.31,38.05 13.81,37.5 C 13.92,37.38 13.99,37.31 14.06,37.25 z" id="p4185" style="fill:#1e0f00;fill-opacity:0.12;stroke:none"/>
<path d="M 42.95,6.45 C 42.43,6.5 41.74,6.93 41.24,7.36 C 40.65,7.86 39.83,8.23 40.96,8.67 C 41.23,8.59 41.44,8.27 41.68,8.03 C 41.92,7.79 42.1,7.42 42.53,7.34 C 43.06,7.14 43.3,7.55 43.72,7.75 C 44.18,7.44 44.21,7.11 43.68,6.63 C 43.5,6.47 43.17,6.47 42.95,6.45 z" id="p4197" style="fill:#431104;fill-opacity:0.43;stroke:none;display:inline"/>
<path d="M 39.17,11.49 C 40.03,10.88 41.22,9.81 42.09,9.19 C 42.95,8.58 44.02,7.8 44.06,7.26 C 44.1,6.73 43.2,5.99 42.46,6.32" id="p4252" style="fill:none;stroke:#eac5b4;stroke-width:0.30;stroke-linecap:round;stroke-linejoin:miter;stroke-miterlimit:4;stroke-dasharray:none;stroke-opacity:0.12;display:inline"/>
<path d="M 38.51,11.91 L 41.6,9.56" id="p4255" style="fill:none;stroke:#dcdcdc;stroke-width:0.30;stroke-linecap:round;stroke-linejoin:miter;stroke-miterlimit:4;stroke-dasharray:none;stroke-opacity:0.07;display:inline"/>
<path d="M 29.69,20 C 29.69,20.15 29.57,20.28 29.42,20.28 C 29.27,20.28 29.15,20.15 29.15,20 C 29.15,19.85 29.27,19.73 29.42,19.73 C 29.57,19.73 29.69,19.85 29.69,20 z" id="p4258" style="fill:#969393;fill-opacity:0.47;fill-rule:nonzero;stroke:none;marker:none;visibility:visible;display:inline;overflow:visible;enable-background:accumulate"/>
<path d="M 29.53,19.81 C 29.38,19.81 29.28,19.93 29.28,20.09 C 29.28,20.13 29.28,20.17 29.31,20.21 C 29.34,20.22 29.36,20.24 29.4,20.24 C 29.55,20.24 29.68,20.12 29.68,19.96 C 29.68,19.93 29.67,19.9 29.65,19.87 C 29.62,19.86 29.57,19.81 29.53,19.81 L 29.53,19.81 z" id="p4258-7" style="fill:#232222;fill-opacity:0.76;fill-rule:nonzero;stroke:none;marker:none;visibility:visible;display:inline;overflow:visible;enable-background:accumulate"/>
<path d="M 34.19,15.86 C 34.19,16.01 34.07,16.14 33.92,16.14 C 33.77,16.14 33.65,16.01 33.65,15.86 C 33.65,15.71 33.77,15.59 33.92,15.59 C 34.07,15.59 34.19,15.71 34.19,15.86 z" id="p4258-4" style="fill:#969393;fill-opacity:0.47;fill-rule:nonzero;stroke:none;marker:none;visibility:visible;display:inline;overflow:visible;enable-background:accumulate"/>
<path d="M 34.03,15.67 C 33.88,15.67 33.78,15.79 33.78,15.95 C 33.78,15.99 33.78,16.03 33.81,16.07 C 33.84,16.08 33.86,16.1 33.9,16.1 C 34.05,16.1 34.18,15.98 34.18,15.82 C 34.18,15.79 34.17,15.76 34.15,15.73 C 34.12,15.72 34.07,15.67 34.03,15.67 L 34.03,15.67 z" id="p4258-7-7" style="fill:#232222;fill-opacity:0.76;fill-rule:nonzero;stroke:none;marker:none;visibility:visible;display:inline;overflow:visible;enable-background:accumulate"/>
<path d="M 35.4,12.92 C 35.33,13.02 35.22,13.06 35.14,13.01 C 35.07,12.96 35.06,12.84 35.13,12.74 C 35.19,12.64 35.31,12.6 35.38,12.65 C 35.46,12.7 35.47,12.82 35.4,12.92 z" id="p4258-4-7" style="fill:#969393;fill-opacity:0.47;fill-rule:nonzero;stroke:none;marker:none;visibility:visible;display:inline;overflow:visible;enable-background:accumulate"/>
<path d="M 35.4,12.73 C 35.33,12.69 35.23,12.73 35.16,12.84 C 35.14,12.86 35.12,12.89 35.12,12.93 C 35.13,12.94 35.13,12.96 35.15,12.98 C 35.22,13.02 35.34,12.99 35.41,12.88 C 35.43,12.86 35.43,12.84 35.44,12.81 C 35.43,12.8 35.42,12.75 35.4,12.73 L 35.4,12.73 z" id="p4258-7-7-0" style="fill:#232222;fill-opacity:0.76;fill-rule:nonzero;stroke:none;marker:none;visibility:visible;display:inline;overflow:visible;enable-background:accumulate"/>
<path d="M 26.38,21.07 C 26.33,21.2 26.21,21.28 26.12,21.27 C 26.03,21.26 26,21.15 26.05,21.03 C 26.1,20.91 26.22,20.82 26.31,20.83 C 26.4,20.85 26.43,20.95 26.38,21.07 z" id="p4258-42" style="fill:#969393;fill-opacity:0.47;fill-rule:nonzero;stroke:none;marker:none;visibility:visible;display:inline;overflow:visible;enable-background:accumulate"/>
<path d="M 26.35,20.9 C 26.26,20.89 26.16,20.97 26.1,21.1 C 26.09,21.13 26.08,21.17 26.08,21.2 C 26.09,21.21 26.1,21.23 26.12,21.23 C 26.21,21.25 26.33,21.16 26.39,21.03 C 26.4,21.01 26.4,20.99 26.4,20.96 C 26.38,20.95 26.37,20.9 26.35,20.9 L 26.35,20.9 z" id="p4258-7-5" style="fill:#232222;fill-opacity:0.76;fill-rule:nonzero;stroke:none;marker:none;visibility:visible;display:inline;overflow:visible;enable-background:accumulate"/>
<path d="M 31.66,15.32 C 31.37,15.65 31.5,16.07 31.41,16.44 C 31.22,16.76 31.65,16.67 31.65,16.98 C 31.76,17.29 31.74,17.62 31.55,17.98 C 31.74,18.13 31.9,17.59 31.88,17.39 C 31.89,17.1 31.79,16.87 31.75,16.61 C 31.72,16.26 32.22,16.21 32.05,15.91 C 31.93,15.76 32.1,15.31 32.24,15.59 C 32.33,15.86 32.5,16.22 32.3,16.58 C 32.05,16.99 32.57,16.57 32.67,16.43 C 32.8,16.3 32.96,16 32.69,16.14 C 32.32,16.09 32.76,15.58 32.85,15.32 C 33.09,14.88 32.69,14.58 32.37,14.92 C 32.17,15.1 31.99,15.36 31.87,15.63 C 31.86,15.83 31.81,16.31 31.58,16.08 C 31.39,15.83 31.85,15.45 31.78,15.25 C 31.74,15.26 31.69,15.3 31.64,15.34 L 31.66,15.32 z M 34.93,12.31 C 34.66,12.6 34.77,12.98 34.72,13.31 C 34.6,13.57 34.61,13.78 34.86,13.75 C 34.98,13.99 34.99,14.41 34.91,14.76 C 34.75,15 34.93,15.1 35.04,14.83 C 35.29,14.43 35.1,14.04 35.03,13.7 C 35.01,13.48 35.24,13.09 34.93,13.1 C 34.74,12.94 35.04,12.54 35.04,12.29 C 35.03,12.23 34.97,12.27 34.93,12.3 L 34.93,12.31 z M 29.02,17.99 C 28.81,18.32 28.5,18.71 28.55,19.1 C 28.55,19.43 28.99,19.1 28.73,18.98 C 28.52,18.75 29.03,18.25 29.01,18.73 C 29.14,19.03 29.14,19.43 28.93,19.79 C 29.13,19.75 29.56,19.42 29.53,19.14 C 29.17,19.21 29.38,18.67 29.55,18.42 C 29.81,18.04 29.56,17.6 29.21,17.86 C 29.15,17.89 29.08,17.93 29.02,17.99 L 29.02,17.99 z M 29.12,18.12 C 29.46,17.67 29.58,18.73 29.2,18.54 C 29.14,18.43 29.18,18.24 29.12,18.12 z M 32.39,15.11 C 32.73,14.66 32.85,15.72 32.47,15.53 C 32.41,15.42 32.45,15.23 32.39,15.11 z M 29.96,17.67 C 29.72,18.02 29.61,18.61 29.91,18.8 C 30.26,18.87 30.53,18.22 30.45,17.89 C 30.44,17.65 30.19,17.32 29.97,17.67 L 29.96,17.67 z M 30.55,17.13 C 30.24,17.46 30.62,17.69 30.65,17.97 C 30.84,18.17 31.14,17.79 31.33,17.59 C 31.47,17.43 31.41,17.16 31.22,17.33 C 31.15,17.2 31.16,16.53 30.93,16.95 C 30.95,17.16 31.13,17.73 30.77,17.7 C 30.67,17.55 30.85,17.03 30.56,17.14 L 30.55,17.13 z M 33.22,14.66 C 32.97,15.02 32.88,15.63 33.2,15.78 C 33.58,15.81 33.81,15.13 33.69,14.8 C 33.65,14.59 33.42,14.32 33.22,14.66 L 33.22,14.66 z M 33.81,14.12 C 33.59,14.34 33.74,14.6 33.82,14.65 C 33.77,15.09 34.22,15.05 34.37,14.78 C 34.62,14.78 34.81,14.09 34.48,14.34 C 34.4,14.21 34.38,13.53 34.18,13.97 C 34.25,14.14 34.32,14.79 34.02,14.61 C 33.96,14.45 34.1,13.98 33.81,14.13 L 33.81,14.12 z M 30,17.83 C 30.34,17.7 30.39,18.51 30.01,18.52 C 29.83,18.42 29.86,18.06 30,17.83 z M 33.27,14.82 C 33.67,14.64 33.6,15.67 33.25,15.44 C 33.14,15.3 33.18,15.03 33.27,14.82 z" id="p4432" style="fill:#a01e28;fill-opacity:0.56;stroke:none"/>
<path d="M 33.87,14.84 C 33.91,14.91 33.97,14.96 34.05,14.96 C 34.04,14.93 34.03,14.91 34.03,14.9 C 34,14.88 33.98,14.87 33.96,14.87 C 33.93,14.85 33.9,14.84 33.87,14.84 L 33.87,14.84 z M 33.71,14.87 C 33.69,14.87 33.68,14.88 33.68,14.9 L 33.53,15.02 C 33.55,15.26 33.46,15.56 33.25,15.43 C 33.23,15.41 33.22,15.36 33.21,15.34 L 33.03,15.5 C 33.05,15.62 33.11,15.72 33.21,15.78 C 33.56,15.81 33.76,15.22 33.71,14.88 L 33.71,14.87 z M 32.59,15.87 L 32.41,16.02 C 32.41,16.02 32.41,16.04 32.41,16.05 C 32.43,16.21 32.41,16.38 32.32,16.55 C 32.07,16.96 32.59,16.54 32.69,16.4 C 32.82,16.27 32.98,15.99 32.72,16.12 C 32.58,16.11 32.56,15.99 32.6,15.87 L 32.59,15.87 z M 31.75,16.62 L 31.57,16.8 C 31.61,16.84 31.66,16.89 31.66,16.98 C 31.7,17.09 31.71,17.2 31.72,17.32 L 31.87,17.2 C 31.85,17 31.78,16.82 31.75,16.62 L 31.75,16.62 z M 31.18,17.15 L 31,17.31 C 31.02,17.51 30.99,17.7 30.79,17.68 C 30.75,17.64 30.75,17.6 30.75,17.53 L 30.57,17.71 C 30.61,17.78 30.65,17.87 30.66,17.96 C 30.85,18.16 31.16,17.79 31.34,17.59 C 31.48,17.43 31.41,17.14 31.22,17.31 C 31.21,17.29 31.21,17.22 31.19,17.16 L 31.18,17.15 z M 30.43,17.81 L 30.25,18 C 30.31,18.2 30.27,18.49 30.04,18.5 C 29.97,18.47 29.9,18.41 29.89,18.32 L 29.74,18.44 C 29.74,18.59 29.81,18.74 29.92,18.81 C 29.98,18.82 30.04,18.8 30.1,18.78 L 30.15,18.75 C 30.16,18.74 30.16,18.71 30.18,18.69 C 30.37,18.51 30.48,18.11 30.43,17.88 C 30.43,17.87 30.43,17.84 30.43,17.82 L 30.43,17.81 z M 29.4,18.74 L 29.09,19.02 C 29.12,19.26 29.09,19.51 28.94,19.77 C 28.95,19.77 28.97,19.75 29,19.75 L 29.5,19.35 C 29.5,19.35 29.5,19.33 29.5,19.32 C 29.53,19.26 29.53,19.2 29.53,19.14 C 29.3,19.18 29.33,19 29.41,18.77 L 29.4,18.74 z" id="p4443" style="fill:#f3cacd;fill-opacity:0.12;stroke:none;marker:none;visibility:visible;display:inline;overflow:visible;enable-background:accumulate"/>
<path d="M 15.12,27.93 C 14.41,28.49 11.7,31.19 11.16,31.74 C 10.91,31.99 10.77,32.2 10.66,32.36 C 12.04,33.04 13.75,34.6 14.41,36.98 C 14.51,36.84 17.41,34.52 19.41,32.73 C 18.81,30.79 17.27,28.72 15.16,27.92 C 15.16,27.92 15.14,27.92 15.13,27.92 L 15.12,27.93 z" id="p3748-8" style="fill:none;stroke:#474747;stroke-width:0.2;stroke-linejoin:bevel;stroke-miterlimit:4;stroke-dasharray:none;stroke-opacity:1;display:inline"/>
<path d="M 43,6.03 C 42.57,6.06 42.22,6.31 41.85,6.49 C 41.25,6.79 38.65,9.04 37.2,10.14 C 35.75,11.24 32.38,14.53 30.58,16.14 C 28.78,17.74 23.07,23.14 21.68,24.6 C 20.71,25.62 19.59,25.54 18.43,25.94 C 17.28,26.34 15.89,27.35 15.18,27.9 C 14.48,28.45 11.74,31.16 11.18,31.71 C 10.63,32.26 10.62,32.54 10.37,32.74 C 10.09,32.98 8.05,34.23 6.25,35.93 C 4.44,37.63 1.74,41.64 2.75,43 C 3.75,44.35 8.11,42.26 9.46,41.41 C 10.81,40.56 13.3,38.06 13.8,37.51 C 14.3,36.96 14.24,37.22 14.39,37.01 C 14.54,36.81 20.32,32.22 21.14,31.01 C 21.66,30.24 22.54,28.15 22.99,27.35 C 23.44,26.55 29.35,21.94 30.75,20.74 C 32.18,19.51 39.69,13.08 40.5,12.28 C 41.3,11.48 42.6,10.23 43.22,9.6 C 43.9,8.9 45.42,7.6 43.87,6.24 C 43.53,6.06 43.26,6 43,6.03 z M 43.12,7.31 C 43.56,7.33 43.63,7.58 43.49,7.68 C 43.31,7.81 42.82,8.29 42.68,8.43 C 42.55,8.56 41.9,8.9 41.5,8.77 C 41.1,8.64 40.77,8.51 41.04,8.43 C 41.3,8.35 41.45,8.27 41.69,8.03 C 41.93,7.79 42.1,7.43 42.53,7.35 C 42.77,7.3 42.97,7.31 43.12,7.32 L 43.12,7.31 z" id="stroke01" style="fill:none;stroke:#1e1e1e;stroke-width:0.5;stroke-linejoin:bevel;stroke-miterlimit:4;stroke-dasharray:none;stroke-opacity:1;display:inline"/>
</g>
</svg>
