<?xml version="1.0" encoding="UTF-8" standalone="no"?>
<!DOCTYPE svg PUBLIC "-//W3C//DTD SVG 1.0//EN" "http://www.w3.org/TR/2001/REC-SVG-20010904/DTD/svg10.dtd">
<svg xmlns:svg="http://www.w3.org/2000/svg" xmlns="http://www.w3.org/2000/svg" version="1.0" width="100%" height="100%" viewBox="0 0 48 48" id="_brush03">
<defs id="defs2818"/>
<g id="brush03" style="display:inline">
<path d="M 45.88,44.47 C 46.78,45.37 45.38,46.28 44.78,45.73 C 44.16,45.17 20.72,22.53 19.15,20.97 C 17.59,19.41 16.23,18.1 15.93,17.79 C 15.63,17.49 15.47,17.09 15.32,16.94 C 15.17,16.78 14.77,16.58 14.42,16.28 C 14.06,15.98 14.11,15.83 13.86,15.63 C 13.61,15.42 11.69,13.66 10.84,12.95 C 9.98,12.25 7.61,10.33 7.15,9.93 C 6.7,9.52 2.26,5.24 2.26,5.24 L 2.36,4.94 L 2.46,4.99 L 2.46,4.69 L 3.37,3.88 L 3.57,4.03 L 3.47,3.78 L 4.08,3.27 L 4.18,3.37 L 4.18,3.12 L 5.19,2.31 L 5.39,2.16 L 8.52,5.84 L 8.72,5.74 C 8.72,5.74 9.72,6.74 10.18,7.3 C 10.63,7.85 14.51,12.34 15.02,12.89 C 15.52,13.44 15.67,13.64 15.87,13.84 C 16.07,14.04 16.37,14.29 16.62,14.59 C 16.87,14.89 17.12,15.09 17.37,15.29 C 17.62,15.49 19.43,17.1 20.64,18.31 C 21.85,19.52 28.15,25.82 29.96,27.73 C 31.77,29.64 45.08,43.56 45.84,44.41 L 45.88,44.47 z" id="p2978" style="fill:#1b1e2c;fill-opacity:1;stroke:none"/>
<path d="M 5.4,2.15 L 5.18,2.31 L 4.18,3.12 L 4.18,3.37 L 4.09,3.28 L 3.47,3.78 L 3.59,4.03 L 3.37,3.87 L 2.46,4.68 L 2.46,5 L 2.37,4.93 L 2.28,5.25 C 2.28,5.25 5.66,8.53 6.68,9.5 L 9.71,6.78 C 9.25,6.27 8.71,5.75 8.71,5.75 L 8.53,5.84 L 5.41,2.16 L 5.4,2.15 z" id="p3778" style="fill:#ccb183;fill-opacity:1;stroke:none;display:inline"/>
<path d="M 5.4,2.15 L 5.18,2.31 L 4.18,3.12 L 4.18,3.37 L 4.09,3.28 L 3.47,3.78 L 3.59,4.03 L 3.37,3.87 L 2.46,4.68 L 2.46,5 L 2.37,4.93 L 2.28,5.25 C 2.28,5.25 2.87,5.85 3.06,6.03 L 3.4,5.35 L 3.71,5.47 L 3.75,5.37 L 3.68,5.03 L 3.9,4.93 L 4.25,5.34 L 4.53,5.09 L 4.18,4.84 L 4.65,4.31 L 4.96,4.62 L 5.18,4.53 L 4.9,4.25 L 5.06,4.03 L 5.4,4.37 L 5.84,4.06 L 5.37,3.65 L 5.62,3.5 L 6.03,3.87 L 6.43,3.37 L 5.4,2.15 z" id="p3954" style="fill:#f7f8d1;fill-opacity:0.22;stroke:none"/>
<path d="M 5.37,2.43 C 5.27,2.41 5.09,2.63 5.34,2.62 C 6.38,3.84 7.29,5.18 8.21,6.5 C 7.33,5.93 6.73,5.06 6,4.34 C 5.54,3.82 5.09,3.28 4.65,2.75 L 4.43,2.93 C 4.47,3.04 4.46,3.12 4.28,3.12 C 4.27,3.11 4.26,3.1 4.25,3.09 L 4.18,3.12 L 4.18,3.18 C 4.31,3.31 4.45,3.44 4.58,3.58 C 5.3,4.01 5.54,4.88 6.14,5.45 C 6.26,5.72 6.77,6.27 6.53,6.37 C 5.71,5.39 4.98,4.36 4.18,3.37 L 4.18,3.34 L 4.15,3.31 L 4.09,3.28 L 4.03,3.34 C 4.69,4.08 5.21,4.95 5.9,5.68 C 5.95,6.16 5.39,5.63 5.21,5.53 C 4.54,5.09 3.85,4.58 3.4,3.9 L 3.37,3.87 L 3.06,4.15 C 3.67,4.56 4.19,5.06 4.53,5.71 C 5.05,6.45 5.61,7.17 6.18,7.87 C 5.13,6.64 3.87,5.61 2.87,4.34 L 2.75,4.43 C 2.94,4.72 3.17,5.02 3.43,5.27 C 4.16,6.07 4.86,6.91 5.68,7.64 C 6.16,8.1 6.67,8.56 7.11,9.07 L 7.25,9 C 7.05,8.76 6.84,8.55 6.65,8.31 C 5.83,7.28 5.04,6.22 4.28,5.15 C 5.19,5.84 5.93,6.76 6.81,7.5 C 6.94,7.74 7.31,8.12 7.56,8 C 7,7.62 6.57,7.11 6.09,6.65 C 5.84,6.41 5.58,6.2 5.31,6 C 5.22,5.91 5.14,5.83 5.06,5.75 C 5.51,5.9 5.75,6.34 6.09,6.65 C 6.2,6.75 6.32,6.83 6.46,6.9 C 6.86,7.23 7.18,7.64 7.56,8 C 7.56,8 7.58,7.99 7.59,8 C 7.65,7.96 7.68,7.89 7.71,7.78 C 7.94,7.42 8.33,8.17 8.37,7.87 C 7.06,6.37 5.78,4.85 4.68,3.18 C 5.22,3.25 5.29,3.92 5.71,4.18 C 6.39,4.97 7.1,5.76 7.89,6.46 C 7.85,6.94 8.74,6.6 8.21,6.31 C 7.67,5.63 7.23,4.91 6.71,4.21 C 7.45,4.72 8.03,5.36 8.62,6.03 C 8.52,6.3 9.14,6.33 8.81,6.09 C 8.74,5.99 8.67,5.9 8.59,5.81 L 8.53,5.84 L 8,5.18 C 7.95,5.14 7.91,5.1 7.87,5.06 C 7.02,4.26 6.06,3.56 5.43,2.56 C 5.45,2.48 5.4,2.44 5.37,2.43 z M 4.46,5.12 C 4.65,5.21 4.55,5.29 4.46,5.12 z M 5.43,5.81 C 6.19,6.31 6.9,6.92 7.43,7.68 C 6.79,7.04 6.06,6.48 5.43,5.81 z M 6.46,5.84 C 7.06,6.42 7.56,7.1 8.12,7.71 C 7.37,7.3 6.82,6.6 6.46,5.84 z M 4.53,6.31 C 4.63,6.26 4.55,6.42 4.53,6.31 z M 4.87,6.68 C 5.12,6.6 5,7.03 4.9,6.71 L 4.87,6.68 z M 7,6.96 C 7.14,6.96 6.94,7.09 7,6.96 z" id="p3840" style="fill:#eeebac;fill-opacity:0.31;stroke:none;marker:none;visibility:visible;display:inline;overflow:visible;enable-background:accumulate;"/>
<path d="M 5,2.46 L 4.87,2.56 C 5.43,3.23 6.02,3.89 6.5,4.62 C 5.85,4.03 5.02,3.57 4.46,2.9 L 4.28,3.02 C 4.34,3.1 4.4,3.18 4.43,3.25 C 5.62,4.7 6.94,6.03 8.03,7.56 C 7.6,7.65 7.38,7.19 7.18,6.9 C 6.85,6.55 6.45,6.26 6.12,5.9 C 5.33,5.13 4.6,4.28 3.9,3.43 L 3.81,3.5 C 4.18,3.97 4.59,4.41 4.93,4.9 C 5.76,5.86 6.69,6.73 7.37,7.81 C 7.42,7.81 7.47,7.82 7.5,7.84 C 7.26,7.54 7.02,7.26 6.84,6.93 C 6.74,6.78 6.33,6.32 6.43,6.34 C 7.02,6.87 7.5,7.52 8.09,8.06 C 8.46,7.76 7.91,7.3 8.03,6.96 C 6.85,5.88 5.99,4.51 4.81,3.43 C 5.5,3.88 6.1,4.46 6.75,4.96 C 7.2,5.6 7.72,6.19 8.09,6.87 C 8.12,6.84 8.14,6.8 8.18,6.78 C 8.25,6.28 7.19,6.03 7.56,5.59 C 8.02,5.65 8.19,6.22 8.59,6.43 C 8.83,6.65 9,6.99 9.27,7.18 L 9.34,7.09 C 9.11,6.75 8.81,6.47 8.56,6.15 C 7.41,4.89 6.13,3.74 5,2.46 z M 8.09,6.87 C 8.06,6.9 8.04,6.92 8.03,6.96 C 8.11,7.03 8.18,7.13 8.28,7.21 C 8.22,7.09 8.15,6.98 8.09,6.87 z M 5.68,3.37 C 6.36,4.04 7.08,4.67 7.65,5.43 C 6.75,5.03 6.28,4.1 5.68,3.37 z M 5.09,3.9 C 5.76,4.51 6.29,5.24 6.87,5.93 C 6.32,5.22 5.68,4.58 5.09,3.9 z M 3.28,3.96 L 3.19,4.02 C 4.51,5.4 5.83,6.78 7.22,8.11 C 7.26,8.27 7.53,8.52 7.72,8.57 L 7.87,8.43 C 7.87,8.4 7.88,8.38 7.87,8.34 C 7.77,8.2 7.67,8.07 7.56,7.93 C 7.64,8.12 7.44,8.45 7.31,8.09 C 5.95,6.72 4.59,5.37 3.28,3.96 L 3.28,3.96 z M 3.15,4.06 L 3.09,4.12 C 4.07,5.37 5.12,6.59 6.06,7.87 C 5.11,7.07 4.26,6.14 3.43,5.21 C 3.21,4.95 2.99,4.67 2.78,4.4 L 2.65,4.5 C 3.93,6.21 5.67,7.55 6.93,9.28 L 7.05,9.16 C 6.26,8.14 5.65,6.96 4.75,6.03 C 4.2,5.38 3.66,4.73 3.15,4.06 z" id="p3894" style="fill:#746429;fill-opacity:0.2;stroke:none;marker:none;visibility:visible;display:inline;overflow:visible;enable-background:accumulate;"/>
<path d="M 8.71,5.75 L 8.59,5.81 L 5.84,8.68 C 6.37,9.18 7.03,9.82 7.15,9.93 C 7.6,10.33 9.98,12.25 10.83,12.96 C 11.68,13.66 13.6,15.41 13.86,15.61 C 14.11,15.81 14.03,15.96 14.39,16.26 C 14.74,16.56 15.14,16.76 15.29,16.91 C 15.44,17.06 15.61,17.48 15.91,17.78 C 16.67,16.79 17.34,16.18 17.91,15.78 C 17.74,15.63 17.44,15.33 17.38,15.28 C 17.15,15.11 16.87,14.92 16.62,14.62 C 16.37,14.32 16.07,14.07 15.87,13.87 C 15.67,13.67 15.53,13.46 15.03,12.9 C 14.52,12.35 10.64,7.86 10.18,7.31 C 9.73,6.75 8.71,5.75 8.71,5.75 z" id="p3780" style="fill:#d5c5b8;fill-opacity:1;stroke:none;display:inline"/>
<path d="M 8.25,6.18 L 6.28,8.21 C 7.54,9.35 7.81,10.05 7.81,10.05 C 7.81,10.05 8.44,9.84 9.24,10.42 C 10.04,11.01 11.17,11.89 12.14,12.82 C 13.11,13.74 14.23,14.93 14.48,14.97 C 14.73,15.01 14.56,15.22 14.94,15.56 C 15.31,15.89 15.78,16.18 15.78,16.18 C 15.78,16.18 15.79,16.37 16.09,16.71 C 16.17,16.81 16.29,16.91 16.46,17.08 C 16.65,16.87 16.81,16.69 16.99,16.52 C 16.81,16.32 16.67,16.14 16.59,16.06 C 16.34,15.81 16.09,15.81 16.09,15.81 C 16.09,15.81 15.99,15.49 15.44,14.94 C 15.03,14.53 14.86,14.54 14.79,14.57 C 14.85,14.51 14.82,14.26 14,13.43 C 12.9,12.34 10.51,9.51 10.34,8.84 C 10.17,8.16 10,7.53 10,7.53 C 10,7.53 9.73,7.61 8.25,6.19 L 8.25,6.18 z" id="p3966-0" style="fill:#02090c;fill-opacity:0.51;stroke:none;display:inline"/>
<path d="M 8.18,6.06 C 8.17,6.06 8.17,6.08 8.18,6.09 C 8.17,6.08 8.15,6.08 8.15,6.09 L 6.18,8.12 C 6.16,8.13 6.15,8.15 6.15,8.18 C 6.14,8.18 6.14,8.2 6.15,8.21 C 6.14,8.21 6.14,8.23 6.15,8.24 C 6.15,8.25 6.16,8.26 6.18,8.27 C 6.17,8.27 6.17,8.29 6.18,8.3 C 6.8,8.86 7.18,9.33 7.39,9.64 C 7.6,9.94 7.67,10.07 7.67,10.07 C 7.67,10.08 7.68,10.09 7.7,10.1 C 7.69,10.1 7.69,10.12 7.7,10.13 C 7.7,10.14 7.71,10.15 7.73,10.16 C 7.73,10.16 7.75,10.16 7.76,10.16 C 7.76,10.16 7.78,10.16 7.79,10.16 C 7.79,10.16 7.81,10.16 7.82,10.16 C 7.82,10.16 7.95,10.12 8.19,10.13 C 8.42,10.14 8.77,10.22 9.15,10.5 C 9.94,11.08 11.06,11.98 12.02,12.9 C 12.5,13.36 13.02,13.88 13.45,14.3 C 13.66,14.5 13.88,14.69 14.04,14.83 C 14.11,14.89 14.16,14.94 14.22,14.98 C 14.28,15.02 14.33,15.06 14.4,15.07 C 14.44,15.07 14.45,15.09 14.46,15.1 C 14.46,15.1 14.47,15.11 14.49,15.16 C 14.52,15.26 14.59,15.44 14.8,15.62 C 15.16,15.94 15.58,16.17 15.64,16.21 C 15.64,16.24 15.64,16.26 15.67,16.33 C 15.71,16.43 15.79,16.59 15.95,16.76 C 16.04,16.87 16.16,16.97 16.32,17.13 C 16.32,17.14 16.33,17.15 16.35,17.16 C 16.35,17.16 16.37,17.16 16.38,17.16 C 16.38,17.16 16.4,17.16 16.41,17.16 C 16.41,17.16 16.43,17.16 16.44,17.16 C 16.44,17.16 16.46,17.16 16.47,17.16 C 16.48,17.15 16.49,17.14 16.5,17.13 C 16.69,16.92 16.85,16.74 17.03,16.57 C 17.04,16.56 17.05,16.55 17.06,16.54 C 17.06,16.53 17.06,16.51 17.06,16.51 C 17.06,16.5 17.06,16.48 17.06,16.48 C 17.06,16.47 17.06,16.45 17.06,16.45 C 17.06,16.44 17.06,16.42 17.06,16.42 C 17.07,16.43 17.09,16.45 17.12,16.46 C 16.94,16.27 16.82,16.1 16.71,16 C 16.57,15.85 16.42,15.78 16.31,15.75 C 16.26,15.74 16.26,15.73 16.22,15.72 C 16.21,15.69 16.17,15.65 16.1,15.54 C 16,15.39 15.85,15.17 15.57,14.89 C 15.36,14.68 15.2,14.58 15.07,14.52 C 15.02,14.5 14.99,14.5 14.95,14.49 C 14.94,14.43 14.92,14.34 14.86,14.24 C 14.75,14.05 14.53,13.79 14.11,13.37 C 13.57,12.83 12.71,11.86 11.96,10.94 C 11.59,10.48 11.23,10.04 10.96,9.66 C 10.67,9.25 10.49,8.93 10.46,8.81 C 10.29,8.13 10.12,7.5 10.12,7.5 C 10.11,7.47 10.1,7.44 10.09,7.43 C 10.08,7.41 10.07,7.4 10.06,7.4 C 10.05,7.39 10.03,7.39 10.03,7.4 C 10.02,7.39 10,7.39 10,7.4 C 10,7.39 9.98,7.39 9.97,7.4 C 9.93,7.39 9.86,7.35 9.75,7.28 C 9.51,7.13 9.07,6.8 8.34,6.09 C 8.32,6.07 8.3,6.06 8.28,6.06 C 8.27,6.05 8.25,6.05 8.25,6.06 C 8.24,6.05 8.22,6.05 8.22,6.06 C 8.21,6.05 8.19,6.05 8.19,6.06 L 8.18,6.06 z" id="p4044" style="fill:#02090c;fill-opacity:0.51;stroke:none;display:inline"/>
<path d="M 8.25,6.18 L 6.28,8.21 C 7.54,9.35 7.81,10.05 7.81,10.05 C 7.81,10.05 8.44,9.84 9.24,10.42 C 10.04,11.01 11.17,11.89 12.14,12.82 C 13.11,13.74 14.23,14.93 14.48,14.97 C 14.73,15.01 14.56,15.22 14.94,15.56 C 15.31,15.89 15.78,16.18 15.78,16.18 C 15.78,16.18 15.79,16.37 16.09,16.71 C 16.17,16.81 16.29,16.91 16.46,17.08 C 16.65,16.87 16.81,16.69 16.99,16.52 C 16.81,16.32 16.67,16.14 16.59,16.06 C 16.34,15.81 16.09,15.81 16.09,15.81 C 16.09,15.81 15.99,15.49 15.44,14.94 C 15.03,14.53 14.86,14.54 14.79,14.57 C 14.85,14.51 14.82,14.26 14,13.43 C 12.9,12.34 10.51,9.51 10.34,8.84 C 10.17,8.16 10,7.53 10,7.53 C 10,7.53 9.73,7.61 8.25,6.19 L 8.25,6.18 z" id="p3966" style="fill:#02090c;fill-opacity:0.51;stroke:none;display:inline"/>
<path d="M 9.96,7.4 L 7.71,10.11 C 7.7,10.11 7.7,10.13 7.71,10.14 C 7.71,10.15 7.72,10.16 7.74,10.17 C 7.74,10.17 7.76,10.17 7.77,10.17 C 7.77,10.17 7.79,10.17 7.8,10.17 C 7.8,10.17 7.82,10.17 7.83,10.17 C 7.83,10.17 7.96,10.13 8.2,10.14 C 8.43,10.15 8.78,10.23 9.16,10.51 C 9.19,10.53 9.24,10.57 9.28,10.6 C 9.28,10.6 9.3,10.6 9.31,10.6 C 9.64,10.47 9.93,10.27 10.18,10 C 10.41,9.75 10.54,9.44 10.62,9.12 C 10.54,8.98 10.48,8.87 10.46,8.81 C 10.29,8.13 10.12,7.5 10.12,7.5 C 10.12,7.49 10.12,7.47 10.12,7.47 C 10.11,7.45 10.1,7.44 10.09,7.44 C 10.08,7.42 10.07,7.41 10.06,7.41 C 10.05,7.4 10.03,7.4 10.03,7.41 C 10.02,7.4 10,7.4 10,7.41 L 9.97,7.41 L 9.96,7.4 z" id="p4071" style="fill:#7da5b5;fill-opacity:0.1;stroke:none"/>
<path d="M 8.18,6.06 C 8.17,6.06 8.17,6.08 8.18,6.09 C 8.17,6.08 8.15,6.08 8.15,6.09 L 7,7.28 C 7.13,7.41 7.38,7.68 7.78,8.09 C 8.25,8.58 7.9,9.58 7.6,9.96 C 7.61,9.98 7.69,10.08 7.69,10.08 C 7.69,10.09 7.7,10.1 7.72,10.11 C 7.71,10.11 7.71,10.13 7.72,10.14 C 7.72,10.15 7.73,10.16 7.75,10.17 C 7.75,10.17 7.77,10.17 7.78,10.17 C 7.78,10.17 7.8,10.17 7.81,10.17 C 7.81,10.17 7.83,10.17 7.84,10.17 C 7.84,10.17 7.97,10.13 8.21,10.14 C 8.38,10.15 8.62,10.18 8.89,10.32 C 9.5,10.34 9.77,10.16 9.59,9.68 C 9.36,9.07 9.34,9.2 9.53,8.87 C 9.72,8.54 9.87,7.72 9.84,8.25 C 9.81,8.77 10.15,9.43 10.4,9.9 C 10.64,10.36 11.03,11.04 11.11,11.15 C 11.19,11.25 10.98,10.25 11.39,10.87 C 11.79,11.47 13.15,12.95 14.35,13.65 C 14.27,13.56 14.19,13.46 14.07,13.34 C 13.53,12.8 12.67,11.83 11.92,10.91 C 11.55,10.45 11.19,10.01 10.92,9.63 C 10.67,9.25 10.49,8.93 10.46,8.81 C 10.29,8.13 10.12,7.5 10.12,7.5 C 10.12,7.49 10.12,7.47 10.12,7.47 C 10.11,7.45 10.1,7.44 10.09,7.44 C 10.08,7.42 10.07,7.41 10.06,7.41 C 10.05,7.4 10.03,7.4 10.03,7.41 C 10.02,7.4 10,7.4 10,7.41 C 10,7.4 9.98,7.4 9.97,7.41 C 9.93,7.39 9.86,7.35 9.75,7.28 C 9.51,7.13 9.07,6.8 8.34,6.09 C 8.33,6.07 8.32,6.06 8.31,6.06 C 8.3,6.05 8.28,6.05 8.28,6.06 C 8.27,6.05 8.25,6.05 8.25,6.06 C 8.24,6.05 8.22,6.05 8.22,6.06 C 8.21,6.05 8.19,6.05 8.19,6.06 L 8.18,6.06 z" id="p4044-9" style="fill:#e1eff5;fill-opacity:0.12;stroke:none;display:inline"/>
<path d="M 8.06,6.25 L 6.4,8.09 C 7.3,8.95 7.96,9.87 7.96,9.87 L 9.76,7.63 L 8.06,6.26 L 8.06,6.25 z" id="p3969" style="fill:#db8c47;fill-opacity:0.43;stroke:none;display:inline"/>
<path d="M 11.15,11.36 L 14.43,14.52" id="p4096" style="fill:none;stroke:#70441a;stroke-width:0.60;stroke-linecap:round;stroke-linejoin:miter;stroke-miterlimit:4;stroke-dasharray:none;stroke-opacity:0.46"/>
<path d="M 15,15.12 L 15.62,15.68" id="p4098" style="fill:none;stroke:#70441a;stroke-width:0.60;stroke-linecap:round;stroke-linejoin:miter;stroke-miterlimit:4;stroke-dasharray:none;stroke-opacity:0.46"/>
<path d="M 16.46,16.37 L 16.75,16.69" id="p4100" style="fill:none;stroke:#70441a;stroke-width:0.60;stroke-linecap:round;stroke-linejoin:miter;stroke-miterlimit:4;stroke-dasharray:none;stroke-opacity:0.46"/>
<path d="M 11.99,12.23 L 14.37,14.49" id="p4105" style="fill:none;stroke:#c8b297;stroke-width:0.5;stroke-linecap:round;stroke-linejoin:miter;stroke-miterlimit:4;stroke-dasharray:none;stroke-opacity:0.47"/>
<path d="M 15.09,15.21 L 15.68,15.74" id="p4108" style="fill:none;stroke:#c8b297;stroke-width:0.5;stroke-linecap:round;stroke-linejoin:miter;stroke-miterlimit:4;stroke-dasharray:none;stroke-opacity:0.47"/>
<path d="M 16.37,16.31 L 16.75,16.72" id="p4110" style="fill:none;stroke:#c8b297;stroke-width:0.5;stroke-linecap:round;stroke-linejoin:miter;stroke-miterlimit:4;stroke-dasharray:none;stroke-opacity:0.47"/>
<path d="M 13.43,13.4 L 14.42,14.34" id="p4112" style="fill:none;stroke:#f1f1f1;stroke-width:0.40;stroke-linecap:round;stroke-linejoin:miter;stroke-miterlimit:4;stroke-dasharray:none;stroke-opacity:0.31"/>
<path d="M 15.4,15.3 L 15.83,15.68" id="p4127" style="fill:none;stroke:#f1f1f1;stroke-width:0.40;stroke-linecap:round;stroke-linejoin:miter;marker:none;stroke-miterlimit:4;stroke-dasharray:none;stroke-dashoffset:0;stroke-opacity:0.31;visibility:visible;display:inline;overflow:visible;enable-background:accumulate"/>
<path d="M 16.51,16.36 L 16.94,16.7" id="p4137" style="fill:none;stroke:#f1f1f1;stroke-width:0.40;stroke-linecap:round;stroke-linejoin:miter;marker:none;stroke-miterlimit:4;stroke-dasharray:none;stroke-dashoffset:0;stroke-opacity:0.31;visibility:visible;display:inline;overflow:visible;enable-background:accumulate"/>
<path d="M 10.03,7.72 L 10.15,8.46" id="p4147" style="fill:none;stroke:#e6e6e6;stroke-width:0.2;stroke-linecap:round;stroke-linejoin:miter;stroke-miterlimit:4;stroke-dasharray:none;stroke-opacity:0.95"/>
<path d="M 9.16,8.52 L 9.64,7.93" id="p3974" style="fill:none;stroke:#f6e2e2;stroke-width:0.30;stroke-linecap:round;stroke-linejoin:miter;stroke-miterlimit:4;stroke-dasharray:none;stroke-opacity:0.43;display:inline"/>
<path d="M 8.16,9.69 L 8.69,9.07" id="p3972" style="fill:none;stroke:#f6e2e2;stroke-width:0.30;stroke-linecap:round;stroke-linejoin:miter;stroke-miterlimit:4;stroke-dasharray:none;stroke-opacity:0.43;display:inline"/>
<path d="M 13.91,15.68 C 13.96,15.27 15.52,13.7 15.96,13.86" id="p4151" style="fill:none;stroke:#4a4a4a;stroke-width:0.2;stroke-linecap:butt;stroke-linejoin:miter;stroke-miterlimit:4;stroke-dasharray:none;stroke-opacity:0.36"/>
<path d="M 15.05,16.85 C 15.1,16.44 16.66,14.87 17.1,15.03" id="p4151-9" style="fill:none;stroke:#4a4a4a;stroke-width:0.2;stroke-linecap:butt;stroke-linejoin:miter;stroke-miterlimit:4;stroke-dasharray:none;stroke-opacity:0.36;display:inline"/>
<path d="M 14.12,15.8 C 14.17,15.39 15.73,13.82 16.17,13.98" id="p4151-5" style="fill:none;stroke:#fafafa;stroke-width:0.30;stroke-linecap:butt;stroke-linejoin:miter;stroke-miterlimit:4;stroke-dasharray:none;stroke-opacity:0.54;display:inline"/>
<path d="M 15.14,17.07 C 15.19,16.66 16.75,15.09 17.19,15.25" id="p4151-5-7" style="fill:none;stroke:#fafafa;stroke-width:0.30;stroke-linecap:butt;stroke-linejoin:miter;stroke-miterlimit:4;stroke-dasharray:none;stroke-opacity:0.41;display:inline"/>
<path d="M 16.37,15.63 L 16.81,15.33" id="p4207" style="fill:none;stroke:#fbfbfb;stroke-width:0.5;stroke-linecap:round;stroke-linejoin:miter;stroke-miterlimit:4;stroke-dasharray:none;stroke-opacity:0.73"/>
<path d="M 16.52,17.23 C 16.52,17.23 44.69,44.82 45.16,45.4 C 45.63,45.98 45.79,45.4 45.42,44.93 C 45.06,44.45 17.31,16.33 17.31,16.33 L 16.52,17.23 L 16.52,17.23 z" id="p4209" style="fill:#000000;fill-opacity:0.31;stroke:none;display:inline"/>
<path d="M 27.31,26.46 L 26.66,27.05 L 28.09,28.45 L 28.71,27.83 L 27.31,26.46 L 27.31,26.46 z M 28.77,27.89 L 28.18,28.51 L 28.37,28.75 L 29,28.15 L 28.79,27.9 L 28.77,27.89 z M 29.14,28.26 L 28.52,28.88 L 28.7,29.03 L 29.29,28.44 L 29.14,28.26 z M 29.45,28.57 L 28.86,29.19 L 28.95,29.25 L 29.54,28.66 L 29.45,28.57 z M 29.82,28.94 L 29.25,29.56 L 29.59,29.9 L 30.18,29.31 L 29.84,28.96 L 29.82,28.94 z M 30.25,29.4 L 29.65,30 L 29.78,30.09 L 30.37,29.5 L 30.25,29.4 z M 30.53,29.61 L 29.91,30.23 L 30.19,30.44 L 30.78,29.85 L 30.53,29.6 L 30.53,29.61 z M 31.06,30.14 L 30.47,30.76 L 30.56,30.82 L 31.12,30.25 L 31.06,30.15 L 31.06,30.14 z M 31.21,30.29 L 30.62,30.88 L 30.68,30.94 L 31.27,30.38 L 31.21,30.29 z M 31.55,30.66 L 30.96,31.22 L 31.11,31.37 L 31.7,30.78 L 31.55,30.66 L 31.55,30.66 z M 31.76,30.84 L 31.17,31.43 L 31.29,31.52 L 31.87,31 L 31.78,30.87 L 31.76,30.84 z M 32,31.12 L 31.44,31.71 L 31.59,31.83 L 32.15,31.27 L 32,31.12 z M 32.31,31.4 L 31.71,32 L 31.83,32.09 L 32.39,31.53 L 32.3,31.41 L 32.31,31.4 z M 32.49,31.58 L 31.9,32.17 L 32.33,32.57 L 32.9,32 L 32.5,31.59 L 32.49,31.58 z M 33.02,32.14 L 32.46,32.7 L 32.55,32.76 L 33.11,32.2 L 33.02,32.14 z M 33.39,32.48 L 32.83,33.04 L 33.2,33.41 L 33.76,32.85 L 33.39,32.48 z M 33.85,32.94 L 33.29,33.5 L 33.38,33.62 L 34,33.06 L 33.87,32.96 L 33.85,32.94 z M 34.13,33.19 L 33.57,33.75 L 33.66,33.87 L 34.22,33.31 L 34.13,33.19 z M 34.31,33.37 L 33.75,33.93 L 33.96,34.18 L 34.52,33.62 L 34.31,33.37 z M 34.62,33.68 L 34.03,34.24 L 34.28,34.45 L 34.84,33.89 L 34.63,33.68 L 34.62,33.68 z M 34.93,33.99 L 34.37,34.55 L 35.74,35.89 L 36.27,35.33 L 34.93,33.99 L 34.93,33.99 z" id="p4212" style="fill:#a0a8af;fill-opacity:1;stroke:none;display:inline"/>
<path d="M 20.39,21.15 C 20.44,21.13 20.5,21.07 20.49,21.01 C 20.45,20.93 20.38,20.89 20.33,20.81 C 20.28,20.76 20.23,20.71 20.18,20.65 C 20.16,20.71 20.1,20.79 20.03,20.77 C 19.98,20.72 20.02,20.64 20.05,20.59 C 20.09,20.51 20.2,20.46 20.29,20.49 C 20.38,20.53 20.44,20.61 20.47,20.69 C 20.53,20.78 20.63,20.88 20.74,20.86 C 20.78,20.84 20.82,20.78 20.85,20.85 C 20.87,20.93 20.8,20.98 20.75,21.01 C 20.67,21.08 20.6,21.15 20.53,21.21 C 20.48,21.27 20.44,21.21 20.41,21.17 C 20.41,21.17 20.4,21.16 20.39,21.16 L 20.39,21.15 z" id="p4566" style="fill:#c9cdcf;fill-opacity:1"/>
<path d="M 21.09,20.5 C 21.17,20.43 21.26,20.34 21.35,20.26 C 21.42,20.3 21.44,20.38 21.38,20.44 C 21.32,20.49 21.26,20.55 21.2,20.6 C 21.15,20.65 21.11,20.71 21.04,20.74 C 20.97,20.74 20.95,20.64 20.94,20.58 C 20.93,20.46 21.01,20.32 20.97,20.18 C 20.94,20.12 20.86,20.05 20.79,20.1 C 20.73,20.14 20.68,20.21 20.62,20.26 C 20.56,20.24 20.56,20.13 20.59,20.09 C 20.66,19.97 20.82,19.87 20.97,19.89 C 21.06,19.91 21.12,19.99 21.14,20.08 C 21.18,20.21 21.13,20.36 21.11,20.49" id="p4568" style="fill:#c9cdcf;fill-opacity:1"/>
<path d="M 21.69,21.47 C 22.05,21.5 21.47,21.17 21.69,21.47 z M 21.49,21.67 C 21.77,21.78 21.52,21.4 21.45,21.57 C 21.46,21.6 21.48,21.64 21.49,21.67 z M 21.76,21.62 C 21.78,21.96 21.35,21.83 21.29,21.6 C 21.2,21.38 21.51,21.2 21.69,21.17 C 21.9,21.18 22.12,21.59 21.81,21.63 L 21.77,21.63 L 21.76,21.62 z" id="p4571" style="fill:#acb2b5;fill-opacity:1"/>
<path d="M 22.14,21.96 C 22.43,22.09 22.12,21.65 22.12,21.9 L 22.13,21.92 L 22.14,21.94 L 22.14,21.96 z M 22.01,21.99 C 21.85,22.15 21.76,21.99 21.9,21.86 C 21.99,21.64 22.38,21.51 22.4,21.86 C 22.43,22.04 22.19,22.38 22.03,22.34 C 21.97,22.23 22.13,22.08 22.01,21.99 L 22.01,21.99 z" id="p4573" style="fill:#acb2b5;fill-opacity:1"/>
<path d="M 22.67,22.07 C 22.84,22.27 22.56,22.5 22.35,22.54 C 22.2,22.45 22.48,22.29 22.56,22.18 C 22.59,22.15 22.62,22.11 22.66,22.08 L 22.67,22.07 z" id="p4575" style="fill:#acb2b5;fill-opacity:1"/>
<path d="M 23.23,22.64 C 23.12,22.7 22.82,22.47 22.96,22.72 C 23.15,22.99 22.73,23.1 22.6,22.87 C 22.44,22.72 22.68,22.79 22.75,22.87 C 22.67,22.6 22.93,22.15 23.15,22.52 C 23.18,22.55 23.21,22.59 23.23,22.63 L 23.23,22.64 z" id="p4577" style="fill:#acb2b5;fill-opacity:1"/>
<path d="M 23.32,22.7 C 23.38,22.85 23.76,22.98 23.67,23.13 C 23.45,23.01 23.28,23.31 23.12,23.35 C 23.15,23.13 23.45,22.97 23.3,22.72 C 23.31,22.72 23.31,22.71 23.33,22.7 L 23.32,22.7 z" id="p4579" style="fill:#acb2b5;fill-opacity:1"/>
<path d="M 23.82,23.19 C 23.97,23.44 23.54,23.63 23.64,23.88 C 23.67,23.92 23.26,23.71 23.44,23.56 C 23.55,23.42 23.69,23.31 23.81,23.19 L 23.82,23.19 z" id="p4581" style="fill:#acb2b5;fill-opacity:1"/>
<path d="M 24.24,23.59 C 24.39,23.63 24.65,24.06 24.32,23.89 C 24.17,23.75 24.45,24.18 24.16,24.08 C 23.88,23.93 24.27,24.32 24.05,24.28 C 23.83,24.19 23.74,23.82 24.05,23.77 C 24.11,23.71 24.17,23.64 24.24,23.58 L 24.24,23.59 z" id="p4583" style="fill:#acb2b5;fill-opacity:1"/>
<path d="M 24.9,24.24 C 25.03,24.37 24.82,24.81 25.14,24.61 C 25.36,24.63 25.08,24.98 24.93,25.04 C 24.66,25.12 25.02,24.62 24.69,24.7 C 24.57,24.75 24.41,24.71 24.56,24.58 C 24.67,24.46 24.79,24.36 24.9,24.24 L 24.9,24.24 z" id="p4585" style="fill:#acb2b5;fill-opacity:1"/>
<path d="M 25.36,25.43 C 25.16,25.36 24.89,25.1 25.24,25.01 C 25.38,24.87 25.74,24.85 25.64,25.16 C 25.6,25.28 25.5,25.65 25.35,25.57 C 25.34,25.54 25.34,25.48 25.35,25.43 L 25.36,25.43 z M 25.28,25.19 C 25.39,25.43 25.56,25.04 25.36,25.1 C 25.34,25.13 25.31,25.16 25.28,25.19 z" id="p4587" style="fill:#acb2b5;fill-opacity:1"/>
<path d="M 25.95,25.26 C 26.12,25.46 25.84,25.69 25.63,25.72 C 25.48,25.64 25.76,25.48 25.84,25.37 C 25.87,25.33 25.9,25.3 25.94,25.26 L 25.95,25.26 z" id="p4589" style="fill:#acb2b5;fill-opacity:1"/>
<path d="M 26.16,25.87 C 26.45,26 26.15,25.56 26.14,25.81 L 26.15,25.83 L 26.16,25.85 L 26.16,25.87 z M 26.04,25.9 C 25.88,26.06 25.79,25.9 25.93,25.77 C 26.02,25.55 26.41,25.42 26.43,25.77 C 26.47,25.96 26.18,26.28 26.09,26.25 C 26.05,26.14 26.04,26.03 26.03,25.91" id="p4591" style="fill:#acb2b5;fill-opacity:1"/>
<path d="M 36.35,35.28 C 36.93,35.36 35.71,35.99 36.34,35.48 L 36.36,35.39 L 36.35,35.28 L 36.35,35.28 z" id="p4594" style="fill:#b0b6b8;fill-opacity:0.87"/>
<path d="M 36.53,35.86 C 36.22,35.82 36.61,36.13 36.53,35.86 z M 36.51,35.78 C 36.94,35.35 36.55,36.49 36.32,35.97 C 36.27,35.87 36.4,35.73 36.51,35.78 M 36.59,35.73 C 36.5,35.98 36.82,35.61 36.59,35.73 z" id="p4596" style="fill:#b0b6b8;fill-opacity:0.87"/>
<path d="M 36.88,36.15 C 37.09,35.78 36.44,36.43 36.88,36.15 z M 36.95,36.22 C 36.37,36.62 36.93,35.39 37.05,36.06 C 37.05,36.12 37.01,36.18 36.95,36.22 L 36.95,36.22 z" id="p4598" style="fill:#b0b6b8;fill-opacity:0.87"/>
<path d="M 37.09,36.4 C 36.78,36.36 37.17,36.67 37.09,36.4 z M 37.06,36.33 C 37.49,35.9 37.11,37.03 36.88,36.51 C 36.83,36.41 36.95,36.27 37.06,36.33 M 37.14,36.27 C 37.05,36.53 37.37,36.15 37.14,36.27 z" id="p4600" style="fill:#b0b6b8;fill-opacity:0.87"/>
<path d="M 37.43,36.7 C 37.64,36.32 36.99,36.97 37.43,36.7 z M 37.5,36.77 C 36.92,37.17 37.48,35.93 37.61,36.61 C 37.6,36.66 37.56,36.73 37.5,36.77 L 37.5,36.77 z" id="p4602" style="fill:#b0b6b8;fill-opacity:0.87"/>
<path d="M 37.77,36.83 C 37.53,36.8 37.56,37.1 37.77,36.83 z M 37.84,36.75 C 38.04,37.17 37.13,37.18 37.59,36.82 C 37.66,36.8 37.76,36.8 37.84,36.75 z" id="p4604" style="fill:#b0b6b8;fill-opacity:0.87"/>
<path d="M 37.81,37.28 C 37.98,37.58 37.44,37.1 37.94,37.16 C 38.23,36.62 38.21,37.53 37.81,37.28 L 37.81,37.28 z" id="p4606" style="fill:#b0b6b8;fill-opacity:0.87"/>
<path d="M 38.28,37.19 C 38.87,37.26 37.65,37.89 38.28,37.39 L 38.29,37.3 L 38.28,37.19 L 38.28,37.19 z" id="p4608" style="fill:#b0b6b8;fill-opacity:0.87"/>
<path d="M 38.54,37.79 C 38.75,37.41 38.1,38.06 38.54,37.79 z M 38.61,37.86 C 38.03,38.26 38.59,37.02 38.72,37.7 C 38.71,37.75 38.67,37.82 38.61,37.86 L 38.61,37.86 z" id="p4610" style="fill:#b0b6b8;fill-opacity:0.87"/>
<path d="M 38.83,38.05 C 38.92,38.41 38.25,38.02 38.67,38.11 C 38.86,37.92 38.92,37.58 38.99,37.99 C 38.97,38.06 38.87,38.07 38.84,38.05 L 38.83,38.05 z" id="p4612" style="fill:#b0b6b8;fill-opacity:0.87"/>
<path d="M 38.91,38.38 C 39.09,38.67 38.55,38.19 39.05,38.26 C 39.33,37.71 39.32,38.62 38.91,38.38 L 38.91,38.38 z" id="p4614" style="fill:#b0b6b8;fill-opacity:0.87"/>
<path d="M 39.38,38.27 C 39.97,38.35 38.75,38.98 39.38,38.47 L 39.4,38.38 L 39.38,38.27 L 39.38,38.27 z" id="p4616" style="fill:#b0b6b8;fill-opacity:0.87"/>
<path d="M 8.71,5.75 L 8.59,5.81 L 5.84,8.68 C 6.37,9.18 7.03,9.82 7.15,9.93 C 7.6,10.33 9.98,12.25 10.83,12.96 C 11.68,13.66 13.6,15.41 13.86,15.61 C 14.11,15.81 14.03,15.96 14.39,16.26 C 14.74,16.56 15.14,16.76 15.29,16.91 C 15.44,17.06 15.68,17.55 15.98,17.85 C 16.74,16.86 17.41,16.25 17.98,15.85 C 17.83,15.73 17.45,15.35 17.4,15.31 C 17.15,15.11 16.87,14.92 16.62,14.62 C 16.37,14.32 16.07,14.07 15.87,13.87 C 15.67,13.67 15.53,13.46 15.03,12.9 C 14.52,12.35 10.64,7.86 10.18,7.31 C 9.73,6.75 8.71,5.75 8.71,5.75 z" id="p3780-9" style="fill:none;stroke:#525757;stroke-width:0.30;stroke-miterlimit:4;stroke-dasharray:none;stroke-opacity:1;display:inline"/>
<path d="M 45.88,44.47 C 46.78,45.37 45.38,46.28 44.78,45.73 C 44.16,45.17 20.72,22.53 19.15,20.97 C 17.59,19.41 16.23,18.1 15.93,17.79 C 15.63,17.49 15.47,17.09 15.32,16.94 C 15.17,16.78 14.77,16.58 14.42,16.28 C 14.06,15.98 14.11,15.83 13.86,15.63 C 13.61,15.42 11.69,13.66 10.84,12.95 C 9.98,12.25 7.61,10.33 7.15,9.93 C 6.7,9.52 2.26,5.24 2.26,5.24 L 2.36,4.94 L 2.46,4.99 L 2.46,4.69 L 3.37,3.88 L 3.57,4.03 L 3.47,3.78 L 4.08,3.27 L 4.18,3.37 L 4.18,3.12 L 5.19,2.31 L 5.39,2.16 L 8.52,5.84 L 8.72,5.74 C 8.72,5.74 9.72,6.74 10.18,7.3 C 10.63,7.85 14.51,12.34 15.02,12.89 C 15.52,13.44 15.67,13.64 15.87,13.84 C 16.07,14.04 16.37,14.29 16.62,14.59 C 16.87,14.89 17.12,15.09 17.37,15.29 C 17.62,15.49 19.43,17.1 20.64,18.31 C 21.85,19.52 28.15,25.82 29.96,27.73 C 31.77,29.64 45.08,43.56 45.84,44.41 L 45.88,44.47 z" id="stroke01" style="fill:none;stroke:#0e0f0f;stroke-width:0.5;stroke-miterlimit:4;stroke-dasharray:none;stroke-opacity:1;display:inline"/>
</g>
</svg>
