<?xml version="1.0" encoding="UTF-8" standalone="no"?>
<!DOCTYPE svg PUBLIC "-//W3C//DTD SVG 1.0//EN" "http://www.w3.org/TR/2001/REC-SVG-20010904/DTD/svg10.dtd">
<svg xmlns:svg="http://www.w3.org/2000/svg" xmlns="http://www.w3.org/2000/svg" version="1.0" width="100%" height="100%" viewBox="0 0 48 48" id="_corrector01">
<defs id="defs2405"/>
<g id="corrector" style="display:inline">
<path d="M 25.43,2.78 C 24.09,2.78 20.59,2.89 20.59,3.4 C 20.59,3.92 20.39,14.28 20.39,14.59 C 20.38,14.89 20.11,14.68 20.12,14.99 C 20.13,15.31 20.15,15.61 20.15,15.87 C 20.15,16.39 20.71,16.46 20.71,16.46 C 20.71,16.46 17.28,16.74 17.31,18.53 C 17.34,20.32 17.59,37.2 17.62,41.43 C 17.64,42.82 20.93,44.28 25.03,44.28 C 29.93,44.28 32.4,42.63 32.41,41.1 C 32.42,39.61 32.55,19.58 32.56,18.43 C 32.56,17.26 30.17,16.62 29.29,16.51 C 29.29,16.51 29.84,16.4 29.85,16.1 C 29.86,15.89 29.84,15.6 29.84,15.09 C 29.84,14.59 29.46,14.81 29.46,14.39 C 29.47,13.96 29.34,4.33 29.34,3.71 C 29.34,3.1 26.77,2.78 25.43,2.78 z" id="p3262" style="fill:#dcdde0;fill-opacity:1;fill-rule:evenodd;stroke:none;marker:none;visibility:visible;display:inline;overflow:visible;enable-background:accumulate"/>
<path d="M 18.37,18.43 C 17.86,18.42 17.53,18.56 17.31,18.81 C 17.34,20.94 17.59,37.25 17.62,41.43 C 17.64,42.83 20.93,44.28 25.03,44.28 C 26.02,44.28 26.89,44.21 27.68,44.09 C 27.71,41.57 27.9,25.15 27.93,23.4 C 27.97,21.52 28.06,20.64 27.59,20.03 C 27.12,19.41 21.02,18.82 19.03,18.5 C 18.78,18.45 18.56,18.44 18.37,18.43 z" id="p3341" style="fill:#838792;fill-opacity:0.41;fill-rule:evenodd;stroke:none;display:inline"/>
<path d="M 25.43,2.78 C 25.16,2.78 24.77,2.8 24.37,2.81 C 24.21,3.14 24.1,3.54 24.09,4.03 C 26.36,4.03 28.53,3.62 28.53,3.62 L 29.03,3.4 C 28.33,3 26.51,2.78 25.43,2.78 z" id="p3273" style="fill:#525252;fill-opacity:0.25;fill-rule:evenodd;stroke:none;display:inline"/>
<path d="M 23.25,2.87 C 22.31,2.93 21.41,2.99 20.93,3.15 L 21.43,3.68 L 23.21,3.81 L 23.25,2.87 z" id="p3278" style="fill:#fbfbfb;fill-opacity:0.7;fill-rule:evenodd;stroke:none;display:inline"/>
<path d="M 26.25,2.81 L 25.96,3.9 L 29.31,3.62 C 29.12,3.16 27.53,2.89 26.25,2.81 z" id="p3276" style="fill:#525252;fill-opacity:0.22;fill-rule:evenodd;stroke:none;display:inline"/>
<path d="M 29.12,3.43 L 27.65,3.75 L 27.75,15.75 C 27.74,15.75 26.84,15.96 26.29,15.96 C 26.26,16.4 26.18,17.12 26.18,17.12 C 26.18,17.12 28.04,17.22 29.81,16.18 C 29.82,16.15 29.84,16.12 29.84,16.09 C 29.85,15.88 29.84,15.61 29.84,15.09 C 29.84,14.59 29.46,14.83 29.46,14.4 C 29.47,13.98 29.34,4.33 29.34,3.71 C 29.34,3.61 29.24,3.52 29.12,3.43 z" id="p3291" style="fill:#f3f4f7;fill-opacity:1;fill-rule:evenodd;stroke:none;display:inline"/>
<path d="M 20.65,3.28 C 20.61,3.31 20.59,3.36 20.59,3.4 C 20.59,3.92 20.41,14.28 20.4,14.59 C 20.4,14.89 20.11,14.68 20.12,15 C 20.13,15.32 20.15,15.61 20.15,15.87 C 20.15,16.13 20.29,16.29 20.43,16.37 C 20.57,16.45 20.71,16.46 20.71,16.46 L 22.21,16.9 L 22.21,15.75 L 24.37,15.84 L 24.46,4 L 21.34,3.62 L 20.65,3.28 z" id="p3293" style="fill:#989a97;fill-opacity:1;fill-rule:evenodd;stroke:none;display:inline"/>
<path d="M 25.23,3.89 C 25.23,5.3 26.07,6.85 26.07,8.57 C 26.07,10.3 24.96,9.81 24.96,10.56 C 24.96,11.31 24.92,12.68 24.92,13.21 C 24.92,13.74 27.48,11.89 27.48,9.9 C 27.48,7.91 27.4,3.76 27.4,3.76 L 25.23,3.89 z" id="p3303" style="fill:#7f7f7f;fill-opacity:0.1;fill-rule:evenodd;stroke:none;display:inline"/>
<path d="M 21.86,15.64 L 24.31,15.97 L 24.85,15.99 L 24.87,17.2 C 24.87,17.2 22.51,16.96 22.21,16.9 C 21.91,16.83 21.84,16.86 21.84,16.86 L 21.86,15.64 z" id="p3321" style="fill:#888888;fill-opacity:0.45;fill-rule:evenodd;stroke:none"/>
<path d="M 21.25,15.56 C 23.55,16.4 27.17,16 27.75,15.82 C 27.63,15.83 24.57,15.91 24.57,15.91 L 21.25,15.56 z" id="p3306" style="fill:#f3f4f7;fill-opacity:0.81;fill-rule:evenodd;stroke:none;display:inline"/>
<path d="M 20.68,3.25 C 20.62,3.29 20.59,3.35 20.59,3.4 C 20.59,3.92 20.41,14.28 20.4,14.59 C 20.4,14.89 20.11,14.68 20.12,15 C 20.13,15.32 20.15,15.61 20.15,15.87 C 20.15,16.33 20.56,16.45 20.65,16.46 L 21.56,16.68 L 21.56,15.78 L 21.81,15.46 C 21.81,15.46 21.88,11.27 21.96,9.46 C 22.05,7.66 22.3,7.77 22.87,7.93 C 23.44,8.1 23.45,5.45 23.12,3.81 L 21.46,3.65 L 20.81,3.4 L 20.68,3.25 z" id="p3309" style="fill:#c1c1c2;fill-opacity:0.36;fill-rule:evenodd;stroke:none;display:inline"/>
<path d="M 20.62,3.31 C 20.59,3.34 20.59,3.37 20.59,3.4 C 20.59,3.92 20.41,14.28 20.4,14.59 C 20.4,14.89 20.11,14.68 20.12,15 C 20.13,15.32 20.15,15.61 20.15,15.87 C 20.15,16.13 20.29,16.29 20.43,16.37 C 20.57,16.45 20.71,16.46 20.71,16.46 L 20.9,16.53 L 20.96,15.31 L 21.21,15.21 L 21.46,3.75 L 20.75,3.34 L 20.62,3.31 z" id="p3312" style="fill:#f3f3f3;fill-opacity:0.36;fill-rule:evenodd;stroke:none;display:inline"/>
<path d="M 21.44,16.79 C 20.47,17.28 19.59,18.74 23.56,18.34 C 27.53,17.94 30.58,16.75 28.55,16.79 C 26.52,16.84 27.53,17.59 21.44,16.79 z" id="p3326" style="fill:#393939;fill-opacity:0.57;fill-rule:evenodd;stroke:none;display:inline"/>
<path d="M 20.65,16.46 C 20.46,16.48 17.28,16.79 17.31,18.53 C 17.31,18.54 17.31,18.7 17.31,18.71 C 18.09,18.4 18.92,18.96 20.57,19.21 C 22.22,19.46 24.71,19.4 26.17,19.41 C 29.21,19.45 29.8,17.61 29.78,16.59 C 29.67,16.57 29.55,16.54 29.46,16.53 C 28.94,16.76 27.68,17.19 25.34,17.21 C 23.6,17.23 21.91,16.83 20.65,16.46 z" id="p3338" style="fill:#c9d2d2;fill-opacity:0.73;fill-rule:evenodd;stroke:none;display:inline"/>
<path d="M 20.68,16.46 C 20.62,16.47 19.26,16.6 18.28,17.15 C 19.39,17.55 21.03,17.91 23.43,17.93 C 28.77,17.98 28.81,16.98 28.37,16.81 C 24.45,17.57 22.17,17.03 20.71,16.46 C 20.71,16.46 20.69,16.46 20.68,16.46 z" id="p3323" style="fill:#393939;fill-opacity:0.27;fill-rule:evenodd;stroke:none;display:inline"/>
<path d="M 29.75,16.59 C 29.69,16.61 29.46,16.69 29.46,16.68 C 28.94,17.39 26.77,17.81 26.06,17.96 C 25.35,18.11 30.22,18.04 27.31,18.71 C 24.39,19.39 28.29,18.88 29.15,18.46 C 29.86,18.12 29.26,17.33 30.06,16.65 C 29.94,16.62 29.85,16.61 29.75,16.59 z" id="p3332" style="fill:#f7f7f7;fill-opacity:0.66;fill-rule:evenodd;stroke:none;display:inline"/>
<path d="M 32.29,17.8 C 32.42,19.1 28.84,19.03 28.59,19.37 C 27.85,20.37 30.78,19.01 30.78,19.75 C 30.78,20.17 30.78,42.21 30.78,43.15 C 31.85,42.57 32.4,41.8 32.4,41.09 C 32.38,33.42 32.48,25.43 32.29,17.8 z" id="p3367" style="fill:#fcfcfc;fill-opacity:0.66;fill-rule:evenodd;stroke:none;display:inline"/>
<path d="M 17.34,19.75 C 17.39,22.7 17.54,35.2 17.59,40.15 C 18.26,41.53 21.29,42.59 24.96,42.59 C 28.69,42.59 31.76,41.5 32.37,40.09 L 32.4,40.09 C 32.42,37.34 32.54,22.63 32.56,19.75 L 32.37,19.75 C 31.94,20.76 28.74,21.53 24.87,21.53 C 21.02,21.53 17.85,20.75 17.4,19.75 L 17.34,19.75 z" id="p3344" style="fill:#eeeff2;fill-opacity:0.97;fill-rule:evenodd;stroke:none;marker:none;visibility:visible;display:inline;overflow:visible;enable-background:accumulate"/>
<path d="M 19.34,18.93 C 22.59,20.15 25.67,19.93 27.93,19.54" id="p3364" style="fill:none;fill-rule:evenodd;stroke:#d0d0d0;stroke-width:0.88;stroke-linecap:round;stroke-linejoin:miter;stroke-miterlimit:4;stroke-dasharray:none;stroke-opacity:0.56;display:inline"/>
<path d="M 26.54,19.8 C 27.19,19.76 27.89,19.74 28.83,19.54" id="p3370" style="fill:none;fill-rule:evenodd;stroke:#ffffff;stroke-width:0.80;stroke-linecap:round;stroke-linejoin:miter;stroke-miterlimit:4;stroke-dasharray:none;stroke-opacity:0.82;display:inline"/>
<path d="M 17.93,18.72 C 18.14,18.94 18.46,19.34 20,19.48" id="p3376" style="fill:none;fill-rule:evenodd;stroke:#2e3235;stroke-width:0.88;stroke-linecap:round;stroke-linejoin:miter;stroke-miterlimit:4;stroke-dasharray:none;stroke-opacity:0.37;display:inline"/>
<path d="M 17.34,19.75 C 17.39,22.7 17.54,35.2 17.59,40.15 C 18.26,41.53 21.29,42.59 24.96,42.59 C 25.68,42.59 26.37,42.54 27.03,42.46 L 27.15,21.43 C 26.43,21.49 25.67,21.53 24.87,21.53 C 21.02,21.53 17.85,20.75 17.4,19.75 L 17.34,19.75 z" id="p3385" style="fill:#233f95;fill-opacity:1;fill-rule:evenodd;stroke:none;display:inline"/>
<path d="M 19.94,37.99 C 20.15,39.41 19.75,40.57 19.05,40.57 C 18.35,40.57 17.77,39.37 17.64,37.93 C 17.51,36.47 17.72,35.4 18.29,35.4 C 18.99,35.4 19.73,36.56 19.94,37.99 z" id="p4026" style="fill:#11224a;fill-opacity:1;fill-rule:nonzero;stroke:#cbd1d8;stroke-width:0.2;stroke-linecap:butt;stroke-linejoin:miter;marker:none;stroke-miterlimit:4;stroke-dasharray:none;stroke-dashoffset:0;stroke-opacity:0.81;visibility:visible;display:inline;overflow:visible;enable-background:accumulate"/>
<path d="M 22.78,40.37 C 22.58,40.39 22.48,40.7 22.67,40.79 C 22.87,40.88 23.01,40.55 23.2,40.67 C 23.33,40.79 23.22,40.99 23.09,41.05 C 22.92,41.11 22.78,41.23 22.66,41.35 C 22.53,41.45 22.46,41.66 22.64,41.74 C 22.78,41.82 22.94,41.75 23.09,41.79 C 23.25,41.8 23.41,41.85 23.57,41.86 C 23.78,41.81 23.67,41.45 23.47,41.51 C 23.37,41.54 23.07,41.5 23.22,41.36 C 23.38,41.25 23.59,41.17 23.65,40.97 C 23.74,40.73 23.55,40.49 23.33,40.42 C 23.15,40.35 22.96,40.35 22.78,40.37 z M 24.18,40.53 C 23.93,40.62 23.81,40.92 23.84,41.18 C 23.79,41.55 24.05,41.97 24.43,42 C 24.68,42.05 24.95,41.88 24.97,41.62 C 25.03,41.32 25.01,40.97 24.82,40.72 C 24.67,40.54 24.41,40.48 24.18,40.53 z M 24.43,40.78 C 24.61,40.88 24.62,41.11 24.62,41.3 C 24.65,41.44 24.6,41.69 24.41,41.68 C 24.25,41.65 24.23,41.46 24.24,41.32 C 24.27,41.14 24.18,40.89 24.38,40.79 C 24.4,40.78 24.41,40.78 24.43,40.78 z M 26.34,41.12 C 26.34,41.38 26.34,41.64 26.34,41.9 C 26.58,41.96 26.61,41.64 26.57,41.48 C 26.57,41.35 26.59,41.12 26.4,41.12 C 26.38,41.12 26.36,41.12 26.34,41.12 z M 25.65,41.31 C 25.5,41.34 25.24,41.32 25.23,41.54 C 25.16,41.67 25.3,42.01 25.45,41.82 C 25.47,41.74 25.5,41.45 25.59,41.62 C 25.55,41.76 25.77,42 25.82,41.79 C 25.78,41.68 25.97,41.46 25.96,41.68 C 25.95,41.88 26.26,41.94 26.23,41.7 C 26.25,41.55 26.18,41.33 25.99,41.32 C 25.88,41.33 25.75,41.41 25.65,41.31 z" id="text3993" style="fill:#b2241f;fill-opacity:0.91;stroke:#cbd1d8;stroke-width:0.1;stroke-linecap:butt;stroke-linejoin:miter;stroke-miterlimit:4;stroke-dasharray:none;stroke-opacity:1"/>
<path d="M 20.25,32.78 C 20.2,32.95 19.83,33.18 20.06,33.32 C 20.15,33.24 20.33,33.22 20.39,33.19 C 20.36,33.07 20.39,32.95 20.53,32.99 C 20.65,32.88 20.29,32.84 20.25,32.78 z M 20.56,33.18 C 20.3,33.25 20.44,33.69 20.69,33.63 C 20.94,33.58 20.88,33.09 20.61,33.16 L 20.58,33.17 L 20.56,33.18 z M 21.62,33.25 C 21.37,33.27 21.17,33.58 21.3,33.81 C 21.53,33.78 21.57,33.46 21.61,33.29 L 21.62,33.25 z M 20.62,33.28 C 20.89,33.34 20.39,33.58 20.6,33.29 L 20.62,33.28 z M 21.03,33.28 C 20.83,33.32 20.87,33.79 21.08,33.56 C 21.2,33.48 21.25,33.22 21.03,33.28 z M 24.59,33.43 C 24.48,33.6 24.85,33.42 24.59,33.43 z M 21.96,33.5 C 21.96,33.65 21.67,33.96 21.92,34.01 C 22.07,33.93 22.39,33.92 22.34,33.68 C 22.3,33.52 22.11,33.46 21.96,33.5 z M 22.68,33.56 C 22.42,33.47 22.27,33.95 22.54,34.02 C 22.79,34.1 23.01,33.65 22.73,33.56 L 22.71,33.56 L 22.68,33.56 z M 25.09,33.56 C 24.88,33.49 24.59,33.86 24.84,33.97 C 24.98,33.9 24.99,33.69 25.12,33.61 L 25.11,33.58 L 25.09,33.56 z M 23,33.59 C 22.77,33.76 23.03,34.16 23.29,34.05 C 23.52,34.02 23.39,33.48 23.24,33.78 C 22.95,33.96 23.28,33.45 23,33.59 z M 24.21,33.59 C 23.95,33.54 23.84,34.02 24.12,34.08 C 24.38,34.14 24.56,33.66 24.27,33.59 L 24.24,33.59 L 24.21,33.59 z M 24.56,33.59 C 24.35,33.67 24.59,34.14 24.69,33.84 C 24.72,33.75 24.71,33.53 24.56,33.59 z M 22.15,33.62 C 22.35,33.75 21.87,33.81 22.09,33.65 C 22.11,33.63 22.13,33.63 22.15,33.62 z M 23.46,33.62 C 23.36,33.82 23.65,34.12 23.83,33.94 C 24.01,33.83 23.84,33.49 23.73,33.77 C 23.62,33.78 23.62,33.47 23.46,33.62 z M 22.59,33.68 C 22.83,33.67 22.46,33.96 22.56,33.73 C 22.56,33.71 22.58,33.7 22.59,33.68 z M 24.21,33.71 C 24.43,33.79 24.01,33.94 24.14,33.76 C 24.16,33.74 24.18,33.72 24.21,33.71 z M 20.15,34.25 C 19.89,34.27 19.94,34.73 20.19,34.72 C 20.45,34.69 19.98,34.42 20.24,34.41 C 20.37,34.51 20.56,34.32 20.34,34.27 C 20.28,34.24 20.21,34.22 20.15,34.25 z M 20.78,34.43 C 20.53,34.32 20.28,34.75 20.54,34.88 C 20.77,34.99 21.03,34.62 20.83,34.46 L 20.8,34.45 L 20.78,34.43 z M 20.65,34.56 C 20.91,34.55 20.53,34.92 20.59,34.66 C 20.61,34.62 20.62,34.58 20.65,34.56 z M 21.03,34.56 C 20.79,34.69 20.96,35.13 21.23,35.05 C 21.46,35.1 21.47,34.53 21.27,34.76 C 21.18,34.88 21.03,34.77 21.15,34.67 C 21.17,34.6 21.1,34.5 21.03,34.56 z M 21.5,34.65 C 21.33,34.83 21.56,35.23 21.78,35.01 C 21.91,34.94 21.88,34.64 21.72,34.82 C 21.56,34.91 21.69,34.53 21.5,34.65 z M 23.65,34.71 C 23.39,34.75 23.23,35.13 23.44,35.31 C 23.67,35.23 23.55,34.92 23.64,34.74 L 23.65,34.71 z M 22,34.75 C 21.82,34.82 21.9,35.27 22.09,35.03 C 22.25,34.91 22.22,34.71 22,34.75 z M 22.4,34.81 C 22.25,34.87 22.63,35.02 22.37,34.99 C 22.07,35.12 22.49,35.45 22.65,35.23 C 22.86,35.05 22.66,34.67 22.4,34.81 z M 22.87,34.84 C 22.83,34.96 22.71,35.26 22.87,35.26 C 22.88,35.11 23.1,35.03 23.08,35.23 C 23.36,35.36 23.37,34.76 23.06,34.87 C 22.99,34.87 22.93,34.87 22.87,34.84 z M 22.5,35.06 C 22.55,35.19 22.32,35.04 22.5,35.06 z" id="text3944" style="fill:#cad2d2;fill-opacity:0.73;fill-rule:nonzero;stroke:none;marker:none;visibility:visible;display:inline;overflow:visible;enable-background:accumulate"/>
<path d="M 18.62,26.59 C 18.38,26.47 18.34,27.43 18.34,28.12 C 18.34,28.78 18.41,29.55 18.59,29.62 C 20.16,30.42 21.9,30.59 23.62,30.81 C 23.99,30.63 24.25,29.99 24.25,29.21 C 24.25,28.46 24.01,27.82 23.65,27.62 C 21.54,27.51 19.75,27.12 18.62,26.59 z" id="p3713" style="fill:#0b1c42;fill-opacity:0.81;fill-rule:evenodd;stroke:#b3bbc5;stroke-width:0.2;stroke-linecap:round;stroke-linejoin:round;marker:none;stroke-miterlimit:4;stroke-dasharray:none;stroke-dashoffset:0;stroke-opacity:1;visibility:visible;display:inline;overflow:visible;enable-background:accumulate"/>
<path d="M 17.34,20.71 C 17.35,21.33 17.35,23.42 17.37,24.96 L 17.4,24.96 C 17.85,26.2 21.02,27.15 24.87,27.15 C 26.25,27.15 27.54,27.05 28.65,26.84 L 28.65,22.31 C 27.54,22.49 26.25,22.59 24.87,22.59 C 21.02,22.59 17.85,21.77 17.4,20.71 L 17.34,20.71 z" id="p3391" style="fill:#b2241f;fill-opacity:1;fill-rule:evenodd;stroke:none;marker:none;visibility:visible;display:inline;overflow:visible;enable-background:accumulate"/>
<path d="M 17.68,22.34 L 17.71,24.59 L 17.90,24.81 L 17.90,23.15 C 18.26,23.27 18.11,23.59 18.15,23.68 L 18.31,23.93 C 18.32,23.95 18.38,22.95 18.18,22.78 C 18.04,22.65 17.90,22.62 17.90,22.62 L 17.90,22.53 L 17.68,22.34 z M 18.53,22.96 L 18.53,25.12 L 18.84,25.28 L 18.87,23.68 C 19.42,23.69 19.18,24.04 19.25,24.12 L 19.5,24.31 C 19.52,24.32 19.61,23.35 19.31,23.25 C 19.09,23.17 18.81,23.18 18.81,23.18 L 18.84,23.09 L 18.53,22.96 z M 22.46,23.03 L 22.34,26.06 L 22.81,26.18 L 22.87,23.96 L 23.15,24.03 L 23.18,23.5 L 22.87,23.43 L 22.90,23.09 L 22.46,23.03 z M 20.06,23.43 C 19.80,23.49 19.62,24.06 19.65,24.71 C 19.68,25.27 19.90,25.69 20.12,25.75 L 20.09,25.12 C 20.00,25.08 19.94,24.89 19.93,24.65 L 20.37,24.84 L 20.59,24.87 C 20.60,24.80 20.63,24.56 20.62,24.46 C 20.59,23.81 20.31,23.37 20.06,23.43 z M 21.68,23.65 C 21.62,23.65 21.56,23.65 21.5,23.68 C 21.08,23.87 20.82,24.57 20.90,25.21 C 20.98,25.85 21.40,26.19 21.81,26 C 21.83,25.99 21.82,25.94 21.84,25.93 L 21.71,25.37 C 21.71,25.37 21.69,25.39 21.68,25.40 C 21.49,25.49 21.31,25.33 21.28,25.03 C 21.24,24.74 21.37,24.43 21.56,24.34 C 21.67,24.29 21.76,24.27 21.84,24.37 L 22.12,23.84 C 21.99,23.69 21.86,23.63 21.68,23.65 z M 24.15,23.96 C 23.65,23.96 23.20,24.48 23.15,25.12 C 23.11,25.76 23.46,26.28 23.96,26.28 C 24.47,26.28 24.92,25.76 24.96,25.12 C 25.01,24.48 24.65,23.96 24.15,23.96 z M 20.09,24.06 C 20.19,24.04 20.31,24.22 20.34,24.46 C 20.29,24.59 19.99,24.40 19.93,24.37 C 19.96,24.21 20.01,24.08 20.09,24.06 z M 25.35,24.16 L 25.22,26.19 L 25.69,26.19 L 25.85,25.00 C 26.56,24.75 26.22,25.30 26.31,25.38 L 26.81,25.38 C 26.81,25.38 26.94,24.20 26.44,24.19 C 26.10,24.18 25.85,24.32 25.85,24.32 L 25.88,24.16 L 25.35,24.16 z M 24.09,24.59 C 24.32,24.59 24.51,24.82 24.5,25.12 C 24.47,25.42 24.26,25.65 24.03,25.65 C 23.80,25.65 23.63,25.42 23.65,25.12 C 23.67,24.82 23.85,24.59 24.09,24.59 z" id="p2465" style="fill:#e5eeee;fill-opacity:0.81;fill-rule:evenodd;stroke:none;marker:none;visibility:visible;display:inline;overflow:visible;enable-background:accumulate"/>
<path d="M 17.62,22.22 C 17.64,22.22 17.43,22.18 17.55,22.6 C 17.67,23.01 17.93,23.1 17.93,23.1 L 17.96,22.57 C 17.96,22.57 17.82,22.52 17.62,22.22 z M 18.15,22.72 L 18.12,23.16 L 18.49,23.28 L 18.49,22.88 L 18.15,22.72 z M 18.05,23.35 L 17.96,24.57 L 18.27,24.63 L 18.4,23.38 L 18.05,23.35 z M 18.58,23.44 L 18.24,25.41 L 18.65,25.5 L 18.71,25 C 18.71,25 18.62,25.04 19.18,25.07 C 19.74,25.09 19.75,23.84 19.4,23.75 C 19.04,23.66 18.58,23.44 18.58,23.44 z M 23.24,23.69 L 22.58,25.69 L 24.43,25.85 L 24.52,25.32 L 23.43,25.32 L 23.46,25.03 L 24.43,25.03 L 24.62,24.5 L 23.74,24.5 L 23.83,24.19 L 24.96,24.28 L 25.08,23.75 L 23.24,23.69 z M 19.9,23.97 L 19.46,25.85 L 20.05,25.97 L 20.15,25.38 C 20.15,25.38 20.24,25.41 20.77,25.5 C 21.3,25.59 21.71,24.28 21.18,24.19 C 20.65,24.1 19.9,23.97 19.9,23.97 z M 18.83,24.07 C 18.86,24.04 19.3,24.27 19.21,24.5 C 19.12,24.74 18.77,24.5 18.77,24.5 L 18.83,24.07 z M 27.37,24.35 L 26.58,24.38 L 26.24,24.75 L 26.02,24.44 L 25.21,24.44 L 25.62,25.13 L 24.74,25.78 L 25.55,25.82 L 25.96,25.5 L 26.15,25.85 L 27.08,25.78 L 26.55,25.07 L 27.37,24.35 z M 20.37,24.41 C 20.42,24.44 20.89,24.49 20.83,24.82 C 20.77,25.14 20.27,24.94 20.27,24.94 L 20.37,24.41 z M 21.62,24.72 L 21.52,25.13 L 22.46,25.22 L 22.55,24.78 L 21.62,24.72 z" id="p3568" style="opacity:0;fill:#e5eeee;fill-opacity:0.81;fill-rule:evenodd;stroke:none;display:inline"/>
<path d="M 18.71,28.74 C 18.71,28.31 18.71,27.89 18.7,27.46 C 19.03,27.58 19.43,27.52 19.69,27.84 C 19.96,28.36 19.25,28.24 19.69,28.63 C 19.88,28.95 19.85,29.08 19.52,28.93 C 19.3,28.88 19.29,28.25 19.07,28.34 C 19.04,28.55 19.18,28.96 18.85,28.77 C 18.81,28.76 18.76,28.75 18.71,28.74 z M 19.06,28.06 C 19.57,28.3 19.26,27.61 19.06,27.88 C 19.06,27.94 19.06,28 19.06,28.06 z M 20.23,28.47 C 19.47,28.3 20.63,27.88 20.8,28.49 C 20.76,28.72 20.99,29.34 20.68,29.2 C 20.49,29 19.89,29.28 19.91,28.68 C 19.99,28.5 20.86,28.59 20.28,28.4 L 20.23,28.47 z M 20.51,28.72 C 19.85,28.67 20.51,29.26 20.51,28.72 z M 21.04,29.64 C 21.03,29.21 21.03,28.79 21.03,28.36 C 21.4,28.45 21.3,28.56 21.68,28.5 C 22.3,28.93 21.74,29.76 21.36,29.35 C 21.42,29.68 21.32,29.78 21.04,29.64 L 21.04,29.64 z M 21.35,28.9 C 21.73,29.84 21.67,28.13 21.35,28.9 z M 22.12,28.27 C 22.34,28.18 22.61,28.58 22.33,28.56 C 22.12,28.54 22.09,28.49 22.12,28.27 z M 22.12,28.62 C 22.42,28.61 22.49,28.8 22.44,29.09 C 22.4,29.28 22.57,29.75 22.26,29.58 C 21.99,29.56 22.17,29.15 22.12,28.95 C 22.12,28.84 22.12,28.73 22.12,28.62 z M 23.52,28.6 C 23.53,29.03 23.53,29.45 23.53,29.88 C 23.16,29.79 23.26,29.68 22.88,29.74 C 22.26,29.31 22.82,28.48 23.2,28.89 C 23.14,28.56 23.24,28.46 23.52,28.6 L 23.52,28.6 z M 23.21,29.34 C 22.83,28.4 22.89,30.11 23.21,29.34 L 23.21,29.34 z" id="text3734" style="fill:#fcfcfc;fill-opacity:0.81;stroke:none;display:inline"/>
<path d="M 20.11,30.85 C 20.2,30.89 20.53,30.95 20.43,31.06 C 20.33,30.97 20.2,31.15 20.36,31.16 C 20.35,31.27 20.01,31.23 20.23,31.33 C 20.36,31.61 19.79,31.44 19.96,31.18 C 19.99,31.06 20.05,30.96 20.11,30.85 z M 20.49,31.14 C 20.68,31.2 20.94,31.29 20.75,31.54 C 20.67,31.64 20.45,31.5 20.43,31.45 C 20.48,31.36 20.62,31.23 20.49,31.14 z M 21.19,31.17 C 21.18,31.33 21.11,31.79 20.91,31.58 C 20.86,31.39 21.01,31.15 21.19,31.17 z M 21.28,31.34 C 21.51,31.31 21.48,31.61 21.3,31.67 C 21.03,31.71 21.27,31.47 21.28,31.34 z M 21.69,31.55 C 21.68,31.23 22.17,31.56 21.94,31.76 C 21.83,32.02 21.35,31.71 21.65,31.59 C 21.71,31.59 21.81,31.52 21.69,31.55 z M 21.79,31.65 C 21.62,31.56 21.76,31.87 21.79,31.65 z M 22.53,31.79 C 22.52,32.18 21.97,31.69 22.32,31.56 C 22.4,31.43 22.77,31.64 22.51,31.65 C 22.39,31.69 22.34,31.89 22.53,31.79 z M 22.72,31.77 C 22.74,31.42 23.33,31.64 23.11,31.91 C 22.99,32.05 22.68,32 22.72,31.77 z M 22.87,31.78 C 22.94,32.01 23.01,31.52 22.88,31.76 L 22.87,31.77 L 22.87,31.78 z M 23.19,31.61 C 23.32,31.53 23.42,31.9 23.51,31.67 C 23.76,31.87 23.19,32.19 23.22,31.79 C 23.21,31.73 23.2,31.67 23.19,31.61 z M 24.05,31.88 C 24,31.79 23.77,31.93 23.94,31.95 C 23.79,32.3 23.39,31.71 23.75,31.65 C 23.89,31.59 24.13,31.68 24.05,31.88 z M 23.91,31.81 C 23.88,31.6 23.75,31.94 23.91,31.81 z M 24.15,31.65 C 24.41,31.54 24.39,32 24.17,31.99 C 24,31.9 24.17,31.78 24.15,31.65 z M 24.61,31.78 C 24.6,31.44 25.12,31.79 24.86,32 C 24.73,32.23 24.29,31.92 24.63,31.8 C 24.71,31.74 24.63,31.77 24.61,31.78 z M 24.73,31.86 C 24.55,31.8 24.73,32.09 24.73,31.86 z M 25.26,31.65 C 25.54,31.74 25.36,32.27 25.11,32.22 C 24.97,32.19 25.03,32 25.15,32.05 C 24.93,32 24.89,31.71 25.12,31.63 C 25.17,31.61 25.22,31.62 25.26,31.65 z M 25.1,31.84 C 25.22,32.01 25.15,31.6 25.1,31.84 z M 25.9,31.85 C 25.83,31.77 25.62,31.93 25.78,31.93 C 25.67,32.29 25.23,31.72 25.58,31.64 C 25.71,31.57 25.95,31.65 25.9,31.85 z M 25.75,31.79 C 25.7,31.59 25.59,31.93 25.75,31.79 z" id="text3922" style="fill:#cad2d2;fill-opacity:0.73;stroke:none"/>
<path d="M 18.21,19.43 L 18.28,42.5 C 19.35,43.4 21.65,44.14 24.4,44.25 C 24.43,39.57 24.53,21.91 24.53,21.5 C 24.53,21.02 24.65,20.37 24.18,20.37 C 23.71,20.37 19.96,20.31 18.21,19.43 z" id="p3401" style="fill:#1e2020;fill-opacity:0.12;fill-rule:evenodd;stroke:none;display:inline"/>
<path d="M 18.73,19.73 L 18.87,42.9 C 19.71,43.39 20.91,43.82 22.34,44.06 C 22.38,39.65 22.51,21.11 22.21,20.53 C 21.89,19.87 19.8,20.05 18.73,19.73 z" id="p3379" style="fill:#1e2020;fill-opacity:0.11;fill-rule:evenodd;stroke:none;display:inline"/>
<path d="M 20.57,16.47 C 22.59,17.37 27.2,17.51 29.29,16.47" id="p3268" style="fill:none;fill-opacity:0.81;fill-rule:evenodd;stroke:#4a4a4a;stroke-width:0.40;stroke-linecap:round;stroke-linejoin:round;marker:none;stroke-miterlimit:4;stroke-dasharray:none;stroke-dashoffset:0;stroke-opacity:1;visibility:visible;display:inline;overflow:visible;enable-background:accumulate"/>
<path d="M 20.85,3.28 L 21.41,3.63 L 24.48,3.98 L 27.55,3.84 L 29.08,3.56" id="p3265" style="fill:none;fill-rule:evenodd;stroke:#f2f2f2;stroke-width:0.30;stroke-linecap:butt;stroke-linejoin:miter;stroke-miterlimit:4;stroke-dasharray:none;stroke-opacity:1;display:inline"/>
<path d="M 25.43,2.78 C 24.09,2.78 20.59,2.89 20.59,3.4 C 20.59,3.92 20.39,14.28 20.39,14.59 C 20.38,14.89 20.11,14.68 20.12,14.99 C 20.13,15.31 20.15,15.61 20.15,15.87 C 20.15,16.39 20.71,16.46 20.71,16.46 C 20.71,16.46 17.28,16.74 17.31,18.53 C 17.34,20.32 17.59,37.2 17.62,41.43 C 17.64,42.82 20.93,44.28 25.03,44.28 C 29.93,44.28 32.4,42.63 32.41,41.1 C 32.42,39.61 32.55,19.58 32.56,18.43 C 32.56,17.26 30.17,16.62 29.29,16.51 C 29.29,16.51 29.84,16.4 29.85,16.1 C 29.86,15.89 29.84,15.6 29.84,15.09 C 29.84,14.59 29.46,14.81 29.46,14.39 C 29.47,13.96 29.34,4.33 29.34,3.71 C 29.34,3.1 26.77,2.78 25.43,2.78 z" id="stroke01" style="fill:none;fill-opacity:0.81;fill-rule:evenodd;stroke:#202020;stroke-width:0.5;stroke-linecap:round;stroke-linejoin:round;marker:none;stroke-miterlimit:4;stroke-dashoffset:0;stroke-opacity:1;visibility:visible;display:inline;overflow:visible;enable-background:accumulate"/>
</g>
</svg>
