<?xml version="1.0" encoding="UTF-8" standalone="no"?>
<!DOCTYPE svg PUBLIC "-//W3C//DTD SVG 1.0//EN" "http://www.w3.org/TR/2001/REC-SVG-20010904/DTD/svg10.dtd">
<svg xmlns:svg="http://www.w3.org/2000/svg" xmlns="http://www.w3.org/2000/svg" version="1.0" width="100%" height="100%" viewBox="0 0 48 48" id="_corrector02">
<defs id="defs2385"/>
<g id="corrector02" style="display:inline">
<path d="M 5.76,31.38 C 6.4,32.05 8.07,31.87 8.75,31.23 C 9.43,30.59 11.17,28.78 11.31,28.56 C 11.45,28.35 11.6,28.67 11.92,28.28 C 12.24,27.89 14.16,25.47 14.44,25.04 C 14.73,24.61 14.44,24.26 13.87,23.65 C 13.3,23.05 11.95,22.05 11.95,22.05 C 11.95,22.05 12.6,21.24 13.52,20.2 C 14.91,18.64 12.49,17.5 11.67,18.42 C 10.85,19.35 4.87,26 4.09,27.03 C 3.3,28.07 3.91,29.56 4.3,29.95 C 4.69,30.34 5.76,31.38 5.76,31.38 z" id="p2482" style="fill:#acbabd;fill-opacity:1;fill-rule:evenodd;stroke:none"/>
<path d="M 7.57,30.83 C 8.76,29.88 13.93,23.95 13.93,23.95" id="p3279" style="fill:none;fill-rule:evenodd;stroke:#536266;stroke-width:0.60;stroke-linecap:butt;stroke-linejoin:miter;stroke-miterlimit:4;stroke-dasharray:none;stroke-opacity:0.46;display:inline"/>
<path d="M 6.32,29.82 L 12.63,22.82" id="p3277" style="fill:none;fill-rule:evenodd;stroke:#536266;stroke-width:1px;stroke-linecap:butt;stroke-linejoin:miter;stroke-opacity:0.46;display:inline"/>
<path d="M 9.4,21 C 8.31,22.22 7.41,23.18 6.28,24.46 C 7.81,25.49 9.84,27.02 11.4,28.5 C 11.41,28.49 11.42,28.5 11.43,28.5 C 11.55,28.48 11.66,28.57 11.9,28.28 C 12.22,27.88 14.15,25.45 14.43,25.03 C 14.72,24.6 14.44,24.26 13.87,23.65 C 13.3,23.05 11.96,22.06 11.96,22.06 C 11.96,22.06 12.02,21.97 12.03,21.96 C 11.09,21.57 10.17,21.24 9.4,21 z" id="p3274" style="fill:#b5bebe;fill-opacity:0.56;fill-rule:evenodd;stroke:none;display:inline"/>
<path d="M 6.35,30.01 L 9.37,26.57" id="p3310" style="fill:none;fill-rule:evenodd;stroke:#2b3235;stroke-width:0.60;stroke-linecap:butt;stroke-linejoin:miter;stroke-miterlimit:4;stroke-dasharray:none;stroke-opacity:0.15"/>
<path d="M 6.4,24.43 C 6.89,24.34 11.08,28 11.29,28.57" id="p3286" style="fill:none;fill-rule:evenodd;stroke:#ced2d3;stroke-width:0.30;stroke-linecap:butt;stroke-linejoin:miter;stroke-miterlimit:4;stroke-dasharray:none;stroke-opacity:0.5"/>
<path d="M 8.47,21.9 C 8.97,21.82 13.16,25.47 13.36,26.05" id="p3293" style="fill:none;fill-rule:evenodd;stroke:#ced2d3;stroke-width:0.30;stroke-linecap:butt;stroke-linejoin:miter;stroke-miterlimit:4;stroke-dasharray:none;stroke-opacity:0.5;display:inline"/>
<path d="M 7.78,22.72 C 8.27,22.64 12.46,26.29 12.66,26.87" id="p3291" style="fill:none;fill-rule:evenodd;stroke:#ced2d3;stroke-width:0.30;stroke-linecap:butt;stroke-linejoin:miter;stroke-miterlimit:4;stroke-dasharray:none;stroke-opacity:0.5;display:inline"/>
<path d="M 9.42,21.24 C 9.91,21.16 14.1,24.82 14.31,25.39" id="p3295" style="fill:none;fill-rule:evenodd;stroke:#ced2d3;stroke-width:0.30;stroke-linecap:butt;stroke-linejoin:miter;stroke-miterlimit:4;stroke-dasharray:none;stroke-opacity:0.5;display:inline"/>
<path d="M 3.71,28.15 C 3.69,28.93 4.05,29.7 4.31,29.96 C 4.7,30.36 5.75,31.37 5.75,31.37 C 6.14,31.79 6.95,31.89 7.65,31.75 C 7.48,31.03 6.86,30.29 6.18,29.68 C 5.52,29.09 4.59,28.32 3.71,28.15 z" id="p3257" style="fill:#f9f9f9;fill-opacity:0.9;fill-rule:evenodd;stroke:none"/>
<path d="M 5.62,25.25 L 9.64,20.69 C 9.64,20.69 11,20.85 10.14,21.88 C 9.28,22.91 6.15,26.52 5.7,27.14 C 5.25,27.75 6.98,24.01 5.62,25.25 z" id="p3297" style="fill:#c0c8c8;fill-opacity:0.76;fill-rule:evenodd;stroke:none"/>
<path d="M 7.12,23.63 C 7.61,23.54 11.8,27.2 12.01,27.77" id="p3289" style="fill:none;fill-rule:evenodd;stroke:#ced2d3;stroke-width:0.30;stroke-linecap:butt;stroke-linejoin:miter;stroke-miterlimit:4;stroke-dasharray:none;stroke-opacity:0.5;display:inline"/>
<path d="M 12.5,18.09 C 12.17,18.09 11.89,18.2 11.68,18.43 C 11.44,18.71 10.3,19.99 9.4,21 C 9.72,21.37 9.39,21.98 9.18,22.25 C 8.83,22.7 6.33,25.44 5.21,26.81 C 4.29,27.94 4.31,28.48 4.43,30.09 C 4.73,30.39 5.01,30.64 5.31,30.93 C 5.87,30.42 5.09,29.23 5.21,29 C 5.37,28.69 12.37,20.96 12.37,20.96 L 13.93,19.31 C 13.97,18.58 13.2,18.09 12.5,18.09 z" id="p3266" style="fill:#9ca7a9;fill-opacity:0.76;fill-rule:evenodd;stroke:none"/>
<path d="M 11.39,23.44 L 12.17,24.1" id="p3300" style="fill:none;fill-rule:evenodd;stroke:#4c5353;stroke-width:0.60;stroke-linecap:round;stroke-linejoin:miter;stroke-miterlimit:4;stroke-dasharray:none;stroke-opacity:0.5"/>
<path d="M 10.7,24.28 L 11.48,24.94" id="p3303" style="fill:none;fill-rule:evenodd;stroke:#4c5353;stroke-width:0.60;stroke-linecap:round;stroke-linejoin:miter;stroke-miterlimit:4;stroke-dasharray:none;stroke-opacity:0.22;display:inline"/>
<path d="M 10.13,24.4 L 11,25" id="p3305" style="fill:none;fill-rule:evenodd;stroke:#ebebeb;stroke-width:0.30;stroke-linecap:round;stroke-linejoin:miter;stroke-miterlimit:4;stroke-dasharray:none;stroke-opacity:0.75"/>
<path d="M 11.39,25.56 L 11.78,25.86" id="p3308" style="fill:none;fill-rule:evenodd;stroke:#ebebeb;stroke-width:0.30;stroke-linecap:round;stroke-linejoin:miter;stroke-miterlimit:4;stroke-dasharray:none;stroke-opacity:0.75"/>
<path d="M 8.76,42.71 C 9.26,42.99 10.22,41.6 10.22,41.6 C 10.22,41.6 10.54,41.89 10.9,41.89 C 11.25,41.89 11.74,41.18 11.74,41.18 C 11.74,41.18 11.92,41.32 12.24,40.93 C 12.56,40.54 13.09,39.97 13.27,39.9 C 13.45,39.83 15.33,39.44 15.33,39.44 L 15.72,38.94 C 15.72,38.94 15.9,39.26 16.36,39.05 C 16.82,38.84 19.7,35.86 19.7,35.86 C 19.7,35.86 23.77,33.67 25.16,31.95 C 26.99,29.7 28.14,27.71 30.73,24.86 C 32.17,23.28 43.47,11.97 43.76,11.58 C 44.04,11.18 44.08,10.87 44.08,10.87 C 44.08,10.87 44.38,10.38 44.54,10.16 C 44.92,9.63 41.81,6.74 41.24,7.32 C 40.93,7.62 40.64,7.92 40.64,7.92 C 40.64,7.92 40.04,7.74 39.72,8.06 C 39.4,8.38 27.08,20.7 26.44,21.41 C 25.8,22.12 20.68,25.38 19.09,27.12 C 17.97,28.35 15.54,31.99 15.54,31.99 C 15.54,31.99 12.56,35.32 12.38,35.54 C 12.21,35.75 12.31,35.96 12.31,35.96 L 11.92,36.39 C 11.92,36.39 11.49,38.13 11.42,38.2 C 11.35,38.27 10.25,39.55 10.14,39.73 C 10.04,39.9 10.04,40.08 10.04,40.08 C 10.04,40.08 9.54,40.4 9.54,40.65 C 9.54,40.9 9.69,41.11 9.69,41.11 C 9.69,41.11 8.37,42.42 8.76,42.71 z" id="p3313" style="fill:#e7e8ea;fill-opacity:1;fill-rule:evenodd;stroke:none"/>
<path d="M 12.92,37.34 L 13.47,36.52 L 16.93,32.97 C 16.93,32.97 18.93,30.15 19.75,29.33 C 20.57,28.51 24.21,25.78 24.21,25.78" id="p3348" style="fill:none;fill-rule:evenodd;stroke:#ffffff;stroke-width:1.5;stroke-linecap:round;stroke-linejoin:miter;stroke-miterlimit:4;stroke-dasharray:none;stroke-opacity:0.65;display:inline"/>
<path d="M 41.37,7.25 C 41.32,7.26 41.28,7.27 41.25,7.31 C 40.94,7.61 40.65,7.93 40.65,7.93 C 40.65,7.93 40.03,7.74 39.71,8.06 C 39.39,8.38 27.07,20.69 26.43,21.4 C 25.79,22.11 20.68,25.38 19.09,27.12 C 17.97,28.35 15.56,32 15.56,32 C 15.56,31.99 12.55,35.31 12.37,35.53 C 12.19,35.74 12.31,35.96 12.31,35.96 L 11.93,36.4 C 11.93,36.4 11.5,38.14 11.43,38.21 C 11.36,38.28 10.26,39.54 10.15,39.71 C 10.05,39.89 10.03,40.09 10.03,40.09 C 10.03,40.09 9.56,40.4 9.56,40.65 C 9.56,40.78 9.58,40.88 9.62,40.96 C 10.7,39.98 12.21,38.55 12.31,38.06 C 12.45,37.36 12.45,36.39 13.43,35.28 C 14.41,34.16 15.51,33.58 16.21,32.46 C 16.91,31.35 19,28.41 20.12,27.43 C 21.24,26.45 26.27,22.81 28.37,20.71 C 30.47,18.62 39.84,8.7 40.4,8.56 C 40.84,8.45 41.05,8.75 42.25,7.56 C 41.89,7.34 41.57,7.21 41.37,7.25 z" id="p3320" style="fill:#a9b0b3;fill-opacity:0.2;fill-rule:evenodd;stroke:none;display:inline"/>
<path d="M 43.78,8.84 C 40.04,12.57 30.71,21.9 29.09,23.4 C 27.13,25.22 26.14,28.29 24.46,30.25 C 22.79,32.2 20.12,33.03 19.28,33.87 C 18.44,34.71 16.77,36.53 15.09,37.93 C 13.41,39.33 13.57,38.92 13.15,39.06 C 12.81,39.17 11.52,40.14 10.37,41.71 C 10.5,41.8 10.68,41.9 10.9,41.9 C 11.26,41.9 11.75,41.18 11.75,41.18 C 11.75,41.18 11.93,41.32 12.25,40.93 C 12.56,40.54 13.1,39.97 13.28,39.9 C 13.45,39.83 15.34,39.43 15.34,39.43 L 15.71,38.93 C 15.71,38.93 15.91,39.27 16.37,39.06 C 16.83,38.84 19.68,35.87 19.68,35.87 C 19.68,35.87 23.75,33.68 25.15,31.96 C 26.98,29.71 28.15,27.72 30.75,24.87 C 32.18,23.29 43.46,11.98 43.75,11.59 C 44.03,11.2 44.09,10.87 44.09,10.87 C 44.09,10.87 44.37,10.37 44.53,10.15 C 44.67,9.95 44.31,9.4 43.78,8.84 z" id="p3318" style="fill:#a9b0b3;fill-opacity:0.31;fill-rule:evenodd;stroke:none;display:inline"/>
<path d="M 28.25,27.84 C 27.01,27.94 24.18,30.35 23.21,31.25 C 21.79,32.56 18.6,33.54 18.5,34.53 C 18.39,35.51 14.78,38.25 14.78,38.25 L 15.56,39.12 L 15.71,38.93 C 15.71,38.93 15.91,39.27 16.37,39.06 C 16.83,38.84 19.68,35.87 19.68,35.87 C 19.68,35.87 23.75,33.68 25.15,31.96 C 26.26,30.59 27.16,29.27 28.25,27.84 z" id="p3330" style="fill:#3f5858;fill-opacity:0.17;fill-rule:evenodd;stroke:none;display:inline"/>
<path d="M 9.59,41.25 C 9.4,41.43 8.42,42.45 8.78,42.71 C 9.22,42.97 9.99,41.91 10.15,41.68 L 9.59,41.25 z" id="p3333" style="fill:#080808;fill-opacity:0.72;fill-rule:evenodd;stroke:none;display:inline"/>
<path d="M 27.03,21.73 C 27.03,21.73 27.75,22.15 28.17,22.57 C 28.59,22.99 29.73,24.19 29.73,24.19 C 29.73,24.19 42.29,11.63 42.59,11.27 C 42.86,10.93 42.11,9.89 41.57,9.41 C 41.03,8.93 40.25,8.46 39.9,8.81 C 39.57,9.14 27.03,21.73 27.03,21.73 z" id="p3361" style="fill:#1a3967;fill-opacity:1;fill-rule:evenodd;stroke:#0a0e32;stroke-width:0.2;stroke-linecap:butt;stroke-linejoin:round;stroke-miterlimit:4;stroke-dasharray:none;stroke-opacity:1;display:inline"/>
<path d="M 27.8,21.51 C 27.72,21.62 28.33,21.92 28.62,22.24 C 28.98,22.64 29.33,22.98 29.55,23.29 C 29.83,23.04 35.97,16.8 36.09,16.67 C 36.21,16.53 35.41,15.6 35.13,15.37 C 34.86,15.15 34.34,14.88 34.2,15.01 C 34.06,15.15 27.89,21.37 27.8,21.51 z" id="p3364" style="fill:#ff4900;fill-opacity:1;fill-rule:evenodd;stroke:none;display:inline"/>
<path d="M 34.4,15.9 C 34.06,15.93 34.22,16.4 33.86,16.41 C 33.73,16.46 33.64,16.64 33.62,16.43 C 33.27,16.3 32.96,16.63 32.73,16.85 C 32.39,17.12 32.69,17.5 32.65,17.84 C 32.64,18.04 32.78,18.27 32.52,18.24 C 32.36,18.38 32.28,18.5 32.06,18.44 C 31.62,18.49 31.3,18.9 31.31,19.34 C 30.87,19.32 30.45,19.66 30.42,20.1 C 30.43,20.35 30.23,20.17 30.4,20.03 C 30.61,19.77 30.29,19.36 30.04,19.66 C 29.78,19.82 29.88,20.17 30,20.31 C 29.93,20.37 29.85,20.03 29.66,20.18 C 29.31,20.34 29.05,20.64 28.81,20.93 C 28.8,21.1 28.83,21.33 29.04,21.32 C 29.23,21.56 29.27,21.88 29.35,22.16 C 29.39,22.6 30.02,22.25 29.92,21.92 C 29.91,21.54 29.84,21.16 29.87,20.78 C 29.92,20.65 29.94,20.47 29.95,20.7 C 29.98,20.99 29.97,21.29 30.09,21.56 C 30.22,21.76 30.55,21.69 30.56,21.43 C 30.54,21.64 30.63,22.03 30.88,21.81 C 31.1,21.63 31.05,21.28 31.22,21.05 C 31.31,20.89 31.43,20.52 31.44,20.47 C 31.46,20.66 31.51,21.09 31.78,20.88 C 32.01,20.72 31.95,20.35 32.12,20.13 C 32.28,19.78 32.48,19.42 32.46,19.03 C 32.73,19.09 32.73,18.53 32.88,18.85 C 33.18,18.98 33.46,18.71 33.65,18.5 C 33.87,18.33 33.72,17.94 34.04,17.97 C 34.28,17.85 34.06,17.45 34.43,17.48 C 34.76,17.49 34.87,17.01 34.63,16.84 C 34.56,16.56 34.7,16.27 34.6,16 C 34.57,15.91 34.48,15.89 34.4,15.9 z M 33.56,16.87 C 33.92,16.87 33.76,17.37 33.75,17.62 C 33.76,17.85 33.74,17.76 33.59,17.68 C 33.7,17.5 33.9,16.98 33.49,17.07 C 33.34,17.16 33.57,16.91 33.56,16.87 z" id="p3379" style="fill:#f3f3f3;fill-opacity:0.81;stroke:#b31414;stroke-width:0.25;stroke-linecap:butt;stroke-linejoin:miter;stroke-miterlimit:4;stroke-opacity:1"/>
<path d="M 29.43,20.05 C 29.19,20.25 29.08,20.92 29.2,21.51 C 29.29,22.04 29.52,22.54 29.77,22.5 C 30.02,22.55 30.28,22.12 30.25,21.51 C 30.51,22.03 30.96,21.71 30.97,20.97 C 31,21.2 31.11,21.32 31.19,21.2 C 31.25,21.14 31.32,21.07 31.38,21.01 C 31.45,20.86 31.38,20.62 31.33,20.43 C 31.28,20.22 31.18,19.91 31.31,19.88 C 31.35,19.75 31.38,20.1 31.42,20.2 C 31.46,20.35 31.49,20.5 31.53,20.64 C 31.61,20.82 31.7,20.7 31.78,20.62 C 31.86,20.55 31.96,20.45 31.91,20.19 C 31.86,19.94 31.77,19.69 31.76,19.44 C 31.89,19.47 31.97,20.12 32.17,20.11 C 32.42,20.16 32.7,19.8 32.7,19.17 C 32.85,19.47 33.05,19.4 33.19,19.27 C 33.33,19.09 33.44,18.74 33.39,18.32 C 33.49,18.73 33.71,18.84 33.85,18.61 C 33.95,18.54 34.02,18.32 33.95,18.08 C 34.21,18.46 34.56,18.04 34.56,17.38 C 34.59,17.61 34.69,17.78 34.78,17.66 C 34.84,17.6 34.9,17.54 34.96,17.47 C 35.03,17.32 34.96,17.08 34.91,16.89 C 34.88,16.71 34.75,16.33 34.9,16.38 C 34.96,16.25 34.91,16.03 34.9,15.84 C 34.92,15.49 34.71,15.47 34.62,15.6 C 34.57,15.8 34.47,15.74 34.4,15.86 C 34.3,15.9 34.24,16.1 34.31,16.32 C 34.27,16.31 34.04,16.1 33.94,16.27 C 33.8,16.33 33.69,16.67 33.65,16.82 C 33.57,16.64 33.46,16.87 33.44,16.55 C 33.41,16.3 33.26,16.2 33.22,16.44 C 33.17,16.63 33.1,16.78 33.07,16.99 C 33.11,17.25 33.06,17.5 32.93,17.35 C 32.73,17.39 32.52,17.6 32.48,18.06 C 32.48,18.44 32.25,17.87 32.13,18.08 C 31.96,18.06 31.86,18.56 31.76,18.59 C 31.61,18.43 31.53,18.77 31.42,18.8 C 31.35,18.89 31.25,18.92 31.2,19.05 C 31.13,19.1 31.01,19.11 30.95,19.3 C 30.89,19.27 30.83,19.4 30.77,19.44 C 30.63,19.42 30.73,19.95 30.68,19.84 C 30.45,19.61 30.19,19.86 30.09,20.3 C 30.05,20.62 29.89,19.9 29.75,19.96 C 29.64,19.9 29.53,19.96 29.43,20.05 z M 29.65,20.9 C 29.72,20.96 29.88,21.06 29.8,21.24 C 29.89,21.58 29.69,21.7 29.65,21.3 C 29.62,21.17 29.57,20.97 29.65,20.9 z M 30.04,20.65 C 30.1,20.8 30.1,21.1 29.97,21.04 C 29.86,21.12 29.85,20.96 29.94,20.86 C 29.97,20.79 30.01,20.72 30.04,20.65 z M 32.91,18.22 C 32.98,18.15 33.04,18.54 32.94,18.51 C 32.94,18.42 32.86,18.28 32.91,18.22 z M 30.48,20.66 C 30.57,20.56 30.58,21.16 30.5,20.77 L 30.48,20.68 L 30.48,20.66 z M 34.06,17.12 C 34.15,17.02 34.16,17.63 34.09,17.23 L 34.07,17.15 L 34.06,17.12 z M 33.28,17.94 C 33.35,18.13 33.22,18.07 33.28,17.94 z M 33.67,17.55 C 33.78,17.65 33.73,17.87 33.67,17.55 z M 32.57,18.86 C 32.63,19.35 32.73,18.8 32.63,18.76 C 32.61,18.79 32.59,18.83 32.57,18.86 z" id="p2470" style="fill:#f3f3f3;fill-opacity:0.81;fill-rule:nonzero;stroke:#b31414;stroke-width:0.25;stroke-linecap:butt;stroke-linejoin:miter;marker:none;stroke-miterlimit:4;stroke-dasharray:none;stroke-dashoffset:0;stroke-opacity:1;visibility:visible;display:inline;overflow:visible;enable-background:accumulate"/>
<path d="M 40.34,9.59 C 40.18,9.59 40.02,9.65 39.90,9.78 L 35.43,14.40 C 35.19,14.65 35.21,15.07 35.46,15.31 C 35.72,15.55 36.13,15.53 36.37,15.28 L 40.81,10.65 C 41.05,10.40 41.03,10.02 40.78,9.78 L 40.78,9.75 C 40.65,9.62 40.50,9.59 40.34,9.59 z" id="r3383" style="fill:none;fill-opacity:0.81;fill-rule:evenodd;stroke:#428fdb;stroke-width:0.27;stroke-linecap:round;stroke-linejoin:round;marker:none;stroke-miterlimit:4;stroke-dashoffset:0;stroke-opacity:0.81;visibility:visible;display:inline;overflow:visible;enable-background:accumulate"/>
<path d="M 37.42,13.64 C 37.34,13.78 36.99,13.97 37.12,14.07 C 37.25,14.07 37.42,13.58 37.48,13.81 C 37.43,14.05 37.21,14.29 36.96,14.3 C 36.72,14.28 36.64,13.95 36.8,13.79 C 36.93,13.59 37.23,13.41 37.42,13.64 z M 37.15,13.78 C 37,13.57 36.82,14.11 37.05,13.88 C 37.08,13.85 37.12,13.81 37.15,13.78 z M 37.26,13.31 C 37.33,13.13 37.55,13.2 37.51,13.03 C 37.63,12.82 37.82,13.04 37.64,13.16 C 37.59,13.39 38.06,13.48 37.73,13.66 C 37.56,13.72 37.41,13.38 37.26,13.31 z M 38.02,12.78 C 37.94,12.92 37.7,13.01 37.81,12.77 C 37.9,12.55 38.21,12.21 38.44,12.46 C 38.6,12.57 38.76,12.72 38.49,12.82 C 38.37,12.95 38.17,13.36 37.96,13.09 C 37.87,12.92 38.3,12.67 38.09,12.61 C 38.04,12.64 37.99,12.72 38.02,12.78 z M 38.27,12.68 C 38.1,12.78 38.22,13.09 38.33,12.83 C 38.34,12.77 38.32,12.71 38.27,12.68 z M 38.62,12.47 C 38.64,12.29 39.07,12.26 38.93,12.09 C 38.83,12.3 38.29,12.42 38.46,12.05 C 38.51,11.9 38.85,11.59 38.9,11.82 C 38.84,11.9 38.55,12.02 38.67,12.07 C 38.8,11.88 39.29,11.73 39.15,12.12 C 39.05,12.3 38.85,12.55 38.62,12.47 z M 39.75,11.17 C 39.67,11.3 39.33,11.5 39.45,11.6 C 39.58,11.6 39.75,11.11 39.81,11.34 C 39.76,11.57 39.54,11.82 39.29,11.82 C 39.05,11.81 38.97,11.47 39.13,11.31 C 39.26,11.11 39.56,10.93 39.75,11.17 z M 39.48,11.3 C 39.33,11.1 39.16,11.64 39.38,11.41 C 39.41,11.37 39.45,11.34 39.48,11.3 z M 39.59,10.84 C 39.66,10.66 39.88,10.73 39.84,10.56 C 39.96,10.34 40.15,10.56 39.97,10.68 C 39.92,10.91 40.39,11 40.06,11.18 C 39.89,11.25 39.74,10.91 39.59,10.84 z" id="text3385" style="fill:#f4f4f4;fill-opacity:0.87;stroke:none;display:inline"/>
<path d="M 31.15,23.27 C 31.24,22.78 32.21,22.75 31.68,23.31 C 31.9,23.97 31.3,23.51 31.15,23.27 z M 31.53,23.25 C 31.94,22.99 31.24,23.04 31.53,23.25 z M 32.02,22.94 C 31.64,22.35 33.05,22.25 32.46,22.83 C 32.35,22.93 32.15,23.07 32.02,22.94 z M 32.2,22.76 C 32.69,22.88 32.07,22.3 32.2,22.76 z M 33.28,21.96 C 33.22,22.35 32.3,22.45 32.64,22.06 C 33.14,22.34 32.64,21.52 33.06,21.74 C 33.14,21.81 33.2,21.9 33.28,21.96 z M 33.27,21.34 C 33.65,21.28 33.48,22.09 33.17,21.65 C 32.75,21.66 33.38,20.81 33.27,21.34 z M 33.5,21.33 C 33.58,21.08 33.98,20.99 33.7,21.33 C 33.65,21.38 33.56,21.37 33.5,21.33 z M 33.61,20.75 C 33.7,20.26 34.66,20.24 34.13,20.8 C 34.36,21.45 33.76,20.99 33.61,20.75 z M 33.99,20.73 C 34.4,20.47 33.7,20.53 33.99,20.73 z M 34.48,20.42 C 34.1,19.83 35.51,19.74 34.91,20.31 C 34.81,20.41 34.61,20.55 34.48,20.42 z M 34.65,20.24 C 35.15,20.36 34.53,19.78 34.65,20.24 z M 35.74,19.45 C 35.68,19.83 34.76,19.93 35.1,19.55 C 35.6,19.82 35.09,19 35.52,19.22 C 35.6,19.29 35.65,19.39 35.74,19.45 z M 35.73,18.82 C 36.11,18.76 35.94,19.57 35.63,19.14 C 35.21,19.15 35.84,18.29 35.73,18.82 z M 36.12,18.18 C 36.21,17.7 37.18,17.67 36.65,18.23 C 36.87,18.88 36.27,18.42 36.12,18.18 z M 36.5,18.16 C 36.92,17.9 36.21,17.96 36.5,18.16 z M 36.87,17.65 C 37.04,17.42 37.36,17.24 37.28,17.7 C 37.44,18.13 36.95,17.82 36.87,17.65 z M 37.42,17.41 C 37.05,16.82 38.45,16.73 37.86,17.3 C 37.76,17.4 37.55,17.54 37.42,17.41 z M 37.6,17.23 C 38.1,17.35 37.47,16.77 37.6,17.23 z M 38.25,16.01 C 38.92,16.12 38.41,17.11 38,16.75 C 37.93,16.48 38.14,16.24 38.25,16.01 z M 38.35,16.46 C 37.89,16.36 38.47,16.87 38.35,16.46 z M 39.28,15.83 C 39.22,16.21 38.3,16.31 38.64,15.93 C 39.14,16.2 38.63,15.38 39.06,15.6 C 39.14,15.67 39.19,15.76 39.28,15.83 z M 39.61,15.24 C 40.15,15.13 38.97,16.1 39.15,15.35 C 39.15,15.11 39.86,14.88 39.45,15.21 C 39.12,15.39 39.68,15.56 39.61,15.24 z M 39.76,14.46 C 39.96,14.49 40.18,14.79 40.24,14.84 C 40.02,15.2 39.4,14.77 39.76,14.46 z M 39.95,14.26 C 40.22,13.79 40.21,14.5 39.95,14.26 z M 40.07,14.38 C 40.35,13.86 40.7,14.95 40.23,14.54 C 40.18,14.49 40.12,14.44 40.07,14.38 z M 40.5,14.26 C 40.13,13.67 41.53,13.58 40.94,14.15 C 40.83,14.25 40.63,14.39 40.5,14.26 z M 40.68,14.08 C 41.17,14.2 40.55,13.62 40.68,14.08 z M 40.96,13.47 C 41.02,13.09 41.94,12.99 41.6,13.37 C 41.09,13.1 41.6,13.92 41.18,13.7 C 41.1,13.63 41.04,13.54 40.96,13.47 z" id="text3395" style="fill:#000000;fill-opacity:0.87;stroke:none;display:inline"/>
<path d="M 3.69,28.52 C 4.09,28.14 8,31.88 7.07,31.77" id="p3271" style="fill:none;fill-rule:evenodd;stroke:#97a6a5;stroke-width:0.30;stroke-linecap:butt;stroke-linejoin:miter;stroke-miterlimit:4;stroke-dasharray:none;stroke-opacity:0.8"/>
<path d="M 5.57,30.6 C 4.96,29.79 5.02,29.23 5.62,28.52 C 6.23,27.81 12.93,20.16 13.28,19.65 C 13.64,19.14 13.48,18.33 12.87,18.28" id="p3260" style="fill:none;fill-rule:evenodd;stroke:#f0f0f0;stroke-width:0.60;stroke-linecap:round;stroke-linejoin:miter;stroke-miterlimit:4;stroke-dasharray:none;stroke-opacity:1;display:inline"/>
<path d="M 5.76,31.38 C 6.4,32.05 8.07,31.87 8.75,31.23 C 9.43,30.59 11.17,28.78 11.31,28.56 C 11.45,28.35 11.6,28.67 11.92,28.28 C 12.24,27.89 14.16,25.47 14.44,25.04 C 14.73,24.61 14.44,24.26 13.87,23.65 C 13.3,23.05 11.95,22.05 11.95,22.05 C 11.95,22.05 12.6,21.24 13.52,20.2 C 14.91,18.64 12.49,17.5 11.67,18.42 C 10.85,19.35 4.87,26 4.09,27.03 C 3.3,28.07 3.91,29.56 4.3,29.95 C 4.69,30.34 5.76,31.38 5.76,31.38 z" id="stroke01" style="fill:none;fill-opacity:1;fill-rule:evenodd;stroke:#0e1112;stroke-width:0.5;stroke-linecap:butt;stroke-linejoin:miter;stroke-miterlimit:4;stroke-dasharray:none;stroke-opacity:1"/>
<path d="M 10.07,40.11 L 11.57,41.3" id="p3336" style="fill:none;fill-rule:evenodd;stroke:#435252;stroke-width:0.30;stroke-linecap:butt;stroke-linejoin:miter;stroke-miterlimit:4;stroke-dasharray:none;stroke-opacity:0.43"/>
<path d="M 12.26,35.92 C 13.12,36.28 15.54,38.51 15.81,39.02" id="p3338" style="fill:none;fill-rule:evenodd;stroke:#435252;stroke-width:0.40;stroke-linecap:butt;stroke-linejoin:miter;stroke-miterlimit:4;stroke-dasharray:none;stroke-opacity:0.22"/>
<path d="M 15.63,32.04 C 17.13,33.05 19,35.01 19.5,35.83" id="p3340" style="fill:none;fill-rule:evenodd;stroke:#435252;stroke-width:0.30;stroke-linecap:butt;stroke-linejoin:miter;stroke-miterlimit:4;stroke-dasharray:none;stroke-opacity:0.17"/>
<path d="M 16.32,39 C 15.61,38.02 14.19,36.77 14.19,36.77" id="p3353" style="fill:none;fill-rule:evenodd;stroke:#f5f5f5;stroke-width:0.5;stroke-linecap:round;stroke-linejoin:miter;stroke-miterlimit:4;stroke-dasharray:none;stroke-opacity:0.72"/>
<path d="M 13.28,37.42 C 13.82,37.79 15.14,39.21 15.14,39.21" id="p3351" style="fill:none;fill-rule:evenodd;stroke:#f5f5f5;stroke-width:0.5;stroke-linecap:round;stroke-linejoin:miter;stroke-miterlimit:4;stroke-dasharray:none;stroke-opacity:0.72"/>
<path d="M 40.55,7.8 C 41.57,8.03 43.78,9.95 44.08,10.85" id="p3359" style="fill:none;fill-opacity:1;fill-rule:evenodd;stroke:#435252;stroke-width:0.30;stroke-linecap:butt;stroke-linejoin:miter;marker:none;stroke-miterlimit:4;stroke-dasharray:none;stroke-dashoffset:0;stroke-opacity:0.17;visibility:visible;display:inline;overflow:visible;enable-background:accumulate"/>
<path d="M 8.83,42.77 C 9.32,43.05 10.38,41.76 10.38,41.76 C 10.38,41.76 10.54,41.89 10.9,41.89 C 11.25,41.89 11.74,41.18 11.74,41.18 C 11.74,41.18 11.92,41.32 12.24,40.93 C 12.56,40.54 13.09,39.97 13.27,39.9 C 13.45,39.83 15.33,39.44 15.33,39.44 L 15.72,38.94 C 15.72,38.94 15.9,39.26 16.36,39.05 C 16.82,38.84 19.7,35.86 19.7,35.86 C 19.7,35.86 23.77,33.67 25.16,31.95 C 26.99,29.7 28.14,27.71 30.73,24.86 C 32.17,23.28 43.47,11.97 43.76,11.58 C 44.04,11.18 44.08,10.87 44.08,10.87 C 44.08,10.87 44.38,10.38 44.54,10.16 C 44.92,9.63 41.81,6.74 41.24,7.32 C 40.93,7.62 40.64,7.92 40.64,7.92 C 40.64,7.92 40.04,7.74 39.72,8.06 C 39.4,8.38 27.08,20.7 26.44,21.41 C 25.8,22.12 20.68,25.38 19.09,27.12 C 17.97,28.35 15.54,31.99 15.54,31.99 C 15.54,31.99 12.56,35.32 12.38,35.54 C 12.21,35.75 12.31,35.96 12.31,35.96 L 11.92,36.39 C 11.92,36.39 11.49,38.13 11.42,38.2 C 11.35,38.27 10.25,39.55 10.14,39.73 C 10.04,39.9 10.04,40.08 10.04,40.08 C 10.04,40.08 9.54,40.4 9.54,40.65 C 9.54,40.9 9.66,41.14 9.66,41.14 C 9.66,41.14 8.44,42.49 8.83,42.77 z" id="stroke02" style="fill:none;fill-opacity:1;fill-rule:evenodd;stroke:#0e1112;stroke-width:0.5;stroke-linecap:butt;stroke-linejoin:bevel;stroke-miterlimit:4;stroke-dasharray:none;stroke-opacity:1;display:inline"/>
<path d="M 15.85,38.13 L 18,35.93" id="p3355" style="fill:none;fill-rule:evenodd;stroke:#fdfdfd;stroke-width:0.5;stroke-linecap:butt;stroke-linejoin:miter;stroke-miterlimit:4;stroke-dasharray:none;stroke-opacity:0.91"/>
<path d="M 19.83,34.2 L 22.35,32.65" id="p3357" style="fill:none;fill-rule:evenodd;stroke:#f9f9f9;stroke-width:1px;stroke-linecap:round;stroke-linejoin:miter;stroke-opacity:0.72"/>
</g>
</svg>
