<?xml version="1.0" encoding="UTF-8" standalone="no"?>
<!DOCTYPE svg PUBLIC "-//W3C//DTD SVG 1.0//EN" "http://www.w3.org/TR/2001/REC-SVG-20010904/DTD/svg10.dtd">
<svg xmlns:svg="http://www.w3.org/2000/svg" xmlns="http://www.w3.org/2000/svg" version="1.0" width="100%" height="100%" viewBox="0 0 48 48" id="_erase01">
<defs id="defs2385"/>
<g id="eraser01" style="display:inline">
<path d="M 3.41,28.42 C 3.31,29.1 3.81,32.63 3.88,32.77 C 3.95,32.92 8.42,37.05 9.28,37.74 C 10.14,38.42 13.17,41.05 13.35,41.05 C 13.53,41.05 18.82,36.66 18.96,36.66 C 19.11,36.66 19.18,36.87 19.25,36.84 C 19.32,36.8 28.86,29.35 30.05,28.45 C 31.23,27.55 41.78,19.2 42.21,18.84 C 42.64,18.48 42.82,18.23 42.82,18.23 C 42.82,18.23 43.33,14.24 43.15,14.02 C 42.97,13.81 37.64,9.77 37.03,9.31 C 36.42,8.84 32.82,6.36 32.64,6.36 C 32.46,6.36 26.77,10.78 25.37,11.83 C 23.96,12.87 9.28,23.74 9.28,23.74 C 9.28,23.74 9.35,23.88 9.06,24.06 C 8.78,24.24 3.52,28.16 3.41,28.42 z" id="p2720" style="fill:#fce9d0;fill-opacity:1;fill-rule:evenodd;stroke:none"/>
<path d="M 3.46,28.34 C 3.46,28.35 3.4,28.4 3.4,28.4 C 3.29,29.09 3.8,32.63 3.87,32.78 C 3.94,32.92 8.41,37.06 9.28,37.75 C 10.14,38.43 13.16,41.06 13.34,41.06 C 13.52,41.06 18.82,36.65 18.96,36.65 C 19.11,36.65 19.17,36.87 19.25,36.84 C 19.27,36.83 21.19,35.36 22.34,34.46 C 23.52,30.76 24.45,27.2 23,28.78 C 20.25,31.76 13.48,36.71 13.09,36.71 C 12.7,36.71 11.05,35.07 8.31,32.87 C 6.34,31.3 4.63,29.61 3.46,28.34 z" id="p3497" style="fill:#768380;fill-opacity:0.51;fill-rule:evenodd;stroke:none"/>
<path d="M 23,28.78 C 20.25,31.76 13.48,36.71 13.09,36.71 C 12.7,36.71 11.05,35.07 8.31,32.87 C 6.34,31.3 4.63,29.61 3.46,28.34 C 3.46,28.35 3.4,28.4 3.4,28.4" id="p3548" style="fill:none;fill-opacity:0.51;fill-rule:evenodd;stroke:#ffffff;stroke-width:0.30;stroke-linecap:butt;stroke-linejoin:miter;stroke-miterlimit:4;stroke-dasharray:none;stroke-opacity:0.82;display:inline"/>
<path d="M 21,30.68 C 17.84,33.49 13.4,36.71 13.09,36.71 C 13.08,36.71 13.06,36.71 13.06,36.71 L 13.34,41.06 C 13.52,41.06 18.82,36.65 18.96,36.65 C 19.11,36.65 19.17,36.87 19.25,36.84 C 19.26,36.83 20.7,35.72 21.81,34.87 C 21.45,33.01 21.2,31.69 21,30.68 z" id="p3542" style="fill:#fbe7c7;fill-opacity:0.31;fill-rule:evenodd;stroke:none;display:inline"/>
<path d="M 32.65,6.37 C 32.47,6.37 26.77,10.8 25.37,11.84 C 23.97,12.88 9.28,23.75 9.28,23.75 C 9.28,23.75 9.3,23.81 9.25,23.9 C 9.24,23.9 12.46,26.35 13.87,27.53 C 15.28,28.7 18.98,31.6 19.21,32 C 19.4,32.31 19.34,35.31 19.31,36.78 C 19.5,36.65 28.88,29.36 30.06,28.46 C 31.25,27.56 41.78,19.2 42.21,18.84 C 42.65,18.48 42.81,18.25 42.81,18.25 C 42.81,18.24 43.33,14.24 43.15,14.03 C 42.97,13.81 37.64,9.78 37.03,9.31 C 36.41,8.84 32.83,6.37 32.65,6.37 z" id="p3495" style="fill:#f2f1ee;fill-opacity:1;fill-rule:evenodd;stroke:none"/>
<path d="M 32.15,6.71 C 30.95,7.55 26.6,10.92 25.37,11.84 C 23.99,12.87 9.97,23.23 9.53,23.56 L 19.46,31.75 L 42.43,14.18 C 42.43,14.18 37.87,10.64 36.78,9.78 C 36.03,9.19 33.81,7.77 32.15,6.71 z" id="p3507" style="fill:#0277b5;fill-opacity:1;fill-rule:evenodd;stroke:none;display:inline"/>
<path d="M 18.72,20.57 C 19.30,20.14 19.87,19.70 20.45,19.27 C 21.20,19.79 19.41,20.06 19.96,20.49 C 20.37,20.46 20.82,19.51 21.13,20.14 C 20.95,20.40 19.99,20.74 20.57,21.03 C 21.03,20.96 21.45,19.99 21.90,20.58 C 21.39,21.05 20.85,21.51 20.21,21.80 C 19.60,21.55 19.27,20.93 18.72,20.57 z M 22.34,20.30 C 21.94,19.77 21.13,19.57 20.99,18.86 C 21.60,18.46 22.11,17.75 22.91,17.77 C 23.44,17.88 22.97,18.98 23.76,18.57 C 24.18,18.56 24.40,19.06 23.90,19.17 C 23.50,19.49 22.75,18.84 22.53,19.38 C 23.10,19.63 22.79,20.15 22.34,20.30 z M 22.09,19.02 C 22.87,18.85 22.10,17.94 21.87,18.77 C 21.89,18.89 21.98,18.99 22.09,19.02 z M 25.63,17.40 C 24.99,17.54 25.06,18.41 24.53,18.60 C 23.97,18.45 24.12,17.59 23.75,17.19 C 23.63,16.31 24.76,16.18 25.30,16.62 C 25.69,16.72 26.95,16.91 26.18,17.40 C 26.02,17.51 25.77,17.57 25.63,17.40 z M 25.16,17.21 C 24.87,16.96 24.15,16.93 24.62,17.45 C 24.80,17.65 25.01,17.27 25.16,17.21 z M 26.24,16.52 C 26.42,15.97 27.62,16.31 27.46,15.68 C 26.89,15.56 26.40,16.37 25.81,15.94 C 25.39,15.37 26.17,14.71 26.69,14.57 C 27.10,14.29 27.62,14.86 27.01,15.00 C 26.75,14.96 26.01,15.39 26.60,15.38 C 27.08,15.14 27.83,14.59 28.20,15.29 C 28.38,15.93 27.69,16.38 27.18,16.59 C 26.88,16.70 26.51,16.72 26.24,16.52 z M 27.45,13.95 C 28.02,13.52 28.60,13.08 29.17,12.64 C 29.93,13.16 28.13,13.44 28.69,13.87 C 29.09,13.83 29.55,12.89 29.86,13.52 C 29.67,13.78 28.72,14.12 29.29,14.41 C 29.75,14.33 30.17,13.37 30.63,13.95 C 30.11,14.43 29.57,14.89 28.94,15.18 C 28.33,14.93 27.99,14.30 27.45,13.95 z M 31.07,13.67 C 30.67,13.15 29.85,12.95 29.72,12.24 C 30.33,11.84 30.84,11.13 31.64,11.15 C 32.17,11.26 31.69,12.36 32.48,11.95 C 32.90,11.93 33.13,12.44 32.62,12.55 C 32.23,12.87 31.48,12.21 31.26,12.76 C 31.82,13.01 31.52,13.53 31.07,13.67 z M 30.82,12.40 C 31.59,12.22 30.83,11.32 30.60,12.15 C 30.61,12.27 30.70,12.37 30.82,12.40 z" id="text2398" style="fill:#f8f8f8;fill-opacity:0.9;fill-rule:nonzero;stroke:none;marker:none;visibility:visible;display:inline;overflow:visible;enable-background:accumulate"/>
<path d="M 43.15,14.09 L 19.62,32.09 C 19.62,32.09 19.62,34.79 19.59,36.56 C 20.23,36.07 28.91,29.33 30.06,28.46 C 31.25,27.56 41.78,19.2 42.21,18.84 C 42.65,18.48 42.81,18.25 42.81,18.25 C 42.81,18.24 43.28,14.52 43.15,14.09 z" id="p3516" style="fill:#b3bdbd;fill-opacity:0.52;fill-rule:evenodd;stroke:none;display:inline"/>
<path d="M 8.45,26.9 L 14.93,32.33" id="p3522" style="fill:none;fill-rule:evenodd;stroke:#000000;stroke-width:0.30;stroke-linecap:round;stroke-linejoin:miter;stroke-miterlimit:4;stroke-dasharray:none;stroke-opacity:0.82;display:inline"/>
<path d="M 11.31,26.28 C 11.48,26.46 11.81,26.64 11.89,26.8 C 11.7,26.92 11.57,26.92 11.48,26.79 C 11.36,26.69 11.2,26.47 11.02,26.69 C 11.31,26.82 11.39,27.14 10.98,27.3 C 10.6,27.48 10.12,27.34 9.99,27.13 C 9.8,27.02 9.82,26.8 10.15,26.77 C 10.12,26.93 10.22,27.09 10.49,27.12 C 10.93,27.16 10.98,26.78 10.62,26.73 C 10.32,26.6 10.97,26.48 11.11,26.37 C 11.18,26.34 11.24,26.31 11.31,26.28 z M 11.24,27.77 C 11.32,27.9 11.69,28.04 11.58,28.15 C 11.33,28.35 11.24,28.11 11.09,28.02 C 10.95,27.9 10.81,27.79 10.68,27.67 C 10.95,27.47 11.32,27.59 11.65,27.61 C 11.94,27.7 12.44,27.53 12.21,27.33 C 12.14,27.21 11.58,27.22 12.01,27.09 C 12.32,27 12.54,27.27 12.66,27.4 C 12.83,27.62 12.37,27.88 11.97,27.84 C 11.72,27.82 11.48,27.79 11.24,27.77 z M 12.7,28.4 C 12.42,28.19 11.82,28.71 12.37,28.68 C 12.57,28.66 12.85,28.52 12.7,28.4 z M 13.73,28.33 C 13.59,28.41 13.4,28.5 13.41,28.34 C 13.4,28.17 12.86,28.05 12.76,28.22 C 13.02,28.28 13.2,28.46 13.06,28.64 C 12.92,28.86 12.42,28.98 12.12,28.85 C 11.77,28.74 11.68,28.42 12.03,28.23 C 12.35,28.01 12.92,27.83 13.33,27.98 C 13.54,28.06 13.66,28.19 13.73,28.33 z M 14.5,28.92 C 14.67,29.09 15,29.27 15.07,29.44 C 14.89,29.55 14.75,29.56 14.67,29.42 C 14.55,29.33 14.39,29.1 14.2,29.32 C 14.49,29.45 14.57,29.77 14.17,29.93 C 13.79,30.11 13.3,29.97 13.17,29.76 C 12.98,29.66 13,29.43 13.34,29.41 C 13.3,29.56 13.41,29.72 13.68,29.76 C 14.12,29.79 14.16,29.42 13.81,29.37 C 13.51,29.23 14.15,29.12 14.3,29 C 14.37,28.98 14.43,28.95 14.5,28.92 z M 15.12,30.39 C 15.55,30.33 15.65,29.85 15.11,30.04 C 14.84,30.14 14.39,30.27 14.43,30.48 C 14.55,30.62 14.96,30.47 15.12,30.39 z M 15.36,30.59 C 15.04,30.75 14.51,30.84 14.24,30.66 C 13.97,30.51 14.03,30.22 14.35,30.06 C 14.66,29.87 15.16,29.69 15.55,29.81 C 15.91,29.92 15.99,30.25 15.65,30.44 C 15.56,30.5 15.46,30.55 15.36,30.59 z" id="text3525" style="fill:#000000;fill-opacity:0.82;stroke:none;display:inline"/>
<path d="M 7.89,28.72 C 7.55,28.62 7.2,28.32 7.35,28.01 C 7.48,27.72 8.03,27.61 8.27,27.87 C 8.42,27.93 8.61,28.26 8.33,28.24 C 8.29,27.95 7.79,27.82 7.61,28.09 C 7.35,28.27 7.94,28.66 7.87,28.31 C 7.83,28.04 8.42,28.41 8.14,28.53 C 8.06,28.59 7.95,28.64 7.89,28.72 z M 8.75,28.3 C 8.85,28.47 9.38,28.64 9.15,28.83 C 8.99,28.82 8.75,28.43 8.69,28.71 C 8.78,28.81 9.1,29 8.81,29.06 C 8.73,28.92 8.35,28.72 8.39,28.99 C 8.5,29.08 8.81,29.28 8.52,29.34 C 8.4,29.17 7.83,28.97 8.16,28.78 C 8.36,28.62 8.56,28.46 8.75,28.3 z M 9.4,29.4 C 9.68,29.63 9.66,29.02 9.41,29.25 C 9.34,29.3 9.3,29.35 9.4,29.4 z M 9.18,29.44 C 9.09,29.56 8.81,29.75 8.73,29.51 C 8.97,29.3 9.17,29.06 9.49,28.93 C 9.68,29.09 10.1,29.35 9.81,29.58 C 9.65,29.64 9.44,29.56 9.5,29.77 C 9.52,29.96 9.26,30.18 9.21,29.88 C 9.21,29.74 9.38,29.55 9.18,29.44 z M 10.25,29.57 C 10.57,29.7 10.43,30 10.29,30.18 C 10.38,30.31 10.75,29.96 10.95,30.14 C 11.21,30.34 10.75,30.48 10.63,30.63 C 10.55,30.77 10.17,30.99 10.21,30.7 C 10.29,30.53 10.67,30.38 10.66,30.29 C 10.48,30.35 9.98,30.59 10.04,30.26 C 10.06,30.18 10.34,29.8 10.09,29.99 C 9.97,30.11 9.64,30.47 9.54,30.15 C 9.73,29.94 10.01,29.8 10.21,29.6 L 10.25,29.57 L 10.25,29.57 z M 11.11,31.32 C 10.98,31.15 10.77,31.04 10.57,31.09 C 10.3,30.86 10.87,30.88 11.01,30.75 C 11.2,30.62 11.72,30.55 11.65,30.87 C 11.51,31.12 11.36,31.38 11.22,31.63 C 11.1,31.55 10.97,31.43 11.11,31.32 z M 11,30.99 C 11.09,31.13 11.29,31.18 11.31,30.99 C 11.53,30.69 11.12,30.98 11,30.99 z M 12.07,31.11 C 12.42,31.26 12.15,31.6 12.09,31.82 C 12.03,32.08 12.39,31.57 12.54,31.56 C 12.9,31.61 12.5,31.86 12.38,31.98 C 12.23,32.1 11.9,32.43 11.81,32.09 C 11.79,31.88 12,31.66 11.99,31.47 C 11.79,31.57 11.56,32.02 11.34,31.73 C 11.54,31.49 11.83,31.32 12.07,31.11 z M 12.82,31.75 C 13.13,31.83 12.93,32.21 12.98,32.27 C 13.13,32.19 13.66,32.25 13.49,32.42 C 13.14,32.43 12.79,32.51 12.57,32.73 C 12.33,32.7 12.38,32.52 12.56,32.45 C 12.76,32.26 12.76,31.99 12.82,31.75 z" id="text3533" style="fill-opacity:0.82;stroke:none;display:inline"/>
<path d="M 18.28,24.34 L 33.66,12.88" id="p3550" style="fill:none;fill-rule:evenodd;stroke:#fffef8;stroke-width:0.40;stroke-linecap:round;stroke-linejoin:miter;stroke-miterlimit:4;stroke-dasharray:none;stroke-opacity:0.9;display:inline"/>
<path d="M 20.24,20.19 C 20.05,20.52 19.39,20.55 19.31,20.65 C 19.6,21.02 20.51,20.3 20.88,20.65 C 21.52,20.86 21.12,21.78 20.29,21.97 C 19.61,22.31 19.09,21.56 19.97,21.39 C 20.18,21.37 20.54,21.54 20.42,21.26 C 20.08,20.97 19.5,21.47 19.07,21.37 C 18.54,21.32 18.33,20.81 18.8,20.38 C 19.2,19.96 20.05,19.79 20.24,20.19 z M 21.32,18.58 C 21.84,18.72 21.09,19.36 21.66,19.5 C 21.86,19.84 22.93,20 22.27,20.57 C 21.53,20.93 21.4,20.12 20.98,19.94 C 20.81,19.65 20.49,19.82 20.13,19.85 C 19.62,19.59 20.61,19.15 20.93,18.87 C 21.06,18.78 21.19,18.68 21.32,18.58 z M 22.48,17.71 C 23.17,18.09 23.86,18.47 24.55,18.85 C 24.34,19.3 23.5,19.19 23.41,19.32 C 23.76,19.7 22.77,20.23 22.57,19.78 C 22.42,19.25 21.81,19 21.65,18.49 C 21.63,18.16 22.22,17.98 22.48,17.71 z M 23.22,18.88 C 23.01,18.79 22.41,18.27 22.69,18.72 C 22.75,18.88 22.92,19.1 23.22,18.88 z M 22.97,17.35 C 23.33,17.1 24.12,16.29 24.31,16.81 C 23.87,17.15 24.15,17.57 24.67,17.17 C 25.37,17.13 24.2,18.09 25.06,17.88 C 25.48,17.62 25.94,17.74 25.53,18.14 C 25.09,18.62 24.38,18.82 24.18,18.37 C 23.78,18.02 23.38,17.68 22.97,17.35 z M 24.31,16.35 C 24.81,16.02 25.42,15.33 26.03,15.49 C 26.56,15.69 26.86,16.09 27.23,16.43 C 27.42,16.79 26.81,17.22 26.37,17.48 C 25.58,18 25.45,17.06 24.97,16.91 C 24.75,16.72 24.53,16.54 24.31,16.35 z M 25.25,16.1 C 25.65,16.32 25.81,16.75 26.29,16.89 C 26.6,16.82 26.06,16.47 25.98,16.34 C 25.81,16.23 25.54,15.98 25.25,16.1 z M 27.41,14.04 C 27.93,14.18 27.18,14.82 27.75,14.96 C 27.95,15.3 29.02,15.46 28.36,16.04 C 27.62,16.4 27.49,15.59 27.07,15.4 C 26.9,15.12 26.58,15.28 26.22,15.31 C 25.71,15.05 26.7,14.62 27.02,14.33 C 27.15,14.24 27.28,14.14 27.41,14.04 z M 28.22,13.44 C 28.67,13.82 29.12,14.19 29.57,14.57 C 29.89,14.04 30.62,14.63 29.91,14.86 C 29.46,15.45 28.75,15.18 28.62,14.82 C 28.26,14.52 27.91,14.23 27.56,13.93 C 27.78,13.77 28,13.6 28.22,13.44 z M 28.78,13.02 C 29.14,12.77 29.93,11.97 30.12,12.49 C 29.68,12.82 29.96,13.24 30.48,12.85 C 31.17,12.8 30.01,13.76 30.87,13.55 C 31.29,13.29 31.75,13.41 31.33,13.82 C 30.9,14.29 30.19,14.49 29.99,14.04 C 29.59,13.7 29.19,13.36 28.78,13.02 z M 30.11,12.03 C 30.63,11.66 31.32,10.96 31.93,11.21 C 32.18,11.31 32.34,11.61 32.03,11.88 C 32.68,11.57 33.52,12.19 32.9,12.65 C 32.34,12.98 32.2,12.04 31.82,12.38 C 32.08,12.6 32.73,12.97 31.94,13.32 C 31.26,13.38 31.16,12.68 30.66,12.48 C 30.47,12.33 30.29,12.18 30.11,12.03 z M 31.06,11.78 C 31.03,12.01 31.76,12.09 31.47,11.78 C 31.39,11.71 31.2,11.64 31.06,11.78 z" id="text3553" style="opacity:0;fill:#f8f8f8;fill-opacity:0.9;stroke:none;display:inline"/>
<path d="M 21.17,25.54 C 20.58,25.93 19.68,24.91 19.37,25.17 C 19.62,25.35 20.69,25.98 20.17,26.01 C 19.75,25.68 18.78,25.2 18.91,24.83 C 19.56,24.61 20.43,25.61 20.72,25.24 C 20.66,24.86 19.56,24.18 20.24,24 C 20.79,24.18 21.54,24.8 21.61,25.11 C 21.13,25.15 20.55,24.16 20.44,24.46 C 20.66,24.82 20.94,25.17 21.17,25.54 z M 22.48,23.85 C 21.85,23.93 22.1,24.7 21.97,24.78 C 21.52,24.37 21.17,23.78 21.07,23.3 C 21.67,23.01 22.44,23.72 23.1,23.83 C 23.49,24.29 22.65,23.94 22.48,23.85 z M 22.26,23.76 C 21.92,23.56 20.99,23.27 21.55,23.84 C 21.67,24.29 22.07,23.92 22.26,23.76 z M 23.74,22.47 C 24.29,22.14 25.1,23.36 24.19,22.73 C 23.4,22.39 22.88,23.34 23.65,23.59 C 23.24,23.77 22.68,22.97 22.24,22.76 C 21.75,22.25 23.14,21.55 23.69,22.08 C 23.8,22.19 23.8,22.34 23.74,22.47 z M 23.42,22.17 C 22.61,21.67 22.08,23.17 23.15,22.8 C 23.37,22.66 23.73,22.39 23.42,22.17 z M 25.54,22.14 C 26.21,21.57 24.64,21.48 24.41,21.9 C 23.19,21.89 23.96,20.32 24.89,20.94 C 24.66,20.96 23.62,21.2 24.26,21.64 C 24.85,21.5 25.96,21.02 25.99,21.9 C 26.19,22.47 24.54,22.74 24.77,22.24 C 25.03,22.26 25.42,22.42 25.54,22.14 z M 26.37,20.7 C 26.78,21.09 25.41,21.21 26.19,20.82 C 26.26,20.79 26.31,20.74 26.37,20.7 z M 27.35,19.32 C 28.11,19.78 26.28,20.41 27.44,20.74 C 27.02,21.17 26.5,20.14 26.01,20.01 C 25.6,19.5 26.83,18.88 27.35,19.32 L 27.35,19.32 z M 26.69,20.21 C 27.54,20.14 27.09,18.95 26.41,19.56 C 25.9,19.73 26.46,20.04 26.69,20.21 z M 27.36,18.6 C 27.98,19.02 28.67,20.02 29.46,19.24 C 29.86,19.41 28.75,20.18 28.32,19.71 C 28.18,19.26 27.04,19.1 27.36,18.6 z M 30.32,18.12 C 29.69,18.2 29.94,18.97 29.81,19.04 C 29.36,18.64 29.01,18.05 28.91,17.57 C 29.51,17.28 30.28,17.99 30.93,18.1 C 31.32,18.56 30.49,18.21 30.32,18.12 z M 30.09,18.03 C 29.75,17.82 28.83,17.53 29.39,18.11 C 29.51,18.56 29.91,18.18 30.09,18.03 z M 31.82,17.55 C 32.49,16.97 30.92,16.88 30.69,17.3 C 29.47,17.3 30.24,15.72 31.17,16.34 C 30.94,16.36 29.9,16.6 30.54,17.05 C 31.13,16.91 32.25,16.42 32.27,17.3 C 32.47,17.87 30.82,18.14 31.05,17.64 C 31.32,17.66 31.7,17.82 31.82,17.55 z M 31.98,15.49 C 32.26,15.84 33.47,16.34 33.13,16.62 C 32.44,16.42 32.09,15.31 31.33,15.9 C 31.08,15.75 31.92,15.24 32.23,15.09 C 32.66,15.16 32.05,15.39 31.98,15.49 z M 32.77,14.64 C 33.09,15.02 34.41,15.61 34.08,15.89 C 33.55,15.59 32.84,15.09 32.66,14.7 L 32.77,14.64 L 32.77,14.64 z M 33.88,15.07 C 32.91,14.67 33.81,13.3 34.69,13.8 C 34.37,14.07 33.26,13.99 33.79,14.66 C 34.21,15.47 35.66,15.14 35.48,14.39 C 36.03,14.74 35.5,15.43 34.81,15.39 C 34.46,15.41 34.08,15.29 33.88,15.07 z" id="text3569" style="fill:#f8f8f8;fill-opacity:0.9;stroke:none;display:inline"/>
<path d="M 17.46,21 C 16.89,20.98 16.26,21.13 15.86,21.57 C 15.63,21.83 15.5,22.22 15.65,22.55 C 15.8,22.72 16.05,22.6 16.23,22.55 C 16.41,22.42 16.35,22.15 16.49,21.98 C 16.65,21.73 16.96,21.6 17.25,21.59 C 17.59,21.55 17.97,21.61 18.21,21.87 C 18.41,22.14 18.32,22.53 18.08,22.74 C 17.88,22.95 17.6,23.03 17.33,23.12 C 17.19,23.21 17,23.35 16.96,23.49 C 17.14,23.64 17.37,23.69 17.56,23.83 C 18.16,23.87 18.5,23.43 18.94,23.14 C 19.15,22.81 19.2,22.2 18.93,21.67 C 18.64,21.16 18,21.02 17.46,21 z M 17.4,21.9 C 17.14,21.85 16.7,22.11 16.66,22.39 C 16.6,22.58 16.41,22.76 16.45,22.96 C 16.42,23.07 16.67,23.38 16.77,23.18 C 16.99,22.92 17.3,22.76 17.62,22.67 C 17.82,22.57 18.07,22.43 18.01,22.14 C 17.95,21.85 17.67,21.95 17.4,21.9 z" id="p3586" style="fill:#f8f8f8;fill-opacity:0.9;fill-rule:evenodd;stroke:none;display:inline"/>
<path d="M 21.6,31.61 C 22.06,30.85 22.09,31.91 21.48,31.97 C 20.7,32.57 21.49,30.93 21.68,31.24 C 21.36,31.36 21.5,31.8 21.6,31.61 z M 22.16,31.17 C 22.17,30.46 23.52,30.54 22.43,31.21 C 22.3,31.28 22.16,31.29 22.16,31.17 z M 22.42,30.97 C 22.61,31.27 22.63,30.47 22.42,30.97 L 22.42,30.97 z M 23.02,30.26 C 23.31,29.8 24.4,29.32 24.02,29.9 C 23.91,29.68 23.51,30.48 23.42,30.21 C 23.02,30.92 23.04,30.52 23.02,30.26 z M 24.3,29.26 C 24.59,28.81 25.68,28.33 25.3,28.9 C 25.19,28.69 24.79,29.48 24.7,29.21 C 24.3,29.92 24.32,29.52 24.3,29.26 z M 26.35,27.96 C 26.12,27.94 25.94,28.52 26.28,28.11 C 25.43,29.27 25.6,27.59 26.35,27.88 L 26.35,27.96 L 26.35,27.96 z M 26.08,28.08 C 25.98,27.9 25.83,28.44 26.08,28.08 z M 26.95,27.89 C 26.27,28.01 27.76,26.25 27.53,27.14 C 27.39,27.4 27.13,27.64 26.95,27.89 z M 27.15,27.3 C 27.35,27.55 27.31,26.82 27.15,27.3 L 27.15,27.3 z M 27.71,26.85 C 27.72,26.14 29.08,26.22 27.98,26.89 C 27.85,26.96 27.71,26.97 27.71,26.85 z M 27.97,26.66 C 28.16,26.95 28.18,26.15 27.97,26.66 L 27.97,26.66 z M 29.33,25.84 C 28.81,26.55 28.37,25.97 29.06,25.66 C 29.35,25.2 29.35,25.72 29.33,25.84 z M 29.43,25.27 C 30.17,24.47 29.47,26.12 29.43,25.44 C 29.42,25.39 29.43,25.33 29.43,25.27 z M 30.51,25.12 C 29.83,25.24 31.32,23.48 31.09,24.37 C 30.95,24.63 30.69,24.87 30.51,25.12 z M 30.71,24.53 C 30.91,24.78 30.87,24.05 30.71,24.53 L 30.71,24.53 z M 31.53,23.8 C 32.01,22.92 32.4,23.85 31.48,24.15 C 31.35,24.22 31.56,23.59 31.53,23.8 z M 31.76,23.72 C 31.39,23.89 31.83,23.94 31.76,23.72 z M 32.23,23.78 C 31.55,23.9 33.04,22.14 32.81,23.03 C 32.67,23.29 32.41,23.53 32.23,23.78 z M 32.43,23.19 C 32.63,23.44 32.59,22.71 32.43,23.19 L 32.43,23.19 z M 32.98,22.32 C 33.5,21.75 32.95,22.69 32.98,22.32 z M 33.01,22.49 C 33.64,21.93 32.92,23.32 33.02,22.6 C 33.02,22.56 33.01,22.53 33.01,22.49 z M 34.2,21.86 C 33.97,21.83 33.78,22.42 34.13,22.01 C 33.28,23.17 33.45,21.48 34.19,21.77 L 34.2,21.86 L 34.2,21.86 z M 33.93,21.98 C 33.83,21.8 33.68,22.34 33.93,21.98 z M 34.28,21.5 C 35.03,20.69 34.33,22.34 34.29,21.66 C 34.28,21.61 34.28,21.55 34.28,21.5 z M 36.05,20.42 C 35.82,20.39 35.63,20.98 35.98,20.57 C 35.13,21.73 35.3,20.05 36.04,20.33 L 36.05,20.42 L 36.05,20.42 z M 35.78,20.54 C 35.68,20.36 35.53,20.9 35.78,20.54 z M 36.41,19.65 C 36.94,19.54 36.08,20.84 36.14,20.09 C 36.15,19.97 36.25,19.78 36.41,19.65 z M 37.41,19.07 C 37.89,19.28 36.44,19.96 37.23,19.06 C 37.44,18.79 37.69,18.68 37.41,19.07 z M 37.61,18.72 C 38.13,18.15 37.58,19.1 37.61,18.72 z M 37.63,18.89 C 38.26,18.34 37.54,19.72 37.65,19.01 C 37.64,18.97 37.64,18.93 37.63,18.89 z M 38.03,18.39 C 38.75,17.77 38.08,19.32 38.07,18.65 C 38.06,18.56 38.05,18.48 38.03,18.39 z M 38.48,18.23 C 38.77,17.78 39.86,17.3 39.47,17.87 C 39.37,17.66 38.97,18.45 38.88,18.19 C 38.48,18.9 38.5,18.5 38.48,18.23 z M 21.24,32.65 C 22.12,31.5 22.19,33.1 21.34,33.14 C 21.14,33.14 21.33,32.76 21.24,32.65 z M 21.56,32.67 C 22.12,32.41 21.47,32.4 21.56,32.67 z M 21.59,32.92 C 21.97,32.78 21.51,32.69 21.59,32.92 z M 22.24,32.31 C 22.25,31.6 23.6,31.68 22.51,32.35 C 22.37,32.42 22.24,32.43 22.24,32.31 z M 22.49,32.11 C 22.68,32.41 22.71,31.61 22.49,32.11 L 22.49,32.11 z M 23.1,31.39 C 23.84,30.59 23.14,32.24 23.1,31.56 C 23.09,31.51 23.1,31.45 23.1,31.39 z M 23.72,30.91 C 24.47,30.11 23.76,31.76 23.72,31.08 C 23.72,31.03 23.72,30.97 23.72,30.91 z M 24.56,30.42 C 25.04,29.54 25.43,30.47 24.51,30.77 C 24.38,30.84 24.59,30.21 24.56,30.42 z M 24.79,30.34 C 24.42,30.51 24.87,30.55 24.79,30.34 z M 25.84,29.07 C 26.51,28.96 25.02,30.71 25.25,29.82 C 25.39,29.56 25.65,29.33 25.84,29.07 z M 25.63,29.67 C 25.43,29.41 25.48,30.14 25.63,29.67 L 25.63,29.67 z M 26.01,29.37 C 26.02,28.66 27.38,28.74 26.29,29.41 C 26.15,29.48 26.01,29.49 26.01,29.37 z M 26.27,29.18 C 26.46,29.47 26.48,28.68 26.27,29.18 L 26.27,29.18 z M 26.87,28.46 C 27.62,27.65 26.92,29.31 26.88,28.63 C 26.87,28.57 26.87,28.52 26.87,28.46 z M 27.95,28.31 C 27.27,28.42 28.76,26.67 28.54,27.56 C 28.39,27.82 28.14,28.05 27.95,28.31 z M 28.15,27.71 C 28.36,27.97 28.31,27.24 28.15,27.71 L 28.15,27.71 z M 28.97,26.99 C 29.46,26.11 29.85,27.04 28.93,27.34 C 28.8,27.4 29.01,26.77 28.97,26.99 z M 29.2,26.9 C 28.84,27.08 29.28,27.12 29.2,26.9 z M 29.58,26.35 C 30.33,25.55 29.62,27.2 29.58,26.52 C 29.57,26.47 29.58,26.41 29.58,26.35 z M 30.42,25.86 C 30.9,24.98 31.29,25.91 30.37,26.22 C 30.24,26.28 30.45,25.65 30.42,25.86 z M 30.65,25.78 C 30.28,25.95 30.73,26 30.65,25.78 z M 31.53,25.52 C 30.85,25.64 32.34,23.88 32.12,24.77 C 31.97,25.03 31.72,25.27 31.53,25.52 z M 31.73,24.93 C 31.94,25.18 31.89,24.45 31.73,24.93 L 31.73,24.93 z M 32.55,24.2 C 33.04,23.32 33.43,24.25 32.51,24.55 C 32.38,24.62 32.59,23.99 32.55,24.2 z M 32.79,24.12 C 32.42,24.29 32.86,24.33 32.79,24.12 z M 33.25,24.18 C 32.58,24.3 34.07,22.54 33.84,23.43 C 33.7,23.69 33.44,23.93 33.25,24.18 z M 33.46,23.59 C 33.66,23.84 33.62,23.11 33.46,23.59 L 33.46,23.59 z M 34.8,22.59 C 34.57,22.57 34.38,23.15 34.73,22.74 C 33.88,23.9 34.05,22.22 34.79,22.5 L 34.8,22.59 L 34.8,22.59 z M 34.53,22.71 C 34.43,22.53 34.28,23.07 34.53,22.71 z M 34.86,22.05 C 35.58,21.43 34.92,22.99 34.9,22.31 C 34.89,22.23 34.88,22.14 34.86,22.05 z M 35.66,21.62 C 35.92,21.49 36.19,21.43 36.35,21.23 C 36.64,21.35 35.64,22.48 35.88,21.75 C 35.81,21.7 35.69,21.71 35.66,21.62 z M 37.23,20.4 C 37.71,20.62 36.26,21.3 37.05,20.4 C 37.26,20.12 37.51,20.02 37.23,20.4 z M 37.42,20.5 C 37.43,19.79 38.78,19.87 37.69,20.54 C 37.55,20.61 37.41,20.62 37.42,20.5 z M 37.67,20.31 C 37.86,20.6 37.89,19.81 37.67,20.31 L 37.67,20.31 z M 38.26,19.41 C 38.98,18.79 38.31,20.35 38.29,19.67 C 38.28,19.59 38.27,19.5 38.26,19.41 z M 38.69,19.08 C 39.21,18.51 38.66,19.45 38.69,19.08 z M 38.71,19.25 C 39.34,18.7 38.62,20.08 38.73,19.36 C 38.72,19.33 38.72,19.29 38.71,19.25 z M 39.13,19.17 C 39.14,18.46 40.49,18.54 39.4,19.21 C 39.26,19.28 39.12,19.29 39.13,19.17 z M 39.38,18.98 C 39.57,19.27 39.6,18.48 39.38,18.98 L 39.38,18.98 z M 39.98,18.62 C 40.48,18.38 39.74,18.22 40.39,17.98 C 40.77,17.94 40.49,18.58 40.03,18.65 L 39.98,18.62 L 39.98,18.62 z M 21.45,33.69 C 21.61,33.34 22.19,33.3 21.74,33.67 C 22.46,32.96 21.84,34.34 21.64,34.1 C 22.09,33.57 21.01,34.31 21.45,33.69 z M 23.03,33.14 C 22.43,33.87 22.42,33.08 22.49,32.93 C 23.1,32.29 22.88,32.89 22.81,33.16 C 22.91,33.12 23.08,32.97 23.03,33.14 z M 23.16,32.36 C 23.32,32.01 23.9,31.97 23.45,32.34 C 24.17,31.63 23.55,33.01 23.35,32.77 C 23.8,32.24 22.72,32.98 23.16,32.36 z M 24.66,31.34 C 24.24,31.49 24.33,31.85 24.6,31.62 C 24.58,32.32 23.24,32.38 24.19,31.56 C 24.35,31.38 24.6,31.24 24.66,31.34 z M 24.23,31.98 C 24.44,32.26 24.45,31.47 24.23,31.98 L 24.23,31.98 z M 24.8,31.42 C 24.86,30.58 26.2,30.85 25.12,31.52 C 24.92,31.63 24.78,31.58 24.8,31.42 z M 25.06,31.22 C 25.25,31.52 25.19,30.7 25.06,31.22 L 25.06,31.22 z M 26.08,30.08 C 26.44,29.79 26.79,29.92 26.92,29.44 C 27.41,29.08 27.06,30.22 26.89,29.79 C 27.04,30.17 26.3,30.25 26.34,30.39 C 26.21,30.97 26.02,30.2 26.08,30.08 z M 27.93,29.22 C 27.1,30.3 27.47,28.56 28.03,28.77 C 28.18,28.78 28.36,29.25 27.93,29.22 z M 27.85,29.13 C 28.01,28.73 27.47,29.45 27.85,29.13 z M 28.29,28.36 C 29.16,27.18 29.23,28.83 28.4,28.84 C 28.22,28.82 28.41,28.45 28.29,28.36 z M 28.59,28.28 C 28.29,29.05 29.37,27.73 28.59,28.28 z M 29.28,27.59 C 29.43,27.3 30.12,27.04 29.72,27.45 C 30.15,27.14 29.59,27.94 29.95,27.71 C 29.47,28.33 29.05,28.08 29.28,27.6 L 29.28,27.59 z M 30.65,26.53 C 31.39,25.85 30.73,27.46 30.69,26.79 C 30.68,26.71 30.66,26.62 30.65,26.53 z M 31.13,26.15 C 31.52,26.09 32.38,25.16 32.04,25.95 C 31.8,26.57 31.46,26.11 31.41,26.53 C 31.12,26.97 31.17,26.22 31.13,26.15 z M 33.14,25.03 C 33.6,24.27 33.62,25.33 33.01,25.4 C 32.24,25.99 33.03,24.35 33.22,24.66 C 32.89,24.78 33.04,25.23 33.14,25.03 z M 33.69,24.16 C 33.84,23.87 34.53,23.61 34.13,24.02 C 34.56,23.71 34,24.5 34.36,24.27 C 33.88,24.9 33.46,24.64 33.69,24.17 L 33.69,24.16 z M 34.71,24.06 C 34.06,23.98 35.63,22.34 35.48,23.28 C 35.32,23.73 34.91,23.51 34.9,23.93 C 34.84,24.01 34.76,24.05 34.71,24.06 z M 34.94,23.47 C 35.53,23.19 34.86,23.18 34.94,23.47 z M 35.61,22.67 C 35.97,22.38 36.32,22.51 36.45,22.03 C 36.94,21.67 36.58,22.81 36.42,22.37 C 36.57,22.75 35.83,22.83 35.87,22.98 C 35.74,23.56 35.55,22.79 35.61,22.67 z M 37.46,21.81 C 36.63,22.89 36.99,21.15 37.56,21.36 C 37.71,21.37 37.89,21.83 37.46,21.81 z M 37.38,21.72 C 37.54,21.32 37,22.03 37.38,21.72 z M 37.82,20.95 C 38.21,20.89 39.06,19.96 38.73,20.75 C 38.48,21.37 38.14,20.91 38.1,21.33 C 37.8,21.78 37.85,21.02 37.82,20.95 z M 38.79,20.2 C 39.22,19.91 40.04,19.37 39.46,20.22 C 39.12,20.8 39.1,19.98 38.79,20.2 z" id="text3611" style="fill:#031922;fill-opacity:0.47;stroke:none;display:inline"/>
<path d="M 19.19,36.65 C 19.19,36.65 19.26,35.02 19.24,34.24 C 19.22,33.47 19.29,32.89 19.22,32.26" id="p3513" style="fill:none;fill-rule:evenodd;stroke:#352511;stroke-width:0.30;stroke-linecap:round;stroke-linejoin:miter;stroke-miterlimit:4;stroke-dasharray:none;stroke-opacity:0.48;display:inline"/>
<path d="M 3.41,28.42 C 3.31,29.1 3.81,32.63 3.88,32.77 C 3.95,32.92 8.42,37.05 9.28,37.74 C 10.14,38.42 13.17,41.05 13.35,41.05 C 13.53,41.05 18.82,36.66 18.96,36.66 C 19.11,36.66 19.18,36.87 19.25,36.84 C 19.32,36.8 28.86,29.35 30.05,28.45 C 31.23,27.55 41.78,19.2 42.21,18.84 C 42.64,18.48 42.82,18.23 42.82,18.23 C 42.82,18.23 43.33,14.24 43.15,14.02 C 42.97,13.81 37.64,9.77 37.03,9.31 C 36.42,8.84 32.82,6.36 32.64,6.36 C 32.46,6.36 26.77,10.78 25.37,11.83 C 23.96,12.87 9.28,23.74 9.28,23.74 C 9.28,23.74 9.35,23.88 9.06,24.06 C 8.78,24.24 3.52,28.16 3.41,28.42 z" id="stroke01" style="fill:none;fill-opacity:1;fill-rule:evenodd;stroke:#131310;stroke-width:0.5;stroke-linecap:butt;stroke-linejoin:round;stroke-miterlimit:4;stroke-dasharray:none;stroke-opacity:1"/>
</g>
</svg>
