<?xml version="1.0" encoding="UTF-8" standalone="no"?>
<!DOCTYPE svg PUBLIC "-//W3C//DTD SVG 1.0//EN" "http://www.w3.org/TR/2001/REC-SVG-20010904/DTD/svg10.dtd">
<svg xmlns:svg="http://www.w3.org/2000/svg" xmlns="http://www.w3.org/2000/svg" version="1.0" width="100%" height="100%" viewBox="0 0 48 48" id="_eraser02">
<defs id="defs2385"/>
<g id="eraser02" style="display:inline">
<path d="M 44.21,11.05 C 45.38,12.01 44.90,13.39 44.56,14.15 C 44.21,14.91 42.35,18.63 41.87,19.04 C 41.39,19.46 31.80,26.83 29.67,28.42 C 27.53,30 13.81,40.76 13.26,40.76 C 12.71,40.76 10.99,40.62 9.75,39.65 C 8.51,38.69 3.61,34.35 3.20,33.52 C 2.79,32.69 2.79,32.07 3.27,31.04 C 3.75,30 4.30,27.87 5.54,26.42 C 6.78,24.97 17.19,18.42 22.29,15.05 C 27.39,11.67 33.46,7.81 34.01,7.6 C 34.56,7.4 35.25,7.19 36.15,7.46 C 37.04,7.74 43.52,10.5 44.21,11.05 z" id="p2618" style="fill:#de5533;fill-opacity:1;fill-rule:evenodd;stroke:none"/>
<path d="M 44.96,12.5 C 44.99,13.12 44.74,13.73 44.55,14.15 C 44.21,14.91 42.35,18.64 41.86,19.06 C 41.38,19.47 31.81,26.85 29.68,28.43 C 27.54,30.02 13.82,40.75 13.27,40.75 C 13.12,40.75 12.85,40.72 12.55,40.68 C 13.62,38.92 14.32,36.44 14.96,35.59 C 15.77,34.51 29.54,24.08 32.77,21.65 C 35.31,19.75 41.77,14.17 44.96,12.5 z" id="p3425" style="fill:#3d0902;fill-opacity:0.25;fill-rule:evenodd;stroke:none;display:inline"/>
<path d="M 35.52,7.34 C 35.72,7.35 35.92,7.39 36.15,7.46 C 37.04,7.74 43.52,10.51 44.21,11.06 C 45.38,12.02 44.90,13.39 44.55,14.15 C 44.21,14.91 42.35,18.64 41.86,19.06 C 41.57,19.31 38.26,21.87 34.96,24.4 C 35.02,22.24 34.85,19.95 34.55,19.46 C 34.14,18.77 34.09,18.62 33.33,18.28 C 32.77,18.02 27.64,15.1 24.46,13.65 C 28.95,10.71 33.55,7.77 34.02,7.59 C 34.43,7.43 34.92,7.29 35.52,7.34 z" id="p3394" style="fill:#678aa6;fill-opacity:1;fill-rule:evenodd;stroke:none;display:inline"/>
<path d="M 35.52,7.34 C 35.58,7.34 35.65,7.36 35.71,7.37 C 35.82,7.53 36.56,7.81 36.58,7.65 C 38.11,8.22 43.57,10.55 44.21,11.06 C 45.38,12.02 44.90,13.39 44.55,14.15 C 44.49,14.3 44.21,14.8 44.05,15.12 C 43.92,14.96 43.72,14.76 43.30,14.53 C 43.12,15.16 43.53,15.47 43.86,15.53 C 43.62,16.02 43.47,16.32 43.18,16.87 C 43.16,16.72 42.98,16.49 42.55,16.18 L 42.24,15.9 L 41.90,15.71 C 40.55,16.72 42.74,17.39 43.11,17.03 C 42.60,17.98 42.08,18.87 41.86,19.06 C 41.73,19.17 39.99,20.52 38.77,21.46 C 38.70,21.44 38.64,21.42 38.55,21.4 C 38.45,21.56 38.41,21.67 38.36,21.78 C 38.30,21.83 38.28,21.85 38.21,21.9 C 38.21,21.87 38.14,21.83 37.99,21.84 C 37.80,22.04 37.96,22.05 38.08,22 C 34.95,24.42 31.08,27.4 29.68,28.43 C 29.59,28.49 29.11,28.87 28.99,28.96 C 28.82,28.99 28.77,29.05 28.80,29.12 C 28.66,29.23 28.20,29.58 28.02,29.71 C 27.92,29.69 27.81,29.64 27.61,29.65 C 27.48,29.89 27.41,30.06 27.40,30.18 C 27.25,30.29 27.02,30.47 26.86,30.59 C 26.81,30.59 26.77,30.58 26.71,30.59 C 26.69,30.65 26.69,30.69 26.68,30.75 C 26.39,30.97 26.04,31.21 25.71,31.46 C 25.66,31.44 25.62,31.43 25.55,31.4 C 25.51,31.49 25.49,31.56 25.49,31.62 C 25.37,31.71 25.30,31.81 25.18,31.9 C 25.14,31.77 24.96,31.67 24.52,31.65 C 24.26,32.13 24.30,32.36 24.43,32.43 C 24.06,32.72 23.88,32.88 23.49,33.18 C 23.37,33.02 23.12,32.77 22.65,32.5 C 22.92,32.91 23.16,33.15 23.33,33.28 C 23.22,33.37 23.17,33.4 23.05,33.5 C 22.47,33.13 21.80,32.99 21.18,33.21 C 20.45,33.5 20.01,32.53 19.83,32 C 19.19,33.17 19.45,34.59 20.18,35.71 C 19.85,35.97 19.59,36.16 19.27,36.4 C 18.57,36.03 17.88,35.64 17.49,34.9 C 16.63,35.67 16.98,36.77 17.71,37.59 C 15.40,39.33 13.46,40.75 13.27,40.75 C 13.23,40.75 13.14,40.75 13.08,40.75 C 13.14,40.56 13.18,40.3 13.15,39.87 C 12.99,39.25 12.66,38.67 12.21,38.21 C 11.47,38.77 11.88,40.04 12.36,40.65 C 11.71,40.56 10.90,40.36 10.15,39.9 C 9.79,38.56 9.42,37.21 9.18,35.84 C 9.09,37.02 9.19,38.19 9.40,39.34 C 8.65,38.73 7.37,37.62 6.08,36.43 C 5.87,33.21 5.89,29.96 6.21,26.75 C 5.43,29.59 4.83,32.7 5.24,35.65 C 4.73,35.17 4.25,34.71 3.90,34.34 C 3.96,34.24 3.99,33.86 3.96,33.09 C 3.88,32.56 3.74,32.05 3.55,31.56 C 3.30,32.27 3.54,33.72 3.74,34.18 C 3.48,33.9 3.27,33.66 3.21,33.53 C 2.80,32.7 2.79,32.06 3.27,31.03 C 3.43,30.68 3.60,30.19 3.80,29.65 C 3.96,30.42 4.22,31.18 4.55,31.9 C 4.74,30.19 5.48,28.32 5.46,26.56 C 5.49,26.52 5.52,26.47 5.55,26.43 C 5.88,26.05 6.87,25.28 8.21,24.34 C 8.38,24.38 8.52,24.35 8.65,24.25 C 8.60,24.2 8.56,24.16 8.52,24.12 C 8.70,23.99 8.95,23.85 9.15,23.71 C 9.45,23.71 9.73,23.53 9.99,23.18 C 9.98,23.17 9.97,23.16 9.96,23.15 C 12.33,21.54 14.84,19.91 17.55,18.15 C 17.61,18.11 17.65,18.06 17.71,18.03 C 18.83,17.3 20.04,16.56 20.99,15.93 C 21.38,17.42 23.98,19.25 24.49,16.56 C 24.80,15.73 24.17,14.6 23.33,14.4 C 23.68,14.17 23.99,13.97 24.33,13.75 C 24.34,13.74 24.36,13.75 24.36,13.75 C 24.60,13.86 24.86,13.6 24.93,13.34 C 29.26,10.51 33.57,7.76 34.02,7.59 C 34.43,7.43 34.92,7.29 35.52,7.34 z M 34.15,7.87 C 34.12,7.9 34.29,8.16 34.24,7.93 C 34.17,7.87 34.15,7.86 34.15,7.87 z M 36.40,8.68 C 34.09,10.67 40.32,11.07 37.80,9.06 C 37.36,8.83 36.89,8.68 36.40,8.68 z M 40.74,9.71 C 41.01,10.06 41.34,10.33 41.43,10.37 C 41.40,10.32 41.22,10.11 40.74,9.71 z M 33.15,10.06 C 30.95,10.89 35.43,13.18 33.52,10.87 L 33.30,10.46 L 33.15,10.06 z M 39.08,11.12 C 36.82,11.72 40.04,13.09 39.08,11.12 z M 41.58,11.53 C 41.91,12.56 43.23,12.84 41.90,11.78 L 41.58,11.53 z M 40.33,11.65 C 38.79,12.6 42.17,13.21 40.33,11.65 z M 36.96,11.87 C 35.43,11.99 36.48,12.81 36.96,12.71 C 36.88,13.02 38.24,13.65 37.65,12.59 C 37.41,12.57 37.23,12.56 37.11,12.59 C 37.19,12.47 37.17,12.25 36.96,11.87 z M 37.11,12.59 C 37.08,12.65 37.03,12.7 36.96,12.71 C 36.97,12.66 37.00,12.61 37.11,12.59 z M 29.05,11.9 C 27.62,13.36 30.67,13.03 29.05,11.9 z M 31.52,12.09 C 29.57,12.2 32.49,16.58 32.02,13.56 C 31.90,13.09 31.85,12.59 31.99,12.12 C 31.81,12.09 31.65,12.08 31.52,12.09 z M 32.71,12.28 C 31.33,13.42 34.78,14.55 32.93,12.71 C 32.85,12.57 32.79,12.42 32.71,12.28 z M 44.33,12.68 C 44.53,12.74 44.71,12.81 44.90,12.9 C 44.74,12.78 44.57,12.69 44.33,12.68 z M 28.15,13 C 26.95,14.75 29.93,13.74 28.15,13 z M 29.83,13.43 C 29.07,14.08 30.72,13.78 29.83,13.43 z M 38.90,13.65 C 37.20,14.02 40.09,15.36 38.90,13.68 L 38.90,13.65 z M 41.65,13.9 C 41.37,14.59 42.38,14.47 41.65,13.9 z M 26.71,13.9 C 26.67,13.89 26.59,13.91 26.49,13.93 C 26.03,14.58 27.00,13.95 26.71,13.9 z M 39.58,14.15 C 37.19,15.58 42.69,17 40.58,14.78 C 40.30,14.5 39.95,14.3 39.58,14.15 z M 35.96,14.37 C 35.43,14.67 36.52,14.52 35.96,14.37 z M 30.40,14.59 C 29.35,16.45 32.34,15.63 30.40,14.59 z M 25.68,14.84 C 25.10,15.58 26.61,14.83 25.68,14.84 z M 27.61,14.87 C 27.57,14.83 27.47,14.86 27.27,15 C 27.35,15.6 27.75,14.98 27.61,14.87 z M 34.99,15.03 C 34.65,14.96 35.44,15.71 35.21,15.12 C 35.11,15.07 35.04,15.04 34.99,15.03 z M 36.93,15.25 C 35.99,16.83 39.69,19.99 38.52,16.75 C 38.14,16.11 37.60,15.57 36.93,15.25 z M 28.18,15.37 C 26.94,16.75 29.90,15.45 28.18,15.37 z M 36.27,15.53 C 36.09,17.16 37.14,16.71 36.27,15.53 z M 33.77,15.84 C 33.76,15.81 33.69,15.84 33.55,15.93 C 33.38,16.37 33.80,15.92 33.77,15.84 z M 35.46,15.96 C 35.26,16.55 36.14,16.14 35.46,15.96 z M 29.27,16.34 C 28.16,17.79 31.02,16.39 29.27,16.34 z M 34.68,16.37 C 33.41,17.9 36.64,17.18 34.68,16.37 z M 25.77,16.68 C 23.41,16.65 26.29,18.91 25.77,16.68 z M 26.21,16.96 C 25.93,16.95 26.52,17.52 26.40,17.03 C 26.32,17 26.25,16.97 26.21,16.96 z M 33.33,17.09 C 32.22,18.59 35.21,17.25 33.33,17.09 z M 19.55,17.09 C 19.47,17.09 19.36,17.09 19.21,17.15 C 18.98,18.29 20.10,17.1 19.55,17.09 z M 39.65,17.37 C 37.22,18.9 42.90,20.31 40.61,17.96 C 40.30,17.75 39.96,17.59 39.65,17.37 z M 21.11,17.37 C 20.95,17.37 20.76,17.4 20.49,17.5 C 21.11,19.4 22.26,17.39 21.11,17.37 z M 26.96,17.65 C 25.28,18.21 28.35,18.37 26.96,17.65 z M 18.55,18.09 C 18.10,18.27 18.95,18.2 18.55,18.09 z M 20.05,18.18 C 19.93,18.13 19.70,18.18 19.36,18.37 C 19.43,20.21 20.59,18.39 20.05,18.18 z M 23.46,18.31 C 21.82,18.6 24.43,18.41 23.46,18.31 z M 24.24,18.78 C 23.54,18.85 24.86,20.75 25.08,19.09 C 24.67,18.85 24.40,18.76 24.24,18.78 z M 27.90,18.87 C 27.89,18.85 27.84,18.86 27.74,18.93 C 27.73,18.98 27.74,19.01 27.74,19.03 C 27.79,19 27.92,18.9 27.90,18.87 z M 29.93,18.93 C 29.88,18.93 29.81,18.96 29.71,19 C 29.61,19.78 30.29,18.95 29.93,18.93 z M 38.02,19.09 C 37.96,19.1 37.99,19.58 38.11,19.28 C 38.07,19.13 38.04,19.08 38.02,19.09 z M 26.05,19.12 C 24.13,19.21 27.07,20.42 26.05,19.12 z M 15.99,19.25 C 16.07,20.11 17.06,19.42 15.99,19.25 z M 22.21,19.68 C 22.11,19.68 21.99,19.7 21.86,19.71 C 21.78,21.68 23.65,19.71 22.21,19.68 z M 31.96,20.34 C 31.90,20.34 31.82,20.35 31.71,20.4 C 31.73,21.19 32.38,20.31 31.96,20.34 z M 28.43,20.43 C 25.88,21.22 30.88,21.59 28.43,20.43 z M 14.71,20.56 C 13.04,21.66 16.91,21.84 14.71,20.56 z M 21.40,20.75 C 21.32,20.74 21.24,20.75 21.11,20.78 C 21.29,21.58 21.91,20.81 21.40,20.75 z M 16.08,20.78 C 15.80,21.7 17.15,20.71 16.08,20.78 z M 36.43,21.03 C 36.40,21.04 36.35,21.07 36.30,21.12 C 36.19,21.74 36.60,20.96 36.43,21.03 z M 31.15,21.09 C 31.12,21.08 31.06,21.07 30.99,21.09 C 30.81,21.53 31.36,21.12 31.15,21.09 z M 24.71,21.34 C 23.92,21.68 25.39,21.46 24.71,21.34 z M 22.80,21.37 C 22.67,21.39 23.38,22.36 23.27,21.78 C 22.98,21.48 22.85,21.36 22.80,21.37 z M 35.58,21.59 C 35.48,21.58 35.37,21.57 35.24,21.59 C 35.49,23.57 37.13,21.65 35.58,21.59 z M 25.65,21.75 C 24.68,21.97 26.39,21.93 25.65,21.75 z M 15.96,21.9 C 15.44,22.3 16.62,22.28 15.96,21.9 z M 19.11,22 C 19.06,22.04 19.34,22.47 19.30,22.12 C 19.19,22 19.13,21.98 19.11,22 z M 17.15,22.03 C 16.99,22.85 17.73,22.27 17.15,22.03 z M 33.40,22.28 C 31.61,22.11 34.56,23.26 33.40,22.28 z M 28.55,22.43 C 28.52,22.39 28.50,22.42 28.46,22.59 C 28.65,23.25 28.64,22.55 28.55,22.43 z M 16.58,22.62 C 14.69,23.93 18.15,23.84 16.58,22.62 z M 27.43,22.65 C 26.48,22.86 28.97,22.88 27.43,22.65 z M 25.77,22.75 C 25.67,22.73 25.56,22.73 25.40,22.75 C 25.72,23.6 26.45,22.85 25.77,22.75 z M 12.21,22.96 C 9.60,24.04 15.07,26.32 13.02,23.84 C 12.75,23.55 12.48,23.25 12.21,22.96 z M 30.52,23.28 C 29.13,24.16 32.10,23.64 30.52,23.28 z M 32.33,23.37 C 31.57,25.02 34.66,23.43 32.40,23.4 L 32.33,23.37 z M 21.96,23.56 C 21.85,23.54 21.71,23.55 21.49,23.59 C 21.03,25.02 22.70,23.69 21.96,23.56 z M 20.33,23.65 C 19.48,25.61 22.36,23.89 20.33,23.65 z M 35.18,23.93 C 35.17,23.91 35.11,23.91 34.93,24 C 34.72,24.4 35.21,24.01 35.18,23.93 z M 17.52,24.25 C 16.57,24.14 18.31,25.74 18.11,24.4 C 17.86,24.3 17.66,24.26 17.52,24.25 z M 26.58,24.59 C 26.50,24.59 26.42,24.62 26.30,24.65 C 25.39,26.51 27.79,24.5 26.58,24.59 z M 25.43,24.84 C 25.41,24.8 25.34,24.82 25.18,24.93 C 25.10,25.53 25.49,24.96 25.43,24.84 z M 22.80,25.12 C 22.74,25.23 23.64,26.22 23.27,25.4 C 22.96,25.15 22.82,25.08 22.80,25.12 z M 8.02,25.34 C 7.72,27.04 10.32,26.39 8.02,25.34 z M 28.30,25.37 C 26.25,27.77 32.86,27.2 29.93,25.59 C 29.39,25.53 28.83,25.51 28.30,25.37 z M 34.21,25.59 C 33.73,25.86 33.92,25.75 34.21,25.59 z M 11.90,25.59 C 11.01,27.51 13.82,26.43 11.90,25.59 z M 24.15,25.68 C 23.29,27.08 26.05,26.38 24.15,25.68 z M 21.58,25.81 C 21.14,27.83 23.58,26.37 21.58,25.81 z M 18.90,25.87 C 18.16,25.83 20.44,27.39 19.43,26 C 19.18,25.91 19.00,25.88 18.90,25.87 z M 7.15,26.03 C 7.05,26.01 6.91,26.01 6.71,26.06 C 6.31,27.47 7.85,26.14 7.15,26.03 z M 14.93,26.62 C 13.04,27.78 16.24,28.33 14.93,26.62 z M 15.65,26.75 C 14.23,28.69 17.65,27.9 15.65,26.75 z M 27.27,27 C 27.19,27 27.09,27.04 26.96,27.09 C 27.06,28.01 27.81,26.98 27.27,27 z M 18.68,27.28 C 18.58,27.27 18.46,27.27 18.33,27.28 C 18.07,29.16 20.11,27.39 18.68,27.28 z M 8.15,27.62 C 6.19,29.03 11.20,30.46 8.77,28.28 C 8.56,28.06 8.35,27.85 8.15,27.62 z M 19.77,27.71 C 17.53,29.71 23.71,30.29 21.18,28.25 C 20.77,27.96 20.28,27.74 19.77,27.71 z M 28.96,28.06 C 28.44,27.93 28.72,29.13 29.24,28.21 C 29.13,28.13 29.03,28.08 28.96,28.06 z M 13.65,28.06 C 12.85,29.39 15.56,29.35 13.65,28.06 z M 11.02,28.09 C 10.48,28.92 11.97,28.18 11.02,28.09 z M 16.83,28.28 C 13.71,28.7 19.04,32.57 17.74,29.4 C 17.44,29.03 17.13,28.66 16.83,28.28 z M 23.55,28.34 C 22.63,30.42 25.64,29.14 23.55,28.34 z M 24.61,28.4 C 24.30,29.28 25.70,28.69 24.61,28.4 z M 6.90,28.4 C 6.92,29.67 5.59,32 7.52,32.4 C 7.75,31.05 7.66,29.58 6.90,28.4 z M 26.58,28.53 C 25.69,29.92 28.11,28.49 26.58,28.53 z M 10.74,29.25 C 10.56,30.23 11.81,29.27 10.74,29.25 z M 12.83,29.75 C 12.98,31.66 14.69,29.72 12.83,29.75 z M 26.02,30.31 C 25.05,30.77 26.85,30.49 26.02,30.31 z M 10.68,30.37 C 10.64,30.36 10.59,30.36 10.49,30.37 C 9.86,30.92 10.91,30.44 10.68,30.37 z M 12.15,30.43 C 11.40,30.61 12.71,30.62 12.15,30.43 z M 24.93,30.78 C 24.92,30.76 24.87,30.76 24.77,30.81 C 24.69,31.02 24.96,30.82 24.93,30.78 z M 15.71,30.93 C 15.23,31.83 16.68,30.94 15.71,30.93 z M 23.15,31.18 C 21.97,32.8 25.38,31.98 23.15,31.18 z M 19.18,31.18 C 18.22,31.47 19.93,31.37 19.18,31.18 z M 12.77,31.31 C 12.82,33.49 15.05,31.52 12.77,31.31 z M 11.18,31.4 C 8.33,31.03 12.21,35.64 11.52,32.25 C 11.49,31.95 11.39,31.63 11.18,31.4 z M 17.74,32.09 C 17.22,31.89 18.14,33.33 18.05,32.28 C 17.91,32.17 17.81,32.12 17.74,32.09 z M 12.21,32.84 C 10.79,34.26 12.89,39.57 14.46,36.84 C 14.39,35.23 13.14,34.03 12.21,32.84 z M 15.11,32.93 C 14.20,34.6 16.73,33.9 15.11,32.93 z M 8.61,33 C 8.10,33.75 9.06,33.4 8.61,33 z M 17.43,33.34 C 17.40,33.33 17.35,33.33 17.27,33.34 C 16.71,33.78 17.60,33.39 17.43,33.34 z M 13.61,33.53 C 13.69,34.57 14.25,33.62 13.61,33.53 z M 9.68,33.71 C 9.68,35.14 9.73,39.79 11.58,38.43 C 11.50,36.69 10.70,35.09 9.68,33.71 z M 16.52,33.87 C 16.43,33.86 16.33,33.87 16.21,33.87 C 15.44,35.82 17.86,34.06 16.52,33.87 z M 18.08,34.09 C 18.07,34.06 18.02,34.06 17.90,34.12 C 17.83,34.54 18.14,34.19 18.08,34.09 z M 7.61,34.12 C 6.18,34.8 8.01,37.53 7.58,35 C 7.59,34.71 7.61,34.41 7.61,34.12 z M 15.15,35.12 C 14.65,37.09 17.06,35.31 15.15,35.12 z M 15.15,36.62 C 14.02,37.92 16.75,36.97 15.15,36.62 z M 16.83,36.71 C 16.77,36.7 16.67,36.7 16.55,36.71 C 16.33,37.46 17.25,36.83 16.83,36.71 z" id="p3444" style="fill:#300700;fill-opacity:0.02;fill-rule:evenodd;stroke:none"/>
<path d="M 5.18,26.93 C 5.73,27.01 6.30,27.2 6.80,27.59 C 7.97,28.49 12.20,32.36 12.74,32.9 C 13.28,33.44 13.37,33.46 14.08,34 C 14.89,35.88 13.99,37.21 13.27,38.56 C 12.95,39.16 12.43,39.92 11.80,40.56 C 11.80,40.56 11.78,40.55 11.77,40.56 C 11.12,40.4 10.36,40.13 9.74,39.65 C 8.50,38.69 3.62,34.35 3.21,33.53 C 2.80,32.7 2.79,32.06 3.27,31.03 C 3.70,30.11 4.20,28.34 5.18,26.93 z" id="p3413" style="fill:#f7a341;fill-opacity:0.2;fill-rule:evenodd;stroke:none;display:inline"/>
<path d="M 44.30,14.65 C 44.10,15.07 43.82,15.61 43.46,16.31 C 42.09,17.34 35.82,22.09 29.18,27.09 C 25.70,29.7 22.27,32.27 19.68,34.21 C 18.32,35.23 16.78,36.49 15.58,37.25 C 14.40,37.99 13.74,39.02 12.27,37.87 C 10.80,36.72 6.49,33.47 3.33,30.87 C 3.51,30.46 3.70,29.93 3.93,29.34 C 3.96,29.36 3.99,29.41 4.02,29.43 C 7.15,32.06 10.59,34.47 13.80,37 C 14.18,37.26 14.45,37.05 14.80,36.84 C 16.25,35.75 17.72,34.67 19.18,33.59 C 21.77,31.65 25.20,29.05 28.68,26.43 C 35.62,21.21 42.71,15.9 43.61,15.21 C 43.62,15.21 43.64,15.18 43.65,15.18 C 43.65,15.18 43.64,15.16 43.65,15.15 C 43.68,15.12 43.73,15.09 43.77,15.06 C 43.85,14.99 43.94,14.93 44.05,14.84 C 44.12,14.78 44.22,14.71 44.30,14.65 z" id="p3396" style="fill:#ede3c3;fill-opacity:0.87;fill-rule:evenodd;stroke:none;display:inline"/>
<path d="M 5.93,26.09 C 6.17,26.72 6.29,27.49 6.65,27.96 C 7.19,28.68 13.71,32.89 14.52,33.43 C 15.33,33.97 15.35,34.53 15.61,35.34 C 15.80,35.89 15.04,37.94 13.93,40.4 C 13.58,40.63 13.33,40.75 13.27,40.75 C 12.72,40.75 10.98,40.62 9.74,39.65 C 8.50,38.69 3.62,34.35 3.21,33.53 C 2.80,32.7 2.79,32.06 3.27,31.03 C 3.75,29.99 4.31,27.88 5.55,26.43 C 5.62,26.35 5.81,26.2 5.93,26.09 z" id="p3416" style="fill:#f7c941;fill-opacity:0.15;fill-rule:evenodd;stroke:none;display:inline"/>
<path d="M 44.90,12.15 C 45.05,12.89 44.78,13.66 44.55,14.15 C 44.21,14.91 42.35,18.64 41.86,19.06 C 41.38,19.47 31.81,26.85 29.68,28.43 C 27.54,30.02 13.82,40.75 13.27,40.75 C 13.12,40.75 12.85,40.72 12.55,40.68 C 13.17,38.37 14.12,35.11 14.71,34.59 C 15.43,33.96 35.20,18.6 37.08,17.43 C 38.64,16.47 43.02,12.95 44.90,12.15 z" id="p3431" style="fill:#1d0400;fill-opacity:0.18;fill-rule:evenodd;stroke:none;display:inline"/>
<path d="M 44.90,12.15 C 45.05,12.89 44.78,13.66 44.55,14.15 C 44.21,14.91 42.35,18.64 41.86,19.06 C 41.57,19.31 38.26,21.87 34.96,24.4 C 35.02,22.24 34.85,19.95 34.55,19.46 C 34.52,19.42 34.52,19.38 34.49,19.34 C 35.74,18.4 36.75,17.64 37.08,17.43 C 38.64,16.47 43.02,12.95 44.90,12.15 z" id="p3428" style="fill:#000e30;fill-opacity:0.12;fill-rule:evenodd;stroke:none;display:inline"/>
<path d="M 44.21,11.05 C 45.38,12.01 44.90,13.39 44.56,14.15 C 44.21,14.91 42.35,18.63 41.87,19.04 C 41.39,19.46 31.80,26.83 29.67,28.42 C 27.53,30 13.81,40.76 13.26,40.76 C 12.71,40.76 10.99,40.62 9.75,39.65 C 8.51,38.69 3.61,34.35 3.20,33.52 C 2.79,32.69 2.79,32.07 3.27,31.04 C 3.75,30 4.30,27.87 5.54,26.42 C 6.78,24.97 17.19,18.42 22.29,15.05 C 27.39,11.67 33.46,7.81 34.01,7.6 C 34.56,7.4 35.25,7.19 36.15,7.46 C 37.04,7.74 43.52,10.5 44.21,11.05 z" id="stroke01" style="fill:none;fill-opacity:1;fill-rule:evenodd;stroke:#1c1212;stroke-width:0.5;stroke-linecap:butt;stroke-linejoin:round;stroke-miterlimit:4;stroke-dasharray:none;stroke-opacity:1;display:inline"/>
</g>
</svg>
