<?xml version="1.0" encoding="UTF-8" standalone="no"?>
<!DOCTYPE svg PUBLIC "-//W3C//DTD SVG 1.0//EN" "http://www.w3.org/TR/2001/REC-SVG-20010904/DTD/svg10.dtd">
<svg xmlns:svg="http://www.w3.org/2000/svg" xmlns="http://www.w3.org/2000/svg" version="1.0" width="100%" height="100%" viewBox="0 0 48 48" id="_green02">
<defs id="defs2385"/>
<g id="green02" style="display:inline">
<path d="M 41.81,5.4 C 41.6,5.4 41.38,5.45 41.25,5.59 C 40.97,5.86 39.84,6.96 39.84,6.96 C 39.84,6.96 39.17,7 37.56,7.65 C 35.94,8.3 32.89,11.21 31.28,13.03 C 29.66,14.85 27.43,17.6 27.81,17.87 C 28.19,18.14 29.28,17.4 29.28,17.4 C 29.28,17.4 20.64,25.8 18.03,28.34 C 15.42,30.88 7.46,39.36 6.5,40.5 C 5.53,41.63 5.84,42.31 5.84,42.31 C 5.84,42.31 4.7,43.08 5.13,43.53 C 5.54,43.96 6.43,42.87 6.43,42.87 C 6.43,42.87 7.3,43.13 8.16,42.22 C 9.01,41.33 19.39,32.17 20.59,30.96 C 21.79,29.76 42.9,8.96 43.21,8.62 C 43.52,8.28 43.87,7.97 43.9,7.56 C 43.94,7.15 43.56,6.78 43.56,6.78 C 43.56,6.78 43.88,6.58 43.81,6.34 C 43.74,6.1 43.13,5.5 43,5.5 C 42.86,5.5 42.68,5.81 42.68,5.81 C 42.68,5.81 42.48,5.6 42.31,5.5 C 42.22,5.44 42.02,5.41 41.81,5.4 z M 35.21,11.18 C 35.37,11.2 35.43,11.34 35.43,11.34 L 29.62,17 C 29.52,16.89 29.57,16.7 29.81,16.46 C 30.05,16.22 34.75,11.35 35.03,11.21 C 35.09,11.18 35.16,11.18 35.21,11.18 z" id="p2516" style="fill:#125f2f;fill-opacity:1;fill-rule:evenodd;stroke:none"/>
<path d="M 42.53,5.75 L 18.34,29.21 L 19.51,30.73 L 43.63,7.06 L 42.53,5.75 z" id="p3477" style="fill:#0b190c;fill-opacity:0.41;fill-rule:evenodd;stroke:none;display:inline"/>
<path d="M 18.15,28.21 C 18.12,28.24 18.06,28.31 18.03,28.34 C 15.42,30.88 7.46,39.36 6.5,40.5 C 5.53,41.63 5.84,42.31 5.84,42.31 C 5.84,42.31 4.69,43.08 5.12,43.53 C 5.53,43.96 6.43,42.87 6.43,42.87 C 6.43,42.87 7.29,43.12 8.15,42.21 C 9,41.32 19.39,32.17 20.59,30.96 C 20.59,30.96 20.62,30.93 20.62,30.93 C 19.88,30.09 19.04,29.16 18.15,28.21 z" id="p3474" style="fill:#f8f5ee;fill-opacity:1;fill-rule:evenodd;stroke:none"/>
<path d="M 42.7,6.57 L 43.06,6.95" id="p3485" style="fill:none;fill-rule:evenodd;stroke:#cee5f7;stroke-width:0.40;stroke-linecap:round;stroke-linejoin:miter;stroke-miterlimit:4;stroke-dasharray:none;stroke-opacity:0.62;display:inline"/>
<path d="M 43.66,6.65 L 42.76,5.67" id="p3483" style="fill:none;fill-opacity:0.57;fill-rule:evenodd;stroke:#f1f8ff;stroke-width:0.60;stroke-linecap:butt;stroke-linejoin:miter;stroke-miterlimit:4;stroke-dasharray:none;stroke-opacity:0.62;display:inline"/>
<path d="M 19,29.09 L 9.53,38.31 L 10.43,39.25 L 19.9,30.12 C 19.68,29.87 19.23,29.34 19,29.09 z" id="p3498" style="fill:#2c2c2c;fill-opacity:1;fill-rule:evenodd;stroke:none;display:inline"/>
<path d="M 9.56,38.28 L 7.46,40.31 L 7.56,40.56 L 4.96,43.09 L 5.62,43.68 L 8.12,41.15 L 8.43,41.18 L 10.46,39.21 L 9.56,38.28 z" id="p3508" style="fill:#d8c277;fill-opacity:1;fill-rule:evenodd;stroke:none;display:inline"/>
<path d="M 7.71,40.57 L 17,31.58" id="p3511" style="fill:none;fill-rule:evenodd;stroke:#f2f2ee;stroke-width:0.30;stroke-linecap:round;stroke-linejoin:miter;stroke-miterlimit:4;stroke-dasharray:none;stroke-opacity:0.62;display:inline"/>
<path d="M 17.91,30.81 L 18.98,29.74" id="p3513" style="fill:none;fill-rule:evenodd;stroke:#e1e1e1;stroke-width:0.30;stroke-linecap:round;stroke-linejoin:miter;stroke-miterlimit:4;stroke-dasharray:none;stroke-opacity:0.6;display:inline"/>
<path d="M 8.06,39.75 L 7.84,39.93 L 8.75,40.87 L 8.96,40.65 L 8.06,39.75 z" id="p3529" style="fill:#514632;fill-opacity:0.65;fill-rule:evenodd;stroke:none;display:inline"/>
<path d="M 6.01,42.51 L 7.73,40.83" id="p3539" style="fill:none;fill-rule:evenodd;stroke:#84642b;stroke-width:0.30;stroke-linecap:butt;stroke-linejoin:miter;stroke-miterlimit:4;stroke-dasharray:none;stroke-opacity:0.33;display:inline"/>
<path d="M 7.36,41.62 L 7.77,41.2" id="p3542" style="fill:none;fill-rule:evenodd;stroke:#f3f3f3;stroke-width:0.30;stroke-linecap:round;stroke-linejoin:miter;stroke-miterlimit:4;stroke-dasharray:none;stroke-opacity:0.7"/>
<path d="M 40.14,8.59 L 42.13,6.56" id="p3546" style="fill:none;fill-rule:evenodd;stroke:#f5f5f5;stroke-width:0.30;stroke-linecap:round;stroke-linejoin:miter;stroke-miterlimit:4;stroke-dasharray:none;stroke-opacity:0.28;display:inline"/>
<path d="M 19.25,29.23 L 38.25,10.48" id="p3544" style="fill:none;fill-rule:evenodd;stroke:#f5f5f5;stroke-width:0.30;stroke-linecap:round;stroke-linejoin:miter;stroke-miterlimit:4;stroke-dasharray:none;stroke-opacity:0.37;display:inline"/>
<path d="M 38.16,9.61 C 38.08,9.91 38.69,10.42 38.87,10.42 C 39.05,10.42 40.09,9.38 40.09,9.22 C 40.09,9.07 39.63,8.66 39.45,8.66 C 39.27,8.66 38.64,8.97 38.16,9.61 z" id="p3550" style="fill:#b8b4ab;fill-opacity:0.86;fill-rule:evenodd;stroke:none;display:inline"/>
<path d="M 35.5,10.5 C 35.36,10.49 35.19,10.51 35.03,10.56 C 34.39,10.76 29.18,16.42 29.15,16.65 C 29.13,16.88 29.35,16.81 29.4,17.21 L 29.62,16.96 C 29.54,16.86 29.58,16.69 29.81,16.46 C 30.05,16.22 34.75,11.35 35.03,11.21 C 35.09,11.18 35.16,11.18 35.21,11.18 C 35.37,11.2 35.43,11.34 35.43,11.34 L 36.18,10.69 C 36.18,10.69 35.91,10.52 35.5,10.5 z" id="p3553" style="fill:#0d0b0b;fill-opacity:0.31;fill-rule:evenodd;stroke:none;display:inline"/>
<path d="M 38.31,8.34 C 38.17,8.34 37.94,8.4 37.62,8.62 C 36.98,9.05 36.85,9.6 36.34,9.81 L 35.15,10.18 C 35.02,10.21 34.89,10.3 34.78,10.34 C 34.65,10.38 34.54,10.51 34.37,10.65 C 34.2,10.8 33.99,10.98 33.75,11.21 C 33.26,11.68 32.64,12.31 32,13 C 30.79,14.28 29.49,15.74 28.62,16.81 C 28.47,16.82 28.39,16.83 28.25,16.84 C 27.91,17.35 27.68,17.78 27.81,17.87 C 28.19,18.14 29.28,17.4 29.28,17.4 L 29.93,16.78 C 29.93,16.78 29.85,16.78 29.84,16.78 L 29.62,17 C 29.57,16.94 29.56,16.87 29.59,16.78 C 29.55,16.78 29.58,16.77 29.53,16.78 C 29.44,16.78 29.19,16.8 29.03,16.81 C 29.89,15.77 31.08,14.43 32.21,13.21 C 32.85,12.53 33.45,11.9 33.93,11.43 C 34.17,11.2 34.39,11.01 34.56,10.87 C 34.72,10.73 34.85,10.66 34.87,10.65 C 35.32,10.39 35.8,10.48 36.15,10.64 L 38.5,8.4 C 38.5,8.4 38.44,8.34 38.31,8.34 z M 29.28,17.4 C 29.28,17.4 29.09,17.55 29.09,17.56 L 29.18,17.53 L 29.28,17.4 z" id="p3556" style="fill:#a4a492;fill-opacity:0.37;fill-rule:evenodd;stroke:none;display:inline"/>
<path d="M 36.14,10.29 L 37.79,8.76" id="p3579" style="fill:none;fill-rule:evenodd;stroke:#e9e9e9;stroke-width:0.40;stroke-linecap:round;stroke-linejoin:miter;stroke-miterlimit:4;stroke-dasharray:none;stroke-opacity:0.12;display:inline"/>
<path d="M 38.19,9.56 C 38.03,10.01 38.69,10.42 38.87,10.42 C 39.05,10.42 40.09,9.38 40.09,9.22 C 40.09,9.07 39.63,8.66 39.45,8.66 C 39.27,8.66 38.34,9.13 38.19,9.56 z" id="p3582" style="fill:none;fill-opacity:0.86;fill-rule:evenodd;stroke:#082d0f;stroke-width:0.2;stroke-linecap:butt;stroke-linejoin:miter;stroke-miterlimit:4;stroke-dasharray:none;stroke-opacity:1;display:inline"/>
<path d="M 40.06,9.12 C 39,9.62 38.57,10.14 38.78,10.4 C 38.8,10.41 38.85,10.43 38.87,10.43 C 39.05,10.43 40.09,9.37 40.09,9.21 C 40.09,9.19 40.07,9.15 40.06,9.12 z" id="p3584" style="fill:#0d0d0b;fill-opacity:0.41;fill-rule:evenodd;stroke:none"/>
<path d="M 41.81,5.4 C 41.6,5.4 41.38,5.45 41.25,5.59 C 40.97,5.86 39.84,6.96 39.84,6.96 C 39.84,6.96 39.17,7 37.56,7.65 C 35.94,8.3 32.89,11.21 31.28,13.03 C 29.66,14.85 27.43,17.6 27.81,17.87 C 28.19,18.14 29.28,17.4 29.28,17.4 C 29.28,17.4 20.64,25.8 18.03,28.34 C 15.42,30.88 7.46,39.36 6.5,40.5 C 5.53,41.63 5.84,42.31 5.84,42.31 C 5.84,42.31 4.7,43.08 5.13,43.53 C 5.54,43.96 6.43,42.87 6.43,42.87 C 6.43,42.87 7.3,43.13 8.16,42.22 C 9.01,41.33 19.39,32.17 20.59,30.96 C 21.79,29.76 42.9,8.96 43.21,8.62 C 43.52,8.28 43.87,7.97 43.9,7.56 C 43.94,7.15 43.56,6.78 43.56,6.78 C 43.56,6.78 43.88,6.58 43.81,6.34 C 43.74,6.1 43.13,5.5 43,5.5 C 42.86,5.5 42.68,5.81 42.68,5.81 C 42.68,5.81 42.48,5.6 42.31,5.5 C 42.22,5.44 42.02,5.41 41.81,5.4 z" id="stroke01" style="fill:none;fill-opacity:1;fill-rule:evenodd;stroke:#000000;stroke-width:0.5;stroke-linecap:butt;stroke-linejoin:round;stroke-miterlimit:4;stroke-dasharray:none;stroke-opacity:1"/>
</g>
</svg>
