<?xml version="1.0" encoding="UTF-8" standalone="no"?>
<!DOCTYPE svg PUBLIC "-//W3C//DTD SVG 1.0//EN" "http://www.w3.org/TR/2001/REC-SVG-20010904/DTD/svg10.dtd">
<svg xmlns:svg="http://www.w3.org/2000/svg" xmlns="http://www.w3.org/2000/svg" version="1.0" width="100%" height="100%" viewBox="0 0 48 48" id="_marker01">
<defs id="defs2385"/>
<g id="marker01" style="display:inline">
<path d="M 6.37,7.41 C 6.45,6.15 7.35,5.1 7.67,5.14 C 7.98,5.18 9.58,7.29 9.58,7.29 C 9.58,7.29 10.17,7.09 10.52,7.33 C 10.88,7.56 12.38,9.22 13.15,10.03 C 13.93,10.86 14.19,10.99 16.09,11.48 C 17.37,11.82 18.78,12.79 19.84,13.83 C 21.95,15.9 40.75,36.95 41.17,37.31 C 41.95,37.98 39.37,40.05 38.16,41.07 C 36.94,42.08 34.87,44.12 34.24,43.49 C 33.62,42.87 14.05,21.3 13.11,20.05 C 12.17,18.8 11.38,17.54 11.23,16.17 C 11.07,14.8 11.23,14.26 10.09,12.97 C 8.96,11.67 7.59,10.23 7.59,9.83 C 7.59,9.44 7.71,9.01 7.71,9.01 L 6.37,7.41 z" id="p2482" style="fill:#89b79b;fill-opacity:0.98;fill-rule:evenodd;stroke:none"/>
<path d="M 7.65,5.15 C 7.34,5.11 6.45,6.15 6.37,7.4 L 7.71,9.03 C 7.71,9.03 7.59,9.45 7.59,9.84 C 7.59,10.23 8.95,11.67 10.09,12.96 C 11.22,14.26 11.06,14.81 11.21,16.18 C 11.25,16.52 11.35,16.85 11.46,17.18 C 12.89,15.33 15.05,13.35 16.96,11.81 C 16.67,11.67 16.38,11.57 16.09,11.5 C 14.2,11 13.94,10.86 13.15,10.03 C 12.38,9.22 10.88,7.57 10.53,7.34 C 10.17,7.1 9.59,7.28 9.59,7.28 C 9.59,7.28 7.96,5.19 7.65,5.15 z" id="p3259" style="fill:#b6b3ac;fill-opacity:1;fill-rule:evenodd;stroke:none"/>
<path d="M 34.18,29.56 C 33.8,30.01 33.31,30.5 32.71,31.06 L 33.03,31.4 C 33.62,30.87 34.14,30.38 34.53,29.96 C 34.34,29.76 34.37,29.76 34.18,29.56 z M 34.96,30.4 C 34.56,30.84 34.04,31.33 33.43,31.87 L 33.93,32.4 C 34.52,31.84 35.01,31.32 35.37,30.87 C 35.17,30.64 35.17,30.63 34.96,30.4 z M 35.78,31.34 C 35.39,31.8 34.9,32.3 34.31,32.87 L 34.87,33.5 C 35.46,32.94 35.97,32.41 36.34,31.96 C 36.09,31.69 36.04,31.63 35.78,31.34 z M 36.78,32.43 C 36.39,32.9 35.87,33.41 35.28,33.96 L 35.96,34.71 C 36.56,34.11 37.03,33.56 37.37,33.09 C 37.14,32.84 37.03,32.71 36.78,32.43 z M 37.81,33.56 C 37.45,34.04 36.98,34.59 36.4,35.18 L 37.03,35.93 C 37.6,35.32 38.09,34.76 38.43,34.28 C 38.24,34.06 38.03,33.81 37.81,33.56 z M 28.56,34.43 C 28.18,34.71 27.87,34.96 27.46,35.25 C 27.34,35.35 27.17,35.49 27.06,35.59 C 27.18,35.73 27.21,35.76 27.34,35.9 C 27.88,35.5 28.34,35.15 28.84,34.78 L 28.56,34.43 z M 38.87,34.75 C 38.51,35.25 38.04,35.82 37.46,36.43 L 38.37,37.43 C 38.95,36.8 39.4,36.22 39.75,35.71 C 39.58,35.54 39.1,35 38.87,34.75 z M 29.28,35.25 C 28.78,35.63 28.32,35.97 27.78,36.37 C 27.98,36.59 28.01,36.65 28.21,36.87 C 28.76,36.51 29.26,36.15 29.75,35.81 L 29.28,35.25 z M 40.15,36.18 C 39.01,37.84 36.87,40.12 33.15,42.28 C 33.34,42.48 34.21,43.46 34.25,43.5 C 34.87,44.12 36.94,42.08 38.15,41.06 C 39.36,40.04 41.97,37.97 41.18,37.31 C 41.16,37.29 40.3,36.34 40.15,36.18 z M 30.15,36.25 C 29.67,36.59 29.16,36.95 28.62,37.31 C 28.89,37.6 28.95,37.67 29.21,37.96 C 29.74,37.61 30.23,37.25 30.71,36.9 L 30.15,36.25 z M 31.12,37.37 C 30.64,37.71 30.14,38.05 29.62,38.4 C 29.89,38.7 29.99,38.84 30.25,39.12 C 30.79,38.79 31.29,38.45 31.78,38.12 L 31.12,37.37 z M 32.21,38.59 C 31.73,38.91 31.23,39.26 30.68,39.59 C 30.98,39.91 31.21,40.15 31.46,40.43 C 31.99,40.1 32.47,39.76 32.93,39.43 L 32.21,38.59 z M 33.37,39.93 C 32.9,40.26 32.4,40.57 31.87,40.9 C 32.12,41.18 32.56,41.64 32.75,41.84 C 33.28,41.53 33.78,41.24 34.25,40.93 L 33.37,39.93 z" id="p3261" style="fill:#0b0b0b;fill-opacity:0.98;fill-rule:evenodd;stroke:none"/>
<path d="M 7.65,5.15 C 7.34,5.11 6.45,6.15 6.37,7.4 L 7.71,9.03 C 7.71,9.03 7.68,9.14 7.65,9.31 C 8.31,8.51 9.02,7.8 9.78,7.25 C 9.71,7.26 9.59,7.28 9.59,7.28 C 9.59,7.28 7.96,5.19 7.65,5.15 z" id="p3257" style="fill:#0b0b0b;fill-opacity:0.98;fill-rule:evenodd;stroke:none;display:inline"/>
<path d="M 8.15,5.59 C 7.66,6.1 7.57,6.46 7.71,6.65 C 7.78,6.74 8.39,7.42 8.9,7.96 C 9.18,7.7 9.48,7.46 9.78,7.25 C 9.71,7.26 9.59,7.28 9.59,7.28 C 9.59,7.28 8.74,6.21 8.15,5.59 z M 7.25,7.25 C 7.25,7.24 6.9,7.3 6.5,7.56 L 7.71,9.03 C 7.71,9.03 7.68,9.14 7.65,9.31 C 7.86,9.05 8.09,8.82 8.31,8.59 L 7.25,7.25 z" id="p3326" style="fill:#5e5e5e;fill-opacity:0.41;fill-rule:evenodd;stroke:none;display:inline"/>
<path d="M 8.81,9.4 C 8.54,9.43 8.23,9.87 7.93,10.46 C 8.41,11.1 9.3,12.06 10.09,12.96 C 10.25,13.15 10.38,13.3 10.5,13.46 C 12.59,13.84 11.96,12.62 11.53,12.18 C 11.01,11.66 9.45,9.82 9,9.43 C 8.94,9.38 8.87,9.39 8.81,9.4 z" id="p3329" style="fill:#fafafa;fill-opacity:0.82;fill-rule:evenodd;stroke:none;display:inline"/>
<path d="M 10.68,7.46 C 10.06,7.7 9.59,8.06 9.59,8.28 C 9.59,8.66 11.73,10.95 12.18,11.34 C 12.57,11.67 14.08,13.03 13.4,10.25 C 13.32,10.17 13.24,10.12 13.15,10.03 C 12.45,9.28 11.17,7.88 10.68,7.46 z" id="p3332" style="fill:#fafafa;fill-opacity:0.82;fill-rule:evenodd;stroke:none;display:inline"/>
<path d="M 9.26,8.93 L 12.17,12.1" id="p3335" style="fill:none;fill-rule:evenodd;stroke:#1f1f1f;stroke-width:0.80;stroke-linecap:round;stroke-linejoin:miter;stroke-miterlimit:4;stroke-dasharray:none;stroke-opacity:0.31;display:inline"/>
<path d="M 28.92,27.26 C 28.31,26.99 27.6,27.11 26.94,27.1 C 27.04,26.76 28.18,26.53 27.51,26.25 C 26.63,26.18 26.03,26.63 25.14,26.84 C 24.74,26.85 24.54,27.35 25.07,27.21 C 25.81,27.07 26.28,26.51 27.02,26.55 C 26.78,26.72 25.92,27.26 26.55,27.44 C 26.93,27.53 27.58,27.19 27.81,27.52 C 27.32,27.84 26.68,28.06 26.36,28.56 C 26.64,29 27.09,28.29 27.43,28.15 C 27.87,27.81 28.37,27.58 28.86,27.35 L 28.9,27.31 L 28.92,27.26 L 28.92,27.26 z M 31.72,30.13 C 30.93,30.21 30.2,30.62 29.42,30.75 C 29.13,30.71 28.66,31.16 29.18,31.13 C 29.48,31 30.23,30.82 29.75,31.34 C 29.33,31.84 30.23,32.03 30.24,31.45 C 30.32,30.77 30.9,31.39 31.29,31.14 C 31.43,30.86 30.36,30.87 30.93,30.55 C 31.1,30.49 32.03,30.47 31.72,30.13 z M 32.23,31.31 C 31.72,31.06 31.92,31.94 32.3,31.55 C 32.39,31.47 32.3,31.36 32.23,31.31 z M 32.11,31.98 C 31.54,32.05 30.93,32.14 30.44,32.5 C 30.86,32.77 31.42,32.25 31.88,32.53 C 32.47,32.74 31.74,33.09 31.41,33.02 C 30.9,33.4 31.82,33.34 32.06,33.21 C 32.48,33.2 33.05,32.6 32.44,32.44 C 32.22,32.41 31.85,32.21 32.19,32.06 C 32.18,32.02 32.14,32 32.11,31.98 z M 29.4,29.44 C 28.88,29.58 28.27,29.56 27.84,29.97 C 28.19,30.19 28.64,29.88 29.04,29.93 C 29.42,29.96 29.73,30.55 30.14,30.25 C 30.02,29.87 29.32,29.96 29.4,29.44 z M 33.95,33.76 C 33.45,33.84 32.91,34.08 32.43,33.87 C 31.96,33.47 32.9,33.3 33.15,33.54 C 33.29,33.67 33.77,33.87 33.65,33.5 C 33.32,33.16 32.77,33.1 32.3,33.2 C 31.78,33.23 31.52,33.92 32.13,34.01 C 32.46,34.37 31.52,34.46 31.27,34.35 C 30.95,34.28 31.02,33.48 30.59,33.93 C 30.45,34.4 31.02,34.64 31.4,34.66 C 32.14,34.65 32.83,34.29 33.55,34.12 C 33.7,34.06 34.3,33.97 33.95,33.76 z M 28.55,28.68 C 28.14,28.35 27.46,28.36 26.99,28.67 C 26.53,29.11 27.29,29.73 27.76,29.64 C 28.12,29.46 28.82,29.58 28.96,29.13 C 28.45,28.96 27.87,29.55 27.4,29.19 C 27.06,28.66 28.18,28.57 28.35,28.97 C 28.57,29.16 28.99,28.94 28.63,28.73 L 28.55,28.68 L 28.55,28.68 z M 31.53,31.51 C 31.03,31.69 30.43,31.65 30.02,32.06 C 30.49,32.27 31,31.91 31.46,31.76 C 31.7,31.71 31.75,31.62 31.53,31.51 z" id="p3370" style="fill:#000000;fill-opacity:1;stroke:none;display:inline"/>
<path d="M 24.95,29 C 24.46,28.97 23.24,28.57 24.13,28.41 C 24.73,28.27 25.59,28.74 24.95,29 z M 24.77,28.83 C 25.11,28.35 23.91,28.75 24.77,28.83 z M 24.74,29.84 C 23.87,29.48 24.86,28.74 25.56,29.14 C 25.84,29.3 25.73,29.73 25.43,29.34 C 25.04,29.16 25.34,29.88 24.95,29.47 C 24.29,29.13 25.24,29.88 24.74,29.84 z M 25.42,30.56 C 25.23,30.4 25.68,29.92 25.12,30.11 C 24.67,29.48 26.9,29.69 26.34,30.23 C 26.1,30.4 25.56,30.33 25.42,30.56 z M 26.06,30.17 C 26.5,29.92 25.24,29.91 25.93,30.13 L 26.06,30.17 L 26.06,30.17 z M 26.3,31.5 C 25.93,31.22 27.35,31.06 26.4,31.13 C 25.69,31.19 26.18,30.74 26.38,30.67 C 26.14,30.76 25.37,30.82 25.8,30.55 C 26.23,30.26 27.33,30.6 26.55,30.87 C 26.88,30.97 27.86,31.07 27.2,31.31 C 26.91,31.38 26.55,31.38 26.3,31.5 z M 27.03,32.27 C 27.24,31.96 26,31.48 26.96,31.51 C 27.74,31.45 28.09,31.96 27.36,32.09 C 27.25,32.15 27.14,32.21 27.03,32.27 z M 27.22,31.88 C 28.05,31.82 26.81,31.52 27.22,31.88 z M 27.66,32.94 C 27.29,32.71 28.33,32.24 27.45,32.41 C 26.97,32.27 28.51,31.86 28.36,32.32 C 28.23,32.44 28.03,32.75 28.52,32.59 C 29.4,32.57 27.81,32.9 27.66,32.94 z M 28.31,33.63 C 27.43,33.27 28.42,32.53 29.13,32.93 C 29.4,33.09 29.3,33.52 29,33.13 C 28.61,32.95 28.9,33.67 28.52,33.25 C 27.86,32.92 28.81,33.67 28.31,33.63 z M 28.95,34.31 C 28.59,34.08 29.62,33.62 28.75,33.79 C 28.27,33.64 29.8,33.23 29.66,33.69 C 29.52,33.82 29.32,34.12 29.81,33.96 C 30.69,33.94 29.1,34.27 28.95,34.31 z M 30.51,34.74 C 30.37,34.39 29.07,34.86 29.56,34.54 C 29.98,34.35 30.45,34 30.67,34.62 C 30.71,34.69 30.63,34.75 30.51,34.74 z M 30.75,36.22 C 30.38,35.94 31.8,35.77 30.85,35.85 C 30.13,35.91 30.62,35.46 30.82,35.39 C 30.58,35.47 29.82,35.54 30.24,35.27 C 30.68,34.98 31.77,35.32 31,35.59 C 31.32,35.69 32.31,35.79 31.64,36.02 C 31.36,36.1 30.99,36.1 30.75,36.22 z M 31.47,36.99 C 31.68,36.68 30.44,36.2 31.4,36.23 C 32.18,36.17 32.53,36.68 31.81,36.8 C 31.69,36.86 31.59,36.93 31.47,36.99 z M 31.67,36.6 C 32.49,36.54 31.26,36.24 31.67,36.6 z M 32.14,37.69 C 31.95,37.54 32.4,37.05 31.84,37.24 C 31.38,36.62 33.61,36.82 33.05,37.37 C 32.82,37.53 32.28,37.47 32.14,37.69 z M 32.78,37.3 C 33.21,37.06 31.95,37.04 32.65,37.26 L 32.78,37.3 L 32.78,37.3 z M 32.84,38.43 C 32.6,38.27 33.12,37.8 32.5,37.97 C 31.84,37.55 33.96,37.48 33.16,37.78 C 33.47,37.89 34.19,38.09 33.44,38.05 C 33.13,38.1 33.06,38.32 32.84,38.43 z M 33.42,39.05 C 32.55,38.69 33.54,37.96 34.24,38.36 C 34.52,38.52 34.41,38.95 34.11,38.56 C 33.72,38.37 34.01,39.09 33.63,38.68 C 32.97,38.35 33.92,39.1 33.42,39.05 z M 34.1,39.78 C 33.91,39.62 34.36,39.13 33.8,39.32 C 33.34,38.7 35.58,38.9 35.02,39.45 C 34.78,39.62 34.24,39.55 34.1,39.78 z M 34.74,39.39 C 35.18,39.14 33.91,39.13 34.61,39.34 L 34.74,39.39 L 34.74,39.39 z" id="text3378" style="fill:#000000;fill-opacity:1;stroke:none;display:inline"/>
<path d="M 34.24,35.51 C 33.78,35.74 33.21,35.78 32.85,35.51 C 32.7,35.37 32.57,35.12 32.73,34.9 C 33,34.49 33.52,34.34 33.96,34.29 C 34.32,34.28 34.73,34.41 34.83,34.77 C 34.89,35.11 34.53,35.38 34.24,35.51 z M 33.96,35.22 C 34.19,35.2 34.43,34.91 34.28,34.72 C 34.11,34.48 33.78,34.67 33.54,34.74 C 33.35,34.83 33.07,35.08 33.17,35.29 C 33.34,35.43 33.63,35.37 33.84,35.27 C 33.88,35.25 33.92,35.24 33.96,35.22 z M 34.36,37.05 C 34.08,36.92 34.25,36.56 34.45,36.37 C 34.56,36.21 34.91,35.99 34.81,35.83 C 34.55,35.88 34.33,36.09 34.07,36.16 C 33.92,36.41 33.3,36.29 33.67,36.02 C 34.25,35.85 34.76,35.39 35.36,35.32 C 35.71,35.34 35.56,35.78 35.33,35.95 C 35.24,36.06 34.92,36.34 35.1,36.4 C 35.4,36.26 35.7,36.03 36.02,36.03 C 36.22,36.07 36.17,36.28 35.97,36.3 C 35.43,36.55 34.89,36.8 34.36,37.05 z M 37.33,37.35 C 36.77,37.44 36.21,37.36 35.66,37.58 C 35.49,37.78 35.19,37.81 34.99,37.73 C 34.76,37.48 35.27,37.41 35.43,37.3 C 35.77,37.1 35.98,36.77 36.21,36.47 C 36.46,36.24 36.66,36.58 36.54,36.8 C 36.52,36.97 36.08,37.13 36.39,37.19 C 36.64,37.18 36.95,37.02 37.17,37.15 C 37.24,37.2 37.28,37.28 37.33,37.35 z M 36.52,39.32 C 36.28,39.26 36.22,38.98 36.38,38.77 C 36.47,38.62 36.72,38.37 36.41,38.46 C 36.1,38.49 35.71,38.58 35.53,38.31 C 35.45,38.16 35.84,38.22 35.95,38.21 C 36.31,38.21 36.76,38.26 37.03,37.91 C 37.08,37.66 37.42,37.36 37.62,37.59 C 37.83,37.8 37.28,38.04 37.47,38.21 C 37.69,38.17 37.95,38.06 38.14,38.21 C 38.29,38.25 38.35,38.48 38.11,38.45 C 37.84,38.41 37.55,38.36 37.28,38.52 C 36.95,38.67 36.72,38.98 36.55,39.28 C 36.54,39.3 36.53,39.31 36.52,39.32 z" id="text3389" style="opacity:0;fill:#ffffff;fill-opacity:1;stroke:#121514;stroke-width:0.19;stroke-linecap:butt;stroke-linejoin:miter;stroke-miterlimit:4;stroke-dasharray:none;stroke-opacity:1;display:inline"/>
<path d="M 34.28,34.29 C 34.57,34.61 34.93,34.87 35.14,35.25 C 35.19,35.58 34.82,35.82 34.52,35.79 C 34.20,35.79 33.90,35.60 33.73,35.33 C 33.51,35.20 33.32,35.44 33.12,35.50 C 32.87,35.59 32.55,35.22 32.79,35.02 C 33.06,34.92 33.31,34.77 33.57,34.65 C 33.81,34.53 34.05,34.41 34.28,34.29 z M 33.97,35.07 C 34.02,35.38 34.65,35.39 34.51,35.02 C 34.38,34.84 34.10,34.95 33.97,35.07 z M 35.61,35.66 C 35.97,36.03 36.34,36.40 36.70,36.78 C 36.49,37.02 36.06,36.87 35.98,36.58 C 35.95,36.33 35.37,36.20 35.51,36.55 C 35.64,36.72 36.09,36.89 35.86,37.14 C 35.59,37.25 35.35,36.97 35.27,36.75 C 35.14,36.52 34.66,36.62 34.85,36.90 C 34.98,37.10 35.28,37.17 35.32,37.42 C 35.27,37.70 34.92,37.61 34.79,37.45 C 34.55,37.12 34.23,36.85 33.96,36.55 C 34.14,36.30 34.49,36.29 34.73,36.10 C 35.02,35.95 35.32,35.80 35.61,35.66 z M 36.94,37.03 C 37.20,37.18 37.39,37.55 37.16,37.81 C 37.07,37.96 36.89,38.22 36.99,38.34 C 37.24,38.24 37.48,38.09 37.73,37.97 C 38.05,37.89 38.24,38.46 37.87,38.50 C 37.43,38.69 37.02,38.93 36.59,39.13 C 36.33,39.21 36.06,38.71 36.24,38.47 C 36.33,38.30 36.55,38.02 36.45,37.87 C 36.19,37.97 35.95,38.14 35.68,38.24 C 35.36,38.28 35.22,37.73 35.59,37.70 C 36.05,37.49 36.49,37.25 36.94,37.03 z" id="text2429" style="opacity:1;fill:#ffffff;fill-opacity:1;fill-rule:nonzero;stroke:#121514;stroke-width:0.19;stroke-linecap:butt;stroke-linejoin:miter;marker:none;stroke-miterlimit:4;stroke-dasharray:none;stroke-dashoffset:0;stroke-opacity:1;visibility:visible;display:inline;overflow:visible;enable-background:accumulate"/>
<path d="M 17.77,20.92 C 18.52,21.74 22.42,25.95 22.73,26.33 C 23.05,26.7 27.13,26.07 26.12,24.88 C 25.12,23.69 21.6,19.92 21.29,19.48 C 20.97,19.04 16.7,19.92 17.77,20.92 z" id="p3400" style="fill:#f6be31;fill-opacity:1;fill-rule:evenodd;stroke:#000000;stroke-width:0.30;stroke-linecap:butt;stroke-linejoin:miter;stroke-miterlimit:4;stroke-dasharray:none;stroke-opacity:1;display:inline"/>
<path d="M 21.32,20.08 C 21.11,19.81 20.76,19.91 20.72,20.13 C 20.19,20.2 19.66,20.25 19.15,20.35 C 18.83,20.4 18.42,20.08 18.16,20.21 C 18.24,20.51 18.59,20.7 18.77,20.97 C 19.18,21.48 19.66,22.05 20.27,22.24 C 20.6,22.33 20.93,22.3 21.2,22.18 C 21.31,22.11 21.27,21.68 21.48,21.96 C 21.84,22.07 22.3,22.06 22.49,21.77 C 22.52,21.49 22.28,21.2 22.09,20.97 C 21.84,20.67 21.52,20.42 21.32,20.08 z M 24.96,24.15 C 24.17,23.6 23.2,23.29 22.43,23.54 C 22.08,23.65 21.74,24 21.91,24.47 C 22.15,25.1 22.83,25.5 23.41,25.66 C 23.62,25.73 24.23,25.84 23.92,25.46 C 23.62,25.09 23.17,25.25 22.83,24.99 C 22.4,24.82 22.61,24.34 22.95,24.39 C 23.23,24.35 23.51,24.29 23.81,24.28 C 24.21,24.28 24.69,24.4 25.01,24.77 C 25.06,25.02 24.64,25.3 25.12,25.46 C 25.39,25.6 25.92,25.54 25.7,25.16 C 25.55,24.81 25.29,24.5 25.03,24.21 L 24.99,24.18 L 24.96,24.15 z M 23.54,22.61 C 23.36,22.27 22.87,22.03 22.75,22.39 C 22.37,22.48 21.95,22.46 21.56,22.55 C 21.26,22.63 20.92,22.64 20.58,22.52 C 20.34,22.36 20.05,22.51 20.35,22.76 C 20.66,23.02 20.81,23.52 21.22,23.59 C 21.45,23.58 21.48,23.26 21.79,23.35 C 22.24,23.3 22.68,23.23 23.11,23.15 C 23.38,23.09 23.92,23.5 24.02,23.2 C 23.94,22.95 23.65,22.83 23.54,22.61 z M 21.65,21.06 C 21.71,21.5 21.06,21.25 20.83,21.03 C 20.68,20.81 21.16,20.89 21.3,20.86 C 21.42,20.88 21.56,20.94 21.65,21.06 z M 20.56,21.24 C 20.56,21.61 20.08,21.62 19.8,21.42 C 19.59,21.35 19.3,21 19.66,21.04 C 19.93,20.98 20.31,20.93 20.56,21.24 z" id="p3430" style="opacity:0;fill:#000000;fill-opacity:1;stroke:none;display:inline"/>
<path d="M 21.39,20.23 C 21.23,20.14 20.64,20.11 20.86,20.41 C 20.57,20.49 20.23,20.47 19.92,20.51 C 19.61,20.49 19.20,20.69 18.95,20.50 C 18.79,20.37 18.34,20.30 18.31,20.55 C 18.59,20.86 18.86,21.19 19.16,21.48 C 19.32,21.59 19.99,21.55 19.65,21.29 C 19.76,21.18 20.18,21.13 20.28,21.38 C 20.76,21.87 21.52,22.11 22.19,21.95 C 22.57,21.90 22.59,21.47 22.32,21.26 C 22.02,20.91 21.70,20.58 21.39,20.23 z M 22.91,21.91 C 22.71,21.82 22.22,21.79 22.33,22.09 C 21.73,22.13 21.13,22.20 20.53,22.25 C 20.37,22.04 20.00,22.00 19.82,22.16 C 20.00,22.50 20.35,22.76 20.60,23.08 C 20.72,23.25 21.32,23.28 21.25,23.04 C 20.94,22.84 21.57,22.82 21.66,22.91 C 22.15,23.51 23.02,23.82 23.76,23.58 C 24.15,23.47 24.00,23.05 23.78,22.86 C 23.49,22.54 23.20,22.23 22.91,21.91 z M 24.41,23.56 C 24.25,23.47 23.66,23.44 23.88,23.74 C 23.59,23.81 23.25,23.80 22.94,23.84 C 22.63,23.82 22.22,24.02 21.97,23.83 C 21.81,23.70 21.36,23.63 21.33,23.88 C 21.61,24.18 21.88,24.52 22.18,24.80 C 22.34,24.92 23.01,24.88 22.67,24.61 C 22.79,24.51 23.20,24.46 23.31,24.72 C 23.80,25.23 24.60,25.47 25.28,25.25 C 25.67,25.15 25.52,24.73 25.29,24.53 C 25.00,24.21 24.70,23.89 24.41,23.56 z M 21.48,21.08 C 21.68,21.36 21.09,21.34 20.92,21.27 C 20.55,21.06 21.26,21.13 21.43,21.08 L 21.48,21.08 L 21.48,21.08 z M 22.98,22.73 C 23.21,23.01 22.60,23.01 22.44,22.93 C 22.23,22.89 22.26,22.73 22.47,22.78 C 22.64,22.77 22.81,22.74 22.98,22.73 z M 24.50,24.41 C 24.70,24.69 24.11,24.67 23.94,24.59 C 23.57,24.39 24.28,24.46 24.45,24.41 L 24.50,24.41 L 24.50,24.41 z" id="p3224" style="fill:#000000;fill-opacity:1;stroke:none"/>
<path d="M 19.02,17.83 C 18.81,18.03 18.47,18.02 18.27,17.80 C 18.07,17.59 18.08,17.25 18.30,17.05 C 18.52,16.85 18.85,16.86 19.05,17.08 C 19.25,17.30 19.24,17.63 19.02,17.83 L 19.02,17.83 z" id="p3436" style="fill:#000000;fill-opacity:1;fill-rule:evenodd;stroke:none;marker:none;visibility:visible;display:inline;overflow:visible;enable-background:accumulate"/>
<path d="M 18.82,17.39 C 18.74,17.46 18.60,17.46 18.53,17.37 C 18.45,17.29 18.45,17.16 18.54,17.08 C 18.62,17.00 18.75,17.01 18.83,17.09 C 18.91,17.18 18.90,17.31 18.82,17.39 z" id="p3438" style="fill:#ffffff;fill-opacity:1;fill-rule:evenodd;stroke:none;marker:none;visibility:visible;display:inline;overflow:visible;enable-background:accumulate"/>
<path d="M 17.03,18.55 L 16.49,19.05 C 16.49,19.05 16.25,18.91 16.15,19.05 C 16.05,19.19 16.65,19.37 16.65,19.37 C 16.65,19.37 16.65,19.77 16.85,19.83 C 17.05,19.9 17.01,19.41 17.01,19.41 L 17.45,19.01 L 17.03,18.55 z" id="p3446" style="fill:#fffae9;fill-opacity:1;fill-rule:evenodd;stroke:#000000;stroke-width:0.08;stroke-linecap:butt;stroke-linejoin:miter;stroke-miterlimit:4;stroke-dasharray:none;stroke-opacity:1;display:inline"/>
<path d="M 17.81,16.31 L 17.92,19.71" id="p3448" style="fill:none;fill-rule:evenodd;stroke:#000000;stroke-width:0.31;stroke-linecap:round;stroke-linejoin:miter;stroke-miterlimit:4;stroke-dasharray:none;stroke-opacity:1;display:inline"/>
<path d="M 17.16,18.21 C 17.14,18.11 17.11,18.01 17.09,17.91 C 17.33,17.77 17.57,17.63 17.81,17.49 C 17.91,17.57 18,17.66 18.1,17.75 C 18.05,17.87 18,18 17.96,18.13 C 18.11,18.1 18.27,18.08 18.43,18.05 C 18.46,18.21 18.48,18.37 18.51,18.53 C 18.28,18.74 18.06,18.94 17.83,19.15 C 17.76,19.13 17.69,19.05 17.61,19.08 C 17.54,19.12 17.49,19.22 17.41,19.21 C 17.35,19.15 17.3,19.09 17.24,19.03 C 17.09,18.88 16.95,18.73 16.81,18.58 C 16.92,18.46 17.04,18.33 17.16,18.21 z" id="p3440" style="fill:#f6be31;fill-opacity:1;fill-rule:evenodd;stroke:#000000;stroke-width:0.08;stroke-linecap:butt;stroke-linejoin:round;stroke-miterlimit:4;stroke-dasharray:none;stroke-opacity:1;display:inline"/>
<path d="M 10.65,13.71 C 11.15,14.53 11.09,15.11 11.21,16.18 C 11.22,16.26 11.23,16.33 11.25,16.4 C 12.54,14.01 12.12,13.65 10.65,13.71 z" id="p3467" style="fill:#5c5851;fill-opacity:0.25;fill-rule:evenodd;stroke:none;display:inline"/>
<path d="M 13.84,10.65 C 13.75,12.04 14.38,13.11 16.53,11.65 C 16.38,11.6 16.23,11.53 16.09,11.5 C 14.81,11.16 14.29,10.98 13.84,10.65 z" id="p3469" style="fill:#5c5851;fill-opacity:0.25;fill-rule:evenodd;stroke:none;display:inline"/>
<path d="M 14.31,12 C 14.31,12 14.15,12.74 13.4,13.34 C 12.65,13.94 12.06,14.25 12.06,14.25 C 12.06,14.25 12.95,16.83 13.4,18.18 C 13.82,19.43 28.98,35.77 35.59,43.15 C 36.43,42.6 37.44,41.65 38.15,41.06 C 38.88,40.45 40.09,39.46 40.78,38.62 C 37.88,35.45 18.62,14.35 17.78,13.65 C 16.87,12.9 14.31,12 14.31,12 z" id="p3350" style="fill:#d9dad9;fill-opacity:0.18;fill-rule:evenodd;stroke:none;display:inline"/>
<path d="M 14.31,12 C 14.31,12 14.15,12.74 13.4,13.34 C 12.65,13.94 12.06,14.25 12.06,14.25 C 12.06,14.25 12.95,16.83 13.4,18.18 C 13.82,19.43 28.98,35.77 35.59,43.15 C 35.95,42.91 36.36,42.6 36.75,42.28 C 33.43,38.47 20.04,22.35 18.56,21.28 C 16.9,20.07 11.29,15.15 13.25,13.5 C 15.81,11.99 19.14,16.97 20.5,19.68 C 21.7,22.09 35.47,37.02 38.75,40.56 C 39.44,39.97 40.24,39.27 40.78,38.62 C 37.88,35.45 18.62,14.35 17.78,13.65 C 16.87,12.9 14.31,12 14.31,12 z" id="p3359" style="fill:#d9dad9;fill-opacity:0.41;fill-rule:evenodd;stroke:none;display:inline"/>
<path d="M 6.37,7.41 C 6.45,6.15 7.35,5.1 7.67,5.14 C 7.98,5.18 9.58,7.29 9.58,7.29 C 9.58,7.29 10.17,7.09 10.52,7.33 C 10.88,7.56 12.38,9.22 13.15,10.03 C 13.93,10.86 14.19,10.99 16.09,11.48 C 17.37,11.82 18.78,12.79 19.84,13.83 C 21.95,15.9 40.75,36.95 41.17,37.31 C 41.95,37.98 39.37,40.05 38.16,41.07 C 36.94,42.08 34.87,44.12 34.24,43.49 C 33.62,42.87 14.05,21.3 13.11,20.05 C 12.17,18.8 11.38,17.54 11.23,16.17 C 11.07,14.8 11.23,14.26 10.09,12.97 C 8.96,11.67 7.59,10.23 7.59,9.83 C 7.59,9.44 7.71,9.01 7.71,9.01 L 6.37,7.41 z" id="stroke01" style="fill:none;fill-opacity:0.98;fill-rule:evenodd;stroke:#171b19;stroke-width:0.5;stroke-linecap:butt;stroke-linejoin:miter;stroke-miterlimit:4;stroke-dasharray:none;stroke-opacity:1"/>
</g>
</svg>
