<?xml version="1.0" encoding="UTF-8" standalone="no"?>
<!DOCTYPE svg PUBLIC "-//W3C//DTD SVG 1.0//EN" "http://www.w3.org/TR/2001/REC-SVG-20010904/DTD/svg10.dtd">
<svg xmlns:svg="http://www.w3.org/2000/svg" xmlns="http://www.w3.org/2000/svg" version="1.0" width="100%" height="100%" viewBox="0 0 48 48" id="_marker03" style="display:inline">
<defs id="defs2385"/>
<g id="marker03" style="display:inline">
<path d="M 1.59,33.8 C 1.88,34.83 4.38,35.34 4.38,35.34 L 5.04,35.12 C 5.04,35.12 5.41,35.34 5.85,35.27 C 6.29,35.19 7.98,34.6 8.71,34.53 C 10.4,34.39 12.45,34.75 13.63,35.41 C 14.8,36.07 15.46,36.74 15.97,36.74 C 16.49,36.74 44.16,26.46 45.92,25.65 C 47.68,24.85 46.65,21.25 46.36,20.88 C 46.07,20.52 43.5,17.43 43.13,16.99 C 42.76,16.55 42.69,16.63 41.74,16.85 C 40.78,17.07 13.43,24.72 11.42,24.92 C 10.69,24.99 10.91,27.41 9.88,28.52 C 8.71,29.77 6.45,30.81 4.75,31.45 C 4.16,31.67 4.23,32.33 4.23,32.33 C 4.23,32.33 2.32,32.7 1.59,33.8 z" id="p3336" style="fill:#ffe048;fill-opacity:1;fill-rule:evenodd;stroke:none"/>
<path d="M 46.63,21.56 C 43.27,23.07 20.8,29.4 14.74,31 C 14.81,31 14.4,33.19 13.96,35.64 C 14.89,36.21 15.5,36.72 15.95,36.72 C 16.47,36.72 44.18,26.48 45.94,25.67 C 47.33,25.03 46.98,22.71 46.63,21.56 z" id="p3395" style="fill:#ffd80f;fill-opacity:0.97;fill-rule:evenodd;stroke:none;display:inline"/>
<path d="M 17.56,30.65 C 17.14,30.67 16.49,30.79 15.43,31.09 L 14.44,35.94 C 14.6,36.05 14.81,36.19 14.96,36.29 C 16.24,35.92 19.12,34.97 19.46,34.08 C 19.9,32.94 18.42,32.09 18.34,31.39 C 18.28,30.95 18.25,30.63 17.56,30.65 z" id="p3398" style="fill:#3e4219;fill-opacity:0.07;fill-rule:evenodd;stroke:none;display:inline"/>
<path d="M 15.81,31.21 C 19.57,29.28 19.8,35.57 16.62,36.62 C 15.63,36.95 15.87,31.15 15.81,31.21 z" id="p3427" style="fill:#5c6227;fill-opacity:0.18;fill-rule:evenodd;stroke:none;display:inline"/>
<path d="M 16.53,31.63 C 17.93,31.9 18.33,33.88 19,34.15 C 19.68,34.42 20.48,34.97 20.94,34.82 C 23.56,33.95 16.26,36.62 16.26,36.62 L 15.59,33.74 L 16.53,31.63 z" id="p3430" style="fill:#c6af16;fill-opacity:0.45;fill-rule:evenodd;stroke:none;display:inline"/>
<path d="M 46.85,23.2 C 40.7,25.46 17.52,33.31 14.22,33.38 L 13.44,35.33 C 13.5,35.36 13.56,35.39 13.61,35.42 C 14.79,36.08 15.44,36.72 15.95,36.72 C 16.47,36.72 44.18,26.48 45.94,25.67 C 46.8,25.28 46.95,24.22 46.89,23.2 C 46.87,23.21 46.87,23.19 46.85,23.2 z" id="p3401" style="fill:#c4ad11;fill-opacity:0.27;fill-rule:evenodd;stroke:none;display:inline"/>
<path d="M 45.64,20 C 44.17,20.7 42.24,21.62 41.04,22.08 C 39.2,22.78 27.47,26.01 24.32,27.06 C 21.16,28.11 17.31,28.98 12.05,31.09 L 12.05,32.86 C 12.05,32.86 17.56,29.8 21.33,29.01 C 25.1,28.22 39.46,23.64 41.65,22.77 C 43.22,22.14 45.29,21.72 46.59,21.47 C 46.51,21.22 46.43,20.93 46.37,20.86 C 46.31,20.78 45.88,20.29 45.64,20 z" id="p3407" style="fill:#e1e0dc;fill-opacity:0.33;fill-rule:evenodd;stroke:none;display:inline"/>
<path d="M 46.81,24.29 C 43.74,25.36 23.75,32.36 15.09,36.37 C 15.44,36.6 15.71,36.72 15.95,36.72 C 16.47,36.72 44.18,26.48 45.94,25.67 C 46.48,25.42 46.69,24.89 46.81,24.29 z" id="p3404" style="fill:#f3e16b;fill-opacity:0.27;fill-rule:evenodd;stroke:none;display:inline"/>
<path d="M 5.81,31.04 C 5.45,31.2 5.06,31.31 4.73,31.43 C 4.14,31.66 4.21,32.34 4.21,32.34 C 4.21,32.34 2.34,32.72 1.61,33.82 C 1.9,34.85 4.38,35.33 4.38,35.33 L 5.03,35.12 C 5.03,35.12 5.42,35.32 5.86,35.25 C 5.98,35.23 6.32,35.15 6.59,35.07 C 6.35,33.42 6.04,32.09 5.81,31.04 z" id="p3347" style="fill:#fdd803;fill-opacity:1;fill-rule:evenodd;stroke:none;display:inline"/>
<path d="M 11.92,24.81 C 11.79,24.83 11.47,24.93 11.4,24.94 C 10.67,25.01 10.91,27.43 9.89,28.53 C 8.72,29.78 6.43,30.8 4.73,31.43 C 4.44,31.54 4.31,31.76 4.25,31.95 C 5.5,32.25 5.63,33.87 5.42,35.25 C 5.55,35.28 5.69,35.28 5.86,35.25 C 6.3,35.17 7.99,34.62 8.72,34.55 C 10.4,34.41 12.44,34.76 13.61,35.42 C 14.79,36.08 15.44,36.72 15.95,36.72 C 15.98,36.72 15.99,36.63 16.11,36.59 C 16.65,36.51 17.33,35.86 17.31,34.46 C 17.29,33.51 16.83,30.76 16.39,30.18 C 15.62,29.19 13.51,26.2 13.22,25.8 C 13.02,25.52 12.78,24.95 11.92,24.81 z" id="p3341" style="fill:#000000;fill-opacity:1;fill-rule:evenodd;stroke:none;display:inline"/>
<path d="M 12.1,33.17 C 10.45,33.22 7.51,33.84 5.47,34.51 C 5.46,34.76 5.46,35 5.42,35.25 C 5.55,35.28 5.69,35.28 5.86,35.25 C 6.3,35.17 7.99,34.62 8.72,34.55 C 10.4,34.41 12.44,34.76 13.61,35.42 C 14.79,36.08 15.44,36.72 15.95,36.72 C 15.98,36.72 16.65,36.46 16.78,36.42 C 17.16,35.39 17.26,34.34 17.21,33.38 C 17.01,33.39 16.8,33.39 16.6,33.43 C 15.52,33.66 14.17,33.34 12.75,33.17 C 12.57,33.15 12.34,33.16 12.1,33.17 z" id="p3359" style="fill:#89837f;fill-opacity:0.22;fill-rule:evenodd;stroke:none;display:inline"/>
<path d="M 11.92,24.81 C 11.79,24.83 11.47,24.93 11.4,24.94 C 10.87,24.99 10.82,26.32 10.45,27.45 L 10.54,27.62 C 11.2,26.77 11.27,25.84 11.49,25.76 C 11.84,25.63 12.14,25.54 12.14,25.54 L 12.4,26.58 C 12.4,26.58 12.1,25.93 11.75,25.98 L 11.14,27.79 C 11.14,27.79 10.29,29.61 9.28,30.05 C 8.43,30.42 6.66,31.41 4.77,32.21 C 5.05,32.43 5.22,32.75 5.34,33.12 C 7.72,32.38 10.6,31.24 12.05,31.13 C 13.59,31.02 14.61,30.91 14.61,30.91 C 14.61,30.91 14.89,31.64 15.17,31.52 C 15.46,31.41 15.69,31.09 15.69,31.09 L 16.65,30.74 C 16.56,30.54 16.46,30.31 16.39,30.18 C 15.76,29.1 13.51,26.2 13.22,25.8 C 13.02,25.52 12.78,24.95 11.92,24.81 z" id="p3362" style="fill:#a39b93;fill-opacity:0.43;fill-rule:evenodd;stroke:none;display:inline"/>
<path d="M 4.11,32.38 C 5.3,31.53 6.38,34.77 5.25,35.17" id="p3353" style="fill:none;fill-rule:evenodd;stroke:#16130f;stroke-width:0.41;stroke-linecap:butt;stroke-linejoin:miter;stroke-miterlimit:4;stroke-dasharray:none;stroke-opacity:1;display:inline"/>
<path d="M 12.3,25.96 C 12.3,25.96 14.41,29.08 15.2,30 C 16.26,31.23 17,36.95 14.76,36.07" id="p3374" style="fill:none;fill-rule:evenodd;stroke:#101010;stroke-width:0.69;stroke-linecap:round;stroke-linejoin:miter;stroke-miterlimit:4;stroke-dasharray:none;stroke-opacity:1;display:inline"/>
<path d="M 11.82,26 C 11.82,26 14.62,29.87 14.86,30.26 C 15.09,30.65 15.22,30.86 15.38,31.39" id="p3378" style="fill:none;fill-rule:evenodd;stroke:#070707;stroke-width:0.69;stroke-linecap:round;stroke-linejoin:miter;stroke-miterlimit:4;stroke-dasharray:none;stroke-opacity:0.47"/>
<path d="M 12.14,30.35 C 11.51,30.35 7.23,31.51 4.9,32.26 L 4.86,32.3 C 5.05,32.48 5.2,32.72 5.29,32.99 C 6.16,32.74 6.99,32.47 8.67,32 C 8.8,31.96 8.94,31.91 9.06,31.87 C 9.82,31.62 10.46,31.49 11.06,31.35 C 11.13,31.33 11.2,31.28 11.27,31.26 C 12.26,31 13.1,30.8 13.53,30.74 C 15.22,30.49 14.66,30.86 14.78,31.17 C 14.88,31.42 15.24,31.34 15.43,31.3 C 15.48,31.26 15.53,31.26 15.56,31.22 C 15.5,31.09 15.23,30.59 14.96,30.48 C 14.64,30.36 12.77,30.35 12.14,30.35 z" id="p3380" style="fill:#a39b93;fill-opacity:0.17;fill-rule:evenodd;stroke:none;display:inline"/>
<path d="M 14.71,30.74 L 15.21,31.43" id="p3386" style="fill:none;fill-rule:evenodd;stroke:#d3d3d3;stroke-width:0.55;stroke-linecap:round;stroke-linejoin:miter;stroke-miterlimit:4;stroke-dasharray:none;stroke-opacity:0.25;display:inline"/>
<path d="M 8.89,31.56 L 12.07,30.74" id="p3389" style="fill:none;fill-rule:evenodd;stroke:#c1c1c1;stroke-width:0.82;stroke-linecap:round;stroke-linejoin:miter;stroke-miterlimit:4;stroke-dasharray:none;stroke-opacity:0.15;display:inline"/>
<path d="M 14.81,28.76 C 14.81,28.76 15.83,30.1 16.08,30.73" id="p3392" style="fill:none;fill-rule:evenodd;stroke:#6a6a6a;stroke-width:0.41;stroke-linecap:round;stroke-linejoin:miter;stroke-miterlimit:4;stroke-dasharray:none;stroke-opacity:0.62;display:inline"/>
<path d="M 18.17,24.66 C 17.36,25.07 17.27,25.82 17.97,26.34 C 18.66,26.86 19.88,26.96 20.69,26.55 C 21.5,26.15 21.59,25.39 20.89,24.86 C 20.2,24.34 18.98,24.25 18.17,24.66 z M 18.31,24.77 C 19.03,24.41 20.11,24.49 20.73,24.95 C 21.34,25.41 21.26,26.08 20.55,26.44 C 19.83,26.81 18.75,26.72 18.13,26.26 C 17.52,25.8 17.6,25.13 18.31,24.77 z M 18.33,25.24 C 18.21,25.3 18.1,25.38 18.14,25.48 C 18.14,25.58 17.92,25.56 17.87,25.65 C 17.91,25.75 18.11,25.66 18.19,25.63 C 18.28,25.58 18.53,25.6 18.45,25.7 C 18.4,25.83 18.51,25.95 18.64,26.05 C 18.67,26.16 18.84,26.24 18.98,26.29 C 19.11,26.33 19.27,26.33 19.39,26.28 C 19.66,26.24 19.96,26.24 20.18,26.13 C 20.44,26.03 20.65,25.89 20.81,25.73 C 20.89,25.63 20.92,25.49 20.78,25.41 C 20.63,25.34 20.53,25.47 20.47,25.51 C 20.34,25.49 20.27,25.38 20.11,25.39 C 19.96,25.38 19.81,25.4 19.66,25.39 C 19.46,25.4 19.23,25.45 19.18,25.58 C 19.11,25.68 19,25.77 19.03,25.89 C 19.09,25.94 19.13,26.1 18.94,26.05 C 18.79,26 18.76,25.88 18.72,25.79 C 18.69,25.68 18.72,25.56 18.82,25.47 C 18.9,25.35 18.77,25.19 18.55,25.18 C 18.47,25.18 18.39,25.21 18.33,25.24 z" id="p3452" style="fill:#e6242f;fill-opacity:0.82;fill-rule:evenodd;stroke:none;display:inline"/>
<path d="M 36.03,19.49 C 34.87,19.76 35.97,21.14 36.77,21.01 C 37.62,21.20 38.24,20.11 37.35,19.68 C 36.99,19.38 36.47,19.34 36.03,19.49 z M 37.83,18.98 C 37.00,18.97 37.46,20.08 38.06,19.96 C 37.41,20.34 38.83,20.74 39.16,20.39 C 39.58,20.20 39.62,19.67 40.12,20.00 C 40.89,20.36 41.80,19.12 40.71,18.97 C 40.22,18.92 40.94,18.71 40.42,18.54 C 39.89,18.06 38.35,18.87 39.32,19.35 C 39.76,19.32 39.72,19.76 39.34,19.53 C 39.23,19.40 38.60,19.46 38.97,19.21 C 38.73,18.85 38.20,18.86 37.83,18.98 z M 21.55,23.64 C 21.86,24.12 22.40,24.87 22.95,24.96 C 23.39,25.00 23.26,24.61 23.09,24.51 C 23.39,24.95 24.31,24.77 23.82,24.21 C 24.14,24.87 24.84,24.38 25.33,24.26 C 25.49,23.54 26.31,24.34 26.77,23.86 C 27.19,23.87 27.57,23.58 27.09,23.29 C 27.61,23.63 28.17,23.54 28.73,23.32 C 29.24,23.34 29.04,22.99 28.94,22.76 C 29.48,23.13 30.07,23.00 30.66,22.77 C 31.04,22.60 32.42,22.54 31.62,22.01 C 31.35,22.00 30.28,22.32 31.02,22.02 C 31.78,21.92 30.92,21.23 30.54,21.64 C 29.75,21.74 31.52,21.58 30.83,21.14 C 30.33,20.98 29.77,21.38 29.25,21.45 C 28.83,21.60 28.23,21.56 28.26,22.15 C 28.02,21.49 26.80,22.09 27.68,22.50 C 27.85,22.76 28.66,23.40 27.96,23.01 C 27.48,22.80 27.41,21.92 26.64,22.19 C 26.13,22.31 25.04,22.50 25.92,23.04 C 26.09,23.28 26.93,23.99 26.25,23.54 C 25.60,23.29 25.02,22.46 24.29,22.86 C 24.06,23.20 24.77,24.10 24.61,24.20 C 24.12,23.86 23.80,22.89 23.12,23.19 C 22.52,23.12 22.95,23.76 22.88,23.81 C 22.45,23.34 22.10,23.43 21.55,23.64 z M 30.90,20.98 C 31.21,21.47 31.72,22.23 32.27,22.31 C 32.78,22.33 32.68,21.97 32.46,21.76 C 32.81,22.01 33.69,22.22 33.77,21.71 C 33.31,21.54 32.95,21.36 32.82,20.88 C 32.25,20.38 31.52,20.86 30.90,20.98 z M 33.42,20.27 C 33.74,20.75 34.27,21.50 34.83,21.58 C 35.26,21.44 36.41,21.35 35.90,20.68 C 35.35,20.45 35.12,19.65 34.40,19.98 C 34.08,20.09 33.75,20.18 33.42,20.27 z M 29.23,21.62 C 29.51,21.93 30.14,22.49 30.20,22.65 C 29.74,22.35 28.69,22.40 29.23,21.62 z M 26.52,22.71 C 27.01,22.49 26.80,23.01 26.52,22.71 z M 31.90,21.19 C 32.38,20.96 32.16,21.48 31.90,21.19 z M 34.45,20.46 C 34.88,20.29 34.67,20.69 34.45,20.46 z M 36.30,19.97 C 36.80,19.64 37.36,20.83 36.56,20.38 C 36.44,20.29 36.25,20.15 36.30,19.97 z M 25.07,23.45 C 25.36,23.51 25.11,23.64 25.07,23.45 z M 34.88,20.92 C 35.32,20.72 35.19,21.20 34.88,20.92 z M 38.52,19.92 C 38.68,19.80 39.02,20.08 38.67,19.98 L 38.52,19.92 z M 40.18,19.45 C 40.70,19.40 40.54,19.66 40.18,19.45 z" id="p2471" style="fill:#000000;fill-opacity:1;fill-rule:nonzero;stroke:#f8f8f8;stroke-width:0.16;stroke-linecap:butt;stroke-linejoin:miter;marker:none;stroke-miterlimit:4;stroke-dashoffset:0;stroke-opacity:0.63;visibility:visible;display:inline;overflow:visible;enable-background:accumulate"/>
<path d="M 39.33,18.65 C 38.56,18.54 38.66,19.72 39.47,19.61 C 39.2,19.89 38.64,19.57 38.56,19.22 C 38.01,18.86 36.66,19.14 37.39,19.92 C 37.73,20.08 38.03,20.01 37.57,20.19 C 37.99,20.78 38.98,20.75 39.31,20.29 C 39.46,20.04 39.06,19.7 39.52,20.07 C 40.08,20.33 41.34,20.09 40.76,19.26 C 40.42,19.07 40.29,19.15 40.18,18.78 C 39.9,18.65 39.6,18.63 39.33,18.65 z M 36.18,19.58 C 35.66,19.55 34.96,20.1 35.61,20.71 C 35.17,20.45 34.82,19.81 34.28,20.1 C 33.87,20.25 32.88,20.2 33.72,20.88 C 34.15,21.75 34.91,21.85 35.46,21.5 C 35.9,21.56 35.88,20.82 35.75,20.83 C 36.41,21.2 37.42,21.3 37.58,20.56 C 37.58,19.84 36.63,19.56 36.18,19.58 z M 36.24,20.11 C 36.88,19.89 37.02,20.85 36.33,20.46 C 36.2,20.32 35.98,20.2 36.24,20.11 z M 31.82,20.76 C 31.23,20.73 30.56,21.51 31.42,22.06 C 30.95,22.13 30.52,22.33 30.18,21.63 C 29.64,21.03 28.81,21.56 29.72,22.11 C 30.18,23.05 30.99,22.88 31.56,22.58 C 31.98,22.57 31.41,21.94 32,22.3 C 32.68,22.55 33.71,22.03 32.96,21.17 C 32.62,20.85 32.19,20.76 31.82,20.76 z M 34.74,21.04 C 35.2,21.04 34.77,21.2 34.74,21.04 z M 31.88,21.3 C 32.31,21.12 32.75,21.74 32.17,21.79 C 31.95,21.78 31.51,21.4 31.88,21.3 z M 28.71,21.64 C 27.9,21.75 29.29,22.73 29.56,23.07 C 30.24,23.25 30.17,22.48 29.59,22.18 C 29.35,21.88 29.04,21.57 28.71,21.64 z M 27.88,21.91 C 27.56,22.09 26.1,22.01 26.97,22.66 C 27.42,23.37 28.08,23.81 28.64,23.38 C 29.29,23.37 29.24,22.54 28.58,22.38 C 28.43,22.01 28.18,21.88 27.88,21.91 z M 27.75,22.44 C 28.12,22.58 27.28,22.54 27.75,22.44 z M 26.01,22.44 C 25.07,22.14 25.4,23.75 26,24.05 C 26.5,24.08 26.62,23.34 27.25,23.73 C 28.28,23.73 26.99,22.96 26.57,22.77 C 26.38,22.68 26.2,22.5 26.01,22.44 z M 28.12,22.88 C 28.34,22.94 28.07,22.98 28.1,22.91 L 28.12,22.88 z M 24.66,22.74 C 24.26,22.94 23.52,22.94 23.32,23.3 C 23.43,23.55 22.2,23.01 22.08,23.57 C 21.53,24.17 23.26,24.27 22.42,24.41 C 22.84,25 23.83,24.97 24.16,24.51 C 24.51,24 23.03,23.52 23.66,23.58 C 24.16,23.4 24.55,23.84 24.94,24.34 C 25.75,24.58 25.47,23.66 24.88,23.33 C 25.43,23.19 25.25,22.69 24.66,22.74 z M 26.2,23.14 C 26.45,23.15 26.16,23.4 26.2,23.14 z" id="p3539" style="opacity:0;fill:#000000;fill-opacity:1;stroke:#f8f8f8;stroke-width:0.16;stroke-linecap:butt;stroke-linejoin:miter;stroke-miterlimit:4;stroke-opacity:0.63;display:inline"/>
<path d="M 34.74,22.82 C 34.4,22.54 34.97,22.28 35.22,22.35 C 35.48,22.33 36.03,22.6 35.74,22.89 C 35.43,23.05 35,23.04 34.74,22.82 L 34.74,22.82 z M 35.03,22.73 C 35.2,23.04 35.76,22.66 35.31,22.53 C 35.18,22.46 34.77,22.55 35.03,22.73 z M 36.2,22.76 C 36.07,22.58 35.59,22.38 35.67,22.2 C 35.96,22.14 36.33,21.91 36.59,22.12 C 36.56,22.47 36.94,22.34 37.1,22.51 C 36.85,22.67 36.6,22.5 36.34,22.45 C 36.13,22.49 36.7,22.73 36.33,22.72 C 36.29,22.73 36.25,22.75 36.2,22.76 z M 36.12,22.36 C 36.35,22.4 36.32,22.09 36.11,22.21 C 35.93,22.22 36.05,22.3 36.12,22.36 z M 36.61,21.93 C 36.95,21.71 37.2,22.13 37.44,22.29 C 37.63,22.51 37.1,22.46 37.04,22.3 C 36.9,22.17 36.77,22.03 36.61,21.93 z M 38,21.99 C 37.75,21.81 38.37,21.69 38.46,21.86 C 38.75,22.1 38.23,22.22 38.04,22.24 C 37.78,22.27 37.49,22.2 37.32,21.98 C 37.22,21.62 37.75,21.57 38.01,21.59 C 38.35,21.69 37.93,21.8 37.79,21.76 C 37.39,21.8 37.81,22.17 38.03,22.09 C 38.21,22.13 38.28,21.84 38.05,21.98 L 38,21.99 L 38,21.99 z M 38.24,21.47 C 38.58,21.25 38.83,21.67 39.07,21.84 C 39.26,22.05 38.73,22 38.66,21.85 C 38.53,21.71 38.4,21.57 38.24,21.47 z M 38.75,21.32 C 39.06,21.15 39.4,21.4 39.7,21.42 C 39.58,21.32 39.24,21.08 39.6,21.09 C 39.86,21.16 40.12,21.45 40.24,21.62 C 39.97,21.76 39.68,21.58 39.42,21.52 C 39.19,21.5 39.89,21.82 39.49,21.84 C 39.16,21.83 39.01,21.47 38.75,21.32 z M 40.96,21.3 C 40.8,21.34 40.63,21.37 40.6,21.53 C 40.29,21.69 40.25,21.21 40.14,21.02 C 40.22,20.74 40.64,20.91 40.82,21.03 C 40.95,21.13 41.39,21.19 41.32,21.32 C 41.21,21.37 41.06,21.39 40.96,21.3 z M 40.76,21.2 C 40.64,21.14 40.32,20.95 40.52,21.22 C 40.58,21.31 40.69,21.2 40.76,21.2 z M 40.88,20.72 C 41.18,20.51 41.42,20.88 41.64,21.03 C 41.83,21.07 42.12,20.79 42.24,21.06 C 41.96,21.08 41.61,21.39 41.36,21.14 C 41.2,21 41.04,20.86 40.88,20.72 z" id="text3529" style="fill:#000000;fill-opacity:0.91;stroke:none;display:inline"/>
<path d="M 1.59,33.8 C 1.88,34.83 4.38,35.34 4.38,35.34 L 5.04,35.12 C 5.04,35.12 5.41,35.34 5.85,35.27 C 6.29,35.19 7.98,34.6 8.71,34.53 C 10.4,34.39 12.45,34.75 13.63,35.41 C 14.8,36.07 15.46,36.74 15.97,36.74 C 16.49,36.74 44.16,26.46 45.92,25.65 C 47.68,24.85 46.65,21.25 46.36,20.88 C 46.07,20.52 43.5,17.43 43.13,16.99 C 42.76,16.55 42.69,16.63 41.74,16.85 C 40.78,17.07 13.43,24.72 11.42,24.92 C 10.69,24.99 10.91,27.41 9.88,28.52 C 8.71,29.77 6.45,30.81 4.75,31.45 C 4.16,31.67 4.23,32.33 4.23,32.33 C 4.23,32.33 2.32,32.7 1.59,33.8 z" id="stroke01" style="fill:none;fill-opacity:1;fill-rule:evenodd;stroke:#16140f;stroke-width:0.5;stroke-linecap:butt;stroke-linejoin:miter;stroke-miterlimit:4;stroke-dasharray:none;stroke-opacity:1"/>
<path d="M 1.8,17.97 C 1.37,19.04 2.3,21.68 3.01,22.83 C 3.73,23.97 5.01,25.18 5.3,25.18 C 5.58,25.18 13.94,22.76 14.65,22.54 C 15.37,22.33 16.95,21.61 17.33,21.48 C 17.94,21.27 17.79,18.27 16.72,16.4 C 16.36,15.76 15.79,15.19 15.79,15.19 C 15.79,15.19 13.08,11.69 12.72,11.19 C 12.37,10.69 1.8,17.83 1.8,17.97 z" id="p2499" style="fill:#36372f;fill-opacity:1;fill-rule:evenodd;stroke:none;display:inline"/>
<path d="M 16.46,16.07 C 13.16,17.4 6.04,20.28 5.5,20.62 C 4.82,21.03 4.76,20.76 4.16,23.74 L 4.12,24.19 C 4.64,24.75 5.13,25.17 5.29,25.17 C 5.58,25.17 13.92,22.74 14.64,22.53 C 15.35,22.31 16.94,21.6 17.32,21.47 C 17.93,21.26 17.77,18.26 16.71,16.39 C 16.64,16.27 16.55,16.19 16.46,16.07 z" id="p3279" style="fill:#080807;fill-opacity:0.85;fill-rule:evenodd;stroke:none;display:inline"/>
<path d="M 4.64,20.94 C 6.93,19.51 16.29,15.83 16.29,15.83 L 16.96,17.02 C 16.96,17.02 13,18.55 11.42,19.03 C 9.84,19.51 7.88,19.84 6.88,20.27 C 5.88,20.7 4.78,21.32 4.78,21.32 L 4.64,20.94 z" id="p3312" style="fill:#888a81;fill-opacity:0.22;fill-rule:evenodd;stroke:none;display:inline"/>
<path d="M 17.64,19.89 C 16.75,20.08 15.51,20.51 14.11,20.98 C 11.31,21.93 7.4,23.31 6.27,22.93 C 5.4,22.64 4.78,23.09 4.36,24.48 C 4.79,24.9 5.16,25.17 5.29,25.17 C 5.58,25.17 13.92,22.74 14.64,22.53 C 15.35,22.31 16.94,21.6 17.32,21.47 C 17.59,21.38 17.68,20.74 17.64,19.89 z" id="p3282" style="fill:#4f4f43;fill-opacity:0.22;fill-rule:evenodd;stroke:none;display:inline"/>
<path d="M 1.76,18.26 C 1.55,19.46 2.36,21.76 3.02,22.81 C 3.73,23.95 5.01,25.17 5.29,25.17 C 5.23,23.02 4.36,21.57 4.24,21.27 C 4.09,20.89 3.15,20.08 2.78,19.48 C 2.53,19.09 2.19,18.29 1.76,18.26 z" id="p3276" style="fill:#6d6a63;fill-opacity:1;fill-rule:evenodd;stroke:none"/>
<path d="M 1.76,18.3 C 1.6,19.4 2.21,21.31 2.82,22.44 C 3.06,22.51 3.29,22.48 3.47,22.36 C 4.16,21.88 2.96,20.72 2.9,20.41 C 2.83,20.11 2.86,19.28 2.86,19.28 C 2.86,19.28 2.54,18.72 1.76,18.3 z" id="p3328" style="fill:#b8b8ae;fill-opacity:0.33;fill-rule:evenodd;stroke:none;display:inline"/>
<path d="M 1.76,18.26 C 1.61,18.91 1.85,19.52 1.96,20.15 C 2.44,20 2.71,20.21 2.94,20.37 C 3.44,20.7 4.35,22.9 2.82,22.36 C 2.89,22.51 2.95,22.69 3.02,22.81 C 3.73,23.95 5.01,25.17 5.29,25.17 C 5.45,22.13 4.36,21.57 4.24,21.27 C 4.09,20.89 3.24,19.89 2.85,19.37 C 2.57,19.01 2.19,18.29 1.76,18.26 z" id="p3285" style="fill:#34352d;fill-opacity:0.43;fill-rule:evenodd;stroke:none;display:inline"/>
<path d="M 5.09,16.46 C 8.53,14.5 9.17,14.19 10.5,14.19 C 11.41,14.2 11.98,14.46 11.98,14.46 L 11.33,15.22 C 11.33,15.22 11.07,14.72 10.08,14.8 C 9.1,14.88 8.04,15.37 5.58,16.69 C 3.12,18.02 3.16,17.6 5.09,16.46 z" id="p3288" style="fill:#b8b9ad;fill-opacity:0.18;fill-rule:evenodd;stroke:none;display:inline"/>
<path d="M 15.98,15.38 C 11.88,16.88 7.32,19 4.44,20.78 C 4.44,20.78 4.62,21.04 4.81,21.27 C 7.08,19.45 7.26,20.29 12.4,18.1 C 14.33,17.28 15.74,16.82 16.79,16.6 C 16.76,16.53 16.74,16.45 16.71,16.39 C 16.44,15.92 16.16,15.57 15.98,15.38 z" id="p3291" style="fill:#cecec6;fill-opacity:0.16;fill-rule:evenodd;stroke:none;display:inline"/>
<path d="M 4.59,20.91 C 5.43,20.27 6.41,19.93 6.41,19.93" id="p3315" style="fill:none;fill-rule:evenodd;stroke:#606060;stroke-width:0.38;stroke-linecap:round;stroke-linejoin:miter;stroke-miterlimit:4;stroke-dasharray:none;stroke-opacity:0.61;display:inline"/>
<path d="M 8.6,14.9 C 9.58,14.49 10.23,14.22 11.66,14.71" id="p3318" style="fill:none;fill-rule:evenodd;stroke:#1a1a1a;stroke-width:0.25;stroke-linecap:round;stroke-linejoin:miter;stroke-miterlimit:4;stroke-dasharray:none;stroke-opacity:0.81"/>
<path d="M 9.55,14.79 C 10.42,14.45 11.1,14.86 11.1,14.86" id="p3320" style="fill:none;fill-rule:evenodd;stroke:#959595;stroke-width:0.25;stroke-linecap:round;stroke-linejoin:miter;stroke-miterlimit:4;stroke-dasharray:none;stroke-opacity:0.31;display:inline"/>
<path d="M 5.42,25.04 C 5.23,22.01 4.51,21.63 4.36,21.34 C 3.91,20.47 3.3,19.86 2.92,19.26 C 2.68,18.87 1.86,18.31 2.05,17.73" id="p3323" style="fill:none;fill-opacity:0.43;fill-rule:evenodd;stroke:#161616;stroke-width:0.38;stroke-linecap:butt;stroke-linejoin:miter;stroke-miterlimit:4;stroke-dasharray:none;stroke-opacity:0.87;display:inline"/>
<path d="M 2.98,21.34 L 3.21,21.86" id="p3325" style="fill:none;fill-rule:evenodd;stroke:#2c2c2c;stroke-width:0.50;stroke-linecap:round;stroke-linejoin:miter;stroke-miterlimit:4;stroke-dasharray:none;stroke-opacity:1;display:inline"/>
<path d="M 1.8,17.97 C 1.37,19.04 2.3,21.68 3.01,22.83 C 3.73,23.97 5.01,25.18 5.3,25.18 C 5.58,25.18 13.94,22.76 14.65,22.54 C 15.37,22.33 16.95,21.61 17.33,21.48 C 17.94,21.27 17.79,18.27 16.72,16.4 C 16.36,15.76 15.79,15.19 15.79,15.19 C 15.79,15.19 13.08,11.69 12.72,11.19 C 12.37,10.69 1.8,17.83 1.8,17.97 z" id="stroke02" style="fill:none;fill-opacity:1;fill-rule:evenodd;stroke:#0c0c0c;stroke-width:0.5;stroke-linecap:butt;stroke-linejoin:round;stroke-miterlimit:4;stroke-dasharray:none;stroke-opacity:1;display:inline"/>
</g>
</svg>
