<?xml version="1.0" encoding="UTF-8" standalone="no"?>
<!DOCTYPE svg PUBLIC "-//W3C//DTD SVG 1.0//EN" "http://www.w3.org/TR/2001/REC-SVG-20010904/DTD/svg10.dtd">
<svg xmlns:svg="http://www.w3.org/2000/svg" xmlns="http://www.w3.org/2000/svg" version="1.0" width="100%" height="100%" viewBox="0 0 48 48" id="_pen03">
<defs id="defs2385"/>
<g id="pen03" style="display:inline">
<path d="M 15.09,41.37 C 14.62,41.58 16.54,45.14 16.88,44.97 C 17.22,44.81 17.26,44.79 17.37,44.72 C 17.47,44.65 17.56,44.71 17.9,44.54 C 18.25,44.38 25.35,40.54 26.3,39.99 C 27.25,39.43 31.54,36.71 31.64,36.62 C 31.75,36.53 31.54,36.01 31.48,35.93 C 31.43,35.86 31.59,35.68 31.25,35.06 C 30.91,34.43 30.76,34.45 30.62,34.28 C 30.48,34.12 30.3,33.89 30.1,33.94 C 29.9,34 26.01,35.79 25.19,36.17 C 24.36,36.54 16.09,40.74 15.93,40.81 C 15.77,40.89 15.66,41.08 15.5,41.15 C 15.34,41.23 15.09,41.39 15.09,41.37 z" id="p3255" style="fill:#0f0f0f;fill-opacity:1;fill-rule:evenodd;stroke:none;display:inline"/>
<path d="M 15.55,43.2 C 15.55,43.2 17.11,42.33 19,41.45 C 20.89,40.57 24.48,38.6 25.97,37.79 C 27.46,36.98 31.18,35.16 31.18,35.16" id="p3258" style="fill:none;fill-rule:evenodd;stroke:#e1e1e1;stroke-width:1px;stroke-linecap:butt;stroke-linejoin:miter;stroke-opacity:0.12"/>
<path d="M 15.62,41.11 C 15.96,41.99 17.04,43.81 17.38,44.56" id="p3261" style="fill:none;fill-rule:evenodd;stroke:#454545;stroke-width:0.30;stroke-linecap:butt;stroke-linejoin:miter;stroke-miterlimit:4;stroke-dasharray:none;stroke-opacity:0.78;display:inline"/>
<path d="M 16.71,42.79 C 17.66,42.38 21.14,40.52 21.96,40.17 C 22.84,39.79 25.33,38.36 26,38.03" id="p3264" style="fill:none;fill-rule:evenodd;stroke:#6c6c6c;stroke-width:0.30;stroke-linecap:round;stroke-linejoin:miter;stroke-miterlimit:4;stroke-dasharray:none;stroke-opacity:0.11;display:inline"/>
<path d="M 26.04,37.73 L 29.08,36.17" id="p3267" style="fill:none;fill-rule:evenodd;stroke:#ffffff;stroke-width:0.80;stroke-linecap:round;stroke-linejoin:miter;stroke-miterlimit:4;stroke-dasharray:none;stroke-opacity:0.07;display:inline"/>
<path d="M 27.73,35.9 L 30.7,34.48" id="p3270" style="fill:none;fill-rule:evenodd;stroke:#efefef;stroke-width:0.40;stroke-linecap:round;stroke-linejoin:miter;stroke-miterlimit:4;stroke-dasharray:none;stroke-opacity:0.15;display:inline"/>
<path d="M 15.49,42.66 C 15.49,42.66 15.71,42.66 17.07,41.9 C 18.42,41.14 23.75,38.37 24.29,38.09 C 24.83,37.82 30.97,34.67 30.97,34.67" id="p3273" style="fill:none;fill-rule:evenodd;stroke:#797979;stroke-width:0.5;stroke-linecap:butt;stroke-linejoin:miter;stroke-miterlimit:4;stroke-dasharray:none;stroke-opacity:0.4"/>
<path d="M 16.62,42.47 L 17.56,42.01" id="p3275" style="fill:none;fill-rule:evenodd;stroke:#f6f6f6;stroke-width:0.40;stroke-linecap:round;stroke-linejoin:miter;stroke-miterlimit:4;stroke-dasharray:none;stroke-opacity:0.60"/>
<path d="M 2.91,44.03 C 3.05,43.36 3.75,42.77 3.75,42.77 L 3.64,42.63 C 3.64,42.63 4.42,41.5 4.63,41.22 C 4.84,40.94 6.63,38.7 6.63,38.7 C 6.63,38.7 7.08,37.61 7.19,37.47 C 7.29,37.33 12.2,32.42 12.2,32.42 L 12.28,32.17 C 12.28,32.17 39.71,4.66 39.89,4.49 C 40.06,4.31 40.27,4.38 40.48,4.17 C 40.69,3.96 42.13,2.56 42.41,2.31 C 42.69,2.07 44.8,3.82 44.34,4.31 C 43.89,4.8 42.66,6.03 42.52,6.21 C 42.38,6.38 42.48,6.56 42.2,6.84 C 41.92,7.12 14.77,34.59 14.77,34.59 L 14.49,34.77 C 14.49,34.77 9.78,39.5 9.57,39.71 C 9.36,39.93 8.28,40.35 8.28,40.35 L 5.85,42.31 L 4.35,43.33 L 4.21,43.26 C 4.21,43.26 3.75,43.89 2.91,44.03 z" id="p3277" style="fill:#0d0d0d;fill-opacity:1;fill-rule:evenodd;stroke:none"/>
<path d="M 8.14,38.71 L 41.48,5.37" id="p3282" style="fill:none;fill-rule:evenodd;stroke:#ffffff;stroke-width:1.10;stroke-linecap:butt;stroke-linejoin:miter;stroke-miterlimit:4;stroke-dasharray:none;stroke-opacity:0.09;display:inline"/>
<path d="M 8.24,38.87 L 32.84,14.14" id="p3306" style="fill:none;fill-rule:evenodd;stroke:#7e7e7e;stroke-width:0.40;stroke-linecap:round;stroke-linejoin:miter;stroke-miterlimit:4;stroke-dasharray:none;stroke-opacity:0.52;display:inline"/>
<path d="M 15.86,31.53 C 15.66,31.23 15.47,30.93 15.27,30.63 C 15.63,29.94 16.66,30.01 15.93,30.85 C 15.42,31.11 16.22,31.28 15.86,31.53 z M 15.67,30.93 C 16.29,30.54 15.91,29.94 15.46,30.61 C 15.53,30.72 15.6,30.83 15.67,30.93 z M 17.02,30.01 C 17.55,29.93 16.4,31.15 16.38,30.23 C 16.32,29.28 17.57,29.69 16.68,30.2 C 16.34,30.52 17.22,30.43 17.02,30.01 L 17.02,30.01 z M 16.53,30.2 C 17.31,29.69 16.41,29.5 16.53,30.2 z M 17.41,29.96 C 17.33,29.76 16.85,29.3 17.12,29.24 C 17.25,28.64 17.93,29.01 17.91,29.46 C 17.77,29.42 17.16,28.63 17.29,29.49 C 17.32,29.64 17.68,29.81 17.41,29.96 z M 18.31,28.89 C 18.34,29.52 17.82,28.61 17.67,28.69 C 17.66,28.4 17.61,28.16 17.88,28.4 C 17.99,28.29 17.92,29 18.26,28.94 L 18.31,28.89 L 18.31,28.89 z M 18.8,28.21 C 19.33,28.13 18.19,29.35 18.16,28.42 C 18.1,27.48 19.35,27.88 18.46,28.4 C 18.12,28.72 19.01,28.63 18.8,28.21 L 18.8,28.21 z M 18.31,28.4 C 19.1,27.88 18.2,27.7 18.31,28.4 z M 19.19,28.16 C 19,27.86 18.8,27.55 18.6,27.25 C 18.87,27.03 18.97,27.69 19.17,27.84 C 19.22,27.97 19.41,28.02 19.19,28.16 z M 20.3,26.51 C 20.97,26.74 19.36,27.97 19.41,26.77 C 19.23,25.86 20.75,26.05 19.8,26.2 C 18.94,26.86 20.43,27.73 20.3,26.51 L 20.3,26.51 z M 20.51,26.28 C 20.04,25.28 21.78,25.37 21.04,26.31 C 20.86,26.52 20.6,26.48 20.51,26.28 L 20.51,26.28 z M 20.62,26.17 C 21.76,26.65 20.47,24.73 20.62,26.17 L 20.62,26.17 z M 21.47,25.85 C 21.28,25.55 21.08,25.25 20.88,24.94 C 21.15,24.72 21.25,25.39 21.45,25.53 C 21.5,25.66 21.69,25.72 21.47,25.85 z M 21.51,25.27 C 21.04,24.27 22.78,24.36 22.04,25.3 C 21.86,25.51 21.6,25.47 21.51,25.27 L 21.51,25.27 z M 21.62,25.16 C 22.76,25.64 21.47,23.72 21.62,25.16 L 21.62,25.16 z M 22.47,24.84 C 22.39,24.64 21.91,24.18 22.18,24.12 C 22.25,23.96 22.6,23.72 22.3,24.23 C 22.28,24.44 22.75,24.66 22.47,24.84 z M 23.27,24.03 C 23.08,23.73 22.88,23.43 22.68,23.12 C 23.04,22.44 24.07,22.5 23.35,23.35 C 22.84,23.61 23.64,23.78 23.27,24.03 z M 23.09,23.43 C 23.7,23.04 23.32,22.43 22.87,23.11 C 22.94,23.22 23.01,23.32 23.09,23.43 z M 24.43,22.51 C 24.96,22.43 23.82,23.65 23.79,22.73 C 23.73,21.78 24.98,22.18 24.1,22.7 C 23.76,23.02 24.64,22.93 24.43,22.51 L 24.43,22.51 z M 23.95,22.7 C 24.73,22.19 23.83,22 23.95,22.7 L 23.95,22.7 z M 24.83,22.46 C 24.75,22.25 24.26,21.8 24.53,21.74 C 24.67,21.14 25.35,21.5 25.32,21.96 C 25.18,21.91 24.58,21.12 24.71,21.98 C 24.74,22.14 25.09,22.31 24.83,22.46 z M 25.92,21.35 C 25.72,21.05 25.52,20.75 25.33,20.45 C 25.49,20.29 26.11,19.58 25.93,20.02 C 25.58,20.17 25.41,20.77 25.79,20.62 C 26.17,20.12 26.31,20.41 25.85,20.74 C 25.6,20.92 26.27,21.17 25.92,21.35 z M 26.17,19.8 C 25.9,19.5 26.51,19.54 26.17,19.8 z M 26.68,20.58 C 26.6,20.37 26.1,19.92 26.39,19.86 C 26.45,20.08 26.93,20.36 26.68,20.58 z M 26.97,20.29 C 26.89,20.09 26.4,19.64 26.67,19.58 C 26.8,18.98 27.48,19.34 27.46,19.79 C 27.32,19.75 26.71,18.96 26.85,19.82 C 26.87,19.97 27.23,20.15 26.97,20.29 z M 28.05,19.2 C 27.85,18.9 27.66,18.59 27.46,18.29 C 27.82,17.61 28.85,17.67 28.12,18.51 C 27.61,18.78 28.41,18.95 28.05,19.2 z M 27.86,18.6 C 28.48,18.2 28.1,17.6 27.65,18.28 C 27.72,18.38 27.79,18.49 27.86,18.6 z M 28.64,18.06 C 28.17,17.06 29.9,17.14 29.17,18.09 C 28.99,18.29 28.73,18.26 28.64,18.06 z M 28.75,17.94 C 29.89,18.42 28.6,16.51 28.75,17.94 z M 29.1,16.85 C 28.83,16.54 29.43,16.58 29.1,16.85 z M 29.61,17.62 C 29.53,17.41 29.02,16.96 29.32,16.9 C 29.37,17.12 29.85,17.4 29.61,17.62 z M 29.89,17.34 C 29.81,17.13 29.32,16.68 29.59,16.62 C 29.73,16.02 30.41,16.38 30.39,16.83 C 30.24,16.79 29.64,16 29.77,16.86 C 29.8,17.01 30.15,17.19 29.89,17.34 z M 30.78,16.27 C 30.81,16.9 30.3,15.99 30.14,16.06 C 30.14,15.77 30.08,15.54 30.35,15.78 C 30.47,15.66 30.4,16.38 30.74,16.32 L 30.78,16.27 z M 31.3,15.93 C 31.19,15.5 31,15.81 31.09,15.34 C 30.93,15.22 30.74,15.47 30.99,15.07 C 30.81,14.4 31.04,15.14 31.23,14.89 C 31.23,14.61 31.21,14.19 31.39,14.73 C 31.7,14.37 31.26,15.46 31.7,14.94 C 31.6,15.07 31.7,15.59 31.58,15.58 C 31.45,15.04 31.23,15.67 31.35,15.88 L 31.31,15.93 L 31.3,15.93 z M 31.24,15.41 C 31.73,15.1 31.04,14.76 31.2,15.29 C 31.21,15.33 31.23,15.37 31.24,15.41 z M 32.17,14.55 C 32.37,14.57 33.19,14.04 32.62,13.95 C 31.89,14.77 31.67,13.4 32.5,13.38 C 32.94,13.61 31.68,13.61 32.15,14.05 C 32.76,13.34 33.35,14.22 32.53,14.64 C 32.39,14.7 32.24,14.66 32.17,14.55 L 32.17,14.55 z M 33.05,13.74 C 33.39,13.84 33.84,13.02 33.22,13.23 C 33.02,13.45 33.35,12.33 32.88,13.02 C 32.68,13.81 32.81,12.16 33.32,12.74 C 33.28,13.06 34.1,13.25 33.39,13.79 C 33.26,13.86 33.13,13.84 33.05,13.74 L 33.05,13.74 z M 34.06,11.98 C 33.79,12.05 33.42,12.3 33.72,12.68 C 33.98,11.53 34.91,12.96 33.95,13.09 C 33.4,13.06 33.31,11.63 34.06,11.98 z M 33.85,12.84 C 34.82,13.14 33.79,11.75 33.85,12.84 L 33.85,12.84 z M 34.34,12.09 C 33.69,11.05 35.48,11.02 35.03,12.14 C 34.8,12.53 34.47,12.33 34.34,12.09 L 34.34,12.09 z M 34.46,11.97 C 35.53,12.85 34.31,10.39 34.4,11.86 L 34.46,11.97 L 34.46,11.97 z" id="text3327" style="fill:#fcf8a7;fill-opacity:0.79;stroke:none;display:inline"/>
<path d="M 3.9,42.83 L 4.11,43.01 L 5.34,41.82 L 7.53,39.7 L 7.06,39.15 L 5.05,41.46 L 3.9,42.83 z" id="p3291" style="fill:#d6d6d6;fill-opacity:0.21;fill-rule:evenodd;stroke:none;display:inline"/>
<path d="M 4.68,41.15 C 4.67,41.16 4.63,41.21 4.62,41.21 C 4.41,41.49 3.65,42.62 3.65,42.62 L 3.75,42.78 C 3.75,42.78 3.04,43.36 2.9,44.03 C 3.74,43.89 4.21,43.24 4.21,43.25 L 4.34,43.34 L 5.84,42.34 L 4.68,41.15 z" id="p3285" style="fill:#353535;fill-opacity:0.65;fill-rule:evenodd;stroke:none;display:inline"/>
<path d="M 3.68,42.56 C 3.68,42.56 3.65,42.62 3.65,42.62 L 3.75,42.78 C 3.75,42.78 3.04,43.36 2.9,44.03 C 3.74,43.89 4.21,43.24 4.21,43.25 L 4.34,43.34 L 4.4,43.31 L 3.68,42.56 z" id="p3288" style="fill:#262626;fill-opacity:1;fill-rule:evenodd;stroke:none;display:inline"/>
<path d="M 7.21,37.43 C 7.21,37.43 7.18,37.46 7.18,37.46 C 7.09,37.59 6.72,38.44 6.65,38.59 C 7.09,39.2 7.62,39.85 8.25,40.37 L 8.28,40.34 C 8.28,40.34 9.04,40.03 9.4,39.81 C 8.23,39.12 7.65,38.25 7.21,37.43 z" id="p3294" style="fill:#4b4b4b;fill-opacity:0.5;fill-rule:evenodd;stroke:none;display:inline"/>
<path d="M 41.3,5.23 L 43.5,3.03" id="p3321" style="fill:none;fill-opacity:1;fill-rule:evenodd;stroke:#ffffff;stroke-width:0.88;stroke-linecap:butt;stroke-linejoin:miter;marker:none;stroke-miterlimit:4;stroke-dasharray:none;stroke-dashoffset:0;stroke-opacity:0.19;visibility:visible;display:inline;overflow:visible;enable-background:accumulate"/>
<path d="M 43.66,3.19 L 41.5,5.35" id="p3323" style="fill:none;fill-rule:evenodd;stroke:#fbfbfb;stroke-width:0.30;stroke-linecap:butt;stroke-linejoin:miter;stroke-miterlimit:4;stroke-dasharray:none;stroke-opacity:0.21"/>
<path d="M 40.12,4.36 C 41.13,5.05 41.68,5.66 42.33,6.49" id="p3303" style="fill:none;fill-rule:evenodd;stroke:#3c3c3c;stroke-width:0.5;stroke-linecap:butt;stroke-linejoin:miter;stroke-miterlimit:4;stroke-dasharray:none;stroke-opacity:0.69;display:inline"/>
<path d="M 8.3,38.01 L 24.4,21.74" id="p3319" style="fill:none;fill-rule:evenodd;stroke:#ffffff;stroke-width:0.2;stroke-linecap:round;stroke-linejoin:miter;stroke-miterlimit:4;stroke-dasharray:none;stroke-opacity:0.16"/>
<path d="M 12.24,32.46 C 13.21,33.15 14.01,34.02 14.51,34.7" id="p3300" style="fill:none;fill-rule:evenodd;stroke:#2b2b2b;stroke-width:0.40;stroke-linecap:butt;stroke-linejoin:miter;stroke-miterlimit:4;stroke-dasharray:none;stroke-opacity:0.9;display:inline"/>
<path d="M 40.98,5.55 C 41.3,5.78 41.5,5.98 41.58,6.1" id="p3325" style="fill:none;fill-rule:evenodd;stroke:#686868;stroke-width:0.30;stroke-linecap:round;stroke-linejoin:miter;stroke-miterlimit:4;stroke-dasharray:none;stroke-opacity:0.61"/>
<path d="M 28.31,18.02 L 40.74,5.32" id="p3340" style="fill:none;fill-rule:evenodd;stroke:#fefefe;stroke-width:0.40;stroke-linecap:round;stroke-linejoin:miter;stroke-miterlimit:4;stroke-dasharray:none;stroke-opacity:0.2"/>
<path d="M 7.69,38.42 C 7.81,38.6 7.94,38.71 8.11,38.87" id="p3297" style="fill:none;fill-rule:evenodd;stroke:#e6e6e6;stroke-width:0.30;stroke-linecap:round;stroke-linejoin:miter;stroke-miterlimit:4;stroke-dasharray:none;stroke-opacity:0.81;display:inline"/>
<path d="M 15.09,41.37 C 14.62,41.58 16.54,45.14 16.88,44.97 C 17.22,44.81 17.26,44.79 17.37,44.72 C 17.47,44.65 17.56,44.71 17.9,44.54 C 18.25,44.38 25.35,40.54 26.3,39.99 C 27.25,39.43 31.54,36.71 31.64,36.62 C 31.75,36.53 31.54,36.01 31.48,35.93 C 31.43,35.86 31.56,35.54 31.22,34.91 C 30.88,34.28 30.65,34.3 30.62,34.28 C 30.43,34.18 30.3,33.89 30.1,33.94 C 29.9,34 26.01,35.79 25.19,36.17 C 24.36,36.54 16.09,40.74 15.93,40.81 C 15.77,40.89 15.66,41.08 15.5,41.15 C 15.34,41.23 15.09,41.39 15.09,41.37 z" id="stroke01" style="fill:none;fill-opacity:1;fill-rule:evenodd;stroke:#282828;stroke-width:0.5;stroke-linecap:butt;stroke-linejoin:miter;stroke-miterlimit:4;stroke-dasharray:none;stroke-opacity:1"/>
<path d="M 2.91,44.03 C 3.05,43.36 3.75,42.77 3.75,42.77 L 3.64,42.63 C 3.64,42.63 4.42,41.5 4.63,41.22 C 4.84,40.94 6.63,38.7 6.63,38.7 C 6.63,38.7 7.08,37.61 7.19,37.47 C 7.29,37.33 12.2,32.42 12.2,32.42 L 12.28,32.17 C 12.28,32.17 39.71,4.66 39.89,4.49 C 40.06,4.31 40.27,4.38 40.48,4.17 C 40.69,3.96 42.13,2.56 42.41,2.31 C 42.69,2.07 44.8,3.82 44.34,4.31 C 43.89,4.8 42.66,6.03 42.52,6.21 C 42.38,6.38 42.48,6.56 42.2,6.84 C 41.92,7.12 14.77,34.59 14.77,34.59 L 14.49,34.77 C 14.49,34.77 9.78,39.5 9.57,39.71 C 9.36,39.93 8.28,40.35 8.28,40.35 L 5.85,42.31 L 4.35,43.33 L 4.21,43.26 C 4.21,43.26 3.75,43.89 2.91,44.03 z" id="stroke02" style="fill:none;fill-opacity:1;fill-rule:evenodd;stroke:#292929;stroke-width:0.5;stroke-linecap:butt;stroke-linejoin:miter;stroke-miterlimit:4;stroke-dasharray:none;stroke-opacity:1;display:inline"/>
</g>
</svg>
