<?xml version="1.0" encoding="UTF-8" standalone="no"?>
<!DOCTYPE svg PUBLIC "-//W3C//DTD SVG 1.0//EN" "http://www.w3.org/TR/2001/REC-SVG-20010904/DTD/svg10.dtd">
<svg xmlns:svg="http://www.w3.org/2000/svg" xmlns="http://www.w3.org/2000/svg" version="1.0" width="100%" height="100%" viewBox="0 0 48 48" id="_pencil01" style="display:inline;enable-background:new">
<defs id="defs2385"/>
<g id="pencil01" style="display:inline">
<path d="M 6.20,35.72 C 6.20,35.72 6.07,32.49 6.33,31.58 C 6.59,30.68 7.23,29.77 8.40,29.00 C 9.56,28.22 37.98,8.55 39.03,7.93 C 39.70,7.53 41.23,7.64 42.26,9.09 C 43.00,10.15 42.90,12.45 41.61,13.49 C 40.32,14.52 12.92,36.36 11.76,36.75 C 11.17,36.94 10.36,37.14 9.10,36.83 C 7.84,36.53 6.13,35.72 6.20,35.72 z" id="p2550" style="fill:#e3ba92;fill-opacity:1;fill-rule:evenodd;stroke:none;"/>
<path d="M 8.18,32.08 C 8.18,32.08 10.13,28.93 10.50,28.63 C 10.88,28.33 19.59,21.50 23.04,19.17 C 26.49,16.84 38.50,8.29 40.98,8.14" id="p3398" style="fill:none;fill-rule:evenodd;stroke:#844808;stroke-width:0.30;stroke-linecap:butt;stroke-linejoin:miter;stroke-miterlimit:4;stroke-dasharray:none;stroke-opacity:0.34;display:inline"/>
<path d="M 41.84,8.62 C 36.90,11.71 18.59,24.41 10.34,30.37 L 10.25,36.96 C 10.88,36.98 11.37,36.87 11.75,36.75 C 12.91,36.36 40.33,14.53 41.62,13.5 C 42.91,12.46 42.99,10.14 42.25,9.09 C 42.12,8.91 41.98,8.76 41.84,8.62 z" id="p3401" style="fill:#954d2b;fill-opacity:0.29;fill-rule:evenodd;stroke:none;display:inline"/>
<path d="M 42.65,10.09 C 32.18,14.89 14.91,30.87 11.87,34.56 L 12.62,36.18 C 17.36,32.82 40.44,14.44 41.62,13.5 C 42.59,12.72 42.88,11.23 42.65,10.09 z" id="p3403" style="fill:#f1e7e3;fill-opacity:0.28;fill-rule:evenodd;stroke:none;display:inline"/>
<path d="M 10.06,29.06 C 7.93,29.06 6.21,30.95 6.21,33.25 C 6.21,34.44 6.69,35.49 7.43,36.25 C 7.96,36.46 8.55,36.71 9.09,36.84 C 10.35,37.15 11.16,36.94 11.75,36.75 C 11.87,36.70 12.35,36.36 13.03,35.87 C 13.58,35.15 13.93,34.25 13.93,33.25 C 13.93,30.95 12.19,29.06 10.06,29.06 z" id="p3327" style="fill:#bb8e6d;fill-opacity:1;fill-rule:evenodd;stroke:none;marker:none;visibility:visible;display:inline;overflow:visible;enable-background:accumulate"/>
<path d="M 41.73,8.59 C 37.23,10.61 26.94,17.29 24.69,19.02 C 22.44,20.75 16.96,25.55 15.61,26.98 C 14.26,28.40 12.91,29.75 12.61,29.75 C 12.31,29.75 9.45,32.68 9.45,32.68" id="p3395" style="fill:none;fill-rule:evenodd;stroke:#844808;stroke-width:0.40;stroke-linecap:butt;stroke-linejoin:miter;stroke-miterlimit:4;stroke-dasharray:none;stroke-opacity:0.34;display:inline"/>
<path d="M 42.56,9.56 C 37.83,11.29 33.92,13.47 28.74,17.07 C 23.57,20.67 18.24,26.15 16.96,27.35 C 15.68,28.55 13.81,30.88 13.36,30.73 C 12.91,30.58 10.43,32.61 9.90,33.13" id="p3389" style="fill:none;fill-rule:evenodd;stroke:#844808;stroke-width:0.40;stroke-linecap:butt;stroke-linejoin:miter;stroke-miterlimit:4;stroke-dasharray:none;stroke-opacity:0.34;display:inline"/>
<path d="M 12.65,30.15 C 11.18,31.39 8.90,33.40 6.93,35.62 C 7.08,35.84 7.25,36.06 7.43,36.25 C 7.96,36.46 8.55,36.71 9.09,36.84 C 10.35,37.15 11.16,36.94 11.75,36.75 C 11.87,36.70 12.35,36.36 13.03,35.87 C 13.58,35.15 13.93,34.25 13.93,33.25 C 13.93,32.02 13.43,30.92 12.65,30.15 z" id="p3357" style="fill:#592a15;fill-opacity:0.28;fill-rule:evenodd;stroke:none;display:inline"/>
<path d="M 13.12,30.71 L 6.90,35.56 C 6.95,35.63 7.00,35.70 7.06,35.78 L 13.93,33.37 C 13.93,33.33 13.93,33.29 13.93,33.25 C 13.93,32.29 13.62,31.42 13.12,30.71 z" id="p3359" style="fill:#742306;fill-opacity:0.21;fill-rule:evenodd;stroke:none;display:inline"/>
<path d="M 42.63,10.31 C 36.78,13.01 30.62,16.84 28.14,18.87 C 25.67,20.90 18.01,28.78 16.21,30.81 C 14.41,32.83 14.33,32.98 14.03,33.13 C 13.73,33.28 8.63,34.71 8.63,34.71" id="p3392" style="fill:none;fill-rule:evenodd;stroke:#844808;stroke-width:0.5;stroke-linecap:butt;stroke-linejoin:miter;stroke-miterlimit:4;stroke-dasharray:none;stroke-opacity:0.34;display:inline"/>
<path d="M 10.03,29.06 L 6.59,34.96 C 6.62,35.04 6.68,35.11 6.71,35.18 L 12.15,29.75 C 11.54,29.32 10.83,29.06 10.06,29.06 C 10.05,29.06 10.04,29.06 10.03,29.06 z" id="p3361" style="fill:#e0b39f;fill-opacity:0.45;fill-rule:evenodd;stroke:none;display:inline"/>
<path d="M 8.03,32.09 C 7.27,32.09 6.60,32.46 6.18,33.03 C 6.14,34.26 6.21,35.71 6.21,35.71 C 6.16,35.71 7.27,36.22 8.37,36.59 C 9.45,36.41 10.28,35.50 10.28,34.37 C 10.28,33.12 9.28,32.09 8.03,32.09 z" id="p3325" style="fill:#222222;fill-opacity:1;fill-rule:evenodd;stroke:none;marker:none;visibility:visible;display:inline;overflow:visible;enable-background:accumulate"/>
<path d="M 8.87,29.28 C 8.23,29.50 7.69,29.90 7.25,30.43 L 6.5,34.71 C 6.52,34.79 6.56,34.86 6.59,34.93 L 8.87,29.28 z" id="p3363" style="fill:#ebccbd;fill-opacity:0.45;fill-rule:evenodd;stroke:none;display:inline"/>
<path d="M 8.03,32.09 C 7.27,32.09 6.60,32.46 6.18,33.03 C 6.14,34.20 6.21,35.48 6.21,35.62 L 8.43,33.71 L 9.90,33.12 C 9.50,32.50 8.82,32.09 8.03,32.09 z" id="p3339" style="fill:#9a9a9a;fill-opacity:0.58;fill-rule:evenodd;stroke:none;display:inline"/>
<path d="M 10.28,34.34 L 6.53,35.87 C 6.86,36.03 7.54,36.31 8.37,36.59 C 9.45,36.41 10.28,35.50 10.28,34.37 C 10.28,34.36 10.28,34.35 10.28,34.34 z" id="p3341" style="fill:#555555;fill-opacity:0.32;fill-rule:evenodd;stroke:none;display:inline"/>
<path d="M 8.03,32.09 C 7.85,32.09 7.66,32.11 7.5,32.15 L 6.18,35.28 C 6.19,35.43 6.21,35.71 6.21,35.71 L 9.15,32.40 C 8.82,32.21 8.44,32.09 8.03,32.09 z" id="p3345" style="fill:#555555;fill-opacity:0.58;fill-rule:evenodd;stroke:none;display:inline"/>
<path d="M 39.68,7.75 C 39.43,7.77 39.19,7.83 39.03,7.93 C 38.79,8.07 36.87,9.38 34.56,10.96 C 38.20,10.59 41.29,10.11 41.12,13.90 C 41.16,13.87 41.60,13.51 41.62,13.5 C 42.91,12.46 42.99,10.14 42.25,9.09 C 41.48,8.00 40.45,7.68 39.68,7.75 z" id="p3413" style="fill:#650805;fill-opacity:0.09;fill-rule:evenodd;stroke:none;display:inline"/>
<path d="M 42.5,12.21 C 38.57,14.14 31.88,18.80 30.21,20.15 C 28.71,21.38 24.88,24.92 20.84,29.90 C 29.35,23.26 40.78,14.16 41.62,13.5 C 42.03,13.17 42.31,12.72 42.5,12.21 z" id="p3419" style="fill:#521917;fill-opacity:0.09;fill-rule:evenodd;stroke:none;display:inline"/>
<path d="M 39.59,15.09 C 36.30,16.84 33.13,19.14 31.25,20.56 C 29.26,22.06 28.01,23.51 26.53,25.46 C 32.75,20.56 37.60,16.68 39.59,15.09 z" id="p3422" style="fill:#f1dec9;fill-opacity:0.25;fill-rule:evenodd;stroke:none;"/>
<path d="M 6.20,35.72 C 6.20,35.72 6.07,32.49 6.33,31.58 C 6.59,30.68 7.23,29.77 8.40,29.00 C 9.56,28.22 37.25,9.07 38.31,8.46 C 39.70,7.65 41.22,7.68 42.35,9.05 C 43.17,10.03 43.36,12.02 41.61,13.49 C 40.34,14.55 12.92,36.36 11.76,36.75 C 11.17,36.94 10.36,37.14 9.10,36.83 C 7.84,36.53 6.13,35.72 6.20,35.72 z" id="stroke01" style="fill:none;fill-opacity:1;fill-rule:evenodd;stroke:#291504;stroke-width:0.5;stroke-linecap:butt;stroke-linejoin:miter;stroke-miterlimit:4;stroke-dasharray:none;stroke-opacity:1"/>
</g>
</svg>
