<?xml version="1.0" encoding="UTF-8" standalone="no"?>
<!DOCTYPE svg PUBLIC "-//W3C//DTD SVG 1.0//EN" "http://www.w3.org/TR/2001/REC-SVG-20010904/DTD/svg10.dtd">
<svg xmlns:svg="http://www.w3.org/2000/svg" xmlns="http://www.w3.org/2000/svg" version="1.0" width="100%" height="100%" viewBox="0 0 48 48" id="_pencil02" style="display:inline">
<defs id="defs2385"/>
<g id="pencil02" style="display:inline">
<path d="M 4.04,42.71 C 4.04,42.71 9.85,40.01 10.47,39.70 C 11.09,39.39 37.02,16.57 37.22,16.16 C 37.43,15.74 37.95,15.12 38.57,14.81 C 39.19,14.50 39.61,14.19 40.02,13.77 C 40.44,13.36 41.06,12.74 41.47,12.43 C 41.89,12.12 42.72,11.18 42.72,11.18 C 42.72,11.18 44.27,9.94 44.38,9.52 C 44.48,9.11 43.96,8.38 43.44,7.76 C 42.93,7.14 42.30,6.62 41.99,6.72 C 41.68,6.83 39.82,8.80 39.19,9.21 C 38.57,9.63 37.84,10.35 37.33,10.77 C 36.81,11.18 35.04,12.95 34.32,13.36 C 33.59,13.77 8.71,35.97 8.19,36.48 C 7.67,37.00 3.94,42.91 4.04,42.71 z" id="p2752" style="fill:#d6964c;fill-opacity:1;fill-rule:evenodd;stroke:none;"/>
<path d="M 35.59,12.71 C 35.41,12.68 35.21,12.74 35.03,12.84 C 34.92,12.93 34.84,12.98 34.75,13.06 C 34.65,13.15 34.55,13.25 34.46,13.40 C 34.32,13.50 34.19,13.55 34.06,13.59 C 34.01,13.63 33.86,13.74 33.78,13.81 C 34.74,14.46 33.41,17.29 33.25,15.09 C 33.27,14.78 33.32,14.49 33.34,14.18 C 33.07,14.41 32.82,14.63 32.43,14.96 C 32.41,14.98 32.39,15.01 32.37,15.03 C 32.36,15.03 32.34,15.02 32.34,15.03 C 32.18,15.16 31.98,15.37 31.81,15.53 C 32.14,16.31 31.92,17.54 31.21,16.31 C 31.18,16.23 31.15,16.16 31.12,16.09 C 30.97,16.22 30.87,16.33 30.71,16.46 C 31.14,17.29 31.58,18.10 32.34,18.56 C 32.66,20.45 31.03,18.29 30.71,17.65 C 30.53,17.41 30.35,17.16 30.18,16.90 C 29.65,17.37 28.94,18.03 28.34,18.56 C 28.42,18.53 28.54,18.50 28.71,18.5 L 28.78,18.46 C 29.10,19.23 28.17,18.93 28.18,18.68 C 26.42,20.24 24.53,21.91 22.46,23.75 C 23.29,24.30 21.55,26.15 21.18,24.87 C 21.18,24.87 21.15,24.87 21.15,24.87 C 20.46,25.48 20.45,25.55 19.78,26.15 C 19.17,27.11 18.62,28.16 17.59,28.09 C 17.09,28.53 16.96,28.64 16.5,29.06 C 16.42,29.45 16.19,29.75 15.75,29.75 C 15.74,29.75 15.72,29.74 15.71,29.75 C 15.01,30.37 14.59,30.77 14,31.31 C 14.04,31.65 14.03,31.97 13.93,32.31 C 13.68,33.18 13.14,32.78 12.65,32.5 C 12.43,32.69 12.09,33.01 11.90,33.18 C 12.02,34.17 11.50,35.68 10.84,34.12 C 10.33,34.58 8.24,36.44 8.18,36.5 C 8.10,36.58 7.82,36.97 7.59,37.31 C 8.04,38.83 9.52,37.85 9.06,36.46 C 9.00,35.71 9.35,35.12 9.40,36.28 C 9.79,37.61 10.26,36.25 10.31,35.65 C 11.53,35.15 10.86,37.73 11.06,38.46 C 11.02,38.66 11.02,38.92 11.06,39.21 C 11.34,38.98 11.61,38.76 12.18,38.28 C 12.18,38.16 12.23,38.00 12.31,37.71 C 12.35,37.53 12.40,37.33 12.46,37.15 C 12.62,37.40 12.59,37.71 12.53,37.96 C 12.63,37.87 12.79,37.75 12.90,37.65 C 12.82,37.00 12.75,36.34 12.96,35.71 C 13.59,34.23 14.09,35.46 13.59,36.37 C 13.54,36.58 13.57,36.79 13.65,37 C 14.39,36.36 15.23,35.64 16.15,34.84 C 16.06,34.68 16.01,34.45 16,34.12 C 16.14,33.46 16.56,32.88 17.06,32.43 C 17.66,32.54 17.91,32.88 17.93,33.28 C 18.61,32.68 19.30,32.07 20.03,31.43 C 19.77,31.61 19.47,31.61 19.90,31 C 19.91,30.93 19.92,30.87 19.93,30.81 C 20.50,30.91 20.29,31.26 20.03,31.43 C 20.80,30.76 21.48,30.20 22.28,29.5 C 22.10,29.48 21.87,29.28 22.31,29.18 C 22.37,29.26 22.39,29.32 22.40,29.37 C 22.83,29.00 23.16,28.71 23.59,28.34 C 23.36,27.56 23.14,26.67 23.78,25.96 C 24.17,24.90 25.14,24.37 25.5,25.75 C 25.57,25.97 25.66,26.20 25.78,26.40 C 25.90,26.29 26.00,26.20 26.12,26.09 C 26.10,26.01 26.07,25.94 26.06,25.81 C 26.02,25.72 25.97,25.61 25.93,25.53 C 26.29,25.40 26.45,25.55 26.5,25.75 C 26.55,25.70 26.60,25.67 26.65,25.62 C 25.21,24.66 25.61,22.46 26.5,21.25 C 26.35,22.56 27.58,23.93 27.12,25.18 C 27.50,24.85 27.84,24.57 28.21,24.25 C 28.19,24.24 28.17,24.22 28.15,24.21 C 27.55,23.10 28.51,21.95 28.59,20.84 C 29.31,21.07 29.69,22.09 29.65,22.96 C 29.76,22.87 29.89,22.78 30,22.68 C 30.00,22.67 29.99,22.66 30,22.65 C 30.00,22.42 30.01,22.19 29.96,21.96 C 30.18,22.01 30.29,22.16 30.37,22.34 C 30.64,22.10 30.96,21.82 31.21,21.59 C 31.19,21.00 31.30,20.55 31.87,20.53 C 31.95,20.63 32.01,20.73 32.06,20.84 C 32.43,20.51 32.91,20.11 33.25,19.81 C 33.25,19.80 33.24,19.78 33.25,19.78 C 33.30,19.62 33.40,19.48 33.53,19.37 C 33.59,19.38 33.63,19.39 33.68,19.40 C 33.79,19.31 33.86,19.24 33.96,19.15 C 33.77,18.33 33.97,17.64 35.18,17.90 C 35.23,17.91 35.27,17.93 35.31,17.93 C 35.81,17.48 36.13,17.18 36.43,16.90 C 36.46,16.11 36.22,15.08 36.5,14.5 C 36.72,13.60 36.22,12.82 35.59,12.71 z M 35.62,12.93 C 36.29,14.01 34.72,14.04 35.62,12.93 z M 34.90,14.96 C 35.96,15.97 33.98,16.13 34.90,14.96 z M 29.84,17.31 C 30.21,17.37 29.57,17.60 29.84,17.31 z M 29.75,18.68 C 30.24,19.01 29.25,18.97 29.75,18.68 z M 28.87,19.87 C 29.86,20.30 28.03,20.45 28.87,19.87 z M 30.40,20.06 C 31.22,20.93 29.92,21.05 30.40,20.06 z M 27.21,20.09 C 28.32,20.66 26.42,22.43 26.96,20.62 C 27.01,20.43 27.09,20.24 27.21,20.09 z M 27.78,20.34 C 28.94,20.96 27.06,21.36 27.78,20.34 z M 23.68,22.09 L 23.65,22.18 L 23.68,22.09 z M 25.46,22.34 C 25.65,22.67 25.01,22.57 25.46,22.34 z M 24.37,24.40 C 25.51,24.47 23.68,25.09 24.37,24.40 z M 21.09,25.96 C 22.34,26.02 20.44,27.70 21.06,26.15 C 21.07,26.09 21.08,26.03 21.09,25.96 z M 20.43,26.09 C 21.00,26.96 19.22,27.32 20.31,26.34 C 20.35,26.26 20.39,26.17 20.43,26.09 z M 20.71,27.25 C 22.66,27.30 20.21,30.89 20.37,28.56 C 20.53,28.13 20.69,27.71 20.71,27.25 z M 19.87,28.37 C 20.32,29.54 18.73,28.97 19.87,28.37 z M 17.40,28.87 C 18.41,29.58 15.98,29.76 17.28,29 L 17.40,28.87 z M 18.96,29.71 C 20.48,29.61 18.31,31.96 18.87,30.21 L 18.90,29.96 L 18.96,29.71 z M 15.75,30.62 C 15.77,30.68 15.53,30.93 15.62,30.65 C 15.71,30.61 15.74,30.60 15.75,30.62 z M 16.71,30.81 C 17.15,30.70 16.21,31.78 16.43,30.93 C 16.56,30.86 16.65,30.82 16.71,30.81 z M 15.06,30.87 C 16.25,31.32 14.26,31.98 15.06,30.87 z M 17.59,31.68 C 18.28,32.42 16.67,31.82 17.59,31.68 z M 16.15,31.71 C 16.93,32.69 15.08,32.52 16.15,31.71 z M 14.78,32.43 C 15.40,33.27 14.17,33.47 14.78,32.43 z M 12.37,33.68 C 12.82,34.67 11.93,34.72 12.37,33.68 z" id="p3701" style="fill:#b56804;fill-opacity:0.2;fill-rule:evenodd;stroke:none;display:inline"/>
<path d="M 37.06,15.15 L 9.46,39.43 L 8.81,39.18 L 9.59,40.12 C 9.84,40.00 10.38,39.76 10.46,39.71 C 11.07,39.41 35.82,17.62 37.03,16.34 L 37.06,15.15 z" id="p3733" style="fill:#f0dbc5;fill-opacity:0.43;fill-rule:evenodd;stroke:none;display:inline"/>
<path d="M 35.62,12.31 C 35.12,12.76 34.61,13.20 34.31,13.37 C 33.58,13.78 8.70,35.98 8.18,36.5 C 8.03,36.65 7.59,37.30 7.06,38.09 L 7.40,38.93 L 36.93,13 L 35.62,12.31 z" id="p3735" style="fill:#291c0b;fill-opacity:0.45;fill-rule:evenodd;stroke:none;display:inline"/>
<path d="M 8.30,37.90 L 35.13,14.26" id="p3730" style="fill:none;fill-rule:evenodd;stroke:#ffc37b;stroke-width:0.5;stroke-linecap:butt;stroke-linejoin:miter;stroke-miterlimit:4;stroke-dasharray:none;stroke-opacity:0.59;display:inline"/>
<path d="M 7.78,37.06 C 6.74,38.48 3.93,42.90 4.03,42.71 C 4.03,42.71 9.53,40.17 10.34,39.78 C 10.21,39.59 10.10,39.46 10.09,39.40 C 10.03,39.18 10.60,39.01 10.21,38.62 C 9.82,38.23 9.09,38.67 8.87,38.34 C 8.65,38.00 9.10,37.79 8.65,37.40 C 8.37,37.15 8.19,37.10 7.78,37.06 z" id="p3530" style="fill:#b88e78;fill-opacity:1;fill-rule:evenodd;stroke:none;"/>
<path d="M 10.18,38.62 C 9.95,38.69 9.71,38.75 9.56,38.75 C 9.22,38.75 6.09,41.25 4.62,42.43 C 5.48,42.04 9.61,40.13 10.34,39.78 C 10.21,39.59 10.10,39.46 10.09,39.40 C 10.03,39.18 10.60,39.01 10.21,38.62 C 10.21,38.61 10.19,38.63 10.18,38.62 z" id="p3757" style="fill:#582d12;fill-opacity:0.33;fill-rule:evenodd;stroke:none;display:inline"/>
<path d="M 9.06,38.46 C 8.25,39.20 5.22,41.73 4.09,42.68 C 4.20,42.63 9.54,40.17 10.34,39.78 C 10.21,39.59 10.10,39.46 10.09,39.40 C 10.03,39.18 10.60,39.01 10.21,38.62 C 9.90,38.31 9.37,38.53 9.06,38.46 z" id="p3763" style="fill:#a87459;fill-opacity:0.41;fill-rule:evenodd;stroke:none;display:inline"/>
<path d="M 6.09,40.87 C 5.86,40.87 5.47,40.97 5.09,41.06 C 4.64,41.75 4.00,42.77 4.03,42.71 C 4.03,42.71 5.51,42.02 6.78,41.43 C 6.71,41.06 6.55,40.86 6.09,40.87 z" id="p3532" style="fill:#1b1c1c;fill-opacity:0.86;fill-rule:evenodd;stroke:none;"/>
<path d="M 42,6.71 C 41.68,6.82 39.80,8.80 39.18,9.21 C 38.56,9.63 37.86,10.36 37.34,10.78 C 36.82,11.19 35.03,12.96 34.31,13.37 C 34.29,13.38 34.15,13.51 34.12,13.53 C 34.48,14.43 35.23,15.46 36.71,16.65 C 36.87,16.51 37.20,16.17 37.21,16.15 C 37.42,15.74 37.94,15.12 38.56,14.81 C 39.18,14.50 39.61,14.19 40.03,13.78 C 40.44,13.36 41.05,12.74 41.46,12.43 C 41.88,12.12 42.71,11.18 42.71,11.18 C 42.71,11.18 44.27,9.94 44.37,9.53 C 44.47,9.11 43.95,8.37 43.43,7.75 C 42.91,7.12 42.31,6.61 42,6.71 z" id="p3542" style="fill:#f9e29c;fill-opacity:1;fill-rule:evenodd;stroke:none;display:inline"/>
<path d="M 42.31,9.62 C 42.31,9.62 40.51,10.77 40.43,11 C 40.36,11.22 39.76,11.59 39.34,11.78 C 38.92,11.97 38.64,12.64 38.03,13.03 C 37.42,13.41 37.14,13.25 36.68,13.59 C 36.32,13.86 36.01,14.57 35.31,15.31 C 35.69,15.73 36.12,16.18 36.71,16.65 C 36.87,16.51 37.20,16.17 37.21,16.15 C 37.42,15.74 37.94,15.12 38.56,14.81 C 39.18,14.50 39.61,14.19 40.03,13.78 C 40.44,13.36 41.05,12.74 41.46,12.43 C 41.88,12.12 42.71,11.18 42.71,11.18 C 42.71,11.18 42.92,11.03 43,10.96 L 42.31,9.62 z" id="p3554" style="fill:#492718;fill-opacity:0.43;fill-rule:evenodd;stroke:none;display:inline"/>
<path d="M 43.34,9.5 C 43.34,9.5 42.84,10.37 42.31,10.71 C 41.77,11.06 40.74,12.11 40.25,12.53 C 39.75,12.95 38.68,13.59 38.37,13.93 C 38.06,14.28 37.70,14.89 37.43,14.96 C 37.24,15.02 36.73,15.39 36.15,16.15 C 36.34,16.32 36.50,16.48 36.71,16.65 C 36.87,16.51 37.20,16.17 37.21,16.15 C 37.42,15.74 37.94,15.12 38.56,14.81 C 39.18,14.50 39.61,14.19 40.03,13.78 C 40.44,13.36 41.05,12.74 41.46,12.43 C 41.88,12.12 42.71,11.18 42.71,11.18 C 42.71,11.18 43.02,10.90 43.31,10.65 L 43.34,9.5 z" id="p3556" style="fill:#f4aa2d;fill-opacity:0.55;fill-rule:evenodd;stroke:none;display:inline"/>
<path d="M 34.45,14.08 L 35.32,13.37 C 35.32,13.37 35.70,13.70 36.08,13.32 C 36.45,12.94 36.45,12.24 36.45,12.24 L 38.13,10.89 C 38.13,10.89 39.37,10.13 39.69,9.81 C 40.02,9.48 40.50,8.78 40.50,8.78" id="p3572" style="fill:none;fill-rule:evenodd;stroke:#55351a;stroke-width:0.40;stroke-linecap:butt;stroke-linejoin:miter;stroke-miterlimit:4;stroke-dasharray:none;stroke-opacity:0.54;display:inline"/>
<path d="M 42,6.71 C 41.79,6.78 40.88,7.68 40.12,8.40 C 41.07,9.30 41.82,10.12 42.62,11.28 C 42.63,11.26 42.71,11.18 42.71,11.18 C 42.71,11.18 44.27,9.94 44.37,9.53 C 44.47,9.11 43.95,8.37 43.43,7.75 C 42.91,7.12 42.31,6.61 42,6.71 z" id="p3544" style="fill:#ae585b;fill-opacity:1;fill-rule:evenodd;stroke:none;display:inline"/>
<path d="M 39.31,9.12 C 39.27,9.14 39.21,9.20 39.18,9.21 C 39.05,9.30 38.91,9.41 38.78,9.53 C 38.80,9.58 38.81,9.64 38.84,9.68 C 39.64,10.59 40.26,11.65 41.06,12.56 C 41.07,12.61 41.11,12.66 41.15,12.71 C 41.26,12.62 41.37,12.50 41.46,12.43 C 41.51,12.40 41.60,12.32 41.65,12.28 C 41.51,12.14 41.36,12.02 41.25,11.87 C 40.55,11.00 39.94,10.05 39.31,9.12 z M 38.37,9.87 C 38.22,10.01 38.08,10.11 37.93,10.25 C 37.97,10.39 38.38,10.63 38.45,10.74 C 38.59,10.91 38.57,11.47 38.33,11.20 C 38.29,11.06 37.85,10.56 37.72,10.43 C 37.56,10.57 37.63,10.64 37.49,10.75 C 37.98,11.30 39.23,12.89 40.05,13.87 C 40.33,13.65 40.33,13.46 40.59,13.21 C 39.98,12.44 39.50,11.61 39,10.78 C 38.80,10.47 38.59,10.16 38.37,9.87 z M 36.56,11.37 C 36.40,11.52 36.48,11.56 36.28,11.75 C 36.32,11.85 36.22,12.08 36.29,12.16 C 36.81,13.16 37.40,14.13 38.07,15.04 C 38.17,14.97 38.45,14.86 38.56,14.81 C 38.15,14.25 37.28,12.81 36.75,12.05 C 36.67,11.88 36.65,11.54 36.56,11.37 z M 36.98,12.72 C 36.75,12.50 36.49,11.97 36.28,11.75 C 36.07,11.93 35.96,12.05 35.75,12.25 C 35.81,12.39 35.89,12.52 36,12.59 C 36.59,13.53 37.11,14.51 37.75,15.43 C 37.89,15.28 38.17,15.00 38.35,14.87 C 37.80,14.10 37.35,13.60 36.98,12.72 z M 35.12,12.78 C 34.89,12.97 34.90,12.94 34.73,13.06 C 35.59,14.08 36.31,15.24 37.02,16.39 C 37.19,16.27 37.13,16.21 37.28,16.06 C 36.76,15.04 36.05,14.16 35.37,13.25 C 35.28,13.09 35.20,12.93 35.12,12.78 z" id="p3602" style="fill:#63421c;fill-opacity:0.65;fill-rule:evenodd;stroke:none;display:inline"/>
<path d="M 40.53,9.28 C 40.20,9.49 40.25,9.93 40.26,10.27 C 40.17,10.76 39.66,10.16 39.42,10.42 C 39.17,10.69 38.63,10.53 38.52,10.94 C 38.45,11.30 38.23,11.62 37.88,11.74 C 37.63,11.81 37.27,11.86 37.24,12.17 C 37.10,12.47 36.61,12.27 36.50,12.61 C 36.45,12.90 36.40,13.30 36.07,13.41 C 35.74,13.36 35.55,13.62 35.42,13.88 C 35.27,13.98 34.79,13.74 34.83,14.14 C 34.86,14.56 35.48,14.79 35.75,14.45 C 35.97,14.25 36.16,14.01 36.43,13.88 C 36.52,13.52 36.79,13.22 37.16,13.18 C 37.45,12.98 37.61,12.57 38.00,12.55 C 38.35,12.42 38.42,11.96 38.77,11.83 C 39.08,11.87 39.50,11.76 39.53,11.39 C 39.55,11.00 39.94,10.96 40.24,11.04 C 40.66,11.08 40.73,10.60 40.68,10.29 C 40.59,9.96 41.08,9.74 40.86,9.43 C 40.78,9.32 40.63,9.36 40.53,9.28 z M 41.03,9.84 C 40.74,9.74 41.08,10.08 41.03,9.84 z" id="p3664" style="fill:#fbf2a3;fill-opacity:0.68;fill-rule:evenodd;stroke:none;display:inline"/>
<path d="M 36.58,14.62 C 37.30,14.74 37.30,14.15 37.30,14.15" id="p3689" style="fill:none;fill-rule:evenodd;stroke:#e8e989;stroke-width:0.30;stroke-linecap:round;stroke-linejoin:miter;stroke-miterlimit:4;stroke-dasharray:none;stroke-opacity:0.50"/>
<path d="M 37.13,14.07 C 37.13,14.66 36.43,14.41 36.43,14.07 C 36.43,13.73 37.13,13.50 37.13,14.07 z" id="p3691" style="fill:#714c25;fill-opacity:0.77;fill-rule:evenodd;stroke:none;marker:none;visibility:visible;display:inline;overflow:visible;enable-background:accumulate"/>
<path d="M 39.91,11.08 C 39.91,11.67 39.21,11.43 39.21,11.08 C 39.21,10.74 39.91,10.51 39.91,11.08 z" id="p3695" style="fill:#714c25;fill-opacity:0.53;fill-rule:evenodd;stroke:none;marker:none;visibility:visible;display:inline;overflow:visible;enable-background:accumulate"/>
<path d="M 39.48,11.55 C 40.20,11.66 40.20,11.08 40.20,11.08" id="p3699" style="fill:none;fill-rule:evenodd;stroke:#e8e989;stroke-width:0.30;stroke-linecap:round;stroke-linejoin:miter;stroke-miterlimit:4;stroke-dasharray:none;stroke-opacity:0.79;display:inline"/>
<path d="M 34.12,13.53 C 34.48,14.43 35.23,15.46 36.71,16.65" id="p3569" style="fill:none;fill-opacity:1;fill-rule:evenodd;stroke:#956938;stroke-width:0.40;stroke-linecap:butt;stroke-linejoin:miter;stroke-miterlimit:4;stroke-dasharray:none;stroke-opacity:1;display:inline"/>
<path d="M 40.12,8.40 C 41.07,9.30 41.82,10.12 42.62,11.28" id="p3566" style="fill:none;fill-opacity:1;fill-rule:evenodd;stroke:#46250a;stroke-width:0.30;stroke-linecap:butt;stroke-linejoin:miter;stroke-miterlimit:4;stroke-dasharray:none;stroke-opacity:1;display:inline"/>
<path d="M 4.04,42.71 C 4.04,42.71 9.85,40.01 10.47,39.70 C 11.09,39.39 36.93,16.52 37.22,16.16 C 37.43,15.91 38.23,15.25 38.57,14.98 C 39.11,14.54 39.61,14.19 40.02,13.77 C 40.44,13.36 41.06,12.74 41.47,12.43 C 41.89,12.12 42.72,11.18 42.72,11.18 C 42.72,11.18 44.27,9.94 44.38,9.52 C 44.48,9.11 43.96,8.38 43.44,7.76 C 42.93,7.14 42.30,6.62 41.99,6.72 C 41.68,6.83 39.82,8.80 39.19,9.21 C 38.57,9.63 37.84,10.35 37.33,10.77 C 36.81,11.18 35.04,12.95 34.32,13.36 C 33.59,13.77 8.71,35.97 8.19,36.48 C 7.67,37.00 3.94,42.91 4.04,42.71 z" id="stroke01" style="fill:none;fill-opacity:1;fill-rule:evenodd;stroke:#0b0908;stroke-width:0.5;stroke-linecap:butt;stroke-linejoin:miter;stroke-miterlimit:4;stroke-dasharray:none;stroke-opacity:1;display:inline"/>
</g>
</svg>
