<?xml version="1.0" encoding="UTF-8" standalone="no"?>
<!DOCTYPE svg PUBLIC "-//W3C//DTD SVG 1.0//EN" "http://www.w3.org/TR/2001/REC-SVG-20010904/DTD/svg10.dtd">
<svg xmlns:svg="http://www.w3.org/2000/svg" xmlns="http://www.w3.org/2000/svg" version="1.0" width="100%" height="100%" viewBox="0 0 48 48" id="_pencil04">
<defs id="defs2385"/>
<g id="pencil04" style="display:inline">
<path d="M 2.41,45.37 L 7.45,42.45 C 7.45,42.45 44.75,5.26 45.15,4.85 C 45.55,4.45 43.54,2.64 43.14,2.94 C 42.73,3.24 5.14,40.94 5.14,40.94 L 2.41,45.37 z" id="p2482" style="fill:#4aac45;fill-opacity:1;fill-rule:evenodd;stroke:none"/>
<path d="M 5.02,41.21 L 2.4,45.37 L 7.37,42.53 C 7.16,42.36 6.71,42.38 6.34,42.46 C 6.55,41.95 6.02,41.66 5.68,41.9 C 5.93,41.24 5.25,40.78 5.02,41.21 z" id="p3257" style="fill:#dfcf8c;fill-opacity:1;fill-rule:evenodd;stroke:none"/>
<path d="M 3.44,43.67 L 2.47,45.26 L 4.16,44.3 C 3.96,43.9 3.74,43.74 3.44,43.67 z" id="p3263" style="fill:#312b16;fill-opacity:1;fill-rule:evenodd;stroke:none;display:inline"/>
<path d="M 43.12,2.93 C 43.06,2.98 40.91,5.15 39.31,6.75 L 41.28,8.75 C 42.02,8 45.11,4.91 45.15,4.87 C 45.55,4.47 43.52,2.63 43.12,2.93 z" id="p3269" style="fill:#e1ddcc;fill-opacity:1;fill-rule:evenodd;stroke:none;display:inline"/>
<path d="M 43.12,2.93 C 43.07,2.97 41.09,4.94 39.93,6.09 L 41.9,8.09 C 42.43,7.56 45.12,4.9 45.15,4.87 C 45.55,4.47 43.52,2.63 43.12,2.93 z" id="p3271" style="fill:#2c2a22;fill-opacity:1;fill-rule:evenodd;stroke:none;display:inline"/>
<path d="M 44.81,4.03 L 6.53,42.28 L 3.02,44.85 L 7.46,42.46 C 7.46,42.46 44.75,5.27 45.15,4.87 C 45.3,4.72 45.11,4.38 44.81,4.03 z" id="p3283" style="fill:#100f0b;fill-opacity:0.41;fill-rule:evenodd;stroke:none"/>
<path d="M 43.12,2.93 C 42.72,3.23 5.12,40.93 5.12,40.93 L 2.59,45.06 C 3.71,43.96 5.58,42.11 5.68,41.81 C 5.82,41.4 5.67,41.58 5.9,41.31 C 6.12,41.04 41.28,5.87 43.93,3.21 C 43.59,2.98 43.25,2.83 43.12,2.93 z" id="p3288" style="fill:#cfcab9;fill-opacity:0.23;fill-rule:evenodd;stroke:none"/>
<path d="M 23.47,24.74 C 23.83,24.67 23.7,25.32 23.38,25.2 C 23.03,25.17 22.74,24.78 22.88,24.44 C 22.94,24.26 23.41,24.37 23.16,24.51 C 22.9,24.6 23.05,25.06 23.31,25.03 C 23.46,25.04 23.61,24.85 23.47,24.74 z M 23.91,24.77 C 23.69,24.55 23.47,24.34 23.26,24.13 C 23.37,23.93 23.77,23.61 23.88,23.96 C 23.93,24.15 24.27,24.21 24.28,24.36 C 24.13,24.41 23.76,24.2 23.84,24.51 C 23.94,24.58 24.1,24.68 23.91,24.77 z M 23.64,24.29 C 24,24.25 23.52,23.74 23.51,24.13 C 23.52,24.2 23.59,24.24 23.64,24.29 z M 24.45,24.22 C 24.23,24 24.01,23.79 23.79,23.58 C 24.08,23.44 24.2,23.85 24.41,23.96 C 24.5,24.02 24.61,24.16 24.45,24.22 z M 24.78,23.87 C 24.58,23.72 24.44,23.42 24.15,23.43 C 23.88,23.43 24.2,23.02 24.39,23.05 C 24.44,23.24 24.42,23.47 24.66,23.53 C 24.76,23.6 24.92,23.76 24.78,23.87 z M 25.11,23.53 C 24.89,23.32 24.67,23.11 24.46,22.89 C 24.57,22.81 24.73,22.46 24.87,22.66 C 24.65,22.7 24.79,23.12 24.95,22.88 C 25.07,22.74 25.2,22.98 25.02,23 C 24.86,23.25 25.31,23.31 25.33,23.08 C 25.55,23.1 25.38,23.35 25.26,23.38 C 25.21,23.43 25.16,23.48 25.11,23.53 z M 25.61,23.02 C 25.39,22.8 25.17,22.59 24.95,22.38 C 25.06,22.18 25.47,21.86 25.58,22.21 C 25.63,22.4 25.97,22.46 25.98,22.61 C 25.83,22.67 25.46,22.45 25.54,22.76 C 25.64,22.83 25.79,22.93 25.61,23.02 z M 25.34,22.54 C 25.7,22.5 25.21,21.99 25.21,22.38 C 25.22,22.45 25.29,22.49 25.34,22.54 z M 26.15,22.47 C 25.93,22.25 25.71,22.04 25.49,21.83 C 25.78,21.69 25.89,22.1 26.11,22.21 C 26.19,22.27 26.31,22.41 26.15,22.47 z M 25.7,21.61 C 26,21.44 26.08,21.96 26.34,21.95 C 26.63,21.82 26.35,21.47 26.14,21.44 C 25.99,21.31 26.23,21.15 26.29,21.34 C 26.48,21.49 26.78,21.75 26.61,22.01 C 26.39,22.26 26.07,22.06 25.93,21.83 C 25.85,21.76 25.77,21.69 25.7,21.61 z M 26.89,21.7 C 26.67,21.48 26.46,21.27 26.24,21.06 C 26.37,20.77 26.7,21.15 26.84,21.1 C 26.74,20.97 26.49,20.59 26.81,20.62 C 27.01,20.73 27.29,20.99 27.31,21.17 C 27.12,21.29 27,20.8 26.89,20.93 C 27.03,21.04 27.3,21.43 26.95,21.41 C 26.84,21.37 26.65,21.11 26.6,21.22 C 26.7,21.36 27.05,21.46 26.89,21.7 z" id="text3293" style="fill:#000000;fill-opacity:0.86;stroke:none;display:inline"/>
<path d="M 34.38,13.69 C 34.61,13.65 34.56,13.97 34.49,14.09 C 34.42,14.27 34.11,14.31 34.04,14.1 C 33.88,13.83 33.83,13.46 34,13.18 C 34.07,13.01 34.39,13.03 34.32,13.25 C 34.25,13.37 34.04,13.31 34.04,13.48 C 34.01,13.64 34.05,13.81 34.12,13.95 C 34.28,14.13 34.5,13.87 34.38,13.69 L 34.38,13.69 z M 34.57,13.47 C 34.44,13.18 34.42,12.8 34.64,12.55 C 34.81,12.43 35.04,12.6 35.06,12.79 C 35.16,13.06 35.17,13.39 34.98,13.63 C 34.85,13.76 34.59,13.65 34.57,13.47 z M 34.68,13.35 C 34.77,13.59 35.13,13.35 35,13.16 C 34.98,13.02 34.97,12.84 34.83,12.76 C 34.61,12.68 34.55,13 34.62,13.15 C 34.64,13.22 34.66,13.29 34.68,13.35 z M 35.77,12.82 C 35.62,12.93 35.48,12.77 35.41,12.65 C 35.39,12.54 35.21,12.5 35.27,12.65 C 35.32,12.82 35.42,12.98 35.39,13.16 C 35.19,13.2 35.22,12.87 35.17,12.74 C 35.11,12.56 35.07,12.38 35.02,12.2 C 35.16,12.1 35.3,12.26 35.37,12.37 C 35.39,12.48 35.58,12.52 35.52,12.37 C 35.46,12.21 35.36,12.04 35.4,11.87 C 35.59,11.82 35.56,12.16 35.61,12.29 C 35.67,12.46 35.71,12.64 35.77,12.82 z M 36.13,12.46 C 35.92,12.55 35.92,12.23 35.88,12.09 C 35.85,12 35.81,11.73 35.75,11.76 C 35.63,11.89 35.46,11.59 35.67,11.58 C 35.76,11.48 35.85,11.29 36.02,11.34 C 35.98,11.51 35.84,11.71 35.96,11.88 C 36.04,12.07 36.07,12.27 36.13,12.46 z M 36.37,12.23 C 36.27,11.87 36.17,11.52 36.07,11.17 C 36.21,11.03 36.35,10.89 36.49,10.75 C 36.6,10.93 36.39,11.09 36.27,11.18 C 36.16,11.35 36.43,11.49 36.45,11.28 C 36.59,11.18 36.72,11.43 36.53,11.46 C 36.42,11.55 36.3,11.75 36.44,11.85 C 36.55,11.89 36.73,11.55 36.77,11.8 C 36.71,11.99 36.48,12.06 36.37,12.23 z" id="text3297" style="fill:#000000;fill-opacity:0.76;stroke:none;display:inline"/>
<path d="M 34.23,14.32 C 34.12,13.97 34.01,13.63 33.91,13.28 C 34.04,13.18 34.15,12.92 34.34,13.04 C 34.47,13.16 34.47,13.35 34.45,13.51 C 34.41,13.66 34.24,13.73 34.24,13.88 C 34.26,14.02 34.40,14.17 34.27,14.29 L 34.25,14.31 L 34.23,14.32 L 34.23,14.32 z M 34.07,13.34 C 33.99,13.51 34.31,13.67 34.33,13.45 C 34.40,13.29 34.12,13.15 34.07,13.34 z M 34.75,13.82 C 34.64,13.47 34.53,13.12 34.42,12.77 C 34.55,12.64 34.69,12.50 34.83,12.37 C 34.92,12.49 34.82,12.63 34.72,12.71 C 34.56,12.76 34.55,13.04 34.74,12.99 C 34.78,12.91 34.93,12.78 34.98,12.92 C 34.95,13.05 34.82,13.11 34.76,13.22 C 34.63,13.36 34.85,13.58 34.95,13.39 C 34.99,13.23 35.22,13.30 35.12,13.45 C 35.02,13.57 34.88,13.66 34.78,13.78 L 34.76,13.80 L 34.75,13.82 L 34.75,13.82 z M 35.26,13.31 C 35.15,12.96 35.04,12.61 34.93,12.26 C 35.06,12.11 35.22,12.32 35.30,12.42 C 35.31,12.51 35.52,12.64 35.43,12.46 C 35.38,12.29 35.32,12.11 35.27,11.93 C 35.41,11.80 35.46,12.08 35.48,12.18 C 35.55,12.41 35.63,12.65 35.70,12.88 C 35.56,13.04 35.38,12.81 35.31,12.68 C 35.27,12.58 35.12,12.61 35.21,12.73 C 35.24,12.89 35.37,13.08 35.34,13.23 C 35.31,13.26 35.29,13.28 35.26,13.31 z M 36.05,12.03 C 36.26,12.00 36.20,12.30 36.15,12.42 C 36.10,12.54 35.94,12.67 35.82,12.57 C 35.62,12.41 35.60,12.14 35.57,11.91 C 35.57,11.71 35.63,11.48 35.83,11.39 C 36.04,11.36 36.07,11.74 35.82,11.64 C 35.65,11.71 35.68,11.93 35.73,12.07 C 35.72,12.22 35.90,12.51 36.04,12.30 C 36.08,12.22 36.09,12.11 36.05,12.03 z M 36.37,12.22 C 36.26,11.87 36.15,11.52 36.04,11.17 C 36.18,11.01 36.26,11.30 36.26,11.41 C 36.33,11.64 36.41,11.87 36.48,12.11 C 36.44,12.14 36.40,12.18 36.37,12.22 z M 36.59,12.00 C 36.48,11.65 36.37,11.31 36.26,10.96 C 36.40,10.80 36.48,11.09 36.48,11.20 C 36.54,11.37 36.59,11.54 36.64,11.71 C 36.71,11.63 36.92,11.39 36.95,11.60 C 36.89,11.78 36.69,11.85 36.59,12.00 z" id="text2407" style="opacity:1;fill:#000000;fill-opacity:0.76;fill-rule:nonzero;stroke:none;marker:none;visibility:visible;display:inline;overflow:visible;enable-background:accumulate"/>
<path d="M 42.38,6.1 C 42.16,5.87 41.93,5.64 41.7,5.41 C 41.74,5.33 41.86,5.27 41.91,5.38 C 41.97,5.42 42.03,5.56 42.11,5.54 C 42.18,5.47 42.25,5.4 42.32,5.33 C 42.23,5.24 42.14,5.15 42.05,5.06 C 42.09,4.96 42.24,4.95 42.28,5.06 C 42.47,5.25 42.66,5.44 42.85,5.63 C 42.81,5.72 42.68,5.76 42.64,5.65 C 42.57,5.58 42.5,5.52 42.43,5.45 C 42.36,5.53 42.28,5.6 42.2,5.68 C 42.3,5.78 42.4,5.88 42.5,5.98 C 42.46,6.02 42.42,6.06 42.38,6.1 z M 42.29,4.82 C 42.42,4.71 42.52,4.56 42.68,4.47 C 42.83,4.42 43.02,4.57 42.99,4.74 C 43.08,4.77 43.2,4.73 43.26,4.82 C 43.36,4.92 43.39,5.1 43.28,5.2 C 43.18,5.31 43.08,5.4 42.97,5.51 C 42.74,5.28 42.52,5.05 42.29,4.82 z M 42.52,4.82 C 42.58,4.87 42.66,5.02 42.75,4.92 C 42.82,4.86 42.92,4.73 42.81,4.66 C 42.72,4.61 42.63,4.69 42.58,4.76 C 42.56,4.78 42.54,4.8 42.52,4.82 z M 42.79,5.09 C 42.86,5.13 42.88,5.24 42.97,5.25 C 43.06,5.22 43.14,5.14 43.17,5.05 C 43.2,4.94 43.04,4.85 42.96,4.93 C 42.9,4.98 42.85,5.04 42.79,5.09 z" id="text3301" style="fill:#ccc9ae;fill-opacity:0.86;stroke:none;display:inline"/>
<path d="M 27.6,20.35 C 27.64,20.18 27.86,20.11 27.96,20.28 C 28.03,20.33 28.04,20.5 27.92,20.39 C 27.86,20.37 27.76,20.21 27.8,20.35 C 27.8,20.42 27.88,20.59 27.8,20.62 C 27.72,20.54 27.66,20.44 27.6,20.35 z M 27.99,19.98 C 27.78,19.89 28.05,19.71 28.17,19.82 C 28.33,19.89 28.12,20.15 28.31,20.11 C 28.37,20.19 28.14,20.31 28.08,20.22 C 28.03,20.1 28.18,19.89 27.99,19.87 C 27.97,19.9 27.99,19.95 27.99,19.98 z M 28.33,19.94 C 28.44,19.9 28.58,19.75 28.37,19.75 C 28.2,19.77 28.1,19.6 28.25,19.49 C 28.4,19.36 28.31,19.6 28.34,19.66 C 28.44,19.63 28.57,19.58 28.6,19.74 C 28.63,19.85 28.56,20.03 28.42,19.99 C 28.38,19.98 28.35,19.96 28.33,19.94 z M 28.62,19.65 C 28.73,19.61 28.86,19.45 28.66,19.46 C 28.48,19.48 28.39,19.31 28.54,19.2 C 28.69,19.07 28.59,19.31 28.63,19.37 C 28.73,19.34 28.86,19.29 28.88,19.44 C 28.92,19.56 28.84,19.74 28.7,19.7 C 28.67,19.69 28.64,19.67 28.62,19.65 z M 29.24,18.9 C 29.11,18.98 29.16,19.15 29.13,19.27 C 29.03,19.17 28.94,19.05 28.89,18.92 C 28.96,18.84 29.24,18.95 29.15,18.75 C 29.09,18.68 29.07,18.59 29.19,18.64 C 29.3,18.71 29.42,18.92 29.35,19.03 C 29.3,19 29.27,18.95 29.24,18.9 z M 29.52,18.95 C 29.33,18.85 29.22,18.58 29.36,18.4 C 29.48,18.24 29.68,18.37 29.73,18.51 C 29.86,18.7 29.64,18.84 29.52,18.95 z M 29.42,18.6 C 29.56,18.57 29.54,18.35 29.39,18.44 C 29.34,18.48 29.39,18.56 29.42,18.6 z M 29.55,18.8 C 29.68,18.77 29.72,18.55 29.54,18.59 C 29.45,18.63 29.51,18.74 29.55,18.8 z M 30.09,18.22 C 30.13,18.32 30.03,18.43 29.97,18.31 C 29.85,18.21 29.86,18.01 29.98,17.97 C 30.04,17.83 30.21,18.17 30.21,18.27 C 30.17,18.31 30.12,18.24 30.09,18.22 z M 30.38,17.93 C 30.42,18.03 30.32,18.14 30.25,18.02 C 30.14,17.91 30.15,17.71 30.27,17.68 C 30.33,17.54 30.5,17.88 30.5,17.98 C 30.46,18.01 30.41,17.95 30.38,17.93 z" id="text3341" style="fill:#000000;fill-opacity:0.76;stroke:none;display:inline"/>
<path d="M 2.41,45.37 L 7.45,42.45 C 7.45,42.45 44.75,5.26 45.15,4.85 C 45.55,4.45 43.54,2.64 43.14,2.94 C 42.73,3.24 5.14,40.94 5.14,40.94 L 2.41,45.37 z" id="stroke01" style="fill:none;fill-opacity:1;fill-rule:evenodd;stroke:#10140e;stroke-width:0.5;stroke-linecap:butt;stroke-linejoin:miter;stroke-miterlimit:4;stroke-dasharray:none;stroke-opacity:1"/>
</g>
</svg>
