<?xml version="1.0" encoding="UTF-8" standalone="no"?>
<!DOCTYPE svg PUBLIC "-//W3C//DTD SVG 1.0//EN" "http://www.w3.org/TR/2001/REC-SVG-20010904/DTD/svg10.dtd">
<svg xmlns:svg="http://www.w3.org/2000/svg" xmlns="http://www.w3.org/2000/svg" version="1.0" width="100%" height="100%" viewBox="0 0 48 48" id="_pentel01">
<defs id="defs2385"/>
<g id="pentel01" style="display:inline">
<path d="M 23.42,37.48 C 22.55,38.08 23.85,40.33 24.57,39.95 C 25.28,39.59 44.65,29.32 45.02,29.07 C 45.39,28.82 44.36,26.06 43.46,26.51 C 42.55,26.97 24.31,36.86 23.42,37.48 z" id="p3340" style="fill:#1f1c23;fill-opacity:1;fill-rule:evenodd;stroke:none"/>
<path d="M 25.39,37.84 L 44.05,27.68" id="p3351" style="fill:none;fill-rule:evenodd;stroke:#000000;stroke-width:1.38;stroke-linecap:butt;stroke-linejoin:miter;stroke-miterlimit:4;stroke-dasharray:none;stroke-opacity:0.62;display:inline"/>
<path d="M 25.56,36.28 C 24.69,36.76 23.54,37.4 23.4,37.5 C 22.54,38.09 23.83,40.34 24.56,39.96 C 24.64,39.92 26.36,39 26.84,38.75 C 26.56,37.5 26.12,36.83 25.56,36.28 z" id="p3345" style="fill:#fcf4f2;fill-opacity:1;fill-rule:evenodd;stroke:none"/>
<path d="M 26.25,37.15 L 24.96,37.84 L 25.43,38.71 L 26.65,38.09 C 26.53,37.72 26.4,37.42 26.25,37.15 z" id="p3365" style="fill:#444444;fill-opacity:0.33;fill-rule:evenodd;stroke:none;display:inline"/>
<path d="M 26.74,36.9 L 43.95,27.57" id="p3354" style="fill:none;fill-rule:evenodd;stroke:#564e34;stroke-width:0.30;stroke-linecap:round;stroke-linejoin:miter;stroke-miterlimit:4;stroke-dasharray:none;stroke-opacity:0.43;display:inline"/>
<path d="M 43.62,26.46 C 43.56,26.47 43.52,26.5 43.46,26.53 C 43.44,26.54 43.01,26.78 42.96,26.81 C 43.6,27.28 44.08,27.98 44.37,29.43 C 44.42,29.4 45.01,29.07 45.03,29.06 C 45.37,28.83 44.48,26.39 43.62,26.46 z" id="p3348" style="fill:#c2c3bd;fill-opacity:1;fill-rule:evenodd;stroke:none;display:inline"/>
<path d="M 25.87,36.62 C 25.96,37.32 26.27,38 26.81,38.59 C 26.58,37.68 26.26,37.09 25.87,36.62 z" id="p3363" style="fill:#4d4e47;fill-opacity:0.48;fill-rule:evenodd;stroke:none;display:inline"/>
<path d="M 24.50,39.70 C 24.32,39.88 23.92,39.60 23.62,39.09 C 23.32,38.57 23.22,38.02 23.40,37.84 C 23.58,37.67 23.98,37.94 24.28,38.46 C 24.58,38.97 24.68,39.53 24.50,39.70 z" id="p3369" style="fill:none;fill-opacity:1;fill-rule:nonzero;stroke:#1b190f;stroke-width:0.20;stroke-linecap:round;stroke-linejoin:round;marker:none;stroke-miterlimit:4;stroke-dasharray:none;stroke-dashoffset:0;stroke-opacity:0.4;visibility:visible;display:inline;overflow:visible;enable-background:accumulate"/>
<path d="M 27.83,35.61 C 27.83,35.61 29.38,35.45 29.42,35.3 C 29.46,35.14 29.3,35.1 29.69,34.91 C 30.08,34.71 30.43,34.52 30.62,34.4 C 30.81,34.29 30.35,33.79 29.81,34.02 C 29.27,34.25 27.87,35.57 27.83,35.61 z" id="p3382" style="fill:#f8f8d4;fill-opacity:0.92;fill-rule:evenodd;stroke:none;display:inline"/>
<path d="M 30.8,33.48 C 30.97,33.41 31.12,33.3 31.3,33.27 C 31.49,33.34 31.55,33.6 31.44,33.76 C 31.25,33.78 31.14,34.03 31.26,34.19 C 31.17,34.37 30.89,34.21 30.93,34.04 C 30.94,33.84 30.84,33.67 30.8,33.48 z M 31.13,33.74 C 31.3,33.81 31.17,33.45 31.08,33.62 C 31.09,33.66 31.13,33.7 31.13,33.74 z M 32.21,33.48 C 32.11,33.47 31.88,33.65 32.09,33.66 C 32.27,33.82 31.96,34 31.81,33.92 C 31.62,33.87 31.54,33.66 31.6,33.49 C 31.65,33.3 31.87,33.13 32.06,33.24 C 32.15,33.29 32.21,33.38 32.21,33.48 z M 31.98,33.46 C 31.99,33.3 31.78,33.56 31.95,33.48 L 31.96,33.47 L 31.98,33.46 L 31.98,33.46 z M 32.19,33.07 C 32.38,33.07 32.5,32.84 32.69,32.91 C 32.84,33.01 32.95,33.24 32.85,33.41 C 32.66,33.55 32.69,33.16 32.53,33.2 C 32.38,33.3 32.66,33.46 32.5,33.56 C 32.31,33.68 32.27,33.4 32.25,33.27 C 32.24,33.2 32.23,33.13 32.19,33.07 z M 33.01,32.39 C 33.06,32.57 33.25,32.72 33.18,32.92 C 33.27,33.02 33.4,33.31 33.16,33.28 C 32.98,33.22 32.96,33 32.87,32.85 C 32.81,32.69 32.9,32.51 33.01,32.39 z M 33.95,32.62 C 33.85,32.61 33.62,32.79 33.84,32.81 C 34.01,32.96 33.7,33.15 33.55,33.06 C 33.36,33.01 33.28,32.8 33.34,32.63 C 33.39,32.44 33.61,32.27 33.8,32.38 C 33.89,32.43 33.95,32.52 33.95,32.62 z M 33.72,32.61 C 33.73,32.44 33.52,32.7 33.69,32.63 L 33.7,32.62 L 33.72,32.61 L 33.72,32.61 z M 33.87,31.97 C 34.01,31.86 34.21,32.04 34.18,32.2 C 34.16,32.37 34.33,32.51 34.29,32.67 C 34.23,32.85 34.03,32.72 34.02,32.58 C 33.99,32.43 33.99,32.27 33.92,32.13 C 33.9,32.08 33.89,32.02 33.87,31.97 z" id="text3385" style="fill:#fbfbea;fill-opacity:0.92;stroke:none;display:inline"/>
<path d="M 34.96,32.35 C 34.76,32.12 34.56,31.89 34.35,31.66 C 34.56,31.55 34.77,31.44 34.98,31.33 C 34.99,31.56 34.69,31.52 34.62,31.67 C 34.59,31.85 34.85,31.94 34.93,31.77 C 34.99,31.69 35.17,31.75 35.03,31.82 C 34.88,31.92 34.88,32.12 35.02,32.22 C 35.05,32.27 35.04,32.35 34.96,32.35 z M 35.75,31.94 C 35.55,31.71 35.34,31.48 35.14,31.25 C 35.39,31.13 35.63,30.94 35.92,31 C 36.1,31.05 36.13,31.34 35.96,31.42 C 35.78,31.41 35.64,31.67 35.79,31.79 C 35.84,31.83 35.83,31.94 35.75,31.94 z M 35.55,31.51 C 35.68,31.45 35.9,31.39 35.88,31.21 C 35.83,31.06 35.62,31.06 35.51,31.14 C 35.36,31.22 35.39,31.47 35.55,31.51 z M 37.01,31.29 C 36.82,31.33 36.68,31.16 36.63,31 C 36.55,30.88 36.33,30.98 36.26,30.84 C 36.24,30.67 36.49,30.66 36.57,30.77 C 36.65,30.84 36.68,30.96 36.76,31.03 C 36.84,31.12 36.93,31.2 37.01,31.29 z M 37,30.8 C 36.81,30.69 36.8,30.35 37.03,30.28 C 37.21,30.21 37.44,30.28 37.56,30.43 C 37.69,30.54 37.8,30.73 37.72,30.89 C 37.57,31.1 37.23,31.08 37.08,30.88 C 37.05,30.85 37.02,30.83 37,30.8 z M 37.12,30.74 C 37.2,30.88 37.39,30.98 37.55,30.91 C 37.68,30.77 37.56,30.56 37.44,30.47 C 37.33,30.37 37.15,30.3 37.03,30.39 C 36.92,30.48 37.01,30.63 37.09,30.71 L 37.1,30.72 L 37.12,30.74 L 37.12,30.74 z" id="text3391" style="fill:#fbfbea;fill-opacity:0.92;stroke:none;display:inline"/>
<path d="M 38.06,29.65 C 38.22,29.64 38.33,29.79 38.35,29.94 C 38.4,30.09 38.51,30.25 38.44,30.42 C 38.36,30.56 38.12,30.53 38.08,30.38 C 38.24,30.36 38.35,30.16 38.25,30.02 C 38.18,29.9 38.11,29.78 38.06,29.65 z M 39.21,30.09 C 39.07,30.16 38.9,29.94 38.81,30.12 C 38.7,30.22 38.52,30.12 38.56,29.98 C 38.56,29.85 38.53,29.73 38.48,29.62 C 38.46,29.46 38.71,29.42 38.77,29.55 C 38.84,29.66 38.92,29.77 39,29.87 C 39.07,29.94 39.14,30.02 39.21,30.09 z M 38.84,29.87 C 38.83,29.74 38.69,29.96 38.81,29.91 C 38.82,29.9 38.84,29.89 38.84,29.87 z M 39.27,30.06 C 39.15,29.79 39.03,29.53 38.9,29.26 C 39.03,29.2 39.17,29.11 39.32,29.14 C 39.47,29.22 39.54,29.4 39.49,29.56 C 39.34,29.58 39.25,29.79 39.35,29.91 C 39.38,29.97 39.35,30.06 39.27,30.06 z M 39.08,29.34 C 39.04,29.49 39.29,29.59 39.35,29.45 C 39.38,29.31 39.16,29.22 39.08,29.34 z M 40.29,29.59 C 40.16,29.66 39.99,29.44 39.89,29.63 C 39.78,29.72 39.6,29.63 39.65,29.48 C 39.64,29.36 39.61,29.23 39.57,29.12 C 39.55,28.96 39.8,28.92 39.86,29.05 C 39.92,29.17 40,29.27 40.09,29.37 C 40.15,29.45 40.22,29.52 40.29,29.59 z M 39.93,29.38 C 39.91,29.24 39.78,29.46 39.89,29.41 C 39.91,29.4 39.92,29.39 39.93,29.38 z M 40.36,29.56 C 40.23,29.3 40.11,29.03 39.99,28.76 C 40.14,28.72 40.31,28.82 40.36,28.97 C 40.5,28.98 40.4,28.64 40.57,28.75 C 40.66,28.85 40.61,29.03 40.73,29.11 C 40.85,29.21 40.68,29.46 40.56,29.31 C 40.53,29.22 40.35,29.12 40.36,29.28 C 40.38,29.37 40.5,29.51 40.36,29.56 z" id="text3395" style="fill:#e4e4d4;fill-opacity:0.92;stroke:none;display:inline"/>
<path d="M 1.98,40.07 L 5.89,37.26 L 5.85,37.03 L 7.27,35.92 L 7.27,35.32 L 10.32,33.71 L 10.22,33.3 L 21.42,27.22 C 21.42,27.22 21.24,26.94 21.47,26.8 C 21.7,26.66 21.82,26.62 22.05,26.48 C 22.28,26.34 22.34,26.57 22.34,26.57 C 22.34,26.57 41.38,16.55 42.76,15.9 C 45.13,14.8 46.61,17.75 44.38,19.07 C 42.46,20.21 24.51,30.44 24.51,30.44 C 24.51,30.44 24.65,30.73 24.42,30.87 C 24.19,31.01 23.95,31.13 23.77,31.18 C 23.59,31.22 23.4,31.04 23.4,31.04 L 12.2,36.89 L 11.84,36.61 C 11.84,36.61 9.12,38.09 8.89,38.23 C 8.66,38.37 8.24,37.86 8.24,37.86 L 6.63,38.5 L 6.54,38.37 L 1.98,40.07 z" id="p3502" style="fill:#201f1d;fill-opacity:1;fill-rule:evenodd;stroke:none"/>
<path d="M 6.22,37.77 L 45.09,16.58" id="p3510" style="fill:none;fill-rule:evenodd;stroke:#000000;stroke-width:2.20;stroke-linecap:butt;stroke-linejoin:miter;stroke-miterlimit:4;stroke-dasharray:none;stroke-opacity:0.62;display:inline"/>
<path d="M 23.11,27.79 L 44.01,16.58" id="p3513" style="fill:none;fill-rule:evenodd;stroke:#e7e7e7;stroke-width:0.5;stroke-linecap:round;stroke-linejoin:miter;stroke-miterlimit:4;stroke-dasharray:none;stroke-opacity:0.47;display:inline"/>
<path d="M 10.31,33.71 C 11.56,34.54 11.76,35.63 11.83,36.6" id="p3526" style="fill:none;fill-rule:evenodd;stroke:#282828;stroke-width:0.40;stroke-linecap:butt;stroke-linejoin:miter;stroke-miterlimit:4;stroke-dasharray:none;stroke-opacity:0.52"/>
<path d="M 7.3,35.87 C 7.62,36.24 8.08,37.21 8.22,37.84" id="p3528" style="fill:none;fill-rule:evenodd;stroke:#464646;stroke-width:0.40;stroke-linecap:butt;stroke-linejoin:miter;stroke-miterlimit:4;stroke-dasharray:none;stroke-opacity:0.31"/>
<path d="M 9.01,34.45 C 9.95,35.34 10.33,36 10.52,37.27" id="p3530" style="fill:none;fill-rule:evenodd;stroke:#343434;stroke-width:0.80;stroke-linecap:butt;stroke-linejoin:miter;stroke-miterlimit:4;stroke-dasharray:none;stroke-opacity:0.43"/>
<path d="M 9.08,34.43 C 10.02,35.32 10.39,35.98 10.59,37.25" id="p3532" style="fill:none;fill-rule:evenodd;stroke:#060606;stroke-width:0.30;stroke-linecap:butt;stroke-linejoin:miter;stroke-miterlimit:4;stroke-dasharray:none;stroke-opacity:0.43;display:inline"/>
<path d="M 9.91,34.98 C 10.2,35.21 10.39,35.6 10.47,35.85" id="p3534" style="fill:none;fill-rule:evenodd;stroke:#9c9c9c;stroke-width:0.30;stroke-linecap:round;stroke-linejoin:miter;stroke-miterlimit:4;stroke-dasharray:none;stroke-opacity:0.18;display:inline"/>
<path d="M 9.93,35.01 L 10.16,35.28" id="p3537" style="fill:none;fill-rule:evenodd;stroke:#c4c4c4;stroke-width:0.30;stroke-linecap:round;stroke-linejoin:miter;stroke-miterlimit:4;stroke-dasharray:none;stroke-opacity:0.68;display:inline"/>
<path d="M 21.97,26.57 C 21.75,26.68 20.87,27.13 20.64,27.22 C 20.62,27.4 20.66,27.64 20.85,27.62 C 21.19,27.59 21.6,27.61 21.87,27.78 C 22.14,27.96 22.38,28.34 22.62,28.74 C 22.91,29.28 23.05,29.78 23.03,30.39 C 23.06,30.57 22.97,31.03 22.6,31.32 C 22.78,31.44 22.9,31.76 23.11,31.76 C 23.32,31.68 24.1,31.1 24.28,30.96 C 24.43,30.8 24.23,30.59 24.38,30.45 C 24.41,30.21 24.37,29.96 24.34,29.71 C 24.2,28.81 23.79,27.96 23.21,27.26 C 22.98,26.99 22.69,26.74 22.35,26.62 C 22.22,26.66 22.09,26.71 22.01,26.58 C 22,26.58 21.99,26.57 21.97,26.57 z" id="p3554" style="fill:#161616;fill-opacity:1;fill-rule:evenodd;stroke:none"/>
<path d="M 21.85,28.46 L 20.45,29.21" id="p3565" style="fill:none;fill-rule:evenodd;stroke:#e3e3e3;stroke-width:0.40;stroke-linecap:round;stroke-linejoin:miter;stroke-miterlimit:4;stroke-dasharray:none;stroke-opacity:0.27"/>
<path d="M 24.02,31.09 C 24.42,30.56 24.27,30.06 24.24,29.45 C 24.09,28.55 23.68,27.96 23.1,27.26 C 22.87,26.99 22.44,26.74 22.09,26.62" id="p3569" style="fill:none;fill-opacity:1;fill-rule:evenodd;stroke:#2f2f2f;stroke-width:0.2;stroke-linecap:butt;stroke-linejoin:miter;stroke-miterlimit:4;stroke-dasharray:none;stroke-opacity:1;display:inline"/>
<path d="M 22.71,31.41 C 23.4,30.76 23.16,29.38 22.69,28.6" id="p3571" style="fill:none;fill-rule:evenodd;stroke:#0e0e0e;stroke-width:0.40;stroke-linecap:butt;stroke-linejoin:miter;stroke-miterlimit:4;stroke-dasharray:none;stroke-opacity:1;display:inline"/>
<path d="M 24.62,26.87 L 36.3,20.65" id="p3574" style="fill:none;fill-rule:evenodd;stroke:#efefef;stroke-width:0.40;stroke-linecap:round;stroke-linejoin:miter;stroke-miterlimit:4;stroke-dasharray:none;stroke-opacity:0.6"/>
<path d="M 20.8,27.57 C 21.58,27.29 22.16,27.88 22.16,27.88" id="p3576" style="fill:none;fill-rule:evenodd;stroke:#0a0a0a;stroke-width:0.30;stroke-linecap:butt;stroke-linejoin:miter;stroke-miterlimit:4;stroke-dasharray:none;stroke-opacity:1"/>
<path d="M 22.4,27.86 C 22.75,28.19 22.97,28.75 22.97,28.75" id="p3578" style="fill:none;fill-rule:evenodd;stroke:#f4f4f4;stroke-width:0.30;stroke-linecap:round;stroke-linejoin:miter;stroke-miterlimit:4;stroke-dasharray:none;stroke-opacity:0.25"/>
<path d="M 22.44,27.91 C 22.61,28.06 22.71,28.28 22.71,28.28" id="p3580" style="fill:none;fill-rule:evenodd;stroke:#efefef;stroke-width:0.30;stroke-linecap:round;stroke-linejoin:miter;stroke-miterlimit:4;stroke-dasharray:none;stroke-opacity:0.72"/>
<path d="M 11.37,11.06 C 9.32,11.05 7.97,11.06 8,11.09 C 5.63,11.18 5.27,14.99 7.25,15.65 C 7.32,16.32 7.63,16.65 8.03,16.81 C 8.51,17 8.55,17.14 9.18,17.09 C 9.81,17.04 19.72,17.28 20.06,17.28 C 20.4,17.28 23.37,17.95 24,17.9 C 24.62,17.85 24.8,16.8 24.46,16.56 C 24.41,16.52 24.17,16.37 24.03,16.28 C 26.34,16.35 30.16,16.5 30.43,16.5 C 31.38,16.5 31.29,11.18 30.53,11.18 C 29.96,11.18 17.52,11.07 11.37,11.06 z M 8.09,15.75 C 10.14,15.82 14.92,15.97 20.34,16.15 L 20.15,16.31 L 8.12,16.12 L 8.09,15.75 z" id="p3582" style="fill:#13140f;fill-opacity:1;fill-rule:evenodd;stroke:none"/>
<path d="M 11.37,11.06 C 9.32,11.05 7.97,11.06 8,11.09 C 5.63,11.18 5.27,14.99 7.25,15.65 C 7.32,16.32 7.63,16.65 8.03,16.81 C 8.51,17 8.55,17.14 9.18,17.09 C 9.81,17.04 19.72,17.28 20.06,17.28 C 20.4,17.28 23.37,17.95 24,17.9 C 24.62,17.85 24.8,16.8 24.46,16.56 C 24.41,16.52 24.17,16.37 24.03,16.28 C 26.34,16.35 30.16,16.5 30.43,16.5 C 30.84,16.5 31.03,15.53 31.09,14.43 C 29.52,14.42 7.48,14.08 7.15,14.06 C 7.02,13.69 6.99,12.66 7.15,12.09 C 7.62,12.1 24.68,12.19 31,12.34 C 30.9,11.68 30.75,11.18 30.53,11.18 C 29.96,11.18 17.52,11.07 11.37,11.06 z M 8.09,15.75 C 10.14,15.82 14.92,15.97 20.34,16.15 L 20.15,16.31 L 8.12,16.12 L 8.09,15.75 z" id="p3590" style="fill:#525252;fill-opacity:0.22;fill-rule:evenodd;stroke:none;display:inline"/>
<path d="M 5.99,12.95 C 6.35,12.2 7.64,12.23 8.46,12.23 C 9.28,12.23 31.02,12.21 31.02,12.21" id="p3593" style="fill:none;fill-rule:evenodd;stroke:#0b0b0b;stroke-width:0.40;stroke-linecap:butt;stroke-linejoin:miter;stroke-miterlimit:4;stroke-dasharray:none;stroke-opacity:0.88;display:inline"/>
<path d="M 6.08,13.08 C 6.05,13.1 5.99,13.22 5.97,13.24 C 6.01,13.84 7.02,14.34 7.52,14.33 C 7.64,14.33 10.3,14.36 11.65,14.42 C 13.24,14.49 17.01,14.73 20.03,14.77 C 25.59,14.83 30.23,15.05 31.06,15.06 C 31.1,14.74 31.11,14.41 31.12,14.06 C 30.34,14.05 25.62,14.24 20.03,14.18 C 17.01,14.15 12.5,14.01 11.65,14.02 C 9.33,14.07 7.63,13.91 7.39,13.89 C 6.97,13.86 6.11,13.65 6.08,13.08 z" id="p3595" style="fill:#080808;fill-opacity:0.95;fill-rule:evenodd;stroke:none;display:inline"/>
<path d="M 7.34,11.25 C 5.6,11.95 5.48,15.05 7.25,15.65 C 7.26,15.82 7.29,15.96 7.34,16.09 C 7.15,15.11 7.09,14.3 7.09,13.56 C 7.03,13.12 7.03,12.51 7.15,12.09 C 7.15,12.09 7.18,12.09 7.18,12.09 C 7.23,11.8 7.28,11.51 7.34,11.25 z" id="p3610" style="fill:#525252;fill-opacity:0.16;fill-rule:evenodd;stroke:none"/>
<path d="M 20.15,16.31 L 8.12,16.12 L 8.09,15.93 L 7.31,16 C 7.44,16.43 7.71,16.68 8.03,16.81 C 8.51,17 8.55,17.14 9.18,17.09 C 9.81,17.04 19.72,17.28 20.06,17.28 C 20.25,17.28 21.25,17.51 22.21,17.68 L 22.43,16.39 L 20.15,16.31 z" id="p3615" style="fill:#b8b8b8;fill-opacity:0.41;fill-rule:evenodd;stroke:none;display:inline"/>
<path d="M 7.5,15 C 7.5,15 7.29,15.63 7.53,15.9 C 7.76,16.18 8.28,16.21 8.28,16.21 L 8.34,16.12 L 8.12,16.12 L 8.09,15.75 C 8.17,15.75 8.5,15.77 8.59,15.78 L 8.62,15.71 L 17.21,15.9 L 20.18,16 L 22.59,16.18 L 24.43,16.56 C 24.36,16.51 24.16,16.36 24.03,16.28 C 24.34,16.29 24.54,16.3 24.9,16.31 C 25,15.42 24.39,15.18 22.93,15.18 C 21.32,15.18 7.5,15 7.5,15 z" id="p3625" style="fill:#060606;fill-opacity:0.77;fill-rule:evenodd;stroke:none;display:inline"/>
<path d="M 23.65,16.06 C 23.25,16.03 20.28,16.09 20.28,16.09 L 20.25,16.15 C 20.29,16.15 20.3,16.15 20.34,16.15 L 20.15,16.31 L 20.12,16.31 L 19.84,16.68 C 19.82,16.82 20.35,17.14 21.03,17.46 C 22.04,17.65 23.53,17.94 24,17.9 C 24.62,17.85 24.8,16.8 24.46,16.56 C 24.41,16.52 24.17,16.37 24.03,16.28 C 24.13,16.28 24.2,16.27 24.31,16.28 C 24.05,16.16 23.79,16.07 23.65,16.06 z" id="p3631" style="fill:#0b0b0b;fill-opacity:1;fill-rule:evenodd;stroke:none;display:inline"/>
<path d="M 27.12,15.15 C 26.95,15.32 26.98,15.6 27.09,15.8 C 27.12,15.89 27.15,16.03 27.07,16.1 C 26.89,16.17 26.87,15.92 26.79,15.82 C 26.71,15.72 26.67,15.5 26.5,15.53 C 26.36,15.56 26.38,15.73 26.41,15.84 C 26.41,15.86 26.34,15.72 26.3,15.69 C 26.21,15.55 26,15.66 26.05,15.81 C 26.07,15.97 26.19,16.08 26.22,16.23 C 26.25,16.37 26.38,16.54 26.54,16.45 C 26.62,16.38 26.73,16.28 26.8,16.41 C 26.88,16.55 27.06,16.52 27.15,16.42 C 27.27,16.34 27.43,16.36 27.56,16.4 C 27.76,16.41 27.97,16.4 28.18,16.41 C 28.36,16.38 28.55,16.34 28.73,16.37 C 28.91,16.37 29.12,16.28 29.15,16.09 C 29.13,15.9 28.89,15.93 28.8,16.04 C 28.66,16.09 28.51,16.02 28.38,16.08 C 28.18,16.15 28.21,15.89 28.26,15.78 C 28.33,15.66 28.23,15.44 28.07,15.52 C 27.99,15.61 27.96,15.76 27.82,15.8 C 27.71,15.81 27.59,15.87 27.47,15.83 C 27.37,15.77 27.39,15.63 27.38,15.53 C 27.38,15.4 27.36,15.22 27.22,15.16 C 27.19,15.14 27.15,15.14 27.12,15.15 z" id="p3639" style="fill:#656565;fill-opacity:0.81;fill-rule:evenodd;stroke:none;display:inline"/>
<path d="M 27.22,15.69 L 27.17,15.34" id="p3670" style="fill:none;fill-rule:evenodd;stroke:#dddddd;stroke-width:0.30;stroke-linecap:round;stroke-linejoin:miter;stroke-miterlimit:4;stroke-dasharray:none;stroke-opacity:0.6"/>
<path d="M 26.57,15.84 L 26.52,15.71" id="p3672" style="fill:none;fill-rule:evenodd;stroke:#b2b2b2;stroke-width:0.30;stroke-linecap:round;stroke-linejoin:miter;stroke-miterlimit:4;stroke-dasharray:none;stroke-opacity:0.62"/>
<path d="M 22.98,11.63 L 30.27,11.68" id="p3674" style="fill:none;fill-rule:evenodd;stroke:#b4b4b4;stroke-width:0.5;stroke-linecap:round;stroke-linejoin:miter;stroke-miterlimit:4;stroke-dasharray:none;stroke-opacity:0.15"/>
<path d="M 23.42,37.48 C 22.55,38.08 23.85,40.33 24.57,39.95 C 25.28,39.59 44.65,29.32 45.02,29.07 C 45.39,28.82 44.36,26.06 43.46,26.51 C 42.55,26.97 24.31,36.86 23.42,37.48 z" id="stroke01" style="fill:none;fill-opacity:1;fill-rule:evenodd;stroke:#000000;stroke-width:0.5;stroke-linecap:butt;stroke-linejoin:miter;stroke-miterlimit:4;stroke-dasharray:none;stroke-opacity:1"/>
<path d="M 1.98,40.07 L 5.89,37.26 L 5.85,37.03 L 7.27,35.92 L 7.27,35.32 L 10.32,33.71 L 10.22,33.3 L 20.86,27.45 C 20.86,27.45 20.68,27.17 20.91,27.03 C 21.14,26.9 21.82,26.62 22.05,26.48 C 22.28,26.34 22.34,26.57 22.34,26.57 C 22.34,26.57 41.38,16.55 42.76,15.9 C 45.13,14.8 46.61,17.75 44.38,19.07 C 42.46,20.21 24.51,30.44 24.51,30.44 C 24.51,30.44 24.65,30.73 24.42,30.87 C 24.19,31.01 23.35,31.5 23.17,31.55 C 22.98,31.6 22.8,31.41 22.8,31.41 L 12.2,36.89 L 11.84,36.61 C 11.84,36.61 9.12,38.09 8.89,38.23 C 8.66,38.37 8.24,37.86 8.24,37.86 L 6.63,38.5 L 6.54,38.37 L 1.98,40.07 z" id="stroke02" style="fill:none;fill-opacity:1;fill-rule:evenodd;stroke:#060606;stroke-width:0.5;stroke-linecap:butt;stroke-linejoin:bevel;stroke-miterlimit:4;stroke-dasharray:none;stroke-opacity:1;display:inline"/>
<path d="M 7.53,14.99 C 7.53,14.99 7.32,15.69 7.57,16.02 C 7.81,16.35 7.73,16.22 8.56,16.26 C 9.38,16.31 23.41,16.59 23.82,16.59 C 24.24,16.59 24.48,16.76 24.56,17.09" id="p3618" style="fill:none;fill-rule:evenodd;stroke:#bbbbbb;stroke-width:0.40;stroke-linecap:butt;stroke-linejoin:miter;stroke-miterlimit:4;stroke-dasharray:none;stroke-opacity:1;display:inline"/>
<path d="M 11.37,11.06 C 9.32,11.05 7.97,11.06 8,11.09 C 5.63,11.18 5.27,14.99 7.25,15.65 C 7.32,16.32 7.63,16.65 8.03,16.81 C 8.51,17 8.55,17.14 9.18,17.09 C 9.81,17.04 19.72,17.28 20.06,17.28 C 20.4,17.28 23.37,17.95 24,17.9 C 24.62,17.85 24.8,16.8 24.46,16.56 C 24.41,16.52 24.17,16.37 24.03,16.28 C 26.34,16.35 30.36,16.52 30.63,16.5 C 31.32,16.42 31.15,11.14 30.72,11.12 C 30.1,11.09 17.52,11.07 11.37,11.06 z" id="stroke03" style="fill:none;fill-opacity:1;fill-rule:evenodd;stroke:#000000;stroke-width:0.5;stroke-linecap:butt;stroke-linejoin:miter;stroke-miterlimit:4;stroke-dasharray:none;stroke-opacity:1;display:inline"/>
<path d="M 23.42,16.69 C 23.85,16.7 24.08,16.69 24.18,16.77" id="p3637" style="fill:none;fill-rule:evenodd;stroke:#fefefe;stroke-width:0.2;stroke-linecap:round;stroke-linejoin:miter;stroke-miterlimit:4;stroke-dasharray:none;stroke-opacity:0.72"/>
</g>
</svg>
