<?xml version="1.0" encoding="UTF-8" standalone="no"?>
<!DOCTYPE svg PUBLIC "-//W3C//DTD SVG 1.0//EN" "http://www.w3.org/TR/2001/REC-SVG-20010904/DTD/svg10.dtd">
<svg xmlns:svg="http://www.w3.org/2000/svg" xmlns="http://www.w3.org/2000/svg" version="1.0" width="100%" height="100%" viewBox="0 0 48 48" id="_pink03">
<defs id="defs2385"/>
<g id="pink03" style="display:inline">
<path d="m 15.09,41.37 c -0.47,0.21 1.45,3.77 1.79,3.6 0.34,-0.16 0.38,-0.18 0.49,-0.25 0.1,-0.07 0.19,-0.01 0.53,-0.18 0.35,-0.16 7.45,-4 8.4,-4.55 0.95,-0.56 5.24,-3.28 5.34,-3.37 0.11,-0.09 -0.1,-0.61 -0.16,-0.69 -0.05,-0.07 0.11,-0.25 -0.23,-0.87 -0.34,-0.63 -0.49,-0.61 -0.63,-0.78 -0.14,-0.16 -0.32,-0.39 -0.52,-0.34 -0.2,0.06 -4.09,1.85 -4.91,2.23 -0.83,0.37 -9.1,4.57 -9.26,4.64 -0.16,0.08 -0.27,0.27 -0.43,0.34 -0.16,0.08 -0.41,0.24 -0.41,0.22 z" id="p3255" style="fill:#fa74bd;fill-opacity:1;fill-rule:evenodd;stroke:none;display:inline"/>
<path d="m 15.55,43.2 c 0,0 1.56,-0.87 3.45,-1.75 1.89,-0.88 5.48,-2.85 6.97,-3.66 1.49,-0.81 5.21,-2.63 5.21,-2.63" id="p3258" style="fill:none;stroke:#fae7f2;stroke-width:1px;stroke-linecap:butt;stroke-linejoin:miter;stroke-opacity:0.37"/>
<path d="m 15.62,41.11 c 0.34,0.88 1.42,2.7 1.76,3.45" id="p3261" style="fill:none;stroke:#d05196;stroke-width:0.30;stroke-linecap:butt;stroke-linejoin:miter;stroke-miterlimit:4;stroke-opacity:1;stroke-dasharray:none;display:inline"/>
<path d="m 16.71,42.79 c 0.95,-0.41 4.43,-2.27 5.25,-2.62 0.88,-0.38 3.37,-1.81 4.04,-2.14" id="p3264" style="fill:none;stroke:#ea2a93;stroke-width:0.30;stroke-linecap:round;stroke-linejoin:miter;stroke-miterlimit:4;stroke-opacity:0.43;stroke-dasharray:none;display:inline"/>
<path d="m 26.04,37.73 3.04,-1.56" id="p3267" style="fill:none;stroke:#ffffff;stroke-width:0.80;stroke-linecap:round;stroke-linejoin:miter;stroke-miterlimit:4;stroke-opacity:0.12;stroke-dasharray:none;display:inline"/>
<path d="M 27.73,35.9 30.7,34.48" id="p3270" style="fill:none;stroke:#fbe3f0;stroke-width:0.40;stroke-linecap:round;stroke-linejoin:miter;stroke-miterlimit:4;stroke-opacity:0.22;stroke-dasharray:none;display:inline"/>
<path d="m 15.49,42.66 c 0,0 0.22,0 1.58,-0.76 1.35,-0.76 6.68,-3.53 7.22,-3.81 0.54,-0.27 6.68,-3.42 6.68,-3.42" id="p3273" style="fill:none;stroke:#ce408d;stroke-width:0.5;stroke-linecap:butt;stroke-linejoin:miter;stroke-miterlimit:4;stroke-opacity:0.51;stroke-dasharray:none"/>
<path d="m 16.62,42.47 0.94,-0.46" id="p3275" style="fill:none;stroke:#feeef7;stroke-width:0.40;stroke-linecap:round;stroke-linejoin:miter;stroke-miterlimit:4;stroke-opacity:0.46;stroke-dasharray:none"/>
<path d="M 2.91,44.03 C 3.05,43.36 3.75,42.77 3.75,42.77 L 3.64,42.63 c 0,0 0.78,-1.13 0.99,-1.41 0.21,-0.28 2,-2.52 2,-2.52 0,0 0.45,-1.09 0.56,-1.23 0.1,-0.14 5.01,-5.05 5.01,-5.05 l 0.08,-0.25 c 0,0 27.43,-27.51 27.61,-27.68 0.17,-0.18 0.38,-0.11 0.59,-0.32 0.21,-0.21 1.65,-1.61 1.93,-1.86 0.28,-0.24 2.39,1.51 1.93,2 C 43.89,4.8 42.66,6.03 42.52,6.21 42.38,6.38 42.48,6.56 42.2,6.84 41.92,7.12 14.77,34.59 14.77,34.59 l -0.28,0.18 c 0,0 -4.71,4.73 -4.92,4.94 -0.21,0.22 -1.29,0.64 -1.29,0.64 l -2.43,1.96 -1.5,1.02 -0.14,-0.07 c 0,0 -0.46,0.63 -1.3,0.77 z" id="p3277" style="fill:#ea5eaa;fill-opacity:1;fill-rule:evenodd;stroke:none"/>
<path d="M 8.14,38.71 41.48,5.37" id="p3282" style="fill:none;stroke:#ffffff;stroke-width:1.10;stroke-linecap:butt;stroke-linejoin:miter;stroke-miterlimit:4;stroke-opacity:0.17;stroke-dasharray:none;display:inline"/>
<path d="M 8.24,38.87 32.84,14.14" id="p3306" style="fill:none;stroke:#d3398c;stroke-width:0.40;stroke-linecap:round;stroke-linejoin:miter;stroke-miterlimit:4;stroke-opacity:0.67;stroke-dasharray:none;display:inline"/>
<path d="M 16.39,30.30 C 17.11,30.23 15.45,32.04 15.39,30.72 C 15.14,30.09 16.70,29.62 16.09,29.99 C 15.17,30.04 15.69,31.66 16.30,30.71 C 16.38,30.59 16.43,30.44 16.39,30.30 L 16.39,30.30 z M 16.65,30.02 C 16.21,29.12 17.99,28.84 17.33,29.85 C 17.19,30.04 16.83,30.33 16.65,30.02 L 16.65,30.02 z M 16.79,29.88 C 17.45,30.37 17.39,28.72 16.80,29.51 C 16.73,29.62 16.71,29.77 16.79,29.88 z M 17.76,29.40 C 17.62,29.11 17.29,28.80 17.27,28.52 C 17.51,28.33 17.65,29.01 17.84,29.18 C 17.96,29.28 17.82,29.32 17.76,29.40 z M 17.87,28.79 C 17.43,27.89 19.21,27.61 18.55,28.62 C 18.41,28.81 18.05,29.10 17.87,28.79 z M 18.01,28.65 C 18.67,29.14 18.61,27.49 18.02,28.28 C 17.95,28.39 17.93,28.54 18.01,28.65 L 18.01,28.65 z M 18.98,28.17 C 18.86,28.00 18.43,27.35 18.78,27.52 C 18.92,27.00 19.22,27.17 18.87,27.57 C 18.86,27.80 19.30,28.00 18.98,28.17 z M 19.96,27.18 C 19.82,26.89 19.49,26.58 19.47,26.30 C 19.74,25.79 20.87,25.31 20.29,26.29 C 19.81,26.53 20.02,26.83 20.03,27.11 L 19.99,27.15 L 19.96,27.18 z M 19.83,26.59 C 20.30,26.35 20.47,25.41 19.81,26.12 C 19.53,26.30 19.71,26.37 19.83,26.59 z M 21.42,25.39 C 22.05,25.17 20.55,26.76 20.71,25.55 C 21.05,24.64 21.87,25.17 21.04,25.64 C 20.60,26.05 21.63,25.75 21.42,25.39 L 21.42,25.39 z M 20.86,25.68 C 21.20,25.47 21.48,24.87 20.90,25.37 C 20.85,25.46 20.81,25.58 20.86,25.68 L 20.86,25.68 z M 21.86,25.27 C 21.74,25.10 21.30,24.46 21.65,24.62 C 21.67,23.59 22.82,24.51 22.35,24.69 C 22.17,23.97 21.43,24.58 21.94,25.03 C 22.07,25.15 21.92,25.17 21.86,25.27 z M 23.19,23.93 C 23.05,23.63 22.72,23.32 22.70,23.04 C 22.94,22.80 23.18,22.56 23.42,22.32 C 23.52,22.59 23.01,22.79 22.87,23.03 C 23.03,23.56 23.31,22.94 23.55,22.78 C 23.75,22.98 23.08,23.21 23.13,23.44 C 23.21,23.63 23.48,23.78 23.19,23.93 z M 23.67,22.26 C 23.42,21.96 24.06,21.95 23.67,22.26 z M 24.12,22.99 C 23.99,22.81 23.56,22.16 23.94,22.33 C 24.00,22.54 24.43,22.82 24.12,22.99 z M 24.47,22.64 C 24.35,22.47 23.92,21.83 24.26,21.99 C 24.29,20.96 25.44,21.87 24.96,22.06 C 24.78,21.34 24.05,21.95 24.55,22.40 C 24.68,22.52 24.54,22.54 24.47,22.64 z M 25.79,21.30 C 25.65,21.01 25.33,20.70 25.30,20.42 C 25.58,19.91 26.71,19.43 26.12,20.40 C 25.65,20.64 25.86,20.94 25.86,21.23 L 25.82,21.27 L 25.79,21.30 z M 25.66,20.71 C 26.13,20.46 26.30,19.53 25.64,20.24 C 25.36,20.42 25.55,20.49 25.66,20.71 z M 26.58,20.01 C 26.14,19.11 27.92,18.83 27.26,19.83 C 27.12,20.03 26.77,20.32 26.58,20.01 z M 26.72,19.87 C 27.38,20.36 27.32,18.70 26.73,19.50 C 26.66,19.61 26.64,19.76 26.72,19.87 z M 27.24,18.66 C 27.00,18.36 27.63,18.35 27.24,18.66 z M 27.69,19.38 C 27.56,19.21 27.14,18.56 27.51,18.73 C 27.57,18.94 28.00,19.22 27.69,19.38 z M 28.04,19.03 C 27.92,18.87 27.49,18.23 27.84,18.38 C 27.86,17.36 29.01,18.27 28.54,18.46 C 28.35,17.74 27.62,18.35 28.12,18.80 C 28.26,18.91 28.11,18.94 28.04,19.03 z M 29.16,17.76 C 29.22,18.36 28.67,17.76 28.57,17.64 C 28.43,17.82 28.47,16.86 28.68,17.36 C 29.02,17.09 28.61,17.62 28.97,17.82 C 29.01,17.95 29.12,17.80 29.16,17.76 L 29.16,17.76 z M 29.77,17.32 C 29.64,16.87 29.49,17.26 29.60,16.73 C 29.48,16.69 29.15,16.92 29.54,16.52 C 29.38,15.96 29.61,16.28 29.74,16.33 C 30.00,16.20 29.76,15.41 30.00,16.00 C 30.38,15.67 29.84,16.59 30.24,16.30 C 30.48,16.11 30.07,16.74 30.16,16.92 C 30.15,16.56 29.65,16.76 29.87,17.16 C 29.92,17.23 29.79,17.26 29.77,17.32 z M 29.76,16.78 C 30.14,16.62 29.96,16.04 29.69,16.52 C 29.71,16.60 29.74,16.69 29.76,16.78 z M 31.11,15.94 C 30.97,15.65 30.64,15.34 30.62,15.06 C 30.89,14.55 32.02,14.07 31.43,15.05 C 30.96,15.29 31.17,15.59 31.18,15.87 L 31.14,15.91 L 31.11,15.94 z M 30.98,15.35 C 31.45,15.11 31.62,14.17 30.96,14.88 C 30.68,15.06 30.86,15.13 30.98,15.35 z M 31.65,14.20 C 31.55,13.93 32.07,13.72 32.22,13.47 C 32.46,13.33 32.23,14.52 32.33,14.72 C 31.91,14.59 32.46,13.14 31.80,14.05 C 31.75,14.10 31.70,14.15 31.65,14.20 z M 33.28,12.71 C 33.03,12.88 32.52,13.03 32.83,13.50 C 32.91,12.58 34.06,13.10 33.36,13.70 C 32.42,14.49 32.36,12.40 33.28,12.71 L 33.28,12.71 z M 32.95,13.64 C 33.70,13.96 33.33,12.53 32.93,13.44 L 32.92,13.55 L 32.95,13.64 L 32.95,13.64 z M 33.39,12.45 C 33.29,12.17 33.81,11.96 33.96,11.71 C 34.20,11.57 33.97,12.76 34.07,12.96 C 33.65,12.83 34.20,11.38 33.54,12.29 C 33.49,12.34 33.44,12.39 33.39,12.45 z M 34.57,12.09 C 34.85,12.02 35.55,11.42 34.88,11.40 C 34.59,11.97 34.41,11.92 34.32,11.35 C 34.51,11.24 34.78,10.68 34.94,10.88 C 34.67,10.98 34.33,11.72 34.66,11.47 C 35.64,10.40 35.40,12.46 34.57,12.09 z" id="text3387" style="opacity:1;fill:#fcf8a7;fill-opacity:0.79;fill-rule:nonzero;stroke:none;marker:none;visibility:visible;display:inline;overflow:visible;enable-background:accumulate;"/>
<path d="M 3.9,42.83 4.11,43.01 5.34,41.82 7.53,39.7 7.06,39.15 5.05,41.46 3.9,42.83 z" id="p3291" style="fill:#e9c4d8;fill-opacity:0.41;fill-rule:evenodd;stroke:none;display:inline"/>
<path d="m 4.68,41.15 c -0.01,0.01 -0.05,0.06 -0.06,0.06 -0.21,0.28 -0.97,1.41 -0.97,1.41 l 0.1,0.16 c 0,0 -0.71,0.58 -0.85,1.25 0.84,-0.14 1.31,-0.79 1.31,-0.78 l 0.13,0.09 1.5,-1 -1.16,-1.19 z" id="p3285" style="fill:#9f4a78;fill-opacity:0.67;fill-rule:evenodd;stroke:none;display:inline"/>
<path d="m 3.68,42.56 c 0,0 -0.03,0.06 -0.03,0.06 l 0.1,0.16 c 0,0 -0.71,0.58 -0.85,1.25 0.84,-0.14 1.31,-0.79 1.31,-0.78 L 4.34,43.34 4.4,43.31 3.68,42.56 z" id="p3288" style="fill:#c20068;fill-opacity:1;fill-rule:evenodd;stroke:none;display:inline"/>
<path d="m 7.21,37.43 c 0,0 -0.03,0.03 -0.03,0.03 -0.09,0.13 -0.46,0.98 -0.53,1.13 0.44,0.61 0.97,1.26 1.6,1.78 l 0.03,-0.03 c 0,0 0.76,-0.31 1.12,-0.53 C 8.23,39.12 7.65,38.25 7.21,37.43 z" id="p3294" style="fill:#99376c;fill-opacity:0.5;fill-rule:evenodd;stroke:none;display:inline"/>
<path d="m 41.3,5.23 2.2,-2.2" id="p3321" style="fill:none;stroke:#ffffff;stroke-width:0.88;stroke-linecap:butt;stroke-linejoin:miter;stroke-miterlimit:4;stroke-opacity:0.31;stroke-dasharray:none;stroke-dashoffset:0;marker:none;visibility:visible;display:inline;overflow:visible;enable-background:accumulate"/>
<path d="M 43.66,3.19 41.5,5.35" id="p3323" style="fill:none;stroke:#fdf9fb;stroke-width:0.30;stroke-linecap:butt;stroke-linejoin:miter;stroke-miterlimit:4;stroke-opacity:0.47;stroke-dasharray:none"/>
<path d="m 40.12,4.36 c 1.01,0.69 1.56,1.3 2.21,2.13" id="p3303" style="fill:none;stroke:#c93f8b;stroke-width:0.5;stroke-linecap:butt;stroke-linejoin:miter;stroke-miterlimit:4;stroke-opacity:0.93;stroke-dasharray:none;display:inline"/>
<path d="M 8.3,38.01 24.4,21.74" id="p3319" style="fill:none;stroke:#ffffff;stroke-width:0.2;stroke-linecap:round;stroke-linejoin:miter;stroke-miterlimit:4;stroke-opacity:0.3;stroke-dasharray:none"/>
<path d="m 12.24,32.46 c 0.97,0.69 1.77,1.56 2.27,2.24" id="p3300" style="fill:none;stroke:#c63785;stroke-width:0.40;stroke-linecap:butt;stroke-linejoin:miter;stroke-miterlimit:4;stroke-opacity:0.9;stroke-dasharray:none;display:inline"/>
<path d="m 40.98,5.55 c 0.32,0.23 0.52,0.43 0.6,0.55" id="p3325" style="fill:none;stroke:#fefdfd;stroke-width:0.30;stroke-linecap:round;stroke-linejoin:miter;stroke-miterlimit:4;stroke-opacity:0.61;stroke-dasharray:none"/>
<path d="M 28.31,18.02 40.74,5.32" id="p3340" style="fill:none;stroke:#fffeff;stroke-width:0.40;stroke-linecap:round;stroke-linejoin:miter;stroke-miterlimit:4;stroke-opacity:0.3;stroke-dasharray:none"/>
<path d="m 7.69,38.42 c 0.12,0.18 0.25,0.29 0.42,0.45" id="p3297" style="fill:none;stroke:#f7d5e7;stroke-width:0.30;stroke-linecap:round;stroke-linejoin:miter;stroke-miterlimit:4;stroke-opacity:0.81;stroke-dasharray:none;display:inline"/>
<path d="m 15.09,41.37 c -0.47,0.21 1.45,3.77 1.79,3.6 0.34,-0.16 0.38,-0.18 0.49,-0.25 0.1,-0.07 0.19,-0.01 0.53,-0.18 0.35,-0.16 7.45,-4 8.4,-4.55 0.95,-0.56 5.24,-3.28 5.34,-3.37 0.11,-0.09 -0.1,-0.61 -0.16,-0.69 -0.05,-0.07 0.08,-0.39 -0.26,-1.02 -0.34,-0.63 -0.57,-0.61 -0.6,-0.63 -0.19,-0.1 -0.32,-0.39 -0.52,-0.34 -0.2,0.06 -4.09,1.85 -4.91,2.23 -0.83,0.37 -9.1,4.57 -9.26,4.64 -0.16,0.08 -0.27,0.27 -0.43,0.34 -0.16,0.08 -0.41,0.24 -0.41,0.22 z" id="stroke01" style="fill:none;stroke:#460a2a;stroke-width:0.5;stroke-linecap:butt;stroke-linejoin:miter;stroke-miterlimit:4;stroke-opacity:1;stroke-dasharray:none"/>
<path d="M 2.91,44.03 C 3.05,43.36 3.75,42.77 3.75,42.77 L 3.64,42.63 c 0,0 0.78,-1.13 0.99,-1.41 0.21,-0.28 2,-2.52 2,-2.52 0,0 0.45,-1.09 0.56,-1.23 0.1,-0.14 5.01,-5.05 5.01,-5.05 l 0.08,-0.25 c 0,0 27.43,-27.51 27.61,-27.68 0.17,-0.18 0.38,-0.11 0.59,-0.32 0.21,-0.21 1.65,-1.61 1.93,-1.86 0.28,-0.24 2.39,1.51 1.93,2 C 43.89,4.8 42.66,6.03 42.52,6.21 42.38,6.38 42.48,6.56 42.2,6.84 41.92,7.12 14.77,34.59 14.77,34.59 l -0.28,0.18 c 0,0 -4.71,4.73 -4.92,4.94 -0.21,0.22 -1.29,0.64 -1.29,0.64 l -2.43,1.96 -1.5,1.02 -0.14,-0.07 c 0,0 -0.46,0.63 -1.3,0.77 z" id="stroke02" style="fill:none;stroke:#53002d;stroke-width:0.5;stroke-linecap:butt;stroke-linejoin:miter;stroke-miterlimit:4;stroke-opacity:1;stroke-dasharray:none;display:inline"/>
</g>
</svg>
