<?xml version="1.0" encoding="UTF-8" standalone="no"?>
<!DOCTYPE svg PUBLIC "-//W3C//DTD SVG 1.0//EN" "http://www.w3.org/TR/2001/REC-SVG-20010904/DTD/svg10.dtd">
<svg xmlns:svg="http://www.w3.org/2000/svg" xmlns="http://www.w3.org/2000/svg" version="1.0" width="100%" height="100%" viewBox="0 0 48 48" id="_rotring10">
<defs id="defs2385"/>
<g id="rotring10" style="display:inline">
<path d="M 1.96,15.9 C 1.44,15.68 3.32,12.4 3.8,12.62 C 4.28,12.83 34.54,28.88 34.54,28.88 C 34.54,28.88 37.02,30.32 37.37,30.54 C 37.72,30.76 38.35,31.51 38.7,31.68 C 39.05,31.86 40.84,32.99 41.19,33.21 C 41.54,33.43 41.32,34.13 41.32,34.13 L 41.76,34.61 L 41.67,34.83 C 41.67,34.83 43.03,35.71 43.25,35.79 C 43.47,35.88 43.38,36.19 43.38,36.19 L 44.95,37.06 L 44.69,37.59 L 43.07,36.67 C 43.07,36.67 42.94,37.02 42.63,36.89 C 42.33,36.76 40.97,35.88 40.97,35.88 C 40.97,35.88 40.8,36.23 40.62,36.19 C 40.45,36.14 40.19,36.1 40.19,36.1 C 40.19,36.1 39.84,36.67 39.27,36.41 C 38.7,36.14 37.34,35.36 36.91,35.14 C 36.47,34.92 35.68,34.88 35.16,34.61 C 34.63,34.35 33.58,33.87 31.88,32.95 C 30.17,32.03 1.92,15.94 1.96,15.9 z" id="p2516" style="fill:#57161e;fill-opacity:1;fill-rule:evenodd;stroke:none"/>
<path d="M 34.18,28.68 C 33.54,30.17 32.81,31.62 32,33.03 C 33.66,33.94 35.38,34.8 37.23,35.28 C 38.03,35.69 38.76,36.46 39.74,36.34 C 40.34,36.02 41.11,35.84 41.67,36.35 C 42.21,36.85 42.96,36.65 43.54,36.98 C 43.83,37.22 44.74,37.67 44.66,36.97 C 44.22,36.66 43.73,36.35 43.31,35.99 C 42.89,35.62 42.38,35.35 41.95,35.01 C 41.33,34.35 41.25,33.22 40.58,32.73 C 39.19,32.2 38.14,31.1 36.93,30.28 C 36.07,29.65 35.1,29.22 34.18,28.68 z" id="p3299" style="fill:#bea8ab;fill-opacity:0.75;fill-rule:evenodd;stroke:none;display:inline"/>
<path d="M 2.46,14.15 C 2.02,14.95 1.71,15.79 1.96,15.9 C 1.92,15.94 30.16,32.05 31.87,32.96 C 33.58,33.88 34.63,34.36 35.15,34.62 C 35.68,34.88 36.46,34.93 36.9,35.15 C 37.34,35.37 38.71,36.14 39.28,36.4 C 39.84,36.66 40.18,36.09 40.18,36.09 C 40.18,36.09 40.45,36.14 40.62,36.18 C 40.79,36.23 40.96,35.87 40.96,35.87 C 40.96,35.87 42.31,36.77 42.62,36.9 C 42.93,37.03 43.06,36.68 43.06,36.68 L 44.68,37.59 L 44.87,37.25 L 2.46,14.15 z" id="p3336" style="fill:#170104;fill-opacity:0.68;fill-rule:evenodd;stroke:none"/>
<path d="M 34.81,29.03 C 34.32,30.16 33.85,31.25 32.56,33.23 C 34.08,34.05 35.57,34.84 37.25,35.28 C 38.04,35.69 38.77,36.46 39.75,36.34 C 40,36.21 40.27,36.1 40.56,36.06 C 42.06,35.61 41.97,35.43 41.5,34.28 C 41.23,33.69 41.06,33.06 40.59,32.71 C 39.2,32.19 38.14,31.09 36.93,30.28 C 36.27,29.79 35.53,29.42 34.81,29.03 z" id="p3322" style="fill:#ff4e19;fill-opacity:1;fill-rule:evenodd;stroke:none;display:inline"/>
<path d="M 6.25,13.9 C 5.58,14.73 4.93,15.8 4.4,17.31 C 4.52,17.38 5.23,17.74 5.39,17.83 C 5.88,16.31 6.65,15.19 7.3,14.46 C 7.12,14.36 6.38,13.97 6.25,13.9 z" id="p3291" style="fill:#d4211c;fill-opacity:0.75;fill-rule:evenodd;stroke:none;display:inline"/>
<path d="M 3.09,13.21 C 2.63,13.82 2.14,14.71 1.96,15.31 L 35.57,33.96 L 37.21,34.29 L 39.81,35.75 L 40.18,36.09 C 40.18,36.09 40.45,36.14 40.62,36.18 C 40.79,36.23 40.96,35.87 40.96,35.87 C 40.96,35.87 41.25,36.06 41.5,36.21 L 41.75,34.9 C 41.74,34.9 41.68,34.84 41.68,34.84 L 41.75,34.62 L 41.53,34.37 L 41.31,34.12 L 41.21,34.06 L 38,32.25 L 36.9,31.25 L 3.09,13.21 z" id="p3332" style="fill:#fdf3f4;fill-opacity:0.22;fill-rule:evenodd;stroke:none;display:inline"/>
<path d="M 33.75,31.25 C 33.44,31.81 33.07,32.42 32.56,33.21 C 34.08,34.03 35.57,34.84 37.25,35.28 C 38.04,35.69 38.77,36.46 39.75,36.34 C 40,36.21 40.27,36.1 40.56,36.06 C 40.9,35.95 41.15,35.87 41.34,35.78 L 41.37,35.59 L 37.71,33.75 L 37.09,33.12 L 33.75,31.25 z" id="p3355" style="fill:#a62006;fill-opacity:0.4;fill-rule:evenodd;stroke:none"/>
<path d="M 33.75,31.32 L 41.46,35.54" id="p3408" style="fill:none;fill-rule:evenodd;stroke:#de2f01;stroke-width:1.20;stroke-linecap:butt;stroke-linejoin:miter;stroke-miterlimit:4;stroke-dasharray:none;stroke-opacity:0.88"/>
<path d="M 2.62,13.96 L 2.09,15.03 L 4.71,16.46 C 4.88,16.08 5.07,15.72 5.25,15.4 L 2.62,13.96 z M 6.25,15.93 C 6.06,16.25 5.88,16.61 5.71,17 L 32.71,31.71 C 32.92,31.33 33.12,30.95 33.31,30.56 L 6.25,15.93 z" id="p3341" style="fill:#1d0105;fill-opacity:0.68;fill-rule:evenodd;stroke:none"/>
<path d="M 5.25,15.4 C 5.07,15.72 4.88,16.08 4.71,16.46 L 5.71,17 C 5.88,16.61 6.06,16.25 6.25,15.93 L 5.25,15.4 z" id="p3360" style="fill:#a70a06;fill-opacity:0.75;fill-rule:evenodd;stroke:none;display:inline"/>
<path d="M 22.79,25.16 C 22.9,25.32 23.35,25.34 23.22,25.58 C 23.04,25.65 22.76,25.68 22.77,25.94 C 22.64,26.16 22.28,25.95 22.48,25.74 C 22.56,25.54 22.72,25.37 22.79,25.16 z M 24.14,25.81 C 24.09,26 23.68,26.19 23.9,26.37 C 24.15,26.33 24.24,26.01 24.2,25.8 C 24.11,25.49 23.7,25.39 23.46,25.57 C 23.11,25.79 23.02,26.38 23.39,26.62 C 23.49,26.66 23.89,26.61 23.74,26.78 C 23.35,26.88 22.95,26.46 23.03,26.07 C 23.08,25.64 23.53,25.25 23.97,25.38 C 24.35,25.5 24.42,26.03 24.2,26.32 C 23.98,26.67 23.36,26.58 23.26,26.18 C 23.2,25.87 23.54,25.51 23.86,25.65 C 23.95,25.7 24.04,25.77 24.14,25.81 z M 23.42,26.06 C 23.44,26.35 23.86,26.18 23.87,25.97 C 23.85,25.66 23.46,25.8 23.43,26.03 L 23.42,26.06 L 23.42,26.06 z M 24.93,25.93 C 24.78,26.11 24.92,26.49 24.63,26.55 C 24.43,26.6 24.64,27.13 24.33,27.05 C 24.06,26.95 24.18,26.62 24.27,26.42 C 24.3,26.14 24.53,25.87 24.84,25.93 L 24.89,25.93 L 24.93,25.93 L 24.93,25.93 z M 25.05,26.39 C 25.16,26.55 25.61,26.57 25.48,26.81 C 25.3,26.88 25.01,26.91 25.03,27.17 C 24.9,27.39 24.54,27.18 24.73,26.97 C 24.82,26.76 24.98,26.6 25.05,26.39 z M 25.84,26.43 C 26.19,26.32 25.93,27 25.77,26.64 C 25.74,26.56 25.77,26.47 25.84,26.43 z M 25.68,26.73 C 25.99,26.79 25.84,27.18 25.75,27.37 C 25.71,27.63 25.22,27.68 25.33,27.36 C 25.4,27.13 25.61,26.96 25.68,26.73 z M 26.13,26.98 C 26.31,27.13 26.55,27.21 26.73,27.32 C 26.85,27.57 26.7,27.86 26.56,28.06 C 26.36,28.21 26.11,27.95 26.34,27.8 C 26.47,27.68 26.38,27.31 26.2,27.53 C 26.16,27.73 25.79,28.01 25.77,27.67 C 25.82,27.41 26.04,27.23 26.13,26.98 z M 27.56,27.75 C 27.86,27.83 27.71,28.22 27.56,28.39 C 27.45,28.64 27.23,28.95 26.92,28.86 C 26.72,28.85 26.38,28.43 26.67,28.37 C 26.8,28.41 26.99,28.72 27.07,28.49 C 26.9,28.33 26.61,28.19 26.77,27.91 C 26.82,27.62 27.24,27.43 27.42,27.71 C 27.45,27.75 27.51,27.78 27.56,27.75 z M 27.09,28 C 27,28.38 27.63,27.94 27.27,27.87 C 27.19,27.85 27.11,27.92 27.09,28 z" id="text3369" style="opacity:0;fill:#f5f5f5;fill-opacity:0.46;stroke:none;display:inline;"/>
<path d="M 22.81,25.14 C 22.94,25.17 23.05,25.33 23.06,25.37 C 23.36,25.26 23.42,25.68 23.68,25.64 C 24.01,25.68 23.96,26.05 23.80,26.24 C 23.74,26.45 23.47,26.72 23.36,26.39 C 23.36,26.20 23.71,26.03 23.50,25.84 C 23.24,25.84 23.30,26.32 23.03,26.28 C 22.65,26.10 23.24,25.82 23.07,25.57 C 22.79,25.53 22.84,25.92 22.65,26.02 C 22.31,26.03 22.45,25.66 22.60,25.51 C 22.67,25.39 22.74,25.27 22.81,25.14 z M 24.92,26.25 C 24.84,26.46 24.53,26.58 24.57,26.83 C 24.95,26.83 25.14,26.25 24.84,26.03 C 24.65,25.86 24.34,25.88 24.16,26.07 C 23.91,26.29 23.84,26.73 24.11,26.96 C 24.24,27.11 24.67,26.99 24.66,27.16 C 24.25,27.31 23.75,26.95 23.82,26.51 C 23.85,26.07 24.31,25.66 24.75,25.83 C 25.08,25.95 25.22,26.40 25.01,26.68 C 24.88,26.92 24.48,27.09 24.31,26.82 C 24.06,26.81 23.95,26.58 24.07,26.37 C 24.16,26.17 24.37,26.01 24.59,26.04 C 24.69,26.14 24.78,26.23 24.92,26.25 z M 24.21,26.47 C 24.04,26.73 24.52,26.73 24.55,26.51 C 24.73,26.36 24.52,26.02 24.36,26.27 C 24.30,26.32 24.25,26.39 24.21,26.47 z M 25.22,26.50 C 25.31,26.55 25.50,26.61 25.44,26.75 C 25.65,26.50 25.87,27.07 25.53,26.94 C 25.21,26.85 25.24,27.35 25.00,27.38 C 24.73,27.32 24.85,27.05 24.98,26.92 C 25.06,26.78 25.13,26.63 25.22,26.50 z M 26.04,26.58 C 26.31,26.62 26.34,26.92 26.13,27.07 C 26.03,27.16 26.04,27.33 26.19,27.19 C 26.32,27.11 26.72,27.22 26.58,27.37 C 26.35,27.36 26.20,27.55 26.30,27.77 C 26.35,27.95 26.22,28.16 26.05,27.98 C 25.89,27.90 26.11,27.40 25.83,27.62 C 25.72,27.90 25.32,27.62 25.55,27.43 C 25.71,27.21 25.80,26.96 25.95,26.73 C 25.98,26.68 26.01,26.63 26.04,26.58 z M 27.30,28.26 C 27.12,28.23 26.85,27.86 26.73,28.07 C 26.78,28.26 27.27,28.20 27.13,28.41 C 26.80,28.54 26.34,28.21 26.45,27.84 C 26.52,27.58 26.83,27.38 27.09,27.52 C 27.36,27.61 27.50,27.98 27.32,28.21 L 27.30,28.26 L 27.30,28.26 z M 27.09,27.96 C 27.35,27.77 26.70,27.62 26.93,27.87 C 26.99,27.90 27.04,27.93 27.09,27.96 z M 27.68,27.88 C 27.77,27.93 27.96,27.99 27.90,28.13 C 28.12,27.88 28.34,28.45 27.99,28.32 C 27.67,28.24 27.71,28.73 27.46,28.76 C 27.19,28.70 27.31,28.44 27.45,28.30 C 27.53,28.16 27.60,28.02 27.68,27.88 z" id="text3205" style="opacity:1;fill:#f5f5f5;fill-opacity:0.46;fill-rule:nonzero;stroke:none;marker:none;visibility:visible;display:inline;overflow:visible;enable-background:accumulate;"/>
<path d="M 15.9,22.54 C 16.19,22.38 16.4,22.08 16.73,22 C 16.95,22.27 16.48,22.14 16.38,22.32 C 16.24,22.42 16.09,22.55 15.9,22.54 z M 16.76,22.87 C 16.38,23.1 16.46,22.19 16.79,22.53 C 16.99,22.64 17.26,22.42 17.02,22.28 C 17.2,22.07 17.46,22.51 17.23,22.66 C 17.14,22.79 16.92,23.03 16.76,22.87 z M 17.04,22.65 C 17.02,22.3 16.47,22.8 16.85,22.78 C 16.92,22.75 16.98,22.7 17.04,22.65 z M 16.62,23.29 C 16.97,23.03 17.32,22.77 17.68,22.52 C 18.02,22.58 18.01,23.17 17.66,23.21 C 17.35,23.31 16.99,23.06 16.73,23.31 C 16.69,23.33 16.65,23.31 16.62,23.29 z M 17.33,22.9 C 17.27,23.23 17.85,23.17 17.84,22.89 C 17.8,22.6 17.41,22.7 17.33,22.9 z M 18.45,22.75 C 18.52,22.56 18.59,22.93 18.45,22.75 L 18.45,22.75 z M 17.54,23.41 C 17.83,23.25 18.04,22.95 18.37,22.88 C 18.16,23.13 17.89,23.31 17.6,23.45 C 17.58,23.44 17.56,23.43 17.54,23.41 z M 18.29,23.67 C 18.01,23.75 17.94,23.35 18.09,23.19 C 18.3,22.98 18.63,23.13 18.89,23.11 C 19.04,23.11 19.19,23.17 18.99,23.27 C 18.73,23.42 18.46,23.75 18.2,23.78 C 18.23,23.74 18.26,23.7 18.29,23.67 z M 18.19,23.35 C 18.1,23.69 18.7,23.65 18.7,23.37 C 18.68,23.09 18.27,23.13 18.19,23.35 z M 18.69,23.66 C 18.83,23.37 19.45,23.27 19.44,23.69 C 19.38,23.99 18.97,24.21 18.71,24.03 C 18.58,23.94 18.53,23.74 18.69,23.66 z M 18.8,23.7 C 18.75,23.97 19.14,24.01 19.29,23.86 C 19.54,23.62 19.08,23.36 18.89,23.58 C 18.85,23.61 18.82,23.65 18.8,23.7 z M 19,24.28 C 19.04,24.7 19.56,24.24 19.3,24.04 C 19.41,23.74 19.87,23.6 20.11,23.84 C 20.19,24.22 19.68,24.29 19.5,24.54 C 19.32,24.67 18.85,24.65 18.96,24.34 C 18.97,24.31 18.99,24.3 19,24.28 z M 19.47,24.01 C 19.37,24.38 20.1,24.29 19.96,23.96 C 19.87,23.75 19.55,23.83 19.47,24.01 z M 19.7,24.56 C 19.98,24.4 20.19,24.1 20.52,24.03 C 20.74,24.3 20.27,24.17 20.17,24.34 C 20.03,24.45 19.88,24.57 19.7,24.56 z M 20.55,24.9 C 20.17,25.13 20.25,24.22 20.58,24.55 C 20.78,24.67 21.05,24.44 20.81,24.31 C 20.99,24.09 21.25,24.54 21.02,24.69 C 20.93,24.81 20.71,25.05 20.55,24.9 z M 20.83,24.68 C 20.82,24.33 20.27,24.83 20.64,24.8 C 20.71,24.77 20.77,24.73 20.83,24.68 z M 20.41,25.32 C 20.76,25.06 21.12,24.8 21.47,24.54 C 21.82,24.6 21.8,25.2 21.45,25.24 C 21.14,25.33 20.78,25.09 20.52,25.34 C 20.48,25.35 20.44,25.33 20.41,25.32 z M 21.12,24.93 C 21.06,25.26 21.64,25.19 21.64,24.91 C 21.59,24.63 21.2,24.72 21.12,24.93 z M 21.34,25.44 C 21.69,25.18 22.04,24.92 22.39,24.67 C 22.3,24.86 22.32,25.08 22.37,25.26 C 22.3,25.41 22.1,25.62 21.92,25.5 C 22.22,25.5 22.22,24.91 21.9,25.13 C 21.72,25.24 21.59,25.52 21.34,25.44 z" id="text3373" style="fill:#f0f0f0;fill-opacity:0.5;stroke:none;display:inline;"/>
<path d="M 38,31.09 C 37.35,32.6 36.74,33.72 35.93,34.87 C 36.25,34.99 36.57,35.09 36.9,35.18 C 37.63,34.12 38.22,33.07 38.81,31.71 C 38.53,31.51 38.26,31.3 38,31.09 z" id="p3413" style="fill:#e13404;fill-opacity:0.82;fill-rule:evenodd;stroke:none;display:inline"/>
<path d="M 37.56,30.82 C 36.81,32.27 36.3,33.44 35.49,34.6" id="p3423" style="fill:none;fill-opacity:0.82;fill-rule:evenodd;stroke:#de2f01;stroke-width:0.40;stroke-linecap:butt;stroke-linejoin:miter;stroke-miterlimit:4;stroke-dasharray:none;stroke-opacity:0.88;display:inline"/>
<path d="M 34.7,31.46 C 34.49,31.9 34.28,32.34 34.07,32.78 C 33.95,32.77 33.81,32.65 33.89,32.53 C 34.01,32.28 34.13,32.04 34.24,31.8 C 34.16,31.84 34.05,31.89 33.98,31.82 C 33.91,31.71 34.04,31.58 34.15,31.56 C 34.29,31.55 34.41,31.47 34.5,31.38 C 34.58,31.37 34.63,31.45 34.7,31.46 z M 34.52,32.56 C 34.62,32.58 34.74,32.64 34.73,32.76 C 34.71,32.86 34.66,32.98 34.55,33.01 C 34.42,33.03 34.35,32.86 34.41,32.76 C 34.45,32.69 34.5,32.63 34.52,32.56 z M 35.04,32.45 C 35.14,32.24 35.26,32 35.5,31.92 C 35.74,31.86 35.98,32.14 35.89,32.37 C 35.82,32.69 35.66,32.99 35.45,33.24 C 35.31,33.37 35.05,33.36 34.94,33.19 C 34.84,33.05 34.87,32.87 34.93,32.72 C 34.96,32.63 35,32.54 35.04,32.45 z M 35.28,32.56 C 35.22,32.7 35.13,32.84 35.14,33 C 35.23,33.07 35.35,33 35.39,32.91 C 35.48,32.71 35.6,32.52 35.65,32.3 C 35.62,32.18 35.43,32.2 35.4,32.31 C 35.36,32.39 35.33,32.48 35.28,32.56 z" id="text3433" style="fill:#1e1e1e;fill-opacity:0.77;stroke:none"/>
<path d="M 41.75,34.75 C 41.45,35.14 41.17,35.53 41.03,36.04 C 41.23,36.09 41.51,36.19 41.68,36.34 C 41.94,36.59 42.46,36.90 43.03,36.91 C 43.27,36.91 44.12,37.29 44.42,37.45 C 44.66,37.39 44.75,37.20 44.85,36.99 C 44.40,36.68 43.73,36.36 43.31,36 C 42.89,35.63 42.37,35.37 41.93,35.03 C 41.86,34.94 41.81,34.84 41.75,34.75 z" id="p3315" style="fill:#e2dad7;fill-opacity:1;fill-rule:evenodd;stroke:none"/>
<path d="M 41.17,35.61 L 43.17,36.70" id="p3320" style="fill:none;fill-rule:evenodd;stroke:#000000;stroke-width:0.30;stroke-linecap:butt;stroke-linejoin:miter;stroke-miterlimit:4;stroke-dasharray:none;stroke-opacity:0.79"/>
<path d="M 41.29,34.19 C 41.06,34.81 40.64,35.58 40.2,36.09" id="p3455" style="fill:none;fill-opacity:0.82;fill-rule:evenodd;stroke:#ff5b31;stroke-width:0.30;stroke-linecap:butt;stroke-linejoin:miter;stroke-miterlimit:4;stroke-dasharray:none;stroke-opacity:0.88;display:inline"/>
<path d="M 34.81,29.03 C 34.32,30.16 33.85,31.25 32.56,33.23" id="p3410" style="fill:none;fill-opacity:1;fill-rule:evenodd;stroke:#181818;stroke-width:0.2;stroke-linecap:butt;stroke-linejoin:miter;stroke-miterlimit:4;stroke-dasharray:none;stroke-opacity:1;display:inline"/>
<path d="M 1.96,15.9 C 1.44,15.68 3.32,12.4 3.8,12.62 C 14.67,18.7 26.54,24.84 36.77,30.24 C 37.32,30.59 38.32,31.51 38.94,31.86 C 39.28,32.06 40.6,32.9 40.95,33.12 C 41.3,33.34 41.32,34.13 41.32,34.13 L 41.76,34.61 L 41.67,34.83 C 41.67,34.83 43.11,35.68 43.33,35.77 C 43.55,35.86 43.46,36.16 43.46,36.16 L 45,36.99 L 44.62,37.59 L 43.13,36.79 C 43.13,36.79 43.00,37.13 42.69,36.99 C 42.38,36.86 40.97,36.07 40.97,36.07 C 40.97,36.07 40.83,36.25 40.71,36.25 C 40.53,36.25 40.21,36.11 40.21,36.11 C 40.21,36.11 39.59,36.57 39.18,36.36 C 38.63,36.07 37.34,35.36 36.91,35.14 C 36.47,34.92 34.96,34.54 34.44,34.28 C 23.41,28.36 12.79,22.18 1.96,15.9 z" id="stroke01" style="fill:none;fill-opacity:1;fill-rule:evenodd;stroke:#080305;stroke-width:0.5;stroke-linecap:butt;stroke-linejoin:bevel;stroke-miterlimit:4;stroke-dasharray:none;stroke-opacity:1"/>
</g>
</svg>
