<?xml version="1.0" encoding="UTF-8" standalone="no"?>
<!DOCTYPE svg PUBLIC "-//W3C//DTD SVG 1.0//EN" "http://www.w3.org/TR/2001/REC-SVG-20010904/DTD/svg10.dtd">
<svg xmlns:svg="http://www.w3.org/2000/svg" xmlns="http://www.w3.org/2000/svg" version="1.0" width="100%" height="100%" viewBox="0 0 48 48" id="_spray01">
<defs id="defs2385"/>
<g id="spray01" style="display:inline">
<path d="M 17.05,11.15 C 16.57,10.95 16.77,10.31 17.01,10.19 C 17.25,10.07 18.24,9.84 18.64,9.8 C 18.68,8.96 19.95,7.97 20.82,7.85 C 20.9,7.65 20.82,7.57 20.82,7.41 C 20.59,7.45 20.55,6.93 20.78,6.81 C 21.02,6.7 21.5,6.54 21.74,6.5 C 21.74,6.22 21.86,5.98 22.02,5.94 C 22.17,5.9 22.29,5.9 22.29,5.9 C 22.29,5.9 22.45,4.23 22.45,3.91 C 22.45,3.6 23.45,3.56 23.73,3.56 C 24,3.56 25,3.56 25.24,3.56 C 25.47,3.56 25.95,3.67 25.95,4.11 C 25.95,4.55 25.95,5.82 25.95,5.82 C 25.95,5.82 26.27,5.94 26.47,5.98 C 26.67,6.02 26.63,6.34 26.63,6.5 C 26.98,6.58 27.66,6.74 27.7,7.01 C 27.74,7.29 27.82,7.61 27.46,7.61 C 27.5,7.69 27.5,7.89 27.5,7.89 C 28.67,8.05 29.49,9.28 29.49,9.8 C 30.64,9.92 31,10.19 31,10.39 C 31,10.59 31.04,10.83 30.84,10.91 C 30.8,11.47 30.88,42.67 30.88,43.23 C 31.28,43.3 31.48,44.18 30.92,44.58 C 30.36,44.97 29.37,45.89 22.97,45.69 C 16.57,45.49 16.49,44.02 16.49,43.78 C 16.49,43.54 16.57,43.38 16.77,43.23 C 16.77,42.31 17.09,11.11 17.05,11.15 z" id="p2482" style="opacity:1;fill:#f3ece4;fill-opacity:1;fill-rule:evenodd;stroke:none"/>
<path d="M 30.84,11.61 C 29.23,15.16 25.52,18.71 23.34,21.08 C 21.28,23.31 18.97,24.84 16.9,29.58 C 16.89,30.82 16.88,31.45 16.87,32.59 C 18.09,29.7 20.56,26.88 23.62,23.71 C 26.99,20.23 29.61,17.81 30.84,14.84 C 30.84,14.21 30.84,11.83 30.84,11.61 z" id="p3302" style="opacity:1;fill:#e23a2b;fill-opacity:1;fill-rule:evenodd;stroke:none;display:inline"/>
<path d="M 30.84,14.39 C 29.23,17.94 25.52,21.49 23.34,23.86 C 21.28,26.1 18.97,27.62 16.9,32.36 C 16.89,33.61 16.88,33.87 16.87,35.02 C 18.09,32.13 20.56,29.57 23.62,26.4 C 26.99,22.92 29.61,20.24 30.84,17.27 C 30.84,16.63 30.84,14.61 30.84,14.39 z" id="p3310" style="opacity:1;fill:#d57b05;fill-opacity:1;fill-rule:evenodd;stroke:none;display:inline"/>
<path d="M 30.84,17.08 C 29.23,20.63 25.52,24.18 23.34,26.55 C 21.28,28.79 19.05,30.23 16.89,34.95 C 16.88,36.19 16.88,36.56 16.87,37.7 C 18.09,34.82 20.56,32.26 23.62,29.09 C 26.99,25.61 29.61,22.93 30.84,19.95 C 30.84,19.32 30.84,17.3 30.84,17.08 z" id="p3312" style="opacity:1;fill:#d9d801;fill-opacity:1;fill-rule:evenodd;stroke:none;display:inline"/>
<path d="M 30.84,19.57 C 29.23,23.12 25.52,26.68 23.34,29.04 C 21.28,31.28 18.97,32.8 16.9,37.54 C 16.89,38.79 16.88,39.05 16.87,40.2 C 18.09,37.31 20.56,34.75 23.62,31.58 C 26.99,28.1 29.61,25.42 30.84,22.45 C 30.84,21.81 30.84,19.8 30.84,19.57 z" id="p3314" style="opacity:1;fill:#219a33;fill-opacity:1;fill-rule:evenodd;stroke:none;display:inline"/>
<path d="M 30.84,22.26 C 29.23,25.81 25.52,29.36 23.34,31.73 C 21.28,33.97 19.07,35.4 16.86,40.14 C 16.85,41.39 16.88,41.74 16.87,42.89 C 18.09,40 20.56,37.44 23.62,34.27 C 26.99,30.79 29.61,28.11 30.84,25.14 C 30.84,24.5 30.84,22.48 30.84,22.26 z" id="p3316" style="opacity:1;fill:#3b7ecd;fill-opacity:1;fill-rule:evenodd;stroke:none;display:inline"/>
<path d="M 22.18,9.4 C 21.42,9.4 20.81,10.03 20.81,10.84 L 20.81,45.56 C 21.43,45.62 22.15,45.66 22.96,45.68 C 23.18,45.69 23.35,45.68 23.56,45.68 L 23.56,10.84 C 23.56,10.03 22.94,9.4 22.18,9.4 z" id="p3469" style="opacity:1;fill:#eeecea;fill-opacity:0.26;fill-rule:evenodd;stroke:none;display:inline"/>
<path d="M 30.09,9.87 L 30.09,45.06 C 30.5,44.88 30.76,44.71 30.93,44.59 C 31.49,44.19 31.27,43.29 30.87,43.21 C 30.87,42.66 30.8,11.46 30.84,10.9 C 31.04,10.82 31,10.6 31,10.4 C 31,10.24 30.76,10.01 30.09,9.87 z" id="p3465" style="opacity:1;fill:#eeecea;fill-opacity:0.47;fill-rule:evenodd;stroke:none;display:inline"/>
<path d="M 26.53,8.81 C 26.15,8.81 25.84,9.13 25.84,9.53 L 25.84,45.68 C 26.34,45.67 26.81,45.65 27.21,45.62 L 27.21,9.53 C 27.21,9.13 26.91,8.81 26.53,8.81 z" id="p3467" style="opacity:1;fill:#eeecea;fill-opacity:0.26;fill-rule:evenodd;stroke:none;display:inline"/>
<path d="M 18.28,9.87 C 17.81,9.96 17.18,10.09 17,10.18 C 16.76,10.3 16.58,10.95 17.06,11.15 C 17.1,11.11 16.78,42.3 16.78,43.21 C 16.58,43.37 16.5,43.54 16.5,43.78 C 16.5,43.93 16.56,44.58 18.28,45.09 L 18.28,9.87 z" id="p3471" style="opacity:1;fill:#eeecea;fill-opacity:0.47;fill-rule:evenodd;stroke:none;display:inline"/>
<path d="M 17.78,9.96 C 17.45,10.04 17.11,10.12 17,10.18 C 16.76,10.3 16.58,10.95 17.06,11.15 C 17.1,11.11 16.78,42.3 16.78,43.21 C 16.58,43.37 16.5,43.54 16.5,43.78 C 16.5,43.91 16.57,44.45 17.84,44.93 L 17.84,9.96 C 17.82,9.97 17.8,9.96 17.78,9.96 z" id="r3481" style="opacity:1;fill:#eeecea;fill-opacity:0.47;fill-rule:evenodd;stroke:none;marker:none;visibility:visible;display:inline;overflow:visible;enable-background:accumulate"/>
<path d="M 30.37,9.96 L 30.37,44.9 C 30.61,44.77 30.8,44.68 30.93,44.59 C 31.49,44.19 31.27,43.29 30.87,43.21 C 30.87,42.66 30.8,11.46 30.84,10.9 C 31.04,10.82 31,10.6 31,10.4 C 31,10.27 30.81,10.1 30.37,9.96 z" id="r3483" style="opacity:1;fill:#eeecea;fill-opacity:0.47;fill-rule:evenodd;stroke:none;marker:none;visibility:visible;display:inline;overflow:visible;enable-background:accumulate"/>
<path d="M 16.8,41.78 C 16.8,41.9 16.78,43.18 16.78,43.21 C 16.58,43.37 16.5,43.54 16.5,43.78 C 16.5,44.01 16.56,45.48 22.96,45.68 C 29.36,45.88 30.38,44.99 30.93,44.59 C 31.49,44.19 31.27,43.29 30.87,43.21 C 30.87,43.19 30.87,42.18 30.87,42.09 C 29.72,42.65 27.06,43.06 23.93,43.06 C 20.58,43.06 17.57,42.57 16.8,41.78 z" id="p3287" style="opacity:1;fill:#3e5e90;fill-opacity:1;fill-rule:evenodd;stroke:none;display:inline"/>
<path d="M 16.74,43.26 C 16.62,43.38 16.5,43.59 16.5,43.78 C 16.5,44.01 16.56,45.48 22.96,45.68 C 29.36,45.88 30.38,44.99 30.93,44.59 C 31.39,44.26 31.23,43.54 30.98,43.28 C 30.71,44.32 27.51,44.79 23.72,44.71 C 20.3,44.64 17.4,44.23 16.74,43.26 z" id="p3275" style="opacity:1;fill:#ced0d0;fill-opacity:1;fill-rule:evenodd;stroke:none;display:inline"/>
<path d="M 30.98,43.28 C 30.71,44.32 27.51,44.79 23.72,44.71 C 20.3,44.64 17.4,44.23 16.74,43.26" id="p3282" style="opacity:1;fill:none;fill-opacity:1;fill-rule:evenodd;stroke:#c7c0b8;stroke-width:0.40;stroke-linecap:butt;stroke-linejoin:miter;stroke-miterlimit:4;stroke-dasharray:none;stroke-opacity:1;display:inline"/>
<path d="M 23.71,3.56 C 23.44,3.56 22.46,3.58 22.46,3.9 C 22.46,4.22 22.31,5.9 22.31,5.9 C 22.31,5.9 22.19,5.89 22.03,5.93 C 21.87,5.97 21.75,6.22 21.75,6.5 C 21.51,6.53 21.01,6.69 20.78,6.81 C 20.54,6.93 20.6,7.44 20.84,7.4 C 20.84,7.56 20.92,7.64 20.84,7.84 C 19.96,7.96 18.69,8.97 18.65,9.81 C 18.25,9.85 17.23,10.06 17,10.18 C 16.82,10.27 16.67,10.66 16.81,10.93 C 17.41,10.73 20.4,10.59 24.03,10.59 C 27.14,10.59 29.8,10.71 30.87,10.87 C 31.03,10.78 31,10.59 31,10.4 C 31,10.2 30.65,9.93 29.5,9.81 C 29.5,9.29 28.67,8.06 27.5,7.9 C 27.5,7.9 27.5,7.7 27.46,7.62 C 27.82,7.62 27.75,7.3 27.71,7.03 C 27.67,6.75 26.98,6.57 26.62,6.5 C 26.62,6.34 26.66,6.03 26.46,6 C 26.27,5.96 25.96,5.81 25.96,5.81 C 25.96,5.81 25.96,4.56 25.96,4.12 C 25.96,3.68 25.48,3.56 25.25,3.56 C 25.01,3.56 23.99,3.56 23.71,3.56 z" id="p3260" style="opacity:1;fill:#cfcfc3;fill-opacity:1;fill-rule:evenodd;stroke:none"/>
<path d="M 25.43,6.9 C 23.97,6.87 22.18,6.95 20.81,7.37 C 20.82,7.37 20.82,7.4 20.84,7.4 C 20.84,7.56 20.92,7.64 20.84,7.84 C 20.53,7.88 20.17,8.06 19.84,8.28 C 20.97,8.2 22.09,8.03 21.15,8.5 C 20.02,9.06 18.57,10.18 19.65,9.96 C 20.73,9.74 26.27,9.95 27.62,10.12 C 28.97,10.29 29.71,8.77 25.71,8.18 C 22.72,7.74 26.19,7.99 28.31,8.18 C 28.07,8.04 27.79,7.94 27.5,7.9 C 27.5,7.9 27.5,7.7 27.46,7.62 C 27.67,7.62 27.73,7.51 27.75,7.37 C 27.03,7.12 26.22,6.92 25.43,6.9 z" id="p3552" style="opacity:1;fill:#8f8f77;fill-opacity:0.13;fill-rule:evenodd;stroke:none;display:inline"/>
<path d="M 24.18,8.03 C 22.02,8.03 21.1,8.38 20.68,8.53 C 20.27,8.67 19.21,9.27 19.31,10.5 C 19.3,10.5 19.39,10.6 19.46,10.68 C 19.75,10.67 20.11,10.66 20.43,10.65 C 20.34,9.37 21.53,8.49 23.2,8.44 C 25.33,8.38 21.85,8.68 22.78,10.59 C 23.2,10.58 23.58,10.59 24.03,10.59 C 24.34,10.59 24.57,10.62 24.87,10.62 C 24.88,10.61 24.89,10.6 24.9,10.59 C 27.43,9.14 23.23,8.12 25.43,8.46 C 27.29,8.75 27.75,9.94 28.31,10.68 C 28.61,10.7 28.85,10.7 29.12,10.71 C 29.12,10.27 28.95,9.63 28.75,9.28 C 28.35,8.61 26.34,8.03 24.18,8.03 z" id="p3543" style="opacity:1;fill:#4f4f41;fill-opacity:0.12;fill-rule:evenodd;stroke:none;display:inline"/>
<path d="M 21.75,6.5 C 21.51,6.53 21.01,6.69 20.78,6.81 C 20.54,6.93 20.6,7.44 20.84,7.4 C 20.84,7.56 20.92,7.64 20.84,7.84 C 20.68,7.86 20.51,7.92 20.34,8 L 20.4,8.06 C 22.4,7.39 25.44,7.58 27.87,8 C 27.75,7.96 27.62,7.92 27.5,7.9 C 27.5,7.9 27.5,7.7 27.46,7.62 C 27.82,7.62 27.75,7.3 27.71,7.03 C 27.69,6.89 27.5,6.77 27.28,6.68 C 27.24,6.67 27.22,6.66 27.18,6.65 C 25.51,5.97 22.75,6.36 21.75,6.5 z" id="p3536" style="opacity:1;fill:#4f4f41;fill-opacity:0.51;fill-rule:evenodd;stroke:none"/>
<path d="M 23.9,9.9 C 21.85,9.9 20.01,9.97 18.65,10.12 C 18.65,10.13 18.65,10.15 18.65,10.15 C 18.25,10.19 17.23,10.41 17,10.53 C 16.84,10.61 16.73,10.91 16.78,11.15 L 16.96,11.15 C 16.96,11.26 16.93,11.35 16.9,11.37 C 16.88,11.4 16.88,11.42 16.9,11.4 C 16.94,11.38 17.05,11.32 17.21,11.28 C 17.55,11.19 18.09,11.1 18.75,11.03 C 20.06,10.88 21.88,10.78 23.9,10.78 C 25.93,10.78 27.78,10.88 29.09,11.03 C 29.74,11.1 30.28,11.19 30.62,11.28 C 30.74,11.31 30.78,11.35 30.84,11.37 C 30.84,11.37 30.84,11.25 30.84,11.25 C 30.85,11.24 30.86,11.25 30.87,11.25 C 30.86,11.22 30.84,11.2 30.84,11.15 L 30.96,11.15 C 31.04,11.04 31,10.9 31,10.75 C 31,10.62 30.82,10.44 30.4,10.31 C 30.3,10.29 30.23,10.27 30.12,10.25 C 29.93,10.22 29.71,10.18 29.5,10.15 C 29.39,10.14 29.3,10.14 29.18,10.12 C 27.82,9.97 25.95,9.9 23.9,9.9 z" id="p3504" style="opacity:1;fill:#f0f0f0;fill-opacity:1;fill-rule:evenodd;stroke:none;marker:none;visibility:visible;display:inline;overflow:visible;enable-background:accumulate"/>
<path d="M 23.9,9.56 C 21.85,9.56 20.01,9.63 18.65,9.78 C 18.65,9.79 18.65,9.8 18.65,9.81 C 18.25,9.85 17.23,10.06 17,10.18 C 16.84,10.26 16.73,10.56 16.78,10.81 L 16.96,10.81 C 16.96,10.92 16.93,11 16.9,11.03 C 16.88,11.05 16.88,11.07 16.9,11.06 C 16.94,11.03 17.05,10.98 17.21,10.93 C 17.55,10.85 18.09,10.75 18.75,10.68 C 20.06,10.54 21.88,10.43 23.9,10.43 C 25.93,10.43 27.78,10.54 29.09,10.68 C 29.74,10.75 30.28,10.85 30.62,10.93 C 30.74,10.96 30.78,11 30.84,11.03 C 30.84,11.02 30.84,10.9 30.84,10.9 C 30.85,10.9 30.86,10.9 30.87,10.9 C 30.86,10.87 30.84,10.85 30.84,10.81 L 30.96,10.81 C 31.04,10.7 31,10.55 31,10.4 C 31,10.27 30.82,10.09 30.4,9.96 C 30.3,9.94 30.23,9.92 30.12,9.9 C 29.93,9.87 29.71,9.84 29.5,9.81 C 29.39,9.79 29.3,9.79 29.18,9.78 C 27.82,9.63 25.95,9.56 23.9,9.56 z" id="p3491" style="opacity:1;fill:#dbdbd3;fill-opacity:1;fill-rule:evenodd;stroke:none;marker:none;visibility:visible;display:inline;overflow:visible;enable-background:accumulate"/>
<path d="M 22.62,10.58 C 23.12,10.57 25.36,10.58 25.76,10.6" id="p3506" style="opacity:1;fill:none;fill-rule:evenodd;stroke:#4d4d4d;stroke-width:0.30;stroke-linecap:round;stroke-linejoin:miter;stroke-miterlimit:4;stroke-dasharray:none;stroke-opacity:0.55;display:inline"/>
<path d="M 23.97,10.57 C 24.2,10.55 24.48,10.58 24.48,10.58" id="p3509" style="opacity:1;fill:none;fill-rule:evenodd;stroke:#f8f8f8;stroke-width:0.40;stroke-linecap:round;stroke-linejoin:miter;stroke-miterlimit:4;stroke-dasharray:none;stroke-opacity:0.86"/>
<path d="M 22.93,10.57 C 23.09,10.57 23.16,10.58 23.16,10.58" id="p3511" style="opacity:1;fill:none;fill-rule:evenodd;stroke:#f8f8f8;stroke-width:0.30;stroke-linecap:round;stroke-linejoin:miter;stroke-miterlimit:4;stroke-dasharray:none;stroke-opacity:0.5;display:inline"/>
<path d="M 27.55,10.69 C 28.16,10.71 29.36,10.84 29.53,10.86" id="p3513" style="opacity:1;fill:none;fill-rule:evenodd;stroke:#303030;stroke-width:0.30;stroke-linecap:round;stroke-linejoin:miter;stroke-miterlimit:4;stroke-dasharray:none;stroke-opacity:0.3;display:inline"/>
<path d="M 31,10.48 C 30.58,9.91 29.84,9.96 29.18,9.86 C 27.82,9.71 25.95,9.64 23.9,9.64 C 21.85,9.64 20.01,9.71 18.65,9.86 C 18.65,9.87 18.65,9.88 18.65,9.89 C 18.25,9.93 17.23,10.15 17,10.27" id="p3516" style="opacity:1;fill:none;fill-opacity:1;fill-rule:evenodd;stroke:#9b9b9b;stroke-width:0.40;stroke-linecap:round;stroke-linejoin:miter;marker:none;stroke-miterlimit:4;stroke-dasharray:none;stroke-dashoffset:0;stroke-opacity:0.31;visibility:visible;display:inline;overflow:visible;enable-background:accumulate"/>
<path d="M 23.71,3.56 C 23.44,3.56 22.46,3.58 22.46,3.9 C 22.46,4.22 22.31,5.9 22.31,5.9 C 22.31,5.9 22.19,5.89 22.03,5.93 C 21.87,5.97 21.75,6.22 21.75,6.5 C 21.51,6.53 21.01,6.69 20.78,6.81 C 20.6,6.9 20.58,7.21 20.68,7.34 C 23.66,6.55 25.71,6.54 27.75,7.25 C 27.74,7.17 27.72,7.1 27.71,7.03 C 27.67,6.75 26.98,6.57 26.62,6.5 C 26.62,6.34 26.66,6.03 26.46,6 C 26.27,5.96 25.96,5.81 25.96,5.81 C 25.96,5.81 25.96,4.56 25.96,4.12 C 25.96,3.68 25.48,3.56 25.25,3.56 C 25.01,3.56 23.99,3.56 23.71,3.56 z" id="p3531" style="opacity:1;fill:#444b44;fill-opacity:1;fill-rule:evenodd;stroke:none"/>
<path d="M 24.03,3.56 L 23.93,5.84 L 23.68,5.84 L 23.65,6.75 L 24.18,6.75 C 24.45,6.73 24.71,6.74 24.96,6.75 L 24.96,5.87 L 24.81,5.87 L 24.84,3.56 C 24.55,3.56 24.3,3.56 24.03,3.56 z" id="p3587" style="opacity:1;fill:#000000;fill-opacity:0.67;fill-rule:evenodd;stroke:none;display:inline"/>
<path d="M 24.27,3.62 L 24.25,6.36" id="p3590" style="opacity:1;fill:none;fill-rule:evenodd;stroke:#f3f3f3;stroke-width:0.1;stroke-linecap:butt;stroke-linejoin:miter;stroke-miterlimit:4;stroke-dasharray:none;stroke-opacity:0.43;display:inline"/>
<path d="M 24.71,3.56 L 24.75,5.78 L 24.87,5.81 L 24.87,6.65 L 25.25,6.65 L 25.15,5.87 L 25,5.81 L 25.03,3.56 C 24.94,3.56 24.84,3.56 24.71,3.56 z" id="p3596" style="opacity:1;fill:#f7f7f7;fill-opacity:0.31;fill-rule:evenodd;stroke:none;display:inline"/>
<path d="M 23.71,3.56 C 23.68,3.56 23.58,3.59 23.53,3.59 L 23.4,5.87 L 23.25,5.87 L 23.21,6.71 L 23.56,6.75 L 23.56,5.87 L 23.71,5.87 L 23.81,3.56 C 23.79,3.56 23.73,3.56 23.71,3.56 z" id="p3593" style="opacity:1;fill:#bbbbbb;fill-opacity:0.51;fill-rule:evenodd;stroke:none;display:inline"/>
<path d="M 24.15,6.43 C 23.13,6.43 22.2,6.51 21.5,6.71 C 21.19,6.8 20.91,6.84 20.68,6.93 C 20.68,6.95 20.66,6.95 20.65,6.96 C 20.58,7.16 20.66,7.43 20.84,7.4 C 20.88,7.55 20.97,7.46 21.12,7.43 C 21.24,7.38 21.45,7.3 21.75,7.25 C 22.33,7.13 23.21,7.03 24.15,7.03 C 25.1,7.03 25.94,7.13 26.53,7.25 C 26.82,7.3 27.06,7.38 27.18,7.43 C 27.29,7.49 27.39,7.53 27.58,7.61 C 27.64,7.42 27.69,7.27 27.71,7.03 C 27.71,7 27.69,6.98 27.68,6.96 C 27.44,6.85 27.16,6.73 26.81,6.66 C 26.1,6.52 25.17,6.43 24.15,6.43 z" id="p3518" style="opacity:1;fill:#cbcbcb;fill-opacity:1;fill-rule:evenodd;stroke:none;marker:none;visibility:visible;display:inline;overflow:visible;enable-background:accumulate"/>
<path d="M 20.84,7.45 C 20.88,7.6 20.97,7.51 21.12,7.48 C 21.24,7.43 21.45,7.35 21.75,7.29 C 22.33,7.18 23.21,7.08 24.15,7.08 C 25.1,7.08 25.94,7.18 26.53,7.29 C 26.82,7.35 27.06,7.43 27.18,7.48 C 27.29,7.54 27.39,7.58 27.58,7.66" id="p3541" style="opacity:1;fill:none;fill-opacity:1;fill-rule:evenodd;stroke:#5f5f5f;stroke-width:0.2;stroke-linecap:round;stroke-linejoin:miter;marker:none;stroke-miterlimit:4;stroke-dasharray:none;stroke-dashoffset:0;stroke-opacity:1;visibility:visible;display:inline;overflow:visible;enable-background:accumulate"/>
<path d="M 20.06,8.12 C 19.49,8.43 18.96,8.93 18.75,9.43 C 19.27,9.49 19.73,9.24 20.34,8.87 C 20.95,8.5 21.26,8.24 20.06,8.12 z" id="p3559" style="opacity:1;fill:#ffffff;fill-opacity:0.33;fill-rule:evenodd;stroke:none"/>
<path d="M 27.78,7.96 C 27.01,8 26.87,8.17 27.46,8.46 C 28.22,8.83 28.77,9.73 29.46,9.65 C 29.34,9.13 28.7,8.23 27.78,7.96 z" id="p3561" style="opacity:1;fill:#ffffff;fill-opacity:0.27;fill-rule:evenodd;stroke:none"/>
<path d="M 21.08,9.26 C 22.87,9.16 25.69,9.16 26.86,9.26" id="p3569" style="opacity:1;fill:none;fill-rule:evenodd;stroke:#f7f7f7;stroke-width:0.60;stroke-linecap:round;stroke-linejoin:miter;stroke-miterlimit:4;stroke-dasharray:none;stroke-opacity:0.18;display:inline"/>
<path d="M 19.53,10.3 C 20.91,10.19 21.91,10.19 21.91,10.19" id="p3572" style="opacity:1;fill:none;fill-rule:evenodd;stroke:#fdfdfd;stroke-width:0.5;stroke-linecap:round;stroke-linejoin:miter;stroke-miterlimit:4;stroke-dasharray:none;stroke-opacity:0.56;display:inline"/>
<path d="M 22.34,6.84 C 22.92,6.73 23.38,6.73 23.72,6.73" id="p3575" style="opacity:1;fill:none;fill-rule:evenodd;stroke:#ffffff;stroke-width:0.60;stroke-linecap:round;stroke-linejoin:miter;stroke-miterlimit:4;stroke-dasharray:none;stroke-opacity:0.5"/>
<path d="M 25.22,6.76 C 25.48,6.76 25.72,6.79 25.98,6.83" id="p3577" style="opacity:1;fill:none;fill-rule:evenodd;stroke:#ffffff;stroke-width:0.60;stroke-linecap:round;stroke-linejoin:miter;stroke-miterlimit:4;stroke-dasharray:none;stroke-opacity:0.5"/>
<path d="M 27.11,7.01 C 27.29,7.1 27.52,7.27 27.52,7.27" id="p3579" style="opacity:1;fill:none;fill-rule:evenodd;stroke:#fdfdfd;stroke-width:0.60;stroke-linecap:round;stroke-linejoin:miter;stroke-miterlimit:4;stroke-dasharray:none;stroke-opacity:0.46;display:inline"/>
<path d="M 21.22,6.99 C 21.05,7.1 20.79,7.16 20.79,7.16" id="p3582" style="opacity:1;fill:none;fill-rule:evenodd;stroke:#fdfdfd;stroke-width:0.60;stroke-linecap:round;stroke-linejoin:miter;stroke-miterlimit:4;stroke-dasharray:none;stroke-opacity:0.46"/>
<path d="M 24.5,6.73 C 24.73,6.73 25.07,6.73 25.07,6.73" id="p3584" style="opacity:1;fill:none;fill-rule:evenodd;stroke:#5b5b5b;stroke-width:0.60;stroke-linecap:round;stroke-linejoin:miter;stroke-miterlimit:4;stroke-dasharray:none;stroke-opacity:0.37;display:inline"/>
<path d="M 25.23,4.61 C 25.23,5.04 24.89,5.39 24.48,5.39 C 24.06,5.39 23.73,5.04 23.73,4.61 C 23.73,4.17 24.06,3.82 24.48,3.82 C 24.89,3.82 25.23,4.17 25.23,4.61 z" id="p3608" style="opacity:1;fill:#262626;fill-opacity:1;fill-rule:evenodd;stroke:#000000;stroke-width:0.1;stroke-linecap:round;stroke-linejoin:miter;marker:none;stroke-miterlimit:4;stroke-dasharray:none;stroke-dashoffset:0;stroke-opacity:1;visibility:visible;display:inline;overflow:visible;enable-background:accumulate"/>
<path d="M 24.91,4.58 C 24.91,4.87 24.68,5.11 24.41,5.11 C 24.13,5.11 23.90,4.87 23.90,4.58 C 23.90,4.29 24.13,4.06 24.41,4.06 C 24.68,4.06 24.91,4.29 24.91,4.58 z" id="p3611" style="opacity:1;fill:#b9b9b9;fill-opacity:1;fill-rule:evenodd;stroke:#424242;stroke-width:0.09;stroke-linecap:round;stroke-linejoin:miter;marker:none;stroke-miterlimit:4;stroke-dasharray:none;stroke-dashoffset:0;stroke-opacity:1;visibility:visible;display:inline;overflow:visible;enable-background:accumulate"/>
<path d="M 24.59,4.61 C 24.59,4.68 24.54,4.73 24.48,4.73 C 24.41,4.73 24.36,4.68 24.36,4.61 C 24.36,4.55 24.41,4.50 24.48,4.50 C 24.54,4.50 24.59,4.55 24.59,4.61 z" id="p3613" style="opacity:1;fill:#a1a1a1;fill-opacity:1;fill-rule:evenodd;stroke:#d4d4d4;stroke-width:0.1;stroke-linecap:round;stroke-linejoin:miter;marker:none;stroke-miterlimit:4;stroke-dasharray:none;stroke-dashoffset:0;stroke-opacity:1;visibility:visible;display:inline;overflow:visible;enable-background:accumulate"/>
<path d="M 17.05,11.15 C 16.57,10.95 16.77,10.31 17.01,10.19 C 17.25,10.07 18.24,9.84 18.64,9.8 C 18.68,8.96 19.95,7.97 20.82,7.85 C 20.9,7.65 20.82,7.57 20.82,7.41 C 20.59,7.45 20.55,6.93 20.78,6.81 C 21.02,6.7 21.5,6.54 21.74,6.5 C 21.74,6.22 21.86,5.98 22.02,5.94 C 22.17,5.9 22.29,5.9 22.29,5.9 C 22.29,5.9 22.45,4.23 22.45,3.91 C 22.45,3.6 23.45,3.56 23.73,3.56 C 24,3.56 25,3.56 25.24,3.56 C 25.47,3.56 25.95,3.67 25.95,4.11 C 25.95,4.55 25.95,5.82 25.95,5.82 C 25.95,5.82 26.27,5.94 26.47,5.98 C 26.67,6.02 26.63,6.34 26.63,6.5 C 26.98,6.58 27.66,6.74 27.7,7.01 C 27.74,7.29 27.82,7.61 27.46,7.61 C 27.5,7.69 27.5,7.89 27.5,7.89 C 28.67,8.05 29.49,9.28 29.49,9.8 C 30.64,9.92 31,10.19 31,10.39 C 31,10.59 31.04,10.83 30.84,10.91 C 30.8,11.47 30.88,42.67 30.88,43.23 C 31.28,43.3 31.48,44.18 30.92,44.58 C 30.36,44.97 29.37,45.89 22.97,45.69 C 16.57,45.49 16.49,44.02 16.49,43.78 C 16.49,43.54 16.57,43.38 16.77,43.23 C 16.77,42.31 17.09,11.11 17.05,11.15 z" id="stroke01" style="opacity:1;fill:none;fill-opacity:1;fill-rule:evenodd;stroke:#2a231a;stroke-width:0.5;stroke-linecap:butt;stroke-linejoin:miter;stroke-miterlimit:4;stroke-dasharray:none;stroke-opacity:1"/>
<path d="M 18.9,23.83 C 18.18,22.82 17.64,21.63 17.64,21.63 C 17.64,21.63 17.98,20.9 18.3,20.41 C 18.83,19.6 19.74,21.1 19.3,21.7 C 18.86,22.29 18.74,22.51 18.74,22.51 L 19.27,23.39 L 18.9,23.83 z" id="p3318" style="opacity:1;fill:none;fill-rule:evenodd;stroke:#262626;stroke-width:0.2;stroke-linecap:butt;stroke-linejoin:miter;stroke-miterlimit:4;stroke-dasharray:none;stroke-opacity:1"/>
<path d="M 18.12,21.54 L 18.47,22.13 C 18.47,22.13 18.82,21.71 18.99,21.43 C 19.16,21.14 18.75,20.45 18.54,20.78 C 18.37,21.03 18.14,21.52 18.12,21.54 z" id="p3320" style="opacity:1;fill:none;fill-opacity:1;fill-rule:evenodd;stroke:#262626;stroke-width:0.2;stroke-linecap:butt;stroke-linejoin:miter;marker:none;stroke-miterlimit:4;stroke-dasharray:none;stroke-dashoffset:0;stroke-opacity:1;visibility:visible;display:inline;overflow:visible;enable-background:accumulate"/>
<path d="M 22.15,19.76 C 22.15,20.74 21.54,21.53 20.80,21.53 C 20.06,21.53 19.46,20.74 19.46,19.76 C 19.46,18.77 20.06,17.98 20.80,17.98 C 21.54,17.98 22.15,18.77 22.15,19.76 z" id="p3322" style="opacity:1;fill:none;fill-opacity:1;fill-rule:evenodd;stroke:#262626;stroke-width:0.2;stroke-linecap:butt;stroke-linejoin:miter;marker:none;stroke-miterlimit:4;stroke-dasharray:none;stroke-dashoffset:0;stroke-opacity:1;visibility:visible;display:inline;overflow:visible;enable-background:accumulate"/>
<path d="M 21.50,19.74 C 21.50,20.42 21.13,20.98 20.66,20.98 C 20.20,20.98 19.83,20.42 19.83,19.74 C 19.83,19.05 20.20,18.49 20.66,18.49 C 21.13,18.49 21.50,19.05 21.50,19.74 z" id="p3324" style="opacity:1;fill:none;fill-opacity:1;fill-rule:evenodd;stroke:#262626;stroke-width:0.19;stroke-linecap:butt;stroke-linejoin:miter;marker:none;stroke-miterlimit:4;stroke-dasharray:none;stroke-dashoffset:0;stroke-opacity:1;visibility:visible;display:inline;overflow:visible;enable-background:accumulate"/>
<path d="M 21.06,16.73 C 21.06,16.73 22.31,18.09 22.76,18.65 C 23.08,19.04 23.61,18.64 23.8,18.47 C 24.01,18.3 24.51,17.82 24.72,17.54 C 24.93,17.26 24.95,16.95 24.69,16.65 C 24.43,16.34 22.88,14.78 22.88,14.78 L 22.45,15.3 C 22.45,15.3 23.79,16.65 24.04,16.93 C 24.35,17.27 23.9,17.58 23.79,17.68 C 23.68,17.79 23.29,18.23 22.95,17.89 C 22.63,17.55 21.46,16.24 21.46,16.24 L 21.06,16.73 z" id="p3330" style="opacity:1;fill:none;fill-opacity:1;fill-rule:evenodd;stroke:#262626;stroke-width:0.2;stroke-linecap:butt;stroke-linejoin:miter;marker:none;stroke-miterlimit:4;stroke-dasharray:none;stroke-dashoffset:0;stroke-opacity:1;visibility:visible;display:inline;overflow:visible;enable-background:accumulate"/>
<path d="M 25.64,16.43 L 23.41,14.15 L 25.08,12.49 L 25.64,12.89 L 24.41,14.15 L 24.97,14.74 L 25.68,14.05 L 26.14,14.47 L 25.43,15.18 L 26.13,15.93 L 25.64,16.43 z" id="p3332" style="opacity:1;fill:none;fill-opacity:1;fill-rule:evenodd;stroke:#262626;stroke-width:0.2;stroke-linecap:butt;stroke-linejoin:miter;marker:none;stroke-miterlimit:4;stroke-dasharray:none;stroke-dashoffset:0;stroke-opacity:1;visibility:visible;display:inline;overflow:visible;enable-background:accumulate"/>
<path d="M 17.73,33.31 C 17.68,33.33 17.64,33.38 17.6,33.44 C 17.41,33.73 17.38,34.57 17.45,35.16 C 17.5,35.66 17.66,35.87 17.82,35.81 C 17.98,35.84 18.14,35.48 18.16,35 C 18.1,34.93 18.02,34.85 17.95,34.78 C 17.93,34.95 17.91,35.15 17.85,35.22 C 17.69,35.42 17.6,34.82 17.63,34.41 C 17.62,34.03 17.78,33.71 17.88,33.94 C 17.93,34.15 17.96,34.27 18.04,34.16 C 18.11,34.12 18.19,34.09 18.1,33.81 C 18.03,33.39 17.87,33.25 17.73,33.31 z M 19.16,33.44 C 19.06,33.43 18.95,33.44 18.85,33.47 C 18.47,33.55 18.23,34.13 18.26,34.69 C 18.26,34.9 18.26,35.15 18.32,35.34 C 18.52,35.99 19.11,36.08 19.51,35.84 C 19.93,35.57 20.01,34.74 19.88,34.16 C 19.78,33.69 19.48,33.47 19.16,33.44 z M 22.82,33.47 C 22.69,33.46 22.57,33.47 22.45,33.5 C 21.97,33.58 21.66,34.16 21.7,34.72 C 21.7,34.94 21.71,35.18 21.79,35.38 C 22.04,36.02 22.77,36.11 23.26,35.88 C 23.78,35.6 23.85,34.78 23.7,34.19 C 23.57,33.72 23.2,33.5 22.82,33.47 z M 20.16,33.53 C 20.16,34.34 20.16,35.13 20.16,35.94 C 20.66,35.94 21.17,35.94 21.66,35.94 C 21.66,35.74 21.66,35.54 21.66,35.34 C 21.36,35.34 21.06,35.34 20.76,35.34 C 20.76,34.74 20.76,34.14 20.76,33.53 C 20.56,33.53 20.36,33.53 20.16,33.53 z M 24.1,33.53 C 24.1,34.34 24.1,35.13 24.1,35.94 C 24.31,35.94 24.52,35.94 24.73,35.94 C 24.73,35.72 24.73,35.5 24.73,35.28 C 24.71,35.09 24.72,34.8 24.95,35 C 25.13,35.28 25.23,35.63 25.38,35.94 C 25.62,35.94 25.84,35.94 26.07,35.94 C 25.98,35.72 25.88,35.5 25.79,35.28 C 25.79,35.04 25.31,34.88 25.57,34.84 C 26.05,34.68 26.04,33.69 25.54,33.56 C 25.07,33.48 24.58,33.55 24.1,33.53 z M 24.79,34 C 24.99,34 25.36,33.94 25.29,34.31 C 25.18,34.55 24.92,34.48 24.73,34.5 C 24.73,34.47 24.73,34.44 24.73,34.41 C 24.76,34.29 24.68,34.01 24.79,34 z M 19.07,34.03 C 19.21,34.02 19.34,34.1 19.38,34.31 C 19.44,34.66 19.47,35.23 19.2,35.38 C 18.92,35.52 18.68,35.11 18.73,34.72 C 18.73,34.61 18.74,34.48 18.76,34.38 C 18.78,34.15 18.93,34.05 19.07,34.03 z M 22.7,34.06 C 22.87,34.05 23.05,34.13 23.1,34.34 C 23.18,34.69 23.19,35.26 22.85,35.41 C 22.51,35.56 22.26,35.14 22.32,34.75 C 22.32,34.64 22.3,34.51 22.32,34.41 C 22.35,34.18 22.53,34.08 22.7,34.06 z" id="p3378" style="opacity:1;fill:#676b91;fill-opacity:1;stroke:none;display:inline"/>
<path d="M 17.53,33.09 C 17.48,33.11 17.44,33.16 17.4,33.21 C 17.2,33.51 17.18,34.35 17.25,34.93 C 17.3,35.44 17.46,35.64 17.62,35.59 C 17.78,35.61 17.94,35.26 17.96,34.78 C 17.89,34.71 17.81,34.62 17.75,34.56 C 17.73,34.73 17.71,34.93 17.65,35 C 17.49,35.19 17.4,34.59 17.43,34.18 C 17.42,33.81 17.58,33.49 17.68,33.71 C 17.73,33.93 17.76,34.05 17.84,33.93 C 17.91,33.89 17.98,33.87 17.9,33.59 C 17.83,33.17 17.67,33.03 17.53,33.09 z M 18.96,33.21 C 18.86,33.2 18.75,33.21 18.65,33.25 C 18.26,33.33 18.03,33.91 18.06,34.46 C 18.06,34.68 18.06,34.92 18.12,35.12 C 18.32,35.77 18.91,35.86 19.31,35.62 C 19.73,35.34 19.81,34.52 19.68,33.93 C 19.58,33.47 19.27,33.24 18.96,33.21 z M 22.62,33.25 C 22.49,33.24 22.36,33.24 22.25,33.28 C 21.77,33.36 21.46,33.94 21.5,34.5 C 21.5,34.71 21.51,34.95 21.59,35.15 C 21.83,35.8 22.56,35.89 23.06,35.65 C 23.58,35.37 23.65,34.55 23.5,33.96 C 23.37,33.5 23,33.27 22.62,33.25 z M 19.96,33.31 C 19.96,34.12 19.96,34.91 19.96,35.71 C 20.46,35.71 20.97,35.71 21.46,35.71 C 21.46,35.51 21.46,35.32 21.46,35.12 C 21.16,35.12 20.86,35.12 20.56,35.12 C 20.56,34.51 20.56,33.92 20.56,33.31 C 20.36,33.31 20.16,33.31 19.96,33.31 z M 23.9,33.31 C 23.9,34.12 23.9,34.91 23.9,35.71 C 24.11,35.71 24.32,35.71 24.53,35.71 C 24.53,35.49 24.53,35.28 24.53,35.06 C 24.51,34.86 24.52,34.58 24.75,34.78 C 24.93,35.06 25.03,35.41 25.18,35.71 C 25.42,35.71 25.64,35.71 25.87,35.71 C 25.78,35.49 25.68,35.28 25.59,35.06 C 25.59,34.82 25.11,34.66 25.37,34.62 C 25.85,34.45 25.84,33.47 25.34,33.34 C 24.87,33.25 24.38,33.32 23.9,33.31 z M 24.59,33.78 C 24.79,33.77 25.16,33.72 25.09,34.09 C 24.98,34.33 24.71,34.26 24.53,34.28 C 24.53,34.24 24.53,34.22 24.53,34.18 C 24.55,34.07 24.48,33.79 24.59,33.78 z M 18.87,33.81 C 19.01,33.79 19.14,33.87 19.18,34.09 C 19.24,34.43 19.27,35.01 19,35.15 C 18.72,35.3 18.48,34.88 18.53,34.5 C 18.53,34.39 18.54,34.25 18.56,34.15 C 18.58,33.92 18.73,33.82 18.87,33.81 z M 22.5,33.84 C 22.67,33.82 22.84,33.9 22.9,34.12 C 22.97,34.47 22.99,35.04 22.65,35.18 C 22.31,35.33 22.06,34.91 22.12,34.53 C 22.12,34.42 22.1,34.29 22.12,34.18 C 22.15,33.95 22.32,33.85 22.5,33.84 z" id="p3372" style="opacity:1;fill:#d13b3a;fill-opacity:1;stroke:none"/>
<path d="M 17.71,36.18 C 17.62,36.2 17.56,36.28 17.49,36.43 C 17.35,36.73 17.38,37.34 17.55,37.49 C 17.67,37.69 17.85,37.57 17.93,37.9 C 17.93,38.37 17.62,38.25 17.65,37.81 C 17.55,37.82 17.46,37.82 17.36,37.84 C 17.37,37.98 17.37,38.12 17.4,38.24 C 17.49,38.71 17.75,38.7 17.93,38.65 C 18.13,38.61 18.29,38.07 18.21,37.59 C 18.12,37.13 17.88,37.09 17.71,36.96 C 17.52,36.64 17.95,36.43 17.93,36.93 C 18,36.92 18.04,36.91 18.11,36.9 C 18.27,36.9 18.09,36.24 17.99,36.24 C 17.91,36.19 17.8,36.16 17.71,36.18 z M 18.4,36.34 C 18.4,37.14 18.4,37.94 18.4,38.74 C 18.56,38.74 18.7,38.74 18.86,38.74 C 18.86,38.45 18.86,38.17 18.86,37.87 C 19.04,37.86 19.26,37.88 19.43,37.81 C 19.87,37.64 19.86,36.48 19.4,36.37 C 19.07,36.31 18.73,36.35 18.4,36.34 z M 19.93,36.49 C 19.93,37.3 19.93,38.1 19.93,38.9 C 20.1,38.9 20.28,38.9 20.46,38.9 C 20.46,38.66 20.46,38.45 20.46,38.21 C 20.43,38.02 20.45,37.82 20.61,37.99 C 20.77,38.27 20.89,38.59 21.02,38.9 C 21.22,38.9 21.42,38.9 21.61,38.9 C 21.82,38.9 22.04,38.9 22.24,38.9 C 22.27,38.77 22.3,38.66 22.33,38.52 C 22.58,38.52 22.8,38.52 23.05,38.52 C 23.09,38.66 23.14,38.77 23.18,38.9 C 23.41,38.9 23.64,38.9 23.86,38.9 C 23.6,38.1 23.32,37.3 23.05,36.49 C 22.81,36.49 22.6,36.49 22.36,36.49 C 22.11,37.27 21.84,38.03 21.58,38.81 C 21.47,38.5 21.35,38.17 21.18,37.93 C 20.94,37.82 21.19,37.84 21.3,37.71 C 21.6,37.41 21.5,36.59 21.11,36.52 C 20.73,36.46 20.32,36.51 19.93,36.49 z M 23.65,36.49 C 23.89,36.95 24.12,37.41 24.36,37.87 C 24.39,38.2 24.36,38.56 24.36,38.9 C 24.56,38.9 24.76,38.9 24.96,38.9 C 24.96,38.56 24.96,38.24 24.96,37.9 C 25.2,37.43 25.46,36.96 25.71,36.49 C 25.49,36.49 25.27,36.49 25.05,36.49 C 24.92,36.76 24.81,37.03 24.68,37.31 C 24.55,37.03 24.4,36.76 24.27,36.49 C 24.05,36.49 23.86,36.49 23.65,36.49 z M 18.99,36.84 C 19.03,36.83 19.08,36.83 19.11,36.84 C 19.19,36.86 19.26,36.93 19.27,37.06 C 19.31,37.38 19.02,37.38 18.86,37.37 C 18.86,37.2 18.86,37.04 18.86,36.87 C 18.89,36.86 18.95,36.84 18.99,36.84 z M 20.49,36.99 C 20.5,36.98 20.52,36.98 20.55,36.99 C 20.71,36.98 20.99,36.97 20.93,37.31 C 20.84,37.55 20.62,37.45 20.46,37.46 C 20.46,37.4 20.46,37.34 20.46,37.27 C 20.47,37.19 20.45,37.04 20.49,36.99 z M 22.71,37.12 C 22.79,37.41 22.85,37.7 22.93,37.99 C 22.77,37.99 22.61,37.99 22.46,37.99 C 22.54,37.7 22.63,37.41 22.71,37.12 z" id="p3402" style="opacity:1;fill:#676b91;fill-opacity:1;stroke:none;display:inline"/>
<path d="M 17.43,35.93 C 17.34,35.95 17.28,36.03 17.21,36.18 C 17.08,36.48 17.11,37.09 17.28,37.25 C 17.39,37.44 17.58,37.32 17.65,37.65 C 17.66,38.12 17.35,38 17.37,37.56 C 17.28,37.57 17.18,37.57 17.09,37.59 C 17.09,37.73 17.09,37.87 17.12,38 C 17.22,38.46 17.47,38.45 17.65,38.4 C 17.85,38.36 18.02,37.82 17.93,37.34 C 17.85,36.88 17.6,36.84 17.43,36.71 C 17.25,36.39 17.67,36.18 17.65,36.68 C 17.72,36.67 17.77,36.66 17.84,36.65 C 17.99,36.65 17.81,35.99 17.71,36 C 17.63,35.94 17.52,35.91 17.43,35.93 z M 18.12,36.09 C 18.12,36.89 18.12,37.69 18.12,38.5 C 18.28,38.5 18.43,38.5 18.59,38.5 C 18.59,38.2 18.59,37.92 18.59,37.62 C 18.76,37.61 18.98,37.63 19.15,37.56 C 19.59,37.4 19.58,36.23 19.12,36.12 C 18.79,36.06 18.45,36.1 18.12,36.09 z M 19.65,36.25 C 19.65,37.05 19.65,37.85 19.65,38.65 C 19.83,38.65 20.01,38.65 20.18,38.65 C 20.18,38.42 20.18,38.2 20.18,37.96 C 20.16,37.77 20.18,37.58 20.34,37.75 C 20.49,38.02 20.62,38.35 20.75,38.65 C 20.94,38.65 21.14,38.65 21.34,38.65 C 21.54,38.65 21.76,38.65 21.96,38.65 C 22,38.52 22.02,38.41 22.06,38.28 C 22.31,38.28 22.53,38.28 22.78,38.28 C 22.81,38.41 22.87,38.52 22.9,38.65 C 23.13,38.65 23.36,38.65 23.59,38.65 C 23.32,37.85 23.04,37.05 22.78,36.25 C 22.54,36.25 22.33,36.25 22.09,36.25 C 21.83,37.02 21.56,37.79 21.31,38.56 C 21.19,38.25 21.08,37.93 20.9,37.68 C 20.67,37.57 20.92,37.6 21.03,37.46 C 21.33,37.16 21.22,36.34 20.84,36.28 C 20.45,36.21 20.04,36.26 19.65,36.25 z M 23.37,36.25 C 23.61,36.71 23.85,37.16 24.09,37.62 C 24.11,37.95 24.08,38.31 24.09,38.65 C 24.28,38.65 24.49,38.65 24.68,38.65 C 24.68,38.31 24.68,37.99 24.68,37.65 C 24.93,37.18 25.19,36.71 25.43,36.25 C 25.22,36.25 24.99,36.25 24.78,36.25 C 24.65,36.52 24.53,36.79 24.4,37.06 C 24.27,36.79 24.12,36.52 24,36.25 C 23.78,36.25 23.59,36.25 23.37,36.25 z M 18.71,36.59 C 18.76,36.58 18.8,36.58 18.84,36.59 C 18.92,36.61 18.98,36.68 19,36.81 C 19.03,37.14 18.74,37.13 18.59,37.12 C 18.59,36.95 18.59,36.79 18.59,36.62 C 18.61,36.61 18.67,36.6 18.71,36.59 z M 20.21,36.75 C 20.23,36.73 20.24,36.73 20.28,36.75 C 20.44,36.73 20.71,36.72 20.65,37.06 C 20.56,37.3 20.34,37.2 20.18,37.21 C 20.18,37.15 20.18,37.09 20.18,37.03 C 20.19,36.94 20.17,36.79 20.21,36.75 z M 22.43,36.87 C 22.51,37.16 22.57,37.46 22.65,37.75 C 22.5,37.75 22.34,37.75 22.18,37.75 C 22.26,37.46 22.36,37.16 22.43,36.87 z" id="p3396" style="opacity:1;fill:#d13b3a;fill-opacity:1;stroke:none"/>
<path d="M 17.45,38.93 C 17.45,39.67 17.45,40.44 17.45,41.18 C 17.55,41.2 17.66,41.2 17.77,41.21 C 17.77,40.99 17.77,40.74 17.77,40.52 C 17.73,40.19 17.94,40.48 18.02,40.4 C 18.31,40.44 18.4,39.39 18.14,39.09 C 17.92,38.92 17.68,38.99 17.45,38.93 z M 18.39,38.99 C 18.39,39.74 18.39,40.47 18.39,41.21 C 18.76,41.24 19.12,41.28 19.48,41.31 C 19.62,41.33 19.51,40.95 19.55,40.81 C 19.34,40.79 19.13,40.76 18.92,40.74 C 18.74,40.81 18.85,40.47 18.83,40.31 C 19.01,40.32 19.2,40.32 19.39,40.34 C 19.57,40.43 19.46,40.06 19.48,39.9 C 19.32,39.89 19.15,39.88 18.98,39.87 C 18.8,39.94 18.81,39.73 18.83,39.49 C 19.04,39.51 19.24,39.54 19.45,39.56 C 19.61,39.62 19.51,39.21 19.55,39.06 C 19.17,39.03 18.77,39.02 18.39,38.99 z M 29.8,39.09 C 29.48,39.13 29.15,39.17 28.83,39.21 C 28.83,39.96 28.83,40.69 28.83,41.43 C 29.13,41.39 29.46,41.35 29.77,41.31 C 29.88,41.3 29.77,40.96 29.8,40.81 C 29.62,40.83 29.47,40.84 29.3,40.87 C 29.15,40.97 29.22,40.59 29.2,40.43 C 29.36,40.41 29.52,40.39 29.67,40.37 C 29.82,40.43 29.74,40.07 29.77,39.9 C 29.63,39.92 29.47,39.94 29.33,39.96 C 29.18,40.07 29.19,39.85 29.2,39.62 C 29.38,39.59 29.56,39.58 29.73,39.56 C 29.87,39.59 29.77,39.24 29.8,39.09 z M 28.83,41.43 C 28.66,41.1 28.57,40.62 28.23,40.49 C 28.74,40.41 28.88,39.46 28.39,39.31 C 27.94,39.24 27.47,39.32 27.02,39.34 C 27.02,40.08 27.02,40.84 27.02,41.59 C 27.14,41.58 27.26,41.56 27.39,41.56 C 27.65,41.63 27.61,41.36 27.61,41.15 C 27.64,40.96 27.47,40.45 27.77,40.65 C 27.93,40.89 28.06,41.22 28.2,41.49 C 28.42,41.48 28.61,41.48 28.83,41.46 C 28.82,41.45 28.83,41.44 28.83,41.43 z M 19.77,39.12 C 19.77,39.86 19.77,40.59 19.77,41.34 C 19.93,41.35 20.1,41.38 20.27,41.4 C 20.27,40.65 20.27,39.89 20.27,39.15 C 20.1,39.13 19.93,39.13 19.77,39.12 z M 20.61,39.27 C 20.61,40.02 20.61,40.75 20.61,41.49 C 20.8,41.5 20.98,41.52 21.17,41.52 C 21.17,41.12 21.17,40.71 21.17,40.31 C 21.42,40.72 21.68,41.14 21.92,41.56 C 22.11,41.56 22.29,41.58 22.48,41.59 C 22.48,40.84 22.48,40.08 22.48,39.34 C 22.29,39.33 22.11,39.31 21.92,39.31 C 21.92,39.72 21.92,40.14 21.92,40.56 C 21.68,40.13 21.42,39.73 21.17,39.31 C 20.98,39.3 20.8,39.28 20.61,39.27 z M 22.77,39.37 C 22.77,39.55 22.77,39.75 22.77,39.93 C 22.96,39.93 23.16,39.93 23.36,39.93 C 23.36,40.49 23.36,41.06 23.36,41.62 C 23.55,41.62 23.76,41.62 23.95,41.62 C 23.95,41.06 23.95,40.49 23.95,39.93 C 24.13,39.93 24.3,39.93 24.48,39.93 C 24.61,39.88 24.51,39.53 24.55,39.37 C 23.96,39.37 23.36,39.37 22.77,39.37 z M 24.83,39.37 C 24.83,39.59 24.83,39.8 24.83,40.02 C 24.84,40.55 24.73,41.23 25.23,41.52 C 25.73,41.73 26.49,41.74 26.7,41.09 C 26.81,40.53 26.74,39.94 26.77,39.37 C 26.56,39.37 26.35,39.37 26.14,39.37 C 26.14,39.77 26.14,40.16 26.14,40.56 C 26.29,41.02 25.64,41.37 25.45,40.9 C 25.4,40.39 25.47,39.88 25.45,39.37 C 25.24,39.37 25.04,39.37 24.83,39.37 z M 17.8,39.43 C 18.08,39.37 17.99,40.13 17.77,39.93 C 17.78,39.81 17.71,39.38 17.8,39.43 z M 27.67,39.74 C 27.74,39.71 27.82,39.74 27.92,39.74 C 28.4,39.91 27.89,40.31 27.61,40.21 C 27.61,40.15 27.61,40.09 27.61,40.02 C 27.57,39.87 27.6,39.78 27.67,39.74 z" id="p3431" style="opacity:1;fill:#676b91;fill-opacity:1;stroke:none;display:inline"/>
<path d="M 17.28,38.75 C 17.28,39.49 17.28,40.25 17.28,41 C 17.38,41.01 17.49,41.01 17.59,41.03 C 17.59,40.81 17.59,40.56 17.59,40.34 C 17.55,40 17.76,40.3 17.84,40.21 C 18.14,40.26 18.23,39.21 17.96,38.9 C 17.74,38.74 17.5,38.8 17.28,38.75 z M 18.21,38.81 C 18.21,39.55 18.21,40.28 18.21,41.03 C 18.58,41.05 18.94,41.09 19.31,41.12 C 19.44,41.14 19.34,40.77 19.37,40.62 C 19.16,40.6 18.96,40.57 18.75,40.56 C 18.57,40.63 18.68,40.28 18.65,40.12 C 18.84,40.13 19.03,40.14 19.21,40.15 C 19.39,40.25 19.28,39.88 19.31,39.71 C 19.14,39.7 18.97,39.7 18.81,39.68 C 18.63,39.76 18.63,39.54 18.65,39.31 C 18.86,39.32 19.07,39.35 19.28,39.37 C 19.44,39.44 19.34,39.02 19.37,38.87 C 18.99,38.84 18.59,38.84 18.21,38.81 z M 29.62,38.9 C 29.3,38.95 28.97,38.98 28.65,39.03 C 28.65,39.77 28.65,40.5 28.65,41.25 C 28.96,41.2 29.28,41.16 29.59,41.12 C 29.7,41.12 29.59,40.77 29.62,40.62 C 29.44,40.64 29.3,40.66 29.12,40.68 C 28.97,40.79 29.05,40.4 29.03,40.25 C 29.18,40.22 29.34,40.2 29.5,40.18 C 29.64,40.24 29.57,39.88 29.59,39.71 C 29.45,39.73 29.29,39.76 29.15,39.78 C 29,39.88 29.01,39.67 29.03,39.43 C 29.2,39.41 29.38,39.39 29.56,39.37 C 29.69,39.41 29.59,39.06 29.62,38.9 z M 28.65,41.25 C 28.48,40.92 28.4,40.43 28.06,40.31 C 28.56,40.23 28.7,39.27 28.21,39.12 C 27.77,39.05 27.29,39.14 26.84,39.15 C 26.84,39.9 26.84,40.66 26.84,41.4 C 26.97,41.39 27.09,41.38 27.21,41.37 C 27.47,41.45 27.43,41.17 27.43,40.96 C 27.46,40.77 27.29,40.26 27.59,40.46 C 27.76,40.71 27.89,41.03 28.03,41.31 C 28.24,41.29 28.44,41.29 28.65,41.28 C 28.65,41.27 28.66,41.25 28.65,41.25 z M 19.59,38.93 C 19.59,39.68 19.59,40.41 19.59,41.15 C 19.75,41.17 19.92,41.2 20.09,41.21 C 20.09,40.47 20.09,39.71 20.09,38.96 C 19.92,38.95 19.75,38.95 19.59,38.93 z M 20.43,39.09 C 20.43,39.83 20.43,40.56 20.43,41.31 C 20.62,41.31 20.81,41.33 21,41.34 C 21,40.93 21,40.53 21,40.12 C 21.24,40.54 21.5,40.95 21.75,41.37 C 21.94,41.38 22.12,41.39 22.31,41.4 C 22.31,40.66 22.31,39.9 22.31,39.15 C 22.12,39.14 21.94,39.13 21.75,39.12 C 21.75,39.53 21.75,39.96 21.75,40.37 C 21.5,39.95 21.24,39.54 21,39.12 C 20.81,39.11 20.62,39.1 20.43,39.09 z M 22.59,39.18 C 22.59,39.37 22.59,39.56 22.59,39.75 C 22.79,39.75 22.98,39.74 23.18,39.75 C 23.18,40.31 23.18,40.87 23.18,41.43 C 23.38,41.43 23.58,41.43 23.78,41.43 C 23.78,40.87 23.78,40.31 23.78,39.75 C 23.96,39.75 24.13,39.74 24.31,39.75 C 24.44,39.69 24.33,39.35 24.37,39.18 C 23.78,39.18 23.18,39.18 22.59,39.18 z M 24.65,39.18 C 24.65,39.4 24.65,39.62 24.65,39.84 C 24.66,40.36 24.55,41.05 25.06,41.34 C 25.55,41.54 26.32,41.56 26.53,40.9 C 26.64,40.34 26.57,39.75 26.59,39.18 C 26.38,39.18 26.17,39.18 25.96,39.18 C 25.96,39.58 25.96,39.97 25.96,40.37 C 26.11,40.84 25.46,41.19 25.28,40.71 C 25.23,40.21 25.29,39.69 25.28,39.18 C 25.07,39.18 24.86,39.18 24.65,39.18 z M 17.62,39.25 C 17.9,39.19 17.82,39.95 17.59,39.75 C 17.61,39.62 17.53,39.19 17.62,39.25 z M 27.5,39.56 C 27.56,39.52 27.65,39.55 27.75,39.56 C 28.22,39.72 27.71,40.12 27.43,40.03 C 27.43,39.96 27.43,39.9 27.43,39.84 C 27.39,39.68 27.43,39.59 27.5,39.56 z" id="p3424" style="opacity:1;fill:#d13b3a;fill-opacity:1;stroke:none"/>
<path d="M 20.71,44.57 C 21.08,44.62 21.98,44.68 21.98,44.68" id="p3300" style="opacity:1;fill:none;fill-rule:evenodd;stroke:#ffffff;stroke-width:0.60;stroke-linecap:round;stroke-linejoin:miter;stroke-miterlimit:4;stroke-dasharray:none;stroke-opacity:0.76;display:inline"/>
<path d="M 19.14,44.28 C 20.83,44.73 23.41,44.79 24.9,44.71" id="p3294" style="opacity:1;fill:none;fill-rule:evenodd;stroke:#fdfdfd;stroke-width:0.5;stroke-linecap:round;stroke-linejoin:miter;stroke-miterlimit:4;stroke-dasharray:none;stroke-opacity:0.5;display:inline"/>
<path d="M 24.37,44.73 C 25.32,44.73 25.69,44.73 25.69,44.73" id="p3298" style="opacity:1;fill:none;fill-rule:evenodd;stroke:#000000;stroke-width:0.60;stroke-linecap:round;stroke-linejoin:miter;stroke-miterlimit:4;stroke-dasharray:none;stroke-opacity:0.46;display:inline"/>
<path d="M 26.53,44.62 C 27.4,44.57 28.16,44.48 28.44,44.42" id="p3296" style="opacity:1;fill:none;fill-opacity:1;fill-rule:evenodd;stroke:#fdfdfd;stroke-width:0.5;stroke-linecap:round;stroke-linejoin:miter;marker:none;stroke-miterlimit:4;stroke-dasharray:none;stroke-dashoffset:0;stroke-opacity:0.5;visibility:visible;display:inline;overflow:visible;enable-background:accumulate"/>
</g>
</svg>
