<?xml version="1.0" encoding="UTF-8" standalone="no"?>
<!DOCTYPE svg PUBLIC "-//W3C//DTD SVG 1.0//EN" "http://www.w3.org/TR/2001/REC-SVG-20010904/DTD/svg10.dtd">
<svg xmlns:svg="http://www.w3.org/2000/svg" xmlns="http://www.w3.org/2000/svg" version="1.0" width="100%" height="100%" viewBox="0 0 48 48" id="_stamp01">
<defs id="defs2385"/>
<g id="stamp01" style="display:inline">
<path d="M 15.14,13.69 C 16.37,17.87 19.05,18.95 19.05,18.95 C 19.05,18.95 19.15,19.46 19.67,20.08 C 20.18,20.70 21.32,22.14 21.32,22.96 C 21.32,23.79 21.21,24.61 21.21,24.61 C 21.21,24.61 12.56,30.28 12.25,30.48 C 11.94,30.69 11.81,31.10 11.81,31.62 C 11.81,32.13 11.96,35.37 11.96,35.37 L 25.64,45.93 L 41.09,33.06 C 41.09,33.06 39.65,29.66 39.45,29.04 C 39.24,28.42 39.34,28.42 38.31,27.70 C 37.28,26.98 27.81,22.04 27.81,22.04 C 27.81,22.04 27.70,19.77 28.01,19.05 C 28.32,18.33 28.37,17.68 28.37,17.68 C 28.37,17.68 30.48,15.03 30.38,11.74 C 30.28,8.44 28.63,4.63 25.13,2.98 C 21.63,1.33 17.01,3.81 16.02,6.17 C 14.49,9.82 14.83,12.46 15.14,13.69 z" id="p2618" style="fill:#c09351;fill-opacity:1;fill-rule:evenodd;stroke:none;"/>
<path d="M 20.47,28.42 C 19.36,29.87 19.50,30.57 20.61,31.67 C 21.71,32.78 23.65,34.78 23.99,35.61 C 24.34,36.44 24.13,37.76 22.06,38.45 C 19.98,39.14 23.51,41.63 23.51,41.63 L 29.94,40.25 L 33.95,33.19 C 33.95,33.19 30.36,34.30 30.36,33.19 C 30.36,32.09 31.19,30.84 30.57,29.39 C 29.94,27.94 28.63,26.76 24.89,27.32 C 21.16,27.87 20.54,28.35 20.47,28.42 z" id="p3473" style="fill:#824d23;fill-opacity:0.36;fill-rule:evenodd;stroke:none;display:inline"/>
<path d="M 39,28.21 L 23.90,40 L 11.90,31 C 11.84,31.17 11.81,31.39 11.81,31.62 C 11.81,32.14 11.96,35.37 11.96,35.37 L 25.65,45.93 L 41.09,33.06 C 41.09,33.06 39.64,29.68 39.43,29.06 C 39.30,28.65 39.28,28.47 39,28.21 z" id="p3399" style="fill:#a27437;fill-opacity:1;fill-rule:evenodd;stroke:none;display:inline"/>
<path d="M 30.78,23.59 C 26.58,27.02 21.52,29.25 17.03,32.28 C 20.86,29.39 24.91,26.81 28.75,23.93 C 23.76,25.98 19.86,30.21 14.84,32.06 C 17.05,28.86 24.43,26.03 24.59,24.28 C 20.91,25.86 16.39,30.83 13.87,31.46 C 16.28,28.91 22.83,24.75 23.15,23.81 C 19.64,26.09 11.65,31.98 11.93,33.5 C 14.42,31.13 12.89,34.58 15.78,32.37 C 17.88,30.86 21.21,28.95 17.18,31.90 C 15.93,32.75 13.79,33.91 11.96,35.15 C 11.96,35.17 11.96,35.37 11.96,35.37 L 12.31,35.65 C 15.22,33.97 18.67,32.98 21.28,30.78 C 22.20,30.19 23.12,29.60 24.06,29.03 C 21.18,31.19 17.01,34.45 13.5,36.56 L 13.84,36.81 C 16.53,35.12 19.05,33.10 21.71,31.40 C 23.73,30.04 30.46,24.45 25.62,28.81 C 22.13,31.95 18.32,34.73 14.34,37.21 L 14.68,37.46 C 17.68,35.80 20.20,33.28 23.15,31.53 C 20.98,33.33 17.93,35.68 15.12,37.81 L 16.18,38.62 C 18.22,37.32 20.25,36.00 22.40,35.06 C 20.72,36.55 19.00,38.01 17.28,39.46 L 17.75,39.81 C 21.41,37.07 25.21,34.52 28.71,31.59 C 25.64,34.88 22.22,37.84 18.59,40.5 L 19,40.78 C 19.31,40.56 19.59,40.36 20,40.09 C 19.54,40.45 19.34,40.58 19.03,40.81 L 19.46,41.15 C 25.49,36.68 31.68,32.26 36.87,26.87 C 36.73,26.79 36.68,26.77 36.53,26.68 C 32.32,30.27 28.24,34.38 23.46,37.34 C 21.78,38.43 26.89,34.04 28.06,32.84 C 30.52,30.64 32.96,28.30 35.53,26.15 C 35.46,26.12 35.40,26.06 35.34,26.03 C 34.87,26.36 34.36,26.66 33.87,26.90 C 34.14,26.53 34.48,26.16 34.84,25.78 C 34.63,25.66 34.43,25.52 34.21,25.40 C 32.97,26.44 32.36,26.34 33.96,25.28 C 33.75,25.16 33.56,25.05 33.34,24.93 C 30.37,27.42 26.90,29.29 23.81,31.62 C 26.81,29.29 29.79,26.86 32.96,24.75 C 32.72,24.61 32.64,24.56 32.40,24.43 C 29.99,26.26 26.66,28.63 27.53,27.53 C 28.90,26.30 30.33,25.14 31.90,24.18 C 31.35,23.89 31.25,23.84 30.78,23.59 z M 34.15,26 C 32.34,28.96 25.59,33.49 25.03,33.78 C 28.16,31.29 31.30,28.81 34.15,26 z M 26.09,27.28 C 24.37,28.39 17.70,32.41 19.15,31.40 C 21.45,29.99 23.75,28.62 26.09,27.28 z M 37.90,27.46 C 33.77,32.61 28.84,37.17 23.75,41.31 C 23.13,41.88 22.42,42.38 21.68,42.87 L 22.62,43.59 C 25.21,41.84 27.79,40.09 30.53,38.59 C 28.75,41.15 26.35,42.95 23.71,44.43 L 24.68,45.18 C 24.82,45.10 24.95,45.04 25.09,44.96 C 25.04,45.10 24.98,45.24 24.90,45.37 L 25.56,45.87 C 25.90,45.65 26.22,45.41 26.56,45.18 L 28.93,43.18 C 26.93,44.64 24.42,45.64 28,43.18 C 28.83,42.68 29.70,42.21 30.53,41.68 C 30.40,41.88 30.21,42.09 30,42.31 L 37.56,36 C 38.26,34.96 39.83,33.25 40.71,32.15 C 40.66,32.03 40.62,31.98 40.56,31.84 C 38.32,34.98 32.42,40.51 31.15,40.03 C 34.12,37.11 37.11,34.15 40.53,31.75 C 40.50,31.67 40.50,31.67 40.46,31.59 C 40.18,31.77 39.92,31.95 39.43,32.31 C 36.31,35.11 29.72,38.45 27.65,39.62 C 32.00,36.92 36.19,33.94 40.06,30.59 C 39.95,30.34 39.89,30.17 39.81,29.96 C 38.11,31.47 36.37,32.94 34.34,34 C 32.49,35.29 25.93,39.81 30.62,35.75 C 33.29,33.19 35.90,30.53 38.28,27.68 C 38.23,27.65 37.98,27.51 37.90,27.46 z M 30.59,27.56 C 27.10,31.40 18.60,37.01 16.56,37.53 C 20.98,33.86 25.90,30.86 30.59,27.56 z M 27.87,30.78 C 27.11,31.53 26.11,32.10 27.87,30.78 z M 36.12,33.25 C 33.86,35.01 28.54,38.73 27.90,38.90 C 30.63,36.99 33.38,35.13 36.12,33.25 z M 33.46,36.81 C 31.51,39.38 29.02,39.37 33.46,36.81 z M 32.87,37.93 C 31.83,39.45 30.44,39.66 32.87,37.93 z M 32.71,39.84 C 32.00,40.32 31.32,40.66 31.15,40.71 C 31.19,40.66 31.60,40.40 32.71,39.84 z" id="p3427" style="fill:#653111;fill-opacity:0.13;fill-rule:evenodd;stroke:none;display:inline"/>
<path d="M 35.40,26.06 L 18.18,40.18 L 22.93,43.84 L 39.40,28.87 C 39.27,28.44 39.21,28.35 38.31,27.71 C 37.99,27.49 36.81,26.82 35.40,26.06 z" id="p3421" style="fill:#e1a74b;fill-opacity:0.21;fill-rule:evenodd;stroke:none;display:inline"/>
<path d="M 28.18,22.21 L 11.87,32.84 C 11.91,33.96 11.96,35.37 11.96,35.37 L 13.28,36.40 C 18.24,31.91 26.82,26.17 30.81,23.59 C 29.70,23.00 28.37,22.31 28.18,22.21 z" id="p3419" style="fill:#e1a74b;fill-opacity:0.21;fill-rule:evenodd;stroke:none;display:inline"/>
<path d="M 11.90,31 C 11.84,31.17 11.81,31.39 11.81,31.62 C 11.81,32.14 11.96,35.37 11.96,35.37 L 25.46,45.78 L 24.09,39.87 L 23.90,40 L 11.90,31 z" id="p3402" style="fill:#b89264;fill-opacity:1;fill-rule:evenodd;stroke:none;display:inline"/>
<path d="M 12.65,31.56 C 13.11,33.02 13.02,34.86 13.09,36.21 L 15.71,38.25 C 15.58,36.82 15.74,35.19 15.75,33.87 L 15.12,33.40 C 15.22,35.11 15.66,37.21 14.31,36.65 C 13.89,35.37 14.13,33.81 13.96,32.53 L 12.65,31.56 z M 18.06,35.62 C 18.20,37.23 18.39,38.92 17.65,39.75 L 19.09,40.84 C 19.21,40.74 19.33,40.48 19.43,40 C 19.39,39.34 19.49,37.80 19.68,36.84 L 19.68,36.81 L 19.28,36.53 C 19.14,38.12 18.81,41.12 18.53,38.25 C 18.49,37.72 18.51,36.84 18.53,35.96 L 18.06,35.62 z M 20.53,37.46 C 20.30,38.99 21.73,43.51 22.5,40.12 C 22.49,39.87 22.51,39.43 22.53,38.96 L 22.18,38.71 C 22.17,39.65 22.03,40.35 21.28,40.28 C 21.13,39.76 21.12,38.78 21.03,37.84 L 20.53,37.46 z M 23.25,39.5 C 23.22,41.27 23.01,43.14 23.56,44.25 C 23.89,41.36 24.04,43.35 24.46,45 L 25.46,45.78 L 24.71,42.53 C 24.63,43.16 24.34,43.11 23.93,41.59 C 23.67,41.09 23.58,40.45 23.56,39.75 L 23.25,39.5 z" id="p3448" style="fill:#4e3429;fill-opacity:0.16;fill-rule:evenodd;stroke:none;display:inline"/>
<path d="M 30.37,28.54 C 31.12,29.95 29.46,31.65 26.68,32.33 C 23.90,33.01 21.03,32.41 20.29,31.00 C 19.55,29.59 21.21,27.89 23.99,27.21 C 26.77,26.53 29.63,27.13 30.37,28.54 z" id="p3476" style="fill:#35231c;fill-opacity:0.35;fill-rule:evenodd;stroke:none;marker:none;visibility:visible;display:inline;overflow:visible;enable-background:accumulate"/>
<path d="M 22.37,2.46 C 19.55,2.57 16.77,4.41 16.03,6.18 C 14.50,9.83 14.84,12.45 15.15,13.68 C 16.38,17.86 19.06,18.93 19.06,18.93 C 19.06,18.93 19.17,19.47 19.68,20.09 C 19.86,20.31 20.12,20.64 20.37,21 C 20.39,21.02 20.41,21.03 20.43,21.06 C 20.53,21.20 20.62,21.35 20.71,21.5 C 20.75,21.55 20.77,21.62 20.81,21.68 C 20.93,21.89 21.04,22.08 21.12,22.28 C 21.23,22.53 21.31,22.76 21.31,22.96 C 21.31,23.79 21.21,24.62 21.21,24.62 C 21.11,25.16 20.84,26.10 20.75,26.81 C 20.78,27.14 20.5,27.93 20.5,28.68 C 20.50,29.43 20.66,30.68 21.53,31.28 C 22.39,31.88 23.78,32.53 25.43,32.31 C 27.08,32.08 29.72,31.42 30.25,29.06 C 30.77,26.70 29.48,25.74 29.06,24.93 C 28.64,24.12 28.05,22.75 27.93,22.09 C 27.83,21.54 27.83,21.40 27.81,21.15 C 27.80,20.49 27.82,19.54 28.03,19.06 C 28.34,18.34 28.37,17.68 28.37,17.68 C 28.37,17.68 30.47,15.04 30.37,11.75 C 30.27,8.45 28.62,4.64 25.12,3 C 24.24,2.58 23.31,2.43 22.37,2.46 z" id="p3480" style="fill:#91672d;fill-opacity:1;fill-rule:evenodd;stroke:none;display:inline"/>
<path d="M 17.06,4.75 C 16.59,5.20 16.23,5.70 16.03,6.18 C 14.50,9.83 14.84,12.45 15.15,13.68 C 16.27,17.47 18.48,18.64 18.90,18.84 C 23.32,19.58 26.40,18.75 28.68,17.21 C 29.27,16.32 30.45,14.22 30.37,11.75 C 30.33,10.32 29.99,8.80 29.34,7.40 C 29.10,13.87 26.31,14.89 23.28,15.90 C 19.78,17.07 18.28,15.07 17.12,13.90 C 16.14,12.92 15.78,9.91 17.06,4.75 z" id="p3495" style="fill:#e3c4ac;fill-opacity:0.21;fill-rule:evenodd;stroke:none;display:inline"/>
<path d="M 19.62,9.41 C 17.96,10.91 19.45,15.06 20.62,15.56 C 21.78,16.06 24.61,16.06 24.78,14.73 C 24.94,13.40 24.94,9.58 19.62,9.41 z" id="p3511" style="fill:#6b4b16;fill-opacity:0.44;fill-rule:evenodd;stroke:none;display:inline"/>
<path d="M 18.29,7.75 C 16.79,8.41 17.13,11.90 17.79,12.90 C 18.46,13.90 21.62,17.23 23.45,15.40 C 25.27,13.57 28.60,11.07 28.93,9.58 C 29.27,8.08 28.27,6.58 26.61,7.75 C 24.94,8.91 22.95,10.91 21.12,10.08 C 19.29,9.24 20.29,7.08 18.29,7.75 z" id="p3522" style="fill:#765218;fill-opacity:0.31;fill-rule:evenodd;stroke:none;"/>
<path d="M 22.37,2.46 C 20.10,2.55 17.86,3.76 16.68,5.15 C 17.44,6.67 19.25,7.75 21.12,8.25 C 24.28,9.08 28.95,7.42 26.12,4.09 C 25.81,3.73 25.46,3.36 25.12,3 C 25.11,2.99 25.10,3.00 25.09,3 C 24.22,2.59 23.30,2.43 22.37,2.46 z" id="p3509" style="fill:#c8a66d;fill-opacity:0.21;fill-rule:evenodd;stroke:none;display:inline"/>
<path d="M 22.37,2.46 C 20.16,2.55 17.98,3.68 16.78,5.03 C 16.70,5.21 16.67,5.38 16.68,5.56 C 16.76,6.76 18.82,7.35 21.28,6.87 C 23.73,6.39 25.67,5.05 25.59,3.84 C 25.57,3.51 25.40,3.22 25.12,3 C 25.10,2.98 25.08,2.97 25.06,2.96 C 24.20,2.57 23.29,2.43 22.37,2.46 z" id="p3393" style="fill:#e8debd;fill-opacity:0.40;fill-rule:evenodd;stroke:none;marker:none;visibility:visible;display:inline;overflow:visible;enable-background:accumulate"/>
<path d="M 27.87,21.56 C 25.48,23.22 23.27,23.23 21.15,22.37 C 21.24,22.59 21.31,22.79 21.31,22.96 C 21.31,23.79 21.21,24.62 21.21,24.62 C 21.11,25.16 20.84,26.10 20.75,26.81 C 20.76,26.98 20.69,27.27 20.62,27.62 C 24.11,29.15 23.26,25.06 24.62,25.06 C 26.28,25.06 25.45,27.54 27.78,27.37 C 28.28,27.33 28.90,26.65 29.56,25.68 C 29.36,25.40 29.18,25.16 29.06,24.93 C 28.64,24.12 28.05,22.75 27.93,22.09 C 27.88,21.78 27.89,21.70 27.87,21.56 z" id="p3498" style="fill:#c8a66d;fill-opacity:0.35;fill-rule:evenodd;stroke:none;display:inline"/>
<path d="M 15.03,9.65 C 14.74,11.51 14.95,12.88 15.15,13.68 C 16.32,17.65 18.72,18.79 18.96,18.90 C 19.16,17.49 18.80,15.98 18.28,14.40 C 17.54,12.19 16.39,10.85 15.03,9.65 z" id="p3507" style="fill:#baa27b;fill-opacity:0.44;fill-rule:evenodd;stroke:none;display:inline"/>
<path d="M 28.34,17.46 C 25.35,19.11 23.93,18.88 23.21,18.41 C 22.55,19.07 20.88,19.37 18.68,18.63 C 18.89,18.75 19.06,18.81 19.06,18.81 C 19.06,18.81 19.16,19.27 19.56,19.81 C 23.53,20.21 26.40,19.29 28.15,18.56 C 28.27,18.21 28.32,17.64 28.34,17.46 z" id="p3524" style="fill:#b89862;fill-opacity:1;fill-rule:evenodd;stroke:none;display:inline"/>
<path d="M 28.21,17.64 C 27.45,18.82 23.99,19.71 22.53,19.71 C 21.24,19.71 19.54,19.16 19.02,18.68 C 19.07,18.83 19.06,19.12 19.29,19.47 C 19.57,19.92 21.38,20.31 22.53,20.31 C 23.99,20.31 27.33,19.44 28.16,18.53 C 28.27,18.25 28.16,17.85 28.21,17.64 z" id="p3527" style="fill:#60421f;fill-opacity:0.85;fill-rule:evenodd;stroke:none;display:inline"/>
<path d="M 27.84,19.73 C 26.17,21.28 21.61,21.69 20.34,20.64 C 20.35,20.65 20.36,20.65 20.37,20.67 C 20.69,21.04 20.89,21.52 21.12,21.95 C 21.57,23.99 23.06,22.56 24.81,22.17 C 25.66,22.17 26.87,22.06 27.96,21.92 C 27.95,21.87 27.94,21.81 27.93,21.76 C 27.83,21.21 27.83,21.07 27.81,20.82 C 27.80,20.50 27.81,20.10 27.84,19.73 z" id="p3530" style="fill:#6b4e1e;fill-opacity:0.42;fill-rule:evenodd;stroke:none;display:inline"/>
<path d="M 23.93,26.87 C 22.83,26.99 21.80,28.46 20.5,28.81 C 20.51,29.56 20.71,30.71 21.53,31.28 C 22.39,31.88 23.78,32.53 25.43,32.31 C 26.28,32.19 27.36,31.95 28.31,31.43 C 27.01,30.20 25.96,27.53 24.56,26.96 C 24.35,26.88 24.13,26.85 23.93,26.87 z" id="p3548" style="fill:#755020;fill-opacity:0.51;fill-rule:evenodd;stroke:none;display:inline"/>
<path d="M 24.93,23.31 C 24.82,23.33 24.69,23.37 24.56,23.43 C 23.56,23.43 23.22,27.94 23.56,28.78 C 23.89,29.61 23.54,30.62 22.37,30.62 C 21.94,30.62 21.31,30.37 20.68,30.06 C 20.83,30.53 21.10,30.98 21.53,31.28 C 22.39,31.88 23.78,32.53 25.43,32.31 C 27.08,32.08 29.72,31.42 30.25,29.06 C 30.29,28.88 30.29,28.72 30.31,28.56 C 29.64,29.15 28.96,29.77 28.40,30.12 C 27.07,30.96 25.89,28.97 26.06,27.96 C 26.21,27.02 26.67,22.98 24.93,23.31 z" id="p3551" style="fill:#24190b;fill-opacity:0.11;fill-rule:evenodd;stroke:none;"/>
<path d="M 14.94,12.02 C 15.53,11.26 16.38,10.59 17.14,10.59 C 17.90,10.59 20.51,11.26 22.29,15.40 C 24.06,19.54 23.55,19.54 23.55,19.54" id="p3567" style="fill:none;fill-rule:evenodd;stroke:#44260e;stroke-width:0.30;stroke-linecap:butt;stroke-linejoin:miter;stroke-miterlimit:4;stroke-dasharray:none;stroke-opacity:0.28;display:inline"/>
<path d="M 15.03,9.24 C 16.38,7.97 17.90,7.80 18.74,8.14 C 19.59,8.48 23.22,11.18 23.47,11.85 C 23.72,12.53 23.81,13.04 23.81,13.04" id="p3571" style="fill:none;fill-rule:evenodd;stroke:#44260e;stroke-width:0.30;stroke-linecap:butt;stroke-linejoin:miter;stroke-miterlimit:4;stroke-dasharray:none;stroke-opacity:0.28;display:inline"/>
<path d="M 25.33,4.93 C 27.69,6.53 29.38,9.91 29.30,11.01" id="p3573" style="fill:none;fill-rule:evenodd;stroke:#44260e;stroke-width:0.30;stroke-linecap:butt;stroke-linejoin:miter;stroke-miterlimit:4;stroke-dasharray:none;stroke-opacity:0.28;display:inline"/>
<path d="M 27.25,9.34 C 25.40,9.40 23.68,11.39 23.43,13.78 C 23.19,16.16 24.49,18.03 26.34,17.96 C 28.18,17.90 29.87,15.91 30.12,13.53 C 30.37,11.14 29.09,9.28 27.25,9.34 z" id="p3396" style="fill:#a18049;fill-opacity:0.89;fill-rule:evenodd;stroke:none;marker:none;visibility:visible;display:inline;overflow:visible;enable-background:accumulate"/>
<path d="M 24.21,2.68 C 20.80,4.40 17.47,6.51 15.06,9.46 C 15.03,9.61 15.01,9.76 15,9.90 C 15.43,9.33 15.94,8.80 16.5,8.34 C 16.08,8.85 15.43,9.86 14.93,10.40 C 14.91,10.61 14.91,10.80 14.90,11 C 15.25,10.51 15.58,9.94 15.81,9.75 C 16.26,9.17 17.24,7.77 17.5,7.78 C 16.60,9.36 16.02,11.17 16.06,13 C 15.71,13.88 16.62,15.94 17.37,14.37 C 17.76,13.49 17.54,11.50 18.53,11.43 C 18.89,13.08 18.38,14.77 18.46,16.43 C 18.36,16.91 18.60,18.76 18.84,17.34 C 19.12,16.07 19.61,13.92 20,13.28 C 19.72,15.17 20.61,16.94 20.84,18.78 C 20.88,19.75 20.80,20.75 20.84,21.75 C 20.94,21.93 21.04,22.10 21.12,22.28 C 21.14,22.32 21.17,22.36 21.18,22.40 C 21.01,21.20 20.95,19.96 21.28,18.78 C 22.34,22.00 23.56,25.43 22.84,28.87 C 23.61,27.89 23.10,26.30 24.06,25.46 C 24.36,26.92 24.29,28.58 23.37,29.81 C 23.37,30.89 20.80,32.06 21.46,30.31 C 22.67,28.21 21.73,25.78 21.37,23.59 C 21.34,23.43 21.34,23.28 21.31,23.12 C 21.30,23.52 21.27,23.87 21.25,24.15 C 21.32,24.37 21.39,24.59 21.5,24.81 C 22.03,26.82 21.52,28.82 21.06,30.81 C 21.18,30.98 21.34,31.15 21.53,31.28 C 21.62,31.34 21.76,31.40 21.87,31.46 C 22.46,30.95 23.06,30.63 23.31,31.56 C 23.25,31.80 23.27,31.97 23.31,32.12 C 23.56,32.19 23.82,32.27 24.09,32.31 C 24.26,32.14 24.41,31.90 24.43,31.53 C 25.56,28.81 25.06,25.78 24.93,22.93 C 24.68,22.32 24.98,19.98 25.71,21.46 C 25.76,21.60 25.80,21.73 25.84,21.87 C 25.65,21.09 25.58,20.30 25.68,19.46 C 25.80,18.85 26.16,18.35 26.62,17.93 C 25.26,19.09 24.15,16.78 24.71,15.62 C 24.64,14.83 24.43,13.32 24.93,13 C 25.78,14.20 24.87,15.96 26.03,17 C 27.27,16.92 26.37,14.77 26.71,13.84 C 26.75,12.56 26.72,11.27 26.68,10 C 26.52,10.05 26.38,10.23 26.28,10.56 C 26.29,12.32 26.71,14.14 26.18,15.87 C 25.00,15.47 25.70,13.17 25.18,12.09 C 24.74,10.64 23.78,11.99 24.31,12.84 C 24.52,13.95 24.27,15.09 24.43,16.21 C 24.61,18.59 25.08,20.99 24.71,23.37 C 23.99,22.29 24.52,20.19 23.40,19.62 C 23.47,20.18 24.09,22.34 23.06,21.12 C 22.28,19.65 21.74,17.91 22.15,16.25 C 22.09,15.18 21.67,18.23 21.46,16.90 C 22.09,13.98 22.97,11.08 24.43,8.46 C 24.53,8.33 24.70,8.21 24.87,8.21 C 26.39,7.55 28.66,8.17 29.03,9.96 C 29.38,10.48 28.83,12.65 28.78,11 C 28.97,10.15 27.63,8.50 27.84,10.21 C 27.86,10.59 27.87,10.99 27.90,11.37 C 27.92,11.63 27.95,11.89 27.96,12.15 C 27.96,12.01 27.94,11.87 27.90,11.75 C 27.92,11.63 27.92,11.50 27.90,11.37 C 27.79,10.73 27.26,9.99 26.81,10 C 27.31,11.40 27.66,12.93 27.62,14.43 C 27.59,13.75 27.97,12.92 27.96,12.18 C 28.03,13.19 28.07,14.19 27.90,15.18 C 27.71,14.97 27.63,14.71 27.62,14.43 C 27.59,15.62 27.33,16.79 26.68,17.84 C 26.93,17.63 27.21,17.45 27.5,17.31 C 27.46,20.75 27.46,24.20 27.84,27.62 C 27.49,25.88 26.56,24.25 26.03,22.56 C 26.29,23.67 26.42,24.84 26.78,25.93 C 27.12,27.57 27.55,29.23 28.46,30.65 C 28.58,28.89 27.91,27.22 27.90,25.46 C 27.58,22.31 27.55,19.07 28.31,15.96 C 27.90,14.70 29.76,15.41 29.18,16.34 C 29.46,15.81 29.77,15.15 30,14.40 C 29.86,12.88 29.44,11.40 29.18,9.90 C 29.23,9.44 29.61,9.37 30.03,9.37 C 29.93,8.99 29.82,8.62 29.68,8.25 C 28.55,8.69 26.97,7.62 26,7 C 26.35,6.45 27.10,6.50 27.56,6.09 C 27.92,6.06 28.35,6.14 28.75,6.31 C 28.55,5.99 28.35,5.69 28.12,5.40 C 27.37,5.78 26.61,6.13 25.81,6.40 C 26.03,5.52 26.67,4.99 27.43,4.62 C 27.35,4.54 27.27,4.45 27.18,4.37 C 26.78,4.57 26.40,4.80 26.03,5.03 C 25.11,6.21 23.94,7.25 22.37,6.78 C 21.21,7.23 21.93,8.64 23.03,8.18 C 24.05,8.60 22.20,9.12 22.5,9.96 C 22.24,10.83 22.74,12.17 21.84,12.68 C 21.30,11.51 22.16,10.16 21.78,9 C 21.65,9.22 21.59,9.22 21.71,8.84 C 21.68,8.75 21.64,8.67 21.59,8.59 C 20.47,9.93 20.30,11.75 19.62,13.31 C 19.55,13.96 18.82,15.20 18.81,13.78 C 18.46,11.83 18.97,9.81 19.96,8.12 C 20.31,6.62 19.19,7.73 19.09,8.5 C 18.39,10.24 17.78,12.02 17.12,13.78 C 16.21,14.84 16.10,12.29 16.43,11.71 C 16.68,10.38 17.11,9.08 17.90,7.96 C 19.21,5.95 21.22,4.48 23.28,3.31 C 23.65,3.03 24.14,2.96 24.59,2.81 C 24.46,2.76 24.34,2.72 24.21,2.68 z M 21.71,8.84 C 21.74,8.89 21.76,8.94 21.78,9 C 21.88,8.81 21.99,8.51 21.93,8.25 C 21.87,8.38 21.80,8.51 21.75,8.65 C 21.70,8.75 21.74,8.77 21.71,8.84 z M 26.81,10 C 26.76,9.87 26.73,9.74 26.68,9.62 C 26.69,9.75 26.68,9.87 26.68,10 C 26.72,9.98 26.76,10.00 26.81,10 z M 18.46,6.34 C 18.45,6.66 18.08,6.27 18.46,6.34 z M 26.28,6.53 C 26.10,7.04 25.95,6.51 26.28,6.53 z M 23.18,7 C 23.89,6.96 24.68,7.91 23.40,7.78 C 22.70,7.89 21.21,7.35 22.90,7.09 C 22.99,7.04 23.08,7.00 23.18,7 z M 25.87,7.46 C 26.60,7.51 26.03,8.26 25.25,7.81 C 24.82,7.67 25.25,7.46 25.46,7.5 C 25.62,7.47 25.77,7.46 25.87,7.46 z M 24,8.62 C 24.35,9.28 22.63,10.36 23.46,9.18 C 23.62,8.98 23.81,8.79 24,8.62 z M 21.28,9.90 C 21.19,12.15 21.18,14.42 20.81,16.65 C 19.75,14.82 20.58,12.67 20.96,10.78 C 21.05,10.48 21.16,10.19 21.28,9.90 z M 28.15,10 C 28.58,11.39 28.80,12.92 28.34,14.34 C 28.02,12.91 28.36,11.44 28.15,10 z M 29.21,11.56 C 29.43,12.72 30.36,14.57 29.28,15.40 C 28.63,14.27 29.21,12.79 29.21,11.56 z M 21.46,11.68 C 21.56,12.30 21.83,14.12 21.34,14.03 C 21.34,13.24 21.46,12.47 21.46,11.68 z M 21.87,19.37 C 23.15,20.83 23.59,22.82 23.62,24.71 C 22.45,23.58 22.71,21.79 21.96,20.43 C 21.89,20.08 21.85,19.73 21.87,19.37 z M 24.06,22.03 C 24.24,22.81 24.81,24.67 24.15,24.78 C 24.00,23.86 24.06,22.95 24.06,22.03 z M 24.68,26 C 25.17,27.91 24.68,29.92 23.90,31.68 C 23.40,30.03 24.70,28.52 24.56,26.87 C 24.60,26.58 24.63,26.29 24.68,26 z M 27.87,27.75 C 27.94,28.10 27.95,28.44 27.96,28.81 C 27.91,28.45 27.91,28.10 27.87,27.75 z" id="p3578" style="fill:#814212;fill-opacity:0.13;fill-rule:evenodd;stroke:none;display:inline"/>
<path d="M 39,28.21 L 23.90,40 L 11.90,31" id="p3468" style="fill:none;fill-opacity:1;fill-rule:evenodd;stroke:#dfc6a4;stroke-width:0.30;stroke-linecap:butt;stroke-linejoin:miter;stroke-miterlimit:4;stroke-dasharray:none;stroke-opacity:0.55;display:inline"/>
<path d="M 24.05,39.85 L 25.42,45.73" id="p3471" style="fill:none;fill-rule:evenodd;stroke:#dfc6a4;stroke-width:0.30;stroke-linecap:butt;stroke-linejoin:miter;stroke-miterlimit:4;stroke-dasharray:none;stroke-opacity:0.36"/>
<path d="M 20.84,26.27 C 20.96,27.92 22.52,29.40 24.77,29.07 C 27.01,28.75 29.46,27.65 29.31,25.41" id="p3546" style="fill:none;fill-rule:evenodd;stroke:#c39a63;stroke-width:0.40;stroke-linecap:butt;stroke-linejoin:miter;stroke-miterlimit:4;stroke-dasharray:none;stroke-opacity:1"/>
<path d="M 20.71,21.5 C 20.75,21.55 20.77,21.62 20.81,21.68 C 20.93,21.89 21.04,22.08 21.12,22.28 C 21.23,22.53 21.31,22.76 21.31,22.96 C 21.31,23.79 21.21,24.62 21.21,24.62 C 21.11,25.16 20.84,26.10 20.75,26.81 C 20.78,27.14 20.5,27.93 20.5,28.68 C 20.50,29.43 20.66,30.68 21.53,31.28 C 22.39,31.88 23.78,32.53 25.43,32.31 C 27.08,32.08 29.72,31.42 30.25,29.06 C 30.77,26.70 29.48,25.74 29.06,24.93 C 28.64,24.12 28.05,22.75 27.93,22.09" id="p3492" style="fill:none;fill-opacity:1;fill-rule:evenodd;stroke:#58401f;stroke-width:0.40;stroke-linecap:butt;stroke-linejoin:miter;stroke-miterlimit:4;stroke-dasharray:none;stroke-opacity:1;display:inline"/>
<path d="M 15.14,13.69 C 16.37,17.87 19.05,18.95 19.05,18.95 C 19.05,18.95 19.15,19.46 19.67,20.08 C 20.18,20.70 21.32,22.14 21.32,22.96 C 21.32,23.79 21.21,24.61 21.21,24.61 C 21.21,24.61 12.56,30.28 12.25,30.48 C 11.94,30.69 11.81,31.10 11.81,31.62 C 11.81,32.13 11.96,35.37 11.96,35.37 L 25.64,45.93 L 41.09,33.06 C 41.09,33.06 39.65,29.66 39.45,29.04 C 39.24,28.42 39.34,28.42 38.31,27.70 C 37.28,26.98 27.81,22.04 27.81,22.04 C 27.81,22.04 27.70,19.77 28.01,19.05 C 28.32,18.33 28.37,17.68 28.37,17.68 C 28.37,17.68 30.48,15.03 30.38,11.74 C 30.28,8.44 28.63,4.63 25.13,2.98 C 21.63,1.33 17.01,3.81 16.02,6.17 C 14.49,9.82 14.83,12.46 15.14,13.69 z" id="stroke01" style="fill:none;fill-opacity:1;fill-rule:evenodd;stroke:#110e0c;stroke-width:0.5;stroke-linecap:butt;stroke-linejoin:miter;stroke-miterlimit:4;stroke-dasharray:none;stroke-opacity:1"/>
</g>
</svg>
