<?xml version="1.0" encoding="UTF-8" standalone="no"?>
<!DOCTYPE svg PUBLIC "-//W3C//DTD SVG 1.0//EN" "http://www.w3.org/TR/2001/REC-SVG-20010904/DTD/svg10.dtd">
<svg xmlns:svg="http://www.w3.org/2000/svg" xmlns="http://www.w3.org/2000/svg" version="1.0" width="100%" height="100%" viewBox="0 0 48 48" id="_yellow03">
<defs id="defs2385"/>
<g id="yellow03" style="display:inline">
<path d="M 15.09,41.37 C 14.62,41.58 16.54,45.14 16.88,44.97 C 17.22,44.81 17.26,44.79 17.37,44.72 C 17.47,44.65 17.56,44.71 17.9,44.54 C 18.25,44.38 25.35,40.54 26.3,39.99 C 27.25,39.43 31.54,36.71 31.64,36.62 C 31.75,36.53 31.54,36.01 31.48,35.93 C 31.43,35.86 31.59,35.68 31.25,35.06 C 30.91,34.43 30.76,34.45 30.62,34.28 C 30.48,34.12 30.3,33.89 30.1,33.94 C 29.9,34 26.01,35.79 25.19,36.17 C 24.36,36.54 16.09,40.74 15.93,40.81 C 15.77,40.89 15.66,41.08 15.5,41.15 C 15.34,41.23 15.09,41.39 15.09,41.37 z" id="p3255" style="fill:#e7bf1a;fill-opacity:1;fill-rule:evenodd;stroke:none;display:inline"/>
<path d="M 15.55,43.2 C 15.55,43.2 17.11,42.33 19,41.45 C 20.89,40.57 24.48,38.6 25.97,37.79 C 27.46,36.98 31.18,35.16 31.18,35.16" id="p3258" style="fill:none;fill-rule:evenodd;stroke:#fff2bc;stroke-width:1px;stroke-linecap:butt;stroke-linejoin:miter;stroke-opacity:0.38"/>
<path d="M 15.62,41.11 C 15.96,41.99 17.04,43.81 17.38,44.56" id="p3261" style="fill:none;fill-rule:evenodd;stroke:#b39322;stroke-width:0.30;stroke-linecap:butt;stroke-linejoin:miter;stroke-miterlimit:4;stroke-dasharray:none;stroke-opacity:1;display:inline"/>
<path d="M 16.71,42.79 C 17.66,42.38 21.14,40.52 21.96,40.17 C 22.84,39.79 25.33,38.36 26,38.03" id="p3264" style="fill:none;fill-rule:evenodd;stroke:#d2af0b;stroke-width:0.30;stroke-linecap:round;stroke-linejoin:miter;stroke-miterlimit:4;stroke-dasharray:none;stroke-opacity:0.43;display:inline"/>
<path d="M 26.04,37.73 L 29.08,36.17" id="p3267" style="fill:none;fill-rule:evenodd;stroke:#ffffff;stroke-width:0.80;stroke-linecap:round;stroke-linejoin:miter;stroke-miterlimit:4;stroke-dasharray:none;stroke-opacity:0.13;display:inline"/>
<path d="M 27.73,35.9 L 30.7,34.48" id="p3270" style="fill:none;fill-rule:evenodd;stroke:#fff9d0;stroke-width:0.40;stroke-linecap:round;stroke-linejoin:miter;stroke-miterlimit:4;stroke-dasharray:none;stroke-opacity:0.22;display:inline"/>
<path d="M 15.49,42.66 C 15.49,42.66 15.71,42.66 17.07,41.9 C 18.42,41.14 23.75,38.37 24.29,38.09 C 24.83,37.82 30.97,34.67 30.97,34.67" id="p3273" style="fill:none;fill-rule:evenodd;stroke:#d2ad24;stroke-width:0.5;stroke-linecap:butt;stroke-linejoin:miter;stroke-miterlimit:4;stroke-dasharray:none;stroke-opacity:0.62"/>
<path d="M 16.62,42.47 L 17.56,42.01" id="p3275" style="fill:none;fill-rule:evenodd;stroke:#fffdd7;stroke-width:0.40;stroke-linecap:round;stroke-linejoin:miter;stroke-miterlimit:4;stroke-dasharray:none;stroke-opacity:0.46"/>
<path d="M 2.91,44.03 C 3.05,43.36 3.75,42.77 3.75,42.77 L 3.64,42.63 C 3.64,42.63 4.42,41.5 4.63,41.22 C 4.84,40.94 6.63,38.7 6.63,38.7 C 6.63,38.7 7.08,37.61 7.19,37.47 C 7.29,37.33 12.2,32.42 12.2,32.42 L 12.28,32.17 C 12.28,32.17 39.71,4.66 39.89,4.49 C 40.06,4.31 40.27,4.38 40.48,4.17 C 40.69,3.96 42.13,2.56 42.41,2.31 C 42.69,2.07 44.8,3.82 44.34,4.31 C 43.89,4.8 42.66,6.03 42.52,6.21 C 42.38,6.38 42.48,6.56 42.2,6.84 C 41.92,7.12 14.77,34.59 14.77,34.59 L 14.49,34.77 C 14.49,34.77 9.78,39.5 9.57,39.71 C 9.36,39.93 8.28,40.35 8.28,40.35 L 5.85,42.31 L 4.35,43.33 L 4.21,43.26 C 4.21,43.26 3.75,43.89 2.91,44.03 z" id="p3277" style="fill:#d7b21d;fill-opacity:1;fill-rule:evenodd;stroke:none"/>
<path d="M 8.14,38.71 L 41.48,5.37" id="p3282" style="fill:none;fill-rule:evenodd;stroke:#fffef1;stroke-width:1.10;stroke-linecap:butt;stroke-linejoin:miter;stroke-miterlimit:4;stroke-dasharray:none;stroke-opacity:0.17;display:inline"/>
<path d="M 8.24,38.87 L 32.84,14.14" id="p3306" style="fill:none;fill-rule:evenodd;stroke:#ddb828;stroke-width:0.40;stroke-linecap:round;stroke-linejoin:miter;stroke-miterlimit:4;stroke-dasharray:none;stroke-opacity:0.67;display:inline"/>
<path d="M 16.39,30.30 C 17.11,30.23 15.45,32.04 15.39,30.72 C 15.14,30.09 16.70,29.62 16.09,29.99 C 15.17,30.04 15.69,31.66 16.30,30.71 C 16.38,30.59 16.43,30.44 16.39,30.30 L 16.39,30.30 z M 16.65,30.02 C 16.21,29.12 17.99,28.84 17.33,29.85 C 17.19,30.04 16.83,30.33 16.65,30.02 L 16.65,30.02 z M 16.79,29.88 C 17.45,30.37 17.39,28.72 16.80,29.51 C 16.73,29.62 16.71,29.77 16.79,29.88 z M 17.76,29.40 C 17.62,29.11 17.29,28.80 17.27,28.52 C 17.51,28.33 17.65,29.01 17.84,29.18 C 17.96,29.28 17.82,29.32 17.76,29.40 z M 17.87,28.79 C 17.43,27.89 19.21,27.61 18.55,28.62 C 18.41,28.81 18.05,29.10 17.87,28.79 z M 18.01,28.65 C 18.67,29.14 18.61,27.49 18.02,28.28 C 17.95,28.39 17.93,28.54 18.01,28.65 L 18.01,28.65 z M 18.98,28.17 C 18.86,28.00 18.43,27.35 18.78,27.52 C 18.92,27.00 19.22,27.17 18.87,27.57 C 18.86,27.80 19.30,28.00 18.98,28.17 z M 19.96,27.18 C 19.82,26.89 19.49,26.58 19.47,26.30 C 19.74,25.79 20.87,25.31 20.29,26.29 C 19.81,26.53 20.02,26.83 20.03,27.11 L 19.99,27.15 L 19.96,27.18 z M 19.83,26.59 C 20.30,26.35 20.47,25.41 19.81,26.12 C 19.53,26.30 19.71,26.37 19.83,26.59 z M 21.42,25.39 C 22.05,25.17 20.55,26.76 20.71,25.55 C 21.05,24.64 21.87,25.17 21.04,25.64 C 20.60,26.05 21.63,25.75 21.42,25.39 L 21.42,25.39 z M 20.86,25.68 C 21.20,25.47 21.48,24.87 20.90,25.37 C 20.85,25.46 20.81,25.58 20.86,25.68 L 20.86,25.68 z M 21.86,25.27 C 21.74,25.10 21.30,24.46 21.65,24.62 C 21.67,23.59 22.82,24.51 22.35,24.69 C 22.17,23.97 21.43,24.58 21.94,25.03 C 22.07,25.15 21.92,25.17 21.86,25.27 z M 23.19,23.93 C 23.05,23.63 22.72,23.32 22.70,23.04 C 22.94,22.80 23.18,22.56 23.42,22.32 C 23.52,22.59 23.01,22.79 22.87,23.03 C 23.03,23.56 23.31,22.94 23.55,22.78 C 23.75,22.98 23.08,23.21 23.13,23.44 C 23.21,23.63 23.48,23.78 23.19,23.93 z M 23.67,22.26 C 23.42,21.96 24.06,21.95 23.67,22.26 z M 24.12,22.99 C 23.99,22.81 23.56,22.16 23.94,22.33 C 24.00,22.54 24.43,22.82 24.12,22.99 z M 24.47,22.64 C 24.35,22.47 23.92,21.83 24.26,21.99 C 24.29,20.96 25.44,21.87 24.96,22.06 C 24.78,21.34 24.05,21.95 24.55,22.40 C 24.68,22.52 24.54,22.54 24.47,22.64 z M 25.79,21.30 C 25.65,21.01 25.33,20.70 25.30,20.42 C 25.58,19.91 26.71,19.43 26.12,20.40 C 25.65,20.64 25.86,20.94 25.86,21.23 L 25.82,21.27 L 25.79,21.30 z M 25.66,20.71 C 26.13,20.46 26.30,19.53 25.64,20.24 C 25.36,20.42 25.55,20.49 25.66,20.71 z M 26.58,20.01 C 26.14,19.11 27.92,18.83 27.26,19.83 C 27.12,20.03 26.77,20.32 26.58,20.01 z M 26.72,19.87 C 27.38,20.36 27.32,18.70 26.73,19.50 C 26.66,19.61 26.64,19.76 26.72,19.87 z M 27.24,18.66 C 27.00,18.36 27.63,18.35 27.24,18.66 z M 27.69,19.38 C 27.56,19.21 27.14,18.56 27.51,18.73 C 27.57,18.94 28.00,19.22 27.69,19.38 z M 28.04,19.03 C 27.92,18.87 27.49,18.23 27.84,18.38 C 27.86,17.36 29.01,18.27 28.54,18.46 C 28.35,17.74 27.62,18.35 28.12,18.80 C 28.26,18.91 28.11,18.94 28.04,19.03 z M 29.16,17.76 C 29.22,18.36 28.67,17.76 28.57,17.64 C 28.43,17.82 28.47,16.86 28.68,17.36 C 29.02,17.09 28.61,17.62 28.97,17.82 C 29.01,17.95 29.12,17.80 29.16,17.76 L 29.16,17.76 z M 29.77,17.32 C 29.64,16.87 29.49,17.26 29.60,16.73 C 29.48,16.69 29.15,16.92 29.54,16.52 C 29.38,15.96 29.61,16.28 29.74,16.33 C 30.00,16.20 29.76,15.41 30.00,16.00 C 30.38,15.67 29.84,16.59 30.24,16.30 C 30.48,16.11 30.07,16.74 30.16,16.92 C 30.15,16.56 29.65,16.76 29.87,17.16 C 29.92,17.23 29.79,17.26 29.77,17.32 z M 29.76,16.78 C 30.14,16.62 29.96,16.04 29.69,16.52 C 29.71,16.60 29.74,16.69 29.76,16.78 z M 31.11,15.94 C 30.97,15.65 30.64,15.34 30.62,15.06 C 30.89,14.55 32.02,14.07 31.43,15.05 C 30.96,15.29 31.17,15.59 31.18,15.87 L 31.14,15.91 L 31.11,15.94 z M 30.98,15.35 C 31.45,15.11 31.62,14.17 30.96,14.88 C 30.68,15.06 30.86,15.13 30.98,15.35 z M 31.65,14.20 C 31.55,13.93 32.07,13.72 32.22,13.47 C 32.46,13.33 32.23,14.52 32.33,14.72 C 31.91,14.59 32.46,13.14 31.80,14.05 C 31.75,14.10 31.70,14.15 31.65,14.20 z M 33.28,12.71 C 33.03,12.88 32.52,13.03 32.83,13.50 C 32.91,12.58 34.06,13.10 33.36,13.70 C 32.42,14.49 32.36,12.40 33.28,12.71 L 33.28,12.71 z M 32.95,13.64 C 33.70,13.96 33.33,12.53 32.93,13.44 L 32.92,13.55 L 32.95,13.64 L 32.95,13.64 z M 33.39,12.45 C 33.29,12.17 33.81,11.96 33.96,11.71 C 34.20,11.57 33.97,12.76 34.07,12.96 C 33.65,12.83 34.20,11.38 33.54,12.29 C 33.49,12.34 33.44,12.39 33.39,12.45 z M 34.57,12.09 C 34.85,12.02 35.55,11.42 34.88,11.40 C 34.59,11.97 34.41,11.92 34.32,11.35 C 34.51,11.24 34.78,10.68 34.94,10.88 C 34.67,10.98 34.33,11.72 34.66,11.47 C 35.64,10.40 35.40,12.46 34.57,12.09 z" id="text3387" style="opacity:1;fill:#fcf8a7;fill-opacity:0.79;fill-rule:nonzero;stroke:none;marker:none;visibility:visible;display:inline;overflow:visible;enable-background:accumulate;"/>
<path d="M 3.9,42.83 L 4.11,43.01 L 5.34,41.82 L 7.53,39.7 L 7.06,39.15 L 5.05,41.46 L 3.9,42.83 z" id="p3291" style="fill:#ffe6b9;fill-opacity:0.41;fill-rule:evenodd;stroke:none;display:inline"/>
<path d="M 4.68,41.15 C 4.67,41.16 4.63,41.21 4.62,41.21 C 4.41,41.49 3.65,42.62 3.65,42.62 L 3.75,42.78 C 3.75,42.78 3.04,43.36 2.9,44.03 C 3.74,43.89 4.21,43.24 4.21,43.25 L 4.34,43.34 L 5.84,42.34 L 4.68,41.15 z" id="p3285" style="fill:#ae8e3a;fill-opacity:0.67;fill-rule:evenodd;stroke:none;display:inline"/>
<path d="M 3.68,42.56 C 3.68,42.56 3.65,42.62 3.65,42.62 L 3.75,42.78 C 3.75,42.78 3.04,43.36 2.9,44.03 C 3.74,43.89 4.21,43.24 4.21,43.25 L 4.34,43.34 L 4.4,43.31 L 3.68,42.56 z" id="p3288" style="fill:#987f00;fill-opacity:1;fill-rule:evenodd;stroke:none;display:inline"/>
<path d="M 7.21,37.43 C 7.21,37.43 7.18,37.46 7.18,37.46 C 7.09,37.59 6.72,38.44 6.65,38.59 C 7.09,39.2 7.62,39.85 8.25,40.37 L 8.28,40.34 C 8.28,40.34 9.04,40.03 9.4,39.81 C 8.23,39.12 7.65,38.25 7.21,37.43 z" id="p3294" style="fill:#a4872b;fill-opacity:0.5;fill-rule:evenodd;stroke:none;display:inline"/>
<path d="M 41.3,5.23 L 43.5,3.03" id="p3321" style="fill:none;fill-opacity:1;fill-rule:evenodd;stroke:#fffef1;stroke-width:0.88;stroke-linecap:butt;stroke-linejoin:miter;marker:none;stroke-miterlimit:4;stroke-dasharray:none;stroke-dashoffset:0;stroke-opacity:0.31;visibility:visible;display:inline;overflow:visible;enable-background:accumulate"/>
<path d="M 43.66,3.19 L 41.5,5.35" id="p3323" style="fill:none;fill-rule:evenodd;stroke:#fef9ea;stroke-width:0.30;stroke-linecap:butt;stroke-linejoin:miter;stroke-miterlimit:4;stroke-dasharray:none;stroke-opacity:0.47"/>
<path d="M 40.12,4.36 C 41.13,5.05 41.68,5.66 42.33,6.49" id="p3303" style="fill:none;fill-rule:evenodd;stroke:#9b7f1e;stroke-width:0.5;stroke-linecap:butt;stroke-linejoin:miter;stroke-miterlimit:4;stroke-dasharray:none;stroke-opacity:0.93;display:inline"/>
<path d="M 8.3,38.01 L 24.4,21.74" id="p3319" style="fill:none;fill-rule:evenodd;stroke:#fefeeb;stroke-width:0.2;stroke-linecap:round;stroke-linejoin:miter;stroke-miterlimit:4;stroke-dasharray:none;stroke-opacity:0.3"/>
<path d="M 12.24,32.46 C 13.21,33.15 14.01,34.02 14.51,34.7" id="p3300" style="fill:none;fill-rule:evenodd;stroke:#ba9925;stroke-width:0.40;stroke-linecap:butt;stroke-linejoin:miter;stroke-miterlimit:4;stroke-dasharray:none;stroke-opacity:0.9;display:inline"/>
<path d="M 40.98,5.55 C 41.3,5.78 41.5,5.98 41.58,6.1" id="p3325" style="fill:none;fill-rule:evenodd;stroke:#fefde6;stroke-width:0.30;stroke-linecap:round;stroke-linejoin:miter;stroke-miterlimit:4;stroke-dasharray:none;stroke-opacity:0.61"/>
<path d="M 28.31,18.02 L 40.74,5.32" id="p3340" style="fill:none;fill-rule:evenodd;stroke:#fffef6;stroke-width:0.40;stroke-linecap:round;stroke-linejoin:miter;stroke-miterlimit:4;stroke-dasharray:none;stroke-opacity:0.3"/>
<path d="M 7.69,38.42 C 7.81,38.6 7.94,38.71 8.11,38.87" id="p3297" style="fill:none;fill-rule:evenodd;stroke:#fff3c3;stroke-width:0.30;stroke-linecap:round;stroke-linejoin:miter;stroke-miterlimit:4;stroke-dasharray:none;stroke-opacity:0.81;display:inline"/>
<path d="M 15.09,41.37 C 14.62,41.58 16.54,45.14 16.88,44.97 C 17.22,44.81 17.26,44.79 17.37,44.72 C 17.47,44.65 17.56,44.71 17.9,44.54 C 18.25,44.38 25.35,40.54 26.3,39.99 C 27.25,39.43 31.54,36.71 31.64,36.62 C 31.75,36.53 31.54,36.01 31.48,35.93 C 31.43,35.86 31.56,35.54 31.22,34.91 C 30.88,34.28 30.65,34.3 30.62,34.28 C 30.43,34.18 30.3,33.89 30.1,33.94 C 29.9,34 26.01,35.79 25.19,36.17 C 24.36,36.54 16.09,40.74 15.93,40.81 C 15.77,40.89 15.66,41.08 15.5,41.15 C 15.34,41.23 15.09,41.39 15.09,41.37 z" id="stroke01" style="fill:none;fill-opacity:1;fill-rule:evenodd;stroke:#362d05;stroke-width:0.5;stroke-linecap:butt;stroke-linejoin:miter;stroke-miterlimit:4;stroke-dasharray:none;stroke-opacity:1"/>
<path d="M 2.91,44.03 C 3.05,43.36 3.75,42.77 3.75,42.77 L 3.64,42.63 C 3.64,42.63 4.42,41.5 4.63,41.22 C 4.84,40.94 6.63,38.7 6.63,38.7 C 6.63,38.7 7.08,37.61 7.19,37.47 C 7.29,37.33 12.2,32.42 12.2,32.42 L 12.28,32.17 C 12.28,32.17 39.71,4.66 39.89,4.49 C 40.06,4.31 40.27,4.38 40.48,4.17 C 40.69,3.96 42.13,2.56 42.41,2.31 C 42.69,2.07 44.8,3.82 44.34,4.31 C 43.89,4.8 42.66,6.03 42.52,6.21 C 42.38,6.38 42.48,6.56 42.2,6.84 C 41.92,7.12 14.77,34.59 14.77,34.59 L 14.49,34.77 C 14.49,34.77 9.78,39.5 9.57,39.71 C 9.36,39.93 8.28,40.35 8.28,40.35 L 5.85,42.31 L 4.35,43.33 L 4.21,43.26 C 4.21,43.26 3.75,43.89 2.91,44.03 z" id="stroke02" style="fill:none;fill-opacity:1;fill-rule:evenodd;stroke:#413600;stroke-width:0.5;stroke-linecap:butt;stroke-linejoin:miter;stroke-miterlimit:4;stroke-dasharray:none;stroke-opacity:1;display:inline"/>
</g>
</svg>
