<?xml version="1.0" encoding="UTF-8" standalone="no"?>
<!DOCTYPE svg PUBLIC "-//W3C//DTD SVG 1.0//EN" "http://www.w3.org/TR/2001/REC-SVG-20010904/DTD/svg10.dtd">
<svg xmlns:svg="http://www.w3.org/2000/svg" xmlns="http://www.w3.org/2000/svg" version="1.0" width="100%" height="100%" viewBox="0 0 48 48" id="_green04">
<defs id="defs2385"/>
<g id="green04">
<path d="M 30.45,12.37 C 30.4,17.13 29.99,24.31 30.08,24.99 C 30.18,25.68 33.38,28.1 34.66,32.22 C 35.94,36.33 34.34,40.54 31.73,42.28 C 29.12,44.02 23.98,45.07 18.51,41.68 C 13.71,38.71 15.5,31.49 16.87,29.48 C 18.24,27.46 19.93,26.27 20.25,25.68 C 20.34,25.13 20.66,11.87 20.34,11.73 C 20.02,11.6 20.02,10.64 20.62,10.36 C 20.62,9.77 20.98,8.85 20.34,7.21 C 19.7,5.56 22.4,4.28 25.83,4.46 C 29.26,4.64 32.28,6.02 30.4,9.26 C 31,10.13 30.86,11.87 30.45,12.37 z" id="p3235" style="fill:#83e083;fill-opacity:1;fill-rule:evenodd;stroke:none;display:inline"/>
<path d="M 20.35,16.95 C 21,18.04 21.54,18.74 22.41,18.69 C 23.28,18.64 28,18.96 29.14,18.04 C 30.28,17.12 30.28,15.98 30.28,15.98 L 29.79,13.53 L 20.51,13.97 L 20.35,16.95 z" id="p3341" style="fill:#3ca13c;fill-opacity:0.81;fill-rule:evenodd;stroke:none;display:inline"/>
<path d="M 26.04,15.76 C 26.04,15.76 26.91,17.5 25.94,19.23 C 24.96,20.97 23.98,22.81 24.96,25.53" id="p3353" style="fill:none;fill-rule:evenodd;stroke:#65c265;stroke-width:5.30;stroke-linecap:round;stroke-linejoin:miter;stroke-miterlimit:4;stroke-dasharray:none;stroke-opacity:0.56;display:inline"/>
<path d="M 30.21,25.25 C 30.21,26.08 27.98,26.76 25.23,26.76 C 22.47,26.76 20.25,26.08 20.25,25.25 C 20.25,24.41 22.47,23.73 25.23,23.73 C 27.98,23.73 30.21,24.41 30.21,25.25 L 30.21,25.25 z" id="p3236" style="opacity:1;fill:#022202;fill-opacity:0.81;fill-rule:evenodd;stroke:none;marker:none;visibility:visible;display:inline;overflow:visible;enable-background:accumulate"/>
<path d="M 27.72,23.97 C 28.04,23.01 28.16,21.98 26.38,21.68 C 22.03,20.96 19.5,18.73 24.66,18.42" id="path8" style="fill:none;fill-rule:evenodd;stroke:#94fd7e;stroke-width:0.5;stroke-linecap:butt;stroke-linejoin:miter;stroke-miterlimit:4;stroke-dasharray:none;stroke-opacity:0.46;display:inline"/>
<path d="M 26.38,20.01 C 29.04,21.23 29.65,21.91 28.97,23.51" id="p3238" style="fill:none;fill-rule:evenodd;stroke:#94fd7e;stroke-width:1;stroke-linecap:round;stroke-linejoin:miter;stroke-miterlimit:4;stroke-dasharray:none;stroke-opacity:0.4;display:inline"/>
<path d="M 25.12,16.19 C 25.07,19.23 25.23,18.74 23.82,21.46 C 22.41,24.17 23.6,24.68 23.6,24.68 L 27.06,25.46 C 27.06,25.46 25.83,22.76 25.83,22.05 C 25.83,21.35 28.59,17.88 27.73,15.81 C 26.86,13.75 25.12,16.3 25.12,16.19 z" id="p3337" style="fill:#48b548;fill-opacity:0.3;fill-rule:evenodd;stroke:none;display:inline"/>
<path d="M 20.38,25.04 C 20.35,26.05 20.26,25.57 20.25,25.68 C 19.92,26.28 18.24,27.45 16.87,29.46 C 15.5,31.48 13.72,38.71 18.53,41.68 C 24,45.07 29.14,44.01 31.75,42.28 C 34.35,40.54 35.93,36.33 34.65,32.21 C 33.59,29.89 30.57,25.89 30.09,25.43 C 27.43,26.74 23.58,26.99 20.38,25.04 z" id="p3283" style="fill:#0d920d;fill-opacity:0.92;fill-rule:evenodd;stroke:none;display:inline"/>
<path d="M 30.81,26.03 C 29.07,27.48 26.91,28.62 25.09,28.62 C 23.08,28.62 21.24,27.81 19.78,26.25 C 19.1,26.92 17.9,27.95 16.87,29.46 C 16.43,30.11 15.94,31.3 15.65,32.71 C 18.78,36.09 24.67,38.86 29.93,37.65 C 32.68,37.02 33.89,34.15 34.28,31.18 C 33.28,28.77 31.72,27.07 30.81,26.03 z" id="p3286" style="fill:#003c00;fill-opacity:0.62;fill-rule:evenodd;stroke:none;display:inline"/>
<path d="M 20.46,15.56 C 20.45,19.57 20.31,25.32 20.25,25.68 C 19.92,26.28 18.24,27.45 16.87,29.46 C 15.5,31.48 13.72,38.71 18.53,41.68 C 19.36,42.2 20.18,42.61 21,42.93 C 19.18,41.26 17.74,38.68 17.56,35.93 C 17.23,31.2 17.96,29.59 20.65,26.46 C 21.25,25.06 21.78,18.09 20.46,15.56 z M 30.31,17.59 C 28.76,21.02 29.12,24.31 29.37,25.4 C 29.69,26.8 34.12,29.15 34.34,34.75 C 34.48,38.47 31.81,41.71 29.06,43.46 C 30.11,43.17 31.03,42.75 31.75,42.28 C 34.35,40.54 35.93,36.33 34.65,32.21 C 33.37,28.1 30.18,25.68 30.09,25 C 30.03,24.54 30.18,21.17 30.31,17.59 z" id="p3280" style="fill:#a8f8a8;fill-opacity:0.27;fill-rule:evenodd;stroke:none;display:inline"/>
<path d="M 29.42,23.69 C 29.27,25.19 29.42,25.55 30.51,26.79" id="p3330" style="fill:none;fill-rule:evenodd;stroke:#acefac;stroke-width:0.88;stroke-linecap:round;stroke-linejoin:miter;stroke-miterlimit:4;stroke-dasharray:none;stroke-opacity:0.56"/>
<path d="M 20.79,22.56 C 20.79,23.59 20.97,25.55 20.56,26.22 C 20.16,26.89 18.91,27.65 18.91,27.65" id="p3328" style="fill:none;fill-rule:evenodd;stroke:#88eb88;stroke-width:0.88;stroke-linecap:round;stroke-linejoin:miter;stroke-miterlimit:4;stroke-dasharray:none;stroke-opacity:0.45"/>
<path d="M 27.21,28.31 C 24.26,28.21 20.66,29.36 19.81,31 C 18.58,33.35 19,37.34 21.9,43.25 C 21.91,43.25 21.9,43.27 21.9,43.28 C 26.04,44.61 29.69,43.65 31.75,42.28 C 32.34,41.88 32.87,41.34 33.34,40.71 C 28.85,43.23 27.48,39.34 27.03,37.34 C 26.49,34.97 31.09,35.39 31.31,31.09 C 31.4,29.2 29.51,28.38 27.21,28.31 z" id="p3298" style="fill:#2ce12c;fill-opacity:0.47;fill-rule:evenodd;stroke:none;display:inline"/>
<path d="M 31.32,33.08 C 31.32,35 29.15,36.57 26.47,36.57 C 23.79,36.57 21.63,35 21.63,33.08 C 21.63,31.15 23.79,29.58 26.47,29.58 C 29.15,29.58 31.32,31.15 31.32,33.08 z" id="p3301" style="fill:#45f045;fill-opacity:0.37;fill-rule:evenodd;stroke:none;marker:none;visibility:visible;display:inline;overflow:visible;enable-background:accumulate"/>
<path d="M 28.82,30.39 C 31.67,34.62 30.9,38.31 30.59,39.23" id="p3307" style="fill:none;fill-rule:evenodd;stroke:#00d800;stroke-width:3.40;stroke-linecap:round;stroke-linejoin:miter;stroke-miterlimit:4;stroke-dasharray:none;stroke-opacity:0.37;display:inline"/>
<path d="M 30.44,31.7 C 31.13,33.39 29.67,34.39 29.67,34.39" id="p3310" style="fill:none;fill-rule:evenodd;stroke:#90ff90;stroke-width:0.69;stroke-linecap:butt;stroke-linejoin:miter;stroke-miterlimit:4;stroke-dasharray:none;stroke-opacity:0.76;display:inline"/>
<path d="M 28.13,28.62 L 29.21,28.39" id="p3313" style="fill:none;fill-rule:evenodd;stroke:#ffffff;stroke-width:0.60;stroke-linecap:butt;stroke-linejoin:miter;stroke-miterlimit:4;stroke-dasharray:none;stroke-opacity:0.54;display:inline"/>
<path d="M 20.54,30.27 C 20,33.1 19.89,36.58 20.76,38.21" id="p3316" style="fill:none;fill-rule:evenodd;stroke:#00bc00;stroke-width:3.75;stroke-linecap:round;stroke-linejoin:miter;stroke-miterlimit:4;stroke-dasharray:none;stroke-opacity:0.33"/>
<path d="M 19.98,41.51 C 21.83,39.45 27.83,39.62 29.07,40.96 C 27.94,39.21 28.73,37.8 29.35,35.02 C 29.97,32.24 27.6,28.53 22.55,32.24 C 17.51,35.94 20.18,41.3 19.98,41.51 z" id="p2537" style="fill:#18f218;fill-opacity:0.27;fill-rule:evenodd;stroke:none"/>
<path d="M 19.7,40.27 C 15.71,37.69 16.61,32.03 18.93,29.32" id="p3321" style="fill:none;fill-rule:evenodd;stroke:#17ac17;stroke-width:1.70;stroke-linecap:round;stroke-linejoin:miter;stroke-miterlimit:4;stroke-dasharray:none;stroke-opacity:0.7;display:inline"/>
<path d="M 17.09,29.34 C 16.83,29.72 16.57,30.1 16.37,30.53 C 14.77,33.84 14.59,39.47 18.81,42.06 C 19.78,42.65 20.73,43.11 21.65,43.43 C 18.63,38.26 18.81,36.32 20.18,34.09 C 19.27,33.39 17.64,33.12 17.09,29.34 z" id="p3309" style="fill:#4ffd4f;fill-opacity:0.56;fill-rule:evenodd;stroke:none"/>
<path d="M 24.31,40.21 C 22.1,40.21 20.5,41.02 19.62,42.53 C 20.34,42.91 21.05,43.23 21.75,43.46 C 21.06,41.84 22.96,40.9 24.03,40.75 C 25.26,40.57 26.67,41.63 27.56,42.25 C 28.44,42.86 28.89,42.42 30.31,41.62 C 28.54,40.74 26.52,40.21 24.31,40.21 z" id="path25" style="fill:#003e00;fill-opacity:0.57;fill-rule:evenodd;stroke:none"/>
<path d="M 17.49,31.12 C 18.68,33.5 19.64,33.84 20.55,34.07 C 22.25,32.37 28.19,27.44 29.44,34.01" id="p3319" style="fill:none;fill-opacity:1;fill-rule:evenodd;stroke:#39f539;stroke-width:0.30;stroke-linecap:round;stroke-linejoin:miter;marker:none;stroke-miterlimit:4;stroke-dasharray:none;stroke-dashoffset:0;stroke-opacity:0.47;visibility:visible;display:inline;overflow:visible;enable-background:accumulate"/>
<path d="M 18.83,33.18 L 19.23,33.51" id="p3324" style="fill:none;fill-rule:evenodd;stroke:#ecfdec;stroke-width:0.30;stroke-linecap:round;stroke-linejoin:miter;stroke-miterlimit:4;stroke-dasharray:none;stroke-opacity:0.9;display:inline"/>
<path d="M 22.2,32.62 L 22.43,32.45" id="path29" style="fill:none;fill-rule:evenodd;stroke:#effeef;stroke-width:0.30;stroke-linecap:round;stroke-linejoin:miter;stroke-miterlimit:4;stroke-dasharray:none;stroke-opacity:0.93;display:inline"/>
<path d="M 25.08,26.85 L 25.56,27.12" id="p3332" style="fill:none;fill-rule:evenodd;stroke:#ecfdec;stroke-width:0.30;stroke-linecap:butt;stroke-linejoin:miter;stroke-miterlimit:4;stroke-dasharray:none;stroke-opacity:0.68;display:inline"/>
<path d="M 21.65,16.74 C 22.41,17.22 23.38,17.12 23.38,17.12" id="p3344" style="fill:none;fill-rule:evenodd;stroke:#cff4cf;stroke-width:1.5;stroke-linecap:round;stroke-linejoin:miter;stroke-miterlimit:4;stroke-dasharray:none;stroke-opacity:0.7;display:inline"/>
<path d="M 20.97,15.96 C 25.35,18.05 27.12,18.99 29.63,18.05" id="p3356" style="fill:none;fill-rule:evenodd;stroke:#86e786;stroke-width:1.20;stroke-linecap:round;stroke-linejoin:miter;stroke-miterlimit:4;stroke-dasharray:none;stroke-opacity:0.56;display:inline"/>
<path d="M 28.32,17.06 C 28.87,17.06 29.14,16.74 29.14,16.74" id="p3347" style="fill:none;fill-rule:evenodd;stroke:#cafbca;stroke-width:1.60;stroke-linecap:round;stroke-linejoin:miter;stroke-miterlimit:4;stroke-dasharray:none;stroke-opacity:0.56;display:inline"/>
<path d="M 24.47,22.43 L 25.23,22.38" id="p3350" style="fill:none;fill-rule:evenodd;stroke:#ddfcdd;stroke-width:0.30;stroke-linecap:butt;stroke-linejoin:miter;stroke-miterlimit:4;stroke-dasharray:none;stroke-opacity:0.56;display:inline"/>
<path d="M 24.59,4.46 C 21.78,4.61 19.78,5.77 20.34,7.21 C 20.98,8.86 20.62,9.78 20.62,10.37 C 20.03,10.64 20.02,11.61 20.34,11.75 C 20.44,11.79 20.46,13.36 20.46,15.28 C 22.81,17.41 27.75,18 30.4,14.96 C 30.43,14.07 30.46,13.17 30.46,12.37 C 30.88,11.87 31,10.15 30.4,9.28 C 32.28,6.03 29.27,4.65 25.84,4.46 C 25.41,4.44 24.99,4.44 24.59,4.46 z" id="p3266" style="fill:#866243;fill-opacity:1;fill-rule:evenodd;stroke:none;display:inline"/>
<path d="M 20.34,7.25 C 20.96,8.87 20.62,9.78 20.62,10.37 C 20.03,10.64 20.02,11.61 20.34,11.75 C 20.35,11.75 20.36,11.82 20.37,11.84 C 21.94,12.71 23.94,13.18 25.75,12.81 C 29.36,12.06 28.68,10.85 24.62,8.03 C 24.71,8.03 22.34,7.34 20.34,7.25 z" id="p3243" style="fill:#5b4634;fill-opacity:0.55;fill-rule:evenodd;stroke:none;display:inline"/>
<path d="M 24.59,4.46 C 22.18,4.59 20.36,5.47 20.25,6.62 C 20.9,7.66 22.14,7.98 22.75,8.34 C 23.75,8.92 24.52,8.67 25.53,9.34 C 26.53,10.01 28.14,8.96 29.12,9 C 29.93,9.02 30.48,8.71 30.87,8.25 C 31.62,5.72 28.89,4.63 25.84,4.46 C 25.41,4.44 24.99,4.44 24.59,4.46 z" id="p3269" style="fill:#c98834;fill-opacity:1;fill-rule:evenodd;stroke:none;display:inline"/>
<path d="M 26.27,8.86 C 26.79,8.67 28.01,8.49 28.01,8.49" id="p3206" style="fill:none;fill-rule:evenodd;stroke:#e0b198;stroke-width:1.38;stroke-linecap:round;stroke-linejoin:miter;stroke-miterlimit:4;stroke-dasharray:none;stroke-opacity:0.51"/>
<path d="M 21.14,5.71 C 23.68,5.33 24.58,5.52 24.25,6.89 C 23.92,8.25 24.2,9 26.08,8.16 C 27.97,7.31 29.24,7.54 29.76,7.4 C 30.27,7.26 30.65,7.12 30.7,6.56" id="p2429" style="fill:none;fill-rule:evenodd;stroke:#331f13;stroke-width:0.60;stroke-linecap:round;stroke-linejoin:miter;stroke-miterlimit:4;stroke-dasharray:none;stroke-opacity:0.31;display:inline"/>
<path d="M 21.66,5.61 C 22.27,5.52 23.16,5.47 23.54,5.61" id="p3202" style="fill:none;fill-rule:evenodd;stroke:#381c0e;stroke-width:0.69;stroke-linecap:round;stroke-linejoin:miter;stroke-miterlimit:4;stroke-dasharray:none;stroke-opacity:0.45"/>
<path d="M 27.26,7.87 C 28.25,7.59 29.38,7.64 29.71,7.54" id="p3204" style="fill:none;fill-rule:evenodd;stroke:#130909;stroke-width:1px;stroke-linecap:round;stroke-linejoin:miter;stroke-opacity:0.26"/>
<path d="M 20.21,10.87 C 20.08,11.24 20.13,11.66 20.34,11.75 C 20.44,11.79 20.46,13.36 20.46,15.28 C 22.81,17.41 27.75,18 30.4,14.96 C 30.43,14.07 30.46,13.17 30.46,12.37 C 30.58,12.23 30.65,12 30.71,11.71 C 29.25,12.99 27.82,13.14 27.15,13.25 C 26.4,13.36 23.42,13.14 20.21,10.87 z" id="p3208" style="fill:#786351;fill-opacity:1;fill-rule:evenodd;stroke:none;display:inline"/>
<path d="M 20.67,14.74 C 21.8,14.78 23.86,15.35 23.62,16.77" id="p3214" style="fill:none;fill-rule:evenodd;stroke:#dbc2b4;stroke-width:1.60;stroke-linecap:butt;stroke-linejoin:miter;stroke-miterlimit:4;stroke-dasharray:none;stroke-opacity:0.2"/>
<path d="M 29.12,15.96 C 28.51,14.62 29.81,14.42 30.29,14.38" id="p3216" style="fill:none;fill-rule:evenodd;stroke:#d3e9d3;stroke-width:1.5;stroke-linecap:butt;stroke-linejoin:miter;stroke-miterlimit:4;stroke-dasharray:none;stroke-opacity:0.11"/>
<path d="M 30.38,13.69 C 29.2,13.93 28.31,14.9 27.34,14.9" id="p3220" style="fill:none;fill-rule:evenodd;stroke:#000000;stroke-width:0;stroke-linecap:butt;stroke-linejoin:miter;stroke-miterlimit:4;stroke-dasharray:none;stroke-opacity:1"/>
<path d="M 21.39,14.01 C 21.76,14.34 22.33,14.46 22.33,14.46" id="p3222" style="fill:none;fill-rule:evenodd;stroke:#48372e;stroke-width:1px;stroke-linecap:butt;stroke-linejoin:miter;stroke-opacity:0.46"/>
<path d="M 26.37,13.77 C 26.69,13.85 26.94,13.85 27.26,13.81" id="p3224" style="fill:none;fill-rule:evenodd;stroke:#2e1a0e;stroke-width:1px;stroke-linecap:round;stroke-linejoin:miter;stroke-opacity:0.43"/>
<path d="M 28.15,15.67 C 28.39,15.39 28.51,15.11 28.51,15.11" id="p3226" style="fill:none;fill-rule:evenodd;stroke:#532f19;stroke-width:1px;stroke-linecap:round;stroke-linejoin:miter;stroke-opacity:0.43"/>
<path d="M 30.65,10.43 C 30.62,11.8 29.18,12.82 26.45,12.86 C 23.72,12.89 20.3,12.07 20.54,10.5" id="p3232" style="fill:none;fill-rule:evenodd;stroke:#4b3b2e;stroke-width:0.69;stroke-linecap:round;stroke-linejoin:miter;stroke-miterlimit:4;stroke-dasharray:none;stroke-opacity:0.5"/>
<path d="M 20.58,10.65 C 20.54,11.28 20.9,11.55 21.93,11.91" id="p3228" style="fill:none;fill-rule:evenodd;stroke:#98867a;stroke-width:0.5;stroke-linecap:round;stroke-linejoin:miter;stroke-miterlimit:4;stroke-dasharray:none;stroke-opacity:0.79"/>
<path d="M 25.27,12.81 C 27.34,13.22 29.68,12.81 30.63,11.32" id="p3230" style="fill:none;fill-rule:evenodd;stroke:#8b6d5c;stroke-width:0.60;stroke-linecap:round;stroke-linejoin:miter;stroke-miterlimit:4;stroke-dasharray:none;stroke-opacity:0.85"/>
<path d="M 27.28,12.86 C 28.22,12.76 30.3,12.05 30.52,11.37" id="p3234" style="fill:none;fill-rule:evenodd;stroke:#c5ab85;stroke-width:0.80;stroke-linecap:round;stroke-linejoin:miter;stroke-miterlimit:4;stroke-dasharray:none;stroke-opacity:0.45"/>
<path d="M 22.04,9.05 C 23.13,9.45 24.57,9.75 24.57,9.75" id="p3247" style="fill:none;fill-rule:evenodd;stroke:#cbb39d;stroke-width:1.5;stroke-linecap:round;stroke-linejoin:miter;stroke-miterlimit:4;stroke-dasharray:none;stroke-opacity:0.17;display:inline"/>
<path d="M 22.74,10.79 C 23.43,11.08 24.77,11.33 24.77,11.33" id="p3250" style="fill:none;fill-rule:evenodd;stroke:#cbb39d;stroke-width:1.5;stroke-linecap:round;stroke-linejoin:miter;stroke-miterlimit:4;stroke-dasharray:none;stroke-opacity:0.17;display:inline"/>
<path d="M 20.46,15.28 C 22.81,17.41 27.75,18 30.4,14.96" id="p3362" style="fill:none;fill-opacity:1;fill-rule:evenodd;stroke:#20320a;stroke-width:0.5;stroke-linecap:butt;stroke-linejoin:miter;stroke-miterlimit:4;stroke-dasharray:none;stroke-opacity:1;display:inline"/>
<path d="M 20.25,6.62 C 20.9,7.66 22.14,7.98 22.75,8.34 C 23.75,8.92 24.52,8.67 25.53,9.34 C 26.53,10.01 28.14,8.96 29.12,9 C 29.93,9.02 30.48,8.71 30.87,8.25" id="p3359" style="fill:none;fill-opacity:1;fill-rule:evenodd;stroke:#503311;stroke-width:0.5;stroke-linecap:butt;stroke-linejoin:miter;stroke-miterlimit:4;stroke-dasharray:none;stroke-opacity:1;display:inline"/>
<path d="M 30.45,12.37 C 30.4,17.13 29.99,24.31 30.08,24.99 C 30.18,25.68 33.38,28.1 34.66,32.22 C 35.94,36.33 34.34,40.54 31.73,42.28 C 29.12,44.02 24.29,45.43 18.8,42.07 C 14.58,39.48 14.79,33.84 16.39,30.53 C 17.58,28.08 19.93,26.27 20.25,25.68 C 20.34,25.13 20.66,11.87 20.34,11.73 C 20.02,11.6 20.02,10.64 20.62,10.36 C 20.62,9.77 20.98,8.85 20.34,7.21 C 19.7,5.56 22.4,4.28 25.83,4.46 C 29.26,4.64 32.28,6.02 30.4,9.26 C 31,10.13 30.86,11.87 30.45,12.37 z" id="stroke01" style="fill:none;fill-opacity:1;fill-rule:evenodd;stroke:#000000;stroke-width:0.5;stroke-linecap:butt;stroke-linejoin:miter;stroke-miterlimit:4;stroke-dasharray:none;stroke-opacity:1;display:inline"/>
<path d="M 30.53,26.19 C 30.53,26.19 23.68,24.23 22.74,23.99 C 21.8,23.75 20.21,24.08 16.37,24.62 C 12.98,25.09 11.33,20.35 11.49,18.72 C 11.87,14.67 15.11,16.83 16.76,14.15 C 18.04,12.07 21.09,8.72 20.3,6.75 C 19.51,4.79 15.81,5.1 18.65,10.38" id="p3237" style="fill:none;fill-rule:evenodd;stroke:#767676;stroke-width:1px;stroke-linecap:butt;stroke-linejoin:miter;stroke-opacity:1;display:inline"/>
<path d="M 24.09,3.4 C 23.52,3.4 22.93,3.53 22.37,3.78 C 21.4,4.2 20.41,4.59 19.62,5.09 C 19.23,5.34 18.89,5.6 18.65,5.96 C 18.41,6.32 18.29,6.81 18.4,7.28 L 18.4,7.31 L 18.43,7.34 C 18.68,7.89 19.19,8.24 19.81,8.5 C 20.42,8.75 21.16,8.91 21.93,8.93 C 23.47,8.98 25.21,8.47 26.09,7 C 26.5,6.3 26.68,5.66 26.59,5.09 C 26.5,4.52 26.14,4.08 25.68,3.81 C 25.23,3.54 24.66,3.4 24.09,3.4 z M 24.09,4.43 C 24.51,4.43 24.9,4.5 25.15,4.65 C 25.4,4.8 25.55,4.97 25.59,5.25 C 25.63,5.52 25.55,5.93 25.21,6.5 C 24.59,7.54 23.27,7.97 21.96,7.93 C 21.31,7.91 20.66,7.79 20.18,7.59 C 19.72,7.4 19.46,7.13 19.37,6.96 C 19.34,6.8 19.36,6.68 19.46,6.53 C 19.58,6.35 19.83,6.14 20.15,5.93 C 20.8,5.52 21.78,5.12 22.78,4.68 C 23.2,4.49 23.66,4.43 24.09,4.43 z" id="p3246" style="fill:#949494;fill-opacity:1;fill-rule:evenodd;stroke:none;display:inline"/>
<path d="M 20.38,10.92 C 20.38,12 19.51,12.88 18.45,12.88 C 17.39,12.88 16.53,12 16.53,10.92 C 16.53,9.83 17.39,8.95 18.45,8.95 C 19.51,8.95 20.38,9.83 20.38,10.92 z" id="p3240" style="fill:#181818;fill-opacity:1;fill-rule:evenodd;stroke:none;marker:none;visibility:visible;display:inline;overflow:visible;enable-background:accumulate"/>
<path d="M 18.62,5.15 C 18.34,5.17 18.06,5.25 17.81,5.43 C 17.31,5.8 17.04,6.49 17.09,7.34 C 17.13,8.19 17.48,9.26 18.21,10.62 L 18.75,10.34 C 17.96,11.58 16.98,12.87 16.34,13.9 C 15.62,15.06 14.65,15.11 13.53,15.43 C 12.96,15.59 12.35,15.83 11.87,16.34 C 11.39,16.85 11.1,17.6 11,18.68 C 10.9,19.71 11.31,21.29 12.18,22.71 C 13.06,24.14 14.5,25.39 16.43,25.12 C 20.29,24.58 21.91,24.29 22.62,24.46 C 23.48,24.68 30.4,26.68 30.4,26.68 L 30.68,25.71 C 30.68,25.71 23.9,23.75 22.87,23.5 C 21.69,23.2 20.15,23.58 16.31,24.12 C 14.85,24.32 13.79,23.42 13.03,22.18 C 12.27,20.95 11.94,19.38 12,18.78 C 12.09,17.83 12.33,17.34 12.62,17.03 C 12.91,16.72 13.27,16.54 13.78,16.4 C 14.78,16.12 16.25,15.91 17.18,14.4 C 17.8,13.41 18.9,12.06 19.75,10.68 C 20.13,10.05 20.46,9.41 20.68,8.78 C 20.37,8.7 20.08,8.61 19.81,8.5 C 19.78,8.48 19.74,8.48 19.71,8.46 C 19.55,8.91 19.29,9.4 19,9.9 C 18.43,8.79 18.12,7.85 18.09,7.28 C 18.06,6.65 18.23,6.37 18.4,6.25 C 18.75,5.99 19.55,6.21 19.84,6.93 C 19.9,7.08 19.93,7.24 19.93,7.43 C 20.02,7.48 20.08,7.55 20.18,7.59 C 20.39,7.68 20.64,7.75 20.9,7.81 C 20.95,7.38 20.94,6.96 20.78,6.56 C 20.53,5.94 20.01,5.49 19.46,5.28 C 19.19,5.17 18.9,5.13 18.62,5.15 z" id="p3259" style="fill:#a0a0a0;fill-opacity:1;fill-rule:evenodd;stroke:none;display:inline"/>
<path d="M 18.5,10.18 C 17.87,8.88 17.71,8 17.64,7.51" id="p3289" style="fill:none;fill-rule:evenodd;stroke:#363636;stroke-width:1px;stroke-linecap:round;stroke-linejoin:miter;stroke-opacity:0.85"/>
<path d="M 13.09,15.78 C 14.4,15.39 14.84,15.44 15.37,14.95" id="p3284" style="fill:none;fill-opacity:1;fill-rule:evenodd;stroke:#171717;stroke-width:0.40;stroke-linecap:round;stroke-linejoin:miter;marker:none;stroke-miterlimit:4;stroke-dasharray:none;stroke-dashoffset:0;stroke-opacity:0.8;visibility:visible;display:inline;overflow:visible;enable-background:accumulate"/>
<path d="M 30.4,25.89 C 30.4,25.89 23.55,23.92 22.61,23.68 C 21.66,23.45 20.08,23.78 16.23,24.31 C 14.54,24.55 12.49,23.22 11.89,20.26" id="p3278" style="fill:none;fill-rule:evenodd;stroke:#171717;stroke-width:0.60;stroke-linecap:round;stroke-linejoin:miter;stroke-miterlimit:4;stroke-dasharray:none;stroke-opacity:0.8;display:inline"/>
<path d="M 12.66,22.19 C 13.14,22.94 13.45,23.55 14.41,23.99" id="p3281" style="fill:none;fill-rule:evenodd;stroke:#dbd6cc;stroke-width:0.5;stroke-linecap:round;stroke-linejoin:miter;stroke-miterlimit:4;stroke-dasharray:none;stroke-opacity:0.81"/>
<path d="M 17.96,5.51 C 18.73,5.25 19.63,5.25 20.26,6.18" id="p3291" style="fill:none;fill-rule:evenodd;stroke:#3c3c3c;stroke-width:0.60;stroke-linecap:round;stroke-linejoin:miter;stroke-miterlimit:4;stroke-dasharray:none;stroke-opacity:0.87"/>
<path d="M 19.43,5.67 C 20.15,6.09 20.56,6.9 20.54,7.55" id="p3293" style="fill:none;fill-rule:evenodd;stroke:#dfdfdf;stroke-width:0.5;stroke-linecap:round;stroke-linejoin:miter;stroke-miterlimit:4;stroke-dasharray:none;stroke-opacity:1"/>
<path d="M 19.09,6.46 C 18.83,7.07 19.38,8.26 21.66,8.36" id="p3348" style="fill:none;fill-rule:evenodd;stroke:#2e2e2e;stroke-width:0.5;stroke-linecap:round;stroke-linejoin:miter;stroke-miterlimit:4;stroke-dasharray:none;stroke-opacity:1"/>
<path d="M 21.05,8.13 C 22.98,8.23 25.14,8.13 25.81,5.78" id="p3351" style="fill:none;fill-rule:evenodd;stroke:#dedede;stroke-width:0.69;stroke-linecap:round;stroke-linejoin:miter;stroke-miterlimit:4;stroke-dasharray:none;stroke-opacity:0.81"/>
<path d="M 22.92,8.07 C 23.82,7.94 24.33,7.68 24.65,7.42" id="p3354" style="fill:none;fill-rule:evenodd;stroke:#fcfcfc;stroke-width:0.69;stroke-linecap:round;stroke-linejoin:miter;stroke-miterlimit:4;stroke-dasharray:none;stroke-opacity:0.92"/>
<path d="M 22.79,3.93 C 23.87,3.69 24.19,3.73 24.71,3.85" id="p3357" style="fill:none;fill-rule:evenodd;stroke:#303030;stroke-width:0.60;stroke-linecap:round;stroke-linejoin:miter;stroke-miterlimit:4;stroke-dasharray:none;stroke-opacity:1"/>
<path d="M 20.55,5.09 L 21.39,4.65" id="p3360" style="fill:none;fill-rule:evenodd;stroke:#f2f2f2;stroke-width:0.69;stroke-linecap:round;stroke-linejoin:miter;stroke-miterlimit:4;stroke-dasharray:none;stroke-opacity:0.7"/>
<path d="M 18.56,6.12 C 18.38,6.46 18.31,6.88 18.4,7.28 L 18.4,7.31 L 18.43,7.34 C 18.68,7.89 19.19,8.24 19.81,8.5 C 20.42,8.75 21.16,8.91 21.93,8.93 C 23.47,8.98 25.21,8.47 26.09,7 C 26.5,6.3 26.68,5.66 26.59,5.09 C 26.5,4.52 26.14,4.08 25.68,3.81 C 25.23,3.54 24.66,3.4 24.09,3.4 C 23.52,3.4 22.93,3.53 22.37,3.78 C 21.4,4.2 20.41,4.59 19.62,5.09 C 19.55,5.13 19.43,5.23 19.36,5.28 M 20.31,5.84 C 20.95,5.46 21.85,5.09 22.78,4.68 C 23.2,4.49 23.66,4.43 24.09,4.43 C 24.51,4.43 24.9,4.5 25.15,4.65 C 25.4,4.8 25.55,4.97 25.59,5.25 C 25.63,5.52 25.55,5.93 25.21,6.5 C 24.59,7.54 23.27,7.97 21.96,7.93 C 21.31,7.91 20.66,7.79 20.18,7.59 C 19.72,7.4 19.46,7.13 19.37,6.96 C 19.34,6.8 19.36,6.68 19.46,6.53" id="stroke02" style="fill:none;fill-opacity:1;fill-rule:evenodd;stroke:#222222;stroke-width:0.5;stroke-linecap:butt;stroke-linejoin:miter;stroke-miterlimit:4;stroke-dasharray:none;stroke-opacity:1;display:inline"/>
<path d="M 19.81,8.5 C 19.78,8.48 19.74,8.48 19.71,8.46 C 19.55,8.91 19.29,9.4 19,9.9 C 18.43,8.79 18.12,7.85 18.09,7.28 C 18.06,6.65 18.23,6.37 18.4,6.25 C 18.75,5.99 19.55,6.21 19.84,6.93 C 19.9,7.08 19.93,7.24 19.93,7.43 M 20.9,7.81 C 20.95,7.38 20.94,6.96 20.78,6.56 C 20.53,5.94 20.01,5.49 19.46,5.28 C 19.19,5.17 18.9,5.13 18.62,5.15 C 18.34,5.17 18.06,5.25 17.81,5.43 C 17.31,5.8 17.04,6.49 17.09,7.34 C 17.13,8.19 17.48,9.26 18.21,10.62 L 18.75,10.34 C 17.96,11.58 16.98,12.87 16.34,13.9 C 15.62,15.06 14.65,15.11 13.53,15.43 C 12.96,15.59 12.35,15.83 11.87,16.34 C 11.39,16.85 11.1,17.6 11,18.68 C 10.9,19.71 11.31,21.29 12.18,22.71 C 13.06,24.14 14.5,25.39 16.43,25.12 C 20.29,24.58 21.91,24.29 22.62,24.46 C 23.48,24.68 30.4,26.68 30.4,26.68 L 30.68,25.71 C 30.68,25.71 23.9,23.75 22.87,23.5 C 21.69,23.2 20.15,23.58 16.31,24.12 C 14.85,24.32 13.79,23.42 13.03,22.18 C 12.27,20.95 11.94,19.38 12,18.78 C 12.09,17.83 12.33,17.34 12.62,17.03 C 12.91,16.72 13.27,16.54 13.78,16.4 C 14.78,16.12 16.25,15.91 17.18,14.4 C 17.8,13.41 18.9,12.06 19.75,10.68 C 20.13,10.05 20.46,9.41 20.68,8.78" id="stroke03" style="fill:none;fill-opacity:1;fill-rule:evenodd;stroke:#181818;stroke-width:0.5;stroke-linecap:butt;stroke-linejoin:miter;stroke-miterlimit:4;stroke-dasharray:none;stroke-opacity:1;display:inline"/>
<path d="M 26.9,2.84 C 26.72,2.83 26.55,2.84 26.37,2.87 C 25.66,3.01 24.97,3.48 24.59,4.25 C 24.22,4.97 24.14,5.84 24.75,6.85 C 25.08,6.61 25.19,6.25 25.37,5.92 C 25.15,5.38 25.29,5.03 25.46,4.68 C 25.69,4.23 26.2,3.92 26.59,3.84 C 26.78,3.8 26.92,3.83 27,3.87 C 27.07,3.91 27.12,3.94 27.15,4.09 C 27.19,4.31 27.19,4.88 26.69,5.72 C 26.65,6.04 26.53,6.36 26.35,6.72 L 26.84,7.12 C 27.9,5.69 28.28,4.69 28.12,3.87 C 28.04,3.46 27.77,3.13 27.43,2.96 C 27.26,2.88 27.08,2.85 26.9,2.84 z" id="p3372" style="fill:#5f5f5f;fill-opacity:1;fill-rule:evenodd;stroke:none;display:inline"/>
<path d="M 24.99,4.38 C 24.58,4.99 24.6,5.8 24.86,6.27" id="p3392" style="fill:none;fill-rule:evenodd;stroke:#343434;stroke-width:0.69;stroke-linecap:round;stroke-linejoin:miter;stroke-miterlimit:4;stroke-dasharray:none;stroke-opacity:1"/>
<path d="M 27.38,3.61 C 28.01,3.92 27.92,4.4 27.77,4.91" id="p3394" style="fill:none;fill-rule:evenodd;stroke:#9e9e9e;stroke-width:0.30;stroke-linecap:round;stroke-linejoin:miter;stroke-miterlimit:4;stroke-dasharray:none;stroke-opacity:0.65"/>
<path d="M 24.85,4.39 C 25.26,3.64 26.08,3.1 26.74,3.14" id="p3396" style="fill:none;fill-rule:evenodd;stroke:#b4b4b4;stroke-width:0.60;stroke-linecap:round;stroke-linejoin:miter;stroke-miterlimit:4;stroke-dasharray:none;stroke-opacity:0.73"/>
<path d="M 25.18,4.09 C 25.48,3.76 25.65,3.62 25.8,3.57" id="p3398" style="fill:none;fill-rule:evenodd;stroke:#dddddd;stroke-width:0.69;stroke-linecap:round;stroke-linejoin:miter;stroke-miterlimit:4;stroke-dasharray:none;stroke-opacity:0.81"/>
<path d="M 25.43,5.91 C 25.26,5.86 25.29,5.03 25.46,4.68 C 25.69,4.23 26.2,3.92 26.59,3.84 C 26.78,3.8 26.92,3.83 27,3.87 C 27.07,3.91 27.12,3.94 27.15,4.09 C 27.19,4.31 27.19,4.88 26.69,5.72 M 26.3,6.82 L 26.92,6.94 C 27.98,5.51 28.28,4.69 28.12,3.87 C 28.04,3.46 27.77,3.13 27.43,2.96 C 27.26,2.88 27.08,2.85 26.9,2.84 C 26.72,2.83 26.55,2.84 26.37,2.87 C 25.66,3.01 24.97,3.48 24.59,4.25 C 24.22,4.97 24.25,6.43 24.75,6.86" id="stroke04" style="fill:none;fill-opacity:1;fill-rule:evenodd;stroke:#191919;stroke-width:0.5;stroke-linecap:butt;stroke-linejoin:miter;stroke-miterlimit:4;stroke-dasharray:none;stroke-opacity:1;display:inline"/>
<path d="M 16.76,16.04 C 18.33,14.31 17.99,13.93 18.31,13.54 C 18.62,13.14 16.89,11.65 16.5,12.59 C 16.1,13.54 15.66,14.15 15.03,14.7 C 14.4,15.25 15.97,16.91 16.76,16.04 z" id="p3242" style="fill:#7a7a7a;fill-opacity:1;fill-rule:evenodd;stroke:none;marker:none;visibility:visible;display:inline;overflow:visible;enable-background:accumulate"/>
<path d="M 15.24,15.69 C 16.1,15.01 17.1,13.74 17.59,12.64" id="p3287" style="fill:none;fill-rule:evenodd;stroke:#dddddd;stroke-width:1px;stroke-linecap:butt;stroke-linejoin:miter;stroke-opacity:0.22;display:inline"/>
<path d="M 16.76,16.04 C 18.33,14.31 17.99,13.93 18.31,13.54 C 18.62,13.14 16.89,11.65 16.5,12.59 C 16.1,13.54 15.66,14.15 15.03,14.7 C 14.4,15.25 15.97,16.91 16.76,16.04 z" id="stroke05" style="fill:none;fill-opacity:1;fill-rule:evenodd;stroke:#181818;stroke-width:0.5;stroke-linecap:butt;stroke-linejoin:miter;marker:none;stroke-miterlimit:4;stroke-dasharray:none;stroke-dashoffset:0;stroke-opacity:1;visibility:visible;display:inline;overflow:visible;enable-background:accumulate"/>
<path d="M 17.68,9.15 C 17.01,9.46 16.53,10.13 16.53,10.93 C 16.53,12.02 17.4,12.9 18.46,12.9 C 19.53,12.9 20.37,12.02 20.37,10.93 C 20.37,10.61 20.29,10.3 20.15,10.03 C 20.15,10.04 20.13,10.05 20.12,10.06 C 19.95,10.2 19.29,10.05 18.62,9.78 C 18.09,9.56 17.73,9.32 17.68,9.15 z" id="p3264" style="fill:#3d3d3d;fill-opacity:1;fill-rule:evenodd;stroke:none;marker:none;visibility:visible;display:inline;overflow:visible;enable-background:accumulate"/>
<path d="M 17.72,10.19 C 18.16,10.54 18.63,10.71 19.16,10.79" id="p3272" style="fill:none;fill-rule:evenodd;stroke:#e7d2b1;stroke-width:1.20;stroke-linecap:round;stroke-linejoin:miter;stroke-miterlimit:4;stroke-dasharray:none;stroke-opacity:0.5;display:inline"/>
<path d="M 17.29,11.6 C 17.79,12.2 18.55,12.39 18.99,12.11" id="p3274" style="fill:none;fill-rule:evenodd;stroke:#ddd1bb;stroke-width:1.20;stroke-linecap:round;stroke-linejoin:miter;stroke-miterlimit:4;stroke-dasharray:none;stroke-opacity:0.45;display:inline"/>
<path d="M 17.71,10.32 C 17.86,10.46 18.19,10.59 18.19,10.59" id="p3276" style="fill:none;fill-rule:evenodd;stroke:#e2dbcb;stroke-width:1.20;stroke-linecap:round;stroke-linejoin:miter;stroke-miterlimit:4;stroke-dasharray:none;stroke-opacity:0.75;display:inline"/>
<path d="M 17.68,9.15 C 17.01,9.46 16.53,10.13 16.53,10.93 C 16.53,12.02 17.4,12.9 18.46,12.9 C 19.53,12.9 20.37,12.02 20.37,10.93 C 20.37,10.61 20.29,10.3 20.15,10.03 C 20.15,10.04 20.13,10.05 20.12,10.06 C 19.95,10.2 19.29,10.05 18.62,9.78 C 18.09,9.56 17.73,9.32 17.68,9.15 z" id="stroke06" style="fill:none;fill-opacity:1;fill-rule:evenodd;stroke:#181818;stroke-width:0.40;stroke-linecap:butt;stroke-linejoin:miter;marker:none;stroke-miterlimit:4;stroke-dasharray:none;stroke-dashoffset:0;stroke-opacity:1;visibility:visible;display:inline;overflow:visible;enable-background:accumulate"/>
<path d="M 19.95,41.4 C 21.09,40.17 25.31,39.12 28.04,40.35" id="p3317" style="fill:none;fill-rule:evenodd;stroke:#53fd53;stroke-width:0.30;stroke-linecap:round;stroke-linejoin:miter;stroke-miterlimit:4;stroke-dasharray:none;stroke-opacity:0.4"/>
<path d="M 30.36,41.27 C 32.43,38.7 32.53,38.11 32.73,34.74" id="p3326" style="fill:none;fill-rule:evenodd;stroke:#4af44a;stroke-width:2.40;stroke-linecap:round;stroke-linejoin:miter;stroke-miterlimit:4;stroke-dasharray:none;stroke-opacity:0.3"/>
</g>
</svg>
