<?xml version="1.0" encoding="UTF-8" standalone="no"?>
<!DOCTYPE svg PUBLIC "-//W3C//DTD SVG 1.0//EN" "http://www.w3.org/TR/2001/REC-SVG-20010904/DTD/svg10.dtd">
<svg xmlns:svg="http://www.w3.org/2000/svg" xmlns="http://www.w3.org/2000/svg" version="1.0" width="100%" height="100%" viewBox="0 0 48 48" id="_orange02">
<defs id="defs2385"/>
<g id="orange02" style="display:inline">
<path d="M 23.65,4.81 C 21.11,4.73 19.28,5.89 19.12,7.12 C 18.99,8.11 19.44,9.65 19.36,9.65 C 18.4,9.67 17.48,10.97 17.4,12.12 C 17.32,13.27 18.46,14.5 18.46,14.5 C 18.46,14.5 18.55,15.82 18.71,16.15 C 18.83,16.39 19.02,18.43 19.12,19.71 C 14.39,21.5 11.03,26.1 11.03,31.5 C 11.03,38.43 16.59,44.06 23.46,44.06 C 30.34,44.06 35.9,38.43 35.9,31.5 C 35.9,26.29 32.77,21.81 28.31,19.9 L 28.96,14.9 C 28.96,14.9 29.52,14.38 29.75,13.97 C 30.07,13.4 30.3,12.4 29.85,11.4 C 29.42,10.45 27.9,9.65 27.9,9.65 C 27.9,9.65 28.47,8.02 28.31,6.87 C 28.14,5.72 26.2,4.89 23.65,4.81 z" id="p2464" style="fill:#d4741f;fill-opacity:1;fill-rule:evenodd;stroke:none;marker:none;visibility:visible;display:inline;overflow:visible;enable-background:accumulate"/>
<path d="M 28.43,19.96 C 28.34,20.37 28.29,20.87 28.34,21.28 C 28.44,22.09 27.13,22.4 27.03,22.4 C 26.01,23.72 26.81,24.84 26.81,24.84 C 26.81,24.84 25.6,25.85 27.12,27.37 C 28.64,28.89 29.77,28.79 29.87,29.4 C 29.97,30.01 28.42,29.09 28.12,29.9 C 27.82,30.71 26.51,31.33 27.53,31.43 C 28.54,31.53 30.26,31.53 30.46,31.53 C 30.67,31.53 31.8,33.57 32.31,33.37 C 32.82,33.17 33.72,31.85 34.03,30.43 C 34.33,29.01 32.71,29.8 33.12,29.09 C 33.43,28.54 34.27,26.64 33.68,24.31 C 32.38,22.41 30.55,20.9 28.43,19.96 z" id="p3373" style="fill:#733b0a;fill-opacity:0.7;fill-rule:evenodd;stroke:none;display:inline"/>
<path d="M 12.9,26.56 C 12.87,26.58 12.87,26.62 12.87,26.62 C 12.87,26.62 11.91,30.66 11.84,31.46 C 11.79,31.97 11.71,33.17 11.62,34.34 C 12.99,32.17 14.05,30.64 14.71,31.25 C 15.52,31.98 20.11,33.52 20.84,33.59 C 21.57,33.66 21.88,35.11 21.37,35.18 C 20.86,35.26 22.25,36.15 22.25,36.15 L 24.31,36.21 L 23.4,33.06 C 23.4,33.06 20.21,32.9 18.96,32.25 C 17.72,31.59 14.64,30 13.84,28.03 C 13.23,26.54 12.98,26.49 12.9,26.56 z M 11.62,34.34 C 11.56,34.43 11.49,34.53 11.43,34.62 C 11.47,34.78 11.51,34.96 11.56,35.12 C 11.57,34.91 11.59,34.66 11.62,34.34 z" id="p3365" style="fill:#ff881f;fill-opacity:0.6;fill-rule:evenodd;stroke:none;display:inline"/>
<path d="M 20,23.46 C 22.83,26.3 24.34,30.7 24.34,31.34 C 24.34,31.98 23.34,31.89 23.56,33.03 C 23.77,34.16 24.62,35.93 24.62,36.71 C 24.62,37.49 28.71,37.5 29.5,38.21 C 29.99,38.66 30.88,39.93 31.59,41 C 32.97,39.79 34.09,38.27 34.84,36.56 C 32.22,34.89 29.19,33.08 29.43,32.53 C 29.72,31.89 31.28,31.03 30.21,29.96 C 29.15,28.9 26.65,27.78 26.65,26.93 C 26.65,26.08 27.1,26.22 26.75,25.09 C 26.39,23.95 26.59,23.51 25.25,23.65 C 23.9,23.79 20,23.46 20,23.46 z" id="p3350" style="fill:#83440c;fill-opacity:0.31;fill-rule:evenodd;stroke:none;display:inline"/>
<path d="M 22.75,36 C 21.02,36.12 19.6,37.04 17.71,38.28 C 16.29,39.21 15.66,40.33 15.37,41.03 C 16.7,42.18 18.27,43.05 20,43.56 C 20.65,43.12 21.59,42.6 22.65,42.46 C 24.07,42.28 26.52,42.72 27.93,42.84 C 28.13,42.86 28.43,42.86 28.68,42.87 C 29.92,42.29 31.02,41.52 32,40.59 C 31.35,39.57 30.54,38.45 30.15,38.03 C 29.47,37.29 28.45,37.15 27.59,37.15 C 26.73,37.15 25.62,36.12 23.53,36 C 23.26,35.98 22.99,35.98 22.75,36 z" id="p3247" style="fill:#140a02;fill-opacity:0.7;fill-rule:evenodd;stroke:none;display:inline"/>
<path d="M 17.59,39.48 C 19.43,37.92 21.21,37.06 22.4,36.86 C 23.3,36.71 24.26,36.82 25.03,37.14 C 25.89,37.5 29.22,38.14 29.86,38.63 C 30.5,39.13 30.64,39.7 30.64,39.7" id="p3348" style="fill:none;fill-rule:evenodd;stroke:#ff902e;stroke-width:0.40;stroke-linecap:round;stroke-linejoin:miter;stroke-miterlimit:4;stroke-dasharray:none;stroke-opacity:0.61;display:inline"/>
<path d="M 22.28,38 C 21.86,38.03 21.54,38.11 21.31,38.21 C 20.38,38.64 18.21,39.63 17.65,40.06 C 17.39,40.26 16.38,40.64 15.5,41.12 C 16.07,41.61 16.68,42.02 17.34,42.4 C 17.5,42.12 17.68,41.85 17.96,41.59 C 18.76,40.85 20.13,40.24 20.75,39.68 C 21.36,39.13 21.84,38.71 22.21,38.71 C 22.58,38.71 24.94,38.53 25.37,38.59 C 25.8,38.65 28.06,40 28.06,40.62 C 28.06,41.24 27.65,41.78 27.65,41.78 C 27.65,41.78 28.22,42.56 28.9,42.78 C 28.91,42.78 28.92,42.77 28.93,42.78 C 29.72,42.39 30.44,41.91 31.12,41.37 C 31.13,41.26 31.08,41.15 30.9,41.15 C 30.04,41.15 29.37,41.77 29.25,41.09 C 29.12,40.41 28.5,38.96 26.71,38.46 C 25.37,38.09 23.51,37.89 22.28,38 z" id="p3249" style="fill:#df7a20;fill-opacity:0.72;fill-rule:evenodd;stroke:none;display:inline"/>
<path d="M 13.78,31.31 C 13.07,31.22 12.14,32.11 11.09,32.71 C 11.47,36.75 13.74,40.21 17,42.21 C 18.57,40.1 22.49,38.4 22.09,38.4 C 21.6,38.4 20.79,38.09 19.93,37.96 C 19.07,37.84 17.49,39.14 17.06,38.71 C 16.63,38.28 18.08,36.24 17.65,36.25 C 17.22,36.25 13.86,35.94 15.15,34.34 C 16.44,32.74 20.5,33.21 18.71,32.78 C 16.93,32.35 14.76,31.43 13.78,31.31 z" id="p3253" style="fill:#8f4d12;fill-opacity:0.67;fill-rule:evenodd;stroke:none;display:inline"/>
<path d="M 11.06,30.93 C 11.05,31.12 11.03,31.31 11.03,31.5 C 11.03,34.83 12.34,37.84 14.43,40.09 C 14.48,39.55 14.49,38.97 14.43,38.43 C 14.24,36.47 12.63,34.7 11.06,30.93 z" id="p3371" style="fill:#ff881f;fill-opacity:0.6;fill-rule:evenodd;stroke:none;display:inline"/>
<path d="M 18.9,19.81 C 17.51,20.36 16.24,21.16 15.15,22.15 L 15.21,22.31 C 16.78,21.82 17.28,21.57 17.43,21.5 C 17.26,21.58 17.01,21.83 17.15,22.46 C 17.37,23.4 18.1,23.19 19.18,23.34 C 20.26,23.48 19.05,22.88 18.9,22.09 C 18.76,21.3 19.18,20.59 19.18,20.59 L 18.9,19.81 z" id="p3404" style="fill:#ffb675;fill-opacity:0.41;fill-rule:evenodd;stroke:none;display:inline"/>
<path d="M 16.22,22.19 C 14,24.06 13.21,24.63 13.38,26.33 C 13.55,28.03 16.05,31.26 18.99,32.17 C 21.94,33.08 26.76,33.08 29.37,31.72 C 31.98,30.36 30,30.13 28.86,29.56 C 27.73,29 23.59,28.14 23.59,28.14 L 23.82,30.13 C 23.82,30.13 22.79,30.36 22.34,30.47 C 21.89,30.58 21.15,30.87 21.15,30.87 C 21.15,30.87 20.24,29.85 19.45,28.83 C 18.65,27.8 15.08,27.29 16.22,26.22 C 17.35,25.14 19.56,24.91 20.7,25.08 C 21.83,25.25 22.74,25.48 22.74,25.14 C 22.74,24.8 21.21,24.69 21.26,24.34 C 21.32,24 21.77,24.12 22.91,24.12 C 24.04,24.12 25.06,23.78 25.06,23.44 C 25.06,23.1 23.99,22.7 23.99,22.7 L 24.89,22.08 L 23.08,20.43 C 23.08,20.43 21.43,21.45 21.43,21.74 C 21.43,22.02 21.38,22.87 21.38,22.87 C 21.38,22.87 22.06,22.81 22.11,23.15 C 22.17,23.49 21.04,23.66 20.07,23.15 C 19.11,22.64 17.97,23.49 17.01,23.66 C 16.05,23.83 16.61,22.93 17.35,22.13 C 18.09,21.34 17.97,21 16.22,22.19 z" id="p3383" style="fill:#733b0a;fill-opacity:0.7;fill-rule:evenodd;stroke:none;display:inline"/>
<path d="M 34.03,28.65 C 34.33,29.88 33.24,34.69 31.03,35.5 C 28.81,36.3 26.09,36.37 26.09,36.37 L 28.56,36.71 C 28.56,36.71 28.86,37.97 26.34,38.34 C 23.81,38.71 27.38,38.38 28.18,39.12 C 28.68,39.58 29.04,41.43 28.53,42.96 C 32.39,41.23 35.19,37.56 35.78,33.18 C 35.36,31.47 34.79,29.81 34.03,28.65 z" id="p3255" style="fill:#ffb16b;fill-opacity:0.51;fill-rule:evenodd;stroke:none;display:inline"/>
<path d="M 19.81,16.71 L 18.87,17.12 C 18.96,17.89 19.06,18.93 19.12,19.71 C 19.05,19.74 18.97,19.78 18.9,19.81 C 19.02,20.2 19.15,20.51 19.15,20.65 C 19.15,21.14 18.16,21.7 19.03,22.62 C 19.89,23.54 21.5,23.75 21.5,23.75 C 21.5,23.75 20.8,22.76 20.43,21.71 C 20.06,20.67 20.79,19.81 21.71,17.96 L 19.81,16.71 z" id="p3268" style="fill:#ffd7b5;fill-opacity:0.73;fill-rule:evenodd;stroke:none;display:inline"/>
<path d="M 14.09,23.25 C 13.35,24.46 13.25,25.51 13.25,26.28 C 13.25,27.45 16.2,33.27 23.4,33.09 C 30.6,32.9 33.84,28.97 33.96,27.37 C 34.02,26.65 33.93,25.5 33.71,24.37" id="p3257" style="fill:none;fill-rule:evenodd;stroke:#6e3401;stroke-width:0.40;stroke-linecap:butt;stroke-linejoin:miter;stroke-miterlimit:4;stroke-dasharray:none;stroke-opacity:0.79;display:inline"/>
<path d="M 28.62,17.56 L 24.37,19.93 C 24.37,19.93 25.9,21.35 25.96,22.03 C 26.03,22.7 25.6,23.63 24.06,24.06 C 28.31,23.32 28.56,22.02 28.56,21.78 C 28.56,21.53 28,20.54 28.31,19.5 C 28.32,19.44 28.35,19.37 28.37,19.31 L 28.62,17.56 z" id="p3264" style="fill:#ffe3c9;fill-opacity:0.51;fill-rule:evenodd;stroke:none;display:inline"/>
<path d="M 28.59,17.78 L 27.81,18 L 25.78,19.15 L 26.09,19.68 C 27.23,21.27 27.08,22.41 27.59,21.9 C 28.03,21.46 28.09,20.16 28.31,19.5 C 28.32,19.44 28.35,19.37 28.37,19.31 L 28.59,17.78 z" id="p3433" style="fill:#c77125;fill-opacity:0.6;fill-rule:evenodd;stroke:none;display:inline"/>
<path d="M 23.65,4.81 C 21.11,4.73 19.28,5.89 19.12,7.12 C 18.99,8.11 19.45,9.65 19.37,9.65 C 18.41,9.67 17.48,10.97 17.4,12.12 C 17.32,13.27 18.46,14.5 18.46,14.5 C 18.46,14.5 18.55,15.82 18.71,16.15 C 18.83,16.38 18.98,18.21 19.09,19.5 C 20.1,20.45 21.46,21.06 23.53,21.09 C 25.31,21.11 26.99,20.34 28.4,19.21 L 28.96,14.9 C 28.96,14.9 29.52,14.37 29.75,13.96 C 30.07,13.39 30.29,12.4 29.84,11.4 C 29.41,10.45 27.9,9.65 27.9,9.65 C 27.9,9.65 28.47,8.02 28.31,6.87 C 28.14,5.72 26.2,4.89 23.65,4.81 z" id="p3243" style="fill:#322a29;fill-opacity:1;fill-rule:evenodd;stroke:none;display:inline"/>
<path d="M 19.81,19.89 C 19.62,21.22 19.3,21.85 19.94,22.17 C 20.57,22.48 20.89,22.36 21.46,21.53 C 22.02,20.71 22.09,19.51 22.09,19.51 L 19.81,19.32 L 19.81,19.89 z" id="p3426" style="fill:#d66c0c;fill-opacity:0.55;fill-rule:evenodd;stroke:none;display:inline"/>
<path d="M 23.65,4.81 C 21.11,4.73 19.28,5.89 19.12,7.12 C 18.99,8.11 19.45,9.65 19.37,9.65 C 18.41,9.67 17.48,10.97 17.4,12.12 C 17.32,13.27 18.46,14.5 18.46,14.5 C 18.46,14.5 18.55,15.82 18.71,16.15 C 18.83,16.38 18.98,18.21 19.09,19.5 C 20.1,20.45 21.46,21.06 23.53,21.09 C 23.8,21.09 24.07,21.06 24.34,21.03 C 24.35,19.68 24.34,18.29 24.25,18.03 C 24.06,17.53 24.18,16.89 24.31,16.21 C 24.43,15.54 23.87,14.87 23.87,14.87 C 23.87,14.87 21.9,14.67 21.9,14.12 C 21.9,13.57 23.87,13.96 23.93,13.46 C 23.99,12.97 24.68,9.53 24.31,9.53 C 23.94,9.53 22.03,9.52 22.09,9.03 C 22.15,8.53 22.29,8.4 22.9,8.4 C 23.52,8.4 24.06,7.43 24.56,7.43 C 25.05,7.43 24.94,8.28 25.5,8.28 C 26.05,8.28 28.25,7.67 28.25,6.87 C 28.25,6.79 28.2,6.7 28.18,6.59 C 28.17,6.56 28.2,6.52 28.18,6.5 C 27.69,5.54 25.91,4.88 23.65,4.81 z" id="p3245" style="fill:#080707;fill-opacity:1;fill-rule:evenodd;stroke:none;display:inline"/>
<path d="M 23.65,4.81 C 21.11,4.73 19.28,5.89 19.12,7.12 C 18.99,8.11 19.45,9.65 19.37,9.65 C 19.25,9.65 19.14,9.67 19.03,9.71 C 19.12,10.17 19.31,10.53 19.53,10.68 C 19.86,10.92 20.28,11.06 20.28,11.06 C 20.28,11.06 20.39,9.22 20.15,8.84 C 19.91,8.46 19.62,7.5 19.81,7.21 C 20,6.93 20.87,7.26 21.15,6.93 C 21.44,6.6 20.48,7.05 20.53,6.53 C 20.56,6.1 23.45,4.76 26.96,5.5 C 26.13,5.11 24.98,4.85 23.65,4.81 z" id="p3299" style="fill:#fcd2ce;fill-opacity:0.18;fill-rule:evenodd;stroke:none;display:inline"/>
<path d="M 24.59,8.46 C 25.06,8.93 24.4,9.31 23.69,9.31 C 22.98,9.31 21.99,9.26 21.99,9.26 L 22.84,10.54 C 22.84,10.54 24.4,9.92 24.73,9.92 C 25.06,9.92 26.34,10.06 26.53,9.87 C 26.72,9.69 26.86,10.54 26.48,10.73 C 26.1,10.91 24.4,11.58 25.77,11.25 C 27.14,10.91 27.47,10.63 27.47,10.63 C 27.47,10.63 26.86,10.49 26.95,10.06 C 27.05,9.64 26.1,9.54 26.2,9.07 C 26.29,8.6 26.91,8.03 26.91,8.03 C 26.91,8.03 26.2,8.6 24.59,8.46 z" id="p3301" style="fill:#000000;fill-opacity:0.55;fill-rule:evenodd;stroke:none;display:inline"/>
<path d="M 28.37,9.93 C 28.27,10.47 28.2,10.9 28.15,11.21 C 28.06,11.78 24.91,12.62 23.96,12.53 C 23.02,12.43 20.79,12.24 19.28,10.5 C 19.37,10.5 18.59,11.11 18.59,11.68 C 18.59,12.25 21.28,13.04 22.18,13.28 C 23.08,13.51 25.72,13.39 26.34,13.25 C 26.95,13.1 27.55,13.29 27.84,13.71 C 28.12,14.14 26.81,14.62 26.81,14.9 C 26.81,15.19 27.58,14.75 28.25,14.37 C 28.66,14.13 29.5,13.44 30.09,12.75 C 30.11,12.33 30.05,11.87 29.84,11.4 C 29.56,10.78 28.85,10.24 28.37,9.93 z" id="p3305" style="fill:#000000;fill-opacity:0.76;fill-rule:evenodd;stroke:none;display:inline"/>
<path d="M 29.87,13.68 C 27.09,16.77 23.32,15.71 21.93,15.4 L 20.25,14.93 C 20.25,14.93 20.33,16.61 24.96,16.46 C 26.63,16.41 27.94,15.8 28.93,15.06 L 28.96,14.9 C 28.96,14.9 29.52,14.37 29.75,13.96 C 29.79,13.88 29.83,13.78 29.87,13.68 z" id="p3308" style="fill:#000000;fill-opacity:0.76;fill-rule:evenodd;stroke:none;display:inline"/>
<path d="M 18.5,14.9 C 18.52,15.19 18.55,15.48 18.62,15.81 C 19.97,16.66 22,17.65 24.12,17.62 C 25.97,17.6 27.65,16.78 28.84,15.96 L 28.93,15.18 C 27.21,16.4 25.26,16.87 23.96,16.87 C 22.11,16.87 20.47,16.13 18.5,14.9 z" id="p3311" style="fill:#000000;fill-opacity:0.47;fill-rule:evenodd;stroke:none;display:inline"/>
<path d="M 19.31,9.65 C 18.37,9.73 17.48,11 17.4,12.12 C 17.32,13.27 18.46,14.5 18.46,14.5 C 18.46,14.5 18.48,14.88 18.53,15.28 C 19.06,15.54 19.51,15.78 19.43,15.68 C 19.23,15.43 19.46,14.96 19.46,14.96 C 19.46,14.96 19.17,14.5 18.56,13.93 C 17.94,13.37 17.92,11.56 18.28,11.15 C 18.64,10.74 19.56,10.43 19.56,10.43 C 19.56,10.43 19.64,10.34 19.31,9.65 z" id="p3326" style="fill:#aa8e8e;fill-opacity:0.47;fill-rule:evenodd;stroke:none;display:inline"/>
<path d="M 24.25,7.66 C 23.73,8.12 23.27,8.84 23.02,8.63 C 22.76,8.43 22.6,9.3 23.48,9.4 C 24.35,9.51 25.23,9.46 25.17,9.1 C 25.12,8.74 24.15,8.48 24.15,8.48 L 25.74,8.33 C 25.74,8.33 25.58,7.35 24.25,7.66 z" id="p3328" style="fill:#aa8e8e;fill-opacity:0.47;fill-rule:evenodd;stroke:none;display:inline"/>
<path d="M 23.68,13.52 C 25.64,13.41 26,13.41 26.36,13.52 C 26.72,13.62 28,13.98 27.38,14.23 C 26.77,14.49 24.25,15.11 22.96,14.54 C 21.68,13.98 23.38,13.67 23.68,13.52 z" id="p3330" style="fill:#aa8e8e;fill-opacity:0.47;fill-rule:evenodd;stroke:none;display:inline"/>
<path d="M 13.12,26.78 C 12.31,28.78 11.4,31.09 12.12,36.62" id="p3346" style="fill:none;fill-rule:evenodd;stroke:#ff9535;stroke-width:0.40;stroke-linecap:butt;stroke-linejoin:miter;stroke-miterlimit:4;stroke-dasharray:none;stroke-opacity:0.58;display:inline"/>
<path d="M 19.05,32 C 21.6,30.3 22.57,30.41 23.82,30.41 C 25.06,30.41 26.93,31.38 28.07,31.94" id="p3390" style="fill:none;fill-rule:evenodd;stroke:#4c2808;stroke-width:0.40;stroke-linecap:butt;stroke-linejoin:miter;stroke-miterlimit:4;stroke-dasharray:none;stroke-opacity:1;display:inline"/>
<path d="M 14.92,28.97 C 16.46,28.06 16.41,27.9 17.69,29.18 C 18.97,30.46 20.3,31.15 21.37,30.94 C 22.43,30.73 23.61,30.14 24.67,30.57 C 25.74,30.99 27.18,31.53 27.18,31.53 L 27.76,30.83 C 27.76,30.83 26.48,30.3 26,30.14 C 25.52,29.98 24.83,29.77 24.83,29.77 L 25.74,29.02 C 25.74,29.02 26.91,29.18 28.03,29.66 C 29.15,30.14 30.32,31.21 30.32,31.21 C 30.32,31.21 29.47,31.79 27.82,32.27 C 26.16,32.75 24.62,33.6 20.03,32.43 C 15.45,31.26 15.29,29.45 14.92,28.97 z" id="p3401" style="fill:#4a2605;fill-opacity:0.54;fill-rule:evenodd;stroke:none;display:inline"/>
<path d="M 23.14,32.73 C 27.87,32.46 28.9,32 30.66,30.73 C 32.02,29.74 32.46,27.14 30.9,26.05" id="p3393" style="fill:none;fill-rule:evenodd;stroke:#d97216;stroke-width:0.30;stroke-linecap:round;stroke-linejoin:miter;stroke-miterlimit:4;stroke-dasharray:none;stroke-opacity:1;display:inline"/>
<path d="M 23.22,32.76 C 19.26,33.2 14.68,29.74 14.68,27.74 C 14.68,25.74 16,23.87 18.62,23.18" id="p3398" style="fill:none;fill-opacity:1;fill-rule:evenodd;stroke:#d97216;stroke-width:0.2;stroke-linecap:round;stroke-linejoin:miter;marker:none;stroke-miterlimit:4;stroke-dasharray:none;stroke-dashoffset:0;stroke-opacity:0.56;visibility:visible;display:inline;overflow:visible;enable-background:accumulate"/>
<path d="M 17.38,25.63 C 20.05,25.34 21.78,25.49 22.29,26.06 C 22.79,26.64 23.37,27.44 23.37,27.94 C 23.37,28.45 23.87,30.25 23.87,30.25 C 23.87,30.25 22.36,29.38 22,29.53 C 21.64,29.67 22.65,27.15 22.07,26.71 C 21.49,26.28 20.19,27.44 19.26,27.15 C 18.32,26.86 18.82,25.78 17.38,25.63 z" id="p3406" style="fill:#ff8f2c;fill-opacity:0.45;fill-rule:evenodd;stroke:none;display:inline"/>
<path d="M 28.81,20.15 L 28.62,20.46 C 29.25,22.17 29.67,23.12 30.31,23.25 C 30.94,23.37 31.96,23.55 32.09,23.87 C 32.22,24.19 33.25,25.64 33.25,26.71 C 33.25,27.5 33.77,26.16 33.56,24.15 C 32.34,22.44 30.71,21.07 28.81,20.15 z" id="p3435" style="fill:#bb702e;fill-opacity:0.6;fill-rule:evenodd;stroke:none;display:inline"/>
<path d="M 23.65,4.81 C 21.11,4.73 19.28,5.89 19.12,7.12 C 18.99,8.11 19.44,9.65 19.36,9.65 C 18.4,9.67 17.48,10.97 17.4,12.12 C 17.32,13.27 18.46,14.5 18.46,14.5 C 18.46,14.5 18.55,15.82 18.71,16.15 C 18.83,16.39 19.02,18.43 19.12,19.71 C 14.39,21.5 11.03,26.1 11.03,31.5 C 11.03,38.43 16.59,44.06 23.46,44.06 C 30.34,44.06 35.9,38.43 35.9,31.5 C 35.9,26.29 32.77,21.81 28.31,19.9 L 28.96,14.9 C 28.96,14.9 29.52,14.38 29.75,13.97 C 30.07,13.4 30.3,12.4 29.85,11.4 C 29.42,10.45 27.9,9.65 27.9,9.65 C 27.9,9.65 28.47,8.02 28.31,6.87 C 28.14,5.72 26.2,4.89 23.65,4.81 z" id="stroke01" style="fill:none;fill-opacity:1;fill-rule:evenodd;stroke:#201b03;stroke-width:0.5;stroke-linecap:butt;stroke-linejoin:miter;marker:none;stroke-miterlimit:4;stroke-dasharray:none;stroke-dashoffset:0;stroke-opacity:1;visibility:visible;display:inline;overflow:visible;enable-background:accumulate"/>
<path d="M 25.39,8.45 C 25.39,8.56 25.02,8.66 24.57,8.66 C 24.11,8.66 23.75,8.56 23.75,8.45 C 23.75,8.33 24.11,8.23 24.57,8.23 C 25.02,8.23 25.39,8.33 25.39,8.45 z" id="p3338" style="fill:#ffffff;fill-opacity:0.76;fill-rule:evenodd;stroke:none;marker:none;visibility:visible;display:inline;overflow:visible;enable-background:accumulate"/>
<path d="M 26.02,12.09 C 26.02,12.2 25.4,12.3 24.64,12.3 C 23.88,12.3 23.27,12.2 23.27,12.09 C 23.27,11.97 23.88,11.87 24.64,11.87 C 25.4,11.87 26.02,11.97 26.02,12.09 L 26.02,12.09 z" id="p3340" style="fill:#ffffff;fill-opacity:0.56;fill-rule:evenodd;stroke:none;marker:none;visibility:visible;display:inline;overflow:visible;enable-background:accumulate"/>
<path d="M 26.57,13.94 C 26.59,14.12 26.03,14.33 25.34,14.39 C 24.65,14.46 24.07,14.35 24.05,14.16 C 24.03,13.96 24.58,13.75 25.28,13.69 C 25.97,13.63 26.56,13.74 26.57,13.94 z" id="p3342" style="fill:#ffffff;fill-opacity:0.56;fill-rule:evenodd;stroke:none;marker:none;visibility:visible;display:inline;overflow:visible;enable-background:accumulate"/>
<path d="M 25.66,12.25 C 25.66,12.36 25.31,12.46 24.88,12.46 C 24.45,12.46 24.11,12.36 24.11,12.25 C 24.11,12.13 24.45,12.03 24.88,12.03 C 25.31,12.03 25.66,12.13 25.66,12.25 z" id="p3344" style="fill:#ffffff;fill-opacity:0.6;fill-rule:evenodd;stroke:none;marker:none;visibility:visible;display:inline;overflow:visible;enable-background:accumulate"/>
<path d="M 19.39,39.58 C 19.98,39.94 21,38.85 21,38.85 C 21,38.85 20.34,38.55 19.98,38.85 C 19.61,39.14 19.39,39.58 19.39,39.58 z" id="p3363" style="fill:#ff9130;fill-opacity:0.81;fill-rule:evenodd;stroke:none"/>
<path d="M 27.11,40.27 C 26.78,40.71 26.34,40.94 26.14,40.78 C 25.93,40.62 26.04,40.15 26.37,39.71 C 26.71,39.27 27.14,39.04 27.34,39.19 C 27.55,39.35 27.44,39.83 27.11,40.27 z" id="p3416" style="fill:#fff2e9;fill-opacity:0.56;fill-rule:evenodd;stroke:none;marker:none;visibility:visible;display:inline;overflow:visible;enable-background:accumulate"/>
<path d="M 25.76,30.43 C 25.76,30.43 25.51,31.48 25.82,31.54 C 26.13,31.61 26.25,31.48 26.25,31.05 C 26.25,30.61 25.88,30.36 25.76,30.43 z" id="p3418" style="fill:#ffffff;fill-opacity:0.91;fill-rule:evenodd;stroke:none"/>
<path d="M 18.56,20.59 C 18.7,20.7 18.66,20.99 18.47,21.24 C 18.28,21.50 18.01,21.61 17.88,21.51 C 17.73,21.40 17.77,21.11 17.96,20.86 C 18.15,20.61 18.42,20.49 18.56,20.59 L 18.56,20.59 z" id="p3420" style="fill:#ffe2c8;fill-opacity:0.75;fill-rule:evenodd;stroke:none;marker:none;visibility:visible;display:inline;overflow:visible;enable-background:accumulate"/>
<path d="M 18.21,22.36 C 18.30,22.52 18.18,22.77 17.95,22.90 C 17.70,23.03 17.45,23.00 17.35,22.83 C 17.26,22.66 17.36,22.42 17.61,22.28 C 17.84,22.15 18.11,22.19 18.21,22.36 z" id="p3422" style="fill:#ffdbbb;fill-opacity:0.79;fill-rule:evenodd;stroke:none;marker:none;visibility:visible;display:inline;overflow:visible;enable-background:accumulate"/>
<path d="M 22.26,26.24 C 22.63,26.63 22.82,27.05 22.69,27.17 C 22.56,27.29 22.16,27.07 21.79,26.68 C 21.42,26.29 21.22,25.88 21.35,25.75 C 21.48,25.63 21.89,25.85 22.26,26.24 L 22.26,26.24 z" id="p3424" style="fill:#ffa24f;fill-opacity:0.81;fill-rule:evenodd;stroke:none;marker:none;visibility:visible;display:inline;overflow:visible;enable-background:accumulate"/>
<path d="M 19.37,22.74 C 20.32,23.43 20.76,23.81 21.01,23.62 C 21.27,23.43 20.57,22.55 20.19,22.48 C 19.81,22.42 19.18,22.36 19.37,22.74 z" id="p3429" style="fill:#fff4ea;fill-opacity:0.47;fill-rule:evenodd;stroke:none"/>
<path d="M 23.8,21.72 C 23.8,22 23.69,22.23 23.57,22.23 C 23.45,22.23 23.35,22 23.35,21.72 C 23.35,21.43 23.45,21.2 23.57,21.2 C 23.69,21.2 23.8,21.43 23.8,21.72 z" id="p3431" style="fill:#fff4ea;fill-opacity:0.87;fill-rule:evenodd;stroke:none;marker:none;visibility:visible;display:inline;overflow:visible;enable-background:accumulate"/>
</g>
</svg>
