<?xml version="1.0" encoding="UTF-8" standalone="no"?>
<!DOCTYPE svg PUBLIC "-//W3C//DTD SVG 1.0//EN" "http://www.w3.org/TR/2001/REC-SVG-20010904/DTD/svg10.dtd">
<svg xmlns:svg="http://www.w3.org/2000/svg" xmlns="http://www.w3.org/2000/svg" version="1.0" width="100%" height="100%" viewBox="0 0 48 48" id="_orange12">
<defs id="defs2385"/>
<g id="orange12">
<path d="M 24.31,2.12 C 21.22,2.12 18.74,3.29 18.61,4.75 C 18.57,5.56 18.62,5.54 19.65,7 C 19.65,7 19.77,12.48 19.71,12.84 C 19.66,13.2 19.13,15.84 17.84,18.87 C 16.54,21.9 12.66,31.32 12.28,32.81 C 11.89,34.3 11.4,38.23 13,40.5 C 14.59,42.76 18.52,44.41 22,44.5 C 25.47,44.58 30.12,44.73 33.12,41.81 C 36.12,38.89 35.76,36.78 35.18,33.68 C 34.33,29.08 32.38,25.07 31.28,22.37 C 30.17,19.67 29.23,16.29 28.9,14.71 C 28.57,13.14 28.31,9.35 28.31,8.71 C 28.31,8.08 28.34,7.93 28.34,7.93 C 29.44,7.2 30.09,6.17 30.06,4.87 C 30.06,3.36 27.48,2.12 24.31,2.12 z" id="p2464" style="opacity:1;fill:#ab9770;fill-opacity:1;fill-rule:evenodd;stroke:none;marker:none;visibility:visible;display:inline;overflow:visible;enable-background:accumulate"/>
<path d="M 21.59,16.31 C 20.67,16.29 19.73,16.32 18.78,16.37 C 18.52,17.15 18.22,17.97 17.84,18.87 C 16.54,21.9 12.66,31.32 12.28,32.81 C 11.89,34.3 11.4,38.23 13,40.5 C 14.59,42.76 18.52,44.41 22,44.5 C 25.47,44.58 30.12,44.73 33.12,41.81 C 36.12,38.89 35.76,36.78 35.18,33.68 C 34.33,29.08 32.38,25.07 31.28,22.37 C 30.62,20.76 30.04,18.94 29.59,17.37 C 27.42,16.92 25.31,16.61 24.03,16.46 C 23.2,16.37 22.39,16.32 21.59,16.31 z" id="p3386" style="opacity:1;fill:#a1ccc9;fill-opacity:0.41;fill-rule:evenodd;stroke:none"/>
<path d="M 24.31,2.12 C 24.34,3.07 24.13,4.65 24.34,4.96 C 24.63,5.4 26.22,4.98 26.65,4.84 C 27.09,4.69 26.96,3.81 27.46,3.81 C 27.97,3.81 27.83,4.84 28.12,5.06 C 28.41,5.28 29.05,5.72 29.12,6.15 C 29.19,6.59 27.52,6.94 27.09,7.53 C 26.65,8.11 26.65,12.74 26.65,14.78 C 26.65,16.81 29.79,23.93 30.81,25.75 C 31.82,27.56 33.57,37.23 33.5,39.34 C 33.45,40.69 31.64,42.41 30.43,43.53 C 31.4,43.13 32.33,42.58 33.12,41.81 C 36.12,38.89 35.76,36.78 35.18,33.68 C 34.33,29.08 32.38,25.07 31.28,22.37 C 30.17,19.67 29.23,16.29 28.9,14.71 C 28.57,13.14 28.31,9.35 28.31,8.71 C 28.31,8.08 28.34,7.93 28.34,7.93 C 29.44,7.2 30.09,6.17 30.06,4.87 C 30.06,3.36 27.48,2.12 24.31,2.12 z M 22.53,2.28 C 20.32,2.62 18.73,3.58 18.62,4.75 C 18.58,5.56 18.62,5.54 19.65,7 C 19.65,7 19.77,12.48 19.71,12.84 C 19.66,13.2 19.13,15.84 17.84,18.87 C 16.54,21.9 12.66,31.32 12.28,32.81 C 11.89,34.3 11.4,38.23 13,40.5 C 13.5,41.21 14.26,41.87 15.15,42.43 C 14.99,41.26 14.34,39.53 14.25,38.62 C 14.1,37.17 18.52,25.68 19.68,23.21 C 20.85,20.74 20.26,20.89 20.62,19.43 C 20.98,17.98 22.82,16.53 22.75,15.59 C 22.67,14.64 22.73,13.25 23.31,10.06 C 23.82,7.23 23.11,4.65 22.53,2.28 z" id="p3265" style="opacity:1;fill:#aec0bf;fill-opacity:0.7;fill-rule:evenodd;stroke:none"/>
<path d="M 24.31,2.12 C 21.22,2.12 18.76,3.29 18.62,4.75 C 18.59,5.25 18.62,5.46 18.87,5.87 C 19.41,5.35 21.72,4.93 24.5,4.93 C 27.11,4.93 29.27,5.3 29.96,5.78 C 30.03,5.49 30.07,5.18 30.06,4.87 C 30.06,3.36 27.48,2.12 24.31,2.12 z M 29.65,6.59 C 28.73,6.98 26.78,7.25 24.5,7.25 C 22.26,7.24 20.32,6.99 19.37,6.62 C 19.42,6.69 19.47,6.73 19.53,6.81 C 20.97,7.29 22.71,7.59 24.56,7.59 C 26.37,7.59 28.04,7.31 29.46,6.84 C 29.52,6.75 29.6,6.68 29.65,6.59 z" id="p3270" style="opacity:1;fill:#aec0bf;fill-opacity:0.51;fill-rule:evenodd;stroke:none;marker:none;visibility:visible;display:inline;overflow:visible;enable-background:accumulate"/>
<path d="M 19.68,10.76 L 19.73,12.23 C 19.73,12.23 22.36,11.52 23.62,11.63 C 24.87,11.74 27.06,11.96 27.61,12.34 C 28.16,12.73 28.7,13.05 28.7,13.05 L 28.7,12.01 C 28.7,12.01 25.8,10.64 24.55,10.59 C 23.18,10.54 21.54,10.76 20.99,10.76 C 20.45,10.76 19.73,10.76 19.68,10.76 z" id="p3434" style="opacity:1;fill:#a9c7c1;fill-opacity:0.41;fill-rule:evenodd;stroke:none"/>
<path d="M 19.25,6.5 C 19.88,7.61 21.96,8.43 24.5,8.43 C 27.03,8.43 29.15,7.61 29.78,6.5" id="p3278" style="fill:none;fill-opacity:1;fill-rule:evenodd;stroke:#4b4615;stroke-width:0.28;stroke-linecap:round;stroke-linejoin:miter;marker:none;stroke-miterlimit:4;stroke-dasharray:none;stroke-dashoffset:0;stroke-opacity:0.79;visibility:visible;display:inline;overflow:visible;enable-background:accumulate"/>
<path d="M 29.6,5.34 C 29.6,6.77 27.16,7.95 24.15,7.95 C 21.15,7.95 18.72,6.77 18.72,5.34 C 18.72,3.89 21.15,2.72 24.15,2.72 C 27.16,2.72 29.6,3.89 29.6,5.34 L 29.6,5.34 z" id="p3245" style="fill:none;fill-opacity:1;fill-rule:evenodd;stroke:#3a2d24;stroke-width:0.28;stroke-linecap:round;stroke-linejoin:miter;marker:none;stroke-miterlimit:4;stroke-dasharray:none;stroke-dashoffset:0;stroke-opacity:0.43;visibility:visible;display:inline;overflow:visible;enable-background:accumulate"/>
<path d="M 29.6,4.67 C 29.6,6.1 27.16,7.28 24.15,7.28 C 21.15,7.28 18.72,6.1 18.72,4.67 C 18.72,3.22 21.15,2.05 24.15,2.05 C 27.16,2.05 29.6,3.22 29.6,4.67 L 29.6,4.67 z" id="p3243" style="fill:none;fill-opacity:1;fill-rule:evenodd;stroke:#2f2c11;stroke-width:0.28;stroke-linecap:round;stroke-linejoin:miter;marker:none;stroke-miterlimit:4;stroke-dasharray:none;stroke-dashoffset:0;stroke-opacity:0.76;visibility:visible;display:inline;overflow:visible;enable-background:accumulate"/>
<path d="M 23.78,22.18 C 19.28,22.18 15.57,23.77 15.03,25.84 L 14.96,25.84 C 13.89,28.47 12.92,30.91 12.5,32.15 C 13.58,33.84 16.23,35.41 22.62,35.84 C 32.81,36.53 34.53,34.53 34.71,31.68 C 34.71,31.67 34.71,31.66 34.71,31.65 C 34.16,29.52 33.43,27.57 32.71,25.84 L 32.53,25.84 C 31.98,23.77 28.27,22.18 23.78,22.18 z" id="p3333" style="fill:#c4620b;fill-opacity:0.87;fill-rule:evenodd;stroke:none"/>
<path d="M 21.75,33.1 C 21.75,33.1 26.51,34.27 29.24,33.65 C 31.97,33.02 33.53,32.01 33.53,31.46 C 33.53,30.92 32.59,30.22 32.59,30.22 C 32.59,30.22 28.46,31.07 27.52,31.39 C 26.59,31.7 22.53,33.02 21.75,33.1 z" id="p3353" style="fill:#ffa95d;fill-opacity:0.68;fill-rule:evenodd;stroke:none"/>
<path d="M 32.6,26.37 C 32.6,28.68 28.65,30.56 23.78,30.56 C 18.9,30.56 14.96,28.68 14.96,26.37 C 14.96,24.05 18.9,22.18 23.78,22.18 C 28.65,22.18 32.6,24.05 32.6,26.37 z" id="p3288" style="fill:#ff861b;fill-opacity:0.76;fill-rule:evenodd;stroke:none;marker:none;visibility:visible;display:inline;overflow:visible;enable-background:accumulate"/>
<path d="M 14.96,25.84 C 13.68,29.01 12.48,32 12.28,32.81 C 11.89,34.3 11.4,38.23 13,40.5 C 14.59,42.76 18.52,44.41 22,44.5 C 25.47,44.58 30.12,44.73 33.12,41.81 C 36.12,38.89 35.76,36.78 35.18,33.68 C 34.64,30.75 33.64,28.1 32.71,25.84 L 32.53,25.84 C 32.57,26.01 32.59,26.19 32.59,26.37 C 32.59,28.69 28.65,30.56 23.78,30.56 C 18.91,30.56 14.96,28.69 14.96,26.37 C 14.96,26.19 14.98,26.01 15.03,25.84 L 14.96,25.84 z" id="r3290" style="fill:#cd6204;fill-opacity:0.8;fill-rule:evenodd;stroke:none;marker:none;visibility:visible;display:inline;overflow:visible;enable-background:accumulate"/>
<path d="M 19.87,36.31 C 16.39,36.38 13.92,36.79 13.87,38.71 C 13.79,39.66 15.35,40.86 17.43,41.78 C 17.37,41.87 17.34,41.96 17.34,42.06 C 17.34,42.94 20.06,43.65 23.43,43.65 C 26.8,43.65 29.53,42.94 29.53,42.06 C 29.53,42.04 29.53,42.02 29.53,42 C 31.66,41.11 33.23,39.86 33.31,38.65 C 33.46,37.35 28.86,36.31 23.62,36.31 C 22.29,36.31 21.03,36.28 19.87,36.31 z M 18.62,36.62 C 19.51,36.6 20.63,36.62 22.03,36.68 C 30.69,37.09 30.5,38.09 30.06,38.62 C 29.62,39.15 27.41,37.83 26.96,37.65 C 26.52,37.47 24.05,37.56 22.9,37.56 C 21.75,37.56 20.88,38.19 22.03,38.28 C 23.18,38.36 25.82,38.71 26,39.25 C 26.17,39.78 21.05,40.13 19.81,40.21 C 18.57,40.3 15.29,38.71 15.46,37.56 C 15.33,37.09 15.95,36.69 18.62,36.62 z" id="p3306" style="fill:#552b07;fill-opacity:0.87;fill-rule:evenodd;stroke:none;marker:none;visibility:visible;display:inline;overflow:visible;enable-background:accumulate"/>
<path d="M 14.25,37.81 C 13.69,38.42 13.41,39.63 13.43,40.96 C 13.44,40.97 13.43,40.99 13.43,41 C 13.76,41.36 14.12,41.7 14.56,42.03 C 14.52,40.53 14.52,38.38 14.93,38.62 C 15.55,38.97 14.25,37.9 14.25,37.81 z" id="p3320" style="fill:#67370d;fill-opacity:0.82;fill-rule:evenodd;stroke:none"/>
<path d="M 34.93,32.59 C 34.92,33.33 34.84,34 34.59,34.28 C 33.87,35.06 30.93,35.8 29.56,35.87 C 28.19,35.94 24.34,36.12 24.34,36.12 L 24.21,36.59 C 24.21,36.59 27.6,36.64 28.71,36.84 C 29.82,37.03 31.91,40.75 31.78,41.46 C 31.65,42.18 29.96,43.69 27.75,44.15 C 27.47,44.21 27.26,44.27 27.12,44.34 C 29.31,44.07 31.46,43.42 33.12,41.81 C 36.12,38.89 35.76,36.78 35.18,33.68 C 35.11,33.31 35.01,32.95 34.93,32.59 z" id="p3360" style="fill:#824814;fill-opacity:0.43;fill-rule:evenodd;stroke:none"/>
<path d="M 27.34,43.3 C 27.34,42.98 28.6,42.56 29.45,42.19 C 30.29,41.82 31.77,40.92 31.82,41.19 C 31.87,41.45 31.66,42.29 31.35,42.45 C 31.03,42.61 29.24,43.51 28.92,43.61 C 28.6,43.72 27.76,43.93 27.76,43.93 L 28.02,43.56 C 28.02,43.56 29.29,43.19 29.66,43.09 C 30.03,42.98 30.82,42.72 30.98,42.4 C 31.14,42.08 30.92,41.93 30.92,41.93 C 30.92,41.93 29.76,42.56 29.34,42.66 C 28.92,42.77 28.5,42.72 28.13,42.98 C 27.76,43.24 27.71,43.67 27.34,43.3 z" id="p3341" style="fill:#ffffff;fill-opacity:0.76;fill-rule:evenodd;stroke:none"/>
<path d="M 27.69,37.66 C 27.65,38.17 28.39,37.74 29.31,38.21 C 30.23,38.68 30.84,39.06 31.32,38.51 C 31.8,37.96 31.19,37.66 30.27,37.32 C 29.35,36.98 28.48,37.11 28.48,37.11 L 28.31,37.36 C 28.31,37.36 29.31,37.4 29.83,37.62 C 30.36,37.83 30.71,38.08 30.71,38.08 L 30.49,38.3 C 30.49,38.3 29.83,38 28.96,37.79 C 28.09,37.57 27.69,37.49 27.69,37.66 z" id="p3343" style="fill:#ffffff;fill-opacity:0.56;fill-rule:evenodd;stroke:none"/>
<path d="M 14.96,25.84 C 13.68,29.01 12.48,32 12.28,32.81 C 11.91,34.24 11.43,37.92 12.81,40.21 C 12.83,38.2 13.14,37.09 14.18,36.78 C 15.74,36.31 20.58,36.15 21.75,36.15 C 22.91,36.15 18.15,35.67 17.06,35.12 C 15.97,34.57 16.46,34.59 16.46,34.59 C 16.46,34.59 22.61,33.17 23.93,32.46 C 25.26,31.76 30.65,30.85 31.59,30 C 31.97,29.65 32.74,28.73 33.43,27.71 C 33.19,27.07 32.96,26.43 32.71,25.84 L 32.53,25.84 C 32.57,26.01 32.59,26.19 32.59,26.37 C 32.59,28.69 28.65,30.56 23.78,30.56 C 18.91,30.56 14.96,28.69 14.96,26.37 C 14.96,26.19 14.98,26.01 15.03,25.84 L 14.96,25.84 z" id="p3355" style="fill:#a0530f;fill-opacity:0.68;fill-rule:evenodd;stroke:none"/>
<path d="M 16.58,34.99 L 16.41,34.44 C 16.41,34.44 25.11,32.02 26.99,31.3 C 28.86,30.59 29.19,29.76 30.02,29.65 C 30.84,29.54 31.73,29.38 31.73,29.38 C 31.73,29.38 30.02,30.09 29.63,30.37 C 29.25,30.64 29.85,30.26 31.45,30.15 C 33.05,30.04 32.77,30.48 33.16,30.15 C 33.54,29.82 33.54,29.38 33.49,29.1 C 33.43,28.82 33.76,29.6 33.65,29.93 C 33.54,30.26 32.61,30.59 32.61,30.59 C 32.61,30.59 30.51,30.53 28.97,31.3 C 27.43,32.07 25.22,32.52 24.07,32.74 C 22.91,32.96 16.52,34.88 16.58,34.99 z" id="p3345" style="fill:#ffc591;fill-opacity:0.76;fill-rule:evenodd;stroke:none"/>
<path d="M 16.69,34.66 C 16.69,34.66 19.39,35.88 23.24,35.88 C 27.1,35.88 29.14,35.55 29.14,35.55" id="p3347" style="fill:none;fill-rule:evenodd;stroke:#ffbf86;stroke-width:0.30;stroke-linecap:butt;stroke-linejoin:miter;stroke-miterlimit:4;stroke-dasharray:none;stroke-opacity:0.92"/>
<path d="M 21.97,25.74 C 22.6,26.76 21.06,27.61 20.55,28.12 C 20.04,28.63 21.18,27.72 22.43,28.46 C 23.67,29.2 24.02,29.82 24.02,29.82 C 24.02,29.82 24.81,28.97 25.72,28.86 C 26.63,28.74 27.48,28.46 28.05,28.74 C 28.61,29.03 26.46,26.7 26.97,26.36 C 27.48,26.02 30.6,25.39 30.72,25.96 C 30.83,26.53 30.32,28.01 30.77,27.04 C 31.23,26.08 31.4,22.67 24.36,22.56 C 17.31,22.44 17.2,24.77 17.37,24.94 C 17.54,25.11 17.88,25.68 17.88,25.68 C 17.88,25.68 16.92,23.41 20.27,23.46 C 23.62,23.52 22.03,25.79 21.97,25.74 z" id="p3349" style="fill:#ffa555;fill-opacity:0.75;fill-rule:evenodd;stroke:none"/>
<path d="M 14.96,25.84 C 13.9,28.45 12.93,30.87 12.5,32.12 C 12.69,32.9 12.93,33.37 12.93,33.37 C 12.93,33.37 13.57,31.72 15.21,31.03 C 16.86,30.34 17.96,29.83 18.71,29.96 C 18.81,29.98 18.85,29.93 18.87,29.84 C 16.51,29.09 14.96,27.82 14.96,26.37 C 14.96,26.19 14.98,26.01 15.03,25.84 L 14.96,25.84 z" id="p3365" style="fill:#ff9434;fill-opacity:0.54;fill-rule:evenodd;stroke:none"/>
<path d="M 12.06,33.84 C 11.79,35.56 11.7,38.29 12.78,40.15 C 13.3,39.68 13.5,38.32 13.18,36.68 C 12.96,35.52 12.53,34.51 12.06,33.84 z" id="p3370" style="fill:#683509;fill-opacity:0.56;fill-rule:evenodd;stroke:none;marker:none;visibility:visible;display:inline;overflow:visible;enable-background:accumulate"/>
<path d="M 35.34,34.68 C 34.74,35.21 34.15,35.93 33.65,36.81 C 32.43,38.95 32.22,41.13 33.18,41.75 C 35.79,39.18 35.77,37.24 35.34,34.68 z" id="p3375" style="fill:#6b3709;fill-opacity:0.45;fill-rule:evenodd;stroke:none;marker:none;visibility:visible;display:inline;overflow:visible;enable-background:accumulate"/>
<path d="M 34.04,38.18 C 34.04,38.34 33.95,38.47 33.86,38.47 C 33.76,38.47 33.68,38.34 33.68,38.18 C 33.68,38.01 33.76,37.88 33.86,37.88 C 33.95,37.88 34.04,38.01 34.04,38.18 z" id="p3380" style="fill:#ffe5cd;fill-opacity:0.87;fill-rule:evenodd;stroke:none;marker:none;visibility:visible;display:inline;overflow:visible;enable-background:accumulate"/>
<path d="M 32.87,35.82 C 32.87,35.93 32.66,36.02 32.4,36.02 C 32.14,36.02 31.94,35.93 31.94,35.82 C 31.94,35.7 32.14,35.61 32.4,35.61 C 32.66,35.61 32.87,35.7 32.87,35.82 z" id="p3382" style="fill:#ffb97b;fill-opacity:0.81;fill-rule:evenodd;stroke:none;marker:none;visibility:visible;display:inline;overflow:visible;enable-background:accumulate"/>
<path d="M 33.14,36.8 C 33.14,36.89 33.04,36.97 32.92,36.97 C 32.8,36.97 32.71,36.89 32.71,36.8 C 32.71,36.7 32.8,36.62 32.92,36.62 C 33.04,36.62 33.14,36.7 33.14,36.8 z" id="p3384" style="fill:#ffd2a9;fill-opacity:0.92;fill-rule:evenodd;stroke:none;marker:none;visibility:visible;display:inline;overflow:visible;enable-background:accumulate"/>
<path d="M 17.71,23.31 C 16.01,24.07 14.96,25.17 14.96,26.37 C 14.96,27.37 15.7,28.27 16.93,29 C 16.93,28.96 16.94,28.94 16.93,28.9 C 16.71,27.06 19.7,24.88 24.09,25.15 C 28.48,25.42 30.82,27.7 30.78,28.78 C 30.77,28.82 30.78,28.86 30.78,28.9 C 31.91,28.19 32.59,27.33 32.59,26.37 C 32.59,25.16 31.52,24.07 29.81,23.31 C 29.82,23.6 29.82,23.87 29.87,23.93 C 30,24.11 32.57,28 30.06,26.12 C 27.55,24.24 24.86,24.12 22.84,24.03 C 20.82,23.94 20.57,24.79 19.81,25.15 C 19.05,25.51 17.74,25.63 17.25,24.78 C 16.96,24.29 17.34,23.72 17.71,23.31 z" id="p3391" style="fill:#894305;fill-opacity:0.55;fill-rule:evenodd;stroke:none"/>
<path d="M 26.38,31.47 C 26.5,31.95 27.72,31.69 28.84,31.36 C 29.96,31.02 31.33,30.76 31.19,30.39 C 31.04,30.02 29.06,30.2 28.06,30.61 C 27.05,31.02 26.27,31.13 26.38,31.47 z" id="p3396" style="fill:#ff9333;fill-opacity:0.9;fill-rule:evenodd;stroke:none"/>
<path d="M 15.17,31.22 C 15.17,31.22 15.59,30.25 16.42,30.25 C 17.25,30.25 18.71,29.98 18.71,29.98 C 18.71,29.98 16.32,28.69 15.41,29.63 C 14.51,30.57 15.21,31.26 15.17,31.22 z" id="p3398" style="fill:#ffa85b;fill-opacity:0.86;fill-rule:evenodd;stroke:none"/>
<path d="M 24.66,25.37 C 24.66,25.71 24.56,25.99 24.45,25.99 C 24.34,25.99 24.25,25.71 24.25,25.37 C 24.25,25.02 24.34,24.74 24.45,24.74 C 24.56,24.74 24.66,25.02 24.66,25.37 z" id="p3400" style="fill:#ffd5af;fill-opacity:0.75;fill-rule:evenodd;stroke:none;marker:none;visibility:visible;display:inline;overflow:visible;enable-background:accumulate"/>
<path d="M 24.83,33.29 C 24.83,33.46 24.7,33.6 24.54,33.6 C 24.37,33.6 24.25,33.46 24.25,33.29 C 24.25,33.11 24.37,32.97 24.54,32.97 C 24.7,32.97 24.83,33.11 24.83,33.29 z" id="p3402" style="fill:#955822;fill-opacity:0.72;fill-rule:evenodd;stroke:none;marker:none;visibility:visible;display:inline;overflow:visible;enable-background:accumulate"/>
<path d="M 16.85,40.12 C 16.85,40.24 16.63,40.34 16.36,40.34 C 16.08,40.34 15.87,40.24 15.87,40.12 C 15.87,39.99 16.08,39.9 16.36,39.9 C 16.63,39.9 16.85,39.99 16.85,40.12 z" id="p3404" style="fill:#ffae65;fill-opacity:0.8;fill-rule:evenodd;stroke:none;marker:none;visibility:visible;display:inline;overflow:visible;enable-background:accumulate"/>
<path d="M 15.05,29.67 C 15.05,29.85 14.98,30 14.9,30 C 14.82,30 14.76,29.85 14.76,29.67 C 14.76,29.48 14.82,29.33 14.9,29.33 C 14.98,29.33 15.05,29.48 15.05,29.67 L 15.05,29.67 z" id="p3406" style="fill:#ffd8b4;fill-opacity:0.8;fill-rule:evenodd;stroke:none;marker:none;visibility:visible;display:inline;overflow:visible;enable-background:accumulate"/>
<path d="M 15.13,32.12 C 15.13,32.32 15.02,32.48 14.9,32.48 C 14.78,32.48 14.68,32.32 14.68,32.12 C 14.68,31.91 14.78,31.75 14.9,31.75 C 15.02,31.75 15.13,31.91 15.13,32.12 L 15.13,32.12 z" id="p3408" style="fill:#ffc087;fill-opacity:0.61;fill-rule:evenodd;stroke:none;marker:none;visibility:visible;display:inline;overflow:visible;enable-background:accumulate"/>
<path d="M 32.6,26.37 C 32.6,28.68 28.65,30.56 23.78,30.56 C 18.9,30.56 14.96,28.68 14.96,26.37 C 14.96,24.05 18.9,22.18 23.78,22.18 C 28.65,22.18 32.6,24.05 32.6,26.37 z" id="p3301" style="fill:none;fill-opacity:0.76;fill-rule:evenodd;stroke:#723703;stroke-width:0.30;stroke-linecap:round;stroke-linejoin:miter;marker:none;stroke-miterlimit:4;stroke-dasharray:none;stroke-dashoffset:0;stroke-opacity:0.12;visibility:visible;display:inline;overflow:visible;enable-background:accumulate"/>
<path d="M 18.51,38 L 20.18,38.47 L 21.31,27.68 L 20.11,27.48" id="p3327" style="fill:none;fill-rule:evenodd;stroke:#ffffff;stroke-width:0.40;stroke-linecap:round;stroke-linejoin:miter;stroke-miterlimit:4;stroke-dasharray:none;stroke-opacity:0.76"/>
<path d="M 25.78,38.6 L 25.18,28.74" id="p3329" style="fill:none;fill-rule:evenodd;stroke:#ffffff;stroke-width:0.40;stroke-linecap:round;stroke-linejoin:miter;stroke-miterlimit:4;stroke-dasharray:none;stroke-opacity:0.79"/>
<path d="M 29.31,31.41 C 29.31,31.41 28.04,32.07 27.31,32.21 C 26.58,32.34 25.44,32.41 25.44,32.41 L 25.58,35.2 C 25.58,35.2 26.51,35.2 27.77,34.87 C 29.04,34.54 30.04,33.81 30.04,33.81 L 29.31,31.41 z" id="p3331" style="fill:#ffffff;fill-opacity:0.8;fill-rule:evenodd;stroke:none"/>
<path d="M 21.34,37.28 L 22.15,37.28 L 22.09,37.54 L 21.54,37.54 L 21.49,37.75 C 21.52,37.75 21.54,37.74 21.57,37.74 C 21.59,37.73 21.62,37.73 21.65,37.73 C 21.8,37.73 21.91,37.77 21.98,37.86 C 22.04,37.94 22.06,38.06 22.02,38.2 C 21.98,38.35 21.91,38.47 21.79,38.55 C 21.68,38.63 21.54,38.67 21.38,38.67 C 21.31,38.67 21.24,38.67 21.17,38.65 C 21.1,38.64 21.04,38.61 20.98,38.58 L 21.05,38.31 C 21.1,38.35 21.16,38.38 21.22,38.4 C 21.27,38.42 21.33,38.44 21.38,38.44 C 21.46,38.44 21.53,38.41 21.58,38.37 C 21.64,38.33 21.68,38.27 21.69,38.2 C 21.71,38.13 21.7,38.08 21.67,38.03 C 21.63,37.99 21.58,37.97 21.5,37.97 C 21.45,37.97 21.4,37.98 21.34,37.99 C 21.29,38 21.22,38.02 21.16,38.05 L 21.34,37.28 M 22.99,37.97 C 23.03,37.79 23.05,37.67 23.04,37.61 C 23.02,37.54 22.98,37.5 22.91,37.5 C 22.84,37.5 22.78,37.54 22.74,37.61 C 22.69,37.67 22.65,37.79 22.6,37.97 C 22.56,38.14 22.55,38.26 22.56,38.33 C 22.57,38.4 22.61,38.44 22.68,38.44 C 22.75,38.44 22.81,38.4 22.86,38.33 C 22.91,38.26 22.95,38.14 22.99,37.97 M 23.32,37.97 C 23.26,38.19 23.17,38.37 23.05,38.49 C 22.93,38.61 22.79,38.67 22.63,38.67 C 22.46,38.67 22.35,38.61 22.29,38.49 C 22.23,38.37 22.22,38.19 22.28,37.97 C 22.33,37.74 22.42,37.57 22.54,37.44 C 22.66,37.32 22.8,37.26 22.97,37.26 C 23.14,37.26 23.25,37.32 23.31,37.44 C 23.37,37.57 23.37,37.74 23.32,37.97" id="text3410" style="fill:#ffffff;fill-opacity:0.7;stroke:none"/>
<path d="M 25.74,29.96 L 26.01,29.92 L 26.09,28.77 L 25.81,28.9 L 25.83,28.59 L 26.12,28.46 L 26.41,28.41 L 26.3,29.86 L 26.57,29.82 L 26.54,30.13 L 25.71,30.28 L 25.74,29.96 M 27.47,29.09 C 27.49,28.87 27.48,28.71 27.46,28.63 C 27.44,28.54 27.4,28.5 27.33,28.52 C 27.27,28.53 27.22,28.58 27.18,28.68 C 27.15,28.77 27.12,28.93 27.1,29.15 C 27.09,29.38 27.09,29.53 27.11,29.62 C 27.13,29.71 27.17,29.74 27.24,29.73 C 27.31,29.72 27.36,29.67 27.39,29.57 C 27.43,29.47 27.45,29.31 27.47,29.09 M 27.77,29.04 C 27.75,29.33 27.69,29.56 27.6,29.74 C 27.5,29.91 27.37,30.02 27.22,30.04 C 27.06,30.07 26.95,30.01 26.87,29.87 C 26.8,29.72 26.78,29.51 26.8,29.21 C 26.82,28.92 26.88,28.68 26.98,28.51 C 27.07,28.33 27.2,28.23 27.36,28.2 C 27.51,28.17 27.63,28.23 27.7,28.38 C 27.77,28.52 27.8,28.74 27.77,29.04 M 28.6,28.88 C 28.62,28.66 28.62,28.51 28.59,28.42 C 28.57,28.34 28.53,28.3 28.47,28.31 C 28.4,28.32 28.35,28.38 28.31,28.47 C 28.28,28.57 28.25,28.73 28.24,28.95 C 28.22,29.17 28.22,29.33 28.24,29.42 C 28.26,29.5 28.31,29.54 28.37,29.53 C 28.44,29.52 28.49,29.46 28.52,29.37 C 28.56,29.27 28.58,29.11 28.6,28.88 M 28.91,28.83 C 28.88,29.13 28.82,29.36 28.73,29.54 C 28.63,29.71 28.5,29.81 28.35,29.84 C 28.19,29.87 28.08,29.81 28,29.67 C 27.93,29.52 27.91,29.3 27.93,29.01 C 27.95,28.71 28.01,28.48 28.11,28.3 C 28.21,28.13 28.33,28.03 28.49,28 C 28.64,27.97 28.76,28.03 28.83,28.17 C 28.9,28.32 28.93,28.54 28.91,28.83" id="text3423" style="fill:#ffedde;fill-opacity:0.8;stroke:none"/>
<path d="M 27.59,30.51 C 27.62,30.43 27.66,30.36 27.71,30.31 C 27.75,30.27 27.8,30.23 27.86,30.22 C 27.96,30.2 28.02,30.23 28.07,30.31 C 28.12,30.38 28.14,30.5 28.14,30.67 L 28.14,31.4 L 27.88,31.46 L 27.88,30.82 C 27.88,30.82 27.88,30.81 27.88,30.8 C 27.88,30.79 27.88,30.78 27.88,30.75 C 27.88,30.67 27.88,30.61 27.86,30.57 C 27.84,30.54 27.82,30.52 27.78,30.53 C 27.73,30.54 27.69,30.59 27.66,30.65 C 27.64,30.72 27.62,30.81 27.62,30.92 L 27.62,31.52 L 27.36,31.57 L 27.36,30.94 C 27.36,30.81 27.36,30.72 27.34,30.69 C 27.32,30.66 27.3,30.64 27.26,30.65 C 27.21,30.66 27.17,30.7 27.14,30.77 C 27.11,30.84 27.1,30.93 27.1,31.04 L 27.1,31.63 L 26.84,31.69 L 26.84,30.47 L 27.1,30.41 L 27.1,30.6 C 27.13,30.52 27.17,30.46 27.21,30.41 C 27.25,30.37 27.3,30.34 27.35,30.33 C 27.41,30.32 27.45,30.33 27.49,30.36 C 27.54,30.39 27.58,30.44 27.59,30.51 M 28.39,29.65 L 28.64,29.59 L 28.64,31.29 L 28.39,31.35 L 28.39,29.65" id="text3427" style="fill:#ffe4d8;fill-opacity:0.93;stroke:none"/>
<path d="M 21.71,27.78 L 21.92,27.79 L 21.99,26.89 L 21.77,26.95 L 21.79,26.7 L 22.01,26.64 L 22.24,26.65 L 22.15,27.8 L 22.36,27.81 L 22.34,28.06 L 21.69,28.03 L 21.71,27.78 M 23.07,27.39 C 23.08,27.22 23.08,27.09 23.07,27.02 C 23.05,26.95 23.02,26.91 22.96,26.91 C 22.91,26.91 22.87,26.94 22.85,27.01 C 22.82,27.08 22.8,27.2 22.78,27.38 C 22.77,27.55 22.77,27.68 22.79,27.75 C 22.81,27.82 22.84,27.86 22.89,27.86 C 22.94,27.87 22.98,27.83 23.01,27.76 C 23.04,27.69 23.06,27.57 23.07,27.39 M 23.31,27.4 C 23.29,27.63 23.25,27.81 23.17,27.93 C 23.09,28.06 22.99,28.11 22.87,28.11 C 22.75,28.1 22.66,28.04 22.6,27.91 C 22.55,27.78 22.53,27.6 22.54,27.37 C 22.56,27.14 22.61,26.96 22.68,26.84 C 22.76,26.72 22.86,26.66 22.98,26.66 C 23.1,26.67 23.19,26.74 23.25,26.86 C 23.31,26.99 23.33,27.17 23.31,27.4 M 23.96,27.43 C 23.97,27.26 23.97,27.13 23.95,27.06 C 23.94,26.99 23.9,26.95 23.85,26.95 C 23.8,26.95 23.76,26.98 23.73,27.05 C 23.71,27.12 23.69,27.24 23.67,27.42 C 23.66,27.59 23.66,27.72 23.68,27.79 C 23.69,27.86 23.73,27.9 23.78,27.9 C 23.83,27.91 23.87,27.87 23.9,27.8 C 23.92,27.73 23.94,27.61 23.96,27.43 M 24.2,27.44 C 24.18,27.67 24.13,27.85 24.06,27.97 C 23.98,28.1 23.88,28.15 23.76,28.15 C 23.64,28.14 23.55,28.08 23.49,27.95 C 23.43,27.82 23.41,27.64 23.43,27.41 C 23.45,27.18 23.5,27 23.57,26.88 C 23.65,26.76 23.75,26.7 23.87,26.7 C 23.99,26.71 24.08,26.78 24.14,26.9 C 24.2,27.03 24.22,27.21 24.2,27.44" id="p3432" style="fill:#fff6e1;fill-opacity:0.76;stroke:none;display:inline"/>
<path d="M 24.31,2.12 C 21.22,2.12 18.74,3.29 18.61,4.75 C 18.57,5.56 18.62,5.54 19.65,7 C 19.65,7 19.77,12.48 19.71,12.84 C 19.66,13.2 19.13,15.84 17.84,18.87 C 16.54,21.9 12.66,31.32 12.28,32.81 C 11.89,34.3 11.4,38.23 13,40.5 C 14.59,42.76 18.52,44.41 22,44.5 C 25.47,44.58 30.12,44.73 33.12,41.81 C 36.12,38.89 35.76,36.78 35.18,33.68 C 34.33,29.08 32.38,25.07 31.28,22.37 C 30.17,19.67 29.23,16.29 28.9,14.71 C 28.57,13.14 28.31,9.35 28.31,8.71 C 28.31,8.08 28.34,7.93 28.34,7.93 C 29.44,7.2 30.09,6.17 30.06,4.87 C 30.06,3.36 27.48,2.12 24.31,2.12 z" id="stroke01" style="fill:none;fill-opacity:1;fill-rule:evenodd;stroke:#181706;stroke-width:0.5;stroke-linecap:round;stroke-linejoin:miter;marker:none;stroke-miterlimit:4;stroke-dasharray:none;stroke-dashoffset:0;stroke-opacity:1;visibility:visible;display:inline;overflow:visible;enable-background:accumulate"/>
<path d="M 24.55,7.53 C 24.55,7.64 24.4,7.73 24.21,7.73 C 24.02,7.73 23.88,7.64 23.88,7.53 C 23.88,7.41 24.02,7.32 24.21,7.32 C 24.4,7.32 24.55,7.41 24.55,7.53 z" id="p3255" style="fill:#ffffff;fill-opacity:0.81;fill-rule:evenodd;stroke:none;marker:none;visibility:visible;display:inline;overflow:visible;enable-background:accumulate"/>
<path d="M 24.79,4.61 C 24.79,4.87 24.64,5.08 24.47,5.08 C 24.3,5.08 24.16,4.87 24.16,4.61 C 24.16,4.34 24.3,4.13 24.47,4.13 C 24.64,4.13 24.79,4.34 24.79,4.61 z" id="p3257" style="fill:#ffffff;fill-opacity:0.67;fill-rule:evenodd;stroke:none;marker:none;visibility:visible;display:inline;overflow:visible;enable-background:accumulate"/>
<path d="M 24.75,3.31 C 24.75,3.54 24.64,3.73 24.52,3.73 C 24.4,3.73 24.3,3.54 24.3,3.31 C 24.3,3.07 24.4,2.88 24.52,2.88 C 24.64,2.88 24.75,3.07 24.75,3.31 z" id="p3259" style="fill:#ffffff;fill-opacity:0.6;fill-rule:evenodd;stroke:none;marker:none;visibility:visible;display:inline;overflow:visible;enable-background:accumulate"/>
<path d="M 27.63,7.3 C 27.67,7.4 27.55,7.54 27.38,7.6 C 27.2,7.66 27.03,7.63 27,7.53 C 26.96,7.41 27.07,7.28 27.25,7.22 C 27.42,7.15 27.59,7.19 27.63,7.3 z" id="p3263" style="fill:#ffffff;fill-opacity:0.87;fill-rule:evenodd;stroke:none;marker:none;visibility:visible;display:inline;overflow:visible;enable-background:accumulate"/>
</g>
</svg>
