<?xml version="1.0" encoding="UTF-8" standalone="no"?>
<!DOCTYPE svg PUBLIC "-//W3C//DTD SVG 1.0//EN" "http://www.w3.org/TR/2001/REC-SVG-20010904/DTD/svg10.dtd">
<svg xmlns:svg="http://www.w3.org/2000/svg" xmlns="http://www.w3.org/2000/svg" version="1.0" width="100%" height="100%" viewBox="0 0 48 48" id="_purple11">
<defs id="defs2385"/>
<g id="purple11" style="opacity:1;display:inline">
<path d="M 13.48,6.97 C 13.51,5.11 17.11,5.35 17.11,5.35 C 17.11,5.35 18.82,6.47 19.48,6.46 C 20.14,6.45 22.80,5.14 23.92,5.01 C 27.24,4.63 35.45,4.68 35.49,6.77 C 35.52,8.20 34.63,7.42 34.54,8.05 C 34.45,8.68 34.17,10.54 34.20,15.75 C 34.24,20.96 33.84,36.14 33.89,37.04 C 33.94,38.29 33.16,41.26 24.60,41.21 C 14.53,41.15 14.69,38.26 14.63,37.39 C 14.59,36.52 14.58,20.68 14.64,18.09 C 14.69,15.50 14.64,9.21 14.52,8.76 C 14.41,8.30 13.56,7.80 13.48,6.97 z" id="p2464" style="opacity:1;fill:#c9d5d3;fill-opacity:1;fill-rule:evenodd;stroke:none"/>
<path d="M 35.30,7.56 C 33.89,7.81 31.52,9.06 30.17,9.14 C 28.28,9.25 20.75,9.39 19.78,9.41 C 19.85,9.40 19.74,18.91 20.49,19.21 C 21.15,19.45 30.46,19.23 34.16,20.21 C 34.18,18.49 34.20,16.83 34.19,15.75 C 34.16,10.54 34.45,8.69 34.54,8.07 C 34.61,7.63 35.05,7.85 35.30,7.56 z" id="p3328" style="opacity:1;fill:#dde3f7;fill-opacity:0.82;fill-rule:evenodd;stroke:none;display:inline"/>
<path d="M 21.09,18.11 C 16.52,18.14 15.07,18.70 14.65,19.69 C 14.61,23.83 14.58,36.59 14.63,37.40 C 14.68,38.27 14.53,41.16 24.61,41.22 C 33.17,41.27 33.93,38.30 33.87,37.05 C 33.83,36.32 34.08,26.51 34.16,19.93 C 33.75,18.74 31.87,18.42 24.12,18.17 C 22.99,18.14 21.98,18.11 21.09,18.11 z" id="p3243" style="opacity:1;fill:#a405a4;fill-opacity:1;fill-rule:evenodd;stroke:none"/>
<path d="M 33.98,28.84 C 32.13,31.96 26.67,31.71 24.79,31.75 C 23.15,31.78 17.52,31.24 14.60,29.81 C 14.60,33.60 14.60,36.99 14.63,37.40 C 14.68,38.27 14.53,41.16 24.61,41.22 C 33.17,41.27 33.93,38.30 33.87,37.05 C 33.85,36.62 33.91,33.02 33.98,28.84 z" id="p3310" style="opacity:1;fill:#fa6efa;fill-opacity:0.26;fill-rule:evenodd;stroke:none;display:inline"/>
<path d="M 27.29,21.37 C 28.17,22.57 28.10,29.71 27.66,32.07 C 27.23,34.42 25.90,37.27 26.34,38.07 C 26.78,38.86 30.03,38.90 30.98,38.35 C 31.93,37.80 31.78,30.13 31.31,27.58 C 30.83,25.02 30.45,24.67 30.38,23.76 C 30.31,22.86 31.33,20.76 31.33,20.76 L 27.29,21.37 z" id="p3316" style="opacity:1;fill:#e77ee7;fill-opacity:0.29;fill-rule:evenodd;stroke:none;display:inline"/>
<path d="M 14.62,33.96 C 14.63,34.51 14.62,35.24 14.63,35.60 C 15.51,36.23 17.13,36.75 19.35,36.75 C 22.85,36.73 30.21,37.08 32.00,36.34 C 32.74,36.04 33.38,35.64 33.90,35.28 C 33.90,35.01 33.89,34.33 33.91,33.92 C 33.35,33.85 32.56,33.78 31.36,33.79 C 27.61,33.80 30.09,34.91 22.29,34.77 C 18.05,34.69 15.81,34.29 14.62,33.96 z" id="p3242" style="opacity:1;fill:#560d56;fill-opacity:0.46;fill-rule:evenodd;stroke:none;display:inline"/>
<path d="M 32.79,20.24 L 32.54,38.03 L 31.33,38.13 L 31.59,20.64 L 32.79,20.24 z" id="p3331" style="opacity:1;fill:#490e49;fill-opacity:0.34;fill-rule:evenodd;stroke:none;display:inline"/>
<path d="M 14.62,35.36 C 14.62,35.84 14.62,37.29 14.63,37.40 C 14.68,38.27 14.53,41.16 24.61,41.22 C 33.17,41.27 33.93,38.30 33.87,37.05 C 33.87,36.97 33.88,35.96 33.87,35.68 C 32.17,37.99 31.91,37.18 24.50,37.54 C 15.85,37.97 15.69,36.68 14.68,35.41 C 14.67,35.42 14.63,35.37 14.62,35.36 z" id="p3248" style="opacity:1;fill:#530b53;fill-opacity:1;fill-rule:evenodd;stroke:none"/>
<path d="M 24.50,37.54 C 20.54,37.63 17.33,38.33 17.35,39.14 C 17.36,39.59 18.44,40.00 20.07,40.23 C 19.64,40.39 19.32,40.58 19.06,40.78 C 20.44,41.04 22.22,41.21 24.61,41.22 C 27.80,41.24 29.88,40.83 31.28,40.26 C 30.95,40.10 30.58,39.96 30.12,39.84 C 31.21,39.57 31.90,39.22 31.89,38.85 C 31.88,38.05 28.61,37.46 24.60,37.54 C 24.56,37.54 24.54,37.54 24.50,37.54 z" id="p3253" style="opacity:1;fill:#f59bf5;fill-opacity:0.76;stroke:none"/>
<path d="M 26.51,37.72 C 26.36,38.45 26.33,38.97 26.72,39.00 C 27.10,39.04 29.07,38.79 29.19,38.49 C 29.32,38.18 28.66,37.64 26.51,37.72 z" id="p3265" style="opacity:1;fill:#e1d5e1;fill-opacity:0.9;fill-rule:evenodd;stroke:none"/>
<path d="M 33.87,37.17 C 33.42,37.32 32.90,37.66 32.32,38.23 C 31.05,39.45 30.37,39.62 28.72,39.65 C 27.08,39.69 24.87,39.05 24.92,39.73 C 24.91,40.35 25.81,40.83 26.93,41.15 C 33.09,40.70 33.88,38.34 33.87,37.17 z" id="p3269" style="opacity:1;fill:#ae33ae;fill-opacity:0.56;fill-rule:evenodd;stroke:none"/>
<path d="M 32.07,37.94 C 32.38,38.66 33.13,38.20 33.00,37.84 C 32.88,37.48 32.06,37.38 32.07,37.94 z" id="p3274" style="opacity:1;fill:#f7c1f7;fill-opacity:0.7;fill-rule:evenodd;stroke:none;display:inline"/>
<path d="M 14.61,34.57 C 14.60,35.42 14.62,37.25 14.63,37.40 C 14.65,37.86 14.63,38.90 16.13,39.78 C 16.24,38.81 15.95,37.05 14.61,34.57 z" id="p3277" style="opacity:1;fill:#3d053d;fill-opacity:0.56;fill-rule:evenodd;stroke:none"/>
<path d="M 17.38,38.61 C 16.37,38.64 15.66,38.77 15.22,39.02 C 16.11,40.07 18.43,41.18 24.61,41.22 C 26.33,41.23 27.73,41.12 28.87,40.92 C 29.25,40.71 29.48,40.51 29.48,40.32 C 29.45,39.00 21.25,38.64 18.40,38.62 C 18.04,38.62 17.69,38.59 17.38,38.61 z" id="p3282" style="opacity:1;fill:#fadbfa;fill-opacity:0.47;fill-rule:evenodd;stroke:none;display:inline"/>
<path d="M 16.95,37.85 C 16.95,38.04 16.67,38.21 16.32,38.22 C 15.99,38.22 15.70,38.07 15.69,37.87 C 15.69,37.68 15.97,37.52 16.31,37.51 C 16.65,37.51 16.95,37.66 16.95,37.85 z" id="p3291" style="opacity:1;fill:#fce0fc;fill-opacity:0.85;stroke:none"/>
<path d="M 28.67,19.29 C 28.67,19.29 31.10,18.51 32.23,18.76 C 33.35,19.00 33.70,20.06 33.70,20.06 L 32.20,20.54 C 32.20,20.54 32.71,19.88 31.78,19.56 C 30.84,19.25 28.67,19.42 28.67,19.29 z" id="p3353" style="opacity:1;fill:#540e54;fill-opacity:0.56;fill-rule:evenodd;stroke:none;display:inline"/>
<path d="M 29.62,19.20 C 29.58,19.93 27.01,20.39 23.88,20.22 C 20.74,20.05 18.23,19.33 18.27,18.59 C 18.31,17.86 20.88,17.41 24.02,17.58 C 27.15,17.75 29.66,18.47 29.62,19.20 z" id="p3322" style="opacity:1;fill:#d5c9d5;fill-opacity:0.3;stroke:none;display:inline"/>
<path d="M 18.40,17.77 C 15.88,18.02 15.16,18.17 18.94,18.75 C 22.71,19.34 28.20,19.17 29.39,19.01 C 30.58,18.86 32.42,18.49 32.82,18.75 C 33.23,19.01 33.60,18.01 28.78,17.84 C 23.94,17.66 19.51,17.69 18.40,17.77 z" id="p3350" style="opacity:1;fill:#f4bff4;fill-opacity:0.47;fill-rule:evenodd;stroke:none;display:inline"/>
<path d="M 16.62,18.84 C 16.63,19.04 16.44,19.21 16.21,19.21 C 15.97,19.22 15.78,19.05 15.77,18.85 C 15.77,18.66 15.95,18.48 16.19,18.48 C 16.43,18.47 16.62,18.64 16.62,18.84 z" id="p3356" style="opacity:1;fill:#891689;fill-opacity:0.68;stroke:none;display:inline"/>
<path d="M 20.74,36.09 C 20.74,36.29 19.94,36.46 18.96,36.48 C 17.98,36.50 17.19,36.36 17.18,36.16 C 17.18,35.97 17.97,35.80 18.95,35.78 C 19.93,35.76 20.73,35.90 20.74,36.09 z" id="p3359" style="opacity:1;fill:#deccde;fill-opacity:1;stroke:none;display:inline"/>
<path d="M 21.08,19.36 L 20.76,19.86 L 21.09,19.85 L 21.08,19.36 M 21.03,19.12 L 21.35,19.11 L 21.37,19.84 L 21.54,19.84 L 21.54,20.05 L 21.37,20.05 L 21.38,20.27 L 21.10,20.27 L 21.09,20.06 L 20.58,20.07 L 20.58,19.82 L 21.03,19.12 M 22.33,19.67 C 22.33,19.53 22.31,19.42 22.29,19.36 C 22.26,19.30 22.21,19.27 22.15,19.27 C 22.08,19.27 22.04,19.30 22.01,19.36 C 21.98,19.42 21.98,19.53 21.98,19.67 C 21.98,19.82 21.99,19.92 22.02,19.98 C 22.06,20.04 22.10,20.07 22.16,20.07 C 22.22,20.06 22.27,20.03 22.30,19.97 C 22.32,19.91 22.34,19.81 22.33,19.67 M 22.63,19.66 C 22.64,19.86 22.60,20.01 22.51,20.11 C 22.44,20.22 22.32,20.27 22.17,20.27 C 22.02,20.28 21.90,20.23 21.81,20.12 C 21.73,20.02 21.69,19.88 21.68,19.68 C 21.68,19.49 21.71,19.34 21.79,19.24 C 21.88,19.13 22.00,19.08 22.15,19.08 C 22.29,19.07 22.41,19.12 22.49,19.23 C 22.59,19.32 22.63,19.47 22.63,19.66" id="text3229" style="fill:#e4e9e4;fill-opacity:0.72;stroke:none"/>
<path d="M 14.79,19.17 C 15.16,20.27 19.46,21.14 24.60,21.25 C 29.76,21.36 34.07,20.54 34.13,19.18" id="p3308" style="opacity:1;fill:none;fill-rule:evenodd;stroke:#700d70;stroke-width:0.39;stroke-linecap:round;stroke-linejoin:miter;stroke-miterlimit:4;stroke-dasharray:none;stroke-opacity:0.77"/>
<path d="M 31.46,19.88 C 31.47,20.11 31.28,20.31 31.05,20.32 C 30.82,20.32 30.62,20.13 30.62,19.90 C 30.61,19.66 30.80,19.47 31.04,19.46 C 31.26,19.46 31.46,19.64 31.46,19.88 z" id="p3302" style="opacity:1;fill:#e0e5e0;fill-opacity:0.87;stroke:none"/>
<path d="M 18.69,34.38 L 20.33,34.46" id="p3203" style="opacity:1;fill:none;fill-rule:evenodd;stroke:#f6eff6;stroke-width:0.29;stroke-linecap:round;stroke-linejoin:miter;stroke-miterlimit:4;stroke-dasharray:none;stroke-opacity:0.68"/>
<path d="M 18.60,29.84 L 20.24,29.94" id="p3205" style="opacity:1;fill:none;fill-rule:evenodd;stroke:#f6eff6;stroke-width:0.29;stroke-linecap:round;stroke-linejoin:miter;stroke-miterlimit:4;stroke-dasharray:none;stroke-opacity:0.68;display:inline"/>
<path d="M 18.71,24.76 L 20.35,24.85" id="p3207" style="opacity:1;fill:none;fill-rule:evenodd;stroke:#f6eff6;stroke-width:0.29;stroke-linecap:round;stroke-linejoin:miter;stroke-miterlimit:4;stroke-dasharray:none;stroke-opacity:0.68;display:inline"/>
<path d="M 18.61,19.64 L 20.25,19.73" id="p3209" style="opacity:1;fill:none;fill-rule:evenodd;stroke:#f6eff6;stroke-width:0.29;stroke-linecap:round;stroke-linejoin:miter;stroke-miterlimit:4;stroke-dasharray:none;stroke-opacity:0.68;display:inline"/>
<path d="M 20.82,34.62 L 21.07,34.62 L 21.06,33.87 L 20.79,33.94 L 20.79,33.73 L 21.06,33.68 L 21.34,33.67 L 21.36,34.61 L 21.62,34.60 L 21.62,34.81 L 20.82,34.83 L 20.82,34.62 M 22.45,34.22 C 22.45,34.07 22.43,33.97 22.41,33.92 C 22.38,33.86 22.33,33.83 22.27,33.83 C 22.20,33.83 22.16,33.86 22.13,33.92 C 22.10,33.98 22.09,34.08 22.10,34.23 C 22.10,34.38 22.11,34.48 22.14,34.54 C 22.17,34.59 22.21,34.62 22.28,34.62 C 22.34,34.62 22.39,34.59 22.42,34.53 C 22.44,34.47 22.46,34.37 22.45,34.22 M 22.75,34.22 C 22.75,34.40 22.72,34.55 22.63,34.66 C 22.55,34.76 22.44,34.82 22.29,34.82 C 22.14,34.82 22.02,34.78 21.93,34.68 C 21.85,34.57 21.80,34.42 21.80,34.23 C 21.80,34.05 21.83,33.90 21.91,33.79 C 22.00,33.69 22.11,33.63 22.26,33.63 C 22.41,33.63 22.53,33.68 22.61,33.77 C 22.70,33.88 22.75,34.03 22.75,34.22" id="text3217" style="fill:#e4e9e4;fill-opacity:0.72;stroke:none"/>
<path d="M 20.93,30.06 L 21.43,30.05 L 21.43,30.27 L 20.59,30.29 L 20.59,30.07 L 21.01,29.69 C 21.05,29.65 21.07,29.62 21.08,29.59 C 21.10,29.56 21.11,29.52 21.11,29.49 C 21.11,29.44 21.09,29.40 21.05,29.36 C 21.02,29.33 20.97,29.31 20.91,29.31 C 20.86,29.31 20.81,29.32 20.75,29.34 C 20.70,29.36 20.64,29.39 20.59,29.44 L 20.58,29.19 C 20.64,29.17 20.71,29.15 20.78,29.13 C 20.84,29.12 20.91,29.11 20.97,29.11 C 21.10,29.11 21.21,29.14 21.29,29.19 C 21.37,29.25 21.41,29.34 21.41,29.45 C 21.41,29.51 21.39,29.57 21.36,29.63 C 21.33,29.68 21.27,29.75 21.17,29.85 L 20.93,30.06 M 22.28,29.68 C 22.28,29.54 22.27,29.43 22.24,29.37 C 22.21,29.31 22.17,29.29 22.10,29.29 C 22.04,29.29 21.99,29.32 21.97,29.38 C 21.94,29.44 21.93,29.55 21.93,29.69 C 21.93,29.83 21.95,29.93 21.98,29.99 C 22.00,30.05 22.05,30.08 22.11,30.08 C 22.18,30.08 22.22,30.05 22.25,29.99 C 22.28,29.93 22.29,29.83 22.28,29.68 M 22.58,29.67 C 22.59,29.87 22.55,30.02 22.47,30.12 C 22.38,30.23 22.28,30.28 22.12,30.29 C 21.97,30.29 21.85,30.24 21.77,30.14 C 21.69,30.04 21.64,29.89 21.63,29.69 C 21.63,29.50 21.67,29.35 21.75,29.25 C 21.83,29.14 21.95,29.09 22.09,29.09 C 22.25,29.09 22.36,29.13 22.45,29.24 C 22.54,29.34 22.58,29.49 22.58,29.67" id="text3221" style="fill:#e4e9e4;fill-opacity:0.72;stroke:none"/>
<path d="M 21.30,24.60 C 21.38,24.62 21.44,24.65 21.48,24.69 C 21.52,24.74 21.55,24.81 21.55,24.88 C 21.55,25.00 21.50,25.09 21.42,25.15 C 21.34,25.21 21.21,25.24 21.04,25.25 C 20.98,25.25 20.92,25.24 20.86,25.23 C 20.80,25.22 20.74,25.21 20.68,25.19 L 20.68,24.97 C 20.74,24.99 20.79,25.01 20.85,25.02 C 20.90,25.03 20.96,25.04 21.00,25.04 C 21.08,25.04 21.14,25.03 21.18,25.00 C 21.23,24.97 21.25,24.93 21.25,24.88 C 21.25,24.83 21.23,24.79 21.18,24.76 C 21.14,24.73 21.07,24.72 20.99,24.72 L 20.87,24.73 L 20.87,24.54 L 20.99,24.53 C 21.06,24.53 21.12,24.52 21.15,24.49 C 21.19,24.47 21.21,24.43 21.21,24.38 C 21.21,24.34 21.19,24.30 21.16,24.28 C 21.12,24.27 21.07,24.25 21.00,24.25 C 20.96,24.25 20.91,24.26 20.86,24.27 C 20.81,24.28 20.76,24.30 20.71,24.32 L 20.71,24.10 C 20.77,24.08 20.83,24.07 20.89,24.06 C 20.94,24.05 21.00,24.05 21.05,24.05 C 21.20,24.05 21.31,24.06 21.39,24.11 C 21.46,24.16 21.50,24.24 21.51,24.34 C 21.51,24.40 21.49,24.46 21.46,24.50 C 21.42,24.55 21.37,24.58 21.30,24.60 M 22.39,24.62 C 22.39,24.47 22.38,24.37 22.35,24.31 C 22.32,24.25 22.27,24.22 22.21,24.22 C 22.15,24.23 22.10,24.26 22.07,24.32 C 22.04,24.38 22.03,24.47 22.04,24.62 C 22.04,24.77 22.05,24.87 22.08,24.93 C 22.11,24.99 22.16,25.02 22.22,25.02 C 22.28,25.01 22.33,24.98 22.36,24.92 C 22.39,24.86 22.40,24.76 22.39,24.62 M 22.69,24.61 C 22.69,24.81 22.66,24.95 22.57,25.06 C 22.49,25.16 22.38,25.22 22.23,25.22 C 22.08,25.23 21.96,25.17 21.88,25.07 C 21.79,24.97 21.74,24.83 21.74,24.63 C 21.74,24.44 21.77,24.29 21.86,24.19 C 21.94,24.08 22.05,24.03 22.20,24.03 C 22.35,24.02 22.47,24.07 22.55,24.18 C 22.64,24.27 22.69,24.42 22.69,24.61" id="text3225" style="fill:#e4e9e4;fill-opacity:0.72;stroke:none"/>
<path d="M 32.85,19.63 C 32.85,19.74 32.67,19.84 32.44,19.84 C 32.20,19.85 32.01,19.75 32.01,19.64 C 32.01,19.52 32.19,19.43 32.43,19.43 C 32.66,19.42 32.85,19.51 32.85,19.63 z" id="p3258" style="opacity:1;fill:#e0e5e0;fill-opacity:0.87;stroke:none;display:inline"/>
<path d="M 13.70,6.28 C 13.57,6.47 13.47,6.69 13.47,6.97 C 13.55,7.80 14.42,8.31 14.52,8.77 C 14.64,9.22 14.71,15.50 14.65,18.08 C 14.60,20.67 14.58,36.53 14.63,37.40 C 14.65,37.83 14.63,38.78 15.91,39.63 L 15.84,8.96 C 15.84,8.96 14.75,7.53 14.44,7.47 C 14.15,7.41 14.00,7.04 13.70,6.28 z" id="p3325" style="opacity:1;fill:#f3f5f5;fill-opacity:0.17;fill-rule:evenodd;stroke:none;display:inline"/>
<path d="M 26.74,40.03 C 26.75,40.55 28.46,40.55 28.84,40.41 C 29.23,40.28 28.15,40.04 26.74,40.03 z" id="p3267" style="opacity:1;fill:#f4f1f1;fill-opacity:0.9;fill-rule:evenodd;stroke:none"/>
<path d="M 20.71,39.89 C 20.72,40.11 20.04,40.30 19.19,40.32 C 18.34,40.33 17.65,40.17 17.64,39.95 C 17.64,39.73 18.33,39.54 19.17,39.53 C 20.02,39.51 20.71,39.67 20.71,39.89 z" id="p3288" style="opacity:1;fill:#fef6f6;fill-opacity:0.85;stroke:none;display:inline"/>
<path d="M 33.76,8.27 C 32.50,8.99 33.01,9.26 33.01,13.01 C 33.01,16.76 33.03,20.17 33.03,20.17 L 33.53,19.95 C 33.53,19.95 33.56,11.27 33.59,9.52 C 33.60,9.22 34.03,8.28 33.76,8.27 z" id="p3249" style="opacity:1;fill:#51607a;fill-opacity:0.46;fill-rule:evenodd;stroke:none;display:inline"/>
<path d="M 15.11,7.76 C 13.82,7.03 14.09,6.23 16.19,6.14 C 18.27,6.05 18.00,7.42 19.16,7.40 C 20.31,7.38 21.61,6.12 22.96,6.14 C 24.30,6.17 23.92,6.16 23.92,6.16" id="p3252" style="opacity:1;fill:none;fill-rule:evenodd;stroke:#3e437b;stroke-width:0.29;stroke-linecap:round;stroke-linejoin:miter;stroke-miterlimit:4;stroke-dasharray:none;stroke-opacity:0.37"/>
<path d="M 21.38,7.88 C 21.38,8.07 21.18,8.23 20.91,8.23 C 20.65,8.24 20.43,8.09 20.43,7.90 C 20.43,7.71 20.64,7.55 20.90,7.54 C 21.17,7.54 21.38,7.69 21.38,7.88 L 21.38,7.88 z" id="p3304" style="opacity:1;fill:#fefeff;fill-opacity:0.93;stroke:none"/>
<path d="M 34.33,7.47 C 34.94,7.16 35.21,6.29 32.90,5.86 C 30.58,5.42 28.33,5.51 28.33,5.51" id="p3256" style="opacity:1;fill:none;fill-rule:evenodd;stroke:#8a8fa0;stroke-width:0.29;stroke-linecap:round;stroke-linejoin:miter;stroke-miterlimit:4;stroke-dasharray:none;stroke-opacity:0.41"/>
<path d="M 13.79,6.20 C 13.61,7.35 14.39,8.51 24.85,8.35 C 35.30,8.17 35.34,6.98 35.37,6.43" id="p3240" style="opacity:1;fill:none;fill-rule:evenodd;stroke:#37444c;stroke-width:0.39;stroke-linecap:butt;stroke-linejoin:miter;stroke-miterlimit:4;stroke-dasharray:none;stroke-opacity:0.68"/>
<path d="M 21.23,18.71 L 21.22,20.93 L 22.54,21.22 C 22.54,21.22 22.66,19.00 22.55,18.73 C 22.44,18.47 21.23,18.71 21.23,18.71 z" id="p3294" style="opacity:1;fill:#edeff2;fill-opacity:0.87;fill-rule:evenodd;stroke:none"/>
<path d="M 20.67,14.13 L 21.41,14.12 L 21.42,14.34 L 20.91,14.35 L 20.92,14.52 C 20.94,14.52 20.96,14.51 20.99,14.51 C 21.01,14.51 21.03,14.50 21.05,14.50 C 21.19,14.50 21.30,14.54 21.38,14.60 C 21.46,14.67 21.51,14.77 21.51,14.90 C 21.51,15.02 21.47,15.12 21.39,15.19 C 21.31,15.27 21.19,15.30 21.03,15.30 C 20.97,15.31 20.90,15.30 20.84,15.29 C 20.77,15.28 20.71,15.26 20.64,15.23 L 20.64,15.00 C 20.71,15.03 20.77,15.06 20.82,15.08 C 20.88,15.10 20.93,15.11 20.99,15.11 C 21.06,15.11 21.12,15.08 21.15,15.04 C 21.19,15.01 21.21,14.96 21.21,14.90 C 21.21,14.84 21.19,14.80 21.15,14.76 C 21.11,14.73 21.05,14.71 20.98,14.71 C 20.93,14.71 20.89,14.72 20.84,14.73 C 20.79,14.74 20.74,14.76 20.68,14.79 L 20.67,14.13 M 22.35,14.67 C 22.34,14.54 22.32,14.44 22.29,14.38 C 22.27,14.32 22.22,14.29 22.16,14.29 C 22.09,14.29 22.05,14.32 22.02,14.38 C 21.99,14.44 21.99,14.54 21.99,14.68 C 21.99,14.83 22.00,14.94 22.04,15.00 C 22.07,15.06 22.11,15.08 22.18,15.08 C 22.23,15.08 22.28,15.05 22.30,14.99 C 22.33,14.93 22.35,14.82 22.35,14.67 M 22.64,14.68 C 22.65,14.87 22.60,15.02 22.52,15.12 C 22.45,15.23 22.33,15.28 22.18,15.28 C 22.02,15.28 21.91,15.24 21.82,15.13 C 21.74,15.03 21.70,14.88 21.69,14.70 C 21.69,14.50 21.73,14.35 21.80,14.25 C 21.89,14.14 22.00,14.09 22.16,14.08 C 22.30,14.08 22.42,14.13 22.51,14.23 C 22.59,14.33 22.64,14.48 22.64,14.68" id="text3233" style="fill:#e4e9f1;fill-opacity:0.72;stroke:none"/>
<path d="M 13.48,6.97 C 13.51,5.11 17.11,5.35 17.11,5.35 C 17.11,5.35 18.82,6.47 19.48,6.46 C 20.14,6.45 22.80,5.14 23.92,5.01 C 27.24,4.63 35.45,4.68 35.49,6.77 C 35.52,8.20 34.61,7.85 34.51,8.48 C 34.42,9.11 34.17,10.54 34.20,15.75 C 34.24,20.96 33.84,36.14 33.89,37.04 C 33.94,38.29 33.16,41.26 24.60,41.21 C 14.53,41.15 14.69,38.26 14.63,37.39 C 14.59,36.52 14.58,20.68 14.64,18.09 C 14.69,15.50 14.64,9.21 14.52,8.76 C 14.41,8.30 13.56,7.80 13.48,6.97 z" id="stroke01" style="opacity:1;fill:none;fill-opacity:0.9;fill-rule:evenodd;stroke:#07242d;stroke-width:0.5;stroke-linecap:butt;stroke-linejoin:miter;stroke-miterlimit:4;stroke-dasharray:none;stroke-opacity:1"/>
<path d="M 21.31,17.60 L 22.74,17.67 L 22.69,15.24 L 21.21,15.27 L 21.31,17.60 z" id="p3296" style="opacity:1;fill:#ebedf2;fill-opacity:0.92;fill-rule:evenodd;stroke:none"/>
<path d="M 21.01,10.35 L 21.08,11.30 L 22.14,11.38 L 22.07,10.38 L 21.01,10.35 z" id="p3298" style="opacity:1;fill:#ebedf2;fill-opacity:1;fill-rule:evenodd;stroke:none"/>
<path d="M 28.04,10.37 C 28.05,10.63 27.72,10.85 27.29,10.86 C 26.87,10.87 26.52,10.66 26.51,10.40 C 26.50,10.14 26.85,9.91 27.27,9.90 C 27.70,9.89 28.04,10.10 28.04,10.37 z" id="p3300" style="opacity:1;fill:#e5e8f3;fill-opacity:1;stroke:none"/>
<path d="M 25.58,5.99 C 25.59,6.22 25.18,6.40 24.69,6.41 C 24.19,6.42 23.78,6.26 23.78,6.03 C 23.78,5.81 24.18,5.63 24.67,5.62 C 25.17,5.61 25.58,5.78 25.58,5.99 z" id="p3306" style="opacity:1;fill:#e2e7f5;fill-opacity:0.92;stroke:none"/>
<path d="M 19.18,11.74 L 19.28,35.02" id="p3362" style="opacity:1;fill:none;fill-rule:evenodd;stroke:#ffffff;stroke-width:0.29;stroke-linecap:round;stroke-linejoin:miter;stroke-miterlimit:4;stroke-dasharray:none;stroke-opacity:0.68"/>
<path d="M 18.59,14.77 L 20.23,14.85" id="p3211" style="opacity:1;fill:none;fill-rule:evenodd;stroke:#f6efef;stroke-width:0.29;stroke-linecap:round;stroke-linejoin:miter;stroke-miterlimit:4;stroke-dasharray:none;stroke-opacity:0.68;display:inline"/>
</g>
</svg>
