<?xml version="1.0" encoding="UTF-8" standalone="no"?>
<!DOCTYPE svg PUBLIC "-//W3C//DTD SVG 1.0//EN" "http://www.w3.org/TR/2001/REC-SVG-20010904/DTD/svg10.dtd">
<svg xmlns:svg="http://www.w3.org/2000/svg" xmlns="http://www.w3.org/2000/svg" version="1.0" width="100%" height="100%" viewBox="0 0 48 48" id="_purple13">
<defs id="defs2385"/>
<g id="purple13" style="display:inline">
<path d="M 21.34,4.28 C 21.61,3.29 22.29,2.89 24.07,2.89 C 25.86,2.89 26.81,3.53 26.81,4.44 C 26.81,5.35 26.49,4.88 26.45,5.23 C 26.41,5.59 26.45,9.44 26.33,9.64 C 26.21,9.84 26.06,9.76 26.06,9.95 C 26.06,10.15 26.06,29.23 26.06,29.43 C 26.06,29.63 26.33,30.7 26.33,30.7 C 26.33,30.7 29.03,33.6 30.02,35.82 C 30.99,37.98 31.17,39.99 29.9,42.04 C 28.41,44.48 26.14,44.93 23.6,44.9 C 20.62,44.87 17.01,42.96 17.09,38.87 C 17.18,34.39 20.62,32.21 20.98,31.53 C 21.34,30.86 21.81,30.58 21.81,29.91 C 21.81,29.23 21.69,10.51 21.77,10.31 C 21.85,10.11 21.73,9.88 21.65,9.4 C 21.57,8.92 21.73,6.03 21.65,5.83 C 21.57,5.63 21.49,5.27 21.34,5 C 21.18,4.72 21.3,4.6 21.34,4.28 z" id="p2465" style="opacity:1;fill:#bfac74;fill-opacity:1;fill-rule:evenodd;stroke:none"/>
<path d="M 24.06,2.9 C 22.27,2.9 21.62,3.28 21.34,4.28 C 21.3,4.59 21.18,4.72 21.34,5 C 21.5,5.27 21.57,5.64 21.65,5.84 C 21.73,6.04 21.57,8.93 21.65,9.4 C 21.67,9.53 21.69,9.61 21.71,9.71 C 22.13,9.84 22.53,9.9 22.53,9.9 L 22.34,20.46 C 22.34,20.59 23.59,20.21 23.84,19.96 C 24.09,19.72 23.9,10.34 23.9,10.34 L 24.68,10.28 C 24.68,10.28 24.56,19.41 24.68,19.78 C 24.81,20.15 25.31,20.59 25.31,20.59 L 25.37,10.21 L 26.06,10.03 C 26.06,10.03 26.06,9.96 26.06,9.96 C 26.06,9.77 26.22,9.85 26.34,9.65 C 26.46,9.45 26.42,5.6 26.46,5.25 C 26.5,4.89 26.81,5.34 26.81,4.43 C 26.81,3.52 25.84,2.9 24.06,2.9 z" id="p3240" style="opacity:1;fill:#e1dfd1;fill-opacity:0.75;fill-rule:evenodd;stroke:none"/>
<path d="M 26.06,20.68 C 25.24,21.12 24.38,21.5 23.68,21.5 C 23.25,21.56 22.52,21.18 21.78,20.71 C 21.8,25.11 21.81,29.59 21.81,29.9 C 22.86,33.16 24.37,33.91 26.34,30.71 C 26.34,30.71 26.06,29.63 26.06,29.43 C 26.06,29.34 26.06,24.97 26.06,20.68 z" id="p3245" style="opacity:1;fill:#9a439a;fill-opacity:1;fill-rule:evenodd;stroke:none"/>
<path d="M 26.06,20.68 C 25.42,21.02 24.77,21.32 24.18,21.43 C 24.1,23.38 23.96,26.71 23.96,27.21 C 23.96,27.87 23.87,30.31 25,30.31 C 25.35,30.31 25.8,30.34 26.25,30.37 C 26.16,30.04 26.06,29.57 26.06,29.43 C 26.06,29.34 26.06,24.97 26.06,20.68 z M 21.78,20.71 C 21.8,25.11 21.81,29.59 21.81,29.9 C 21.81,29.91 21.8,29.92 21.81,29.93 C 23.4,30.12 23.31,29.56 23.31,28.06 C 23.31,26.89 23.41,23.37 23.46,21.46 C 23.03,21.42 22.41,21.11 21.78,20.71 z" id="p3255" style="opacity:1;fill:#c589c5;fill-opacity:0.27;fill-rule:evenodd;stroke:none"/>
<path d="M 21.81,29.56 C 21.81,29.58 21.81,29.89 21.81,29.9 C 21.81,30.58 21.32,30.85 20.96,31.53 C 20.61,32.2 17.18,34.38 17.09,38.87 C 17.01,42.96 20.61,44.87 23.59,44.9 C 26.13,44.93 28.41,44.49 29.9,42.06 C 31.17,40 30.99,37.97 30.03,35.81 C 29.03,33.59 26.34,30.71 26.34,30.71 C 26.34,30.71 26.23,30.28 26.15,29.9 C 25.44,30.26 24.75,30.5 23.95,30.5 C 23.17,30.53 22.33,30.13 21.81,29.56 z" id="p3250" style="opacity:1;fill:#5d065d;fill-opacity:1;fill-rule:evenodd;stroke:none"/>
<path d="M 18.17,35.88 C 17.9,37.46 18.2,38.63 18.5,39.26 C 19.04,40.41 20.19,41.34 21.12,41.39 C 22.04,41.45 22.54,42.16 23.24,41.94 C 23.95,41.72 24.88,38.22 22.26,37.63 C 19.86,37.08 18.88,35.5 19.04,35.11 C 19.21,34.73 18.55,35.17 18.17,35.88 z" id="p3292" style="opacity:1;fill:#290429;fill-opacity:0.61;fill-rule:evenodd;stroke:none"/>
<path d="M 21.18,31.21 C 21.11,31.32 21.03,31.4 20.96,31.53 C 20.87,31.71 20.52,32.03 20.09,32.46 C 20.74,32.25 21.41,32.11 21.9,32.28 C 23.14,32.69 23.08,33.1 22.43,33.34 C 21.78,33.57 20.07,34.63 20.31,35.28 C 20.54,35.92 21.55,36.94 21.9,37 C 22.25,37.05 26.26,38.56 28.09,37.03 C 28.85,36.39 29.36,35.71 29.65,35.09 C 29.41,34.66 29.14,34.23 28.84,33.81 C 28.44,34.37 27.85,35.14 26.56,35.46 C 24.2,36.05 21.31,36.46 21.31,35.81 C 21.31,35.16 22.84,34.63 24.96,34.21 C 26.51,33.91 27.6,33.36 28.15,32.9 C 27.64,32.23 27.15,31.6 26.81,31.21 C 26.1,31.75 25.02,32.47 24.21,32.43 C 23.3,32.39 21.99,31.87 21.18,31.21 z" id="p3265" style="opacity:1;fill:#bc02bc;fill-opacity:0.56;fill-rule:evenodd;stroke:none"/>
<path d="M 20.09,33.25 C 20.09,33.25 20.09,33.28 20.09,33.28 C 20.09,33.28 20.32,33.87 20.09,33.87 C 19.96,33.87 19.54,33.78 19.12,33.56 C 18.14,34.76 17.13,36.47 17.09,38.87 C 17.07,39.69 17.22,40.41 17.46,41.06 C 17.63,38.91 17.95,37.04 18.5,36.5 C 19.13,35.86 21.28,34.34 23.46,34 C 22.62,34.05 21.37,34.07 20.9,33.75 C 20.19,33.26 20.1,33.23 20.09,33.25 z" id="p3260" style="opacity:1;fill:#fe30fe;fill-opacity:0.62;fill-rule:evenodd;stroke:none"/>
<path d="M 29.15,34.31 C 28.6,35.17 27.86,35.81 26.5,36.15 C 24.61,36.62 22.01,37.32 21.71,37.56 C 21.42,37.79 20.92,38.57 20.68,38.81 C 20.45,39.04 19.62,39.17 19.62,39.46 C 19.62,39.76 22.15,40.06 23.68,40.06 C 25.21,40.06 28.99,40.57 29.87,40.21 C 30.28,40.05 30.56,39.71 30.78,39.28 C 30.83,38.14 30.56,37 30.03,35.81 C 29.81,35.32 29.49,34.82 29.15,34.31 z" id="p3270" style="opacity:1;fill:#fe30fe;fill-opacity:0.47;fill-rule:evenodd;stroke:none"/>
<path d="M 23.5,41.09 C 20.03,41.14 18.92,42.08 18.96,43.21 C 20.25,44.33 22.01,44.89 23.59,44.9 C 26.13,44.93 28.41,44.49 29.9,42.06 C 29.21,41.51 26.84,41.04 23.5,41.09 z" id="p3280" style="opacity:1;fill:#000000;fill-opacity:0.62;fill-rule:evenodd;stroke:none"/>
<path d="M 24.03,42.4 C 23.32,42.4 22.74,42.86 22.21,43.28 C 21.8,43.6 21.07,43.84 20.06,43.96 C 21.16,44.58 22.42,44.89 23.59,44.9 C 25.25,44.92 26.79,44.72 28.09,43.9 C 27.55,43.88 26.98,43.83 26.68,43.68 C 26.21,43.45 24.73,42.4 24.03,42.4 z" id="p3272" style="opacity:1;fill:#fe30fe;fill-opacity:0.22;fill-rule:evenodd;stroke:none"/>
<path d="M 19.72,40.01 C 20.6,39.43 21.92,39.39 22.46,39.31 C 23,39.23 23.42,38.46 25.31,38.73 C 27.2,39 27.78,38.93 28.51,39.66 C 29.25,40.39 27.9,40.55 24.73,40.43 C 21.57,40.32 19.87,40.62 19.72,40.01 z" id="p3285" style="opacity:1;fill:#680968;fill-opacity:0.73;fill-rule:evenodd;stroke:none"/>
<path d="M 30.65,40.25 C 30.41,40.38 29.63,40.84 28.96,40.87 C 28.19,40.91 26.73,40.38 25.18,40.31 C 23.64,40.23 21.76,40.53 20.87,40.5 C 20.07,40.46 18.98,41 17.84,41.87 C 18.25,42.58 18.82,43.13 19.46,43.59 C 19.34,43.12 19.21,42.61 19.25,42.37 C 19.32,41.87 20.24,41.38 23.06,41.15 C 25.87,40.92 28.55,41.41 29.25,41.87 C 29.45,42 29.5,42.31 29.46,42.68 C 29.62,42.49 29.76,42.29 29.9,42.06 C 30.27,41.45 30.51,40.85 30.65,40.25 z" id="p3287" style="opacity:1;fill:#e823e8;fill-opacity:0.61;fill-rule:evenodd;stroke:none"/>
<path d="M 21.46,43.40 C 21.47,43.48 21.10,43.59 20.62,43.65 C 20.14,43.71 19.74,43.69 19.73,43.61 C 19.71,43.53 20.07,43.42 20.56,43.36 C 21.03,43.30 21.44,43.32 21.46,43.40 z" id="p3304" style="opacity:1;fill:#f3b8f3;fill-opacity:0.76;fill-rule:evenodd;stroke:none;marker:none;visibility:visible;display:inline;overflow:visible;enable-background:accumulate"/>
<path d="M 28.45,43.57 C 28.45,43.65 28.05,43.73 27.57,43.73 C 27.08,43.73 26.69,43.65 26.69,43.57 C 26.69,43.48 27.08,43.41 27.57,43.41 C 28.05,43.41 28.45,43.48 28.45,43.57 L 28.45,43.57 z" id="p3306" style="opacity:1;fill:#ffd4ff;fill-opacity:0.81;fill-rule:evenodd;stroke:none;marker:none;visibility:visible;display:inline;overflow:visible;enable-background:accumulate"/>
<path d="M 20.75,40.65 C 20.32,40.58 19.89,40.68 19.47,40.78 C 19.34,40.89 19.55,41.04 19.66,40.94 C 20.01,40.86 20.38,40.77 20.75,40.85 C 20.92,40.91 21.05,41.07 21.24,41.09 C 21.59,41.17 21.95,41.05 22.31,41.07 C 22.61,41.07 22.9,41.13 23.19,41.1 C 23.39,41.06 23.26,40.72 23.11,40.88 C 23.01,40.94 22.88,40.9 22.77,40.91 C 22.43,40.89 22.1,40.86 21.77,40.91 C 21.55,40.94 21.3,40.96 21.11,40.82 C 21,40.75 20.88,40.67 20.75,40.65 z" id="p3308" style="opacity:1;fill:#ff4bff;fill-opacity:0.56;fill-rule:evenodd;stroke:none"/>
<path d="M 26.59,40.56 C 25.66,40.47 24.73,40.5 23.81,40.59 C 23.6,40.65 23.77,40.88 23.94,40.8 C 25,40.7 26.08,40.67 27.14,40.86 C 27.68,40.97 28.24,41.12 28.68,41.46 C 28.82,41.53 28.84,41.88 29,41.75 C 29.13,41.66 28.93,41.41 28.81,41.33 C 28.18,40.83 27.37,40.64 26.59,40.56 z" id="p3310" style="opacity:1;fill:#ff43ff;fill-opacity:0.76;fill-rule:evenodd;stroke:none"/>
<path d="M 21.87,34.37 C 21.36,34.51 20.69,34.89 19.99,35.31 C 19.28,35.72 18.79,35.99 18.45,36.34 C 18.06,36.75 17.86,37.59 17.71,38.32 C 17.56,39.04 17.28,39.46 17.28,39.84 C 17.28,39.92 17.31,40 17.37,40.06 C 17.45,40.14 17.29,40.32 17.39,40.28 C 17.61,39.43 17.9,38.8 17.93,38.2 C 18.07,37.52 18.18,37.14 18.65,36.59 C 18.87,36.33 19.53,35.87 20.21,35.46 C 20.89,35.06 21.65,34.72 22.03,34.62 C 23.57,34.09 24.11,33.88 21.87,34.37 z" id="p3312" style="opacity:1;fill:#df8cdf;fill-opacity:0.66;fill-rule:evenodd;stroke:none"/>
<path d="M 28.71,34.15 C 28.71,34.15 28.59,34.51 28.4,34.75 C 27.67,35.22 26.89,35.84 26.07,36.13 C 25.53,36.29 24.59,36.53 23.68,36.8 C 23.22,36.94 22.69,36.75 22.34,36.87 C 21.4,37.61 21.17,38.32 20.5,39.02 C 20.25,39.18 19.53,39.02 19.31,39.34 L 20.12,39.93 C 20.14,39.9 20.47,39.41 20.71,39.25 C 21.3,38.88 21.88,37.49 22.41,37.4 C 24.37,36.86 24.83,36.82 26.13,36.45 C 27.21,36.22 27.89,35.68 28.76,35.06 C 29.11,34.64 29.17,34.19 29.17,34.19 L 28.71,34.15 z" id="p3314" style="opacity:1;fill:#ff76ff;fill-opacity:0.45;fill-rule:evenodd;stroke:none"/>
<path d="M 24.06,2.9 C 22.27,2.9 21.62,3.28 21.34,4.28 C 21.3,4.59 21.18,4.72 21.34,5 C 21.5,5.27 21.57,5.64 21.65,5.84 C 21.73,6.04 21.57,8.93 21.65,9.4 C 21.67,9.53 21.69,9.61 21.71,9.71 C 22.13,9.84 22.53,9.9 22.53,9.9 L 22.53,10.12 C 22.93,10.24 23.4,10.31 23.9,10.31 C 24.14,10.31 24.37,10.29 24.62,10.28 L 24.68,10.28 C 24.91,10.26 25.14,10.25 25.37,10.21 L 25.4,10.21 L 26.06,10.03 C 26.06,10.03 26.06,9.96 26.06,9.96 C 26.06,9.77 26.22,9.85 26.34,9.65 C 26.46,9.45 26.42,5.6 26.46,5.25 C 26.5,4.89 26.81,5.34 26.81,4.43 C 26.81,3.52 25.84,2.9 24.06,2.9 z" id="p3371" style="opacity:1;fill:#c4c1b1;fill-opacity:0.68;fill-rule:evenodd;stroke:none"/>
<path d="M 26.46,3.62 L 26.31,3.68 C 26.31,3.68 26.25,4.28 26,4.28 C 25.74,4.28 25.31,4.46 25.25,4.46 C 25.87,4.84 25.75,5.46 25.75,5.46 L 25.75,9.15 C 25.75,9.15 25.87,9.4 25.62,9.78 C 25.46,10.01 25.44,10.14 25.43,10.21 L 26.06,10.03 C 26.06,10.03 26.06,9.96 26.06,9.96 C 26.06,9.77 26.22,9.85 26.34,9.65 C 26.46,9.45 26.42,5.6 26.46,5.25 C 26.5,4.89 26.81,5.34 26.81,4.43 C 26.81,4.12 26.68,3.85 26.46,3.62 z" id="p3401" style="opacity:1;fill:#af99af;fill-opacity:0.72;fill-rule:evenodd;stroke:none"/>
<path d="M 21.7,31.91 C 21.7,32.02 21.6,32.11 21.48,32.11 C 21.35,32.11 21.26,32.02 21.26,31.91 C 21.26,31.79 21.35,31.7 21.48,31.7 C 21.6,31.7 21.7,31.79 21.7,31.91 z" id="p3336" style="opacity:1;fill:#f64ff6;fill-opacity:0.79;fill-rule:evenodd;stroke:none;marker:none;visibility:visible;display:inline;overflow:visible;enable-background:accumulate"/>
<path d="M 24.1,32.54 C 24.1,32.65 24.01,32.75 23.9,32.75 C 23.79,32.75 23.71,32.65 23.71,32.54 C 23.71,32.42 23.79,32.32 23.9,32.32 C 24.01,32.32 24.1,32.42 24.1,32.54 z" id="p3338" style="opacity:1;fill:#fffaff;fill-opacity:0.85;fill-rule:evenodd;stroke:none;marker:none;visibility:visible;display:inline;overflow:visible;enable-background:accumulate"/>
<path d="M 24.13,33.96 C 24.13,34.14 24.02,34.28 23.88,34.28 C 23.74,34.28 23.64,34.14 23.64,33.96 C 23.64,33.77 23.74,33.63 23.88,33.63 C 24.02,33.63 24.13,33.77 24.13,33.96 z" id="p3340" style="opacity:1;fill:#fffaff;fill-opacity:0.76;fill-rule:evenodd;stroke:none;marker:none;visibility:visible;display:inline;overflow:visible;enable-background:accumulate"/>
<path d="M 23.97,37.86 C 23.97,38.07 23.87,38.24 23.76,38.24 C 23.65,38.24 23.56,38.07 23.56,37.86 C 23.56,37.64 23.65,37.47 23.76,37.47 C 23.87,37.47 23.97,37.64 23.97,37.86 z" id="p3342" style="opacity:1;fill:#fffaff;fill-opacity:0.85;fill-rule:evenodd;stroke:none;marker:none;visibility:visible;display:inline;overflow:visible;enable-background:accumulate"/>
<path d="M 23.92,38.85 C 23.92,39.02 23.86,39.16 23.79,39.16 C 23.71,39.16 23.66,39.02 23.66,38.85 C 23.66,38.67 23.71,38.53 23.79,38.53 C 23.86,38.53 23.92,38.67 23.92,38.85 z" id="p3344" style="opacity:1;fill:#fffaff;fill-opacity:0.65;fill-rule:evenodd;stroke:none;marker:none;visibility:visible;display:inline;overflow:visible;enable-background:accumulate"/>
<path d="M 24.54,37.88 C 24.54,38.01 24.46,38.12 24.37,38.12 C 24.27,38.12 24.2,38.01 24.2,37.88 C 24.2,37.74 24.27,37.63 24.37,37.63 C 24.46,37.63 24.54,37.74 24.54,37.88 z" id="p3346" style="opacity:1;fill:#ff92ff;fill-opacity:0.81;fill-rule:evenodd;stroke:none;marker:none;visibility:visible;display:inline;overflow:visible;enable-background:accumulate"/>
<path d="M 21.64,41.09 C 21.64,41.18 21.53,41.27 21.41,41.27 C 21.28,41.27 21.18,41.18 21.18,41.09 C 21.18,40.99 21.28,40.91 21.41,40.91 C 21.53,40.91 21.64,40.99 21.64,41.09 z" id="p3348" style="opacity:1;fill:#ffb3ff;fill-opacity:0.79;fill-rule:evenodd;stroke:none;marker:none;visibility:visible;display:inline;overflow:visible;enable-background:accumulate"/>
<path d="M 22.06,41.02 C 22.06,41.11 21.97,41.18 21.86,41.18 C 21.75,41.18 21.67,41.11 21.67,41.02 C 21.67,40.92 21.75,40.85 21.86,40.85 C 21.97,40.85 22.06,40.92 22.06,41.02 z" id="p3350" style="opacity:1;fill:#ff6cff;fill-opacity:0.76;fill-rule:evenodd;stroke:none;marker:none;visibility:visible;display:inline;overflow:visible;enable-background:accumulate"/>
<path d="M 20.95,40.08 C 20.95,40.2 20.82,40.31 20.67,40.31 C 20.52,40.31 20.4,40.2 20.4,40.08 C 20.4,39.95 20.52,39.84 20.67,39.84 C 20.82,39.84 20.95,39.95 20.95,40.08 L 20.95,40.08 z" id="p3352" style="opacity:1;fill:#ffcaff;fill-opacity:0.79;fill-rule:evenodd;stroke:none;marker:none;visibility:visible;display:inline;overflow:visible;enable-background:accumulate"/>
<path d="M 26.53,40.79 C 26.53,40.87 26.31,40.95 26.04,40.95 C 25.76,40.95 25.55,40.87 25.55,40.79 C 25.55,40.7 25.76,40.63 26.04,40.63 C 26.31,40.63 26.53,40.7 26.53,40.79 z" id="p3354" style="opacity:1;fill:#ff9fff;fill-opacity:0.76;fill-rule:evenodd;stroke:none;marker:none;visibility:visible;display:inline;overflow:visible;enable-background:accumulate"/>
<path d="M 27.18,33.02 C 27.21,33.11 27.03,33.25 26.79,33.35 C 26.54,33.44 26.31,33.45 26.28,33.37 C 26.25,33.28 26.42,33.14 26.67,33.04 C 26.91,32.95 27.14,32.93 27.18,33.02 z" id="p3356" style="opacity:1;fill:#ffabff;fill-opacity:0.76;fill-rule:evenodd;stroke:none;marker:none;visibility:visible;display:inline;overflow:visible;enable-background:accumulate"/>
<path d="M 26,4.78 C 26.01,4.75 26.03,4.71 26.03,4.68 C 26.03,4.27 25.12,3.93 24,3.93 C 22.87,3.93 21.93,4.27 21.93,4.68 C 21.93,4.71 21.95,4.75 21.96,4.78" id="p3394" style="opacity:1;fill:none;fill-opacity:0.68;fill-rule:evenodd;stroke:#2d242d;stroke-width:0.2;stroke-linecap:round;stroke-linejoin:miter;marker:none;stroke-miterlimit:4;stroke-dasharray:none;stroke-dashoffset:0;stroke-opacity:0.26;visibility:visible;display:inline;overflow:visible;enable-background:accumulate"/>
<path d="M 26.3,3.74 C 26.3,4.22 25.26,4.62 23.99,4.62 C 22.71,4.62 21.68,4.22 21.68,3.74 C 21.68,3.25 22.71,2.86 23.99,2.86 C 25.26,2.86 26.3,3.25 26.3,3.74 L 26.3,3.74 z" id="p3382" style="opacity:1;fill:none;fill-opacity:0.68;fill-rule:evenodd;stroke:#242124;stroke-width:0.2;stroke-linecap:round;stroke-linejoin:miter;marker:none;stroke-miterlimit:4;stroke-dasharray:none;stroke-dashoffset:0;stroke-opacity:0.61;visibility:visible;display:inline;overflow:visible;enable-background:accumulate"/>
<path d="M 21.4,4.9 C 21.54,5.37 22.65,5.75 24.03,5.75 C 25.41,5.75 26.55,5.37 26.68,4.9" id="p3388" style="opacity:1;fill:none;fill-opacity:0.68;fill-rule:evenodd;stroke:#2d242d;stroke-width:0.30;stroke-linecap:round;stroke-linejoin:miter;marker:none;stroke-miterlimit:4;stroke-dasharray:none;stroke-dashoffset:0;stroke-opacity:0.56;visibility:visible;display:inline;overflow:visible;enable-background:accumulate"/>
<path d="M 24.17,5.23 C 24.17,5.37 24.08,5.48 23.99,5.48 C 23.89,5.48 23.81,5.37 23.81,5.23 C 23.81,5.08 23.89,4.97 23.99,4.97 C 24.08,4.97 24.17,5.08 24.17,5.23 L 24.17,5.23 z" id="p3399" style="opacity:1;fill:#ffffff;fill-opacity:0.86;fill-rule:evenodd;stroke:none;marker:none;visibility:visible;display:inline;overflow:visible;enable-background:accumulate"/>
<path d="M 17.19,39.41 L 17.44,39.56 L 17.66,40.55 L 17.93,39.86 L 18.17,40.01 L 17.8,40.93 L 17.51,40.76 L 17.19,39.41 M 18.66,40.75 C 18.7,40.78 18.73,40.78 18.75,40.77 C 18.77,40.77 18.78,40.74 18.78,40.7 C 18.78,40.66 18.77,40.63 18.75,40.6 C 18.73,40.56 18.71,40.54 18.67,40.51 L 18.53,40.43 L 18.53,40.67 L 18.66,40.75 M 18.66,41.25 C 18.71,41.28 18.74,41.29 18.77,41.28 C 18.79,41.27 18.81,41.24 18.81,41.19 C 18.81,41.14 18.8,41.1 18.77,41.06 C 18.75,41.02 18.71,40.99 18.67,40.96 L 18.52,40.87 L 18.52,41.17 L 18.66,41.25 M 18.89,40.98 C 18.94,41.03 18.98,41.09 19.01,41.16 C 19.04,41.22 19.05,41.29 19.05,41.36 C 19.05,41.47 19.01,41.53 18.95,41.55 C 18.89,41.57 18.8,41.54 18.67,41.46 L 18.27,41.22 L 18.3,40.09 L 18.66,40.31 C 18.79,40.39 18.88,40.47 18.94,40.55 C 19,40.63 19.02,40.73 19.02,40.83 C 19.02,40.89 19.01,40.93 18.99,40.95 C 18.96,40.98 18.93,40.99 18.89,40.98 M 19.27,40.68 L 19.52,40.83 L 19.49,41.74 L 19.92,42 L 19.91,42.22 L 19.25,41.81 L 19.27,40.68" id="text3294" style="fill:#ffffff;fill-opacity:0.66;stroke:none"/>
<path d="M 21.68,20.54 C 22.05,21.15 22.92,21.57 23.93,21.57 C 24.84,21.57 25.64,21.24 26.06,20.73 C 25.49,20.85 24.88,20.91 24.21,20.91 C 23.27,20.91 22.4,20.77 21.68,20.54 z" id="p3364" style="opacity:1;fill:#270a27;fill-opacity:1;fill-rule:evenodd;stroke:none;marker:none;visibility:visible;display:inline;overflow:visible;enable-background:accumulate"/>
<path d="M 21.78,29.8 C 22.15,30.41 23.02,30.83 24.03,30.83 C 24.93,30.83 25.73,30.5 26.15,29.99 C 25.59,30.11 24.97,30.18 24.31,30.18 C 23.36,30.18 22.49,30.04 21.78,29.8 z" id="p3369" style="opacity:1;fill:#270a27;fill-opacity:0.47;fill-rule:evenodd;stroke:none;marker:none;visibility:visible;display:inline;overflow:visible;enable-background:accumulate"/>
<path d="M 21.34,4.28 C 21.61,3.29 22.29,2.89 24.07,2.89 C 25.86,2.89 26.81,3.53 26.81,4.44 C 26.81,5.35 26.49,4.88 26.45,5.23 C 26.41,5.59 26.45,9.44 26.33,9.64 C 26.21,9.84 26.06,9.76 26.06,9.95 C 26.06,10.15 26.06,29.23 26.06,29.43 C 26.06,29.63 26.33,30.7 26.33,30.7 C 26.33,30.7 29.03,33.6 30.02,35.82 C 30.99,37.98 31.17,39.99 29.9,42.04 C 28.41,44.48 26.14,44.93 23.6,44.9 C 20.62,44.87 17.01,42.96 17.09,38.87 C 17.18,34.39 20.62,32.21 20.98,31.53 C 21.34,30.86 21.81,30.58 21.81,29.91 C 21.81,29.23 21.69,10.51 21.77,10.31 C 21.85,10.11 21.73,9.88 21.65,9.4 C 21.57,8.92 21.73,6.03 21.65,5.83 C 21.57,5.63 21.49,5.27 21.34,5 C 21.18,4.72 21.3,4.6 21.34,4.28 z" id="stroke01" style="opacity:1;fill:none;fill-opacity:1;fill-rule:evenodd;stroke:#242124;stroke-width:0.5;stroke-linecap:butt;stroke-linejoin:miter;stroke-miterlimit:4;stroke-dasharray:none;stroke-opacity:1"/>
<path d="M 21.17,43 L 20.7,42.93 L 20.66,43.25 L 20.35,43.2 L 20.65,41.5 L 21.01,41.55 L 21.57,43.38 L 21.27,43.33 L 21.17,43 M 20.75,42.62 L 21.07,42.66 L 20.86,41.94 L 20.75,42.62 M 21.74,43.09 L 22.01,43.13 L 21.92,41.99 L 21.65,42.03 L 21.63,41.72 L 21.89,41.68 L 22.18,41.72 L 22.29,43.17 L 22.56,43.2 L 22.58,43.52 L 21.77,43.4 L 21.74,43.09 M 23.35,42.75 C 23.34,42.53 23.31,42.38 23.28,42.28 C 23.24,42.19 23.19,42.14 23.13,42.13 C 23.06,42.12 23.02,42.16 23,42.24 C 22.98,42.33 22.98,42.48 23,42.7 C 23.01,42.93 23.04,43.09 23.07,43.18 C 23.11,43.28 23.16,43.33 23.22,43.34 C 23.29,43.35 23.33,43.31 23.35,43.22 C 23.37,43.13 23.37,42.98 23.35,42.75 M 23.65,42.8 C 23.68,43.09 23.65,43.31 23.58,43.46 C 23.51,43.61 23.4,43.67 23.25,43.65 C 23.09,43.63 22.97,43.53 22.87,43.36 C 22.78,43.19 22.72,42.96 22.7,42.66 C 22.67,42.37 22.7,42.15 22.77,42 C 22.84,41.86 22.95,41.79 23.1,41.82 C 23.26,41.84 23.38,41.93 23.48,42.11 C 23.57,42.28 23.63,42.51 23.65,42.8 M 24.46,42.91 C 24.45,42.69 24.42,42.53 24.39,42.44 C 24.35,42.35 24.3,42.29 24.24,42.29 C 24.17,42.28 24.13,42.31 24.11,42.4 C 24.09,42.49 24.09,42.64 24.11,42.86 C 24.12,43.09 24.15,43.24 24.18,43.34 C 24.22,43.44 24.27,43.49 24.33,43.5 C 24.4,43.51 24.44,43.47 24.46,43.38 C 24.48,43.29 24.48,43.14 24.46,42.91 M 24.76,42.96 C 24.79,43.25 24.76,43.47 24.69,43.62 C 24.62,43.77 24.51,43.83 24.36,43.81 C 24.2,43.78 24.08,43.69 23.98,43.52 C 23.89,43.35 23.83,43.12 23.81,42.82 C 23.78,42.53 23.81,42.31 23.88,42.16 C 23.95,42.02 24.06,41.95 24.21,41.97 C 24.37,42 24.49,42.09 24.59,42.26 C 24.68,42.43 24.74,42.67 24.76,42.96" id="text3298" style="fill:#ffffff;fill-opacity:0.75;stroke:none"/>
</g>
</svg>
