<?xml version="1.0" encoding="UTF-8" standalone="no"?>
<!DOCTYPE svg PUBLIC "-//W3C//DTD SVG 1.0//EN" "http://www.w3.org/TR/2001/REC-SVG-20010904/DTD/svg10.dtd">
<svg xmlns:svg="http://www.w3.org/2000/svg" xmlns="http://www.w3.org/2000/svg" version="1.0" width="100%" height="100%" viewBox="0 0 48 48" id="_red01">
<defs id="defs2385"/>
<g id="red01" style="display:inline">
<path d="M 11.51,33.76 C 11.46,28.23 14.3,26.65 15.83,25.31 C 16.37,24.83 19.08,22 19.08,19.83 C 19.08,17.67 19.08,17.67 19.08,17.67 C 19.08,17.67 18.15,17.26 18.15,16.33 C 18.15,15.4 18.67,15.19 18.67,15.19 C 18.67,15.19 18.05,13.75 17.74,13.13 C 17.43,12.51 17.22,12 16.5,11.38 C 15.78,10.76 15.06,8.69 17.12,7.35 C 19.18,6.01 18.67,6.63 18.67,6.63 C 18.67,6.63 18.77,6.63 18.77,5.91 C 18.77,5.19 20.01,4.05 22.89,4.05 C 25.78,4.05 27.08,5.06 27.12,5.29 C 27.21,5.74 27.12,6.53 27.12,6.53 C 27.12,6.53 29.81,7.15 29.81,9 C 29.81,10.86 28.46,11.48 28.46,11.48 L 27.23,14.88 C 27.23,14.88 27.74,15.09 27.74,15.81 C 27.74,16.53 27.12,17.15 27.12,17.15 C 27.12,17.15 27.02,19.01 27.02,19.53 C 27.02,20.04 27.54,22.1 28.77,23.55 C 30.01,24.99 32.8,27.67 33.62,29.32 C 34.45,30.97 35.38,35 34.04,37.78 C 32.69,40.57 31.66,41.08 30.94,41.7 C 30.22,42.32 29.39,42.53 29.39,42.53 C 29.39,42.53 28.06,44.76 22.33,44.71 C 17.22,44.67 14.7,40.95 14.7,40.95 C 14.7,40.95 12.27,38.2 11.86,37.06 C 11.44,35.93 11.51,34.59 11.51,33.76 z" id="p2517" style="fill:#a97272;fill-opacity:1;fill-rule:evenodd;stroke:none;display:inline"/>
<path d="M 23.09,23.46 C 21.56,23.46 18.86,23.99 16.12,25.03 C 16.03,25.11 15.89,25.26 15.84,25.31 C 14.31,26.64 11.45,28.21 11.5,33.75 C 11.5,34.57 11.46,35.92 11.87,37.06 C 12.28,38.19 14.71,40.93 14.71,40.93 C 14.71,40.93 17.23,44.67 22.34,44.71 C 28.07,44.76 29.4,42.53 29.4,42.53 C 29.4,42.53 30.21,42.33 30.93,41.71 C 31.65,41.09 32.69,40.56 34.03,37.78 C 35.37,34.99 34.45,30.99 33.62,29.34 C 32.98,28.06 31.29,26.3 29.93,24.84 C 27.14,24.04 24.34,23.46 23.09,23.46 z" id="p3293" style="fill:#a00000;fill-opacity:0.93;fill-rule:evenodd;stroke:none"/>
<path d="M 18.68,30.84 C 18.12,30.84 17.63,31.4 15.87,33.25 C 14.56,34.62 13.81,36.82 13.62,39.65 C 14.16,40.31 14.71,40.93 14.71,40.93 C 14.71,40.93 17.23,44.67 22.34,44.71 C 28.07,44.76 29.4,42.53 29.4,42.53 C 29.4,42.53 30.21,42.33 30.93,41.71 C 31.56,41.17 32.45,40.69 33.56,38.71 C 33.22,37.21 31.99,35.88 31.34,35.56 C 30.54,35.16 28.77,31.33 27.96,31.09 C 27.16,30.85 24.84,31.58 23,31.5 C 21.15,31.41 19.24,30.84 18.68,30.84 z" id="p3295" style="fill:#680000;fill-opacity:0.81;fill-rule:evenodd;stroke:none"/>
<path d="M 23.09,23.46 C 21.56,23.46 18.86,23.99 16.12,25.03 C 16.01,25.13 15.9,25.25 15.84,25.31 C 15.75,25.38 15.62,25.48 15.53,25.56 C 15.4,27.28 15.71,29.05 16.84,29.5 C 18.68,30.22 20.35,30.77 20.43,31.5 C 20.51,32.22 19.64,36.31 19.96,37.59 C 20.28,38.87 20.6,41.42 20.28,42.06 C 20.1,42.4 18.81,43 17.84,43.59 C 17.99,43.67 18.15,43.73 18.31,43.81 C 18.46,43.88 18.61,43.96 18.78,44.03 C 18.79,44.03 18.8,44.02 18.81,44.03 C 19.09,44.14 19.4,44.25 19.71,44.34 C 19.72,44.34 19.74,44.34 19.75,44.34 C 19.92,44.39 20.12,44.42 20.31,44.46 C 20.39,44.48 20.47,44.51 20.56,44.53 C 20.59,44.53 20.62,44.52 20.65,44.53 C 20.88,44.57 21.1,44.63 21.34,44.65 C 21.66,44.69 21.99,44.71 22.34,44.71 C 22.71,44.72 23.04,44.7 23.37,44.68 C 23.47,43.04 23.69,39.54 23.56,38.78 C 23.4,37.81 22.76,35.96 23.56,35.56 C 24.36,35.16 24.05,35.74 25.65,35.34 C 27.25,34.94 29.97,34.21 30.37,33.65 C 30.77,33.09 28.69,31.81 29.09,30.93 C 29.49,30.05 26.59,30.44 25.87,29.96 C 25.15,29.48 26.86,29.18 27.9,28.21 C 28.56,27.61 29.56,26.54 30.21,25.15 C 30.11,25.04 30.04,24.95 29.93,24.84 C 27.14,24.04 24.34,23.46 23.09,23.46 z" id="p3297" style="fill:#9e0000;fill-opacity:0.51;fill-rule:evenodd;stroke:none"/>
<path d="M 15.15,31.55 C 16.22,32.54 16.98,33.37 18.42,33.83 C 19.87,34.29 22.31,34.82 22.31,34.82 L 22.16,35.66 C 22.16,35.66 20.1,34.97 19.26,34.74 C 18.42,34.52 18.2,34.97 18.2,34.97 C 18.2,34.97 20.1,35.66 20.86,35.81 C 21.62,35.96 24.52,36.04 24.97,36.04 C 25.43,36.04 24.67,36.5 24.67,36.5 C 24.67,36.5 19.87,36.65 18.35,35.81 C 16.83,34.97 15.91,34.21 15.91,34.21 L 16.37,33.3 C 16.37,33.3 15.61,32.92 15.23,32.46 C 14.85,32 15.15,31.62 15.15,31.55 z" id="p3429" style="fill:#f41d1d;fill-opacity:0.61;fill-rule:evenodd;stroke:none;display:inline"/>
<path d="M 15.18,41.53 C 16.8,42.59 19.14,43.61 22.53,43.56 C 25.4,43.51 27.77,43.01 29.87,42.34 C 29.88,42.34 29.89,42.34 29.9,42.34" id="p3328" style="fill:none;fill-opacity:0.62;fill-rule:evenodd;stroke:#f45647;stroke-width:0.60;stroke-linecap:round;stroke-linejoin:miter;stroke-miterlimit:4;stroke-dasharray:none;stroke-opacity:0.81;display:inline"/>
<path d="M 14.25,33.62 C 14.25,33.62 13.67,35.37 13.62,36.84 C 13.59,37.72 13.56,38.53 13.53,39.56 C 13.76,39.85 13.81,39.87 14,40.09 C 13.99,37.64 13.91,35.37 14.43,35.46 C 14.95,35.56 15.65,36.07 16.84,36.5 C 18.03,36.92 20.22,37.7 20.75,37.84 C 21.27,37.98 21.31,39.69 21.12,40.5 C 20.95,41.24 20.74,41.28 20.53,41.21 C 20.63,41.02 20.74,40.82 20.75,40.59 C 20.77,39.85 20.27,39.21 19.75,38.75 C 19.08,38.14 18.31,37.62 17.46,37.31 C 17.35,37.27 17.24,37.24 17.12,37.21 C 16.41,37.03 15.56,37.26 15.15,37.9 C 14.76,38.5 14.73,39.25 14.87,39.93 C 15.05,40.26 15.45,39.85 15.21,39.62 C 15.11,38.97 15.2,38.18 15.78,37.78 C 16.34,37.41 17.08,37.58 17.65,37.84 C 18.47,38.21 19.22,38.75 19.84,39.4 C 20.18,39.77 20.47,40.32 20.28,40.84 C 20.09,41.35 19.65,41.66 19.21,41.93 C 19.04,42.16 19.3,42.35 19.5,42.25 C 19.53,42.22 19.56,42.2 19.59,42.15 C 19.66,42.1 19.73,42.05 19.81,42 C 19.7,42.13 19.6,42.25 19.5,42.25 C 19.61,42.38 21.71,43.08 22.06,43 C 22.44,42.9 21.6,41.05 21.93,40.53 C 22.26,40 22.02,38.06 22.21,38.06 C 22.4,38.06 22.84,38.06 22.84,38.06 C 22.84,38.06 22.59,40.6 22.5,40.75 C 22.4,40.89 23.56,40.93 23.56,40.93 C 23.56,40.93 23.18,38.15 23.46,37.96 C 23.75,37.77 23.97,37.21 23.68,37.21 C 23.4,37.21 21.56,36.93 21.09,36.84 C 20.61,36.74 22.3,37.94 20.21,37.37 C 18.12,36.8 17.15,36.09 18.62,36.37 C 20.09,36.65 21.18,36.78 21.18,36.78 C 21.18,36.78 17.62,35.97 16.62,35.31 C 15.62,34.64 14.25,33.62 14.25,33.62 z" id="p3330" style="fill:#f62727;fill-opacity:0.62;fill-rule:evenodd;stroke:none;display:inline"/>
<path d="M 14.65,33.34 C 14.65,33.34 14.12,33.43 13.18,33.78 C 12.42,34.05 12.27,35.73 12.15,37.62 C 12.49,38.2 12.99,38.87 13.5,39.5 C 13.72,34.5 14.65,33.34 14.65,33.34 z" id="p3332" style="fill:#4a0000;fill-opacity:0.55;fill-rule:evenodd;stroke:none;display:inline"/>
<path d="M 30.84,36.84 C 29.44,36.86 28.08,37.74 27.46,39 C 27.07,39.78 27,40.77 27.4,41.56 C 27.32,41.72 27.25,41.84 27.25,41.84 L 27.53,41.75 C 27.55,41.78 27.56,41.83 27.59,41.87 C 27.71,42.02 27.9,42.34 28.12,42.15 C 28.31,41.93 28.04,41.79 27.9,41.62 L 28.25,41.53 C 28.25,41.53 28.52,39.54 28.98,39.08 C 29.44,38.62 30.59,39.56 30.78,39.25 C 31.11,38.68 29.83,38.17 29,38.4 C 28.16,38.63 27.88,40.52 27.65,41.06 C 27.37,40.45 27.83,39.76 28.01,39.1 C 28.68,38.09 29.59,37.31 30.78,37.25 C 31.32,37.23 31.93,37.52 32.12,38.06 C 32.25,38.39 32.22,38.75 32.15,39.09 C 32.2,39.47 32.69,39.2 32.59,38.9 C 32.69,38.21 32.42,37.43 31.78,37.09 C 31.49,36.92 31.17,36.84 30.84,36.84 z" id="p3334" style="fill:#d50e0e;fill-opacity:0.76;fill-rule:evenodd;stroke:none;display:inline"/>
<path d="M 17.12,26.25 C 18.49,27.53 20.12,27.79 20.89,27.79 C 21.66,27.79 22.68,27.02 23.54,27.02 C 24.4,27.02 23.8,27.96 25.25,27.96 C 26.71,27.96 28.42,27.87 28.76,27.02 C 29.11,26.16 26.97,24.71 26.2,25.13 C 25.42,25.56 24.31,25.82 23.71,25.73 C 23.11,25.65 22,26.33 21.31,26.16 C 20.63,25.99 20.89,25.48 19.95,25.48 C 19,25.48 17.21,26.25 17.12,26.25 z" id="p3336" style="fill:#f24f00;fill-opacity:0.45;fill-rule:evenodd;stroke:none;display:inline"/>
<path d="M 15.84,25.31 C 15.51,25.59 15.09,25.9 14.68,26.25 C 14.69,28.58 16.26,30.87 22.34,30.87 C 28.34,30.87 31.13,28.98 31.78,26.84 C 31.33,26.33 30.86,25.86 30.4,25.37 C 30.19,27.41 28.92,29.79 23.28,29.4 C 16.7,28.94 15.59,26.98 15.84,25.31 z" id="p3338" style="fill:#e82c00;fill-opacity:0.47;fill-rule:evenodd;stroke:none;display:inline"/>
<path d="M 33.34,39.03 L 32.78,34.12" id="p3340" style="fill:none;fill-rule:evenodd;stroke:#ff2c2c;stroke-width:0.5;stroke-linecap:butt;stroke-linejoin:miter;stroke-miterlimit:4;stroke-dasharray:none;stroke-opacity:0.62;display:inline"/>
<path d="M 27.26,35.66 C 27.26,35.66 26.73,34.9 27.03,34.82 C 27.33,34.74 28.48,34.29 28.48,34.29 L 28.25,33.91 L 29.39,33.45 L 27.79,31.16 C 27.79,31.16 25.89,31.47 25.89,31.62 C 25.89,31.77 26.95,33.98 26.95,33.98 L 26.34,34.21 C 26.34,34.21 24.97,32.69 24.97,32.23 C 24.97,31.77 25.89,31.16 26.27,31.01 C 26.65,30.86 28.48,30.78 28.55,30.94 C 28.63,31.09 29.32,32.08 29.62,32.61 C 29.92,33.14 30.76,34.29 30.38,34.59 C 30,34.9 28.02,35.81 27.26,35.66 z" id="p3431" style="fill:#610c0c;fill-opacity:0.73;fill-rule:evenodd;stroke:none;display:inline"/>
<path d="M 25.13,38.32 C 24.52,39.24 23.83,41.22 24.06,41.75 C 24.29,42.28 26.42,41.22 26.42,41.22 C 26.42,41.22 26.65,40.46 26.65,40.15 C 26.65,39.85 26.12,40.3 26.12,39.92 C 26.12,39.54 27.11,39.01 27.18,38.63 C 27.26,38.25 25.74,39.92 25.35,39.69 C 24.97,39.47 25.74,38.25 25.74,38.25 L 25.13,38.32 z" id="p3433" style="fill:#f41515;fill-opacity:0.57;fill-rule:evenodd;stroke:none;display:inline"/>
<path d="M 29.39,36.95 C 30.38,36.8 30.84,36.19 31.68,36.8 C 32.51,37.41 32.59,36.5 32.59,36.5 C 32.59,36.5 31.22,36.11 31.52,35.81 C 31.83,35.51 32.44,35.12 32.44,35.12 L 31.37,34.13 L 30.38,35.2 C 30.38,35.2 30.99,35.66 30.76,35.89 C 30.53,36.11 29.47,36.42 29.39,36.95 z" id="p3437" style="fill:#3b0a0a;fill-opacity:0.46;fill-rule:evenodd;stroke:none;display:inline"/>
<path d="M 33.12,30.78 C 33.11,30.79 33.12,30.83 33.12,30.87 C 33.12,31.48 32.28,32.25 32.28,32.25 C 32.28,32.25 31.89,32.6 32.81,33.59 C 33.51,34.35 33.58,36.78 33.4,38.9 C 33.6,38.57 33.82,38.21 34.03,37.78 C 34.2,37.41 34.33,37.02 34.43,36.62 C 34.32,35.59 34.18,34.61 34.18,34.28 C 34.18,33.56 33.24,30.64 33.12,30.78 z" id="p3439" style="fill:#3d0a0a;fill-opacity:0.46;fill-rule:evenodd;stroke:none;display:inline"/>
<path d="M 13.53,27.43 C 13.2,28.41 13,29.32 13,29.84 C 13,30.95 14.46,36.6 22.34,36.68 C 30.22,36.77 32.69,33.51 32.78,31.03 C 32.81,30.06 32.68,28.83 32.4,27.59" id="p3326" style="fill:none;fill-rule:evenodd;stroke:#eb3535;stroke-width:0.69;stroke-linecap:butt;stroke-linejoin:miter;stroke-miterlimit:4;stroke-dasharray:none;stroke-opacity:0.85;display:inline"/>
<path d="M 12.64,32 C 12.1,32.46 12.41,33.37 12.71,33.37 C 13.02,33.37 13.63,33.14 13.63,33.14 L 13.78,32.69 C 13.78,32.69 12.79,31.47 12.64,32 z" id="p3441" style="fill:#3b1313;fill-opacity:0.51;fill-rule:evenodd;stroke:none;display:inline"/>
<path d="M 18.27,25.27 C 20.06,24.81 21.28,25.27 22.32,25.15 C 23.36,25.04 22.95,24.52 23.59,24.57 C 24.23,24.63 24.86,24.86 25.15,25.56 C 25.44,26.25 26.02,27.87 26.54,27.81 C 27.06,27.75 26.19,25.73 26.13,25.09 C 26.08,24.46 26.42,24.81 27,25.27 C 27.58,25.73 27.23,24.46 26.89,24 C 26.54,23.53 26.02,24.46 25.27,24.29 C 24.51,24.11 23.94,23.94 23.59,23.94 C 23.24,23.94 22.84,24.52 22.32,24.29 C 21.8,24.05 20.52,23.76 20,23.88 C 19.48,24 18.04,24.29 18.04,24.69 C 18.04,25.09 18.27,25.21 18.27,25.27 z" id="p3470" style="fill:#c44034;fill-opacity:0.6;fill-rule:evenodd;stroke:none;display:inline"/>
<path d="M 15.93,25.21 C 15.9,25.25 15.86,25.29 15.84,25.31 C 14.42,26.55 11.85,27.99 11.53,32.62 C 12.17,30.72 13.25,29.12 13.81,29.03 C 14.5,28.91 16.93,29.42 16.18,28.56 C 15.43,27.69 16.99,29.21 17.75,29.21 C 18.5,29.21 18.15,27.92 17.4,27.4 C 16.88,27.04 16.21,26.17 15.93,25.21 z" id="p3473" style="fill:#fd7d7d;fill-opacity:0.43;fill-rule:evenodd;stroke:none;display:inline"/>
<path d="M 30.25,25.18 C 29.9,26.23 29.56,27.3 29.56,27.65 C 29.56,28.23 30.06,28.92 30.46,29.15 C 30.87,29.38 32.15,29.38 32.15,30.25 C 32.15,31.11 32.36,32.1 33.06,30.25 C 33.21,29.85 33.41,29.56 33.59,29.31 C 32.99,28.13 31.53,26.56 30.25,25.18 z" id="p3475" style="fill:#fe8181;fill-opacity:0.43;fill-rule:evenodd;stroke:none;display:inline"/>
<path d="M 23.99,43.54 C 23.99,43.72 23.4,43.88 22.69,43.88 C 21.97,43.88 21.39,43.72 21.39,43.54 C 21.39,43.35 21.97,43.2 22.69,43.2 C 23.4,43.2 23.99,43.35 23.99,43.54 L 23.99,43.54 z" id="p3477" style="fill:#fed8d8;fill-opacity:0.97;fill-rule:evenodd;stroke:none;marker:none;visibility:visible;display:inline;overflow:visible;enable-background:accumulate"/>
<path d="M 14.71,40.93 C 16.94,42.88 18.44,43.19 20.75,43.37" id="p3479" style="fill:none;fill-rule:evenodd;stroke:#790000;stroke-width:0.30;stroke-linecap:round;stroke-linejoin:miter;stroke-miterlimit:4;stroke-dasharray:none;stroke-opacity:0.6;display:inline"/>
<path d="M 23.92,37.32 C 24.38,38 26.57,38.15 27.63,37.62 C 28.69,37.09 31.12,36.49 30.97,36.11 C 30.81,35.73 30.36,35.5 30.36,35.5 C 30.36,35.5 27.79,36.71 26.88,36.94 C 25.97,37.17 24,36.86 23.92,37.32 z" id="p3494" style="fill:#c80303;fill-opacity:0.43;fill-rule:evenodd;stroke:none;display:inline"/>
<path d="M 21.05,30.96 C 22.64,31.34 22.18,32.09 22.94,32.02 C 23.7,31.94 24.45,31.94 24.45,31.94 C 24.45,31.94 24.68,34.67 24.98,34.67 C 25.29,34.67 27.26,33.91 27.26,33.91 L 26.73,33.76 C 26.73,33.76 25.36,32.02 25.82,31.71 C 26.27,31.41 27.71,30.65 27.86,31.11 C 28.01,31.56 29.98,33.99 29.98,33.99 L 29.38,33.99 C 29.38,33.99 28.92,33.23 28.62,33.46 C 28.32,33.68 28.47,34.29 28.47,34.29 L 25.13,35.43 C 25.13,35.43 24.3,34.67 23.7,34.67 C 23.09,34.67 22.56,35.27 22.18,35.27 C 21.8,35.27 20.44,34.52 20.44,33.91 C 20.44,33.3 19.99,32.77 20.59,32.4 C 21.2,32.02 21.73,31.71 21.05,30.96 z" id="p3496" style="fill:#fb0e0e;fill-opacity:0.38;fill-rule:evenodd;stroke:none;display:inline"/>
<path d="M 26.51,7.06 C 27.93,7.51 28.82,8.07 28.82,8.55 C 28.82,9.04 27.93,9.74 27.63,9.59 C 27.33,9.44 28.38,8.77 28.15,8.55 C 27.93,8.33 26.51,9.93 26.18,9.89 C 25.84,9.85 26.51,7.06 26.51,7.06 z" id="p3520" style="fill:#eccbcb;fill-opacity:0.81;fill-rule:evenodd;stroke:none;display:inline"/>
<path d="M 22.9,4.06 C 20.01,4.06 18.78,5.18 18.78,5.9 C 18.78,6.24 18.74,6.4 18.71,6.5 C 18.71,6.49 18.69,6.5 18.68,6.5 C 19.06,10.13 19.55,14.83 19.75,14.96 C 20,15.13 20.84,15.96 22.28,15.96 C 23.72,15.96 25.58,15.81 25.84,15.21 C 26,14.83 26.62,10.28 27.12,6.53 C 27.12,6.53 27.21,5.72 27.12,5.28 C 27.07,5.05 25.79,4.06 22.9,4.06 z" id="p3508" style="fill:#fbea90;fill-opacity:1;fill-rule:evenodd;stroke:#47400a;stroke-width:0.30;stroke-linecap:butt;stroke-linejoin:miter;stroke-miterlimit:4;stroke-dasharray:none;stroke-opacity:0.86;display:inline"/>
<path d="M 19.03,5.34 C 18.88,5.54 18.78,5.73 18.78,5.9 C 18.78,6.24 18.74,6.4 18.71,6.5 C 18.71,6.49 18.69,6.5 18.68,6.5 C 18.82,7.87 18.97,9.34 19.12,10.71 C 19.17,10.85 19.23,10.98 19.28,11.06 C 19.72,11.8 21,11.96 21.15,11.62 C 21.3,11.28 20.4,10.56 20.03,9.96 C 19.65,9.37 20.03,7.35 20.18,6.68 C 20.33,6.01 20.99,6.89 21.03,7.37 C 21.06,7.85 20.7,7.7 20.59,8.15 C 20.48,8.6 21.12,8.77 21.68,9.03 C 22.24,9.29 22.97,8.56 24.31,6.78 L 20.75,5.53 C 20.75,5.53 19.83,5.39 19.03,5.34 z" id="p3528" style="fill:#9d7f14;fill-opacity:0.36;fill-rule:evenodd;stroke:none;display:inline"/>
<path d="M 22.9,4.06 C 20.01,4.06 18.78,5.18 18.78,5.9 C 18.78,6.1 18.76,6.14 18.75,6.25 C 19.49,6.92 21.1,7.4 23.03,7.4 C 24.78,7.4 26.3,7.01 27.12,6.43 C 27.13,6.29 27.2,5.68 27.12,5.28 C 27.07,5.05 25.79,4.06 22.9,4.06 z" id="p3510" style="fill:#c5ca86;fill-opacity:1;fill-rule:evenodd;stroke:#fcf09a;stroke-width:0.2;stroke-linecap:round;stroke-linejoin:miter;marker:none;stroke-miterlimit:4;stroke-dasharray:none;stroke-dashoffset:0;stroke-opacity:0.86;visibility:visible;display:inline;overflow:visible;enable-background:accumulate"/>
<path d="M 18.49,6.61 C 18.46,6.55 18.41,6.5 17.12,7.34 C 15.06,8.68 15.77,10.75 16.5,11.37 C 16.77,11.61 16.96,11.84 17.12,12.06 C 17.3,12.15 17.52,12.25 17.65,12.31 C 18.73,12.75 20.43,13.07 21.21,13.18 C 22,13.29 25.19,13.18 25.56,13.18 C 25.88,13.18 27.43,12.61 28.15,12.31 L 28.46,11.46 C 28.46,11.46 29.17,11.16 29.56,10.28 C 29.06,10.53 28.54,10.77 28.09,11 C 27.42,11.33 26.69,10.84 26.43,10.81 C 26.17,10.77 24.4,11.38 25.56,11.31 C 26.71,11.23 27.04,11.64 26.59,11.9 C 26.14,12.16 23.67,12.57 23.56,12.9 C 23.45,13.24 22.58,12.9 21.87,12.9 C 21.16,12.9 21.04,12.5 20.78,12.5 C 20.52,12.5 18.99,11.82 19,11.56 C 19,11.3 21.04,11.37 20.75,11.37 C 20.45,11.37 19.88,11.24 19.62,11.06 C 19.36,10.87 17.85,10.02 17.4,9.87 C 16.95,9.72 16.71,9.38 16.75,8.93 C 16.78,8.49 17.46,8.04 18.65,7.67 C 18.61,7.33 18.58,6.92 18.49,6.61 z" id="p3522" style="fill:#deafaf;fill-opacity:0.92;fill-rule:evenodd;stroke:none;display:inline"/>
<path d="M 28.25,12.06 C 27.67,12.26 27,12.69 26.75,13.03 C 26.41,13.47 26.21,14.8 26.21,15.03 C 26.21,15.25 23.58,15.81 22.84,15.81 C 22.09,15.81 19.93,15.21 19.78,15.06 C 19.63,14.91 19.49,13.62 19.15,13.06 C 18.91,12.65 18.13,12.36 17.25,12.18 C 17.45,12.49 17.58,12.79 17.75,13.12 C 18.05,13.74 18.65,15.18 18.65,15.18 C 18.65,15.18 18.61,15.24 18.53,15.31 C 19.85,16.56 21.07,17.15 23.03,17.18 C 24.78,17.21 26.68,15.96 27.59,15.28 C 27.44,15 27.21,14.87 27.21,14.87 L 28.25,12.06 z" id="p3526" style="fill:#d59090;fill-opacity:0.76;fill-rule:evenodd;stroke:none;display:inline"/>
<path d="M 25.57,11.16 C 26.79,10.65 27.3,10.04 27.81,10.04 C 28.32,10.04 29.71,9.26 29.44,8.35 C 29.16,7.43 29.06,7.5 29.06,7.5" id="p3568" style="fill:none;fill-rule:evenodd;stroke:#e29b9b;stroke-width:0.30;stroke-linecap:round;stroke-linejoin:miter;stroke-miterlimit:4;stroke-dasharray:none;stroke-opacity:0.67"/>
<path d="M 27.15,17.09 C 26.43,17.39 26.18,17.59 26.18,17.59 C 26.18,17.59 26.51,18.93 26.4,19.5 C 26.29,20.06 26.03,20.81 26.03,20.81 C 26.03,20.81 26.31,21.87 26.59,22.43 C 26.87,22.99 27.46,24 27.46,24 C 27.46,24 27.08,21.86 27.25,22.37 C 27.41,22.88 28.7,25.51 29.09,25.62 C 29.48,25.73 29.38,26.46 29.15,26.46 C 28.93,26.46 29.17,27.59 29.06,27.87 C 28.95,28.15 29.21,29.33 29.78,28.37 C 30.34,27.41 30.18,26.46 30.18,26.46 C 30.18,26.46 31.3,26.91 31.25,27.31 C 31.19,27.7 31,28.23 31.34,28.62 C 31.68,29.01 32.09,29.85 32.09,30.25 C 32.09,30.64 32.25,31.08 32.25,31.53 C 32.25,31.98 33.1,30.81 32.93,29.75 C 32.86,29.3 32.83,28.68 32.78,28.06 C 31.98,27.02 31.02,25.99 30.09,25 C 30.07,25.47 30.03,26.01 29.93,26.25 C 29.76,26.64 29.43,27.57 29.43,25.81 C 29.43,25.3 28.82,24.78 28.37,24 C 27.99,23.32 27.28,21.92 27.46,21.25 C 27.16,20.46 27.03,19.79 27.03,19.53 C 27.03,19.01 27.12,17.15 27.12,17.15 C 27.12,17.15 27.15,17.09 27.15,17.09 z" id="p3399" style="fill:#ffffff;fill-opacity:0.57;fill-rule:evenodd;stroke:none;display:inline"/>
<path d="M 18.96,17.62 C 19.02,17.65 19.09,17.68 19.09,17.68 C 19.09,17.68 19.09,18.36 19.09,19.34 C 19.48,20.74 18.75,23.39 18.25,24.12 C 17.74,24.85 16.97,25.75 17.03,26.09 C 17.08,26.43 17.25,27.15 17.25,27.15 C 17.25,27.15 16.34,26.69 16.34,26.25 C 16.34,25.8 16.56,25.23 16.84,25.06 C 16.92,25.01 16.87,24.69 16.78,24.28 C 16.35,24.77 16.01,25.16 15.84,25.31 C 15.69,25.44 15.48,25.61 15.31,25.75 C 15.27,26.15 15.3,26.57 15.56,26.68 C 16.06,26.91 15.57,27.5 16.25,28.06 C 16.92,28.62 17.69,28.39 17.75,28 C 17.8,27.6 18.53,28.09 18.53,28.09 C 18.53,28.09 18.36,27.66 18.59,27.21 C 18.81,26.76 20.62,23.43 20.62,22.59 C 20.62,21.75 20.75,20.95 20.75,21.12 C 20.74,21.29 21.13,21.41 21.18,21.25 C 21.24,21.08 20.73,26.12 20.62,26.68 C 20.51,27.24 21.02,26.76 21.53,24.34 C 22.03,21.92 21.59,19.9 21.59,19.34 C 21.59,18.78 21.97,18.16 21.75,18 C 21.52,17.83 20.68,17.66 20.62,18 C 20.56,18.33 20.01,18.87 20.12,19.71 C 20.23,20.56 20.16,21.7 20,22.15 C 19.83,22.6 19.45,23.78 19.56,21.87 C 19.67,19.96 19.65,17.87 19.65,17.87 L 18.96,17.62 z" id="p3397" style="fill:#ffffff;fill-opacity:0.54;fill-rule:evenodd;stroke:none;display:inline"/>
<path d="M 19.21,22.59 C 19.21,22.59 17.71,25.54 17.53,25.8 C 17.36,26.03 17.3,26.58 17.53,26.7 C 17.75,26.81 18.15,26.87 18.15,26.87 C 18.15,26.87 19.05,25.46 19.21,25.01 C 19.38,24.56 19.83,23.61 19.83,23.61 C 19.83,23.61 19.33,24.73 18.93,24.67 C 18.54,24.62 19.27,22.54 19.21,22.59 z" id="p3393" style="fill:#b02020;fill-opacity:0.79;fill-rule:evenodd;stroke:none;display:inline"/>
<path d="M 14.59,26.37 C 14.37,26.56 14.15,26.74 13.93,26.96 C 13.39,28.6 13.31,29.32 13.31,29.78 C 13.31,30.39 13.71,31.93 13.71,31.93 C 13.71,31.93 13.83,29.11 14.28,28.43 C 14.73,27.76 15.06,27.37 15.06,27.37 C 15.06,27.37 14.45,27.26 14.56,26.53 C 14.57,26.48 14.58,26.42 14.59,26.37 z" id="p3405" style="fill:#fefcfc;fill-opacity:0.7;fill-rule:evenodd;stroke:none;display:inline"/>
<path d="M 23.69,18.19 C 23.94,19.03 23.99,19.53 23.84,20.17 C 23.69,20.82 24.09,20.47 24.14,21.42 C 24.19,22.36 24.59,23.45 24.78,23.9 C 24.98,24.35 26.13,26.33 26.13,26.33 C 26.13,26.33 25.83,23.25 25.68,22.56 C 25.53,21.86 25.33,20.57 25.53,21.17 C 25.73,21.76 26.67,24.3 26.97,24.94 C 27.27,25.59 28.01,27.08 28.26,26.98 C 28.51,26.88 27.22,25.04 26.82,23.95 C 26.42,22.86 25.83,20.77 25.68,20.57 C 25.53,20.37 25.08,20.57 25.08,20.97 C 25.08,21.37 25.13,22.11 25.23,22.66 C 25.33,23.21 25.68,25.04 25.18,23.95 C 24.69,22.86 24.44,21.91 24.59,21.37 C 24.74,20.82 24.98,20.03 24.88,19.63 C 24.78,19.23 24.39,19.03 24.49,18.68 C 24.59,18.34 24.74,17.94 24.44,17.89 C 24.14,17.84 23.69,18.14 23.69,18.19 z" id="p3462" style="fill:#fae3e3;fill-opacity:0.54;fill-rule:evenodd;stroke:none"/>
<path d="M 23.2,23.23 C 23.2,23.46 23.04,23.66 22.85,23.66 C 22.65,23.66 22.5,23.46 22.5,23.23 C 22.5,22.99 22.65,22.79 22.85,22.79 C 23.04,22.79 23.2,22.99 23.2,23.23 z" id="p3464" style="fill:#fae3e3;fill-opacity:0.81;fill-rule:evenodd;stroke:none;marker:none;visibility:visible;display:inline;overflow:visible;enable-background:accumulate"/>
<path d="M 22.65,22.39 C 22.65,22.71 22.53,22.98 22.4,22.98 C 22.26,22.98 22.15,22.71 22.15,22.39 C 22.15,22.06 22.26,21.79 22.4,21.79 C 22.53,21.79 22.65,22.06 22.65,22.39 z" id="p3466" style="fill:#fae3e3;fill-opacity:0.81;fill-rule:evenodd;stroke:none;marker:none;visibility:visible;display:inline;overflow:visible;enable-background:accumulate"/>
<path d="M 22.2,21.62 C 22.2,20.82 22.75,20.77 22.75,20.32 C 22.75,19.88 22.6,19.23 22.8,19.23 C 23,19.23 23.44,21.07 23.44,21.42 C 23.44,21.76 23.15,21.47 23.15,21.47 C 23.15,21.47 23.15,20.77 23.05,20.97 C 22.95,21.17 22.75,21.81 22.2,21.62 z" id="p3468" style="fill:#fdf3f3;fill-opacity:0.87;fill-rule:evenodd;stroke:none"/>
<path d="M 20.81,17.79 C 20.29,19.31 20.68,20.37 20.29,22.15 C 19.89,23.94 18.77,27.04 18.17,27.04 C 17.58,27.04 18.63,27.64 19.56,25.39 C 20.48,23.14 20.68,19.64 20.81,18.98 C 20.95,18.32 21.41,19.05 21.34,20.96 C 21.28,22.88 21.61,22.15 21.54,20.5 C 21.48,18.85 21.74,17.99 21.74,17.99 L 20.81,17.79 z" id="p3551" style="fill:#fefafa;fill-opacity:0.88;fill-rule:evenodd;stroke:none"/>
<path d="M 22.31,11.23 C 22.48,11.84 21.91,13.3 21.91,13.67 C 21.91,14.04 21.91,14.79 22.24,14.76 C 22.58,14.72 23.02,14.72 23.02,14.72 L 23.09,13.74 L 23.87,13.6 C 23.87,13.6 24.35,12.99 24.08,12.04 C 23.81,11.09 22.58,10.58 22.31,11.23 z" id="p3564" style="fill:#ffffff;fill-opacity:0.86;fill-rule:evenodd;stroke:none"/>
<path d="M 17.84,13.03 C 18.95,13.84 19.4,14.45 19.4,14.86 C 19.4,15.26 19.29,15.54 19.29,15.54 C 19.29,15.54 20.11,16.42 20.58,16.52 C 21.06,16.62 21.43,17.1 21.43,17.1" id="p3566" style="fill:none;fill-rule:evenodd;stroke:#e7c3c3;stroke-width:0.30;stroke-linecap:round;stroke-linejoin:miter;stroke-miterlimit:4;stroke-dasharray:none;stroke-opacity:0.68"/>
<path d="M 28.62,11.25 C 28.62,11.25 27.08,11.75 25.59,12.12 C 25.62,12.17 25.65,12.22 25.65,12.28 C 25.65,12.71 24.56,13.06 23.21,13.06 C 21.86,13.06 20.75,12.71 20.75,12.28 C 20.75,12.27 20.74,12.25 20.75,12.25 C 20.34,12.17 20.01,12.11 19.96,12 C 19.83,11.69 19.39,11.45 20.53,11.5 C 21.66,11.54 19.41,11.28 19.15,11.5 C 18.89,11.71 19.71,13 19.71,13 L 18.84,12.71 C 19.49,13.72 19.62,14.95 19.84,15.21 C 20.06,15.48 21.25,15.35 21.25,15.65 C 21.25,15.96 21.18,17.41 21.4,17.59 C 21.62,17.76 23.87,17.92 23.87,17.75 C 23.87,17.57 23.85,16.09 23.93,15.87 C 24.02,15.65 21.53,15.79 21.4,15.62 C 21.27,15.45 20.46,13.49 20.59,13.28 C 20.72,13.06 22.81,13.51 23.46,13.46 C 24.12,13.42 25.69,12.51 25.56,13 C 25.43,13.48 25,16.28 25,16.28 L 25.53,16.09 C 25.53,16.09 25.8,12.91 26.28,12.78 C 26.76,12.65 28.15,12.36 28.28,12.06 C 28.41,11.75 28.62,11.25 28.62,11.25 z" id="p3555" style="fill:#5c2323;fill-opacity:0.47;fill-rule:evenodd;stroke:none"/>
<path d="M 18.46,9.79 C 18.29,10.00 17.88,9.97 17.56,9.71 C 17.23,9.45 17.11,9.06 17.28,8.85 C 17.45,8.63 17.85,8.66 18.18,8.92 C 18.51,9.18 18.63,9.57 18.46,9.79 z" id="p3560" style="fill:#eddfdf;fill-opacity:0.81;fill-rule:evenodd;stroke:none;marker:none;visibility:visible;display:inline;overflow:visible;enable-background:accumulate"/>
<path d="M 16.08,9.92 C 16.8,10.93 19.03,11.29 20.4,11.36 C 21.77,11.43 25.88,11.07 26.75,11.43 C 27.61,11.79 29.13,10.93 29.42,10.5" id="p3562" style="fill:none;fill-rule:evenodd;stroke:#d39999;stroke-width:0.30;stroke-linecap:butt;stroke-linejoin:miter;stroke-miterlimit:4;stroke-dasharray:none;stroke-opacity:0.68"/>
<path d="M 26.8,12.82 C 26.22,13.62 25.68,14.82 25.51,15.32 C 25.34,15.82 26.51,15.11 26.8,14.45 C 27.09,13.78 27.22,12.37 26.8,12.82 z" id="p3570" style="fill:#ffffff;fill-opacity:0.73;fill-rule:evenodd;stroke:none"/>
<path d="M 17.05,11.73 C 18.95,12.78 20.35,13.33 22.6,13.43 C 24.85,13.53 27.5,12.68 28.66,11.43" id="p3572" style="fill:none;fill-rule:evenodd;stroke:#391616;stroke-width:0.30;stroke-linecap:butt;stroke-linejoin:miter;stroke-miterlimit:4;stroke-dasharray:none;stroke-opacity:0.51"/>
<path d="M 18.43,16.3 C 20.56,18.49 25.48,18.29 27.42,16.15" id="p3460" style="fill:none;fill-rule:evenodd;stroke:#e18484;stroke-width:1px;stroke-linecap:round;stroke-linejoin:miter;stroke-opacity:0.87"/>
<path d="M 18.91,17.5 C 19.93,18.01 20.75,18.44 22.38,18.47 C 25.34,18.52 26.66,17.6 27.12,17.14" id="p3574" style="fill:none;fill-rule:evenodd;stroke:#551515;stroke-width:0.30;stroke-linecap:round;stroke-linejoin:miter;stroke-miterlimit:4;stroke-dasharray:none;stroke-opacity:0.81"/>
<path d="M 11.51,33.76 C 11.46,28.23 14.3,26.65 15.83,25.31 C 16.37,24.83 19.08,22 19.08,19.83 C 19.08,17.67 19.08,17.67 19.08,17.67 C 19.08,17.67 18.15,17.26 18.15,16.33 C 18.15,15.4 18.67,15.19 18.67,15.19 C 18.67,15.19 18.05,13.75 17.74,13.13 C 17.43,12.51 17.22,12 16.5,11.38 C 15.78,10.76 15.06,8.69 17.12,7.35 C 19.18,6.01 18.67,6.63 18.67,6.63 C 18.67,6.63 18.77,6.63 18.77,5.91 C 18.77,5.19 20.01,4.05 22.89,4.05 C 25.78,4.05 27.08,5.06 27.12,5.29 C 27.21,5.74 27.12,6.53 27.12,6.53 C 27.12,6.53 29.81,7.15 29.81,9 C 29.81,10.86 28.46,11.48 28.46,11.48 L 27.23,14.88 C 27.23,14.88 27.74,15.09 27.74,15.81 C 27.74,16.53 27.12,17.15 27.12,17.15 C 27.12,17.15 27.02,19.01 27.02,19.53 C 27.02,20.04 27.54,22.1 28.77,23.55 C 30.01,24.99 32.8,27.67 33.62,29.32 C 34.45,30.97 35.38,35 34.04,37.78 C 32.69,40.57 31.66,41.08 30.94,41.7 C 30.22,42.32 29.39,42.53 29.39,42.53 C 29.39,42.53 28.06,44.76 22.33,44.71 C 17.22,44.67 14.79,41.25 14.79,41.25 C 14.79,41.25 12.49,39.23 11.86,37.06 C 11.52,35.9 11.51,34.59 11.51,33.76 z" id="stroke01" style="fill:none;fill-opacity:1;fill-rule:evenodd;stroke:#1e0404;stroke-width:0.5;stroke-linecap:butt;stroke-linejoin:miter;stroke-miterlimit:4;stroke-dasharray:none;stroke-opacity:1"/>
<path d="M 24.28,31.48 C 24.28,31.61 24.08,31.72 23.84,31.72 C 23.59,31.72 23.4,31.61 23.4,31.48 C 23.4,31.34 23.59,31.24 23.84,31.24 C 24.08,31.24 24.28,31.34 24.28,31.48 z" id="p3299" style="fill:#fff4f4;fill-opacity:0.86;fill-rule:evenodd;stroke:none;marker:none;visibility:visible;display:inline;overflow:visible;enable-background:accumulate"/>
<path d="M 24.52,35.21 C 24.52,35.4 24.34,35.57 24.12,35.57 C 23.89,35.57 23.72,35.4 23.72,35.21 C 23.72,35.01 23.89,34.85 24.12,34.85 C 24.34,34.85 24.52,35.01 24.52,35.21 z" id="p3301" style="fill:#fff4f4;fill-opacity:0.86;fill-rule:evenodd;stroke:none;marker:none;visibility:visible;display:inline;overflow:visible;enable-background:accumulate"/>
<path d="M 26.12,36.49 C 26.12,36.73 25.9,36.93 25.64,36.93 C 25.37,36.93 25.16,36.73 25.16,36.49 C 25.16,36.24 25.37,36.05 25.64,36.05 C 25.9,36.05 26.12,36.24 26.12,36.49 z" id="p3303" style="fill:#fff4f4;fill-opacity:0.86;fill-rule:evenodd;stroke:none;marker:none;visibility:visible;display:inline;overflow:visible;enable-background:accumulate"/>
<path d="M 24.84,37.78 C 24.84,38.02 24.58,38.22 24.28,38.22 C 23.97,38.22 23.72,38.02 23.72,37.78 C 23.72,37.53 23.97,37.34 24.28,37.34 C 24.58,37.34 24.84,37.53 24.84,37.78 z" id="p3305" style="fill:#fff4f4;fill-opacity:0.86;fill-rule:evenodd;stroke:none;marker:none;visibility:visible;display:inline;overflow:visible;enable-background:accumulate"/>
<path d="M 24.44,40.38 C 24.44,40.82 24.31,41.18 24.16,41.18 C 24,41.18 23.88,40.82 23.88,40.38 C 23.88,39.93 24,39.58 24.16,39.58 C 24.31,39.58 24.44,39.93 24.44,40.38 z" id="p3307" style="fill:#fff4f4;fill-opacity:0.86;fill-rule:evenodd;stroke:none;marker:none;visibility:visible;display:inline;overflow:visible;enable-background:accumulate"/>
<path d="M 25.28,17.75 C 25.28,18.03 24.38,18.26 23.28,18.26 C 22.18,18.26 21.29,18.03 21.29,17.75 C 21.29,17.46 22.18,17.23 23.28,17.23 C 24.38,17.23 25.28,17.46 25.28,17.75 z" id="p3545" style="fill:#8e0f0f;fill-opacity:0.62;fill-rule:evenodd;stroke:none;marker:none;visibility:visible;display:inline;overflow:visible;enable-background:accumulate"/>
<path d="M 23.47,17.75 C 23.44,17.97 22.54,18.00 21.48,17.83 C 20.41,17.65 19.58,17.34 19.61,17.12 C 19.65,16.90 20.54,16.87 21.61,17.05 C 22.66,17.22 23.51,17.53 23.47,17.75 L 23.47,17.75 z" id="p3547" style="fill:#c11d1d;fill-opacity:0.81;fill-rule:evenodd;stroke:none;marker:none;visibility:visible;display:inline;overflow:visible;enable-background:accumulate"/>
<path d="M 26.63,16.73 C 26.68,16.89 26.14,17.23 25.43,17.46 C 24.70,17.70 24.08,17.75 24.03,17.59 C 23.98,17.42 24.50,17.09 25.23,16.85 C 25.94,16.62 26.57,16.56 26.63,16.73 z" id="p3549" style="fill:#cc1f1f;fill-opacity:0.72;fill-rule:evenodd;stroke:none;marker:none;visibility:visible;display:inline;overflow:visible;enable-background:accumulate"/>
<path d="M 25.35,16.05 C 25.42,16.23 25.09,16.52 24.63,16.70 C 24.16,16.89 23.73,16.89 23.66,16.71 C 23.59,16.53 23.90,16.23 24.37,16.05 C 24.83,15.87 25.28,15.87 25.35,16.05 z" id="p3553" style="fill:#fdf3f3;fill-opacity:0.87;fill-rule:evenodd;stroke:none;marker:none;visibility:visible;display:inline;overflow:visible;enable-background:accumulate"/>
</g>
</svg>
