<?xml version="1.0" encoding="UTF-8" standalone="no"?>
<!DOCTYPE svg PUBLIC "-//W3C//DTD SVG 1.0//EN" "http://www.w3.org/TR/2001/REC-SVG-20010904/DTD/svg10.dtd">
<svg xmlns:svg="http://www.w3.org/2000/svg" xmlns="http://www.w3.org/2000/svg" version="1.0" width="100%" height="100%" viewBox="0 0 48 48" id="_bat01" style="display:inline">
<defs id="defs2385"/>
<g id="bat01" style="display:inline">
<path d="M 42.29,17.57 C 47.12,14.68 42.12,5.42 36.51,9.85 C 30.54,14.57 21.04,21.93 17.72,24.8 C 14.39,27.68 11.25,29.98 5.78,33.91 C 4.85,34.57 4.53,33.42 3.32,34.18 C 1.59,35.27 3.12,38.92 5.26,37.82 C 6.4,37.23 6.26,36.64 6.4,35.95 C 12.66,31.9 16.58,30.27 20.76,28.58 C 24.95,26.88 34.42,22.28 42.29,17.57 z" id="p2652" style="fill:#e9b57b;fill-opacity:1;fill-rule:evenodd;stroke:none"/>
<path d="M 43.87,12.18 C 39.4,17.41 28.96,23.56 20.4,28.75 C 20.53,28.69 20.65,28.64 20.78,28.59 C 24.96,26.89 34.43,22.27 42.31,17.56 C 44.29,16.37 44.57,14.13 43.87,12.18 z" id="p3443" style="fill:#decbb6;fill-opacity:0.45;fill-rule:evenodd;stroke:none;display:inline"/>
<path d="M 39.43,8.68 C 39.27,9.1 39.23,9.56 39.28,10.03 C 38.97,12.04 37.91,13.85 36.59,15.37 C 35.18,17.21 33.15,18.36 31.28,19.65 C 29.3,21.26 27.36,23.02 24.87,23.78 C 23.56,24.61 21.27,25.38 20.53,26.18 C 21.97,26.71 23.14,24.96 24.5,24.59 C 26.26,23.75 28.18,23.16 29.62,21.78 C 31.24,20.42 32.91,19.17 34.68,18.03 C 36.9,16.19 38.94,13.86 39.68,11.03 C 39.76,10.29 39.83,9.41 40.15,8.71 C 39.91,8.67 39.68,8.67 39.43,8.68 z M 42.21,9.68 C 40.81,10.39 39.62,11.54 39.43,13.18 C 39.49,15.17 39.29,17.29 37.12,18.09 C 35.51,19.13 33.94,20.23 32.21,21.09 C 30.15,22.14 28.26,23.48 26.37,24.81 C 24.15,26.19 21.24,26.65 19.62,28.87 C 19.55,28.96 19.5,29.06 19.43,29.15 C 19.85,28.98 20.27,28.79 20.68,28.62 C 21.34,27.95 22.08,27.36 23.03,27.06 C 25.53,26.17 27.71,24.63 29.93,23.21 C 30.16,23.08 30.39,22.96 30.62,22.84 C 29.23,23.68 27.89,24.66 26.78,25.84 C 27.75,25.37 28.71,24.94 29.78,24.4 C 29.99,24.21 30.19,24 30.4,23.81 C 31.3,23.41 32.21,23.05 33.12,22.68 C 35.65,21.36 38.27,19.93 40.78,18.46 C 41.43,17.83 42.01,17.15 42.53,16.4 C 43.18,14.94 42.71,12.98 43.68,11.68 C 43.59,11.47 43.49,11.25 43.37,11.06 C 43.26,11.19 43.15,11.32 43.06,11.5 C 41.93,13.33 42.88,16.01 40.96,17.43 C 39.41,18.94 37.69,20.37 35.56,20.96 C 34.64,21.27 32.58,22.32 32.4,22.18 C 34.79,20.31 37.98,19.63 40.15,17.46 C 41.23,16.48 41.34,14.99 41.25,13.62 C 41,12.14 41.98,11.31 43.15,10.78 C 43.05,10.63 42.95,10.48 42.84,10.34 C 42.79,10.36 42.73,10.38 42.68,10.4 C 42.28,10.73 41.06,11.15 42.09,10.4 C 42.24,10.32 42.48,10.23 42.68,10.15 C 42.53,9.98 42.39,9.83 42.21,9.68 z M 41.21,11.34 C 39.98,12.93 41.42,15.35 39.84,16.78 C 38.75,17.56 40.56,15.38 39.96,14.81 C 39.92,13.55 40.2,12.18 41.21,11.34 z M 38.71,17.68 C 38.49,17.9 37.8,18.35 37.37,18.62 C 37.45,18.57 37.41,18.56 37.56,18.46 C 37.95,18.21 38.33,17.95 38.71,17.68 z" id="p3463" style="fill:#a96833;fill-opacity:0.41;fill-rule:evenodd;stroke:none;display:inline"/>
<path d="M 38.93,14.43 C 37.8,14.55 36.98,15.45 36.03,15.96 C 31.83,18.67 27.62,21.34 23.43,24.06 C 22.37,24.86 22.41,26.6 23.43,27.4 C 26.62,25.96 31.01,23.83 35.53,21.4 C 37.15,20.36 38.75,19.29 40.37,18.25 C 41.57,17.35 41.36,15.24 39.96,14.65 C 39.64,14.5 39.29,14.42 38.93,14.43 z" id="p3480" style="fill:#dfccba;fill-opacity:0.25;fill-rule:evenodd;stroke:none"/>
<path d="M 18.96,23.78 C 18.57,24.1 18.01,24.55 17.71,24.81 C 14.39,27.68 11.25,29.97 5.78,33.9 C 5.12,34.37 4.76,33.93 4.18,33.9 C 4.04,35.41 4.38,36.68 5.75,37.5 C 6.35,37.01 6.29,36.53 6.4,35.96 C 11.76,32.5 15.4,30.82 18.96,29.34 C 18.12,28.36 17.83,26.67 18.96,23.78 z" id="p3439" style="fill:#f8e6d2;fill-opacity:0.27;fill-rule:evenodd;stroke:none;display:inline"/>
<path d="M 39.56,8.68 C 38.61,8.68 37.58,9.01 36.53,9.84 C 34.61,11.35 32.19,13.27 29.87,15.09 C 31.75,14.66 35.3,13.21 41.84,9.43 C 41.17,8.97 40.41,8.68 39.56,8.68 z M 26.37,17.84 C 22.73,20.7 19.41,23.34 17.71,24.81 C 14.39,27.68 11.25,29.97 5.78,33.9 C 4.85,34.57 4.52,33.42 3.31,34.18 C 1.58,35.27 3.11,38.91 5.25,37.81 C 6.39,37.22 6.26,36.66 6.4,35.96 C 12.67,31.91 16.59,30.28 20.78,28.59 C 23.27,27.58 27.64,25.51 32.43,23.03 C 28.36,22.06 26.35,20 26.37,17.84 z" id="p3441" style="fill:#f8e6d2;fill-opacity:0.22;fill-rule:evenodd;stroke:none;display:inline"/>
<path d="M 27.93,16.62 C 23.69,19.95 19.66,23.12 17.71,24.81 C 15.25,26.94 12.89,28.78 9.59,31.18 C 11.24,31.19 14.7,29.72 19.46,26.46 C 24.28,23.18 27.5,18.89 27.93,16.62 z" id="p3445" style="fill:#f8e6d2;fill-opacity:0.41;fill-rule:evenodd;stroke:none;display:inline"/>
<path d="M 39.56,8.68 C 39.3,8.68 39.01,8.69 38.75,8.75 C 37.11,9.21 36.13,10.92 36.5,12.96 C 36.92,15.36 39.03,17.34 41.18,17.34 C 42.41,17.34 43.39,16.69 43.93,15.71 C 43.94,15.7 43.93,15.69 43.93,15.68 C 43.97,15.59 44,15.49 44.03,15.4 C 44.11,15.13 44.18,14.85 44.21,14.56 C 44.21,14.55 44.21,14.54 44.21,14.53 C 44.24,14.25 44.23,13.97 44.21,13.68 C 44.21,13.66 44.22,13.64 44.21,13.62 C 44.21,13.54 44.19,13.45 44.18,13.37 C 44.15,13.14 44.12,12.91 44.06,12.68 C 43.99,12.4 43.89,12.14 43.78,11.87 C 43.77,11.85 43.75,11.83 43.75,11.81 C 43.72,11.76 43.71,11.7 43.68,11.65 C 43.57,11.42 43.45,11.18 43.31,10.96 C 43.16,10.73 42.99,10.52 42.81,10.31 C 42.78,10.28 42.77,10.24 42.75,10.21 C 42.72,10.19 42.7,10.17 42.68,10.15 C 42.5,9.95 42.3,9.75 42.09,9.59 C 41.99,9.51 41.88,9.44 41.78,9.37 C 41.62,9.27 41.47,9.17 41.31,9.09 C 41.3,9.08 41.28,9.09 41.28,9.09 C 40.93,8.92 40.54,8.78 40.15,8.71 C 39.96,8.68 39.76,8.68 39.56,8.68 z" id="p3429" style="opacity:0.86;fill:#af5005;fill-opacity:0.26;fill-rule:evenodd;stroke:none;marker:none;visibility:visible;display:inline;overflow:visible;enable-background:accumulate"/>
<path d="M 43.92,12.53 C 44.25,14.42 43.13,15.95 41.43,15.95 C 39.73,15.95 38.10,14.42 37.77,12.53 C 37.45,10.64 38.57,9.10 40.27,9.10 C 41.96,9.10 43.60,10.64 43.92,12.53 z" id="p3427" style="opacity:0.86;fill:#fae7d7;fill-opacity:0.21;fill-rule:evenodd;stroke:none;marker:none;visibility:visible;display:inline;overflow:visible;enable-background:accumulate"/>
<path d="M 20.2,26.69 L 36.42,15.55" id="p3491" style="fill:none;fill-rule:evenodd;stroke:#a46727;stroke-width:4.19;stroke-linecap:round;stroke-linejoin:miter;stroke-miterlimit:4;stroke-dasharray:none;stroke-opacity:0.12"/>
<path d="M 37.3,13.65 C 37.86,14.49 38.14,14.99 38.56,15.41" id="p3493" style="fill:none;fill-rule:evenodd;stroke:#b57641;stroke-width:1.28;stroke-linecap:round;stroke-linejoin:miter;stroke-miterlimit:4;stroke-dasharray:none;stroke-opacity:0.58"/>
<path d="M 40.61,16.46 C 41.66,16.82 42.58,16.46 43,16.18" id="p3495" style="fill:none;fill-rule:evenodd;stroke:#8c5447;stroke-width:1.20;stroke-linecap:round;stroke-linejoin:miter;stroke-miterlimit:4;stroke-dasharray:none;stroke-opacity:0.15"/>
<path d="M 37.65,12.8 C 37.79,13.51 38,13.86 38.21,14.21" id="p3497" style="fill:none;fill-rule:evenodd;stroke:#fbe4bd;stroke-width:1px;stroke-linecap:round;stroke-linejoin:miter;stroke-opacity:0.66"/>
<path d="M 36.59,12.24 C 36.52,11.4 36.8,10.48 37.16,10.2" id="p3499" style="fill:none;fill-rule:evenodd;stroke:#f7f4bc;stroke-width:0.88;stroke-linecap:round;stroke-linejoin:miter;stroke-miterlimit:4;stroke-dasharray:none;stroke-opacity:0.63"/>
<path d="M 36.59,11.26 C 36.56,11.56 36.54,11.86 36.59,12.09" id="p3501" style="fill:none;fill-rule:evenodd;stroke:#fefdd8;stroke-width:1px;stroke-linecap:round;stroke-linejoin:miter;stroke-opacity:0.57"/>
<path d="M 5.53,37.38 C 4.42,37.8 3.55,37.24 3.27,36.46" id="p3503" style="fill:none;fill-rule:evenodd;stroke:#9f6224;stroke-width:1px;stroke-linecap:round;stroke-linejoin:miter;stroke-opacity:0.51"/>
<path d="M 4.42,34.52 C 4.29,34.89 4.38,35.26 4.52,35.44" id="p3507" style="fill:none;fill-rule:evenodd;stroke:#fcf3db;stroke-width:1.28;stroke-linecap:round;stroke-linejoin:miter;stroke-miterlimit:4;stroke-dasharray:none;stroke-opacity:0.51"/>
<path d="M 42.29,17.57 C 47.12,14.68 42.12,5.42 36.51,9.85 C 30.54,14.57 21.04,21.93 17.72,24.8 C 14.39,27.68 11.25,29.98 5.78,33.91 C 4.85,34.57 4.53,33.42 3.32,34.18 C 1.59,35.27 3.12,38.92 5.26,37.82 C 6.4,37.23 6.26,36.64 6.4,35.95 C 12.66,31.9 16.58,30.27 20.76,28.58 C 24.95,26.88 34.42,22.28 42.29,17.57 z" id="stroke01" style="fill:none;fill-opacity:1;fill-rule:evenodd;stroke:#27211a;stroke-width:0.5;stroke-linecap:butt;stroke-linejoin:miter;stroke-miterlimit:4;stroke-dasharray:none;stroke-opacity:1"/>
</g>
</svg>
