<?xml version="1.0" encoding="UTF-8" standalone="no"?>
<!DOCTYPE svg PUBLIC "-//W3C//DTD SVG 1.0//EN" "http://www.w3.org/TR/2001/REC-SVG-20010904/DTD/svg10.dtd">
<svg xmlns:svg="http://www.w3.org/2000/svg" xmlns="http://www.w3.org/2000/svg" version="1.0" width="100%" height="100%" viewBox="0 0 48 48" id="_bat02">
<defs id="defs2385"/>
<g id="bat02" style="display:inline">
<path d="M 8.93,10.09 C 5.38,7.31 1.76,13.38 4.91,15.36 C 5.37,15.65 18.46,23.97 25.91,29.18 C 33.37,34.38 39.54,38.73 40.5,39.68 C 40.71,39.89 40.83,40.97 41.27,41.28 C 42.58,42.19 45.17,39.71 43.79,38.5 C 43.07,37.87 42.25,38.21 41.89,37.85 C 41.12,37.08 31.9,30.16 28.04,26.81 C 19.25,19.16 9.17,10.31 8.93,10.09 z" id="p2560" style="fill:#713924;fill-opacity:1;fill-rule:evenodd;stroke:none"/>
<path d="M 6.96,9.37 C 4.25,9.44 2.35,13.76 4.9,15.37 C 5.26,15.59 13.16,20.6 20.18,25.28 C 21.99,24.8 22.99,23.78 23.03,22.4 C 16.62,16.8 9.11,10.25 8.93,10.09 C 8.27,9.57 7.59,9.35 6.96,9.37 z" id="p3335" style="fill:#481b0b;fill-opacity:0.51;fill-rule:evenodd;stroke:none;display:inline"/>
<path d="M 11.87,12.65 C 10.81,15.49 9.06,16.41 7.28,16.9 C 9.36,18.23 12.99,20.56 17.96,23.84 C 17.63,21.18 13.86,17.83 11.96,17.18 C 12.2,17.02 13.25,16.03 14.18,14.68 C 13.6,14.17 12.23,12.97 11.87,12.65 z" id="p3337" style="fill:#8e6b5e;fill-opacity:0.12;fill-rule:evenodd;stroke:none;display:inline"/>
<path d="M 8.30,11.97 C 7.79,13.58 6.36,14.87 5.12,14.87 C 3.88,14.87 3.30,13.58 3.81,11.97 C 4.33,10.37 5.75,9.08 6.99,9.08 C 8.23,9.08 8.82,10.37 8.30,11.97 L 8.30,11.97 z" id="p3339" style="opacity:0.86;fill:#391d12;fill-opacity:0.77;fill-rule:evenodd;stroke:none;marker:none;visibility:visible;display:inline;overflow:visible;enable-background:accumulate"/>
<path d="M 7.93,9.53 C 7.86,9.62 7.78,9.72 7.75,9.84 C 7.63,10.21 7.72,10.62 8,10.9 C 8.77,11.71 8.86,12.37 8.75,12.9 C 8.63,13.44 8.25,13.91 7.75,14.15 C 7.24,14.4 6.71,14.39 6.21,14.09 C 5.72,13.78 5.16,13.07 4.9,11.5 C 4.85,11.21 4.68,10.97 4.46,10.81 C 3.43,12.23 3.28,14.35 4.9,15.37 C 4.96,15.41 6.13,16.15 6.53,16.4 C 7.27,16.49 8.01,16.34 8.65,16.03 C 9.71,15.51 10.55,14.54 10.81,13.31 C 10.92,12.79 10.91,12.24 10.78,11.68 C 10.52,11.46 8.96,10.11 8.93,10.09 C 8.6,9.83 8.26,9.64 7.93,9.53 z" id="p3350" style="fill:#090403;fill-opacity:0.22;fill-rule:evenodd;stroke:none;display:inline"/>
<path d="M 8.27,11.85 L 11.92,14.83" id="p3366" style="fill:none;fill-rule:evenodd;stroke:#c09b4b;stroke-width:1.70;stroke-linecap:round;stroke-linejoin:miter;stroke-miterlimit:4;stroke-dasharray:none;stroke-opacity:0.15"/>
<path d="M 6.84,9.49 C 8.65,10.78 7.62,12.64 7.08,13.43" id="p3353" style="fill:none;fill-rule:evenodd;stroke:#ab916b;stroke-width:0.69;stroke-linecap:round;stroke-linejoin:miter;stroke-miterlimit:4;stroke-dasharray:none;stroke-opacity:0.28;display:inline"/>
<path d="M 7.24,13.14 L 7.36,13" id="p3356" style="fill:none;fill-rule:evenodd;stroke:#faeec7;stroke-width:0.5;stroke-linecap:round;stroke-linejoin:miter;stroke-miterlimit:4;stroke-dasharray:none;stroke-opacity:0.57;display:inline"/>
<path d="M 5.43,13.25 C 6.06,12.89 6.51,12.39 6.68,12" id="p3368" style="fill:none;fill-rule:evenodd;stroke:#6b5656;stroke-width:1px;stroke-linecap:round;stroke-linejoin:miter;stroke-opacity:0.31;display:inline"/>
<path d="M 4.13,12.8 C 4.54,14.36 4.93,14.55 6.42,15.44" id="p3371" style="fill:none;fill-rule:evenodd;stroke:#000000;stroke-width:1.20;stroke-linecap:round;stroke-linejoin:miter;stroke-miterlimit:4;stroke-dasharray:none;stroke-opacity:0.27"/>
<path d="M 16.83,20.52 L 18.12,21.57" id="p3373" style="fill:none;fill-rule:evenodd;stroke:#240909;stroke-width:1px;stroke-linecap:round;stroke-linejoin:miter;stroke-opacity:0.33"/>
<path d="M 18.85,23.34 L 20.46,24.47" id="p3375" style="fill:none;fill-rule:evenodd;stroke:#1a0a06;stroke-width:1.28;stroke-linecap:round;stroke-linejoin:miter;stroke-miterlimit:4;stroke-dasharray:none;stroke-opacity:0.27"/>
<path d="M 8.09,11 C 7.25,12.28 10.07,13.85 9.03,15.53 C 8.86,14.5 7.8,11.55 7.25,13.84 C 6.38,13.35 6.76,14.44 7,15.09 C 7.07,15.21 7.11,15.35 7.12,15.53 C 7.12,15.48 7.07,15.31 7,15.09 C 6.63,14.49 5.67,14.58 6.56,15.46 C 6.91,15.89 7.24,16.48 7.56,17.06 C 7.88,17.26 8.35,17.56 8.78,17.84 C 8.71,17.56 8.82,17.55 9.34,18.21 C 10.7,18.99 8.43,16.11 9.56,15.4 C 9.66,13.46 12.18,17.71 10.53,17.12 C 10.41,17.78 10.51,18.46 10.75,19.12 C 11.12,19.36 11.15,19.39 11.56,19.65 C 11.49,19.52 11.42,19.41 11.4,19.31 C 11.19,18.79 11.07,18.24 11,17.68 C 12.23,18.26 12.43,19.78 13.28,20.75 C 13.3,20.76 13.32,20.79 13.34,20.81 C 13.61,20.98 13.91,21.19 14.18,21.37 C 14.42,20.71 14.31,19.74 13.71,19.18 C 12.7,17.83 13.8,17.49 14.71,18.62 C 15.89,18.88 15.46,20.25 14.62,20.18 C 14.96,20.83 15.24,21.56 15.56,22.25 C 15.82,22.41 16.08,22.57 16.34,22.75 C 16.28,22.62 16.23,22.54 16.15,22.34 C 16.32,22.54 16.42,22.72 16.5,22.87 C 16.5,22.88 16.52,22.89 16.53,22.9 C 16.97,23.19 17.4,23.45 17.84,23.75 C 16.91,22.61 16,21.3 15.56,20.06 C 16.99,20.54 17.7,22.02 18.71,23.03 C 19.1,23.44 19.3,24.21 19.25,24.65 C 19.44,24.78 19.61,24.9 19.81,25.03 C 19.71,24.44 20.08,24.94 20.5,25.5 C 20.86,25.74 21.16,25.97 21.53,26.21 C 21.54,26.11 21.52,25.98 21.5,25.78 C 20.8,24.57 19.42,23.52 19.37,22.09 C 20.44,24.21 22.91,25.11 24.09,27 C 25,28.27 26.77,28.86 27.59,30.37 C 28.06,30.7 28.41,30.95 28.87,31.28 C 29.15,30.36 29.1,28.34 29.62,30.21 C 30.06,30.81 30.16,31.48 30.15,32.15 C 30.35,32.29 30.55,32.42 30.75,32.56 C 30.77,31.52 30.22,30.23 29.84,29.4 C 29.2,27.76 27.27,27.35 26.09,26.15 C 25.33,25.85 24.97,24.68 25.84,25.93 C 26.67,26.53 26.81,26.13 26.62,25.56 C 24.94,24.09 24.66,23.83 23.03,22.4 C 23.18,23.88 24.64,24.87 24.81,26.34 C 24.71,27.7 23.93,25.07 23.03,25.09 C 21.3,23.99 19.99,22.34 18.96,20.59 C 18.78,21.27 18.67,22.35 18.34,20.96 C 18.63,20.06 17.75,17.54 18.93,19.31 C 20.12,20.24 21.03,22.35 22.09,22.78 C 21.8,21.72 21.01,20.82 20.18,19.93 C 18.87,18.78 18.11,18.13 17.03,17.18 C 17.72,17.94 17.88,19.25 17.87,20.21 C 17.04,19.39 16.25,18.06 15.9,16.81 L 15.96,16.68 L 16.06,16.62 C 16.26,16.66 16.43,16.72 16.59,16.81 C 16.38,16.62 16.16,16.42 15.96,16.25 C 15.58,16.33 15.21,16.47 15.5,17.15 C 15.39,17.89 17.56,20.38 16,18.87 C 14.71,17.32 13.73,15.57 13.03,13.68 C 12.88,13.56 12.46,13.17 12.34,13.06 C 12.33,13.2 12.32,13.32 12.34,13.53 C 12.25,14.44 13.52,17.13 12.06,15.31 C 10.94,14.06 9.83,13.73 9.03,12.06 C 8.76,11.66 8.48,11.28 8.09,11 z M 10.56,14.31 C 11.13,14.84 11.28,15.86 10.71,14.59 L 10.56,14.31 z M 8.06,15.09 C 8.59,15.98 8.26,15.78 8.06,15.09 z M 13.25,15.5 C 13.76,16.47 13.46,16.76 13.25,15.5 z M 11.5,16 C 12,16.29 11.83,16.69 11.5,16 z M 12.4,16.43 C 13.37,16.94 13.23,18.24 12.4,16.43 z M 11.59,16.93 C 12.42,17.29 13.85,20.37 12.56,18.4 C 12.19,17.94 11.8,17.49 11.59,16.93 z M 13.68,17.09 C 14.58,17.48 14.9,18.53 13.68,17.09 z M 16.34,19.84 C 16.59,19.96 16.86,20.24 17.12,20.5 C 17.69,21.05 18.08,21.54 17.12,20.5 C 16.86,20.28 16.58,20.08 16.34,19.84 z M 24.34,23.65 C 24.92,24.1 24.47,24.2 24.34,23.65 z M 25.03,24.37 C 25.23,24.56 25.09,24.78 25.03,24.37 z M 25.31,26.28 C 25.96,27.4 28.6,27.88 28.43,28.9 C 27.18,28.77 25.84,27.8 25.21,26.9 L 25.31,26.59 L 25.31,26.28 z M 26.78,28.75 C 27.63,29.41 29.42,29.33 28.4,30.78 C 27.96,30.04 27.41,29.34 26.78,28.75 z" id="p3377" style="fill:#c69332;fill-opacity:0.08;fill-rule:evenodd;stroke:none;display:inline"/>
<path d="M 11.56,17.65 C 10.96,17.81 10.71,18.39 10.43,18.9 C 10.44,18.91 10.43,18.93 10.43,18.93 C 10.81,19.18 10.87,19.2 11.28,19.46 C 11.32,19.44 11.35,19.47 11.37,19.53 C 11.94,19.89 11.91,19.87 12.53,20.28 C 12.28,19.54 12.28,18.74 12.09,18 C 11.99,17.8 11.78,17.66 11.56,17.65 z M 15.5,18.5 C 15.23,18.53 14.95,18.67 14.78,18.87 C 14.07,19.43 14.75,20.17 14.71,20.81 C 14.51,20.97 14.23,21.11 13.93,21.18 C 14.75,21.72 15.61,22.28 16.46,22.84 C 16.83,22.95 17.62,22.77 17.25,23.34 C 18.68,24.28 19.95,25.16 21.34,26.09 C 21.78,26.38 22.17,26.65 22.59,26.93 C 22.62,26.9 22.63,26.86 22.65,26.81 C 22.86,26.39 22.18,26.14 22.71,25.9 C 23.1,25.53 23.78,25.03 23.4,24.43 C 23.05,23.89 22.41,23.63 21.96,23.18 C 21.63,22.97 20.96,23.19 21.25,22.56 C 21.36,21.72 20.13,21.96 20.09,22.65 C 19.97,23.43 18.9,22.57 19.09,22.06 C 19.5,21.56 18.92,20.57 18.34,21.15 C 18.06,21.54 17.61,21.52 17.37,21.12 C 17,21.04 16.72,20.82 17.03,20.46 C 17,19.95 16.38,19.66 16.53,19.09 C 16.38,18.61 15.93,18.43 15.5,18.5 z M 15.59,19.53 C 15.81,20.01 15.3,19.95 15.5,19.59 C 15.53,19.57 15.56,19.54 15.59,19.53 z M 21.75,24.31 C 22.31,24.37 21.48,25.14 21.75,24.43 L 21.75,24.31 z" id="p3406" style="fill:#3d1b0f;fill-opacity:0.33;fill-rule:evenodd;stroke:none"/>
<path d="M 27.25,26.09 C 27.5,27.72 26.54,28.65 25.21,28.71 C 25.42,28.86 25.7,29.04 25.9,29.18 C 27.03,29.97 27.81,30.5 28.87,31.25 L 30.75,29.06 C 29.72,28.23 28.79,27.44 28.06,26.81 C 27.68,26.48 27.62,26.42 27.25,26.09 z" id="p3420" style="fill:#b7a218;fill-opacity:1;fill-rule:evenodd;stroke:none;display:inline"/>
<path d="M 40.03,36.34 L 37.09,37.09 C 38.8,38.33 40.12,39.31 40.5,39.68 C 40.71,39.89 40.84,40.97 41.28,41.28 C 41.73,41.59 42.3,41.48 42.84,41.18 C 42.84,40.39 43.03,39.43 43.37,38.25 C 42.78,37.99 42.19,38.13 41.9,37.84 C 41.72,37.65 40.99,37.09 40.03,36.34 z" id="p3433" style="fill:#3f2017;fill-opacity:0.82;fill-rule:evenodd;stroke:none;display:inline"/>
<path d="M 28.09,26.84 C 28.17,27.87 27.83,29.21 26.31,29.46 C 33.56,34.53 39.56,38.75 40.5,39.68 C 40.54,39.72 40.58,39.81 40.62,39.9 C 41.72,39.83 42.32,39.27 42.21,38.03 C 42.09,38 41.98,37.92 41.9,37.84 C 41.13,37.07 31.96,30.2 28.09,26.84 z" id="p3417" style="fill:#917629;fill-opacity:1;fill-rule:evenodd;stroke:none;display:inline"/>
<path d="M 38.71,35.34 C 38.24,36.04 37.54,36.47 36.53,36.68 C 38.56,38.15 40.08,39.27 40.5,39.68 C 40.71,39.89 40.84,40.97 41.28,41.28 C 42.59,42.19 45.16,39.71 43.78,38.5 C 43.06,37.87 42.26,38.2 41.9,37.84 C 41.65,37.58 40.31,36.58 38.71,35.34 z" id="p3436" style="fill:#000000;fill-opacity:0.17;fill-rule:evenodd;stroke:none;display:inline"/>
<path d="M 28.03,27.78 C 27.95,28.14 27.8,28.49 27.56,28.78 L 34.56,34.21 C 34.8,34.4 35.15,34.36 35.34,34.12 C 35.53,33.88 35.49,33.53 35.25,33.34 L 28.03,27.78 z" id="p3439" style="fill:#efdf53;fill-opacity:0.18;fill-rule:evenodd;stroke:none;display:inline"/>
<path d="M 42.94,40.53 L 43.3,40.03" id="p3457" style="fill:none;fill-rule:evenodd;stroke:#d29680;stroke-width:0.69;stroke-linecap:round;stroke-linejoin:miter;stroke-miterlimit:4;stroke-dasharray:none;stroke-opacity:0.28;display:inline"/>
<path d="M 8.93,10.09 C 5.38,7.31 1.76,13.38 4.91,15.36 C 5.37,15.65 18.46,23.97 25.91,29.18 C 33.37,34.38 39.54,38.73 40.5,39.68 C 40.71,39.89 40.83,40.97 41.27,41.28 C 42.58,42.19 45.17,39.71 43.79,38.5 C 43.07,37.87 42.25,38.21 41.89,37.85 C 41.12,37.08 31.9,30.16 28.04,26.81 C 19.25,19.16 9.17,10.31 8.93,10.09 z" id="stroke01" style="fill:none;fill-rule:evenodd;stroke:#000000;stroke-width:0.5;stroke-linecap:butt;stroke-linejoin:miter;stroke-miterlimit:4;stroke-dasharray:none;stroke-opacity:1;display:inline"/>
</g>
</svg>
