<?xml version="1.0" encoding="UTF-8" standalone="no"?>
<!DOCTYPE svg PUBLIC "-//W3C//DTD SVG 1.0//EN" "http://www.w3.org/TR/2001/REC-SVG-20010904/DTD/svg10.dtd">
<svg xmlns:svg="http://www.w3.org/2000/svg" xmlns="http://www.w3.org/2000/svg" version="1.0" width="100%" height="100%" viewBox="0 0 48 48" id="_knife02">
<defs id="defs2385"/>
<g id="knife02" style="display:inline">
<path d="M 32.20,1.59 C 32.49,1.54 44.47,14.34 40.25,28.79 C 38.88,33.51 33.60,36.38 29.98,37.98 C 26.37,39.58 20.02,41.18 17.96,41.54 C 15.84,42.21 8.25,43.87 7.79,43.97 C 8.05,45.26 7.74,45.62 6.65,46.24 C 3.56,45.62 1.66,43.65 4.02,40.20 C 4.69,39.22 12.23,37.05 15.32,36.95 C 15.32,35.45 14.98,35.03 16.36,34.42 C 18.09,33.66 31.53,29.72 32.98,20.85 C 34.62,10.68 31.50,1.72 32.20,1.59 z" id="p2584" style="fill:#b1b1a9;fill-opacity:1;fill-rule:evenodd;stroke:none;"/>
<path d="M 22.25,32 C 19.45,33.34 17.04,34.14 16.37,34.43 C 14.99,35.04 15.34,35.47 15.34,36.96 C 12.24,37.07 4.70,39.23 4.03,40.21 C 1.67,43.66 3.55,45.63 6.65,46.25 C 7.74,45.63 8.03,45.25 7.78,43.96 C 8.24,43.86 15.85,42.23 17.96,41.56 C 20.03,41.20 26.38,39.60 30,38 C 32.02,37.10 34.56,35.79 36.65,34 C 29.92,34.09 25.51,33.48 22.25,32 z" id="p3416" style="fill:#424242;fill-opacity:0.17;fill-rule:evenodd;stroke:none;display:inline"/>
<path d="M 39.40,13.25 C 37.99,18.21 37.35,24.84 38.06,32.62 C 39.05,31.50 39.82,30.25 40.25,28.81 C 41.90,23.14 41.05,17.73 39.40,13.25 z" id="p3420" style="fill:#fdfdfd;fill-opacity:0.32;fill-rule:evenodd;stroke:none;display:inline"/>
<path d="M 28.25,33.43 C 26.22,34.56 22.48,37.18 18.65,41.40 C 20.73,40.98 24.90,39.90 28.21,38.68 C 27.77,37.20 27.74,35.45 28.25,33.43 z" id="p3424" style="fill:#363636;fill-opacity:0.26;fill-rule:evenodd;stroke:none;display:inline"/>
<path d="M 32.21,1.59 C 31.76,1.67 32.89,5.50 33.31,10.96 C 34.59,10.70 36.09,10.27 37.84,9.65 C 35.34,4.71 32.35,1.56 32.21,1.59 z" id="p3428" style="fill:#3e3e3e;fill-opacity:0.15;fill-rule:evenodd;stroke:none;display:inline"/>
<path d="M 32.21,1.59 C 31.59,1.70 33.95,8.71 33.37,17.37 C 35.13,21.68 35.17,26.68 32.90,36.56 C 35.99,34.85 39.21,32.36 40.25,28.81 C 44.46,14.36 32.50,1.54 32.21,1.59 z" id="p3525" style="fill:#d3d3d3;fill-opacity:0.32;fill-rule:evenodd;stroke:none;"/>
<path d="M 39.23,19.44 C 39.49,21.78 38.98,26.44 38.61,27.72" id="p3527" style="fill:none;fill-rule:evenodd;stroke:#e2e2e2;stroke-width:1.89;stroke-linecap:round;stroke-linejoin:miter;stroke-miterlimit:4;stroke-dasharray:none;stroke-opacity:0.59"/>
<path d="M 14.71,37.28 C 13.66,37.32 12.07,37.61 10.43,38 L 10.84,43.28 C 13.09,42.77 15.77,42.16 17.34,41.71 C 17.41,40.03 16.85,38.25 14.71,37.28 z" id="p3383" style="fill:#79796e;fill-opacity:1;fill-rule:evenodd;stroke:none;display:inline"/>
<path d="M 14.59,39.18 C 15.12,39.34 15.28,38.01 15.81,38.09 C 16.33,38.17 17.95,39.87 17.54,41.04 C 17.14,42.21 16.74,39.38 15.40,40.47 C 14.07,41.57 14.67,39.18 14.59,39.18 z" id="p3534" style="fill:#cdcdcd;fill-opacity:0.76;fill-rule:evenodd;stroke:none;"/>
<path d="M 33.25,3.09 C 32.53,3.41 33.18,4.06 32.37,3.87 C 32.28,4.82 34.06,5.98 33.42,4.45 C 33.05,3.88 32.96,4.04 33.52,3.79 C 33.60,3.55 33.53,3.15 33.25,3.09 z M 32.5,4.68 C 32.72,5.75 32.81,7.44 33.10,7.82 C 34.00,6.61 33.41,5.76 32.5,4.68 z M 34.59,5.31 C 33.95,6.11 35.33,8.22 35.16,6.28 C 35.40,5.59 34.91,5.74 34.59,5.31 z M 33.28,5.40 C 33.59,6.01 33.57,5.86 33.28,5.40 z M 35.37,5.75 C 35.27,6.34 35.06,7.93 35.96,6.82 C 36.28,6.51 35.72,5.72 35.37,5.75 z M 33.84,6.03 C 33.34,6.20 33.98,6.35 33.84,6.03 z M 34.18,6.31 C 33.73,7.14 34.88,8.86 34.61,7.10 C 34.52,6.82 34.44,6.49 34.18,6.31 z M 33.81,6.84 C 33.56,7.38 32.64,9.16 33.56,7.90 C 33.60,7.54 33.69,7.18 33.81,6.84 z M 36.03,7.06 C 34.99,7.55 36.02,8.21 36.03,7.06 z M 33.93,7.15 C 33.36,8.03 34.77,7.92 33.93,7.15 z M 36.37,7.62 C 35.51,7.89 36.68,9.44 36.53,8.12 L 36.45,7.87 L 36.37,7.62 z M 33.71,8.12 C 33.43,9.88 34.81,7.91 33.71,8.12 z M 33.46,8.15 C 32.63,8.69 33.45,9.86 33.50,8.56 C 33.39,8.50 33.68,8.09 33.46,8.15 z M 34.5,8.34 C 34.06,8.75 34.88,8.56 34.5,8.34 z M 36.68,8.71 C 36.23,8.84 36.66,9.07 36.68,8.71 z M 35.06,9.06 C 34.44,10.26 35.80,10.21 35.42,9.27 C 35.33,9.17 35.18,9.09 35.06,9.06 z M 35.56,9.21 C 35.60,9.59 35.82,9.10 35.56,9.21 z M 36,9.28 C 35.52,9.88 36.83,9.62 36,9.28 z M 34.71,9.34 C 34.50,9.91 34.78,10.00 34.71,9.34 z M 36.37,9.46 L 36.40,9.56 L 36.37,9.46 z M 37.75,9.5 C 37.59,9.85 38.36,10.17 37.75,9.5 z M 36.75,9.56 C 35.92,10.16 37.77,11.12 37.28,9.84 C 37.11,9.79 36.52,9.93 36.75,9.56 z M 38.06,10.09 C 37.97,10.48 38.38,10.51 38.06,10.09 z M 35.96,10.12 C 35.41,10.52 35.07,11.79 35.13,12.42 C 36.49,12.47 36.67,10.98 35.96,10.12 z M 37.53,10.21 C 37.06,10.75 37.69,10.42 37.53,10.21 z M 35.28,10.46 C 34.79,11.03 34.61,12.94 35.12,11.31 C 35.14,11.04 35.35,10.73 35.28,10.46 z M 35,10.56 C 34.73,10.58 34.95,11.27 35,10.56 z M 37.84,10.56 C 36.90,11.03 37.91,11.65 37.84,10.56 z M 38.31,10.65 C 37.85,11.19 38.37,12.92 38.44,11.44 C 38.49,11.16 38.47,10.90 38.31,10.65 z M 34.68,10.96 C 33.49,11.39 34.70,12.37 34.68,10.96 z M 33.53,11.12 C 33.01,11.98 34.93,13.16 34.08,11.70 C 33.92,11.49 33.86,11.12 33.53,11.12 z M 37.28,11.28 C 37.14,11.38 37.38,11.33 37.28,11.28 z M 38.65,11.46 C 38.10,12.30 38.94,14.08 38.75,14.36 C 40.11,13.70 38.94,12.43 38.65,11.46 z M 37.62,12.15 C 37.54,12.83 37.79,12.96 37.62,12.15 z M 36.21,12.21 C 34.69,12.54 35.92,13.39 36.21,12.21 z M 34.53,12.31 C 34.21,12.66 34.64,12.84 34.53,12.31 z M 36.40,12.37 C 35.84,12.52 35.98,13.68 36.40,12.37 z M 37.09,12.37 C 36.83,12.76 37.06,13.84 37.09,12.37 z M 37.31,12.56 C 37.27,12.72 37.84,13.14 37.31,12.56 z M 34.81,12.65 C 34.64,12.79 35.03,12.66 34.81,12.65 z M 35.15,12.84 C 34.81,13.02 35.91,12.86 35.15,12.84 z M 35.87,13.06 C 35.46,13.55 36.34,13.31 35.87,13.06 z M 37.28,13.15 C 36.37,13.35 36.34,16.38 37.59,15.01 C 37.81,14.39 37.37,13.78 37.28,13.15 z M 37.59,13.21 C 37.46,13.99 37.76,14.10 37.59,13.21 z M 36.34,13.31 C 35.72,13.84 36.29,15.22 36.34,13.84 L 36.35,13.57 L 36.34,13.31 z M 39.59,13.71 C 38.94,14.29 39.33,15.29 39.75,14.21 L 39.67,13.96 L 39.59,13.71 z M 37.06,14.46 C 37.18,14.63 36.85,14.51 37.06,14.46 z M 36.46,14.53 C 36.31,15.14 36.48,15.65 36.47,14.71 L 36.46,14.53 z M 39.84,14.59 C 39.67,14.69 40.05,14.81 39.84,14.59 z M 37.93,14.68 C 37.81,14.86 38.20,14.84 37.93,14.68 z M 39.40,14.81 C 38.31,14.91 39.61,15.56 39.40,14.81 z M 39.75,14.87 C 38.76,16.46 40.67,15.11 39.75,14.87 z M 38.12,15.06 C 38.00,15.71 38.49,16.09 38.12,15.06 z M 37.84,15.15 C 36.65,15.09 36.46,16.35 37.68,16.36 C 38.43,16.40 37.82,15.51 37.84,15.15 z M 38.53,16.06 C 37.88,16.54 39.00,16.86 38.53,16.06 z M 36.25,16.28 C 36.10,16.82 36.76,16.72 36.25,16.28 z M 36.71,16.81 C 36.33,17.51 37.46,16.76 36.71,16.81 z M 36.09,16.84 C 35.65,17.25 36.54,17.34 36.09,16.84 z M 38.34,17.03 C 37.19,17.46 38.80,18.21 38.34,17.03 z M 37.59,17.09 C 37.42,17.44 38.03,17.10 37.59,17.09 z M 37.18,17.31 C 35.88,17.52 37.75,19.14 37.40,17.65 L 37.30,17.47 L 37.18,17.31 z M 36.31,17.59 C 35.58,18.15 35.20,20.80 36.21,20.50 C 36.51,19.56 36.47,18.55 36.31,17.59 z M 37.75,17.90 C 37.09,18.28 37.10,20.59 37.93,19.15 C 38.14,18.77 38.20,18.13 37.75,17.90 z M 38.34,18.56 C 37.98,19.04 38.38,19.36 38.34,18.56 z M 35.59,18.81 C 35.42,19.21 35.68,19.64 35.59,18.81 z M 36.68,18.87 C 36.38,19.37 37.03,19.49 36.68,18.87 z M 36.93,19.75 C 36.14,20.23 37.07,21.55 37.10,20.24 L 37.04,20.01 L 36.93,19.75 z M 37.78,20.15 C 36.93,20.88 38.60,22.05 38.07,20.72 C 37.96,20.54 37.85,20.35 37.78,20.15 z M 36.37,21 C 35.72,21.52 36.47,22.05 36.37,21 z M 37.37,21.28 C 36.52,21.86 37.90,22.26 37.37,21.28 z M 37.03,21.31 C 36.19,21.96 37.12,22.30 37.03,21.31 z M 38.53,21.5 C 37.54,22.05 38.86,22.50 38.53,21.5 z M 36.37,21.90 C 35.65,22.33 36.81,23.79 36.44,22.30 L 36.41,22.11 L 36.37,21.90 z M 38.75,21.93 C 38.13,22.63 38.87,23.99 38.89,22.46 C 38.87,22.28 38.82,22.10 38.75,21.93 z M 37.15,22.53 C 36.26,22.63 36.23,24.93 36.90,23.31 C 37.05,23.08 37.28,22.82 37.15,22.53 z M 35.09,23.21 C 34.34,23.47 35.04,24.03 35.09,23.21 z M 35.34,23.37 C 34.80,23.86 35.60,24.11 35.34,23.37 z M 37.31,23.37 C 36.80,24.06 34.77,26.22 36.27,26.26 C 36.84,25.42 37.61,24.46 37.31,23.37 z M 35.87,24.09 C 34.96,24.90 35.78,25.66 36.14,24.42 L 36.05,24.24 L 35.87,24.09 z M 37.59,24.59 C 36.70,24.94 37.33,26.09 37.59,24.90 L 37.59,24.59 z M 34.71,25.06 C 34.13,25.53 33.45,27.55 34.18,25.96 C 34.34,25.65 34.52,25.35 34.71,25.06 z M 34.87,26.21 C 34.27,26.50 35.01,26.85 34.87,26.21 z M 36.46,26.40 C 35.89,26.88 36.52,26.72 36.46,26.40 z M 35.28,26.65 C 34.62,27.56 36.08,27.51 35.28,26.65 z M 34.37,26.81 C 33.99,27.29 34.08,27.87 34.37,26.81 z M 34.90,26.93 C 34.04,27.39 34.92,28.70 35.05,27.42 L 35.03,27.18 L 34.90,26.93 z M 34.12,28.15 C 33.23,28.67 32.88,31.36 34.35,29.79 C 35.51,29.26 34.18,28.84 34.12,28.15 z M 34.18,28.75 C 34.52,28.96 34.04,29.44 34.18,28.75 z M 35,29.75 C 33.78,29.85 33.22,32.11 34.13,32.23 C 34.34,31.38 34.67,30.56 35,29.75 z M 35.34,30.03 C 34.74,30.60 35.66,31.78 35.65,30.56 L 35.49,30.29 L 35.34,30.03 z M 34.96,30.87 C 34.36,31.74 35.28,32.00 34.96,30.87 z M 34.62,31.81 C 34.00,32.59 35.05,34.00 34.11,34.38 C 34.64,35.92 34.97,33.20 34.88,32.62 C 34.83,32.37 34.89,31.96 34.62,31.81 z M 31.65,31.90 C 31.19,32.33 31.68,32.96 31.65,31.90 z M 32.18,31.90 C 31.39,32.70 33.09,32.05 32.18,31.90 z M 32.71,32.25 C 32.52,32.98 33.87,35.43 33.64,33.52 C 33.36,33.07 32.90,32.75 32.71,32.25 z M 32.31,32.90 C 31.68,33.29 31.26,35.85 32.21,34.27 C 32.44,33.87 32.83,33.26 32.31,32.90 z M 31.53,33.59 C 31.48,33.80 31.70,33.52 31.53,33.59 z M 18.43,33.62 C 16.91,33.55 18.07,37.20 18.52,35.01 C 18.62,34.55 18.51,34.07 18.43,33.62 z M 35.46,33.68 C 34.98,34.63 35.81,34.57 35.46,33.68 z M 30.96,33.71 C 30.39,34.01 31.37,33.99 30.96,33.71 z M 30.46,33.75 C 29.59,34.52 31.01,35.60 30.64,34.03 L 30.59,33.87 L 30.46,33.75 z M 25.93,33.78 C 25.64,34.55 23.76,36.86 25.10,36.71 C 25.19,35.83 26.68,34.36 25.93,33.78 z M 27.43,33.87 C 26.51,34.50 28.14,34.49 27.43,33.87 z M 27.75,33.87 C 27.90,35.05 27.51,36.70 28.46,37.53 C 28.28,36.32 29.60,34.29 27.75,33.87 z M 26.62,33.96 C 25.77,34.48 27.05,34.69 26.62,33.96 z M 34.93,34.34 C 34.80,35.01 34.90,34.49 34.93,34.34 z M 26.96,34.46 C 26.21,34.82 27.25,35.50 26.96,34.46 z M 31.03,34.84 C 30.69,35.72 30.98,35.68 31.03,34.84 z M 29.12,35.15 C 28.83,35.98 28.18,38.89 29.62,38.15 C 29.39,37.48 28.89,35.74 29.84,37.10 C 30.39,36.97 29.53,35.26 29.12,35.15 z M 31.28,35.34 C 30.43,36.28 31.25,38.38 31.89,36.82 C 31.64,36.35 31.35,35.88 31.28,35.34 z M 27.46,35.59 C 27.10,35.97 27.93,36.05 27.46,35.59 z M 21.78,35.68 C 20.26,36.57 19.77,38.58 18.13,39.26 C 18.04,40.68 20.10,40.36 19.95,38.99 C 20.42,38.92 20.98,41.97 21.96,40.36 C 21.09,38.81 23.04,37.12 21.95,35.74 L 21.78,35.68 z M 22.68,35.93 C 21.86,37.14 23.91,36.58 22.68,35.93 z M 19.84,35.96 C 19.48,36.34 19.65,36.77 19.84,35.96 z M 18.46,36.28 C 17.23,36.43 17.83,39.71 18.42,37.62 C 18.44,37.17 18.34,36.71 18.46,36.28 z M 20.43,36.28 C 20.07,36.54 19.62,37.32 20.25,36.56 L 20.43,36.28 z M 23.53,36.46 C 23.02,37.27 24.60,39.90 24.62,37.90 C 24.50,37.28 23.97,36.87 23.53,36.46 z M 25.65,36.5 C 25.16,36.90 25.15,38.51 25.71,37.25 C 25.67,37.00 25.65,36.75 25.65,36.5 z M 30.31,36.62 C 29.74,37.18 30.63,38.07 30.37,36.91 L 30.31,36.62 z M 30.68,36.93 C 30.33,37.93 30.87,37.93 30.68,36.93 z M 20.71,37.12 C 21.27,37.41 22.04,40.06 21.12,39.04 C 20.90,38.42 20.78,37.77 20.71,37.12 z M 25.75,37.56 C 24.95,38.05 24.81,40.50 26.09,39.25 C 26.20,38.65 25.82,38.13 25.75,37.56 z M 22.68,38 C 22.40,38.39 22.72,38.59 22.68,38 z M 23.21,38.34 C 22.56,39.14 23.64,41.17 24.06,39.5 C 24.03,38.96 23.42,38.78 23.21,38.34 z M 22.87,38.53 C 22.59,39.15 22.80,39.88 22.86,38.76 L 22.87,38.53 z M 22.25,39.40 C 22.01,39.80 22.26,40.00 22.25,39.40 z" id="p3391" style="fill:#424242;fill-opacity:0.32;fill-rule:evenodd;stroke:none;"/>
<path d="M 23.81,35.62 C 23.62,35.66 23.53,35.91 23.64,36.07 C 23.73,36.24 23.94,36.34 24.13,36.26 C 24.31,36.22 24.42,36.00 24.32,35.83 C 24.24,35.65 24.02,35.53 23.83,35.61 C 23.82,35.61 23.82,35.62 23.81,35.62 z M 22.48,36.11 C 22.58,36.31 22.69,36.52 22.79,36.73 C 22.90,36.71 23.06,36.64 22.93,36.53 C 22.84,36.36 22.76,36.20 22.68,36.04 C 22.61,36.06 22.55,36.08 22.48,36.11 z M 22.82,35.98 C 22.93,36.19 23.03,36.40 23.14,36.60 C 23.28,36.59 23.39,36.48 23.25,36.36 C 23.17,36.16 23.44,36.36 23.50,36.42 C 23.57,36.48 23.86,36.38 23.68,36.30 C 23.62,36.21 23.38,36.21 23.51,36.07 C 23.56,35.87 23.31,35.78 23.15,35.86 C 23.04,35.91 22.94,35.95 22.82,35.98 z M 24.26,35.47 C 24.37,35.67 24.47,35.88 24.58,36.09 C 24.69,36.07 24.82,35.99 24.70,35.88 C 24.67,35.83 24.53,35.62 24.69,35.73 C 24.82,35.81 24.94,35.96 25.10,35.90 C 25.28,35.84 25.04,35.64 25.02,35.53 C 24.97,35.42 24.91,35.18 24.74,35.30 C 24.65,35.40 24.86,35.53 24.84,35.64 C 24.68,35.58 24.56,35.38 24.37,35.43 C 24.34,35.44 24.30,35.45 24.26,35.47 z M 23.09,36.04 C 23.17,35.94 23.41,36.05 23.24,36.14 C 23.16,36.20 23.11,36.09 23.09,36.04 z M 23.88,35.76 C 24.06,35.70 24.24,35.99 24.08,36.11 C 23.90,36.19 23.68,35.86 23.88,35.76 z M 22.84,36.85 C 22.94,37.06 23.04,37.26 23.15,37.47 C 23.27,37.45 23.41,37.38 23.28,37.26 C 23.25,37.11 23.42,37.10 23.47,37.23 C 23.54,37.33 23.81,37.30 23.79,37.19 C 23.67,37.10 23.52,37.04 23.42,36.92 C 23.35,36.83 23.57,36.66 23.46,36.62 C 23.31,36.65 23.18,36.75 23.19,36.91 C 23.12,37.15 23.10,36.66 22.93,36.81 C 22.90,36.83 22.87,36.84 22.84,36.85 z M 23.59,36.58 C 23.69,36.79 23.80,36.99 23.90,37.20 C 24.01,37.19 24.15,37.11 24.02,37.00 C 23.99,36.94 23.86,36.73 24.02,36.84 C 24.14,36.92 24.27,37.07 24.43,37.01 C 24.61,36.95 24.37,36.76 24.35,36.65 C 24.30,36.53 24.23,36.29 24.06,36.41 C 23.98,36.52 24.19,36.64 24.17,36.75 C 24.00,36.70 23.89,36.49 23.70,36.54 C 23.66,36.55 23.63,36.57 23.59,36.58 z M 24.35,36.31 C 24.45,36.51 24.56,36.72 24.66,36.93 C 24.77,36.91 24.93,36.84 24.80,36.72 C 24.71,36.56 24.63,36.40 24.55,36.24 C 24.48,36.26 24.42,36.28 24.35,36.31 z M 24.69,36.18 C 24.80,36.39 24.90,36.60 25.01,36.80 C 25.12,36.79 25.27,36.70 25.14,36.59 C 25.03,36.48 25.15,36.43 25.25,36.42 C 25.41,36.36 25.23,36.21 25.13,36.31 C 25.01,36.42 24.90,36.20 25.07,36.20 C 25.18,36.21 25.32,36.09 25.17,36.03 C 25.00,36.04 24.86,36.15 24.69,36.18 L 24.69,36.18 z M 25.29,35.97 C 25.40,36.17 25.50,36.38 25.61,36.59 C 25.79,36.52 25.97,36.46 26.15,36.39 C 26.12,36.18 25.92,36.31 25.80,36.35 C 25.66,36.39 25.67,36.18 25.81,36.20 C 25.93,36.22 26.05,36.05 25.89,36.03 C 25.79,36.05 25.52,36.21 25.61,36.00 C 25.70,35.97 25.98,35.95 25.85,35.80 C 25.70,35.78 25.58,35.89 25.44,35.92 C 25.39,35.93 25.34,35.95 25.29,35.97 z" id="text3507" style="fill:#181818;fill-opacity:1;stroke:none"/>
<path d="M 15.31,36.96 C 15.05,36.92 14.77,37.08 14.71,37.28 C 16.85,38.25 17.27,39.97 17.34,41.71 C 17.57,41.64 17.78,41.61 17.93,41.56 C 18.04,39.82 17.51,37.97 15.31,36.96 z M 17.34,41.71 C 17.66,41.08 17.71,42.05 17.34,41.71 z" id="p3376" style="fill:#4c4c45;fill-opacity:1;fill-rule:evenodd;stroke:none;display:inline"/>
<path d="M 16.41,37.89 C 16.94,38.29 17.50,39.34 17.67,40.31" id="p3532" style="fill:none;fill-rule:evenodd;stroke:#cecece;stroke-width:0.5;stroke-linecap:round;stroke-linejoin:miter;stroke-miterlimit:4;stroke-dasharray:none;stroke-opacity:1"/>
<path d="M 15.84,39.47 C 16.28,40.20 16.80,40.92 15.59,41.36" id="p3541" style="fill:none;fill-rule:evenodd;stroke:#f9f9f9;stroke-width:1.39;stroke-linecap:round;stroke-linejoin:miter;stroke-miterlimit:4;stroke-dasharray:none;stroke-opacity:0.84"/>
<path d="M 15.31,36.96 C 14.23,37.00 12.62,37.29 10.96,37.68 C 11.30,39.25 11.62,40.68 12.12,43 C 14.36,42.48 16.79,41.94 17.90,41.59 C 17.02,41.45 16.19,41.27 16.12,41.15 C 15.97,40.89 14.78,38.68 14.78,38.68 L 15.34,37.12 C 15.34,37.12 15.34,37.07 15.31,36.96 z" id="p3380" style="fill:#c4c4a2;fill-opacity:1;fill-rule:evenodd;stroke:none;display:inline"/>
<path d="M 16.28,41.21 L 13.82,41.91 L 14.31,42.5 C 15.78,42.15 17.16,41.82 17.90,41.59 C 17.20,41.48 16.55,41.32 16.28,41.21 z" id="p3543" style="fill:#23211b;fill-opacity:0.87;fill-rule:evenodd;stroke:none;"/>
<path d="M 15.31,36.96 C 14.43,37.00 13.14,37.21 11.81,37.5 L 11.25,38.56 L 13.09,39.03 L 14.81,38.59 L 15.34,37.12 C 15.34,37.12 15.34,37.07 15.31,36.96 z" id="p3552" style="fill:#968463;fill-opacity:0.87;fill-rule:evenodd;stroke:none;"/>
<path d="M 13.84,37.12 C 10.30,37.64 4.61,39.37 4.03,40.21 C 1.67,43.66 3.55,45.63 6.65,46.25 C 7.74,45.63 8.03,45.25 7.78,43.96 C 8.13,43.89 12.60,42.91 15.65,42.15 L 14.54,41.81 L 13.14,39.05 L 13.84,37.12 z" id="p3361" style="fill:#070709;fill-opacity:1;fill-rule:evenodd;stroke:none;display:inline"/>
<path d="M 13.84,37.12 C 10.30,37.64 4.61,39.37 4.03,40.21 C 3.95,40.33 3.88,40.44 3.81,40.56 C 4.22,40.80 4.82,40.85 5.34,40.71 C 6.37,40.44 11.35,39.43 13.10,39.05 L 13.84,37.12 z" id="p3368" style="fill:#282a1f;fill-opacity:0.60;fill-rule:evenodd;stroke:none;display:inline"/>
<path d="M 17.07,38.70 C 17.37,39.24 17.51,39.64 17.57,39.95" id="p3539" style="fill:none;fill-rule:evenodd;stroke:#f5f5f5;stroke-width:0.5;stroke-linecap:round;stroke-linejoin:miter;stroke-miterlimit:4;stroke-dasharray:none;stroke-opacity:0.87"/>
<path d="M 17.90,41.59 C 17.02,41.45 16.19,41.27 16.12,41.15 C 15.97,40.89 14.78,38.68 14.78,38.68 L 15.34,37.12 C 15.34,37.12 15.34,37.07 15.31,36.96" id="p3548" style="fill:none;fill-opacity:1;fill-rule:evenodd;stroke:#847661;stroke-width:0.30;stroke-linecap:butt;stroke-linejoin:miter;stroke-miterlimit:4;stroke-dasharray:none;stroke-opacity:0.94;display:inline"/>
<path d="M 14.64,39.07 L 15.85,41.30 L 17.06,41.68" id="p3550" style="fill:none;fill-rule:evenodd;stroke:#282017;stroke-width:0.30;stroke-linecap:butt;stroke-linejoin:miter;stroke-miterlimit:4;stroke-dasharray:none;stroke-opacity:0.76"/>
<path d="M 14.86,41.65 L 13.50,38.90 L 14.14,37.16" id="p3557" style="fill:none;fill-rule:evenodd;stroke:#5f5143;stroke-width:0.30;stroke-linecap:butt;stroke-linejoin:miter;stroke-miterlimit:4;stroke-dasharray:none;stroke-opacity:0.41"/>
<path d="M 15.34,41.49 L 13.98,38.74 L 14.62,37.00" id="p3559" style="fill:none;fill-rule:evenodd;stroke:#5f5143;stroke-width:0.30;stroke-linecap:butt;stroke-linejoin:miter;stroke-miterlimit:4;stroke-dasharray:none;stroke-opacity:0.41;display:inline"/>
<path d="M 14.99,38.87 L 16.17,40.98" id="p3561" style="fill:none;fill-rule:evenodd;stroke:#e9e9e9;stroke-width:0.2;stroke-linecap:butt;stroke-linejoin:miter;stroke-miterlimit:4;stroke-dasharray:none;stroke-opacity:0.86"/>
<path d="M 32.20,1.59 C 32.49,1.54 44.47,14.34 40.25,28.79 C 38.88,33.51 33.60,36.38 29.98,37.98 C 26.37,39.58 20.02,41.18 17.96,41.54 C 15.84,42.21 8.25,43.87 7.79,43.97 C 8.05,45.26 7.74,45.62 6.65,46.24 C 3.56,45.62 1.66,43.65 4.02,40.20 C 4.69,39.22 12.23,37.05 15.32,36.95 C 15.32,35.45 14.98,35.03 16.36,34.42 C 18.09,33.66 31.53,29.72 32.98,20.85 C 34.62,10.68 31.50,1.72 32.20,1.59 z" id="stroke01" style="fill:none;fill-opacity:1;fill-rule:evenodd;stroke:#000000;stroke-width:0.5;stroke-linecap:butt;stroke-linejoin:miter;stroke-miterlimit:4;stroke-dasharray:none;stroke-opacity:1"/>
</g>
</svg>
