<?xml version="1.0" encoding="UTF-8" standalone="no"?>
<!DOCTYPE svg PUBLIC "-//W3C//DTD SVG 1.0//EN" "http://www.w3.org/TR/2001/REC-SVG-20010904/DTD/svg10.dtd">
<svg xmlns:svg="http://www.w3.org/2000/svg" xmlns="http://www.w3.org/2000/svg" xmlns:xlink="http://www.w3.org/1999/xlink" version="1.0" width="100%" height="100%" viewBox="0 0 48 48" id="_knife04">
<defs id="defs2987">
<linearGradient id="lg4391">
<stop id="s4393" style="stop-color:#312e2b;stop-opacity:1" offset="0"/>
<stop id="s4395" style="stop-color:#58534d;stop-opacity:1" offset="1"/>
</linearGradient>
<linearGradient x1="9.26" y1="5.01" x2="32.26" y2="27.96" id="lg5297" xlink:href="#lg4391" gradientUnits="userSpaceOnUse"/>
</defs>
<g id="knife04" style="display:inline">
<g id="g5228">
<path d="m 1.54,7.25 c 5.18,5.56 15.36,17.23 20.55,26.05 0.60,1.02 2.40,-0.12 4.93,-2.08 -0.06,-0.12 -0.12,-0.31 -0.12,-0.31 0,0 0.18,-0.25 0.37,-0.37 C 13.55,13.32 8.04,8.27 4.95,5.54 3.94,4.64 0.97,6.49 1.54,7.25 z" id="p3041" style="fill:#351d19;fill-opacity:1;stroke:none"/>
<path d="m 18.16,19.40 c -0.32,-0.01 -0.66,0.01 -0.90,0.03 -1.54,0.02 -2.59,1.02 -3.31,2.28 2.92,3.71 5.70,7.55 7.78,11 0.33,-0.79 0.56,-1.70 1.09,-2.31 1.28,-1.64 2.95,0.00 4.43,0.15 0.01,-0.00 0.01,-0.02 0.03,-0.03 -2.53,-3.17 -4.71,-5.81 -6.71,-8.21 -0.38,0.54 0.80,2.29 0.34,3.21 -1.26,1.83 -3.04,-0.67 -3.62,-1.90 -1.39,-1.59 1.05,-1.94 2.40,-2.37 -0.51,-0.61 -1.04,-1.27 -1.53,-1.84 z" id="p3852" style="fill:#170f06;fill-opacity:0.33;stroke:none;display:inline"/>
<path d="m 3.91,5.33 c -1.23,0.17 -2.80,1.33 -2.37,1.90 2.65,2.85 6.62,7.30 10.56,12.15 0.39,-1.04 0.20,-2.26 -0.96,-3 -0.88,-2.56 2.22,2.01 1.96,0.18 -1.28,-0.75 -0.93,-2.36 -0.12,-3.03 C 9.02,9.23 6.60,7.02 4.94,5.55 4.69,5.33 4.32,5.28 3.91,5.33 z" id="p3838" style="fill:#050303;fill-opacity:0.40;stroke:none;display:inline"/>
<path d="m 9.97,11.49 c -0.44,0.01 -0.90,0.11 -1.34,0.31 -1.71,0.65 0.72,1.97 0.96,2.93 0.71,1.38 2.49,1.82 2.81,3.43 0.79,1.06 2.04,-0.24 2.75,-0.81 0.27,-0.19 0.43,-0.45 0.56,-0.75 -1.72,-1.97 -3.21,-3.57 -4.5,-4.93 -0.41,-0.11 -0.82,-0.19 -1.24,-0.18 z" id="p3845" style="fill:#854b42;fill-opacity:0.08;stroke:none;display:inline"/>
<path d="m 7.63,7.99 c -0.43,0.19 -0.73,0.53 -0.46,1.03 0.94,0.29 0.37,1.68 1.56,1.68 0.51,0.16 1.54,0.01 1.93,0.37 -0.32,-0.33 -0.67,-0.72 -0.96,-1.03 -0.46,-0.01 -0.90,-0.11 -1.12,-0.49 0.11,-0.23 0.05,-0.42 0,-0.62 -0.32,-0.31 -0.64,-0.66 -0.93,-0.93 z m 3.12,3.15 c 0.09,0.14 0.12,0.35 0.03,0.65 -0.89,0.39 -0.46,1.66 0.28,1.96 0.84,0.64 -1.80,1.10 -0.84,0.03 0.38,-0.46 -0.13,-2.30 -0.62,-1.43 -0.30,0.64 -0.16,1.34 -0.81,1.75 0.01,0.54 0.58,1.12 1.06,1.43 0.94,-0.40 1.58,0.90 1.74,1.59 -0.43,1.01 1.04,1.09 1.68,1.34 0.50,-0.18 0.82,-1.24 1.37,-0.40 1.69,0.06 -0.69,-2.15 -1.21,-0.93 -0.39,0.42 -1.25,-0.66 -0.21,-0.53 0.78,-0.06 0.76,-0.98 1.28,-1.40 -0.28,-0.31 -0.54,-0.57 -0.81,-0.87 -0.07,0.09 -0.12,0.21 -0.15,0.37 -0.39,0.28 -1.08,-0.53 -1.40,0.28 -0.09,0.48 -1.22,0.60 -0.81,0.06 0.05,-0.19 2.00,-0.92 0.75,-1.53 -0.72,-0.22 -1.19,-0.97 -0.5,-1.46 -0.29,-0.31 -0.53,-0.61 -0.81,-0.90 z" id="p3923" style="fill:#3c211d;fill-opacity:0.49;stroke:none;marker:none;visibility:visible;display:inline;overflow:visible;enable-background:accumulate"/>
<path d="m 15.22,16.02 c -2.43,0.96 -3.27,1.68 -3.65,2.75 1.20,1.47 2.39,2.97 3.56,4.5 1.05,-1.75 2.66,-2.32 4.09,-2.59 -1.45,-1.72 -2.80,-3.30 -4,-4.65 z" id="p3831" style="fill:#4a4b45;fill-opacity:1;stroke:none;display:inline"/>
<path d="m 13.84,17.43 2.04,2.35" id="p4078" style="fill:none;stroke:#2b3339;stroke-width:1.39;stroke-linecap:round;stroke-linejoin:miter;stroke-miterlimit:4;stroke-opacity:0.40;stroke-dasharray:none"/>
<path d="m 16.20,18.45 c -0.21,0.72 -0.08,1.57 0.21,1.90" id="p4109" style="fill:none;stroke:#2b3235;stroke-width:1.60;stroke-linecap:round;stroke-linejoin:miter;stroke-miterlimit:4;stroke-opacity:0.41;stroke-dasharray:none"/>
<path d="m 12.66,17.35 c 0.78,0.97 3.41,4.19 3.71,4.51" id="p3963" style="fill:none;stroke:#b4a57f;stroke-width:0.80;stroke-linecap:butt;stroke-linejoin:miter;stroke-miterlimit:4;stroke-opacity:0.39;stroke-dasharray:none;display:inline"/>
<path d="m 14.95,20.21 0.93,1.12" id="p3966" style="fill:none;stroke:#e5e28d;stroke-width:0.40;stroke-linecap:round;stroke-linejoin:miter;stroke-miterlimit:4;stroke-opacity:0.55;stroke-dasharray:none;display:inline"/>
<path d="m 26.82,30.49 c -1.53,0.57 -3.68,1.94 -4.40,3.09 0.79,0.40 2.43,-0.67 4.62,-2.37 -0.06,-0.12 -0.12,-0.31 -0.12,-0.31 0,0 0.18,-0.24 0.37,-0.37 -0.00,-0.00 0.00,-0.02 0,-0.03 -0.00,-0.00 -0.02,0.00 -0.03,0 -0.13,-0.01 -0.28,-0.01 -0.43,0 z" id="p3829" style="fill:#958577;fill-opacity:1;stroke:none;display:inline"/>
<path d="m 16.62,21.68 0.86,1.11" id="p4175" style="fill:none;stroke:#f5f9a0;stroke-width:0.60;stroke-linecap:butt;stroke-linejoin:miter;stroke-miterlimit:4;stroke-opacity:0.41;stroke-dasharray:none"/>
<path d="m 20.57,22.27 c 0.12,0.84 0.16,1.70 0.34,2.53 0.19,0.80 -0.62,1.24 -1.21,0.75 -1.21,-0.19 -2.38,-0.63 -3.56,-0.93 2.20,2.92 4.26,5.83 5.84,8.5 0.20,-0.57 0.67,-1.01 1,-1.53 0.43,-0.59 0.93,-1.19 1.68,-1.40 0.56,-0.21 1.22,-0.40 1.68,-0.81 -2.13,-2.66 -4.03,-5.00 -5.78,-7.09 z" id="p4015" style="fill:#1b1c08;fill-opacity:0.30;stroke:none;display:inline"/>
<path d="m 26.93,30.38 c -1.53,0.57 -3.82,1.97 -4.54,3.12" id="p3829-2" style="fill:none;stroke:#070705;stroke-width:0.60;stroke-miterlimit:4;stroke-opacity:0.22;stroke-dasharray:none;display:inline"/>
<path d="m 17.08,22.45 c 1.28,1.66 7.11,9.48 7.36,9.86 0.25,0.38 2.30,-0.64 1.92,-0.96 -0.38,-0.32 -6.92,-9.35 -7.17,-9.54 -0.25,-0.19 -2.37,0.32 -2.11,0.64 z" id="p3833" style="fill:#3f3829;fill-opacity:1;stroke:none;display:inline"/>
<path d="m 20.91,24.05 c -0.25,0.41 -0.42,0.90 -0.59,1.34 -0.17,0.49 -0.06,0.97 0.06,1.46 1.15,1.55 1.82,2.44 2.56,3.43 0.29,-0.87 0.20,-1.84 0.59,-2.68 -0.93,-1.26 -1.80,-2.45 -2.62,-3.56 z" id="p4008" style="fill:#e0e39f;fill-opacity:0.10;stroke:none;display:inline"/>
<path d="m 1.54,6.80 c -0.07,0.16 -0.09,0.31 0,0.43 C 6.72,12.81 16.91,24.48 22.10,33.30 22.26,33.57 22.84,33.65 23.15,33.65 19.48,26.60 9.81,14.92 1.54,6.80 z" id="p3861" style="fill:#fbf9f5;fill-opacity:0.12;stroke:none;display:inline"/>
<path d="m 11.36,13.15 c 0.45,0.42 1.50,1.80 1.76,2.09" id="p4080" style="fill:none;stroke:#6b4c2d;stroke-width:1.60;stroke-linecap:round;stroke-linejoin:miter;stroke-miterlimit:4;stroke-opacity:0.13;stroke-dasharray:none"/>
<path d="m 15.51,16.37 c -0.50,0.08 -1.01,0.15 -1.43,0.40 -0.41,0.82 0.75,1.07 1.25,1.40 0.73,0.57 1.61,0.81 2.53,0.90 -0.80,-0.94 -1.63,-1.90 -2.34,-2.71 z" id="p4100" style="fill:#32393a;fill-opacity:0.66;stroke:none"/>
<path d="m 20.19,23.12 c -1.15,0.45 -0.48,2.37 0.78,2.5 1.23,0.76 0.99,2.04 0.90,3.25 0.64,0.86 1.29,1.73 1.62,2.18 0.65,-0.09 1.35,-0.54 1.81,-1.06 -1.39,-1.85 -3.76,-5.05 -5.12,-6.87 z" id="p4130" style="fill:#68645a;fill-opacity:0.22;stroke:none"/>
<path d="m 17.08,22.45 c 1.28,1.66 7.11,9.48 7.36,9.86 0.25,0.38 2.30,-0.64 1.92,-0.96" id="p3833-8" style="fill:none;stroke:#6e6959;stroke-width:0.2;stroke-linecap:round;stroke-miterlimit:4;stroke-opacity:1;stroke-dasharray:none;display:inline"/>
<path d="m 15.22,16.02 c -2.43,0.96 -3.27,1.68 -3.65,2.75 m 3.56,4.5 c 1.05,-1.75 2.66,-2.32 4.09,-2.59" id="p3831-5" style="fill:none;stroke:#cccece;stroke-width:0.40;stroke-miterlimit:4;stroke-opacity:0.11;stroke-dasharray:none;display:inline"/>
<path d="M 1.54,7.25 C 6.72,12.81 16.90,24.48 22.09,33.30 c 0.60,1.02 2.40,-0.12 4.93,-2.08 -0.06,-0.12 -0.12,-0.31 -0.12,-0.31 0,0 0.18,-0.25 0.37,-0.37 C 13.55,13.32 8.04,8.27 4.95,5.54 3.94,4.64 0.97,6.49 1.54,7.25 z" id="stroke01" style="fill:none;stroke:#171311;stroke-width:0.5;stroke-miterlimit:4;stroke-opacity:1;stroke-dasharray:none;display:inline"/>
</g>
<g id="g5303">
<path d="m 9.20,4.77 c 6.83,6.54 16.41,16.55 20.30,22.67 -0.75,0.90 -1.13,2.18 0.52,1.99 0.56,0.33 0.71,0.47 1.61,1.51 0.90,1.04 7.02,8.87 8.01,10.58 0.99,1.70 1.89,3.32 4.26,1.85 2.37,-1.47 1.70,-2.60 0.56,-4.17 C 43.36,37.65 36.01,27.93 34.96,26.88 34.87,26.46 34.72,26.17 34.91,25.51 34.82,25.08 34.20,24.65 33.02,25.22 31.88,23.85 31.26,23.75 29.79,22.04 28.32,20.33 14.18,4.35 9.20,4.77 z" id="p4257" style="fill:url(#lg5297);fill-opacity:1;stroke:none"/>
<path d="m 34.84,26.03 c -1.45,0.48 -3.00,1.71 -4.43,3.65 0.32,0.22 0.57,0.49 1.25,1.28 0.90,1.04 7.00,8.88 8,10.59 0.99,1.70 1.90,3.31 4.28,1.84 2.37,-1.47 1.70,-2.62 0.56,-4.18 -1.13,-1.56 -8.48,-11.29 -9.53,-12.34 -0.06,-0.29 -0.13,-0.51 -0.12,-0.84 z" id="p4277" style="fill:#433236;fill-opacity:1;stroke:none;display:inline"/>
<path d="m 21.43,15.5 c -0.44,0.05 -0.88,0.29 -1.09,0.62 2.13,2.33 4.10,4.64 5.81,6.78 0.01,0.00 0.01,0.02 0.03,0.03 1.49,1.00 3.35,0.07 2.81,-1.78 -0.44,-0.49 -1.02,-1.14 -1.75,-1.93 -0.64,0.14 -1.38,0.31 -1.90,-0.31 0.25,-0.21 0.54,-0.55 0.75,-0.93 -0.41,-0.43 -0.85,-0.90 -1.31,-1.37 -0.40,0.94 -0.90,1.78 -1.90,0.37 C 22.95,15.80 22.17,15.40 21.43,15.5 z" id="p4281" style="fill:#754d1a;fill-opacity:0.42;stroke:none;display:inline"/>
<path d="m 20.21,12.09 c -0.36,0.30 -0.51,0.91 -0.12,1.25 0.39,0.37 0.53,1.13 0.06,1.5 -0.17,0.17 -0.41,0.28 -0.62,0.43 0.73,0.78 1.45,1.55 2.15,2.34 0.18,-0.07 0.34,-0.18 0.5,-0.28 0.60,-0.29 1.24,-0.53 1.93,-0.43 0.30,0.06 0.65,0.09 0.93,0 -1.46,-1.53 -3.07,-3.17 -4.81,-4.81 -0.00,0.00 -0.02,-0.00 -0.03,0 z" id="p4417" style="fill:#5a5650;fill-opacity:0.19;stroke:none"/>
<path d="M 13.61,8.22 C 18.61,12.81 26.48,21.42 28.78,24.46" id="p4297" style="fill:none;stroke:#2e2e2e;stroke-width:0.80;stroke-linecap:round;stroke-linejoin:miter;stroke-miterlimit:4;stroke-opacity:0.22;stroke-dasharray:none;display:inline"/>
<path d="m 22.40,17.43 c 0.89,0.96 2.46,2.72 3.07,3.42" id="p4441" style="fill:none;stroke:#c88930;stroke-width:1px;stroke-linecap:round;stroke-linejoin:miter;stroke-opacity:0.26"/>
<path d="m 17.26,11.81 c 4.87,4.91 9.22,9.61 11.51,12.64" id="p4297-3" style="fill:none;stroke:#bbbbbb;stroke-width:0.30;stroke-linecap:round;stroke-linejoin:miter;stroke-miterlimit:4;stroke-opacity:0.09;stroke-dasharray:none;display:inline"/>
<path d="m 29.56,21.81 c -0.11,0.03 -0.23,0.07 -0.34,0.12 -0.98,0.34 -2.01,-0.26 -3,0.03 -0.18,0.09 -0.35,0.21 -0.53,0.34 0.73,0.90 1.44,1.76 2.06,2.59 0.03,-0.01 0.06,-0.01 0.09,-0.03 0.66,-0.26 1.39,-0.05 2.06,-0.31 0.50,-0.27 0.94,-0.66 1.40,-1 -0.42,-0.36 -0.89,-0.76 -1.53,-1.5 -0.03,-0.04 -0.16,-0.18 -0.21,-0.25 z" id="p4488" style="fill:#32302c;fill-opacity:0.20;stroke:none"/>
<path d="m 27.34,23.31 c -0.24,0.02 -0.50,0.08 -0.75,0.12 0.51,0.64 1.02,1.30 1.46,1.90 0.30,-0.16 0.62,-0.27 0.93,-0.40 0.26,-0.15 0.53,-0.22 0.81,-0.34 0.18,-0.09 0.52,-0.29 0.31,-0.53 -0.27,-0.28 -0.62,-0.51 -1.03,-0.56 -0.33,-0.01 -0.67,-0.09 -1,-0.15 -0.25,-0.05 -0.49,-0.05 -0.75,-0.03 z" id="p4501" style="fill:#b0aca5;fill-opacity:0.12;stroke:none"/>
<path d="m 31.18,23.43 c -0.23,0.05 -0.46,0.12 -0.68,0.21 -0.44,0.22 -0.94,0.37 -1.40,0.56 -0.45,0.18 -0.91,0.44 -1.28,0.78 0.64,0.87 1.20,1.70 1.68,2.46 -0.39,0.46 -0.66,1.02 -0.62,1.43 0.89,-0.02 1.68,-0.43 2.53,-0.68 0.75,-0.34 1.49,-0.69 2.28,-0.96 0.39,-0.09 0.85,-0.29 0.93,-0.75 0.09,-0.52 -0.04,-1.02 -0.25,-1.5 -0.00,-0.00 -0.02,0.00 -0.03,0 -0.31,-0.07 -0.73,-0.05 -1.31,0.21 -0.69,-0.84 -1.22,-1.23 -1.84,-1.78 z" id="p4286" style="fill:#594136;fill-opacity:1;stroke:none;display:inline"/>
<path d="M 28.21,24.68 C 28.07,24.78 27.94,24.88 27.81,25 c 0.64,0.87 1.20,1.70 1.68,2.46 -0.14,0.16 -0.27,0.35 -0.37,0.53 0.16,-0.06 0.33,-0.14 0.5,-0.31 0.74,-0.61 1.97,-0.33 2.56,-1.15 0.01,-0.45 -1.19,-0.49 -1.71,-0.71 -1.03,0.39 -1.64,-0.40 -2.25,-1.12 z" id="p4514" style="fill:#a48859;fill-opacity:0.20;stroke:none;display:inline"/>
<path d="m 32.25,24.37 c -1.02,0.52 -2.14,1.27 -3.21,2.37 0.15,0.24 0.32,0.48 0.46,0.71 -0.39,0.46 -0.66,1.02 -0.62,1.43 0.89,-0.02 1.68,-0.43 2.53,-0.68 0.75,-0.34 1.49,-0.69 2.28,-0.96 0.39,-0.09 0.85,-0.29 0.93,-0.75 0.09,-0.52 -0.04,-1.02 -0.25,-1.5 -0.00,-0.00 -0.02,0.00 -0.03,0 -0.31,-0.07 -0.73,-0.05 -1.31,0.21 C 32.74,24.87 32.49,24.61 32.25,24.37 z" id="p4526" style="fill:#7b7775;fill-opacity:0.16;stroke:none;display:inline"/>
<path d="m 34.87,26.37 c -0.29,0.05 -0.58,0.11 -0.87,0.18 -0.21,0.07 -0.43,0.17 -0.65,0.25 -0.74,0.49 -1.51,1.17 -2.25,2.03 -0.05,0.40 -0.18,0.77 -0.37,1.12 0.22,0.20 0.47,0.46 0.93,1 0.10,0.11 0.47,0.54 0.68,0.81 0.28,-0.98 0.61,-1.97 1.31,-2.75 C 34.34,28.54 35.16,28.27 36,28.12 35.53,27.54 35.14,27.04 34.96,26.87 34.92,26.69 34.89,26.54 34.87,26.37 z m 2.25,3.15 c -0.55,0.10 -1.08,0.34 -1.53,0.62 -0.93,0.66 -2.33,1.15 -2.46,2.46 0.01,0.06 -0.00,0.10 0,0.15 0.01,0.01 0.01,0.01 0.03,0.03 1.09,1.39 2.52,3.28 3.81,5 0.42,-0.92 1.12,-1.72 2.03,-2.18 0.64,-0.33 1.65,-0.34 2.09,-0.93 -0.55,-0.73 -0.75,-1.01 -1.34,-1.78 -0.46,-0.04 -0.96,0.04 -1.37,0.25 -1.10,-0.04 -1.86,0.80 -2.06,1.87 -0.87,0.64 -1.01,-1.10 -0.53,-1.65 0.60,-0.91 1.51,-1.69 2.65,-1.81 0.11,0.03 0.21,0.06 0.31,0.06 -0.56,-0.73 -1.12,-1.45 -1.62,-2.09 z m 4.65,6.15 c -0.68,0.16 -1.31,0.63 -1.90,1 -1.07,0.42 -1.32,1.62 -1.84,2.53 0.15,0.21 0.26,0.39 0.40,0.59 0.07,-0.12 0.12,-0.23 0.15,-0.34 0.57,-0.73 1.08,-1.73 2,-2.09 0.29,0.60 1.21,0.63 1.90,0.40 0.34,0.10 0.62,0.06 0.84,-0.06 -0.38,-0.51 -0.92,-1.27 -1.5,-2.03 -0.01,0.00 -0.04,-0.00 -0.06,0 z m 1.65,2.18 c -0.12,0.04 -0.23,0.10 -0.34,0.18 -1.13,0.39 -2.22,0.93 -3.15,1.71 -0.35,0.19 -0.64,0.52 -0.90,0.84 0.27,0.39 0.49,0.71 0.62,0.93 0.27,0.47 0.54,0.94 0.84,1.34 0.22,-0.14 0.43,-0.28 0.65,-0.43 0.93,-0.48 1.65,-1.28 2.40,-2 0.29,-0.44 0.83,-0.56 1.28,-0.78 C 44.73,39.53 44.61,39.38 44.5,39.21 44.37,39.05 43.71,38.20 43.46,37.87 c -0.00,0.00 -0.02,-0.00 -0.03,0 z" id="p4646" style="fill:#1e1d1d;fill-opacity:0.39;stroke:none;display:inline"/>
<path d="m 33.5,27.03 -1.75,1.53 c 1.74,1.97 4.39,5.33 6.71,8.53 1.94,2.68 3.64,5.29 4.43,6.78 0.31,-0.08 0.64,-0.23 1.03,-0.46 0.41,-0.25 0.69,-0.50 0.93,-0.75 C 43.91,40.85 42.23,38.39 40.31,35.75 37.95,32.49 35.33,29.11 33.5,27.03 z" id="p4848" style="fill:#a4a4a4;fill-opacity:0.09;stroke:none;marker:none;visibility:visible;display:inline;overflow:visible;enable-background:accumulate"/>
<path d="m 34.12,24.96 c -0.72,0.18 -1.59,0.53 -2.62,1.06 -0.85,0.43 -1.51,0.91 -2,1.43 -0.04,0.05 -0.08,0.10 -0.12,0.15 -0.66,0.88 -0.90,1.99 0.65,1.81 0.37,0.22 0.64,0.46 1,0.84 0.95,-1.50 2.25,-2.73 4.21,-3.09 -0.08,-0.09 -0.22,-0.25 -0.28,-0.31 -0.09,-0.42 -0.25,-0.71 -0.06,-1.37 -0.05,-0.26 -0.29,-0.49 -0.75,-0.53 -0.01,-8.73e-4 -0.01,5.82e-4 -0.03,0 z" id="p4279" style="fill:#626665;fill-opacity:1;stroke:none;display:inline"/>
<path d="m 31.96,25.81 c -0.16,0.07 -0.29,0.13 -0.46,0.21 -0.62,0.32 -1.13,0.66 -1.56,1.03 0.61,0.74 1.25,1.47 1.75,2.31 0.49,-0.60 1.08,-1.13 1.78,-1.53 -0.48,-0.68 -0.96,-1.38 -1.5,-2.03 z" id="p4582" style="fill:#f0efef;fill-opacity:0.22;stroke:none;display:inline"/>
<path d="m 23.64,18.49 c 0.38,0.44 0.92,0.99 1.28,1.44" id="p4443" style="fill:none;stroke:#f0eca1;stroke-width:0.40;stroke-linecap:round;stroke-linejoin:miter;stroke-miterlimit:4;stroke-opacity:0.33;stroke-dasharray:none"/>
<path d="m 26.06,21.06 c -0.39,-9.85e-4 -0.79,0.13 -1.12,0.34 0.74,0.89 1.44,1.75 2.09,2.59 0.17,-0.12 0.31,-0.28 0.5,-0.40 C 27.78,23.40 28.13,23.30 28.28,23 28.88,22.35 27.89,21.87 27.5,21.56 27.20,21.31 26.81,21.16 26.43,21.09 26.30,21.06 26.19,21.06 26.06,21.06 z" id="p4445" style="fill:#32302c;fill-opacity:0.18;stroke:none"/>
<path d="m 24.71,17.93 c 0.26,0.26 0.97,1.17 0.97,1.17" id="p4484" style="fill:none;stroke:#847b4f;stroke-width:1px;stroke-linecap:butt;stroke-linejoin:miter;stroke-opacity:0.12"/>
<path d="m 21.69,14.18 c 1.00,1.03 2.41,2.41 2.81,2.84" id="p4486" style="fill:none;stroke:#686868;stroke-width:1px;stroke-linecap:round;stroke-linejoin:miter;stroke-opacity:0.14"/>
<path d="m 34.12,24.96 c -0.72,0.18 -1.59,0.53 -2.62,1.06 -0.85,0.43 -1.51,0.91 -2,1.43 -0.04,0.05 -0.08,0.10 -0.12,0.15 -0.63,0.83 -1.09,1.77 0.20,1.73 1.27,-2.07 3.16,-3.30 5.25,-3.62 -0.05,-0.26 -0.21,-0.73 -0.67,-0.76 -0.01,-8.73e-4 -0.01,5.82e-4 -0.03,0 z" id="p4558" style="fill:#302e2e;fill-opacity:0.79;stroke:none;display:inline"/>
<path d="m 29.12,28.03 c -0.43,0.78 -0.42,1.55 0.90,1.40 0.37,0.22 0.64,0.46 1,0.84 0.09,-0.14 0.18,-0.29 0.28,-0.43 -0.08,-0.10 -0.17,-0.21 -0.25,-0.31 -0.38,-0.53 -0.88,-1.06 -1.56,-1.18 -0.12,-0.09 -0.24,-0.21 -0.37,-0.31 z" id="p4588" style="fill:#f0efef;fill-opacity:0.22;stroke:none;display:inline"/>
<path d="m 31.36,26.98 c -1.09,0.94 -1.99,2.11 -1.76,2.35" id="p4642" style="fill:none;stroke:#8a8a8a;stroke-width:0.5;stroke-linecap:round;stroke-linejoin:miter;stroke-miterlimit:4;stroke-opacity:0.44;stroke-dasharray:none"/>
<path d="m 31.12,27.69 0.62,0.70" id="p4644" style="fill:none;stroke:#fafafa;stroke-width:0.80;stroke-linecap:round;stroke-linejoin:miter;stroke-miterlimit:4;stroke-opacity:0.73;stroke-dasharray:none"/>
<path d="m 34.96,26.84 c -1.23,0.34 -2.39,0.90 -3.34,1.78 -0.40,0.33 -0.75,0.80 -0.93,1.31 0.23,0.20 0.48,0.47 0.96,1.03 0.08,0.10 0.38,0.50 0.56,0.71 0.36,-0.14 0.67,-0.41 0.87,-0.71 0.22,-0.33 1.21,-0.70 0.68,0 -0.66,0.87 0.04,2.06 1.09,2.03 0.37,0.62 -0.30,1.55 0.46,2.09 0.19,0.72 1.78,0.58 1.09,1.40 -0.11,0.04 -0.20,0.12 -0.31,0.18 0.33,0.44 0.64,0.85 0.96,1.28 0.34,-0.56 1.36,-0.76 1.06,-1.65 0.14,-0.73 1.18,-1.82 0.12,-2.34 -0.66,-0.31 -1.49,1.12 -1.75,-0.03 0.07,-0.73 1.01,-0.75 1.40,-1.31 0.31,-0.25 0.61,-0.59 0.81,-0.96 -0.91,-1.19 -1.75,-2.33 -2.43,-3.18 -0.24,0.14 -0.40,0.38 -0.40,0.68 -0.19,-0.38 -0.95,-0.94 -0.03,-0.93 0.05,-0.01 0.12,0.00 0.18,0 -0.50,-0.62 -0.91,-1.16 -1.09,-1.34 -0.00,-0.01 0.00,-0.02 0,-0.03 z m 0.96,2.93 c 0.55,0.24 -0.44,1.25 -0.06,0.43 0.03,-0.14 0.04,-0.28 0.06,-0.43 z m -2.84,0.68 c 0.17,-0.06 -0.00,0.12 0,0 z m 8.03,4.25 c -0.48,0.34 -0.93,0.69 -1.43,1 -0.88,0.73 -1.45,1.85 -2.43,2.46 0.32,0.43 0.68,0.89 0.96,1.28 0.08,-0.04 0.13,-0.07 0.15,-0.03 -0.03,0.03 -0.08,0.06 -0.12,0.09 0.65,0.89 1.17,1.63 1.40,2.03 0.15,0.26 0.31,0.50 0.46,0.75 0.72,0.36 1.46,0.72 2.18,1.09 0.44,0.14 0.96,0.20 1.43,0.09 0.06,-0.03 0.11,-0.05 0.18,-0.09 0.29,-0.18 0.54,-0.35 0.75,-0.53 0.01,-0.01 0.01,-0.02 0.03,-0.03 0.04,-0.07 0.09,-0.13 0.12,-0.21 0.31,-0.79 -0.27,-1.29 -0.90,-1.59 0.06,-0.00 0.11,-0.02 0.15,-0.06 0.50,-0.03 0.87,-0.46 0.96,-0.93 -0.16,-0.26 -0.35,-0.52 -0.56,-0.81 -0.21,-0.29 -1.24,-1.64 -1.81,-2.40 -0.02,0.03 -0.06,0.05 -0.09,0.09 -0.57,0.51 -0.51,1.72 -1.46,1.78 -0.62,-0.53 0.39,-1.62 0.96,-2 0.09,-0.08 0.20,-0.17 0.31,-0.25 -0.43,-0.58 -0.74,-1.01 -1.28,-1.71 z m -1.75,3.65 c 0.13,0.65 -0.66,0.08 0,0 z m 1.87,2.18 c 0.06,0.80 -1.06,0.03 0,0 z" id="p4769" style="fill:#171717;fill-opacity:0.29;stroke:none;marker:none;visibility:visible;display:inline;overflow:visible;enable-background:accumulate"/>
<path d="m 45.12,40.15 c -0.41,0.28 -0.83,0.56 -1.28,0.81 0.63,0.16 1.13,0.91 0.46,1.5 -0.67,0.58 -1.90,-0.05 -1.75,-0.78 -0.64,0.37 -1.27,0.81 -1.90,1.37 0.74,0.90 1.67,1.33 3.28,0.34 1.86,-1.15 1.83,-2.13 1.18,-3.25 z" id="p4736" style="fill:#636867;fill-opacity:1;stroke:none;display:inline"/>
<path d="m 31.54,26.84 c 0.48,-0.34 0.90,-0.55 1.07,-0.65" id="p4801" style="fill:none;stroke:#2c2c2c;stroke-width:0.5;stroke-linecap:round;stroke-linejoin:miter;stroke-miterlimit:4;stroke-opacity:1;stroke-dasharray:none;display:inline"/>
<path d="m 31.78,29.75 -0.68,0.59 c 0.15,0.17 0.31,0.33 0.56,0.62 0.90,1.04 7.00,8.88 8,10.59 0.27,0.47 0.54,0.94 0.84,1.34 l 0.84,-0.34 c -0.26,-0.64 -0.78,-1.48 -1.5,-2.53 -0.71,-1.04 -1.63,-2.25 -2.59,-3.5 C 35.33,34.03 33.19,31.38 31.78,29.75 z" id="p4804" style="fill:#ccbc96;fill-opacity:0.10;stroke:none;marker:none;visibility:visible;display:inline;overflow:visible;enable-background:accumulate"/>
<path d="m 38.37,32.93 c -0.09,0.01 -0.18,0.03 -0.28,0.06 -0.78,0.24 -1.25,0.99 -1.03,1.71 0.22,0.71 1.02,1.11 1.81,0.87 0.78,-0.24 1.25,-1.03 1.03,-1.75 C 39.71,33.21 39.05,32.85 38.37,32.93 z" id="p4862" style="color:#000000;fill:#454c44;fill-opacity:1;fill-rule:nonzero;stroke:none;marker:none;visibility:visible;display:inline;overflow:visible;enable-background:accumulate"/>
<path d="m 38.15,33.81 c -0.47,0 -0.86,0.21 -1.12,0.5 -0.00,0.14 -0.01,0.26 0.03,0.40 0.22,0.71 1.02,1.11 1.81,0.87 0.26,-0.08 0.51,-0.22 0.68,-0.40 0.01,-0.07 0.03,-0.14 0.03,-0.21 0,-0.62 -0.65,-1.15 -1.43,-1.15 z" id="p4865" style="color:#000000;fill:#828e81;fill-opacity:0.35;fill-rule:nonzero;stroke:none;marker:none;visibility:visible;display:inline;overflow:visible;enable-background:accumulate"/>
<path d="m 43.91,40.60 c 0,0.58 -0.44,1.06 -0.99,1.06 -0.55,0 -0.99,-0.47 -0.99,-1.06 0,-0.58 0.44,-1.06 0.99,-1.06 0.55,0 0.99,0.47 0.99,1.06 z" id="p4895" style="color:#000000;fill:#454c44;fill-opacity:1;fill-rule:nonzero;stroke:none;marker:none;visibility:visible;display:inline;overflow:visible;enable-background:accumulate"/>
<path d="m 42.78,40.25 c -0.33,0 -0.63,0.19 -0.81,0.46 0.05,0.53 0.42,0.96 0.93,0.96 0.35,0 0.66,-0.20 0.84,-0.5 C 43.68,40.67 43.28,40.25 42.78,40.25 z" id="p4895-5" style="color:#000000;fill:#828e81;fill-opacity:0.39;fill-rule:nonzero;stroke:none;marker:none;visibility:visible;display:inline;overflow:visible;enable-background:accumulate"/>
<path d="m 42.46,40.96 c -0.15,0 -0.27,0.03 -0.40,0.09 0.14,0.36 0.45,0.62 0.84,0.62 0.19,0 0.37,-0.05 0.53,-0.15 -0.18,-0.32 -0.55,-0.56 -0.96,-0.56 z" id="p4898" style="color:#000000;fill:#b6bab9;fill-opacity:0.71;stroke:none;marker:none;visibility:visible;display:inline;overflow:visible;enable-background:accumulate"/>
<path d="m 42.56,41.68 c -0.36,0.21 -0.73,0.45 -1.09,0.71 0.00,0.00 -0.00,0.02 0,0.03 0.16,0.38 0.54,0.65 1,0.65 0.36,0 0.67,-0.19 0.87,-0.46 -0.48,-0.13 -0.87,-0.50 -0.78,-0.93 z" id="p4736-1" style="fill:#868c8a;fill-opacity:0.75;stroke:none;display:inline"/>
<path d="m 45.12,40.15 c -0.41,0.28 -0.83,0.56 -1.28,0.81 0.63,0.16 1.13,0.91 0.46,1.5 -0.67,0.58 -1.90,-0.05 -1.75,-0.78 -0.64,0.37 -1.27,0.81 -1.90,1.37 0.74,0.90 1.67,1.33 3.28,0.34 1.86,-1.15 1.83,-2.13 1.18,-3.25 z" id="p4736-8" style="color:#000000;fill:none;stroke:#1f1f1f;stroke-width:0.2;stroke-linecap:butt;stroke-linejoin:round;stroke-miterlimit:4;stroke-opacity:1;stroke-dasharray:none;stroke-dashoffset:0;marker:none;visibility:visible;display:inline;overflow:visible;enable-background:accumulate"/>
<path d="m 30.89,26.86 c -0.47,0.35 -0.90,0.78 -1.05,1.01" id="p4580" style="fill:none;stroke:#c9c9c9;stroke-width:0.5;stroke-linecap:round;stroke-linejoin:miter;stroke-miterlimit:4;stroke-opacity:0.90;stroke-dasharray:none;display:inline"/>
<path d="m 29.53,27.55 c 1.62,-1.77 4.19,-2.51 4.19,-2.51" id="p4529" style="fill:none;stroke:#181818;stroke-width:0.30;stroke-linecap:butt;stroke-linejoin:miter;stroke-miterlimit:4;stroke-opacity:1;stroke-dasharray:none;display:inline"/>
<path d="M 31.03,30.28 C 31.98,28.77 33.28,27.54 35.25,27.18 35.16,27.09 35.02,26.92 34.96,26.87" id="p4279-2" style="fill:none;stroke:#404040;stroke-width:0.5;stroke-miterlimit:4;stroke-opacity:1;stroke-dasharray:none;display:inline"/>
<path d="m 38.37,32.93 c -0.09,0.01 -0.18,0.03 -0.28,0.06 -0.78,0.24 -1.25,0.99 -1.03,1.71 0.22,0.71 1.02,1.11 1.81,0.87 0.78,-0.24 1.25,-1.03 1.03,-1.75 C 39.71,33.21 39.05,32.85 38.37,32.93 z" id="p4862-0" style="color:#000000;fill:none;stroke:#1f1f1f;stroke-width:0.19;stroke-miterlimit:4;stroke-opacity:1;marker:none;visibility:visible;display:inline;overflow:visible;enable-background:accumulate"/>
<path d="m 37.85,34.99 c 0.27,0.18 0.55,0.21 0.80,0.18" id="p4893" style="fill:none;stroke:#d8d8d8;stroke-width:0.5;stroke-linecap:round;stroke-linejoin:miter;stroke-miterlimit:4;stroke-opacity:0.62;stroke-dasharray:none;display:inline"/>
<path d="m 43.91,40.60 c 0,0.58 -0.44,1.06 -0.99,1.06 -0.55,0 -0.99,-0.47 -0.99,-1.06 0,-0.58 0.44,-1.06 0.99,-1.06 0.55,0 0.99,0.47 0.99,1.06 z" id="p4895-7" style="color:#000000;fill:none;stroke:#1f1f1f;stroke-width:0.19;stroke-linecap:butt;stroke-linejoin:miter;stroke-miterlimit:4;stroke-opacity:1;stroke-dashoffset:0;marker:none;visibility:visible;display:inline;overflow:visible;enable-background:accumulate"/>
<path d="m 9.20,4.77 c 6.83,6.54 16.41,16.55 20.30,22.67 -0.75,0.90 -1.13,2.18 0.52,1.99 0.56,0.33 0.71,0.47 1.61,1.51 0.90,1.04 7.02,8.87 8.01,10.58 0.99,1.70 1.89,3.32 4.26,1.85 2.37,-1.47 1.70,-2.60 0.56,-4.17 C 43.36,37.65 36.01,27.93 34.96,26.88 34.87,26.46 34.72,26.17 34.91,25.51 34.82,25.08 34.20,24.65 33.02,25.22 31.88,23.85 31.26,23.75 29.79,22.04 28.32,20.33 14.18,4.35 9.20,4.77 z" id="stroke02" style="fill:none;stroke:#070605;stroke-width:0.5;stroke-miterlimit:4;stroke-opacity:1;stroke-dasharray:none;display:inline"/>
</g>
</g>
</svg>
