<?xml version="1.0" encoding="UTF-8" standalone="no"?>
<!DOCTYPE svg PUBLIC "-//W3C//DTD SVG 1.0//EN" "http://www.w3.org/TR/2001/REC-SVG-20010904/DTD/svg10.dtd">
<svg xmlns:svg="http://www.w3.org/2000/svg" xmlns="http://www.w3.org/2000/svg" xmlns:xlink="http://www.w3.org/1999/xlink" version="1.0" width="100%" height="100%" viewBox="0 0 48 48" id="_knife01">
<defs id="defs2987">
<linearGradient id="lg3964">
<stop id="s3966" style="stop-color:#b9bebf;stop-opacity:1" offset="0"/>
<stop id="s3968" style="stop-color:#b9bebf;stop-opacity:0" offset="1"/>
</linearGradient>
<radialGradient cx="11.07" cy="13.67" r="11.34" fx="11.07" fy="13.67" id="rg3970" xlink:href="#lg3964" gradientUnits="userSpaceOnUse" gradientTransform="matrix(-0.71,0.7,-1.65,-1.68,41.62,28.69)"/>
</defs>
<g id="knife01" style="display:inline">
<path d="m 3.41,7.46 c 2.47,14.42 13.85,19.86 20.11,23.52 1.13,-1.39 3.22,-0.37 2.65,2.08 0.75,0.82 0.94,0.82 1.32,-0.06 1.3,-3.04 3.16,-2.21 3.54,-1.83 0.37,0.37 2.21,2.59 4.11,4.36 1.89,1.77 3.16,1.58 4.11,3.35 0.94,1.77 2.27,3.28 4.74,3.35 C 45.44,41.1 46.2,37.11 43.81,34.58 41.42,32.06 35.22,27.63 32.5,25.54 29.78,23.46 22.76,18.08 20.74,16.44 14.03,13.97 13.34,14.22 3.41,7.46 z" id="p3121" style="fill:#f2e3ce;fill-opacity:1;stroke:none"/>
<path d="m 32.78,25.78 c -1.04,0.26 -1.97,0.77 -2.28,1.9 -0.46,0.99 -0.83,2.05 -0.96,3.15 0.71,-0.17 1.33,0.14 1.53,0.34 0.14,0.14 0.61,0.71 1.09,1.25 0.28,-0.4 0.53,-0.81 0.71,-1.09 0.79,-1.26 1.35,-2.68 1.87,-4.09 -0.64,-0.48 -1.47,-1.09 -1.96,-1.46 z" id="p4007" style="fill:#173140;fill-opacity:0.2;stroke:none;display:inline"/>
<path d="m 3.4,7.46 c 1.7,9.96 7.69,15.63 13.28,19.4 0.39,-1.67 2.87,-2.21 2.59,-4.12 -0.55,-1.4 -1.62,-2.61 -1.87,-4.15 -0.29,-1.1 -0.38,-2.3 -0.28,-3.47 C 13.36,13.76 11.16,12.75 3.4,7.46 z" id="p3999" style="fill:#ceb697;fill-opacity:0.23;stroke:none;display:inline"/>
<path d="m 3.4,7.46 c 1.89,11.08 9.06,16.81 15.12,20.56 1.35,-1 2.52,-2.35 3.31,-3.65 1.29,-1.93 1.49,-4.09 1.12,-6.21 -0.7,-0.57 -1.81,-1.4 -2.2,-1.73 C 14.04,13.97 13.33,14.23 3.4,7.46 z" id="p3991" style="fill:#ceb697;fill-opacity:0.23;stroke:none;display:inline"/>
<path d="m 32.71,25.71 c -1.13,1.76 -1.97,3.31 -2.09,5.18 0.19,0.08 0.35,0.19 0.43,0.28 0.37,0.37 2.19,2.57 4.09,4.34 1.89,1.77 3.17,1.6 4.12,3.37 0.94,1.77 2.28,3.28 4.75,3.34 1.45,-1.13 2.18,-5.12 -0.21,-7.65 -2.35,-2.48 -8.3,-6.74 -11.09,-8.87 z" id="p3909" style="fill:#0b1e2f;fill-opacity:1;stroke:none;display:inline"/>
<path d="M 3.4,7.46 C 5.87,21.88 17.27,27.33 23.53,31 c 0.43,-0.54 1.01,-0.72 1.53,-0.6 1,-1.65 1.45,-3 0.53,-3.78 C 21.34,23.01 14.37,18.65 11.12,12.4 9.25,11.33 6.91,9.85 3.4,7.46 z" id="p3911" style="fill:url(#rg3970);fill-opacity:1;stroke:none;display:inline"/>
<path d="M 3.4,7.46 C 5.87,21.88 17.27,27.33 23.53,31 23.66,30.83 23.81,30.69 23.96,30.59 8.96,21.83 6.49,16.51 4.31,8.06 3.99,7.84 3.74,7.69 3.4,7.46 z" id="p3913" style="fill:#ffffff;fill-opacity:0.82;stroke:none;display:inline"/>
<path d="m 7.68,10.31 c 0.02,0.3 0.07,0.63 0.15,0.93 0.59,1.37 1.12,2.79 2.12,3.93 1.03,1.31 1.91,2.95 3.53,3.62 0.71,0.16 1.11,-0.55 1.43,-1.18 C 13.44,16.04 12.11,14.3 11.12,12.4 10.14,11.85 9.01,11.16 7.68,10.31 z" id="p3972" style="fill:#6e6e6e;fill-opacity:0.13;stroke:none;display:inline"/>
<path d="m 25.84,26.9 c -0.13,0.25 -0.25,0.45 -0.43,0.81 -0.34,0.68 -0.79,1.67 -1.31,2.84 0.31,-0.16 0.65,-0.23 0.96,-0.15 0.89,-1.47 1.33,-2.69 0.78,-3.5 z" id="p4153" style="fill:#173140;fill-opacity:0.2;stroke:none;marker:none;visibility:visible;display:inline;overflow:visible;enable-background:accumulate"/>
<path d="m 25.96,27.15 c -0.67,0.52 -1.23,1.19 -1.59,1.96 -0.34,0.45 -0.47,0.99 -0.53,1.56 0.37,-0.29 0.82,-0.37 1.21,-0.28 0.8,-1.32 1.23,-2.45 0.9,-3.25 z" id="p3977" style="color:#000000;fill:#414141;fill-opacity:0.13;fill-rule:nonzero;stroke:none;marker:none;visibility:visible;display:inline;overflow:visible;enable-background:accumulate"/>
<path d="m 3.4,7.46 c 0.42,2.46 1.12,4.65 2,6.62 C 5.37,13.85 5.34,13.6 5.34,13.4 4.57,11.4 5.55,10.31 7,9.84 5.92,9.14 4.81,8.42 3.4,7.46 z" id="p3983" style="fill:#f7f7f7;fill-opacity:0.21;stroke:none;display:inline"/>
<path d="m 33.22,30.76 c -0.34,-0.09 -0.66,-0.26 -1.01,-0.32 -0.22,-0.08 -0.5,-0.2 -0.72,-0.04 -0.22,0.15 -0.24,0.56 0.02,0.67 0.46,0.23 1.02,0.31 1.4,0.7 0.18,0.2 0.3,0.44 0.47,0.66 0.12,0.15 0.22,0.34 0.37,0.48 0.12,0.11 0.35,0.03 0.25,-0.15 -0.07,-0.39 -0.33,-0.71 -0.43,-1.1 -0.1,-0.27 -0.32,-0.5 -0.36,-0.8 l 7e-5,-0.03 0,-0.03 5e-6,-3e-6 z" id="p4306" style="fill:#b0b089;fill-opacity:0.12;stroke:none;display:inline"/>
<path d="m 30.9,31.06 c 0.05,0.04 0.12,0.09 0.15,0.12 0.37,0.37 2.19,2.57 4.09,4.34 1.89,1.77 3.17,1.6 4.12,3.37 0.94,1.77 2.28,3.28 4.75,3.34 -0.82,-0.96 -1.55,-1.99 -2.37,-2.96 -0.74,-0.68 -1.41,-1.46 -2.18,-2.12 -0.93,-0.59 -1.9,-1.13 -2.81,-1.78 -0.98,-0.4 -1.77,-1.16 -2.34,-2.03 -0.67,-1.29 -2,-2.08 -3.41,-2.28 z" id="p4213" style="fill:#00050a;fill-opacity:0.56;stroke:none;display:inline"/>
<path d="m 32.71,25.71 c -1.13,1.76 -1.85,3.21 -2.09,5.18 0.03,0.01 0.05,0.04 0.09,0.06 0.05,-0.04 0.12,-0.09 0.18,-0.12 0.42,-0.34 0.9,-0.8 1.5,-0.68 0.49,0.05 1.1,0.15 1.46,-0.28 0.32,-0.35 0.59,-0.79 0.75,-1.25 0.12,-0.68 -0.34,-1.28 -0.78,-1.75 -0.18,-0.21 -0.35,-0.44 -0.5,-0.68 -0.16,-0.12 -0.47,-0.35 -0.62,-0.46 z" id="p4220" style="fill:#7db09f;fill-opacity:0.21;stroke:none;display:inline"/>
<path d="m 36.65,28.71 c -0.33,0.29 -0.58,0.67 -0.71,1.09 -0.37,0.93 -0.46,1.94 -0.53,2.93 0.1,1.55 1.33,2.74 2.59,3.5 1.15,0.73 2.46,1.38 3.18,2.59 0.84,1.11 1.68,2.22 2.59,3.28 0.03,0.04 0.08,0.08 0.12,0.12 0.04,0 0.08,0 0.12,0 1.45,-1.13 2.18,-5.12 -0.21,-7.65 -1.53,-1.62 -4.4,-3.82 -7.12,-5.87 0,0 -0.02,0 -0.03,0 z" id="p4229" style="fill:#7db09f;fill-opacity:0.21;stroke:none;display:inline"/>
<path d="m 40.34,31.56 c -1.2,0.33 -2.3,0.75 -1.87,2.25 -0.48,1.66 -2.55,0.68 -3.9,1.12 0.2,0.19 0.38,0.4 0.59,0.59 1.3,1.21 2.31,1.51 3.12,2.15 -0.03,-0.77 -0.14,-1.74 0.65,-1.9 1.06,-0.02 1.41,-0.7 1.25,-1.62 0.36,-1.14 2.43,0.46 1.34,-0.75 C 41.43,33.11 41.4,32.76 41.43,32.44 41.1,32.16 40.7,31.86 40.34,31.57 z" id="p4392" style="fill:#11172c;fill-opacity:0.22;stroke:none;display:inline"/>
<path d="m 34.46,27.03 c 0.04,0.57 0.13,1.14 0.65,1.5 0.73,1.19 -1.87,0.73 -1.28,1.96 0.45,0.94 0.87,1.94 1.5,2.78 0.93,1.14 2.03,2.15 3.25,3 1.06,0.56 2.31,0.93 3.03,1.96 0.79,0.94 1.42,1.98 1.9,3.12 0.07,0.35 0.26,0.64 0.5,0.87 1.45,-1.13 2.18,-5.12 -0.21,-7.65 -1.99,-2.1 -6.29,-5.28 -9.34,-7.56 z" id="p4276" style="fill:#b0b089;fill-opacity:0.18;stroke:none;display:inline"/>
<path d="m 35.53,27.84 c 0,1.13 0.69,2.28 1.81,2.62 1.93,1.14 3.64,2.64 5.28,4.18 0.48,0.59 1.33,1.2 1.21,2.03 -0.34,0.13 -1.13,-0.22 -1.06,0.56 0.2,0.93 0.75,1.76 0.81,2.75 0.08,0.73 0.21,1.51 0.46,2.21 1.43,-1.17 2.13,-5.11 -0.25,-7.62 -1.77,-1.87 -5.31,-4.53 -8.28,-6.75 z" id="p4281" style="fill:#b0b089;fill-opacity:0.27;stroke:none;display:inline"/>
<path d="m 33.76,27.14 c -0.18,-0.02 -0.37,0.04 -0.49,0.18 -0.19,0.15 -0.42,0.28 -0.54,0.51 -0.12,0.18 -0.18,0.43 -0.09,0.65 0.07,0.19 0.24,0.34 0.43,0.41 0.23,0.09 0.51,0.14 0.73,0 0.17,-0.11 0.32,-0.26 0.4,-0.46 0.05,-0.14 0.12,-0.29 0.14,-0.44 0,-0.21 -0.18,-0.36 -0.31,-0.5 -0.1,-0.09 -0.21,-0.19 -0.26,-0.33 z" id="p4315" style="fill:#b0b089;fill-opacity:0.08;stroke:none;display:inline"/>
<path d="m 32.71,25.71 c -0.44,0.69 -0.77,1.34 -1.06,2 0.12,0.13 0.26,0.24 0.31,0.43 0.11,0.19 0,0.64 0.34,0.59 0.19,-0.28 0.37,-0.58 0.5,-0.9 0.14,-0.54 0.46,-1 0.71,-1.5 -0.22,-0.17 -0.61,-0.47 -0.81,-0.62 z" id="p4325" style="fill:#232735;fill-opacity:0.45;stroke:none;display:inline"/>
<path d="m 42.34,33.21 c 0.1,0.44 0.16,0.88 0.4,1.28 0.25,0.55 -0.5,0.59 -0.62,0.12 -0.34,-0.44 -0.63,-1.05 -1.25,-1.15 -0.51,0.01 -0.27,0.57 0,0.75 0.43,0.63 -0.46,1.12 -0.31,1.75 0.12,0.6 0.64,0.98 1.15,1.25 0.63,0.32 0.97,0.98 1.21,1.62 0.24,0.69 0.51,1.39 0.75,2.09 0.06,0.42 0.68,0.55 0.62,0 0,-0.7 -0.49,-1.27 -0.59,-1.96 -0.11,-0.64 -0.12,-1.31 0.09,-1.93 0.17,-0.39 0.75,-0.68 1.09,-0.31 0.11,0.14 0.19,0.27 0.28,0.43 -0.22,-0.91 -0.64,-1.79 -1.37,-2.56 -0.39,-0.41 -0.9,-0.88 -1.46,-1.37 z" id="p4339" style="fill:#b0b089;fill-opacity:0.12;stroke:none;display:inline"/>
<path d="m 36.9,28.87 c 0.23,0.55 0.26,1.16 0.4,1.75 0.08,0.73 -0.52,1.39 -1.21,1.53 -0.24,0.04 -0.64,0.19 -0.18,0.15 0.5,-0.03 1.06,-0.22 1.53,0.06 0.63,0.24 0.9,0.95 1.06,1.56 0.15,0.44 0.3,0.86 0.43,1.31 -0.07,-0.45 -0.1,-0.93 -0.18,-1.39 -0.04,-0.81 0.42,-1.68 1.25,-1.91 0.2,-0.07 0.41,-0.12 0.62,-0.15 -1.24,-1.01 -2.4,-1.92 -3.72,-2.91 z m 2.03,6.37 c 0.03,0.19 0.05,0.37 0.12,0.56 0.22,0.53 0.06,-0.14 -0.05,-0.34 -0.03,-0.07 -0.05,-0.14 -0.07,-0.21 z" id="p4348" style="fill:#b0b089;fill-opacity:0.07;stroke:none;display:inline"/>
<path d="m 32.71,25.71 c -1.13,1.76 -1.68,3.26 -2.09,5.18" id="p3909-3" style="fill:none;stroke:#2a2d3a;stroke-width:0.30;stroke-miterlimit:4;stroke-opacity:1;stroke-dasharray:none;display:inline"/>
<path d="m 3.41,7.46 c 2.46,14.41 13.84,19.85 20.11,23.52 1.13,-1.39 3.22,-0.37 2.65,2.08 0.75,0.82 0.94,0.82 1.32,-0.06 1.3,-3.04 3.16,-2.21 3.54,-1.83 0.37,0.37 2.21,2.59 4.11,4.36 1.89,1.77 3.16,1.58 4.11,3.35 0.94,1.77 2.27,3.28 4.74,3.35 C 45.44,41.1 46.2,37.11 43.81,34.58 41.42,32.06 35.22,27.63 32.5,25.54 29.78,23.46 22.76,18.08 20.74,16.44 14.03,13.97 13.34,14.22 3.41,7.46 z" id="stroke01" style="fill:none;stroke:#000000;stroke-width:0.5;stroke-miterlimit:4;stroke-opacity:1;stroke-dasharray:none"/>
<path d="m 36.74,30.86 a 0.68,1.04 24.23 0 1 -1.43,0 0.68,1.04 24.23 1 1 1.43,0 z" id="p4409" style="color:#000000;fill:#f9f8ec;fill-opacity:0.87;fill-rule:nonzero;stroke:none;marker:none;visibility:visible;display:inline;overflow:visible;enable-background:accumulate"/>
<path d="m 42.16,35.66 a 0.62,1.03 26.65 0 1 -1.28,-0.13 0.62,1.03 26.65 1 1 1.28,0.13 z" id="p4409-7" style="color:#000000;fill:#f9f8ec;fill-opacity:0.87;fill-rule:nonzero;stroke:none;marker:none;visibility:visible;display:inline;overflow:visible;enable-background:accumulate"/>
</g>
</svg>
