<?xml version="1.0" encoding="UTF-8" standalone="no"?>
<!DOCTYPE svg PUBLIC "-//W3C//DTD SVG 1.0//EN" "http://www.w3.org/TR/2001/REC-SVG-20010904/DTD/svg10.dtd">
<svg xmlns:svg="http://www.w3.org/2000/svg" xmlns="http://www.w3.org/2000/svg" xmlns:xlink="http://www.w3.org/1999/xlink" version="1.0" width="100%" height="100%" viewBox="0 0 48 48" id="_knife03">
<defs id="defs2987">
<linearGradient id="lg3996">
<stop id="s3998" style="stop-color:#13294c;stop-opacity:0.46" offset="0"/>
<stop id="s4000" style="stop-color:#bde2e2;stop-opacity:0.55" offset="1"/>
</linearGradient>
<linearGradient id="lg3953">
<stop id="s3955" style="stop-color:#c2dfff;stop-opacity:1" offset="0"/>
<stop id="s3957" style="stop-color:#7e9fc1;stop-opacity:1" offset="1"/>
</linearGradient>
<radialGradient cx="10.79" cy="39.72" r="20.78" fx="10.79" fy="39.72" id="rg3959" xlink:href="#lg3953" gradientUnits="userSpaceOnUse" gradientTransform="matrix(0.25,0.25,-1.55,1.59,69.84,-27.62)"/>
<radialGradient cx="8.39" cy="44.47" r="14.78" fx="8.39" fy="44.47" id="rg4002" xlink:href="#lg3996" gradientUnits="userSpaceOnUse" gradientTransform="matrix(0.66,0.83,-1.69,1.35,78.27,-25.35)"/>
<radialGradient cx="8.39" cy="44.47" r="14.78" fx="8.39" fy="44.47" id="rg3044" xlink:href="#lg3996" gradientUnits="userSpaceOnUse" gradientTransform="matrix(0.66,0.83,-1.69,1.35,78.27,-25.35)"/>
<radialGradient cx="10.79" cy="39.72" r="20.78" fx="10.79" fy="39.72" id="rg3048" xlink:href="#lg3953" gradientUnits="userSpaceOnUse" gradientTransform="matrix(0.25,0.25,-1.55,1.59,69.84,-27.62)"/>
</defs>
<g id="knife03" style="display:inline">
<path d="m 42.46,6.65 c -5.21,0.89 -8.51,5.43 -9.84,7.1 -1.33,1.66 -1.9,1.91 -3.81,2.87 -0.8,3.49 -2.55,2.11 -3.31,3.38 1.82,0.52 -1.71,3.23 -3.87,5.5 -2.05,2.15 -3.7,3.55 -5.03,5.43 -1.33,1.88 -6.82,6.97 -13.81,13.18 13.65,2.62 16.5,-7.28 29.15,-19.84 0.33,-2.1 1.4,-2.13 2.43,-2 1.22,0.16 1.6,0.78 3.93,0.78 0.49,-1.19 0.92,-1.55 2.03,-2 0.55,-1.44 0.44,-1.88 2,-2.43 0.44,-1.21 0.44,-1.67 2,-2.56 -0.27,-1.2 0,-1.33 -0.12,-2.09 -0.21,-1.33 -1.43,-2.43 -1.43,-2.43 0,0 0.1,-0.23 0.21,-0.34 -0.22,-1.1 -1.31,-2.21 -1.31,-2.21 0,0 0.44,-1.09 0.78,-2.31 z m -2.15,5.53 c 0.09,-0.01 0.18,-0.01 0.31,0 0.99,0.15 2.2,1.21 2.12,2.53 -0.07,1.31 -1.1,1.53 -2.34,2.96 -1.23,1.43 -2.16,3.67 -3.43,3.75 -1.27,0.07 -1.54,-0.25 -2.18,-0.93 0,-0.11 0.21,-0.28 0.21,-0.28 0,0 -1.07,-1.47 -0.31,-2.43 0.75,-0.95 0.83,-0.49 3.03,-2.68 1.78,-1.81 1.92,-2.79 2.59,-2.9 z" id="p3151" style="fill:url(#rg3048);fill-opacity:1;stroke:none"/>
<path d="m 21.84,25.28 c -0.07,0.07 -0.15,0.14 -0.22,0.22 -2.05,2.15 -3.7,3.55 -5.03,5.43 -0.24,0.35 -0.69,0.84 -1.21,1.4 0.41,1.37 0.08,2.84 -1.46,4 -2.58,2.88 2.39,-0.45 3.37,-1.43 1.45,-3.1 3.7,-0.4 3.15,1.96 -0.02,0.09 -0.04,0.18 -0.06,0.28 1.57,-1.74 3.32,-3.74 5.18,-5.9 -0.03,-0.18 -0.06,-0.38 -0.09,-0.56 -0.52,-2.08 -2.22,-3.67 -3.62,-5.4 z" id="p4006" style="fill:#e0f0f7;fill-opacity:0.22;stroke:none;display:inline"/>
<path d="m 30.25,21.37 c -0.12,0.03 -0.23,0.13 -0.34,0.25 -11.28,11.55 -13.19,15.94 -20,18.28 -2.23,1.46 -5.06,3.21 -6.81,4.28 13.38,2.4 16.28,-7.44 28.84,-19.9 0.13,-0.83 0.4,-1.32 0.71,-1.62 -1.01,-0.82 -1.82,-1.45 -2.4,-1.29 z" id="p3942" style="fill:url(#rg3044);fill-opacity:1;stroke:none"/>
<path d="m 29.62,22.31 c -0.63,-0.03 -1.27,0.26 -1.65,1.09 -1.15,1.18 0.29,2.6 1.06,3.9 0.92,-0.99 1.86,-1.99 2.9,-3.03 0.02,-0.14 0.06,-0.24 0.09,-0.37 -0.26,-0.16 -0.51,-0.32 -0.65,-0.56 -0.47,-0.6 -1.11,-0.99 -1.75,-1.03 z m -12.87,8.44 c -0.04,0.06 -0.1,0.12 -0.15,0.18 -0.99,1.4 -4.33,4.62 -8.87,8.75 0.83,-0.29 1.67,-0.59 2.52,-0.9 1.36,-0.36 0.21,0.76 -0.04,1.22 1.08,-0.51 2.98,-1.39 3.04,0.56 -0.23,1.84 -2.39,2.5 -3.82,3.25 C 9,44.13 8.37,44.28 7.81,44.5 13.55,44.18 17.18,40.84 21.5,35.9 20.43,35.78 19.75,33.87 18.56,33.59 17.78,32.78 17.58,31.46 16.75,30.75 z" id="p4055" style="fill:#e0f0f7;fill-opacity:0.06;stroke:none;display:inline"/>
<path d="m 39.53,7.62 c -3.52,1.67 -5.84,4.8 -6.9,6.12 -1.02,1.27 -1.61,1.7 -2.68,2.28 0,1.01 0.1,1.14 0.75,1.78 0.88,0.88 2,2.13 2.59,2.65 0.26,0.23 0.82,0.22 1.5,0.03 0,-0.11 0.21,-0.28 0.21,-0.28 0,0 -1.07,-1.47 -0.31,-2.43 0.75,-0.95 0.83,-0.49 3.03,-2.68 1.78,-1.81 1.92,-2.79 2.59,-2.9 0.09,-0.01 0.18,-0.01 0.31,0 0.39,0.06 0.82,0.26 1.18,0.56 l 1.15,-1.71 C 42.78,10.35 42.31,9.72 42,9.34 41.19,8.73 40.34,8.08 39.53,7.62 z" id="p4081" style="fill:#405566;fill-opacity:1;stroke:none;display:inline"/>
<path d="m 29.12,16.46 c -0.11,0.06 -0.19,0.1 -0.31,0.16 -0.8,3.49 -2.55,2.11 -3.31,3.38 0.65,0.18 0.62,0.65 0.21,1.28 0.18,0.08 0.36,0.16 0.56,0.21 0.7,0.17 1.32,0.62 2.03,0.78 0.79,0.06 1.54,-0.33 2.21,-0.65 0.53,-0.19 1.9,-0.57 1.09,-1.28 -0.38,-0.66 -1.17,-0.95 -1.71,-1.5 -0.81,-0.39 -0.85,-1.16 -0.84,-2.03 0.03,-0.11 0.04,-0.22 0.06,-0.34 z" id="p4120" style="fill:#e0f0f7;fill-opacity:0.16;stroke:none;display:inline"/>
<path d="m 34.87,20.59 c -0.3,0.22 -0.6,0.46 -0.9,0.68 -0.84,0.24 -1.74,-0.02 -2.5,-0.4 -0.23,-0.16 -1.12,-0.04 -0.53,0.25 0.65,0.4 1.3,0.84 1.87,1.37 0.45,-0.31 1,-0.29 1.56,-0.21 1.22,0.16 1.6,0.78 3.93,0.78 0.03,-0.07 0.06,-0.11 0.09,-0.18 -0.14,-0.22 -0.26,-0.45 -0.43,-0.65 -0.21,-0.28 -0.42,-0.58 -0.62,-0.87 -0.12,0.04 -0.24,0.08 -0.37,0.09 -1.2,0.07 -1.52,-0.23 -2.09,-0.84 z" id="p4124" style="fill:#def7f9;fill-opacity:0.15;stroke:none;display:inline"/>
<path d="m 31.59,14.9 c -0.5,0.46 -1,0.77 -1.65,1.12 0,1.01 0.1,1.14 0.75,1.78 0.88,0.88 2,2.13 2.59,2.65 0.26,0.23 0.82,0.22 1.5,0.03 0,-0.11 0.21,-0.28 0.21,-0.28 0,0 -1.07,-1.47 -0.31,-2.43 0.07,-0.08 0.12,-0.11 0.18,-0.18 -0.35,-0.21 -0.73,-0.42 -1.03,-0.65 -0.04,-0.97 -0.69,-1.48 -1.65,-1.62 -0.25,-0.07 -0.44,-0.22 -0.59,-0.4 z" id="p4255" style="fill:#8e8b77;fill-opacity:0.15;stroke:none;display:inline"/>
<path d="m 31.37,15.09 c -0.43,0.36 -0.87,0.63 -1.43,0.93 0,1.01 0.1,1.14 0.75,1.78 0.88,0.88 2,2.13 2.59,2.65 0.16,0.14 0.47,0.19 0.84,0.15 -0.03,-0.53 -0.08,-1.06 -0.37,-1.53 -0.33,-0.63 -0.66,-1.23 -1.06,-1.81 -0.42,-0.56 -0.92,-1.02 -1.21,-1.68 -0.01,-0.16 -0.06,-0.33 -0.09,-0.5 z" id="p4275" style="fill:#8d8a78;fill-opacity:0.15;stroke:none;display:inline"/>
<path d="m 30.12,15.93 c -0.06,0.03 -0.11,0.05 -0.18,0.09 0,1.01 0.1,1.14 0.75,1.78 0.88,0.88 2,2.13 2.59,2.65 0.26,0.23 0.82,0.22 1.5,0.03 0,-0.11 0.21,-0.28 0.21,-0.28 0,0 -0.05,-0.09 -0.09,-0.15 -1.04,0.51 -1.55,-0.68 -2.09,-1.34 -0.59,-0.65 -1.27,-1.22 -1.87,-1.87 -0.47,-0.13 -0.72,-0.48 -0.81,-0.9 z" id="p4132" style="fill:#1a1811;fill-opacity:0.41;stroke:none;display:inline"/>
<path d="m 34.84,11.15 c -0.28,0.3 -0.56,0.59 -0.81,0.87 0.11,0.1 0.24,0.21 0.34,0.34 0.26,0.61 0.55,1.37 0.15,2 -0.3,0.41 -0.95,0.17 -1.15,-0.21 -0.14,-0.32 -0.07,-0.71 -0.25,-1.03 -0.16,0.2 -0.37,0.46 -0.5,0.62 -0.11,0.14 -0.2,0.24 -0.31,0.37 0.05,0.05 0.11,0.11 0.18,0.15 0.42,0.38 0.96,0.62 1.34,1.06 0.47,0.66 0.5,1.59 1.09,2.18 0.55,-0.58 0.86,-0.51 2.78,-2.43 0.02,-0.02 0.03,-0.06 0.06,-0.09 -0.02,-0.22 -0.04,-0.44 -0.12,-0.65 -0.34,-0.49 -0.71,-0.99 -1.12,-1.43 -0.19,-0.53 -0.69,-0.81 -1.03,-1.25 -0.2,-0.16 -0.43,-0.34 -0.65,-0.5 z" id="p4137" style="fill:#161821;fill-opacity:0.16;stroke:none;display:inline"/>
<path d="m 39.53,7.62 c -0.1,0.05 -0.2,0.1 -0.31,0.15 -0.06,0.37 -0.13,0.73 -0.25,1.09 -0.27,0.77 -1.01,1.13 -1.46,1.75 -0.54,0.88 0.48,1.17 1.15,0.87 0.77,0 1.39,-0.48 1.68,-1.18 C 40.62,9.69 41.2,9.36 41.84,9.21 41.08,8.64 40.29,8.05 39.53,7.62 z" id="p4142" style="fill:#161821;fill-opacity:0.1;stroke:none;display:inline"/>
<path d="m 38.9,7.96 c -0.91,0.5 -1.76,1.06 -2.5,1.68 0.37,0.46 0.7,0.96 1.09,1.43 0.47,0.62 0.38,1.49 0.65,2.21 0.09,0.42 0.08,0.85 0.03,1.28 1.34,-1.49 1.51,-2.3 2.12,-2.4 0.09,-0.01 0.18,-0.01 0.31,0 0.39,0.06 0.82,0.26 1.18,0.56 l 1.15,-1.71 C 42.85,10.59 42.61,10.21 42.37,9.87 42.02,10 41.65,10.09 41.28,10.15 40.45,10.51 39.38,10.21 39.12,9.28 38.98,8.92 38.98,8.4 38.9,7.96 z" id="p4261" style="fill:#aaa07c;fill-opacity:0.07;stroke:none;display:inline"/>
<path d="m 41.37,11.56 c -0.3,0 -0.52,-0.02 -0.9,0.15 -0.23,0.17 -0.55,0.33 -0.65,0.58 0.16,-0.21 0.62,-0.06 0.8,-0.11 0.39,0.06 0.82,0.26 1.18,0.56 0.2,-0.22 0.24,-0.42 0.36,-0.7 -0.12,-0.1 -0.57,-0.48 -0.79,-0.48 z" id="p4148" style="fill:#070708;fill-opacity:0.63;stroke:none;display:inline"/>
<path d="m 35.5,10.5 c -1.06,1.02 -1.85,1.98 -2.43,2.71 0.03,0.08 0.08,0.16 0.12,0.25 0.37,0.32 0.6,0.79 1.03,1.06 0.51,-0.28 0.91,-0.75 1.21,-1.25 0.2,-0.39 0.65,-0.65 0.71,-1.12 0.05,-0.29 -0.24,-0.45 -0.31,-0.71 -0.1,-0.28 -0.14,-0.61 -0.31,-0.87 0,-0.03 -0.02,-0.05 -0.02,-0.07 z" id="p4266" style="fill:#aaa07c;fill-opacity:0.07;stroke:none;display:inline"/>
<path d="m 42.21,12.21 -0.4,0.56 c 0.55,0.46 0.98,1.14 0.93,1.93 -0.02,0.37 -0.19,0.98 -0.35,1.23 0.99,-0.96 1.26,-2.24 -0.17,-3.73 z" id="p4347" style="fill:#1d272d;fill-opacity:0.36;stroke:none;display:inline"/>
<path d="m 43.75,12.78 c -0.14,0.36 -0.27,0.75 -0.25,1.15 -0.01,0.25 0,0.48 0.09,0.71 0.06,0.27 0.13,0.56 0.28,0.81 0.1,0.22 0.24,0.43 0.4,0.62 0.02,-0.01 0.03,-0.01 0.06,-0.03 -0.27,-1.2 0,-1.33 -0.12,-2.09 -0.06,-0.43 -0.25,-0.82 -0.46,-1.18 z" id="p4385" style="fill:#e0f3f8;fill-opacity:0.2;stroke:none"/>
<path d="m 40.03,18.15 c -1.05,1.4 -1.91,3.2 -3.06,3.28 -0.65,0.04 -1.06,-0.01 -1.37,-0.18 -0.08,0.43 -0.29,0.81 -0.53,1.18 0.78,0.24 1.41,0.62 3.25,0.62 0.49,-1.19 0.92,-1.55 2.03,-2 0.45,-1.17 0.49,-1.67 1.31,-2.12 -0.43,-0.21 -0.97,-0.35 -1.28,-0.62 -0.11,-0.06 -0.23,-0.11 -0.34,-0.15 z" id="p4410" style="fill:#e0f3f8;fill-opacity:0.15;stroke:none"/>
<path d="m 30.46,21.34 c -0.08,0 -0.14,0.01 -0.21,0.03 -0.12,0.03 -0.23,0.13 -0.34,0.25 -0.18,0.19 -0.31,0.34 -0.5,0.53 0.4,0.12 0.79,0.28 1.18,0.43 0.35,0.15 0.71,0.3 1.06,0.46 0.16,0.11 0.33,0.22 0.5,0.34 0.13,-0.32 0.31,-0.57 0.5,-0.75 -0.88,-0.71 -1.62,-1.29 -2.18,-1.31 z" id="p4434" style="fill:#3c4364;fill-opacity:0.12;stroke:none;display:inline"/>
<path d="m 39.53,7.62 c -0.09,0.04 -0.16,0.11 -0.25,0.15 -0.34,0.74 -0.61,1.51 -0.28,2.29 0.72,1.09 2.32,0.77 3.28,0.18 0.07,-0.07 0.15,-0.13 0.25,-0.18 C 42.43,9.91 42.34,9.81 42.25,9.68 42.02,9.79 41.79,9.91 41.56,10 40.8,10.7 38.94,9.96 39.84,8.96 40.29,9.65 41.13,9.57 41.87,9.25 41.75,9.15 41.62,9.06 41.5,8.96 41.47,8.97 41.46,8.99 41.43,9 40.55,9.37 40.25,8.79 40.31,8.12 40.05,7.95 39.78,7.76 39.53,7.62 z m -0.16,1.34 c -0.08,0.66 -0.34,0.65 0,0 z m -1.91,0.66 c -0.15,0.01 -0.3,0.06 -0.46,0.13 -0.29,0.29 -1.03,0.66 -1.37,0.62 0,0 -0.02,0 -0.03,0 -0.45,0.43 -0.87,0.89 -1.25,1.31 0,0.01 -0.02,0.01 -0.03,0.03 -0.01,0.04 -0.02,0.08 -0.03,0.12 -0.26,0.49 -0.32,1.75 -0.46,1.84 -0.07,-0.53 0.02,-1.05 0.15,-1.56 -0.23,0.27 -0.42,0.47 -0.62,0.71 -0.01,0.15 -0.01,0.33 0,0.5 -0.06,1.28 1.22,2.44 2.5,2.12 0.57,-0.03 1.16,-0.13 1.75,-0.25 0.05,-0.05 0.07,-0.07 0.12,-0.12 0.22,-0.22 0.41,-0.45 0.59,-0.65 -0.38,0.34 -0.88,0.27 -0.15,0.06 l 0.15,-0.06 C 39.04,13.6 39.4,13.05 39.69,12.67 39.37,12.56 39.2,12.34 39.44,11.8 39.52,10.7 38.57,9.52 37.46,9.62 z M 37.53,10 c 0.63,0.05 1.45,0.74 0.53,0.37 -0.28,-0.09 -0.9,0.14 -1.03,-0.15 0.1,-0.18 0.28,-0.23 0.5,-0.21 z m -0.16,0.68 c 1.24,-0.14 2.1,1.86 1.06,2.65 -0.94,0.03 0.69,-1.15 -0.06,-1.68 -0.2,-0.49 -0.69,-0.9 -1.25,-0.9 0.08,-0.02 0.16,-0.05 0.25,-0.06 z m -0.75,0.09 c 0.85,0.05 1.76,1.27 1.25,1.62 -0.29,-1.29 -2.4,-1.33 -2.68,0 -0.39,1.1 0.89,2.45 2,1.84 0.45,-0.28 1.91,-0.61 0.68,-0.06 -1.02,0.32 -2.54,0.64 -3.34,-0.21 -0.54,-1.01 0.09,-2.29 0.93,-2.93 0.25,-0.12 0.53,-0.18 0.81,-0.18 0.11,-0.04 0.22,-0.07 0.34,-0.06 z m -0.21,1 c 0.13,-0.01 0.3,0 0.46,0.06 1.16,0.35 0.48,2.48 -0.65,2.09 -1.04,-0.4 -0.78,-2.06 0.18,-2.15 z m -3.79,1.98 c -0.12,0.15 -0.22,0.27 -0.34,0.4 0.07,0.24 0.17,0.49 0.34,0.71 0.8,1.09 2.14,1.65 3.5,1.68 0.14,-0.11 0.3,-0.23 0.5,-0.4 -0.44,0.03 -0.89,0.01 -1.31,-0.06 -1.22,-0.21 -2.51,-1.03 -2.69,-2.33 z m 1.4,0.5 c 0.75,0.79 1.92,0.57 2.9,0.65 -0.96,0.17 -2.39,0.48 -2.9,-0.65 z m -2.62,0.84 c -0.15,0.13 -0.33,0.26 -0.5,0.37 1.57,0.06 3.14,1.04 3.62,2.59 0.04,-0.09 0.08,-0.19 0.15,-0.28 0.03,-0.04 0.06,-0.05 0.09,-0.09 -0.55,-1.3 -1.73,-2.32 -3.15,-2.53 -0.06,-0.02 -0.14,-0.05 -0.21,-0.06 z m -0.31,1.34 c -0.3,0.01 -0.62,0.06 -0.9,0.12 -0.07,-0.01 -0.13,-0.03 -0.21,-0.03 0.01,0.17 0.01,0.31 0.06,0.43 0.75,-0.16 1.54,-0.2 2.28,0 1.06,0.5 1.03,1.88 0.87,2.87 -0.01,0.15 -0.03,0.31 -0.06,0.46 0.04,0.04 0.11,0.12 0.15,0.15 0.05,0.05 0.13,0.09 0.21,0.12 0.18,-1.05 0.28,-2.14 -0.06,-3.15 -0.48,-0.82 -1.43,-1.03 -2.34,-1 z" id="p4489" style="fill:#211c11;fill-opacity:0.1;stroke:none;marker:none;visibility:visible;display:inline;overflow:visible;enable-background:accumulate"/>
<path d="m 39.53,7.62 c -3.52,1.67 -5.84,4.8 -6.9,6.12 -1.02,1.27 -1.61,1.7 -2.68,2.28 0,1.01 0.1,1.14 0.75,1.78 0.88,0.88 2,2.13 2.59,2.65 0.26,0.23 0.82,0.22 1.5,0.03 0,-0.11 0.21,-0.28 0.21,-0.28 0,0 -1.07,-1.47 -0.31,-2.43 0.75,-0.95 0.83,-0.49 3.03,-2.68 1.78,-1.81 1.92,-2.79 2.59,-2.9 0.09,-0.01 0.18,-0.01 0.31,0 0.39,0.06 0.82,0.26 1.18,0.56 l 1.15,-1.71 C 42.78,10.35 42.31,9.72 42,9.34 41.19,8.73 40.34,8.08 39.53,7.62 z" id="p4081-0" style="fill:none;stroke:#263b3b;stroke-width:0.30;stroke-miterlimit:4;stroke-opacity:1;stroke-dasharray:none;display:inline"/>
<path d="M 3.06,44.07 C 5.46,42.63 6.51,41.96 9.29,40.23 17.43,32.28 20.5,29.12 19.54,27.87" id="p4004" style="fill:none;stroke:#d4f6f1;stroke-width:0.30;stroke-linecap:round;stroke-linejoin:miter;stroke-miterlimit:4;stroke-opacity:0.72;stroke-dasharray:none"/>
<path d="m 42.46,6.65 c -5.21,0.89 -8.51,5.43 -9.84,7.1 -1.33,1.66 -1.9,1.91 -3.81,2.87 -0.8,3.49 -2.55,2.11 -3.31,3.38 1.82,0.52 -1.71,3.23 -3.87,5.5 -2.05,2.15 -3.7,3.55 -5.03,5.43 -1.33,1.88 -6.82,6.97 -13.81,13.18 13.65,2.62 16.5,-7.28 29.15,-19.84 0.33,-2.1 1.4,-2.13 2.43,-2 1.22,0.16 1.6,0.78 3.93,0.78 0.49,-1.19 0.92,-1.55 2.03,-2 0.55,-1.44 0.44,-1.88 2,-2.43 0.44,-1.21 0.44,-1.67 2,-2.56 -0.27,-1.2 0,-1.33 -0.12,-2.09 -0.21,-1.33 -1.43,-2.43 -1.43,-2.43 0,0 0.1,-0.23 0.21,-0.34 -0.22,-1.1 -1.31,-2.21 -1.31,-2.21 0,0 0.44,-1.09 0.78,-2.31 z m -2.15,5.53 c 0.09,-0.01 0.18,-0.01 0.31,0 0.99,0.15 2.2,1.21 2.12,2.53 -0.07,1.31 -1.1,1.53 -2.34,2.96 -1.23,1.43 -2.16,3.67 -3.43,3.75 -1.27,0.07 -1.54,-0.25 -2.18,-0.93 0,-0.11 0.21,-0.28 0.21,-0.28 0,0 -1.07,-1.47 -0.31,-2.43 0.75,-0.95 0.83,-0.49 3.03,-2.68 1.78,-1.81 1.92,-2.79 2.59,-2.9 z" id="stroke01" style="fill:none;stroke:#141f24;stroke-width:0.5;stroke-miterlimit:4;stroke-opacity:1;stroke-dasharray:none;display:inline"/>
<path d="m 9.3,40.27 c 4.26,-1.19 7.5,-4.74 9.07,-6.39 1.58,-1.66 10.33,-11.36 10.89,-11.76" id="p4079" style="fill:none;stroke:#f9fbfb;stroke-width:0.40;stroke-linecap:round;stroke-linejoin:miter;stroke-miterlimit:4;stroke-opacity:0.27;stroke-dasharray:none"/>
<path d="m 32.43,17.25 c 0.1,0.21 0.35,0.46 0.39,0.58" id="p4323" style="fill:none;stroke:#99b7c2;stroke-width:0.60;stroke-linecap:round;stroke-linejoin:miter;stroke-miterlimit:4;stroke-opacity:0.37;stroke-dasharray:none"/>
<path d="m 33.79,15.44 c 0.20,0.29 0.17,0.61 -0.06,0.71 -0.24,0.10 -0.60,-0.04 -0.80,-0.34 -0.20,-0.29 -0.17,-0.61 0.06,-0.71 0.24,-0.10 0.60,0.04 0.80,0.34 z" id="p4325" style="color:#000000;fill:#dcf2ff;fill-opacity:0.92;fill-rule:nonzero;stroke:none;marker:none;visibility:visible;display:inline;overflow:visible;enable-background:accumulate"/>
<path d="m 39.01,10.16 c 0.20,0.29 0.17,0.61 -0.06,0.71 -0.24,0.10 -0.60,-0.04 -0.80,-0.34 -0.20,-0.29 -0.17,-0.61 0.06,-0.71 0.24,-0.10 0.60,0.04 0.80,0.34 z" id="p4325-3" style="color:#000000;fill:#dcf2ff;fill-opacity:0.92;fill-rule:nonzero;stroke:none;marker:none;visibility:visible;display:inline;overflow:visible;enable-background:accumulate"/>
</g>
</svg>
