<?xml version="1.0" encoding="UTF-8" standalone="no"?>
<!DOCTYPE svg PUBLIC "-//W3C//DTD SVG 1.0//EN" "http://www.w3.org/TR/2001/REC-SVG-20010904/DTD/svg10.dtd">
<svg xmlns:svg="http://www.w3.org/2000/svg" xmlns="http://www.w3.org/2000/svg" version="1.0" width="100%" height="100%" viewBox="0 0 48 48" id="_wood01" style="display:inline">
<defs id="defs2385"/>
<g id="wood01" style="display:inline">
<path d="M 7.09,3.05 C 4.61,5.19 14.39,19.45 19.87,26.88 C 29.08,28.47 29.58,34.93 36.86,45.36 C 37.73,46.60 42.58,46.47 39.88,41.62 C 36.72,35.95 33.72,33.77 31.26,30.20 C 28.79,26.63 28.07,25.06 25.01,21.79 C 21.96,18.52 7.78,2.46 7.09,3.05 z" id="p2482" style="fill:#b76037;fill-opacity:1;fill-rule:evenodd;stroke:none;"/>
<path d="M 10.90,12.96 C 10.77,12.96 10.65,12.99 10.53,13.03 C 11.30,14.32 12.12,15.65 13,17 C 13.25,17.20 13.47,17.41 13.65,17.65 C 13.91,17.99 14.13,18.41 14.31,18.96 C 15.29,20.43 16.26,21.86 17.21,23.21 C 17.29,23.04 17.32,22.85 17.31,22.65 C 17.36,19.56 16.84,17.51 15.71,16.06 C 14.58,14.60 13.08,13.92 11.53,13.12 C 11.33,13.02 11.12,12.96 10.90,12.96 z" id="p3337" style="fill:#de9871;fill-opacity:0.50;fill-rule:evenodd;stroke:none;"/>
<path d="M 9.37,4.93 C 9.45,8.21 10.54,10.08 11.28,11.65 C 12.11,13.42 17.11,16.45 15.09,10.90 C 12.90,8.53 10.87,6.41 9.37,4.93 z" id="p3262" style="fill:#421e0c;fill-opacity:0.16;fill-rule:evenodd;stroke:none;display:inline"/>
<path d="M 21.31,17.71 C 20.74,18.07 20.63,18.86 20.87,19.81 C 21.47,22.21 23.98,26.51 25.06,27.71 C 26.02,28.78 28.60,31.85 30.09,28.43 C 28.55,26.11 27.47,24.39 25.03,21.78 C 24.32,21.02 22.91,19.48 21.31,17.71 z" id="p3265" style="fill:#e8a07c;fill-opacity:0.26;fill-rule:evenodd;stroke:none;display:inline"/>
<path d="M 8.40,9.21 C 11.09,14.60 16.36,22.11 19.87,26.87 C 29.07,28.45 29.59,34.94 36.87,45.37 C 37.70,46.56 42.19,46.45 40.15,42.15 C 40.07,44.40 39.22,44.83 38.37,44.75 C 37.17,44.63 31.41,33.95 28.65,30.71 C 25.89,27.48 22.66,26.76 21.46,26.40 C 20.26,26.04 19.31,24.00 18.59,21.12 C 17.96,18.61 15.85,14.64 8.40,9.21 z" id="p3259" style="fill:#f79626;fill-opacity:0.28;fill-rule:evenodd;stroke:none;"/>
<path d="M 7.93,3.56 C 7.69,3.66 7.50,3.80 7.34,3.96 C 7.59,3.86 7.89,3.84 8.18,3.81 C 8.11,3.74 8.00,3.61 7.93,3.56 z M 7.34,3.96 C 7.09,4.06 6.87,4.21 6.71,4.40 C 6.71,4.41 6.71,4.42 6.71,4.43 C 6.73,4.64 6.79,4.87 6.84,5.12 C 6.89,4.68 7.03,4.28 7.34,3.96 z M 9.12,4.68 C 9.03,4.74 8.93,4.82 8.84,4.90 C 8.48,5.42 7.72,6.17 7.15,6.28 C 7.29,6.69 7.45,7.13 7.65,7.59 C 7.66,7.60 7.67,7.61 7.68,7.62 C 7.98,7.94 8.34,8.21 8.75,8.37 C 10.98,10.08 12.60,12.34 14.18,14.62 C 16.62,17.84 19.27,21.62 19.09,25.81 C 19.18,25.93 19.28,26.06 19.37,26.18 C 19.38,25.98 19.38,25.79 19.34,25.62 C 19.34,24.90 19.26,24.19 19.06,23.5 C 19.72,24.50 20.13,25.73 20.25,26.96 C 20.29,26.97 20.33,26.99 20.37,27 C 20.18,25.81 19.76,24.61 19.43,23.5 C 18.56,21.00 17.34,18.63 16.53,16.12 C 19.10,19.40 20.34,23.34 21.56,27.28 C 21.64,27.30 21.72,27.31 21.81,27.34 C 20.80,23.83 19.74,20.27 17.53,17.31 C 16.70,15.99 15.80,14.73 14.78,13.56 C 18.88,17.02 21.81,22.05 22.15,27.46 C 22.28,27.50 22.40,27.55 22.53,27.59 C 22.09,26.10 21.86,24.56 21.65,23.03 C 21.90,25.18 23.64,26.67 24.62,28.5 C 24.75,28.57 24.87,28.64 25,28.71 C 24.12,27.46 23.20,26.22 22.53,24.84 C 22.36,24.47 22.23,24.08 22.15,23.68 C 23.58,24.88 25.35,27.45 25.46,29.03 C 25.67,29.17 25.87,29.31 26.06,29.46 C 25.81,27.54 24.85,25.72 23.28,24.53 C 21.61,22.48 20.65,19.99 19.25,17.78 C 18.39,16.21 17.17,14.80 16.68,13.06 C 18.85,16.70 21.08,20.31 23.56,23.75 C 25.29,26.28 27.09,28.81 29.15,31.09 C 29.04,30.97 28.90,30.74 28.75,30.31 C 29.50,30.48 29.51,31.43 29.18,31.12 C 30.25,32.29 31.39,33.40 32.62,34.40 C 33.21,36.21 33.44,38.18 33.93,40.03 C 34.03,39.93 34.12,39.84 34.21,39.75 C 35.44,40.12 34.97,41.04 34.37,41.43 C 34.42,41.57 34.50,41.70 34.56,41.84 C 34.93,42.44 35.33,43.05 35.75,43.68 C 35.65,43.08 35.60,42.48 35.56,41.87 C 36.03,42.20 36.21,43.74 36.15,44.31 C 36.15,44.32 36.15,44.33 36.15,44.34 C 36.15,44.34 36.18,44.33 36.18,44.34 C 36.27,43.84 36.06,42.38 35.90,41.90 C 35.64,39.85 35.06,37.09 35.5,35.34 C 34.79,34.50 34.10,33.74 33.43,32.96 C 34.27,34.00 34.92,35.16 35.15,36.56 C 35.34,38.91 34.62,35.04 34,34.59 C 33.11,33.14 31.94,31.94 30.71,30.78 C 32.93,32.94 34.98,35.86 34.78,39.09 C 34.55,38.10 34.20,36.97 33.68,35.90 C 33.92,36.70 33.93,37.46 33.62,37.59 C 33.31,36.52 33.38,35.27 32.75,34.34 C 33.10,34.81 33.42,35.33 33.68,35.87 C 33.45,35.08 33.00,34.27 32.43,33.96 C 32.37,33.89 32.31,33.79 32.25,33.71 C 30.48,31.52 28.27,29.67 26.56,27.43 C 26.94,28.00 27.04,28.25 26.21,27.25 C 25.83,26.76 25.50,26.24 25.18,25.71 C 25.34,25.84 25.58,26.08 25.81,26.37 C 25.55,25.98 25.30,25.57 25.09,25.15 C 22.67,22.04 19.99,18.77 18.81,14.96 C 18.72,14.87 18.64,14.78 18.56,14.68 C 18.65,15.48 18.59,15.98 18.06,14.65 C 17.45,13.62 16.60,12.69 15.84,11.71 C 15.25,11.07 14.70,10.49 14.12,9.87 C 14.24,10.45 14.49,11.08 14.65,11.62 C 14.65,11.43 14.67,11.25 14.71,11.06 C 15.69,12.14 17.49,14.64 17.12,15.37 C 16.18,14.64 15.14,13.64 14.78,12.46 C 14.75,12.64 14.66,12.78 14.46,12.81 C 13.08,10.99 10.42,9.68 10.53,7.09 C 10.62,6.85 10.69,6.56 10.71,6.28 C 10.67,6.24 10.63,6.19 10.59,6.15 C 10.22,6.48 9.63,6.70 9.06,6.40 C 8.79,5.94 9.31,5.47 9.68,5.21 C 9.46,4.99 9.32,4.88 9.12,4.68 z M 14.65,11.62 C 14.65,11.90 14.70,12.17 14.78,12.43 C 14.80,12.22 14.75,11.94 14.65,11.62 z M 30.71,30.78 C 28.49,28.65 26.07,26.68 24.78,23.81 C 23.83,22.18 22.72,20.44 22.12,18.59 C 22.00,18.45 21.94,18.39 21.81,18.25 C 22.22,19.56 23.05,20.88 23.46,22.09 C 25.12,25.53 27.54,28.62 30.71,30.78 z M 34.37,41.43 C 34.19,40.97 34.06,40.50 33.93,40.03 C 33.83,40.13 33.74,40.25 33.65,40.37 C 33.87,40.74 34.07,41.08 34.31,41.46 C 34.33,41.45 34.35,41.45 34.37,41.43 z M 8.62,5.34 C 9.39,7.92 11.54,9.70 13.06,11.84 C 11.47,10.17 9.36,8.90 8.31,6.81 C 8.11,6.31 8.20,5.69 8.62,5.34 z M 12.40,11.84 C 14.53,13.09 16.18,15.60 16.78,17.78 C 15.40,16.10 14.15,14.32 12.87,12.56 C 12.71,12.32 12.55,12.08 12.40,11.84 z M 18,16.62 C 18.78,17.31 18.81,17.95 18,16.62 z M 19.81,19.09 C 20.45,19.58 20.79,21.25 20.09,19.71 L 19.96,19.40 L 19.81,19.09 z M 24.40,21.12 C 24.43,21.43 24.48,21.76 24.53,22.06 C 24.97,24.57 26.85,26.51 28.5,28.34 C 29.98,29.77 31.83,31.08 33.21,32.68 C 32.87,32.27 32.51,31.89 32.18,31.46 C 31.70,31.22 30.71,30.02 30.25,29.65 C 27.84,27.39 25.22,24.80 24.68,21.40 C 24.62,21.34 24.47,21.19 24.40,21.12 z M 21.59,22.78 C 21.84,22.88 21.32,22.95 21.59,22.78 z M 36.46,36.56 C 36.95,37.72 37.07,39.02 37.12,40.31 C 37.13,40.12 37.16,39.96 37.21,39.78 C 37.34,39.88 37.46,40.13 37.59,40.40 C 37.37,39.53 37.32,38.59 37.40,37.71 C 37.24,37.49 37.06,37.30 36.90,37.09 C 36.89,37.09 36.88,37.09 36.87,37.09 C 36.77,37.06 36.62,36.84 36.46,36.56 z M 37.59,40.40 C 37.68,40.77 37.82,41.12 37.96,41.46 C 37.87,41.10 37.74,40.72 37.59,40.40 z M 37.96,41.46 C 38.22,42.40 38.22,43.13 37.5,42.03 C 37.32,41.68 37.21,41.32 37.15,40.93 C 37.16,41.17 37.15,41.41 37.15,41.65 C 37.75,42.96 38.95,44.63 40.18,45.43 C 40.47,45.14 40.67,44.73 40.68,44.18 C 39.88,43.99 39.03,42.83 38.96,41.87 C 38.92,41.75 38.88,41.62 38.84,41.5 C 38.97,42.10 39.00,42.64 38.90,43 C 38.50,42.54 38.21,42.02 37.96,41.46 z M 38.84,41.5 C 38.73,40.98 38.56,40.45 38.37,39.87 C 38.49,40.43 38.65,40.96 38.84,41.5 z M 38.37,39.87 C 38.30,39.54 38.23,39.21 38.18,38.87 C 38.09,38.73 38.00,38.57 37.90,38.43 C 38.06,38.90 38.21,39.38 38.37,39.87 z M 35.31,40.84 C 36.01,41.36 34.93,41.50 35.31,40.84 z" id="p3277" style="fill:#6f350b;fill-opacity:0.37;fill-rule:evenodd;stroke:none;display:inline"/>
<path d="M 10.03,5.56 C 8.90,5.72 8.59,7.53 9.40,8.28 C 10.79,9.81 12.15,11.39 13.71,12.75 C 14.65,13.60 14.82,14.93 15.62,15.90 C 16.84,17.58 17.67,19.47 18.65,21.28 C 17.47,20.13 17.09,18.39 15.75,17.37 C 14.91,15.95 13.93,14.57 12.46,13.75 C 11.29,13.21 10.46,12.25 9.56,11.37 C 9.71,11.64 9.86,11.93 10.03,12.21 C 10.05,12.23 10.07,12.26 10.09,12.28 C 10.31,12.49 10.53,12.70 10.75,12.90 C 12.10,13.90 13.31,15.04 14.18,16.5 C 15.23,17.54 15.94,18.76 16.68,20.03 C 17.64,21.51 18.47,23.11 18.96,24.81 C 18.95,25.13 18.99,25.43 19.06,25.75 C 19.17,25.90 19.29,26.06 19.40,26.21 C 19.13,24.71 18.78,23.23 18,21.90 C 17.03,20.14 16.06,18.33 14.75,16.81 C 13.97,15.91 12.93,14.23 12.28,13.84 C 13.63,14.61 14.53,15.91 15.37,17.18 C 16.23,18.23 17.07,19.23 17.68,20.43 C 18.53,21.48 19.42,22.51 19.93,23.78 C 20.51,24.87 20.98,26.03 21.31,27.21 C 21.35,27.22 21.39,27.23 21.43,27.25 C 21.36,26.99 21.29,26.72 21.21,26.46 C 21.32,26.74 21.43,27.01 21.56,27.28 C 21.64,27.30 21.72,27.31 21.81,27.34 C 21.58,26.82 21.36,26.29 21.12,25.78 C 20.70,24.58 20.20,23.44 19.46,22.40 C 18.19,20.08 17.17,17.58 15.56,15.46 C 14.87,14.24 14.39,12.83 13.15,12.03 C 11.78,10.77 10.67,9.26 9.37,7.93 C 8.75,6.99 9.33,5.94 10.21,5.75 C 10.16,5.69 10.08,5.61 10.03,5.56 z M 10.87,6.43 C 10.44,7.04 10.13,7.97 10.84,8.65 C 11.55,9.51 12.49,10.18 13.12,11.12 C 13.90,12.19 14.85,13.09 15.59,14.18 C 17.11,15.85 18.59,17.60 19.68,19.59 C 20.48,20.79 21.17,22.02 21.75,23.34 C 22.77,24.66 23.77,26.02 23.87,27.78 C 23.93,27.91 23.98,28.05 24.03,28.18 C 24.10,28.22 24.18,28.24 24.25,28.28 C 24.04,27.61 23.82,26.93 23.71,26.25 C 23.38,24.50 21.69,23.53 21.25,21.81 C 20.58,20.44 19.63,19.23 18.90,17.90 C 17.77,16.10 16.11,14.72 14.93,12.96 C 13.66,11.68 12.76,10.04 11.31,8.93 C 10.53,8.29 10.49,7.27 11,6.59 C 10.95,6.54 10.92,6.48 10.87,6.43 z M 11.59,14.75 C 11.73,14.98 11.88,15.20 12.03,15.43 C 12.41,15.81 12.76,16.24 13.06,16.71 C 13.89,17.62 14.61,18.59 15.21,19.65 C 15.89,20.67 16.43,21.74 16.96,22.84 C 17.25,23.24 17.53,23.64 17.81,24.03 C 17.48,23.41 17.13,22.82 16.87,22.18 C 16.00,20.39 14.95,18.66 13.71,17.09 C 13.03,16.29 12.39,15.43 11.59,14.75 z" id="p3300" style="fill:#632a0a;fill-opacity:0.41;fill-rule:evenodd;stroke:none;"/>
<path d="M 9.90,5.53 C 9.33,6.02 9.58,6.81 9.94,7.34 C 10.04,8.17 10.76,8.52 11.24,9.08 C 11.60,9.72 11.95,10.41 12.71,10.67 C 13.44,11.12 14.19,11.63 14.55,12.45 C 15.04,13.23 15.99,13.61 16.33,14.50 C 16.47,14.85 16.97,15.17 16.64,14.57 C 16.27,13.86 15.67,13.34 15.09,12.80 C 14.49,12.07 14.08,11.14 13.15,10.73 C 12.24,10.37 11.73,9.61 11.26,8.79 C 10.83,8.27 10.22,7.92 10.08,7.20 C 9.79,6.66 9.56,6.14 10.04,5.64 L 10.02,5.59 L 9.90,5.53 z" id="p3311" style="fill:#432813;fill-opacity:0.46;fill-rule:evenodd;stroke:none;display:inline"/>
<path d="M 10.28,8.59 C 9.80,9.26 11.07,9.89 11.03,10.67 C 10.93,11.53 11.41,12.22 11.69,12.99 C 12.45,13.75 12.53,12.59 12.57,12.04 C 12.69,11.72 13.14,11.00 12.48,11.42 C 12.21,11.54 11.96,10.50 11.63,11.21 C 12.31,11.48 12.38,12.36 12.12,12.97 C 11.83,12.33 11.26,11.72 11.37,10.97 C 11.33,10.08 10.66,9.36 10.28,8.59 z" id="p3313" style="fill:#432813;fill-opacity:0.49;fill-rule:evenodd;stroke:none;display:inline"/>
<path d="M 10.56,9.40 C 11.06,10.17 11.31,10.35 11.31,11.08 C 11.31,11.80 11.80,12.93 11.89,13.11 C 11.98,13.30 12.30,12.98 12.35,12.21 C 12.38,11.71 12.59,11.63 12.59,11.63" id="p3331" style="fill:none;fill-rule:evenodd;stroke:#000000;stroke-width:0.2;stroke-linecap:butt;stroke-linejoin:miter;stroke-miterlimit:4;stroke-dasharray:none;stroke-opacity:0.18"/>
<path d="M 14.20,10.63 C 14.56,11.13 14.79,11.46 15.27,11.37" id="p3333" style="fill:none;fill-rule:evenodd;stroke:#000000;stroke-width:0.30;stroke-linecap:round;stroke-linejoin:miter;stroke-miterlimit:4;stroke-dasharray:none;stroke-opacity:0.38"/>
<path d="M 14.29,13.18 C 14.47,13.18 14.85,13.51 14.85,13.51" id="p3335" style="opacity:1;fill:none;fill-opacity:0.67;fill-rule:evenodd;stroke:#000000;stroke-width:0.30;stroke-linecap:round;stroke-linejoin:miter;marker:none;stroke-miterlimit:4;stroke-dasharray:none;stroke-dashoffset:0;stroke-opacity:0.38;visibility:visible;display:inline;overflow:visible;enable-background:accumulate"/>
<path d="M 30.12,30.87 C 29.42,31.04 28.60,30.96 28,31.40 C 28.04,31.46 28.10,31.50 28.15,31.56 C 28.37,31.51 28.62,31.41 28.75,31.40 C 29.41,31.23 30.30,31.04 30.81,31.65 C 31.18,32.31 31.97,32.53 32.56,32.96 C 33.26,33.27 33.36,34.08 33.78,34.56 C 34.18,34.82 34.67,34.88 35.15,34.96 C 35.05,34.85 34.97,34.73 34.87,34.62 C 34.60,34.56 34.34,34.47 34.09,34.37 C 33.52,33.94 33.53,32.98 32.75,32.78 C 31.89,32.19 31.05,31.62 30.28,30.93 C 30.23,30.92 30.17,30.89 30.12,30.87 z M 34.34,35.28 C 33.71,35.27 33.49,36.06 33.15,36.46 C 33.08,37.08 33.77,37.30 34.18,37.59 C 34.50,37.90 34.97,38.26 35.25,37.65 C 35.39,37.29 35.85,37.23 35.96,37.65 C 36.56,37.65 37.20,37.82 37.71,38.15 C 37.58,37.96 37.44,37.77 37.31,37.59 C 37.30,37.58 37.28,37.59 37.28,37.59 C 37.02,37.50 36.74,37.45 36.46,37.46 C 36.04,37.54 35.46,36.46 35.09,37.21 C 34.95,38.00 34.18,37.22 33.84,36.96 C 33.32,36.83 33.45,36.56 33.71,36.21 C 33.92,35.68 34.72,35.33 34.90,36.09 C 35.28,36.67 36.03,36.99 36.71,36.96 C 36.74,36.96 36.75,36.94 36.78,36.93 C 36.70,36.83 36.61,36.72 36.53,36.62 C 36.44,36.65 36.31,36.67 36.15,36.62 C 35.44,36.33 35.07,35.52 34.34,35.28 z M 36.37,38.03 C 35.70,38.05 36.14,38.90 35.96,39.34 C 35.70,40.29 35.05,39.00 34.53,39.06 C 34.00,39.13 33.68,39.58 33.46,40.06 C 33.53,40.17 33.61,40.28 33.68,40.40 C 33.83,39.90 34.09,39.19 34.71,39.5 C 35.14,39.68 35.61,40.21 36.09,39.90 C 36.44,39.45 36.16,38.87 36.34,38.37 C 36.86,38.23 37.53,38.60 37.90,39.03 C 38.06,39.27 38.43,39.65 38.68,39.62 C 38.53,39.39 38.39,39.18 38.25,38.96 C 37.72,38.47 37.12,37.98 36.37,38.03 z" id="p3379" style="fill:#56301b;fill-opacity:0.57;fill-rule:evenodd;stroke:none;display:inline"/>
<path d="M 36.03,39.81 C 36.99,41.82 37.42,42.86 37.94,43.56" id="p3406" style="fill:none;fill-rule:evenodd;stroke:#84451d;stroke-width:1.60;stroke-linecap:round;stroke-linejoin:miter;stroke-miterlimit:4;stroke-dasharray:none;stroke-opacity:0.55;display:inline"/>
<path d="M 23.65,21.70 L 25.18,23.39" id="p3377" style="fill:none;fill-rule:evenodd;stroke:#473023;stroke-width:1.39;stroke-linecap:round;stroke-linejoin:miter;stroke-miterlimit:4;stroke-dasharray:none;stroke-opacity:0.33"/>
<path d="M 22.28,21.53 C 22.03,21.55 21.83,21.70 21.75,21.93 C 21.66,22.16 21.70,22.44 21.87,22.62 L 21.87,22.65 C 21.59,22.65 21.34,22.83 21.25,23.09 C 21.15,23.35 21.25,23.63 21.46,23.81 L 22.37,24.65 C 22.64,24.89 23.07,24.89 23.31,24.62 C 23.52,24.38 23.50,24.02 23.31,23.78 C 23.42,23.75 23.53,23.70 23.62,23.62 C 23.89,23.38 23.92,22.98 23.68,22.71 L 22.84,21.75 C 22.70,21.58 22.49,21.50 22.28,21.53 z" id="p3356" style="fill:#66401d;fill-opacity:0.55;fill-rule:evenodd;stroke:none;"/>
<path d="M 18.32,23.91 L 18.66,24.20" id="p3346" style="fill:none;fill-rule:evenodd;stroke:#8d5239;stroke-width:0.5;stroke-linecap:round;stroke-linejoin:miter;stroke-miterlimit:4;stroke-dasharray:none;stroke-opacity:0.74"/>
<path d="M 22.57,22.31 L 22.82,22.69" id="p3350" style="fill:none;fill-rule:evenodd;stroke:#321a11;stroke-width:0.69;stroke-linecap:round;stroke-linejoin:miter;stroke-miterlimit:4;stroke-dasharray:none;stroke-opacity:0.74"/>
<path d="M 22.23,23.45 L 22.53,23.78" id="p3352" style="fill:none;fill-rule:evenodd;stroke:#321a11;stroke-width:0.60;stroke-linecap:round;stroke-linejoin:miter;stroke-miterlimit:4;stroke-dasharray:none;stroke-opacity:0.74"/>
<path d="M 20.01,21.82 L 20.69,22.66" id="p3369" style="fill:none;fill-rule:evenodd;stroke:#6f4626;stroke-width:2;stroke-linecap:round;stroke-linejoin:miter;stroke-miterlimit:4;stroke-dasharray:none;stroke-opacity:0.37"/>
<path d="M 20.47,24.45 L 20.67,24.75" id="p3371" style="fill:none;fill-rule:evenodd;stroke:#422012;stroke-width:0.5;stroke-linecap:round;stroke-linejoin:miter;stroke-miterlimit:4;stroke-dasharray:none;stroke-opacity:0.45;display:inline"/>
<path d="M 21.12,17.5 C 20.40,17.56 20.35,18.43 20.46,19 C 20.55,20.06 21.31,20.84 21.84,21.71 C 22.46,22.56 23.28,23.37 23.40,24.46 C 23.74,25.20 24.14,25.98 24.87,26.37 C 25.60,26.52 25.75,27.21 26.21,27.65 C 26.84,28.16 26.43,29.03 26.43,29.78 C 26.59,29.91 26.72,30.07 26.87,30.21 C 26.90,29.60 26.86,28.98 26.93,28.37 C 27.22,27.58 26.15,27.39 26.09,26.71 C 25.67,26.20 24.96,26.02 24.5,25.56 C 24.10,24.89 23.69,24.27 23.53,23.5 C 23.27,22.74 22.65,22.25 22.25,21.59 C 21.79,20.96 21.36,20.30 21,19.62 C 20.79,19.04 20.61,17.85 21.46,17.90 C 21.31,17.73 21.28,17.67 21.12,17.5 z" id="p3381" style="fill:#713915;fill-opacity:0.63;fill-rule:evenodd;stroke:none;display:inline"/>
<path d="M 7.09,3.05 C 4.61,5.19 14.39,19.45 19.87,26.88 C 29.08,28.47 29.58,34.93 36.86,45.36 C 37.73,46.60 42.58,46.47 39.88,41.62 C 36.72,35.95 33.72,33.77 31.26,30.20 C 28.79,26.63 28.07,25.06 25.01,21.79 C 21.96,18.52 7.78,2.46 7.09,3.05 z" id="stroke01" style="fill:none;fill-opacity:1;fill-rule:evenodd;stroke:#261809;stroke-width:0.5;stroke-linecap:butt;stroke-linejoin:miter;stroke-miterlimit:4;stroke-dasharray:none;stroke-opacity:1;display:inline"/>
<path d="M 22.51,22.73 L 22.85,23.12" id="p3395" style="fill:none;fill-rule:evenodd;stroke:#966544;stroke-width:0.5;stroke-linecap:round;stroke-linejoin:miter;stroke-miterlimit:4;stroke-dasharray:none;stroke-opacity:0.65"/>
</g>
</svg>
