<?xml version="1.0" encoding="UTF-8" standalone="no"?>
<!DOCTYPE svg PUBLIC "-//W3C//DTD SVG 1.0//EN" "http://www.w3.org/TR/2001/REC-SVG-20010904/DTD/svg10.dtd">
<svg xmlns:svg="http://www.w3.org/2000/svg" xmlns="http://www.w3.org/2000/svg" version="1.0" width="100%" height="100%" viewBox="0 0 48 48" id="_wood02" style="enable-background:new">
<defs id="defs2385"/>
<g id="wood02" style="display:inline">
<path d="M 45.95,5.83 C 45.66,12.95 37.31,17.40 32.97,19.98 C 28.63,22.57 25.09,25.02 23.12,28.08 C 20.93,26.95 18.85,28.85 18.41,30.42 C 17.17,30.05 15.64,31.00 15.06,33.11 C 12.91,32.97 11.78,33.84 11.12,35.89 C 10.17,35.34 8.68,35.08 5.90,40.37 C 5.68,40.63 5.39,40.63 5.17,40.81 C 2.15,40.15 1.02,36.80 1.45,35.52 C 2.44,34.54 13.67,26.26 14.84,25.35 C 17.90,24.84 19.00,23.56 19.29,21.26 C 21.37,20.46 22.94,20.53 26.33,18.16 C 29.72,15.79 31.69,13.24 32.53,12.69 C 33.37,12.14 36.61,12.36 45.95,5.83 z" id="p2635" style="fill:#6a4731;fill-opacity:1;fill-rule:evenodd;stroke:none;"/>
<path d="M 45.96,5.84 C 43.77,7.38 41.91,8.51 40.34,9.40 C 40.33,9.41 40.32,9.42 40.31,9.43 C 38.51,11.04 36.34,12.78 34.09,14.43 C 29.58,17.74 24.74,20.89 21.71,22.84 C 15.58,26.80 6.80,33.11 1.96,37.15 C 1.83,37.25 1.72,37.37 1.62,37.5 C 1.96,38.50 2.67,39.54 3.78,40.21 C 3.95,40.13 4.13,40.04 4.28,39.90 C 5.43,38.94 6.83,37.81 8.40,36.62 C 8.41,36.61 8.42,36.60 8.43,36.59 C 8.86,36.16 9.22,35.91 9.56,35.78 C 12.86,33.30 16.56,30.67 20,28.34 C 20.06,28.30 20.12,28.25 20.18,28.21 C 21.39,27.40 22.62,26.56 23.68,25.87 C 26.71,23.92 31.59,20.73 36.21,17.34 C 39.29,15.08 42.23,12.79 44.5,10.56 C 45.34,9.13 45.89,7.56 45.96,5.84 z" id="p3523" style="fill:#4c4c4c;fill-opacity:1;fill-rule:evenodd;stroke:none;display:inline"/>
<path d="M 21.57,24.44 C 23.37,23.50 24.94,22.33 24.94,22.33" id="p3538" style="fill:none;fill-rule:evenodd;stroke:#fb9b4d;stroke-width:2.09;stroke-linecap:round;stroke-linejoin:miter;stroke-miterlimit:4;stroke-dasharray:none;stroke-opacity:0.27"/>
<path d="M 37.96,14.87 C 36.53,15.23 32.24,18.09 30.71,18.71 C 29.19,19.34 22.47,23.91 21.21,24.81 C 19.96,25.70 16.01,26.60 15.03,26.78 C 14.13,26.94 5.80,32.76 1.43,36.71 C 1.67,38.24 2.86,40.30 5.18,40.81 C 5.40,40.63 5.68,40.63 5.90,40.37 C 8.67,35.08 10.17,35.35 11.12,35.90 C 11.78,33.86 12.91,32.97 15.06,33.12 C 15.64,31.00 17.16,30.04 18.40,30.40 C 18.84,28.83 20.93,26.96 23.12,28.09 C 25.09,25.03 28.62,22.58 32.96,20 C 34.53,19.06 36.63,17.86 38.68,16.40 C 38.52,15.42 38.30,14.79 37.96,14.87 z" id="p3438" style="fill:#af6531;fill-opacity:0.30;fill-rule:evenodd;stroke:none;display:inline"/>
<path d="M 42.65,12.96 C 41.75,13.37 40.82,13.74 39.84,13.93 C 36.56,15.76 33.53,18.22 29.78,19 C 26.84,20.31 24.15,22.13 21.62,24.09 C 19.68,25.35 17.58,26.52 16.15,28.40 C 13.16,31.01 9.15,31.91 5.96,34.21 C 4.53,34.92 2.23,36.41 1.62,37.53 C 1.65,37.60 1.68,37.67 1.71,37.75 C 4.15,36.18 6.39,34.27 9.06,33.09 C 9.74,32.53 12.83,31.33 10.56,32.71 C 7.64,34.44 4.26,35.61 1.84,38.03 C 1.94,38.24 2.05,38.44 2.18,38.65 C 3.92,36.90 6.12,35.57 8.37,34.59 C 12.47,32.82 15.46,29.32 19.46,27.37 C 20.63,26.91 21.76,26.33 22.84,25.71 C 26.29,23.75 29.39,21.18 32.87,19.25 C 34.20,18.52 35.63,18.00 37.06,17.5 C 37.51,17.20 37.97,16.88 38.43,16.56 C 37.42,16.88 35.51,16.86 37.34,16.06 C 38.66,15.05 40.20,14.46 41.75,13.90 C 41.75,13.90 41.77,13.91 41.78,13.90 C 42.08,13.61 42.37,13.27 42.65,12.96 z M 22.84,25.71 C 22.14,26.05 21.48,26.48 20.87,27 C 17.67,29.58 14.32,31.97 10.56,33.68 C 7.57,35.02 5.00,37.03 2.62,39.25 C 2.78,39.43 2.93,39.64 3.12,39.81 C 4.56,38.50 6.09,37.30 7.78,36.34 C 8.22,36.18 8.70,36.08 9.15,35.96 C 9.16,35.96 9.17,35.94 9.18,35.93 C 9.69,35.61 10.13,35.58 10.5,35.65 C 10.76,35.60 11.02,35.55 11.28,35.5 C 11.35,35.31 11.41,35.12 11.5,34.96 C 10.28,35.24 9.17,35.31 9.06,35.12 C 11.45,33.96 13.78,32.71 16.03,31.28 C 16.04,31.27 16.05,31.26 16.06,31.25 C 16.43,30.84 16.84,30.59 17.28,30.46 C 17.91,30.03 18.54,29.58 19.15,29.12 C 19.49,28.71 19.91,28.34 20.40,28.09 C 20.58,27.94 20.76,27.80 20.93,27.65 C 22.32,26.62 23.89,25.90 25.5,25.31 C 25.87,24.96 26.27,24.62 26.68,24.28 C 25.39,24.73 24.06,25.12 22.84,25.71 z M 32.96,18.59 C 28.26,21.01 24.33,24.74 19.40,26.75 C 18.68,27.11 17.75,27.61 18.90,26.68 C 21.00,25.08 23.22,23.66 25.37,22.12 C 27.71,20.57 30.23,19.27 32.96,18.59 z M 7.96,37.15 C 6.20,37.68 4.54,38.51 3.40,40 C 3.40,40.00 3.41,40.02 3.40,40.03 C 3.55,40.14 3.73,40.21 3.90,40.31 C 4.96,39.33 6.04,38.41 7.37,37.90 C 7.57,37.62 7.78,37.37 7.96,37.15 z" id="p3411" style="fill:#0e1217;fill-opacity:0.40;fill-rule:evenodd;stroke:none;"/>
<path d="M 2.83,38.52 C 7.90,34.06 21.52,23.53 24.16,26.52" id="p3569" style="fill:none;fill-rule:evenodd;stroke:#d8c5b9;stroke-width:3.40;stroke-linecap:butt;stroke-linejoin:miter;stroke-miterlimit:4;stroke-dasharray:none;stroke-opacity:0.26;display:inline"/>
<path d="M 30.60,17.83 C 33.61,16.77 37.76,13.94 40.59,11.55" id="p3492" style="fill:none;fill-rule:evenodd;stroke:#e5b691;stroke-width:1.79;stroke-linecap:round;stroke-linejoin:miter;stroke-miterlimit:4;stroke-dasharray:none;stroke-opacity:0.16;display:inline"/>
<path d="M 45.81,7.06 C 43.48,8.81 41.07,10.44 38.5,11.81 C 36.54,13.77 32.07,16.58 30.5,15.93 C 34.70,13.50 38.78,10.83 42.71,8 C 41.97,8.46 41.33,8.81 40.68,9.18 C 40.33,9.39 39.98,9.60 39.65,9.78 C 39.60,9.80 39.55,9.84 39.5,9.87 C 35.61,12.31 31.94,15.19 27.75,17.09 C 27.30,17.45 26.85,17.79 26.34,18.15 C 25.17,18.97 24.20,19.47 23.37,19.84 C 23.34,19.86 23.31,19.88 23.28,19.90 C 21.58,21.11 19.92,22.33 18.34,23.68 C 18.09,23.98 17.80,24.24 17.43,24.46 C 16.63,25.20 15.87,26.00 15.15,26.84 C 11.97,28.68 10.24,32.43 6.56,33.53 C 5.37,34.25 3.14,35.44 1.43,36.68 C 1.45,36.80 1.46,36.93 1.5,37.06 C 5.11,34.26 9.80,33.00 12.65,29.28 C 14.56,27.63 16.46,25.91 18.28,24.18 C 15.60,26.61 14.24,30.24 11.06,32.21 C 8.46,34.60 4.24,35.94 1.81,37.93 C 1.83,37.98 1.85,38.01 1.87,38.06 C 3.75,36.98 8.07,34.61 4.34,37.18 C 3.92,37.63 3.07,38.17 2.18,38.62 C 2.21,38.67 2.24,38.73 2.28,38.78 C 5.66,36.91 8.59,34.24 12.09,32.56 C 16.16,29.73 18.72,25.50 22.31,22.37 C 26.01,20.14 30.18,18.52 33.68,15.87 C 37.41,14.50 41.49,13.70 44.34,10.53 C 44.42,10.48 44.50,10.39 44.59,10.34 C 44.74,10.08 44.90,9.82 45.03,9.56 C 42.35,11.83 39.54,14.30 35.93,14.56 C 37.99,11.87 42.47,9.93 45.71,7.56 C 45.75,7.39 45.78,7.23 45.81,7.06 z M 33.28,15.71 C 29.57,18.41 25.36,20.21 21.46,22.65 C 18.90,25.03 17.09,28.33 14.12,30.5 C 12.64,32.18 7.31,35.18 11.68,32.12 C 15.45,29.20 17.18,24.36 21.53,22.09 C 25.41,19.98 28.76,16.33 33.28,15.71 z M 28.12,17.40 C 25.73,18.94 21.74,21.86 20.15,22.34 C 22.96,20.94 25.20,18.43 28.12,17.40 z" id="p3422" style="fill:#161b23;fill-opacity:0.38;fill-rule:evenodd;stroke:none;display:inline"/>
<path d="M 10.33,32.88 C 11.39,31.70 12.57,30.99 13.63,30.52 C 14.16,29.81 15.40,28.16 17.59,27.51 C 18.42,26.29 19.22,25.85 19.99,25.68" id="p3557" style="fill:none;fill-rule:evenodd;stroke:#e1b89d;stroke-width:1.79;stroke-linecap:round;stroke-linejoin:miter;stroke-miterlimit:4;stroke-dasharray:none;stroke-opacity:0.16;display:inline"/>
<path d="M 45.93,5.87 C 36.63,12.37 33.36,12.14 32.53,12.68 C 31.69,13.23 29.73,15.78 26.34,18.15 C 22.95,20.52 21.36,20.47 19.28,21.28 C 18.98,23.57 17.90,24.83 14.84,25.34 C 13.67,26.25 2.45,34.54 1.46,35.53 C 1.35,35.87 1.35,36.38 1.46,36.93 C 4.22,34.16 15.09,26.21 15.5,25.96 C 20.06,26.50 19.68,23.19 19.59,22.03 C 23.17,20.86 25.15,20.24 28.46,17.56 C 31.78,14.87 32.86,13.70 39.21,10.84 C 42.56,9.33 44.67,7.38 45.93,5.87 z" id="p3441" style="fill:#643513;fill-opacity:0.65;fill-rule:evenodd;stroke:none;display:inline"/>
<path d="M 45.93,6.09 C 40.55,14.41 34.34,17.25 31.68,19 C 28.82,20.88 25.15,23.21 21.84,26.43 C 18.95,26.59 17.72,27.12 18.53,30.06 C 19.14,28.57 21.09,27.04 23.12,28.09 C 25.09,25.03 28.62,22.58 32.96,20 C 37.25,17.44 45.46,13.05 45.93,6.09 z" id="p3444" style="fill:#301a13;fill-opacity:0.65;fill-rule:evenodd;stroke:none;display:inline"/>
<path d="M 34.40,19.18 C 30.25,20.44 27.32,23.18 26,24.09 C 24.59,25.05 22.53,26.00 22.12,26.18 C 22.04,26.25 21.98,26.33 21.90,26.40 L 22.90,28 C 22.98,28.03 23.05,28.05 23.12,28.09 C 25.09,25.03 28.62,22.58 32.96,20 C 33.39,19.74 33.90,19.48 34.40,19.18 z" id="p3540" style="fill:#e6a05f;fill-opacity:0.27;fill-rule:evenodd;stroke:none;display:inline"/>
<path d="M 39.28,9.96 C 34.97,12.24 33.12,12.30 32.53,12.68 C 31.86,13.11 30.49,14.79 28.28,16.65 C 28.16,17.14 28.17,17.48 28.34,17.65 C 28.38,17.62 28.42,17.59 28.46,17.56 C 31.78,14.87 32.86,13.70 39.21,10.84 C 39.61,10.66 39.98,10.47 40.34,10.28 C 40.11,10.17 39.73,10.05 39.28,9.96 z" id="p3478" style="fill:#dd752e;fill-opacity:0.19;fill-rule:evenodd;stroke:none;display:inline"/>
<path d="M 19.28,21.28 C 19.04,23.10 18.29,24.27 16.46,24.93 C 16.29,25.36 16.16,25.73 16.12,26.03 C 20.02,26.20 19.67,23.13 19.59,22.03 C 19.62,22.02 19.65,22.01 19.68,22 C 19.56,21.75 19.42,21.51 19.31,21.28 C 19.30,21.28 19.29,21.27 19.28,21.28 z" id="p3481" style="fill:#251206;fill-opacity:0.28;fill-rule:evenodd;stroke:none;"/>
<path d="M 19.59,26.56 C 19.23,26.62 18.92,26.87 18.78,27.21 C 18.63,27.55 18.67,27.94 18.87,28.25 C 18.94,28.35 19.20,28.70 19.34,28.90 C 19.85,28.37 20.50,27.95 21.25,27.81 C 21.07,27.55 20.72,27.06 20.71,27.06 C 20.48,26.68 20.03,26.48 19.59,26.56 z" id="p3546" style="fill:#a2593a;fill-opacity:0.27;fill-rule:evenodd;stroke:none;display:inline"/>
<path d="M 18.91,26.92 C 19.95,26.38 20.77,26.23 21.81,26.31 C 23.82,24.51 28.73,20.63 30.74,19.48 C 32.76,18.34 40.56,14.96 45.90,5.96" id="p3483" style="fill:none;fill-rule:evenodd;stroke:#e1b7a4;stroke-width:0.30;stroke-linecap:round;stroke-linejoin:miter;stroke-miterlimit:4;stroke-dasharray:none;stroke-opacity:0.30;display:inline"/>
<path d="M 39.18,14.03 C 41.13,12.53 42.36,10.93 42.63,10.49" id="p3495" style="fill:none;fill-rule:evenodd;stroke:#ca824d;stroke-width:2.70;stroke-linecap:round;stroke-linejoin:miter;stroke-miterlimit:4;stroke-dasharray:none;stroke-opacity:0.16;display:inline"/>
<path d="M 16.34,28.84 C 15.29,28.78 13.56,30.76 15.40,32.21 C 16.02,30.95 17.03,30.30 17.96,30.34 C 17.95,29.16 16.86,28.87 16.34,28.84 z" id="p3498" style="opacity:1;fill:#371d15;fill-opacity:0.72;fill-rule:evenodd;stroke:none;marker:none;visibility:visible;display:inline;overflow:visible;enable-background:accumulate"/>
<path d="M 12.78,31.46 C 11.66,31.54 10.45,33.32 11.5,35 C 12.19,33.60 13.26,33.00 15.06,33.12 C 15.07,33.09 15.08,33.06 15.09,33.03 C 14.33,31.90 14.11,31.44 12.78,31.46 z" id="p3501" style="opacity:1;fill:#351c0d;fill-opacity:0.65;fill-rule:evenodd;stroke:none;marker:none;visibility:visible;display:inline;overflow:visible;enable-background:accumulate"/>
<path d="M 8.62,35.06 C 6.58,35.32 5.60,38.50 5.25,40.78 C 5.46,40.64 5.70,40.60 5.90,40.37 C 8.25,35.89 9.69,35.40 10.65,35.68 C 9.88,35.18 9.21,34.98 8.62,35.06 z" id="p3504" style="opacity:1;fill:#52352c;fill-opacity:0.71;fill-rule:evenodd;stroke:none;marker:none;visibility:visible;display:inline;overflow:visible;enable-background:accumulate"/>
<path d="M 1.43,35.75 C 1.17,37.08 2.21,39.93 4.84,40.71 C 2.42,38.11 1.61,37.26 1.43,35.75 z" id="p3507" style="opacity:1;fill:#301a13;fill-opacity:0.84;fill-rule:evenodd;stroke:none;marker:none;visibility:visible;display:inline;overflow:visible;enable-background:accumulate"/>
<path d="M 19.64,22.65 C 20.40,22.69 24.04,20.98 24.04,20.98" id="p3536" style="fill:none;fill-rule:evenodd;stroke:#e2d6cf;stroke-width:1.29;stroke-linecap:butt;stroke-linejoin:miter;stroke-miterlimit:4;stroke-dasharray:none;stroke-opacity:0.13"/>
<path d="M 17.50,26.38 C 19.28,26.00 20.63,23.89 20.08,21.95" id="p3560" style="fill:none;fill-rule:evenodd;stroke:#ac6c55;stroke-width:1px;stroke-linecap:butt;stroke-linejoin:miter;stroke-opacity:0.30"/>
<path d="M 15.91,29.12 C 15.55,29.18 15.24,29.43 15.10,29.77 C 14.95,30.11 14.99,30.50 15.19,30.80 C 15.26,30.91 15.52,31.26 15.66,31.46 C 16.17,30.93 16.82,30.51 17.57,30.37 C 17.39,30.11 17.04,29.62 17.03,29.62 C 16.80,29.24 16.35,29.04 15.91,29.12 z" id="p3562" style="fill:#a2593a;fill-opacity:0.27;fill-rule:evenodd;stroke:none;display:inline"/>
<path d="M 12.46,31.62 C 12.10,31.68 11.79,31.93 11.65,32.27 C 11.50,32.61 11.54,33.00 11.74,33.30 C 11.81,33.41 12.07,33.76 12.21,33.96 C 12.72,33.43 13.37,33.01 14.12,32.87 C 13.94,32.61 13.59,32.12 13.59,32.12 C 13.35,31.74 12.90,31.54 12.46,31.62 z" id="p3565" style="fill:#a2593a;fill-opacity:0.27;fill-rule:evenodd;stroke:none;display:inline"/>
<path d="M 12.41,32.28 C 11.72,32.64 12.22,33.49 12.51,33.87 C 13.02,33.34 13.20,33.18 13.95,33.04 C 13.58,32.48 13.13,31.91 12.41,32.28 z" id="p3567" style="fill:#efdbd2;fill-opacity:0.06;fill-rule:evenodd;stroke:none;display:inline"/>
<path d="M 45.95,5.83 C 45.66,12.95 37.31,17.40 32.97,19.98 C 28.63,22.57 25.09,25.02 23.12,28.08 C 20.93,26.95 18.85,28.85 18.41,30.42 C 17.17,30.05 15.64,31.00 15.06,33.11 C 12.91,32.97 11.78,33.84 11.12,35.89 C 10.17,35.34 8.68,35.08 5.90,40.37 C 5.68,40.63 5.39,40.63 5.17,40.81 C 2.15,40.15 1.02,36.80 1.45,35.52 C 2.44,34.54 13.67,26.26 14.84,25.35 C 17.90,24.84 19.00,23.56 19.29,21.26 C 21.37,20.46 22.94,20.53 26.33,18.16 C 29.72,15.79 31.69,13.24 32.53,12.69 C 33.37,12.14 36.61,12.36 45.95,5.83 z" id="stroke01" style="fill:none;fill-opacity:1;fill-rule:evenodd;stroke:#1d1715;stroke-width:0.5;stroke-linecap:butt;stroke-linejoin:miter;stroke-miterlimit:4;stroke-dasharray:none;stroke-opacity:1;display:inline"/>
</g>
</svg>
