<?xml version="1.0" encoding="UTF-8" standalone="no"?>
<!DOCTYPE svg PUBLIC "-//W3C//DTD SVG 1.0//EN" "http://www.w3.org/TR/2001/REC-SVG-20010904/DTD/svg10.dtd">
<svg xmlns:svg="http://www.w3.org/2000/svg" xmlns="http://www.w3.org/2000/svg" version="1.0" width="100%" height="100%" viewBox="0 0 48 48" id="_blue04">
<defs id="defs2385"/>
<g id="blue04" style="display:inline">
<path d="M 6,15.94 L 6,31.81 L 16.72,42.31 L 31.3,42.74 L 42.66,31.59 L 42.87,16.48 L 32.48,5.54 L 16.93,5.33 L 6,15.94 z" id="p2481" style="fill:#242497;fill-opacity:1;fill-rule:evenodd;stroke:none"/>
<path d="M 6,16.5 L 6,31.81 L 16.71,42.31 L 31.31,42.75 L 42.65,31.59 L 42.87,16.68 L 41,17.93 L 38.56,17.71 L 36.21,18.37 L 36.53,19.62 L 34.62,19.53 L 33.34,20.37 L 32.62,21.87 L 32.5,27.5 L 28.25,32.18 L 27.62,33.03 L 20.59,33.34 L 14.43,27.81 L 14.25,25.15 L 11.68,21.03 L 11.06,21.96 L 9.87,19.84 L 7.12,18.68 L 6.46,16.78 L 6,16.5 z" id="p3451" style="fill:#5757f2;fill-opacity:0.33;fill-rule:evenodd;stroke:none;display:inline"/>
<path d="M 28.87,16.4 L 24.21,26.78 L 21.43,31.06 L 21.15,33.06 L 27.87,33 L 32.46,27.96 L 32.9,20.65 L 28.87,16.4 z" id="p3273" style="fill:#0b0b36;fill-opacity:0.76;fill-rule:evenodd;stroke:none"/>
<path d="M 28.19,22.91 L 32.05,26.23 L 31.94,27.09 L 27.54,24.2 L 25.83,23.55 L 27.22,21.84 L 28.08,21.84 L 28.19,22.91 z" id="p3317" style="fill:#8484da;fill-opacity:0.83;fill-rule:evenodd;stroke:none;display:inline"/>
<path d="M 18.53,18.84 L 17.9,19.68 L 16.09,19.28 L 17.59,26.25 L 14.4,27.78 L 16.56,29.93 L 21.65,27.31 L 22.31,24.62 L 25.4,23.56 L 23.81,20.03 L 18.53,18.84 z" id="p3275" style="fill:#55555f;fill-opacity:0.56;fill-rule:evenodd;stroke:none"/>
<path d="M 17.25,13.28 L 16.28,16.81 L 13.28,19.68 L 11.78,18.93 L 11.75,19.62 L 8.9,19.21 L 11.37,20.5 L 10.81,20.78 L 11.25,22.28 L 11.9,21.09 L 14.15,25.59 L 14.15,26.25 L 11.56,27.84 L 13.09,29.87 L 11.46,30.84 L 8.56,29.87 L 8.56,30.53 L 12.65,32.03 L 17.03,30.4 L 14.25,27.96 L 14.37,26.56 L 16.71,24 L 14.37,20.87 L 14.37,20.03 L 20.03,14.87 L 19.71,13.37 L 18.21,13.28 L 17.25,13.28 z" id="p3280" style="fill:#080820;fill-opacity:0.76;fill-rule:evenodd;stroke:none;display:inline"/>
<path d="M 22.9,14.71 L 23.25,16.06 L 24.12,16.28 L 24.12,16.81 L 22.71,16.28 L 23.25,17.43 L 21,17.78 L 19.62,19.15 L 22.4,20.03 L 23.06,19.06 L 25.93,19.5 L 24.96,17.87 L 26.25,17.03 L 25.75,14.75 L 22.9,14.71 z" id="p3283" style="fill:#050514;fill-opacity:0.73;fill-rule:evenodd;stroke:none;display:inline"/>
<path d="M 16.96,5.34 L 16.71,6.5 L 17.9,10.46 L 18.53,10.15 L 21.12,10.28 L 23.06,12.84 L 23.59,12.53 L 24.4,14.71 L 25.37,14.75 L 23.9,12.53 L 24.43,12.31 L 23.9,10.9 L 26.06,11.43 L 26.06,10.68 L 25.4,10.59 L 24.21,6.93 L 23.68,6.62 L 23.68,6.4 L 25.4,6.31 L 24.62,5.43 L 16.96,5.34 z" id="p3286" style="fill:#0b0b37;fill-opacity:0.76;fill-rule:evenodd;stroke:none;display:inline"/>
<path d="M 16.93,5.34 L 18.75,7.59 L 18.12,9.71 L 19.28,11.78 L 21.12,10.46 L 20.68,9.62 L 21.56,9.31 L 21.12,8.34 L 23.15,7.9 L 22.93,6.31 L 20.37,6.5 L 18.65,5.37 L 16.93,5.34 z" id="p3305" style="fill:#4949d8;fill-opacity:0.91;fill-rule:evenodd;stroke:none;display:inline"/>
<path d="M 18.73,19.1 L 19.27,15.28 L 19.94,14.84 L 19.59,11.15 L 20.93,10.34 L 20.66,9.67 L 21.52,9.26 L 22.82,10.48 L 21.11,10.3 L 22.78,12.54 L 23.67,12.5 L 24.35,14.7 L 21.47,14.66 L 22.55,16.32 L 23.04,17.44 L 20.84,17.67 L 19.81,18.97 L 18.73,19.1 z" id="p3522" style="fill:#49499d;fill-opacity:0.54;fill-rule:evenodd;stroke:none;display:inline"/>
<path d="M 24.43,5.43 L 25.18,6.31 L 23.81,6.5 L 23.68,6.93 L 24.56,7.06 L 24.21,7.81 L 25.31,10.81 L 28.71,9.53 L 30.21,9.62 L 31.71,8.34 L 31.53,9.93 L 33.12,10.46 L 33.96,8.56 L 32.71,5.84 L 32.46,5.56 L 24.43,5.43 z" id="p3307" style="fill:#5757dc;fill-opacity:0.86;fill-rule:evenodd;stroke:none;display:inline"/>
<path d="M 30.76,27.84 L 28.83,29.34 L 28.51,28.06 L 27.44,29.13 L 25.51,23.98 L 26.79,21.09 L 33.01,21.3 L 28.3,22.8 L 30.01,23.88 L 28.19,24.84 L 28.94,25.38 L 27.22,26.66 L 30.76,27.84 z" id="p3321" style="fill:#5f5fae;fill-opacity:0.83;fill-rule:evenodd;stroke:none;display:inline"/>
<path d="M 26.68,20.87 L 25.31,24 L 25.03,24.09 L 24.18,23.87 L 17.56,26.15 L 22.06,25.21 L 20.37,30.4 L 21.21,32.12 L 21.34,30.96 L 24.21,27 L 25.84,30.62 L 27.34,31.06 L 27.34,31.71 L 28.18,32.78 L 28.4,31.9 L 27.12,28.59 L 28.62,28.06 L 28.62,27.09 L 26.15,26.03 L 25.62,23.78 L 28.31,22.81 L 28.5,20.87 L 26.68,20.87 z" id="p3311" style="fill:#6e6ee1;fill-opacity:0.83;fill-rule:evenodd;stroke:none;display:inline"/>
<path d="M 31.73,19.69 L 34.94,19.37 L 34.62,18.62 L 36.76,18.73 L 38.59,17.77 L 37.62,16.16 L 40.52,15.62 L 39.12,14.76 L 40.19,13.58 L 35.16,10.15 L 34.08,11.76 L 35.58,12.73 L 34.19,14.87 L 34.62,15.09 L 33.44,16.91 L 32.15,15.41 L 31.73,19.69 z" id="p3314" style="fill:#5757dc;fill-opacity:0.86;fill-rule:evenodd;stroke:none;display:inline"/>
<path d="M 23.06,33.09 L 21.37,35.62 L 20.21,38.46 L 18,39.43 L 17.12,42.31 L 18.87,42.37 L 20.75,40.9 L 18.71,41.34 L 22.12,38.78 L 23.68,39.31 L 24.21,36.03 L 26.43,35.18 L 25.28,33.09 L 23.06,33.09 z" id="p3439" style="fill:#141466;fill-opacity:0.76;fill-rule:evenodd;stroke:none;display:inline"/>
<path d="M 23.7,41.65 L 26.76,41.01 L 24.44,40.27 L 25.81,37.2 L 27.93,37.84 L 28.77,39.74 L 29.51,35.3 L 28.03,35.83 L 27.5,34.88 L 26.13,34.88 L 24.33,36.14 L 24.01,37.1 L 23.06,36.57 L 25.6,33.82 L 25.07,33.08 L 23.7,33.08 L 22.32,36.14 L 22.11,37.94 L 23.91,37.2 L 23.59,39.21 L 23.06,38.9 L 22.53,40.59 L 24.33,39.85 L 23.7,41.65 z" id="p3427" style="fill:#06061e;fill-opacity:0.76;fill-rule:evenodd;stroke:none;display:inline"/>
<path d="M 30.04,30.54 L 31,33.5 L 33.11,32.65 L 32.58,30.11 L 33.75,30.43 L 35.02,27.89 L 32.37,26.94 L 32.37,27.89 L 30.04,30.54 z" id="p3430" style="fill:#101045;fill-opacity:1;fill-rule:evenodd;stroke:none;display:inline"/>
<path d="M 32.81,25.46 L 32.28,27.68 L 34.9,29.15 L 35.43,29.81 L 36.71,27.59 L 39.03,28.53 L 40.4,30.87 L 41.37,31.37 L 42.37,31.87 L 42.65,31.59 L 42.68,29.65 L 41.15,27.78 L 41.15,28.75 L 40.21,26.93 L 38.4,26 L 38.84,27.68 L 35.65,26.31 L 35.65,26.84 L 32.81,25.46 z M 35.96,31.18 L 35.21,31.81 L 37.25,32.43 L 36.71,32.96 L 39.34,33.4 L 37.87,35 L 39.15,35.03 L 42.28,31.96 L 40,32.87 L 38.71,31.59 L 37.34,31.59 L 35.96,31.18 z" id="p3433" style="fill:#11114d;fill-opacity:0.76;fill-rule:evenodd;stroke:none;display:inline"/>
<path d="M 18.93,32.87 L 18.62,35.4 L 16.62,36.78 L 15.96,38.06 L 15.65,37.84 L 15.43,39 L 14.06,37.4 L 14.4,40.06 L 16.31,41.9 L 15.87,39.75 L 16.93,37.31 L 19.46,35.62 L 19.78,32.96 L 18.93,32.87 z M 20.62,40.9 L 17.46,41.53 L 16.87,42.31 L 23.37,42.5 L 24.65,41.34 L 19.15,42.28 L 20.62,40.9 z" id="p3436" style="fill:#101051;fill-opacity:0.76;fill-rule:evenodd;stroke:none;display:inline"/>
<path d="M 14.15,20.02 L 14.36,27.73 L 19.72,33.09 L 27.87,32.99 L 32.48,27.95 L 32.9,20.66 L 27.33,14.76 L 19.83,14.66 L 14.15,20.02 z" id="p3271" style="fill:none;fill-rule:evenodd;stroke:#5050d4;stroke-width:0.40;stroke-linecap:butt;stroke-linejoin:miter;stroke-miterlimit:4;stroke-dasharray:none;stroke-opacity:0.68"/>
<path d="M 31.76,6.03 L 31.76,8.48 L 30.48,9.22 L 29.74,11.03 L 29.95,9.43 L 29.31,9.43 L 31.23,6.14 L 31.76,6.03 z" id="p3455" style="fill:#10105c;fill-opacity:0.83;fill-rule:evenodd;stroke:none;display:inline"/>
<path d="M 30.48,17.93 L 31.65,14.64 L 32.29,15.28 L 31.44,18.99 L 30.48,17.93 z" id="p3458" style="fill:#090939;fill-opacity:0.83;fill-rule:evenodd;stroke:none;display:inline"/>
<path d="M 32.5,23.03 L 32.61,21.23 L 34.2,19.63 L 37.92,20.06 L 38.98,19.84 L 39.94,19.1 L 40.68,20.16 L 39.3,21.33 L 39.19,20.38 L 37.49,22.29 L 32.5,23.03 z" id="p3464" style="fill:#5f5fef;fill-opacity:0.6;fill-rule:evenodd;stroke:none;display:inline"/>
<path d="M 32.5,24.94 L 36.22,22.61 L 36.22,21.97 L 36.96,21.86 L 37.28,20.59 L 36.01,21.65 L 32.5,22.93 L 32.5,24.94 z" id="p3461" style="fill:#080850;fill-opacity:0.8;fill-rule:evenodd;stroke:none;display:inline"/>
<path d="M 42.84,18.09 L 41.96,19.75 L 40.46,19.75 L 39.53,21.21 L 39.31,20.5 L 37.4,22.28 L 37.5,23.15 L 41.75,21.87 L 42.75,25 L 42.84,18.09 z" id="p3467" style="fill:#080850;fill-opacity:0.4;fill-rule:evenodd;stroke:none;display:inline"/>
<path d="M 16.22,37.9 L 17.9,39.68 C 17.9,39.68 18.89,39.39 18.89,38.99 C 18.89,38.6 18.89,37.41 18.89,37.41 L 17.51,36.52 L 16.72,37.01 L 16.22,37.9 z" id="p3476" style="fill:#7575de;fill-opacity:0.76;fill-rule:evenodd;stroke:none;display:inline"/>
<path d="M 20.48,38.2 L 22.06,38.69 L 18.74,41.27 L 17.37,41.55 L 18.12,39.9 L 20.48,38.2 z" id="p3478" style="fill:#2f2fbc;fill-opacity:0.76;fill-rule:evenodd;stroke:none;display:inline"/>
<path d="M 11.57,31.17 L 13.06,33.35 L 14.64,32.07 L 15.83,32.36 L 15.73,30.58 L 16.91,30.58 L 15.03,29.1 L 11.57,31.17 z" id="p3480" style="fill:#121265;fill-opacity:0.61;fill-rule:evenodd;stroke:none;display:inline"/>
<path d="M 9.78,25.84 L 7.4,26.81 L 7.31,25.93 L 6,27.43 L 6,29.03 L 7.53,27.4 L 7.62,28.21 L 10.18,27.53 L 9.78,25.84 z" id="p3482" style="fill:#1c1c76;fill-opacity:0.65;fill-rule:evenodd;stroke:none;display:inline"/>
<path d="M 18.89,17.32 L 18.89,19.1 L 17.9,19.99 L 16.22,19.4 L 18.89,17.32 z" id="p3484" style="fill:#0b0b41;fill-opacity:0.76;fill-rule:evenodd;stroke:none;display:inline"/>
<path d="M 38.28,12.37 L 37.59,13.75 L 37.9,14.15 L 36.81,14.34 L 38.09,17.81 L 38.46,17.59 L 37.62,16.15 L 40.53,15.62 L 39.12,14.78 L 40.18,13.59 L 38.53,12.46 L 38.28,12.37 z" id="p3486" style="fill:#a2a2f6;fill-opacity:0.4;fill-rule:evenodd;stroke:none;display:inline"/>
<path d="M 6,19.84 L 6,24.87 L 7.21,24.15 L 6.71,22.46 L 7.53,22.65 L 8.21,24.06 L 8.81,23.84 L 9.9,21.87 L 7.31,20 L 7.31,20.68 L 6,19.84 z" id="p3488" style="fill:#7575de;fill-opacity:0.65;fill-rule:evenodd;stroke:none;display:inline"/>
<path d="M 9.3,16.53 L 10.78,16.73 L 12.56,19.2 L 11.97,19.2 L 11.47,20.88 L 10.78,20.88 L 10.58,18.61 L 9.3,16.53 z" id="p3490" style="fill:#7f7ff9;fill-opacity:0.72;fill-rule:evenodd;stroke:none;display:inline"/>
<path d="M 9.37,30.18 L 10.89,28.34 L 12.46,29.06 L 14.42,27.9 L 15.49,28.79 L 11.47,30.8 L 9.37,30.18 z" id="p3514" style="fill:#a6a6eb;fill-opacity:0.65;fill-rule:evenodd;stroke:none"/>
<path d="M 9.78,25.84 L 10.09,27 L 10.94,25.84 L 10.71,25.49 L 9.78,25.84 z" id="p3516" style="fill:#cecef4;fill-opacity:0.72;fill-rule:evenodd;stroke:none"/>
<path d="M 12.05,26.78 L 12.37,27.32 L 13.44,26.69 L 13.13,26.16 L 12.05,26.78 z" id="p3518" style="fill:#cecef4;fill-opacity:0.72;fill-rule:evenodd;stroke:none"/>
<path d="M 6.02,30.09 L 7.59,28.21 L 7.45,27.36 L 5.89,29.1 L 6.02,30.09 z" id="p3520" style="fill:#7e7ee3;fill-opacity:0.72;fill-rule:evenodd;stroke:none"/>
<path d="M 20.48,6.48 L 21.25,8.32 L 23.13,7.87 L 22.87,6.39 L 20.48,6.48 z" id="p3525" style="fill:#ababed;fill-opacity:0.72;fill-rule:evenodd;stroke:none"/>
<path d="M 17.38,24.73 L 14.23,20.53 L 14.32,20.17 L 14.96,19.57 L 17.38,24.73 z" id="p3532" style="fill:#d8d8f6;fill-opacity:0.54;fill-rule:evenodd;stroke:none;display:inline"/>
<path d="M 10.08,12.09 L 11.72,11.91 L 11.22,12.55 L 13.04,12.09 L 12.68,13.41 L 15.37,14.83 L 13.5,15.56 L 16.05,16.97 L 11.49,16.79 L 12.5,16.11 L 9.71,14.37 L 10.49,12.96 L 9.12,12.91 L 10.08,12.09 z" id="p3535" style="fill:#5555a6;fill-opacity:0.38;fill-rule:evenodd;stroke:none;display:inline"/>
<path d="M 15.78,14.78 L 17.15,11 L 18.52,9.95 L 19.2,11.54 L 18.93,12.73 L 17.19,13.37 L 16.83,14.69 L 15.78,14.78 z" id="p3537" style="fill:#6c6ca6;fill-opacity:0.38;fill-rule:evenodd;stroke:none;display:inline"/>
<path d="M 16.09,19.28 L 17.12,24.09 C 18.26,23.88 19.31,22.03 19.31,22.03 L 23.37,24.03 L 25.31,23.53 L 17.65,19.68 L 17.46,19.59 L 16.09,19.28 z" id="p3541" style="fill:#5555a6;fill-opacity:0.45;fill-rule:evenodd;stroke:none;display:inline"/>
<path d="M 6.64,15.3 L 9.96,14.33 L 10.71,12.73 L 8.79,12.94 L 6.64,15.3 z" id="p3257" style="fill:#b4b4f9;fill-opacity:0.93;fill-rule:evenodd;stroke:none"/>
<path d="M 30.22,30.41 L 29.58,31.7 L 29.8,34.6 L 30.65,34.27 L 30.55,35.35 L 31.19,37.38 L 30.44,40.28 L 31.19,40.28 L 31.73,36.95 L 33.01,35.99 L 30.22,30.41 z" id="p3259" style="fill:#d6d6fd;fill-opacity:0.93;fill-rule:evenodd;stroke:none"/>
<path d="M 28.51,12.51 L 27.44,14.87 L 31.62,19.16 L 34.51,17.98 L 30.87,11.12 L 28.51,12.51 z" id="p3261" style="fill:#f0f0f2;fill-opacity:0.56;fill-rule:evenodd;stroke:none"/>
<path d="M 35.16,29.24 L 32.58,22.48 L 37.3,20.77 L 37.3,22.05 L 35.16,29.24 z" id="p3263" style="fill:#f0f0f2;fill-opacity:0.56;fill-rule:evenodd;stroke:none"/>
<path d="M 32.69,41.24 L 32.69,38.99 L 33.98,37.38 L 33.66,40.28 L 32.69,41.24 z" id="p3265" style="fill:#b6b6fa;fill-opacity:0.93;fill-rule:evenodd;stroke:none"/>
<path d="M 12.54,28.91 L 13.07,30.09 L 15.65,28.81 L 14.47,27.84 L 12.54,28.91 z" id="p3267" style="fill:#cfcffd;fill-opacity:0.93;fill-rule:evenodd;stroke:none"/>
<path d="M 25.29,23.98 L 24.65,25.91 L 26.37,26.02 L 25.29,23.98 z" id="p3269" style="fill:#dfdffd;fill-opacity:0.93;fill-rule:evenodd;stroke:none"/>
<path d="M 6,15.94 L 6,31.81 L 16.72,42.31 L 31.3,42.74 L 42.66,31.59 L 42.87,16.48 L 32.48,5.54 L 16.93,5.33 L 6,15.94 z" id="stroke01" style="fill:none;fill-opacity:1;fill-rule:evenodd;stroke:#070742;stroke-width:0.5;stroke-linecap:butt;stroke-linejoin:round;stroke-miterlimit:4;stroke-dasharray:none;stroke-opacity:1"/>
</g>
</svg>
