<?xml version="1.0" encoding="UTF-8" standalone="no"?>
<!DOCTYPE svg PUBLIC "-//W3C//DTD SVG 1.0//EN" "http://www.w3.org/TR/2001/REC-SVG-20010904/DTD/svg10.dtd">
<svg xmlns:svg="http://www.w3.org/2000/svg" xmlns="http://www.w3.org/2000/svg" version="1.0" width="100%" height="100%" viewBox="0 0 48 48" id="copper01">
<defs id="defs2385"/>
<g id="content" style="display:inline">
<path d="M 2.10,31.96 C 2.69,36.06 9.24,39.69 10.88,40.51 C 12.52,41.32 14.39,42.14 14.97,42.14 C 15.56,42.14 16.15,41.56 19.66,42.49 C 23.17,43.43 28.08,44.25 35.22,40.27 C 42.36,36.29 42.24,32.20 42.36,31.73 C 42.48,31.26 42.24,29.15 44.00,26.46 C 45.75,23.77 47.04,22.72 43.53,17.22 C 40.02,11.72 38.73,10.90 38.73,10.90 C 38.73,10.90 38.03,12.77 33.47,8.91 C 28.90,5.04 23.40,1.53 16.26,9.49 C 9.12,17.45 1.75,25.29 2.10,31.96 z" id="p3256" style="fill:#4e3d45;fill-opacity:1;fill-rule:evenodd;stroke:none;"/>
<path d="M 24.75,4.71 C 22.19,4.74 19.40,6.01 16.28,9.5 C 11.26,15.08 6.14,20.61 3.65,25.71 C 6.28,28.47 8.34,29.38 9.46,29.28 C 10.82,29.15 14.53,28.18 14.53,28.18 C 14.53,28.18 15.76,28.30 16.5,28.06 C 17.23,27.81 22.16,29.43 26.46,29.18 C 30.77,28.94 33.08,29.05 34.68,30.65 C 36.07,32.04 40.42,31.78 42.43,31.12 C 42.43,31.11 42.43,31.10 42.43,31.09 C 42.50,30.17 42.68,28.48 44,26.46 C 45.75,23.77 47.04,22.71 43.53,17.21 C 40.02,11.71 38.75,10.90 38.75,10.90 C 38.75,10.90 38.03,12.76 33.46,8.90 C 30.90,6.73 28.03,4.69 24.75,4.71 z" id="p3262" style="fill:#ab9dba;fill-opacity:0.75;fill-rule:evenodd;stroke:none;display:inline"/>
<path d="M 31.96,7.71 C 31.40,8.48 31,9 31,9 C 31.00,9.00 31.99,9.35 31.37,9.84 C 30.75,10.33 29.52,10.35 29.15,11.09 C 28.78,11.83 26.22,13.17 26.34,14.15 C 26.46,15.14 26.70,16.26 25.96,17.25 C 25.23,18.23 22.40,19.46 22.15,21.18 C 21.91,22.91 20.53,24.36 18.93,25.46 C 17.50,26.45 16.30,26.48 16.06,28.15 C 16.21,28.13 16.37,28.10 16.5,28.06 C 17.23,27.81 22.16,29.43 26.46,29.18 C 30.77,28.94 33.08,29.05 34.68,30.65 C 36.07,32.04 40.42,31.78 42.43,31.12 C 42.43,31.11 42.43,31.10 42.43,31.09 C 42.45,30.88 42.48,30.57 42.53,30.28 C 42.57,29.94 42.63,29.60 42.75,29.18 C 42.80,28.99 42.86,28.77 42.93,28.56 C 42.96,28.49 43.00,28.41 43.03,28.34 C 43.08,28.20 43.15,28.05 43.21,27.90 C 43.24,27.85 43.28,27.80 43.31,27.75 C 43.39,27.58 43.46,27.42 43.56,27.25 C 43.69,27.00 43.82,26.73 44,26.46 C 45.75,23.77 47.04,22.71 43.53,17.21 C 40.02,11.71 38.75,10.90 38.75,10.90 C 38.75,10.90 38.34,11.94 36.21,10.84 C 35.86,10.65 35.45,10.41 35,10.09 C 34.54,9.77 34.03,9.38 33.46,8.90 C 32.98,8.49 32.47,8.10 31.96,7.71 z" id="p3264" style="fill:#4b4255;fill-opacity:0.68;fill-rule:evenodd;stroke:none;display:inline"/>
<path d="M 3.46,26.12 C 2.53,28.14 1.99,30.10 2.09,31.96 C 2.67,36.06 9.23,39.68 10.87,40.5 C 12.51,41.31 14.38,42.15 14.96,42.15 C 15.55,42.15 16.14,41.56 19.65,42.5 C 21.85,43.08 24.60,43.61 28.09,42.96 C 27.14,42.48 25.94,41.87 25.68,41.68 C 25.29,41.39 24.80,41.77 22.37,41 C 19.94,40.22 18.96,38.94 19.93,39.53 C 20.91,40.11 24.89,40.52 26.06,40.81 C 26.99,41.04 29.09,41.74 30.40,42.37 C 30.97,42.19 31.55,41.99 32.15,41.75 C 31.33,41.36 30.35,40.88 29.68,40.5 C 28.32,39.72 23.54,39.35 22.28,39.15 C 21.01,38.96 15.75,36.12 14.87,36.12 C 13.99,36.12 9.13,33.02 6.40,31.37 C 3.87,29.83 3.71,28.49 3.46,26.12 z" id="p3295" style="fill:#f1b92b;fill-opacity:0.61;fill-rule:evenodd;stroke:none;display:inline"/>
<path d="M 12.21,19.28 C 12.08,19.26 11.95,19.27 11.78,19.31 C 10.41,19.60 8.95,20.35 9.34,20.93 C 9.73,21.52 11.28,22.01 11.18,22.5 C 11.09,22.98 9.33,24.25 9.62,25.90 C 10.69,27.17 10.99,28.64 10.21,28.84 C 9.44,29.03 9.43,29.79 10.31,30.28 C 11.18,30.76 14.59,32.71 15.37,32.71 C 16.15,32.71 17.62,31.84 18.59,31.84 C 19.56,31.84 20.24,31.64 20.43,31.93 C 20.63,32.22 23.55,34.27 24.71,34.37 C 25.88,34.47 27.54,34.29 28.81,35.65 C 30.07,37.01 31.63,38.77 33.09,39.06 C 33.82,39.20 34.89,39.58 35.78,39.93 C 36.88,39.28 37.83,38.63 38.59,38 L 35.65,32.09 C 35.70,32.36 35.61,32.90 34.15,32.90 C 32.21,32.90 30.65,32.23 29.87,32.62 C 29.09,33.01 24.21,32.62 22.65,30.87 C 21.09,29.12 21.02,28.44 18.68,28.34 C 16.35,28.24 14.88,27.96 13.81,28.15 C 12.74,28.35 13.13,28.05 13.71,26.59 C 14.30,25.13 14.49,22.60 13.90,21.53 C 13.39,20.59 13.17,19.37 12.21,19.28 z" id="p3297" style="fill:#f1b92b;fill-opacity:0.38;fill-rule:evenodd;stroke:none;display:inline"/>
<path d="M 29.14,33.62 C 30.16,32.72 32.22,32.97 34.02,32.97 C 35.81,32.97 36.20,34.00 36.20,34.00 C 36.20,34.00 33.89,35.03 32.22,34.77 C 30.55,34.52 29.14,33.36 29.14,33.62 z" id="p3340" style="fill:#edd667;fill-opacity:0.55;fill-rule:evenodd;stroke:none;display:inline"/>
<path d="M 31.15,7.09 C 31.05,7.97 31.18,8.88 31,9.25 C 30.75,9.74 29.15,9.96 29.03,11.43 C 28.90,12.91 29.90,13.80 29.65,15.03 C 29.41,16.26 28.43,14.52 28.31,16.12 C 28.18,17.72 27.43,22.28 27.43,22.28 L 28.18,22.90 C 28.18,22.90 28.07,21.65 28.56,21.65 C 29.05,21.65 30.15,22.51 30.15,25.34 C 30.15,28.17 29.66,28.91 30.03,29.28 C 30.40,29.65 32.10,31.26 32.84,32.12 C 33.58,32.98 34.46,33 34.46,33 C 34.46,33.00 36.72,36.95 38.03,38.43 C 42.31,35.12 42.27,32.11 42.37,31.71 C 42.49,31.25 42.24,29.16 44,26.46 C 45.75,23.77 47.04,22.71 43.53,17.21 C 40.02,11.71 38.75,10.90 38.75,10.90 C 38.75,10.90 38.03,12.76 33.46,8.90 C 32.72,8.27 31.95,7.65 31.15,7.09 z" id="p3266" style="fill:#26212d;fill-opacity:0.88;fill-rule:evenodd;stroke:none;display:inline"/>
<path d="M 24.34,4.75 C 22.81,4.84 21.21,5.39 19.5,6.59 C 19.64,6.98 19.82,7.28 20.03,7.53 C 20.51,8.11 21.11,7.44 21.31,8.12 C 21.50,8.80 21.61,10.54 22,10.93 C 22.38,11.32 23.15,11.03 23.15,11.03 C 23.15,11.03 23.74,11.90 22.96,11.90 C 22.19,11.90 21.98,12.38 21.5,12.87 C 21.01,13.36 19.85,12.39 18.59,13.46 C 17.32,14.53 15.87,14.92 15.96,15.31 C 16.06,15.70 17.21,16.29 16.53,16.68 C 15.85,17.07 14.68,16.46 13.81,17.43 C 12.93,18.41 13.41,19.5 12.34,19.5 C 11.27,19.49 9.43,20.37 9.43,21.25 C 9.43,22.12 9.53,22.90 10.40,22.90 C 11.28,22.90 13.61,23.10 14,22.03 C 14.38,20.96 13.62,20.54 13.71,20.06 C 13.81,19.57 14.5,18.81 14.5,18.81 C 14.5,18.81 15.64,19.20 15.84,18.81 C 16.03,18.42 17.21,18.51 17.21,17.34 C 17.21,16.17 17.71,16.68 18.68,16.68 C 19.66,16.68 20.24,16.27 21.21,15.68 C 22.19,15.10 22.38,15.71 22.87,16.78 C 23.36,17.85 25.09,17.54 25.09,18.81 C 25.09,20.07 25.08,21.25 26.15,21.25 C 27.22,21.24 29.47,21.64 30.06,22.71 C 30.64,23.78 28.69,19.77 30.15,19.09 C 31.61,18.41 32.29,21.14 32.68,19.78 C 32.98,18.73 34.47,13.73 34.93,10.03 C 34.49,9.72 34.01,9.36 33.46,8.90 C 32.12,7.77 30.70,6.69 29.18,5.90 C 28.31,7.36 27.34,9.65 26.37,9.65 C 25.40,9.65 23.94,8.49 23.75,7.81 C 23.55,7.13 21.31,7.43 22.09,6.75 C 22.58,6.31 23.73,5.53 24.34,4.75 z" id="p3299" style="fill:#f1b92b;fill-opacity:0.25;fill-rule:evenodd;stroke:none;display:inline"/>
<path d="M 34.53,9.71 C 35.00,11.41 34.90,13.47 33.84,15.5 C 32.36,18.33 32.00,19.32 32.25,19.93 C 32.49,20.55 33.84,23.01 34.09,24 C 34.33,24.98 34.68,26.10 34.68,26.59 C 34.68,27.08 37.53,30.88 37.90,31.37 C 38.27,31.86 39.5,32.37 39.5,32.37 L 42.34,32 C 42.34,31.99 42.34,31.97 42.34,31.96 C 41.56,32.01 40.59,31.99 40.37,31.62 C 40.00,31.00 39,30.76 39,29.90 C 39.00,29.04 39,26.71 39,26.71 L 38.15,26.59 C 38.15,26.59 37.16,24.11 37.65,23.37 C 38.14,22.63 38.40,22.28 38.40,22.28 C 38.40,22.28 37.03,18.33 37.03,17.71 C 37.03,17.10 36.18,16.25 36.18,16.25 L 38.28,12.68 C 38.28,12.68 38.06,12.12 38.15,11.31 C 37.59,11.44 36.51,11.19 34.53,9.71 z" id="p3268" style="fill:#7b644b;fill-opacity:1;fill-rule:evenodd;stroke:none;display:inline"/>
<path d="M 34.53,9.71 C 35.00,11.41 34.90,13.47 33.84,15.5 C 32.36,18.33 32.00,19.32 32.25,19.93 C 32.25,19.95 32.30,20.01 32.31,20.03 C 33.45,19.43 35.06,17.34 35.06,17.34 C 35.06,17.34 36.27,17.78 37.03,17.62 C 36.96,17.01 36.18,16.25 36.18,16.25 L 38.28,12.68 C 38.28,12.68 38.06,12.12 38.15,11.31 C 37.59,11.44 36.51,11.19 34.53,9.71 z" id="p3270" style="fill:#96939c;fill-opacity:0.80;fill-rule:evenodd;stroke:none;display:inline"/>
<path d="M 32.15,17.12 C 32.14,17.12 32.17,17.16 32.21,17.25 C 32.60,17.93 32.09,19.31 32.09,20.18 C 32.09,21.06 32.79,21.74 34.06,23.59 C 35.32,25.44 33.36,25.71 34.62,26.68 C 35.88,27.66 36.68,29.90 36.87,30.68 C 37.06,31.46 39.10,31.36 38.71,31.56 C 38.32,31.75 38.80,34.96 38.90,36.03 C 38.95,36.60 39.14,37.03 39.31,37.34 C 39.65,37.01 39.95,36.68 40.21,36.37 C 40.18,36.29 40.16,36.20 40.09,36.12 C 39.41,35.34 39.59,33.70 40.37,32.34 C 40.93,31.36 40.98,30.24 40.96,29.90 C 40.96,30.49 40.66,30.57 40.46,31.15 C 40.27,31.74 39.79,30.58 39.40,29.90 C 39.01,29.22 39.31,29.12 39.31,29.12 C 39.31,29.12 38.81,28.93 37.84,28.93 C 36.87,28.93 36.48,27.56 36.09,26.59 C 35.70,25.62 35.79,24.55 36.18,23.78 C 36.57,23.00 35.10,22.41 35.59,22.21 C 36.08,22.02 38.43,23.09 38.43,23.09 L 38.12,22.40 C 38.12,22.40 37.16,21.81 36,21.71 C 34.83,21.62 35.31,19.87 33.65,18.90 C 33.65,19.07 32.24,17.15 32.15,17.12 z" id="p3301" style="fill:#f1b92b;fill-opacity:0.25;fill-rule:evenodd;stroke:none;display:inline"/>
<path d="M 34.37,26.43 C 34.44,26.51 34.51,26.59 34.62,26.68 C 35.81,27.60 36.56,29.61 36.81,30.5 C 37.97,30.53 39.40,30.15 39.40,30.15 L 39.37,29.81 C 39.15,29.38 39.22,29.21 39.28,29.15 L 39.28,29.12 C 39.28,29.12 38.37,28.87 37.34,29 C 36.31,29.12 36.58,27.97 35.68,26.43 L 34.37,26.43 z" id="p3336" style="fill:#edd667;fill-opacity:0.35;fill-rule:evenodd;stroke:none;display:inline"/>
<path d="M 31.15,7.12 C 31.06,8.00 31.17,8.89 31,9.25 C 30.75,9.74 29.15,9.96 29.03,11.43 C 28.90,12.91 29.90,13.80 29.65,15.03 C 29.41,16.26 28.43,14.52 28.31,16.12 C 28.21,17.45 27.74,20.33 27.56,21.43 C 27.88,21.50 28.21,21.57 28.53,21.68 C 28.54,21.68 28.54,21.65 28.56,21.65 C 28.70,21.65 28.91,21.73 29.12,21.90 C 29.53,22.11 29.88,22.39 30.06,22.71 C 30.64,23.78 28.69,19.77 30.15,19.09 C 31.61,18.41 32.29,21.14 32.68,19.78 C 32.98,18.73 34.47,13.73 34.93,10.03 C 34.49,9.72 34.01,9.36 33.46,8.90 C 33.12,8.61 32.78,8.33 32.43,8.06 C 32.40,8.03 32.37,7.99 32.34,7.96 C 32.04,7.72 31.71,7.50 31.40,7.28 C 31.32,7.22 31.23,7.18 31.15,7.12 z" id="p3321" style="fill:#2e2735;fill-opacity:0.62;fill-rule:evenodd;stroke:none;display:inline"/>
<path d="M 9.50,20.01 C 8.85,20.91 9.37,22.45 10.52,22.58 C 11.68,22.70 13.99,22.45 13.99,23.09 C 13.99,23.73 13.86,21.04 13.86,21.04 C 13.86,21.04 12.19,20.91 11.81,20.14 C 11.42,19.37 9.62,20.14 9.50,20.01 z" id="p3326" style="fill:#f6e369;fill-opacity:0.80;fill-rule:evenodd;stroke:none;display:inline"/>
<path d="M 15.02,17.18 C 15.91,17.06 17.97,17.06 17.97,17.06 C 17.97,17.06 15.91,17.95 15.27,18.47 C 14.63,18.98 14.76,20.65 13.73,19.88 C 12.70,19.11 12.32,18.34 15.02,17.18 z" id="p3328" style="fill:#f5ee55;fill-opacity:0.67;fill-rule:evenodd;stroke:none;display:inline"/>
<path d="M 19.89,14.87 C 20.02,15.39 20.54,15.90 21.31,15.64 C 22.08,15.39 23.75,14.62 22.85,14.10 C 21.95,13.59 20.66,12.18 20.41,12.95 C 20.15,13.72 19.77,14.10 20.41,13.97 C 21.05,13.85 20.92,14.23 20.92,14.23 C 20.92,14.23 20.41,14.10 19.89,14.87 z" id="p3330" style="fill:#f5ee55;fill-opacity:0.67;fill-rule:evenodd;stroke:none;display:inline"/>
<path d="M 2.09,31.75 C 2.09,31.82 2.08,31.89 2.09,31.96 C 2.29,33.35 3.16,34.68 4.31,35.87 C 6.47,34.67 9.24,34.76 8.34,34.65 C 7.60,34.56 6.68,33.67 6.21,33.18 C 6.33,33.44 6.29,33.84 5.53,34.40 C 4.11,35.43 4.09,34.26 4.09,33.62 C 4.09,33.06 3.53,33.17 2.09,31.75 z M 6.21,33.18 C 6.12,32.97 5.90,32.84 5.90,32.84 C 5.90,32.84 6.04,32.99 6.21,33.18 z" id="p3332" style="fill:#f4e359;fill-opacity:0.89;fill-rule:evenodd;stroke:none;display:inline"/>
<path d="M 29.39,11.02 C 28.11,12.56 27.60,13.59 28.62,14.36 C 29.65,15.13 30.42,14.62 30.29,16.03 C 30.16,17.44 32.86,15.26 32.86,16.28 C 32.86,17.31 34.27,14.62 32.86,12.05 C 31.45,9.48 31.19,9.99 31.19,9.99 C 31.19,9.99 30.68,10.89 29.39,11.02 z" id="p3334" style="fill:#2e2735;fill-opacity:0.81;fill-rule:evenodd;stroke:none;display:inline"/>
<path d="M 37.48,18.21 C 39.02,19.62 40.18,23.22 40.95,22.70 C 41.72,22.19 44.29,20.39 43.39,19.24 C 42.49,18.08 39.41,13.97 38.51,13.97 C 37.61,13.97 36.84,15.00 36.46,15.51 C 36.07,16.03 37.74,18.34 37.48,18.21 z" id="p3338" style="fill:#edd667;fill-opacity:0.09;fill-rule:evenodd;stroke:none;display:inline"/>
<path d="M 16.68,27.45 C 17.71,26.17 20.41,25.14 21.18,24.12 C 21.95,23.09 22.08,21.29 22.98,20.52 C 23.87,19.75 27.73,20.01 27.73,21.42 C 27.73,22.83 29.91,21.29 29.91,23.09 C 29.91,24.89 30.16,27.58 30.16,27.58 C 30.16,27.58 28.62,27.20 26.70,27.71 C 24.77,28.22 23.49,28.61 22.98,29.38 C 22.46,30.15 16.43,28.61 16.68,27.45 z" id="p3342" style="fill:#2e2735;fill-opacity:0.57;fill-rule:evenodd;stroke:none;display:inline"/>
<path d="M 2.10,31.96 C 2.69,36.06 9.24,39.69 10.88,40.51 C 12.52,41.32 14.39,42.14 14.97,42.14 C 15.56,42.14 16.15,41.56 19.66,42.49 C 23.17,43.43 28.08,44.25 35.22,40.27 C 42.36,36.29 42.24,32.20 42.36,31.73 C 42.48,31.26 42.24,29.15 44.00,26.46 C 45.75,23.77 47.04,22.72 43.53,17.22 C 40.02,11.72 38.73,10.90 38.73,10.90 C 38.73,10.90 38.03,12.77 33.47,8.91 C 28.90,5.04 23.40,1.53 16.26,9.49 C 9.12,17.45 1.75,25.29 2.10,31.96 z" id="stroke01" style="fill:none;fill-opacity:1;fill-rule:evenodd;stroke:#000000;stroke-width:0.5;stroke-linecap:butt;stroke-linejoin:miter;stroke-miterlimit:4;stroke-dasharray:none;stroke-opacity:1"/>
</g>
</svg>
