<?xml version="1.0" encoding="UTF-8" standalone="no"?>
<!DOCTYPE svg PUBLIC "-//W3C//DTD SVG 1.0//EN" "http://www.w3.org/TR/2001/REC-SVG-20010904/DTD/svg10.dtd">
<svg xmlns:svg="http://www.w3.org/2000/svg" xmlns="http://www.w3.org/2000/svg" version="1.0" width="100%" height="100%" viewBox="0 0 48 48" id="_gold01">
<defs id="defs2385"/>
<g id="gold01" style="display:inline">
<path d="M 5.16,37.50 C 7.59,39.33 17.49,45.44 18.51,46.16 C 19.53,46.89 20.17,45.69 20.60,45.14 C 21.03,44.58 42.57,15.62 43.34,14.51 C 44.11,13.40 43.76,12.33 43.55,11.86 C 43.34,11.39 42.87,9.56 42.57,8.53 C 42.27,7.51 41.50,7.21 40.99,6.87 C 40.48,6.53 31.99,2.05 31.22,1.67 C 30.45,1.28 29.81,1.75 29.26,2.48 C 28.71,3.20 6.22,30.42 5.80,31.40 C 5.37,32.38 4.90,35.58 4.77,36.22 C 4.65,36.86 4.77,37.33 5.16,37.50 z" id="p2465" style="fill:#f5ce83;fill-opacity:1;fill-rule:evenodd;stroke:none;"/>
<path d="M 30.68,1.53 C 30.15,1.53 29.66,1.92 29.25,2.46 C 28.69,3.19 6.23,30.42 5.81,31.40 C 5.80,31.42 5.78,31.45 5.78,31.46 C 6.15,32.10 6.74,32.52 7.18,32.81 C 8.11,33.42 16.30,38.65 17.43,39.37 C 18.56,40.09 18.96,38.76 19.78,37.84 C 20.60,36.92 41.11,9.43 41.62,8.71 C 41.80,8.46 42.04,8.13 42.12,7.71 C 41.77,7.32 41.33,7.09 41,6.87 C 40.48,6.53 31.98,2.04 31.21,1.65 C 31.02,1.56 30.86,1.52 30.68,1.53 z" id="p3240" style="fill:#7c5907;fill-opacity:0.78;fill-rule:evenodd;stroke:none;"/>
<path d="M 21.93,13.90 C 20.70,13.98 19.92,14.49 19.59,15.15 C 18.35,18.36 14.31,23.48 10.93,26.03 C 7.56,28.58 12.43,27.84 13.09,29.90 C 13.75,31.96 15.20,34.41 17.59,34.25 C 19.97,34.08 20.15,35.83 19,38.46 C 18.91,38.66 18.95,38.72 19.06,38.75 C 19.27,38.44 19.51,38.14 19.78,37.84 C 20.21,37.36 25.79,29.94 31.31,22.56 C 29.19,19.67 30.59,17.41 26.90,15.34 C 24.84,14.19 23.17,13.82 21.93,13.90 z" id="p3289" style="fill:#b38e40;fill-opacity:0.60;fill-rule:evenodd;stroke:none;display:inline"/>
<path d="M 8.42,30.62 L 13.98,24.16" id="p3342" style="fill:none;fill-rule:evenodd;stroke:#8a671f;stroke-width:2.20;stroke-linecap:round;stroke-linejoin:miter;stroke-miterlimit:4;stroke-dasharray:none;stroke-opacity:0.79"/>
<path d="M 30.68,1.53 C 30.15,1.53 29.66,1.92 29.25,2.46 C 28.93,2.87 21.75,11.57 15.37,19.40 C 15.34,21.03 15.32,22.29 14.31,23.5 C 11.87,26.38 10.64,27.04 12.75,29.15 C 14.85,31.26 16.19,34.68 17.96,33.46 C 19.71,32.27 24.73,26.64 18.09,39.56 C 18.75,39.50 19.14,38.55 19.78,37.84 C 20.60,36.92 41.11,9.43 41.62,8.71 C 41.80,8.46 42.04,8.13 42.12,7.71 C 41.77,7.32 41.33,7.09 41,6.87 C 40.48,6.53 31.98,2.04 31.21,1.65 C 31.02,1.56 30.86,1.52 30.68,1.53 z" id="p3258" style="fill:#f5ce83;fill-opacity:0.30;fill-rule:evenodd;stroke:none;display:inline"/>
<path d="M 12.42,28.82 L 17.10,31.88" id="p3344" style="fill:none;fill-rule:evenodd;stroke:#795c1c;stroke-width:6.90;stroke-linecap:round;stroke-linejoin:miter;stroke-miterlimit:4;stroke-dasharray:none;stroke-opacity:0.60"/>
<path d="M 30.68,1.53 C 30.15,1.53 29.66,1.92 29.25,2.46 C 29.00,2.78 23.94,8.97 19.03,14.96 C 17.38,19.57 17.40,23.43 20.28,23.71 C 24.82,24.16 20.84,30.93 21.06,37.81 C 21.12,39.84 21.79,41.27 22.68,42.31 C 25.76,38.19 35.65,24.88 40.09,18.87 C 39.89,16.24 39.48,11.99 38.59,9.53 C 38.11,8.22 37.02,6.07 35.46,3.87 C 33.56,2.86 31.54,1.81 31.21,1.65 C 31.02,1.56 30.86,1.52 30.68,1.53 z" id="p3252" style="fill:#f5ce83;fill-opacity:0.55;fill-rule:evenodd;stroke:none;display:inline"/>
<path d="M 42.12,7.71 L 18.25,38.87 L 19.31,46.34 C 19.88,46.21 20.29,45.54 20.59,45.15 C 21.02,44.60 42.57,15.60 43.34,14.5 C 44.11,13.39 43.77,12.34 43.56,11.87 C 43.34,11.40 42.86,9.55 42.56,8.53 C 42.45,8.17 42.31,7.93 42.12,7.71 z" id="p3278" style="fill:#9b7f34;fill-opacity:0.27;fill-rule:evenodd;stroke:none;display:inline"/>
<path d="M 31.12,2.96 C 30.49,2.97 29.88,3.27 29.28,3.96 C 26.35,7.36 20.03,16.14 19.21,17.43 C 18.39,18.72 23.67,19.79 22.96,22.71 C 22.29,25.51 23.11,29.46 25.84,29.81 C 30.73,23.29 35.32,17.15 38.28,13.18 C 37.36,10.10 34.22,2.95 31.12,2.96 z" id="p3269" style="fill:#f4d074;fill-opacity:0.54;fill-rule:evenodd;stroke:none;display:inline"/>
<path d="M 21.89,16.53 L 25.96,19.02" id="p3361" style="fill:none;fill-rule:evenodd;stroke:#d7a350;stroke-width:4.5;stroke-linecap:round;stroke-linejoin:miter;stroke-miterlimit:4;stroke-dasharray:none;stroke-opacity:0.41;display:inline"/>
<path d="M 27.18,20.34 C 26.64,20.28 26.06,20.48 25.43,21 C 23.86,22.29 24.18,26.03 26.21,29.34 C 27.65,27.42 29.01,25.63 30.59,23.53 C 30.32,23.10 30.02,22.64 29.65,22.15 C 28.92,21.17 28.09,20.43 27.18,20.34 z" id="p3300" style="fill:#f8dfaf;fill-opacity:0.49;fill-rule:evenodd;stroke:none;display:inline"/>
<path d="M 18.40,38.90 L 41.58,8.07" id="p3261" style="fill:none;fill-rule:evenodd;stroke:#774e08;stroke-width:1px;stroke-linecap:round;stroke-linejoin:miter;stroke-opacity:1;display:inline"/>
<path d="M 27.40,7.59 C 24.71,10.99 25.53,11.81 26.81,12.51 C 28.10,13.21 30.80,14.85 31.38,15.20 C 31.97,15.55 34.19,14.73 35.01,13.33 C 35.83,11.92 30.91,5.13 27.40,7.59 z" id="p3272" style="fill:#f8e0a1;fill-opacity:0.54;fill-rule:evenodd;stroke:none;display:inline"/>
<path d="M 19.14,38.67 L 38.68,12.92" id="p3281" style="fill:none;fill-rule:evenodd;stroke:#f0d590;stroke-width:0.69;stroke-linecap:round;stroke-linejoin:miter;stroke-miterlimit:4;stroke-dasharray:none;stroke-opacity:0.84;display:inline"/>
<path d="M 5.97,31.87 L 17.98,39.34" id="p3284" style="fill:none;fill-rule:evenodd;stroke:#3e280b;stroke-width:1px;stroke-linecap:round;stroke-linejoin:miter;stroke-opacity:1"/>
<path d="M 6.74,31.46 L 8.39,29.32" id="p3295" style="fill:none;fill-rule:evenodd;stroke:#dfc766;stroke-width:1.60;stroke-linecap:round;stroke-linejoin:miter;stroke-miterlimit:4;stroke-dasharray:none;stroke-opacity:0.49;display:inline"/>
<path d="M 17.12,38.15 L 6.66,31.59" id="p3249" style="fill:none;fill-rule:evenodd;stroke:#ffffd9;stroke-width:0.69;stroke-linecap:round;stroke-linejoin:miter;stroke-miterlimit:4;stroke-dasharray:none;stroke-opacity:0.89;display:inline"/>
<path d="M 6.97,31.59 L 13.12,35.49" id="p3246" style="opacity:1;fill:none;fill-opacity:1;fill-rule:evenodd;stroke:#ffffd9;stroke-width:1;stroke-linecap:round;stroke-linejoin:miter;marker:none;stroke-miterlimit:4;stroke-dasharray:none;stroke-dashoffset:0;stroke-opacity:0.89;visibility:visible;display:inline;overflow:visible;enable-background:accumulate"/>
<path d="M 17.52,26.93 L 23.94,18.95" id="p3298" style="fill:none;fill-rule:evenodd;stroke:#f4cd7d;stroke-width:6.40;stroke-linecap:round;stroke-linejoin:miter;stroke-miterlimit:4;stroke-dasharray:none;stroke-opacity:0.32;display:inline"/>
<path d="M 15.33,23.33 L 20.23,28.96" id="p3371" style="fill:none;fill-rule:evenodd;stroke:#9f771f;stroke-width:4.19;stroke-linecap:round;stroke-linejoin:miter;stroke-miterlimit:4;stroke-dasharray:none;stroke-opacity:0.43"/>
<path d="M 12.99,28.18 L 13.80,27.25" id="p3332" style="fill:#ecc874;fill-opacity:1;fill-rule:evenodd;stroke:#efdda8;stroke-width:1.5;stroke-linecap:round;stroke-linejoin:miter;stroke-miterlimit:4;stroke-dasharray:none;stroke-opacity:0.34;display:inline"/>
<path d="M 14.75,29.29 L 15.56,28.37" id="p3335" style="fill:#ecc874;fill-opacity:1;fill-rule:evenodd;stroke:#efdda8;stroke-width:1.5;stroke-linecap:round;stroke-linejoin:miter;stroke-miterlimit:4;stroke-dasharray:none;stroke-opacity:0.29;display:inline"/>
<path d="M 16.54,30.21 L 17.35,29.29" id="p3337" style="fill:#ecc874;fill-opacity:1;fill-rule:evenodd;stroke:#efdda8;stroke-width:1.5;stroke-linecap:round;stroke-linejoin:miter;stroke-miterlimit:4;stroke-dasharray:none;stroke-opacity:0.34;display:inline"/>
<path d="M 13.35,25.33 L 18.27,28.37" id="p3339" style="fill:none;fill-rule:evenodd;stroke:#8b6c12;stroke-width:2.79;stroke-linecap:round;stroke-linejoin:miter;stroke-miterlimit:4;stroke-dasharray:none;stroke-opacity:0.32;display:inline"/>
<path d="M 10.73,31.86 L 14.33,34.13" id="p3346" style="fill:none;fill-rule:evenodd;stroke:#725819;stroke-width:2.59;stroke-linecap:round;stroke-linejoin:miter;stroke-miterlimit:4;stroke-dasharray:none;stroke-opacity:0.70"/>
<path d="M 17.48,33.74 L 23.23,26.81" id="p3373" style="fill:none;fill-rule:evenodd;stroke:#f2c477;stroke-width:4.80;stroke-linecap:round;stroke-linejoin:miter;stroke-miterlimit:4;stroke-dasharray:none;stroke-opacity:0.28"/>
<path d="M 29.17,8.54 C 28.82,8.35 28.46,8.15 28.11,7.95 C 28.51,7.61 29.07,7.68 29.56,7.57 C 29.95,7.45 29.46,7.09 29.29,7.35 C 29.13,7.25 28.85,7.12 29.17,7.02 C 29.51,6.85 30.10,6.99 30.18,7.40 C 30.14,7.80 29.69,7.93 29.35,7.93 C 29.23,7.92 28.75,7.94 29.08,8.07 C 29.27,8.18 29.59,8.27 29.28,8.44 C 29.24,8.48 29.21,8.51 29.17,8.54 z M 31.30,8.29 C 31.11,8.20 30.85,8.20 30.93,7.96 C 30.72,7.82 30.12,8.25 30.61,8.15 C 31.05,8.18 31.03,8.73 30.70,8.90 C 30.38,9.14 29.85,9.11 29.64,8.76 C 29.50,8.41 29.84,8.13 30.07,7.93 C 30.37,7.66 30.84,7.53 31.19,7.78 C 31.37,7.89 31.44,8.12 31.30,8.29 z M 30.10,8.45 C 29.69,8.87 30.73,8.83 30.52,8.39 C 30.40,8.28 30.19,8.33 30.10,8.45 z M 31.13,8.70 C 31.41,8.40 31.86,8.15 32.26,8.37 C 32.69,8.55 32.49,9.05 32.20,9.25 C 31.93,9.54 31.52,9.82 31.11,9.65 C 30.67,9.55 30.73,9.01 31.04,8.79 L 31.09,8.74 L 31.13,8.70 L 31.13,8.70 z M 31.48,8.90 C 31.21,8.98 31.08,9.57 31.50,9.35 C 31.71,9.15 32.08,8.99 32.07,8.67 C 31.91,8.43 31.63,8.79 31.48,8.90 z M 32.92,9.31 C 32.77,9.19 32.51,9.02 32.84,8.97 C 33.16,8.87 33.70,9.01 33.72,9.39 C 33.73,9.71 33.29,9.67 33.22,9.83 C 33.37,10.16 32.92,10.35 32.66,10.37 C 32.34,10.40 31.86,10.20 31.93,9.80 C 31.98,9.54 32.58,9.75 32.33,9.95 C 32.50,10.29 33.11,9.86 32.69,9.64 C 32.77,9.32 33.35,9.67 33.28,9.27 C 33.18,9.18 33.00,9.22 32.92,9.31 z M 34.12,9.45 C 34.42,9.66 34.98,9.83 35.11,10.06 C 34.90,10.35 34.51,10.27 34.22,10.45 C 33.95,10.58 33.70,10.74 33.47,10.94 C 33.30,10.83 32.97,10.74 33.30,10.60 C 33.65,10.35 34.05,10.17 34.47,10.07 C 34.29,9.94 33.92,9.84 33.87,9.69 C 33.96,9.61 34.04,9.53 34.12,9.45 z M 35.30,10.64 C 35.15,10.51 34.89,10.35 35.22,10.29 C 35.54,10.19 36.08,10.34 36.11,10.72 C 36.11,11.03 35.67,10.99 35.60,11.15 C 35.75,11.48 35.30,11.67 35.04,11.70 C 34.72,11.72 34.24,11.52 34.31,11.13 C 34.36,10.86 34.96,11.08 34.71,11.28 C 34.88,11.62 35.49,11.18 35.07,10.97 C 35.15,10.64 35.73,11.00 35.66,10.60 C 35.56,10.50 35.38,10.55 35.30,10.64 z" id="text3307" style="fill:#6a411c;fill-opacity:0.87;stroke:none;display:inline;"/>
<path d="M 29.41,8.62 C 29.06,8.43 28.70,8.23 28.35,8.03 C 28.75,7.69 29.31,7.76 29.79,7.65 C 30.19,7.53 29.70,7.17 29.52,7.43 C 29.36,7.33 29.09,7.20 29.41,7.10 C 29.75,6.93 30.34,7.07 30.41,7.48 C 30.38,7.88 29.92,8.01 29.59,8.00 C 29.47,8.00 28.99,8.02 29.32,8.15 C 29.51,8.26 29.83,8.35 29.51,8.52 C 29.48,8.56 29.44,8.59 29.41,8.62 z M 31.53,8.37 C 31.35,8.28 31.09,8.28 31.16,8.04 C 30.96,7.89 30.36,8.33 30.85,8.23 C 31.28,8.25 31.27,8.81 30.94,8.98 C 30.62,9.21 30.09,9.19 29.87,8.83 C 29.74,8.49 30.07,8.21 30.31,8.00 C 30.61,7.74 31.08,7.60 31.42,7.86 C 31.61,7.97 31.68,8.20 31.53,8.37 z M 30.34,8.53 C 29.93,8.95 30.97,8.91 30.76,8.46 C 30.64,8.36 30.43,8.41 30.34,8.53 z M 31.37,8.78 C 31.65,8.48 32.10,8.23 32.50,8.45 C 32.93,8.62 32.73,9.12 32.44,9.33 C 32.17,9.61 31.76,9.90 31.35,9.73 C 30.91,9.62 30.96,9.09 31.28,8.87 L 31.32,8.82 L 31.37,8.78 L 31.37,8.78 z M 31.72,8.97 C 31.45,9.06 31.32,9.64 31.74,9.43 C 31.94,9.23 32.32,9.07 32.31,8.75 C 32.14,8.50 31.86,8.86 31.72,8.97 z M 33.16,9.39 C 33.01,9.27 32.75,9.10 33.08,9.05 C 33.40,8.95 33.93,9.09 33.96,9.47 C 33.97,9.79 33.53,9.75 33.46,9.91 C 33.61,10.24 33.16,10.43 32.90,10.45 C 32.58,10.47 32.10,10.27 32.17,9.88 C 32.22,9.62 32.82,9.83 32.57,10.03 C 32.73,10.37 33.34,9.94 32.92,9.72 C 33.01,9.40 33.59,9.75 33.52,9.35 C 33.42,9.25 33.24,9.30 33.16,9.39 z M 34.36,9.52 C 34.66,9.73 35.22,9.91 35.35,10.14 C 35.14,10.43 34.74,10.35 34.46,10.53 C 34.19,10.65 33.94,10.82 33.71,11.02 C 33.53,10.91 33.21,10.82 33.54,10.68 C 33.89,10.43 34.29,10.25 34.70,10.15 C 34.53,10.02 34.15,9.91 34.11,9.77 C 34.19,9.69 34.28,9.60 34.36,9.52 z M 35.54,10.71 C 35.39,10.59 35.13,10.43 35.46,10.37 C 35.78,10.27 36.31,10.41 36.34,10.80 C 36.35,11.11 35.91,11.07 35.84,11.23 C 35.99,11.56 35.54,11.75 35.28,11.78 C 34.96,11.80 34.48,11.60 34.55,11.21 C 34.60,10.94 35.20,11.15 34.95,11.36 C 35.12,11.70 35.73,11.26 35.30,11.05 C 35.39,10.72 35.97,11.08 35.90,10.67 C 35.80,10.58 35.62,10.63 35.54,10.71 z" id="p3319" style="fill:#bf994c;fill-opacity:1;stroke:none;display:inline;"/>
<path d="M 13.04,27.54 C 13.29,27.54 13.41,27.79 13.44,27.95 C 13.66,28.03 14.10,27.53 13.67,27.63 C 13.26,27.49 13.45,26.96 13.69,26.75 C 13.93,26.45 14.41,26.23 14.75,26.51 C 15.03,26.81 14.79,27.24 14.57,27.50 C 14.29,27.85 13.95,28.21 13.50,28.32 C 13.17,28.37 12.78,28.02 12.96,27.68 C 12.99,27.64 13.01,27.59 13.04,27.54 z M 14.33,27.16 C 14.73,26.90 14.09,26.54 13.97,26.96 C 13.68,27.28 14.16,27.54 14.33,27.16 L 14.33,27.16 z M 14.75,28.59 C 14.99,28.58 15.12,28.84 15.15,28.99 C 15.36,29.07 15.80,28.58 15.38,28.68 C 14.97,28.54 15.16,28.01 15.39,27.79 C 15.63,27.49 16.12,27.28 16.45,27.55 C 16.74,27.86 16.49,28.29 16.27,28.55 C 16.00,28.90 15.66,29.26 15.21,29.36 C 14.87,29.42 14.48,29.06 14.67,28.73 C 14.70,28.68 14.72,28.63 14.75,28.59 z M 16.03,28.21 C 16.44,27.95 15.79,27.59 15.67,28.01 C 15.38,28.32 15.87,28.58 16.03,28.21 L 16.03,28.21 z M 16.45,29.63 C 16.70,29.63 16.82,29.88 16.85,30.04 C 17.07,30.12 17.51,29.63 17.08,29.72 C 16.67,29.58 16.86,29.05 17.10,28.84 C 17.34,28.54 17.82,28.32 18.15,28.60 C 18.44,28.90 18.20,29.33 17.97,29.59 C 17.70,29.95 17.36,30.30 16.91,30.41 C 16.58,30.47 16.19,30.11 16.37,29.78 C 16.40,29.73 16.42,29.68 16.45,29.63 z M 17.74,29.25 C 18.14,29.00 17.49,28.63 17.37,29.05 C 17.09,29.37 17.57,29.63 17.74,29.25 L 17.74,29.25 z M 18.25,30.60 C 18.70,30.64 18.50,31.24 18.15,31.25 C 17.78,31.22 17.90,30.80 18.17,30.71 L 18.21,30.66 L 18.25,30.60 L 18.25,30.60 z M 18.72,31.03 C 18.97,31.02 19.09,31.28 19.13,31.43 C 19.34,31.51 19.78,31.02 19.35,31.12 C 18.94,30.98 19.14,30.45 19.37,30.23 C 19.61,29.93 20.09,29.72 20.43,29.99 C 20.71,30.30 20.47,30.73 20.25,30.99 C 19.97,31.34 19.63,31.70 19.18,31.80 C 18.85,31.86 18.46,31.50 18.64,31.17 C 18.67,31.12 18.69,31.07 18.72,31.03 z M 20.01,30.65 C 20.41,30.39 19.77,30.03 19.65,30.45 C 19.36,30.76 19.84,31.02 20.01,30.65 L 20.01,30.65 z" id="text3323" style="fill:#f8c05d;fill-opacity:0.75;stroke:none;"/>
<path d="M 20.86,20.67 C 20.50,20.93 20.24,21.75 19.83,21.62 C 19.52,21.34 20.74,20.77 19.97,20.83 C 19.79,20.51 20.75,20.50 20.86,20.67 z M 20.71,21.39 C 20.90,20.99 21.64,20.88 21.73,21.40 C 21.71,21.86 21.19,22.46 20.70,22.23 C 20.33,22.03 20.48,21.63 20.71,21.39 z M 20.98,21.57 C 20.62,21.76 20.90,22.24 21.16,21.85 C 21.43,21.71 21.52,21.05 21.10,21.44 L 21.04,21.51 L 20.98,21.57 L 20.98,21.57 z M 22.49,22.81 C 22.65,22.34 23.41,22.96 22.90,23.18 C 22.63,23.58 21.85,23.18 21.89,22.72 C 21.95,22.13 22.78,21.72 23.20,22.25 C 23.61,22.58 22.93,22.89 22.93,22.45 C 22.64,21.95 21.86,22.96 22.51,23.03 C 22.76,23.01 22.64,22.87 22.49,22.81 z M 22.83,23.61 C 23.21,23.35 23.48,22.34 23.97,22.77 C 24.48,22.89 24.56,23.62 23.95,23.62 C 23.79,23.55 23.96,24.60 23.53,24.08 C 23.36,23.98 23.73,23.10 23.32,23.59 C 23.15,23.90 23.05,23.77 22.83,23.61 z M 23.64,23.20 C 23.86,23.53 24.24,23.06 23.80,23.02 C 23.72,23.06 23.69,23.14 23.64,23.20 z M 19.34,22.09 C 19.55,22.28 20.40,22.59 19.84,22.78 C 19.73,22.51 19.13,22.51 19.44,22.78 C 19.92,22.91 19.41,23.33 19.22,22.95 C 18.93,22.93 18.81,23.59 18.49,23.12 C 18.77,22.78 19.06,22.44 19.34,22.09 z M 20.26,22.70 C 20.91,22.98 19.92,23.49 19.76,23.88 C 19.53,23.99 19.28,23.64 19.62,23.48 C 19.83,23.22 20.05,22.96 20.26,22.70 z M 20.78,23.05 C 21.32,23.12 20.83,23.98 21.01,23.98 C 21.22,23.77 21.43,23.26 21.70,23.69 C 21.36,23.94 21.10,24.74 20.70,24.61 C 20.37,24.44 20.94,23.31 20.44,23.99 C 20.36,24.43 19.71,24.16 20.10,23.88 C 20.32,23.60 20.55,23.33 20.78,23.05 z M 21.91,23.81 C 22.12,24.01 23.04,24.33 22.48,24.54 C 22.35,24.30 21.70,24.15 22.04,24.49 C 22.30,24.56 22.46,24.86 22.13,24.89 C 22.01,24.61 21.39,24.59 21.66,24.88 C 21.97,24.95 22.19,25.37 21.79,25.33 C 21.50,25.08 20.76,24.89 21.32,24.52 C 21.52,24.28 21.71,24.04 21.91,23.81 z M 17.45,24.65 C 17.61,24.19 18.37,24.81 17.86,25.03 C 17.59,25.43 16.81,25.03 16.85,24.57 C 16.91,23.97 17.75,23.57 18.16,24.09 C 18.57,24.43 17.89,24.74 17.90,24.30 C 17.60,23.79 16.82,24.81 17.47,24.88 C 17.72,24.86 17.60,24.72 17.45,24.65 z M 18.17,24.92 C 18.45,24.44 19.32,24.53 19.38,25.11 C 19.42,25.91 18.07,26.26 17.98,25.35 C 17.98,25.19 18.08,25.04 18.17,24.92 z M 18.47,25.12 C 18.03,25.54 18.90,25.77 18.99,25.25 C 19.13,24.88 18.59,24.83 18.47,25.12 z M 19.77,25.18 C 20.38,25.39 19.63,25.80 19.47,26.11 C 19.47,26.31 20.21,26.49 19.66,26.71 C 19.36,26.46 18.63,26.27 19.18,25.89 C 19.38,25.66 19.58,25.42 19.77,25.18 z M 20.69,25.79 C 21.20,25.97 21.63,26.57 21.09,26.99 C 20.78,27.45 19.95,27.13 19.89,26.75 C 20.16,26.44 20.42,26.11 20.69,25.79 z M 20.79,26.23 C 20.56,26.44 20.07,27.06 20.72,26.83 C 20.94,26.70 21.12,26.35 20.79,26.23 z" id="text3348" style="fill:#8d5c06;fill-opacity:0.75;fill-rule:nonzero;stroke:none;marker:none;visibility:visible;display:inline;overflow:visible;enable-background:accumulate;"/>
<path d="M 20.95,20.78 C 20.59,21.05 20.33,21.87 19.91,21.74 C 19.61,21.46 20.83,20.89 20.05,20.94 C 19.88,20.63 20.84,20.62 20.95,20.78 z M 20.80,21.51 C 20.99,21.11 21.72,21.00 21.82,21.52 C 21.80,21.98 21.28,22.58 20.79,22.35 C 20.42,22.15 20.57,21.75 20.80,21.51 z M 21.07,21.69 C 20.71,21.88 20.99,22.36 21.25,21.97 C 21.52,21.83 21.61,21.17 21.19,21.56 L 21.13,21.63 L 21.07,21.69 L 21.07,21.69 z M 22.58,22.93 C 22.74,22.46 23.50,23.08 22.99,23.30 C 22.72,23.70 21.93,23.30 21.98,22.84 C 22.04,22.25 22.87,21.84 23.28,22.37 C 23.70,22.70 23.02,23.01 23.02,22.57 C 22.73,22.06 21.94,23.08 22.60,23.15 C 22.85,23.13 22.73,22.99 22.58,22.93 z M 22.91,23.73 C 23.30,23.47 23.57,22.46 24.05,22.89 C 24.57,23.01 24.65,23.74 24.04,23.74 C 23.88,23.67 24.05,24.72 23.62,24.20 C 23.45,24.10 23.82,23.22 23.41,23.71 C 23.24,24.02 23.13,23.89 22.91,23.73 z M 23.72,23.32 C 23.95,23.65 24.33,23.18 23.89,23.14 C 23.81,23.18 23.78,23.26 23.72,23.32 z M 19.43,22.21 C 19.64,22.40 20.48,22.71 19.93,22.90 C 19.82,22.63 19.22,22.63 19.53,22.90 C 20.01,23.03 19.50,23.45 19.31,23.07 C 19.02,23.05 18.90,23.71 18.57,23.24 C 18.86,22.90 19.14,22.55 19.43,22.21 z M 20.35,22.82 C 20.99,23.09 20.01,23.60 19.85,23.99 C 19.62,24.11 19.37,23.76 19.71,23.60 C 19.92,23.34 20.13,23.08 20.35,22.82 z M 20.87,23.17 C 21.41,23.24 20.91,24.10 21.10,24.10 C 21.30,23.89 21.52,23.38 21.78,23.81 C 21.44,24.06 21.19,24.86 20.79,24.73 C 20.45,24.56 21.03,23.43 20.53,24.11 C 20.45,24.54 19.80,24.28 20.18,24.00 C 20.41,23.72 20.64,23.45 20.87,23.17 z M 22.00,23.93 C 22.21,24.13 23.13,24.45 22.56,24.66 C 22.44,24.42 21.79,24.27 22.13,24.61 C 22.38,24.68 22.55,24.97 22.21,25.01 C 22.10,24.72 21.48,24.71 21.75,25.00 C 22.06,25.06 22.28,25.49 21.88,25.45 C 21.59,25.20 20.85,25.01 21.41,24.64 C 21.61,24.40 21.80,24.16 22.00,23.93 z M 17.54,24.77 C 17.70,24.31 18.46,24.93 17.95,25.14 C 17.68,25.55 16.89,25.15 16.94,24.69 C 17.00,24.09 17.83,23.69 18.25,24.21 C 18.66,24.55 17.98,24.86 17.98,24.42 C 17.69,23.91 16.91,24.93 17.56,25.00 C 17.81,24.98 17.69,24.84 17.54,24.77 z M 18.26,25.04 C 18.53,24.56 19.41,24.65 19.46,25.23 C 19.51,26.03 18.16,26.38 18.07,25.47 C 18.07,25.30 18.16,25.16 18.26,25.04 z M 18.56,25.24 C 18.12,25.66 18.99,25.89 19.08,25.37 C 19.22,25.00 18.67,24.95 18.56,25.24 z M 19.86,25.30 C 20.47,25.51 19.72,25.91 19.56,26.23 C 19.56,26.43 20.30,26.61 19.75,26.83 C 19.45,26.58 18.71,26.39 19.27,26.01 C 19.47,25.78 19.66,25.54 19.86,25.30 z M 20.77,25.91 C 21.28,26.09 21.72,26.69 21.17,27.11 C 20.87,27.57 20.04,27.25 19.98,26.87 C 20.25,26.56 20.51,26.23 20.77,25.91 z M 20.88,26.35 C 20.65,26.56 20.16,27.18 20.81,26.95 C 21.03,26.82 21.21,26.47 20.88,26.35 z" id="p3359" style="fill:#ebbc6b;fill-opacity:0.88;fill-rule:nonzero;stroke:none;marker:none;visibility:visible;display:inline;overflow:visible;enable-background:accumulate;"/>
<path d="M 5.16,37.50 C 7.59,39.33 17.49,45.44 18.51,46.16 C 19.53,46.89 20.17,45.69 20.60,45.14 C 21.03,44.58 42.57,15.62 43.34,14.51 C 44.11,13.40 43.76,12.33 43.55,11.86 C 43.34,11.39 42.87,9.56 42.57,8.53 C 42.27,7.51 41.50,7.21 40.99,6.87 C 40.48,6.53 31.99,2.05 31.22,1.67 C 30.45,1.28 29.81,1.75 29.26,2.48 C 28.71,3.20 6.22,30.42 5.80,31.40 C 5.37,32.38 4.90,35.58 4.77,36.22 C 4.65,36.86 4.77,37.33 5.16,37.50 z" id="stroke01" style="fill:none;fill-opacity:1;fill-rule:evenodd;stroke:#48371b;stroke-width:0.5;stroke-linecap:butt;stroke-linejoin:miter;stroke-miterlimit:4;stroke-dasharray:none;stroke-opacity:1"/>
</g>
</svg>
