<?xml version="1.0" encoding="UTF-8" standalone="no"?>
<!DOCTYPE svg PUBLIC "-//W3C//DTD SVG 1.0//EN" "http://www.w3.org/TR/2001/REC-SVG-20010904/DTD/svg10.dtd">
<svg xmlns:svg="http://www.w3.org/2000/svg" xmlns="http://www.w3.org/2000/svg" version="1.0" width="100%" height="100%" viewBox="0 0 48 48" id="_green03">
<defs id="defs2385"/>
<g id="green03" style="display:inline">
<path d="M 8.44,40.75 L 8.12,7.72 L 12.72,3.55 L 35,3.66 L 38.73,8.38 L 38.73,39.55 L 34.45,43.83 L 12.83,44.7 L 8.44,40.75 z" id="p3323" style="fill:#44cb44;fill-opacity:1;fill-rule:evenodd;stroke:none;display:inline"/>
<path d="M 12.71,3.56 L 12.12,4.09 L 12.56,12.21 L 18.43,16.4 L 23.56,16.65 L 26.81,12.46 L 35.06,12.81 L 36.96,6.12 L 35,3.65 L 12.71,3.56 z" id="p3309" style="fill:#9cff9c;fill-opacity:0.95;fill-rule:evenodd;stroke:none;display:inline"/>
<path d="M 21.62,3.59 L 20.96,9.43 L 23.31,11.96 L 26.75,12.56 L 26.81,12.46 L 30.43,12.62 L 35.75,10.4 L 36.03,9.4 L 36.03,4.93 L 35.81,4.68 L 33.71,3.65 L 21.62,3.59 z" id="p3447" style="fill:#bcf1bc;fill-opacity:0.8;fill-rule:evenodd;stroke:none"/>
<path d="M 21.75,3.59 L 18.28,4.71 L 18.81,9.81 L 17.62,9.71 L 18,11.18 L 22.56,11.28 L 21.56,12.78 L 24.56,12.68 L 26.59,11.12 L 23.09,11.25 L 24.37,9.65 L 22.34,9.75 L 23.34,7.81 L 22.56,7.75 L 24.12,3.62 L 21.75,3.59 z" id="p3432" style="fill:#1c8d1c;fill-opacity:1;fill-rule:evenodd;stroke:none;display:inline"/>
<path d="M 12.71,3.56 L 8.12,7.71 L 8.43,40.75 L 12.84,44.71 L 34.46,43.84 L 38.75,39.56 L 38.75,8.37 L 35,3.65 L 12.71,3.56 z M 15.9,5.28 L 30.53,5.28 L 33.03,7.56 L 31.84,9.68 L 32.31,11.03 L 28.12,11.03 L 26.81,12.68 L 28.96,14.84 L 27.87,15.81 L 27.75,32.43 L 25.71,34.59 L 23.68,32.43 L 20.93,32.43 L 19.62,31.37 L 20.34,30.78 L 20.21,18.56 L 19.62,17.37 L 20.71,16.15 L 18.9,12.93 L 19.37,12.34 L 18.18,10.9 L 19.03,10.31 L 17.34,8.03 L 17.84,7.56 L 15.9,5.28 z" id="p2532" style="fill:#0a4c0a;fill-opacity:1;fill-rule:evenodd;stroke:none"/>
<path d="M 25.72,35.08 L 27.7,32.87 L 32.45,30.22 L 32.56,36.18 L 30.02,34.86 L 27.7,37.07 L 25.72,35.08 z" id="p3530" style="fill:#062506;fill-opacity:0.46;fill-rule:evenodd;stroke:none;display:inline"/>
<path d="M 24.06,35.09 L 21.18,39.06 L 22.96,40.06 L 20.12,44.43 L 31.4,43.96 L 24.28,39.37 L 26.37,36.53 L 24.06,35.09 z" id="p3528" style="fill:#042904;fill-opacity:0.72;fill-rule:evenodd;stroke:none;display:inline"/>
<path d="M 10.26,40.38 L 15.89,35.63 L 20.53,38.61 L 18.1,41.26 L 15.34,39.38 L 12.91,42.36 L 10.26,40.38 z" id="p3526" style="fill:#073807;fill-opacity:1;fill-rule:evenodd;stroke:none;display:inline"/>
<path d="M 32.9,36.03 L 15.68,36.15 L 11.14,39.16 L 9.85,38.29 L 8.52,40.75 L 12.84,44.71 L 16.03,40.21 L 32.43,39.37 L 33.87,40.34 L 36.15,38.06 L 32.9,36.03 z" id="p3311" style="fill:#eefdee;fill-opacity:0.22;fill-rule:evenodd;stroke:none;display:inline"/>
<path d="M 38.75,9.31 L 32.25,14.12 L 32.03,35.12 L 38.75,39.4 L 38.75,9.31 z" id="p3325" style="fill:#2b962b;fill-opacity:0.72;fill-rule:evenodd;stroke:none;display:inline"/>
<path d="M 38.75,18.09 L 33.9,20.18 L 33.43,18.96 L 32.18,18.81 L 32.15,23.18 L 38.75,28.15 L 38.75,18.09 z" id="p3553" style="fill:#036203;fill-opacity:0.41;fill-rule:evenodd;stroke:none;display:inline"/>
<path d="M 38.75,9.31 L 35.21,11.93 L 35.06,37.06 L 38.75,39.4 L 38.75,9.31 z" id="p3327" style="fill:#6bd56b;fill-opacity:0.72;fill-rule:evenodd;stroke:none;display:inline"/>
<path d="M 38.75,12.78 L 35.18,15.31 L 35.15,21.59 L 38.75,18.46 L 38.75,12.78 z" id="p3368" style="fill:#146a14;fill-opacity:0.75;fill-rule:evenodd;stroke:none;display:inline"/>
<path d="M 38.75,15.31 L 35.18,17.75 L 35.15,19.96 L 38.75,17.03 L 38.75,15.31 z" id="p3370" style="fill:#4fc04f;fill-opacity:0.51;fill-rule:evenodd;stroke:none;display:inline"/>
<path d="M 38.75,9.31 L 37.34,10.34 L 36.96,38.25 L 38.75,39.4 L 38.75,9.31 z" id="p3329" style="fill:#7ddc7d;fill-opacity:0.81;fill-rule:evenodd;stroke:none;display:inline"/>
<path d="M 13.47,14.41 L 13.89,34.83 L 15.16,32.52 L 14.84,15.98 L 13.47,14.41 z" id="p3331" style="fill:#85e685;fill-opacity:0.72;fill-rule:evenodd;stroke:none;display:inline"/>
<path d="M 9.89,38.1 L 13.58,34.1 L 13.26,14.93 L 9.47,11.14 L 9.89,38.1 z" id="p3333" style="fill:#85e685;fill-opacity:0.72;fill-rule:evenodd;stroke:none;display:inline"/>
<path d="M 16.63,16.09 L 17.47,16.83 L 17.79,31.15 L 17.05,32.2 L 16.63,16.09 z" id="p3335" style="fill:#85e685;fill-opacity:0.72;fill-rule:evenodd;stroke:none;display:inline"/>
<path d="M 9.46,11.15 L 9.56,16.34 L 13.34,18.59 L 13.28,14.93 L 9.46,11.15 z" id="p3352" style="fill:#014f01;fill-opacity:0.88;fill-rule:evenodd;stroke:none;display:inline"/>
<path d="M 9.46,11.15 L 9.5,13.93 L 13.31,17.08 L 13.28,14.93 L 9.46,11.15 z" id="p3354" style="fill:#aefaae;fill-opacity:0.88;fill-rule:evenodd;stroke:none;display:inline"/>
<path d="M 13.53,30.34 L 9.8,33.53 L 9.9,38.09 L 13.59,34.09 L 13.53,30.34 z" id="p3358" style="opacity:1;fill:#014f01;fill-opacity:0.88;fill-rule:evenodd;stroke:none;marker:none;visibility:visible;display:inline;overflow:visible;enable-background:accumulate"/>
<path d="M 13.56,31.53 L 10.5,34.78 L 10.71,35.65 L 9.87,36.28 L 9.9,38.09 L 13.59,34.09 L 13.56,31.53 z" id="p3360" style="opacity:1;fill:#bffcbf;fill-opacity:0.88;fill-rule:evenodd;stroke:none;marker:none;visibility:visible;display:inline;overflow:visible;enable-background:accumulate"/>
<path d="M 37.06,30.84 L 36.96,38.25 L 38.75,39.4 L 38.75,31.9 L 37.06,30.84 z" id="p3362" style="fill:#2b772b;fill-opacity:0.75;fill-rule:evenodd;stroke:none;display:inline"/>
<path d="M 35.09,34 L 35.06,37.06 L 38.75,39.4 L 38.75,36.53 L 35.09,34 z" id="p3567" style="fill:#a9fda9;fill-opacity:0.41;fill-rule:evenodd;stroke:none"/>
<path d="M 37.03,32.75 L 36.96,38.25 L 38.75,39.4 L 38.75,34.15 L 37.03,32.75 z" id="p3364" style="fill:#186618;fill-opacity:0.75;fill-rule:evenodd;stroke:none;display:inline"/>
<path d="M 38.75,9.31 L 37.34,10.34 L 37.28,15.78 L 38.75,14.21 L 38.75,9.31 z" id="p3366" style="fill:#146a14;fill-opacity:0.75;fill-rule:evenodd;stroke:none;display:inline"/>
<path d="M 32.87,37.51 C 32.81,37.75 32.35,37.86 31.86,37.74 C 31.36,37.63 31.01,37.33 31.07,37.09 C 31.13,36.83 31.58,36.72 32.07,36.84 C 32.57,36.96 32.93,37.26 32.87,37.51 z" id="p3412" style="opacity:1;fill:#e5f8e5;fill-opacity:0.81;fill-rule:evenodd;stroke:none;marker:none;visibility:visible;display:inline;overflow:visible;enable-background:accumulate"/>
<path d="M 10.59,35.12 L 10.71,35.65 L 9.87,36.28 L 9.9,38.09 L 12.06,35.75 L 10.59,35.12 z" id="p3415" style="fill:#093e09;fill-opacity:0.45;fill-rule:evenodd;stroke:none"/>
<path d="M 15.12,30.31 L 13.84,31.53 L 13.9,34.84 L 15.15,32.53 L 15.12,30.31 z" id="p3417" style="fill:#093e09;fill-opacity:0.81;fill-rule:evenodd;stroke:none"/>
<path d="M 15.12,31.31 L 13.87,33.34 L 13.9,34.84 L 15.15,32.53 L 15.12,31.31 z" id="p3419" style="fill:#e1fde1;fill-opacity:0.81;fill-rule:evenodd;stroke:none"/>
<path d="M 27.22,10.97 L 28.07,9.86 L 30.03,9.81 L 28.6,11.77 L 27.22,10.97 z" id="p3435" style="fill:#0f6d0f;fill-opacity:1;fill-rule:evenodd;stroke:none;display:inline"/>
<path d="M 8.21,17.46 L 8.34,31 L 9.34,31.28 L 9.25,17.9 L 8.21,17.46 z" id="p3430" style="fill:#8bef8b;fill-opacity:0.67;fill-rule:evenodd;stroke:none;display:inline"/>
<path d="M 13.46,14.4 L 13.5,16.31 L 14.87,17.37 L 14.84,16 L 13.46,14.4 z" id="p3452" style="fill:#cffdcf;fill-opacity:0.88;fill-rule:evenodd;stroke:none"/>
<path d="M 19.34,3.59 L 19.65,5.37 L 20.43,5.43 L 20.71,7.68 L 19.34,7.84 L 19.65,10 L 20.06,10 L 20.62,11.25 L 21.68,9.87 L 21.21,9.87 L 20.9,7.78 L 22.4,7.71 L 22.09,5.28 L 21.03,5.5 L 20.93,3.59 L 19.34,3.59 z" id="p3458" style="fill:#cffdcf;fill-opacity:0.61;fill-rule:evenodd;stroke:none;display:inline"/>
<path d="M 9.35,32.21 L 9.42,30.12" id="p3466" style="fill:none;fill-rule:evenodd;stroke:#d4fdd4;stroke-width:0.60;stroke-linecap:butt;stroke-linejoin:miter;stroke-miterlimit:4;stroke-dasharray:none;stroke-opacity:1;display:inline"/>
<path d="M 9.35,18.31 L 9.35,16.71" id="p3468" style="fill:none;fill-rule:evenodd;stroke:#d4fdd4;stroke-width:0.60;stroke-linecap:butt;stroke-linejoin:miter;stroke-miterlimit:4;stroke-dasharray:none;stroke-opacity:1;display:inline"/>
<path d="M 12.71,3.56 L 8.12,7.71 L 8.12,8.15 L 16.53,12.28 L 16.93,9.9 L 18.9,10.15 L 17.34,8.03 L 17.84,7.56 L 16,5.4 L 15.9,5.28 L 14.18,3.56 L 12.71,3.56 z" id="p3474" style="fill:#347034;fill-opacity:0.54;fill-rule:evenodd;stroke:none;display:inline"/>
<path d="M 12.59,3.68 L 8.12,7.71 L 8.12,8.15 L 16.53,12.28 L 16.93,9.9 L 15.5,8.37 L 15.81,7.96 L 12.59,3.68 z" id="p3476" style="fill:#399739;fill-opacity:0.54;fill-rule:evenodd;stroke:none;display:inline"/>
<path d="M 12.59,3.68 L 8.12,7.71 L 8.15,9.65 L 9.43,11.15 L 10.67,9.41 L 10.3,9.21 L 14.06,5.81 L 12.59,3.68 z" id="p3486" style="fill:#85d185;fill-opacity:0.54;fill-rule:evenodd;stroke:none;display:inline"/>
<path d="M 15.15,7.48 L 15.73,8.4" id="p3492" style="fill:none;fill-rule:evenodd;stroke:#e0fbe0;stroke-width:0.5;stroke-linecap:round;stroke-linejoin:miter;stroke-miterlimit:4;stroke-dasharray:none;stroke-opacity:0.68;display:inline"/>
<path d="M 15.83,16.08 L 15.83,18.02" id="p3494" style="fill:none;fill-rule:evenodd;stroke:#e0fbe0;stroke-width:0.60;stroke-linecap:butt;stroke-linejoin:miter;stroke-miterlimit:4;stroke-dasharray:none;stroke-opacity:0.85;display:inline"/>
<path d="M 16.11,31.37 L 16.14,32.87" id="p3496" style="fill:none;fill-rule:evenodd;stroke:#e0fbe0;stroke-width:0.60;stroke-linecap:butt;stroke-linejoin:miter;stroke-miterlimit:4;stroke-dasharray:none;stroke-opacity:0.85;display:inline"/>
<path d="M 8.59,40.62 L 8.53,40.75 L 12.84,44.71 L 14.56,42.28 L 8.59,40.62 z" id="p3521" style="fill:#75c475;fill-opacity:1;fill-rule:evenodd;stroke:none"/>
<path d="M 24.84,30.12 L 21.62,30.21 L 19.9,31.59 L 20.93,32.43 L 23.68,32.43 L 25.71,34.59 L 27.75,32.43 L 27.75,30.46 L 26.06,31 L 24.84,30.12 z" id="p3532" style="fill:#0b210b;fill-opacity:0.27;fill-rule:evenodd;stroke:none;display:inline"/>
<path d="M 27.41,32.28 L 32.86,35.87" id="p3545" style="fill:none;fill-rule:evenodd;stroke:#43a143;stroke-width:0.5;stroke-linecap:round;stroke-linejoin:miter;stroke-miterlimit:4;stroke-dasharray:none;stroke-opacity:0.25"/>
<path d="M 32.01,10.79 L 33.78,10.79 L 35.87,9.03 L 34.88,7.92 L 32.01,10.79 z" id="p3547" style="fill:#e6fbe6;fill-opacity:0.73;fill-rule:evenodd;stroke:none;display:inline"/>
<path d="M 28.92,14.55 L 32.45,13.11 L 32.34,10.9 L 28.92,14.55 z" id="p3549" style="fill:#e4fee4;fill-opacity:0.41;fill-rule:evenodd;stroke:none;display:inline"/>
<path d="M 30.21,3.62 L 29.03,5.15 L 28.37,7.93 L 29.68,7.59 L 31.03,5.5 L 32.25,4.28 L 33.21,4.4 L 32,7.03 L 32.56,8.03 L 34.34,4.4 L 35.21,3.9 L 35,3.65 L 30.21,3.62 z" id="p3551" style="fill:#c9f4c9;fill-opacity:0.58;fill-rule:evenodd;stroke:none;display:inline"/>
<path d="M 8.44,40.75 L 8.12,7.72 L 12.72,3.55 L 35,3.66 L 38.73,8.38 L 38.73,39.55 L 34.45,43.83 L 12.83,44.7 L 8.44,40.75 z" id="stroke01" style="fill:none;fill-opacity:1;fill-rule:evenodd;stroke:#051b05;stroke-width:0.5;stroke-linecap:butt;stroke-linejoin:round;stroke-miterlimit:4;stroke-dasharray:none;stroke-opacity:1"/>
</g>
</svg>
