<?xml version="1.0" encoding="UTF-8" standalone="no"?>
<!DOCTYPE svg PUBLIC "-//W3C//DTD SVG 1.0//EN" "http://www.w3.org/TR/2001/REC-SVG-20010904/DTD/svg10.dtd">
<svg xmlns:svg="http://www.w3.org/2000/svg" xmlns="http://www.w3.org/2000/svg" version="1.0" width="100%" height="100%" viewBox="0 0 48 48" id="plumb01">
<defs id="defs2385"/>
<g id="content" style="display:inline">
<path d="M 3.58,19.08 C 4.84,15.91 8.20,14.44 11.01,12.90 C 13.02,11.99 14.64,10.45 16.73,9.69 C 18.96,9.34 19.96,6.98 22.11,6.66 C 23.95,6.14 25.98,5.99 27.52,4.75 C 29.38,5.23 30.34,7.51 32.06,8.51 C 33.73,10.45 34.52,13.04 34.28,15.58 C 35.09,16.91 37.15,18.24 36.33,20.30 C 37.60,22.97 39.93,25.00 41.19,27.67 C 42.52,29.46 44.34,31.12 44.51,33.50 C 45.35,35.48 43.06,36.39 42.97,37.95 C 44.28,40.42 40.85,40.38 39.40,41.03 C 37.51,41.93 35.65,43.05 33.58,43.45 C 31.69,42.78 30.31,41.13 29.03,39.65 C 28.56,38.07 27.01,40.55 26.34,38.72 C 25.24,37.17 23.63,37.35 22.72,35.42 C 22.18,34.43 21.44,33.98 20.46,34.69 C 19.81,32.38 17.88,36.21 16.64,34.16 C 14.89,32.88 12.98,31.65 11.99,29.64 C 10.38,27.26 9.00,24.64 6.64,22.89 C 5.49,21.78 4.01,20.70 3.58,19.08 z" id="p2465" style="fill:#d1cdc1;fill-opacity:1;fill-rule:evenodd;stroke:none;"/>
<path d="M 14.28,11 C 13.21,11.67 12.18,12.37 11.03,12.90 C 8.23,14.43 4.90,15.90 3.62,19.03 C 4.32,18.52 5.13,18.09 5.93,18.12 C 8.05,18.19 9.06,18.34 9.06,18.34 L 10.78,16.78 C 10.78,16.78 14.74,12.53 14.28,11 z" id="p3298" style="opacity:1;fill:#9d9378;fill-opacity:0.67;fill-rule:evenodd;stroke:none;display:inline"/>
<path d="M 27.53,4.75 C 25.99,5.98 23.96,6.13 22.12,6.65 C 20.67,6.87 19.73,8.01 18.59,8.84 L 25.18,18.71 L 28.43,17.75 L 28.31,24.31 L 31.43,25.71 L 32.09,25.37 L 33.28,26.03 L 35.31,25.37 L 37.03,24.21 L 37.37,24.96 L 34.78,26.46 L 36.59,27.65 L 36.28,28.62 L 35.75,29.37 L 39.31,34 L 44.65,34.78 C 44.74,34.40 44.73,33.98 44.53,33.5 C 44.35,31.11 42.52,29.45 41.18,27.65 C 39.92,24.98 37.61,22.98 36.34,20.31 C 37.16,18.25 35.09,16.92 34.28,15.59 C 34.51,13.04 33.73,10.44 32.06,8.5 C 30.35,7.50 29.39,5.23 27.53,4.75 z" id="p3245" style="opacity:1;fill:#ffffff;fill-opacity:0.55;fill-rule:evenodd;stroke:none;display:inline"/>
<path d="M 25.21,27.90 C 24.65,27.85 20.83,30.99 20.12,31.09 C 19.37,31.20 19.28,30.56 19.28,30.56 C 19.28,30.56 18.10,30.87 17.56,31.09 C 17.02,31.30 16.59,29.90 16.59,29.90 L 14.84,30.12 L 14.09,28.71 C 14.09,28.71 12.92,29.52 12.25,30.09 C 13.28,31.84 15.04,32.97 16.65,34.15 C 17.89,36.20 19.81,32.38 20.46,34.68 C 21.44,33.97 22.17,34.41 22.71,35.40 C 23.62,37.33 25.23,37.16 26.34,38.71 C 27.00,40.55 28.56,38.07 29.03,39.65 C 30.31,41.13 31.71,42.79 33.59,43.46 C 35.66,43.06 37.51,41.93 39.40,41.03 C 40.86,40.37 44.27,40.43 42.96,37.96 C 43.05,36.39 45.37,35.47 44.53,33.5 C 44.51,33.26 44.45,33.06 44.40,32.84 L 43.59,33.46 L 42.40,31 C 42.40,31 41.76,31.29 40.68,31.40 C 39.61,31.51 37.68,32.37 37.68,32.37 C 37.68,32.37 37.25,31.74 36.71,31.53 C 36.18,31.31 36.18,31.40 35.75,31.40 C 35.31,31.40 34.24,32.81 34.25,32.81 C 34.25,32.81 32.94,32.37 32.40,32.37 C 31.86,32.37 30.25,33.68 30.25,33.68 L 29.06,33.78 L 27.46,32.06 L 28.62,31.31 C 28.62,31.31 27.01,30.55 26.68,30.34 C 26.36,30.12 25.42,28.50 25.31,27.96 C 25.30,27.93 25.25,27.90 25.21,27.90 z" id="p3241" style="opacity:1;fill:#0e0a0e;fill-opacity:0.91;fill-rule:evenodd;stroke:none;display:inline"/>
<path d="M 26.06,5.59 C 24.81,6.10 23.42,6.28 22.12,6.65 C 21.94,6.68 21.76,6.72 21.59,6.78 L 21.56,6.78 L 20.93,9.21 L 23.37,12.34 L 27.68,10.03 L 26.18,8.06 L 26.06,5.59 z" id="p3310" style="opacity:1;fill:#aea790;fill-opacity:1;fill-rule:evenodd;stroke:none;display:inline"/>
<path d="M 24,6.18 C 23.36,6.33 22.73,6.48 22.12,6.65 C 19.97,6.97 18.95,9.33 16.71,9.68 C 14.63,10.45 13.03,11.99 11.03,12.90 C 10.51,13.18 9.97,13.46 9.43,13.75 C 9.19,14.45 8.71,15.19 8.71,15.59 C 8.71,16.23 10.21,16.87 10.21,16.87 L 11.84,15.81 L 17.34,17 L 18.62,17.84 L 14.75,20.53 L 16.15,21.71 L 22.5,16.78 L 22.81,20 L 18.31,23.12 L 19.28,25.18 L 20.12,24.40 L 20.65,25.18 L 21.84,24.21 L 21.53,23.43 L 22.62,22.81 L 26.90,27.43 L 28.53,25.18 L 29.40,26.25 L 30.78,24.84 L 29.93,24.21 L 30.37,23.34 L 29.5,21.84 L 31.12,18.71 L 30.68,18.06 L 29.5,20.34 L 29.18,20.21 L 29.18,19.46 L 30.03,17.84 L 28.62,15.59 L 25.84,15.81 L 24.96,14.84 L 23.37,15.59 L 22.5,13.75 L 24.12,12.46 L 26.06,12.78 L 28.09,10.96 L 27.03,8.68 L 23.46,10.84 L 22.71,9.78 L 21.31,10.53 L 21.43,9.12 C 21.43,9.12 23.15,8.49 23.90,8.06 C 24.47,7.73 24.17,6.69 24,6.18 z" id="p3243" style="opacity:1;fill:#666560;fill-opacity:0.93;fill-rule:evenodd;stroke:none;display:inline"/>
<path d="M 21.57,30.81 C 20.43,30.24 20.66,30.13 20.37,29.33 C 20.09,28.53 19.52,26.93 19.52,26.93 L 20.95,26.13 L 20.20,25.39 C 20.20,25.39 22.60,23.79 22.94,23.79 C 23.29,23.79 24.54,26.19 24.54,26.19 C 24.54,26.19 25.51,26.42 25.23,27.27 C 24.94,28.13 24.60,28.41 24.60,28.41 L 21.57,30.41 L 21.57,30.81 z" id="p3259" style="opacity:1;fill:#f0f0f0;fill-opacity:0.89;fill-rule:evenodd;stroke:none;display:inline"/>
<path d="M 39.96,32.03 C 39.96,32.03 39.55,32.29 38.81,32.46 C 38.07,32.64 37.34,32.68 37.34,32.68 L 36.03,34.75 C 36.03,34.74 34.94,34.99 34.37,35.56 C 33.80,36.13 33.15,37.5 33.15,37.5 L 33.06,38.75 L 32.18,39.03 C 32.18,39.88 33,40.12 33,40.12 L 33.75,39.5 L 39.71,39.84 L 41,39.65 L 43.25,38.87 C 43.23,38.61 43.15,38.32 42.96,37.96 C 43.01,37.01 43.92,36.29 44.40,35.43 L 43.43,34.81 L 40.68,35.03 L 39.68,34.46 L 40.40,33.78 L 40.12,33.09 L 39.96,32.03 z" id="p3261" style="opacity:1;fill:#c2c2c3;fill-opacity:0.34;fill-rule:evenodd;stroke:none;display:inline"/>
<path d="M 26.25,35.26 L 28.25,38.18 L 30.02,37.38 L 30.19,36.69 L 30.99,36.52 L 28.65,33.61 L 27.97,33.72 L 26.48,34.58 L 26.25,35.26 z" id="p3263" style="opacity:1;fill:#c9c9c9;fill-opacity:0.19;fill-rule:evenodd;stroke:none;display:inline"/>
<path d="M 28.82,29.16 L 30.14,28.64 L 30.99,27.62 L 32.42,26.42 L 33.05,26.53 L 34.65,27.50 L 36.42,27.67 L 36.64,26.93 L 35.39,27.16 L 34.99,26.36 L 35.96,25.85 L 37.22,24.93 L 36.99,24.02 C 36.99,24.02 36.53,24.70 35.85,24.88 C 35.16,25.05 33.68,25.79 33.68,25.79 L 31.68,25.33 L 30.88,26.19 L 30.36,26.07 L 29.39,27.90 L 28.82,29.16 z" id="p3265" style="opacity:1;fill:#2d2d2e;fill-opacity:0.78;fill-rule:evenodd;stroke:none;display:inline"/>
<path d="M 30.99,28.76 L 31.16,29.73 L 33.39,28.19 L 33.16,27.44 L 30.99,28.76 z" id="p3267" style="opacity:1;fill:#2d2d2e;fill-opacity:0.78;fill-rule:evenodd;stroke:none;display:inline"/>
<path d="M 15.81,23.05 L 14.67,24.48 L 15.01,25.22 L 15.81,24.88 L 16.04,25.56 L 15.41,25.90 L 16.15,26.53 L 16.61,25.96 L 16.66,24.99 L 18.32,23.90 L 18.09,22.59 L 16.44,23.45 L 15.81,23.05 z" id="p3269" style="opacity:1;fill:#282830;fill-opacity:0.79;fill-rule:evenodd;stroke:none;display:inline"/>
<path d="M 4.25,20.46 C 4.90,21.39 5.86,22.13 6.65,22.90 C 9.01,24.65 10.38,27.27 12,29.65 C 12.40,30.47 12.96,31.13 13.59,31.75 L 13.53,29.90 L 13.75,28.93 C 13.75,28.93 13.19,27.38 13.59,27.15 C 13.99,26.92 15.59,26.37 15.59,26.37 L 13.87,25 C 13.87,25 12.14,24.82 10.71,24.31 C 9.40,23.84 5.01,20.97 4.25,20.46 z" id="p3271" style="opacity:1;fill:#151515;fill-opacity:0.51;fill-rule:evenodd;stroke:none;display:inline"/>
<path d="M 12.78,16.14 L 15.35,13.40 L 22.60,9.75 L 23.80,12.14 L 21.86,13.23 L 23.63,15.74 L 19.86,18.42 L 18.03,16.20 L 16.26,14.60 C 16.26,14.60 13.70,16.54 13.47,16.43 C 13.24,16.31 12.84,16.31 12.78,16.14 z" id="p3273" style="opacity:1;fill:#282830;fill-opacity:0.51;fill-rule:evenodd;stroke:none;display:inline"/>
<path d="M 33.87,11.84 L 33.21,12.65 L 32.87,12.31 L 30.03,14.03 L 29.34,15.18 L 31.34,16.84 L 31.34,18.31 L 34.18,17.12 L 34.65,16.12 C 34.51,15.94 34.38,15.77 34.28,15.59 C 34.39,14.33 34.24,13.04 33.87,11.84 z" id="p3275" style="opacity:1;fill:#282830;fill-opacity:0.79;fill-rule:evenodd;stroke:none;display:inline"/>
<path d="M 27.74,9.80 C 27.74,9.80 28.60,11.17 29.05,11.12 C 29.51,11.06 30.19,11.40 30.19,11.40 L 31.28,10.55 L 31.79,10.72 L 29.97,12.43 L 29.39,13.34 L 28.77,14.37 L 26.94,14.83 L 26.83,14.37 L 28.65,13.57 L 29.11,12.60 L 28.54,11.80 L 27.91,11.06 L 26.48,12.37 L 25.86,12.72 L 23.97,12.26 L 23.97,11.57 L 27.74,9.80 z" id="p3277" style="opacity:1;fill:#282830;fill-opacity:0.51;fill-rule:evenodd;stroke:none;display:inline"/>
<path d="M 17.58,18.54 C 17.58,18.54 19.22,18.68 19.08,19.09 C 18.95,19.50 19.22,19.70 19.22,19.70 L 16.15,22.02 L 14.38,20.11 L 15.13,19.50 L 15.67,20.32 L 17.58,18.54 z" id="p3300" style="opacity:1;fill:#16171b;fill-opacity:0.73;fill-rule:evenodd;stroke:none;display:inline"/>
<path d="M 18.47,23.25 L 19.70,25.22 L 21.88,24.07 L 21.61,23.45 L 23.04,22.84 L 23.79,23.66 L 26.04,21.07 L 28.90,19.98 L 29.99,17.86 L 27.88,17.66 C 27.88,17.66 25.22,18.07 24.13,18.41 C 23.04,18.75 22.29,19.77 22.29,19.77 L 22.29,20.79 L 20.99,21.68 L 20.52,21.41 L 18.47,23.25 z" id="p3302" style="opacity:1;fill:#0f101e;fill-opacity:0.55;fill-rule:evenodd;stroke:none;display:inline"/>
<path d="M 27.13,22.02 L 26.45,22.70 L 26.79,23.86 L 29.45,24.34 L 27.13,22.02 z" id="p3304" style="opacity:1;fill:#d4d4d7;fill-opacity:0.55;fill-rule:evenodd;stroke:none;display:inline"/>
<path d="M 20.04,15.48 L 22.83,14.18 L 23.24,14.45 L 25.36,12.95 L 26.31,13.50 L 26.11,14.59 L 25.29,14.59 L 24.95,13.77 L 23.38,15.07 L 20.58,16.43 L 20.04,15.48 z" id="p3306" style="opacity:1;fill:#1b1c1c;fill-opacity:0.79;fill-rule:evenodd;stroke:none;display:inline"/>
<path d="M 30.33,16.57 L 31.29,17.38 L 33.74,15.34 L 33.20,14.11 L 32.38,15.54 L 30.33,16.57 z" id="p3308" style="opacity:1;fill:#edeeee;fill-opacity:0.93;fill-rule:evenodd;stroke:none;display:inline"/>
<path d="M 11.38,21.95 C 11.38,21.95 13.22,20.32 13.97,19.98" id="p3312" style="opacity:1;fill:none;fill-opacity:1;fill-rule:evenodd;stroke:#17161c;stroke-width:0.60;stroke-linecap:butt;stroke-linejoin:miter;stroke-miterlimit:4;stroke-dasharray:none;stroke-opacity:0.78;display:inline"/>
<path d="M 14.31,18.82 L 14.86,19.43 L 15.74,18.27 L 15.40,17.11 L 17.17,16.29 L 17.31,14.39 L 15.06,16.77 L 15.27,17.86 L 14.31,18.82 z" id="p3314" style="opacity:1;fill:#4a4a4b;fill-opacity:1;fill-rule:evenodd;stroke:none;display:inline"/>
<path d="M 14.72,26.04 L 15.73,26.51 C 15.73,26.51 16.52,24.60 16.80,24.52 C 17.07,24.45 18.37,23.65 18.75,23.60 C 19.13,23.56 19.88,25.10 19.38,26.26 C 19.25,26.56 19.63,27.94 19.71,28.24 C 19.92,28.96 20.29,28.52 20.29,28.52 C 20.29,28.52 20.24,29.32 20.45,29.72 C 20.65,30.13 22.02,30.61 22.02,30.61 L 22.36,34.16 L 20.86,34.16 C 20.86,34.16 20.45,31.43 19.42,30.95 C 18.40,30.47 18.07,31.71 17.66,31.37 C 17.25,31.02 16.22,30.34 16.22,30.34 C 16.22,30.34 15.21,30.86 14.46,30.31 C 13.71,29.76 12.75,27.48 12.87,27.12 L 14.72,26.04 z" id="p3316" style="opacity:1;fill:#706e68;fill-opacity:0.49;fill-rule:evenodd;stroke:none;display:inline"/>
<path d="M 27.54,28.57 L 28.36,29.59 L 29.45,26.79 L 28.49,26.04 L 27.54,28.57 z" id="p3318" style="opacity:1;fill:#f6f6f7;fill-opacity:0.80;fill-rule:evenodd;stroke:none;display:inline"/>
<path d="M 28.42,32.86 L 29.45,33.95 L 31.15,32.38 L 30.47,31.22 L 28.42,32.86 z" id="p3320" style="opacity:1;fill:#171416;fill-opacity:0.31;fill-rule:evenodd;stroke:none;display:inline"/>
<path d="M 28.63,37.22 L 29.11,37.63 L 29.92,37.50 L 30.06,36.61 L 30.88,36.34 L 30.54,35.66 L 29.72,36.75 L 28.63,37.22 z" id="p3322" style="opacity:1;fill:#ebedf6;fill-opacity:0.74;fill-rule:evenodd;stroke:none;display:inline"/>
<path d="M 30.20,28.50 L 30.67,30.20 L 31.83,30.95 L 32.04,32.52 L 34.42,33.00 L 34.15,31.91 L 34.56,30.82 L 35.04,31.22 L 34.97,32.38 L 37.42,31.70 L 35.99,29.38 C 35.99,29.38 35.04,29.79 34.49,29.66 C 33.95,29.52 32.17,28.43 32.17,28.43 L 30.74,28.09 L 30.20,28.50 z" id="p3324" style="opacity:1;fill:#171416;fill-opacity:0.31;fill-rule:evenodd;stroke:none;display:inline"/>
<path d="M 36.26,26.38 L 37.90,25.43" id="p3326" style="opacity:1;fill:none;fill-rule:evenodd;stroke:#101112;stroke-width:0.30;stroke-linecap:butt;stroke-linejoin:miter;stroke-miterlimit:4;stroke-dasharray:none;stroke-opacity:0.80;display:inline"/>
<path d="M 37.63,28.43 L 39.33,27.47" id="p3328" style="opacity:1;fill:none;fill-rule:evenodd;stroke:#171719;stroke-width:0.40;stroke-linecap:butt;stroke-linejoin:miter;stroke-miterlimit:4;stroke-dasharray:none;stroke-opacity:0.74;display:inline"/>
<path d="M 36.5,19.09 L 36.06,19.5 L 35.53,20.87 L 34.62,21.46 L 34.90,22.15 L 36.65,20.87 C 36.55,20.68 36.43,20.50 36.34,20.31 C 36.51,19.87 36.54,19.47 36.5,19.09 z" id="p3330" style="opacity:1;fill:#171416;fill-opacity:0.55;fill-rule:evenodd;stroke:none;display:inline"/>
<path d="M 26.78,32.18 C 26.78,32.18 23.87,33.35 23.87,33.96 C 23.87,34.58 24.46,35.18 24.46,35.18 L 23.87,36.84 C 24.68,37.44 25.62,37.71 26.34,38.71 C 26.83,40.07 27.80,39.06 28.46,39.09 L 28.37,38.59 C 28.37,38.59 26.03,35.51 26.03,34.96 C 26.03,34.42 27.12,33.06 27.12,33.06 L 26.78,32.18 z" id="p3334" style="opacity:1;fill:#4b3e24;fill-opacity:0.43;fill-rule:evenodd;stroke:none;display:inline"/>
<path d="M 39.96,32.03 C 39.96,32.03 39.55,32.29 38.81,32.46 C 38.07,32.64 37.34,32.68 37.34,32.68 L 36.03,34.75 C 36.03,34.74 34.94,34.99 34.37,35.56 C 33.80,36.13 33.15,37.5 33.15,37.5 L 33.06,38.75 L 32.18,39.03 C 32.18,39.88 33,40.12 33,40.12 L 33.75,39.5 L 39.71,39.84 L 41,39.65 L 43.25,38.87 C 43.23,38.61 43.15,38.32 42.96,37.96 C 43.01,37.01 43.92,36.29 44.40,35.43 L 43.43,34.81 L 40.68,35.03 L 39.68,34.46 L 40.40,33.78 L 40.12,33.09 L 39.96,32.03 z" id="p3355" style="opacity:1;fill:#c2c2c3;fill-opacity:0.34;fill-rule:evenodd;stroke:none;display:inline"/>
<path d="M 32.93,35.53 L 30.81,38.93 L 33.12,42.06 L 37.46,42 C 38.11,41.67 38.76,41.34 39.40,41.03 C 40.86,40.37 44.27,40.43 42.96,37.96 C 42.99,37.46 43.28,37.02 43.59,36.59 C 41.59,36.30 38.74,35.34 38.53,35.87 C 38.32,36.38 38.67,36.58 38.87,36.65 L 32.93,35.53 z" id="p3332" style="opacity:0.93;fill:#171416;fill-opacity:0.74;fill-rule:evenodd;stroke:none;display:inline"/>
<path d="M 3.58,19.08 C 4.84,15.91 8.20,14.44 11.01,12.90 C 13.02,11.99 14.64,10.45 16.73,9.69 C 18.96,9.34 19.96,6.98 22.11,6.66 C 23.95,6.14 25.98,5.99 27.52,4.75 C 29.38,5.23 30.34,7.51 32.06,8.51 C 33.73,10.45 34.52,13.04 34.28,15.58 C 35.09,16.91 37.15,18.24 36.33,20.30 C 37.60,22.97 39.93,25.00 41.19,27.67 C 42.52,29.46 44.34,31.12 44.51,33.50 C 45.35,35.48 43.06,36.39 42.97,37.95 C 44.28,40.42 40.85,40.38 39.40,41.03 C 37.51,41.93 35.65,43.05 33.58,43.45 C 31.69,42.78 30.31,41.13 29.03,39.65 C 28.56,38.07 27.01,40.55 26.34,38.72 C 25.24,37.17 23.63,37.35 22.72,35.42 C 22.18,34.43 21.44,33.98 20.46,34.69 C 19.81,32.38 17.88,36.21 16.64,34.16 C 14.89,32.88 12.98,31.65 11.99,29.64 C 10.38,27.26 9.00,24.64 6.64,22.89 C 5.49,21.78 4.01,20.70 3.58,19.08 z" id="stroke01" style="fill:none;fill-opacity:1;fill-rule:evenodd;stroke:#212121;stroke-width:0.5;stroke-linecap:butt;stroke-linejoin:miter;stroke-miterlimit:4;stroke-dasharray:none;stroke-opacity:1"/>
</g>
</svg>
