<?xml version="1.0" encoding="UTF-8" standalone="no"?>
<!DOCTYPE svg PUBLIC "-//W3C//DTD SVG 1.0//EN" "http://www.w3.org/TR/2001/REC-SVG-20010904/DTD/svg10.dtd">
<svg xmlns:svg="http://www.w3.org/2000/svg" xmlns="http://www.w3.org/2000/svg" version="1.0" width="100%" height="100%" viewBox="0 0 48 48" id="_red02">
<defs id="defs2385"/>
<g id="red02" style="display:inline">
<path d="M 44.18,23.49 C 44.18,33.33 35.06,41.32 23.81,41.32 C 12.56,41.32 3.45,33.33 3.45,23.49 C 3.45,13.64 12.56,5.65 23.81,5.65 C 35.06,5.65 44.18,13.64 44.18,23.49 L 44.18,23.49 z" id="p2464" style="fill:#c14141;fill-opacity:1;fill-rule:evenodd;stroke:none;marker:none;visibility:visible;display:inline;overflow:visible;enable-background:accumulate"/>
<path d="M 25.37,16.81 L 3.43,23.53 C 3.45,33.36 12.58,41.31 23.81,41.31 C 35.05,41.31 44.18,33.34 44.18,23.5 C 44.18,23.08 44.15,22.65 44.12,22.25 L 25.37,16.81 z" id="p3384" style="fill:#e02020;fill-opacity:0.22;fill-rule:evenodd;stroke:none"/>
<path d="M 3.78,20.28 C 3.56,21.32 3.43,22.4 3.43,23.5 C 3.43,33.34 12.57,41.31 23.81,41.31 C 32.39,41.31 39.75,36.67 42.75,30.09 L 16.65,21.28 L 3.78,20.28 z" id="p3382" style="fill:#921616;fill-opacity:0.4;fill-rule:evenodd;stroke:none"/>
<path d="M 8.4,11.84 C 5.31,14.97 3.43,19.04 3.43,23.5 C 3.43,33.13 12.2,40.95 23.12,41.28 L 16.37,34.37 L 9.46,17.71 L 8.4,11.84 z" id="p3246" style="fill:#2d0d0d;fill-opacity:0.81;fill-rule:evenodd;stroke:none;display:inline"/>
<path d="M 23.81,5.65 C 12.57,5.65 3.43,13.65 3.43,23.5 L 9.65,17.53 L 13.9,15.75 L 37.06,9.93 C 33.5,7.26 28.86,5.65 23.81,5.65 z" id="p3244" style="fill:#886b6b;fill-opacity:0.72;fill-rule:evenodd;stroke:none;display:inline"/>
<path d="M 22.28,5.71 C 11.76,6.41 3.43,14.11 3.43,23.5 C 3.43,28.39 5.68,32.83 9.34,36.06 L 9.77,28.85 L 13.9,15.62 L 16.06,11.87 L 22.28,5.71 z" id="p3242" style="fill:#934a4a;fill-opacity:0.61;fill-rule:evenodd;stroke:none;display:inline"/>
<path d="M 23.81,5.65 C 18.07,5.65 12.89,7.74 9.18,11.09 L 16.09,11.78 L 23.46,13.28 L 33.21,16.31 L 37.46,17.9 L 44.15,24 C 44.16,23.83 44.18,23.66 44.18,23.5 C 44.18,13.65 35.05,5.65 23.81,5.65 z" id="p3250" style="fill:#ad6d6d;fill-opacity:0.68;fill-rule:evenodd;stroke:none;display:inline"/>
<path d="M 23.81,5.65 C 22.96,5.65 22.16,5.72 21.34,5.81 L 30.65,11.5 L 32.9,16.03 L 37.75,27.84 L 38.5,35.81 C 42,32.6 44.18,28.28 44.18,23.5 C 44.18,13.65 35.05,5.65 23.81,5.65 z" id="p3248" style="fill:#c78383;fill-opacity:0.68;fill-rule:evenodd;stroke:none;display:inline"/>
<path d="M 38.53,11.18 L 37.37,17.81 L 35.46,22.56 L 33.31,29.09 L 31.18,33.69 L 22.68,41.28 C 34.5,41.96 42.17,34.4 44.18,23.5 C 44.18,18.72 42.02,14.38 38.53,11.18 z" id="p3252" style="fill:#4e0e0e;fill-opacity:0.76;fill-rule:evenodd;stroke:none;display:inline"/>
<path d="M 44.15,22.84 L 38,27.53 L 24.75,32.34 L 10.31,29.12 L 3.43,23.5 C 3.43,33.34 12.57,41.31 23.81,41.31 C 35.05,41.31 44.18,33.34 44.18,23.5 C 44.18,23.28 44.16,23.05 44.15,22.84 z" id="p3240" style="fill:#470e0e;fill-opacity:0.81;fill-rule:evenodd;stroke:none;display:inline"/>
<path d="M 24.21,32.34 L 16.84,34.5 L 9.84,36.43 C 13.49,39.45 18.4,41.31 23.81,41.31 C 29.85,41.31 35.26,39 39,35.34 L 31.43,33.68 L 24.21,32.34 z" id="p3282" style="fill:#cc2e31;fill-opacity:0.45;fill-rule:evenodd;stroke:none;display:inline"/>
<path d="M 18.97,28.55 L 28.65,27.61 L 31.78,30.5 L 34.51,33.55 L 28.58,36.05 L 18.74,36.05 L 16.24,34.41 L 13.82,28.24 L 18.97,28.55 z" id="p3336" style="fill:#731313;fill-opacity:0.63;fill-rule:evenodd;stroke:none;display:inline"/>
<path d="M 21.31,38.98 L 17.72,38.92 L 12.78,36.48 L 14.43,35.39 L 18.14,36.85 L 19.61,36.91 L 21.31,38.98 z" id="p3347" style="fill:#fc9090;fill-opacity:0.63;fill-rule:evenodd;stroke:none;display:inline"/>
<path d="M 3.78,20.34 C 3.57,21.36 3.43,22.42 3.43,23.5 C 3.43,31.37 9.28,38.04 17.37,40.4 L 18.96,32.37 L 18.96,27.87 L 16.65,26.03 L 15.03,23.28 L 8.18,22.84 L 5.62,21.4 L 3.78,20.34 z" id="p3298" style="fill:#320e0e;fill-opacity:0.68;fill-rule:evenodd;stroke:none;display:inline"/>
<path d="M 3.43,23.5 C 3.43,26.08 4.08,28.53 5.21,30.75 L 10.01,28.88 L 3.43,23.5 z M 5.21,30.75 C 6.09,32.3 6.07,32.3 5.21,30.75 z" id="p3321" style="fill:#592828;fill-opacity:0.81;fill-rule:evenodd;stroke:none;display:inline"/>
<path d="M 8.4,11.3 L 9.43,17.65 L 13.87,15.78 L 16.06,11.87 C 9.68,11.08 8.46,11.35 8.4,11.3 z" id="p3326" style="fill:#fdc9c9;fill-opacity:0.51;fill-rule:evenodd;stroke:none;display:inline"/>
<path d="M 31.93,7.12 L 30.68,11.46 L 36.78,9.71 C 35.32,8.66 33.69,7.79 31.93,7.12 z" id="p3331" style="fill:#a32e2e;fill-opacity:0.4;fill-rule:evenodd;stroke:none"/>
<path d="M 38.06,27.46 L 38,27.53 L 24.75,32.34 L 10.31,29.12 L 9.37,28.34 L 8.75,32.06 L 9.28,35.96 C 10.18,36.77 11.18,37.51 12.25,38.15 L 13.81,35.12 L 18.28,36.9 L 19.28,36.84 L 17.5,35.12 L 19.28,35.96 L 28.65,36.12 L 29.84,35.43 L 28.5,36.75 L 29.43,36.84 L 35.12,34.87 L 35.09,38.34 C 36.2,37.69 37.24,36.94 38.18,36.12 L 38.25,27.53 L 38.06,27.46 z" id="p3339" style="fill:#380d0d;fill-opacity:0.63;fill-rule:evenodd;stroke:none;display:inline"/>
<path d="M 17.5,35.12 L 19.28,36.84 L 19.18,36.84 L 19.71,37.34 L 27.28,37.46 L 29.09,36.15 L 29.84,35.43 L 28.65,36.12 L 19.28,35.96 L 17.5,35.12 z" id="p3345" style="fill:#fc9090;fill-opacity:0.43;fill-rule:evenodd;stroke:none;display:inline"/>
<path d="M 29.35,36.85 L 29.84,38.62 L 32.15,37.28 L 31.66,35.63 L 29.35,36.85 z" id="p3349" style="fill:#ffffff;fill-opacity:0.62;fill-rule:evenodd;stroke:none;display:inline"/>
<path d="M 31.97,35.75 L 32.46,37.52 L 34.28,36.36 L 33.25,35.21 L 31.97,35.75 z" id="p3354" style="fill:#ffffff;fill-opacity:0.62;fill-rule:evenodd;stroke:none;display:inline"/>
<path d="M 33.31,34.11 L 35.07,34.6 L 34.4,33.44 L 33.31,34.11 z" id="p3356" style="fill:#fcadad;fill-opacity:0.62;fill-rule:evenodd;stroke:none;display:inline"/>
<path d="M 42.62,16.71 L 37.37,17.81 L 37.37,17.84 L 44.18,23.4 C 44.17,21.03 43.6,18.78 42.62,16.71 z" id="p3363" style="fill:#834444;fill-opacity:0.76;fill-rule:evenodd;stroke:none"/>
<path d="M 37.74,16.6 L 38.6,20.16 L 40.32,18.38 L 41.71,17.59 L 40.12,14.81 L 37.74,16.6 z" id="p3370" style="fill:#c56262;fill-opacity:0.17;fill-rule:evenodd;stroke:none;display:inline"/>
<path d="M 39.13,23.34 L 39.33,24.73 L 41.38,24.92 L 42.57,23.87 L 42.1,22.35 L 39.13,23.34 z" id="p3372" style="fill:#e48989;fill-opacity:0.4;fill-rule:evenodd;stroke:none;display:inline"/>
<path d="M 22.34,39.81 L 16.12,39.96 C 18.41,40.78 20.91,41.28 23.53,41.31 L 22.34,39.81 z" id="p3374" style="fill:#c56262;fill-opacity:0.76;fill-rule:evenodd;stroke:none;display:inline"/>
<path d="M 13.87,15.78 L 9.65,17.53 L 9.46,17.71 L 11.68,23.09 L 13.87,15.78 z" id="p3288" style="fill:#ffffff;fill-opacity:0.67;fill-rule:evenodd;stroke:none;display:inline"/>
<path d="M 9.81,28.93 L 5.21,30.75 C 6.23,32.73 7.63,34.53 9.37,36.06 L 9.81,28.93 z" id="p3296" style="fill:#ffffff;fill-opacity:0.18;fill-rule:evenodd;stroke:none;display:inline"/>
<path d="M 8.35,11.76 C 7.09,13.06 5.98,14.75 5.18,16.34 L 9.4,17.59 L 8.35,11.76 z" id="p3310" style="fill:#780f0f;fill-opacity:0.47;fill-rule:evenodd;stroke:none;display:inline"/>
<path d="M 16.07,11.78 L 23.75,13.42 L 30.72,11.46 L 21.79,6.06 L 16.07,11.78 z" id="p3312" style="fill:#9e1010;fill-opacity:0.47;fill-rule:evenodd;stroke:none;display:inline"/>
<path d="M 44.18,23.49 C 44.18,33.33 35.06,41.32 23.81,41.32 C 12.56,41.32 3.45,33.33 3.45,23.49 C 3.45,13.64 12.56,5.65 23.81,5.65 C 35.06,5.65 44.18,13.64 44.18,23.49 L 44.18,23.49 z" id="stroke01" style="fill:none;fill-opacity:1;fill-rule:evenodd;stroke:#1d0d0d;stroke-width:0.5;stroke-linecap:round;stroke-linejoin:miter;marker:none;stroke-miterlimit:4;stroke-dasharray:none;stroke-dashoffset:0;stroke-opacity:1;visibility:visible;display:inline;overflow:visible;enable-background:accumulate"/>
</g>
</svg>
