<?xml version="1.0" encoding="UTF-8" standalone="no"?>
<!DOCTYPE svg PUBLIC "-//W3C//DTD SVG 1.0//EN" "http://www.w3.org/TR/2001/REC-SVG-20010904/DTD/svg10.dtd">
<svg xmlns:svg="http://www.w3.org/2000/svg" xmlns="http://www.w3.org/2000/svg" version="1.0" width="100%" height="100%" viewBox="0 0 48 48" id="_red05">
<defs id="defs2385"/>
<g id="red05" style="display:inline">
<path d="M 7.62,7.72 C 6.07,9.27 4.84,18.84 4.73,23.48 C 4.63,28.12 6.59,39.14 8.03,40.37 C 9.47,41.61 15.75,43.36 24.51,43.26 C 33.27,43.15 40.06,40.17 40.78,39.45 C 41.51,38.72 43.57,31.31 43.46,23.38 C 43.36,15.45 41.30,8.85 40.37,7.82 C 39.45,6.79 32.13,4.73 24,4.73 C 15.86,4.73 8.44,7.21 7.62,7.72 z" id="p2482" style="fill:#a63333;fill-opacity:1;fill-rule:evenodd;stroke:none;display:inline"/>
<path d="M 23.65,36.78 C 23.65,36.78 20.85,37.69 20.15,38.09 C 19.45,38.49 17.62,40.28 17.62,40.28 L 18.53,40.78 L 16.75,42.84 C 19.01,43.12 21.60,43.28 24.5,43.25 C 25.86,43.23 27.18,43.13 28.43,43 L 29.56,41.09 L 28.15,41.5 L 25.65,37.59 L 23.65,36.78 z" id="p3406" style="fill:#e7d5d5;fill-opacity:0.27;fill-rule:evenodd;stroke:none;display:inline"/>
<path d="M 42.59,33.31 L 39.43,33.75 L 39.31,34.81 L 36.15,35.68 L 35.09,34.81 L 34.18,34.81 L 30,37.34 L 32.84,38.25 L 22.93,39.43 L 22.84,43.21 C 23.35,43.22 23.84,43.25 24.37,43.25 L 29.68,40.93 C 29.68,40.93 29.10,41.94 28.5,43 C 30.01,42.83 31.41,42.59 32.71,42.31 L 30.59,40.65 L 34.18,38.56 L 35.25,39.31 L 40.62,39.53 C 40.66,39.50 40.75,39.46 40.78,39.43 C 41.17,39.04 41.97,36.66 42.59,33.31 z" id="p3510" style="fill:#310c0c;fill-opacity:0.54;fill-rule:evenodd;stroke:none;display:inline"/>
<path d="M 23.65,36.78 C 23.65,36.78 23.15,36.95 22.84,37.06 L 22.15,42 L 24.34,43 L 28.15,41.5 L 25.65,37.59 L 23.65,36.78 z" id="p3408" style="fill:#da7a7a;fill-opacity:0.92;fill-rule:evenodd;stroke:none;display:inline"/>
<path d="M 41.68,18.84 L 37.46,21.65 L 36.68,23.43 C 36.68,23.43 37.67,25.65 37.87,26.15 C 38.07,26.65 41.28,29.06 41.28,29.06 L 41.59,28.34 L 43.15,29.34 C 43.29,28.07 43.39,26.74 43.43,25.37 L 42.68,24.75 L 43.28,23.65 L 41.68,18.84 z" id="p3410" style="fill:#642626;fill-opacity:0.64;fill-rule:evenodd;stroke:none;display:inline"/>
<path d="M 43.03,17.62 L 37.46,21.75 L 36.56,23.25 L 36.78,24.06 L 43.46,23.96 C 43.46,23.76 43.47,23.57 43.46,23.37 C 43.44,21.34 43.26,19.40 43.03,17.62 z" id="p3412" style="fill:#c65050;fill-opacity:0.50;fill-rule:evenodd;stroke:none;display:inline"/>
<path d="M 36.31,23.37 L 34.34,33.96 L 35.12,34.78 L 36.12,34.46 L 36.12,33.90 L 38.43,33.40 L 36.31,23.37 z" id="p3414" style="fill:#782828;fill-opacity:0.64;fill-rule:evenodd;stroke:none;display:inline"/>
<path d="M 37.31,28.09 L 34.96,32.96 L 34.62,32.46 L 34.34,33.96 L 35.12,34.78 L 36.12,34.46 L 36.12,33.90 L 38.43,33.40 L 37.31,28.09 z" id="p3416" style="fill:#270505;fill-opacity:0.80;fill-rule:evenodd;stroke:none;display:inline"/>
<path d="M 24.43,35.84 L 13.81,38.09 L 13.93,38.68 L 8.25,39.75 L 8.03,40.37 C 8.81,41.05 11.08,41.87 14.37,42.46 C 14.13,41.45 13.93,40.5 13.93,40.5 L 15.75,39.75 L 15,39.31 L 23.68,36.75 L 24.90,37.93 L 25.81,36 L 24.43,35.84 z" id="p3512" style="fill:#2b1111;fill-opacity:0.54;fill-rule:evenodd;stroke:none;display:inline"/>
<path d="M 34.65,35.31 L 33.87,38.37 L 25.84,35.93 L 25.84,36.28 L 25.15,37.21 L 32.96,40.87 L 32.46,42.34 C 34.02,42.01 35.41,41.66 36.59,41.28 L 35.03,39.09 C 35.03,39.09 34.67,38.98 34.62,38.78 C 34.57,38.58 35.12,35.31 35.12,35.31 L 34.65,35.31 z" id="p3423" style="fill:#f08080;fill-opacity:0.39;fill-rule:evenodd;stroke:none;display:inline"/>
<path d="M 8.90,33.62 L 8.37,34.62 L 8.37,38.43 L 7.21,38.81 C 7.49,39.58 7.76,40.14 8.03,40.37 C 8.13,40.46 8.27,40.55 8.43,40.65 L 8.71,39.59 L 12.31,39.09 L 10.21,40.18 L 14.09,40.84 L 13.46,39.18 L 14.09,39.18 L 13.06,33.90 L 8.90,33.62 z" id="p3425" style="fill:#dcabab;fill-opacity:0.37;fill-rule:evenodd;stroke:none;display:inline"/>
<path d="M 11.92,36.07 L 13.17,34.67 L 13.67,35.67 L 15.48,33.77 L 18.48,34.52 L 17.78,37.17 L 13.77,37.97 L 13.32,37.62 L 13.27,38.68 L 12.72,39.13 L 11.92,36.07 z" id="p3427" style="fill:#2b1313;fill-opacity:0.78;fill-rule:evenodd;stroke:none;display:inline"/>
<path d="M 15.28,39.58 L 17.83,40.53 L 18.58,39.43 L 17.98,38.38 L 15.28,39.58 z" id="p3429" style="fill:#230b0b;fill-opacity:0.64;fill-rule:evenodd;stroke:none;display:inline"/>
<path d="M 7.25,14.09 L 5.65,14.37 C 5.13,17.56 4.80,21.16 4.75,23.5 C 4.68,26.37 5.41,31.70 6.31,35.62 L 6.90,35.12 L 6.90,33.56 L 7.31,30.87 L 8.03,32.15 L 9.78,26.84 L 10.56,23.5 L 8.28,16.09 L 7.87,16.93 L 7.25,14.09 z" id="p3433" style="fill:#571010;fill-opacity:0.64;fill-rule:evenodd;stroke:none;display:inline"/>
<path d="M 5.31,23.25 L 4.78,24.37 C 4.80,25.35 4.86,26.46 5,27.71 L 6.21,27.21 L 6.37,27.71 L 10.53,24.59 L 9.65,26.84 L 11.18,27.59 L 11.96,24.59 L 11.90,24.25 L 10.46,24.15 L 10.31,23.56 L 5.31,23.25 z" id="p3431" style="fill:#0b0303;fill-opacity:0.58;fill-rule:evenodd;stroke:none;display:inline"/>
<path d="M 5.03,19.18 C 4.88,20.64 4.81,22.00 4.78,23.12 L 10.56,23.43 L 6.87,19.65 L 6.56,20.34 L 5.03,19.18 z" id="p3435" style="fill:#a86464;fill-opacity:0.54;fill-rule:evenodd;stroke:none;display:inline"/>
<path d="M 38.62,6.96 L 34.81,12.31 L 35.40,13.06 L 34.15,14.46 L 34.68,16.65 C 37.05,16.21 37.5,16.21 37.5,17.40 C 37.5,18.60 38.68,19.06 38.68,19.06 L 40.93,17.40 L 41.56,18.43 L 42.93,16.93 C 42.24,12.12 41.03,8.57 40.37,7.84 C 40.14,7.59 39.52,7.29 38.62,6.96 z" id="p3526" style="fill:#310c0c;fill-opacity:0.54;fill-rule:evenodd;stroke:none;display:inline"/>
<path d="M 36.07,20.94 L 38.52,13.92 L 39.78,14.38 L 39.98,15.03 L 37.52,21.49 L 36.07,20.94 z" id="p3439" style="fill:#231313;fill-opacity:0.40;fill-rule:evenodd;stroke:none;display:inline"/>
<path d="M 36.93,6.40 L 35.81,6.75 L 33.87,6.96 L 30.87,7.81 L 33.96,9.56 L 34.81,8.78 L 35.53,11.43 L 39.03,12.78 L 35.62,12.53 L 35.56,12.87 L 39.43,14.28 L 39.71,13.78 L 40.68,14.12 L 41.37,12.46 L 41.25,14.03 L 42.5,14.37 C 41.95,11.66 41.30,9.52 40.78,8.46 L 39.28,8.03 L 38.28,6.84 C 37.87,6.70 37.46,6.54 36.96,6.40 L 36.93,6.40 z" id="p3441" style="fill:#c08e8e;fill-opacity:0.54;fill-rule:evenodd;stroke:none;display:inline"/>
<path d="M 29.09,5.03 L 27.96,6.31 L 28.15,6.5 L 25.43,9.90 L 31.37,8.28 L 30.75,8.03 L 33.78,7.15 L 33.59,5.65 C 32.21,5.39 30.71,5.19 29.09,5.03 z" id="p3443" style="fill:#591717;fill-opacity:0.64;fill-rule:evenodd;stroke:none;display:inline"/>
<path d="M 17.84,5.18 C 15.72,5.47 13.82,5.85 12.21,6.25 L 12.68,6.75 L 13.68,6.65 L 13.96,7.12 L 13.62,8.21 L 14.03,8.28 L 15.21,7.81 L 19.93,9.78 L 20,8.81 L 17.84,5.18 z" id="p3445" style="fill:#550707;fill-opacity:0.64;fill-rule:evenodd;stroke:none;display:inline"/>
<path d="M 12.15,25.5 L 11.25,27 L 12.43,33.43 L 11.84,33.90 L 9,33.59 L 8.40,34.65 L 12,36.31 L 12.59,35.40 L 12,33.90 L 13.59,32.59 L 12.15,25.5 z" id="p3514" style="fill:#f29595;fill-opacity:0.72;fill-rule:evenodd;stroke:none;display:inline"/>
<path d="M 9.74,20.85 L 10.64,23.40 L 11.69,22.35 L 10.64,19.65 L 9.74,20.85 z" id="p3516" style="fill:#0f0101;fill-opacity:0.58;fill-rule:evenodd;stroke:none;display:inline"/>
<path d="M 7.64,16.80 L 9.59,13.65 L 10.79,19.50 L 11.69,20.55 L 11.84,13.65 L 10.79,12.00 L 8.09,13.05 L 8.69,13.50 L 7.04,13.95 L 7.64,16.80 z" id="p3518" style="fill:#2a0404;fill-opacity:0.39;fill-rule:evenodd;stroke:none;display:inline"/>
<path d="M 13.96,5.84 C 13.35,5.97 12.79,6.11 12.25,6.25 L 14.09,7.34 L 12.59,8.56 L 12,12.59 L 13.65,13.65 L 12.15,14.40 L 13.62,15.87 L 14.03,14.25 L 22.94,11.68 L 22.93,11.25 L 17.09,8.09 L 13.96,5.84 z" id="p3520" style="fill:#0f0101;fill-opacity:0.46;fill-rule:evenodd;stroke:none;display:inline"/>
<path d="M 15.90,9.59 L 16.81,12.31 L 16.37,13.59 L 19.62,12.65 L 20.09,11.56 L 15.90,9.59 z" id="p3522" style="fill:#f7b0b0;fill-opacity:0.48;fill-rule:evenodd;stroke:none;display:inline"/>
<path d="M 13.49,9.00 L 15.14,7.80 L 17.84,9.00 L 16.49,10.20 L 13.49,9.00 z" id="p3524" style="fill:#fbcfcf;fill-opacity:0.86;fill-rule:evenodd;stroke:none;display:inline"/>
<path d="M 36,16.62 C 35.66,16.66 35.27,16.82 34.81,17.06 L 35.78,20.96 L 37.09,18.65 L 36.12,20.93 L 37.75,21.46 L 38.28,19.53 L 39.06,20.81 L 41.62,18.96 L 41,17.46 L 38.40,19.09 L 37.09,18.56 C 37.09,18.56 37.65,17.02 37.21,16.81 C 37.00,16.70 36.60,16.54 36,16.62 z" id="p3557" style="fill:#e78282;fill-opacity:0.68;fill-rule:evenodd;stroke:none;display:inline"/>
<path d="M 42.06,28.75 C 41.71,28.78 41.43,28.91 41.31,29.21 C 40.77,30.20 40.86,31.35 42.62,33.06 C 42.85,31.78 43.06,30.39 43.21,28.90 C 42.79,28.78 42.38,28.71 42.06,28.75 z" id="p3559" style="fill:#fdeded;fill-opacity:0.62;fill-rule:evenodd;stroke:none;display:inline"/>
<path d="M 35.16,34.84 L 36.13,35.59 L 37.75,35.48 L 37.75,34.40 L 35.16,34.84 z" id="p3561" style="fill:#fcdada;fill-opacity:0.84;fill-rule:evenodd;stroke:none;display:inline"/>
<path d="M 5.06,19.30 C 5.93,18.33 6.79,19.30 6.79,19.30 L 7.76,17.36 C 7.76,17.36 8.62,18.55 8.19,19.09 C 7.76,19.63 6.68,19.73 6.68,19.73 L 6.25,20.17 L 5.06,19.30 z" id="p3563" style="fill:#fdd7d7;fill-opacity:0.72;fill-rule:evenodd;stroke:none;display:inline"/>
<path d="M 7.44,27.61 C 6.68,28.58 7.55,29.87 8.08,29.33 C 8.62,28.8 8.84,26.85 7.44,27.61 z" id="p3565" style="fill:#fccbcb;fill-opacity:0.83;fill-rule:evenodd;stroke:none;display:inline"/>
<path d="M 11.75,23.51 L 13.80,33.76 L 23.29,35.70 L 34.30,34.08 L 36.35,23.19 L 33.86,13.37 L 22.75,11.75 L 14.02,14.23 L 11.75,23.51 z" id="p3257" style="fill:#9c5252;fill-opacity:0.74;fill-rule:evenodd;stroke:none;display:inline"/>
<path d="M 23.40,23.93 L 11.90,24.25 L 13.81,33.75 L 14.46,33.87 L 23.40,23.93 z M 23.59,23.93 L 23.68,24.03 L 23.71,23.93 L 23.59,23.93 z" id="p3354" style="fill:#e17474;fill-opacity:0.82;fill-rule:evenodd;stroke:none;"/>
<path d="M 12.06,25.06 L 13.81,33.75 L 14.46,33.87 L 18.03,29.90 L 12.06,25.06 z" id="p3297" style="fill:#852b2b;fill-opacity:0.69;fill-rule:evenodd;stroke:none;display:inline"/>
<path d="M 22.75,11.75 L 14.03,14.25 L 13.96,14.5 L 23.5,23.93 L 33.71,13.34 L 22.75,11.75 z" id="p3262" style="fill:#874242;fill-opacity:0.74;fill-rule:evenodd;stroke:none;display:inline"/>
<path d="M 23.19,23.83 L 23.02,15.15 L 25.24,14.29 C 25.24,14.29 25.99,15.74 26.58,16.12 C 27.18,16.50 31.87,17.95 32.30,18.71 C 32.73,19.46 34.62,20.38 34.62,20.38 L 32.57,23.46 L 23.19,23.83 z" id="p3378" style="fill:#d66868;fill-opacity:0.47;fill-rule:evenodd;stroke:none;"/>
<path d="M 27.12,20.17 C 27.12,20.17 30.11,22.90 31.28,23.29 C 32.44,23.68 34.30,23.29 34.30,23.29 L 34.62,21.14 C 34.62,21.14 34.10,20.16 33.54,20.27 C 33.01,20.38 32.56,20.74 32.38,20.62 C 32.18,20.50 32.56,19.48 32.14,18.87 C 31.71,18.27 29.56,17.62 29.56,17.62 L 27.12,20.17 z" id="p3289" style="fill:#fcaaaa;fill-opacity:0.62;fill-rule:evenodd;stroke:none;display:inline"/>
<path d="M 23.5,23.84 L 14.46,33.87 L 23.31,35.71 L 34.28,34.09 L 23.5,23.84 z" id="p3260" style="fill:#401717;fill-opacity:0.74;fill-rule:evenodd;stroke:none;display:inline"/>
<path d="M 36.31,23.31 L 23.59,23.93 L 34.28,34.09 L 34.31,34.09 L 36.31,23.31 z" id="p3356" style="fill:#e17474;fill-opacity:0.49;fill-rule:evenodd;stroke:none;"/>
<path d="M 35.34,19.15 L 32.56,23.31 L 35.5,27.75 L 36.34,23.18 L 35.34,19.15 z" id="p3268" style="fill:#fca5a5;fill-opacity:0.93;fill-rule:evenodd;stroke:none;display:inline"/>
<path d="M 12.68,19.68 L 11.75,23.5 L 12.65,28.03 L 14.65,24.06 L 12.68,19.68 z" id="p3270" style="fill:#d43737;fill-opacity:0.92;fill-rule:evenodd;stroke:none;display:inline"/>
<path d="M 22.75,11.75 L 19.15,12.78 L 22.96,15.21 L 28.87,12.65 L 22.75,11.75 z" id="p3272" style="fill:#fca5a5;fill-opacity:0.93;fill-rule:evenodd;stroke:none;display:inline"/>
<path d="M 23.40,23.93 L 23.18,24.18 L 23.56,35.68 L 34.21,34.09 L 23.40,23.93 z" id="p3278" style="fill:#7c3939;fill-opacity:0.74;fill-rule:evenodd;stroke:none;display:inline"/>
<path d="M 23.59,23.93 L 23.5,33.43 L 23.37,33.71 L 23.37,34.84 L 30.65,30.65 L 23.59,23.93 z" id="p3282" style="fill:#e94545;fill-opacity:0.48;fill-rule:evenodd;stroke:none;display:inline"/>
<path d="M 27.15,27.31 C 27.15,27.31 25.56,28.06 25.34,29.03 C 25.12,29.99 26.80,32.87 26.80,32.87 L 30.74,30.71 L 27.15,27.31 z" id="p3280" style="fill:#e6c7c7;fill-opacity:0.74;fill-rule:evenodd;stroke:none;display:inline"/>
<path d="M 23.5,23.84 L 18.96,28.87 L 19.53,29.56 L 18.87,32.25 L 23.18,34.18 L 23.5,33.43 L 23.59,23.93 L 23.5,23.84 z" id="p3287" style="fill:#e94545;fill-opacity:0.39;fill-rule:evenodd;stroke:none;display:inline"/>
<path d="M 12.68,19.68 L 11.84,23.12 L 14.37,23.46 L 12.68,19.68 z" id="p3291" style="fill:#410808;fill-opacity:0.69;fill-rule:evenodd;stroke:none;display:inline"/>
<path d="M 23.03,11.65 L 19.15,12.78 L 23.06,15.28 L 23.03,11.65 z" id="p3293" style="fill:#380000;fill-opacity:0.77;fill-rule:evenodd;stroke:none;display:inline"/>
<path d="M 13.22,26.92 L 16.68,31.39 L 19.75,27.99 C 19.75,27.99 17.82,26.37 17.15,26.31 C 16.47,26.25 16.11,26.70 15.55,26.58 C 14.98,26.47 14.14,25.10 14.14,25.10 L 13.22,26.92 z" id="p3295" style="fill:#f39393;fill-opacity:0.92;fill-rule:evenodd;stroke:none;display:inline"/>
<path d="M 23.5,32.56 L 19.37,34.90 L 23.31,35.71 L 27.90,35.03 L 23.5,32.56 z" id="p3266" style="fill:#f66969;fill-opacity:0.89;fill-rule:evenodd;stroke:none;display:inline"/>
<path d="M 14.45,23.29 L 14.56,24.05 L 23.19,23.83 L 23.02,15.20 L 20.38,13.48 L 18.33,19.30 L 14.45,23.29 z" id="p3370" style="fill:#a32f2f;fill-opacity:0.55;fill-rule:evenodd;stroke:none;display:inline"/>
<path d="M 14.4,23.56 L 19.41,20.06 L 21.89,15.85 C 21.89,15.85 22.11,15.10 21.68,14.66 C 21.24,14.23 18.44,14.66 17.90,15.42 C 17.36,16.17 18.39,18.98 18.39,18.98 L 16.39,16.82 C 16.39,16.82 15.53,17.04 15.31,17.68 C 15.10,18.33 15.10,20.71 14.23,20.81 C 13.37,20.92 13.21,20.92 13.21,20.92 L 14.4,23.56 z" id="p3373" style="fill:#e7a8a8;fill-opacity:0.75;fill-rule:evenodd;stroke:none;display:inline"/>
<path d="M 23.08,16.23 C 23.08,16.23 25.18,19.63 25.83,19.95 C 26.36,20.22 27.34,20.06 27.34,20.06 L 23.51,24 L 23.13,23.56 L 23.08,16.23 z" id="p3376" style="fill:#e7a8a8;fill-opacity:0.75;fill-rule:evenodd;stroke:none;"/>
<path d="M 17.04,30.84 C 17.04,30.84 15.26,28.90 15.26,28.58 C 15.26,28.26 16.82,26.58 17.20,26.64 C 17.58,26.69 19.52,28.20 19.52,28.20 L 17.04,30.84 z" id="p3380" style="fill:#fdeded;fill-opacity:0.64;fill-rule:evenodd;stroke:none;"/>
<path d="M 18.87,15.64 C 18.22,16.01 18.39,18.01 18.60,18.60 C 18.82,19.2 19.09,19.52 19.30,19.52 C 19.52,19.52 21.35,16.44 21.35,16.01 C 21.35,15.58 20.11,14.88 18.87,15.64 z" id="p3382" style="fill:#fcefef;fill-opacity:0.64;fill-rule:evenodd;stroke:none;"/>
<path d="M 35.90,21.46 C 35.67,22.05 35.46,22.69 35.43,22.96 C 35.38,23.45 34.04,23.82 33.93,24.09 C 33.82,24.36 35.59,26.84 35.59,26.84 L 35.68,26.81 L 36.34,23.18 L 35.90,21.46 z" id="p3384" style="fill:#fbeded;fill-opacity:0.64;fill-rule:evenodd;stroke:none;"/>
<path d="M 21.59,33.65 L 19.37,34.90 L 21.59,35.37 L 21.59,33.65 z" id="p3389" style="fill:#420d0d;fill-opacity:0.64;fill-rule:evenodd;stroke:none;display:inline"/>
<path d="M 7.81,7.91 L 9.21,14.07 L 13.42,13.67 L 13.82,9.06 L 8.41,7.46 L 7.81,7.91 z" id="p3437" style="fill:#e7d5d5;fill-opacity:0.57;fill-rule:evenodd;stroke:none;display:inline"/>
<path d="M 7.62,7.72 C 6.07,9.27 4.84,18.84 4.73,23.48 C 4.63,28.12 6.59,39.14 8.03,40.37 C 9.47,41.61 15.75,43.36 24.51,43.26 C 33.27,43.15 40.06,40.17 40.78,39.45 C 41.51,38.72 43.57,31.31 43.46,23.38 C 43.36,15.45 41.30,8.85 40.37,7.82 C 39.45,6.79 32.13,4.73 24,4.73 C 15.86,4.73 8.44,7.21 7.62,7.72 z" id="stroke01" style="fill:none;fill-opacity:1;fill-rule:evenodd;stroke:#160101;stroke-width:0.5;stroke-linecap:butt;stroke-linejoin:miter;stroke-miterlimit:4;stroke-dasharray:none;stroke-opacity:1"/>
</g>
</svg>
