<?xml version="1.0" encoding="UTF-8" standalone="no"?>
<!DOCTYPE svg PUBLIC "-//W3C//DTD SVG 1.0//EN" "http://www.w3.org/TR/2001/REC-SVG-20010904/DTD/svg10.dtd">
<svg xmlns:svg="http://www.w3.org/2000/svg" xmlns="http://www.w3.org/2000/svg" version="1.0" width="100%" height="100%" viewBox="0 0 48 48" id="_silver01">
<defs id="defs2385"/>
<g id="silver01" style="display:inline">
<path d="M 21.8,4.78 C 11.39,5.03 2.82,10.94 1.77,19.21 C 1.57,20.16 1.61,21.28 1.45,22.24 C 0.9,31.7 9,40.52 21.36,42.15 C 33.72,43.78 44.63,37.35 46.1,27.96 C 46.27,27.01 46.38,26.08 46.55,25.12 C 47.76,15.66 38.72,6.66 26.36,5.03 C 24.81,4.82 23.28,4.74 21.8,4.78 z" id="p3235" style="fill:#777370;fill-opacity:1;fill-rule:nonzero;stroke:none;marker:none;visibility:visible;display:inline;overflow:visible;enable-background:accumulate"/>
<path d="M 31.26,15.2 L 33.93,18.2" id="p3256" style="fill:none;fill-rule:evenodd;stroke:#959595;stroke-width:5.59;stroke-linecap:round;stroke-linejoin:miter;stroke-miterlimit:4;stroke-dasharray:none;stroke-opacity:0.61"/>
<path d="M 36.57,16.92 C 37.38,19.56 36.77,22.05 36.26,23.28 C 35.75,24.5 34.38,25.77 35.8,27.14 C 37.23,28.51 37.43,29.58 38.96,29.68 C 37.94,30.65 37.23,31.46 37.38,33.09 C 35.75,34.41 35.09,35.64 33.21,34.16 C 31.33,32.69 30.87,32.07 30.56,28.92 C 30.26,25.77 31.12,24.34 33.31,23.12 C 35.5,21.9 35.29,18.19 34.48,17.22 C 35.85,16.87 36.67,16.92 36.57,16.92 z" id="p3241" style="fill:#9b9b9b;fill-opacity:0.31;fill-rule:evenodd;stroke:none;display:inline"/>
<path d="M 33.54,16.82 C 35.29,18.83 35.55,19.97 34.85,21.72 C 34.15,23.47 33.54,24.7 34.15,26.63 C 34.76,28.55 35.46,30.65 34.85,31.18 C 34.24,31.71 33.54,32.32 32.92,31.36 C 32.31,30.39 31.96,31.44 31.7,27.59 C 31.44,23.74 32.75,20.67 30.65,18.48 C 32.22,17.43 33.71,16.64 33.54,16.82 z" id="p3221" style="fill:#5a5a5a;fill-opacity:0.33;fill-rule:evenodd;stroke:none;marker:none;visibility:visible;display:inline;overflow:visible;enable-background:accumulate"/>
<path d="M 22.81,12.88 C 22.27,16.29 22.72,20.15 22.81,21.14 C 22.9,22.13 24.52,21.32 26.67,22.13 C 28.83,22.94 27.84,20.6 29.64,19.07 C 31.43,17.55 31.79,14.58 30.17,13.86 C 28.56,13.15 27.03,13.24 26.31,12.34 C 25.59,11.44 23.53,11.71 22.81,12.88 z" id="p3216" style="fill:#5a5a5a;fill-opacity:0.33;fill-rule:evenodd;stroke:none;display:inline"/>
<path d="M 27.61,17.53 L 30.64,19.76" id="p3204" style="fill:none;fill-rule:evenodd;stroke:#a0a0a0;stroke-width:2;stroke-linecap:round;stroke-linejoin:miter;stroke-miterlimit:4;stroke-dasharray:none;stroke-opacity:0.38;display:inline"/>
<path d="M 5.99,19.18 C 7.92,15.31 9.96,11.54 11.89,10.18 C 13.82,8.83 18.08,5.54 19.43,5.74 C 20.79,5.93 21.37,7.86 21.37,7.86 L 11.99,18.6 C 11.99,18.6 12.08,17.15 5.99,19.18 z" id="p3360" style="fill:#52504e;fill-opacity:0.31;fill-rule:evenodd;stroke:none;display:inline"/>
<path d="M 8.99,13.37 C 11.21,11.44 11.99,10.76 12.57,11.63 C 13.15,12.5 13.73,12.41 15.37,12.12 C 17.02,11.83 17.31,10.28 17.31,10.28 C 17.31,10.28 14.6,10.67 14.31,8.35 C 14.02,6.03 7.44,10.28 6.57,11.44 C 5.7,12.6 8.89,13.47 8.99,13.37 z" id="p3363" style="fill:#b5b1ac;fill-opacity:0.31;fill-rule:evenodd;stroke:none;display:inline"/>
<path d="M 13.21,18.5 C 9.98,18.68 6.84,22 2.03,27.18 C 2.04,27.18 2.03,27.34 2.03,27.4 C 2.03,27.42 2.02,27.44 2.03,27.46 C 2.91,30.6 4.77,33.47 7.37,35.87 C 7.7,35.69 8.04,35.49 8.4,35.25 C 17.09,29.33 15.14,27.17 15.31,26.09 C 15.31,26.09 14.03,19.48 13.21,18.5 z" id="p3286" style="fill:#9e9a98;fill-opacity:0.31;fill-rule:evenodd;stroke:none;display:inline"/>
<path d="M 2.15,17.37 C 1.99,17.97 1.86,18.59 1.78,19.21 C 1.58,20.16 1.62,21.28 1.46,22.25 C 0.91,31.7 9.01,40.52 21.37,42.15 C 33.14,43.7 43.57,37.93 45.81,29.28 L 45.97,28.24 C 41.71,34.71 32.78,40.72 22.31,39.34 C 9.95,37.71 0.91,28.7 2.12,19.25 C 2.2,18.64 2.31,18.04 2.46,17.46 L 2.15,17.37 z" id="p3254" style="fill:#131312;fill-opacity:0.87;fill-rule:nonzero;stroke:none;marker:none;visibility:visible;display:inline;overflow:visible;enable-background:accumulate"/>
<path d="M 1.5,24.37 C 2.03,31.18 7.01,37.39 14.71,40.43 C 16.35,39.5 9.14,35.71 7.21,34.15 C 5.25,32.57 3.63,28.91 1.5,24.37 z" id="p3261" style="fill:#655642;fill-opacity:0.56;fill-rule:evenodd;stroke:none;display:inline"/>
<path d="M 45.71,29.59 C 42.1,35.79 33.52,39.34 29.53,40.25 C 26.31,40.97 25.56,41.71 27.15,42.31 C 36.27,41.67 43.71,36.63 45.71,29.59 z" id="p3264" style="fill:#6d6861;fill-opacity:0.31;fill-rule:evenodd;stroke:none;display:inline"/>
<path d="M 45.9,28.68 C 43.65,32.61 39.65,36.11 37.25,37.43 C 35.04,38.65 33.96,39.42 33.75,41.03 C 39.84,38.95 44.41,34.67 45.81,29.28 L 45.9,28.68 z" id="p3275" style="fill:#88775f;fill-opacity:0.31;fill-rule:evenodd;stroke:none;display:inline"/>
<path d="M 14.79,14.61 C 16.46,12.02 18.31,11.09 18.4,10.17 C 18.49,9.25 19.05,7.49 22.01,7.3 C 24.97,7.12 28.66,7.03 30.14,7.95 C 31.62,8.88 31.62,9.43 32.36,9.43 C 33.1,9.43 34.95,11 34.77,12.02 C 34.58,13.04 34.49,10.82 30.05,10.72 C 25.61,10.63 27.46,12.11 25.52,12.11 C 23.58,12.11 21.08,11.74 22.65,11.28 C 24.23,10.82 19.14,10.17 19.79,10.82 C 20.43,11.46 20.43,12.67 19.23,12.67 C 18.03,12.67 16.36,13.04 16.36,13.68 C 16.36,14.33 14.7,14.7 14.79,14.61 z" id="p3288" style="fill:#4c4947;fill-opacity:0.81;fill-rule:evenodd;stroke:none;display:inline"/>
<path d="M 13.43,24.26 C 17.01,24.8 18.89,25.43 22.92,23.91" id="p3327" style="fill:none;fill-rule:evenodd;stroke:#9d9d9d;stroke-width:1.88;stroke-linecap:round;stroke-linejoin:miter;stroke-miterlimit:4;stroke-dasharray:none;stroke-opacity:0.38;display:inline"/>
<path d="M 16,13.41 C 17.75,15.07 19,17.32 18.08,17.82 C 17.16,18.32 14.83,18.57 15.08,19.91 C 15.33,21.24 15.66,23.74 16,23.74 C 16.33,23.74 17.16,21.16 18.58,20.66 C 20,20.16 26.16,19.49 26.33,19.91 C 26.5,20.32 25.5,21.99 26,22.33 C 26.5,22.66 23.83,22.33 22.33,22.33 C 20.83,22.33 19.83,23.41 18.5,24.08 C 17.16,24.74 11.66,23.91 11.66,23.49 C 11.66,23.08 12,22.49 12,21.83 C 12,21.16 11.5,19.57 12,19.57 C 12.5,19.57 11.16,19.49 10.91,18.74 C 10.66,17.99 14.16,15.49 14.16,15.49 C 14.16,15.49 13.5,14.32 13.58,14.16 C 13.66,13.99 16.08,13.49 16,13.41 z" id="p3303" style="fill:#5f5b58;fill-opacity:0.81;fill-rule:evenodd;stroke:none;display:inline"/>
<path d="M 12.38,17.94 L 13.38,17.02" id="p3308" style="fill:none;fill-rule:evenodd;stroke:#262626;stroke-width:1.60;stroke-linecap:round;stroke-linejoin:miter;stroke-miterlimit:4;stroke-dasharray:none;stroke-opacity:0.51;display:inline"/>
<path d="M 15.12,25.75 C 12.18,25.31 11.16,24.79 11.45,23.91 C 11.74,23.03 12.18,22.66 12.18,22.66 C 12.18,22.66 11.6,21.63 11.82,21.19 C 12.04,20.75 12.33,19.94 12.04,19.72 C 11.74,19.5 10.86,18.99 10.79,18.55 C 10.72,18.11 11.08,17.89 11.82,17.96 C 12.55,18.04 13.8,18.4 13.95,18.7 C 14.09,18.99 13.21,19.5 13.14,19.87 C 13.07,20.24 14.31,19.8 14.39,20.31 C 14.46,20.83 13.29,20.83 13.07,21.41 C 12.85,22 12.55,23.18 13.07,23.18 C 13.58,23.18 16.66,24.28 15.12,25.75 z" id="p3297" style="fill:#ccbfb1;fill-opacity:0.81;fill-rule:evenodd;stroke:none;display:inline"/>
<path d="M 14.75,14.58 C 15.49,14.88 16.22,15.69 16.22,15.69" id="p3299" style="fill:none;fill-rule:evenodd;stroke:#bab3af;stroke-width:1px;stroke-linecap:round;stroke-linejoin:miter;stroke-opacity:1;display:inline"/>
<path d="M 14.83,16.82 L 15,18.99" id="p3306" style="fill:none;fill-rule:evenodd;stroke:#262626;stroke-width:1px;stroke-linecap:round;stroke-linejoin:miter;stroke-opacity:0.55;display:inline"/>
<path d="M 12.96,19.97 L 13.89,19.49" id="p3312" style="fill:none;fill-rule:evenodd;stroke:#424242;stroke-width:0.60;stroke-linecap:round;stroke-linejoin:miter;stroke-miterlimit:4;stroke-dasharray:none;stroke-opacity:0.77"/>
<path d="M 12.56,22.78 L 13.12,22.3" id="p3314" style="fill:none;fill-rule:evenodd;stroke:#424242;stroke-width:1px;stroke-linecap:round;stroke-linejoin:miter;stroke-opacity:0.77"/>
<path d="M 12.59,18.71 L 13.36,18.93" id="p3316" style="fill:none;fill-rule:evenodd;stroke:#e3e3e3;stroke-width:1px;stroke-linecap:round;stroke-linejoin:miter;stroke-opacity:0.62"/>
<path d="M 11.77,23.93 L 12.5,24.51" id="p3318" style="fill:none;fill-rule:evenodd;stroke:#efefef;stroke-width:0.80;stroke-linecap:round;stroke-linejoin:miter;stroke-miterlimit:4;stroke-dasharray:none;stroke-opacity:0.76;display:inline"/>
<path d="M 21.58,10.2 L 24.2,10.01" id="p3321" style="fill:none;fill-rule:evenodd;stroke:#ababab;stroke-width:1.60;stroke-linecap:round;stroke-linejoin:miter;stroke-miterlimit:4;stroke-dasharray:none;stroke-opacity:0.5;display:inline"/>
<path d="M 15.97,13.37 C 16.76,12.51 18.71,11.23 18.59,10.68 C 18.47,10.13 18.41,7.7 23.53,7.51 C 28.65,7.33 30.48,8.49 30.48,8.49" id="p3324" style="fill:none;fill-rule:evenodd;stroke:#484848;stroke-width:1.10;stroke-linecap:round;stroke-linejoin:miter;stroke-miterlimit:4;stroke-dasharray:none;stroke-opacity:1;display:inline"/>
<path d="M 11.01,34.03 C 12.62,32.59 14.14,32.5 14.14,31.43 C 14.14,30.35 14.5,28.38 15.85,27.85 C 17.19,27.31 22.65,25.43 23.73,25.43 C 24.8,25.43 29.64,25.25 29.64,25.25 L 27.4,26.06 C 27.4,26.06 28.74,26.41 28.56,26.95 C 28.38,27.49 27.85,30.26 28.29,30.8 C 28.74,31.34 21.93,32.77 19.79,33.4 C 17.64,34.03 19.25,38.05 19.25,38.05 C 19.25,38.05 14.41,37.07 11.01,34.03 z" id="p3330" style="fill:#585552;fill-opacity:0.70;fill-rule:evenodd;stroke:none;display:inline"/>
<path d="M 17.03,28.37 C 19.62,27.4 26.65,26.06 28,26.15 C 29.34,26.25 29.92,26.25 29.92,27.4 C 29.92,28.56 32.23,33.56 32.23,33.56 C 32.23,33.56 27.03,33.95 23.86,35.39 C 20.68,36.83 22.13,39.05 19.62,38.18 C 17.12,37.31 11.45,35.77 12.5,35.49 C 13.56,35.2 16.64,35.77 16.55,34.62 C 16.45,33.47 14.91,29.23 17.03,28.37 z" id="p3233" style="fill:#b4b4b4;fill-opacity:0.33;fill-rule:evenodd;stroke:none"/>
<path d="M 14.41,30.71 C 15.04,29.37 15.13,28.11 15.85,27.76 C 16.56,27.4 21.76,25.43 24.17,25.43 C 26.59,25.43 29.28,25.25 29.28,25.25" id="p3333" style="fill:none;fill-rule:evenodd;stroke:#4c4c4c;stroke-width:1px;stroke-linecap:round;stroke-linejoin:miter;stroke-opacity:0.79;display:inline"/>
<path d="M 19.34,30.53 C 21.04,29.46 25.61,28.74 25.61,28.74" id="p3336" style="fill:none;fill-rule:evenodd;stroke:#2a2a2a;stroke-width:1.78;stroke-linecap:round;stroke-linejoin:miter;stroke-miterlimit:4;stroke-dasharray:none;stroke-opacity:0.26;display:inline"/>
<path d="M 14.05,34.83 C 15.85,35.01 18.62,33.67 19.88,33.67 C 21.13,33.67 22.65,33.49 22.65,33.49" id="p3339" style="fill:none;fill-rule:evenodd;stroke:#9b9b9b;stroke-width:1px;stroke-linecap:round;stroke-linejoin:miter;stroke-opacity:0.56;display:inline"/>
<path d="M 20.33,14.46 C 19.4,16.25 19.71,18.19 18.55,19.12" id="p3342" style="fill:none;fill-rule:evenodd;stroke:#969696;stroke-width:2.08;stroke-linecap:round;stroke-linejoin:miter;stroke-miterlimit:4;stroke-dasharray:none;stroke-opacity:0.47;display:inline"/>
<path d="M 34.37,12.17 C 34.37,14.07 34.82,15.16 35.91,16.52 C 36.99,17.87 36.63,20.77 36,22.03 C 35.36,23.3 35.18,23.66 35.27,24.84" id="p3345" style="fill:none;fill-rule:evenodd;stroke:#b0b5b7;stroke-width:0.88;stroke-linecap:round;stroke-linejoin:miter;stroke-miterlimit:4;stroke-dasharray:none;stroke-opacity:0.61;display:inline"/>
<path d="M 27.04,20.95 C 27.86,22.31 29.85,21.58 30.39,22.49 C 30.93,23.39 30.66,25.02 30.66,25.02" id="p3348" style="fill:none;fill-rule:evenodd;stroke:#eae8e3;stroke-width:1.5;stroke-linecap:butt;stroke-linejoin:miter;stroke-miterlimit:4;stroke-dasharray:none;stroke-opacity:0.46;display:inline"/>
<path d="M 31.02,27.01 C 31.02,27.01 30.93,29.72 31.56,30.45" id="p3350" style="fill:none;fill-rule:evenodd;stroke:#d8dbdd;stroke-width:1.20;stroke-linecap:round;stroke-linejoin:miter;stroke-miterlimit:4;stroke-dasharray:none;stroke-opacity:0.47;display:inline"/>
<path d="M 23.97,34.61 C 25.23,33.52 26.86,32.26 27.77,32.26" id="p3354" style="fill:none;fill-rule:evenodd;stroke:#c9c6c0;stroke-width:0.80;stroke-linecap:round;stroke-linejoin:miter;stroke-miterlimit:4;stroke-dasharray:none;stroke-opacity:0.36;display:inline"/>
<path d="M 20.17,36.78 C 20.62,35.06 21.43,34.06 22.7,33.61" id="p3356" style="fill:none;fill-rule:evenodd;stroke:#c9c6c0;stroke-width:1.5;stroke-linecap:butt;stroke-linejoin:miter;stroke-miterlimit:4;stroke-dasharray:none;stroke-opacity:0.36;display:inline"/>
<path d="M 6.98,26.71 C 5.23,23.63 4.82,21.47 5.48,18.48" id="p3366" style="fill:none;fill-rule:evenodd;stroke:#8c8c8c;stroke-width:2.20;stroke-linecap:butt;stroke-linejoin:miter;stroke-miterlimit:4;stroke-dasharray:none;stroke-opacity:0.58;display:inline"/>
<path d="M 8.14,13.66 C 10.31,11.58 12.88,10.25 12.88,10.25" id="p3368" style="fill:none;fill-rule:evenodd;stroke:#a9a9a9;stroke-width:1.5;stroke-linecap:butt;stroke-linejoin:miter;stroke-miterlimit:4;stroke-dasharray:none;stroke-opacity:0.43;display:inline"/>
<path d="M 11.8,8.92 L 13.13,11.24" id="p3370" style="fill:none;fill-rule:evenodd;stroke:#c5c1b1;stroke-width:1px;stroke-linecap:butt;stroke-linejoin:miter;stroke-opacity:0.54;display:inline"/>
<path d="M 6.59,26.36 L 7.7,27.01" id="p3375" style="fill:none;fill-rule:evenodd;stroke:#d8d7d3;stroke-width:1px;stroke-linecap:butt;stroke-linejoin:miter;stroke-opacity:0.58;display:inline"/>
<path d="M 6.96,15.03 L 7.8,15.4" id="p3377" style="fill:none;fill-rule:evenodd;stroke:#d8d7d3;stroke-width:1px;stroke-linecap:butt;stroke-linejoin:miter;stroke-opacity:0.58;display:inline"/>
<path d="M 29.16,12.58 L 31.63,11.9" id="p3192" style="fill:none;fill-opacity:1;fill-rule:evenodd;stroke:#484848;stroke-width:1;stroke-linecap:round;stroke-linejoin:miter;marker:none;stroke-miterlimit:4;stroke-dasharray:none;stroke-dashoffset:0;stroke-opacity:0.66;visibility:visible;display:inline;overflow:visible;enable-background:accumulate"/>
<path d="M 22.66,12.21 L 24.58,11.46" id="p3194" style="fill:none;fill-opacity:1;fill-rule:evenodd;stroke:#383838;stroke-width:1.28;stroke-linecap:round;stroke-linejoin:miter;marker:none;stroke-miterlimit:4;stroke-dasharray:none;stroke-dashoffset:0;stroke-opacity:0.83;visibility:visible;display:inline;overflow:visible;enable-background:accumulate"/>
<path d="M 30.09,19.14 L 31.2,20.5" id="p3196" style="fill:none;fill-rule:evenodd;stroke:#c7bdaf;stroke-width:1.38;stroke-linecap:round;stroke-linejoin:miter;stroke-miterlimit:4;stroke-dasharray:none;stroke-opacity:0.68;display:inline"/>
<path d="M 31.08,18.28 L 33.55,16.48" id="p3198" style="fill:none;fill-rule:evenodd;stroke:#2a2a2a;stroke-width:0.80;stroke-linecap:round;stroke-linejoin:miter;stroke-miterlimit:4;stroke-dasharray:none;stroke-opacity:0.25;display:inline"/>
<path d="M 33.31,12.89 L 34.17,14.81" id="p3200" style="fill:none;fill-rule:evenodd;stroke:#8a8a8a;stroke-width:1px;stroke-linecap:round;stroke-linejoin:miter;stroke-opacity:0.6;display:inline"/>
<path d="M 26.31,18.96 L 29.34,20.13" id="p3202" style="fill:none;fill-rule:evenodd;stroke:#505050;stroke-width:1.20;stroke-linecap:round;stroke-linejoin:miter;stroke-miterlimit:4;stroke-dasharray:none;stroke-opacity:0.6;display:inline"/>
<path d="M 28.65,21.77 L 30.17,22.31 L 30.62,23.83" id="p3213" style="fill:none;fill-rule:evenodd;stroke:#ebe8e1;stroke-width:0.88;stroke-linecap:round;stroke-linejoin:round;stroke-miterlimit:4;stroke-dasharray:none;stroke-opacity:0.37;display:inline"/>
<path d="M 16.64,21.35 C 17.36,20.41 18.41,19.39 19.79,19.21 C 21.17,19.03 23.12,18.12 24.1,17.18" id="p3219" style="fill:none;fill-rule:evenodd;stroke:#818181;stroke-width:1.88;stroke-linecap:round;stroke-linejoin:miter;stroke-miterlimit:4;stroke-dasharray:none;stroke-opacity:0.88"/>
<path d="M 24.43,37.05 C 28.98,37.05 31.26,36.87 32.92,36.17" id="p3224" style="fill:none;fill-rule:evenodd;stroke:#cabca6;stroke-width:1.5;stroke-linecap:round;stroke-linejoin:miter;stroke-miterlimit:4;stroke-dasharray:none;stroke-opacity:0.62;display:inline"/>
<path d="M 32.4,26.36 L 33.1,26.36" id="p3226" style="fill:none;fill-rule:evenodd;stroke:#dfd7cf;stroke-width:1.10;stroke-linecap:butt;stroke-linejoin:miter;stroke-miterlimit:4;stroke-dasharray:none;stroke-opacity:0.73;display:inline"/>
<path d="M 37.57,11.91 C 44.05,17.61 46.59,23.91 40.63,31.44" id="p3228" style="fill:none;fill-rule:evenodd;stroke:#bfbfbf;stroke-width:3;stroke-linecap:butt;stroke-linejoin:miter;stroke-miterlimit:4;stroke-dasharray:none;stroke-opacity:0.17;display:inline"/>
<path d="M 35.3,12.69 C 35.3,13.91 35.3,14 36.53,15.98 C 37.75,17.96 37.47,22.38 37,23.14 C 36.53,23.89 35.59,25.02 36.43,26.9 C 37.28,28.79 38.69,29.07 38.79,29.82 C 38.88,30.58 37.47,33.78 39.07,32.55 C 40.67,31.33 44.34,28.6 44.63,23.14 C 44.91,17.68 39.07,12.78 37.56,11.65 C 36.06,10.52 35.4,12.59 35.3,12.69 z" id="p3236" style="fill:#b4b4b4;fill-opacity:0.31;fill-rule:evenodd;stroke:none;display:inline"/>
<path d="M 38.03,12.59 C 43.12,17.58 43.21,18.99 44.06,22.38" id="p3239" style="fill:none;fill-rule:evenodd;stroke:#665647;stroke-width:2.20;stroke-linecap:butt;stroke-linejoin:miter;stroke-miterlimit:4;stroke-dasharray:none;stroke-opacity:0.33"/>
<path d="M 31.95,30.31 L 33.13,29.35" id="p3244" style="fill:none;fill-rule:evenodd;stroke:#3f3f3f;stroke-width:1px;stroke-linecap:round;stroke-linejoin:miter;stroke-opacity:0.77;display:inline"/>
<path d="M 38.76,31.32 L 41.17,31.97" id="p3246" style="fill:none;fill-rule:evenodd;stroke:#d7ccc0;stroke-width:1px;stroke-linecap:butt;stroke-linejoin:miter;stroke-opacity:0.55;display:inline"/>
<path d="M 40.55,28.74 L 41.6,29.61" id="p3248" style="fill:none;fill-opacity:1;fill-rule:evenodd;stroke:#d7ccc0;stroke-width:1px;stroke-linecap:butt;stroke-linejoin:miter;marker:none;stroke-miterlimit:4;stroke-dasharray:none;stroke-dashoffset:0;stroke-opacity:0.55;visibility:visible;display:inline;overflow:visible;enable-background:accumulate"/>
<path d="M 35.49,32.1 C 35.53,31.84 37.37,28.3 37.37,28.3" id="p3250" style="fill:none;fill-rule:evenodd;stroke:#424242;stroke-width:2.08;stroke-linecap:butt;stroke-linejoin:miter;stroke-miterlimit:4;stroke-dasharray:none;stroke-opacity:0.51;display:inline"/>
<path d="M 45.80,24.97 C 44.70,34.14 34.15,40.29 22.24,38.72 C 10.33,37.15 1.57,28.44 2.67,19.27 C 3.77,10.10 14.32,3.94 26.23,5.51 C 38.14,7.09 46.90,15.80 45.80,24.97 L 45.80,24.97 z" id="p3258" style="fill:none;fill-opacity:0.87;fill-rule:nonzero;stroke:#9c9c9c;stroke-width:1.18;stroke-linecap:round;stroke-linejoin:miter;marker:none;stroke-miterlimit:4;stroke-dasharray:none;stroke-dashoffset:0;stroke-opacity:1;visibility:visible;display:inline;overflow:visible;enable-background:accumulate"/>
<path d="M 4.67,28.91 C 7.46,32.91 10.03,34.87 12.52,36.08" id="p3282" style="fill:none;fill-rule:evenodd;stroke:#d5d5d5;stroke-width:1px;stroke-linecap:round;stroke-linejoin:miter;stroke-opacity:1;display:inline"/>
<path d="M 21.8,4.78 C 11.39,5.03 2.82,10.94 1.77,19.21 C 1.57,20.16 1.61,21.28 1.45,22.24 C 0.9,31.7 9,40.52 21.36,42.15 C 33.72,43.78 44.63,37.35 46.1,27.96 C 46.27,27.01 46.38,26.08 46.55,25.12 C 47.76,15.66 38.72,6.66 26.36,5.03 C 24.81,4.82 23.28,4.74 21.8,4.78 z" id="stroke01" style="fill:none;fill-opacity:1;fill-rule:nonzero;stroke:#000000;stroke-width:0.5;stroke-linecap:round;stroke-linejoin:miter;marker:none;stroke-miterlimit:4;stroke-dasharray:none;stroke-dashoffset:0;stroke-opacity:1;visibility:visible;display:inline;overflow:visible;enable-background:accumulate"/>
</g>
</svg>
