<?xml version="1.0" encoding="UTF-8" standalone="no"?>
<!DOCTYPE svg PUBLIC "-//W3C//DTD SVG 1.0//EN" "http://www.w3.org/TR/2001/REC-SVG-20010904/DTD/svg10.dtd">
<svg xmlns:svg="http://www.w3.org/2000/svg" xmlns="http://www.w3.org/2000/svg" xmlns:xlink="http://www.w3.org/1999/xlink" version="1.0" width="100%" height="100%" viewBox="0 0 48 48" id="sulphur01">
<defs id="defs2385"/>
<g id="content" style="display:inline">
<path d="M 11.40,11.82 C 11.27,12.49 11.45,13.44 10.86,14.99 C 10.56,15.78 10.89,15.88 10.48,16.54 C 10.07,17.21 8.03,19.68 7.79,20.47 C 7.66,20.90 7.76,21.64 7.63,21.96 C 7.50,22.27 7.15,24.52 6.96,25.00 C 6.77,25.47 4.84,28.70 4.78,29.02 C 4.71,29.34 4.56,29.78 4.56,30.16 C 4.56,30.54 4.78,31.05 4.81,31.24 C 4.84,31.43 4.75,32.25 4.81,32.51 C 4.87,32.76 5.22,34.37 5.38,34.72 C 5.54,35.07 5.82,35.32 5.89,35.55 C 5.95,35.77 5.85,36.37 5.92,36.59 C 5.98,36.81 6.74,38.33 8.42,39.22 C 10.10,40.11 9.88,40.04 10.35,40.08 C 10.83,40.11 13.99,40.70 14.88,40.71 C 15.25,40.72 15.19,40.35 15.48,40.39 C 16.69,40.55 18.27,41.44 19.86,41.06 C 21.44,40.68 21.76,40.33 22.20,40.33 C 22.64,40.33 22.82,39.89 23.47,39.89 C 24.32,39.89 26.79,39.70 28.09,39.79 C 29.39,39.89 32.27,37.92 32.68,37.80 C 33.10,37.67 33.63,37.64 34.01,37.51 C 34.39,37.38 34.33,37.10 34.74,36.97 C 35.15,36.85 35.34,37.13 35.82,36.97 C 36.29,36.81 36.17,36.56 37.78,35.99 C 39.40,35.42 39.21,35.83 40.19,34.53 C 41.17,33.23 43.04,30.16 43.26,29.59 C 43.49,29.02 44.47,25.35 44.34,24.78 C 44.21,24.21 42.92,19.87 43.01,19.36 C 43.11,18.85 43.14,18.16 43.07,17.78 C 43.01,17.40 42.47,16.95 42.47,16.67 C 42.47,16.38 42.73,15.59 42.50,15.31 C 42.28,15.02 40.91,13.00 40.58,11.68 C 40.25,10.37 38.77,7.57 38.77,7.57 C 38.77,7.57 36.80,6.92 35.82,6.92 C 34.83,6.92 32.53,6.75 31.54,6.59 C 30.56,6.42 30.39,6.42 29.08,6.92 C 27.76,7.41 27.44,6.75 26.78,6.75 C 26.12,6.75 22.01,7.57 20.53,8.07 C 19.06,8.56 19.22,9.38 17.58,9.71 C 15.93,10.04 12.65,10.37 11.40,11.82 z" id="p2464" style="opacity:1;fill:#f7f17a;fill-opacity:1;fill-rule:evenodd;stroke:none;"/>
<path d="M 20.34,8.15 C 19.08,8.65 19.15,9.40 17.59,9.71 C 15.95,10.04 12.65,10.35 11.40,11.81 C 11.27,12.47 11.46,13.45 10.87,15 C 10.57,15.79 10.91,15.86 10.5,16.53 C 10.08,17.19 8.02,19.68 7.78,20.46 C 7.65,20.89 7.75,21.65 7.62,21.96 C 7.49,22.28 7.15,24.52 6.96,25 C 6.77,25.47 4.84,28.71 4.78,29.03 C 4.71,29.34 4.56,29.77 4.56,30.15 C 4.56,30.53 4.78,31.05 4.81,31.25 C 4.84,31.44 4.74,32.24 4.81,32.5 C 4.87,32.75 5.21,34.37 5.37,34.71 C 5.53,35.06 5.84,35.34 5.90,35.56 C 5.96,35.78 5.87,36.37 5.93,36.59 C 6.00,36.81 6.75,38.33 8.43,39.21 C 10.11,40.10 9.86,40.06 10.34,40.09 C 10.81,40.12 13.97,40.70 14.87,40.71 C 15.24,40.72 15.20,40.36 15.5,40.40 C 16.61,40.55 18.04,41.30 19.5,41.12 C 19.52,40.24 19.86,39.48 20.18,39.06 C 20.61,38.48 20.33,36.61 20.18,36.18 C 20.04,35.75 18.44,35.03 18.15,34.31 C 17.86,33.59 17.45,30.54 17.31,29.25 C 17.16,27.95 18.01,26.93 17.87,26.21 C 17.73,25.49 19.32,25.51 19.46,24.93 C 19.61,24.36 19.01,23.21 19.59,21.34 C 20.17,19.46 21.18,18.75 21.18,18.75 C 21.18,18.75 21.34,17.72 21.34,17 C 21.34,16.27 19.59,13.97 19.59,13.25 C 19.59,12.52 20.46,12.67 20.75,11.81 C 21.03,10.94 20.05,10.51 19.90,9.93 C 19.84,9.70 20.05,8.98 20.34,8.15 z" id="p2468" style="fill:#f4f3a0;fill-opacity:0.85;fill-rule:evenodd;stroke:none;display:inline"/>
<path d="M 32.84,6.71 C 32.16,8.43 31.88,9.81 31.28,10.21 C 30.41,10.79 29.69,15.26 29.84,16.12 C 29.98,16.98 28.39,17.86 28.68,18.43 C 28.97,19.01 30.99,18.72 31.28,19.59 C 31.56,20.45 32.43,21.34 32.43,21.34 C 32.43,21.34 28.81,23.92 28.53,25.21 C 28.24,26.51 30.12,29.68 30.84,29.68 C 31.56,29.68 35.17,30.13 35.75,29.84 C 36.32,29.55 38.48,26.66 39.06,26.37 C 39.63,26.08 37.18,23.05 37.18,22.18 C 37.18,21.32 38.48,19.32 38.34,18.75 C 38.19,18.17 35.03,14.54 35.46,12.81 C 35.90,11.08 37.20,8.64 38.5,8.5 C 38.75,8.47 38.95,8.36 39.12,8.21 C 39.01,8.00 38.78,7.56 38.78,7.56 C 38.78,7.56 36.79,6.90 35.81,6.90 C 35.12,6.90 33.91,6.82 32.84,6.71 z" id="p2470" style="fill:#eae244;fill-opacity:0.78;fill-rule:evenodd;stroke:none;display:inline"/>
<path d="M 12.53,11 C 12.07,11.22 11.69,11.48 11.40,11.81 C 11.27,12.47 11.46,13.45 10.87,15 C 10.57,15.79 10.91,15.86 10.5,16.53 C 10.08,17.19 8.02,19.68 7.78,20.46 C 7.65,20.89 7.75,21.65 7.62,21.96 C 7.49,22.28 7.15,24.52 6.96,25 C 6.77,25.47 4.84,28.71 4.78,29.03 C 4.71,29.34 4.56,29.77 4.56,30.15 C 4.56,30.53 4.78,31.05 4.81,31.25 C 4.84,31.44 4.74,32.24 4.81,32.5 C 4.87,32.75 5.21,34.37 5.37,34.71 C 5.53,35.06 5.84,35.34 5.90,35.56 C 5.96,35.78 5.87,36.37 5.93,36.59 C 6.00,36.81 6.75,38.33 8.43,39.21 C 10.11,40.10 9.86,40.06 10.34,40.09 C 10.81,40.12 13.97,40.70 14.87,40.71 C 15.24,40.72 15.20,40.36 15.5,40.40 C 16.70,40.56 18.29,41.44 19.87,41.06 C 21.45,40.68 21.77,40.34 22.21,40.34 C 22.66,40.34 22.82,39.90 23.46,39.90 C 24.32,39.90 26.79,39.68 28.09,39.78 C 29.39,39.87 32.27,37.93 32.68,37.81 C 33.09,37.68 33.65,37.62 34.03,37.5 C 34.41,37.37 34.33,37.09 34.75,36.96 C 35.16,36.84 35.33,37.12 35.81,36.96 C 36.28,36.81 36.16,36.57 37.78,36 C 39.39,35.42 39.20,35.82 40.18,34.53 C 41.07,33.36 42.65,30.86 43.12,29.93 C 42.10,30.37 40.91,30.60 40.06,30.28 C 38.90,29.84 38.35,27.51 37.78,28.09 C 37.20,28.67 34.59,28.81 33.43,28.81 C 32.28,28.81 31.84,27.09 31.12,26.37 C 30.40,25.65 27.10,23.79 26.53,23.93 C 25.95,24.08 25.21,25.35 25.21,26.21 C 25.21,27.08 23.07,26.96 22.5,27.25 C 21.92,27.53 21.03,26.51 20.31,26.65 C 19.59,26.80 17.59,25.66 16.87,25.81 C 16.15,25.95 14.13,28.25 13.12,28.25 C 12.11,28.25 10.94,26.94 9.93,26.65 C 8.92,26.36 7.94,26.38 7.65,26.09 C 7.36,25.80 8.93,22.78 9.21,22.06 C 9.50,21.34 9.07,20.62 9.93,18.75 C 10.80,16.87 11.24,16.86 11.96,16.43 C 12.68,16.00 11.96,14.55 12.25,13.68 C 12.25,13.20 12.40,11.95 12.53,11 z" id="p2466" style="fill:#a19440;fill-opacity:0.85;fill-rule:evenodd;stroke:none;display:inline"/>
<path d="M 39.12,8.21 C 38.95,8.36 38.75,8.47 38.5,8.5 C 37.20,8.64 35.90,11.08 35.46,12.81 C 35.03,14.54 38.19,18.17 38.34,18.75 C 38.48,19.32 37.18,21.32 37.18,22.18 C 37.18,23.05 39.63,26.08 39.06,26.37 C 38.73,26.53 37.92,27.51 37.15,28.40 C 37.43,28.31 37.65,28.21 37.78,28.09 C 38.35,27.51 38.90,29.84 40.06,30.28 C 40.91,30.60 42.10,30.37 43.12,29.93 C 43.17,29.83 43.25,29.65 43.28,29.59 C 43.50,29.02 44.47,25.35 44.34,24.78 C 44.21,24.21 42.90,19.88 43,19.37 C 43.09,18.86 43.15,18.16 43.09,17.78 C 43.03,17.40 42.46,16.97 42.46,16.68 C 42.46,16.40 42.72,15.59 42.5,15.31 C 42.27,15.02 40.92,13.00 40.59,11.68 C 40.33,10.65 39.52,9.00 39.12,8.21 z" id="p2475" style="fill:#faf6a5;fill-opacity:1;fill-rule:evenodd;stroke:none;display:inline"/>
<path d="M 4.59,29.93 C 4.58,30.01 4.56,30.08 4.56,30.15 C 4.56,30.53 4.78,31.05 4.81,31.25 C 4.84,31.44 4.74,32.24 4.81,32.5 C 4.87,32.75 5.21,34.37 5.37,34.71 C 5.53,35.06 5.84,35.34 5.90,35.56 C 5.96,35.78 5.87,36.37 5.93,36.59 C 6.00,36.81 6.75,38.33 8.43,39.21 C 10.11,40.10 9.86,40.06 10.34,40.09 C 10.81,40.12 13.97,40.70 14.87,40.71 C 15.24,40.72 15.20,40.36 15.5,40.40 C 16.70,40.56 18.29,41.44 19.87,41.06 C 21.45,40.68 21.77,40.34 22.21,40.34 C 22.22,40.33 22.24,40.34 22.25,40.34 C 22.50,39.58 22.29,38.80 22.09,38.53 C 21.77,38.11 20.29,37.17 19.03,35.28 C 17.76,33.38 16.31,33.05 14.31,32.53 C 12.31,32.00 7.77,32.53 6.93,32.53 C 6.28,32.53 5.49,30.78 4.59,29.93 z" id="p3274" style="fill:#93843d;fill-opacity:0.63;fill-rule:evenodd;stroke:none;display:inline"/>
<path d="M 8.21,19.68 C 8.00,20.01 7.83,20.28 7.78,20.46 C 7.65,20.89 7.75,21.65 7.62,21.96 C 7.49,22.28 7.15,24.52 6.96,25 C 6.77,25.47 4.84,28.71 4.78,29.03 C 4.71,29.34 4.56,29.77 4.56,30.15 C 4.56,30.53 4.78,31.05 4.81,31.25 C 4.84,31.44 4.74,32.24 4.81,32.5 C 4.87,32.75 5.21,34.37 5.37,34.71 C 5.53,35.06 5.84,35.34 5.90,35.56 C 5.96,35.78 5.87,36.37 5.93,36.59 C 6.00,36.81 6.75,38.33 8.43,39.21 C 10.11,40.10 9.86,40.06 10.34,40.09 C 10.36,40.09 10.50,40.12 10.53,40.12 L 9.93,37.75 C 9.93,37.75 10.51,35.59 9.21,34.87 C 7.92,34.15 5.61,31.85 6.18,30.56 C 6.76,29.26 6.77,30.40 7.78,30.40 C 8.79,30.40 9.21,28.96 9.21,28.96 C 9.21,28.96 7.34,28.40 7.34,27.68 C 7.34,26.96 8.78,22.34 8.78,22.34 C 8.78,22.34 8.56,20.86 8.21,19.68 z" id="p3266" style="fill:#342e11;fill-opacity:0.49;fill-rule:evenodd;stroke:none;display:inline"/>
<path d="M 20.87,7.96 C 20.77,7.99 20.61,8.03 20.53,8.06 C 19.32,8.46 19.20,9.07 18.31,9.46 C 18.55,10.40 19.03,10.93 19.03,10.93 C 19.03,10.93 17.73,12.09 18.31,12.81 C 18.88,13.53 18.03,15.12 18.03,15.12 C 18.03,15.12 19.31,18.02 19.31,18.75 C 19.31,19.47 19.03,21.18 19.03,21.18 L 17.59,21.18 C 17.59,21.18 16.87,24.48 16.15,25.06 C 15.43,25.63 15.12,28.68 15.12,28.68 L 17.59,30.28 C 17.59,30.28 17.43,27.54 17.43,26.53 C 17.43,25.52 18.73,25.06 18.59,24.34 C 18.44,23.62 19.46,22.78 19.46,22.78 C 19.46,22.78 19.46,21.31 19.75,20.59 C 20.03,19.87 20.76,18.86 20.90,17.28 C 21.05,15.69 19.45,14.70 19.31,14.12 C 19.16,13.54 20.31,12.25 20.31,12.25 C 20.31,12.25 19.74,11.24 19.75,10.09 C 19.75,9.63 20.26,8.80 20.87,7.96 z" id="p3268" style="fill:#a99d17;fill-opacity:0.67;fill-rule:evenodd;stroke:none;display:inline"/>
<path d="M 16.87,25.81 C 16.15,25.95 14.13,28.25 13.12,28.25 C 12.68,28.25 12.19,27.99 11.71,27.68 C 11.37,28.46 11.09,29.18 10.96,29.12 C 10.82,29.84 9.67,31.69 10.25,31.84 C 10.82,31.98 14.13,32.99 15,33.28 C 15.86,33.56 20.03,34.74 20.03,35.75 C 20.03,36.75 20.63,39.06 21.06,38.34 C 21.49,37.62 21.90,36.74 23.06,37.03 C 24.21,37.31 24.93,37.76 26.37,37.18 C 27.81,36.61 28.40,35.31 28.40,35.31 C 28.40,35.31 27.39,36.17 25.81,34.59 C 24.22,33.00 23.65,31.12 22.5,29.96 C 21.34,28.81 20.90,29.53 20.18,28.81 C 19.46,28.09 19.17,28.09 18.31,26.21 C 18.29,26.18 18.26,26.15 18.25,26.12 C 17.69,25.93 17.17,25.75 16.87,25.81 z" id="p3270" style="fill:#e0df85;fill-opacity:0.33;fill-rule:evenodd;stroke:none;display:inline"/>
<path d="M 30.43,6.5 C 30.10,6.54 29.75,6.65 29.09,6.90 C 27.77,7.39 27.43,6.75 26.78,6.75 C 26.12,6.75 22.01,7.56 20.53,8.06 C 19.05,8.55 19.23,9.39 17.59,9.71 C 15.95,10.04 12.65,10.35 11.40,11.81 C 11.30,12.32 11.37,13.01 11.15,14 C 12.28,13.90 13.59,13.02 14.84,12.81 C 16.57,12.52 17.29,13.12 18.59,13.12 C 19.89,13.12 22.19,13.10 22.62,12.53 C 23.05,11.95 23.48,9.78 24.78,9.78 C 26.07,9.78 27.97,10.37 28.84,10.37 C 29.70,10.37 31.71,9.37 31.71,9.37 C 31.71,9.37 32.44,9.51 32.59,10.09 C 32.73,10.67 32.43,11.53 33.15,11.53 C 33.87,11.53 35.46,11.53 35.46,11.53 C 35.46,11.53 36.46,8.93 37.18,8.93 C 37.66,8.93 38.57,8.79 39.18,8.34 C 39.04,8.05 38.78,7.56 38.78,7.56 C 38.78,7.56 36.79,6.90 35.81,6.90 C 34.82,6.90 32.54,6.75 31.56,6.59 C 31.06,6.51 30.76,6.45 30.43,6.5 z" id="p3272" style="fill:#e6e214;fill-opacity:0.51;fill-rule:evenodd;stroke:none;display:inline"/>
<path d="M 31.98,18.74 C 31.46,19.27 31.56,20.21 31.56,20.21 L 33.04,20.95 C 33.04,20.95 32.62,21.48 32.72,22.21 C 32.83,22.95 34.83,25.69 35.14,25.79 C 35.46,25.90 38.72,26.11 38.72,26.11 L 39.04,25.16 C 39.04,25.16 37.98,22.74 37.04,22.32 C 36.09,21.90 31.98,18.85 31.98,18.74 z" id="p3252" style="fill:#634600;fill-opacity:0.18;fill-rule:evenodd;stroke:none;display:inline"/>
<path d="M 4.75,29.21 C 4.67,29.51 4.56,29.84 4.56,30.15 C 4.56,30.53 4.78,31.05 4.81,31.25 C 4.82,31.30 4.81,31.44 4.81,31.56 C 5.33,32.73 5.80,33.79 5.90,34 C 6.11,34.42 7.05,34.94 7.68,35.15 C 8.31,35.36 10.00,38.43 10.53,38.43 C 11.05,38.43 10.53,37.28 10.53,37.28 C 10.53,37.28 8.83,34.73 8.62,34.62 C 8.41,34.51 6.84,34.20 6.53,33.78 C 6.21,33.36 5.46,30.85 5.46,30.21 C 5.46,29.96 5.15,29.60 4.75,29.21 z" id="p3254" style="fill:#3e2d00;fill-opacity:0.33;fill-rule:evenodd;stroke:none;display:inline"/>
<path d="M 7.75,20.71 C 7.69,21.14 7.73,21.70 7.62,21.96 C 7.49,22.28 7.15,24.52 6.96,25 C 6.88,25.19 6.45,25.97 6.03,26.71 C 6.25,26.93 6.45,27.14 6.53,27.28 C 6.95,28.01 6.32,28.64 6.21,29.28 C 6.11,29.91 7.06,30.54 7.90,30.43 C 8.74,30.33 10.42,29.49 10.53,29.28 C 10.63,29.07 7.90,28.74 7.37,28.21 C 6.84,27.69 7.35,25.46 7.56,24.62 C 7.77,23.78 9.06,22.31 9.06,22.31 C 9.06,22.31 8.38,21.55 7.75,20.71 z" id="p3256" style="fill:#171000;fill-opacity:0.25;fill-rule:evenodd;stroke:none;display:inline"/>
<path d="M 42.96,30.18 C 42.24,30.36 41.28,30.43 40.93,30.43 C 40.41,30.43 39.16,32.52 37.68,33.46 C 36.21,34.41 33.88,34.93 31.25,34.93 C 28.61,34.93 27.14,37.05 25.56,37.68 C 23.98,38.31 21.45,36.83 20.40,36.93 C 19.56,37.02 18.88,39.23 18.31,41.09 C 18.81,41.17 19.35,41.18 19.87,41.06 C 21.45,40.68 21.77,40.34 22.21,40.34 C 22.66,40.34 22.82,39.90 23.46,39.90 C 24.32,39.90 26.79,39.68 28.09,39.78 C 29.39,39.87 32.27,37.93 32.68,37.81 C 33.09,37.68 33.65,37.62 34.03,37.5 C 34.41,37.37 34.33,37.09 34.75,36.96 C 35.16,36.84 35.33,37.12 35.81,36.96 C 36.28,36.81 36.16,36.57 37.78,36 C 39.39,35.42 39.20,35.82 40.18,34.53 C 40.99,33.46 42.37,31.27 42.96,30.18 z" id="p3258" style="fill:#634600;fill-opacity:0.17;fill-rule:evenodd;stroke:none;display:inline"/>
<path d="M 16.62,39.46 C 15.88,39.46 14.82,39.68 13.56,39.68 C 12.53,39.68 11.71,39.43 10.59,40.12 C 11.32,40.21 14.03,40.70 14.87,40.71 C 15.24,40.72 15.20,40.36 15.5,40.40 C 16.70,40.56 18.29,41.44 19.87,41.06 C 20.09,41.01 20.23,40.95 20.40,40.90 L 20.40,40.84 C 20.40,40.84 17.36,39.46 16.62,39.46 z" id="p3276" style="fill:#45411c;fill-opacity:0.45;fill-rule:evenodd;stroke:none;display:inline"/>
<path d="M 32,37.59 C 30.31,37.48 26.50,39.05 25.87,39.15 C 25.24,39.26 23.26,38.74 22.53,38.53 C 21.81,38.32 21.18,39.23 21.15,40.65 C 21.67,40.46 21.94,40.34 22.21,40.34 C 22.66,40.34 22.82,39.90 23.46,39.90 C 24.32,39.90 26.79,39.68 28.09,39.78 C 29.39,39.87 32.27,37.93 32.68,37.81 C 32.85,37.76 33.05,37.72 33.25,37.68 C 32.86,37.63 32.42,37.62 32,37.59 z" id="p3278" style="fill:#ece98b;fill-opacity:0.38;fill-rule:evenodd;stroke:none;display:inline"/>
<path d="M 11.40,11.82 C 11.27,12.49 11.45,13.44 10.86,14.99 C 10.56,15.78 10.89,15.88 10.48,16.54 C 10.07,17.21 8.03,19.68 7.79,20.47 C 7.66,20.90 7.76,21.64 7.63,21.96 C 7.50,22.27 7.15,24.52 6.96,25.00 C 6.77,25.47 4.84,28.70 4.78,29.02 C 4.71,29.34 4.56,29.78 4.56,30.16 C 4.56,30.54 4.78,31.05 4.81,31.24 C 4.84,31.43 4.75,32.25 4.81,32.51 C 4.87,32.76 5.22,34.37 5.38,34.72 C 5.54,35.07 5.82,35.32 5.89,35.55 C 5.95,35.77 5.85,36.37 5.92,36.59 C 5.98,36.81 6.74,38.33 8.42,39.22 C 10.10,40.11 9.88,40.04 10.35,40.08 C 10.83,40.11 13.99,40.70 14.88,40.71 C 15.25,40.72 15.19,40.35 15.48,40.39 C 16.69,40.55 18.27,41.44 19.86,41.06 C 21.44,40.68 21.76,40.33 22.20,40.33 C 22.64,40.33 22.82,39.89 23.47,39.89 C 24.32,39.89 26.79,39.70 28.09,39.79 C 29.39,39.89 32.27,37.92 32.68,37.80 C 33.10,37.67 33.63,37.64 34.01,37.51 C 34.39,37.38 34.33,37.10 34.74,36.97 C 35.15,36.85 35.34,37.13 35.82,36.97 C 36.29,36.81 36.17,36.56 37.78,35.99 C 39.40,35.42 39.21,35.83 40.19,34.53 C 41.17,33.23 43.04,30.16 43.26,29.59 C 43.49,29.02 44.47,25.35 44.34,24.78 C 44.21,24.21 42.92,19.87 43.01,19.36 C 43.11,18.85 43.14,18.16 43.07,17.78 C 43.01,17.40 42.47,16.95 42.47,16.67 C 42.47,16.38 42.73,15.59 42.50,15.31 C 42.28,15.02 40.91,13.00 40.58,11.68 C 40.25,10.37 38.77,7.57 38.77,7.57 C 38.77,7.57 36.80,6.92 35.82,6.92 C 34.83,6.92 32.53,6.75 31.54,6.59 C 30.56,6.42 30.39,6.42 29.08,6.92 C 27.76,7.41 27.44,6.75 26.78,6.75 C 26.12,6.75 22.01,7.57 20.53,8.07 C 19.06,8.56 19.22,9.38 17.58,9.71 C 15.93,10.04 12.65,10.37 11.40,11.82 z" id="stroke01" style="fill:none;fill-opacity:1;fill-rule:evenodd;stroke:#271b00;stroke-width:0.5;stroke-linecap:butt;stroke-linejoin:round;stroke-miterlimit:4;stroke-dasharray:none;stroke-opacity:1;display:inline"/>
</g>
</svg>
