<?xml version="1.0" encoding="UTF-8" standalone="no"?>
<!DOCTYPE svg PUBLIC "-//W3C//DTD SVG 1.0//EN" "http://www.w3.org/TR/2001/REC-SVG-20010904/DTD/svg10.dtd">
<svg xmlns:svg="http://www.w3.org/2000/svg" xmlns="http://www.w3.org/2000/svg" version="1.0" width="100%" height="100%" viewBox="0 0 48 48" id="_white01">
<defs id="defs2385"/>
<g id="white01" style="display:inline">
<path d="M 3.4,11.23 C 3.4,12.52 3.87,35.07 3.87,35.78 C 3.87,36.04 6.1,38.83 6.69,38.95 C 7.28,39.07 40.16,38.72 40.87,38.72 C 41.57,38.72 44.04,36.01 44.04,35.43 C 44.04,34.84 44.04,12.41 44.04,11.94 C 44.04,11.47 40.75,9.59 40.05,9.59 C 39.34,9.59 6.22,9.23 5.63,9.12 C 5.05,9 3.4,10.76 3.4,11.23 z" id="p2583" style="fill:#fefefe;fill-opacity:1;fill-rule:evenodd;stroke:none"/>
<path d="M 5.62,9.12 C 5.03,9 3.4,10.78 3.4,11.25 C 3.4,11.52 3.46,14.67 3.5,16.43 L 10.21,15.21 L 37.75,15.34 L 44.03,16.59 C 44.03,15.11 44.03,12.03 44.03,11.93 C 44.03,11.46 40.76,9.59 40.06,9.59 C 39.35,9.59 6.21,9.24 5.62,9.12 z" id="p3359" style="fill:#7d7d7d;fill-opacity:0.8;fill-rule:evenodd;stroke:none;display:inline"/>
<path d="M 5.62,9.12 C 5.03,9 3.4,10.78 3.4,11.25 L 3.4,11.28 L 3.75,11.62 L 7.84,12.62 L 38.62,12.87 L 42.37,13 L 42.46,16.28 L 44.03,16.59 C 44.03,15.11 44.03,12.03 44.03,11.93 C 44.03,11.46 40.76,9.59 40.06,9.59 C 39.35,9.59 6.21,9.24 5.62,9.12 z" id="p3371" style="fill:#fcfcfc;fill-opacity:0.62;fill-rule:evenodd;stroke:none;display:inline"/>
<path d="M 5.62,9.12 C 5.03,9 3.4,10.78 3.4,11.25 C 3.4,11.39 3.44,12.88 3.46,14.03 C 4.31,14.5 5.21,14.93 5.21,14.93 L 5.09,11.93 L 8.37,12.62 L 10.31,12.12 L 7.12,9.15 C 6.8,9.14 5.66,9.13 5.62,9.12 z" id="p3444" style="fill:#ffffff;fill-opacity:0.41;fill-rule:evenodd;stroke:none"/>
<path d="M 3.43,13.62 C 3.51,18.14 3.87,35.14 3.87,35.78 C 3.87,36.04 6.1,38.85 6.68,38.96 C 7.27,39.08 40.17,38.71 40.87,38.71 C 41.57,38.71 44.03,36.02 44.03,35.43 C 44.03,34.93 44.03,20.1 44.03,15.18 L 42.12,16.09 L 41.37,19.46 L 40.37,20.96 L 40.25,17.96 L 39,20.09 L 39,17.21 L 34.12,21.34 L 33.5,31.31 L 31.28,31.18 L 27.65,28.06 L 20.18,28.31 L 9.09,17.46 L 8.59,22.34 L 5.96,17.21 L 5.21,13.87 L 3.43,13.62 z" id="p3361" style="fill:#3a3a3a;fill-opacity:0.97;fill-rule:evenodd;stroke:none;display:inline"/>
<path d="M 14.25,22.5 L 14.31,30.81 L 17.43,31.06 L 20.09,28.21 L 14.25,22.5 z" id="p3369" style="fill:#a3a3a3;fill-opacity:0.62;fill-rule:evenodd;stroke:none;display:inline"/>
<path d="M 8.87,32.34 L 6.56,38.9 C 6.6,38.92 6.65,38.96 6.68,38.96 C 7.27,39.08 40.17,38.71 40.87,38.71 C 41.02,38.71 41.24,38.56 41.5,38.37 L 39.09,32.59 L 8.87,32.34 z" id="p3404" style="fill:#484848;fill-opacity:0.33;fill-rule:evenodd;stroke:none;display:inline"/>
<path d="M 28.31,36.73 L 27.71,35.15 L 35.36,38.65" id="p3400" style="opacity:1;fill:none;fill-opacity:1;fill-rule:evenodd;stroke:#ffffff;stroke-width:0.40;stroke-linecap:square;stroke-linejoin:miter;marker:none;stroke-miterlimit:4;stroke-dasharray:none;stroke-dashoffset:0;stroke-opacity:0.51;visibility:visible;display:inline;overflow:visible;enable-background:accumulate"/>
<path d="M 12.9,38.87 L 21.14,34.56" id="p3402" style="fill:none;fill-opacity:1;fill-rule:evenodd;stroke:#ffffff;stroke-width:0.40;stroke-linecap:square;stroke-linejoin:miter;marker:none;stroke-miterlimit:4;stroke-dasharray:none;stroke-dashoffset:0;stroke-opacity:0.51;visibility:visible;display:inline;overflow:visible;enable-background:accumulate"/>
<path d="M 40.83,38.66 L 41.55,35.51 L 43.38,36.53" id="p3406" style="opacity:1;fill:none;fill-opacity:1;fill-rule:evenodd;stroke:#ffffff;stroke-width:0.40;stroke-linecap:square;stroke-linejoin:miter;marker:none;stroke-miterlimit:4;stroke-dasharray:none;stroke-dashoffset:0;stroke-opacity:0.51;visibility:visible;display:inline;overflow:visible;enable-background:accumulate"/>
<path d="M 8.65,12.53 L 8.96,15.43 L 10.21,15.21 L 11.81,15.21 L 11.46,12.65 L 8.65,12.53 z" id="p3410" style="fill:#343434;fill-opacity:0.92;fill-rule:evenodd;stroke:none;display:inline"/>
<path d="M 10.02,11.18 L 9.44,12.63 L 38.62,12.87 L 39.15,12.9 L 39.62,11.18 L 10.02,11.18 z" id="p3446" style="fill:#afafaf;fill-opacity:0.51;fill-rule:evenodd;stroke:none"/>
<path d="M 9.06,9.18 L 8.87,10.06 L 7.59,10.28 L 9.34,11.93 L 9.77,12.65 L 14.87,12.69 L 14.25,11.21 L 17.28,11.12 L 15.84,9.31 C 12.83,9.27 10.84,9.22 9.06,9.18 z" id="p3412" style="fill:#494949;fill-opacity:0.92;fill-rule:evenodd;stroke:none;display:inline"/>
<path d="M 30.93,9.5 L 30.21,11.21 L 32.56,11.21 L 38.46,11.03 L 40.34,9.65 C 40.24,9.62 40.12,9.59 40.06,9.59 C 39.87,9.59 34.46,9.53 30.93,9.5 z M 40.59,9.75 L 40.68,9.87 L 38.65,11.37 L 38.62,11.4 L 38.56,11.4 L 32.34,11.62 L 31.87,12.5 L 39.56,12.62 L 42.03,12.96 L 42.96,11.81 L 42.78,10.9 C 42.05,10.44 41.18,9.97 40.59,9.75 z" id="p3414" style="fill:#4d4d4d;fill-opacity:0.92;fill-rule:evenodd;stroke:none;display:inline"/>
<path d="M 35.81,9.56 L 35.43,14.09 L 36,15.34 L 37.75,15.34 L 41.53,16.09 L 41.93,10.4 C 41.14,9.97 40.36,9.59 40.06,9.59 C 39.97,9.59 36.76,9.57 35.81,9.56 z" id="p3470" style="fill:#a7a7a7;fill-opacity:0.37;fill-rule:evenodd;stroke:none"/>
<path d="M 33.5,15.43 L 35.01,12.98 L 39.1,12.98 L 38.98,16.71 L 37.7,15.54 L 33.5,15.43 z" id="p3408" style="fill:#414141;fill-opacity:0.92;fill-rule:evenodd;stroke:none;display:inline"/>
<path d="M 27.85,35.26 L 31,36.69" id="p3440" style="fill:none;fill-rule:evenodd;stroke:#ffffff;stroke-width:0.40;stroke-linecap:round;stroke-linejoin:miter;stroke-miterlimit:4;stroke-dasharray:none;stroke-opacity:0.7"/>
<path d="M 41.7,35.49 L 43.35,36.54" id="p3442" style="fill:none;fill-rule:evenodd;stroke:#ffffff;stroke-width:0.69;stroke-linecap:round;stroke-linejoin:miter;stroke-miterlimit:4;stroke-dasharray:none;stroke-opacity:0.8"/>
<path d="M 40.75,9.81 L 39.03,12.71 L 40.75,12.93 L 41.15,12.96 L 42.06,10.46 C 41.59,10.2 41.13,9.96 40.75,9.81 z" id="p3448" style="fill:#ffffff;fill-opacity:0.87;fill-rule:evenodd;stroke:none"/>
<path d="M 37.63,15.69 L 39.26,12.65" id="p3459" style="fill:none;fill-rule:evenodd;stroke:#ffffff;stroke-width:0.30;stroke-linecap:butt;stroke-linejoin:miter;stroke-miterlimit:4;stroke-dasharray:none;stroke-opacity:1"/>
<path d="M 37.99,12.85 L 38.58,12.13" id="p3463" style="fill:none;fill-rule:evenodd;stroke:#ffffff;stroke-width:0.5;stroke-linecap:round;stroke-linejoin:miter;stroke-miterlimit:4;stroke-dasharray:none;stroke-opacity:0.79"/>
<path d="M 37.85,11.28 L 38.76,11.09" id="p3475" style="fill:none;fill-opacity:1;fill-rule:evenodd;stroke:#ffffff;stroke-width:0.40;stroke-linecap:round;stroke-linejoin:miter;marker:none;stroke-miterlimit:4;stroke-dasharray:none;stroke-dashoffset:0;stroke-opacity:0.79;visibility:visible;display:inline;overflow:visible;enable-background:accumulate"/>
<path d="M 8.81,9.18 L 8.96,10.12 L 11.5,12.71 L 11.81,15.21 L 14.68,15.25 L 14.93,12.62 L 13.59,9.28 C 11.32,9.24 10.17,9.21 8.81,9.18 z" id="p3477" style="fill:#898989;fill-opacity:0.26;fill-rule:evenodd;stroke:none"/>
<path d="M 7.35,12.11 L 7.35,31.05 L 8.22,31.55 L 9.96,30.68 L 9.71,11.86 L 7.35,12.11 z" id="p3363" style="fill:#ffffff;fill-opacity:0.97;fill-rule:evenodd;stroke:none;display:inline"/>
<path d="M 17.44,30.68 L 18.56,32.05 L 17.81,32.17 L 19.93,34.79 L 27.53,34.91 L 29.4,32.42 L 28.53,32.17 L 29.52,30.93 L 17.44,30.68 z" id="p3365" style="opacity:1;fill:#ffffff;fill-opacity:1;fill-rule:evenodd;stroke:none;marker:none;visibility:visible;display:inline;overflow:visible;enable-background:accumulate"/>
<path d="M 19.56,35.78 L 17.43,38.93 C 22.46,38.9 25.45,38.85 30.15,38.81 L 28.4,35.9 L 19.56,35.78 z" id="p3367" style="opacity:1;fill:#ffffff;fill-opacity:1;fill-rule:evenodd;stroke:none;marker:none;visibility:visible;display:inline;overflow:visible;enable-background:accumulate"/>
<path d="M 3.4,11.23 C 3.4,12.52 3.87,35.07 3.87,35.78 C 3.87,36.04 6.1,38.83 6.69,38.95 C 7.28,39.07 40.16,38.72 40.87,38.72 C 41.57,38.72 44.04,36.01 44.04,35.43 C 44.04,34.84 44.04,12.41 44.04,11.94 C 44.04,11.47 40.75,9.59 40.05,9.59 C 39.34,9.59 6.22,9.23 5.63,9.12 C 5.05,9 3.4,10.76 3.4,11.23 z" id="stroke01" style="fill:none;fill-opacity:1;fill-rule:evenodd;stroke:#0b0b0b;stroke-width:0.5px;stroke-linecap:butt;stroke-linejoin:miter;stroke-opacity:1;display:inline"/>
</g>
</svg>
