<?xml version="1.0" encoding="UTF-8" standalone="no"?>
<!DOCTYPE svg PUBLIC "-//W3C//DTD SVG 1.0//EN" "http://www.w3.org/TR/2001/REC-SVG-20010904/DTD/svg10.dtd">
<svg xmlns:svg="http://www.w3.org/2000/svg" xmlns="http://www.w3.org/2000/svg" version="1.0" width="100%" height="100%" viewBox="0 0 48 48" id="_white06">
<defs id="defs2385"/>
<g id="white06" style="display:inline">
<path d="M 2.72,13.99 L 5.55,8.9 L 40.92,8.78 C 40.92,8.78 43.76,12.27 44.71,13.28 C 45.65,14.28 45.77,15.29 44.65,16.41 C 43.52,17.54 25.31,39.6 25.31,39.6 C 25.31,39.6 3.9,17.66 3.01,16.65 C 2.12,15.64 2.42,14.64 2.72,13.99 z" id="p2465" style="fill:#bcbcbc;fill-opacity:1;fill-rule:evenodd;stroke:none"/>
<path d="M 30.78,8.81 L 23.56,8.84 L 21.37,15.34 L 24,30.62 L 29.21,28.96 L 34.31,15.59 L 30.78,8.81 z" id="p3538" style="fill:#c2c2c2;fill-opacity:0.72;fill-rule:evenodd;stroke:none"/>
<path d="M 34.78,8.81 L 6.81,8.9 L 7.34,15.25 L 22.15,15.37 L 27.18,12 L 34.78,8.81 z" id="p3641" style="fill:#9a9a9a;fill-opacity:0.43;fill-rule:evenodd;stroke:none;display:inline"/>
<path d="M 13.84,27.81 C 19.57,33.69 25.12,39.4 25.21,39.5 C 26.3,36.82 28.33,31.66 28.93,28.96 C 27.27,28.96 19.09,29.21 13.84,27.81 z" id="p3536" style="fill:#efefef;fill-opacity:1;fill-rule:evenodd;stroke:none"/>
<path d="M 4.34,11.09 L 2.71,14 C 2.56,14.33 2.42,14.76 2.43,15.25 L 4.81,15.34 L 4.34,11.09 z" id="p3540" style="fill:#e6e6e6;fill-opacity:0.77;fill-rule:evenodd;stroke:none"/>
<path d="M 42.45,15.88 L 34.18,27.04 L 29.49,28.7 L 30.18,26.49 L 28.25,26.63 L 22.6,23.05 L 26.74,21.25 L 25.36,20.43 L 28.12,16.15 L 27.29,14.77 L 30.18,12.98 L 29.77,11.74 L 32.39,11.74 L 34.46,15.74 L 42.45,15.88 z" id="p3542" style="fill:#8b8b8b;fill-opacity:0.68;fill-rule:evenodd;stroke:none"/>
<path d="M 19.68,8.84 L 17.65,8.87 L 12.12,11.46 L 11.31,11.46 L 11.62,8.87 L 10.43,8.87 L 9.5,11.46 L 14.34,11.87 L 13.5,13.4 L 12.12,14.21 L 12.4,14.9 L 18.46,14.9 L 19.68,8.84 z" id="p3544" style="fill:#323232;fill-opacity:0.65;fill-rule:evenodd;stroke:none"/>
<path d="M 5.25,16.03 L 4.4,18.09 C 5.23,18.96 7.82,21.59 10.31,24.15 L 16.68,25.81 L 13.93,22.9 L 11.71,22.37 L 12.28,20.84 L 9.37,16.03 L 5.25,16.03 z" id="p3546" style="fill:#d0d0d0;fill-opacity:0.65;fill-rule:evenodd;stroke:none"/>
<path d="M 12.93,15.25 L 22.2,20.04 L 21.4,14.93 L 12.93,15.25 z" id="p3570" style="fill:#e6e6e6;fill-opacity:0.46;fill-rule:evenodd;stroke:none;display:inline"/>
<path d="M 23.62,8.84 L 22.03,13.5 L 22.84,14.93 L 27.62,15.09 L 30.5,13.18 L 29.87,11.59 L 27.15,11.59 L 26.56,8.84 L 23.62,8.84 z" id="p3572" style="fill:#dedede;fill-opacity:0.56;fill-rule:evenodd;stroke:none;display:inline"/>
<path d="M 37.21,8.78 L 35.5,8.81 L 36.25,11.59 L 35.96,11.62 L 37.37,13.34 L 38.81,13.03 L 38.65,11.75 L 37.21,8.78 z M 35.93,11.62 L 32.59,11.9 L 34.03,14.62 L 36.75,14.46 L 35.93,11.62 z" id="p3574" style="fill:#d8d8d8;fill-opacity:0.56;fill-rule:evenodd;stroke:none;display:inline"/>
<path d="M 4.84,18.53 C 5.81,19.54 8.12,21.92 10.59,24.46 C 19.86,26.08 29.95,26.5 36.06,26.62 C 38.28,23.94 40.19,21.63 41.78,19.75 C 28.24,21.9 13.84,20.28 4.84,18.53 z" id="p3639" style="fill:#9a9a9a;fill-opacity:0.43;fill-rule:evenodd;stroke:none;display:inline"/>
<path d="M 8,18.78 L 9.09,21.15 L 7.37,21.15 C 8.29,22.1 9.07,22.9 10.31,24.18 L 16.43,25.96 L 9.75,21 L 8,18.78 z" id="p3576" style="fill:#e6e6e6;fill-opacity:0.65;fill-rule:evenodd;stroke:none;display:inline"/>
<path d="M 17.73,15.57 L 18.84,23.56 L 18.2,24.35 L 23.8,28.19 L 24.11,26.75 L 23,25.95 L 21.4,15.25 L 17.73,15.57 z" id="p3578" style="fill:#f0f0f0;fill-opacity:0.46;fill-rule:evenodd;stroke:none;display:inline"/>
<path d="M 27.47,19.88 L 29.87,17.17 L 30.5,19.88 L 32.58,19.4 L 32.26,16.05 L 34.18,16.21 L 30.5,25.63 L 26.19,23.56 L 29.87,21.16 L 30.18,20.04 L 27.47,19.88 z" id="p3580" style="fill:#e6e6e6;fill-opacity:0.52;fill-rule:evenodd;stroke:none;display:inline"/>
<path d="M 35.64,12.46 L 31.11,24.06 L 36.9,22.93 L 39.03,19.65 L 42.31,18.34 L 44.75,13.34 C 44.73,13.32 44.73,13.29 44.71,13.28 C 44.56,13.11 44.2,12.68 43.96,12.4 L 35.64,12.46 z" id="p3599" style="fill:#e6e6e6;fill-opacity:0.13;fill-rule:evenodd;stroke:none;display:inline"/>
<path d="M 36.03,15.78 L 37.31,17.93 L 39.81,16.34 L 39.96,19.25 L 42.46,15.87 L 36.03,15.78 z" id="p3597" style="fill:#5f5f5f;fill-opacity:1;fill-rule:evenodd;stroke:none;display:inline"/>
<path d="M 26.89,29.14 L 26.76,28.22 L 29.93,28.09 L 28.61,29.67 L 26.89,29.14 z" id="p3601" style="fill:#6c6c6c;fill-opacity:1;fill-rule:evenodd;stroke:none;display:inline"/>
<path d="M 10.28,24.12 C 11.04,24.87 11.71,25.63 12.61,26.53 L 16.07,28.3 L 16.09,29.93 L 19.25,30.59 L 15.09,25.41 L 10.28,24.12 z" id="p3605" style="fill:#9a9a9a;fill-opacity:0.77;fill-rule:evenodd;stroke:none;display:inline"/>
<path d="M 33.03,19.15 L 31.81,22.34 L 34.25,21.59 L 35.03,20.31 L 33.03,19.15 z" id="p3627" style="fill:#5f5f5f;fill-opacity:1;fill-rule:evenodd;stroke:none;display:inline"/>
<path d="M 32.21,25.96 L 30.03,27.09 L 31.78,28.25 L 34.46,28.56 C 34.99,27.93 35.38,27.47 35.9,26.84 L 35.71,26.65 L 32.21,25.96 z" id="p3629" style="fill:#f2f2f2;fill-opacity:0.58;fill-rule:evenodd;stroke:none;display:inline"/>
<path d="M 2.88,14.99 L 18.42,15.47" id="p3651" style="fill:none;fill-rule:evenodd;stroke:#f0f0f0;stroke-width:1px;stroke-linecap:round;stroke-linejoin:miter;stroke-opacity:0.62"/>
<path d="M 32.26,15.38 C 32.26,15.38 43.72,15.8 44.84,15.38" id="p3653" style="fill:none;fill-rule:evenodd;stroke:#efefef;stroke-width:1px;stroke-linecap:round;stroke-linejoin:miter;stroke-opacity:0.4"/>
<path d="M 38.37,15.86 L 40.88,15.87" id="p3655" style="fill:none;fill-rule:evenodd;stroke:#8e8e8e;stroke-width:1;stroke-linecap:round;stroke-linejoin:miter;stroke-miterlimit:4;stroke-dasharray:none;stroke-opacity:0.98"/>
<path d="M 2.72,13.99 L 5.55,8.9 L 40.92,8.78 C 40.92,8.78 43.76,12.27 44.71,13.28 C 45.65,14.28 45.77,15.29 44.65,16.41 C 43.52,17.54 25.31,39.6 25.31,39.6 C 25.31,39.6 3.9,17.66 3.01,16.65 C 2.12,15.64 2.42,14.64 2.72,13.99 z" id="stroke01" style="fill:none;fill-opacity:1;fill-rule:evenodd;stroke:#272727;stroke-width:0.5;stroke-linecap:butt;stroke-linejoin:round;stroke-miterlimit:4;stroke-dasharray:none;stroke-opacity:1"/>
</g>
</svg>
