<?xml version="1.0" encoding="UTF-8" standalone="no"?>
<!DOCTYPE svg PUBLIC "-//W3C//DTD SVG 1.0//EN" "http://www.w3.org/TR/2001/REC-SVG-20010904/DTD/svg10.dtd">
<svg xmlns:svg="http://www.w3.org/2000/svg" xmlns="http://www.w3.org/2000/svg" version="1.0" width="100%" height="100%" viewBox="0 0 48 48" id="_bookOld04" style="display:inline">
<defs id="defs2385"/>
<g id="bookOld04" style="opacity:1;display:inline">
<path d="M 3.98,21.82 C 3.90,21.41 4.07,19.75 4.07,19.75 L 3.48,19.08 C 3.48,19.08 3.48,18.58 3.24,18.25 C 2.99,17.92 4.07,17.84 4.07,17.84 L 4.07,17.17 C 4.07,17.17 3.73,17.25 3.73,16.92 C 3.73,16.59 4.23,16.01 4.23,15.68 C 4.23,15.34 4.07,14.10 4.07,13.27 C 4.07,12.44 3.98,10.69 4.40,10.44 C 4.81,10.19 6.81,8.95 7.47,8.78 C 8.14,8.61 16.36,6.29 16.86,5.87 C 17.36,5.46 18.61,5.87 18.77,5.46 C 18.94,5.04 21.43,4.38 22.01,4.29 C 22.59,4.21 23.67,3.96 24.75,4.38 C 25.83,4.79 34.22,12.44 34.89,12.93 C 35.55,13.43 40.21,17.67 41.29,18.25 C 42.37,18.83 44.61,20.33 44.69,20.49 C 44.78,20.66 44.94,21.99 44.86,22.57 C 44.78,23.15 44.44,24.15 44.44,24.90 C 44.44,25.65 44.53,27.31 44.19,28.14 C 43.86,28.97 43.20,32.04 43.20,32.46 C 43.20,32.87 43.28,33.46 42.87,33.79 C 42.45,34.12 41.79,34.62 41.79,34.62 C 41.79,34.62 23.59,42.35 23.09,42.10 C 22.59,41.85 20.68,39.69 20.68,39.69 L 20.02,40.10 L 18.94,39.60 L 18.36,36.78 C 18.36,36.78 10.38,29.14 9.05,27.81 C 7.72,26.48 4.40,22.49 3.98,21.82 z" id="p2516" style="fill:#ede5da;fill-opacity:1;fill-rule:evenodd;stroke:none;"/>
<path d="M 18.90,26 L 19.71,29.37 L 17.90,28.65 L 16.34,31.5 L 16.90,35.37 C 17.32,35.77 18.37,36.78 18.37,36.78 L 18.93,39.59 L 20.03,40.09 L 20.68,39.68 C 20.68,39.68 22.59,41.84 23.09,42.09 C 23.16,42.12 23.60,41.97 24.25,41.75 C 24.38,39.70 24.34,37.06 24.34,37.06 L 23.96,30.78 L 21.84,28.28 L 18.90,26 z" id="p3435" style="fill:#b4a461;fill-opacity:0.83;fill-rule:evenodd;stroke:none;display:inline"/>
<path d="M 17.72,32.56 L 23.26,37.46" id="p3527" style="fill:none;fill-rule:evenodd;stroke:#382a23;stroke-width:0.40;stroke-linecap:butt;stroke-linejoin:miter;stroke-miterlimit:4;stroke-dasharray:none;stroke-opacity:1"/>
<path d="M 19.19,26.68 L 23.74,30.85" id="p3521" style="fill:none;fill-rule:evenodd;stroke:#110e0a;stroke-width:0.30;stroke-linecap:butt;stroke-linejoin:miter;stroke-miterlimit:4;stroke-dasharray:none;stroke-opacity:0.74"/>
<path d="M 20.64,38.47 L 23.05,40.49" id="p3535" style="fill:none;fill-rule:evenodd;stroke:#191714;stroke-width:0.40;stroke-linecap:butt;stroke-linejoin:miter;stroke-miterlimit:4;stroke-dasharray:none;stroke-opacity:1"/>
<path d="M 17.43,30.62 L 15.68,34.18 C 16.86,35.31 18.37,36.78 18.37,36.78 L 18.93,39.59 L 20.03,40.09 L 20.68,39.68 C 20.68,39.68 21.39,40.47 22.06,41.15 L 22.71,39.93 C 22.71,39.93 21.69,36.70 22.06,35.53 C 22.22,35.00 22.13,34.66 22.33,34.71 L 17.43,30.62 z" id="p3437" style="fill:#62582e;fill-opacity:0.67;fill-rule:evenodd;stroke:none;display:inline"/>
<path d="M 44.78,21.03 C 44.56,21.32 44.23,21.62 43.78,21.75 C 42.61,22.08 33.80,26.48 32.56,26.81 C 31.31,27.14 24.99,28.87 24.75,29.37 C 23.50,30.37 23.59,32.37 23.59,33.12 C 23.59,33.87 23.68,36.68 23.68,36.68 L 23.09,37.78 C 23.09,37.78 23.16,38.85 23.25,39.18 C 23.33,39.51 23,40.43 23,40.43 L 24.25,41.78 C 28.28,40.36 41.78,34.62 41.78,34.62 C 41.78,34.62 42.45,34.11 42.87,33.78 C 43.29,33.44 43.18,32.88 43.18,32.46 C 43.18,32.05 43.85,28.98 44.18,28.15 C 44.51,27.32 44.43,25.65 44.43,24.90 C 44.43,24.15 44.79,23.14 44.87,22.56 C 44.93,22.15 44.85,21.51 44.78,21.03 z" id="p3291" style="fill:#584a2d;fill-opacity:1;fill-rule:evenodd;stroke:none;display:inline"/>
<path d="M 20.66,31.61 L 23.66,34.27" id="p3529" style="fill:none;fill-rule:evenodd;stroke:#191611;stroke-width:0.2;stroke-linecap:butt;stroke-linejoin:miter;stroke-miterlimit:4;stroke-dasharray:none;stroke-opacity:0.85"/>
<path d="M 23.18,4.15 C 22.70,4.17 22.32,4.27 22.03,4.31 C 21.44,4.39 18.94,5.05 18.78,5.46 C 18.61,5.88 17.37,5.45 16.87,5.87 C 16.37,6.29 8.13,8.61 7.46,8.78 C 7.26,8.83 6.93,9.02 6.56,9.21 C 6.41,10.09 6.79,10.93 7.31,11.37 C 7.89,11.87 16.36,21.33 16.78,21.5 C 17.19,21.66 21.53,26.63 22.28,26.96 C 23.02,27.30 25.68,27.90 25.68,27.90 C 25.68,27.90 27.92,27.88 29.25,27.21 C 30.57,26.55 31.41,25.25 31.75,25.25 C 32.08,25.25 32.97,25.81 33.71,25.56 C 34.46,25.31 36.37,24 36.37,24 L 43.75,19.78 C 42.98,19.25 41.93,18.60 41.28,18.25 C 40.20,17.66 35.57,13.43 34.90,12.93 C 34.24,12.43 25.83,4.79 24.75,4.37 C 24.20,4.16 23.66,4.13 23.18,4.15 z" id="p3293" style="fill:#6f6c67;fill-opacity:1;fill-rule:evenodd;stroke:none;display:inline"/>
<path d="M 21.19,30.89 L 23.64,32.96" id="p3531" style="fill:none;fill-rule:evenodd;stroke:#2d251c;stroke-width:0.40;stroke-linecap:butt;stroke-linejoin:miter;stroke-miterlimit:4;stroke-dasharray:none;stroke-opacity:0.90"/>
<path d="M 4.18,10.96 C 4.05,11.61 4.06,12.68 4.06,13.28 C 4.06,14.11 4.25,15.35 4.25,15.68 C 4.25,16.01 3.74,16.60 3.75,16.93 C 3.75,17.26 4.06,17.18 4.06,17.18 L 4.06,17.84 C 4.06,17.84 3.00,17.91 3.25,18.25 C 3.49,18.58 3.50,19.09 3.5,19.09 L 4.06,19.75 C 4.06,19.75 3.91,21.42 4,21.84 C 4.41,22.50 7.73,26.48 9.06,27.81 C 10.39,29.14 18.37,36.78 18.37,36.78 L 18.93,39.59 L 20.03,40.09 L 20.68,39.68 C 20.68,39.68 20.80,39.79 20.81,39.81 L 20.93,39.53 L 21.34,38.03 C 21.34,38.03 19.19,34.12 18.78,33.37 C 18.36,32.62 17.43,31.12 17.43,31.12 L 22.5,35.46 L 22.84,30.12 C 22.84,30.12 22.17,29.22 21.59,28.81 C 21.01,28.39 19.85,26.47 19.18,25.56 C 18.52,24.64 10.37,17.25 10.37,17.25 C 10.37,17.25 6.45,13.07 4.18,10.96 z" id="p3295" style="fill:#5c5950;fill-opacity:1;fill-rule:evenodd;stroke:none;display:inline"/>
<path d="M 19.30,36.33 L 23.30,39.50" id="p3533" style="fill:none;fill-rule:evenodd;stroke:#20130a;stroke-width:0.2;stroke-linecap:butt;stroke-linejoin:miter;stroke-miterlimit:4;stroke-dasharray:none;stroke-opacity:0.78"/>
<path d="M 4.18,10.96 C 4.05,11.61 4.06,12.68 4.06,13.28 C 4.06,14.11 4.25,15.35 4.25,15.68 C 4.25,16.01 3.74,16.60 3.75,16.93 C 3.75,17.26 4.06,17.18 4.06,17.18 L 4.06,17.84 C 4.06,17.84 3.00,17.91 3.25,18.25 C 3.49,18.58 3.50,19.09 3.5,19.09 L 4.06,19.75 C 4.06,19.75 3.91,21.42 4,21.84 C 4.20,22.17 5.12,23.31 6.15,24.53 C 6.33,21.76 6.70,15.99 6.96,14.78 C 7.04,14.41 7.05,14.07 6.96,13.71 C 6.96,13.71 6.97,13.69 6.96,13.68 C 5.99,12.70 4.98,11.71 4.18,10.96 z" id="p3407" style="fill:#918d89;fill-opacity:0.42;fill-rule:evenodd;stroke:none;display:inline"/>
<path d="M 3.90,21.66 C 3.90,21.66 5.56,22.49 6.39,23.15 C 7.22,23.82 9.88,26.81 9.88,26.81 C 9.88,26.81 13.54,30.55 14.04,30.88 C 14.53,31.21 17.77,34.37 17.77,34.37" id="p3316" style="fill:none;fill-rule:evenodd;stroke:#c8bd84;stroke-width:0.30;stroke-linecap:square;stroke-linejoin:miter;stroke-miterlimit:4;stroke-dasharray:none;stroke-opacity:0.65;display:inline"/>
<path d="M 9.06,15.87 C 8.05,17.35 8.06,18.15 8.06,18.15 L 11.12,20.78 C 11.12,20.78 11.87,21.73 11.87,22.28 C 11.87,22.82 11.43,25.03 11.43,25.03 L 13.06,26.53 L 11.87,30.5 C 14.68,33.21 18.37,36.78 18.37,36.78 L 18.93,39.59 L 20.03,40.09 L 20.68,39.68 C 20.68,39.68 20.80,39.79 20.81,39.81 L 20.93,39.53 L 21.34,38.03 C 21.34,38.03 19.19,34.12 18.78,33.37 C 18.36,32.62 17.43,31.12 17.43,31.12 L 22.5,35.46 L 22.71,32.31 C 20.97,29.99 19.08,26.50 17.93,24.28 C 15.50,21.91 10.37,17.25 10.37,17.25 C 10.37,17.25 9.59,16.43 9.06,15.87 z" id="p3405" style="fill:#2b3d3f;fill-opacity:0.26;fill-rule:evenodd;stroke:none;display:inline"/>
<path d="M 19.43,25.93 C 17.67,27.10 14.67,29.34 14.59,31.12 C 14.57,31.58 14.50,32.24 14.40,32.96 C 16.45,34.93 18.37,36.78 18.37,36.78 L 18.93,39.59 L 20.03,40.09 L 20.68,39.68 C 20.68,39.68 20.80,39.79 20.81,39.81 L 20.93,39.53 L 21.34,38.03 C 21.34,38.03 19.19,34.12 18.78,33.37 C 18.36,32.62 17.43,31.12 17.43,31.12 L 22.5,35.46 L 22.84,30.12 C 22.84,30.12 22.17,29.22 21.59,28.81 C 21.07,28.43 20.11,26.91 19.43,25.93 z" id="p3413" style="fill:#1c282a;fill-opacity:0.26;fill-rule:evenodd;stroke:none;display:inline"/>
<path d="M 3.46,17.84 L 3.46,18.46 C 3.49,18.47 3.54,18.50 3.59,18.53 C 3.69,18.59 3.83,18.68 4,18.81 C 4.33,19.06 4.76,19.42 5.28,19.87 C 6.30,20.76 7.60,21.96 8.87,23.15 C 11.40,25.54 13.84,27.93 13.84,27.93 L 16.93,31.12 C 17.27,32.75 18.37,36.78 18.37,36.78 L 18.93,39.59 L 20.03,40.09 L 20.59,39.75 C 20.97,39.99 21.15,38.59 21.28,38.07 C 21.36,37.76 19.95,35.46 19.95,35.46 C 19.95,35.46 18.81,33.56 18.25,32.71 L 16.68,30.21 L 14.25,27.53 L 14.25,27.5 C 14.25,27.5 11.82,25.11 9.28,22.71 C 8.01,21.52 6.72,20.33 5.68,19.43 C 5.17,18.98 4.69,18.58 4.34,18.31 C 4.16,18.17 4.00,18.07 3.87,18 C 3.74,17.92 3.66,17.84 3.46,17.84 z" id="p3300" style="fill:#cdba8a;fill-opacity:0.87;fill-rule:evenodd;stroke:none;display:inline"/>
<path d="M 39.25,16.70 C 38.87,17.60 39.46,18.58 39.87,18.92 C 40.29,19.25 41.54,20.83 41.54,20.83" id="p3330" style="opacity:1;fill:none;fill-opacity:1;fill-rule:evenodd;stroke:#decc7f;stroke-width:0.40;stroke-linecap:butt;stroke-linejoin:miter;marker:none;stroke-miterlimit:4;stroke-dasharray:none;stroke-dashoffset:0;stroke-opacity:0.38;visibility:visible;display:inline;overflow:visible;enable-background:accumulate"/>
<path d="M 7.14,17.42 L 12.29,21.99 L 17.11,26.89" id="p3314" style="fill:none;fill-rule:evenodd;stroke:#c3b369;stroke-width:0.2;stroke-linecap:butt;stroke-linejoin:miter;stroke-miterlimit:4;stroke-dasharray:none;stroke-opacity:0.33;display:inline"/>
<path d="M 43.75,29.71 L 40.46,31.31 C 40.46,31.31 30.69,35.38 23.12,37.75 L 23.09,37.78 C 23.09,37.78 23.16,38.85 23.25,39.18 C 23.31,39.43 23.15,39.91 23.06,40.18 C 23.67,39.95 33.72,36.19 35.65,35.46 C 37.31,34.84 41.62,32.76 43.28,31.96 C 43.29,31.91 43.30,31.80 43.31,31.75 C 43.41,31.21 43.55,30.48 43.71,29.81 C 43.72,29.77 43.74,29.75 43.75,29.71 z" id="p3324" style="fill:#453a23;fill-opacity:0.77;fill-rule:evenodd;stroke:none;display:inline"/>
<path d="M 44.43,26 C 43.16,26.57 35.00,30.17 34.34,30.34 C 33.64,30.51 24.20,34.12 23.62,34.34 C 23.65,35.39 23.68,36.68 23.68,36.68 L 23.09,37.78 C 23.09,37.78 23.16,38.85 23.25,39.18 C 23.33,39.51 23,40.43 23,40.43 L 24.25,41.78 C 28.28,40.36 41.78,34.62 41.78,34.62 C 41.78,34.62 42.45,34.11 42.87,33.78 C 43.29,33.44 43.18,32.88 43.18,32.46 C 43.18,32.05 43.85,28.98 44.18,28.15 C 44.40,27.61 44.43,26.77 44.43,26 z" id="p3400" style="fill:#302918;fill-opacity:0.43;fill-rule:evenodd;stroke:none;"/>
<path d="M 19.25,5.12 C 18.99,5.24 18.82,5.36 18.78,5.46 C 18.61,5.88 17.37,5.45 16.87,5.87 C 16.76,5.96 16.24,6.14 15.56,6.37 C 17.89,8.03 22.28,11.08 23.62,11.40 C 25.47,11.84 29.31,15.77 29.96,17.40 C 30.31,18.27 32.15,21.97 33.90,25.46 C 34.73,25.11 36.37,24 36.37,24 L 43.75,19.78 C 42.98,19.25 41.93,18.60 41.28,18.25 C 40.20,17.66 35.57,13.43 34.90,12.93 C 34.43,12.58 30.13,8.73 27.25,6.31 L 19.25,5.12 z" id="p3409" style="fill:#64615d;fill-opacity:0.4;fill-rule:evenodd;stroke:none;display:inline"/>
<path d="M 41.78,18.53 C 36.61,18.61 27.88,18.86 25.37,19.46 C 22.98,20.04 19.60,21.34 17.53,22.18 C 18.90,23.58 21.69,26.70 22.28,26.96 C 23.02,27.30 25.68,27.90 25.68,27.90 C 25.68,27.90 27.92,27.88 29.25,27.21 C 30.57,26.55 31.41,25.25 31.75,25.25 C 32.08,25.25 32.97,25.81 33.71,25.56 C 34.46,25.31 36.37,24 36.37,24 L 43.75,19.78 C 43.14,19.36 42.40,18.89 41.78,18.53 z" id="p3411" style="fill:#676b6e;fill-opacity:0.57;fill-rule:evenodd;stroke:none;display:inline"/>
<path d="M 25.17,6.20 C 27.00,7.87 28.99,9.86 29.57,10.03 C 30.15,10.19 30.98,10.19 31.40,10.69 C 31.82,11.19 33.73,13.85 34.72,14.68 C 35.72,15.51 36.55,17.01 37.38,17.01 C 38.21,17.01 38.05,17.34 38.21,17.75 C 38.38,18.17 39.21,19.33 39.21,19.33" id="p3328" style="opacity:1;fill:none;fill-opacity:1;fill-rule:evenodd;stroke:#c3b369;stroke-width:0.2;stroke-linecap:butt;stroke-linejoin:miter;marker:none;stroke-miterlimit:4;stroke-dasharray:none;stroke-dashoffset:0;stroke-opacity:0.55;visibility:visible;display:inline;overflow:visible;enable-background:accumulate"/>
<path d="M 8.78,8.40 C 8.44,8.50 7.56,8.75 7.46,8.78 C 7.26,8.83 6.93,9.02 6.56,9.21 C 6.41,10.09 6.79,10.93 7.31,11.37 C 7.83,11.81 14.57,19.33 16.34,21.09 C 18.55,19.64 20.99,17.79 21.62,16.96 C 22.79,15.42 28.30,14.86 29.84,13.25 C 31.38,11.63 30.27,10.76 29.03,10.25 C 27.93,9.79 15.25,8.75 8.78,8.40 z" id="p3439" style="fill:#6b777a;fill-opacity:0.37;fill-rule:evenodd;stroke:none;display:inline"/>
<path d="M 23.18,4.15 C 22.70,4.17 22.32,4.27 22.03,4.31 C 21.44,4.39 18.94,5.05 18.78,5.46 C 18.61,5.88 17.37,5.45 16.87,5.87 C 16.37,6.29 8.13,8.61 7.46,8.78 C 7.24,8.83 6.87,9.03 6.46,9.25 C 8.11,9.84 9.32,9.35 11.87,8.43 C 14.86,7.35 20.34,5.71 21.09,5.71 C 21.62,5.71 24.08,5.32 25.75,5.06 C 25.29,4.71 24.91,4.43 24.75,4.37 C 24.20,4.16 23.66,4.13 23.18,4.15 z" id="p3308" style="fill:#cdba8a;fill-opacity:0.30;fill-rule:evenodd;stroke:none;display:inline"/>
<path d="M 21.51,10.69 C 23.84,12.85 25.00,15.01 25.09,15.43 C 25.17,15.84 25.92,16.09 26.25,16.34 C 26.58,16.59 27.00,17.42 27.00,17.42 C 27.00,17.42 28.08,17.84 28.24,18.17 C 28.41,18.50 29.49,21.99 29.90,22.24 C 30.32,22.49 31.48,23.57 31.48,23.57" id="p3310" style="opacity:1;fill:none;fill-opacity:1;fill-rule:evenodd;stroke:#c3b369;stroke-width:0.2;stroke-linecap:butt;stroke-linejoin:miter;marker:none;stroke-miterlimit:4;stroke-dasharray:none;stroke-dashoffset:0;stroke-opacity:0.55;visibility:visible;display:inline;overflow:visible;enable-background:accumulate"/>
<path d="M 35.14,24.57 C 34.72,23.82 34.31,23.90 34.72,23.49 C 35.14,23.07 36.63,21.82 36.63,21.82 L 36.55,21.08 C 36.55,21.08 37.63,20.66 37.63,20.16 C 37.63,19.66 38.46,19.83 38.46,19.83 L 39.79,18.50 C 39.79,18.50 40.84,18.82 41.09,17.99" id="p3312" style="opacity:1;fill:none;fill-opacity:1;fill-rule:evenodd;stroke:#8f8f86;stroke-width:0.5;stroke-linecap:butt;stroke-linejoin:miter;marker:none;stroke-miterlimit:4;stroke-dasharray:none;stroke-dashoffset:0;stroke-opacity:0.93;visibility:visible;display:inline;overflow:visible;enable-background:accumulate"/>
<path d="M 35.78,17.71 C 36.88,16.76 37.98,15.58 37.98,15.58" id="p3445" style="fill:none;fill-rule:evenodd;stroke:#91895e;stroke-width:0.2;stroke-linecap:butt;stroke-linejoin:miter;stroke-miterlimit:4;stroke-dasharray:none;stroke-opacity:1;display:inline"/>
<path d="M 42.96,19.31 C 42.67,19.38 41.12,19.70 40.68,19.78 C 40.24,19.85 39.53,20.56 39.53,20.56 C 39.53,20.56 40.03,20.58 40.03,20.87 C 40.03,21.16 38.63,21.30 38.34,21.37 C 38.05,21.44 35.05,23.72 34.90,23.87 C 34.75,24.02 35.18,24.46 35.18,24.46 C 35.18,24.46 34.68,24.46 33.43,25.34 L 32.93,25.40 L 32.34,24.96 L 31.31,24.81 L 30.71,24.96 L 31.09,25.93 L 26.09,27.75 C 26.09,27.75 25.53,27.10 25.09,27.03 C 24.65,26.95 24.06,27.46 24.06,27.46 L 23.46,27.09 C 23.46,27.09 22.50,26.96 23.09,27.62 C 23.68,28.28 25.08,28.39 25.53,28.34 C 28.17,28.05 34.84,25.18 34.84,25.18 C 34.84,25.18 40.84,22.68 41.06,22.68 C 41.28,22.68 42.03,21.46 42.03,21.46 C 42.03,21.46 42.39,21.46 42.68,21.46 C 42.98,21.46 43.12,20.29 43.78,20 C 43.82,19.97 43.86,19.93 43.90,19.90 C 43.62,19.71 43.34,19.53 43,19.31 C 42.99,19.31 42.97,19.31 42.96,19.31 z" id="p3447" style="fill:#c9c0ba;fill-opacity:1;fill-rule:evenodd;stroke:none;display:inline"/>
<path d="M 4.25,10.68 C 4.11,11.02 4.09,11.60 4.09,12.18 C 5.48,12.50 6.31,12.83 6.31,13.15 C 6.31,13.52 6.60,14.03 6.96,14.40 C 7.33,14.77 9.37,16.40 9.37,16.40 L 10.18,16.90 C 10.18,16.90 13.28,20.26 13.5,20.56 C 13.71,20.85 18.03,24.68 18.03,24.68 L 18.18,24.15 L 14.31,20.34 L 8.59,15 L 4.25,10.68 z" id="p3449" style="fill:#bebb9e;fill-opacity:1;fill-rule:evenodd;stroke:none;display:inline"/>
<path d="M 10.26,7.81 C 11.43,9.86 13.05,11.92 13.27,12.21 C 13.49,12.50 16.79,16.02 17.23,16.39 C 17.67,16.76 21.19,20.06 21.55,20.57 C 21.92,21.08 23.97,23.50 23.97,23.50" id="p3441" style="opacity:1;fill:none;fill-opacity:1;fill-rule:evenodd;stroke:#c3b369;stroke-width:0.2;stroke-linecap:butt;stroke-linejoin:miter;marker:none;stroke-miterlimit:4;stroke-dasharray:none;stroke-dashoffset:0;stroke-opacity:0.55;visibility:visible;display:inline;overflow:visible;enable-background:accumulate"/>
<path d="M 20.53,17.64 C 22.65,18.37 23.68,19.32 23.68,19.32 L 24.34,20.57" id="p3443" style="opacity:1;fill:none;fill-opacity:1;fill-rule:evenodd;stroke:#c3b369;stroke-width:0.2;stroke-linecap:butt;stroke-linejoin:miter;marker:none;stroke-miterlimit:4;stroke-dasharray:none;stroke-dashoffset:0;stroke-opacity:0.22;visibility:visible;display:inline;overflow:visible;enable-background:accumulate"/>
<path d="M 5.83,9.57 C 5.83,10.41 7.22,11.91 7.22,11.91 C 7.22,11.91 10.61,15.91 10.84,16.02 C 11.06,16.14 11.50,16.47 11.50,16.47 L 15.40,20.69 L 20.23,25.53 C 20.23,25.53 22.68,27.76 23.01,27.92 C 23.35,28.09 23.79,28.87 24.07,28.81 C 24.35,28.76 27.52,27.87 27.52,27.87 L 35.41,24.98 L 41.36,22.42 L 42.09,21.47 L 42.81,21.42 L 43.70,19.80" id="p3474" style="fill:none;fill-opacity:0.67;fill-rule:evenodd;stroke:#8b8f8f;stroke-width:0.2;stroke-linecap:butt;stroke-linejoin:miter;stroke-miterlimit:4;stroke-dasharray:none;stroke-opacity:1"/>
<path d="M 21.88,27.01 C 22.56,27.16 23.68,28.28 24.02,28.31 C 24.36,28.34 25.02,28.22 25.30,28.13 C 25.58,28.03 31.72,25.92 31.72,25.92 C 31.72,25.92 32.03,25.43 32.31,25.36 C 32.59,25.30 33.00,25.46 33.21,25.46 C 33.43,25.46 37.37,23.50 37.74,23.25 C 38.12,23.00 43.64,19.68 43.64,19.68" id="p3476" style="opacity:1;fill:none;fill-opacity:0.67;fill-rule:evenodd;stroke:#5e6262;stroke-width:0.2;stroke-linecap:butt;stroke-linejoin:miter;marker:none;stroke-miterlimit:4;stroke-dasharray:none;stroke-dashoffset:0;stroke-opacity:1;visibility:visible;display:inline;overflow:visible;enable-background:accumulate"/>
<path d="M 21.47,26.52 C 21.99,25.39 25.08,22.08 25.08,22.08" id="p3478" style="fill:none;fill-rule:evenodd;stroke:#8d8b59;stroke-width:0.1;stroke-linecap:butt;stroke-linejoin:miter;stroke-miterlimit:4;stroke-dasharray:none;stroke-opacity:0.68"/>
<path d="M 30.46,27.40 C 28.15,28.05 24.93,28.99 24.75,29.37 C 23.50,30.37 23.59,32.37 23.59,33.12 C 23.59,33.87 23.68,36.68 23.68,36.68 L 23.09,37.78 C 23.09,37.78 23.16,38.85 23.25,39.18 C 23.33,39.51 23,40.43 23,40.43 L 24.25,41.78 C 27.20,40.74 33.82,37.97 37.90,36.25 C 31.19,36.83 30.40,33.12 30.40,33.12 C 30.40,33.12 30.11,30.38 30.46,27.40 z" id="p3503" style="fill:#37311a;fill-opacity:0.24;fill-rule:evenodd;stroke:none;"/>
<path d="M 23.59,36.84 C 26.16,36.09 33.60,33.28 34.51,32.90 C 35.42,32.52 40.96,29.71 41.49,29.56 C 42.02,29.41 44.14,28.65 44.14,28.65" id="p3509" style="fill:none;fill-rule:evenodd;stroke:#0f0c07;stroke-width:0.2;stroke-linecap:butt;stroke-linejoin:miter;stroke-miterlimit:4;stroke-dasharray:none;stroke-opacity:0.79"/>
<path d="M 23.59,34.34 C 24.65,33.81 30.72,31.76 32.31,31.16 C 33.90,30.55 44.29,26.07 44.29,26.07" id="p3511" style="fill:none;fill-rule:evenodd;stroke:#000000;stroke-width:0.2;stroke-linecap:butt;stroke-linejoin:miter;stroke-miterlimit:4;stroke-dasharray:none;stroke-opacity:0.65"/>
<path d="M 23.28,39.20 C 23.28,39.20 33.22,35.63 34.58,34.95 C 35.95,34.27 43.46,30.93 43.46,30.93" id="p3513" style="fill:none;fill-rule:evenodd;stroke:#0f0c07;stroke-width:0.40;stroke-linecap:butt;stroke-linejoin:miter;stroke-miterlimit:4;stroke-dasharray:none;stroke-opacity:0.48"/>
<path d="M 24.04,30.40 C 24.04,30.40 30.64,28.12 32.38,27.59 C 34.13,27.06 44.82,22.36 44.82,22.36" id="p3515" style="fill:none;fill-rule:evenodd;stroke:#0f0c07;stroke-width:0.30;stroke-linecap:butt;stroke-linejoin:miter;stroke-miterlimit:4;stroke-dasharray:none;stroke-opacity:0.54"/>
<path d="M 23.59,32.98 L 44.52,24.94" id="p3517" style="fill:none;fill-rule:evenodd;stroke:#0f0c07;stroke-width:0.30;stroke-linecap:butt;stroke-linejoin:miter;stroke-miterlimit:4;stroke-dasharray:none;stroke-opacity:0.57"/>
<path d="M 23.66,35.33 L 44.44,27.29" id="p3519" style="fill:none;fill-rule:evenodd;stroke:#0f0c07;stroke-width:0.30;stroke-linecap:butt;stroke-linejoin:miter;stroke-miterlimit:4;stroke-dasharray:none;stroke-opacity:0.61"/>
<path d="M 23.35,37.12 C 25.93,36.37 33.36,33.56 34.27,33.18 C 35.18,32.80 40.72,29.99 41.25,29.84 C 41.78,29.69 43.91,28.93 43.91,28.93" id="p3537" style="fill:none;fill-rule:evenodd;stroke:#83683b;stroke-width:0.2;stroke-linecap:butt;stroke-linejoin:miter;stroke-miterlimit:4;stroke-dasharray:none;stroke-opacity:1;display:inline"/>
<path d="M 36.61,29.57 L 44.42,26.18" id="p3539" style="fill:none;fill-rule:evenodd;stroke:#ac874a;stroke-width:0.2;stroke-linecap:butt;stroke-linejoin:miter;stroke-miterlimit:4;stroke-dasharray:none;stroke-opacity:0.55"/>
<path d="M 44.78,21.03 C 44.56,21.32 44.23,21.62 43.78,21.75 C 42.61,22.08 33.80,26.48 32.56,26.81 C 31.31,27.14 24.99,28.87 24.75,29.37 C 23.50,30.37 23.59,32.37 23.59,33.12 C 23.59,33.87 23.68,36.68 23.68,36.68 L 23.09,37.78 C 23.09,37.78 23.16,38.85 23.25,39.18 C 23.33,39.51 23,40.43 23,40.43 L 24.25,41.78 C 28.28,40.36 41.78,34.62 41.78,34.62 C 41.78,34.62 42.45,34.11 42.87,33.78 C 43.29,33.44 43.18,32.88 43.18,32.46 C 43.18,32.05 43.85,28.98 44.18,28.15 C 44.51,27.32 44.43,25.65 44.43,24.90 C 44.43,24.15 44.79,23.14 44.87,22.56 C 44.93,22.15 44.85,21.51 44.78,21.03 z" id="p3500" style="opacity:1;fill:none;fill-opacity:1;fill-rule:evenodd;stroke:#1f1e13;stroke-width:0.30;stroke-linecap:butt;stroke-linejoin:miter;stroke-miterlimit:4;stroke-dasharray:none;stroke-opacity:1;display:inline"/>
<path d="M 18.11,24.73 L 20.10,23.49 L 20.52,23.74 L 29.16,21.08 L 34.97,18.58 C 34.97,18.58 34.14,18.75 33.89,18.33 C 33.64,17.92 33.06,17.50 33.06,17.50 L 29.82,18.42 L 25.75,20.08 L 19.19,22.16 L 18.94,21.82 L 16.53,23.15 L 18.11,24.73 z" id="p3304" style="opacity:1;fill:#fdfaf0;fill-opacity:0.62;fill-rule:evenodd;stroke:none;marker:none;visibility:visible;display:inline;overflow:visible;enable-background:accumulate"/>
<path d="M 9.96,15.68 L 11.46,16.92 C 11.46,16.92 11.88,16.26 12.21,16.17 C 12.54,16.09 13.54,16.26 14.29,16.09 C 15.03,15.93 19.35,14.35 19.35,14.35 L 18.19,14.01 L 17.11,13.18 C 17.11,13.18 13.21,14.60 12.71,14.60 C 12.21,14.60 11.71,14.76 11.71,14.76 L 11.13,14.51 L 9.96,15.68 z" id="p3306" style="opacity:1;fill:#fdfaf0;fill-opacity:0.62;fill-rule:evenodd;stroke:none;display:inline"/>
<path d="M 3.98,21.82 C 3.90,21.41 4.07,19.75 4.07,19.75 L 3.48,19.08 C 3.48,19.08 3.48,18.58 3.24,18.25 C 2.99,17.92 4.07,17.84 4.07,17.84 L 4.07,17.17 C 4.07,17.17 3.73,17.25 3.73,16.92 C 3.73,16.59 4.23,16.01 4.23,15.68 C 4.23,15.34 4.07,14.10 4.07,13.27 C 4.07,12.44 3.98,10.69 4.40,10.44 C 4.81,10.19 6.81,8.95 7.47,8.78 C 8.14,8.61 16.36,6.29 16.86,5.87 C 17.36,5.46 18.61,5.87 18.77,5.46 C 18.94,5.04 21.43,4.38 22.01,4.29 C 22.59,4.21 23.67,3.96 24.75,4.38 C 25.83,4.79 34.22,12.44 34.89,12.93 C 35.55,13.43 40.21,17.67 41.29,18.25 C 42.37,18.83 44.61,20.33 44.69,20.49 C 44.78,20.66 44.94,21.99 44.86,22.57 C 44.78,23.15 44.44,24.15 44.44,24.90 C 44.44,25.65 44.53,27.31 44.19,28.14 C 43.86,28.97 43.20,32.04 43.20,32.46 C 43.20,32.87 43.28,33.46 42.87,33.79 C 42.45,34.12 41.79,34.62 41.79,34.62 C 41.79,34.62 23.59,42.35 23.09,42.10 C 22.59,41.85 20.68,39.69 20.68,39.69 L 20.02,40.10 L 18.94,39.60 L 18.36,36.78 C 18.36,36.78 10.38,29.14 9.05,27.81 C 7.72,26.48 4.40,22.49 3.98,21.82 z" id="stroke01" style="fill:none;fill-opacity:1;fill-rule:evenodd;stroke:#171d1d;stroke-width:0.5;stroke-linecap:butt;stroke-linejoin:miter;stroke-miterlimit:4;stroke-dasharray:none;stroke-opacity:1"/>
</g>
</svg>
