<?xml version="1.0" encoding="UTF-8" standalone="no"?>
<!DOCTYPE svg PUBLIC "-//W3C//DTD SVG 1.0//EN" "http://www.w3.org/TR/2001/REC-SVG-20010904/DTD/svg10.dtd">
<svg xmlns:svg="http://www.w3.org/2000/svg" xmlns="http://www.w3.org/2000/svg" version="1.0" width="100%" height="100%" viewBox="0 0 48 48" id="_bookOld02">
<defs id="defs2385"/>
<g id="bookOld02" style="display:inline">
<path d="M 2.8,29.65 C 2.8,29.65 3.71,31.16 3.79,31.24 C 3.86,31.32 5,32.07 5,32.07 C 5,32.07 7.5,34.35 7.8,34.58 C 8.11,34.8 22.51,42.76 23.12,43.07 C 23.72,43.37 24.71,43.67 25.39,43.52 C 26.07,43.37 25.92,43.07 25.92,43.07 L 27.14,42.84 C 27.14,42.84 31.08,38.14 31.08,37.68 C 31.08,37.23 31.15,36.85 31.15,36.85 C 31.15,36.85 34.72,31.01 34.79,30.56 C 34.87,30.1 34.64,29.88 34.64,29.88 L 39.65,22.14 L 40.63,21.38 C 40.63,21.38 44.19,15.47 44.19,15.17 C 44.19,14.86 43.89,14.71 43.89,14.71 C 43.89,14.71 44.57,14.11 44.5,13.8 C 44.42,13.5 43.51,12.89 43.51,12.89 L 42.91,13.12 L 42.6,12.51 L 43.21,11.83 L 42,11 C 42,11 43.21,8.72 43.21,8.19 C 43.21,7.66 42.91,7.43 42.37,7.28 C 41.84,7.13 37.37,7.43 32.75,7.97 C 28.12,8.5 24.56,8.95 24.26,9.03 C 23.95,9.1 17.36,15.85 16.07,17.06 C 14.78,18.28 8.94,23.96 7.58,25.25 C 6.21,26.54 2.95,29.34 2.8,29.65 z" id="p3391" style="fill:#806225;fill-opacity:1;fill-rule:evenodd;stroke:none;display:inline"/>
<path d="M 7.12,25.65 C 5.61,27.04 2.95,29.37 2.81,29.65 C 2.81,29.65 3.7,31.17 3.78,31.25 C 3.85,31.32 5,32.09 5,32.09 C 4.99,32.09 7.5,34.36 7.81,34.59 C 8.11,34.82 22.51,42.75 23.12,43.06 C 23.71,43.35 24.66,43.65 25.34,43.53 L 24.68,42.34 L 23.68,42.62 L 22.34,41.18 L 21.53,40.46 L 21,39.46 L 20.71,36.5 L 16.78,31.5 L 7.12,25.65 z" id="p3398" style="fill:#72654b;fill-opacity:1;fill-rule:evenodd;stroke:none"/>
<path d="M 22.08,41.01 L 25.6,37.22 L 27.38,36.95 C 27.38,36.95 24.76,41.19 24.26,41.76 C 23.77,42.32 23.58,42.5 23.58,42.5 L 22.08,41.01 z" id="p3566" style="fill:#240d05;fill-opacity:0.56;fill-rule:evenodd;stroke:none;display:inline"/>
<path d="M 21.51,40.69 C 21.51,40.69 24,38.04 24.48,37.48 C 24.96,36.92 27.53,33.54 27.53,33.54 L 24.4,31.54 L 20.79,38.76 L 21.51,40.69 z" id="p3595" style="fill:#240d05;fill-opacity:0.56;fill-rule:evenodd;stroke:none;display:inline"/>
<path d="M 41.31,7.25 C 39.61,7.29 36.21,7.57 32.75,7.96 C 28.12,8.49 24.55,8.95 24.25,9.03 C 23.94,9.1 17.35,15.84 16.06,17.06 C 14.77,18.27 8.95,23.96 7.59,25.25 C 6.22,26.53 2.96,29.35 2.81,29.65 C 6.07,31.38 20.24,38.83 21.43,38.59 C 22.78,38.32 23.31,37.33 24.12,36.34 C 24.88,35.4 40.44,13.14 42.18,10.65 C 42.44,10.15 43.21,8.63 43.21,8.18 C 43.21,7.65 42.9,7.43 42.37,7.28 C 42.24,7.24 41.87,7.23 41.31,7.25 z" id="p3394" style="fill:#968749;fill-opacity:1;fill-rule:evenodd;stroke:none"/>
<path d="M 17.71,17.02 C 19.54,18.05 19.47,18.27 20.13,19.66 C 20.79,21.05 20.28,22.44 19.76,22.81 C 19.25,23.17 19.4,23.61 20.35,23.61 C 21.3,23.61 22.62,22.44 23.43,22.51 C 24.23,22.59 26.21,22.15 26.35,21.12 C 26.5,20.1 27.16,20.61 27.97,20.68 C 28.77,20.76 29.72,20.02 29.65,19.51 C 29.58,19 27.6,19.73 27.89,18.63 C 28.18,17.54 29.72,16.51 30.38,16.44 C 31.04,16.36 30.31,19.29 32.58,17.61 C 34.85,15.92 34.26,14.61 32.94,14.17 C 31.63,13.73 28.55,14.24 27.09,14.9 C 25.62,15.56 26.28,14.46 24.23,14.75 C 22.18,15.05 18.96,14.97 18.96,14.97 L 17.71,17.02 z" id="p3419" style="fill:#2d160b;fill-opacity:0.27;fill-rule:evenodd;stroke:none;display:inline"/>
<path d="M 18.79,15.36 C 17.68,18.09 17.08,18.95 18.62,19.89 C 20.16,20.83 22.55,19.97 23.58,19.37 C 24.6,18.78 28.87,15.1 29.81,15.79 C 30.75,16.47 28.19,19.12 28.96,19.89 C 29.73,20.66 31.61,18.09 31.86,19.2 C 32.12,20.31 30.24,24.84 33.06,21.94 C 35.88,19.03 32.63,22.02 32.8,20.06 C 32.97,18.09 32.55,18.01 31.61,17.32 C 30.67,16.64 32.38,15.27 32.8,15.44 C 33.23,15.61 32.63,17.58 33.74,15.7 C 34.85,13.82 34.08,13.14 32.72,12.97 C 31.35,12.8 27.59,15.02 27.59,15.44 C 27.59,15.87 29.47,15.36 25.71,17.49 C 21.95,19.63 20.16,17.84 20.93,16.81 C 21.7,15.79 23.32,16.98 24.34,15.96 C 25.37,14.93 26.14,15.44 23.23,14.59 C 20.33,13.74 18.88,15.36 18.79,15.36 z" id="p3528" style="fill:#12120d;fill-opacity:0.41;fill-rule:evenodd;stroke:none;display:inline"/>
<path d="M 28.12,8.5 C 26.46,8.7 25.42,8.85 24.9,8.93 L 24.25,9.81 C 24.5,11.77 25.72,11.27 26.4,11.87 C 27.08,12.47 25.64,13.22 25.81,13.65 C 25.98,14.08 27.07,12.27 27.84,12.18 C 28.61,12.1 29.23,12.27 29.06,11.59 C 28.89,10.91 26.47,11.51 26.81,10.75 C 27.15,9.98 29.21,10.92 28.87,9.46 C 28.77,9.05 28.48,8.74 28.12,8.5 z" id="p3530" style="fill:#12120d;fill-opacity:0.47;fill-rule:evenodd;stroke:none;display:inline"/>
<path d="M 29,8.4 C 26.46,8.71 24.45,8.97 24.25,9.03 C 23.94,9.1 17.35,15.84 16.06,17.06 C 14.77,18.27 8.95,23.96 7.59,25.25 C 6.22,26.53 2.96,29.35 2.81,29.65 C 3.22,29.87 4.18,30.37 4.9,30.75 L 5.4,30.21 C 6.28,30.14 9.79,28.67 10.53,28.96 C 11.26,29.26 11.28,30.71 11.5,30.12 C 11.71,29.53 12.38,30.71 12.31,29.68 C 12.23,28.66 12.72,25.51 13.75,24.78 C 14.77,24.04 18.61,24.13 16.78,23.84 C 14.95,23.55 14.77,23.92 16.31,22.75 C 17.85,21.57 18.59,20.69 19.46,20.84 C 20.34,20.99 22.1,19.5 23.28,19.65 C 24.45,19.8 26.5,18.69 25.18,18.84 C 23.86,18.99 23.87,17.98 24.53,17.25 C 25.19,16.51 23.27,16.67 23.12,16.96 C 22.97,17.26 20.43,18.87 21.09,17.4 C 21.75,15.94 23.42,16.2 24.15,15.84 C 24.86,15.48 23.87,14.89 24.75,14.65 C 24.16,14.76 22.67,14.96 23.56,14.18 C 24.8,13.08 24.75,12.56 25.34,11.68 C 25.92,10.8 27.32,11.53 27.25,10.43 C 27.17,9.33 28.69,10.51 29.06,9.56 C 29.16,9.29 29.11,8.87 29,8.4 z M 19.18,17.25 C 19.59,17.16 18.76,18.57 18.18,19.31 C 17.61,20.05 17.15,19.96 16.25,19.06 L 16.96,18.06 C 16.96,18.06 17.05,18.87 17.46,19.12 C 17.87,19.37 18.77,17.33 19.18,17.25 z" id="p3417" style="fill:#020509;fill-opacity:0.43;fill-rule:evenodd;stroke:none;display:inline"/>
<path d="M 7.37,29.3 C 11.15,28.56 12.13,28.56 13.2,29.96 C 14.26,31.35 15.57,34.06 15.57,32.17 C 15.57,30.28 16.07,31.35 17.79,32.5 C 19.51,33.65 23.28,33.4 23.28,34.55 C 23.28,35.7 26.48,32.91 27.79,30.61 C 29.1,28.32 29.02,23.4 26.89,25.86 C 24.76,28.32 21.89,28.97 21.89,28.97 C 21.89,28.97 22.13,27.25 21.23,26.92 C 20.33,26.59 19.1,26.76 19.43,27.17 C 19.76,27.58 21.07,28.73 19.43,28.64 C 17.79,28.56 12.54,27 12.54,25.36 C 12.54,23.72 14.02,25.36 10.74,26.18 C 7.46,27 5.9,27.74 6.06,28.23 C 6.23,28.73 7.37,29.3 7.37,29.3 z" id="p3508" style="fill:#4c3f20;fill-opacity:0.45;fill-rule:evenodd;stroke:none"/>
<path d="M 9.99,23.82 C 9.99,23.82 16.31,27.15 17.34,28.69 C 18.36,30.22 16.91,29.97 13.75,27.75 C 10.59,25.53 9.05,25.44 9.05,25.44 C 9.05,25.44 6.4,26.12 7.94,27.83 C 11.16,31.41 16.83,31.51 18.45,32.45 C 20.07,33.39 21.61,32.62 23.23,31.85 C 24.86,31.08 27.42,28.52 26.39,30.99 C 25.37,33.47 28.45,28.86 29.38,27.83 C 30.32,26.81 29.9,22.88 26.57,25.44 C 23.23,28 21.87,28 21.87,25.78 C 21.87,23.56 22.81,23.05 21.78,22.79 C 20.76,22.54 20.84,23.56 20.59,25.35 C 20.33,27.15 21.18,28.09 19.47,27.83 C 17.77,27.58 11.53,24.16 11.53,23.05 C 11.53,21.94 9.99,23.9 9.99,23.82 z" id="p3526" style="fill:#12120d;fill-opacity:0.33;fill-rule:evenodd;stroke:none;display:inline"/>
<path d="M 6.31,28.56 C 8.52,28.56 12.95,28.89 13.77,29.55 C 14.59,30.2 15.16,30.61 16.15,31.68 C 17.13,32.74 13.69,28.56 14.75,29.14 C 15.82,29.71 13.2,27.58 13.44,26.43 C 13.69,25.28 15,23.31 14.26,22.74 C 13.52,22.17 14.02,22.08 15.08,22 C 16.15,21.92 19.18,23.72 17.62,20.44 C 16.07,17.17 12.05,22.17 12.05,22.17 L 6.31,28.56 z" id="p3502" style="fill:#06090c;fill-opacity:0.27;fill-rule:evenodd;stroke:none;display:inline"/>
<path d="M 26.59,8.68 C 25.35,8.84 24.38,8.99 24.25,9.03 C 23.94,9.1 17.35,15.84 16.06,17.06 C 14.77,18.27 8.95,23.96 7.59,25.25 C 6.22,26.53 2.96,29.35 2.81,29.65 C 3.25,29.88 4.25,30.4 5.03,30.81 L 26.59,8.68 z" id="p3396" style="fill:#453112;fill-opacity:1;fill-rule:evenodd;stroke:none"/>
<path d="M 41.31,7.25 C 40.55,7.27 39.35,7.33 38.06,7.43 C 35.72,8.59 33.52,9.62 34.28,9.56 C 35.15,9.48 37.54,10.81 35.93,10.59 C 34.32,10.37 33.16,10.71 32.87,11.37 C 32.58,12.03 32.13,12.7 32.5,13.65 C 32.86,14.6 31.83,15.91 30.81,15.4 C 29.78,14.89 30.98,16.52 31.93,16.15 C 32.88,15.79 33.62,14.31 34.28,14.09 C 34.94,13.87 36.89,13.35 37.18,14.96 C 37.34,15.81 37.67,16.11 38.4,16.06 C 39.64,14.29 41.83,11.15 42.18,10.65 C 42.44,10.15 43.21,8.63 43.21,8.18 C 43.21,7.65 42.9,7.43 42.37,7.28 C 42.24,7.24 41.87,7.23 41.31,7.25 z" id="p3423" style="fill:#020509;fill-opacity:0.45;fill-rule:evenodd;stroke:none;display:inline"/>
<path d="M 6.95,26.61 L 7.9,26.76 L 9.07,25.59 L 9.44,24.56 C 9.44,24.56 10.03,24.71 10.39,24.34 C 10.76,23.98 9.73,23.91 9.73,23.91 L 8.85,25.08 L 6.95,26.61 z" id="p3415" style="fill:#06090c;fill-opacity:0.4;fill-rule:evenodd;stroke:none;display:inline"/>
<path d="M 9.56,34.65 L 9.56,35.56 C 12.38,37.16 22.58,42.79 23.12,43.06 C 23.71,43.35 24.66,43.65 25.34,43.53 L 24.9,42.71 L 23.56,42.68 L 9.56,34.65 z" id="p3551" style="fill:#e8cf9f;fill-opacity:0.81;fill-rule:evenodd;stroke:none;display:inline"/>
<path d="M 31.5,21.59 C 30.96,21.61 30,22.33 29.81,22.65 C 29.59,23.02 29.29,21.19 27.9,21.78 C 26.51,22.36 25.76,25.16 24.59,24.87 C 23.42,24.58 23.12,25.73 23.12,26.68 C 23.1,26.21 23.01,24.97 22.56,24.87 C 21.9,24.72 20.21,26.26 20.87,26.78 C 21.53,27.29 21.38,28.53 20.43,28.53 C 19.48,28.53 17.85,28.08 17.12,28.81 C 16.39,29.54 17.29,29.63 14.43,30 C 17,30.36 19.11,30.57 18.75,31.53 C 18.38,32.48 16.91,33.71 17.71,34.37 C 18.52,35.03 19.91,34.22 20.06,34.81 C 20.2,35.39 19.77,36.87 22.18,36.65 C 23.02,36.57 23.74,36.32 24.43,35.9 C 25.04,35.1 27.71,31.29 30.9,26.75 C 31.08,25.75 31.06,24.96 30.9,24.5 C 30.54,23.4 32.15,21.87 31.71,21.65 C 31.66,21.62 31.57,21.59 31.5,21.59 z" id="p3425" style="fill:#020509;fill-opacity:0.38;fill-rule:evenodd;stroke:none;display:inline"/>
<path d="M 43.53,12.9 L 42.96,13.09 C 41.9,14.78 35.58,24.85 33.96,27.21 C 32.21,29.78 25.48,40.32 24.31,42.15 L 24.09,42.65 L 25.06,43.56 C 25.17,43.55 25.3,43.55 25.4,43.53 C 26.08,43.37 25.93,43.06 25.93,43.06 L 27.15,42.84 C 27.15,42.84 31.09,38.14 31.09,37.68 C 31.09,37.23 31.15,36.84 31.15,36.84 C 31.15,36.84 34.73,31.01 34.81,30.56 C 34.88,30.1 34.65,29.87 34.65,29.87 L 39.65,22.15 L 40.62,21.37 C 40.62,21.37 44.18,15.49 44.18,15.18 C 44.18,14.88 43.9,14.71 43.9,14.71 C 43.9,14.71 44.57,14.11 44.5,13.81 C 44.42,13.5 43.53,12.9 43.53,12.9 z" id="p3427" style="fill:#c8b184;fill-opacity:1;fill-rule:evenodd;stroke:none;display:inline"/>
<path d="M 24.35,34.14 C 21.56,35.53 20.17,35.78 20.08,35.37 C 20,34.96 21.97,34.47 21.07,33.65 C 20.17,32.83 20.41,32.09 19.84,33.56 C 19.26,35.04 17.95,35.2 17.87,34.06 C 17.79,32.91 18.69,31.27 19.76,31.27 C 20.82,31.27 22.05,30.86 22.54,30.61 C 23.04,30.37 22.05,31.51 22.46,32.09 C 22.87,32.66 22.87,32.58 24.43,32.01 C 25.99,31.43 21.31,30.53 23.28,29.79 C 25.25,29.05 25.25,29.79 26.56,30.37 C 27.87,30.94 22.13,26.59 24.18,26.27 C 26.23,25.94 26.89,28.89 27.55,27.17 C 28.2,25.45 28.45,21.67 29.1,24.3 C 29.76,26.92 28.94,28.64 28.94,28.64 L 25.41,34.14 L 24.35,34.14 z" id="p3498" style="fill:#06090c;fill-opacity:0.21;fill-rule:evenodd;stroke:none;display:inline"/>
<path d="M 5.55,32.29 L 7.65,34.49 L 12.5,35.89 L 5.55,32.29 z" id="p3553" style="fill:#e8cf9f;fill-opacity:0.81;fill-rule:evenodd;stroke:none;display:inline"/>
<path d="M 9.25,32.89 L 14.3,36.44 L 14.6,36.24 L 14.95,36.79 L 15.55,37.09 C 15.55,37.09 15.65,36.54 15.8,36.44 C 15.95,36.34 16.65,36.29 16.65,36.29 L 9.25,32.89 z" id="p3555" style="fill:#e8cf9f;fill-opacity:0.81;fill-rule:evenodd;stroke:none;display:inline"/>
<path d="M 9.9,34.69 L 22.06,41.14" id="p3560" style="fill:none;fill-rule:evenodd;stroke:#d0b989;stroke-width:0.2;stroke-linecap:round;stroke-linejoin:miter;stroke-miterlimit:4;stroke-dasharray:none;stroke-opacity:1;display:inline"/>
<path d="M 30.63,29.46 L 42.73,12.43" id="p3581" style="fill:none;fill-rule:evenodd;stroke:#151107;stroke-width:0.60;stroke-linecap:butt;stroke-linejoin:miter;stroke-miterlimit:4;stroke-dasharray:none;stroke-opacity:1;display:inline"/>
<path d="M 42.46,11.34 C 41.13,13.28 37.6,18.44 37.18,19.12 C 36.68,19.93 33.06,24.9 32.31,26.03 C 31.56,27.15 25.4,35.71 25.03,36.34 C 24.65,36.96 23.65,38.46 23.78,39.09 C 23.78,39.09 25.03,39.74 25.78,39.43 C 26.52,39.12 27.25,37.4 27.68,36.46 C 28.12,35.53 29.25,33.9 29.31,33.34 C 29.37,32.78 32.75,26.15 32.75,26.15 L 42.62,12.56 L 42.59,12.53 L 42.84,12.25 L 43.15,11.81 L 42.46,11.34 z" id="p3569" style="fill:#c8b184;fill-opacity:1;fill-rule:evenodd;stroke:none;display:inline"/>
<path d="M 27.87,38.28 L 25.28,42.81 L 25.87,43.31 C 25.96,43.19 25.93,43.06 25.93,43.06 L 27.15,42.84 C 27.15,42.84 28.52,41.19 29.65,39.75 L 27.87,38.28 z" id="p3572" style="fill:#a9814c;fill-opacity:1;fill-rule:evenodd;stroke:none;display:inline"/>
<path d="M 25.28,42.94 L 27.61,38.92" id="p3597" style="fill:none;fill-rule:evenodd;stroke:#3a2917;stroke-width:0.30;stroke-linecap:round;stroke-linejoin:miter;stroke-miterlimit:4;stroke-dasharray:none;stroke-opacity:0.91;display:inline"/>
<path d="M 28.37,37.34 L 27.56,37.78 L 27.37,39.62 L 29.4,40.06 C 29.6,39.8 29.78,39.58 29.96,39.34 L 28.37,37.34 z" id="p3575" style="fill:#b6903c;fill-opacity:0.9;fill-rule:evenodd;stroke:none;display:inline"/>
<path d="M 28.51,37.64 L 35.12,27.16 C 35.12,27.16 40.49,19.48 41.11,18.73 C 41.73,17.99 43.92,14.62 43.92,14.62" id="p3578" style="fill:none;fill-rule:evenodd;stroke:#0b0702;stroke-width:0.30;stroke-linecap:butt;stroke-linejoin:miter;stroke-miterlimit:4;stroke-dasharray:none;stroke-opacity:0.73;display:inline"/>
<path d="M 24.16,42.38 C 23.52,42.86 23.68,43.18 23.68,43.18" id="p3599" style="fill:none;fill-rule:evenodd;stroke:#281a0e;stroke-width:1px;stroke-linecap:butt;stroke-linejoin:miter;stroke-opacity:0.88;display:inline"/>
<path d="M 9.62,23.28 C 9.39,23.5 9.16,23.71 8.96,23.9 L 10.43,24.31 L 11.18,23.62 L 9.62,23.28 z" id="p3608" style="fill:#805f2e;fill-opacity:0.38;fill-rule:evenodd;stroke:none;display:inline"/>
<path d="M 15.06,18.03 C 14.84,18.24 14.5,18.57 14.21,18.84 L 15.96,19.37 L 16.56,18.71 L 15.06,18.03 z" id="p3610" style="fill:#805f2e;fill-opacity:0.31;fill-rule:evenodd;stroke:none;display:inline"/>
<path d="M 26.59,8.68 C 25.35,8.84 24.38,8.99 24.25,9.03 C 24.07,9.07 21.94,11.21 19.78,13.37 L 20.75,13.34 C 20.75,13.34 21.04,13.96 20.56,13.96 C 20.23,13.96 20.73,14.12 21.15,14.25 L 26.59,8.68 z" id="p3612" style="fill:#6f5c3e;fill-opacity:0.37;fill-rule:evenodd;stroke:none;display:inline"/>
<path d="M 38.45,14.62 C 33.94,13.8 26.73,13.89 23.77,16.43 C 20.82,18.97 21.4,18.89 21.4,18.89" id="p3479" style="fill:none;fill-rule:evenodd;stroke:#ae9851;stroke-width:0.2;stroke-linecap:butt;stroke-linejoin:miter;stroke-miterlimit:4;stroke-dasharray:none;stroke-opacity:0.95"/>
<path d="M 9.75,26.1 C 10.9,27.33 15.74,27.74 15.74,27.74" id="p3481" style="fill:none;fill-rule:evenodd;stroke:#ae9851;stroke-width:0.30;stroke-linecap:round;stroke-linejoin:miter;stroke-miterlimit:4;stroke-dasharray:none;stroke-opacity:0.95"/>
<path d="M 8.19,31.6 C 12.29,29.22 20.66,23.56 24.68,22.25" id="p3483" style="fill:none;fill-rule:evenodd;stroke:#ae9851;stroke-width:0.30;stroke-linecap:round;stroke-linejoin:miter;stroke-miterlimit:4;stroke-dasharray:none;stroke-opacity:0.95"/>
<path d="M 21.31,19.13 C 26.81,19.87 33.04,17.17 36.32,15.53" id="p3485" style="fill:none;fill-rule:evenodd;stroke:#ae9851;stroke-width:0.30;stroke-linecap:butt;stroke-linejoin:miter;stroke-miterlimit:4;stroke-dasharray:none;stroke-opacity:0.95"/>
<path d="M 17.71,35.61 C 20.74,34.38 25.82,32.25 25.82,32.25" id="p3487" style="fill:none;fill-rule:evenodd;stroke:#ae9851;stroke-width:0.40;stroke-linecap:butt;stroke-linejoin:miter;stroke-miterlimit:4;stroke-dasharray:none;stroke-opacity:0.95"/>
<path d="M 22.3,16.1 C 26.23,17 29.43,18.23 30.58,18.97 C 31.73,19.71 32.14,20.85 32.87,20.53 C 33.61,20.2 34.19,19.79 34.19,19.79" id="p3489" style="fill:none;fill-rule:evenodd;stroke:#ae9851;stroke-width:0.2;stroke-linecap:butt;stroke-linejoin:miter;stroke-miterlimit:4;stroke-dasharray:none;stroke-opacity:0.95"/>
<path d="M 13.03,24.63 L 16.23,28.97" id="p3491" style="fill:none;fill-rule:evenodd;stroke:#ae9851;stroke-width:0.2;stroke-linecap:round;stroke-linejoin:miter;stroke-miterlimit:4;stroke-dasharray:none;stroke-opacity:0.95"/>
<path d="M 41.31,7.25 C 40.53,7.27 39.32,7.33 38,7.43 C 39.18,8.22 39.67,8.47 40.12,8.25 C 40.71,7.95 41.8,7.64 42.09,7.93 C 42.38,8.23 42.25,9.04 41.81,9.18 C 41.37,9.33 41.35,10.08 41.06,10.37 C 40.76,10.66 39.7,12.33 39.18,12.62 C 38.67,12.91 38.64,12.92 38.71,13.43 C 38.79,13.95 37.35,15.85 36.84,16.65 C 36.33,17.46 31.62,22.81 30.96,24.5 C 30.3,26.18 26.49,31.54 26.12,31.68 C 25.75,31.83 25.33,33.34 24.75,33.78 C 24.16,34.22 21.97,35.91 21.09,35.84 C 20.21,35.77 17.57,36.05 17.06,35.46 C 16.54,34.88 16.54,34.52 16.03,34.37 C 15.51,34.22 15.07,34.83 14.12,34.25 C 13.17,33.66 13.6,33.34 12.87,33.12 C 12.14,32.9 10.11,32.03 9.31,31.81 C 8.5,31.59 6.74,31.08 5.93,30.71 C 5.13,30.35 4.53,30.5 4.53,30.5 L 4.53,30.56 C 9.26,33.04 20.36,38.8 21.43,38.59 C 22.78,38.32 23.31,37.33 24.12,36.34 C 24.88,35.4 40.44,13.14 42.18,10.65 C 42.44,10.15 43.21,8.63 43.21,8.18 C 43.21,7.65 42.9,7.43 42.37,7.28 C 42.24,7.24 41.87,7.23 41.31,7.25 z" id="p3421" style="fill:#b4a172;fill-opacity:0.97;fill-rule:evenodd;stroke:none;display:inline"/>
<path d="M 30.33,8.31 C 30.09,11.75 29.02,19.22 29.1,20.03 C 29.18,20.85 29.35,21.92 29.35,21.92" id="p3493" style="fill:none;fill-rule:evenodd;stroke:#ae9851;stroke-width:0.2;stroke-linecap:butt;stroke-linejoin:miter;stroke-miterlimit:4;stroke-dasharray:none;stroke-opacity:0.95"/>
<path d="M 38.2,14.54 C 36.48,14.3 34.43,14.21 34.43,14.21" id="p3495" style="fill:none;fill-rule:evenodd;stroke:#b4a464;stroke-width:0.40;stroke-linecap:round;stroke-linejoin:miter;stroke-miterlimit:4;stroke-dasharray:none;stroke-opacity:1"/>
<path d="M 26.62,32.87 C 26.32,33.11 25.8,33.53 25.12,34.15 C 24.18,35.01 23.91,35.7 22.12,36.56 C 19.13,36.73 18.46,37.66 20.68,37.75 C 21.68,37.78 22.33,37.86 22.87,37.81 C 23.31,37.39 23.69,36.86 24.12,36.34 C 24.28,36.14 25.38,34.62 26.62,32.87 z" id="p3532" style="fill:#533d0f;fill-opacity:0.73;fill-rule:evenodd;stroke:none;display:inline"/>
<path d="M 33.75,21.84 L 31.82,24.71 C 31.82,24.71 31.18,24.89 31.03,25.25 C 30.88,25.6 26.07,32.46 25.16,33.66 C 24.25,34.87 23.47,35.83 22.22,37.39 L 22.46,38.15 C 23.12,37.7 23.56,37.02 24.12,36.34 C 24.55,35.81 29.32,29.01 34.06,22.25 L 33.75,21.84 z" id="p3604" style="fill:#483211;fill-opacity:0.51;fill-rule:evenodd;stroke:none;display:inline"/>
<path d="M 23.53,23.64 C 23.45,24.79 22.95,27 22.95,27" id="p3510" style="fill:none;fill-rule:evenodd;stroke:#a89650;stroke-width:0.2;stroke-linecap:round;stroke-linejoin:miter;stroke-miterlimit:4;stroke-dasharray:none;stroke-opacity:0.88"/>
<path d="M 28.04,24.22 L 30.41,24.95" id="p3512" style="fill:none;fill-rule:evenodd;stroke:#a89650;stroke-width:0.2;stroke-linecap:round;stroke-linejoin:miter;stroke-miterlimit:4;stroke-dasharray:none;stroke-opacity:0.88"/>
<path d="M 21.15,36.35 L 22.05,32.66" id="p3514" style="fill:none;fill-rule:evenodd;stroke:#a89650;stroke-width:0.2;stroke-linecap:round;stroke-linejoin:miter;stroke-miterlimit:4;stroke-dasharray:none;stroke-opacity:0.88"/>
<path d="M 23.53,17.25 L 29.68,19.54" id="p3516" style="fill:none;fill-rule:evenodd;stroke:#a89650;stroke-width:0.2;stroke-linecap:round;stroke-linejoin:miter;stroke-miterlimit:4;stroke-dasharray:none;stroke-opacity:0.88"/>
<path d="M 25,16.67 L 19.43,25.04" id="p3518" style="fill:none;fill-rule:evenodd;stroke:#a89650;stroke-width:0.2;stroke-linecap:round;stroke-linejoin:miter;stroke-miterlimit:4;stroke-dasharray:none;stroke-opacity:0.88"/>
<path d="M 13.2,31.27 C 14.18,30.04 15.82,29.22 15.82,29.22" id="p3520" style="fill:none;fill-rule:evenodd;stroke:#a89650;stroke-width:0.2;stroke-linecap:round;stroke-linejoin:miter;stroke-miterlimit:4;stroke-dasharray:none;stroke-opacity:0.88"/>
<path d="M 33.61,9.87 L 36.07,11.02" id="p3522" style="fill:none;fill-rule:evenodd;stroke:#a89650;stroke-width:0.2;stroke-linecap:round;stroke-linejoin:miter;stroke-miterlimit:4;stroke-dasharray:none;stroke-opacity:0.88"/>
<path d="M 20.75,30.11 C 20.42,30.98 20.42,31.58 20.88,31.58 C 21.35,31.58 20.82,30.51 21.68,30.51 C 22.55,30.51 21.35,29.78 20.75,30.11 z" id="p3545" style="fill:#a0954d;fill-opacity:0.48;fill-rule:evenodd;stroke:none"/>
<path d="M 22.95,28.64 C 23.62,29.64 24.09,30.31 23.55,30.58 C 23.02,30.84 25.55,30.38 24.69,29.64 C 23.82,28.91 22.95,28.71 22.95,28.64 z" id="p3547" style="fill:#a0954d;fill-opacity:0.48;fill-rule:evenodd;stroke:none"/>
<path d="M 24.69,23.97 C 24.49,25.17 24.55,26.84 24.95,26.77 C 25.35,26.71 26.82,27.04 25.82,25.97 C 24.82,24.9 25.35,23.84 25.35,23.84 L 24.69,23.97 z" id="p3549" style="fill:#a0954d;fill-opacity:0.48;fill-rule:evenodd;stroke:none"/>
<path d="M 2.89,29.67 C 7.62,32.16 20.36,38.8 21.43,38.59 C 22.78,38.32 23.31,37.33 24.12,36.34 C 24.88,35.4 40.44,13.14 42.18,10.65 C 42.44,10.15 43.21,8.63 43.21,8.18 C 43.21,7.65 42.9,7.43 42.37,7.28" id="p3524" style="fill:none;fill-opacity:0.97;fill-rule:evenodd;stroke:#110f07;stroke-width:0.5;stroke-linecap:butt;stroke-linejoin:miter;stroke-miterlimit:4;stroke-dasharray:none;stroke-opacity:0.97;display:inline"/>
<path d="M 2.8,29.65 C 2.8,29.65 3.71,31.16 3.79,31.24 C 3.86,31.32 5,32.07 5,32.07 C 5,32.07 7.5,34.35 7.8,34.58 C 8.11,34.8 22.51,42.76 23.12,43.07 C 23.72,43.37 24.71,43.67 25.39,43.52 C 26.07,43.37 25.92,43.07 25.92,43.07 L 27.14,42.84 C 27.14,42.84 31.08,38.14 31.08,37.68 C 31.08,37.23 31.15,36.85 31.15,36.85 C 31.15,36.85 34.72,31.01 34.79,30.56 C 34.87,30.1 34.64,29.88 34.64,29.88 L 39.65,22.14 L 40.63,21.38 C 40.63,21.38 44.19,15.47 44.19,15.17 C 44.19,14.86 43.89,14.71 43.89,14.71 C 43.89,14.71 44.57,14.11 44.5,13.8 C 44.42,13.5 43.51,12.89 43.51,12.89 L 42.91,13.12 L 42.6,12.51 L 43.21,11.83 L 42,11 C 42,11 43.21,8.72 43.21,8.19 C 43.21,7.66 42.91,7.43 42.37,7.28 C 41.84,7.13 37.37,7.43 32.75,7.97 C 28.12,8.5 24.56,8.95 24.26,9.03 C 23.95,9.1 17.36,15.85 16.07,17.06 C 14.78,18.28 8.94,23.96 7.58,25.25 C 6.21,26.54 2.95,29.34 2.8,29.65 z" id="stroke01" style="fill:none;fill-opacity:1;fill-rule:evenodd;stroke:#070402;stroke-width:0.5;stroke-linecap:butt;stroke-linejoin:miter;stroke-miterlimit:4;stroke-dasharray:none;stroke-opacity:1;display:inline"/>
</g>
</svg>
