<?xml version="1.0" encoding="UTF-8" standalone="no"?>
<!DOCTYPE svg PUBLIC "-//W3C//DTD SVG 1.0//EN" "http://www.w3.org/TR/2001/REC-SVG-20010904/DTD/svg10.dtd">
<svg xmlns:svg="http://www.w3.org/2000/svg" xmlns="http://www.w3.org/2000/svg" version="1.0" width="100%" height="100%" viewBox="0 0 48 48" id="_bookOld01">
<defs id="defs2385"/>
<g id="bookOld01" style="display:inline">
<path d="M 21.62,3.12 C 21.03,3.13 20.42,3.15 20,3.15 C 19.14,3.15 15.52,3.77 12.25,4.62 C 8.97,5.47 2.91,7.04 2.34,7.68 C 1.77,8.32 1.71,9.49 1.78,10.84 C 1.85,12.19 2.69,13.17 3.12,13.31 C 3.18,13.33 3.49,13.78 3.9,14.46 C 4.01,15.73 4.37,16.36 5.31,16.93 C 5.39,17.08 5.53,17.31 5.62,17.46 C 5.71,18.87 6.11,19.8 7.4,20.62 C 7.44,20.69 7.49,20.74 7.53,20.81 C 7.47,22.29 7.87,22.92 9.21,23.78 C 9.37,24.06 9.49,24.27 9.65,24.56 C 9.7,26.11 10,26.62 11,27 C 11.16,27.29 11.3,27.55 11.46,27.84 C 11.53,29.15 11.92,29.94 12.93,30.46 C 13.31,31.13 13.67,31.75 14,32.34 C 14.11,33.82 14.37,34.57 15.34,34.68 C 15.6,35.13 16.15,36.1 16.25,36.25 C 17.24,37.81 16.36,37.67 18,39.81 C 18.92,40.66 20.27,40.6 20.56,40.53 C 20.84,40.46 22.07,39.38 23.21,38.81 C 24.35,38.24 33.75,33.83 36.81,32.34 C 39.87,30.84 43.77,28.49 44.06,28.28 C 44.34,28.06 44.28,27.71 44.28,27.71 L 43.37,27.28 C 43.37,27.28 43.44,26 43.87,24.93 C 44.3,23.86 45.28,21.93 45.28,21.93 L 46.43,21.93 C 46.43,21.93 46.35,20.93 46,20.71 C 45.64,20.5 23.86,3.22 23.15,3.15 C 22.8,3.12 22.21,3.11 21.62,3.12 z" id="p2465" style="fill:#714c1e;fill-opacity:1;fill-rule:evenodd;stroke:none"/>
<path d="M 41.03,16.84 C 39.76,18.08 36.63,19.72 35.09,20.18 C 33.07,20.79 30.44,24.74 28.21,25.65 C 25.99,26.56 23.55,24.73 20.21,27.46 L 22.65,33.21 L 28.43,32.43 L 43.4,27.09 C 43.42,26.84 43.49,25.87 43.87,24.93 C 44.3,23.86 45.28,21.93 45.28,21.93 L 46.43,21.93 C 46.43,21.93 46.35,20.93 46,20.71 C 45.92,20.67 42.72,18.17 41.03,16.84 z" id="p3258" style="fill:#5a3c18;fill-opacity:0.48;fill-rule:evenodd;stroke:none;display:inline"/>
<path d="M 21.62,3.12 C 21.03,3.13 20.42,3.15 20,3.15 C 19.14,3.15 15.52,3.77 12.25,4.62 C 10.22,5.15 7.23,5.93 5.03,6.62 L 4.34,8.43 L 12.34,20.5 L 17.09,24.84 C 20.22,21.4 25.17,15.71 25.78,11.87 C 26.12,9.7 27.31,8.07 28,6.71 C 25.37,4.71 23.35,3.17 23.15,3.15 C 22.8,3.12 22.21,3.11 21.62,3.12 z" id="p3260" style="fill:#302418;fill-opacity:0.31;fill-rule:evenodd;stroke:none;display:inline"/>
<path d="M 21.62,3.12 C 21.03,3.13 20.42,3.15 20,3.15 C 19.14,3.15 15.52,3.77 12.25,4.62 C 11.94,4.7 11.53,4.81 11.18,4.9 C 12.54,6.76 14.33,7.81 17.31,9.37 C 21.56,11.6 22.13,14.1 23.65,14.4 C 25.17,14.7 26.28,12.61 27.9,12.81 C 29.52,13.01 30.63,13.5 30.93,13.9 C 31.24,14.31 32.07,15.93 32.78,16.34 C 33.48,16.74 36.5,17.13 37.71,18.25 C 38.61,19.07 41.55,19.03 43.31,18.62 C 39.04,15.28 23.78,3.21 23.15,3.15 C 22.8,3.12 22.21,3.11 21.62,3.12 z" id="p3256" style="fill:#5a3c18;fill-opacity:0.81;fill-rule:evenodd;stroke:none;display:inline"/>
<path d="M 32.37,10.06 C 26.76,17.55 25.11,26.33 26.06,27.81 C 26.73,28.85 32.26,30.95 36.53,32.46 C 36.59,32.43 36.75,32.37 36.81,32.34 C 39.87,30.84 43.77,28.49 44.06,28.28 C 44.34,28.06 44.28,27.71 44.28,27.71 L 43.37,27.28 C 43.37,27.28 43.44,26 43.87,24.93 C 44.3,23.86 45.28,21.93 45.28,21.93 L 46.43,21.93 C 46.43,21.93 46.35,20.93 46,20.71 C 45.79,20.59 38.67,14.95 32.37,10.06 z" id="p3515" style="fill:#1a1d22;fill-opacity:0.11;fill-rule:evenodd;stroke:none"/>
<path d="M 14.26,10.77 C 16.89,14.61 17.9,18.96 17.7,20.89 C 17.49,22.81 21.44,29.59 22.05,29.59 C 22.65,29.59 25.08,28.88 25.08,28.88 C 25.08,28.88 23.06,23.01 22.35,19.87 C 21.64,16.74 20.73,16.13 18.3,13.3 C 15.88,10.47 13.45,9.46 14.26,10.77 z" id="p3262" style="fill:#6c491c;fill-opacity:0.47;fill-rule:evenodd;stroke:none;display:inline"/>
<path d="M 8.69,10.77 C 12.09,10.65 17.49,10.88 18.67,12.29 C 19.84,13.7 19.26,16.52 18.67,18.05 C 18.08,19.57 17.26,21.22 15.38,20.63 C 13.5,20.04 7.86,12.29 7.86,12.29 L 8.69,10.77 z" id="p3510" style="fill:#1a1d22;fill-opacity:0.08;fill-rule:evenodd;stroke:none"/>
<path d="M 6.15,6.28 C 4.22,6.84 2.62,7.37 2.34,7.68 C 1.77,8.32 1.71,9.49 1.78,10.84 C 1.85,12.19 2.69,13.17 3.12,13.31 C 3.18,13.33 3.49,13.78 3.9,14.46 C 4.01,15.73 4.37,16.36 5.31,16.93 C 5.39,17.08 5.53,17.31 5.62,17.46 C 5.71,18.87 6.11,19.8 7.4,20.62 C 7.44,20.69 7.49,20.74 7.53,20.81 C 7.47,22.29 7.87,22.92 9.21,23.78 C 9.37,24.06 9.49,24.27 9.65,24.56 C 9.7,26.11 10,26.62 11,27 C 11.16,27.29 11.3,27.55 11.46,27.84 C 11.53,29.15 11.92,29.94 12.93,30.46 C 13.31,31.13 13.67,31.75 14,32.34 C 14.11,33.82 14.37,34.57 15.34,34.68 C 15.6,35.13 16.15,36.1 16.25,36.25 C 17.24,37.81 16.36,37.67 18,39.81 C 18.92,40.66 20.27,40.6 20.56,40.53 C 20.84,40.46 22.07,39.38 23.21,38.81 C 23.59,38.62 25.55,37.7 27.18,36.93 C 26.94,35.04 26.71,33.2 26.71,32.53 C 26.71,30.91 17.71,21.9 13.46,16.75 C 10.13,12.69 8.09,9.28 6.15,6.28 z" id="p3254" style="fill:#9e702f;fill-opacity:1;fill-rule:evenodd;stroke:none;display:inline"/>
<path d="M 1.87,8.71 C 1.74,9.31 1.73,10.04 1.78,10.84 C 1.85,12.19 2.69,13.17 3.12,13.31 C 3.18,13.33 3.49,13.78 3.9,14.46 C 4.01,15.73 4.37,16.36 5.31,16.93 C 5.39,17.08 5.53,17.31 5.62,17.46 C 5.71,18.87 6.11,19.8 7.4,20.62 C 7.44,20.69 7.49,20.74 7.53,20.81 C 7.47,22.29 7.87,22.92 9.21,23.78 C 9.37,24.06 9.49,24.27 9.65,24.56 C 9.7,26.11 10,26.62 11,27 C 11.16,27.29 11.3,27.55 11.46,27.84 C 11.53,29.15 11.92,29.94 12.93,30.46 C 13.31,31.13 13.67,31.75 14,32.34 C 14.11,33.82 14.37,34.57 15.34,34.68 C 15.6,35.13 16.15,36.1 16.25,36.25 C 17.24,37.81 16.36,37.67 18,39.81 C 18.21,40.01 18.47,40.13 18.71,40.25 L 20.21,38.68 C 20.21,38.68 19.02,36.58 17.81,35.46 C 16.59,34.35 16.48,30.38 15.87,29.37 C 15.26,28.36 13.24,27.47 12.84,26.96 C 12.43,26.46 10.93,23.8 10.53,23 C 10.12,22.19 9.3,21.38 8.59,20.37 C 7.88,19.36 7.49,17.56 7.09,16.65 C 6.68,15.74 5.85,15.33 5.25,14.62 C 4.73,14.02 3.24,11.04 1.87,8.71 z" id="p3268" style="fill:#fad78a;fill-opacity:0.56;fill-rule:evenodd;stroke:none;display:inline"/>
<path d="M 19.31,23.31 C 19.16,23.82 19,24.36 19,24.68 C 19,25.4 20.75,28.11 21.46,28.9 C 22.18,29.7 24.18,30.4 24.18,30.4 C 24.18,30.4 23.38,31.93 22.75,32.25 C 22.11,32.56 20.59,33.53 20.59,33.53 C 20.59,33.53 20.42,33.03 20.03,33.03 C 19.63,33.03 19.08,33.76 18.68,34.4 C 18.35,34.94 18.02,36.39 17.5,39.12 C 17.63,39.32 17.79,39.54 18,39.81 C 18.53,40.31 19.21,40.47 19.75,40.53 L 22.34,34.46 L 26.75,33 C 26.74,32.89 26.72,32.7 26.71,32.62 L 26.25,31.5 C 25.16,29.79 22.27,26.57 19.31,23.31 z" id="p3303" style="fill:#d19f23;fill-opacity:0.47;fill-rule:evenodd;stroke:none;display:inline"/>
<path d="M 45.18,22.09 C 44.48,22.14 32.96,28.06 29.43,29.78 C 25.89,31.5 24.16,32.72 23.56,33.43 C 22.95,34.14 21.96,34.43 20.34,34.53 C 18.72,34.63 18.39,36.77 18.5,39 C 19,40.21 19.53,39.4 20.34,39.4 C 21.15,39.4 21.93,38.09 21.93,38.09 C 21.93,38.09 22.75,38.15 23.37,38.75 C 24.7,38.09 33.78,33.82 36.81,32.34 C 39.87,30.84 43.77,28.49 44.06,28.28 C 44.34,28.06 44.28,27.71 44.28,27.71 L 43.37,27.28 C 43.37,27.28 43.44,26 43.87,24.93 C 44.27,23.94 45.06,22.34 45.18,22.09 z" id="p3266" style="fill:#83690f;fill-opacity:0.91;fill-rule:evenodd;stroke:none;display:inline"/>
<path d="M 43.71,25.43 C 38.36,27.98 25.66,34.1 22.71,35.68 L 23.81,36.9 L 35.28,31.37 L 35.28,30.56 C 35.28,30.56 41.1,27.17 43,26.5 C 43.17,26.43 43.33,26.41 43.5,26.37 C 43.54,26.08 43.62,25.77 43.71,25.43 z" id="p3520" style="fill:#13110b;fill-opacity:0.28;fill-rule:evenodd;stroke:none"/>
<path d="M 44.37,19.46 C 44.19,19.78 44.2,20.24 44.4,21 C 44.55,21.54 44.68,22.16 44.87,22.75 C 45.06,22.35 45.28,21.93 45.28,21.93 L 46.43,21.93 C 46.43,21.93 46.35,20.93 46,20.71 C 45.97,20.7 44.6,19.64 44.37,19.46 z" id="p3264" style="fill:#fad78a;fill-opacity:0.56;fill-rule:evenodd;stroke:none;display:inline"/>
<path d="M 22.21,3.12 C 23.05,4.24 24.37,5.37 24.9,5.75 C 25.7,6.3 31.82,10.3 32.93,11.34 C 34.05,12.37 41.12,18.33 42,18.96 C 42.87,19.6 45.18,20.47 45.34,21.03 C 45.39,21.21 45.41,21.56 45.43,21.93 L 46.43,21.93 C 46.43,21.93 46.35,20.93 46,20.71 C 45.64,20.5 23.86,3.22 23.15,3.15 C 22.93,3.13 22.55,3.12 22.21,3.12 z" id="p3299" style="fill:#8b774a;fill-opacity:0.41;fill-rule:evenodd;stroke:none;display:inline"/>
<path d="M 44.53,23.5 L 32.43,28.81 L 32.71,31.37 L 43.56,26.06 C 43.63,25.69 43.72,25.31 43.87,24.93 C 44.03,24.53 44.29,23.99 44.53,23.5 z" id="p3525" style="fill:#b3963b;fill-opacity:0.23;fill-rule:evenodd;stroke:none"/>
<path d="M 43.43,27.31 C 40.27,28.82 29.45,34.43 28.62,34.78 C 27.93,35.06 24.89,36.74 22.12,38.12 C 22.34,38.15 22.87,38.26 23.37,38.75 C 24.7,38.09 33.78,33.82 36.81,32.34 C 39.87,30.84 43.77,28.49 44.06,28.28 C 44.34,28.06 44.28,27.71 44.28,27.71 L 43.43,27.31 z M 21.81,38.31 C 20.88,38.77 19.99,39.18 19.25,39.5 L 19.21,39.65 C 19.53,39.64 19.89,39.4 20.34,39.4 C 20.95,39.4 21.55,38.68 21.81,38.31 z" id="p3301" style="fill:#634a2c;fill-opacity:1;fill-rule:evenodd;stroke:none;display:inline"/>
<path d="M 3.56,7.12 C 2.92,7.35 2.47,7.53 2.34,7.68 C 2.16,7.88 2.05,8.14 1.96,8.43 C 3.04,9.39 3.98,9.13 4.37,10.12 C 4.85,11.31 6.2,11.97 6.28,12.68 C 6.36,13.4 7.71,18.02 8.18,17.31 C 8.66,16.59 9.79,17.85 10.03,18.96 C 10.26,20.08 10.97,20.96 11.53,21.28 C 12.08,21.59 12.96,24.28 14,24.84 C 15.03,25.4 15.5,26.53 15.5,27.4 C 15.5,28.28 16.93,30.09 17.25,30.09 C 17.56,30.09 18.38,31.14 18.93,30.9 C 19.49,30.66 18.53,30.32 17.5,29.37 C 16.46,28.42 16.87,26.05 15.28,24.93 C 13.69,23.82 12.57,22.3 12.09,21.03 C 11.61,19.75 10.57,19.51 9.93,18 C 9.3,16.48 8.82,15.3 8.34,14.75 C 7.86,14.19 6.21,12.44 6.21,11.81 C 6.21,11.17 5.16,10.76 4.68,9.81 C 4.35,9.15 4.02,7.86 3.56,7.12 z" id="p3305" style="fill:#fad78a;fill-opacity:0.3;fill-rule:evenodd;stroke:none;display:inline"/>
<path d="M 45.18,22.09 C 44.48,22.14 32.96,28.06 29.43,29.78 C 25.89,31.5 24.21,32.02 23.38,32.44 C 22.32,32.96 21.5,33.7 20.34,34.53 C 19.02,35.46 18.39,36.77 18.5,39 C 19,40.21 19.53,39.4 20.34,39.4 C 21.15,39.4 21.93,38.09 21.93,38.09 C 21.93,38.09 22.75,38.15 23.37,38.75 C 23.46,38.7 24.1,38.41 24.25,38.34 C 25.08,34.58 25.15,33.75 25.62,33.21 C 26.18,32.58 33.95,28.97 34.9,28.65 C 35.65,28.4 41.36,25.52 44.25,24.06 C 44.64,23.19 45.09,22.28 45.18,22.09 z" id="p3307" style="fill:#2f2506;fill-opacity:0.77;fill-rule:evenodd;stroke:none;display:inline"/>
<path d="M 19.81,33.12 C 19.81,33.12 18.57,33.98 18.25,35.06 C 17.92,36.13 18.26,37.42 17.56,37.9 C 17.38,38.03 17.25,38.23 17.15,38.46 C 17.31,38.79 17.54,39.21 18,39.81 C 18.39,40.17 18.87,40.36 19.31,40.46 C 19.29,40.34 19.23,40.23 19.15,40.06 C 18.72,39.14 18.68,35.58 21.15,34.18 C 19.97,33.22 19.81,33.12 19.81,33.12 z" id="p3334" style="fill:#ca9218;fill-opacity:0.88;fill-rule:evenodd;stroke:none;display:inline"/>
<path d="M 1.93,8.56 C 1.8,9.06 1.73,9.67 1.75,10.34 C 1.75,10.34 1.78,10.34 1.78,10.34 C 2.26,10.03 2.66,10.09 2.93,10.34 C 3.38,10.74 3.36,12.03 3.71,12.34 C 4.07,12.65 5.28,13.28 5.28,14 C 5.28,14.71 6.07,15.86 6.03,16 C 5.98,16.13 6.73,15.54 7,16.03 C 7.26,16.51 7.54,18.75 7.71,18.84 C 7.89,18.93 8.46,19.15 8.46,19.15 C 8.46,19.15 8.57,20.24 9.06,20.46 C 9.55,20.69 10.5,21.63 10.68,22.34 C 10.86,23.05 11.01,24.21 11.28,24.21 C 11.54,24.21 12.34,24.75 12.43,25.59 C 12.52,26.43 13.34,28.55 13.96,28.68 C 14.59,28.82 15.63,31.51 15.59,30.71 C 15.54,29.91 16.2,28.88 16.56,28.75 C 16.91,28.61 15.12,28.69 15.21,27.09 C 15.3,25.49 13.93,24.68 13.93,24.68 C 13.93,24.68 12.74,26.16 12.96,25.5 C 13.19,24.83 13.48,24.01 13.12,23.53 C 12.76,23.04 11.53,23.59 11.84,22.53 C 12.15,21.46 11.85,21.32 11.4,21.06 C 10.96,20.79 10.96,22.12 10.56,21.5 C 10.16,20.87 9.09,20.21 9.09,19.28 C 9.09,18.34 9.95,17.94 9.46,17.5 C 8.98,17.05 7.98,17.82 7.62,16.93 C 7.26,16.04 7.9,14.65 7.37,14.34 C 6.84,14.03 6.25,15.13 6.03,14.78 C 5.8,14.42 6.61,13.34 6.12,12.81 C 5.63,12.27 5.07,12.69 5.03,12.34 C 4.98,11.98 5.47,11.19 4.93,10.96 C 4.57,10.81 2.93,9.53 1.93,8.56 z" id="p3368" style="fill:#694a2c;fill-opacity:0.65;fill-rule:evenodd;stroke:none;display:inline"/>
<path d="M 14.29,21.76 C 14.87,21.49 15.75,21.67 15.75,22.69 C 15.75,23.71 15.18,22.91 14.64,22.91 C 14.11,22.91 14.02,21.94 14.29,21.76 z" id="p3370" style="fill:#311f0e;fill-opacity:0.56;fill-rule:evenodd;stroke:none;display:inline"/>
<path d="M 16.86,26.07 C 16.73,26.47 16.86,27 17.44,27 C 18.02,27 18.82,28.06 18.73,27.26 C 18.64,26.47 18.42,25.67 18.06,25.67 C 17.71,25.67 16.86,25.67 16.86,26.07 z" id="p3372" style="fill:#311f0e;fill-opacity:0.65;fill-rule:evenodd;stroke:none;display:inline"/>
<path d="M 11.67,18.7 C 12.38,18.61 13.09,19.19 13.09,19.36 C 13.09,19.54 12.78,19.72 12.16,19.59 C 11.54,19.45 11.31,18.74 11.67,18.7 z" id="p3374" style="fill:#311f0e;fill-opacity:0.46;fill-rule:evenodd;stroke:none;display:inline"/>
<path d="M 9.58,16.52 C 9.98,16.39 10.52,16.12 10.2,15.68 C 9.89,15.24 9.58,15.28 9.32,15.46 C 9.05,15.63 9.05,16.61 9.58,16.52 z" id="p3376" style="fill:#311f0e;fill-opacity:0.36;fill-rule:evenodd;stroke:none;display:inline"/>
<path d="M 6.15,6.28 C 4.99,6.62 3.98,6.94 3.28,7.21 C 4.42,8.64 4.44,9.05 4.87,9.62 C 5.41,10.34 7.06,10.87 7.15,11.87 C 7.24,12.87 7.51,13.85 7.96,14.31 C 8.42,14.76 10.68,18.31 10.68,18.31 C 10.68,18.31 11.67,18.21 11.4,17.12 C 11.13,16.03 9.5,14.21 9.5,14.21 C 9.49,14.21 11.13,15.93 11.5,15.93 C 11.81,15.93 12.62,15.6 12.09,15.03 C 12.01,14.94 11.91,14.87 11.78,14.78 C 10.69,14.05 8.24,10.78 8.15,10.06 C 8.13,9.88 8.11,9.64 8.12,9.37 C 8.12,9.36 8.12,9.35 8.12,9.34 C 7.44,8.28 6.78,7.24 6.15,6.28 z" id="p3386" style="fill:#564a3f;fill-opacity:0.43;fill-rule:evenodd;stroke:none;display:inline"/>
<path d="M 13.03,18.21 C 12.72,18.37 14.5,20.84 14.5,20.84 C 14.5,20.84 13.38,19.76 12.84,19.31 C 12.3,18.85 11.66,18.75 11.03,19.03 C 10.39,19.3 12.3,20.83 13.03,21.56 C 13.75,22.28 13.77,23.02 13.5,23.75 C 13.22,24.47 14.92,24.27 15.56,24.09 C 16.19,23.91 16.57,25.01 16.93,25.46 C 17.29,25.92 16.2,26.17 15.75,26.71 C 15.29,27.26 16.66,28.45 16.93,28.81 C 17.2,29.17 18.37,28.79 19.28,31.06 C 20.18,33.32 18.09,30.35 17.37,29.81 C 16.65,29.26 18.48,31.97 18.84,32.96 C 19.2,33.96 20.09,33.34 20.09,33.34 L 21.18,34.59 C 21.18,34.59 22.45,33.86 22,33.68 C 21.54,33.5 19.74,30.43 19.75,30.43 C 19.75,30.43 20.74,30.88 21.37,32.15 C 22,33.42 23.26,31.62 23.81,30 C 24.35,28.37 19.46,25.82 18.46,25.18 C 17.47,24.55 17,22.48 17.28,22.84 C 17.48,23.11 19.24,23.93 20.31,24.43 C 19.59,23.64 18.88,22.86 18.15,22.06 C 17.99,21.98 17.86,21.93 17.75,21.93 C 16.84,21.93 13.84,19.03 13.12,18.21 C 13.08,18.2 13.05,18.2 13.03,18.21 z" id="p3388" style="fill:#564a3f;fill-opacity:0.43;fill-rule:evenodd;stroke:none;display:inline"/>
<path d="M 5.3,10.25 C 4.63,10.48 3.87,11.74 3.8,12.62 C 3.79,13.37 3.73,13.82 3.9,14.46 C 3.99,15.45 4.23,16.07 4.78,16.56 C 4.63,15.62 4.52,14.12 4.54,13.74 C 4.75,12.74 5.61,10.31 5.3,10.25 z" id="p3398" style="fill:#75512f;fill-opacity:0.52;fill-rule:evenodd;stroke:none;display:inline"/>
<path d="M 7.12,13.06 C 6.59,13.21 5.98,14.13 5.69,14.89 C 5.54,15.29 5.31,16.15 5.43,17.15 C 5.5,17.26 5.57,17.37 5.62,17.46 C 5.68,18.41 5.91,19.12 6.43,19.75 C 6.27,18.92 6.04,17.28 6.18,16.15 C 6.33,14.94 6.46,14.62 7.46,13.15 C 7.41,13.04 7.3,13.01 7.12,13.06 z" id="p3400" style="fill:#583717;fill-opacity:0.48;fill-rule:evenodd;stroke:none;display:inline"/>
<path d="M 9.5,15.78 C 8.72,15.66 7.85,17.16 7.58,17.97 C 7.22,18.97 7.5,19.82 7.53,20.81 C 7.49,21.57 7.85,22.35 8.13,22.81 C 8.16,21.42 8.13,19.65 8.29,18.79 C 8.43,18 8.75,16.88 9.78,16.19 C 9.7,16.1 9.61,15.79 9.5,15.78 z" id="p3402" style="fill:#553b22;fill-opacity:0.65;fill-rule:evenodd;stroke:none;display:inline"/>
<path d="M 12.03,19.09 C 12.03,19.09 10.3,20.08 9.84,21.08 C 9.59,21.63 9.48,22.95 9.56,24.37 C 9.59,24.43 9.61,24.49 9.65,24.56 C 9.69,25.66 9.98,26.29 10.44,26.66 C 10.19,24.58 10.32,22.51 10.61,21.79 C 10.84,21.21 11.64,19.63 12.03,19.56 C 12.41,19.48 12.03,19.09 12.03,19.09 z" id="p3404" style="fill:#4b2d0f;fill-opacity:0.48;fill-rule:evenodd;stroke:none;display:inline"/>
<path d="M 14.59,22.41 C 12.81,22.95 12.01,24.48 11.78,25.71 C 11.64,26.45 11.6,27.67 11.59,28.71 C 11.68,29.09 12.18,29.71 12.38,29.98 C 12.24,28.75 12.18,26.46 12.54,25.47 C 13.06,24.03 15.79,23.18 15.4,23.03 C 15.02,22.87 14.51,22.34 14.59,22.41 z" id="p3406" style="fill:#4b2d0f;fill-opacity:0.48;fill-rule:evenodd;stroke:none;display:inline"/>
<path d="M 18.34,26.56 L 17.56,26.65 C 17.56,26.65 16.05,27.41 15.12,28.34 C 14.29,29.17 14.2,32.09 14.46,34.18 C 14.58,34.35 14.72,34.47 14.9,34.56 C 14.85,33.71 14.81,32.75 14.87,31.81 C 15.02,29.49 15.8,28.56 16.5,27.87 C 17.19,27.18 18.34,26.56 18.34,26.56 z" id="p3408" style="fill:#41270d;fill-opacity:0.58;fill-rule:evenodd;stroke:none;display:inline"/>
<path d="M 18.96,39.01 C 19.48,39.57 20.01,39.8 20.23,39.72 C 20.45,39.65 22.09,37.86 22.09,37.86 C 22.09,37.86 19.82,39.13 18.96,39.01 z" id="p3439" style="fill:#211406;fill-opacity:0.83;fill-rule:evenodd;stroke:none;display:inline"/>
<path d="M 19.52,36.18 C 20.23,36.48 22.8,35.29 22.8,35.29 C 22.8,35.29 22.24,34.54 21.42,34.84 C 20.6,35.14 19.63,35.14 19.52,36.18 z" id="p3441" style="fill:#211406;fill-opacity:0.83;fill-rule:evenodd;stroke:none;display:inline"/>
<path d="M 21.62,3.12 C 21.03,3.13 20.42,3.15 20,3.15 C 19.14,3.15 15.52,3.77 12.25,4.62 C 11.94,4.7 11.53,4.81 11.18,4.9 C 11.33,5.11 11.49,5.31 11.65,5.5 C 13.39,6.23 14.88,6.88 15.84,7 C 17.72,7.23 24.31,9.71 25.84,9.71 C 26.97,9.71 28.99,9.59 30.78,8.81 C 26.86,5.77 23.44,3.18 23.15,3.15 C 22.8,3.12 22.21,3.11 21.62,3.12 z" id="p3506" style="fill:#1a1d22;fill-opacity:0.11;fill-rule:evenodd;stroke:none;display:inline"/>
<path d="M 3.75,14.19 C 3.58,12.76 3.88,10.69 5.13,10.26" id="p3340" style="fill:none;fill-rule:evenodd;stroke:#c8a80a;stroke-width:0.5;stroke-linecap:round;stroke-linejoin:miter;stroke-miterlimit:4;stroke-dasharray:none;stroke-opacity:0.58"/>
<path d="M 44.33,27.87 L 26.47,36.75 L 20.48,40.02 C 20.48,40.02 19.4,41.01 18.94,39.65 C 18.49,38.29 19.41,35.7 19.67,35.39 C 20.67,34.21 24.75,31.86 26.47,31.04 C 28.19,30.23 45.24,22.16 45.24,22.16" id="p3330" style="fill:none;fill-rule:evenodd;stroke:#8a7827;stroke-width:0.5;stroke-linecap:butt;stroke-linejoin:miter;stroke-miterlimit:4;stroke-dasharray:none;stroke-opacity:0.76;display:inline"/>
<path d="M 5.39,17.17 C 5.39,15.65 5.39,13.06 7.29,13.02" id="p3342" style="fill:none;fill-rule:evenodd;stroke:#d9b50b;stroke-width:0.5;stroke-linecap:round;stroke-linejoin:miter;stroke-miterlimit:4;stroke-dasharray:none;stroke-opacity:0.67"/>
<path d="M 7.46,20.75 C 7.29,18.16 7.29,16.26 9.32,15.87" id="p3344" style="fill:none;fill-rule:evenodd;stroke:#e7ca0d;stroke-width:0.5;stroke-linecap:round;stroke-linejoin:miter;stroke-miterlimit:4;stroke-dasharray:none;stroke-opacity:0.7"/>
<path d="M 9.45,24.42 C 9.45,21.74 9.54,19.8 11.91,19.02" id="p3346" style="fill:none;fill-rule:evenodd;stroke:#e7ca0d;stroke-width:0.5;stroke-linecap:round;stroke-linejoin:miter;stroke-miterlimit:4;stroke-dasharray:none;stroke-opacity:0.7"/>
<path d="M 11.48,27.96 C 11.48,25.02 11.78,23.38 14.29,22.3" id="p3348" style="fill:none;fill-rule:evenodd;stroke:#f3d306;stroke-width:0.5;stroke-linecap:round;stroke-linejoin:miter;stroke-miterlimit:4;stroke-dasharray:none;stroke-opacity:0.7"/>
<path d="M 14.11,32.62 C 13.98,29.69 14.37,28.05 17.01,26.62" id="p3350" style="fill:none;fill-rule:evenodd;stroke:#fcdb02;stroke-width:0.5;stroke-linecap:round;stroke-linejoin:miter;stroke-miterlimit:4;stroke-dasharray:none;stroke-opacity:0.7"/>
<path d="M 21.62,3.12 C 21.03,3.13 20.42,3.15 20,3.15 C 19.14,3.15 15.52,3.77 12.25,4.62 C 8.97,5.47 2.91,7.04 2.34,7.68 C 1.77,8.32 1.71,9.49 1.78,10.84 C 1.85,12.19 2.69,13.17 3.12,13.31 C 3.18,13.33 3.49,13.78 3.9,14.46 C 4.01,15.73 4.37,16.36 5.31,16.93 C 5.39,17.08 5.53,17.31 5.62,17.46 C 5.71,18.87 6.11,19.8 7.4,20.62 C 7.44,20.69 7.49,20.74 7.53,20.81 C 7.47,22.29 7.87,22.92 9.21,23.78 C 9.37,24.06 9.49,24.27 9.65,24.56 C 9.7,26.11 10,26.62 11,27 C 11.16,27.29 11.3,27.55 11.46,27.84 C 11.53,29.15 11.92,29.94 12.93,30.46 C 13.31,31.13 13.67,31.75 14,32.34 C 14.11,33.82 14.37,34.57 15.34,34.68 C 15.6,35.13 16.15,36.1 16.25,36.25 C 17.24,37.81 16.36,37.67 18,39.81 C 18.92,40.66 20.27,40.6 20.56,40.53 C 20.84,40.46 22.07,39.38 23.21,38.81 C 24.35,38.24 33.75,33.83 36.81,32.34 C 39.87,30.84 43.77,28.49 44.06,28.28 C 44.34,28.06 44.28,27.71 44.28,27.71 L 43.37,27.28 C 43.37,27.28 43.44,26 43.87,24.93 C 44.3,23.86 45.28,21.93 45.28,21.93 L 46.43,21.93 C 46.43,21.93 46.35,20.93 46,20.71 C 45.64,20.5 23.86,3.22 23.15,3.15 C 22.8,3.12 22.21,3.11 21.62,3.12 z" id="stroke01" style="fill:none;fill-opacity:1;fill-rule:evenodd;stroke:#110e04;stroke-width:0.5;stroke-linecap:butt;stroke-linejoin:miter;stroke-miterlimit:4;stroke-dasharray:none;stroke-opacity:1;display:inline"/>
<path d="M 14.25,24.2 L 15.13,25.41" id="p3352" style="fill:none;fill-rule:evenodd;stroke:#f2ec51;stroke-width:0.80;stroke-linecap:round;stroke-linejoin:miter;stroke-miterlimit:4;stroke-dasharray:none;stroke-opacity:0.37"/>
<path d="M 17.98,29.68 L 19.4,31.33" id="p3354" style="fill:none;fill-rule:evenodd;stroke:#eae16f;stroke-width:1px;stroke-linecap:round;stroke-linejoin:miter;stroke-opacity:0.55"/>
<path d="M 15.59,27.40 C 15.45,27.45 15.22,27.63 15,27.93 C 14.69,28.34 14.54,28.72 14.62,28.78 C 14.70,28.84 15.01,28.56 15.31,28.15 C 15.61,27.75 15.80,27.46 15.71,27.40 C 15.69,27.39 15.63,27.38 15.59,27.40 z" id="p3356" style="fill:#fefef7;fill-opacity:0.83;fill-rule:evenodd;stroke:none;marker:none;visibility:visible;display:inline;overflow:visible;enable-background:accumulate"/>
<path d="M 12.75,23.47 C 12.46,23.82 12.09,23.99 11.93,23.85 C 11.77,23.72 11.87,23.32 12.17,22.97 C 12.46,22.63 12.83,22.45 12.99,22.59 C 13.15,22.73 13.05,23.12 12.75,23.47 L 12.75,23.47 z" id="p3360" style="fill:#fbfae5;fill-opacity:0.70;fill-rule:evenodd;stroke:none;marker:none;visibility:visible;display:inline;overflow:visible;enable-background:accumulate"/>
<path d="M 21.42,35.96 C 22.43,37.75 23.14,38.27 23.28,38.98 C 23.43,39.69 23.92,41.44 24.22,41.73 C 24.51,42.03 25.3,42.82 25.3,42.82 L 25.71,41.96 L 27.16,42.07 C 27.16,42.07 26.08,41.18 25.78,40.21 C 25.48,39.24 25.15,37.64 24.66,36.93 C 24.18,36.22 22.99,34.65 22.99,34.65 L 21.27,35.59 L 21.42,35.96 z" id="p3435" style="fill:#963e19;fill-opacity:1;fill-rule:evenodd;stroke:none"/>
<path d="M 23,34.65 L 21.28,35.59 L 21.43,35.96 C 21.45,35.99 21.45,36 21.46,36.03 C 22.45,37.76 23.13,38.27 23.28,38.96 C 23.31,39.12 23.4,39.41 23.46,39.65 L 25.62,39.56 C 25.36,38.62 25.05,37.51 24.65,36.93 C 24.17,36.22 23,34.65 23,34.65 z" id="p3469" style="fill:#56130a;fill-opacity:0.56;fill-rule:evenodd;stroke:none;display:inline"/>
<path d="M 23,34.65 L 21.34,35.56 L 23.43,38.56 L 24.18,36.31 C 23.65,35.59 23,34.65 23,34.65 z" id="p3471" style="fill:#2d0a05;fill-opacity:0.56;fill-rule:evenodd;stroke:none;display:inline"/>
<path d="M 25.87,40.43 L 24.81,42.15 L 24.9,42.4 C 25.06,42.56 25.31,42.81 25.31,42.81 L 25.71,41.96 L 27.15,42.06 C 27.15,42.06 26.25,41.31 25.87,40.43 z" id="p3475" style="fill:#d9d618;fill-opacity:0.4;fill-rule:evenodd;stroke:none;display:inline"/>
<path d="M 21.27,35.59 L 21.42,35.96 C 22.43,37.75 23.14,38.27 23.28,38.98 C 23.43,39.69 23.92,41.44 24.22,41.73 C 24.51,42.03 25.3,42.82 25.3,42.82 L 25.71,41.96 L 27.16,42.07 C 27.16,42.07 26.08,41.18 25.78,40.21 C 25.48,39.24 25.15,37.64 24.66,36.93 C 24.18,36.22 22.99,34.65 22.99,34.65" id="p3449" style="fill:none;fill-opacity:1;fill-rule:evenodd;stroke:#522113;stroke-width:0.2;stroke-linecap:butt;stroke-linejoin:miter;stroke-miterlimit:4;stroke-dasharray:none;stroke-opacity:1;display:inline"/>
<path d="M 20.12,36.15 C 20.12,36.15 21.31,37.08 21.46,37.52 C 21.61,37.97 21.87,42.82 21.87,42.82 C 21.87,42.82 23.25,44.94 23.4,45.2 C 23.55,45.46 23.99,46.17 23.99,46.17 C 23.99,46.17 24.18,37.97 23.88,37.41 C 23.58,36.85 22.05,35.14 22.05,35.14 L 20.12,36.15 z" id="p3437" style="fill:#a33906;fill-opacity:1;fill-rule:evenodd;stroke:none"/>
<path d="M 22.06,35.15 L 21.28,35.56 L 21.09,36.71 L 22.75,37.56 L 21.62,39.09 C 21.62,39.13 21.62,39.17 21.62,39.21 L 22.87,40.56 L 21.96,41.68 L 23.03,43.09 L 22.37,43.59 C 22.79,44.24 23.3,45.04 23.4,45.21 C 23.43,45.26 23.46,45.31 23.5,45.37 L 24.03,44.87 C 24.03,44.62 24.02,44.28 24.03,43.9 L 23.25,43.21 L 24.06,42.03 C 24.06,42.01 24.06,42.01 24.06,42 C 24.06,41.88 24.06,41.79 24.06,41.68 L 23.12,40.62 L 23.96,39 L 22.87,37.46 L 23.31,36.62 C 22.76,35.93 22.06,35.15 22.06,35.15 z" id="p3455" style="fill:#d3db04;fill-opacity:0.22;fill-rule:evenodd;stroke:none;display:inline"/>
<path d="M 22.06,35.15 L 20.12,36.15 C 20.12,36.15 21.22,37 21.43,37.46 L 22.87,36.06 C 22.45,35.56 22.06,35.15 22.06,35.15 z" id="p3453" style="fill:#211406;fill-opacity:0.58;fill-rule:evenodd;stroke:none;display:inline"/>
<path d="M 21.78,41.18 C 21.82,41.9 21.87,42.81 21.87,42.81 C 21.87,42.81 22.2,43.34 22.46,43.75 L 24.06,43.03 C 24.07,42.34 24.06,42.11 24.06,41.37 L 21.78,41.18 z" id="p3473" style="fill:#442708;fill-opacity:0.56;fill-rule:evenodd;stroke:none;display:inline"/>
<path d="M 20.12,36.15 C 20.12,36.15 21.31,37.08 21.46,37.52 C 21.61,37.97 21.87,42.82 21.87,42.82 C 21.87,42.82 23.25,44.94 23.4,45.2 C 23.55,45.46 23.99,46.17 23.99,46.17 C 23.99,46.17 24.18,37.97 23.88,37.41 C 23.58,36.85 22.05,35.14 22.05,35.14" id="p3447" style="fill:none;fill-opacity:1;fill-rule:evenodd;stroke:#491508;stroke-width:0.2;stroke-linecap:butt;stroke-linejoin:miter;stroke-miterlimit:4;stroke-dasharray:none;stroke-opacity:1;display:inline"/>
<path d="M 20.12,36.26 L 23.1,34.65" id="p3451" style="fill:none;fill-rule:evenodd;stroke:#331307;stroke-width:0.30;stroke-linecap:square;stroke-linejoin:miter;stroke-miterlimit:4;stroke-dasharray:none;stroke-opacity:1"/>
</g>
</svg>
