<?xml version="1.0" encoding="UTF-8" standalone="no"?>
<!DOCTYPE svg PUBLIC "-//W3C//DTD SVG 1.0//EN" "http://www.w3.org/TR/2001/REC-SVG-20010904/DTD/svg10.dtd">
<svg xmlns:svg="http://www.w3.org/2000/svg" xmlns="http://www.w3.org/2000/svg" version="1.0" width="100%" height="100%" viewBox="0 0 48 48" id="_bookOld03">
<defs id="defs2385"/>
<g id="bookOld03" style="display:inline">
<path d="M 9.99,3.91 C 9.24,4.66 9.64,7.81 9.64,10.36 C 9.64,12.91 9.79,27.6 9.79,29.55 C 9.79,31.5 9.79,37.95 9.79,38.55 C 9.79,39.15 10.04,40.45 10.29,40.7 C 10.54,40.95 16.49,42.5 18.39,42.95 C 20.29,43.4 28.08,45.55 28.28,45.5 C 28.48,45.45 28.78,45.4 28.78,45.4 C 28.78,45.4 28.88,45.65 29.13,45.65 C 29.38,45.65 31.18,45.65 32.78,45.35 C 34.38,45.05 35.43,44.75 35.68,44.6 C 35.93,44.45 36.63,43.7 36.68,43.4 C 36.73,43.1 36.48,40.4 36.58,39.95 C 36.68,39.5 36.83,37.75 36.78,36.9 C 36.73,36.05 36.63,34.9 36.78,34.5 C 36.93,34.1 36.78,33.6 36.78,32.9 C 36.78,32.2 36.83,28.85 36.98,28.6 C 37.13,28.35 37.23,28.1 37.23,27.75 C 37.23,27.4 37.03,27.15 37.08,26.5 C 37.13,25.85 37.18,23.6 37.23,23.26 C 37.28,22.91 37.58,22.41 37.58,22.16 C 37.58,21.91 37.38,21.56 37.38,21.06 C 37.38,20.56 37.58,17.16 37.58,16.81 C 37.58,16.46 37.93,16.21 37.93,15.96 C 37.93,15.71 37.63,15.36 37.63,15.11 C 37.63,14.86 37.73,11.21 37.88,10.76 C 38.03,10.31 38.13,10.11 38.03,9.66 C 37.93,9.21 38.28,6.71 38.38,6.16 C 38.48,5.61 38.43,3.81 38.43,3.56 C 38.43,3.31 38.08,2.81 37.93,2.81 C 37.78,2.81 37.33,2.91 35.93,2.76 C 34.53,2.61 31.38,2.31 30.98,2.31 C 30.58,2.31 30.33,2.41 30.03,2.36 C 29.73,2.31 29.43,2.21 28.28,2.26 C 27.13,2.31 18.69,2.96 17.19,3.06 C 15.69,3.16 10.59,3.46 9.99,3.91 z" id="p2585" style="fill:#a14a33;fill-opacity:1;fill-rule:evenodd;stroke:none"/>
<path d="M 28.28,2.28 C 27.77,2.3 25.52,2.46 23.4,2.62 C 20.09,6.1 17.51,9.68 17.31,10.87 C 17.06,12.37 18.93,13.84 18.31,14.96 C 17.68,16.09 17.18,15.71 16.43,15.84 C 15.68,15.96 15.43,20.35 15.68,22.71 C 15.93,25.08 16.81,26.43 16.43,26.93 C 16.06,27.43 14.93,27.19 15.18,28.43 C 15.43,29.68 17.94,35.4 20.56,35.4 C 23.17,35.4 19.81,39.66 21.81,42.9 C 22.07,43.33 22.43,43.72 22.87,44.12 C 25.54,44.83 28.16,45.52 28.28,45.5 C 28.48,45.45 28.78,45.4 28.78,45.4 C 28.78,45.4 28.87,45.65 29.12,45.65 C 29.37,45.65 31.18,45.64 32.78,45.34 C 34.38,45.04 35.43,44.74 35.68,44.59 C 35.93,44.44 36.63,43.7 36.68,43.4 C 36.73,43.1 36.49,40.41 36.59,39.96 C 36.69,39.51 36.83,37.75 36.78,36.9 C 36.73,36.05 36.63,34.89 36.78,34.5 C 36.93,34.1 36.78,33.6 36.78,32.9 C 36.78,32.2 36.85,28.84 37,28.59 C 37.14,28.34 37.25,28.09 37.25,27.75 C 37.25,27.4 37.04,27.14 37.09,26.5 C 37.14,25.85 37.2,23.59 37.25,23.25 C 37.29,22.9 37.59,22.4 37.59,22.15 C 37.59,21.9 37.37,21.56 37.37,21.06 C 37.37,20.56 37.59,17.16 37.59,16.81 C 37.59,16.46 37.93,16.21 37.93,15.96 C 37.93,15.71 37.62,15.37 37.62,15.12 C 37.62,14.87 37.72,11.19 37.87,10.75 C 38.02,10.3 38.13,10.1 38.03,9.65 C 37.93,9.2 38.27,6.7 38.37,6.15 C 38.47,5.6 38.43,3.81 38.43,3.56 C 38.43,3.31 38.08,2.81 37.93,2.81 C 37.78,2.81 37.33,2.93 35.93,2.78 C 34.53,2.63 31.39,2.31 31,2.31 C 30.6,2.31 30.33,2.42 30.03,2.37 C 29.73,2.32 29.43,2.23 28.28,2.28 z" id="p3363" style="fill:#813916;fill-opacity:0.47;fill-rule:evenodd;stroke:none;display:inline"/>
<path d="M 28.28,2.28 C 28.06,2.29 26.84,2.39 26.21,2.43 C 24.71,3.66 23.84,5.17 23.56,6.12 C 23.18,7.37 18.69,10.6 20.18,14.09 C 21.68,17.58 20.81,20.59 21.31,20.96 C 21.81,21.34 23.81,20.97 24.43,22.21 C 25.06,23.46 26.66,28.68 29.4,28.93 C 31.76,29.15 35.94,26.55 37.12,25.78 C 37.16,24.85 37.21,23.52 37.25,23.25 C 37.25,23.19 37.29,23.12 37.31,23.06 L 34.59,2.65 C 33.08,2.5 31.3,2.31 31,2.31 C 30.6,2.31 30.33,2.42 30.03,2.37 C 29.73,2.32 29.43,2.23 28.28,2.28 z" id="p3365" style="fill:#bb684b;fill-opacity:0.45;fill-rule:evenodd;stroke:none;display:inline"/>
<path d="M 9.65,12.43 C 9.67,15.03 9.71,18.44 9.75,22.65 C 11.04,24.08 13.04,25.43 14.46,26.06 C 16.71,27.05 17.69,32.78 19.43,33.15 C 21.18,33.53 22.68,34.16 22.18,35.65 C 21.68,37.15 24.91,40.9 26.9,42.03 C 28.13,42.72 28.96,44.19 29.84,45.62 C 30.49,45.61 31.45,45.56 32.56,45.37 C 32.61,41.52 31.65,34.98 30.4,35.15 C 28.53,35.4 23.68,28.18 21.93,26.31 C 20.19,24.44 19.68,25.43 18.18,25.43 C 16.69,25.43 15.33,20.96 13.09,18.84 C 11.63,17.46 10.58,15.17 9.65,12.43 z" id="p3367" style="fill:#773321;fill-opacity:0.43;fill-rule:evenodd;stroke:none;display:inline"/>
<path d="M 14.53,29.28 C 13.04,29.3 11.43,29.48 9.78,29.87 C 9.78,31.25 9.78,33.29 9.78,35.4 C 12.54,35.55 12.12,31.87 13.09,30.68 C 14.21,29.31 18.56,30.31 19.31,32.18 C 20.06,34.05 26.28,37.28 27.28,40.03 C 27.8,41.47 27.82,43.38 27.18,45.25 C 27.74,45.38 28.24,45.51 28.28,45.5 C 28.48,45.45 28.78,45.4 28.78,45.4 C 28.78,45.4 28.87,45.65 29.12,45.65 C 29.33,45.65 30.66,45.65 32.03,45.46 C 32.25,42.76 32.03,39.57 30.9,38.15 C 28.91,35.66 23.8,32.43 21.56,30.81 C 20.3,29.9 17.69,29.23 14.53,29.28 z" id="p3369" style="fill:#64241b;fill-opacity:0.22;fill-rule:evenodd;stroke:none;display:inline"/>
<path d="M 11.31,36.43 C 10.86,36.41 10.37,36.49 9.78,36.65 C 9.78,37.2 9.78,38.43 9.78,38.56 C 9.78,39.16 10.03,40.43 10.28,40.68 C 10.53,40.93 16.5,42.48 18.4,42.93 C 18.63,42.99 19.37,43.18 19.75,43.28 C 19.4,42.63 18.96,42.04 18.68,41.65 C 17.69,40.28 15.96,40.52 13.96,38.15 C 12.97,36.97 12.23,36.48 11.31,36.43 z" id="p3371" style="fill:#401d18;fill-opacity:0.15;fill-rule:evenodd;stroke:none;display:inline"/>
<path d="M 12.03,3.53 C 11.04,3.65 10.21,3.74 10,3.9 C 9.55,4.34 9.52,5.65 9.56,7.15 C 10.55,7.66 11.46,8.31 11.46,9 C 11.46,8.99 13.09,12.37 14.34,12.37 C 15.58,12.37 18.31,10.62 18.31,10.62 L 17.31,9 C 17.31,8.99 15.56,11.12 15.31,10 C 15.1,9.05 15.23,7.95 15.28,7.56 C 15.17,8.12 14.84,9.25 13.71,9.25 C 12.22,9.25 12.34,8.37 12.71,7.5 C 13.09,6.62 12.09,5.49 11.46,5.37 C 11.1,5.3 11.56,4.35 12.03,3.53 z" id="p3382" style="fill:#773321;fill-opacity:0.43;fill-rule:evenodd;stroke:none;display:inline"/>
<path d="M 32.39,16.34 C 27.53,19.71 25.41,18.96 23.92,18.96 C 22.42,18.96 21.8,19.96 21.8,19.96 C 21.8,19.96 21.8,17.34 20.68,17.09 C 19.56,16.84 16.07,16.72 16.07,15.47 C 16.07,14.23 18.06,15.1 18.06,14.1 C 18.06,13.1 15.2,13.48 15.2,12.48 C 15.2,11.49 17.44,10.24 17.44,10.24 C 17.44,10.24 18.06,13.85 19.31,12.98 C 20.56,12.11 19.31,10.11 19.31,10.11 C 19.31,10.11 21.68,12.48 23.17,12.61 C 24.67,12.73 24.04,12.23 27.78,13.1 C 31.52,13.98 33.39,16.34 33.39,16.34 L 32.39,16.34 z" id="p3378" style="fill:#c68f67;fill-opacity:0.15;fill-rule:evenodd;stroke:none;display:inline"/>
<path d="M 22.67,3.51 C 21.55,4.26 22.18,5.5 21.3,6.25 C 20.43,7 22.05,6.63 20.18,8.12 C 18.31,9.62 21.05,11.49 22.8,10.36 C 24.54,9.24 21.8,9.49 22.42,7.87 C 23.05,6.25 25.04,6.63 24.67,4.88 C 24.29,3.14 22.67,3.63 22.67,3.51 z" id="p3380" style="fill:#712f25;fill-opacity:0.31;fill-rule:evenodd;stroke:none;display:inline"/>
<path d="M 28.28,2.28 C 27.13,2.33 18.68,2.96 17.18,3.06 C 15.68,3.16 10.59,3.45 10,3.9 C 9.6,4.3 9.51,5.41 9.53,6.71 C 10.57,4.55 10.51,4.48 11.71,4.37 C 13.08,4.25 19.44,3.87 21.18,3.87 C 22.93,3.87 28.15,2.78 28.78,3.15 C 29.4,3.53 29.41,4.37 31.65,4 C 32.27,3.89 32.98,3.32 33.71,2.56 C 32.45,2.44 31.24,2.31 31,2.31 C 30.6,2.31 30.33,2.42 30.03,2.37 C 29.73,2.32 29.43,2.23 28.28,2.28 z" id="p3405" style="fill:#ceb2ae;fill-opacity:0.31;fill-rule:evenodd;stroke:none;display:inline"/>
<path d="M 9.78,38.46 C 9.78,38.47 9.78,38.55 9.78,38.56 C 9.78,39.16 10.03,40.43 10.28,40.68 C 10.53,40.93 16.5,42.48 18.4,42.93 C 20.3,43.38 28.08,45.54 28.28,45.5 C 28.48,45.45 28.78,45.4 28.78,45.4 C 28.78,45.4 28.87,45.65 29.12,45.65 C 29.37,45.65 31.18,45.64 32.78,45.34 C 33.08,45.28 33.26,45.24 33.53,45.18 C 31.75,44.96 29.92,44.75 29.28,44.87 C 27.91,45.12 24.3,43.4 22.18,42.9 C 20.06,42.4 11.96,40.4 10.96,40.15 C 10.47,40.03 10.12,39.4 9.78,38.46 z" id="p3407" style="fill:#ceb2ae;fill-opacity:0.31;fill-rule:evenodd;stroke:none;display:inline"/>
<path d="M 28.75,2.28 C 28.52,5.94 28.15,12.7 28.15,14.71 C 28.15,17.21 27.9,32.16 27.65,35.03 C 27.4,37.89 26.9,41.38 26.9,43.5 C 26.9,43.97 26.99,44.59 27.09,45.21 C 27.73,45.38 28.23,45.51 28.28,45.5 C 28.48,45.45 28.78,45.4 28.78,45.4 C 28.78,45.4 28.87,45.65 29.12,45.65 C 29.37,45.65 31.18,45.64 32.78,45.34 C 34.38,45.04 35.43,44.74 35.68,44.59 C 35.93,44.44 36.63,43.7 36.68,43.4 C 36.73,43.1 36.49,40.41 36.59,39.96 C 36.69,39.51 36.83,37.75 36.78,36.9 C 36.73,36.05 36.63,34.89 36.78,34.5 C 36.93,34.1 36.78,33.6 36.78,32.9 C 36.78,32.2 36.85,28.84 37,28.59 C 37.14,28.34 37.25,28.09 37.25,27.75 C 37.25,27.4 37.04,27.14 37.09,26.5 C 37.14,25.85 37.2,23.59 37.25,23.25 C 37.29,22.9 37.59,22.4 37.59,22.15 C 37.59,21.9 37.37,21.56 37.37,21.06 C 37.37,20.56 37.59,17.16 37.59,16.81 C 37.59,16.46 37.93,16.21 37.93,15.96 C 37.93,15.71 37.62,15.37 37.62,15.12 C 37.62,14.87 37.72,11.19 37.87,10.75 C 38.02,10.3 38.13,10.1 38.03,9.65 C 37.93,9.2 38.27,6.7 38.37,6.15 C 38.47,5.6 38.43,3.81 38.43,3.56 C 38.43,3.31 38.08,2.81 37.93,2.81 C 37.78,2.81 37.33,2.93 35.93,2.78 C 34.53,2.63 31.39,2.31 31,2.31 C 30.6,2.31 30.33,2.42 30.03,2.37 C 29.79,2.33 29.43,2.28 28.75,2.28 z" id="p3409" style="fill:#b38781;fill-opacity:0.31;fill-rule:evenodd;stroke:none;display:inline"/>
<path d="M 29.71,2.31 C 29.74,6.8 29.4,14.86 29.4,16.71 C 29.4,18.96 29.28,31.41 29.15,33.28 C 29.03,35.04 28.91,43.79 28.9,45.56 C 28.96,45.61 29.02,45.65 29.12,45.65 C 29.37,45.65 31.18,45.64 32.78,45.34 C 34.38,45.04 35.43,44.74 35.68,44.59 C 35.93,44.44 36.63,43.7 36.68,43.4 C 36.73,43.1 36.49,40.41 36.59,39.96 C 36.69,39.51 36.83,37.75 36.78,36.9 C 36.73,36.05 36.63,34.89 36.78,34.5 C 36.93,34.1 36.78,33.6 36.78,32.9 C 36.78,32.2 36.85,28.84 37,28.59 C 37.14,28.34 37.25,28.09 37.25,27.75 C 37.25,27.4 37.04,27.14 37.09,26.5 C 37.14,25.85 37.2,23.59 37.25,23.25 C 37.29,22.9 37.59,22.4 37.59,22.15 C 37.59,21.9 37.37,21.56 37.37,21.06 C 37.37,20.56 37.59,17.16 37.59,16.81 C 37.59,16.46 37.93,16.21 37.93,15.96 C 37.93,15.71 37.62,15.37 37.62,15.12 C 37.62,14.87 37.72,11.19 37.87,10.75 C 38.02,10.3 38.13,10.1 38.03,9.65 C 37.93,9.2 38.27,6.7 38.37,6.15 C 38.47,5.6 38.43,3.81 38.43,3.56 C 38.43,3.31 38.08,2.81 37.93,2.81 C 37.78,2.81 37.33,2.93 35.93,2.78 C 34.53,2.63 31.39,2.31 31,2.31 C 30.6,2.31 30.33,2.42 30.03,2.37 C 29.94,2.36 29.82,2.32 29.71,2.31 z" id="p3411" style="fill:#743422;fill-opacity:1;fill-rule:evenodd;stroke:none;display:inline"/>
<path d="M 31,2.31 C 30.6,2.31 30.33,2.42 30.03,2.37 C 30.05,3 30.02,3.77 29.9,4.46 C 29.63,5.99 30.46,8.05 30.37,12 C 30.28,15.94 30.62,15.75 32.06,15.75 C 33.49,15.75 33.68,17.37 33.68,17.37 L 37.62,16.71 C 37.67,16.41 37.93,16.19 37.93,15.96 C 37.93,15.71 37.62,15.37 37.62,15.12 C 37.62,14.87 37.72,11.19 37.87,10.75 C 38.02,10.3 38.13,10.1 38.03,9.65 C 37.93,9.2 38.27,6.7 38.37,6.15 C 38.47,5.6 38.43,3.81 38.43,3.56 C 38.43,3.31 38.08,2.81 37.93,2.81 C 37.78,2.81 37.33,2.93 35.93,2.78 C 34.53,2.63 31.39,2.31 31,2.31 z" id="p3489" style="fill:#491c0e;fill-opacity:0.56;fill-rule:evenodd;stroke:none;display:inline"/>
<path d="M 36.34,43.93 C 35,44.3 31.12,44.88 30.09,44.96 C 29.12,45.04 29.04,44.87 29.03,45.62 C 29.06,45.63 29.08,45.65 29.12,45.65 C 29.37,45.65 31.18,45.64 32.78,45.34 C 34.38,45.04 35.43,44.74 35.68,44.59 C 35.83,44.5 36.1,44.22 36.34,43.93 z" id="p3491" style="fill:#2d1a1a;fill-opacity:0.47;fill-rule:evenodd;stroke:none;display:inline"/>
<path d="M 36.71,34.84 C 35.36,35.13 33.69,35.44 32.34,35.62 C 30.37,35.89 31.25,35.73 29.28,35.37 C 29.46,35.46 29.11,35.91 29.56,36.18 C 30.01,36.45 32.17,36.18 33.15,36.18 C 33.96,36.18 35.9,35.72 36.71,35.53 C 36.71,35.26 36.69,35.04 36.71,34.84 z" id="p3493" style="fill:#2d1a1a;fill-opacity:0.31;fill-rule:evenodd;stroke:none;display:inline"/>
<path d="M 37.21,27.87 C 36.18,28.09 34.69,28.43 33.59,28.56 C 31.98,28.74 30.89,28.66 29.28,28.12 C 29.25,28.23 29.26,28.33 29.28,28.43 C 29.38,29.15 30.28,29.62 30.28,29.62 C 30.28,29.62 32.86,29.62 33.93,29.53 C 34.84,29.45 36.39,29.12 36.93,29 C 36.95,28.84 36.97,28.63 37,28.59 C 37.12,28.37 37.19,28.15 37.21,27.87 z" id="p3495" style="fill:#2d1a1a;fill-opacity:0.31;fill-rule:evenodd;stroke:none;display:inline"/>
<path d="M 37.53,22.4 C 37,22.53 36.44,22.67 35.84,22.75 C 34.32,22.92 32.07,22.92 29.65,22.75 L 29.37,23.53 C 29.37,23.53 29.65,23.45 30.9,23.71 C 32.16,23.98 34.57,23.37 36.28,23.37 C 36.89,23.37 36.83,23.37 37.25,23.37 C 37.25,23.35 37.24,23.26 37.25,23.25 C 37.28,22.99 37.44,22.66 37.53,22.4 z" id="p3497" style="fill:#2d1a1a;fill-opacity:0.37;fill-rule:evenodd;stroke:none;display:inline"/>
<path d="M 37.87,16.15 C 37.69,16.23 37.51,16.31 37.34,16.37 C 36.35,16.73 32.43,16.46 31.81,16.46 C 31.18,16.46 29.65,16.65 29.65,16.65 L 29.9,17.28 C 29.9,17.28 33.14,17.18 34.93,17.18 C 35.78,17.18 36.75,17.23 37.56,17.28 C 37.56,17.17 37.59,16.85 37.59,16.81 C 37.59,16.55 37.77,16.34 37.87,16.15 z" id="p3504" style="fill:#2d1a1a;fill-opacity:0.45;fill-rule:evenodd;stroke:none;display:inline"/>
<path d="M 34.93,8.62 C 34.65,8.62 34.38,8.66 34.12,8.68 C 32.06,8.86 30.72,8.48 30.81,9.56 C 33.29,9.42 36.51,9.49 38.03,9.53 C 38.01,9.37 38.03,9.13 38.06,8.81 C 37.2,8.71 36.15,8.6 34.93,8.62 z" id="p3513" style="fill:#b1a6a6;fill-opacity:0.31;fill-rule:evenodd;stroke:none;display:inline"/>
<path d="M 32.53,2.75 C 31.45,3.55 32.68,4.37 33.93,4.37 C 35.19,4.37 32.6,5.35 32.87,6.15 C 33.14,6.96 33.6,8.4 34.5,8.4 C 35.39,8.4 36.65,6.79 36.56,6.34 C 36.47,5.89 34.75,7.5 34.75,6.34 C 34.75,5.17 35.48,5 36.46,5.09 C 37.07,5.14 37.8,6.03 38.31,6.71 C 38.33,6.55 38.35,6.24 38.37,6.15 C 38.47,5.6 38.43,3.81 38.43,3.56 C 36.49,3.49 33.99,3.61 32.53,2.75 z" id="p3515" style="fill:#c7bfbf;fill-opacity:0.22;fill-rule:evenodd;stroke:none;display:inline"/>
<path d="M 31.44,10.82 C 32.69,12.16 33.59,12.16 34.66,12.16 C 35.74,12.16 36.45,13.77 34.75,13.77 C 33.05,13.77 30.9,15.3 31.89,15.3 C 32.87,15.3 30.36,15.3 30.36,15.75 C 30.36,16.19 33.77,16.01 34.48,16.01 C 35.2,16.01 36.72,15.75 36.72,15.75 C 36.72,15.75 36.81,15.21 36.45,15.21 C 36.1,15.21 34.66,15.66 34.66,15.3 C 34.66,14.94 35.2,13.77 35.65,13.77 C 36.1,13.77 36.54,13.42 36.37,12.88 C 36.19,12.34 36.99,12.07 36.9,11.45 C 36.81,10.82 36.01,10.82 34.75,10.82 C 33.5,10.82 31.35,10.37 31.44,10.82 z" id="p3517" style="fill:#abb6e6;fill-opacity:0.12;fill-rule:evenodd;stroke:none;display:inline"/>
<path d="M 31.64,10.65 C 31.28,11.27 29.12,11.88 31.38,12.35 C 33.64,12.81 32.2,13.37 33.69,13.73 C 35.18,14.09 37.75,13.53 37.75,13.01 C 37.75,12.5 37.9,10.75 37.9,10.75 C 37.9,10.75 32.41,10.39 31.64,10.65 z" id="p3567" style="fill:#aabfd1;fill-opacity:0.06;fill-rule:evenodd;stroke:none"/>
<path d="M 35.03,10.09 C 34.4,10.09 31.33,10.1 29.9,10.37 L 30.62,11 C 30.62,11 33.5,10.81 34.84,10.81 C 35.91,10.81 37.25,11.03 37.84,11.12 C 37.85,11 37.85,10.79 37.87,10.75 C 37.94,10.54 37.99,10.39 38.03,10.25 C 37.14,10.2 35.52,10.09 35.03,10.09 z" id="p3506" style="fill:#301209;fill-opacity:0.46;fill-rule:evenodd;stroke:none;display:inline"/>
<path d="M 30.87,2.34 C 30.69,2.35 29.8,2.35 29.65,2.37 C 29.24,5.72 29.36,14.64 29.37,20.12 C 29.37,20.29 29.37,20.47 29.37,20.65 C 29.33,25.16 29.25,31.84 29.15,33.28 C 29.14,33.49 29.13,34.04 29.12,34.43 C 29.11,34.72 29.09,34.95 29.09,35.25 C 29,39.79 28.95,44.26 29.06,45.62 C 29.06,45.63 29.06,45.64 29.06,45.65 C 29.08,45.66 29.1,45.65 29.12,45.65 C 29.22,45.65 29.69,45.64 30.18,45.62 C 29.94,43.88 29.56,40.72 29.56,37.53 C 29.56,32.87 30.18,17.7 30.18,16.09 C 30.18,14.69 30.41,5.41 30.87,2.34 z" id="p3508" style="fill:#7a3d2a;fill-opacity:0.86;fill-rule:evenodd;stroke:none;display:inline"/>
<path d="M 31.35,21.84 C 31.8,22.46 32.33,22.55 33.95,22.46 C 35.56,22.37 36.9,22.37 36.9,22.37 C 36.9,22.37 36.19,21.57 35.83,21.57 C 35.47,21.57 31.89,21.75 31.35,21.84 z" id="p3519" style="fill:#9ec7e8;fill-opacity:0.21;fill-rule:evenodd;stroke:none;display:inline"/>
<path d="M 31.26,27.93 C 31.8,28.82 33.77,28.47 34.3,28.47 C 34.84,28.47 36.28,28.11 36.28,28.11 L 35.83,27.48 L 31.26,27.93 z" id="p3521" style="fill:#b1a6a6;fill-opacity:0.37;fill-rule:evenodd;stroke:none;display:inline"/>
<path d="M 31.26,34.92 C 32.42,35.36 34.75,35.01 34.75,35.01 L 34.57,34.47 L 31.26,34.92 z" id="p3523" style="fill:#b1a6a6;fill-opacity:0.22;fill-rule:evenodd;stroke:none;display:inline"/>
<path d="M 31.55,2.59 C 32.8,2.96 34.64,3.25 34.89,3.71 C 35.14,4.17 33.09,5.59 34.18,5.88 C 35.26,6.18 38.31,4.21 38.31,4.97 C 38.31,5.72 38.06,7.93 38.06,7.93 C 38.06,7.93 34.76,6.93 33.88,6.93 C 33.01,6.93 30.71,6.97 30.84,5.72 C 30.96,4.46 31.59,2.59 31.55,2.59 z" id="p3563" style="fill:#8a9ea8;fill-opacity:0.1;fill-rule:evenodd;stroke:none"/>
<path d="M 36.22,4.01 C 36.1,6.3 34.59,8.43 35.05,8.43 C 35.51,8.43 36.56,8.14 37.27,8.1 C 37.97,8.05 38.31,7.14 38.31,6.51 C 38.31,5.88 38.27,3.34 37.6,3.46 C 36.93,3.59 36.31,3.38 36.22,4.01 z" id="p3565" style="fill:#d3dcdf;fill-opacity:0.07;fill-rule:evenodd;stroke:none"/>
<path d="M 31.27,21.74 C 31.17,22.24 31.72,22.34 32.37,22.34 C 33.02,22.34 34.27,22.29 34.27,22.29 L 34.17,21.84 L 31.27,21.74 z" id="p3803" style="fill:#f9fbfc;fill-opacity:0.1;fill-rule:evenodd;stroke:none"/>
<path d="M 31.38,15.31 C 31.28,15.81 31.83,15.91 32.48,15.91 C 33.14,15.91 34.39,15.86 34.39,15.86 L 34.29,15.41 L 31.38,15.31 z" id="p3805" style="fill:#ecf1f5;fill-opacity:0.2;fill-rule:evenodd;stroke:none;display:inline"/>
<path d="M 22.11,23.34 C 22.22,26.02 20.83,28.2 18.99,28.2 C 17.15,28.2 15.56,26.02 15.45,23.34 C 15.33,20.65 16.73,18.48 18.57,18.48 C 20.41,18.48 21.99,20.65 22.11,23.34 z" id="p3430" style="fill:none;fill-opacity:0.31;fill-rule:evenodd;stroke:#d9a64b;stroke-width:0.30;stroke-linecap:butt;stroke-linejoin:miter;marker:none;stroke-miterlimit:4;stroke-dasharray:none;stroke-dashoffset:0;stroke-opacity:1;visibility:visible;display:inline;overflow:visible;enable-background:accumulate"/>
<path d="M 17.34,20.44 C 16.63,21.01 16.19,22.05 16.25,23.25 C 16.32,25.07 17.49,26.57 18.87,26.57 C 20.25,26.57 21.29,25.07 21.21,23.25 C 21.17,22.14 20.7,21.16 20.03,20.57" id="p3434" style="fill:none;fill-opacity:0.31;fill-rule:evenodd;stroke:#d9a64b;stroke-width:0.30;stroke-linecap:round;stroke-linejoin:miter;marker:none;stroke-miterlimit:4;stroke-dasharray:0.3, 0.3;stroke-dashoffset:0;stroke-opacity:1;visibility:visible;display:inline;overflow:visible;enable-background:accumulate"/>
<path d="M 18.61,20.88 L 18.73,25.39" id="p3441" style="fill:none;fill-rule:evenodd;stroke:#d9a64b;stroke-width:0.2;stroke-linecap:butt;stroke-linejoin:miter;stroke-miterlimit:4;stroke-dasharray:none;stroke-opacity:1"/>
<path d="M 17.23,21.98 L 20.03,22.06" id="p3443" style="fill:none;fill-rule:evenodd;stroke:#d9a64b;stroke-width:0.2;stroke-linecap:butt;stroke-linejoin:miter;stroke-miterlimit:4;stroke-dasharray:none;stroke-opacity:1"/>
<path d="M 17.6,21.41 L 19.71,21.53" id="p3445" style="fill:none;fill-rule:evenodd;stroke:#d9a64b;stroke-width:0.2;stroke-linecap:butt;stroke-linejoin:miter;stroke-miterlimit:4;stroke-dasharray:none;stroke-opacity:1"/>
<path d="M 17.11,23.57 L 20.24,23.65" id="p3447" style="fill:none;fill-rule:evenodd;stroke:#d9a64b;stroke-width:0.2;stroke-linecap:butt;stroke-linejoin:miter;stroke-miterlimit:4;stroke-dasharray:none;stroke-opacity:1"/>
<path d="M 17.31,23.57 L 18.73,25.08" id="p3451" style="fill:none;fill-rule:evenodd;stroke:#d9a64b;stroke-width:0.2;stroke-linecap:butt;stroke-linejoin:miter;stroke-miterlimit:4;stroke-dasharray:none;stroke-opacity:1"/>
<path d="M 18.64,22.32 L 20.2,23.66" id="p3453" style="fill:none;fill-rule:evenodd;stroke:#d9a64b;stroke-width:0.2;stroke-linecap:butt;stroke-linejoin:miter;stroke-miterlimit:4;stroke-dasharray:none;stroke-opacity:1"/>
<path d="M 17.24,22.21 L 15.64,21.31 L 15.62,21.45 L 17,23.04 L 15.8,24.38 L 15.69,24.73 L 17.15,23.92 C 17.15,23.92 17.07,22.56 17.24,22.21 z" id="p3455" style="fill:#d7a44e;fill-opacity:1;fill-rule:evenodd;stroke:none"/>
<path d="M 18.03,25.23 L 17.29,27.07 L 17.37,27.18 L 18.75,25.58 L 20.33,27.4 L 20.39,27.29 L 19.37,25.23 C 19.37,25.23 19.1,25.56 18.03,25.23 z" id="p3457" style="fill:#d7a44e;fill-opacity:1;fill-rule:evenodd;stroke:none"/>
<path d="M 20.26,23.95 L 21.74,24.86 L 21.84,24.7 L 20.42,23.1 L 21.66,21.52 L 21.55,21.44 L 20.18,22.24 C 20.18,22.24 20.34,23.31 20.26,23.95 z" id="p3459" style="fill:#d7a44e;fill-opacity:1;fill-rule:evenodd;stroke:none"/>
<path d="M 18.42,26.6 L 19.27,27.94 C 19.27,27.94 19.03,27.75 18.79,27.7 C 18.55,27.65 18.36,27.83 18.36,27.83 L 19.19,26.58 L 18.42,26.6 z" id="p3461" style="fill:#d7a44e;fill-opacity:1;fill-rule:evenodd;stroke:none"/>
<path d="M 18.17,26.82 L 19.41,27.62 C 19.41,27.62 19.19,27.41 19.19,27.27 C 19.19,27.14 19.43,26.9 19.43,26.9 L 18.23,27.49 C 18.23,27.49 18.36,27.27 18.36,27.16 C 18.36,27.06 18.2,26.79 18.17,26.82 z" id="p3463" style="fill:#d7a44e;fill-opacity:1;fill-rule:evenodd;stroke:none"/>
<path d="M 17.41,20.82 C 17.96,20.43 18.29,20.36 18.55,20.36 C 18.81,20.36 19.55,20.55 19.84,20.89" id="p3465" style="fill:none;fill-rule:evenodd;stroke:#d7a54d;stroke-width:0.1;stroke-linecap:butt;stroke-linejoin:miter;stroke-miterlimit:4;stroke-dasharray:none;stroke-opacity:1"/>
<path d="M 18.59,18.59 L 18.25,19.21 L 18,19.21 L 17.59,18.87 L 17.4,19.56 L 17.15,19.59 L 17,19.15 L 16.65,19.84 L 16.87,19.84 L 17.18,20.34 C 17.71,20.01 18.28,19.9 18.59,19.9 C 19.09,19.9 19.66,20.17 20,20.43 L 20.37,20 L 20.5,19.9 L 20.37,19.37 L 19.87,19.62 L 19.71,19.5 L 19.5,18.75 L 19.18,19.25 L 18.9,19.18 L 18.59,18.59 z M 19,19.34 L 19.28,19.68 L 18.93,19.84 L 18.71,19.53 L 19,19.34 z M 18.15,19.37 L 18.53,19.62 L 18.21,19.87 L 17.9,19.65 L 18.15,19.37 z M 17.46,19.59 L 17.78,19.68 L 17.59,20.09 L 17.18,19.96 L 17.46,19.59 z M 19.78,19.65 L 19.87,19.93 L 19.59,20.09 L 19.43,19.78 L 19.78,19.65 z" id="p3467" style="fill:#d7a44e;fill-opacity:1;fill-rule:evenodd;stroke:none"/>
<path d="M 17.49,20.43 C 17.96,20.24 18.25,20.11 18.51,20.11 C 18.78,20.11 19.57,20.37 19.81,20.51" id="p3487" style="fill:none;fill-rule:evenodd;stroke:#d9a64b;stroke-width:0.2;stroke-linecap:butt;stroke-linejoin:miter;stroke-miterlimit:4;stroke-dasharray:0.4, 0.2, 0.1, 0.2;stroke-dashoffset:0;stroke-opacity:1"/>
<path d="M 20.26,23.13 C 20.31,24.38 19.65,25.4 18.78,25.4 C 17.91,25.4 17.16,24.38 17.11,23.13 C 17.06,21.87 17.72,20.85 18.59,20.85 C 19.46,20.85 20.21,21.87 20.26,23.13 z" id="p3432" style="fill:none;fill-opacity:0.31;fill-rule:evenodd;stroke:#d9a64b;stroke-width:0.30;stroke-linecap:butt;stroke-linejoin:miter;marker:none;stroke-miterlimit:4;stroke-dasharray:none;stroke-dashoffset:0;stroke-opacity:1;visibility:visible;display:inline;overflow:visible;enable-background:accumulate"/>
<path d="M 38.48,4.19 L 31.16,3.68" id="p3569" style="fill:none;fill-opacity:0.31;fill-rule:evenodd;stroke:#f8cb4b;stroke-width:0.30;stroke-linecap:round;stroke-linejoin:miter;marker:none;stroke-miterlimit:4;stroke-dasharray:0.3, 0.6;stroke-dashoffset:0;stroke-opacity:0.68;visibility:visible;display:inline;overflow:visible;enable-background:accumulate"/>
<path d="M 37.98,8.7 L 31.08,8.2" id="p3571" style="fill:none;fill-opacity:0.31;fill-rule:evenodd;stroke:#f8cb4b;stroke-width:0.30;stroke-linecap:round;stroke-linejoin:miter;marker:none;stroke-miterlimit:4;stroke-dasharray:0.3, 0.6;stroke-dashoffset:0;stroke-opacity:0.68;visibility:visible;display:inline;overflow:visible;enable-background:accumulate"/>
<path d="M 37.79,10.93 L 31.19,10.74" id="p3573" style="fill:none;fill-opacity:0.31;fill-rule:evenodd;stroke:#f8cb4b;stroke-width:0.30;stroke-linecap:round;stroke-linejoin:miter;marker:none;stroke-miterlimit:4;stroke-dasharray:0.3, 0.6;stroke-dashoffset:0;stroke-opacity:0.68;visibility:visible;display:inline;overflow:visible;enable-background:accumulate"/>
<path d="M 37.52,15.06 C 37.52,15.06 35.59,15.33 34.63,15.33 C 33.66,15.33 31,15.1 31,15.1" id="p3575" style="fill:none;fill-opacity:0.31;fill-rule:evenodd;stroke:#f8cb4b;stroke-width:0.30;stroke-linecap:round;stroke-linejoin:miter;marker:none;stroke-miterlimit:4;stroke-dasharray:0.3, 0.6;stroke-dashoffset:0;stroke-opacity:0.68;visibility:visible;display:inline;overflow:visible;enable-background:accumulate"/>
<path d="M 37.63,17.07 C 36.4,17.3 34.9,17.37 33.66,17.3 C 32.43,17.22 31,17.18 31,17.18" id="p3577" style="fill:none;fill-opacity:0.31;fill-rule:evenodd;stroke:#f8cb4b;stroke-width:0.30;stroke-linecap:round;stroke-linejoin:miter;marker:none;stroke-miterlimit:4;stroke-dasharray:0.3, 0.6;stroke-dashoffset:0;stroke-opacity:0.68;visibility:visible;display:inline;overflow:visible;enable-background:accumulate"/>
<path d="M 37.36,21.35 C 36.09,21.58 34.12,21.66 33.51,21.66 C 32.89,21.66 30.96,21.62 30.96,21.62" id="p3579" style="fill:none;fill-opacity:0.31;fill-rule:evenodd;stroke:#f8cb4b;stroke-width:0.30;stroke-linecap:round;stroke-linejoin:miter;marker:none;stroke-miterlimit:4;stroke-dasharray:0.3, 0.6;stroke-dashoffset:0;stroke-opacity:0.68;visibility:visible;display:inline;overflow:visible;enable-background:accumulate"/>
<path d="M 37.29,23.27 C 35.63,23.51 30.89,23.66 30.89,23.66" id="p3581" style="fill:none;fill-opacity:0.31;fill-rule:evenodd;stroke:#f8cb4b;stroke-width:0.30;stroke-linecap:round;stroke-linejoin:miter;marker:none;stroke-miterlimit:4;stroke-dasharray:0.3, 0.6;stroke-dashoffset:0;stroke-opacity:0.68;visibility:visible;display:inline;overflow:visible;enable-background:accumulate"/>
<path d="M 37.17,27.02 C 35.98,27.32 34.2,27.48 33.43,27.59 C 32.66,27.71 30.89,27.71 30.89,27.71" id="p3583" style="fill:none;fill-opacity:0.31;fill-rule:evenodd;stroke:#f8cb4b;stroke-width:0.30;stroke-linecap:round;stroke-linejoin:miter;marker:none;stroke-miterlimit:4;stroke-dasharray:0.3, 0.6;stroke-dashoffset:0;stroke-opacity:0.68;visibility:visible;display:inline;overflow:visible;enable-background:accumulate"/>
<path d="M 36.9,29.18 C 34.66,29.56 32.47,29.83 31.97,29.83 C 31.46,29.83 30.81,29.83 30.81,29.83" id="p3585" style="fill:none;fill-opacity:0.31;fill-rule:evenodd;stroke:#f8cb4b;stroke-width:0.30;stroke-linecap:round;stroke-linejoin:miter;marker:none;stroke-miterlimit:4;stroke-dasharray:0.3, 0.6;stroke-dashoffset:0;stroke-opacity:0.68;visibility:visible;display:inline;overflow:visible;enable-background:accumulate"/>
<path d="M 36.75,33.49 C 35.09,33.73 32.78,34.34 31.89,34.34 C 31,34.34 30.62,34.3 30.62,34.3" id="p3587" style="fill:none;fill-opacity:0.31;fill-rule:evenodd;stroke:#f8cb4b;stroke-width:0.30;stroke-linecap:round;stroke-linejoin:miter;marker:none;stroke-miterlimit:4;stroke-dasharray:0.3, 0.6;stroke-dashoffset:0;stroke-opacity:0.68;visibility:visible;display:inline;overflow:visible;enable-background:accumulate"/>
<path d="M 36.63,35.65 C 34.39,35.89 32.85,36.31 31.97,36.35 C 31.08,36.39 30.58,36.23 30.58,36.23" id="p3589" style="fill:none;fill-opacity:0.31;fill-rule:evenodd;stroke:#f8cb4b;stroke-width:0.30;stroke-linecap:round;stroke-linejoin:miter;marker:none;stroke-miterlimit:4;stroke-dasharray:0.3, 0.6;stroke-dashoffset:0;stroke-opacity:0.68;visibility:visible;display:inline;overflow:visible;enable-background:accumulate"/>
<path d="M 36.44,40.01 C 34.32,40.44 32.66,40.86 32.08,40.86 C 31.5,40.86 30.54,40.9 30.54,40.9" id="p3591" style="fill:none;fill-opacity:0.31;fill-rule:evenodd;stroke:#f8cb4b;stroke-width:0.30;stroke-linecap:round;stroke-linejoin:miter;marker:none;stroke-miterlimit:4;stroke-dasharray:0.3, 0.6;stroke-dashoffset:0;stroke-opacity:0.68;visibility:visible;display:inline;overflow:visible;enable-background:accumulate"/>
<path d="M 36.59,41.82 C 35.32,42.02 33.05,42.6 32.24,42.67 C 31.43,42.75 30.46,42.9 30.46,42.9" id="p3593" style="fill:none;fill-opacity:0.31;fill-rule:evenodd;stroke:#f8cb4b;stroke-width:0.30;stroke-linecap:round;stroke-linejoin:miter;marker:none;stroke-miterlimit:4;stroke-dasharray:0.3, 0.6;stroke-dashoffset:0;stroke-opacity:0.68;visibility:visible;display:inline;overflow:visible;enable-background:accumulate"/>
<path d="M 31.08,3.79 L 31,8.24" id="p3595" style="fill:none;fill-opacity:0.31;fill-rule:evenodd;stroke:#f8cf4b;stroke-width:0.30;stroke-linecap:round;stroke-linejoin:miter;marker:none;stroke-miterlimit:4;stroke-dasharray:none;stroke-dashoffset:0;stroke-opacity:0.65;visibility:visible;display:inline;overflow:visible;enable-background:accumulate"/>
<path d="M 31.08,11.03 L 30.96,15.17" id="p3597" style="fill:none;fill-opacity:0.31;fill-rule:evenodd;stroke:#f8cf4b;stroke-width:0.30;stroke-linecap:round;stroke-linejoin:miter;marker:none;stroke-miterlimit:4;stroke-dasharray:none;stroke-dashoffset:0;stroke-opacity:0.65;visibility:visible;display:inline;overflow:visible;enable-background:accumulate"/>
<path d="M 30.88,17.3 L 30.81,21.56" id="p3599" style="fill:none;fill-opacity:0.31;fill-rule:evenodd;stroke:#f8cf4b;stroke-width:0.30;stroke-linecap:round;stroke-linejoin:miter;marker:none;stroke-miterlimit:4;stroke-dasharray:none;stroke-dashoffset:0;stroke-opacity:0.65;visibility:visible;display:inline;overflow:visible;enable-background:accumulate"/>
<path d="M 30.69,23.69 L 30.69,27.83" id="p3601" style="fill:none;fill-opacity:0.31;fill-rule:evenodd;stroke:#f8cf4b;stroke-width:0.30;stroke-linecap:round;stroke-linejoin:miter;marker:none;stroke-miterlimit:4;stroke-dasharray:none;stroke-dashoffset:0;stroke-opacity:0.65;visibility:visible;display:inline;overflow:visible;enable-background:accumulate"/>
<path d="M 30.81,29.72 L 30.69,34.41" id="p3603" style="fill:none;fill-opacity:0.31;fill-rule:evenodd;stroke:#f8cf4b;stroke-width:0.30;stroke-linecap:round;stroke-linejoin:miter;marker:none;stroke-miterlimit:4;stroke-dasharray:none;stroke-dashoffset:0;stroke-opacity:0.65;visibility:visible;display:inline;overflow:visible;enable-background:accumulate"/>
<path d="M 30.42,36.31 L 30.22,45.52" id="p3605" style="fill:none;fill-opacity:0.31;fill-rule:evenodd;stroke:#f8cf4b;stroke-width:0.30;stroke-linecap:round;stroke-linejoin:miter;marker:none;stroke-miterlimit:4;stroke-dasharray:none;stroke-dashoffset:0;stroke-opacity:0.65;visibility:visible;display:inline;overflow:visible;enable-background:accumulate"/>
<path d="M 34.81,4.31 C 34.81,4.45 34.89,4.64 34.84,4.75 C 34.57,4.81 34.31,4.96 34.15,5.2 C 33.98,5.14 33.82,5.02 33.64,4.94 C 33.56,4.89 33.49,4.85 33.59,4.94 C 33.75,5.1 33.9,5.27 34.06,5.43 C 33.94,5.7 33.83,5.99 33.89,6.29 C 34,6.45 33.83,6.58 33.73,6.68 C 33.68,6.74 33.56,6.85 33.71,6.78 C 33.82,6.75 34,6.6 34,6.81 C 34.06,7.05 34.19,7.29 34.41,7.42 C 34.5,7.58 34.31,7.75 34.28,7.92 C 34.2,8.09 34.37,7.82 34.42,7.78 C 34.51,7.67 34.57,7.49 34.73,7.61 C 34.94,7.67 35.17,7.66 35.37,7.59 C 35.5,7.75 35.62,7.9 35.75,8.06 C 35.73,7.86 35.59,7.61 35.66,7.43 C 35.85,7.28 35.99,7.07 36.09,6.84 C 36.16,6.87 36.36,7.09 36.28,6.91 C 36.22,6.71 36.1,6.53 36.2,6.33 C 36.25,6.14 36.12,5.93 36.31,5.8 C 36.36,5.73 36.55,5.57 36.36,5.64 C 36.23,5.66 36.07,5.73 36.07,5.54 C 35.98,5.28 35.83,5.04 35.59,4.9 C 35.64,4.72 35.69,4.55 35.75,4.37 C 35.58,4.48 35.42,4.66 35.26,4.73 C 35.11,4.59 34.96,4.45 34.81,4.31 z M 34.93,5.06 C 34.97,5.28 35.02,5.5 35.06,5.71 C 34.85,5.6 34.64,5.48 34.43,5.37 C 34.51,5.18 34.74,5.09 34.93,5.06 z M 35.53,5.25 C 35.69,5.33 35.84,5.58 35.81,5.72 C 35.68,5.72 35.43,5.84 35.38,5.77 C 35.43,5.6 35.48,5.42 35.53,5.25 z M 34.28,5.65 C 34.36,5.76 34.55,5.87 34.37,5.98 C 34.3,6.03 34.18,6.23 34.15,6.18 C 34.15,6 34.21,5.82 34.28,5.65 z M 34.96,6.25 C 34.84,6.55 34.71,6.85 34.59,7.15 C 34.4,7.05 34.31,6.83 34.23,6.64 C 34.21,6.47 34.46,6.49 34.57,6.41 C 34.7,6.35 34.83,6.3 34.96,6.25 z M 35.34,6.28 C 35.51,6.4 35.67,6.53 35.84,6.65 C 35.78,6.81 35.7,7.07 35.52,7.09 C 35.46,6.82 35.4,6.55 35.34,6.28 z M 35,7.09 C 35.03,7.18 35.26,7.33 35.11,7.36 C 34.99,7.4 34.71,7.32 34.91,7.19 C 34.94,7.15 34.97,7.12 35,7.09 z" id="p3607" style="fill:#e0c73d;fill-opacity:0.8;fill-rule:evenodd;stroke:none"/>
<path d="M 34.58,17.54 C 34.59,17.69 34.67,17.88 34.62,17.99 C 34.35,18.04 34.08,18.2 33.93,18.44 C 33.76,18.38 33.59,18.25 33.42,18.17 C 33.34,18.12 33.27,18.08 33.37,18.18 C 33.52,18.34 33.68,18.51 33.83,18.67 C 33.72,18.94 33.61,19.23 33.66,19.53 C 33.78,19.69 33.61,19.81 33.51,19.92 C 33.46,19.98 33.34,20.09 33.48,20.01 C 33.6,19.99 33.78,19.84 33.77,20.04 C 33.84,20.28 33.96,20.53 34.19,20.65 C 34.28,20.81 34.08,20.99 34.05,21.15 C 33.97,21.33 34.15,21.06 34.19,21.01 C 34.29,20.9 34.35,20.73 34.51,20.85 C 34.71,20.91 34.94,20.9 35.15,20.83 C 35.27,20.98 35.4,21.14 35.52,21.29 C 35.51,21.09 35.37,20.84 35.44,20.67 C 35.63,20.51 35.77,20.3 35.87,20.08 C 35.94,20.11 36.14,20.32 36.06,20.14 C 36,19.95 35.88,19.76 35.97,19.56 C 36.02,19.38 35.89,19.17 36.09,19.04 C 36.14,18.96 36.33,18.81 36.13,18.88 C 36,18.9 35.85,18.97 35.85,18.78 C 35.76,18.52 35.6,18.28 35.37,18.14 C 35.42,17.96 35.47,17.78 35.52,17.61 C 35.36,17.72 35.2,17.9 35.04,17.97 C 34.89,17.83 34.74,17.69 34.58,17.54 z M 34.71,18.29 C 34.75,18.51 34.79,18.73 34.83,18.95 C 34.63,18.84 34.42,18.72 34.21,18.61 C 34.29,18.41 34.52,18.33 34.71,18.29 z M 35.3,18.48 C 35.46,18.57 35.62,18.82 35.59,18.96 C 35.46,18.96 35.21,19.07 35.16,19.01 C 35.21,18.83 35.25,18.66 35.3,18.48 z M 34.05,18.89 C 34.13,19 34.33,19.11 34.14,19.21 C 34.08,19.26 33.95,19.47 33.93,19.41 C 33.93,19.23 33.98,19.05 34.05,18.89 z M 34.74,19.48 C 34.62,19.78 34.49,20.09 34.37,20.39 C 34.17,20.28 34.09,20.07 34.01,19.88 C 33.99,19.71 34.24,19.73 34.35,19.65 C 34.48,19.59 34.61,19.54 34.74,19.48 z M 35.12,19.51 C 35.28,19.64 35.45,19.76 35.62,19.89 C 35.56,20.05 35.47,20.31 35.3,20.33 C 35.24,20.06 35.18,19.79 35.12,19.51 z M 34.77,20.33 C 34.8,20.41 35.04,20.57 34.89,20.6 C 34.77,20.64 34.48,20.56 34.69,20.42 C 34.72,20.39 34.74,20.36 34.77,20.33 z" id="p3618" style="fill:#e0c73d;fill-opacity:0.8;fill-rule:evenodd;stroke:none;display:inline"/>
<path d="M 34.46,23.74 C 34.47,23.88 34.55,24.08 34.5,24.19 C 34.23,24.24 33.96,24.4 33.81,24.63 C 33.64,24.58 33.47,24.45 33.3,24.37 C 33.22,24.32 33.15,24.28 33.25,24.38 C 33.4,24.54 33.56,24.7 33.71,24.87 C 33.6,25.14 33.49,25.43 33.54,25.73 C 33.66,25.89 33.49,26.01 33.39,26.12 C 33.34,26.18 33.22,26.28 33.36,26.21 C 33.48,26.19 33.66,26.03 33.65,26.24 C 33.72,26.48 33.84,26.73 34.07,26.85 C 34.16,27.01 33.96,27.19 33.93,27.35 C 33.85,27.53 34.03,27.26 34.07,27.21 C 34.16,27.1 34.23,26.93 34.39,27.05 C 34.59,27.11 34.82,27.1 35.03,27.02 C 35.15,27.18 35.28,27.34 35.4,27.49 C 35.39,27.29 35.25,27.04 35.32,26.87 C 35.51,26.71 35.65,26.5 35.74,26.27 C 35.81,26.31 36.02,26.52 35.93,26.34 C 35.88,26.15 35.76,25.96 35.85,25.76 C 35.9,25.58 35.77,25.37 35.97,25.24 C 36.02,25.16 36.21,25.01 36.01,25.08 C 35.88,25.1 35.73,25.17 35.73,24.97 C 35.64,24.72 35.48,24.48 35.24,24.34 C 35.3,24.16 35.35,23.98 35.4,23.81 C 35.24,23.92 35.08,24.1 34.92,24.17 C 34.77,24.03 34.61,23.88 34.46,23.74 z M 34.59,24.49 C 34.63,24.71 34.67,24.93 34.71,25.15 C 34.51,25.03 34.3,24.92 34.09,24.81 C 34.17,24.61 34.4,24.53 34.59,24.49 z M 35.18,24.68 C 35.34,24.76 35.49,25.02 35.47,25.16 C 35.34,25.16 35.09,25.27 35.04,25.21 C 35.08,25.03 35.13,24.86 35.18,24.68 z M 33.93,25.09 C 34.01,25.2 34.2,25.31 34.02,25.41 C 33.96,25.46 33.83,25.67 33.81,25.61 C 33.81,25.43 33.86,25.25 33.93,25.09 z M 34.62,25.68 C 34.49,25.98 34.37,26.28 34.24,26.59 C 34.05,26.48 33.97,26.27 33.89,26.08 C 33.87,25.91 34.12,25.92 34.23,25.84 C 34.36,25.79 34.49,25.74 34.62,25.68 z M 34.99,25.71 C 35.16,25.84 35.33,25.96 35.49,26.09 C 35.44,26.25 35.35,26.51 35.18,26.53 C 35.12,26.26 35.06,25.98 34.99,25.71 z M 34.65,26.52 C 34.68,26.61 34.92,26.77 34.77,26.8 C 34.64,26.84 34.36,26.76 34.57,26.62 C 34.59,26.59 34.62,26.56 34.65,26.52 z" id="p3620" style="fill:#e0c73d;fill-opacity:0.8;fill-rule:evenodd;stroke:none;display:inline"/>
<path d="M 34.22,29.85 C 34.22,29.99 34.3,30.19 34.26,30.29 C 33.98,30.35 33.72,30.5 33.57,30.74 C 33.39,30.69 33.23,30.56 33.06,30.48 C 32.98,30.43 32.9,30.39 33.01,30.48 C 33.16,30.65 33.32,30.81 33.47,30.98 C 33.35,31.24 33.25,31.54 33.3,31.83 C 33.41,31.99 33.24,32.12 33.15,32.23 C 33.1,32.29 32.97,32.39 33.12,32.32 C 33.24,32.3 33.42,32.14 33.41,32.35 C 33.48,32.59 33.6,32.84 33.83,32.96 C 33.91,33.12 33.72,33.3 33.69,33.46 C 33.61,33.63 33.78,33.37 33.83,33.32 C 33.92,33.21 33.99,33.04 34.14,33.16 C 34.35,33.22 34.58,33.21 34.78,33.13 C 34.91,33.29 35.03,33.45 35.16,33.6 C 35.15,33.4 35,33.15 35.07,32.98 C 35.26,32.82 35.41,32.61 35.5,32.38 C 35.57,32.41 35.78,32.63 35.69,32.45 C 35.64,32.26 35.52,32.07 35.61,31.87 C 35.66,31.69 35.53,31.48 35.73,31.35 C 35.78,31.27 35.96,31.12 35.77,31.18 C 35.64,31.21 35.49,31.28 35.49,31.08 C 35.4,30.83 35.24,30.58 35,30.45 C 35.06,30.27 35.11,30.09 35.16,29.91 C 35,30.03 34.83,30.21 34.68,30.28 C 34.52,30.13 34.37,29.99 34.22,29.85 z M 34.35,30.6 C 34.39,30.82 34.43,31.04 34.47,31.26 C 34.26,31.14 34.06,31.03 33.85,30.91 C 33.92,30.72 34.16,30.63 34.35,30.6 z M 34.94,30.79 C 35.1,30.87 35.25,31.13 35.22,31.26 C 35.09,31.27 34.85,31.38 34.79,31.32 C 34.84,31.14 34.89,30.96 34.94,30.79 z M 33.69,31.2 C 33.77,31.3 33.96,31.42 33.78,31.52 C 33.71,31.57 33.59,31.78 33.57,31.72 C 33.57,31.54 33.62,31.36 33.69,31.2 z M 34.38,31.79 C 34.25,32.09 34.13,32.39 34,32.7 C 33.81,32.59 33.72,32.38 33.64,32.19 C 33.63,32.01 33.88,32.03 33.99,31.95 C 34.12,31.9 34.25,31.84 34.38,31.79 z M 34.75,31.82 C 34.92,31.95 35.09,32.07 35.25,32.2 C 35.19,32.36 35.11,32.62 34.93,32.64 C 34.87,32.37 34.81,32.09 34.75,31.82 z M 34.41,32.63 C 34.44,32.72 34.67,32.88 34.53,32.9 C 34.4,32.95 34.12,32.87 34.32,32.73 C 34.35,32.7 34.38,32.67 34.41,32.63 z" id="p3622" style="fill:#e0c73d;fill-opacity:0.8;fill-rule:evenodd;stroke:none;display:inline"/>
<path d="M 33.98,36.26 C 33.98,36.4 34.06,36.6 34.02,36.7 C 33.74,36.76 33.48,36.91 33.33,37.15 C 33.15,37.1 32.99,36.97 32.82,36.89 C 32.74,36.84 32.66,36.8 32.76,36.89 C 32.92,37.06 33.07,37.22 33.23,37.39 C 33.11,37.65 33.01,37.95 33.06,38.25 C 33.17,38.41 33,38.53 32.9,38.64 C 32.85,38.7 32.73,38.8 32.88,38.73 C 32.99,38.71 33.17,38.55 33.17,38.76 C 33.23,39 33.36,39.25 33.59,39.37 C 33.67,39.53 33.48,39.71 33.45,39.87 C 33.37,40.04 33.54,39.78 33.59,39.73 C 33.68,39.62 33.75,39.45 33.9,39.57 C 34.11,39.63 34.34,39.62 34.54,39.54 C 34.67,39.7 34.79,39.86 34.92,40.01 C 34.9,39.81 34.76,39.56 34.83,39.39 C 35.02,39.23 35.16,39.02 35.26,38.79 C 35.33,38.82 35.54,39.04 35.45,38.86 C 35.39,38.67 35.28,38.48 35.37,38.28 C 35.42,38.1 35.29,37.89 35.48,37.76 C 35.54,37.68 35.72,37.53 35.53,37.59 C 35.4,37.62 35.25,37.69 35.25,37.49 C 35.16,37.24 35,36.99 34.76,36.86 C 34.81,36.68 34.87,36.5 34.92,36.32 C 34.76,36.44 34.59,36.62 34.43,36.69 C 34.28,36.54 34.13,36.4 33.98,36.26 z M 34.1,37.01 C 34.15,37.23 34.19,37.45 34.23,37.67 C 34.02,37.55 33.81,37.44 33.6,37.32 C 33.68,37.13 33.91,37.04 34.1,37.01 z M 34.7,37.2 C 34.86,37.28 35.01,37.54 34.98,37.67 C 34.85,37.68 34.61,37.79 34.55,37.73 C 34.6,37.55 34.65,37.38 34.7,37.2 z M 33.45,37.61 C 33.53,37.72 33.72,37.83 33.54,37.93 C 33.47,37.98 33.35,38.19 33.32,38.13 C 33.32,37.95 33.38,37.77 33.45,37.61 z M 34.14,38.2 C 34.01,38.5 33.89,38.8 33.76,39.11 C 33.57,39 33.48,38.79 33.4,38.6 C 33.39,38.43 33.64,38.44 33.74,38.36 C 33.87,38.31 34.01,38.25 34.14,38.2 z M 34.51,38.23 C 34.68,38.36 34.84,38.48 35.01,38.61 C 34.95,38.77 34.87,39.03 34.69,39.05 C 34.63,38.78 34.57,38.5 34.51,38.23 z M 34.17,39.04 C 34.2,39.13 34.43,39.29 34.28,39.31 C 34.16,39.36 33.88,39.28 34.08,39.14 C 34.11,39.11 34.14,39.08 34.17,39.04 z" id="p3624" style="fill:#e0c73d;fill-opacity:0.8;fill-rule:evenodd;stroke:none;display:inline"/>
<path d="M 32.53,4.15 C 32.08,4.22 31.75,4.60 31.57,4.99 C 31.61,5.17 31.31,5.27 31.43,5.02 C 31.48,4.78 31.42,4.52 31.28,4.32 C 31.08,4.18 30.92,4.52 31.17,4.57 C 31.40,4.85 31.32,5.25 31.23,5.57 C 31.15,5.91 31.26,6.26 31.27,6.60 C 31.30,7.04 31.33,7.53 31.62,7.88 C 32.05,8.36 32.87,8.35 33.31,7.91 C 33.45,7.77 33.79,7.72 33.85,7.95 C 33.77,8.21 33.54,7.74 33.42,8.01 C 33.45,8.23 33.77,8.31 33.96,8.33 C 34.20,8.38 34.30,8.09 34.16,7.93 C 34.05,7.79 33.91,7.64 33.71,7.63 C 33.50,7.65 33.31,7.54 33.32,7.30 C 33.27,7.06 32.99,6.96 32.77,6.92 C 32.65,6.95 32.36,6.85 32.55,6.72 C 32.76,6.74 32.99,6.60 32.92,6.36 C 32.89,6.18 33.35,6.18 33.19,5.93 C 33.15,5.75 32.83,5.62 32.74,5.81 C 32.80,5.94 32.84,6.06 32.65,6.03 C 32.45,6.08 32.31,6.28 32.09,6.28 C 31.93,6.18 32.00,5.86 31.78,5.85 C 31.64,5.96 31.28,5.94 31.41,5.69 C 31.59,5.28 31.77,4.84 32.11,4.54 C 32.30,4.38 32.59,4.27 32.82,4.40 C 32.96,4.48 32.92,4.72 32.73,4.63 C 32.49,4.60 32.33,4.87 32.40,5.09 C 32.45,5.37 32.75,5.64 33.04,5.52 C 33.28,5.41 33.32,5.12 33.34,4.88 C 33.40,4.66 33.62,4.47 33.85,4.47 C 33.85,4.59 33.63,4.79 33.88,4.79 C 34.11,4.83 34.30,4.47 34.08,4.34 C 33.87,4.16 33.52,4.25 33.37,4.47 C 33.19,4.60 33.05,4.37 32.93,4.26 C 32.82,4.16 32.67,4.14 32.53,4.15 z M 32.71,4.84 C 32.65,5.04 32.88,5.21 33.03,5.15 C 33.11,5.42 32.64,5.42 32.63,5.17 C 32.57,5.06 32.57,4.88 32.71,4.84 z M 31.75,6.03 C 31.86,6.30 31.66,6.55 31.63,6.82 C 31.58,6.97 31.59,7.24 31.78,7.28 C 31.96,7.26 31.72,6.86 31.97,6.89 C 32.24,6.99 32.44,7.33 32.29,7.60 C 32.15,7.61 31.77,7.66 31.99,7.85 C 32.20,7.96 32.41,7.74 32.62,7.83 C 32.84,7.89 33.06,7.64 32.97,7.43 C 32.99,7.18 32.49,7.21 32.67,7.46 C 32.75,7.68 32.41,7.49 32.49,7.35 C 32.47,7.09 32.81,7.00 32.97,7.17 C 33.15,7.29 33.20,7.57 33.05,7.73 C 32.82,8.10 32.27,8.16 31.94,7.89 C 31.65,7.70 31.51,7.35 31.50,7.01 C 31.45,6.76 31.41,6.49 31.50,6.23 C 31.56,6.14 31.65,6.07 31.75,6.03 z M 32.5,6.28 C 32.63,6.30 32.55,6.43 32.5,6.28 z M 32.31,6.40 C 32.56,6.59 31.94,6.83 32.09,6.50 C 32.14,6.44 32.23,6.42 32.31,6.40 z" id="p3626" style="fill:#d0b149;fill-opacity:1;fill-rule:evenodd;stroke:none;marker:none;visibility:visible;display:inline;overflow:visible;enable-background:accumulate"/>
<path d="M 36.68,4.18 C 36.43,4.27 36.45,4.66 36.66,4.78 C 36.85,4.90 37.03,5.08 37.04,5.32 C 37.14,5.58 37.49,5.62 37.56,5.89 C 37.61,6.06 37.55,6.29 37.35,6.31 C 37.17,6.36 36.87,6.55 37.03,6.76 C 37.23,6.88 37.33,6.57 37.42,6.48 C 37.69,6.37 38.04,6.61 37.99,6.91 C 37.84,6.99 37.91,6.66 37.74,6.68 C 37.51,6.59 37.39,6.84 37.41,7.03 C 37.34,7.25 37.08,7.29 36.90,7.20 C 36.71,7.18 36.52,7.35 36.57,7.54 C 36.63,7.79 36.37,7.96 36.16,7.86 C 35.96,7.83 35.76,8.05 35.92,8.22 C 36.06,8.39 36.32,8.39 36.51,8.31 C 36.73,8.22 36.93,8.35 37.11,8.45 C 37.34,8.54 37.66,8.49 37.77,8.25 C 37.95,7.92 37.97,7.54 38.11,7.20 C 38.17,7.01 38.21,6.80 38.15,6.60 C 38.01,6.53 37.77,6.24 38.03,6.16 C 38.26,6.06 38.41,5.74 38.22,5.54 C 38.09,5.37 37.70,5.56 37.89,5.75 C 38.04,5.81 38.08,6.04 37.87,6.02 C 37.67,5.98 37.69,5.72 37.77,5.58 C 37.85,5.39 37.94,5.18 37.88,4.97 C 37.81,4.70 37.39,4.69 37.28,4.94 C 37.07,5.10 37.48,5.44 37.54,5.15 C 37.63,4.88 37.85,5.29 37.66,5.38 C 37.53,5.53 37.30,5.41 37.24,5.25 C 37.11,4.93 37.31,4.50 37.67,4.45 C 37.91,4.46 38.21,4.47 38.38,4.68 C 38.56,4.94 38.45,5.27 38.42,5.56 C 38.42,5.75 38.22,5.90 38.28,6.09 C 38.44,6.28 38.59,5.97 38.57,5.82 C 38.60,5.58 38.70,5.35 38.70,5.11 C 38.71,4.84 38.63,4.53 38.37,4.40 C 38.13,4.27 37.84,4.25 37.57,4.27 C 37.36,4.30 37.17,4.44 37.11,4.65 C 37.02,4.82 36.60,4.62 36.80,4.47 C 36.94,4.67 37.23,4.43 37.01,4.28 C 36.92,4.20 36.80,4.17 36.68,4.18 z M 37.65,6.87 C 37.77,7.10 37.65,7.36 37.69,7.60 C 37.57,7.48 37.26,7.57 37.42,7.76 C 37.51,7.88 37.73,8.06 37.57,8.22 C 37.37,8.38 37.08,8.27 36.90,8.13 C 36.73,8.00 36.65,7.74 36.78,7.55 C 36.63,7.74 36.84,8.09 37.08,8.00 C 37.31,7.93 37.38,7.68 37.42,7.47 C 37.52,7.28 37.63,7.09 37.65,6.87 z M 37.09,7.5 C 37.37,7.49 36.94,7.89 37.02,7.62 C 37.06,7.59 37.12,7.55 37.09,7.5 z M 36.15,8.06 C 36.25,7.91 36.32,8.27 36.18,8.13 C 36.14,8.13 36.06,8.05 36.15,8.06 z" id="p3642" style="fill:#d0b149;fill-opacity:1;fill-rule:evenodd;stroke:none;marker:none;visibility:visible;display:inline;overflow:visible;enable-background:accumulate"/>
<path d="M 32.31,17.37 C 31.73,17.31 31.39,18.28 31.22,18.38 C 31.49,18.05 30.83,17.22 30.85,17.68 C 31.39,18.21 30.81,18.97 30.98,19.61 C 31.02,20.35 31.20,21.45 32.15,21.46 C 32.72,21.70 33.32,20.56 33.63,21.28 C 33.22,20.98 33.11,21.48 33.59,21.51 C 34.43,21.66 33.75,20.63 33.22,20.82 C 32.98,20.62 33.13,20.12 32.60,20.16 C 31.95,20.05 32.61,19.96 32.70,19.72 C 32.40,19.29 33.47,19.40 32.84,19.04 C 32.34,18.76 32.79,19.35 32.32,19.30 C 32.12,19.47 31.64,19.65 31.74,19.18 C 31.49,19.04 30.93,19.28 31.25,18.79 C 31.46,18.27 31.86,17.37 32.55,17.63 C 32.91,18.00 31.86,17.87 32.23,18.43 C 32.60,19.20 33.21,18.42 33.24,17.89 C 33.35,17.65 33.81,17.68 33.54,17.91 C 34.28,18.18 33.83,17.13 33.35,17.56 C 32.87,17.98 32.75,17.33 32.31,17.37 z M 32.5,18.06 C 32.40,18.51 33.17,18.29 32.68,18.59 C 32.45,18.57 32.22,18.19 32.5,18.06 z M 31.53,19.25 C 31.64,19.60 31.13,20.55 31.63,20.44 C 31.54,19.42 32.65,21.06 31.74,20.83 C 31.72,21.45 33.36,20.94 32.55,20.48 C 32.30,20.41 32.55,21.10 32.31,20.60 C 32.26,19.88 33.38,20.69 32.72,21.06 C 32.15,21.64 31.27,20.96 31.27,20.27 C 31.25,19.92 31.08,19.40 31.53,19.25 z M 32.28,19.5 C 32.45,19.59 32.39,19.75 32.28,19.5 z M 32.09,19.62 C 32.27,20.01 31.48,19.89 32.00,19.64 C 32.03,19.64 32.06,19.63 32.09,19.62 z" id="p3656" style="fill:#d0b149;fill-opacity:1;fill-rule:evenodd;stroke:none;marker:none;visibility:visible;display:inline;overflow:visible;enable-background:accumulate"/>
<path d="M 36.43,17.40 C 36.16,17.99 36.93,18.81 37.42,18.86 C 38.21,18.47 37.00,17.44 37.11,18.41 C 37.39,18.51 37.43,18.01 37.43,18.51 C 36.70,18.63 36.96,17.59 37.57,17.55 C 37.42,17.11 36.69,18.13 36.66,17.73 C 37.18,17.92 36.65,17.20 36.43,17.40 z M 37.40,19.46 C 36.95,19.19 36.65,20.32 37.22,19.77 C 37.57,20.17 37.09,20.89 37.15,21.39 C 36.78,21.73 36.19,20.51 36.71,21.21 C 37.48,21.19 37.03,19.92 36.45,20.56 C 36.42,21.11 35.70,21.01 35.71,21.44 C 36.26,21.47 37.41,22.05 37.40,21.08 C 37.18,20.59 37.99,19.64 37.40,19.46 z M 36.87,20.71 C 37.11,21.00 36.51,20.97 36.87,20.71 z M 35.93,21.28 C 36.32,21.14 35.99,21.51 35.93,21.28 z" id="p3672" style="fill:#d0b149;fill-opacity:1;fill-rule:evenodd;stroke:none;marker:none;visibility:visible;display:inline;overflow:visible;enable-background:accumulate"/>
<path d="M 32.15,23.53 C 31.71,23.58 31.36,23.93 31.20,24.33 C 31.21,24.51 30.90,24.30 31.07,24.24 C 31.09,24.02 31.02,23.79 30.85,23.64 C 30.60,23.75 30.74,24.07 30.90,24.19 C 31.02,24.45 30.87,24.72 30.85,24.97 C 30.79,25.41 30.91,25.85 30.93,26.29 C 30.95,26.68 31.05,27.12 31.38,27.37 C 31.76,27.66 32.31,27.65 32.71,27.39 C 32.96,27.31 33.19,27.49 33.37,27.64 C 33.53,27.75 33.83,27.67 33.82,27.45 C 33.80,27.16 33.50,26.99 33.23,26.98 C 32.98,26.93 32.92,26.65 32.81,26.46 C 32.70,26.24 32.40,26.38 32.25,26.24 C 32.19,26.01 32.59,26.01 32.55,25.77 C 32.60,25.59 32.86,25.51 32.82,25.30 C 32.78,25.04 32.43,25.07 32.34,25.27 C 32.21,25.43 32.03,25.62 31.81,25.58 C 31.62,25.48 31.51,25.25 31.27,25.24 C 31.03,25.22 30.97,24.95 31.12,24.79 C 31.35,24.42 31.53,23.98 31.93,23.78 C 32.08,23.64 32.47,23.65 32.40,23.92 C 32.27,24.07 31.98,24.12 32.00,24.37 C 32.01,24.69 32.35,24.98 32.67,24.87 C 32.90,24.78 32.93,24.50 32.96,24.29 C 32.98,24.13 33.05,23.91 33.24,23.88 C 33.43,23.89 33.43,24.23 33.65,24.12 C 33.90,24.03 33.80,23.69 33.59,23.63 C 33.32,23.48 33.16,23.81 32.92,23.83 C 32.66,23.89 32.57,23.59 32.35,23.53 C 32.29,23.51 32.22,23.51 32.15,23.53 z M 32.34,24.18 C 32.24,24.37 32.58,24.47 32.50,24.64 C 32.38,24.76 32.21,24.59 32.20,24.46 C 32.17,24.35 32.22,24.21 32.34,24.18 z M 31.37,25.40 C 31.46,25.67 31.28,25.92 31.25,26.18 C 31.00,26.31 31.44,26.67 31.50,26.38 C 31.69,26.23 31.99,26.44 31.98,26.67 C 32.03,26.89 31.51,27.01 31.78,27.21 C 31.97,27.27 32.16,27.15 32.35,27.17 C 32.55,27.14 32.71,26.89 32.59,26.71 C 32.48,26.49 32.14,26.94 32.12,26.63 C 32.18,26.39 32.50,26.40 32.63,26.56 C 32.81,26.73 32.80,27.04 32.60,27.19 C 32.19,27.59 31.40,27.39 31.23,26.84 C 31.11,26.52 31.08,26.17 31.08,25.82 C 31.10,25.65 31.18,25.45 31.37,25.40 z M 32.15,25.68 C 32.30,25.58 32.17,25.81 32.15,25.68 z M 31.93,25.78 C 32.12,25.97 31.57,25.91 31.87,25.79 L 31.90,25.78 L 31.93,25.78 z M 33.21,27.12 C 33.47,27.02 33.24,27.52 33.16,27.25 C 33.15,27.20 33.16,27.14 33.21,27.12 z" id="p3684" style="fill:#d0b149;fill-opacity:1;fill-rule:evenodd;stroke:none;marker:none;visibility:visible;display:inline;overflow:visible;enable-background:accumulate"/>
<path d="M 36.28,23.53 C 36.06,23.60 36.04,23.94 36.24,24.05 C 36.37,24.17 36.53,24.26 36.62,24.41 C 36.55,24.58 36.71,24.81 36.89,24.75 C 37.02,24.74 37.23,24.58 37.11,24.45 C 37.01,24.39 36.78,24.41 36.82,24.23 C 36.85,24.08 36.96,23.93 37.12,23.93 C 37.28,23.89 37.27,23.59 37.09,23.60 C 36.91,23.62 36.83,23.80 36.75,23.94 C 36.69,24.08 36.49,24.16 36.38,24.03 C 36.25,23.90 36.44,23.77 36.54,23.90 C 36.70,23.99 36.75,23.70 36.63,23.62 C 36.55,23.53 36.40,23.46 36.28,23.53 z M 36.87,25.03 C 36.69,24.98 36.57,25.28 36.73,25.38 C 36.89,25.42 37.04,25.57 37.02,25.75 C 37.14,25.89 36.87,26.01 36.78,25.89 C 36.73,25.76 36.53,25.80 36.43,25.85 C 36.30,25.91 36.23,26.04 36.21,26.17 C 36.13,26.47 36.24,26.83 36.52,26.99 C 36.68,27.04 36.85,27.08 37.01,27.14 C 37.19,27.14 37.28,26.93 37.23,26.78 C 37.18,26.28 37.29,25.76 37.13,25.28 C 37.08,25.17 36.99,25.07 36.87,25.03 z M 36.53,26 C 36.60,26.16 36.35,26.23 36.36,26.39 C 36.37,26.57 36.61,26.72 36.77,26.61 C 36.77,26.45 37.06,26.43 37.07,26.59 C 37.07,26.72 36.99,26.85 36.86,26.87 C 36.70,26.90 36.56,26.78 36.47,26.67 C 36.33,26.47 36.33,26.16 36.53,26 z M 36.75,26.09 C 36.91,26.12 36.83,26.41 36.68,26.37 C 36.55,26.27 36.79,26.20 36.75,26.09 z" id="p3700" style="fill:#d0b149;fill-opacity:1;fill-rule:evenodd;stroke:none;marker:none;visibility:visible;display:inline;overflow:visible;enable-background:accumulate"/>
<path d="M 32.06,29.78 C 31.61,29.81 31.27,30.19 31.12,30.59 C 31.17,30.71 30.91,30.92 30.97,30.70 C 31.00,30.48 31.01,30.23 30.86,30.05 C 30.87,29.75 30.33,30.01 30.66,30.13 C 30.93,30.35 30.92,30.74 30.82,31.04 C 30.75,31.26 30.69,31.49 30.75,31.72 C 30.83,32.26 30.77,32.84 31.03,33.34 C 31.23,33.68 31.63,33.83 32.01,33.83 C 32.16,33.83 32.33,33.83 32.47,33.77 C 32.65,33.62 32.91,33.58 33.06,33.78 C 33.25,33.88 33.56,34.06 33.73,33.85 C 33.87,33.59 33.58,33.43 33.40,33.31 C 33.26,33.13 33.02,33.30 32.89,33.16 C 32.90,33.00 32.89,32.81 32.73,32.70 C 32.58,32.56 32.37,32.53 32.18,32.55 C 32.00,32.53 32.00,32.26 32.21,32.33 C 32.44,32.34 32.52,32.07 32.43,31.92 C 32.57,31.83 32.83,31.78 32.73,31.55 C 32.68,31.40 32.47,31.28 32.32,31.36 C 32.20,31.44 32.42,31.61 32.21,31.61 C 32.01,31.61 31.96,31.87 32.10,31.98 C 32.01,31.76 31.77,31.89 31.60,31.87 C 31.51,31.74 31.54,31.46 31.29,31.48 C 31.16,31.51 30.89,31.56 30.96,31.33 C 31.09,30.99 31.25,30.66 31.47,30.37 C 31.66,30.14 31.94,29.90 32.25,29.99 C 32.43,29.98 32.57,30.32 32.32,30.27 C 32.13,30.17 31.92,30.38 31.93,30.58 C 31.93,30.89 32.21,31.21 32.53,31.16 C 32.78,31.09 32.87,30.80 32.85,30.57 C 32.88,30.30 33.13,30.12 33.38,30.06 C 33.54,30.16 33.12,30.35 33.39,30.41 C 33.62,30.49 33.83,30.15 33.64,29.99 C 33.45,29.79 33.10,29.84 32.95,30.06 C 32.73,30.25 32.56,29.97 32.42,29.85 C 32.31,29.78 32.18,29.76 32.06,29.78 z M 32.18,30.46 C 32.35,30.54 32.28,30.91 32.53,30.77 C 32.69,30.92 32.28,31.07 32.23,30.85 C 32.14,30.75 32.11,30.59 32.18,30.46 z M 31.31,31.65 C 31.39,31.97 31.13,32.24 31.14,32.56 C 31.04,32.72 31.30,33.05 31.40,32.86 C 31.24,32.66 31.54,32.38 31.69,32.62 C 31.86,32.74 31.96,32.99 31.86,33.18 C 31.75,33.27 31.33,33.26 31.54,33.48 C 31.76,33.59 31.98,33.36 32.21,33.45 C 32.44,33.49 32.63,33.19 32.50,32.99 C 32.45,32.73 32.04,32.92 32.27,33.11 C 32.27,33.31 31.94,33.09 32.03,32.94 C 32.05,32.69 32.41,32.65 32.55,32.82 C 32.76,32.98 32.68,33.31 32.50,33.45 C 32.22,33.72 31.78,33.70 31.47,33.50 C 31.24,33.36 31.08,33.11 31.07,32.84 C 31.01,32.51 30.90,32.14 31.05,31.82 C 31.11,31.73 31.20,31.66 31.31,31.65 z M 31.87,32.03 C 32.11,32.24 31.45,32.38 31.66,32.10 C 31.72,32.05 31.80,32.04 31.87,32.03 z M 33.06,33.40 C 33.21,33.31 33.56,33.63 33.29,33.67 C 33.17,33.63 33.03,33.54 33.06,33.40 z" id="p3712" style="fill:#d0b149;fill-opacity:1;fill-rule:evenodd;stroke:none;marker:none;visibility:visible;display:inline;overflow:visible;enable-background:accumulate"/>
<path d="M 35.96,29.78 C 35.77,29.83 35.73,30.10 35.86,30.23 C 35.93,30.42 36.14,30.48 36.27,30.61 C 36.25,30.78 36.22,30.99 36.37,31.12 C 36.45,31.24 36.61,31.48 36.78,31.36 C 36.92,31.22 36.86,31.01 36.95,30.85 C 37.01,30.69 37.00,30.41 36.78,30.42 C 36.59,30.45 36.45,30.68 36.52,30.86 C 36.56,30.92 36.75,31.13 36.56,31.05 C 36.43,30.87 36.50,30.63 36.56,30.43 C 36.58,30.28 36.67,30.18 36.84,30.20 C 37.08,30.21 36.94,29.91 36.77,29.93 C 36.62,29.88 36.54,30.04 36.43,30.06 C 36.32,29.97 36.31,29.75 36.12,29.78 C 36.07,29.77 36.02,29.77 35.96,29.78 z M 36,29.96 C 36.14,29.98 36.34,30.19 36.21,30.30 C 36.06,30.28 35.99,30.09 36,29.96 z M 36.78,30.65 C 36.87,30.78 36.61,30.71 36.78,30.65 z M 36.40,32.46 C 36.15,32.49 36.03,32.80 36.10,33.02 C 36.12,33.26 35.83,33.21 35.68,33.17 C 35.54,33.18 35.34,33.25 35.34,33.42 C 35.37,33.61 35.60,33.66 35.76,33.69 C 35.95,33.82 36.08,33.50 36.26,33.60 C 36.44,33.63 36.61,33.78 36.79,33.75 C 36.96,33.63 36.76,33.44 36.60,33.50 C 36.48,33.47 36.27,33.39 36.34,33.23 C 36.48,33.33 36.68,33.30 36.80,33.18 C 36.97,33.03 37.01,32.73 36.82,32.59 C 36.70,32.50 36.55,32.47 36.40,32.46 z M 36.40,32.65 C 36.59,32.69 36.23,32.79 36.38,32.65 L 36.39,32.65 L 36.40,32.65 z M 36.62,32.75 C 36.79,32.76 36.75,33.01 36.63,33.07 C 36.41,33.10 36.53,32.88 36.62,32.81 C 36.63,32.79 36.63,32.76 36.62,32.75 z M 35.68,33.40 C 35.76,33.22 36.01,33.54 35.78,33.49 C 35.74,33.48 35.60,33.46 35.68,33.40 z" id="p3728" style="fill:#d0b149;fill-opacity:1;fill-rule:evenodd;stroke:none;marker:none;visibility:visible;display:inline;overflow:visible;enable-background:accumulate"/>
<path d="M 31.90,36.21 C 31.42,36.29 31.08,36.72 30.91,37.14 C 30.89,37.24 30.75,37.41 30.79,37.21 C 30.84,36.93 30.86,36.60 30.63,36.40 C 30.49,36.24 30.21,36.50 30.46,36.58 C 30.67,36.75 30.74,37.05 30.67,37.31 C 30.61,37.65 30.51,38.00 30.59,38.34 C 30.64,38.83 30.68,39.33 30.88,39.78 C 31.13,40.24 31.73,40.40 32.22,40.25 C 32.40,40.20 32.58,40.11 32.73,39.98 C 32.76,40.26 33.08,40.31 33.28,40.39 C 33.52,40.49 33.74,40.20 33.54,40.02 C 33.36,39.83 33.13,39.60 32.85,39.66 C 32.66,39.71 32.79,39.35 32.67,39.25 C 32.53,39.08 32.31,38.95 32.08,39.01 C 31.92,39.04 31.75,38.78 31.98,38.77 C 32.22,38.81 32.44,38.56 32.23,38.37 C 32.29,38.22 32.59,38.37 32.58,38.12 C 32.60,37.91 32.30,37.70 32.12,37.84 C 32.01,37.94 32.32,38.07 32.11,38.09 C 31.90,38.08 31.79,38.30 31.59,38.35 C 31.28,38.47 31.42,38.03 31.24,37.94 C 31.09,37.82 30.80,38.14 30.78,37.87 C 30.83,37.55 31.02,37.26 31.20,36.99 C 31.37,36.75 31.59,36.48 31.90,36.44 C 32.11,36.41 32.34,36.53 32.38,36.74 C 32.44,36.93 32.48,37.15 32.40,37.33 C 32.26,37.52 31.97,37.33 31.99,37.13 C 31.97,36.95 32.20,36.96 32.12,37.14 C 32.18,37.41 32.53,37.18 32.41,36.98 C 32.35,36.76 32.03,36.61 31.87,36.81 C 31.68,37.04 31.81,37.39 32.04,37.55 C 32.21,37.70 32.52,37.66 32.61,37.42 C 32.72,37.19 32.64,36.89 32.85,36.71 C 32.90,36.57 33.27,36.46 33.21,36.63 C 33.01,36.73 33.21,36.97 33.38,36.85 C 33.63,36.75 33.58,36.36 33.30,36.35 C 33.07,36.29 32.85,36.43 32.72,36.60 C 32.44,36.69 32.40,36.35 32.19,36.28 C 32.10,36.24 32.00,36.21 31.90,36.21 z M 31.15,38.12 C 31.21,38.49 30.91,38.84 31.01,39.21 C 30.91,39.48 31.46,39.36 31.19,39.16 C 31.17,38.88 31.58,39.01 31.65,39.19 C 31.80,39.38 31.76,39.75 31.46,39.71 C 31.19,39.71 31.35,40.05 31.56,39.97 C 31.77,39.86 32.01,39.95 32.22,39.86 C 32.43,39.74 32.40,39.37 32.15,39.31 C 31.88,39.30 32.18,39.57 32.04,39.65 C 31.76,39.61 31.86,39.17 32.11,39.17 C 32.36,39.18 32.59,39.43 32.49,39.67 C 32.37,39.99 32.00,40.18 31.67,40.10 C 31.34,40.05 31.01,39.81 30.95,39.46 C 30.88,39.09 30.77,38.72 30.85,38.34 C 30.90,38.23 31.02,38.14 31.15,38.12 z M 31.90,38.37 C 32.03,38.34 31.97,38.62 31.93,38.42 C 31.92,38.40 31.91,38.39 31.90,38.37 z M 31.71,38.5 C 31.94,38.72 31.27,38.81 31.53,38.55 C 31.59,38.52 31.65,38.51 31.71,38.5 z M 33,39.84 C 33.12,39.85 33.44,40.10 33.18,40.13 C 33.06,40.10 32.80,39.96 33,39.84 z" id="p3740" style="fill:#d0b149;fill-opacity:1;fill-rule:evenodd;stroke:none;marker:none;visibility:visible;display:inline;overflow:visible;enable-background:accumulate"/>
<path d="M 36.62,35.71 C 36.48,35.86 36.43,36.07 36.28,36.20 C 36.18,36.39 35.83,36.27 35.87,36.06 C 35.98,35.86 36.20,36.33 36.27,36.05 C 36.31,35.81 36.00,35.67 35.81,35.79 C 35.60,35.89 35.66,36.16 35.79,36.31 C 35.86,36.49 36.10,36.47 36.18,36.64 C 36.24,36.79 36.24,36.97 36.38,37.08 C 36.48,37.22 36.73,37.34 36.84,37.15 C 36.93,36.99 36.88,36.80 36.92,36.63 C 36.93,36.45 36.73,36.26 36.57,36.38 C 36.42,36.46 36.36,36.71 36.51,36.81 C 36.70,36.84 36.48,37.06 36.44,36.89 C 36.31,36.66 36.43,36.40 36.54,36.19 C 36.62,36.07 36.86,36.01 36.82,35.83 C 36.79,35.75 36.70,35.72 36.62,35.71 z M 36.68,36.56 C 36.81,36.70 36.55,36.57 36.68,36.56 z M 36.65,37.84 C 36.44,37.83 36.31,38.03 36.16,38.14 C 36.01,38.30 36.39,38.53 36.41,38.30 C 36.38,38.10 36.73,38.05 36.66,38.28 C 36.65,38.49 36.55,38.69 36.58,38.90 C 36.60,38.99 36.49,39.14 36.46,38.98 C 36.33,38.78 36.00,38.69 35.82,38.89 C 35.70,39.09 35.74,39.33 35.71,39.55 C 35.72,39.76 35.91,39.93 36.11,39.96 C 36.26,40.01 36.43,40.11 36.57,40.01 C 36.69,39.87 36.64,39.68 36.65,39.52 C 36.72,39.04 36.80,38.56 36.87,38.08 C 36.95,37.95 36.77,37.82 36.65,37.84 z M 36.03,39 C 36.07,39.18 35.90,38.93 36.03,39 z M 36.28,39.09 C 36.52,39.13 36.19,39.53 36.13,39.28 C 36.15,39.20 36.29,39.19 36.28,39.09 z M 36.5,39.34 C 36.48,39.51 36.47,39.79 36.24,39.80 C 36.13,39.82 35.91,39.68 36.01,39.59 C 36.14,39.62 36.29,39.62 36.38,39.51 C 36.43,39.46 36.47,39.40 36.5,39.34 z" id="p3756" style="fill:#d0b149;fill-opacity:1;fill-rule:evenodd;stroke:none;marker:none;visibility:visible;display:inline;overflow:visible;enable-background:accumulate"/>
<path d="M 31.96,11.05 C 32.46,10.41 32.33,13.12 31.95,11.94 C 31.92,11.64 31.96,11.35 31.96,11.05 z M 32.1,11.31 C 32.02,11.82 32.36,11.16 32.1,11.31 z M 32.51,11.1 C 32.61,11.56 33.34,11.43 32.93,12.09 C 32.57,12.17 32.43,12.14 32.51,11.1 z M 33.15,11.15 C 33.57,11.19 33.04,12.86 33.16,11.42 L 33.15,11.15 L 33.15,11.15 z M 33.43,11.18 C 33.76,11.46 33.64,13.29 33.4,11.97 C 33.38,11.7 33.39,11.43 33.43,11.18 z M 34.14,11.46 C 33.8,11.93 34.57,12.17 34.19,11.48 L 34.14,11.46 L 34.14,11.46 z M 34.14,11.22 C 34.74,11.32 34.17,13.64 33.88,12.16 C 33.8,11.73 33.91,11.1 34.14,11.22 z M 34.92,11.35 C 34.61,11.54 35.2,12.84 34.68,12.46 C 34.6,11.9 34.47,10.76 34.92,11.35 z M 35.33,11.56 C 34.99,12.03 35.76,12.27 35.38,11.59 L 35.33,11.56 L 35.33,11.56 z M 35.33,11.32 C 35.93,11.43 35.36,13.74 35.07,12.26 C 34.99,11.83 35.11,11.2 35.33,11.32 z M 35.73,11.38 C 36.23,10.74 36.1,13.45 35.72,12.27 C 35.69,11.97 35.73,11.68 35.73,11.38 z M 35.87,11.63 C 35.79,12.15 36.13,11.49 35.87,11.63 z M 36.28,11.43 C 36.38,11.89 37.11,11.76 36.7,12.42 C 36.33,12.5 36.2,12.46 36.28,11.43 z M 36.92,11.48 C 37.34,11.52 36.81,13.19 36.93,11.75 L 36.92,11.48 L 36.92,11.48 z M 37.2,11.51 C 37.76,11.19 37.32,13.8 37.13,12.21 C 37.1,11.94 37.27,11.78 37.2,11.51 z M 32.1,13.56 C 31.91,14.47 32.66,13.65 32.1,13.56 L 32.1,13.56 z M 31.96,13.29 C 32.59,12.59 32.5,15.78 31.95,14.28 C 31.9,13.96 31.94,13.61 31.96,13.29 z M 32.68,13.35 C 32.82,13.82 32.41,13.45 32.68,13.35 z M 33.16,14.46 C 32.62,15.1 32.87,12.45 33.23,13.83 C 33.28,14.03 33.36,14.71 33.16,14.46 z M 32.97,14.2 C 33.19,14.38 32.88,13.56 32.97,14.2 z M 33.41,13.42 C 33.6,13.68 34.37,13.92 33.88,14.32 C 33.62,14.2 33.28,14.73 33.41,13.67 L 33.41,13.42 L 33.41,13.42 z M 34.42,13.73 C 34.07,14.19 34.84,14.43 34.46,13.75 L 34.42,13.73 L 34.42,13.73 z M 34.42,13.48 C 35.01,13.59 34.44,15.9 34.16,14.42 C 34.07,13.99 34.19,13.36 34.42,13.48 z M 34.81,13.54 C 34.94,14.04 35.08,14.33 35.23,14.03 C 35.52,14.99 34.56,15.23 34.79,13.91 L 34.8,13.73 L 34.81,13.54 L 34.81,13.54 z M 35.63,14.19 C 35.82,13.94 35.46,14.13 35.63,14.19 z M 35.57,14.42 C 35.13,14.56 35.64,12.7 35.81,13.9 C 35.99,14.49 35.78,15.13 35.57,14.42 z" id="text3777" style="fill:#e0c73d;fill-opacity:0.8;fill-rule:evenodd;stroke:none;marker:none;visibility:visible;display:inline;overflow:visible;enable-background:accumulate;"/>
<path d="M 35.43,40.59 C 35.20,40.76 35.25,41.09 35.31,41.34 C 35.56,41.57 34.97,41.88 35.04,41.50 C 35.01,41.17 34.62,41.06 34.36,41.20 C 34.09,41.28 33.99,41.59 34.00,41.84 C 33.75,42.04 33.59,41.63 33.68,41.43 C 33.76,41.24 33.51,40.85 33.44,41.19 C 33.40,41.44 33.54,41.70 33.42,41.94 C 33.39,42.24 32.89,42.21 33.01,41.88 C 33.03,41.62 32.72,41.49 32.53,41.66 C 32.33,41.69 31.99,41.52 31.91,41.80 C 31.96,42.00 31.61,42.29 31.61,41.96 C 31.63,41.77 31.78,41.49 31.57,41.37 C 31.25,41.31 31.23,41.77 31.22,42.00 C 31.28,42.21 31.12,42.66 30.88,42.38 C 30.73,42.19 30.73,41.83 30.45,41.77 C 30.14,41.85 30.51,42.09 30.57,42.24 C 30.69,42.43 30.79,42.69 31.03,42.75 C 31.34,42.76 31.43,42.41 31.41,42.16 C 31.42,41.98 31.45,42.36 31.57,42.36 C 31.81,42.56 31.97,42.30 32.02,42.09 C 32.09,41.84 32.33,41.90 32.46,42.03 C 32.59,41.98 32.83,41.80 32.79,42.08 C 32.78,42.33 33.11,42.57 33.32,42.37 C 33.45,42.13 33.73,42.11 33.96,42.15 C 34.25,42.04 34.14,41.65 34.35,41.47 C 34.60,41.21 34.90,41.52 34.91,41.80 C 35.01,42.08 35.46,42.05 35.49,41.75 C 35.54,41.62 35.45,41.30 35.62,41.53 C 35.84,41.62 36.01,41.33 36.06,41.23 C 36.16,41.34 36.48,41.44 36.35,41.18 C 36.27,40.97 35.92,40.63 35.79,40.98 C 35.56,41.19 35.70,40.74 35.56,40.65 C 35.53,40.61 35.48,40.59 35.43,40.59 z" id="p3797" style="fill:#d0b149;fill-opacity:0.75;fill-rule:evenodd;stroke:none;marker:none;visibility:visible;display:inline;overflow:visible;enable-background:accumulate"/>
<path d="M 35.56,42.31 C 35.29,42.45 35.35,42.83 35.47,43.05 C 35.59,43.30 35.17,43.55 35.13,43.21 C 35.09,42.88 34.77,42.72 34.49,42.91 C 34.19,42.97 34.13,43.25 34.10,43.51 C 33.89,43.76 33.67,43.30 33.78,43.10 C 33.86,42.94 33.67,42.55 33.56,42.85 C 33.51,43.09 33.62,43.35 33.51,43.60 C 33.50,43.84 33.18,43.97 33.12,43.68 C 33.12,43.43 32.94,43.21 32.68,43.32 C 32.46,43.39 32.13,43.19 32.01,43.47 C 32.07,43.63 31.80,43.99 31.74,43.69 C 31.75,43.48 31.94,43.08 31.61,43.05 C 31.39,43.10 31.33,43.38 31.33,43.58 C 31.34,43.77 31.34,44.01 31.18,44.14 C 30.93,44.16 30.90,43.85 30.79,43.70 C 30.75,43.48 30.32,43.38 30.49,43.68 C 30.68,43.87 30.82,44.10 30.94,44.33 C 31.09,44.56 31.47,44.46 31.48,44.18 C 31.55,43.89 31.99,44.31 32.08,43.98 C 32.08,43.76 32.35,43.42 32.53,43.70 C 32.67,43.81 32.92,43.39 32.88,43.71 C 32.81,43.99 33.23,44.34 33.42,44.04 C 33.57,43.81 33.85,43.79 34.07,43.87 C 34.32,43.78 34.29,43.48 34.37,43.29 C 34.46,43.05 34.86,43.00 34.93,43.29 C 34.98,43.51 35.18,43.78 35.44,43.66 C 35.63,43.56 35.66,43.31 35.64,43.11 C 35.74,43.42 36.09,43.19 36.10,42.95 C 36.22,42.91 36.49,43.20 36.48,42.92 C 36.40,42.73 36.16,42.41 35.95,42.56 C 35.91,42.64 35.83,42.96 35.75,42.74 C 35.76,42.58 35.77,42.33 35.56,42.31 z" id="p3799" style="fill:#d0b149;fill-opacity:0.57;fill-rule:evenodd;stroke:none;marker:none;visibility:visible;display:inline;overflow:visible;enable-background:accumulate"/>
<path d="M 9.99,3.91 C 9.24,4.66 9.64,7.81 9.64,10.36 C 9.64,12.91 9.79,27.6 9.79,29.55 C 9.79,31.5 9.79,37.95 9.79,38.55 C 9.79,39.15 10.04,40.45 10.29,40.7 C 10.54,40.95 16.49,42.5 18.39,42.95 C 20.29,43.4 28.08,45.55 28.28,45.5 C 28.48,45.45 28.78,45.4 28.78,45.4 C 28.78,45.4 28.88,45.65 29.13,45.65 C 29.38,45.65 31.18,45.65 32.78,45.35 C 34.38,45.05 35.43,44.75 35.68,44.6 C 35.93,44.45 36.63,43.7 36.68,43.4 C 36.73,43.1 36.48,40.4 36.58,39.95 C 36.68,39.5 36.83,37.75 36.78,36.9 C 36.73,36.05 36.63,34.9 36.78,34.5 C 36.93,34.1 36.78,33.6 36.78,32.9 C 36.78,32.2 36.83,28.85 36.98,28.6 C 37.13,28.35 37.23,28.1 37.23,27.75 C 37.23,27.4 37.03,27.15 37.08,26.5 C 37.13,25.85 37.18,23.6 37.23,23.26 C 37.28,22.91 37.58,22.41 37.58,22.16 C 37.58,21.91 37.38,21.56 37.38,21.06 C 37.38,20.56 37.58,17.16 37.58,16.81 C 37.58,16.46 37.93,16.21 37.93,15.96 C 37.93,15.71 37.63,15.36 37.63,15.11 C 37.63,14.86 37.73,11.21 37.88,10.76 C 38.03,10.31 38.13,10.11 38.03,9.66 C 37.93,9.21 38.28,6.71 38.38,6.16 C 38.48,5.61 38.43,3.81 38.43,3.56 C 38.43,3.31 38.08,2.81 37.93,2.81 C 37.78,2.81 37.33,2.91 35.93,2.76 C 34.53,2.61 31.38,2.31 30.98,2.31 C 30.58,2.31 30.33,2.41 30.03,2.36 C 29.73,2.31 29.43,2.21 28.28,2.26 C 27.13,2.31 18.69,2.96 17.19,3.06 C 15.69,3.16 10.59,3.46 9.99,3.91 z" id="stroke01" style="fill:none;fill-opacity:1;fill-rule:evenodd;stroke:#2e1810;stroke-width:0.5;stroke-linecap:butt;stroke-linejoin:round;stroke-miterlimit:4;stroke-dasharray:none;stroke-opacity:1;display:inline"/>
</g>
</svg>
