<?xml version="1.0" encoding="UTF-8" standalone="no"?>
<!DOCTYPE svg PUBLIC "-//W3C//DTD SVG 1.0//EN" "http://www.w3.org/TR/2001/REC-SVG-20010904/DTD/svg10.dtd">
<svg xmlns:svg="http://www.w3.org/2000/svg" xmlns="http://www.w3.org/2000/svg" version="1.0" width="100%" height="100%" viewBox="0 0 48 48" id="_paper01">
<defs id="defs2385"/>
<g id="paper01">
<path d="M 22.24,9.68 L 23.27,6.48 L 46.24,13.49 L 39.34,36.77 L 21.93,30.59 L 22.24,9.68 z" id="p2490" style="fill:#d7c59e;fill-opacity:1;fill-rule:evenodd;stroke:none;"/>
<path d="M 15.96,11.94 L 16.37,8.65 L 40.27,11.02 L 37.90,35.12 L 18.74,32.75 L 15.96,11.94 z" id="p2488" style="fill:#dccba8;fill-opacity:1;fill-rule:evenodd;stroke:#1f1c0f;stroke-width:0.30;stroke-linecap:butt;stroke-linejoin:miter;stroke-miterlimit:4;stroke-dasharray:none;stroke-opacity:1"/>
<path d="M 10.40,14.62 L 10.40,11.43 L 34.19,10.30 L 35.74,34.30 L 16.78,35.74 L 10.40,14.62 z" id="p2486" style="fill:#dfcfac;fill-opacity:1;fill-rule:evenodd;stroke:#1f1c0f;stroke-width:0.30;stroke-linecap:butt;stroke-linejoin:miter;stroke-miterlimit:4;stroke-dasharray:none;stroke-opacity:1"/>
<path d="M 5.66,16.58 L 5.35,14.21 L 28.94,9.99 L 33.47,33.78 L 13.90,37.18 L 5.66,16.58 z" id="p2484" style="fill:#e0d1b2;fill-opacity:1;fill-rule:evenodd;stroke:#1f1c0f;stroke-width:0.30;stroke-linecap:butt;stroke-linejoin:miter;stroke-miterlimit:4;stroke-dasharray:none;stroke-opacity:1"/>
<path d="M 1.33,18.02 L 8.96,41.20 L 32.24,33.27 L 24.20,10.09 L 1.33,18.02 z" id="p2480" style="fill:#e3d6bb;fill-opacity:1;fill-rule:evenodd;stroke:#1f1c0f;stroke-width:0.30;stroke-linecap:butt;stroke-linejoin:miter;stroke-miterlimit:4;stroke-dasharray:none;stroke-opacity:1"/>
<path d="M 23.28,6.5 L 22.37,9.25 L 16.37,8.65 L 16.06,11.15 L 10.40,11.43 L 10.40,13.31 L 5.34,14.21 L 5.65,16.53 L 1.34,18.03 L 8.96,41.18 L 27.34,34.93 L 33.03,34.53 L 39.34,36.78 L 46.25,13.5 L 40.21,11.65 L 40.28,11.03 L 37.12,10.71 L 23.28,6.5 z" id="stroke01" style="fill:none;fill-opacity:1;fill-rule:evenodd;stroke:#1f1c0f;stroke-width:0.5;stroke-linecap:butt;stroke-linejoin:miter;stroke-miterlimit:4;stroke-dasharray:none;stroke-opacity:1"/>
</g>
</svg>
