<?xml version="1.0" encoding="UTF-8" standalone="no"?>
<!DOCTYPE svg PUBLIC "-//W3C//DTD SVG 1.0//EN" "http://www.w3.org/TR/2001/REC-SVG-20010904/DTD/svg10.dtd">
<svg xmlns:svg="http://www.w3.org/2000/svg" xmlns="http://www.w3.org/2000/svg" version="1.0" width="100%" height="100%" viewBox="0 0 48 48" id="_sketchbook01" style="display:inline">
<defs id="defs2385"/>
<g id="sketchbook01">
<path d="M 44.8,33.99 L 44.49,35.02 L 43.77,35.74 L 18.64,45.52 L 3.39,14 L 4.01,13.9 L 4.22,13.39 L 4.53,12.77 L 4.73,11.74 L 44.8,33.99 z" id="p3997" style="fill:#f0f0eb;fill-opacity:1;fill-rule:evenodd;stroke:none"/>
<path d="M 41.37,32.09 L 18.93,41.81 L 19.78,44.18 L 19.28,45.28 L 43.78,35.75 L 44.5,35.03 L 44.81,34 L 41.37,32.09 z" id="p4005" style="fill:#cfcfbf;fill-opacity:0.63;fill-rule:evenodd;stroke:none"/>
<path d="M 4.42,11.63 L 18.84,43.36 L 45.21,33.99 L 29.04,4.22 L 4.42,11.63 z" id="p3225" style="fill:#52575a;fill-opacity:1;fill-rule:evenodd;stroke:none"/>
<path d="M 4.15,13.56 L 4.03,13.9 L 3.4,14 L 18.65,45.53 L 19.18,45.31 L 4.15,13.56 z" id="p4008" style="fill:#a9a98d;fill-opacity:0.63;fill-rule:evenodd;stroke:none;display:inline"/>
<path d="M 8.07,13.68 C 8.10,14.13 7.75,14.49 7.29,14.49 C 6.83,14.49 6.43,14.13 6.40,13.68 C 6.37,13.22 6.71,12.86 7.18,12.86 C 7.64,12.86 8.04,13.22 8.07,13.68 L 8.07,13.68 z" id="p4011" style="fill:#f0f0eb;fill-opacity:1;fill-rule:nonzero;stroke:none;marker:none;visibility:visible;display:inline;overflow:visible;enable-background:accumulate"/>
<path d="M 9.24,16.24 C 9.27,16.69 8.92,17.05 8.46,17.05 C 8.00,17.05 7.60,16.69 7.57,16.24 C 7.54,15.78 7.88,15.42 8.35,15.42 C 8.81,15.42 9.21,15.78 9.24,16.24 L 9.24,16.24 z" id="p4013" style="fill:#f0f0eb;fill-opacity:1;fill-rule:nonzero;stroke:none;marker:none;visibility:visible;display:inline;overflow:visible;enable-background:accumulate"/>
<path d="M 10.41,18.9 C 10.44,19.35 10.09,19.71 9.63,19.71 C 9.17,19.71 8.77,19.35 8.74,18.9 C 8.71,18.44 9.05,18.08 9.52,18.08 C 9.98,18.08 10.38,18.44 10.41,18.9 L 10.41,18.9 z" id="p4015" style="fill:#f0f0eb;fill-opacity:1;fill-rule:nonzero;stroke:none;marker:none;visibility:visible;display:inline;overflow:visible;enable-background:accumulate"/>
<path d="M 11.52,21.45 C 11.55,21.90 11.20,22.26 10.74,22.26 C 10.28,22.26 9.88,21.90 9.85,21.45 C 9.82,20.99 10.16,20.63 10.63,20.63 C 11.09,20.63 11.49,20.99 11.52,21.45 L 11.52,21.45 z" id="p4017" style="fill:#f0f0eb;fill-opacity:1;fill-rule:nonzero;stroke:none;marker:none;visibility:visible;display:inline;overflow:visible;enable-background:accumulate"/>
<path d="M 12.70,24.01 C 12.73,24.46 12.38,24.82 11.92,24.82 C 11.46,24.82 11.06,24.46 11.03,24.01 C 11.00,23.55 11.34,23.19 11.81,23.19 C 12.27,23.19 12.67,23.55 12.70,24.01 L 12.70,24.01 z" id="p4019" style="fill:#f0f0eb;fill-opacity:1;fill-rule:nonzero;stroke:none;marker:none;visibility:visible;display:inline;overflow:visible;enable-background:accumulate"/>
<path d="M 13.86,26.59 C 13.89,27.04 13.54,27.40 13.08,27.40 C 12.62,27.40 12.22,27.04 12.19,26.59 C 12.16,26.13 12.50,25.77 12.97,25.77 C 13.43,25.77 13.83,26.13 13.86,26.59 L 13.86,26.59 z" id="p4021" style="fill:#f0f0eb;fill-opacity:1;fill-rule:nonzero;stroke:none;marker:none;visibility:visible;display:inline;overflow:visible;enable-background:accumulate"/>
<path d="M 15.12,29.28 C 15.15,29.73 14.80,30.09 14.34,30.09 C 13.88,30.09 13.48,29.73 13.45,29.28 C 13.42,28.82 13.76,28.46 14.23,28.46 C 14.69,28.46 15.09,28.82 15.12,29.28 L 15.12,29.28 z" id="p4023" style="fill:#f0f0eb;fill-opacity:1;fill-rule:nonzero;stroke:none;marker:none;visibility:visible;display:inline;overflow:visible;enable-background:accumulate"/>
<path d="M 16.38,32.02 C 16.41,32.47 16.06,32.83 15.60,32.83 C 15.14,32.83 14.74,32.47 14.71,32.02 C 14.68,31.56 15.02,31.20 15.49,31.20 C 15.95,31.20 16.35,31.56 16.38,32.02 L 16.38,32.02 z" id="p4025" style="fill:#f0f0eb;fill-opacity:1;fill-rule:nonzero;stroke:none;marker:none;visibility:visible;display:inline;overflow:visible;enable-background:accumulate"/>
<path d="M 17.62,34.73 C 17.65,35.18 17.30,35.54 16.84,35.54 C 16.38,35.54 15.98,35.18 15.95,34.73 C 15.92,34.27 16.26,33.91 16.73,33.91 C 17.19,33.91 17.59,34.27 17.62,34.73 L 17.62,34.73 z" id="p4027" style="fill:#f0f0eb;fill-opacity:1;fill-rule:nonzero;stroke:none;marker:none;visibility:visible;display:inline;overflow:visible;enable-background:accumulate"/>
<path d="M 18.88,37.48 C 18.91,37.93 18.56,38.29 18.10,38.29 C 17.64,38.29 17.24,37.93 17.21,37.48 C 17.18,37.02 17.52,36.66 17.99,36.66 C 18.45,36.66 18.85,37.02 18.88,37.48 L 18.88,37.48 z" id="p4029" style="fill:#f0f0eb;fill-opacity:1;fill-rule:nonzero;stroke:none;marker:none;visibility:visible;display:inline;overflow:visible;enable-background:accumulate"/>
<path d="M 20.15,40.3 C 20.18,40.75 19.83,41.11 19.37,41.11 C 18.91,41.11 18.51,40.75 18.48,40.3 C 18.45,39.84 18.79,39.48 19.26,39.48 C 19.72,39.48 20.12,39.84 20.15,40.3 L 20.15,40.3 z" id="p4031" style="fill:#f0f0eb;fill-opacity:1;fill-rule:nonzero;stroke:none;marker:none;visibility:visible;display:inline;overflow:visible;enable-background:accumulate"/>
<path d="M 7.83,13.62 C 7.86,14.01 7.56,14.32 7.17,14.32 C 6.78,14.32 6.44,14.01 6.41,13.62 C 6.38,13.24 6.68,12.93 7.07,12.93 C 7.46,12.93 7.80,13.24 7.83,13.62 L 7.83,13.62 z" id="p4033" style="fill:#10100c;fill-opacity:1;fill-rule:nonzero;stroke:none;marker:none;visibility:visible;display:inline;overflow:visible;enable-background:accumulate"/>
<path d="M 9.01,16.17 C 9.04,16.56 8.74,16.87 8.35,16.87 C 7.96,16.87 7.62,16.56 7.59,16.17 C 7.56,15.79 7.86,15.48 8.25,15.48 C 8.64,15.48 8.98,15.79 9.01,16.17 L 9.01,16.17 z" id="p4035" style="fill:#10100c;fill-opacity:1;fill-rule:nonzero;stroke:none;marker:none;visibility:visible;display:inline;overflow:visible;enable-background:accumulate"/>
<path d="M 10.20,18.79 C 10.23,19.18 9.93,19.49 9.54,19.49 C 9.15,19.49 8.81,19.18 8.78,18.79 C 8.75,18.41 9.05,18.10 9.44,18.10 C 9.83,18.10 10.17,18.41 10.20,18.79 L 10.20,18.79 z" id="p4037" style="fill:#10100c;fill-opacity:1;fill-rule:nonzero;stroke:none;marker:none;visibility:visible;display:inline;overflow:visible;enable-background:accumulate"/>
<path d="M 11.31,21.36 C 11.34,21.75 11.04,22.06 10.65,22.06 C 10.26,22.06 9.92,21.75 9.89,21.36 C 9.86,20.98 10.16,20.67 10.55,20.67 C 10.94,20.67 11.28,20.98 11.31,21.36 L 11.31,21.36 z" id="p4039" style="fill:#10100c;fill-opacity:1;fill-rule:nonzero;stroke:none;marker:none;visibility:visible;display:inline;overflow:visible;enable-background:accumulate"/>
<path d="M 12.54,23.96 C 12.57,24.35 12.27,24.66 11.88,24.66 C 11.49,24.66 11.15,24.35 11.12,23.96 C 11.09,23.58 11.39,23.27 11.78,23.27 C 12.17,23.27 12.51,23.58 12.54,23.96 L 12.54,23.96 z" id="p4041" style="fill:#10100c;fill-opacity:1;fill-rule:nonzero;stroke:none;marker:none;visibility:visible;display:inline;overflow:visible;enable-background:accumulate"/>
<path d="M 13.65,26.53 C 13.68,26.92 13.38,27.23 12.99,27.23 C 12.60,27.23 12.26,26.92 12.23,26.53 C 12.20,26.15 12.50,25.84 12.89,25.84 C 13.28,25.84 13.62,26.15 13.65,26.53 L 13.65,26.53 z" id="p4043" style="fill:#10100c;fill-opacity:1;fill-rule:nonzero;stroke:none;marker:none;visibility:visible;display:inline;overflow:visible;enable-background:accumulate"/>
<path d="M 14.93,29.18 C 14.96,29.57 14.66,29.88 14.27,29.88 C 13.88,29.88 13.54,29.57 13.51,29.18 C 13.48,28.80 13.78,28.49 14.17,28.49 C 14.56,28.49 14.90,28.80 14.93,29.18 L 14.93,29.18 z" id="p4045" style="fill:#10100c;fill-opacity:1;fill-rule:nonzero;stroke:none;marker:none;visibility:visible;display:inline;overflow:visible;enable-background:accumulate"/>
<path d="M 16.18,31.94 C 16.21,32.33 15.91,32.64 15.52,32.64 C 15.13,32.64 14.79,32.33 14.76,31.94 C 14.73,31.56 15.03,31.25 15.42,31.25 C 15.81,31.25 16.15,31.56 16.18,31.94 L 16.18,31.94 z" id="p4047" style="fill:#10100c;fill-opacity:1;fill-rule:nonzero;stroke:none;marker:none;visibility:visible;display:inline;overflow:visible;enable-background:accumulate"/>
<path d="M 17.43,34.67 C 17.46,35.06 17.16,35.37 16.77,35.37 C 16.38,35.37 16.04,35.06 16.01,34.67 C 15.98,34.29 16.28,33.98 16.67,33.98 C 17.06,33.98 17.40,34.29 17.43,34.67 L 17.43,34.67 z" id="p4049" style="fill:#10100c;fill-opacity:1;fill-rule:nonzero;stroke:none;marker:none;visibility:visible;display:inline;overflow:visible;enable-background:accumulate"/>
<path d="M 18.68,37.41 C 18.71,37.80 18.41,38.11 18.02,38.11 C 17.63,38.11 17.29,37.80 17.26,37.41 C 17.23,37.03 17.53,36.72 17.92,36.72 C 18.31,36.72 18.65,37.03 18.68,37.41 L 18.68,37.41 z" id="p4051" style="fill:#10100c;fill-opacity:1;fill-rule:nonzero;stroke:none;marker:none;visibility:visible;display:inline;overflow:visible;enable-background:accumulate"/>
<path d="M 19.94,40.21 C 19.97,40.60 19.67,40.91 19.28,40.91 C 18.89,40.91 18.55,40.60 18.52,40.21 C 18.49,39.83 18.79,39.52 19.18,39.52 C 19.57,39.52 19.91,39.83 19.94,40.21 L 19.94,40.21 z" id="p4053" style="fill:#10100c;fill-opacity:1;fill-rule:nonzero;stroke:none;marker:none;visibility:visible;display:inline;overflow:visible;enable-background:accumulate"/>
<path d="M 4.42,11.63 L 18.84,43.36 L 45.21,33.99 L 29.04,4.22 L 4.42,11.63 z" id="p4085" style="fill:none;fill-opacity:1;fill-rule:evenodd;stroke:#1c1c1c;stroke-width:0.30;stroke-linecap:butt;stroke-linejoin:miter;stroke-miterlimit:4;stroke-dasharray:none;stroke-opacity:1;display:inline"/>
<path d="M 29.06,4.21 L 4.43,11.62 L 4.65,12.12 L 4.53,12.78 L 4.21,13.37 L 4.03,13.9 L 3.4,14 L 18.65,45.53 L 43.78,35.75 L 44.5,35.03 L 44.75,34.15 L 45.21,34 L 29.06,4.21 z" id="stroke01" style="fill:none;fill-opacity:1;fill-rule:evenodd;stroke:#1c1c1c;stroke-width:0.5;stroke-linecap:butt;stroke-linejoin:miter;stroke-miterlimit:4;stroke-dasharray:none;stroke-opacity:1"/>
<path d="M 4.73,16.31 C 3.51,16.81 2.68,16.63 2.57,15.83 C 2.47,15.11 3.4,14 5.01,13.58 C 6.73,13.13 6.9,13.52 6.9,13.52" id="stroke02" style="fill:none;fill-rule:evenodd;stroke:#000000;stroke-width:0.5;stroke-linecap:butt;stroke-linejoin:miter;stroke-miterlimit:4;stroke-dasharray:none;stroke-opacity:1;display:inline"/>
<path d="M 5.06,17.07 C 3.88,17.42 2.98,17.29 2.87,16.48 C 2.77,15.77 3.7,14.65 5.31,14.23 C 7.03,13.79 7.2,14.18 7.2,14.18" id="stroke03" style="fill:none;fill-rule:evenodd;stroke:#000000;stroke-width:0.5;stroke-linecap:butt;stroke-linejoin:miter;stroke-miterlimit:4;stroke-dasharray:none;stroke-opacity:1"/>
<path d="M 5.87,13.37 L 6.28,13.34" id="p4108" style="fill:none;fill-rule:evenodd;stroke:#efefef;stroke-width:0.30;stroke-linecap:round;stroke-linejoin:miter;stroke-miterlimit:4;stroke-dasharray:none;stroke-opacity:0.31"/>
<path d="M 6.24,13.99 L 6.65,13.97" id="p4110" style="fill:none;fill-rule:evenodd;stroke:#efefef;stroke-width:0.30;stroke-linecap:round;stroke-linejoin:miter;stroke-miterlimit:4;stroke-dasharray:none;stroke-opacity:0.31;display:inline"/>
<path d="M 5.96,18.98 C 4.78,19.28 3.64,19.32 3.53,18.52 C 3.43,17.8 4.36,16.69 5.97,16.27 C 7.69,15.82 7.86,16.21 7.86,16.21" id="stroke04" style="fill:none;fill-rule:evenodd;stroke:#000000;stroke-width:0.5;stroke-linecap:butt;stroke-linejoin:miter;stroke-miterlimit:4;stroke-dasharray:none;stroke-opacity:1;display:inline"/>
<path d="M 6.32,19.68 C 5.06,20 3.94,19.98 3.83,19.17 C 3.73,18.46 4.66,17.34 6.27,16.92 C 7.99,16.48 8.29,16.82 8.29,16.82" id="stroke05" style="fill:none;fill-rule:evenodd;stroke:#000000;stroke-width:0.5;stroke-linecap:butt;stroke-linejoin:miter;stroke-miterlimit:4;stroke-dasharray:none;stroke-opacity:1"/>
<path d="M 6.83,16.06 L 7.24,16.03" id="p4118" style="fill:none;fill-rule:evenodd;stroke:#efefef;stroke-width:0.30;stroke-linecap:round;stroke-linejoin:miter;stroke-miterlimit:4;stroke-dasharray:none;stroke-opacity:0.31"/>
<path d="M 7.2,16.68 L 7.61,16.66" id="p4120" style="fill:none;fill-rule:evenodd;stroke:#efefef;stroke-width:0.30;stroke-linecap:round;stroke-linejoin:miter;stroke-miterlimit:4;stroke-dasharray:none;stroke-opacity:0.31;display:inline"/>
<path d="M 7.23,21.37 C 6.01,21.87 4.84,21.71 4.73,20.91 C 4.63,20.19 5.56,19.08 7.17,18.66 C 8.89,18.21 9.06,18.6 9.06,18.6" id="stroke06" style="fill:none;fill-rule:evenodd;stroke:#000000;stroke-width:0.5;stroke-linecap:butt;stroke-linejoin:miter;stroke-miterlimit:4;stroke-dasharray:none;stroke-opacity:1;display:inline"/>
<path d="M 7.55,22.08 C 6.33,22.58 5.14,22.37 5.03,21.56 C 4.93,20.85 5.86,19.73 7.47,19.31 C 9.19,18.87 9.36,19.26 9.36,19.26" id="stroke07" style="fill:none;fill-rule:evenodd;stroke:#000000;stroke-width:0.5;stroke-linecap:butt;stroke-linejoin:miter;stroke-miterlimit:4;stroke-dasharray:none;stroke-opacity:1"/>
<path d="M 8.03,18.45 L 8.44,18.42" id="p4133" style="fill:none;fill-rule:evenodd;stroke:#efefef;stroke-width:0.30;stroke-linecap:round;stroke-linejoin:miter;stroke-miterlimit:4;stroke-dasharray:none;stroke-opacity:0.31"/>
<path d="M 8.4,19.07 L 8.81,19.05" id="p4135" style="fill:none;fill-rule:evenodd;stroke:#efefef;stroke-width:0.30;stroke-linecap:round;stroke-linejoin:miter;stroke-miterlimit:4;stroke-dasharray:none;stroke-opacity:0.31;display:inline"/>
<path d="M 8.49,23.93 C 7.27,24.43 5.91,24.32 5.8,23.52 C 5.7,22.8 6.63,21.69 8.24,21.27 C 9.96,20.82 10.13,21.21 10.13,21.21" id="stroke08" style="fill:none;fill-rule:evenodd;stroke:#000000;stroke-width:0.5;stroke-linecap:butt;stroke-linejoin:miter;stroke-miterlimit:4;stroke-dasharray:none;stroke-opacity:1;display:inline"/>
<path d="M 8.79,24.59 C 7.57,25.09 6.21,24.98 6.1,24.17 C 6,23.46 6.93,22.34 8.54,21.92 C 10.26,21.48 10.43,21.87 10.43,21.87" id="stroke09" style="fill:none;fill-rule:evenodd;stroke:#000000;stroke-width:0.5;stroke-linecap:butt;stroke-linejoin:miter;stroke-miterlimit:4;stroke-dasharray:none;stroke-opacity:1"/>
<path d="M 9.1,21.06 L 9.51,21.03" id="p4143" style="fill:none;fill-rule:evenodd;stroke:#efefef;stroke-width:0.30;stroke-linecap:round;stroke-linejoin:miter;stroke-miterlimit:4;stroke-dasharray:none;stroke-opacity:0.31"/>
<path d="M 9.47,21.68 L 9.88,21.66" id="p4145" style="fill:none;fill-rule:evenodd;stroke:#efefef;stroke-width:0.30;stroke-linecap:round;stroke-linejoin:miter;stroke-miterlimit:4;stroke-dasharray:none;stroke-opacity:0.31;display:inline"/>
<path d="M 9.74,26.52 C 8.52,27.02 7.16,26.91 7.05,26.11 C 6.95,25.39 7.88,24.28 9.49,23.86 C 11.21,23.41 11.38,23.8 11.38,23.8" id="stroke10" style="fill:none;fill-rule:evenodd;stroke:#000000;stroke-width:0.5;stroke-linecap:butt;stroke-linejoin:miter;stroke-miterlimit:4;stroke-dasharray:none;stroke-opacity:1;display:inline"/>
<path d="M 10.04,27.18 C 8.82,27.68 7.46,27.57 7.35,26.76 C 7.25,26.05 8.18,24.93 9.79,24.51 C 11.51,24.07 11.68,24.46 11.68,24.46" id="stroke11" style="fill:none;fill-rule:evenodd;stroke:#000000;stroke-width:0.5;stroke-linecap:butt;stroke-linejoin:miter;stroke-miterlimit:4;stroke-dasharray:none;stroke-opacity:1"/>
<path d="M 10.35,23.65 L 10.76,23.62" id="p4153" style="fill:none;fill-rule:evenodd;stroke:#efefef;stroke-width:0.30;stroke-linecap:round;stroke-linejoin:miter;stroke-miterlimit:4;stroke-dasharray:none;stroke-opacity:0.31"/>
<path d="M 10.72,24.27 L 11.13,24.25" id="p4155" style="fill:none;fill-rule:evenodd;stroke:#efefef;stroke-width:0.30;stroke-linecap:round;stroke-linejoin:miter;stroke-miterlimit:4;stroke-dasharray:none;stroke-opacity:0.31;display:inline"/>
<path d="M 10.95,29.03 C 9.73,29.53 8.37,29.42 8.26,28.62 C 8.16,27.9 9.09,26.79 10.7,26.37 C 12.42,25.92 12.59,26.31 12.59,26.31" id="stroke12" style="fill:none;fill-rule:evenodd;stroke:#000000;stroke-width:0.5;stroke-linecap:butt;stroke-linejoin:miter;stroke-miterlimit:4;stroke-dasharray:none;stroke-opacity:1;display:inline"/>
<path d="M 11.25,29.69 C 10.03,30.19 8.67,30.08 8.56,29.27 C 8.46,28.56 9.39,27.44 11,27.02 C 12.72,26.58 12.89,26.97 12.89,26.97" id="stroke13" style="fill:none;fill-rule:evenodd;stroke:#000000;stroke-width:0.5;stroke-linecap:butt;stroke-linejoin:miter;stroke-miterlimit:4;stroke-dasharray:none;stroke-opacity:1"/>
<path d="M 11.56,26.16 L 11.97,26.13" id="p4163" style="fill:none;fill-rule:evenodd;stroke:#efefef;stroke-width:0.30;stroke-linecap:round;stroke-linejoin:miter;stroke-miterlimit:4;stroke-dasharray:none;stroke-opacity:0.31"/>
<path d="M 11.93,26.78 L 12.34,26.76" id="p4165" style="fill:none;fill-rule:evenodd;stroke:#efefef;stroke-width:0.30;stroke-linecap:round;stroke-linejoin:miter;stroke-miterlimit:4;stroke-dasharray:none;stroke-opacity:0.31;display:inline"/>
<path d="M 12.25,31.77 C 11.03,32.27 9.67,32.16 9.56,31.36 C 9.46,30.64 10.39,29.53 12,29.11 C 13.72,28.66 13.89,29.05 13.89,29.05" id="stroke14" style="fill:none;fill-rule:evenodd;stroke:#000000;stroke-width:0.5;stroke-linecap:butt;stroke-linejoin:miter;stroke-miterlimit:4;stroke-dasharray:none;stroke-opacity:1;display:inline"/>
<path d="M 12.55,32.43 C 11.33,32.93 9.97,32.82 9.86,32.01 C 9.76,31.3 10.69,30.18 12.3,29.76 C 14.02,29.32 14.19,29.71 14.19,29.71" id="stroke15" style="fill:none;fill-rule:evenodd;stroke:#000000;stroke-width:0.5;stroke-linecap:butt;stroke-linejoin:miter;stroke-miterlimit:4;stroke-dasharray:none;stroke-opacity:1"/>
<path d="M 12.86,28.9 L 13.27,28.87" id="p4173" style="fill:none;fill-rule:evenodd;stroke:#efefef;stroke-width:0.30;stroke-linecap:round;stroke-linejoin:miter;stroke-miterlimit:4;stroke-dasharray:none;stroke-opacity:0.31"/>
<path d="M 13.23,29.52 L 13.64,29.5" id="p4175" style="fill:none;fill-rule:evenodd;stroke:#efefef;stroke-width:0.30;stroke-linecap:round;stroke-linejoin:miter;stroke-miterlimit:4;stroke-dasharray:none;stroke-opacity:0.31;display:inline"/>
<path d="M 13.54,34.44 C 12.32,34.94 10.96,34.83 10.85,34.03 C 10.75,33.31 11.68,32.2 13.29,31.78 C 15.01,31.33 15.18,31.72 15.18,31.72" id="stroke16" style="fill:none;fill-rule:evenodd;stroke:#000000;stroke-width:0.5;stroke-linecap:butt;stroke-linejoin:miter;stroke-miterlimit:4;stroke-dasharray:none;stroke-opacity:1;display:inline"/>
<path d="M 13.84,35.1 C 12.62,35.6 11.26,35.49 11.15,34.68 C 11.05,33.97 11.98,32.85 13.59,32.43 C 15.31,31.99 15.48,32.38 15.48,32.38" id="stroke17" style="fill:none;fill-rule:evenodd;stroke:#000000;stroke-width:0.5;stroke-linecap:butt;stroke-linejoin:miter;stroke-miterlimit:4;stroke-dasharray:none;stroke-opacity:1"/>
<path d="M 14.15,31.57 L 14.56,31.54" id="p4183" style="fill:none;fill-rule:evenodd;stroke:#efefef;stroke-width:0.30;stroke-linecap:round;stroke-linejoin:miter;stroke-miterlimit:4;stroke-dasharray:none;stroke-opacity:0.31"/>
<path d="M 14.52,32.19 L 14.93,32.17" id="p4185" style="fill:none;fill-rule:evenodd;stroke:#efefef;stroke-width:0.30;stroke-linecap:round;stroke-linejoin:miter;stroke-miterlimit:4;stroke-dasharray:none;stroke-opacity:0.31;display:inline"/>
<path d="M 14.86,37.18 C 13.64,37.68 12.28,37.57 12.17,36.77 C 12.07,36.05 13,34.94 14.61,34.52 C 16.33,34.07 16.5,34.46 16.5,34.46" id="stroke18" style="fill:none;fill-rule:evenodd;stroke:#000000;stroke-width:0.5;stroke-linecap:butt;stroke-linejoin:miter;stroke-miterlimit:4;stroke-dasharray:none;stroke-opacity:1;display:inline"/>
<path d="M 15.16,37.84 C 13.94,38.34 12.58,38.23 12.47,37.42 C 12.37,36.71 13.3,35.59 14.91,35.17 C 16.63,34.73 16.8,35.12 16.8,35.12" id="stroke19" style="fill:none;fill-rule:evenodd;stroke:#000000;stroke-width:0.5;stroke-linecap:butt;stroke-linejoin:miter;stroke-miterlimit:4;stroke-dasharray:none;stroke-opacity:1"/>
<path d="M 15.47,34.31 L 15.88,34.28" id="p4193" style="fill:none;fill-rule:evenodd;stroke:#efefef;stroke-width:0.30;stroke-linecap:round;stroke-linejoin:miter;stroke-miterlimit:4;stroke-dasharray:none;stroke-opacity:0.31"/>
<path d="M 15.84,34.93 L 16.25,34.91" id="p4195" style="fill:none;fill-rule:evenodd;stroke:#efefef;stroke-width:0.30;stroke-linecap:round;stroke-linejoin:miter;stroke-miterlimit:4;stroke-dasharray:none;stroke-opacity:0.31;display:inline"/>
<path d="M 16.17,39.91 C 14.95,40.41 13.59,40.3 13.48,39.5 C 13.38,38.78 14.31,37.67 15.92,37.25 C 17.64,36.8 17.81,37.19 17.81,37.19" id="stroke20" style="fill:none;fill-rule:evenodd;stroke:#000000;stroke-width:0.5;stroke-linecap:butt;stroke-linejoin:miter;stroke-miterlimit:4;stroke-dasharray:none;stroke-opacity:1;display:inline"/>
<path d="M 16.47,40.57 C 15.25,41.07 13.89,40.96 13.78,40.15 C 13.68,39.44 14.61,38.32 16.22,37.9 C 17.94,37.46 18.11,37.85 18.11,37.85" id="stroke21" style="fill:none;fill-rule:evenodd;stroke:#000000;stroke-width:0.5;stroke-linecap:butt;stroke-linejoin:miter;stroke-miterlimit:4;stroke-dasharray:none;stroke-opacity:1"/>
<path d="M 16.78,37.04 L 17.19,37.01" id="p4203" style="fill:none;fill-rule:evenodd;stroke:#efefef;stroke-width:0.30;stroke-linecap:round;stroke-linejoin:miter;stroke-miterlimit:4;stroke-dasharray:none;stroke-opacity:0.31"/>
<path d="M 17.15,37.66 L 17.56,37.64" id="p4205" style="fill:none;fill-rule:evenodd;stroke:#efefef;stroke-width:0.30;stroke-linecap:round;stroke-linejoin:miter;stroke-miterlimit:4;stroke-dasharray:none;stroke-opacity:0.31;display:inline"/>
<path d="M 17.52,42.81 C 16.3,43.31 14.94,43.2 14.83,42.4 C 14.73,41.68 15.66,40.57 17.27,40.15 C 18.99,39.7 19.16,40.09 19.16,40.09" id="stroke22" style="fill:none;fill-rule:evenodd;stroke:#000000;stroke-width:0.5;stroke-linecap:butt;stroke-linejoin:miter;stroke-miterlimit:4;stroke-dasharray:none;stroke-opacity:1;display:inline"/>
<path d="M 17.82,43.47 C 16.6,43.97 15.24,43.86 15.13,43.05 C 15.03,42.34 15.96,41.22 17.57,40.8 C 19.29,40.36 19.46,40.75 19.46,40.75" id="stroke23" style="fill:none;fill-rule:evenodd;stroke:#000000;stroke-width:0.5;stroke-linecap:butt;stroke-linejoin:miter;stroke-miterlimit:4;stroke-dasharray:none;stroke-opacity:1"/>
<path d="M 18.13,39.94 L 18.54,39.91" id="p4092" style="fill:none;fill-rule:evenodd;stroke:#efefef;stroke-width:0.30;stroke-linecap:round;stroke-linejoin:miter;stroke-miterlimit:4;stroke-dasharray:none;stroke-opacity:0.31"/>
<path d="M 18.5,40.56 L 18.91,40.54" id="p4094" style="fill:none;fill-rule:evenodd;stroke:#efefef;stroke-width:0.30;stroke-linecap:round;stroke-linejoin:miter;stroke-miterlimit:4;stroke-dasharray:none;stroke-opacity:0.31;display:inline"/>
</g>
</svg>
